<?xml version="1.0" standalone="no"?>
    <svg width="256" height="256" xmlns="http://www.w3.org/2000/svg" version="1.1">
    <polyline stroke="black" stroke-width="3" stroke-linecap="round" fill="transparent" stroke-linejoin="round" points="42 106 42 123 42 138 42 155 42 166 44 175 47 182 47 182 " />
        <polyline stroke="black" stroke-width="3" stroke-linecap="round" fill="transparent" stroke-linejoin="round" points="46 101 51 92 54 87 59 83 67 82 72 82 77 87 79 98 80 115 81 127 82 141 82 141 " />
        <polyline stroke="black" stroke-width="3" stroke-linecap="round" fill="transparent" stroke-linejoin="round" points="55 131 61 123 67 121 74 119 84 119 91 119 91 119 " />
        <polyline stroke="black" stroke-width="3" stroke-linecap="round" fill="transparent" stroke-linejoin="round" points="53 202 59 192 68 185 81 175 97 163 97 163 " />
        <polyline stroke="black" stroke-width="3" stroke-linecap="round" fill="transparent" stroke-linejoin="round" points="171 30 166 38 166 48 165 56 162 64 162 64 " />
        <polyline stroke="black" stroke-width="3" stroke-linecap="round" fill="transparent" stroke-linejoin="round" points="115 77 129 70 142 69 156 66 176 63 192 63 192 63 " />
        <polyline stroke="black" stroke-width="3" stroke-linecap="round" fill="transparent" stroke-linejoin="round" points="125 91 122 101 123 106 129 111 129 111 " />
        <polyline stroke="black" stroke-width="3" stroke-linecap="round" fill="transparent" stroke-linejoin="round" points="187 81 188 84 187 93 180 103 180 103 " />
        <polyline stroke="black" stroke-width="3" stroke-linecap="round" fill="transparent" stroke-linejoin="round" points="118 144 124 141 133 141 147 140 164 136 178 133 186 132 186 132 " />
        <polyline stroke="black" stroke-width="3" stroke-linecap="round" fill="transparent" stroke-linejoin="round" points="158 90 153 99 149 113 141 130 131 153 121 173 115 188 110 195 110 195 " />
        <polyline stroke="black" stroke-width="3" stroke-linecap="round" fill="transparent" stroke-linejoin="round" points="136 143 141 147 149 153 158 162 169 172 181 187 195 203 204 214 204 214 " />
        </svg>