<?xml version="1.0" standalone="no"?>
    <svg width="256" height="256" xmlns="http://www.w3.org/2000/svg" version="1.1">
    <polyline stroke="black" stroke-width="3" stroke-linecap="round" fill="transparent" stroke-linejoin="round" points="109 128 111 131 114 136 116 140 118 141 119 141 119 140 119 140 " />
        <polyline stroke="black" stroke-width="3" stroke-linecap="round" fill="transparent" stroke-linejoin="round" points="142 111 139 117 131 128 123 139 116 148 111 156 107 160 106 160 106 160 " />
        <polyline stroke="black" stroke-width="3" stroke-linecap="round" fill="transparent" stroke-linejoin="round" points="74 183 79 180 86 177 110 167 129 162 147 159 162 157 173 157 181 156 182 156 183 156 182 157 181 158 181 158 " />
        </svg>