<?xml version="1.0" standalone="no"?>
    <svg width="256" height="256" xmlns="http://www.w3.org/2000/svg" version="1.1">
    <polyline stroke="black" stroke-width="3" stroke-linecap="round" fill="transparent" stroke-linejoin="round" points="78.94464111328125 67.61099243164063 80.18377685546875 80.41555786132813 80.59686279296875 89.91571044921875 80.59686279296875 106.43771362304688 80.18377685546875 116.35092163085938 79.35772705078125 121.30752563476563 78.53158569335938 122.13363647460938 78.1185302734375 118.41616821289063 79.770751953125 106.85076904296876 83.07516479492188 93.63314819335938 88.44479370117188 82.89385986328125 95.46664428710938 74.21978759765625 105.3798828125 65.54574584960938 118.18441772460938 58.11083984375 129.33676147460938 53.567283630371094 139.66302490234375 51.91508483886719 147.097900390625 53.567283630371094 152.0545654296875 57.697784423828125 155.77197265625 69.67623901367188 154.11981201171875 87.43740844726563 147.510986328125 105.6116180419922 138.01083374023438 118.8292236328125 126.85848999023438 127.50328063964844 114.05392456054688 131.6337890625 103.72763061523438 130.80767822265625 97.11883544921876 127.91635131835938 93.814453125 123.78582763671876 92.57528686523438 116.76397705078124 96.292724609375 109.32908630371094 104.55377197265624 100.65501403808594 117.35833740234376 91.56790161132813 128.09762573242188 85.78520202636719 134.29339599609375 84.13299560546875 136.77166748046875 86.19825744628906 137.18475341796875 91.56790161132813 137.18475341796875 91.56790161132813 " />
        <polyline stroke="black" stroke-width="3" stroke-linecap="round" fill="transparent" stroke-linejoin="round" points="91.33615112304688 148.56883239746094 97.53192138671876 139.06869506835938 100.8363037109375 134.93817138671875 104.55377197265624 130.39463806152344 113.227783203125 121.30752563476563 121.07577514648438 112.63346862792967 124.38018798828124 108.5029754638672 124.38018798828124 108.5029754638672 " />
        <polyline stroke="black" stroke-width="3" stroke-linecap="round" fill="transparent" stroke-linejoin="round" points="124.793212890625 69.67623901367188 119.83660888671876 86.19825744628906 117.35833740234376 98.58975219726563 115.29306030273438 113.45956420898438 113.640869140625 128.742431640625 111.16256713867188 167.98220825195313 111.16256713867188 186.9825134277344 111.57562255859376 201.43927001953125 111.9886474609375 209.7002868652344 111.9886474609375 209.7002868652344 " />
        </svg>