<?xml version="1.0" standalone="no"?>
    <svg width="256" height="256" xmlns="http://www.w3.org/2000/svg" version="1.1">
    <polyline stroke="black" stroke-width="3" stroke-linecap="round" fill="transparent" stroke-linejoin="round" points="83.43701171875 61.534057617187486 84.33319091796875 88.86819458007813 85.2293701171875 116.20233154296876 86.57366943359375 141.74407958984375 88.36605834960938 162.80484008789063 89.26229858398438 185.657958984375 89.26229858398438 191.03518676757813 89.26229858398438 197.30859375 89.26229858398438 197.30859375 " />
        <polyline stroke="black" stroke-width="3" stroke-linecap="round" fill="transparent" stroke-linejoin="round" points="97.77615356445315 70.0479736328125 103.60150146484376 67.80746459960938 109.42684936523438 65.56695556640625 116.596435546875 62.87835693359375 124.214111328125 60.18974304199219 140.79388427734375 54.812530517578125 155.5811767578125 51.67582702636719 169.47235107421875 50.77962493896485 181.1229248046875 52.572021484375 190.98114013671875 57.94923400878906 195.462158203125 62.87835693359375 210.24951171875 97.38211059570313 212.9381103515625 127.85296630859376 210.24951171875 155.18711853027344 204.4241943359375 175.79974365234375 198.1507568359375 188.794677734375 192.325439453125 196.41238403320313 185.1558837890625 199.9971923828125 175.297607421875 195.96429443359375 162.7508544921875 183.41746520996097 162.7508544921875 183.41746520996097 " />
        </svg>