<?xml version="1.0" standalone="no"?>
    <svg width="256" height="256" xmlns="http://www.w3.org/2000/svg" version="1.1">
    <polyline stroke="black" stroke-width="3" stroke-linecap="round" fill="transparent" stroke-linejoin="round" points="55.66107177734375 62.06323242187503 57.894287109375 99.2617645263672 60.12750244140625 136.46029663085938 59.64599609375 155.6903533935547 55.96075439453125 187.99627685546875 53.68524169921875 198.689697265625 51.68231201171875 205.60699462890625 51.482025146484375 206.2987060546875 " />
        <polyline stroke="black" stroke-width="3" stroke-linecap="round" fill="transparent" stroke-linejoin="round" points="80.3729553222656 79.90707397460938 95.36187744140624 75.58126831054688 110.35079956054688 71.25546264648438 122.87606811523438 68.52336120605469 132.82415771484375 66.58035278320313 146.07708740234375 65.8460693359375 170.0123291015625 69.07901000976563 172.81005859375 72.47952270507813 179.662353515625 97.77833557128906 183.08807373046875 141.10028076171875 184.0738525390625 163.1417694091797 183.3858642578125 194.201171875 183.18023681640625 204.203125 182.898681640625 219.77777099609375 182.48846435546875 220.9917907714844 182.443359375 221.12530517578125 182.44293212890625 221.12652587890625 179.994384765625 221.00299072265625 174.6634521484375 221.30035400390625 150.30645751953125 222.8037109375 140.47091674804688 222.32537841796875 " />
        </svg>