<?xml version="1.0" standalone="no"?>
    <svg width="256" height="256" xmlns="http://www.w3.org/2000/svg" version="1.1">
    <polyline stroke="black" stroke-width="3" stroke-linecap="round" fill="transparent" stroke-linejoin="round" points="74.34725952148438 65.60639953613281 73.92840576171875 88.64349365234375 73.509521484375 102.046875 72.67184448242188 115.869140625 70.99642944335938 143.51365661621094 70.57757568359375 170.32046508789063 70.99642944335938 191.68212890625 70.99642944335938 204.66668701171875 70.57757568359375 211.7872314453125 70.57757568359375 211.7872314453125 " />
        <polyline stroke="black" stroke-width="3" stroke-linecap="round" fill="transparent" stroke-linejoin="round" points="79.37353515625 69.79495239257813 91.939208984375 63.09326171875 106.59921264648438 57.64813232421875 114.976318359375 55.134979248046875 122.9345703125 53.45955657958984 137.17572021484375 51.78413391113281 151.41680908203125 53.04070281982422 164.4013671875 57.229278564453125 176.5482177734375 66.44410705566406 188.69500732421875 83.61721801757813 198.74755859375 108.74859619140624 202.9361572265625 137.64968872070313 201.6795654296875 166.13189697265625 195.396728515625 190.42556762695313 189.1138916015625 204.66668701171875 182.4122314453125 212.20608520507813 170.6842041015625 216.81350708007813 161.050537109375 215.1380920410156 161.050537109375 215.1380920410156 " />
        </svg>