<?xml version="1.0" standalone="no"?>
    <svg width="256" height="256" xmlns="http://www.w3.org/2000/svg" version="1.1">
    <polyline stroke="black" stroke-width="3" stroke-linecap="round" fill="transparent" stroke-linejoin="round" points="61.493255615234375 56.196380615234375 61.493255615234375 74.64189147949219 61.493255615234375 90.32058715820313 61.03216552734375 124.90594482421876 61.03216552734375 140.58462524414063 61.03216552734375 165.94720458984375 60.57098388671875 183.93161010742188 58.7264404296875 194.07666015625 56.88189697265625 200.07144165039065 56.88189697265625 200.07144165039065 " />
        <polyline stroke="black" stroke-width="3" stroke-linecap="round" fill="transparent" stroke-linejoin="round" points="64.72125244140625 61.268890380859375 75.327392578125 49.279296875 82.70565795898438 43.28450775146485 91.92840576171876 36.828575134277344 102.07342529296876 30.833786010742188 131.12509155273438 21.149887084960938 145.88153076171875 23.45556640625 157.4100341796875 34.06175231933594 170.782958984375 59.885467529296875 180.927978515625 95.39309692382813 186.00054931640625 127.67277526855467 186.461669921875 151.19082641601563 182.7725830078125 171.4808807373047 176.77777099609375 185.31500244140625 169.39959716796875 194.53778076171875 158.332275390625 201.454833984375 143.57586669921875 204.2216796875 135.27536010742188 203.76055908203125 135.27536010742188 203.76055908203125 " />
        </svg>