<?xml version="1.0" standalone="no"?>
    <svg width="256" height="256" xmlns="http://www.w3.org/2000/svg" version="1.1">
    <polyline stroke="black" stroke-width="3" stroke-linecap="round" fill="transparent" stroke-linejoin="round" points="66 85 66 99 66 113 66 133 66 145 66 157 68 176 71 191 75 201 78 202 78 202 " />
        <polyline stroke="black" stroke-width="3" stroke-linecap="round" fill="transparent" stroke-linejoin="round" points="72 91 88 87 104 83 127 78 146 74 164 72 177 72 188 80 196 95 200 115 202 142 202 169 202 187 201 198 196 202 185 202 169 202 153 199 138 191 125 182 125 182 " />
        </svg>