<?xml version="1.0" standalone="no"?>
    <svg width="256" height="256" xmlns="http://www.w3.org/2000/svg" version="1.1">
    <polyline stroke="black" stroke-width="3" stroke-linecap="round" fill="transparent" stroke-linejoin="round" points="74.1982421875 120.89447021484376 92.37249755859376 112.63346862792967 111.78582763671876 105.6116180419922 130.7861328125 100.24197387695313 151.025634765625 95.69842529296876 157.22137451171875 94.04620361328124 166.7215576171875 92.80705261230467 168.37371826171875 91.98097229003906 168.37371826171875 91.98097229003906 " />
        <polyline stroke="black" stroke-width="3" stroke-linecap="round" fill="transparent" stroke-linejoin="round" points="102.69873046875 147.32969665527344 101.45956420898438 155.5906982421875 100.22042846679688 163.4386444091797 98.98129272460938 170.04745483398438 97.3291015625 179.547607421875 96.916015625 184.91726684570313 97.3291015625 188.2216796875 98.98129272460938 188.63470458984375 104.35092163085938 186.9825134277344 113.85107421875 182.85202026367188 123.7642822265625 177.06930541992188 133.677490234375 168.80828857421875 133.677490234375 168.80828857421875 " />
        <polyline stroke="black" stroke-width="3" stroke-linecap="round" fill="transparent" stroke-linejoin="round" points="142.3515625 122.5466766357422 142.76458740234375 130.80767822265625 143.5906982421875 139.4817352294922 144.41680908203125 149.3949432373047 145.242919921875 173.764892578125 145.242919921875 187.80862426757813 145.65594482421875 202.265380859375 145.65594482421875 202.265380859375 " />
        </svg>