<?xml version="1.0" standalone="no"?>
    <svg width="256" height="256" xmlns="http://www.w3.org/2000/svg" version="1.1">
    <polyline stroke="black" stroke-width="3" stroke-linecap="round" fill="transparent" stroke-linejoin="round" points="42.8548583984375 112.80245971679688 63.0479736328125 107.64720153808594 76.36572265625 104.62857055664063 105.77816772460938 98.25247192382813 117.1683349609375 96.13088989257813 145.962646484375 94.1028289794922 156.3309326171875 94.39212036132813 170.998779296875 95.67037963867188 203.0164794921875 93.95550537109376 205.79486083984375 92.51116943359376 209.7835693359375 89.84809875488281 226.25390625 88.04850769042969 233.43475341796875 87.40542602539063 235.38275146484375 86.3004150390625 235.5321044921875 86.21568298339844 " />
        <polyline stroke="black" stroke-width="3" stroke-linecap="round" fill="transparent" stroke-linejoin="round" points="93.07736206054688 117.85203552246094 94.16326904296876 140.38047790527344 93.8057861328125 152.73321533203125 93.158203125 163.38839721679688 91.83514404296876 179.53048706054688 91.2589111328125 188.6517333984375 91.3740234375 191.6878662109375 92.08334350585938 196.89035034179688 92.68719482421876 198.722412109375 94.56903076171876 201.45538330078125 96.5023193359375 202.0323486328125 98.30926513671876 201.96502685546875 109.50888061523438 198.93771362304688 117.25167846679688 195.65798950195313 125.7515869140625 192.44317626953125 142.03509521484375 187.6011962890625 155.8995361328125 187.0648193359375 161.70184326171875 188.79916381835935 161.9100341796875 188.87271118164065 " />
        <polyline stroke="black" stroke-width="3" stroke-linecap="round" fill="transparent" stroke-linejoin="round" points="163.6402587890625 105.24411010742188 164.27679443359375 118.0859375 164.366943359375 132.5792694091797 164.1331787109375 160.95541381835938 164.02728271484375 170.88278198242188 162.8924560546875 183.15353393554688 162.78680419921875 181.87423706054688 " />
        </svg>