<?xml version="1.0" standalone="no"?>
    <svg width="256" height="256" xmlns="http://www.w3.org/2000/svg" version="1.1">
    <polyline stroke="black" stroke-width="3" stroke-linecap="round" fill="transparent" stroke-linejoin="round" points="57 90 58 90 61 91 70 89 80 86 99 82 104 81 124 79 142 77 157 76 168 75 175 75 179 75 181 75 181 77 181 77 " />
        <polyline stroke="black" stroke-width="3" stroke-linecap="round" fill="transparent" stroke-linejoin="round" points="102 85 101 85 101 88 101 89 102 96 102 99 102 112 102 117 100 137 98 153 98 162 98 165 100 165 101 164 101 164 " />
        <polyline stroke="black" stroke-width="3" stroke-linecap="round" fill="transparent" stroke-linejoin="round" points="155 80 155 79 154 82 154 85 154 94 154 105 154 118 152 131 149 142 147 150 146 157 146 160 147 161 147 161 " />
        <polyline stroke="black" stroke-width="3" stroke-linecap="round" fill="transparent" stroke-linejoin="round" points="107 165 107 164 108 164 113 164 122 164 132 164 142 164 147 164 149 165 152 166 152 166 " />
        </svg>