<?xml version="1.0" standalone="no"?>
    <svg width="256" height="256" xmlns="http://www.w3.org/2000/svg" version="1.1">
    <polyline stroke="black" stroke-width="3" stroke-linecap="round" fill="transparent" stroke-linejoin="round" points="124 46 125 46 125 45 126 45 128 45 129 45 130 46 133 47 135 49 136 51 138 55 139 59 140 63 140 67 140 72 138 76 137 79 136 80 " />
        <polyline stroke="black" stroke-width="3" stroke-linecap="round" fill="transparent" stroke-linejoin="round" points="71 91 71 91 72 90 73 89 77 88 80 87 84 86 89 85 95 83 103 81 111 80 119 78 129 76 138 75 152 73 160 71 168 70 175 69 181 68 185 67 188 66 189 66 189 66 188 66 " />
        <polyline stroke="black" stroke-width="3" stroke-linecap="round" fill="transparent" stroke-linejoin="round" points="72 108 74 109 75 110 76 110 76 111 77 112 77 113 79 116 80 118 81 120 83 123 84 125 87 126 90 128 93 128 95 128 " />
        <polyline stroke="black" stroke-width="3" stroke-linecap="round" fill="transparent" stroke-linejoin="round" points="118 105 120 104 121 103 121 103 120 104 119 106 114 112 110 117 105 122 99 127 93 132 87 137 81 141 75 144 71 147 67 149 65 151 63 152 63 152 62 152 63 152 65 150 67 148 72 146 80 142 86 139 92 136 98 133 104 131 109 128 114 126 119 122 121 120 123 118 " />
        <polyline stroke="black" stroke-width="3" stroke-linecap="round" fill="transparent" stroke-linejoin="round" points="100 87 98 91 95 97 92 106 88 118 84 130 79 148 76 160 73 170 71 179 69 186 67 191 66 195 66 197 66 198 66 198 " />
        <polyline stroke="black" stroke-width="3" stroke-linecap="round" fill="transparent" stroke-linejoin="round" points="84 154 86 153 88 153 91 154 92 156 94 158 96 162 98 166 101 170 103 174 106 178 109 180 112 182 113 183 115 182 " />
        <polyline stroke="black" stroke-width="3" stroke-linecap="round" fill="transparent" stroke-linejoin="round" points="120 108 119 107 119 106 119 105 120 105 121 105 123 106 125 107 128 109 131 111 134 113 137 116 141 118 144 120 147 121 151 121 154 121 156 120 " />
        <polyline stroke="black" stroke-width="3" stroke-linecap="round" fill="transparent" stroke-linejoin="round" points="171 100 171 100 170 101 168 104 165 109 161 114 156 120 151 126 146 132 141 137 139 140 136 142 " />
        <polyline stroke="black" stroke-width="3" stroke-linecap="round" fill="transparent" stroke-linejoin="round" points="122 145 125 143 129 141 136 137 142 135 148 133 154 131 161 130 167 128 173 126 178 125 183 123 187 120 189 118 190 116 " />
        <polyline stroke="black" stroke-width="3" stroke-linecap="round" fill="transparent" stroke-linejoin="round" points="162 79 160 83 157 90 153 100 147 118 143 131 139 144 135 156 132 167 130 177 128 186 126 193 125 198 124 202 123 205 123 205 " />
        <polyline stroke="black" stroke-width="3" stroke-linecap="round" fill="transparent" stroke-linejoin="round" points="141 154 144 155 146 156 149 158 152 160 155 163 159 167 163 171 167 176 171 181 176 186 181 191 183 192 186 194 " />
        </svg>