<?xml version="1.0" standalone="no"?>
    <svg width="256" height="256" xmlns="http://www.w3.org/2000/svg" version="1.1">
    <polyline stroke="black" stroke-width="3" stroke-linecap="round" fill="transparent" stroke-linejoin="round" points="96 41 96 43 96 48 95 56 92 66 89 77 86 88 82 99 77 113 76 117 71 127 70 130 67 135 66 137 " />
        <polyline stroke="black" stroke-width="3" stroke-linecap="round" fill="transparent" stroke-linejoin="round" points="95 83 102 80 109 79 116 78 123 77 129 77 136 76 145 75 150 74 156 73 161 72 165 70 168 69 169 69 " />
        <polyline stroke="black" stroke-width="3" stroke-linecap="round" fill="transparent" stroke-linejoin="round" points="135 80 134 84 133 89 132 96 131 104 130 114 130 125 129 143 129 156 130 168 130 179 130 188 130 195 130 200 130 203 129 205 127 205 123 203 120 198 117 192 115 184 114 180 " />
        <polyline stroke="black" stroke-width="3" stroke-linecap="round" fill="transparent" stroke-linejoin="round" points="92 133 93 133 94 134 96 135 96 136 97 136 97 137 96 142 95 146 94 153 93 156 " />
        <polyline stroke="black" stroke-width="3" stroke-linecap="round" fill="transparent" stroke-linejoin="round" points="76 189 76 189 77 189 80 187 83 185 86 183 90 179 94 176 99 171 107 163 114 158 117 156 " />
        <polyline stroke="black" stroke-width="3" stroke-linecap="round" fill="transparent" stroke-linejoin="round" points="165 112 165 112 165 112 164 113 160 117 157 121 152 126 147 131 142 137 139 140 136 143 " />
        <polyline stroke="black" stroke-width="3" stroke-linecap="round" fill="transparent" stroke-linejoin="round" points="132 154 135 154 139 154 143 155 147 156 151 157 155 158 161 162 166 166 169 169 175 175 178 179 " />
        </svg>