<?xml version="1.0" standalone="no"?>
    <svg width="256" height="256" xmlns="http://www.w3.org/2000/svg" version="1.1">
    <polyline stroke="black" stroke-width="3" stroke-linecap="round" fill="transparent" stroke-linejoin="round" points="102.94891764805004 47.05264476280719 97.08600393815205 60.610632716946355 87.55876915956776 76.73364541916587 76.19937384664036 93.22309022825402 64.47354642684434 107.1475102892618 53.84701532765422 118.14047349532056 44.68621265593856 126.20197984643032 37.72400262543471 130.96559723572247 37.72400262543471 130.96559723572247 " />
        <polyline stroke="black" stroke-width="3" stroke-linecap="round" fill="transparent" stroke-linejoin="round" points="101.11675711370692 78.56580595350897 120.53765877774408 76.36721331229722 143.9893136173361 72.33646013674235 167.4409684569282 71.23716381613647 187.9611664415711 70.87073170926786 203.717747036922 70.87073170926786 211.41282128116313 70.87073170926786 214.7107102429809 71.23716381613647 216.17643867045535 71.97002802987373 216.90930288419256 73.0693243504796 217.2757349910612 73.43575645734825 217.2757349910612 73.43575645734825 " />
        <polyline stroke="black" stroke-width="3" stroke-linecap="round" fill="transparent" stroke-linejoin="round" points="143.9893136173361 96.154547083203 143.9893136173361 112.64399189229115 143.9893136173361 136.09564673188322 143.9893136173361 160.64659789208113 143.9893136173361 183.36538851793583 141.05785676238713 200.58769754076133 137.75996780056948 211.5806607468201 135.19494305248907 214.8785497086377 133.362782518146 214.8785497086377 127.8663009151166 212.31352496055737 116.5069056021892 198.02267279268096 116.5069056021892 198.02267279268096 " />
        <polyline stroke="black" stroke-width="3" stroke-linecap="round" fill="transparent" stroke-linejoin="round" points="95.62027551067752 120.70549824340094 98.91816447249516 129.8663009151166 103.31534975491866 137.56137515935774 108.44539925107944 143.42428886925572 111.74328821289704 146.72217783107334 112.1097203197657 148.18790625854786 112.1097203197657 148.18790625854786 " />
        <polyline stroke="black" stroke-width="3" stroke-linecap="round" fill="transparent" stroke-linejoin="round" points="55.67917586199735 191.42689486904567 71.80218856421686 183.36538851793583 91.58952233512264 172.0059932050085 113.57544874724022 159.1808694646066 142.8900172967302 143.42428886925572 142.8900172967302 143.42428886925572 " />
        <polyline stroke="black" stroke-width="3" stroke-linecap="round" fill="transparent" stroke-linejoin="round" points="194.923376472075 114.10972031976569 191.62548751025747 119.60620192279508 185.3961416934908 126.20197984643032 174.40317848743211 134.2634861975401 154.61584471652623 144.15715308299298 141.79072097612436 150.020066792891 141.79072097612436 150.020066792891 " />
        <polyline stroke="black" stroke-width="3" stroke-linecap="round" fill="transparent" stroke-linejoin="round" points="137.75996780056948 147.45504204481065 146.18790625854786 154.7836841821831 156.81443735773792 165.77664738824186 169.27312899127128 180.43393166298696 185.7625738003594 193.6254875102574 196.3891048995495 198.75553700641817 196.3891048995495 198.75553700641817 " />
        </svg>