<?xml version="1.0" standalone="no"?>
    <svg width="256" height="256" xmlns="http://www.w3.org/2000/svg" version="1.1">
    <polyline stroke="black" stroke-width="3" stroke-linecap="round" fill="transparent" stroke-linejoin="round" points="107.58245849609376 43.52576446533203 102.685546875 70.45875549316406 86.77059936523438 105.96133422851563 68.4072265625 135.9548797607422 55.552825927734375 153.09405517578125 45.14691162109375 165.33631896972656 45.14691162109375 165.33631896972656 " />
        <polyline stroke="black" stroke-width="3" stroke-linecap="round" fill="transparent" stroke-linejoin="round" points="84.93426513671875 121.87628173828124 92.8917236328125 142.07601928710938 95.95230102539063 155.54251098632813 98.4007568359375 169.62110900878906 99.625 180.02703857421875 99.625 186.76028442382813 101.46133422851563 189.82086181640625 101.46133422851563 189.82086181640625 " />
        <polyline stroke="black" stroke-width="3" stroke-linecap="round" fill="transparent" stroke-linejoin="round" points="130.23065185546875 52.70746612548828 134.51544189453125 72.29508972167969 133.9033203125 102.9007568359375 129.00640869140625 132.28219604492188 122.273193359375 156.76673889160156 117.9884033203125 167.78477478027344 116.15203857421876 173.29379272460938 116.15203857421876 176.3543701171875 118.60049438476563 176.3543701171875 124.10952758789063 173.29379272460938 133.9033203125 167.78477478027344 148.59405517578125 159.21519470214844 166.3453369140625 150.64559936523438 182.8724365234375 142.68812561035156 202.46002197265625 128.60952758789063 223.2718505859375 110.85823059082033 223.2718505859375 110.85823059082033 " />
        <polyline stroke="black" stroke-width="3" stroke-linecap="round" fill="transparent" stroke-linejoin="round" points="203.68426513671875 38.62886047363281 193.2783203125 48.42266845703125 186.5450439453125 60.052825927734375 180.4239501953125 77.19200134277344 174.30279541015625 104.7371063232422 172.46649169921875 127.3852996826172 172.46649169921875 153.70616149902344 172.46649169921875 176.9664764404297 172.46649169921875 203.89947509765625 172.46649169921875 203.89947509765625 " />
        </svg>