<?xml version="1.0" standalone="no"?>
    <svg width="256" height="256" xmlns="http://www.w3.org/2000/svg" version="1.1">
    <polyline stroke="black" stroke-width="3" stroke-linecap="round" fill="transparent" stroke-linejoin="round" points="101.63400268554688 30.67138671875 91.22808837890624 53.319580078125 74.08892822265625 84.537353515625 64.29510498046875 101.67652893066406 55.72552490234375 115.1430206298828 50.82861328125 121.26416015625 50.82861328125 121.26416015625 53.27703857421875 115.1430206298828 60.01031494140625 100.45230102539063 64.29510498046875 94.3311767578125 67.35565185546875 93.10694885253906 68.57989501953125 101.06442260742188 68.57989501953125 129.833740234375 67.35565185546875 156.76673889160156 68.57989501953125 175.74224853515625 70.41622924804688 183.69973754882813 73.476806640625 188.59661865234375 73.476806640625 188.59661865234375 " />
        <polyline stroke="black" stroke-width="3" stroke-linecap="round" fill="transparent" stroke-linejoin="round" points="146.31829833984375 50.259010314941406 142.03350830078125 79.02833557128906 134.07601928710938 116.9793701171875 127.95489501953124 139.01544189453125 121.22161865234376 156.1546173095703 115.71261596679688 167.17266845703125 113.26416015625 173.29379272460938 113.26416015625 175.74224853515625 118.773193359375 172.6816864013672 134.6881103515625 163.49998474121094 156.7242431640625 150.0334930419922 178.148193359375 136.56700134277344 196.5115966796875 121.26416015625 214.875 99.84019470214844 214.875 99.84019470214844 " />
        <polyline stroke="black" stroke-width="3" stroke-linecap="round" fill="transparent" stroke-linejoin="round" points="200.18426513671875 45.36210632324219 195.89947509765625 68.62240600585938 192.226806640625 101.06442260742188 190.39044189453125 126.16107177734376 188.5540771484375 150.0334930419922 186.7177734375 172.06956481933594 183.0450439453125 206.96002197265625 183.0450439453125 206.96002197265625 " />
        </svg>