<?xml version="1.0" standalone="no"?>
    <svg width="256" height="256" xmlns="http://www.w3.org/2000/svg" version="1.1">
    <polyline stroke="black" stroke-width="3" stroke-linecap="round" fill="transparent" stroke-linejoin="round" points="112 48 93 82 76 107 56 134 40 157 30 170 27 172 27 172 " />
        <polyline stroke="black" stroke-width="3" stroke-linecap="round" fill="transparent" stroke-linejoin="round" points="81 100 85 114 85 122 87 140 90 157 92 178 93 196 94 209 95 214 95 214 " />
        <polyline stroke="black" stroke-width="3" stroke-linecap="round" fill="transparent" stroke-linejoin="round" points="144 84 142 98 142 116 141 145 138 172 137 182 137 182 " />
        <polyline stroke="black" stroke-width="3" stroke-linecap="round" fill="transparent" stroke-linejoin="round" points="112 193 116 183 134 172 157 160 180 150 203 139 221 130 221 130 " />
        <polyline stroke="black" stroke-width="3" stroke-linecap="round" fill="transparent" stroke-linejoin="round" points="184 60 179 80 179 103 179 131 179 170 179 204 179 218 179 218 " />
        </svg>