<?xml version="1.0" standalone="no"?>
    <svg width="256" height="256" xmlns="http://www.w3.org/2000/svg" version="1.1">
    <polyline stroke="black" stroke-width="3" stroke-linecap="round" fill="transparent" stroke-linejoin="round" points="1.36956787109375 137.2247314453125 21.095550537109375 121.70265197753906 44.0552978515625 108.4442138671875 64.10464477539063 98.41954040527344 83.18386840820313 87.42474365234375 83.18386840820313 87.42474365234375 " />
        <polyline stroke="black" stroke-width="3" stroke-linecap="round" fill="transparent" stroke-linejoin="round" points="60.870880126953125 68.66886901855469 49.552734375 123.96629333496094 44.7020263671875 157.5974884033203 40.498138427734375 181.20399475097656 36.61761474609375 197.37283325195313 35.000732421875 202.54684448242188 35.000732421875 202.54684448242188 " />
        <polyline stroke="black" stroke-width="3" stroke-linecap="round" fill="transparent" stroke-linejoin="round" points="52.13970947265625 164.71176147460938 74.45272827148438 175.70657348632813 82.2137451171875 178.9403533935547 82.2137451171875 178.9403533935547 " />
        <polyline stroke="black" stroke-width="3" stroke-linecap="round" fill="transparent" stroke-linejoin="round" points="118.10855102539063 88.07148742675781 141.06829833984375 83.54420471191406 141.06829833984375 83.54420471191406 " />
        <polyline stroke="black" stroke-width="3" stroke-linecap="round" fill="transparent" stroke-linejoin="round" points="95.47222900390624 111.03121948242188 94.17864990234376 130.43382263183594 96.76568603515624 146.27926635742188 100.3228759765625 150.8065643310547 104.203369140625 153.39356994628906 104.203369140625 153.39356994628906 " />
        <polyline stroke="black" stroke-width="3" stroke-linecap="round" fill="transparent" stroke-linejoin="round" points="158.85400390625 101.65330505371094 142.36181640625 121.055908203125 128.45663452148438 135.28448486328125 117.46182250976563 146.92604064941406 107.4371337890625 155.0104522705078 101.93975830078124 158.24424743652344 99.35272216796876 158.8909912109375 102.58648681640624 155.65721130371094 119.07870483398438 145.95591735839844 139.451416015625 140.1351318359375 158.207275390625 135.60784912109375 173.7293701171875 130.75721740722656 173.7293701171875 130.75721740722656 " />
        <polyline stroke="black" stroke-width="3" stroke-linecap="round" fill="transparent" stroke-linejoin="round" points="156.913818359375 97.1260223388672 172.75921630859375 93.89225769042967 190.2215576171875 91.62863159179688 198.30596923828125 89.68836975097656 198.30596923828125 89.68836975097656 " />
        <polyline stroke="black" stroke-width="3" stroke-linecap="round" fill="transparent" stroke-linejoin="round" points="195.07220458984375 63.8182373046875 177.60986328125 91.95201110839844 164.3514404296875 126.87669372558594 155.6202392578125 158.24424743652344 148.1826171875 182.49745178222656 143.97869873046875 198.98968505859375 143.97869873046875 198.98968505859375 " />
        <polyline stroke="black" stroke-width="3" stroke-linecap="round" fill="transparent" stroke-linejoin="round" points="174.052734375 124.61305236816406 190.2215576171875 149.51303100585938 201.8631591796875 171.17930603027344 210.917724609375 185.40786743164065 219.00213623046875 194.1390686035156 219.00213623046875 194.1390686035156 " />
        </svg>