<?xml version="1.0" standalone="no"?>
    <svg width="256" height="256" xmlns="http://www.w3.org/2000/svg" version="1.1">
    <polyline stroke="black" stroke-width="3" stroke-linecap="round" fill="transparent" stroke-linejoin="round" points="39.582977294921875 102.53118896484376 60.386322021484375 98.37051391601563 74.65145874023438 96.58737182617188 89.510986328125 93.61546325683594 103.1817626953125 89.45480346679688 113.880615234375 84.69975280761719 119.82443237304688 80.53907775878906 122.79632568359376 74.59527587890625 122.79632568359376 74.59527587890625 " />
        <polyline stroke="black" stroke-width="3" stroke-linecap="round" fill="transparent" stroke-linejoin="round" points="82.9727783203125 59.141357421875 80.59527587890625 75.78404235839844 78.21774291992188 91.23794555664063 73.46270751953125 113.23004150390624 68.11328125 135.22213745117188 62.76385498046875 155.4311065673828 58.0087890625 170.885009765625 53.848114013671875 182.77264404296875 52.064971923828125 188.7164306640625 52.064971923828125 188.7164306640625 52.064971923828125 188.7164306640625 " />
        <polyline stroke="black" stroke-width="3" stroke-linecap="round" fill="transparent" stroke-linejoin="round" points="74.65145874023438 142.35472106933594 82.9727783203125 150.67605590820313 88.32223510742188 156.61985778808594 93.0772705078125 163.15805053710938 98.42669677734376 168.5074920654297 101.99298095703124 172.0737762451172 101.99298095703124 173.26254272460938 101.99298095703124 173.26254272460938 " />
        <polyline stroke="black" stroke-width="3" stroke-linecap="round" fill="transparent" stroke-linejoin="round" points="94.26605224609376 127.49519348144533 109.71994018554688 122.14576721191406 121.01318359375 118.5794677734375 131.7120361328125 115.60757446289063 141.8165283203125 112.04127502441406 148.9490966796875 109.0693817138672 153.70416259765625 106.6918487548828 155.4873046875 104.90870666503906 155.4873046875 104.90870666503906 " />
        <polyline stroke="black" stroke-width="3" stroke-linecap="round" fill="transparent" stroke-linejoin="round" points="109.71994018554688 127.49519348144533 107.3424072265625 142.35472106933594 106.748046875 151.8648223876953 107.93679809570313 160.78053283691406 109.12554931640624 167.3187255859375 110.90869140625 171.47938537597656 114.4749755859375 170.29063415527344 120.4188232421875 164.34681701660156 120.4188232421875 164.34681701660156 " />
        <polyline stroke="black" stroke-width="3" stroke-linecap="round" fill="transparent" stroke-linejoin="round" points="151.9210205078125 122.14576721191406 148.9490966796875 135.22213745117188 145.3828125 142.35472106933594 138.250244140625 151.8648223876953 128.74014282226563 163.75244140625 128.74014282226563 163.75244140625 " />
        <polyline stroke="black" stroke-width="3" stroke-linecap="round" fill="transparent" stroke-linejoin="round" points="91.88851928710938 178.61196899414063 106.15365600585938 177.42320251464844 115.66375732421876 176.82882690429688 125.76824951171876 175.6400604248047 135.2783203125 173.26254272460938 146.57159423828125 168.5074920654297 156.676025390625 161.37490844726563 163.80859375 153.05357360839844 163.80859375 153.05357360839844 " />
        <polyline stroke="black" stroke-width="3" stroke-linecap="round" fill="transparent" stroke-linejoin="round" points="157.86480712890625 101.93679809570313 170.3468017578125 97.77613830566406 179.2625732421875 95.39860534667967 189.96142578125 93.61546325683594 200.06591796875 91.23794555664063 208.38720703125 88.86041259765625 214.3310546875 84.69975280761719 218.49169921875 77.56718444824219 218.49169921875 77.56718444824219 " />
        <polyline stroke="black" stroke-width="3" stroke-linecap="round" fill="transparent" stroke-linejoin="round" points="198.8770751953125 41.90431213378906 194.7164306640625 62.70765686035156 190.5557861328125 83.510986328125 184.017578125 110.25813293457033 178.07379150390625 130.46710205078125 170.941162109375 151.2704315185547 164.40301513671875 169.10186767578125 158.459228515625 185.150146484375 154.8929443359375 195.8490295410156 153.1097412109375 203.57595825195313 153.1097412109375 205.9534912109375 153.1097412109375 205.9534912109375 " />
        <polyline stroke="black" stroke-width="3" stroke-linecap="round" fill="transparent" stroke-linejoin="round" points="174.50750732421875 151.8648223876953 182.23443603515625 158.9973907470703 186.3951416015625 164.94119262695313 192.93328857421875 173.26254272460938 201.254638671875 183.36700439453125 209.575927734375 194.06588745117188 217.30291748046875 205.35910034179688 223.2467041015625 214.86920166015625 223.2467041015625 214.86920166015625 " />
        </svg>