<?xml version="1.0" standalone="no"?>
    <svg width="256" height="256" xmlns="http://www.w3.org/2000/svg" version="1.1">
    <polyline stroke="black" stroke-width="3" stroke-linecap="round" fill="transparent" stroke-linejoin="round" points="35.31719970703125 117.83517456054689 43.4239501953125 112.43067932128906 51.53070068359375 107.02618408203124 60.98858642578125 101.28387451171876 71.797607421875 96.2171630859375 90.3756103515625 88.11039733886719 98.48239135742188 84.73257446289063 105.5758056640625 81.35476684570313 111.65585327148438 78.31472778320313 116.38479614257813 75.61245727539063 119.76263427734376 73.24800109863281 122.80267333984376 71.22128295898438 124.829345703125 69.87017822265625 126.18048095703124 68.85682678222656 126.85604858398438 68.18125915527344 127.19384765625 67.84347534179688 127.19384765625 67.50570678710938 126.85604858398438 67.50570678710938 125.5048828125 67.50570678710938 124.49154663085938 67.50570678710938 124.49154663085938 67.50570678710938 " />
        <polyline stroke="black" stroke-width="3" stroke-linecap="round" fill="transparent" stroke-linejoin="round" points="88.68667602539063 56.69664001464844 89.36224365234375 63.79008483886719 90.03781127929688 70.88352966308594 90.03781127929688 78.99028015136719 89.36224365234375 89.46151733398438 88.01113891601563 101.28387451171876 86.32217407226563 112.0928955078125 83.61996459960938 123.91526794433594 80.91769409179688 136.0753936767578 77.877685546875 146.2088623046875 74.49984741210938 156.34231567382813 71.45980834960938 165.46243286132813 68.41976928710938 173.56919860839844 66.39309692382813 179.98703002929688 64.36639404296875 185.05377197265625 62.677520751953125 189.78271484375 59.975250244140625 196.53836059570313 58.62408447265625 199.578369140625 57.272979736328125 201.6050720214844 57.272979736328125 201.6050720214844 " />
        <polyline stroke="black" stroke-width="3" stroke-linecap="round" fill="transparent" stroke-linejoin="round" points="85.64666748046875 159.0445556640625 90.03781127929688 161.07125854492188 94.428955078125 163.09796142578125 98.82015991210938 165.46243286132813 102.87356567382813 167.4891357421875 106.2513427734375 169.51577758789063 108.95358276367188 171.2047119140625 110.98031616210938 172.55584716796875 112.3314208984375 173.56919860839844 113.34478759765624 174.58255004882813 114.358154296875 175.25807189941406 115.03366088867188 175.59588623046875 115.3714599609375 175.59588623046875 115.3714599609375 175.59588623046875 " />
        <polyline stroke="black" stroke-width="3" stroke-linecap="round" fill="transparent" stroke-linejoin="round" points="98.1445617675781 123.5774841308594 104.90020751953124 119.1863250732422 111.65585327148438 114.795166015625 118.41143798828124 110.7417449951172 125.5048828125 107.02618408203124 131.58499145507813 103.9861297607422 137.3272705078125 101.28387451171876 142.73178100585938 98.91940307617188 149.48739624023438 95.87936401367188 151.51409912109375 94.86604309082033 152.865234375 94.1904754638672 154.21636962890625 93.85269165039063 155.229736328125 93.85269165039063 155.5675048828125 94.1904754638672 155.9052734375 94.1904754638672 155.9052734375 94.1904754638672 " />
        <polyline stroke="black" stroke-width="3" stroke-linecap="round" fill="transparent" stroke-linejoin="round" points="122.12710571289065 145.87103271484375 122.80267333984376 147.55996704101563 123.47824096679688 149.2489013671875 124.15377807617188 150.60003662109375 124.829345703125 151.61338806152344 125.5048828125 152.28890991210938 126.18048095703124 152.62672424316406 127.5316162109375 152.28890991210938 129.22052001953125 150.9378204345703 131.2471923828125 148.57334899902344 132.93609619140625 146.2088623046875 134.625 143.16880798339844 135.97613525390625 141.1421356201172 136.98947143554688 139.4532012939453 138.0028076171875 138.1020965576172 139.01620483398438 136.7509765625 140.02951049804688 135.39984130859375 141.38067626953125 134.38650512695313 142.05621337890625 133.71090698242188 143.069580078125 133.03536987304688 143.7451171875 132.69757080078125 144.08291625976563 132.69757080078125 144.42068481445313 133.03536987304688 144.75845336914063 134.04872131347656 144.42068481445313 136.41319274902344 143.069580078125 139.791015625 140.705078125 144.18215942382813 137.3272705078125 149.2489013671875 132.93609619140625 155.32896423339844 128.544921875 161.746826171875 124.49154663085938 166.8135528564453 121.11373901367188 170.86692810058594 118.41143798828124 174.24473571777344 116.38479614257813 176.27142333984375 115.03366088867188 177.96035766601563 114.358154296875 178.97369384765625 114.358154296875 179.3114776611328 115.03366088867188 178.97369384765625 119.08706665039063 176.94700622558594 127.19384765625 172.2180633544922 138.67843627929688 165.8002166748047 151.17633056640625 158.0312042236328 164.34979248046875 149.58668518066406 168.740966796875 146.54661560058594 168.740966796875 146.54661560058594 " />
        <polyline stroke="black" stroke-width="3" stroke-linecap="round" fill="transparent" stroke-linejoin="round" points="164.68756103515625 115.47071838378909 170.42987060546875 113.44403076171876 176.17218017578125 111.41734313964844 181.57672119140625 109.05287170410156 186.981201171875 106.35061645507813 192.04791259765625 103.64834594726563 196.77691650390625 100.94610595703124 200.1546630859375 98.58161926269533 202.85693359375 96.554931640625 204.88360595703125 94.86604309082033 206.23480224609375 93.17710876464844 207.24810791015625 91.82598876953124 207.24810791015625 91.82598876953124 " />
        <polyline stroke="black" stroke-width="3" stroke-linecap="round" fill="transparent" stroke-linejoin="round" points="185.63006591796875 63.79011535644531 185.63006591796875 73.24800109863281 185.63006591796875 82.70588684082031 184.61669921875 94.1904754638672 182.59002685546875 105.33726501464844 179.88775634765625 116.48403930664063 176.84771728515625 128.30642700195313 173.46990966796875 139.11544799804688 170.0921630859375 147.2222137451172 166.71429443359375 154.6533966064453 163.67425537109375 161.07125854492188 160.97198486328125 166.4757843017578 158.269775390625 170.86692810058594 155.9052734375 174.24473571777344 153.87860107421875 176.94700622558594 151.85186767578125 179.3114776611328 150.16302490234375 181.0003662109375 148.81182861328125 182.0137176513672 146.44735717773438 183.02706909179688 146.44735717773438 183.02706909179688 " />
        <polyline stroke="black" stroke-width="3" stroke-linecap="round" fill="transparent" stroke-linejoin="round" points="177.86114501953125 145.19554138183594 184.95452880859375 149.2489013671875 192.04791259765625 153.30226135253906 200.1546630859375 158.70680236816406 208.93701171875 164.4490966796875 217.04376220703125 170.5291290283203 224.13720703125 176.27142333984375 230.892822265625 181.67596435546875 236.29736328125 186.4049072265625 240.68853759765625 190.45828247070313 244.0662841796875 193.49832153320313 246.093017578125 195.5250244140625 247.78192138671875 197.21389770507813 249.13311767578125 198.22723388671875 250.14642333984375 199.2406311035156 251.15972900390625 199.91616821289065 251.8353271484375 200.59173583984375 251.8353271484375 201.26730346679688 251.8353271484375 201.26730346679688 " />
        </svg>