<?xml version="1.0" standalone="no"?>
    <svg width="256" height="256" xmlns="http://www.w3.org/2000/svg" version="1.1">
    <polyline stroke="black" stroke-width="3" stroke-linecap="round" fill="transparent" stroke-linejoin="round" points="41.3978271484375 110.6981201171875 68.51766967773438 92.61825561523438 77.5576171875 87.6873779296875 96.04833984375 79.46926879882813 102.62289428710938 76.59292602539063 112.8955078125 72.07295227050781 116.59368896484376 69.60751342773438 116.59368896484376 69.60751342773438 " />
        <polyline stroke="black" stroke-width="3" stroke-linecap="round" fill="transparent" stroke-linejoin="round" points="91.93930053710938 45.77494812011719 84.54296875 63.03302001953125 77.14666748046875 88.09829711914063 72.2158203125 109.46542358398438 64.4085693359375 143.57061767578125 60.710418701171875 157.1305389404297 58.2449951171875 167.4031982421875 54.13592529296875 182.19583129882813 52.081390380859375 187.126708984375 51.670501708984375 186.71578979492188 51.670501708984375 186.71578979492188 " />
        <polyline stroke="black" stroke-width="3" stroke-linecap="round" fill="transparent" stroke-linejoin="round" points="66.05221557617188 125.07986450195313 76.32489013671875 128.77801513671875 82.07757568359375 132.06524658203125 88.65206909179688 135.76341247558594 95.2265625 139.46157836914063 100.979248046875 142.7488250732422 111.66281127929688 147.6796875 115.36093139648438 149.32333374023438 119.05908203125 150.14512634277344 119.05908203125 150.14512634277344 " />
        <polyline stroke="black" stroke-width="3" stroke-linecap="round" fill="transparent" stroke-linejoin="round" points="117.00457763671876 105.35636901855467 131.79721069335938 100.42547607421876 137.96078491210938 98.37094116210938 144.1243896484375 96.31640625 154.8079833984375 93.0291748046875 158.506103515625 91.79646301269533 162.61517333984375 89.74191284179688 163.026123046875 88.92010498046875 161.79339599609375 88.09829711914063 158.9169921875 88.50920104980469 153.9862060546875 90.97463989257813 147.41162109375 96.72732543945313 138.78265380859375 114.80718994140624 133.44085693359375 136.58523559570313 130.97540283203125 154.2541961669922 129.74267578125 163.29412841796875 129.74267578125 164.937744140625 129.74267578125 165.34866333007813 129.74267578125 165.34866333007813 " />
        <polyline stroke="black" stroke-width="3" stroke-linecap="round" fill="transparent" stroke-linejoin="round" points="176.58599853515625 96.31640625 169.189697265625 112.34176635742188 159.7388916015625 130.421630859375 139.60443115234375 157.1305389404297 134.26263427734375 162.0614013671875 120.70272827148438 173.1558837890625 116.18280029296876 176.44314575195313 114.95004272460938 177.2649383544922 116.18280029296876 177.2649383544922 120.29183959960938 176.44314575195313 149.05526733398438 162.8832244873047 166.3133544921875 152.61056518554688 178.6405029296875 143.98153686523438 183.1605224609375 139.46157836914063 183.1605224609375 139.46157836914063 " />
        <polyline stroke="black" stroke-width="3" stroke-linecap="round" fill="transparent" stroke-linejoin="round" points="161.79339599609375 86.04376220703125 181.927734375 79.46926879882813 188.9132080078125 77.41473388671875 202.06219482421875 73.71656799316406 208.22576904296875 72.07295227050781 220.9638671875 68.37478637695313 225.07293701171875 66.32025146484375 225.07293701171875 66.32025146484375 " />
        <polyline stroke="black" stroke-width="3" stroke-linecap="round" fill="transparent" stroke-linejoin="round" points="206.5821533203125 59.745758056640625 193.022216796875 92.20735168457033 187.680419921875 110.6981201171875 182.33868408203125 132.06524658203125 178.2296142578125 150.5560302734375 174.9423828125 163.29412841796875 170.011474609375 181.37400817871097 167.95697021484375 189.18121337890625 167.54608154296875 189.59213256835935 167.54608154296875 189.59213256835935 " />
        <polyline stroke="black" stroke-width="3" stroke-linecap="round" fill="transparent" stroke-linejoin="round" points="192.200439453125 123.02531433105467 202.88397216796875 132.88706970214844 208.22576904296875 138.22885131835938 213.56756591796875 143.57061767578125 224.2510986328125 155.89781188964844 237.400146484375 176.85403442382813 237.400146484375 176.85403442382813 " />
        </svg>