<?xml version="1.0" standalone="no"?>
    <svg width="256" height="256" xmlns="http://www.w3.org/2000/svg" version="1.1">
    <polyline stroke="black" stroke-width="3" stroke-linecap="round" fill="transparent" stroke-linejoin="round" points="48.55328369140625 112.66976928710938 62.92120361328125 108.8665008544922 70.95028686523438 107.59873962402344 81.9375 106.75357055664063 94.19247436523438 105.48580932617188 135.6058349609375 103.79547119140624 157.58026123046875 102.95030212402344 173.6385498046875 101.25994873046876 179.5546875 100.83738708496094 189.274169921875 99.14703369140624 190.54193115234375 98.3018798828125 190.54193115234375 98.3018798828125 " />
        <polyline stroke="black" stroke-width="3" stroke-linecap="round" fill="transparent" stroke-linejoin="round" points="139.83172607421875 47.59162902832031 131.37997436523438 66.60797119140625 127.57675170898438 75.48225402832031 114.4765625 104.64065551757813 99.26351928710938 136.7571258544922 85.74081420898438 161.68963623046875 73.063232421875 180.7059783935547 62.076019287109375 194.22869873046875 54.469482421875 202.25784301757813 54.469482421875 202.25784301757813 " />
        <polyline stroke="black" stroke-width="3" stroke-linecap="round" fill="transparent" stroke-linejoin="round" points="106.87005615234376 123.234375 119.547607421875 133.79904174804688 132.64776611328125 146.89915466308594 141.09945678710938 154.92828369140625 149.5511474609375 162.9573974609375 167.29974365234375 178.5930633544922 182.0902099609375 191.69320678710935 196.4581298828125 204.37075805664065 196.4581298828125 204.37075805664065 " />
        </svg>