<?xml version="1.0" standalone="no"?>
    <svg width="256" height="256" xmlns="http://www.w3.org/2000/svg" version="1.1">
    <polyline stroke="black" stroke-width="3" stroke-linecap="round" fill="transparent" stroke-linejoin="round" points="60.637939453125 97.02984619140624 63.889739990234375 101.76446533203124 65.00836181640625 103.45539855957033 65.37255859375 104.0277099609375 65.73678588867188 104.5740203857422 65.97088623046875 104.93821716308594 66.126953125 105.1983642578125 66.25701904296875 105.406494140625 66.7513427734375 105.53656005859376 67.08950805664063 105.74465942382813 67.08950805664063 105.74465942382813 " />
        <polyline stroke="black" stroke-width="3" stroke-linecap="round" fill="transparent" stroke-linejoin="round" points="94.27450561523438 81.10905456542969 88.31723022460938 94.27232360839844 83.24441528320313 105.3544464111328 77.9375 115.31796264648438 77.9375 115.31796264648438 " />
        <polyline stroke="black" stroke-width="3" stroke-linecap="round" fill="transparent" stroke-linejoin="round" points="57.932464599609375 125.64564514160156 71.64205932617188 120.67689514160156 84.51913452148438 116.25447082519533 96.173583984375 112.8726043701172 101.94873046875 111.2597198486328 103.82177734375 110.68739318847656 105.04443359375 110.08905029296876 105.85092163085938 108.89239501953124 105.85092163085938 108.89239501953124 " />
        <polyline stroke="black" stroke-width="3" stroke-linecap="round" fill="transparent" stroke-linejoin="round" points="72.65658569335938 68.70021057128906 72.50048828125 77.83125305175781 71.87615966796875 89.01742553710938 71.61599731445313 99.2410888671875 71.58999633789063 109.958984375 72.0322265625 124.73513793945313 71.2518310546875 136.96189880371094 70.08114624023438 149.70892333984375 66.7513427734375 162.82015991210938 63.421478271484375 173.66815185546875 58.088531494140625 181.3683929443359 56.397613525390625 183.63165283203125 56.397613525390625 183.63165283203125 " />
        <polyline stroke="black" stroke-width="3" stroke-linecap="round" fill="transparent" stroke-linejoin="round" points="87.87496948242188 136.67572021484375 93.23394775390624 141.56643676757813 98.43679809570313 146.01487731933594 100.90817260742188 148.20008850097656 102.02682495117188 149.31869506835938 103.24948120117188 150.74949645996094 103.587646484375 151.7120361328125 104.00387573242188 152.23231506347656 104.5501708984375 151.08767700195313 104.5501708984375 151.08767700195313 " />
        <polyline stroke="black" stroke-width="3" stroke-linecap="round" fill="transparent" stroke-linejoin="round" points="136.8079833984375 70.26106262207031 146.51132202148438 65.37037658691406 156.18865966796875 60.791839599609375 164.1490478515625 57.38397216796875 167.166748046875 56.18730163574219 167.37481689453125 56.083251953125 167.817138671875 55.901153564453125 168.90972900390625 55.64100646972656 169.66412353515625 55.64100646972656 170.13238525390625 56.05723571777344 169.3779296875 57.331939697265625 167.7130126953125 59.98539733886719 164.9815673828125 63.627410888671875 162.1719970703125 67.91978454589844 158.6600341796875 72.96656799316406 154.8099365234375 78.68972778320313 151.688232421875 85.40142822265625 148.85263061523438 92.7895050048828 144.82040405273438 99.52723693847656 141.56863403320313 104.990234375 136.96405029296875 111.0255889892578 132.87982177734375 116.54061889648438 129.21185302734375 121.74348449707033 126.24615478515624 125.67166137695313 124.2430419921875 128.5852813720703 123.04638671875 130.40628051757813 122.34402465820313 131.52488708496094 122.34402465820313 131.52488708496094 " />
        <polyline stroke="black" stroke-width="3" stroke-linecap="round" fill="transparent" stroke-linejoin="round" points="141.750732421875 93.1797332763672 146.7454833984375 95.18283081054688 151.9483642578125 97.05587768554688 156.656982421875 99.05897521972656 160.689208984375 100.51577758789063 164.3831787109375 101.81649780273438 167.452880859375 102.88307189941406 169.14385986328125 103.4813995361328 170.548583984375 103.97569274902344 171.38104248046875 104.28785705566406 172.135498046875 104.52197265625 172.23956298828125 104.54801940917967 172.31756591796875 104.54801940917967 173.1500244140625 104.6520538330078 173.74835205078125 104.83416748046876 173.74835205078125 104.83416748046876 " />
        <polyline stroke="black" stroke-width="3" stroke-linecap="round" fill="transparent" stroke-linejoin="round" points="128.37936401367188 132.82562255859375 139.4354248046875 126.2699737548828 144.35214233398438 122.88812255859376 149.24285888671875 119.7664031982422 154.91400146484375 116.8267822265625 159.752685546875 115.05780029296876 163.6807861328125 113.52294921875 166.10015869140625 112.61244201660156 167.635009765625 112.11819458007813 169.61212158203125 111.67593383789063 170.60064697265625 111.10362243652344 171.71923828125 111.10362243652344 171.97943115234375 111.1556396484375 173.0460205078125 111.8580322265625 173.95654296875 112.8726043701172 172.837890625 115.99432373046876 170.83477783203125 119.6883544921875 168.6495361328125 123.2003173828125 165.7099609375 127.57072448730467 162.97845458984375 131.60292053222656 159.2584228515625 136.3635711669922 154.65386962890625 141.228271484375 152.0003662109375 145.26046752929688 148.6185302734375 153.16883850097656 145.05453491210938 160.3748016357422 139.74761962890625 166.61825561523438 134.44070434570313 172.26336669921875 129.08169555664063 178.1426544189453 122.70819091796876 184.80230712890625 116.90701293945313 191.1498107910156 111.44400024414063 196.794921875 106.65731811523438 200.93121337890625 101.84469604492188 204.443115234375 98.384765625 206.1861267089844 96.74588012695313 206.784423828125 96.53775024414063 206.8104553222656 96.53775024414063 206.8104553222656 " />
        <polyline stroke="black" stroke-width="3" stroke-linecap="round" fill="transparent" stroke-linejoin="round" points="130.69461059570313 141.8005828857422 135.16909790039063 140.94210815429688 139.07122802734375 141.30628967285156 142.7392578125 142.45091247558594 145.49676513671875 144.4540252685547 147.473876953125 148.7463836669922 146.22515869140625 156.75881958007813 145.132568359375 163.548583984375 142.7132568359375 171.5089569091797 140.996337890625 178.81898498535156 139.17526245117188 187.559814453125 136.781982421875 193.88134765625 136.02752685546875 196.04049682617188 135.8714599609375 196.48272705078125 135.63735961914063 197.3412170410156 135.50729370117188 198.2777404785156 135.53329467773438 199.00613403320313 137.90057373046875 200.46295166015625 140.42401123046875 201.763671875 143.4676513671875 202.7261962890625 149.3729248046875 202.179931640625 155.6163330078125 201.63357543945313 162.8223876953125 200.98321533203125 170.86083984375 200.25482177734375 178.53497314453125 198.53787231445313 185.2467041015625 197.7574462890625 192.86895751953125 196.66485595703125 201.40167236328125 195.93646240234375 208.0352783203125 194.8438415527344 212.69189453125 193.88134765625 217.140380859375 192.9707946777344 221.01641845703125 192.24240112304688 223.98211669921875 191.72210693359375 225.7510986328125 191.38394165039065 227.31195068359375 191.04571533203125 228.06634521484375 190.8116149902344 228.872802734375 190.44741821289065 229.47119140625 189.79705810546875 228.04034423828125 186.337158203125 223.9560546875 180.63998413085935 218.0247802734375 173.4080047607422 211.91143798828125 165.8638458251953 206.47442626953125 160.06263732910156 206.47442626953125 160.06263732910156 " />
        <polyline stroke="black" stroke-width="3" stroke-linecap="round" fill="transparent" stroke-linejoin="round" points="183.6597900390625 145.28646850585938 194.63787841796875 149.52684020996094 200.3350830078125 153.0647735595703 200.3350830078125 153.0647735595703 " />
        </svg>