<?xml version="1.0" standalone="no"?>
    <svg width="256" height="256" xmlns="http://www.w3.org/2000/svg" version="1.1">
    <polyline stroke="black" stroke-width="3" stroke-linecap="round" fill="transparent" stroke-linejoin="round" points="65.6982421875 90.5742645263672 67.65924072265625 91.22789001464844 77.4638671875 90.5742645263672 77.4638671875 90.5742645263672 " />
        <polyline stroke="black" stroke-width="3" stroke-linecap="round" fill="transparent" stroke-linejoin="round" points="91.19036865234376 84.69146728515625 72.23468017578125 99.07162475585938 67.65924072265625 101.68620300292967 59.81549072265625 105.60806274414063 56.54730224609375 106.9153289794922 54.58636474609375 107.56898498535156 55.23992919921875 107.56898498535156 59.81549072265625 106.9153289794922 73.5419921875 104.95443725585938 91.19036865234376 101.03254699707033 102.30230712890624 95.80340576171876 114.7215576171875 85.99876403808594 117.98974609375 80.76962280273438 117.98974609375 80.76962280273438 " />
        <polyline stroke="black" stroke-width="3" stroke-linecap="round" fill="transparent" stroke-linejoin="round" points="83.34661865234375 63.12123107910156 82.03936767578125 67.0430908203125 72.23468017578125 109.5299072265625 70.92742919921875 115.41270446777344 65.04461669921875 137.6365966796875 57.8546142578125 160.5141143798828 53.279052734375 172.2796630859375 53.279052734375 178.1624755859375 56.54730224609375 176.85520935058594 56.54730224609375 176.85520935058594 " />
        <polyline stroke="black" stroke-width="3" stroke-linecap="round" fill="transparent" stroke-linejoin="round" points="85.30755615234375 140.2511444091797 98.38043212890624 150.70947265625 100.99505615234376 152.0167236328125 111.45330810546876 154.6313018798828 117.98974609375 152.6703643798828 117.98974609375 152.6703643798828 " />
        <polyline stroke="black" stroke-width="3" stroke-linecap="round" fill="transparent" stroke-linejoin="round" points="140.213623046875 53.31658172607422 159.16925048828125 48.74108123779297 161.78387451171875 48.087440490722656 168.97393798828125 48.087440490722656 172.24212646484375 48.74108123779297 168.97393798828125 56.584808349609375 163.09112548828125 67.69674682617188 143.48187255859375 92.53518676757813 130.408935546875 107.56898498535156 125.1798095703125 116.71998596191406 123.87249755859376 119.98820495605467 123.87249755859376 119.98820495605467 " />
        <polyline stroke="black" stroke-width="3" stroke-linecap="round" fill="transparent" stroke-linejoin="round" points="150.01824951171875 84.03782653808594 152.6328125 84.03782653808594 170.93487548828125 89.2669677734375 172.895751953125 90.5742645263672 179.4322509765625 100.37890625 182.700439453125 112.1444854736328 182.700439453125 112.1444854736328 " />
        <polyline stroke="black" stroke-width="3" stroke-linecap="round" fill="transparent" stroke-linejoin="round" points="154.59375 121.94914245605467 157.86199951171875 120.641845703125 172.24212646484375 116.71998596191406 173.5494384765625 117.37364196777344 170.28118896484375 125.21734619140624 157.2083740234375 145.4803009033203 134.330810546875 174.2406005859375 117.98974609375 189.92807006835935 109.49237060546876 196.46450805664065 105.57049560546876 200.3863220214844 106.22418212890624 200.3863220214844 106.22418212890624 200.3863220214844 " />
        <polyline stroke="black" stroke-width="3" stroke-linecap="round" fill="transparent" stroke-linejoin="round" points="130.408935546875 165.089599609375 142.17449951171875 193.84991455078125 144.13543701171875 197.11813354492188 157.2083740234375 210.1910095214844 169.6275634765625 216.0738220214844 184.00775146484375 218.03472900390625 197.73419189453125 216.0738220214844 206.88519287109375 212.80560302734375 211.46075439453125 204.3081970214844 211.46075439453125 198.4254150390625 211.46075439453125 191.88897705078125 211.46075439453125 191.88897705078125 " />
        <polyline stroke="black" stroke-width="3" stroke-linecap="round" fill="transparent" stroke-linejoin="round" points="187.2760009765625 161.82139587402344 199.69512939453125 184.04525756835935 199.69512939453125 184.04525756835935 " />
        </svg>