<?xml version="1.0" standalone="no"?>
    <svg width="256" height="256" xmlns="http://www.w3.org/2000/svg" version="1.1">
    <polyline stroke="black" stroke-width="3" stroke-linecap="round" fill="transparent" stroke-linejoin="round" points="46.74261474609375 87.79629516601563 61.77642822265625 91.71812438964844 64.39105224609375 91.0644989013672 70.92742919921875 87.79629516601563 70.92742919921875 87.79629516601563 " />
        <polyline stroke="black" stroke-width="3" stroke-linecap="round" fill="transparent" stroke-linejoin="round" points="62.4300537109375 87.79629516601563 43.474365234375 99.56185913085938 40.85980224609375 100.86915588378906 37.59161376953125 102.17643737792967 36.93792724609375 102.83006286621094 38.24530029296875 102.83006286621094 44.1280517578125 101.52278137207033 57.8546142578125 100.86915588378906 72.23468017578125 99.56185913085938 87.922119140625 96.94728088378906 100.99505615234376 90.4108428955078 107.53143310546876 83.22077941894531 108.8387451171875 77.33798217773438 108.8387451171875 77.33798217773438 " />
        <polyline stroke="black" stroke-width="3" stroke-linecap="round" fill="transparent" stroke-linejoin="round" points="68.96649169921875 79.29890441894531 61.122802734375 116.55657958984376 59.16180419921875 124.40029907226563 55.23992919921875 138.12681579589844 50.66448974609375 149.8924102783203 48.70355224609375 153.8142547607422 48.70355224609375 153.16062927246094 50.0108642578125 148.58511352539063 50.0108642578125 148.58511352539063 " />
        <polyline stroke="black" stroke-width="3" stroke-linecap="round" fill="transparent" stroke-linejoin="round" points="72.88836669921875 134.8585968017578 74.84930419921875 136.16587829589844 87.26849365234375 143.35598754882813 89.22943115234375 144.0095977783203 99.68768310546876 142.7023162841797 105.57049560546876 139.43411254882813 105.57049560546876 139.43411254882813 " />
        <polyline stroke="black" stroke-width="3" stroke-linecap="round" fill="transparent" stroke-linejoin="round" points="137.59906005859375 53.15319061279297 149.3646240234375 49.23131561279297 150.671875 48.577659606933594 151.97918701171875 49.23131561279297 148.71099853515625 54.46046447753906 140.213623046875 69.4942626953125 131.0626220703125 84.528076171875 121.25799560546876 97.60093688964844 113.41424560546876 108.71286010742188 110.7996826171875 114.59564208984376 111.45330810546876 115.24929809570313 111.45330810546876 115.24929809570313 " />
        <polyline stroke="black" stroke-width="3" stroke-linecap="round" fill="transparent" stroke-linejoin="round" points="135.63812255859375 92.3717803955078 137.59906005859375 93.0254364013672 148.71099853515625 98.908203125 151.3255615234375 101.52278137207033 155.90106201171875 106.75193786621094 155.90106201171875 106.75193786621094 " />
        <polyline stroke="black" stroke-width="3" stroke-linecap="round" fill="transparent" stroke-linejoin="round" points="146.09637451171875 111.3274383544922 153.2864990234375 113.28836059570313 152.6328125 115.24929809570313 147.4036865234375 127.66851806640624 136.94537353515625 142.7023162841797 119.95068359375 161.0043182373047 108.8387451171875 173.42356872558594 103.609619140625 180.61363220214844 101.64862060546876 185.84280395507813 101.64862060546876 185.84280395507813 " />
        <polyline stroke="black" stroke-width="3" stroke-linecap="round" fill="transparent" stroke-linejoin="round" points="121.91156005859376 160.35069274902344 142.82818603515625 177.99905395507813 149.3646240234375 181.2672576904297 161.78387451171875 187.15008544921875 173.5494384765625 190.41830444335935 183.35406494140625 188.45736694335935 190.54412841796875 181.92092895507813 192.50506591796875 176.0381317138672 191.85137939453125 174.7308349609375 191.85137939453125 174.7308349609375 " />
        <polyline stroke="black" stroke-width="3" stroke-linecap="round" fill="transparent" stroke-linejoin="round" points="165.05206298828125 158.38975524902344 174.20306396484375 169.501708984375 174.856689453125 170.80899047851563 178.778564453125 175.3844757080078 178.778564453125 175.3844757080078 " />
        </svg>