<?xml version="1.0" standalone="no"?>
    <svg width="256" height="256" xmlns="http://www.w3.org/2000/svg" version="1.1">
    <polyline stroke="black" stroke-width="3" stroke-linecap="round" fill="transparent" stroke-linejoin="round" points="114 55 122 65 126 68 126 68 " />
        <polyline stroke="black" stroke-width="3" stroke-linecap="round" fill="transparent" stroke-linejoin="round" points="153 52 147 64 141 71 126 92 108 112 88 130 70 144 56 151 50 152 50 152 " />
        <polyline stroke="black" stroke-width="3" stroke-linecap="round" fill="transparent" stroke-linejoin="round" points="94 86 102 87 122 98 144 111 166 122 182 130 193 137 198 140 198 142 198 142 " />
        <polyline stroke="black" stroke-width="3" stroke-linecap="round" fill="transparent" stroke-linejoin="round" points="93 145 94 159 96 175 98 187 99 195 100 198 100 198 " />
        <polyline stroke="black" stroke-width="3" stroke-linecap="round" fill="transparent" stroke-linejoin="round" points="105 126 121 123 139 122 152 122 161 122 167 124 170 131 170 144 170 161 170 178 170 194 170 203 167 207 165 207 165 207 " />
        <polyline stroke="black" stroke-width="3" stroke-linecap="round" fill="transparent" stroke-linejoin="round" points="128 137 128 152 128 160 128 175 128 188 128 197 128 200 128 200 " />
        <polyline stroke="black" stroke-width="3" stroke-linecap="round" fill="transparent" stroke-linejoin="round" points="102 170 118 167 136 165 149 165 161 165 166 165 166 165 " />
        <polyline stroke="black" stroke-width="3" stroke-linecap="round" fill="transparent" stroke-linejoin="round" points="107 204 116 204 128 204 143 203 162 202 172 202 172 202 " />
        </svg>