<?xml version="1.0" standalone="no"?>
    <svg width="256" height="256" xmlns="http://www.w3.org/2000/svg" version="1.1">
    <polyline stroke="black" stroke-width="3" stroke-linecap="round" fill="transparent" stroke-linejoin="round" points="82.67327880859376 91.57574462890625 91.31292724609376 88.59669494628906 99.95257568359376 85.61764526367188 108.02023315429688 82.64999389648438 132.23675537109375 76.54037475585938 151.7310791015625 74.55599975585938 173.42962646484375 73.97395324707031 179.95166015625 75.2718505859375 189.461181640625 78.03495788574219 194.641357421875 80.009521484375 195.0318603515625 80.41506958007813 195.06707763671875 80.45162963867188 195.07147216796875 80.4561767578125 " />
        <polyline stroke="black" stroke-width="3" stroke-linecap="round" fill="transparent" stroke-linejoin="round" points="106.04446411132815 110.6456298828125 122.11737060546876 108.50437927246094 138.19027709960938 106.36312866210938 145.04150390625 105.45028686523438 165.05853271484375 104.3274383544922 168.435791015625 104.50048828125 169.010498046875 104.8824462890625 169.0150146484375 104.88546752929688 169.015625 104.88591003417967 " />
        <polyline stroke="black" stroke-width="3" stroke-linecap="round" fill="transparent" stroke-linejoin="round" points="76.9197998046875 166.43844604492188 88.68316650390625 161.88504028320313 100.446533203125 157.33163452148438 108.25640869140624 154.48374938964844 136.29498291015625 148.8974609375 144.9163818359375 147.53872680664063 162.36236572265625 145.9395751953125 180.38836669921875 144.77459716796875 192.597412109375 145.30978393554688 200.7471923828125 146.9873504638672 204.0672607421875 147.844482421875 205.322509765625 148.69210815429688 205.3309326171875 148.69778442382813 205.3330078125 148.69915771484375 " />
        <polyline stroke="black" stroke-width="3" stroke-linecap="round" fill="transparent" stroke-linejoin="round" points="137.45977783203125 44.61347961425781 139.19677734375 59.11036682128906 140.93377685546875 73.60725402832031 142.90841674804688 91.804443359375 147.14999389648438 133.2369842529297 147.56097412109375 154.69851684570313 146.7191162109375 173.33282470703125 144.58114624023438 205.8062744140625 139.96066284179688 235.19143676757813 146.08688354492188 241.93316650390625 146.69952392578125 242.6073303222656 " />
        </svg>