<?xml version="1.0" standalone="no"?>
    <svg width="256" height="256" xmlns="http://www.w3.org/2000/svg" version="1.1">
    <polyline stroke="black" stroke-width="3" stroke-linecap="round" fill="transparent" stroke-linejoin="round" points="66.09701538085938 83.79237365722656 75.41513061523438 82.70298767089844 84.73324584960938 81.61360168457031 106.3017578125 80.2606201171875 117.10980224609376 80.38853454589844 138.14337158203125 80.75653076171875 146.15771484375 80.87388610839844 161.10589599609375 80.48623657226563 170.08154296875 78.72836303710938 171.25848388671875 77.62332153320313 171.5303955078125 76.921142578125 171.544921875 76.8836669921875 171.55218505859375 76.86491394042969 171.5565185546875 76.8536376953125 " />
        <polyline stroke="black" stroke-width="3" stroke-linecap="round" fill="transparent" stroke-linejoin="round" points="80.76562499999999 106.10475158691406 92.15975952148438 104.4010009765625 103.55389404296876 102.69725036621094 117.91732788085938 100.83370971679688 140.173095703125 100.07456970214844 148.93258666992188 101.0615692138672 163.2001953125 102.985107421875 166.21337890625 103.73944091796876 165.2926025390625 104.53062438964844 164.996826171875 104.70384216308594 " />
        <polyline stroke="black" stroke-width="3" stroke-linecap="round" fill="transparent" stroke-linejoin="round" points="41.058044433593736 170.7947235107422 67.01153564453125 163.2277069091797 92.96502685546876 155.6606903076172 127.39315795898438 148.53729248046875 142.11215209960938 146.77886962890625 166.6829833984375 147.81558227539063 177.07080078125 149.61627197265625 180.7427978515625 150.5299530029297 177.146240234375 150.91673278808594 " />
        <polyline stroke="black" stroke-width="3" stroke-linecap="round" fill="transparent" stroke-linejoin="round" points="120.02505493164063 43.87319946289061 123.316162109375 72.76701354980469 126.60726928710938 101.66082763671876 129.823974609375 157.81515502929688 130.1251220703125 187.1778259277344 127.17816162109376 231.66696166992188 126.31732177734376 221.4356384277344 " />
        </svg>