<?xml version="1.0" standalone="no"?>
    <svg width="256" height="256" xmlns="http://www.w3.org/2000/svg" version="1.1">
    <polyline stroke="black" stroke-width="3" stroke-linecap="round" fill="transparent" stroke-linejoin="round" points="82.672119140625 74.60546875 73.93130493164063 92.08712768554688 61.6004638671875 116.9828643798828 48.489227294921875 143.5435333251953 37.094970703125 167.2425994873047 29.316680908203125 181.8106384277344 28.354156494140625 184.0218811035156 28.224029541015625 184.54214477539065 27.547698974609375 185.81686401367188 27.547698974609375 185.81686401367188 " />
        <polyline stroke="black" stroke-width="3" stroke-linecap="round" fill="transparent" stroke-linejoin="round" points="59.935546875 144.50604248046875 59.6494140625 162.1697998046875 59.025054931640625 176.71185302734375 59.12908935546875 184.4381103515625 62.87518310546875 188.23617553710935 67.66180419921875 186.3631591796875 67.66180419921875 186.3631591796875 " />
        <polyline stroke="black" stroke-width="3" stroke-linecap="round" fill="transparent" stroke-linejoin="round" points="123.462646484375 103.7935791015625 140.71014404296875 97.18592834472656 155.7984619140625 92.19119262695313 164.539306640625 90.99453735351563 170.8868408203125 91.74893188476563 174.9190673828125 93.23176574707033 177.4423828125 98.98092651367188 171.79730224609375 115.8122100830078 165.52783203125 134.15234375 158.32183837890625 150.59339904785156 152.83282470703125 162.48196411132813 150.69967651367188 167.866943359375 150.62164306640625 168.77743530273438 150.62164306640625 168.77743530273438 " />
        <polyline stroke="black" stroke-width="3" stroke-linecap="round" fill="transparent" stroke-linejoin="round" points="128.97763061523438 118.90794372558594 128.89959716796875 139.9795684814453 128.50942993164063 161.67552185058594 127.02655029296876 176.29559326171875 125.153564453125 183.5015869140625 125.153564453125 183.5015869140625 " />
        <polyline stroke="black" stroke-width="3" stroke-linecap="round" fill="transparent" stroke-linejoin="round" points="108.40032958984376 139.1470947265625 136.20965576171875 132.79959106445313 165.81402587890625 128.01296997070313 175.5953369140625 127.076416015625 183.39971923828125 127.1284637451172 191.77630615234375 127.41462707519533 193.38922119140625 127.64875793457033 192.73883056640625 130.5103302001953 188.42047119140625 135.11488342285156 188.42047119140625 135.11488342285156 " />
        <polyline stroke="black" stroke-width="3" stroke-linecap="round" fill="transparent" stroke-linejoin="round" points="102.54705810546876 186.5972900390625 126.8704833984375 180.09368896484375 159.4144287109375 173.35598754882813 185.1427001953125 169.6099395751953 201.16754150390625 167.91897583007813 209.1279296875 166.85238647460938 212.09356689453125 166.41015625 216.38592529296875 169.40179443359375 216.38592529296875 169.40179443359375 " />
        </svg>