<?xml version="1.0" standalone="no"?>
    <svg width="256" height="256" xmlns="http://www.w3.org/2000/svg" version="1.1">
    <polyline stroke="black" stroke-width="3" stroke-linecap="round" fill="transparent" stroke-linejoin="round" points="88.2913818359375 60.985015869140625 62.22039794921875 111.47691345214844 58.59027099609375 119.397216796875 50.339935302734375 135.23782348632813 47.699859619140625 139.8579864501953 46.7098388671875 141.1780242919922 48.029876708984375 138.53793334960938 53.640106201171875 124.67741394042967 57.27020263671875 117.08714294433594 59.250274658203125 115.1070556640625 61.560394287109375 124.67741394042967 60.240325927734375 158.9987030029297 56.610198974609375 202.89035034179688 55.290130615234375 231.2713928222656 56.610198974609375 242.49185180664065 59.580322265625 242.49185180664065 59.580322265625 242.49185180664065 " />
        <polyline stroke="black" stroke-width="3" stroke-linecap="round" fill="transparent" stroke-linejoin="round" points="97.53170776367188 97.9464111328125 125.91278076171876 74.51553344726563 131.85299682617188 71.54542541503906 149.6737060546875 63.95513916015625 167.49432373046875 59.66497802734375 179.704833984375 62.30506896972656 186.3050537109375 69.89535522460938 190.92529296875 84.74592590332031 190.59521484375 107.84678649902344 184.9849853515625 137.5478973388672 175.4146728515625 166.9189910888672 164.854248046875 188.6997985839844 156.60400390625 200.58029174804688 151.65380859375 203.5503845214844 151.65380859375 203.5503845214844 151.65380859375 203.5503845214844 " />
        <polyline stroke="black" stroke-width="3" stroke-linecap="round" fill="transparent" stroke-linejoin="round" points="145.383544921875 100.91651916503906 137.46322631835938 163.2888641357422 135.15316772460938 172.85922241210938 127.89291381835938 195.63006591796875 125.25277709960938 200.9102783203125 125.25277709960938 200.9102783203125 " />
        <polyline stroke="black" stroke-width="3" stroke-linecap="round" fill="transparent" stroke-linejoin="round" points="104.7919921875 152.72845458984375 148.68365478515625 134.57777404785156 155.94390869140625 132.927734375 175.74468994140625 129.95761108398438 190.26519775390625 131.60769653320313 196.2054443359375 134.57777404785156 196.2054443359375 134.57777404785156 196.2054443359375 134.57777404785156 " />
        <polyline stroke="black" stroke-width="3" stroke-linecap="round" fill="transparent" stroke-linejoin="round" points="101.49188232421876 209.82061767578125 136.14315795898438 199.5902404785156 180.69482421875 189.02984619140625 195.54541015625 186.05972290039065 207.0958251953125 185.72970581054688 207.0958251953125 185.72970581054688 207.0958251953125 185.72970581054688 " />
        </svg>