<?xml version="1.0" standalone="no"?>
    <svg width="256" height="256" xmlns="http://www.w3.org/2000/svg" version="1.1">
    <polyline stroke="black" stroke-width="3" stroke-linecap="round" fill="transparent" stroke-linejoin="round" points="86.76641845703125 52.49175262451172 75.795166015625 77.66102600097656 68.05078125 95.73127746582033 60.951751708984375 111.22006225585938 57.079559326171875 122.1912841796875 55.143463134765625 127.35421752929688 55.143463134765625 127.35421752929688 58.37030029296875 122.1912841796875 65.46929931640625 109.92933654785156 69.34152221679688 103.47567749023438 72.568359375 100.24884033203124 73.21371459960938 106.05712890625 70.63226318359375 129.93568420410156 64.1785888671875 164.7854461669922 62.88787841796875 188.01861572265625 64.823974609375 204.15277099609375 67.40542602539063 210.6064453125 71.27761840820313 211.89715576171875 71.27761840820313 211.89715576171875 " />
        <polyline stroke="black" stroke-width="3" stroke-linecap="round" fill="transparent" stroke-linejoin="round" points="121.61614990234376 71.85273742675781 132.58740234375 65.39907836914063 146.78546142578125 58.945404052734375 163.56494140625 51.84638214111328 179.0537109375 46.0380859375 190.67034912109375 44.10198974609375 197.7694091796875 47.328819274902344 202.9322509765625 59.59077453613281 204.2230224609375 81.53321838378906 200.9962158203125 104.7664031982422 195.1878662109375 129.29031372070313 186.79815673828125 151.8781280517578 179.6990966796875 166.72154235839844 175.1815185546875 172.52984619140625 175.1815185546875 172.52984619140625 " />
        <polyline stroke="black" stroke-width="3" stroke-linecap="round" fill="transparent" stroke-linejoin="round" points="159.6927490234375 93.14981079101563 154.52984619140625 117.67372131347656 147.43081665039063 142.84300231933594 140.331787109375 160.26788330078125 133.23275756835938 173.82057189941406 127.42446899414063 179.6288604736328 127.42446899414063 179.6288604736328 " />
        <polyline stroke="black" stroke-width="3" stroke-linecap="round" fill="transparent" stroke-linejoin="round" points="126.77911376953124 135.09860229492188 139.6864013671875 129.93568420410156 156.4659423828125 124.7727508544922 173.2454833984375 120.25518798828124 188.7342529296875 116.38299560546876 198.41473388671875 115.73762512207033 204.2230224609375 118.319091796875 203.57763671875 128.6449432373047 203.57763671875 128.6449432373047 " />
        <polyline stroke="black" stroke-width="3" stroke-linecap="round" fill="transparent" stroke-linejoin="round" points="111.29031372070313 197.05374145507813 126.77911376953124 190.60009765625 151.302978515625 183.5010681152344 176.4722900390625 175.7566680908203 201.6416015625 168.6576385498047 220.357177734375 164.14007568359375 233.2645263671875 164.14007568359375 240.363525390625 169.30300903320313 240.363525390625 169.30300903320313 " />
        </svg>