<?xml version="1.0" standalone="no"?>
    <svg width="256" height="256" xmlns="http://www.w3.org/2000/svg" version="1.1">
    <polyline stroke="black" stroke-width="3" stroke-linecap="round" fill="transparent" stroke-linejoin="round" points="94.66671752929688 59.26667785644531 94.13336181640624 57.40000915527344 94.13336181640624 56.066680908203125 94.13336181640624 55 94.13336181640624 54.20001220703125 93.86672973632813 54.20001220703125 93.06671142578124 56.066680908203125 89.86672973632813 63 78.66671752929688 82.20001220703125 68.00003051757813 97.66667175292967 57.333343505859375 111.8000030517578 48.533355712890625 123.26667785644533 39.20001220703125 133.40000915527344 37.60003662109375 134.73336791992188 36.533355712890625 134.4666748046875 36.533355712890625 134.4666748046875 " />
        <polyline stroke="black" stroke-width="3" stroke-linecap="round" fill="transparent" stroke-linejoin="round" points="57.866729736328125 109.40000915527344 58.666717529296875 118.20001220703124 59.733367919921875 129.93336486816406 61.333343505859375 144.33335876464844 62.666717529296875 159.00001525878906 64.53335571289063 176.06668090820313 66.13336181640625 183.2666931152344 67.46673583984375 187.53335571289065 68.2667236328125 188.6000061035156 68.2667236328125 187.80001831054688 68.2667236328125 187.80001831054688 " />
        <polyline stroke="black" stroke-width="3" stroke-linecap="round" fill="transparent" stroke-linejoin="round" points="121.60003662109376 87.26667785644531 126.933349609375 86.20001220703125 140 84.86666870117188 161.06671142578125 83.00001525878906 174.933349609375 81.93333435058594 186.13336181640625 81.13334655761719 192.53338623046875 80.86666870117188 194.4000244140625 80.86666870117188 194.13336181640625 81.13334655761719 193.3333740234375 81.40000915527344 191.73333740234375 83.80000305175781 189.06671142578125 89.93333435058594 183.20001220703125 107.00001525878906 178.13336181640625 121.66667175292967 173.06671142578125 136.06668090820313 168.800048828125 148.33335876464844 164.800048828125 158.4666748046875 159.73333740234375 167.80001831054688 159.73333740234375 167.00001525878906 159.73333740234375 167.00001525878906 " />
        <polyline stroke="black" stroke-width="3" stroke-linecap="round" fill="transparent" stroke-linejoin="round" points="142.933349609375 86.4666748046875 140 100.33335876464844 136.53338623046875 117.93336486816406 130.13336181640625 147.2666778564453 125.60003662109376 164.33335876464844 121.86672973632813 176.33335876464844 119.73336791992188 183 119.20001220703124 183.80001831054688 119.20001220703124 182.4666748046875 119.20001220703124 182.4666748046875 " />
        <polyline stroke="black" stroke-width="3" stroke-linecap="round" fill="transparent" stroke-linejoin="round" points="114.66671752929688 132.06668090820313 120.00003051757813 129.40000915527344 129.06671142578125 127.8000030517578 141.3333740234375 126.7333526611328 153.60003662109375 125.93336486816406 167.4666748046875 125.93336486816406 170.13336181640625 125.93336486816406 172.2667236328125 127.53335571289063 169.60003662109375 132.33335876464844 163.20001220703125 137.13336181640625 163.20001220703125 137.13336181640625 " />
        <polyline stroke="black" stroke-width="3" stroke-linecap="round" fill="transparent" stroke-linejoin="round" points="86.13336181640625 184.06668090820313 85.86672973632813 184.06668090820313 86.4000244140625 184.06668090820313 88.2667236328125 183.53335571289065 94.4000244140625 181.4000244140625 105.06671142578124 179.00001525878906 119.46673583984376 177.40000915527344 146.13336181640625 174.20001220703125 164 171.80001831054688 179.73333740234375 169.93336486816406 191.20001220703125 169.40000915527344 199.4666748046875 169.66668701171875 201.86669921875 170.73336791992188 203.4666748046875 171.2666778564453 204.53338623046875 172.06668090820313 205.3333740234375 172.33335876464844 205.3333740234375 172.33335876464844 " />
        </svg>