<?xml version="1.0" standalone="no"?>
    <svg width="256" height="256" xmlns="http://www.w3.org/2000/svg" version="1.1">
    <polyline stroke="black" stroke-width="3" stroke-linecap="round" fill="transparent" stroke-linejoin="round" points="57.34930419921875 101.6555633544922 45.60333251953125 131.02047729492188 39.7303466796875 143.3003387451172 36.52691650390625 149.7072296142578 35.4591064453125 151.3089599609375 37.5947265625 145.96987915039063 37.5947265625 145.96987915039063 " />
        <polyline stroke="black" stroke-width="3" stroke-linecap="round" fill="transparent" stroke-linejoin="round" points="62.15447998046875 109.13026428222656 68.0274658203125 147.03768920898438 70.1630859375 180.67385864257813 70.69699096679688 199.89453125 70.69699096679688 210.57269287109375 70.69699096679688 215.3778381347656 73.36651611328125 214.84393310546875 73.36651611328125 214.84393310546875 " />
        <polyline stroke="black" stroke-width="3" stroke-linecap="round" fill="transparent" stroke-linejoin="round" points="123.01992797851563 69.08720397949219 135.2998046875 62.14640808105469 149.181396484375 55.73951721191406 161.99517822265625 51.46825408935547 172.139404296875 52.53607177734375 180.14801025390625 62.68031311035156 188.1566162109375 95.24867248535156 187.08880615234375 133.15609741210938 181.749755859375 167.326171875 176.41064453125 189.75030517578125 172.139404296875 205.23361206054688 167.8681640625 213.24221801757813 167.8681640625 213.24221801757813 " />
        <polyline stroke="black" stroke-width="3" stroke-linecap="round" fill="transparent" stroke-linejoin="round" points="134.76589965820313 97.38429260253906 131.02853393554688 133.69000244140625 129.42681884765625 153.444580078125 128.3590087890625 176.40260314941406 127.29119873046876 190.818115234375 124.62164306640624 200.96234130859375 122.48602294921876 204.69970703125 122.48602294921876 204.69970703125 " />
        <polyline stroke="black" stroke-width="3" stroke-linecap="round" fill="transparent" stroke-linejoin="round" points="108.60443115234376 142.7664337158203 132.6302490234375 133.69000244140625 160.3934326171875 126.21530151367188 177.478515625 122.47795104980467 191.89398193359375 120.34231567382813 202.5721435546875 121.41014099121094 207.3773193359375 125.14749145507813 207.3773193359375 125.14749145507813 " />
        <polyline stroke="black" stroke-width="3" stroke-linecap="round" fill="transparent" stroke-linejoin="round" points="97.39236450195313 222.31863403320313 120.88427734375 216.9795837402344 135.2998046875 213.776123046875 158.2578125 209.5048828125 174.2750244140625 207.90313720703125 189.2244873046875 207.3692321777344 199.902587890625 210.57269287109375 199.902587890625 210.57269287109375 " />
        </svg>