<?xml version="1.0" standalone="no"?>
    <svg width="256" height="256" xmlns="http://www.w3.org/2000/svg" version="1.1">
    <polyline stroke="black" stroke-width="3" stroke-linecap="round" fill="transparent" stroke-linejoin="round" points="86.666748046875 79.77778625488281 81.33331298828125 92.22224426269533 67.11114501953125 121.55558776855467 52.888916015625 149.11111450195313 39.5555419921875 174 31.5555419921875 190.88888549804688 27.11114501953125 197.11114501953125 27.11114501953125 197.11114501953125 " />
        <polyline stroke="black" stroke-width="3" stroke-linecap="round" fill="transparent" stroke-linejoin="round" points="68.88897705078125 161.5555877685547 73.3333740234375 180.22222900390625 79.5555419921875 205.11111450195313 83.11114501953125 215.77777099609375 85.77777099609375 218.4444580078125 85.77777099609375 218.4444580078125 " />
        <polyline stroke="black" stroke-width="3" stroke-linecap="round" fill="transparent" stroke-linejoin="round" points="137.33331298828125 96.66667175292967 157.77783203125 94.888916015625 178.22222900390625 94.888916015625 182.66668701171875 96.66667175292967 186.22222900390625 102.88888549804688 187.11114501953125 118 184.44451904296875 152.6667022705078 182.66668701171875 174 180.888916015625 190.88888549804688 180.888916015625 200.66665649414065 180.00006103515625 204.22222900390625 175.55560302734375 195.33334350585935 173.77777099609375 189.11111450195313 173.77777099609375 189.11111450195313 " />
        <polyline stroke="black" stroke-width="3" stroke-linecap="round" fill="transparent" stroke-linejoin="round" points="146.22222900390625 126.88888549804688 143.5555419921875 140.22222900390625 140.00006103515625 161.5555877685547 137.33331298828125 175.7777862548828 134.66668701171875 181.11111450195313 131.11114501953125 180.22222900390625 131.11114501953125 180.22222900390625 " />
        <polyline stroke="black" stroke-width="3" stroke-linecap="round" fill="transparent" stroke-linejoin="round" points="142.66668701171875 136.6666717529297 155.11114501953125 134.888916015625 173.77777099609375 134 182.66668701171875 134.888916015625 186.22222900390625 137.55557250976563 187.11114501953125 142.00001525878906 187.11114501953125 142.00001525878906 " />
        <polyline stroke="black" stroke-width="3" stroke-linecap="round" fill="transparent" stroke-linejoin="round" points="154.22222900390625 190.88888549804688 169.33331298828125 187.33334350585935 209.33331298828125 183.77780151367188 230.66668701171875 185.5555725097656 240.4444580078125 190 240.4444580078125 190 " />
        </svg>