<?xml version="1.0" standalone="no"?>
    <svg width="256" height="256" xmlns="http://www.w3.org/2000/svg" version="1.1">
    <polyline stroke="black" stroke-width="3" stroke-linecap="round" fill="transparent" stroke-linejoin="round" points="107 70 107 73 105 78 104 82 99 98 96 106 83 136 70 164 60 182 54 195 51 200 51 198 52 196 52 196 " />
        <polyline stroke="black" stroke-width="3" stroke-linecap="round" fill="transparent" stroke-linejoin="round" points="82 142 85 146 85 154 85 158 85 173 85 178 85 196 85 202 87 218 87 222 92 237 95 245 97 246 98 244 98 244 " />
        <polyline stroke="black" stroke-width="3" stroke-linecap="round" fill="transparent" stroke-linejoin="round" points="108 140 113 137 128 132 140 127 145 125 157 120 161 118 177 113 187 110 190 110 194 110 194 117 190 130 186 147 180 169 175 193 172 208 171 211 170 218 169 220 168 223 167 223 165 223 165 223 " />
        <polyline stroke="black" stroke-width="3" stroke-linecap="round" fill="transparent" stroke-linejoin="round" points="148 144 148 147 149 158 149 176 145 194 141 209 138 220 137 227 135 229 134 229 134 229 " />
        <polyline stroke="black" stroke-width="3" stroke-linecap="round" fill="transparent" stroke-linejoin="round" points="112 188 116 185 125 183 129 182 142 180 146 180 165 178 185 178 203 178 213 177 215 176 212 178 204 183 204 183 " />
        <polyline stroke="black" stroke-width="3" stroke-linecap="round" fill="transparent" stroke-linejoin="round" points="123 228 130 228 133 228 144 228 153 226 162 225 166 224 178 223 182 222 195 221 205 221 210 223 210 223 " />
        </svg>