<?xml version="1.0" standalone="no"?>
    <svg width="256" height="256" xmlns="http://www.w3.org/2000/svg" version="1.1">
    <polyline stroke="black" stroke-width="3" stroke-linecap="round" fill="transparent" stroke-linejoin="round" points="91.656982421875 64.49504089355469 85.74081420898438 100.41477966308594 69.68255615234375 158.3089599609375 64.18893432617188 172.2542724609375 51.9339599609375 195.4964599609375 49.3984375 198.45455932617188 43.90484619140625 198.87713623046875 43.90484619140625 198.87713623046875 " />
        <polyline stroke="black" stroke-width="3" stroke-linecap="round" fill="transparent" stroke-linejoin="round" points="73.48580932617188 46.7464599609375 85.31820678710938 39.98509216308594 92.07955932617188 37.027000427246094 98.84091186523438 34.491485595703125 111.09588623046876 30.688217163085938 116.16693115234376 29.843048095703125 122.08309936523438 30.265640258789063 125.46380615234376 35.33666229248047 125.88641357421876 60.6917724609375 119.97018432617188 91.117919921875 112.3636474609375 112.66976928710938 107.29266357421876 124.50213623046876 105.1796875 129.5731658935547 105.602294921875 130.84092712402344 111.51849365234376 129.15057373046875 125.88641357421876 124.07955932617188 144.05755615234375 119.00852966308594 158.00286865234375 118.1633758544922 166.87713623046875 121.96664428710938 174.90625 134.2216033935547 180.39990234375 156.61862182617188 179.5546875 177.74789428710938 172.7933349609375 195.4964599609375 163.9190673828125 205.63851928710935 141.94464111328125 212.82244873046875 117.43466186523438 211.13214111328125 108.56039428710938 209.01919555664065 108.56039428710938 209.01919555664065 " />
        </svg>