<?xml version="1.0" standalone="no"?>
    <svg width="256" height="256" xmlns="http://www.w3.org/2000/svg" version="1.1">
    <polyline stroke="black" stroke-width="3" stroke-linecap="round" fill="transparent" stroke-linejoin="round" points="99.26351928710938 58.57884216308594 97.99578857421876 67.45314025878906 81.51495361328125 142.25071716308594 70.5277099609375 179.438232421875 65.8792724609375 191.69320678710935 58.27276611328125 207.328857421875 57.004974365234375 208.59661865234375 56.15985107421875 208.17401123046875 56.15985107421875 208.17401123046875 " />
        <polyline stroke="black" stroke-width="3" stroke-linecap="round" fill="transparent" stroke-linejoin="round" points="87.85372924804688 56.88850402832031 100.53125 50.972312927246094 107.29266357421876 48.01421356201172 123.7734375 41.675437927246094 137.29620361328125 38.29475402832031 146.17050170898438 37.872161865234375 151.24151611328125 42.09801483154297 155.4674072265625 60.6917724609375 152.93182373046875 89.42756652832031 145.74789428710938 112.24717712402344 138.98651123046875 127.03765869140624 135.18328857421875 134.64419555664063 133.91549682617188 136.7571258544922 133.0703125 138.44744873046875 137.71875 137.602294921875 149.5511474609375 134.2216033935547 163.07391357421875 131.68609619140625 173.2159423828125 133.37643432617188 180.82244873046875 140.98297119140625 188.0064697265625 163.37998962402344 188.8515625 192.11578369140625 184.203125 215.78057861328125 175.75146484375 228.88070678710935 157.58026123046875 236.06466674804688 134.33807373046875 231.41619873046875 125.46380615234376 227.19036865234375 125.46380615234376 227.19036865234375 " />
        </svg>