<?xml version="1.0" standalone="no"?>
    <svg width="256" height="256" xmlns="http://www.w3.org/2000/svg" version="1.1">
    <polyline stroke="black" stroke-width="3" stroke-linecap="round" fill="transparent" stroke-linejoin="round" points="98.06671142578124 85.60000610351563 121.53338623046876 77.06668090820313 145 70.66667175292969 150.3333740234375 69.60000610351563 153.533447265625 69.60000610351563 154.60009765625 68.53335571289063 152.466796875 70.66667175292969 149.2667236328125 73.86668395996094 137.533447265625 87.73333740234375 123.666748046875 104.8000030517578 116.2000732421875 113.33334350585938 113.00006103515624 117.60000610351563 114.06671142578124 118.66667175292967 120.466796875 117.60000610351563 130.0667724609375 113.33334350585938 139.666748046875 110.1333465576172 156.7333984375 111.20002746582033 167.4000244140625 119.73338317871094 177 136.80001831054688 181.2667236328125 159.20001220703125 180.2000732421875 189.06671142578125 174.86669921875 205.06671142578125 169.533447265625 214.66668701171875 164.2000732421875 220.00003051757813 150.3333740234375 225.33334350585935 138.60009765625 216.80001831054688 127.93341064453124 198.66668701171875 127.93341064453124 198.66668701171875 " />
        <polyline stroke="black" stroke-width="3" stroke-linecap="round" fill="transparent" stroke-linejoin="round" points="99.1334228515625 133.6000213623047 82.06671142578125 182.66668701171875 69.2667236328125 205.06671142578125 58.60003662109375 217.86666870117188 51.1334228515625 221.06671142578125 51.1334228515625 221.06671142578125 " />
        </svg>