<?xml version="1.0" standalone="no"?>
    <svg width="256" height="256" xmlns="http://www.w3.org/2000/svg" version="1.1">
    <polyline stroke="black" stroke-width="3" stroke-linecap="round" fill="transparent" stroke-linejoin="round" points="63.46929931640625 105.41177368164063 72.50445556640625 100.24884033203124 86.05712890625 95.08590698242188 102.1912841796875 89.27761840820313 120.26153564453124 84.11468505859375 139.62249755859375 79.59712219238281 155.75665283203125 75.07955932617188 168.66400146484375 71.85273742675781 177.6990966796875 69.91664123535156 184.79815673828125 67.33517456054688 184.79815673828125 67.33517456054688 " />
        <polyline stroke="black" stroke-width="3" stroke-linecap="round" fill="transparent" stroke-linejoin="round" points="131.23275756835938 38.939064025878906 124.77911376953124 47.97418975830078 117.6800537109375 62.1722412109375 107.99957275390624 82.82395935058594 98.319091796875 106.70249938964844 89.9293212890625 125.41812133789063 82.1849365234375 143.48837280273438 76.37664794921875 155.10494995117188 71.85906982421875 161.55860900878906 68.63226318359375 163.49472045898438 68.63226318359375 163.49472045898438 " />
        <polyline stroke="black" stroke-width="3" stroke-linecap="round" fill="transparent" stroke-linejoin="round" points="93.15615844726563 111.22006225585938 104.12738037109376 113.80152893066406 118.9708251953125 118.319091796875 135.75030517578125 126.0634765625 152.52984619140625 135.09860229492188 167.373291015625 143.48837280273438 177.6990966796875 149.94203186035156 184.15277099609375 154.4595947265625 190.6064453125 154.4595947265625 190.6064453125 154.4595947265625 " />
        <polyline stroke="black" stroke-width="3" stroke-linecap="round" fill="transparent" stroke-linejoin="round" points="179.63525390625 74.4342041015625 167.373291015625 88.63224792480469 157.6927490234375 100.24884033203124 147.36691284179688 111.8654327392578 138.331787109375 119.6098175048828 131.23275756835938 124.7727508544922 125.42446899414063 126.0634765625 125.42446899414063 126.0634765625 " />
        <polyline stroke="black" stroke-width="3" stroke-linecap="round" fill="transparent" stroke-linejoin="round" points="134.4595947265625 100.24884033203124 150.59375 100.89421081542967 158.9835205078125 101.53956604003906 166.7279052734375 102.83030700683594 173.826904296875 104.7664031982422 178.9898681640625 107.34786987304688 178.9898681640625 107.34786987304688 " />
        <polyline stroke="black" stroke-width="3" stroke-linecap="round" fill="transparent" stroke-linejoin="round" points="60.24249267578125 193.1815490722656 78.312744140625 186.7279052734375 91.86541748046876 181.56497192382813 108.64495849609376 175.7566680908203 124.77911376953124 170.59373474121094 140.26788330078125 165.43081665039063 151.2391357421875 162.2039794921875 158.338134765625 158.97715759277344 162.855712890625 155.10494995117188 162.855712890625 155.10494995117188 " />
        <polyline stroke="black" stroke-width="3" stroke-linecap="round" fill="transparent" stroke-linejoin="round" points="119.61614990234376 155.10494995117188 109.9356689453125 173.82057189941406 106.0634765625 186.08251953125 102.836669921875 197.6991271972656 102.836669921875 207.37960815429688 104.77276611328124 213.83328247070313 107.99957275390624 218.9961853027344 113.807861328125 222.2230224609375 120.26153564453124 222.2230224609375 128.00592041015625 217.06008911132813 137.6864013671875 204.79815673828125 146.7215576171875 186.08251953125 146.7215576171875 186.08251953125 " />
        <polyline stroke="black" stroke-width="3" stroke-linecap="round" fill="transparent" stroke-linejoin="round" points="147.36691284179688 128.6449432373047 146.076171875 140.9069061279297 144.14007568359375 157.0410614013672 142.849365234375 173.82057189941406 142.2039794921875 188.01861572265625 141.55859375 198.344482421875 139.62249755859375 207.37960815429688 138.331787109375 214.4786376953125 138.331787109375 214.4786376953125 " />
        </svg>