<?xml version="1.0" standalone="no"?>
    <svg width="256" height="256" xmlns="http://www.w3.org/2000/svg" version="1.1">
    <polyline stroke="black" stroke-width="3" stroke-linecap="round" fill="transparent" stroke-linejoin="round" points="85.80694580078125 65.81956481933594 95.22842407226563 61.83354187011719 99.57681274414063 59.2969970703125 120.95635986328124 50.23787689208984 134.36386108398438 46.25184631347656 145.95956420898438 43.71528625488281 160.4542236328125 41.903472900390625 164.440185546875 42.265830993652344 165.1649169921875 42.265830993652344 165.8896484375 42.265830993652344 165.52728271484375 42.265830993652344 165.52728271484375 42.265830993652344 " />
        <polyline stroke="black" stroke-width="3" stroke-linecap="round" fill="transparent" stroke-linejoin="round" points="74.93597412109375 107.85392761230467 73.48654174804688 114.01414489746094 71.31234741210938 120.17434692382813 69.13815307617188 134.3065948486328 68.41342163085938 138.29261779785156 68.41342163085938 139.3797149658203 69.13815307617188 140.10443115234375 72.39944458007813 140.46678161621094 79.64675903320313 139.3797149658203 96.31552124023438 128.87112426757813 107.1865234375 121.6238250732422 120.593994140625 116.18833923339844 134.00152587890625 112.56466674804688 145.95956420898438 111.47760009765624 158.64239501953125 111.47760009765624 166.97674560546875 114.01414489746094 171.32513427734375 115.46359252929688 175.67352294921875 119.81198120117188 180.02191162109375 143.36570739746094 179.6595458984375 165.10763549804688 176.39825439453125 187.2119140625 173.136962890625 203.8807373046875 168.78857421875 214.75167846679688 164.80255126953125 220.1871337890625 159.72943115234375 223.810791015625 149.583251953125 225.6226501464844 143.06063842773438 222.36138916015625 136.90045166015625 213.30221557617188 130.37786865234375 198.8076171875 127.84133911132813 191.92269897460935 127.84133911132813 191.92269897460935 " />
        <polyline stroke="black" stroke-width="3" stroke-linecap="round" fill="transparent" stroke-linejoin="round" points="122.04348754882813 78.86471557617188 122.04348754882813 85.74966430664063 120.95635986328124 95.53352355957033 118.05743408203124 116.55070495605467 112.25961303710938 143.36570739746094 106.09939575195313 169.0936737060547 97.40264892578124 194.82159423828125 97.40264892578124 194.82159423828125 " />
        </svg>