<?xml version="1.0" standalone="no"?>
    <svg width="256" height="256" xmlns="http://www.w3.org/2000/svg" version="1.1">
    <polyline stroke="black" stroke-width="3" stroke-linecap="round" fill="transparent" stroke-linejoin="round" points="68.414794921875 75.48225402832031 81.51495361328125 67.875732421875 92.07955932617188 63.22727966308594 117.0120849609375 54.352989196777344 129.68963623046875 50.54972839355469 152.93182373046875 42.94319152832031 171.52557373046875 37.027000427246094 177.8643798828125 34.91407775878906 178.7095947265625 34.491485595703125 175.328857421875 35.759239196777344 163.07391357421875 41.675437927246094 156.735107421875 45.47869873046875 141.52206420898438 58.15626525878906 137.29620361328125 62.80470275878906 127.15414428710938 78.01776123046875 122.50570678710938 87.73722839355469 120.39276123046876 96.18893432617188 119.547607421875 99.9921875 119.97018432617188 105.06321716308594 125.46380615234376 107.59873962402344 136.45101928710938 101.25994873046876 149.97372436523438 89.85015869140625 162.65130615234375 79.70809936523438 166.031982421875 77.172607421875 164.7642822265625 79.70809936523438 151.6640625 93.23085021972656 120.39276123046876 117.74078369140624 90.81182861328124 135.06680297851563 72.640625 143.09588623046875 68.83740234375 143.9410858154297 67.14706420898438 142.67332458496094 73.90841674804688 136.33453369140625 112.3636474609375 116.89561462402344 142.789794921875 106.75357055664063 168.1448974609375 100.83738708496094 184.203125 99.5696258544922 188.0064697265625 99.5696258544922 188.0064697265625 99.5696258544922 " />
        <polyline stroke="black" stroke-width="3" stroke-linecap="round" fill="transparent" stroke-linejoin="round" points="80.24716186523438 167.6058349609375 96.72802734375 160.84446716308594 105.1796875 157.4637908935547 114.899169921875 153.23794555664063 132.22518920898438 144.78623962402344 147.86080932617188 136.33453369140625 153.77703857421875 132.95384216308594 160.1158447265625 129.15057373046875 161.383544921875 127.4602508544922 159.2706298828125 128.30540466308594 149.97372436523438 135.91195678710938 144.05755615234375 140.98297119140625 127.57675170898438 157.04119873046875 119.97018432617188 166.33807373046875 114.899169921875 173.52203369140625 112.78622436523438 177.32530212402344 112.78622436523438 178.5930633544922 116.58953857421876 177.74789428710938 127.57675170898438 172.67686462402344 137.71875 166.33807373046875 143.63494873046875 162.53482055664063 146.59307861328125 160.84446716308594 145.74789428710938 162.9573974609375 134.33807373046875 180.28338623046875 115.74432373046876 198.45455932617188 94.19247436523438 211.977294921875 80.24716186523438 217.89349365234375 74.75360107421875 218.7386474609375 74.33099365234375 217.47088623046875 81.9375 211.13214111328125 106.44744873046876 197.60940551757813 136.02841186523438 185.35443115234375 163.07391357421875 177.74789428710938 190.96453857421875 175.21237182617188 190.96453857421875 175.21237182617188 " />
        </svg>