<?xml version="1.0" standalone="no"?>
    <svg width="256" height="256" xmlns="http://www.w3.org/2000/svg" version="1.1">
    <polyline stroke="black" stroke-width="3" stroke-linecap="round" fill="transparent" stroke-linejoin="round" points="70.4013671875 83.69808959960938 81.55377197265625 80.39369201660156 91.46697998046876 77.91539001464844 115.01083374023438 72.54574584960938 137.72860717773438 68.00218200683594 155.48974609375 64.28472900390625 168.2943115234375 60.98033142089844 175.729248046875 58.91508483886719 178.62060546875 58.0889892578125 178.20751953125 57.675933837890625 178.20751953125 57.675933837890625 " />
        <polyline stroke="black" stroke-width="3" stroke-linecap="round" fill="transparent" stroke-linejoin="round" points="96.423583984375 94.85044860839844 92.29306030273438 104.35061645507813 91.05392456054688 109.30722045898438 90.227783203125 114.26382446289063 89.81478881835938 118.807373046875 90.227783203125 126.24229431152344 91.05392456054688 130.37277221679688 92.70611572265624 132.02496337890625 94.7713623046875 132.02496337890625 94.7713623046875 132.02496337890625 " />
        <polyline stroke="black" stroke-width="3" stroke-linecap="round" fill="transparent" stroke-linejoin="round" points="155.48974609375 83.69808959960938 146.40264892578125 100.63314819335938 140.61996459960938 107.65501403808594 133.18505859375 115.5029754638672 104.6845703125 137.39463806152344 88.16256713867188 146.4817352294922 76.59716796875 151.85137939453125 71.64056396484375 153.09054565429688 71.22750854492188 152.677490234375 78.24935913085938 149.3730926513672 99.31491088867188 141.93817138671875 124.510986328125 135.32937622070313 148.05487060546875 129.13363647460938 166.64208984375 125.8292236328125 177.3814697265625 125.00314331054688 180.2728271484375 126.24229431152344 180.2728271484375 126.24229431152344 " />
        <polyline stroke="black" stroke-width="3" stroke-linecap="round" fill="transparent" stroke-linejoin="round" points="66.68392944335938 196.04779052734375 80.31463623046875 194.39556884765625 88.9886474609375 193.15643310546875 98.48883056640624 191.50421142578125 119.96746826171876 185.72149658203125 138.5546875 179.93881225585938 145.98959350585938 177.4604949951172 156.72894287109375 174.15609741210938 159.6202392578125 173.3300018310547 162.5115966796875 171.67779541015625 160.0333251953125 172.50390625 148.4678955078125 179.11270141601563 132.77197265625 190.26507568359375 119.14132690429688 202.2435302734375 109.22811889648438 213.3958740234375 102.206298828125 222.89605712890625 99.31491088867188 229.091796875 98.90185546875 230.74398803710935 99.72796630859376 231.15704345703125 105.09762573242188 227.4395751953125 117.07611083984376 219.1785888671875 127.81536865234376 211.74368286132813 135.25030517578125 207.20013427734375 140.20687866210938 205.96096801757813 141.85910034179688 207.20013427734375 141.85910034179688 208.85232543945313 135.25030517578125 219.1785888671875 125.7501220703125 225.37432861328125 112.11947631835938 230.74398803710935 96.83660888671876 233.2222900390625 84.445068359375 235.7005920410156 75.77105712890625 238.17889404296875 70.4013671875 240.65719604492188 67.923095703125 242.30938720703125 67.51007080078125 243.96160888671875 72.87973022460938 245.61380004882813 93.119140625 244.7877197265625 125.7501220703125 238.17889404296875 154.6636962890625 231.57009887695313 176.14227294921875 228.67874145507813 193.07733154296875 229.91790771484375 203.403564453125 235.28753662109375 203.403564453125 235.28753662109375 " />
        </svg>