<?xml version="1.0" standalone="no"?>
    <svg width="256" height="256" xmlns="http://www.w3.org/2000/svg" version="1.1">
    <polyline stroke="black" stroke-width="3" stroke-linecap="round" fill="transparent" stroke-linejoin="round" points="53.545745849609375 92.80705261230467 69.65472412109375 84.13299560546875 87.82891845703125 76.28504943847656 97.74212646484376 72.56759643554688 108.068359375 68.85014343261719 135.32968139648438 59.763031005859375 147.30816650390625 56.04559326171875 151.43865966796875 54.806427001953125 155.982177734375 53.15422821044922 155.982177734375 53.15422821044922 " />
        <polyline stroke="black" stroke-width="3" stroke-linecap="round" fill="transparent" stroke-linejoin="round" points="95.26385498046876 94.872314453125 92.37249755859376 107.26382446289063 91.95941162109376 113.04653930664063 91.95941162109376 118.41616821289063 91.95941162109376 127.91635131835938 93.19857788085938 134.93817138671875 94.024658203125 135.3512420654297 96.08993530273438 134.93817138671875 96.08993530273438 134.93817138671875 " />
        <polyline stroke="black" stroke-width="3" stroke-linecap="round" fill="transparent" stroke-linejoin="round" points="158.0474853515625 73.39369201660156 150.19952392578125 86.19825744628906 144.00375366210938 94.04620361328124 136.15576171875 102.7202606201172 107.65533447265624 129.9815673828125 91.54638671875 141.96002197265625 82.45928955078125 147.32969665527344 80.80706787109375 148.15579223632813 80.39401245117188 147.74273681640625 97.74212646484376 136.17733764648438 108.4814453125 130.39463806152344 129.96005249023438 120.89447021484376 158.46051025390625 112.22042846679688 170.43896484375 110.56822204589844 175.80859375 111.39431762695313 175.80859375 111.39431762695313 " />
        <polyline stroke="black" stroke-width="3" stroke-linecap="round" fill="transparent" stroke-linejoin="round" points="67.58944702148438 183.2650604248047 94.024658203125 171.28660583496094 105.177001953125 166.7430419921875 125.41650390625 157.65594482421875 148.54730224609375 148.15579223632813 158.87353515625 144.85137939453125 164.24322509765625 143.6122283935547 165.89544677734375 143.6122283935547 165.89544677734375 143.6122283935547 " />
        <polyline stroke="black" stroke-width="3" stroke-linecap="round" fill="transparent" stroke-linejoin="round" points="104.76400756835938 184.0911865234375 102.69873046875 194.41741943359375 103.11175537109376 199.3740234375 104.35092163085938 202.67843627929688 107.24227905273438 204.33062744140625 120.45989990234376 200.6131591796875 128.30783081054688 195.2435302734375 128.30783081054688 195.2435302734375 " />
        <polyline stroke="black" stroke-width="3" stroke-linecap="round" fill="transparent" stroke-linejoin="round" points="166.7215576171875 166.7430419921875 144.829833984375 192.7652282714844 137.39495849609375 198.96096801757813 120.04684448242188 209.2872314453125 103.11175537109376 215.89605712890625 84.93759155273438 220.4395751953125 81.63314819335938 220.8526306152344 77.91571044921875 220.8526306152344 79.15487670898438 220.02655029296875 83.69842529296875 219.200439453125 117.15548706054688 213.83078002929688 142.76458740234375 210.11334228515625 165.0693359375 208.46112060546875 189.0262451171875 210.11334228515625 189.0262451171875 210.11334228515625 " />
        </svg>