<?xml version="1.0" standalone="no"?>
    <svg width="256" height="256" xmlns="http://www.w3.org/2000/svg" version="1.1">
    <polyline stroke="black" stroke-width="3" stroke-linecap="round" fill="transparent" stroke-linejoin="round" points="73.6356201171875 87.15231323242188 74.7508544921875 97.74710083007813 74.7508544921875 107.22665405273438 74.7508544921875 113.3604736328125 74.7508544921875 116.70619201660156 74.7508544921875 116.70619201660156 77.5389404296875 112.8028564453125 82.55752563476563 103.88093566894533 89.80657958984375 89.94041442871094 99.84375 75.99990844726563 110.99615478515624 63.17463684082031 124.37905883789063 52.57984924316406 141.665283203125 44.773162841796875 157.8363037109375 40.86981964111328 169.54632568359375 41.42743682861328 175.68017578125 43.657920837402344 180.14111328125 48.11888122558594 181.81396484375 53.69508361816406 177.91064453125 64.28987121582031 165.6429443359375 79.34562683105469 143.338134765625 97.18948364257813 121.5909423828125 111.12998962402344 104.30471801757813 120.05192565917967 93.70993041992188 125.0705108642578 83.67276000976563 127.30099487304688 79.2117919921875 127.30099487304688 77.5389404296875 126.1857452392578 79.7694091796875 122.84002685546876 85.90325927734375 117.82144165039063 100.4013671875 109.45713806152344 110.99615478515624 105.55378723144533 121.5909423828125 102.76568603515624 127.72479248046876 101.65045166015624 132.74334716796875 104.43855285644533 132.74334716796875 104.43855285644533 " />
        <polyline stroke="black" stroke-width="3" stroke-linecap="round" fill="transparent" stroke-linejoin="round" points="84.78802490234375 151.83628845214844 94.267578125 143.47198486328125 105.97760009765624 135.10768127441406 116.0147705078125 127.85861206054688 123.26382446289063 123.39764404296876 128.28240966796875 121.72477722167967 129.95526123046875 121.72477722167967 128.28240966796875 126.7433624267578 121.0333251953125 137.89578247070313 112.66903686523438 151.83628845214844 103.74710083007813 165.77679443359375 94.8251953125 176.37158203125 83.67276000976563 186.96636962890625 68.05938720703125 197.5611572265625 53.003631591796875 203.69497680664065 46.31219482421875 206.48309326171875 41.851226806640625 207.59832763671875 47.98504638671875 206.48309326171875 73.07797241210938 197.0035400390625 100.4013671875 186.96636962890625 124.37905883789063 183.06304931640625 148.35675048828125 180.83255004882813 166.2005615234375 181.9477996826172 187.39013671875 185.85113525390625 187.39013671875 185.85113525390625 " />
        </svg>