<?xml version="1.0" standalone="no"?>
    <svg width="256" height="256" xmlns="http://www.w3.org/2000/svg" version="1.1">
    <polyline stroke="black" stroke-width="3" stroke-linecap="round" fill="transparent" stroke-linejoin="round" points="78.116943359375 102.046875 86.49407958984375 99.95262145996094 95.70892333984376 97.85832214355467 117.48944091796876 94.088623046875 128.37973022460938 92.83206176757813 139.68881225585938 91.5754852294922 159.3751220703125 89.481201171875 174.45391845703125 86.96806335449219 181.1556396484375 85.29263305664063 181.99334716796875 84.873779296875 181.99334716796875 84.873779296875 " />
        <polyline stroke="black" stroke-width="3" stroke-linecap="round" fill="transparent" stroke-linejoin="round" points="115.81402587890624 113.77488708496094 113.30087280273438 127.1782684326172 110.78778076171876 148.53994750976563 109.95004272460938 154.82278442382813 109.1123046875 164.03762817382813 108.69345092773438 169.0638885498047 108.69345092773438 170.32046508789063 109.1123046875 169.90159606933594 109.1123046875 169.90159606933594 " />
        <polyline stroke="black" stroke-width="3" stroke-linecap="round" fill="transparent" stroke-linejoin="round" points="153.929931640625 120.05772399902344 148.48480224609375 130.1102752685547 141.78314208984375 139.74395751953125 124.191162109375 161.10562133789063 101.57293701171876 180.7918701171875 101.57293701171876 180.7918701171875 " />
        <polyline stroke="black" stroke-width="3" stroke-linecap="round" fill="transparent" stroke-linejoin="round" points="80.63009643554688 181.21072387695313 101.57293701171876 174.92788696289063 124.61004638671876 171.5770263671875 148.48480224609375 170.32046508789063 172.359619140625 171.5770263671875 184.92529296875 172.41473388671875 196.23443603515625 172.83360290527344 196.23443603515625 172.83360290527344 " />
        </svg>