<?xml version="1.0" standalone="no"?>
    <svg width="256" height="256" xmlns="http://www.w3.org/2000/svg" version="1.1">
    <polyline stroke="black" stroke-width="3" stroke-linecap="round" fill="transparent" stroke-linejoin="round" points="100.505859375 89.22706604003906 112.94784545898438 84.04290771484375 125.3897705078125 79.37718200683594 147.681640625 72.63778686523438 157.01312255859375 70.04571533203125 172.047119140625 66.41680908203125 182.41546630859375 64.3431396484375 187.599609375 63.306304931640625 189.15478515625 63.306304931640625 189.15478515625 63.306304931640625 " />
        <polyline stroke="black" stroke-width="3" stroke-linecap="round" fill="transparent" stroke-linejoin="round" points="124.871337890625 123.44244384765624 124.35296630859376 128.6265869140625 124.35296630859376 134.32916259765625 124.35296630859376 148.84478759765625 124.35296630859376 154.54734802246094 124.871337890625 157.13943481445313 126.94503784179688 156.6210174560547 130.05551147460938 154.54734802246094 130.05551147460938 154.54734802246094 " />
        <polyline stroke="black" stroke-width="3" stroke-linecap="round" fill="transparent" stroke-linejoin="round" points="174.12078857421875 90.26388549804688 171.01031494140625 97.52169799804688 167.89984130859375 104.77951049804688 163.23406982421875 113.5925750732422 147.1632080078125 139.5133056640625 137.31332397460938 152.9921112060547 137.31332397460938 152.9921112060547 " />
        <polyline stroke="black" stroke-width="3" stroke-linecap="round" fill="transparent" stroke-linejoin="round" points="82.87973022460938 188.76275634765625 94.28488159179688 182.541748046875 109.31893920898438 174.24713134765625 140.423828125 160.2499237060547 165.826171875 151.95526123046875 183.4522705078125 147.80796813964844 197.9678955078125 147.28953552246094 206.78094482421875 147.80796813964844 206.78094482421875 147.80796813964844 " />
        </svg>