<?xml version="1.0" standalone="no"?>
    <svg width="256" height="256" xmlns="http://www.w3.org/2000/svg" version="1.1">
    <polyline stroke="black" stroke-width="3" stroke-linecap="round" fill="transparent" stroke-linejoin="round" points="109.22222900390624 92.88888549804688 114.55557250976563 93.77780151367188 114.55557250976563 93.77780151367188 " />
        <polyline stroke="black" stroke-width="3" stroke-linecap="round" fill="transparent" stroke-linejoin="round" points="136.77777099609375 75.11111450195313 127 100.88890075683594 112.77780151367188 125.7777862548828 94.11111450195313 149.7777862548828 74.55557250976563 172 58.555572509765625 185.33334350585935 48.77777099609375 188.88888549804688 43.4444580078125 187.11114501953125 43.4444580078125 187.11114501953125 " />
        <polyline stroke="black" stroke-width="3" stroke-linecap="round" fill="transparent" stroke-linejoin="round" points="99.44448852539063 126.66667175292967 114.55557250976563 137.3333282470703 126.11114501953124 145.33334350585938 132.33334350585938 149.7777862548828 135.88888549804688 153.3333282470703 135.88888549804688 153.3333282470703 " />
        <polyline stroke="black" stroke-width="3" stroke-linecap="round" fill="transparent" stroke-linejoin="round" points="39 170.22222900390625 39 179.11111450195313 39 183.5555725097656 39 186.22222900390625 42.555572509765625 188 56.77777099609375 186.22222900390625 78.11111450195313 182.66668701171875 101.22222900390624 180 124.33334350585938 178.2222442626953 155.4444580078125 176.44444274902344 166.11111450195313 175.55555725097656 169.66665649414063 175.55555725097656 172.33334350585938 174.6666717529297 173.22222900390625 173.77780151367188 173.22222900390625 168.44444274902344 173.22222900390625 168.44444274902344 " />
        <polyline stroke="black" stroke-width="3" stroke-linecap="round" fill="transparent" stroke-linejoin="round" points="175.88888549804688 148 175.88888549804688 167.55555725097656 177.66665649414063 177.3333282470703 180.33334350585935 182.66668701171875 181.22222900390625 187.11114501953125 181.22222900390625 187.11114501953125 " />
        </svg>