<?xml version="1.0" standalone="no"?>
    <svg width="256" height="256" xmlns="http://www.w3.org/2000/svg" version="1.1">
    <polyline stroke="black" stroke-width="3" stroke-linecap="round" fill="transparent" stroke-linejoin="round" points="99.655029296875 65.48883056640625 105.84423828125 78.75141906738281 108.93881225585938 84.94062805175781 115.57012939453124 93.7823486328125 126.18017578125 98.64529418945313 132.81149291992188 98.20323181152344 132.81149291992188 98.20323181152344 " />
        <polyline stroke="black" stroke-width="3" stroke-linecap="round" fill="transparent" stroke-linejoin="round" points="158.01043701171875 71.67803955078125 148.7265625 84.05645751953125 138.11654663085938 97.76113891601563 127.06439208984376 111.4658203125 115.12802124023438 126.05467224121094 85.50827026367188 159.6531982421875 77.99276733398438 167.16867065429688 77.99276733398438 167.16867065429688 " />
        <polyline stroke="black" stroke-width="3" stroke-linecap="round" fill="transparent" stroke-linejoin="round" points="92.58163452148438 110.58163452148438 104.96005249023438 113.23416137695313 118.66473388671876 116.77085876464844 161.547119140625 130.4755096435547 182.76727294921875 140.20140075683594 195.5877685546875 148.60105895996094 195.5877685546875 148.60105895996094 " />
        <polyline stroke="black" stroke-width="3" stroke-linecap="round" fill="transparent" stroke-linejoin="round" points="39.973358154296875 120.30752563476563 39.089202880859375 134.01220703125 39.53125 147.27481079101563 43.067962646484375 170.7053680419922 49.69927978515625 187.504638671875 61.19354248046875 198.9989013671875 81.9715576171875 208.72479248046875 106.7283935546875 214.471923828125 133.69564819335938 216.68234252929688 161.98919677734375 214.91400146484375 187.1881103515625 208.28271484375 205.7557373046875 198.55679321289065 211.9449462890625 191.92550659179688 211.9449462890625 191.92550659179688 " />
        <polyline stroke="black" stroke-width="3" stroke-linecap="round" fill="transparent" stroke-linejoin="round" points="230.07049560546875 96.43487548828124 230.5125732421875 107.04495239257813 230.95465087890625 131.35971069335938 230.5125732421875 158.3269500732422 228.3021240234375 189.715087890625 228.3021240234375 205.63018798828125 228.3021240234375 205.63018798828125 " />
        </svg>