<?xml version="1.0" standalone="no"?>
    <svg width="256" height="256" xmlns="http://www.w3.org/2000/svg" version="1.1">
    <polyline stroke="black" stroke-width="3" stroke-linecap="round" fill="transparent" stroke-linejoin="round" points="76.26724243164063 76.32136535644533 78.5078125 83.49098205566406 80.74838256835938 90.6605987548828 84.33319091796875 101.41502380371094 85.2293701171875 105.44792175292967 86.12557983398438 109.4808349609375 87.021728515625 115.30615234375 87.021728515625 117.546630859375 87.021728515625 117.546630859375 " />
        <polyline stroke="black" stroke-width="3" stroke-linecap="round" fill="transparent" stroke-linejoin="round" points="94.63946533203124 65.56696319580078 101.80908203125 60.637847900390625 108.97869873046876 55.70873260498047 116.596435546875 50.77962493896485 133.1761474609375 42.26570892333984 149.755859375 36.88850402832031 156.92547607421875 35.544189453125 175.297607421875 39.12901306152344 183.8115234375 44.50621032714844 189.6368408203125 53.02012634277344 191.42926025390625 69.15176391601563 185.60394287109375 89.31629943847656 173.5052490234375 107.68841552734376 166.33563232421875 114.8580322265625 166.33563232421875 114.8580322265625 " />
        <polyline stroke="black" stroke-width="3" stroke-linecap="round" fill="transparent" stroke-linejoin="round" points="89.71032714843751 100.96691894531247 96.87997436523438 96.93400573730467 104.04962158203124 92.90109252929688 112.11541748046876 88.86819458007813 120.18124389648438 85.28338623046875 128.2470703125 82.14668273925781 143.93060302734375 77.21757507324219 156.4774169921875 74.52896118164063 167.679931640625 71.39225769042969 171.71282958984375 69.15176391601563 171.71282958984375 69.15176391601563 " />
        <polyline stroke="black" stroke-width="3" stroke-linecap="round" fill="transparent" stroke-linejoin="round" points="143.03433227539063 53.468231201171875 138.5533447265625 63.326446533203125 134.07235717773438 73.18466186523438 121.9736328125 96.93400573730467 114.35589599609376 109.4808349609375 107.6343994140625 117.9947509765625 103.15341186523438 122.47575378417967 100.01669311523438 125.1643524169922 99.1204833984375 125.61245727539063 100.01669311523438 125.61245727539063 107.186279296875 124.26815795898438 120.18124389648438 121.57955932617188 134.52044677734375 117.9947509765625 146.17108154296875 114.40994262695313 150.652099609375 113.06564331054688 155.133056640625 110.82513427734376 155.133056640625 110.82513427734376 " />
        <polyline stroke="black" stroke-width="3" stroke-linecap="round" fill="transparent" stroke-linejoin="round" points="52.069854736328125 171.31874084472656 64.61669921875 168.18203735351563 77.16354370117188 165.0453338623047 89.71038818359375 162.3567352294922 104.04962158203124 159.66812133789063 130.93563842773438 154.739013671875 155.5811767578125 151.60232543945313 175.7457275390625 148.46560668945313 188.2926025390625 146.67320251464844 194.11785888671875 144.88079833984375 195.01409912109375 143.98458862304688 195.9102783203125 141.74407958984375 195.9102783203125 141.74407958984375 " />
        <polyline stroke="black" stroke-width="3" stroke-linecap="round" fill="transparent" stroke-linejoin="round" points="132.27996826171875 112.61752319335938 122.86984252929688 130.54156494140625 113.459716796875 148.46560668945313 109.42684936523438 158.77191162109375 102.705322265625 183.86557006835935 102.25717163085938 193.72378540039065 103.60150146484376 199.10101318359375 108.53060913085938 202.2377014160156 113.90780639648438 203.1339111328125 131.83184814453125 202.2377014160156 137.65716552734375 200.4453125 151.54827880859375 191.03518676757813 151.54827880859375 191.03518676757813 " />
        <polyline stroke="black" stroke-width="3" stroke-linecap="round" fill="transparent" stroke-linejoin="round" points="160.5103759765625 134.12637329101563 159.6141357421875 140.847900390625 158.7178955078125 147.56942749023438 157.82171630859375 154.29092407226563 154.68499755859375 177.59214782714844 153.3406982421875 188.3465881347656 153.3406982421875 188.3465881347656 " />
        </svg>