<?xml version="1.0" standalone="no"?>
    <svg width="256" height="256" xmlns="http://www.w3.org/2000/svg" version="1.1">
    <polyline stroke="black" stroke-width="3" stroke-linecap="round" fill="transparent" stroke-linejoin="round" points="80.35174560546875 47.27425384521485 80.35174560546875 63.83573913574219 81.17977905273438 79.98318481445313 82.421875 94.4744873046875 82.8359375 100.27099609375 82.8359375 108.5517578125 82.8359375 113.10617065429688 82.421875 113.93423461914063 81.59384155273438 112.69212341308594 81.59384155273438 112.69212341308594 " />
        <polyline stroke="black" stroke-width="3" stroke-linecap="round" fill="transparent" stroke-linejoin="round" points="85.32015991210938 56.797119140625 99.3974609375 49.344444274902344 114.30279541015624 44.375999450683594 130.8642578125 41.47773742675781 145.35556030273438 41.06370544433594 156.9486083984375 43.133880615234375 161.5030517578125 44.79003143310547 170.61181640625 51.82866668701172 173.92413330078125 63.007659912109375 173.5101318359375 70.87437438964844 164.4012451171875 92.81834411621094 152.39422607421875 106.4815673828125 152.39422607421875 106.4815673828125 " />
        <polyline stroke="black" stroke-width="3" stroke-linecap="round" fill="transparent" stroke-linejoin="round" points="84.49212646484375 91.99026489257813 94.42901611328124 87.02182006835938 99.81146240234376 84.53759765625 106.02203369140624 82.05337524414063 118.857177734375 76.6708984375 130.8642578125 71.70245361328125 140.80111694335938 67.97611999511719 146.59765625 65.49188232421875 149.08187866210938 63.83573913574219 149.08187866210938 63.83573913574219 " />
        <polyline stroke="black" stroke-width="3" stroke-linecap="round" fill="transparent" stroke-linejoin="round" points="135.83270263671875 47.27425384521485 132.10638427734375 58.45326232910156 130.4501953125 64.663818359375 123.82562255859376 85.36567687988281 118.443115234375 96.95870971679688 112.6466064453125 106.06755065917967 106.85009765625 112.27810668945313 98.9833984375 116.83250427246094 96.49920654296876 117.24655151367188 96.08514404296876 116.41845703125 98.9833984375 113.93423461914063 102.709716796875 111.45001220703124 115.130859375 105.23947143554688 130.03619384765625 99.8569793701172 147.42572021484375 96.95870971679688 152.8082275390625 96.95870971679688 156.12054443359375 96.95870971679688 156.12054443359375 96.95870971679688 " />
        <polyline stroke="black" stroke-width="3" stroke-linecap="round" fill="transparent" stroke-linejoin="round" points="50.541015625 176.45384216308594 71.65695190429688 171.4853973388672 91.94476318359376 167.34503173828125 114.716796875 161.96255493164063 135.41867065429688 156.99411010742188 144.5274658203125 154.92391967773438 168.12762451171875 150.3695068359375 176.8223876953125 148.29931640625 181.3768310546875 147.47125244140625 182.618896484375 147.05722045898438 182.618896484375 147.05722045898438 " />
        <polyline stroke="black" stroke-width="3" stroke-linecap="round" fill="transparent" stroke-linejoin="round" points="124.23968505859376 123.45709228515624 117.61508178710938 135.05014038085938 115.54489135742188 142.08877563476563 110.16241455078124 174.3836669921875 109.74838256835938 181.4222869873047 110.576416015625 192.187255859375 111.81854248046876 197.9837646484375 113.47470092773438 200.88204956054688 116.37298583984376 202.1241455078125 121.75546264648438 200.88204956054688 129.62216186523438 198.3978271484375 137.90289306640625 195.08551025390625 145.76959228515625 189.7030334472656 145.76959228515625 189.7030334472656 " />
        <polyline stroke="black" stroke-width="3" stroke-linecap="round" fill="transparent" stroke-linejoin="round" points="149.90997314453125 137.94839477539063 146.59765625 152.439697265625 146.18359375 159.4783172607422 146.18359375 167.34503173828125 147.42572021484375 181.8363342285156 149.90997314453125 201.29608154296875 151.98016357421875 208.334716796875 151.98016357421875 208.334716796875 " />
        </svg>