<?xml version="1.0" standalone="no"?>
    <svg width="256" height="256" xmlns="http://www.w3.org/2000/svg" version="1.1">
    <polyline stroke="black" stroke-width="3" stroke-linecap="round" fill="transparent" stroke-linejoin="round" points="90.6065673828125 80.35427856445313 100.01669311523438 77.66567993164063 109.42684936523438 75.4251708984375 128.2470703125 70.94415283203125 145.27487182617188 67.35935974121094 158.269775390625 63.77455139160156 167.2318115234375 61.0859375 172.6090087890625 57.94923400878906 174.40142822265625 55.70873260498047 174.40142822265625 55.70873260498047 " />
        <polyline stroke="black" stroke-width="3" stroke-linecap="round" fill="transparent" stroke-linejoin="round" points="116.1483154296875 54.36443328857422 111.66732788085938 66.01504516601563 97.77621459960938 102.7593231201172 82.98886108398438 144.88079833984375 72.23443603515625 176.69595336914063 65.512939453125 194.6199951171875 61.9281005859375 203.58200073242188 61.03192138671875 204.47821044921875 61.03192138671875 204.47821044921875 " />
        <polyline stroke="black" stroke-width="3" stroke-linecap="round" fill="transparent" stroke-linejoin="round" points="122.86984252929688 129.197265625 131.38372802734375 133.6782684326172 141.241943359375 139.95169067382813 161.8546142578125 154.29092407226563 182.46722412109375 168.630126953125 197.70263671875 180.28076171875 208.90521240234375 187.89846801757813 208.90521240234375 187.89846801757813 " />
        <polyline stroke="black" stroke-width="3" stroke-linecap="round" fill="transparent" stroke-linejoin="round" points="202.1837158203125 101.41502380371094 189.6368408203125 112.16943359375 148.85968017578125 149.36180114746094 137.65716552734375 159.2200164794922 116.1483154296875 178.04025268554688 116.1483154296875 178.04025268554688 " />
        </svg>