<?xml version="1.0" standalone="no"?>
    <svg width="256" height="256" xmlns="http://www.w3.org/2000/svg" version="1.1">
    <polyline stroke="black" stroke-width="3" stroke-linecap="round" fill="transparent" stroke-linejoin="round" points="73.60089111328125 101.1094970703125 82.40304565429688 95.608154296875 114.67770385742188 81.30461120605469 124.9468994140625 77.63702392578125 134.48260498046875 74.70297241210938 152.08697509765625 69.20161437988281 168.591064453125 62.5999755859375 178.86029052734375 55.99833679199219 178.86029052734375 55.99833679199219 " />
        <polyline stroke="black" stroke-width="3" stroke-linecap="round" fill="transparent" stroke-linejoin="round" points="123.11312866210938 47.92967224121094 120.91259765625 58.932403564453125 114.67770385742188 84.97216796875 106.60906982421876 115.0462646484375 102.20794677734376 128.98306274414063 92.6722412109375 155.0228271484375 84.23687744140625 177.76177978515625 78.001953125 192.798828125 74.70114135742188 201.60101318359375 73.234130859375 204.90185546875 73.234130859375 204.90185546875 " />
        <polyline stroke="black" stroke-width="3" stroke-linecap="round" fill="transparent" stroke-linejoin="round" points="135.58285522460938 138.1519775390625 141.45101928710938 144.38687133789063 148.7861328125 151.72201538085938 163.45648193359375 165.2920379638672 184.36163330078125 183.26315307617188 197.1981201171875 194.265869140625 208.20086669921875 203.06805419921875 214.43572998046875 206.36886596679688 214.43572998046875 206.36886596679688 " />
        <polyline stroke="black" stroke-width="3" stroke-linecap="round" fill="transparent" stroke-linejoin="round" points="197.56488037109375 129.71658325195313 191.69677734375 135.58468627929688 176.65966796875 153.18905639648438 161.6226806640625 172.2604217529297 148.7861328125 190.2315368652344 138.150146484375 206.73562622070313 134.1158447265625 213.70404052734375 134.1158447265625 213.70404052734375 " />
        </svg>