<?xml version="1.0" standalone="no"?>
    <svg width="256" height="256" xmlns="http://www.w3.org/2000/svg" version="1.1">
    <polyline stroke="black" stroke-width="3" stroke-linecap="round" fill="transparent" stroke-linejoin="round" points="76.6116943359375 81.19978332519531 83.896240234375 78.430908203125 91.1807861328125 75.66203308105469 108.47396850585938 70.25265502929688 132.96737670898438 65.92509460449219 137.90243530273438 65.50920104980469 139.580078125 65.6375732421875 139.615966796875 65.64732360839844 139.61907958984375 65.648193359375 130.19894409179688 75.29214477539063 122.0426025390625 85.85783386230469 108.78350830078124 113.90084838867188 102.3531494140625 129.22723388671875 89.45166015625 159.36265563964844 84.91513061523438 168.23992919921875 78.39767456054688 186.695068359375 78.531982421875 191.1548767089844 83.04071044921875 196.1104431152344 86.41937255859375 197.240234375 95.125244140625 202.66915893554688 100.64599609375 206.12966918945313 123.76937866210938 213.67111206054688 139.75375366210938 214.74822998046875 145.64767456054688 214.13211059570313 165.8271484375 210.84518432617188 174.34716796875 207.1856689453125 176.3953857421875 198.84603881835935 177.76068115234375 192.82192993164065 179.515380859375 176.2841796875 178.94384765625 163.3702392578125 175.70452880859375 148.44358825683594 175.38055419921875 146.95089721679688 " />
        </svg>