<?xml version="1.0" standalone="no"?>
    <svg width="256" height="256" xmlns="http://www.w3.org/2000/svg" version="1.1">
    <polyline stroke="black" stroke-width="3" stroke-linecap="round" fill="transparent" stroke-linejoin="round" points="77.63470458984376 75.91668701171875 87.7529296875 74.65605163574219 97.87115478515624 73.39541625976563 120.380859375 70.3262939453125 134.88262939453125 68.23849487304688 140.42172241210938 67.71183776855469 143.16748046875 67.54371643066406 145.14453125 66.93914794921875 145.32235717773438 66.84371948242188 145.39306640625 66.80575561523438 145.44882202148438 66.77587890625 140.58514404296875 78.27671813964844 134.30563354492188 90.35684204101563 117.626708984375 115.49211120605467 108.025390625 129.36471557617188 90.57958984375 155.90428161621094 79.99081420898438 171.1165771484375 78.453857421875 174.8450164794922 79.16094970703125 179.73568725585938 81.69232177734375 182.79290771484375 90.096923828125 189.506103515625 96.18270874023438 193.6568298339844 111.00726318359376 201.05157470703125 125.83978271484376 207.37908935546875 132.93502807617188 210.2501220703125 138.896728515625 211.72836303710935 153.2427978515625 213.80303955078125 165.673583984375 211.20770263671875 171.16314697265625 208.71487426757813 176.77020263671875 203.39627075195313 177.77264404296875 199.42352294921875 180.37628173828125 174.7349090576172 177.6009521484375 154.70355224609375 161.64837646484375 118.99490356445313 160.3533935546875 120.30780029296876 " />
        </svg>