<?xml version="1.0" standalone="no"?>
    <svg width="256" height="256" xmlns="http://www.w3.org/2000/svg" version="1.1">
    <polyline stroke="black" stroke-width="3" stroke-linecap="round" fill="transparent" stroke-linejoin="round" points="76.04547119140624 99.7806396484375 84.2646484375 96.9039306640625 92.48382568359376 94.0272216796875 102.3468017578125 90.32858276367188 134.8125 78.82174682617188 152.89471435546875 73.06832885742188 159.4700927734375 71.0135498046875 172.6207275390625 67.31491088867188 175.90838623046875 66.08204650878906 176.3193359375 66.08204650878906 172.6207275390625 69.78067016601563 167.27825927734375 75.53408813476563 138.922119140625 106.35595703125 127.82626342773438 119.09568786621094 103.57968139648438 151.97235107421875 99.05917358398438 160.1915283203125 94.12765502929688 173.75315856933594 94.12765502929688 191.013427734375 98.648193359375 198.41067504882813 109.74407958984376 204.57504272460935 129.47006225585938 208.273681640625 140.97689819335938 208.273681640625 161.935791015625 204.16409301757813 181.2508544921875 195.53396606445313 187.826171875 190.1914978027344 191.935791015625 183.61614990234375 193.57958984375 173.3422088623047 192.7576904296875 167.17782592773438 184.949462890625 148.6846923828125 184.949462890625 148.6846923828125 " />
        </svg>