<?xml version="1.0" standalone="no"?>
    <svg width="256" height="256" xmlns="http://www.w3.org/2000/svg" version="1.1">
    <polyline stroke="black" stroke-width="3" stroke-linecap="round" fill="transparent" stroke-linejoin="round" points="64.127685546875 75.12312316894531 81.387939453125 67.72587585449219 98.648193359375 60.32862854003906 122.89474487304688 52.10945892333984 137.689208984375 48.82179260253906 144.26458740234375 47.58891296386719 154.53857421875 46.35604095458984 160.702880859375 45.94508361816406 163.9906005859375 45.94508361816406 165.2235107421875 46.766990661621094 164.40155029296875 54.57521057128906 154.53857421875 79.6436767578125 139.7440185546875 108.4107666015625 125.3604736328125 134.71209716796875 114.675537109375 157.3148193359375 108.51119995117188 174.1641082763672 107.2783203125 186.49285888671875 110.155029296875 193.47918701171875 117.14132690429688 198.82162475585935 131.1138916015625 202.93121337890625 150.83993530273438 203.75311279296875 170.56591796875 201.6983337402344 187.0042724609375 197.5887451171875 199.3330078125 193.47918701171875 207.55218505859375 189.78054809570313 212.483642578125 186.49285888671875 215.3603515625 182.7942352294922 216.59326171875 179.9175262451172 211.66180419921875 154.4381103515625 206.730224609375 145.3970184326172 206.730224609375 145.3970184326172 " />
        </svg>