<?xml version="1.0" standalone="no"?>
    <svg width="256" height="256" xmlns="http://www.w3.org/2000/svg" version="1.1">
    <polyline stroke="black" stroke-width="3" stroke-linecap="round" fill="transparent" stroke-linejoin="round" points="83 28 83 30 84 33 85 36 86 40 87 45 89 50 90 55 91 59 92 63 93 68 93 69 94 72 94 73 95 73 " />
        <polyline stroke="black" stroke-width="3" stroke-linecap="round" fill="transparent" stroke-linejoin="round" points="101 39 104 37 107 36 110 35 114 34 118 33 122 33 127 33 132 33 138 35 143 36 146 38 149 41 151 44 151 49 150 56 147 63 143 70 140 73 138 76 " />
        <polyline stroke="black" stroke-width="3" stroke-linecap="round" fill="transparent" stroke-linejoin="round" points="46 84 45 84 45 84 46 84 47 84 50 84 53 84 58 84 64 85 75 85 84 86 93 87 103 88 113 88 124 89 133 89 143 90 152 90 163 89 170 89 173 88 177 88 179 88 " />
        <polyline stroke="black" stroke-width="3" stroke-linecap="round" fill="transparent" stroke-linejoin="round" points="64 121 63 121 63 121 63 120 63 120 65 120 67 119 70 118 75 117 80 116 87 115 94 114 102 112 110 111 122 109 130 108 137 107 144 105 149 104 152 104 155 104 155 104 156 104 " />
        <polyline stroke="black" stroke-width="3" stroke-linecap="round" fill="transparent" stroke-linejoin="round" points="75 125 74 125 73 125 73 126 73 127 74 130 75 133 76 137 78 140 79 144 80 147 81 150 83 153 86 154 87 153 " />
        <polyline stroke="black" stroke-width="3" stroke-linecap="round" fill="transparent" stroke-linejoin="round" points="91 131 92 131 93 131 94 131 95 132 97 133 99 134 101 135 103 136 106 137 109 137 113 137 116 137 " />
        <polyline stroke="black" stroke-width="3" stroke-linecap="round" fill="transparent" stroke-linejoin="round" points="144 112 142 114 140 119 136 124 128 134 121 141 113 149 105 156 101 160 " />
        <polyline stroke="black" stroke-width="3" stroke-linecap="round" fill="transparent" stroke-linejoin="round" points="53 182 52 182 51 181 52 180 54 178 56 177 60 175 65 174 74 173 82 174 90 175 99 176 109 178 120 179 132 181 145 183 151 184 " />
        </svg>