<?xml version="1.0" standalone="no"?>
    <svg width="256" height="256" xmlns="http://www.w3.org/2000/svg" version="1.1">
    <polyline stroke="black" stroke-width="3" stroke-linecap="round" fill="transparent" stroke-linejoin="round" points="72.75622558593751 76.95584106445313 85.80661010742188 75.27944946289063 98.85699462890624 73.60305786132813 126.0697021484375 70.53146362304688 138.792724609375 69.59442138671875 158.62030029296875 68.29049682617188 166.39990234375 68.62397766113281 177.04803466796875 69.91502380371094 180.2213134765625 72.20394897460938 180.0877685546875 75.27360534667969 183.5257568359375 103.97409057617188 182.24176025390625 124.87051391601563 172.83465576171875 156.9031982421875 166.83489990234375 170.21444702148438 156.4786376953125 186.31768798828125 152.3104248046875 192.4384765625 141.64666748046875 208.13137817382813 141.84375 207.30648803710935 " />
        <polyline stroke="black" stroke-width="3" stroke-linecap="round" fill="transparent" stroke-linejoin="round" points="123.76721191406253 88.10015869140628 122.23919677734376 104.5464324951172 120.711181640625 120.99270629882813 118.48703002929688 136.79808044433594 115.41802978515624 152.476318359375 108.22601318359376 176.74652099609375 105.56658935546876 183.46685791015625 103.8887939453125 190.91412353515625 103.72103881835938 191.65884399414065 " />
        <polyline stroke="black" stroke-width="3" stroke-linecap="round" fill="transparent" stroke-linejoin="round" points="79.46765136718747 142.90760803222656 96.37554931640624 140.12222290039063 113.283447265625 137.3368377685547 132.37109375 134.1939697265625 150.62548828125 130.42922973632813 176.841064453125 124.8701629638672 183.88958740234375 123.66001892089844 187.6495361328125 122.64205932617188 187.6820068359375 122.59153747558594 187.68310546875 122.58970642089844 " />
        <polyline stroke="black" stroke-width="3" stroke-linecap="round" fill="transparent" stroke-linejoin="round" points="61.6473388671875 197.8072814941406 74.96649169921875 198.4884033203125 88.28564453125 199.1695251464844 118.74462890625 200.55426025390625 150.36117553710938 199.41769409179688 164.88525390625 197.33758544921875 193.15716552734375 193.75775146484375 205.77569580078125 193.20535278320313 221.7015380859375 194.52471923828125 224.92620849609375 196.9925842285156 225.313720703125 199.048828125 223.51483154296875 199.2330322265625 " />
        </svg>