<?xml version="1.0" standalone="no"?>
    <svg width="256" height="256" xmlns="http://www.w3.org/2000/svg" version="1.1">
    <polyline stroke="black" stroke-width="3" stroke-linecap="round" fill="transparent" stroke-linejoin="round" points="60.18597412109375 86.17034912109375 74.9423828125 75.56417846679688 81.85946655273438 71.87506103515625 90.159912109375 68.18595886230469 99.84384155273438 64.49685668945313 117.82821655273438 59.424346923828125 133.50692749023438 58.96319580078125 145.49652099609375 63.5745849609375 160.2529296875 85.24806213378906 166.24774169921875 113.838623046875 166.24774169921875 139.2012176513672 162.09747314453125 157.1855926513672 155.64154052734375 169.63632202148438 148.2633056640625 176.5533905029297 144.11309814453125 178.39794921875 144.11309814453125 178.39794921875 " />
        <polyline stroke="black" stroke-width="3" stroke-linecap="round" fill="transparent" stroke-linejoin="round" points="105.37750244140624 104.61587524414063 105.838623046875 124.90594482421876 105.37750244140624 140.58462524414063 102.14950561523438 168.71405029296875 97.999267578125 186.69842529296875 93.38790893554688 196.84347534179688 91.5433349609375 199.61029052734375 91.5433349609375 199.61029052734375 " />
        <polyline stroke="black" stroke-width="3" stroke-linecap="round" fill="transparent" stroke-linejoin="round" points="69.869873046875 140.12350463867188 80.47604370117188 134.58984375 88.77655029296875 130.90072631835938 109.52777099609376 123.52252197265624 120.59506225585938 119.83341979980467 143.65194702148438 115.2220458984375 164.4031982421875 113.3774871826172 164.4031982421875 113.3774871826172 " />
        <polyline stroke="black" stroke-width="3" stroke-linecap="round" fill="transparent" stroke-linejoin="round" points="25.6005859375 222.2060546875 50.963226318359375 210.6776123046875 66.18075561523438 204.2216796875 80.47604370117188 198.22686767578125 109.98886108398438 189.00411987304688 125.66757202148438 185.77615356445313 155.180419921875 181.62591552734375 181.9263916015625 181.1647796630859 193.454833984375 182.0870361328125 193.454833984375 182.0870361328125 " />
        </svg>