<?xml version="1.0" standalone="no"?>
    <svg width="256" height="256" xmlns="http://www.w3.org/2000/svg" version="1.1">
    <polyline stroke="black" stroke-width="3" stroke-linecap="round" fill="transparent" stroke-linejoin="round" points="67.58905029296875 96.68785095214844 74.32159423828125 92.57351684570313 81.05413818359375 88.45918273925781 88.90878295898438 83.97080993652344 120.32736206054688 70.13168334960938 145.76144409179688 63.77314758300781 165.2110595703125 63.77314758300781 177.1800537109375 68.63555908203125 185.78271484375 77.986328125 191.3931884765625 96.31382751464844 190.6451416015625 120.62582397460938 185.03466796875 143.0676727294922 176.4320068359375 161.02114868164063 166.7071533203125 172.9901123046875 155.86029052734375 180.8447723388672 155.86029052734375 180.8447723388672 " />
        <polyline stroke="black" stroke-width="3" stroke-linecap="round" fill="transparent" stroke-linejoin="round" points="104.24401855468751 117.25955200195313 101.99984741210938 127.73240661621094 99.75567626953124 138.20526123046875 97.511474609375 148.67813110351563 92.64910888671876 167.75369262695313 86.29052734375 185.3331298828125 86.29052734375 185.3331298828125 " />
        <polyline stroke="black" stroke-width="3" stroke-linecap="round" fill="transparent" stroke-linejoin="round" points="57.49017333984375 166.631591796875 69.08514404296875 161.76919555664063 80.68011474609375 156.90679931640625 94.14520263671876 151.29632568359375 108.732421875 144.93780517578125 139.40292358398438 132.59481811523438 170.447509765625 119.87774658203124 192.51531982421875 112.39715576171876 203.73626708984375 110.15298461914063 206.35443115234375 110.15298461914063 206.35443115234375 110.15298461914063 " />
        <polyline stroke="black" stroke-width="3" stroke-linecap="round" fill="transparent" stroke-linejoin="round" points="42.5289306640625 203.28662109375 52.253753662109375 202.16452026367188 61.97857666015625 201.04241943359375 88.16073608398438 197.3021240234375 136.03662109375 189.82150268554688 171.569580078125 183.0889587402344 199.99591064453125 177.47848510742188 218.69744873046875 174.4862518310547 224.68194580078125 174.4862518310547 228.7962646484375 175.60833740234375 228.7962646484375 175.60833740234375 " />
        </svg>