<?xml version="1.0" standalone="no"?>
    <svg width="256" height="256" xmlns="http://www.w3.org/2000/svg" version="1.1">
    <polyline stroke="black" stroke-width="3" stroke-linecap="round" fill="transparent" stroke-linejoin="round" points="56.36810302734375 116.88552856445313 76.56576538085938 104.54251098632813 96.763427734375 92.19949340820313 113.59481811523438 84.3448486328125 137.53277587890625 76.86422729492188 143.51727294921875 76.11616516113281 152.1199951171875 77.6123046875 156.98236083984375 82.47468566894531 161.0966796875 95.56576538085938 160.3486328125 113.51925659179688 154.3641357421875 132.96884155273438 146.883544921875 146.43394470214844 142.76922607421875 152.04440307617188 133.04440307617188 161.39517211914063 128.18197631835938 161.02114868164063 128.18197631835938 161.02114868164063 " />
        <polyline stroke="black" stroke-width="3" stroke-linecap="round" fill="transparent" stroke-linejoin="round" points="106.11413574218751 103.04640197753909 102.74789428710938 112.39715576171876 99.38165283203124 121.74790954589844 96.015380859375 131.0986785888672 92.64910888671876 139.32736206054688 83.67236328125 158.77696228027344 76.56576538085938 168.5017547607422 76.56576538085938 168.5017547607422 " />
        <polyline stroke="black" stroke-width="3" stroke-linecap="round" fill="transparent" stroke-linejoin="round" points="46.269317626953125 164.01336669921875 55.24603271484375 159.52500915527344 64.22274780273438 155.03665161132813 75.81771850585938 149.8002166748047 99.38165283203124 140.44944763183594 111.72467041015624 135.96109008789063 149.87579345703125 124.74015808105467 171.195556640625 119.50372314453124 184.66064453125 116.511474609375 189.8970947265625 115.38938903808594 190.6451416015625 115.763427734375 189.1490478515625 117.63357543945313 189.1490478515625 117.63357543945313 " />
        <polyline stroke="black" stroke-width="3" stroke-linecap="round" fill="transparent" stroke-linejoin="round" points="73.57354736328124 186.8292541503906 83.67236328125 184.9591064453125 93.77117919921876 183.0889587402344 104.99212646484376 181.2187957763672 115.8389892578125 178.974609375 128.18197631835938 176.73043823242188 153.9901123046875 172.9901123046875 167.45526123046875 171.49400329589844 180.17230224609375 170.37191772460938 180.17230224609375 170.37191772460938 " />
        </svg>