<?xml version="1.0" standalone="no"?>
    <svg width="256" height="256" xmlns="http://www.w3.org/2000/svg" version="1.1">
    <polyline stroke="black" stroke-width="3" stroke-linecap="round" fill="transparent" stroke-linejoin="round" points="127.96087646484376 45.16796112060547 127.96087646484376 50.61309051513672 127.12313842773438 56.477081298828125 125.86654663085938 62.341064453125 120.42144775390624 73.2313232421875 110.368896484375 83.70272827148438 103.66717529296876 89.14787292480469 103.66717529296876 89.14787292480469 " />
        <polyline stroke="black" stroke-width="3" stroke-linecap="round" fill="transparent" stroke-linejoin="round" points="81.46783447265625 88.72900390625 92.35809326171876 87.0535888671875 103.66717529296876 85.79702758789063 116.23287963867188 84.54045104980469 141.3642578125 83.70272827148438 162.30706787109375 84.12159729003906 177.38592529296875 84.95930480957031 184.92529296875 84.95930480957031 187.8572998046875 84.12159729003906 187.8572998046875 84.12159729003906 " />
        <polyline stroke="black" stroke-width="3" stroke-linecap="round" fill="transparent" stroke-linejoin="round" points="66.80783081054688 142.34263610839844 98.64093017578124 137.31634521484375 110.78778076171876 136.05978393554688 145.9716796875 134.80320739746094 165.657958984375 135.2220458984375 179.48016357421875 134.38433837890625 179.48016357421875 134.38433837890625 " />
        <polyline stroke="black" stroke-width="3" stroke-linecap="round" fill="transparent" stroke-linejoin="round" points="123.35345458984376 117.21124267578124 119.583740234375 127.68264770507813 112.0443115234375 150.30088806152344 103.66717529296876 173.7568359375 98.2220458984375 187.5791015625 87.75067138671875 207.6842041015625 78.116943359375 224.8572998046875 78.116943359375 224.8572998046875 " />
        <polyline stroke="black" stroke-width="3" stroke-linecap="round" fill="transparent" stroke-linejoin="round" points="81.46783447265625 152.39517211914063 75.18499755859375 160.3534393310547 69.32098388671875 167.05514526367188 63.8758544921875 173.7568359375 59.2684326171875 178.36424255371094 59.2684326171875 178.36424255371094 " />
        <polyline stroke="black" stroke-width="3" stroke-linecap="round" fill="transparent" stroke-linejoin="round" points="74.76611328125 163.70428466796875 84.39984130859375 164.12313842773438 103.66717529296876 168.31170654296875 114.55746459960938 172.08140563964844 135.91912841796875 182.5528259277344 155.60540771484375 193.8619384765625 174.87274169921875 207.6842041015625 174.87274169921875 207.6842041015625 " />
        </svg>