<?xml version="1.0" standalone="no"?>
    <svg width="256" height="256" xmlns="http://www.w3.org/2000/svg" version="1.1">
    <polyline stroke="black" stroke-width="3" stroke-linecap="round" fill="transparent" stroke-linejoin="round" points="130.79257202148438 54.81361389160156 130.37289428710938 58.59062194824219 126.17623901367188 68.66261291503906 122.39926147460938 74.53794860839844 111.90756225585938 84.60993957519531 98.05859375 93.00326538085938 86.72760009765625 98.45895385742188 82.11126708984375 99.71794128417967 74.97698974609375 100.97695922851563 74.13763427734375 100.97695922851563 75.39657592773438 100.13760375976563 86.30795288085938 97.61959838867188 95.54061889648438 95.52127075195313 118.20257568359376 90.90495300292967 150.51690673828125 84.60993957519531 165.20526123046875 82.09194946289063 170.660888671875 81.25260925292969 182.41156005859375 80.41326904296875 184.5098876953125 80.41326904296875 184.5098876953125 80.41326904296875 " />
        <polyline stroke="black" stroke-width="3" stroke-linecap="round" fill="transparent" stroke-linejoin="round" points="98.05859375 134.96994018554688 116.104248046875 133.29124450683594 132.89093017578125 131.6125946044922 147.15960693359375 129.93392944335938 153.45458984375 129.09458923339844 166.0445556640625 125.73724365234376 170.2412109375 122.79959106445313 171.919921875 120.28160095214844 171.919921875 120.28160095214844 " />
        <polyline stroke="black" stroke-width="3" stroke-linecap="round" fill="transparent" stroke-linejoin="round" points="139.18588256835938 115.24559020996094 134.9892578125 124.47825622558594 130.79257202148438 133.71092224121094 126.17623901367188 143.36325073242188 116.104248046875 166.02523803710938 110.22894287109376 178.615234375 100.57659912109376 198.75921630859375 91.76361083984376 214.28689575195313 85.04891967773438 224.35888671875 81.27194213867188 228.5555419921875 80.012939453125 229.3948974609375 80.012939453125 229.3948974609375 " />
        <polyline stroke="black" stroke-width="3" stroke-linecap="round" fill="transparent" stroke-linejoin="round" points="95.12094116210938 171.48089599609375 111.90756225585938 181.5529022216797 129.11395263671875 192.8839111328125 144.64157104492188 203.37554931640625 158.4906005859375 212.60821533203125 169.821533203125 220.1622314453125 175.2772216796875 223.09988403320313 175.2772216796875 223.09988403320313 " />
        <polyline stroke="black" stroke-width="3" stroke-linecap="round" fill="transparent" stroke-linejoin="round" points="96.799560546875 168.12356567382813 89.665283203125 173.5792236328125 82.11126708984375 179.87423706054688 77.49496459960938 183.65122985839844 77.49496459960938 183.65122985839844 " />
        </svg>