<?xml version="1.0" standalone="no"?>
    <svg width="256" height="256" xmlns="http://www.w3.org/2000/svg" version="1.1">
    <polyline stroke="black" stroke-width="3" stroke-linecap="round" fill="transparent" stroke-linejoin="round" points="121.26229858398438 39.305625915527344 118.17047119140624 44.60588836669922 113.31185913085938 50.78953552246094 75.32662963867188 82.14945983886719 67.81793212890625 85.68296813964844 59.42584228515625 89.65817260742188 54.567230224609375 91.4249267578125 52.35882568359375 91.86660766601563 51.917083740234375 91.86660766601563 54.125579833984375 91.86660766601563 65.60946655273438 90.5415496826172 87.252197265625 86.12466430664063 111.98681640625 80.82438659667969 136.27972412109375 75.08242797851563 156.597412109375 70.66554260253906 173.381591796875 67.13203430175781 183.98211669921875 64.923583984375 188.8406982421875 64.48190307617188 189.72406005859375 64.48190307617188 189.72406005859375 64.48190307617188 " />
        <polyline stroke="black" stroke-width="3" stroke-linecap="round" fill="transparent" stroke-linejoin="round" points="63.40106201171875 136.4772186279297 80.62689208984375 131.61862182617188 103.5947265625 125.43498229980467 124.35409545898438 119.2513427734375 134.07125854492188 117.04289245605467 149.9720458984375 113.06768798828124 167.19793701171875 109.9758758544922 173.8232421875 109.09249877929688 177.7984619140625 108.2091064453125 177.7984619140625 108.2091064453125 " />
        <polyline stroke="black" stroke-width="3" stroke-linecap="round" fill="transparent" stroke-linejoin="round" points="138.92987060546875 117.48458862304688 130.97943115234375 130.7352294921875 102.2696533203125 177.99595642089844 96.52767944335938 186.3880615234375 86.36883544921875 202.28887939453125 78.41845703125 214.6561584472656 78.41845703125 214.6561584472656 " />
        <polyline stroke="black" stroke-width="3" stroke-linecap="round" fill="transparent" stroke-linejoin="round" points="78.86016845703125 157.6782684326172 72.23480224609375 166.0703582763672 55.892303466796875 186.82974243164065 51.917083740234375 190.804931640625 51.917083740234375 190.804931640625 " />
        <polyline stroke="black" stroke-width="3" stroke-linecap="round" fill="transparent" stroke-linejoin="round" points="62.075927734375 157.6782684326172 71.79315185546875 159.88671875 82.83538818359375 162.97854614257813 95.644287109375 167.3954315185547 134.95465087890625 184.17962646484375 157.9224853515625 195.22183227539065 176.473388671875 204.497314453125 183.5404052734375 208.47250366210935 198.11614990234375 215.98123168945313 198.11614990234375 215.98123168945313 " />
        </svg>