<?xml version="1.0" standalone="no"?>
    <svg width="256" height="256" xmlns="http://www.w3.org/2000/svg" version="1.1">
    <polyline stroke="black" stroke-width="3" stroke-linecap="round" fill="transparent" stroke-linejoin="round" points="124.30255126953124 45.865745544433594 128.27313232421875 67.33403015136719 127.99853515625 72.30439758300781 125.08172607421876 78.47349548339844 123.37033081054688 79.94287109375 121.70748901367188 80.93495178222656 118.67523193359376 81.76141357421875 118.05599975585938 81.77461242675781 " />
        <polyline stroke="black" stroke-width="3" stroke-linecap="round" fill="transparent" stroke-linejoin="round" points="95.8856201171875 88.80459594726563 116.48187255859376 82.708740234375 127.63778686523438 79.44039916992188 147.8436279296875 73.44352722167969 157.87054443359375 71.14675903320313 177.52587890625 68.71598815917969 185.1004638671875 68.1383056640625 192.0460205078125 68.38735961914063 193.18505859375 68.22216796875 193.20343017578125 68.21951293945313 193.30780029296875 66.10163879394531 193.05926513671875 64.97248840332031 " />
        <polyline stroke="black" stroke-width="3" stroke-linecap="round" fill="transparent" stroke-linejoin="round" points="99.35174560546876 127.96946716308594 108.44927978515624 126.06655883789063 127.17282104492188 124.61056518554688 135.644775390625 125.09078979492188 151.4468994140625 125.37173461914063 164.224365234375 124.42874145507813 169.85986328125 122.78524780273438 176.79046630859375 119.18124389648438 179.142333984375 117.51763916015624 181.469970703125 115.3059539794922 181.9468994140625 114.61875915527344 182.3470458984375 114.03684997558594 182.41302490234375 113.9407958984375 " />
        <polyline stroke="black" stroke-width="3" stroke-linecap="round" fill="transparent" stroke-linejoin="round" points="127.24462890625 117.5474090576172 125.23031616210938 132.08035278320313 117.99520874023438 166.1309814453125 114.0106201171875 181.03598022460935 104.203369140625 206.52127075195313 94.34698486328124 226.02093505859375 89.7232666015625 233.05712890625 86.00082397460938 237.76824951171875 79.88629150390625 240.9618225097656 75.65283203125 239.76141357421875 75.74847412109375 238.05789184570313 " />
        <polyline stroke="black" stroke-width="3" stroke-linecap="round" fill="transparent" stroke-linejoin="round" points="90.6834716796875 160.23135375976563 86.006103515625 176.2275848388672 82.93600463867188 183.432373046875 77.28390502929688 193.07977294921875 74.722412109375 196.4552001953125 74.167724609375 198.35101318359375 74.0980224609375 198.58917236328125 " />
        <polyline stroke="black" stroke-width="3" stroke-linecap="round" fill="transparent" stroke-linejoin="round" points="83.32415771484375 173.3689422607422 89.8497314453125 180.00302124023438 96.61865234375 186.3502197265625 112.95086669921876 199.80471801757813 121.73553466796876 206.7032165527344 139.99923706054688 219.11834716796875 147.59030151367188 223.141845703125 160.305419921875 227.76287841796875 166.01837158203125 229.45068359375 173.265625 230.056640625 175.12579345703125 230.00836181640625 175.243896484375 230.0052795410156 " />
        </svg>