<?xml version="1.0" standalone="no"?>
    <svg width="256" height="256" xmlns="http://www.w3.org/2000/svg" version="1.1">
    <polyline stroke="black" stroke-width="3" stroke-linecap="round" fill="transparent" stroke-linejoin="round" points="127.61993408203124 69.5628662109375 126.05142211914063 73.87640380859375 126.05142211914063 73.87640380859375 " />
        <polyline stroke="black" stroke-width="3" stroke-linecap="round" fill="transparent" stroke-linejoin="round" points="75.46524047851563 94.6598663330078 105.66006469726563 83.679931640625 132.71780395507813 75.83711242675781 151.54052734375 71.5235595703125 163.6968994140625 68.38644409179688 163.6968994140625 68.38644409179688 " />
        <polyline stroke="black" stroke-width="3" stroke-linecap="round" fill="transparent" stroke-linejoin="round" points="87.22946166992188 147.99102783203125 107.62075805664063 138.57965087890625 122.91424560546876 132.69752502441406 138.20773315429688 126.03114318847656 138.20773315429688 126.03114318847656 " />
        <polyline stroke="black" stroke-width="3" stroke-linecap="round" fill="transparent" stroke-linejoin="round" points="113.5029296875 122.89401245117188 105.66006469726563 154.6574249267578 97.8172607421875 184.46011352539065 87.62161254882813 207.59646606445313 77.42593383789063 223.6742248535156 64.48526000976563 236.6148376464844 49.976104736328125 243.28128051757813 49.976104736328125 243.28128051757813 " />
        <polyline stroke="black" stroke-width="3" stroke-linecap="round" fill="transparent" stroke-linejoin="round" points="69.9752197265625 194.65579223632813 60.1717529296875 202.49859619140625 60.1717529296875 202.49859619140625 " />
        <polyline stroke="black" stroke-width="3" stroke-linecap="round" fill="transparent" stroke-linejoin="round" points="80.9552001953125 190.34225463867188 115.07144165039063 201.3221740722656 147.22695922851563 209.9493103027344 171.931884765625 213.47857666015625 192.71533203125 213.8706970214844 210.7537841796875 211.51785278320313 217.028076171875 210.73358154296875 217.028076171875 210.73358154296875 " />
        </svg>