<?xml version="1.0" standalone="no"?>
    <svg width="256" height="256" xmlns="http://www.w3.org/2000/svg" version="1.1">
    <polyline stroke="black" stroke-width="3" stroke-linecap="round" fill="transparent" stroke-linejoin="round" points="122 48 122 46 122 45 122 44 122 45 122 48 122 53 122 59 122 62 122 65 122 65 " />
        <polyline stroke="black" stroke-width="3" stroke-linecap="round" fill="transparent" stroke-linejoin="round" points="94 77 100 77 108 75 119 73 132 73 143 72 146 71 156 69 159 69 170 68 177 68 179 68 179 68 " />
        <polyline stroke="black" stroke-width="3" stroke-linecap="round" fill="transparent" stroke-linejoin="round" points="106 106 104 107 102 108 102 109 107 108 118 106 132 104 148 102 162 100 173 99 179 99 180 99 180 99 " />
        <polyline stroke="black" stroke-width="3" stroke-linecap="round" fill="transparent" stroke-linejoin="round" points="141 87 141 86 141 88 141 89 141 93 141 95 140 105 136 118 129 136 117 156 102 176 87 193 76 203 66 208 63 209 63 209 " />
        <polyline stroke="black" stroke-width="3" stroke-linecap="round" fill="transparent" stroke-linejoin="round" points="109 132 105 138 100 143 90 153 84 158 83 158 81 160 81 160 " />
        <polyline stroke="black" stroke-width="3" stroke-linecap="round" fill="transparent" stroke-linejoin="round" points="94 140 94 141 95 142 96 142 97 144 98 147 100 150 101 153 103 158 107 165 116 173 130 180 150 186 172 191 194 196 210 199 210 199 " />
        </svg>