<?xml version="1.0" standalone="no"?>
    <svg width="256" height="256" xmlns="http://www.w3.org/2000/svg" version="1.1">
    <polyline stroke="black" stroke-width="3" stroke-linecap="round" fill="transparent" stroke-linejoin="round" points="70.34603881835938 92.99697875976563 74.69442749023438 99.51951599121094 78.07650756835938 103.86793518066406 82.18328857421875 107.49156188964844 86.53167724609375 110.63206481933594 86.53167724609375 110.63206481933594 " />
        <polyline stroke="black" stroke-width="3" stroke-linecap="round" fill="transparent" stroke-linejoin="round" points="101.50942993164063 84.78335571289063 96.43634033203124 93.238525390625 93.53741455078124 99.03636169433594 93.53741455078124 99.03636169433594 " />
        <polyline stroke="black" stroke-width="3" stroke-linecap="round" fill="transparent" stroke-linejoin="round" points="72.76181030273438 125.36825561523438 79.284423828125 121.50302124023438 88.22274780273438 117.15463256835938 95.22842407226563 113.28941345214844 101.26788330078124 111.11521911621094 109.96463012695313 108.21632385253906 113.10513305664063 107.00840759277344 114.31301879882813 106.04212951660156 114.31301879882813 106.04212951660156 " />
        <polyline stroke="black" stroke-width="3" stroke-linecap="round" fill="transparent" stroke-linejoin="round" points="91.60479736328124 68.11454772949219 91.60479736328124 73.91239929199219 91.60479736328124 80.91812133789063 93.05426025390624 99.76112365722656 94.26211547851563 133.0987091064453 94.26211547851563 156.2900848388672 94.02056884765624 177.79042053222656 93.29583740234376 195.18392944335935 92.81268310546876 208.2290954589844 92.08795166015624 216.20114135742188 91.84634399414063 218.61688232421875 91.60479736328124 219.10006713867188 91.12167358398438 219.34161376953125 91.12167358398438 219.34161376953125 " />
        <polyline stroke="black" stroke-width="3" stroke-linecap="round" fill="transparent" stroke-linejoin="round" points="79.76751708984375 144.93597412109375 77.83489990234375 150.73382568359375 74.69442749023438 162.08792114257813 67.20553588867188 172.71731567382813 61.166107177734375 178.99830627441406 58.267181396484375 183.829833984375 56.092987060546875 187.2119140625 54.401947021484375 188.9029541015625 53.9188232421875 189.8692626953125 53.9188232421875 189.8692626953125 " />
        <polyline stroke="black" stroke-width="3" stroke-linecap="round" fill="transparent" stroke-linejoin="round" points="115.27932739257813 167.4026336669922 118.17825317382813 168.61050415039063 120.3524169921875 169.57679748535156 123.492919921875 171.26783752441406 125.1839599609375 171.99258422851563 125.42556762695313 172.23414611816406 125.42556762695313 172.23414611816406 " />
        <polyline stroke="black" stroke-width="3" stroke-linecap="round" fill="transparent" stroke-linejoin="round" points="152.482177734375 72.70451354980469 159.00469970703125 79.22708129882813 163.59466552734375 85.02493286132813 163.59466552734375 85.02493286132813 " />
        <polyline stroke="black" stroke-width="3" stroke-linecap="round" fill="transparent" stroke-linejoin="round" points="182.92083740234375 63.04142761230469 180.50506591796875 68.11454772949219 173.49932861328125 80.43496704101563 166.2520751953125 90.5811767578125 159.72943115234375 100.48585510253906 151.03271484375 108.94102478027344 144.26849365234375 117.87937927246094 138.953857421875 127.05929565429688 135.088623046875 131.40768432617188 135.088623046875 131.40768432617188 " />
        <polyline stroke="black" stroke-width="3" stroke-linecap="round" fill="transparent" stroke-linejoin="round" points="137.7459716796875 110.39048767089844 143.5438232421875 114.98045349121094 150.549560546875 120.29515075683594 163.59466552734375 128.9918975830078 173.9825439453125 137.6886749267578 188.71868896484375 144.45281982421875 195.72442626953125 145.66070556640625 201.2806396484375 145.66070556640625 203.454833984375 145.4191436767578 203.454833984375 145.4191436767578 " />
        <polyline stroke="black" stroke-width="3" stroke-linecap="round" fill="transparent" stroke-linejoin="round" points="144.26849365234375 190.593994140625 145.23486328125 198.32443237304688 147.4090576171875 206.77963256835935 149.10009765625 212.57748413085935 149.583251953125 215.23483276367188 149.583251953125 215.23483276367188 " />
        <polyline stroke="black" stroke-width="3" stroke-linecap="round" fill="transparent" stroke-linejoin="round" points="165.2857666015625 139.62127685546875 168.42620849609375 138.41339111328125 171.56671142578125 137.93023681640625 182.43768310546875 137.93023681640625 191.61761474609375 142.2786407470703 200.79754638671875 148.07647705078125 205.387451171875 153.6327362060547 208.5279541015625 162.08792114257813 209.0111083984375 176.58253479003906 208.76953125 181.89724731445313 204.1795654296875 198.8076171875 196.44915771484375 210.1617126464844 196.44915771484375 210.1617126464844 " />
        <polyline stroke="black" stroke-width="3" stroke-linecap="round" fill="transparent" stroke-linejoin="round" points="170.60040283203125 167.88577270507813 170.84197998046875 173.20045471191406 171.56671142578125 185.762451171875 170.35882568359375 200.25704956054688 169.39251708984375 205.81332397460935 168.42620849609375 207.50436401367188 168.42620849609375 207.50436401367188 " />
        <polyline stroke="black" stroke-width="3" stroke-linecap="round" fill="transparent" stroke-linejoin="round" points="168.66778564453125 171.26783752441406 172.04986572265625 171.50941467285156 179.53875732421875 172.95887756347656 184.12872314453125 174.40835571289063 186.06134033203125 176.09938049316406 186.06134033203125 176.09938049316406 " />
        <polyline stroke="black" stroke-width="3" stroke-linecap="round" fill="transparent" stroke-linejoin="round" points="177.60614013671875 210.88644409179688 182.92083740234375 211.36962890625 186.54449462890625 211.36962890625 189.68499755859375 211.61117553710935 192.34228515625 211.61117553710935 192.34228515625 211.61117553710935 " />
        </svg>