<?xml version="1.0" standalone="no"?>
    <svg width="256" height="256" xmlns="http://www.w3.org/2000/svg" version="1.1">
    <polyline stroke="black" stroke-width="3" stroke-linecap="round" fill="transparent" stroke-linejoin="round" points="55.788818359375 89.92298889160156 57.079559326171875 98.95811462402344 62.24249267578125 104.7664031982422 62.24249267578125 104.7664031982422 " />
        <polyline stroke="black" stroke-width="3" stroke-linecap="round" fill="transparent" stroke-linejoin="round" points="129.36056518554688 63.46296691894531 115.807861328125 83.46931457519531 96.4468994140625 109.92933654785156 81.60345458984375 127.35421752929688 69.34152221679688 139.6161651611328 62.24249267578125 146.06982421875 57.72491455078125 149.94203186035156 57.72491455078125 150.58738708496094 62.24249267578125 148.0059356689453 71.9229736328125 142.84300231933594 86.12103271484375 134.4532470703125 100.319091796875 126.70884704589844 114.51715087890624 117.02835083007813 124.1976318359375 104.12103271484376 124.1976318359375 104.12103271484376 " />
        <polyline stroke="black" stroke-width="3" stroke-linecap="round" fill="transparent" stroke-linejoin="round" points="77.08590698242188 87.34152221679688 73.21371459960938 127.35421752929688 69.34152221679688 160.9132537841797 66.11468505859375 199.63522338867188 64.1785888671875 213.83328247070313 64.1785888671875 221.57766723632813 64.1785888671875 224.80450439453125 64.1785888671875 220.93228149414065 64.1785888671875 220.93228149414065 " />
        <polyline stroke="black" stroke-width="3" stroke-linecap="round" fill="transparent" stroke-linejoin="round" points="56.4342041015625 164.7854461669922 53.207366943359375 174.4659423828125 51.9166259765625 180.27423095703125 51.9166259765625 184.14642333984375 53.207366943359375 184.14642333984375 56.4342041015625 180.27423095703125 63.533203125 175.7566680908203 73.21371459960938 172.52984619140625 86.12103271484375 172.52984619140625 99.6737060546875 176.40203857421875 114.51715087890624 183.5010681152344 123.55224609375 187.37326049804688 133.23275756835938 185.43716430664065 133.23275756835938 185.43716430664065 " />
        <polyline stroke="black" stroke-width="3" stroke-linecap="round" fill="transparent" stroke-linejoin="round" points="160.9835205078125 102.1849365234375 160.9835205078125 102.1849365234375 " />
        <polyline stroke="black" stroke-width="3" stroke-linecap="round" fill="transparent" stroke-linejoin="round" points="202.28692626953125 53.78248596191406 193.2518310546875 73.14346313476563 177.7630615234375 104.7664031982422 165.5010986328125 124.7727508544922 150.65765380859375 143.48837280273438 139.6864013671875 155.7503204345703 139.6864013671875 155.7503204345703 " />
        <polyline stroke="black" stroke-width="3" stroke-linecap="round" fill="transparent" stroke-linejoin="round" points="139.6864013671875 118.319091796875 160.338134765625 118.319091796875 182.9259033203125 119.6098175048828 200.9962158203125 122.1912841796875 216.4849853515625 125.41812133789063 226.16546630859375 130.58103942871094 226.16546630859375 130.58103942871094 " />
        <polyline stroke="black" stroke-width="3" stroke-linecap="round" fill="transparent" stroke-linejoin="round" points="146.14007568359375 177.0474090576172 142.91326904296875 190.60009765625 139.6864013671875 204.79815673828125 137.10494995117188 218.350830078125 134.52349853515625 227.38595581054688 134.52349853515625 227.38595581054688 " />
        <polyline stroke="black" stroke-width="3" stroke-linecap="round" fill="transparent" stroke-linejoin="round" points="167.4371337890625 151.23275756835938 178.40838623046875 148.0059356689453 191.9610595703125 145.42446899414063 202.9322509765625 146.06982421875 210.03131103515625 150.58738708496094 215.1942138671875 163.49472045898438 216.4849853515625 184.14642333984375 210.67669677734375 205.44351196289065 200.9962158203125 224.15911865234375 192.6064453125 233.83963012695313 182.9259033203125 237.7118225097656 175.826904296875 234.4849853515625 166.14642333984375 223.5137634277344 160.9835205078125 215.76937866210935 158.40203857421875 209.9610595703125 158.40203857421875 205.44351196289065 161.62884521484375 202.2166748046875 167.4371337890625 198.9898376464844 174.53619384765625 195.76303100585935 184.862060546875 189.9547119140625 195.833251953125 180.27423095703125 201.6416015625 173.17520141601563 204.2230224609375 167.36691284179688 201.6416015625 162.2039794921875 196.4786376953125 160.26788330078125 192.6064453125 160.26788330078125 188.7342529296875 162.2039794921875 184.862060546875 167.36691284179688 178.40838623046875 179.6288604736328 171.9547119140625 195.11764526367188 166.79180908203125 208.02496337890625 161.62884521484375 215.76937866210935 155.820556640625 222.2230224609375 149.36691284179688 227.38595581054688 144.2039794921875 230.61279296875 142.26788330078125 231.90350341796875 144.2039794921875 230.61279296875 150.65765380859375 228.67669677734375 164.2103271484375 226.09521484375 180.344482421875 222.868408203125 196.4786376953125 220.28692626953125 196.4786376953125 220.28692626953125 " />
        </svg>