<?xml version="1.0" standalone="no"?>
    <svg width="256" height="256" xmlns="http://www.w3.org/2000/svg" version="1.1">
    <polyline stroke="black" stroke-width="3" stroke-linecap="round" fill="transparent" stroke-linejoin="round" points="65.99252319335938 71.517822265625 71.13449096679688 77.17398071289063 78.333251953125 82.83015441894531 89.13140869140625 84.37274169921875 89.13140869140625 84.37274169921875 " />
        <polyline stroke="black" stroke-width="3" stroke-linecap="round" fill="transparent" stroke-linejoin="round" points="128.21038818359375 58.66288757324219 117.92645263671876 75.11720275878906 96.33013916015624 110.08261108398438 85.017822265625 127.05111694335938 75.248046875 137.84925842285156 69.07769775390625 144.01962280273438 65.99252319335938 146.59060668945313 67.53509521484375 144.53382873535156 73.1912841796875 139.391845703125 87.0745849609375 130.1363067626953 106.09991455078124 118.3097686767578 120.4974365234375 108.02581787109376 134.89495849609375 94.14250183105467 134.89495849609375 94.14250183105467 " />
        <polyline stroke="black" stroke-width="3" stroke-linecap="round" fill="transparent" stroke-linejoin="round" points="97.35855102539063 58.148681640625 95.81597900390624 72.03201293945313 96.33013916015624 106.99742126464844 98.901123046875 136.30667114257813 99.92953491210938 158.41714477539063 99.92953491210938 174.8714599609375 99.41534423828124 187.72637939453125 98.386962890625 192.35415649414065 98.386962890625 192.35415649414065 98.386962890625 186.18380737304688 100.4437255859375 159.95974731445313 100.4437255859375 159.95974731445313 " />
        <polyline stroke="black" stroke-width="3" stroke-linecap="round" fill="transparent" stroke-linejoin="round" points="87.58880615234375 119.33816528320313 69.5919189453125 150.1899871826172 62.9073486328125 162.53073120117188 58.279571533203125 172.81466674804688 55.194366455078125 177.95664978027344 55.194366455078125 177.95664978027344 55.194366455078125 177.95664978027344 " />
        <polyline stroke="black" stroke-width="3" stroke-linecap="round" fill="transparent" stroke-linejoin="round" points="117.92645263671876 126.53692626953124 127.1820068359375 130.1363067626953 135.92333984375 133.73568725585938 147.7498779296875 131.67889404296875 147.7498779296875 131.67889404296875 " />
        <polyline stroke="black" stroke-width="3" stroke-linecap="round" fill="transparent" stroke-linejoin="round" points="183.74365234375 62.26226806640625 175.51654052734375 76.14558410644531 166.260986328125 90.54312133789063 157.00543212890625 102.88385009765624 148.77825927734375 110.08261108398438 141.57952880859375 113.16778564453124 141.57952880859375 113.16778564453124 " />
        <polyline stroke="black" stroke-width="3" stroke-linecap="round" fill="transparent" stroke-linejoin="round" points="147.7498779296875 67.40423583984375 154.9486083984375 74.60299682617188 166.260986328125 83.85855102539063 178.6016845703125 94.14250183105467 190.94244384765625 103.39804077148438 199.683837890625 110.5968017578125 205.8541259765625 115.22457885742188 205.8541259765625 115.22457885742188 " />
        <polyline stroke="black" stroke-width="3" stroke-linecap="round" fill="transparent" stroke-linejoin="round" points="169.34619140625 39.123390197753906 175.0023193359375 47.350547790527344 175.0023193359375 47.350547790527344 " />
        <polyline stroke="black" stroke-width="3" stroke-linecap="round" fill="transparent" stroke-linejoin="round" points="152.377685546875 151.2183837890625 149.29248046875 175.8998565673828 148.77825927734375 192.35415649414065 149.29248046875 204.69488525390625 149.29248046875 211.37945556640625 149.29248046875 212.40786743164065 149.29248046875 208.8084716796875 149.29248046875 208.8084716796875 " />
        <polyline stroke="black" stroke-width="3" stroke-linecap="round" fill="transparent" stroke-linejoin="round" points="154.4344482421875 152.2467803955078 162.66162109375 142.47703552246094 172.945556640625 134.2498779296875 185.80047607421875 128.0795135498047 197.62701416015625 125.50852966308594 206.882568359375 126.53692626953124 212.5386962890625 130.1363067626953 216.65234375 139.9060516357422 217.16650390625 158.41714477539063 212.0245361328125 176.41404724121094 203.79736328125 191.8399658203125 203.79736328125 191.8399658203125 " />
        <polyline stroke="black" stroke-width="3" stroke-linecap="round" fill="transparent" stroke-linejoin="round" points="147.7498779296875 167.67269897460938 154.4344482421875 160.47393798828125 165.23260498046875 153.78936767578125 177.05914306640625 148.64739990234375 188.8856201171875 145.0480194091797 200.712158203125 143.50543212890625 200.712158203125 143.50543212890625 " />
        <polyline stroke="black" stroke-width="3" stroke-linecap="round" fill="transparent" stroke-linejoin="round" points="173.459716796875 158.41714477539063 170.37457275390625 170.24368286132813 165.23260498046875 192.86837768554688 159.576416015625 205.2091064453125 153.92022705078125 211.8936462402344 148.77825927734375 216.0072326660156 144.6646728515625 217.03564453125 142.60791015625 216.0072326660156 145.17889404296875 213.43624877929688 150.8350830078125 211.37945556640625 162.66162109375 207.78009033203125 175.51654052734375 205.72329711914065 185.80047607421875 205.72329711914065 185.80047607421875 205.72329711914065 " />
        </svg>