<?xml version="1.0" standalone="no"?>
    <svg width="256" height="256" xmlns="http://www.w3.org/2000/svg" version="1.1">
    <polyline stroke="black" stroke-width="3" stroke-linecap="round" fill="transparent" stroke-linejoin="round" points="63.239349365234375 75.51077270507813 66.08392333984375 98.26725769042967 67.30303955078125 109.23912048339844 70.1475830078125 131.99563598632813 71.36666870117188 142.15475463867188 73.39852905273438 166.53671264648438 73.80487060546875 178.7276611328125 74.21124267578125 187.2613525390625 74.21124267578125 187.2613525390625 " />
        <polyline stroke="black" stroke-width="3" stroke-linecap="round" fill="transparent" stroke-linejoin="round" points="83.96405029296875 67.78982543945313 89.65313720703125 64.53889465332031 95.74862670898438 61.2879638671875 108.7523193359375 55.19248962402344 123.787841796875 50.72245788574219 138.82342529296875 49.09700012207031 145.32525634765625 49.09700012207031 156.7034912109375 51.12882995605469 165.2371826171875 56.005218505859375 173.7708740234375 69.415283203125 182.3045654296875 96.23542785644533 185.96185302734375 126.30648803710938 186.7745361328125 155.97119140625 187.180908203125 179.5404052734375 187.180908203125 194.16958618164065 186.7745361328125 204.3287353515625 186.3681640625 207.98602294921875 186.3681640625 207.98602294921875 " />
        <polyline stroke="black" stroke-width="3" stroke-linecap="round" fill="transparent" stroke-linejoin="round" points="109.5650634765625 100.7054443359375 118.91146850585938 96.23542785644533 128.66424560546875 93.390869140625 137.19793701171875 92.17176818847656 140.04248046875 92.17176818847656 142.480712890625 92.578125 144.91888427734375 93.390869140625 146.54437255859375 96.6417999267578 146.95068359375 103.95639038085938 144.91888427734375 113.70916748046876 138.4169921875 128.33834838867188 133.54061889648438 135.24655151367188 133.54061889648438 135.24655151367188 " />
        <polyline stroke="black" stroke-width="3" stroke-linecap="round" fill="transparent" stroke-linejoin="round" points="118.91146850585938 134.43382263183594 124.19427490234376 134.84017944335938 129.88336181640625 135.65292358398438 141.2615966796875 138.49746704101563 150.60800170898438 141.74839782714844 158.3289794921875 144.9993133544922 160.7672119140625 147.03115844726563 160.7672119140625 147.03115844726563 " />
        <polyline stroke="black" stroke-width="3" stroke-linecap="round" fill="transparent" stroke-linejoin="round" points="95.74862670898438 190.10592651367188 104.28231811523438 188.0740966796875 114.03509521484376 186.04226684570313 124.19427490234376 184.41680908203125 143.29342651367188 183.19769287109375 161.57989501953125 183.19769287109375 182.3045654296875 182.79132080078125 193.2763671875 182.79132080078125 193.2763671875 182.79132080078125 " />
        </svg>