<?xml version="1.0" standalone="no"?>
    <svg width="256" height="256" xmlns="http://www.w3.org/2000/svg" version="1.1">
    <polyline stroke="black" stroke-width="3" stroke-linecap="round" fill="transparent" stroke-linejoin="round" points="72 110 73 116 74 122 76 133.5 78.5 147.5 80.5 153.5 81 155.5 82 158 82 158 " />
        <polyline stroke="black" stroke-width="3" stroke-linecap="round" fill="transparent" stroke-linejoin="round" points="122.5 93 129 91.5 135.5 90.5 141 89.5 149 89 154 89 157.5 89.5 160.5 90 164.5 90.5 166.5 91.5 168 92.5 169 94 169 96 169 100.5 168.5 106 167.5 113 166.5 120 164 134 162.5 142.5 160.5 150.5 158.5 157 156 162 154.5 164 151 167 151 167 " />
        <polyline stroke="black" stroke-width="3" stroke-linecap="round" fill="transparent" stroke-linejoin="round" points="118 120.5 121 120 124 120 130 120 132.5 120.5 133 122 133 124 131.5 126.5 126.5 131 124 133 121 135.5 118 137.5 118 137.5 " />
        <polyline stroke="black" stroke-width="3" stroke-linecap="round" fill="transparent" stroke-linejoin="round" points="123.5 149.5 127 152.5 129.5 154.5 131 156 131.5 157.5 131 158 131 158 " />
        <polyline stroke="black" stroke-width="3" stroke-linecap="round" fill="transparent" stroke-linejoin="round" points="118.5 165.5 122.5 165.5 131 165 138 165 144.5 165 147 165 147 165 " />
        </svg>