<?xml version="1.0" standalone="no"?>
    <svg width="256" height="256" xmlns="http://www.w3.org/2000/svg" version="1.1">
    <polyline stroke="black" stroke-width="3" stroke-linecap="round" fill="transparent" stroke-linejoin="round" points="74.40106201171875 68.01541137695313 74.40106201171875 79.05763244628906 74.84271240234375 92.3083038330078 74.84271240234375 106.884033203125 74.84271240234375 120.576416015625 74.40106201171875 146.19436645507813 73.075927734375 164.30361938476563 70.42584228515625 174.90414428710938 68.65911865234375 178.87933349609375 65.56723022460938 182.8545379638672 65.56723022460938 182.8545379638672 " />
        <polyline stroke="black" stroke-width="3" stroke-linecap="round" fill="transparent" stroke-linejoin="round" points="85.00155639648438 33.121978759765625 90.74349975585938 30.913536071777344 96.92718505859376 29.14678192138672 110.6195068359375 26.054954528808594 127.84539794921876 25.61327362060547 145.512939453125 26.054954528808594 164.06390380859375 28.263412475585938 181.289794921875 31.796905517578125 194.5404052734375 37.53887176513672 202.4908447265625 44.164207458496094 210.8829345703125 60.50669860839844 216.6248779296875 87.44972229003906 217.06658935546875 119.2513427734375 213.9747314453125 150.6112518310547 208.67449951171875 175.3458251953125 200.28240966796875 195.66351318359375 194.98211669921875 204.93899536132813 194.98211669921875 204.93899536132813 " />
        <polyline stroke="black" stroke-width="3" stroke-linecap="round" fill="transparent" stroke-linejoin="round" points="124.75360107421876 76.40750122070313 129.61215209960938 74.19905090332031 134.470703125 71.99061584472656 139.77099609375 70.22384643554688 156.11346435546875 68.89878845214844 165.8306884765625 70.22384643554688 172.45599365234375 72.87399291992188 176.43115234375 76.84918212890625 179.52301025390625 85.68296813964844 177.3145751953125 101.58377075195313 165.8306884765625 121.01809692382813 149.92987060546875 138.68565368652344 149.92987060546875 138.68565368652344 " />
        <polyline stroke="black" stroke-width="3" stroke-linecap="round" fill="transparent" stroke-linejoin="round" points="117.6865234375 122.78483581542967 124.75360107421876 124.1099090576172 145.95465087890625 130.7352294921875 164.505615234375 141.33578491210938 169.3641357421875 146.19436645507813 169.3641357421875 146.19436645507813 " />
        <polyline stroke="black" stroke-width="3" stroke-linecap="round" fill="transparent" stroke-linejoin="round" points="101.78573608398438 185.9463806152344 108.852783203125 185.06298828125 118.12823486328124 185.06298828125 127.4036865234375 185.50469970703125 147.27972412109375 188.15481567382813 157.4385986328125 189.92156982421875 166.71405029296875 191.68832397460935 182.6148681640625 195.66351318359375 182.6148681640625 195.66351318359375 " />
        </svg>