<?xml version="1.0" standalone="no"?>
    <svg width="256" height="256" xmlns="http://www.w3.org/2000/svg" version="1.1">
    <polyline stroke="black" stroke-width="3" stroke-linecap="round" fill="transparent" stroke-linejoin="round" points="58.520965576171875 109.35491943359376 60.5057373046875 142.40354919433594 60.9449462890625 157.80215454101563 60.64141845703125 185.74920654296875 60.1534423828125 197.1719970703125 58.99041748046875 208.932373046875 58.79107666015625 212.23956298828125 58.789276123046875 212.2696533203125 58.789154052734375 212.271240234375 61.533782958984375 200.7459716796875 71.32308959960938 162.56097412109375 77.44515991210938 144.42169189453125 90.41622924804688 120.09124755859376 99.38311767578124 108.30545043945313 113.93182373046876 96.80624389648438 136.02035522460938 84.36590576171875 147.13522338867188 81.35476684570313 170.9566650390625 79.31756591796875 176.9730224609375 80.81446838378906 183.8441162109375 90.3498992919922 190.53338623046875 113.94474792480467 191.77069091796875 128.85806274414063 193.0640869140625 143.90997314453125 191.5244140625 164.41372680664063 186.926513671875 183.3953094482422 184.0882568359375 194.23046875 183.11346435546875 196.49624633789065 " />
        <polyline stroke="black" stroke-width="3" stroke-linecap="round" fill="transparent" stroke-linejoin="round" points="105.47286987304688 129.96124267578125 123.94915771484376 123.57456970214844 132.65048217773438 121.21818542480467 141.62652587890625 119.67062377929688 142.911376953125 120.1046142578125 142.91952514648438 120.10739135742188 142.25277709960938 122.94383239746094 132.151611328125 140.0751953125 119.26123046875 155.20030212402344 114.821533203125 160.87083435058594 108.3232421875 167.81597900390625 106.06536865234376 170.49215698242188 105.839599609375 170.759765625 " />
        <polyline stroke="black" stroke-width="3" stroke-linecap="round" fill="transparent" stroke-linejoin="round" points="123.717041015625 174.40806579589844 129.5438232421875 175.52593994140625 134.3638916015625 176.76072692871094 138.29571533203125 178.03823852539063 143.69671630859375 181.01336669921875 144.28155517578125 181.28302001953125 152.22509765625 183.5441741943359 153.997802734375 184.03369140625 " />
        <polyline stroke="black" stroke-width="3" stroke-linecap="round" fill="transparent" stroke-linejoin="round" points="82.09774780273438 214.890625 90.87506103515624 214.919921875 100.88665771484376 214.40631103515625 133.53106689453125 212.380615234375 149.21432495117188 211.34185791015625 180.36614990234375 211.06787109375 185.05218505859375 211.65310668945313 189.929443359375 213.1395263671875 190.120849609375 213.21588134765625 190.1400146484375 213.2235107421875 190.1414794921875 213.22412109375 " />
        </svg>