<?xml version="1.0" standalone="no"?>
    <svg width="256" height="256" xmlns="http://www.w3.org/2000/svg" version="1.1">
    <polyline stroke="black" stroke-width="3" stroke-linecap="round" fill="transparent" stroke-linejoin="round" points="74.49594116210938 98.09548950195313 71.13299560546875 126.68028259277344 68.10638427734375 154.25619506835938 66.088623046875 186.5401611328125 65.41607666015625 200.328125 65.41607666015625 200.328125 " />
        <polyline stroke="black" stroke-width="3" stroke-linecap="round" fill="transparent" stroke-linejoin="round" points="85.59356689453125 91.70594787597656 91.98309326171876 86.99786376953125 99.38153076171876 82.289794921875 129.98406982421875 67.82925415039063 161.595458984375 60.43084716796875 175.71966552734375 63.45745849609375 181.100341796875 67.15667724609375 197.9149169921875 96.75032043457033 203.29559326171875 124.32623291015624 203.29559326171875 150.89328002929688 201.950439453125 163.67234802246094 192.5343017578125 194.6112060546875 192.5343017578125 194.6112060546875 " />
        <polyline stroke="black" stroke-width="3" stroke-linecap="round" fill="transparent" stroke-linejoin="round" points="108.79766845703124 127.01657104492188 114.51461791992188 123.31736755371094 120.56787109375 119.95443725585938 132.33807373046875 115.5826416015625 142.09051513671875 114.5737762451172 148.81634521484375 116.59152221679688 150.83407592773438 118.27297973632813 154.5333251953125 130.04319763183594 153.5244140625 135.42385864257813 142.09051513671875 153.24729919433594 135.36468505859375 159.97312927246094 135.36468505859375 159.97312927246094 " />
        <polyline stroke="black" stroke-width="3" stroke-linecap="round" fill="transparent" stroke-linejoin="round" points="111.48800659179688 157.95538330078125 118.21380615234376 158.6279754638672 133.01068115234375 161.31829833984375 148.48007202148438 165.3538055419922 161.595458984375 170.06187438964844 161.595458984375 170.06187438964844 " />
        <polyline stroke="black" stroke-width="3" stroke-linecap="round" fill="transparent" stroke-linejoin="round" points="87.27499389648438 218.15158081054688 106.443603515625 212.77093505859375 143.43572998046875 206.04507446289065 182.7818603515625 202.34588623046875 182.7818603515625 202.34588623046875 " />
        </svg>