<?xml version="1.0" standalone="no"?>
    <svg width="256" height="256" xmlns="http://www.w3.org/2000/svg" version="1.1">
    <polyline stroke="black" stroke-width="3" stroke-linecap="round" fill="transparent" stroke-linejoin="round" points="79 89 79 97 79 106 79 133 79 148 80 174 82 192 85 202 87 204 88 204 88 204 " />
        <polyline stroke="black" stroke-width="3" stroke-linecap="round" fill="transparent" stroke-linejoin="round" points="87 80 118 77 147 72 158 70 182 67 199 67 210 70 218 85 220 109 221 135 221 156 220 173 215 187 211 198 206 206 203 206 203 206 " />
        <polyline stroke="black" stroke-width="3" stroke-linecap="round" fill="transparent" stroke-linejoin="round" points="121 108 128 108 146 103 164 99 174 98 185 98 188 98 189 100 189 104 183 115 173 128 163 142 155 152 155 152 " />
        <polyline stroke="black" stroke-width="3" stroke-linecap="round" fill="transparent" stroke-linejoin="round" points="130 142 140 146 152 151 165 158 174 163 174 163 " />
        <polyline stroke="black" stroke-width="3" stroke-linecap="round" fill="transparent" stroke-linejoin="round" points="82 212 87 212 102 212 123 211 134 211 168 211 188 210 205 210 205 210 " />
        </svg>