<?xml version="1.0" standalone="no"?>
    <svg width="256" height="256" xmlns="http://www.w3.org/2000/svg" version="1.1">
    <polyline stroke="black" stroke-width="3" stroke-linecap="round" fill="transparent" stroke-linejoin="round" points="128.55288696289063 39.20420837402344 112.38229370117188 48.44456481933594 78.06100463867188 68.5753173828125 75.75091552734375 70.55537414550781 71.790771484375 74.84553527832031 71.1307373046875 79.13569641113281 71.790771484375 87.38601684570313 75.4208984375 100.25651550292967 78.72103881835938 110.48687744140624 80.70111083984375 116.42709350585938 84.33123779296875 120.3872528076172 90.27145385742188 122.69734191894533 97.86175537109376 122.69734191894533 104.7919921875 119.397216796875 115.35238647460938 100.58650207519533 117.99252319335938 79.79573059082031 117.99252319335938 79.79573059082031 118.65252685546876 79.13569641113281 121.29263305664063 75.8355712890625 127.89291381835938 68.90533447265625 139.44329833984375 78.80569458007813 151.32373046875 91.34616088867188 162.54412841796875 103.2266082763672 170.13446044921875 112.13694763183594 173.4345703125 116.42709350585938 173.7646484375 118.4071807861328 173.7646484375 118.4071807861328 " />
        <polyline stroke="black" stroke-width="3" stroke-linecap="round" fill="transparent" stroke-linejoin="round" points="77.07095336914063 158.0086669921875 93.57156372070313 153.0584716796875 137.13323974609375 145.7982177734375 145.05349731445313 144.8081512451172 152.31378173828125 143.15809631347656 152.31378173828125 143.15809631347656 " />
        <polyline stroke="black" stroke-width="3" stroke-linecap="round" fill="transparent" stroke-linejoin="round" points="132.84304809570313 119.06721496582033 127.89291381835938 132.927734375 110.4022216796875 166.9189910888672 106.77206420898438 170.879150390625 92.58154296875 181.7695770263672 76.0809326171875 188.6997985839844 65.5205078125 191.99993896484375 61.560394287109375 192.3299560546875 60.900360107421875 192.3299560546875 66.840576171875 191.00991821289065 87.63134765625 189.02984619140625 113.37234497070313 186.05972290039065 142.74343872070313 183.41964721679688 170.13446044921875 183.089599609375 189.27520751953125 185.06967163085935 197.85546875 188.6997985839844 197.85546875 188.6997985839844 197.85546875 188.6997985839844 " />
        </svg>