<?xml version="1.0" standalone="no"?>
    <svg width="256" height="256" xmlns="http://www.w3.org/2000/svg" version="1.1">
    <polyline stroke="black" stroke-width="3" stroke-linecap="round" fill="transparent" stroke-linejoin="round" points="86 55 86 55 88 51 92 49 95 48 100 46 105 45 110 43 117 42 123 41 129 39 135 39 140 38 144 38 146 38 " />
        <polyline stroke="black" stroke-width="3" stroke-linecap="round" fill="transparent" stroke-linejoin="round" points="108 46 108 46 106 51 104 59 103 64 103 70 103 76 104 82 105 87 105 91 106 94 107 97 108 99 110 100 112 99 115 97 119 92 123 87 126 81 129 76 129 74 " />
        <polyline stroke="black" stroke-width="3" stroke-linecap="round" fill="transparent" stroke-linejoin="round" points="132 68 134 68 136 68 138 70 141 72 147 77 150 80 153 84 157 87 159 92 161 94 161 97 " />
        <polyline stroke="black" stroke-width="3" stroke-linecap="round" fill="transparent" stroke-linejoin="round" points="94 136 93 136 91 136 92 135 93 135 97 134 99 133 105 131 111 129 117 128 123 126 134 124 138 123 145 122 149 122 " />
        <polyline stroke="black" stroke-width="3" stroke-linecap="round" fill="transparent" stroke-linejoin="round" points="125 106 123 109 122 114 120 120 117 127 114 136 110 145 105 154 99 162 92 170 89 173 86 176 " />
        <polyline stroke="black" stroke-width="3" stroke-linecap="round" fill="transparent" stroke-linejoin="round" points="64 181 64 181 62 181 62 180 64 179 68 177 70 177 79 176 86 176 94 177 103 179 114 181 126 184 146 189 153 191 161 193 168 196 " />
        </svg>