<?xml version="1.0" standalone="no"?>
    <svg width="256" height="256" xmlns="http://www.w3.org/2000/svg" version="1.1">
    <polyline stroke="black" stroke-width="3" stroke-linecap="round" fill="transparent" stroke-linejoin="round" points="80 69 81 69 81 69 82 69 84 69 85 68 87 68 89 67 91 67 93 66 96 65 98 64 101 63 104 61 108 60 111 59 115 57 119 56 122 54 126 52 130 51 134 49 137 47 141 46 144 44 147 42 150 40 153 38 155 37 157 35 159 34 160 32 " />
        <polyline stroke="black" stroke-width="3" stroke-linecap="round" fill="transparent" stroke-linejoin="round" points="104 61 102 67 101 69 101 72 100 74 100 77 100 79 100 82 99 84 99 87 99 89 100 91 100 93 100 96 100 98 101 100 101 102 102 103 102 105 103 106 103 107 103 108 104 109 104 110 104 110 104 110 104 111 104 111 104 111 104 111 104 111 104 111 104 111 105 111 105 110 105 110 106 109 107 108 108 106 109 105 110 103 112 101 113 99 115 97 117 95 118 93 120 91 122 89 124 86 126 84 128 83 130 81 132 79 134 78 135 76 " />
        <polyline stroke="black" stroke-width="3" stroke-linecap="round" fill="transparent" stroke-linejoin="round" points="135 60 135 60 135 60 135 60 135 60 135 60 136 60 136 61 137 62 138 64 139 66 140 68 142 70 143 72 145 75 147 77 149 80 151 82 153 84 155 87 157 89 158 91 160 93 161 95 163 98 164 100 164 102 165 104 " />
        <polyline stroke="black" stroke-width="3" stroke-linecap="round" fill="transparent" stroke-linejoin="round" points="92 159 92 159 92 159 92 158 92 158 92 158 93 157 94 157 94 156 95 155 96 155 98 154 99 153 100 152 102 151 104 150 105 150 107 149 109 148 112 147 114 146 116 146 119 145 121 144 124 144 126 143 129 143 132 143 134 142 137 142 139 142 142 142 144 141 146 141 148 140 149 140 151 139 " />
        <polyline stroke="black" stroke-width="3" stroke-linecap="round" fill="transparent" stroke-linejoin="round" points="134 120 132 126 132 129 132 132 131 135 131 138 131 141 131 145 131 149 131 152 130 156 130 160 130 163 129 167 128 170 127 173 126 176 125 179 124 182 122 185 120 187 118 189 " />
        <polyline stroke="black" stroke-width="3" stroke-linecap="round" fill="transparent" stroke-linejoin="round" points="85 195 84 195 83 195 83 195 83 195 82 195 82 195 82 195 83 195 83 195 84 195 85 195 86 194 88 194 90 194 92 194 95 193 98 193 101 192 104 192 108 191 112 191 116 190 121 190 125 189 130 189 135 189 140 188 145 188 150 188 155 187 159 187 164 187 168 187 172 187 176 186 179 186 182 186 185 186 187 186 190 186 192 186 194 186 195 186 " />
        </svg>