<?xml version="1.0" standalone="no"?>
    <svg width="256" height="256" xmlns="http://www.w3.org/2000/svg" version="1.1">
    <polyline stroke="black" stroke-width="3" stroke-linecap="round" fill="transparent" stroke-linejoin="round" points="62.947967529296875 105.81658935546876 58.7593994140625 120.05772399902344 55.408538818359375 133.04226684570313 50.8011474609375 153.5662078857422 49.54461669921875 161.94334411621094 49.125732421875 167.80731201171875 49.125732421875 176.60330200195313 49.96343994140625 182.0484313964844 51.63885498046875 184.56158447265625 60.85369873046875 182.46728515625 78.44564819335938 173.25244140625 88.079345703125 167.3884735107422 116.56158447265624 149.79649353027344 135.82894897460938 138.48739624023438 153.0020751953125 127.1782684326172 168.0809326171875 117.12571716308594 175.201416015625 110.84288024902344 179.808837890625 106.654296875 182.322021484375 103.72233581542967 182.74090576171875 102.46574401855467 182.322021484375 102.046875 180.22772216796875 102.88461303710938 173.107177734375 106.654296875 160.9603271484375 112.09942626953124 142.94952392578125 117.54458618164063 126.19528198242188 118.38229370117188 112.7918701171875 115.03143310546876 107.76559448242188 112.09942626953124 99.80731201171876 102.046875 97.71307373046876 97.02061462402344 97.71307373046876 95.7640380859375 98.55075073242188 94.50747680664063 110.69760131835938 100.3714599609375 127.87069702148438 113.77488708496094 149.65121459960938 132.20452880859375 160.9603271484375 141.83824157714844 183.57861328125 159.43020629882813 212.47967529296875 184.56158447265625 220.8568115234375 193.3575439453125 220.8568115234375 193.3575439453125 " />
        </svg>