<?xml version="1.0" standalone="no"?>
    <svg width="256" height="256" xmlns="http://www.w3.org/2000/svg" version="1.1">
    <polyline stroke="black" stroke-width="3" stroke-linecap="round" fill="transparent" stroke-linejoin="round" points="144 89 144 90 141 95 133 107 125 116 120 122 120 122 " />
        <polyline stroke="black" stroke-width="3" stroke-linecap="round" fill="transparent" stroke-linejoin="round" points="77 118 77 119 77 122 77 126 77 138 77 148 77 163 77 175 77 184 76 185 76 192 76 195 76 200 76 202 76 204 77 202 80 197 87 187 92 179 93 176 94 174 94 174 " />
        <polyline stroke="black" stroke-width="3" stroke-linecap="round" fill="transparent" stroke-linejoin="round" points="84 117 83 116 86 120 87 122 88 124 103 139 124 156 152 173 182 185 188 188 194 190 200 192 200 192 " />
        </svg>