<?xml version="1.0" standalone="no"?>
    <svg width="256" height="256" xmlns="http://www.w3.org/2000/svg" version="1.1">
    <polyline stroke="black" stroke-width="3" stroke-linecap="round" fill="transparent" stroke-linejoin="round" points="49.21649169921875 65.56184387207031 50.440704345703125 75.9677734375 51.6649169921875 92.4948272705078 54.1134033203125 117.59147644042967 55.949737548828125 133.5064239501953 57.1739501953125 146.36080932617188 57.1739501953125 153.09405517578125 57.1739501953125 156.1546173095703 57.1739501953125 153.09405517578125 57.78607177734375 143.3002471923828 58.398193359375 126.16107177734376 60.234527587890625 113.91880798339844 62.07086181640625 106.5734405517578 65.7435302734375 99.2280731201172 72.476806640625 91.27059936523438 80.43426513671875 82.70101928710938 92.676513671875 73.51931762695313 101.85821533203124 68.62240600585938 107.9793701171875 66.78607177734375 112.26416015625 66.78607177734375 114.71261596679688 71.6829833984375 114.71261596679688 91.27059936523438 112.26416015625 118.20359802246094 104.9188232421875 143.912353515625 96.96133422851563 164.11209106445313 96.96133422851563 164.11209106445313 " />
        <polyline stroke="black" stroke-width="3" stroke-linecap="round" fill="transparent" stroke-linejoin="round" points="43.0953369140625 199.0025634765625 52.27703857421875 194.10565185546875 59.01031494140625 191.65719604492188 69.41622924804688 186.14816284179688 81.04638671875 178.8028106689453 93.9007568359375 168.3968963623047 105.53091430664063 158.6030731201172 114.71261596679688 151.8698272705078 114.71261596679688 151.8698272705078 " />
        <polyline stroke="black" stroke-width="3" stroke-linecap="round" fill="transparent" stroke-linejoin="round" points="139.80926513671875 120.03993225097656 153.88787841796875 109.63400268554688 163.069580078125 104.7371063232422 172.8634033203125 100.45230102539063 182.0450439453125 97.39173889160156 188.7783203125 96.16751098632813 193.67523193359375 98.0038604736328 193.67523193359375 98.0038604736328 " />
        <polyline stroke="black" stroke-width="3" stroke-linecap="round" fill="transparent" stroke-linejoin="round" points="112.87628173828124 205.73580932617188 130.6275634765625 200.22677612304688 144.7061767578125 197.16622924804688 160.62109375 194.10565185546875 175.31182861328125 192.26931762695313 188.7783203125 191.04507446289065 201.6326904296875 192.26931762695313 201.6326904296875 192.26931762695313 " />
        </svg>