<?xml version="1.0" standalone="no"?>
    <svg width="256" height="256" xmlns="http://www.w3.org/2000/svg" version="1.1">
    <polyline stroke="black" stroke-width="3" stroke-linecap="round" fill="transparent" stroke-linejoin="round" points="52.182830810546875 67.47029113769531 53.91510009765625 79.01889038085938 55.64739990234375 91.14491271972656 57.37969970703125 106.73551940917967 59.68939208984375 122.3261260986328 61.42169189453125 136.18443298339844 61.9991455078125 147.15560913085938 62.5765380859375 154.6621856689453 63.731414794921875 158.12677001953125 63.731414794921875 158.12677001953125 " />
        <polyline stroke="black" stroke-width="3" stroke-linecap="round" fill="transparent" stroke-linejoin="round" points="55.069976806640625 91.72235107421876 64.88629150390625 80.75117492675781 71.8154296875 74.97688293457031 79.89944458007813 69.78001403808594 87.98345947265625 65.73800659179688 96.6448974609375 62.850860595703125 102.41921997070313 61.69599914550781 106.46124267578124 62.850860595703125 108.77093505859376 66.3154296875 108.77093505859376 76.13174438476563 105.8837890625 94.03205871582033 102.41921997070313 115.39697265625 99.53204345703124 135.02957153320313 97.22235107421876 150.62017822265625 93.75775146484376 163.90106201171875 93.75775146484376 163.90106201171875 " />
        <polyline stroke="black" stroke-width="3" stroke-linecap="round" fill="transparent" stroke-linejoin="round" points="36.59222412109375 188.15310668945313 50.450531005859375 181.8013916015625 60.266845703125 177.18194580078125 73.5477294921875 169.6753692626953 86.82861328125 161.59133911132813 99.53204345703124 152.92990112304688 109.348388671875 145.42330932617188 117.432373046875 140.2264404296875 123.2066650390625 136.76187133789063 127.24868774414063 134.4521484375 127.24868774414063 134.4521484375 " />
        <polyline stroke="black" stroke-width="3" stroke-linecap="round" fill="transparent" stroke-linejoin="round" points="147.458740234375 99.80636596679688 156.12017822265625 95.18692016601563 163.62677001953125 93.4546356201172 172.2882080078125 92.29977416992188 180.94964599609375 91.14491271972656 189.03369140625 90.56748962402344 194.8079833984375 90.56748962402344 198.8499755859375 93.4546356201172 198.8499755859375 93.4546356201172 " />
        <polyline stroke="black" stroke-width="3" stroke-linecap="round" fill="transparent" stroke-linejoin="round" points="122.6292724609375 175.4496612548828 133.02301025390625 174.2947998046875 144.57159423828125 173.1399383544922 159.58477783203125 172.56251525878906 176.3302001953125 171.40765380859375 193.653076171875 170.83023071289063 206.9339599609375 170.25279235839844 215.595458984375 169.09793090820313 220.21484375 169.09793090820313 220.7923583984375 169.09793090820313 220.7923583984375 169.09793090820313 " />
        </svg>