<?xml version="1.0" standalone="no"?>
    <svg width="256" height="256" xmlns="http://www.w3.org/2000/svg" version="1.1">
    <polyline stroke="black" stroke-width="3" stroke-linecap="round" fill="transparent" stroke-linejoin="round" points="132.09686279296875 26.484413146972656 135.141845703125 31.96538543701172 135.7508544921875 38.05534362792969 135.141845703125 44.75431060791016 131.48785400390625 51.453269958496094 125.39788818359376 57.54322814941406 116.8719482421875 63.63319396972656 106.51901245117188 68.50517272949219 99.2110595703125 71.55015563964844 94.33908081054688 72.76814270019531 91.903076171875 72.76814270019531 91.903076171875 72.76814270019531 96.77508544921876 71.55015563964844 109.56399536132813 67.89617919921875 129.660888671875 63.024200439453125 147.32177734375 59.979217529296875 165.5916748046875 59.979217529296875 174.11761474609375 60.58821105957031 180.20758056640625 61.80621337890625 184.4705810546875 64.2421875 184.4705810546875 64.2421875 " />
        <polyline stroke="black" stroke-width="3" stroke-linecap="round" fill="transparent" stroke-linejoin="round" points="100.42904663085938 120.26986694335938 113.21795654296876 116.61589050292967 128.44287109375 111.74391174316406 144.27679443359375 108.08993530273438 158.28369140625 105.04495239257813 166.8096923828125 102.60897827148438 172.2906494140625 98.95498657226563 172.2906494140625 98.95498657226563 " />
        <polyline stroke="black" stroke-width="3" stroke-linecap="round" fill="transparent" stroke-linejoin="round" points="137.57781982421875 72.15914916992188 129.0518798828125 86.16606140136719 118.08993530273438 106.8719482421875 108.34600830078124 128.18682861328125 100.42904663085938 145.84771728515625 94.94805908203124 159.85464477539063 93.12109375 164.7266082763672 94.33908081054688 162.29061889648438 97.38406372070313 158.02764892578125 102.86502075195313 151.93768310546875 111.99996948242188 145.2387237548828 124.78887939453124 138.53976440429688 141.8408203125 133.66778564453125 160.7197265625 133.66778564453125 175.3355712890625 136.7127685546875 183.861572265625 139.75775146484375 189.9515380859375 142.19374084472656 189.9515380859375 142.19374084472656 " />
        <polyline stroke="black" stroke-width="3" stroke-linecap="round" fill="transparent" stroke-linejoin="round" points="91.29409790039063 175.68853759765625 101.64703369140624 175.0795440673828 116.8719482421875 172.64356994628906 133.923828125 169.5985870361328 145.49478149414063 166.55360412597656 153.4117431640625 164.7266082763672 157.065673828125 163.5086212158203 152.1937255859375 164.11761474609375 141.8408203125 168.9895782470703 126.00689697265624 176.9065399169922 113.21795654296876 184.823486328125 102.86502075195313 193.34945678710935 94.94805908203124 201.26638793945313 87.0311279296875 211.0103454589844 82.15914916992188 218.31829833984375 78.50518798828125 224.40826416015625 77.89617919921875 228.06222534179688 77.89617919921875 228.06222534179688 " />
        <polyline stroke="black" stroke-width="3" stroke-linecap="round" fill="transparent" stroke-linejoin="round" points="129.660888671875 192.1314392089844 129.0518798828125 201.8753967285156 129.660888671875 213.44631958007813 132.09686279296875 224.40826416015625 136.96881103515625 231.7162170410156 144.88580322265625 237.80618286132813 156.45672607421875 242.06915283203125 169.24560546875 242.06915283203125 178.98956298828125 238.41519165039065 186.29754638671875 232.9342041015625 190.560546875 224.40826416015625 191.16949462890625 212.22833251953125 191.16949462890625 212.22833251953125 " />
        </svg>