<?xml version="1.0" standalone="no"?>
    <svg width="256" height="256" xmlns="http://www.w3.org/2000/svg" version="1.1">
    <polyline stroke="black" stroke-width="3" stroke-linecap="round" fill="transparent" stroke-linejoin="round" points="134.7152099609375 28.222930908203125 140.22421264648438 31.895606994628903 143.89691162109375 36.18040466308594 143.89691162109375 41.07730865478515 139.61209106445313 47.81055450439453 139.61209106445313 47.81055450439453 " />
        <polyline stroke="black" stroke-width="3" stroke-linecap="round" fill="transparent" stroke-linejoin="round" points="93.09149169921876 74.74354553222656 104.10952758789063 72.90721130371094 118.80023193359376 69.84663391113281 136.551513671875 66.17396545410156 152.46649169921875 63.72550964355469 164.09661865234375 61.27705383300781 168.9935302734375 60.052825927734375 167.769287109375 60.052825927734375 167.769287109375 60.052825927734375 " />
        <polyline stroke="black" stroke-width="3" stroke-linecap="round" fill="transparent" stroke-linejoin="round" points="96.76416015625 128.60952758789063 111.45489501953124 121.87628173828124 132.87884521484375 112.08245849609376 150.01800537109375 103.51287841796876 165.32086181640625 94.94328308105467 173.89044189453125 87.59793090820313 175.726806640625 79.02833557128906 175.726806640625 79.02833557128906 " />
        <polyline stroke="black" stroke-width="3" stroke-linecap="round" fill="transparent" stroke-linejoin="round" points="127.36981201171876 85.14947509765625 121.86080932617188 101.67652893066406 112.67910766601563 127.3852996826172 105.333740234375 146.36080932617188 97.9884033203125 163.49998474121094 93.09149169921876 173.90591430664063 89.4188232421875 179.41493225097656 87.58245849609375 181.2512664794922 88.80670166015625 179.41493225097656 88.80670166015625 179.41493225097656 " />
        <polyline stroke="black" stroke-width="3" stroke-linecap="round" fill="transparent" stroke-linejoin="round" points="121.86080932617188 140.2396697998047 138.38787841796875 135.9548797607422 157.3634033203125 131.6700897216797 172.0540771484375 128.60952758789063 179.39947509765625 126.77317810058594 181.23583984375 125.5489501953125 181.23583984375 125.5489501953125 " />
        <polyline stroke="black" stroke-width="3" stroke-linecap="round" fill="transparent" stroke-linejoin="round" points="96.76416015625 181.86338806152344 110.8427734375 175.74224853515625 129.2061767578125 167.17266845703125 146.95745849609375 158.6030731201172 161.03607177734375 151.25772094726563 168.38140869140625 148.1971435546875 170.2177734375 146.36080932617188 165.9329833984375 146.36080932617188 153.07861328125 151.25772094726563 140.22421264648438 160.43942260742188 129.2061767578125 170.2332305908203 117.57601928710938 183.08761596679688 104.10952758789063 200.83889770507813 92.4793701171875 217.97805786132813 85.13400268554688 229.60821533203125 80.23712158203125 236.34146118164065 77.78863525390625 240.62625122070313 78.4007568359375 240.62625122070313 83.9097900390625 235.11724853515625 99.82470703125 215.52963256835935 112.67910766601563 199.0025634765625 122.472900390625 188.59661865234375 128.59405517578125 184.31182861328125 133.490966796875 183.08761596679688 136.551513671875 187.37240600585935 138.38787841796875 195.9419860839844 142.060546875 210.6327209472656 145.73321533203125 222.26287841796875 150.630126953125 230.2203369140625 157.9754638671875 235.7293701171875 174.5025634765625 240.01416015625 187.35693359375 236.34146118164065 198.375 225.935546875 210.005126953125 203.287353515625 210.005126953125 183.08761596679688 204.49609375 176.3543701171875 204.49609375 176.3543701171875 " />
        </svg>