<?xml version="1.0" standalone="no"?>
    <svg width="256" height="256" xmlns="http://www.w3.org/2000/svg" version="1.1">
    <polyline stroke="black" stroke-width="3" stroke-linecap="round" fill="transparent" stroke-linejoin="round" points="110.33013916015624 37.06660461425781 104.67398071289063 46.83634948730469 93.36163330078124 66.37583923339844 76.39312744140625 94.6566925048828 66.62338256835938 112.65359497070313 60.453033447265625 123.45173645019533 57.36785888671875 128.0795135498047 57.36785888671875 127.5653076171875 63.5382080078125 119.85235595703124 63.5382080078125 119.85235595703124 " />
        <polyline stroke="black" stroke-width="3" stroke-linecap="round" fill="transparent" stroke-linejoin="round" points="84.1060791015625 81.28756713867188 88.21966552734375 114.19618225097656 89.248046875 159.44554138183594 88.73388671875 189.78317260742188 88.73388671875 208.29428100585935 88.73388671875 217.54983520507813 88.73388671875 221.66342163085935 91.30487060546876 219.60662841796875 91.30487060546876 219.60662841796875 " />
        <polyline stroke="black" stroke-width="3" stroke-linecap="round" fill="transparent" stroke-linejoin="round" points="124.2135009765625 92.5998992919922 132.44064331054688 85.91534423828125 142.21038818359375 79.74496459960938 152.49432373046875 74.08880615234375 163.806640625 69.9752197265625 174.60479736328125 68.94682312011719 183.8603515625 72.03201293945313 191.57330322265625 84.88694763183594 196.71527099609375 121.39494323730467 194.144287109375 152.2467803955078 190.03076171875 177.95664978027344 185.9171142578125 196.46774291992188 182.83197021484375 210.86526489257813 180.260986328125 216.0072326660156 178.2042236328125 216.0072326660156 178.2042236328125 216.0072326660156 " />
        <polyline stroke="black" stroke-width="3" stroke-linecap="round" fill="transparent" stroke-linejoin="round" points="155.57952880859375 113.68199157714844 150.43756103515625 134.2498779296875 145.29556274414063 164.58750915527344 141.1820068359375 189.26898193359375 138.61102294921875 209.3226623535156 136.55419921875 220.12081909179688 136.55419921875 220.12081909179688 " />
        <polyline stroke="black" stroke-width="3" stroke-linecap="round" fill="transparent" stroke-linejoin="round" points="124.7276611328125 164.58750915527344 131.4122314453125 158.41714477539063 142.72457885742188 152.2467803955078 157.1220703125 147.1048126220703 172.54803466796875 142.47703552246094 185.9171142578125 140.4202423095703 197.2294921875 140.9344482421875 202.8856201171875 145.5622100830078 202.8856201171875 145.5622100830078 " />
        <polyline stroke="black" stroke-width="3" stroke-linecap="round" fill="transparent" stroke-linejoin="round" points="111.87274169921876 226.29116821289065 121.1282958984375 225.7769775390625 135.01162719726563 222.6918029785156 158.6646728515625 218.5782165527344 175.6331787109375 216.0072326660156 192.6016845703125 213.950439453125 207.513427734375 212.92205810546875 218.31158447265625 213.43624877929688 218.31158447265625 213.43624877929688 " />
        </svg>