<?xml version="1.0" standalone="no"?>
    <svg width="256" height="256" xmlns="http://www.w3.org/2000/svg" version="1.1">
    <polyline stroke="black" stroke-width="3" stroke-linecap="round" fill="transparent" stroke-linejoin="round" points="99 36 99 37 98 39 95 45 90 54 85 65 79 75 71 90 66 99 62 106 58 113 55 118 52 122 51 125 50 127 49 127 49 127 " />
        <polyline stroke="black" stroke-width="3" stroke-linecap="round" fill="transparent" stroke-linejoin="round" points="62 100 63 100 65 100 67 103 67 108 68 115 69 122 69 131 69 139 70 148 71 156 71 167 72 170 72 175 74 180 75 180 " />
        <polyline stroke="black" stroke-width="3" stroke-linecap="round" fill="transparent" stroke-linejoin="round" points="101 84 102 82 104 77 106 74 109 70 113 67 120 63 125 60 131 58 136 56 142 55 147 55 152 55 156 57 159 61 163 69 165 78 166 88 166 99 165 111 164 122 163 132 161 140 158 147 155 151 152 154 151 155 " />
        <polyline stroke="black" stroke-width="3" stroke-linecap="round" fill="transparent" stroke-linejoin="round" points="129 87 128 85 127 87 126 91 124 97 122 104 121 113 119 121 118 130 115 142 113 149 111 154 110 157 109 158 " />
        <polyline stroke="black" stroke-width="3" stroke-linecap="round" fill="transparent" stroke-linejoin="round" points="95 120 96 119 99 116 102 114 106 112 111 110 116 109 125 109 131 109 137 110 143 110 148 111 153 112 155 113 " />
        <polyline stroke="black" stroke-width="3" stroke-linecap="round" fill="transparent" stroke-linejoin="round" points="89 157 88 157 86 158 85 158 84 158 84 158 85 158 87 158 94 158 100 158 107 158 116 158 126 158 137 158 147 158 157 159 167 161 177 163 181 165 " />
        </svg>