<?xml version="1.0" standalone="no"?>
    <svg width="256" height="256" xmlns="http://www.w3.org/2000/svg" version="1.1">
    <polyline stroke="black" stroke-width="3" stroke-linecap="round" fill="transparent" stroke-linejoin="round" points="54.892059326171875 108.02133178710938 64.61151123046875 102.5277099609375 71.37289428710938 99.14703369140624 78.55682373046875 95.766357421875 94.61508178710938 89.42756652832031 107.7152099609375 84.77912902832031 116.58953857421876 81.821044921875 120.81536865234376 80.55328369140625 120.81536865234376 80.55328369140625 " />
        <polyline stroke="black" stroke-width="3" stroke-linecap="round" fill="transparent" stroke-linejoin="round" points="54.469482421875 135.48936462402344 66.72445678710938 127.88284301757813 73.063232421875 124.50213623046876 87.008544921875 117.31820678710938 93.34735107421876 114.78269958496094 104.75714111328124 111.8245849609375 114.899169921875 111.40200805664063 114.899169921875 111.40200805664063 " />
        <polyline stroke="black" stroke-width="3" stroke-linecap="round" fill="transparent" stroke-linejoin="round" points="49.821044921875 184.086669921875 61.653411865234375 181.5511474609375 68.414794921875 179.86080932617188 76.44393920898438 177.32530212402344 93.34735107421876 171.4091033935547 112.78622436523438 161.68963623046875 112.78622436523438 161.68963623046875 " />
        <polyline stroke="black" stroke-width="3" stroke-linecap="round" fill="transparent" stroke-linejoin="round" points="102.64422607421876 63.649871826171875 100.953857421875 79.2855224609375 100.10870361328124 90.27273559570313 99.68612670898438 102.95030212402344 99.26351928710938 130.84092712402344 99.68612670898438 157.04119873046875 99.68612670898438 177.32530212402344 99.26351928710938 193.383544921875 98.84091186523438 205.2159423828125 99.26351928710938 210.70953369140625 99.26351928710938 210.70953369140625 " />
        <polyline stroke="black" stroke-width="3" stroke-linecap="round" fill="transparent" stroke-linejoin="round" points="141.94464111328125 80.13069152832031 147.86080932617188 91.96310424804688 149.5511474609375 95.34376525878906 151.24151611328125 98.72445678710938 155.4674072265625 104.64065551757813 155.4674072265625 104.64065551757813 " />
        <polyline stroke="black" stroke-width="3" stroke-linecap="round" fill="transparent" stroke-linejoin="round" points="184.625732421875 41.675437927246094 178.2869873046875 59.84660339355469 174.0611572265625 73.36932373046875 163.9190673828125 103.79547119140624 158.8480224609375 119.85372924804688 154.6221923828125 133.79904174804688 147.438232421875 159.57672119140625 141.94464111328125 181.97373962402344 136.87362670898438 200.5675048828125 131.37997436523438 217.04833984375 127.57675170898438 226.76776123046875 127.57675170898438 226.76776123046875 " />
        <polyline stroke="black" stroke-width="3" stroke-linecap="round" fill="transparent" stroke-linejoin="round" points="127.99932861328124 138.02487182617188 146.17050170898438 128.72801208496094 152.50927734375 125.7698974609375 175.328857421875 117.31820678710938 190.96453857421875 113.5149383544922 198.1484375 112.66976928710938 209.13568115234375 113.9375 215.8970947265625 118.58596801757813 222.658447265625 137.602294921875 224.7713623046875 166.7606658935547 220.96807861328125 192.11578369140625 214.6292724609375 208.59661865234375 208.713134765625 218.7386474609375 201.5291748046875 225.07745361328125 188.8515625 228.4581298828125 181.24505615234375 227.61294555664065 181.24505615234375 227.61294555664065 " />
        </svg>