<?xml version="1.0" standalone="no"?>
    <svg width="256" height="256" xmlns="http://www.w3.org/2000/svg" version="1.1">
    <polyline stroke="black" stroke-width="3" stroke-linecap="round" fill="transparent" stroke-linejoin="round" points="43.15264892578125 84.78401184082031 56.48736572265625 80.339111328125 69.82208251953125 75.89421081542969 81.54046630859375 72.66156005859375 95.683349609375 69.83297729492188 99.32012939453124 69.42889404296875 104.16912841796876 68.6207275390625 104.16912841796876 68.6207275390625 " />
        <polyline stroke="black" stroke-width="3" stroke-linecap="round" fill="transparent" stroke-linejoin="round" points="66.9935302734375 127.61679077148438 75.07516479492188 124.7882080078125 83.15679931640625 121.95962524414063 87.60174560546875 120.34329223632813 95.683349609375 117.1106414794922 102.552734375 114.28204345703124 102.552734375 114.28204345703124 " />
        <polyline stroke="black" stroke-width="3" stroke-linecap="round" fill="transparent" stroke-linejoin="round" points="56.4874267578125 162.77195739746094 62.95269775390625 160.3474578857422 69.41796875 157.92295837402344 75.479248046875 155.09439086914063 81.94454956054688 151.8617401123047 94.47113037109376 142.1637420654297 100.12826538085938 136.10250854492188 100.12826538085938 136.10250854492188 " />
        <polyline stroke="black" stroke-width="3" stroke-linecap="round" fill="transparent" stroke-linejoin="round" points="71.84249877929688 41.143096923828125 71.84249877929688 52.05333709716797 71.84249877929688 62.96357727050781 72.24658203125 75.08604431152344 72.650634765625 88.82485961914063 73.05474853515625 116.70654296875 73.45883178710938 130.4453582763672 73.86288452148438 154.6903076171875 74.2669677734375 173.68218994140625 75.07516479492188 186.208740234375 75.07516479492188 194.2904052734375 75.88330078125 198.33123779296875 75.88330078125 198.33123779296875 " />
        <polyline stroke="black" stroke-width="3" stroke-linecap="round" fill="transparent" stroke-linejoin="round" points="128.41409301757813 59.73091125488281 132.45489501953125 67.40847778320313 136.49569702148438 75.08604431152344 139.32427978515625 80.74319458007813 140.53656005859375 82.76361083984375 144.9814453125 85.59219360351563 144.9814453125 85.59219360351563 " />
        <polyline stroke="black" stroke-width="3" stroke-linecap="round" fill="transparent" stroke-linejoin="round" points="189.43048095703125 22.151214599609375 180.1365966796875 54.073753356933594 170.84271240234375 85.99629211425781 165.185546875 102.15957641601563 152.6590576171875 135.69842529296875 146.59774780273438 151.05357360839844 140.53656005859375 165.60052490234375 128.4140625 190.65365600585935 118.31198120117188 210.4537048339844 118.31198120117188 210.4537048339844 " />
        <polyline stroke="black" stroke-width="3" stroke-linecap="round" fill="transparent" stroke-linejoin="round" points="111.84674072265625 113.06982421875001 122.75692749023438 107.00857543945313 133.6671142578125 100.94732666015624 139.32427978515625 98.5228271484375 152.6590576171875 94.88609313964844 168.418212890625 94.0779266357422 183.3692626953125 96.90652465820313 195.49176025390625 105.39225769042967 208.82647705078125 128.02085876464844 216.0999755859375 158.32705688476563 216.5040283203125 182.5720062255859 212.8673095703125 196.71490478515625 207.21014404296875 205.20062255859375 194.68359375 210.8577880859375 167.20599365234375 210.8577880859375 167.20599365234375 210.8577880859375 " />
        </svg>