<?xml version="1.0" standalone="no"?>
    <svg width="256" height="256" xmlns="http://www.w3.org/2000/svg" version="1.1">
    <polyline stroke="black" stroke-width="3" stroke-linecap="round" fill="transparent" stroke-linejoin="round" points="55 75 62 72 69 69 85 64 99 61 104 60 104 60 " />
        <polyline stroke="black" stroke-width="3" stroke-linecap="round" fill="transparent" stroke-linejoin="round" points="54 119 67 115 80 111 92 108 102 107 104 107 104 107 " />
        <polyline stroke="black" stroke-width="3" stroke-linecap="round" fill="transparent" stroke-linejoin="round" points="34 155 48 154 62 153 76 149 87 145 96 139 98 136 98 136 " />
        <polyline stroke="black" stroke-width="3" stroke-linecap="round" fill="transparent" stroke-linejoin="round" points="77 21 77 29 77 37 77 55 78 83 79 112 80 126 82 151 82 173 82 189 82 198 83 199 83 199 " />
        <polyline stroke="black" stroke-width="3" stroke-linecap="round" fill="transparent" stroke-linejoin="round" points="179 29 176 52 173 75 166 105 157 135 152 149 142 176 131 197 122 211 115 219 111 218 111 218 " />
        <polyline stroke="black" stroke-width="3" stroke-linecap="round" fill="transparent" stroke-linejoin="round" points="124 89 129 91 134 93 139 98 142 101 142 101 " />
        <polyline stroke="black" stroke-width="3" stroke-linecap="round" fill="transparent" stroke-linejoin="round" points="113 132 118 131 123 130 129 127 144 120 163 111 183 105 199 101 209 101 214 101 215 108 215 126 211 145 206 161 202 173 198 180 194 183 189 184 179 184 171 181 171 181 " />
        </svg>