<?xml version="1.0" standalone="no"?>
    <svg width="256" height="256" xmlns="http://www.w3.org/2000/svg" version="1.1">
    <polyline stroke="black" stroke-width="3" stroke-linecap="round" fill="transparent" stroke-linejoin="round" points="142.94537353515625 48.00762939453125 144.207763671875 55.819183349609375 144.41561889648438 70.89482116699219 146.01239013671875 79.83207702636719 146.35931396484375 80.10467529296875 " />
        <polyline stroke="black" stroke-width="3" stroke-linecap="round" fill="transparent" stroke-linejoin="round" points="108.65902709960938 85.41314697265625 134.83102416992188 81.72160339355469 161.55682373046875 77.96467590332031 175.3206787109375 75.94110107421875 180.268798828125 75.51373291015625 186.6336669921875 75.57052612304688 198.057861328125 76.98214721679688 201.3154296875 77.97727966308594 204.85888671875 79.59519958496094 204.9635009765625 79.65940856933594 204.9708251953125 79.66387939453125 204.97283935546875 79.66513061523438 " />
        <polyline stroke="black" stroke-width="3" stroke-linecap="round" fill="transparent" stroke-linejoin="round" points="100.12921142578124 122.72128295898438 103.5794677734375 129.73825073242188 109.650390625 144.19131469726563 112.34628295898438 154.86080932617188 111.92742919921876 155.97445678710938 111.89501953125 156.06045532226563 " />
        <polyline stroke="black" stroke-width="3" stroke-linecap="round" fill="transparent" stroke-linejoin="round" points="133.55819702148438 96.3009796142578 149.505859375 94.44003295898438 162.835205078125 94.52880859375 172.00726318359375 98.3143310546875 174.6864013671875 100.85626220703124 180.01654052734375 106.2381591796875 181.96453857421875 109.80657958984376 186.3968505859375 122.03385925292967 186.66064453125 128.74545288085938 183.8817138671875 142.64260864257813 181.4642333984375 147.79119873046875 178.4281005859375 151.32958984375 178.12451171875 151.68345642089844 " />
        <polyline stroke="black" stroke-width="3" stroke-linecap="round" fill="transparent" stroke-linejoin="round" points="142.86358642578125 111.10264587402344 144.34051513671875 117.55923461914063 149.314208984375 125.16387939453124 152.9149169921875 139.89544677734375 149.4505615234375 146.02081298828125 150.2249755859375 148.9447479248047 150.30242919921875 149.2371063232422 " />
        <polyline stroke="black" stroke-width="3" stroke-linecap="round" fill="transparent" stroke-linejoin="round" points="131.46237182617188 126.72723388671876 136.80047607421875 126.16168212890624 162.08270263671875 124.0361328125 168.224853515625 123.13357543945313 169.90478515625 123.297607421875 170.742431640625 124.13511657714844 172.1202392578125 126.2683563232422 172.2171630859375 126.41836547851563 " />
        <polyline stroke="black" stroke-width="3" stroke-linecap="round" fill="transparent" stroke-linejoin="round" points="126.1988525390625 149.26568603515625 131.169921875 147.74205017089844 142.04974365234375 145.66233825683594 160.7484130859375 144.48580932617188 163.91461181640625 144.5887451171875 164.7418212890625 144.8865966796875 164.74676513671875 144.88839721679688 " />
        <polyline stroke="black" stroke-width="3" stroke-linecap="round" fill="transparent" stroke-linejoin="round" points="84.9183349609375 180.72610473632813 90.704345703125 180.38999938964844 101.33154296875 179.74075317382813 113.066162109375 178.7992401123047 126.87240600585938 178.58596801757813 142.83578491210938 178.09518432617188 165.605224609375 177.83053588867188 172.745849609375 177.5919647216797 177.4189453125 177.59959411621094 186.91033935546875 177.37486267089844 198.866943359375 177.14451599121094 206.481201171875 176.8800048828125 215.57733154296875 176.9320068359375 221.33636474609375 176.97909545898438 230.43994140625 177.74066162109375 232.45819091796875 178.3999481201172 233.69866943359375 179.52908325195313 233.72943115234375 179.5673828125 233.73187255859375 179.57040405273438 233.73370361328125 179.57269287109375 233.73406982421875 179.57315063476563 " />
        <polyline stroke="black" stroke-width="3" stroke-linecap="round" fill="transparent" stroke-linejoin="round" points="111.76885986328124 183.8744354248047 111.7706298828125 191.4947204589844 112.05133056640624 205.3597412109375 113.10409545898438 211.9032287597656 113.51800537109376 212.46234130859375 114.04827880859376 212.45965576171875 121.15692138671876 214.22244262695313 133.49826049804688 215.1763916015625 137.38912963867188 214.91226196289065 156.58099365234375 214.1219787597656 166.4869384765625 212.72808837890625 166.61053466796875 212.1866455078125 166.796875 211.49337768554688 169.8602294921875 208.92379760742188 169.99951171875 208.79656982421875 " />
        <polyline stroke="black" stroke-width="3" stroke-linecap="round" fill="transparent" stroke-linejoin="round" points="164.2891845703125 164.24151611328125 165.220703125 171.88507080078125 166.2481689453125 182.23631286621097 168.06103515625 198.0479736328125 168.15283203125 206.1698303222656 169.094482421875 213.011962890625 169.18865966796875 213.6961975097656 " />
        </svg>