<?xml version="1.0" standalone="no"?>
    <svg width="256" height="256" xmlns="http://www.w3.org/2000/svg" version="1.1">
    <polyline stroke="black" stroke-width="3" stroke-linecap="round" fill="transparent" stroke-linejoin="round" points="129 32 129 37 125 49 122 53 122 53 " />
        <polyline stroke="black" stroke-width="3" stroke-linecap="round" fill="transparent" stroke-linejoin="round" points="88 63 110 60 130 57 149 57 161 57 162 57 162 57 " />
        <polyline stroke="black" stroke-width="3" stroke-linecap="round" fill="transparent" stroke-linejoin="round" points="83 120 86 135 89 146 91 150 91 150 " />
        <polyline stroke="black" stroke-width="3" stroke-linecap="round" fill="transparent" stroke-linejoin="round" points="101 90 123 87 145 86 162 86 173 90 176 96 177 106 176 117 168 130 159 139 150 141 150 141 " />
        <polyline stroke="black" stroke-width="3" stroke-linecap="round" fill="transparent" stroke-linejoin="round" points="128 98 128 110 128 123 127 133 126 135 126 135 " />
        <polyline stroke="black" stroke-width="3" stroke-linecap="round" fill="transparent" stroke-linejoin="round" points="93 122 109 120 126 120 143 120 152 120 153 125 153 125 " />
        <polyline stroke="black" stroke-width="3" stroke-linecap="round" fill="transparent" stroke-linejoin="round" points="100 150 114 148 130 148 147 148 156 148 159 150 159 150 " />
        <polyline stroke="black" stroke-width="3" stroke-linecap="round" fill="transparent" stroke-linejoin="round" points="86 194 86 207 86 218 86 224 87 226 88 226 89 226 96 226 107 224 122 222 135 220 145 218 150 218 153 218 154 218 155 218 155 218 " />
        <polyline stroke="black" stroke-width="3" stroke-linecap="round" fill="transparent" stroke-linejoin="round" points="162 183 162 198 161 210 159 220 158 222 158 222 " />
        <polyline stroke="black" stroke-width="3" stroke-linecap="round" fill="transparent" stroke-linejoin="round" points="58 202 70 199 100 195 147 192 159 192 186 191 200 191 200 191 " />
        </svg>