<?xml version="1.0" standalone="no"?>
    <svg width="256" height="256" xmlns="http://www.w3.org/2000/svg" version="1.1">
    <polyline stroke="black" stroke-width="3" stroke-linecap="round" fill="transparent" stroke-linejoin="round" points="58.960052490234375 111.11466979980467 68.40316772460938 109.0618133544922 86.46826171875 104.9561004638672 103.30169677734376 101.26095581054688 116.44000244140624 98.79753112792967 125.88311767578124 95.51296997070313 129.16766357421875 93.04953002929688 129.16766357421875 93.04953002929688 " />
        <polyline stroke="black" stroke-width="3" stroke-linecap="round" fill="transparent" stroke-linejoin="round" points="78.25689697265625 63.488433837890625 74.9722900390625 75.80555725097656 67.99261474609375 104.13494873046876 60.191741943359375 144.37091064453125 58.54949951171875 163.25717163085938 58.960052490234375 174.34259033203125 61.01287841796875 180.50115966796875 63.88690185546875 183.37515258789065 69.22430419921875 184.60687255859375 75.79345703125 183.7857360839844 81.95199584960938 181.32229614257813 87.70001220703125 176.80601501464844 90.57403564453124 173.9320068359375 98.37484741210938 159.97259521484375 102.48056030273438 149.29776000976563 102.48056030273438 149.29776000976563 " />
        <polyline stroke="black" stroke-width="3" stroke-linecap="round" fill="transparent" stroke-linejoin="round" points="111.1025390625 61.84614562988281 108.63912963867188 72.52099609375 104.12286376953124 97.56582641601563 100.427734375 123.43179321289063 97.96429443359376 146.42376708984375 95.91143798828124 164.07830810546875 94.6796875 173.1108856201172 94.6796875 173.1108856201172 " />
        <polyline stroke="black" stroke-width="3" stroke-linecap="round" fill="transparent" stroke-linejoin="round" points="148.053955078125 70.05755615234375 155.85479736328125 74.5738525390625 160.78167724609375 76.21612548828125 160.78167724609375 76.21612548828125 " />
        <polyline stroke="black" stroke-width="3" stroke-linecap="round" fill="transparent" stroke-linejoin="round" points="185.82647705078125 69.23641967773438 175.9727783203125 77.44784545898438 145.179931640625 99.20809936523438 131.631103515625 107.83010864257813 124.6513671875 111.93582153320313 122.59857177734376 113.1675262451172 120.95623779296876 114.39923095703124 123.83026123046876 113.9886474609375 129.98883056640625 112.75694274902344 159.96051025390625 106.59837341308594 171.0458984375 104.13494873046876 189.11102294921875 100.02923583984376 203.0704345703125 95.92355346679688 203.0704345703125 95.92355346679688 " />
        <polyline stroke="black" stroke-width="3" stroke-linecap="round" fill="transparent" stroke-linejoin="round" points="179.25732421875 51.58187103271485 174.33050537109375 63.077850341796875 158.728759765625 102.08212280273438 147.64337158203125 127.12693786621094 137.37908935546875 148.0660400390625 129.16766357421875 162.43603515625 123.00912475585938 171.0580291748047 121.3668212890625 172.70030212402344 120.545654296875 173.52145385742188 120.545654296875 173.52145385742188 " />
        <polyline stroke="black" stroke-width="3" stroke-linecap="round" fill="transparent" stroke-linejoin="round" points="163.6556396484375 130.4114990234375 178.43621826171875 130.4114990234375 186.237060546875 130.8220672607422 204.7127685546875 134.5172119140625 208.40789794921875 135.33836364746094 208.40789794921875 135.33836364746094 " />
        <polyline stroke="black" stroke-width="3" stroke-linecap="round" fill="transparent" stroke-linejoin="round" points="146.00106811523438 171.46859741210938 161.1922607421875 168.18402099609375 167.7613525390625 166.9523162841797 182.54193115234375 165.72061157226563 187.0582275390625 165.72061157226563 187.0582275390625 165.72061157226563 " />
        <polyline stroke="black" stroke-width="3" stroke-linecap="round" fill="transparent" stroke-linejoin="round" points="177.61505126953125 187.89144897460935 177.2044677734375 191.99713134765625 176.38330078125 196.92401123046875 172.688232421875 208.83056640625 167.35076904296875 214.57855224609375 162.83447265625 217.4525451660156 147.2327880859375 222.37939453125 119.31396484375 220.3265380859375 114.38714599609376 219.0948486328125 114.38714599609376 219.0948486328125 " />
        </svg>