<?xml version="1.0" standalone="no"?>
    <svg width="256" height="256" xmlns="http://www.w3.org/2000/svg" version="1.1">
    <polyline stroke="black" stroke-width="3" stroke-linecap="round" fill="transparent" stroke-linejoin="round" points="39.6087646484375 140.31544494628906 48.9747314453125 135.35699462890625 60.544464111328125 129.29664611816406 72.11419677734375 123.23631286621094 83.68389892578125 115.52316284179688 93.04989624023438 108.3609619140625 100.21209716796876 100.64779663085938 104.61962890625 92.93464660644533 104.61962890625 92.93464660644533 " />
        <polyline stroke="black" stroke-width="3" stroke-linecap="round" fill="transparent" stroke-linejoin="round" points="61.646331787109375 87.9761962890625 58.89166259765625 100.64779663085938 55.58599853515625 115.52316284179688 52.280364990234375 131.5004119873047 48.9747314453125 145.82484436035156 45.669097900390625 158.49644470214844 44.01629638671875 168.41336059570313 44.01629638671875 174.47369384765625 45.1181640625 179.43214416503906 48.423797607421875 180.53402709960935 53.933197021484375 177.77932739257813 61.09539794921875 172.26992797851563 68.25762939453125 163.45489501953125 77.0726318359375 148.57952880859375 89.7442626953125 115.52316284179688 89.7442626953125 115.52316284179688 " />
        <polyline stroke="black" stroke-width="3" stroke-linecap="round" fill="transparent" stroke-linejoin="round" points="74.31793212890625 86.87431335449219 73.76702880859375 98.4440460205078 72.66513061523438 111.66659545898438 72.11419677734375 123.78726196289063 72.11419677734375 132.602294921875 72.66513061523438 139.76449584960938 73.76702880859375 145.82484436035156 74.31793212890625 151.8851776123047 75.97076416015625 156.8436279296875 75.97076416015625 156.8436279296875 " />
        <polyline stroke="black" stroke-width="3" stroke-linecap="round" fill="transparent" stroke-linejoin="round" points="118.94403076171876 81.36492919921875 122.24969482421876 84.67056274414063 128.30999755859375 86.87431335449219 136.02316284179688 86.32337951660156 147.5928955078125 80.26304626464844 147.5928955078125 80.26304626464844 " />
        <polyline stroke="black" stroke-width="3" stroke-linecap="round" fill="transparent" stroke-linejoin="round" points="177.89453125 57.12358093261719 168.528564453125 67.5914306640625 154.755126953125 80.81398010253906 139.32879638671875 94.03652954101563 125.00439453125 105.05531311035156 112.332763671875 112.76846313476563 104.61962890625 116.6250457763672 99.66116333007813 118.27786254882813 97.4573974609375 119.37974548339844 98.55926513671876 118.8288116455078 104.06866455078124 115.52316284179688 118.39312744140624 108.91189575195313 136.02316284179688 100.64779663085938 155.85699462890625 92.93464660644533 172.93609619140625 86.87431335449219 185.60772705078125 83.01774597167969 195.524658203125 79.16116333007813 203.7886962890625 68.69331359863281 203.7886962890625 68.69331359863281 " />
        <polyline stroke="black" stroke-width="3" stroke-linecap="round" fill="transparent" stroke-linejoin="round" points="152.55133056640625 33.433189392089844 149.796630859375 45.553855895996094 144.83819580078125 63.73486328125 136.5740966796875 90.17994689941406 129.41189575195313 112.217529296875 120.59686279296876 134.25511169433594 113.43463134765624 149.68141174316406 106.8233642578125 160.7001953125 102.966796875 166.2095947265625 100.7630615234375 167.3114776611328 102.41586303710938 164.00584411621094 102.41586303710938 164.00584411621094 " />
        <polyline stroke="black" stroke-width="3" stroke-linecap="round" fill="transparent" stroke-linejoin="round" points="139.8797607421875 121.03256225585938 152.00042724609375 121.03256225585938 166.3248291015625 122.13444519042967 180.09832763671875 123.23631286621094 192.218994140625 124.88914489746094 201.0340576171875 126.54196166992188 207.0943603515625 128.74571228027344 207.0943603515625 128.74571228027344 " />
        <polyline stroke="black" stroke-width="3" stroke-linecap="round" fill="transparent" stroke-linejoin="round" points="132.16659545898438 161.8020782470703 143.18536376953125 157.39456176757813 157.50982666015625 152.4361114501953 172.38519287109375 148.02859497070313 183.4039306640625 144.72296142578125 189.46429443359375 143.62107849121094 192.7698974609375 143.62107849121094 191.11712646484375 143.62107849121094 186.15869140625 145.27389526367188 179.54736328125 148.02859497070313 174.0379638671875 150.2323455810547 170.181396484375 152.98704528808594 167.42669677734375 156.2926788330078 165.22296142578125 167.3114776611328 164.12109375 181.0849609375 163.0191650390625 194.85845947265625 161.36639404296875 201.4697265625 158.6116943359375 207.53005981445313 154.755126953125 211.3866271972656 148.69476318359375 213.59039306640625 137.12506103515625 213.59039306640625 137.12506103515625 213.59039306640625 " />
        </svg>