<?xml version="1.0" standalone="no"?>
    <svg width="256" height="256" xmlns="http://www.w3.org/2000/svg" version="1.1">
    <polyline stroke="black" stroke-width="3" stroke-linecap="round" fill="transparent" stroke-linejoin="round" points="56.89202880859375 77.82672119140625 62.277313232421875 106.41015625 62.277313232421875 121.737548828125 61.0345458984375 134.16513061523438 60.62030029296875 138.30764770507813 58.9632568359375 143.2786865234375 58.134765625 142.86444091796875 57.72052001953125 141.62168884277344 56.89202880859375 137.47915649414063 56.06353759765625 126.70858764648438 56.06353759765625 126.70858764648438 " />
        <polyline stroke="black" stroke-width="3" stroke-linecap="round" fill="transparent" stroke-linejoin="round" points="60.62030029296875 73.68418884277344 71.390869140625 66.64187622070313 77.1904296875 63.327850341796875 84.23272705078125 59.599578857421875 99.14584350585938 52.971527099609375 114.47314453125 48.41474914550781 126.48651123046876 47.17198944091797 134.77157592773438 48.829002380371094 140.9853515625 53.80004119873047 148.02767944335938 66.22763061523438 151.34173583984375 83.62625122070313 150.51318359375 100.19638061523438 147.6134033203125 112.209716796875 142.22811889648438 122.15177917480467 133.11459350585938 131.6796112060547 126.48651123046876 137.47915649414063 126.48651123046876 137.47915649414063 " />
        <polyline stroke="black" stroke-width="3" stroke-linecap="round" fill="transparent" stroke-linejoin="round" points="19.19500732421875 125.4658203125 35.350830078125 125.4658203125 46.121429443359375 125.4658203125 59.377532958984375 124.63729858398438 103.70260620117188 119.25201416015624 130.21478271484375 115.52374267578124 152.58447265625 112.62396240234376 169.56884765625 110.96694946289063 179.51092529296875 110.55271911621094 184.06768798828125 110.55271911621094 184.48193359375 111.38121032714844 182.824951171875 113.03823852539063 182.824951171875 113.03823852539063 " />
        <polyline stroke="black" stroke-width="3" stroke-linecap="round" fill="transparent" stroke-linejoin="round" points="70.97665405273438 165.23410034179688 68.90536499023438 179.7329559326172 68.07684326171875 189.26077270507813 67.24835205078125 197.131591796875 66.41986083984375 204.588134765625 64.7628173828125 217.42999267578125 63.934326171875 221.572509765625 63.105804443359375 225.30078125 63.105804443359375 225.71502685546875 63.105804443359375 225.71502685546875 " />
        <polyline stroke="black" stroke-width="3" stroke-linecap="round" fill="transparent" stroke-linejoin="round" points="85.4754638671875 167.7196044921875 98.73153686523438 161.50582885742188 106.60238647460938 158.60604858398438 115.71591186523438 155.70628356933594 142.22811889648438 151.97799682617188 150.09893798828125 155.29202270507813 155.89849853515625 163.9913330078125 159.2125244140625 179.31869506835938 158.384033203125 193.81756591796875 155.07000732421875 203.7596435546875 149.27044677734375 209.97341918945313 137.257080078125 216.6014709472656 137.257080078125 216.6014709472656 " />
        <polyline stroke="black" stroke-width="3" stroke-linecap="round" fill="transparent" stroke-linejoin="round" points="32.036834716796875 200.0313720703125 54.406494140625 195.060302734375 68.4910888671875 192.5747985839844 84.64697265625 189.26077270507813 101.63134765625 185.94674682617188 133.11459350585938 181.80422973632813 147.19915771484375 180.56146240234375 172.05438232421875 179.31869506835938 191.1099853515625 179.7329559326172 203.123291015625 182.21847534179688 206.4373779296875 183.04698181152344 206.4373779296875 183.04698181152344 " />
        </svg>