<?xml version="1.0" standalone="no"?>
    <svg width="256" height="256" xmlns="http://www.w3.org/2000/svg" version="1.1">
    <polyline stroke="black" stroke-width="3" stroke-linecap="round" fill="transparent" stroke-linejoin="round" points="101.99179077148438 42.48377990722656 95.29010009765624 70.54714965820313 92.35809326171876 80.59970092773438 86.0751953125 98.191650390625 82.724365234375 105.73106384277344 78.116943359375 115.36477661132813 75.18499755859375 120.39105224609376 73.509521484375 121.228759765625 71.8341064453125 119.55332946777344 71.415283203125 116.20248413085938 71.415283203125 116.20248413085938 " />
        <polyline stroke="black" stroke-width="3" stroke-linecap="round" fill="transparent" stroke-linejoin="round" points="86.49407958984375 61.75115966796875 99.8974609375 53.37403869628906 104.92376708984376 50.86090087890625 114.976318359375 46.25347900390625 124.191162109375 43.32148742675781 131.73056030273438 42.064910888671875 137.17572021484375 43.74034118652344 142.62081909179688 49.60433197021485 148.06591796875 63.84544372558594 150.5791015625 82.27511596679688 150.16024780273438 90.2333984375 143.45855712890625 109.5007781982422 132.98715209960938 117.87791442871094 123.77230834960938 122.48532104492188 123.77230834960938 122.48532104492188 " />
        <polyline stroke="black" stroke-width="3" stroke-linecap="round" fill="transparent" stroke-linejoin="round" points="32.880462646484375 104.0556640625 44.18963623046875 102.799072265625 53.82330322265625 102.38021850585938 63.8758544921875 101.96136474609376 75.18499755859375 101.1236572265625 87.331787109375 99.8670654296875 112.463134765625 96.93508911132813 138.4322509765625 93.16539001464844 176.5482177734375 86.04483032226563 184.5064697265625 84.36940002441406 192.4647216796875 82.27511596679688 192.0458984375 82.27511596679688 181.99334716796875 86.46368408203125 181.99334716796875 86.46368408203125 " />
        <polyline stroke="black" stroke-width="3" stroke-linecap="round" fill="transparent" stroke-linejoin="round" points="95.29010009765624 143.84698486328125 92.77694702148438 159.34466552734375 90.6826171875 168.55950927734375 87.75067138671875 179.86863708496094 83.98095703125 190.7589111328125 76.86041259765625 206.67544555664065 70.99642944335938 217.1468505859375 67.2266845703125 221.33538818359375 65.97015380859375 222.59197998046875 65.97015380859375 222.59197998046875 " />
        <polyline stroke="black" stroke-width="3" stroke-linecap="round" fill="transparent" stroke-linejoin="round" points="86.49407958984375 163.53323364257813 107.4368896484375 154.73724365234375 126.70428466796876 148.87327575683594 139.26995849609375 146.36013793945313 148.48480224609375 145.52243041992188 154.7677001953125 146.77899169921875 158.537353515625 150.12982177734375 162.30706787109375 159.76353454589844 162.7259521484375 168.14065551757813 159.3751220703125 186.1514892578125 151.41680908203125 200.392578125 140.107666015625 210.864013671875 130.892822265625 215.8902587890625 130.892822265625 215.8902587890625 " />
        <polyline stroke="black" stroke-width="3" stroke-linecap="round" fill="transparent" stroke-linejoin="round" points="45.027313232421875 195.78515625 66.80783081054688 192.434326171875 79.79241943359375 190.34002685546875 92.77694702148438 187.826904296875 105.761474609375 184.8948974609375 145.13397216796875 179.86863708496094 171.9407958984375 178.612060546875 197.90985107421875 176.0989227294922 197.90985107421875 176.0989227294922 " />
        </svg>