<?xml version="1.0" standalone="no"?>
    <svg width="256" height="256" xmlns="http://www.w3.org/2000/svg" version="1.1">
    <polyline stroke="black" stroke-width="3" stroke-linecap="round" fill="transparent" stroke-linejoin="round" points="76.32748413085938 98.49693298339844 97.59451293945313 85.15997314453125 120.66390991210938 73.98576354980469 142.29141235351563 65.33474731445313 158.87249755859375 60.288330078125 169.3258056640625 58.125579833984375 180.50006103515625 57.4046630859375 184.465087890625 57.4046630859375 184.465087890625 57.4046630859375 " />
        <polyline stroke="black" stroke-width="3" stroke-linecap="round" fill="transparent" stroke-linejoin="round" points="106.24551391601563 65.33474731445313 106.24551391601563 87.32273864746094 106.60598754882813 106.78749084472656 106.96646118164063 122.64767456054688 106.96646118164063 135.62417602539063 106.60598754882813 143.5542755126953 106.60598754882813 149.68206787109375 106.60598754882813 150.4029998779297 106.60598754882813 150.4029998779297 " />
        <polyline stroke="black" stroke-width="3" stroke-linecap="round" fill="transparent" stroke-linejoin="round" points="113.09429931640624 63.1719970703125 127.873046875 55.241920471191406 134.7218017578125 52.35822296142578 139.7681884765625 51.27686309814453 144.81463623046875 51.997779846191406 149.14013671875 58.125579833984375 154.18658447265625 88.04364013671875 155.62835693359375 112.1943817138672 156.34930419921875 130.21730041503906 157.07025146484375 141.3915252685547 156.34930419921875 147.87977600097656 155.26788330078125 148.60069274902344 155.26788330078125 148.60069274902344 " />
        <polyline stroke="black" stroke-width="3" stroke-linecap="round" fill="transparent" stroke-linejoin="round" points="91.82720947265624 164.10043334960938 93.98995971679688 185.00701904296875 96.51318359375 202.66949462890625 98.31546020507813 214.56463623046875 99.036376953125 219.61105346679688 99.75726318359376 223.93655395507813 99.3968505859375 224.657470703125 96.51318359375 217.44830322265625 96.51318359375 217.44830322265625 " />
        <polyline stroke="black" stroke-width="3" stroke-linecap="round" fill="transparent" stroke-linejoin="round" points="90.02493286132813 168.4259033203125 116.33840942382813 151.84481811523438 131.1171875 146.07749938964844 144.81463623046875 144.99610900878906 153.46563720703125 148.60069274902344 166.442138671875 163.7399444580078 173.29083251953125 184.2861328125 175.8140869140625 200.8671875 175.45361328125 214.56463623046875 174.73272705078125 225.37838745117188 172.5699462890625 230.4248046875 170.4072265625 231.8666076660156 170.4072265625 231.8666076660156 " />
        <polyline stroke="black" stroke-width="3" stroke-linecap="round" fill="transparent" stroke-linejoin="round" points="53.618560791015625 211.68093872070313 78.490234375 193.29754638671875 110.2105712890625 175.9955596923828 144.81463623046875 161.93765258789063 174.01177978515625 152.5657501220703 196.720703125 148.24024963378906 217.26678466796875 147.87977600097656 233.48748779296875 148.24024963378906 233.48748779296875 148.24024963378906 " />
        </svg>