<?xml version="1.0" standalone="no"?>
    <svg width="256" height="256" xmlns="http://www.w3.org/2000/svg" version="1.1">
    <polyline stroke="black" stroke-width="3" stroke-linecap="round" fill="transparent" stroke-linejoin="round" points="111 55 110 76 109 97 107 118 105 129 101 143 98 149 96 150 96 150 " />
        <polyline stroke="black" stroke-width="3" stroke-linecap="round" fill="transparent" stroke-linejoin="round" points="123 61 131 61 139 61 152 61 161 61 168 61 172 66 173 83 173 106 173 127 171 142 168 149 166 152 162 153 162 153 " />
        <polyline stroke="black" stroke-width="3" stroke-linecap="round" fill="transparent" stroke-linejoin="round" points="45 95 75 95 105 95 133 95 159 95 172 96 189 100 201 106 204 109 204 109 " />
        <polyline stroke="black" stroke-width="3" stroke-linecap="round" fill="transparent" stroke-linejoin="round" points="119 143 119 158 119 173 119 191 119 200 117 217 114 228 111 230 111 230 " />
        <polyline stroke="black" stroke-width="3" stroke-linecap="round" fill="transparent" stroke-linejoin="round" points="117 151 130 149 143 147 157 147 168 147 177 159 181 179 182 199 183 216 183 228 183 235 179 238 172 238 172 238 " />
        <polyline stroke="black" stroke-width="3" stroke-linecap="round" fill="transparent" stroke-linejoin="round" points="69 182 85 182 101 182 125 180 136 180 175 180 194 183 208 187 208 187 " />
        </svg>