<?xml version="1.0" standalone="no"?>
    <svg width="256" height="256" xmlns="http://www.w3.org/2000/svg" version="1.1">
    <polyline stroke="black" stroke-width="3" stroke-linecap="round" fill="transparent" stroke-linejoin="round" points="54.28436279296875 76.72193908691406 55.34661865234375 105.40402221679688 52.513824462890625 145.7714080810547 52.159698486328125 176.22398376464844 52.513824462890625 198.88638305664065 54.28436279296875 216.23727416992188 54.28436279296875 216.23727416992188 " />
        <polyline stroke="black" stroke-width="3" stroke-linecap="round" fill="transparent" stroke-linejoin="round" points="73.05160522460938 69.9940185546875 107.75341796875 46.26934051513672 125.4583740234375 39.89555358886719 141.39288330078125 35.64635467529297 156.61920166015625 33.8758544921875 169.3668212890625 33.8758544921875 179.6356201171875 36.000457763671875 188.4881591796875 43.436546325683594 197.34063720703125 69.63993835449219 199.11114501953125 103.98762512207033 197.69476318359375 134.44021606445313 196.6324462890625 160.99769592285156 194.15374755859375 179.76499938964844 193.09149169921875 197.11587524414065 190.2586669921875 205.6142578125 185.6553955078125 207.384765625 172.90777587890625 199.94866943359375 172.90777587890625 199.94866943359375 " />
        <polyline stroke="black" stroke-width="3" stroke-linecap="round" fill="transparent" stroke-linejoin="round" points="84.38278198242188 99.73841857910156 99.60910034179688 89.11543273925781 103.85830688476563 86.63673400878906 114.48129272460938 82.38752746582031 127.58297729492188 78.492431640625 137.1436767578125 76.36782836914063 144.93386840820313 75.30552673339844 152.3699951171875 75.30552673339844 157.327392578125 79.55473327636719 159.09783935546875 96.551513671875 155.556884765625 115.67291259765624 148.82901000976563 130.1909942626953 140.68466186523438 141.87631225585938 130.06167602539063 145.4173126220703 130.06167602539063 145.4173126220703 " />
        <polyline stroke="black" stroke-width="3" stroke-linecap="round" fill="transparent" stroke-linejoin="round" points="103.15011596679688 101.1548309326172 107.3992919921875 133.02381896972656 109.52389526367188 147.54190063476563 110.9403076171875 159.22718811035156 112.00259399414063 168.07968139648438 112.00259399414063 168.07968139648438 " />
        <polyline stroke="black" stroke-width="3" stroke-linecap="round" fill="transparent" stroke-linejoin="round" points="50.38922119140625 219.070068359375 75.8843994140625 207.384765625 104.21240234375 201.71917724609375 132.186279296875 199.5946044921875 156.61920166015625 199.94866943359375 171.49139404296875 199.5946044921875 171.49139404296875 199.5946044921875 " />
        </svg>