<?xml version="1.0" standalone="no"?>
    <svg width="256" height="256" xmlns="http://www.w3.org/2000/svg" version="1.1">
    <polyline stroke="black" stroke-width="3" stroke-linecap="round" fill="transparent" stroke-linejoin="round" points="71 73 69 89 69 112 68 143 68 173 68 194 68 206 71 210 76 211 76 211 " />
        <polyline stroke="black" stroke-width="3" stroke-linecap="round" fill="transparent" stroke-linejoin="round" points="73 79 92 68 115 61 136 59 156 58 171 58 181 69 186 88 187 115 187 144 187 172 187 196 187 211 186 220 185 221 178 218 178 218 " />
        <polyline stroke="black" stroke-width="3" stroke-linecap="round" fill="transparent" stroke-linejoin="round" points="96 106 121 103 135 103 147 103 155 103 157 103 158 103 158 110 157 119 154 127 150 131 148 133 148 133 " />
        <polyline stroke="black" stroke-width="3" stroke-linecap="round" fill="transparent" stroke-linejoin="round" points="129 97 127 105 127 111 125 127 122 145 121 161 118 173 115 183 114 189 114 189 " />
        <polyline stroke="black" stroke-width="3" stroke-linecap="round" fill="transparent" stroke-linejoin="round" points="73 207 84 204 92 204 111 204 136 204 159 204 178 206 178 206 " />
        </svg>