<?xml version="1.0" standalone="no"?>
    <svg width="256" height="256" xmlns="http://www.w3.org/2000/svg" version="1.1">
    <polyline stroke="black" stroke-width="3" stroke-linecap="round" fill="transparent" stroke-linejoin="round" points="78.74765014648438 54.74156188964844 94.95272827148438 67.07168579101563 98.07736206054688 68.67170715332031 100.16790771484376 69.6712646484375 102.94793701171876 70.99235534667969 103.70458984375 71.34111022949219 " />
        <polyline stroke="black" stroke-width="3" stroke-linecap="round" fill="transparent" stroke-linejoin="round" points="128.36300659179688 36.0269775390625 113.39990234375 71.95785522460938 107.22760009765624 83.38571166992188 90.98443603515624 107.03939819335938 74.40972900390625 126.37815856933594 66.30877685546875 136.17431640625 59.31903076171875 143.99667358398438 48.62091064453125 156.09613037109375 45.054931640625 159.728515625 44.698333740234375 160.09176635742188 " />
        <polyline stroke="black" stroke-width="3" stroke-linecap="round" fill="transparent" stroke-linejoin="round" points="40.44805908203125 94.34681701660156 64.00692749023438 107.19035339355467 80.06878662109375 116.8630828857422 89.6634521484375 122.25157165527344 110.7432861328125 134.08726501464844 120.92156982421876 139.35992431640625 139.24679565429688 146.8038787841797 148.225830078125 149.49566650390625 165.408203125 151.96209716796875 175.2000732421875 153.37606811523438 188.612060546875 155.37332153320313 194.52154541015625 156.2932586669922 203.21942138671875 157.8961639404297 207.3707275390625 158.2052459716797 208.0076904296875 158.3372802734375 209.11102294921875 158.84552001953125 209.58447265625 159.40643310546875 209.7843017578125 159.64309692382813 " />
        <polyline stroke="black" stroke-width="3" stroke-linecap="round" fill="transparent" stroke-linejoin="round" points="73.0897216796875 158.32455444335938 77.05780029296875 180.3810882568359 79.11190795898438 192.0947265625 81.20941162109375 203.36737060546875 85.7587890625 223.3990478515625 87.27874755859375 227.89178466796875 87.54562377929688 228.91537475585935 87.5496826171875 228.93096923828125 87.55126953125 228.9371337890625 87.55218505859375 228.9405517578125 " />
        <polyline stroke="black" stroke-width="3" stroke-linecap="round" fill="transparent" stroke-linejoin="round" points="89.19296264648438 168.76988220214844 103.421630859375 154.5812225341797 109.54339599609376 151.71514892578125 123.34661865234376 147.84518432617188 130.37054443359375 147.6627197265625 140.26034545898438 150.562255859375 144.41070556640625 152.228515625 149.60031127929688 156.3734130859375 151.07318115234375 158.37185668945313 154.22216796875 168.03854370117188 157.58428955078125 191.15139770507813 156.72625732421875 201.88461303710935 151.63568115234375 219.8794860839844 144.42132568359375 230.30853271484375 144.18856811523438 227.803955078125 " />
        <polyline stroke="black" stroke-width="3" stroke-linecap="round" fill="transparent" stroke-linejoin="round" points="110.9541015625 163.982421875 113.158935546875 185.4458923339844 113.78744506835938 194.1881103515625 113.8843994140625 200.58444213867188 113.88250732421876 207.00051879882813 113.27203369140624 215.8079833984375 113.07562255859376 218.29351806640625 113.0543212890625 218.56277465820313 " />
        <polyline stroke="black" stroke-width="3" stroke-linecap="round" fill="transparent" stroke-linejoin="round" points="93.1099853515625 190.531005859375 118.2509765625 184.50048828125 132.84222412109375 181.13511657714844 138.71688842773438 180.48143005371097 146.35711669921875 181.34771728515625 146.64447021484375 182.42620849609375 145.59957885742188 185.2994384765625 145.33203125 185.97314453125 " />
        <polyline stroke="black" stroke-width="3" stroke-linecap="round" fill="transparent" stroke-linejoin="round" points="93.54522705078124 218.38525390625 116.33709716796876 212.21209716796875 133.45858764648438 210.618896484375 146.00350952148438 208.5760803222656 150.044677734375 208.20431518554688 152.52655029296875 208.326171875 153.365234375 210.24722290039065 152.94488525390625 210.871337890625 " />
        </svg>