<?xml version="1.0" standalone="no"?>
    <svg width="256" height="256" xmlns="http://www.w3.org/2000/svg" version="1.1">
    <polyline stroke="black" stroke-width="3" stroke-linecap="round" fill="transparent" stroke-linejoin="round" points="79.37701416015625 38.20918273925781 82.11383056640625 48.60905456542969 85.39801025390625 59.55628967285156 89.77691650390625 71.59825134277344 95.25051879882813 81.99812316894531 95.25051879882813 81.99812316894531 " />
        <polyline stroke="black" stroke-width="3" stroke-linecap="round" fill="transparent" stroke-linejoin="round" points="158.1971435546875 23.977767944335938 152.1761474609375 37.11445617675781 127.54486083984376 86.37702941894531 107.83984375 113.7451171875 82.11383056640625 140.5658416748047 64.0509033203125 156.43934631347656 64.0509033203125 156.43934631347656 " />
        <polyline stroke="black" stroke-width="3" stroke-linecap="round" fill="transparent" stroke-linejoin="round" points="61.8614501953125 98.41897583007813 72.26132202148438 104.98731994628906 93.60842895507813 115.93455505371094 126.99749755859376 129.6186065673828 154.9129638671875 140.0184783935547 177.90216064453125 149.87100219726563 193.228271484375 156.43934631347656 200.343994140625 160.8182373046875 200.343994140625 162.4603271484375 200.343994140625 162.4603271484375 " />
        <polyline stroke="black" stroke-width="3" stroke-linecap="round" fill="transparent" stroke-linejoin="round" points="88.68218994140625 169.02865600585938 89.22955322265625 178.8811798095703 89.77691650390625 190.37576293945313 89.77691650390625 201.322998046875 89.77691650390625 209.533447265625 88.13482666015625 214.45968627929688 88.13482666015625 214.45968627929688 88.13482666015625 214.45968627929688 " />
        <polyline stroke="black" stroke-width="3" stroke-linecap="round" fill="transparent" stroke-linejoin="round" points="100.72412109375 160.2708740234375 111.1240234375 154.24989318847656 124.80804443359376 147.68154907226563 140.13418579101563 142.7552947998047 154.3656005859375 140.5658416748047 165.3128662109375 143.3026580810547 172.97589111328125 152.06044006347656 177.90216064453125 169.02865600585938 178.44952392578125 187.63897705078125 171.88116455078125 202.965087890625 162.0286865234375 212.81759643554688 146.7025146484375 222.12277221679688 146.7025146484375 222.12277221679688 " />
        <polyline stroke="black" stroke-width="3" stroke-linecap="round" fill="transparent" stroke-linejoin="round" points="99.62939453125 209.533447265625 111.67138671875 200.22830200195313 123.16595458984376 193.11257934570313 137.39739990234375 183.80743408203125 151.0814208984375 173.95492553710938 162.5760498046875 164.64976501464844 162.5760498046875 164.64976501464844 " />
        <polyline stroke="black" stroke-width="3" stroke-linecap="round" fill="transparent" stroke-linejoin="round" points="141.77627563476563 159.1761474609375 137.39739990234375 169.02865600585938 133.56585693359375 181.61798095703125 129.73431396484375 194.20730590820313 123.71331787109376 205.701904296875 116.05026245117188 215.55441284179688 107.83984375 223.76483154296875 100.1767578125 229.23846435546875 95.25051879882813 231.42791748046875 95.25051879882813 231.42791748046875 102.3662109375 229.23846435546875 120.97650146484376 223.21749877929688 142.32363891601563 218.29122924804688 162.0286865234375 215.55441284179688 176.80743408203125 216.64913940429688 176.80743408203125 216.64913940429688 " />
        </svg>