<?xml version="1.0" standalone="no"?>
    <svg width="256" height="256" xmlns="http://www.w3.org/2000/svg" version="1.1">
    <polyline stroke="black" stroke-width="3" stroke-linecap="round" fill="transparent" stroke-linejoin="round" points="97 36 92 58 87 80 78 122 73 141 68 151 66 151 66 151 " />
        <polyline stroke="black" stroke-width="3" stroke-linecap="round" fill="transparent" stroke-linejoin="round" points="86 89 93 89 100 89 118 89 139 91 156 94 170 94 170 94 " />
        <polyline stroke="black" stroke-width="3" stroke-linecap="round" fill="transparent" stroke-linejoin="round" points="147 44 147 53 147 62 146 83 139 114 128 146 122 161 112 182 99 194 99 194 " />
        <polyline stroke="black" stroke-width="3" stroke-linecap="round" fill="transparent" stroke-linejoin="round" points="136 154 151 165 166 176 183 189 197 198 197 198 " />
        </svg>