<?xml version="1.0" standalone="no"?>
    <svg width="256" height="256" xmlns="http://www.w3.org/2000/svg" version="1.1">
    <polyline stroke="black" stroke-width="3" stroke-linecap="round" fill="transparent" stroke-linejoin="round" points="70.84747314453125 108.89950561523438 69.73223876953125 125.0705108642578 70.28985595703125 144.58721923828125 71.96273803710938 157.97010803222656 73.6356201171875 166.8920440673828 74.7508544921875 171.35301208496094 76.9813232421875 171.35301208496094 76.9813232421875 171.35301208496094 " />
        <polyline stroke="black" stroke-width="3" stroke-linecap="round" fill="transparent" stroke-linejoin="round" points="79.2117919921875 107.78427124023438 88.69134521484375 102.20806884765624 102.07424926757813 94.95899963378906 118.8028564453125 87.70993041992188 139.434814453125 83.24897766113281 153.37530517578125 83.80659484863281 162.8548583984375 88.26756286621094 168.98870849609375 95.51661682128906 174.00726318359375 110.57237243652344 174.56488037109375 125.6281280517578 171.77679443359375 137.33815002441406 168.43109130859375 144.02960205078125 163.4124755859375 149.04818725585938 154.4906005859375 150.72105407714844 138.319580078125 142.91436767578125 138.319580078125 142.91436767578125 " />
        <polyline stroke="black" stroke-width="3" stroke-linecap="round" fill="transparent" stroke-linejoin="round" points="118.8028564453125 54.810333251953125 116.5723876953125 82.69134521484375 116.0147705078125 112.2452392578125 117.1300048828125 139.01101684570313 118.2452392578125 161.3158416748047 119.9180908203125 178.60206604003906 121.5909423828125 191.4273376464844 122.1485595703125 199.23403930664065 122.1485595703125 199.23403930664065 " />
        </svg>