<?xml version="1.0" standalone="no"?>
    <svg width="256" height="256" xmlns="http://www.w3.org/2000/svg" version="1.1">
    <polyline stroke="black" stroke-width="3" stroke-linecap="round" fill="transparent" stroke-linejoin="round" points="72.68255615234375 109.92893981933594 73.5787353515625 119.33905029296876 74.02685546875 129.197265625 75.37115478515625 146.67320251464844 75.81927490234375 153.39471435546875 76.71542358398438 161.90863037109375 76.71542358398438 161.90863037109375 " />
        <polyline stroke="black" stroke-width="3" stroke-linecap="round" fill="transparent" stroke-linejoin="round" points="90.158447265625 101.86312866210938 95.53564453125 99.17449951171876 101.36102294921876 96.48590087890624 107.6343994140625 93.34919738769533 121.9736328125 89.31629943847656 129.14324951171875 88.42008972167969 143.48248291015625 89.764404296875 155.5811767578125 94.69351196289063 163.64697265625 101.86312866210938 171.2647705078125 114.40994262695313 174.84954833984375 128.3010711669922 175.297607421875 139.50360107421875 173.05712890625 148.46560668945313 169.02423095703125 152.94662475585938 160.06219482421875 156.08331298828125 160.06219482421875 156.08331298828125 " />
        <polyline stroke="black" stroke-width="3" stroke-linecap="round" fill="transparent" stroke-linejoin="round" points="116.596435546875 44.05810546875 117.04452514648438 55.26063537597656 117.49261474609376 68.25555419921875 119.28500366210938 122.47575378417967 119.73312377929688 138.15928649902344 121.077392578125 179.38455200195313 121.9736328125 204.47821044921875 121.9736328125 204.47821044921875 " />
        </svg>