<?xml version="1.0" standalone="no"?>
    <svg width="256" height="256" xmlns="http://www.w3.org/2000/svg" version="1.1">
    <polyline stroke="black" stroke-width="3" stroke-linecap="round" fill="transparent" stroke-linejoin="round" points="72.23443603515625 109.4808349609375 73.130615234375 116.65045166015624 74.92303466796875 131.8858642578125 76.71542358398438 146.67320251464844 77.61166381835938 159.2200164794922 77.61166381835938 167.28582763671875 77.16354370117188 171.766845703125 76.71542358398438 173.11114501953125 75.81927490234375 173.5592498779297 75.81927490234375 173.5592498779297 " />
        <polyline stroke="black" stroke-width="3" stroke-linecap="round" fill="transparent" stroke-linejoin="round" points="77.16354370117188 86.17959594726563 82.540771484375 83.9390869140625 95.08758544921876 79.90617370605469 102.25717163085938 78.56187438964844 123.76605224609376 79.00997924804688 137.20907592773438 83.04287719726563 148.41156005859375 88.86819458007813 156.4774169921875 96.93400573730467 163.19891357421875 110.37704467773438 166.78369140625 124.26815795898438 167.679931640625 135.47068786621094 166.33563232421875 143.08837890625 163.64697265625 147.56942749023438 159.6141357421875 149.80990600585938 149.30780029296875 147.56942749023438 149.30780029296875 147.56942749023438 " />
        <polyline stroke="black" stroke-width="3" stroke-linecap="round" fill="transparent" stroke-linejoin="round" points="115.25213623046876 59.293548583984375 118.38885498046876 85.28338623046875 119.73312377929688 97.38211059570313 121.52557373046876 122.47575378417967 122.42172241210938 148.46560668945313 121.9736328125 174.00735473632813 119.28500366210938 198.65289306640625 115.7001953125 219.2655334472656 115.7001953125 219.2655334472656 " />
        </svg>