<?xml version="1.0" standalone="no"?>
    <svg width="256" height="256" xmlns="http://www.w3.org/2000/svg" version="1.1">
    <polyline stroke="black" stroke-width="3" stroke-linecap="round" fill="transparent" stroke-linejoin="round" points="67.96307373046875 100.42816162109376 68.33709716796875 107.90878295898438 68.71112060546875 115.763427734375 69.08514404296875 129.97659301757813 69.08514404296875 140.07542419433594 69.08514404296875 143.0676727294922 69.08514404296875 145.31185913085938 68.33709716796875 147.18199157714844 67.58905029296875 146.43394470214844 67.21502685546875 138.95333862304688 69.45919799804688 124.74015808105467 73.94757080078125 110.90103149414063 80.30609130859375 99.30607604980467 88.90878295898438 89.955322265625 101.25180053710938 81.72662353515625 114.71688842773438 77.23825073242188 126.31185913085938 77.986328125 136.41064453125 85.84097290039063 149.50177001953125 113.89328002929688 151.7459716796875 131.0986785888672 150.99789428710938 137.4571990966797 147.631591796875 146.43394470214844 140.52499389648438 150.54827880859375 136.41064453125 149.05215454101563 118.08319091796876 114.64134216308594 109.1064453125 79.10841369628906 106.48822021484376 61.528961181640625 106.48822021484376 56.29254150390625 106.48822021484376 55.91850280761719 108.732421875 64.52120971679688 110.6025390625 77.23825073242188 116.2130126953125 127.73240661621094 120.32736206054688 161.02114868164063 122.571533203125 177.47848510742188 127.05990600585938 222.7362365722656 128.18197631835938 233.9571533203125 128.18197631835938 233.9571533203125 " />
        </svg>