<?xml version="1.0" standalone="no"?>
    <svg width="256" height="256" xmlns="http://www.w3.org/2000/svg" version="1.1">
    <polyline stroke="black" stroke-width="3" stroke-linecap="round" fill="transparent" stroke-linejoin="round" points="61.03192138671875 109.03274536132813 79.85214233398438 104.99981689453124 90.158447265625 102.7593231201172 112.11541748046876 97.38211059570313 132.27996826171875 91.55679321289063 147.0672607421875 85.28338623046875 151.99639892578125 82.59478759765625 151.99639892578125 82.59478759765625 " />
        <polyline stroke="black" stroke-width="3" stroke-linecap="round" fill="transparent" stroke-linejoin="round" points="126.90277099609376 39.12901306152344 122.42172241210938 38.68090057373047 114.80404663085938 40.47331237792969 111.21920776367188 43.16191101074219 90.158447265625 77.66567993164063 73.130615234375 117.09854125976563 61.48004150390625 151.15420532226563 54.310394287109375 173.11114501953125 51.1737060546875 180.72886657714844 51.1737060546875 180.72886657714844 " />
        <polyline stroke="black" stroke-width="3" stroke-linecap="round" fill="transparent" stroke-linejoin="round" points="91.50277709960938 140.3997802734375 98.67236328125 147.56942749023438 107.186279296875 156.08331298828125 124.214111328125 173.5592498779297 150.652099609375 196.41238403320313 156.029296875 199.10101318359375 162.302734375 199.9971923828125 162.302734375 199.9971923828125 " />
        <polyline stroke="black" stroke-width="3" stroke-linecap="round" fill="transparent" stroke-linejoin="round" points="191.87738037109375 66.9112548828125 186.9482421875 76.32138061523438 182.0191650390625 85.73149108886719 176.6419677734375 94.69351196289063 164.543212890625 118.89096069335938 160.95843505859375 128.74917602539063 160.06219482421875 135.02256774902344 161.406494140625 138.60739135742188 164.0950927734375 140.3997802734375 169.92041015625 141.29598999023438 177.98626708984375 140.3997802734375 184.707763671875 138.15928649902344 190.5330810546875 133.6782684326172 194.56597900390625 128.3010711669922 196.8065185546875 123.37197875976563 197.70263671875 119.7871551513672 197.70263671875 117.546630859375 198.1507568359375 116.20233154296876 199.0469970703125 115.30615234375 201.2874755859375 115.75424194335938 205.76849365234375 118.44285583496094 212.489990234375 125.1643524169922 221.900146484375 139.05548095703125 226.8292236328125 149.80990600585938 226.8292236328125 149.80990600585938 " />
        </svg>