<?xml version="1.0" standalone="no"?>
    <svg width="256" height="256" xmlns="http://www.w3.org/2000/svg" version="1.1">
    <polyline stroke="black" stroke-width="3" stroke-linecap="round" fill="transparent" stroke-linejoin="round" points="50.9237060546875 96.63186645507813 64.86419677734375 92.1708984375 86.05377197265625 85.47944641113281 103.89764404296876 78.78800964355469 120.06863403320313 72.65419006347656 131.7786865234375 67.63560485839844 137.3548583984375 63.73225402832031 137.3548583984375 63.73225402832031 " />
        <polyline stroke="black" stroke-width="3" stroke-linecap="round" fill="transparent" stroke-linejoin="round" points="83.82330322265625 62.61701965332031 77.13186645507813 101.65045166015624 68.767578125 134.550048828125 59.28802490234375 164.10394287109375 52.5965576171875 181.9477996826172 47.020355224609375 195.8883056640625 43.67462158203125 202.57974243164065 42.55938720703125 202.57974243164065 42.55938720703125 202.57974243164065 " />
        <polyline stroke="black" stroke-width="3" stroke-linecap="round" fill="transparent" stroke-linejoin="round" points="91.0723876953125 130.08909606933594 105.57049560546876 137.33815002441406 131.7786865234375 154.0667724609375 151.29541015625 167.4496612548828 168.02398681640625 179.71731567382813 181.9644775390625 190.8697204589844 189.21356201171875 197.0035400390625 198.135498046875 198.1187744140625 198.135498046875 198.1187744140625 " />
        <polyline stroke="black" stroke-width="3" stroke-linecap="round" fill="transparent" stroke-linejoin="round" points="163.00537109375 76.55752563476563 157.98681640625 89.94041442871094 152.41064453125 104.43855285644533 147.94964599609375 117.26382446289063 145.71917724609375 127.85861206054688 145.71917724609375 133.992431640625 145.71917724609375 137.89578247070313 147.39202880859375 139.56863403320313 150.73776245117188 139.56863403320313 156.31396484375 137.89578247070313 163.56304931640625 135.10768127441406 172.4849853515625 130.64671325683594 181.4068603515625 126.1857452392578 187.54071044921875 120.60954284667967 195.347412109375 107.22665405273438 196.462646484375 96.63186645507813 194.789794921875 91.61328125 194.789794921875 89.38279724121094 194.789794921875 89.38279724121094 194.789794921875 92.1708984375 196.462646484375 97.18948364257813 199.808349609375 107.22665405273438 206.49981689453125 123.39764404296876 213.7489013671875 139.01101684570313 219.3250732421875 158.52774047851563 219.3250732421875 158.52774047851563 " />
        </svg>