<?xml version="1.0" standalone="no"?>
    <svg width="256" height="256" xmlns="http://www.w3.org/2000/svg" version="1.1">
    <polyline stroke="black" stroke-width="3" stroke-linecap="round" fill="transparent" stroke-linejoin="round" points="75.87106323242188 128.26202392578125 90.54440307617188 128.9613800048828 97.18240356445313 128.6116943359375 102.77230834960938 128.6116943359375 106.96484375 127.91267395019533 109.75970458984376 127.91267395019533 111.8560791015625 127.56295776367188 112.9041748046875 127.21360778808594 113.60287475585938 127.21360778808594 113.60287475585938 126.86392211914063 113.60287475585938 126.51457214355467 113.60287475585938 126.51457214355467 " />
        <polyline stroke="black" stroke-width="3" stroke-linecap="round" fill="transparent" stroke-linejoin="round" points="105.2181396484375 89.81137084960938 97.53176879882813 118.12509155273438 93.68890380859376 133.85501098632813 91.24310302734376 148.53622436523438 88.09896850585938 161.46969604492188 85.65353393554688 171.95631408691406 82.15969848632813 181.7435607910156 78.31649780273438 189.78338623046875 74.4736328125 197.12384033203125 71.32916259765625 202.71685791015625 68.18499755859375 207.2611389160156 66.08889770507813 210.406982421875 64.691162109375 212.50442504882813 63.992462158203125 213.5528259277344 63.643157958984375 214.25222778320313 64.34185791015625 213.2034912109375 64.34185791015625 211.10598754882813 64.34185791015625 211.10598754882813 " />
        <polyline stroke="black" stroke-width="3" stroke-linecap="round" fill="transparent" stroke-linejoin="round" points="124.78237915039063 154.47860717773438 142.9495849609375 172.65536499023438 160.7674560546875 187.6859436035156 169.15216064453125 192.57992553710935 177.53692626953125 196.07546997070313 185.2232666015625 199.57101440429688 192.9093017578125 202.3671875 200.2459716796875 205.1636657714844 206.53466796875 206.91140747070313 211.77520751953125 207.96017456054688 215.6180419921875 208.30984497070313 219.461181640625 207.96017456054688 222.60540771484375 207.96017456054688 225.0511474609375 206.91140747070313 227.14727783203125 204.464599609375 227.14727783203125 204.464599609375 " />
        <polyline stroke="black" stroke-width="3" stroke-linecap="round" fill="transparent" stroke-linejoin="round" points="178.58526611328125 88.76261901855469 175.0914306640625 102.3954620361328 174.74212646484375 109.03684997558594 174.3927001953125 114.6295166015625 174.3927001953125 119.52351379394533 174.74212646484375 123.01904296875 174.74212646484375 125.81520080566406 175.4407958984375 127.91267395019533 175.7901611328125 129.31072998046875 176.48883056640625 130.35946655273438 177.53692626953125 130.70916748046875 178.58526611328125 131.0585174560547 180.33203125 131.408203125 182.07879638671875 131.0585174560547 184.87396240234375 130.70916748046875 188.01806640625 130.35946655273438 191.51190185546875 129.6604461669922 195.7041015625 128.9613800048828 200.2459716796875 127.91267395019533 205.13726806640625 126.16488647460938 210.02813720703125 124.7667999267578 214.91937255859375 123.36839294433594 218.7625732421875 122.31964111328124 221.90667724609375 120.92155456542967 224.3524169921875 120.2225341796875 226.4486083984375 119.1737823486328 226.4486083984375 119.1737823486328 " />
        <polyline stroke="black" stroke-width="3" stroke-linecap="round" fill="transparent" stroke-linejoin="round" points="225.74981689453125 116.37728881835938 224.70184326171875 143.29290771484375 224.70184326171875 156.22637939453125 224.70184326171875 167.76171875 225.0511474609375 178.94741821289063 225.0511474609375 178.94741821289063 " />
        </svg>