<?xml version="1.0" standalone="no"?>
    <svg width="256" height="256" xmlns="http://www.w3.org/2000/svg" version="1.1">
    <polyline stroke="black" stroke-width="3" stroke-linecap="round" fill="transparent" stroke-linejoin="round" points="56.291839599609375 113.05143737792967 76.03045654296875 110.28802490234376 97.34814453125 107.52464294433594 115.50765991210938 103.576904296875 128.53512573242188 98.05010986328124 133.27239990234375 94.49714660644533 133.27239990234375 94.49714660644533 " />
        <polyline stroke="black" stroke-width="3" stroke-linecap="round" fill="transparent" stroke-linejoin="round" points="97.34814453125 56.5989990234375 92.61083984375 69.62649536132813 75.24090576171875 119.3677978515625 62.608154296875 152.52865600585938 50.764984130859375 180.55747985839844 40.89569091796875 200.29608154296875 33.789794921875 212.9288024902344 31.81591796875 216.48175048828125 31.81591796875 216.48175048828125 " />
        <polyline stroke="black" stroke-width="3" stroke-linecap="round" fill="transparent" stroke-linejoin="round" points="97.34814453125 145.02798461914063 104.45404052734376 152.13388061523438 134.45672607421875 177.3992919921875 154.98486328125 193.979736328125 172.3548583984375 207.4019775390625 184.987548828125 215.69219970703125 190.9091796875 217.27130126953125 190.9091796875 217.27130126953125 " />
        <polyline stroke="black" stroke-width="3" stroke-linecap="round" fill="transparent" stroke-linejoin="round" points="161.30120849609375 92.91806030273438 154.590087890625 110.68280029296876 151.037109375 120.15733337402344 143.93124389648438 138.71163940429688 140.7730712890625 147.0018310546875 136.03582763671875 159.2397918701172 133.66717529296875 166.74046325683594 132.48284912109375 171.08294677734375 132.87762451171875 173.8463592529297 133.66717529296875 175.03067016601563 136.43060302734375 175.82022094726563 142.74691772460938 175.03067016601563 151.82666015625 171.87249755859375 161.69598388671875 166.74046325683594 170.7757568359375 160.02932739257813 176.6973876953125 152.92343139648438 176.6973876953125 152.92343139648438 " />
        <polyline stroke="black" stroke-width="3" stroke-linecap="round" fill="transparent" stroke-linejoin="round" points="191.303955078125 124.49981689453124 194.46209716796875 137.92208862304688 195.64642333984375 145.02798461914063 196.83074951171875 152.52865600585938 198.01507568359375 168.31954956054688 198.40985107421875 177.7940673828125 198.40985107421875 177.7940673828125 " />
        </svg>