<?xml version="1.0" standalone="no"?>
    <svg width="256" height="256" xmlns="http://www.w3.org/2000/svg" version="1.1">
    <polyline stroke="black" stroke-width="3" stroke-linecap="round" fill="transparent" stroke-linejoin="round" points="59 105 67 104 84 97 98 91 104 89 104 89 " />
        <polyline stroke="black" stroke-width="3" stroke-linecap="round" fill="transparent" stroke-linejoin="round" points="81 72 81 83 79 110 74 146 71 161 66 192 58 213 52 222 50 223 50 223 " />
        <polyline stroke="black" stroke-width="3" stroke-linecap="round" fill="transparent" stroke-linejoin="round" points="93 146 109 164 130 182 151 198 163 206 181 214 198 214 198 214 " />
        <polyline stroke="black" stroke-width="3" stroke-linecap="round" fill="transparent" stroke-linejoin="round" points="154 63 154 76 144 105 142 114 138 127 136 134 136 138 136 140 138 143 144 145 155 147 167 147 180 147 192 147 201 146 210 144 213 143 214 141 214 140 214 140 " />
        <polyline stroke="black" stroke-width="3" stroke-linecap="round" fill="transparent" stroke-linejoin="round" points="199 101 199 108 201 124 205 141 210 156 214 168 215 175 215 175 " />
        </svg>