<?xml version="1.0" standalone="no"?>
    <svg width="256" height="256" xmlns="http://www.w3.org/2000/svg" version="1.1">
    <polyline stroke="black" stroke-width="3" stroke-linecap="round" fill="transparent" stroke-linejoin="round" points="81.56698608398438 89.68836975097656 103.8800048828125 76.10655212402344 107.11376953125 74.16627502441406 127.48648071289063 66.40524291992188 143.97869873046875 60.58445739746094 156.913818359375 56.05717468261719 160.47088623046875 53.79354095458984 160.47088623046875 53.79354095458984 " />
        <polyline stroke="black" stroke-width="3" stroke-linecap="round" fill="transparent" stroke-linejoin="round" points="114.87478637695313 65.11172485351563 110.99429321289063 90.01174926757813 110.6708984375 109.09095764160156 110.3475341796875 121.37928771972656 110.3475341796875 123.64291381835938 110.3475341796875 123.64291381835938 " />
        <polyline stroke="black" stroke-width="3" stroke-linecap="round" fill="transparent" stroke-linejoin="round" points="42.76177978515625 140.78189086914063 93.53192138671876 114.91175842285156 128.13327026367188 109.09095764160156 160.47088623046875 106.18058776855467 182.78387451171875 105.21044921875 197.01251220703125 105.21044921875 197.01251220703125 105.21044921875 " />
        <polyline stroke="black" stroke-width="3" stroke-linecap="round" fill="transparent" stroke-linejoin="round" points="93.85528564453124 156.6273651123047 76.39297485351563 194.78579711914065 75.09945678710938 213.21826171875 75.42282104492188 219.3624267578125 77.68649291992188 224.21310424804688 80.92025756835938 223.88970947265625 87.38775634765625 196.07931518554688 91.268310546875 174.08966064453125 97.4124755859375 159.21437072753906 108.0838623046875 146.27926635742188 122.63583374023438 138.19488525390625 136.54104614257813 135.93124389648438 147.21246337890625 138.84161376953125 154.3267822265625 146.92604064941406 157.8839111328125 160.83123779296875 157.560546875 177.0000762939453 153.67999267578125 196.40267944335935 144.62548828125 210.63128662109375 136.54104614257813 220.0091857910156 127.80984497070313 222.59619140625 127.80984497070313 222.59619140625 " />
        <polyline stroke="black" stroke-width="3" stroke-linecap="round" fill="transparent" stroke-linejoin="round" points="88.35791015625 192.84555053710935 104.203369140625 186.05462646484375 120.04885864257813 181.85072326660156 130.07351684570313 180.2338409423828 138.15792846679688 179.9104766845703 142.6851806640625 180.55723571777344 142.36181640625 182.8208770751953 131.04360961914063 190.90530395507813 112.28778076171876 201.25335693359375 102.26312255859376 206.10400390625 97.4124755859375 208.6910095214844 98.382568359375 209.6611328125 110.3475341796875 209.9844970703125 127.16311645507813 208.04425048828125 145.9189453125 206.10400390625 145.9189453125 206.10400390625 " />
        </svg>