<?xml version="1.0" standalone="no"?>
    <svg width="256" height="256" xmlns="http://www.w3.org/2000/svg" version="1.1">
    <polyline stroke="black" stroke-width="3" stroke-linecap="round" fill="transparent" stroke-linejoin="round" points="62.726654052734375 60.40687561035156 44.399139404296875 89.955322265625 36.17047119140625 103.42041015625 29.43792724609375 113.51925659179688 18.96502685546875 129.228515625 12.23248291015625 137.83123779296875 9.240234375 141.945556640625 8.4921875 142.69363403320313 10.3623046875 140.07542419433594 21.583251953125 124.74015808105467 38.788665771484375 103.42041015625 54.49798583984375 89.20724487304688 70.20724487304688 80.60453796386719 86.29052734375 76.11616516113281 101.25180053710938 75.36811828613281 113.22079467773438 76.49020385742188 121.075439453125 78.3603515625 123.319580078125 79.10841369628906 123.319580078125 79.10841369628906 " />
        <polyline stroke="black" stroke-width="3" stroke-linecap="round" fill="transparent" stroke-linejoin="round" points="71.329345703125 141.197509765625 73.19952392578125 162.1432342529297 73.94757080078125 172.24205017089844 74.32159423828125 193.56182861328125 73.19952392578125 200.66839599609375 70.955322265625 202.91259765625 68.33709716796875 202.91259765625 68.33709716796875 202.91259765625 " />
        <polyline stroke="black" stroke-width="3" stroke-linecap="round" fill="transparent" stroke-linejoin="round" points="27.193695068359375 165.50950622558594 30.18597412109375 168.5017547607422 33.92626953125 171.49400329589844 38.788665771484375 174.11221313476563 53.0018310546875 175.98236083984375 73.19952392578125 168.12771606445313 91.5269775390625 153.16648864746094 103.8699951171875 142.31961059570313 109.48046875 137.4571990966797 110.9765625 136.33511352539063 109.8544921875 139.32736206054688 102.37387084960938 149.8002166748047 90.7789306640625 163.26531982421875 90.7789306640625 163.26531982421875 " />
        <polyline stroke="black" stroke-width="3" stroke-linecap="round" fill="transparent" stroke-linejoin="round" points="143.51727294921875 91.82545471191406 152.1199951171875 86.96305847167969 161.470703125 81.72662353515625 182.41644287109375 70.13168334960938 192.88934326171875 64.89524841308594 208.97265625 55.91850280761719 214.2091064453125 52.55223083496094 214.2091064453125 52.55223083496094 " />
        <polyline stroke="black" stroke-width="3" stroke-linecap="round" fill="transparent" stroke-linejoin="round" points="160.72265625 72.0018310546875 160.3486328125 80.60453796386719 159.6005859375 88.83322143554688 158.8525390625 102.67234802246094 158.478515625 107.90878295898438 158.1044921875 114.64134216308594 159.6005859375 115.763427734375 162.21881103515625 113.14520263671876 162.21881103515625 113.14520263671876 " />
        <polyline stroke="black" stroke-width="3" stroke-linecap="round" fill="transparent" stroke-linejoin="round" points="200.3699951171875 61.90299987792969 198.499755859375 70.13168334960938 192.14129638671875 88.08514404296875 187.27886962890625 97.0618896484375 175.6839599609375 112.39715576171876 166.3331298828125 120.25180053710938 160.72265625 123.24404907226563 159.2265625 123.61807250976563 158.8525390625 122.1219482421875 159.974609375 120.25180053710938 171.569580078125 110.5269775390625 177.5540771484375 106.78668212890624 191.7672119140625 100.80218505859376 194.75946044921875 100.80218505859376 194.75946044921875 100.80218505859376 " />
        <polyline stroke="black" stroke-width="3" stroke-linecap="round" fill="transparent" stroke-linejoin="round" points="141.2730712890625 159.52500915527344 152.8680419921875 155.7847137451172 177.5540771484375 144.56378173828125 195.881591796875 135.5870361328125 204.85833740234375 130.7246551513672 206.35443115234375 129.228515625 206.35443115234375 129.228515625 " />
        <polyline stroke="black" stroke-width="3" stroke-linecap="round" fill="transparent" stroke-linejoin="round" points="154.3641357421875 131.0986785888672 152.1199951171875 137.83123779296875 149.127685546875 161.02114868164063 149.87579345703125 172.6160888671875 151.7459716796875 180.8447723388672 153.9901123046875 184.5850830078125 160.72265625 181.5928192138672 167.08123779296875 174.11221313476563 167.08123779296875 174.11221313476563 " />
        <polyline stroke="black" stroke-width="3" stroke-linecap="round" fill="transparent" stroke-linejoin="round" points="206.72845458984375 135.5870361328125 198.873779296875 150.92230224609375 193.26336669921875 158.40292358398438 171.569580078125 177.85252380371094 158.8525390625 185.3331298828125 151.7459716796875 188.69940185546875 148.753662109375 189.82150268554688 148.379638671875 189.82150268554688 149.127685546875 189.82150268554688 160.3486328125 187.57733154296875 174.187744140625 184.9591064453125 190.6451416015625 183.8370056152344 190.6451416015625 183.8370056152344 " />
        </svg>