<?xml version="1.0" standalone="no"?>
    <svg width="256" height="256" xmlns="http://www.w3.org/2000/svg" version="1.1">
    <polyline stroke="black" stroke-width="3" stroke-linecap="round" fill="transparent" stroke-linejoin="round" points="84 97 84 97 84 96 85 96 86 96 89 97 90 97 94 97 96 97 102 97 104 97 116 95 123 94 131 92 135 91 146 88 149 87 152 87 155 87 " />
        <polyline stroke="black" stroke-width="3" stroke-linecap="round" fill="transparent" stroke-linejoin="round" points="85 137 85 137 82 138 81 138 80 138 80 138 85 137 87 137 95 135 98 135 109 133 113 132 121 130 129 129 141 126 145 124 148 123 151 121 " />
        <polyline stroke="black" stroke-width="3" stroke-linecap="round" fill="transparent" stroke-linejoin="round" points="121 62 119 62 119 63 117 70 116 74 112 90 111 97 108 118 107 126 107 155 108 169 110 181 112 186 116 199 118 202 125 210 127 212 134 215 141 216 149 217 164 215 167 214 177 210 179 209 186 204 188 202 191 199 191 197 191 192 190 191 187 186 185 184 184 183 " />
        </svg>