<?xml version="1.0" standalone="no"?>
    <svg width="256" height="256" xmlns="http://www.w3.org/2000/svg" version="1.1">
    <polyline stroke="black" stroke-width="3" stroke-linecap="round" fill="transparent" stroke-linejoin="round" points="74.93563842773438 100.02923583984376 90.94793701171876 90.9967041015625 104.9073486328125 83.60641479492188 119.68792724609376 77.03726196289063 132.41561889648438 72.52099609375 141.85873413085938 70.05755615234375 148.01727294921875 69.64698791503906 150.07015991210938 70.05755615234375 150.07015991210938 70.05755615234375 " />
        <polyline stroke="black" stroke-width="3" stroke-linecap="round" fill="transparent" stroke-linejoin="round" points="84.78936767578125 169.41574096679688 104.49676513671876 162.8466033935547 120.509033203125 157.09861755371094 128.30990600585938 154.224609375 147.606689453125 147.65548706054688 156.6392822265625 143.9603271484375 162.7978515625 139.85464477539063 162.7978515625 139.85464477539063 " />
        <polyline stroke="black" stroke-width="3" stroke-linecap="round" fill="transparent" stroke-linejoin="round" points="119.27731323242188 55.68757629394531 117.635009765625 84.0169677734375 113.11874389648438 109.47239685058594 108.19189453125 132.87493896484375 105.31787109375 151.76119995117188 104.086181640625 166.9523162841797 104.49676513671876 181.32229614257813 106.54962158203124 192.81829833984375 109.83419799804688 202.6719970703125 114.3504638671875 210.8834228515625 120.509033203125 217.0419921875 125.02532958984376 220.3265380859375 142.67987060546875 227.71682739257813 154.58642578125 230.18023681640625 164.44012451171875 230.5908203125 172.240966796875 229.76968383789065 178.3995361328125 227.71682739257813 182.91583251953125 224.84283447265625 186.20037841796875 221.147705078125 189.07440185546875 214.16796875 189.8955078125 203.9037170410156 189.07440185546875 198.5662841796875 189.07440185546875 198.5662841796875 " />
        </svg>