<?xml version="1.0" standalone="no"?>
    <svg width="256" height="256" xmlns="http://www.w3.org/2000/svg" version="1.1">
    <polyline stroke="black" stroke-width="3" stroke-linecap="round" fill="transparent" stroke-linejoin="round" points="58.172760009765625 49.79174041748047 58.172760009765625 63.17463684082031 58.172760009765625 102.76568603515624 55.942291259765625 140.6838836669922 54.8270263671875 173.58348083496094 54.2694091796875 193.1001892089844 54.8270263671875 207.04071044921875 55.3846435546875 213.17453002929688 55.3846435546875 213.17453002929688 " />
        <polyline stroke="black" stroke-width="3" stroke-linecap="round" fill="transparent" stroke-linejoin="round" points="62.63372802734375 81.57611083984375 75.458984375 70.4237060546875 87.72665405273438 64.84748840332031 105.01287841796876 59.27128601074219 132.3363037109375 53.69508361816406 149.62252807617188 52.02222442626953 166.35113525390625 51.46460723876953 181.9644775390625 53.13746643066406 192.559326171875 55.925567626953125 199.808349609375 60.38653564453125 207.05743408203125 75.44229125976563 210.9608154296875 113.9180908203125 206.49981689453125 149.04818725585938 200.365966796875 176.92921447753906 192.001708984375 200.90689086914065 192.001708984375 200.90689086914065 " />
        <polyline stroke="black" stroke-width="3" stroke-linecap="round" fill="transparent" stroke-linejoin="round" points="74.9013671875 93.84376525878906 83.82330322265625 106.11140441894533 90.5147705078125 112.2452392578125 101.10955810546876 117.82144165039063 117.838134765625 118.93667602539063 117.838134765625 118.93667602539063 " />
        <polyline stroke="black" stroke-width="3" stroke-linecap="round" fill="transparent" stroke-linejoin="round" points="164.12066650390625 91.0556640625 146.83441162109375 108.34188842773438 129.54818725585938 122.28240966796876 108.91622924804688 137.89578247070313 96.6485595703125 147.93295288085938 86.05377197265625 153.5091552734375 81.03521728515625 156.85487365722656 78.24710083007813 157.97010803222656 79.91998291015625 157.97010803222656 87.16903686523438 155.1820068359375 103.89764404296876 147.3753204345703 123.41436767578124 139.01101684570313 138.4700927734375 133.434814453125 148.50726318359375 130.08909606933594 156.87158203125 126.1857452392578 156.87158203125 126.1857452392578 " />
        <polyline stroke="black" stroke-width="3" stroke-linecap="round" fill="transparent" stroke-linejoin="round" points="121.74151611328124 92.1708984375 116.722900390625 103.88093566894533 108.35861206054688 129.53146362304688 102.22479248046876 148.49057006835938 96.0909423828125 166.3344268798828 91.0723876953125 179.71731567382813 87.16903686523438 188.6392517089844 87.16903686523438 188.6392517089844 " />
        <polyline stroke="black" stroke-width="3" stroke-linecap="round" fill="transparent" stroke-linejoin="round" points="111.704345703125 149.04818725585938 121.18389892578124 151.83628845214844 134.0091552734375 156.85487365722656 148.50726318359375 162.9886932373047 164.67828369140625 170.79537963867188 164.67828369140625 170.79537963867188 " />
        <polyline stroke="black" stroke-width="3" stroke-linecap="round" fill="transparent" stroke-linejoin="round" points="68.767578125 203.13735961914065 80.47760009765625 201.46450805664065 92.1876220703125 200.34927368164065 110.03146362304688 199.23403930664065 135.1243896484375 199.23403930664065 157.42919921875 200.34927368164065 174.7154541015625 201.46450805664065 187.54071044921875 202.57974243164065 195.905029296875 204.25262451171875 200.923583984375 206.48309326171875 200.923583984375 206.48309326171875 " />
        </svg>