<?xml version="1.0" standalone="no"?>
    <svg width="256" height="256" xmlns="http://www.w3.org/2000/svg" version="1.1">
    <polyline stroke="black" stroke-width="3" stroke-linecap="round" fill="transparent" stroke-linejoin="round" points="65.00518798828125 53.28025817871094 65.61416625976563 65.46018981933594 66.22314453125 100.17298889160156 65.00518798828125 131.84080505371094 63.78717041015625 161.0726318359375 63.17816162109375 179.95152282714844 63.17816162109375 195.17642211914065 62.569183349609375 204.31137084960935 61.960205078125 207.96536254882813 61.960205078125 207.96536254882813 " />
        <polyline stroke="black" stroke-width="3" stroke-linecap="round" fill="transparent" stroke-linejoin="round" points="74.14013671875 85.55706787109375 81.44805908203125 78.85810852050781 91.1920166015625 69.72315979003906 103.3719482421875 59.979217529296875 117.98785400390624 49.01728057861328 133.82177734375 40.4913330078125 150.26467895507813 37.44635009765625 166.09857177734375 42.318321228027344 179.4964599609375 56.934234619140625 193.50341796875 86.77507019042969 199.5933837890625 116.61589050292967 200.202392578125 142.802734375 196.54840087890625 167.16259765625 188.0224609375 190.30447387695313 181.323486328125 197.00341796875 181.323486328125 197.00341796875 " />
        <polyline stroke="black" stroke-width="3" stroke-linecap="round" fill="transparent" stroke-linejoin="round" points="103.98095703125 87.99305725097656 110.0709228515625 97.12800598144533 115.5518798828125 104.43595886230467 124.68682861328124 111.13491821289063 141.12973022460938 112.35292053222656 141.12973022460938 112.35292053222656 " />
        <polyline stroke="black" stroke-width="3" stroke-linecap="round" fill="transparent" stroke-linejoin="round" points="182.54150390625 60.58821105957031 169.7525634765625 81.29409790039063 151.482666015625 103.82696533203124 131.99478149414063 124.5328369140625 113.72488403320313 142.19374084472656 99.71795654296876 155.59165954589844 92.41000366210938 161.68162536621094 88.75604248046875 165.33560180664063 88.75604248046875 165.33560180664063 95.45498657226563 160.46363830566406 110.0709228515625 148.8927001953125 128.94979858398438 133.0587921142578 152.70068359375 106.26295471191406 152.70068359375 106.26295471191406 " />
        <polyline stroke="black" stroke-width="3" stroke-linecap="round" fill="transparent" stroke-linejoin="round" points="150.8736572265625 65.46018981933594 141.73870849609375 83.12107849121094 121.0328369140625 126.35983276367188 110.0709228515625 159.24563598632813 102.1539306640625 182.9964904785156 96.6729736328125 197.6124267578125 93.01901245117188 206.74737548828125 90.5830078125 209.7923583984375 90.5830078125 209.7923583984375 " />
        <polyline stroke="black" stroke-width="3" stroke-linecap="round" fill="transparent" stroke-linejoin="round" points="116.160888671875 152.5466766357422 136.25775146484375 156.20065307617188 147.82867431640625 159.24563598632813 158.181640625 162.8996124267578 165.48956298828125 167.16259765625 165.48956298828125 167.16259765625 " />
        <polyline stroke="black" stroke-width="3" stroke-linecap="round" fill="transparent" stroke-linejoin="round" points="70.48614501953125 211.61932373046875 86.32003784179688 209.183349609375 99.71795654296876 208.5743408203125 117.37884521484376 207.3563537597656 141.73870849609375 206.74737548828125 164.2716064453125 206.13836669921875 184.97747802734375 206.13836669921875 200.202392578125 210.40133666992188 200.202392578125 210.40133666992188 " />
        </svg>