<?xml version="1.0" standalone="no"?>
    <svg width="256" height="256" xmlns="http://www.w3.org/2000/svg" version="1.1">
    <polyline stroke="black" stroke-width="3" stroke-linecap="round" fill="transparent" stroke-linejoin="round" points="86.10760498046875 57.46296691894531 88.72210693359375 78.37953186035156 89.37579345703125 80.34048461914063 95.258544921875 90.79875183105467 96.56585693359376 91.452392578125 103.75592041015624 92.75968933105467 108.33148193359376 91.452392578125 124.67254638671876 84.91595458984375 124.67254638671876 84.91595458984375 " />
        <polyline stroke="black" stroke-width="3" stroke-linecap="round" fill="transparent" stroke-linejoin="round" points="146.89642333984375 69.88217163085938 143.628173828125 86.22325134277344 140.3599853515625 88.18418884277344 110.29241943359376 106.4862060546875 105.71685791015624 108.44712829589844 89.37579345703125 113.67626953125 80.87841796875 116.94448852539063 76.30291748046875 118.90542602539063 73.6883544921875 119.55908203125 77.6102294921875 118.90542602539063 86.76116943359375 116.94448852539063 103.102294921875 114.32991027832033 118.1361083984375 111.71533203125 135.78448486328125 108.44712829589844 154.08648681640625 104.52525329589844 172.38848876953125 99.29612731933594 184.154052734375 92.10604858398438 184.154052734375 92.10604858398438 " />
        <polyline stroke="black" stroke-width="3" stroke-linecap="round" fill="transparent" stroke-linejoin="round" points="131.20892333984375 46.35101318359375 116.1751708984375 62.69209289550781 113.56060791015624 71.189453125 101.7950439453125 109.10076904296876 99.8341064453125 115.63719177246094 91.3367919921875 138.5147247314453 83.49298095703125 160.08494567871094 77.6102294921875 169.8896026611328 75.6492919921875 174.46511840820313 78.91748046875 176.426025390625 78.91748046875 176.426025390625 " />
        <polyline stroke="black" stroke-width="3" stroke-linecap="round" fill="transparent" stroke-linejoin="round" points="108.98504638671876 113.67626953125 131.20892333984375 124.7882080078125 134.4771728515625 128.05642700195313 163.23748779296875 159.43130493164063 165.85205078125 162.0458984375 176.9639892578125 171.19688415527344 179.57855224609375 172.50418090820313 181.53948974609375 173.15782165527344 181.53948974609375 173.15782165527344 " />
        <polyline stroke="black" stroke-width="3" stroke-linecap="round" fill="transparent" stroke-linejoin="round" points="119.443359375 155.5094757080078 136.4381103515625 175.1187744140625 138.3990478515625 177.7333221435547 154.7401123046875 199.95721435546875 157.35467529296875 203.22543334960935 166.5057373046875 211.06915283203125 166.5057373046875 211.06915283203125 " />
        </svg>