<?xml version="1.0" standalone="no"?>
    <svg width="256" height="256" xmlns="http://www.w3.org/2000/svg" version="1.1">
    <polyline stroke="black" stroke-width="3" stroke-linecap="round" fill="transparent" stroke-linejoin="round" points="81.13629150390625 94.8860931396484 82.752685546875 96.0983428955078 84.36907958984375 97.3105926513672 90.02621459960938 97.71466064453124 90.02621459960938 97.71466064453124 " />
        <polyline stroke="black" stroke-width="3" stroke-linecap="round" fill="transparent" stroke-linejoin="round" points="157.50796508789063 76.29830932617188 143.7691650390625 90.44119262695313 130.03036499023438 104.58407592773438 130.03036499023438 104.58407592773438 " />
        <polyline stroke="black" stroke-width="3" stroke-linecap="round" fill="transparent" stroke-linejoin="round" points="49.617950439453125 159.1352081298828 61.74041748046875 155.49847412109375 73.86288452148438 151.8617401123047 87.60174560546875 147.0127410888672 114.27117919921876 138.52700805664063 149.022216796875 130.84945678710938 171.65087890625 127.21270751953124 171.65087890625 127.21270751953124 " />
        <polyline stroke="black" stroke-width="3" stroke-linecap="round" fill="transparent" stroke-linejoin="round" points="112.65484619140625 62.155395507812486 103.36093139648438 85.59219360351563 94.0670166015625 109.02899169921876 84.36907958984375 132.46575927734375 77.09555053710938 150.2454071044922 67.3975830078125 176.51077270507813 61.74041748046875 193.48223876953125 58.911865234375 204.79653930664065 58.911865234375 204.79653930664065 " />
        <polyline stroke="black" stroke-width="3" stroke-linecap="round" fill="transparent" stroke-linejoin="round" points="107.80572509765624 145.80047607421875 115.887451171875 148.2249755859375 123.96917724609376 150.64947509765625 132.05078125 153.88214111328125 141.34469604492188 157.92295837402344 160.3365478515625 168.83319091796875 187.41009521484375 189.84548950195313 200.74481201171875 204.3924560546875 200.74481201171875 204.3924560546875 " />
        <polyline stroke="black" stroke-width="3" stroke-linecap="round" fill="transparent" stroke-linejoin="round" points="126.79769897460938 193.07815551757813 126.79769897460938 193.07815551757813 126.79769897460938 193.07815551757813 " />
        </svg>