<?xml version="1.0" standalone="no"?>
    <svg width="256" height="256" xmlns="http://www.w3.org/2000/svg" version="1.1">
    <polyline stroke="black" stroke-width="3" stroke-linecap="round" fill="transparent" stroke-linejoin="round" points="95.26724243164063 70.13168334960938 98.259521484375 73.49795532226563 101.25180053710938 76.86422729492188 104.61810302734376 79.85647583007813 115.8389892578125 83.59677124023438 123.319580078125 82.84872436523438 131.17425537109375 80.23049926757813 131.17425537109375 80.23049926757813 " />
        <polyline stroke="black" stroke-width="3" stroke-linecap="round" fill="transparent" stroke-linejoin="round" points="179.42425537109375 42.45338439941406 150.99789428710938 72.3758544921875 122.571533203125 102.29832458496094 91.90106201171876 128.48046875 70.58126831054688 143.8157196044922 60.1083984375 149.8002166748047 56.74212646484375 151.29632568359375 58.238250732421875 149.4261932373047 74.69561767578125 139.32736206054688 102.74789428710938 124.74015808105467 136.78472900390625 110.5269775390625 153.2420654296875 104.54251098632813 190.2711181640625 91.82545471191406 201.8660888671875 84.7188720703125 201.8660888671875 84.7188720703125 " />
        <polyline stroke="black" stroke-width="3" stroke-linecap="round" fill="transparent" stroke-linejoin="round" points="124.44174194335938 46.94178771972656 113.59481811523438 80.97857666015625 102.74789428710938 115.01536560058594 87.03863525390625 167.75369262695313 80.30609130859375 191.691650390625 76.56576538085938 205.15676879882813 75.06964111328125 209.2711181640625 75.06964111328125 209.2711181640625 " />
        <polyline stroke="black" stroke-width="3" stroke-linecap="round" fill="transparent" stroke-linejoin="round" points="129.30410766601563 141.94558715820313 137.53277587890625 146.43394470214844 145.76144409179688 150.92230224609375 163.7149658203125 162.1432342529297 181.66839599609375 176.35638427734375 190.2711181640625 184.9591064453125 190.2711181640625 184.9591064453125 " />
        <polyline stroke="black" stroke-width="3" stroke-linecap="round" fill="transparent" stroke-linejoin="round" points="117.70916748046872 188.6994018554687 124.06768798828124 196.18002319335935 130.42620849609375 203.66064453125 130.42620849609375 203.66064453125 " />
        </svg>