<?xml version="1.0" standalone="no"?>
    <svg width="256" height="256" xmlns="http://www.w3.org/2000/svg" version="1.1">
    <polyline stroke="black" stroke-width="3" stroke-linecap="round" fill="transparent" stroke-linejoin="round" points="79.95892333984375 73.48631286621094 88.766357421875 89.63322448730469 90.9681396484375 93.30299377441406 92.43603515625 96.23880004882813 93.1700439453125 100.64248657226563 93.1700439453125 100.64248657226563 " />
        <polyline stroke="black" stroke-width="3" stroke-linecap="round" fill="transparent" stroke-linejoin="round" points="154.8218994140625 52.20170593261719 143.812744140625 80.82582092285156 140.1429443359375 90.3671875 139.408935546875 94.77088928222656 139.408935546875 94.77088928222656 " />
        <polyline stroke="black" stroke-width="3" stroke-linecap="round" fill="transparent" stroke-linejoin="round" points="65.27984619140625 124.1289520263672 96.10577392578124 113.1196746826172 123.9959716796875 105.7801513671875 149.684326171875 102.84437561035156 170.23486328125 101.37646484375 180.51025390625 100.64248657226563 184.9139404296875 100.64248657226563 184.1800537109375 100.64248657226563 183.446044921875 100.64248657226563 183.446044921875 100.64248657226563 " />
        <polyline stroke="black" stroke-width="3" stroke-linecap="round" fill="transparent" stroke-linejoin="round" points="121.79412841796876 32.385009765625 121.06011962890624 63.21098327636719 119.59222412109376 74.95419311523438 113.72064208984376 100.64248657226563 107.1151123046875 125.59684753417967 99.04156494140624 149.0832977294922 89.50030517578125 171.1018524169922 73.35333251953125 198.99200439453125 64.5458984375 212.203125 58.67425537109375 219.54266357421875 52.0687255859375 222.47845458984375 52.0687255859375 222.47845458984375 " />
        <polyline stroke="black" stroke-width="3" stroke-linecap="round" fill="transparent" stroke-linejoin="round" points="108.5830078125 112.3857421875 129.86767578125 136.6061248779297 140.1429443359375 146.8814697265625 165.0972900390625 165.9641876220703 191.51953125 182.84506225585935 215.006103515625 196.7901611328125 232.620849609375 207.06549072265625 240.6943359375 212.203125 240.6943359375 212.203125 " />
        <polyline stroke="black" stroke-width="3" stroke-linecap="round" fill="transparent" stroke-linejoin="round" points="118.8583984375 159.35862731933594 130.6015625 167.43209838867188 132.8033447265625 169.63394165039063 135.7391357421875 171.83580017089844 142.3447265625 179.17530822753906 142.3447265625 179.17530822753906 " />
        </svg>