<?xml version="1.0" standalone="no"?>
    <svg width="256" height="256" xmlns="http://www.w3.org/2000/svg" version="1.1">
    <polyline stroke="black" stroke-width="3" stroke-linecap="round" fill="transparent" stroke-linejoin="round" points="102 87 103 87 103 85 104 85 106 89 107 97 109 105 116 112 116 112 " />
        <polyline stroke="black" stroke-width="3" stroke-linecap="round" fill="transparent" stroke-linejoin="round" points="156 79 153 78 149 81 141 91 133 104 127 112 127 112 " />
        <polyline stroke="black" stroke-width="3" stroke-linecap="round" fill="transparent" stroke-linejoin="round" points="81 142 81 143 82 142 90 139 105 131 126 122 149 113 166 106 173 104 173 104 " />
        <polyline stroke="black" stroke-width="3" stroke-linecap="round" fill="transparent" stroke-linejoin="round" points="138 73 138 74 137 80 134 95 128 110 125 116 115 140 104 166 92 187 85 197 83 199 83 199 " />
        <polyline stroke="black" stroke-width="3" stroke-linecap="round" fill="transparent" stroke-linejoin="round" points="125 133 125 132 125 134 127 136 131 142 140 151 154 164 173 176 194 188 211 197 221 204 221 204 " />
        <polyline stroke="black" stroke-width="3" stroke-linecap="round" fill="transparent" stroke-linejoin="round" points="130 172 129 172 129 173 133 180 141 189 145 191 145 191 " />
        </svg>