<?xml version="1.0" standalone="no"?>
    <svg width="256" height="256" xmlns="http://www.w3.org/2000/svg" version="1.1">
    <polyline stroke="black" stroke-width="3" stroke-linecap="round" fill="transparent" stroke-linejoin="round" points="66.42181396484375 70.4237060546875 68.09469604492188 88.26756286621094 70.3251953125 101.65045166015624 75.34375 123.39764404296876 75.34375 123.39764404296876 " />
        <polyline stroke="black" stroke-width="3" stroke-linecap="round" fill="transparent" stroke-linejoin="round" points="65.30657958984375 66.52035522460938 82.59283447265625 53.69508361816406 98.2061767578125 45.888397216796875 127.76007080078124 36.96647644042969 143.37347412109375 34.735992431640625 158.98681640625 34.735992431640625 170.6968994140625 36.40885162353515 178.5035400390625 39.75457763671875 182.4068603515625 45.888397216796875 184.0797119140625 57.040802001953125 180.7340087890625 73.76942443847656 166.79351806640625 97.18948364257813 166.79351806640625 97.18948364257813 " />
        <polyline stroke="black" stroke-width="3" stroke-linecap="round" fill="transparent" stroke-linejoin="round" points="73.6708984375 94.40138244628906 84.26568603515625 92.1708984375 93.7452392578125 89.94041442871094 107.12811279296876 86.59469604492188 123.85675048828124 82.69134521484375 140.58535766601563 79.34562683105469 153.96826171875 75.99990844726563 160.65966796875 74.88465881347656 160.65966796875 74.88465881347656 " />
        <polyline stroke="black" stroke-width="3" stroke-linecap="round" fill="transparent" stroke-linejoin="round" points="88.72665405273438 118.93667602539063 103.78240966796876 116.70619201660156 116.607666015625 113.9180908203125 133.3363037109375 109.45713806152344 148.94964599609375 104.43855285644533 158.98681640625 101.65045166015624 158.98681640625 101.65045166015624 " />
        <polyline stroke="black" stroke-width="3" stroke-linecap="round" fill="transparent" stroke-linejoin="round" points="131.10580444335938 118.37905883789063 127.76007080078124 131.20433044433594 124.97198486328124 139.56863403320313 120.51101684570313 149.60580444335938 114.377197265625 159.08535766601563 103.78240966796876 169.12252807617188 88.16903686523438 178.60206604003906 73.6708984375 184.17828369140625 65.30657958984375 186.96636962890625 61.40325927734375 188.08160400390625 59.73040771484375 188.08160400390625 61.96087646484375 187.52398681640625 72.5556640625 185.29351806640625 95.9757080078125 181.39016723632813 127.20245361328124 179.15969848632813 151.18017578125 178.04444885253906 171.8121337890625 177.48683166503906 183.5220947265625 177.48683166503906 188.54071044921875 179.15969848632813 188.54071044921875 179.15969848632813 " />
        </svg>