<?xml version="1.0" standalone="no"?>
    <svg width="256" height="256" xmlns="http://www.w3.org/2000/svg" version="1.1">
    <polyline stroke="black" stroke-width="3" stroke-linecap="round" fill="transparent" stroke-linejoin="round" points="21.353607177734375 121.22000122070313 36.82659912109375 119.89373779296876 51.8575439453125 116.79916381835938 68.2147216796875 113.70452880859376 82.36151123046875 111.49411010742188 93.41366577148438 107.9573974609375 96.95037841796876 106.18907165527344 99.60287475585938 103.9786376953125 99.60287475585938 103.9786376953125 " />
        <polyline stroke="black" stroke-width="3" stroke-linecap="round" fill="transparent" stroke-linejoin="round" points="60.69927978515625 81.43223571777344 56.720458984375 94.69482421875 54.067962646484375 105.30490112304688 48.762939453125 129.17755126953125 44.784149169921875 150.83978271484375 44.342041015625 164.98654174804688 44.784149169921875 172.5019989013672 45.22625732421875 174.27035522460938 45.22625732421875 174.27035522460938 " />
        <polyline stroke="black" stroke-width="3" stroke-linecap="round" fill="transparent" stroke-linejoin="round" points="88.55072021484375 73.91677856445313 87.22445678710938 87.62144470214844 86.34027099609375 94.69482421875 85.45611572265625 101.7681884765625 84.12985229492188 109.72575378417967 82.36151123046875 116.79916381835938 78.38275146484375 129.61962890625 72.19354248046875 142.88223266601563 64.67803955078125 153.93438720703125 58.0467529296875 161.44985961914063 53.62591552734375 165.4286346435547 51.41546630859375 167.63906860351563 50.973358154296875 168.08114624023438 51.41546630859375 168.08114624023438 54.9521484375 167.19696044921875 62.0255126953125 164.54446411132813 69.54098510742188 161.44985961914063 69.54098510742188 161.44985961914063 " />
        <polyline stroke="black" stroke-width="3" stroke-linecap="round" fill="transparent" stroke-linejoin="round" points="114.6337890625 98.673583984375 125.24386596679688 90.27395629882813 131.43307495117188 87.17935180664063 138.50643920898438 84.08474731445313 145.579833984375 80.99014282226563 161.4949951171875 75.24302673339844 175.19964599609375 72.14842224121094 184.4833984375 71.26425170898438 187.57806396484375 72.14842224121094 187.57806396484375 72.14842224121094 " />
        <polyline stroke="black" stroke-width="3" stroke-linecap="round" fill="transparent" stroke-linejoin="round" points="102.69744873046876 144.65057373046875 126.12802124023438 138.46136474609375 145.579833984375 134.4825897216797 167.2420654296875 130.94589233398438 186.69384765625 128.2933807373047 201.28271484375 125.64085388183594 205.261474609375 124.75669860839844 205.261474609375 124.75669860839844 " />
        <polyline stroke="black" stroke-width="3" stroke-linecap="round" fill="transparent" stroke-linejoin="round" points="142.48519897460938 39.876121520996094 135.85394287109375 70.38008117675781 132.31723022460938 85.85308837890625 128.780517578125 103.09446716308594 119.93881225585938 155.70272827148438 115.07589721679688 190.6275634765625 112.42333984375 204.33221435546875 111.09710693359376 209.63726806640625 111.09710693359376 209.63726806640625 " />
        <polyline stroke="black" stroke-width="3" stroke-linecap="round" fill="transparent" stroke-linejoin="round" points="158.40032958984375 54.02288055419922 155.3057861328125 73.47468566894531 153.9794921875 95.13690185546876 153.9794921875 107.51535034179688 154.42156982421875 131.83006286621094 154.8636474609375 153.49229431152344 153.537353515625 176.0386962890625 152.21112060546875 190.1854553222656 152.21112060546875 190.1854553222656 " />
        </svg>