<?xml version="1.0" standalone="no"?>
    <svg width="256" height="256" xmlns="http://www.w3.org/2000/svg" version="1.1">
    <polyline stroke="black" stroke-width="3" stroke-linecap="round" fill="transparent" stroke-linejoin="round" points="39.71258544921875 118.7798767089844 46.71673583984375 118.4463348388672 53.72088623046875 118.11279296875 60.725067138671875 117.44573974609376 68.062744140625 116.77867126464844 80.06988525390625 116.1116180419922 85.40634155273438 115.11102294921876 98.74761962890624 111.4421844482422 101.7493896484375 109.77452087402344 101.7493896484375 109.77452087402344 " />
        <polyline stroke="black" stroke-width="3" stroke-linecap="round" fill="transparent" stroke-linejoin="round" points="63.05975341796875 70.75135803222656 61.72564697265625 81.09083557128906 60.39154052734375 91.43031311035156 58.39031982421875 102.77037048339844 54.054443359375 136.12347412109375 53.38739013671875 152.46652221679688 54.054443359375 162.138916015625 55.72210693359375 168.47601318359375 58.05682373046875 170.47720336914063 58.05682373046875 170.47720336914063 " />
        <polyline stroke="black" stroke-width="3" stroke-linecap="round" fill="transparent" stroke-linejoin="round" points="94.07815551757813 81.4243621826172 93.74462890625 86.7608642578125 93.41110229492188 92.0973663330078 90.40936279296876 119.11338806152344 86.740478515625 140.1258544921875 82.73812866210938 152.800048828125 82.73812866210938 152.800048828125 " />
        <polyline stroke="black" stroke-width="3" stroke-linecap="round" fill="transparent" stroke-linejoin="round" points="71.39801025390625 169.47662353515625 74.0662841796875 168.14248657226563 76.73455810546875 166.808349609375 82.73812866210938 163.47305297851563 82.73812866210938 163.47305297851563 " />
        <polyline stroke="black" stroke-width="3" stroke-linecap="round" fill="transparent" stroke-linejoin="round" points="142.106689453125 86.76089477539063 147.44317626953125 84.42616271972656 152.7796630859375 82.0914306640625 158.11614990234375 80.09024047851563 163.45263671875 78.08905029296875 173.4586181640625 75.75433349609375 183.798095703125 73.75314331054688 183.798095703125 73.75314331054688 " />
        <polyline stroke="black" stroke-width="3" stroke-linecap="round" fill="transparent" stroke-linejoin="round" points="116.09124755859375 144.12826538085938 131.7672119140625 140.79293823242188 147.44317626953125 137.45761108398438 156.7821044921875 135.4564208984375 165.787353515625 134.12229919433594 182.7974853515625 130.1199188232422 196.13873291015625 126.78460693359376 205.4776611328125 123.1157684326172 209.146484375 121.11459350585938 209.146484375 121.11459350585938 " />
        <polyline stroke="black" stroke-width="3" stroke-linecap="round" fill="transparent" stroke-linejoin="round" points="143.44073486328125 62.74661254882814 142.440185546875 76.75492858886719 141.43963623046875 90.76324462890624 139.10491943359375 120.11398315429688 136.10311889648438 149.13121032714844 134.10189819335938 161.80538940429688 130.43307495117188 184.81906127929688 126.76425170898438 200.82855224609375 126.76425170898438 200.82855224609375 " />
        <polyline stroke="black" stroke-width="3" stroke-linecap="round" fill="transparent" stroke-linejoin="round" points="165.12042236328125 25.39111328125 166.1209716796875 36.39764404296875 167.12152099609375 47.4041748046875 168.4556884765625 60.078369140625 169.45623779296875 72.7525634765625 170.7904052734375 100.43565368652344 171.45745849609375 131.78758239746094 171.45745849609375 164.8071746826172 170.123291015625 193.4908447265625 170.123291015625 193.4908447265625 " />
        </svg>