<?xml version="1.0" standalone="no"?>
    <svg width="256" height="256" xmlns="http://www.w3.org/2000/svg" version="1.1">
    <polyline stroke="black" stroke-width="3" stroke-linecap="round" fill="transparent" stroke-linejoin="round" points="44.83453369140625 118.26174926757811 62.549774169921875 111.52995300292967 80.2650146484375 104.79815673828124 89.12265014648438 101.6094207763672 104.00341796875 96.29484558105467 120.30148315429688 86.37429809570313 120.30148315429688 86.37429809570313 " />
        <polyline stroke="black" stroke-width="3" stroke-linecap="round" fill="transparent" stroke-linejoin="round" points="74.59613037109375 66.53323364257811 71.40740966796875 79.99681091308594 68.21868896484375 93.46038818359376 64.3212890625 123.22201538085938 63.258392333984375 136.33128356933594 62.549774169921875 146.2518310546875 62.904052734375 156.8809814453125 63.6126708984375 158.29820251464844 63.6126708984375 158.29820251464844 " />
        <polyline stroke="black" stroke-width="3" stroke-linecap="round" fill="transparent" stroke-linejoin="round" points="109.31805419921875 77.87100219726563 105.06637573242188 93.10610961914063 100.814697265625 108.34121704101563 96.208740234375 123.22201538085938 86.64251708984375 149.79489135742188 83.09945678710938 159.36111450195313 83.09945678710938 159.36111450195313 " />
        <polyline stroke="black" stroke-width="3" stroke-linecap="round" fill="transparent" stroke-linejoin="round" points="67.51010131835938 172.47039794921875 75.30477905273438 168.21873474121094 83.09945678710938 163.96707153320313 91.95709228515624 159.36111450195313 102.23193359375 153.3379364013672 102.23193359375 153.3379364013672 " />
        <polyline stroke="black" stroke-width="3" stroke-linecap="round" fill="transparent" stroke-linejoin="round" points="146.165771484375 107.63256835937503 150.41741943359375 104.08953857421876 154.6690673828125 100.5465087890625 159.62933349609375 96.64913940429688 164.589599609375 93.10610961914063 173.801513671875 87.79153442382813 177.69891357421875 85.66571044921875 177.69891357421875 85.66571044921875 " />
        <polyline stroke="black" stroke-width="3" stroke-linecap="round" fill="transparent" stroke-linejoin="round" points="110.73529052734375 148.73194885253906 122.42733764648438 145.18890380859375 134.119384765625 141.64585876464844 145.81146240234375 137.74851989746094 166.7154541015625 129.5994873046875 176.990234375 124.63922119140624 187.9737548828125 118.26174926757813 197.1856689453125 110.8213348388672 208.87774658203125 94.16902160644533 208.87774658203125 94.16902160644533 " />
        <polyline stroke="black" stroke-width="3" stroke-linecap="round" fill="transparent" stroke-linejoin="round" points="141.55975341796875 73.61933898925781 138.37103271484375 92.04318237304688 135.18231201171875 110.46702575683594 133.05645751953125 126.0564422607422 129.86767578125 158.29820251464844 128.80477905273438 182.39093017578125 128.09619140625 196.56314086914065 128.09619140625 199.75189208984375 128.09619140625 199.75189208984375 " />
        <polyline stroke="black" stroke-width="3" stroke-linecap="round" fill="transparent" stroke-linejoin="round" points="166.7154541015625 47.400787353515625 166.0068359375 64.40740966796875 165.2982177734375 81.41403198242188 164.589599609375 101.25511169433594 163.5267333984375 133.85116577148438 163.17236328125 147.3147430419922 163.17236328125 172.1160888671875 162.81805419921875 196.91741943359375 163.17236328125 213.924072265625 163.17236328125 213.924072265625 " />
        </svg>