<?xml version="1.0" standalone="no"?>
    <svg width="256" height="256" xmlns="http://www.w3.org/2000/svg" version="1.1">
    <polyline stroke="black" stroke-width="3" stroke-linecap="round" fill="transparent" stroke-linejoin="round" points="47.488861083984375 84.94062805175781 65.61434936523438 78.309326171875 71.36151123046875 76.98307800292969 82.41366577148438 75.2147216796875 87.276611328125 74.33056640625 95.67623901367188 72.56221008300781 102.74960327148438 70.79386901855469 102.74960327148438 70.79386901855469 " />
        <polyline stroke="black" stroke-width="3" stroke-linecap="round" fill="transparent" stroke-linejoin="round" points="64.2880859375 43.82659912109375 60.751434326171875 61.067962646484375 55.446380615234375 95.99278259277344 48.373016357421875 148.15896606445313 46.162567138671875 174.24205017089844 45.720458984375 183.0837860107422 47.0467529296875 193.25177001953125 47.0467529296875 193.25177001953125 " />
        <polyline stroke="black" stroke-width="3" stroke-linecap="round" fill="transparent" stroke-linejoin="round" points="105.84423828125 19.51185607910156 101.42333984375 36.31114196777344 99.212890625 47.805381774902344 97.444580078125 59.74171447753906 91.69744873046876 100.85574340820313 89.92913818359375 112.3499755859375 86.39242553710938 132.24386596679688 82.41366577148438 149.48521423339844 78.43487548828125 163.63198852539063 74.898193359375 176.01040649414063 70.477294921875 184.85211181640625 66.49853515625 191.04132080078125 63.4039306640625 195.0201110839844 61.19354248046875 196.7884521484375 59.4251708984375 197.67263793945313 57.656829833984375 198.11471557617188 55.88848876953125 198.11471557617188 54.562225341796875 198.11471557617188 53.67803955078125 198.11471557617188 54.1201171875 197.23052978515625 58.098876953125 195.46218872070313 64.73019409179688 192.8096923828125 72.687744140625 189.27297973632813 82.41366577148438 183.9679412841797 82.41366577148438 183.9679412841797 " />
        <polyline stroke="black" stroke-width="3" stroke-linecap="round" fill="transparent" stroke-linejoin="round" points="111.59130859375 109.25537109375 142.97946166992188 103.066162109375 158.01043701171875 99.9715576171875 171.715087890625 97.76113891601563 183.2093505859375 95.99278259277344 188.072265625 95.10861206054688 199.12445068359375 94.22444152832033 201.3348388671875 94.22444152832033 201.3348388671875 94.22444152832033 " />
        <polyline stroke="black" stroke-width="3" stroke-linecap="round" fill="transparent" stroke-linejoin="round" points="114.24386596679688 158.76902770996094 135.4639892578125 154.79025268554688 146.07406616210938 152.579833984375 155.79998779296875 150.81149291992188 165.52587890625 149.0431365966797 182.76727294921875 146.83270263671875 197.3560791015625 145.06436157226563 211.060791015625 142.41184997558594 211.060791015625 142.41184997558594 " />
        <polyline stroke="black" stroke-width="3" stroke-linecap="round" fill="transparent" stroke-linejoin="round" points="153.1474609375 88.03523254394531 146.07406616210938 103.066162109375 142.09530639648438 111.4658203125 138.11654663085938 119.86544799804688 133.69564819335938 130.9176025390625 124.411865234375 151.2535858154297 119.54891967773438 161.86363220214844 110.70721435546876 179.54708862304688 104.96005249023438 190.5992431640625 101.86544799804688 195.904296875 101.86544799804688 195.904296875 " />
        <polyline stroke="black" stroke-width="3" stroke-linecap="round" fill="transparent" stroke-linejoin="round" points="179.672607421875 46.92120361328125 180.9989013671875 60.625885009765625 180.9989013671875 69.46760559082031 180.9989013671875 80.96185302734375 178.7884521484375 118.09710693359376 175.69384765625 144.62228393554688 172.15716552734375 167.6107635498047 164.19964599609375 207.84060668945313 164.19964599609375 207.84060668945313 " />
        </svg>