<?xml version="1.0" standalone="no"?>
    <svg width="256" height="256" xmlns="http://www.w3.org/2000/svg" version="1.1">
    <polyline stroke="black" stroke-width="3" stroke-linecap="round" fill="transparent" stroke-linejoin="round" points="100 27 102 28 103 31 104 31 107 37 108 41 108 50 108 61 108 67 104 84 103 95 100 107 100 114 99 120 99 124 98 128 97 132 97 135 97 142 95 147 94 154 94 159 91 172 91 180 90 189 89 197 89 204 87 214 87 216 87 218 87 219 86 219 83 219 82 217 81 217 80 215 79 212 76 209 75 205 71 201 70 199 69 198 67 195 65 192 63 190 62 189 61 187 60 186 59 185 59 184 58 183 58 183 57 182 57 182 " />
        <polyline stroke="black" stroke-width="3" stroke-linecap="round" fill="transparent" stroke-linejoin="round" points="107 99 109 99 109 99 108 103 104 107 99 110 92 114 83 118 74 120 67 123 61 125 53 129 47 131 43 132 39 134 35 135 27 139 24 140 21 141 19 142 18 142 16 143 15 143 15 143 " />
        <polyline stroke="black" stroke-width="3" stroke-linecap="round" fill="transparent" stroke-linejoin="round" points="166 37 166 43 166 47 166 56 166 73 166 81 164 109 162 132 158 158 155 180 153 200 152 211 151 219 151 226 150 229 150 231 150 233 150 235 150 237 150 239 150 241 150 243 150 244 150 243 148 235 148 235 " />
        <polyline stroke="black" stroke-width="3" stroke-linecap="round" fill="transparent" stroke-linejoin="round" points="154 113 154 112 154 113 155 113 156 114 157 115 159 115 159 115 162 118 167 122 171 124 172 124 172 125 175 127 175 127 177 128 179 128 180 130 182 131 183 131 185 133 187 134 191 137 192 138 195 139 198 141 200 142 202 143 204 144 207 146 208 146 208 147 210 147 210 147 " />
        </svg>