<?xml version="1.0" standalone="no"?>
    <svg width="256" height="256" xmlns="http://www.w3.org/2000/svg" version="1.1">
    <polyline stroke="black" stroke-width="3" stroke-linecap="round" fill="transparent" stroke-linejoin="round" points="54.4925537109375 94.03205871582033 70.66058349609375 84.79318237304688 81.0543212890625 77.28660583496094 91.44805908203124 69.20257568359375 100.1094970703125 62.850860595703125 107.03863525390624 57.65399169921875 112.23553466796876 54.18940734863281 114.54522705078124 53.61197662353515 114.54522705078124 58.231414794921875 105.30636596679688 76.13174438476563 85.67376708984375 113.08724975585938 72.39288330078125 137.33929443359375 60.266845703125 158.70419311523438 52.182830810546875 173.71737670898438 48.14080810546875 181.2239532470703 46.40850830078125 186.42083740234375 46.40850830078125 189.88540649414065 46.40850830078125 189.88540649414065 " />
        <polyline stroke="black" stroke-width="3" stroke-linecap="round" fill="transparent" stroke-linejoin="round" points="92.02548217773438 113.6646728515625 104.1514892578125 109.04524230957033 119.1646728515625 105.00323486328124 135.91015625 101.53865051269533 152.07818603515625 100.3837890625 167.66876220703125 100.3837890625 181.527099609375 101.53865051269533 192.498291015625 103.84837341308594 199.42742919921875 106.73551940917967 204.624267578125 113.08724975585938 205.7791748046875 130.98756408691406 197.69512939453125 158.12677001953125 186.72393798828125 181.2239532470703 172.86566162109375 200.27914428710935 161.89447021484375 212.4051513671875 148.61358642578125 221.64404296875 139.37472534179688 224.53118896484375 131.29071044921875 223.3763427734375 125.51641845703124 218.17947387695313 119.74212646484376 200.8565673828125 119.74212646484376 200.8565673828125 " />
        <polyline stroke="black" stroke-width="3" stroke-linecap="round" fill="transparent" stroke-linejoin="round" points="133.02301025390625 114.24211120605467 122.05181884765624 133.87472534179688 109.92578125 154.6621856689453 99.53204345703124 170.25279235839844 89.71575927734375 181.2239532470703 82.20916748046875 188.15310668945313 75.857421875 191.61770629882813 75.857421875 191.61770629882813 " />
        <polyline stroke="black" stroke-width="3" stroke-linecap="round" fill="transparent" stroke-linejoin="round" points="79.89944458007813 135.6070098876953 100.68692016601563 134.4521484375 122.6292724609375 137.91673278808594 146.30389404296875 144.26844787597656 163.62677001953125 150.04275512695313 180.37225341796875 157.54933166503906 191.3433837890625 164.47850036621094 197.69512939453125 173.1399383544922 202.3145751953125 181.8013916015625 202.3145751953125 181.8013916015625 " />
        </svg>