<?xml version="1.0" standalone="no"?>
    <svg width="256" height="256" xmlns="http://www.w3.org/2000/svg" version="1.1">
    <polyline stroke="black" stroke-width="3" stroke-linecap="round" fill="transparent" stroke-linejoin="round" points="92.046630859375 81.14727783203125 100.12826538085938 78.31871032714844 109.01806640625 75.08604431152344 140.94061279296875 67.00439453125 159.9324951171875 63.367645263671875 172.054931640625 61.34724426269531 176.0958251953125 60.94316101074219 181.348876953125 60.94316101074219 181.348876953125 60.94316101074219 " />
        <polyline stroke="black" stroke-width="3" stroke-linecap="round" fill="transparent" stroke-linejoin="round" points="118.716064453125 117.1106414794922 117.90789794921876 122.76779174804688 117.50384521484376 140.95150756835938 117.50384521484376 152.66989135742188 116.69564819335938 166.40869140625 116.29159545898438 168.4291229248047 116.29159545898438 168.4291229248047 " />
        <polyline stroke="black" stroke-width="3" stroke-linecap="round" fill="transparent" stroke-linejoin="round" points="77.4996337890625 145.80050659179688 68.20574951171875 162.77195739746094 64.97308349609375 171.66177368164063 63.356781005859375 187.8250732421875 68.60983276367188 192.26998901367188 84.77313232421875 192.26998901367188 106.59359741210938 185.40057373046875 128.818115234375 175.70260620117188 147.40594482421875 166.40869140625 161.14471435546875 157.92295837402344 173.67132568359375 149.03314208984375 173.67132568359375 149.03314208984375 " />
        <polyline stroke="black" stroke-width="3" stroke-linecap="round" fill="transparent" stroke-linejoin="round" points="178.92437744140625 132.46575927734375 178.92437744140625 138.1229248046875 178.1162109375 165.60052490234375 178.1162109375 165.60052490234375 " />
        </svg>