<?xml version="1.0" standalone="no"?>
    <svg width="256" height="256" xmlns="http://www.w3.org/2000/svg" version="1.1">
    <polyline stroke="black" stroke-width="3" stroke-linecap="round" fill="transparent" stroke-linejoin="round" points="61 119 61 120 68 120 79 117 84 117 102 112 109 111 135 106 159 100 178 95 190 93 195 92 195 92 " />
        <polyline stroke="black" stroke-width="3" stroke-linecap="round" fill="transparent" stroke-linejoin="round" points="124 111 127 124 130 140 132 155 132 169 130 179 128 184 125 186 125 186 " />
        <polyline stroke="black" stroke-width="3" stroke-linecap="round" fill="transparent" stroke-linejoin="round" points="92 167 91 169 90 180 90 188 91 194 92 197 94 198 98 196 103 193 105 191 117 185 127 180 131 178 143 173 151 169 155 168 156 168 156 169 154 171 154 171 " />
        <polyline stroke="black" stroke-width="3" stroke-linecap="round" fill="transparent" stroke-linejoin="round" points="153 144 155 148 156 156 156 164 156 167 156 175 155 183 155 187 155 189 155 189 " />
        </svg>