<?xml version="1.0" standalone="no"?>
    <svg width="256" height="256" xmlns="http://www.w3.org/2000/svg" version="1.1">
    <polyline stroke="black" stroke-width="3" stroke-linecap="round" fill="transparent" stroke-linejoin="round" points="57 63 57 63 58 64 59 65 60 65 60 66 61 67 62 70 63 73 65 76 67 80 69 84 72 87 75 89 79 90 81 90 " />
        <polyline stroke="black" stroke-width="3" stroke-linecap="round" fill="transparent" stroke-linejoin="round" points="108 60 108 59 108 60 107 63 100 72 93 80 84 88 75 95 67 102 60 107 54 112 50 115 48 118 45 120 45 120 45 120 46 120 49 119 53 118 59 116 65 114 73 111 80 106 91 99 98 93 101 90 107 85 109 83 " />
        <polyline stroke="black" stroke-width="3" stroke-linecap="round" fill="transparent" stroke-linejoin="round" points="81 46 81 46 80 48 79 52 78 58 78 66 77 75 77 87 77 99 77 119 78 132 79 144 80 154 81 162 82 168 82 171 82 173 82 172 82 171 83 169 " />
        <polyline stroke="black" stroke-width="3" stroke-linecap="round" fill="transparent" stroke-linejoin="round" points="76 114 75 114 71 119 68 125 64 130 60 136 57 142 54 147 52 152 50 155 49 158 48 160 47 162 48 162 48 161 " />
        <polyline stroke="black" stroke-width="3" stroke-linecap="round" fill="transparent" stroke-linejoin="round" points="61 134 62 132 65 129 71 127 74 127 78 127 81 128 84 130 86 131 89 133 91 136 93 138 95 139 96 140 " />
        <polyline stroke="black" stroke-width="3" stroke-linecap="round" fill="transparent" stroke-linejoin="round" points="105 86 105 86 103 84 103 83 103 82 104 81 106 80 109 79 113 78 120 76 124 75 130 74 134 72 139 71 142 69 145 69 147 70 147 72 " />
        <polyline stroke="black" stroke-width="3" stroke-linecap="round" fill="transparent" stroke-linejoin="round" points="102 119 100 120 99 121 98 121 99 122 102 121 105 121 110 120 115 118 120 117 126 114 133 111 139 107 144 103 147 101 " />
        <polyline stroke="black" stroke-width="3" stroke-linecap="round" fill="transparent" stroke-linejoin="round" points="124 87 123 89 120 94 119 99 119 105 118 112 118 120 119 129 119 137 120 144 120 150 121 154 122 157 125 159 126 159 " />
        <polyline stroke="black" stroke-width="3" stroke-linecap="round" fill="transparent" stroke-linejoin="round" points="169 42 168 42 167 43 165 47 161 53 155 65 151 74 146 83 142 92 138 101 135 108 132 114 131 118 131 119 131 120 " />
        <polyline stroke="black" stroke-width="3" stroke-linecap="round" fill="transparent" stroke-linejoin="round" points="151 83 153 81 160 78 170 75 176 73 182 72 186 72 191 71 194 70 197 70 200 70 202 70 202 71 " />
        <polyline stroke="black" stroke-width="3" stroke-linecap="round" fill="transparent" stroke-linejoin="round" points="162 107 162 107 159 110 157 114 156 117 156 119 156 121 156 123 158 125 159 126 161 127 165 128 168 128 171 127 176 125 180 122 184 119 188 116 192 114 194 112 196 111 198 112 199 113 200 117 200 121 200 124 200 128 200 130 200 132 199 133 199 133 199 133 " />
        <polyline stroke="black" stroke-width="3" stroke-linecap="round" fill="transparent" stroke-linejoin="round" points="188 81 187 80 187 81 187 83 187 88 187 96 186 105 185 116 184 128 182 141 178 155 174 169 168 189 167 195 166 202 " />
        </svg>