<?xml version="1.0" standalone="no"?>
    <svg width="256" height="256" xmlns="http://www.w3.org/2000/svg" version="1.1">
    <polyline stroke="black" stroke-width="3" stroke-linecap="round" fill="transparent" stroke-linejoin="round" points="54 90 54 91 55 93 57 96 59 98 60 101 61 103 62 106 64 108 67 109 71 110 74 110 77 110 " />
        <polyline stroke="black" stroke-width="3" stroke-linecap="round" fill="transparent" stroke-linejoin="round" points="111 83 111 83 110 84 107 88 102 93 95 100 91 104 78 114 74 118 62 125 56 129 52 132 49 134 48 135 47 136 48 137 50 137 55 136 62 136 70 134 79 131 84 128 99 120 104 116 113 110 116 106 " />
        <polyline stroke="black" stroke-width="3" stroke-linecap="round" fill="transparent" stroke-linejoin="round" points="93 62 92 66 91 69 88 87 87 93 84 114 83 128 83 143 82 157 83 170 83 180 83 188 83 193 82 195 82 194 82 193 " />
        <polyline stroke="black" stroke-width="3" stroke-linecap="round" fill="transparent" stroke-linejoin="round" points="79 147 79 147 77 150 75 154 72 160 69 165 65 171 62 176 59 181 55 187 54 191 53 193 54 193 57 193 59 192 " />
        <polyline stroke="black" stroke-width="3" stroke-linecap="round" fill="transparent" stroke-linejoin="round" points="86 150 87 150 89 151 94 153 97 155 100 155 102 155 103 155 " />
        <polyline stroke="black" stroke-width="3" stroke-linecap="round" fill="transparent" stroke-linejoin="round" points="121 104 121 104 123 101 125 99 129 96 133 94 138 91 142 90 146 89 149 89 150 90 " />
        <polyline stroke="black" stroke-width="3" stroke-linecap="round" fill="transparent" stroke-linejoin="round" points="113 132 113 132 112 132 113 132 114 132 121 131 126 131 132 129 138 127 145 123 148 120 151 117 " />
        <polyline stroke="black" stroke-width="3" stroke-linecap="round" fill="transparent" stroke-linejoin="round" points="141 104 140 109 139 116 138 123 138 131 137 139 138 146 139 153 141 158 143 160 145 161 " />
        <polyline stroke="black" stroke-width="3" stroke-linecap="round" fill="transparent" stroke-linejoin="round" points="180 55 180 55 177 56 174 61 169 68 167 73 160 88 156 99 153 109 150 118 149 125 148 130 148 132 149 132 " />
        <polyline stroke="black" stroke-width="3" stroke-linecap="round" fill="transparent" stroke-linejoin="round" points="168 96 171 93 177 89 186 83 192 80 198 77 204 75 209 72 214 70 216 68 " />
        <polyline stroke="black" stroke-width="3" stroke-linecap="round" fill="transparent" stroke-linejoin="round" points="179 108 177 111 173 117 170 123 168 128 166 133 166 138 166 141 166 143 167 144 169 144 172 143 175 141 180 136 186 131 192 126 198 122 201 120 203 118 " />
        <polyline stroke="black" stroke-width="3" stroke-linecap="round" fill="transparent" stroke-linejoin="round" points="206 129 206 131 206 133 206 135 206 135 206 135 " />
        <polyline stroke="black" stroke-width="3" stroke-linecap="round" fill="transparent" stroke-linejoin="round" points="199 95 198 95 197 97 195 102 191 115 187 128 184 142 180 158 179 166 174 190 173 197 170 217 170 227 170 232 " />
        </svg>