<?xml version="1.0" standalone="no"?>
    <svg width="256" height="256" xmlns="http://www.w3.org/2000/svg" version="1.1">
    <polyline stroke="black" stroke-width="3" stroke-linecap="round" fill="transparent" stroke-linejoin="round" points="74.17172241210938 69.62112426757813 72.03607177734375 85.63835144042969 71.50216674804688 97.3843231201172 70.96826171875 106.99465942382813 70.96826171875 112.33372497558594 70.96826171875 113.40155029296876 70.96826171875 113.40155029296876 " />
        <polyline stroke="black" stroke-width="3" stroke-linecap="round" fill="transparent" stroke-linejoin="round" points="78.97686767578125 85.63835144042969 88.05331420898438 80.29927062988281 99.265380859375 74.960205078125 113.14697265625 69.62112426757813 129.6981201171875 64.28204345703125 145.71533203125 62.14642333984375 158.52911376953125 62.680328369140625 167.0716552734375 65.88377380371094 171.8768310546875 70.155029296875 175.08026123046875 74.960205078125 175.08026123046875 80.83319091796875 171.3428955078125 86.70616149902344 163.33428955078125 93.64697265625 153.1900634765625 97.91822814941406 153.1900634765625 97.91822814941406 " />
        <polyline stroke="black" stroke-width="3" stroke-linecap="round" fill="transparent" stroke-linejoin="round" points="126.49465942382813 30.111968994140625 129.1641845703125 49.3326416015625 129.1641845703125 63.748138427734375 128.09637451171875 86.17225646972656 124.3590087890625 101.65557861328124 124.3590087890625 101.65557861328124 " />
        <polyline stroke="black" stroke-width="3" stroke-linecap="round" fill="transparent" stroke-linejoin="round" points="60.82403564453125 146.50381469726563 76.84124755859375 140.096923828125 91.25677490234376 135.291748046875 115.2825927734375 129.4187774658203 131.2998046875 126.74923706054688 152.1221923828125 124.61360168457033 167.60552978515625 123.01188659667967 179.35150146484375 122.47796630859376 185.2244873046875 122.47796630859376 185.2244873046875 122.47796630859376 " />
        <polyline stroke="black" stroke-width="3" stroke-linecap="round" fill="transparent" stroke-linejoin="round" points="128.09637451171875 105.39292907714844 112.07916259765624 117.13890075683594 98.7314453125 135.82565307617188 86.45159912109375 156.11415100097656 78.97686767578125 167.860107421875 73.6378173828125 176.93653869628906 70.43435668945313 181.74171447753903 70.43435668945313 181.74171447753903 " />
        <polyline stroke="black" stroke-width="3" stroke-linecap="round" fill="transparent" stroke-linejoin="round" points="104.070556640625 139.0290985107422 116.88433837890624 140.63082885742188 137.17279052734375 144.90208435058594 155.32568359375 149.17335510253906 169.74114990234375 152.91070556640625 181.48712158203125 156.11415100097656 187.89404296875 159.31759643554688 187.89404296875 159.31759643554688 " />
        <polyline stroke="black" stroke-width="3" stroke-linecap="round" fill="transparent" stroke-linejoin="round" points="103.00271606445313 175.33482360839844 98.19757080078124 182.80950927734375 94.99411010742188 195.08938598632813 93.92630004882813 205.233642578125 94.460205078125 212.1744384765625 96.06192016601563 215.91180419921875 98.19757080078124 216.4457092285156 98.19757080078124 216.4457092285156 " />
        <polyline stroke="black" stroke-width="3" stroke-linecap="round" fill="transparent" stroke-linejoin="round" points="105.6722412109375 189.2164001464844 112.613037109375 181.74171447753903 122.75729370117188 173.73309326171875 134.50326538085938 167.860107421875 145.181396484375 165.7244873046875 154.2578125 167.32620239257813 160.66473388671875 171.0635528564453 163.33428955078125 176.93653869628906 162.80035400390625 184.94515991210935 155.32568359375 195.623291015625 140.91015625 206.8353576660156 140.91015625 206.8353576660156 " />
        <polyline stroke="black" stroke-width="3" stroke-linecap="round" fill="transparent" stroke-linejoin="round" points="95.52801513671876 212.1744384765625 104.60443115234376 208.43707275390625 118.48602294921876 204.16583251953125 133.43545532226563 200.96237182617188 146.24923706054688 202.0301818847656 146.24923706054688 202.0301818847656 " />
        </svg>