<?xml version="1.0" standalone="no"?>
    <svg width="256" height="256" xmlns="http://www.w3.org/2000/svg" version="1.1">
    <polyline stroke="black" stroke-width="3" stroke-linecap="round" fill="transparent" stroke-linejoin="round" points="56 66 60 82 64 98 72 117 75 120 75 120 " />
        <polyline stroke="black" stroke-width="3" stroke-linecap="round" fill="transparent" stroke-linejoin="round" points="71 79 78 78 85 77 103 71 126 65 138 64 157 64 174 68 185 77 190 88 191 98 180 110 180 110 " />
        <polyline stroke="black" stroke-width="3" stroke-linecap="round" fill="transparent" stroke-linejoin="round" points="134 36 132 65 130 94 126 122 125 132 125 132 " />
        <polyline stroke="black" stroke-width="3" stroke-linecap="round" fill="transparent" stroke-linejoin="round" points="72 167 78 167 84 167 98 165 117 164 128 163 136 162 153 162 159 161 159 161 " />
        <polyline stroke="black" stroke-width="3" stroke-linecap="round" fill="transparent" stroke-linejoin="round" points="105 139 94 158 83 177 72 195 65 206 63 210 62 212 62 212 " />
        <polyline stroke="black" stroke-width="3" stroke-linecap="round" fill="transparent" stroke-linejoin="round" points="136 177 149 181 162 185 174 191 184 196 190 200 190 200 " />
        <polyline stroke="black" stroke-width="3" stroke-linecap="round" fill="transparent" stroke-linejoin="round" points="95 200 96 211 97 222 98 227 99 234 101 236 101 236 " />
        <polyline stroke="black" stroke-width="3" stroke-linecap="round" fill="transparent" stroke-linejoin="round" points="105 191 110 191 115 191 128 191 141 191 153 196 157 200 162 208 164 217 164 225 162 228 162 228 " />
        <polyline stroke="black" stroke-width="3" stroke-linecap="round" fill="transparent" stroke-linejoin="round" points="102 225 108 225 114 225 131 225 149 223 165 223 165 223 " />
        </svg>