<?xml version="1.0" standalone="no"?>
    <svg width="256" height="256" xmlns="http://www.w3.org/2000/svg" version="1.1">
    <polyline stroke="black" stroke-width="3" stroke-linecap="round" fill="transparent" stroke-linejoin="round" points="47.2855224609375 154.50570678710938 57.85015869140625 144.3636474609375 63.766357421875 139.29263305664063 70.10516357421875 133.79904174804688 81.9375 123.656982421875 91.656982421875 114.78269958496094 95.46026611328124 111.40200805664063 100.953857421875 105.48580932617188 106.87005615234376 95.766357421875 106.87005615234376 95.766357421875 " />
        <polyline stroke="black" stroke-width="3" stroke-linecap="round" fill="transparent" stroke-linejoin="round" points="83.20526123046875 62.382110595703125 79.40203857421875 83.51138305664063 76.44393920898438 108.02133178710938 71.37289428710938 146.89915466308594 68.414794921875 164.22515869140625 63.34375 190.8480224609375 61.2308349609375 200.1448974609375 56.15985107421875 217.47088623046875 55.31463623046875 220.00640869140625 55.31463623046875 220.00640869140625 " />
        <polyline stroke="black" stroke-width="3" stroke-linecap="round" fill="transparent" stroke-linejoin="round" points="178.2869873046875 78.01776123046875 166.031982421875 97.03411865234376 159.2706298828125 105.48580932617188 143.63494873046875 122.38922119140624 129.68963623046875 134.2216033935547 124.196044921875 138.02487182617188 124.196044921875 138.02487182617188 " />
        <polyline stroke="black" stroke-width="3" stroke-linecap="round" fill="transparent" stroke-linejoin="round" points="128.421875 76.75001525878906 127.57675170898438 87.73722839355469 127.15414428710938 110.13424682617188 127.57675170898438 123.656982421875 128.421875 136.7571258544922 132.64776611328125 165.492919921875 136.02841186523438 178.5930633544922 149.12860107421875 201.41265869140625 162.22869873046875 209.01919555664065 169.83526611328125 210.28695678710935 183.78057861328125 207.75146484375 193.922607421875 201.83526611328125 204.064697265625 190.42544555664065 207.02276611328125 186.6221923828125 213.361572265625 173.52203369140625 213.361572265625 173.52203369140625 " />
        </svg>