<?xml version="1.0" standalone="no"?>
    <svg width="256" height="256" xmlns="http://www.w3.org/2000/svg" version="1.1">
    <polyline stroke="black" stroke-width="3" stroke-linecap="round" fill="transparent" stroke-linejoin="round" points="51.4755859375 133.20492553710938 62.386932373046875 126.909912109375 75.81625366210938 120.19528198242188 89.24560546875 113.9002685546875 101.83563232421876 107.1855926513672 111.0682373046875 100.47093200683594 114.00595092773438 98.3726043701172 114.00595092773438 98.3726043701172 " />
        <polyline stroke="black" stroke-width="3" stroke-linecap="round" fill="transparent" stroke-linejoin="round" points="103.09457397460938 42.97662353515625 100.99627685546876 63.95994567871094 99.73724365234376 74.87127685546875 91.76361083984376 110.12327575683594 87.986572265625 123.97227478027344 79.59326171875 153.76858520507813 71.199951171875 182.72557067871097 64.06561279296875 204.12857055664065 64.06561279296875 204.12857055664065 " />
        <polyline stroke="black" stroke-width="3" stroke-linecap="round" fill="transparent" stroke-linejoin="round" points="197.51953125 60.182952880859375 191.22454833984375 69.41561889648438 184.5098876953125 77.80894470214844 166.4642333984375 98.7922821044922 146.32025146484375 117.67727661132813 136.66790771484375 126.49026489257813 136.66790771484375 126.49026489257813 " />
        <polyline stroke="black" stroke-width="3" stroke-linecap="round" fill="transparent" stroke-linejoin="round" points="161.42822265625 64.79928588867188 157.6512451171875 77.3892822265625 155.55291748046875 87.04159545898438 150.51690673828125 112.22160339355467 148.83822631835938 126.07058715820313 148.83822631835938 151.25057983398438 152.615234375 172.653564453125 160.5888671875 189.85989379882813 171.08056640625 202.44989013671875 176.9559326171875 207.06622314453125 197.51953125 215.87921142578125 203.8145751953125 216.29888916015625 214.72589111328125 213.7808837890625 225.63720703125 204.9678955078125 231.0928955078125 193.21722412109375 232.3519287109375 169.29623413085938 232.3519287109375 169.29623413085938 " />
        </svg>