<?xml version="1.0" standalone="no"?>
    <svg width="256" height="256" xmlns="http://www.w3.org/2000/svg" version="1.1">
    <polyline stroke="black" stroke-width="3" stroke-linecap="round" fill="transparent" stroke-linejoin="round" points="72.11328125 62.11326599121094 73.89642333984375 69.245849609375 75.6795654296875 76.37841796875 77.46270751953125 83.510986328125 78.65145874023438 90.04917907714844 79.8402099609375 94.20985412597656 79.8402099609375 96.58737182617188 81.02899169921875 97.77613830566406 82.21774291992188 96.58737182617188 84.00088500976563 92.4267120361328 86.37841796875 84.69975280761719 90.5390625 74.59527587890625 94.10537719726563 65.08517456054688 97.67166137695313 57.952606201171875 101.83233642578124 51.41441345214844 106.58737182617188 46.064979553222656 113.12554931640624 41.90431213378906 123.23004150390624 38.33802795410156 132.74014282226563 37.149261474609375 139.87271118164063 37.149261474609375 146.410888671875 38.33802795410156 151.76031494140625 40.12117004394531 156.515380859375 43.09307861328125 159.4873046875 46.65936279296875 161.27044677734375 51.41441345214844 162.459228515625 57.35821533203125 162.459228515625 64.49079895019531 161.27044677734375 70.43460083007813 158.8929443359375 76.97279357910156 155.9210205078125 82.91661071777344 151.76031494140625 88.26603698730469 147.00531005859375 93.61546325683594 141.65585327148438 97.77613830566406 135.11767578125 101.93679809570313 127.985107421875 105.50309753417967 120.25811767578124 108.47499084472656 110.748046875 109.66375732421876 103.02108764648438 110.25813293457033 95.88851928710938 110.25813293457033 89.9447021484375 110.25813293457033 84.00088500976563 110.25813293457033 79.245849609375 110.25813293457033 75.08517456054688 112.04127502441406 72.11328125 116.2019500732422 69.73574829101563 122.14576721191406 67.95260620117188 128.6839599609375 65.5750732421875 138.1940460205078 64.38632202148438 144.73223876953125 62.603179931640625 151.2704315185547 60.820037841796875 156.61985778808594 59.63128662109375 161.37490844726563 58.4425048828125 164.34681701660156 58.4425048828125 165.53558349609375 58.4425048828125 164.94119262695313 60.820037841796875 161.37490844726563 64.980712890625 155.4311065673828 70.92449951171875 146.515380859375 79.8402099609375 136.41090393066406 90.5390625 125.71205139160156 104.2098388671875 115.60757446289063 117.2862548828125 107.880615234375 130.36260986328125 102.53118896484376 140.46710205078125 100.15365600585938 148.7884521484375 99.5592803955078 155.9210205078125 99.5592803955078 161.86480712890625 100.748046875 166.619873046875 103.12556457519533 170.1861572265625 105.50309753417967 172.56365966796875 107.880615234375 173.75244140625 111.4468994140625 172.56365966796875 116.79632568359376 168.40301513671875 123.9289093017578 158.29852294921875 134.03338623046875 142.250244140625 147.10977172851563 125.01318359375 159.59176635742188 107.776123046875 171.47938537597656 95.88851928710938 179.2063446044922 81.62335205078125 186.93328857421875 74.49078369140625 190.49957275390625 67.35821533203125 192.87710571289065 60.820037841796875 194.06588745117188 55.4705810546875 194.06588745117188 51.904296875 194.06588745117188 50.12115478515625 194.06588745117188 48.932403564453125 194.06588745117188 48.932403564453125 194.06588745117188 51.3099365234375 192.87710571289065 56.65936279296875 189.90521240234375 69.73574829101563 182.17825317382813 88.16156005859375 174.4512939453125 107.1817626953125 168.5074920654297 127.985107421875 163.75244140625 148.19403076171875 160.1861572265625 166.0255126953125 158.40301513671875 178.50750732421875 157.21424865722656 185.64007568359375 157.21424865722656 191.5838623046875 157.21424865722656 195.7445068359375 156.02548217773438 197.5277099609375 156.02548217773438 197.5277099609375 156.02548217773438 194.5557861328125 156.02548217773438 188.6119384765625 161.96929931640625 188.6119384765625 161.96929931640625 " />
        </svg>