<?xml version="1.0" standalone="no"?>
    <svg width="256" height="256" xmlns="http://www.w3.org/2000/svg" version="1.1">
    <polyline stroke="black" stroke-width="3" stroke-linecap="round" fill="transparent" stroke-linejoin="round" points="83.41915893554688 113.24000549316406 84.242431640625 121.06124877929688 84.654052734375 126.82427978515624 84.654052734375 126.82427978515624 " />
        <polyline stroke="black" stroke-width="3" stroke-linecap="round" fill="transparent" stroke-linejoin="round" points="110.58767700195313 66.31253051757813 125.81851196289063 61.372802734375 138.16781616210938 58.07965087890625 145.57745361328125 56.84471130371094 152.987060546875 56.433074951171875 158.33843994140625 57.667999267578125 161.21990966796875 62.19609069824219 161.21990966796875 73.31050109863281 157.9267578125 91.4228515625 152.16375732421875 112.828369140625 147.63568115234375 130.52906799316406 147.63568115234375 130.52906799316406 " />
        <polyline stroke="black" stroke-width="3" stroke-linecap="round" fill="transparent" stroke-linejoin="round" points="76.009521484375 173.34010314941406 77.6561279296875 179.92642211914063 78.06777954101563 181.984619140625 78.06777954101563 181.984619140625 " />
        <polyline stroke="black" stroke-width="3" stroke-linecap="round" fill="transparent" stroke-linejoin="round" points="104.0013427734375 132.5872802734375 120.87875366210938 130.11741638183594 138.16781616210938 128.47084045410156 148.87057495117188 127.64753723144533 157.51513671875 127.64753723144533 164.92474365234375 128.88250732421875 168.6295166015625 131.3523712158203 169.86444091796875 138.761962890625 166.15966796875 152.75787353515625 160.80828857421875 170.04693603515625 154.221923828125 190.217529296875 150.51718139648438 197.2154541015625 150.51718139648438 197.2154541015625 " />
        <polyline stroke="black" stroke-width="3" stroke-linecap="round" fill="transparent" stroke-linejoin="round" points="56.6622314453125 195.98052978515625 95.3568115234375 194.74560546875 133.2281494140625 193.0990295410156 170.687744140625 192.6873779296875 197.85626220703125 192.6873779296875 217.615234375 192.6873779296875 229.1412353515625 193.0990295410156 229.1412353515625 193.0990295410156 " />
        </svg>