<?xml version="1.0" standalone="no"?>
    <svg width="256" height="256" xmlns="http://www.w3.org/2000/svg" version="1.1">
    <polyline stroke="black" stroke-width="3" stroke-linecap="round" fill="transparent" stroke-linejoin="round" points="120.331298828125 61.084503173828125 116.98043823242188 65.69192504882813 111.95416259765624 71.555908203125 99.80731201171876 82.4461669921875 93.943359375 87.0535888671875 84.728515625 93.33642578125 80.12109375 96.2684326171875 78.864501953125 96.68728637695313 82.63421630859375 95.01185607910156 88.91708374023438 92.49871826171876 106.509033203125 86.21588134765625 128.28955078125 79.51417541503906 149.65121459960938 74.48789978027344 168.0809326171875 71.555908203125 181.0654296875 70.29933166503906 188.6048583984375 70.29933166503906 189.023681640625 70.71820068359375 189.023681640625 70.71820068359375 " />
        <polyline stroke="black" stroke-width="3" stroke-linecap="round" fill="transparent" stroke-linejoin="round" points="88.49822998046875 115.53581237792967 91.01132202148438 119.30552673339844 93.52450561523438 122.6563720703125 99.38848876953124 128.52037048339844 108.603271484375 134.80320739746094 113.62957763671876 137.31634521484375 124.10101318359376 139.82949829101563 136.66668701171875 138.154052734375 149.23236083984375 132.2900848388672 158.44720458984375 125.16949462890624 163.892333984375 120.98095703125 167.2431640625 118.0489501953125 168.499755859375 116.79238891601563 168.0809326171875 116.37351989746094 162.2169189453125 118.4678192138672 141.69296264648438 127.2637939453125 109.44100952148438 143.18032836914063 85.1473388671875 156.16485595703125 70.48739624023438 163.28543090820313 62.947967529296875 166.6362762451172 60.434814453125 167.47398376464844 60.015960693359375 167.47398376464844 65.46112060546875 167.47398376464844 81.79647827148438 166.2174072265625 104.83358764648438 164.12313842773438 126.61410522460938 161.61001586914063 145.88153076171875 159.09686279296875 160.9603271484375 156.58372497558594 170.59405517578125 154.07058715820313 175.62030029296875 150.7197265625 175.62030029296875 150.7197265625 " />
        <polyline stroke="black" stroke-width="3" stroke-linecap="round" fill="transparent" stroke-linejoin="round" points="115.30502319335938 138.154052734375 109.85986328125 150.7197265625 96.87533569335938 178.36424255371094 86.40390014648438 201.4013671875 80.53997802734375 216.06134033203125 78.44564819335938 220.2498779296875 78.44564819335938 220.2498779296875 " />
        <polyline stroke="black" stroke-width="3" stroke-linecap="round" fill="transparent" stroke-linejoin="round" points="112.7918701171875 174.59454345703125 118.65585327148438 176.26995849609375 137.08554077148438 184.22824096679688 149.23236083984375 190.09222412109375 154.677490234375 193.8619384765625 165.5677490234375 203.0767822265625 171.4317626953125 209.359619140625 171.4317626953125 209.359619140625 " />
        </svg>