<?xml version="1.0" standalone="no"?>
    <svg width="256" height="256" xmlns="http://www.w3.org/2000/svg" version="1.1">
    <polyline stroke="black" stroke-width="3" stroke-linecap="round" fill="transparent" stroke-linejoin="round" points="74.76611328125 56.3060302734375 73.09066772460938 68.87171936035156 71.415283203125 80.18084716796875 67.2266845703125 108.66307067871094 62.200408935546875 141.33384704589844 59.2684326171875 170.65379333496094 57.174163818359375 191.17776489257813 56.33642578125 203.3245849609375 55.917572021484375 208.35086059570313 55.49871826171875 208.35086059570313 55.49871826171875 208.35086059570313 " />
        <polyline stroke="black" stroke-width="3" stroke-linecap="round" fill="transparent" stroke-linejoin="round" points="76.86041259765625 66.35858154296875 89.84494018554688 60.07574462890625 96.96551513671876 56.3060302734375 105.761474609375 52.95518493652344 150.16024780273438 41.227203369140625 175.2916259765625 39.551780700683594 193.30242919921875 43.32148742675781 205.44927978515625 50.86090087890625 210.8944091796875 57.14373779296875 224.29779052734375 91.07110595703124 225.55438232421875 120.39105224609376 220.1092529296875 147.61669921875 211.73211669921875 168.55950927734375 206.705810546875 175.6800537109375 189.1138916015625 188.24575805664065 189.1138916015625 188.24575805664065 " />
        <polyline stroke="black" stroke-width="3" stroke-linecap="round" fill="transparent" stroke-linejoin="round" points="143.45855712890625 70.1282958984375 143.45855712890625 81.43740844726563 142.20199584960938 84.78826904296875 139.68881225585938 87.72024536132813 130.892822265625 94.84080505371094 108.27459716796876 107.406494140625 96.96551513671876 112.013916015625 94.03353881835938 113.27049255371094 90.2637939453125 114.94590759277344 90.6826171875 114.94590759277344 92.35809326171876 114.94590759277344 101.99179077148438 115.36477661132813 126.285400390625 112.85165405273438 135.08139038085938 111.17620849609376 149.74139404296875 107.406494140625 158.537353515625 104.4744873046875 161.88818359375 103.21794128417967 159.7939453125 104.0556640625 145.9716796875 112.43276977539063 122.09686279296876 127.09274291992188 106.18035888671876 139.65843200683594 99.05978393554688 146.36013793945313 95.70892333984376 151.80526733398438 95.70892333984376 155.15611267089844 98.2220458984375 157.66925048828125 104.92376708984376 159.34466552734375 116.23287963867188 157.66925048828125 130.47396850585938 151.80526733398438 145.55282592773438 143.00930786132813 145.55282592773438 143.00930786132813 " />
        <polyline stroke="black" stroke-width="3" stroke-linecap="round" fill="transparent" stroke-linejoin="round" points="156.02423095703125 106.14993286132813 139.68881225585938 123.74188232421876 132.1494140625 133.37559509277344 125.44772338867188 142.17156982421875 112.0443115234375 160.6012420654297 106.59921264648438 168.14065551757813 94.03353881835938 183.63833618164065 88.58837890625 189.5023193359375 84.81866455078125 192.85317993164065 83.98095703125 193.27203369140625 83.56210327148438 193.27203369140625 87.331787109375 190.7589111328125 104.92376708984376 182.3817596435547 122.51571655273438 177.35549926757813 140.94540405273438 174.4235076904297 149.322509765625 173.16693115234375 166.49560546875 169.8160858154297 166.49560546875 169.8160858154297 " />
        <polyline stroke="black" stroke-width="3" stroke-linecap="round" fill="transparent" stroke-linejoin="round" points="63.03814697265625 220.078857421875 79.79241943359375 217.1468505859375 89.42608642578125 215.471435546875 99.47860717773438 213.7959899902344 121.2591552734375 210.44512939453125 132.98715209960938 208.76971435546875 157.28076171875 206.256591796875 179.48016357421875 205.41888427734375 198.3287353515625 205.83770751953125 209.6378173828125 209.1885681152344 209.6378173828125 209.1885681152344 " />
        </svg>