<?xml version="1.0" standalone="no"?>
    <svg width="256" height="256" xmlns="http://www.w3.org/2000/svg" version="1.1">
    <polyline stroke="black" stroke-width="3" stroke-linecap="round" fill="transparent" stroke-linejoin="round" points="96 67 96 68 97 71 98 74 100 77 105 86 109 92 111 94 116 101 117 103 117 103 " />
        <polyline stroke="black" stroke-width="3" stroke-linecap="round" fill="transparent" stroke-linejoin="round" points="140 67 141 71 142 80 144 90 145 95 145 95 " />
        <polyline stroke="black" stroke-width="3" stroke-linecap="round" fill="transparent" stroke-linejoin="round" points="183 68 181 72 176 80 175 83 163 96 157 103 157 103 " />
        <polyline stroke="black" stroke-width="3" stroke-linecap="round" fill="transparent" stroke-linejoin="round" points="80 123 79 122 78 121 78 120 78 119 80 119 91 117 111 115 134 113 157 110 173 106 173 106 " />
        <polyline stroke="black" stroke-width="3" stroke-linecap="round" fill="transparent" stroke-linejoin="round" points="103 145 102 145 102 144 102 145 103 151 103 161 103 167 103 177 104 181 106 183 113 183 120 181 123 181 133 178 141 175 146 174 151 172 151 172 " />
        <polyline stroke="black" stroke-width="3" stroke-linecap="round" fill="transparent" stroke-linejoin="round" points="163 140 163 142 163 150 163 159 161 166 160 168 160 168 " />
        <polyline stroke="black" stroke-width="3" stroke-linecap="round" fill="transparent" stroke-linejoin="round" points="138 122 138 121 138 126 138 129 136 141 133 153 130 165 129 172 124 191 123 196 117 216 110 231 106 237 106 237 " />
        </svg>