<?xml version="1.0" standalone="no"?>
    <svg width="256" height="256" xmlns="http://www.w3.org/2000/svg" version="1.1">
    <polyline stroke="black" stroke-width="3" stroke-linecap="round" fill="transparent" stroke-linejoin="round" points="78.81793212890625 49.02278137207031 76.60946655273438 62.27345275878906 73.51766967773438 76.84918212890625 69.10076904296875 96.28350830078124 58.94189453125 135.1521453857422 53.64166259765625 151.05294799804688 43.4827880859375 175.7875213623047 35.974090576171875 189.92156982421875 33.765625 193.455078125 33.765625 193.455078125 " />
        <polyline stroke="black" stroke-width="3" stroke-linecap="round" fill="transparent" stroke-linejoin="round" points="69.984130859375 57.8565673828125 80.14300537109375 49.906158447265625 85.88494873046875 45.93096160888672 99.13558959960938 37.98055267333984 105.76095581054688 34.88874816894531 124.75360107421876 30.471847534179688 135.7957763671875 32.238609313964844 144.1878662109375 37.09718322753906 152.5799560546875 51.67291259765625 156.11346435546875 65.36528015136719 157.8802490234375 110.41754150390624 156.55517578125 136.91888427734375 156.996826171875 160.3284149169922 158.32196044921875 170.92893981933594 163.6221923828125 187.713134765625 171.13092041015625 199.63873291015625 185.7066650390625 209.79757690429688 191.0069580078125 211.5643310546875 203.81591796875 211.5643310546875 210.4412841796875 208.47250366210935 216.1832275390625 202.7305603027344 216.1832275390625 202.7305603027344 " />
        <polyline stroke="black" stroke-width="3" stroke-linecap="round" fill="transparent" stroke-linejoin="round" points="107.96942138671876 84.35791015625 118.56991577148438 95.40013122558594 121.6617431640625 98.9336395263672 124.31185913085938 102.02548217773438 128.728759765625 109.9758758544922 130.0538330078125 116.15951538085938 130.0538330078125 116.15951538085938 " />
        <polyline stroke="black" stroke-width="3" stroke-linecap="round" fill="transparent" stroke-linejoin="round" points="100.01898193359376 143.98590087890625 113.71136474609376 157.236572265625 117.6865234375 162.53684997558594 126.07861328125 176.22921752929688 126.07861328125 176.22921752929688 " />
        </svg>