<?xml version="1.0" standalone="no"?>
    <svg width="256" height="256" xmlns="http://www.w3.org/2000/svg" version="1.1">
    <polyline stroke="black" stroke-width="3" stroke-linecap="round" fill="transparent" stroke-linejoin="round" points="95.9400634765625 47.57804870605469 91.21856689453124 85.34986877441406 82.95599365234375 118.40020751953124 74.10321044921875 146.13888549804688 58.168212890625 185.6812744140625 52.266387939453125 197.4849548339844 47.544921875 203.3868103027344 47.544921875 203.3868103027344 " />
        <polyline stroke="black" stroke-width="3" stroke-linecap="round" fill="transparent" stroke-linejoin="round" points="88.85784912109375 64.69340515136719 98.30078125 57.02099609375 111.28485107421876 49.93878173828125 127.2198486328125 44.03694152832031 143.15484619140625 39.90564727783203 157.31927490234375 39.90564727783203 167.3524169921875 42.266380310058594 174.43463134765625 51.70933532714844 180.33642578125 77.67745971679688 180.33642578125 112.49836730957033 179.74627685546875 136.69593811035156 181.516845703125 159.713134765625 186.8284912109375 179.7794189453125 194.5008544921875 195.71441650390625 202.76348876953125 205.1573486328125 209.845703125 210.46902465820313 217.51806640625 211.0592041015625 225.7806396484375 202.2064208984375 225.7806396484375 202.2064208984375 " />
        <polyline stroke="black" stroke-width="3" stroke-linecap="round" fill="transparent" stroke-linejoin="round" points="116.59649658203124 88.89097595214844 125.44927978515624 99.51429748535156 131.35113525390625 114.85910034179688 131.35113525390625 114.85910034179688 " />
        <polyline stroke="black" stroke-width="3" stroke-linecap="round" fill="transparent" stroke-linejoin="round" points="100.66152954101563 142.5977783203125 117.18670654296876 150.86036682128906 127.81002807617188 160.30331420898438 138.433349609375 179.7794189453125 138.433349609375 179.7794189453125 " />
        </svg>