<?xml version="1.0" standalone="no"?>
    <svg width="256" height="256" xmlns="http://www.w3.org/2000/svg" version="1.1">
    <polyline stroke="black" stroke-width="3" stroke-linecap="round" fill="transparent" stroke-linejoin="round" points="66.41986083984375 83.70718383789063 77.1904296875 78.32188415527344 82.57568359375 75.83636474609375 88.375244140625 73.35086059570313 94.17477416992188 71.27958679199219 103.70260620117188 67.96556091308594 107.84515380859376 67.13705444335938 115.30169677734376 66.72280883789063 120.272705078125 69.20831298828125 124.41525268554688 79.56463623046875 125.24374389648438 102.34855651855467 121.10125732421876 127.61801147460938 114.05892944335938 149.15914916992188 107.84515380859376 162.41525268554688 107.84515380859376 162.41525268554688 " />
        <polyline stroke="black" stroke-width="3" stroke-linecap="round" fill="transparent" stroke-linejoin="round" points="94.58905029296876 87.02120971679688 91.68927001953124 104.00558471679688 90.44650268554688 112.70489501953124 88.78948974609375 122.2327117919922 82.98995971679688 149.15914916992188 78.01889038085938 162.82949829101563 73.0478515625 171.52880859375 71.390869140625 174.0143280029297 71.390869140625 174.0143280029297 " />
        <polyline stroke="black" stroke-width="3" stroke-linecap="round" fill="transparent" stroke-linejoin="round" points="54.820770263671875 149.5734100341797 70.56234741210938 140.04559326171875 77.60467529296875 135.90306091308594 85.88973999023438 131.34628295898438 99.56005859375 123.4754638671875 111.15914916992188 117.26165771484376 115.71591186523438 115.19041442871094 119.4442138671875 113.53338623046876 124.41525268554688 113.53338623046876 124.82952880859376 116.01890563964844 124.82952880859376 116.01890563964844 " />
        <polyline stroke="black" stroke-width="3" stroke-linecap="round" fill="transparent" stroke-linejoin="round" points="54.406494140625 191.4129638671875 69.73388671875 184.37066650390625 78.43319702148438 180.6423797607422 87.96099853515625 176.49984741210938 104.94537353515624 169.04330444335938 120.68698120117188 160.7582244873047 127.31503295898438 156.61570739746094 141.81390380859375 146.6736297607422 141.81390380859375 146.6736297607422 " />
        <polyline stroke="black" stroke-width="3" stroke-linecap="round" fill="transparent" stroke-linejoin="round" points="135.185791015625 77.49337768554688 146.784912109375 70.86532592773438 152.58447265625 67.96556091308594 159.2125244140625 65.0657958984375 166.25482177734375 61.75177001953125 179.51092529296875 55.5379638671875 190.281494140625 50.98118591308594 196.9095458984375 48.49566650390625 199.39501953125 48.08141326904297 198.9808349609375 48.08141326904297 196.49530029296875 50.98118591308594 189.8671875 59.26625061035156 180.753662109375 72.93659973144531 169.56884765625 90.74948120117188 157.5555419921875 112.70489501953124 145.95639038085938 136.31732177734375 135.185791015625 159.10122680664063 126.9007568359375 177.7425994873047 124.0009765625 185.6134033203125 119.85848999023438 196.7982482910156 119.85848999023438 196.7982482910156 " />
        <polyline stroke="black" stroke-width="3" stroke-linecap="round" fill="transparent" stroke-linejoin="round" points="133.94305419921875 156.61570739746094 145.54217529296875 146.25938415527344 150.51318359375 142.53111267089844 155.89849853515625 138.80284118652344 171.225830078125 130.103515625 175.78265380859375 128.44650268554688 184.48193359375 127.61801147460938 185.7247314453125 128.8607635498047 187.79595947265625 150.4019012451172 186.138916015625 171.94305419921875 184.89617919921875 192.241455078125 186.55322265625 206.7403259277344 190.281494140625 216.26812744140625 194.009765625 220.82492065429688 196.0810546875 222.06768798828125 204.78033447265625 222.06768798828125 210.1656494140625 217.09664916992188 212.651123046875 212.53985595703125 215.13665771484375 204.6690673828125 213.8939208984375 200.9407958984375 213.8939208984375 200.9407958984375 " />
        </svg>