<?xml version="1.0" standalone="no"?>
    <svg width="256" height="256" xmlns="http://www.w3.org/2000/svg" version="1.1">
    <polyline stroke="black" stroke-width="3" stroke-linecap="round" fill="transparent" stroke-linejoin="round" points="59 112.5 65.25 107.5 71.5 102.5 77.75 100 94 91.25 100.25 87.5 105.25 85 107.75 85 106.5 87.5 105.25 98.75 104 113.75 101.5 135 97.75 165 94 181.25 91.5 191.25 90.25 196.25 90.25 197.5 89 196.25 87.75 188.75 86.5 178.75 86.5 178.75 " />
        <polyline stroke="black" stroke-width="3" stroke-linecap="round" fill="transparent" stroke-linejoin="round" points="74 133.75 71.5 147.5 69 161.25 67.75 173.75 66.5 182.5 64 188.75 61.5 191.25 61.5 191.25 " />
        <polyline stroke="black" stroke-width="3" stroke-linecap="round" fill="transparent" stroke-linejoin="round" points="34 168.75 51.5 158.75 69 148.75 87.75 138.75 100.25 131.25 109 127.5 115.25 125 115.25 123.75 114 125 109 128.75 104 133.75 96.5 143.75 96.5 143.75 " />
        <polyline stroke="black" stroke-width="3" stroke-linecap="round" fill="transparent" stroke-linejoin="round" points="40.25 222.5 61.5 206.25 82.75 190 115.25 163.75 115.25 163.75 " />
        <polyline stroke="black" stroke-width="3" stroke-linecap="round" fill="transparent" stroke-linejoin="round" points="127.75 73.75 135.25 70 142.75 66.25 159 58.75 174 52.5 186.5 46.25 196.5 41.25 199 38.75 196.5 41.25 189 46.25 184 51.25 184 51.25 " />
        <polyline stroke="black" stroke-width="3" stroke-linecap="round" fill="transparent" stroke-linejoin="round" points="147.75 96.25 142.75 120 137.75 143.75 131.5 175 126.5 190 125.25 195 119 206.25 116.5 208.75 116.5 207.5 116.5 207.5 " />
        <polyline stroke="black" stroke-width="3" stroke-linecap="round" fill="transparent" stroke-linejoin="round" points="145.25 123.75 155.25 115 165.25 106.25 174 98.75 182.75 92.5 184 91.25 184 92.5 184 93.75 182.75 95 181.5 98.75 179 107.5 175.25 116.25 170.25 135 167.75 150 166.5 163.75 165.25 176.25 166.5 187.5 169 196.25 176.5 206.25 182.75 210 187.75 212.5 199 212.5 202.75 212.5 214 211.25 220.25 210 225.25 207.5 227.75 205 230.25 202.5 231.5 201.25 231.5 200 229 197.5 226.5 193.75 222.75 186.25 216.5 171.25 206.5 148.75 206.5 148.75 " />
        </svg>