<?xml version="1.0" standalone="no"?>
    <svg width="256" height="256" xmlns="http://www.w3.org/2000/svg" version="1.1">
    <polyline stroke="black" stroke-width="3" stroke-linecap="round" fill="transparent" stroke-linejoin="round" points="99.3306884765625 36.977783203125 89.2305908203125 52.00779724121094 79.1304931640625 67.03781127929688 67.95565795898438 82.14131164550781 56.401214599609375 95.50225830078124 36.42645263671875 112.96624755859376 30.314178466796875 117.55143737792967 26.54986572265625 120.4499969482422 26.5015869140625 120.48214721679688 " />
        <polyline stroke="black" stroke-width="3" stroke-linecap="round" fill="transparent" stroke-linejoin="round" points="47.32366943359375 64.1993408203125 56.5472412109375 71.95573425292969 65.77081298828125 79.71212768554688 86.17034912109375 97.79026794433594 96.9490966796875 106.76510620117188 108.63470458984376 115.72404479980467 109.197509765625 116.54142761230467 114.31491088867188 117.2290496826172 114.18255615234376 116.35775756835938 " />
        <polyline stroke="black" stroke-width="3" stroke-linecap="round" fill="transparent" stroke-linejoin="round" points="86.48370361328124 111.91183471679688 88.4404296875 152.72605895996094 90.39715576171876 193.540283203125 89.8369140625 209.0469665527344 86.71395874023438 235.27899169921875 84.65817260742188 239.45748901367188 80.11276245117188 243.25619506835935 80.20394897460938 240.65951538085935 " />
        <polyline stroke="black" stroke-width="3" stroke-linecap="round" fill="transparent" stroke-linejoin="round" points="54.44268798828125 187.91891479492185 52.79534912109375 195.64505004882813 51.14801025390625 203.3711853027344 50.764892578125 204.7470703125 " />
        <polyline stroke="black" stroke-width="3" stroke-linecap="round" fill="transparent" stroke-linejoin="round" points="103.40283203125 165.05404663085938 109.2900390625 172.46572875976563 115.17724609375 179.87741088867188 124.14315795898438 192.61550903320313 126.81918334960938 196.81854248046875 127.4488525390625 198.6244201660156 127.478271484375 198.70877075195313 " />
        <polyline stroke="black" stroke-width="3" stroke-linecap="round" fill="transparent" stroke-linejoin="round" points="135.42172241210938 77.22998046874999 134.96603393554688 94.47726440429688 134.51034545898438 111.72454833984376 131.282470703125 146.77447509765625 124.39230346679688 180.5435028076172 119.9744873046875 195.0826416015625 111.65155029296876 213.45687866210935 111.00732421875 214.6143798828125 110.94293212890624 214.73016357421875 " />
        <polyline stroke="black" stroke-width="3" stroke-linecap="round" fill="transparent" stroke-linejoin="round" points="136.29513549804688 170.02603149414063 141.22518920898438 182.4170379638672 146.15524291992188 194.80804443359375 154.216064453125 213.39837646484375 155.038330078125 217.17971801757813 155.0430908203125 217.21026611328125 " />
        <polyline stroke="black" stroke-width="3" stroke-linecap="round" fill="transparent" stroke-linejoin="round" points="181.0662841796875 67.82736206054688 181.6591796875 85.56089782714844 182.2520751953125 103.29443359375 181.854248046875 140.68728637695313 179.115478515625 170.3075408935547 177.201416015625 180.28118896484375 173.910888671875 197.705810546875 169.73284912109375 207.4251708984375 169.161376953125 204.94805908203125 " />
        <polyline stroke="black" stroke-width="3" stroke-linecap="round" fill="transparent" stroke-linejoin="round" points="185.8868408203125 138.80117797851563 190.40679931640625 151.85789489746094 194.9267578125 164.91461181640625 202.4588623046875 191.5362548828125 205.52069091796875 201.70916748046875 207.86700439453125 218.90484619140625 207.8792724609375 219.729736328125 " />
        </svg>