<?xml version="1.0" standalone="no"?>
    <svg width="256" height="256" xmlns="http://www.w3.org/2000/svg" version="1.1">
    <polyline stroke="black" stroke-width="3" stroke-linecap="round" fill="transparent" stroke-linejoin="round" points="105.29168701171876 52.48543548583984 102.26812744140624 60.548248291015625 75.56002807617188 106.405517578125 62.961883544921875 123.03507995605467 50.867645263671875 137.64894104003906 41.293060302734375 146.7196044921875 41.293060302734375 146.7196044921875 " />
        <polyline stroke="black" stroke-width="3" stroke-linecap="round" fill="transparent" stroke-linejoin="round" points="46.33233642578125 84.23277282714844 61.450103759765625 89.77595520019531 74.04824829101563 95.31915283203124 94.20529174804688 103.88589477539063 111.33877563476563 110.43693542480467 127.46441650390624 115.98011779785156 137.03900146484375 120.51545715332033 137.03900146484375 120.51545715332033 " />
        <polyline stroke="black" stroke-width="3" stroke-linecap="round" fill="transparent" stroke-linejoin="round" points="78.58358764648438 149.7431640625 78.58358764648438 164.86094665527344 77.57574462890625 190.0572509765625 76.56787109375 205.17501831054688 74.55218505859375 217.26925659179688 71.02468872070313 222.81243896484375 65.98544311523438 222.81243896484375 60.9461669921875 217.26925659179688 60.9461669921875 217.26925659179688 " />
        <polyline stroke="black" stroke-width="3" stroke-linecap="round" fill="transparent" stroke-linejoin="round" points="44.316619873046875 174.93946838378906 44.316619873046875 189.5533142089844 44.820556640625 198.12005615234375 45.828399658203125 204.16717529296875 48.851959228515625 207.19073486328125 48.851959228515625 207.19073486328125 " />
        <polyline stroke="black" stroke-width="3" stroke-linecap="round" fill="transparent" stroke-linejoin="round" points="108.31521606445313 181.49050903320313 116.3780517578125 192.57687377929688 120.40945434570313 198.62399291992188 123.4329833984375 201.6475524902344 123.4329833984375 201.6475524902344 " />
        <polyline stroke="black" stroke-width="3" stroke-linecap="round" fill="transparent" stroke-linejoin="round" points="168.28240966796875 66.09144592285156 168.28240966796875 75.66603088378906 164.75494384765625 106.90945434570313 158.70782470703125 139.66464233398438 152.66070556640625 167.88449096679688 147.11752319335938 186.52975463867188 143.08612060546875 202.1514587402344 141.0704345703125 212.22998046875 141.0704345703125 212.22998046875 " />
        <polyline stroke="black" stroke-width="3" stroke-linecap="round" fill="transparent" stroke-linejoin="round" points="161.73138427734375 175.9473114013672 171.30596923828125 187.03369140625 175.84130859375 192.57687377929688 180.88055419921875 195.60043334960935 180.88055419921875 195.60043334960935 " />
        <polyline stroke="black" stroke-width="3" stroke-linecap="round" fill="transparent" stroke-linejoin="round" points="213.1318359375 69.114990234375 213.6357421875 78.1856689453125 211.11614990234375 104.89373779296876 205.57293701171875 136.64108276367188 201.03759765625 162.34130859375 195.99835205078125 184.5140686035156 191.9669189453125 199.6318359375 189.44732666015625 210.71820068359375 189.44732666015625 210.71820068359375 " />
        <polyline stroke="black" stroke-width="3" stroke-linecap="round" fill="transparent" stroke-linejoin="round" points="202.54937744140625 170.90805053710938 217.1632080078125 176.95516967773438 227.24176025390625 184.0101318359375 236.31243896484375 193.080810546875 244.879150390625 205.678955078125 244.879150390625 205.678955078125 " />
        </svg>