<?xml version="1.0" standalone="no"?>
    <svg width="256" height="256" xmlns="http://www.w3.org/2000/svg" version="1.1">
    <polyline stroke="black" stroke-width="3" stroke-linecap="round" fill="transparent" stroke-linejoin="round" points="103.93392944335938 45.66728973388672 87.56695556640625 67.48994445800781 80.85226440429688 76.30294799804688 65.7442626953125 96.44692993164063 59.86895751953125 103.58126831054688 50.63629150390625 113.65325927734376 43.501953125 119.5286102294922 43.501953125 119.5286102294922 " />
        <polyline stroke="black" stroke-width="3" stroke-linecap="round" fill="transparent" stroke-linejoin="round" points="51.05596923828125 73.78494262695313 64.06561279296875 72.94561767578125 71.199951171875 72.94561767578125 78.33428955078125 73.36528015136719 85.88827514648438 73.78494262695313 102.2552490234375 75.46360778808594 109.38958740234376 76.72261047363281 116.52392578125 78.40127563476563 128.69427490234375 80.91928100585938 135.82858276367188 82.59793090820313 138.3465576171875 83.01760864257813 138.7662353515625 83.01760864257813 137.92694091796875 83.01760864257813 131.63192749023438 83.85693359375 125.3369140625 85.95527648925781 120.3009033203125 87.63394165039063 116.52392578125 89.31260681152344 113.16659545898438 92.25027465820313 109.38958740234376 99.38461303710938 106.0322265625 113.23361206054688 103.09457397460938 140.93157958984375 101.41595458984376 168.6295623779297 100.57659912109376 188.7735595703125 99.31759643554688 198.8455810546875 97.638916015625 203.042236328125 95.96026611328124 202.202880859375 92.60296630859376 198.4259033203125 86.30795288085938 188.3538818359375 80.85226440429688 179.96055603027344 76.23593139648438 174.924560546875 72.03927612304688 171.98690795898438 68.68197631835938 170.7279052734375 67.42294311523438 170.7279052734375 64.48529052734375 171.98690795898438 62.806610107421875 174.924560546875 61.96728515625 178.2819061279297 61.96728515625 181.21957397460935 62.386932373046875 182.05889892578125 62.386932373046875 182.05889892578125 " />
        <polyline stroke="black" stroke-width="3" stroke-linecap="round" fill="transparent" stroke-linejoin="round" points="111.0682373046875 147.22659301757813 121.55990600585938 153.10191345214844 125.756591796875 155.6199188232422 138.3465576171875 163.17391967773438 143.80224609375 163.17391967773438 143.80224609375 163.17391967773438 " />
        <polyline stroke="black" stroke-width="3" stroke-linecap="round" fill="transparent" stroke-linejoin="round" points="171.08056640625 53.221282958984375 163.94622802734375 73.78494262695313 160.16925048828125 85.11593627929688 155.55291748046875 97.7059326171875 150.93658447265625 109.8762664794922 142.543212890625 132.5382537841797 138.7662353515625 141.7709197998047 132.89093017578125 156.459228515625 129.5335693359375 164.4329071044922 128.69427490234375 165.69189453125 128.69427490234375 165.69189453125 " />
        <polyline stroke="black" stroke-width="3" stroke-linecap="round" fill="transparent" stroke-linejoin="round" points="144.64157104492188 132.5382537841797 158.9102783203125 136.7349090576172 163.10693359375 138.833251953125 167.3035888671875 140.93157958984375 178.21490478515625 146.3872528076172 185.7689208984375 148.90524291992188 185.7689208984375 148.90524291992188 " />
        <polyline stroke="black" stroke-width="3" stroke-linecap="round" fill="transparent" stroke-linejoin="round" points="213.8865966796875 63.71295166015625 208.8505859375 76.72261047363281 205.49322509765625 85.53561401367188 201.71624755859375 95.60760498046876 197.51953125 106.09927368164063 189.126220703125 125.82359313964844 181.152587890625 143.86924743652344 174.8575439453125 158.97723388671875 170.660888671875 169.88858032226563 170.660888671875 169.88858032226563 " />
        <polyline stroke="black" stroke-width="3" stroke-linecap="round" fill="transparent" stroke-linejoin="round" points="200.03753662109375 147.646240234375 212.6275634765625 157.71824645996094 217.66357421875 162.75424194335938 231.0928955078125 178.70156860351563 231.0928955078125 178.70156860351563 " />
        </svg>