<?xml version="1.0" standalone="no"?>
    <svg width="256" height="256" xmlns="http://www.w3.org/2000/svg" version="1.1">
    <polyline stroke="black" stroke-width="3" stroke-linecap="round" fill="transparent" stroke-linejoin="round" points="55.12884521484375 59.1229248046875 63.292144775390625 79.02095031738281 64.82275390625 84.63320922851563 66.3533935546875 90.24546813964844 66.86358642578125 93.81690979003906 66.86358642578125 94.32711791992188 68.39425659179688 90.24546813964844 74.0064697265625 78.00053405761719 85.23098754882813 63.71476745605469 102.5780029296875 48.918792724609375 119.92501831054688 39.224884033203125 136.76181030273438 33.10242462158203 152.0679931640625 33.10242462158203 162.2720947265625 40.75550842285156 167.3741455078125 53.510650634765625 165.843505859375 73.40869140625 160.23126220703125 86.67402648925781 150.53738403320313 97.8985595703125 136.76181030273438 106.06185913085938 129.61892700195313 106.06185913085938 129.61892700195313 106.06185913085938 " />
        <polyline stroke="black" stroke-width="3" stroke-linecap="round" fill="transparent" stroke-linejoin="round" points="78.08810424804688 97.8985595703125 101.04739379882813 80.04136657714844 108.19027709960938 74.93930053710938 111.25152587890624 72.89848327636719 118.3944091796875 68.81683349609375 125.02706909179688 65.75559997558594 126.55767822265624 66.7760009765625 121.96585083007813 71.36785888671875 111.25152587890624 80.04136657714844 101.55758666992188 87.18423461914063 96.45553588867188 90.24546813964844 95.94534301757813 90.75567626953124 102.06781005859376 88.71485900878906 119.414794921875 82.59237670898438 139.31283569335938 75.959716796875 156.65985107421875 69.32704162597656 156.65985107421875 69.32704162597656 " />
        <polyline stroke="black" stroke-width="3" stroke-linecap="round" fill="transparent" stroke-linejoin="round" points="49.516571044921875 149.42935180664063 78.59832763671875 135.65380859375 109.72088623046876 122.3884735107422 130.12911987304688 111.67413330078124 141.86386108398438 104.02102661132813 150.02716064453125 96.3679656982422 150.02716064453125 96.3679656982422 " />
        <polyline stroke="black" stroke-width="3" stroke-linecap="round" fill="transparent" stroke-linejoin="round" points="86.76162719726563 138.20484924316406 74.0064697265625 164.73553466796875 70.43502807617188 178.51109313964844 69.92483520507813 190.75604248046875 73.49627685546875 198.40911865234375 83.190185546875 200.96017456054688 109.72088623046876 190.245849609375 127.06790161132813 174.429443359375 145.94546508789063 155.55181884765625 157.68023681640625 139.73545837402344 160.741455078125 130.5517578125 157.68023681640625 128.00070190429688 142.88427734375 129.53134155273438 127.57809448242188 135.65380859375 113.80255126953124 143.81710815429688 107.6800537109375 149.93955993652344 107.6800537109375 158.61306762695313 121.45562744140624 172.3886260986328 141.86386108398438 180.04171752929688 165.843505859375 181.57232666015625 188.80279541015625 178.51109313964844 206.1497802734375 174.9396514892578 224.5172119140625 173.40904235839844 240.3336181640625 173.9192352294922 240.3336181640625 173.9192352294922 " />
        </svg>