<?xml version="1.0" standalone="no"?>
    <svg width="256" height="256" xmlns="http://www.w3.org/2000/svg" version="1.1">
    <polyline stroke="black" stroke-width="3" stroke-linecap="round" fill="transparent" stroke-linejoin="round" points="66.66213989257813 67.32302856445313 69.37994384765625 75.26687622070313 72.09774780273438 83.21072387695313 76.53173828125 97.9471435546875 77.60873413085938 103.25146484375 77.79818725585938 107.96946716308594 77.75546264648438 108.126708984375 " />
        <polyline stroke="black" stroke-width="3" stroke-linecap="round" fill="transparent" stroke-linejoin="round" points="105.56674194335938 50.139373779296875 113.33224487304688 48.175315856933594 121.09774780273438 46.21125793457031 137.77459716796875 41.811729431152344 154.005615234375 37.21693420410156 160.69390869140625 35.49989318847656 170.52923583984375 32.77001953125 172.79339599609375 32.23686218261719 174.277587890625 32.59417724609375 174.4400634765625 33.212127685546875 174.4854736328125 34.37359619140625 174.6690673828125 36.91188049316406 173.91888427734375 53.03977966308594 171.5936279296875 60.87799072265625 162.7698974609375 76.19619750976563 151.68536376953125 88.02230834960938 139.23446655273438 99.57174682617188 137.36956787109375 100.04562377929688 " />
        <polyline stroke="black" stroke-width="3" stroke-linecap="round" fill="transparent" stroke-linejoin="round" points="96.2163391113281 77.78965759277344 108.63458251953124 78.29804992675781 121.05282592773438 78.80644226074219 126.677001953125 79.4117431640625 135.9217529296875 79.61537170410156 138.46163940429688 79.57687377929688 140.12213134765625 78.72567749023438 140.55526733398438 78.5345458984375 140.81845092773438 78.41844177246094 140.86865234375 78.39630126953125 " />
        <polyline stroke="black" stroke-width="3" stroke-linecap="round" fill="transparent" stroke-linejoin="round" points="96.90716552734375 105.68905639648438 109.66561889648438 102.67233276367188 122.424072265625 99.65560913085938 127.77508544921876 98.476318359375 136.82235717773438 96.89620971679688 139.27362060546875 96.1999969482422 141.04208374023438 95.81402587890624 141.1353759765625 95.76936340332033 141.17333984375 95.75119018554688 " />
        <polyline stroke="black" stroke-width="3" stroke-linecap="round" fill="transparent" stroke-linejoin="round" points="41.933868408203125 147.30569458007813 48.90966796875 146.23736572265625 55.885467529296875 145.16903686523438 71.42160034179688 142.01089477539063 80.503662109375 140.04156494140625 99.93798828125 134.87249755859375 109.36285400390624 131.87701416015625 127.2984619140625 126.90470886230467 143.55126953125 123.7913818359375 150.36178588867188 122.95516967773438 163.41162109375 122.26437377929688 169.95245361328125 122.19979858398438 176.22857666015625 121.48526000976563 178.7314453125 121.23739624023438 194.0352783203125 119.70547485351563 201.1837158203125 118.73220825195313 204.4290771484375 118.027099609375 204.461181640625 118.00222778320313 204.4635009765625 118.00045776367188 204.46466064453125 117.99951171875 " />
        <polyline stroke="black" stroke-width="3" stroke-linecap="round" fill="transparent" stroke-linejoin="round" points="81.809814453125 153.88893127441406 81.80038452148438 164.30029296875 81.79095458984375 174.71165466308594 80.7822265625 195.44448852539065 79.22821044921875 208.62237548828125 78.61767578125 212.16769409179688 78.27584838867188 215.3739013671875 78.60125732421875 220.45779418945313 78.7108154296875 222.78103637695313 78.81658935546875 226.1123046875 78.8414306640625 226.72662353515625 78.864990234375 227.63473510742188 78.86898803710938 227.78741455078125 78.871337890625 227.8790283203125 79.52474975585938 227.16357421875 85.177978515625 221.26486206054688 92.22760009765624 214.9425048828125 104.49337768554688 203.59896850585935 110.82443237304688 197.237060546875 121.87777709960938 186.6968994140625 125.8663330078125 184.099365234375 129.35516357421875 183.160400390625 129.40087890625 183.25778198242188 " />
        <polyline stroke="black" stroke-width="3" stroke-linecap="round" fill="transparent" stroke-linejoin="round" points="133.77789306640625 145.54376220703125 137.55169677734375 152.28848266601563 141.32550048828125 159.033203125 152.7333984375 175.813720703125 160.2755126953125 184.9613037109375 176.21435546875 204.55276489257813 182.080322265625 214.2783203125 183.88446044921875 221.27130126953125 183.0030517578125 221.27685546875 " />
        </svg>