<?xml version="1.0" standalone="no"?>
    <svg width="256" height="256" xmlns="http://www.w3.org/2000/svg" version="1.1">
    <polyline stroke="black" stroke-width="3" stroke-linecap="round" fill="transparent" stroke-linejoin="round" points="93.22799682617188 50.72245788574219 93.63436889648438 58.84977722167969 94.04074096679688 66.97709655761719 94.04074096679688 74.69804382324219 94.44711303710938 88.92083740234375 93.63436889648438 99.89273071289063 92.8216552734375 103.55001831054688 92.8216552734375 103.55001831054688 " />
        <polyline stroke="black" stroke-width="3" stroke-linecap="round" fill="transparent" stroke-linejoin="round" points="98.5107421875 49.09699249267578 107.857177734375 43.814239501953125 117.20361328125 38.53148651123047 128.17547607421875 33.24873352050781 139.14739990234375 28.778717041015625 157.8402099609375 23.08959197998047 172.4693603515625 22.27685546875 181.409423828125 23.902328491210938 185.87939453125 27.559616088867188 188.317626953125 36.499656677246094 183.03485107421875 51.941558837890625 168.81207275390625 71.04074096679688 157.8402099609375 82.01263427734375 157.8402099609375 82.01263427734375 " />
        <polyline stroke="black" stroke-width="3" stroke-linecap="round" fill="transparent" stroke-linejoin="round" points="104.60629272460938 77.94895935058594 111.51449584960938 76.32350158691406 118.42269897460938 74.69804382324219 125.33090209960938 73.07257080078125 139.14739990234375 69.8216552734375 150.52560424804688 67.78982543945313 157.8402099609375 67.38345336914063 159.05926513671875 67.78982543945313 157.8402099609375 71.04074096679688 149.30648803710938 78.35533142089844 132.6455078125 89.73358154296875 123.299072265625 96.23542785644533 119.64181518554688 99.08000183105467 118.82907104492188 99.48635864257813 121.67364501953124 99.48635864257813 133.05184936523438 98.26725769042967 149.71286010742188 94.60995483398438 154.5892333984375 93.390869140625 154.5892333984375 93.390869140625 " />
        <polyline stroke="black" stroke-width="3" stroke-linecap="round" fill="transparent" stroke-linejoin="round" points="63.156921386718764 147.03118896484375 84.2879638671875 139.31021118164063 105.41900634765624 131.5892333984375 129.80096435546875 124.6810302734375 164.7484130859375 117.77281188964844 179.783935546875 116.14736938476563 184.66033935546875 115.74099731445313 188.317626953125 115.74099731445313 188.317626953125 115.74099731445313 " />
        <polyline stroke="black" stroke-width="3" stroke-linecap="round" fill="transparent" stroke-linejoin="round" points="108.26348876953124 134.433837890625 107.04443359375 151.09481811523438 105.82537841796876 167.75579833984375 105.01263427734376 185.63589477539065 104.60626220703124 197.4205017089844 104.60626220703124 201.07778930664065 105.82537841796876 205.14144897460935 110.70175170898438 205.9541931152344 119.64181518554688 202.296875 132.6455078125 192.54412841796875 145.24285888671875 177.91494750976563 145.24285888671875 177.91494750976563 " />
        <polyline stroke="black" stroke-width="3" stroke-linecap="round" fill="transparent" stroke-linejoin="round" points="159.87213134765625 142.96746826171875 167.1866455078125 152.7202606201172 174.50115966796875 162.47305297851563 182.22210693359375 174.25765991210938 189.5367431640625 186.85498046875 202.94677734375 212.8623962402344 212.6995849609375 237.65069580078125 212.6995849609375 237.65069580078125 " />
        </svg>