<?xml version="1.0" standalone="no"?>
    <svg width="256" height="256" xmlns="http://www.w3.org/2000/svg" version="1.1">
    <polyline stroke="black" stroke-width="3" stroke-linecap="round" fill="transparent" stroke-linejoin="round" points="88.110595703125 76.60206604003906 88.95016479492188 82.89877319335938 89.78973388671875 89.19548034667969 90.62933349609376 93.39328002929688 92.72817993164063 103.0482177734375 94.82711791992188 110.604248046875 95.66668701171876 112.28337097167967 95.66668701171876 112.28337097167967 " />
        <polyline stroke="black" stroke-width="3" stroke-linecap="round" fill="transparent" stroke-linejoin="round" points="114.5567626953125 49.73616027832031 122.5325927734375 45.95814514160156 130.5084228515625 42.18013000488281 136.80508422851563 40.08123779296875 143.52157592773438 37.98233795166016 150.238037109375 37.142784118652344 155.275390625 37.56256103515625 159.05340576171875 39.66145324707031 161.99188232421875 45.95814514160156 163.251220703125 56.45265197753906 163.251220703125 70.72514343261719 161.99188232421875 84.15812683105469 159.47320556640625 98.0108642578125 156.11492919921875 112.70315551757813 154.43585205078125 117.32073974609376 154.43585205078125 117.32073974609376 " />
        <polyline stroke="black" stroke-width="3" stroke-linecap="round" fill="transparent" stroke-linejoin="round" points="117.0754699707031 79.96035766601563 121.27325439453124 78.28121948242188 125.47103881835938 76.60208129882813 131.7677001953125 74.50318908691406 137.224853515625 73.66361999511719 137.224853515625 73.66361999511719 " />
        <polyline stroke="black" stroke-width="3" stroke-linecap="round" fill="transparent" stroke-linejoin="round" points="126.7303466796875 100.52952575683597 137.224853515625 96.33172607421876 147.7193603515625 92.13392639160156 152.7567138671875 90.45481872558594 152.7567138671875 90.45481872558594 " />
        <polyline stroke="black" stroke-width="3" stroke-linecap="round" fill="transparent" stroke-linejoin="round" points="69.22048950195313 162.65695190429688 103.6424560546875 148.80422973632813 138.06442260742188 134.95150756835938 170.38751220703125 122.7778778076172 189.6973876953125 116.0614013671875 198.9324951171875 112.28337097167967 203.13031005859375 110.18446350097656 203.13031005859375 110.18446350097656 " />
        <polyline stroke="black" stroke-width="3" stroke-linecap="round" fill="transparent" stroke-linejoin="round" points="86.01174926757813 158.45919799804688 83.07327270507813 171.8921356201172 80.13479614257813 185.3250732421875 79.71499633789063 192.04156494140625 78.87545776367188 198.75802612304688 78.87545776367188 204.63494873046875 79.71499633789063 208.4129943847656 80.97439575195313 208.832763671875 91.88861083984376 201.69650268554688 118.33480834960938 169.37344360351563 142.68203735351563 137.88995361328125 165.7698974609375 111.44383239746094 177.9434814453125 95.91197204589844 177.9434814453125 95.91197204589844 " />
        <polyline stroke="black" stroke-width="3" stroke-linecap="round" fill="transparent" stroke-linejoin="round" points="114.13702392578125 158.45916748046875 154.01611328125 179.02838134765625 193.89520263671875 199.59759521484375 221.60064697265625 210.931640625 221.60064697265625 210.931640625 " />
        </svg>