<?xml version="1.0" standalone="no"?>
    <svg width="256" height="256" xmlns="http://www.w3.org/2000/svg" version="1.1">
    <polyline stroke="black" stroke-width="3" stroke-linecap="round" fill="transparent" stroke-linejoin="round" points="87.36764526367188 119.93847656249999 87.65631103515625 121.09298706054688 87.94497680664063 122.24749755859376 88.81088256835938 127.73146057128906 89.38815307617188 130.9063720703125 89.38815307617188 131.7722930908203 89.38815307617188 131.7722930908203 " />
        <polyline stroke="black" stroke-width="3" stroke-linecap="round" fill="transparent" stroke-linejoin="round" points="102.66500854492188 54.41963195800781 115.07608032226563 48.069786071777344 127.48715209960938 41.719940185546875 139.32098388671875 37.3905029296875 147.11395263671875 35.947357177734375 154.04107666015625 36.23597717285156 158.3704833984375 43.45171356201172 158.0819091796875 68.56245422363281 152.597900390625 95.69361877441406 147.97988891601563 114.45451354980467 145.95944213867188 121.3816375732422 145.95944213867188 121.3816375732422 " />
        <polyline stroke="black" stroke-width="3" stroke-linecap="round" fill="transparent" stroke-linejoin="round" points="103.81951904296876 82.99392700195313 105.8399658203125 82.12803649902344 107.86041259765624 81.26214599609375 125.17816162109376 75.200927734375 135.85745239257813 72.31463623046875 142.49591064453125 70.87149047851563 145.67080688476563 70.29423522949219 145.67080688476563 70.29423522949219 " />
        <polyline stroke="black" stroke-width="3" stroke-linecap="round" fill="transparent" stroke-linejoin="round" points="98.0470275878906 120.2270965576172 113.05572509765624 113.588623046875 128.06442260742188 106.9501495361328 141.91864013671875 100.88894653320313 150.28887939453125 96.84812927246094 150.28887939453125 96.84812927246094 " />
        <polyline stroke="black" stroke-width="3" stroke-linecap="round" fill="transparent" stroke-linejoin="round" points="68.89541625976563 156.59439086914063 79.86334228515625 151.6876983642578 90.83126831054688 146.781005859375 125.46676635742188 134.08131408691406 158.65911865234375 123.1134033203125 183.192626953125 113.588623046875 198.20135498046875 106.66152954101563 205.12841796875 102.90934753417967 205.12841796875 102.90934753417967 " />
        <polyline stroke="black" stroke-width="3" stroke-linecap="round" fill="transparent" stroke-linejoin="round" points="85.63601684570313 173.33493041992185 89.38815307617188 197.00250244140625 93.14028930664063 220.67007446289065 96.02658081054688 237.1219482421875 96.8924560546875 240.296875 98.0469970703125 242.02865600585935 101.51052856445313 239.43099975585935 112.76708984375 224.13363647460935 128.06442260742188 209.9908142089844 149.42300415039063 194.1162109375 169.9156494140625 178.5301971435547 184.63580322265625 166.40777587890625 188.9652099609375 160.34657287597656 188.9652099609375 160.34657287597656 " />
        <polyline stroke="black" stroke-width="3" stroke-linecap="round" fill="transparent" stroke-linejoin="round" points="121.426025390625 128.02008056640625 150.86614990234375 153.13082885742188 180.3062744140625 178.2415771484375 206.282958984375 203.06369018554688 232.2596435546875 220.958740234375 249.0001220703125 231.63800048828125 249.0001220703125 231.63800048828125 " />
        </svg>