<?xml version="1.0" standalone="no"?>
    <svg width="256" height="256" xmlns="http://www.w3.org/2000/svg" version="1.1">
    <polyline stroke="black" stroke-width="3" stroke-linecap="round" fill="transparent" stroke-linejoin="round" points="52.424102783203125 64.58164978027344 49.45556640625 82.77217102050781 49.084564208984375 88.34074401855469 49.45556640625 90.19694519042967 49.45556640625 91.68174743652344 49.826568603515625 92.79554748535156 50.5689697265625 92.79554748535156 51.31103515625 92.05313110351563 51.31103515625 92.05313110351563 " />
        <polyline stroke="black" stroke-width="3" stroke-linecap="round" fill="transparent" stroke-linejoin="round" points="84.33331298828125 51.21692657470703 81.36517333984375 70.15022277832031 80.25210571289063 77.57498168945313 79.51004028320313 84.62837219238281 78.76797485351563 88.71176147460938 78.76797485351563 88.71176147460938 " />
        <polyline stroke="black" stroke-width="3" stroke-linecap="round" fill="transparent" stroke-linejoin="round" points="45.0032958984375 138.8289337158203 64.2974853515625 135.48756408691406 70.60482788085938 134.0027618408203 73.5733642578125 133.63137817382813 75.79949951171875 133.2603759765625 78.02560424804688 132.88897705078125 79.88107299804688 132.88897705078125 81.36517333984375 132.88897705078125 82.47821044921875 132.517578125 82.8492431640625 132.517578125 83.22024536132813 132.517578125 83.59127807617188 132.517578125 83.9622802734375 132.517578125 84.33331298828125 132.14657592773438 84.33331298828125 132.14657592773438 " />
        <polyline stroke="black" stroke-width="3" stroke-linecap="round" fill="transparent" stroke-linejoin="round" points="76.17050170898438 76.46119689941406 75.42843627929688 96.87893676757813 74.68643188476563 117.29705810546876 74.68643188476563 127.32040405273438 74.68643188476563 136.97274780273438 74.68643188476563 145.13990783691406 75.42843627929688 152.1932830810547 75.79949951171875 158.50425720214844 76.54150390625 164.81524658203125 76.54150390625 171.126220703125 76.91256713867188 177.06619262695313 77.65457153320313 181.52096557617188 78.39697265625 186.34713745117188 79.51004028320313 190.4305419921875 79.88107299804688 193.77154541015625 80.25210571289063 197.1129150390625 80.25210571289063 200.08251953125 80.62310791015625 202.31008911132813 80.25210571289063 203.794921875 80.62310791015625 204.90869140625 80.62310791015625 205.28009033203125 80.99411010742188 204.53765869140625 81.73617553710938 203.052490234375 82.8492431640625 201.1962890625 82.8492431640625 201.1962890625 " />
        <polyline stroke="black" stroke-width="3" stroke-linecap="round" fill="transparent" stroke-linejoin="round" points="71.34722900390625 142.16995239257813 64.66848754882813 158.50425720214844 60.21588134765625 170.01243591308594 57.989776611328125 174.83859252929688 56.134307861328125 179.2933807373047 54.650238037109375 183.3771514892578 53.53717041015625 186.34713745117188 53.166107177734375 188.5743408203125 53.166107177734375 190.4305419921875 54.2791748046875 190.80191040039065 55.7633056640625 190.4305419921875 55.7633056640625 190.4305419921875 " />
        <polyline stroke="black" stroke-width="3" stroke-linecap="round" fill="transparent" stroke-linejoin="round" points="85.07534790039063 146.25332641601563 96.20669555664063 161.4742431640625 104.74053955078124 171.4976043701172 109.56414794921876 176.32339477539063 114.38778686523438 179.66476440429688 118.84002685546876 181.89198303222656 122.921630859375 183.3771514892578 126.63186645507813 183.3771514892578 130.3424072265625 182.26336669921875 134.0526123046875 179.66476440429688 137.76321411132813 176.32339477539063 137.76321411132813 176.32339477539063 " />
        <polyline stroke="black" stroke-width="3" stroke-linecap="round" fill="transparent" stroke-linejoin="round" points="147.78109741210938 72.37744140625 145.926025390625 91.68174743652344 146.29702758789063 102.8188934326172 146.66802978515625 113.21365356445313 146.66802978515625 117.66842651367188 146.66802978515625 121.00942993164063 147.0390625 123.97941589355467 147.0390625 126.20660400390624 147.0390625 128.43418884277344 146.66802978515625 130.29037475585938 146.66802978515625 132.14657592773438 146.29702758789063 133.2603759765625 146.29702758789063 134.37379455566406 146.29702758789063 135.48756408691406 146.29702758789063 136.22998046875 146.29702758789063 137.7151336669922 146.29702758789063 138.08616638183594 146.29702758789063 138.45753479003906 146.29702758789063 138.8289337158203 146.29702758789063 139.19993591308594 146.29702758789063 139.5713348388672 146.66802978515625 139.9423370361328 146.66802978515625 140.3137664794922 146.66802978515625 140.6847686767578 146.66802978515625 141.05615234375 146.66802978515625 141.42752075195313 147.0390625 141.42752075195313 147.0390625 141.79855346679688 147.0390625 141.79855346679688 147.0390625 141.79855346679688 147.0390625 142.16995239257813 147.0390625 142.16995239257813 147.0390625 142.16995239257813 147.0390625 142.54095458984375 147.0390625 142.54095458984375 146.66802978515625 142.91233825683594 146.66802978515625 143.28370666503906 146.66802978515625 143.28370666503906 146.66802978515625 143.6547393798828 146.66802978515625 144.02610778808594 147.0390625 144.02610778808594 147.0390625 144.3971405029297 147.0390625 144.7685089111328 147.0390625 145.13990783691406 147.0390625 145.51092529296875 147.0390625 145.88232421875 147.0390625 146.62472534179688 147.0390625 147.36712646484375 147.0390625 148.10952758789063 147.0390625 148.85227966308594 147.0390625 149.96571350097656 147.0390625 150.70851135253906 147.0390625 151.8218994140625 147.0390625 153.3070831298828 147.0390625 154.79188537597656 147.0390625 156.6480712890625 147.0390625 158.50425720214844 147.0390625 160.36045837402344 147.41009521484375 162.58802795410156 147.41009521484375 164.44386291503906 147.0390625 166.67144775390625 147.0390625 169.27003479003906 146.66802978515625 171.4976043701172 146.29702758789063 174.09619140625 145.926025390625 175.952392578125 145.1839599609375 178.1796112060547 144.44192504882813 180.03579711914063 143.69989013671875 181.89198303222656 142.95782470703125 183.74818420410156 141.84475708007813 185.97576904296875 140.3603515625 188.20297241210935 139.24728393554688 190.4305419921875 137.76321411132813 192.6581115722656 136.27908325195313 195.2567138671875 134.79501342773438 197.85531616210935 133.310546875 200.45391845703125 131.82647705078125 202.68148803710935 129.97140502929688 204.90869140625 128.4873046875 206.39382934570313 127.00286865234376 207.878662109375 125.14776611328124 208.99246215820313 125.14776611328124 208.99246215820313 " />
        <polyline stroke="black" stroke-width="3" stroke-linecap="round" fill="transparent" stroke-linejoin="round" points="126.63186645507813 99.10652160644533 121.06655883789063 119.15324401855467 119.58209228515624 132.88897705078125 119.58209228515624 139.9423370361328 119.58209228515624 145.88232421875 119.58209228515624 149.96571350097656 119.58209228515624 152.93568420410156 119.58209228515624 155.16326904296875 119.95309448242188 156.27671813964844 120.69549560546876 157.76187133789063 121.43756103515624 158.13290405273438 122.17962646484376 158.13290405273438 123.29263305664063 158.13290405273438 124.7767333984375 157.76187133789063 126.63186645507813 157.39047241210938 128.85833740234375 157.0194549560547 131.08447265625 156.27671813964844 133.68161010742188 155.16326904296875 136.65008544921875 154.4204864501953 139.98934936523438 153.3070831298828 143.32888793945313 152.1932830810547 146.29702758789063 151.07949829101563 149.63656616210938 149.96571350097656 152.97576904296875 148.4809112548828 156.3153076171875 147.73851013183594 158.91241455078125 146.62472534179688 161.1385498046875 145.88232421875 163.36505126953125 145.13990783691406 164.84912109375 144.3971405029297 166.33319091796875 143.6547393798828 167.4462890625 142.91233825683594 168.559326171875 141.79855346679688 169.3013916015625 140.3137664794922 169.3013916015625 140.3137664794922 " />
        <polyline stroke="black" stroke-width="3" stroke-linecap="round" fill="transparent" stroke-linejoin="round" points="176.35113525390625 102.447509765625 171.1568603515625 118.41082763671876 170.04376220703125 128.80520629882813 169.3013916015625 134.0027618408203 168.559326171875 138.8289337158203 168.18829345703125 143.28370666503906 167.8172607421875 146.25332641601563 167.4462890625 148.85227966308594 167.8172607421875 150.33709716796875 167.4462890625 151.45086669921875 167.4462890625 152.1932830810547 168.18829345703125 152.56430053710938 169.3013916015625 151.8218994140625 169.3013916015625 151.8218994140625 " />
        <polyline stroke="black" stroke-width="3" stroke-linecap="round" fill="transparent" stroke-linejoin="round" points="208.6317138671875 73.49122619628906 204.5501708984375 92.05313110351563 202.695068359375 107.273681640625 201.9530029296875 115.06983947753906 201.21099853515625 122.86563110351563 200.8399658203125 130.66139221191406 200.8399658203125 138.45753479003906 200.8399658203125 145.88232421875 200.8399658203125 152.93568420410156 201.58203125 159.2466583251953 202.32403564453125 165.92901611328125 203.06610107421875 172.98240661621094 203.80810546875 178.92237854003906 204.5501708984375 184.86196899414065 205.29254150390625 190.4305419921875 205.66357421875 195.62774658203125 206.03466796875 201.1962890625 206.4056396484375 206.0224609375 206.4056396484375 209.73486328125 206.4056396484375 212.33346557617188 206.03466796875 214.93206787109375 205.66357421875 217.15960693359375 205.29254150390625 218.6444396972656 205.29254150390625 219.3868408203125 204.92156982421875 219.75823974609375 204.92156982421875 219.3868408203125 205.29254150390625 217.90203857421875 205.66357421875 214.93206787109375 205.66357421875 210.10623168945313 206.03466796875 203.794921875 206.03466796875 203.794921875 " />
        <polyline stroke="black" stroke-width="3" stroke-linecap="round" fill="transparent" stroke-linejoin="round" points="193.79022216796875 110.6147003173828 186.369384765625 131.40419006347656 184.88531494140625 142.91233825683594 184.88531494140625 146.99609375 185.25634765625 150.33709716796875 186.369384765625 152.93568420410156 187.48248291015625 154.79188537597656 188.59552001953125 156.27671813964844 190.45062255859375 157.39047241210938 191.93511962890625 158.50425720214844 194.16119384765625 159.6180877685547 196.3873291015625 160.36045837402344 198.98480224609375 160.73184204101563 201.58203125 160.73184204101563 204.17913818359375 160.73184204101563 207.14764404296875 160.36045837402344 209.74481201171875 160.36045837402344 212.34228515625 159.98907470703125 214.939453125 159.6180877685547 217.16552734375 158.8756561279297 219.76312255859375 158.13290405273438 222.3602294921875 157.0194549560547 224.9573974609375 155.16326904296875 224.9573974609375 155.16326904296875 " />
        <polyline stroke="black" stroke-width="3" stroke-linecap="round" fill="transparent" stroke-linejoin="round" points="233.4915771484375 99.8489227294922 229.03900146484375 122.49423217773438 227.9259033203125 130.29037475585938 227.18389892578125 138.8289337158203 226.8128662109375 146.62472534179688 226.44183349609375 153.3070831298828 226.8128662109375 159.98907470703125 227.9259033203125 167.7852325439453 229.03900146484375 177.43722534179688 229.03900146484375 177.43722534179688 " />
        </svg>