<?xml version="1.0" standalone="no"?>
    <svg width="256" height="256" xmlns="http://www.w3.org/2000/svg" version="1.1">
    <polyline stroke="black" stroke-width="3" stroke-linecap="round" fill="transparent" stroke-linejoin="round" points="66.57086181640625 65.56184387207031 59.22552490234375 80.86468505859375 51.268035888671875 94.3311767578125 46.983245849609375 102.9007568359375 45.14691162109375 107.185546875 49.43170166015625 105.34921264648438 59.22552490234375 97.39173889160156 77.58892822265625 82.08891296386719 96.56442260742188 69.84663391113281 107.58245849609376 66.78607177734375 114.31570434570313 68.01029968261719 118.60049438476563 78.41622924804688 115.5399169921875 112.694580078125 96.56442260742188 161.66363525390625 74.5283203125 205.73580932617188 61.06182861328125 225.32342529296875 53.71649169921875 232.66879272460935 53.71649169921875 232.66879272460935 " />
        <polyline stroke="black" stroke-width="3" stroke-linecap="round" fill="transparent" stroke-linejoin="round" points="69.63143920898438 129.2216339111328 84.3221435546875 135.3427734375 116.15203857421876 150.0334930419922 137.57601928710938 160.43942260742188 163.89691162109375 172.06956481933594 180.4239501953125 178.8028106689453 194.5025634765625 180.02703857421875 194.5025634765625 180.02703857421875 " />
        <polyline stroke="black" stroke-width="3" stroke-linecap="round" fill="transparent" stroke-linejoin="round" points="177.3634033203125 74.74354553222656 181.648193359375 114.53091430664063 180.4239501953125 132.89431762695313 177.3634033203125 147.5850372314453 172.46649169921875 156.1546173095703 160.2242431640625 159.21519470214844 160.2242431640625 159.21519470214844 " />
        <polyline stroke="black" stroke-width="3" stroke-linecap="round" fill="transparent" stroke-linejoin="round" points="111.255126953125 90.04638671875 121.66107177734376 95.55540466308594 137.57601928710938 101.06442260742188 173.07861328125 104.12498474121094 173.07861328125 104.12498474121094 " />
        <polyline stroke="black" stroke-width="3" stroke-linecap="round" fill="transparent" stroke-linejoin="round" points="203.0721435546875 100.45230102539063 195.11468505859375 118.81570434570313 180.4239501953125 153.70616149902344 180.4239501953125 153.70616149902344 " />
        </svg>