<?xml version="1.0" standalone="no"?>
    <svg width="256" height="256" xmlns="http://www.w3.org/2000/svg" version="1.1">
    <polyline stroke="black" stroke-width="3" stroke-linecap="round" fill="transparent" stroke-linejoin="round" points="82.88272094726563 91.27059936523438 75.537353515625 104.7371063232422 66.35565185546875 118.81570434570313 59.622406005859375 127.99740600585938 55.949737548828125 132.89431762695313 55.337615966796875 134.11854553222656 57.78607177734375 129.833740234375 63.29510498046875 121.87628173828124 74.3131103515625 108.40977478027344 85.94329833984375 96.16751098632813 98.185546875 86.37370300292969 108.59149169921876 82.08891296386719 114.71261596679688 82.08891296386719 117.16107177734376 88.21003723144531 113.4884033203125 115.75514221191406 96.96133422851563 157.37884521484375 80.43426513671875 190.4329833984375 70.0283203125 206.34793090820313 62.6829833984375 216.1417236328125 58.398193359375 219.81442260742188 58.398193359375 219.81442260742188 " />
        <polyline stroke="black" stroke-width="3" stroke-linecap="round" fill="transparent" stroke-linejoin="round" points="79.21002197265625 167.78477478027344 95.73712158203124 176.9664764404297 123.28219604492188 192.26931762695313 148.37884521484375 205.12368774414065 167.3543701171875 213.0811767578125 183.269287109375 217.97805786132813 194.89947509765625 216.1417236328125 194.89947509765625 216.1417236328125 " />
        <polyline stroke="black" stroke-width="3" stroke-linecap="round" fill="transparent" stroke-linejoin="round" points="180.208740234375 96.16751098632813 180.82086181640625 121.87628173828124 178.9844970703125 139.01544189453125 175.31182861328125 154.3182830810547 169.80279541015625 164.11209106445313 169.80279541015625 164.11209106445313 " />
        <polyline stroke="black" stroke-width="3" stroke-linecap="round" fill="transparent" stroke-linejoin="round" points="133.07601928710938 124.93684387207033 143.48193359375 129.2216339111328 161.8453369140625 128.60952758789063 161.8453369140625 128.60952758789063 " />
        <polyline stroke="black" stroke-width="3" stroke-linecap="round" fill="transparent" stroke-linejoin="round" points="216.32342529296875 113.91880798339844 207.1417236328125 131.05796813964844 191.226806640625 159.21519470214844 191.226806640625 159.21519470214844 " />
        </svg>