<?xml version="1.0" standalone="no"?>
    <svg width="256" height="256" xmlns="http://www.w3.org/2000/svg" version="1.1">
    <polyline stroke="black" stroke-width="3" stroke-linecap="round" fill="transparent" stroke-linejoin="round" points="64.9072265625 54.54380798339844 56.949737548828125 71.07086181640625 48.380126953125 88.82215881347656 42.871124267578125 100.45230102539063 40.42266845703125 105.96133422851563 42.259002685546875 107.185546875 48.380126953125 102.28865051269533 61.234527587890625 91.88272094726563 77.7615966796875 81.47679138183594 91.22808837890624 76.57987976074219 98.57342529296876 76.57987976074219 102.24612426757813 82.70101928710938 100.4097900390625 107.79766845703124 82.65850830078125 161.66363525390625 68.57989501953125 187.37240600585935 56.337615966796875 205.12368774414065 48.99224853515625 213.6932678222656 42.259002685546875 219.20230102539065 42.259002685546875 219.20230102539065 " />
        <polyline stroke="black" stroke-width="3" stroke-linecap="round" fill="transparent" stroke-linejoin="round" points="78.37371826171875 137.17910766601563 103.4703369140625 148.1971435546875 131.6275634765625 160.43942260742188 156.7242431640625 172.06956481933594 176.31182861328125 180.63916015625 202.6326904296875 189.82086181640625 214.26287841796875 185.53607177734375 214.26287841796875 185.53607177734375 " />
        <polyline stroke="black" stroke-width="3" stroke-linecap="round" fill="transparent" stroke-linejoin="round" points="172.02703857421875 79.02833557128906 172.02703857421875 98.615966796875 172.02703857421875 117.59147644042967 171.4149169921875 131.05796813964844 168.3543701171875 140.2396697998047 161.009033203125 146.36080932617188 161.009033203125 146.36080932617188 " />
        <polyline stroke="black" stroke-width="3" stroke-linecap="round" fill="transparent" stroke-linejoin="round" points="129.79119873046875 94.3311767578125 137.1365966796875 99.2280731201172 151.2152099609375 104.7371063232422 151.2152099609375 104.7371063232422 " />
        <polyline stroke="black" stroke-width="3" stroke-linecap="round" fill="transparent" stroke-linejoin="round" points="210.5902099609375 110.85823059082033 203.85693359375 126.16107177734376 203.85693359375 126.16107177734376 " />
        </svg>