<?xml version="1.0" standalone="no"?>
    <svg width="256" height="256" xmlns="http://www.w3.org/2000/svg" version="1.1">
    <polyline stroke="black" stroke-width="3" stroke-linecap="round" fill="transparent" stroke-linejoin="round" points="70 72 65 91 55 110 43 134 32 155 26 167 24 170 24 170 " />
        <polyline stroke="black" stroke-width="3" stroke-linecap="round" fill="transparent" stroke-linejoin="round" points="69 92 74 92 84 91 92 91 94 91 95 100 90 120 79 144 67 168 56 187 45 201 37 207 34 207 34 207 " />
        <polyline stroke="black" stroke-width="3" stroke-linecap="round" fill="transparent" stroke-linejoin="round" points="59 142 74 151 94 162 117 175 143 185 166 192 186 195 203 195 209 193 209 193 " />
        <polyline stroke="black" stroke-width="3" stroke-linecap="round" fill="transparent" stroke-linejoin="round" points="180 58 178 79 176 101 174 124 172 144 172 160 171 172 167 179 164 181 164 181 " />
        <polyline stroke="black" stroke-width="3" stroke-linecap="round" fill="transparent" stroke-linejoin="round" points="125 115 137 124 145 129 145 129 " />
        <polyline stroke="black" stroke-width="3" stroke-linecap="round" fill="transparent" stroke-linejoin="round" points="231 109 221 124 203 144 203 144 " />
        </svg>