<?xml version="1.0" standalone="no"?>
    <svg width="256" height="256" xmlns="http://www.w3.org/2000/svg" version="1.1">
    <polyline stroke="black" stroke-width="3" stroke-linecap="round" fill="transparent" stroke-linejoin="round" points="110 74 111 74 112 75 114 76 115 80 117 85 119 93 121 102 122 113 124 124 125 136 126 151 127 159 127 166 128 171 128 175 127 177 126 178 123 177 119 175 116 170 114 167 " />
        <polyline stroke="black" stroke-width="3" stroke-linecap="round" fill="transparent" stroke-linejoin="round" points="85 112 86 111 86 111 86 112 86 113 86 115 86 119 86 124 86 130 86 135 86 143 86 146 86 149 86 151 85 152 85 153 85 154 85 154 85 154 86 154 87 152 90 150 93 147 96 143 101 139 106 135 113 130 120 126 124 124 " />
        <polyline stroke="black" stroke-width="3" stroke-linecap="round" fill="transparent" stroke-linejoin="round" points="154 98 153 98 151 100 147 105 144 109 141 112 139 116 137 118 136 120 136 121 135 122 135 123 136 126 138 128 140 130 143 133 147 135 152 136 157 137 162 136 164 136 " />
        <polyline stroke="black" stroke-width="3" stroke-linecap="round" fill="transparent" stroke-linejoin="round" points="73 184 71 184 70 184 70 183 72 183 74 182 78 181 83 180 89 179 95 178 107 177 116 176 126 175 137 174 148 172 159 171 170 171 179 171 188 172 195 173 204 177 206 179 " />
        </svg>