<?xml version="1.0" standalone="no"?>
    <svg width="256" height="256" xmlns="http://www.w3.org/2000/svg" version="1.1">
    <polyline stroke="black" stroke-width="3" stroke-linecap="round" fill="transparent" stroke-linejoin="round" points="125.03889161070992 42.04904440398255 125.03889161070992 49.06299763719028 125.3577076667649 60.54037565516657 125.3577076667649 73.61183395341737 125.3577076667649 86.68329225166815 126.31415583492958 98.16067026964444 127.90823611520398 110.59449645578542 129.18350033942363 123.9847708100911 130.13994850758831 136.737413052287 130.77758061969814 149.49005529448286 130.77758061969814 160.96743331245918 130.77758061969814 169.5754668259414 130.77758061969814 174.67652372281975 130.45876456364317 177.22705217125892 130.13994850758831 178.50231639547852 130.13994850758831 179.13994850758831 130.13994850758831 179.4587645636432 129.82113245153334 179.4587645636432 129.18350033942363 179.13994850758831 129.18350033942363 179.13994850758831 " />
        <polyline stroke="black" stroke-width="3" stroke-linecap="round" fill="transparent" stroke-linejoin="round" points="70.52134602532249 87.00210830772303 75.94121897825585 88.59618858799752 82.63635615540863 92.1031652046014 89.96912544467125 95.29132576515036 93.47610206127511 96.88540604542484 93.47610206127511 96.88540604542484 " />
        <polyline stroke="black" stroke-width="3" stroke-linecap="round" fill="transparent" stroke-linejoin="round" points="66.3767372966089 158.41690486401998 74.02832264192637 150.44650346264757 87.0997809401772 136.0997809401772 101.76531951870244 122.07187447376172 101.76531951870244 122.07187447376172 " />
        <polyline stroke="black" stroke-width="3" stroke-linecap="round" fill="transparent" stroke-linejoin="round" points="186.25157437325015 59.265111430947 179.87525325215222 64.68498438388025 175.41182846738366 69.78604128075861 170.31077157050538 75.52473028974674 160.42747383280357 88.27737253194263 151.50062426326645 102.30527899835808 151.50062426326645 102.30527899835808 " />
        <polyline stroke="black" stroke-width="3" stroke-linecap="round" fill="transparent" stroke-linejoin="round" points="170.31077157050538 122.39069052981662 175.73064452343863 129.08582770696947 179.55643719609736 134.1868846038478 183.70104592481096 140.24438966889085 190.7149991580187 150.44650346264757 196.45368816700693 160.01098514429447 196.45368816700693 160.01098514429447 " />
        <polyline stroke="black" stroke-width="3" stroke-linecap="round" fill="transparent" stroke-linejoin="round" points="82.63635615540863 183.9221893484117 87.41859699623205 183.9221893484117 92.8384699491653 184.24100540446665 105.90992824741612 184.87863751657648 121.53191499410605 184.87863751657648 137.7915338529058 184.55982146052156 154.68878482381535 183.28455723630196 169.9919555144504 182.6469251241922 181.46933353242673 182.6469251241922 189.75855098985403 182.6469251241922 195.17842394278728 182.6469251241922 198.3665845033363 182.6469251241922 199.32303267150095 182.6469251241922 199.64184872755584 182.6469251241922 199.64184872755584 182.6469251241922 " />
        </svg>