<?xml version="1.0" standalone="no"?>
    <svg width="256" height="256" xmlns="http://www.w3.org/2000/svg" version="1.1">
    <polyline stroke="black" stroke-width="3" stroke-linecap="round" fill="transparent" stroke-linejoin="round" points="78 95 79 92 80 92 81 92 82 95 83 99 84 104 85 111 87 120 88 129 89 140 89 152 90 163 89 176 88 187 86 198 84 208 82 215 80 220 79 223 79 225 79 226 80 225 82 224 84 222 88 219 92 216 98 213 104 210 112 207 121 204 129 202 139 199 148 198 156 197 164 197 170 197 175 197 180 197 183 197 186 197 187 196 187 196 " />
        <polyline stroke="black" stroke-width="3" stroke-linecap="round" fill="transparent" stroke-linejoin="round" points="197 95 197 96 197 97 197 101 197 106 197 114 197 122 196 132 196 143 196 156 195 168 195 179 194 192 194 203 193 214 193 224 193 234 193 240 193 240 " />
        </svg>