<?xml version="1.0" standalone="no"?>
    <svg width="256" height="256" xmlns="http://www.w3.org/2000/svg" version="1.1">
    <polyline stroke="black" stroke-width="3" stroke-linecap="round" fill="transparent" stroke-linejoin="round" points="95.36410522460938 70.02218627929688 99.28665161132813 71.22911071777344 102.90744018554688 72.13433837890625 106.52825927734376 73.03953552246094 109.54562377929688 73.64299011230469 111.95953369140624 74.24647521972656 114.07162475585938 74.84994506835938 115.580322265625 75.15167236328125 116.78726196289063 75.45339965820313 117.69244384765624 75.755126953125 118.2958984375 75.755126953125 118.8994140625 75.755126953125 119.20114135742188 75.755126953125 119.50283813476563 75.755126953125 119.80459594726563 75.755126953125 120.10635375976563 75.45339965820313 120.40805053710938 75.15167236328125 120.70980834960938 75.15167236328125 120.70980834960938 75.15167236328125 " />
        <polyline stroke="black" stroke-width="3" stroke-linecap="round" fill="transparent" stroke-linejoin="round" points="47.991790771484375 142.4384765625 56.440338134765625 140.02459716796875 65.49240112304688 137.30899047851563 76.0531005859375 133.6881866455078 88.12246704101563 128.8604278564453 101.09707641601563 122.22225952148438 116.78726196289063 114.075439453125 131.87396240234375 106.83381652832033 146.05548095703125 99.29042053222656 158.42657470703125 92.04881286621094 167.17694091796875 86.31585693359375 173.21160888671875 82.393310546875 176.53070068359375 79.97941589355469 179.54803466796875 77.86727905273438 181.05670166015625 76.66033935546875 182.26361083984375 75.755126953125 183.1688232421875 74.84994506835938 184.0740966796875 74.24647521972656 184.979248046875 73.64299011230469 185.58270263671875 73.03953552246094 185.88446044921875 72.73779296875 186.1861572265625 72.43606567382813 186.4879150390625 72.13433837890625 186.78973388671875 71.83259582519531 187.0914306640625 71.53085327148438 186.78973388671875 71.22911071777344 186.78973388671875 71.22911071777344 " />
        <polyline stroke="black" stroke-width="3" stroke-linecap="round" fill="transparent" stroke-linejoin="round" points="167.7803955078125 55.84065246582031 164.7630615234375 58.5562744140625 161.74566650390625 62.47882080078125 158.1248779296875 68.21177673339844 154.20233154296875 75.45339965820313 150.27975463867188 82.69503784179688 146.05548095703125 89.93667602539063 140.32257080078125 98.98870849609376 133.0809326171875 109.85115051269533 126.14102172851563 119.50666809082033 118.59765625 130.06736755371094 111.65777587890624 140.02459716796875 105.62307739257813 148.77488708496094 100.19189453125 156.0165252685547 95.0623779296875 162.65469360351563 90.234619140625 168.9911346435547 86.01031494140625 173.8188934326172 82.0877685546875 177.74142456054688 77.561767578125 181.96571350097656 77.561767578125 181.96571350097656 " />
        <polyline stroke="black" stroke-width="3" stroke-linecap="round" fill="transparent" stroke-linejoin="round" points="111.95953369140624 145.45582580566406 112.56298828125 150.28358459472656 113.16644287109376 155.111328125 113.46817016601563 160.5425567626953 113.46817016601563 166.27549743652344 113.46817016601563 171.7067413330078 113.16644287109376 176.23275756835938 113.16644287109376 180.15530395507813 112.86471557617188 183.17263793945313 112.56298828125 185.88824462890625 111.95953369140624 188.3021545410156 111.35598754882813 190.112548828125 110.75253295898438 191.6212158203125 110.14907836914063 192.82815551757813 109.84735107421876 193.73333740234375 109.54562377929688 194.33685302734375 109.84735107421876 194.33685302734375 110.75253295898438 193.73333740234375 112.26123046875 192.52642822265625 114.37335205078124 190.71603393554688 116.78726196289063 188.0003967285156 119.80459594726563 184.37960815429688 122.52020263671876 180.45703125 124.93408203125 176.53448486328125 127.34796142578124 172.6119384765625 130.06356811523438 168.6894073486328 133.0809326171875 164.16336059570313 136.70175170898438 159.3356170654297 140.62429809570313 154.80958557128906 145.15029907226563 150.28358459472656 149.97802734375 146.05931091308594 149.97802734375 146.05931091308594 " />
        <polyline stroke="black" stroke-width="3" stroke-linecap="round" fill="transparent" stroke-linejoin="round" points="156.31451416015625 128.55870056152344 159.633544921875 130.06736755371094 162.95263671875 131.87777709960938 165.969970703125 133.6881866455078 168.9873046875 135.80032348632813 173.21160888671875 139.11941528320313 178.642822265625 143.34368896484375 184.0740966796875 147.86968994140625 188.90179443359375 151.792236328125 193.1260986328125 155.111328125 196.1434326171875 158.12867736816406 198.85906982421875 162.35296630859375 200.97119140625 166.27549743652344 200.97119140625 166.27549743652344 " />
        <polyline stroke="black" stroke-width="3" stroke-linecap="round" fill="transparent" stroke-linejoin="round" points="33.206756591796875 225.71722412109375 38.63800048828125 225.71722412109375 45.577880859375 225.41546630859375 53.7247314453125 224.51025390625 61.87158203125 223.00161743164065 70.923583984375 220.58770751953125 82.99295043945313 216.9669189453125 95.96755981445313 212.74261474609375 110.14907836914063 208.21664428710935 125.53756713867188 203.38885498046875 138.51211547851563 199.46633911132813 152.0902099609375 194.6385498046875 164.7630615234375 189.20733642578125 176.53070068359375 183.77609252929688 187.39312744140625 178.9483642578125 195.84173583984375 175.32752990722656 202.17816162109375 172.91368103027344 207.005859375 171.103271484375 210.626708984375 169.89633178710938 213.34228515625 168.9911346435547 215.7562255859375 168.08592224121094 217.56658935546875 167.48243713378906 218.7735595703125 166.87899780273438 219.98046875 166.57723999023438 220.88568115234375 166.27549743652344 221.4891357421875 165.97378540039063 222.09259033203125 165.67205810546875 222.696044921875 165.37030029296875 223.299560546875 165.0685577392578 223.299560546875 164.766845703125 222.696044921875 165.0685577392578 219.0753173828125 167.48243713378906 219.0753173828125 167.48243713378906 " />
        <polyline stroke="black" stroke-width="3" stroke-linecap="round" fill="transparent" stroke-linejoin="round" points="99.58834838867188 181.6639709472656 101.09707641601563 185.5865173339844 102.605712890625 190.71603393554688 104.41616821289063 197.9576416015625 106.22653198242188 206.7079162597656 108.03689575195313 215.156494140625 110.14907836914063 223.90679931640625 111.95953369140624 231.75192260742188 113.46817016601563 238.39007568359375 114.97686767578124 243.82131958007813 115.88204956054688 247.74386596679688 116.78726196289063 250.45944213867188 117.69244384765624 252.26986694335935 118.2958984375 253.47677612304688 118.2958984375 253.47677612304688 " />
        <polyline stroke="black" stroke-width="3" stroke-linecap="round" fill="transparent" stroke-linejoin="round" points="165.36651611328125 150.58531188964844 167.7803955078125 152.6974334716797 169.89251708984375 154.80958557128906 172.00469970703125 157.22348022460938 173.8150634765625 160.5425567626953 175.62548828125 165.37030029296875 176.83245849609375 171.7067413330078 176.83245849609375 178.0431671142578 176.22894287109375 183.77609252929688 175.32379150390625 188.90557861328125 174.1168212890625 194.0350646972656 172.306396484375 199.46633911132813 170.19427490234375 204.2940673828125 170.19427490234375 204.2940673828125 " />
        <polyline stroke="black" stroke-width="3" stroke-linecap="round" fill="transparent" stroke-linejoin="round" points="138.81387329101563 230.2432556152344 143.03811645507813 230.2432556152344 147.26242065429688 230.54498291015625 151.4866943359375 231.14846801757813 155.1075439453125 231.75192260742188 158.1248779296875 232.6571044921875 160.84051513671875 233.56234741210935 163.25439453125 234.16580200195313 165.668212890625 234.76925659179688 167.47869873046875 235.37274169921875 169.59075927734375 235.6744384765625 172.00469970703125 235.9761657714844 172.00469970703125 235.9761657714844 " />
        </svg>