<?xml version="1.0" standalone="no"?>
    <svg width="256" height="256" xmlns="http://www.w3.org/2000/svg" version="1.1">
    <polyline stroke="black" stroke-width="3" stroke-linecap="round" fill="transparent" stroke-linejoin="round" points="84.3221435546875 71.07086181640625 89.8311767578125 78.41622924804688 95.95230102539063 85.14947509765625 103.29766845703124 90.04638671875 113.09149169921876 90.6584930419922 113.09149169921876 90.6584930419922 " />
        <polyline stroke="black" stroke-width="3" stroke-linecap="round" fill="transparent" stroke-linejoin="round" points="146.75772094726563 57.6043701171875 126.5579833984375 88.21003723144531 104.52191162109376 116.9793701171875 87.99481201171875 136.56700134277344 73.30410766601563 152.48194885253906 62.898193359375 164.11209106445313 62.898193359375 164.11209106445313 " />
        <polyline stroke="black" stroke-width="3" stroke-linecap="round" fill="transparent" stroke-linejoin="round" points="78.20101928710938 107.79766845703124 91.66751098632813 102.9007568359375 111.255126953125 96.77963256835938 134.51544189453125 90.04638671875 154.7152099609375 84.537353515625 170.630126953125 79.02833557128906 178.587646484375 76.57987976074219 184.09661865234375 76.57987976074219 184.09661865234375 76.57987976074219 " />
        <polyline stroke="black" stroke-width="3" stroke-linecap="round" fill="transparent" stroke-linejoin="round" points="117.37628173828124 136.56700134277344 118.60049438476563 143.3002471923828 121.0489501953125 150.64559936523438 124.10952758789063 157.37884521484375 126.5579833984375 162.2757568359375 129.6185302734375 165.33631896972656 132.0670166015625 167.17266845703125 134.51544189453125 167.78477478027344 138.1881103515625 167.78477478027344 141.86080932617188 164.72421264648438 146.14559936523438 159.21519470214844 153.490966796875 146.36080932617188 159 126.77317810058594 161.44842529296875 113.91880798339844 161.44842529296875 113.91880798339844 " />
        <polyline stroke="black" stroke-width="3" stroke-linecap="round" fill="transparent" stroke-linejoin="round" points="148.59405517578125 104.7371063232422 155.939453125 109.63400268554688 165.12109375 115.75514221191406 175.52703857421875 124.32472229003906 185.9329833984375 135.9548797607422 193.89044189453125 148.80926513671875 193.89044189453125 148.80926513671875 " />
        <polyline stroke="black" stroke-width="3" stroke-linecap="round" fill="transparent" stroke-linejoin="round" points="78.20101928710938 205.73580932617188 91.055419921875 202.0631103515625 111.255126953125 197.16622924804688 139.412353515625 192.26931762695313 163.89691162109375 187.98452758789065 182.26025390625 184.9239501953125 196.9510498046875 181.86338806152344 203.68426513671875 180.02703857421875 205.5206298828125 180.02703857421875 205.5206298828125 180.02703857421875 " />
        <polyline stroke="black" stroke-width="3" stroke-linecap="round" fill="transparent" stroke-linejoin="round" points="110.64300537109376 178.8028106689453 108.80670166015624 187.98452758789065 106.9703369140625 196.5541076660156 106.35821533203124 204.51156616210935 106.9703369140625 210.6327209472656 109.4188232421875 216.1417236328125 111.255126953125 221.03863525390625 114.92782592773438 224.0992126464844 119.21261596679688 227.1597595214844 125.333740234375 228.38400268554688 132.0670166015625 228.38400268554688 140.6365966796875 225.32342529296875 152.2667236328125 215.52963256835935 166.3453369140625 197.16622924804688 166.3453369140625 197.16622924804688 " />
        <polyline stroke="black" stroke-width="3" stroke-linecap="round" fill="transparent" stroke-linejoin="round" points="169.4058837890625 172.6816864013672 167.569580078125 180.02703857421875 166.95745849609375 186.76028442382813 166.95745849609375 194.10565185546875 166.95745849609375 201.45101928710935 166.95745849609375 201.45101928710935 " />
        </svg>