<?xml version="1.0" standalone="no"?>
    <svg width="256" height="256" xmlns="http://www.w3.org/2000/svg" version="1.1">
    <polyline stroke="black" stroke-width="3" stroke-linecap="round" fill="transparent" stroke-linejoin="round" points="89.3311767578125 53.93169403076172 92.3917236328125 63.11338806152344 96.06442260742188 71.07086181640625 100.34921264648438 76.57987976074219 100.34921264648438 76.57987976074219 " />
        <polyline stroke="black" stroke-width="3" stroke-linecap="round" fill="transparent" stroke-linejoin="round" points="140.1365966796875 32.507720947265625 130.3427734375 51.48323822021485 116.26416015625 78.41622924804688 104.63400268554688 96.16751098632813 93.00384521484376 113.3066864013672 80.14947509765625 129.833740234375 69.13143920898438 146.36080932617188 69.13143920898438 146.36080932617188 " />
        <polyline stroke="black" stroke-width="3" stroke-linecap="round" fill="transparent" stroke-linejoin="round" points="63.622406005859375 95.55540466308594 75.2525634765625 90.04638671875 90.555419921875 83.92524719238281 106.4703369140625 79.02833557128906 121.773193359375 75.35565185546875 134.01544189453125 73.51931762695313 143.1971435546875 72.29508972167969 148.7061767578125 72.29508972167969 148.7061767578125 72.29508972167969 " />
        <polyline stroke="black" stroke-width="3" stroke-linecap="round" fill="transparent" stroke-linejoin="round" points="102.79766845703124 131.6700897216797 104.02191162109376 139.6275634765625 105.85821533203124 148.80926513671875 107.08245849609376 155.54251098632813 108.9188232421875 160.43942260742188 111.36724853515624 162.8878631591797 115.0399169921875 162.8878631591797 120.5489501953125 159.21519470214844 126.0579833984375 150.64559936523438 133.4033203125 125.5489501953125 133.4033203125 125.5489501953125 " />
        <polyline stroke="black" stroke-width="3" stroke-linecap="round" fill="transparent" stroke-linejoin="round" points="140.1365966796875 114.53091430664063 145.03350830078125 121.87628173828124 151.15460205078125 129.833740234375 157.2757568359375 137.7912139892578 165.23321533203125 148.80926513671875 165.23321533203125 148.80926513671875 " />
        <polyline stroke="black" stroke-width="3" stroke-linecap="round" fill="transparent" stroke-linejoin="round" points="78.92523193359375 205.12368774414065 93.615966796875 199.61468505859375 120.5489501953125 191.65719604492188 139.52447509765625 186.76028442382813 156.66363525390625 183.08761596679688 168.9058837890625 180.63916015625 176.8634033203125 176.3543701171875 176.8634033203125 176.3543701171875 " />
        <polyline stroke="black" stroke-width="3" stroke-linecap="round" fill="transparent" stroke-linejoin="round" points="103.4097900390625 180.02703857421875 102.79766845703124 192.26931762695313 103.4097900390625 205.73580932617188 104.63400268554688 216.75384521484375 107.08245849609376 224.0992126464844 110.14300537109376 228.99612426757813 115.0399169921875 230.83245849609375 121.16107177734376 230.83245849609375 127.28219604492188 228.38400268554688 127.28219604492188 228.38400268554688 " />
        <polyline stroke="black" stroke-width="3" stroke-linecap="round" fill="transparent" stroke-linejoin="round" points="134.6275634765625 164.72421264648438 134.6275634765625 174.5180206298828 135.851806640625 187.37240600585935 137.6881103515625 200.83889770507813 139.52447509765625 210.6327209472656 140.1365966796875 216.1417236328125 140.1365966796875 219.81442260742188 140.1365966796875 219.81442260742188 " />
        </svg>