<?xml version="1.0" standalone="no"?>
    <svg width="256" height="256" xmlns="http://www.w3.org/2000/svg" version="1.1">
    <polyline stroke="black" stroke-width="3" stroke-linecap="round" fill="transparent" stroke-linejoin="round" points="58.00091552734375 112.7981414794922 81.5321044921875 107.56898498535156 84.80029296875 107.56898498535156 105.71685791015624 103.64712524414063 107.6778564453125 102.99348449707033 115.52154541015624 102.99348449707033 115.52154541015624 105.60806274414063 111.59967041015624 110.18356323242188 111.59967041015624 110.18356323242188 " />
        <polyline stroke="black" stroke-width="3" stroke-linecap="round" fill="transparent" stroke-linejoin="round" points="71.07379150390625 132.4074249267578 90.68304443359376 136.3292999267578 105.71685791015624 130.44650268554688 108.33148193359376 127.83195495605467 109.63873291015624 121.94914245605467 109.63873291015624 119.98820495605467 109.63873291015624 119.98820495605467 " />
        <polyline stroke="black" stroke-width="3" stroke-linecap="round" fill="transparent" stroke-linejoin="round" points="94.60498046875 106.9153289794922 83.49298095703125 125.87100219726563 83.49298095703125 129.1392059326172 84.80029296875 159.20681762695313 85.45391845703125 163.128662109375 86.10760498046875 181.43069458007813 86.10760498046875 187.96713256835935 88.06854248046875 191.88897705078125 94.60498046875 189.2744140625 94.60498046875 189.2744140625 " />
        <polyline stroke="black" stroke-width="3" stroke-linecap="round" fill="transparent" stroke-linejoin="round" points="140.3599853515625 100.37890625 131.86260986328125 114.7590789794922 128.59442138671875 125.21734619140624 116.82879638671876 161.82139587402344 115.52154541015624 165.7432403564453 113.56060791015624 170.97239685058594 110.29241943359376 177.50881958007813 109.63873291015624 174.8942413330078 110.29241943359376 169.01145935058594 113.56060791015624 162.4750213623047 118.1361083984375 159.86045837402344 124.0189208984375 158.5531768798828 131.20892333984375 159.20681762695313 137.09173583984375 159.86045837402344 142.3209228515625 159.86045837402344 154.7401123046875 155.9385986328125 157.35467529296875 153.97769165039063 157.35467529296875 153.97769165039063 " />
        <polyline stroke="black" stroke-width="3" stroke-linecap="round" fill="transparent" stroke-linejoin="round" points="182.193115234375 89.92060852050781 165.85205078125 105.60806274414063 163.89111328125 110.8372039794922 152.77923583984375 147.4412384033203 148.85736083984375 160.5141143798828 146.24273681640625 169.6651153564453 144.2818603515625 175.5478973388672 146.24273681640625 172.93333435058594 146.89642333984375 170.97239685058594 146.89642333984375 170.97239685058594 " />
        <polyline stroke="black" stroke-width="3" stroke-linecap="round" fill="transparent" stroke-linejoin="round" points="152.77923583984375 155.28494262695313 171.08123779296875 144.82666015625 173.04217529296875 145.4803009033203 188.07598876953125 153.3240203857422 193.30511474609375 157.2458953857422 201.14886474609375 165.089599609375 214.87530517578125 184.04525756835935 217.4898681640625 187.3134765625 217.4898681640625 187.3134765625 " />
        </svg>