<?xml version="1.0" standalone="no"?>
    <svg width="256" height="256" xmlns="http://www.w3.org/2000/svg" version="1.1">
    <polyline stroke="black" stroke-width="3" stroke-linecap="round" fill="transparent" stroke-linejoin="round" points="61.26910400390625 96.45704650878906 79.5711669921875 89.2669677734375 82.18572998046875 89.2669677734375 105.71685791015624 85.34513854980469 108.33148193359376 84.69146728515625 116.82879638671876 82.73052978515625 127.94073486328124 78.80870056152344 130.55535888671875 79.46232604980469 130.55535888671875 80.76962280273438 130.55535888671875 80.76962280273438 " />
        <polyline stroke="black" stroke-width="3" stroke-linecap="round" fill="transparent" stroke-linejoin="round" points="72.38104248046875 119.98820495605467 95.258544921875 121.94914245605467 97.87322998046876 121.94914245605467 116.1751708984375 112.7981414794922 118.78973388671876 110.8372039794922 124.0189208984375 103.64712524414063 124.0189208984375 102.33982849121094 124.0189208984375 102.33982849121094 " />
        <polyline stroke="black" stroke-width="3" stroke-linecap="round" fill="transparent" stroke-linejoin="round" points="100.48773193359376 88.61334228515625 95.258544921875 116.06634521484376 94.60498046875 119.98820495605467 93.29766845703124 157.89952087402344 91.9903564453125 182.7379608154297 97.219482421875 185.3525390625 97.219482421875 185.3525390625 " />
        <polyline stroke="black" stroke-width="3" stroke-linecap="round" fill="transparent" stroke-linejoin="round" points="141.01361083984375 81.42324829101563 132.51629638671875 117.37364196777344 131.20892333984375 121.94914245605467 119.443359375 148.09487915039063 118.78973388671876 150.05581665039063 114.86785888671876 155.9385986328125 114.86785888671876 155.28494262695313 114.86785888671876 155.28494262695313 " />
        <polyline stroke="black" stroke-width="3" stroke-linecap="round" fill="transparent" stroke-linejoin="round" points="120.75067138671876 139.59751892089844 137.09173583984375 134.36839294433594 138.3990478515625 134.36839294433594 147.550048828125 135.67564392089844 148.85736083984375 135.67564392089844 154.7401123046875 135.02200317382813 163.89111328125 132.4074249267578 163.89111328125 132.4074249267578 " />
        <polyline stroke="black" stroke-width="3" stroke-linecap="round" fill="transparent" stroke-linejoin="round" points="181.53948974609375 63.77488708496094 167.81298828125 96.45704650878906 166.5057373046875 102.33982849121094 159.31561279296875 134.36839294433594 158.00836181640625 138.94387817382813 154.08648681640625 154.6313018798828 152.77923583984375 158.5531768798828 153.43280029296875 157.89952087402344 154.08648681640625 156.5922393798828 154.08648681640625 156.5922393798828 " />
        <polyline stroke="black" stroke-width="3" stroke-linecap="round" fill="transparent" stroke-linejoin="round" points="159.96923828125 131.7537841796875 178.27130126953125 128.48558044433594 180.8858642578125 129.79286193847656 198.5341796875 143.5193634033203 201.14886474609375 146.78758239746094 214.2216796875 164.4359588623047 216.83624267578125 169.01145935058594 216.83624267578125 169.01145935058594 " />
        </svg>