<?xml version="1.0" standalone="no"?>
    <svg width="256" height="256" xmlns="http://www.w3.org/2000/svg" version="1.1">
    <polyline stroke="black" stroke-width="3" stroke-linecap="round" fill="transparent" stroke-linejoin="round" points="52.259796142578125 83.18865966796875 75.3304443359375 74.42179870605469 95.17120361328124 67.03919982910156 115.934814453125 57.810943603515625 136.23696899414063 49.96690368652344 165.3060302734375 42.12288665771485 180.07122802734375 38.89299011230469 186.992431640625 37.047332763671875 189.76092529296875 36.12449645996094 190.22235107421875 36.12449645996094 186.53106689453125 37.047332763671875 186.53106689453125 37.047332763671875 " />
        <polyline stroke="black" stroke-width="3" stroke-linecap="round" fill="transparent" stroke-linejoin="round" points="25.036407470703125 124.25442504882813 50.87554931640625 121.02455139160156 59.64239501953125 118.7174835205078 67.94784545898438 115.4875946044922 97.939697265625 101.64518737792967 120.54891967773438 90.10986328125 140.38970947265625 80.42019653320313 157.9234619140625 72.57615661621094 173.61151123046875 65.19352722167969 179.60980224609375 63.809295654296875 180.53265380859375 63.809295654296875 180.99407958984375 63.809295654296875 180.99407958984375 63.809295654296875 " />
        <polyline stroke="black" stroke-width="3" stroke-linecap="round" fill="transparent" stroke-linejoin="round" points="88.25003051757813 35.66310119628906 93.3255615234375 63.809295654296875 93.3255615234375 85.0343017578125 92.4027099609375 106.25933837890624 89.63427734375 126.10011291503906 87.78860473632813 139.94247436523438 86.86578369140625 144.55662536621094 85.02011108398438 149.17074584960938 85.02011108398438 149.17074584960938 " />
        <polyline stroke="black" stroke-width="3" stroke-linecap="round" fill="transparent" stroke-linejoin="round" points="134.852783203125 30.587554931640625 139.46688842773438 54.58103942871094 140.85110473632813 63.809295654296875 141.31253051757813 73.03756713867188 142.23538208007813 93.8011474609375 143.15814208984375 123.33160400390624 142.69677734375 136.71258544921875 141.77395629882813 146.4022674560547 141.77395629882813 146.4022674560547 " />
        <polyline stroke="black" stroke-width="3" stroke-linecap="round" fill="transparent" stroke-linejoin="round" points="75.3304443359375 177.77838134765625 97.939697265625 174.0870819091797 113.16632080078124 170.39576721191406 131.16143798828125 164.39739990234375 151.463623046875 157.0147705078125 157.9234619140625 154.7077178955078 166.22882080078125 149.6321563720703 166.69024658203125 149.17074584960938 166.69024658203125 149.17074584960938 " />
        <polyline stroke="black" stroke-width="3" stroke-linecap="round" fill="transparent" stroke-linejoin="round" points="109.93643188476563 137.6354217529297 116.396240234375 160.24465942382813 115.011962890625 173.1642303466797 112.2435302734375 186.54522705078125 109.01361083984376 195.77349853515625 102.5538330078125 206.385986328125 95.17120361328124 216.99850463867188 91.01849365234376 222.07406616210935 91.01849365234376 222.07406616210935 " />
        <polyline stroke="black" stroke-width="3" stroke-linecap="round" fill="transparent" stroke-linejoin="round" points="57.7967529296875 224.84249877929688 75.7918701171875 223.45831298828125 91.47988891601563 220.2283935546875 109.01361083984376 215.61428833007813 130.70001220703125 209.61590576171875 159.3076171875 205.92462158203125 175.4571533203125 205.00177001953125 183.3011474609375 205.46316528320313 185.60821533203125 205.92462158203125 186.069580078125 208.69305419921875 186.069580078125 208.69305419921875 " />
        </svg>