<?xml version="1.0" standalone="no"?>
    <svg width="256" height="256" xmlns="http://www.w3.org/2000/svg" version="1.1">
    <polyline stroke="black" stroke-width="3" stroke-linecap="round" fill="transparent" stroke-linejoin="round" points="77.80010986328125 81.33334350585938 102.3333740234375 69.60000610351563 126.86669921875 61.066680908203125 147.1334228515625 56.800018310546875 158.86669921875 55.73333740234375 159.933349609375 56.800018310546875 159.933349609375 57.86668395996094 159.933349609375 57.86668395996094 " />
        <polyline stroke="black" stroke-width="3" stroke-linecap="round" fill="transparent" stroke-linejoin="round" points="73.53338623046875 102.66667175292967 109.80010986328124 87.73333740234375 123.666748046875 82.40000915527344 149.2667236328125 77.06668090820313 163.1334228515625 73.86668395996094 167.4000244140625 73.86668395996094 169.533447265625 71.73333740234375 166.3333740234375 70.66667175292969 166.3333740234375 70.66667175292969 " />
        <polyline stroke="black" stroke-width="3" stroke-linecap="round" fill="transparent" stroke-linejoin="round" points="99.1334228515625 47.20001983642578 94.86669921875 76.00001525878906 89.53338623046875 100.53335571289063 81.00006103515625 132.53334045410156 77.80010986328125 142.1333465576172 75.66668701171875 143.20001220703125 74.60003662109375 138.93336486816406 74.60003662109375 138.93336486816406 " />
        <polyline stroke="black" stroke-width="3" stroke-linecap="round" fill="transparent" stroke-linejoin="round" points="122.60003662109376 39.73333740234375 123.666748046875 80.26667785644531 124.7333984375 89.86669921875 126.86669921875 99.4666748046875 131.1334228515625 115.4666748046875 133.2667236328125 122.93336486816406 133.2667236328125 122.93336486816406 " />
        <polyline stroke="black" stroke-width="3" stroke-linecap="round" fill="transparent" stroke-linejoin="round" points="77.80010986328125 157.06671142578125 120.466796875 140.00001525878906 134.3333740234375 135.73338317871094 139.666748046875 135.73338317871094 142.86669921875 135.73338317871094 142.86669921875 135.73338317871094 " />
        <polyline stroke="black" stroke-width="3" stroke-linecap="round" fill="transparent" stroke-linejoin="round" points="102.3333740234375 109.06668090820313 103.4000244140625 137.86668395996094 106.60003662109376 161.33334350585938 109.80010986328124 177.33334350585938 111.93341064453124 188 111.93341064453124 192.2666931152344 111.93341064453124 192.2666931152344 " />
        <polyline stroke="black" stroke-width="3" stroke-linecap="round" fill="transparent" stroke-linejoin="round" points="52.2000732421875 202.933349609375 76.7333984375 199.73336791992188 116.2000732421875 195.4666748046875 157.8001708984375 194.40005493164065 209 196.53335571289065 226.0667724609375 198.66668701171875 231.4000244140625 200.80001831054688 231.4000244140625 200.80001831054688 " />
        </svg>