<?xml version="1.0" standalone="no"?>
    <svg width="256" height="256" xmlns="http://www.w3.org/2000/svg" version="1.1">
    <polyline stroke="black" stroke-width="3" stroke-linecap="round" fill="transparent" stroke-linejoin="round" points="68.00250244140625 88.26351928710938 78.7418212890625 82.89385986328125 86.58978271484375 80.00250244140625 105.177001953125 75.0458984375 114.67718505859376 72.98065185546875 140.6993408203125 69.26318359375 146.89511108398438 68.85014343261719 156.395263671875 68.43708801269531 161.764892578125 68.43708801269531 161.764892578125 68.43708801269531 " />
        <polyline stroke="black" stroke-width="3" stroke-linecap="round" fill="transparent" stroke-linejoin="round" points="54.784881591796875 136.59039306640625 69.24166870117188 129.9815673828125 78.7418212890625 126.26412963867188 101.04656982421876 118.41616821289063 121.69906616210938 111.39431762695313 140.28631591796875 106.024658203125 154.33001708984375 101.48110961914063 164.65625 98.17672729492188 167.960693359375 96.52450561523438 167.960693359375 96.52450561523438 " />
        <polyline stroke="black" stroke-width="3" stroke-linecap="round" fill="transparent" stroke-linejoin="round" points="96.916015625 42.00187683105469 91.95941162109376 77.11114501953125 90.30722045898438 95.69842529296876 89.06805419921875 113.04653930664063 87.82891845703125 126.26412963867188 86.17672729492188 145.677490234375 85.3505859375 153.11239624023438 84.1114501953125 164.67779541015625 83.69842529296875 165.50390625 83.69842529296875 165.50390625 " />
        <polyline stroke="black" stroke-width="3" stroke-linecap="round" fill="transparent" stroke-linejoin="round" points="125.00341796875 51.50202941894531 127.06869506835938 68.85014343261719 127.894775390625 77.52420043945313 128.72088623046875 87.43740844726563 129.96005249023438 97.76365661621094 130.7861328125 107.67686462402344 132.02532958984375 139.894775390625 132.02532958984375 139.894775390625 " />
        <polyline stroke="black" stroke-width="3" stroke-linecap="round" fill="transparent" stroke-linejoin="round" points="72.13299560546875 176.65625 86.58978271484375 172.11270141601563 104.76400756835938 167.98220825195313 113.85107421875 165.91696166992188 137.8079833984375 158.06900024414063 147.72119140625 154.76458740234375 151.025634765625 153.5254364013672 151.025634765625 153.5254364013672 " />
        <polyline stroke="black" stroke-width="3" stroke-linecap="round" fill="transparent" stroke-linejoin="round" points="119.220703125 160.13424682617188 109.30755615234376 179.96066284179688 105.177001953125 189.4608154296875 101.87265014648438 197.30877685546875 94.85076904296876 210.11334228515625 88.241943359375 219.200439453125 77.91571044921875 226.6353454589844 71.719970703125 229.1136474609375 69.24166870117188 229.52670288085935 68.82861328125 229.52670288085935 75.43743896484375 228.7005920410156 96.916015625 226.6353454589844 124.59042358398438 225.39617919921875 148.13424682617188 225.80923461914065 167.960693359375 229.1136474609375 179.93914794921875 233.244140625 179.93914794921875 233.244140625 " />
        </svg>