<?xml version="1.0" standalone="no"?>
    <svg width="256" height="256" xmlns="http://www.w3.org/2000/svg" version="1.1">
    <polyline stroke="black" stroke-width="3" stroke-linecap="round" fill="transparent" stroke-linejoin="round" points="34.883697509765625 100.7759246826172 43.806640625 96.95182800292967 58.582794189453125 90.86444091796876 72.73464965820313 85.86968994140625 81.55349731445313 82.69595336914063 88.03109741210938 80.79690551757813 95.02896118164063 78.97589111328125 100.17977905273438 80.276611328125 100.17977905273438 80.276611328125 " />
        <polyline stroke="black" stroke-width="3" stroke-linecap="round" fill="transparent" stroke-linejoin="round" points="49.295684814453125 103.7935791015625 50.6224365234375 117.24301147460938 50.258209228515625 130.71844482421875 49.737945556640625 137.3521270751953 49.165618896484375 144.16786193847656 48.515289306640625 150.87957763671875 47.240570068359375 157.59127807617188 47.058441162109375 162.45594787597656 46.408111572265625 165.9678955078125 46.14794921875 167.91897583007813 46.017913818359375 169.7659912109375 46.017913818359375 170.33831787109375 46.225982666015625 171.7430877685547 46.928375244140625 172.65359497070313 48.385162353515625 172.86170959472656 48.385162353515625 172.86170959472656 " />
        <polyline stroke="black" stroke-width="3" stroke-linecap="round" fill="transparent" stroke-linejoin="round" points="93.077880859375 90.81242370605467 92.08932495117188 102.75300598144533 89.48785400390625 115.16184997558594 88.34323120117188 121.4573211669922 87.224609375 126.94636535644533 86.08001708984375 131.4728546142578 85.84588623046875 135.89529418945313 85.013427734375 139.19911193847656 84.23297119140625 142.7110595703125 85.013427734375 146.89938354492188 85.37759399414063 149.4227752685547 85.71578979492188 152.0762176513672 86.5482177734375 155.1719512939453 86.75640869140625 156.3946533203125 86.75640869140625 156.3946533203125 " />
        <polyline stroke="black" stroke-width="3" stroke-linecap="round" fill="transparent" stroke-linejoin="round" points="45.419525146484375 160.6609649658203 56.94390869140625 159.23019409179688 67.68783569335938 158.34568786621094 75.62222290039063 157.9814910888672 80.48687744140625 158.08554077148438 84.54510498046875 158.0335235595703 87.25064086914063 158.16357421875 87.25064086914063 158.16357421875 " />
        <polyline stroke="black" stroke-width="3" stroke-linecap="round" fill="transparent" stroke-linejoin="round" points="142.84332275390625 76.244384765625 147.76004028320313 84.43890380859375 149.3729248046875 88.28901672363281 150.46551513671875 90.3961944580078 153.5872802734375 93.70001220703124 155.720458984375 94.84465026855467 155.720458984375 94.84465026855467 " />
        <polyline stroke="black" stroke-width="3" stroke-linecap="round" fill="transparent" stroke-linejoin="round" points="190.37158203125 55.30281066894531 186.4693603515625 65.05819702148438 184.72650146484375 69.89688110351563 182.54119873046875 75.776123046875 180.43408203125 82.74797058105469 178.8731689453125 90.26611328125 176.27178955078125 97.44607543945313 172.05743408203125 104.8861846923828 167.8431396484375 112.53440856933594 163.1865234375 122.34182739257813 159.20635986328125 131.290771484375 153.95147705078125 139.06906127929688 149.24285888671875 145.67669677734375 144.45620727539063 153.35092163085938 138.91513061523438 160.8430633544922 132.099365234375 167.11253356933594 127.05258178710938 173.06980895996094 121.17333984375 178.61087036132813 115.94442749023438 183.68365478515625 112.0423583984375 187.4037170410156 109.44088745117188 189.77102661132813 107.54183959960938 191.25384521484375 105.53872680664063 192.060302734375 103.79574584960938 191.67007446289065 103.79574584960938 191.67007446289065 " />
        <polyline stroke="black" stroke-width="3" stroke-linecap="round" fill="transparent" stroke-linejoin="round" points="119.61248779296876 104.44395446777344 126.896484375 110.60934448242188 135.45526123046875 120.3126983642578 144.06597900390625 131.2387237548828 155.6163330078125 142.00868225097656 170.83477783203125 154.62562561035156 184.5703125 166.2800750732422 198.9822998046875 176.3216094970703 212.926025390625 185.60873413085935 227.0257568359375 193.38702392578125 243.1026611328125 199.44839477539065 247.8372802734375 201.42547607421875 247.8372802734375 201.42547607421875 " />
        </svg>