<?xml version="1.0" standalone="no"?>
    <svg width="256" height="256" xmlns="http://www.w3.org/2000/svg" version="1.1">
    <polyline stroke="black" stroke-width="3" stroke-linecap="round" fill="transparent" stroke-linejoin="round" points="140.32696533203125 37.63740539550781 134.13775634765625 46.92120361328125 125.73812866210938 58.41545104980469 116.01220703125 71.67803955078125 98.77084350585938 92.89817810058594 85.066162109375 108.37120056152344 74.45611572265625 118.5391845703125 74.45611572265625 118.5391845703125 " />
        <polyline stroke="black" stroke-width="3" stroke-linecap="round" fill="transparent" stroke-linejoin="round" points="97.00250244140624 82.28811645507813 106.28631591796876 85.38272094726563 135.02191162109375 92.89817810058594 150.49496459960938 95.99278259277344 157.56829833984375 96.876953125 170.38885498046875 97.3190460205078 170.38885498046875 97.3190460205078 " />
        <polyline stroke="black" stroke-width="3" stroke-linecap="round" fill="transparent" stroke-linejoin="round" points="75.34027099609375 146.39060974121094 82.41366577148438 145.50645446777344 89.487060546875 144.62228393554688 97.444580078125 144.18017578125 112.033447265625 142.8539276123047 118.66473388671876 142.41184997558594 131.92733764648438 140.64352416992188 140.32696533203125 137.99099731445313 140.32696533203125 137.99099731445313 " />
        <polyline stroke="black" stroke-width="3" stroke-linecap="round" fill="transparent" stroke-linejoin="round" points="95.67623901367188 149.92730712890625 77.10861206054688 178.2208251953125 54.562225341796875 218.45068359375 49.69927978515625 226.850341796875 46.162567138671875 232.1553649902344 43.9521484375 234.807861328125 43.9521484375 234.807861328125 " />
        <polyline stroke="black" stroke-width="3" stroke-linecap="round" fill="transparent" stroke-linejoin="round" points="110.26507568359376 155.2323455810547 114.24386596679688 160.53738403320313 119.54891967773438 167.16867065429688 132.369384765625 180.8733367919922 139.44281005859375 187.504638671875 153.58953857421875 201.65139770507813 168.6204833984375 218.00860595703125 177.0201416015625 227.7344970703125 177.0201416015625 227.7344970703125 " />
        </svg>