<?xml version="1.0" standalone="no"?>
    <svg width="256" height="256" xmlns="http://www.w3.org/2000/svg" version="1.1">
    <polyline stroke="black" stroke-width="3" stroke-linecap="round" fill="transparent" stroke-linejoin="round" points="144.83648681640625 45.8460693359375 138.33465576171875 54.37975311279297 125.33090209960938 70.63438415527344 99.7298583984375 103.55001831054688 89.97711181640625 114.9282684326172 74.53521728515625 129.55743408203125 74.53521728515625 129.55743408203125 " />
        <polyline stroke="black" stroke-width="3" stroke-linecap="round" fill="transparent" stroke-linejoin="round" points="116.390869140625 68.60255432128906 131.4263916015625 78.35533142089844 151.33837890625 90.95266723632813 157.8402099609375 95.01632690429688 157.8402099609375 95.01632690429688 " />
        <polyline stroke="black" stroke-width="3" stroke-linecap="round" fill="transparent" stroke-linejoin="round" points="90.38348388671876 165.72396850585938 101.35531616210938 161.2539520263672 111.92083740234376 157.59666442871094 121.67364501953124 154.34573364257813 142.80465698242188 147.4375 166.3739013671875 139.31021118164063 166.3739013671875 139.31021118164063 " />
        <polyline stroke="black" stroke-width="3" stroke-linecap="round" fill="transparent" stroke-linejoin="round" points="120.04818725585938 152.31390380859375 110.70175170898438 171.8194580078125 102.98080444335938 188.8868408203125 92.0089111328125 211.643310546875 88.75799560546875 217.73880004882813 83.47528076171875 225.05337524414065 83.47528076171875 225.05337524414065 " />
        <polyline stroke="black" stroke-width="3" stroke-linecap="round" fill="transparent" stroke-linejoin="round" points="147.274658203125 171.8194580078125 155.808349609375 176.2894744873047 164.7484130859375 181.57223510742188 175.72027587890625 188.8868408203125 189.5367431640625 197.01412963867188 189.5367431640625 197.01412963867188 " />
        </svg>