<?xml version="1.0" standalone="no"?>
    <svg width="256" height="256" xmlns="http://www.w3.org/2000/svg" version="1.1">
    <polyline stroke="black" stroke-width="3" stroke-linecap="round" fill="transparent" stroke-linejoin="round" points="172 61 168 63 155 70 140 78 124 87 109 95 97 102 92 106 92 106 " />
        <polyline stroke="black" stroke-width="3" stroke-linecap="round" fill="transparent" stroke-linejoin="round" points="119 64 130 74 140 81 151 87 155 89 163 94 169 97 171 99 171 99 " />
        <polyline stroke="black" stroke-width="3" stroke-linecap="round" fill="transparent" stroke-linejoin="round" points="84 154 102 153 123 149 148 144 157 142 175 139 186 136 192 135 193 133 193 133 " />
        <polyline stroke="black" stroke-width="3" stroke-linecap="round" fill="transparent" stroke-linejoin="round" points="141 120 138 132 131 147 122 163 110 179 99 194 91 204 86 209 84 211 84 211 " />
        <polyline stroke="black" stroke-width="3" stroke-linecap="round" fill="transparent" stroke-linejoin="round" points="127 162 133 170 140 178 150 185 164 194 182 205 205 217 217 222 217 222 " />
        </svg>