<?xml version="1.0" standalone="no"?>
    <svg width="256" height="256" xmlns="http://www.w3.org/2000/svg" version="1.1">
    <polyline stroke="black" stroke-width="3" stroke-linecap="round" fill="transparent" stroke-linejoin="round" points="52.0389404296875 92.1708984375 66.53707885742188 88.82518005371094 81.03521728515625 85.47944641113281 92.7452392578125 83.24897766113281 99.43667602539063 82.69134521484375 102.78240966796876 84.92182922363281 102.78240966796876 84.92182922363281 " />
        <polyline stroke="black" stroke-width="3" stroke-linecap="round" fill="transparent" stroke-linejoin="round" points="45.34747314453125 140.6838836669922 59.28802490234375 137.89578247070313 79.36236572265625 134.550048828125 94.4180908203125 131.76194763183594 105.57049560546876 127.85861206054688 105.57049560546876 127.85861206054688 " />
        <polyline stroke="black" stroke-width="3" stroke-linecap="round" fill="transparent" stroke-linejoin="round" points="65.97943115234375 67.63560485839844 63.19134521484375 107.22665405273438 60.96087646484375 130.08909606933594 60.96087646484375 154.0667724609375 61.51849365234375 171.35301208496094 63.19134521484375 185.29351806640625 64.30657958984375 191.9849548339844 67.65231323242188 195.8883056640625 67.65231323242188 195.8883056640625 " />
        <polyline stroke="black" stroke-width="3" stroke-linecap="round" fill="transparent" stroke-linejoin="round" points="123.41436767578124 120.05192565917967 126.20245361328124 130.64671325683594 128.43295288085938 141.7991180419922 128.99057006835938 150.16342163085938 128.43295288085938 157.41249084472656 128.43295288085938 157.41249084472656 " />
        <polyline stroke="black" stroke-width="3" stroke-linecap="round" fill="transparent" stroke-linejoin="round" points="123.97198486328124 113.3604736328125 129.54818725585938 107.78427124023438 139.02774047851563 102.20806884765624 153.52587890625 96.07424926757813 170.2545166015625 93.84376525878906 185.31024169921875 95.51661682128906 197.020263671875 100.5352020263672 203.154052734375 106.66903686523438 207.05743408203125 116.14857482910156 206.49981689453125 127.30099487304688 202.038818359375 136.22291564941406 196.462646484375 142.3567352294922 186.42547607421875 145.7024688720703 186.42547607421875 145.7024688720703 " />
        <polyline stroke="black" stroke-width="3" stroke-linecap="round" fill="transparent" stroke-linejoin="round" points="154.64111328125 69.30845642089844 155.19873046875 89.38279724121094 157.98681640625 125.6281280517578 160.21728515625 150.72105407714844 162.44781494140625 171.91062927246094 164.67828369140625 188.6392517089844 165.23590087890625 200.90689086914065 165.23590087890625 200.90689086914065 " />
        </svg>