<?xml version="1.0" standalone="no"?>
    <svg width="256" height="256" xmlns="http://www.w3.org/2000/svg" version="1.1">
    <polyline stroke="black" stroke-width="3" stroke-linecap="round" fill="transparent" stroke-linejoin="round" points="53.91510009765625 105.00323486328124 67.19598388671875 102.11607360839844 79.322021484375 99.80636596679688 90.29318237304688 98.07406616210938 97.79977416992188 96.91921997070313 97.79977416992188 96.91921997070313 " />
        <polyline stroke="black" stroke-width="3" stroke-linecap="round" fill="transparent" stroke-linejoin="round" points="53.91510009765625 154.6621856689453 66.0411376953125 151.77503967285156 79.89944458007813 147.15560913085938 93.18032836914063 139.64901733398438 93.18032836914063 139.64901733398438 " />
        <polyline stroke="black" stroke-width="3" stroke-linecap="round" fill="transparent" stroke-linejoin="round" points="63.731414794921875 73.822021484375 66.0411376953125 100.9612274169922 69.5057373046875 132.14242553710938 72.39288330078125 155.2396240234375 75.857421875 173.1399383544922 78.74459838867188 187.57568359375 81.0543212890625 195.082275390625 83.364013671875 197.3919982910156 83.364013671875 197.3919982910156 " />
        <polyline stroke="black" stroke-width="3" stroke-linecap="round" fill="transparent" stroke-linejoin="round" points="110.50323486328124 110.20010375976563 112.23553466796876 129.25527954101563 113.390380859375 146.00074768066406 114.54522705078124 158.70419311523438 115.70010375976563 164.47850036621094 115.70010375976563 164.47850036621094 " />
        <polyline stroke="black" stroke-width="3" stroke-linecap="round" fill="transparent" stroke-linejoin="round" points="116.27752685546876 95.7643585205078 127.24868774414063 88.25776672363281 141.6844482421875 81.90603637695313 157.2750244140625 78.44146728515625 170.555908203125 80.17375183105469 179.7947998046875 84.79318237304688 186.72393798828125 95.18692016601563 191.3433837890625 113.6646728515625 190.18853759765625 135.02957153320313 184.99169921875 150.62017822265625 178.0625 157.54933166503906 165.9365234375 161.013916015625 165.9365234375 161.013916015625 " />
        <polyline stroke="black" stroke-width="3" stroke-linecap="round" fill="transparent" stroke-linejoin="round" points="141.10699462890625 60.5411376953125 142.26187133789063 98.07406616210938 142.83929443359375 132.14242553710938 143.994140625 159.8590545654297 145.7264404296875 189.3079833984375 145.14901733398438 214.137451171875 145.14901733398438 214.137451171875 " />
        </svg>