<?xml version="1.0" standalone="no"?>
    <svg width="256" height="256" xmlns="http://www.w3.org/2000/svg" version="1.1">
    <polyline stroke="black" stroke-width="3" stroke-linecap="round" fill="transparent" stroke-linejoin="round" points="52 93 62 90 76 87 92 85 106 84 119 84 124 84 124 84 " />
        <polyline stroke="black" stroke-width="3" stroke-linecap="round" fill="transparent" stroke-linejoin="round" points="64 159 77 153 89 147 100 140 105 135 109 128 109 128 " />
        <polyline stroke="black" stroke-width="3" stroke-linecap="round" fill="transparent" stroke-linejoin="round" points="97 57 96 70 93 105 93 122 93 154 99 192 106 208 114 216 114 216 " />
        <polyline stroke="black" stroke-width="3" stroke-linecap="round" fill="transparent" stroke-linejoin="round" points="131 133 134 154 140 168 145 178 145 178 " />
        <polyline stroke="black" stroke-width="3" stroke-linecap="round" fill="transparent" stroke-linejoin="round" points="144 103 157 94 174 87 191 84 205 84 216 90 221 98 222 102 220 109 213 122 204 130 193 137 181 137 181 137 " />
        <polyline stroke="black" stroke-width="3" stroke-linecap="round" fill="transparent" stroke-linejoin="round" points="169 64 169 98 169 142 169 178 169 202 172 219 173 226 173 226 " />
        </svg>