<?xml version="1.0" standalone="no"?>
    <svg width="256" height="256" xmlns="http://www.w3.org/2000/svg" version="1.1">
    <polyline stroke="black" stroke-width="3" stroke-linecap="round" fill="transparent" stroke-linejoin="round" points="40 130 53 126 74 121 94 116 108 112 108 112 " />
        <polyline stroke="black" stroke-width="3" stroke-linecap="round" fill="transparent" stroke-linejoin="round" points="86 79 81 108 82 135 83 166 83 190 83 190 " />
        <polyline stroke="black" stroke-width="3" stroke-linecap="round" fill="transparent" stroke-linejoin="round" points="54 210 65 201 85 187 112 169 122 160 122 160 " />
        <polyline stroke="black" stroke-width="3" stroke-linecap="round" fill="transparent" stroke-linejoin="round" points="134 76 149 70 168 66 189 63 200 62 206 62 206 62 " />
        <polyline stroke="black" stroke-width="3" stroke-linecap="round" fill="transparent" stroke-linejoin="round" points="156 102 148 112 147 136 147 164 147 188 147 206 147 214 147 214 " />
        <polyline stroke="black" stroke-width="3" stroke-linecap="round" fill="transparent" stroke-linejoin="round" points="154 133 163 124 170 122 183 119 190 119 193 119 193 130 185 156 181 178 181 195 189 204 203 207 217 207 225 206 228 203 230 201 230 182 230 161 230 161 " />
        </svg>