<?xml version="1.0" standalone="no"?>
    <svg width="256" height="256" xmlns="http://www.w3.org/2000/svg" version="1.1">
    <polyline stroke="black" stroke-width="3" stroke-linecap="round" fill="transparent" stroke-linejoin="round" points="46.25946044921875 105.36320495605467 46.99334716796875 128.46926879882813 46.85284423828125 134.5308837890625 47.1741943359375 138.4693603515625 47.176116943359375 138.49301147460938 " />
        <polyline stroke="black" stroke-width="3" stroke-linecap="round" fill="transparent" stroke-linejoin="round" points="72.42645263671875 53.8717041015625 74.615966796875 72.26638793945313 76.33099365234375 95.4269561767578 77.11627197265625 149.14279174804688 76.40927124023438 173.68138122558594 73.530517578125 215.83758544921875 72.32806396484375 227.03411865234375 71.977294921875 238.69647216796875 72.0074462890625 238.96762084960935 72.01046752929688 238.9947509765625 " />
        <polyline stroke="black" stroke-width="3" stroke-linecap="round" fill="transparent" stroke-linejoin="round" points="106.66073608398438 51.53535461425781 104.122802734375 71.93312072753906 99.72186279296876 93.3839874267578 93.964599609375 114.41276550292967 80.4442138671875 150.38597106933594 72.3863525390625 160.66653442382813 69.10592651367188 162.8336181640625 70.41598510742188 158.21446228027344 " />
        <polyline stroke="black" stroke-width="3" stroke-linecap="round" fill="transparent" stroke-linejoin="round" points="121.6160888671875 59.5528564453125 126.78509521484376 66.63601684570313 138.85861206054688 83.15449523925781 144.92474365234375 91.4455108642578 148.9808349609375 102.42033386230467 149.386474609375 103.51780700683594 " />
        <polyline stroke="black" stroke-width="3" stroke-linecap="round" fill="transparent" stroke-linejoin="round" points="129.4432373046875 132.87449645996094 132.29672241210938 175.97842407226563 132.38067626953125 197.40768432617188 129.30706787109375 229.96725463867188 127.89019775390624 235.39486694335935 126.74481201171876 236.82861328125 125.75390625 236.82861328125 125.64996337890624 236.82861328125 122.27279663085938 233.9627990722656 121.18951416015624 232.6220703125 " />
        <polyline stroke="black" stroke-width="3" stroke-linecap="round" fill="transparent" stroke-linejoin="round" points="106.8922119140625 173.4161834716797 109.196044921875 178.11911010742188 112.25140380859376 185.0448303222656 112.54830932617188 186.92123413085935 112.96356201171876 187.87835693359375 113.0968017578125 188.18560791015625 " />
        <polyline stroke="black" stroke-width="3" stroke-linecap="round" fill="transparent" stroke-linejoin="round" points="153.75177001953125 176.1175537109375 149.54052734375 186.6845703125 140.45556640625 200.1553955078125 134.058349609375 204.15008544921875 132.93572998046875 203.80694580078125 " />
        <polyline stroke="black" stroke-width="3" stroke-linecap="round" fill="transparent" stroke-linejoin="round" points="177.0919189453125 70.20635986328125 174.3499755859375 81.07095336914063 166.6937255859375 94.40847778320313 160.8553466796875 100.26861572265624 158.04296875 102.568359375 149.81491088867188 108.74551391601563 149.84628295898438 108.1962890625 " />
        <polyline stroke="black" stroke-width="3" stroke-linecap="round" fill="transparent" stroke-linejoin="round" points="194.77435302734375 59.787384033203125 197.80609130859375 65.21112060546875 205.6513671875 78.09930419921875 225.3143310546875 89.25196838378906 231.5489501953125 94.47348022460938 232.32781982421875 96.6108856201172 226.450927734375 103.39836120605467 224.6019287109375 103.6833953857422 " />
        <polyline stroke="black" stroke-width="3" stroke-linecap="round" fill="transparent" stroke-linejoin="round" points="178.37005615234375 111.22323608398438 181.334228515625 117.87472534179688 183.699951171875 124.09902954101563 185.5238037109375 129.42601013183594 187.7012939453125 131.6821746826172 187.84368896484375 131.82974243164063 " />
        <polyline stroke="black" stroke-width="3" stroke-linecap="round" fill="transparent" stroke-linejoin="round" points="196.3448486328125 86.56312561035156 198.5621337890625 87.62322998046875 200.099609375 88.8822021484375 202.7186279296875 92.70524597167967 204.24432373046875 96.7352294921875 206.09014892578125 108.00460815429688 206.3856201171875 113.17546081542967 204.62200927734375 121.63250732421876 204.2625732421875 121.84677124023438 " />
        <polyline stroke="black" stroke-width="3" stroke-linecap="round" fill="transparent" stroke-linejoin="round" points="194.30792236328125 105.6986083984375 197.1285400390625 105.4453582763672 198.2001953125 105.370849609375 " />
        <polyline stroke="black" stroke-width="3" stroke-linecap="round" fill="transparent" stroke-linejoin="round" points="196.9967041015625 121.64207458496094 199.549560546875 121.68670654296876 201.5321044921875 121.71572875976563 203.0919189453125 121.73538208007813 214.75775146484375 120.80662536621094 216.74847412109375 120.59805297851563 " />
        <polyline stroke="black" stroke-width="3" stroke-linecap="round" fill="transparent" stroke-linejoin="round" points="173.14794921875 191.80178833007813 175.3948974609375 201.091552734375 177.4736328125 209.16677856445313 179.7049560546875 218.9292907714844 179.7010498046875 219.86663818359375 179.700927734375 219.8917236328125 179.700927734375 219.90252685546875 " />
        <polyline stroke="black" stroke-width="3" stroke-linecap="round" fill="transparent" stroke-linejoin="round" points="187.907470703125 130.64584350585938 192.38861083984375 130.55224609375 196.7015380859375 130.98724365234375 202.00048828125 134.51943969726563 213.67303466796875 141.55746459960938 221.9287109375 146.90335083007813 227.7037353515625 153.3624267578125 230.6854248046875 162.48291015625 232.02825927734375 168.2772216796875 234.7147216796875 182.62347412109375 235.26776123046875 202.70404052734375 233.48065185546875 213.180908203125 217.2071533203125 222.53424072265625 212.61395263671875 222.90264892578125 " />
        <polyline stroke="black" stroke-width="3" stroke-linecap="round" fill="transparent" stroke-linejoin="round" points="194.38909912109375 180.3878631591797 197.51171875 180.4081115722656 215.018310546875 181.3415374755859 225.53143310546875 183.6925048828125 224.00732421875 184.85113525390625 223.50787353515625 185.2308349609375 " />
        <polyline stroke="black" stroke-width="3" stroke-linecap="round" fill="transparent" stroke-linejoin="round" points="207.128173828125 217.723388671875 216.77362060546875 218.11981201171875 229.39776611328125 219.40924072265625 232.23492431640625 220.05633544921875 233.765869140625 220.0684814453125 231.09228515625 220.4310607910156 228.60302734375 220.69207763671875 " />
        </svg>