<?xml version="1.0" standalone="no"?>
    <svg width="256" height="256" xmlns="http://www.w3.org/2000/svg" version="1.1">
    <polyline stroke="black" stroke-width="3" stroke-linecap="round" fill="transparent" stroke-linejoin="round" points="46.552490234375 89.72311401367188 45.22625732421875 102.54362487792967 44.784149169921875 108.73283386230467 44.784149169921875 118.90081787109376 45.6683349609375 128.1846160888672 46.110443115234375 129.51089477539063 46.110443115234375 129.51089477539063 " />
        <polyline stroke="black" stroke-width="3" stroke-linecap="round" fill="transparent" stroke-linejoin="round" points="67.33056640625 58.334991455078125 67.33056640625 68.06089782714844 67.33056640625 94.58607482910156 68.65682983398438 123.76377868652344 70.4251708984375 151.17312622070313 72.19354248046875 175.929931640625 72.63558959960938 193.17132568359375 71.309326171875 205.10763549804688 71.309326171875 205.10763549804688 " />
        <polyline stroke="black" stroke-width="3" stroke-linecap="round" fill="transparent" stroke-linejoin="round" points="119.0546875 63.19793701171875 113.74960327148438 72.0396728515625 108.00250244140624 81.76556396484375 96.066162109375 100.7752685546875 84.12985229492188 119.78500366210938 80.15106201171875 125.5321044921875 80.15106201171875 125.5321044921875 " />
        <polyline stroke="black" stroke-width="3" stroke-linecap="round" fill="transparent" stroke-linejoin="round" points="153.0953369140625 68.06089782714844 163.70538330078125 69.82923889160156 169.4525146484375 71.15550231933594 171.2208251953125 71.59757995605469 171.2208251953125 71.59757995605469 " />
        <polyline stroke="black" stroke-width="3" stroke-linecap="round" fill="transparent" stroke-linejoin="round" points="129.22265625 115.36412048339844 130.10678100585938 125.09002685546876 130.990966796875 133.93174743652344 131.87518310546875 152.49937438964844 132.31723022460938 167.97239685058594 131.43307495117188 179.0245361328125 129.22265625 185.2137451171875 127.45428466796876 186.98211669921875 127.45428466796876 186.98211669921875 " />
        <polyline stroke="black" stroke-width="3" stroke-linecap="round" fill="transparent" stroke-linejoin="round" points="101.81332397460938 148.07852172851563 107.11834716796876 148.9626922607422 116.84423828125 147.63644409179688 116.84423828125 147.63644409179688 " />
        <polyline stroke="black" stroke-width="3" stroke-linecap="round" fill="transparent" stroke-linejoin="round" points="159.7265625 125.5321044921875 155.747802734375 130.3950653076172 147.34814453125 140.12095642089844 140.71688842773438 147.1943359375 138.06439208984375 150.73101806640625 134.0855712890625 154.26773071289063 134.0855712890625 154.26773071289063 " />
        <polyline stroke="black" stroke-width="3" stroke-linecap="round" fill="transparent" stroke-linejoin="round" points="177.8521728515625 62.755859375 174.3154296875 68.50299072265625 167.2420654296875 79.11305236816406 163.70538330078125 83.53390502929688 156.18988037109375 93.2598114013672 153.537353515625 96.35441589355467 153.0953369140625 96.7965087890625 152.6531982421875 95.91232299804688 153.9794921875 94.58607482910156 155.747802734375 92.81771850585938 166.35791015625 85.74435424804688 178.736328125 79.99722290039063 185.8096923828125 77.34469604492188 200.3985595703125 73.36593627929688 221.1766357421875 70.27133178710938 230.018310546875 69.82923889160156 233.5550537109375 70.27133178710938 233.5550537109375 70.27133178710938 " />
        <polyline stroke="black" stroke-width="3" stroke-linecap="round" fill="transparent" stroke-linejoin="round" points="185.8096923828125 126.85836791992188 184.4833984375 131.2792205810547 180.504638671875 144.98391723632813 177.4100341796875 152.94146728515625 176.52587890625 154.70980834960938 175.19964599609375 157.3623046875 175.19964599609375 156.92025756835938 175.6417236328125 154.70980834960938 176.96795654296875 152.05728149414063 185.36761474609375 140.12095642089844 193.32513427734375 130.83714294433594 202.1668701171875 122.43753051757813 206.5877685546875 118.90081787109376 218.9661865234375 111.8274383544922 225.1553955078125 110.05908203125 229.1341552734375 110.94326782226563 231.78662109375 114.03787231445313 232.67083740234375 120.66915893554688 231.3446044921875 124.64793395996094 218.08197021484375 139.6788787841797 218.08197021484375 139.6788787841797 " />
        <polyline stroke="black" stroke-width="3" stroke-linecap="round" fill="transparent" stroke-linejoin="round" points="195.53558349609375 135.70010375976563 199.51434326171875 135.25799560546875 202.6090087890625 134.81591796875 208.3560791015625 133.93174743652344 211.45068359375 133.93174743652344 211.89276123046875 133.93174743652344 211.00860595703125 134.81591796875 211.00860595703125 134.81591796875 " />
        <polyline stroke="black" stroke-width="3" stroke-linecap="round" fill="transparent" stroke-linejoin="round" points="186.69384765625 164.43569946289063 191.9989013671875 163.551513671875 202.1668701171875 163.551513671875 202.1668701171875 163.551513671875 " />
        <polyline stroke="black" stroke-width="3" stroke-linecap="round" fill="transparent" stroke-linejoin="round" points="172.547119140625 209.9705810546875 171.6629638671875 215.275634765625 169.89459228515625 225.443603515625 167.2420654296875 234.7274169921875 165.915771484375 237.37994384765625 165.0316162109375 237.37994384765625 164.58953857421875 236.05368041992188 165.0316162109375 231.6328125 167.68414306640625 225.00152587890625 172.547119140625 217.92816162109375 180.06256103515625 209.52850341796875 190.672607421875 201.12884521484375 202.1668701171875 194.49755859375 213.6611328125 190.07672119140625 223.38702392578125 188.308349609375 229.57623291015625 188.75045776367188 232.67083740234375 191.84506225585935 233.5550537109375 199.8026123046875 227.3658447265625 212.1810302734375 214.9874267578125 223.67526245117188 214.9874267578125 223.67526245117188 " />
        <polyline stroke="black" stroke-width="3" stroke-linecap="round" fill="transparent" stroke-linejoin="round" points="186.69384765625 212.1810302734375 197.303955078125 208.64434814453125 207.91400146484375 206.43389892578125 211.89276123046875 205.9918212890625 217.639892578125 205.9918212890625 220.29241943359375 207.31805419921875 220.29241943359375 207.31805419921875 " />
        <polyline stroke="black" stroke-width="3" stroke-linecap="round" fill="transparent" stroke-linejoin="round" points="192.44097900390625 238.7061767578125 197.303955078125 236.9378662109375 202.6090087890625 235.16949462890625 213.218994140625 232.9590759277344 213.218994140625 232.9590759277344 " />
        </svg>