<?xml version="1.0" standalone="no"?>
    <svg width="256" height="256" xmlns="http://www.w3.org/2000/svg" version="1.1">
    <polyline stroke="black" stroke-width="3" stroke-linecap="round" fill="transparent" stroke-linejoin="round" points="57.3472900390625 125.4418487548828 56.693603515625 130.01734924316406 56.693603515625 156.1630859375 56.693603515625 160.7386016845703 57.3472900390625 164.6604461669922 58.65460205078125 162.0458984375 60.615478515625 152.89488220214844 60.615478515625 152.89488220214844 " />
        <polyline stroke="black" stroke-width="3" stroke-linecap="round" fill="transparent" stroke-linejoin="round" points="62.576416015625 124.1345672607422 63.88372802734375 116.29086303710938 68.459228515625 99.94978332519533 69.7664794921875 97.33518981933594 74.34197998046875 88.83782958984375 80.87841796875 80.99411010742188 90.68304443359376 76.41859436035156 96.56585693359376 77.72587585449219 101.14141845703124 88.18418884277344 104.40960693359376 104.52525329589844 105.063232421875 121.51998901367188 103.102294921875 137.861083984375 101.14141845703124 143.0902099609375 99.180419921875 142.4365997314453 99.180419921875 142.4365997314453 " />
        <polyline stroke="black" stroke-width="3" stroke-linecap="round" fill="transparent" stroke-linejoin="round" points="80.87841796875 130.01734924316406 81.5321044921875 132.63194274902344 79.5711669921875 147.0120849609375 78.91748046875 148.31936645507813 74.99566650390625 147.6657257080078 71.72747802734375 143.0902099609375 69.7664794921875 137.861083984375 69.11285400390625 130.01734924316406 70.42010498046875 128.05642700195313 75.6492919921875 124.7882080078125 83.49298095703125 122.1736297607422 88.06854248046875 122.1736297607422 90.68304443359376 126.74913024902344 90.68304443359376 128.71006774902344 90.68304443359376 128.71006774902344 " />
        <polyline stroke="black" stroke-width="3" stroke-linecap="round" fill="transparent" stroke-linejoin="round" points="90.68304443359376 142.4365997314453 97.87322998046876 137.20742797851563 125.97979736328124 114.32991027832033 125.97979736328124 114.32991027832033 " />
        <polyline stroke="black" stroke-width="3" stroke-linecap="round" fill="transparent" stroke-linejoin="round" points="131.20892333984375 78.37953186035156 131.86260986328125 80.99411010742188 133.16986083984375 96.68156433105467 133.16986083984375 97.98883056640624 135.13079833984375 95.374267578125 135.13079833984375 95.374267578125 " />
        <polyline stroke="black" stroke-width="3" stroke-linecap="round" fill="transparent" stroke-linejoin="round" points="140.3599853515625 56.155670166015625 141.667236328125 54.848365783691406 156.04742431640625 46.35101318359375 173.04217529296875 44.39009094238281 174.34942626953125 45.04371643066406 180.23223876953125 50.92652893066406 182.193115234375 57.46296691894531 183.50042724609375 71.189453125 182.193115234375 80.34048461914063 180.8858642578125 82.3013916015625 180.8858642578125 82.3013916015625 " />
        <polyline stroke="black" stroke-width="3" stroke-linecap="round" fill="transparent" stroke-linejoin="round" points="146.24273681640625 80.34048461914063 146.24273681640625 82.3013916015625 145.589111328125 96.68156433105467 144.93548583984375 97.98883056640624 142.97454833984375 100.60340881347656 140.3599853515625 99.29612731933594 137.09173583984375 93.41334533691406 136.4381103515625 90.14512634277344 138.3990478515625 84.91595458984375 146.24273681640625 78.37953186035156 153.43280029296875 75.11131286621094 160.6229248046875 72.49674987792969 163.89111328125 73.15037536621094 165.85205078125 78.37953186035156 165.85205078125 78.37953186035156 " />
        <polyline stroke="black" stroke-width="3" stroke-linecap="round" fill="transparent" stroke-linejoin="round" points="167.81298828125 84.26231384277344 170.42755126953125 84.91595458984375 174.34942626953125 87.53053283691406 174.34942626953125 87.53053283691406 " />
        <polyline stroke="black" stroke-width="3" stroke-linecap="round" fill="transparent" stroke-linejoin="round" points="127.94073486328124 142.4365997314453 127.94073486328124 146.3584442138672 129.24798583984375 167.2750244140625 129.90167236328125 169.8896026611328 132.51629638671875 181.6551971435547 133.8236083984375 184.26974487304688 137.745361328125 178.38699340820313 137.745361328125 178.38699340820313 " />
        <polyline stroke="black" stroke-width="3" stroke-linecap="round" fill="transparent" stroke-linejoin="round" points="141.667236328125 133.2855682373047 143.628173828125 132.63194274902344 159.96923828125 126.0955047607422 161.93017578125 125.4418487548828 168.46661376953125 125.4418487548828 172.38848876953125 130.67100524902344 173.04217529296875 145.0511474609375 169.12030029296875 160.7386016845703 164.5447998046875 172.50418090820313 158.6619873046875 186.23068237304688 157.35467529296875 190.80618286132813 157.35467529296875 190.80618286132813 " />
        <polyline stroke="black" stroke-width="3" stroke-linecap="round" fill="transparent" stroke-linejoin="round" points="146.24273681640625 163.35317993164063 146.24273681640625 165.96775817871094 145.589111328125 181.6551971435547 145.589111328125 184.9234313964844 145.589111328125 184.9234313964844 " />
        <polyline stroke="black" stroke-width="3" stroke-linecap="round" fill="transparent" stroke-linejoin="round" points="152.12554931640625 155.5094757080078 153.43280029296875 155.5094757080078 161.27655029296875 157.47036743164063 161.93017578125 158.77769470214844 163.89111328125 164.00682067871094 163.89111328125 164.00682067871094 " />
        <polyline stroke="black" stroke-width="3" stroke-linecap="round" fill="transparent" stroke-linejoin="round" points="165.85205078125 188.84527587890625 169.12030029296875 189.4989013671875 173.04217529296875 190.80618286132813 173.04217529296875 190.80618286132813 " />
        </svg>