<?xml version="1.0" standalone="no"?>
    <svg width="256" height="256" xmlns="http://www.w3.org/2000/svg" version="1.1">
    <polyline stroke="black" stroke-width="3" stroke-linecap="round" fill="transparent" stroke-linejoin="round" points="77 92 78 92 78 95 79 99 78 106 78 113 77 121 76 128 76 134 76 143 76 147 76 150 77 153 78 153 78 153 " />
        <polyline stroke="black" stroke-width="3" stroke-linecap="round" fill="transparent" stroke-linejoin="round" points="79 97 82 94 85 92 88 90 91 88 94 86 97 84 102 82 105 81 107 80 110 81 112 83 113 86 114 92 114 99 114 107 114 119 113 126 112 131 111 136 110 138 110 139 " />
        <polyline stroke="black" stroke-width="3" stroke-linecap="round" fill="transparent" stroke-linejoin="round" points="94 96 95 95 95 96 96 96 96 98 96 102 96 107 96 116 95 122 95 127 94 132 94 136 93 140 93 142 92 142 " />
        <polyline stroke="black" stroke-width="3" stroke-linecap="round" fill="transparent" stroke-linejoin="round" points="90 124 92 123 95 121 98 120 100 119 103 118 105 118 107 118 107 118 " />
        <polyline stroke="black" stroke-width="3" stroke-linecap="round" fill="transparent" stroke-linejoin="round" points="84 147 83 149 82 149 83 149 84 149 87 148 90 147 93 146 97 145 101 143 106 141 112 138 115 136 " />
        <polyline stroke="black" stroke-width="3" stroke-linecap="round" fill="transparent" stroke-linejoin="round" points="137 72 137 73 137 75 137 78 136 82 136 87 136 93 136 99 136 104 135 110 135 112 135 113 135 113 135 111 " />
        <polyline stroke="black" stroke-width="3" stroke-linecap="round" fill="transparent" stroke-linejoin="round" points="139 81 140 77 143 73 146 70 149 68 152 65 156 63 159 62 163 61 165 62 168 64 170 68 171 73 173 80 173 87 174 94 174 101 173 107 173 110 173 112 " />
        <polyline stroke="black" stroke-width="3" stroke-linecap="round" fill="transparent" stroke-linejoin="round" points="158 73 158 74 158 76 156 83 155 89 154 95 152 101 151 106 150 110 149 113 148 114 147 115 " />
        <polyline stroke="black" stroke-width="3" stroke-linecap="round" fill="transparent" stroke-linejoin="round" points="142 97 144 96 147 94 150 93 153 93 158 92 159 92 162 93 163 94 164 94 164 95 " />
        <polyline stroke="black" stroke-width="3" stroke-linecap="round" fill="transparent" stroke-linejoin="round" points="137 117 136 118 138 117 140 115 144 113 149 111 154 108 160 105 166 102 169 101 171 101 " />
        <polyline stroke="black" stroke-width="3" stroke-linecap="round" fill="transparent" stroke-linejoin="round" points="133 146 131 150 130 156 130 160 130 164 130 169 130 173 130 177 131 179 131 181 131 182 132 181 133 178 133 176 " />
        <polyline stroke="black" stroke-width="3" stroke-linecap="round" fill="transparent" stroke-linejoin="round" points="139 152 141 147 143 143 148 137 152 133 155 130 159 127 162 125 166 124 170 125 173 128 176 132 179 143 180 152 180 160 180 168 179 175 178 180 177 183 176 185 176 185 " />
        <polyline stroke="black" stroke-width="3" stroke-linecap="round" fill="transparent" stroke-linejoin="round" points="165 140 164 139 163 139 163 141 162 144 161 148 159 157 157 164 155 171 153 177 152 182 151 184 150 185 " />
        <polyline stroke="black" stroke-width="3" stroke-linecap="round" fill="transparent" stroke-linejoin="round" points="143 162 146 159 149 156 153 154 157 152 160 151 164 151 167 150 169 151 171 153 171 154 " />
        <polyline stroke="black" stroke-width="3" stroke-linecap="round" fill="transparent" stroke-linejoin="round" points="151 181 151 181 154 181 158 180 163 179 168 178 175 177 181 176 188 176 192 176 195 177 " />
        </svg>