<?xml version="1.0" standalone="no"?>
    <svg width="256" height="256" xmlns="http://www.w3.org/2000/svg" version="1.1">
    <polyline stroke="black" stroke-width="3" stroke-linecap="round" fill="transparent" stroke-linejoin="round" points="47.093017578125 96.4808349609375 51.411651611328125 118.08494567871094 53.072540283203125 128.38819885253906 54.06903076171875 137.69464111328125 55.065887451171875 145.67140197753906 56.062408447265625 151.6541290283203 56.39459228515625 155.97500610351563 56.726776123046875 158.30152893066406 56.726776123046875 160.29556274414063 57.0589599609375 161.625244140625 57.39111328125 161.95741271972656 57.39111328125 161.95741271972656 " />
        <polyline stroke="black" stroke-width="3" stroke-linecap="round" fill="transparent" stroke-linejoin="round" points="87.952880859375 67.23251342773438 95.26107788085938 63.57664489746094 98.25067138671876 61.58229064941406 100.90838623046876 59.920440673828125 103.23361206054688 58.25859069824219 104.89450073242188 57.26141357421875 105.89132690429688 56.26422119140625 106.88784790039063 55.93205261230469 107.55221557617188 55.93205261230469 108.21658325195313 55.93205261230469 108.54876708984376 56.59674072265625 108.54876708984376 57.593902587890625 108.54876708984376 59.58793640136719 108.54876708984376 62.24696350097656 108.54876708984376 66.56784057617188 108.54876708984376 73.21525573730469 108.21658325195313 82.85385131835938 108.21658325195313 93.8221435546875 107.8843994140625 104.79010009765624 107.55221557617188 114.76119995117188 107.55221557617188 123.40264892578124 107.22006225585938 130.050048828125 107.22006225585938 135.70028686523438 106.88784790039063 140.0211639404297 106.55569458007813 144.00953674316406 105.89132690429688 146.66856384277344 105.55917358398438 148.99510192871094 105.22665405273438 149.99227905273438 104.89450073242188 150.32444763183594 104.23013305664063 149.3275909423828 104.23013305664063 149.3275909423828 " />
        <polyline stroke="black" stroke-width="3" stroke-linecap="round" fill="transparent" stroke-linejoin="round" points="86.29168701171875 105.78727722167967 85.62734985351563 128.05601501464844 84.96298217773438 140.0211639404297 84.63082885742188 151.32164001464844 84.63082885742188 151.32164001464844 " />
        <polyline stroke="black" stroke-width="3" stroke-linecap="round" fill="transparent" stroke-linejoin="round" points="93.6002197265625 113.43186950683594 110.20965576171876 106.11978149414063 115.85696411132813 104.12542724609376 118.84689331054688 103.12825012207033 120.83990478515624 102.79608154296876 120.83990478515624 102.79608154296876 " />
        <polyline stroke="black" stroke-width="3" stroke-linecap="round" fill="transparent" stroke-linejoin="round" points="83.63430786132813 168.60484313964844 103.5657958984375 149.99227905273438 121.5042724609375 134.3709259033203 121.5042724609375 134.3709259033203 " />
        <polyline stroke="black" stroke-width="3" stroke-linecap="round" fill="transparent" stroke-linejoin="round" points="169.0079345703125 70.88871765136719 167.0145263671875 89.83345031738281 166.682373046875 106.11978149414063 166.682373046875 112.76686096191406 166.35015869140625 118.08494567871094 166.35015869140625 122.0732879638672 166.35015869140625 125.0644989013672 166.682373046875 126.3941650390625 166.682373046875 126.3941650390625 " />
        <polyline stroke="black" stroke-width="3" stroke-linecap="round" fill="transparent" stroke-linejoin="round" points="192.92559814453125 42.969749450683594 199.23724365234375 39.64604187011719 201.89495849609375 38.64886474609375 204.22015380859375 37.65169525146485 205.881103515625 36.654502868652344 207.542236328125 36.32233428955078 208.87091064453125 35.65766143798828 209.867431640625 35.65766143798828 210.53179931640625 35.65766143798828 211.1961669921875 35.65766143798828 211.52838134765625 35.989837646484375 211.86053466796875 36.654502868652344 212.1927490234375 37.98418426513672 212.52520751953125 39.64604187011719 213.1895751953125 42.30506896972656 213.521728515625 45.628456115722656 214.18609619140625 50.614013671875 214.18609619140625 57.92607116699219 214.51824951171875 67.23251342773438 214.18609619140625 77.53579711914063 213.521728515625 88.83657836914063 212.52520751953125 99.4723663330078 211.52838134765625 108.77850341796876 210.864013671875 117.08773803710938 210.19964599609375 123.40264892578124 209.5352783203125 127.72352600097656 208.87091064453125 130.7147216796875 208.20660400390625 133.37374877929688 207.542236328125 135.3681182861328 206.87786865234375 136.6974639892578 206.5457763671875 137.3621368408203 206.21356201171875 137.69464111328125 206.21356201171875 137.69464111328125 205.54888916015625 137.3621368408203 205.21673583984375 136.3652801513672 205.21673583984375 136.3652801513672 " />
        <polyline stroke="black" stroke-width="3" stroke-linecap="round" fill="transparent" stroke-linejoin="round" points="195.2510986328125 76.20645141601563 193.5902099609375 94.81900024414063 192.92559814453125 103.4607391357422 192.5933837890625 110.10818481445313 192.26123046875 115.42588806152344 191.59686279296875 119.4142608642578 190.9324951171875 122.0732879638672 189.93597412109375 124.39982604980467 189.93597412109375 124.39982604980467 " />
        <polyline stroke="black" stroke-width="3" stroke-linecap="round" fill="transparent" stroke-linejoin="round" points="199.90185546875 91.49530029296876 210.864013671875 91.16311645507813 215.51483154296875 91.82778930664063 215.51483154296875 91.82778930664063 " />
        <polyline stroke="black" stroke-width="3" stroke-linecap="round" fill="transparent" stroke-linejoin="round" points="179.9700927734375 133.70628356933594 202.8914794921875 126.3941650390625 213.1895751953125 123.40264892578124 221.826416015625 121.40861511230467 228.4703369140625 120.07893371582033 233.78546142578125 119.08210754394533 233.78546142578125 119.08210754394533 " />
        <polyline stroke="black" stroke-width="3" stroke-linecap="round" fill="transparent" stroke-linejoin="round" points="155.72021484375 172.2610321044922 156.716796875 185.88803100585935 157.38116455078125 192.20294189453125 158.377685546875 197.52096557617188 159.37420654296875 202.17404174804688 160.702880859375 205.83023071289065 162.36407470703125 208.15676879882813 162.36407470703125 208.15676879882813 " />
        <polyline stroke="black" stroke-width="3" stroke-linecap="round" fill="transparent" stroke-linejoin="round" points="179.30572509765625 153.64816284179688 201.89495849609375 145.33921813964844 211.52838134765625 142.68019104003906 219.501220703125 141.3505096435547 225.8128662109375 141.01834106445313 230.79547119140625 141.3505096435547 236.44281005859375 142.68019104003906 237.77191162109375 143.6773681640625 238.43621826171875 145.0067138671875 239.10052490234375 147.00106811523438 239.10052490234375 148.99510192871094 239.10052490234375 150.9894561767578 239.10052490234375 152.9834747314453 238.76837158203125 155.3100128173828 238.43621826171875 157.9690399169922 238.10400390625 160.96022033691406 236.7750244140625 167.607666015625 236.44281005859375 170.93136596679688 236.11065673828125 174.25503540039063 235.77850341796875 177.24658203125 235.4462890625 179.5731201171875 235.1141357421875 181.899658203125 234.44976806640625 184.55865478515625 234.11761474609375 187.2173767089844 233.4532470703125 189.54421997070313 233.12109375 191.8707275390625 232.45672607421875 194.197265625 232.12451171875 195.859130859375 231.7923583984375 197.1884765625 231.46014404296875 198.1856384277344 230.79547119140625 198.850341796875 230.79547119140625 198.850341796875 " />
        <polyline stroke="black" stroke-width="3" stroke-linecap="round" fill="transparent" stroke-linejoin="round" points="194.9189453125 166.61080932617188 192.5933837890625 183.22897338867188 191.59686279296875 192.53543090820313 190.26812744140625 202.17404174804688 188.939453125 210.8157958984375 186.94610595703125 216.46603393554688 185.28515625 219.78973388671875 185.28515625 219.78973388671875 " />
        <polyline stroke="black" stroke-width="3" stroke-linecap="round" fill="transparent" stroke-linejoin="round" points="182.6278076171875 180.9024658203125 197.5762939453125 178.90843200683594 204.5523681640625 178.2434539794922 211.1961669921875 177.57876586914063 217.1756591796875 176.24942016601563 222.822998046875 175.2522430419922 222.822998046875 175.2522430419922 " />
        <polyline stroke="black" stroke-width="3" stroke-linecap="round" fill="transparent" stroke-linejoin="round" points="185.61737060546875 202.83871459960935 214.51824951171875 197.1884765625 227.805908203125 195.859130859375 239.4327392578125 195.52664184570313 249.066162109375 195.1944580078125 256.70684814453125 194.8619384765625 256.70684814453125 194.8619384765625 " />
        </svg>