<?xml version="1.0" standalone="no"?>
    <svg width="256" height="256" xmlns="http://www.w3.org/2000/svg" version="1.1">
    <polyline stroke="black" stroke-width="3" stroke-linecap="round" fill="transparent" stroke-linejoin="round" points="55.88848876953125 61.51005554199219 53.2359619140625 72.56221008300781 52.351776123046875 77.4251708984375 51.90966796875 82.73019409179688 51.467620849609375 92.89817810058594 51.90966796875 101.73991394042967 52.351776123046875 106.1607666015625 53.2359619140625 112.3499755859375 55.00433349609375 115.88665771484376 58.098876953125 117.65501403808594 63.4039306640625 117.65501403808594 66.49853515625 116.77085876464844 77.99276733398438 112.3499755859375 86.83453369140625 107.04495239257813 94.3499755859375 101.29782104492188 97.88665771484376 97.76113891601563 97.88665771484376 97.76113891601563 " />
        <polyline stroke="black" stroke-width="3" stroke-linecap="round" fill="transparent" stroke-linejoin="round" points="117.33847045898438 55.32084655761719 118.66473388671876 74.77264404296875 118.66473388671876 85.38272094726563 116.8963623046875 93.34027099609376 116.01220703125 95.99278259277344 116.01220703125 95.99278259277344 " />
        <polyline stroke="black" stroke-width="3" stroke-linecap="round" fill="transparent" stroke-linejoin="round" points="83.29782104492188 36.31114196777344 78.876953125 56.20501708984375 76.66650390625 68.58343505859375 74.45611572265625 81.84602355957031 66.05645751953125 127.38092041015624 59.4251708984375 158.3269500732422 55.88848876953125 172.0316162109375 53.67803955078125 184.4100341796875 53.67803955078125 184.4100341796875 " />
        <polyline stroke="black" stroke-width="3" stroke-linecap="round" fill="transparent" stroke-linejoin="round" points="141.21112060546875 53.11041259765625 136.34814453125 77.4251708984375 133.69564819335938 88.03523254394531 130.60107421875 97.76113891601563 127.94857788085938 107.48704528808594 123.52767944335938 127.38092041015624 123.0855712890625 134.45428466796875 125.2960205078125 138.87515258789063 132.81149291992188 141.9697723388672 148.7265625 141.52767944335938 167.294189453125 137.10679626464844 177.0201416015625 133.12803649902344 200.89276123046875 121.1916961669922 211.060791015625 113.67623901367188 213.7132568359375 110.58163452148438 219.018310546875 100.41363525390624 219.018310546875 100.41363525390624 " />
        <polyline stroke="black" stroke-width="3" stroke-linecap="round" fill="transparent" stroke-linejoin="round" points="209.7344970703125 46.47911834716797 209.29241943359375 63.720489501953125 209.29241943359375 71.67803955078125 208.850341796875 89.36148071289063 205.31365966796875 115.0024871826172 202.6611328125 123.4021453857422 202.6611328125 123.4021453857422 " />
        <polyline stroke="black" stroke-width="3" stroke-linecap="round" fill="transparent" stroke-linejoin="round" points="166.8521728515625 56.20501708984375 165.08380126953125 67.25717163085938 163.75750732421875 77.4251708984375 161.10498046875 102.6240692138672 160.2208251953125 117.65501403808594 158.89459228515625 135.33847045898438 158.01043701171875 154.34817504882813 155.79998779296875 194.13592529296875 154.0316162109375 215.3560791015625 154.0316162109375 215.3560791015625 " />
        </svg>