<?xml version="1.0" standalone="no"?>
    <svg width="256" height="256" xmlns="http://www.w3.org/2000/svg" version="1.1">
    <polyline stroke="black" stroke-width="3" stroke-linecap="round" fill="transparent" stroke-linejoin="round" points="95.88168334960938 49.764617919921875 100.83187866210938 69.56533813476563 105.78207397460938 93.98626708984376 106.112060546875 96.2963409423828 106.112060546875 101.2465362548828 106.112060546875 101.2465362548828 106.112060546875 101.2465362548828 " />
        <polyline stroke="black" stroke-width="3" stroke-linecap="round" fill="transparent" stroke-linejoin="round" points="101.82186889648438 61.315032958984375 111.39224243164063 47.78453063964844 136.47320556640625 21.05352783203125 141.09335327148438 18.083412170410156 153.6337890625 15.113304138183594 164.854248046875 20.39350128173828 173.7646484375 30.623878479003903 180.0347900390625 45.144432067871094 181.02490234375 60.32499694824219 176.07470703125 76.82562255859375 165.18426513671875 92.00619506835938 154.62384033203125 99.92648315429688 154.62384033203125 99.92648315429688 154.62384033203125 99.92648315429688 " />
        <polyline stroke="black" stroke-width="3" stroke-linecap="round" fill="transparent" stroke-linejoin="round" points="97.86175537109376 88.7060546875 107.43209838867188 85.075927734375 113.04232788085938 83.42587280273438 139.7733154296875 73.19548034667969 145.383544921875 70.88539123535156 161.55413818359375 65.27519226074219 174.754638671875 56.694854736328125 177.39471435546875 54.05477142333984 177.39471435546875 54.05477142333984 " />
        <polyline stroke="black" stroke-width="3" stroke-linecap="round" fill="transparent" stroke-linejoin="round" points="150.00369262695313 42.50433349609375 144.7235107421875 64.28515625 128.88290405273438 96.95637512207033 125.25277709960938 100.91651916503906 115.02239990234376 111.1469268798828 110.4022216796875 114.11701965332033 108.75213623046876 114.11701965332033 109.41217041015624 111.8069305419922 114.36236572265624 106.19671630859376 127.23284912109376 97.61639404296876 142.4134521484375 91.0161590576172 154.95391845703125 87.71601867675781 163.8642578125 87.05601501464844 167.49432373046875 88.04603576660156 167.49432373046875 88.04603576660156 167.49432373046875 88.04603576660156 " />
        <polyline stroke="black" stroke-width="3" stroke-linecap="round" fill="transparent" stroke-linejoin="round" points="52.650054931640625 159.98875427246094 74.76089477539063 155.69857788085938 121.62261962890624 142.82809448242188 131.52301025390625 140.18801879882813 160.89410400390625 134.9077911376953 187.29510498046875 131.2776641845703 204.4556884765625 127.97756958007813 208.74591064453125 126.32746887207033 208.74591064453125 126.32746887207033 208.74591064453125 126.32746887207033 " />
        <polyline stroke="black" stroke-width="3" stroke-linecap="round" fill="transparent" stroke-linejoin="round" points="122.94265747070313 113.78700256347656 116.012451171875 127.64753723144533 108.75213623046876 167.2490234375 109.08218383789063 172.85922241210938 113.37234497070313 186.7197265625 120.30258178710938 198.27017211914065 125.91278076171876 202.89035034179688 132.5130615234375 203.22036743164065 140.76333618164063 198.6001892089844 153.3038330078125 183.089599609375 167.16436767578125 155.69857788085938 167.16436767578125 155.69857788085938 167.16436767578125 155.69857788085938 " />
        <polyline stroke="black" stroke-width="3" stroke-linecap="round" fill="transparent" stroke-linejoin="round" points="165.5142822265625 110.81689453125 160.89410400390625 118.4071807861328 154.62384033203125 143.4881134033203 154.62384033203125 148.768310546875 154.62384033203125 164.93893432617188 155.283935546875 171.8691864013672 155.283935546875 171.8691864013672 " />
        </svg>