<?xml version="1.0" standalone="no"?>
    <svg width="256" height="256" xmlns="http://www.w3.org/2000/svg" version="1.1">
    <polyline stroke="black" stroke-width="3" stroke-linecap="round" fill="transparent" stroke-linejoin="round" points="75.38327026367188 63.42170715332031 77.0394287109375 82.4674072265625 77.86752319335938 94.06045532226563 78.28155517578125 105.23947143554688 78.695556640625 113.52020263671876 78.28155517578125 126.76939392089844 77.45346069335938 132.15188598632813 77.0394287109375 132.56590270996094 77.0394287109375 132.56590270996094 " />
        <polyline stroke="black" stroke-width="3" stroke-linecap="round" fill="transparent" stroke-linejoin="round" points="83.66400146484375 87.02182006835938 101.05355834960938 73.77264404296875 108.50628662109376 69.21823120117188 123.41159057617188 60.5234375 130.8642578125 57.211151123046875 143.28536987304688 52.242698669433594 152.39422607421875 50.5865478515625 157.77667236328125 51.00059509277344 160.6749267578125 53.070770263671875 162.3310546875 55.96903991699219 163.1591796875 74.18667602539063 159.018798828125 87.84989929199219 151.152099609375 101.51312255859376 139.97308349609375 113.93423461914063 139.97308349609375 113.93423461914063 " />
        <polyline stroke="black" stroke-width="3" stroke-linecap="round" fill="transparent" stroke-linejoin="round" points="81.17977905273438 105.65348815917967 99.3974609375 99.02890014648438 107.67816162109376 96.95870971679688 115.130859375 94.4744873046875 128.7940673828125 90.74815368652344 139.55902099609375 87.43585205078125 145.76959228515625 85.36567687988281 148.25384521484375 84.12356567382813 148.25384521484375 84.12356567382813 " />
        <polyline stroke="black" stroke-width="3" stroke-linecap="round" fill="transparent" stroke-linejoin="round" points="116.37298583984376 77.08493041992188 111.81854248046876 89.09201049804688 109.74838256835938 94.8885498046875 107.26412963867188 101.09909057617188 101.05355834960938 113.10617065429688 91.94476318359376 125.11325073242188 82.421875 134.2220458984375 77.86752319335938 137.5343475341797 71.65695190429688 140.84666442871094 71.24288940429688 140.01858520507813 75.38327026367188 136.70628356933594 81.17977905273438 133.39401245117188 106.02203369140624 124.28515625 121.34140014648438 120.97288513183594 132.93441772460938 119.73077392578124 136.6607666015625 119.31671142578124 140.38714599609375 119.31671142578124 141.21517944335938 119.73077392578124 141.21517944335938 119.73077392578124 " />
        <polyline stroke="black" stroke-width="3" stroke-linecap="round" fill="transparent" stroke-linejoin="round" points="46.40069580078125 179.76614379882813 63.376190185546875 173.5555877685547 73.31307983398438 170.65733337402344 84.49212646484375 167.34503173828125 118.02914428710938 157.82217407226563 128.7940673828125 155.33795166015625 137.90289306640625 153.26776123046875 151.98016357421875 150.3695068359375 157.77667236328125 149.5414276123047 167.299560546875 147.88528442382813 169.3697509765625 147.47125244140625 169.3697509765625 147.47125244140625 " />
        <polyline stroke="black" stroke-width="3" stroke-linecap="round" fill="transparent" stroke-linejoin="round" points="106.43603515625 125.94132995605467 97.32723999023438 144.572998046875 93.18685913085938 154.50987243652344 89.87460327148438 163.20465087890625 83.66400146484375 181.8363342285156 82.8359375 185.97671508789065 83.25 191.35919189453125 84.49212646484375 193.42938232421875 88.6324462890625 194.6714782714844 96.49920654296876 194.2574462890625 107.67816162109376 190.94515991210935 118.02914428710938 186.3907470703125 125.48178100585938 182.2503662109375 127.96600341796876 180.59422302246097 127.96600341796876 180.59422302246097 " />
        <polyline stroke="black" stroke-width="3" stroke-linecap="round" fill="transparent" stroke-linejoin="round" points="132.93441772460938 141.26068115234375 133.34848022460938 159.89236450195313 133.76254272460938 165.6888885498047 134.590576171875 176.45384216308594 135.004638671875 190.5311279296875 135.004638671875 190.5311279296875 " />
        </svg>