<?xml version="1.0" standalone="no"?>
    <svg width="256" height="256" xmlns="http://www.w3.org/2000/svg" version="1.1">
    <polyline stroke="black" stroke-width="3" stroke-linecap="round" fill="transparent" stroke-linejoin="round" points="83.1334228515625 76.00001525878906 83.1334228515625 113.33334350585938 83.1334228515625 134.6666717529297 84.2000732421875 143.20001220703125 86.3333740234375 145.33334350585938 87.4000244140625 138.93336486816406 87.4000244140625 138.93336486816406 " />
        <polyline stroke="black" stroke-width="3" stroke-linecap="round" fill="transparent" stroke-linejoin="round" points="81.00006103515625 76.00001525878906 107.666748046875 56.800018310546875 127.93341064453124 48.26667022705078 137.533447265625 46.13334655761719 142.86669921875 46.13334655761719 143.933349609375 51.46668243408203 143.933349609375 68.53335571289063 141.8001708984375 92.00001525878906 140.7333984375 117.60000610351563 141.8001708984375 122.93336486816406 142.86669921875 127.20001220703124 142.86669921875 127.20001220703124 141.8001708984375 120.8000030517578 141.8001708984375 120.8000030517578 " />
        <polyline stroke="black" stroke-width="3" stroke-linecap="round" fill="transparent" stroke-linejoin="round" points="114.06671142578124 66.40000915527344 114.06671142578124 103.73333740234376 115.1334228515625 110.1333465576172 115.1334228515625 117.60000610351563 115.1334228515625 117.60000610351563 " />
        <polyline stroke="black" stroke-width="3" stroke-linecap="round" fill="transparent" stroke-linejoin="round" points="93.80010986328124 97.33334350585938 114.06671142578124 87.73333740234375 124.7333984375 85.60000610351563 131.1334228515625 85.60000610351563 129 90.933349609375 120.466796875 97.33334350585938 111.93341064453124 102.66667175292967 106.60003662109376 105.86669921875 107.666748046875 105.86669921875 110.86669921875 104.8000030517578 122.60003662109376 100.53335571289063 129 98.40000915527344 134.3333740234375 97.33334350585938 135.4000244140625 98.40000915527344 135.4000244140625 102.66667175292967 135.4000244140625 102.66667175292967 " />
        <polyline stroke="black" stroke-width="3" stroke-linecap="round" fill="transparent" stroke-linejoin="round" points="41.53338623046875 194.40005493164065 65.00006103515625 179.4666748046875 82.06671142578125 169.86668395996094 123.666748046875 150.6666717529297 161 140.00001525878906 193 134.6666717529297 199.4000244140625 134.6666717529297 200.4666748046875 134.6666717529297 195.1334228515625 135.73338317871094 191.933349609375 135.73338317871094 191.933349609375 135.73338317871094 " />
        <polyline stroke="black" stroke-width="3" stroke-linecap="round" fill="transparent" stroke-linejoin="round" points="109.80010986328124 136.80001831054688 107.666748046875 192.2666931152344 108.7333984375 207.20001220703125 109.80010986328124 212.53335571289065 115.1334228515625 208.2666931152344 115.1334228515625 208.2666931152344 " />
        <polyline stroke="black" stroke-width="3" stroke-linecap="round" fill="transparent" stroke-linejoin="round" points="145 101.60000610351563 145 133.6000213623047 143.933349609375 159.20001220703125 143.933349609375 178.40003967285156 141.8001708984375 193.33334350585935 137.533447265625 201.86666870117188 137.533447265625 201.86666870117188 " />
        <polyline stroke="black" stroke-width="3" stroke-linecap="round" fill="transparent" stroke-linejoin="round" points="107.666748046875 210.40005493164065 145 196.53335571289065 155.666748046875 193.33334350585935 170.60009765625 191.20001220703125 178.0667724609375 191.20001220703125 178.0667724609375 191.20001220703125 " />
        </svg>