<?xml version="1.0" standalone="no"?>
    <svg width="256" height="256" xmlns="http://www.w3.org/2000/svg" version="1.1">
    <polyline stroke="black" stroke-width="3" stroke-linecap="round" fill="transparent" stroke-linejoin="round" points="35.073211669921875 96.37664794921876 45.399078369140625 93.14981079101563 60.24249267578125 88.63224792480469 76.37664794921875 84.11468505859375 91.86541748046876 78.306396484375 105.41812133789063 73.14346313476563 116.38934326171876 65.39907836914063 116.38934326171876 65.39907836914063 " />
        <polyline stroke="black" stroke-width="3" stroke-linecap="round" fill="transparent" stroke-linejoin="round" points="81.53955078125 71.20736694335938 78.312744140625 100.24884033203124 74.4405517578125 124.12738037109376 69.9229736328125 144.13372802734375 63.46929931640625 162.2039794921875 55.72491455078125 176.40203857421875 49.271270751953125 184.14642333984375 43.46295166015625 188.66400146484375 40.88153076171875 191.24545288085935 42.817626953125 191.24545288085935 49.271270751953125 187.37326049804688 63.46929931640625 178.338134765625 79.60345458984375 167.36691284179688 94.4468994140625 157.0410614013672 108.64495849609376 145.42446899414063 120.90692138671876 129.29031372070313 120.90692138671876 129.29031372070313 " />
        <polyline stroke="black" stroke-width="3" stroke-linecap="round" fill="transparent" stroke-linejoin="round" points="137.6864013671875 104.12103271484376 148.01226806640625 98.312744140625 160.27423095703125 90.56834411621094 172.53619384765625 80.88786315917969 183.5074462890625 72.49809265136719 189.9610595703125 67.98052978515625 193.1878662109375 64.75370788574219 192.54254150390625 64.75370788574219 187.379638671875 69.27127075195313 178.344482421875 80.24249267578125 166.08251953125 98.95811462402344 153.820556640625 122.83665466308594 141.55859375 146.71519470214844 131.87811279296875 168.0122833251953 124.13372802734376 184.14642333984375 117.6800537109375 193.82693481445313 112.51715087890624 201.57131958007813 108.64495849609376 206.7342529296875 106.7088623046875 209.31570434570313 110.5810546875 208.02496337890625 123.48837280273438 198.344482421875 140.91326904296875 181.56497192382813 155.111328125 167.36691284179688 167.373291015625 154.4595947265625 175.11767578125 144.7790985107422 179.63525390625 135.7439727783203 179.63525390625 127.99958801269533 179.63525390625 127.99958801269533 " />
        <polyline stroke="black" stroke-width="3" stroke-linecap="round" fill="transparent" stroke-linejoin="round" points="161.56494140625 108.63859558105467 169.309326171875 106.05712890625 177.0537109375 103.47567749023438 182.862060546875 102.83030700683594 186.7342529296875 103.47567749023438 188.67034912109375 111.22006225585938 186.7342529296875 136.38934326171875 185.4434814453125 162.84934997558594 185.4434814453125 181.56497192382813 188.67034912109375 196.40838623046875 193.833251953125 205.44351196289065 199.6416015625 211.89715576171875 206.09521484375 215.76937866210935 211.90350341796875 217.06008911132813 218.357177734375 215.76937866210935 222.874755859375 212.54254150390625 226.7469482421875 207.37960815429688 228.03765869140625 201.57131958007813 228.03765869140625 201.57131958007813 " />
        </svg>