<?xml version="1.0" standalone="no"?>
    <svg width="256" height="256" xmlns="http://www.w3.org/2000/svg" version="1.1">
    <polyline stroke="black" stroke-width="3" stroke-linecap="round" fill="transparent" stroke-linejoin="round" points="43.082275390625 102.23594665527344 55.25262451171875 100.13760375976563 61.96728515625 98.87858581542967 75.81625366210938 96.360595703125 88.825927734375 93.42294311523438 100.99627685546876 90.48527526855467 109.80926513671876 86.28860473632813 109.80926513671876 86.28860473632813 " />
        <polyline stroke="black" stroke-width="3" stroke-linecap="round" fill="transparent" stroke-linejoin="round" points="102.2552490234375 67.82327270507813 101.41595458984376 74.53794860839844 100.57659912109376 81.25260925292969 99.73724365234376 88.38693237304688 97.638916015625 104.7539520263672 96.37994384765624 112.7275848388672 93.8619384765625 129.51425170898438 89.665283203125 146.3009033203125 86.72760009765625 155.11392211914063 86.72760009765625 155.11392211914063 " />
        <polyline stroke="black" stroke-width="3" stroke-linecap="round" fill="transparent" stroke-linejoin="round" points="71.199951171875 178.195556640625 80.85226440429688 173.15957641601563 85.88827514648438 170.64157104492188 90.92425537109376 167.7039031982422 100.57659912109376 161.82858276367188 108.55026245117188 155.5335693359375 117.36325073242188 147.14024353027344 117.36325073242188 147.14024353027344 " />
        <polyline stroke="black" stroke-width="3" stroke-linecap="round" fill="transparent" stroke-linejoin="round" points="131.63192749023438 73.27894592285156 137.92694091796875 70.76094055175781 144.64157104492188 68.24295043945313 160.16925048828125 63.626617431640625 167.7232666015625 61.528289794921875 175.2772216796875 59.42994689941406 187.8671875 56.07261657714844 197.099853515625 53.55461883544922 202.9752197265625 51.875946044921875 204.2342529296875 51.45628356933594 204.2342529296875 51.45628356933594 " />
        <polyline stroke="black" stroke-width="3" stroke-linecap="round" fill="transparent" stroke-linejoin="round" points="176.1165771484375 75.37727355957031 171.500244140625 87.1279296875 163.52655029296875 109.78994750976563 160.5888671875 118.18325805664063 154.29388427734375 133.29124450683594 142.962890625 158.05157470703125 138.3465576171875 168.12356567382813 138.3465576171875 168.12356567382813 " />
        <polyline stroke="black" stroke-width="3" stroke-linecap="round" fill="transparent" stroke-linejoin="round" points="118.20257568359376 189.10690307617188 123.23858642578124 185.74957275390625 128.69427490234375 181.9725646972656 133.730224609375 178.195556640625 138.7662353515625 174.41856384277344 148.83822631835938 166.86456298828125 158.4906005859375 160.14990234375 166.4642333984375 153.43524169921875 172.339599609375 147.14024353027344 174.43792724609375 144.6222381591797 174.43792724609375 144.6222381591797 " />
        <polyline stroke="black" stroke-width="3" stroke-linecap="round" fill="transparent" stroke-linejoin="round" points="164.36590576171875 108.95059204101563 168.1429443359375 107.27194213867188 172.339599609375 105.173583984375 186.1885986328125 99.29826354980467 192.90325927734375 97.199951171875 195.0015869140625 96.7802734375 197.939208984375 96.360595703125 199.617919921875 98.03927612304688 199.617919921875 106.43260192871094 195.8409423828125 121.54058837890624 189.965576171875 140.00592041015625 184.5098876953125 157.21224975585938 181.152587890625 169.80223083496094 180.313232421875 178.615234375 182.41156005859375 185.74957275390625 184.0902099609375 188.68722534179688 192.48358154296875 195.82156372070313 200.45721435546875 198.75921630859375 209.68988037109375 199.59857177734375 218.50286865234375 198.33956909179688 222.2799072265625 197.08056640625 231.0928955078125 190.78558349609375 235.709228515625 184.0708923339844 239.4862060546875 174.83824157714844 240.3255615234375 169.382568359375 238.22723388671875 145.0419158935547 238.22723388671875 145.0419158935547 " />
        </svg>