<?xml version="1.0" standalone="no"?>
    <svg width="256" height="256" xmlns="http://www.w3.org/2000/svg" version="1.1">
    <polyline stroke="black" stroke-width="3" stroke-linecap="round" fill="transparent" stroke-linejoin="round" points="73 91 81 90 100 84 116 81 126 78 130 76 130 76 " />
        <polyline stroke="black" stroke-width="3" stroke-linecap="round" fill="transparent" stroke-linejoin="round" points="85 55 85 69 85 94 85 119 85 142 85 162 85 170 85 170 " />
        <polyline stroke="black" stroke-width="3" stroke-linecap="round" fill="transparent" stroke-linejoin="round" points="63 184 77 178 91 170 104 163 113 157 113 157 " />
        <polyline stroke="black" stroke-width="3" stroke-linecap="round" fill="transparent" stroke-linejoin="round" points="149 72 166 69 183 66 204 65 206 65 207 65 207 65 " />
        <polyline stroke="black" stroke-width="3" stroke-linecap="round" fill="transparent" stroke-linejoin="round" points="137 99 137 109 136 134 134 161 133 182 133 200 134 209 137 212 139 212 139 212 " />
        <polyline stroke="black" stroke-width="3" stroke-linecap="round" fill="transparent" stroke-linejoin="round" points="163 103 180 101 195 101 201 111 202 131 202 152 200 173 200 191 203 203 209 210 215 213 221 214 231 206 236 196 236 196 " />
        </svg>