<?xml version="1.0" standalone="no"?>
    <svg width="256" height="256" xmlns="http://www.w3.org/2000/svg" version="1.1">
    <polyline stroke="black" stroke-width="3" stroke-linecap="round" fill="transparent" stroke-linejoin="round" points="75.7783203125 74.05918884277344 82.93228149414063 88.10693359375 86.80844116210938 95.85920715332033 89.982177734375 101.42626953125 92.03729248046876 104.46995544433594 92.03729248046876 104.46995544433594 " />
        <polyline stroke="black" stroke-width="3" stroke-linecap="round" fill="transparent" stroke-linejoin="round" points="87.79696655273438 71.04150390625 100.59597778320313 66.38493347167969 114.85183715820313 60.81787109375 122.8642578125 58.060333251953125 131.16287231445313 55.40687561035156 137.95260620117188 53.741966247558594 143.28561401367188 52.62333679199219 147.9681396484375 51.89493560791016 152.13043212890625 51.582763671875 155.6944580078125 51.738861083984375 158.11376953125 52.44123077392578 159.8306884765625 53.065574645996094 161.0013427734375 53.793983459472656 162.74432373046875 55.927154541015625 161.7037353515625 61.3121337890625 160.1168212890625 66.775146484375 158.97222900390625 70.52120971679688 157.98370361328125 73.6689453125 156.6829833984375 77.96131896972656 153.2750244140625 82.69595336914063 151.974365234375 85.06324768066406 150.72567749023438 87.8468017578125 149.1907958984375 91.17662048339844 149.1907958984375 91.17662048339844 " />
        <polyline stroke="black" stroke-width="3" stroke-linecap="round" fill="transparent" stroke-linejoin="round" points="121.303466796875 63.471343994140625 120.184814453125 75.776123046875 120.49700927734376 86.59809875488281 121.45953369140624 96.9778289794922 121.45953369140624 96.9778289794922 " />
        <polyline stroke="black" stroke-width="3" stroke-linecap="round" fill="transparent" stroke-linejoin="round" points="92.37545776367188 100.41171264648438 108.47836303710938 96.09333801269533 128.4833984375 90.9425048828125 143.31158447265625 87.06634521484375 153.5352783203125 86.91026306152344 159.752685546875 88.05488586425781 159.752685546875 88.05488586425781 " />
        <polyline stroke="black" stroke-width="3" stroke-linecap="round" fill="transparent" stroke-linejoin="round" points="108.21823120117188 113.91316223144533 106.7093505859375 126.24398803710938 101.55853271484376 136.23348999023438 93.23394775390624 148.77239990234375 87.4847412109375 159.72445678710938 84.5711669921875 166.48817443847656 84.18093872070313 167.3726806640625 84.18093872070313 167.3726806640625 " />
        <polyline stroke="black" stroke-width="3" stroke-linecap="round" fill="transparent" stroke-linejoin="round" points="140.44998168945313 113.6530303955078 147.91610717773438 123.2523193359375 151.7142333984375 128.0909881591797 155.43426513671875 133.2158203125 159.70068359375 138.4967498779297 163.03045654296875 143.5435333251953 166.10015869140625 148.408203125 168.1812744140625 151.79006958007813 169.82025146484375 154.4695587158203 170.730712890625 156.00439453125 171.3291015625 157.12301635742188 172.1875 158.6058349609375 173.41015625 160.45285034179688 177.23431396484375 163.18435668945313 177.23431396484375 163.18435668945313 " />
        </svg>