<?xml version="1.0" standalone="no"?>
    <svg width="256" height="256" xmlns="http://www.w3.org/2000/svg" version="1.1">
    <polyline stroke="black" stroke-width="3" stroke-linecap="round" fill="transparent" stroke-linejoin="round" points="68.96649169921875 75.54048156738281 72.88836669921875 104.95443725585938 73.5419921875 108.22264099121094 76.15655517578125 128.48558044433594 76.81024169921875 131.7537841796875 78.11749267578125 134.36839294433594 80.07843017578125 130.44650268554688 80.73211669921875 128.48558044433594 80.73211669921875 128.48558044433594 " />
        <polyline stroke="black" stroke-width="3" stroke-linecap="round" fill="transparent" stroke-linejoin="round" points="79.42474365234375 101.68620300292967 88.5758056640625 84.03782653808594 90.53680419921876 82.73052978515625 106.22418212890624 73.57952880859375 108.8387451171875 72.92588806152344 122.56524658203124 69.00404357910156 130.408935546875 69.00404357910156 141.52093505859375 71.61859130859375 148.71099853515625 79.46232604980469 151.3255615234375 91.22789001464844 151.3255615234375 101.68620300292967 148.05731201171875 118.68092346191406 146.09637451171875 125.87100219726563 145.4427490234375 127.83195495605467 145.4427490234375 127.83195495605467 " />
        <polyline stroke="black" stroke-width="3" stroke-linecap="round" fill="transparent" stroke-linejoin="round" points="118.64337158203124 84.03782653808594 112.7606201171875 101.03254699707033 112.7606201171875 103.64712524414063 107.53143310546876 121.29551696777344 105.57049560546876 125.21734619140624 100.99505615234376 130.44650268554688 98.38043212890624 131.7537841796875 98.38043212890624 131.7537841796875 " />
        <polyline stroke="black" stroke-width="3" stroke-linecap="round" fill="transparent" stroke-linejoin="round" points="87.922119140625 129.79286193847656 103.609619140625 121.94914245605467 105.57049560546876 121.29551696777344 125.83343505859376 119.33456420898438 132.369873046875 119.33456420898438 144.78912353515625 119.98820495605467 153.2864990234375 123.25642395019533 153.94012451171875 123.91007995605467 153.94012451171875 123.91007995605467 " />
        <polyline stroke="black" stroke-width="3" stroke-linecap="round" fill="transparent" stroke-linejoin="round" points="95.11224365234376 135.02200317382813 80.07843017578125 155.9385986328125 79.42474365234375 158.5531768798828 73.5419921875 174.2406005859375 72.23468017578125 178.1624755859375 72.88836669921875 184.04525756835935 76.81024169921875 187.3134765625 76.81024169921875 187.3134765625 " />
        <polyline stroke="black" stroke-width="3" stroke-linecap="round" fill="transparent" stroke-linejoin="round" points="120.60430908203124 131.10015869140625 136.291748046875 139.59751892089844 138.252685546875 141.55845642089844 153.94012451171875 167.050537109375 155.90106201171875 171.6260223388672 165.05206298828125 191.23532104492188 176.817626953125 210.8446350097656 176.817626953125 210.8446350097656 " />
        </svg>