<?xml version="1.0" standalone="no"?>
    <svg width="256" height="256" xmlns="http://www.w3.org/2000/svg" version="1.1">
    <polyline stroke="black" stroke-width="3" stroke-linecap="round" fill="transparent" stroke-linejoin="round" points="52 66 54 74 56 82 59 91 62 97 62 97 " />
        <polyline stroke="black" stroke-width="3" stroke-linecap="round" fill="transparent" stroke-linejoin="round" points="57 64 62 62 67 60 81 56 96 54 107 54 114 55 114 61 111 72 100 85 92 95 92 95 " />
        <polyline stroke="black" stroke-width="3" stroke-linecap="round" fill="transparent" stroke-linejoin="round" points="64 98 73 98 82 98 89 98 89 98 " />
        <polyline stroke="black" stroke-width="3" stroke-linecap="round" fill="transparent" stroke-linejoin="round" points="55 146 55 151 55 156 57 172 61 179 63 181 65 181 65 181 " />
        <polyline stroke="black" stroke-width="3" stroke-linecap="round" fill="transparent" stroke-linejoin="round" points="51 132 62 130 73 128 85 127 97 127 106 132 112 140 114 150 114 153 114 153 " />
        <polyline stroke="black" stroke-width="3" stroke-linecap="round" fill="transparent" stroke-linejoin="round" points="56 185 68 180 80 175 92 172 103 168 112 161 112 161 " />
        <polyline stroke="black" stroke-width="3" stroke-linecap="round" fill="transparent" stroke-linejoin="round" points="92 5 92 11 92 17 92 29 92 45 90 69 89 84 88 116 88 150 88 180 88 203 90 219 90 224 90 224 " />
        <polyline stroke="black" stroke-width="3" stroke-linecap="round" fill="transparent" stroke-linejoin="round" points="154 62 159 62 164 62 190 60 199 59 199 59 " />
        <polyline stroke="black" stroke-width="3" stroke-linecap="round" fill="transparent" stroke-linejoin="round" points="196 42 190 49 184 56 176 68 166 85 161 94 154 110 148 118 148 118 " />
        <polyline stroke="black" stroke-width="3" stroke-linecap="round" fill="transparent" stroke-linejoin="round" points="166 87 173 89 180 91 187 96 195 102 203 110 204 114 204 114 " />
        <polyline stroke="black" stroke-width="3" stroke-linecap="round" fill="transparent" stroke-linejoin="round" points="134 162 143 162 152 162 164 162 179 161 190 158 194 157 194 157 " />
        <polyline stroke="black" stroke-width="3" stroke-linecap="round" fill="transparent" stroke-linejoin="round" points="180 131 172 142 164 153 157 170 150 190 145 206 142 218 141 223 141 223 " />
        <polyline stroke="black" stroke-width="3" stroke-linecap="round" fill="transparent" stroke-linejoin="round" points="170 175 183 189 196 203 204 210 204 210 " />
        </svg>