<?xml version="1.0" standalone="no"?>
    <svg width="256" height="256" xmlns="http://www.w3.org/2000/svg" version="1.1">
    <polyline stroke="black" stroke-width="3" stroke-linecap="round" fill="transparent" stroke-linejoin="round" points="131.52301025390625 57.354888916015625 125.582763671875 62.30506896972656 94.8916015625 80.45576477050781 90.60150146484376 82.76583862304688 81.36111450195313 89.3660888671875 77.07095336914063 93.98626708984376 73.11080932617188 100.91651916503906 69.81069946289063 121.70730590820313 67.50057983398438 152.0684356689453 63.8704833984375 186.38970947265625 60.57037353515625 213.1207275390625 59.250274658203125 225.33120727539065 60.240325927734375 230.2813720703125 60.240325927734375 230.2813720703125 60.240325927734375 230.2813720703125 " />
        <polyline stroke="black" stroke-width="3" stroke-linecap="round" fill="transparent" stroke-linejoin="round" points="103.80194091796876 145.13818359375 104.13198852539063 151.73841857910156 106.112060546875 176.48934936523438 106.112060546875 180.44949340820313 105.4520263671875 189.02984619140625 105.4520263671875 189.02984619140625 105.4520263671875 189.02984619140625 " />
        <polyline stroke="black" stroke-width="3" stroke-linecap="round" fill="transparent" stroke-linejoin="round" points="119.642578125 121.37728881835938 150.66372680664063 105.86669921875 155.6138916015625 106.5267333984375 168.1544189453125 111.47691345214844 177.39471435546875 121.37728881835938 183.3349609375 138.53793334960938 185.31500244140625 161.30877685546875 182.6749267578125 184.40966796875 174.754638671875 201.24029541015625 161.8841552734375 210.48062133789065 156.27392578125 212.46072387695313 156.27392578125 212.46072387695313 " />
        <polyline stroke="black" stroke-width="3" stroke-linecap="round" fill="transparent" stroke-linejoin="round" points="117.99252319335938 164.2789306640625 124.26275634765624 162.9588623046875 152.97381591796875 161.30877685546875 157.593994140625 161.30877685546875 167.16436767578125 163.618896484375 170.79449462890625 166.25900268554688 170.79449462890625 166.25900268554688 170.79449462890625 166.25900268554688 " />
        <polyline stroke="black" stroke-width="3" stroke-linecap="round" fill="transparent" stroke-linejoin="round" points="141.42340087890625 199.5902404785156 163.5341796875 199.92025756835935 163.5341796875 199.92025756835935 " />
        </svg>