<?xml version="1.0" standalone="no"?>
    <svg width="256" height="256" xmlns="http://www.w3.org/2000/svg" version="1.1">
    <polyline stroke="black" stroke-width="3" stroke-linecap="round" fill="transparent" stroke-linejoin="round" points="149.65911865234375 44.45482635498047 141.38650512695313 49.65769958496094 131.813232421875 55.45890808105469 122.65618896484376 61.72837829589844 111.44400024414063 67.81571960449219 95.67929077148438 77.72718811035156 90.6064453125 80.66682434082031 87.82293701171875 82.1756591796875 87.82293701171875 82.1756591796875 " />
        <polyline stroke="black" stroke-width="3" stroke-linecap="round" fill="transparent" stroke-linejoin="round" points="94.638671875 85.63555908203125 94.82086181640624 96.9778289794922 91.80319213867188 112.6384735107422 88.70745849609375 130.9785919189453 83.68667602539063 147.4456787109375 77.75537109375 164.25094604492188 68.702392578125 176.21755981445313 62.302886962890625 183.8397521972656 61.054168701171875 184.9063415527344 61.054168701171875 184.9063415527344 " />
        <polyline stroke="black" stroke-width="3" stroke-linecap="round" fill="transparent" stroke-linejoin="round" points="108.45233154296876 124.86521911621094 107.25570678710938 135.9733428955078 104.21200561523438 150.3853302001953 100.43991088867188 162.429931640625 98.74896240234376 169.03762817382813 98.28073120117188 170.9366455078125 98.22869873046876 172.34140014648438 100.07574462890624 171.430908203125 100.85614013671876 169.7659912109375 100.85614013671876 169.7659912109375 " />
        <polyline stroke="black" stroke-width="3" stroke-linecap="round" fill="transparent" stroke-linejoin="round" points="123.33258056640624 104.70408630371094 136.8079833984375 101.29621887207033 146.51132202148438 98.64274597167967 154.08154296875 97.49810791015624 157.15118408203125 97.3680419921875 159.70068359375 97.70622253417967 162.14599609375 99.8654327392578 160.27294921875 110.34919738769533 156.1627197265625 125.56761169433594 155.252197265625 137.4561767578125 152.9888916015625 150.1251678466797 153.04095458984375 160.5048828125 152.3385009765625 167.5027313232422 153.04095458984375 172.86170959472656 152.9368896484375 175.8533935546875 152.910888671875 175.8533935546875 152.910888671875 175.8533935546875 " />
        <polyline stroke="black" stroke-width="3" stroke-linecap="round" fill="transparent" stroke-linejoin="round" points="125.0234375 138.65283203125 136.62591552734375 138.78289794921875 143.23358154296875 139.66737365722656 146.719482421875 141.07215881347656 145.88699340820313 142.6070098876953 145.88699340820313 142.6070098876953 " />
        <polyline stroke="black" stroke-width="3" stroke-linecap="round" fill="transparent" stroke-linejoin="round" points="111.23590087890624 176.81588745117188 135.09100341796875 176.60775756835938 148.82662963867188 176.0354461669922 161.9638671875 175.697265625 161.9638671875 175.697265625 " />
        </svg>