<?xml version="1.0" standalone="no"?>
    <svg width="256" height="256" xmlns="http://www.w3.org/2000/svg" version="1.1">
    <polyline stroke="black" stroke-width="3" stroke-linecap="round" fill="transparent" stroke-linejoin="round" points="108.98504638671876 63.12123107910156 105.71685791015624 65.08216857910156 84.80029296875 77.50138854980469 82.83935546875 78.80870056152344 78.26385498046875 82.076904296875 75.6492919921875 87.30604553222656 74.99566650390625 95.1497802734375 74.99566650390625 106.9153289794922 75.6492919921875 123.91007995605467 74.99566650390625 148.74851989746094 74.34197998046875 165.7432403564453 73.03466796875 180.1234130859375 71.07379150390625 191.23532104492188 70.42010498046875 196.46450805664065 72.38104248046875 199.73272705078125 73.03466796875 199.07907104492188 73.03466796875 199.07907104492188 " />
        <polyline stroke="black" stroke-width="3" stroke-linecap="round" fill="transparent" stroke-linejoin="round" points="107.6778564453125 144.82666015625 108.98504638671876 152.6703643798828 111.59967041015624 172.93333435058594 112.2532958984375 178.8161163330078 112.2532958984375 181.43069458007813 112.90692138671876 174.8942413330078 112.90692138671876 169.6651153564453 112.90692138671876 169.6651153564453 " />
        <polyline stroke="black" stroke-width="3" stroke-linecap="round" fill="transparent" stroke-linejoin="round" points="111.59967041015624 125.87100219726563 112.90692138671876 125.21734619140624 127.287109375 122.602783203125 145.589111328125 123.91007995605467 147.550048828125 124.56373596191406 156.04742431640625 127.17828369140624 163.89111328125 135.02200317382813 164.5447998046875 146.13394165039063 161.27655029296875 159.20681762695313 152.77923583984375 174.8942413330078 147.550048828125 182.7379608154297 142.97454833984375 189.2744140625 142.97454833984375 189.2744140625 " />
        <polyline stroke="black" stroke-width="3" stroke-linecap="round" fill="transparent" stroke-linejoin="round" points="133.16986083984375 159.86045837402344 134.4771728515625 159.86045837402344 142.3209228515625 161.82139587402344 142.97454833984375 162.4750213623047 144.93548583984375 165.089599609375 145.589111328125 169.6651153564453 145.589111328125 173.5869903564453 145.589111328125 173.5869903564453 " />
        <polyline stroke="black" stroke-width="3" stroke-linecap="round" fill="transparent" stroke-linejoin="round" points="145.589111328125 201.69363403320313 163.89111328125 206.92279052734375 163.89111328125 206.92279052734375 " />
        </svg>