<?xml version="1.0" standalone="no"?>
    <svg width="256" height="256" xmlns="http://www.w3.org/2000/svg" version="1.1">
    <polyline stroke="black" stroke-width="3" stroke-linecap="round" fill="transparent" stroke-linejoin="round" points="134.77362060546875 54.15093994140625 96.73577880859376 74.07546997070313 87.67926025390625 78.60379028320313 65.0377197265625 87.66035461425781 65.0377197265625 87.66035461425781 " />
        <polyline stroke="black" stroke-width="3" stroke-linecap="round" fill="transparent" stroke-linejoin="round" points="74.0943603515625 105.77359008789063 69.5660400390625 156.49057006835938 61.41510009765625 205.396240234375 51.4527587890625 232.5660095214844 49.64154052734375 235.28302001953125 46.018798828125 236.18869018554688 44.20758056640625 231.66036987304688 44.20758056640625 231.66036987304688 " />
        <polyline stroke="black" stroke-width="3" stroke-linecap="round" fill="transparent" stroke-linejoin="round" points="83.15087890625 162.8302001953125 95.8302001953125 205.396240234375 99.4527587890625 215.3584899902344 99.4527587890625 213.54718017578125 99.4527587890625 211.73583984375 99.4527587890625 211.73583984375 " />
        <polyline stroke="black" stroke-width="3" stroke-linecap="round" fill="transparent" stroke-linejoin="round" points="119.37738037109376 113.01885986328124 158.32073974609375 92.18869018554688 164.660400390625 89.47171020507813 174.6226806640625 85.84906005859375 180.9622802734375 84.94337463378906 184.5848388671875 89.47171020507813 186.396240234375 102.15093994140624 185.4906005859375 130.2263946533203 183.67926025390625 150.15093994140625 180.9622802734375 167.3584747314453 174.6226806640625 185.47171020507813 169.188720703125 192.71697998046875 164.660400390625 195.4339599609375 159.2264404296875 195.4339599609375 156.50946044921875 193.6226501464844 156.50946044921875 193.6226501464844 " />
        <polyline stroke="black" stroke-width="3" stroke-linecap="round" fill="transparent" stroke-linejoin="round" points="112.132080078125 154.67926025390625 140.20758056640625 141.09432983398438 144.73577880859375 138.37734985351563 151.07550048828125 134.75473022460938 152.88677978515625 133.84906005859375 152.88677978515625 133.84906005859375 " />
        <polyline stroke="black" stroke-width="3" stroke-linecap="round" fill="transparent" stroke-linejoin="round" points="146.54718017578125 196.33963012695313 158.32073974609375 194.5283203125 158.32073974609375 194.5283203125 " />
        </svg>