<?xml version="1.0" standalone="no"?>
    <svg width="256" height="256" xmlns="http://www.w3.org/2000/svg" version="1.1">
    <polyline stroke="black" stroke-width="3" stroke-linecap="round" fill="transparent" stroke-linejoin="round" points="102 63 102 63 102 64 103 65 104 66 105 68 105 70 106 75 106 78 107 82 107 84 107 87 107 88 107 89 " />
        <polyline stroke="black" stroke-width="3" stroke-linecap="round" fill="transparent" stroke-linejoin="round" points="111 68 111 68 114 66 117 64 121 63 125 61 129 60 133 59 140 58 144 57 147 57 149 57 151 57 152 57 153 59 152 63 150 69 147 76 142 84 136 92 133 95 129 98 " />
        <polyline stroke="black" stroke-width="3" stroke-linecap="round" fill="transparent" stroke-linejoin="round" points="72 106 72 106 72 104 73 103 75 101 77 100 80 99 84 97 89 96 94 95 99 94 109 93 117 93 125 93 134 93 144 93 153 92 163 92 172 90 180 89 191 88 196 87 199 88 201 89 201 90 " />
        <polyline stroke="black" stroke-width="3" stroke-linecap="round" fill="transparent" stroke-linejoin="round" points="94 145 94 145 92 144 92 144 93 142 94 141 96 140 98 139 101 137 105 136 110 134 115 133 121 132 131 130 139 129 147 128 155 126 163 125 169 124 175 124 178 124 179 126 179 127 " />
        <polyline stroke="black" stroke-width="3" stroke-linecap="round" fill="transparent" stroke-linejoin="round" points="101 147 101 147 101 147 101 147 101 147 102 148 103 149 104 151 104 152 105 154 106 157 107 159 108 162 109 167 110 168 111 171 113 172 113 172 114 172 " />
        <polyline stroke="black" stroke-width="3" stroke-linecap="round" fill="transparent" stroke-linejoin="round" points="125 149 125 149 126 150 128 151 129 152 130 153 131 154 133 156 134 157 136 159 137 160 140 160 141 160 142 160 " />
        <polyline stroke="black" stroke-width="3" stroke-linecap="round" fill="transparent" stroke-linejoin="round" points="161 139 161 138 161 139 159 142 157 146 153 151 150 154 144 160 137 166 129 173 125 176 " />
        <polyline stroke="black" stroke-width="3" stroke-linecap="round" fill="transparent" stroke-linejoin="round" points="82 195 82 195 80 195 79 196 79 195 81 194 83 192 87 190 91 188 95 186 100 183 106 181 113 180 124 177 133 176 141 176 150 175 158 175 167 176 175 176 183 177 186 178 " />
        </svg>