<?xml version="1.0" standalone="no"?>
    <svg width="256" height="256" xmlns="http://www.w3.org/2000/svg" version="1.1">
    <polyline stroke="black" stroke-width="3" stroke-linecap="round" fill="transparent" stroke-linejoin="round" points="75.4208984375 41.84430694580078 77.73101806640625 51.08466339111328 81.691162109375 68.90533447265625 83.3411865234375 76.82562255859375 81.36111450195313 71.87544250488281 93.2415771484375 47.78453063964844 97.20172119140624 44.154388427734375 110.73220825195313 34.91404724121094 127.5628662109375 28.643814086914063 141.75338745117188 24.35365295410156 151.9837646484375 24.68366241455078 157.92401123046875 28.643814086914063 160.89410400390625 34.91404724121094 157.26397705078125 48.774559020996094 143.07342529296875 66.59524536132813 126.90283203125 78.14566040039063 108.09213256835938 88.04603576660156 108.09213256835938 88.04603576660156 " />
        <polyline stroke="black" stroke-width="3" stroke-linecap="round" fill="transparent" stroke-linejoin="round" points="50.00994873046875 109.8268585205078 62.22039794921875 104.21664428710938 107.10211181640624 89.69610595703125 158.583984375 78.80569458007813 166.8343505859375 77.81565856933594 183.99493408203125 76.49562072753906 190.59521484375 77.1556396484375 190.92529296875 78.14566040039063 190.92529296875 78.14566040039063 190.92529296875 78.14566040039063 " />
        <polyline stroke="black" stroke-width="3" stroke-linecap="round" fill="transparent" stroke-linejoin="round" points="73.7708740234375 134.57777404785156 85.65130615234375 132.5977020263672 119.642578125 125.00741577148438 149.013671875 119.72723388671876 160.23406982421875 117.74714660644533 173.4345703125 114.7770538330078 178.384765625 114.11701965332033 179.04473876953125 114.447021484375 179.04473876953125 114.447021484375 " />
        <polyline stroke="black" stroke-width="3" stroke-linecap="round" fill="transparent" stroke-linejoin="round" points="100.50189208984376 137.2178955078125 103.14193725585938 148.4383087158203 108.42214965820313 164.2789306640625 109.08218383789063 165.928955078125 110.73220825195313 167.9090576171875 111.39224243164063 168.56906127929688 111.39224243164063 168.56906127929688 " />
        <polyline stroke="black" stroke-width="3" stroke-linecap="round" fill="transparent" stroke-linejoin="round" points="124.92279052734376 143.15809631347656 131.19302368164063 149.09832763671875 142.0833740234375 155.69857788085938 144.7235107421875 156.02859497070313 154.62384033203125 153.71849060058594 171.45452880859375 139.52796936035156 177.7247314453125 135.56781005859375 180.36480712890625 135.56781005859375 181.3548583984375 136.88787841796875 177.7247314453125 143.15809631347656 164.19427490234375 158.9987030029297 138.78329467773438 181.4395446777344 111.39224243164063 202.56036376953125 90.27145385742188 215.76080322265625 79.05105590820313 220.05099487304688 75.09091186523438 220.05099487304688 73.44085693359375 218.73095703125 78.06100463867188 215.76080322265625 92.58154296875 208.50054931640625 111.72225952148438 202.89035034179688 133.17303466796875 195.63006591796875 156.9339599609375 189.02984619140625 178.384765625 186.05972290039065 193.2353515625 186.38970947265625 200.82562255859375 188.36978149414065 200.82562255859375 188.36978149414065 200.82562255859375 188.36978149414065 " />
        </svg>