<?xml version="1.0" standalone="no"?>
    <svg width="256" height="256" xmlns="http://www.w3.org/2000/svg" version="1.1">
    <polyline stroke="black" stroke-width="3" stroke-linecap="round" fill="transparent" stroke-linejoin="round" points="51.428863525390625 74.60546875 57.516265869140625 86.936279296875 62.901214599609375 95.6771240234375 65.91888427734375 100.02149963378906 68.52029418945313 101.84249877929688 79.03012084960938 98.46063232421876 79.03012084960938 98.46063232421876 " />
        <polyline stroke="black" stroke-width="3" stroke-linecap="round" fill="transparent" stroke-linejoin="round" points="93.25994873046876 50.8543701171875 102.91128540039063 50.334075927734375 104.91439819335938 50.230018615722656 106.31918334960938 50.17799377441406 108.556396484375 52.72740173339844 107.3597412109375 62.300689697265625 101.4544677734375 75.33387756347656 92.03729248046876 90.21408081054688 92.03729248046876 90.21408081054688 " />
        <polyline stroke="black" stroke-width="3" stroke-linecap="round" fill="transparent" stroke-linejoin="round" points="58.556793212890625 118.77786254882813 71.48593139648438 109.80290222167967 87.35467529296875 101.7904815673828 103.14544677734376 95.703125 108.53036499023438 94.61051940917967 108.53036499023438 94.61051940917967 " />
        <polyline stroke="black" stroke-width="3" stroke-linecap="round" fill="transparent" stroke-linejoin="round" points="83.97283935546875 44.68895721435547 85.63775634765625 56.44744873046875 85.9759521484375 73.04460144042969 84.51913452148438 96.3534698486328 81.033203125 121.821533203125 76.58474731445313 143.6475830078125 70.44537353515625 161.9877166748047 66.15298461914063 171.32688903808594 65.52865600585938 172.49749755859375 65.52865600585938 172.49749755859375 " />
        <polyline stroke="black" stroke-width="3" stroke-linecap="round" fill="transparent" stroke-linejoin="round" points="86.05398559570313 113.54899597167967 97.96859741210938 123.14826965332033 107.619873046875 131.4989013671875 112.588623046875 136.8838653564453 113.47311401367188 137.8203582763672 113.8372802734375 138.23660278320313 114.30560302734376 138.6788330078125 114.30560302734376 138.6788330078125 " />
        <polyline stroke="black" stroke-width="3" stroke-linecap="round" fill="transparent" stroke-linejoin="round" points="136.781982421875 60.27156066894531 148.228271484375 53.42979431152344 155.486328125 48.95531463623047 157.09918212890625 47.966766357421875 157.30731201171875 47.836692810058594 157.98370361328125 47.65460205078125 158.73809814453125 47.91474151611328 157.56744384765625 50.54218292236328 155.7984619140625 55.14674377441406 153.56121826171875 61.858428955078125 150.69967651367188 69.16848754882813 148.48843383789063 76.60858154296875 146.40728759765625 84.41290283203125 143.25955200195313 91.87899780273438 139.877685546875 98.64274597167967 136.05355834960938 103.7155303955078 133.19198608398438 107.77377319335938 133.19198608398438 107.77377319335938 " />
        <polyline stroke="black" stroke-width="3" stroke-linecap="round" fill="transparent" stroke-linejoin="round" points="131.5791015625 81.75941467285156 143.623779296875 84.49092102050781 154.62786865234375 87.50860595703125 160.7152099609375 90.18807983398438 162.6142578125 93.3358154296875 160.455078125 98.87687683105467 160.455078125 98.87687683105467 " />
        <polyline stroke="black" stroke-width="3" stroke-linecap="round" fill="transparent" stroke-linejoin="round" points="122.96832275390624 127.77883911132813 134.51873779296875 116.20242309570313 151.0118408203125 104.8081512451172 167.11474609375 95.000732421875 174.45074462890625 90.89045715332033 175.6734619140625 90.1620635986328 177.3643798828125 89.277587890625 177.78057861328125 89.48567199707031 176.47991943359375 91.72291564941406 169.50799560546875 101.89453125 157.9056396484375 121.353271484375 147.0316162109375 143.93373107910156 137.22427368164063 165.2655487060547 127.10464477539063 183.2154235839844 120.54901123046876 193.62115478515625 118.59793090820313 194.0633850097656 118.59793090820313 194.0633850097656 " />
        <polyline stroke="black" stroke-width="3" stroke-linecap="round" fill="transparent" stroke-linejoin="round" points="138.55096435546875 131.81103515625 149.216796875 134.4645233154297 153.06695556640625 138.2886199951172 154.34161376953125 148.0960693359375 155.3302001953125 162.35189819335938 158.8681640625 175.0989227294922 165.16363525390625 187.06558227539065 172.91595458984375 194.921875 179.78369140625 199.1622314453125 192.9990234375 198.4078063964844 206.83868408203125 190.16128540039065 215.50146484375 179.31326293945313 219.89788818359375 171.71707153320313 221.8228759765625 166.2020263671875 214.3568115234375 158.2156219482422 214.3568115234375 158.2156219482422 " />
        <polyline stroke="black" stroke-width="3" stroke-linecap="round" fill="transparent" stroke-linejoin="round" points="174.9710693359375 132.66952514648438 183.47772216796875 136.57167053222656 183.47772216796875 136.57167053222656 " />
        </svg>