<?xml version="1.0" standalone="no"?>
    <svg width="256" height="256" xmlns="http://www.w3.org/2000/svg" version="1.1">
    <polyline stroke="black" stroke-width="3" stroke-linecap="round" fill="transparent" stroke-linejoin="round" points="99.77709960937499 70.74246215820313 101.48861694335938 73.13859558105469 103.20013427734376 75.53472900390625 109.01937866210938 79.30014038085938 109.01937866210938 79.30014038085938 " />
        <polyline stroke="black" stroke-width="3" stroke-linecap="round" fill="transparent" stroke-linejoin="round" points="171.66168212890625 38.22314453125 161.0501708984375 51.57317352294922 150.43865966796875 64.92320251464844 109.01937866210938 118.32322692871094 79.23858642578125 156.31942749023438 59.727020263671875 181.3079071044922 51.85394287109375 190.55023193359375 51.85394287109375 190.55023193359375 " />
        <polyline stroke="black" stroke-width="3" stroke-linecap="round" fill="transparent" stroke-linejoin="round" points="114.15396118164063 124.14248657226563 111.7578125 139.2040252685547 109.36166381835938 154.26556396484375 108.33477783203124 162.48095703125 107.992431640625 178.9117431640625 109.36166381835938 192.6040954589844 111.7578125 202.18869018554688 114.49630737304688 208.0079345703125 116.8924560546875 210.06179809570313 122.711669921875 206.98101806640625 128.87322998046875 198.08099365234375 128.87322998046875 198.08099365234375 " />
        <polyline stroke="black" stroke-width="3" stroke-linecap="round" fill="transparent" stroke-linejoin="round" points="144.27716064453125 115.24246215820311 145.30404663085938 121.06169128417967 146.3309326171875 126.88092041015624 147.70016479492188 133.04248046875 153.5194091796875 147.76171875 162.76171875 164.1925048828125 173.715576171875 182.33482360839844 184.3271484375 200.13482666015625 193.2271728515625 213.8271484375 193.2271728515625 213.8271484375 " />
        </svg>