<?xml version="1.0" standalone="no"?>
    <svg width="256" height="256" xmlns="http://www.w3.org/2000/svg" version="1.1">
    <polyline stroke="black" stroke-width="3" stroke-linecap="round" fill="transparent" stroke-linejoin="round" points="83.15673828125 52.86151123046875 85.9853515625 60.94316101074219 88.81396484375 69.02481079101563 91.64254760742188 77.51054382324219 94.0670166015625 85.1881103515625 98.511962890625 97.3105926513672 102.148681640625 102.96775817871094 104.16912841796876 104.17999267578124 104.16912841796876 104.17999267578124 " />
        <polyline stroke="black" stroke-width="3" stroke-linecap="round" fill="transparent" stroke-linejoin="round" points="170.43853759765625 36.698211669921875 138.920166015625 73.87380981445313 107.40179443359376 111.04940795898438 80.32821655273438 142.56784057617188 60.124114990234375 167.21685791015625 47.193450927734375 184.1883544921875 43.15264892578125 190.24957275390625 43.15264892578125 190.24957275390625 " />
        <polyline stroke="black" stroke-width="3" stroke-linecap="round" fill="transparent" stroke-linejoin="round" points="108.614013671875 135.29437255859375 108.614013671875 141.75967407226563 108.614013671875 148.2249755859375 108.614013671875 154.28622436523438 109.01806640625 159.53929138183594 109.82626342773438 169.641357421875 110.63446044921876 177.31893920898438 111.44256591796876 182.5720062255859 112.250732421875 186.208740234375 113.46298217773438 188.22915649414065 115.4833984375 189.03732299804688 119.92831420898438 187.8250732421875 128.00994873046875 180.1475067138672 136.49569702148438 168.0250244140625 140.53656005859375 161.15562438964844 140.53656005859375 161.15562438964844 " />
        <polyline stroke="black" stroke-width="3" stroke-linecap="round" fill="transparent" stroke-linejoin="round" points="151.850830078125 119.13107299804688 155.89166259765625 127.61679077148438 159.9324951171875 136.10250854492188 163.97332763671875 144.58824157714844 175.28759765625 167.21685791015625 184.985595703125 186.208740234375 189.02642822265625 194.69448852539065 193.47137451171875 202.3720703125 193.47137451171875 202.3720703125 " />
        </svg>