<?xml version="1.0" standalone="no"?>
    <svg width="256" height="256" xmlns="http://www.w3.org/2000/svg" version="1.1">
    <polyline stroke="black" stroke-width="3" stroke-linecap="round" fill="transparent" stroke-linejoin="round" points="90.807373046875 63.48048400878906 96.177001953125 75.45895385742188 99.89447021484376 82.48080444335938 101.959716796875 85.37216186523438 104.02499389648438 87.85044860839844 107.742431640625 91.56790161132813 111.45989990234376 93.63314819335938 111.45989990234376 93.63314819335938 " />
        <polyline stroke="black" stroke-width="3" stroke-linecap="round" fill="transparent" stroke-linejoin="round" points="169.699951171875 23.827659606933594 151.5257568359375 60.17608642578125 138.72119140625 82.48080444335938 94.52484130859376 148.98190307617188 65.1982421875 180.78677368164065 51.154541015625 191.52606201171875 44.1326904296875 194.00436401367188 44.1326904296875 194.00436401367188 " />
        <polyline stroke="black" stroke-width="3" stroke-linecap="round" fill="transparent" stroke-linejoin="round" points="108.15548706054688 127.09024047851563 109.39462280273438 153.93850708007813 109.80770874023438 175.00405883789063 110.220703125 184.0911865234375 111.45989990234376 196.482666015625 113.525146484375 204.74368286132813 114.35125732421876 206.80892944335935 117.24261474609376 208.048095703125 127.98190307617188 198.96096801757813 139.96038818359375 182.43896484375 152.764892578125 159.3081512451172 152.764892578125 159.3081512451172 " />
        <polyline stroke="black" stroke-width="3" stroke-linecap="round" fill="transparent" stroke-linejoin="round" points="133.3515625 109.74211120605467 154.00408935546875 150.63409423828125 167.63470458984375 170.4604949951172 175.06964111328125 179.96066284179688 194.89605712890625 202.265380859375 207.70062255859375 216.72213745117188 213.8963623046875 224.15704345703125 213.8963623046875 224.15704345703125 " />
        </svg>