<?xml version="1.0" standalone="no"?>
    <svg width="256" height="256" xmlns="http://www.w3.org/2000/svg" version="1.1">
    <polyline stroke="black" stroke-width="3" stroke-linecap="round" fill="transparent" stroke-linejoin="round" points="69.18511962890625 78.24911499023438 75.88406372070313 94.6920166015625 80.75604248046875 104.43595886230467 90.49996948242188 113.57090759277344 90.49996948242188 113.57090759277344 " />
        <polyline stroke="black" stroke-width="3" stroke-linecap="round" fill="transparent" stroke-linejoin="round" points="161.1435546875 53.889251708984375 156.880615234375 66.06918334960938 134.34771728515625 107.48094177246094 112.423828125 141.58474731445313 91.10897827148438 168.9895782470703 75.88406372070313 187.25949096679688 61.87713623046875 201.26638793945313 49.08819580078125 211.0103454589844 49.08819580078125 211.0103454589844 " />
        <polyline stroke="black" stroke-width="3" stroke-linecap="round" fill="transparent" stroke-linejoin="round" points="109.37884521484376 133.0587921142578 108.76986694335938 148.28370666503906 106.3338623046875 162.29061889648438 105.11590576171876 181.77850341796875 105.11590576171876 201.26638793945313 107.5518798828125 218.31829833984375 111.81484985351563 229.88922119140625 115.46881103515624 235.97918701171875 122.16778564453124 235.97918701171875 134.34771728515625 223.19027709960935 156.2716064453125 187.25949096679688 169.060546875 154.37367248535156 172.10546875 144.62973022460938 173.9324951171875 137.93077087402344 173.9324951171875 137.93077087402344 " />
        <polyline stroke="black" stroke-width="3" stroke-linecap="round" fill="transparent" stroke-linejoin="round" points="161.7525634765625 136.10377502441406 165.40655517578125 151.93768310546875 171.4964599609375 167.77159118652344 181.8494873046875 190.9134521484375 192.202392578125 209.183349609375 203.164306640625 226.84423828125 212.90826416015625 242.06915283203125 212.90826416015625 242.06915283203125 " />
        </svg>