<?xml version="1.0" standalone="no"?>
    <svg width="256" height="256" xmlns="http://www.w3.org/2000/svg" version="1.1">
    <polyline stroke="black" stroke-width="3" stroke-linecap="round" fill="transparent" stroke-linejoin="round" points="90 53 92 56 94 59 104 69 113 77 113 77 " />
        <polyline stroke="black" stroke-width="3" stroke-linecap="round" fill="transparent" stroke-linejoin="round" points="172 31 163 42 154 53 137 71 117 91 92 115 73 136 61 146 56 150 56 150 " />
        <polyline stroke="black" stroke-width="3" stroke-linecap="round" fill="transparent" stroke-linejoin="round" points="107 114 106 130 105 146 103 160 102 171 102 179 102 181 102 182 103 182 109 182 128 170 152 151 162 142 162 142 " />
        <polyline stroke="black" stroke-width="3" stroke-linecap="round" fill="transparent" stroke-linejoin="round" points="163 100 166 104 169 108 178 120 184 134 192 147 197 158 201 166 204 172 208 180 208 180 " />
        </svg>