<?xml version="1.0" standalone="no"?>
    <svg width="256" height="256" xmlns="http://www.w3.org/2000/svg" version="1.1">
    <polyline stroke="black" stroke-width="3" stroke-linecap="round" fill="transparent" stroke-linejoin="round" points="64 65 71 56 79 60 89 77 95 96 95 96 " />
        <polyline stroke="black" stroke-width="3" stroke-linecap="round" fill="transparent" stroke-linejoin="round" points="137 53 136 59 135 67 123 90 99 120 72 151 50 178 35 194 31 199 31 199 " />
        <polyline stroke="black" stroke-width="3" stroke-linecap="round" fill="transparent" stroke-linejoin="round" points="94 130 96 145 96 165 98 183 100 196 102 201 105 203 109 203 118 197 133 183 150 166 150 166 " />
        <polyline stroke="black" stroke-width="3" stroke-linecap="round" fill="transparent" stroke-linejoin="round" points="161 140 170 152 183 163 196 178 201 186 201 186 " />
        </svg>