<?xml version="1.0" standalone="no"?>
    <svg width="256" height="256" xmlns="http://www.w3.org/2000/svg" version="1.1">
    <polyline stroke="black" stroke-width="3" stroke-linecap="round" fill="transparent" stroke-linejoin="round" points="90.60675755678108 58.30866326278229 84.23043643568315 59.265111430947 79.44819559485961 63.40972015966065 73.39069052981665 68.51077705653901 59.362784063401136 79.03170690635062 46.92895787726013 86.36447619561324 37.68329225166815 90.50908492432691 31.30697113057022 93.378429428821 28.118810570021196 94.65369365304056 27.162362401856512 94.97250970909548 27.162362401856512 95.29132576515036 27.162362401856512 95.92895787726016 27.79999451396634 97.52303815753464 29.07525873818588 102.30527899835808 30.350522962405535 110.27568039973052 31.625787186625075 120.79661024954214 32.90105141084473 133.23043643568312 33.219867466899586 146.6207107899888 33.219867466899586 160.64861725640426 33.219867466899586 171.48836316227076 33.53868352295444 177.86468428336872 34.49513169111913 180.41521273180788 35.77039591533878 180.7340287878628 37.04566013955832 180.7340287878628 39.27737253194266 179.4587645636432 44.05961337276608 175.31415583492952 50.117118437809154 168.3002026017218 56.493439558907085 160.96743331245918 62.869760680005015 153.31584796714165 68.92726574504809 144.38899839760452 75.62240292220088 136.41859699623208 75.62240292220088 136.41859699623208 " />
        <polyline stroke="black" stroke-width="3" stroke-linecap="round" fill="transparent" stroke-linejoin="round" points="70.20252996926763 107.08751983918155 71.79661024954214 110.59449645578542 74.34713869798134 117.92726574504806 76.57885109036556 123.6659547540362 78.49174742669493 130.04227587513415 82.63635615540863 142.15728600522024 85.82451671595766 153.31584796714165 87.73741305228702 164.15559387300814 89.65030938861639 174.67652372281975 89.65030938861639 174.67652372281975 " />
        <polyline stroke="black" stroke-width="3" stroke-linecap="round" fill="transparent" stroke-linejoin="round" points="140.66087835739995 25.151793433072996 135.55982146052156 31.52811455417094 133.6469251241922 36.6291714510493 130.77758061969814 43.64312468425703 123.12599527438056 59.265111430947 116.1120420411728 72.97420184130758 110.69216908823957 83.17631563506427 106.54756035952596 90.8279009803818 103.04058374292208 97.84185421358951 102.40295163081224 100.7111987180836 102.40295163081224 100.7111987180836 " />
        <polyline stroke="black" stroke-width="3" stroke-linecap="round" fill="transparent" stroke-linejoin="round" points="122.48836316227072 70.1048573368135 125.03889161070992 74.88709817763694 129.5023163954785 79.9881550745153 132.37166089997254 83.81394774717407 136.1974535726314 87.95855647588772 143.84903891794886 94.97250970909548 152.775888487486 99.43593449386404 152.775888487486 99.43593449386404 " />
        <polyline stroke="black" stroke-width="3" stroke-linecap="round" fill="transparent" stroke-linejoin="round" points="195.49723999884225 25.470609489127895 190.7149991580187 30.890482442061156 183.06341381270124 43.00549257214723 173.81774818710915 59.265111430947 166.48497889784653 74.56828212158206 159.78984172069374 88.59618858799752 157.23931327225455 96.24777393331505 157.23931327225455 96.24777393331505 " />
        <polyline stroke="black" stroke-width="3" stroke-linecap="round" fill="transparent" stroke-linejoin="round" points="175.0930124113288 64.04735227177045 176.6870926916033 68.51077705653901 178.91880508398754 72.33656972919778 181.46933353242673 75.20591423369186 184.65749409297575 78.71289085029571 191.99026338223837 87.00210830772303 199.32303267150095 95.29132576515036 204.74290562443423 101.66764688624828 207.61225012892828 107.72515195129134 207.9310661849831 110.91331251184032 207.9310661849831 110.91331251184032 " />
        <polyline stroke="black" stroke-width="3" stroke-linecap="round" fill="transparent" stroke-linejoin="round" points="124.72007555465508 128.44819559485967 130.77758061969814 129.40464376302435 140.34206230134498 129.40464376302435 146.39956736638806 129.40464376302435 152.775888487486 129.40464376302435 166.48497889784653 127.17293137064009 178.91880508398754 124.6224029222009 188.16447070957952 123.34713869798132 188.16447070957952 123.34713869798132 " />
        <polyline stroke="black" stroke-width="3" stroke-linecap="round" fill="transparent" stroke-linejoin="round" points="112.60506542456892 183.28455723630196 119.93783471383152 184.55982146052156 125.3577076667649 184.55982146052156 132.05284484391768 184.55982146052156 147.35601553455274 184.87863751657648 162.97800228124265 184.87863751657648 178.91880508398754 184.87863751657648 194.2219757746226 183.28455723630196 206.3369859047087 182.32810906813728 211.756858857642 182.32810906813728 211.756858857642 182.32810906813728 " />
        </svg>