<?xml version="1.0" standalone="no"?>
    <svg width="256" height="256" xmlns="http://www.w3.org/2000/svg" version="1.1">
    <polyline stroke="black" stroke-width="3" stroke-linecap="round" fill="transparent" stroke-linejoin="round" points="64.7080078125 79.50070190429688 82.77316284179688 67.18356323242188 99.19601440429688 58.972137451171875 113.9765625 51.992431640625 126.29367065429688 47.065582275390625 132.86279296875 44.60216522216797 135.32626342773438 43.78102111816406 134.9156494140625 45.012725830078125 132.04168701171875 49.118438720703125 127.11483764648438 55.277008056640625 120.13510131835938 64.3095703125 111.51312255859376 78.67955017089844 106.58627319335938 87.71211242675781 90.57403564453124 119.73666381835938 80.72030639648438 138.62290954589844 71.687744140625 156.6880340576172 66.7608642578125 166.13116455078125 64.29745483398438 169.82632446289063 63.88690185546875 170.23687744140625 65.5291748046875 167.36288452148438 74.15118408203125 156.6880340576172 86.46826171875 144.37091064453125 99.60653686523438 133.28549194335938 111.51312255859376 125.89520263671876 120.13510131835938 123.43179321289063 123.419677734375 123.43179321289063 130.39938354492188 130.4114990234375 132.04168701171875 146.42376708984375 127.93597412109376 164.4888916015625 119.72454833984376 178.85887145996094 110.69198608398438 187.89144897460935 100.01715087890624 192.40771484375 95.09027099609376 192.40771484375 95.09027099609376 192.40771484375 " />
        <polyline stroke="black" stroke-width="3" stroke-linecap="round" fill="transparent" stroke-linejoin="round" points="141.48480224609375 77.03726196289063 161.1922607421875 69.23641967773438 176.38330078125 64.3095703125 183.77362060546875 61.84614562988281 201.017578125 56.91929626464844 207.5867919921875 55.277008056640625 207.5867919921875 55.277008056640625 " />
        <polyline stroke="black" stroke-width="3" stroke-linecap="round" fill="transparent" stroke-linejoin="round" points="178.8468017578125 83.19583129882813 169.4036865234375 103.72439575195313 166.11907958984375 112.75694274902344 156.67596435546875 142.72862243652344 150.517333984375 161.61489868164063 144.35882568359375 177.62716674804688 138.20025634765625 190.76544189453125 138.20025634765625 190.76544189453125 " />
        <polyline stroke="black" stroke-width="3" stroke-linecap="round" fill="transparent" stroke-linejoin="round" points="168.17193603515625 125.07408142089844 177.61505126953125 120.147216796875 181.72076416015625 118.50494384765624 191.1639404296875 117.27322387695313 200.19647216796875 120.147216796875 208.8184814453125 129.17979431152344 218.2615966796875 150.52947998046875 221.546142578125 176.80601501464844 221.1356201171875 188.302001953125 215.3875732421875 212.936279296875 210.460693359375 222.37939453125 204.30218505859375 227.3062438964844 199.785888671875 228.5379638671875 179.25732421875 221.96881103515625 171.45648193359375 215.81027221679688 171.45648193359375 215.81027221679688 " />
        </svg>