<?xml version="1.0" standalone="no"?>
    <svg width="256" height="256" xmlns="http://www.w3.org/2000/svg" version="1.1">
    <polyline stroke="black" stroke-width="3" stroke-linecap="round" fill="transparent" stroke-linejoin="round" points="52.498687744140625 88.26603698730469 62.603179931640625 81.72784423828125 77.46270751953125 72.8121337890625 92.32223510742188 64.49079895019531 107.1817626953125 56.76383972167969 119.66375732421876 50.820030212402344 128.5794677734375 47.25374603271485 133.92889404296875 45.47059631347656 136.90081787109375 44.281837463378906 138.6839599609375 44.281837463378906 135.7120361328125 44.281837463378906 131.5513916015625 48.4425048828125 125.01318359375 55.5750732421875 112.53118896484376 74.59527587890625 96.48291015625 101.93679809570313 81.62335205078125 130.46710205078125 68.5469970703125 156.61985778808594 60.22564697265625 170.29063415527344 57.253753662109375 176.23443603515625 54.876220703125 179.80072021484375 54.876220703125 179.2063446044922 60.820037841796875 167.91310119628906 72.7076416015625 144.1378631591797 84.00088500976563 127.49519348144533 94.10537719726563 116.79632568359376 105.99298095703124 109.0693817138672 113.12554931640624 106.6918487548828 119.06939697265624 106.6918487548828 124.4188232421875 109.66375732421876 127.985107421875 116.2019500732422 128.5794677734375 134.03338623046875 122.041259765625 157.80862426757813 113.12554931640624 174.4512939453125 107.776123046875 180.3951110839844 101.83233642578124 182.77264404296875 98.26605224609376 179.80072021484375 98.26605224609376 179.80072021484375 " />
        <polyline stroke="black" stroke-width="3" stroke-linecap="round" fill="transparent" stroke-linejoin="round" points="136.90081787109375 69.84022521972656 145.8165283203125 65.08517456054688 157.70416259765625 59.735748291015625 171.96929931640625 52.603172302246094 186.828857421875 45.47059631347656 199.310791015625 39.52678680419922 207.03778076171875 35.366119384765625 211.198486328125 32.98859405517578 213.575927734375 31.20545196533203 211.7928466796875 31.20545196533203 207.6322021484375 33.582977294921875 189.80072021484375 51.41441345214844 175.53558349609375 73.40650939941406 161.86480712890625 99.5592803955078 147.59967041015625 125.71205139160156 136.30642700195313 151.2704315185547 127.985107421875 170.29063415527344 124.4188232421875 178.61196899414063 122.63568115234376 183.36700439453125 122.63568115234376 184.5557861328125 126.20196533203124 180.3951110839844 130.95700073242188 168.5074920654297 136.90081787109375 153.05357360839844 144.62774658203125 138.78843688964844 153.54345703125 125.71205139160156 161.86480712890625 117.98509216308594 173.75244140625 109.0693817138672 182.66815185546875 104.90870666503906 190.989501953125 103.12556457519533 199.90521240234375 105.50309753417967 205.8489990234375 110.85252380371094 213.575927734375 131.0614776611328 214.17034912109375 155.4311065673828 210.0096435546875 177.42320251464844 204.06591796875 191.09396362304688 199.90521240234375 197.63217163085935 193.96142578125 201.79281616210935 184.4512939453125 202.38720703125 173.75244140625 196.44338989257813 173.75244140625 196.44338989257813 " />
        </svg>