<?xml version="1.0" standalone="no"?>
    <svg width="256" height="256" xmlns="http://www.w3.org/2000/svg" version="1.1">
    <polyline stroke="black" stroke-width="3" stroke-linecap="round" fill="transparent" stroke-linejoin="round" points="47.92474365234375 86.7996826171875 69.99411010742188 77.38182067871094 79.57489013671875 74.59698486328125 100.47509765625 69.34745788574219 116.00592041015624 66.58352661132813 120.391357421875 65.84243774414063 121.67498779296876 65.26423645019531 121.69476318359376 65.25532531738281 " />
        <polyline stroke="black" stroke-width="3" stroke-linecap="round" fill="transparent" stroke-linejoin="round" points="75.25521850585938 125.43937683105467 95.07415771484376 120.4534912109375 100.17160034179688 119.23265075683594 105.17138671875 118.00054931640624 111.89263916015624 116.95335388183594 115.64459228515624 117.20278930664063 117.02825927734376 117.71574401855467 119.659912109375 122.13829040527344 121.39315795898438 129.7451171875 121.78378295898438 153.33926391601563 120.08709716796876 165.2039794921875 115.41268920898438 190.827392578125 112.79061889648438 203.80130004882813 109.35015869140624 222.15884399414065 107.8553466796875 227.52505493164065 105.14157104492188 231.77560424804688 104.096435546875 232.80810546875 103.119384765625 231.52392578125 100.69073486328124 230.37060546875 98.57284545898438 229.7335205078125 90.64620971679688 225.41314697265625 82.14779663085938 219.15444946289065 75.17965698242188 212.76400756835935 74.85458374023438 212.04983520507813 " />
        <polyline stroke="black" stroke-width="3" stroke-linecap="round" fill="transparent" stroke-linejoin="round" points="84.20834350585938 84.91482543945313 80.96420288085938 109.35183715820313 78.4713134765625 125.77297973632813 75.32257080078125 142.98300170898438 70.747802734375 163.26873779296875 60.56378173828125 197.33734130859375 52.142913818359375 216.3785400390625 49.456390380859375 221.825439453125 49.187744140625 222.37014770507813 " />
        <polyline stroke="black" stroke-width="3" stroke-linecap="round" fill="transparent" stroke-linejoin="round" points="126.146484375 93.39671325683594 161.320556640625 80.1627197265625 172.7117919921875 77.17886352539063 183.9595947265625 74.8785400390625 200.40692138671875 73.06854248046875 208.0595703125 72.45693969726563 209.22259521484375 72.38726806640625 209.47406005859375 72.17239379882813 209.614013671875 71.81698608398438 209.63201904296875 71.77137756347656 209.640869140625 71.74888610839844 " />
        <polyline stroke="black" stroke-width="3" stroke-linecap="round" fill="transparent" stroke-linejoin="round" points="176.566650390625 106.59074401855467 197.23089599609375 103.53746032714844 199.47015380859375 103.56396484375 202.994873046875 103.9214324951172 204.32501220703125 104.411865234375 206.5146484375 105.79019165039063 208.34393310546875 108.4106903076172 210.3265380859375 112.39956665039063 213.42718505859375 121.7869110107422 218.2237548828125 152.6620330810547 219.05828857421875 170.46055603027344 218.5333251953125 202.62554931640625 217.30438232421875 211.40496826171875 215.30157470703125 222.50048828125 214.050048828125 224.6871337890625 211.58416748046875 228.90618896484375 209.6966552734375 231.83102416992188 208.99993896484375 232.86648559570313 206.45819091796875 234.86599731445313 204.864013671875 235.27865600585935 198.6610107421875 235.0248107910156 194.11956787109375 233.41012573242188 186.09808349609375 227.8052978515625 185.50067138671875 226.9080810546875 " />
        <polyline stroke="black" stroke-width="3" stroke-linecap="round" fill="transparent" stroke-linejoin="round" points="178.45147705078125 93.39671325683594 161.39794921875 128.44589233398438 155.76483154296875 143.92027282714844 146.00595092773438 171.56072998046875 132.79400634765625 202.423095703125 132.06292724609375 203.9656982421875 " />
        </svg>