<?xml version="1.0" standalone="no"?>
    <svg width="256" height="256" xmlns="http://www.w3.org/2000/svg" version="1.1">
    <polyline stroke="black" stroke-width="3" stroke-linecap="round" fill="transparent" stroke-linejoin="round" points="46 85 61 81 80 74 99 68 108 67 108 67 " />
        <polyline stroke="black" stroke-width="3" stroke-linecap="round" fill="transparent" stroke-linejoin="round" points="96 82 86 92 86 102 76 128 61 158 51 178 41 189 38 191 38 191 " />
        <polyline stroke="black" stroke-width="3" stroke-linecap="round" fill="transparent" stroke-linejoin="round" points="68 139 83 130 95 130 104 130 107 131 107 147 101 172 89 198 79 214 72 222 71 223 71 223 " />
        <polyline stroke="black" stroke-width="3" stroke-linecap="round" fill="transparent" stroke-linejoin="round" points="133 77 160 76 179 73 195 70 195 70 " />
        <polyline stroke="black" stroke-width="3" stroke-linecap="round" fill="transparent" stroke-linejoin="round" points="180 82 165 108 151 135 136 158 124 172 119 178 118 179 118 179 " />
        <polyline stroke="black" stroke-width="3" stroke-linecap="round" fill="transparent" stroke-linejoin="round" points="144 148 193 157 187 182 180 198 172 209 165 216 152 222 137 226 137 226 " />
        </svg>