<?xml version="1.0" standalone="no"?>
    <svg width="256" height="256" xmlns="http://www.w3.org/2000/svg" version="1.1">
    <polyline stroke="black" stroke-width="3" stroke-linecap="round" fill="transparent" stroke-linejoin="round" points="90 48 90 56 91 62 92 66 94 74 95 78 100 92 104 102 108 111 110 115 110 115 " />
        <polyline stroke="black" stroke-width="3" stroke-linecap="round" fill="transparent" stroke-linejoin="round" points="149 40 149 42 149 56 145 70 141 82 138 94 134 106 126 126 120 141 116 146 111 152 102 159 89 168 81 172 73 179 64 183 60 186 49 194 45 197 41 198 38 201 36 201 35 201 35 201 " />
        <polyline stroke="black" stroke-width="3" stroke-linecap="round" fill="transparent" stroke-linejoin="round" points="67 114 73 115 83 118 96 119 116 121 134 121 149 121 159 121 174 120 180 120 186 119 192 119 194 119 194 119 194 119 " />
        <polyline stroke="black" stroke-width="3" stroke-linecap="round" fill="transparent" stroke-linejoin="round" points="106 162 106 164 106 171 106 179 107 184 108 187 109 194 111 201 112 209 112 213 112 214 112 216 112 217 112 217 112 218 112 219 113 219 114 219 115 219 119 215 121 212 123 211 126 207 128 204 135 200 140 196 141 194 141 194 141 194 " />
        <polyline stroke="black" stroke-width="3" stroke-linecap="round" fill="transparent" stroke-linejoin="round" points="142 144 143 146 149 168 151 171 156 179 167 201 181 222 187 225 187 226 187 226 " />
        </svg>