<?xml version="1.0" standalone="no"?>
    <svg width="256" height="256" xmlns="http://www.w3.org/2000/svg" version="1.1">
    <polyline stroke="black" stroke-width="3" stroke-linecap="round" fill="transparent" stroke-linejoin="round" points="96.38299560546876 89.27761840820313 100.25518798828124 100.89421081542967 104.77276611328124 107.34786987304688 113.16250610351563 107.99322509765624 113.16250610351563 107.99322509765624 " />
        <polyline stroke="black" stroke-width="3" stroke-linecap="round" fill="transparent" stroke-linejoin="round" points="153.1751708984375 62.81761169433594 138.331787109375 87.98687744140625 112.51715087890624 132.51715087890625 97.6737060546875 153.16885375976563 80.89422607421875 175.11129760742188 69.27761840820313 189.30935668945313 62.823974609375 195.76303100585935 59.59710693359375 197.05374145507813 59.59710693359375 197.05374145507813 " />
        <polyline stroke="black" stroke-width="3" stroke-linecap="round" fill="transparent" stroke-linejoin="round" points="69.9229736328125 141.55226135253906 82.830322265625 133.80787658691406 99.60980224609376 125.41812133789063 124.77911376953124 116.38299560546876 149.30300903320313 108.63859558105467 168.01861572265625 103.47567749023438 184.15277099609375 98.95811462402344 193.1878662109375 97.02200317382813 198.350830078125 97.02200317382813 198.350830078125 97.02200317382813 " />
        <polyline stroke="black" stroke-width="3" stroke-linecap="round" fill="transparent" stroke-linejoin="round" points="109.9356689453125 167.36691284179688 109.29031372070313 182.85568237304688 109.29031372070313 201.57131958007813 111.87176513671876 217.06008911132813 115.74395751953124 228.03131103515625 119.61614990234376 233.83963012695313 125.42446899414063 235.13034057617188 130.58740234375 230.61279296875 138.9771728515625 218.350830078125 146.076171875 194.4722900390625 146.076171875 194.4722900390625 " />
        <polyline stroke="black" stroke-width="3" stroke-linecap="round" fill="transparent" stroke-linejoin="round" points="140.26788330078125 155.10494995117188 146.7215576171875 166.72154235839844 155.75665283203125 180.9196014404297 166.08251953125 195.11764526367188 176.40838623046875 208.67034912109375 188.02496337890625 222.868408203125 198.350830078125 240.29327392578125 198.350830078125 240.29327392578125 " />
        </svg>