<?xml version="1.0" standalone="no"?>
    <svg width="256" height="256" xmlns="http://www.w3.org/2000/svg" version="1.1">
    <polyline stroke="black" stroke-width="3" stroke-linecap="round" fill="transparent" stroke-linejoin="round" points="89.24676513671875 81.60626220703125 92.4976806640625 86.48265075683594 95.74862670898438 91.35903930664063 98.99957275390624 96.23542785644533 104.68865966796876 104.36273193359376 107.533203125 107.61367797851563 110.37777709960938 110.45823669433594 112.40960693359376 112.49008178710938 112.40960693359376 112.49008178710938 " />
        <polyline stroke="black" stroke-width="3" stroke-linecap="round" fill="transparent" stroke-linejoin="round" points="138.82342529296875 73.07257080078125 126.63241577148438 90.54632568359376 103.87594604492188 124.6810302734375 87.21493530273438 150.28207397460938 74.21124267578125 169.3812713623047 68.11572265625 177.91494750976563 54.7056884765625 193.3568420410156 50.64202880859375 196.201416015625 50.64202880859375 196.201416015625 " />
        <polyline stroke="black" stroke-width="3" stroke-linecap="round" fill="transparent" stroke-linejoin="round" points="77.462158203125 121.8364715576172 86.80859375 117.77281188964844 97.78045654296876 113.70916748046876 108.7523193359375 110.45823669433594 132.321533203125 105.17547607421876 157.5162353515625 101.92454528808594 180.6790771484375 99.89273071289063 196.1209716796875 98.6736297607422 196.1209716796875 98.6736297607422 " />
        <polyline stroke="black" stroke-width="3" stroke-linecap="round" fill="transparent" stroke-linejoin="round" points="112.00326538085938 144.5929412841797 110.7841796875 152.31390380859375 109.971435546875 160.03485107421875 109.15869140625 169.3812713623047 109.15869140625 194.16958618164065 110.37777709960938 206.36053466796875 111.19052124023438 210.83056640625 113.62872314453124 218.551513671875 114.44146728515624 219.7706298828125 120.13058471679688 218.551513671875 125.81967163085938 212.8623962402344 133.947021484375 200.67144775390625 143.29342651367188 183.60406494140625 146.95068359375 175.07037353515625 146.95068359375 175.07037353515625 " />
        <polyline stroke="black" stroke-width="3" stroke-linecap="round" fill="transparent" stroke-linejoin="round" points="144.91888427734375 134.84017944335938 147.35711669921875 141.74839782714844 159.548095703125 169.78762817382813 170.113525390625 188.8868408203125 180.6790771484375 208.7987365722656 186.3681640625 220.98971557617188 186.3681640625 220.98971557617188 " />
        </svg>