<?xml version="1.0" standalone="no"?>
    <svg width="256" height="256" xmlns="http://www.w3.org/2000/svg" version="1.1">
    <polyline stroke="black" stroke-width="3" stroke-linecap="round" fill="transparent" stroke-linejoin="round" points="77.49853515625 72.92384338378906 79.708984375 76.46054077148438 81.91940307617188 79.99722290039063 84.12985229492188 83.09182739257813 90.31906127929688 91.49147033691406 93.41366577148438 93.701904296875 97.83453369140624 95.02815246582033 97.83453369140624 95.02815246582033 " />
        <polyline stroke="black" stroke-width="3" stroke-linecap="round" fill="transparent" stroke-linejoin="round" points="147.79025268554688 58.77708435058594 133.64352416992188 83.53390502929688 106.234130859375 125.5321044921875 82.80355834960938 157.3623046875 64.2359619140625 180.7928924560547 51.8575439453125 192.72921752929688 46.994598388671875 196.7080078125 43.4578857421875 198.47634887695313 43.4578857421875 198.47634887695313 " />
        <polyline stroke="black" stroke-width="3" stroke-linecap="round" fill="transparent" stroke-linejoin="round" points="61.141357421875 129.95297241210938 69.098876953125 125.97418212890624 86.7823486328125 118.458740234375 108.444580078125 111.8274383544922 132.31723022460938 107.40658569335938 151.76904296875 104.31198120117188 163.70538330078125 101.65945434570313 169.01043701171875 99.89111328125 170.77874755859375 99.4490203857422 170.77874755859375 99.4490203857422 " />
        <polyline stroke="black" stroke-width="3" stroke-linecap="round" fill="transparent" stroke-linejoin="round" points="96.50827026367188 155.15188598632813 94.73992919921876 162.6673583984375 92.9715576171875 172.8353271484375 90.76116943359376 193.6134033203125 89.43487548828125 210.41265869140625 89.43487548828125 219.25439453125 89.876953125 222.3489990234375 90.31906127929688 222.79107666015625 93.41366577148438 221.90692138671875 103.13958740234376 214.39144897460935 110.212890625 205.54974365234375 119.93881225585938 188.75045776367188 119.93881225585938 188.75045776367188 " />
        <polyline stroke="black" stroke-width="3" stroke-linecap="round" fill="transparent" stroke-linejoin="round" points="122.59130859375 137.4684295654297 121.70721435546876 144.0997314453125 121.70721435546876 151.17312622070313 123.9176025390625 167.53030395507813 126.12802124023438 175.929931640625 129.22265625 183.8874969482422 137.62228393554688 198.91842651367188 145.579833984375 211.73895263671875 154.8636474609375 224.5594482421875 154.8636474609375 224.5594482421875 " />
        </svg>