<?xml version="1.0" standalone="no"?>
    <svg width="256" height="256" xmlns="http://www.w3.org/2000/svg" version="1.1">
    <polyline stroke="black" stroke-width="3" stroke-linecap="round" fill="transparent" stroke-linejoin="round" points="78.13912963867188 97.69879150390624 84.59506225585938 96.31536865234376 91.9732666015625 94.93196105957033 100.27377319335938 93.54855346679688 117.33587646484376 91.24285888671876 126.55859375 90.32058715820313 142.69842529296875 89.3983154296875 156.99371337890625 87.55375671386719 161.14398193359375 86.63148498535156 161.14398193359375 86.63148498535156 " />
        <polyline stroke="black" stroke-width="3" stroke-linecap="round" fill="transparent" stroke-linejoin="round" points="137.62591552734375 75.10302734375 133.47567749023438 86.17034912109375 124.2529296875 108.3049774169922 112.72445678710938 133.66757202148438 105.34628295898438 146.1182861328125 97.968017578125 155.34104919433594 89.66757202148438 163.18038940429688 80.44479370117188 169.1751708984375 74.45001220703125 171.9420166015625 71.68319702148438 172.40313720703125 71.2220458984375 171.9420166015625 75.372314453125 169.1751708984375 89.66757202148438 162.71923828125 107.65194702148438 155.80218505859375 126.55859375 150.7296600341797 143.15960693359375 147.96282958984375 160.2216796875 146.1182861328125 160.2216796875 146.1182861328125 " />
        <polyline stroke="black" stroke-width="3" stroke-linecap="round" fill="transparent" stroke-linejoin="round" points="184.20086669921875 121.21682739257813 188.812255859375 138.2789306640625 191.5791015625 147.50169372558594 196.651611328125 165.0249481201172 201.72412109375 186.2373046875 204.490966796875 202.8382568359375 206.33544921875 228.6619873046875 206.33544921875 228.6619873046875 " />
        </svg>