<?xml version="1.0" standalone="no"?>
    <svg width="256" height="256" xmlns="http://www.w3.org/2000/svg" version="1.1">
    <polyline stroke="black" stroke-width="3" stroke-linecap="round" fill="transparent" stroke-linejoin="round" points="60.074188232421875 96.25494384765624 67.94879150390625 94.58460998535156 87.85009765625 90.34027099609376 97.47021484375 88.8232421875 107.49774169921876 87.39372253417969 132.21701049804688 86.42913818359375 138.497314453125 86.5030517578125 138.61715698242188 86.5125732421875 138.61785888671875 86.51261901855469 " />
        <polyline stroke="black" stroke-width="3" stroke-linecap="round" fill="transparent" stroke-linejoin="round" points="88.25082397460938 72.8577880859375 91.38006591796876 88.10824584960938 93.30221557617188 118.13174438476563 91.96420288085938 132.5618896484375 82.33944702148438 155.48492431640625 77.35189819335938 161.65008544921875 76.85311889648438 162.26658630371094 " />
        <polyline stroke="black" stroke-width="3" stroke-linecap="round" fill="transparent" stroke-linejoin="round" points="59.765960693359375 176.0706024169922 65.298583984375 173.94261169433594 81.94866943359375 168.53904724121094 91.855224609375 165.7241668701172 106.94293212890624 159.71397399902344 113.80575561523438 155.89968872070313 137.45806884765625 149.51455688476563 142.68832397460938 148.45849609375 158.96832275390625 146.0067138671875 162.524169921875 145.84530639648438 162.5638427734375 145.8278045654297 " />
        <polyline stroke="black" stroke-width="3" stroke-linecap="round" fill="transparent" stroke-linejoin="round" points="156.5118408203125 149.73545837402344 161.504638671875 156.6884002685547 165.69854736328125 163.8759002685547 167.455322265625 170.14508056640625 167.10113525390625 176.8614501953125 167.06573486328125 177.53311157226563 " />
        </svg>