<?xml version="1.0" standalone="no"?>
    <svg width="256" height="256" xmlns="http://www.w3.org/2000/svg" version="1.1">
    <polyline stroke="black" stroke-width="3" stroke-linecap="round" fill="transparent" stroke-linejoin="round" points="70.7802734375 120.70126342773438 77.07528686523438 118.18325805664063 82.95062255859375 115.66526794433594 95.96026611328124 111.04893493652344 108.13058471679688 106.85226440429688 118.62225341796876 103.07525634765624 129.11395263671875 99.71794128417967 137.08758544921875 97.199951171875 145.06124877929688 94.68194580078124 145.06124877929688 94.68194580078124 " />
        <polyline stroke="black" stroke-width="3" stroke-linecap="round" fill="transparent" stroke-linejoin="round" points="115.264892578125 66.98394775390625 114.00595092773438 74.95761108398438 110.64862060546876 93.84260559082033 107.291259765625 115.24559020996094 105.19296264648438 126.15692138671876 100.57659912109376 144.6222381591797 94.70126342773438 160.14990234375 88.825927734375 171.48089599609375 83.37030029296875 178.615234375 79.173583984375 183.2315673828125 75.39657592773438 186.16925048828125 72.45895385742188 188.267578125 71.199951171875 189.10690307617188 70.7802734375 189.10690307617188 72.03927612304688 188.68722534179688 81.69158935546875 185.32989501953125 96.799560546875 179.87423706054688 104.35360717773438 176.9365692138672 124.49755859375 169.382568359375 136.66790771484375 164.7662353515625 146.73992919921875 160.14990234375 151.77587890625 156.79257202148438 151.77587890625 156.79257202148438 " />
        <polyline stroke="black" stroke-width="3" stroke-linecap="round" fill="transparent" stroke-linejoin="round" points="153.45458984375 137.4879150390625 156.39227294921875 145.88125610351563 165.62493896484375 179.87423706054688 167.7232666015625 192.0445556640625 171.08056640625 209.67056274414065 171.08056640625 209.67056274414065 " />
        </svg>