<?xml version="1.0" standalone="no"?>
    <svg width="256" height="256" xmlns="http://www.w3.org/2000/svg" version="1.1">
    <polyline stroke="black" stroke-width="3" stroke-linecap="round" fill="transparent" stroke-linejoin="round" points="80.8221435546875 131.05796813964844 96.73712158203124 124.32472229003906 117.5489501953125 114.53091430664063 134.07601928710938 104.12498474121094 148.7667236328125 93.10694885253906 160.39691162109375 80.2525634765625 168.96649169921875 66.78607177734375 168.96649169921875 66.78607177734375 " />
        <polyline stroke="black" stroke-width="3" stroke-linecap="round" fill="transparent" stroke-linejoin="round" points="134.6881103515625 69.84663391113281 133.46389770507813 83.92524719238281 131.01544189453125 100.45230102539063 127.3427734375 118.20359802246094 121.833740234375 137.7912139892578 112.0399169921875 157.990966796875 99.185546875 175.13014221191406 87.555419921875 187.98452758789065 80.21002197265625 195.32986450195313 74.70101928710938 199.61468505859375 73.476806640625 202.0631103515625 78.37371826171875 199.61468505859375 94.28863525390624 190.4329833984375 117.5489501953125 176.9664764404297 135.912353515625 165.9484405517578 155.5 154.93038940429688 169.57861328125 145.13658142089844 169.57861328125 145.13658142089844 " />
        <polyline stroke="black" stroke-width="3" stroke-linecap="round" fill="transparent" stroke-linejoin="round" points="195.287353515625 157.37884521484375 200.79638671875 173.90591430664063 206.305419921875 207.5721435546875 206.305419921875 207.5721435546875 " />
        </svg>