<?xml version="1.0" standalone="no"?>
    <svg width="256" height="256" xmlns="http://www.w3.org/2000/svg" version="1.1">
    <polyline stroke="black" stroke-width="3" stroke-linecap="round" fill="transparent" stroke-linejoin="round" points="43.11114501953125 128.22222900390625 68.66668701171875 113.7777862548828 84.2222900390625 104.88890075683594 97.5556640625 98.22222900390624 108.666748046875 92.66667175292967 116.4444580078125 88.22222900390625 120.888916015625 86 120.888916015625 84.88890075683594 119.77783203125 84.88890075683594 118.666748046875 84.88890075683594 118.666748046875 84.88890075683594 " />
        <polyline stroke="black" stroke-width="3" stroke-linecap="round" fill="transparent" stroke-linejoin="round" points="63.11114501953125 48.22222900390625 82.00006103515625 48.22222900390625 82.00006103515625 49.33333587646485 83.11114501953125 49.33333587646485 85.3333740234375 50.44445037841797 88.666748046875 58.22222900390625 89.77783203125 68.22222900390625 89.77783203125 83.77778625488281 88.666748046875 102.66667175292967 86.4444580078125 122.66667175292967 82.00006103515625 146.00001525878906 76.44451904296875 169.33334350585938 66.44451904296875 200.4444580078125 57.55560302734375 216 54.2222900390625 223.77780151367188 54.2222900390625 223.77780151367188 " />
        <polyline stroke="black" stroke-width="3" stroke-linecap="round" fill="transparent" stroke-linejoin="round" points="80.888916015625 156.00001525878906 99.77783203125 161.55557250976563 103.1112060546875 163.7777862548828 105.3333740234375 164.88890075683594 112 168.22222900390625 113.1112060546875 169.33334350585938 113.1112060546875 169.33334350585938 " />
        <polyline stroke="black" stroke-width="3" stroke-linecap="round" fill="transparent" stroke-linejoin="round" points="100.888916015625 131.55557250976563 134.2222900390625 108.22222900390624 149.77783203125 99.33334350585938 162 90.4444580078125 169.77783203125 84.88890075683594 175.3333740234375 81.55555725097656 177.5556640625 81.55555725097656 177.5556640625 81.55555725097656 " />
        <polyline stroke="black" stroke-width="3" stroke-linecap="round" fill="transparent" stroke-linejoin="round" points="120.888916015625 128.22222900390625 120.888916015625 162.6666717529297 116.4444580078125 176.00001525878906 113.1112060546875 183.77780151367188 106.4444580078125 200.4444580078125 106.4444580078125 202.66668701171875 106.4444580078125 202.66668701171875 " />
        <polyline stroke="black" stroke-width="3" stroke-linecap="round" fill="transparent" stroke-linejoin="round" points="127.5556640625 148.22222900390625 144.2222900390625 133.7777862548828 153.1112060546875 127.11111450195313 159.77783203125 121.55557250976563 165.3333740234375 116.00001525878906 166.4444580078125 114.88890075683594 165.3333740234375 116.00001525878906 163.1112060546875 118.22222900390624 163.1112060546875 119.33334350585938 162 120.4444580078125 162 121.55557250976563 160.888916015625 124.88890075683594 159.77783203125 128.22222900390625 158.666748046875 132.6666717529297 157.5556640625 140.4444580078125 156.4444580078125 150.4444580078125 155.3333740234375 160.4444580078125 155.3333740234375 173.7777862548828 154.2222900390625 183.77780151367188 155.3333740234375 192.66668701171875 157.5556640625 196 160.888916015625 198.22222900390625 168.666748046875 200.4444580078125 178.666748046875 203.77780151367188 195.3333740234375 204.888916015625 207.5556640625 202.66668701171875 220.888916015625 200.4444580078125 237.5556640625 194.888916015625 244.2222900390625 192.66668701171875 247.5556640625 190.4444580078125 248.666748046875 190.4444580078125 247.5556640625 189.33334350585935 245.3333740234375 184.888916015625 236.4444580078125 170.4444580078125 236.4444580078125 170.4444580078125 " />
        </svg>