<?xml version="1.0" standalone="no"?>
    <svg width="256" height="256" xmlns="http://www.w3.org/2000/svg" version="1.1">
    <polyline stroke="black" stroke-width="3" stroke-linecap="round" fill="transparent" stroke-linejoin="round" points="77.97674560546875 91.86660766601563 76.65170288085938 108.2091064453125 73.55990600585938 127.20175170898438 69.58468627929688 145.752685546875 63.84271240234375 164.74530029296875 54.125579833984375 191.68832397460935 50.592041015625 200.96380615234375 45.733489990234375 211.1226501464844 45.733489990234375 211.1226501464844 " />
        <polyline stroke="black" stroke-width="3" stroke-linecap="round" fill="transparent" stroke-linejoin="round" points="88.13558959960938 93.19168090820313 93.43588256835938 88.33309936523438 99.6195068359375 83.91621398925781 105.36151123046876 79.94100952148438 117.28707885742188 73.315673828125 123.029052734375 70.66554260253906 134.512939453125 66.69033813476563 148.205322265625 67.13203430175781 153.947265625 74.19905090332031 159.24755859375 98.9336395263672 159.24755859375 113.95108032226563 157.0390625 143.54421997070313 157.9224853515625 171.37063598632813 159.689208984375 177.1125946044922 167.6396484375 188.59649658203125 177.7984619140625 195.22183227539065 183.98211669921875 197.8719787597656 203.41644287109375 201.40548706054688 209.60009765625 200.96380615234375 223.734130859375 196.54690551757813 229.91778564453125 191.24664306640625 234.7763671875 181.97116088867188 236.5430908203125 175.3458251953125 236.98486328125 159.88671875 228.1510009765625 131.61862182617188 228.1510009765625 131.61862182617188 " />
        </svg>