<?xml version="1.0" standalone="no"?>
    <svg width="256" height="256" xmlns="http://www.w3.org/2000/svg" version="1.1">
    <polyline stroke="black" stroke-width="3" stroke-linecap="round" fill="transparent" stroke-linejoin="round" points="49.70867919921875 103.79222106933594 50.150360107421875 112.62600708007813 46.6168212890625 148.844482421875 42.199951171875 170.48724365234375 37.34136962890625 184.62130737304688 32.4827880859375 193.455078125 29.390960693359375 197.8719787597656 28.06591796875 198.31365966796875 28.06591796875 198.31365966796875 " />
        <polyline stroke="black" stroke-width="3" stroke-linecap="round" fill="transparent" stroke-linejoin="round" points="43.96673583984375 100.25871276855467 48.383636474609375 95.40013122558594 53.2421875 90.5415496826172 58.542449951171875 85.68296813964844 77.53509521484375 72.87399291992188 91.66912841796876 66.2486572265625 106.6865234375 61.831756591796875 120.37890625 59.623321533203125 131.421142578125 60.06500244140625 139.37152099609375 63.156829833984375 145.11346435546875 67.57373046875 152.6221923828125 83.0328369140625 157.9224853515625 105.5589599609375 159.24755859375 117.48458862304688 162.33935546875 152.37802124023438 164.989501953125 172.69570922851563 169.84808349609375 190.36328125 177.3568115234375 206.2640686035156 184.865478515625 215.09783935546875 193.257568359375 221.72317504882813 201.649658203125 224.37332153320313 208.71673583984375 223.48992919921875 213.5753173828125 220.39810180664065 217.10882568359375 215.53955078125 222.4090576171875 200.96380615234375 225.94256591796875 180.64610290527344 225.94256591796875 180.64610290527344 " />
        </svg>