<?xml version="1.0" standalone="no"?>
    <svg width="256" height="256" xmlns="http://www.w3.org/2000/svg" version="1.1">
    <polyline stroke="black" stroke-width="3" stroke-linecap="round" fill="transparent" stroke-linejoin="round" points="78 58 78 69 74 116 73 146 73 170 73 188 74 197 76 198 76 197 76 197 " />
        <polyline stroke="black" stroke-width="3" stroke-linecap="round" fill="transparent" stroke-linejoin="round" points="73 57 89 51 120 46 132 46 141 46 153 48 159 55 161 63 161 76 156 97 149 121 144 144 144 164 148 179 162 193 178 200 196 203 212 203 222 203 230 197 233 190 234 181 234 170 234 155 233 142 231 135 231 131 231 128 231 126 231 125 231 124 231 124 " />
        </svg>