<?xml version="1.0" standalone="no"?>
    <svg width="256" height="256" xmlns="http://www.w3.org/2000/svg" version="1.1">
    <polyline stroke="black" stroke-width="3" stroke-linecap="round" fill="transparent" stroke-linejoin="round" points="78.86669921875 129.33334350585938 75.66668701171875 153.86668395996094 69.2667236328125 175.20001220703125 63.93341064453125 191.20001220703125 59.66668701171875 200.80001831054688 59.66668701171875 195.4666748046875 59.66668701171875 195.4666748046875 " />
        <polyline stroke="black" stroke-width="3" stroke-linecap="round" fill="transparent" stroke-linejoin="round" points="118.3333740234375 62.13334655761719 126.86669921875 61.066680908203125 133.2667236328125 61.066680908203125 136.466796875 61.066680908203125 137.533447265625 61.066680908203125 137.533447265625 63.20002746582031 137.533447265625 65.33334350585938 137.533447265625 79.20002746582031 136.466796875 103.73333740234376 138.60009765625 135.73338317871094 143.933349609375 150.6666717529297 149.2667236328125 161.33334350585938 155.666748046875 168.80001831054688 171.666748046875 180.53335571289065 184.466796875 188 194.0667724609375 194.40005493164065 202.60009765625 197.6000061035156 210.0667724609375 200.80001831054688 215.4000244140625 201.86666870117188 220.7333984375 201.86666870117188 223.933349609375 201.86666870117188 225 201.86666870117188 226.0667724609375 201.86666870117188 226.0667724609375 200.80001831054688 226.0667724609375 196.53335571289065 221.800048828125 179.4666748046875 209 157.06671142578125 209 157.06671142578125 " />
        </svg>