<?xml version="1.0" standalone="no"?>
    <svg width="256" height="256" xmlns="http://www.w3.org/2000/svg" version="1.1">
    <polyline stroke="black" stroke-width="3" stroke-linecap="round" fill="transparent" stroke-linejoin="round" points="53.62591552734375 88.73019409179688 66.88848876953125 77.2359619140625 72.19354248046875 72.81509399414063 77.49853515625 69.27839660644531 88.10861206054688 62.20501708984375 98.71868896484376 56.45790100097656 107.11834716796876 51.594940185546875 116.40216064453124 47.616172790527344 118.612548828125 47.17408752441406 119.0546875 47.17408752441406 119.0546875 48.94242858886719 117.28631591796876 54.689544677734375 112.42333984375 65.74171447753906 104.023681640625 83.86724853515625 93.855712890625 105.9715576171875 83.687744140625 127.1916961669922 73.96185302734375 147.52767944335938 66.44638061523438 163.44277954101563 60.69927978515625 174.93701171875 58.488861083984375 178.47369384765625 55.39422607421875 183.7787322998047 54.9521484375 183.7787322998047 54.9521484375 183.3366546630859 63.79388427734375 172.28448486328125 75.2880859375 158.579833984375 87.22445678710938 145.7593231201172 99.60287475585938 135.14926147460938 109.77084350585938 128.5179443359375 117.7283935546875 125.42337036132813 123.033447265625 127.1916961669922 126.12802124023438 134.70718383789063 125.68597412109376 153.27481079101563 119.93881225585938 173.6107635498047 111.5391845703125 187.3154296875 103.13958740234376 197.92550659179688 96.50827026367188 204.11471557617188 96.50827026367188 204.11471557617188 " />
        <polyline stroke="black" stroke-width="3" stroke-linecap="round" fill="transparent" stroke-linejoin="round" points="161.4949951171875 65.74171447753906 161.4949951171875 79.44638061523438 161.0528564453125 88.28811645507813 160.61077880859375 98.45608520507813 160.168701171875 108.1820068359375 159.7265625 118.3499755859375 158.8424072265625 134.26507568359375 157.51617431640625 147.9697723388672 155.747802734375 159.4639892578125 153.0953369140625 166.97946166992188 151.32696533203125 170.95823669433594 150.00070190429688 172.72659301757813 149.11654663085938 173.16867065429688 149.11654663085938 172.28448486328125 150.44281005859375 168.30572509765625 153.9794921875 158.1377410888672 161.4949951171875 143.54888916015625 171.2208251953125 127.6337890625 182.27294921875 112.60284423828124 192.883056640625 98.45608520507813 201.72479248046875 86.96185302734375 207.91400146484375 79.00430297851563 211.89276123046875 74.141357421875 214.10321044921875 70.16256713867188 214.9874267578125 67.9521484375 214.9874267578125 66.62588500976563 214.9874267578125 67.51005554199219 213.218994140625 76.79386901855469 209.240234375 95.80357360839844 203.93524169921875 117.90788269042967 197.74603271484375 138.6859588623047 191.11474609375 156.81149291992188 184.0413818359375 170.07406616210938 176.52587890625 179.7999725341797 169.89459228515625 186.4312744140625 165.4737548828125 189.52587890625 162.82122802734375 190.85211181640625 161.4949951171875 191.29421997070313 162.37908935546875 190.85211181640625 164.58953857421875 189.96795654296875 171.6629638671875 188.1996154785156 179.17840576171875 186.4312744140625 185.36761474609375 185.98919677734375 185.36761474609375 185.98919677734375 " />
        </svg>