<?xml version="1.0" standalone="no"?>
    <svg width="256" height="256" xmlns="http://www.w3.org/2000/svg" version="1.1">
    <polyline stroke="black" stroke-width="3" stroke-linecap="round" fill="transparent" stroke-linejoin="round" points="81.1854248046875 113.67872619628906 100.66152954101563 108.95726013183594 127.2198486328125 103.64558410644533 149.6468505859375 98.9241180419922 170.89349365234375 94.79281616210938 186.23828125 90.66152954101563 196.86163330078125 87.71060180664063 202.17333984375 83.57931518554688 200.4027099609375 77.67745971679688 200.4027099609375 77.67745971679688 " />
        <polyline stroke="black" stroke-width="3" stroke-linecap="round" fill="transparent" stroke-linejoin="round" points="120.72781372070313 45.8074951171875 115.4161376953125 66.46395874023438 111.87503051757813 92.4320831298828 111.28485107421876 112.49836730957033 112.4652099609375 130.2039031982422 116.00634765625 143.18795776367188 120.72781372070313 149.67999267578125 127.81002807617188 153.22109985351563 137.25299072265625 153.81129455566406 147.87628173828125 149.08981323242188 157.909423828125 141.4174041748047 171.48370361328125 124.30206298828124 171.48370361328125 124.30206298828124 " />
        <polyline stroke="black" stroke-width="3" stroke-linecap="round" fill="transparent" stroke-linejoin="round" points="169.713134765625 56.430816650390625 167.3524169921875 66.46395874023438 165.58184814453125 80.62838745117188 164.4014892578125 97.74374389648438 164.4014892578125 119.58058166503906 163.2210693359375 146.7290802001953 163.2210693359375 146.7290802001953 " />
        <polyline stroke="black" stroke-width="3" stroke-linecap="round" fill="transparent" stroke-linejoin="round" points="105.97320556640624 171.51683044433594 98.30078125 183.91070556640625 91.80877685546876 198.07513427734375 85.31671142578125 211.64938354492188 81.775634765625 222.272705078125 81.775634765625 228.174560546875 85.90692138671875 229.35491943359375 85.90692138671875 229.35491943359375 " />
        <polyline stroke="black" stroke-width="3" stroke-linecap="round" fill="transparent" stroke-linejoin="round" points="162.040771484375 175.0579376220703 175.0247802734375 189.81256103515625 183.287353515625 201.02606201171875 191.54998779296875 214.0101318359375 199.222412109375 231.12548828125 199.222412109375 231.12548828125 " />
        </svg>