<?xml version="1.0" standalone="no"?>
    <svg width="256" height="256" xmlns="http://www.w3.org/2000/svg" version="1.1">
    <polyline stroke="black" stroke-width="3" stroke-linecap="round" fill="transparent" stroke-linejoin="round" points="65.20391845703125 89.56936645507813 83.68856811523438 86.48860168457031 102.1732177734375 83.4078369140625 112.44247436523438 82.38090515136719 134.69247436523438 81.35398864746094 154.54632568359375 80.32705688476563 169.9501953125 79.64242553710938 182.9578857421875 78.61550903320313 185.6964111328125 77.93089294433594 185.6964111328125 77.93089294433594 " />
        <polyline stroke="black" stroke-width="3" stroke-linecap="round" fill="transparent" stroke-linejoin="round" points="114.15396118164063 52.257781982421875 111.41552734375 61.50010681152344 108.67709350585938 70.742431640625 106.28094482421876 81.35398864746094 103.20013427734376 102.57707214355467 102.1732177734375 126.19631958007813 102.51556396484376 134.06939697265625 104.22705078125 135.43862915039063 104.22705078125 135.43862915039063 " />
        <polyline stroke="black" stroke-width="3" stroke-linecap="round" fill="transparent" stroke-linejoin="round" points="160.7080078125 41.98854064941406 160.0233154296875 48.492401123046875 159.338623046875 54.99626159667969 158.31170654296875 63.21165466308594 154.888671875 83.7501220703125 145.98861694335938 115.24246215820313 145.98861694335938 115.24246215820313 " />
        <polyline stroke="black" stroke-width="3" stroke-linecap="round" fill="transparent" stroke-linejoin="round" points="102.51550292968751 141.60015869140625 107.30783081054688 140.23094177246094 112.10015869140624 138.86172485351563 117.23480224609376 137.4924774169922 127.84628295898438 135.0963134765625 132.63861083984375 134.06939697265625 140.85400390625 132.35784912109375 143.93478393554688 132.0155487060547 143.93478393554688 132.0155487060547 " />
        <polyline stroke="black" stroke-width="3" stroke-linecap="round" fill="transparent" stroke-linejoin="round" points="92.58856201171875 169.66943359375 85.742431640625 184.388671875 78.89630126953125 199.10791015625 76.50009155273438 204.92718505859375 74.78857421875 209.719482421875 73.76165771484375 213.142578125 73.0770263671875 215.5386962890625 73.0770263671875 215.5386962890625 " />
        <polyline stroke="black" stroke-width="3" stroke-linecap="round" fill="transparent" stroke-linejoin="round" points="177.4810791015625 159.4001922607422 181.9310302734375 167.61558532714844 186.3809814453125 175.8309783935547 191.17327880859375 186.4425048828125 194.93865966796875 198.765625 194.93865966796875 198.765625 " />
        </svg>