<?xml version="1.0" standalone="no"?>
    <svg width="256" height="256" xmlns="http://www.w3.org/2000/svg" version="1.1">
    <polyline stroke="black" stroke-width="3" stroke-linecap="round" fill="transparent" stroke-linejoin="round" points="67 83 68 83 69 83 70 83 72 83 75 83 76 83 80 81 84 80 86 79 96 77 108 75 111 75 120 73 126 71 129 71 133 70 137 69 140 69 142 68 146 67 147 67 149 67 151 67 152 67 152 67 153 67 154 67 155 66 156 66 156 65 156 65 157 65 158 65 158 65 " />
        <polyline stroke="black" stroke-width="3" stroke-linecap="round" fill="transparent" stroke-linejoin="round" points="96 53 96 55 96 57 96 60 96 63 95 72 95 79 94 91 94 102 94 111 94 115 94 121 94 125 94 127 94 130 94 131 94 132 94 133 94 134 94 135 94 135 94 136 94 137 95 138 98 139 100 139 103 139 107 139 109 139 114 139 117 139 122 138 125 137 127 136 128 136 130 136 132 135 133 135 135 134 136 134 136 134 136 133 137 132 137 132 " />
        <polyline stroke="black" stroke-width="3" stroke-linecap="round" fill="transparent" stroke-linejoin="round" points="140 51 140 55 140 59 140 66 140 73 140 79 140 91 140 95 139 102 139 104 138 108 138 111 138 113 137 115 137 117 136 119 136 122 136 123 136 123 136 124 136 125 136 130 135 132 135 137 135 138 135 139 135 139 135 139 " />
        <polyline stroke="black" stroke-width="3" stroke-linecap="round" fill="transparent" stroke-linejoin="round" points="100 150 99 150 98 150 97 151 96 152 96 155 92 163 88 169 80 184 72 196 68 202 60 211 52 215 50 217 46 219 44 219 44 220 43 220 42 220 42 220 " />
        <polyline stroke="black" stroke-width="3" stroke-linecap="round" fill="transparent" stroke-linejoin="round" points="136 156 136 159 136 162 144 172 148 179 151 184 156 192 157 195 158 196 159 196 159 197 159 197 " />
        </svg>