<?xml version="1.0" standalone="no"?>
    <svg width="256" height="256" xmlns="http://www.w3.org/2000/svg" version="1.1">
    <polyline stroke="black" stroke-width="3" stroke-linecap="round" fill="transparent" stroke-linejoin="round" points="79 93 78 93 79 92 88 90 100 86 105 85 119 81 124 80 138 77 142 77 157 74 168 72 173 71 173 71 " />
        <polyline stroke="black" stroke-width="3" stroke-linecap="round" fill="transparent" stroke-linejoin="round" points="114 60 114 59 114 60 114 65 114 81 113 85 113 96 113 100 113 112 113 119 113 121 114 124 114 124 " />
        <polyline stroke="black" stroke-width="3" stroke-linecap="round" fill="transparent" stroke-linejoin="round" points="140 54 140 55 140 57 140 65 140 68 140 70 140 85 138 101 136 115 135 124 134 129 134 129 " />
        <polyline stroke="black" stroke-width="3" stroke-linecap="round" fill="transparent" stroke-linejoin="round" points="111 125 109 126 109 127 112 127 114 127 124 127 132 127 135 127 143 127 145 127 145 127 " />
        <polyline stroke="black" stroke-width="3" stroke-linecap="round" fill="transparent" stroke-linejoin="round" points="108 174 105 177 98 185 92 192 86 200 84 202 84 202 " />
        <polyline stroke="black" stroke-width="3" stroke-linecap="round" fill="transparent" stroke-linejoin="round" points="148 175 148 181 151 187 157 193 160 195 168 198 168 198 " />
        </svg>