<?xml version="1.0" standalone="no"?>
    <svg width="256" height="256" xmlns="http://www.w3.org/2000/svg" version="1.1">
    <polyline stroke="black" stroke-width="3" stroke-linecap="round" fill="transparent" stroke-linejoin="round" points="59.111968994140625 95.18692016601563 72.39288330078125 91.72235107421876 89.1383056640625 88.25776672363281 105.30636596679688 84.79318237304688 119.74212646484376 81.90603637695313 127.82611083984376 80.17375183105469 131.86813354492188 80.17375183105469 131.86813354492188 80.17375183105469 131.86813354492188 80.17375183105469 " />
        <polyline stroke="black" stroke-width="3" stroke-linecap="round" fill="transparent" stroke-linejoin="round" points="48.14080810546875 141.958740234375 60.266845703125 137.91673278808594 79.322021484375 132.71986389160156 100.1094970703125 126.945556640625 117.432373046875 122.90354919433594 128.98098754882813 119.43898010253906 136.487548828125 115.97439575195313 136.487548828125 115.97439575195313 " />
        <polyline stroke="black" stroke-width="3" stroke-linecap="round" fill="transparent" stroke-linejoin="round" points="82.20916748046875 118.28411865234376 83.364013671875 140.2264404296875 83.364013671875 167.3656463623047 83.364013671875 183.53369140625 83.364013671875 197.3919982910156 83.364013671875 204.32113647460935 83.364013671875 204.32113647460935 " />
        <polyline stroke="black" stroke-width="3" stroke-linecap="round" fill="transparent" stroke-linejoin="round" points="178.0625 62.850860595703125 191.92083740234375 58.80885314941406 206.3565673828125 54.766845703125 217.9051513671875 51.87969207763672 225.4117431640625 50.14739990234375 230.03118896484375 50.14739990234375 230.03118896484375 50.14739990234375 " />
        <polyline stroke="black" stroke-width="3" stroke-linecap="round" fill="transparent" stroke-linejoin="round" points="160.7396240234375 106.1580810546875 171.13336181640625 103.27093505859376 183.8367919921875 99.80636596679688 195.3853759765625 96.91921997070313 203.46942138671875 94.6094970703125 208.666259765625 92.877197265625 210.97601318359375 92.877197265625 209.24371337890625 92.877197265625 204.624267578125 95.7643585205078 204.624267578125 95.7643585205078 " />
        <polyline stroke="black" stroke-width="3" stroke-linecap="round" fill="transparent" stroke-linejoin="round" points="150.34588623046875 155.81704711914063 163.04931640625 154.6621856689453 179.2174072265625 152.35247802734375 196.540283203125 148.8878936767578 212.70831298828125 144.26844787597656 225.4117431640625 139.0715789794922 232.9183349609375 131.56500244140625 232.9183349609375 131.56500244140625 " />
        <polyline stroke="black" stroke-width="3" stroke-linecap="round" fill="transparent" stroke-linejoin="round" points="189.611083984375 56.49913024902344 189.611083984375 87.68032836914063 188.45623779296875 118.86154174804688 186.14654541015625 150.62017822265625 183.8367919921875 178.33680725097656 183.2593994140625 203.74371337890625 181.527099609375 222.79888916015625 181.527099609375 222.79888916015625 " />
        </svg>