<?xml version="1.0" standalone="no"?>
    <svg width="256" height="256" xmlns="http://www.w3.org/2000/svg" version="1.1">
    <polyline stroke="black" stroke-width="3" stroke-linecap="round" fill="transparent" stroke-linejoin="round" points="33.216400146484375 106.3726043701172 53.158721923828125 96.40147399902344 70.515869140625 89.01544189453125 81.59487915039063 84.95310974121094 89.71954345703125 81.99870300292969 93.7818603515625 80.89082336425781 93.7818603515625 80.89082336425781 " />
        <polyline stroke="black" stroke-width="3" stroke-linecap="round" fill="transparent" stroke-linejoin="round" points="56.482391357421875 149.21156311035156 76.42471313476563 140.3483428955078 91.56607055664063 133.33160400390625 94.8897705078125 131.8544158935547 94.8897705078125 131.8544158935547 " />
        <polyline stroke="black" stroke-width="3" stroke-linecap="round" fill="transparent" stroke-linejoin="round" points="67.93075561523438 125.94558715820313 67.93075561523438 155.12039184570313 69.407958984375 183.1873016357422 70.515869140625 195.37423706054688 71.62380981445313 202.76028442382813 72.36233520507813 205.71469116210935 72.36233520507813 205.71469116210935 " />
        <polyline stroke="black" stroke-width="3" stroke-linecap="round" fill="transparent" stroke-linejoin="round" points="162.47198486328125 73.50477600097656 175.3974609375 70.18106079101563 181.30633544921875 69.07315063476563 188.322998046875 68.70387268066406 191.27740478515625 68.70387268066406 191.27740478515625 68.70387268066406 " />
        <polyline stroke="black" stroke-width="3" stroke-linecap="round" fill="transparent" stroke-linejoin="round" points="129.23477172851563 124.4683837890625 146.59197998046875 117.08235168457033 163.57977294921875 110.80421447753906 176.1361083984375 107.8498077392578 183.89141845703125 107.1112060546875 183.89141845703125 107.1112060546875 " />
        <polyline stroke="black" stroke-width="3" stroke-linecap="round" fill="transparent" stroke-linejoin="round" points="131.81988525390625 148.10366821289063 157.6710205078125 138.5018310546875 180.93695068359375 131.11581420898438 201.61785888671875 124.0990753173828 208.26531982421875 121.88327026367188 208.26531982421875 121.88327026367188 " />
        <polyline stroke="black" stroke-width="3" stroke-linecap="round" fill="transparent" stroke-linejoin="round" points="164.687744140625 42.48345184326172 163.57977294921875 63.53363037109375 163.21051025390625 69.44245910644531 163.21051025390625 98.24797058105467 160.62542724609375 139.60972595214844 159.51751708984375 173.58547973632813 159.8868408203125 199.0672607421875 160.256103515625 210.14630126953125 160.9947509765625 223.0718688964844 160.9947509765625 223.0718688964844 " />
        </svg>