<?xml version="1.0" standalone="no"?>
    <svg width="256" height="256" xmlns="http://www.w3.org/2000/svg" version="1.1">
    <polyline stroke="black" stroke-width="3" stroke-linecap="round" fill="transparent" stroke-linejoin="round" points="76.00497436523438 97.65679931640624 87.2806396484375 93.35208129882813 112.16339111328124 85.65667724609375 138.83432006835938 80.98213195800781 148.07501220703125 80.10910034179688 167.7923583984375 78.53715515136719 172.3184814453125 78.18145751953125 172.81640625 78.142333984375 172.82037353515625 78.14199829101563 " />
        <polyline stroke="black" stroke-width="3" stroke-linecap="round" fill="transparent" stroke-linejoin="round" points="123.85153198242188 56.4512939453125 122.78594970703124 68.58050537109375 121.37164306640624 80.45147705078125 117.05453491210938 112.45687866210938 114.26962280273438 126.54644775390624 107.33306884765624 154.39944458007813 103.381591796875 165.46612548828125 96.08575439453124 180.75262451171875 93.3079833984375 186.97650146484375 91.20785522460938 188.6190185546875 86.9736328125 193.57553100585935 86.66387939453125 193.9652099609375 " />
        <polyline stroke="black" stroke-width="3" stroke-linecap="round" fill="transparent" stroke-linejoin="round" points="130.07720947265625 113.04118347167967 139.46810913085938 122.54562377929688 145.267822265625 128.72750854492188 166.96240234375 144.66885375976563 171.58441162109375 149.78085327148438 178.9219970703125 162.72817993164063 182.2100830078125 167.46438598632813 190.206787109375 175.59738159179688 196.336181640625 180.40640258789065 198.0848388671875 181.05894470214844 203.017822265625 181.07058715820313 203.29925537109375 181.06036376953125 " />
        </svg>