<?xml version="1.0" standalone="no"?>
    <svg width="256" height="256" xmlns="http://www.w3.org/2000/svg" version="1.1">
    <polyline stroke="black" stroke-width="3" stroke-linecap="round" fill="transparent" stroke-linejoin="round" points="110.36575317382813 70.34715270996094 110.36575317382813 70.34715270996094 " />
        <polyline stroke="black" stroke-width="3" stroke-linecap="round" fill="transparent" stroke-linejoin="round" points="153.109130859375 58.190765380859375 150.75628662109375 60.935760498046875 135.46279907226563 77.01353454589844 132.71780395507813 79.75851440429688 132.71780395507813 79.75851440429688 " />
        <polyline stroke="black" stroke-width="3" stroke-linecap="round" fill="transparent" stroke-linejoin="round" points="122.91424560546876 85.24847412109375 142.9134521484375 78.58209228515625 158.9912109375 73.48426818847656 170.36334228515625 69.5628662109375 178.99041748046875 64.857177734375 178.99041748046875 64.857177734375 " />
        <polyline stroke="black" stroke-width="3" stroke-linecap="round" fill="transparent" stroke-linejoin="round" points="124.48281860351563 68.778564453125 113.5029296875 93.09130859375 103.69937133789063 114.26690673828124 94.28799438476563 131.52110290527344 88.01373291015625 141.32464599609375 84.09234619140625 145.63818359375 84.09234619140625 145.63818359375 " />
        <polyline stroke="black" stroke-width="3" stroke-linecap="round" fill="transparent" stroke-linejoin="round" points="160.16766357421875 107.99266052246094 170.36334228515625 112.30622863769533 181.73541259765625 117.404052734375 189.18609619140625 120.93331909179688 197.02886962890625 124.46258544921876 197.02886962890625 124.46258544921876 " />
        <polyline stroke="black" stroke-width="3" stroke-linecap="round" fill="transparent" stroke-linejoin="round" points="121.73782348632813 140.5403594970703 " />
        <polyline stroke="black" stroke-width="3" stroke-linecap="round" fill="transparent" stroke-linejoin="round" points="69.9752197265625 222.88995361328125 " />
        <polyline stroke="black" stroke-width="3" stroke-linecap="round" fill="transparent" stroke-linejoin="round" points="114.67929077148438 178.57801818847656 128.0120849609375 186.42083740234375 142.52133178710938 195.0479431152344 171.931884765625 209.16500854492188 198.98956298828125 218.57635498046875 222.91015625 224.85064697265625 233.89013671875 226.02706909179688 233.89013671875 226.02706909179688 " />
        </svg>