<?xml version="1.0" standalone="no"?>
    <svg width="256" height="256" xmlns="http://www.w3.org/2000/svg" version="1.1">
    <polyline stroke="black" stroke-width="3" stroke-linecap="round" fill="transparent" stroke-linejoin="round" points="97.903076171875 87.02120971679688 112.816162109375 82.0501708984375 121.10125732421876 79.56463623046875 128.97201538085938 77.07913208007813 137.257080078125 74.17935180664063 151.7559814453125 68.37982177734375 163.35504150390625 63.408782958984375 170.3973388671875 60.094757080078125 172.05438232421875 59.26625061035156 172.05438232421875 59.26625061035156 " />
        <polyline stroke="black" stroke-width="3" stroke-linecap="round" fill="transparent" stroke-linejoin="round" points="79.26165771484375 136.31732177734375 89.2037353515625 132.17477416992188 98.73153686523438 128.44650268554688 108.25936889648438 125.13249206542967 126.48651123046876 118.91868591308594 142.64239501953125 113.119140625 156.72698974609375 106.4910888671875 163.35504150390625 101.93431091308594 173.71136474609375 90.33522033691406 173.71136474609375 90.33522033691406 " />
        <polyline stroke="black" stroke-width="3" stroke-linecap="round" fill="transparent" stroke-linejoin="round" points="114.05892944335938 68.37982177734375 110.33065795898438 80.80740356445313 100.38861083984376 118.91868591308594 96.66033935546876 135.90306091308594 95.41754150390624 140.87408447265625 93.34628295898438 146.6736297607422 92.51776123046876 148.33065795898438 92.51776123046876 148.33065795898438 " />
        <polyline stroke="black" stroke-width="3" stroke-linecap="round" fill="transparent" stroke-linejoin="round" points="142.64239501953125 58.437744140625 141.39962768554688 67.55130004882813 139.74261474609375 78.32188415527344 138.08563232421875 89.09246826171875 134.77157592773438 112.70489501953124 132.70028686523438 125.54673767089844 130.6290283203125 137.97430419921875 128.97201538085938 147.9163818359375 128.97201538085938 147.9163818359375 " />
        <polyline stroke="black" stroke-width="3" stroke-linecap="round" fill="transparent" stroke-linejoin="round" points="83.81845092773438 162.00100708007813 90.86077880859376 159.9297332763672 97.48876953125 157.4442138671875 109.50213623046876 152.47317504882813 115.30169677734376 149.98765563964844 124.82952880859376 145.84512329101563 130.21478271484375 142.9453582763672 130.21478271484375 142.9453582763672 " />
        <polyline stroke="black" stroke-width="3" stroke-linecap="round" fill="transparent" stroke-linejoin="round" points="99.97430419921876 164.07225036621094 97.07455444335938 170.2860565185547 93.34628295898438 177.32835388183594 83.81845092773438 193.06997680664065 75.119140625 203.42630004882813 68.07684326171875 210.05435180664065 62.277313232421875 213.36837768554688 60.206024169921875 214.1968688964844 56.477752685546875 214.61114501953125 56.06353759765625 214.61114501953125 57.72052001953125 214.61114501953125 61.863037109375 214.61114501953125 78.01889038085938 212.9541015625 114.05892944335938 205.91180419921875 123.58676147460938 203.42630004882813 148.02767944335938 196.7982482910156 153.8272705078125 195.1412353515625 167.91180419921875 194.72698974609375 167.91180419921875 194.72698974609375 " />
        </svg>