<?xml version="1.0" standalone="no"?>
    <svg width="256" height="256" xmlns="http://www.w3.org/2000/svg" version="1.1">
    <polyline stroke="black" stroke-width="3" stroke-linecap="round" fill="transparent" stroke-linejoin="round" points="80.22430419921875 88.10812377929688 89.97711181640625 83.23171997070313 100.948974609375 78.35533142089844 124.11181640625 71.44711303710938 161.091064453125 65.35162353515625 182.22210693359375 64.53889465332031 194.8194580078125 65.75799560546875 194.8194580078125 65.75799560546875 " />
        <polyline stroke="black" stroke-width="3" stroke-linecap="round" fill="transparent" stroke-linejoin="round" points="87.13253784179688 131.18289184570313 96.88531494140624 128.74468994140625 106.63812255859376 126.30648803710938 126.95639038085938 122.24284362792967 137.92828369140625 119.80465698242188 171.6566162109375 109.64549255371094 182.22210693359375 103.95639038085938 182.22210693359375 103.95639038085938 " />
        <polyline stroke="black" stroke-width="3" stroke-linecap="round" fill="transparent" stroke-linejoin="round" points="119.64181518554688 39.750579833984375 114.76544189453124 64.94526672363281 112.73358154296876 78.35533142089844 111.51449584960938 91.76541137695313 110.29537963867188 115.74099731445313 110.29537963867188 133.2147216796875 110.70175170898438 142.56112670898438 113.13995361328124 144.9993133544922 113.13995361328124 144.9993133544922 " />
        <polyline stroke="black" stroke-width="3" stroke-linecap="round" fill="transparent" stroke-linejoin="round" points="154.99560546875 38.53148651123047 158.24658203125 50.31609344482422 161.49749755859375 63.726165771484375 163.9356689453125 77.5426025390625 162.716552734375 131.18289184570313 162.716552734375 131.18289184570313 " />
        <polyline stroke="black" stroke-width="3" stroke-linecap="round" fill="transparent" stroke-linejoin="round" points="100.5426025390625 166.94305419921875 109.482666015625 162.06668090820313 118.42269897460938 157.59666442871094 127.36273193359376 153.93936157226563 153.3701171875 145.4056854248047 172.875732421875 138.09109497070313 172.875732421875 138.09109497070313 " />
        <polyline stroke="black" stroke-width="3" stroke-linecap="round" fill="transparent" stroke-linejoin="round" points="156.62109375 136.05926513671875 148.900146484375 153.1266326904297 142.39828491210938 168.5685272216797 138.33465576171875 175.47674560546875 127.36273193359376 188.0740966796875 103.38717651367188 206.76690673828125 92.8216552734375 213.67514038085935 87.94528198242188 216.92605590820313 87.13253784179688 217.3324279785156 89.97711181640625 217.3324279785156 125.33090209960938 212.8623962402344 139.5537109375 211.643310546875 181.409423828125 210.4241943359375 199.69586181640625 211.643310546875 199.69586181640625 211.643310546875 " />
        </svg>