<?xml version="1.0" standalone="no"?>
    <svg width="256" height="256" xmlns="http://www.w3.org/2000/svg" version="1.1">
    <polyline stroke="black" stroke-width="3" stroke-linecap="round" fill="transparent" stroke-linejoin="round" points="89 55 107 53 129 47 139 44 160 39 175 35 187 32 191 32 192 31 192 31 " />
        <polyline stroke="black" stroke-width="3" stroke-linecap="round" fill="transparent" stroke-linejoin="round" points="74 90 81 90 98 86 121 80 142 74 151 72 167 69 177 66 179 64 179 64 " />
        <polyline stroke="black" stroke-width="3" stroke-linecap="round" fill="transparent" stroke-linejoin="round" points="107 50 107 72 107 90 105 107 105 112 104 118 104 118 " />
        <polyline stroke="black" stroke-width="3" stroke-linecap="round" fill="transparent" stroke-linejoin="round" points="151 39 151 56 151 74 151 91 148 106 148 106 " />
        <polyline stroke="black" stroke-width="3" stroke-linecap="round" fill="transparent" stroke-linejoin="round" points="116 148 138 147 152 147 158 147 162 147 168 147 168 147 " />
        <polyline stroke="black" stroke-width="3" stroke-linecap="round" fill="transparent" stroke-linejoin="round" points="133 128 133 142 133 156 135 168 135 177 135 177 " />
        <polyline stroke="black" stroke-width="3" stroke-linecap="round" fill="transparent" stroke-linejoin="round" points="107 190 124 186 144 184 163 183 181 183 197 183 204 183 204 183 " />
        </svg>