<?xml version="1.0" standalone="no"?>
    <svg width="256" height="256" xmlns="http://www.w3.org/2000/svg" version="1.1">
    <polyline stroke="black" stroke-width="3" stroke-linecap="round" fill="transparent" stroke-linejoin="round" points="98.93597412109376 44.14530944824219 97.10897827148438 53.889251708984375 92.84600830078124 69.11416625976563 84.32003784179688 91.0380401611328 75.79409790039063 108.08993530273438 67.87713623046875 122.09686279296876 61.78717041015625 129.40481567382813 57.524200439453125 131.2318115234375 62.39617919921875 125.141845703125 77.0120849609375 112.9619140625 100.762939453125 96.51901245117188 128.77679443359375 79.46710205078125 157.39959716796875 66.67817687988281 178.7144775390625 57.54322814941406 189.6763916015625 50.844268798828125 195.15740966796875 45.97229766845703 195.15740966796875 45.97229766845703 " />
        <polyline stroke="black" stroke-width="3" stroke-linecap="round" fill="transparent" stroke-linejoin="round" points="140.34771728515625 35.619361877441406 131.82177734375 69.72315979003906 122.07781982421876 103.2179718017578 111.72488403320313 136.10377502441406 101.3719482421875 161.0726318359375 90.41000366210938 182.38751220703125 81.88406372070313 199.43939208984375 81.88406372070313 199.43939208984375 " />
        <polyline stroke="black" stroke-width="3" stroke-linecap="round" fill="transparent" stroke-linejoin="round" points="116.59686279296876 150.71969604492188 127.55877685546876 154.982666015625 145.82867431640625 161.68162536621094 170.18853759765625 172.64356994628906 190.8944091796875 184.21450805664065 215.86328125 203.0933837890625 215.86328125 203.0933837890625 " />
        </svg>