<?xml version="1.0" standalone="no"?>
    <svg width="256" height="256" xmlns="http://www.w3.org/2000/svg" version="1.1">
    <polyline stroke="black" stroke-width="3" stroke-linecap="round" fill="transparent" stroke-linejoin="round" points="54.12322998046875 102.7942352294922 66.73275756835938 104.0986785888672 76.29861450195313 103.2290496826172 84.125244140625 101.9246063232422 90.21258544921876 101.48980712890624 91.95181274414063 102.3594207763672 84.99484252929688 113.66453552246094 69.77645874023438 133.66586303710938 56.297271728515625 148.88424682617188 48.035888671875 156.71087646484375 44.557373046875 158.88491821289063 45.861785888671875 154.9716339111328 50.20989990234375 148.0146484375 68.90679931640625 129.75254821777344 91.51699829101563 109.31640625 113.6923828125 88.88027954101563 121.95382690429688 78.87960815429688 121.95382690429688 78.87960815429688 " />
        <polyline stroke="black" stroke-width="3" stroke-linecap="round" fill="transparent" stroke-linejoin="round" points="60.2105712890625 127.57850646972656 55.862457275390625 165.8419189453125 54.99285888671875 198.8876037597656 54.55804443359375 214.97564697265625 54.12322998046875 218.888916015625 54.12322998046875 218.888916015625 " />
        <polyline stroke="black" stroke-width="3" stroke-linecap="round" fill="transparent" stroke-linejoin="round" points="87.16891479492188 172.7989044189453 99.7784423828125 184.10400390625 102.82211303710938 185.84323120117188 102.82211303710938 185.84323120117188 " />
        <polyline stroke="black" stroke-width="3" stroke-linecap="round" fill="transparent" stroke-linejoin="round" points="144.99884033203125 82.35809326171875 146.73812866210938 81.48847961425781 155.869140625 78.00996398925781 162.3912353515625 75.40110778808594 169.34832763671875 72.792236328125 173.6964111328125 71.92262268066406 171.9571533203125 77.57518005371094 161.95648193359375 91.9239501953125 147.17288208007813 109.751220703125 139.3463134765625 118.0126495361328 137.17221069335938 120.62150573730467 136.73745727539063 120.62150573730467 143.25958251953125 117.5778350830078 161.52166748046875 110.18601989746094 185.00146484375 100.62017822265624 207.6116943359375 89.74989318847656 214.13385009765625 84.09733581542969 214.13385009765625 84.09733581542969 " />
        <polyline stroke="black" stroke-width="3" stroke-linecap="round" fill="transparent" stroke-linejoin="round" points="161.95648193359375 82.35809326171875 154.1298828125 126.27406311035156 148.47735595703125 161.49380493164063 143.25958251953125 186.27804565429688 140.65069580078125 195.84390258789065 136.73745727539063 201.0616455078125 136.73745727539063 201.0616455078125 " />
        <polyline stroke="black" stroke-width="3" stroke-linecap="round" fill="transparent" stroke-linejoin="round" points="158.91278076171875 155.40643310546875 187.6103515625 186.27804565429688 206.7420654296875 207.1490173339844 225.873779296875 223.67181396484375 235.87445068359375 230.19400024414065 235.87445068359375 230.19400024414065 " />
        </svg>