<?xml version="1.0" standalone="no"?>
    <svg width="256" height="256" xmlns="http://www.w3.org/2000/svg" version="1.1">
    <polyline stroke="black" stroke-width="3" stroke-linecap="round" fill="transparent" stroke-linejoin="round" points="36.50592041015625 79.29908752441409 37.1199951171875 114.01556396484376 37.73406982421875 148.73204040527344 37.79705810546875 180.56674194335935 37.74383544921875 195.41635131835935 37.08831787109375 212.42172241210935 36.9228515625 216.7704162597656 36.932830810546875 219.55206298828125 36.99322509765625 220.01596069335935 36.99749755859375 220.048828125 " />
        <polyline stroke="black" stroke-width="3" stroke-linecap="round" fill="transparent" stroke-linejoin="round" points="68.20989990234375 93.6291198730469 72.27923583984375 93.0115203857422 76.34857177734375 92.3939208984375 83.51068115234375 92.46627807617188 85.7685546875 93.34381103515624 90.278076171875 100.37158203125 94.36776733398438 114.09019470214844 96.25387573242188 145.0506591796875 95.29901123046876 160.1361083984375 93.04953002929688 179.3853759765625 92.01644897460938 192.23031616210935 89.84579467773438 209.380615234375 89.60943603515625 206.73162841796875 " />
        <polyline stroke="black" stroke-width="3" stroke-linecap="round" fill="transparent" stroke-linejoin="round" points="56.70513916015625 148.63760375976563 67.534912109375 147.61941528320313 78.36468505859375 146.60122680664063 82.48959350585938 146.70433044433594 86.58880615234375 147.3245849609375 87.3828125 148.50997924804688 87.714599609375 149.00534057617188 " />
        <polyline stroke="black" stroke-width="3" stroke-linecap="round" fill="transparent" stroke-linejoin="round" points="66.44888305664063 200.66461181640625 67.8980712890625 200.34719848632813 69.34725952148438 200.02978515625 " />
        <polyline stroke="black" stroke-width="3" stroke-linecap="round" fill="transparent" stroke-linejoin="round" points="151.57101440429688 29.397857666015625 142.98287963867188 48.63439178466797 134.39474487304688 67.87092590332031 127.00482177734376 74.84254455566406 124.93173217773438 75.96150207519531 " />
        <polyline stroke="black" stroke-width="3" stroke-linecap="round" fill="transparent" stroke-linejoin="round" points="106.26269531249997 82.270751953125 115.81842041015624 79.26296997070313 125.3741455078125 76.25518798828125 136.62188720703125 72.54592895507813 148.7186279296875 68.85714721679688 171.5723876953125 62.92265319824219 185.8956298828125 60.91203308105469 191.3433837890625 60.916778564453125 193.3922119140625 62.78218078613281 197.7166748046875 61.65473937988281 197.99908447265625 61.58111572265625 " />
        <polyline stroke="black" stroke-width="3" stroke-linecap="round" fill="transparent" stroke-linejoin="round" points="124.052001953125 129.22427368164063 128.69918823242188 133.3937225341797 133.34637451171875 137.56317138671875 134.15234375 138.2876434326172 " />
        <polyline stroke="black" stroke-width="3" stroke-linecap="round" fill="transparent" stroke-linejoin="round" points="187.7384033203125 103.07032775878906 179.6419677734375 116.14627075195313 171.5455322265625 129.2222137451172 159.33837890625 145.5929412841797 157.12371826171875 148.03086853027344 " />
        <polyline stroke="black" stroke-width="3" stroke-linecap="round" fill="transparent" stroke-linejoin="round" points="116.7181396484375 155.75343322753906 138.19525146484375 150.94778442382813 159.67236328125 146.1421356201172 169.389892578125 143.06307983398438 178.8355712890625 139.8860321044922 193.88885498046875 136.27520751953125 198.0164794921875 133.55343627929688 196.145263671875 133.8690185546875 " />
        <polyline stroke="black" stroke-width="3" stroke-linecap="round" fill="transparent" stroke-linejoin="round" points="152.04730224609375 63.6519775390625 149.95196533203125 86.01458740234375 147.85662841796875 108.377197265625 138.382080078125 156.4829559326172 131.04010009765625 177.5106201171875 115.7996826171875 205.5020751953125 108.97247314453124 215.522705078125 97.28167724609376 233.9412841796875 94.55612182617188 238.505615234375 93.50372314453124 241.3094787597656 93.3984375 241.58984375 " />
        <polyline stroke="black" stroke-width="3" stroke-linecap="round" fill="transparent" stroke-linejoin="round" points="140.92608642578125 180.717529296875 163.9520263671875 195.88189697265625 186.97796630859375 211.0462646484375 196.6981201171875 220.640869140625 205.406005859375 234.0123291015625 206.109375 236.79269409179688 " />
        </svg>