<?xml version="1.0" standalone="no"?>
    <svg width="256" height="256" xmlns="http://www.w3.org/2000/svg" version="1.1">
    <polyline stroke="black" stroke-width="3" stroke-linecap="round" fill="transparent" stroke-linejoin="round" points="74.40106201171875 70.22384643554688 74.40106201171875 87.00802612304688 73.95932006835938 98.9336395263672 73.075927734375 110.85923767089844 70.86752319335938 135.1521453857422 69.10076904296875 144.86929321289063 66.00897216796875 157.236572265625 63.35882568359375 162.97854614257813 62.03375244140625 164.74530029296875 62.03375244140625 164.74530029296875 " />
        <polyline stroke="black" stroke-width="3" stroke-linecap="round" fill="transparent" stroke-linejoin="round" points="67.333984375 76.84918212890625 75.72607421875 69.34048461914063 78.81793212890625 67.13203430175781 81.90975952148438 65.36528015136719 88.09335327148438 63.156829833984375 93.39364624023438 62.71514892578125 98.252197265625 64.48190307617188 103.11083984375 68.89878845214844 109.73617553710938 81.707763671875 115.47811889648438 99.37533569335938 118.12823486328124 120.13470458984376 117.244873046875 140.45242309570313 113.2696533203125 155.91152954101563 107.08602905273438 168.27880859375 107.08602905273438 168.27880859375 " />
        <polyline stroke="black" stroke-width="3" stroke-linecap="round" fill="transparent" stroke-linejoin="round" points="73.075927734375 138.68565368652344 82.35140991210938 132.94369506835938 84.55990600585938 131.61862182617188 89.86016845703125 129.85186767578125 89.86016845703125 129.85186767578125 " />
        <polyline stroke="black" stroke-width="3" stroke-linecap="round" fill="transparent" stroke-linejoin="round" points="61.150360107421875 174.020751953125 74.40106201171875 170.04556274414063 79.70126342773438 167.83712768554688 85.88494873046875 164.74530029296875 98.252197265625 156.79489135742188 106.20263671875 151.05294799804688 106.20263671875 151.05294799804688 " />
        <polyline stroke="black" stroke-width="3" stroke-linecap="round" fill="transparent" stroke-linejoin="round" points="168.4808349609375 44.60588836669922 160.9720458984375 60.948394775390625 158.32196044921875 64.04020690917969 155.2301025390625 67.13203430175781 149.48812866210938 71.99061584472656 146.8380126953125 74.19905090332031 142.86279296875 77.29087829589844 140.65438842773438 79.05763244628906 139.77099609375 79.49932861328125 140.212646484375 79.49932861328125 145.07125854492188 79.49932861328125 156.11346435546875 78.17425537109375 169.80584716796875 75.9658203125 183.93988037109375 73.75736999511719 194.5404052734375 71.10723876953125 197.63226318359375 70.22384643554688 197.63226318359375 70.22384643554688 " />
        <polyline stroke="black" stroke-width="3" stroke-linecap="round" fill="transparent" stroke-linejoin="round" points="129.61215209960938 113.06768798828124 134.029052734375 124.55162048339844 135.7957763671875 127.20175170898438 139.32928466796875 131.17694091796875 144.1878662109375 134.26876831054688 153.46337890625 135.1521453857422 172.45599365234375 127.20175170898438 172.45599365234375 127.20175170898438 " />
        <polyline stroke="black" stroke-width="3" stroke-linecap="round" fill="transparent" stroke-linejoin="round" points="215.2998046875 95.40013122558594 204.69927978515625 106.00067138671876 194.98211669921875 115.27615356445313 181.7314453125 125.87667846679688 154.34674072265625 146.19436645507813 126.07861328125 166.0703582763672 116.36151123046876 172.69570922851563 113.71136474609376 174.4624481201172 111.50289916992188 177.1125946044922 114.5947265625 177.1125946044922 119.89498901367188 177.1125946044922 146.8380126953125 172.25401306152344 164.505615234375 168.27880859375 172.897705078125 165.628662109375 194.0987548828125 153.70309448242188 194.0987548828125 153.70309448242188 " />
        <polyline stroke="black" stroke-width="3" stroke-linecap="round" fill="transparent" stroke-linejoin="round" points="178.19793701171875 94.51675415039063 172.45599365234375 103.79222106933594 168.0390625 113.95108032226563 155.67181396484375 142.2191619873047 137.120849609375 183.7379150390625 132.26229858398438 196.105224609375 124.75360107421876 212.44769287109375 119.45330810546876 223.931640625 119.45330810546876 223.931640625 " />
        <polyline stroke="black" stroke-width="3" stroke-linecap="round" fill="transparent" stroke-linejoin="round" points="163.1805419921875 170.92893981933594 176.43115234375 177.55429077148438 182.173095703125 181.52947998046875 187.473388671875 185.50469970703125 197.63226318359375 195.22183227539065 206.02435302734375 205.38067626953125 206.02435302734375 205.38067626953125 " />
        </svg>