<?xml version="1.0" standalone="no"?>
    <svg width="256" height="256" xmlns="http://www.w3.org/2000/svg" version="1.1">
    <polyline stroke="black" stroke-width="3" stroke-linecap="round" fill="transparent" stroke-linejoin="round" points="58.08929443359375 76.28504943847656 58.08929443359375 106.85076904296876 57.676239013671875 130.39463806152344 57.676239013671875 140.30783081054688 57.26318359375 153.11239624023438 56.85015869140625 159.72119140625 56.0240478515625 162.612548828125 55.19793701171875 162.1995086669922 54.784881591796875 161.37339782714844 54.784881591796875 161.37339782714844 " />
        <polyline stroke="black" stroke-width="3" stroke-linecap="round" fill="transparent" stroke-linejoin="round" points="61.3936767578125 71.74148559570313 71.719970703125 66.78488159179688 76.26351928710938 65.1326904296875 81.22015380859375 64.30657958984375 89.48114013671875 63.06744384765625 95.67684936523438 63.89353942871094 100.22042846679688 66.78488159179688 105.177001953125 77.11114501953125 108.068359375 99.8289031982422 108.068359375 115.52482604980467 103.9378662109375 151.87322998046875 101.87265014648438 158.48204040527344 96.08993530273438 166.3300018310547 96.08993530273438 166.3300018310547 " />
        <polyline stroke="black" stroke-width="3" stroke-linecap="round" fill="transparent" stroke-linejoin="round" points="63.87200927734375 128.742431640625 75.43743896484375 118.8292236328125 80.39401245117188 116.35092163085938 84.93759155273438 113.87261962890624 93.19857788085938 111.39431762695313 94.024658203125 112.22042846679688 93.61163330078124 120.48143005371094 93.61163330078124 120.48143005371094 " />
        <polyline stroke="black" stroke-width="3" stroke-linecap="round" fill="transparent" stroke-linejoin="round" points="63.458953857421875 156.00375366210938 74.1982421875 155.17764282226563 80.39401245117188 153.11239624023438 86.58978271484375 150.22103881835938 94.43771362304688 146.09054565429688 103.11175537109376 140.72088623046875 103.11175537109376 140.72088623046875 " />
        <polyline stroke="black" stroke-width="3" stroke-linecap="round" fill="transparent" stroke-linejoin="round" points="148.96038818359375 41.58882141113281 146.48202514648438 55.632530212402344 144.829833984375 61.00218200683594 142.3515625 66.37184143066406 136.98190307617188 75.45895385742188 132.43832397460938 81.65469360351563 129.54696655273438 84.54605102539063 128.30783081054688 85.78520202636719 129.13397216796875 85.37216186523438 134.9166259765625 83.71995544433594 146.89511108398438 80.00250244140625 162.177978515625 75.87199401855469 175.3956298828125 72.154541015625 184.895751953125 70.08929443359375 190.678466796875 69.26318359375 190.678466796875 69.26318359375 " />
        <polyline stroke="black" stroke-width="3" stroke-linecap="round" fill="transparent" stroke-linejoin="round" points="130.37310791015625 113.45956420898438 134.09054565429688 123.78582763671876 136.98190307617188 125.02496337890624 141.11239624023438 125.4380340576172 146.89511108398438 124.61192321777344 146.89511108398438 124.61192321777344 " />
        <polyline stroke="black" stroke-width="3" stroke-linecap="round" fill="transparent" stroke-linejoin="round" points="196.87420654296875 94.4592742919922 177.8739013671875 114.69871520996094 169.6129150390625 122.5466766357422 144.00375366210938 145.677490234375 129.96005249023438 156.4167938232422 125.00341796875 159.72119140625 118.39462280273438 164.67779541015625 117.9815673828125 164.67779541015625 119.220703125 163.85171508789063 129.54696655273438 158.89511108398438 147.72119140625 151.46018981933594 175.80859375 142.3730926513672 190.678466796875 137.82955932617188 200.5916748046875 133.69903564453125 200.5916748046875 133.69903564453125 " />
        <polyline stroke="black" stroke-width="3" stroke-linecap="round" fill="transparent" stroke-linejoin="round" points="170.43896484375 103.95941162109376 160.5257568359375 118.41616821289063 155.1561279296875 128.32937622070313 149.78646850585938 139.894775390625 136.98190307617188 175.00405883789063 129.54696655273438 197.72183227539065 125.00341796875 210.11334228515625 122.93817138671876 215.48297119140625 122.525146484375 216.72213745117188 122.525146484375 216.72213745117188 " />
        <polyline stroke="black" stroke-width="3" stroke-linecap="round" fill="transparent" stroke-linejoin="round" points="156.80828857421875 168.80828857421875 180.7652587890625 179.547607421875 187.3740234375 183.6781005859375 206.787353515625 200.20013427734375 206.787353515625 200.20013427734375 " />
        </svg>