<?xml version="1.0" standalone="no"?>
    <svg width="256" height="256" xmlns="http://www.w3.org/2000/svg" version="1.1">
    <polyline stroke="black" stroke-width="3" stroke-linecap="round" fill="transparent" stroke-linejoin="round" points="58 85 59 85 59 87 59 91 59 98 59 101 58 115 57 128 57 137 57 140 57 140 " />
        <polyline stroke="black" stroke-width="3" stroke-linecap="round" fill="transparent" stroke-linejoin="round" points="64 86 64 85 66 84 70 83 73 83 78 83 84 83 88 82 90 82 92 82 92 84 92 88 92 94 92 104 91 113 91 116 90 129 89 140 89 147 88 151 88 152 88 152 " />
        <polyline stroke="black" stroke-width="3" stroke-linecap="round" fill="transparent" stroke-linejoin="round" points="64 117 63 118 64 117 66 117 73 116 80 115 86 115 87 116 87 116 " />
        <polyline stroke="black" stroke-width="3" stroke-linecap="round" fill="transparent" stroke-linejoin="round" points="63 157 63 158 68 157 76 153 84 152 88 151 88 151 " />
        <polyline stroke="black" stroke-width="3" stroke-linecap="round" fill="transparent" stroke-linejoin="round" points="144 53 144 51 144 50 143 56 143 62 144 67 146 70 146 70 " />
        <polyline stroke="black" stroke-width="3" stroke-linecap="round" fill="transparent" stroke-linejoin="round" points="124 82 123 82 119 83 118 84 118 85 122 84 130 81 142 78 156 73 172 69 181 67 183 66 187 67 187 67 " />
        <polyline stroke="black" stroke-width="3" stroke-linecap="round" fill="transparent" stroke-linejoin="round" points="132 105 132 104 131 103 130 103 130 105 131 106 133 110 137 115 140 118 140 118 " />
        <polyline stroke="black" stroke-width="3" stroke-linecap="round" fill="transparent" stroke-linejoin="round" points="183 87 181 89 176 96 171 106 166 115 162 120 162 120 " />
        <polyline stroke="black" stroke-width="3" stroke-linecap="round" fill="transparent" stroke-linejoin="round" points="120 148 118 148 118 149 120 148 128 145 142 140 159 137 173 135 182 134 184 134 188 132 189 132 189 131 189 131 " />
        <polyline stroke="black" stroke-width="3" stroke-linecap="round" fill="transparent" stroke-linejoin="round" points="151 88 150 89 150 95 150 104 150 108 148 127 144 149 137 170 128 187 121 199 118 204 118 204 " />
        <polyline stroke="black" stroke-width="3" stroke-linecap="round" fill="transparent" stroke-linejoin="round" points="151 150 151 148 151 147 149 147 149 150 152 155 158 166 166 179 176 190 184 197 187 198 197 203 201 204 201 204 " />
        </svg>