<?xml version="1.0" standalone="no"?>
    <svg width="256" height="256" xmlns="http://www.w3.org/2000/svg" version="1.1">
    <polyline stroke="black" stroke-width="3" stroke-linecap="round" fill="transparent" stroke-linejoin="round" points="102.03094482421876 45.715789794921875 110.79696655273438 52.8121337890625 116.64105224609376 58.65618896484375 123.31991577148438 67.00482177734375 128.3291015625 77.85804748535156 128.3291015625 77.85804748535156 " />
        <polyline stroke="black" stroke-width="3" stroke-linecap="round" fill="transparent" stroke-linejoin="round" points="58.2005615234375 100.81680297851563 80.324462890625 94.1378936767578 88.673095703125 92.46817016601563 97.85662841796876 90.79843139648438 116.22360229492188 87.87640380859375 125.40707397460938 87.04154968261719 146.2786865234375 86.20668029785156 163.810791015625 86.20668029785156 176.751220703125 86.62411499023438 183.84759521484375 87.87640380859375 183.84759521484375 87.87640380859375 " />
        <polyline stroke="black" stroke-width="3" stroke-linecap="round" fill="transparent" stroke-linejoin="round" points="77.81988525390625 145.0645751953125 91.17767333984376 140.8902587890625 99.10888671875 139.22052001953125 107.04010009765624 137.5508270263672 115.80615234375 136.29852294921875 132.08602905273438 133.79393005371094 152.5401611328125 131.28933715820313 163.810791015625 129.61959838867188 167.1502685546875 128.78475952148438 167.1502685546875 128.78475952148438 " />
        <polyline stroke="black" stroke-width="3" stroke-linecap="round" fill="transparent" stroke-linejoin="round" points="59.452850341796875 193.4866943359375 78.2373046875 188.47747802734375 88.673095703125 186.39031982421875 99.52630615234376 184.7206115722656 123.31991577148438 182.63345336914065 151.287841796875 181.798583984375 183.0126953125 180.12884521484375 198.8751220703125 178.45913696289063 198.8751220703125 178.45913696289063 " />
        </svg>