<?xml version="1.0" standalone="no"?>
    <svg width="256" height="256" xmlns="http://www.w3.org/2000/svg" version="1.1">
    <polyline stroke="black" stroke-width="3" stroke-linecap="round" fill="transparent" stroke-linejoin="round" points="109.822998046875 37.19530487060547 124.411865234375 41.17408752441406 130.158935546875 44.26869201660156 135.90609741210938 47.805381774902344 141.21112060546875 51.784149169921875 150.05282592773438 60.18379211425781 158.01043701171875 72.1201171875 158.01043701171875 72.1201171875 " />
        <polyline stroke="black" stroke-width="3" stroke-linecap="round" fill="transparent" stroke-linejoin="round" points="76.66650390625 103.95034790039063 93.023681640625 96.43487548828124 111.14926147460938 92.45608520507813 142.97946166992188 90.24566650390624 161.547119140625 90.687744140625 169.94671630859375 91.1298370361328 184.9776611328125 91.1298370361328 188.51434326171875 91.1298370361328 188.9564208984375 91.1298370361328 188.9564208984375 91.1298370361328 " />
        <polyline stroke="black" stroke-width="3" stroke-linecap="round" fill="transparent" stroke-linejoin="round" points="85.50827026367188 124.28630065917967 100.09710693359376 118.5391845703125 106.28631591796876 116.77085876464844 113.35971069335938 115.444580078125 120.43307495117188 114.56040954589844 127.94857788085938 114.11833190917967 142.09530639648438 114.56040954589844 155.35791015625 117.65501403808594 155.35791015625 117.65501403808594 " />
        <polyline stroke="black" stroke-width="3" stroke-linecap="round" fill="transparent" stroke-linejoin="round" points="68.708984375 189.27297973632813 91.69744873046876 176.8945770263672 101.42333984375 173.35787963867188 112.033447265625 170.26327514648438 123.0855712890625 168.05284118652344 146.958251953125 166.72659301757813 170.8309326171875 167.6107635498047 193.3773193359375 169.82119750976563 212.38702392578125 173.7999725341797 212.38702392578125 173.7999725341797 " />
        </svg>