<?xml version="1.0" standalone="no"?>
    <svg width="256" height="256" xmlns="http://www.w3.org/2000/svg" version="1.1">
    <polyline stroke="black" stroke-width="3" stroke-linecap="round" fill="transparent" stroke-linejoin="round" points="59.432373046875 98.25111389160156 59.9561767578125 120.77662658691406 59.9561767578125 147.49295043945313 58.908477783203125 169.49464416503906 57.86077880859375 184.16244506835935 56.289276123046875 197.78253173828125 53.14617919921875 211.40261840820313 50.003082275390625 214.0218811035156 50.003082275390625 214.0218811035156 " />
        <polyline stroke="black" stroke-width="3" stroke-linecap="round" fill="transparent" stroke-linejoin="round" points="21.19134521484375 138.0636749267578 " />
        <polyline stroke="black" stroke-width="3" stroke-linecap="round" fill="transparent" stroke-linejoin="round" points="64.67086791992188 107.15655517578124 " />
        <polyline stroke="black" stroke-width="3" stroke-linecap="round" fill="transparent" stroke-linejoin="round" points="80.3863525390625 112.91891479492188 " />
        <polyline stroke="black" stroke-width="3" stroke-linecap="round" fill="transparent" stroke-linejoin="round" points="85 104 " />
        <polyline stroke="black" stroke-width="3" stroke-linecap="round" fill="transparent" stroke-linejoin="round" points="99.76876831054688 141.20677185058594 " />
        <polyline stroke="black" stroke-width="3" stroke-linecap="round" fill="transparent" stroke-linejoin="round" points="99 141 " />
        <polyline stroke="black" stroke-width="3" stroke-linecap="round" fill="transparent" stroke-linejoin="round" points="128.58047485351563 111.87120056152344 128.58047485351563 119.72894287109376 129.628173828125 127.58670043945313 131.19976806640625 135.96827697753906 132.24746704101563 138.0636749267578 132.24746704101563 138.0636749267578 " />
        <polyline stroke="black" stroke-width="3" stroke-linecap="round" fill="transparent" stroke-linejoin="round" points="126.48507690429688 156.39842224121094 152.67755126953125 141.20677185058594 167.86920166015625 131.25363159179688 182.01318359375 121.3004913330078 191.96624755859375 111.87120056152344 202.9671630859375 89.34567260742188 205.06256103515625 74.67788696289063 205.06256103515625 74.67788696289063 " />
        <polyline stroke="black" stroke-width="3" stroke-linecap="round" fill="transparent" stroke-linejoin="round" points="177.2984619140625 116.06199645996094 177.2984619140625 152.20762634277344 177.2984619140625 169.49464416503906 178.34619140625 182.5908966064453 180.9654541015625 196.21096801757813 183.060791015625 202.4971618652344 183.060791015625 202.4971618652344 " />
        </svg>