<?xml version="1.0" standalone="no"?>
    <svg width="256" height="256" xmlns="http://www.w3.org/2000/svg" version="1.1">
    <polyline stroke="black" stroke-width="3" stroke-linecap="round" fill="transparent" stroke-linejoin="round" points="99.31491088867188 103.93759155273438 103.44540405273438 142.7642822265625 105.09762573242188 161.76458740234375 106.33676147460938 179.5257568359375 107.16290283203124 204.30877685546875 106.74984741210938 217.939453125 105.09762573242188 222.0699462890625 101.38018798828124 221.24383544921875 97.66268920898438 217.939453125 77.01019287109375 193.5694580078125 69.57528686523438 183.65625 57.18377685546875 164.65594482421875 57.18377685546875 164.65594482421875 " />
        <polyline stroke="black" stroke-width="3" stroke-linecap="round" fill="transparent" stroke-linejoin="round" points="38.1834716796875 141.11209106445313 39.422607421875 150.19918823242188 40.24871826171875 158.46018981933594 41.0748291015625 174.15609741210938 41.0748291015625 178.28660583496094 41.0748291015625 180.3518524169922 41.0748291015625 180.764892578125 41.487884521484375 180.764892578125 43.14007568359375 180.3518524169922 48.509735107421875 177.87356567382813 58.0098876953125 174.15609741210938 69.57528686523438 169.1995086669922 80.72763061523438 163.829833984375 89.40170288085938 158.46018981933594 89.40170288085938 158.46018981933594 " />
        <polyline stroke="black" stroke-width="3" stroke-linecap="round" fill="transparent" stroke-linejoin="round" points="132.35894775390625 102.69841003417967 126.9892578125 112.6116180419922 122.44573974609376 120.87261962890624 119.55438232421876 128.7205810546875 119.14132690429688 136.15548706054688 121.61962890625 142.7642822265625 126.9892578125 148.54698181152344 134.42416381835938 153.5035858154297 142.6851806640625 156.3949432373047 147.64178466796875 156.3949432373047 147.64178466796875 156.3949432373047 " />
        <polyline stroke="black" stroke-width="3" stroke-linecap="round" fill="transparent" stroke-linejoin="round" points="179.8597412109375 72.1326904296875 176.9683837890625 89.48080444335938 174.4901123046875 100.63314819335938 171.5987548828125 111.37248229980467 160.859375 140.69903564453125 155.48974609375 153.9166259765625 151.3592529296875 162.17764282226563 149.29400634765625 165.89511108398438 148.88095092773438 166.3081512451172 155.90283203125 164.24290466308594 173.25091552734375 156.3949432373047 182.3380126953125 151.85137939453125 207.9471435546875 138.6337890625 221.57781982421875 131.1988983154297 231.904052734375 123.35092163085938 231.904052734375 123.35092163085938 " />
        <polyline stroke="black" stroke-width="3" stroke-linecap="round" fill="transparent" stroke-linejoin="round" points="207.12103271484375 85.76335144042969 205.0557861328125 94.85044860839844 203.403564453125 105.58976745605467 201.75140380859375 116.74211120605467 199.2730712890625 140.28598022460938 198.033935546875 154.74273681640625 195.5556640625 191.50421142578125 195.5556640625 191.50421142578125 " />
        </svg>