<?xml version="1.0" standalone="no"?>
    <svg width="256" height="256" xmlns="http://www.w3.org/2000/svg" version="1.1">
    <polyline stroke="black" stroke-width="3" stroke-linecap="round" fill="transparent" stroke-linejoin="round" points="93.38790893554688 84.32579040527344 96.15472412109376 113.3774871826172 97.07699584960938 129.0561981201172 97.53817749023438 160.41355895996094 96.15472412109376 183.93161010742188 92.9267578125 196.84347534179688 89.23764038085938 202.37713623046875 85.08740234375 203.76055908203125 78.6314697265625 200.5325927734375 78.6314697265625 200.5325927734375 " />
        <polyline stroke="black" stroke-width="3" stroke-linecap="round" fill="transparent" stroke-linejoin="round" points="38.512451171875 130.90072631835938 38.051361083984375 144.27374267578125 37.590179443359375 151.65194702148438 35.74566650390625 162.71923828125 33.901092529296875 169.1751708984375 33.43994140625 171.4808807373047 32.517669677734375 175.16998291015625 32.517669677734375 175.631103515625 33.901092529296875 175.16998291015625 44.96844482421875 168.25291442871094 57.88031005859375 159.95242309570313 66.64190673828125 153.49649047851563 66.64190673828125 153.49649047851563 " />
        <polyline stroke="black" stroke-width="3" stroke-linecap="round" fill="transparent" stroke-linejoin="round" points="123.822998046875 103.69358825683594 117.82821655273438 111.53292846679688 115.52255249023438 116.14431762695313 113.216796875 124.90594482421876 115.06137084960938 134.12869262695313 119.67279052734376 141.96804809570313 125.66757202148438 148.4239959716797 135.35150146484375 153.49649047851563 135.35150146484375 153.49649047851563 " />
        <polyline stroke="black" stroke-width="3" stroke-linecap="round" fill="transparent" stroke-linejoin="round" points="172.70361328125 75.56417846679688 166.24774169921875 99.08219909667967 156.5638427734375 123.52252197265624 143.19085693359375 148.4239959716797 137.65716552734375 156.2633056640625 135.35150146484375 159.95242309570313 134.89031982421875 160.41355895996094 140.42401123046875 159.95242309570313 146.8798828125 158.10789489746094 175.931640625 148.88511657714844 186.9989013671875 144.73486328125 218.81744384765625 130.90072631835938 218.81744384765625 130.90072631835938 " />
        <polyline stroke="black" stroke-width="3" stroke-linecap="round" fill="transparent" stroke-linejoin="round" points="203.599853515625 81.5589599609375 203.599853515625 95.39309692382813 203.599853515625 111.99406433105467 205.90557861328125 157.646728515625 207.28900146484375 185.77615356445313 206.827880859375 216.67242431640625 206.827880859375 216.67242431640625 " />
        </svg>