<?xml version="1.0" standalone="no"?>
    <svg width="256" height="256" xmlns="http://www.w3.org/2000/svg" version="1.1">
    <polyline stroke="black" stroke-width="3" stroke-linecap="round" fill="transparent" stroke-linejoin="round" points="47.424102783203125 105.65573120117188 56.53680419921875 102.74375915527344 65.64950561523438 99.831787109375 85.94085693359375 92.55650329589844 94.57666015625 89.862548828125 106.918701171875 86.17388916015625 108.75961303710938 85.278564453125 109.25802612304688 84.17538452148438 109.36239624023438 83.94442749023438 " />
        <polyline stroke="black" stroke-width="3" stroke-linecap="round" fill="transparent" stroke-linejoin="round" points="63.11785888671875 38.29359436035155 67.95846557617188 79.72897338867188 72.799072265625 121.1643524169922 72.52914428710938 130.26072692871094 71.78924560546875 144.77508544921875 69.975830078125 158.26937866210938 69.79278564453125 163.94039916992188 69.77886962890625 164.37139892578125 " />
        <polyline stroke="black" stroke-width="3" stroke-linecap="round" fill="transparent" stroke-linejoin="round" points="55.58709716796875 166.5011749267578 66.32846069335938 160.1788330078125 77.06982421875 153.8564910888672 97.44586181640624 143.52206420898438 105.26449584960938 141.16134643554688 115.3631591796875 139.74667358398438 114.64508056640624 140.855712890625 " />
        <polyline stroke="black" stroke-width="3" stroke-linecap="round" fill="transparent" stroke-linejoin="round" points="113.48175048828125 48.06456756591798 135.965087890625 36.97884368896485 158.44842529296875 25.89311981201172 170.596923828125 21.59374237060547 190.00201416015625 17.57220458984375 196.18865966796875 17.56352996826172 198.53411865234375 19.442398071289063 197.75653076171875 20.014801025390625 " />
        <polyline stroke="black" stroke-width="3" stroke-linecap="round" fill="transparent" stroke-linejoin="round" points="120.26190185546876 31.553604125976577 122.7017822265625 71.94375610351563 125.14166259765624 112.33390808105467 126.33892822265624 134.59799194335938 124.32528686523438 164.0690155029297 118.75970458984376 180.03726196289063 114.80111694335938 183.92254638671875 114.38946533203124 181.16661071777344 " />
        <polyline stroke="black" stroke-width="3" stroke-linecap="round" fill="transparent" stroke-linejoin="round" points="134.1419677734375 78.91482543945313 145.59735107421875 76.00494384765625 157.052734375 73.09506225585938 163.864501953125 70.5943603515625 166.6563720703125 69.78703308105469 170.80419921875 69.18121337890625 173.755615234375 69.84986877441406 175.26513671875 71.62521362304688 178.32244873046875 88.37176513671875 177.2774658203125 101.72061157226563 172.1845703125 126.15122985839844 167.5833740234375 149.825927734375 167.776123046875 162.00201416015625 168.986328125 175.38082885742188 175.89703369140625 197.61282348632813 180.3681640625 207.36062622070313 187.12353515625 216.20977783203125 192.74945068359375 217.075927734375 198.1131591796875 217.93875122070313 211.08343505859375 217.78753662109375 216.85687255859375 217.32330322265625 224.36419677734375 215.22329711914065 225.8031005859375 213.6542053222656 227.07080078125 210.26577758789065 227.9619140625 204.51742553710935 227.84344482421875 202.481201171875 " />
        </svg>