<?xml version="1.0" standalone="no"?>
    <svg width="256" height="256" xmlns="http://www.w3.org/2000/svg" version="1.1">
    <polyline stroke="black" stroke-width="3" stroke-linecap="round" fill="transparent" stroke-linejoin="round" points="76.35678100585938 133.27236938476563 87.27105712890625 126.97567749023438 98.18533325195313 120.67898559570313 98.18533325195313 120.67898559570313 " />
        <polyline stroke="black" stroke-width="3" stroke-linecap="round" fill="transparent" stroke-linejoin="round" points="80.134765625 86.67681884765625 75.5172119140625 121.51853942871094 70.899658203125 156.36026000976563 69.22055053710938 182.38661193847656 68.80078125 197.49868774414065 68.80078125 200.85693359375 68.80078125 200.85693359375 " />
        <polyline stroke="black" stroke-width="3" stroke-linecap="round" fill="transparent" stroke-linejoin="round" points="28.082122802734375 215.1294403076172 60.4051513671875 185.3250732421875 92.72817993164063 155.5207061767578 112.87762451171876 136.630615234375 115.81613159179688 133.692138671875 115.81613159179688 133.692138671875 " />
        <polyline stroke="black" stroke-width="3" stroke-linecap="round" fill="transparent" stroke-linejoin="round" points="125.89080810546875 103.46797180175781 147.29959106445313 92.13392639160156 168.7083740234375 80.79988098144531 191.37652587890625 71.56472778320313 198.09295654296875 68.62628173828125 198.09295654296875 68.62628173828125 " />
        <polyline stroke="black" stroke-width="3" stroke-linecap="round" fill="transparent" stroke-linejoin="round" points="153.17648315429688 101.3691101074219 150.238037109375 117.32073974609376 147.29959106445313 133.27236938476563 142.68203735351563 151.74267578125 134.28640747070313 170.63279724121094 121.69302368164063 192.4613342285156 108.67984008789063 214.2899169921875 102.80294799804688 220.58660888671875 102.80294799804688 220.58660888671875 " />
        <polyline stroke="black" stroke-width="3" stroke-linecap="round" fill="transparent" stroke-linejoin="round" points="156.114990234375 139.14930725097656 168.28857421875 135.37127685546875 180.462158203125 131.59324645996094 186.7589111328125 129.9141387939453 193.05560302734375 129.0745849609375 196.8336181640625 128.23501586914063 198.9324951171875 127.8152313232422 198.9324951171875 128.23501586914063 198.51275634765625 131.59324645996094 193.47540283203125 142.08775329589844 183.8204345703125 158.8789520263672 175.4248046875 178.18882751464844 171.22705078125 195.3998107910156 171.6468505859375 206.73385620117188 177.52374267578125 214.70968627929688 188.85784912109375 219.3272399902344 201.03143310546875 216.3887939453125 211.9456787109375 210.51187133789065 218.6622314453125 206.3140563964844 223.27972412109375 202.95587158203125 226.21826171875 200.43716430664065 229.1566162109375 198.3382568359375 230.416015625 197.91848754882813 230.416015625 196.2393798828125 227.8973388671875 184.90530395507813 227.4775390625 163.49652099609375 227.4775390625 163.49652099609375 " />
        </svg>