<?xml version="1.0" standalone="no"?>
    <svg width="256" height="256" xmlns="http://www.w3.org/2000/svg" version="1.1">
    <polyline stroke="black" stroke-width="3" stroke-linecap="round" fill="transparent" stroke-linejoin="round" points="58 102 97 92 114 85 130 76 136 73 136 73 " />
        <polyline stroke="black" stroke-width="3" stroke-linecap="round" fill="transparent" stroke-linejoin="round" points="107 48 97 78 97 97 97 117 97 138 97 156 98 163 98 163 " />
        <polyline stroke="black" stroke-width="3" stroke-linecap="round" fill="transparent" stroke-linejoin="round" points="66 170 79 167 91 166 107 161 124 156 133 153 133 153 " />
        <polyline stroke="black" stroke-width="3" stroke-linecap="round" fill="transparent" stroke-linejoin="round" points="144 69 169 63 184 60 196 59 203 59 205 59 205 59 " />
        <polyline stroke="black" stroke-width="3" stroke-linecap="round" fill="transparent" stroke-linejoin="round" points="163 75 158 90 158 95 156 110 151 128 147 147 146 163 145 176 145 181 145 181 " />
        <polyline stroke="black" stroke-width="3" stroke-linecap="round" fill="transparent" stroke-linejoin="round" points="151 119 162 114 173 112 184 111 192 111 195 119 195 133 195 148 195 160 195 170 201 178 210 181 217 181 222 180 225 170 227 156 227 136 227 119 227 119 " />
        </svg>