<?xml version="1.0" standalone="no"?>
    <svg width="256" height="256" xmlns="http://www.w3.org/2000/svg" version="1.1">
    <polyline stroke="black" stroke-width="3" stroke-linecap="round" fill="transparent" stroke-linejoin="round" points="82.362548828125 74.5738525390625 97.96429443359376 71.28927612304688 107.40740966796876 69.64698791503906 126.70428466796876 65.95185852050781 145.59051513671875 63.488433837890625 161.1922607421875 61.435577392578125 170.6353759765625 60.203857421875 174.33050537109375 59.79328918457031 174.33050537109375 59.79328918457031 " />
        <polyline stroke="black" stroke-width="3" stroke-linecap="round" fill="transparent" stroke-linejoin="round" points="78.25689697265625 113.9886474609375 88.93173217773438 109.8829345703125 123.00912475585938 99.20809936523438 144.76937866210938 94.28125 163.24505615234375 89.76498413085938 178.025634765625 84.83811950683594 185.00531005859375 80.73240661621094 185.00531005859375 80.73240661621094 " />
        <polyline stroke="black" stroke-width="3" stroke-linecap="round" fill="transparent" stroke-linejoin="round" points="131.631103515625 32.2850341796875 128.34652709960938 40.08587646484375 117.67172241210938 65.13070678710938 105.35458374023438 90.175537109375 90.98455810546876 116.45208740234376 77.84628295898438 139.44406127929688 67.58203125 155.45632934570313 59.37060546875 166.541748046875 59.37060546875 166.541748046875 " />
        <polyline stroke="black" stroke-width="3" stroke-linecap="round" fill="transparent" stroke-linejoin="round" points="127.525390625 111.11466979980467 134.09454345703125 112.75694274902344 149.28564453125 117.68380737304688 164.88739013671875 124.25296020507813 178.43621826171875 131.23263549804688 187.87933349609375 136.9806365966797 187.87933349609375 136.9806365966797 " />
        <polyline stroke="black" stroke-width="3" stroke-linecap="round" fill="transparent" stroke-linejoin="round" points="116.44000244140624 153.40347290039063 120.13510131835938 155.45632934570313 126.29367065429688 159.56204223632813 129.98883056640625 163.25717163085938 131.631103515625 166.13116455078125 131.631103515625 166.13116455078125 " />
        <polyline stroke="black" stroke-width="3" stroke-linecap="round" fill="transparent" stroke-linejoin="round" points="105.35458374023438 194.87115478515625 114.38714599609376 203.49313354492188 121.3668212890625 212.1151123046875 121.3668212890625 212.1151123046875 " />
        </svg>