<?xml version="1.0" standalone="no"?>
    <svg width="256" height="256" xmlns="http://www.w3.org/2000/svg" version="1.1">
    <polyline stroke="black" stroke-width="3" stroke-linecap="round" fill="transparent" stroke-linejoin="round" points="82.03109741210938 84.11961364746094 94.70269775390624 81.36492919921875 109.57806396484376 76.95741271972656 129.96282958984375 69.79519653320313 146.49102783203125 63.73486328125 161.36639404296875 58.2254638671875 171.834228515625 54.919830322265625 177.3436279296875 53.26701354980469 180.6492919921875 54.368896484375 180.6492919921875 54.368896484375 " />
        <polyline stroke="black" stroke-width="3" stroke-linecap="round" fill="transparent" stroke-linejoin="round" points="63.85009765625 120.48162841796876 73.76702880859375 118.27786254882813 88.64239501953125 114.97222900390624 112.88372802734376 108.91189575195313 134.370361328125 102.8515625 156.407958984375 95.68934631347656 172.93609619140625 89.62901306152344 184.505859375 84.11961364746094 190.566162109375 80.26304626464844 192.7698974609375 75.30459594726563 192.7698974609375 75.30459594726563 " />
        <polyline stroke="black" stroke-width="3" stroke-linecap="round" fill="transparent" stroke-linejoin="round" points="134.92129516601563 46.655738830566406 131.61566162109375 60.98016357421875 125.00439453125 79.71209716796875 116.1893310546875 100.09686279296876 107.37432861328124 118.8288116455078 98.00836181640624 137.0098114013672 88.64239501953125 151.8851776123047 80.3782958984375 164.00584411621094 80.3782958984375 164.00584411621094 " />
        <polyline stroke="black" stroke-width="3" stroke-linecap="round" fill="transparent" stroke-linejoin="round" points="128.30999755859375 122.68537902832033 139.32879638671875 126.54196166992188 155.85699462890625 133.70416259765625 173.487060546875 143.0701446533203 188.913330078125 152.4361114501953 198.83026123046875 159.04737854003906 203.7886962890625 162.90396118164063 205.4415283203125 165.65866088867188 205.4415283203125 165.65866088867188 " />
        <polyline stroke="black" stroke-width="3" stroke-linecap="round" fill="transparent" stroke-linejoin="round" points="113.985595703125 172.82086181640625 120.04592895507813 176.1265106201172 127.75909423828124 180.53402709960935 134.92129516601563 184.9415283203125 139.8797607421875 189.34906005859375 142.08349609375 194.85845947265625 142.08349609375 194.85845947265625 " />
        <polyline stroke="black" stroke-width="3" stroke-linecap="round" fill="transparent" stroke-linejoin="round" points="98.00836181640624 212.48849487304688 106.8233642578125 217.99789428710935 118.94403076171876 225.16012573242188 129.96282958984375 232.32232666015625 137.67596435546875 238.38265991210935 137.67596435546875 238.38265991210935 " />
        </svg>