<?xml version="1.0" standalone="no"?>
    <svg width="256" height="256" xmlns="http://www.w3.org/2000/svg" version="1.1">
    <polyline stroke="black" stroke-width="3" stroke-linecap="round" fill="transparent" stroke-linejoin="round" points="97.9276123046875 69.64698791503906 117.22445678710938 64.3095703125 137.34246826171875 61.024993896484375 154.58642578125 58.1510009765625 168.13525390625 56.50872802734375 177.1678466796875 55.68757629394531 177.1678466796875 55.68757629394531 " />
        <polyline stroke="black" stroke-width="3" stroke-linecap="round" fill="transparent" stroke-linejoin="round" points="73.29339599609375 119.32609558105467 94.64306640625 113.57809448242188 117.635009765625 109.0618133544922 141.44818115234375 104.9561004638672 152.94415283203125 103.31382751464844 179.63128662109375 97.97639465332033 190.30609130859375 95.51296997070313 196.875244140625 93.04953002929688 196.875244140625 93.04953002929688 " />
        <polyline stroke="black" stroke-width="3" stroke-linecap="round" fill="transparent" stroke-linejoin="round" points="133.64730834960938 36.80131530761719 130.7733154296875 43.37044525146485 127.48873901367188 50.76072692871094 114.76107788085938 78.26898193359375 104.086181640625 100.02923583984376 93.41134643554688 121.78952026367188 83.96823120117188 138.21234130859375 74.93563842773438 152.99290466308594 67.9559326171875 162.8466033935547 65.08197021484375 165.72061157226563 65.08197021484375 165.72061157226563 " />
        <polyline stroke="black" stroke-width="3" stroke-linecap="round" fill="transparent" stroke-linejoin="round" points="114.3504638671875 126.3057861328125 129.9521484375 131.23263549804688 152.12298583984375 139.44406127929688 174.70440673828125 149.29776000976563 195.23297119140625 158.330322265625 202.62322998046875 162.43603515625 218.2249755859375 171.87918090820313 218.2249755859375 171.87918090820313 " />
        <polyline stroke="black" stroke-width="3" stroke-linecap="round" fill="transparent" stroke-linejoin="round" points="124.20419311523438 167.77346801757813 133.23675537109375 175.1637420654297 139.80587768554688 181.32229614257813 144.3221435546875 186.2491455078125 146.78558349609375 190.76544189453125 146.78558349609375 192.40771484375 146.78558349609375 192.40771484375 " />
        <polyline stroke="black" stroke-width="3" stroke-linecap="round" fill="transparent" stroke-linejoin="round" points="106.54962158203124 187.0703125 112.297607421875 192.40771484375 130.7733154296875 210.47283935546875 142.67987060546875 224.02166748046875 148.4278564453125 232.6436767578125 148.4278564453125 232.6436767578125 " />
        </svg>