<?xml version="1.0" standalone="no"?>
    <svg width="256" height="256" xmlns="http://www.w3.org/2000/svg" version="1.1">
    <polyline stroke="black" stroke-width="3" stroke-linecap="round" fill="transparent" stroke-linejoin="round" points="88 56 104 55 125 51 146 49 164 46 170 45 170 45 " />
        <polyline stroke="black" stroke-width="3" stroke-linecap="round" fill="transparent" stroke-linejoin="round" points="64 109 73 107 94 101 120 96 144 93 157 92 175 88 185 84 185 84 " />
        <polyline stroke="black" stroke-width="3" stroke-linecap="round" fill="transparent" stroke-linejoin="round" points="132 46 132 56 123 81 115 99 84 152 73 169 56 191 44 203 44 203 " />
        <polyline stroke="black" stroke-width="3" stroke-linecap="round" fill="transparent" stroke-linejoin="round" points="153 133 166 135 177 141 188 149 199 158 210 165 213 168 213 168 " />
        <polyline stroke="black" stroke-width="3" stroke-linecap="round" fill="transparent" stroke-linejoin="round" points="122 166 126 167 135 174 144 183 147 195 147 195 " />
        <polyline stroke="black" stroke-width="3" stroke-linecap="round" fill="transparent" stroke-linejoin="round" points="128 216 141 216 165 220 172 225 172 225 " />
        </svg>