<?xml version="1.0" standalone="no"?>
    <svg width="256" height="256" xmlns="http://www.w3.org/2000/svg" version="1.1">
    <polyline stroke="black" stroke-width="3" stroke-linecap="round" fill="transparent" stroke-linejoin="round" points="80.695068359375 48.46104431152344 77.15707397460938 59.07490539550781 64.82626342773438 95.52102661132813 55.044830322265625 124.00675964355467 45.4715576171875 147.00341796875 36.288543701171875 164.2769775390625 30.071075439453125 174.8647918701172 27.49566650390625 178.92306518554688 26.87127685546875 180.0676727294922 26.87127685546875 180.0676727294922 " />
        <polyline stroke="black" stroke-width="3" stroke-linecap="round" fill="transparent" stroke-linejoin="round" points="60.559906005859375 108.7623291015625 66.82937622070313 115.76019287109376 75.02389526367188 125.3594970703125 80.61697387695313 133.24183654785156 83.1663818359375 136.9879150390625 83.89480590820313 138.18455505371094 85.22152709960938 140.00558471679688 87.77093505859375 140.94210815429688 87.77093505859375 140.94210815429688 " />
        <polyline stroke="black" stroke-width="3" stroke-linecap="round" fill="transparent" stroke-linejoin="round" points="117.92153930664063 48.04481506347656 118.75399780273438 59.022857666015625 116.334716796875 72.10809326171875 111.7041015625 89.35560607910156 105.07049560546876 105.27639770507813 98.384765625 121.66546630859376 93.62417602539063 132.9556884765625 90.08621215820313 139.77145385742188 88.49929809570313 141.74851989746094 88.49929809570313 141.74851989746094 " />
        <polyline stroke="black" stroke-width="3" stroke-linecap="round" fill="transparent" stroke-linejoin="round" points="112.95281982421876 100.04751586914063 124.08697509765624 103.37734985351563 127.5208740234375 104.9642333984375 128.35336303710938 105.30242919921876 129.0296630859375 105.61457824707033 129.31585693359375 105.71864318847656 130.66860961914063 106.2129364013672 130.66860961914063 106.2129364013672 " />
        <polyline stroke="black" stroke-width="3" stroke-linecap="round" fill="transparent" stroke-linejoin="round" points="154.05548095703125 28.872230529785156 153.8994140625 38.445518493652344 153.11895751953125 49.397552490234375 150.07528686523438 64.19972229003906 145.1845703125 79.52218627929688 139.07122802734375 99.0069580078125 130.48651123046875 117.89338684082033 122.68218994140624 135.4010467529297 115.34616088867188 148.2521209716797 109.8310546875 158.81394958496094 107.3857421875 164.2249298095703 107.3857421875 164.2249298095703 " />
        <polyline stroke="black" stroke-width="3" stroke-linecap="round" fill="transparent" stroke-linejoin="round" points="142.29702758789063 102.31076049804688 151.21990966796875 110.42724609375 159.44049072265625 119.03800964355467 167.7911376953125 128.2991180419922 177.4163818359375 137.7943572998047 188.9927978515625 148.6163330078125 202.83245849609375 158.97006225585938 214.43487548828125 166.35812377929688 228.300537109375 172.34140014648438 232.9310302734375 173.90231323242188 232.9310302734375 173.90231323242188 " />
        </svg>