<?xml version="1.0" standalone="no"?>
    <svg width="256" height="256" xmlns="http://www.w3.org/2000/svg" version="1.1">
    <polyline stroke="black" stroke-width="3" stroke-linecap="round" fill="transparent" stroke-linejoin="round" points="86.00286865234375 75.35223388671875 80.76229858398438 99.82106018066406 73.77496337890625 132.329345703125 70.97979736328125 148.05929565429688 68.53439331054688 163.43955993652344 66.78759765625 177.07205200195313 65.04055786132813 188.95675659179688 63.643157958984375 199.44342041015625 61.8963623046875 208.18228149414065 60.149627685546875 214.82366943359375 57.703826904296875 220.0669860839844 55.95709228515625 223.9122314453125 53.860992431640625 227.40777587890625 51.764556884765625 229.155517578125 50.367156982421875 227.75711059570313 50.367156982421875 227.75711059570313 " />
        <polyline stroke="black" stroke-width="3" stroke-linecap="round" fill="transparent" stroke-linejoin="round" points="82.509033203125 157.84657287597656 97.53176879882813 171.12969970703125 104.51907348632813 177.07205200195313 108.36224365234376 179.86856079101563 111.8560791015625 182.66506958007813 115.34957885742188 185.11187744140625 118.14437866210938 186.85964965820313 120.93951416015624 187.5586853027344 123.73434448242188 186.50994873046875 123.73434448242188 186.50994873046875 " />
        <polyline stroke="black" stroke-width="3" stroke-linecap="round" fill="transparent" stroke-linejoin="round" points="146.09405517578125 83.74176025390625 137.35964965820313 110.30769348144533 129.67361450195313 137.92236328125 123.73434448242188 160.9927520751953 120.93951416015624 170.43064880371094 118.14437866210938 178.1207733154297 115.34957885742188 184.06317138671875 112.55477905273438 188.60739135742188 110.4583740234375 191.40359497070313 109.41033935546876 192.802001953125 109.41033935546876 193.1513671875 108.71160888671876 192.802001953125 109.41033935546876 190.70455932617188 109.41033935546876 190.70455932617188 " />
        <polyline stroke="black" stroke-width="3" stroke-linecap="round" fill="transparent" stroke-linejoin="round" points="134.91421508789063 148.4086456298828 141.55218505859375 164.48828125 145.39541625976563 173.57650756835938 147.8408203125 178.47012329101563 150.9849853515625 184.06317138671875 155.17755126953125 188.95675659179688 155.17755126953125 188.95675659179688 " />
        <polyline stroke="black" stroke-width="3" stroke-linecap="round" fill="transparent" stroke-linejoin="round" points="197.10150146484375 89.68411254882813 193.60797119140625 106.46246337890624 193.2586669921875 111.00672912597656 192.9093017578125 112.7545166015625 192.5599365234375 114.50228881835938 192.5599365234375 115.9003448486328 192.21063232421875 116.9490966796875 192.21063232421875 117.64813232421876 192.21063232421875 118.34718322753906 192.21063232421875 119.04620361328124 192.21063232421875 119.74557495117188 192.21063232421875 120.0949249267578 192.21063232421875 120.4446258544922 191.86126708984375 120.79397583007813 191.86126708984375 121.4933624267578 191.86126708984375 121.84271240234376 191.86126708984375 122.19241333007813 191.86126708984375 122.54176330566406 191.51190185546875 123.24113464355467 191.51190185546875 123.59048461914063 191.51190185546875 124.28952026367188 191.16253662109375 124.98892211914063 190.8128662109375 125.6879425048828 190.1141357421875 126.73667907714844 189.76483154296875 127.78507995605467 189.41546630859375 129.18348693847656 188.716796875 131.28065490722656 187.668701171875 133.37808227539063 186.62066650390625 136.17459106445313 185.2232666015625 139.32044982910156 183.8255615234375 142.46627807617188 182.07879638671875 145.61248779296875 180.33203125 148.75833129882813 178.2359619140625 152.60324096679688 175.4407958984375 157.49722290039063 171.94732666015625 164.48828125 167.7547607421875 171.8287353515625 163.91162109375 178.81982421875 160.06878662109375 184.76217651367188 156.574951171875 187.90805053710935 156.574951171875 187.90805053710935 " />
        <polyline stroke="black" stroke-width="3" stroke-linecap="round" fill="transparent" stroke-linejoin="round" points="180.33203125 44.59172058105469 180.33203125 61.02070617675781 180.681396484375 74.30351257324219 182.07879638671875 89.33442687988281 183.8255615234375 105.41372680664063 186.97003173828125 121.14366149902344 190.46356201171875 136.52394104003906 193.60797119140625 151.2051544189453 197.45086669921875 165.53668212890625 201.29400634765625 177.4217529296875 204.787841796875 187.5586853027344 208.2813720703125 195.9478454589844 211.07647705078125 202.5892333984375 213.52197265625 207.48321533203125 216.3167724609375 210.2793884277344 218.7625732421875 212.02716064453125 220.50927734375 213.07589721679688 222.60540771484375 214.1246032714844 224.3524169921875 215.17337036132813 225.74981689453125 216.22210693359375 225.74981689453125 216.22210693359375 " />
        </svg>