<?xml version="1.0" standalone="no"?>
    <svg width="256" height="256" xmlns="http://www.w3.org/2000/svg" version="1.1">
    <polyline stroke="black" stroke-width="3" stroke-linecap="round" fill="transparent" stroke-linejoin="round" points="90.53680419921876 63.77488708496094 84.6539306640625 91.88156127929688 55.89361572265625 141.55845642089844 50.0108642578125 150.70947265625 42.1671142578125 165.089599609375 40.85980224609375 172.93333435058594 47.396240234375 174.8942413330078 49.357177734375 174.2406005859375 49.357177734375 174.2406005859375 " />
        <polyline stroke="black" stroke-width="3" stroke-linecap="round" fill="transparent" stroke-linejoin="round" points="62.4300537109375 150.05581665039063 80.07843017578125 147.4412384033203 82.03936767578125 148.09487915039063 94.45855712890624 153.3240203857422 98.38043212890624 154.6313018798828 108.18505859375 156.5922393798828 121.91156005859376 152.6703643798828 129.75537109375 146.78758239746094 129.75537109375 146.78758239746094 " />
        <polyline stroke="black" stroke-width="3" stroke-linecap="round" fill="transparent" stroke-linejoin="round" points="152.6328125 80.76962280273438 127.1407470703125 108.22264099121094 112.7606201171875 144.1730194091797 110.14605712890624 150.70947265625 108.8387451171875 155.9385986328125 113.41424560546876 153.3240203857422 114.7215576171875 151.3630828857422 114.7215576171875 151.3630828857422 " />
        <polyline stroke="black" stroke-width="3" stroke-linecap="round" fill="transparent" stroke-linejoin="round" points="125.83343505859376 133.7147216796875 147.4036865234375 138.94387817382813 148.05731201171875 139.59751892089844 161.13018798828125 141.55845642089844 168.32025146484375 138.94387817382813 171.5885009765625 136.98294067382813 171.5885009765625 136.98294067382813 " />
        <polyline stroke="black" stroke-width="3" stroke-linecap="round" fill="transparent" stroke-linejoin="round" points="196.42694091796875 84.69146728515625 169.6275634765625 109.5299072265625 146.75006103515625 149.4021453857422 142.82818603515625 157.89952087402344 138.90631103515625 170.97239685058594 140.86724853515625 175.5478973388672 144.13543701171875 174.8942413330078 144.13543701171875 174.8942413330078 " />
        <polyline stroke="black" stroke-width="3" stroke-linecap="round" fill="transparent" stroke-linejoin="round" points="159.82293701171875 164.4359588623047 176.16400146484375 166.39688110351563 178.778564453125 167.050537109375 195.77325439453125 176.85520935058594 201.00244140625 180.7770233154297 210.80706787109375 191.88897705078125 217.9971923828125 200.3863220214844 219.9581298828125 203.65457153320313 219.9581298828125 203.65457153320313 " />
        </svg>