<?xml version="1.0" standalone="no"?>
    <svg width="256" height="256" xmlns="http://www.w3.org/2000/svg" version="1.1">
    <polyline stroke="black" stroke-width="3" stroke-linecap="round" fill="transparent" stroke-linejoin="round" points="52.067596435546875 113.20475769042967 82.16976928710938 103.51083374023438 112.27191162109376 94.83731079101563 140.84341430664063 89.73527526855469 155.12921142578125 87.18423461914063 175.0272216796875 84.12300109863281 188.2926025390625 82.08218383789063 198.4967041015625 79.02095031738281 201.55792236328125 77.49034118652344 201.55792236328125 77.49034118652344 " />
        <polyline stroke="black" stroke-width="3" stroke-linecap="round" fill="transparent" stroke-linejoin="round" points="103.59841918945313 87.18423461914063 104.10861206054688 99.93939208984376 104.61883544921876 106.06185913085938 106.14944458007813 111.16392517089844 106.14944458007813 111.16392517089844 " />
        <polyline stroke="black" stroke-width="3" stroke-linecap="round" fill="transparent" stroke-linejoin="round" points="149.00674438476563 87.18423461914063 146.9659423828125 95.85774230957033 143.90469360351563 106.57205200195313 142.37408447265625 110.65373229980467 142.37408447265625 110.65373229980467 " />
        <polyline stroke="black" stroke-width="3" stroke-linecap="round" fill="transparent" stroke-linejoin="round" points="141.86386108398438 123.40887451171876 147.47613525390625 121.87825012207033 149.5169677734375 121.3680419921875 149.5169677734375 121.3680419921875 " />
        <polyline stroke="black" stroke-width="3" stroke-linecap="round" fill="transparent" stroke-linejoin="round" points="64.82275390625 176.98049926757813 71.96563720703125 187.1845703125 78.59832763671875 193.8172912597656 89.31265258789063 198.40911865234375 106.14944458007813 199.42953491210935 121.45562744140624 196.36831665039065 140.84341430664063 191.7764587402344 157.1700439453125 188.20501708984375 170.945556640625 186.67437744140625 182.17010498046875 184.633544921875 189.82318115234375 180.5519256591797 189.82318115234375 180.5519256591797 " />
        <polyline stroke="black" stroke-width="3" stroke-linecap="round" fill="transparent" stroke-linejoin="round" points="208.19061279296875 140.24566650390625 207.17022705078125 159.12326049804688 207.17022705078125 165.24575805664063 207.680419921875 169.327392578125 207.680419921875 169.327392578125 " />
        </svg>