<?xml version="1.0" standalone="no"?>
    <svg width="256" height="256" xmlns="http://www.w3.org/2000/svg" version="1.1">
    <polyline stroke="black" stroke-width="3" stroke-linecap="round" fill="transparent" stroke-linejoin="round" points="57.141357421875 118.27378845214844 75.22357177734375 114.1641845703125 98.648193359375 109.64366149902344 126.182373046875 105.5340576171875 152.07275390625 103.47927856445313 174.2645263671875 101.01353454589844 184.1275634765625 99.3696746826172 184.1275634765625 99.3696746826172 " />
        <polyline stroke="black" stroke-width="3" stroke-linecap="round" fill="transparent" stroke-linejoin="round" points="96.18246459960938 69.78067016601563 94.94955444335938 79.23271179199219 93.7166748046875 89.50668334960938 92.894775390625 100.19158935546876 92.48382568359376 120.73953247070313 92.48382568359376 130.19155883789063 93.7166748046875 146.62991333007813 96.18246459960938 156.49290466308594 99.47015380859376 161.42440795898438 105.63449096679688 163.89016723632813 118.37420654296876 162.24632263183594 136.45639038085938 154.84906005859375 157.0042724609375 142.5203094482422 167.27825927734375 135.53404235839844 167.27825927734375 135.53404235839844 " />
        <polyline stroke="black" stroke-width="3" stroke-linecap="round" fill="transparent" stroke-linejoin="round" points="151.661865234375 64.84916687011719 154.53857421875 83.75326538085938 159.8809814453125 115.39706420898438 161.52484130859375 145.3970184326172 161.52484130859375 145.3970184326172 " />
        <polyline stroke="black" stroke-width="3" stroke-linecap="round" fill="transparent" stroke-linejoin="round" points="56.730438232421875 175.80795288085938 54.675628662109375 188.9586181640625 54.2646484375 194.7120361328125 55.08660888671875 204.16409301757813 58.374267578125 211.150390625 68.23727416992188 217.31475830078125 89.60711669921875 221.01336669921875 117.14132690429688 219.780517578125 148.78512573242188 212.79421997070313 179.196044921875 202.10931396484375 202.6207275390625 191.8353271484375 213.30560302734375 186.90383911132813 213.30560302734375 186.90383911132813 " />
        <polyline stroke="black" stroke-width="3" stroke-linecap="round" fill="transparent" stroke-linejoin="round" points="221.5247802734375 153.20523071289063 221.5247802734375 160.60247802734375 221.5247802734375 169.64358520507813 220.702880859375 205.80792236328125 219.8809814453125 216.49285888671875 219.8809814453125 216.49285888671875 " />
        </svg>