<?xml version="1.0" standalone="no"?>
    <svg width="256" height="256" xmlns="http://www.w3.org/2000/svg" version="1.1">
    <polyline stroke="black" stroke-width="3" stroke-linecap="round" fill="transparent" stroke-linejoin="round" points="58.27703857421875 101.67652893066406 90.71905517578124 90.6584930419922 118.26416015625 85.14947509765625 139.07601928710938 82.08891296386719 158.051513671875 79.64045715332031 171.51800537109375 77.80410766601563 178.8634033203125 77.19200134277344 182.53607177734375 72.90721130371094 182.53607177734375 72.90721130371094 " />
        <polyline stroke="black" stroke-width="3" stroke-linecap="round" fill="transparent" stroke-linejoin="round" points="105.4097900390625 74.13143920898438 98.06442260742188 92.4948272705078 86.43426513671875 129.2216339111328 84.59793090820313 143.3002471923828 83.37371826171875 153.70616149902344 85.8221435546875 159.21519470214844 93.16751098632813 159.21519470214844 106.63400268554688 153.70616149902344 120.10049438476563 145.74868774414063 129.89431762695313 137.7912139892578 140.30023193359375 123.71261596679688 140.30023193359375 123.71261596679688 " />
        <polyline stroke="black" stroke-width="3" stroke-linecap="round" fill="transparent" stroke-linejoin="round" points="133.5670166015625 56.38014221191406 132.3427734375 79.64045715332031 131.73065185546875 99.84019470214844 131.73065185546875 119.42782592773438 131.1185302734375 135.9548797607422 129.89431762695313 150.64559936523438 129.89431762695313 150.64559936523438 " />
        <polyline stroke="black" stroke-width="3" stroke-linecap="round" fill="transparent" stroke-linejoin="round" points="42.974212646484375 162.2757568359375 46.0347900390625 178.19070434570313 48.483245849609375 194.10565185546875 52.155914306640625 206.96002197265625 57.052825927734375 216.1417236328125 63.1739501953125 221.6507568359375 77.2525634765625 222.26287841796875 101.125 213.6932678222656 126.833740234375 202.67523193359375 148.25772094726563 194.7177734375 166.62109375 186.14816284179688 181.31182861328125 176.3543701171875 199.0631103515625 151.25772094726563 199.0631103515625 151.25772094726563 " />
        <polyline stroke="black" stroke-width="3" stroke-linecap="round" fill="transparent" stroke-linejoin="round" points="191.7177734375 123.71261596679688 192.329833984375 136.56700134277344 192.329833984375 151.8698272705078 192.9420166015625 167.17266845703125 192.329833984375 180.02703857421875 190.4935302734375 192.26931762695313 186.82086181640625 211.24481201171875 186.82086181640625 211.24481201171875 " />
        </svg>