<?xml version="1.0" standalone="no"?>
    <svg width="256" height="256" xmlns="http://www.w3.org/2000/svg" version="1.1">
    <polyline stroke="black" stroke-width="3" stroke-linecap="round" fill="transparent" stroke-linejoin="round" points="94.115966796875 44.13787841796875 79.42523193359375 71.07086181640625 64.12240600585938 97.39173889160156 53.1043701171875 116.36724853515624 45.14691162109375 131.05796813964844 42.698455810546875 137.17910766601563 42.698455810546875 137.17910766601563 " />
        <polyline stroke="black" stroke-width="3" stroke-linecap="round" fill="transparent" stroke-linejoin="round" points="72.07989501953125 92.4948272705078 73.91622924804688 106.5734405517578 75.14044189453125 130.44586181640625 74.5283203125 153.09405517578125 73.91622924804688 171.45745849609375 73.91622924804688 186.76028442382813 74.5283203125 194.10565185546875 74.5283203125 194.10565185546875 " />
        <polyline stroke="black" stroke-width="3" stroke-linecap="round" fill="transparent" stroke-linejoin="round" points="136.96389770507813 55.155914306640625 127.17010498046876 83.92524719238281 119.21261596679688 100.45230102539063 111.255126953125 113.91880798339844 106.9703369140625 120.6520538330078 104.52191162109376 124.32472229003906 107.58245849609376 124.32472229003906 117.37628173828124 117.59147644042967 136.351806640625 103.51287841796876 159 86.37370300292969 179.19970703125 71.6829833984375 195.726806640625 59.440704345703125 202.46002197265625 53.93169403076172 207.96905517578125 47.81055450439453 207.96905517578125 47.81055450439453 " />
        <polyline stroke="black" stroke-width="3" stroke-linecap="round" fill="transparent" stroke-linejoin="round" points="162.67266845703125 61.27705383300781 154.7152099609375 104.12498474121094 144.92138671875 131.6700897216797 133.29119873046875 162.8878631591797 125.333740234375 181.2512664794922 117.9884033203125 196.5541076660156 113.09149169921876 204.51156616210935 109.4188232421875 208.18426513671875 109.4188232421875 206.34793090820313 109.4188232421875 206.34793090820313 " />
        <polyline stroke="black" stroke-width="3" stroke-linecap="round" fill="transparent" stroke-linejoin="round" points="144.92138671875 180.63916015625 153.490966796875 186.14816284179688 162.060546875 193.4935302734375 171.24224853515625 203.287353515625 181.648193359375 217.97805786132813 181.648193359375 217.97805786132813 " />
        </svg>