<?xml version="1.0" standalone="no"?>
    <svg width="256" height="256" xmlns="http://www.w3.org/2000/svg" version="1.1">
    <polyline stroke="black" stroke-width="3" stroke-linecap="round" fill="transparent" stroke-linejoin="round" points="80.37109375 73.19548034667969 75.75091552734375 83.42587280273438 49.349945068359375 133.58773803710938 45.389801025390625 139.8579864501953 39.4495849609375 148.4383087158203 37.139495849609375 150.08836364746094 37.139495849609375 150.08836364746094 37.139495849609375 150.08836364746094 " />
        <polyline stroke="black" stroke-width="3" stroke-linecap="round" fill="transparent" stroke-linejoin="round" points="60.900360107421875 139.19796752929688 61.560394287109375 193.98001098632813 61.890380859375 200.250244140625 63.210418701171875 211.14065551757813 63.8704833984375 216.09085083007813 64.20046997070313 216.7508850097656 64.20046997070313 216.7508850097656 " />
        <polyline stroke="black" stroke-width="3" stroke-linecap="round" fill="transparent" stroke-linejoin="round" points="117.6624755859375 88.37605285644531 101.49188232421876 126.657470703125 88.951416015625 143.4881134033203 87.96139526367188 144.8081512451172 86.97134399414063 146.1282501220703 86.97134399414063 146.1282501220703 86.97134399414063 146.1282501220703 " />
        <polyline stroke="black" stroke-width="3" stroke-linecap="round" fill="transparent" stroke-linejoin="round" points="106.44207763671876 114.11701965332033 142.0833740234375 93.32624816894533 148.02362060546875 90.6861572265625 165.5142822265625 84.08589172363281 177.39471435546875 79.79573059082031 179.704833984375 78.80569458007813 179.704833984375 78.80569458007813 " />
        <polyline stroke="black" stroke-width="3" stroke-linecap="round" fill="transparent" stroke-linejoin="round" points="153.9638671875 67.58528137207031 151.9837646484375 73.85551452636719 138.12322998046875 118.73719787597656 134.49310302734375 128.9675750732422 122.94265747070313 159.65872192382813 114.36236572265624 184.40966796875 108.42214965820313 201.5703125 106.112060546875 206.8504943847656 105.12203979492188 208.50054931640625 105.78207397460938 205.200439453125 105.78207397460938 205.200439453125 105.78207397460938 205.200439453125 " />
        <polyline stroke="black" stroke-width="3" stroke-linecap="round" fill="transparent" stroke-linejoin="round" points="133.83309936523438 176.15936279296875 148.02362060546875 187.04977416992188 160.89410400390625 197.940185546875 169.1444091796875 206.19049072265625 169.1444091796875 206.19049072265625 169.1444091796875 206.19049072265625 " />
        </svg>