<?xml version="1.0" standalone="no"?>
    <svg width="256" height="256" xmlns="http://www.w3.org/2000/svg" version="1.1">
    <polyline stroke="black" stroke-width="3" stroke-linecap="round" fill="transparent" stroke-linejoin="round" points="113.459716796875 66.01506042480469 104.94580078125 77.21757507324219 96.431884765625 88.42008972167969 86.57366943359375 100.9669189453125 68.20150756835938 122.92385864257813 60.583831787109375 131.8858642578125 53.4141845703125 139.95169067382813 47.5888671875 145.77700805664063 47.5888671875 145.77700805664063 " />
        <polyline stroke="black" stroke-width="3" stroke-linecap="round" fill="transparent" stroke-linejoin="round" points="143.9306640625 57.501129150390625 154.2369384765625 57.501129150390625 164.543212890625 57.501129150390625 186.05206298828125 57.94923400878906 196.8065185546875 58.84544372558594 220.107666015625 60.637847900390625 226.381103515625 61.982147216796875 227.27734375 64.67074584960938 227.27734375 64.67074584960938 " />
        <polyline stroke="black" stroke-width="3" stroke-linecap="round" fill="transparent" stroke-linejoin="round" points="82.98886108398438 135.91879272460938 80.30026245117188 145.77700805664063 77.61166381835938 155.63522338867188 75.37115478515625 164.14913940429688 72.23443603515625 178.04025268554688 69.99395751953125 186.1060791015625 68.64962768554688 190.13897705078125 68.64962768554688 190.13897705078125 " />
        <polyline stroke="black" stroke-width="3" stroke-linecap="round" fill="transparent" stroke-linejoin="round" points="84.33319091796874 139.50360107421875 89.71038818359375 134.1263885498047 95.08758544921876 128.74917602539063 102.25717163085938 122.92385864257813 117.49261474609376 111.2732391357422 131.83184814453125 103.655517578125 143.03436279296875 101.41502380371094 151.54827880859375 104.10362243652344 157.82171630859375 112.6175537109375 163.19891357421875 130.54156494140625 166.78369140625 147.12130737304688 171.71282958984375 160.1162109375 177.98626708984375 168.18203735351563 182.0191650390625 171.31875610351563 190.5330810546875 174.90354919433594 205.3204345703125 171.766845703125 205.3204345703125 171.766845703125 " />
        <polyline stroke="black" stroke-width="3" stroke-linecap="round" fill="transparent" stroke-linejoin="round" points="104.94570922851563 153.39471435546875 112.5634765625 148.46560668945313 120.18124389648438 143.5364990234375 128.69515991210938 139.05548095703125 145.72299194335938 131.4377899169922 152.44451904296875 128.74917602539063 161.406494140625 126.06057739257813 164.543212890625 125.1643524169922 164.543212890625 125.1643524169922 " />
        <polyline stroke="black" stroke-width="3" stroke-linecap="round" fill="transparent" stroke-linejoin="round" points="100.91296386718753 184.7617950439453 109.87493896484376 179.83267211914063 118.8369140625 174.90354919433594 137.65716552734375 161.46051025390625 137.65716552734375 161.46051025390625 " />
        <polyline stroke="black" stroke-width="3" stroke-linecap="round" fill="transparent" stroke-linejoin="round" points="111.66735839843753 82.59478759765625 109.87493896484376 96.03781127929688 108.08251953125 109.4808349609375 106.73822021484376 124.71627807617188 107.186279296875 156.9795379638672 109.87493896484376 182.0731658935547 113.90780639648438 201.78961181640625 113.90780639648438 201.78961181640625 " />
        </svg>