<?xml version="1.0" standalone="no"?>
    <svg width="256" height="256" xmlns="http://www.w3.org/2000/svg" version="1.1">
    <polyline stroke="black" stroke-width="3" stroke-linecap="round" fill="transparent" stroke-linejoin="round" points="123.29910278320315 48.28425598144531 113.54632568359376 57.63067626953125 103.79354858398438 66.97709655761719 94.04074096679688 75.91714477539063 77.3797607421875 91.76541137695313 63.563323974609375 103.95639038085938 63.563323974609375 103.95639038085938 " />
        <polyline stroke="black" stroke-width="3" stroke-linecap="round" fill="transparent" stroke-linejoin="round" points="124.51824951171875 31.21691131591797 135.49008178710938 31.21691131591797 146.4619140625 31.21691131591797 169.624755859375 34.06146240234375 191.97491455078125 39.750579833984375 212.293212890625 47.877899169921875 220.01416015625 51.941558837890625 220.826904296875 52.75428771972656 220.826904296875 52.75428771972656 " />
        <polyline stroke="black" stroke-width="3" stroke-linecap="round" fill="transparent" stroke-linejoin="round" points="104.19989013671875 104.76910400390628 102.57443237304688 114.1155242919922 100.948974609375 123.46194458007813 98.51080322265624 134.43382263183594 89.97711181640625 158.81576538085938 81.84979248046875 176.6958465576172 76.973388671875 186.4486083984375 74.53521728515625 189.69955444335935 74.12884521484375 190.10592651367188 74.12884521484375 190.10592651367188 " />
        <polyline stroke="black" stroke-width="3" stroke-linecap="round" fill="transparent" stroke-linejoin="round" points="102.16802978515625 120.61743164062499 116.390869140625 112.49008178710938 130.61370849609375 104.36273193359376 156.62109375 94.20361328125 160.68475341796875 93.7972412109375 166.78021240234375 95.42269897460938 171.250244140625 103.95639038085938 174.9075927734375 122.24284362792967 178.5648193359375 141.34202575683594 183.44122314453125 157.59666442871094 186.2857666015625 164.50486755371094 193.19403076171875 177.50857543945313 195.225830078125 179.94676208496094 201.7276611328125 181.9786071777344 204.572265625 179.94676208496094 204.572265625 179.94676208496094 " />
        <polyline stroke="black" stroke-width="3" stroke-linecap="round" fill="transparent" stroke-linejoin="round" points="110.29541015625 147.84385681152344 117.20361328125 144.5929412841797 124.11181640625 141.34202575683594 141.99191284179688 133.2147216796875 152.5574951171875 127.52560424804688 161.49749755859375 122.64920043945313 161.49749755859375 122.64920043945313 " />
        <polyline stroke="black" stroke-width="3" stroke-linecap="round" fill="transparent" stroke-linejoin="round" points="96.47894287109376 171.8194580078125 104.19989013671876 171.4130859375 111.92083740234376 171.0067138671875 128.58184814453125 167.34942626953125 137.92828369140625 163.2857666015625 149.71286010742188 155.97119140625 149.71286010742188 155.97119140625 " />
        <polyline stroke="black" stroke-width="3" stroke-linecap="round" fill="transparent" stroke-linejoin="round" points="120.04818725585938 69.0089111328125 120.04818725585938 80.79351806640625 120.04818725585938 92.578125 121.26727294921876 123.8682861328125 124.5181884765625 168.9748992919922 126.14364624023438 190.10592651367188 127.36273193359376 211.2369384765625 127.36273193359376 211.2369384765625 " />
        </svg>