<?xml version="1.0" standalone="no"?>
    <svg width="256" height="256" xmlns="http://www.w3.org/2000/svg" version="1.1">
    <polyline stroke="black" stroke-width="3" stroke-linecap="round" fill="transparent" stroke-linejoin="round" points="127.06869506835938 50.26287841796875 120.45989990234376 58.11083984375 114.26412963867188 65.95878601074219 104.76400756835938 79.1763916015625 86.17672729492188 107.26382446289063 73.78521728515625 125.02496337890624 66.76336669921875 134.52513122558594 62.63287353515625 139.06869506835938 61.806732177734375 139.4817352294922 61.806732177734375 139.4817352294922 " />
        <polyline stroke="black" stroke-width="3" stroke-linecap="round" fill="transparent" stroke-linejoin="round" points="136.56884765625 60.589141845703125 147.72119140625 59.763031005859375 154.7430419921875 60.17608642578125 163.00408935546875 61.00218200683594 171.6781005859375 62.2413330078125 181.17828369140625 64.30657958984375 199.76556396484375 68.43708801269531 218.352783203125 75.45895385742188 227.02685546875 79.1763916015625 227.02685546875 79.1763916015625 " />
        <polyline stroke="black" stroke-width="3" stroke-linecap="round" fill="transparent" stroke-linejoin="round" points="117.9815673828125 110.98126220703124 106.41619873046876 143.19918823242188 96.916015625 177.89541625976563 94.85076904296876 185.74337768554688 91.13330078125 196.06964111328125 88.655029296875 199.78707885742188 88.241943359375 199.78707885742188 88.241943359375 199.78707885742188 " />
        <polyline stroke="black" stroke-width="3" stroke-linecap="round" fill="transparent" stroke-linejoin="round" points="131.19918823242188 118.8292236328125 144.829833984375 116.35092163085938 149.37338256835938 115.9378662109375 162.59100341796875 115.9378662109375 166.3084716796875 117.17703247070313 170.02587890625 118.8292236328125 176.63470458984375 125.85107421875 184.895751953125 141.96002197265625 191.9176025390625 160.13424682617188 198.5263671875 175.00405883789063 204.30908203125 184.91726684570313 209.2657470703125 190.28692626953125 215.46142578125 193.59130859375 222.07025146484375 194.41741943359375 227.43994140625 191.93911743164065 229.918212890625 188.63470458984375 229.918212890625 188.63470458984375 " />
        <polyline stroke="black" stroke-width="3" stroke-linecap="round" fill="transparent" stroke-linejoin="round" points="125.00341796875 163.85171508789063 135.74276733398438 161.78643798828125 142.76458740234375 160.54730224609375 156.395263671875 158.48204040527344 173.743408203125 156.4167938232422 180.3521728515625 156.00375366210938 180.3521728515625 156.00375366210938 " />
        <polyline stroke="black" stroke-width="3" stroke-linecap="round" fill="transparent" stroke-linejoin="round" points="106.41619873046876 212.59164428710935 129.13397216796875 210.939453125 137.8079833984375 208.46112060546875 165.0693359375 194.00436401367188 165.0693359375 194.00436401367188 " />
        <polyline stroke="black" stroke-width="3" stroke-linecap="round" fill="transparent" stroke-linejoin="round" points="155.982177734375 126.26412963867188 152.2647705078125 158.06900024414063 151.85174560546875 175.83016967773438 151.85174560546875 190.69998168945313 152.2647705078125 205.56976318359375 154.7430419921875 238.61380004882813 155.5692138671875 248.52703857421875 155.5692138671875 248.52703857421875 " />
        </svg>