<?xml version="1.0" standalone="no"?>
    <svg width="256" height="256" xmlns="http://www.w3.org/2000/svg" version="1.1">
    <polyline stroke="black" stroke-width="3" stroke-linecap="round" fill="transparent" stroke-linejoin="round" points="155.27536010742188 40.50102233886719 139.7435302734375 60.65045166015625 124.21170043945313 80.79988098144531 104.06222534179688 106.82623291015624 83.912841796875 130.75369262695313 66.70184326171875 149.64378356933594 55.367767333984375 164.33607482910156 46.132659912109375 175.67013549804688 46.132659912109375 175.67013549804688 " />
        <polyline stroke="black" stroke-width="3" stroke-linecap="round" fill="transparent" stroke-linejoin="round" points="134.70623779296875 57.292205810546875 167.86883544921875 75.34274291992188 201.03143310546875 93.39328002929688 228.31707763671875 111.86360168457033 248.0467529296875 121.93830871582033 259.380859375 126.13612365722656 259.380859375 126.13612365722656 " />
        <polyline stroke="black" stroke-width="3" stroke-linecap="round" fill="transparent" stroke-linejoin="round" points="99.86447143554688 149.64376831054688 98.60513305664063 158.0393829345703 97.34579467773438 166.43499755859375 94.4073486328125 179.02838134765625 89.78973388671875 195.819580078125 85.59194946289063 210.09210205078125 82.65350341796875 220.16683959960935 80.97439575195313 223.94479370117188 80.97439575195313 223.94479370117188 " />
        <polyline stroke="black" stroke-width="3" stroke-linecap="round" fill="transparent" stroke-linejoin="round" points="104.90182495117188 143.34706115722656 125.47103881835938 133.692138671875 146.04025268554688 124.03721618652344 154.85565185546875 119.4196319580078 162.41168212890625 115.22183227539063 168.7083740234375 111.44383239746094 173.7457275390625 109.3449249267578 176.264404296875 107.66580200195313 177.10394287109375 107.24601745605467 176.6842041015625 113.12294006347656 174.16552734375 123.61744689941406 171.6468505859375 139.14927673339844 171.6468505859375 157.19981384277344 175.4248046875 175.67013549804688 182.98089599609375 192.4613342285156 190.95672607421875 200.85693359375 197.25341796875 203.3756103515625 202.29071044921875 202.95587158203125 205.229248046875 200.43716430664065 208.16766357421875 196.65914916992188 210.68634033203125 192.4613342285156 213.62481689453125 188.26351928710935 215.7237548828125 185.3250732421875 216.14349365234375 184.06573486328125 215.30389404296875 180.2877197265625 212.78521728515625 176.0899200439453 209.00726318359375 171.47235107421875 206.06878662109375 166.0152130126953 206.06878662109375 166.0152130126953 " />
        <polyline stroke="black" stroke-width="3" stroke-linecap="round" fill="transparent" stroke-linejoin="round" points="118.75457763671875 167.2745819091797 132.6072998046875 158.4591827392578 146.46002197265625 149.64378356933594 151.4974365234375 146.2855682373047 157.7940673828125 143.3470916748047 160.7325439453125 142.92730712890625 160.7325439453125 142.92730712890625 " />
        <polyline stroke="black" stroke-width="3" stroke-linecap="round" fill="transparent" stroke-linejoin="round" points="114.55685424804688 202.11630249023443 128.82931518554688 190.36245727539065 143.10177612304688 178.60861206054688 152.33697509765625 170.63279724121094 159.89300537109375 165.59542846679688 163.251220703125 163.49652099609375 163.251220703125 163.49652099609375 " />
        <polyline stroke="black" stroke-width="3" stroke-linecap="round" fill="transparent" stroke-linejoin="round" points="135.96551513671875 79.12075805664063 135.54574584960938 116.0614013671875 135.1259765625 153.00204467773438 135.54574584960938 187.42398071289065 135.96554565429688 219.3272399902344 137.224853515625 242.4151306152344 138.4842529296875 251.65032958984375 138.4842529296875 251.65032958984375 " />
        </svg>