<?xml version="1.0" standalone="no"?>
    <svg width="256" height="256" xmlns="http://www.w3.org/2000/svg" version="1.1">
    <polyline stroke="black" stroke-width="3" stroke-linecap="round" fill="transparent" stroke-linejoin="round" points="141.95736694335938 31.430320739746097 136.43060302734375 39.72054290771485 130.50900268554688 48.01075744628906 111.95468139648438 69.72323608398438 72.08270263671875 109.59524536132813 64.976806640625 116.30633544921876 53.923187255859375 126.1756591796875 49.9754638671875 129.33383178710938 49.9754638671875 129.33383178710938 " />
        <polyline stroke="black" stroke-width="3" stroke-linecap="round" fill="transparent" stroke-linejoin="round" points="119.06060791015624 55.51142883300781 138.7991943359375 54.721885681152344 146.69467163085938 55.11665344238281 155.7744140625 55.51142883300781 175.5130615234375 57.09051513671875 194.06732177734375 59.06437683105469 209.85821533203125 61.038238525390625 221.70135498046875 62.222564697265625 228.80731201171875 63.40687561035156 228.80731201171875 63.40687561035156 " />
        <polyline stroke="black" stroke-width="3" stroke-linecap="round" fill="transparent" stroke-linejoin="round" points="120.24493408203124 94.19912719726563 116.69198608398438 111.56907653808594 114.32333374023438 121.04362487792967 111.5599365234375 132.09722900390625 108.7965087890625 143.54563903808594 102.48016357421876 162.88946533203125 97.34814453125 177.89080810546875 92.61083984375 188.5496826171875 91.03173828125 191.70785522460935 91.03173828125 191.70785522460935 " />
        <polyline stroke="black" stroke-width="3" stroke-linecap="round" fill="transparent" stroke-linejoin="round" points="106.42791748046876 129.72862243652344 121.03448486328124 118.67498779296876 127.350830078125 114.33250427246094 135.24627685546875 109.59524536132813 143.14169311523438 105.2527313232422 158.14306640625 98.54159545898438 171.1705322265625 94.19912719726563 179.46075439453125 92.62002563476563 184.197998046875 93.01480102539063 186.566650390625 94.19912719726563 187.356201171875 103.67364501953124 183.013671875 122.22793579101563 176.6973876953125 139.99267578125 171.9600830078125 154.9940185546875 169.5914306640625 167.23196411132813 169.5914306640625 177.49603271484375 171.5653076171875 185.7862548828125 175.1182861328125 191.70785522460935 179.46075439453125 195.65557861328125 182.618896484375 197.62942504882813 192.48822021484375 200.78759765625 198.80462646484375 200.392822265625 203.9366455078125 197.62942504882813 207.8843994140625 192.89215087890625 211.83203125 183.8124084472656 213.4111328125 169.995361328125 212.62158203125 160.91561889648438 212.62158203125 160.91561889648438 " />
        <polyline stroke="black" stroke-width="3" stroke-linecap="round" fill="transparent" stroke-linejoin="round" points="122.21875 136.4397430419922 132.08807373046875 132.09722900390625 142.35214233398438 128.93905639648438 147.87899780273438 127.75474548339844 158.14306640625 126.57041931152344 167.61761474609375 126.96519470214844 171.9600830078125 129.72862243652344 171.9600830078125 129.72862243652344 " />
        <polyline stroke="black" stroke-width="3" stroke-linecap="round" fill="transparent" stroke-linejoin="round" points="113.53378295898438 171.574462890625 124.58740234375 170.39013671875 129.71945190429688 169.995361328125 135.64105224609375 169.20584106445313 146.69467163085938 167.23196411132813 157.353515625 163.28424072265625 163.27508544921875 159.33651733398438 163.27508544921875 159.33651733398438 " />
        <polyline stroke="black" stroke-width="3" stroke-linecap="round" fill="transparent" stroke-linejoin="round" points="160.116943359375 84.32980346679688 158.537841796875 99.33114624023438 157.353515625 107.62136840820313 153.010986328125 139.99267578125 149.45806884765625 170.784912109375 147.87899780273438 185.3914794921875 147.08944702148438 191.70785522460935 144.72079467773438 209.47259521484375 144.72079467773438 209.47259521484375 " />
        </svg>