<?xml version="1.0" standalone="no"?>
    <svg width="256" height="256" xmlns="http://www.w3.org/2000/svg" version="1.1">
    <polyline stroke="black" stroke-width="3" stroke-linecap="round" fill="transparent" stroke-linejoin="round" points="143 48 139 51 134 57 125 71 112 88 99 106 87 122 79 133 73 140 69 145 66 148 64 150 64 150 " />
        <polyline stroke="black" stroke-width="3" stroke-linecap="round" fill="transparent" stroke-linejoin="round" points="129 62 136 68 144 71 156 76 168 82 177 89 185 95 189 100 193 104 196 107 196 109 196 111 196 111 " />
        <polyline stroke="black" stroke-width="3" stroke-linecap="round" fill="transparent" stroke-linejoin="round" points="110 150 111 154 111 159 111 166 111 173 111 180 111 186 110 192 108 198 106 202 103 207 100 212 97 218 94 223 91 229 89 233 86 236 83 239 82 241 81 241 80 242 80 242 " />
        <polyline stroke="black" stroke-width="3" stroke-linecap="round" fill="transparent" stroke-linejoin="round" points="115 148 120 146 125 144 134 138 146 131 154 126 160 124 165 122 170 122 171 122 172 122 172 125 172 133 170 143 169 159 169 174 169 183 174 189 181 193 189 194 198 194 205 193 210 191 213 189 214 186 214 180 212 176 207 171 204 166 204 166 " />
        <polyline stroke="black" stroke-width="3" stroke-linecap="round" fill="transparent" stroke-linejoin="round" points="120 169 126 167 131 166 139 163 148 159 155 156 159 155 163 154 165 154 166 154 165 154 160 155 160 155 " />
        <polyline stroke="black" stroke-width="3" stroke-linecap="round" fill="transparent" stroke-linejoin="round" points="115 196 120 197 126 197 135 193 147 186 155 181 161 179 165 178 169 176 171 176 171 174 171 172 171 166 171 166 " />
        <polyline stroke="black" stroke-width="3" stroke-linecap="round" fill="transparent" stroke-linejoin="round" points="141 105 142 110 142 116 142 125 143 142 143 164 143 187 144 209 145 224 147 234 149 241 151 247 152 250 152 250 " />
        </svg>