<?xml version="1.0" standalone="no"?>
    <svg width="256" height="256" xmlns="http://www.w3.org/2000/svg" version="1.1">
    <polyline stroke="black" stroke-width="3" stroke-linecap="round" fill="transparent" stroke-linejoin="round" points="58.62591552734375 95.55068969726563 76.75143432617188 88.03523254394531 86.477294921875 84.94062805175781 96.64532470703124 81.4039306640625 106.37118530273438 78.309326171875 146.158935546875 66.81509399414063 161.18988037109375 62.39422607421875 171.35791015625 60.18379211425781 174.4525146484375 59.29962158203125 174.4525146484375 59.29962158203125 " />
        <polyline stroke="black" stroke-width="3" stroke-linecap="round" fill="transparent" stroke-linejoin="round" points="68.35177612304688 119.42337036132813 90.01400756835938 110.58163452148438 100.1820068359375 107.04495239257813 109.4658203125 103.95034790039063 118.74960327148438 101.29782104492188 136.87518310546875 97.3190460205078 145.27484130859375 95.55068969726563 160.3057861328125 92.01400756835938 171.35791015625 86.70896911621094 171.35791015625 86.70896911621094 " />
        <polyline stroke="black" stroke-width="3" stroke-linecap="round" fill="transparent" stroke-linejoin="round" points="126.26507568359376 36.75322723388672 117.42333984375 55.32084655761719 113.88665771484376 65.0467529296875 110.79208374023438 75.2147216796875 108.13958740234376 85.82479858398438 105.92913818359376 95.55068969726563 102.83453369140624 114.56040954589844 100.62408447265624 127.38092041015624 99.29782104492188 134.01220703125 98.855712890625 135.33847045898438 98.855712890625 135.33847045898438 " />
        <polyline stroke="black" stroke-width="3" stroke-linecap="round" fill="transparent" stroke-linejoin="round" points="152.790283203125 39.40574645996094 149.69564819335938 61.9521484375 148.369384765625 73.00430297851563 142.62228393554688 105.71867370605467 130.24386596679688 132.24386596679688 130.24386596679688 132.24386596679688 " />
        <polyline stroke="black" stroke-width="3" stroke-linecap="round" fill="transparent" stroke-linejoin="round" points="70.56222534179688 164.07406616210938 89.57196044921875 154.34817504882813 99.29782104492188 150.369384765625 108.13958740234376 146.83270263671875 116.98129272460938 143.2960205078125 132.8963623046875 138.43307495117188 145.71688842773438 134.45428466796875 155.000732421875 131.35971069335938 159.42156982421875 128.70718383789063 160.747802734375 125.612548828125 159.8636474609375 121.6337890625 158.537353515625 120.30752563476563 147.92733764648438 121.1916961669922 134.66473388671875 130.9176025390625 119.6337890625 148.60105895996094 105.487060546875 168.49493408203125 93.99276733398438 183.9679412841797 84.708984375 193.25177001953125 76.75143432617188 199.883056640625 70.56222534179688 204.30392456054688 68.35177612304688 205.1881103515625 67.46762084960938 205.63018798828125 80.2880859375 202.53558349609375 105.044921875 196.7884521484375 130.68597412109375 192.3675842285156 154.1165771484375 190.5992431640625 174.01043701171875 190.5992431640625 193.904296875 194.13592529296875 193.904296875 194.13592529296875 " />
        </svg>