<?xml version="1.0" standalone="no"?>
    <svg width="256" height="256" xmlns="http://www.w3.org/2000/svg" version="1.1">
    <polyline stroke="black" stroke-width="3" stroke-linecap="round" fill="transparent" stroke-linejoin="round" points="100.54254150390625 62.913421630859375 115.1717529296875 59.662506103515625 129.80096435546875 56.411590576171875 183.03485107421875 49.09700012207031 191.56854248046875 48.690635681152344 200.10223388671875 47.877899169921875 200.10223388671875 47.877899169921875 " />
        <polyline stroke="black" stroke-width="3" stroke-linecap="round" fill="transparent" stroke-linejoin="round" points="63.9697265625 114.52191162109375 82.25616455078125 111.67733764648438 100.5426025390625 108.832763671875 111.10812377929688 107.20730590820313 134.67733764648438 103.55001831054688 159.05926513671875 98.26725769042967 170.03118896484375 93.7972412109375 170.03118896484375 93.7972412109375 " />
        <polyline stroke="black" stroke-width="3" stroke-linecap="round" fill="transparent" stroke-linejoin="round" points="131.42645263671875 10.085891723632816 126.95639038085938 19.838668823242188 122.486328125 29.59144592285156 112.73358154296876 57.22430419921875 108.669921875 72.66621398925781 102.98080444335938 103.14364624023438 101.35531616210938 123.46194458007813 101.35531616210938 131.99563598632813 101.76171875 132.4019775390625 101.76171875 132.4019775390625 " />
        <polyline stroke="black" stroke-width="3" stroke-linecap="round" fill="transparent" stroke-linejoin="round" points="146.86822509765625 25.121414184570313 149.30648803710938 47.877899169921875 151.7447509765625 70.63438415527344 150.93197631835938 98.26725769042967 147.274658203125 115.74099731445313 147.274658203125 115.74099731445313 " />
        <polyline stroke="black" stroke-width="3" stroke-linecap="round" fill="transparent" stroke-linejoin="round" points="78.598876953125 170.60035705566406 89.57073974609375 165.72396850585938 100.5426025390625 160.8475799560547 111.51449584960938 155.97119140625 122.08001708984376 151.50115966796875 157.433837890625 134.84017944335938 157.433837890625 134.84017944335938 " />
        <polyline stroke="black" stroke-width="3" stroke-linecap="round" fill="transparent" stroke-linejoin="round" points="147.27459716796875 128.74472045898438 140.77279663085938 139.31021118164063 134.27099609375 149.87570190429688 121.26727294921876 171.8194580078125 105.82537841796876 191.32501220703125 96.47894287109376 200.26507568359375 72.09701538085938 215.30059814453125 67.22064208984375 216.92605590820313 63.156951904296875 216.92605590820313 63.969696044921875 216.11334228515625 80.22430419921875 207.98602294921875 109.07626342773438 197.82687377929688 152.15106201171875 190.51226806640625 168.81207275390625 189.29318237304688 168.81207275390625 189.29318237304688 " />
        </svg>