<?xml version="1.0" standalone="no"?>
    <svg width="256" height="256" xmlns="http://www.w3.org/2000/svg" version="1.1">
    <polyline stroke="black" stroke-width="3" stroke-linecap="round" fill="transparent" stroke-linejoin="round" points="67.9677734375 81.47679138183594 81.43426513671875 72.29508972167969 97.34921264648438 61.27705383300781 114.4884033203125 49.64689636230469 129.17910766601563 41.07730865478515 140.1971435546875 36.792518615722656 145.7061767578125 36.792518615722656 145.7061767578125 42.91365051269531 129.17910766601563 74.13143920898438 95.51287841796876 124.93684387207033 76.537353515625 146.97291564941406 58.1739501953125 165.33631896972656 58.1739501953125 165.33631896972656 " />
        <polyline stroke="black" stroke-width="3" stroke-linecap="round" fill="transparent" stroke-linejoin="round" points="85.71905517578125 91.27059936523438 107.755126953125 87.59793090820313 131.6275634765625 85.76158142089844 157.3363037109375 85.14947509765625 174.4754638671875 84.537353515625 188.5540771484375 83.31312561035156 188.5540771484375 83.31312561035156 " />
        <polyline stroke="black" stroke-width="3" stroke-linecap="round" fill="transparent" stroke-linejoin="round" points="105.9188232421875 136.56700134277344 99.185546875 150.64559936523438 96.73712158203124 158.6030731201172 94.9007568359375 166.560546875 94.9007568359375 172.6816864013672 96.73712158203124 177.57858276367188 102.24612426757813 181.2512664794922 112.0399169921875 181.2512664794922 123.67010498046876 177.57858276367188 137.74868774414063 168.3968963623047 150.60308837890625 156.76673889160156 161.009033203125 142.68812561035156 169.57861328125 126.77317810058594 169.57861328125 126.77317810058594 " />
        <polyline stroke="black" stroke-width="3" stroke-linecap="round" fill="transparent" stroke-linejoin="round" points="167.130126953125 116.9793701171875 167.74224853515625 133.5064239501953 168.3543701171875 142.07601928710938 168.3543701171875 149.42137145996094 163.45745849609375 155.54251098632813 163.45745849609375 155.54251098632813 " />
        <polyline stroke="black" stroke-width="3" stroke-linecap="round" fill="transparent" stroke-linejoin="round" points="134.07601928710938 121.87628173828124 132.23968505859375 139.01544189453125 125.50640869140624 167.78477478027344 118.773193359375 192.26931762695313 111.42782592773438 216.1417236328125 104.08245849609376 238.7899169921875 104.08245849609376 238.7899169921875 " />
        </svg>