<?xml version="1.0" standalone="no"?>
    <svg width="256" height="256" xmlns="http://www.w3.org/2000/svg" version="1.1">
    <polyline stroke="black" stroke-width="3" stroke-linecap="round" fill="transparent" stroke-linejoin="round" points="60.884857177734375 66.80712890625 73.6324462890625 56.53825378417969 88.15054321289063 48.39392852783203 102.3145751953125 42.02014923095703 112.2293701171875 38.12505340576172 118.95721435546876 35.64635467529297 124.26876831054688 33.8758544921875 127.1015625 33.16765594482422 126.03924560546876 36.000457763671875 118.2490234375 45.915245056152344 104.793212890625 62.20384216308594 87.79644775390625 83.80392456054688 71.50784301757813 105.40402221679688 56.63568115234375 122.40081787109376 50.261871337890625 127.71231079101563 50.261871337890625 127.71231079101563 " />
        <polyline stroke="black" stroke-width="3" stroke-linecap="round" fill="transparent" stroke-linejoin="round" points="77.52755737304688 56.53825378417969 112.93756103515624 77.07603454589844 142.68194580078125 88.76132202148438 172.78033447265625 95.48922729492188 199.69195556640625 97.6138153076172 218.45928955078125 94.78102111816406 223.41668701171875 93.71871948242188 223.41668701171875 93.71871948242188 " />
        <polyline stroke="black" stroke-width="3" stroke-linecap="round" fill="transparent" stroke-linejoin="round" points="73.6324462890625 133.73202514648438 73.6324462890625 153.20750427246094 74.69476318359375 158.16490173339844 77.88165283203125 163.47640991210938 84.96365356445313 167.01736450195313 98.41943359375 168.07968139648438 112.93756103515624 164.89279174804688 126.03924560546876 160.64358520507813 137.72454833984375 156.04029846191406 145.51473999023438 152.49929809570313 149.763916015625 149.31240844726563 149.763916015625 149.31240844726563 " />
        <polyline stroke="black" stroke-width="3" stroke-linecap="round" fill="transparent" stroke-linejoin="round" points="143.03604125976563 119.92210388183594 141.97372436523438 144.7091064453125 142.32785034179688 153.20750427246094 142.32785034179688 153.20750427246094 " />
        <polyline stroke="black" stroke-width="3" stroke-linecap="round" fill="transparent" stroke-linejoin="round" points="105.50143432617188 101.5089111328125 108.6883544921875 126.29591369628906 109.39657592773438 146.47959899902344 107.98016357421876 168.43377685546875 102.3145751953125 194.63717651367188 95.2325439453125 217.29953002929688 85.3177490234375 238.899658203125 80.3603515625 247.3980407714844 80.3603515625 247.3980407714844 " />
        </svg>