<?xml version="1.0" standalone="no"?>
    <svg width="256" height="256" xmlns="http://www.w3.org/2000/svg" version="1.1">
    <polyline stroke="black" stroke-width="3" stroke-linecap="round" fill="transparent" stroke-linejoin="round" points="93.795166015625 57.05522155761719 93.400390625 79.55723571777344 91.42657470703124 92.584716796875 88.66314697265625 107.5860595703125 79.9781494140625 138.7730712890625 62.608154296875 182.5927734375 51.949310302734375 206.67388916015625 51.949310302734375 206.67388916015625 " />
        <polyline stroke="black" stroke-width="3" stroke-linecap="round" fill="transparent" stroke-linejoin="round" points="93.400390625 87.45268249511719 100.90109252929688 77.9781494140625 105.63836669921876 73.24087524414063 111.95468139648438 67.71406555175781 126.9560546875 57.05522155761719 135.24627685546875 53.10749816894531 150.24761962890625 48.37023162841797 163.27508544921875 47.97545623779297 173.5391845703125 52.31794738769531 181.03985595703125 62.187255859375 187.356201171875 84.68928527832031 187.7509765625 112.71810913085938 185.38232421875 140.35215759277344 183.80322265625 163.6437225341797 184.197998046875 182.987548828125 187.356201171875 197.1993408203125 192.09344482421875 206.67388916015625 194.85687255859375 209.83206176757813 205.9105224609375 216.93798828125 213.4111328125 217.72750854492188 220.122314453125 215.35888671875 226.04388427734375 209.43731689453125 233.9393310546875 187.33004760742188 236.3079833984375 175.88165283203125 236.3079833984375 175.88165283203125 " />
        <polyline stroke="black" stroke-width="3" stroke-linecap="round" fill="transparent" stroke-linejoin="round" points="156.169189453125 83.11018371582031 139.9835205078125 99.29583740234376 131.69332885742188 107.5860595703125 123.00830078125 116.66583251953124 107.61224365234376 131.6671600341797 101.69061279296876 137.1939697265625 92.61083984375 146.27374267578125 87.47882080078125 150.61624145507813 87.47882080078125 150.61624145507813 " />
        <polyline stroke="black" stroke-width="3" stroke-linecap="round" fill="transparent" stroke-linejoin="round" points="112.74423217773438 104.82267761230467 123.7978515625 107.19131469726563 129.71945190429688 109.16514587402344 136.43060302734375 111.13900756835938 158.14306640625 118.2449188232422 171.1705322265625 123.376953125 176.3026123046875 125.74559020996094 184.197998046875 129.69332885742188 184.197998046875 129.69332885742188 " />
        <polyline stroke="black" stroke-width="3" stroke-linecap="round" fill="transparent" stroke-linejoin="round" points="152.6162109375 131.6671600341797 147.87899780273438 144.29986572265625 146.29989624023438 150.61624145507813 145.11557006835938 156.93258666992188 142.35214233398438 177.0659637451172 141.16781616210938 182.197998046875 138.7991943359375 190.09344482421875 135.64105224609375 195.62026977539065 132.48284912109375 198.3836669921875 128.53512573242188 199.9627685546875 123.7978515625 199.1732177734375 119.85015869140624 194.4359436035156 115.90243530273438 184.566650390625 113.53378295898438 174.30255126953125 112.34945678710938 169.56529235839844 110.77035522460938 167.5914306640625 108.4017333984375 167.5914306640625 103.66448974609376 170.74961853027344 97.34814453125 177.4607391357422 91.42657470703124 185.356201171875 87.87362670898438 191.27777099609375 87.08407592773438 193.64642333984375 87.08407592773438 193.64642333984375 " />
        <polyline stroke="black" stroke-width="3" stroke-linecap="round" fill="transparent" stroke-linejoin="round" points="167.61761474609375 158.51168823242188 171.9600830078125 167.1966552734375 173.5391845703125 171.14439392089844 175.1182861328125 175.88165283203125 178.2764892578125 186.54052734375 179.85552978515625 193.64642333984375 182.22412109375 211.80593872070313 182.618896484375 221.28045654296875 182.618896484375 221.28045654296875 " />
        </svg>