<?xml version="1.0" standalone="no"?>
    <svg width="256" height="256" xmlns="http://www.w3.org/2000/svg" version="1.1">
    <polyline stroke="black" stroke-width="3" stroke-linecap="round" fill="transparent" stroke-linejoin="round" points="75.65423583984375 96.24462890625003 74.89254760742188 115.61859130859376 74.130859375 134.9925537109375 71.94525146484375 155.01646423339844 60.1556396484375 197.6817626953125 55.9659423828125 207.39520263671875 51.147918701171875 218.6670837402344 51.26702880859375 215.91314697265625 " />
        <polyline stroke="black" stroke-width="3" stroke-linecap="round" fill="transparent" stroke-linejoin="round" points="66.91046142578125 76.43170166015625 76.2210693359375 73.52410888671875 85.53167724609375 70.61651611328125 96.2347412109375 67.60768127441406 115.33651733398438 61.65080261230469 123.6361083984375 58.87127685546875 137.6083984375 53.5740966796875 143.25457763671875 51.586456298828125 154.3599853515625 48.324371337890625 162.08447265625 47.773338317871094 163.95697021484375 48.87226867675781 164.41253662109375 50.30717468261719 167.0152587890625 63.99635314941406 169.4945068359375 97.36209106445313 170.51898193359375 118.02610778808594 172.66937255859375 155.03427124023438 178.5975341796875 191.78411865234375 182.7587890625 205.35379028320313 186.6700439453125 212.7569580078125 195.3388671875 223.0262451171875 201.2802734375 224.8973693847656 203.32586669921875 224.104736328125 206.1473388671875 220.92236328125 207.7203369140625 218.13385009765625 217.044677734375 187.762939453125 217.6702880859375 183.36778259277344 " />
        <polyline stroke="black" stroke-width="3" stroke-linecap="round" fill="transparent" stroke-linejoin="round" points="130.66986083984375 87.98120117187499 125.26986694335938 93.50167846679688 119.869873046875 99.02215576171876 114.12042236328124 104.6806640625 101.84368896484376 115.6978759765625 101.29656982421876 116.1021728515625 " />
        <polyline stroke="black" stroke-width="3" stroke-linecap="round" fill="transparent" stroke-linejoin="round" points="118.61077880859375 92.00329589843753 126.8447265625 95.83747863769533 135.07867431640625 99.67166137695313 150.4566650390625 106.26242065429688 153.20159912109375 108.5169677734375 152.88653564453125 109.42611694335938 152.794677734375 109.691162109375 " />
        <polyline stroke="black" stroke-width="3" stroke-linecap="round" fill="transparent" stroke-linejoin="round" points="129.16143798828125 136.44955444335938 129.8392333984375 148.14218139648438 130.51702880859375 159.83480834960938 130.0791015625 184.04052734375 128.845947265625 192.08575439453125 126.0860595703125 199.1424560546875 122.1666259765625 202.445068359375 120.59027099609376 202.62564086914065 120.1114501953125 202.68051147460935 " />
        <polyline stroke="black" stroke-width="3" stroke-linecap="round" fill="transparent" stroke-linejoin="round" points="98.45465087890624 172.2911682128906 96.707275390625 178.8199462890625 94.95989990234376 185.3487243652344 91.00885009765624 195.1830139160156 90.72021484375 196.04669189453125 " />
        <polyline stroke="black" stroke-width="3" stroke-linecap="round" fill="transparent" stroke-linejoin="round" points="158.1195068359375 189.84759521484375 160.6795654296875 191.143798828125 163.2396240234375 192.44000244140625 164.1531982421875 192.92605590820313 164.85223388671875 193.19903564453125 " />
        </svg>