<?xml version="1.0" standalone="no"?>
    <svg width="256" height="256" xmlns="http://www.w3.org/2000/svg" version="1.1">
    <polyline stroke="black" stroke-width="3" stroke-linecap="round" fill="transparent" stroke-linejoin="round" points="77.68927001953125 44.30125427246095 76.4564208984375 54.98616790771485 75.22357177734375 65.67108154296875 73.57977294921875 77.99984741210938 71.52490234375 91.97242736816406 64.94964599609375 131.83541870117188 59.607147216796875 156.9038543701172 53.853729248046875 179.0956268310547 48.922210693359375 192.65725708007813 46.045501708984375 198.41067504882813 45.223602294921875 199.23260498046875 45.223602294921875 199.23260498046875 " />
        <polyline stroke="black" stroke-width="3" stroke-linecap="round" fill="transparent" stroke-linejoin="round" points="99.47006225585938 50.054664611816406 106.45639038085938 47.58891296386719 113.44271850585938 45.12316131591797 127.00433349609376 41.424530029296875 142.20980834960938 39.78070068359375 154.949462890625 41.013572692871094 164.8125 44.71220397949219 171.798828125 50.87657928466797 179.196044921875 64.43820190429688 184.949462890625 87.451904296875 187.0042724609375 110.87652587890624 188.2371826171875 132.65731811523438 190.702880859375 150.32852172851563 193.9906005859375 163.47918701171875 198.10009765625 172.93124389648438 202.6207275390625 179.50657653808594 207.1412353515625 183.61614990234375 210.0179443359375 185.260009765625 217.826171875 187.72576904296875 223.57958984375 186.90383911132813 227.68914794921875 183.61614990234375 236.31927490234375 169.64358520507813 241.25079345703125 151.1504364013672 241.25079345703125 151.1504364013672 " />
        <polyline stroke="black" stroke-width="3" stroke-linecap="round" fill="transparent" stroke-linejoin="round" points="124.12765502929688 75.53408813476563 122.07284545898438 80.46559143066406 120.01803588867188 85.3970947265625 117.55224609375 91.1505126953125 114.675537109375 97.72584533691406 108.922119140625 109.64366149902344 106.45639038085938 114.98611450195313 101.11395263671876 124.02719116210938 99.05917358398438 126.90391540527344 99.05917358398438 126.90391540527344 " />
        <polyline stroke="black" stroke-width="3" stroke-linecap="round" fill="transparent" stroke-linejoin="round" points="87.14138793945315 80.05462646484375 101.11395263671876 84.16421508789063 115.08651733398438 88.2738037109375 122.89474487304688 91.1505126953125 140.56591796875 97.72584533691406 150.01800537109375 101.42446899414063 160.2919921875 105.5340576171875 175.08642578125 110.87652587890624 175.08642578125 110.87652587890624 " />
        <polyline stroke="black" stroke-width="3" stroke-linecap="round" fill="transparent" stroke-linejoin="round" points="121.66189575195315 142.10934448242188 124.12762451171876 151.97235107421875 126.59335327148438 161.83535766601563 127.82626342773438 166.76687622070313 130.70297241210938 182.7942352294922 130.70297241210938 187.72576904296875 129.05908203125 191.42437744140625 127.82626342773438 192.65725708007813 127.82626342773438 192.65725708007813 " />
        <polyline stroke="black" stroke-width="3" stroke-linecap="round" fill="transparent" stroke-linejoin="round" points="90.01806640624999 167.17782592773438 90.42904663085938 170.87644958496094 90.84002685546876 174.5750732421875 92.894775390625 182.38328552246097 96.18246459960938 188.54766845703125 98.23724365234376 190.60247802734375 98.23724365234376 190.60247802734375 " />
        <polyline stroke="black" stroke-width="3" stroke-linecap="round" fill="transparent" stroke-linejoin="round" points="166.04541015625 153.61618041992188 170.15496826171875 157.72576904296875 174.2645263671875 161.83535766601563 190.702880859375 185.67095947265625 190.702880859375 185.67095947265625 " />
        </svg>