<?xml version="1.0" standalone="no"?>
    <svg width="256" height="256" xmlns="http://www.w3.org/2000/svg" version="1.1">
    <polyline stroke="black" stroke-width="3" stroke-linecap="round" fill="transparent" stroke-linejoin="round" points="62.977935791015625 59.65936279296875 68.41342163085938 85.38729858398438 67.68869018554688 109.66575622558594 64.42739868164063 142.2786407470703 57.90484619140625 174.1667938232422 51.38226318359375 195.18392944335935 45.58441162109375 210.765625 42.3231201171875 216.20114135742188 42.3231201171875 216.20114135742188 " />
        <polyline stroke="black" stroke-width="3" stroke-linecap="round" fill="transparent" stroke-linejoin="round" points="60.079010009765625 73.42924499511719 76.38543701171875 69.44322204589844 82.545654296875 67.9937744140625 95.95318603515624 63.28300476074219 108.635986328125 60.38409423828125 124.2176513671875 57.122802734375 137.2628173828125 53.86151885986328 150.67031860351563 50.96259307861328 162.2659912109375 49.15077209472656 170.60040283203125 48.42604064941406 174.22406005859375 48.42604064941406 176.39825439453125 48.78839874267578 178.57244873046875 51.68732452392578 180.38427734375 66.18193054199219 180.38427734375 87.92385864257813 179.29718017578125 129.23348999023438 178.57244873046875 142.2786407470703 179.29718017578125 178.15277099609375 180.38427734375 189.02374267578125 190.16815185546875 218.7376708984375 197.05303955078125 231.05807495117188 202.12615966796875 237.94302368164065 206.47454833984375 241.9290771484375 210.0982666015625 243.3785400390625 216.2584228515625 236.1312255859375 217.7078857421875 229.24630737304688 219.1573486328125 200.25704956054688 215.8961181640625 171.26783752441406 215.8961181640625 171.26783752441406 " />
        <polyline stroke="black" stroke-width="3" stroke-linecap="round" fill="transparent" stroke-linejoin="round" points="136.17572021484375 64.37010192871094 128.92837524414063 78.13999938964844 119.86929321289063 89.01094055175781 110.08544921875 100.6066436767578 97.040283203125 113.28941345214844 86.53167724609375 119.08726501464844 74.93597412109375 125.6098175048828 70.94998168945313 129.23348999023438 70.94998168945313 129.23348999023438 " />
        <polyline stroke="black" stroke-width="3" stroke-linecap="round" fill="transparent" stroke-linejoin="round" points="93.41659545898438 81.40127563476563 116.97036743164063 86.11203002929688 129.65313720703125 89.01094055175781 140.886474609375 93.3593292236328 156.1058349609375 99.15716552734376 161.541259765625 99.88189697265624 162.2659912109375 100.24424743652344 162.2659912109375 100.6066436767578 162.2659912109375 100.6066436767578 " />
        <polyline stroke="black" stroke-width="3" stroke-linecap="round" fill="transparent" stroke-linejoin="round" points="128.92837524414063 99.15716552734376 128.5660400390625 113.65179443359376 128.5660400390625 119.08726501464844 127.47894287109376 140.46678161621094 127.1165771484375 155.6861572265625 126.391845703125 170.18075561523438 124.94241333007813 179.96461486816406 124.2176513671875 185.0377197265625 123.13055419921876 187.57427978515625 121.68109130859376 189.3861389160156 120.231689453125 190.11083984375 117.69509887695313 190.47320556640625 113.34671020507813 189.3861389160156 109.3607177734375 186.12484741210935 102.47573852539063 175.61622619628906 102.47573852539063 175.61622619628906 " />
        <polyline stroke="black" stroke-width="3" stroke-linecap="round" fill="transparent" stroke-linejoin="round" points="88.70587158203125 137.93023681640625 81.09622192382813 159.309814453125 77.11016845703125 168.0065460205078 72.39944458007813 175.61622619628906 65.87686157226563 182.1387939453125 61.528472900390625 186.12484741210935 61.528472900390625 186.12484741210935 " />
        <polyline stroke="black" stroke-width="3" stroke-linecap="round" fill="transparent" stroke-linejoin="round" points="135.8133544921875 154.2366943359375 157.91766357421875 162.5710906982422 166.2520751953125 168.36892700195313 172.77459716796875 173.8043975830078 176.7606201171875 176.70333862304688 176.7606201171875 177.06568908691406 176.7606201171875 177.06568908691406 " />
        </svg>