<?xml version="1.0" standalone="no"?>
    <svg width="256" height="256" xmlns="http://www.w3.org/2000/svg" version="1.1">
    <polyline stroke="black" stroke-width="3" stroke-linecap="round" fill="transparent" stroke-linejoin="round" points="106.55557250976563 88.44444274902344 115.4444580078125 92.00001525878906 121.66668701171876 92.00001525878906 121.66668701171876 92.00001525878906 " />
        <polyline stroke="black" stroke-width="3" stroke-linecap="round" fill="transparent" stroke-linejoin="round" points="138.55557250976563 58.22222900390625 132.33334350585938 68.88890075683594 125.22222900390624 81.33332824707031 98.55557250976563 119.55555725097656 80.77777099609375 140 66.55557250976563 152.44444274902344 57.666656494140625 156.00003051757813 52.333343505859375 155.11111450195313 52.333343505859375 155.11111450195313 " />
        <polyline stroke="black" stroke-width="3" stroke-linecap="round" fill="transparent" stroke-linejoin="round" points="105.66665649414063 90.22222900390624 117.22225952148438 98.22224426269533 144.77777099609375 112.44444274902344 169.66665649414063 124 192.77777099609375 132.88888549804688 211.4444580078125 138.2222442626953 211.4444580078125 138.2222442626953 " />
        <polyline stroke="black" stroke-width="3" stroke-linecap="round" fill="transparent" stroke-linejoin="round" points="95.00003051757813 151.5555877685547 105.66665649414063 145.33334350585938 116.33334350585938 140.88890075683594 135.00003051757813 133.77780151367188 136.77777099609375 132.88888549804688 135.00003051757813 133.77780151367188 135.00003051757813 133.77780151367188 " />
        <polyline stroke="black" stroke-width="3" stroke-linecap="round" fill="transparent" stroke-linejoin="round" points="95.00003051757813 156.00003051757813 94.11111450195313 164 94.11111450195313 172.88888549804688 97.66665649414063 190.66665649414065 101.22222900390624 194.22222900390625 106.55557250976563 195.11111450195313 114.55557250976563 189.77777099609375 131.4444580078125 160.44447326660156 135.88888549804688 149.7777862548828 137.66665649414063 146.22222900390625 138.55557250976563 144.44444274902344 136.77777099609375 145.33334350585938 132.33334350585938 154.22222900390625 132.33334350585938 161.3333282470703 135.88888549804688 169.33335876464844 147.4444580078125 177.3333282470703 169.66665649414063 186.22222900390625 202.5555725097656 196.88888549804688 220.33331298828125 203.11111450195313 235.4444580078125 208.4444580078125 242.5555419921875 211.11111450195313 242.5555419921875 211.11111450195313 " />
        </svg>