<?xml version="1.0" standalone="no"?>
    <svg width="256" height="256" xmlns="http://www.w3.org/2000/svg" version="1.1">
    <polyline stroke="black" stroke-width="3" stroke-linecap="round" fill="transparent" stroke-linejoin="round" points="89.6597900390625 51.97832489013672 91.71658325195313 58.148681640625 95.31597900390624 63.29066467285156 99.9437255859375 67.40423583984375 107.14251708984376 68.43263244628906 107.14251708984376 68.43263244628906 " />
        <polyline stroke="black" stroke-width="3" stroke-linecap="round" fill="transparent" stroke-linejoin="round" points="146.22149658203125 60.71968078613281 121.5400390625 95.17088317871094 103.0289306640625 118.82395935058594 88.63140869140625 130.65049743652344 75.77645874023438 137.84925842285156 75.77645874023438 137.84925842285156 " />
        <polyline stroke="black" stroke-width="3" stroke-linecap="round" fill="transparent" stroke-linejoin="round" points="81.94683837890625 89.51472473144531 107.65667724609376 101.3412628173828 133.8807373046875 111.6251983642578 152.90606689453125 117.2813720703125 169.3603515625 121.39494323730467 184.2720947265625 124.48013305664063 184.2720947265625 124.48013305664063 " />
        <polyline stroke="black" stroke-width="3" stroke-linecap="round" fill="transparent" stroke-linejoin="round" points="125.139404296875 138.87765502929688 113.3128662109375 142.99122619628906 103.0289306640625 148.13320922851563 94.8017578125 153.27517700195313 90.17398071289063 158.41714477539063 87.60299682617188 166.64430236816406 87.60299682617188 176.41404724121094 88.63140869140625 188.2406005859375 90.17398071289063 196.98193359375 92.23077392578124 202.63812255859375 95.83013916015624 206.75167846679688 102.51470947265624 207.26589965820313 113.3128662109375 202.63812255859375 124.62518310546876 192.86837768554688 136.9659423828125 177.95664978027344 141.59368896484375 170.7578887939453 143.13629150390625 167.67269897460938 144.67889404296875 166.13011169433594 146.22149658203125 166.13011169433594 149.30667114257813 170.24368286132813 155.47705078125 180.5276336669922 164.73260498046875 195.95355224609375 171.4171142578125 206.75167846679688 178.1016845703125 226.29116821289065 178.1016845703125 226.29116821289065 " />
        </svg>