<?xml version="1.0" standalone="no"?>
    <svg width="256" height="256" xmlns="http://www.w3.org/2000/svg" version="1.1">
    <polyline stroke="black" stroke-width="3" stroke-linecap="round" fill="transparent" stroke-linejoin="round" points="69.99017333984375 58.029937744140625 67.15573120117188 88.85444641113281 64.3212890625 119.678955078125 63.258392333984375 140.937255859375 62.549774169921875 157.9438934326172 61.841156005859375 184.87106323242188 61.841156005859375 201.52340698242188 61.132568359375 206.12939453125 61.132568359375 206.12939453125 " />
        <polyline stroke="black" stroke-width="3" stroke-linecap="round" fill="transparent" stroke-linejoin="round" points="101.52337646484375 49.88090515136719 110.38095092773438 48.46367645263672 119.238525390625 47.04644775390625 128.45050048828125 46.33784484863281 137.66244506835938 46.69215393066406 154.6690673828125 49.526580810546875 170.25848388671875 55.549766540527344 182.6591796875 64.76170349121094 194.3511962890625 80.70541381835938 202.500244140625 102.31802368164063 204.271728515625 129.95379638671875 199.31146240234375 159.71542358398438 190.80816650390625 183.0995330810547 190.80816650390625 183.0995330810547 " />
        <polyline stroke="black" stroke-width="3" stroke-linecap="round" fill="transparent" stroke-linejoin="round" points="85.57958984375 138.10284423828125 90.185546875 133.85116577148438 94.79150390625 129.5994873046875 101.16903686523438 124.63922119140624 108.60943603515624 120.03326416015624 126.32464599609376 112.23855590820313 144.74853515625 105.50675964355467 161.755126953125 97.71206665039063 171.3214111328125 90.9802703857422 171.3214111328125 90.9802703857422 " />
        <polyline stroke="black" stroke-width="3" stroke-linecap="round" fill="transparent" stroke-linejoin="round" points="144.39422607421875 79.99681091308595 139.78826904296875 88.14582824707031 135.18231201171875 96.29484558105467 125.9703369140625 116.8445281982422 119.238525390625 133.85116577148438 114.27828979492188 149.44058227539063 110.73529052734376 159.71542358398438 108.60943603515624 167.15582275390625 108.60943603515624 167.15582275390625 " />
        <polyline stroke="black" stroke-width="3" stroke-linecap="round" fill="transparent" stroke-linejoin="round" points="136.24526977539063 142.0001678466797 141.20550537109375 142.0001678466797 146.16574096679688 142.0001678466797 150.41741943359375 142.35447692871094 154.6690673828125 143.41738891601563 161.755126953125 145.18890380859375 163.8809814453125 146.96043395996094 163.8809814453125 146.96043395996094 " />
        <polyline stroke="black" stroke-width="3" stroke-linecap="round" fill="transparent" stroke-linejoin="round" points="67.15579223632813 216.4041748046875 78.84783935546875 212.86114501953125 90.53988647460938 209.318115234375 102.94052124023438 205.77505493164065 115.69549560546876 203.294921875 139.78826904296875 199.3975830078125 161.40087890625 197.62603759765625 179.1160888671875 197.9803466796875 194.70550537109375 200.46047973632813 194.70550537109375 200.46047973632813 " />
        </svg>