<?xml version="1.0" standalone="no"?>
    <svg width="256" height="256" xmlns="http://www.w3.org/2000/svg" version="1.1">
    <polyline stroke="black" stroke-width="3" stroke-linecap="round" fill="transparent" stroke-linejoin="round" points="69.8828125 69.30845642089844 68.20993041992188 88.82518005371094 61.51849365234375 140.6838836669922 59.28802490234375 171.35301208496094 59.28802490234375 191.4273376464844 60.40325927734375 205.92547607421875 62.07611083984375 211.50167846679688 62.07611083984375 211.50167846679688 " />
        <polyline stroke="black" stroke-width="3" stroke-linecap="round" fill="transparent" stroke-linejoin="round" points="67.65231323242188 68.19322204589844 77.13186645507813 63.17463684082031 89.9571533203125 58.15605163574219 105.57049560546876 53.13746643066406 129.54818725585938 49.23412322998047 150.73776245117188 48.11888122558594 170.8121337890625 49.79174041748047 186.42547607421875 53.13746643066406 198.693115234375 58.71366882324219 206.49981689453125 66.52035522460938 213.7489013671875 84.92182922363281 217.6522216796875 112.2452392578125 215.4217529296875 140.6838836669922 208.17266845703125 169.12252807617188 195.347412109375 193.6578369140625 195.347412109375 193.6578369140625 " />
        <polyline stroke="black" stroke-width="3" stroke-linecap="round" fill="transparent" stroke-linejoin="round" points="82.70806884765625 116.70619201660156 94.9757080078125 110.01475524902344 106.68572998046876 104.99617004394533 120.62625122070313 100.5352020263672 135.1243896484375 96.07424926757813 147.39202880859375 91.61328125 158.54443359375 86.03707885742188 158.54443359375 86.03707885742188 " />
        <polyline stroke="black" stroke-width="3" stroke-linecap="round" fill="transparent" stroke-linejoin="round" points="141.25820922851563 62.61701965332031 136.7972412109375 70.4237060546875 131.7786865234375 84.92182922363281 121.74151611328124 109.45713806152344 115.607666015625 126.1857452392578 110.03146362304688 142.3567352294922 105.01287841796876 155.1820068359375 100.55194091796876 164.10394287109375 96.6485595703125 168.5648956298828 96.6485595703125 168.5648956298828 " />
        <polyline stroke="black" stroke-width="3" stroke-linecap="round" fill="transparent" stroke-linejoin="round" points="113.934814453125 120.60954284667967 132.3363037109375 121.72477722167967 146.83441162109375 123.39764404296876 164.12066650390625 126.7433624267578 179.7340087890625 130.08909606933594 190.886474609375 134.550048828125 196.462646484375 141.2415008544922 196.462646484375 141.2415008544922 " />
        <polyline stroke="black" stroke-width="3" stroke-linecap="round" fill="transparent" stroke-linejoin="round" points="47.020355224609375 213.73214721679688 57.615142822265625 210.94406127929688 70.4404296875 208.15594482421875 91.6300048828125 204.81024169921875 120.62625122070313 202.02212524414065 144.60394287109375 200.34927368164065 163.00537109375 198.1187744140625 179.1763916015625 196.4459228515625 189.21356201171875 195.3306884765625 194.789794921875 195.3306884765625 195.905029296875 196.4459228515625 195.905029296875 196.4459228515625 " />
        </svg>