<?xml version="1.0" standalone="no"?>
    <svg width="256" height="256" xmlns="http://www.w3.org/2000/svg" version="1.1">
    <polyline stroke="black" stroke-width="3" stroke-linecap="round" fill="transparent" stroke-linejoin="round" points="67.9559326171875 54.0452880859375 68.36651611328125 70.4681396484375 69.18768310546875 95.51296997070313 70.0087890625 125.07408142089844 70.41937255859375 140.67576599121094 70.41937255859375 179.26943969726563 70.0087890625 193.63943481445313 69.59823608398438 198.15570068359375 69.59823608398438 198.15570068359375 " />
        <polyline stroke="black" stroke-width="3" stroke-linecap="round" fill="transparent" stroke-linejoin="round" points="66.31365966796875 75.39498901367188 77.80966186523438 61.435577392578125 83.5576171875 57.329864501953125 97.9276123046875 49.529014587402344 106.54962158203124 46.24444580078125 123.79364013671876 41.72816467285156 150.07015991210938 42.13873291015625 165.26123046875 46.65501403808594 171.8304443359375 49.93959045410156 184.96868896484375 63.488433837890625 193.5906982421875 83.19583129882813 196.875244140625 96.7446746826172 198.51751708984375 135.74893188476563 197.28582763671875 148.0660400390625 188.663818359375 177.62716674804688 177.98895263671875 194.4605712890625 177.98895263671875 194.4605712890625 " />
        <polyline stroke="black" stroke-width="3" stroke-linecap="round" fill="transparent" stroke-linejoin="round" points="88.4844970703125 120.55780029296876 106.13909912109376 109.0618133544922 119.27731323242188 103.72439575195313 133.64730834960938 100.02923583984376 146.78558349609375 97.97639465332033 156.6392822265625 95.51296997070313 156.6392822265625 95.51296997070313 " />
        <polyline stroke="black" stroke-width="3" stroke-linecap="round" fill="transparent" stroke-linejoin="round" points="146.375 62.2567138671875 138.98471069335938 72.11041259765625 129.13104248046875 88.94383239746094 124.20419311523438 98.79753112792967 113.93988037109376 120.147216796875 101.62277221679688 144.37091064453125 98.33822631835938 150.94004821777344 93.00079345703124 159.97259521484375 89.30563354492188 164.8994598388672 89.30563354492188 164.8994598388672 " />
        <polyline stroke="black" stroke-width="3" stroke-linecap="round" fill="transparent" stroke-linejoin="round" points="118.86676025390624 118.91551208496094 136.931884765625 123.02122497558594 143.09042358398438 125.07408142089844 157.87103271484375 131.64321899414063 161.9766845703125 134.9277801513672 161.9766845703125 134.9277801513672 " />
        <polyline stroke="black" stroke-width="3" stroke-linecap="round" fill="transparent" stroke-linejoin="round" points="77.39910888671875 192.81829833984375 97.9276123046875 191.176025390625 116.81390380859376 191.176025390625 136.931884765625 191.58657836914065 155.4075927734375 193.63943481445313 170.59869384765625 196.513427734375 184.1475830078125 202.6719970703125 184.1475830078125 202.6719970703125 " />
        </svg>