<?xml version="1.0" standalone="no"?>
    <svg width="256" height="256" xmlns="http://www.w3.org/2000/svg" version="1.1">
    <polyline stroke="black" stroke-width="3" stroke-linecap="round" fill="transparent" stroke-linejoin="round" points="72.626708984375 82.75650024414063 73.03759765625 96.31640625 73.44854736328125 106.99998474121094 73.85946655273438 119.73806762695313 75.09213256835938 149.73422241210938 77.5576171875 184.2503662109375 77.968505859375 192.46847534179688 77.968505859375 194.11212158203125 77.968505859375 194.11212158203125 " />
        <polyline stroke="black" stroke-width="3" stroke-linecap="round" fill="transparent" stroke-linejoin="round" points="74.27035522460938 104.9454345703125 87.83026123046875 95.0836944580078 96.04833984375 90.56373596191406 105.08831787109376 86.45466613769531 114.95004272460938 82.75650024414063 134.26263427734375 77.41473388671875 151.10980224609375 76.1820068359375 162.61517333984375 78.64744567871094 166.7242431640625 81.11288452148438 176.9969482421875 100.42547607421876 178.2296142578125 126.31259155273438 175.76416015625 139.0506591796875 171.2442626953125 152.61056518554688 171.2442626953125 152.61056518554688 " />
        <polyline stroke="black" stroke-width="3" stroke-linecap="round" fill="transparent" stroke-linejoin="round" points="85.36480712890625 149.73422241210938 101.801025390625 139.46157836914063 110.84100341796876 135.35250854492188 120.29183959960938 131.2434539794922 155.6297607421875 118.09445190429688 165.9024658203125 113.9853973388672 165.9024658203125 113.9853973388672 " />
        <polyline stroke="black" stroke-width="3" stroke-linecap="round" fill="transparent" stroke-linejoin="round" points="124.811767578125 110.2872314453125 121.1136474609375 121.7926025390625 119.47003173828124 128.3671112060547 117.826416015625 135.35250854492188 110.0191650390625 160.0068817138672 101.39013671875 174.3885955810547 91.93930053710938 185.0721740722656 84.95391845703125 190.0030517578125 82.48846435546875 190.4139404296875 83.31027221679688 188.77032470703125 93.17205810546876 182.19583129882813 113.71734619140624 173.1558837890625 133.85174560546875 168.22500610351563 152.342529296875 167.8140869140625 171.2442626953125 172.33407592773438 171.2442626953125 172.33407592773438 " />
        </svg>