<?xml version="1.0" standalone="no"?>
    <svg width="256" height="256" xmlns="http://www.w3.org/2000/svg" version="1.1">
    <polyline stroke="black" stroke-width="3" stroke-linecap="round" fill="transparent" stroke-linejoin="round" points="71.68792724609375 87.39125061035156 76.42523193359375 113.44621276855467 78.0042724609375 123.71029663085938 79.5833740234375 133.184814453125 82.34677124023438 152.13388061523438 82.74154663085938 160.02932739257813 83.13632202148438 167.13522338867188 82.74154663085938 177.3992919921875 81.95199584960938 182.92611694335935 81.16244506835938 184.50521850585935 81.16244506835938 184.50521850585935 " />
        <polyline stroke="black" stroke-width="3" stroke-linecap="round" fill="transparent" stroke-linejoin="round" points="80.3729248046875 119.3677978515625 89.05792236328125 108.31417846679688 99.32199096679688 99.62918090820313 113.53378295898438 90.94419860839844 121.42919921875 87.7860107421875 147.08944702148438 84.23306274414063 162.88031005859375 86.60169982910156 175.9078369140625 92.52328491210938 185.777099609375 100.8134765625 194.06732177734375 112.65666198730467 197.62030029296875 119.3677978515625 201.1732177734375 134.36912536621094 195.25164794921875 160.02932739257813 183.80322265625 176.21499633789063 177.8817138671875 181.74180603027344 177.8817138671875 181.74180603027344 " />
        <polyline stroke="black" stroke-width="3" stroke-linecap="round" fill="transparent" stroke-linejoin="round" points="98.532470703125 159.63455200195313 111.16513061523438 153.71298217773438 116.29721069335938 151.73910522460938 126.9560546875 147.3966064453125 131.69332885742188 145.02798461914063 143.53646850585938 135.94822692871094 147.48422241210938 129.63186645507813 148.66851806640625 126.07891845703124 149.06329345703125 119.3677978515625 147.87899780273438 114.23574829101563 146.69467163085938 113.44621276855467 144.72079467773438 114.23574829101563 139.9835205078125 121.34165954589844 136.82537841796875 128.0527801513672 129.32470703125 145.42276000976563 121.823974609375 160.02932739257813 113.53378295898438 171.87249755859375 100.11154174804688 184.50521850585935 93.400390625 189.24249267578125 89.84747314453125 191.21633911132813 89.45269775390625 191.21633911132813 91.03173828125 189.63726806640625 100.90109252929688 184.50521850585935 117.08676147460938 178.1888427734375 134.06195068359375 173.0568084716797 148.66851806640625 169.89862060546875 160.116943359375 169.10910034179688 164.85418701171875 170.29339599609375 164.85418701171875 170.29339599609375 " />
        </svg>