<?xml version="1.0" standalone="no"?>
    <svg width="256" height="256" xmlns="http://www.w3.org/2000/svg" version="1.1">
    <polyline stroke="black" stroke-width="3" stroke-linecap="round" fill="transparent" stroke-linejoin="round" points="69 98 64 130 64 152 64 181 66 203 72 219 76 223 78 223 78 223 " />
        <polyline stroke="black" stroke-width="3" stroke-linecap="round" fill="transparent" stroke-linejoin="round" points="53 112 78 109 107 99 139 88 167 81 190 78 201 78 203 98 203 127 200 160 195 183 189 200 182 208 175 210 171 210 171 210 " />
        <polyline stroke="black" stroke-width="3" stroke-linecap="round" fill="transparent" stroke-linejoin="round" points="132 90 127 101 127 111 127 136 125 166 124 191 124 206 124 210 124 210 " />
        <polyline stroke="black" stroke-width="3" stroke-linecap="round" fill="transparent" stroke-linejoin="round" points="66 154 79 150 105 149 134 147 158 145 177 145 183 145 183 145 " />
        <polyline stroke="black" stroke-width="3" stroke-linecap="round" fill="transparent" stroke-linejoin="round" points="81 221 85 216 95 216 118 207 144 202 166 199 187 199 196 200 196 200 " />
        </svg>