<?xml version="1.0" standalone="no"?>
    <svg width="256" height="256" xmlns="http://www.w3.org/2000/svg" version="1.1">
    <polyline stroke="black" stroke-width="3" stroke-linecap="round" fill="transparent" stroke-linejoin="round" points="37.222259521484375 148 59.444488525390625 132.00001525878906 76.33334350585938 120.44447326660156 83.4444580078125 116.00003051757813 87.88888549804688 112.44444274902344 87.88888549804688 112.44444274902344 " />
        <polyline stroke="black" stroke-width="3" stroke-linecap="round" fill="transparent" stroke-linejoin="round" points="71 89.33335876464844 70.11111450195313 108.88888549804688 70.11111450195313 122.22222900390624 69.22222900390625 148.88888549804688 63.888916015625 182.66668701171875 58.555572509765625 201.33334350585935 53.22222900390625 212.88888549804688 49.666656494140625 215.5555725097656 46.11114501953125 214.66665649414065 46.11114501953125 214.66665649414065 " />
        <polyline stroke="black" stroke-width="3" stroke-linecap="round" fill="transparent" stroke-linejoin="round" points="66.55557250976563 155.11111450195313 80.77777099609375 166.6666717529297 95.88888549804688 176.44444274902344 105.66665649414063 181.77777099609375 107.4444580078125 183.5555725097656 113.66665649414063 186.22222900390625 113.66665649414063 186.22222900390625 " />
        <polyline stroke="black" stroke-width="3" stroke-linecap="round" fill="transparent" stroke-linejoin="round" points="120.77777099609376 81.33332824707031 115.4444580078125 100.88890075683594 107.4444580078125 125.7777862548828 101.22222900390624 148 91.4444580078125 171.11111450195313 88.77777099609375 178.2222442626953 87.88888549804688 175.55555725097656 87.88888549804688 175.55555725097656 " />
        <polyline stroke="black" stroke-width="3" stroke-linecap="round" fill="transparent" stroke-linejoin="round" points="121.66668701171876 94.66667175292967 138.55557250976563 115.11111450195313 141.22222900390625 118.66668701171876 143 122.22222900390624 143.888916015625 127.55557250976563 143.888916015625 127.55557250976563 " />
        <polyline stroke="black" stroke-width="3" stroke-linecap="round" fill="transparent" stroke-linejoin="round" points="121.66668701171876 132.00001525878906 116.33334350585938 156.88888549804688 113.66665649414063 164 111.88888549804688 166.6666717529297 111 167.55555725097656 112.77780151367188 165.7777862548828 118.11111450195313 161.3333282470703 125.22222900390624 156.88888549804688 132.33334350585938 153.3333282470703 141.22222900390625 149.7777862548828 141.22222900390625 149.7777862548828 " />
        <polyline stroke="black" stroke-width="3" stroke-linecap="round" fill="transparent" stroke-linejoin="round" points="157.22225952148438 120.44447326660156 187.4444580078125 108 199 102.6667022705078 199 102.6667022705078 " />
        <polyline stroke="black" stroke-width="3" stroke-linecap="round" fill="transparent" stroke-linejoin="round" points="182.11111450195313 55.555572509765625 182.11111450195313 74.22222900390625 182.11111450195313 102.6667022705078 177.66665649414063 135.55555725097656 166.11111450195313 177.3333282470703 157.22225952148438 196.00003051757813 151.88888549804688 205.77777099609375 148.3333740234375 205.77777099609375 148.3333740234375 205.77777099609375 " />
        <polyline stroke="black" stroke-width="3" stroke-linecap="round" fill="transparent" stroke-linejoin="round" points="179.4444580078125 117.7777862548828 184.77777099609375 137.3333282470703 190.11111450195313 149.7777862548828 213.22222900390625 180 229.22222900390625 196.88888549804688 243.4444580078125 211.11111450195313 251.4444580078125 220 254.11114501953125 225.33334350585935 254.11114501953125 225.33334350585935 " />
        </svg>