<?xml version="1.0" standalone="no"?>
    <svg width="256" height="256" xmlns="http://www.w3.org/2000/svg" version="1.1">
    <polyline stroke="black" stroke-width="3" stroke-linecap="round" fill="transparent" stroke-linejoin="round" points="48.50982666015625 81.28756713867188 57.25115966796875 73.57460021972656 65.99252319335938 69.9752197265625 76.27645874023438 66.37583923339844 86.5604248046875 63.29066467285156 93.24496459960938 60.71968078613281 97.87274169921876 58.66288757324219 100.4437255859375 53.52091217041016 100.4437255859375 53.52091217041016 " />
        <polyline stroke="black" stroke-width="3" stroke-linecap="round" fill="transparent" stroke-linejoin="round" points="77.30487060546875 35.00981140136719 71.13449096679688 48.378944396972656 59.307952880859375 83.85855102539063 51.080810546875 124.48013305664063 44.910430908203125 144.01962280273438 38.74005126953125 172.81466674804688 33.083892822265625 187.72637939453125 31.027099609375 194.92514038085935 29.99871826171875 198.0103454589844 31.027099609375 195.4393615722656 31.027099609375 195.4393615722656 " />
        <polyline stroke="black" stroke-width="3" stroke-linecap="round" fill="transparent" stroke-linejoin="round" points="55.70855712890625 125.50852966308594 63.93572998046875 140.9344482421875 68.04931640625 153.78936767578125 72.67706298828125 166.64430236816406 76.7906494140625 173.8430633544922 82.44683837890625 175.8998565673828 82.44683837890625 175.8998565673828 " />
        <polyline stroke="black" stroke-width="3" stroke-linecap="round" fill="transparent" stroke-linejoin="round" points="117.92645263671876 61.23387145996094 106.09991455078124 94.14250183105467 97.87274169921876 120.36654663085938 93.7591552734375 129.62210083007813 90.1597900390625 134.2498779296875 90.1597900390625 134.2498779296875 " />
        <polyline stroke="black" stroke-width="3" stroke-linecap="round" fill="transparent" stroke-linejoin="round" points="115.86962890625 97.74188232421876 132.323974609375 99.2844696044922 140.03692626953125 101.3412628173828 145.69308471679688 104.42643737792967 145.69308471679688 104.42643737792967 " />
        <polyline stroke="black" stroke-width="3" stroke-linecap="round" fill="transparent" stroke-linejoin="round" points="112.78448486328124 155.84616088867188 109.69927978515624 169.2152862548828 106.61410522460938 178.47084045410156 103.01470947265624 187.72637939453125 99.41534423828124 193.89675903320313 95.3017578125 199.03872680664065 92.21658325195313 202.1239013671875 92.21658325195313 203.66650390625 94.78756713867188 203.66650390625 100.95794677734376 202.63812255859375 112.78448486328124 199.03872680664065 129.23876953125 191.8399658203125 143.63629150390625 184.12701416015625 158.54803466796875 173.8430633544922 158.54803466796875 173.8430633544922 " />
        <polyline stroke="black" stroke-width="3" stroke-linecap="round" fill="transparent" stroke-linejoin="round" points="153.40606689453125 112.139404296875 167.28936767578125 107.51162719726563 176.03076171875 105.454833984375 185.2862548828125 102.88385009765624 193.513427734375 100.3128662109375 203.79736328125 92.08570861816406 203.79736328125 92.08570861816406 " />
        <polyline stroke="black" stroke-width="3" stroke-linecap="round" fill="transparent" stroke-linejoin="round" points="179.11590576171875 67.91844177246094 176.544921875 76.6597900390625 173.459716796875 90.02891540527344 166.260986328125 122.42333984375 162.14739990234375 148.64739990234375 158.54803466796875 169.2152862548828 155.97705078125 183.09860229492188 154.4344482421875 192.86837768554688 152.891845703125 199.03872680664065 152.891845703125 199.03872680664065 " />
        <polyline stroke="black" stroke-width="3" stroke-linecap="round" fill="transparent" stroke-linejoin="round" points="164.7183837890625 140.4202423095703 177.05914306640625 146.59060668945313 185.80047607421875 152.76097106933594 193.513427734375 159.44554138183594 202.2547607421875 171.27207946777344 202.2547607421875 171.27207946777344 " />
        </svg>