<?xml version="1.0" standalone="no"?>
    <svg width="256" height="256" xmlns="http://www.w3.org/2000/svg" version="1.1">
    <polyline stroke="black" stroke-width="3" stroke-linecap="round" fill="transparent" stroke-linejoin="round" points="47.95245361328125 112.04304504394533 67.3897705078125 107.60023498535156 79.6075439453125 102.60206604003906 91.26995849609376 97.0485382080078 99.6002197265625 91.49501037597656 104.04302978515624 83.72007751464844 106.81982421875 75.38978576660156 104.04302978515624 68.72557067871094 100.15557861328124 64.28274536132813 95.7127685546875 64.28274536132813 88.4931640625 73.16838073730469 75.7200927734375 99.26994323730467 65.7237548828125 130.92503356933594 56.838104248046875 154.80519104003906 50.17388916015625 174.24252319335938 45.731048583984375 188.68167114257813 42.95428466796875 195.34591674804688 41.84356689453125 199.23336791992188 41.84356689453125 199.23336791992188 " />
        <polyline stroke="black" stroke-width="3" stroke-linecap="round" fill="transparent" stroke-linejoin="round" points="68.50048828125 139.8106689453125 79.05218505859375 153.69447326660156 85.16107177734375 164.2461700439453 90.714599609375 172.5764617919922 96.823486328125 176.46392822265625 96.823486328125 176.46392822265625 " />
        <polyline stroke="black" stroke-width="3" stroke-linecap="round" fill="transparent" stroke-linejoin="round" points="135.6981201171875 56.5078125 129.03390502929688 73.16838073730469 119.03756713867188 99.82530212402344 113.48403930664063 113.1537628173828 107.93051147460938 123.7054443359375 104.598388671875 130.3696746826172 102.37701416015624 133.70179748535156 102.37701416015624 133.1464385986328 106.26446533203124 127.03756713867188 111.8179931640625 119.81797790527344 120.70361328125 113.7091064453125 132.92138671875 109.82164001464844 144.58377075195313 109.26628112792967 154.0247802734375 110.3769989013672 160.1336669921875 112.04304504394533 164.57647705078125 114.81980895996094 164.57647705078125 114.81980895996094 " />
        <polyline stroke="black" stroke-width="3" stroke-linecap="round" fill="transparent" stroke-linejoin="round" points="128.47857666015625 146.4748992919922 124.59109497070313 163.69082641601563 123.48037719726563 174.24252319335938 120.14825439453124 187.015625 116.26080322265624 198.67800903320313 116.26080322265624 198.67800903320313 " />
        <polyline stroke="black" stroke-width="3" stroke-linecap="round" fill="transparent" stroke-linejoin="round" points="94.60205078125 208.1190185546875 111.8179931640625 201.45477294921875 125.14642333984376 197.011962890625 140.6962890625 191.45843505859375 155.6907958984375 184.79421997070313 155.6907958984375 184.79421997070313 " />
        <polyline stroke="black" stroke-width="3" stroke-linecap="round" fill="transparent" stroke-linejoin="round" points="156.24615478515625 108.15557861328124 167.9085693359375 104.2681121826172 177.349609375 101.49134826660156 189.56732177734375 98.15924072265624 199.56365966796875 94.82713317871094 206.2279052734375 90.93966674804688 210.67071533203125 82.609375 210.67071533203125 82.609375 " />
        <polyline stroke="black" stroke-width="3" stroke-linecap="round" fill="transparent" stroke-linejoin="round" points="191.2333984375 54.84175109863281 187.9012451171875 68.17021179199219 180.1263427734375 107.0448760986328 175.6834716796875 135.92320251464844 172.35137939453125 163.13546752929688 170.1300048828125 178.12998962402344 167.9085693359375 190.903076171875 165.6871337890625 200.34408569335935 165.6871337890625 200.34408569335935 " />
        <polyline stroke="black" stroke-width="3" stroke-linecap="round" fill="transparent" stroke-linejoin="round" points="189.56732177734375 160.9140625 204.0064697265625 173.13182067871094 212.3367919921875 183.12814331054688 212.3367919921875 183.12814331054688 " />
        </svg>