<?xml version="1.0" standalone="no"?>
    <svg width="256" height="256" xmlns="http://www.w3.org/2000/svg" version="1.1">
    <polyline stroke="black" stroke-width="3" stroke-linecap="round" fill="transparent" stroke-linejoin="round" points="71.88888549804688 98.22224426269533 71.88888549804688 127.55557250976563 71.88888549804688 157.7777862548828 71.88888549804688 183.5555725097656 71.88888549804688 204.888916015625 71.88888549804688 207.5555725097656 75.4444580078125 192.4444580078125 75.4444580078125 192.4444580078125 " />
        <polyline stroke="black" stroke-width="3" stroke-linecap="round" fill="transparent" stroke-linejoin="round" points="101.22222900390624 112.44444274902344 100.33334350585938 124.888916015625 102.11111450195313 130.22222900390625 107.4444580078125 131.11111450195313 119 127.55557250976563 140.33334350585938 116.88888549804688 167.88888549804688 106.22222900390624 175.88888549804688 103.55555725097656 180.33334350585935 102.6667022705078 183 101.7777862548828 183.88888549804688 101.7777862548828 184.77777099609375 101.7777862548828 185.66665649414065 103.55555725097656 187.4444580078125 105.33334350585938 188.33334350585935 107.11114501953124 185.66665649414065 106.22222900390624 185.66665649414065 106.22222900390624 " />
        <polyline stroke="black" stroke-width="3" stroke-linecap="round" fill="transparent" stroke-linejoin="round" points="153.66665649414063 60.888885498046875 157.22225952148438 95.55555725097656 159 148 153.66665649414063 182.66668701171875 144.77777099609375 210.22222900390625 135.00003051757813 228 127.88888549804688 234.22222900390625 127.88888549804688 234.22222900390625 " />
        </svg>