<?xml version="1.0" standalone="no"?>
    <svg width="256" height="256" xmlns="http://www.w3.org/2000/svg" version="1.1">
    <polyline stroke="black" stroke-width="3" stroke-linecap="round" fill="transparent" stroke-linejoin="round" points="43.954315185546875 92.41691589355467 45.33856201171875 120.56312561035156 46.261383056640625 148.7093505859375 47.184234619140625 173.1642303466797 49.029876708984375 194.85064697265625 49.491302490234375 209.61590576171875 49.029876708984375 213.76861572265625 49.029876708984375 213.76861572265625 " />
        <polyline stroke="black" stroke-width="3" stroke-linecap="round" fill="transparent" stroke-linejoin="round" points="76.25326538085938 112.71913146972656 77.63751220703125 117.79464721679688 79.483154296875 123.7930145263672 84.0972900390625 138.0968475341797 86.40438842773438 142.2495574951172 90.09564208984376 145.94085693359375 95.63262939453124 148.7093505859375 105.32229614257813 150.09356689453125 120.54891967773438 145.01803588867188 133.007080078125 139.94247436523438 146.3880615234375 134.86695861816406 159.76904296875 132.0984649658203 172.22723388671875 128.8685760498047 176.37994384765625 127.0229034423828 177.302734375 126.10011291503906 177.302734375 126.10011291503906 " />
        <polyline stroke="black" stroke-width="3" stroke-linecap="round" fill="transparent" stroke-linejoin="round" points="186.069580078125 117.33322143554688 186.53106689453125 129.3300018310547 186.992431640625 139.94247436523438 186.069580078125 146.86367797851563 185.14678955078125 148.24794006347656 185.14678955078125 148.24794006347656 " />
        <polyline stroke="black" stroke-width="3" stroke-linecap="round" fill="transparent" stroke-linejoin="round" points="138.0826416015625 75.34463500976563 138.5440673828125 87.34136962890625 138.0826416015625 101.64518737792967 136.69839477539063 132.5598907470703 131.62286376953125 179.6240234375 125.62451171875 204.07894897460935 121.93319702148438 214.23001098632813 121.93319702148438 214.23001098632813 " />
        </svg>