<?xml version="1.0" standalone="no"?>
    <svg width="256" height="256" xmlns="http://www.w3.org/2000/svg" version="1.1">
    <polyline stroke="black" stroke-width="3" stroke-linecap="round" fill="transparent" stroke-linejoin="round" points="55.730255126953125 117.75241088867188 56.39459228515625 126.06170654296876 58.71978759765625 144.00953674316406 59.716339111328125 151.32164001464844 60.712860107421875 157.63685607910156 62.041900634765625 163.28709411621094 63.0384521484375 169.6020050048828 63.702789306640625 175.58473205566406 64.69931030273438 180.57028198242188 66.02801513671875 185.22332763671875 68.02139282226563 188.87924194335935 69.01788330078125 191.8707275390625 69.6822509765625 194.197265625 70.34661865234375 195.52664184570313 71.01095581054688 196.5238037109375 72.00750732421875 197.1884765625 73.33621215820313 197.1884765625 73.33621215820313 197.1884765625 " />
        <polyline stroke="black" stroke-width="3" stroke-linecap="round" fill="transparent" stroke-linejoin="round" points="127.15158081054688 116.75555419921876 128.81243896484375 140.6858367919922 131.13803100585938 155.97500610351563 132.4666748046875 159.63088989257813 134.1275634765625 162.2899169921875 135.7884521484375 163.61924743652344 138.11398315429688 164.28395080566406 140.7713623046875 164.28395080566406 144.093505859375 163.95176696777344 147.41519165039063 163.28709411621094 151.40167236328125 161.95741271972656 155.38775634765625 160.62808227539063 159.70635986328125 158.96621704101563 164.35711669921875 157.3043670654297 169.67230224609375 155.97500610351563 174.9874267578125 154.9778289794922 179.9700927734375 154.3131561279297 184.28863525390625 153.64816284179688 187.6107177734375 152.65133666992188 190.600341796875 151.98629760742188 192.5933837890625 150.32444763183594 194.9189453125 147.9979248046875 194.9189453125 147.9979248046875 " />
        <polyline stroke="black" stroke-width="3" stroke-linecap="round" fill="transparent" stroke-linejoin="round" points="194.58673095703125 121.74079895019533 191.59686279296875 144.67422485351563 190.26812744140625 165.94580078125 189.93597412109375 174.58755493164063 189.93597412109375 181.2349395751953 189.93597412109375 185.55551147460935 189.93597412109375 185.55551147460935 " />
        <polyline stroke="black" stroke-width="3" stroke-linecap="round" fill="transparent" stroke-linejoin="round" points="166.35015869140625 113.7640380859375 162.36407470703125 146.66856384277344 158.7098388671875 181.5671539306641 157.0489501953125 198.850341796875 155.38775634765625 215.1363220214844 153.0625 228.0986328125 150.40512084960938 239.06692504882813 147.41519165039063 246.04684448242188 143.76129150390625 249.3702392578125 143.76129150390625 249.3702392578125 " />
        </svg>