<?xml version="1.0" standalone="no"?>
    <svg width="256" height="256" xmlns="http://www.w3.org/2000/svg" version="1.1">
    <polyline stroke="black" stroke-width="3" stroke-linecap="round" fill="transparent" stroke-linejoin="round" points="83.53955078125 89.92298889160156 79.6673583984375 121.54591369628906 75.795166015625 152.52349853515625 74.50445556640625 173.17520141601563 74.50445556640625 186.7279052734375 74.50445556640625 194.4722900390625 77.08590698242188 197.05374145507813 77.08590698242188 197.05374145507813 " />
        <polyline stroke="black" stroke-width="3" stroke-linecap="round" fill="transparent" stroke-linejoin="round" points="112.5810546875 86.69615173339844 109.35421752929688 102.83030700683594 106.77276611328124 120.25518798828124 106.12738037109376 135.09860229492188 108.0634765625 145.42446899414063 113.22640991210938 152.52349853515625 120.325439453125 158.331787109375 128.7152099609375 160.9132537841797 139.04107666015625 160.9132537841797 151.302978515625 157.68641662597656 162.27423095703125 150.58738708496094 172.60009765625 138.325439453125 184.2166748046875 120.90055847167967 184.2166748046875 120.90055847167967 " />
        <polyline stroke="black" stroke-width="3" stroke-linecap="round" fill="transparent" stroke-linejoin="round" points="175.1815185546875 94.4405517578125 171.309326171875 106.70249938964844 167.4371337890625 120.25518798828124 164.2103271484375 131.8717803955078 161.62884521484375 139.6161651611328 158.40203857421875 144.7790985107422 156.4659423828125 144.7790985107422 156.4659423828125 144.7790985107422 " />
        <polyline stroke="black" stroke-width="3" stroke-linecap="round" fill="transparent" stroke-linejoin="round" points="150.65765380859375 61.52687072753906 143.55859375 89.27761840820313 137.10494995117188 122.83665466308594 131.9420166015625 149.29666137695313 128.06982421875 176.40203857421875 123.55224609375 204.15277099609375 120.325439453125 226.09521484375 120.325439453125 226.09521484375 " />
        </svg>