<?xml version="1.0" standalone="no"?>
    <svg width="256" height="256" xmlns="http://www.w3.org/2000/svg" version="1.1">
    <polyline stroke="black" stroke-width="3" stroke-linecap="round" fill="transparent" stroke-linejoin="round" points="78 78 78 77 78 78 78 80 78 92 78 106 78 129 76 153 78 163 78 163 " />
        <polyline stroke="black" stroke-width="3" stroke-linecap="round" fill="transparent" stroke-linejoin="round" points="121 82 120 82 120 83 120 89 119 102 118 111 118 115 119 119 120 121 121 121 122 121 123 121 124 120 127 119 134 119 137 118 140 118 142 118 147 118 148 118 151 118 152 118 152 118 " />
        <polyline stroke="black" stroke-width="3" stroke-linecap="round" fill="transparent" stroke-linejoin="round" points="159 86 159 87 159 90 159 97 158 107 158 115 158 120 158 123 158 123 " />
        <polyline stroke="black" stroke-width="3" stroke-linecap="round" fill="transparent" stroke-linejoin="round" points="137 69 138 75 140 87 140 98 140 103 138 122 134 137 133 141 129 154 122 170 119 176 119 176 " />
        </svg>