<?xml version="1.0" standalone="no"?>
    <svg width="256" height="256" xmlns="http://www.w3.org/2000/svg" version="1.1">
    <polyline stroke="black" stroke-width="3" stroke-linecap="round" fill="transparent" stroke-linejoin="round" points="49.21588134765625 79.51417541503906 62.61932373046875 73.65017700195313 70.57757568359375 71.13705444335938 79.79241943359375 69.04277038574219 101.154052734375 65.69192504882813 113.30087280273438 64.85420227050781 149.322509765625 67.36734008789063 169.84649658203125 70.71820068359375 183.668701171875 72.81246948242188 192.0458984375 74.48789978027344 195.396728515625 74.48789978027344 195.8155517578125 74.06904602050781 195.8155517578125 74.06904602050781 " />
        <polyline stroke="black" stroke-width="3" stroke-linecap="round" fill="transparent" stroke-linejoin="round" points="82.724365234375 94.17413330078124 85.237548828125 105.06439208984376 86.0751953125 110.92840576171876 88.58837890625 125.16949462890624 91.10150146484376 140.66717529296875 94.45236206054688 163.70428466796875 94.87118530273438 166.6362762451172 94.87118530273438 166.6362762451172 " />
        <polyline stroke="black" stroke-width="3" stroke-linecap="round" fill="transparent" stroke-linejoin="round" points="104.92376708984376 105.06439208984376 115.39520263671876 98.78155517578124 120.84030151367188 96.68728637695313 126.285400390625 95.4307098388672 143.45855712890625 94.593017578125 157.69964599609375 98.36271667480467 161.050537109375 100.45700073242188 170.26531982421875 111.76609802246094 172.359619140625 118.0489501953125 171.9407958984375 144.01803588867188 163.144775390625 164.12313842773438 158.1185302734375 172.9191131591797 158.1185302734375 172.9191131591797 " />
        <polyline stroke="black" stroke-width="3" stroke-linecap="round" fill="transparent" stroke-linejoin="round" points="49.634735107421875 138.154052734375 63.8758544921875 135.2220458984375 70.57757568359375 133.96548461914063 79.79241943359375 132.70892333984375 126.70428466796876 131.45236206054688 165.23907470703125 135.6409149169922 176.12933349609375 137.73519897460938 200.004150390625 142.34263610839844 207.12469482421875 142.761474609375 209.218994140625 142.34263610839844 210.05670166015625 141.9237518310547 210.05670166015625 141.9237518310547 " />
        <polyline stroke="black" stroke-width="3" stroke-linecap="round" fill="transparent" stroke-linejoin="round" points="138.01339721679688 109.67184448242188 135.08139038085938 120.14323425292967 133.8248291015625 124.75065612792967 132.56829833984375 130.19578552246094 128.37973022460938 146.11233520507813 124.191162109375 154.48944091796875 121.677978515625 158.2591552734375 116.6517333984375 163.70428466796875 114.55746459960938 165.37969970703125 108.27459716796876 169.56826782226563 105.761474609375 170.8248291015625 104.5048828125 171.2436981201172 104.92376708984376 171.2436981201172 106.59921264648438 171.2436981201172 119.583740234375 171.2436981201172 133.406005859375 171.2436981201172 148.06591796875 170.40599060058594 159.3751220703125 169.56826782226563 166.91448974609375 167.47398376464844 166.91448974609375 167.47398376464844 " />
        <polyline stroke="black" stroke-width="3" stroke-linecap="round" fill="transparent" stroke-linejoin="round" points="28.2730712890625 86.21588134765625 31.6239013671875 98.78155517578124 33.29931640625 106.32096862792967 34.97479248046875 115.95468139648438 36.65020751953125 128.52037048339844 42.93304443359375 163.70428466796875 45.027313232421875 172.9191131591797 50.0535888671875 190.5111083984375 55.079833984375 200.56365966796875 62.200408935546875 206.4276123046875 75.18499755859375 211.0350341796875 92.35809326171876 213.12933349609375 111.62545776367188 214.38589477539065 132.56829833984375 214.38589477539065 153.09222412109375 214.80474853515625 170.26531982421875 214.80474853515625 183.2498779296875 215.6424560546875 192.4647216796875 216.8990478515625 198.3287353515625 219.83102416992188 202.51727294921875 225.69500732421875 202.51727294921875 225.69500732421875 " />
        </svg>