<?xml version="1.0" standalone="no"?>
    <svg width="256" height="256" xmlns="http://www.w3.org/2000/svg" version="1.1">
    <polyline stroke="black" stroke-width="3" stroke-linecap="round" fill="transparent" stroke-linejoin="round" points="64.61151123046875 89.85015869140625 78.97943115234375 79.70809936523438 86.16339111328125 75.90484619140625 94.19247436523438 72.94674682617188 102.64422607421876 69.9886474609375 121.23797607421876 65.76278686523438 139.83172607421875 63.649871826171875 155.4674072265625 61.95953369140625 168.1448974609375 60.6917724609375 170.680419921875 60.269195556640625 171.10302734375 60.269195556640625 171.10302734375 60.269195556640625 " />
        <polyline stroke="black" stroke-width="3" stroke-linecap="round" fill="transparent" stroke-linejoin="round" points="91.656982421875 111.8245849609375 93.7698974609375 125.34732055664063 94.61508178710938 132.53128051757813 95.46026611328124 140.1378173828125 96.72802734375 157.88638305664063 96.72802734375 164.22515869140625 96.72802734375 163.80258178710938 96.72802734375 160.84446716308594 97.99578857421876 152.8153533935547 100.953857421875 140.98297119140625 106.44744873046876 127.03765869140624 113.20883178710938 115.62785339355467 122.50570678710938 106.33097839355467 135.18328857421875 97.8792724609375 148.70599365234375 92.80825805664063 161.383544921875 90.27273559570313 171.10302734375 90.69534301757813 177.8643798828125 92.80825805664063 181.66766357421875 96.18893432617188 185.04833984375 105.06321716308594 185.89349365234375 112.24717712402344 180.39990234375 140.1378173828125 169.83526611328125 157.4637908935547 152.50927734375 171.83169555664063 142.3671875 178.17047119140625 142.3671875 178.17047119140625 " />
        <polyline stroke="black" stroke-width="3" stroke-linecap="round" fill="transparent" stroke-linejoin="round" points="58.27276611328125 154.50570678710938 73.063232421875 153.23794555664063 83.20526123046875 151.54759216308594 94.61508178710938 149.0120849609375 119.125 144.3636474609375 141.52206420898438 140.56039428710938 151.24151611328125 139.29263305664063 167.72235107421875 138.44744873046875 180.82244873046875 138.02487182617188 190.11932373046875 137.602294921875 196.0355224609375 137.17971801757813 198.1484375 136.7571258544922 198.571044921875 136.7571258544922 198.571044921875 136.7571258544922 " />
        <polyline stroke="black" stroke-width="3" stroke-linecap="round" fill="transparent" stroke-linejoin="round" points="154.6221923828125 117.31820678710938 148.28338623046875 131.68609619140625 145.74789428710938 137.602294921875 143.21237182617188 143.09588623046875 138.141357421875 151.97018432617188 130.9573974609375 163.37998962402344 126.3089599609375 168.02842712402344 121.6605224609375 171.4091033935547 115.74432373046876 174.789794921875 111.09588623046876 176.9027099609375 107.7152099609375 178.17047119140625 105.602294921875 179.01565551757813 105.1796875 179.01565551757813 113.20883178710938 178.5930633544922 131.80258178710938 176.0575408935547 151.24151611328125 173.09945678710938 163.9190673828125 170.98651123046875 170.680419921875 169.71878051757813 171.94818115234375 169.2961883544922 171.94818115234375 169.2961883544922 " />
        <polyline stroke="black" stroke-width="3" stroke-linecap="round" fill="transparent" stroke-linejoin="round" points="59.963104248046875 106.75357055664063 54.892059326171875 116.4730224609375 53.20172119140625 120.27629089355467 50.66619873046875 129.5731658935547 48.130706787109375 143.9410858154297 46.44036865234375 157.4637908935547 44.75 187.04476928710935 45.172607421875 206.48370361328125 46.86297607421875 220.00640869140625 49.821044921875 225.922607421875 59.540496826171875 228.0355224609375 74.75360107421875 225.922607421875 91.234375 222.96450805664065 108.98300170898438 220.42901611328125 128.844482421875 218.7386474609375 147.015625 217.89349365234375 162.22869873046875 216.20315551757813 173.6385498046875 214.5128173828125 181.24505615234375 213.66763305664065 183.78057861328125 213.66763305664065 188.0064697265625 213.66763305664065 188.0064697265625 213.66763305664065 " />
        </svg>