<?xml version="1.0" standalone="no"?>
    <svg width="256" height="256" xmlns="http://www.w3.org/2000/svg" version="1.1">
    <polyline stroke="black" stroke-width="3" stroke-linecap="round" fill="transparent" stroke-linejoin="round" points="72.0616455078125 70.05755615234375 83.14706420898438 66.3624267578125 103.26507568359376 61.435577392578125 127.07818603515624 56.50872802734375 148.01727294921875 53.63471984863281 163.6190185546875 51.992431640625 174.2938232421875 50.76072692871094 178.81011962890625 49.93959045410156 179.63128662109375 49.93959045410156 179.63128662109375 49.93959045410156 " />
        <polyline stroke="black" stroke-width="3" stroke-linecap="round" fill="transparent" stroke-linejoin="round" points="93.41134643554688 97.15525817871094 95.05364990234376 119.32609558105467 96.69589233398438 136.9806365966797 97.51708984375 145.60263061523438 98.33822631835938 152.5823211669922 99.56991577148438 166.9523162841797 99.56991577148438 171.46859741210938 99.56991577148438 173.9320068359375 99.56991577148438 173.9320068359375 " />
        <polyline stroke="black" stroke-width="3" stroke-linecap="round" fill="transparent" stroke-linejoin="round" points="103.26507568359376 127.12693786621094 126.25701904296876 112.34637451171876 139.80587768554688 107.41952514648438 146.375 105.77725219726563 164.44012451171875 104.9561004638672 174.2938232421875 106.59837341308594 180.86297607421875 110.7041015625 185.789794921875 117.68380737304688 189.07440185546875 130.00091552734375 187.43212890625 145.1920623779297 184.1475830078125 154.224609375 173.47265625 171.46859741210938 173.47265625 171.46859741210938 " />
        <polyline stroke="black" stroke-width="3" stroke-linecap="round" fill="transparent" stroke-linejoin="round" points="70.41937255859375 156.6880340576172 79.86251831054688 152.99290466308594 96.28533935546876 147.65548706054688 105.72848510742188 144.37091064453125 126.66757202148438 138.62290954589844 147.19613647460938 133.69607543945313 156.22869873046875 132.46435546875 176.75726318359375 131.23263549804688 184.96868896484375 130.00091552734375 187.84271240234375 130.00091552734375 189.8955078125 129.59036254882813 189.8955078125 129.59036254882813 " />
        <polyline stroke="black" stroke-width="3" stroke-linecap="round" fill="transparent" stroke-linejoin="round" points="157.46044921875 120.147216796875 149.24899291992188 132.46435546875 143.5009765625 143.9603271484375 135.28955078125 159.97259521484375 129.54159545898438 167.36288452148438 123.383056640625 172.70030212402344 119.27731323242188 175.1637420654297 108.19189453125 180.090576171875 103.26507568359376 181.73287963867188 100.39105224609376 182.1434326171875 100.80160522460938 181.32229614257813 102.8544921875 180.91172790527344 115.171630859375 178.0377197265625 134.87899780273438 175.57431030273438 155.4075927734375 174.75315856933594 173.47265625 175.57431030273438 184.55810546875 175.57431030273438 188.663818359375 175.57431030273438 188.663818359375 175.57431030273438 " />
        <polyline stroke="black" stroke-width="3" stroke-linecap="round" fill="transparent" stroke-linejoin="round" points="59.333953857421875 77.44784545898438 56.4599609375 88.94383239746094 53.99652099609375 101.26095581054688 52.76483154296875 108.65122985839844 49.069671630859375 132.05377197265625 47.016815185546875 151.35061645507813 45.37451171875 168.18402099609375 44.963958740234375 184.60687255859375 44.963958740234375 196.10284423828125 45.37451171875 201.02972412109375 46.60626220703125 209.24114990234375 49.069671630859375 216.2208251953125 58.92340087890625 223.61111450195313 76.1673583984375 227.3062438964844 99.15936279296876 227.3062438964844 122.97247314453124 225.6639709472656 147.606689453125 224.4322509765625 170.1881103515625 222.78997802734375 188.2532958984375 221.96881103515625 201.8021240234375 220.73712158203125 210.0135498046875 221.147705078125 212.4769287109375 221.55825805664065 212.4769287109375 221.55825805664065 " />
        </svg>