<?xml version="1.0" standalone="no"?>
    <svg width="256" height="256" xmlns="http://www.w3.org/2000/svg" version="1.1">
    <polyline stroke="black" stroke-width="3" stroke-linecap="round" fill="transparent" stroke-linejoin="round" points="51.086578369140625 66.5242919921875 68.70648193359375 66.65132141113281 86.32638549804688 66.77835083007813 96.3551025390625 66.83206176757813 119.87850952148438 64.58917236328125 131.14892578125 62.83683776855469 151.36737060546875 60.019439697265625 173.47113037109375 59.868316650390625 182.27130126953125 60.84809875488281 190.395751953125 61.842315673828125 196.61376953125 63.3427734375 196.6925048828125 63.406402587890625 196.700439453125 63.412841796875 196.7010498046875 63.41326904296875 196.70111083984375 63.413360595703125 196.701171875 63.413421630859375 196.701171875 63.4134521484375 " />
        <polyline stroke="black" stroke-width="3" stroke-linecap="round" fill="transparent" stroke-linejoin="round" points="56.143402099609375 87.47584533691406 58.762908935546875 125.22531127929688 61.382415771484375 162.9747772216797 59.826995849609375 192.9586181640625 58.18280029296875 203.31622314453125 56.72064208984375 210.93646240234375 54.289154052734375 219.1563720703125 53.855072021484375 219.32077026367188 53.80926513671875 219.338134765625 53.80743408203125 219.33883666992188 53.80712890625 219.33892822265625 53.80694580078125 219.3389892578125 53.806884765625 219.33901977539065 56.9541015625 219.62213134765625 60.556396484375 219.85009765625 76.2606201171875 220.67236328125 85.10092163085938 221.03158569335935 106.59222412109376 219.54559326171875 129.358642578125 216.60577392578125 143.75289916992188 214.660888671875 164.69000244140625 211.32009887695313 174.0888671875 210.26968383789065 187.2747802734375 210.84649658203125 193.1866455078125 211.20602416992188 199.0338134765625 212.21417236328125 200.26727294921875 212.2320251464844 201.474609375 212.137451171875 201.63507080078125 212.1148681640625 201.6588134765625 212.111572265625 " />
        <polyline stroke="black" stroke-width="3" stroke-linecap="round" fill="transparent" stroke-linejoin="round" points="98.31628417968753 96.2069854736328 100.33074951171876 108.542724609375 102.34521484375 120.8784637451172 104.49530029296876 134.24595642089844 108.46343994140624 162.4824676513672 110.158935546875 177.32421875 110.34625244140624 193.20904541015625 108.68072509765624 194.76593017578125 108.52365112304688 194.91278076171875 " />
        <polyline stroke="black" stroke-width="3" stroke-linecap="round" fill="transparent" stroke-linejoin="round" points="101.19158935546878 100.67544555664064 117.76702880859376 98.4944305419922 134.34246826171875 96.31341552734376 142.84628295898438 95.33889770507813 159.0574951171875 94.69180297851563 171.78314208984375 94.66220092773438 177.0634765625 95.39862060546876 181.9766845703125 97.53701782226563 182.3857421875 98.57130432128906 185.3209228515625 111.00279235839844 187.0450439453125 121.25082397460938 187.78466796875 145.97042846679688 186.29925537109375 154.44290161132813 182.1209716796875 166.9632568359375 179.538330078125 171.3340301513672 179.00701904296875 171.8421630859375 178.9722900390625 171.87545776367188 " />
        <polyline stroke="black" stroke-width="3" stroke-linecap="round" fill="transparent" stroke-linejoin="round" points="140.19049072265625 105.22573852539063 142.9102783203125 119.37596130371094 145.63006591796875 133.52618408203125 149.56427001953125 160.86790466308594 150.32821655273438 171.43753051757813 147.207275390625 179.1038055419922 143.78182983398438 178.94932556152344 143.2421875 177.0316162109375 " />
        <polyline stroke="black" stroke-width="3" stroke-linecap="round" fill="transparent" stroke-linejoin="round" points="79.69622802734375 145.59609985351563 86.64425659179688 143.8590545654297 93.59228515625 142.12200927734375 108.748779296875 137.92318725585938 123.394775390625 134.45872497558594 130.70513916015625 133.21014404296875 139.7373046875 131.94558715820313 158.3568115234375 129.5597381591797 177.2421875 129.7900390625 184.692626953125 130.28282165527344 195.59912109375 131.44558715820313 198.73583984375 131.69656372070313 201.063232421875 131.6959686279297 201.8111572265625 131.67181396484375 202.09820556640625 131.66253662109375 202.135498046875 131.66131591796875 202.15545654296875 131.6606903076172 " />
        <polyline stroke="black" stroke-width="3" stroke-linecap="round" fill="transparent" stroke-linejoin="round" points="117.41247558593753 187.5386047363281 125.94403076171876 185.92608642578125 134.4755859375 184.3135681152344 143.56698608398438 183.08590698242188 153.00128173828125 182.42703247070313 167.4183349609375 182.24752807617188 172.82000732421875 182.3066864013672 172.9268798828125 182.288330078125 172.95263671875 182.2839202880859 172.963134765625 182.2821044921875 " />
        </svg>