<?xml version="1.0" standalone="no"?>
    <svg width="256" height="256" xmlns="http://www.w3.org/2000/svg" version="1.1">
    <polyline stroke="black" stroke-width="3" stroke-linecap="round" fill="transparent" stroke-linejoin="round" points="79 54 79 67 79 80 79 104 79 133 79 161 79 180 82 192 84 196 86 196 86 196 " />
        <polyline stroke="black" stroke-width="3" stroke-linecap="round" fill="transparent" stroke-linejoin="round" points="68 63 75 63 82 63 103 61 129 57 142 56 167 54 188 53 201 53 207 53 207 53 " />
        <polyline stroke="black" stroke-width="3" stroke-linecap="round" fill="transparent" stroke-linejoin="round" points="123 84 123 96 123 108 123 121 123 131 123 137 123 140 123 140 " />
        <polyline stroke="black" stroke-width="3" stroke-linecap="round" fill="transparent" stroke-linejoin="round" points="122 75 136 75 150 75 165 75 178 75 185 79 189 85 189 95 189 107 189 117 187 126 186 133 184 135 184 135 " />
        <polyline stroke="black" stroke-width="3" stroke-linecap="round" fill="transparent" stroke-linejoin="round" points="150 79 150 85 150 91 150 100 149 110 149 120 149 124 149 132 149 132 " />
        <polyline stroke="black" stroke-width="3" stroke-linecap="round" fill="transparent" stroke-linejoin="round" points="66 113 82 113 98 113 116 113 127 113 162 113 181 113 193 113 196 113 196 113 " />
        <polyline stroke="black" stroke-width="3" stroke-linecap="round" fill="transparent" stroke-linejoin="round" points="114 140 130 139 146 138 164 138 180 138 192 138 192 138 " />
        <polyline stroke="black" stroke-width="3" stroke-linecap="round" fill="transparent" stroke-linejoin="round" points="89 195 97 195 105 195 121 193 146 191 174 190 186 190 209 189 225 189 232 190 232 190 " />
        </svg>