<?xml version="1.0" standalone="no"?>
    <svg width="256" height="256" xmlns="http://www.w3.org/2000/svg" version="1.1">
    <polyline stroke="black" stroke-width="3" stroke-linecap="round" fill="transparent" stroke-linejoin="round" points="70.7921142578125 85.24806213378906 82.320556640625 77.86985778808594 90.159912109375 73.25848388671875 109.06658935546876 62.652313232421875 131.662353515625 50.66271209716797 140.88510131835938 45.59019470214844 152.874755859375 38.21199798583984 156.1026611328125 35.445159912109375 156.1026611328125 35.445159912109375 " />
        <polyline stroke="black" stroke-width="3" stroke-linecap="round" fill="transparent" stroke-linejoin="round" points="89.23764038085938 70.030517578125 76.78695678710938 106.46041870117188 68.4864501953125 139.662353515625 64.79733276367188 154.87991333007813 57.88031005859375 183.0093231201172 52.34661865234375 204.68280029296875 50.04095458984375 214.82785034179688 50.04095458984375 214.82785034179688 " />
        <polyline stroke="black" stroke-width="3" stroke-linecap="round" fill="transparent" stroke-linejoin="round" points="71.71441650390625 175.16998291015625 80.93719482421875 167.33062744140625 90.62106323242188 160.87472534179688 100.76611328125 154.41876220703125 119.21163940429688 142.89031982421875 128.43441772460938 137.35667419433594 151.4913330078125 127.67277526855467 166.24774169921875 124.90594482421876 175.931640625 127.21163940429688 182.3875732421875 135.05096435546875 185.615478515625 151.19082641601563 181.46527099609375 169.63632202148438 172.2425537109375 184.8538818359375 160.2529296875 193.61550903320313 146.41879272460938 197.30462646484375 140.42401123046875 195.4600524902344 140.42401123046875 195.4600524902344 " />
        <polyline stroke="black" stroke-width="3" stroke-linecap="round" fill="transparent" stroke-linejoin="round" points="117.82821655273438 86.17034912109375 118.28939819335938 98.62106323242188 118.28939819335938 111.99406433105467 117.3670654296875 144.27374267578125 109.06658935546876 192.6932373046875 103.53292846679688 220.36151123046875 103.53292846679688 220.36151123046875 " />
        </svg>