<?xml version="1.0" standalone="no"?>
    <svg width="256" height="256" xmlns="http://www.w3.org/2000/svg" version="1.1">
    <polyline stroke="black" stroke-width="3" stroke-linecap="round" fill="transparent" stroke-linejoin="round" points="72.45144653320313 93.32159423828125 80.68011474609375 88.45918273925781 88.90878295898438 83.59677124023438 99.75567626953124 77.986328125 122.571533203125 67.88748168945313 143.89129638671875 59.6588134765625 159.2265625 54.796409606933594 167.45526123046875 52.92626190185547 170.07342529296875 52.55223083496094 170.07342529296875 52.55223083496094 " />
        <polyline stroke="black" stroke-width="3" stroke-linecap="round" fill="transparent" stroke-linejoin="round" points="79.55804443359375 100.80220031738281 75.44369506835938 114.26730346679688 71.329345703125 127.73240661621094 67.21502685546875 141.571533203125 63.100677490234375 156.1587371826172 54.49798583984375 183.4629821777344 49.26153564453125 196.5540771484375 49.26153564453125 196.5540771484375 " />
        <polyline stroke="black" stroke-width="3" stroke-linecap="round" fill="transparent" stroke-linejoin="round" points="69.08514404296875 153.16650390625 77.31381225585938 149.4261932373047 85.54248046875 145.68588256835938 94.89328002929688 141.945556640625 104.99212646484376 137.83123779296875 138.65487670898438 126.61032104492188 159.974609375 123.61807250976563 179.0501708984375 129.228515625 188.4010009765625 137.4571990966797 194.38543701171875 152.79246520996094 192.51531982421875 168.5017547607422 185.40869140625 180.47073364257813 174.187744140625 188.69940185546875 158.478515625 190.195556640625 148.005615234375 184.5850830078125 148.005615234375 184.5850830078125 " />
        <polyline stroke="black" stroke-width="3" stroke-linecap="round" fill="transparent" stroke-linejoin="round" points="140.52496337890625 90.70335388183594 135.66259765625 115.38938903808594 130.80023193359375 140.07542419433594 128.18197631835938 152.79246520996094 122.945556640625 176.73043823242188 116.96112060546876 202.16452026367188 116.96112060546876 202.16452026367188 " />
        </svg>