<?xml version="1.0" standalone="no"?>
    <svg width="256" height="256" xmlns="http://www.w3.org/2000/svg" version="1.1">
    <polyline stroke="black" stroke-width="3" stroke-linecap="round" fill="transparent" stroke-linejoin="round" points="68.00045776367188 73.42349243164063 80.39450073242188 70.94468688964844 96.50677490234376 68.46588134765625 113.8583984375 64.33453369140625 122.53427124023438 61.85572814941406 142.36474609375 54.832427978515625 150.21429443359375 51.94048309326172 152.27996826171875 51.11421203613281 152.27996826171875 51.11421203613281 " />
        <polyline stroke="black" stroke-width="3" stroke-linecap="round" fill="transparent" stroke-linejoin="round" points="95.68051147460938 82.92559814453125 85.76522827148438 103.9954833984375 71.3055419921875 140.76449584960938 57.25897216796875 180.42544555664065 46.517425537109375 207.69235229492188 39.90728759765625 222.97833251953125 36.189056396484375 227.93597412109375 36.189056396484375 227.93597412109375 " />
        <polyline stroke="black" stroke-width="3" stroke-linecap="round" fill="transparent" stroke-linejoin="round" points="90.30975341796876 145.30899047851563 100.2249755859375 139.52508544921875 105.595703125 136.63316345214844 111.792724609375 132.91494750976563 131.62322998046875 122.5865478515625 137.82025146484375 119.281494140625 148.97491455078125 115.15013122558594 160.12957763671875 116.80267333984376 166.73968505859375 129.60984802246094 168.80535888671875 141.17764282226563 165.9134521484375 179.18603515625 160.955810546875 195.29830932617188 155.99822998046875 204.38726806640625 149.80120849609375 210.17117309570313 139.4727783203125 212.64996337890625 134.10205078125 211.82369995117188 134.10205078125 211.82369995117188 " />
        <polyline stroke="black" stroke-width="3" stroke-linecap="round" fill="transparent" stroke-linejoin="round" points="117.57666015625 62.26885986328125 116.33724975585938 88.29637145996094 115.09783935546876 101.9298095703125 113.03216552734376 116.80267333984376 107.248291015625 142.4170379638672 95.68051147460938 176.29409790039063 86.17840576171875 201.08221435546875 86.17840576171875 201.08221435546875 " />
        </svg>