<?xml version="1.0" standalone="no"?>
    <svg width="256" height="256" xmlns="http://www.w3.org/2000/svg" version="1.1">
    <polyline stroke="black" stroke-width="3" stroke-linecap="round" fill="transparent" stroke-linejoin="round" points="66.92523193359375 48.42266845703125 74.27059936523438 59.440704345703125 77.94329833984375 67.39817810058594 82.22808837890625 74.13143920898438 85.28863525390625 79.64045715332031 85.28863525390625 79.64045715332031 " />
        <polyline stroke="black" stroke-width="3" stroke-linecap="round" fill="transparent" stroke-linejoin="round" points="115.28219604492188 49.03478240966797 125.6881103515625 55.768035888671875 131.80926513671875 59.440704345703125 138.54251098632813 60.052825927734375 138.54251098632813 60.052825927734375 " />
        <polyline stroke="black" stroke-width="3" stroke-linecap="round" fill="transparent" stroke-linejoin="round" points="176.4935302734375 38.62886047363281 169.148193359375 51.48323822021485 158.74224853515625 66.17396545410156 137.93038940429688 88.82215881347656 120.17910766601563 106.5734405517578 120.17910766601563 106.5734405517578 " />
        <polyline stroke="black" stroke-width="3" stroke-linecap="round" fill="transparent" stroke-linejoin="round" points="63.86468505859375 109.02189636230467 74.88272094726563 101.06442260742188 84.06442260742188 96.77963256835938 93.24612426757813 92.4948272705078 102.42782592773438 88.82215881347656 107.93682861328124 87.59793090820313 110.38531494140624 88.82215881347656 107.93682861328124 95.55540466308594 96.9188232421875 114.53091430664063 77.3311767578125 142.68812561035156 64.476806640625 158.6030731201172 57.7435302734375 165.9484405517578 52.84661865234375 170.2332305908203 51.622406005859375 169.00900268554688 56.519317626953125 162.2757568359375 71.8221435546875 145.74868774414063 92.63400268554688 129.833740234375 117.73065185546876 118.20359802246094 142.82730102539063 110.85823059082033 163.63916015625 109.02189636230467 178.329833984375 110.85823059082033 188.1236572265625 115.1430206298828 193.6326904296875 123.10049438476563 199.1417236328125 143.912353515625 196.0811767578125 165.33631896972656 185.67523193359375 184.9239501953125 172.82086181640625 199.61468505859375 156.9058837890625 212.46905517578125 139.15460205078125 220.426513671875 127.52447509765624 221.03863525390625 127.52447509765624 221.03863525390625 " />
        <polyline stroke="black" stroke-width="3" stroke-linecap="round" fill="transparent" stroke-linejoin="round" points="110.38531494140624 131.05796813964844 103.65203857421876 143.3002471923828 95.694580078125 159.82730102539063 87.125 175.13014221191406 82.22808837890625 186.14816284179688 80.3917236328125 191.65719604492188 84.06442260742188 192.26931762695313 84.06442260742188 192.26931762695313 " />
        <polyline stroke="black" stroke-width="3" stroke-linecap="round" fill="transparent" stroke-linejoin="round" points="148.3363037109375 128.60952758789063 145.2757568359375 143.3002471923828 137.31829833984375 158.6030731201172 129.972900390625 175.13014221191406 121.4033203125 197.16622924804688 121.4033203125 197.16622924804688 " />
        </svg>