<?xml version="1.0" standalone="no"?>
    <svg width="256" height="256" xmlns="http://www.w3.org/2000/svg" version="1.1">
    <polyline stroke="black" stroke-width="3" stroke-linecap="round" fill="transparent" stroke-linejoin="round" points="77.80010986328125 67.4666748046875 90.60003662109376 87.73333740234375 95.93341064453124 92.00001525878906 95.93341064453124 92.00001525878906 " />
        <polyline stroke="black" stroke-width="3" stroke-linecap="round" fill="transparent" stroke-linejoin="round" points="111.93341064453124 50.40000915527344 123.666748046875 72.80000305175781 129 76.00001525878906 129 76.00001525878906 " />
        <polyline stroke="black" stroke-width="3" stroke-linecap="round" fill="transparent" stroke-linejoin="round" points="155.666748046875 37.600006103515625 147.1334228515625 56.800018310546875 143.933349609375 67.4666748046875 134.3333740234375 88.80000305175781 125.80010986328124 103.73333740234376 120.466796875 110.1333465576172 120.466796875 110.1333465576172 " />
        <polyline stroke="black" stroke-width="3" stroke-linecap="round" fill="transparent" stroke-linejoin="round" points="67.1334228515625 100.53335571289063 69.2667236328125 129.33334350585938 65.00006103515625 142.1333465576172 57.53338623046875 159.20001220703125 54.3333740234375 167.73338317871094 52.2000732421875 170.93336486816406 51.1334228515625 170.93336486816406 51.1334228515625 170.93336486816406 " />
        <polyline stroke="black" stroke-width="3" stroke-linecap="round" fill="transparent" stroke-linejoin="round" points="76.7333984375 117.60000610351563 105.53338623046876 110.1333465576172 132.2000732421875 105.86669921875 158.86669921875 105.86669921875 166.3333740234375 105.86669921875 170.60009765625 106.933349609375 174.86669921875 109.06668090820313 175.933349609375 112.26667785644533 177 132.53334045410156 174.86669921875 153.86668395996094 167.4000244140625 176.26669311523438 157.8001708984375 195.4666748046875 145 215.73336791992188 140.7333984375 221.06671142578125 135.4000244140625 221.06671142578125 130.0667724609375 213.6000061035156 130.0667724609375 213.6000061035156 " />
        <polyline stroke="black" stroke-width="3" stroke-linecap="round" fill="transparent" stroke-linejoin="round" points="105.53338623046876 124.00001525878906 94.86669921875 151.73338317871094 89.53338623046875 161.33334350585938 81.00006103515625 174.1333465576172 76.7333984375 178.40003967285156 71.4000244140625 175.20001220703125 71.4000244140625 175.20001220703125 " />
        <polyline stroke="black" stroke-width="3" stroke-linecap="round" fill="transparent" stroke-linejoin="round" points="145 120.8000030517578 138.60009765625 140.00001525878906 124.7333984375 162.40003967285156 109.80010986328124 184.80001831054688 101.2667236328125 199.73336791992188 95.93341064453124 212.53335571289065 95.93341064453124 212.53335571289065 " />
        </svg>