<?xml version="1.0" standalone="no"?>
    <svg width="256" height="256" xmlns="http://www.w3.org/2000/svg" version="1.1">
    <polyline stroke="black" stroke-width="3" stroke-linecap="round" fill="transparent" stroke-linejoin="round" points="67.90878295898438 81.57186889648438 102.227783203125 78.00534057617188 119.15948486328124 76.115966796875 133.22994995117188 74.14202880859375 160.92041015625 69.80224609375 168.75225830078125 68.02914428710938 169.058349609375 67.95904541015625 169.0889892578125 67.95199584960938 169.091064453125 67.9515380859375 " />
        <polyline stroke="black" stroke-width="3" stroke-linecap="round" fill="transparent" stroke-linejoin="round" points="70.00131225585938 141.30662536621094 77.79086303710938 140.25985717773438 114.4688720703125 138.27310180664063 149.469970703125 135.72979736328125 158.1331787109375 134.6493377685547 167.9588623046875 131.42471313476563 168.3272705078125 131.25604248046875 " />
        <polyline stroke="black" stroke-width="3" stroke-linecap="round" fill="transparent" stroke-linejoin="round" points="91.90875244140624 109.35491943359376 89.55511474609375 124.17391967773438 87.2218017578125 142.60220336914063 84.00155639648438 165.86155700683594 78.2066650390625 205.53549194335935 73.79412841796875 222.9969787597656 64.91253662109375 247.30288696289065 61.597259521484375 253.26724243164065 57.414306640625 257.64349365234375 57.22039794921875 257.6988830566406 " />
        <polyline stroke="black" stroke-width="3" stroke-linecap="round" fill="transparent" stroke-linejoin="round" points="99.18380737304688 169.34251403808594 107.91952514648438 176.7549285888672 125.92724609375 195.22149658203125 145.78607177734375 207.54318237304688 166.36865234375 221.2176513671875 170.61883544921875 224.11444091796875 175.3668212890625 227.31951904296875 175.84161376953125 227.6400146484375 " />
        </svg>