<?xml version="1.0" standalone="no"?>
    <svg width="256" height="256" xmlns="http://www.w3.org/2000/svg" version="1.1">
    <polyline stroke="black" stroke-width="3" stroke-linecap="round" fill="transparent" stroke-linejoin="round" points="75.86468505859375 83.86465454101563 83.7039794921875 79.71441650390625 93.84906005859376 75.56417846679688 104.45526123046876 71.41392517089844 127.05096435546876 64.49685668945313 149.18560791015625 59.424346923828125 169.93682861328125 56.196380615234375 182.84869384765625 54.812957763671875 188.38232421875 54.812957763671875 188.38232421875 54.812957763671875 " />
        <polyline stroke="black" stroke-width="3" stroke-linecap="round" fill="transparent" stroke-linejoin="round" points="54.652313232421875 153.03533935546875 65.25848388671875 148.88511657714844 77.248046875 144.27374267578125 90.159912109375 139.662353515625 115.06137084960938 131.3618621826172 139.04058837890625 124.44479370117188 157.94720458984375 117.98887634277344 168.09228515625 111.99406433105467 168.09228515625 111.99406433105467 " />
        <polyline stroke="black" stroke-width="3" stroke-linecap="round" fill="transparent" stroke-linejoin="round" points="112.2945556640625 95.39309692382813 104.91635131835938 109.68840026855467 97.53817749023438 124.90594482421876 89.23764038085938 141.04576110839844 81.85946655273438 154.87991333007813 69.40869140625 179.32022094726563 61.108245849609375 194.07666015625 61.108245849609375 194.07666015625 " />
        <polyline stroke="black" stroke-width="3" stroke-linecap="round" fill="transparent" stroke-linejoin="round" points="107.68319702148438 155.34104919433594 114.13912963867188 157.1855926513672 122.43963623046876 159.95242309570313 130.74008178710938 163.18038940429688 146.8798828125 171.01974487304688 163.019775390625 181.1647796630859 170.39794921875 188.08184814453125 170.39794921875 188.08184814453125 " />
        </svg>