<?xml version="1.0" standalone="no"?>
    <svg width="256" height="256" xmlns="http://www.w3.org/2000/svg" version="1.1">
    <polyline stroke="black" stroke-width="3" stroke-linecap="round" fill="transparent" stroke-linejoin="round" points="76.50717163085938 86.5526123046875 84.293212890625 82.3056640625 92.43319702148438 78.41262817382813 101.98883056640624 73.811767578125 118.97662353515624 66.37962341308594 127.470458984375 63.19439697265625 140.21136474609375 59.301361083984375 149.05914306640625 57.17790222167969 152.9521484375 57.88572692871094 152.9521484375 57.88572692871094 " />
        <polyline stroke="black" stroke-width="3" stroke-linecap="round" fill="transparent" stroke-linejoin="round" points="57.39593505859375 153.44198608398438 69.7828369140625 147.4254608154297 97.74188232421876 135.03854370117188 121.80792236328124 126.54466247558594 141.27304077148438 120.52816772460938 156.13739013671875 116.28121948242188 166.40081787109375 111.32644653320313 166.40081787109375 111.32644653320313 " />
        <polyline stroke="black" stroke-width="3" stroke-linecap="round" fill="transparent" stroke-linejoin="round" points="104.1123046875 108.49514770507813 96.32623291015624 124.4211883544922 91.3714599609375 136.10028076171875 86.06280517578125 147.77938842773438 77.56890869140625 167.59844970703125 72.968017578125 178.56973266601563 71.55242919921875 184.94015502929688 72.26022338867188 185.64797973632813 72.26022338867188 185.64797973632813 " />
        <polyline stroke="black" stroke-width="3" stroke-linecap="round" fill="transparent" stroke-linejoin="round" points="120.39227294921876 148.8411102294922 126.40878295898438 151.31851196289063 133.133056640625 155.21153259277344 148.351318359375 164.4132537841797 156.4913330078125 170.42974853515625 175.95648193359375 188.83319091796875 175.95648193359375 188.83319091796875 " />
        </svg>