<?xml version="1.0" standalone="no"?>
    <svg width="256" height="256" xmlns="http://www.w3.org/2000/svg" version="1.1">
    <polyline stroke="black" stroke-width="3" stroke-linecap="round" fill="transparent" stroke-linejoin="round" points="71 86 79 86 96 83 115 80 136 77 154 77 166 77 169 77 169 77 " />
        <polyline stroke="black" stroke-width="3" stroke-linecap="round" fill="transparent" stroke-linejoin="round" points="71 139 80 139 98 137 121 134 145 133 165 132 181 132 187 131 188 131 188 131 " />
        <polyline stroke="black" stroke-width="3" stroke-linecap="round" fill="transparent" stroke-linejoin="round" points="115 107 115 122 108 147 95 172 78 196 63 210 50 218 50 218 " />
        <polyline stroke="black" stroke-width="3" stroke-linecap="round" fill="transparent" stroke-linejoin="round" points="129 175 134 180 145 191 163 199 184 204 204 207 218 207 218 207 " />
        </svg>