<?xml version="1.0" standalone="no"?>
    <svg width="256" height="256" xmlns="http://www.w3.org/2000/svg" version="1.1">
    <polyline stroke="black" stroke-width="3" stroke-linecap="round" fill="transparent" stroke-linejoin="round" points="87.02172851562499 99.62261962890625 94.19137573242188 97.38211059570313 101.36102294921876 95.1416015625 109.87493896484376 92.4530029296875 128.2470703125 87.97198486328125 147.0672607421875 84.38717651367188 161.8546142578125 81.69857788085938 167.2318115234375 80.80238342285156 173.05712890625 79.90617370605469 173.95330810546875 79.45806884765625 173.95330810546875 79.45806884765625 " />
        <polyline stroke="black" stroke-width="3" stroke-linecap="round" fill="transparent" stroke-linejoin="round" points="58.791412353515625 170.87066650390625 78.05975341796875 164.14913940429688 97.32809448242188 157.4276123046875 130.487548828125 148.46560668945313 149.30780029296875 144.88079833984375 161.8546142578125 141.29598999023438 167.679931640625 138.60739135742188 169.02423095703125 133.6782684326172 169.47235107421875 128.74917602539063 169.47235107421875 128.74917602539063 " />
        <polyline stroke="black" stroke-width="3" stroke-linecap="round" fill="transparent" stroke-linejoin="round" points="118.83697509765624 101.86311340332031 116.596435546875 114.40994262695313 114.35589599609376 126.95677185058594 112.5634765625 140.3997802734375 111.21920776367188 152.94662475585938 109.87493896484376 176.69595336914063 109.87493896484376 195.06808471679688 110.322998046875 209.4073181152344 110.322998046875 219.713623046875 110.322998046875 219.713623046875 " />
        </svg>