<?xml version="1.0" standalone="no"?>
    <svg width="256" height="256" xmlns="http://www.w3.org/2000/svg" version="1.1">
    <polyline stroke="black" stroke-width="3" stroke-linecap="round" fill="transparent" stroke-linejoin="round" points="69.73983764648438 75.99227905273438 79.79241943359375 72.64141845703125 88.16952514648438 70.1282958984375 96.96551513671876 67.61515808105469 115.81402587890624 63.00773620605469 142.62081909179688 57.56260681152344 156.443115234375 55.049461364746094 164.8201904296875 53.37403869628906 166.91448974609375 52.95518493652344 169.0087890625 52.117462158203125 169.0087890625 52.117462158203125 " />
        <polyline stroke="black" stroke-width="3" stroke-linecap="round" fill="transparent" stroke-linejoin="round" points="80.21127319335938 129.6058807373047 99.05978393554688 128.34930419921875 107.01803588867188 127.5115966796875 115.81402587890624 126.25503540039063 142.20199584960938 122.48532104492188 150.16024780273438 121.228759765625 162.7259521484375 117.45904541015624 171.10302734375 111.17620849609376 171.10302734375 111.17620849609376 " />
        <polyline stroke="black" stroke-width="3" stroke-linecap="round" fill="transparent" stroke-linejoin="round" points="127.96087646484376 78.08656311035156 126.285400390625 96.93508911132813 126.285400390625 105.31222534179688 126.285400390625 114.52706909179688 126.70428466796876 152.22412109375 127.12313842773438 161.85781860351563 127.12313842773438 184.8948974609375 126.285400390625 201.23031616210935 126.285400390625 201.23031616210935 " />
        </svg>