<?xml version="1.0" standalone="no"?>
    <svg width="256" height="256" xmlns="http://www.w3.org/2000/svg" version="1.1">
    <polyline stroke="black" stroke-width="3" stroke-linecap="round" fill="transparent" stroke-linejoin="round" points="69.12939453125 87.27090454101563 89.25341796875 81.65632629394531 98.16000366210938 80.50100708007813 106.62322998046876 79.304931640625 125.15463256835938 76.03938293457031 135.50604248046875 74.29949951171875 152.52838134765625 73.0167236328125 161.07965087890625 72.73770141601563 171.5072021484375 73.44287109375 173.46771240234375 73.15667724609375 173.9573974609375 72.60231018066406 173.9796142578125 72.57708740234375 173.99163818359375 72.5634765625 " />
        <polyline stroke="black" stroke-width="3" stroke-linecap="round" fill="transparent" stroke-linejoin="round" points="55.46417236328125 142.40313720703125 80.24203491210938 135.0166015625 90.42245483398438 133.1532440185547 102.67892456054688 131.33645629882813 114.254638671875 130.32647705078125 134.30712890625 128.17538452148438 150.21749877929688 125.51628112792967 156.47161865234375 124.63291931152344 164.50164794921875 123.55625915527344 166.33642578125 123.36178588867188 166.76324462890625 123.08697509765624 165.95794677734375 122.36410522460938 165.565185546875 122.01156616210938 " />
        <polyline stroke="black" stroke-width="3" stroke-linecap="round" fill="transparent" stroke-linejoin="round" points="111.538818359375 76.90415954589844 116.05413818359376 99.968017578125 117.66720581054688 109.21257019042967 123.34442138671876 137.87400817871094 127.06854248046876 156.50759887695313 132.24493408203125 191.92904663085935 132.8375244140625 206.09503173828125 130.62615966796875 221.9095764160156 127.10479736328124 231.20443725585935 125.66342163085938 234.40628051757813 125.55621337890624 236.8133850097656 125.54779052734376 237.00286865234375 " />
        </svg>