<?xml version="1.0" standalone="no"?>
    <svg width="256" height="256" xmlns="http://www.w3.org/2000/svg" version="1.1">
    <polyline stroke="black" stroke-width="3" stroke-linecap="round" fill="transparent" stroke-linejoin="round" points="65.5291748046875 60.61444091796875 72.50888061523438 68.415283203125 78.25689697265625 74.98440551757813 84.0048828125 81.55355834960938 89.75286865234375 86.48040771484375 98.785400390625 89.76498413085938 98.785400390625 89.76498413085938 " />
        <polyline stroke="black" stroke-width="3" stroke-linecap="round" fill="transparent" stroke-linejoin="round" points="171.45648193359375 49.118438720703125 163.6556396484375 57.74043273925781 150.10678100585938 70.4681396484375 128.757080078125 88.1226806640625 116.85055541992188 97.97639465332033 116.85055541992188 97.97639465332033 " />
        <polyline stroke="black" stroke-width="3" stroke-linecap="round" fill="transparent" stroke-linejoin="round" points="28.167205810546875 128.7692108154297 41.716064453125 125.07408142089844 59.78118896484375 120.55780029296876 81.95199584960938 114.80979919433594 106.58627319335938 109.8829345703125 133.68392944335938 105.36666870117188 159.5499267578125 101.67153930664063 180.0784912109375 99.61868286132813 193.6273193359375 98.38697814941406 201.42816162109375 97.15525817871094 204.7127685546875 96.3341064453125 204.7127685546875 96.3341064453125 " />
        <polyline stroke="black" stroke-width="3" stroke-linecap="round" fill="transparent" stroke-linejoin="round" points="118.49285888671876 37.211883544921875 115.208251953125 48.70787048339844 109.870849609375 67.18356323242188 103.30169677734376 89.35440063476563 98.37484741210938 102.08212280273438 81.130859375 143.9603271484375 75.38287353515625 156.2774658203125 59.37060546875 186.2491455078125 59.37060546875 186.2491455078125 " />
        <polyline stroke="black" stroke-width="3" stroke-linecap="round" fill="transparent" stroke-linejoin="round" points="101.659423828125 129.59036254882813 113.9765625 132.87493896484375 119.72454833984376 134.10665893554688 139.0213623046875 138.62290954589844 151.3385009765625 141.0863494873047 159.5499267578125 142.72862243652344 162.4239501953125 143.9603271484375 162.4239501953125 143.9603271484375 " />
        <polyline stroke="black" stroke-width="3" stroke-linecap="round" fill="transparent" stroke-linejoin="round" points="74.56173706054688 177.62716674804688 92.21627807617188 169.82632446289063 107.8179931640625 164.4888916015625 128.757080078125 158.330322265625 139.0213623046875 155.45632934570313 145.179931640625 154.224609375 148.053955078125 153.40347290039063 148.46453857421875 153.40347290039063 148.053955078125 153.40347290039063 146.00106811523438 153.81405639648438 142.71652221679688 155.45632934570313 141.07421875 156.2774658203125 136.55795288085938 159.97259521484375 134.09454345703125 163.66775512695313 132.04168701171875 170.23687744140625 130.80999755859375 180.91172790527344 130.80999755859375 186.65972900390625 130.80999755859375 201.85086059570313 129.57821655273438 210.062255859375 127.525390625 216.2208251953125 123.83026123046876 219.91598510742188 114.79769897460938 221.96881103515625 111.51312255859376 222.37939453125 111.51312255859376 222.37939453125 " />
        </svg>