<?xml version="1.0" standalone="no"?>
    <svg width="256" height="256" xmlns="http://www.w3.org/2000/svg" version="1.1">
    <polyline stroke="black" stroke-width="3" stroke-linecap="round" fill="transparent" stroke-linejoin="round" points="84 68 82 66 84 68 88 73 92 81 99 89 107 93 108 93 108 93 " />
        <polyline stroke="black" stroke-width="3" stroke-linecap="round" fill="transparent" stroke-linejoin="round" points="159 44 157 43 155 46 152 53 147 62 145 65 137 73 134 77 119 88 115 92 115 92 " />
        <polyline stroke="black" stroke-width="3" stroke-linecap="round" fill="transparent" stroke-linejoin="round" points="54 130 48 132 52 132 59 130 62 128 75 124 81 122 113 111 143 100 162 92 174 87 178 85 177 85 173 85 173 85 " />
        <polyline stroke="black" stroke-width="3" stroke-linecap="round" fill="transparent" stroke-linejoin="round" points="126 47 125 43 127 46 127 47 128 57 127 72 120 98 104 127 84 153 65 172 49 185 40 190 39 191 37 191 37 191 " />
        <polyline stroke="black" stroke-width="3" stroke-linecap="round" fill="transparent" stroke-linejoin="round" points="120 116 115 115 113 118 117 122 127 125 143 130 160 135 165 136 178 137 182 138 191 138 193 137 203 133 209 130 210 128 210 128 " />
        <polyline stroke="black" stroke-width="3" stroke-linecap="round" fill="transparent" stroke-linejoin="round" points="88 165 86 163 91 163 105 159 122 153 135 149 139 148 148 145 150 144 148 145 148 145 " />
        <polyline stroke="black" stroke-width="3" stroke-linecap="round" fill="transparent" stroke-linejoin="round" points="127 152 120 153 118 155 118 156 120 157 124 160 125 161 130 169 133 180 135 191 133 200 129 206 124 210 120 210 118 210 112 206 107 200 105 196 105 196 " />
        </svg>