<?xml version="1.0" standalone="no"?>
    <svg width="256" height="256" xmlns="http://www.w3.org/2000/svg" version="1.1">
    <polyline stroke="black" stroke-width="3" stroke-linecap="round" fill="transparent" stroke-linejoin="round" points="134.14990234375 53.048614501953125 133.730224609375 58.084625244140625 132.89093017578125 63.540283203125 131.63192749023438 69.41561889648438 127.85491943359376 81.16627502441406 121.97958374023438 92.07760620117188 118.20257568359376 97.95294189453124 106.87158203125 112.64128112792967 103.09457397460938 116.41827392578124 95.96026611328124 121.87393188476563 88.825927734375 124.81158447265624 83.37030029296875 125.23126220703124 79.59326171875 124.81158447265624 76.65560913085938 123.97227478027344 74.97698974609375 123.13291931152344 74.13763427734375 121.87393188476563 74.97698974609375 119.77560424804688 82.53094482421875 115.15927124023438 98.89794921875 108.02493286132813 119.46160888671876 100.47093200683594 139.18588256835938 94.17593383789063 158.0709228515625 89.55960083007813 170.660888671875 86.6219482421875 179.473876953125 85.36294555664063 184.0902099609375 84.94326782226563 185.7689208984375 85.78260803222656 185.7689208984375 85.78260803222656 " />
        <polyline stroke="black" stroke-width="3" stroke-linecap="round" fill="transparent" stroke-linejoin="round" points="95.54061889648438 157.5455780029297 90.50457763671876 168.0372314453125 81.27194213867188 186.9222412109375 77.91461181640625 194.05657958984375 72.87860107421875 204.12857055664065 70.360595703125 209.584228515625 70.360595703125 209.584228515625 " />
        <polyline stroke="black" stroke-width="3" stroke-linecap="round" fill="transparent" stroke-linejoin="round" points="171.08056640625 155.02757263183594 177.7952880859375 163.840576171875 184.0902099609375 173.91256713867188 198.778564453125 210.84323120117188 198.778564453125 210.84323120117188 " />
        </svg>