<?xml version="1.0" standalone="no"?>
    <svg width="256" height="256" xmlns="http://www.w3.org/2000/svg" version="1.1">
    <polyline stroke="black" stroke-width="3" stroke-linecap="round" fill="transparent" stroke-linejoin="round" points="126 46 128 53 130 58 130 62 130 65 131 72 131 81 131 81 131 81 131 83 131 86 131 89 130 96 130 98 130 100 129 101 129 101 " />
        <polyline stroke="black" stroke-width="3" stroke-linecap="round" fill="transparent" stroke-linejoin="round" points="54 108 56 108 59 109 59 109 63 109 71 109 76 109 76 109 81 108 94 105 96 105 97 105 101 104 117 103 120 102 121 103 125 103 133 103 149 102 153 102 154 102 157 102 176 101 180 101 181 101 185 101 197 102 198 103 199 103 201 103 202 104 203 104 204 104 " />
        <polyline stroke="black" stroke-width="3" stroke-linecap="round" fill="transparent" stroke-linejoin="round" points="98 141 98 141 98 142 98 143 98 147 98 147 97 150 94 156 91 162 91 162 90 164 89 166 78 184 78 185 77 186 67 202 62 208 62 209 61 210 58 215 53 220 " />
        <polyline stroke="black" stroke-width="3" stroke-linecap="round" fill="transparent" stroke-linejoin="round" points="172 150 180 156 187 163 187 163 187 163 192 171 201 183 201 184 202 185 209 194 220 209 221 210 223 212 223 212 " />
        </svg>