<?xml version="1.0" standalone="no"?>
    <svg width="256" height="256" xmlns="http://www.w3.org/2000/svg" version="1.1">
    <polyline stroke="black" stroke-width="3" stroke-linecap="round" fill="transparent" stroke-linejoin="round" points="129.59136962890625 60.18974304199219 130.0394287109375 64.67074584960938 130.0394287109375 70.04795837402344 129.14324951171875 76.32138061523438 127.350830078125 82.59478759765625 121.9736328125 92.90109252929688 118.8369140625 96.93400573730467 110.7711181640625 103.20744323730467 100.91290283203124 108.1365203857422 91.0546875 111.2732391357422 81.64453125 112.6175537109375 74.92303466796875 113.06564331054688 71.33822631835938 113.06564331054688 70.89013671875 112.16943359375 73.5787353515625 109.92893981933594 86.12557983398438 103.655517578125 105.39389038085938 96.03781127929688 125.55844116210938 89.31629943847656 146.619140625 83.49098205566406 169.02423095703125 78.56187438964844 187.3963623046875 75.87327575683594 199.0469970703125 75.87327575683594 203.52801513671875 77.21757507324219 204.4241943359375 79.45806884765625 203.97607421875 81.25048828125 203.97607421875 81.25048828125 " />
        <polyline stroke="black" stroke-width="3" stroke-linecap="round" fill="transparent" stroke-linejoin="round" points="59.239501953125 185.2098693847656 56.9990234375 188.794677734375 55.206634521484375 191.4832763671875 53.4141845703125 193.72378540039065 52.51800537109375 195.06808471679688 52.069915771484375 195.51617431640625 52.51800537109375 195.51617431640625 52.51800537109375 195.51617431640625 " />
        <polyline stroke="black" stroke-width="3" stroke-linecap="round" fill="transparent" stroke-linejoin="round" points="169.02423095703125 152.94662475585938 177.53814697265625 165.9415283203125 181.571044921875 172.66305541992188 187.844482421875 189.69088745117188 189.6368408203125 199.10101318359375 191.42926025390625 207.16680908203125 191.42926025390625 207.16680908203125 " />
        </svg>