<?xml version="1.0" standalone="no"?>
    <svg width="256" height="256" xmlns="http://www.w3.org/2000/svg" version="1.1">
    <polyline stroke="black" stroke-width="3" stroke-linecap="round" fill="transparent" stroke-linejoin="round" points="122.63497924804688 52.3255615234375 125.42343139648438 66.43295288085938 124.79254150390624 71.91748046875 121.29449462890624 82.48268127441406 118.58721923828124 86.60836791992188 118.1103515625 86.37704467773438 " />
        <polyline stroke="black" stroke-width="3" stroke-linecap="round" fill="transparent" stroke-linejoin="round" points="77.47216796875 90.94644165039063 84.60858154296875 91.097412109375 91.66293334960938 91.11691284179688 104.78024291992188 91.06375122070313 111.12274169921876 90.5322265625 124.966796875 89.19403076171875 131.32415771484375 88.10054016113281 145.45126342773438 85.06027221679688 155.965087890625 82.91061401367188 159.8778076171875 82.58987426757813 164.61480712890625 82.036865234375 164.8984375 81.76239013671875 164.9813232421875 81.68212890625 165.01995849609375 81.64471435546875 " />
        <polyline stroke="black" stroke-width="3" stroke-linecap="round" fill="transparent" stroke-linejoin="round" points="74.9490966796875 165.2030029296875 69.22457885742188 181.1473693847656 55.848236083984375 212.1533203125 49.17138671875 225.6844482421875 41.449066162109375 232.95068359375 41.87823486328125 230.69241333007813 " />
        <polyline stroke="black" stroke-width="3" stroke-linecap="round" fill="transparent" stroke-linejoin="round" points="147.11300659179688 162.08892822265625 157.205810546875 172.346923828125 182.17962646484375 193.17605590820313 205.733154296875 209.3416748046875 210.8880615234375 212.35467529296875 213.8431396484375 213.713134765625 214.36566162109375 215.22708129882813 214.40240478515625 215.33349609375 " />
        </svg>