<?xml version="1.0" standalone="no"?>
    <svg width="256" height="256" xmlns="http://www.w3.org/2000/svg" version="1.1">
    <polyline stroke="black" stroke-width="3" stroke-linecap="round" fill="transparent" stroke-linejoin="round" points="65.76800537109375 63.50233459472656 67.22567749023438 79.05821228027344 70.14102172851563 114.54502868652344 71.59872436523438 123.2952117919922 72.0845947265625 128.6425323486328 73.54229736328125 131.5592498779297 73.54229736328125 131.5592498779297 " />
        <polyline stroke="black" stroke-width="3" stroke-linecap="round" fill="transparent" stroke-linejoin="round" points="81.802490234375 68.36354064941406 92.97802734375 64.47457885742188 104.63946533203124 59.613372802734375 131.8494873046875 53.29378509521485 146.42626953125 51.835426330566406 169.74920654296875 47.94647216796875 178.0093994140625 46.48809051513672 187.2413330078125 46.001976013183594 188.213134765625 47.94647216796875 184.325927734375 59.613372802734375 179.467041015625 68.84967041015625 173.150390625 79.05821228027344 159.54541015625 99.96141052246094 152.742919921875 109.68382263183594 146.42626953125 117.46174621582033 146.42626953125 117.46174621582033 " />
        <polyline stroke="black" stroke-width="3" stroke-linecap="round" fill="transparent" stroke-linejoin="round" points="101.23822021484376 73.71087646484375 104.153564453125 87.80839538574219 106.5830078125 101.41975402832033 110.47018432617188 118.43399047851563 111.44195556640624 120.37849426269533 111.44195556640624 120.37849426269533 " />
        <polyline stroke="black" stroke-width="3" stroke-linecap="round" fill="transparent" stroke-linejoin="round" points="143.51092529296875 75.16923522949219 140.5955810546875 80.51657104492188 137.68020629882813 89.26673889160156 130.877685546875 108.71159362792967 127.96234130859376 114.54502868652344 124.56109619140624 121.3507080078125 124.56109619140624 121.3507080078125 " />
        <polyline stroke="black" stroke-width="3" stroke-linecap="round" fill="transparent" stroke-linejoin="round" points="81.802490234375 131.5592498779297 89.09088134765625 127.67030334472656 111.44195556640624 120.86459350585938 122.131591796875 117.46174621582033 141.08148193359375 113.08665466308594 148.369873046875 111.62831115722656 156.63006591796875 110.65603637695313 157.601806640625 110.65603637695313 158.0877685546875 110.65603637695313 157.115966796875 114.54502868652344 157.115966796875 114.54502868652344 " />
        <polyline stroke="black" stroke-width="3" stroke-linecap="round" fill="transparent" stroke-linejoin="round" points="116.78680419921876 148.573486328125 116.78680419921876 161.69874572753906 116.78680419921876 177.74072265625 115.81500244140624 202.0467834472656 115.3291015625 206.421875 113.87142944335938 208.36636352539065 113.87142944335938 208.36636352539065 " />
        <polyline stroke="black" stroke-width="3" stroke-linecap="round" fill="transparent" stroke-linejoin="round" points="37.10028076171875 251.14498901367188 63.3385009765625 232.67239379882813 82.77426147460938 220.51937866210935 97.83697509765624 214.1997985839844 131.36358642578125 204.9635009765625 147.88397216796875 201.5606689453125 177.03759765625 198.6439514160156 189.1849365234375 198.6439514160156 205.70526123046875 201.5606689453125 210.07830810546875 204.9635009765625 212.5078125 208.85247802734375 212.5078125 208.85247802734375 " />
        </svg>