<?xml version="1.0" standalone="no"?>
    <svg width="256" height="256" xmlns="http://www.w3.org/2000/svg" version="1.1">
    <polyline stroke="black" stroke-width="3" stroke-linecap="round" fill="transparent" stroke-linejoin="round" points="83 67 83 84 83 101 84 118 88 133 90 138 93 141 93 141 " />
        <polyline stroke="black" stroke-width="3" stroke-linecap="round" fill="transparent" stroke-linejoin="round" points="90 75 98 75 106 75 127 72 154 70 163 70 180 70 192 76 197 89 197 106 195 122 190 128 190 128 " />
        <polyline stroke="black" stroke-width="3" stroke-linecap="round" fill="transparent" stroke-linejoin="round" points="137 67 137 86 137 105 137 134 137 142 137 142 " />
        <polyline stroke="black" stroke-width="3" stroke-linecap="round" fill="transparent" stroke-linejoin="round" points="162 72 162 89 162 106 160 122 160 122 " />
        <polyline stroke="black" stroke-width="3" stroke-linecap="round" fill="transparent" stroke-linejoin="round" points="98 138 105 138 112 138 127 138 143 137 163 137 179 137 184 137 184 137 " />
        <polyline stroke="black" stroke-width="3" stroke-linecap="round" fill="transparent" stroke-linejoin="round" points="142 150 143 165 144 180 144 189 144 193 144 193 " />
        <polyline stroke="black" stroke-width="3" stroke-linecap="round" fill="transparent" stroke-linejoin="round" points="83 189 91 189 99 189 121 189 149 189 164 189 206 193 206 193 " />
        </svg>