<?xml version="1.0" standalone="no"?>
    <svg width="256" height="256" xmlns="http://www.w3.org/2000/svg" version="1.1">
    <polyline stroke="black" stroke-width="3" stroke-linecap="round" fill="transparent" stroke-linejoin="round" points="62.87518310546875 78.45559692382813 79.62841796875 72.91455078125 102.00076293945313 65.78660583496094 136.20965576171875 57.20185852050781 151.87030029296875 54.34027862548828 164.7994384765625 52.701377868652344 172.52569580078125 52.88349151611328 176.94818115234375 53.35174560546875 180.40802001953125 55.693023681640625 180.40802001953125 55.693023681640625 " />
        <polyline stroke="black" stroke-width="3" stroke-linecap="round" fill="transparent" stroke-linejoin="round" points="84.831298828125 104.3398895263672 94.768798828125 111.05158996582033 100.28384399414063 116.12440490722656 103.14544677734376 119.16806030273438 105.38265991210938 122.21174621582033 106.47525024414063 123.46043395996094 106.47525024414063 123.46043395996094 " />
        <polyline stroke="black" stroke-width="3" stroke-linecap="round" fill="transparent" stroke-linejoin="round" points="102.88525390625 98.66876220703124 114.2015380859375 93.90814208984376 133.76431274414063 90.18807983398438 137.58843994140625 90.55227661132813 139.6175537109375 91.85299682617188 140.89224243164063 92.65945434570313 138.62899780273438 96.95182800292967 135.48129272460938 100.90599060058594 132.281494140625 104.91220092773438 129.57601928710938 107.79978942871094 126.42828369140624 110.71339416503906 122.63015747070313 113.6269989013672 119.4564208984375 115.70817565917967 115.736328125 118.04945373535156 112.640625 120.10458374023438 111.00173950195313 121.27523803710938 110.4554443359375 121.6914520263672 110.27337646484376 122.13371276855467 108.86859130859376 123.1742706298828 108.50436401367188 123.6425323486328 108.71246337890624 124.52703857421876 112.77069091796876 123.0181884765625 118.20770263671876 120.91105651855467 125.51776123046876 117.65925598144533 133.087890625 114.66757202148438 139.9296875 112.352294921875 145.3406982421875 110.4012451171875 147.473876953125 109.67282104492188 149.294921875 109.1525421142578 151.323974609375 108.81434631347656 154.41973876953125 110.63536071777344 155.85052490234375 111.7799835205078 155.85052490234375 111.7799835205078 " />
        <polyline stroke="black" stroke-width="3" stroke-linecap="round" fill="transparent" stroke-linejoin="round" points="88.52536010742188 154.1833953857422 95.67929077148438 161.9356689453125 101.142333984375 167.42469787597656 104.44613647460938 170.62448120117188 105.9549560546875 171.8211212158203 107.69790649414063 172.367431640625 107.69790649414063 172.367431640625 " />
        <polyline stroke="black" stroke-width="3" stroke-linecap="round" fill="transparent" stroke-linejoin="round" points="95.21102905273438 155.6141815185547 107.95806884765624 148.53826904296875 125.49176025390624 141.8005828857422 142.66122436523438 137.74232482910156 154.00347900390625 136.1814422607422 160.19488525390625 135.4790802001953 162.9263916015625 135.68719482421875 163.7589111328125 136.3635711669922 161.62567138671875 140.13563537597656 156.9171142578125 145.20843505859375 150.82974243164063 150.67147827148438 144.6123046875 155.9783935546875 134.6748046875 161.23329162597656 124.86737060546876 166.01991271972656 118.85806274414063 169.45382690429688 112.874755859375 171.79510498046875 107.48980712890624 173.74618530273438 104.44613647460938 174.81277465820313 103.11941528320313 175.35906982421875 102.59909057617188 175.5672149658203 101.50650024414063 175.95741271972656 101.32440185546876 176.0874786376953 103.95184326171876 175.35906982421875 109.59695434570313 173.35598754882813 115.84039306640624 171.1707763671875 124.03494262695313 167.65882873535156 133.53021240234375 165.36956787109375 142.036865234375 161.72756958007813 147.57797241210938 159.6464080810547 150.59564208984375 158.4497528076172 155.0440673828125 157.07098388671875 157.4373779296875 156.5507049560547 158.03570556640625 156.3946533203125 159.96075439453125 156.1604766845703 160.79327392578125 156.2125244140625 160.79327392578125 156.2125244140625 " />
        <polyline stroke="black" stroke-width="3" stroke-linecap="round" fill="transparent" stroke-linejoin="round" points="117.21920776367188 62.45677185058594 121.25140380859376 73.01858520507813 120.3929443359375 91.35871887207033 120.86117553710938 117.16496276855467 120.939208984375 145.20843505859375 122.34402465820313 173.7982177734375 122.2659912109375 200.33285522460935 122.526123046875 221.690673828125 122.05789184570313 235.53033447265625 121.09530639648438 243.95895385742188 121.43353271484376 246.53436279296875 121.43353271484376 246.53436279296875 " />
        </svg>