<?xml version="1.0" standalone="no"?>
    <svg width="256" height="256" xmlns="http://www.w3.org/2000/svg" version="1.1">
    <polyline stroke="black" stroke-width="3" stroke-linecap="round" fill="transparent" stroke-linejoin="round" points="91.94526167944969 130.85486787633437 89.46717860030049 130.57952531198447 88.64115090725079 130.57952531198447 92.77128937249944 129.2028124902349 102.40827912474634 126.17404428238586 119.7548606787908 120.94253555973754 138.47815505458482 116.53705453013896 152.79596840078025 113.50828632228992 161.88227302432733 112.13157350054036 165.73706892522603 111.85623093619046 165.73706892522603 112.40691606489028 161.88227302432733 115.43568427273932 161.88227302432733 115.43568427273932 " />
        <polyline stroke="black" stroke-width="3" stroke-linecap="round" fill="transparent" stroke-linejoin="round" points="108.1904729760945 140.49185762858127 107.08910271869485 139.39048737118162 107.08910271869485 139.66582993553155 109.01650066914424 141.59322788598092 110.3932134908938 144.89733865817988 112.04526887699323 149.30281968777845 112.871296570043 154.25898584607688 113.42198169874284 157.01241148957598 113.42198169874284 157.8384391826257 113.1466391343929 157.5630966182758 113.1466391343929 155.3603561034765 113.1466391343929 152.05624533127758 112.5959540056931 148.47679199472873 112.5959540056931 144.89733865817988 112.871296570043 141.31788532163102 116.17540734224195 138.289117113782 122.5082863222899 135.26034890593297 131.04390581713716 133.05760839113367 138.47815505458482 132.50692326243384 142.88363608418337 133.6082935198335 145.08637659898267 136.0863765989827 144.53569147028287 139.94117249988145 141.50692326243382 143.79596840078025 137.10144223283527 147.10007917297915 132.42061863888676 150.1288473808282 128.01513760928816 152.6069304599774 128.01513760928816 152.6069304599774 " />
        <polyline stroke="black" stroke-width="3" stroke-linecap="round" fill="transparent" stroke-linejoin="round" points="119.20417555009097 158.93980944002536 119.20417555009097 158.11378174697563 120.3055458074906 157.5630966182758 123.88499914403944 156.18638379652626 129.1165078666878 154.25898584607688 134.62335915368607 152.33158789562748 138.75349761893472 152.33158789562748 138.75349761893472 152.33158789562748 " />
        <polyline stroke="black" stroke-width="3" stroke-linecap="round" fill="transparent" stroke-linejoin="round" points="102.40827912474634 185.097353053267 100.7562237386469 184.27132536021725 100.7562237386469 185.097353053267 101.85759399604656 187.8507786967661 103.509649382146 191.9809171620148 105.1617047682455 196.11105562726345 106.26307502564516 199.4151663994624 106.53841758999503 200.79187922121196 106.53841758999503 200.79187922121196 " />
        <polyline stroke="black" stroke-width="3" stroke-linecap="round" fill="transparent" stroke-linejoin="round" points="104.88636220389554 183.1699551028176 105.4370473325954 181.51789971671815 108.1904729760945 177.9384463801693 115.6247222135421 173.2576227862208 124.9863694014391 168.8521417566222 135.17404428238586 165.54803098442326 143.98500634158302 164.17131816267369 150.59322788598092 164.7220032913735 154.17268122252983 166.9247438061728 155.27405147992943 169.67816944967194 155.54939404427932 172.98228022187087 153.89733865817982 176.56173355841972 151.14391301468072 179.31515920191885 147.56445967813187 182.8946125384677 142.60829351983347 186.47406587501655 141.50692326243382 187.5754361324162 141.50692326243382 187.5754361324162 " />
        <polyline stroke="black" stroke-width="3" stroke-linecap="round" fill="transparent" stroke-linejoin="round" points="112.04526887699323 197.487768449013 110.94389861959364 196.38639819161335 111.21924118394357 195.2850279342137 115.3493796491922 193.35762998376435 122.5082863222899 190.3288617759153 131.594590945837 187.5754361324162 139.0288401832846 185.097353053267 143.70966377723312 183.1699551028176 145.08637659898267 181.79324228106805 145.08637659898267 181.79324228106805 " />
        <polyline stroke="black" stroke-width="3" stroke-linecap="round" fill="transparent" stroke-linejoin="round" points="125.53705453013896 126.72472941108568 125.53705453013896 126.17404428238586 124.9863694014391 125.0726740249862 125.53705453013896 126.4493868467358 127.73979504493826 134.43432121288322 129.94253555973756 154.25898584607688 132.42061863888676 180.96721458801832 135.17404428238586 203.54530486471103 136.5507571041354 221.44257154745532 137.10144223283527 234.10832950755128 137.10144223283527 240.7165510519492 137.10144223283527 240.7165510519492 " />
        </svg>