<?xml version="1.0" standalone="no"?>
    <svg width="256" height="256" xmlns="http://www.w3.org/2000/svg" version="1.1">
    <polyline stroke="black" stroke-width="3" stroke-linecap="round" fill="transparent" stroke-linejoin="round" points="55.25262451171875 106.76593017578124 63.226287841796875 100.47093200683594 69.521240234375 96.69393920898438 82.53094482421875 89.55960083007813 89.24560546875 85.78260803222656 96.37994384765624 82.005615234375 108.13058471679688 75.71060180664063 115.6845703125 71.93360900878906 120.7205810546875 70.67462158203125 120.7205810546875 70.67462158203125 " />
        <polyline stroke="black" stroke-width="3" stroke-linecap="round" fill="transparent" stroke-linejoin="round" points="55.25262451171875 147.89324951171875 70.360595703125 135.3032684326172 76.23593139648438 131.52627563476563 81.69158935546875 127.749267578125 96.37994384765624 119.35592651367188 104.77328491210938 115.99859619140624 109.80926513671876 114.31993103027344 111.90756225585938 114.31993103027344 111.90756225585938 114.31993103027344 " />
        <polyline stroke="black" stroke-width="3" stroke-linecap="round" fill="transparent" stroke-linejoin="round" points="58.609954833984375 171.81423950195313 71.61959838867188 168.0372314453125 77.49496459960938 165.93890380859375 83.78997802734375 163.840576171875 102.6749267578125 156.28659057617188 116.104248046875 146.21458435058594 124.077880859375 135.3032684326172 127.85491943359376 127.749267578125 127.85491943359376 127.749267578125 " />
        <polyline stroke="black" stroke-width="3" stroke-linecap="round" fill="transparent" stroke-linejoin="round" points="98.478271484375 52.62895202636719 96.799560546875 64.79928588867188 95.12094116210938 87.04159545898438 93.0225830078125 118.51658630371094 90.0849609375 153.34890747070313 88.825927734375 168.45689392089844 85.88827514648438 196.1549072265625 82.95062255859375 220.07589721679688 82.95062255859375 220.07589721679688 " />
        <polyline stroke="black" stroke-width="3" stroke-linecap="round" fill="transparent" stroke-linejoin="round" points="130.37289428710938 53.468284606933594 143.382568359375 73.19261169433594 146.32025146484375 79.90727233886719 149.25790405273438 86.2022705078125 151.77587890625 92.07760620117188 156.39227294921875 99.631591796875 156.39227294921875 99.631591796875 " />
        <polyline stroke="black" stroke-width="3" stroke-linecap="round" fill="transparent" stroke-linejoin="round" points="186.6082763671875 43.39628601074219 179.8935546875 69.41561889648438 174.43792724609375 87.04159545898438 168.5626220703125 105.92660522460938 155.13323974609375 143.27691650390625 148.41854858398438 159.2242431640625 133.310546875 194.47622680664065 127.01556396484376 206.22689819335935 123.23858642578124 211.26287841796875 123.23858642578124 211.26287841796875 " />
        <polyline stroke="black" stroke-width="3" stroke-linecap="round" fill="transparent" stroke-linejoin="round" points="125.3369140625 131.10659790039063 135.82858276367188 123.97227478027344 140.86459350585938 121.03459167480467 147.15960693359375 118.51658630371094 160.16925048828125 114.73959350585938 171.500244140625 114.31993103027344 180.73291015625 116.83792114257813 187.44757080078125 123.55259704589844 194.1622314453125 142.85726928710938 195.8409423828125 169.71591186523438 192.48358154296875 193.21722412109375 188.286865234375 207.48590087890625 185.7689208984375 212.10223388671875 179.8935546875 216.71856689453125 168.5626220703125 216.29888916015625 161.42822265625 212.5218811035156 161.42822265625 212.5218811035156 " />
        </svg>