<?xml version="1.0" standalone="no"?>
    <svg width="256" height="256" xmlns="http://www.w3.org/2000/svg" version="1.1">
    <polyline stroke="black" stroke-width="3" stroke-linecap="round" fill="transparent" stroke-linejoin="round" points="63.85009765625 89.62901306152344 74.868896484375 85.22149658203125 88.64239501953125 80.26304626464844 102.966796875 75.30459594726563 115.638427734375 70.34613037109375 123.90249633789063 67.04049682617188 127.75909423828124 66.48956298828125 127.75909423828124 66.48956298828125 " />
        <polyline stroke="black" stroke-width="3" stroke-linecap="round" fill="transparent" stroke-linejoin="round" points="58.3406982421875 134.25511169433594 68.80856323242188 130.39852905273438 80.3782958984375 127.64382934570313 94.15176391601563 124.33819580078124 107.92526245117188 122.13444519042967 117.8421630859375 119.93067932128906 123.3515625 119.93067932128906 123.3515625 119.93067932128906 " />
        <polyline stroke="black" stroke-width="3" stroke-linecap="round" fill="transparent" stroke-linejoin="round" points="47.3218994140625 179.43214416503906 55.035064697265625 175.02462768554688 67.15573120117188 170.06617736816406 84.78579711914063 164.00584411621094 102.966796875 157.9455108642578 118.94403076171876 152.4361114501953 131.064697265625 146.3757781982422 136.5740966796875 138.66262817382813 139.8797607421875 121.58349609375 139.8797607421875 121.58349609375 " />
        <polyline stroke="black" stroke-width="3" stroke-linecap="round" fill="transparent" stroke-linejoin="round" points="94.70269775390624 40.59540557861328 95.253662109375 62.08204650878906 96.35552978515624 102.8515625 96.35552978515624 130.39852905273438 95.80459594726563 161.8020782470703 94.70269775390624 180.53402709960935 94.15176391601563 196.51126098632813 95.80459594726563 206.9791259765625 95.80459594726563 206.9791259765625 " />
        <polyline stroke="black" stroke-width="3" stroke-linecap="round" fill="transparent" stroke-linejoin="round" points="143.18536376953125 40.59540557861328 149.2457275390625 47.75761413574219 156.407958984375 58.2254638671875 163.0191650390625 67.5914306640625 167.9776611328125 74.75364685058594 172.93609619140625 78.6102294921875 177.89453125 78.6102294921875 177.89453125 78.6102294921875 " />
        <polyline stroke="black" stroke-width="3" stroke-linecap="round" fill="transparent" stroke-linejoin="round" points="193.871826171875 35.08600616455078 193.32086181640625 45.553855895996094 188.3624267578125 78.6102294921875 178.9964599609375 113.31941223144533 169.07952880859375 145.82484436035156 161.36639404296875 170.06617736816406 154.20416259765625 187.69622802734375 147.04196166992188 203.67349243164065 147.04196166992188 203.67349243164065 " />
        <polyline stroke="black" stroke-width="3" stroke-linecap="round" fill="transparent" stroke-linejoin="round" points="134.92129516601563 108.3609619140625 141.53256225585938 102.30062866210938 152.00042724609375 97.3421630859375 164.6719970703125 92.93464660644533 178.9964599609375 90.17994689941406 192.7698974609375 90.73089599609376 204.890625 95.68934631347656 213.70562744140625 106.15719604492188 220.31689453125 125.9910125732422 220.8677978515625 154.63986206054688 217.56219482421875 172.82086181640625 212.603759765625 186.5943603515625 207.645263671875 192.6546936035156 198.83026123046875 195.9603271484375 187.260498046875 191.0018615722656 175.6907958984375 177.22837829589844 175.6907958984375 177.22837829589844 " />
        </svg>