<?xml version="1.0" standalone="no"?>
    <svg width="256" height="256" xmlns="http://www.w3.org/2000/svg" version="1.1">
    <polyline stroke="black" stroke-width="3" stroke-linecap="round" fill="transparent" stroke-linejoin="round" points="61.09539794921875 94.03652954101563 75.41983032226563 85.22149658203125 86.4385986328125 78.6102294921875 99.1102294921875 71.99894714355469 109.57806396484376 65.93861389160156 116.1893310546875 62.08204650878906 120.59686279296876 60.429229736328125 120.59686279296876 60.429229736328125 " />
        <polyline stroke="black" stroke-width="3" stroke-linecap="round" fill="transparent" stroke-linejoin="round" points="63.85009765625 136.4588623046875 80.3782958984375 127.64382934570313 91.947998046875 122.13444519042967 104.06866455078124 116.07411193847656 112.88372802734376 112.76846313476563 118.94403076171876 111.11564636230467 118.94403076171876 111.11564636230467 " />
        <polyline stroke="black" stroke-width="3" stroke-linecap="round" fill="transparent" stroke-linejoin="round" points="50.6275634765625 175.02462768554688 64.95196533203125 168.96429443359375 77.62359619140625 165.1077117919922 91.947998046875 160.7001953125 105.72149658203124 155.7417449951172 117.29122924804688 149.68141174316406 124.45343017578124 141.96826171875 129.41189575195313 130.39852905273438 131.064697265625 118.27786254882813 131.064697265625 118.27786254882813 " />
        <polyline stroke="black" stroke-width="3" stroke-linecap="round" fill="transparent" stroke-linejoin="round" points="86.98956298828125 41.146339416503906 86.98956298828125 54.919830322265625 88.0914306640625 85.22149658203125 89.19329833984375 110.01377868652344 90.84613037109376 142.51919555664063 93.04989624023438 167.86241149902344 95.253662109375 189.34906005859375 97.4573974609375 205.3262939453125 100.7630615234375 214.6922607421875 104.06866455078124 218.548828125 104.06866455078124 218.548828125 " />
        <polyline stroke="black" stroke-width="3" stroke-linecap="round" fill="transparent" stroke-linejoin="round" points="128.30999755859375 54.368896484375 138.2269287109375 59.32734680175781 145.38916015625 65.38768005371094 152.55133056640625 71.44801330566406 160.2645263671875 75.85552978515625 167.42669677734375 76.95741271972656 167.42669677734375 76.95741271972656 " />
        <polyline stroke="black" stroke-width="3" stroke-linecap="round" fill="transparent" stroke-linejoin="round" points="176.79266357421875 20.210647583007813 176.24176025390625 32.33131408691406 171.834228515625 62.08204650878906 164.6719970703125 106.7081298828125 155.85699462890625 146.3757781982422 148.14382934570313 177.77932739257813 142.08349609375 201.4697265625 138.2269287109375 216.3450927734375 134.92129516601563 225.7110595703125 134.92129516601563 225.7110595703125 " />
        <polyline stroke="black" stroke-width="3" stroke-linecap="round" fill="transparent" stroke-linejoin="round" points="129.96282958984375 102.8515625 144.28726196289063 94.03652954101563 155.3060302734375 90.17994689941406 167.9776611328125 87.42526245117188 180.6492919921875 86.87431335449219 193.871826171875 90.17994689941406 205.4415283203125 97.8931121826172 215.909423828125 113.31941223144533 222.5206298828125 138.66262817382813 222.5206298828125 161.8020782470703 219.21502685546875 178.33026123046875 214.256591796875 189.8999938964844 208.7471923828125 196.51126098632813 199.3812255859375 201.4697265625 186.7095947265625 203.67349243164065 175.6907958984375 203.12252807617188 175.6907958984375 203.12252807617188 " />
        </svg>