<?xml version="1.0" standalone="no"?>
    <svg width="256" height="256" xmlns="http://www.w3.org/2000/svg" version="1.1">
    <polyline stroke="black" stroke-width="3" stroke-linecap="round" fill="transparent" stroke-linejoin="round" points="39.804168701171875 87.09262084960938 51.79376220703125 82.02009582519531 60.555389404296875 78.33099365234375 69.77813720703125 74.64189147949219 79.00091552734375 70.95278930664063 105.28573608398438 61.73002624511719 118.65878295898438 58.040924072265625 123.2701416015625 57.11865234375 123.2701416015625 57.11865234375 " />
        <polyline stroke="black" stroke-width="3" stroke-linecap="round" fill="transparent" stroke-linejoin="round" points="48.10467529296875 132.28414916992188 62.39990234375 128.59503173828125 69.77813720703125 126.28936767578124 78.07861328125 123.98367309570313 102.05780029296876 116.14431762695313 103.44125366210938 115.68316650390624 102.98007202148438 117.52774047851563 102.98007202148438 117.52774047851563 " />
        <polyline stroke="black" stroke-width="3" stroke-linecap="round" fill="transparent" stroke-linejoin="round" points="44.41552734375 159.95242309570313 61.938812255859375 159.0301513671875 83.151123046875 154.87991333007813 105.74691772460938 148.88511657714844 117.73651123046876 142.42918395996094 117.73651123046876 142.42918395996094 " />
        <polyline stroke="black" stroke-width="3" stroke-linecap="round" fill="transparent" stroke-linejoin="round" points="89.60711669921875 57.11865234375 82.69003295898438 96.31536865234376 79.92318725585938 117.06658935546876 77.61749267578125 138.2789306640625 75.77294921875 153.9576416015625 75.311767578125 179.78135681152344 76.6951904296875 192.23208618164065 77.61749267578125 194.53778076171875 77.61749267578125 194.53778076171875 " />
        <polyline stroke="black" stroke-width="3" stroke-linecap="round" fill="transparent" stroke-linejoin="round" points="128.80380249023438 65.88027954101563 136.64315795898438 78.79212951660156 139.87109375 83.40351867675781 143.09906005859375 87.09262084960938 146.3270263671875 90.32058715820313 150.477294921875 93.08741760253906 150.477294921875 93.08741760253906 " />
        <polyline stroke="black" stroke-width="3" stroke-linecap="round" fill="transparent" stroke-linejoin="round" points="203.96929931640625 34.98402404785156 176.301025390625 91.70399475097656 163.38916015625 116.60546875 141.2545166015625 158.5690155029297 126.959228515625 184.39276123046875 119.119873046875 195.92120361328125 116.814208984375 199.149169921875 116.814208984375 199.149169921875 " />
        <polyline stroke="black" stroke-width="3" stroke-linecap="round" fill="transparent" stroke-linejoin="round" points="118.65878295898438 129.97845458984375 131.57064819335938 123.06138610839844 139.41000366210938 120.2945556640625 157.85546875 115.2220458984375 175.83984375 113.838623046875 190.13519287109375 118.4499969482422 195.6688232421875 123.52252197265624 207.65838623046875 146.1182861328125 211.80865478515625 171.4808807373047 209.5029296875 189.46527099609375 203.5081787109375 199.61029052734375 193.3631591796875 206.06622314453125 170.3062744140625 207.44964599609375 170.3062744140625 207.44964599609375 " />
        </svg>