<?xml version="1.0" standalone="no"?>
    <svg width="256" height="256" xmlns="http://www.w3.org/2000/svg" version="1.1">
    <polyline stroke="black" stroke-width="3" stroke-linecap="round" fill="transparent" stroke-linejoin="round" points="74.8978271484375 86.20668029785156 92.01254272460938 77.44061279296875 109.12728881835938 71.17913818359375 127.91171264648438 66.16995239257813 146.2786865234375 62.41307067871094 163.3934326171875 60.32591247558594 178.83837890625 59.49104309082031 190.94390869140625 58.238739013671875 197.622802734375 57.40388488769531 197.622802734375 57.40388488769531 " />
        <polyline stroke="black" stroke-width="3" stroke-linecap="round" fill="transparent" stroke-linejoin="round" points="168.82000732421875 41.12403869628906 160.053955078125 57.40388488769531 156.29705810546875 67.4222412109375 152.12274169921875 78.69290161132813 147.531005859375 92.46817016601563 139.18234252929688 117.93150329589844 131.66854858398438 140.4728240966797 124.57223510742188 161.7618408203125 117.893310546875 180.96371459960935 109.12728881835938 200.5830078125 104.53549194335938 212.2711181640625 101.61349487304688 219.78488159179688 101.61349487304688 219.78488159179688 " />
        <polyline stroke="black" stroke-width="3" stroke-linecap="round" fill="transparent" stroke-linejoin="round" points="112.46673583984376 89.96359252929688 103.70062255859376 105.40855407714844 99.52630615234376 112.08746337890624 85.75106811523438 134.6287841796875 76.56756591796875 147.1517333984375 71.975830078125 153.4132080078125 63.209716796875 163.8489990234375 54.861083984375 171.78021240234375 54.861083984375 171.78021240234375 " />
        <polyline stroke="black" stroke-width="3" stroke-linecap="round" fill="transparent" stroke-linejoin="round" points="49.43450927734375 116.67919921875 62.3748779296875 119.60124206542967 70.7235107421875 122.10581970214844 106.20526123046876 136.7159423828125 119.98046875 142.9774169921875 145.86126708984375 157.5875244140625 168.82000732421875 172.19766235351563 186.76959228515625 187.2252197265625 195.953125 194.73898315429688 195.953125 194.73898315429688 " />
        </svg>