<?xml version="1.0" standalone="no"?>
    <svg width="256" height="256" xmlns="http://www.w3.org/2000/svg" version="1.1">
    <polyline stroke="black" stroke-width="3" stroke-linecap="round" fill="transparent" stroke-linejoin="round" points="58.43072509765625 92.91757202148438 88.58837890625 85.79702758789063 99.05978393554688 83.28387451171875 121.2591552734375 79.51417541503906 142.62081909179688 76.163330078125 160.63165283203125 73.65017700195313 175.2916259765625 69.46162414550781 180.73675537109375 66.948486328125 180.73675537109375 66.948486328125 " />
        <polyline stroke="black" stroke-width="3" stroke-linecap="round" fill="transparent" stroke-linejoin="round" points="152.67333984375 26.73828125 147.6470947265625 43.91139221191406 143.45855712890625 57.733642578125 137.17572021484375 77.8387451171875 122.51571655273438 122.6563720703125 105.761474609375 164.5419921875 91.52035522460938 196.7939453125 81.0489501953125 218.574462890625 74.34725952148438 229.88357543945313 71.415283203125 234.49099731445313 71.415283203125 234.49099731445313 " />
        <polyline stroke="black" stroke-width="3" stroke-linecap="round" fill="transparent" stroke-linejoin="round" points="97.38436889648438 103.38900756835938 86.0751953125 118.88665771484376 77.27923583984375 131.03350830078125 68.06439208984375 142.34263610839844 44.60845947265625 166.2174072265625 44.60845947265625 166.2174072265625 " />
        <polyline stroke="black" stroke-width="3" stroke-linecap="round" fill="transparent" stroke-linejoin="round" points="61.781585693359375 129.3580780029297 91.52035522460938 134.38433837890625 116.23287963867188 140.66717529296875 139.68881225585938 149.88201904296875 161.88818359375 161.61001586914063 180.73675537109375 176.26995849609375 190.789306640625 185.48480224609375 190.789306640625 185.48480224609375 " />
        </svg>