<?xml version="1.0" standalone="no"?>
    <svg width="256" height="256" xmlns="http://www.w3.org/2000/svg" version="1.1">
    <polyline stroke="black" stroke-width="3" stroke-linecap="round" fill="transparent" stroke-linejoin="round" points="48.035888671875 143.66653442382813 64.9935302734375 127.14369201660156 81.51638793945313 111.92527770996094 96.73477172851563 96.70687866210938 109.34429931640624 77.14036560058594 109.34429931640624 77.14036560058594 " />
        <polyline stroke="black" stroke-width="3" stroke-linecap="round" fill="transparent" stroke-linejoin="round" points="66.73275756835938 133.66586303710938 61.515045166015625 181.9299468994141 61.080169677734375 222.367431640625 60.645416259765625 243.6732177734375 59.3409423828125 250.19534301757813 56.732086181640625 248.89093017578125 48.47064208984375 224.10665893554688 42.383331298828125 196.2787170410156 44.12255859375 178.01663208007813 46.731414794921875 167.58116149902344 50.644744873046875 163.6678466796875 59.775787353515625 161.49380493164063 71.51571655273438 165.4071044921875 84.125244140625 174.5381317138672 97.6043701171875 185.40841674804688 108.03985595703124 192.36541748046875 108.03985595703124 192.36541748046875 " />
        <polyline stroke="black" stroke-width="3" stroke-linecap="round" fill="transparent" stroke-linejoin="round" points="104.99618530273438 101.9246063232422 98.9088134765625 120.62150573730467 97.16958618164063 126.7088623046875 95.86514282226563 129.75254821777344 95.43032836914063 125.40443420410156 100.64804077148438 109.31640625 108.47467041015624 95.83726501464844 122.82345581054688 80.61885070800781 144.1292724609375 64.53082275390625 164.13055419921875 53.66053771972656 184.56671142578125 44.96430206298828 201.95916748046875 38.44212341308594 211.95977783203125 36.70288848876953 214.13385009765625 37.1376953125 212.39459228515625 44.96430206298828 200.65472412109375 66.27008056640625 184.1318359375 94.09800720214844 163.26092529296875 123.23037719726563 152.390625 131.92662048339844 152.390625 131.92662048339844 " />
        <polyline stroke="black" stroke-width="3" stroke-linecap="round" fill="transparent" stroke-linejoin="round" points="130.21524047851563 143.66653442382813 157.6083984375 131.49180603027344 185.00146484375 121.05632019042967 201.52435302734375 115.40377807617188 213.26422119140625 111.92527770996094 217.17755126953125 109.31640625 217.17755126953125 109.31640625 " />
        <polyline stroke="black" stroke-width="3" stroke-linecap="round" fill="transparent" stroke-linejoin="round" points="126.30191040039063 124.53480529785156 120.21456909179688 177.5818328857422 121.95382690429688 223.67181396484375 122.82345581054688 248.89093017578125 122.82345581054688 254.54345703125 122.82345581054688 254.54345703125 " />
        <polyline stroke="black" stroke-width="3" stroke-linecap="round" fill="transparent" stroke-linejoin="round" points="174.5660400390625 141.05764770507813 178.47930908203125 193.66986083984375 181.08819580078125 234.1073303222656 182.392578125 251.93460083007813 182.392578125 260.6308288574219 181.95782470703125 264.10931396484375 181.95782470703125 264.10931396484375 " />
        </svg>