<?xml version="1.0" standalone="no"?>
    <svg width="256" height="256" xmlns="http://www.w3.org/2000/svg" version="1.1">
    <polyline stroke="black" stroke-width="3" stroke-linecap="round" fill="transparent" stroke-linejoin="round" points="58.1739501953125 113.3066864013672 71.0283203125 107.79766845703124 86.3311767578125 101.06442260742188 102.24612426757813 94.3311767578125 116.93682861328124 86.98580932617188 125.50640869140624 79.02833557128906 125.50640869140624 79.02833557128906 " />
        <polyline stroke="black" stroke-width="3" stroke-linecap="round" fill="transparent" stroke-linejoin="round" points="99.185546875 75.9677734375 90.615966796875 104.12498474121094 77.14947509765625 152.48194885253906 69.1920166015625 181.2512664794922 64.29510498046875 196.5541076660156 61.234527587890625 206.34793090820313 59.398193359375 210.0205993652344 59.398193359375 206.34793090820313 59.398193359375 206.34793090820313 " />
        <polyline stroke="black" stroke-width="3" stroke-linecap="round" fill="transparent" stroke-linejoin="round" points="95.51287841796876 134.11854553222656 102.24612426757813 149.42137145996094 108.9793701171875 164.72421264648438 115.10049438476563 175.74224853515625 119.99740600585938 180.63916015625 119.99740600585938 180.63916015625 " />
        <polyline stroke="black" stroke-width="3" stroke-linecap="round" fill="transparent" stroke-linejoin="round" points="135.30023193359375 91.27059936523438 137.74868774414063 100.45230102539063 137.1365966796875 109.02189636230467 137.1365966796875 109.02189636230467 " />
        <polyline stroke="black" stroke-width="3" stroke-linecap="round" fill="transparent" stroke-linejoin="round" points="151.8272705078125 63.11338806152344 164.68170166015625 55.768035888671875 179.9844970703125 48.42266845703125 196.5115966796875 42.91365051269531 211.814453125 39.85308074951172 222.2203369140625 40.46519470214844 233.2384033203125 49.03478240966797 233.8504638671875 68.62240600585938 222.83245849609375 101.06442260742188 209.365966796875 120.6520538330078 209.365966796875 120.6520538330078 " />
        <polyline stroke="black" stroke-width="3" stroke-linecap="round" fill="transparent" stroke-linejoin="round" points="143.86981201171875 154.3182830810547 156.7242431640625 149.42137145996094 172.02703857421875 143.3002471923828 188.5540771484375 134.73065185546875 201.408447265625 126.16107177734376 210.5902099609375 116.36724853515624 210.5902099609375 116.36724853515624 " />
        <polyline stroke="black" stroke-width="3" stroke-linecap="round" fill="transparent" stroke-linejoin="round" points="165.9058837890625 117.59147644042967 163.45745849609375 134.11854553222656 159.17266845703125 167.17266845703125 154.88787841796875 191.65719604492188 152.439453125 210.0205993652344 148.7667236328125 222.26287841796875 145.7061767578125 228.38400268554688 145.7061767578125 228.38400268554688 " />
        <polyline stroke="black" stroke-width="3" stroke-linecap="round" fill="transparent" stroke-linejoin="round" points="192.226806640625 104.7371063232422 191.61468505859375 120.6520538330078 191.61468505859375 145.13658142089844 192.226806640625 163.49998474121094 192.8388671875 180.02703857421875 194.0631103515625 202.67523193359375 194.0631103515625 202.67523193359375 " />
        </svg>