<?xml version="1.0" standalone="no"?>
    <svg width="256" height="256" xmlns="http://www.w3.org/2000/svg" version="1.1">
    <polyline stroke="black" stroke-width="3" stroke-linecap="round" fill="transparent" stroke-linejoin="round" points="53 102 68 97 87 90 105 84 120 80 124 78 124 78 " />
        <polyline stroke="black" stroke-width="3" stroke-linecap="round" fill="transparent" stroke-linejoin="round" points="92 61 92 70 88 88 82 113 74 144 66 170 58 189 51 199 49 200 49 200 " />
        <polyline stroke="black" stroke-width="3" stroke-linecap="round" fill="transparent" stroke-linejoin="round" points="79 135 79 140 89 151 102 162 116 173 123 178 123 178 " />
        <polyline stroke="black" stroke-width="3" stroke-linecap="round" fill="transparent" stroke-linejoin="round" points="133 65 132 76 130 89 130 103 130 112 130 113 130 113 " />
        <polyline stroke="black" stroke-width="3" stroke-linecap="round" fill="transparent" stroke-linejoin="round" points="145 62 152 61 173 56 192 54 212 54 225 54 229 57 229 62 221 75 211 83 211 83 " />
        <polyline stroke="black" stroke-width="3" stroke-linecap="round" fill="transparent" stroke-linejoin="round" points="157 117 157 124 157 140 151 167 141 189 134 203 130 209 129 210 129 210 " />
        <polyline stroke="black" stroke-width="3" stroke-linecap="round" fill="transparent" stroke-linejoin="round" points="187 121 187 137 183 157 178 179 174 195 170 206 168 207 168 207 " />
        <polyline stroke="black" stroke-width="3" stroke-linecap="round" fill="transparent" stroke-linejoin="round" points="116 144 135 144 156 144 182 144 203 144 225 149 225 149 " />
        </svg>