<?xml version="1.0" standalone="no"?>
    <svg width="256" height="256" xmlns="http://www.w3.org/2000/svg" version="1.1">
    <polyline stroke="black" stroke-width="3" stroke-linecap="round" fill="transparent" stroke-linejoin="round" points="53.01141357421875 105.70849609374997 54.46844482421875 106.64250183105467 55.92547607421875 107.57650756835938 " />
        <polyline stroke="black" stroke-width="3" stroke-linecap="round" fill="transparent" stroke-linejoin="round" points="104.61648559570313 65.00135803222656 94.239013671875 79.64149475097656 83.86154174804688 94.28163146972656 81.54476928710938 97.514404296875 " />
        <polyline stroke="black" stroke-width="3" stroke-linecap="round" fill="transparent" stroke-linejoin="round" points="61.64923095703125 130.32546997070313 72.69482421875 124.46560668945313 83.74041748046875 118.60574340820313 103.59091186523438 108.45291137695313 110.3177490234375 104.84088134765624 112.1387939453125 102.8677215576172 110.910888671875 103.30307006835938 " />
        <polyline stroke="black" stroke-width="3" stroke-linecap="round" fill="transparent" stroke-linejoin="round" points="76.18609619140625 34.72575378417969 72.66488647460938 82.08851623535156 69.1436767578125 129.45127868652344 65.87240600585938 154.05978393554688 57.419189453125 190.5674743652344 53.05230712890625 202.24755859375 48.4779052734375 211.46044921875 48.1409912109375 215.164306640625 48.1072998046875 215.53469848632813 " />
        <polyline stroke="black" stroke-width="3" stroke-linecap="round" fill="transparent" stroke-linejoin="round" points="94.94967651367188 184.016845703125 101.46566772460938 189.80078125 107.98165893554688 195.584716796875 115.93026733398438 204.07427978515625 116.68017578125 204.74545288085935 " />
        <polyline stroke="black" stroke-width="3" stroke-linecap="round" fill="transparent" stroke-linejoin="round" points="137.0299072265625 79.41961669921876 134.51214599609375 98.2369384765625 131.994384765625 117.05426025390624 128.8092041015625 135.75277709960938 125.47372436523438 153.06277465820313 117.99008178710938 178.90213012695313 114.62252807617188 186.29486083984375 114.59091186523438 184.525390625 " />
        <polyline stroke="black" stroke-width="3" stroke-linecap="round" fill="transparent" stroke-linejoin="round" points="139.1414794921875 152.90428161621094 151.258056640625 154.94078063964844 163.3746337890625 156.97727966308594 166.31304931640625 157.0519256591797 167.3123779296875 157.1422576904297 " />
        <polyline stroke="black" stroke-width="3" stroke-linecap="round" fill="transparent" stroke-linejoin="round" points="186.53338623046875 49.19276428222656 182.3721923828125 93.37588500976563 178.21099853515625 137.5590057373047 175.713623046875 159.7567596435547 172.82464599609375 180.61981201171875 166.846923828125 202.77618408203125 162.4346923828125 207.73638916015625 162.6478271484375 202.48394775390625 " />
        <polyline stroke="black" stroke-width="3" stroke-linecap="round" fill="transparent" stroke-linejoin="round" points="188.22625732421875 143.199462890625 201.1583251953125 166.24920654296875 214.09039306640625 189.2989501953125 219.6204833984375 204.7645568847656 223.76458740234375 220.1297607421875 224.122802734375 221.58035278320313 " />
        </svg>