<?xml version="1.0" standalone="no"?>
    <svg width="256" height="256" xmlns="http://www.w3.org/2000/svg" version="1.1">
    <polyline stroke="black" stroke-width="3" stroke-linecap="round" fill="transparent" stroke-linejoin="round" points="46.7027587890625 113.06481933593747 49.0439453125 119.35919189453124 51.3851318359375 125.653564453125 54.05035400390625 130.797119140625 57.768157958984375 134.36569213867188 58.0576171875 134.5481414794922 " />
        <polyline stroke="black" stroke-width="3" stroke-linecap="round" fill="transparent" stroke-linejoin="round" points="102.82830810546872 73.40045166015625 95.52032470703124 88.35726928710938 88.21234130859375 103.3140869140625 73.46966552734375 129.83677673339844 67.10455322265625 140.04165649414063 66.468017578125 141.06211853027344 " />
        <polyline stroke="black" stroke-width="3" stroke-linecap="round" fill="transparent" stroke-linejoin="round" points="66.06890869140625 138.89413452148438 74.89999389648438 131.17381286621094 83.7310791015625 123.4534912109375 103.124755859375 106.53103637695313 128.35092163085938 89.42428588867188 130.24569702148438 88.79515075683594 " />
        <polyline stroke="black" stroke-width="3" stroke-linecap="round" fill="transparent" stroke-linejoin="round" points="77.93011474609375 59.44990539550781 78.54208374023438 83.16366577148438 79.154052734375 106.87742614746094 76.29086303710938 156.71951293945313 69.69537353515625 196.6630859375 66.53558349609375 210.03839111328125 63.410980224609375 226.08187866210935 63.512451171875 229.45947265625 63.5225830078125 229.7972412109375 " />
        <polyline stroke="black" stroke-width="3" stroke-linecap="round" fill="transparent" stroke-linejoin="round" points="74.08279418945313 151.1295166015625 92.667724609375 172.62075805664063 111.25265502929688 194.11199951171875 119.81103515625 205.65771484375 128.854736328125 219.86346435546875 128.945068359375 220.92599487304688 128.95138549804688 221.00018310546875 " />
        <polyline stroke="black" stroke-width="3" stroke-linecap="round" fill="transparent" stroke-linejoin="round" points="147.81332397460938 50.41801452636719 145.26998901367188 64.78181457519531 142.72665405273438 79.14561462402344 139.48934936523438 94.98883056640624 134.871826171875 113.64981079101563 126.29962158203124 147.1184539794922 122.59100341796876 163.14947509765625 118.60763549804688 183.81365966796875 118.4228515625 193.87603759765625 118.4451904296875 194.2564697265625 " />
        <polyline stroke="black" stroke-width="3" stroke-linecap="round" fill="transparent" stroke-linejoin="round" points="139.68115234375 146.82003784179688 147.17913818359375 154.1094970703125 154.6771240234375 161.39895629882813 167.74725341796875 176.31085205078125 171.64666748046875 181.745361328125 171.978271484375 183.01223754882813 171.99932861328125 183.09249877929688 " />
        <polyline stroke="black" stroke-width="3" stroke-linecap="round" fill="transparent" stroke-linejoin="round" points="185.96929931640625 69.08316040039064 184.855224609375 85.50157165527344 183.74114990234375 101.91998291015624 182.48004150390625 122.34439086914063 179.9554443359375 162.50198364257813 178.12353515625 179.97628784179688 175.2469482421875 199.01324462890625 173.603515625 203.72183227539065 169.977294921875 204.29412841796875 168.357666015625 204.07327270507813 168.20306396484375 204.05218505859375 " />
        <polyline stroke="black" stroke-width="3" stroke-linecap="round" fill="transparent" stroke-linejoin="round" points="173.89739990234375 138.94674682617188 189.189208984375 164.67625427246094 204.48101806640625 190.40576171875 218.4810791015625 220.255615234375 222.6392822265625 233.3477478027344 223.13153076171875 245.2073974609375 223.17010498046875 245.7227478027344 " />
        </svg>