<?xml version="1.0" standalone="no"?>
    <svg width="256" height="256" xmlns="http://www.w3.org/2000/svg" version="1.1">
    <polyline stroke="black" stroke-width="3" stroke-linecap="round" fill="transparent" stroke-linejoin="round" points="55.463653564453125 91.68887329101563 60.06964111328125 92.39749145507813 64.67562866210938 93.10610961914063 71.40740966796875 91.68887329101563 71.40740966796875 91.68887329101563 " />
        <polyline stroke="black" stroke-width="3" stroke-linecap="round" fill="transparent" stroke-linejoin="round" points="130.22198486328125 33.22856140136717 111.44384765625 63.69879150390625 92.66571044921876 94.16902160644533 72.47030639648438 121.4504852294922 55.46368408203125 139.52005004882813 55.46368408203125 139.52005004882813 " />
        <polyline stroke="black" stroke-width="3" stroke-linecap="round" fill="transparent" stroke-linejoin="round" points="9.404052734375 171.05319213867188 33.85107421875 154.75515747070313 58.298095703125 138.45712280273438 72.47030639648438 130.66241455078125 104.71209716796876 114.3643798828125 119.59286499023438 106.56968688964844 124.55316162109376 102.31802368164063 124.55316162109376 102.31802368164063 " />
        <polyline stroke="black" stroke-width="3" stroke-linecap="round" fill="transparent" stroke-linejoin="round" points="85.22531127929688 71.49348449707033 79.20211791992188 88.5001220703125 73.17892456054688 105.50675964355467 62.904052734375 143.06309509277344 55.817962646484375 172.82469177246094 51.56634521484375 193.02008056640625 49.7947998046875 202.23199462890625 49.7947998046875 203.64923095703125 49.7947998046875 203.64923095703125 " />
        <polyline stroke="black" stroke-width="3" stroke-linecap="round" fill="transparent" stroke-linejoin="round" points="61.841156005859375 177.07638549804688 77.07626342773438 184.1624755859375 92.31137084960938 191.24856567382813 108.255126953125 191.9571533203125 116.7584228515625 186.99688720703125 116.7584228515625 186.99688720703125 " />
        <polyline stroke="black" stroke-width="3" stroke-linecap="round" fill="transparent" stroke-linejoin="round" points="131.284912109375 76.45376586914063 125.61605834960938 97.35775756835938 119.94720458984376 118.26174926757813 115.34124755859376 137.3942108154297 108.255126953125 168.92735290527344 107.19219970703124 173.53330993652344 106.48358154296876 176.36773681640625 106.48358154296876 176.36773681640625 " />
        <polyline stroke="black" stroke-width="3" stroke-linecap="round" fill="transparent" stroke-linejoin="round" points="141.9140625 143.41738891601563 146.16574096679688 146.2518310546875 150.41741943359375 149.08627319335938 159.983642578125 151.21209716796875 168.1326904296875 147.3147430419922 168.1326904296875 147.3147430419922 " />
        <polyline stroke="black" stroke-width="3" stroke-linecap="round" fill="transparent" stroke-linejoin="round" points="197.18560791015625 51.298095703124986 187.619384765625 75.39083862304688 178.05316162109375 99.48358154296876 168.4869384765625 127.82797241210938 158.56640625 157.58958435058594 154.6690673828125 169.28164672851563 154.6690673828125 169.28164672851563 " />
        <polyline stroke="black" stroke-width="3" stroke-linecap="round" fill="transparent" stroke-linejoin="round" points="183.7220458984375 143.41738891601563 189.7452392578125 146.2518310546875 195.7684326171875 149.08627319335938 207.46044921875 156.17236328125 214.19232177734375 161.84124755859375 214.19232177734375 161.84124755859375 " />
        </svg>