<?xml version="1.0" standalone="no"?>
    <svg width="256" height="256" xmlns="http://www.w3.org/2000/svg" version="1.1">
    <polyline stroke="black" stroke-width="3" stroke-linecap="round" fill="transparent" stroke-linejoin="round" points="49.419403076171875 90.25372314453122 56.920623779296875 95.7091827392578 64.42184448242188 101.16464233398438 70.90020751953125 102.86944580078124 70.90020751953125 102.86944580078124 " />
        <polyline stroke="black" stroke-width="3" stroke-linecap="round" fill="transparent" stroke-linejoin="round" points="107.38351440429688 67.75003051757813 96.81356811523438 77.97898864746094 86.24362182617188 88.20794677734375 75.33273315429688 98.7778778076172 55.215789794921875 118.212890625 48.396484375 124.00930786132813 41.2362060546875 130.14669799804688 38.849456787109375 131.5105438232422 38.50848388671875 131.5105438232422 43.281982421875 129.4647674560547 55.556732177734375 125.03221130371094 74.99179077148438 119.23580932617188 96.13165283203124 112.07553100585938 111.47509765625 104.57427978515624 120.34017944335938 98.095947265625 123.40887451171876 94.34532165527344 123.40887451171876 94.34532165527344 " />
        <polyline stroke="black" stroke-width="3" stroke-linecap="round" fill="transparent" stroke-linejoin="round" points="93.40399169921875 40.131805419921875 89.31234741210938 51.724639892578125 85.220703125 63.317474365234375 81.129150390625 77.29705810546875 71.58212280273438 110.37069702148438 62.03509521484375 143.10337829589844 52.488037109375 175.83604431152344 48.396484375 188.792724609375 48.396484375 188.792724609375 " />
        <polyline stroke="black" stroke-width="3" stroke-linecap="round" fill="transparent" stroke-linejoin="round" points="64.76287841796875 144.46722412109375 68.85443115234375 146.85398864746094 72.94598388671875 149.24075317382813 77.719482421875 151.96847534179688 95.10873413085938 160.15164184570313 102.60995483398438 160.4925994873047 102.60995483398438 160.4925994873047 " />
        <polyline stroke="black" stroke-width="3" stroke-linecap="round" fill="transparent" stroke-linejoin="round" points="147.2763671875 61.612640380859375 143.184814453125 72.18257141113281 139.09326171875 82.75250244140625 135.00167846679688 94.34532165527344 130.91009521484375 107.64297485351563 127.15948486328124 119.917724609375 120.68115234375 144.1262664794922 117.61248779296876 162.53839111328125 117.61248779296876 162.53839111328125 " />
        <polyline stroke="black" stroke-width="3" stroke-linecap="round" fill="transparent" stroke-linejoin="round" points="145.91259765625 134.9202117919922 145.91259765625 134.9202117919922 145.91259765625 134.9202117919922 " />
        <polyline stroke="black" stroke-width="3" stroke-linecap="round" fill="transparent" stroke-linejoin="round" points="199.4442138671875 51.72465515136719 194.670654296875 63.317474365234375 189.8970947265625 74.91029357910156 184.78265380859375 88.54891967773438 179.3271484375 103.89236450195313 174.21270751953125 119.23580932617188 163.9837646484375 148.55882263183594 159.210205078125 162.53839111328125 149.32223510742188 188.11080932617188 149.32223510742188 188.11080932617188 " />
        <polyline stroke="black" stroke-width="3" stroke-linecap="round" fill="transparent" stroke-linejoin="round" points="188.533203125 127.75993347167969 193.647705078125 133.2153778076172 198.76220703125 138.6708221435547 218.197265625 167.6528778076172 224.33465576171875 178.90475463867188 224.33465576171875 178.90475463867188 " />
        </svg>