<?xml version="1.0" standalone="no"?>
    <svg width="256" height="256" xmlns="http://www.w3.org/2000/svg" version="1.1">
    <polyline stroke="black" stroke-width="3" stroke-linecap="round" fill="transparent" stroke-linejoin="round" points="42.75 116.25 50.25 130 57.75 143.75 65.25 155 66.5 153.75 67.75 147.5 72.75 122.5 72.75 122.5 " />
        <polyline stroke="black" stroke-width="3" stroke-linecap="round" fill="transparent" stroke-linejoin="round" points="112.75 68.75 107.75 85 102.75 101.25 95.25 123.75 95.25 123.75 " />
        <polyline stroke="black" stroke-width="3" stroke-linecap="round" fill="transparent" stroke-linejoin="round" points="22.75 200 44 181.25 65.25 162.5 86.5 143.75 102.75 128.75 112.75 121.25 117.75 117.5 119 115 119 115 " />
        <polyline stroke="black" stroke-width="3" stroke-linecap="round" fill="transparent" stroke-linejoin="round" points="85.25 62.5 87.75 96.25 90.25 130 89 163.75 84 190 76.5 211.25 67.75 226.25 59 237.5 57.75 238.75 57.75 238.75 " />
        <polyline stroke="black" stroke-width="3" stroke-linecap="round" fill="transparent" stroke-linejoin="round" points="104 180 109 181.25 114 182.5 119 185 121.5 187.5 122.75 187.5 121.5 185 121.5 185 " />
        <polyline stroke="black" stroke-width="3" stroke-linecap="round" fill="transparent" stroke-linejoin="round" points="144 82.5 142.75 90 141.5 97.5 140.25 106.25 132.75 147.5 126.5 172.5 121.5 188.75 112.75 201.25 112.75 201.25 " />
        <polyline stroke="black" stroke-width="3" stroke-linecap="round" fill="transparent" stroke-linejoin="round" points="141.5 163.75 146.5 166.25 151.5 168.75 162.75 175 164 176.25 165.25 176.25 164 175 161.5 166.25 161.5 166.25 " />
        <polyline stroke="black" stroke-width="3" stroke-linecap="round" fill="transparent" stroke-linejoin="round" points="189 43.75 186.5 71.25 184 98.75 172.75 143.75 164 168.75 155.25 183.75 146.5 192.5 141.5 195 141.5 195 " />
        <polyline stroke="black" stroke-width="3" stroke-linecap="round" fill="transparent" stroke-linejoin="round" points="172.75 152.5 189 158.75 205.25 165 220.25 173.75 231.5 180 237.75 185 241.5 188.75 241.5 190 240.25 191.25 240.25 191.25 " />
        </svg>