<?xml version="1.0" standalone="no"?>
    <svg width="256" height="256" xmlns="http://www.w3.org/2000/svg" version="1.1">
    <polyline stroke="black" stroke-width="3" stroke-linecap="round" fill="transparent" stroke-linejoin="round" points="45 91 47 99 49 107 51 111 56 120 62 129 65 133 65 133 " />
        <polyline stroke="black" stroke-width="3" stroke-linecap="round" fill="transparent" stroke-linejoin="round" points="103 81 102 85 101 89 95 99 87 109 80 118 76 122 76 122 " />
        <polyline stroke="black" stroke-width="3" stroke-linecap="round" fill="transparent" stroke-linejoin="round" points="24 151 32 148 40 145 52 142 65 138 69 136 80 131 85 129 85 129 " />
        <polyline stroke="black" stroke-width="3" stroke-linecap="round" fill="transparent" stroke-linejoin="round" points="77 90 77 97 77 104 74 124 64 157 61 168 55 185 50 199 47 208 47 208 " />
        <polyline stroke="black" stroke-width="3" stroke-linecap="round" fill="transparent" stroke-linejoin="round" points="83 161 85 163 87 165 95 173 99 176 108 181 108 181 " />
        <polyline stroke="black" stroke-width="3" stroke-linecap="round" fill="transparent" stroke-linejoin="round" points="162 66 157 82 152 98 146 117 138 139 131 161 127 177 124 189 124 189 " />
        <polyline stroke="black" stroke-width="3" stroke-linecap="round" fill="transparent" stroke-linejoin="round" points="141 142 143 144 145 146 147 148 152 155 159 162 162 165 162 165 " />
        <polyline stroke="black" stroke-width="3" stroke-linecap="round" fill="transparent" stroke-linejoin="round" points="207 58 202 76 197 94 189 122 181 150 177 164 171 185 169 192 169 192 " />
        <polyline stroke="black" stroke-width="3" stroke-linecap="round" fill="transparent" stroke-linejoin="round" points="181 150 185 151 189 152 197 156 203 159 215 166 220 171 225 176 225 176 " />
        </svg>