<?xml version="1.0" standalone="no"?>
    <svg width="256" height="256" xmlns="http://www.w3.org/2000/svg" version="1.1">
    <polyline stroke="black" stroke-width="3" stroke-linecap="round" fill="transparent" stroke-linejoin="round" points="40 118 42 118 44 118 51 122 56 124 56 124 " />
        <polyline stroke="black" stroke-width="3" stroke-linecap="round" fill="transparent" stroke-linejoin="round" points="115 88 107 99 99 110 85 123 71 137 71 137 " />
        <polyline stroke="black" stroke-width="3" stroke-linecap="round" fill="transparent" stroke-linejoin="round" points="51 142 58 139 65 136 79 128 93 121 105 116 112 114 115 113 115 113 " />
        <polyline stroke="black" stroke-width="3" stroke-linecap="round" fill="transparent" stroke-linejoin="round" points="83 78 83 84 83 90 83 120 83 142 83 157 83 179 83 198 83 211 83 217 83 218 83 218 " />
        <polyline stroke="black" stroke-width="3" stroke-linecap="round" fill="transparent" stroke-linejoin="round" points="71 133 66 146 61 159 58 166 54 174 51 184 50 188 50 191 50 191 " />
        <polyline stroke="black" stroke-width="3" stroke-linecap="round" fill="transparent" stroke-linejoin="round" points="89 160 93 162 97 164 105 170 115 173 115 173 " />
        <polyline stroke="black" stroke-width="3" stroke-linecap="round" fill="transparent" stroke-linejoin="round" points="118 116 118 121 118 126 118 134 117 155 115 179 110 199 106 217 106 222 106 222 " />
        <polyline stroke="black" stroke-width="3" stroke-linecap="round" fill="transparent" stroke-linejoin="round" points="120 161 122 165 124 169 131 178 140 188 149 197 158 204 162 205 162 205 " />
        <polyline stroke="black" stroke-width="3" stroke-linecap="round" fill="transparent" stroke-linejoin="round" points="176 63 174 91 172 119 167 150 165 166 162 189 161 204 159 207 159 207 " />
        <polyline stroke="black" stroke-width="3" stroke-linecap="round" fill="transparent" stroke-linejoin="round" points="170 160 173 163 176 166 185 177 197 189 205 196 205 196 " />
        </svg>