<?xml version="1.0" standalone="no"?>
    <svg width="256" height="256" xmlns="http://www.w3.org/2000/svg" version="1.1">
    <polyline stroke="black" stroke-width="3" stroke-linecap="round" fill="transparent" stroke-linejoin="round" points="27 52 27 56 28 57 28 59 29 61 30 64 31 67 32 69 33 71 34 73 36 76 37 78 38 80 40 83 41 85 42 86 46 89 47 90 49 90 " />
        <polyline stroke="black" stroke-width="3" stroke-linecap="round" fill="transparent" stroke-linejoin="round" points="89 70 86 75 81 79 79 81 73 86 70 88 67 91 60 98 56 101 53 104 47 111 42 117 38 121 36 123 35 125 34 126 33 127 32 128 32 129 31 129 31 129 30 130 30 130 30 130 30 130 30 130 30 130 30 130 31 130 32 129 34 128 35 127 37 126 43 124 46 122 50 121 53 119 57 117 61 116 65 114 73 111 77 110 81 108 85 106 89 105 93 103 96 101 100 99 " />
        <polyline stroke="black" stroke-width="3" stroke-linecap="round" fill="transparent" stroke-linejoin="round" points="60 43 54 64 54 70 53 75 53 81 52 88 52 94 52 101 52 108 51 128 50 135 50 142 49 155 48 160 46 176 45 180 44 184 42 190 41 192 41 194 40 196 39 198 38 198 37 198 37 198 37 196 " />
        <polyline stroke="black" stroke-width="3" stroke-linecap="round" fill="transparent" stroke-linejoin="round" points="42 139 48 141 49 141 53 143 55 145 57 146 62 149 65 151 67 153 70 155 76 159 79 161 82 163 85 165 91 168 94 169 100 170 103 169 106 169 " />
        <polyline stroke="black" stroke-width="3" stroke-linecap="round" fill="transparent" stroke-linejoin="round" points="120 53 120 53 120 53 120 53 120 54 120 55 119 60 118 63 117 68 116 78 115 85 114 91 112 104 111 111 110 118 108 124 106 135 105 140 104 145 101 153 99 159 98 162 96 166 95 167 95 168 94 169 94 170 94 169 " />
        <polyline stroke="black" stroke-width="3" stroke-linecap="round" fill="transparent" stroke-linejoin="round" points="109 115 114 117 115 118 117 119 119 121 121 122 123 124 126 125 132 130 134 131 136 132 138 134 140 135 142 135 148 137 150 136 153 135 " />
        <polyline stroke="black" stroke-width="3" stroke-linecap="round" fill="transparent" stroke-linejoin="round" points="170 32 170 31 170 30 171 30 171 31 171 31 171 35 171 38 171 42 171 53 170 60 169 68 164 93 162 102 160 110 156 126 153 133 151 139 145 156 143 160 139 168 138 171 136 174 135 176 134 178 133 181 132 182 132 183 132 183 132 183 132 182 " />
        <polyline stroke="black" stroke-width="3" stroke-linecap="round" fill="transparent" stroke-linejoin="round" points="158 104 161 108 161 109 164 112 165 114 166 116 169 119 170 122 172 124 176 130 178 132 180 135 187 144 189 147 193 152 197 157 199 159 201 163 203 164 204 166 205 167 206 168 207 170 207 171 208 172 209 173 210 174 211 175 " />
        </svg>