<?xml version="1.0" standalone="no"?>
    <svg width="256" height="256" xmlns="http://www.w3.org/2000/svg" version="1.1">
    <polyline stroke="black" stroke-width="3" stroke-linecap="round" fill="transparent" stroke-linejoin="round" points="64.2850341796875 109.32908630371094 77.91571044921875 104.78550720214844 86.17672729492188 103.13333129882813 94.43771362304688 101.06805419921876 103.52484130859376 99.41587829589844 112.19891357421876 97.76365661621094 128.72088623046875 94.872314453125 136.56884765625 93.22012329101563 148.54730224609375 90.7418212890625 158.87353515625 87.85044860839844 158.87353515625 87.85044860839844 " />
        <polyline stroke="black" stroke-width="3" stroke-linecap="round" fill="transparent" stroke-linejoin="round" points="106.00314331054688 62.2413330078125 101.45956420898438 89.089599609375 99.394287109375 102.7202606201172 96.50299072265624 126.67718505859376 95.67684936523438 134.52513122558594 95.26385498046876 147.74273681640625 96.50299072265624 156.829833984375 98.98129272460938 161.37339782714844 103.9378662109375 163.4386444091797 113.85107421875 163.4386444091797 123.7642822265625 160.54730224609375 132.85140991210938 155.5906982421875 136.56884765625 151.46018981933594 136.56884765625 151.46018981933594 " />
        <polyline stroke="black" stroke-width="3" stroke-linecap="round" fill="transparent" stroke-linejoin="round" points="139.460205078125 76.28504943847656 140.28631591796875 88.26351928710938 140.6993408203125 94.4592742919922 140.6993408203125 101.06805419921876 140.28631591796875 108.08993530273438 138.63412475585938 124.19889831542967 134.50360107421875 142.3730926513672 132.02532958984375 151.04714965820313 132.02532958984375 151.04714965820313 " />
        <polyline stroke="black" stroke-width="3" stroke-linecap="round" fill="transparent" stroke-linejoin="round" points="55.19793701171875 151.46018981933594 56.437103271484375 168.80828857421875 56.85015869140625 179.96066284179688 57.26318359375 185.330322265625 57.676239013671875 189.4608154296875 59.74151611328125 196.482666015625 61.3936767578125 198.96096801757813 68.41552734375 202.67843627929688 84.52450561523438 203.9175720214844 107.65533447265624 199.3740234375 141.11239624023438 189.4608154296875 158.87353515625 182.85202026367188 166.3084716796875 179.1345672607422 174.5694580078125 172.93881225585938 174.5694580078125 172.93881225585938 " />
        <polyline stroke="black" stroke-width="3" stroke-linecap="round" fill="transparent" stroke-linejoin="round" points="181.59130859375 144.85137939453125 182.83050537109375 156.00375366210938 182.83050537109375 166.7430419921875 179.93914794921875 194.00436401367188 179.93914794921875 194.00436401367188 " />
        </svg>