<?xml version="1.0" standalone="no"?>
    <svg width="256" height="256" xmlns="http://www.w3.org/2000/svg" version="1.1">
    <polyline stroke="black" stroke-width="3" stroke-linecap="round" fill="transparent" stroke-linejoin="round" points="63.735076904296875 87.1324462890625 88.80136108398438 81.638671875 113.86764526367188 76.1448974609375 128.10104370117188 72.429931640625 157.0970458984375 63.79460144042969 170.5009765625 61.341217041015625 189.75091552734375 61.569732666015625 195.7528076171875 64.3638916015625 197.9742431640625 67.9832763671875 195.8680419921875 68.87767028808594 " />
        <polyline stroke="black" stroke-width="3" stroke-linecap="round" fill="transparent" stroke-linejoin="round" points="94.64648437500003 65.28616333007813 96.58807373046876 97.93991088867188 98.5296630859375 130.59365844726563 98.55419921875 141.0684051513672 98.63934326171876 146.12899780273438 98.66732788085938 146.1873016357422 99.71298217773438 145.92349243164063 101.83676147460938 145.4133758544922 112.41204833984376 141.7259521484375 121.573974609375 137.07537841796875 136.68658447265625 129.75457763671875 141.38226318359375 127.52810668945313 141.5555419921875 127.50283813476563 " />
        <polyline stroke="black" stroke-width="3" stroke-linecap="round" fill="transparent" stroke-linejoin="round" points="145.535888671875 70.28172302246092 147.58578491210938 88.94557189941406 149.63568115234375 107.6094207763672 146.79193115234375 145.28831481933594 145.51910400390625 148.713623046875 " />
        <polyline stroke="black" stroke-width="3" stroke-linecap="round" fill="transparent" stroke-linejoin="round" points="50.530517578125 138.23855590820313 51.7813720703125 149.90481567382813 53.0322265625 161.57107543945313 53.761932373046875 171.88671875 54.381103515625 180.61227416992188 56.189666748046875 195.12384033203125 58.372650146484375 202.39816284179688 59.472412109375 204.51922607421875 61.623138427734375 205.83941650390625 64.38116455078125 206.423095703125 77.52047729492188 206.358642578125 92.199462890625 204.32815551757813 120.125 197.7198181152344 135.73797607421875 195.39501953125 163.071533203125 194.22708129882813 175.51922607421875 195.40191650390625 185.47412109375 197.4476623535156 186.4696044921875 197.6522521972656 " />
        <polyline stroke="black" stroke-width="3" stroke-linecap="round" fill="transparent" stroke-linejoin="round" points="195.8353271484375 130.17054748535156 195.73272705078125 156.64694213867188 195.630126953125 183.1233367919922 196.12200927734375 207.77767944335935 196.39666748046875 212.4537353515625 " />
        </svg>