<?xml version="1.0" standalone="no"?>
    <svg width="256" height="256" xmlns="http://www.w3.org/2000/svg" version="1.1">
    <polyline stroke="black" stroke-width="3" stroke-linecap="round" fill="transparent" stroke-linejoin="round" points="131.25106811523438 58.54396057128906 130.91009521484375 63.658447265625 129.20526123046875 70.13677978515625 126.81854248046876 77.29705810546875 126.81854248046876 77.29705810546875 " />
        <polyline stroke="black" stroke-width="3" stroke-linecap="round" fill="transparent" stroke-linejoin="round" points="89.65328979492188 87.52601623535156 98.17742919921876 83.43443298339844 107.38348388671876 79.68382263183594 129.20526123046875 72.52354431152344 140.45712280273438 69.45486450195313 159.55120849609375 65.7042236328125 171.14404296875 65.36328125 175.91754150390625 68.09098815917969 175.91754150390625 68.09098815917969 " />
        <polyline stroke="black" stroke-width="3" stroke-linecap="round" fill="transparent" stroke-linejoin="round" points="87.26654052734375 140.71661376953125 107.04254150390624 136.2840576171875 128.52337646484375 132.19248962402344 138.75228881835938 130.14669799804688 163.30181884765625 122.64544677734376 163.30181884765625 122.64544677734376 " />
        <polyline stroke="black" stroke-width="3" stroke-linecap="round" fill="transparent" stroke-linejoin="round" points="123.74984741210938 107.9839324951172 119.99920654296876 118.212890625 115.90765380859376 129.80572509765625 107.72445678710938 154.01426696777344 100.90512084960938 174.8131561279297 95.7906494140625 190.83853149414065 92.0400390625 200.38555908203125 90.67620849609376 203.79522705078125 90.67620849609376 203.79522705078125 " />
        <polyline stroke="black" stroke-width="3" stroke-linecap="round" fill="transparent" stroke-linejoin="round" points="123.40887451171876 155.71910095214844 138.07040405273438 161.85647583007813 153.75482177734375 171.0625457763672 161.5970458984375 177.19992065429688 161.5970458984375 177.19992065429688 " />
        </svg>