<?xml version="1.0" standalone="no"?>
    <svg width="256" height="256" xmlns="http://www.w3.org/2000/svg" version="1.1">
    <polyline stroke="black" stroke-width="3" stroke-linecap="round" fill="transparent" stroke-linejoin="round" points="124.6005859375 32.029632568359375 128.66424560546875 43.00151062011719 129.07064819335938 54.78611755371094 124.19427490234376 68.19619750976563 112.00326538085938 83.23171997070313 112.00326538085938 83.23171997070313 " />
        <polyline stroke="black" stroke-width="3" stroke-linecap="round" fill="transparent" stroke-linejoin="round" points="85.18310546875 90.54632568359376 94.12313842773438 85.669921875 116.06689453125 75.51077270507813 128.25790405273438 71.04074096679688 153.45257568359375 63.726165771484375 175.80267333984375 59.662506103515625 191.24456787109375 58.44342041015625 198.15283203125 59.256134033203125 199.3719482421875 60.068878173828125 199.3719482421875 60.068878173828125 " />
        <polyline stroke="black" stroke-width="3" stroke-linecap="round" fill="transparent" stroke-linejoin="round" points="91.68499755859376 148.65660095214844 100.625 145.4056854248047 111.19052124023438 142.15475463867188 134.75973510742188 136.05926513671875 158.7353515625 129.9637908935547 169.70721435546875 126.30648803710938 181.898193359375 121.43009948730467 181.898193359375 121.43009948730467 " />
        <polyline stroke="black" stroke-width="3" stroke-linecap="round" fill="transparent" stroke-linejoin="round" points="140.855224609375 101.5181884765625 137.60433959960938 110.05186462402344 134.35336303710938 119.80465698242188 120.94329833984376 150.68844604492188 111.19052124023438 168.9748992919922 101.437744140625 184.41680908203125 94.529541015625 194.9822998046875 94.529541015625 194.9822998046875 " />
        <polyline stroke="black" stroke-width="3" stroke-linecap="round" fill="transparent" stroke-linejoin="round" points="150.20162963867188 168.9748992919922 156.7034912109375 172.22581481933594 163.6116943359375 176.6958465576172 170.51995849609375 182.38497924804688 178.647216796875 190.10592651367188 178.647216796875 190.10592651367188 " />
        </svg>