<?xml version="1.0" standalone="no"?>
    <svg width="256" height="256" xmlns="http://www.w3.org/2000/svg" version="1.1">
    <polyline stroke="black" stroke-width="3" stroke-linecap="round" fill="transparent" stroke-linejoin="round" points="123.77789306640624 45.318626403808594 125.33819580078124 48.41755676269531 126.649169921875 53.27197265625 126.84027099609376 59.29176330566406 126.64202880859376 60.3614501953125 " />
        <polyline stroke="black" stroke-width="3" stroke-linecap="round" fill="transparent" stroke-linejoin="round" points="79.65512084960938 103.52976989746094 86.48397827148438 102.6125946044922 104.16561889648438 99.9150390625 120.9482421875 95.255126953125 128.97262573242188 92.60232543945313 144.25225830078125 88.31398010253906 151.90478515625 87.07939147949219 164.0667724609375 85.43670654296875 167.8955078125 85.45001220703125 171.7144775390625 85.2752685546875 171.848876953125 85.25825500488281 171.8970947265625 85.25216674804688 171.90399169921875 85.25126647949219 171.907958984375 85.25077819824219 " />
        <polyline stroke="black" stroke-width="3" stroke-linecap="round" fill="transparent" stroke-linejoin="round" points="95.49609375 133.6763153076172 115.88742065429688 128.25204467773438 124.83734130859376 126.26895141601563 139.55392456054688 122.59489440917967 143.6534423828125 121.65293884277344 150.54672241210938 119.80160522460938 151.6697998046875 119.2751922607422 152.05291748046875 119.06370544433594 152.1307373046875 118.617431640625 152.1634521484375 118.42990112304688 " />
        <polyline stroke="black" stroke-width="3" stroke-linecap="round" fill="transparent" stroke-linejoin="round" points="110.91903686523438 109.60952758789063 106.28985595703124 130.93296813964844 102.743408203125 142.87600708007813 98.07861328125 157.32037353515625 88.78314208984375 180.06576538085938 80.09002685546875 199.5120849609375 76.13397216796875 205.79193115234375 69.80413818359375 214.51266479492188 68.9404296875 215.6593017578125 68.86264038085938 215.7626037597656 " />
        <polyline stroke="black" stroke-width="3" stroke-linecap="round" fill="transparent" stroke-linejoin="round" points="124.44320678710938 156.1121826171875 129.4833984375 162.204345703125 135.43234252929688 168.3250732421875 153.10845947265625 183.50503540039065 162.77783203125 189.823486328125 171.94970703125 194.29241943359375 184.651611328125 198.2149353027344 187.38092041015625 198.84695434570313 187.39715576171875 198.8507080078125 " />
        </svg>