<?xml version="1.0" standalone="no"?>
    <svg width="256" height="256" xmlns="http://www.w3.org/2000/svg" version="1.1">
    <polyline stroke="black" stroke-width="3" stroke-linecap="round" fill="transparent" stroke-linejoin="round" points="133.62957763671875 47.697715759277344 136.72137451171875 56.531494140625 137.1630859375 61.831756591796875 134.95465087890625 72.43229675292969 127.4459228515625 85.24127197265625 127.4459228515625 85.24127197265625 " />
        <polyline stroke="black" stroke-width="3" stroke-linecap="round" fill="transparent" stroke-linejoin="round" points="84.160400390625 99.8170166015625 105.80316162109376 93.19168090820313 127.4459228515625 88.77479553222656 139.37152099609375 87.00802612304688 149.9720458984375 85.68296813964844 168.9647216796875 84.35791015625 181.33197021484375 84.35791015625 187.073974609375 84.79959106445313 187.957275390625 85.68296813964844 187.515625 86.12466430664063 187.515625 86.12466430664063 " />
        <polyline stroke="black" stroke-width="3" stroke-linecap="round" fill="transparent" stroke-linejoin="round" points="78.41845703125 137.80227661132813 93.43588256835938 135.1521453857422 103.15301513671876 133.8270721435547 112.87020874023438 132.50201416015625 130.97943115234375 130.29356384277344 140.2548828125 129.41018676757813 157.0390625 127.64341735839844 170.289794921875 126.76004028320313 178.24017333984375 125.87667846679688 178.24017333984375 125.87667846679688 " />
        <polyline stroke="black" stroke-width="3" stroke-linecap="round" fill="transparent" stroke-linejoin="round" points="113.75360107421876 123.22654724121094 91.2274169921875 164.74530029296875 85.92718505859375 173.57907104492188 78.41845703125 185.50469970703125 73.1181640625 193.89678955078125 71.35140991210938 196.98858642578125 71.35140991210938 196.98858642578125 " />
        <polyline stroke="black" stroke-width="3" stroke-linecap="round" fill="transparent" stroke-linejoin="round" points="138.92987060546875 173.13739013671875 144.67181396484375 179.32102966308594 150.41375732421875 185.9463806152344 168.9647216796875 209.35589599609375 168.9647216796875 209.35589599609375 " />
        </svg>