<?xml version="1.0" standalone="no"?>
    <svg width="256" height="256" xmlns="http://www.w3.org/2000/svg" version="1.1">
    <polyline stroke="black" stroke-width="3" stroke-linecap="round" fill="transparent" stroke-linejoin="round" points="53.56298828125 95.44137573242188 69.65283203125 90.6990966796875 77.69921875 88.548095703125 92.42904663085938 86.30354309082031 103.78961181640624 87.74336242675781 108.41098022460938 89.22604370117188 111.84429931640624 90.91500854492188 111.96588134765624 90.97335815429688 " />
        <polyline stroke="black" stroke-width="3" stroke-linecap="round" fill="transparent" stroke-linejoin="round" points="86.17333984375 61.447967529296875 84.488037109375 79.54129028320313 78.08050537109375 121.96501159667967 72.691162109375 143.11593627929688 60.068328857421875 181.0048065185547 55.077728271484375 194.13397216796875 49.481414794921875 207.8736572265625 47.3641357421875 213.72052001953125 47.152435302734375 214.30517578125 " />
        <polyline stroke="black" stroke-width="3" stroke-linecap="round" fill="transparent" stroke-linejoin="round" points="94.01202392578124 150.27816772460938 112.38323974609376 171.3408203125 124.420654296875 183.46682739257813 146.23553466796875 200.77655029296875 151.223876953125 205.23712158203125 169.23016357421875 216.017822265625 172.8123779296875 216.1749267578125 172.470458984375 215.97930908203125 " />
        <polyline stroke="black" stroke-width="3" stroke-linecap="round" fill="transparent" stroke-linejoin="round" points="143.81942749023438 68.39022827148438 174.59783935546875 69.62648010253906 183.50830078125 69.5592041015625 190.113037109375 69.24821472167969 194.699951171875 69.17720031738281 213.611572265625 70.17399597167969 214.54266357421875 70.76374816894531 211.8983154296875 71.62969970703125 196.55364990234375 86.22608947753906 190.9051513671875 96.22866821289063 179.4781494140625 114.677001953125 169.2005615234375 122.3872528076172 158.35955810546875 131.41006469726563 155.1478271484375 135.8116455078125 152.6199951171875 144.95159912109375 152.43756103515625 151.06509399414063 153.5556640625 150.549072265625 " />
        <polyline stroke="black" stroke-width="3" stroke-linecap="round" fill="transparent" stroke-linejoin="round" points="161.0718994140625 155.46163940429688 171.6326904296875 162.85556030273438 171.90191650390625 163.09506225585938 " />
        </svg>