<?xml version="1.0" standalone="no"?>
    <svg width="256" height="256" xmlns="http://www.w3.org/2000/svg" version="1.1">
    <polyline stroke="black" stroke-width="3" stroke-linecap="round" fill="transparent" stroke-linejoin="round" points="71 92 75 92 80 92 95 92 113 91 127 88 141 85 141 85 " />
        <polyline stroke="black" stroke-width="3" stroke-linecap="round" fill="transparent" stroke-linejoin="round" points="116 72 116 78 109 99 102 128 92 158 81 188 76 208 72 221 71 225 71 225 " />
        <polyline stroke="black" stroke-width="3" stroke-linecap="round" fill="transparent" stroke-linejoin="round" points="117 154 129 166 145 178 154 185 182 200 200 205 219 205 226 205 226 205 " />
        <polyline stroke="black" stroke-width="3" stroke-linecap="round" fill="transparent" stroke-linejoin="round" points="198 88 203 88 205 88 207 88 207 89 207 101 205 112 200 122 194 131 191 138 189 140 189 140 " />
        <polyline stroke="black" stroke-width="3" stroke-linecap="round" fill="transparent" stroke-linejoin="round" points="177 141 186 147 196 154 208 160 215 164 215 164 " />
        </svg>