<?xml version="1.0" standalone="no"?>
    <svg width="256" height="256" xmlns="http://www.w3.org/2000/svg" version="1.1">
    <polyline stroke="black" stroke-width="3" stroke-linecap="round" fill="transparent" stroke-linejoin="round" points="112.85055541992188 36.863731384277344 123.4329833984375 44.926544189453125 128.47225952148438 51.98150634765625 130.99188232421875 61.05218505859375 125.95263671875 73.65032958984375 125.95263671875 73.65032958984375 " />
        <polyline stroke="black" stroke-width="3" stroke-linecap="round" fill="transparent" stroke-linejoin="round" points="57.922607421875 97.83877563476563 73.5443115234375 90.27989196777344 89.66995239257813 85.74455261230469 116.8819580078125 79.69744873046875 142.58221435546875 75.162109375 158.70782470703125 73.14640808105469 172.3138427734375 71.63462829589844 178.8648681640625 72.1385498046875 178.8648681640625 72.1385498046875 " />
        <polyline stroke="black" stroke-width="3" stroke-linecap="round" fill="transparent" stroke-linejoin="round" points="66.4893798828125 141.17642211914063 85.1346435546875 134.1214599609375 109.82699584960938 126.56256103515624 130.99188232421875 122.0272216796875 150.64501953125 117.99581909179688 166.7706298828125 112.95655822753906 177.85699462890625 108.42121887207033 183.40020751953125 102.87803649902344 183.40020751953125 102.87803649902344 " />
        <polyline stroke="black" stroke-width="3" stroke-linecap="round" fill="transparent" stroke-linejoin="round" points="136.03115844726563 91.28773498535156 125.44873046875 102.37411499023438 116.8819580078125 117.99581909179688 98.2366943359375 161.33346557617188 91.6856689453125 179.47479248046875 84.12677001953125 195.09649658203125 77.57574462890625 206.68679809570313 73.0404052734375 211.72607421875 72.03253173828125 211.72607421875 72.03253173828125 211.72607421875 " />
        <polyline stroke="black" stroke-width="3" stroke-linecap="round" fill="transparent" stroke-linejoin="round" points="108.31521606445313 148.23138427734375 125.95263671875 153.77456665039063 142.0782470703125 161.83738708496094 157.699951171875 170.90805053710938 170.80206298828125 178.9708709716797 182.392333984375 188.04153442382813 182.392333984375 188.04153442382813 " />
        </svg>