<?xml version="1.0" standalone="no"?>
    <svg width="256" height="256" xmlns="http://www.w3.org/2000/svg" version="1.1">
    <polyline stroke="black" stroke-width="3" stroke-linecap="round" fill="transparent" stroke-linejoin="round" points="95.74603271484376 47.4041748046875 94.078369140625 51.740081787109375 92.41073608398438 56.07598876953125 88.4083251953125 66.41546630859375 85.072998046875 75.75433349609375 82.73828125 83.42556762695313 81.07064819335938 89.0955810546875 80.403564453125 92.430908203125 81.07064819335938 93.7650146484375 82.73828125 94.09855651855467 91.74365234375 92.0973663330078 106.41903686523438 86.7608642578125 127.43148803710938 79.42318725585938 133.43505859375 77.4219970703125 144.77511596679688 74.086669921875 157.7828369140625 70.4178466796875 163.452880859375 69.08370971679688 165.45404052734375 68.75018310546875 165.45404052734375 68.75018310546875 " />
        <polyline stroke="black" stroke-width="3" stroke-linecap="round" fill="transparent" stroke-linejoin="round" points="83.40536499023438 130.45346069335938 95.74603271484376 122.11517333984376 108.086669921875 115.44454956054688 119.76025390625 109.77452087402344 130.43328857421875 105.77214050292967 141.10629272460938 103.1038818359375 151.44573974609375 102.10330200195313 161.78521728515625 102.43682861328124 170.45703125 104.43801879882813 177.127685546875 107.77334594726563 182.130615234375 112.10923767089844 184.798828125 116.1116180419922 189.46832275390625 133.1217041015625 187.133544921875 147.4635467529297 184.798828125 153.80064392089844 176.79412841796875 165.80776977539063 170.12347412109375 170.14366149902344 165.78759765625 170.81072998046875 161.1181640625 170.14366149902344 161.1181640625 170.14366149902344 " />
        <polyline stroke="black" stroke-width="3" stroke-linecap="round" fill="transparent" stroke-linejoin="round" points="122.42855834960938 46.07005310058594 123.76266479492188 51.740081787109375 125.4302978515625 59.07777404785156 129.09912109375 78.08905029296875 131.100341796875 90.09617614746094 132.76800537109375 102.10330200195313 135.43624877929688 125.4504852294922 136.77035522460938 148.130615234375 136.103271484375 169.81015014648438 134.7691650390625 180.14959716796875 130.76681518554688 204.8309326171875 128.43209838867188 214.1697998046875 127.7650146484375 217.17156982421875 127.7650146484375 217.17156982421875 " />
        <polyline stroke="black" stroke-width="3" stroke-linecap="round" fill="transparent" stroke-linejoin="round" points="87.07421875 170.47720336914063 95.07894897460938 181.8172607421875 99.08135986328124 187.82086181640625 104.08432006835938 198.16030883789065 104.08432006835938 198.16030883789065 " />
        </svg>