<?xml version="1.0" standalone="no"?>
    <svg width="256" height="256" xmlns="http://www.w3.org/2000/svg" version="1.1">
    <polyline stroke="black" stroke-width="3" stroke-linecap="round" fill="transparent" stroke-linejoin="round" points="60.28863525390625 85.86894226074219 76.65560913085938 82.51161193847656 83.78997802734375 81.25260925292969 93.0225830078125 79.57394409179688 112.32723999023438 75.79693603515625 122.39926147460938 73.6986083984375 139.18588256835938 69.501953125 151.77587890625 66.14462280273438 159.74957275390625 64.4659423828125 163.52655029296875 64.04627990722656 164.36590576171875 64.4659423828125 164.36590576171875 64.4659423828125 " />
        <polyline stroke="black" stroke-width="3" stroke-linecap="round" fill="transparent" stroke-linejoin="round" points="90.92425537109376 107.69158935546876 87.986572265625 121.54058837890624 87.14727783203125 129.09458923339844 86.72760009765625 136.64859008789063 89.24560546875 161.82858276367188 90.0849609375 163.0875701904297 90.0849609375 163.0875701904297 " />
        <polyline stroke="black" stroke-width="3" stroke-linecap="round" fill="transparent" stroke-linejoin="round" points="139.60556030273438 98.45895385742188 131.63192749023438 122.3799285888672 127.85491943359376 130.77325439453125 117.36325073242188 147.97958374023438 104.77328491210938 165.18589782714844 104.77328491210938 165.18589782714844 " />
        <polyline stroke="black" stroke-width="3" stroke-linecap="round" fill="transparent" stroke-linejoin="round" points="46.43963623046875 195.40191650390625 62.386932373046875 185.74957275390625 73.29827880859375 180.71356201171875 109.38958740234376 168.962890625 130.79257202148438 165.18589782714844 152.615234375 163.92691040039063 168.5626220703125 164.3465576171875 168.5626220703125 164.3465576171875 " />
        </svg>