<?xml version="1.0" standalone="no"?>
    <svg width="256" height="256" xmlns="http://www.w3.org/2000/svg" version="1.1">
    <polyline stroke="black" stroke-width="3" stroke-linecap="round" fill="transparent" stroke-linejoin="round" points="62.529144287109375 97.35394287109376 74.67596435546875 91.48995971679688 81.79647827148438 88.97682189941406 90.17364501953124 86.04483032226563 98.9696044921875 83.11283874511719 127.87069702148438 75.15457153320313 145.88153076171875 70.96600341796875 158.8660888671875 67.61515808105469 167.2431640625 64.68316650390625 172.26947021484375 62.58888244628906 174.7825927734375 60.9134521484375 174.7825927734375 60.9134521484375 " />
        <polyline stroke="black" stroke-width="3" stroke-linecap="round" fill="transparent" stroke-linejoin="round" points="86.40390014648438 94.00309753417967 85.1473388671875 106.98764038085938 84.728515625 112.85165405273438 84.30966186523438 119.13449096679688 84.30966186523438 133.79443359375 84.728515625 145.94126892089844 87.66049194335938 160.6012420654297 91.01132202148438 167.30294799804688 94.3621826171875 170.65379333496094 99.80731201171876 171.4915008544922 99.80731201171876 171.4915008544922 " />
        <polyline stroke="black" stroke-width="3" stroke-linecap="round" fill="transparent" stroke-linejoin="round" points="156.3529052734375 93.58424377441406 153.83978271484375 104.8933563232422 152.16436767578125 110.75735473632813 150.070068359375 117.04019165039063 147.55694580078125 124.16075134277344 144.62493896484375 131.2812957763672 137.50439453125 144.6846923828125 127.032958984375 159.76353454589844 127.032958984375 159.76353454589844 " />
        <polyline stroke="black" stroke-width="3" stroke-linecap="round" fill="transparent" stroke-linejoin="round" points="71.74398803710938 182.80062866210935 93.10565185546876 178.19320678710938 101.901611328125 176.93663024902344 111.95416259765624 176.0989227294922 130.38385009765625 174.4235076904297 147.97579956054688 174.004638671875 163.05462646484375 174.004638671875 176.0391845703125 174.4235076904297 185.6728515625 175.6800537109375 190.2802734375 176.93663024902344 190.2802734375 176.93663024902344 " />
        </svg>