<?xml version="1.0" standalone="no"?>
    <svg width="256" height="256" xmlns="http://www.w3.org/2000/svg" version="1.1">
    <polyline stroke="black" stroke-width="3" stroke-linecap="round" fill="transparent" stroke-linejoin="round" points="63.457000732421875 81.18960571289063 95.70892333984376 73.2313232421875 107.01803588867188 71.13705444335938 127.96087646484376 67.78619384765625 150.16024780273438 64.43534851074219 163.9825439453125 61.922210693359375 171.10302734375 59.40907287597656 172.77850341796875 57.733642578125 172.77850341796875 57.733642578125 " />
        <polyline stroke="black" stroke-width="3" stroke-linecap="round" fill="transparent" stroke-linejoin="round" points="105.761474609375 79.93302917480469 101.154052734375 94.593017578125 99.8974609375 101.29470825195313 98.64093017578124 107.99639892578124 97.80322265625 114.69810485839844 96.546630859375 124.75065612792967 96.546630859375 131.45236206054688 97.80322265625 134.80320739746094 101.154052734375 134.80320739746094 101.154052734375 134.80320739746094 " />
        <polyline stroke="black" stroke-width="3" stroke-linecap="round" fill="transparent" stroke-linejoin="round" points="156.443115234375 72.81246948242188 150.5791015625 90.40443420410156 146.39056396484375 101.71354675292967 141.78314208984375 112.60382080078124 136.7568359375 123.07522583007813 118.74603271484376 149.0443115234375 104.0860595703125 162.86656188964844 86.49407958984375 174.17568969726563 72.25299072265625 181.29624938964844 64.71356201171875 184.22824096679688 62.61932373046875 184.6470947265625 65.13241577148438 182.97166442871097 81.46783447265625 177.10769653320313 109.1123046875 169.98712158203125 136.7568359375 163.70428466796875 161.050537109375 158.67800903320313 176.5482177734375 157.4214324951172 176.5482177734375 157.4214324951172 " />
        </svg>