<?xml version="1.0" standalone="no"?>
    <svg width="256" height="256" xmlns="http://www.w3.org/2000/svg" version="1.1">
    <polyline stroke="black" stroke-width="3" stroke-linecap="round" fill="transparent" stroke-linejoin="round" points="71.4000244140625 119.73338317871094 117.2667236328125 100.53335571289063 139.666748046875 95.20002746582033 150.3333740234375 93.06668090820313 154.60009765625 93.06668090820313 157.8001708984375 93.06668090820313 157.8001708984375 96.26667785644533 154.60009765625 100.53335571289063 154.60009765625 100.53335571289063 " />
        <polyline stroke="black" stroke-width="3" stroke-linecap="round" fill="transparent" stroke-linejoin="round" points="95.93341064453124 131.4666748046875 100.2000732421875 151.73338317871094 106.60003662109376 168.80001831054688 111.93341064453124 177.33334350585938 117.2667236328125 180.53335571289065 117.2667236328125 180.53335571289065 " />
        <polyline stroke="black" stroke-width="3" stroke-linecap="round" fill="transparent" stroke-linejoin="round" points="148.2000732421875 116.53335571289063 143.933349609375 156.00001525878906 142.86669921875 164.53334045410156 140.7333984375 170.93336486816406 136.466796875 182.66668701171875 136.466796875 182.66668701171875 " />
        <polyline stroke="black" stroke-width="3" stroke-linecap="round" fill="transparent" stroke-linejoin="round" points="66.06671142578125 209.33334350585935 101.2667236328125 198.66668701171875 147.1334228515625 192.2666931152344 174.86669921875 190.13336181640625 194.0667724609375 189.06671142578125 203.666748046875 189.06671142578125 212.2000732421875 193.33334350585935 212.2000732421875 193.33334350585935 " />
        </svg>