<?xml version="1.0" standalone="no"?>
    <svg width="256" height="256" xmlns="http://www.w3.org/2000/svg" version="1.1">
    <polyline stroke="black" stroke-width="3" stroke-linecap="round" fill="transparent" stroke-linejoin="round" points="102.64468383789063 118.23263549804688 113.548095703125 115.11590576171876 138.85955810546875 105.76573181152344 153.2677001953125 100.31149291992188 178.18975830078125 90.57174682617188 187.1461181640625 87.8446044921875 195.71307373046875 85.89665222167969 196.10247802734375 86.28627014160156 196.10247802734375 86.28627014160156 " />
        <polyline stroke="black" stroke-width="3" stroke-linecap="round" fill="transparent" stroke-linejoin="round" points="150.15240478515625 111.60958862304688 151.32061767578125 123.6868896484375 151.71002197265625 152.5165252685547 151.32061767578125 163.0354461669922 149.37359619140625 176.67108154296875 148.59475708007813 180.95660400390625 147.42654418945313 186.021240234375 146.64773559570313 187.57962036132813 145.090087890625 188.74838256835935 145.090087890625 188.74838256835935 " />
        <polyline stroke="black" stroke-width="3" stroke-linecap="round" fill="transparent" stroke-linejoin="round" points="118.99981689453124 166.54177856445313 120.94683837890624 176.28152465820313 122.89385986328124 192.25469970703125 123.28326416015624 195.76101684570313 123.28326416015624 198.87771606445313 123.28326416015624 201.99444580078125 122.89385986328124 202.384033203125 122.89385986328124 202.384033203125 " />
        <polyline stroke="black" stroke-width="3" stroke-linecap="round" fill="transparent" stroke-linejoin="round" points="136.13372802734375 143.945556640625 145.090087890625 141.21841430664063 158.7193603515625 136.15374755859375 165.72869873046875 133.4266357421875 177.021484375 129.92030334472656 180.52618408203125 129.1411590576172 182.47320556640625 128.7515411376953 184.0308837890625 128.7515411376953 184.8096923828125 128.7515411376953 184.8096923828125 129.1411590576172 184.8096923828125 130.3098907470703 184.8096923828125 141.99761962890625 184.0308837890625 150.17898559570313 181.69439697265625 163.8146209716797 180.91558837890625 169.26889038085938 178.57916259765625 177.45028686523438 177.41094970703125 180.1774139404297 176.24267578125 181.7357635498047 172.3486328125 183.6837158203125 169.2333984375 184.462890625 169.2333984375 184.462890625 " />
        <polyline stroke="black" stroke-width="3" stroke-linecap="round" fill="transparent" stroke-linejoin="round" points="140.02780151367188 161.86668395996094 148.59475708007813 160.6979217529297 165.72869873046875 157.19161987304688 171.959228515625 156.02284240722656 179.35797119140625 154.46446228027344 180.52618408203125 154.46446228027344 180.52618408203125 155.24366760253906 180.52618408203125 155.24366760253906 " />
        <polyline stroke="black" stroke-width="3" stroke-linecap="round" fill="transparent" stroke-linejoin="round" points="152.48883056640625 189.91714477539065 159.4981689453125 188.35882568359375 166.11810302734375 187.1900329589844 168.06512451171875 186.80044555664065 171.959228515625 186.021240234375 171.959228515625 186.021240234375 " />
        </svg>