<?xml version="1.0" standalone="no"?>
    <svg width="256" height="256" xmlns="http://www.w3.org/2000/svg" version="1.1">
    <polyline stroke="black" stroke-width="3" stroke-linecap="round" fill="transparent" stroke-linejoin="round" points="81.4703369140625 83.31312561035156 121.86981201171876 64.94973754882813 150.63916015625 55.768035888671875 182.46905517578125 49.64689636230469 200.2203369140625 49.03478240966797 214.91107177734375 49.03478240966797 221.0322265625 50.871124267578125 220.4200439453125 53.93169403076172 211.2384033203125 56.99226379394531 211.2384033203125 56.99226379394531 " />
        <polyline stroke="black" stroke-width="3" stroke-linecap="round" fill="transparent" stroke-linejoin="round" points="88.20361328125 143.3002471923828 89.42782592773438 151.8698272705078 89.42782592773438 159.82730102539063 88.20361328125 165.9484405517578 86.9793701171875 169.00900268554688 86.9793701171875 166.560546875 86.9793701171875 159.82730102539063 90.65203857421876 146.97291564941406 99.833740234375 129.833740234375 110.851806640625 113.3066864013672 123.7061767578125 101.06442260742188 141.45745849609375 92.4948272705078 159.82086181640625 90.6584930419922 176.347900390625 93.71905517578124 186.75384521484375 99.84019470214844 193.487060546875 107.79766845703124 198.99609375 124.93684387207033 195.32342529296875 142.07601928710938 183.0811767578125 158.6030731201172 162.269287109375 175.13014221191406 162.269287109375 175.13014221191406 " />
        <polyline stroke="black" stroke-width="3" stroke-linecap="round" fill="transparent" stroke-linejoin="round" points="134.72421264648438 63.72550964355469 135.3363037109375 80.2525634765625 132.88787841796875 104.7371063232422 129.82730102539063 123.71261596679688 125.54251098632813 139.6275634765625 121.86981201171876 150.0334930419922 118.80926513671876 156.1546173095703 114.52447509765624 160.43942260742188 109.01544189453124 162.2757568359375 102.89431762695313 162.2757568359375 97.38531494140624 160.43942260742188 93.10049438476563 158.6030731201172 90.0399169921875 156.1546173095703 90.0399169921875 152.48194885253906 95.5489501953125 146.97291564941406 107.79119873046876 139.01544189453125 130.43942260742188 129.2216339111328 151.25128173828125 124.32472229003906 168.39044189453125 121.26416015625 179.408447265625 119.42782592773438 184.305419921875 119.42782592773438 185.5296630859375 119.42782592773438 180.0206298828125 123.10049438476563 157.3724365234375 137.17910766601563 134.72421264648438 153.09405517578125 114.52447509765624 165.9484405517578 107.79119873046876 171.45745849609375 104.1185302734375 174.5180206298828 106.5670166015625 175.74224853515625 112.6881103515625 175.13014221191406 132.2757568359375 170.2332305908203 151.8634033203125 165.33631896972656 169.61468505859375 162.2757568359375 182.46905517578125 163.49998474121094 190.426513671875 170.2332305908203 190.426513671875 170.2332305908203 " />
        </svg>