<?xml version="1.0" standalone="no"?>
    <svg width="256" height="256" xmlns="http://www.w3.org/2000/svg" version="1.1">
    <polyline stroke="black" stroke-width="3" stroke-linecap="round" fill="transparent" stroke-linejoin="round" points="61.423828125 102.392578125 70.10885620117188 98.44485473632813 81.16244506835938 93.70759582519533 107.21746826171876 84.23306274414063 120.6396484375 79.89056396484375 148.66851806640625 72.389892578125 172.7496337890625 67.25785827636719 188.145751953125 64.49444580078125 195.64642333984375 63.70491027832031 197.62030029296875 65.28399658203125 197.62030029296875 65.28399658203125 " />
        <polyline stroke="black" stroke-width="3" stroke-linecap="round" fill="transparent" stroke-linejoin="round" points="90.24224853515624 147.3966064453125 88.66314697265625 158.0554656982422 85.50497436523438 194.769287109375 84.71542358398438 209.7706298828125 84.32064819335938 219.24517822265625 84.32064819335938 219.63995361328125 84.32064819335938 219.24517822265625 84.32064819335938 219.24517822265625 " />
        <polyline stroke="black" stroke-width="3" stroke-linecap="round" fill="transparent" stroke-linejoin="round" points="112.34945678710938 141.8697967529297 117.48153686523438 136.73776245117188 136.43060302734375 123.31552124023438 152.221435546875 117.3939208984375 168.01239013671875 116.20962524414063 180.64508056640625 119.3677978515625 189.330078125 126.8684539794922 193.27777099609375 133.974365234375 196.83074951171875 153.31820678710938 186.96142578125 183.3208923339844 173.1444091796875 198.32223510742188 163.27508544921875 205.4281311035156 153.40576171875 211.3497314453125 153.40576171875 211.3497314453125 " />
        <polyline stroke="black" stroke-width="3" stroke-linecap="round" fill="transparent" stroke-linejoin="round" points="106.42791748046876 169.50384521484375 114.71810913085938 165.55613708496094 123.403076171875 162.003173828125 147.87899780273438 153.31820678710938 161.30120849609375 148.5809326171875 169.9862060546875 143.8436737060547 172.7496337890625 141.47503662109375 177.4869384765625 126.07891845703124 177.4869384765625 126.07891845703124 " />
        <polyline stroke="black" stroke-width="3" stroke-linecap="round" fill="transparent" stroke-linejoin="round" points="147.48422241210938 86.20693969726563 144.32601928710938 96.86578369140624 135.24627685546875 134.76390075683594 123.00830078125 173.8463592529297 120.24493408203124 180.16270446777344 115.50765991210938 190.42678833007813 110.77035522460938 197.92745971679688 102.48016357421876 205.4281311035156 96.163818359375 208.9810791015625 91.8212890625 210.5601806640625 90.24224853515624 210.9549560546875 89.05792236328125 210.5601806640625 94.9794921875 208.1915283203125 112.34945678710938 201.48040771484375 129.32470703125 196.348388671875 144.72079467773438 193.979736328125 151.037109375 193.5849609375 164.45941162109375 196.7431640625 164.45941162109375 196.7431640625 " />
        </svg>