<?xml version="1.0" standalone="no"?>
    <svg width="256" height="256" xmlns="http://www.w3.org/2000/svg" version="1.1">
    <polyline stroke="black" stroke-width="3" stroke-linecap="round" fill="transparent" stroke-linejoin="round" points="54.3333740234375 81.33334350585938 57.53338623046875 128.26669311523438 60.7333984375 160.26669311523438 63.93341064453125 181.60003662109375 66.06671142578125 191.20001220703125 66.06671142578125 194.40005493164065 66.06671142578125 189.06671142578125 66.06671142578125 189.06671142578125 " />
        <polyline stroke="black" stroke-width="3" stroke-linecap="round" fill="transparent" stroke-linejoin="round" points="60.7333984375 73.86668395996094 100.2000732421875 49.333343505859375 129 39.73333740234375 151.4000244140625 33.333335876464844 168.466796875 31.20001983642578 172.7333984375 31.20001983642578 177 37.600006103515625 178.0667724609375 55.73333740234375 178.0667724609375 87.73333740234375 179.1334228515625 121.86668395996094 180.2000732421875 166.6666717529297 181.2667236328125 184.80001831054688 181.2667236328125 192.2666931152344 179.1334228515625 194.40005493164065 168.466796875 188 168.466796875 188 " />
        <polyline stroke="black" stroke-width="3" stroke-linecap="round" fill="transparent" stroke-linejoin="round" points="93.80010986328124 118.66667175292967 100.2000732421875 145.33334350585938 101.2667236328125 149.6000213623047 102.3333740234375 153.86668395996094 102.3333740234375 152.80001831054688 99.1334228515625 147.4666748046875 99.1334228515625 147.4666748046875 " />
        <polyline stroke="black" stroke-width="3" stroke-linecap="round" fill="transparent" stroke-linejoin="round" points="89.53338623046875 94.1333465576172 119.4000244140625 84.53335571289063 134.3333740234375 80.26667785644531 141.8001708984375 79.20002746582031 147.1334228515625 79.20002746582031 150.3333740234375 85.60000610351563 150.3333740234375 98.40000915527344 146.0667724609375 117.60000610351563 142.86669921875 134.6666717529297 141.8001708984375 142.1333465576172 139.666748046875 146.40003967285156 138.60009765625 146.40003967285156 138.60009765625 146.40003967285156 " />
        <polyline stroke="black" stroke-width="3" stroke-linecap="round" fill="transparent" stroke-linejoin="round" points="119.4000244140625 92.00001525878906 119.4000244140625 124.00001525878906 119.4000244140625 129.33334350585938 119.4000244140625 134.6666717529297 119.4000244140625 140.00001525878906 119.4000244140625 142.1333465576172 119.4000244140625 142.1333465576172 " />
        <polyline stroke="black" stroke-width="3" stroke-linecap="round" fill="transparent" stroke-linejoin="round" points="36.2000732421875 142.1333465576172 68.2000732421875 128.26669311523438 86.3333740234375 121.86668395996094 123.666748046875 111.20002746582033 161 103.73333740234376 189.8001708984375 101.60000610351563 203.666748046875 101.60000610351563 207.933349609375 102.66667175292967 204.7333984375 109.06668090820313 204.7333984375 109.06668090820313 " />
        <polyline stroke="black" stroke-width="3" stroke-linecap="round" fill="transparent" stroke-linejoin="round" points="104.466796875 151.73338317871094 126.86669921875 144.26669311523438 149.2667236328125 140.00001525878906 166.3333740234375 140.00001525878906 166.3333740234375 140.00001525878906 " />
        </svg>