<?xml version="1.0" standalone="no"?>
    <svg width="256" height="256" xmlns="http://www.w3.org/2000/svg" version="1.1">
    <polyline stroke="black" stroke-width="3" stroke-linecap="round" fill="transparent" stroke-linejoin="round" points="61 60 61 75 61 98 61 129 61 160 64 180 65 189 66 191 66 191 " />
        <polyline stroke="black" stroke-width="3" stroke-linecap="round" fill="transparent" stroke-linejoin="round" points="56 66 74 57 104 48 138 42 170 37 193 37 206 39 211 54 211 82 206 120 204 154 204 187 204 209 204 224 204 227 202 228 193 228 174 206 174 206 " />
        <polyline stroke="black" stroke-width="3" stroke-linecap="round" fill="transparent" stroke-linejoin="round" points="93 82 93 89 93 99 93 118 93 134 95 144 97 148 97 149 97 149 " />
        <polyline stroke="black" stroke-width="3" stroke-linecap="round" fill="transparent" stroke-linejoin="round" points="93 102 126 84 144 79 160 79 169 81 173 91 174 105 174 123 172 139 170 152 168 159 165 162 165 162 " />
        <polyline stroke="black" stroke-width="3" stroke-linecap="round" fill="transparent" stroke-linejoin="round" points="120 93 123 102 123 120 124 140 125 156 125 164 125 164 " />
        <polyline stroke="black" stroke-width="3" stroke-linecap="round" fill="transparent" stroke-linejoin="round" points="75 125 79 122 101 121 129 117 155 116 177 114 190 114 194 114 193 115 193 115 " />
        <polyline stroke="black" stroke-width="3" stroke-linecap="round" fill="transparent" stroke-linejoin="round" points="97 165 113 161 131 157 147 152 161 151 170 150 171 150 172 150 172 150 " />
        </svg>