<?xml version="1.0" standalone="no"?>
    <svg width="256" height="256" xmlns="http://www.w3.org/2000/svg" version="1.1">
    <polyline stroke="black" stroke-width="3" stroke-linecap="round" fill="transparent" stroke-linejoin="round" points="111 82 112.5 83.5 115 86 115 86 " />
        <polyline stroke="black" stroke-width="3" stroke-linecap="round" fill="transparent" stroke-linejoin="round" points="136.5 68.5 131 77 131 77 " />
        <polyline stroke="black" stroke-width="3" stroke-linecap="round" fill="transparent" stroke-linejoin="round" points="93.5 113 103.5 107.5 114 102 124 97 133 92.5 144.5 87 150 84.5 153 82.5 154 81.5 154 79.5 154 79.5 " />
        <polyline stroke="black" stroke-width="3" stroke-linecap="round" fill="transparent" stroke-linejoin="round" points="117.5 75.5 115.5 85 113 98 109.5 111 103.5 128.5 99 138.5 94 147.5 88 156 82 163 77 167.5 73.5 170.5 73 171 73 171 " />
        <polyline stroke="black" stroke-width="3" stroke-linecap="round" fill="transparent" stroke-linejoin="round" points="126 123 129 124.5 132.5 126 143.5 130.5 152.5 134 161.5 137.5 170 141.5 177 144.5 185 148.5 189 150.5 192 151.5 193.5 153 193.5 153.5 193.5 153.5 " />
        <polyline stroke="black" stroke-width="3" stroke-linecap="round" fill="transparent" stroke-linejoin="round" points="118.5 148 125 145.5 131 143.5 135.5 141.5 138.5 140 140 139.5 140 139.5 " />
        <polyline stroke="black" stroke-width="3" stroke-linecap="round" fill="transparent" stroke-linejoin="round" points="129 168 129.5 175 130 181 129 187.5 128 190 127 190.5 124 190.5 119 187.5 115.5 185.5 115 185 112.5 183.5 112.5 183.5 " />
        </svg>