<?xml version="1.0" standalone="no"?>
    <svg width="256" height="256" xmlns="http://www.w3.org/2000/svg" version="1.1">
    <polyline stroke="black" stroke-width="3" stroke-linecap="round" fill="transparent" stroke-linejoin="round" points="77.089599609375 83.30690002441406 79.98095703125 85.37216186523438 83.69842529296875 87.43740844726563 87.82891845703125 89.089599609375 98.56820678710938 91.56790161132813 106.41619873046876 90.7418212890625 106.41619873046876 90.7418212890625 " />
        <polyline stroke="black" stroke-width="3" stroke-linecap="round" fill="transparent" stroke-linejoin="round" points="146.06903076171875 77.52420043945313 136.15576171875 87.02436828613281 125.00341796875 96.93757629394533 103.11175537109376 113.87261962890624 78.3287353515625 130.39463806152344 68.82861328125 135.7642822265625 64.2850341796875 137.82955932617188 63.87200927734375 137.82955932617188 64.69808959960938 136.59039306640625 84.1114501953125 128.742431640625 106.00314331054688 121.30752563476563 126.24261474609376 115.52482604980467 144.41680908203125 110.98126220703124 152.6778564453125 108.916015625 170.02587890625 103.95941162109376 174.5694580078125 101.48110961914063 175.80859375 100.24197387695313 175.80859375 100.24197387695313 " />
        <polyline stroke="black" stroke-width="3" stroke-linecap="round" fill="transparent" stroke-linejoin="round" points="122.112060546875 72.154541015625 113.02499389648438 95.2853546142578 107.65533447265624 107.26382446289063 85.763671875 159.3081512451172 76.67657470703125 177.48236083984375 72.9591064453125 183.2650604248047 68.00250244140625 191.113037109375 65.937255859375 192.7652282714844 65.937255859375 192.7652282714844 " />
        <polyline stroke="black" stroke-width="3" stroke-linecap="round" fill="transparent" stroke-linejoin="round" points="131.61224365234375 132.87295532226563 139.460205078125 132.04684448242188 161.764892578125 131.22073364257813 177.4608154296875 131.22073364257813 183.2435302734375 131.6337890625 186.9609375 132.04684448242188 186.9609375 132.04684448242188 " />
        <polyline stroke="black" stroke-width="3" stroke-linecap="round" fill="transparent" stroke-linejoin="round" points="107.24227905273438 172.5257568359375 115.09027099609376 169.2213592529297 123.35125732421876 165.50390625 145.65594482421875 156.4167938232422 155.982177734375 152.6993408203125 163.00408935546875 150.63409423828125 166.3084716796875 150.22103881835938 166.7215576171875 152.2863006591797 163.8302001953125 161.37339782714844 160.5257568359375 170.04745483398438 157.6343994140625 177.06930541992188 155.1561279296875 183.6781005859375 153.50390625 190.69998168945313 153.0908203125 194.00436401367188 151.43865966796875 200.6131591796875 148.96038818359375 205.98284912109375 142.76458740234375 212.59164428710935 132.43832397460938 217.13519287109375 119.6337890625 218.78738403320313 114.26412963867188 219.200439453125 114.26412963867188 219.200439453125 " />
        </svg>