<?xml version="1.0" standalone="no"?>
    <svg width="256" height="256" xmlns="http://www.w3.org/2000/svg" version="1.1">
    <polyline stroke="black" stroke-width="3" stroke-linecap="round" fill="transparent" stroke-linejoin="round" points="67.65936279296875 117.34294128417967 85.7088623046875 109.55686950683594 96.68014526367188 105.6638641357422 108.35922241210938 102.12472534179688 146.93563842773438 93.98475646972656 168.17041015625 91.5073699951172 180.55731201171875 90.799560546875 183.7425537109375 90.799560546875 185.865966796875 90.799560546875 185.5120849609375 90.799560546875 185.5120849609375 90.799560546875 " />
        <polyline stroke="black" stroke-width="3" stroke-linecap="round" fill="transparent" stroke-linejoin="round" points="59.519378662109375 169.721923828125 69.42892456054688 168.66018676757813 80.40020751953125 167.24453735351563 105.5279541015625 162.28977966308594 144.10433959960938 154.14981079101563 166.046875 149.19503784179688 181.97296142578125 144.5941619873047 190.46685791015625 140.70114135742188 190.46685791015625 140.70114135742188 " />
        <polyline stroke="black" stroke-width="3" stroke-linecap="round" fill="transparent" stroke-linejoin="round" points="87.12451171875 86.5526123046875 85.7088623046875 97.52386474609376 83.93930053710938 110.97251892089844 80.75411987304688 137.51593017578125 79.6923828125 148.8411102294922 77.92282104492188 169.01409912109375 76.861083984375 184.58624267578125 76.861083984375 191.310546875 76.861083984375 191.310546875 " />
        <polyline stroke="black" stroke-width="3" stroke-linecap="round" fill="transparent" stroke-linejoin="round" points="110.48272705078124 87.96824645996094 109.42098999023438 101.77081298828124 106.943603515625 128.6681365966797 105.5279541015625 150.2567596435547 105.17404174804688 166.890625 105.17404174804688 177.15408325195313 105.17404174804688 181.0471038818359 105.17404174804688 181.0471038818359 " />
        <polyline stroke="black" stroke-width="3" stroke-linecap="round" fill="transparent" stroke-linejoin="round" points="138.795654296875 78.76654052734375 140.56524658203125 91.86129760742188 142.688720703125 120.88206481933594 143.39654541015625 135.74636840820313 143.75045776367188 148.8411102294922 145.8739013671875 185.64797973632813 146.93563842773438 199.804443359375 146.93563842773438 199.804443359375 " />
        </svg>