<?xml version="1.0" standalone="no"?>
    <svg width="256" height="256" xmlns="http://www.w3.org/2000/svg" version="1.1">
    <polyline stroke="black" stroke-width="3" stroke-linecap="round" fill="transparent" stroke-linejoin="round" points="70.89013671875 108.13648986816406 77.16354370117188 106.3441162109375 83.43695068359375 104.55174255371094 89.26229858398438 102.7593231201172 103.15341186523438 96.03781127929688 106.29013061523438 92.90109252929688 112.5634765625 79.90617370605469 112.5634765625 79.90617370605469 " />
        <polyline stroke="black" stroke-width="3" stroke-linecap="round" fill="transparent" stroke-linejoin="round" points="92.39901733398438 59.29351806640625 89.26229858398438 74.52896118164063 86.12557983398438 89.764404296875 75.81927490234375 141.29598999023438 69.09774780273438 161.01242065429688 61.9281005859375 174.4554443359375 55.65472412109375 180.72886657714844 49.38128662109375 184.76177978515625 45.796478271484375 187.00225830078125 44.45220947265625 187.89846801757813 44.9002685546875 187.89846801757813 51.621795654296875 187.00225830078125 65.96102905273438 181.62506103515625 85.2293701171875 171.766845703125 101.36102294921876 160.1162109375 108.97869873046876 153.8428192138672 121.9736328125 139.05548095703125 121.9736328125 139.05548095703125 " />
        <polyline stroke="black" stroke-width="3" stroke-linecap="round" fill="transparent" stroke-linejoin="round" points="144.378662109375 76.32135009765625 149.30780029296875 74.52896118164063 154.2369384765625 72.736572265625 159.6141357421875 70.94415283203125 168.57611083984375 68.70365905761719 176.6419677734375 67.80746459960938 177.98626708984375 67.80746459960938 177.98626708984375 67.80746459960938 " />
        <polyline stroke="black" stroke-width="3" stroke-linecap="round" fill="transparent" stroke-linejoin="round" points="139.897705078125 115.75427246093753 145.72299194335938 113.96185302734376 151.54827880859375 112.16943359375 162.302734375 108.58464050292967 169.47235107421875 106.3441162109375 171.2647705078125 106.3441162109375 171.2647705078125 106.3441162109375 " />
        <polyline stroke="black" stroke-width="3" stroke-linecap="round" fill="transparent" stroke-linejoin="round" points="121.07742309570313 161.0124053955078 129.14324951171875 158.77191162109375 137.20907592773438 156.5314178466797 145.27487182617188 153.8428192138672 153.3406982421875 150.7061004638672 168.1280517578125 144.43270874023438 179.7786865234375 134.574462890625 179.7786865234375 134.574462890625 " />
        <polyline stroke="black" stroke-width="3" stroke-linecap="round" fill="transparent" stroke-linejoin="round" points="163.19891357421875 40.47332763671875 160.06219482421875 59.293548583984375 156.92547607421875 78.11376953125 152.44451904296875 115.75424194335938 148.85968017578125 150.7061004638672 147.0672607421875 165.9415283203125 144.378662109375 194.6199951171875 142.13818359375 225.5389404296875 142.13818359375 225.5389404296875 " />
        </svg>