<?xml version="1.0" standalone="no"?>
    <svg width="256" height="256" xmlns="http://www.w3.org/2000/svg" version="1.1">
    <polyline stroke="black" stroke-width="3" stroke-linecap="round" fill="transparent" stroke-linejoin="round" points="66.40786743164063 97.04815673828122 72.50335693359375 95.8290557861328 78.59884643554688 94.60995483398438 85.1007080078125 93.390869140625 91.19622802734376 92.578125 97.69805908203124 91.76541137695313 110.29537963867188 88.10812377929688 110.29537963867188 88.10812377929688 " />
        <polyline stroke="black" stroke-width="3" stroke-linecap="round" fill="transparent" stroke-linejoin="round" points="93.63442993164065 69.8216552734375 90.38348388671876 81.19989013671875 87.13253784179688 92.578125 76.5670166015625 125.49375915527344 69.6588134765625 143.78021240234375 55.436004638671875 169.3812713623047 49.34051513671875 176.2894744873047 46.90234375 178.32131958007813 46.495941162109375 177.91494750976563 50.55963134765625 174.25765991210938 63.969696044921875 165.72396850585938 80.22430419921875 156.37754821777344 97.69805908203124 146.21841430664063 108.669921875 139.716552734375 108.669921875 139.716552734375 " />
        <polyline stroke="black" stroke-width="3" stroke-linecap="round" fill="transparent" stroke-linejoin="round" points="149.712890625 65.75799560546875 156.2147216796875 63.726165771484375 162.716552734375 61.6943359375 175.72027587890625 58.03704833984375 188.317626953125 55.19248962402344 196.851318359375 53.97338104248047 196.851318359375 53.97338104248047 " />
        <polyline stroke="black" stroke-width="3" stroke-linecap="round" fill="transparent" stroke-linejoin="round" points="125.7373046875 113.3027801513672 139.9600830078125 113.3027801513672 154.182861328125 113.3027801513672 161.90380859375 112.89642333984376 168.81207275390625 112.08367919921876 168.81207275390625 112.08367919921876 " />
        <polyline stroke="black" stroke-width="3" stroke-linecap="round" fill="transparent" stroke-linejoin="round" points="100.94897460937499 166.94305419921875 111.51449584960938 166.94305419921875 122.08001708984376 166.94305419921875 133.458251953125 166.13034057617188 144.02377319335938 164.91123962402344 167.1866455078125 160.8475799560547 194.4130859375 148.65660095214844 194.4130859375 148.65660095214844 " />
        <polyline stroke="black" stroke-width="3" stroke-linecap="round" fill="transparent" stroke-linejoin="round" points="173.6883544921875 21.464126586914063 169.624755859375 33.24873352050781 165.5611572265625 45.03334045410156 161.49749755859375 60.475250244140625 157.8402099609375 77.948974609375 153.3701171875 113.70916748046876 151.33837890625 148.65660095214844 150.11923217773438 180.7595062255859 148.900146484375 198.63958740234375 148.900146484375 198.63958740234375 " />
        </svg>