<?xml version="1.0" standalone="no"?>
    <svg width="256" height="256" xmlns="http://www.w3.org/2000/svg" version="1.1">
    <polyline stroke="black" stroke-width="3" stroke-linecap="round" fill="transparent" stroke-linejoin="round" points="56 124 55 124 54 124 57 123 68 119 84 116 98 115 98 115 " />
        <polyline stroke="black" stroke-width="3" stroke-linecap="round" fill="transparent" stroke-linejoin="round" points="79 90 79 99 79 108 79 112 78 131 77 140 77 149 77 149 " />
        <polyline stroke="black" stroke-width="3" stroke-linecap="round" fill="transparent" stroke-linejoin="round" points="55 174 55 175 55 176 59 174 66 169 86 156 103 145 108 142 114 139 114 139 " />
        <polyline stroke="black" stroke-width="3" stroke-linecap="round" fill="transparent" stroke-linejoin="round" points="132 94 130 94 128 94 129 94 132 93 134 93 143 93 149 93 160 93 167 93 168 94 170 94 170 94 " />
        <polyline stroke="black" stroke-width="3" stroke-linecap="round" fill="transparent" stroke-linejoin="round" points="144 113 142 114 140 115 138 115 145 115 154 115 162 116 164 116 164 116 " />
        <polyline stroke="black" stroke-width="3" stroke-linecap="round" fill="transparent" stroke-linejoin="round" points="114 144 127 142 140 140 156 139 171 139 182 139 185 139 185 139 " />
        <polyline stroke="black" stroke-width="3" stroke-linecap="round" fill="transparent" stroke-linejoin="round" points="161 38 159 45 157 52 153 73 151 104 149 139 149 174 148 199 148 209 148 209 " />
        </svg>