<?xml version="1.0" standalone="no"?>
    <svg width="256" height="256" xmlns="http://www.w3.org/2000/svg" version="1.1">
    <polyline stroke="black" stroke-width="3" stroke-linecap="round" fill="transparent" stroke-linejoin="round" points="50.939208984375 83.2584228515625 53.365203857421875 97.41912841796876 55.761199951171875 129.1749267578125 55.520843505859375 139.60647583007813 53.553680419921875 154.76634216308594 52.652099609375 157.1766815185547 51.77508544921875 157.99461364746094 51.75408935546875 158.01419067382813 51.751190185546875 158.01687622070313 52.57586669921875 157.45458984375 54.34173583984375 156.814697265625 65.45809936523438 154.06748962402344 74.60797119140625 151.53099060058594 93.1650390625 147.58975219726563 101.9696044921875 146.33555603027344 113.09710693359376 145.4944305419922 117.47735595703124 145.598876953125 121.90289306640624 146.02134704589844 122.15219116210938 146.0615234375 122.18359375 146.06655883789063 " />
        <polyline stroke="black" stroke-width="3" stroke-linecap="round" fill="transparent" stroke-linejoin="round" points="141.80560302734375 92.85134887695313 142.624755859375 103.36613464355467 141.906982421875 119.03567504882813 140.42828369140625 124.7759246826172 134.18804931640625 131.66171264648438 133.91427612304688 129.91891479492188 " />
        <polyline stroke="black" stroke-width="3" stroke-linecap="round" fill="transparent" stroke-linejoin="round" points="91.67721557617188 29.35174560546875 93.47628784179688 42.75847625732422 95.2718505859375 56.958892822265625 98.32861328125 96.50489807128906 99.04559326171876 121.98507690429688 96.09088134765624 170.07261657714844 91.92132568359376 197.62667846679688 80.72482299804688 229.1900329589844 80.27862548828125 224.3919982910156 " />
        <polyline stroke="black" stroke-width="3" stroke-linecap="round" fill="transparent" stroke-linejoin="round" points="167.7374267578125 42.25252532958984 170.25103759765625 63.64103698730469 174.80145263671875 116.96978759765624 176.6917724609375 164.56260681152344 176.4677734375 182.7930603027344 178.5872802734375 214.5546875 178.9361572265625 221.88720703125 178.9710693359375 222.6204833984375 " />
        </svg>