<?xml version="1.0" standalone="no"?>
    <svg width="256" height="256" xmlns="http://www.w3.org/2000/svg" version="1.1">
    <polyline stroke="black" stroke-width="3" stroke-linecap="round" fill="transparent" stroke-linejoin="round" points="58.10369873046875 98.5228271484375 56.891448974609375 103.371826171875 56.083251953125 111.4534912109375 56.48736572265625 117.91879272460938 58.10369873046875 123.171875 60.528167724609375 126.80862426757813 63.760833740234375 129.63720703125 69.013916015625 132.0616912841797 76.28741455078125 132.46575927734375 84.36907958984375 131.25352478027344 93.25888061523438 128.42495727539063 102.95684814453124 123.9800262451172 113.46298217773438 116.70654296875 118.716064453125 111.85757446289063 118.716064453125 111.85757446289063 " />
        <polyline stroke="black" stroke-width="3" stroke-linecap="round" fill="transparent" stroke-linejoin="round" points="137.70794677734375 92.8656768798828 138.11203002929688 100.5432586669922 137.70794677734375 107.00857543945313 137.30389404296875 109.83714294433594 137.30389404296875 109.83714294433594 " />
        <polyline stroke="black" stroke-width="3" stroke-linecap="round" fill="transparent" stroke-linejoin="round" points="99.32012939453124 75.08604431152344 98.10784912109376 88.4207763671875 96.08746337890624 101.7554931640625 91.64254760742188 132.0616912841797 89.218017578125 147.0127410888672 87.1976318359375 159.53929138183594 83.15679931640625 180.95567321777344 81.13641357421875 194.2904052734375 79.92416381835938 203.18023681640625 79.92416381835938 203.18023681640625 " />
        <polyline stroke="black" stroke-width="3" stroke-linecap="round" fill="transparent" stroke-linejoin="round" points="176.90399169921875 85.1881103515625 174.07537841796875 111.4534912109375 170.43865966796875 143.7800750732422 169.2264404296875 171.2576904296875 169.6304931640625 189.44140625 170.84271240234375 202.776123046875 171.246826171875 206.41287231445313 171.246826171875 206.41287231445313 " />
        </svg>