<?xml version="1.0" standalone="no"?>
    <svg width="256" height="256" xmlns="http://www.w3.org/2000/svg" version="1.1">
    <polyline stroke="black" stroke-width="3" stroke-linecap="round" fill="transparent" stroke-linejoin="round" points="81 84 80 85 80 89 81 96 83 109 83 121 84 128 85 131 86 132 88 131 90 130 91 129 95 126 101 123 109 120 116 119 121 118 123 117 124 117 124 117 " />
        <polyline stroke="black" stroke-width="3" stroke-linecap="round" fill="transparent" stroke-linejoin="round" points="124 86 124 95 124 104 124 110 124 114 124 116 124 116 " />
        <polyline stroke="black" stroke-width="3" stroke-linecap="round" fill="transparent" stroke-linejoin="round" points="106 68 106 72 106 75 107 90 106 114 104 144 98 171 91 191 86 202 85 204 80 210 79 211 79 211 " />
        <polyline stroke="black" stroke-width="3" stroke-linecap="round" fill="transparent" stroke-linejoin="round" points="158 65 159 75 159 94 160 111 163 141 165 158 166 163 168 179 168 190 168 194 168 195 168 195 " />
        </svg>