<?xml version="1.0" standalone="no"?>
    <svg width="256" height="256" xmlns="http://www.w3.org/2000/svg" version="1.1">
    <polyline stroke="black" stroke-width="3" stroke-linecap="round" fill="transparent" stroke-linejoin="round" points="141.64202880859375 30.5523681640625 126.8358154296875 53.64344024658203 112.02960205078124 76.73451232910156 80.23980712890625 122.04527282714844 70.65933227539063 134.67999267578125 52.36932373046875 153.84994506835938 44.53076171875 161.25650024414063 44.53076171875 161.25650024414063 " />
        <polyline stroke="black" stroke-width="3" stroke-linecap="round" fill="transparent" stroke-linejoin="round" points="132.0615234375 66.71388244628906 144.69033813476563 77.17019653320313 157.31915283203125 87.62651062011719 171.68988037109375 99.38990783691406 181.705810546875 105.9250946044922 199.1248779296875 116.81710815429688 205.2215576171875 120.30255126953124 214.3665771484375 124.22366333007813 214.3665771484375 124.22366333007813 " />
        <polyline stroke="black" stroke-width="3" stroke-linecap="round" fill="transparent" stroke-linejoin="round" points="135.10986328125 113.767333984375 135.10986328125 127.27342224121094 135.10986328125 140.77951049804688 133.80340576171875 162.9992218017578 132.0615234375 169.534423828125 129.44866943359375 176.50531005859375 128.1422119140625 178.24803161621094 128.1422119140625 178.24803161621094 " />
        <polyline stroke="black" stroke-width="3" stroke-linecap="round" fill="transparent" stroke-linejoin="round" points="86.77197265625001 183.47618103027338 96.35244750976563 182.60482788085935 105.93292236328124 181.7334747314453 125.96484375 179.11940002441406 143.81936645507813 176.50531005859375 151.657958984375 174.76260375976563 158.1900634765625 173.45555114746094 171.25439453125 170.8414764404297 176.91558837890625 170.4058074951172 181.27032470703125 169.9700927734375 181.27032470703125 169.9700927734375 " />
        </svg>