<?xml version="1.0" standalone="no"?>
    <svg width="256" height="256" xmlns="http://www.w3.org/2000/svg" version="1.1">
    <polyline stroke="black" stroke-width="3" stroke-linecap="round" fill="transparent" stroke-linejoin="round" points="126.22604370117188 52.347930908203125 118.91146850585938 65.75799560546875 111.59689331054688 79.16806030273438 101.8441162109375 96.6417999267578 71.77304077148438 145.8120574951172 65.27117919921875 155.158447265625 54.29931640625 166.94305419921875 51.04840087890625 167.34942626953125 51.04840087890625 167.34942626953125 " />
        <polyline stroke="black" stroke-width="3" stroke-linecap="round" fill="transparent" stroke-linejoin="round" points="128.66424560546875 58.84979248046875 150.20162963867188 64.94526672363281 171.739013671875 71.04074096679688 193.2763671875 79.98080444335938 205.06103515625 85.669921875 208.71832275390625 87.70175170898438 209.12469482421875 88.10812377929688 209.12469482421875 88.10812377929688 " />
        <polyline stroke="black" stroke-width="3" stroke-linecap="round" fill="transparent" stroke-linejoin="round" points="139.229736328125 99.89271545410156 134.35336303710938 122.64920043945313 129.47698974609375 145.4056854248047 124.19427490234376 168.9748992919922 118.0987548828125 186.4486083984375 112.00326538085938 195.388671875 104.28231811523438 200.67144775390625 97.37408447265624 202.296875 94.12313842773438 201.8905334472656 93.716796875 200.26507568359375 97.37408447265624 197.01412963867188 103.06320190429688 194.16958618164065 120.13058471679688 189.29318237304688 148.98251342773438 185.63589477539065 167.26898193359375 185.22952270507813 167.26898193359375 185.22952270507813 " />
        </svg>