<?xml version="1.0" standalone="no"?>
    <svg width="256" height="256" xmlns="http://www.w3.org/2000/svg" version="1.1">
    <polyline stroke="black" stroke-width="3" stroke-linecap="round" fill="transparent" stroke-linejoin="round" points="64.86053466796875 79.79573059082031 62.88043212890625 92.99623107910156 62.88043212890625 97.9464111328125 67.50057983398438 116.09709167480467 69.15066528320313 117.74714660644533 74.10086059570313 119.06721496582033 74.10086059570313 119.06721496582033 74.10086059570313 119.06721496582033 " />
        <polyline stroke="black" stroke-width="3" stroke-linecap="round" fill="transparent" stroke-linejoin="round" points="125.25277709960938 80.12574768066406 119.31256103515624 90.35612487792967 115.02239990234376 96.62638854980467 80.70111083984375 136.557861328125 74.43084716796875 142.4980926513672 61.890380859375 153.3885040283203 57.27020263671875 157.67864990234375 56.940216064453125 158.9987030029297 70.14071655273438 156.35861206054688 88.2913818359375 148.768310546875 107.10211181640624 137.87791442871094 123.60272216796876 119.06721496582033 135.81317138671875 85.40594482421875 135.81317138671875 85.40594482421875 " />
        <polyline stroke="black" stroke-width="3" stroke-linecap="round" fill="transparent" stroke-linejoin="round" points="98.85174560546876 72.2054443359375 95.55169677734376 85.40594482421875 94.23162841796876 93.98626708984376 92.58154296875 148.4383087158203 93.57156372070313 158.0086669921875 96.211669921875 182.09957885742188 98.1917724609375 198.6001892089844 97.86175537109376 204.5404052734375 95.88168334960938 204.5404052734375 95.88168334960938 204.5404052734375 95.88168334960938 204.5404052734375 " />
        <polyline stroke="black" stroke-width="3" stroke-linecap="round" fill="transparent" stroke-linejoin="round" points="86.97134399414063 152.3984375 68.8206787109375 172.19920349121094 56.610198974609375 191.00991821289065 55.950164794921875 191.99993896484375 55.290130615234375 192.989990234375 55.290130615234375 192.989990234375 55.290130615234375 192.989990234375 " />
        <polyline stroke="black" stroke-width="3" stroke-linecap="round" fill="transparent" stroke-linejoin="round" points="83.01119995117188 149.09832763671875 96.54168701171876 152.72845458984375 102.48190307617188 154.7085723876953 128.222900390625 163.618896484375 132.5130615234375 164.2789306640625 141.09335327148438 163.2888641357422 148.02362060546875 156.68861389160156 148.02362060546875 156.68861389160156 148.02362060546875 156.68861389160156 " />
        <polyline stroke="black" stroke-width="3" stroke-linecap="round" fill="transparent" stroke-linejoin="round" points="135.81317138671875 74.84553527832031 133.17303466796875 84.08589172363281 132.5130615234375 89.69610595703125 133.17303466796875 112.79696655273438 133.50308227539063 115.1070556640625 133.83309936523438 119.06721496582033 133.83309936523438 119.72723388671876 134.49310302734375 116.42709350585938 140.76333618164063 101.2465362548828 152.643798828125 86.06597900390625 167.49432373046875 74.18551635742188 183.66497802734375 66.92524719238281 197.85546875 63.95513916015625 207.755859375 65.27519226074219 213.69610595703125 67.91529846191406 214.6861572265625 77.1556396484375 204.7857666015625 101.5765380859375 180.36480712890625 126.657470703125 167.49432373046875 138.2079315185547 167.49432373046875 138.2079315185547 " />
        <polyline stroke="black" stroke-width="3" stroke-linecap="round" fill="transparent" stroke-linejoin="round" points="117.33248901367188 164.93893432617188 135.483154296875 152.0684356689453 141.75338745117188 148.768310546875 180.69482421875 130.6176300048828 189.27520751953125 127.31752014160156 213.36602783203125 117.74714660644533 229.86669921875 111.1469268798828 233.16680908203125 109.49684143066406 233.16680908203125 109.49684143066406 233.16680908203125 109.49684143066406 " />
        <polyline stroke="black" stroke-width="3" stroke-linecap="round" fill="transparent" stroke-linejoin="round" points="165.18426513671875 112.46696472167967 158.583984375 120.3872528076172 156.27392578125 125.00741577148438 150.333740234375 153.3885040283203 150.333740234375 158.0086669921875 149.34368896484375 169.55908203125 148.68365478515625 176.81936645507813 147.69363403320313 178.79945373535156 146.04354858398438 177.14939880371094 144.39349365234375 157.67864990234375 145.383544921875 144.8081512451172 147.36361694335938 140.18801879882813 150.99371337890625 136.88787841796875 156.9339599609375 132.927734375 167.16436767578125 126.98748779296876 181.3548583984375 121.04728698730467 193.2353515625 117.08714294433594 202.14569091796875 116.42709350585938 208.74591064453125 119.06721496582033 214.026123046875 126.657470703125 216.9962158203125 140.18801879882813 215.6761474609375 157.01864624023438 208.08587646484375 175.16932678222656 204.125732421875 179.78948974609375 204.125732421875 179.78948974609375 " />
        <polyline stroke="black" stroke-width="3" stroke-linecap="round" fill="transparent" stroke-linejoin="round" points="182.34490966796875 131.93768310546875 180.36480712890625 157.3486328125 178.71478271484375 163.618896484375 165.5142822265625 187.04977416992188 162.54412841796875 189.6898498535156 152.97381591796875 192.989990234375 147.0335693359375 191.99993896484375 144.39349365234375 189.6898498535156 144.39349365234375 187.04977416992188 150.00369262695313 182.4296112060547 166.17431640625 176.15936279296875 182.01495361328125 173.18923950195313 196.2054443359375 170.879150390625 206.76580810546875 170.2191162109375 210.06597900390625 170.879150390625 210.06597900390625 170.879150390625 " />
        </svg>