<?xml version="1.0" standalone="no"?>
    <svg width="256" height="256" xmlns="http://www.w3.org/2000/svg" version="1.1">
    <polyline stroke="black" stroke-width="3" stroke-linecap="round" fill="transparent" stroke-linejoin="round" points="39.779571533203125 90.026123046875 38.789520263671875 122.03733825683594 42.749664306640625 148.768310546875 43.739715576171875 149.4283447265625 54.630126953125 143.81814575195313 54.630126953125 143.81814575195313 54.630126953125 143.81814575195313 " />
        <polyline stroke="black" stroke-width="3" stroke-linecap="round" fill="transparent" stroke-linejoin="round" points="117.33248901367188 85.40594482421875 100.50189208984376 103.55662536621094 64.86053466796875 132.927734375 43.40972900390625 147.4482879638672 41.429595947265625 149.4283447265625 43.079681396484375 148.768310546875 55.950164794921875 144.14813232421875 72.78082275390625 139.19796752929688 91.59149169921876 134.57777404785156 108.75213623046876 125.33743286132813 108.75213623046876 125.33743286132813 108.75213623046876 125.33743286132813 " />
        <polyline stroke="black" stroke-width="3" stroke-linecap="round" fill="transparent" stroke-linejoin="round" points="67.83062744140625 72.865478515625 64.20046997070313 98.93644714355467 65.85055541992188 162.29881286621094 72.45077514648438 213.45074462890625 72.78082275390625 220.05099487304688 72.78082275390625 220.05099487304688 72.78082275390625 220.05099487304688 " />
        <polyline stroke="black" stroke-width="3" stroke-linecap="round" fill="transparent" stroke-linejoin="round" points="57.27020263671875 142.16806030273438 49.349945068359375 151.0784149169922 31.8592529296875 183.41964721679688 29.5491943359375 191.00991821289065 29.5491943359375 191.00991821289065 29.5491943359375 191.00991821289065 " />
        <polyline stroke="black" stroke-width="3" stroke-linecap="round" fill="transparent" stroke-linejoin="round" points="61.560394287109375 156.02859497070313 77.07095336914063 160.64877319335938 106.112060546875 169.88912963867188 124.59274291992188 139.19796752929688 128.222900390625 125.00741577148438 128.222900390625 125.00741577148438 " />
        <polyline stroke="black" stroke-width="3" stroke-linecap="round" fill="transparent" stroke-linejoin="round" points="116.012451171875 84.4158935546875 115.35238647460938 102.236572265625 116.67242431640624 116.75711059570313 117.99252319335938 120.0572509765625 122.6126708984375 105.20668029785156 148.35366821289063 83.09585571289063 171.78448486328125 74.84553527832031 185.31500244140625 79.79573059082031 188.61517333984375 98.27642822265624 188.61517333984375 98.27642822265624 188.61517333984375 98.27642822265624 " />
        <polyline stroke="black" stroke-width="3" stroke-linecap="round" fill="transparent" stroke-linejoin="round" points="94.56161499023438 166.9189910888672 107.43209838867188 157.3486328125 149.013671875 137.2178955078125 157.26397705078125 134.9077911376953 184.32501220703125 128.9675750732422 208.4158935546875 124.347412109375 223.26641845703125 123.6873779296875 225.90655517578125 124.347412109375 225.90655517578125 124.347412109375 " />
        <polyline stroke="black" stroke-width="3" stroke-linecap="round" fill="transparent" stroke-linejoin="round" points="135.81317138671875 121.04728698730467 134.1630859375 147.11825561523438 136.47320556640625 184.07965087890625 136.80319213867188 193.32000732421875 136.80319213867188 193.32000732421875 136.80319213867188 193.32000732421875 " />
        <polyline stroke="black" stroke-width="3" stroke-linecap="round" fill="transparent" stroke-linejoin="round" points="133.17303466796875 135.56781005859375 141.75338745117188 129.297607421875 163.8642578125 118.4071807861328 168.484375 117.08714294433594 179.704833984375 115.1070556640625 187.955078125 116.42709350585938 194.55535888671875 121.70730590820313 200.16558837890625 137.2178955078125 201.48565673828125 154.3785400390625 198.18548583984375 169.2290802001953 192.5753173828125 175.16932678222656 189.60516357421875 175.82933044433594 189.60516357421875 175.82933044433594 " />
        <polyline stroke="black" stroke-width="3" stroke-linecap="round" fill="transparent" stroke-linejoin="round" points="158.9140625 121.04728698730467 159.24407958984375 129.6276092529297 160.23406982421875 166.5889892578125 152.31378173828125 191.00991821289065 152.31378173828125 191.00991821289065 152.31378173828125 191.00991821289065 " />
        <polyline stroke="black" stroke-width="3" stroke-linecap="round" fill="transparent" stroke-linejoin="round" points="128.88290405273438 192.65997314453125 140.10336303710938 185.72970581054688 176.07470703125 172.52923583984375 199.50555419921875 173.51927185058594 199.50555419921875 173.51927185058594 199.50555419921875 173.51927185058594 " />
        </svg>