<?xml version="1.0" standalone="no"?>
    <svg width="256" height="256" xmlns="http://www.w3.org/2000/svg" version="1.1">
    <polyline stroke="black" stroke-width="3" stroke-linecap="round" fill="transparent" stroke-linejoin="round" points="80.64532470703125 103.066162109375 87.71868896484375 101.29782104492188 96.11834716796876 98.20323181152344 106.7283935546875 93.7823486328125 106.7283935546875 93.7823486328125 " />
        <polyline stroke="black" stroke-width="3" stroke-linecap="round" fill="transparent" stroke-linejoin="round" points="81.08740234375 69.0255126953125 78.876953125 80.07768249511719 75.7823486328125 93.34027099609376 72.687744140625 107.48704528808594 64.2880859375 137.10679626464844 55.88848876953125 164.07406616210938 50.141357421875 180.43125915527344 47.0467529296875 189.27297973632813 45.278411865234375 193.25177001953125 45.278411865234375 193.25177001953125 " />
        <polyline stroke="black" stroke-width="3" stroke-linecap="round" fill="transparent" stroke-linejoin="round" points="97.88665771484376 127.822998046875 102.74960327148438 131.8017578125 107.612548828125 135.78054809570313 116.8963623046875 141.9697723388672 122.201416015625 142.8539276123047 122.201416015625 142.8539276123047 " />
        <polyline stroke="black" stroke-width="3" stroke-linecap="round" fill="transparent" stroke-linejoin="round" points="171.27294921875 48.247467041015625 166.4100341796875 55.76293182373047 163.3154296875 58.8575439453125 158.01043701171875 62.83631896972656 152.70538330078125 66.81509399414063 151.37908935546875 67.69926452636719 151.37908935546875 68.141357421875 152.70538330078125 68.58343505859375 171.715087890625 67.25717163085938 192.051025390625 62.83631896972656 208.408203125 58.41545104980469 219.9024658203125 55.32084655761719 222.9970703125 55.32084655761719 222.9970703125 55.32084655761719 " />
        <polyline stroke="black" stroke-width="3" stroke-linecap="round" fill="transparent" stroke-linejoin="round" points="139.00070190429688 143.73809814453125 150.49496459960938 138.87515258789063 156.2420654296875 135.78054809570313 162.87335205078125 130.9176025390625 166.8521728515625 127.822998046875 166.8521728515625 127.822998046875 " />
        <polyline stroke="black" stroke-width="3" stroke-linecap="round" fill="transparent" stroke-linejoin="round" points="146.51617431640625 109.69744873046876 143.86361694335938 119.86544799804688 141.21112060546875 130.4755096435547 135.02191162109375 149.92730712890625 129.27484130859375 164.95823669433594 126.62228393554688 171.14744567871094 124.411865234375 175.126220703125 123.0855712890625 177.7787322998047 123.0855712890625 177.7787322998047 " />
        <polyline stroke="black" stroke-width="3" stroke-linecap="round" fill="transparent" stroke-linejoin="round" points="141.6531982421875 165.8424072265625 145.63201904296875 167.6107635498047 154.4737548828125 170.7053680419922 154.4737548828125 170.7053680419922 " />
        <polyline stroke="black" stroke-width="3" stroke-linecap="round" fill="transparent" stroke-linejoin="round" points="194.70355224609375 119.86544799804688 207.08197021484375 116.77085876464844 220.78662109375 112.3499755859375 233.1650390625 105.27659606933594 233.1650390625 105.27659606933594 " />
        <polyline stroke="black" stroke-width="3" stroke-linecap="round" fill="transparent" stroke-linejoin="round" points="212.38702392578125 84.94062805175781 207.9661865234375 105.27659606933594 205.31365966796875 116.77085876464844 202.218994140625 128.26507568359375 196.02978515625 149.92730712890625 189.840576171875 169.82119750976563 184.53558349609375 183.9679412841797 181.44097900390625 189.715087890625 180.55682373046875 190.15716552734375 180.55682373046875 190.15716552734375 " />
        <polyline stroke="black" stroke-width="3" stroke-linecap="round" fill="transparent" stroke-linejoin="round" points="208.850341796875 140.20140075683594 213.27117919921875 144.18017578125 218.1341552734375 149.0431365966797 232.2808837890625 166.28448486328125 236.7017822265625 172.0316162109375 236.7017822265625 172.0316162109375 " />
        </svg>