<?xml version="1.0" standalone="no"?>
    <svg width="256" height="256" xmlns="http://www.w3.org/2000/svg" version="1.1">
    <polyline stroke="black" stroke-width="3" stroke-linecap="round" fill="transparent" stroke-linejoin="round" points="41 115 42 115 44 115 46 115 51 114 58 113 64 112 70 110 76 109 81 108 87 105 92 102 97 98 99 95 " />
        <polyline stroke="black" stroke-width="3" stroke-linecap="round" fill="transparent" stroke-linejoin="round" points="77 63 76 67 74 74 72 86 71 97 69 108 67 120 66 131 64 142 62 152 60 161 58 170 56 177 54 184 54 186 54 187 54 188 " />
        <polyline stroke="black" stroke-width="3" stroke-linecap="round" fill="transparent" stroke-linejoin="round" points="72 139 74 139 77 139 80 140 83 143 86 146 90 149 94 153 99 157 104 160 109 163 114 164 117 164 " />
        <polyline stroke="black" stroke-width="3" stroke-linecap="round" fill="transparent" stroke-linejoin="round" points="140 39 140 36 140 35 140 37 139 43 137 50 135 59 132 69 127 79 123 87 118 95 116 98 114 100 " />
        <polyline stroke="black" stroke-width="3" stroke-linecap="round" fill="transparent" stroke-linejoin="round" points="100 105 101 104 104 102 110 99 115 97 121 94 127 92 134 90 141 87 149 85 156 82 163 81 170 80 175 81 177 82 " />
        <polyline stroke="black" stroke-width="3" stroke-linecap="round" fill="transparent" stroke-linejoin="round" points="110 133 109 133 111 132 113 131 118 130 123 129 129 127 136 125 143 123 150 121 160 118 165 116 170 113 171 112 172 111 " />
        <polyline stroke="black" stroke-width="3" stroke-linecap="round" fill="transparent" stroke-linejoin="round" points="139 106 136 110 133 116 130 122 127 129 125 137 123 145 121 153 120 161 118 170 118 175 118 179 117 182 118 183 118 183 119 182 " />
        <polyline stroke="black" stroke-width="3" stroke-linecap="round" fill="transparent" stroke-linejoin="round" points="127 146 129 145 131 145 133 146 138 147 141 149 145 150 148 152 151 154 154 155 156 157 159 158 160 159 162 159 " />
        <polyline stroke="black" stroke-width="3" stroke-linecap="round" fill="transparent" stroke-linejoin="round" points="151 125 151 125 152 124 154 123 155 123 158 122 161 121 165 120 169 119 173 117 178 115 183 112 185 110 " />
        <polyline stroke="black" stroke-width="3" stroke-linecap="round" fill="transparent" stroke-linejoin="round" points="169 95 166 100 161 110 157 119 154 129 152 139 150 148 149 157 148 164 147 171 147 176 147 179 148 182 149 183 150 183 " />
        <polyline stroke="black" stroke-width="3" stroke-linecap="round" fill="transparent" stroke-linejoin="round" points="162 141 164 141 166 141 169 142 172 143 176 146 180 149 184 153 189 159 193 165 197 172 202 179 204 183 " />
        </svg>