<?xml version="1.0" standalone="no"?>
    <svg width="256" height="256" xmlns="http://www.w3.org/2000/svg" version="1.1">
    <polyline stroke="black" stroke-width="3" stroke-linecap="round" fill="transparent" stroke-linejoin="round" points="57.059295654296875 105.07579040527344 65.03134155273438 101.45216369628906 72.76181030273438 98.070068359375 77.59335327148438 96.37905883789063 83.39117431640625 94.9295654296875 87.73956298828125 94.4464111328125 89.43060302734375 94.9295654296875 89.43060302734375 94.9295654296875 " />
        <polyline stroke="black" stroke-width="3" stroke-linecap="round" fill="transparent" stroke-linejoin="round" points="60.6829833984375 75.12028503417969 58.508758544921875 86.95755004882813 56.576141357421875 102.90159606933594 54.8851318359375 119.32882690429688 51.5030517578125 138.1718292236328 46.429901123046875 157.73953247070313 41.598419189453125 175.13308715820313 37.733184814453125 195.18392944335935 36.5252685546875 205.57177734375 36.0421142578125 214.26852416992188 36.0421142578125 219.8247985839844 36.766876220703125 223.20687866210935 37.008453369140625 223.93161010742188 37.008453369140625 223.93161010742188 " />
        <polyline stroke="black" stroke-width="3" stroke-linecap="round" fill="transparent" stroke-linejoin="round" points="67.93026733398438 167.6442108154297 72.03704833984375 179.23989868164063 76.14385986328125 190.11083984375 78.31805419921875 197.84130859375 81.21697998046875 204.12228393554688 83.87432861328125 208.47067260742188 86.04852294921875 212.0943298339844 86.04852294921875 212.0943298339844 " />
        <polyline stroke="black" stroke-width="3" stroke-linecap="round" fill="transparent" stroke-linejoin="round" points="114.31301879882813 90.0980224609375 112.86355590820313 95.41275024414063 105.13311767578124 116.42990112304688 99.81838989257813 130.6829376220703 95.95318603515624 143.9696807861328 89.91375732421875 158.70584106445313 86.53167724609375 170.30154418945313 86.53167724609375 170.30154418945313 " />
        <polyline stroke="black" stroke-width="3" stroke-linecap="round" fill="transparent" stroke-linejoin="round" points="126.1502685546875 117.87937927246094 136.054931640625 131.89083862304688 141.12802124023438 142.2786407470703 143.785400390625 152.6664276123047 147.16741943359375 162.5710906982422 149.3416748046875 168.36892700195313 150.3079833984375 171.75100708007813 150.06634521484375 172.95887756347656 149.82479858398438 174.64991760253906 149.82479858398438 174.64991760253906 " />
        <polyline stroke="black" stroke-width="3" stroke-linecap="round" fill="transparent" stroke-linejoin="round" points="122.526611328125 153.39117431640625 122.76821899414063 158.4642791748047 123.2513427734375 168.61050415039063 122.76821899414063 172.95887756347656 122.2850341796875 184.796142578125 121.56033325195313 190.8355712890625 121.56033325195313 190.8355712890625 " />
        <polyline stroke="black" stroke-width="3" stroke-linecap="round" fill="transparent" stroke-linejoin="round" points="119.627685546875 199.77389526367188 123.00979614257813 200.01547241210935 130.74026489257813 199.77389526367188 137.7459716796875 199.5323486328125 142.3359375 199.29074096679688 147.4090576171875 199.29074096679688 151.515869140625 199.29074096679688 152.7237548828125 199.29074096679688 152.7237548828125 199.29074096679688 " />
        <polyline stroke="black" stroke-width="3" stroke-linecap="round" fill="transparent" stroke-linejoin="round" points="163.11151123046875 114.01414489746094 169.39251708984375 112.32310485839844 178.33087158203125 112.56466674804688 186.30291748046875 114.98045349121094 194.03338623046875 116.18833923339844 204.421142578125 114.25570678710938 205.87060546875 114.01414489746094 209.97747802734375 111.83993530273438 209.97747802734375 111.83993530273438 " />
        <polyline stroke="black" stroke-width="3" stroke-linecap="round" fill="transparent" stroke-linejoin="round" points="179.29718017578125 96.37905883789063 177.8477783203125 103.38475036621094 176.63983154296875 112.08151245117188 172.04986572265625 137.93023681640625 169.39251708984375 152.6664276123047 168.90936279296875 159.9137420654297 166.97674560546875 182.38037109375 166.73516845703125 195.18392944335935 166.97674560546875 200.01547241210935 166.97674560546875 200.01547241210935 " />
        <polyline stroke="black" stroke-width="3" stroke-linecap="round" fill="transparent" stroke-linejoin="round" points="190.40966796875 150.9753875732422 195.96600341796875 165.2284393310547 202.488525390625 178.03199768066406 205.87060546875 188.66140747070313 208.28643798828125 197.1165771484375 210.218994140625 204.60546875 212.151611328125 210.6448974609375 212.151611328125 210.6448974609375 " />
        </svg>