<?xml version="1.0" standalone="no"?>
    <svg width="256" height="256" xmlns="http://www.w3.org/2000/svg" version="1.1">
    <polyline stroke="black" stroke-width="3" stroke-linecap="round" fill="transparent" stroke-linejoin="round" points="113.06671142578124 30.20001220703125 115.73336791992188 46.4666748046875 116.53335571289063 54.20001220703125 117.60003662109376 73.13334655761719 117.86672973632813 95.53334045410156 117.86672973632813 117.66668701171876 117.86672973632813 136.33334350585938 117.86672973632813 157.40000915527344 118.13336181640624 167.00001525878906 118.4000244140625 173.1333465576172 118.4000244140625 176.0666961669922 118.4000244140625 176.60000610351563 114.933349609375 175.00001525878906 108.80001831054688 169.933349609375 105.33334350585938 166.7333526611328 102.66671752929688 163.26669311523438 102.66671752929688 163.26669311523438 " />
        <polyline stroke="black" stroke-width="3" stroke-linecap="round" fill="transparent" stroke-linejoin="round" points="114.933349609375 86.73333740234375 100.2667236328125 100.86669921875 86.4000244140625 111.00001525878906 69.33334350585938 121.40000915527344 54.4000244140625 128.86669921875 45.333343505859375 132.0666961669922 43.20001220703125 131.80001831054688 44.800018310546875 130.46669006347656 44.800018310546875 130.46669006347656 " />
        <polyline stroke="black" stroke-width="3" stroke-linecap="round" fill="transparent" stroke-linejoin="round" points="154.666748046875 22.73333740234375 154.13336181640625 30.4666748046875 154.666748046875 44.866676330566406 154.933349609375 75.53334045410156 153.3333740234375 100.33334350585938 151.73333740234375 124.33334350585938 150.933349609375 144.60000610351563 150.4000244140625 160.0666961669922 150.13336181640625 177.1333465576172 150.13336181640625 185.4000244140625 151.20001220703125 191.2666931152344 152 194.73333740234375 152 194.73333740234375 152 194.73333740234375 " />
        <polyline stroke="black" stroke-width="3" stroke-linecap="round" fill="transparent" stroke-linejoin="round" points="152 113.40000915527344 157.06671142578125 116.86669921875 163.46673583984375 123.26669311523438 174.66668701171875 132.33334350585938 182.66668701171875 136.33334350585938 190.933349609375 138.46669006347656 198.4000244140625 138.46669006347656 202.66668701171875 137.66668701171875 202.66668701171875 136.86669921875 202.66668701171875 136.86669921875 " />
        </svg>