<?xml version="1.0" standalone="no"?>
    <svg width="256" height="256" xmlns="http://www.w3.org/2000/svg" version="1.1">
    <polyline stroke="black" stroke-width="3" stroke-linecap="round" fill="transparent" stroke-linejoin="round" points="109.29031372070313 50.47418975830078 111.87176513671876 69.83517456054688 112.51715087890624 89.19615173339844 112.51715087890624 117.59225463867188 111.87176513671876 136.9532470703125 111.22640991210938 156.31422424316406 108.64495849609376 171.1576385498047 104.77276611328124 181.48350524902344 100.25518798828124 186.64642333984375 93.801513671875 189.2279052734375 86.05712890625 186.64642333984375 78.312744140625 179.5474090576172 71.85906982421875 164.05860900878906 71.85906982421875 164.05860900878906 " />
        <polyline stroke="black" stroke-width="3" stroke-linecap="round" fill="transparent" stroke-linejoin="round" points="117.03469848632813 103.39421081542967 109.29031372070313 115.65615844726563 98.319091796875 126.62738037109376 81.53955078125 140.18006896972656 64.11468505859375 155.02349853515625 49.9166259765625 165.34934997558594 39.59075927734375 171.80300903320313 32.49176025390625 175.67520141601563 29.264923095703125 176.9659423828125 29.264923095703125 176.9659423828125 " />
        <polyline stroke="black" stroke-width="3" stroke-linecap="round" fill="transparent" stroke-linejoin="round" points="151.88446044921875 46.60198974609375 154.4659423828125 64.02687072753906 154.4659423828125 80.806396484375 153.1751708984375 111.13859558105467 151.88446044921875 135.01715087890625 150.59375 156.31422424316406 150.59375 175.02984619140625 149.9483642578125 189.87326049804688 149.9483642578125 198.90838623046875 149.9483642578125 204.7166748046875 149.9483642578125 207.29815673828125 149.9483642578125 204.7166748046875 149.9483642578125 204.7166748046875 " />
        <polyline stroke="black" stroke-width="3" stroke-linecap="round" fill="transparent" stroke-linejoin="round" points="151.88446044921875 122.1098175048828 168.01861572265625 119.52835083007813 180.28057861328125 121.46446228027344 194.4786376953125 125.33665466308594 205.4498291015625 130.4995880126953 214.4849853515625 138.88934326171875 214.4849853515625 138.88934326171875 " />
        </svg>