<?xml version="1.0" standalone="no"?>
    <svg width="256" height="256" xmlns="http://www.w3.org/2000/svg" version="1.1">
    <polyline stroke="black" stroke-width="3" stroke-linecap="round" fill="transparent" stroke-linejoin="round" points="94.46713256835938 116.99917602539063 94.46713256835938 116.99917602539063 94.46713256835938 116.99917602539063 " />
        <polyline stroke="black" stroke-width="3" stroke-linecap="round" fill="transparent" stroke-linejoin="round" points="138.4701538085937 81.15695190429689 122.11505126953124 101.41560363769533 105.75994873046876 121.67425537109376 97.5823974609375 129.07647705078125 84.342529296875 139.9849853515625 80.05905151367188 143.49130249023438 77.72259521484375 145.4392547607422 77.33319091796875 145.82882690429688 77.72259521484375 145.82882690429688 82.3955078125 145.4392547607422 86.67898559570313 143.49130249023438 97.1929931640625 137.2578582763672 103.03408813476563 133.7515411376953 113.548095703125 127.90769958496094 117.05276489257813 125.57015991210938 120.16802978515624 121.67425537109376 120.16802978515624 121.67425537109376 " />
        <polyline stroke="black" stroke-width="3" stroke-linecap="round" fill="transparent" stroke-linejoin="round" points="109.26458740234376 88.16950988769531 106.92816162109376 100.24681091308594 104.59173583984376 112.32411193847656 97.1929931640625 134.53074645996094 93.29888916015624 142.32252502441406 86.67898559570313 155.95816040039063 83.563720703125 161.4124298095703 78.11203002929688 167.2562713623047 76.16497802734375 168.0354461669922 76.16497802734375 168.0354461669922 " />
        <polyline stroke="black" stroke-width="3" stroke-linecap="round" fill="transparent" stroke-linejoin="round" points="88.23660278320313 143.880859375 102.64468383789063 146.60800170898438 117.05276489257813 149.33514404296875 121.33624267578124 149.7247314453125 127.1773681640625 151.28309631347656 128.3455810546875 152.06227111816406 128.3455810546875 152.84146118164063 128.3455810546875 152.84146118164063 " />
        <polyline stroke="black" stroke-width="3" stroke-linecap="round" fill="transparent" stroke-linejoin="round" points="92.9094543457031 171.54177856445313 93.29888916015624 171.93136596679688 93.68832397460938 172.32095336914063 94.07772827148438 172.7105255126953 94.46713256835938 173.10012817382813 96.02474975585938 173.87930297851563 96.8035888671875 174.65847778320313 97.5823974609375 175.4376678466797 99.1400146484375 176.99603271484375 99.9188232421875 177.38560485839844 99.9188232421875 177.38560485839844 " />
        <polyline stroke="black" stroke-width="3" stroke-linecap="round" fill="transparent" stroke-linejoin="round" points="124.06207275390624 138.81622314453128 114.71630859375 161.4124298095703 105.37054443359376 184.00863647460935 101.0870361328125 190.2420654296875 93.29888916015624 200.76101684570313 90.18365478515624 205.43609619140625 85.5107421875 211.66949462890625 82.784912109375 213.61746215820313 79.28024291992188 215.17581176757813 79.28024291992188 215.17581176757813 " />
        <polyline stroke="black" stroke-width="3" stroke-linecap="round" fill="transparent" stroke-linejoin="round" points="82.78494262695313 181.671142578125 88.62603759765625 184.39825439453125 94.46713256835938 187.1253662109375 103.03408813476563 189.462890625 108.09640502929688 191.41082763671875 117.83157348632813 193.35882568359375 120.55743408203124 194.13796997070313 123.28326416015624 194.91714477539065 124.45150756835938 194.52755737304688 124.45150756835938 194.52755737304688 " />
        <polyline stroke="black" stroke-width="3" stroke-linecap="round" fill="transparent" stroke-linejoin="round" points="146.25836181640625 97.51966857910158 145.86892700195313 106.48025512695313 145.4794921875 115.44084167480467 140.806640625 137.2578582763672 136.91253662109375 148.1663818359375 133.01849365234375 157.90611267089844 126.0091552734375 171.93136596679688 122.89385986328124 177.38560485839844 117.44216918945313 185.17742919921875 117.44216918945313 185.17742919921875 " />
        <polyline stroke="black" stroke-width="3" stroke-linecap="round" fill="transparent" stroke-linejoin="round" points="141.97479248046875 153.62063598632813 145.4794921875 159.07489013671875 148.98419189453125 164.52914428710938 154.4359130859375 168.8146209716797 155.9935302734375 169.5938262939453 157.5511474609375 169.5938262939453 157.5511474609375 169.5938262939453 " />
        <polyline stroke="black" stroke-width="3" stroke-linecap="round" fill="transparent" stroke-linejoin="round" points="186.3673095703125 81.54649353027344 180.52618408203125 109.20738220214844 174.68505859375 136.86827087402344 171.180419921875 146.21841430664063 163.00286865234375 163.36036682128906 158.7193603515625 171.93136596679688 154.4359130859375 179.72314453125 146.25830078125 192.1900329589844 143.14306640625 196.0859375 140.02780151367188 199.20263671875 140.02780151367188 199.20263671875 " />
        <polyline stroke="black" stroke-width="3" stroke-linecap="round" fill="transparent" stroke-linejoin="round" points="172.738037109375 161.80201721191406 178.96856689453125 164.91873168945313 185.1990966796875 168.0354461669922 189.8719482421875 171.54177856445313 191.4295654296875 172.7105255126953 192.20843505859375 173.48971557617188 194.15545654296875 175.4376678466797 194.93426513671875 176.60643005371094 194.93426513671875 176.60643005371094 " />
        </svg>