<?xml version="1.0" standalone="no"?>
    <svg width="256" height="256" xmlns="http://www.w3.org/2000/svg" version="1.1">
    <polyline stroke="black" stroke-width="3" stroke-linecap="round" fill="transparent" stroke-linejoin="round" points="59.117919921875 60.6917724609375 63.766357421875 72.10157775878906 65.45672607421875 75.05966186523438 71.37289428710938 81.821044921875 79.40203857421875 83.9339599609375 85.74081420898438 82.66619873046875 85.74081420898438 82.66619873046875 " />
        <polyline stroke="black" stroke-width="3" stroke-linecap="round" fill="transparent" stroke-linejoin="round" points="127.57675170898438 42.94319152832031 116.16693115234376 59.42401123046875 109.40557861328124 67.45314025878906 101.79904174804688 75.48225402832031 76.86651611328125 96.18893432617188 59.540496826171875 109.2890625 56.5823974609375 111.40200805664063 52.779144287109375 113.09234619140624 54.046875 112.66976928710938 66.3018798828125 108.44390869140624 74.75360107421875 105.48580932617188 101.37643432617188 97.03411865234376 108.98300170898438 94.49859619140624 122.08309936523438 90.27273559570313 130.9573974609375 84.77912902832031 130.9573974609375 84.77912902832031 " />
        <polyline stroke="black" stroke-width="3" stroke-linecap="round" fill="transparent" stroke-linejoin="round" points="103.48934936523438 44.21095275878906 95.03768920898438 61.114349365234375 87.43112182617188 79.2855224609375 82.78271484375 90.69534301757813 70.10516357421875 126.19248962402344 64.18893432617188 140.56039428710938 59.963104248046875 148.58950805664063 57.85015869140625 151.97018432617188 57.427581787109375 151.97018432617188 57.427581787109375 151.97018432617188 " />
        <polyline stroke="black" stroke-width="3" stroke-linecap="round" fill="transparent" stroke-linejoin="round" points="75.59872436523438 128.72801208496094 92.50213623046876 131.26351928710938 98.84091186523438 133.37643432617188 105.1796875 135.48936462402344 125.46380615234376 143.5184783935547 128.844482421875 145.63140869140625 128.844482421875 145.63140869140625 " />
        <polyline stroke="black" stroke-width="3" stroke-linecap="round" fill="transparent" stroke-linejoin="round" points="68.83740234375 157.4637908935547 77.2890625 169.2961883544922 79.40203857421875 171.83169555664063 83.62786865234375 176.0575408935547 85.74081420898438 177.74789428710938 91.656982421875 178.17047119140625 97.57318115234376 173.52203369140625 103.48934936523438 165.492919921875 107.7152099609375 159.9993133544922 108.98300170898438 157.4637908935547 108.56039428710938 157.04119873046875 103.06683349609376 166.33807373046875 91.656982421875 184.93182373046875 80.66976928710938 200.99008178710935 70.95028686523438 212.82244873046875 66.72445678710938 217.04833984375 66.72445678710938 217.04833984375 " />
        <polyline stroke="black" stroke-width="3" stroke-linecap="round" fill="transparent" stroke-linejoin="round" points="42.21453857421875 184.50924682617188 59.540496826171875 190.42544555664065 68.414794921875 194.65130615234375 88.27630615234375 203.52557373046875 114.899169921875 212.39990234375 128.421875 212.82244873046875 128.421875 212.82244873046875 " />
        <polyline stroke="black" stroke-width="3" stroke-linecap="round" fill="transparent" stroke-linejoin="round" points="161.80615234375 78.01776123046875 158.42547607421875 93.65342712402344 155.88995361328125 103.79547119140624 152.50927734375 115.20526123046876 148.70599365234375 126.61508178710938 137.29620361328125 155.3508758544922 130.9573974609375 168.02842712402344 126.3089599609375 175.63494873046875 125.04119873046876 177.32530212402344 125.04119873046876 177.32530212402344 " />
        <polyline stroke="black" stroke-width="3" stroke-linecap="round" fill="transparent" stroke-linejoin="round" points="140.2542724609375 145.63140869140625 151.6640625 148.58950805664063 155.0447998046875 149.85726928710938 158.8480224609375 151.12503051757813 162.22869873046875 152.39276123046875 172.37078857421875 152.39276123046875 172.37078857421875 152.39276123046875 " />
        <polyline stroke="black" stroke-width="3" stroke-linecap="round" fill="transparent" stroke-linejoin="round" points="199.41619873046875 72.524169921875 191.3870849609375 93.23085021972656 187.5838623046875 104.64065551757813 183.78057861328125 116.05046081542967 175.75146484375 137.602294921875 168.5675048828125 155.3508758544922 163.07391357421875 168.45101928710938 159.2706298828125 176.9027099609375 157.15771484375 181.12857055664065 156.3125 182.39633178710935 156.3125 182.39633178710935 " />
        <polyline stroke="black" stroke-width="3" stroke-linecap="round" fill="transparent" stroke-linejoin="round" points="181.24505615234375 149.85726928710938 192.2322998046875 159.57672119140625 196.8807373046875 164.22515869140625 201.9517822265625 169.2961883544922 220.96807861328125 192.11578369140625 220.96807861328125 192.11578369140625 " />
        </svg>