<?xml version="1.0" standalone="no"?>
    <svg width="256" height="256" xmlns="http://www.w3.org/2000/svg" version="1.1">
    <polyline stroke="black" stroke-width="3" stroke-linecap="round" fill="transparent" stroke-linejoin="round" points="96.95037841796876 53.36329650878906 93.855712890625 72.37300109863281 90.76116943359376 84.309326171875 86.7823486328125 98.01400756835938 77.94064331054688 123.65501403808594 68.65682983398438 144.87515258789063 61.141357421875 158.579833984375 53.62591552734375 167.86363220214844 51.41546630859375 168.747802734375 50.973358154296875 166.09530639648438 52.74169921875 158.579833984375 56.720458984375 151.50645446777344 61.58343505859375 146.20140075683594 65.1201171875 143.99099731445313 79.708984375 141.33847045898438 91.64532470703124 143.10679626464844 103.13958740234376 145.7593231201172 112.42333984375 147.9697723388672 118.17050170898438 147.0855712890625 118.17050170898438 147.0855712890625 " />
        <polyline stroke="black" stroke-width="3" stroke-linecap="round" fill="transparent" stroke-linejoin="round" points="167.68414306640625 37.44818115234375 162.82122802734375 71.48883056640625 152.21112060546875 107.73991394042967 147.79025268554688 117.90788269042967 139.390625 132.93882751464844 133.64352416992188 141.78054809570313 130.10678100585938 146.64352416992188 128.33847045898438 148.41184997558594 127.8963623046875 148.41184997558594 132.31723022460938 146.64352416992188 138.50643920898438 144.43307495117188 157.958251953125 139.12803649902344 188.0201416015625 135.59133911132813 199.9564208984375 136.4755096435547 203.93524169921875 137.8017578125 203.93524169921875 137.8017578125 " />
        <polyline stroke="black" stroke-width="3" stroke-linecap="round" fill="transparent" stroke-linejoin="round" points="82.36151123046875 215.1668701171875 99.60287475585938 204.9989013671875 108.88665771484376 201.0201110839844 120.822998046875 196.5992431640625 146.90609741210938 189.08380126953125 159.7265625 186.4312744140625 172.10498046875 184.66290283203125 191.55682373046875 183.7787322998047 205.70355224609375 188.6416931152344 205.70355224609375 188.6416931152344 " />
        </svg>