<?xml version="1.0" standalone="no"?>
    <svg width="256" height="256" xmlns="http://www.w3.org/2000/svg" version="1.1">
    <polyline stroke="black" stroke-width="3" stroke-linecap="round" fill="transparent" stroke-linejoin="round" points="98.73980712890624 63.01622009277344 84.1629638671875 112.6005401611328 77.3604736328125 127.67030334472656 62.78369140625 153.43470764160156 56.467041015625 162.18487548828125 49.66455078125 171.42117309570313 49.17864990234375 172.39341735839844 49.17864990234375 169.9628143310547 49.17864990234375 169.9628143310547 " />
        <polyline stroke="black" stroke-width="3" stroke-linecap="round" fill="transparent" stroke-linejoin="round" points="75.90280151367188 130.10089111328125 88.05014038085938 142.25392150878906 95.82440185546876 150.03182983398438 100.683349609375 154.89308166503906 102.62692260742188 156.83753967285156 102.62692260742188 156.83753967285156 102.62692260742188 156.35142517089844 102.62692260742188 156.35142517089844 " />
        <polyline stroke="black" stroke-width="3" stroke-linecap="round" fill="transparent" stroke-linejoin="round" points="155.58929443359375 79.54432678222656 153.645751953125 89.75285339355469 142.95608520507813 118.43399047851563 135.66766357421875 130.10089111328125 121.5767822265625 149.54571533203125 115.74603271484376 156.83753967285156 108.4576416015625 164.61549377441406 108.4576416015625 164.61549377441406 " />
        <polyline stroke="black" stroke-width="3" stroke-linecap="round" fill="transparent" stroke-linejoin="round" points="123.03445434570313 144.1984100341797 134.2099609375 146.62899780273438 142.47018432617188 147.6012420654297 156.56109619140625 149.05960083007813 162.877685546875 149.54571533203125 170.6519775390625 150.5179901123047 172.10968017578125 150.5179901123047 173.08148193359375 151.0041046142578 173.08148193359375 151.0041046142578 " />
        <polyline stroke="black" stroke-width="3" stroke-linecap="round" fill="transparent" stroke-linejoin="round" points="62.29779052734375 203.99127197265625 97.2821044921875 200.102294921875 114.28839111328124 199.13006591796875 137.1253662109375 196.699462890625 144.89962768554688 193.78271484375 154.131591796875 186.49090576171875 154.131591796875 186.49090576171875 " />
        </svg>