<?xml version="1.0" standalone="no"?>
    <svg width="256" height="256" xmlns="http://www.w3.org/2000/svg" version="1.1">
    <polyline stroke="black" stroke-width="3" stroke-linecap="round" fill="transparent" stroke-linejoin="round" points="107.7152099609375 42.94319152832031 97.99578857421876 72.94674682617188 92.50213623046876 88.15982055664063 86.5859375 102.5277099609375 76.02133178710938 127.03765869140624 71.37289428710938 135.91195678710938 63.34375 150.7024383544922 56.15985107421875 161.26705932617188 55.31463623046875 161.68963623046875 54.892059326171875 156.61862182617188 56.5823974609375 150.7024383544922 61.2308349609375 141.82815551757813 68.83740234375 135.48936462402344 90.81182861328124 132.95384216308594 108.1378173828125 137.17971801757813 123.35089111328124 142.67332458496094 129.26705932617188 145.20883178710938 147.015625 146.89915466308594 147.015625 146.89915466308594 " />
        <polyline stroke="black" stroke-width="3" stroke-linecap="round" fill="transparent" stroke-linejoin="round" points="177.4417724609375 50.54972839355469 171.94818115234375 60.269195556640625 162.65130615234375 82.24362182617188 158.00286865234375 93.65342712402344 149.97372436523438 113.9375 145.74789428710938 123.656982421875 135.6058349609375 143.5184783935547 131.80258178710938 149.85726928710938 130.11224365234375 152.8153533935547 130.53485107421875 152.8153533935547 132.64776611328125 151.97018432617188 151.6640625 144.78623962402344 169.4127197265625 140.56039428710938 186.31610107421875 138.87005615234375 199.41619873046875 139.7152099609375 209.55828857421875 143.09588623046875 209.55828857421875 143.09588623046875 " />
        <polyline stroke="black" stroke-width="3" stroke-linecap="round" fill="transparent" stroke-linejoin="round" points="71.37289428710938 207.328857421875 92.92474365234376 201.41265869140625 103.91195678710938 199.72232055664065 139.40911865234375 196.34164428710935 150.81893920898438 196.34164428710935 174.90625 198.87713623046875 174.90625 198.87713623046875 " />
        </svg>