<?xml version="1.0" standalone="no"?>
    <svg width="256" height="256" xmlns="http://www.w3.org/2000/svg" version="1.1">
    <polyline stroke="black" stroke-width="3" stroke-linecap="round" fill="transparent" stroke-linejoin="round" points="112.48785400390624 62.58821105957031 110.660888671875 72.941162109375 104.5709228515625 92.42904663085938 91.781982421875 121.66087341308594 80.2110595703125 146.02073669433594 70.46710205078125 166.11761474609375 62.5501708984375 181.95152282714844 58.28717041015625 192.30447387695313 58.28717041015625 192.30447387695313 " />
        <polyline stroke="black" stroke-width="3" stroke-linecap="round" fill="transparent" stroke-linejoin="round" points="92.3909912109375 138.7127685546875 103.9619140625 147.2387237548828 110.660888671875 153.93768310546875 117.35983276367188 160.6366424560547 124.05877685546876 166.7266082763672 130.75775146484375 170.9895782470703 139.8927001953125 167.94459533691406 139.8927001953125 167.94459533691406 " />
        <polyline stroke="black" stroke-width="3" stroke-linecap="round" fill="transparent" stroke-linejoin="round" points="173.9964599609375 63.19720458984375 171.560546875 73.55015563964844 164.2525634765625 97.91000366210938 153.2906494140625 128.35983276367188 144.76467895507813 147.84771728515625 138.67471313476563 163.68162536621094 135.62973022460938 171.5985870361328 134.4117431640625 174.03456115722656 136.23870849609375 167.33560180664063 136.23870849609375 167.33560180664063 " />
        <polyline stroke="black" stroke-width="3" stroke-linecap="round" fill="transparent" stroke-linejoin="round" points="158.16259765625 129.57781982421875 175.2144775390625 139.32176208496094 189.221435546875 147.84771728515625 205.664306640625 158.20065307617188 220.2802734375 170.9895782470703 233.67816162109375 186.823486328125 233.67816162109375 186.823486328125 " />
        <polyline stroke="black" stroke-width="3" stroke-linecap="round" fill="transparent" stroke-linejoin="round" points="80.2110595703125 218.4913024902344 94.21795654296876 213.0103454589844 103.3529052734375 211.183349609375 116.7508544921875 209.3563537597656 131.97576904296875 208.13836669921875 152.0726318359375 206.92037963867188 170.9515380859375 205.702392578125 186.785400390625 205.0933837890625 186.785400390625 205.0933837890625 " />
        </svg>