<?xml version="1.0" standalone="no"?>
    <svg width="256" height="256" xmlns="http://www.w3.org/2000/svg" version="1.1">
    <polyline stroke="black" stroke-width="3" stroke-linecap="round" fill="transparent" stroke-linejoin="round" points="100.57659912109376 45.66728973388672 95.96026611328124 58.67694091796875 92.18328857421876 67.90960693359375 87.986572265625 78.82093811035156 82.95062255859375 90.99127197265624 69.94091796875 119.94827270507813 64.90496826171875 131.69891357421875 56.9312744140625 148.06590270996094 52.734619140625 156.459228515625 50.63629150390625 158.97723388671875 50.63629150390625 158.97723388671875 " />
        <polyline stroke="black" stroke-width="3" stroke-linecap="round" fill="transparent" stroke-linejoin="round" points="84.2095947265625 122.04660034179688 95.96026611328124 128.3415985107422 107.291259765625 135.05625915527344 122.81893920898438 144.28890991210938 134.569580078125 147.22659301757813 134.569580078125 147.22659301757813 " />
        <polyline stroke="black" stroke-width="3" stroke-linecap="round" fill="transparent" stroke-linejoin="round" points="166.4642333984375 48.18528747558594 159.3299560546875 66.65060424804688 155.55291748046875 75.88327026367188 139.18588256835938 115.75161743164063 135.40890502929688 125.40391540527344 129.11395263671875 140.09225463867188 127.01556396484376 145.12823486328125 125.3369140625 149.32492065429688 125.3369140625 149.32492065429688 " />
        <polyline stroke="black" stroke-width="3" stroke-linecap="round" fill="transparent" stroke-linejoin="round" points="148.41854858398438 124.9842529296875 164.78558349609375 126.24325561523438 169.40191650390625 127.50225830078124 174.43792724609375 129.180908203125 180.313232421875 132.5382537841797 180.313232421875 132.5382537841797 " />
        <polyline stroke="black" stroke-width="3" stroke-linecap="round" fill="transparent" stroke-linejoin="round" points="77.07528686523438 182.4785614013672 95.96026611328124 174.08523559570313 104.35360717773438 171.56724548339844 112.74691772460938 169.46890258789063 129.5335693359375 167.37057495117188 144.64157104492188 166.95091247558594 153.034912109375 167.37057495117188 168.5626220703125 169.46890258789063 179.473876953125 172.40655517578125 179.473876953125 172.40655517578125 " />
        </svg>