<?xml version="1.0" standalone="no"?>
    <svg width="256" height="256" xmlns="http://www.w3.org/2000/svg" version="1.1">
    <polyline stroke="black" stroke-width="3" stroke-linecap="round" fill="transparent" stroke-linejoin="round" points="85.2667236328125 76.00001525878906 86.3333740234375 108.00001525878906 83.1334228515625 121.86668395996094 73.53338623046875 146.40003967285156 59.66668701171875 167.73338317871094 49.00006103515625 181.60003662109375 41.53338623046875 186.933349609375 36.2000732421875 188 36.2000732421875 188 " />
        <polyline stroke="black" stroke-width="3" stroke-linecap="round" fill="transparent" stroke-linejoin="round" points="84.2000732421875 122.93336486816406 105.53338623046876 137.86668395996094 114.06671142578124 141.06671142578125 119.4000244140625 143.20001220703125 121.53338623046876 142.1333465576172 121.53338623046876 142.1333465576172 " />
        <polyline stroke="black" stroke-width="3" stroke-linecap="round" fill="transparent" stroke-linejoin="round" points="152.466796875 54.66667175292969 149.2667236328125 98.40000915527344 147.1334228515625 110.1333465576172 145 120.8000030517578 134.3333740234375 145.33334350585938 130.0667724609375 153.86668395996094 123.666748046875 158.1333465576172 123.666748046875 158.1333465576172 " />
        <polyline stroke="black" stroke-width="3" stroke-linecap="round" fill="transparent" stroke-linejoin="round" points="157.8001708984375 113.33334350585938 179.1334228515625 128.26669311523438 188.7333984375 133.6000213623047 194.0667724609375 140.00001525878906 194.0667724609375 141.06671142578125 194.0667724609375 141.06671142578125 " />
        <polyline stroke="black" stroke-width="3" stroke-linecap="round" fill="transparent" stroke-linejoin="round" points="56.466796875 205.06671142578125 91.666748046875 194.40005493164065 120.466796875 188 147.1334228515625 184.80001831054688 167.4000244140625 183.73336791992188 177 185.86666870117188 180.2000732421875 192.2666931152344 181.2667236328125 195.4666748046875 181.2667236328125 195.4666748046875 " />
        </svg>