<?xml version="1.0" standalone="no"?>
    <svg width="256" height="256" xmlns="http://www.w3.org/2000/svg" version="1.1">
    <polyline stroke="black" stroke-width="3" stroke-linecap="round" fill="transparent" stroke-linejoin="round" points="63.896942138671875 51.65901184082031 63.896942138671875 66.60600280761719 63.042816162109375 77.28242492675781 62.188690185546875 91.80235290527344 57.491058349609375 135.36215209960938 53.647552490234375 158.42320251464844 51.085205078125 173.37017822265625 49.804046630859375 183.19248962402344 49.37701416015625 189.1712951660156 49.37701416015625 191.30657958984375 49.37701416015625 190.8795166015625 49.37701416015625 190.8795166015625 " />
        <polyline stroke="black" stroke-width="3" stroke-linecap="round" fill="transparent" stroke-linejoin="round" points="50.23114013671875 112.72813415527344 64.323974609375 108.03050231933594 76.28158569335938 104.18699645996094 92.08270263671876 98.63525390625 99.76971435546876 95.6458740234375 104.040283203125 94.3647003173828 104.89437866210938 94.791748046875 104.89437866210938 94.791748046875 " />
        <polyline stroke="black" stroke-width="3" stroke-linecap="round" fill="transparent" stroke-linejoin="round" points="53.22052001953125 159.70437622070313 65.60516357421875 152.01736450195313 75.00042724609375 147.31973266601563 85.249755859375 143.04917907714844 94.21795654296876 138.77859497070313 102.75912475585938 132.7998046875 102.75912475585938 132.7998046875 " />
        <polyline stroke="black" stroke-width="3" stroke-linecap="round" fill="transparent" stroke-linejoin="round" points="115.99786376953124 70.0224609375 114.7166748046875 81.12593078613281 113.862548828125 91.3752899169922 112.15435791015624 132.7998046875 112.15435791015624 161.41259765625 113.862548828125 182.33837890625 115.57080078125 195.15008544921875 117.27902221679688 200.70184326171875 118.13314819335938 201.55593872070313 118.13314819335938 201.55593872070313 " />
        <polyline stroke="black" stroke-width="3" stroke-linecap="round" fill="transparent" stroke-linejoin="round" points="152.7247314453125 58.06486511230469 157.84942626953125 67.46011352539063 160.4117431640625 71.73068237304688 162.97412109375 76.42831420898438 169.3800048828125 84.54238891601563 180.056396484375 91.3752899169922 194.1492919921875 93.93763732910156 206.1068115234375 93.51057434082033 214.22088623046875 91.80235290527344 219.3455810546875 90.0941162109375 222.3349609375 89.24000549316406 223.61614990234375 88.81295776367188 223.1890869140625 89.24000549316406 221.907958984375 90.9482421875 214.64794921875 97.35409545898438 199.70098876953125 111.44696044921876 182.61871337890625 125.5398406982422 167.6717529296875 137.0703582763672 156.99530029296875 143.90325927734375 151.443603515625 147.31973266601563 150.58944702148438 147.74679565429688 154.00592041015625 146.89268493652344 168.52581787109375 141.76800537109375 185.60809326171875 136.21624755859375 201.8363037109375 131.51864624023438 215.92913818359375 127.248046875 229.16790771484375 122.97747802734376 234.71966552734375 119.56103515625 241.12548828125 114.00930786132813 241.12548828125 114.00930786132813 " />
        <polyline stroke="black" stroke-width="3" stroke-linecap="round" fill="transparent" stroke-linejoin="round" points="216.78326416015625 49.95079040527344 212.939697265625 66.178955078125 210.804443359375 75.57418823242188 206.53387451171875 97.35409545898438 202.69036865234375 122.12338256835938 201.4091796875 135.36215209960938 199.27392578125 162.26670837402344 198.4197998046875 184.47366333007813 197.565673828125 202.4100341796875 195.85748291015625 214.79470825195313 195.00335693359375 219.06524658203125 195.00335693359375 219.06524658203125 " />
        <polyline stroke="black" stroke-width="3" stroke-linecap="round" fill="transparent" stroke-linejoin="round" points="203.117431640625 162.26670837402344 185.1810302734375 172.94314575195313 179.62933349609375 177.6407470703125 168.52581787109375 188.7442321777344 156.5682373046875 201.12887573242188 156.5682373046875 201.12887573242188 " />
        <polyline stroke="black" stroke-width="3" stroke-linecap="round" fill="transparent" stroke-linejoin="round" points="197.138671875 159.27731323242188 209.09619140625 162.26670837402344 214.64794921875 164.40200805664063 219.77264404296875 166.5372772216797 224.8973388671875 168.67257690429688 236.0008544921875 174.22430419921875 241.12548828125 178.494873046875 243.6878662109375 181.0572204589844 243.6878662109375 181.0572204589844 " />
        </svg>