<?xml version="1.0" standalone="no"?>
    <svg width="256" height="256" xmlns="http://www.w3.org/2000/svg" version="1.1">
    <polyline stroke="black" stroke-width="3" stroke-linecap="round" fill="transparent" stroke-linejoin="round" points="53.369110107421875 97.1859130859375 54.604034423828125 119.41468811035156 55.838958740234375 141.64346313476563 57.073883056640625 162.6373291015625 58.720428466796875 181.5729827880859 60.3670654296875 195.98052978515625 62.01361083984375 206.27166748046875 62.836883544921875 208.74151611328125 62.836883544921875 208.74151611328125 " />
        <polyline stroke="black" stroke-width="3" stroke-linecap="round" fill="transparent" stroke-linejoin="round" points="71.89300537109374 109.12356567382813 81.77252197265625 107.06533813476563 91.65203857421876 105.00711059570313 97.82669067382813 105.00711059570313 100.29653930664063 105.83041381835938 100.29653930664063 105.83041381835938 " />
        <polyline stroke="black" stroke-width="3" stroke-linecap="round" fill="transparent" stroke-linejoin="round" points="62.013580322265625 160.16746520996094 81.36090087890625 153.1695098876953 100.70822143554688 146.1715545654297 116.35064697265624 141.64346313476563 116.35064697265624 141.64346313476563 " />
        <polyline stroke="black" stroke-width="3" stroke-linecap="round" fill="transparent" stroke-linejoin="round" points="105.23629760742188 36.26251220703125 110.58767700195313 78.66188049316406 115.93905639648438 121.06124877929688 121.29043579101563 162.22569274902344 124.9952392578125 189.39422607421875 128.70004272460938 211.62301635742188 131.58154296875 226.03057861328125 131.9931640625 231.79360961914065 131.9931640625 231.79360961914065 " />
        <polyline stroke="black" stroke-width="3" stroke-linecap="round" fill="transparent" stroke-linejoin="round" points="146.81231689453125 84.83656311035159 160.3966064453125 90.18792724609376 173.98089599609375 95.53929138183594 173.98089599609375 95.53929138183594 " />
        <polyline stroke="black" stroke-width="3" stroke-linecap="round" fill="transparent" stroke-linejoin="round" points="221.731689453125 23.089859008789063 206.08917236328125 48.61182403564453 190.4466552734375 74.1337890625 174.80419921875 97.59751892089844 169.04119873046875 105.00711059570313 169.04119873046875 105.00711059570313 " />
        <polyline stroke="black" stroke-width="3" stroke-linecap="round" fill="transparent" stroke-linejoin="round" points="150.92877197265625 116.12152099609376 168.6295166015625 110.7701416015625 186.33026123046875 105.41876220703124 202.7960205078125 99.2440948486328 202.7960205078125 99.2440948486328 " />
        <polyline stroke="black" stroke-width="3" stroke-linecap="round" fill="transparent" stroke-linejoin="round" points="175.62750244140625 28.85289001464845 176.03912353515625 77.01528930664063 176.45074462890625 125.1776885986328 177.6856689453125 163.46063232421875 178.09735107421875 188.1593017578125 177.6856689453125 206.68328857421875 176.45074462890625 216.15109252929688 176.45074462890625 216.15109252929688 " />
        <polyline stroke="black" stroke-width="3" stroke-linecap="round" fill="transparent" stroke-linejoin="round" points="164.10150146484375 113.65167236328125 155.0452880859375 131.3523712158203 145.98907470703125 149.05307006835938 138.16781616210938 163.46063232421875 131.58154296875 178.2798309326172 124.58355712890624 188.98257446289065 124.58355712890624 188.98257446289065 " />
        <polyline stroke="black" stroke-width="3" stroke-linecap="round" fill="transparent" stroke-linejoin="round" points="179.74395751953125 103.36054992675784 201.14947509765625 122.2961883544922 222.55499267578125 141.23182678222656 246.01873779296875 163.87228393554688 262.48443603515625 180.3380584716797 266.189208984375 184.0428466796875 266.189208984375 184.0428466796875 " />
        </svg>