<?xml version="1.0" standalone="no"?>
    <svg width="256" height="256" xmlns="http://www.w3.org/2000/svg" version="1.1">
    <polyline stroke="black" stroke-width="3" stroke-linecap="round" fill="transparent" stroke-linejoin="round" points="45 52 46 77 47 102 48 145 48 172 48 191 48 204 49 207 49 207 " />
        <polyline stroke="black" stroke-width="3" stroke-linecap="round" fill="transparent" stroke-linejoin="round" points="52 103 55 103 58 103 67 103 85 105 88 108 88 108 " />
        <polyline stroke="black" stroke-width="3" stroke-linecap="round" fill="transparent" stroke-linejoin="round" points="38 180 48 179 58 178 71 172 83 166 88 161 88 161 " />
        <polyline stroke="black" stroke-width="3" stroke-linecap="round" fill="transparent" stroke-linejoin="round" points="98 61 98 73 98 85 97 124 96 153 96 166 96 177 96 194 96 207 97 211 97 211 " />
        <polyline stroke="black" stroke-width="3" stroke-linecap="round" fill="transparent" stroke-linejoin="round" points="122 59 126 65 130 71 139 81 152 91 152 91 " />
        <polyline stroke="black" stroke-width="3" stroke-linecap="round" fill="transparent" stroke-linejoin="round" points="191 66 185 73 179 80 156 105 156 105 " />
        <polyline stroke="black" stroke-width="3" stroke-linecap="round" fill="transparent" stroke-linejoin="round" points="110 122 124 118 138 114 154 110 169 106 182 101 190 95 190 95 " />
        <polyline stroke="black" stroke-width="3" stroke-linecap="round" fill="transparent" stroke-linejoin="round" points="161 42 161 48 161 54 161 72 161 96 161 109 161 147 161 168 160 185 159 199 159 204 159 204 " />
        <polyline stroke="black" stroke-width="3" stroke-linecap="round" fill="transparent" stroke-linejoin="round" points="168 102 149 124 130 146 115 161 107 168 88 180 84 181 84 181 " />
        <polyline stroke="black" stroke-width="3" stroke-linecap="round" fill="transparent" stroke-linejoin="round" points="157 132 167 137 177 142 188 148 203 158 210 164 210 164 " />
        </svg>