<?xml version="1.0" standalone="no"?>
    <svg width="256" height="256" xmlns="http://www.w3.org/2000/svg" version="1.1">
    <polyline stroke="black" stroke-width="3" stroke-linecap="round" fill="transparent" stroke-linejoin="round" points="49 81 49 94 49 107 49 135 49 170 52 195 55 214 58 227 59 237 60 241 60 234 60 234 " />
        <polyline stroke="black" stroke-width="3" stroke-linecap="round" fill="transparent" stroke-linejoin="round" points="42 143 50 141 58 139 70 133 81 129 86 127 96 126 99 126 99 126 " />
        <polyline stroke="black" stroke-width="3" stroke-linecap="round" fill="transparent" stroke-linejoin="round" points="58 190 62 189 66 188 82 181 92 176 97 172 102 169 102 169 " />
        <polyline stroke="black" stroke-width="3" stroke-linecap="round" fill="transparent" stroke-linejoin="round" points="101 73 101 90 101 107 101 140 101 150 102 168 103 183 103 194 103 202 104 209 107 213 107 213 " />
        <polyline stroke="black" stroke-width="3" stroke-linecap="round" fill="transparent" stroke-linejoin="round" points="135 95 137 98 139 101 146 109 155 118 167 125 173 126 173 126 " />
        <polyline stroke="black" stroke-width="3" stroke-linecap="round" fill="transparent" stroke-linejoin="round" points="205 81 202 86 199 91 188 103 182 109 169 120 161 126 148 137 148 137 " />
        <polyline stroke="black" stroke-width="3" stroke-linecap="round" fill="transparent" stroke-linejoin="round" points="115 146 130 142 145 138 161 133 178 128 189 123 198 119 201 116 201 116 " />
        <polyline stroke="black" stroke-width="3" stroke-linecap="round" fill="transparent" stroke-linejoin="round" points="176 64 176 72 176 80 176 121 176 138 176 168 176 181 176 194 176 205 174 212 173 215 172 215 172 215 " />
        <polyline stroke="black" stroke-width="3" stroke-linecap="round" fill="transparent" stroke-linejoin="round" points="161 141 157 146 153 151 142 165 135 173 116 198 112 203 107 209 106 209 106 209 " />
        <polyline stroke="black" stroke-width="3" stroke-linecap="round" fill="transparent" stroke-linejoin="round" points="167 145 175 154 183 163 197 174 217 186 228 190 228 190 " />
        </svg>