<?xml version="1.0" standalone="no"?>
    <svg width="256" height="256" xmlns="http://www.w3.org/2000/svg" version="1.1">
    <polyline stroke="black" stroke-width="3" stroke-linecap="round" fill="transparent" stroke-linejoin="round" points="82 97 81 96 81 97 82 98 82 101 83 104 83 107 83 134 83 155 83 172 83 182 83 187 83 188 83 190 83 189 83 189 " />
        <polyline stroke="black" stroke-width="3" stroke-linecap="round" fill="transparent" stroke-linejoin="round" points="82 145 82 143 83 142 89 139 94 137 100 135 103 134 104 134 104 134 " />
        <polyline stroke="black" stroke-width="3" stroke-linecap="round" fill="transparent" stroke-linejoin="round" points="85 168 85 167 86 166 90 163 96 158 100 154 101 153 102 153 102 153 " />
        <polyline stroke="black" stroke-width="3" stroke-linecap="round" fill="transparent" stroke-linejoin="round" points="111 96 111 93 111 96 111 104 111 119 110 138 110 158 110 175 110 185 111 191 111 193 112 192 112 191 112 191 " />
        <polyline stroke="black" stroke-width="3" stroke-linecap="round" fill="transparent" stroke-linejoin="round" points="130 115 126 117 126 121 127 123 130 124 134 124 134 124 " />
        <polyline stroke="black" stroke-width="3" stroke-linecap="round" fill="transparent" stroke-linejoin="round" points="168 107 167 107 167 108 164 112 158 120 153 124 153 124 " />
        <polyline stroke="black" stroke-width="3" stroke-linecap="round" fill="transparent" stroke-linejoin="round" points="109 156 109 155 111 154 120 150 134 144 145 140 148 139 159 135 161 134 168 132 169 132 172 131 171 131 167 131 166 131 166 131 " />
        <polyline stroke="black" stroke-width="3" stroke-linecap="round" fill="transparent" stroke-linejoin="round" points="148 86 147 85 147 88 148 97 147 111 147 124 147 129 146 148 146 164 146 176 145 184 143 188 141 189 140 188 139 184 138 178 138 178 " />
        <polyline stroke="black" stroke-width="3" stroke-linecap="round" fill="transparent" stroke-linejoin="round" points="142 148 141 150 140 154 139 156 136 162 134 165 126 175 114 185 104 194 94 201 89 205 89 205 " />
        <polyline stroke="black" stroke-width="3" stroke-linecap="round" fill="transparent" stroke-linejoin="round" points="147 152 148 152 149 153 154 157 165 162 174 164 183 166 188 167 188 167 " />
        </svg>