<?xml version="1.0" standalone="no"?>
    <svg width="256" height="256" xmlns="http://www.w3.org/2000/svg" version="1.1">
    <polyline stroke="black" stroke-width="3" stroke-linecap="round" fill="transparent" stroke-linejoin="round" points="42.257110595703125 73.83534240722656 68.01678466796875 71.58204650878906 93.77645874023438 69.32875061035156 110.81842041015624 67.57901000976563 145.05126953125 63.65618896484375 158.2412109375 62.592864990234375 181.813232421875 63.330963134765625 188.1719970703125 63.79753112792969 193.88812255859375 64.96969604492188 194.068603515625 64.9996337890625 192.9869384765625 63.66368103027344 191.80908203125 63.20745849609375 " />
        <polyline stroke="black" stroke-width="3" stroke-linecap="round" fill="transparent" stroke-linejoin="round" points="88.37115478515624 50.19148254394531 89.4730224609375 63.52235412597656 90.57489013671876 76.85322570800781 91.79220581054688 90.41653442382813 93.49212646484376 99.60125732421876 97.35995483398438 110.25578308105467 99.49481201171876 111.11764526367188 104.41070556640624 112.42660522460938 109.5098876953125 113.53134155273438 122.65267944335938 113.14152526855467 134.76498413085938 110.21585083007813 140.09576416015625 109.6370849609375 141.8756103515625 109.47625732421876 142.1326904296875 109.45304870605467 " />
        <polyline stroke="black" stroke-width="3" stroke-linecap="round" fill="transparent" stroke-linejoin="round" points="140.24295043945313 60.7919921875 140.79620361328125 70.23193359375 141.34945678710938 79.671875 142.10296630859375 98.04107666015624 141.04876708984375 107.2412109375 137.51837158203125 114.95555114746094 136.67636108398438 114.54556274414063 " />
        <polyline stroke="black" stroke-width="3" stroke-linecap="round" fill="transparent" stroke-linejoin="round" points="96.01171875000003 154.085693359375 104.88641357421876 151.82310485839844 113.7611083984375 149.56051635742188 131.59246826171875 145.80296325683594 145.61474609375 144.69981384277344 147.6241455078125 145.1444091796875 147.15545654296875 146.60903930664063 146.9046630859375 147.1942596435547 " />
        <polyline stroke="black" stroke-width="3" stroke-linecap="round" fill="transparent" stroke-linejoin="round" points="62.726898193359375 203.24560546875 97.92050170898438 196.10305786132813 133.11410522460938 188.96051025390625 151.0823974609375 186.5218505859375 181.728515625 188.64434814453125 191.373291015625 191.4814453125 202.12109375 199.3458251953125 206.8291015625 205.24725341796875 202.8236083984375 205.4404296875 " />
        </svg>