<?xml version="1.0" standalone="no"?>
    <svg width="256" height="256" xmlns="http://www.w3.org/2000/svg" version="1.1">
    <polyline stroke="black" stroke-width="3" stroke-linecap="round" fill="transparent" stroke-linejoin="round" points="82 61 84 61 85 61 87 61 93 61 95 61 99 61 109 61 118 61 129 60 139 57 148 56 158 54 164 53 169 52 173 51 178 50 182 49 187 48 192 47 196 46 200 45 203 44 205 44 205 44 " />
        <polyline stroke="black" stroke-width="3" stroke-linecap="round" fill="transparent" stroke-linejoin="round" points="139 38 138 38 138 38 138 38 138 39 138 40 138 41 138 44 138 50 138 55 137 61 136 69 136 76 135 84 134 90 134 96 134 102 134 106 134 110 136 113 139 114 150 115 158 115 168 115 176 112 181 110 185 108 187 106 188 105 189 104 189 103 189 103 " />
        <polyline stroke="black" stroke-width="3" stroke-linecap="round" fill="transparent" stroke-linejoin="round" points="190 33 190 34 190 36 190 40 190 44 190 50 190 57 190 62 190 66 190 72 190 75 190 78 190 81 190 84 190 86 190 88 190 90 190 91 190 92 190 94 190 97 190 99 190 101 190 101 190 102 189 103 189 104 188 105 188 107 187 108 187 108 187 108 " />
        <polyline stroke="black" stroke-width="3" stroke-linecap="round" fill="transparent" stroke-linejoin="round" points="130 137 130 137 131 137 135 137 140 137 147 137 156 137 166 137 182 137 188 137 194 137 197 137 198 137 198 137 198 137 " />
        <polyline stroke="black" stroke-width="3" stroke-linecap="round" fill="transparent" stroke-linejoin="round" points="94 167 94 167 96 167 99 167 103 167 108 167 114 167 128 167 142 167 153 167 176 167 189 167 204 167 217 167 226 167 233 167 239 167 245 167 249 167 252 167 255 167 255 167 " />
        </svg>