<?xml version="1.0" standalone="no"?>
    <svg width="256" height="256" xmlns="http://www.w3.org/2000/svg" version="1.1">
    <polyline stroke="black" stroke-width="3" stroke-linecap="round" fill="transparent" stroke-linejoin="round" points="53.82330322265625 104.6455535888672 65.97015380859375 100.45700073242188 84.39984130859375 95.01185607910156 107.01803588867188 88.72900390625 130.05514526367188 83.28387451171875 149.322509765625 78.67645263671875 163.56365966796875 75.32560729980469 171.9407958984375 73.2313232421875 175.2916259765625 71.555908203125 175.2916259765625 71.13705444335938 175.2916259765625 71.13705444335938 " />
        <polyline stroke="black" stroke-width="3" stroke-linecap="round" fill="transparent" stroke-linejoin="round" points="115.39520263671876 45.16796112060547 112.0443115234375 58.57136535644531 104.5048828125 82.02731323242188 96.546630859375 108.8341064453125 91.10150146484376 129.77694702148438 89.00726318359375 142.761474609375 88.58837890625 148.62545776367188 90.6826171875 151.1385955810547 98.2220458984375 151.97630310058594 104.0860595703125 150.7197265625 121.2591552734375 143.18032836914063 131.31170654296875 135.2220458984375 138.01339721679688 127.68264770507813 138.01339721679688 127.68264770507813 " />
        <polyline stroke="black" stroke-width="3" stroke-linecap="round" fill="transparent" stroke-linejoin="round" points="152.67333984375 42.654815673828125 150.5791015625 53.126220703125 145.9716796875 74.48789978027344 140.94540405273438 98.36271667480467 136.33798217773438 117.21124267578124 131.73056030273438 132.70892333984375 128.37973022460938 140.2483367919922 128.37973022460938 140.2483367919922 " />
        <polyline stroke="black" stroke-width="3" stroke-linecap="round" fill="transparent" stroke-linejoin="round" points="83.56210327148438 179.62081909179688 98.2220458984375 175.01339721679688 104.92376708984376 173.33798217773438 111.62545776367188 171.66256713867188 118.3271484375 169.98712158203125 130.47396850585938 166.6362762451172 136.7568359375 164.12313842773438 136.7568359375 164.12313842773438 " />
        <polyline stroke="black" stroke-width="3" stroke-linecap="round" fill="transparent" stroke-linejoin="round" points="30.36737060546875 220.66873168945313 40.8387451171875 217.31787109375 81.0489501953125 208.52191162109375 96.96551513671876 205.58990478515625 112.0443115234375 203.49563598632813 143.45855712890625 200.56365966796875 180.31787109375 199.72592163085935 180.31787109375 199.72592163085935 " />
        </svg>