<?xml version="1.0" standalone="no"?>
    <svg width="256" height="256" xmlns="http://www.w3.org/2000/svg" version="1.1">
    <polyline stroke="black" stroke-width="3" stroke-linecap="round" fill="transparent" stroke-linejoin="round" points="33.974884033203125 68.59109497070313 59.788818359375 67.09037780761719 85.60275268554688 65.58966064453125 99.190185546875 63.92018127441406 132.8134765625 60.05059814453125 163.37640380859375 57.344268798828125 172.40087890625 57.63041687011719 208.4864501953125 61.27827453613281 213.22601318359375 62.95594787597656 213.8375244140625 64.9793701171875 213.830322265625 65.0423583984375 213.8297119140625 65.04830932617188 228.865966796875 63.77606201171875 230.2340087890625 63.660308837890625 " />
        <polyline stroke="black" stroke-width="3" stroke-linecap="round" fill="transparent" stroke-linejoin="round" points="77.887451171875 36.53416442871094 78.50326538085938 48.907127380371094 79.11907958984375 61.28009033203125 79.27255249023438 90.30929565429688 78.44329833984375 104.23898315429688 78.412109375 105.82902526855467 78.43695068359375 106.75675964355467 78.43734741210938 106.77224731445313 79.66961669921875 107.34910583496094 84.25875854492188 109.11509704589844 89.95330810546875 110.26724243164063 107.81661987304688 110.32389831542967 116.88327026367188 109.80645751953124 137.49114990234375 106.63876342773438 146.94329833984375 105.14122009277344 153.7188720703125 104.37738037109376 154.39642333984375 104.301025390625 " />
        <polyline stroke="black" stroke-width="3" stroke-linecap="round" fill="transparent" stroke-linejoin="round" points="135.14572143554688 35.754791259765625 136.68807983398438 48.52766418457031 138.23043823242188 61.300537109375 140.30575561523438 92.23866271972656 138.72393798828125 122.84709167480467 138.07220458984375 123.51695251464844 " />
        <polyline stroke="black" stroke-width="3" stroke-linecap="round" fill="transparent" stroke-linejoin="round" points="74.32513427734376 148.56707763671875 86.519287109375 147.22207641601563 98.71343994140624 145.8770751953125 111.824462890625 144.60263061523438 131.49896240234375 144.277099609375 137.75 144.65365600585938 146.76547241210938 144.48123168945313 150.35540771484375 144.23092651367188 150.462646484375 144.17124938964844 " />
        <polyline stroke="black" stroke-width="3" stroke-linecap="round" fill="transparent" stroke-linejoin="round" points="31.1968994140625 208.32727050781244 56.39483642578125 206.43441772460935 81.5927734375 204.54156494140625 98.30331420898438 203.94482421875 130.196533203125 205.95880126953125 144.45382690429688 207.547119140625 167.294677734375 212.6566467285156 206.0712890625 218.7798767089844 208.2353515625 219.35479736328125 207.9395751953125 219.7589111328125 207.9100341796875 219.79931640625 207.90771484375 219.80242919921875 " />
        </svg>