<?xml version="1.0" standalone="no"?>
    <svg width="256" height="256" xmlns="http://www.w3.org/2000/svg" version="1.1">
    <polyline stroke="black" stroke-width="3" stroke-linecap="round" fill="transparent" stroke-linejoin="round" points="49.132293701171875 77.28480529785156 59.384246826171875 75.00062561035156 69.63619995117188 72.71644592285156 100.949462890625 67.63053894042969 119.81488037109376 65.26229858398438 155.5150146484375 62.72393798828125 198.27972412109375 65.61860656738281 205.7689208984375 66.02561950683594 209.6937255859375 66.03678894042969 213.129150390625 65.30638122558594 212.30426025390625 64.04005432128906 212.2509765625 63.95819091796875 " />
        <polyline stroke="black" stroke-width="3" stroke-linecap="round" fill="transparent" stroke-linejoin="round" points="96.84558105468753 73.1344451904297 96.99212646484376 87.32414245605469 97.138671875 101.51383972167967 96.49081420898438 113.37042236328124 95.27825927734376 124.67404174804688 95.17041015625 124.5625457763672 96.36553955078124 123.96104431152344 99.777587890625 122.65542602539063 117.4925537109375 115.69363403320313 125.09225463867188 113.11203002929688 133.61788940429688 112.22415161132813 133.8843994140625 112.23367309570313 " />
        <polyline stroke="black" stroke-width="3" stroke-linecap="round" fill="transparent" stroke-linejoin="round" points="150.86941528320313 32.738983154296875 149.35406494140625 58.807281494140625 147.83871459960938 84.87557983398438 146.5570068359375 97.41506958007813 142.15185546875 120.52020263671876 141.930908203125 117.78485107421876 " />
        <polyline stroke="black" stroke-width="3" stroke-linecap="round" fill="transparent" stroke-linejoin="round" points="116.45730590820313 160.17568969726563 123.6839599609375 159.56475830078125 130.91061401367188 158.95382690429688 136.93194580078125 157.8259735107422 140.01083374023438 156.75450134277344 143.256103515625 155.82354736328125 143.43853759765625 155.75637817382813 " />
        <polyline stroke="black" stroke-width="3" stroke-linecap="round" fill="transparent" stroke-linejoin="round" points="82.05902099609375 208.62695312500006 100.57186889648438 207.4659118652344 119.084716796875 206.30487060546875 154.968017578125 205.359375 170.796142578125 204.96026611328125 191.368408203125 204.67581176757813 203.418701171875 204.7699279785156 206.14959716796875 204.885009765625 206.40966796875 204.89599609375 " />
        </svg>