<?xml version="1.0" standalone="no"?>
    <svg width="256" height="256" xmlns="http://www.w3.org/2000/svg" version="1.1">
    <polyline stroke="black" stroke-width="3" stroke-linecap="round" fill="transparent" stroke-linejoin="round" points="68.65911865234375 116.15951538085938 85.4432373046875 106.44235229492188 95.60211181640624 101.14207458496094 105.76095581054688 96.28350830078124 117.244873046875 91.86660766601563 138.4459228515625 84.35791015625 166.71405029296875 76.84918212890625 180.4063720703125 74.19905090332031 184.8232421875 72.87399291992188 184.8232421875 72.87399291992188 " />
        <polyline stroke="black" stroke-width="3" stroke-linecap="round" fill="transparent" stroke-linejoin="round" points="125.636962890625 26.49664306640625 121.6617431640625 37.53887176513672 119.89498901367188 44.164207458496094 117.6865234375 51.67291259765625 115.47811889648438 60.06500244140625 111.944580078125 79.49932861328125 109.73617553710938 98.491943359375 109.29443359375 116.15951538085938 109.73617553710938 129.41018676757813 111.50289916992188 138.24395751953125 113.2696533203125 143.54421997070313 114.15301513671876 144.86929321289063 122.54510498046876 146.19436645507813 131.37890625 143.98590087890625 135.7957763671875 142.2191619873047 150.37152099609375 133.3853759765625 160.9720458984375 121.45977783203124 160.9720458984375 121.45977783203124 " />
        <polyline stroke="black" stroke-width="3" stroke-linecap="round" fill="transparent" stroke-linejoin="round" points="163.6221923828125 42.39744567871094 163.6221923828125 56.089813232421875 163.6221923828125 64.48190307617188 163.1805419921875 74.19905090332031 161.85546875 106.884033203125 160.5303955078125 128.08511352539063 160.0887451171875 136.03550720214844 160.0887451171875 136.03550720214844 " />
        <polyline stroke="black" stroke-width="3" stroke-linecap="round" fill="transparent" stroke-linejoin="round" points="111.944580078125 166.51205444335938 126.96200561523438 162.53684997558594 133.58734130859375 160.77008056640625 148.1630859375 157.236572265625 155.2301025390625 155.91152954101563 173.33935546875 153.70309448242188 177.7562255859375 153.70309448242188 177.7562255859375 153.70309448242188 " />
        <polyline stroke="black" stroke-width="3" stroke-linecap="round" fill="transparent" stroke-linejoin="round" points="84.55990600585938 208.47250366210935 107.52767944335938 204.497314453125 116.80316162109376 202.7305603027344 126.52032470703124 200.96380615234375 156.996826171875 196.98858642578125 167.15570068359375 195.66351318359375 186.59002685546875 194.3384704589844 202.4908447265625 193.455078125 213.9747314453125 193.01339721679688 213.9747314453125 193.01339721679688 " />
        </svg>