<?xml version="1.0" standalone="no"?>
    <svg width="256" height="256" xmlns="http://www.w3.org/2000/svg" version="1.1">
    <polyline stroke="black" stroke-width="3" stroke-linecap="round" fill="transparent" stroke-linejoin="round" points="74.61129760742188 72.98065185546875 82.872314453125 83.71995544433594 89.8941650390625 89.91571044921875 94.024658203125 92.80705261230467 99.394287109375 95.2853546142578 107.24227905273438 96.1114501953125 107.24227905273438 96.1114501953125 " />
        <polyline stroke="black" stroke-width="3" stroke-linecap="round" fill="transparent" stroke-linejoin="round" points="173.743408203125 55.632530212402344 161.35186767578125 69.67623901367188 141.9384765625 89.50267028808594 128.72088623046875 101.48110961914063 99.394287109375 125.02496337890624 78.7418212890625 139.06869506835938 66.76336669921875 145.677490234375 63.458953857421875 147.74273681640625 64.2850341796875 146.9166259765625 76.67657470703125 139.4817352294922 100.63348388671876 129.15548706054688 125.82955932617188 121.30752563476563 151.43865966796875 115.11175537109376 174.15643310546875 110.56822204589844 184.06964111328125 107.67686462402344 184.06964111328125 107.67686462402344 " />
        <polyline stroke="black" stroke-width="3" stroke-linecap="round" fill="transparent" stroke-linejoin="round" points="146.89511108398438 51.91508483886719 132.85140991210938 76.28504943847656 123.35125732421876 98.58975219726563 113.43804931640624 123.78582763671876 105.177001953125 143.6122283935547 93.19857788085938 167.98220825195313 88.655029296875 177.89541625976563 82.04623413085938 188.63470458984375 77.91571044921875 193.59130859375 76.67657470703125 193.17828369140625 76.67657470703125 193.17828369140625 " />
        <polyline stroke="black" stroke-width="3" stroke-linecap="round" fill="transparent" stroke-linejoin="round" points="115.09027099609376 141.96002197265625 127.06869506835938 142.3730926513672 144.00375366210938 146.09054565429688 163.00408935546875 151.46018981933594 174.5694580078125 156.4167938232422 178.699951171875 159.3081512451172 178.699951171875 159.3081512451172 " />
        <polyline stroke="black" stroke-width="3" stroke-linecap="round" fill="transparent" stroke-linejoin="round" points="110.959716796875 198.54791259765625 99.807373046875 208.46112060546875 96.916015625 212.59164428710935 96.08993530273438 213.00469970703125 96.50299072265624 211.35247802734375 100.22042846679688 204.33062744140625 103.9378662109375 199.3740234375 120.04684448242188 184.0911865234375 127.48175048828124 179.547607421875 141.11239624023438 173.3518524169922 157.22137451171875 172.11270141601563 163.00408935546875 174.59100341796875 165.0693359375 179.96066284179688 164.65625 185.74337768554688 154.33001708984375 201.43927001953125 125.82955932617188 221.67874145507813 116.329345703125 225.39617919921875 100.63348388671876 228.28753662109375 99.394287109375 227.87451171875 101.04656982421876 223.74398803710935 112.19891357421876 217.13519287109375 129.13397216796875 212.59164428710935 153.0908203125 213.83078002929688 153.0908203125 213.83078002929688 " />
        </svg>