<?xml version="1.0" standalone="no"?>
    <svg width="256" height="256" xmlns="http://www.w3.org/2000/svg" version="1.1">
    <polyline stroke="black" stroke-width="3" stroke-linecap="round" fill="transparent" stroke-linejoin="round" points="67.7359619140625 62.695068359375 71.18206787109375 78.77684020996094 74.05380249023438 86.24337768554688 78.07424926757813 91.98687744140624 83.24337768554688 94.85861206054688 83.24337768554688 94.85861206054688 " />
        <polyline stroke="black" stroke-width="3" stroke-linecap="round" fill="transparent" stroke-linejoin="round" points="165.37530517578125 47.187644958496094 159.6318359375 56.95158386230469 153.31396484375 64.99246215820313 141.82696533203125 75.33074951171875 126.8939208984375 87.39207458496094 108.51473999023438 98.30471801757813 86.1151123046875 108.64299011230467 70.03335571289063 116.10952758789063 53.95159912109375 120.70433044433594 44.761993408203125 123.00172424316406 38.44415283203125 123.57606506347656 36.146759033203125 123.57606506347656 37.86981201171875 123.57606506347656 44.187652587890625 121.85302734375 59.695068359375 116.6838836669922 78.64859008789063 109.79168701171876 103.3455810546875 104.04820251464844 124.59649658203124 98.87905883789063 145.847412109375 94.85861206054688 160.780517578125 91.98687744140624 168.2470703125 90.8381805419922 175.71356201171875 87.39207458496094 175.71356201171875 87.39207458496094 " />
        <polyline stroke="black" stroke-width="3" stroke-linecap="round" fill="transparent" stroke-linejoin="round" points="124.02215576171876 26.511085510253903 117.12997436523438 45.464599609375 108.51473999023438 70.16160583496094 97.02777099609376 98.87905883789063 86.68948364257813 123.57606506347656 75.2025146484375 145.40133666992188 66.01290893554688 160.90875244140625 59.1207275390625 173.54443359375 55.10028076171875 181.0109710693359 52.802886962890625 185.60577392578125 52.802886962890625 185.60577392578125 52.802886962890625 185.60577392578125 " />
        <polyline stroke="black" stroke-width="3" stroke-linecap="round" fill="transparent" stroke-linejoin="round" points="87.26382446289063 129.31956481933594 97.02777099609376 128.74520874023438 110.23779296875 129.89390563964844 130.91436767578125 133.3400115966797 147.57049560546875 137.36044311523438 162.5035400390625 142.5295867919922 174.56488037109375 145.97567749023438 180.8826904296875 148.27308654785156 184.328857421875 149.42178344726563 184.328857421875 149.42178344726563 " />
        <polyline stroke="black" stroke-width="3" stroke-linecap="round" fill="transparent" stroke-linejoin="round" points="105.64300537109376 169.5240020751953 99.89950561523438 180.43663024902344 98.17645263671876 187.90316772460935 97.60211181640624 197.09274291992188 97.02777099609376 203.41058349609375 95.87905883789063 208.57974243164065 95.87905883789063 210.87713623046875 94.7303466796875 206.856689453125 94.7303466796875 200.53884887695313 95.87905883789063 193.64666748046875 98.17645263671876 186.75445556640625 102.1968994140625 181.0109710693359 107.94039916992188 175.84182739257813 117.12997436523438 169.5240020751953 126.319580078125 164.92919921875 137.232177734375 162.05746459960938 144.1243896484375 162.05746459960938 149.86785888671875 163.78050231933594 153.31396484375 166.65225219726563 153.31396484375 171.82139587402344 151.0166015625 180.43663024902344 141.82696533203125 192.4979553222656 129.76565551757813 204.55929565429688 117.12997436523438 213.17453002929688 109.6634521484375 216.0462646484375 105.06866455078124 217.19497680664065 102.771240234375 216.0462646484375 102.771240234375 213.74887084960935 107.36602783203124 210.87713623046875 114.25823974609376 208.00537109375 124.59649658203124 204.55929565429688 136.6578369140625 203.98492431640625 136.6578369140625 203.98492431640625 " />
        </svg>