<?xml version="1.0" standalone="no"?>
    <svg width="256" height="256" xmlns="http://www.w3.org/2000/svg" version="1.1">
    <polyline stroke="black" stroke-width="3" stroke-linecap="round" fill="transparent" stroke-linejoin="round" points="88.0323486328125 63.94493103027344 90.9681396484375 81.55975341796875 93.1700439453125 86.69743347167969 96.83984375 90.3671875 100.50958251953124 90.3671875 100.50958251953124 90.3671875 " />
        <polyline stroke="black" stroke-width="3" stroke-linecap="round" fill="transparent" stroke-linejoin="round" points="154.8218994140625 34.58686828613281 144.546630859375 55.13749694824219 142.3447265625 61.743072509765625 142.3447265625 66.14680480957031 142.3447265625 66.14680480957031 " />
        <polyline stroke="black" stroke-width="3" stroke-linecap="round" fill="transparent" stroke-linejoin="round" points="72.619384765625 110.18389892578124 96.83984375 100.64248657226563 115.9224853515625 94.77088928222656 133.537353515625 90.3671875 149.684326171875 86.69743347167969 161.427490234375 83.76161193847656 162.8953857421875 82.29371643066406 162.8953857421875 81.55975341796875 162.8953857421875 81.55975341796875 " />
        <polyline stroke="black" stroke-width="3" stroke-linecap="round" fill="transparent" stroke-linejoin="round" points="117.39044189453124 29.449203491210938 115.1885986328125 56.60542297363281 110.0509033203125 82.29371643066406 103.4453125 107.24806213378906 90.9681396484375 139.54196166992188 80.69281005859375 154.9549102783203 72.619384765625 164.4962921142578 66.74774169921875 168.90000915527344 60.87615966796875 171.1018524169922 60.87615966796875 171.1018524169922 " />
        <polyline stroke="black" stroke-width="3" stroke-linecap="round" fill="transparent" stroke-linejoin="round" points="108.5830078125 86.69743347167969 121.06011962890624 99.17462158203124 131.33544921875 106.51412963867188 155.555908203125 118.99128723144533 178.308349609375 128.5326690673828 207.66650390625 138.07403564453125 220.877685546875 141.00982666015625 231.1529541015625 142.47772216796875 231.1529541015625 142.47772216796875 " />
        <polyline stroke="black" stroke-width="3" stroke-linecap="round" fill="transparent" stroke-linejoin="round" points="99.77557373046876 157.89073181152344 97.57366943359376 175.5055694580078 96.83984375 186.51483154296875 96.83984375 190.9185485839844 97.57366943359376 195.32223510742188 101.24346923828124 196.7901611328125 102.71136474609376 191.65249633789065 102.71136474609376 191.65249633789065 " />
        <polyline stroke="black" stroke-width="3" stroke-linecap="round" fill="transparent" stroke-linejoin="round" points="98.30767822265624 150.55123901367188 113.72064208984376 141.00982666015625 121.06011962890624 138.80796813964844 137.9410400390625 136.6061248779297 150.418212890625 135.8721923828125 155.555908203125 136.6061248779297 157.7576904296875 137.340087890625 158.49169921875 141.00982666015625 156.289794921875 147.61538696289063 153.35400390625 157.89073181152344 151.88623046875 165.9641876220703 151.88623046875 176.97344970703125 154.8218994140625 185.7808837890625 154.8218994140625 185.7808837890625 " />
        <polyline stroke="black" stroke-width="3" stroke-linecap="round" fill="transparent" stroke-linejoin="round" points="95.37188720703124 190.9185485839844 118.8583984375 190.1845703125 126.9317626953125 190.1845703125 140.8768310546875 190.9185485839844 153.35400390625 192.38644409179688 159.9595947265625 193.85433959960935 159.9595947265625 193.85433959960935 " />
        </svg>