<?xml version="1.0" standalone="no"?>
    <svg width="256" height="256" xmlns="http://www.w3.org/2000/svg" version="1.1">
    <polyline stroke="black" stroke-width="3" stroke-linecap="round" fill="transparent" stroke-linejoin="round" points="110.17782592773438 49.906158447265625 110.6195068359375 73.75736999511719 112.38629150390624 94.07505798339844 115.03643798828124 118.80963134765624 117.244873046875 144.86929321289063 117.6865234375 166.9537353515625 117.244873046875 183.29623413085935 115.91976928710938 194.7801513671875 115.03643798828124 199.63873291015625 115.03643798828124 199.63873291015625 " />
        <polyline stroke="black" stroke-width="3" stroke-linecap="round" fill="transparent" stroke-linejoin="round" points="117.6865234375 125.87667846679688 130.49554443359375 117.04289245605467 135.7957763671875 114.39274597167967 141.09603881835938 112.18431091308594 158.32196044921875 106.44235229492188 167.597412109375 104.23391723632813 176.43115234375 103.35055541992188 183.49822998046875 102.46714782714844 183.49822998046875 102.46714782714844 " />
        <polyline stroke="black" stroke-width="3" stroke-linecap="round" fill="transparent" stroke-linejoin="round" points="114.15301513671876 159.0033416748047 126.96200561523438 155.02813720703125 138.00424194335938 151.49462890625 149.92987060546875 147.07774353027344 162.297119140625 139.5690155029297 170.24755859375 132.50201416015625 170.24755859375 132.50201416015625 " />
        <polyline stroke="black" stroke-width="3" stroke-linecap="round" fill="transparent" stroke-linejoin="round" points="191.0069580078125 37.53887176513672 188.3568115234375 52.556297302246094 187.03173828125 61.39007568359375 185.7066650390625 71.54891967773438 184.8232421875 83.0328369140625 183.49822998046875 108.65080261230467 183.49822998046875 132.50201416015625 183.93988037109375 155.02813720703125 183.93988037109375 177.99595642089844 184.381591796875 203.1722412109375 184.381591796875 203.1722412109375 " />
        </svg>