<?xml version="1.0" standalone="no"?>
    <svg width="256" height="256" xmlns="http://www.w3.org/2000/svg" version="1.1">
    <polyline stroke="black" stroke-width="3" stroke-linecap="round" fill="transparent" stroke-linejoin="round" points="67.79229736328125 100.24197387695313 79.770751953125 100.24197387695313 109.51034545898438 98.58975219726563 122.31491088867188 97.76365661621094 131.8150634765625 95.2853546142578 132.64117431640625 93.63314819335938 132.64117431640625 93.63314819335938 " />
        <polyline stroke="black" stroke-width="3" stroke-linecap="round" fill="transparent" stroke-linejoin="round" points="61.596527099609375 82.89385986328125 61.596527099609375 100.65501403808594 61.596527099609375 146.9166259765625 62.00958251953125 163.4386444091797 62.422607421875 172.5257568359375 62.422607421875 175.41709899902344 62.422607421875 175.41709899902344 " />
        <polyline stroke="black" stroke-width="3" stroke-linecap="round" fill="transparent" stroke-linejoin="round" points="97.9449462890625 93.22012329101563 97.11883544921876 103.95941162109376 95.46664428710938 117.59007263183594 90.51007080078124 140.30783081054688 81.42294311523438 159.72119140625 75.64022827148438 165.50390625 71.50973510742188 168.39524841308594 69.44451904296875 169.6343994140625 68.61837768554688 169.6343994140625 69.03143310546875 168.80828857421875 73.57501220703125 167.56915283203125 82.66207885742188 165.09085083007813 88.44479370117188 163.85171508789063 104.55377197265624 160.96035766601563 111.57562255859376 159.72119140625 111.57562255859376 159.72119140625 " />
        <polyline stroke="black" stroke-width="3" stroke-linecap="round" fill="transparent" stroke-linejoin="round" points="147.92404174804688 89.91571044921875 163.6199951171875 83.30690002441406 171.4678955078125 80.00250244140625 185.5115966796875 75.0458984375 195.4248046875 73.39369201660156 199.9683837890625 74.63284301757813 201.20751953125 76.28504943847656 201.20751953125 76.28504943847656 " />
        <polyline stroke="black" stroke-width="3" stroke-linecap="round" fill="transparent" stroke-linejoin="round" points="133.46728515625 149.8079833984375 142.14132690429688 147.74273681640625 150.81536865234375 145.677490234375 179.31585693359375 138.6556396484375 187.163818359375 137.00344848632813 199.9683837890625 132.87295532226563 199.9683837890625 132.87295532226563 " />
        <polyline stroke="black" stroke-width="3" stroke-linecap="round" fill="transparent" stroke-linejoin="round" points="160.7286376953125 65.1326904296875 158.663330078125 80.41555786132813 156.18505859375 96.93757629394533 149.9892578125 132.4598846435547 140.07611083984375 182.43896484375 135.53253173828125 202.265380859375 132.64117431640625 213.417724609375 132.22811889648438 215.0699462890625 132.22811889648438 215.0699462890625 " />
        <polyline stroke="black" stroke-width="3" stroke-linecap="round" fill="transparent" stroke-linejoin="round" points="176.42449951171875 63.06744384765625 174.7723388671875 75.45895385742188 173.1201171875 90.7418212890625 169.815673828125 125.85107421875 168.5765380859375 157.65594482421875 168.9896240234375 202.67843627929688 168.9896240234375 202.67843627929688 " />
        </svg>