<?xml version="1.0" standalone="no"?>
    <svg width="256" height="256" xmlns="http://www.w3.org/2000/svg" version="1.1">
    <polyline stroke="black" stroke-width="3" stroke-linecap="round" fill="transparent" stroke-linejoin="round" points="48.526336669921875 132.83001708984375 68.60302734375 127.73126220703124 93.18402099609376 120.46273803710938 102.38519287109376 118.19204711914063 121.12411499023438 113.84805297851563 126.79244995117188 112.23258972167967 130.39093017578125 110.22349548339844 130.41976928710938 110.14373779296876 129.28048706054688 109.46859741210938 128.92333984375 109.25700378417967 " />
        <polyline stroke="black" stroke-width="3" stroke-linecap="round" fill="transparent" stroke-linejoin="round" points="69.36093139648438 110.0894012451172 70.48095703125 128.25177001953125 71.139892578125 148.55418395996094 69.46636962890625 186.06329345703125 68.72265625 193.63180541992188 68.73675537109375 203.76318359375 68.845458984375 208.95602416992188 70.710205078125 216.0059509277344 71.931640625 218.33200073242188 72.04183959960938 218.52044677734375 72.07940673828125 218.58465576171875 72.84811401367188 218.2257080078125 77.00033569335938 216.0172119140625 80.73626708984375 213.98065185546875 93.831298828125 208.90560913085935 103.89886474609376 204.85260009765625 107.37518310546876 203.3243103027344 113.77801513671876 201.037841796875 114.884521484375 200.4886474609375 117.97833251953124 199.607177734375 118.59579467773438 199.4312438964844 " />
        <polyline stroke="black" stroke-width="3" stroke-linecap="round" fill="transparent" stroke-linejoin="round" points="108.37353515625 78.71047973632813 110.38986206054688 106.05905151367188 113.24267578125 139.71580505371094 113.82574462890624 152.89645385742188 114.1998291015625 163.10894775390625 114.28912353515624 181.51109313964844 114.31369018554688 182.26296997070313 " />
        <polyline stroke="black" stroke-width="3" stroke-linecap="round" fill="transparent" stroke-linejoin="round" points="150.74298095703125 115.39627075195313 157.93994140625 116.02195739746094 172.09710693359375 116.10313415527344 177.899658203125 116.0286102294922 186.18499755859375 114.31997680664063 188.68377685546875 113.62242126464844 190.5609130859375 111.911865234375 191.92767333984375 110.24064636230467 192.285400390625 109.81687927246094 " />
        <polyline stroke="black" stroke-width="3" stroke-linecap="round" fill="transparent" stroke-linejoin="round" points="164.86572265625 143.00494384765625 206.958251953125 139.96157836914063 207.08782958984375 139.94175720214844 207.316650390625 139.61050415039063 207.6705322265625 138.596435546875 207.80731201171875 138.20457458496094 " />
        <polyline stroke="black" stroke-width="3" stroke-linecap="round" fill="transparent" stroke-linejoin="round" points="150.93634033203125 92.30015563964844 151.60858154296875 105.34454345703124 152.6680908203125 135.8658447265625 153.1732177734375 153.26168823242188 154.1448974609375 189.995361328125 155.08251953125 211.82080078125 155.02105712890625 216.71356201171875 155.404541015625 218.68548583984375 155.40802001953125 218.70343017578125 155.408203125 218.70452880859375 " />
        <polyline stroke="black" stroke-width="3" stroke-linecap="round" fill="transparent" stroke-linejoin="round" points="175.4930419921875 109.7431640625 178.1800537109375 131.35162353515625 183.38739013671875 173.54827880859375 186.57568359375 199.17718505859375 188.18212890625 212.0472412109375 189.9302978515625 223.15155029296875 190.10516357421875 224.26202392578125 " />
        </svg>