<?xml version="1.0" standalone="no"?>
    <svg width="256" height="256" xmlns="http://www.w3.org/2000/svg" version="1.1">
    <polyline stroke="black" stroke-width="3" stroke-linecap="round" fill="transparent" stroke-linejoin="round" points="29.618896484375 110.57237243652344 42.44415283203125 103.88093566894533 57.499908447265625 97.18948364257813 75.34375 89.94041442871094 91.5147705078125 84.36421203613281 103.78240966796876 79.34562683105469 110.47384643554688 76.55752563476563 110.47384643554688 76.55752563476563 " />
        <polyline stroke="black" stroke-width="3" stroke-linecap="round" fill="transparent" stroke-linejoin="round" points="55.8270263671875 71.5389404296875 51.9237060546875 86.59469604492188 47.462738037109375 111.6876220703125 45.23223876953125 131.20433044433594 44.67462158203125 147.93295288085938 45.78985595703125 161.3158416748047 47.462738037109375 169.68014526367188 50.2508544921875 174.69873046875 54.1541748046875 177.48683166503906 58.615142822265625 176.37158203125 64.19134521484375 171.91062927246094 70.3251953125 164.66156005859375 79.24710083007813 148.49057006835938 79.24710083007813 148.49057006835938 " />
        <polyline stroke="black" stroke-width="3" stroke-linecap="round" fill="transparent" stroke-linejoin="round" points="71.998046875 69.86607360839844 71.998046875 81.01849365234375 73.11328125 94.40138244628906 74.7861328125 107.78427124023438 77.0166015625 121.16716003417967 78.68948364257813 132.877197265625 80.36236572265625 141.7991180419922 82.03521728515625 150.16342163085938 82.03521728515625 150.16342163085938 " />
        <polyline stroke="black" stroke-width="3" stroke-linecap="round" fill="transparent" stroke-linejoin="round" points="121.62625122070313 91.61328125 134.4515380859375 85.47944641113281 149.50726318359375 79.90324401855469 164.00537109375 74.32704162597656 177.3883056640625 69.86607360839844 185.75262451171875 67.07797241210938 190.21356201171875 67.07797241210938 191.328857421875 70.4237060546875 191.328857421875 70.4237060546875 " />
        <polyline stroke="black" stroke-width="3" stroke-linecap="round" fill="transparent" stroke-linejoin="round" points="110.47384643554688 136.78053283691406 124.41436767578124 132.31956481933594 141.14297485351563 127.85861206054688 158.98681640625 122.84002685546876 174.6002197265625 116.70619201660156 185.1949462890625 111.6876220703125 191.886474609375 107.78427124023438 196.347412109375 99.9775848388672 196.347412109375 99.9775848388672 " />
        <polyline stroke="black" stroke-width="3" stroke-linecap="round" fill="transparent" stroke-linejoin="round" points="145.60394287109375 48.11888122558594 146.16156005859375 59.82891845703125 144.48870849609375 77.67276000976563 140.02774047851563 104.43855285644533 133.3363037109375 128.97384643554688 124.41436767578124 152.39390563964844 116.050048828125 170.23776245117188 108.24334716796876 184.17828369140625 103.78240966796876 192.5425720214844 103.78240966796876 192.5425720214844 " />
        <polyline stroke="black" stroke-width="3" stroke-linecap="round" fill="transparent" stroke-linejoin="round" points="173.4849853515625 60.38653564453125 171.8121337890625 79.34562683105469 169.02398681640625 101.65045166015624 167.35113525390625 121.16716003417967 166.79351806640625 137.89578247070313 166.79351806640625 152.39390563964844 166.79351806640625 164.66156005859375 166.79351806640625 181.39016723632813 166.79351806640625 181.39016723632813 " />
        </svg>