<?xml version="1.0" standalone="no"?>
    <svg width="256" height="256" xmlns="http://www.w3.org/2000/svg" version="1.1">
    <polyline stroke="black" stroke-width="3" stroke-linecap="round" fill="transparent" stroke-linejoin="round" points="81.39880371093751 111.76986694335938 85.90451049804688 110.16067504882813 90.41021728515624 108.55148315429688 113.90444946289063 101.47103881835938 134.1802978515625 95.35610961914063 149.95037841796875 91.4940185546875 163.14581298828125 89.24116516113281 171.51361083984375 89.56300354003906 177.9503173828125 93.42506408691406 181.81243896484375 107.58596801757813 179.88140869140625 129.4709930419922 174.41015625 150.06863403320313 165.39862060546875 167.76979064941406 155.42169189453125 182.8961944580078 145.122802734375 194.1605529785156 136.11135864257813 200.59732055664065 129.674560546875 201.5628662109375 126.77804565429688 197.7007751464844 126.77804565429688 197.7007751464844 " />
        <polyline stroke="black" stroke-width="3" stroke-linecap="round" fill="transparent" stroke-linejoin="round" points="125.49069213867188 98.89633178710938 117.4447021484375 124.64341735839844 109.39871215820313 150.3905029296875 102.64010620117188 173.56289672851563 94.91595458984376 194.1605529785156 86.226318359375 209.60882568359375 86.226318359375 209.60882568359375 " />
        <polyline stroke="black" stroke-width="3" stroke-linecap="round" fill="transparent" stroke-linejoin="round" points="53.076995849609375 213.792724609375 81.07693481445313 205.4249267578125 109.07687377929688 197.05712890625 143.51364135742188 189.33297729492188 172.4791259765625 184.8272399902344 193.0767822265625 182.57435607910156 214.96185302734375 181.93069458007813 230.08819580078125 182.8961944580078 230.08819580078125 182.8961944580078 " />
        </svg>