<?xml version="1.0" standalone="no"?>
    <svg width="256" height="256" xmlns="http://www.w3.org/2000/svg" version="1.1">
    <polyline stroke="black" stroke-width="3" stroke-linecap="round" fill="transparent" stroke-linejoin="round" points="62.021789550781264 82.23963928222656 86.83917236328125 77.11607360839844 111.65655517578124 71.99250793457031 124.80828857421876 69.52166748046875 149.2447509765625 65.70343017578125 158.12091064453125 66.41488647460938 168.615478515625 78.26165771484375 175.37591552734375 97.15936279296876 176.4161376953125 149.8916473388672 170.5809326171875 170.09800720214844 156.4599609375 190.97149658203125 145.030517578125 194.75564575195313 140.40325927734375 194.456787109375 130.2552490234375 191.52957153320313 125.50912475585938 187.9261474609375 113.7034912109375 173.625732421875 113.90267944335938 172.08848571777344 " />
        <polyline stroke="black" stroke-width="3" stroke-linecap="round" fill="transparent" stroke-linejoin="round" points="118.4111328125 93.68995666503909 115.9033203125 109.50653076171876 113.3955078125 125.32310485839844 102.14068603515624 164.89532470703125 95.7840576171875 179.97300720214844 92.35211181640624 187.53433227539065 92.04632568359376 188.13943481445313 " />
        <polyline stroke="black" stroke-width="3" stroke-linecap="round" fill="transparent" stroke-linejoin="round" points="45.387451171875 206.99417114257813 62.04608154296875 205.2296142578125 78.7047119140625 203.46505737304688 122.1485595703125 201.2034912109375 145.78277587890625 202.90496826171875 189.45831298828125 216.7293701171875 201.2100830078125 224.70162963867188 218.6832275390625 234.7979736328125 221.18115234375 236.06314086914065 220.3707275390625 236.23995971679688 220.29150390625 236.25726318359375 " />
        </svg>