<?xml version="1.0" standalone="no"?>
    <svg width="256" height="256" xmlns="http://www.w3.org/2000/svg" version="1.1">
    <polyline stroke="black" stroke-width="3" stroke-linecap="round" fill="transparent" stroke-linejoin="round" points="74.868896484375 102.8515625 84.23486328125 98.99497985839844 96.90646362304688 94.03652954101563 111.23089599609376 87.9761962890625 126.10626220703124 81.91586303710938 139.8797607421875 77.50834655761719 151.449462890625 75.85552978515625 158.6116943359375 76.95741271972656 163.57012939453125 81.36492919921875 167.42669677734375 92.93464660644533 168.528564453125 112.217529296875 166.87579345703125 132.602294921875 163.0191650390625 150.2323455810547 158.06072998046875 162.35302734375 153.6531982421875 168.96429443359375 147.5928955078125 173.92274475097656 140.4306640625 175.02462768554688 134.370361328125 171.718994140625 134.370361328125 171.718994140625 " />
        <polyline stroke="black" stroke-width="3" stroke-linecap="round" fill="transparent" stroke-linejoin="round" points="110.1290283203125 99.54592895507813 110.679931640625 114.97222900390624 110.1290283203125 128.74571228027344 107.92526245117188 144.17201232910156 103.51776123046876 159.04737854003906 98.55926513671876 169.51522827148438 93.600830078125 176.6774444580078 88.64239501953125 183.28872680664065 88.64239501953125 183.28872680664065 " />
        <polyline stroke="black" stroke-width="3" stroke-linecap="round" fill="transparent" stroke-linejoin="round" points="55.58599853515625 186.5943603515625 64.95196533203125 186.5943603515625 74.31793212890625 184.9415283203125 88.64239501953125 182.73779296875 109.57806396484376 179.43214416503906 127.75909423828124 176.6774444580078 148.14382934570313 175.02462768554688 165.22296142578125 173.92274475097656 177.89453125 172.26992797851563 186.15869140625 172.26992797851563 191.66802978515625 172.26992797851563 197.17742919921875 172.26992797851563 197.17742919921875 172.26992797851563 " />
        </svg>