<?xml version="1.0" standalone="no"?>
    <svg width="256" height="256" xmlns="http://www.w3.org/2000/svg" version="1.1">
    <polyline stroke="black" stroke-width="3" stroke-linecap="round" fill="transparent" stroke-linejoin="round" points="70.69699096679688 92.04522705078124 80.84124755859375 84.57052612304688 94.18890380859376 77.62971496582031 108.07052612304688 70.68891906738281 123.5538330078125 65.349853515625 139.03717041015625 62.14640808105469 152.38482666015625 63.21421813964844 161.99517822265625 68.55329895019531 170.0037841796875 80.83316040039063 174.8089599609375 102.18946838378906 173.74114990234375 133.15609741210938 167.8681640625 157.1819305419922 161.99517822265625 174.80088806152344 157.723876953125 186.012939453125 154.5205078125 192.4198303222656 151.3170166015625 197.7589111328125 147.0457763671875 201.49624633789065 142.77450561523438 204.16580200195313 136.36761474609375 204.69970703125 123.5538330078125 202.5640563964844 113.9434814453125 199.36062622070313 113.9434814453125 199.36062622070313 " />
        <polyline stroke="black" stroke-width="3" stroke-linecap="round" fill="transparent" stroke-linejoin="round" points="115.54522705078124 73.35845947265625 113.9434814453125 88.84178161621094 109.6722412109375 106.99462890625 102.19754028320313 131.55438232421875 95.7906494140625 149.17332458496094 89.38375854492188 163.5888214111328 84.044677734375 176.93650817871094 79.239501953125 186.012939453125 74.43435668945313 194.02154541015625 74.43435668945313 194.02154541015625 " />
        <polyline stroke="black" stroke-width="3" stroke-linecap="round" fill="transparent" stroke-linejoin="round" points="35.993011474609375 201.49624633789065 50.40850830078125 198.29281616210935 69.62918090820313 194.02154541015625 97.92626953125 187.6146545410156 120.35040283203124 186.012939453125 141.70669555664063 186.54684448242188 160.9273681640625 187.6146545410156 176.41064453125 189.75030517578125 188.1566162109375 190.818115234375 193.4957275390625 192.4198303222656 196.165283203125 195.62326049804688 196.165283203125 195.62326049804688 " />
        </svg>