<?xml version="1.0" standalone="no"?>
    <svg width="256" height="256" xmlns="http://www.w3.org/2000/svg" version="1.1">
    <polyline stroke="black" stroke-width="3" stroke-linecap="round" fill="transparent" stroke-linejoin="round" points="32.256317138671875 90.86444091796876 43.988739013671875 85.11526489257813 57.90643310546875 79.26205444335938 71.329833984375 74.26728820800781 81.05923461914063 71.58779907226563 85.87191772460938 70.72932434082031 89.3577880859375 70.5732421875 92.37545776367188 72.99258422851563 92.60955810546876 73.6689453125 92.60955810546876 73.6689453125 " />
        <polyline stroke="black" stroke-width="3" stroke-linecap="round" fill="transparent" stroke-linejoin="round" points="46.408111572265625 89.35560607910156 50.596435546875 100.6978759765625 51.272796630859375 105.17234802246094 51.506927490234375 110.81745910644533 51.168731689453125 117.68524169921876 50.77850341796875 124.5530242919922 50.804534912109375 131.2387237548828 50.46636962890625 136.57167053222656 50.258209228515625 142.11273193359375 49.998046875 148.2521209716797 50.700469970703125 153.40296936035156 50.9085693359375 156.3165740966797 50.492340087890625 159.4122772216797 50.388275146484375 160.5829315185547 50.336273193359375 162.61204528808594 50.4403076171875 163.7046356201172 52.8076171875 164.58914184570313 53.952239990234375 164.95333862304688 54.264434814453125 164.97938537597656 54.264434814453125 164.97938537597656 " />
        <polyline stroke="black" stroke-width="3" stroke-linecap="round" fill="transparent" stroke-linejoin="round" points="78.35369873046875 82.25369262695313 79.394287109375 95.937255859375 79.4462890625 107.85182189941406 78.97808837890625 120.75495910644533 79.18618774414063 126.84231567382813 79.26422119140625 131.57693481445313 79.05612182617188 136.0513916015625 79.70651245117188 140.16165161132813 80.14871215820313 143.25735473632813 80.48687744140625 146.14495849609375 80.85113525390625 149.8389892578125 82.90625 154.20941162109375 82.90625 154.20941162109375 " />
        <polyline stroke="black" stroke-width="3" stroke-linecap="round" fill="transparent" stroke-linejoin="round" points="46.069915771484375 166.69631958007813 59.883544921875 161.5974884033203 69.97711181640625 157.9814910888672 75.4140625 156.52468872070313 78.06756591796875 155.770263671875 80.330810546875 155.2760009765625 85.0394287109375 155.06787109375 85.0394287109375 155.06787109375 " />
        <polyline stroke="black" stroke-width="3" stroke-linecap="round" fill="transparent" stroke-linejoin="round" points="156.9171142578125 59.595184326171875 155.5123291015625 73.98112487792969 153.43115234375 89.25155639648438 151.58416748046875 97.23797607421876 150.1273193359375 105.3544464111328 147.9681396484375 114.77165222167967 145.26263427734375 125.17738342285156 141.67269897460938 134.6986541748047 137.92660522460938 143.7516326904297 133.66024780273438 154.02731323242188 128.76953125 163.86073303222656 124.16500854492188 171.95120239257813 119.06619262695313 178.79296875 114.56570434570313 185.400634765625 109.70101928710938 192.0342712402344 105.07049560546876 196.24859619140625 101.01226806640624 199.89065551757813 97.50027465820313 202.57009887695313 95.34109497070313 203.84478759765625 95.34109497070313 203.84478759765625 " />
        <polyline stroke="black" stroke-width="3" stroke-linecap="round" fill="transparent" stroke-linejoin="round" points="118.96209716796876 81.05703735351563 128.2752685546875 87.3785400390625 132.38558959960938 90.031982421875 135.8974609375 92.76350402832033 138.70703125 94.97471618652344 140.8662109375 96.69166564941406 143.15545654296875 98.66876220703124 144.32614135742188 99.81340026855467 146.09515380859375 101.89453125 147.4998779296875 104.07974243164063 147.4998779296875 104.07974243164063 " />
        <polyline stroke="black" stroke-width="3" stroke-linecap="round" fill="transparent" stroke-linejoin="round" points="104.62820434570313 105.9788055419922 114.87786865234376 112.1702117919922 120.83514404296876 118.49168395996094 125.56979370117188 123.1742706298828 129.83612060546875 127.46664428710938 134.38864135742188 131.8630828857422 138.70703125 135.9733428955078 143.623779296875 140.65594482421875 148.38442993164063 145.1824188232422 154.133544921875 150.41131591796875 160.376953125 156.0824432373047 167.11474609375 160.53089904785156 174.4248046875 164.66717529296875 181.70880126953125 169.16766357421875 191.1519775390625 173.48605346679688 200.17901611328125 176.52972412109375 210.2725830078125 180.37985229492188 220.47021484375 183.91781616210935 228.638671875 186.25909423828125 228.638671875 186.25909423828125 " />
        </svg>