<?xml version="1.0" standalone="no"?>
    <svg width="256" height="256" xmlns="http://www.w3.org/2000/svg" version="1.1">
    <polyline stroke="black" stroke-width="3" stroke-linecap="round" fill="transparent" stroke-linejoin="round" points="67 99 78 99 99 97 120 94 140 91 158 89 171 88 176 88 177 88 177 88 " />
        <polyline stroke="black" stroke-width="3" stroke-linecap="round" fill="transparent" stroke-linejoin="round" points="107 104 101 108 100 119 94 134 87 152 80 168 75 179 71 185 71 186 71 186 " />
        <polyline stroke="black" stroke-width="3" stroke-linecap="round" fill="transparent" stroke-linejoin="round" points="137 97 136 104 134 109 130 122 130 138 131 153 142 167 157 176 173 179 187 179 197 176 205 170 208 160 209 148 209 127 209 118 209 118 " />
        </svg>