<?xml version="1.0" standalone="no"?>
    <svg width="256" height="256" xmlns="http://www.w3.org/2000/svg" version="1.1">
    <polyline stroke="black" stroke-width="3" stroke-linecap="round" fill="transparent" stroke-linejoin="round" points="81.38784790039063 85.3971252441406 83.03173828125 97.3148956298828 84.67562866210938 109.232666015625 85.49752807617188 115.39706420898438 86.73040771484375 121.15048217773438 87.9632568359375 126.08197021484376 91.661865234375 134.3011474609375 97.00436401367188 139.6436004638672 106.86737060546876 144.57510375976563 121.25091552734376 147.04086303710938 135.63446044921875 146.21893310546875 149.60702514648438 142.5203094482422 165.6343994140625 133.47923278808594 172.6207275390625 126.49295043945313 172.6207275390625 126.49295043945313 " />
        <polyline stroke="black" stroke-width="3" stroke-linecap="round" fill="transparent" stroke-linejoin="round" points="182.4837646484375 91.972412109375 181.66180419921875 100.6025390625 180.83984375 109.232666015625 177.963134765625 124.84910583496094 176.3193359375 129.36965942382813 175.08642578125 131.4244384765625 175.08642578125 131.4244384765625 " />
        <polyline stroke="black" stroke-width="3" stroke-linecap="round" fill="transparent" stroke-linejoin="round" points="156.182373046875 51.28753662109375 154.1275634765625 66.90396118164063 152.07275390625 82.5203857421875 148.3741455078125 100.19158935546876 143.85360717773438 121.15048217773438 138.10018920898438 142.5203094482422 126.59335327148438 176.2189178466797 116.31942749023438 204.57504272460935 108.10028076171876 223.4791259765625 108.10028076171876 223.4791259765625 " />
        </svg>