<?xml version="1.0" standalone="no"?>
    <svg width="256" height="256" xmlns="http://www.w3.org/2000/svg" version="1.1">
    <polyline stroke="black" stroke-width="3" stroke-linecap="round" fill="transparent" stroke-linejoin="round" points="91.05459594726563 59.74163818359375 87.4698486328125 69.599853515625 83.88510131835938 79.45806884765625 75.81927490234375 100.9669189453125 72.68255615234375 109.92893981933594 70.4420166015625 117.09854125976563 68.20150756835938 130.09349060058594 71.33822631835938 133.6782684326172 82.98886108398438 136.36688232421875 104.04962158203124 134.1263885498047 123.31793212890624 127.40487670898438 139.89764404296875 119.7871551513672 154.2369384765625 109.03274536132813 164.543212890625 100.51882934570313 164.543212890625 100.51882934570313 " />
        <polyline stroke="black" stroke-width="3" stroke-linecap="round" fill="transparent" stroke-linejoin="round" points="190.5330810546875 61.08595275878906 190.0849609375 65.56695556640625 189.6368408203125 70.04795837402344 189.188720703125 74.97706604003906 188.2926025390625 79.45806884765625 187.3963623046875 83.49098205566406 182.46722412109375 92.00489807128906 182.46722412109375 92.00489807128906 " />
        <polyline stroke="black" stroke-width="3" stroke-linecap="round" fill="transparent" stroke-linejoin="round" points="147.9635009765625 40.92140197753906 146.17108154296875 52.123924255371094 144.378662109375 63.326446533203125 142.13818359375 78.11376953125 131.83184814453125 124.71627807617188 127.350830078125 139.95169067382813 116.596435546875 170.4225311279297 102.25717163085938 198.65289306640625 91.95089721679688 216.57693481445313 91.95089721679688 216.57693481445313 " />
        </svg>