<?xml version="1.0" standalone="no"?>
    <svg width="256" height="256" xmlns="http://www.w3.org/2000/svg" version="1.1">
    <polyline stroke="black" stroke-width="3" stroke-linecap="round" fill="transparent" stroke-linejoin="round" points="70.6302490234375 85.9962921142578 70.22616577148438 93.269775390625 69.82208251953125 100.5432586669922 69.013916015625 115.09024047851563 69.41796875 127.21270751953124 70.22616577148438 132.0616912841797 72.24658203125 139.33517456054688 75.88330078125 144.18417358398438 83.9649658203125 149.03314208984375 97.2996826171875 152.66989135742188 112.65484619140624 153.88214111328125 126.79769897460938 153.47805786132813 138.11203002929688 152.26580810546875 146.59774780273438 150.2454071044922 153.4671630859375 147.0127410888672 159.12432861328125 142.1637420654297 159.12432861328125 142.1637420654297 " />
        <polyline stroke="black" stroke-width="3" stroke-linecap="round" fill="transparent" stroke-linejoin="round" points="175.28759765625 67.81256103515625 175.28759765625 74.68196105957031 175.28759765625 81.55136108398438 175.28759765625 90.84527587890624 173.2672119140625 110.24124145507813 169.6304931640625 128.02085876464844 169.6304931640625 128.02085876464844 " />
        <polyline stroke="black" stroke-width="3" stroke-linecap="round" fill="transparent" stroke-linejoin="round" points="134.87942504882813 79.93502807617188 130.83856201171875 102.15957641601563 126.79769897460938 124.38412475585938 113.05892944335938 180.55160522460935 103.7650146484375 210.04962158203125 95.27926635742188 233.8905029296875 92.45068359375 243.18438720703125 92.45068359375 243.18438720703125 " />
        </svg>