<?xml version="1.0" standalone="no"?>
    <svg width="256" height="256" xmlns="http://www.w3.org/2000/svg" version="1.1">
    <polyline stroke="black" stroke-width="3" stroke-linecap="round" fill="transparent" stroke-linejoin="round" points="87.40603637695313 61.69599914550781 86.25115966796875 77.28660583496094 83.94146728515625 89.41262817382813 81.63174438476563 103.84837341308594 79.322021484375 115.97439575195313 78.74459838867188 125.21327209472656 78.74459838867188 131.56500244140625 81.0543212890625 135.02957153320313 87.40603637695313 136.76187133789063 101.841796875 135.02957153320313 122.05181884765624 131.56500244140625 138.79730224609375 127.5229949951172 154.96533203125 124.63583374023438 167.09130859375 121.1712646484375 174.0205078125 118.86154174804688 179.2174072265625 115.39697265625 183.2593994140625 109.04524230957033 183.2593994140625 109.04524230957033 " />
        <polyline stroke="black" stroke-width="3" stroke-linecap="round" fill="transparent" stroke-linejoin="round" points="174.0205078125 65.73800659179688 176.3302001953125 83.63832092285156 177.485107421875 96.91921997070313 176.90765380859375 109.62266540527344 176.3302001953125 118.28411865234376 174.597900390625 124.05841064453124 172.2882080078125 125.21327209472656 172.2882080078125 125.21327209472656 " />
        <polyline stroke="black" stroke-width="3" stroke-linecap="round" fill="transparent" stroke-linejoin="round" points="135.33270263671875 42.063385009765625 134.1778564453125 51.87969207763672 130.7132568359375 73.822021484375 124.93896484375 107.3129425048828 118.00982666015624 136.76187133789063 109.92578125 162.74620056152344 102.99664306640624 181.2239532470703 96.0675048828125 198.54684448242188 91.44805908203124 210.67288208007813 91.44805908203124 210.67288208007813 " />
        </svg>