<?xml version="1.0" standalone="no"?>
    <svg width="256" height="256" xmlns="http://www.w3.org/2000/svg" version="1.1">
    <polyline stroke="black" stroke-width="3" stroke-linecap="round" fill="transparent" stroke-linejoin="round" points="72 92 72 98 72 104 72 115 71 121 71 123 75 125 90 125 110 125 136 125 156 125 176 125 189 125 194 125 194 125 " />
        <polyline stroke="black" stroke-width="3" stroke-linecap="round" fill="transparent" stroke-linejoin="round" points="178 66 178 85 178 104 178 116 177 125 177 125 " />
        <polyline stroke="black" stroke-width="3" stroke-linecap="round" fill="transparent" stroke-linejoin="round" points="142 45 142 55 142 65 142 97 141 137 137 156 118 215 112 233 112 233 " />
        </svg>