<?xml version="1.0" standalone="no"?>
    <svg width="256" height="256" xmlns="http://www.w3.org/2000/svg" version="1.1">
    <polyline stroke="black" stroke-width="3" stroke-linecap="round" fill="transparent" stroke-linejoin="round" points="44.342041015625 114.47996520996094 57.60467529296875 113.59576416015624 73.96185302734375 112.71160888671876 96.50827026367188 110.94326782226563 102.25537109375 110.50119018554688 112.42333984375 108.29074096679688 112.42333984375 108.29074096679688 " />
        <polyline stroke="black" stroke-width="3" stroke-linecap="round" fill="transparent" stroke-linejoin="round" points="62.0255126953125 95.02815246582033 60.257171630859375 108.73283386230467 57.60467529296875 134.81591796875 54.9521484375 166.6461181640625 54.067962646484375 180.35079956054688 54.067962646484375 187.86627197265625 54.067962646484375 189.63461303710935 54.067962646484375 189.63461303710935 " />
        <polyline stroke="black" stroke-width="3" stroke-linecap="round" fill="transparent" stroke-linejoin="round" points="90.76116943359376 89.28103637695313 90.31906127929688 99.4490203857422 86.7823486328125 122.43753051757813 81.477294921875 142.77346801757813 76.61434936523438 156.92025756835938 72.19354248046875 166.20404052734375 67.77264404296875 171.95115661621094 66.00433349609375 173.71951293945313 61.58343505859375 176.37203979492188 59.81512451171875 177.25621032714844 58.930908203125 177.6982879638672 59.373016357421875 177.6982879638672 60.69927978515625 177.6982879638672 66.88848876953125 177.25621032714844 75.73019409179688 174.6036834716797 81.91940307617188 170.62490844726563 81.91940307617188 170.62490844726563 " />
        <polyline stroke="black" stroke-width="3" stroke-linecap="round" fill="transparent" stroke-linejoin="round" points="150.88485717773438 92.81771850585938 156.63201904296875 91.49147033691406 161.93701171875 90.6072998046875 172.10498046875 90.6072998046875 176.08380126953125 92.81771850585938 177.8521728515625 99.00692749023438 177.8521728515625 99.00692749023438 " />
        <polyline stroke="black" stroke-width="3" stroke-linecap="round" fill="transparent" stroke-linejoin="round" points="124.8017578125 168.85655212402344 143.81149291992188 165.3198699951172 155.747802734375 163.99362182617188 180.504638671875 162.6673583984375 201.72479248046875 164.43569946289063 211.89276123046875 167.53030395507813 211.89276123046875 167.53030395507813 " />
        </svg>