<?xml version="1.0" standalone="no"?>
    <svg width="256" height="256" xmlns="http://www.w3.org/2000/svg" version="1.1">
    <polyline stroke="black" stroke-width="3" stroke-linecap="round" fill="transparent" stroke-linejoin="round" points="59 122 77 119 98 116 117 112 129 111 131 111 131 111 " />
        <polyline stroke="black" stroke-width="3" stroke-linecap="round" fill="transparent" stroke-linejoin="round" points="76 73 76 90 72 113 69 143 67 166 67 186 67 196 68 201 75 203 85 203 96 203 104 203 108 203 109 203 109 203 " />
        <polyline stroke="black" stroke-width="3" stroke-linecap="round" fill="transparent" stroke-linejoin="round" points="105 90 105 111 105 140 104 165 103 188 103 200 103 200 " />
        <polyline stroke="black" stroke-width="3" stroke-linecap="round" fill="transparent" stroke-linejoin="round" points="179 98 192 98 203 98 210 100 210 100 " />
        <polyline stroke="black" stroke-width="3" stroke-linecap="round" fill="transparent" stroke-linejoin="round" points="143 185 151 185 167 185 183 183 202 183 220 183 220 183 " />
        </svg>