<?xml version="1.0" standalone="no"?>
    <svg width="256" height="256" xmlns="http://www.w3.org/2000/svg" version="1.1">
    <polyline stroke="black" stroke-width="3" stroke-linecap="round" fill="transparent" stroke-linejoin="round" points="62 70 62 81 62 108 62 124 64 157 67 182 68 197 69 204 69 205 70 205 72 205 78 205 88 203 101 201 113 199 120 197 121 195 121 195 " />
        <polyline stroke="black" stroke-width="3" stroke-linecap="round" fill="transparent" stroke-linejoin="round" points="119 74 119 80 119 87 121 116 121 143 121 156 121 169 120 187 119 201 118 210 118 210 " />
        <polyline stroke="black" stroke-width="3" stroke-linecap="round" fill="transparent" stroke-linejoin="round" points="15 144 21 144 39 140 52 138 78 134 118 132 137 132 137 132 " />
        <polyline stroke="black" stroke-width="3" stroke-linecap="round" fill="transparent" stroke-linejoin="round" points="161 104 176 103 183 103 198 102 210 102 214 102 214 102 " />
        <polyline stroke="black" stroke-width="3" stroke-linecap="round" fill="transparent" stroke-linejoin="round" points="147 208 157 208 173 206 191 203 209 203 209 203 " />
        </svg>