<?xml version="1.0" standalone="no"?>
    <svg width="256" height="256" xmlns="http://www.w3.org/2000/svg" version="1.1">
    <polyline stroke="black" stroke-width="3" stroke-linecap="round" fill="transparent" stroke-linejoin="round" points="66 70 66 69 66 68 66 67 66 68 66 74 66 78 65 93 65 100 61 129 60 153 61 167 63 176 65 181 66 183 68 183 69 181 71 179 76 177 86 172 94 167 97 165 97 165 " />
        <polyline stroke="black" stroke-width="3" stroke-linecap="round" fill="transparent" stroke-linejoin="round" points="109 58 108 63 106 75 104 99 101 126 101 142 100 146 100 154 100 157 100 162 100 163 100 163 " />
        <polyline stroke="black" stroke-width="3" stroke-linecap="round" fill="transparent" stroke-linejoin="round" points="31 140 28 142 28 143 25 146 27 146 38 140 62 126 94 112 115 104 121 102 130 99 133 99 136 98 136 98 " />
        <polyline stroke="black" stroke-width="3" stroke-linecap="round" fill="transparent" stroke-linejoin="round" points="159 75 165 73 178 71 190 69 203 66 211 65 213 65 219 64 220 64 224 64 225 64 225 66 218 73 208 81 208 81 " />
        <polyline stroke="black" stroke-width="3" stroke-linecap="round" fill="transparent" stroke-linejoin="round" points="143 164 144 164 144 165 146 166 157 170 160 172 173 177 195 183 201 183 207 184 214 184 227 185 234 185 234 185 " />
        </svg>