<?xml version="1.0" standalone="no"?>
    <svg width="256" height="256" xmlns="http://www.w3.org/2000/svg" version="1.1">
    <polyline stroke="black" stroke-width="3" stroke-linecap="round" fill="transparent" stroke-linejoin="round" points="70.3333740234375 112.26667785644533 103.4000244140625 101.60000610351563 113.00006103515624 99.4666748046875 115.1334228515625 99.4666748046875 115.1334228515625 98.40000915527344 108.7333984375 98.40000915527344 108.7333984375 98.40000915527344 " />
        <polyline stroke="black" stroke-width="3" stroke-linecap="round" fill="transparent" stroke-linejoin="round" points="57.53338623046875 120.8000030517578 57.53338623046875 134.6666717529297 57.53338623046875 148.53334045410156 56.466796875 173.06671142578125 56.466796875 178.40003967285156 57.53338623046875 175.20001220703125 60.7333984375 164.53334045410156 60.7333984375 164.53334045410156 " />
        <polyline stroke="black" stroke-width="3" stroke-linecap="round" fill="transparent" stroke-linejoin="round" points="88.466796875 93.06668090820313 87.4000244140625 117.60000610351563 88.466796875 135.73338317871094 88.466796875 148.53334045410156 87.4000244140625 156.00001525878906 87.4000244140625 156.00001525878906 " />
        <polyline stroke="black" stroke-width="3" stroke-linecap="round" fill="transparent" stroke-linejoin="round" points="88.466796875 153.86668395996094 98.06671142578124 150.6666717529297 98.06671142578124 150.6666717529297 " />
        <polyline stroke="black" stroke-width="3" stroke-linecap="round" fill="transparent" stroke-linejoin="round" points="153.533447265625 87.73333740234375 175.933349609375 87.73333740234375 182.3333740234375 90.933349609375 182.3333740234375 90.933349609375 " />
        <polyline stroke="black" stroke-width="3" stroke-linecap="round" fill="transparent" stroke-linejoin="round" points="152.466796875 174.1333465576172 184.466796875 175.20001220703125 207.933349609375 180.53335571289065 230.3333740234375 186.933349609375 237.800048828125 193.33334350585935 237.800048828125 193.33334350585935 " />
        </svg>