<?xml version="1.0" standalone="no"?>
    <svg width="256" height="256" xmlns="http://www.w3.org/2000/svg" version="1.1">
    <polyline stroke="black" stroke-width="3" stroke-linecap="round" fill="transparent" stroke-linejoin="round" points="82.53094482421875 46.83995056152344 82.53094482421875 61.108612060546875 82.95062255859375 66.98394775390625 83.78997802734375 73.6986083984375 84.62924194335938 80.41326904296875 86.72760009765625 92.58360290527344 87.986572265625 97.199951171875 90.92425537109376 106.85226440429688 92.18328857421876 109.37026977539063 92.18328857421876 109.37026977539063 " />
        <polyline stroke="black" stroke-width="3" stroke-linecap="round" fill="transparent" stroke-linejoin="round" points="106.0322265625 65.30528259277344 111.0682373046875 75.37727355957031 113.16659545898438 79.57394409179688 114.84521484375 83.77059936523438 116.52392578125 87.547607421875 119.88128662109376 93.42294311523438 122.81893920898438 97.199951171875 124.077880859375 98.45895385742188 124.077880859375 98.45895385742188 " />
        <polyline stroke="black" stroke-width="3" stroke-linecap="round" fill="transparent" stroke-linejoin="round" points="178.21490478515625 60.269287109375 168.1429443359375 74.1182861328125 162.267578125 80.83294677734375 155.55291748046875 87.547607421875 139.60556030273438 101.81626892089844 121.97958374023438 115.24559020996094 113.16659545898438 121.12094116210938 113.16659545898438 121.12094116210938 " />
        <polyline stroke="black" stroke-width="3" stroke-linecap="round" fill="transparent" stroke-linejoin="round" points="54.83294677734375 153.01556396484375 72.03927612304688 146.7205810546875 80.85226440429688 143.36325073242188 100.99627685546876 136.64859008789063 119.04193115234376 130.35357666015625 127.85491943359376 126.99626159667967 135.82858276367188 124.05859375 148.41854858398438 118.60293579101563 157.6512451171875 115.66526794433594 163.52655029296875 113.98660278320313 163.52655029296875 113.98660278320313 " />
        <polyline stroke="black" stroke-width="3" stroke-linecap="round" fill="transparent" stroke-linejoin="round" points="97.638916015625 131.19293212890625 92.60296630859376 147.14024353027344 89.665283203125 155.5335693359375 86.72760009765625 162.66790771484375 80.85226440429688 174.83824157714844 77.49496459960938 180.71356201171875 71.199951171875 191.6249084472656 65.7442626953125 198.75921630859375 61.1279296875 205.05422973632813 58.609954833984375 208.83123779296875 57.350921630859375 210.5098876953125 56.9312744140625 210.5098876953125 56.9312744140625 210.5098876953125 " />
        <polyline stroke="black" stroke-width="3" stroke-linecap="round" fill="transparent" stroke-linejoin="round" points="91.76361083984376 169.80223083496094 103.09457397460938 178.615234375 106.0322265625 181.1332244873047 111.90756225585938 185.74957275390625 117.78292846679688 189.10690307617188 120.7205810546875 189.94622802734375 127.43524169921876 189.94622802734375 131.21224975585938 187.847900390625 131.21224975585938 187.847900390625 " />
        <polyline stroke="black" stroke-width="3" stroke-linecap="round" fill="transparent" stroke-linejoin="round" points="157.6512451171875 133.29124450683594 152.195556640625 144.20257568359375 147.9989013671875 152.17623901367188 138.7662353515625 171.90057373046875 134.14990234375 181.9725646972656 121.97958374023438 208.83123779296875 115.264892578125 223.09988403320313 112.74691772460938 227.7162170410156 112.74691772460938 227.7162170410156 " />
        <polyline stroke="black" stroke-width="3" stroke-linecap="round" fill="transparent" stroke-linejoin="round" points="125.3369140625 215.126220703125 136.66790771484375 216.38522338867188 141.28427124023438 218.06390380859375 146.32025146484375 220.1622314453125 152.195556640625 222.68023681640625 170.2412109375 234.85055541992188 176.9559326171875 239.88653564453125 176.9559326171875 239.88653564453125 " />
        </svg>