<?xml version="1.0" standalone="no"?>
    <svg width="256" height="256" xmlns="http://www.w3.org/2000/svg" version="1.1">
    <polyline stroke="black" stroke-width="3" stroke-linecap="round" fill="transparent" stroke-linejoin="round" points="23.70263671875 101.71838378906251 24.879058837890625 103.28695678710938 26.05548095703125 104.85552978515624 26.05548095703125 104.85552978515624 " />
        <polyline stroke="black" stroke-width="3" stroke-linecap="round" fill="transparent" stroke-linejoin="round" points="71.9359130859375 22.898086547851563 71.9359130859375 51.524375915527344 71.9359130859375 80.15066528320313 72.32806396484375 90.34634399414063 75.07308959960938 124.85472106933594 77.42593383789063 154.6574249267578 80.9552001953125 177.00946044921875 85.26876831054688 195.83221435546875 86.83731079101563 200.53790283203125 86.83731079101563 200.53790283203125 " />
        <polyline stroke="black" stroke-width="3" stroke-linecap="round" fill="transparent" stroke-linejoin="round" points="130.3649291992187 29.956619262695313 125.65924072265624 53.485076904296875 120.95355224609376 77.01353454589844 116.24786376953124 94.26773071289063 115.07144165039063 98.18913269042967 115.07144165039063 98.18913269042967 " />
        <polyline stroke="black" stroke-width="3" stroke-linecap="round" fill="transparent" stroke-linejoin="round" points="111.15008544921875 62.50433349609375 121.34573364257813 71.13142395019531 131.5413818359375 79.75851440429688 138.59991455078125 87.20919799804688 138.59991455078125 87.20919799804688 " />
        <polyline stroke="black" stroke-width="3" stroke-linecap="round" fill="transparent" stroke-linejoin="round" points="127.22778320312497 127.20756530761719 127.61993408203124 147.59889221191406 128.0120849609375 167.99021911621094 129.5806884765625 186.0286865234375 130.36495971679688 192.695068359375 131.14920043945313 199.75363159179688 131.14920043945313 199.75363159179688 " />
        <polyline stroke="black" stroke-width="3" stroke-linecap="round" fill="transparent" stroke-linejoin="round" points="88.79803466796875 160.53955078125 88.4058837890625 162.89239501953125 88.01373291015625 165.2452392578125 88.01373291015625 165.2452392578125 " />
        <polyline stroke="black" stroke-width="3" stroke-linecap="round" fill="transparent" stroke-linejoin="round" points="149.97198486328125 137.79537963867188 149.97198486328125 137.79537963867188 149.97198486328125 137.79537963867188 " />
        <polyline stroke="black" stroke-width="3" stroke-linecap="round" fill="transparent" stroke-linejoin="round" points="199.38177490234375 5.2517547607421875 189.18609619140625 35.8387451171875 178.99041748046875 66.42573547363281 168.402587890625 93.09130859375 162.5205078125 110.34552001953124 162.5205078125 110.34552001953124 " />
        <polyline stroke="black" stroke-width="3" stroke-linecap="round" fill="transparent" stroke-linejoin="round" points="209.96954345703125 29.56449127197265 219.38092041015625 38.19158935546875 228.79229736328125 46.81868743896485 237.41943359375 57.79862976074219 237.41943359375 57.79862976074219 " />
        <polyline stroke="black" stroke-width="3" stroke-linecap="round" fill="transparent" stroke-linejoin="round" points="181.73541259765625 89.56204223632811 177.02972412109375 105.63981628417967 172.32403564453125 121.71759033203124 170.36334228515625 130.3446807861328 170.36334228515625 130.3446807861328 " />
        <polyline stroke="black" stroke-width="3" stroke-linecap="round" fill="transparent" stroke-linejoin="round" points="208.4010009765625 102.1105499267578 212.71453857421875 100.5419921875 217.028076171875 98.9734344482422 222.51806640625 98.18913269042967 229.5765380859375 98.9734344482422 235.850830078125 104.46339416503906 240.16436767578125 120.93331909179688 238.98797607421875 141.71678161621094 234.6744384765625 159.36312866210938 228.79229736328125 174.2644805908203 223.69451904296875 182.89157104492188 221.3416748046875 183.28370666503903 221.3416748046875 183.28370666503903 " />
        <polyline stroke="black" stroke-width="3" stroke-linecap="round" fill="transparent" stroke-linejoin="round" points="194.676025390625 122.89404296875 188.0096435546875 140.14822387695313 181.34326171875 157.40240478515625 179.382568359375 163.28453063964844 179.382568359375 163.28453063964844 " />
        <polyline stroke="black" stroke-width="3" stroke-linecap="round" fill="transparent" stroke-linejoin="round" points="226.83160400390625 102.89483642578125 217.42022705078125 128.3839874267578 208.00885009765625 153.87313842773438 200.166015625 177.40159606933594 199.77386474609375 180.53872680664065 199.77386474609375 180.53872680664065 " />
        </svg>