<?xml version="1.0" standalone="no"?>
    <svg width="256" height="256" xmlns="http://www.w3.org/2000/svg" version="1.1">
    <polyline stroke="black" stroke-width="3" stroke-linecap="round" fill="transparent" stroke-linejoin="round" points="54 86 52 85 52 86 52 94 52 104 52 108 52 121 52 129 53 131 53 131 " />
        <polyline stroke="black" stroke-width="3" stroke-linecap="round" fill="transparent" stroke-linejoin="round" points="83 61 83 64 83 77 83 94 82 130 81 156 79 176 79 189 79 193 79 193 " />
        <polyline stroke="black" stroke-width="3" stroke-linecap="round" fill="transparent" stroke-linejoin="round" points="133 58 133 56 133 54 133 56 131 64 122 77 114 87 112 89 104 98 99 102 99 102 " />
        <polyline stroke="black" stroke-width="3" stroke-linecap="round" fill="transparent" stroke-linejoin="round" points="114 62 114 63 115 64 117 70 123 82 131 94 140 104 140 104 " />
        <polyline stroke="black" stroke-width="3" stroke-linecap="round" fill="transparent" stroke-linejoin="round" points="124 116 123 115 123 114 124 118 125 127 127 151 127 166 127 170 127 184 124 194 122 199 120 200 119 196 118 192 118 192 " />
        <polyline stroke="black" stroke-width="3" stroke-linecap="round" fill="transparent" stroke-linejoin="round" points="109 146 108 147 104 154 100 164 98 172 98 173 98 173 " />
        <polyline stroke="black" stroke-width="3" stroke-linecap="round" fill="transparent" stroke-linejoin="round" points="156 150 156 153 158 162 158 164 161 169 162 170 162 170 " />
        <polyline stroke="black" stroke-width="3" stroke-linecap="round" fill="transparent" stroke-linejoin="round" points="188 35 186 41 179 55 171 67 163 78 156 87 156 87 " />
        <polyline stroke="black" stroke-width="3" stroke-linecap="round" fill="transparent" stroke-linejoin="round" points="194 37 194 39 196 48 200 56 210 67 218 75 218 75 " />
        <polyline stroke="black" stroke-width="3" stroke-linecap="round" fill="transparent" stroke-linejoin="round" points="175 89 175 91 174 97 171 105 165 120 162 127 162 128 162 128 " />
        <polyline stroke="black" stroke-width="3" stroke-linecap="round" fill="transparent" stroke-linejoin="round" points="175 110 174 109 175 107 180 105 182 105 191 103 201 102 208 103 214 104 216 105 218 107 218 112 218 121 216 131 216 135 213 147 213 151 209 166 205 177 202 184 200 188 198 188 197 183 196 181 196 181 " />
        <polyline stroke="black" stroke-width="3" stroke-linecap="round" fill="transparent" stroke-linejoin="round" points="197 115 198 112 198 113 197 121 192 137 186 154 182 167 178 174 176 177 175 177 175 177 " />
        <polyline stroke="black" stroke-width="3" stroke-linecap="round" fill="transparent" stroke-linejoin="round" points="189 110 189 109 189 108 188 108 185 120 178 142 172 158 172 158 " />
        </svg>