<?xml version="1.0" standalone="no"?>
    <svg width="256" height="256" xmlns="http://www.w3.org/2000/svg" version="1.1">
    <polyline stroke="black" stroke-width="3" stroke-linecap="round" fill="transparent" stroke-linejoin="round" points="22.60394287109375 110.01483154296876 46.97265625 109.90609741210938 54.89544677734375 109.76266479492188 73.53948974609375 108.76750183105467 81.92550659179688 108.22421264648438 93.42587280273438 107.2446746826172 97.319580078125 106.27279663085938 102.15191650390624 104.1226806640625 102.75448608398438 103.69474792480467 102.94866943359376 103.55682373046876 102.97509765625 103.5380859375 " />
        <polyline stroke="black" stroke-width="3" stroke-linecap="round" fill="transparent" stroke-linejoin="round" points="39.14239501953125 109.14439392089844 43.71337890625 130.4786376953125 47.125701904296875 145.97470092773438 49.054901123046875 161.18736267089844 51.913909912109375 189.73199462890625 52.465576171875 196.0189208984375 53.936859130859375 202.27267456054688 54.0125732421875 202.50390625 " />
        <polyline stroke="black" stroke-width="3" stroke-linecap="round" fill="transparent" stroke-linejoin="round" points="75.70111083984375 124.37718200683594 77.10882568359375 142.86453247070313 76.74081420898438 151.2811279296875 75.84228515625 159.46783447265625 74.2578125 167.27987670898438 71.713134765625 182.190185546875 70.62213134765625 187.28439331054688 70.5338134765625 187.69677734375 " />
        <polyline stroke="black" stroke-width="3" stroke-linecap="round" fill="transparent" stroke-linejoin="round" points="22.60394287109375 209.68081665039065 49.057861328125 209.6873779296875 67.49777221679688 205.16693115234375 76.17926025390625 202.6796875 85.79022216796875 199.5074462890625 89.55853271484375 199.16720581054688 93.19158935546876 198.21734619140625 93.45184326171876 198.1492919921875 " />
        <polyline stroke="black" stroke-width="3" stroke-linecap="round" fill="transparent" stroke-linejoin="round" points="95.28610229492188 70.84478759765625 119.2886962890625 68.46578979492188 137.62652587890625 68.96295166015625 146.34423828125 70.05712890625 161.49725341796875 73.58050537109375 165.6116943359375 75.12008666992188 173.18719482421875 77.76425170898438 176.51654052734375 79.620361328125 177.78680419921875 81.73043823242188 179.66949462890625 86.51065063476563 183.61328125 105.13583374023438 183.5501708984375 123.22113037109376 182.63043212890625 130.1604461669922 178.63623046875 139.61167907714844 176.5557861328125 143.05496215820313 173.2308349609375 146.4012908935547 171.681640625 147.1746063232422 168.19696044921875 148.2581024169922 165.3299560546875 148.482666015625 156.62860107421875 147.39743041992188 141.333740234375 141.17999267578125 141.05010986328125 140.545654296875 " />
        <polyline stroke="black" stroke-width="3" stroke-linecap="round" fill="transparent" stroke-linejoin="round" points="124.8812255859375 81.29013061523438 130.8082275390625 111.90153503417967 131.98175048828125 129.05203247070313 131.65679931640625 166.58563232421875 129.90692138671875 185.2041015625 124.41204833984376 211.70211791992188 123.7467041015625 210.2330322265625 " />
        </svg>