<?xml version="1.0" standalone="no"?>
    <svg width="256" height="256" xmlns="http://www.w3.org/2000/svg" version="1.1">
    <polyline stroke="black" stroke-width="3" stroke-linecap="round" fill="transparent" stroke-linejoin="round" points="34.169342041015625 137.2178955078125 51.329986572265625 133.91775512695313 90.60150146484376 118.0771484375 95.88168334960938 114.447021484375 106.112060546875 103.88665771484376 106.112060546875 103.88665771484376 106.112060546875 103.88665771484376 " />
        <polyline stroke="black" stroke-width="3" stroke-linecap="round" fill="transparent" stroke-linejoin="round" points="73.11080932617188 130.6176300048828 66.1805419921875 147.77828979492188 59.580322265625 186.05972290039065 59.91033935546875 189.35986328125 62.22039794921875 196.95013427734375 66.1805419921875 199.5902404785156 66.1805419921875 199.5902404785156 " />
        <polyline stroke="black" stroke-width="3" stroke-linecap="round" fill="transparent" stroke-linejoin="round" points="104.7919921875 125.66746520996094 94.56161499023438 143.4881134033203 59.250274658203125 195.63006591796875 54.300079345703125 202.56036376953125 45.71978759765625 213.1207275390625 43.40972900390625 216.42086791992188 47.369873046875 211.8006896972656 60.57037353515625 196.29010009765625 77.73101806640625 177.8094024658203 95.88168334960938 158.9987030029297 107.76214599609376 147.11825561523438 107.76214599609376 147.11825561523438 107.76214599609376 147.11825561523438 " />
        <polyline stroke="black" stroke-width="3" stroke-linecap="round" fill="transparent" stroke-linejoin="round" points="119.97259521484376 101.2465362548828 138.12322998046875 82.1058349609375 170.13446044921875 58.34492492675781 174.42462158203125 57.02488708496094 184.32501220703125 57.354888916015625 193.2353515625 66.59524536132813 200.16558837890625 85.7359619140625 202.8056640625 110.1568603515625 200.49560546875 128.9675750732422 194.225341796875 141.50804138183594 182.6749267578125 150.4183807373047 171.78448486328125 152.0684356689453 171.78448486328125 152.0684356689453 171.78448486328125 152.0684356689453 " />
        <polyline stroke="black" stroke-width="3" stroke-linecap="round" fill="transparent" stroke-linejoin="round" points="143.07342529296875 83.42587280273438 146.37359619140625 97.286376953125 148.02362060546875 105.20668029785156 155.94390869140625 150.08836364746094 156.9339599609375 158.3386993408203 159.24407958984375 182.09957885742188 160.89410400390625 205.53042602539065 160.23406982421875 220.7110290527344 160.23406982421875 220.7110290527344 160.23406982421875 220.7110290527344 " />
        </svg>