<?xml version="1.0" standalone="no"?>
    <svg width="256" height="256" xmlns="http://www.w3.org/2000/svg" version="1.1">
    <polyline stroke="black" stroke-width="3" stroke-linecap="round" fill="transparent" stroke-linejoin="round" points="61.592041015625 74.19905090332031 75.72607421875 71.54891967773438 89.86016845703125 68.89878845214844 96.92718505859376 67.57373046875 109.73617553710938 64.923583984375 121.22006225585938 62.71514892578125 129.17047119140625 61.39007568359375 133.58734130859375 60.948394775390625 135.7957763671875 60.948394775390625 135.7957763671875 60.948394775390625 " />
        <polyline stroke="black" stroke-width="3" stroke-linecap="round" fill="transparent" stroke-linejoin="round" points="90.74349975585938 73.315673828125 84.55990600585938 85.68296813964844 81.90975952148438 93.19168090820313 78.81793212890625 102.46714782714844 73.95932006835938 122.3431396484375 71.75091552734375 133.8270721435547 68.21737670898438 161.21177673339844 66.89230346679688 172.69570922851563 66.45062255859375 178.43765258789063 66.89230346679688 179.32102966308594 66.89230346679688 179.32102966308594 " />
        <polyline stroke="black" stroke-width="3" stroke-linecap="round" fill="transparent" stroke-linejoin="round" points="125.19525146484376 72.43229675292969 118.56991577148438 88.77479553222656 109.73617553710938 109.9758758544922 98.69393920898438 132.060302734375 86.768310546875 151.9363250732422 76.16778564453125 166.0703582763672 67.77569580078125 175.3458251953125 62.03375244140625 180.64610290527344 58.05853271484375 183.7379150390625 56.733489990234375 184.62130737304688 57.6168212890625 184.62130737304688 67.333984375 181.97116088867188 83.67648315429688 176.22921752929688 100.460693359375 167.83712768554688 120.77838134765624 155.02813720703125 120.77838134765624 155.02813720703125 " />
        <polyline stroke="black" stroke-width="3" stroke-linecap="round" fill="transparent" stroke-linejoin="round" points="134.029052734375 79.49932861328125 143.74618530273438 75.08242797851563 149.04647827148438 73.315673828125 167.15570068359375 68.45709228515625 184.381591796875 67.13203430175781 188.7984619140625 67.13203430175781 198.073974609375 69.78216552734375 199.8406982421875 71.54891967773438 203.81591796875 88.77479553222656 202.4908447265625 98.9336395263672 194.0987548828125 125.43498229980467 187.91510009765625 136.91888427734375 183.0565185546875 143.1025390625 179.081298828125 145.752685546875 175.989501953125 144.86929321289063 175.989501953125 144.86929321289063 " />
        <polyline stroke="black" stroke-width="3" stroke-linecap="round" fill="transparent" stroke-linejoin="round" points="165.388916015625 103.35055541992188 159.64697265625 128.08511352539063 157.8802490234375 160.3284149169922 157.8802490234375 171.81231689453125 157.4385986328125 181.97116088867188 156.996826171875 200.5220947265625 156.11346435546875 215.53955078125 154.7884521484375 230.11526489257813 154.7884521484375 237.18231201171875 154.7884521484375 237.18231201171875 " />
        </svg>