<?xml version="1.0" standalone="no"?>
    <svg width="256" height="256" xmlns="http://www.w3.org/2000/svg" version="1.1">
    <polyline stroke="black" stroke-width="3" stroke-linecap="round" fill="transparent" stroke-linejoin="round" points="28.7333984375 145.33334350585938 78.86669921875 128.26669311523438 87.4000244140625 125.06671142578124 97.00006103515624 122.93336486816406 102.3333740234375 121.86668395996094 106.60003662109376 118.66667175292967 106.60003662109376 118.66667175292967 " />
        <polyline stroke="black" stroke-width="3" stroke-linecap="round" fill="transparent" stroke-linejoin="round" points="66.06671142578125 85.60000610351563 61.80010986328125 105.86669921875 60.7333984375 119.73338317871094 58.60003662109375 146.40003967285156 59.66668701171875 173.06671142578125 59.66668701171875 177.33334350585938 60.7333984375 180.53335571289065 65.00006103515625 177.33334350585938 67.1334228515625 173.06671142578125 67.1334228515625 173.06671142578125 " />
        <polyline stroke="black" stroke-width="3" stroke-linecap="round" fill="transparent" stroke-linejoin="round" points="86.3333740234375 88.80000305175781 91.666748046875 117.60000610351563 92.7333984375 128.26669311523438 92.7333984375 146.40003967285156 90.60003662109376 160.26669311523438 88.466796875 163.4666748046875 84.2000732421875 169.86668395996094 79.93341064453125 169.86668395996094 77.80010986328125 167.73338317871094 78.86669921875 165.6000213623047 82.06671142578125 163.4666748046875 85.2667236328125 162.40003967285156 92.7333984375 159.20001220703125 97.00006103515624 156.00001525878906 97.00006103515624 156.00001525878906 " />
        <polyline stroke="black" stroke-width="3" stroke-linecap="round" fill="transparent" stroke-linejoin="round" points="133.2667236328125 94.1333465576172 171.666748046875 88.80000305175781 178.0667724609375 90.933349609375 178.0667724609375 90.933349609375 " />
        <polyline stroke="black" stroke-width="3" stroke-linecap="round" fill="transparent" stroke-linejoin="round" points="98.06671142578124 146.40003967285156 140.7333984375 136.80001831054688 172.7333984375 133.6000213623047 202.60009765625 133.6000213623047 206.86669921875 133.6000213623047 211.1334228515625 133.6000213623047 211.1334228515625 133.6000213623047 " />
        <polyline stroke="black" stroke-width="3" stroke-linecap="round" fill="transparent" stroke-linejoin="round" points="139.666748046875 60 139.666748046875 81.33334350585938 137.533447265625 96.26667785644533 135.4000244140625 113.33334350585938 123.666748046875 160.26669311523438 116.2000732421875 186.933349609375 108.7333984375 205.06671142578125 106.60003662109376 206.13336181640625 106.60003662109376 206.13336181640625 " />
        <polyline stroke="black" stroke-width="3" stroke-linecap="round" fill="transparent" stroke-linejoin="round" points="182.3333740234375 48.26667022705078 179.1334228515625 74.93333435058594 175.933349609375 95.20002746582033 171.666748046875 157.06671142578125 171.666748046875 190.13336181640625 172.7333984375 202.933349609375 172.7333984375 222.13336181640625 172.7333984375 233.86666870117188 172.7333984375 233.86666870117188 " />
        </svg>