<?xml version="1.0" standalone="no"?>
    <svg width="256" height="256" xmlns="http://www.w3.org/2000/svg" version="1.1">
    <polyline stroke="black" stroke-width="3" stroke-linecap="round" fill="transparent" stroke-linejoin="round" points="106.27688598632813 22.79029083251953 100.9652099609375 35.77435302734375 89.16152954101563 62.33265686035156 73.81671142578125 93.61245727539063 66.7344970703125 105.4161376953125 61.4228515625 111.3179931640625 58.471923828125 113.08854675292967 58.471923828125 109.54743957519533 62.013031005859375 100.10447692871094 70.86578369140625 87.71060180664063 83.849853515625 73.54617309570313 98.6044921875 62.9228515625 116.31002807617188 54.66026306152344 131.06463623046875 50.52896881103515 148.17999267578125 49.93878173828125 164.114990234375 51.11915588378906 174.14813232421875 53.479888916015625 181.2303466796875 57.61119079589844 188.31256103515625 64.69340515136719 197.7554931640625 83.57931518554688 199.52606201171875 105.4161376953125 195.394775390625 130.2039031982422 187.722412109375 154.9916534423828 176.50885009765625 178.5990447998047 162.34442138671875 202.2064208984375 153.49163818359375 212.23956298828125 133.42538452148438 228.174560546875 121.031494140625 232.30584716796875 113.35910034179688 229.35491943359375 113.35910034179688 229.35491943359375 " />
        <polyline stroke="black" stroke-width="3" stroke-linecap="round" fill="transparent" stroke-linejoin="round" points="143.45852661132813 84.75967407226563 137.55667114257813 93.61245727539063 129.2940673828125 107.18670654296876 112.1787109375 137.28611755371094 96.83392333984376 160.8935089111328 88.57135009765625 170.92665100097656 82.66949462890625 175.0579376220703 77.35784912109375 173.8775634765625 77.35784912109375 173.8775634765625 " />
        <polyline stroke="black" stroke-width="3" stroke-linecap="round" fill="transparent" stroke-linejoin="round" points="66.7344970703125 126.6627960205078 83.849853515625 131.38427734375 101.555419921875 137.28611755371094 131.06463623046875 147.90943908691406 156.44256591796875 157.35240173339844 174.73828125 165.614990234375 191.8536376953125 173.8775634765625 203.067138671875 179.7794189453125 211.32977294921875 186.27145385742188 211.32977294921875 186.27145385742188 " />
        </svg>