<?xml version="1.0" standalone="no"?>
    <svg width="256" height="256" xmlns="http://www.w3.org/2000/svg" version="1.1">
    <polyline stroke="black" stroke-width="3" stroke-linecap="round" fill="transparent" stroke-linejoin="round" points="81.36502075195313 36.83735656738281 77.10205078125 48.40828704833984 69.79409790039063 65.46018981933594 60.0501708984375 87.38406372070313 52.7421875 101.39097595214844 46.6522216796875 114.17990112304688 44.21624755859375 120.8788604736328 44.21624755859375 123.92384338378906 49.69720458984375 120.26986694335938 63.704132080078125 108.6989288330078 83.801025390625 90.42904663085938 110.59686279296876 68.50517272949219 136.78369140625 50.23527526855469 161.7525634765625 40.4913330078125 178.804443359375 38.05534362792969 187.93939208984375 41.709327697753906 194.63836669921875 57.54322814941406 192.202392578125 97.12800598144533 181.8494873046875 134.8857879638672 170.27850341796875 168.38058471679688 159.925537109375 190.9134521484375 154.444580078125 199.43939208984375 148.963623046875 205.52935791015625 143.482666015625 208.5743408203125 136.17471313476563 207.96536254882813 122.77679443359376 193.95843505859375 122.77679443359376 193.95843505859375 " />
        <polyline stroke="black" stroke-width="3" stroke-linecap="round" fill="transparent" stroke-linejoin="round" points="111.81484985351563 80.07609558105469 108.76986694335938 92.25602722167967 103.28887939453124 105.65394592285156 95.3719482421875 121.48785400390624 85.01901245117188 139.75775146484375 72.2301025390625 160.46363830566406 58.8321533203125 176.29754638671875 58.8321533203125 176.29754638671875 " />
        <polyline stroke="black" stroke-width="3" stroke-linecap="round" fill="transparent" stroke-linejoin="round" points="62.48614501953125 120.26986694335938 81.36502075195313 122.09686279296876 95.98095703125 125.75083923339844 119.7318115234375 133.66778564453125 148.35464477539063 143.41172790527344 167.2335205078125 150.71969604492188 184.8944091796875 156.80966186523438 202.5552978515625 164.11761474609375 202.5552978515625 164.11761474609375 " />
        </svg>