<?xml version="1.0" standalone="no"?>
    <svg width="256" height="256" xmlns="http://www.w3.org/2000/svg" version="1.1">
    <polyline stroke="black" stroke-width="3" stroke-linecap="round" fill="transparent" stroke-linejoin="round" points="85.62799072265625 53.889251708984375 78.32003784179688 80.68510437011719 61.26812744140625 117.22488403320313 51.524200439453125 137.32176208496094 43.60723876953125 154.982666015625 38.73529052734375 166.55360412597656 37.51727294921875 171.42556762695313 41.1712646484375 171.42556762695313 47.26123046875 164.11761474609375 60.0501708984375 148.8927001953125 72.2301025390625 135.49478149414063 88.06399536132813 122.7058563232422 106.94287109375 110.5259246826172 125.2127685546875 98.95498657226563 150.181640625 83.73008728027344 170.27850341796875 72.15914916992188 184.285400390625 68.50517272949219 190.984375 71.55015563964844 197.0743408203125 88.60205078125 189.15740966796875 130.01380920410156 171.4964599609375 170.8165740966797 156.880615234375 198.22140502929688 146.52764892578125 214.05532836914065 140.43768310546875 220.7542724609375 133.73870849609375 226.2352600097656 128.25775146484375 228.06222534179688 123.38580322265624 221.36328125 123.38580322265624 221.36328125 " />
        <polyline stroke="black" stroke-width="3" stroke-linecap="round" fill="transparent" stroke-linejoin="round" points="132.520751953125 114.78889465332033 120.94979858398438 137.93077087402344 106.94287109375 162.29061889648438 95.3719482421875 180.56051635742188 81.97402954101563 198.22140502929688 71.0120849609375 211.0103454589844 71.0120849609375 211.0103454589844 " />
        <polyline stroke="black" stroke-width="3" stroke-linecap="round" fill="transparent" stroke-linejoin="round" points="71.0120849609375 160.46363830566406 83.1920166015625 161.68162536621094 92.32696533203124 164.11761474609375 106.3338623046875 168.38058471679688 122.77679443359376 174.47055053710938 139.21969604492188 181.77850341796875 153.8355712890625 189.08645629882813 169.66949462890625 197.6124267578125 169.66949462890625 197.6124267578125 " />
        </svg>