<?xml version="1.0" standalone="no"?>
    <svg width="256" height="256" xmlns="http://www.w3.org/2000/svg" version="1.1">
    <polyline stroke="black" stroke-width="3" stroke-linecap="round" fill="transparent" stroke-linejoin="round" points="88 69 77 86 73 107 66 125 60 145 55 160 51 167 51 167 " />
        <polyline stroke="black" stroke-width="3" stroke-linecap="round" fill="transparent" stroke-linejoin="round" points="98 96 118 91 142 89 166 83 187 79 199 78 202 78 202 90 197 114 187 140 177 163 168 183 159 196 145 203 135 203 135 203 " />
        <polyline stroke="black" stroke-width="3" stroke-linecap="round" fill="transparent" stroke-linejoin="round" points="134 105 133 123 124 142 109 163 94 178 79 187 74 188 74 188 " />
        <polyline stroke="black" stroke-width="3" stroke-linecap="round" fill="transparent" stroke-linejoin="round" points="84 121 118 140 144 157 181 175 214 183 241 189 241 189 " />
        </svg>