<?xml version="1.0" standalone="no"?>
    <svg width="256" height="256" xmlns="http://www.w3.org/2000/svg" version="1.1">
    <polyline stroke="black" stroke-width="3" stroke-linecap="round" fill="transparent" stroke-linejoin="round" points="64 121 67 130 70 139 75 150 80 160 86 170 92 177 93 177 93 177 " />
        <polyline stroke="black" stroke-width="3" stroke-linecap="round" fill="transparent" stroke-linejoin="round" points="79 144 80 139 81 134 86 127 96 121 119 111 139 106 157 103 170 103 178 105 183 110 185 113 187 116 187 122 184 139 179 155 173 173 168 190 165 200 165 202 165 202 " />
        </svg>