<?xml version="1.0" standalone="no"?>
    <svg width="256" height="256" xmlns="http://www.w3.org/2000/svg" version="1.1">
    <polyline stroke="black" stroke-width="3" stroke-linecap="round" fill="transparent" stroke-linejoin="round" points="104.36328125 91.3269500732422 106.3671875 96.339111328125 108.37109375 101.3512725830078 109.37307739257813 104.35856628417967 109.87405395507813 105.36099243164063 110.37506103515624 105.86222839355467 110.87600708007813 106.36343383789063 111.37701416015624 106.86463928222656 111.87799072265624 106.86463928222656 111.87799072265624 106.86463928222656 " />
        <polyline stroke="black" stroke-width="3" stroke-linecap="round" fill="transparent" stroke-linejoin="round" points="180.5125732421875 42.20771789550781 168.48895263671875 62.757598876953125 156.46533203125 83.30747985839844 151.95654296875 89.32206726074219 139.93295288085938 101.3512725830078 133.42019653320313 105.86222839355467 127.90939331054688 109.87193298339844 127.90939331054688 109.87193298339844 " />
        <polyline stroke="black" stroke-width="3" stroke-linecap="round" fill="transparent" stroke-linejoin="round" points="53.263153076171875 140.44613647460938 87.83087158203125 128.91815185546875 122.39859008789063 117.39016723632813 138.43002319335938 110.37313842773438 166.4849853515625 98.3439483642578 176.504638671875 94.83544921875 186.5242919921875 92.32937622070313 188.0272216796875 91.82815551757813 188.0272216796875 91.82815551757813 " />
        <polyline stroke="black" stroke-width="3" stroke-linecap="round" fill="transparent" stroke-linejoin="round" points="136.92703247070313 53.735687255859375 131.917236328125 67.76976013183594 126.90744018554688 81.8038330078125 113.38092041015624 113.38047790527344 104.8642578125 127.9157257080078 86.82891845703125 156.4850616455078 76.80926513671875 170.0178985595703 52.76214599609375 194.5775146484375 52.76214599609375 194.5775146484375 " />
        <polyline stroke="black" stroke-width="3" stroke-linecap="round" fill="transparent" stroke-linejoin="round" points="96.84857177734378 115.88648986816406 122.89959716796876 128.91815185546875 148.95062255859375 141.94981384277344 177.506591796875 150.47047424316406 191.0330810546875 152.475341796875 219.589111328125 153.477783203125 232.6146240234375 153.477783203125 243.13519287109375 153.97898864746094 243.13519287109375 153.97898864746094 " />
        <polyline stroke="black" stroke-width="3" stroke-linecap="round" fill="transparent" stroke-linejoin="round" points="96.34759521484376 185.55563354492193 97.85052490234376 198.0860290527344 99.35345458984376 210.61642456054688 99.85443115234376 213.62374877929688 100.35540771484376 214.12496948242188 100.35540771484376 214.12496948242188 100.85638427734376 215.12738037109375 100.85638427734376 215.12738037109375 " />
        <polyline stroke="black" stroke-width="3" stroke-linecap="round" fill="transparent" stroke-linejoin="round" points="108.87207031250003 175.03004455566406 125.90545654296876 169.01547241210938 142.9388427734375 163.0009002685547 159.97222900390625 157.98870849609375 162.4771728515625 157.98870849609375 163.4791259765625 157.98870849609375 163.9801025390625 159.9935760498047 163.9801025390625 159.49237060546875 163.9801025390625 161.9984588623047 163.4791259765625 164.00332641601563 162.4771728515625 174.52883911132813 162.4771728515625 180.54345703125 160.97418212890625 190.06658935546875 159.47125244140625 193.5750732421875 157.96832275390625 197.58480834960935 157.46734619140625 198.58724975585935 157.46734619140625 199.0884704589844 157.46734619140625 199.0884704589844 " />
        <polyline stroke="black" stroke-width="3" stroke-linecap="round" fill="transparent" stroke-linejoin="round" points="96.8485107421875 224.14926147460938 121.39663696289063 214.62615966796875 145.94476318359375 205.10305786132813 151.95654296875 202.09576416015625 156.96636962890625 200.09088134765625 162.9781494140625 198.0860290527344 164.9820556640625 197.58480834960935 164.9820556640625 197.58480834960935 " />
        </svg>