<?xml version="1.0" standalone="no"?>
    <svg width="256" height="256" xmlns="http://www.w3.org/2000/svg" version="1.1">
    <polyline stroke="black" stroke-width="3" stroke-linecap="round" fill="transparent" stroke-linejoin="round" points="65.11117553710938 80.41555786132813 72.54608154296875 87.85044860839844 78.7418212890625 94.04620361328124 85.3505859375 100.65501403808594 91.95941162109376 105.6116180419922 99.807373046875 108.5029754638672 115.09027099609376 104.37248229980467 126.24261474609376 96.93757629394533 135.32968139648438 87.85044860839844 139.460205078125 83.71995544433594 146.06903076171875 76.69808959960938 150.19952392578125 72.56759643554688 153.0908203125 70.08929443359375 153.0908203125 70.50234985351563 148.54730224609375 80.00250244140625 136.15576171875 99.41587829589844 118.80770874023438 120.48143005371094 102.69873046875 135.3512420654297 87.41586303710938 145.677490234375 75.02438354492188 151.46018981933594 68.41552734375 153.5254364013672 65.524169921875 153.5254364013672 65.11117553710938 152.6993408203125 70.0677490234375 148.98190307617188 86.58978271484375 141.96002197265625 97.74212646484376 138.6556396484375 131.19918823242188 131.22073364257813 150.19952392578125 127.09024047851563 166.7215576171875 121.7205810546875 176.63470458984375 116.35092163085938 179.93914794921875 113.04653930664063 179.93914794921875 113.04653930664063 " />
        <polyline stroke="black" stroke-width="3" stroke-linecap="round" fill="transparent" stroke-linejoin="round" points="140.6993408203125 52.741180419921875 123.35125732421876 84.54605102539063 115.91635131835938 102.7202606201172 108.068359375 127.09024047851563 96.08993530273438 160.54730224609375 92.37249755859376 171.69964599609375 86.58978271484375 186.9825134277344 83.69842529296875 193.59130859375 82.45928955078125 195.2435302734375 82.04623413085938 194.8304748535156 82.04623413085938 194.8304748535156 " />
        <polyline stroke="black" stroke-width="3" stroke-linecap="round" fill="transparent" stroke-linejoin="round" points="112.19891357421876 147.32969665527344 125.41650390625 148.15579223632813 132.85140991210938 149.3949432373047 139.87322998046875 151.04714965820313 162.59100341796875 157.65594482421875 167.960693359375 159.72119140625 169.1998291015625 160.54730224609375 169.1998291015625 160.54730224609375 " />
        <polyline stroke="black" stroke-width="3" stroke-linecap="round" fill="transparent" stroke-linejoin="round" points="106.8292236328125 162.612548828125 93.61163330078124 194.41741943359375 91.95941162109376 202.67843627929688 89.8941650390625 213.00469970703125 88.655029296875 217.5482482910156 88.655029296875 217.9613037109375 88.655029296875 217.5482482910156 91.13330078125 211.35247802734375 96.50299072265624 202.67843627929688 104.76400756835938 192.3521728515625 115.91635131835938 182.85202026367188 128.30783081054688 175.83016967773438 134.09054565429688 173.764892578125 148.13424682617188 171.69964599609375 153.9169921875 173.764892578125 157.22137451171875 178.30845642089844 157.22137451171875 190.28692626953125 149.37338256835938 207.63504028320313 137.8079833984375 220.4395751953125 137.8079833984375 220.4395751953125 " />
        <polyline stroke="black" stroke-width="3" stroke-linecap="round" fill="transparent" stroke-linejoin="round" points="101.04656982421876 234.8963623046875 115.91635131835938 224.983154296875 128.72088623046875 219.61349487304688 141.9384765625 216.72213745117188 157.22137451171875 218.78738403320313 157.22137451171875 218.78738403320313 " />
        </svg>