<?xml version="1.0" standalone="no"?>
    <svg width="256" height="256" xmlns="http://www.w3.org/2000/svg" version="1.1">
    <polyline stroke="black" stroke-width="3" stroke-linecap="round" fill="transparent" stroke-linejoin="round" points="102.34268188476563 80.88998413085938 111.54443359375 83.72129821777344 120.74618530273438 86.5526123046875 120.74618530273438 86.5526123046875 " />
        <polyline stroke="black" stroke-width="3" stroke-linecap="round" fill="transparent" stroke-linejoin="round" points="175.6026611328125 58.2396240234375 164.9852294921875 68.85699462890625 154.3677978515625 79.474365234375 138.795654296875 94.33865356445313 120.74618530273438 110.2646942138672 120.74618530273438 110.2646942138672 " />
        <polyline stroke="black" stroke-width="3" stroke-linecap="round" fill="transparent" stroke-linejoin="round" points="54.918457031249986 139.99330139160156 78.27670288085938 132.5611572265625 101.63494873046876 125.12901306152344 123.57748413085938 119.82034301757813 134.54876708984375 116.98904418945313 167.8165283203125 108.49514770507813 181.26513671875 101.77081298828124 181.26513671875 101.77081298828124 " />
        <polyline stroke="black" stroke-width="3" stroke-linecap="round" fill="transparent" stroke-linejoin="round" points="140.21133422851563 50.099639892578125 134.19482421875 60.717010498046875 128.17831420898438 71.33438110351563 120.39227294921876 85.13694763183594 112.25228881835938 100.35516357421876 95.97235107421876 128.314208984375 82.523681640625 150.2567596435547 70.84457397460938 167.59844970703125 66.59762573242188 173.9688720703125 66.59762573242188 173.9688720703125 " />
        <polyline stroke="black" stroke-width="3" stroke-linecap="round" fill="transparent" stroke-linejoin="round" points="96.68020629882815 159.4584503173828 120.39227294921876 162.6436767578125 144.10433959960938 165.8289031982422 167.46258544921875 169.36801147460938 179.14166259765625 171.49148559570313 182.32684326171875 172.55322265625 182.32684326171875 172.55322265625 " />
        <polyline stroke="black" stroke-width="3" stroke-linecap="round" fill="transparent" stroke-linejoin="round" points="80.754150390625 170.0758056640625 82.523681640625 192.7261962890625 84.293212890625 215.3765869140625 85.00106811523438 220.685302734375 85.7088623046875 226.7017822265625 86.41671752929688 228.4713134765625 88.5401611328125 226.7017822265625 93.848876953125 218.91571044921875 100.21929931640624 209.7139892578125 107.65142822265624 202.2818298339844 117.56097412109376 196.26531982421875 131.363525390625 192.372314453125 145.8739013671875 190.60272216796875 157.552978515625 190.24884033203125 164.63128662109375 191.310546875 168.17041015625 192.7261962890625 169.23211669921875 195.91143798828125 166.046875 204.0513916015625 152.24432373046875 218.91571044921875 152.24432373046875 218.91571044921875 " />
        <polyline stroke="black" stroke-width="3" stroke-linecap="round" fill="transparent" stroke-linejoin="round" points="99.51147460937499 229.5330810546875 106.58969116210938 228.82525634765625 113.66790771484376 228.117431640625 128.17831420898438 227.05569458007813 134.19482421875 227.05569458007813 142.688720703125 227.05569458007813 142.688720703125 227.05569458007813 " />
        </svg>