<?xml version="1.0" standalone="no"?>
    <svg width="256" height="256" xmlns="http://www.w3.org/2000/svg" version="1.1">
    <polyline stroke="black" stroke-width="3" stroke-linecap="round" fill="transparent" stroke-linejoin="round" points="71 87 77 96 83 103 91 110 95 113 95 113 95 113 " />
        <polyline stroke="black" stroke-width="3" stroke-linecap="round" fill="transparent" stroke-linejoin="round" points="82 88 84 85 90 80 98 75 112 68 118 66 121 65 121 64 122 64 123 65 124 67 125 72 125 78 125 90 125 97 125 104 124 105 124 105 " />
        <polyline stroke="black" stroke-width="3" stroke-linecap="round" fill="transparent" stroke-linejoin="round" points="87 104 90 102 103 95 109 91 113 88 113 88 113 88 " />
        <polyline stroke="black" stroke-width="3" stroke-linecap="round" fill="transparent" stroke-linejoin="round" points="105 83 106 85 108 87 111 92 113 98 113 107 113 108 113 108 " />
        <polyline stroke="black" stroke-width="3" stroke-linecap="round" fill="transparent" stroke-linejoin="round" points="93 128 95 125 101 121 114 114 122 111 127 109 129 109 127 111 123 116 123 116 " />
        <polyline stroke="black" stroke-width="3" stroke-linecap="round" fill="transparent" stroke-linejoin="round" points="57 181 51 185 50 186 57 181 69 170 89 155 115 137 157 119 177 113 188 112 191 112 192 112 192 113 190 116 190 116 " />
        <polyline stroke="black" stroke-width="3" stroke-linecap="round" fill="transparent" stroke-linejoin="round" points="119 189 121 194 125 200 138 209 144 211 145 211 145 211 " />
        <polyline stroke="black" stroke-width="3" stroke-linecap="round" fill="transparent" stroke-linejoin="round" points="123 179 127 175 136 171 147 167 157 164 167 162 169 161 169 162 170 166 172 171 174 177 175 184 176 190 176 196 175 196 175 196 " />
        <polyline stroke="black" stroke-width="3" stroke-linecap="round" fill="transparent" stroke-linejoin="round" points="137 189 139 188 147 183 154 181 160 178 161 177 161 177 " />
        <polyline stroke="black" stroke-width="3" stroke-linecap="round" fill="transparent" stroke-linejoin="round" points="150 177 154 185 159 198 160 203 160 203 160 203 " />
        <polyline stroke="black" stroke-width="3" stroke-linecap="round" fill="transparent" stroke-linejoin="round" points="144 214 147 213 155 211 163 210 172 209 184 210 186 212 186 212 " />
        </svg>