<?xml version="1.0" standalone="no"?>
    <svg width="256" height="256" xmlns="http://www.w3.org/2000/svg" version="1.1">
    <polyline stroke="black" stroke-width="3" stroke-linecap="round" fill="transparent" stroke-linejoin="round" points="88.43405151367188 59.662506103515625 89.24676513671875 66.97709655761719 92.09130859375 90.54632568359376 92.904052734375 96.6417999267578 93.716796875 105.17547607421876 93.716796875 109.23912048339844 93.716796875 110.05186462402344 93.716796875 110.05186462402344 " />
        <polyline stroke="black" stroke-width="3" stroke-linecap="round" fill="transparent" stroke-linejoin="round" points="103.87594604492188 60.475250244140625 113.22235107421876 55.19248962402344 129.47698974609375 48.690635681152344 134.75973510742188 47.06517028808594 144.91888427734375 45.8460693359375 152.63983154296875 47.06517028808594 158.3289794921875 49.90972900390625 161.98626708984375 54.78611755371094 164.4244384765625 65.35162353515625 162.392578125 77.948974609375 156.297119140625 90.95266723632813 147.35711669921875 102.33091735839844 147.35711669921875 102.33091735839844 " />
        <polyline stroke="black" stroke-width="3" stroke-linecap="round" fill="transparent" stroke-linejoin="round" points="104.28231811523438 95.01632690429688 109.5650634765625 91.76541137695313 120.53695678710938 86.07627868652344 131.10247802734375 81.60626220703125 144.51254272460938 77.948974609375 144.51254272460938 77.948974609375 " />
        <polyline stroke="black" stroke-width="3" stroke-linecap="round" fill="transparent" stroke-linejoin="round" points="122.97515869140624 91.76541137695313 122.56878662109376 95.8290557861328 121.75604248046876 99.89273071289063 120.13058471679688 105.98820495605467 118.0987548828125 110.45823669433594 115.66058349609376 113.70916748046876 112.40960693359376 116.14736938476563 108.7523193359375 117.77281188964844 106.72052001953124 118.58555603027344 105.50140380859376 118.99191284179688 105.09506225585938 118.99191284179688 109.971435546875 117.366455078125 114.03509521484376 116.14736938476563 124.19427490234376 112.89642333984376 140.855224609375 109.23912048339844 146.95068359375 108.4263916015625 146.95068359375 108.4263916015625 " />
        <polyline stroke="black" stroke-width="3" stroke-linecap="round" fill="transparent" stroke-linejoin="round" points="59.98846435546875 161.2539520263672 68.11572265625 158.00302124023438 78.68124389648438 154.75210571289063 110.7841796875 148.250244140625 132.7279052734375 146.21841430664063 153.04620361328125 144.5929412841797 169.30084228515625 143.78021240234375 179.4599609375 143.37384033203125 184.33636474609375 143.37384033203125 184.33636474609375 143.37384033203125 " />
        <polyline stroke="black" stroke-width="3" stroke-linecap="round" fill="transparent" stroke-linejoin="round" points="98.59320068359376 184.01043701171875 98.18682861328124 191.73138427734375 97.78045654296876 211.643310546875 98.18682861328124 218.1451416015625 98.18682861328124 220.98971557617188 98.18682861328124 220.98971557617188 " />
        <polyline stroke="black" stroke-width="3" stroke-linecap="round" fill="transparent" stroke-linejoin="round" points="113.62872314453124 173.03855895996094 118.50509643554688 170.19400024414063 123.38153076171876 167.34942626953125 131.9151611328125 162.87942504882813 140.4488525390625 160.4412078857422 148.1697998046875 160.03485107421875 154.26531982421875 162.06668090820313 158.7353515625 165.72396850585938 162.79901123046875 172.22581481933594 164.830810546875 181.57223510742188 164.4244384765625 190.51226806640625 163.205322265625 194.16958618164065 159.548095703125 200.26507568359375 154.67169189453125 205.14144897460935 154.67169189453125 205.14144897460935 " />
        <polyline stroke="black" stroke-width="3" stroke-linecap="round" fill="transparent" stroke-linejoin="round" points="122.16241455078124 193.3568420410156 120.94329833984376 197.4205017089844 116.4732666015625 212.4560546875 115.66058349609376 215.30059814453125 115.66058349609376 215.30059814453125 " />
        <polyline stroke="black" stroke-width="3" stroke-linecap="round" fill="transparent" stroke-linejoin="round" points="116.06689453125 196.6077880859375 121.75604248046876 194.16958618164065 127.85153198242188 191.73138427734375 138.82342529296875 188.0740966796875 147.35711669921875 186.4486083984375 149.79525756835938 186.04226684570313 153.45257568359375 186.04226684570313 153.45257568359375 186.04226684570313 " />
        <polyline stroke="black" stroke-width="3" stroke-linecap="round" fill="transparent" stroke-linejoin="round" points="108.7523193359375 223.83428955078125 120.53695678710938 221.3960876464844 136.79159545898438 218.9578857421875 150.20162963867188 218.9578857421875 150.20162963867188 218.9578857421875 " />
        </svg>