<?xml version="1.0" standalone="no"?>
    <svg width="256" height="256" xmlns="http://www.w3.org/2000/svg" version="1.1">
    <polyline stroke="black" stroke-width="3" stroke-linecap="round" fill="transparent" stroke-linejoin="round" points="74.99710083007813 45.717308044433594 74.99710083007813 55.75044250488281 74.40692138671875 68.73451232910156 74.40692138671875 85.25967407226563 74.99710083007813 99.4241180419922 74.99710083007813 110.63761901855467 76.17745971679688 115.94927978515624 76.17745971679688 115.94927978515624 " />
        <polyline stroke="black" stroke-width="3" stroke-linecap="round" fill="transparent" stroke-linejoin="round" points="77.35784912109375 70.50506591796875 90.93206787109376 60.471923828125 102.14556884765624 54.57008361816406 118.08056640625 48.66822814941406 135.7861328125 42.766380310058594 152.9014892578125 39.22527313232422 165.29534912109375 40.40564727783203 172.3775634765625 43.3565673828125 177.09906005859375 50.43878173828125 178.2794189453125 61.65229797363281 172.9677734375 75.81672668457031 160.5738525390625 89.39097595214844 138.1468505859375 102.96522521972656 138.1468505859375 102.96522521972656 " />
        <polyline stroke="black" stroke-width="3" stroke-linecap="round" fill="transparent" stroke-linejoin="round" points="69.09524536132813 91.16152954101563 81.4891357421875 85.84986877441406 97.42413330078124 79.94801330566406 116.90020751953124 74.04617309570313 131.65484619140625 69.91488647460938 143.45852661132813 67.55413818359375 149.3603515625 66.37376403808594 153.49163818359375 66.37376403808594 153.49163818359375 66.37376403808594 " />
        <polyline stroke="black" stroke-width="3" stroke-linecap="round" fill="transparent" stroke-linejoin="round" points="77.947998046875 114.17872619628906 89.751708984375 108.8670654296875 102.73577880859376 102.96522521972656 117.49038696289063 97.653564453125 128.70391845703125 92.9320831298828 136.96649169921875 89.98115539550781 142.27813720703125 88.21060180664063 146.9996337890625 85.25967407226563 146.9996337890625 85.25967407226563 " />
        <polyline stroke="black" stroke-width="3" stroke-linecap="round" fill="transparent" stroke-linejoin="round" points="79.12838745117188 157.26220703125 90.3419189453125 154.31129455566406 102.73577880859376 150.7701873779297 116.90020751953124 147.2290802001953 128.11370849609375 144.8683319091797 137.55667114257813 142.50759887695313 142.86834716796875 141.3272247314453 144.0487060546875 140.73704528808594 144.0487060546875 140.73704528808594 " />
        <polyline stroke="black" stroke-width="3" stroke-linecap="round" fill="transparent" stroke-linejoin="round" points="50.799530029296875 201.52606201171875 70.86578369140625 195.03402709960935 92.11245727539063 189.72238159179688 115.129638671875 185.0008850097656 132.2449951171875 182.04998779296875 149.3603515625 180.2794189453125 163.5247802734375 179.0990447998047 171.19720458984375 177.91867065429688 176.50885009765625 175.5579376220703 176.50885009765625 175.5579376220703 " />
        <polyline stroke="black" stroke-width="3" stroke-linecap="round" fill="transparent" stroke-linejoin="round" points="125.16278076171876 156.08184814453125 125.16278076171876 167.8855438232422 125.16278076171876 177.91867065429688 125.16278076171876 190.9027404785156 124.5726318359375 205.6573486328125 123.39224243164063 219.82177734375 119.85113525390624 235.1665954589844 119.85113525390624 235.1665954589844 " />
        </svg>