<?xml version="1.0" standalone="no"?>
    <svg width="256" height="256" xmlns="http://www.w3.org/2000/svg" version="1.1">
    <polyline stroke="black" stroke-width="3" stroke-linecap="round" fill="transparent" stroke-linejoin="round" points="78.37371826171875 59.440704345703125 82.65850830078125 79.02833557128906 83.88272094726563 88.82215881347656 83.88272094726563 95.55540466308594 85.10693359375 99.2280731201172 86.3311767578125 98.0038604736328 88.77963256835938 91.27059936523438 94.28863525390624 77.80410766601563 104.694580078125 61.27705383300781 120.60952758789063 44.74999237060547 142.03350830078125 29.44715881347656 164.68170166015625 20.265457153320313 181.208740234375 19.653343200683594 194.0631103515625 23.326026916503903 200.79638671875 30.05927276611328 205.6932373046875 48.42266845703125 200.18426513671875 69.84663391113281 184.269287109375 86.98580932617188 153.051513671875 104.12498474121094 124.89431762695313 109.02189636230467 124.89431762695313 109.02189636230467 " />
        <polyline stroke="black" stroke-width="3" stroke-linecap="round" fill="transparent" stroke-linejoin="round" points="75.92523193359375 86.37370300292969 86.94329833984375 80.86468505859375 102.85821533203124 75.9677734375 126.73065185546876 69.23452758789063 145.7061767578125 65.56184387207031 161.62109375 63.72550964355469 170.190673828125 65.56184387207031 173.8634033203125 72.90721130371094 173.8634033203125 72.90721130371094 " />
        <polyline stroke="black" stroke-width="3" stroke-linecap="round" fill="transparent" stroke-linejoin="round" points="91.22808837890624 127.99740600585938 108.9793701171875 120.6520538330078 123.0579833984375 115.1430206298828 139.58502197265625 109.63400268554688 154.2757568359375 105.96133422851563 163.45745849609375 105.96133422851563 168.3543701171875 110.85823059082033 168.3543701171875 110.85823059082033 " />
        <polyline stroke="black" stroke-width="3" stroke-linecap="round" fill="transparent" stroke-linejoin="round" points="65.51931762695313 159.82730102539063 86.3311767578125 151.8698272705078 107.14300537109376 146.36080932617188 131.01544189453125 140.2396697998047 149.990966796875 137.17910766601563 164.68170166015625 137.17910766601563 171.4149169921875 142.68812561035156 171.4149169921875 142.68812561035156 " />
        <polyline stroke="black" stroke-width="3" stroke-linecap="round" fill="transparent" stroke-linejoin="round" points="55.72552490234375 199.0025634765625 71.64044189453125 192.88140869140625 88.77963256835938 187.98452758789065 122.44586181640624 180.02703857421875 146.31829833984375 175.13014221191406 165.9058837890625 170.8453369140625 180.59661865234375 167.78477478027344 187.329833984375 165.9484405517578 189.7783203125 164.11209106445313 189.7783203125 164.11209106445313 " />
        <polyline stroke="black" stroke-width="3" stroke-linecap="round" fill="transparent" stroke-linejoin="round" points="139.58502197265625 153.09405517578125 136.52447509765625 167.78477478027344 135.912353515625 181.86338806152344 136.52447509765625 199.61468505859375 137.1365966796875 219.20230102539065 135.912353515625 238.1778259277344 135.912353515625 238.1778259277344 " />
        </svg>