<?xml version="1.0" standalone="no"?>
    <svg width="256" height="256" xmlns="http://www.w3.org/2000/svg" version="1.1">
    <polyline stroke="black" stroke-width="3" stroke-linecap="round" fill="transparent" stroke-linejoin="round" points="85 78 88 105 88 124 89 142 89 156 89 156 " />
        <polyline stroke="black" stroke-width="3" stroke-linecap="round" fill="transparent" stroke-linejoin="round" points="103 66 116 58 132 58 143 58 152 58 157 64 159 71 160 79 159 91 155 106 155 120 154 129 154 129 " />
        <polyline stroke="black" stroke-width="3" stroke-linecap="round" fill="transparent" stroke-linejoin="round" points="96 92 117 90 136 89 153 89 161 89 161 89 " />
        <polyline stroke="black" stroke-width="3" stroke-linecap="round" fill="transparent" stroke-linejoin="round" points="78 127 83 124 92 124 111 121 133 117 151 116 166 116 172 116 172 116 " />
        <polyline stroke="black" stroke-width="3" stroke-linecap="round" fill="transparent" stroke-linejoin="round" points="86 150 114 145 136 143 155 142 171 142 178 142 178 142 " />
        <polyline stroke="black" stroke-width="3" stroke-linecap="round" fill="transparent" stroke-linejoin="round" points="56 193 93 182 120 178 148 175 173 175 191 175 203 175 203 175 " />
        <polyline stroke="black" stroke-width="3" stroke-linecap="round" fill="transparent" stroke-linejoin="round" points="140 152 140 159 140 166 140 180 140 201 141 209 141 209 " />
        </svg>