<?xml version="1.0" standalone="no"?>
    <svg width="256" height="256" xmlns="http://www.w3.org/2000/svg" version="1.1">
    <polyline stroke="black" stroke-width="3" stroke-linecap="round" fill="transparent" stroke-linejoin="round" points="93.9512939453125 64.42852783203125 91.9903564453125 67.0430908203125 78.26385498046875 85.34513854980469 72.38104248046875 94.49612426757813 65.84466552734375 103.64712524414063 64.53729248046875 110.18356323242188 67.15191650390625 115.41270446777344 67.15191650390625 115.41270446777344 " />
        <polyline stroke="black" stroke-width="3" stroke-linecap="round" fill="transparent" stroke-linejoin="round" points="100.48773193359376 113.45176696777344 98.52679443359376 116.71998596191406 81.5321044921875 141.55845642089844 79.5711669921875 144.1730194091797 73.6883544921875 152.0167236328125 70.42010498046875 157.2458953857422 71.72747802734375 160.5141143798828 75.6492919921875 161.16775512695313 75.6492919921875 161.16775512695313 " />
        <polyline stroke="black" stroke-width="3" stroke-linecap="round" fill="transparent" stroke-linejoin="round" points="97.87322998046876 174.2406005859375 95.9122314453125 178.1624755859375 80.87841796875 201.04000854492188 77.6102294921875 205.615478515625 72.38104248046875 212.1519470214844 73.03466796875 214.7665100097656 73.6883544921875 214.7665100097656 73.6883544921875 214.7665100097656 " />
        <polyline stroke="black" stroke-width="3" stroke-linecap="round" fill="transparent" stroke-linejoin="round" points="175.00311279296875 86.65238952636719 166.5057373046875 97.11068725585938 133.16986083984375 131.10015869140625 125.326171875 137.6365966796875 113.56060791015624 146.13394165039063 107.6778564453125 149.4021453857422 107.6778564453125 148.74851989746094 107.6778564453125 148.09487915039063 107.6778564453125 148.09487915039063 " />
        <polyline stroke="black" stroke-width="3" stroke-linecap="round" fill="transparent" stroke-linejoin="round" points="129.90167236328125 79.46232604980469 128.59442138671875 89.92060852050781 131.20892333984375 141.55845642089844 133.16986083984375 152.6703643798828 138.3990478515625 172.2796630859375 142.97454833984375 184.69891357421875 150.81829833984375 198.4254150390625 163.23748779296875 210.8446350097656 178.27130126953125 218.6883544921875 191.34417724609375 217.38107299804688 201.80242919921875 212.1519470214844 211.6070556640625 203.65457153320313 218.79718017578125 193.84991455078125 220.1044921875 186.65985107421875 218.79718017578125 180.1234130859375 216.1826171875 174.8942413330078 215.5289306640625 172.93333435058594 215.5289306640625 172.93333435058594 " />
        <polyline stroke="black" stroke-width="3" stroke-linecap="round" fill="transparent" stroke-linejoin="round" points="169.12030029296875 153.97769165039063 169.77392578125 155.9385986328125 178.9249267578125 172.93333435058594 180.8858642578125 176.2015380859375 187.42230224609375 184.69891357421875 187.42230224609375 184.69891357421875 " />
        </svg>