<?xml version="1.0" standalone="no"?>
    <svg width="256" height="256" xmlns="http://www.w3.org/2000/svg" version="1.1">
    <polyline stroke="black" stroke-width="3" stroke-linecap="round" fill="transparent" stroke-linejoin="round" points="109 61 109 59 109 59 108 60 105 64 100 74 96 82 94 85 88 95 86 99 81 107 78 111 75 114 74 116 73 118 73 119 74 119 " />
        <polyline stroke="black" stroke-width="3" stroke-linecap="round" fill="transparent" stroke-linejoin="round" points="97 109 99 112 99 119 97 125 95 130 93 135 90 140 87 144 85 148 84 151 83 153 83 155 84 157 85 157 " />
        <polyline stroke="black" stroke-width="3" stroke-linecap="round" fill="transparent" stroke-linejoin="round" points="110 140 110 144 106 154 104 158 98 171 95 175 89 186 85 192 81 196 79 200 77 202 76 203 77 203 " />
        <polyline stroke="black" stroke-width="3" stroke-linecap="round" fill="transparent" stroke-linejoin="round" points="192 71 193 71 192 74 184 84 177 92 168 101 159 110 150 117 142 124 134 130 126 135 120 138 115 139 114 139 112 138 " />
        <polyline stroke="black" stroke-width="3" stroke-linecap="round" fill="transparent" stroke-linejoin="round" points="144 72 143 82 141 93 139 105 137 117 135 130 135 142 135 154 138 171 142 181 146 189 151 197 156 202 161 207 167 209 173 211 179 210 185 208 193 202 197 198 200 193 201 187 202 182 202 177 201 174 201 171 " />
        <polyline stroke="black" stroke-width="3" stroke-linecap="round" fill="transparent" stroke-linejoin="round" points="160 146 162 147 164 148 165 148 167 149 167 149 169 150 169 151 171 154 171 158 172 161 172 164 " />
        </svg>