<?xml version="1.0" standalone="no"?>
    <svg width="256" height="256" xmlns="http://www.w3.org/2000/svg" version="1.1">
    <polyline stroke="black" stroke-width="3" stroke-linecap="round" fill="transparent" stroke-linejoin="round" points="94 38 96 38 97 39 97 41 94 46 91 52 87 59 82 66 77 72 72 78 66 83 60 90 57 94 56 95 55 97 55 99 " />
        <polyline stroke="black" stroke-width="3" stroke-linecap="round" fill="transparent" stroke-linejoin="round" points="97 91 96 93 93 97 90 101 86 106 81 111 77 115 73 120 69 124 65 130 64 133 64 135 64 137 65 138 " />
        <polyline stroke="black" stroke-width="3" stroke-linecap="round" fill="transparent" stroke-linejoin="round" points="98 124 98 125 98 131 95 138 92 146 87 154 82 162 78 169 73 175 70 179 66 183 66 184 66 185 " />
        <polyline stroke="black" stroke-width="3" stroke-linecap="round" fill="transparent" stroke-linejoin="round" points="175 47 175 45 174 46 170 51 161 65 157 71 145 87 136 98 127 108 119 115 113 121 107 124 105 125 104 126 " />
        <polyline stroke="black" stroke-width="3" stroke-linecap="round" fill="transparent" stroke-linejoin="round" points="130 47 131 46 131 46 129 53 127 61 124 71 122 83 121 96 121 110 122 124 124 137 126 150 131 167 136 176 141 185 146 192 152 197 158 201 164 204 170 205 176 205 184 202 189 198 193 194 196 188 198 182 199 175 199 169 198 163 196 157 192 151 191 149 189 148 " />
        <polyline stroke="black" stroke-width="3" stroke-linecap="round" fill="transparent" stroke-linejoin="round" points="142 112 143 110 144 110 146 110 147 110 149 111 152 114 155 118 158 123 161 129 164 135 168 146 171 154 173 158 " />
        </svg>