<?xml version="1.0" standalone="no"?>
    <svg width="256" height="256" xmlns="http://www.w3.org/2000/svg" version="1.1">
    <polyline stroke="black" stroke-width="3" stroke-linecap="round" fill="transparent" stroke-linejoin="round" points="120.91961669921876 54.0452880859375 131.59445190429688 64.72013854980469 133.64730834960938 68.415283203125 136.1107177734375 80.32183837890625 136.1107177734375 80.32183837890625 " />
        <polyline stroke="black" stroke-width="3" stroke-linecap="round" fill="transparent" stroke-linejoin="round" points="62.20794677734375 144.78147888183594 86.431640625 135.74893188476563 108.60247802734376 131.23263549804688 129.54159545898438 128.358642578125 149.24899291992188 127.53750610351563 164.8507080078125 127.53750610351563 174.2938232421875 127.53750610351563 178.3995361328125 127.12693786621094 179.63128662109375 127.12693786621094 179.63128662109375 127.12693786621094 " />
        <polyline stroke="black" stroke-width="3" stroke-linecap="round" fill="transparent" stroke-linejoin="round" points="117.22445678710938 143.1392059326172 105.31787109375 155.04576110839844 88.89508056640625 175.98486328125 76.1673583984375 191.99713134765625 67.54537963867188 201.85086059570313 61.79736328125 208.41998291015625 61.79736328125 208.41998291015625 " />
        <polyline stroke="black" stroke-width="3" stroke-linecap="round" fill="transparent" stroke-linejoin="round" points="138.16357421875 138.62290954589844 131.18389892578125 161.61489868164063 125.846435546875 182.9645843505859 124.61474609375 191.176025390625 125.846435546875 210.47283935546875 130.7733154296875 217.4525451660156 136.52133178710938 220.73712158203125 154.58642578125 223.61111450195313 174.2938232421875 222.78997802734375 194.41180419921875 218.68426513671875 202.212646484375 216.2208251953125 206.318359375 212.936279296875 208.78179931640625 205.5459899902344 207.1395263671875 188.71258544921875 203.4443359375 173.52145385742188 203.4443359375 173.52145385742188 " />
        </svg>