<?xml version="1.0" standalone="no"?>
    <svg width="256" height="256" xmlns="http://www.w3.org/2000/svg" version="1.1">
    <polyline stroke="black" stroke-width="3" stroke-linecap="round" fill="transparent" stroke-linejoin="round" points="144.67550659179688 52.10945129394531 146.73031616210938 57.04095458984375 148.78512573242188 61.97245788574219 148.78512573242188 64.84916687011719 148.78512573242188 64.84916687011719 " />
        <polyline stroke="black" stroke-width="3" stroke-linecap="round" fill="transparent" stroke-linejoin="round" points="85.08657836914065 103.06834411621094 92.48382568359376 101.01353454589844 99.88107299804688 98.95872497558594 108.10028076171876 96.9039306640625 117.14132690429688 95.26010131835938 134.40158081054688 92.79434204101563 150.01800537109375 91.1505126953125 163.168701171875 89.91764831542969 173.8536376953125 89.50668334960938 180.83984375 88.68476867675781 185.3604736328125 87.86283874511719 188.6480712890625 86.21902465820313 189.05908203125 85.3970947265625 189.05908203125 85.3970947265625 " />
        <polyline stroke="black" stroke-width="3" stroke-linecap="round" fill="transparent" stroke-linejoin="round" points="113.03170776367188 117.86279296875 109.33309936523438 124.84910583496094 105.63449096679688 131.83541870117188 101.11395263671876 141.28744506835938 89.19613647460938 163.0682373046875 78.10028076171875 182.7942352294922 69.881103515625 196.766845703125 64.53863525390625 205.39697265625 63.71673583984375 207.4517517089844 63.71673583984375 207.4517517089844 " />
        <polyline stroke="black" stroke-width="3" stroke-linecap="round" fill="transparent" stroke-linejoin="round" points="163.5797119140625 101.83544921874997 162.3468017578125 110.87652587890624 161.1138916015625 119.9176025390625 160.2919921875 129.78060913085938 159.8809814453125 139.6436004638672 160.702880859375 158.13674926757813 163.9906005859375 176.2189178466797 169.7440185546875 191.8353271484375 176.7303466796875 202.520263671875 184.1275634765625 209.91751098632813 193.16864013671875 215.67092895507813 203.03167724609375 219.36956787109375 211.66180419921875 219.780517578125 219.05902099609375 217.7257080078125 224.4014892578125 214.8489990234375 226.456298828125 212.79421997070313 231.3878173828125 203.3421630859375 233.853515625 182.7942352294922 230.976806640625 173.75315856933594 230.976806640625 173.75315856933594 " />
        </svg>