<?xml version="1.0" standalone="no"?>
    <svg width="256" height="256" xmlns="http://www.w3.org/2000/svg" version="1.1">
    <polyline stroke="black" stroke-width="3" stroke-linecap="round" fill="transparent" stroke-linejoin="round" points="95.46026611328124 54.77557373046875 108.56039428710938 61.114349365234375 112.3636474609375 64.07244873046875 116.16693115234376 67.45314025878906 125.46380615234376 82.24362182617188 125.46380615234376 82.24362182617188 " />
        <polyline stroke="black" stroke-width="3" stroke-linecap="round" fill="transparent" stroke-linejoin="round" points="46.44036865234375 149.85726928710938 59.963104248046875 146.47659301757813 70.95028686523438 144.3636474609375 97.15057373046876 139.29263305664063 111.09588623046876 136.7571258544922 123.35089111328124 134.64419555664063 144.9027099609375 131.68609619140625 159.2706298828125 129.5731658935547 168.1448974609375 128.30540466308594 170.680419921875 127.88284301757813 171.94818115234375 127.88284301757813 171.94818115234375 127.88284301757813 " />
        <polyline stroke="black" stroke-width="3" stroke-linecap="round" fill="transparent" stroke-linejoin="round" points="105.602294921875 155.77346801757813 93.34735107421876 180.28338623046875 88.69891357421875 189.58026123046875 84.05047607421875 198.031982421875 71.37289428710938 218.31607055664065 67.9921875 222.96450805664065 63.34375 228.4581298828125 61.2308349609375 230.14846801757813 61.2308349609375 230.14846801757813 " />
        <polyline stroke="black" stroke-width="3" stroke-linecap="round" fill="transparent" stroke-linejoin="round" points="133.0703125 150.7024383544922 134.33807373046875 162.9573974609375 135.6058349609375 170.141357421875 137.71875 179.01565551757813 148.70599365234375 211.55471801757813 156.3125 227.19036865234375 161.80615234375 233.95172119140625 168.1448974609375 235.64208984375 174.90625 230.99365234375 184.203125 218.31607055664065 192.6549072265625 203.52557373046875 195.61297607421875 197.18682861328125 199.83880615234375 185.35443115234375 200.26141357421875 181.5511474609375 199.41619873046875 179.438232421875 199.41619873046875 179.438232421875 " />
        </svg>