<?xml version="1.0" standalone="no"?>
    <svg width="256" height="256" xmlns="http://www.w3.org/2000/svg" version="1.1">
    <polyline stroke="black" stroke-width="3" stroke-linecap="round" fill="transparent" stroke-linejoin="round" points="96 48 97 49 98 50 99 51 100 52 102 54 104 56 106 59 109 65 113 73 113 73 " />
        <polyline stroke="black" stroke-width="3" stroke-linecap="round" fill="transparent" stroke-linejoin="round" points="54 112 64 112 74 112 87 110 127 100 141 97 154 93 157 92 159 92 159 92 159 92 " />
        <polyline stroke="black" stroke-width="3" stroke-linecap="round" fill="transparent" stroke-linejoin="round" points="107 104 106 105 105 106 105 107 104 111 99 123 94 134 79 159 71 170 59 183 51 191 45 195 43 195 43 196 42 196 42 196 " />
        <polyline stroke="black" stroke-width="3" stroke-linecap="round" fill="transparent" stroke-linejoin="round" points="125 98 126 105 127 112 129 147 129 163 127 180 127 188 126 191 126 195 125 199 125 199 125 200 125 201 125 202 126 203 129 205 133 206 148 207 175 199 179 196 188 189 193 183 195 181 195 180 195 179 195 178 195 175 195 168 194 166 191 157 190 152 189 151 188 149 187 148 187 148 " />
        </svg>