<?xml version="1.0" standalone="no"?>
    <svg width="256" height="256" xmlns="http://www.w3.org/2000/svg" version="1.1">
    <polyline stroke="black" stroke-width="3" stroke-linecap="round" fill="transparent" stroke-linejoin="round" points="58.62591552734375 65.48883056640625 73.2147216796875 78.75141906738281 77.63558959960938 82.73019409179688 86.03524780273438 88.91940307617188 97.9715576171875 91.57192993164063 105.92913818359376 89.36148071289063 116.98129272460938 83.61436462402344 116.98129272460938 83.61436462402344 " />
        <polyline stroke="black" stroke-width="3" stroke-linecap="round" fill="transparent" stroke-linejoin="round" points="179.3154296875 28.795669555664063 167.82122802734375 50.45790100097656 144.83270263671875 77.4251708984375 128.47552490234375 92.45608520507813 78.07769775390625 128.70718383789063 58.62591552734375 139.7593231201172 48.899993896484375 145.06436157226563 46.689544677734375 146.83270263671875 51.552490234375 146.39060974121094 73.2147216796875 141.52767944335938 86.91940307617188 137.99099731445313 125.38095092773438 126.49673461914063 147.48519897460938 118.5391845703125 167.37908935546875 106.60284423828124 167.37908935546875 106.60284423828124 " />
        <polyline stroke="black" stroke-width="3" stroke-linecap="round" fill="transparent" stroke-linejoin="round" points="128.9176025390625 35.426963806152344 113.00250244140624 61.067962646484375 105.92913818359376 76.54098510742188 92.22445678710938 110.58163452148438 86.03524780273438 125.612548828125 80.73019409179688 140.20140075683594 72.33056640625 162.30572509765625 67.0255126953125 175.56829833984375 63.930908203125 181.3154296875 62.60467529296875 182.1996154785156 62.60467529296875 182.1996154785156 " />
        <polyline stroke="black" stroke-width="3" stroke-linecap="round" fill="transparent" stroke-linejoin="round" points="99.73992919921876 131.35971069335938 120.96005249023438 142.41184997558594 139.96978759765625 153.4639892578125 168.2633056640625 170.7053680419922 181.08380126953125 178.66290283203125 186.8309326171875 183.0837860107422 188.15716552734375 186.6204833984375 188.15716552734375 186.6204833984375 " />
        <polyline stroke="black" stroke-width="3" stroke-linecap="round" fill="transparent" stroke-linejoin="round" points="103.71868896484376 176.45248413085938 116.5391845703125 186.17840576171875 121.40216064453124 190.15716552734375 135.10678100585938 202.9776611328125 135.10678100585938 202.9776611328125 " />
        </svg>