<?xml version="1.0" standalone="no"?>
    <svg width="256" height="256" xmlns="http://www.w3.org/2000/svg" version="1.1">
    <polyline stroke="black" stroke-width="3" stroke-linecap="round" fill="transparent" stroke-linejoin="round" points="77.089599609375 91.98097229003906 81.22015380859375 97.35061645507813 84.93759155273438 101.8941650390625 91.95941162109376 109.32908630371094 101.45956420898438 115.11175537109376 108.068359375 116.35092163085938 108.068359375 116.35092163085938 " />
        <polyline stroke="black" stroke-width="3" stroke-linecap="round" fill="transparent" stroke-linejoin="round" points="163.00408935546875 75.0458984375 155.982177734375 85.78520202636719 148.54730224609375 96.52450561523438 120.45989990234376 127.50328063964844 112.19891357421876 134.52513122558594 99.807373046875 144.02529907226563 95.26385498046876 146.9166259765625 88.655029296875 150.22103881835938 88.241943359375 149.8079833984375 89.48114013671875 146.9166259765625 97.3291015625 141.13394165039063 104.35092163085938 137.82955932617188 120.04684448242188 130.80767822265625 145.65594482421875 123.78582763671876 158.46051025390625 122.5466766357422 165.48236083984375 124.19889831542967 167.547607421875 125.4380340576172 167.547607421875 125.4380340576172 " />
        <polyline stroke="black" stroke-width="3" stroke-linecap="round" fill="transparent" stroke-linejoin="round" points="79.98095703125 201.85232543945313 105.177001953125 187.80862426757813 117.9815673828125 181.61285400390625 141.9384765625 172.93881225585938 173.743408203125 165.91696166992188 182.41741943359375 165.50390625 200.5916748046875 169.2213592529297 200.5916748046875 169.2213592529297 " />
        </svg>