<?xml version="1.0" standalone="no"?>
    <svg width="256" height="256" xmlns="http://www.w3.org/2000/svg" version="1.1">
    <polyline stroke="black" stroke-width="3" stroke-linecap="round" fill="transparent" stroke-linejoin="round" points="146.21435546875 36.64849090576172 146.05770874023438 41.44537353515625 144.53036499023438 46.843467712402344 141.71200561523438 52.908836364746094 124.21697998046876 68.21575927734375 120.238037109375 70.031494140625 119.84017944335938 70.21307373046875 " />
        <polyline stroke="black" stroke-width="3" stroke-linecap="round" fill="transparent" stroke-linejoin="round" points="86.14410400390625 78.75503540039063 92.044189453125 77.45074462890625 98.10028076171876 76.05825805664063 106.16976928710938 74.0723876953125 134.96826171875 68.04225158691406 151.0931396484375 63.65380859375 169.2860107421875 61.530242919921875 178.447509765625 61.59393310546875 180.0198974609375 61.8765869140625 182.893310546875 61.96934509277344 184.70916748046875 61.782867431640625 184.85565185546875 61.767852783203125 " />
        <polyline stroke="black" stroke-width="3" stroke-linecap="round" fill="transparent" stroke-linejoin="round" points="102.31198120117188 108.58854675292967 110.08172607421876 106.10417175292967 140.65521240234375 100.126953125 167.1146240234375 99.18081665039063 172.698486328125 99.80422973632813 175.75848388671875 100.68089294433594 175.7862548828125 100.6888427734375 175.78924560546875 100.68972778320313 175.789306640625 100.68972778320313 175.9554443359375 109.727783203125 176.10552978515625 119.9194793701172 174.912109375 140.1163787841797 173.70721435546875 146.64410400390625 170.58587646484375 153.70541381835938 168.6060791015625 154.97055053710938 158.74835205078125 156.24053955078125 148.21017456054688 154.29209899902344 146.34347534179688 152.95339965820313 " />
        <polyline stroke="black" stroke-width="3" stroke-linecap="round" fill="transparent" stroke-linejoin="round" points="116.6051025390625 119.47735595703124 118.04745483398438 145.04498291015625 118.78366088867188 162.82333374023438 120.62969970703124 202.1146240234375 125.53280639648438 216.13540649414065 126.0159912109375 217.38766479492188 " />
        </svg>