<?xml version="1.0" standalone="no"?>
    <svg width="256" height="256" xmlns="http://www.w3.org/2000/svg" version="1.1">
    <polyline stroke="black" stroke-width="3" stroke-linecap="round" fill="transparent" stroke-linejoin="round" points="131.63192749023438 68.24295043945313 132.89093017578125 79.57394409179688 132.89093017578125 79.57394409179688 " />
        <polyline stroke="black" stroke-width="3" stroke-linecap="round" fill="transparent" stroke-linejoin="round" points="78.33428955078125 110.62925720214844 87.56695556640625 106.85226440429688 98.478271484375 103.07525634765624 109.38958740234376 99.29826354980467 131.21224975585938 92.1639404296875 152.195556640625 87.547607421875 168.1429443359375 84.60993957519531 179.8935546875 83.35093688964844 185.3492431640625 83.35093688964844 187.02789306640625 84.19027709960938 187.02789306640625 84.19027709960938 " />
        <polyline stroke="black" stroke-width="3" stroke-linecap="round" fill="transparent" stroke-linejoin="round" points="93.4422607421875 139.58624267578125 100.57659912109376 137.4879150390625 108.13058471679688 135.8092498779297 125.756591796875 131.6125946044922 142.962890625 128.2552490234375 158.9102783203125 127.41593933105467 169.40191650390625 129.09458923339844 175.6968994140625 134.96994018554688 178.21490478515625 142.94358825683594 177.3756103515625 172.3202362060547 175.2772216796875 179.03489685058594 170.2412109375 188.267578125 162.267578125 192.8839111328125 155.13323974609375 191.20523071289065 149.67758178710938 187.42822265625 149.67758178710938 187.42822265625 " />
        <polyline stroke="black" stroke-width="3" stroke-linecap="round" fill="transparent" stroke-linejoin="round" points="129.5335693359375 160.56956481933594 127.85491943359376 189.52655029296875 127.01556396484376 200.4378967285156 124.917236328125 226.45721435546875 124.917236328125 226.45721435546875 " />
        </svg>