<?xml version="1.0" standalone="no"?>
    <svg width="256" height="256" xmlns="http://www.w3.org/2000/svg" version="1.1">
    <polyline stroke="black" stroke-width="3" stroke-linecap="round" fill="transparent" stroke-linejoin="round" points="134.119384765625 41.02326965332031 132.34783935546875 47.75505828857422 129.15911865234375 55.549766540527344 115.34124755859376 75.03656005859375 115.34124755859376 75.03656005859375 " />
        <polyline stroke="black" stroke-width="3" stroke-linecap="round" fill="transparent" stroke-linejoin="round" points="81.68222045898438 77.16238403320313 93.72860717773438 71.84780883789063 132.7021484375 60.155731201171875 156.44061279296875 55.904075622558594 175.21875 55.904075622558594 178.407470703125 56.96699523925781 180.17901611328125 61.57295227050781 180.17901611328125 61.57295227050781 " />
        <polyline stroke="black" stroke-width="3" stroke-linecap="round" fill="transparent" stroke-linejoin="round" points="106.48358154296876 107.27828979492188 126.678955078125 103.38092041015624 136.95379638671875 102.31802368164063 146.52001953125 102.31802368164063 163.5267333984375 104.08953857421876 175.9273681640625 108.69549560546876 183.013427734375 114.3643798828125 188.3280029296875 123.57632446289063 189.03662109375 134.20547485351563 183.7220458984375 143.41738891601563 178.05316162109375 146.96043395996094 178.05316162109375 146.96043395996094 " />
        <polyline stroke="black" stroke-width="3" stroke-linecap="round" fill="transparent" stroke-linejoin="round" points="125.61605834960938 128.89089965820313 128.09619140625 138.81143188476563 133.76507568359375 158.29820251464844 136.24520874023438 168.21873474121094 141.20550537109375 193.3743896484375 141.20550537109375 193.3743896484375 " />
        </svg>