<?xml version="1.0" standalone="no"?>
    <svg width="256" height="256" xmlns="http://www.w3.org/2000/svg" version="1.1">
    <polyline stroke="black" stroke-width="3" stroke-linecap="round" fill="transparent" stroke-linejoin="round" points="116.75839233398438 43.72539520263672 117.05099487304688 47.32189178466797 112.7930908203125 61.741363525390625 97.20465087890624 80.51495361328125 85.80331420898438 91.1185302734375 65.42965698242188 107.926513671875 57.534393310546875 113.9180145263672 51.232177734375 116.11912536621094 51.0301513671875 116.14889526367188 51.008544921875 116.15206909179688 65.830078125 108.898681640625 81.62252807617188 102.00808715820313 110.8994140625 90.09214782714844 132.7957763671875 84.02537536621094 157.52142333984375 74.99995422363281 174.493896484375 69.91181945800781 182.734130859375 68.38302612304688 184.6202392578125 68.11300659179688 184.5859375 68.28376770019531 184.585693359375 68.28492736816406 " />
        <polyline stroke="black" stroke-width="3" stroke-linecap="round" fill="transparent" stroke-linejoin="round" points="89.8681640625 128.9182586669922 99.2137451171875 122.19305419921876 128.50830078125 106.64572143554688 142.0240478515625 100.0046844482422 165.100341796875 91.058837890625 176.4593505859375 90.57289123535156 179.2139892578125 92.4935302734375 179.3447265625 95.55581665039063 178.67694091796875 108.6809539794922 174.57806396484375 128.72024536132813 171.77294921875 136.23678588867188 166.89306640625 145.18289184570313 165.09197998046875 147.61778259277344 157.5733642578125 151.02285766601563 151.72418212890625 152.27891540527344 142.49102783203125 150.4110565185547 130.13082885742188 145.44381713867188 123.21832275390624 139.13064575195313 122.52703857421876 138.49935913085938 " />
        <polyline stroke="black" stroke-width="3" stroke-linecap="round" fill="transparent" stroke-linejoin="round" points="113.36581420898438 143.68577575683594 114.26437377929688 161.09518432617188 114.874267578125 180.69900512695313 113.05938720703124 215.17376708984375 111.3809814453125 228.75323486328125 109.56634521484376 241.86203002929688 108.61151123046876 245.08377075195313 " />
        </svg>