<?xml version="1.0" standalone="no"?>
    <svg width="256" height="256" xmlns="http://www.w3.org/2000/svg" version="1.1">
    <polyline stroke="black" stroke-width="3" stroke-linecap="round" fill="transparent" stroke-linejoin="round" points="116 41 116 47 116 63 116 80 111 91 111 91 " />
        <polyline stroke="black" stroke-width="3" stroke-linecap="round" fill="transparent" stroke-linejoin="round" points="65 100 85 96 109 92 135 88 160 85 177 85 188 85 188 85 " />
        <polyline stroke="black" stroke-width="3" stroke-linecap="round" fill="transparent" stroke-linejoin="round" points="60 140 81 132 108 125 135 121 148 120 166 120 179 120 183 123 184 131 181 143 170 154 157 163 141 166 141 166 " />
        <polyline stroke="black" stroke-width="3" stroke-linecap="round" fill="transparent" stroke-linejoin="round" points="109 150 109 178 109 202 109 218 111 232 113 237 113 237 " />
        </svg>