<?xml version="1.0" standalone="no"?>
    <svg width="256" height="256" xmlns="http://www.w3.org/2000/svg" version="1.1">
    <polyline stroke="black" stroke-width="3" stroke-linecap="round" fill="transparent" stroke-linejoin="round" points="103 86.66667175292969 121.66668701171876 77.77778625488281 135.88888549804688 73.33334350585938 143.888916015625 72.44444274902344 146.55557250976563 73.33334350585938 146.55557250976563 73.33334350585938 " />
        <polyline stroke="black" stroke-width="3" stroke-linecap="round" fill="transparent" stroke-linejoin="round" points="90.55557250976563 114.22224426269533 90.55557250976563 118.66668701171876 90.55557250976563 123.1111297607422 94.11111450195313 132.00001525878906 98.55557250976563 133.77780151367188 105.66665649414063 132.00001525878906 118.11111450195313 115.11111450195313 122.55557250976563 101.7777862548828 123.4444580078125 96.4444580078125 123.4444580078125 94.66667175292967 121.66668701171876 92.88888549804688 119.88888549804688 92.88888549804688 119.88888549804688 93.77780151367188 122.55557250976563 95.55555725097656 129.66665649414063 102.6667022705078 146.55557250976563 115.11111450195313 181.22222900390625 131.11111450195313 200.77777099609375 135.55555725097656 215.888916015625 138.2222442626953 223 139.11111450195313 223 139.11111450195313 " />
        <polyline stroke="black" stroke-width="3" stroke-linecap="round" fill="transparent" stroke-linejoin="round" points="135.00003051757813 156.88888549804688 " />
        <polyline stroke="black" stroke-width="3" stroke-linecap="round" fill="transparent" stroke-linejoin="round" points="135 156 " />
        <polyline stroke="black" stroke-width="3" stroke-linecap="round" fill="transparent" stroke-linejoin="round" points="145.66665649414063 161.3333282470703 130.55557250976563 180.88888549804688 115.4444580078125 199.5555725097656 94.11111450195313 219.11111450195313 86.11114501953125 224.4444580078125 77.22225952148438 219.11111450195313 77.22225952148438 219.11111450195313 " />
        <polyline stroke="black" stroke-width="3" stroke-linecap="round" fill="transparent" stroke-linejoin="round" points="111 181.77777099609375 122.55557250976563 194.22222900390625 149.22222900390625 214.66665649414065 177.66665649414063 229.77777099609375 216.77777099609375 244.888916015625 231 248.4444580078125 231 248.4444580078125 " />
        </svg>