<?xml version="1.0" standalone="no"?>
    <svg width="256" height="256" xmlns="http://www.w3.org/2000/svg" version="1.1">
    <polyline stroke="black" stroke-width="3" stroke-linecap="round" fill="transparent" stroke-linejoin="round" points="94.11111450195313 62.66667175292969 118.11111450195313 51.111122131347656 139.44448852539063 44 156.33334350585938 41.33333587646485 156.33334350585938 41.33333587646485 " />
        <polyline stroke="black" stroke-width="3" stroke-linecap="round" fill="transparent" stroke-linejoin="round" points="87.88888549804688 99.11111450195313 88.77777099609375 118.66668701171876 91.4444580078125 124 97.66665649414063 126.66667175292967 112.77780151367188 118.66668701171876 125.22222900390624 97.33332824707033 131.4444580078125 76.88888549804688 131.4444580078125 69.77778625488281 128.77777099609375 68 123.4444580078125 67.11111450195313 118.11111450195313 67.11111450195313 118.11111450195313 68 123.4444580078125 71.55555725097656 150.11111450195313 84.888916015625 162.55557250976563 89.33335876464844 200.77777099609375 97.33332824707033 223 100.88890075683594 239.888916015625 103.55555725097656 239.888916015625 103.55555725097656 " />
        <polyline stroke="black" stroke-width="3" stroke-linecap="round" fill="transparent" stroke-linejoin="round" points="153.66665649414063 140.88890075683594 158.11111450195313 140.88890075683594 158.11111450195313 140.88890075683594 " />
        <polyline stroke="black" stroke-width="3" stroke-linecap="round" fill="transparent" stroke-linejoin="round" points="159.88888549804688 157.7777862548828 143.888916015625 179.11111450195313 125.22222900390624 199.5555725097656 98.55557250976563 220 87.88888549804688 225.33334350585935 76.33334350585938 217.33334350585935 76.33334350585938 217.33334350585935 " />
        <polyline stroke="black" stroke-width="3" stroke-linecap="round" fill="transparent" stroke-linejoin="round" points="125.22222900390624 148.88888549804688 149.22222900390625 175.55555725097656 175.88888549804688 201.33334350585935 220.33331298828125 234.22222900390625 244.33331298828125 248.4444580078125 256.77777099609375 253.77780151367188 256.77777099609375 253.77780151367188 " />
        </svg>