<?xml version="1.0" standalone="no"?>
    <svg width="256" height="256" xmlns="http://www.w3.org/2000/svg" version="1.1">
    <polyline stroke="black" stroke-width="3" stroke-linecap="round" fill="transparent" stroke-linejoin="round" points="137.60003662109375 65.40000915527344 127.20001220703124 71 113.06671142578124 77.66667175292969 88.80001831054688 88.86666870117188 74.66671752929688 95.26667785644533 66.66671752929688 99.00001525878906 66.13336181640625 99.53335571289063 67.73336791992188 99.00001525878906 67.73336791992188 99.00001525878906 " />
        <polyline stroke="black" stroke-width="3" stroke-linecap="round" fill="transparent" stroke-linejoin="round" points="94.4000244140625 94.20001220703124 92.00003051757813 104.33335876464844 89.60003662109375 113.93336486816406 88.53335571289063 122.4666748046875 89.60003662109375 124.60000610351563 93.60003662109376 124.86668395996094 100.53335571289063 121.13336181640624 109.3333740234375 114.4666748046875 124.00003051757813 105.13336181640624 129.60003662109375 102.4666748046875 129.60003662109375 102.4666748046875 " />
        <polyline stroke="black" stroke-width="3" stroke-linecap="round" fill="transparent" stroke-linejoin="round" points="146.666748046875 104.33335876464844 150.666748046875 111.26667785644533 154.933349609375 117.13336181640624 159.20001220703125 121.93336486816406 162.666748046875 125.40000915527344 165.06671142578125 127.8000030517578 165.06671142578125 127.8000030517578 " />
        <polyline stroke="black" stroke-width="3" stroke-linecap="round" fill="transparent" stroke-linejoin="round" points="122.13336181640624 147.80001831054688 122.66671752929688 151.53335571289063 123.46673583984376 153.6666717529297 123.46673583984376 153.6666717529297 " />
        <polyline stroke="black" stroke-width="3" stroke-linecap="round" fill="transparent" stroke-linejoin="round" points="144.800048828125 143.80001831054688 141.86669921875 152.33335876464844 136.800048828125 162.20001220703125 129.06671142578125 172.86668395996094 114.933349609375 187.80001831054688 104.80001831054688 195.2666931152344 95.46673583984376 200.33334350585935 88.2667236328125 202.4666748046875 83.46673583984375 202.4666748046875 83.46673583984375 201.66668701171875 83.46673583984375 201.66668701171875 " />
        <polyline stroke="black" stroke-width="3" stroke-linecap="round" fill="transparent" stroke-linejoin="round" points="92.80001831054688 159.2666778564453 98.66671752929688 164.86668395996094 106.4000244140625 170.4666748046875 115.73336791992188 175.80001831054688 130.933349609375 183.53335571289065 140.2667236328125 187.80001831054688 149.3333740234375 191.53335571289065 158.13336181640625 194.20001220703125 166.4000244140625 196.6000061035156 178.13336181640625 201.933349609375 182.4000244140625 205.13336181640625 182.4000244140625 205.13336181640625 " />
        </svg>