<?xml version="1.0" standalone="no"?>
    <svg width="256" height="256" xmlns="http://www.w3.org/2000/svg" version="1.1">
    <polyline stroke="black" stroke-width="3" stroke-linecap="round" fill="transparent" stroke-linejoin="round" points="71.27761840820313 77.66102600097656 84.830322265625 71.20736694335938 100.319091796875 64.75370788574219 117.74395751953124 58.945404052734375 135.16885375976563 52.49175262451172 149.36691284179688 47.328819274902344 157.111328125 44.74736022949219 161.62884521484375 44.10198974609375 164.2103271484375 44.74736022949219 164.2103271484375 44.74736022949219 " />
        <polyline stroke="black" stroke-width="3" stroke-linecap="round" fill="transparent" stroke-linejoin="round" points="99.02835083007813 92.5044403076172 96.4468994140625 100.89421081542967 95.15615844726563 111.22006225585938 95.15615844726563 120.25518798828124 97.09225463867188 127.99958801269533 101.60980224609376 133.16250610351563 107.41812133789063 135.09860229492188 115.807861328125 133.80787658691406 124.843017578125 129.29031372070313 135.16885375976563 118.319091796875 144.849365234375 103.47567749023438 148.076171875 97.02200317382813 150.65765380859375 92.5044403076172 152.59375 89.27761840820313 153.88446044921875 87.98687744140625 156.4659423828125 89.27761840820313 160.338134765625 93.14981079101563 165.5010986328125 98.95811462402344 171.9547119140625 109.28396606445313 179.0537109375 128.6449432373047 179.0537109375 128.6449432373047 " />
        <polyline stroke="black" stroke-width="3" stroke-linecap="round" fill="transparent" stroke-linejoin="round" points="116.4532470703125 167.36691284179688 120.9708251953125 170.59373474121094 126.77911376953124 170.59373474121094 126.77911376953124 170.59373474121094 " />
        <polyline stroke="black" stroke-width="3" stroke-linecap="round" fill="transparent" stroke-linejoin="round" points="139.6864013671875 161.55860900878906 126.77911376953124 175.11129760742188 111.29031372070313 191.24545288085935 96.4468994140625 206.0888671875 83.53955078125 216.41473388671875 83.53955078125 216.41473388671875 " />
        <polyline stroke="black" stroke-width="3" stroke-linecap="round" fill="transparent" stroke-linejoin="round" points="69.98687744140625 171.8844757080078 84.830322265625 179.6288604736328 109.35421752929688 190.60009765625 135.16885375976563 200.28057861328125 157.75665283203125 209.31570434570313 177.7630615234375 216.41473388671875 177.7630615234375 216.41473388671875 " />
        </svg>