<?xml version="1.0" standalone="no"?>
    <svg width="256" height="256" xmlns="http://www.w3.org/2000/svg" version="1.1">
    <polyline stroke="black" stroke-width="3" stroke-linecap="round" fill="transparent" stroke-linejoin="round" points="70.63226318359375 78.95175170898438 86.12103271484375 69.91664123535156 105.48202514648438 60.88151550292969 124.1976318359375 52.49175262451172 142.91326904296875 44.10198974609375 156.4659423828125 37.002967834472656 163.56494140625 32.48540496826172 163.56494140625 32.48540496826172 " />
        <polyline stroke="black" stroke-width="3" stroke-linecap="round" fill="transparent" stroke-linejoin="round" points="86.76641845703125 94.4405517578125 86.76641845703125 101.53956604003906 88.7025146484375 108.63859558105467 93.22006225585938 114.4468994140625 99.02835083007813 118.96446228027344 105.48202514648438 120.90055847167967 112.5810546875 120.25518798828124 120.9708251953125 115.73762512207033 128.7152099609375 107.99322509765624 138.39569091796875 89.27761840820313 146.14007568359375 70.56199645996094 149.36691284179688 63.46296691894531 151.9483642578125 58.945404052734375 153.88446044921875 57.009307861328125 155.820556640625 57.65467834472656 159.04742431640625 61.52687072753906 162.27423095703125 67.33517456054688 166.79180908203125 74.4342041015625 171.9547119140625 88.63224792480469 175.1815185546875 109.28396606445313 175.1815185546875 109.28396606445313 " />
        <polyline stroke="black" stroke-width="3" stroke-linecap="round" fill="transparent" stroke-linejoin="round" points="106.12738037109376 154.4595947265625 111.29031372070313 157.68641662597656 119.03469848632813 159.6225128173828 131.29666137695313 155.10494995117188 131.29666137695313 155.10494995117188 " />
        <polyline stroke="black" stroke-width="3" stroke-linecap="round" fill="transparent" stroke-linejoin="round" points="157.75665283203125 129.29031372070313 141.62249755859375 148.6512908935547 122.26153564453124 171.8844757080078 103.5458984375 192.53619384765625 88.05712890625 206.7342529296875 76.4405517578125 217.7054748535156 76.4405517578125 217.7054748535156 " />
        <polyline stroke="black" stroke-width="3" stroke-linecap="round" fill="transparent" stroke-linejoin="round" points="69.34152221679688 168.6576385498047 82.89422607421875 173.82057189941406 102.90057373046876 181.56497192382813 131.29666137695313 193.1815490722656 153.2391357421875 200.28057861328125 173.89080810546875 204.15277099609375 193.2518310546875 206.7342529296875 206.80450439453125 209.31570434570313 206.80450439453125 209.31570434570313 " />
        </svg>