<?xml version="1.0" standalone="no"?>
    <svg width="256" height="256" xmlns="http://www.w3.org/2000/svg" version="1.1">
    <polyline stroke="black" stroke-width="3" stroke-linecap="round" fill="transparent" stroke-linejoin="round" points="88.4444580078125 62 120.4444580078125 52.22224426269531 137.33331298828125 49.55555725097656 146.22222900390625 48.66666412353515 150.66668701171875 50.44444274902344 150.66668701171875 50.44444274902344 " />
        <polyline stroke="black" stroke-width="3" stroke-linecap="round" fill="transparent" stroke-linejoin="round" points="77.77783203125 98.44444274902344 77.77783203125 102.00001525878906 77.77783203125 105.55555725097656 81.33331298828125 111.7777862548828 85.77777099609375 111.7777862548828 92.888916015625 107.33332824707033 101.77777099609376 100.22222900390624 111.5555419921875 92.22224426269533 123.11114501953124 83.33334350585938 127.5555419921875 78 129.33331298828125 73.55555725097656 129.33331298828125 73.55555725097656 " />
        <polyline stroke="black" stroke-width="3" stroke-linecap="round" fill="transparent" stroke-linejoin="round" points="136.4444580078125 80.66667175292969 157.77783203125 93.11111450195313 180.888916015625 102.00001525878906 200.4444580078125 108.22224426269533 215.5555419921875 115.33334350585938 228 123.33332824707033 228 123.33332824707033 " />
        <polyline stroke="black" stroke-width="3" stroke-linecap="round" fill="transparent" stroke-linejoin="round" points="134.66668701171875 151.7777862548828 140.00006103515625 151.7777862548828 144.44451904296875 150.88890075683594 144.44451904296875 150.88890075683594 " />
        <polyline stroke="black" stroke-width="3" stroke-linecap="round" fill="transparent" stroke-linejoin="round" points="148.88897705078125 137.55557250976563 138.22222900390625 157.11114501953125 121.33331298828124 184.66665649414065 108.88897705078124 200.66665649414065 99.11114501953124 212.22222900390625 85.77777099609375 215.77777099609375 85.77777099609375 215.77777099609375 " />
        <polyline stroke="black" stroke-width="3" stroke-linecap="round" fill="transparent" stroke-linejoin="round" points="103.5555419921875 174.888916015625 113.3333740234375 185.5555725097656 124 193.5555725097656 179.11114501953125 220.22222900390625 206.66668701171875 230 234.22222900390625 239.77777099609375 234.22222900390625 239.77777099609375 " />
        </svg>