<?xml version="1.0" standalone="no"?>
    <svg width="256" height="256" xmlns="http://www.w3.org/2000/svg" version="1.1">
    <polyline stroke="black" stroke-width="3" stroke-linecap="round" fill="transparent" stroke-linejoin="round" points="75.7200927734375 73.16838073730469 92.93600463867188 64.28274536132813 112.37335205078124 54.286407470703125 129.03390502929688 45.95611572265625 145.13912963867188 38.736534118652344 157.35687255859375 33.183013916015625 162.910400390625 31.51695251464844 164.57647705078125 33.183013916015625 164.57647705078125 33.183013916015625 " />
        <polyline stroke="black" stroke-width="3" stroke-linecap="round" fill="transparent" stroke-linejoin="round" points="95.7127685546875 83.16473388671875 92.93600463867188 96.49317932128906 90.15924072265624 109.82164001464844 90.714599609375 122.03939819335938 91.8253173828125 129.25897216796875 96.26812744140624 133.1464385986328 102.93234252929688 132.03573608398438 111.26263427734376 123.7054443359375 122.36968994140624 109.82164001464844 129.58926391601563 100.93600463867188 135.14279174804688 96.49317932128906 140.6962890625 94.82713317871094 147.36053466796875 97.0485382080078 154.58013916015625 102.04670715332033 161.7996826171875 107.0448760986328 166.7978515625 110.93234252929688 168.46392822265625 114.26446533203124 168.46392822265625 114.26446533203124 " />
        <polyline stroke="black" stroke-width="3" stroke-linecap="round" fill="transparent" stroke-linejoin="round" points="100.15557861328124 159.80335998535156 105.15374755859376 164.80152893066406 111.26263427734376 167.02293395996094 120.14825439453124 166.46759033203125 120.14825439453124 166.46759033203125 " />
        <polyline stroke="black" stroke-width="3" stroke-linecap="round" fill="transparent" stroke-linejoin="round" points="152.35870361328125 155.36053466796875 139.0302734375 176.46392822265625 121.25897216796876 197.011962890625 105.15374755859376 212.0064697265625 88.4931640625 224.77957153320313 75.16473388671875 232.55450439453125 75.16473388671875 232.55450439453125 " />
        <polyline stroke="black" stroke-width="3" stroke-linecap="round" fill="transparent" stroke-linejoin="round" points="62.94696044921875 170.910400390625 72.94329833984375 178.12998962402344 94.60205078125 192.0137939453125 124.03573608398438 208.1190185546875 149.58193969726563 219.78140258789065 171.24072265625 228.1116943359375 187.9012451171875 234.2205810546875 197.34228515625 238.66339111328125 201.229736328125 244.2169189453125 201.229736328125 244.2169189453125 " />
        </svg>