<?xml version="1.0" standalone="no"?>
    <svg width="256" height="256" xmlns="http://www.w3.org/2000/svg" version="1.1">
    <polyline stroke="black" stroke-width="3" stroke-linecap="round" fill="transparent" stroke-linejoin="round" points="79.25320434570313 67.66838073730469 91.5489501953125 62.32240295410156 109.190673828125 54.83802795410156 124.69400024414063 47.88825988769531 140.19732666015625 42.0076904296875 150.35467529296875 38.2655029296875 156.76983642578125 37.73090362548828 156.76983642578125 37.73090362548828 " />
        <polyline stroke="black" stroke-width="3" stroke-linecap="round" fill="transparent" stroke-linejoin="round" points="107.58688354492188 68.20297241210938 107.58688354492188 76.22193908691406 108.1214599609375 84.24090576171875 109.190673828125 91.72526550292967 110.79446411132813 97.6058349609375 112.39825439453124 101.88262939453124 115.07122802734376 104.02101135253906 117.74423217773438 105.0902099609375 122.55560302734376 102.95181274414063 127.36700439453124 98.67503356933594 133.78216552734375 90.12147521972656 141.26654052734375 79.42951965332031 146.61248779296875 72.47975158691406 150.8892822265625 67.66838073730469 154.6314697265625 64.99539184570313 158.3736572265625 64.99539184570313 162.1158447265625 66.59918212890625 166.392578125 70.34135437011719 170.66943359375 75.68733215332031 173.3424072265625 81.56791687011719 174.41156005859375 98.14044189453124 174.41156005859375 98.14044189453124 " />
        <polyline stroke="black" stroke-width="3" stroke-linecap="round" fill="transparent" stroke-linejoin="round" points="105.98309326171876 133.95848083496094 109.72528076171876 139.30445861816406 113.46746826171876 144.11582946777344 119.88262939453124 147.85801696777344 119.88262939453124 147.85801696777344 " />
        <polyline stroke="black" stroke-width="3" stroke-linecap="round" fill="transparent" stroke-linejoin="round" points="151.42388916015625 124.8703155517578 145.00872802734375 135.02767944335938 135.38595581054688 147.85801696777344 123.62481689453124 163.36134338378906 109.190673828125 180.46847534179688 94.75653076171876 195.9718017578125 82.46078491210938 207.1983642578125 82.46078491210938 207.1983642578125 " />
        <polyline stroke="black" stroke-width="3" stroke-linecap="round" fill="transparent" stroke-linejoin="round" points="78.18402099609375 143.58123779296875 86.20297241210938 147.85801696777344 99.0333251953125 155.34239196777344 118.27880859375 166.56893920898438 134.85134887695313 176.1916961669922 152.4930419921875 185.27984619140625 167.4617919921875 193.8334045410156 179.22296142578125 203.4561767578125 179.22296142578125 203.4561767578125 " />
        </svg>