<?xml version="1.0" standalone="no"?>
    <svg width="256" height="256" xmlns="http://www.w3.org/2000/svg" version="1.1">
    <polyline stroke="black" stroke-width="3" stroke-linecap="round" fill="transparent" stroke-linejoin="round" points="44.71807861328125 67.10696411132813 51.625091552734375 102.48912048339844 58.5321044921875 137.87127685546875 60.31201171875 151.06472778320313 62.168701171875 166.35107421875 62.22650146484375 169.66781616210938 62.169677734375 170.2196502685547 62.16937255859375 170.22314453125 62.16925048828125 170.22412109375 " />
        <polyline stroke="black" stroke-width="3" stroke-linecap="round" fill="transparent" stroke-linejoin="round" points="78.00241088867188 81.04507446289063 85.03964233398438 79.41668701171875 92.07687377929688 77.78829956054688 99.94073486328124 76.56472778320313 114.65411376953124 75.55122375488281 119.340087890625 76.41984558105469 123.5478515625 78.38009643554688 132.43612670898438 86.89149475097656 140.96624755859375 102.916015625 145.37020874023438 122.4661865234375 144.70785522460938 129.251953125 141.56295776367188 143.18643188476563 138.53704833984375 148.78367614746094 134.87744140625 155.994873046875 128.66683959960938 164.7499237060547 123.37850952148438 168.6628875732422 121.55551147460938 168.482177734375 112.63275146484376 164.06600952148438 108.09725952148438 154.74444580078125 108.208740234375 153.16201782226563 " />
        <polyline stroke="black" stroke-width="3" stroke-linecap="round" fill="transparent" stroke-linejoin="round" points="90.32635498046875 56.95545959472655 92.35128784179688 79.79989624023438 94.376220703125 102.6443328857422 98.25424194335938 157.91038513183594 99.46331787109376 183.24868774414065 99.340576171875 216.1498107910156 97.20263671875 228.67218017578125 96.918212890625 230.572021484375 96.88690185546876 230.781005859375 96.88671875 230.78225708007813 " />
        <polyline stroke="black" stroke-width="3" stroke-linecap="round" fill="transparent" stroke-linejoin="round" points="164.51385498046875 66.2769775390625 173.93780517578125 65.19369506835938 183.36175537109375 64.11041259765625 186.84613037109375 63.648529052734375 192.231201171875 63.72998046875 203.844970703125 64.3848876953125 223.53961181640625 65.34054565429688 226.333251953125 65.80636596679688 228.33514404296875 66.8564453125 228.7916259765625 67.2789306640625 230.1885986328125 69.22695922851563 232.1124267578125 72.83743286132813 237.71142578125 87.9830322265625 239.2772216796875 107.30157470703124 238.25469970703125 117.50225830078124 234.49273681640625 130.9058837890625 232.4417724609375 136.8125457763672 228.75262451171875 146.87850952148438 225.7508544921875 152.0430908203125 224.327880859375 153.54881286621094 213.7623291015625 156.87876892089844 207.55511474609375 158.5693817138672 203.3720703125 158.40228271484375 202.0086669921875 157.83154296875 199.7650146484375 156.03378295898438 199.4263916015625 155.17306518554688 " />
        <polyline stroke="black" stroke-width="3" stroke-linecap="round" fill="transparent" stroke-linejoin="round" points="176.82470703125 77.24829101562497 177.20709228515625 114.48381042480467 177.5894775390625 151.71932983398438 176.86181640625 169.61924743652344 174.161865234375 198.3409423828125 173.9732666015625 208.0474548339844 174.652099609375 222.23269653320313 174.719970703125 223.65121459960935 " />
        </svg>