<?xml version="1.0" standalone="no"?>
    <svg width="256" height="256" xmlns="http://www.w3.org/2000/svg" version="1.1">
    <polyline stroke="black" stroke-width="3" stroke-linecap="round" fill="transparent" stroke-linejoin="round" points="45.3082275390625 102.6233825683594 47.72698974609375 116.7913055419922 50.145751953125 130.959228515625 55.388031005859375 157.51878356933594 57.63616943359375 167.01358032226563 59.90533447265625 173.77883911132813 59.996551513671875 174.03018188476563 59.997894287109375 174.03387451171875 " />
        <polyline stroke="black" stroke-width="3" stroke-linecap="round" fill="transparent" stroke-linejoin="round" points="68.512451171875 108.04602050781247 75.16558837890625 104.89933776855467 81.8187255859375 101.75265502929688 87.67431640625 99.3953094482422 98.6956787109375 95.49577331542967 102.96051025390624 94.87242126464844 108.10198974609376 94.79695129394533 110.63827514648438 95.69754028320313 111.79147338867188 97.02908325195313 114.3240966796875 101.5244140625 120.896240234375 120.75621032714844 122.67062377929688 131.51792907714844 122.6484375 146.4710693359375 121.33407592773438 151.29678344726563 117.86956787109376 156.40721130371094 114.56869506835938 157.89382934570313 112.71710205078124 157.04534912109375 110.4246826171875 156.31796264648438 109.53021240234376 155.78012084960938 " />
        <polyline stroke="black" stroke-width="3" stroke-linecap="round" fill="transparent" stroke-linejoin="round" points="77.1995849609375 72.19197082519531 80.400634765625 93.10299682617188 83.6016845703125 114.01402282714844 87.95993041992188 159.4650115966797 89.67013549804688 196.8907470703125 90.27194213867188 211.1250915527344 89.95968627929688 224.65093994140625 89.47442626953125 223.58184814453125 89.42587280273438 223.47494506835935 89.421630859375 223.46563720703125 " />
        <polyline stroke="black" stroke-width="3" stroke-linecap="round" fill="transparent" stroke-linejoin="round" points="130.0142822265625 71.63624572753906 143.69189453125 68.20625305175781 157.3695068359375 64.77626037597656 161.26416015625 63.8057861328125 166.8416748046875 62.23237609863281 179.95892333984375 61.413482666015625 196.54559326171875 61.90789794921875 198.9315185546875 62.767364501953125 200.90283203125 65.78488159179688 202.0362548828125 69.83880615234375 205.36981201171875 88.58570861816406 204.6256103515625 112.47911071777344 203.189697265625 123.0205535888672 199.82952880859375 136.15713500976563 197.6790771484375 141.34561157226563 192.481201171875 144.77679443359375 184.6192626953125 147.16757202148438 175.14788818359375 146.83721923828125 172.32733154296875 144.8357391357422 171.40399169921875 143.0355224609375 171.1082763671875 142.4590301513672 " />
        <polyline stroke="black" stroke-width="3" stroke-linecap="round" fill="transparent" stroke-linejoin="round" points="145.01263427734375 87.20388793945313 146.23422241210938 102.15234375 147.455810546875 117.10079956054688 150.384033203125 152.0308837890625 152.49810791015625 187.20492553710935 153.39739990234375 201.51535034179688 154.6920166015625 225.7784118652344 154.94451904296875 232.0103759765625 154.9697265625 232.633544921875 " />
        </svg>