<?xml version="1.0" standalone="no"?>
    <svg width="256" height="256" xmlns="http://www.w3.org/2000/svg" version="1.1">
    <polyline stroke="black" stroke-width="3" stroke-linecap="round" fill="transparent" stroke-linejoin="round" points="58.1043701171875 84.537353515625 63.00128173828125 92.4948272705078 67.898193359375 98.615966796875 73.4072265625 102.28865051269533 73.4072265625 102.28865051269533 " />
        <polyline stroke="black" stroke-width="3" stroke-linecap="round" fill="transparent" stroke-linejoin="round" points="99.72808837890624 74.74354553222656 107.07342529296876 78.41622924804688 114.4188232421875 81.47679138183594 126.0489501953125 82.08891296386719 126.0489501953125 82.08891296386719 " />
        <polyline stroke="black" stroke-width="3" stroke-linecap="round" fill="transparent" stroke-linejoin="round" points="159.10308837890625 60.66493225097656 142.57601928710938 80.86468505859375 126.0489501953125 98.615966796875 126.0489501953125 98.615966796875 " />
        <polyline stroke="black" stroke-width="3" stroke-linecap="round" fill="transparent" stroke-linejoin="round" points="72.79510498046875 129.2216339111328 80.7525634765625 121.87628173828124 89.93426513671875 113.91880798339844 100.3402099609375 107.185546875 108.9097900390625 102.28865051269533 115.03091430664063 99.2280731201172 119.31570434570313 98.615966796875 119.31570434570313 101.06442260742188 110.74612426757813 115.75514221191406 92.38272094726563 145.13658142089844 78.91622924804688 164.72421264648438 69.73452758789063 176.9664764404297 64.22552490234375 183.69973754882813 59.940704345703125 187.37240600585935 59.940704345703125 187.37240600585935 62.38916015625 184.31182861328125 65.44973754882813 178.8028106689453 72.1829833984375 171.45745849609375 86.87371826171875 159.82730102539063 104.01287841796876 148.1971435546875 119.31570434570313 139.01544189453125 136.45489501953125 131.6700897216797 153.59405517578125 126.77317810058594 170.12109375 124.93684387207033 184.81182861328125 125.5489501953125 194.60565185546875 127.99740600585938 201.3388671875 131.6700897216797 206.23583984375 137.7912139892578 205.6236572265625 164.72421264648438 193.38140869140625 197.7783203125 179.9149169921875 218.59017944335935 170.12109375 228.99612426757813 157.87884521484375 237.56570434570313 146.24868774414063 240.01416015625 137.67910766601563 236.95358276367188 127.88531494140624 221.03863525390625 126.0489501953125 195.9419860839844 125.43682861328124 172.6816864013672 125.43682861328124 165.9484405517578 125.43682861328124 161.05152893066406 125.43682861328124 159.82730102539063 122.9884033203125 162.2757568359375 115.64300537109376 175.13014221191406 107.07342529296876 195.9419860839844 104.01287841796876 204.51156616210935 102.176513671875 211.85693359375 102.176513671875 215.52963256835935 102.176513671875 215.52963256835935 " />
        <polyline stroke="black" stroke-width="3" stroke-linecap="round" fill="transparent" stroke-linejoin="round" points="148.6971435546875 162.2757568359375 138.9033203125 184.9239501953125 129.10952758789063 206.34793090820313 122.37628173828124 222.87496948242188 122.37628173828124 222.87496948242188 " />
        </svg>