<?xml version="1.0" standalone="no"?>
    <svg width="256" height="256" xmlns="http://www.w3.org/2000/svg" version="1.1">
    <polyline stroke="black" stroke-width="3" stroke-linecap="round" fill="transparent" stroke-linejoin="round" points="81 72 82 72 82 72 83 72 83 72 84 72 84 72 85 73 86 74 88 75 89 77 90 78 92 80 93 82 95 84 95 85 96 86 96 86 97 86 97 86 98 85 " />
        <polyline stroke="black" stroke-width="3" stroke-linecap="round" fill="transparent" stroke-linejoin="round" points="102 75 102 75 103 75 103 76 104 76 105 77 106 79 108 80 109 82 111 83 113 85 115 87 116 88 118 88 " />
        <polyline stroke="black" stroke-width="3" stroke-linecap="round" fill="transparent" stroke-linejoin="round" points="143 60 143 60 143 60 143 60 142 65 140 70 138 78 134 87 130 96 125 106 119 116 112 125 106 133 103 136 " />
        <polyline stroke="black" stroke-width="3" stroke-linecap="round" fill="transparent" stroke-linejoin="round" points="69 133 70 132 71 132 72 131 74 130 77 129 79 129 82 128 86 127 92 126 96 126 99 125 102 125 104 125 105 125 106 126 106 128 105 133 104 139 100 150 98 158 94 166 91 173 87 179 84 185 81 190 78 194 76 198 75 199 75 200 " />
        <polyline stroke="black" stroke-width="3" stroke-linecap="round" fill="transparent" stroke-linejoin="round" points="85 161 87 158 89 156 92 154 95 152 96 150 104 146 109 144 114 142 119 140 125 138 130 136 135 135 142 134 146 135 149 136 152 138 154 143 156 150 157 159 157 169 157 178 157 187 155 199 154 206 151 211 149 215 146 218 142 220 138 220 134 218 129 215 126 211 124 209 " />
        <polyline stroke="black" stroke-width="3" stroke-linecap="round" fill="transparent" stroke-linejoin="round" points="111 154 111 153 110 152 110 153 109 156 108 160 108 164 107 168 106 173 105 178 104 182 104 186 105 188 105 190 106 190 " />
        <polyline stroke="black" stroke-width="3" stroke-linecap="round" fill="transparent" stroke-linejoin="round" points="130 158 132 159 132 161 133 165 133 170 133 176 132 182 131 189 129 197 127 205 126 213 125 217 " />
        </svg>