<?xml version="1.0" standalone="no"?>
    <svg width="256" height="256" xmlns="http://www.w3.org/2000/svg" version="1.1">
    <polyline stroke="black" stroke-width="3" stroke-linecap="round" fill="transparent" stroke-linejoin="round" points="79.04638671875 50.871124267578125 82.71905517578125 57.6043701171875 86.3917236328125 63.72550964355469 90.06442260742188 68.62240600585938 93.125 71.6829833984375 96.79766845703124 70.45875549316406 98.02191162109376 63.72550964355469 98.02191162109376 63.72550964355469 " />
        <polyline stroke="black" stroke-width="3" stroke-linecap="round" fill="transparent" stroke-linejoin="round" points="118.833740234375 45.974220275878906 121.89431762695313 50.259010314941406 124.95489501953124 54.54380798339844 127.4033203125 57.6043701171875 131.07601928710938 59.440704345703125 137.80926513671875 58.82859802246094 137.80926513671875 58.82859802246094 " />
        <polyline stroke="black" stroke-width="3" stroke-linecap="round" fill="transparent" stroke-linejoin="round" points="160.45745849609375 52.70746612548828 148.2152099609375 66.78607177734375 132.30023193359375 82.08891296386719 114.5489501953125 97.39173889160156 100.4703369140625 109.02189636230467 100.4703369140625 109.02189636230467 " />
        <polyline stroke="black" stroke-width="3" stroke-linecap="round" fill="transparent" stroke-linejoin="round" points="57.622406005859375 107.79766845703124 63.7435302734375 105.34921264648438 70.476806640625 102.28865051269533 77.21002197265625 100.45230102539063 82.71905517578125 99.2280731201172 85.77963256835938 99.2280731201172 85.77963256835938 101.67652893066406 80.88272094726563 112.694580078125 66.80410766601563 133.5064239501953 53.949737548828125 152.48194885253906 44.768035888671875 165.33631896972656 39.259002685546875 172.6816864013672 35.586334228515625 177.57858276367188 33.75 180.02703857421875 33.75 180.02703857421875 33.75 178.19070434570313 36.810546875 174.5180206298828 41.70745849609375 169.62110900878906 49.6649169921875 163.49998474121094 68.64044189453125 150.64559936523438 84.555419921875 142.68812561035156 99.24612426757813 136.56700134277344 116.99740600585938 132.28219604492188 133.52447509765625 130.44586181640625 154.3363037109375 130.44586181640625 172.087646484375 132.28219604492188 186.7783203125 135.9548797607422 194.1236572265625 140.2396697998047 200.24481201171875 153.09405517578125 199.0206298828125 176.3543701171875 188.61468505859375 199.0025634765625 176.3724365234375 215.52963256835935 166.57861328125 224.0992126464844 152.5 230.2203369140625 137.1971435546875 229.60821533203125 125.5670166015625 224.0992126464844 118.22161865234376 214.91751098632813 109.0399169921875 194.10565185546875 109.0399169921875 194.10565185546875 " />
        <polyline stroke="black" stroke-width="3" stroke-linecap="round" fill="transparent" stroke-linejoin="round" points="107.81570434570313 162.2757568359375 101.08245849609376 172.6816864013672 92.51287841796876 185.53607177734375 85.16751098632813 196.5541076660156 80.88272094726563 203.287353515625 79.65850830078125 206.34793090820313 81.49481201171875 205.12368774414065 90.06442260742188 198.39044189453125 90.06442260742188 198.39044189453125 " />
        <polyline stroke="black" stroke-width="3" stroke-linecap="round" fill="transparent" stroke-linejoin="round" points="137.80926513671875 158.6030731201172 129.23968505859375 173.29379272460938 118.22161865234376 190.4329833984375 108.42782592773438 206.96002197265625 100.4703369140625 222.87496948242188 100.4703369140625 222.87496948242188 " />
        </svg>