<?xml version="1.0" standalone="no"?>
    <svg width="256" height="256" xmlns="http://www.w3.org/2000/svg" version="1.1">
    <polyline stroke="black" stroke-width="3" stroke-linecap="round" fill="transparent" stroke-linejoin="round" points="83.29766845703125 90.04638671875 87.58245849609375 96.16751098632813 91.255126953125 101.06442260742188 94.31570434570313 103.51287841796876 97.37628173828124 102.28865051269533 97.37628173828124 102.28865051269533 " />
        <polyline stroke="black" stroke-width="3" stroke-linecap="round" fill="transparent" stroke-linejoin="round" points="118.80023193359376 65.56184387207031 124.30926513671876 68.62240600585938 129.81829833984375 72.29508972167969 134.7152099609375 74.74354553222656 140.8363037109375 74.74354553222656 144.50900268554688 69.84663391113281 144.50900268554688 69.84663391113281 " />
        <polyline stroke="black" stroke-width="3" stroke-linecap="round" fill="transparent" stroke-linejoin="round" points="168.9935302734375 49.64689636230469 160.4239501953125 66.17396545410156 140.22421264648438 95.55540466308594 119.412353515625 118.20359802246094 119.412353515625 118.20359802246094 " />
        <polyline stroke="black" stroke-width="3" stroke-linecap="round" fill="transparent" stroke-linejoin="round" points="79.625 124.32472229003906 86.9703369140625 116.9793701171875 93.70361328125 111.47035217285156 98.60049438476563 107.79766845703124 100.43682861328124 107.79766845703124 98.60049438476563 113.3066864013672 90.03091430664063 131.6700897216797 72.8917236328125 162.2757568359375 61.2615966796875 180.63916015625 54.5283203125 191.65719604492188 52.07989501953125 196.5541076660156 53.916229248046875 196.5541076660156 59.42523193359375 189.82086181640625 72.8917236328125 172.6816864013672 93.09149169921876 150.64559936523438 115.73968505859376 130.44586181640625 139.61209106445313 118.81570434570313 156.75128173828125 117.59147644042967 166.5450439453125 122.48838806152344 175.11468505859375 134.73065185546875 178.787353515625 159.82730102539063 173.2783203125 184.31182861328125 163.4844970703125 203.287353515625 153.07861328125 215.52963256835935 137.16363525390625 225.32342529296875 126.14559936523438 227.7718811035156 115.73968505859376 222.87496948242188 105.333740234375 206.34793090820313 105.333740234375 206.34793090820313 " />
        <polyline stroke="black" stroke-width="3" stroke-linecap="round" fill="transparent" stroke-linejoin="round" points="106.5579833984375 159.21519470214844 101.66107177734376 176.9664764404297 94.31570434570313 194.10565185546875 88.194580078125 208.18426513671875 84.52191162109375 214.91751098632813 83.9097900390625 216.75384521484375 86.35821533203125 213.0811767578125 93.09149169921876 200.83889770507813 93.09149169921876 200.83889770507813 " />
        <polyline stroke="black" stroke-width="3" stroke-linecap="round" fill="transparent" stroke-linejoin="round" points="137.7757568359375 153.70616149902344 135.32730102539063 168.3968963623047 129.2061767578125 186.14816284179688 121.86080932617188 203.287353515625 115.73968505859376 219.20230102539065 115.73968505859376 219.20230102539065 " />
        </svg>