<?xml version="1.0" standalone="no"?>
    <svg width="256" height="256" xmlns="http://www.w3.org/2000/svg" version="1.1">
    <polyline stroke="black" stroke-width="3" stroke-linecap="round" fill="transparent" stroke-linejoin="round" points="83.13299560546875 51.063255310058594 78.7254638671875 62.08204650878906 73.76702880859375 70.89707946777344 67.7066650390625 80.81398010253906 61.646331787109375 89.62901306152344 56.136962890625 96.79122924804688 52.280364990234375 103.40249633789063 50.07659912109375 106.7081298828125 50.07659912109375 106.7081298828125 " />
        <polyline stroke="black" stroke-width="3" stroke-linecap="round" fill="transparent" stroke-linejoin="round" points="83.68389892578125 91.83277893066406 80.92922973632813 104.50437927246094 75.41983032226563 116.07411193847656 68.25762939453125 128.1947784423828 61.09539794921875 140.8663787841797 55.035064697265625 150.78329467773438 50.07659912109375 159.04737854003906 46.77099609375 165.1077117919922 46.77099609375 165.1077117919922 " />
        <polyline stroke="black" stroke-width="3" stroke-linecap="round" fill="transparent" stroke-linejoin="round" points="100.21209716796876 144.17201232910156 93.600830078125 157.39456176757813 85.8876953125 170.06617736816406 77.0726318359375 182.73779296875 68.25762939453125 194.3074951171875 61.09539794921875 203.67349243164065 56.136962890625 211.3866271972656 53.38226318359375 217.44696044921875 53.38226318359375 220.20166015625 53.38226318359375 220.20166015625 " />
        <polyline stroke="black" stroke-width="3" stroke-linecap="round" fill="transparent" stroke-linejoin="round" points="198.279296875 74.20271301269531 190.566162109375 83.56867980957031 180.6492919921875 95.13841247558594 167.9776611328125 107.8100128173828 152.55133056640625 122.68537902832033 138.77786254882813 136.4588623046875 126.10626220703124 147.4776611328125 126.10626220703124 147.4776611328125 " />
        <polyline stroke="black" stroke-width="3" stroke-linecap="round" fill="transparent" stroke-linejoin="round" points="150.34759521484375 53.26701354980469 148.69476318359375 64.83674621582031 146.49102783203125 76.40646362304688 142.08349609375 94.03652954101563 137.12506103515625 119.93067932128906 132.717529296875 150.78329467773438 131.064697265625 168.41336059570313 129.96282958984375 187.14529418945313 129.96282958984375 203.67349243164065 131.064697265625 213.0394592285156 134.370361328125 218.548828125 139.8797607421875 222.40542602539065 150.34759521484375 223.50729370117188 162.46826171875 221.30352783203125 173.487060546875 216.89602661132813 181.2001953125 213.0394592285156 187.81146240234375 209.182861328125 193.32086181640625 205.3262939453125 197.7283935546875 200.91879272460935 199.3812255859375 196.51126098632813 199.3812255859375 191.55279541015625 197.7283935546875 181.0849609375 197.7283935546875 181.0849609375 " />
        </svg>