<?xml version="1.0" standalone="no"?>
    <svg width="256" height="256" xmlns="http://www.w3.org/2000/svg" version="1.1">
    <polyline stroke="black" stroke-width="3" stroke-linecap="round" fill="transparent" stroke-linejoin="round" points="80.91998291015625 65.40512084960938 73.6708984375 77.11514282226563 63.63372802734375 91.61328125 52.4813232421875 107.78427124023438 43.00177001953125 121.16716003417967 36.867950439453125 128.97384643554688 34.079833984375 133.434814453125 34.079833984375 133.434814453125 " />
        <polyline stroke="black" stroke-width="3" stroke-linecap="round" fill="transparent" stroke-linejoin="round" points="82.59283447265625 125.6281280517578 76.458984375 133.434814453125 68.65231323242188 144.02960205078125 58.615142822265625 155.73963928222656 49.6932373046875 167.4496612548828 42.44415283203125 176.37158203125 39.09844970703125 181.39016723632813 39.09844970703125 181.39016723632813 " />
        <polyline stroke="black" stroke-width="3" stroke-linecap="round" fill="transparent" stroke-linejoin="round" points="84.26568603515625 161.8734588623047 80.36236572265625 175.25634765625 73.11328125 187.52398681640625 64.19134521484375 200.34927368164065 55.2694091796875 211.50167846679688 48.577972412109375 219.30838012695313 48.577972412109375 219.30838012695313 " />
        <polyline stroke="black" stroke-width="3" stroke-linecap="round" fill="transparent" stroke-linejoin="round" points="181.8492431640625 73.21180725097656 171.8121337890625 87.15231323242188 155.64111328125 104.99617004394533 135.5667724609375 125.0705108642578 117.722900390625 139.56863403320313 104.34002685546876 149.04818725585938 97.0909423828125 151.27867126464844 97.0909423828125 151.27867126464844 " />
        <polyline stroke="black" stroke-width="3" stroke-linecap="round" fill="transparent" stroke-linejoin="round" points="145.04632568359375 53.69508361816406 140.02774047851563 78.78800964355469 134.4515380859375 111.6876220703125 132.7786865234375 134.550048828125 133.3363037109375 156.85487365722656 135.5667724609375 174.14111328125 140.58535766601563 189.7544860839844 147.83441162109375 200.90689086914065 157.31396484375 207.04071044921875 168.46636962890625 210.94406127929688 178.5035400390625 210.94406127929688 186.86785888671875 208.15594482421875 192.444091796875 202.57974243164065 196.347412109375 196.4459228515625 199.135498046875 186.40875244140625 198.020263671875 175.25634765625 190.21356201171875 152.39390563964844 190.21356201171875 152.39390563964844 " />
        </svg>