<?xml version="1.0" standalone="no"?>
    <svg width="256" height="256" xmlns="http://www.w3.org/2000/svg" version="1.1">
    <polyline stroke="black" stroke-width="3" stroke-linecap="round" fill="transparent" stroke-linejoin="round" points="98 64 67 76 49 85 33 97 22 105 18 107 18 107 " />
        <polyline stroke="black" stroke-width="3" stroke-linecap="round" fill="transparent" stroke-linejoin="round" points="95 109 75 128 54 142 34 156 18 166 18 166 " />
        <polyline stroke="black" stroke-width="3" stroke-linecap="round" fill="transparent" stroke-linejoin="round" points="106 185 84 206 66 216 43 227 26 232 22 234 22 234 " />
        <polyline stroke="black" stroke-width="3" stroke-linecap="round" fill="transparent" stroke-linejoin="round" points="195 85 183 89 166 93 151 99 136 107 120 113 114 116 114 116 " />
        <polyline stroke="black" stroke-width="3" stroke-linecap="round" fill="transparent" stroke-linejoin="round" points="149 59 146 70 144 91 137 117 133 149 133 181 144 199 159 210 178 213 194 212 205 201 213 189 217 171 217 150 217 137 217 137 " />
        </svg>