<?xml version="1.0" standalone="no"?>
    <svg width="256" height="256" xmlns="http://www.w3.org/2000/svg" version="1.1">
    <polyline stroke="black" stroke-width="3" stroke-linecap="round" fill="transparent" stroke-linejoin="round" points="96.211669921875 57.68489074707031 92.91159057617188 67.91529846191406 90.27145385742188 74.18551635742188 72.78082275390625 114.11701965332033 68.8206787109375 121.70730590820313 60.900360107421875 136.2278594970703 56.940216064453125 142.4980926513672 54.96014404296875 145.46820068359375 54.96014404296875 145.46820068359375 54.96014404296875 145.46820068359375 " />
        <polyline stroke="black" stroke-width="3" stroke-linecap="round" fill="transparent" stroke-linejoin="round" points="93.901611328125 89.03607177734375 103.80194091796876 85.075927734375 111.062255859375 82.1058349609375 148.02362060546875 75.17556762695313 153.6337890625 74.84553527832031 166.17431640625 74.51553344726563 170.79449462890625 75.17556762695313 170.79449462890625 75.17556762695313 170.79449462890625 75.17556762695313 " />
        <polyline stroke="black" stroke-width="3" stroke-linecap="round" fill="transparent" stroke-linejoin="round" points="101.161865234375 109.8268585205078 104.7919921875 121.37728881835938 106.44207763671876 124.67741394042967 109.7421875 129.95761108398438 109.7421875 129.95761108398438 " />
        <polyline stroke="black" stroke-width="3" stroke-linecap="round" fill="transparent" stroke-linejoin="round" points="158.2540283203125 81.77580261230469 142.74343872070313 103.88665771484376 98.52175903320313 164.60891723632813 91.26150512695313 173.18923950195313 74.10086059570313 190.679931640625 67.50057983398438 195.30007934570313 67.50057983398438 195.30007934570313 " />
        <polyline stroke="black" stroke-width="3" stroke-linecap="round" fill="transparent" stroke-linejoin="round" points="73.7708740234375 142.82809448242188 84.33123779296875 140.18801879882813 90.27145385742188 138.8679656982422 124.59274291992188 129.95761108398438 131.52301025390625 127.64753723144533 154.62384033203125 120.0572509765625 176.73468017578125 114.447021484375 186.3050537109375 113.4569854736328 187.955078125 114.11701965332033 187.955078125 114.11701965332033 187.955078125 114.11701965332033 " />
        <polyline stroke="black" stroke-width="3" stroke-linecap="round" fill="transparent" stroke-linejoin="round" points="122.28268432617188 150.74838256835938 115.68240356445313 158.66868591308594 114.36236572265624 160.978759765625 109.08218383789063 184.40966796875 108.75213623046876 190.34988403320313 110.07220458984376 205.8604431152344 113.04232788085938 218.07095336914065 116.67242431640624 224.34115600585935 119.31256103515624 226.6512451171875 122.94265747070313 226.6512451171875 132.84304809570313 214.77078247070313 140.76333618164063 194.97003173828125 146.70358276367188 171.5391845703125 146.70358276367188 171.5391845703125 " />
        <polyline stroke="black" stroke-width="3" stroke-linecap="round" fill="transparent" stroke-linejoin="round" points="149.34368896484375 132.927734375 150.99371337890625 144.14813232421875 161.8841552734375 176.48934936523438 164.52423095703125 182.09957885742188 173.1046142578125 196.29010009765625 181.02490234375 207.51052856445313 185.64501953125 218.40093994140625 185.64501953125 218.40093994140625 185.64501953125 218.40093994140625 " />
        </svg>