<?xml version="1.0" standalone="no"?>
    <svg width="256" height="256" xmlns="http://www.w3.org/2000/svg" version="1.1">
    <polyline stroke="black" stroke-width="3" stroke-linecap="round" fill="transparent" stroke-linejoin="round" points="93.09130859375 57.069000244140625 108.75244140625 52.981468200683594 139.38558959960938 44.0069580078125 164.700927734375 40.935882568359375 173.2001953125 40.631866455078125 180.0289306640625 41.56694793701172 179.0775146484375 42.658164978027344 176.659423828125 43.61165618896485 175.73089599609375 43.977783203125 " />
        <polyline stroke="black" stroke-width="3" stroke-linecap="round" fill="transparent" stroke-linejoin="round" points="97.10205078125 95.91488647460938 108.12680053710938 90.85104370117188 130.56707763671875 80.12078857421875 152.228515625 73.46859741210938 156.52301025390625 73.875 159.22991943359375 74.59576416015625 159.4268798828125 74.648193359375 " />
        <polyline stroke="black" stroke-width="3" stroke-linecap="round" fill="transparent" stroke-linejoin="round" points="60.8436279296875 147.85626220703125 74.22103881835938 142.79287719726563 89.98190307617188 136.7557830810547 125.0001220703125 125.46514892578124 158.9166259765625 116.53631591796876 172.4820556640625 115.88665771484376 192.9581298828125 119.0061492919922 199.6820068359375 120.8194580078125 207.35638427734375 123.84127807617188 207.96380615234375 125.1631317138672 207.97021484375 125.1770477294922 " />
        <polyline stroke="black" stroke-width="3" stroke-linecap="round" fill="transparent" stroke-linejoin="round" points="127.1026611328125 157.73574829101563 128.886962890625 172.7379150390625 127.58331298828124 190.43853759765625 127.044921875 206.02496337890625 126.75765991210938 210.3934326171875 " />
        </svg>