<?xml version="1.0" standalone="no"?>
    <svg width="256" height="256" xmlns="http://www.w3.org/2000/svg" version="1.1">
    <polyline stroke="black" stroke-width="3" stroke-linecap="round" fill="transparent" stroke-linejoin="round" points="98.73617553710938 60.948394775390625 105.36151123046876 58.298248291015625 112.87020874023438 55.64811706542969 128.77099609375 51.67291259765625 145.11346435546875 49.906158447265625 159.689208984375 50.34785461425781 171.6148681640625 51.231224060058594 180.4486083984375 52.11460876464844 185.30718994140625 52.99797821044922 187.073974609375 53.439666748046875 187.073974609375 53.439666748046875 " />
        <polyline stroke="black" stroke-width="3" stroke-linecap="round" fill="transparent" stroke-linejoin="round" points="112.87020874023438 107.76742553710938 119.93719482421876 107.32574462890624 127.4459228515625 107.32574462890624 134.95465087890625 107.32574462890624 155.2723388671875 108.2091064453125 166.7562255859375 108.65080261230467 172.93988037109375 108.65080261230467 172.93988037109375 108.65080261230467 " />
        <polyline stroke="black" stroke-width="3" stroke-linecap="round" fill="transparent" stroke-linejoin="round" points="67.81793212890625 144.86929321289063 87.69393920898438 137.80227661132813 97.852783203125 135.59381103515625 115.52032470703124 132.94369506835938 123.470703125 132.94369506835938 138.04647827148438 133.8270721435547 150.41375732421875 135.59381103515625 158.80584716796875 136.4772186279297 161.897705078125 136.91888427734375 165.43115234375 136.91888427734375 165.43115234375 136.91888427734375 " />
        <polyline stroke="black" stroke-width="3" stroke-linecap="round" fill="transparent" stroke-linejoin="round" points="117.728759765625 175.3458251953125 115.96200561523438 183.29623413085935 113.75360107421876 193.89678955078125 109.77838134765624 213.77276611328125 108.0115966796875 222.6065673828125 104.03643798828124 241.59918212890625 103.15301513671876 250.43295288085935 103.15301513671876 250.43295288085935 " />
        </svg>