<?xml version="1.0" standalone="no"?>
    <svg width="256" height="256" xmlns="http://www.w3.org/2000/svg" version="1.1">
    <polyline stroke="black" stroke-width="3" stroke-linecap="round" fill="transparent" stroke-linejoin="round" points="85.46859741210938 56.492279052734375 77.91461181640625 99.29826354980467 75.81625366210938 119.8619384765625 70.7802734375 152.59591674804688 67.00326538085938 178.195556640625 65.3245849609375 187.847900390625 63.64593505859375 199.59857177734375 61.96728515625 204.21490478515625 61.1279296875 204.63455200195313 61.1279296875 204.63455200195313 " />
        <polyline stroke="black" stroke-width="3" stroke-linecap="round" fill="transparent" stroke-linejoin="round" points="82.53094482421875 75.79693603515625 97.638916015625 70.76094055175781 104.35360717773438 69.082275390625 111.0682373046875 67.82327270507813 125.756591796875 65.72494506835938 133.310546875 65.72494506835938 153.034912109375 69.082275390625 162.687255859375 75.37727355957031 172.75921630859375 90.90495300292967 179.8935546875 115.24559020996094 181.99188232421875 139.58624267578125 179.473876953125 161.82858276367188 173.17889404296875 179.87423706054688 168.98223876953125 187.00857543945313 168.98223876953125 187.00857543945313 " />
        <polyline stroke="black" stroke-width="3" stroke-linecap="round" fill="transparent" stroke-linejoin="round" points="104.77328491210938 110.62925720214844 121.55990600585938 117.76359558105467 126.59591674804688 120.70126342773438 131.21224975585938 124.05859375 142.543212890625 137.4879150390625 145.90057373046875 145.88125610351563 145.90057373046875 145.88125610351563 " />
        <polyline stroke="black" stroke-width="3" stroke-linecap="round" fill="transparent" stroke-linejoin="round" points="65.3245849609375 193.7232360839844 90.92425537109376 188.68722534179688 100.57659912109376 187.847900390625 119.46160888671876 187.42822265625 128.27459716796875 187.42822265625 144.64157104492188 187.42822265625 159.3299560546875 188.68722534179688 174.8575439453125 192.4642333984375 174.8575439453125 192.4642333984375 " />
        </svg>