<?xml version="1.0" standalone="no"?>
    <svg width="256" height="256" xmlns="http://www.w3.org/2000/svg" version="1.1">
    <polyline stroke="black" stroke-width="3" stroke-linecap="round" fill="transparent" stroke-linejoin="round" points="91 99 90 110 90 124 90 145 90 168 90 191 92 206 96 217 96 217 " />
        <polyline stroke="black" stroke-width="3" stroke-linecap="round" fill="transparent" stroke-linejoin="round" points="105 94 104 94 111 94 119 93 131 88 145 85 155 81 166 79 173 79 179 79 183 81 184 92 184 111 177 133 172 155 170 169 170 179 170 186 170 190 170 193 170 194 170 194 " />
        <polyline stroke="black" stroke-width="3" stroke-linecap="round" fill="transparent" stroke-linejoin="round" points="128 125 131 129 136 134 143 138 149 143 156 148 156 148 " />
        <polyline stroke="black" stroke-width="3" stroke-linecap="round" fill="transparent" stroke-linejoin="round" points="106 195 110 195 118 195 128 193 145 187 155 182 162 179 166 178 170 178 173 178 173 178 " />
        </svg>