<?xml version="1.0" standalone="no"?>
    <svg width="256" height="256" xmlns="http://www.w3.org/2000/svg" version="1.1">
    <polyline stroke="black" stroke-width="3" stroke-linecap="round" fill="transparent" stroke-linejoin="round" points="59.599639892578125 79.60960388183594 60.915283203125 84.01199340820313 62.230926513671875 88.41438293457031 65.1121826171875 96.60739135742188 65.4681396484375 97.62301635742188 " />
        <polyline stroke="black" stroke-width="3" stroke-linecap="round" fill="transparent" stroke-linejoin="round" points="68.83941650390629 45.139137268066406 97.99652099609376 40.345611572265625 127.15362548828124 35.552085876464844 144.32015991210938 34.82762145996094 175.75994873046875 37.163475036621094 187.7852783203125 40.09043884277344 198.6268310546875 48.84514617919922 202.734619140625 53.59349060058594 204.2188720703125 60.44947814941406 203.629150390625 72.0859375 200.430419921875 81.83367919921875 183.2593994140625 101.74838256835938 160.5819091796875 115.0981903076172 155.68402099609375 116.1236572265625 " />
        <polyline stroke="black" stroke-width="3" stroke-linecap="round" fill="transparent" stroke-linejoin="round" points="86.59979248046876 104.96165466308594 92.72601318359376 104.30442810058594 98.85223388671876 103.64720153808594 103.5179443359375 103.10198974609376 105.69650268554688 103.99044799804688 106.542236328125 105.59373474121094 106.81161499023438 106.10443115234376 " />
        <polyline stroke="black" stroke-width="3" stroke-linecap="round" fill="transparent" stroke-linejoin="round" points="87.2384033203125 65.19384765624997 86.96798706054688 90.90666198730467 86.69757080078125 116.61947631835938 85.06884765625 128.75363159179688 78.0794677734375 153.32005310058594 74.62298583984375 162.13101196289063 63.41754150390625 178.35379028320313 60.81463623046875 179.078857421875 58.869476318359375 177.23565673828125 58.5196533203125 176.91934204101563 58.341796875 176.758544921875 58.3133544921875 176.73281860351563 61.536590576171875 176.0386199951172 65.86911010742188 175.60520935058594 80.0748291015625 173.39382934570313 88.8026123046875 171.66525268554688 89.272216796875 171.4791259765625 " />
        <polyline stroke="black" stroke-width="3" stroke-linecap="round" fill="transparent" stroke-linejoin="round" points="131.252197265625 94.55178833007815 147.7979736328125 93.30267333984376 164.34375 92.05355834960938 171.6026611328125 90.92306518554688 179.8597412109375 89.58720397949219 180.3369140625 89.24916076660156 180.44195556640625 89.17478942871094 " />
        <polyline stroke="black" stroke-width="3" stroke-linecap="round" fill="transparent" stroke-linejoin="round" points="142.97412109375 117.4589385986328 155.98828125 117.5426025390625 169.00244140625 117.6262664794922 173.3759765625 118.17153930664063 174.31695556640625 118.20480346679688 " />
        <polyline stroke="black" stroke-width="3" stroke-linecap="round" fill="transparent" stroke-linejoin="round" points="132.3785400390625 149.30055236816406 143.14254760742188 149.3328857421875 153.90655517578125 149.36521911621094 167.07745361328125 150.0845184326172 185.9219970703125 152.550048828125 196.17376708984375 152.0336151123047 202.231689453125 149.9986572265625 206.1265869140625 146.66018676757813 204.72967529296875 146.16265869140625 " />
        <polyline stroke="black" stroke-width="3" stroke-linecap="round" fill="transparent" stroke-linejoin="round" points="149.27398681640625 81.97671508789064 153.1741943359375 101.73118591308594 157.07440185546875 121.48565673828124 160.658447265625 146.1602020263672 163.6820068359375 169.84800720214844 166.8450927734375 203.038330078125 161.2056884765625 225.92584228515625 159.82830810546875 225.0189208984375 " />
        </svg>