<?xml version="1.0" standalone="no"?>
    <svg width="256" height="256" xmlns="http://www.w3.org/2000/svg" version="1.1">
    <polyline stroke="black" stroke-width="3" stroke-linecap="round" fill="transparent" stroke-linejoin="round" points="52.1107177734375 84.03515625 55.244232177734375 91.1385498046875 58.37774658203125 98.241943359375 58.67913818359375 99.03994750976563 " />
        <polyline stroke="black" stroke-width="3" stroke-linecap="round" fill="transparent" stroke-linejoin="round" points="74.88146972656251 63.127471923828125 87.41281127929688 58.29266357421875 99.94415283203124 53.457855224609375 128.602294921875 42.503074645996094 161.439208984375 33.7017822265625 176.21484375 32.563323974609375 202.1280517578125 34.796051025390625 208.6751708984375 37.32460021972656 210.55218505859375 41.19480895996094 210.598388671875 42.0457763671875 210.60443115234375 42.15704345703125 210.23309326171875 43.86663818359375 206.80267333984375 57.32133483886719 194.05926513671875 80.53558349609375 192.4466552734375 81.44088745117188 " />
        <polyline stroke="black" stroke-width="3" stroke-linecap="round" fill="transparent" stroke-linejoin="round" points="83.04681396484375 130.9771728515625 91.87789916992188 128.4905242919922 100.708984375 126.00387573242188 116.41549682617188 121.53280639648438 122.85357666015624 120.05935668945313 123.12606811523438 119.96597290039063 " />
        <polyline stroke="black" stroke-width="3" stroke-linecap="round" fill="transparent" stroke-linejoin="round" points="103.71353149414063 109.00836181640625 100.427978515625 137.33474731445313 97.14242553710938 165.6611328125 93.34005737304688 178.27413940429688 83.76507568359375 195.67584228515625 79.08111572265625 200.54742431640625 71.9283447265625 203.6924743652344 69.07354736328125 203.57379150390625 68.78732299804688 203.5252685546875 68.6646728515625 203.50445556640625 68.60113525390625 203.49365234375 74.60507202148438 201.99505615234375 96.72189331054688 197.33074951171875 106.38095092773438 194.4496154785156 114.58154296875 191.58514404296875 127.5986328125 187.77783203125 131.24081420898438 185.1829833984375 131.39071655273438 184.91448974609375 " />
        <polyline stroke="black" stroke-width="3" stroke-linecap="round" fill="transparent" stroke-linejoin="round" points="155.8792724609375 96.8004150390625 166.1033935546875 94.87135314941406 176.3275146484375 92.94229125976563 195.765380859375 90.24162292480467 201.76214599609375 89.12655639648438 205.602294921875 87.76693725585938 205.9395751953125 87.486328125 206.03533935546875 87.40667724609375 " />
        <polyline stroke="black" stroke-width="3" stroke-linecap="round" fill="transparent" stroke-linejoin="round" points="147.36358642578125 129.59671020507813 157.209228515625 126.89999389648438 167.05487060546875 124.20327758789063 184.8172607421875 120.91375732421876 193.5186767578125 121.3189697265625 195.70263671875 122.35922241210938 196.032470703125 122.51632690429688 " />
        <polyline stroke="black" stroke-width="3" stroke-linecap="round" fill="transparent" stroke-linejoin="round" points="144.107666015625 180.05245971679688 156.56365966796875 174.87643432617188 169.0196533203125 169.70040893554688 192.64947509765625 160.7798309326172 199.97308349609375 158.87136840820313 207.83734130859375 156.9688720703125 209.6282958984375 157.6524658203125 209.79998779296875 157.760498046875 " />
        <polyline stroke="black" stroke-width="3" stroke-linecap="round" fill="transparent" stroke-linejoin="round" points="169.9141845703125 46.12359619140625 170.90277099609375 69.69212341308594 171.891357421875 93.26065063476563 174.03485107421875 144.03640747070313 176.13079833984375 196.48782348632813 176.6656494140625 214.55368041992188 176.929931640625 242.41580200195313 178.1632080078125 258.966552734375 178.2864990234375 260.62164306640625 " />
        </svg>