<?xml version="1.0" standalone="no"?>
    <svg width="256" height="256" xmlns="http://www.w3.org/2000/svg" version="1.1">
    <polyline stroke="black" stroke-width="3" stroke-linecap="round" fill="transparent" stroke-linejoin="round" points="71.365478515625 58.0770263671875 70.33856201171875 68.34626770019531 69.3116455078125 78.61550903320313 68.62704467773438 89.22705078125 67.60009765625 105.31553649902344 67.60009765625 112.16168212890624 68.28472900390625 121.40399169921876 68.96932983398438 127.5655517578125 68.96932983398438 127.5655517578125 " />
        <polyline stroke="black" stroke-width="3" stroke-linecap="round" fill="transparent" stroke-linejoin="round" points="85.74246215820313 67.3193359375 92.930908203125 64.23857116699219 100.11935424804688 61.157806396484375 117.23480224609376 54.31163787841797 137.430908203125 49.177024841308594 156.25787353515625 48.492401123046875 170.29248046875 51.915489196777344 174.7425537109375 54.653953552246094 182.2733154296875 66.63473510742188 182.6156005859375 72.7962646484375 173.373291015625 97.44244384765624 173.373291015625 97.44244384765624 " />
        <polyline stroke="black" stroke-width="3" stroke-linecap="round" fill="transparent" stroke-linejoin="round" points="110.38867187500003 69.0308837890625 110.04632568359376 76.2193603515625 109.7039794921875 83.4078369140625 105.25399780273438 110.79246520996094 100.803955078125 121.06169128417967 98.06552124023438 124.48478698730467 92.24630737304688 128.2501678466797 86.42706298828125 129.96170043945313 82.66168212890625 129.27708435058594 81.29241943359375 128.59246826171875 78.89630126953125 127.22323608398438 77.18475341796875 124.48478698730467 78.553955078125 120.03477478027344 85.40011596679688 111.47708129882813 98.06552124023438 100.86553955078124 114.15399169921876 90.25398254394533 123.05401611328124 85.80398559570313 141.1962890625 78.61550903320313 160.7078857421875 73.82319641113281 163.7886962890625 73.48089599609375 163.10400390625 74.5078125 163.10400390625 74.5078125 " />
        <polyline stroke="black" stroke-width="3" stroke-linecap="round" fill="transparent" stroke-linejoin="round" points="81.97698974609376 138.51942443847656 89.85009765625 136.12326049804688 97.72320556640624 133.7270965576172 113.12704467773438 127.5655517578125 122.02706909179688 123.45785522460938 142.5655517578125 111.8193817138672 155.5732421875 103.60398864746094 155.5732421875 103.60398864746094 " />
        <polyline stroke="black" stroke-width="3" stroke-linecap="round" fill="transparent" stroke-linejoin="round" points="24.8116455078125 171.38095092773438 35.08087158203125 168.98480224609375 45.35009765625 166.58865356445313 57.673187255859375 163.85018920898438 87.11166381835938 157.34634399414063 102.1732177734375 154.60787963867188 135.03475952148438 149.8155517578125 165.842529296875 145.02325439453125 189.4617919921875 140.5732421875 202.12713623046875 137.15017700195313 206.23486328125 135.43862915039063 206.5771484375 134.06939697265625 206.5771484375 134.06939697265625 " />
        <polyline stroke="black" stroke-width="3" stroke-linecap="round" fill="transparent" stroke-linejoin="round" points="149.06939697265625 140.91554260253906 146.3309326171875 146.0501708984375 143.59246826171875 151.18479919433594 139.1424560546875 163.85018920898438 133.66552734375 183.0194396972656 129.900146484375 194.31561279296875 125.10784912109376 204.2425537109375 125.10784912109376 204.2425537109375 " />
        <polyline stroke="black" stroke-width="3" stroke-linecap="round" fill="transparent" stroke-linejoin="round" points="78.55398559570313 188.4963989257813 77.52703857421875 192.6040954589844 76.50009155273438 196.7117919921875 76.15780639648438 200.13482666015625 79.23858642578125 209.03485107421875 87.45394897460938 213.48486328125 96.35400390625 215.1964111328125 117.57708740234376 215.5386962890625 139.48480224609375 212.11566162109375 164.4732666015625 200.81948852539065 164.4732666015625 200.81948852539065 " />
        <polyline stroke="black" stroke-width="3" stroke-linecap="round" fill="transparent" stroke-linejoin="round" points="188.77716064453125 175.48867797851563 189.8040771484375 179.5963592529297 190.83099365234375 183.70404052734375 193.2271728515625 198.08099365234375 193.9117431640625 215.1964111328125 193.9117431640625 215.1964111328125 " />
        </svg>