<?xml version="1.0" standalone="no"?>
    <svg width="256" height="256" xmlns="http://www.w3.org/2000/svg" version="1.1">
    <polyline stroke="black" stroke-width="3" stroke-linecap="round" fill="transparent" stroke-linejoin="round" points="93.7698974609375 49.704551696777344 93.7698974609375 65.3402099609375 94.19247436523438 74.21450805664063 94.61508178710938 83.51138305664063 95.46026611328124 91.54049682617188 97.57318115234376 109.2890625 98.4183349609375 113.9375 98.4183349609375 113.9375 " />
        <polyline stroke="black" stroke-width="3" stroke-linecap="round" fill="transparent" stroke-linejoin="round" points="93.34735107421876 75.48225402832031 95.8828125 63.649871826171875 103.06683349609376 55.620750427246094 117.43466186523438 45.47869873046875 133.0703125 37.872161865234375 147.438232421875 33.64631652832031 159.2706298828125 32.378562927246094 168.9901123046875 32.378562927246094 176.17401123046875 34.06890869140625 181.24505615234375 36.60441589355469 184.203125 39.139923095703125 186.31610107421875 44.21095275878906 186.31610107421875 53.50782775878906 181.66766357421875 67.03054809570313 170.680419921875 86.469482421875 164.3416748046875 95.766357421875 164.3416748046875 95.766357421875 " />
        <polyline stroke="black" stroke-width="3" stroke-linecap="round" fill="transparent" stroke-linejoin="round" points="106.87005615234376 79.70809936523438 119.97018432617188 73.79191589355469 126.73153686523438 71.25640869140625 147.86080932617188 64.91763305664063 159.2706298828125 61.95953369140625 168.1448974609375 61.114349365234375 177.01922607421875 59.84660339355469 177.01922607421875 59.84660339355469 " />
        <polyline stroke="black" stroke-width="3" stroke-linecap="round" fill="transparent" stroke-linejoin="round" points="149.12860107421875 56.0433349609375 142.789794921875 64.91763305664063 140.67684936523438 69.14347839355469 138.56393432617188 73.79191589355469 134.76068115234375 83.08879089355469 130.53485107421875 91.117919921875 126.3089599609375 98.3018798828125 122.92831420898438 102.5277099609375 121.23797607421876 104.2180633544922 116.58953857421876 108.8665008544922 115.32174682617188 109.711669921875 113.20883178710938 110.97943115234376 109.828125 112.66976928710938 108.98300170898438 113.5149383544922 109.828125 113.5149383544922 112.3636474609375 113.5149383544922 124.196044921875 111.40200805664063 147.438232421875 108.02133178710938 158.8480224609375 106.33097839355467 162.22869873046875 105.90841674804688 167.29974365234375 104.64065551757813 167.29974365234375 104.64065551757813 " />
        <polyline stroke="black" stroke-width="3" stroke-linecap="round" fill="transparent" stroke-linejoin="round" points="72.21807861328125 155.77346801757813 88.27630615234375 149.85726928710938 96.72802734375 147.32174682617188 106.44744873046876 144.78623962402344 127.57675170898438 140.98297119140625 147.86080932617188 139.29263305664063 165.609375 139.7152099609375 179.977294921875 140.56039428710938 186.31610107421875 140.56039428710938 200.6839599609375 141.82815551757813 204.064697265625 141.82815551757813 208.713134765625 142.25071716308594 211.67120361328125 142.25071716308594 211.67120361328125 142.25071716308594 " />
        <polyline stroke="black" stroke-width="3" stroke-linecap="round" fill="transparent" stroke-linejoin="round" points="149.97372436523438 129.9957733154297 147.86080932617188 142.25071716308594 147.438232421875 147.32174682617188 147.015625 153.23794555664063 146.59307861328125 158.73155212402344 145.74789428710938 169.71878051757813 144.9027099609375 173.9446258544922 142.789794921875 185.77700805664065 141.52206420898438 191.69320678710935 140.67684936523438 196.34164428710935 139.83172607421875 200.1448974609375 138.56393432617188 202.25784301757813 137.29620361328125 203.94818115234375 137.29620361328125 203.94818115234375 " />
        <polyline stroke="black" stroke-width="3" stroke-linecap="round" fill="transparent" stroke-linejoin="round" points="100.953857421875 164.22515869140625 97.57318115234376 180.28338623046875 97.15057373046876 186.1995849609375 96.72802734375 191.2706298828125 99.26351928710938 202.25784301757813 100.953857421875 204.37075805664065 106.02487182617188 208.59661865234375 115.74432373046876 211.55471801757813 128.844482421875 212.39990234375 142.789794921875 210.28695678710935 155.0447998046875 206.06109619140625 167.72235107421875 198.87713623046875 175.328857421875 192.11578369140625 175.328857421875 192.11578369140625 " />
        <polyline stroke="black" stroke-width="3" stroke-linecap="round" fill="transparent" stroke-linejoin="round" points="188.8515625 166.7606658935547 188.0064697265625 179.438232421875 188.0064697265625 182.81890869140625 188.0064697265625 186.1995849609375 185.89349365234375 203.10302734375 184.203125 212.39990234375 184.203125 212.39990234375 " />
        </svg>