<?xml version="1.0" standalone="no"?>
    <svg width="256" height="256" xmlns="http://www.w3.org/2000/svg" version="1.1">
    <polyline stroke="black" stroke-width="3" stroke-linecap="round" fill="transparent" stroke-linejoin="round" points="61.652679443359375 59.10198974609375 62.391265869140625 75.35127258300781 63.129852294921875 91.60055541992188 64.6070556640625 106.00331115722656 67.56143188476563 120.77536010742188 69.7772216796875 130.377197265625 69.7772216796875 130.377197265625 " />
        <polyline stroke="black" stroke-width="3" stroke-linecap="round" fill="transparent" stroke-linejoin="round" points="80.85632324218751 41.375556945800795 97.10556030273438 37.68253326416016 113.35479736328124 33.98950958251953 128.12689208984375 32.14300537109375 139.57522583007813 31.773712158203125 147.6998291015625 32.881614685058594 155.0859375 35.46672058105469 160.62542724609375 39.898338317871094 164.687744140625 47.28437042236328 166.53424072265625 60.5792236328125 165.795654296875 77.56709289550781 164.687744140625 98.24797058105467 163.57977294921875 117.45164489746094 162.84124755859375 134.07020568847656 162.10260009765625 137.0246124267578 162.10260009765625 137.0246124267578 " />
        <polyline stroke="black" stroke-width="3" stroke-linecap="round" fill="transparent" stroke-linejoin="round" points="98.95205688476563 67.96524047851564 100.05996704101563 84.95310974121094 101.16787719726563 101.94097900390624 103.014404296875 116.71304321289063 104.12228393554688 125.20697021484376 104.12228393554688 125.20697021484376 " />
        <polyline stroke="black" stroke-width="3" stroke-linecap="round" fill="transparent" stroke-linejoin="round" points="105.23022460937497 86.06103515625 123.32598876953124 83.10661315917969 141.4217529296875 80.15219116210938 150.65426635742188 79.04429626464844 150.65426635742188 79.04429626464844 " />
        <polyline stroke="black" stroke-width="3" stroke-linecap="round" fill="transparent" stroke-linejoin="round" points="83.44143676757813 115.23580932617189 107.44601440429688 113.75862121582033 131.45059204101563 112.28143310546876 149.1771240234375 113.38932800292967 156.5631103515625 114.86654663085938 156.5631103515625 114.86654663085938 " />
        <polyline stroke="black" stroke-width="3" stroke-linecap="round" fill="transparent" stroke-linejoin="round" points="26.568969726562486 168.4152374267578 60.544708251953125 158.8134002685547 94.52044677734376 149.21156311035156 131.45059204101563 142.19483947753906 162.84124755859375 138.5018310546875 185.36865234375 137.0246124267578 204.2030029296875 137.0246124267578 214.17413330078125 137.0246124267578 214.17413330078125 137.0246124267578 " />
        <polyline stroke="black" stroke-width="3" stroke-linecap="round" fill="transparent" stroke-linejoin="round" points="116.67858886718749 143.67202758789063 119.63296508789063 160.659912109375 122.58734130859376 177.64779663085938 126.64968872070313 196.11285400390625 128.4962158203125 204.60678100585935 128.4962158203125 204.60678100585935 " />
        <polyline stroke="black" stroke-width="3" stroke-linecap="round" fill="transparent" stroke-linejoin="round" points="71.99310302734375 198.69796752929685 90.45816040039063 202.02166748046875 108.9232177734375 205.34536743164065 124.80319213867188 206.08401489257813 136.25155639648438 205.71469116210935 145.85336303710938 204.60678100585935 155.0859375 203.12957763671875 164.31842041015625 199.80584716796875 164.31842041015625 199.80584716796875 " />
        <polyline stroke="black" stroke-width="3" stroke-linecap="round" fill="transparent" stroke-linejoin="round" points="165.795654296875 176.90924072265625 170.96588134765625 190.5733642578125 176.1361083984375 204.23748779296875 176.1361083984375 204.23748779296875 " />
        </svg>