<?xml version="1.0" standalone="no"?>
    <svg width="256" height="256" xmlns="http://www.w3.org/2000/svg" version="1.1">
    <polyline stroke="black" stroke-width="3" stroke-linecap="round" fill="transparent" stroke-linejoin="round" points="84.26580810546875 52.122337341308594 84.26580810546875 74.62857055664063 84.26580810546875 81.248046875 84.70712280273438 92.72181701660156 84.26580810546875 100.66519165039063 83.38323974609375 103.31298828125 82.5006103515625 105.0781707763672 82.5006103515625 105.0781707763672 " />
        <polyline stroke="black" stroke-width="3" stroke-linecap="round" fill="transparent" stroke-linejoin="round" points="94.41571044921876 53.44622802734375 109.86114501953124 45.061553955078125 116.92193603515624 42.41375732421875 141.19332885742188 37.118186950683594 157.080078125 35.79429626464844 170.31903076171875 36.6768798828125 178.7037353515625 38.88337707519531 183.999267578125 43.296356201171875 187.97100830078125 52.122337341308594 187.52972412109375 64.91999816894531 181.7928466796875 79.04156494140625 171.20166015625 90.95661926269533 163.25830078125 96.69351196289063 163.25830078125 96.69351196289063 " />
        <polyline stroke="black" stroke-width="3" stroke-linecap="round" fill="transparent" stroke-linejoin="round" points="78.08761596679688 87.86752319335938 91.76791381835938 82.57194519042969 107.21331787109376 77.7176513671875 115.15670776367188 75.06986999511719 140.31072998046875 66.68519592285156 154.87359619140625 62.7135009765625 166.34735107421875 58.7418212890625 172.96685791015625 54.328826904296875 172.96685791015625 54.328826904296875 " />
        <polyline stroke="black" stroke-width="3" stroke-linecap="round" fill="transparent" stroke-linejoin="round" points="135.01513671875 36.23558044433594 132.36737060546875 53.00493621826172 131.04345703125 59.624420166015625 129.71957397460938 66.243896484375 126.63046264648438 79.04156494140625 119.12841796875 94.92831420898438 112.5089111328125 102.8717041015625 104.12423706054688 108.60856628417967 96.18087768554688 112.13897705078124 91.32659912109376 112.58026123046876 90.002685546875 112.13897705078124 90.44403076171876 110.8150634765625 95.73959350585938 108.60856628417967 108.095947265625 105.0781707763672 123.10009765625 102.43038940429688 139.42816162109375 100.66519165039063 153.1083984375 98.90000915527344 162.8170166015625 98.01739501953124 167.6712646484375 98.01739501953124 167.6712646484375 98.01739501953124 " />
        <polyline stroke="black" stroke-width="3" stroke-linecap="round" fill="transparent" stroke-linejoin="round" points="48.520599365234375 168.1838836669922 63.966064453125 163.32962036132813 73.23333740234375 160.6818084716797 82.94189453125 158.03402709960938 93.091796875 155.38623046875 114.27410888671876 150.09063720703125 125.74789428710938 147.8841552734375 146.48895263671875 143.9124755859375 166.34735107421875 141.7059783935547 178.7037353515625 140.38206481933594 183.999267578125 139.49948120117188 184.8819580078125 138.61688232421875 180.027587890625 138.1755828857422 174.290771484375 138.61688232421875 174.290771484375 138.61688232421875 " />
        <polyline stroke="black" stroke-width="3" stroke-linecap="round" fill="transparent" stroke-linejoin="round" points="126.189208984375 154.50364685058594 125.30657958984376 168.1838836669922 124.86532592773438 174.362060546875 122.21749877929688 192.455322265625 119.5697021484375 202.60519409179688 116.92193603515624 208.78338623046875 114.27410888671876 210.9898681640625 114.27410888671876 210.9898681640625 " />
        <polyline stroke="black" stroke-width="3" stroke-linecap="round" fill="transparent" stroke-linejoin="round" points="73.23333740234375 193.33792114257813 73.67465209960938 208.78338623046875 74.55722045898438 210.548583984375 81.61801147460938 215.40286254882813 93.53305053710938 215.40286254882813 101.4764404296875 213.19635009765625 120.89361572265624 204.81170654296875 139.42816162109375 193.33792114257813 153.990966796875 182.7467498779297 161.0517578125 176.12725830078125 163.25830078125 173.9207763671875 163.6995849609375 173.47947692871094 164.140869140625 176.12725830078125 165.0234375 184.511962890625 165.46478271484375 190.69012451171875 165.90606689453125 204.81170654296875 165.46478271484375 220.69842529296875 165.46478271484375 220.69842529296875 " />
        </svg>