<?xml version="1.0" standalone="no"?>
    <svg width="256" height="256" xmlns="http://www.w3.org/2000/svg" version="1.1">
    <polyline stroke="black" stroke-width="3" stroke-linecap="round" fill="transparent" stroke-linejoin="round" points="82.39767456054688 46.03894805908203 87.56683349609375 62.695068359375 88.71551513671875 78.20249938964844 88.71551513671875 96.00732421875 89.28985595703125 110.36604309082033 89.28985595703125 118.98127746582033 89.28985595703125 123.00172424316406 88.14117431640625 121.27867126464844 88.14117431640625 121.27867126464844 " />
        <polyline stroke="black" stroke-width="3" stroke-linecap="round" fill="transparent" stroke-linejoin="round" points="78.37722778320313 63.84376525878906 93.8846435546875 55.22853088378906 106.52032470703124 50.05939483642578 120.87905883789063 45.464599609375 135.23779296875 41.44416046142578 147.29913330078125 39.72110748291016 157.06304931640625 39.146759033203125 163.95526123046875 39.72110748291016 167.9757080078125 42.59285736083984 170.847412109375 47.762001037597656 171.4217529296875 60.97203063964844 169.1243896484375 79.925537109375 162.8065185546875 96.00732421875 154.765625 107.49429321289063 147.87347412109375 113.8121337890625 147.87347412109375 113.8121337890625 " />
        <polyline stroke="black" stroke-width="3" stroke-linecap="round" fill="transparent" stroke-linejoin="round" points="85.84375 105.1968994140625 96.75640869140624 99.4534149169922 105.37164306640624 96.00732421875 115.70989990234376 91.98687744140624 127.1968994140625 88.54078674316406 138.10952758789063 84.52033996582031 148.44781494140625 79.3511962890625 155.34002685546875 74.18205261230469 158.21173095703125 68.43856811523438 158.21173095703125 68.43856811523438 " />
        <polyline stroke="black" stroke-width="3" stroke-linecap="round" fill="transparent" stroke-linejoin="round" points="126.0482177734375 46.03894805908203 126.0482177734375 55.802886962890625 124.89950561523438 64.99246215820313 123.17645263671876 77.05380249023438 119.7303466796875 89.68948364257813 115.13555908203124 101.17645263671876 111.1151123046875 109.79168701171876 107.09466552734376 115.53518676757813 102.4998779296875 118.98127746582033 97.90509033203124 121.27867126464844 92.7359619140625 122.4273681640625 89.86419677734375 122.4273681640625 88.14117431640625 122.4273681640625 89.86419677734375 122.4273681640625 95.60772705078124 120.12997436523438 107.09466552734376 116.6838836669922 121.45343017578124 112.08909606933594 131.21734619140625 109.21734619140624 138.68389892578125 107.49429321289063 143.85302734375 106.34559631347656 145.5760498046875 106.34559631347656 142.704345703125 108.64299011230467 142.704345703125 108.64299011230467 " />
        <polyline stroke="black" stroke-width="3" stroke-linecap="round" fill="transparent" stroke-linejoin="round" points="42.767578125 165.50355529785156 62.29547119140625 156.88832092285156 78.95159912109375 151.1448211669922 101.925537109375 144.8269805908203 124.32513427734376 139.65785217285156 142.12997436523438 136.78610229492188 159.3604736328125 134.48870849609375 172.57049560546875 132.76565551757813 182.90875244140625 131.61695861816406 188.6522216796875 131.61695861816406 193.2470703125 131.61695861816406 194.9700927734375 131.61695861816406 196.1187744140625 134.48870849609375 196.1187744140625 134.48870849609375 " />
        <polyline stroke="black" stroke-width="3" stroke-linecap="round" fill="transparent" stroke-linejoin="round" points="136.9608154296875 144.2526397705078 134.6634521484375 156.88832092285156 135.23779296875 169.5240020751953 135.8121337890625 182.15966796875 135.23779296875 192.4979553222656 133.51473999023438 201.1131896972656 131.79168701171875 205.70797729492188 131.79168701171875 205.70797729492188 " />
        <polyline stroke="black" stroke-width="3" stroke-linecap="round" fill="transparent" stroke-linejoin="round" points="82.39767456054688 188.47750854492188 89.28985595703125 195.94406127929688 91.5872802734375 199.39013671875 93.8846435546875 203.41058349609375 96.75640869140624 206.856689453125 100.2025146484375 210.87713623046875 105.37164306640624 214.8975830078125 111.1151123046875 218.91799926757813 118.5816650390625 220.64105224609375 130.64300537109375 220.06671142578125 142.704345703125 214.8975830078125 151.8939208984375 209.15408325195313 158.7861328125 203.98492431640625 164.52960205078125 199.96450805664065 169.1243896484375 195.94406127929688 171.99609375 191.92361450195313 173.71917724609375 188.47750854492188 174.29351806640625 184.45706176757813 174.29351806640625 179.28793334960938 174.29351806640625 175.84182739257813 174.29351806640625 174.11878967285156 175.44219970703125 174.11878967285156 175.44219970703125 175.84182739257813 175.44219970703125 179.28793334960938 176.5909423828125 185.03143310546875 177.7396240234375 191.92361450195313 179.462646484375 202.26190185546875 182.90875244140625 215.471923828125 182.90875244140625 215.471923828125 " />
        </svg>