<?xml version="1.0" standalone="no"?>
    <svg width="256" height="256" xmlns="http://www.w3.org/2000/svg" version="1.1">
    <polyline stroke="black" stroke-width="3" stroke-linecap="round" fill="transparent" stroke-linejoin="round" points="76 68 76 76 76 84 77 103 79 117 82 126 86 129 87 129 87 129 " />
        <polyline stroke="black" stroke-width="3" stroke-linecap="round" fill="transparent" stroke-linejoin="round" points="62 58 84 57 106 56 133 53 155 52 171 52 178 52 180 57 180 69 177 83 169 98 162 108 152 114 148 115 148 115 " />
        <polyline stroke="black" stroke-width="3" stroke-linecap="round" fill="transparent" stroke-linejoin="round" points="114 56 114 70 114 84 116 99 116 109 116 111 116 111 " />
        <polyline stroke="black" stroke-width="3" stroke-linecap="round" fill="transparent" stroke-linejoin="round" points="70 99 86 99 102 99 124 96 144 95 159 95 162 95 162 95 " />
        <polyline stroke="black" stroke-width="3" stroke-linecap="round" fill="transparent" stroke-linejoin="round" points="55 141 76 138 97 135 121 130 143 126 162 122 173 121 175 121 175 121 " />
        <polyline stroke="black" stroke-width="3" stroke-linecap="round" fill="transparent" stroke-linejoin="round" points="48 161 69 157 90 153 132 151 147 151 171 151 189 151 199 152 200 155 200 155 " />
        <polyline stroke="black" stroke-width="3" stroke-linecap="round" fill="transparent" stroke-linejoin="round" points="126 155 126 164 126 173 126 184 126 194 126 202 123 206 123 206 " />
        <polyline stroke="black" stroke-width="3" stroke-linecap="round" fill="transparent" stroke-linejoin="round" points="85 203 90 203 95 203 104 203 121 203 140 202 155 200 166 198 175 197 181 195 181 195 " />
        <polyline stroke="black" stroke-width="3" stroke-linecap="round" fill="transparent" stroke-linejoin="round" points="186 177 186 184 186 191 186 205 186 205 " />
        </svg>