<?xml version="1.0" standalone="no"?>
    <svg width="256" height="256" xmlns="http://www.w3.org/2000/svg" version="1.1">
    <polyline stroke="black" stroke-width="3" stroke-linecap="round" fill="transparent" stroke-linejoin="round" points="91.7823486328125 111.90788269042967 105.487060546875 108.37120056152344 119.6337890625 105.71867370605467 127.14926147460938 104.39242553710938 146.60107421875 100.41363525390624 151.9061279296875 99.52947998046876 163.40032958984375 96.876953125 166.93701171875 95.99278259277344 168.70538330078125 95.10861206054688 169.1474609375 94.22444152832033 168.70538330078125 93.34027099609376 167.82122802734375 93.34027099609376 165.168701171875 94.22444152832033 159.8636474609375 97.76113891601563 151.9061279296875 105.71867370605467 142.18017578125 118.5391845703125 133.33847045898438 131.35971069335938 124.49676513671876 143.73809814453125 116.98129272460938 153.4639892578125 109.023681640625 160.97946166992188 98.855712890625 168.05284118652344 86.91940307617188 175.126220703125 75.4251708984375 180.8733367919922 70.1201171875 183.0837860107422 59.9521484375 186.6204833984375 57.299652099609375 187.06256103515625 58.183807373046875 186.17840576171875 70.1201171875 181.75750732421875 91.7823486328125 176.01040649414063 114.32879638671876 172.0316162109375 136.43307495117188 170.26327514648438 157.21112060546875 170.26327514648438 172.68414306640625 170.7053680419922 183.294189453125 172.0316162109375 190.8096923828125 176.01040649414063 190.8096923828125 176.01040649414063 " />
        </svg>