<?xml version="1.0" standalone="no"?>
    <svg width="256" height="256" xmlns="http://www.w3.org/2000/svg" version="1.1">
    <polyline stroke="black" stroke-width="3" stroke-linecap="round" fill="transparent" stroke-linejoin="round" points="98.33822631835938 96.7446746826172 115.58221435546876 91.8178253173828 134.46844482421875 87.71211242675781 151.71240234375 84.42755126953125 165.26123046875 81.96412658691406 173.47265625 80.73240661621094 176.75726318359375 79.91127014160156 177.1678466796875 79.09011840820313 176.75726318359375 78.67955017089844 172.240966796875 79.09011840820313 164.44012451171875 81.96412658691406 160.7449951171875 83.60641479492188 150.89129638671875 88.94383239746094 145.96444702148438 92.63897705078124 141.03759765625 97.97639465332033 138.57415771484375 101.26095581054688 131.18389892578125 116.04150390625 126.25701904296876 127.53750610351563 121.33016967773438 138.62290954589844 115.58221435546876 148.88719177246094 109.01303100585938 156.6880340576172 101.62277221679688 162.8466033935547 93.00079345703124 168.18402099609375 85.199951171875 172.28973388671875 80.2730712890625 174.34259033203125 77.80966186523438 174.75315856933594 78.22021484375 174.34259033203125 80.2730712890625 173.52145385742188 108.19189453125 166.541748046875 132.826171875 163.25717163085938 157.46044921875 162.02545166015625 168.54583740234375 162.43603515625 190.7166748046875 166.13116455078125 190.7166748046875 166.13116455078125 " />
        </svg>