<?xml version="1.0" standalone="no"?>
    <svg width="256" height="256" xmlns="http://www.w3.org/2000/svg" version="1.1">
    <polyline stroke="black" stroke-width="3" stroke-linecap="round" fill="transparent" stroke-linejoin="round" points="91.05328369140624 65.32931518554688 91.08602905273438 78.01774597167969 88.30950927734375 103.22943115234376 82.98519897460938 120.88981628417967 80.0023193359375 122.94998168945313 77.33709716796875 122.28823852539063 77.26141357421875 120.44102478027344 " />
        <polyline stroke="black" stroke-width="3" stroke-linecap="round" fill="transparent" stroke-linejoin="round" points="117.25592041015624 72.50503540039063 128.91796875 69.50442504882813 141.20166015625 66.55419921875 164.7174072265625 60.61175537109375 172.32135009765625 59.03277587890625 181.436279296875 57.15791320800781 182.26068115234375 56.8955078125 182.2991943359375 56.883270263671875 " />
        <polyline stroke="black" stroke-width="3" stroke-linecap="round" fill="transparent" stroke-linejoin="round" points="130.10079956054688 75.83456420898438 124.47787475585938 89.67520141601563 112.00253295898438 118.62393188476563 100.96588134765624 144.17449951171875 96.860107421875 153.1918182373047 96.44952392578124 154.0935516357422 " />
        <polyline stroke="black" stroke-width="3" stroke-linecap="round" fill="transparent" stroke-linejoin="round" points="150.89501953125 123.88690185546876 162.00091552734375 130.04891967773438 181.514892578125 140.20050048828125 190.6895751953125 144.69747924804688 190.91448974609375 145.57818603515625 190.663818359375 146.55801391601563 190.58795166015625 146.8546142578125 " />
        <polyline stroke="black" stroke-width="3" stroke-linecap="round" fill="transparent" stroke-linejoin="round" points="101.381591796875 183.62158203125 99.288330078125 194.14276123046875 93.42782592773438 212.1171875 90.36737060546876 218.92236328125 85.83831787109375 224.24932861328125 85.72982788085938 223.5760803222656 " />
        <polyline stroke="black" stroke-width="3" stroke-linecap="round" fill="transparent" stroke-linejoin="round" points="135.79986572265625 183.8572235107422 147.50347900390625 181.7251892089844 159.916259765625 179.60116577148438 171.6329345703125 177.93125915527344 187.80950927734375 175.9569091796875 191.7213134765625 175.95175170898438 192.1661376953125 176.7069091796875 192.2891845703125 176.91587829589844 " />
        <polyline stroke="black" stroke-width="3" stroke-linecap="round" fill="transparent" stroke-linejoin="round" points="142.48956298828125 166.67784118652344 139.8603515625 184.40631103515625 132.6295166015625 225.29421997070313 129.24749755859375 242.251708984375 121.31256103515624 267.8714599609375 118.16357421875 272.242431640625 119.29037475585938 266.06640625 " />
        <polyline stroke="black" stroke-width="3" stroke-linecap="round" fill="transparent" stroke-linejoin="round" points="173.03778076171875 239.53366088867188 196.11956787109375 254.40335083007813 207.4664306640625 262.60931396484375 208.79827880859375 263.82421875 " />
        </svg>