<?xml version="1.0" standalone="no"?>
    <svg width="256" height="256" xmlns="http://www.w3.org/2000/svg" version="1.1">
    <polyline stroke="black" stroke-width="3" stroke-linecap="round" fill="transparent" stroke-linejoin="round" points="99.38848876953124 48.852142333984375 94.78106689453124 56.39155578613281 89.3359375 65.60639953613281 83.05307006835938 75.24008178710938 67.9742431640625 95.34518432617188 60.85369873046875 103.303466796875 56.665130615234375 107.91087341308594 54.570892333984375 110.0051727294922 54.1519775390625 110.0051727294922 56.665130615234375 108.32974243164063 69.23080444335938 99.95262145996094 91.01132202148438 86.54920959472656 114.04843139648438 73.9835205078125 134.15353393554688 64.34982299804688 153.0020751953125 56.39155578613281 165.98663330078125 50.10870361328125 174.36376953125 44.66357421875 179.3900146484375 38.799591064453125 179.3900146484375 38.799591064453125 " />
        <polyline stroke="black" stroke-width="3" stroke-linecap="round" fill="transparent" stroke-linejoin="round" points="134.99127197265625 38.799591064453125 131.22152709960938 47.59557342529297 123.26327514648438 64.7686767578125 110.27874755859376 91.9943389892578 100.64501953125 107.49203491210938 92.686767578125 119.22000122070313 86.40390014648438 126.7593994140625 82.63421630859375 131.36685180664063 80.95880126953125 133.4611053466797 80.53997802734375 133.4611053466797 83.05307006835938 132.6234130859375 94.78106689453124 127.59713745117188 113.62957763671876 120.05772399902344 131.22152709960938 114.1937255859375 146.30038452148438 111.26174926757813 156.77178955078125 110.0051727294922 161.79803466796875 109.16744995117188 163.4735107421875 109.16744995117188 163.4735107421875 109.16744995117188 " />
        <polyline stroke="black" stroke-width="3" stroke-linecap="round" fill="transparent" stroke-linejoin="round" points="84.30966186523438 151.8907928466797 81.79647827148438 155.66049194335938 79.28338623046875 159.01133728027344 77.60791015625 161.94334411621094 75.09481811523438 166.9696044921875 74.257080078125 170.73931884765625 75.93255615234375 171.15817260742188 84.728515625 169.0638885498047 102.73934936523438 162.3621826171875 123.68212890625 153.5662078857422 142.53070068359375 146.44566345214844 157.190673828125 141.83824157714844 162.6357421875 140.16282653808594 169.75634765625 137.64968872070313 173.9449462890625 134.71768188476563 173.9449462890625 134.71768188476563 " />
        <polyline stroke="black" stroke-width="3" stroke-linecap="round" fill="transparent" stroke-linejoin="round" points="116.56158447265624 149.79649353027344 111.95416259765624 162.3621826171875 101.901611328125 185.81814575195313 97.71307373046876 194.6141357421875 90.59249877929688 208.855224609375 85.56622314453125 219.32666015625 83.471923828125 223.93408203125 83.05307006835938 224.3529052734375 83.471923828125 223.51519775390625 83.471923828125 223.51519775390625 " />
        <polyline stroke="black" stroke-width="3" stroke-linecap="round" fill="transparent" stroke-linejoin="round" points="135.82894897460938 190.84442138671875 143.7872314453125 192.1009826660156 165.5677490234375 196.7084045410156 176.87689208984375 200.89697265625 181.0654296875 203.41009521484375 186.09173583984375 206.76095581054688 186.09173583984375 206.76095581054688 " />
        </svg>