<?xml version="1.0" standalone="no"?>
    <svg width="256" height="256" xmlns="http://www.w3.org/2000/svg" version="1.1">
    <polyline stroke="black" stroke-width="3" stroke-linecap="round" fill="transparent" stroke-linejoin="round" points="80.77777099609375 82.22224426269531 101.22222900390624 92.88888549804688 101.22222900390624 92.88888549804688 " />
        <polyline stroke="black" stroke-width="3" stroke-linecap="round" fill="transparent" stroke-linejoin="round" points="154.55557250976563 55.555572509765625 130.55557250976563 83.11111450195313 115.4444580078125 100.88890075683594 99.44448852539063 116.88888549804688 99.44448852539063 116.88888549804688 " />
        <polyline stroke="black" stroke-width="3" stroke-linecap="round" fill="transparent" stroke-linejoin="round" points="65.66665649414063 132.88888549804688 83.4444580078125 124.888916015625 94.11111450195313 121.33332824707033 106.55557250976563 116.00003051757813 143.888916015625 105.33334350585938 163.4444580078125 101.7777862548828 174.11111450195313 100.88890075683594 176.77777099609375 101.7777862548828 176.77777099609375 102.6667022705078 176.77777099609375 102.6667022705078 " />
        <polyline stroke="black" stroke-width="3" stroke-linecap="round" fill="transparent" stroke-linejoin="round" points="101.22222900390624 122.22222900390624 89.66665649414063 156.00003051757813 82.55557250976563 171.11111450195313 76.33334350585938 183.5555725097656 71 190.66665649414065 66.55557250976563 191.5555725097656 66.55557250976563 191.5555725097656 " />
        <polyline stroke="black" stroke-width="3" stroke-linecap="round" fill="transparent" stroke-linejoin="round" points="87.88888549804688 156.88888549804688 111.88888549804688 162.22222900390625 127 164 127 164 " />
        <polyline stroke="black" stroke-width="3" stroke-linecap="round" fill="transparent" stroke-linejoin="round" points="154.55557250976563 112.44444274902344 155.4444580078125 138.2222442626953 150.11111450195313 156.88888549804688 141.22222900390625 172.88888549804688 134.11111450195313 183.5555725097656 130.55557250976563 188 126.11114501953124 186.22222900390625 126.11114501953124 186.22222900390625 " />
        <polyline stroke="black" stroke-width="3" stroke-linecap="round" fill="transparent" stroke-linejoin="round" points="160.77777099609375 154.22222900390625 194.5555725097656 172 206.11111450195313 179.11111450195313 211.4444580078125 185.33334350585935 211.4444580078125 185.33334350585935 " />
        </svg>