<?xml version="1.0" standalone="no"?>
    <svg width="256" height="256" xmlns="http://www.w3.org/2000/svg" version="1.1">
    <polyline stroke="black" stroke-width="3" stroke-linecap="round" fill="transparent" stroke-linejoin="round" points="79.87261962890625 54.73423767089844 85.75320434570313 71.84135437011719 88.96078491210938 85.74090576171875 92.70297241210938 100.17503356933594 96.979736328125 112.47077941894533 102.32574462890624 119.95515441894533 102.32574462890624 119.95515441894533 " />
        <polyline stroke="black" stroke-width="3" stroke-linecap="round" fill="transparent" stroke-linejoin="round" points="178.23858642578125 56.33802795410156 175.031005859375 68.63377380371094 167.01202392578125 83.06791687011719 151.50872802734375 102.8480224609375 136.53997802734375 118.35134887695313 136.53997802734375 118.35134887695313 " />
        <polyline stroke="black" stroke-width="3" stroke-linecap="round" fill="transparent" stroke-linejoin="round" points="51.5389404296875 144.54664611816406 60.627105712890625 144.0120391845703 73.9920654296875 142.94284057617188 95.3759765625 139.73526000976563 120.50204467773438 135.99307250976563 142.4205322265625 132.2509002685547 163.804443359375 127.97410583496094 178.23858642578125 124.23193359375 188.39593505859375 121.02433776855467 193.20733642578125 119.42054748535156 193.20733642578125 119.42054748535156 " />
        <polyline stroke="black" stroke-width="3" stroke-linecap="round" fill="transparent" stroke-linejoin="round" points="94.3067626953125 156.84239196777344 85.21859741210938 173.9495086669922 78.26882934570313 188.38363647460935 71.31906127929688 204.42156982421875 64.90390014648438 217.25192260742188 61.161712646484375 223.13250732421875 61.161712646484375 223.13250732421875 " />
        <polyline stroke="black" stroke-width="3" stroke-linecap="round" fill="transparent" stroke-linejoin="round" points="83.61480712890625 177.6916961669922 92.70297241210938 189.9874267578125 99.65274047851563 202.28317260742188 105.5333251953125 214.0443420410156 111.41387939453124 221.5286865234375 118.89825439453124 224.20169067382813 118.89825439453124 224.20169067382813 " />
        <polyline stroke="black" stroke-width="3" stroke-linecap="round" fill="transparent" stroke-linejoin="round" points="164.8736572265625 137.06227111816406 160.59686279296875 147.7542266845703 150.97412109375 170.74192810058594 140.8167724609375 192.66043090820313 133.3323974609375 208.16375732421875 126.38262939453124 220.99411010742188 122.64044189453124 229.0130615234375 122.64044189453124 229.0130615234375 " />
        <polyline stroke="black" stroke-width="3" stroke-linecap="round" fill="transparent" stroke-linejoin="round" points="138.67837524414063 207.09457397460935 152.0433349609375 217.25192260742188 162.7352294921875 224.73629760742188 173.42724609375 233.28985595703125 183.5845947265625 241.84341430664065 193.741943359375 253.0699462890625 193.741943359375 253.0699462890625 " />
        </svg>