<?xml version="1.0" standalone="no"?>
    <svg width="256" height="256" xmlns="http://www.w3.org/2000/svg" version="1.1">
    <polyline stroke="black" stroke-width="3" stroke-linecap="round" fill="transparent" stroke-linejoin="round" points="76.0802001953125 77.2911376953125 83.02996826171875 87.448486328125 86.237548828125 93.86366271972656 91.0489501953125 99.20964050292967 91.0489501953125 99.20964050292967 " />
        <polyline stroke="black" stroke-width="3" stroke-linecap="round" fill="transparent" stroke-linejoin="round" points="170.16943359375 43.611480712890625 169.634765625 62.85699462890625 153.59686279296875 91.190673828125 134.88595581054688 114.71296691894533 134.88595581054688 114.71296691894533 " />
        <polyline stroke="black" stroke-width="3" stroke-linecap="round" fill="transparent" stroke-linejoin="round" points="55.7655029296875 145.18502807617188 69.6650390625 136.6314697265625 80.8916015625 131.82008361816406 96.39492797851563 126.47410583496094 120.45181274414063 119.52433776855467 140.76654052734375 113.64376831054688 158.40826416015625 108.29779052734376 172.8424072265625 103.48641967773438 179.79217529296875 100.8134307861328 183.5343017578125 100.27882385253906 183.5343017578125 100.27882385253906 " />
        <polyline stroke="black" stroke-width="3" stroke-linecap="round" fill="transparent" stroke-linejoin="round" points="94.25653076171876 147.32342529296875 84.6337890625 167.10353088378906 76.61480712890625 185.27984619140625 71.26882934570313 198.11019897460935 68.06124877929688 205.59457397460935 65.9228515625 209.871337890625 65.9228515625 209.871337890625 " />
        <polyline stroke="black" stroke-width="3" stroke-linecap="round" fill="transparent" stroke-linejoin="round" points="87.84136962890625 166.03433227539063 100.1370849609375 169.77651977539063 107.6214599609375 174.58790588378906 116.70965576171876 181.5376739501953 124.19400024414063 187.95285034179688 124.19400024414063 187.95285034179688 " />
        <polyline stroke="black" stroke-width="3" stroke-linecap="round" fill="transparent" stroke-linejoin="round" points="168.56561279296875 124.33572387695313 165.3580322265625 133.42388916015625 160.546630859375 146.2542266845703 154.66607666015625 160.6883544921875 148.25091552734375 174.58790588378906 142.37030029296875 185.814453125 138.09353637695313 194.90261840820313 133.8167724609375 199.7139892578125 132.74755859375 199.7139892578125 134.88595581054688 194.36801147460935 138.62814331054688 189.02203369140625 143.43951416015625 185.814453125 149.85467529296875 184.74526977539065 161.08123779296875 186.34906005859375 173.376953125 192.2296142578125 186.741943359375 200.78317260742188 196.8992919921875 210.40594482421875 196.8992919921875 210.40594482421875 " />
        </svg>