<?xml version="1.0" standalone="no"?>
    <svg width="256" height="256" xmlns="http://www.w3.org/2000/svg" version="1.1">
    <polyline stroke="black" stroke-width="3" stroke-linecap="round" fill="transparent" stroke-linejoin="round" points="70.69699096679688 38.120567321777344 71.76480102539063 50.934349060058594 76.56997680664063 76.56190490722656 81.37515258789063 93.64694213867188 87.78204345703125 108.0624542236328 96.32455444335938 117.1388702392578 96.32455444335938 117.1388702392578 " />
        <polyline stroke="black" stroke-width="3" stroke-linecap="round" fill="transparent" stroke-linejoin="round" points="184.4193115234375 49.86653137207031 176.41064453125 71.22283935546875 157.19000244140625 98.45211791992188 138.50323486328125 116.07106018066406 111.27398681640624 137.42735290527344 111.27398681640624 137.42735290527344 " />
        <polyline stroke="black" stroke-width="3" stroke-linecap="round" fill="transparent" stroke-linejoin="round" points="46.13726806640625 156.11412048339844 58.4171142578125 150.77503967285156 90.45156860351563 136.89344787597656 115.01132202148438 127.28311157226563 142.2406005859375 116.60496520996094 166.26641845703125 107.52853393554688 180.68194580078125 101.6555633544922 187.62274169921875 101.12165832519533 187.62274169921875 103.79118347167967 182.28369140625 108.0624542236328 182.28369140625 108.0624542236328 " />
        <polyline stroke="black" stroke-width="3" stroke-linecap="round" fill="transparent" stroke-linejoin="round" points="88.849853515625 146.5037841796875 81.9090576171875 156.6480255126953 61.620574951171875 192.9537353515625 52.01025390625 212.70831298828125 44.5355224609375 225.5220947265625 40.798187255859375 231.39508056640625 40.798187255859375 231.39508056640625 " />
        <polyline stroke="black" stroke-width="3" stroke-linecap="round" fill="transparent" stroke-linejoin="round" points="88.849853515625 164.65664672851563 96.85845947265624 168.3939971923828 105.4010009765625 175.3347930908203 113.9434814453125 182.80950927734375 120.35040283203124 188.1485595703125 120.35040283203124 188.1485595703125 " />
        <polyline stroke="black" stroke-width="3" stroke-linecap="round" fill="transparent" stroke-linejoin="round" points="160.9273681640625 112.33370971679688 153.986572265625 135.29173278808594 142.2406005859375 164.65664672851563 136.90151977539063 180.13995361328125 131.02853393554688 194.02154541015625 126.75726318359376 202.5640563964844 123.5538330078125 207.90313720703125 123.5538330078125 207.90313720703125 " />
        <polyline stroke="black" stroke-width="3" stroke-linecap="round" fill="transparent" stroke-linejoin="round" points="143.30841064453125 173.73306274414063 151.8509521484375 178.53823852539063 159.85955810546875 185.47903442382813 168.93597412109375 194.55545043945313 176.944580078125 204.16580200195313 176.944580078125 204.16580200195313 " />
        </svg>