<?xml version="1.0" standalone="no"?>
    <svg width="256" height="256" xmlns="http://www.w3.org/2000/svg" version="1.1">
    <polyline stroke="black" stroke-width="3" stroke-linecap="round" fill="transparent" stroke-linejoin="round" points="65.35366821289063 76.75653076171875 71.2342529296875 88.51768493652344 74.44183349609375 96.00204467773438 78.71859741210938 102.95181274414063 83.52996826171875 108.29779052734376 92.08355712890624 110.43618774414063 92.08355712890624 110.43618774414063 " />
        <polyline stroke="black" stroke-width="3" stroke-linecap="round" fill="transparent" stroke-linejoin="round" points="167.4617919921875 43.076881408691406 169.06561279296875 55.9072265625 161.046630859375 76.75653076171875 146.07791137695313 101.88262939453124 132.17837524414063 118.45515441894533 132.17837524414063 118.45515441894533 " />
        <polyline stroke="black" stroke-width="3" stroke-linecap="round" fill="transparent" stroke-linejoin="round" points="54.127105712890625 155.87698364257813 62.6806640625 153.20399475097656 72.8380126953125 151.0655975341797 87.8067626953125 147.32342529296875 109.72528076171876 142.5120391845703 133.24755859375 138.23526000976563 158.3736572265625 133.42388916015625 173.876953125 130.21629333496094 186.1727294921875 127.54330444335938 191.5186767578125 127.54330444335938 191.5186767578125 127.54330444335938 " />
        <polyline stroke="black" stroke-width="3" stroke-linecap="round" fill="transparent" stroke-linejoin="round" points="98.49871826171876 147.85801696777344 92.6181640625 155.34239196777344 86.737548828125 167.6381378173828 77.11480712890625 187.95285034179688 69.63043212890625 204.52536010742188 62.146087646484375 219.49411010742188 57.334716796875 228.582275390625 57.334716796875 228.582275390625 " />
        <polyline stroke="black" stroke-width="3" stroke-linecap="round" fill="transparent" stroke-linejoin="round" points="85.66839599609375 173.51870727539063 95.82574462890624 177.26089477539063 101.706298828125 181.00306701660156 108.65606689453124 186.34906005859375 116.14044189453124 192.76422119140625 124.159423828125 200.78317260742188 124.159423828125 200.78317260742188 " />
        <polyline stroke="black" stroke-width="3" stroke-linecap="round" fill="transparent" stroke-linejoin="round" points="166.92724609375 153.20399475097656 157.304443359375 169.24192810058594 150.8892822265625 181.00306701660156 143.93951416015625 193.8334045410156 136.45513916015625 206.129150390625 129.50537109375 219.49411010742188 129.50537109375 219.49411010742188 " />
        <polyline stroke="black" stroke-width="3" stroke-linecap="round" fill="transparent" stroke-linejoin="round" points="153.562255859375 199.7139892578125 165.8580322265625 205.59457397460935 174.41156005859375 211.47512817382813 182.96514892578125 218.95950317382813 192.05328369140625 231.78985595703125 192.05328369140625 231.78985595703125 " />
        </svg>