<?xml version="1.0" standalone="no"?>
    <svg width="256" height="256" xmlns="http://www.w3.org/2000/svg" version="1.1">
    <polyline stroke="black" stroke-width="3" stroke-linecap="round" fill="transparent" stroke-linejoin="round" points="75.51101684570313 90.12147521972656 79.78778076171875 97.6058349609375 84.0645751953125 107.76319885253906 88.8759765625 118.45515441894533 94.221923828125 125.93951416015624 103.31008911132813 129.1470947265625 103.31008911132813 129.1470947265625 " />
        <polyline stroke="black" stroke-width="3" stroke-linecap="round" fill="transparent" stroke-linejoin="round" points="172.273193359375 54.303436279296875 172.80780029296875 67.13377380371094 165.32342529296875 89.58688354492188 153.562255859375 115.24755859375 140.19732666015625 133.42388916015625 126.29779052734376 148.92721557617188 126.29779052734376 148.92721557617188 " />
        <polyline stroke="black" stroke-width="3" stroke-linecap="round" fill="transparent" stroke-linejoin="round" points="53.05792236328125 162.82675170898438 64.81906127929688 155.87698364257813 76.5802001953125 150.531005859375 94.221923828125 144.6504364013672 122.02099609375 135.02767944335938 146.07791137695313 126.47410583496094 165.32342529296875 118.45515441894533 180.29217529296875 111.50538635253906 187.7764892578125 109.3669891357422 192.05328369140625 109.3669891357422 192.05328369140625 109.3669891357422 " />
        <polyline stroke="black" stroke-width="3" stroke-linecap="round" fill="transparent" stroke-linejoin="round" points="95.2911376953125 157.48077392578125 86.20297241210938 170.31112670898438 78.71859741210938 184.74526977539065 70.69964599609375 200.24859619140625 65.35366821289063 212.00973510742188 62.6806640625 218.95950317382813 61.611480712890625 222.1670837402344 61.611480712890625 222.1670837402344 " />
        <polyline stroke="black" stroke-width="3" stroke-linecap="round" fill="transparent" stroke-linejoin="round" points="85.1337890625 171.9149169921875 96.36032104492188 181.00306701660156 103.31008911132813 189.556640625 111.32904052734376 197.5755920410156 119.3480224609375 202.92156982421875 126.8323974609375 202.92156982421875 126.8323974609375 202.92156982421875 " />
        <polyline stroke="black" stroke-width="3" stroke-linecap="round" fill="transparent" stroke-linejoin="round" points="158.3736572265625 126.47410583496094 156.76983642578125 137.70066833496094 150.35467529296875 161.75755310058594 144.47412109375 178.86468505859375 139.12814331054688 193.8334045410156 134.85134887695313 204.52536010742188 132.17837524414063 210.9405517578125 132.17837524414063 210.9405517578125 " />
        <polyline stroke="black" stroke-width="3" stroke-linecap="round" fill="transparent" stroke-linejoin="round" points="155.16607666015625 191.16043090820313 165.32342529296875 195.43719482421875 177.619140625 202.92156982421875 187.7764892578125 213.07891845703125 187.7764892578125 213.07891845703125 " />
        </svg>