<?xml version="1.0" standalone="no"?>
    <svg width="256" height="256" xmlns="http://www.w3.org/2000/svg" version="1.1">
    <polyline stroke="black" stroke-width="3" stroke-linecap="round" fill="transparent" stroke-linejoin="round" points="118.83685302734376 40.02519226074219 121.077392578125 48.987213134765625 123.31793212890624 57.94923400878906 126.90277099609376 76.32138061523438 128.2470703125 92.00489807128906 126.00653076171876 105.8960418701172 122.86984252929688 113.51373291015624 122.86984252929688 113.51373291015624 " />
        <polyline stroke="black" stroke-width="3" stroke-linecap="round" fill="transparent" stroke-linejoin="round" points="76.71539306640624 135.02261352539063 84.78125 132.78208923339844 92.84710693359376 130.54156494140625 102.25717163085938 127.85296630859376 145.27487182617188 117.09854125976563 166.78369140625 112.6175537109375 183.36346435546875 109.4808349609375 194.11785888671875 107.24034118652344 197.25457763671875 106.79222106933594 199.94317626953125 105.8960418701172 199.94317626953125 105.8960418701172 " />
        <polyline stroke="black" stroke-width="3" stroke-linecap="round" fill="transparent" stroke-linejoin="round" points="81.64453125 162.80484008789063 77.16354370117188 171.31875610351563 72.68255615234375 179.83267211914063 68.64962768554688 187.00225830078125 65.512939453125 193.72378540039065 61.03192138671875 204.92630004882813 59.239501953125 209.85540771484375 59.6876220703125 210.75161743164065 59.6876220703125 210.75161743164065 " />
        <polyline stroke="black" stroke-width="3" stroke-linecap="round" fill="transparent" stroke-linejoin="round" points="162.75079345703125 140.39979553222653 175.7457275390625 161.90863037109375 188.74066162109375 183.41746520996097 193.2216796875 195.96429443359375 193.2216796875 195.96429443359375 " />
        </svg>