<?xml version="1.0" standalone="no"?>
    <svg width="256" height="256" xmlns="http://www.w3.org/2000/svg" version="1.1">
    <polyline stroke="black" stroke-width="3" stroke-linecap="round" fill="transparent" stroke-linejoin="round" points="118.65252685546876 47.78453063964844 123.272705078125 53.72474670410156 128.55288696289063 85.40594482421875 127.5628662109375 91.0161590576172 120.63259887695313 105.86669921875 108.09213256835938 117.74714660644533 97.86175537109376 123.02734375 97.86175537109376 123.02734375 97.86175537109376 123.02734375 " />
        <polyline stroke="black" stroke-width="3" stroke-linecap="round" fill="transparent" stroke-linejoin="round" points="63.54046630859375 120.3872528076172 84.66122436523438 108.1768035888672 131.52301025390625 91.67617797851563 139.7733154296875 90.35612487792967 163.8642578125 88.37605285644531 182.6749267578125 88.7060546875 192.24530029296875 90.026123046875 195.21539306640625 91.67617797851563 195.21539306640625 91.67617797851563 195.21539306640625 91.67617797851563 " />
        <polyline stroke="black" stroke-width="3" stroke-linecap="round" fill="transparent" stroke-linejoin="round" points="89.94140625 123.6873779296875 86.97134399414063 141.50804138183594 80.04107666015625 177.47938537597656 79.05105590820313 181.4395446777344 77.73101806640625 192.65997314453125 78.39105224609375 198.93020629882813 79.38104248046875 200.250244140625 79.38104248046875 200.250244140625 79.38104248046875 200.250244140625 " />
        <polyline stroke="black" stroke-width="3" stroke-linecap="round" fill="transparent" stroke-linejoin="round" points="128.88290405273438 142.16806030273438 141.75338745117188 150.08836364746094 169.804443359375 174.50930786132813 174.0946044921875 178.46942138671875 183.3349609375 194.31005859375 186.965087890625 202.56036376953125 186.965087890625 202.56036376953125 " />
        </svg>