<?xml version="1.0" standalone="no"?>
    <svg width="256" height="256" xmlns="http://www.w3.org/2000/svg" version="1.1">
    <polyline stroke="black" stroke-width="3" stroke-linecap="round" fill="transparent" stroke-linejoin="round" points="78.47506713867188 86.65423583984375 88.7933349609375 83.43991088867188 110.25665283203124 78.46212768554688 132.3819580078125 75.20750427246094 140.02728271484375 74.16366577148438 143.43490600585938 72.81149291992188 143.49703979492188 72.75411987304688 143.503662109375 72.74800109863281 143.5037841796875 72.74789428710938 143.50387573242188 72.74783325195313 " />
        <polyline stroke="black" stroke-width="3" stroke-linecap="round" fill="transparent" stroke-linejoin="round" points="105.8839111328125 80.73062133789063 103.0257568359375 90.1417236328125 94.930908203125 112.66911315917967 90.89852905273438 123.14134216308594 84.723388671875 138.6728515625 81.16595458984375 147.93417358398438 80.22323608398438 150.1185302734375 78.55868530273438 151.67698669433594 78.39227294921875 151.83285522460938 " />
        <polyline stroke="black" stroke-width="3" stroke-linecap="round" fill="transparent" stroke-linejoin="round" points="122.56378173828124 97.8159637451172 129.81307983398438 103.35174560546876 136.97467041015625 109.2391357421875 151.623779296875 117.4482421875 168.42333984375 129.524658203125 182.15106201171875 139.89927673339844 190.2647705078125 145.72537231445313 203.33978271484375 154.6453857421875 207.7979736328125 157.46044921875 212.39959716796875 160.10537719726563 212.5665283203125 160.18624877929688 212.5787353515625 160.1921844482422 212.581787109375 160.1936492919922 " />
        <polyline stroke="black" stroke-width="3" stroke-linecap="round" fill="transparent" stroke-linejoin="round" points="182.19287109375 78.97222900390625 179.77099609375 86.2611083984375 175.32470703125 100.59393310546876 173.36279296875 106.3445281982422 169.0452880859375 115.7539520263672 167.9776611328125 117.09060668945313 167.880126953125 117.212646484375 " />
        <polyline stroke="black" stroke-width="3" stroke-linecap="round" fill="transparent" stroke-linejoin="round" points="174.998779296875 91.92172241210938 179.416015625 94.2702178955078 184.8826904296875 97.15090942382813 195.4381103515625 104.182373046875 198.180419921875 106.74382019042967 200.39788818359375 109.27621459960938 201.05194091796875 111.7210693359375 199.9508056640625 115.53587341308594 199.87567138671875 115.79623413085938 " />
        <polyline stroke="black" stroke-width="3" stroke-linecap="round" fill="transparent" stroke-linejoin="round" points="124.12362670898438 152.91278076171875 132.194091796875 151.77587890625 145.38018798828125 150.06674194335938 162.7113037109375 149.51699829101563 166.198974609375 149.46731567382813 166.767578125 149.28782653808594 166.77197265625 149.2864227294922 " />
        <polyline stroke="black" stroke-width="3" stroke-linecap="round" fill="transparent" stroke-linejoin="round" points="96.82418823242188 205.5113525390625 102.31280517578124 205.2337646484375 126.28768920898438 204.36212158203125 150.64794921875 203.5235290527344 165.92822265625 203.46453857421875 181.2581787109375 203.62503051757813 183.4122314453125 203.9263916015625 185.0274658203125 204.4871826171875 185.090087890625 204.50537109375 185.0943603515625 204.50662231445313 " />
        </svg>