<?xml version="1.0" standalone="no"?>
    <svg width="256" height="256" xmlns="http://www.w3.org/2000/svg" version="1.1">
    <polyline stroke="black" stroke-width="3" stroke-linecap="round" fill="transparent" stroke-linejoin="round" points="65.84063720703125 72.36579895019531 78.2344970703125 69.41488647460938 101.8419189453125 64.10321044921875 129.58056640625 57.02099609375 144.92538452148438 53.479888916015625 160.27020263671875 49.93878173828125 160.27020263671875 49.93878173828125 " />
        <polyline stroke="black" stroke-width="3" stroke-linecap="round" fill="transparent" stroke-linejoin="round" points="124.85910034179688 32.82342529296875 114.23577880859376 49.348602294921875 98.8909912109375 79.44801330566406 88.85784912109375 97.74374389648438 78.82470703125 115.44927978515624 68.79156494140625 131.38427734375 61.119140625 143.18795776367188 54.62713623046875 152.04074096679688 51.08599853515625 155.58184814453125 51.08599853515625 155.58184814453125 51.08599853515625 155.58184814453125 " />
        <polyline stroke="black" stroke-width="3" stroke-linecap="round" fill="transparent" stroke-linejoin="round" points="92.9891357421875 120.7609405517578 105.97320556640624 123.12168884277344 128.40020751953125 130.79408264160156 151.41741943359375 140.23704528808594 167.94256591796875 147.90943908691406 180.9266357421875 153.81129455566406 191.54998779296875 156.76220703125 191.54998779296875 156.76220703125 " />
        <polyline stroke="black" stroke-width="3" stroke-linecap="round" fill="transparent" stroke-linejoin="round" points="190.95977783203125 54.07008361816406 182.69720458984375 63.513031005859375 172.6640625 76.49710083007813 161.4505615234375 90.66152954101563 149.05667114257813 106.59651184082033 140.20391845703125 115.44927978515624 140.20391845703125 115.44927978515624 " />
        <polyline stroke="black" stroke-width="3" stroke-linecap="round" fill="transparent" stroke-linejoin="round" points="149.05667114257813 82.39894104003906 163.2210693359375 82.39894104003906 179.1561279296875 84.75967407226563 193.91070556640625 88.30079650878906 207.4849853515625 96.56336975097656 207.4849853515625 96.56336975097656 " />
        <polyline stroke="black" stroke-width="3" stroke-linecap="round" fill="transparent" stroke-linejoin="round" points="110.1044921875 169.15609741210938 126.03948974609376 165.02479553222656 142.56463623046875 161.4836883544922 158.4996337890625 159.713134765625 171.48370361328125 159.713134765625 177.9757080078125 163.25424194335938 177.9757080078125 163.25424194335938 " />
        <polyline stroke="black" stroke-width="3" stroke-linecap="round" fill="transparent" stroke-linejoin="round" points="85.31671142578125 217.55123901367188 99.48114013671876 215.19049072265625 123.6787109375 212.82977294921875 141.97445678710938 212.23956298828125 160.8603515625 212.82977294921875 175.0247802734375 213.41995239257813 182.69720458984375 214.0101318359375 186.23828125 215.7806701660156 186.23828125 215.7806701660156 " />
        </svg>