<?xml version="1.0" standalone="no"?>
    <svg width="256" height="256" xmlns="http://www.w3.org/2000/svg" version="1.1">
    <polyline stroke="black" stroke-width="3" stroke-linecap="round" fill="transparent" stroke-linejoin="round" points="86.031005859375 93.37904357910156 95.29827880859376 89.84866333007813 104.56552124023438 86.31826782226563 112.9501953125 83.22917175292969 127.954345703125 77.49229431152344 141.19332885742188 72.19671630859375 153.5496826171875 65.57722473144531 163.25830078125 58.516448974609375 167.6712646484375 51.89696502685547 167.6712646484375 51.89696502685547 " />
        <polyline stroke="black" stroke-width="3" stroke-linecap="round" fill="transparent" stroke-linejoin="round" points="112.5089111328125 56.30995178222656 107.65463256835938 64.25332641601563 102.80035400390624 72.63800048828125 89.1201171875 98.67462158203124 81.61801147460938 114.12010192871094 71.02685546875 133.53721618652344 65.28997802734375 142.3632049560547 65.28997802734375 142.3632049560547 " />
        <polyline stroke="black" stroke-width="3" stroke-linecap="round" fill="transparent" stroke-linejoin="round" points="105.44818115234376 118.974365234375 111.62631225585938 122.0634765625 125.30657958984376 129.12423706054688 140.75204467773438 137.06761169433594 153.990966796875 143.68710327148438 166.34735107421875 147.65878295898438 172.52557373046875 147.21749877929688 172.52557373046875 147.21749877929688 " />
        <polyline stroke="black" stroke-width="3" stroke-linecap="round" fill="transparent" stroke-linejoin="round" points="177.8211669921875 88.08346557617188 171.20166015625 93.37904357910156 161.49310302734375 102.20504760742188 152.225830078125 110.14840698242188 152.225830078125 110.14840698242188 " />
        <polyline stroke="black" stroke-width="3" stroke-linecap="round" fill="transparent" stroke-linejoin="round" points="142.5172119140625 104.4114990234375 146.93023681640625 104.4114990234375 151.7845458984375 104.4114990234375 161.93438720703125 105.29411315917967 169.8778076171875 107.05931091308594 172.52557373046875 108.38320922851563 172.52557373046875 108.38320922851563 " />
        <polyline stroke="black" stroke-width="3" stroke-linecap="round" fill="transparent" stroke-linejoin="round" points="90.002685546875 169.28240966796875 98.82867431640624 166.19332885742188 107.65463256835938 163.5455322265625 115.5980224609375 161.3390350341797 130.60214233398438 157.3673553466797 140.75204467773438 155.60215759277344 145.1650390625 156.04345703125 146.047607421875 157.3673553466797 146.047607421875 157.3673553466797 " />
        <polyline stroke="black" stroke-width="3" stroke-linecap="round" fill="transparent" stroke-linejoin="round" points="57.78790283203125 219.149169921875 69.70297241210938 218.7078857421875 82.94189453125 217.38397216796875 98.38739013671876 215.6187744140625 142.5172119140625 209.44061279296875 169.8778076171875 205.91021728515625 186.205810546875 205.46893310546875 186.205810546875 205.46893310546875 " />
        </svg>