<?xml version="1.0" standalone="no"?>
    <svg width="256" height="256" xmlns="http://www.w3.org/2000/svg" version="1.1">
    <polyline stroke="black" stroke-width="3" stroke-linecap="round" fill="transparent" stroke-linejoin="round" points="58.26531982421875 76.94758605957031 69.33261108398438 69.10824584960938 75.78857421875 65.41912841796875 83.166748046875 61.73002624511719 90.54498291015624 58.040924072265625 114.06298828125 47.43474578857422 127.43600463867188 43.28450775146485 136.19760131835938 40.97882080078125 141.2701416015625 40.056541442871094 141.73129272460938 40.517669677734375 120.05780029296876 73.25848388671875 91.006103515625 108.76609802246094 72.09945678710938 130.90072631835938 59.648681640625 144.73486328125 55.9595947265625 148.4239959716797 54.115081787109375 149.80740356445313 54.115081787109375 149.80740356445313 " />
        <polyline stroke="black" stroke-width="3" stroke-linecap="round" fill="transparent" stroke-linejoin="round" points="77.17196655273438 88.014892578125 99.76776123046876 91.70399475097656 107.14593505859376 92.62628173828124 114.524169921875 93.54855346679688 137.119873046875 96.31536865234376 144.03695678710938 96.77651977539063 144.03695678710938 96.77651977539063 " />
        <polyline stroke="black" stroke-width="3" stroke-linecap="round" fill="transparent" stroke-linejoin="round" points="61.03216552734375 158.10789489746094 76.24969482421875 147.96282958984375 83.62789916992188 143.35147094726563 91.006103515625 139.2012176513672 107.60711669921876 130.90072631835938 120.05780029296876 125.3670654296875 126.974853515625 123.06138610839844 129.74169921875 122.13912963867188 129.280517578125 123.52252197265624 112.21844482421876 145.19601440429688 79.01654052734375 183.470458984375 56.420745849609375 206.52737426757813 40.742034912109375 219.43923950195313 33.363861083984375 224.51174926757813 33.363861083984375 224.51174926757813 " />
        <polyline stroke="black" stroke-width="3" stroke-linecap="round" fill="transparent" stroke-linejoin="round" points="78.09423828125 153.9576416015625 78.55538940429688 169.63632202148438 79.01654052734375 177.47567749023438 82.24447631835938 190.84869384765625 96.53976440429688 204.68280029296875 122.82464599609376 209.75534057617188 149.57064819335938 209.294189453125 162.0213623046875 207.9107666015625 184.61712646484375 202.37713623046875 203.98492431640625 190.84869384765625 203.98492431640625 190.84869384765625 " />
        <polyline stroke="black" stroke-width="3" stroke-linecap="round" fill="transparent" stroke-linejoin="round" points="133.4307861328125 157.646728515625 149.10946655273438 163.18038940429688 155.5654296875 165.94720458984375 162.4825439453125 168.71405029296875 169.39959716796875 171.9420166015625 169.39959716796875 171.9420166015625 " />
        </svg>