<?xml version="1.0" standalone="no"?>
    <svg width="256" height="256" xmlns="http://www.w3.org/2000/svg" version="1.1">
    <polyline stroke="black" stroke-width="3" stroke-linecap="round" fill="transparent" stroke-linejoin="round" points="84.23040771484375 61.50177001953125 97.0556640625 57.040802001953125 110.99615478515624 52.02222442626953 123.82144165039063 47.003639221191406 134.97384643554688 44.215538024902344 141.665283203125 43.10029602050781 146.12625122070313 43.10029602050781 148.35675048828125 43.657920837402344 147.24151611328125 48.67650604248047 141.107666015625 59.82891845703125 129.95526123046875 78.23039245605469 119.3604736328125 96.63186645507813 119.3604736328125 96.63186645507813 " />
        <polyline stroke="black" stroke-width="3" stroke-linecap="round" fill="transparent" stroke-linejoin="round" points="92.03707885742188 118.93667602539063 101.5166015625 115.59095764160156 114.34188842773438 112.2452392578125 126.60955810546876 108.34188842773438 138.877197265625 105.55378723144533 145.56863403320313 103.88093566894533 149.47198486328125 103.88093566894533 151.14483642578125 103.88093566894533 148.91436767578125 108.89950561523438 140.550048828125 121.72477722167967 129.95526123046875 139.01101684570313 121.0333251953125 156.29725646972656 116.0147705078125 170.23776245117188 114.89950561523438 180.83255004882813 119.3604736328125 189.7544860839844 128.84002685546875 196.4459228515625 148.91436767578125 200.34927368164065 162.8548583984375 198.67642211914065 170.66156005859375 195.8883056640625 177.91064453125 191.9849548339844 183.48681640625 186.96636962890625 185.71728515625 180.27493286132813 185.71728515625 169.12252807617188 181.81396484375 159.64297485351563 168.98870849609375 139.01101684570313 168.98870849609375 139.01101684570313 " />
        </svg>