<?xml version="1.0" standalone="no"?>
    <svg width="256" height="256" xmlns="http://www.w3.org/2000/svg" version="1.1">
    <polyline stroke="black" stroke-width="3" stroke-linecap="round" fill="transparent" stroke-linejoin="round" points="98.94390869140624 42.02565002441406 108.66156005859376 42.997093200683594 127.68417358398438 46.811065673828125 134.12362670898438 48.61265563964844 144.98406982421875 51.814422607421875 147.9661865234375 52.540794372558594 152.4281005859375 52.90535736083984 154.34698486328125 52.72654724121094 154.60302734375 52.58299255371094 154.765625 52.491844177246094 154.5108642578125 53.33489990234375 152.7979736328125 62.38780212402344 145.37591552734375 78.94769287109375 140.37591552734375 87.10821533203125 135.18548583984375 95.02816772460938 134.55499267578125 95.36032104492188 " />
        <polyline stroke="black" stroke-width="3" stroke-linecap="round" fill="transparent" stroke-linejoin="round" points="89.399658203125 106.71487426757813 96.30502319335938 107.2227020263672 111.449462890625 108.5555419921875 118.61376953125 109.62962341308594 129.35418701171875 111.86502075195313 138.40597534179688 112.837646484375 140.959716796875 113.12152099609376 142.74359130859375 113.270751953125 143.53070068359375 113.10057067871094 143.62936401367188 113.07925415039063 143.4329833984375 113.72222900390624 142.79782104492188 115.677001953125 136.4036865234375 126.45835876464844 130.08187866210938 134.26461791992188 113.8304443359375 151.69970703125 104.66375732421876 161.68350219726563 89.3258056640625 177.79550170898438 82.92071533203125 184.8612060546875 74.203369140625 197.10189819335935 70.51812744140625 204.8671875 69.80694580078125 208.07748413085935 71.32296752929688 213.293701171875 72.88720703125 214.3793029785156 76.449951171875 217.2129821777344 78.62753295898438 218.785400390625 87.46566772460938 223.4535217285156 102.446533203125 229.41079711914065 109.64251708984376 231.31576538085935 121.9420166015625 233.78292846679688 127.20916748046876 233.61361694335935 141.06573486328125 231.93276977539065 146.87789916992188 230.34771728515625 155.5042724609375 226.38162231445313 159.2994384765625 225.24932861328125 166.0997314453125 223.39593505859375 167.78143310546875 223.09860229492188 168.7025146484375 222.45556640625 169.14971923828125 221.74371337890625 169.59735107421875 219.06524658203125 169.93701171875 197.73052978515625 167.47320556640625 182.6560516357422 166.5853271484375 180.68748474121097 " />
        </svg>