<?xml version="1.0" standalone="no"?>
    <svg width="256" height="256" xmlns="http://www.w3.org/2000/svg" version="1.1">
    <polyline stroke="black" stroke-width="3" stroke-linecap="round" fill="transparent" stroke-linejoin="round" points="84.57196044921875 66.51712036132813 96.95037841796876 59.00166320800781 109.77084350585938 51.48619842529297 124.35971069335938 44.85490417480469 136.73812866210938 40.43403625488281 142.04315185546875 39.10778045654297 153.9794921875 38.66570281982422 157.51617431640625 41.31822204589844 159.2845458984375 51.48619842529297 154.42156982421875 72.26425170898438 141.60107421875 93.92648315429688 133.64352416992188 104.53656005859376 117.28631591796876 123.98834228515624 117.28631591796876 123.98834228515624 " />
        <polyline stroke="black" stroke-width="3" stroke-linecap="round" fill="transparent" stroke-linejoin="round" points="85.45611572265625 131.06173706054688 100.487060546875 126.1987762451172 108.88665771484376 123.10418701171876 126.12802124023438 118.2412109375 134.0855712890625 116.03079223632813 148.23236083984375 112.93618774414063 158.8424072265625 111.1678466796875 164.1474609375 110.72575378417967 165.915771484375 111.60992431640624 164.1474609375 118.68331909179688 151.76904296875 138.5771942138672 134.96978759765625 162.89193725585938 121.70721435546876 183.66998291015625 115.07589721679688 196.93258666992188 113.30755615234376 206.65847778320313 116.84423828125 212.40560913085935 128.780517578125 217.2685546875 147.34814453125 219.47897338867188 165.915771484375 216.82647705078125 181.8309326171875 212.40560913085935 193.76727294921875 205.33221435546875 201.72479248046875 196.93258666992188 207.91400146484375 186.322509765625 210.5665283203125 174.38616943359375 208.7982177734375 159.79733276367188 200.3985595703125 142.55596923828125 200.3985595703125 142.55596923828125 " />
        </svg>