<?xml version="1.0" standalone="no"?>
    <svg width="256" height="256" xmlns="http://www.w3.org/2000/svg" version="1.1">
    <polyline stroke="black" stroke-width="3" stroke-linecap="round" fill="transparent" stroke-linejoin="round" points="101.83090209960938 63.21165466308594 105.9385986328125 60.81550598144531 110.04632568359376 58.419342041015625 125.45016479492188 51.230865478515625 136.746337890625 47.465484619140625 145.64633178710938 45.753936767578125 152.150146484375 45.06932830810547 157.2847900390625 45.41163635253906 158.31170654296875 46.78086853027344 158.654052734375 50.20394134521485 149.41171264648438 77.58859252929688 135.3770751953125 98.46937561035156 127.84628295898438 108.0540008544922 127.84628295898438 108.0540008544922 " />
        <polyline stroke="black" stroke-width="3" stroke-linecap="round" fill="transparent" stroke-linejoin="round" points="90.53475952148438 130.30401611328125 101.48861694335938 126.5386199951172 112.44247436523438 122.43093872070313 123.39633178710938 118.32322692871094 128.18865966796875 116.6116943359375 135.71942138671875 114.21554565429688 140.51171875 113.18862915039063 143.25018310546875 112.84629821777344 143.59246826171875 113.87322998046876 138.45785522460938 126.5386199951172 126.47705078125 148.10403442382813 119.63092041015624 159.4001922607422 128.53094482421875 206.29638671875 158.996337890625 201.16177368164065 173.373291015625 195.68487548828125 179.53485107421875 192.9463806152344 191.85791015625 184.73098754882813 196.6502685546875 178.22714233398438 198.70404052734375 173.77713012695313 190.1463623046875 123.11553955078124 190.1463623046875 123.11553955078124 " />
        </svg>