<?xml version="1.0" standalone="no"?>
    <svg width="256" height="256" xmlns="http://www.w3.org/2000/svg" version="1.1">
    <polyline stroke="black" stroke-width="3" stroke-linecap="round" fill="transparent" stroke-linejoin="round" points="100.044921875 73.25717163085938 108.444580078125 67.51005554199219 127.8963623046875 56.01580810546875 136.73812866210938 51.594940185546875 154.8636474609375 44.52156829833984 168.126220703125 41.426963806152344 180.504638671875 43.19530487060547 184.0413818359375 49.38451385498047 183.5992431640625 66.18379211425781 172.547119140625 89.17228698730469 153.537353515625 113.48704528808594 143.369384765625 123.65501403808594 143.369384765625 123.65501403808594 " />
        <polyline stroke="black" stroke-width="3" stroke-linecap="round" fill="transparent" stroke-linejoin="round" points="85.45611572265625 140.8963623046875 100.92913818359376 134.26507568359375 138.94857788085938 123.21292114257813 154.42156982421875 120.56040954589844 163.2633056640625 119.23416137695313 166.79998779296875 118.79208374023438 166.35791015625 121.88665771484376 157.51617431640625 136.03343200683594 141.158935546875 157.2535858154297 126.57012939453124 177.58953857421875 119.49676513671876 191.29421997070313 118.612548828125 199.69384765625 124.35971069335938 204.55679321289065 143.81149291992188 206.76724243164065 156.18988037109375 204.9989013671875 194.2093505859375 191.29421997070313 210.5665283203125 180.6841278076172 219.850341796875 170.95823669433594 224.7132568359375 160.34817504882813 222.060791015625 146.64352416992188 222.060791015625 146.64352416992188 " />
        </svg>