<?xml version="1.0" standalone="no"?>
    <svg width="256" height="256" xmlns="http://www.w3.org/2000/svg" version="1.1">
    <polyline stroke="black" stroke-width="3" stroke-linecap="round" fill="transparent" stroke-linejoin="round" points="89.65030938861639 66.59788072020962 93.15728600522029 66.59788072020962 100.80887135053774 65.96024860809982 111.9674333124592 63.40972015966065 124.72007555465508 59.265111430947 136.1974535726314 55.75813481434312 144.80548708611354 52.88879030984904 152.45707243143113 50.33826186140987 157.5581293283094 48.106549469025595 161.7027380570231 47.787733412970695 161.7027380570231 47.787733412970695 " />
        <polyline stroke="black" stroke-width="3" stroke-linecap="round" fill="transparent" stroke-linejoin="round" points="126.63297189098444 63.728536215715565 120.57546682594136 70.1048573368135 118.662570489612 74.88709817763694 116.74967415328264 80.94460324267999 110.05453697612973 97.20422210147976 103.35939979897694 112.5073927921148 98.25834290209856 124.303586866146 95.3889983976045 129.72345981907924 95.07018234154964 130.04227587513415 95.70781445365948 130.04227587513415 100.80887135053774 128.44819559485967 109.09808880796504 125.2600350343107 118.98138654566684 121.11542630559704 128.5458682273138 117.92726574504806 136.8350856847411 114.7391051844991 144.4866710300587 112.8262088481697 147.99364764666257 112.5073927921148 147.99364764666257 112.5073927921148 " />
        <polyline stroke="black" stroke-width="3" stroke-linecap="round" fill="transparent" stroke-linejoin="round" points="143.530222861894 100.7111987180836 143.530222861894 103.89935927863256 145.76193525427823 108.04396800734624 149.90654398299193 114.7391051844991 155.32641693592518 123.02832264192642 160.42747383280357 131.63635615540863 163.93445044940734 138.01267727650657 164.89089861757213 140.88202178100065 164.89089861757213 140.88202178100065 " />
        <polyline stroke="black" stroke-width="3" stroke-linecap="round" fill="transparent" stroke-linejoin="round" points="92.51965389311044 166.0684902093375 98.25834290209856 167.662570489612 109.41690486402 167.02493837750222 116.74967415328264 165.4308580972277 124.4012594986001 163.51796176089834 138.11034990896076 159.69216908823958 150.54417609510176 156.1851924716357 160.42747383280357 153.31584796714165 168.71669129023087 150.44650346264757 174.45538029921897 148.2147910702633 174.45538029921897 148.2147910702633 " />
        <polyline stroke="black" stroke-width="3" stroke-linecap="round" fill="transparent" stroke-linejoin="round" points="134.2845572363019 124.9412189782558 133.96574118024705 130.04227587513415 134.9221893484117 137.69386122045168 136.51626962868625 147.5771589581535 137.7915338529058 158.41690486401998 138.4291659650156 169.5754668259414 138.4291659650156 179.4587645636432 138.4291659650156 187.11034990896076 138.4291659650156 193.16785497400377 138.4291659650156 193.16785497400377 " />
        <polyline stroke="black" stroke-width="3" stroke-linecap="round" fill="transparent" stroke-linejoin="round" points="88.05622910834188 198.58772792693705 90.92557361283592 200.5006242632664 98.25834290209856 200.5006242632664 110.69216908823957 199.5441760951017 125.03889161070992 196.67483159060765 140.02324624529012 192.8490389179489 155.32641693592518 189.34206230134495 169.67313945839555 188.3856141331803 182.74459775664627 188.3856141331803 192.94671155040305 188.3856141331803 199.00421661544613 188.7044301892352 199.00421661544613 188.7044301892352 " />
        </svg>