<?xml version="1.0" standalone="no"?>
    <svg width="256" height="256" xmlns="http://www.w3.org/2000/svg" version="1.1">
    <polyline stroke="black" stroke-width="3" stroke-linecap="round" fill="transparent" stroke-linejoin="round" points="106.62322998046875 45.75396728515625 101.48861694335938 56.023193359375 96.35400390625 66.29241943359375 89.85009765625 79.30014038085938 77.18475341796875 104.28860473632813 71.365478515625 114.900146484375 61.780853271484375 134.06939697265625 55.27703857421875 148.10403442382813 52.880859375 153.58096313476563 52.880859375 153.58096313476563 " />
        <polyline stroke="black" stroke-width="3" stroke-linecap="round" fill="transparent" stroke-linejoin="round" points="97.38098144531247 105.31550598144527 104.56939697265624 101.20782470703124 111.7578125 97.1001434326172 135.3770751953125 87.85781860351563 151.807861328125 84.77705383300781 169.60791015625 86.14628601074219 179.53485107421875 91.28091430664063 187.40789794921875 111.134765625 187.40789794921875 142.9694061279297 184.3271484375 159.4001922607422 175.0848388671875 188.49636840820313 163.10400390625 216.90792846679688 157.62713623046875 225.80792236328125 152.8348388671875 229.5733642578125 145.30404663085938 229.5733642578125 135.3770751953125 218.61947631835935 135.3770751953125 218.61947631835935 " />
        <polyline stroke="black" stroke-width="3" stroke-linecap="round" fill="transparent" stroke-linejoin="round" points="111.75781249999999 110.45016479492188 101.83090209960938 134.41171264648438 91.90399169921876 158.37326049804688 85.40011596679688 173.09251403808594 83.00399780273438 179.25405883789063 83.00399780273438 179.25405883789063 " />
        <polyline stroke="black" stroke-width="3" stroke-linecap="round" fill="transparent" stroke-linejoin="round" points="137.773193359375 121.746337890625 131.26937866210938 133.38479614257813 124.76556396484376 145.02325439453125 116.8924560546875 159.74249267578125 110.04632568359376 172.75021362304688 98.06552124023438 196.36944580078125 91.90399169921876 208.0079345703125 91.90399169921876 208.0079345703125 " />
        </svg>