<?xml version="1.0" standalone="no"?>
    <svg width="256" height="256" xmlns="http://www.w3.org/2000/svg" version="1.1">
    <polyline stroke="black" stroke-width="3" stroke-linecap="round" fill="transparent" stroke-linejoin="round" points="68.01568603515625 106.44367980957033 72.41757202148438 115.20404052734376 76.8194580078125 123.9644012451172 83.080322265625 137.72747802734375 84.2911376953125 142.22984313964844 84.3123779296875 142.3087158203125 " />
        <polyline stroke="black" stroke-width="3" stroke-linecap="round" fill="transparent" stroke-linejoin="round" points="97.85003662109375 79.08917236328125 108.64096069335938 76.04386901855469 119.431884765625 72.99856567382813 147.48114013671875 67.89352416992188 163.656005859375 65.80136108398438 190.4866943359375 64.26394653320313 197.9166259765625 64.2205810546875 206.6004638671875 65.67648315429688 206.1826171875 70.50897216796875 206.5654296875 77.99630737304688 205.31048583984375 106.08706665039063 201.5084228515625 120.76341247558594 191.0323486328125 141.14901733398438 185.35833740234375 146.973876953125 175.4761962890625 150.7985076904297 167.58099365234375 148.42929077148438 167.2208251953125 146.39669799804688 " />
        <polyline stroke="black" stroke-width="3" stroke-linecap="round" fill="transparent" stroke-linejoin="round" points="119.75628662109371 44.05574035644531 122.34332275390624 60.16520690917969 124.93035888671876 76.27467346191406 130.53842163085938 116.91087341308594 132.97128295898438 150.4742431640625 132.33920288085938 162.69761657714844 126.9580078125 171.59727478027344 125.31173706054688 169.28074645996094 " />
        <polyline stroke="black" stroke-width="3" stroke-linecap="round" fill="transparent" stroke-linejoin="round" points="81.56170654296875 196.5954284667969 84.94927978515625 204.24859619140625 88.33685302734375 211.9017639160156 94.02398681640624 228.35177612304688 93.60418701171876 230.2244873046875 93.56658935546876 230.39212036132813 " />
        <polyline stroke="black" stroke-width="3" stroke-linecap="round" fill="transparent" stroke-linejoin="round" points="110.52166748046875 164.88885498046875 120.67196655273438 160.42483520507813 130.822265625 155.9608154296875 142.64422607421875 153.06292724609375 165.06072998046875 153.22837829589844 173.3321533203125 155.02877807617188 179.45654296875 160.22482299804688 179.466552734375 162.07424926757813 178.11004638671875 169.5452117919922 175.8505859375 175.20166015625 165.93817138671875 192.97018432617188 147.03985595703125 215.715576171875 145.51229858398438 216.520263671875 " />
        <polyline stroke="black" stroke-width="3" stroke-linecap="round" fill="transparent" stroke-linejoin="round" points="46.456359863281236 225.7886962890625 75.818603515625 221.6966552734375 105.18084716796876 217.6046142578125 119.39593505859376 215.68719482421875 147.24365234375 212.9801025390625 164.431640625 212.5426025390625 190.148681640625 212.3411865234375 209.6085205078125 212.18069458007813 214.7822265625 212.40765380859375 220.0489501953125 212.73391723632813 222.8653564453125 212.801513671875 223.0494384765625 212.80596923828125 223.10797119140625 212.807373046875 " />
        </svg>