<?xml version="1.0" standalone="no"?>
    <svg width="256" height="256" xmlns="http://www.w3.org/2000/svg" version="1.1">
    <polyline stroke="black" stroke-width="3" stroke-linecap="round" fill="transparent" stroke-linejoin="round" points="60.604644775390625 98.75498962402344 63.4053955078125 107.48960876464844 66.20614624023438 116.22422790527344 69.71820068359375 130.1802215576172 70.597900390625 136.009033203125 70.69183349609375 136.54669189453125 70.703857421875 136.61553955078125 70.70516967773438 136.62290954589844 " />
        <polyline stroke="black" stroke-width="3" stroke-linecap="round" fill="transparent" stroke-linejoin="round" points="71.15957641601563 95.55836486816403 86.55615234375 91.71343994140624 101.95272827148438 87.86851501464844 118.60986328125 85.72349548339844 134.90716552734375 83.56765747070313 139.45953369140625 83.2076416015625 159.015380859375 82.81396484375 165.5123291015625 83.62568664550781 166.0654296875 87.23374938964844 165.24609375 89.69960021972656 168.0411376953125 101.48907470703124 169.7193603515625 109.84286499023438 170.36767578125 122.52635192871094 168.5845947265625 128.1607666015625 167.33831787109375 128.31802368164063 165.7818603515625 128.346435546875 164.55950927734375 127.96798706054688 139.08203125 124.11515808105467 120.35275268554688 119.80003356933594 111.13916015625 116.59390258789063 " />
        <polyline stroke="black" stroke-width="3" stroke-linecap="round" fill="transparent" stroke-linejoin="round" points="99.6768798828125 61.94789123535156 101.032470703125 71.20579528808594 102.3880615234375 80.46369934082031 105.58740234375 101.76953125 107.93719482421876 120.25070190429688 108.51611328125 126.79522705078124 109.46026611328124 133.28878784179688 109.5546875 133.9381561279297 " />
        <polyline stroke="black" stroke-width="3" stroke-linecap="round" fill="transparent" stroke-linejoin="round" points="66.27374267578125 181.1007080078125 68.72222900390625 186.89743041992188 71.17071533203125 192.69415283203125 75.03890991210938 203.67257690429688 76.18087768554688 208.73782348632813 75.2489013671875 215.5711669921875 75.1448974609375 215.74346923828125 " />
        <polyline stroke="black" stroke-width="3" stroke-linecap="round" fill="transparent" stroke-linejoin="round" points="83.80877685546876 166.0364227294922 97.97894287109376 164.6150360107422 112.14910888671876 163.1936492919922 131.71209716796875 161.38986206054688 141.06683349609375 161.29937744140625 146.319580078125 161.5225067138672 165.0255126953125 163.8286590576172 167.0010986328125 165.16123962402344 167.2188720703125 167.9119873046875 168.13232421875 170.946044921875 169.0152587890625 173.80308532714844 169.31488037109375 182.1373291015625 168.4031982421875 186.35934448242188 163.14886474609375 196.739990234375 159.64691162109375 202.80035400390625 158.8509521484375 203.35153198242188 " />
        <polyline stroke="black" stroke-width="3" stroke-linecap="round" fill="transparent" stroke-linejoin="round" points="23.060333251953125 237.3961181640625 39.7034912109375 234.49920654296875 56.346649169921875 231.602294921875 67.07968139648438 230.55300903320313 75.72763061523438 229.75637817382813 90.3363037109375 228.31561279296875 120.51300048828124 225.41680908203125 136.26751708984375 224.20587158203125 145.80624389648438 224.1968688964844 171.71490478515625 225.3314208984375 184.8507080078125 226.223876953125 185.8572998046875 226.245849609375 192.8370361328125 224.47674560546875 197.3271484375 223.04507446289065 199.24169921875 221.7723388671875 199.42242431640625 221.6522521972656 " />
        </svg>