<?xml version="1.0" standalone="no"?>
    <svg width="256" height="256" xmlns="http://www.w3.org/2000/svg" version="1.1">
    <polyline stroke="black" stroke-width="3" stroke-linecap="round" fill="transparent" stroke-linejoin="round" points="97.22235107421876 69.78001403808594 96.0675048828125 88.83518981933594 94.91262817382813 105.00323486328124 93.75775146484376 110.20010375976563 92.6029052734375 113.08724975585938 91.44805908203124 114.24211120605467 90.87060546875 111.35494995117188 92.02548217773438 99.80636596679688 94.335205078125 92.877197265625 98.377197265625 85.94804382324219 104.1514892578125 80.17375183105469 112.81292724609376 73.822021484375 127.82611083984376 66.89286804199219 140.52957153320313 62.850860595703125 155.542724609375 61.118560791015625 168.8236083984375 62.850860595703125 175.7528076171875 66.3154296875 180.37225341796875 72.66716003417969 183.8367919921875 89.41262817382813 182.68194580078125 105.58065795898438 176.90765380859375 120.0164031982422 171.13336181640625 129.25527954101563 164.2042236328125 135.02957153320313 150.34588623046875 138.49415588378906 141.10699462890625 135.6070098876953 131.86813354492188 125.21327209472656 131.86813354492188 125.21327209472656 " />
        <polyline stroke="black" stroke-width="3" stroke-linecap="round" fill="transparent" stroke-linejoin="round" points="130.13583374023438 33.9793701171875 130.13583374023438 48.99253845214844 129.55841064453125 64.00572204589844 129.55841064453125 88.25776672363281 130.13583374023438 109.62266540527344 130.7132568359375 127.5229949951172 129.55841064453125 141.3813018798828 127.82611083984376 151.77503967285156 124.36154174804688 156.97190856933594 119.1646728515625 159.8590545654297 113.390380859375 159.8590545654297 105.30636596679688 158.12677001953125 98.95465087890624 158.12677001953125 93.18032836914063 159.8590545654297 89.71575927734375 165.05592346191406 87.40603637695313 171.98507690429688 85.67376708984375 181.8013916015625 85.67376708984375 188.7305603027344 85.67376708984375 192.7725524902344 85.67376708984375 195.082275390625 85.67376708984375 193.92742919921875 87.98345947265625 189.88540649414065 92.02548217773438 183.53369140625 102.99664306640624 172.56251525878906 122.05181884765624 159.8590545654297 141.6844482421875 152.92990112304688 162.471923828125 150.62017822265625 176.90765380859375 151.77503967285156 184.41424560546875 153.50732421875 190.18853759765625 155.81704711914063 193.07568359375 158.70419311523438 193.07568359375 163.32363891601563 187.3013916015625 170.25279235839844 163.04931640625 186.42083740234375 133.60040283203125 197.3919982910156 108.19351196289063 202.01144409179688 108.19351196289063 202.01144409179688 " />
        <polyline stroke="black" stroke-width="3" stroke-linecap="round" fill="transparent" stroke-linejoin="round" points="54.4925537109375 211.25030517578125 69.5057373046875 207.20831298828125 98.377197265625 202.5888671875 122.05181884765624 200.27914428710935 151.500732421875 197.96942138671875 174.0205078125 196.8145751953125 192.498291015625 195.082275390625 208.0888671875 192.7725524902344 217.9051513671875 191.04025268554688 223.10205078125 190.46282958984375 225.4117431640625 190.46282958984375 223.679443359375 191.61770629882813 223.679443359375 191.61770629882813 " />
        </svg>