<?xml version="1.0" standalone="no"?>
    <svg width="256" height="256" xmlns="http://www.w3.org/2000/svg" version="1.1">
    <polyline stroke="black" stroke-width="3" stroke-linecap="round" fill="transparent" stroke-linejoin="round" points="55.4473876953125 96.2181396484375 73.10885620117188 88.40077209472656 89.32266235351563 83.18919372558594 101.48300170898438 79.42527770996094 109.01083374023438 77.10903930664063 109.01083374023438 77.10903930664063 " />
        <polyline stroke="black" stroke-width="3" stroke-linecap="round" fill="transparent" stroke-linejoin="round" points="75.13558959960938 93.03329467773438 71.66119384765625 113.87960815429688 68.765869140625 135.88404846191406 65.001953125 153.5454864501953 60.948486328125 168.3116455078125 56.605499267578125 181.9196319580078 52.55206298828125 192.3427734375 48.209075927734375 201.6078186035156 48.209075927734375 201.6078186035156 " />
        <polyline stroke="black" stroke-width="3" stroke-linecap="round" fill="transparent" stroke-linejoin="round" points="90.77032470703124 115.90632629394533 102.06207275390624 124.0132293701172 112.77474975585938 132.9887237548828 121.17117309570313 139.06887817382813 128.11996459960938 142.25375366210938 128.11996459960938 142.25375366210938 " />
        <polyline stroke="black" stroke-width="3" stroke-linecap="round" fill="transparent" stroke-linejoin="round" points="138.8326416015625 91.87516784667967 139.70123291015625 95.0600128173828 139.70123291015625 95.0600128173828 " />
        <polyline stroke="black" stroke-width="3" stroke-linecap="round" fill="transparent" stroke-linejoin="round" points="161.1265869140625 55.39412689208984 170.10211181640625 53.65692138671875 175.024169921875 53.367401123046875 179.94622802734375 53.65692138671875 183.9996337890625 55.104591369628906 186.0263671875 57.999908447265625 186.89495849609375 64.36961364746094 185.73687744140625 73.34510803222656 183.42059326171875 85.50546264648438 180.2357177734375 98.244873046875 177.62994384765625 111.56333923339844 177.62994384765625 111.56333923339844 " />
        <polyline stroke="black" stroke-width="3" stroke-linecap="round" fill="transparent" stroke-linejoin="round" points="112.48519897460938 137.0421600341797 112.48519897460938 148.62347412109375 112.48519897460938 158.75704956054688 113.06427001953124 165.1267852783203 113.35379028320313 170.048828125 113.35379028320313 171.2069549560547 113.35379028320313 171.2069549560547 " />
        <polyline stroke="black" stroke-width="3" stroke-linecap="round" fill="transparent" stroke-linejoin="round" points="133.04202270507813 108.9575653076172 147.51861572265625 104.61457824707033 157.9417724609375 102.0087890625 167.78582763671875 100.85066223144533 175.024169921875 100.2716064453125 180.5252685546875 100.85066223144533 184.86822509765625 102.87738037109376 187.47406005859375 106.64129638671876 188.3426513671875 113.59007263183594 187.47406005859375 122.8551025390625 184.28912353515625 135.0154571533203 180.5252685546875 148.91299438476563 176.7613525390625 162.52098083496094 172.99737548828125 175.26040649414063 172.4183349609375 178.15573120117188 172.4183349609375 178.15573120117188 " />
        <polyline stroke="black" stroke-width="3" stroke-linecap="round" fill="transparent" stroke-linejoin="round" points="100.9039306640625 177.28713989257813 136.51638793945313 177.86618041992188 172.4183349609375 180.4719696044922 203.68780517578125 183.07777404785156 224.82366943359375 183.65684509277344 224.82366943359375 183.65684509277344 " />
        </svg>