<?xml version="1.0" standalone="no"?>
    <svg width="256" height="256" xmlns="http://www.w3.org/2000/svg" version="1.1">
    <polyline stroke="black" stroke-width="3" stroke-linecap="round" fill="transparent" stroke-linejoin="round" points="50.231414794921875 102.21127319335938 61.16357421875 98.93936157226563 84.44580078125 93.80453491210938 93.19183349609376 92.67259216308594 98.733154296875 91.87289428710938 102.14324951171876 91.56631469726563 102.26107788085938 91.5430145263672 " />
        <polyline stroke="black" stroke-width="3" stroke-linecap="round" fill="transparent" stroke-linejoin="round" points="61.394866943359375 109.58804321289063 59.469818115234375 132.07078552246094 52.00396728515625 177.9467010498047 46.8604736328125 198.27523803710935 35.77197265625 227.1683349609375 32.5565185546875 229.38818359375 29.622039794921875 229.24786376953125 30.467864990234375 224.907958984375 " />
        <polyline stroke="black" stroke-width="3" stroke-linecap="round" fill="transparent" stroke-linejoin="round" points="93.89837646484376 166.83592224121094 98.27047729492188 172.0958709716797 101.45709228515624 176.1261444091797 101.4849853515625 176.28941345214844 " />
        <polyline stroke="black" stroke-width="3" stroke-linecap="round" fill="transparent" stroke-linejoin="round" points="127.15560913085938 55.62237548828125 128.95037841796875 68.06536865234375 130.85482788085938 81.84906005859375 134.87139892578125 108.03573608398438 135.09066772460938 119.09928894042967 135.0966796875 120.10440063476563 " />
        <polyline stroke="black" stroke-width="3" stroke-linecap="round" fill="transparent" stroke-linejoin="round" points="163.3460693359375 48.87835693359375 173.0819091796875 48.83928680419922 182.4888916015625 49.502838134765625 189.76483154296875 50.38623046875 197.19677734375 52.701683044433594 198.450927734375 54.94758605957031 198.58587646484375 56.639678955078125 200.87213134765625 66.2452392578125 201.8402099609375 73.60369873046875 199.486328125 91.35513305664063 196.8367919921875 103.45358276367188 196.050537109375 104.30252075195313 " />
        <polyline stroke="black" stroke-width="3" stroke-linecap="round" fill="transparent" stroke-linejoin="round" points="123.6015625 167.36175537109375 127.12127685546876 177.7236328125 129.81634521484375 187.707275390625 132.16012573242188 202.02960205078125 130.23983764648438 208.16830444335935 129.62738037109375 208.67059326171875 " />
        <polyline stroke="black" stroke-width="3" stroke-linecap="round" fill="transparent" stroke-linejoin="round" points="144.85516357421875 142.30709838867188 154.3056640625 140.2284393310547 164.65435791015625 138.8349609375 175.33673095703125 138.19845581054688 193.046142578125 137.562255859375 197.56976318359375 137.29562377929688 203.349365234375 136.95217895507813 205.46649169921875 137.771484375 206.4970703125 139.222412109375 209.66204833984375 146.12571716308594 213.017822265625 155.5929412841797 216.57421875 176.9769744873047 216.41680908203125 184.952880859375 213.6845703125 202.52423095703125 211.09716796875 211.318359375 207.97802734375 218.27093505859375 207.41143798828125 217.27651977539065 " />
        <polyline stroke="black" stroke-width="3" stroke-linecap="round" fill="transparent" stroke-linejoin="round" points="131.8564453125 216.99966430664065 152.0535888671875 215.5882873535156 164.8006591796875 215.5491943359375 184.64971923828125 217.35543823242188 194.91064453125 218.81088256835935 209.4625244140625 222.343994140625 213.16064453125 224.28173828125 217.8798828125 228.00103759765625 228.44189453125 231.51046752929688 228.7618408203125 231.70343017578125 " />
        </svg>