<?xml version="1.0" standalone="no"?>
    <svg width="256" height="256" xmlns="http://www.w3.org/2000/svg" version="1.1">
    <polyline stroke="black" stroke-width="3" stroke-linecap="round" fill="transparent" stroke-linejoin="round" points="69.48065185546875 95.30632019042967 75.75091552734375 93.32624816894533 100.17184448242188 85.075927734375 103.14193725585938 83.75588989257813 105.78207397460938 82.1058349609375 105.78207397460938 82.1058349609375 " />
        <polyline stroke="black" stroke-width="3" stroke-linecap="round" fill="transparent" stroke-linejoin="round" points="78.06100463867188 70.88539123535156 75.4208984375 78.47569274902344 62.88043212890625 129.6276092529297 60.900360107421875 139.52796936035156 57.93023681640625 166.9189910888672 55.290130615234375 184.7396545410156 53.9700927734375 191.33990478515625 53.640106201171875 192.3299560546875 53.640106201171875 192.3299560546875 53.640106201171875 192.3299560546875 " />
        <polyline stroke="black" stroke-width="3" stroke-linecap="round" fill="transparent" stroke-linejoin="round" points="91.26150512695313 133.2577362060547 112.38229370117188 153.3885040283203 114.6923828125 155.3685760498047 118.32254028320313 157.01864624023438 118.32254028320313 157.01864624023438 118.32254028320313 157.01864624023438 " />
        <polyline stroke="black" stroke-width="3" stroke-linecap="round" fill="transparent" stroke-linejoin="round" points="126.90283203125 91.67617797851563 127.5628662109375 94.64630126953124 129.8729248046875 105.20668029785156 129.8729248046875 106.19671630859376 129.54293823242188 107.51678466796876 129.54293823242188 107.51678466796876 129.54293823242188 107.51678466796876 " />
        <polyline stroke="black" stroke-width="3" stroke-linecap="round" fill="transparent" stroke-linejoin="round" points="137.13323974609375 76.82562255859375 140.10336303710938 74.51553344726563 156.27392578125 68.24530029296875 159.57403564453125 67.91529846191406 169.47442626953125 67.91529846191406 178.384765625 70.88539123535156 183.99493408203125 77.81565856933594 186.3050537109375 95.96633911132813 180.36480712890625 114.7770538330078 172.11456298828125 124.0173797607422 172.11456298828125 124.0173797607422 172.11456298828125 124.0173797607422 " />
        <polyline stroke="black" stroke-width="3" stroke-linecap="round" fill="transparent" stroke-linejoin="round" points="124.92279052734376 132.2677001953125 124.92279052734376 135.23782348632813 126.57281494140624 153.3885040283203 126.90283203125 157.3486328125 127.5628662109375 166.5889892578125 127.5628662109375 172.19920349121094 127.23284912109376 174.50930786132813 125.582763671875 171.5391845703125 125.25277709960938 162.29881286621094 129.8729248046875 151.40841674804688 140.76333618164063 140.18801879882813 152.643798828125 132.2677001953125 165.84429931640625 124.347412109375 178.384765625 121.70730590820313 186.63507080078125 122.03733825683594 193.2353515625 125.66746520996094 195.54541015625 132.2677001953125 190.59521484375 147.4482879638672 178.05474853515625 164.93893432617188 156.60400390625 178.79945373535156 136.47320556640625 186.38970947265625 136.47320556640625 186.38970947265625 136.47320556640625 186.38970947265625 " />
        <polyline stroke="black" stroke-width="3" stroke-linecap="round" fill="transparent" stroke-linejoin="round" points="115.68240356445313 183.7496337890625 120.63259887695313 182.4296112060547 150.66372680664063 174.50930786132813 158.2540283203125 172.85922241210938 182.34490966796875 169.2290802001953 202.14569091796875 169.88912963867188 214.026123046875 174.83929443359375 214.026123046875 174.83929443359375 214.026123046875 174.83929443359375 " />
        </svg>