<?xml version="1.0" standalone="no"?>
    <svg width="256" height="256" xmlns="http://www.w3.org/2000/svg" version="1.1">
    <polyline stroke="black" stroke-width="3" stroke-linecap="round" fill="transparent" stroke-linejoin="round" points="40 109 45 108 59 103 67 101 86 95 103 90 109 87 109 87 " />
        <polyline stroke="black" stroke-width="3" stroke-linecap="round" fill="transparent" stroke-linejoin="round" points="88 70 87 97 83 122 81 138 69 171 62 184 55 193 53 194 53 194 " />
        <polyline stroke="black" stroke-width="3" stroke-linecap="round" fill="transparent" stroke-linejoin="round" points="98 143 102 146 110 154 117 160 126 162 126 162 " />
        <polyline stroke="black" stroke-width="3" stroke-linecap="round" fill="transparent" stroke-linejoin="round" points="148 76 148 86 148 93 147 104 147 121 147 123 147 123 " />
        <polyline stroke="black" stroke-width="3" stroke-linecap="round" fill="transparent" stroke-linejoin="round" points="161 62 174 60 185 60 194 61 200 67 202 75 202 87 193 103 187 111 187 111 " />
        <polyline stroke="black" stroke-width="3" stroke-linecap="round" fill="transparent" stroke-linejoin="round" points="127 142 131 154 134 166 137 176 139 179 139 179 " />
        <polyline stroke="black" stroke-width="3" stroke-linecap="round" fill="transparent" stroke-linejoin="round" points="137 119 151 118 167 116 183 116 189 116 200 121 206 127 208 135 208 146 200 161 187 175 187 175 " />
        <polyline stroke="black" stroke-width="3" stroke-linecap="round" fill="transparent" stroke-linejoin="round" points="104 197 109 195 121 191 141 188 163 186 182 185 200 185 205 185 205 185 " />
        </svg>