<?xml version="1.0" standalone="no"?>
    <svg width="256" height="256" xmlns="http://www.w3.org/2000/svg" version="1.1">
    <polyline stroke="black" stroke-width="3" stroke-linecap="round" fill="transparent" stroke-linejoin="round" points="53.2359619140625 90.24566650390624 53.2359619140625 104.8345184326172 53.2359619140625 111.4658203125 53.2359619140625 116.77085876464844 53.67803955078125 124.28630065917967 53.67803955078125 126.49673461914063 53.67803955078125 127.822998046875 53.67803955078125 127.822998046875 " />
        <polyline stroke="black" stroke-width="3" stroke-linecap="round" fill="transparent" stroke-linejoin="round" points="60.751434326171875 85.38272094726563 89.487060546875 69.90969848632813 102.30755615234376 64.60466003417969 115.57012939453124 60.625885009765625 141.6531982421875 55.32084655761719 175.25177001953125 53.994590759277344 190.28271484375 57.531280517578125 199.5665283203125 61.9521484375 202.218994140625 64.16256713867188 205.31365966796875 69.0255126953125 204.87158203125 79.19351196289063 193.3773193359375 96.876953125 193.3773193359375 96.876953125 " />
        <polyline stroke="black" stroke-width="3" stroke-linecap="round" fill="transparent" stroke-linejoin="round" points="66.94064331054688 148.60105895996094 82.41366577148438 141.0855712890625 107.612548828125 130.03343200683594 132.369384765625 121.6337890625 144.747802734375 118.5391845703125 182.76727294921875 113.23416137695313 193.3773193359375 111.90788269042967 213.7132568359375 109.25537109375 217.69207763671875 107.92910766601563 217.69207763671875 107.92910766601563 " />
        <polyline stroke="black" stroke-width="3" stroke-linecap="round" fill="transparent" stroke-linejoin="round" points="90.81332397460938 79.19351196289063 86.39242553710938 94.22444152832033 84.62408447265625 106.60284423828124 82.855712890625 118.09710693359376 78.876953125 148.60105895996094 77.99276733398438 157.00070190429688 76.66650390625 169.37908935546875 75.7823486328125 176.01040649414063 74.898193359375 177.7787322998047 74.898193359375 177.7787322998047 " />
        <polyline stroke="black" stroke-width="3" stroke-linecap="round" fill="transparent" stroke-linejoin="round" points="78.876953125 130.03343200683594 93.90789794921876 111.4658203125 108.49676513671876 101.29782104492188 124.411865234375 93.7823486328125 140.32696533203125 89.36148071289063 153.1474609375 88.03523254394531 163.75750732421875 89.80357360839844 170.38885498046875 93.7823486328125 172.5992431640625 95.99278259277344 179.2305908203125 111.02371215820313 179.672607421875 118.09710693359376 174.8096923828125 142.41184997558594 168.6204833984375 151.69564819335938 168.6204833984375 151.69564819335938 " />
        <polyline stroke="black" stroke-width="3" stroke-linecap="round" fill="transparent" stroke-linejoin="round" points="117.33847045898438 111.4658203125 116.8963623046875 128.26507568359375 116.01220703125 137.10679626464844 114.68597412109376 145.50645446777344 111.14926147460938 160.53738403320313 105.40216064453124 175.56829833984375 105.40216064453124 175.56829833984375 " />
        <polyline stroke="black" stroke-width="3" stroke-linecap="round" fill="transparent" stroke-linejoin="round" points="77.99276733398438 183.9679412841797 104.07589721679688 173.35787963867188 115.57012939453124 169.82119750976563 127.94857788085938 166.72659301757813 139.00070190429688 164.5161590576172 157.56829833984375 163.18988037109375 169.94671630859375 164.07406616210938 169.94671630859375 164.07406616210938 " />
        </svg>