<?xml version="1.0" standalone="no"?>
    <svg width="256" height="256" xmlns="http://www.w3.org/2000/svg" version="1.1">
    <polyline stroke="black" stroke-width="3" stroke-linecap="round" fill="transparent" stroke-linejoin="round" points="97.78863525390624 44.13787841796875 92.8917236328125 58.21649169921875 84.3221435546875 74.74354553222656 75.7525634765625 90.04638671875 70.2435302734375 99.2280731201172 66.57086181640625 104.7371063232422 65.34661865234375 107.79766845703124 68.4072265625 104.7371063232422 74.5283203125 98.615966796875 86.15850830078125 85.76158142089844 99.625 72.29508972167969 116.15203857421876 60.66493225097656 130.8427734375 53.319580078125 143.6971435546875 50.871124267578125 154.10308837890625 52.09535217285156 161.44842529296875 57.6043701171875 171.8543701171875 72.29508972167969 179.81182861328125 99.84019470214844 179.19970703125 131.6700897216797 171.8543701171875 161.05152893066406 160.2242431640625 186.76028442382813 147.36981201171875 203.89947509765625 136.96389770507813 216.1417236328125 124.10952758789063 225.32342529296875 113.09149169921876 228.99612426757813 105.13400268554688 225.935546875 96.56442260742188 207.5721435546875 98.4007568359375 169.00900268554688 98.4007568359375 169.00900268554688 " />
        <polyline stroke="black" stroke-width="3" stroke-linecap="round" fill="transparent" stroke-linejoin="round" points="122.273193359375 98.615966796875 111.86724853515624 118.81570434570313 94.72808837890624 146.36080932617188 81.87371826171875 164.72421264648438 70.2435302734375 176.9664764404297 61.06182861328125 181.86338806152344 61.06182861328125 181.86338806152344 " />
        <polyline stroke="black" stroke-width="3" stroke-linecap="round" fill="transparent" stroke-linejoin="round" points="81.2615966796875 124.32472229003906 92.8917236328125 127.3852996826172 108.194580078125 134.11854553222656 125.94586181640624 142.68812561035156 144.92138671875 153.70616149902344 161.44842529296875 164.11209106445313 174.9149169921875 174.5180206298828 188.38140869140625 186.76028442382813 188.38140869140625 186.76028442382813 " />
        </svg>