<?xml version="1.0" standalone="no"?>
    <svg width="256" height="256" xmlns="http://www.w3.org/2000/svg" version="1.1">
    <polyline stroke="black" stroke-width="3" stroke-linecap="round" fill="transparent" stroke-linejoin="round" points="83 60 83 61 82 64 79 73 77 77 74 85 71 93 68 105 66 112 64 118 62 124 62 126 61 129 61 129 62 128 62 127 " />
        <polyline stroke="black" stroke-width="3" stroke-linecap="round" fill="transparent" stroke-linejoin="round" points="66 121 71 115 76 110 81 105 85 103 92 98 101 93 110 88 119 85 129 81 142 78 154 78 158 79 164 83 168 89 172 99 174 121 174 129 173 153 171 169 169 190 167 195 164 208 162 211 157 216 155 216 151 215 147 211 144 205 143 200 143 195 " />
        <polyline stroke="black" stroke-width="3" stroke-linecap="round" fill="transparent" stroke-linejoin="round" points="128 102 126 105 121 116 116 125 112 134 104 148 102 152 97 160 91 167 85 177 83 180 81 182 " />
        <polyline stroke="black" stroke-width="3" stroke-linecap="round" fill="transparent" stroke-linejoin="round" points="63 128 65 128 74 131 77 132 94 140 99 143 116 153 122 156 141 167 148 171 161 178 174 183 182 186 189 188 " />
        </svg>