<?xml version="1.0" standalone="no"?>
    <svg width="256" height="256" xmlns="http://www.w3.org/2000/svg" version="1.1">
    <polyline stroke="black" stroke-width="3" stroke-linecap="round" fill="transparent" stroke-linejoin="round" points="101 69 88 91 73 115 60 136 52 146 50 148 50 148 " />
        <polyline stroke="black" stroke-width="3" stroke-linecap="round" fill="transparent" stroke-linejoin="round" points="97 88 118 88 142 86 166 84 184 80 199 79 205 79 208 86 208 111 201 142 192 165 182 186 174 198 165 204 157 207 145 205 139 187 139 172 139 172 " />
        <polyline stroke="black" stroke-width="3" stroke-linecap="round" fill="transparent" stroke-linejoin="round" points="151 92 151 91 147 107 133 130 120 152 104 170 89 182 78 184 78 184 " />
        <polyline stroke="black" stroke-width="3" stroke-linecap="round" fill="transparent" stroke-linejoin="round" points="100 130 110 137 130 150 157 164 188 175 219 182 244 184 244 184 " />
        </svg>