<?xml version="1.0" standalone="no"?>
    <svg width="256" height="256" xmlns="http://www.w3.org/2000/svg" version="1.1">
    <polyline stroke="black" stroke-width="3" stroke-linecap="round" fill="transparent" stroke-linejoin="round" points="44.5355224609375 98.98602294921876 56.281494140625 90.44349670410156 70.1630859375 80.83316040039063 84.044677734375 71.75674438476563 96.85845947265624 64.81594848632813 105.93487548828124 58.942962646484375 110.74005126953124 55.20561218261719 110.74005126953124 55.20561218261719 " />
        <polyline stroke="black" stroke-width="3" stroke-linecap="round" fill="transparent" stroke-linejoin="round" points="80.84124755859375 80.83316040039063 76.03607177734375 93.64694213867188 62.15447998046875 138.49517822265625 55.21368408203125 160.3853759765625 48.806793212890625 179.0721435546875 44.001617431640625 189.21636962890625 41.865997314453125 194.02154541015625 42.933807373046875 194.02154541015625 48.27288818359375 187.08074951171875 57.883209228515625 170.5296173095703 66.95965576171875 157.1819305419922 76.56997680664063 145.96987915039063 85.11248779296875 139.56298828125 93.12109375 136.89344787597656 99.52801513671876 137.96127319335938 105.4010009765625 144.3681640625 110.20614624023438 168.9279022216797 103.79925537109376 194.02154541015625 96.85845947265624 206.30142211914065 90.9854736328125 210.03878784179688 86.1802978515625 208.970947265625 82.44296264648438 198.82672119140625 83.51077270507813 172.66525268554688 83.51077270507813 172.66525268554688 " />
        <polyline stroke="black" stroke-width="3" stroke-linecap="round" fill="transparent" stroke-linejoin="round" points="135.2998046875 46.129180908203125 137.4354248046875 57.34123229980469 140.10498046875 91.51132202148438 141.17279052734375 126.21530151367188 140.63885498046875 161.9871063232422 140.10498046875 186.012939453125 140.10498046875 202.0301513671875 140.10498046875 213.24221801757813 140.10498046875 217.51348876953125 140.10498046875 217.51348876953125 " />
        <polyline stroke="black" stroke-width="3" stroke-linecap="round" fill="transparent" stroke-linejoin="round" points="150.24920654296875 124.07966613769533 164.13079833984375 118.7406005859375 170.5377197265625 116.60496520996094 176.41064453125 116.07106018066406 181.749755859375 116.07106018066406 181.749755859375 116.07106018066406 " />
        <polyline stroke="black" stroke-width="3" stroke-linecap="round" fill="transparent" stroke-linejoin="round" points="149.71530151367188 165.1905517578125 161.99517822265625 164.65664672851563 171.07159423828125 163.5888214111328 179.0802001953125 162.52101135253906 189.75836181640625 158.249755859375 189.75836181640625 158.249755859375 " />
        <polyline stroke="black" stroke-width="3" stroke-linecap="round" fill="transparent" stroke-linejoin="round" points="194.02960205078125 52.53607177734375 192.42791748046875 73.89236450195313 190.826171875 108.0624542236328 189.75836181640625 139.02908325195313 189.2244873046875 169.99571228027344 188.1566162109375 198.29281616210935 187.62274169921875 215.9117431640625 187.08880615234375 229.25942993164065 187.08880615234375 240.47149658203125 187.08880615234375 240.47149658203125 " />
        </svg>