<?xml version="1.0" standalone="no"?>
    <svg width="256" height="256" xmlns="http://www.w3.org/2000/svg" version="1.1">
    <polyline stroke="black" stroke-width="3" stroke-linecap="round" fill="transparent" stroke-linejoin="round" points="121.226318359375 63.602813720703125 111.74993896484376 74.8419189453125 85.81137084960938 103.8423309326172 72.67977905273438 115.72772216796876 50.32244873046875 133.40765380859375 41.7559814453125 139.7839813232422 36.55072021484375 142.52731323242188 39.031219482421875 139.8153076171875 " />
        <polyline stroke="black" stroke-width="3" stroke-linecap="round" fill="transparent" stroke-linejoin="round" points="86.66903686523438 163.9247283935547 86.508544921875 182.73875427246097 83.57958984375 206.86395263671875 81.86199951171875 211.52447509765625 80.83099365234375 212.4864501953125 80.82308959960938 212.49383544921875 80.82000732421875 212.4967041015625 80.819580078125 212.49710083007813 84.520751953125 210.55999755859375 90.48056030273438 206.53289794921875 108.409423828125 189.8788146972656 115.66888427734376 182.68748474121097 125.376220703125 169.82061767578125 125.33538818359376 168.85586547851563 " />
        <polyline stroke="black" stroke-width="3" stroke-linecap="round" fill="transparent" stroke-linejoin="round" points="134.39828491210938 117.9373016357422 142.2047119140625 130.9586181640625 151.439208984375 147.5545654296875 168.3758544921875 180.9471435546875 176.25067138671875 195.313232421875 184.3267822265625 207.00973510742188 190.82025146484375 220.1614990234375 190.89886474609375 220.8001708984375 " />
        </svg>