<?xml version="1.0" standalone="no"?>
    <svg width="256" height="256" xmlns="http://www.w3.org/2000/svg" version="1.1">
    <polyline stroke="black" stroke-width="3" stroke-linecap="round" fill="transparent" stroke-linejoin="round" points="131.7786865234375 50.906982421875 118.95339965820313 63.73225402832031 95.5333251953125 87.15231323242188 74.9013671875 107.22665405273438 59.28802490234375 123.39764404296876 48.6932373046875 133.992431640625 43.11700439453125 140.12625122070313 43.11700439453125 140.12625122070313 " />
        <polyline stroke="black" stroke-width="3" stroke-linecap="round" fill="transparent" stroke-linejoin="round" points="82.15045166015625 116.14857482910156 81.59283447265625 132.31956481933594 81.59283447265625 161.3158416748047 83.82330322265625 179.15969848632813 86.05377197265625 194.2154541015625 88.84188842773438 202.57974243164065 92.7452392578125 207.04071044921875 102.22479248046876 204.25262451171875 118.95339965820313 193.1001892089844 132.3363037109375 181.39016723632813 144.04632568359375 169.68014526367188 158.54443359375 150.16342163085938 158.54443359375 150.16342163085938 " />
        <polyline stroke="black" stroke-width="3" stroke-linecap="round" fill="transparent" stroke-linejoin="round" points="150.18014526367188 122.28240966796876 155.19873046875 131.20433044433594 164.12066650390625 145.14483642578125 174.7154541015625 161.8734588623047 185.31024169921875 178.04444885253906 193.674560546875 193.1001892089844 199.250732421875 203.69497680664065 208.17266845703125 222.09646606445313 208.17266845703125 222.09646606445313 " />
        </svg>