<?xml version="1.0" standalone="no"?>
    <svg width="256" height="256" xmlns="http://www.w3.org/2000/svg" version="1.1">
    <polyline stroke="black" stroke-width="3" stroke-linecap="round" fill="transparent" stroke-linejoin="round" points="127.51312255859376 57.751251220703125 118.24581909179688 65.25332641601563 98.38739013671876 82.02267456054688 87.79623413085938 89.966064453125 58.22918701171875 112.03099060058594 42.78375244140625 123.0634765625 36.605560302734375 127.03515625 28.22088623046875 131.88943481445313 24.69049072265625 134.09593200683594 24.69049072265625 134.09593200683594 " />
        <polyline stroke="black" stroke-width="3" stroke-linecap="round" fill="transparent" stroke-linejoin="round" points="83.82452392578125 118.65048217773438 76.76373291015625 135.41983032226563 73.23333740234375 145.5697021484375 68.3790283203125 168.075927734375 67.05514526367188 177.78448486328125 66.17254638671875 196.31903076171875 68.3790283203125 208.234130859375 71.909423828125 214.41229248046875 76.76373291015625 216.177490234375 85.58969116210938 212.6470947265625 97.0634765625 201.17333984375 111.62631225585938 180.4322967529297 122.21749877929688 161.01513671875 129.71957397460938 145.5697021484375 133.69125366210938 134.09593200683594 135.45648193359375 126.59385681152344 135.89776611328125 121.73956298828124 135.89776611328125 118.65048217773438 135.01513671875 117.32658386230467 134.132568359375 116.88528442382813 133.69125366210938 117.76788330078124 134.5738525390625 123.946044921875 138.104248046875 134.97854614257813 145.1650390625 149.10008239746094 154.43231201171875 164.98684692382813 160.169189453125 172.9302215576172 177.37982177734375 196.7603454589844 187.08837890625 209.99929809570313 187.08837890625 209.99929809570313 " />
        </svg>