<?xml version="1.0" standalone="no"?>
    <svg width="256" height="256" xmlns="http://www.w3.org/2000/svg" version="1.1">
    <polyline stroke="black" stroke-width="3" stroke-linecap="round" fill="transparent" stroke-linejoin="round" points="61.531494140625 75.10440063476563 64.37606811523438 79.16806030273438 67.22064208984375 83.23171997070313 74.53521728515625 89.32722473144531 81.84979248046875 90.95266723632813 81.84979248046875 90.95266723632813 " />
        <polyline stroke="black" stroke-width="3" stroke-linecap="round" fill="transparent" stroke-linejoin="round" points="180.1903076171875 30.810546875 155.808349609375 55.19248962402344 131.4263916015625 79.57443237304688 87.53890991210938 116.5537109375 68.8460693359375 130.37014770507813 59.906005859375 135.24655151367188 57.87420654296875 136.05926513671875 59.09332275390625 132.80833435058594 70.47152709960938 125.08738708496094 89.57073974609375 115.33462524414063 109.88900756835938 108.4263916015625 131.4263916015625 104.36273193359376 153.3701171875 99.89273071289063 164.7484130859375 95.42269897460938 164.7484130859375 95.42269897460938 " />
        <polyline stroke="black" stroke-width="3" stroke-linecap="round" fill="transparent" stroke-linejoin="round" points="117.60992431640625 29.18508911132811 101.35531616210938 70.63438415527344 85.1007080078125 112.08367919921876 71.69064331054688 144.5929412841797 63.969696044921875 160.8475799560547 61.1251220703125 165.72396850585938 58.28057861328125 169.3812713623047 59.49969482421875 166.94305419921875 64.37606811523438 160.4412078857422 72.09701538085938 153.1266326904297 78.59884643554688 149.06297302246094 106.23175048828124 139.716552734375 115.9844970703125 138.49746704101563 135.49008178710938 138.49746704101563 163.9356689453125 138.49746704101563 163.9356689453125 138.49746704101563 " />
        <polyline stroke="black" stroke-width="3" stroke-linecap="round" fill="transparent" stroke-linejoin="round" points="64.3760986328125 186.44862365722656 74.12884521484375 183.19769287109375 83.881591796875 179.94676208496094 95.66622924804688 175.88311767578125 106.63812255859376 172.22581481933594 127.76913452148438 165.72396850585938 144.02377319335938 161.2539520263672 153.77655029296875 159.22210693359375 157.0274658203125 159.22210693359375 157.8402099609375 160.4412078857422 157.433837890625 164.50486755371094 154.5892333984375 173.85128784179688 151.33837890625 189.29318237304688 149.30648803710938 207.57965087890625 147.6810302734375 221.80242919921875 144.83648681640625 230.33612060546875 139.5537109375 234.80615234375 124.11181640625 237.65069580078125 124.11181640625 237.65069580078125 " />
        </svg>