<?xml version="1.0" standalone="no"?>
    <svg width="256" height="256" xmlns="http://www.w3.org/2000/svg" version="1.1">
    <polyline stroke="black" stroke-width="3" stroke-linecap="round" fill="transparent" stroke-linejoin="round" points="47.6124267578125 74.48965454101563 70.24880981445313 64.46498107910156 90.94488525390624 57.67405700683594 93.20855712890624 57.027313232421875 93.20855712890624 57.027313232421875 " />
        <polyline stroke="black" stroke-width="3" stroke-linecap="round" fill="transparent" stroke-linejoin="round" points="74.45272827148438 116.52864074707033 88.0345458984375 117.49876403808594 94.5020751953125 119.43902587890624 100.646240234375 123.64291381835938 108.0838623046875 133.99098205566406 110.3475341796875 150.15980529785156 103.8800048828125 173.11956787109375 96.44232177734376 190.58187866210935 88.0345458984375 200.6065673828125 79.62673950195313 202.8702392578125 75.09945678710938 197.37283325195313 75.09945678710938 197.37283325195313 " />
        <polyline stroke="black" stroke-width="3" stroke-linecap="round" fill="transparent" stroke-linejoin="round" points="65.07479858398438 108.76759338378906 62.164398193359375 140.1351318359375 57.637115478515625 169.56240844726563 52.7864990234375 190.58187866210935 48.58258056640625 203.84033203125 48.58258056640625 203.84033203125 " />
        <polyline stroke="black" stroke-width="3" stroke-linecap="round" fill="transparent" stroke-linejoin="round" points="60.870880126953125 172.7961883544922 60.870880126953125 172.7961883544922 " />
        <polyline stroke="black" stroke-width="3" stroke-linecap="round" fill="transparent" stroke-linejoin="round" points="127.80984497070313 98.41954040527344 138.8046875 103.59356689453124 138.8046875 103.59356689453124 " />
        <polyline stroke="black" stroke-width="3" stroke-linecap="round" fill="transparent" stroke-linejoin="round" points="184.4007568359375 78.37019348144531 162.73455810546875 106.5039520263672 144.94879150390625 123.64291381835938 144.94879150390625 123.64291381835938 " />
        <polyline stroke="black" stroke-width="3" stroke-linecap="round" fill="transparent" stroke-linejoin="round" points="135.24752807617188 119.43902587890624 163.7047119140625 112.32473754882813 192.161865234375 104.88706970214844 197.65924072265625 102.62344360351563 197.65924072265625 102.62344360351563 " />
        <polyline stroke="black" stroke-width="3" stroke-linecap="round" fill="transparent" stroke-linejoin="round" points="139.451416015625 83.2208251953125 130.39688110351563 127.5234375 122.95919799804688 175.38319396972656 116.49166870117188 211.27801513671875 114.22805786132813 219.0390625 114.22805786132813 219.0390625 " />
        <polyline stroke="black" stroke-width="3" stroke-linecap="round" fill="transparent" stroke-linejoin="round" points="170.1722412109375 165.3585205078125 189.25140380859375 189.61178588867188 210.917724609375 214.51177978515625 229.99688720703125 233.59100341796875 229.99688720703125 233.59100341796875 " />
        </svg>