<?xml version="1.0" standalone="no"?>
    <svg width="256" height="256" xmlns="http://www.w3.org/2000/svg" version="1.1">
    <polyline stroke="black" stroke-width="3" stroke-linecap="round" fill="transparent" stroke-linejoin="round" points="58.398193359375 82.70101928710938 71.86468505859375 74.13143920898438 87.77963256835938 66.78607177734375 102.4703369140625 61.27705383300781 113.4884033203125 58.21649169921875 118.38531494140624 56.99226379394531 118.38531494140624 55.768035888671875 114.10049438476563 55.768035888671875 102.4703369140625 61.88916015625 93.9007568359375 70.45875549316406 82.88272094726563 88.21003723144531 70.64044189453125 113.91880798339844 59.622406005859375 146.97291564941406 52.27703857421875 172.06956481933594 46.768035888671875 188.59661865234375 43.70745849609375 195.9419860839844 42.483245849609375 199.61468505859375 42.483245849609375 197.16622924804688 42.483245849609375 197.16622924804688 " />
        <polyline stroke="black" stroke-width="3" stroke-linecap="round" fill="transparent" stroke-linejoin="round" points="57.1739501953125 139.01544189453125 65.13143920898438 142.68812561035156 71.86468505859375 145.13658142089844 77.98580932617188 145.13658142089844 77.98580932617188 145.13658142089844 " />
        <polyline stroke="black" stroke-width="3" stroke-linecap="round" fill="transparent" stroke-linejoin="round" points="91.45230102539063 119.42782592773438 98.185546875 119.42782592773438 104.30670166015624 124.32472229003906 109.20361328125 139.01544189453125 107.9793701171875 167.78477478027344 103.08245849609376 183.69973754882813 95.73712158203124 191.65719604492188 89.00384521484375 192.88140869140625 84.71905517578125 187.98452758789065 84.71905517578125 187.98452758789065 " />
        <polyline stroke="black" stroke-width="3" stroke-linecap="round" fill="transparent" stroke-linejoin="round" points="125.1185302734375 95.55540466308594 131.23968505859375 102.28865051269533 137.972900390625 107.185546875 148.37884521484375 107.79766845703124 163.68170166015625 99.2280731201172 177.148193359375 84.537353515625 184.4935302734375 77.80410766601563 188.166259765625 75.35565185546875 184.4935302734375 80.86468505859375 169.80279541015625 96.77963256835938 150.2152099609375 115.75514221191406 136.74868774414063 127.99740600585938 130.6275634765625 134.73065185546875 127.5670166015625 140.2396697998047 130.01544189453125 143.912353515625 141.64559936523438 142.68812561035156 163.069580078125 131.6700897216797 178.9844970703125 116.9793701171875 178.9844970703125 116.9793701171875 " />
        <polyline stroke="black" stroke-width="3" stroke-linecap="round" fill="transparent" stroke-linejoin="round" points="162.45745849609375 66.78607177734375 152.66363525390625 106.5734405517578 146.54251098632813 131.05796813964844 140.42138671875 150.0334930419922 135.52447509765625 165.9484405517578 131.851806640625 178.19070434570313 130.6275634765625 184.31182861328125 132.46389770507813 184.31182861328125 136.74868774414063 178.19070434570313 141.64559936523438 172.6816864013672 148.37884521484375 169.62110900878906 161.23321533203125 169.62110900878906 176.53607177734375 175.13014221191406 192.4510498046875 183.69973754882813 202.24481201171875 191.04507446289065 211.426513671875 201.45101928710935 211.426513671875 201.45101928710935 " />
        </svg>