<?xml version="1.0" standalone="no"?>
    <svg width="256" height="256" xmlns="http://www.w3.org/2000/svg" version="1.1">
    <polyline stroke="black" stroke-width="3" stroke-linecap="round" fill="transparent" stroke-linejoin="round" points="64.84902954101563 65.72547912597656 85.50784301757813 54.535301208496094 102.14971923828124 48.222877502441406 105.01898193359376 47.362098693847656 105.01898193359376 47.362098693847656 " />
        <polyline stroke="black" stroke-width="3" stroke-linecap="round" fill="transparent" stroke-linejoin="round" points="84.93402099609375 129.4235382080078 100.71502685546876 134.58822631835938 107.601318359375 141.18759155273438 118.50460815429688 158.1163330078125 120.22616577148438 172.46275329589844 116.78302001953124 180.4967498779297 107.88824462890624 188.24380493164065 93.54183959960938 187.95687866210935 84.0732421875 176.19281005859375 84.0732421875 176.19281005859375 " />
        <polyline stroke="black" stroke-width="3" stroke-linecap="round" fill="transparent" stroke-linejoin="round" points="79.19540405273438 111.06013488769533 71.73529052734375 150.0823516845703 64.84902954101563 180.4967498779297 57.10198974609375 199.1470642089844 52.22418212890625 207.1810607910156 52.22418212890625 207.1810607910156 " />
        <polyline stroke="black" stroke-width="3" stroke-linecap="round" fill="transparent" stroke-linejoin="round" points="62.5535888671875 161.55947875976563 70.87454223632813 162.4202423095703 73.74380493164063 162.1333465576172 73.74380493164063 162.1333465576172 " />
        <polyline stroke="black" stroke-width="3" stroke-linecap="round" fill="transparent" stroke-linejoin="round" points="136.00723266601563 74.62026977539063 148.34512329101563 77.20262145996094 162.11761474609375 77.48954772949219 169.86474609375 74.90719604492188 169.86474609375 74.90719604492188 " />
        <polyline stroke="black" stroke-width="3" stroke-linecap="round" fill="transparent" stroke-linejoin="round" points="192.8189697265625 59.41307067871094 175.603271484375 80.645751953125 158.3875732421875 97.86143493652344 158.3875732421875 97.86143493652344 " />
        <polyline stroke="black" stroke-width="3" stroke-linecap="round" fill="transparent" stroke-linejoin="round" points="145.47579956054688 99.0091552734375 163.8392333984375 89.25360107421875 180.7679443359375 79.498046875 191.6712646484375 71.17713928222656 196.8359375 65.43856811523438 196.8359375 65.43856811523438 " />
        <polyline stroke="black" stroke-width="3" stroke-linecap="round" fill="transparent" stroke-linejoin="round" points="161.5438232421875 33.87648010253906 155.23138427734375 65.72547912597656 150.92745971679688 100.4438018798828 144.9019775390625 136.30982971191406 138.87649536132813 167.01113891601563 133.13790893554688 188.53073120117188 126.82553100585938 206.03335571289065 126.82553100585938 206.03335571289065 " />
        <polyline stroke="black" stroke-width="3" stroke-linecap="round" fill="transparent" stroke-linejoin="round" points="185.0718994140625 125.11961364746094 199.70526123046875 157.2555694580078 217.78167724609375 187.38299560546875 231.8411865234375 207.46798706054688 242.74444580078125 217.2235412597656 242.74444580078125 217.2235412597656 " />
        </svg>