<?xml version="1.0" standalone="no"?>
    <svg width="256" height="256" xmlns="http://www.w3.org/2000/svg" version="1.1">
    <polyline stroke="black" stroke-width="3" stroke-linecap="round" fill="transparent" stroke-linejoin="round" points="95.93341064453124 81.33334350585938 105.53338623046876 78.13334655761719 110.86669921875 77.06668090820313 116.2000732421875 77.06668090820313 118.3333740234375 80.26667785644531 118.3333740234375 80.26667785644531 " />
        <polyline stroke="black" stroke-width="3" stroke-linecap="round" fill="transparent" stroke-linejoin="round" points="103.4000244140625 113.33334350585938 110.86669921875 112.26667785644533 115.1334228515625 112.26667785644533 117.2667236328125 113.33334350585938 118.3333740234375 118.66667175292967 118.3333740234375 131.4666748046875 116.2000732421875 161.33334350585938 114.06671142578124 177.33334350585938 111.93341064453124 185.86666870117188 108.7333984375 192.2666931152344 106.60003662109376 193.33334350585935 97.00006103515624 176.26669311523438 97.00006103515624 176.26669311523438 " />
        <polyline stroke="black" stroke-width="3" stroke-linecap="round" fill="transparent" stroke-linejoin="round" points="90.60003662109376 121.86668395996094 87.4000244140625 146.40003967285156 82.06671142578125 165.6000213623047 75.66668701171875 181.60003662109375 71.4000244140625 185.86666870117188 71.4000244140625 185.86666870117188 " />
        <polyline stroke="black" stroke-width="3" stroke-linecap="round" fill="transparent" stroke-linejoin="round" points="95.93341064453124 163.4666748046875 101.2667236328125 163.4666748046875 101.2667236328125 163.4666748046875 " />
        <polyline stroke="black" stroke-width="3" stroke-linecap="round" fill="transparent" stroke-linejoin="round" points="141.8001708984375 93.06668090820313 145 96.26667785644533 149.2667236328125 95.20002746582033 149.2667236328125 95.20002746582033 " />
        <polyline stroke="black" stroke-width="3" stroke-linecap="round" fill="transparent" stroke-linejoin="round" points="187.666748046875 71.73333740234375 184.466796875 80.26667785644531 175.933349609375 93.06668090820313 175.933349609375 93.06668090820313 " />
        <polyline stroke="black" stroke-width="3" stroke-linecap="round" fill="transparent" stroke-linejoin="round" points="186.60009765625 98.40000915527344 201.533447265625 94.1333465576172 206.86669921875 93.06668090820313 211.1334228515625 93.06668090820313 213.2667236328125 93.06668090820313 211.1334228515625 93.06668090820313 211.1334228515625 93.06668090820313 " />
        <polyline stroke="black" stroke-width="3" stroke-linecap="round" fill="transparent" stroke-linejoin="round" points="168.466796875 67.4666748046875 168.466796875 100.53335571289063 164.2000732421875 134.6666717529297 154.60009765625 163.4666748046875 139.666748046875 195.4666748046875 132.2000732421875 206.13336181640625 127.93341064453124 209.33334350585935 127.93341064453124 209.33334350585935 " />
        <polyline stroke="black" stroke-width="3" stroke-linecap="round" fill="transparent" stroke-linejoin="round" points="180.2000732421875 133.6000213623047 200.4666748046875 153.86668395996094 221.800048828125 172.00001525878906 241 186.933349609375 258.0667724609375 198.66668701171875 269.800048828125 207.20001220703125 276.2000732421875 211.4666748046875 276.2000732421875 211.4666748046875 " />
        </svg>