<?xml version="1.0" standalone="no"?>
    <svg width="256" height="256" xmlns="http://www.w3.org/2000/svg" version="1.1">
    <polyline stroke="black" stroke-width="3" stroke-linecap="round" fill="transparent" stroke-linejoin="round" points="44.75 115.62785339355467 49.821044921875 129.15057373046875 53.20172119140625 143.09588623046875 55.31463623046875 154.92828369140625 55.73724365234375 161.68963623046875 55.31463623046875 163.80258178710938 54.469482421875 162.53482055664063 55.31463623046875 155.3508758544922 59.963104248046875 140.56039428710938 68.414794921875 122.8118133544922 76.86651611328125 108.02133178710938 81.09237670898438 102.5277099609375 92.92474365234376 90.69534301757813 100.953857421875 86.04689025878906 108.56039428710938 84.35655212402344 115.74432373046876 86.04689025878906 121.23797607421876 89.85015869140625 126.3089599609375 98.72445678710938 128.421875 121.96664428710938 123.35089111328124 146.89915466308594 117.0120849609375 159.9993133544922 111.51849365234376 166.33807373046875 106.02487182617188 168.45101928710938 106.02487182617188 168.45101928710938 " />
        <polyline stroke="black" stroke-width="3" stroke-linecap="round" fill="transparent" stroke-linejoin="round" points="92.07955932617188 50.972312927246094 91.656982421875 65.76278686523438 91.656982421875 74.6370849609375 91.656982421875 84.35655212402344 91.656982421875 138.02487182617188 92.50213623046876 168.87359619140625 92.92474365234376 187.46734619140625 93.7698974609375 197.60940551757813 94.61508178710938 201.41265869140625 95.03768920898438 201.41265869140625 95.03768920898438 201.41265869140625 " />
        <polyline stroke="black" stroke-width="3" stroke-linecap="round" fill="transparent" stroke-linejoin="round" points="140.67684936523438 95.34376525878906 151.6640625 91.96310424804688 157.15771484375 90.69534301757813 163.07391357421875 89.42756652832031 175.328857421875 87.31463623046875 193.07745361328125 85.62429809570313 201.9517822265625 83.9339599609375 208.713134765625 82.66619873046875 212.516357421875 81.39845275878906 213.78411865234375 80.97586059570313 214.20672607421875 80.13069152832031 214.20672607421875 80.13069152832031 " />
        <polyline stroke="black" stroke-width="3" stroke-linecap="round" fill="transparent" stroke-linejoin="round" points="163.9190673828125 106.75357055664063 160.1158447265625 122.38922119140624 158.8480224609375 129.15057373046875 158.00286865234375 135.91195678710938 156.3125 147.74432373046875 155.4674072265625 157.88638305664063 155.0447998046875 161.68963623046875 155.0447998046875 166.33807373046875 155.0447998046875 168.02842712402344 155.4674072265625 168.45101928710938 155.4674072265625 168.45101928710938 " />
        <polyline stroke="black" stroke-width="3" stroke-linecap="round" fill="transparent" stroke-linejoin="round" points="206.6002197265625 113.09234619140624 202.37432861328125 125.34732055664063 199.41619873046875 132.95384216308594 191.8096923828125 148.1669158935547 178.2869873046875 168.02842712402344 170.680419921875 175.63494873046875 166.87713623046875 179.01565551757813 155.0447998046875 185.77700805664065 148.70599365234375 188.31253051757813 144.9027099609375 189.58026123046875 143.63494873046875 189.58026123046875 143.63494873046875 189.15768432617188 158.8480224609375 183.66409301757813 177.4417724609375 179.01565551757813 192.6549072265625 176.9027099609375 199.41619873046875 176.48013305664063 217.164794921875 177.32530212402344 234.0682373046875 182.39633178710935 234.0682373046875 182.39633178710935 " />
        </svg>