<?xml version="1.0" standalone="no"?>
    <svg width="256" height="256" xmlns="http://www.w3.org/2000/svg" version="1.1">
    <polyline stroke="black" stroke-width="3" stroke-linecap="round" fill="transparent" stroke-linejoin="round" points="51.949310302734375 89.85661315917969 53.923187255859375 103.27886962890624 55.107513427734375 115.51681518554688 54.317962646484375 140.7822265625 51.159759521484375 158.94175720214844 49.1859130859375 167.62673950195313 48.0015869140625 169.6005859375 47.6068115234375 169.20584106445313 48.3963623046875 164.4685516357422 51.949310302734375 151.83584594726563 57.87091064453125 135.6501922607422 66.555908203125 119.46452331542967 75.24090576171875 108.41091918945313 85.89974975585938 100.12069702148438 97.34814453125 93.80433654785156 107.21746826171876 91.43569946289063 116.29721069335938 92.22525024414063 122.613525390625 94.9886474609375 127.74560546875 103.27886962890624 128.92990112304688 123.01748657226563 126.561279296875 133.28155517578125 115.11288452148438 153.41494750976563 108.00701904296876 158.94175720214844 104.45404052734376 160.52084350585938 104.45404052734376 160.52084350585938 " />
        <polyline stroke="black" stroke-width="3" stroke-linecap="round" fill="transparent" stroke-linejoin="round" points="95.76904296875 39.32576751708984 98.13766479492188 60.248687744140625 98.532470703125 75.25003051757813 97.74288940429688 92.22525024414063 94.18994140625 128.93905639648438 89.05792236328125 165.2581024169922 85.50497436523438 190.5235290527344 83.53109741210938 205.52487182617188 83.53109741210938 212.23602294921875 83.53109741210938 212.23602294921875 " />
        <polyline stroke="black" stroke-width="3" stroke-linecap="round" fill="transparent" stroke-linejoin="round" points="131.29852294921875 114.72726440429688 142.74691772460938 111.56907653808594 148.66851806640625 110.384765625 155.379638671875 109.200439453125 163.66986083984375 108.01614379882813 187.7509765625 105.6475067138672 201.5679931640625 103.27886962890624 214.20068359375 100.91024780273438 214.20068359375 100.91024780273438 " />
        <polyline stroke="black" stroke-width="3" stroke-linecap="round" fill="transparent" stroke-linejoin="round" points="154.98486328125 116.30633544921876 152.6162109375 131.30770874023438 151.431884765625 139.99267578125 149.45806884765625 158.15220642089844 147.87899780273438 180.2594451904297 147.87899780273438 188.5496826171875 147.87899780273438 190.91830444335935 148.27377319335938 192.49737548828125 148.66851806640625 192.49737548828125 148.66851806640625 192.49737548828125 " />
        <polyline stroke="black" stroke-width="3" stroke-linecap="round" fill="transparent" stroke-linejoin="round" points="207.0948486328125 115.91159057617188 198.40985107421875 140.7822265625 192.48822021484375 151.83584594726563 185.777099609375 161.31039428710938 172.3548583984375 175.91696166992188 164.45941162109375 182.2333068847656 149.85284423828125 190.91830444335935 144.72079467773438 193.28692626953125 138.00970458984375 195.26080322265625 135.24627685546875 195.65557861328125 134.85150146484375 194.86602783203125 150.64239501953125 188.9444580078125 171.9600830078125 184.6019287109375 182.22412109375 183.0228576660156 201.1732177734375 182.2333068847656 217.35888671875 183.41763305664065 224.85955810546875 185.7862548828125 224.85955810546875 185.7862548828125 " />
        </svg>