<?xml version="1.0" standalone="no"?>
    <svg width="256" height="256" xmlns="http://www.w3.org/2000/svg" version="1.1">
    <polyline stroke="black" stroke-width="3" stroke-linecap="round" fill="transparent" stroke-linejoin="round" points="58.60003662109375 130.40003967285156 54.3333740234375 153.86668395996094 57.53338623046875 156.00001525878906 57.53338623046875 156.00001525878906 " />
        <polyline stroke="black" stroke-width="3" stroke-linecap="round" fill="transparent" stroke-linejoin="round" points="52.2000732421875 117.60000610351563 77.80010986328125 102.66667175292967 89.53338623046875 97.33334350585938 97.00006103515624 93.06668090820313 102.3333740234375 90.933349609375 104.466796875 90.933349609375 104.466796875 100.53335571289063 104.466796875 119.73338317871094 103.4000244140625 140.00001525878906 102.3333740234375 150.6666717529297 101.2667236328125 154.93336486816406 99.1334228515625 154.93336486816406 95.93341064453124 148.53334045410156 86.3333740234375 121.86668395996094 86.3333740234375 121.86668395996094 " />
        <polyline stroke="black" stroke-width="3" stroke-linecap="round" fill="transparent" stroke-linejoin="round" points="70.3333740234375 63.20002746582031 70.3333740234375 90.933349609375 74.60003662109375 125.06671142578124 77.80010986328125 157.06671142578125 81.00006103515625 180.53335571289065 83.1334228515625 195.4666748046875 83.1334228515625 196.53335571289065 83.1334228515625 196.53335571289065 " />
        <polyline stroke="black" stroke-width="3" stroke-linecap="round" fill="transparent" stroke-linejoin="round" points="125.80010986328124 100.53335571289063 150.3333740234375 92.00001525878906 178.0667724609375 83.4666748046875 185.533447265625 83.4666748046875 185.533447265625 83.4666748046875 " />
        <polyline stroke="black" stroke-width="3" stroke-linecap="round" fill="transparent" stroke-linejoin="round" points="142.86669921875 106.933349609375 151.4000244140625 127.20001220703124 154.60009765625 129.33334350585938 159.933349609375 129.33334350585938 168.466796875 126.1333465576172 168.466796875 126.1333465576172 " />
        <polyline stroke="black" stroke-width="3" stroke-linecap="round" fill="transparent" stroke-linejoin="round" points="179.1334228515625 98.40000915527344 169.533447265625 116.53335571289063 162.0667724609375 134.6666717529297 156.7333984375 146.40003967285156 152.466796875 153.86668395996094 147.1334228515625 161.33334350585938 147.1334228515625 161.33334350585938 " />
        <polyline stroke="black" stroke-width="3" stroke-linecap="round" fill="transparent" stroke-linejoin="round" points="114.06671142578124 176.26669311523438 140.7333984375 173.06671142578125 156.7333984375 170.93336486816406 188.7333984375 165.6000213623047 211.1334228515625 162.40003967285156 225 161.33334350585938 231.4000244140625 162.40003967285156 231.4000244140625 162.40003967285156 " />
        </svg>