<?xml version="1.0" standalone="no"?>
    <svg width="256" height="256" xmlns="http://www.w3.org/2000/svg" version="1.1">
    <polyline stroke="black" stroke-width="3" stroke-linecap="round" fill="transparent" stroke-linejoin="round" points="64.132080078125 53.24527740478515 68.660400390625 84.03775024414063 50.54718017578125 164.64149475097656 38.77362060546875 209.92449951171875 36.056640625 219.8868103027344 36.056640625 219.8868103027344 " />
        <polyline stroke="black" stroke-width="3" stroke-linecap="round" fill="transparent" stroke-linejoin="round" points="85.86785888671875 77.69810485839844 110.32073974609376 60.490570068359375 152.88677978515625 36.03773498535156 180.056640625 19.735855102539063 192.73583984375 19.735855102539063 193.64154052734375 24.26415252685547 192.73583984375 46 187.3018798828125 72.26416015625 181.86785888671875 105.77359008789063 179.15087890625 138.37734985351563 181.86785888671875 164.64149475097656 189.11322021484375 183.66036987304688 199.07550048828125 195.4339599609375 219.90570068359375 202.67926025390625 235.3018798828125 200.867919921875 256.132080078125 190 263.37738037109375 180.03775024414063 263.37738037109375 168.26416015625 263.37738037109375 168.26416015625 " />
        <polyline stroke="black" stroke-width="3" stroke-linecap="round" fill="transparent" stroke-linejoin="round" points="129.33966064453125 75.88681030273438 132.9622802734375 103.0565948486328 111.2264404296875 136.5660400390625 107.603759765625 142 103.98114013671876 152.86790466308594 106.6981201171875 160.11322021484375 113.94342041015624 165.54718017578125 123.90570068359376 169.16983032226563 132.056640625 177.32077026367188 129.33966064453125 189.0943603515625 119.37738037109376 206.3018798828125 94.018798828125 236.18869018554688 94.018798828125 236.18869018554688 " />
        </svg>