<?xml version="1.0" standalone="no"?>
    <svg width="256" height="256" xmlns="http://www.w3.org/2000/svg" version="1.1">
    <polyline stroke="black" stroke-width="3" stroke-linecap="round" fill="transparent" stroke-linejoin="round" points="96.61578369140624 50.698280334472656 90.78857421875 65.65652465820313 84.23297119140625 84.25679016113281 80.40887451171875 93.54393005371094 73.9052734375 107.9038543701172 72.39645385742188 112.7945556640625 70.41937255859375 118.56974792480467 70.02914428710938 120.0785675048828 69.8470458984375 120.65087890625 69.8470458984375 120.65087890625 " />
        <polyline stroke="black" stroke-width="3" stroke-linecap="round" fill="transparent" stroke-linejoin="round" points="103.79574584960938 67.84173583984375 119.66452026367188 60.55772399902344 134.85690307617188 55.224761962890625 144.71636962890625 52.571327209472656 152.3385009765625 50.82835388183594 157.38531494140625 49.839805603027344 163.49871826171875 50.15196990966797 166.230224609375 51.114501953125 167.01068115234375 52.36319732666016 167.01068115234375 52.36319732666016 " />
        <polyline stroke="black" stroke-width="3" stroke-linecap="round" fill="transparent" stroke-linejoin="round" points="121.6156005859375 75.5419921875 123.87884521484376 89.74583435058594 125.85592651367188 105.27639770507813 127.13064575195313 122.02963256835938 128.97763061523438 136.31155395507813 129.78411865234375 149.31869506835938 130.48651123046875 161.23329162597656 130.72064208984375 166.01991271972656 130.53854370117188 169.5579071044922 130.1483154296875 171.58700561523438 128.4573974609375 173.1478729248047 121.6416015625 172.9397430419922 109.9871826171875 168.51730346679688 95.88739013671876 160.6089324951172 86.21005249023438 149.99508666992188 86.21005249023438 149.99508666992188 " />
        </svg>