<?xml version="1.0" standalone="no"?>
    <svg width="256" height="256" xmlns="http://www.w3.org/2000/svg" version="1.1">
    <polyline stroke="black" stroke-width="3" stroke-linecap="round" fill="transparent" stroke-linejoin="round" points="60 69 60 70 60 72 60 76 60 80 60 88 61 93 62 99 63 103 63 106 63 108 63 110 64 111 64 111 " />
        <polyline stroke="black" stroke-width="3" stroke-linecap="round" fill="transparent" stroke-linejoin="round" points="65 85 67 82 72 77 76 74 81 72 86 69 92 67 98 65 105 63 112 62 119 61 129 62 135 63 140 64 145 66 146 66 150 69 152 71 153 74 153 79 151 88 149 95 147 101 144 105 142 107 140 109 " />
        <polyline stroke="black" stroke-width="3" stroke-linecap="round" fill="transparent" stroke-linejoin="round" points="98 82 97 83 96 85 96 87 95 90 95 93 95 95 96 98 96 100 97 101 98 102 99 102 " />
        <polyline stroke="black" stroke-width="3" stroke-linecap="round" fill="transparent" stroke-linejoin="round" points="122 76 124 76 125 77 125 78 124 82 122 86 118 91 114 96 109 100 104 104 98 107 93 109 89 111 85 112 83 113 82 114 81 114 80 114 81 114 84 114 87 113 92 113 98 113 105 112 112 111 120 111 127 110 135 110 138 110 141 110 " />
        <polyline stroke="black" stroke-width="3" stroke-linecap="round" fill="transparent" stroke-linejoin="round" points="90 123 89 125 86 130 83 135 80 142 77 151 74 161 71 170 67 182 64 188 63 193 61 196 60 199 59 200 59 200 59 201 " />
        <polyline stroke="black" stroke-width="3" stroke-linecap="round" fill="transparent" stroke-linejoin="round" points="67 173 71 172 72 172 76 173 79 175 83 178 85 179 90 183 94 186 97 189 99 190 101 190 " />
        <polyline stroke="black" stroke-width="3" stroke-linecap="round" fill="transparent" stroke-linejoin="round" points="127 139 126 140 124 143 122 147 120 151 118 156 117 162 114 169 113 174 111 178 110 181 110 183 " />
        <polyline stroke="black" stroke-width="3" stroke-linecap="round" fill="transparent" stroke-linejoin="round" points="118 160 121 160 124 161 128 163 132 166 137 170 142 175 148 181 154 189 158 193 " />
        </svg>