<?xml version="1.0" standalone="no"?>
    <svg width="256" height="256" xmlns="http://www.w3.org/2000/svg" version="1.1">
    <polyline stroke="black" stroke-width="3" stroke-linecap="round" fill="transparent" stroke-linejoin="round" points="67.27157592773438 78.24748229980469 86.9384765625 71.275634765625 108.0361328125 63.393280029296875 127.00054931640624 57.800201416015625 140.29391479492188 55.432891845703125 147.21371459960938 54.4443359375 154.44580078125 55.51094055175781 155.7984619140625 56.1092529296875 155.7984619140625 56.1092529296875 " />
        <polyline stroke="black" stroke-width="3" stroke-linecap="round" fill="transparent" stroke-linejoin="round" points="92.08932495117188 83.6324462890625 94.22250366210938 91.3066864013672 95.44515991210938 96.95182800292967 97.63037109375 102.31076049804688 99.03515625 104.1837921142578 99.03515625 104.1837921142578 " />
        <polyline stroke="black" stroke-width="3" stroke-linecap="round" fill="transparent" stroke-linejoin="round" points="130.9027099609375 76.34844970703125 126.42828369140624 88.0809326171875 123.82681274414063 95.468994140625 123.82681274414063 95.468994140625 " />
        <polyline stroke="black" stroke-width="3" stroke-linecap="round" fill="transparent" stroke-linejoin="round" points="63.369476318359375 117.42512512207033 71.30386352539063 114.51150512695313 91.2568359375 108.1379852294922 112.79672241210938 103.45539855957033 133.47817993164063 98.64274597167967 150.04928588867188 95.33892822265624 162.06793212890625 93.38786315917967 170.0283203125 92.1651611328125 173.85247802734375 91.6968994140625 175.6474609375 91.3327178955078 177.28631591796875 93.46588134765624 174.7369384765625 98.61672973632813 174.7369384765625 98.61672973632813 " />
        <polyline stroke="black" stroke-width="3" stroke-linecap="round" fill="transparent" stroke-linejoin="round" points="86.36614990234375 136.8578338623047 84.1029052734375 143.8817138671875 82.15182495117188 150.41131591796875 81.34536743164063 153.11679077148438 81.05923461914063 154.2354278564453 80.92916870117188 155.6141815185547 81.68356323242188 156.36859130859375 88.1351318359375 155.4060821533203 101.55853271484376 150.801513671875 114.92987060546876 146.06692504882813 128.35336303710938 142.6590576171875 139.48748779296875 140.13563537597656 146.95358276367188 138.7568817138672 151.14190673828125 137.9244384765625 155.5643310546875 137.482177734375 156.83905029296875 137.74232482910156 156.83905029296875 137.74232482910156 " />
        <polyline stroke="black" stroke-width="3" stroke-linecap="round" fill="transparent" stroke-linejoin="round" points="144.71636962890625 131.6809844970703 146.25115966796875 138.0284881591797 148.228271484375 143.51754760742188 148.77459716796875 145.52064514160156 148.878662109375 146.1709747314453 149.03472900390625 148.20008850097656 149.06072998046875 148.6163330078125 149.06072998046875 148.6163330078125 " />
        <polyline stroke="black" stroke-width="3" stroke-linecap="round" fill="transparent" stroke-linejoin="round" points="119.24832153320313 112.76853942871094 120.939208984375 121.50935363769533 122.60415649414063 131.5509033203125 122.94232177734376 142.4769287109375 122.578125 157.46121215820313 120.49700927734376 173.56410217285156 116.88095092773438 191.51397705078125 111.31393432617188 207.87701416015625 102.8592529296875 223.97994995117188 99.39935302734376 229.52099609375 99.39935302734376 229.52099609375 " />
        </svg>