<?xml version="1.0" standalone="no"?>
    <svg width="256" height="256" xmlns="http://www.w3.org/2000/svg" version="1.1">
    <polyline stroke="black" stroke-width="3" stroke-linecap="round" fill="transparent" stroke-linejoin="round" points="76.39312744140625 68.94682312011719 89.248046875 62.26226806640625 114.95794677734376 52.49251556396485 137.06842041015625 46.32215118408203 159.693115234375 42.20857238769531 173.06219482421875 40.665985107421875 180.260986328125 40.665985107421875 183.34619140625 41.694374084472656 183.34619140625 41.694374084472656 " />
        <polyline stroke="black" stroke-width="3" stroke-linecap="round" fill="transparent" stroke-linejoin="round" points="89.76226806640625 86.42953491210938 90.7906494140625 92.08570861816406 94.39004516601563 97.22767639160156 100.5604248046875 100.3128662109375 109.3017578125 100.82705688476563 121.64251708984376 95.17088317871094 121.64251708984376 95.17088317871094 " />
        <polyline stroke="black" stroke-width="3" stroke-linecap="round" fill="transparent" stroke-linejoin="round" points="150.95172119140625 71.517822265625 137.58261108398438 85.40113830566406 113.41534423828124 107.51162719726563 97.4752197265625 119.33816528320313 83.5919189453125 128.5937042236328 75.36474609375 132.19308471679688 71.765380859375 132.19308471679688 71.765380859375 130.1363067626953 79.99252319335938 126.02272033691406 105.702392578125 114.19618225097656 133.46902465820313 102.36964416503906 165.3492431640625 91.57150268554688 188.4881591796875 83.85855102539063 205.4566650390625 78.71658325195313 211.11279296875 77.17398071289063 211.11279296875 77.17398071289063 " />
        <polyline stroke="black" stroke-width="3" stroke-linecap="round" fill="transparent" stroke-linejoin="round" points="86.16290283203125 141.44863891601563 86.67706298828125 150.70419311523438 88.21966552734375 159.95974731445313 90.7906494140625 166.64430236816406 96.44683837890624 170.24368286132813 105.18817138671876 170.24368286132813 120.61410522460938 163.044921875 136.55419921875 149.67579650878906 151.4659423828125 137.33506774902344 161.7498779296875 129.62210083007813 168.4344482421875 126.02272033691406 173.06219482421875 125.50852966308594 177.17578125 127.5653076171875 180.260986328125 132.19308471679688 182.83197021484375 138.3634490966797 182.83197021484375 143.50543212890625 179.23260498046875 146.59060668945313 179.23260498046875 146.59060668945313 " />
        <polyline stroke="black" stroke-width="3" stroke-linecap="round" fill="transparent" stroke-linejoin="round" points="140.66778564453125 117.79556274414063 138.0968017578125 144.53382873535156 136.55419921875 167.67269897460938 134.4974365234375 186.18380737304688 130.89804077148438 200.58132934570313 124.7276611328125 216.52142333984375 124.7276611328125 216.52142333984375 " />
        </svg>