<?xml version="1.0" standalone="no"?>
    <svg width="256" height="256" xmlns="http://www.w3.org/2000/svg" version="1.1">
    <polyline stroke="black" stroke-width="3" stroke-linecap="round" fill="transparent" stroke-linejoin="round" points="91.3367919921875 96.03782653808594 118.78973388671876 84.27226257324219 125.97979736328124 81.00404357910156 139.05267333984375 75.12123107910156 150.16461181640625 71.19938659667969 158.6619873046875 68.58480834960938 163.23748779296875 67.27751159667969 163.23748779296875 69.89208984375 161.93017578125 73.16032409667969 161.93017578125 73.16032409667969 " />
        <polyline stroke="black" stroke-width="3" stroke-linecap="round" fill="transparent" stroke-linejoin="round" points="110.29241943359376 98.6523895263672 107.6778564453125 108.45704650878906 107.6778564453125 112.37890625 107.6778564453125 120.22264099121094 108.33148193359376 126.7590789794922 111.59967041015624 130.68092346191406 118.1361083984375 129.37364196777344 122.71160888671876 125.45176696777344 122.71160888671876 125.45176696777344 " />
        <polyline stroke="black" stroke-width="3" stroke-linecap="round" fill="transparent" stroke-linejoin="round" points="129.24798583984375 116.95443725585938 116.1751708984375 131.33456420898438 116.1751708984375 131.33456420898438 " />
        <polyline stroke="black" stroke-width="3" stroke-linecap="round" fill="transparent" stroke-linejoin="round" points="80.87841796875 150.94387817382813 82.18572998046875 145.7147216796875 84.14666748046875 144.4074249267578 95.258544921875 135.91006469726563 115.52154541015624 126.1054229736328 133.8236083984375 120.22264099121094 152.12554931640625 116.30076599121094 169.12030029296875 113.68620300292967 183.50042724609375 113.03254699707033 186.7686767578125 113.03254699707033 186.7686767578125 113.03254699707033 " />
        <polyline stroke="black" stroke-width="3" stroke-linecap="round" fill="transparent" stroke-linejoin="round" points="91.9903564453125 179.7041778564453 92.64398193359376 180.3578186035156 101.14141845703124 184.2796630859375 105.063232421875 184.2796630859375 112.2532958984375 182.3187713623047 129.24798583984375 171.20681762695313 147.550048828125 152.2511444091797 159.96923828125 140.48558044433594 166.5057373046875 135.91006469726563 173.04217529296875 135.2564239501953 174.34942626953125 140.48558044433594 173.04217529296875 149.6365966796875 170.42755126953125 158.78758239746094 169.12030029296875 162.05581665039063 169.12030029296875 162.05581665039063 " />
        <polyline stroke="black" stroke-width="3" stroke-linecap="round" fill="transparent" stroke-linejoin="round" points="140.3599853515625 154.2120819091797 139.706298828125 158.78758239746094 136.4381103515625 188.2015380859375 134.4771728515625 196.69891357421875 133.16986083984375 209.77178955078125 137.745361328125 228.0738220214844 137.745361328125 228.0738220214844 " />
        </svg>