<?xml version="1.0" standalone="no"?>
    <svg width="256" height="256" xmlns="http://www.w3.org/2000/svg" version="1.1">
    <polyline stroke="black" stroke-width="3" stroke-linecap="round" fill="transparent" stroke-linejoin="round" points="108 73.55555725097656 120.4444580078125 70.88888549804688 140.888916015625 68.22222900390625 156 67.33332824707031 157.77783203125 69.11111450195313 157.77783203125 69.11111450195313 " />
        <polyline stroke="black" stroke-width="3" stroke-linecap="round" fill="transparent" stroke-linejoin="round" points="123.11114501953124 102.88888549804688 123.11114501953124 102.88888549804688 " />
        <polyline stroke="black" stroke-width="3" stroke-linecap="round" fill="transparent" stroke-linejoin="round" points="127.5555419921875 91.33332824707033 120.4444580078125 98.44444274902344 100.00006103515624 118 100.00006103515624 118 " />
        <polyline stroke="black" stroke-width="3" stroke-linecap="round" fill="transparent" stroke-linejoin="round" points="98.22222900390624 126.00003051757813 112.4444580078125 122.44444274902344 140.00006103515625 117.11114501953124 164.888916015625 112.6667022705078 182.66668701171875 111.7777862548828 182.66668701171875 111.7777862548828 " />
        <polyline stroke="black" stroke-width="3" stroke-linecap="round" fill="transparent" stroke-linejoin="round" points="87.5555419921875 166.88888549804688 89.33331298828125 167.7777862548828 100.00006103515624 163.3333282470703 106.22222900390624 158.88888549804688 124 150 141.77777099609375 143.77780151367188 154.22222900390625 141.11111450195313 163.11114501953125 140.22222900390625 166.666748046875 140.22222900390625 167.5555419921875 142.00001525878906 167.5555419921875 144.6666717529297 164.888916015625 148.2222442626953 156.888916015625 151.7777862548828 156.888916015625 151.7777862548828 " />
        <polyline stroke="black" stroke-width="3" stroke-linecap="round" fill="transparent" stroke-linejoin="round" points="130.22222900390625 150.88890075683594 126.666748046875 173.11111450195313 121.33331298828124 194.4444580078125 115.11114501953124 212.22222900390625 107.11114501953124 225.5555725097656 107.11114501953124 225.5555725097656 " />
        </svg>