<?xml version="1.0" standalone="no"?>
    <svg width="256" height="256" xmlns="http://www.w3.org/2000/svg" version="1.1">
    <polyline stroke="black" stroke-width="3" stroke-linecap="round" fill="transparent" stroke-linejoin="round" points="95 73 99 73 110 70 122 66 131 64 137 63 138 63 141 62 142 62 142 62 " />
        <polyline stroke="black" stroke-width="3" stroke-linecap="round" fill="transparent" stroke-linejoin="round" points="106 77 105 79 107 85 108 90 108 91 109 93 112 98 112 98 " />
        <polyline stroke="black" stroke-width="3" stroke-linecap="round" fill="transparent" stroke-linejoin="round" points="130 77 129 79 128 81 123 92 117 99 114 102 114 102 " />
        <polyline stroke="black" stroke-width="3" stroke-linecap="round" fill="transparent" stroke-linejoin="round" points="64 125 71 122 83 118 100 113 115 110 120 109 142 106 159 103 169 102 172 102 171 103 166 106 165 107 165 107 " />
        <polyline stroke="black" stroke-width="3" stroke-linecap="round" fill="transparent" stroke-linejoin="round" points="105 125 104 125 104 126 104 127 105 133 105 141 103 148 102 154 102 157 103 157 106 155 112 151 119 148 126 146 131 145 135 145 136 144 136 144 " />
        <polyline stroke="black" stroke-width="3" stroke-linecap="round" fill="transparent" stroke-linejoin="round" points="144 122 145 125 146 129 146 135 145 141 143 144 142 146 142 146 " />
        <polyline stroke="black" stroke-width="3" stroke-linecap="round" fill="transparent" stroke-linejoin="round" points="127 114 128 118 128 124 128 127 129 138 127 151 122 165 115 177 109 187 106 190 106 190 " />
        </svg>