<?xml version="1.0" standalone="no"?>
    <svg width="256" height="256" xmlns="http://www.w3.org/2000/svg" version="1.1">
    <polyline stroke="black" stroke-width="3" stroke-linecap="round" fill="transparent" stroke-linejoin="round" points="89.004638671875 28.246788024902344 104.5267333984375 49.58965301513672 104.5267333984375 49.58965301513672 " />
        <polyline stroke="black" stroke-width="3" stroke-linecap="round" fill="transparent" stroke-linejoin="round" points="59.577362060546875 98.41954040527344 80.27346801757813 83.2208251953125 107.11376953125 68.34550476074219 139.77481079101563 52.500038146972656 172.11248779296875 37.62471008300781 197.3358154296875 24.042892456054688 197.3358154296875 24.042892456054688 " />
        <polyline stroke="black" stroke-width="3" stroke-linecap="round" fill="transparent" stroke-linejoin="round" points="165.64495849609375 12.07794952392578 140.42156982421875 36.00782775878906 117.13839721679688 67.3753662109375 100.646240234375 98.74290466308594 85.447509765625 128.4935760498047 75.09945678710938 147.89614868164063 66.69168090820313 160.50787353515625 66.69168090820313 160.50787353515625 " />
        <polyline stroke="black" stroke-width="3" stroke-linecap="round" fill="transparent" stroke-linejoin="round" points="77.68649291992188 116.20526123046876 95.1488037109375 111.677978515625 103.556640625 112.00135803222656 110.6708984375 113.29486083984376 116.81503295898438 115.55850219726563 121.34231567382813 118.14552307128906 124.25271606445313 120.40914916992188 125.22286987304688 121.70265197753906 126.51638793945313 122.02603149414063 131.36703491210938 118.46890258789063 137.51116943359375 110.3844757080078 142.6851806640625 101.0065460205078 143.97869873046875 93.89225769042967 143.65533447265625 88.71823120117188 143.33193969726563 85.807861328125 143.33193969726563 84.19096374511719 145.9189453125 81.92732238769531 152.386474609375 81.28056335449219 163.05792236328125 82.25070190429688 172.43585205078125 85.807861328125 182.78387451171875 90.98187255859376 192.161865234375 96.15589904785156 201.8631591796875 100.68318176269533 209.94757080078125 106.5039520263672 219.64886474609375 111.677978515625 223.2060546875 113.61824035644533 223.2060546875 113.61824035644533 " />
        <polyline stroke="black" stroke-width="3" stroke-linecap="round" fill="transparent" stroke-linejoin="round" points="67.66183471679688 183.1442413330078 102.90985107421876 163.41824340820313 142.6851806640625 149.18968200683594 186.01763916015625 139.16500854492188 219.9722900390625 135.28448486328125 239.37481689453125 134.9611053466797 250.6929931640625 134.31436157226563 250.6929931640625 134.31436157226563 " />
        <polyline stroke="black" stroke-width="3" stroke-linecap="round" fill="transparent" stroke-linejoin="round" points="135.5709228515625 119.11564636230467 130.72024536132813 140.45852661132813 129.75015258789063 154.0403289794922 129.75015258789063 165.681884765625 132.01376342773438 192.19876098632813 133.95404052734375 198.66632080078125 135.24752807617188 200.92996215820313 135.24752807617188 200.92996215820313 " />
        <polyline stroke="black" stroke-width="3" stroke-linecap="round" fill="transparent" stroke-linejoin="round" points="186.01763916015625 121.055908203125 190.2215576171875 139.81178283691406 193.455322265625 161.15463256835938 195.3956298828125 178.9403533935547 195.07220458984375 189.9351501464844 195.07220458984375 189.9351501464844 " />
        <polyline stroke="black" stroke-width="3" stroke-linecap="round" fill="transparent" stroke-linejoin="round" points="145.272216796875 196.72607421875 161.76446533203125 190.58187866210935 183.4306640625 184.1143493652344 203.48004150390625 179.9104766845703 209.30084228515625 178.61695861816406 209.30084228515625 178.61695861816406 " />
        </svg>