<?xml version="1.0" standalone="no"?>
    <svg width="256" height="256" xmlns="http://www.w3.org/2000/svg" version="1.1">
    <polyline stroke="black" stroke-width="3" stroke-linecap="round" fill="transparent" stroke-linejoin="round" points="103 45 96 57 96 66 96 75 98 83 98 83 " />
        <polyline stroke="black" stroke-width="3" stroke-linecap="round" fill="transparent" stroke-linejoin="round" points="156 38 151 48 141 62 123 83 102 109 80 132 63 150 50 158 50 158 " />
        <polyline stroke="black" stroke-width="3" stroke-linecap="round" fill="transparent" stroke-linejoin="round" points="82 95 94 92 104 92 124 91 149 88 172 85 185 83 190 83 190 83 " />
        <polyline stroke="black" stroke-width="3" stroke-linecap="round" fill="transparent" stroke-linejoin="round" points="108 112 97 134 96 144 96 150 96 152 96 153 99 153 110 150 127 141 142 132 142 132 " />
        <polyline stroke="black" stroke-width="3" stroke-linecap="round" fill="transparent" stroke-linejoin="round" points="149 116 159 123 170 128 182 134 193 142 193 142 " />
        <polyline stroke="black" stroke-width="3" stroke-linecap="round" fill="transparent" stroke-linejoin="round" points="86 166 89 179 90 187 92 196 93 206 93 216 94 224 96 230 97 234 99 236 100 238 101 238 102 238 106 238 117 235 129 232 142 231 155 231 168 231 178 231 184 231 185 231 185 231 " />
        <polyline stroke="black" stroke-width="3" stroke-linecap="round" fill="transparent" stroke-linejoin="round" points="168 159 166 171 166 186 164 204 160 220 159 226 159 226 " />
        <polyline stroke="black" stroke-width="3" stroke-linecap="round" fill="transparent" stroke-linejoin="round" points="44 210 51 204 61 202 81 198 114 197 147 195 176 195 201 195 219 197 219 197 " />
        </svg>