<?xml version="1.0" standalone="no"?>
    <svg width="256" height="256" xmlns="http://www.w3.org/2000/svg" version="1.1">
    <polyline stroke="black" stroke-width="3" stroke-linecap="round" fill="transparent" stroke-linejoin="round" points="73 140 91 129 105 124 116 120 122 118 124 119 121 123 121 123 " />
        <polyline stroke="black" stroke-width="3" stroke-linecap="round" fill="transparent" stroke-linejoin="round" points="96 170 112 166 115 165 116 165 116 169 116 174 116 178 114 182 112 184 110 184 109 182 107 177 104 163 103 157 103 157 " />
        <polyline stroke="black" stroke-width="3" stroke-linecap="round" fill="transparent" stroke-linejoin="round" points="101 130 96 153 93 169 89 186 86 202 85 212 85 217 85 217 " />
        <polyline stroke="black" stroke-width="3" stroke-linecap="round" fill="transparent" stroke-linejoin="round" points="136 126 146 122 151 121 161 119 170 117 176 116 179 116 176 116 175 116 175 116 " />
        <polyline stroke="black" stroke-width="3" stroke-linecap="round" fill="transparent" stroke-linejoin="round" points="147 128 146 140 146 151 145 165 144 179 143 192 143 203 144 205 145 204 145 204 " />
        <polyline stroke="black" stroke-width="3" stroke-linecap="round" fill="transparent" stroke-linejoin="round" points="161 127 162 140 162 144 162 155 164 169 166 175 169 178 175 180 181 180 190 179 195 178 198 177 200 177 202 176 203 173 203 170 203 166 203 163 200 158 199 156 199 156 " />
        </svg>