<?xml version="1.0" standalone="no"?>
    <svg width="256" height="256" xmlns="http://www.w3.org/2000/svg" version="1.1">
    <polyline stroke="black" stroke-width="3" stroke-linecap="round" fill="transparent" stroke-linejoin="round" points="76 75 75 75 74 75 73 75 73 76 73 77 74 77 77 77 78 77 89 77 102 75 108 73 116 70 119 68 121 67 121 67 121 67 " />
        <polyline stroke="black" stroke-width="3" stroke-linecap="round" fill="transparent" stroke-linejoin="round" points="94 78 93 79 92 80 92 81 92 83 90 93 85 122 81 136 72 158 63 173 60 180 53 187 51 190 51 190 " />
        <polyline stroke="black" stroke-width="3" stroke-linecap="round" fill="transparent" stroke-linejoin="round" points="89 129 90 129 91 129 91 129 92 129 94 128 101 128 107 127 120 125 126 125 128 125 132 125 135 125 136 127 138 134 138 149 135 158 129 169 122 179 117 184 110 191 105 196 103 197 101 199 100 200 99 200 98 200 97 199 96 197 94 196 93 195 93 194 93 194 " />
        <polyline stroke="black" stroke-width="3" stroke-linecap="round" fill="transparent" stroke-linejoin="round" points="146 105 147 105 148 105 149 105 151 105 153 105 169 101 186 97 194 97 201 95 206 94 207 94 209 94 209 93 209 93 " />
        <polyline stroke="black" stroke-width="3" stroke-linecap="round" fill="transparent" stroke-linejoin="round" points="171 105 171 105 171 105 171 107 171 110 171 117 169 129 163 155 157 173 149 187 146 192 142 196 140 198 139 198 139 198 " />
        <polyline stroke="black" stroke-width="3" stroke-linecap="round" fill="transparent" stroke-linejoin="round" points="187 101 188 101 189 101 189 104 189 106 189 124 188 139 188 144 187 149 187 153 187 154 187 157 187 158 187 159 187 160 187 161 189 161 190 162 193 163 194 163 199 163 204 163 206 163 210 163 215 161 217 160 220 158 221 157 222 157 224 156 225 154 225 153 225 152 226 150 226 149 226 149 226 149 " />
        </svg>