<?xml version="1.0" standalone="no"?>
    <svg width="256" height="256" xmlns="http://www.w3.org/2000/svg" version="1.1">
    <polyline stroke="black" stroke-width="3" stroke-linecap="round" fill="transparent" stroke-linejoin="round" points="50.1458740234375 122.47795104980467 59.756195068359375 117.1388702392578 74.17169189453125 109.66416931152344 97.66363525390624 99.51992797851563 117.418212890625 92.04522705078124 131.2998046875 86.1722412109375 139.30841064453125 80.83316040039063 141.97796630859375 77.62971496582031 141.97796630859375 77.62971496582031 " />
        <polyline stroke="black" stroke-width="3" stroke-linecap="round" fill="transparent" stroke-linejoin="round" points="71.50216674804688 141.69862365722656 68.2987060546875 150.77503967285156 66.69699096679688 160.91928100585938 65.09527587890625 171.06353759765625 64.56137084960938 177.4704132080078 65.62918090820313 181.2077789306641 69.90045166015625 179.60604858398438 78.97686767578125 170.5296173095703 78.97686767578125 170.5296173095703 " />
        <polyline stroke="black" stroke-width="3" stroke-linecap="round" fill="transparent" stroke-linejoin="round" points="122.75726318359376 98.98602294921876 122.223388671875 109.13026428222656 116.35040283203124 127.81703186035156 101.93487548828124 157.1819305419922 89.655029296875 173.73306274414063 89.655029296875 173.73306274414063 " />
        <polyline stroke="black" stroke-width="3" stroke-linecap="round" fill="transparent" stroke-linejoin="round" points="39.46771240234375 209.5048828125 53.34930419921875 203.09799194335935 69.90045166015625 196.69110107421875 97.66363525390624 182.80950927734375 115.81646728515624 174.2669677734375 131.83370971679688 163.05491638183594 131.83370971679688 163.05491638183594 " />
        <polyline stroke="black" stroke-width="3" stroke-linecap="round" fill="transparent" stroke-linejoin="round" points="152.6561279296875 89.90959167480469 168.67333984375 83.50270080566406 179.3514404296875 79.2314453125 191.097412109375 73.89236450195313 200.173828125 69.08720397949219 204.97900390625 66.95156860351563 204.97900390625 69.08720397949219 200.173828125 73.35845947265625 193.2330322265625 79.2314453125 183.08880615234375 87.77397155761719 171.87677001953125 98.98602294921876 157.4613037109375 123.54576110839844 143.57965087890625 156.11412048339844 131.2998046875 190.818115234375 123.29119873046876 216.4456787109375 117.95211791992188 228.19161987304688 117.95211791992188 232.462890625 117.95211791992188 232.462890625 " />
        <polyline stroke="black" stroke-width="3" stroke-linecap="round" fill="transparent" stroke-linejoin="round" points="203.3773193359375 95.78257751464844 200.707763671875 117.67277526855467 196.4365234375 140.63079833984375 195.902587890625 156.6480255126953 198.0382080078125 172.13134765625 203.3773193359375 185.47903442382813 210.85205078125 196.15719604492188 218.32672119140625 203.09799194335935 225.26751708984375 206.8353271484375 230.6065673828125 208.970947265625 234.8778076171875 208.970947265625 236.4796142578125 208.970947265625 236.4796142578125 208.970947265625 " />
        </svg>