<?xml version="1.0" standalone="no"?>
    <svg width="256" height="256" xmlns="http://www.w3.org/2000/svg" version="1.1">
    <polyline stroke="black" stroke-width="3" stroke-linecap="round" fill="transparent" stroke-linejoin="round" points="51.994598388671875 82.28811645507813 50.6683349609375 105.27659606933594 50.22625732421875 113.67623901367188 49.342041015625 127.38092041015624 48.4578857421875 136.66473388671875 48.01580810546875 139.7593231201172 47.57373046875 141.9697723388672 47.13165283203125 141.52767944335938 47.57373046875 138.87515258789063 49.784149169921875 130.03343200683594 53.762939453125 120.74961853027344 59.51007080078125 111.4658203125 67.0255126953125 102.6240692138672 77.63558959960938 94.66653442382813 87.36151123046875 88.91940307617188 96.20321655273438 85.82479858398438 103.71868896484376 87.15106201171875 109.4658203125 91.57192993164063 115.655029296875 102.6240692138672 117.86544799804688 113.23416137695313 116.5391845703125 121.6337890625 111.234130859375 127.38092041015624 111.234130859375 127.38092041015624 " />
        <polyline stroke="black" stroke-width="3" stroke-linecap="round" fill="transparent" stroke-linejoin="round" points="93.55072021484376 30.12193298339844 95.31906127929688 49.57372283935547 95.76116943359376 62.83631896972656 95.76116943359376 78.75141906738281 95.31906127929688 94.66653442382813 92.66650390625 126.93882751464844 89.57196044921875 149.92730712890625 85.5931396484375 168.49493408203125 82.94064331054688 178.66290283203125 81.61434936523438 182.1996154785156 81.61434936523438 182.1996154785156 " />
        <polyline stroke="black" stroke-width="3" stroke-linecap="round" fill="transparent" stroke-linejoin="round" points="142.62228393554688 58.41545104980469 137.31723022460938 75.65681457519531 129.35971069335938 98.64529418945313 124.93881225585938 111.4658203125 114.32879638671876 137.54888916015625 109.90789794921876 146.39060974121094 107.69744873046876 149.92730712890625 107.25537109375 150.369384765625 107.69744873046876 149.0431365966797 110.3499755859375 145.94854736328125 114.77084350585938 142.8539276123047 120.96005249023438 141.52767944335938 128.9176025390625 142.8539276123047 136.87518310546875 145.50645446777344 143.50643920898438 149.0431365966797 148.369384765625 151.2535858154297 151.02191162109375 151.2535858154297 151.02191162109375 151.2535858154297 " />
        <polyline stroke="black" stroke-width="3" stroke-linecap="round" fill="transparent" stroke-linejoin="round" points="185.504638671875 55.76293182373047 181.96795654296875 67.25717163085938 178.87335205078125 77.86724853515625 175.336669921875 91.57192993164063 167.82122802734375 117.21292114257813 161.18988037109375 140.20140075683594 156.32696533203125 153.4639892578125 153.23236083984375 161.4215545654297 151.02191162109375 164.5161590576172 150.13775634765625 164.95823669433594 150.13775634765625 164.07406616210938 152.34814453125 163.18988037109375 158.0953369140625 162.747802734375 166.93701171875 164.5161590576172 177.10498046875 167.16867065429688 187.715087890625 171.58953857421875 196.9989013671875 176.45248413085938 200.9776611328125 179.9891815185547 200.9776611328125 179.9891815185547 " />
        </svg>