<?xml version="1.0" standalone="no"?>
    <svg width="256" height="256" xmlns="http://www.w3.org/2000/svg" version="1.1">
    <polyline stroke="black" stroke-width="3" stroke-linecap="round" fill="transparent" stroke-linejoin="round" points="52.566741943359375 100.3714599609375 52.14788818359375 111.26174926757813 51.72900390625 115.869140625 51.310150146484375 120.4765625 50.89129638671875 128.01597595214844 50.47247314453125 131.36685180664063 50.0535888671875 135.55538940429688 49.21588134765625 137.64968872070313 48.378173828125 138.0685272216797 47.959320068359375 137.64968872070313 47.959320068359375 135.9742431640625 50.0535888671875 131.36685180664063 54.242156982421875 123.82742309570313 60.94384765625 115.03143310546876 68.902099609375 105.39773559570313 76.86041259765625 97.43948364257813 84.39984130859375 91.9943389892578 91.10150146484376 88.64349365234375 97.38436889648438 88.64349365234375 102.41064453125 92.41319274902344 108.69345092773438 104.56002807617188 112.0443115234375 119.63885498046876 111.20663452148438 133.4611053466797 107.01803588867188 143.09481811523438 102.41064453125 146.02679443359375 102.41064453125 146.02679443359375 " />
        <polyline stroke="black" stroke-width="3" stroke-linecap="round" fill="transparent" stroke-linejoin="round" points="91.10150146484376 49.27099609375 91.10150146484376 60.99897766113281 91.10150146484376 71.47038269042969 90.6826171875 83.61721801757813 89.00726318359375 110.84288024902344 87.75067138671875 125.92169189453124 84.81866455078125 153.5662078857422 82.30551147460938 178.69757080078125 80.63009643554688 196.7084045410156 79.79241943359375 207.59866333007813 79.79241943359375 211.7872314453125 80.21127319335938 211.7872314453125 80.21127319335938 211.7872314453125 " />
        <polyline stroke="black" stroke-width="3" stroke-linecap="round" fill="transparent" stroke-linejoin="round" points="149.322509765625 69.3760986328125 145.13397216796875 84.873779296875 142.20199584960938 94.50747680664063 138.4322509765625 105.39773559570313 134.66256713867188 116.28800964355467 124.191162109375 144.77023315429688 121.2591552734375 152.30963134765625 116.6517333984375 163.61875915527344 114.13861083984376 169.0638885498047 114.13861083984376 169.0638885498047 " />
        <polyline stroke="black" stroke-width="3" stroke-linecap="round" fill="transparent" stroke-linejoin="round" points="139.26995849609375 138.0685272216797 151.41680908203125 144.3513641357422 155.1865234375 146.44566345214844 158.95623779296875 148.53994750976563 161.88818359375 150.21536254882813 164.8201904296875 151.471923828125 170.6842041015625 152.30963134765625 174.45391845703125 150.21536254882813 174.45391845703125 150.21536254882813 " />
        <polyline stroke="black" stroke-width="3" stroke-linecap="round" fill="transparent" stroke-linejoin="round" points="192.0458984375 70.63265991210938 190.3704833984375 87.8057861328125 188.69500732421875 97.43948364257813 186.60076904296875 108.74859619140624 184.08758544921875 120.4765625 180.73675537109375 133.04226684570313 172.77850341796875 154.82278442382813 168.5899658203125 164.87533569335938 162.7259521484375 177.85986328125 159.3751220703125 184.14273071289065 157.69964599609375 186.23699951171875 157.69964599609375 186.23699951171875 " />
        <polyline stroke="black" stroke-width="3" stroke-linecap="round" fill="transparent" stroke-linejoin="round" points="172.77850341796875 147.2833709716797 185.7630615234375 153.98507690429688 192.0458984375 158.1736297607422 199.16644287109375 163.19989013671875 218.85272216796875 178.2787322998047 229.3240966796875 188.331298828125 229.3240966796875 188.331298828125 " />
        </svg>