<?xml version="1.0" standalone="no"?>
    <svg width="256" height="256" xmlns="http://www.w3.org/2000/svg" version="1.1">
    <polyline stroke="black" stroke-width="3" stroke-linecap="round" fill="transparent" stroke-linejoin="round" points="90.70660400390624 58.51304626464844 87.0084228515625 76.1820068359375 84.95391845703125 82.75650024414063 82.48846435546875 88.92010498046875 78.37939453125 100.01457214355467 74.68124389648438 107.410888671875 72.626708984375 111.51995849609376 71.39401245117188 113.9853973388672 72.626708984375 113.574462890625 75.09213256835938 112.34176635742188 84.95391845703125 106.99998474121094 99.33563232421876 99.60366821289063 115.36093139648438 92.61825561523438 129.331787109375 87.6873779296875 140.01531982421875 85.63285827636719 148.23348999023438 85.63285827636719 152.342529296875 88.09829711914063 154.3970947265625 92.20735168457033 154.3970947265625 129.18890380859375 148.64437866210938 153.84329223632813 142.48077392578125 169.86863708496094 136.72808837890625 180.1412811279297 133.85174560546875 183.8394470214844 124.811767578125 187.94851684570313 118.648193359375 185.48309326171875 118.648193359375 185.48309326171875 " />
        <polyline stroke="black" stroke-width="3" stroke-linecap="round" fill="transparent" stroke-linejoin="round" points="101.39013671875 118.916259765625 98.51385498046876 133.70889282226563 97.28109741210938 140.28338623046875 95.637451171875 148.09060668945313 92.3502197265625 161.23960876464844 87.83026123046875 171.5122528076172 84.54296875 176.85403442382813 81.2557373046875 181.37400817871097 74.68124389648438 187.94851684570313 68.10675048828125 193.290283203125 68.10675048828125 193.290283203125 " />
        <polyline stroke="black" stroke-width="3" stroke-linecap="round" fill="transparent" stroke-linejoin="round" points="44.68505859375 204.795654296875 72.2158203125 205.61749267578125 100.56832885742188 202.74114990234375 130.564453125 196.98846435546875 156.04071044921875 192.05755615234375 165.9024658203125 190.82485961914065 188.09136962890625 191.23577880859375 197.13128662109375 195.3448181152344 197.13128662109375 195.3448181152344 " />
        </svg>