<?xml version="1.0" standalone="no"?>
    <svg width="256" height="256" xmlns="http://www.w3.org/2000/svg" version="1.1">
    <polyline stroke="black" stroke-width="3" stroke-linecap="round" fill="transparent" stroke-linejoin="round" points="125 65 124 67 123 69 122 74 119 86 115 99 111 110 109 115 108 118 108 119 108 120 108 121 110 121 113 120 121 119 130 118 140 117 148 117 154 116 157 116 159 116 160 116 160 117 161 117 161 118 162 118 162 119 161 123 160 131 158 140 156 151 154 161 151 170 148 177 146 183 144 188 143 192 142 195 141 197 140 197 140 198 139 198 138 198 136 197 133 194 132 193 132 193 " />
        <polyline stroke="black" stroke-width="3" stroke-linecap="round" fill="transparent" stroke-linejoin="round" points="125 127 125 126 125 125 124 127 124 132 123 134 121 143 121 148 116 164 111 178 106 191 101 199 97 203 97 203 " />
        <polyline stroke="black" stroke-width="3" stroke-linecap="round" fill="transparent" stroke-linejoin="round" points="75 207 78 207 81 207 90 205 101 204 106 204 126 202 147 201 165 201 179 201 187 202 190 202 190 202 " />
        </svg>