<?xml version="1.0" standalone="no"?>
    <svg width="256" height="256" xmlns="http://www.w3.org/2000/svg" version="1.1">
    <polyline stroke="black" stroke-width="3" stroke-linecap="round" fill="transparent" stroke-linejoin="round" points="74.63143920898438 90.04638671875 85.037353515625 85.76158142089844 99.115966796875 80.86468505859375 116.255126953125 75.35565185546875 133.39431762695313 70.45875549316406 149.92138671875 66.17396545410156 163.38787841796875 63.11338806152344 170.73321533203125 62.50128173828125 174.4058837890625 62.50128173828125 173.18170166015625 63.72550964355469 168.2847900390625 64.94973754882813 159.10308837890625 67.39817810058594 148.08502197265625 71.07086181640625 137.0670166015625 77.80410766601563 124.82470703125 90.6584930419922 105.84921264648438 120.03993225097656 90.54638671875 156.1546173095703 78.91622924804688 187.37240600585935 70.34661865234375 210.6327209472656 68.51031494140625 219.20230102539065 68.51031494140625 224.0992126464844 70.958740234375 224.0992126464844 78.91622924804688 217.365966796875 95.44329833984376 200.22677612304688 111.35821533203124 184.31182861328125 132.17010498046875 167.17266845703125 146.24868774414063 154.93038940429688 156.65460205078125 145.13658142089844 162.7757568359375 139.6275634765625 162.7757568359375 139.6275634765625 " />
        <polyline stroke="black" stroke-width="3" stroke-linecap="round" fill="transparent" stroke-linejoin="round" points="104.625 129.833740234375 115.64300537109376 123.10049438476563 127.273193359375 118.81570434570313 140.1275634765625 113.91880798339844 151.7576904296875 110.85823059082033 160.3272705078125 112.08245849609376 165.2242431640625 118.20359802246094 167.060546875 137.17910766601563 164.612060546875 163.49998474121094 162.7757568359375 185.53607177734375 165.2242431640625 204.51156616210935 171.95745849609375 219.20230102539065 181.75128173828125 227.7718811035156 194.60565185546875 233.89300537109375 205.6236572265625 233.28091430664065 211.74481201171875 225.32342529296875 211.74481201171875 225.32342529296875 " />
        <polyline stroke="black" stroke-width="3" stroke-linecap="round" fill="transparent" stroke-linejoin="round" points="107.685546875 147.5850372314453 118.09149169921876 156.76673889160156 124.82470703125 163.49998474121094 132.17010498046875 171.45745849609375 138.9033203125 183.08761596679688 138.9033203125 183.08761596679688 " />
        </svg>