<?xml version="1.0" standalone="no"?>
    <svg width="256" height="256" xmlns="http://www.w3.org/2000/svg" version="1.1">
    <polyline stroke="black" stroke-width="3" stroke-linecap="round" fill="transparent" stroke-linejoin="round" points="60.622406005859375 86.98580932617188 72.86468505859375 80.86468505859375 89.3917236328125 74.13143920898438 112.65203857421876 64.94973754882813 128.5670166015625 58.82859802246094 146.31829833984375 53.319580078125 157.94842529296875 49.03478240966797 165.9058837890625 45.974220275878906 165.9058837890625 45.974220275878906 " />
        <polyline stroke="black" stroke-width="3" stroke-linecap="round" fill="transparent" stroke-linejoin="round" points="121.833740234375 69.84663391113281 113.87628173828124 81.47679138183594 105.30670166015624 97.39173889160156 94.9007568359375 123.71261596679688 86.3311767578125 154.3182830810547 83.27059936523438 170.8453369140625 81.43426513671875 182.4754943847656 81.43426513671875 188.59661865234375 86.94329833984375 189.82086181640625 98.57342529296876 184.31182861328125 115.10049438476563 170.2332305908203 128.5670166015625 151.8698272705078 138.972900390625 130.44586181640625 138.972900390625 130.44586181640625 " />
        <polyline stroke="black" stroke-width="3" stroke-linecap="round" fill="transparent" stroke-linejoin="round" points="93.676513671875 101.67652893066406 107.755126953125 95.55540466308594 119.99740600585938 91.27059936523438 131.6275634765625 88.21003723144531 144.48193359375 87.59793090820313 152.439453125 91.27059936523438 159.7847900390625 101.67652893066406 165.9058837890625 118.20359802246094 172.02703857421875 134.73065185546875 178.76025390625 151.25772094726563 185.4935302734375 162.8878631591797 190.39044189453125 170.8453369140625 194.67523193359375 176.9664764404297 197.1236572265625 181.2512664794922 197.1236572265625 181.2512664794922 " />
        <polyline stroke="black" stroke-width="3" stroke-linecap="round" fill="transparent" stroke-linejoin="round" points="106.53091430664063 135.9548797607422 119.99740600585938 136.56700134277344 124.89431762695313 140.85179138183594 128.5670166015625 146.97291564941406 128.5670166015625 146.97291564941406 " />
        </svg>