<?xml version="1.0" standalone="no"?>
    <svg width="256" height="256" xmlns="http://www.w3.org/2000/svg" version="1.1">
    <polyline stroke="black" stroke-width="3" stroke-linecap="round" fill="transparent" stroke-linejoin="round" points="57.88201904296875 103.91224670410156 69.19436645507813 96.71348571777344 88.21966552734375 84.37274169921875 107.24496459960938 73.57460021972656 121.64251708984376 65.34744262695313 134.4974365234375 59.17707824707031 141.1820068359375 55.063507080078125 143.75299072265625 52.49251556396485 143.75299072265625 52.49251556396485 " />
        <polyline stroke="black" stroke-width="3" stroke-linecap="round" fill="transparent" stroke-linejoin="round" points="107.7591552734375 80.77336120605469 95.9326171875 108.02581787109376 87.1912841796875 133.73568725585938 80.5067138671875 154.30357360839844 75.87893676757813 168.7010955810547 73.8221435546875 177.95664978027344 73.8221435546875 183.09860229492188 77.42153930664063 184.6412048339844 88.73388671875 178.9850311279297 117.5289306640625 158.41714477539063 135.01162719726563 145.0480194091797 147.35235595703125 136.82086181640625 151.4659423828125 133.73568725585938 149.40914916992188 133.2214813232422 149.40914916992188 133.2214813232422 " />
        <polyline stroke="black" stroke-width="3" stroke-linecap="round" fill="transparent" stroke-linejoin="round" points="106.73077392578124 126.53692626953124 113.41534423828124 118.3097686767578 120.09991455078124 113.16778564453124 127.29864501953124 109.05421447753906 133.98321533203125 108.54002380371094 140.15359497070313 112.65359497070313 147.86654663085938 128.0795135498047 158.6646728515625 163.044921875 166.891845703125 183.09860229492188 175.1190185546875 199.03872680664065 183.34619140625 208.29428100585935 189.0023193359375 212.92205810546875 192.6016845703125 215.4930419921875 194.144287109375 214.46466064453125 188.4881591796875 202.63812255859375 188.4881591796875 202.63812255859375 " />
        <polyline stroke="black" stroke-width="3" stroke-linecap="round" fill="transparent" stroke-linejoin="round" points="89.76226806640625 144.53382873535156 97.4752197265625 153.27517700195313 103.13140869140624 160.47393798828125 108.78756713867188 168.1868896484375 113.92953491210938 176.92825317382813 113.92953491210938 176.92825317382813 " />
        </svg>