<?xml version="1.0" standalone="no"?>
    <svg width="256" height="256" xmlns="http://www.w3.org/2000/svg" version="1.1">
    <polyline stroke="black" stroke-width="3" stroke-linecap="round" fill="transparent" stroke-linejoin="round" points="90.396240234375 38.75471496582031 82.24530029296875 85.84906005859375 57.79248046875 129.32077026367188 52.3585205078125 135.6603546142578 47.8302001953125 141.09432983398438 47.8302001953125 141.09432983398438 " />
        <polyline stroke="black" stroke-width="3" stroke-linecap="round" fill="transparent" stroke-linejoin="round" points="72.282958984375 108.49057006835938 95.8302001953125 128.41510009765625 101.26416015625 140.18869018554688 103.07550048828124 136.5660400390625 103.07550048828124 136.5660400390625 " />
        <polyline stroke="black" stroke-width="3" stroke-linecap="round" fill="transparent" stroke-linejoin="round" points="140.20758056640625 50.528297424316406 138.396240234375 82.22640991210938 133.86785888671875 96.71697998046876 138.396240234375 95.8113250732422 149.26416015625 88.5660400390625 164.660400390625 80.41508483886719 178.24530029296875 74.07546997070313 188.20758056640625 71.35848999023438 191.8302001953125 74.07546997070313 182.77362060546875 91.28302001953124 170.0943603515625 108.49057006835938 161.94342041015625 117.54718017578124 161.94342041015625 117.54718017578124 " />
        <polyline stroke="black" stroke-width="3" stroke-linecap="round" fill="transparent" stroke-linejoin="round" points="83.15087890625 161.9245147705078 92.20758056640624 180.94337463378903 103.07550048828124 204.49053955078125 107.603759765625 212.6415100097656 107.603759765625 211.73583984375 107.603759765625 210.8302001953125 107.603759765625 210.8302001953125 " />
        <polyline stroke="black" stroke-width="3" stroke-linecap="round" fill="transparent" stroke-linejoin="round" points="104.88677978515624 161.9245147705078 134.77362060546875 145.6226348876953 162.8489990234375 142.90565490722656 166.47174072265625 144.71697998046875 168.282958984375 150.15093994140625 164.660400390625 160.11322021484375 154.6981201171875 173.6981201171875 134.77362060546875 192.71697998046875 121.188720703125 203.58489990234375 121.188720703125 203.58489990234375 " />
        <polyline stroke="black" stroke-width="3" stroke-linecap="round" fill="transparent" stroke-linejoin="round" points="46.018798828125 238.9056701660156 85.86785888671875 218.98114013671875 132.9622802734375 207.20751953125 146.54718017578125 205.396240234375 172.81134033203125 205.396240234375 196.3585205078125 208.11322021484375 218.0943603515625 213.54718017578125 218.0943603515625 213.54718017578125 " />
        </svg>