<?xml version="1.0" standalone="no"?>
    <svg width="256" height="256" xmlns="http://www.w3.org/2000/svg" version="1.1">
    <polyline stroke="black" stroke-width="3" stroke-linecap="round" fill="transparent" stroke-linejoin="round" points="127.57675170898438 31.955978393554688 114.05401611328124 61.114349365234375 106.02487182617188 76.32742309570313 89.12152099609375 104.64065551757813 74.33099365234375 127.03765869140624 65.03411865234375 138.87005615234375 62.92120361328125 140.98297119140625 60.80828857421875 140.98297119140625 61.2308349609375 134.2216033935547 70.5277099609375 117.74078369140624 83.62786865234375 103.79547119140624 106.02487182617188 89.85015869140625 130.53485107421875 80.13069152832031 155.88995361328125 73.79191589355469 178.2869873046875 69.9886474609375 188.0064697265625 68.29830932617188 202.796875 66.18537902832031 213.361572265625 65.3402099609375 213.361572265625 65.3402099609375 " />
        <polyline stroke="black" stroke-width="3" stroke-linecap="round" fill="transparent" stroke-linejoin="round" points="121.23797607421876 116.89561462402344 109.40557861328124 138.87005615234375 105.602294921875 150.7024383544922 103.48934936523438 159.9993133544922 101.79904174804688 172.2542724609375 101.79904174804688 175.63494873046875 107.7152099609375 179.01565551757813 125.46380615234376 171.4091033935547 147.438232421875 158.73155212402344 163.4964599609375 148.1669158935547 177.01922607421875 139.7152099609375 185.04833984375 134.2216033935547 189.274169921875 131.26351928710938 191.3870849609375 129.5731658935547 192.6549072265625 128.72801208496094 192.6549072265625 129.15057373046875 193.07745361328125 130.4183349609375 193.922607421875 135.06680297851563 194.34521484375 142.25071716308594 194.34521484375 149.0120849609375 192.6549072265625 155.77346801757813 192.6549072265625 155.77346801757813 " />
        <polyline stroke="black" stroke-width="3" stroke-linecap="round" fill="transparent" stroke-linejoin="round" points="159.2706298828125 89.42756652832031 158.42547607421875 102.5277099609375 153.77703857421875 144.3636474609375 141.94464111328125 205.63851928710935 133.492919921875 230.571044921875 129.68963623046875 240.71310424804688 126.73153686523438 248.31964111328125 122.92831420898438 256.7713317871094 122.92831420898438 256.7713317871094 " />
        </svg>