<?xml version="1.0" standalone="no"?>
    <svg width="256" height="256" xmlns="http://www.w3.org/2000/svg" version="1.1">
    <polyline stroke="black" stroke-width="3" stroke-linecap="round" fill="transparent" stroke-linejoin="round" points="122.75 65 124 75 125.25 85 125.25 111.25 125.25 141.25 126.5 170 125.25 192.5 124 215 122.75 223.75 122.75 227.5 122.75 228.75 121.5 227.5 115.25 215 107.75 196.25 104 185 104 185 " />
        <polyline stroke="black" stroke-width="3" stroke-linecap="round" fill="transparent" stroke-linejoin="round" points="84 132.5 86.5 131.25 89 130 94 130 95.25 130 94 136.25 91.5 142.5 91.5 142.5 " />
        <polyline stroke="black" stroke-width="3" stroke-linecap="round" fill="transparent" stroke-linejoin="round" points="64 192.5 81.5 170 99 147.5 120.25 126.25 120.25 126.25 " />
        <polyline stroke="black" stroke-width="3" stroke-linecap="round" fill="transparent" stroke-linejoin="round" points="160.25 100 156.5 105 152.75 110 147.75 115 142.75 120 142.75 120 " />
        <polyline stroke="black" stroke-width="3" stroke-linecap="round" fill="transparent" stroke-linejoin="round" points="164 157.5 176.5 167.5 189 177.5 197.75 185 202.75 188.75 205.25 191.25 204 191.25 202.75 191.25 202.75 191.25 " />
        </svg>