<?xml version="1.0" standalone="no"?>
    <svg width="256" height="256" xmlns="http://www.w3.org/2000/svg" version="1.1">
    <polyline stroke="black" stroke-width="3" stroke-linecap="round" fill="transparent" stroke-linejoin="round" points="78.6226806640625 64.11322021484375 113.0377197265625 52.339630126953125 125.7169189453125 45.094337463378906 127.5283203125 44.188690185546875 126.6226806640625 43.28301239013672 122.99993896484376 43.28301239013672 122.99993896484376 43.28301239013672 " />
        <polyline stroke="black" stroke-width="3" stroke-linecap="round" fill="transparent" stroke-linejoin="round" points="108.50946044921876 43.28301239013672 101.26416015625 75.88681030273438 98.54718017578124 85.84906005859375 88.5848388671875 106.67926025390624 77.7169189453125 126.60379028320313 65.94342041015625 146.5283203125 59.603759765625 153.77359008789063 55.07550048828125 157.396240234375 55.07550048828125 157.396240234375 " />
        <polyline stroke="black" stroke-width="3" stroke-linecap="round" fill="transparent" stroke-linejoin="round" points="114.84906005859376 99.4339599609375 121.188720703125 103.9622802734375 157.41510009765625 130.2263946533203 196.3585205078125 153.77359008789063 203.603759765625 158.30186462402344 216.28302001953125 161.9245147705078 220.81134033203125 161.9245147705078 220.81134033203125 161.9245147705078 " />
        <polyline stroke="black" stroke-width="3" stroke-linecap="round" fill="transparent" stroke-linejoin="round" points="161.0377197265625 73.16983032226563 135.67926025390625 103.0565948486328 120.282958984375 113.01885986328124 120.282958984375 113.01885986328124 " />
        <polyline stroke="black" stroke-width="3" stroke-linecap="round" fill="transparent" stroke-linejoin="round" points="157.41510009765625 80.41508483886719 179.15087890625 100.33961486816406 180.9622802734375 102.15093994140624 180.9622802734375 102.15093994140624 " />
        <polyline stroke="black" stroke-width="3" stroke-linecap="round" fill="transparent" stroke-linejoin="round" points="104.88677978515624 183.66036987304688 106.6981201171875 201.7735595703125 106.6981201171875 204.49053955078125 106.6981201171875 208.11322021484375 107.603759765625 209.92449951171875 107.603759765625 209.01885986328125 107.603759765625 209.01885986328125 " />
        <polyline stroke="black" stroke-width="3" stroke-linecap="round" fill="transparent" stroke-linejoin="round" points="144.73577880859375 155.5848846435547 144.73577880859375 162.8302001953125 140.20758056640625 194.5283203125 132.056640625 209.92449951171875 130.24530029296875 211.73583984375 130.24530029296875 211.73583984375 " />
        <polyline stroke="black" stroke-width="3" stroke-linecap="round" fill="transparent" stroke-linejoin="round" points="85.86785888671875 189.0943603515625 126.6226806640625 168.26416015625 151.98114013671875 160.11322021484375 161.94342041015625 158.30186462402344 158.32073974609375 161.9245147705078 158.32073974609375 161.9245147705078 " />
        <polyline stroke="black" stroke-width="3" stroke-linecap="round" fill="transparent" stroke-linejoin="round" points="134.77362060546875 208.11322021484375 137.4906005859375 208.11322021484375 145.64154052734375 203.58489990234375 146.54718017578125 202.67926025390625 146.54718017578125 202.67926025390625 " />
        </svg>