<?xml version="1.0" standalone="no"?>
    <svg width="256" height="256" xmlns="http://www.w3.org/2000/svg" version="1.1">
    <polyline stroke="black" stroke-width="3" stroke-linecap="round" fill="transparent" stroke-linejoin="round" points="75 74 79 74 89 72 102 69 114 68 125 66 134 64 136 64 136 64 " />
        <polyline stroke="black" stroke-width="3" stroke-linecap="round" fill="transparent" stroke-linejoin="round" points="123 49 118 63 109 82 96 107 79 133 66 150 60 158 58 159 58 159 " />
        <polyline stroke="black" stroke-width="3" stroke-linecap="round" fill="transparent" stroke-linejoin="round" points="111 98 122 104 138 113 156 120 174 125 190 128 203 129 214 130 216 130 216 130 " />
        <polyline stroke="black" stroke-width="3" stroke-linecap="round" fill="transparent" stroke-linejoin="round" points="190 69 188 72 184 80 178 88 168 97 156 106 144 112 144 112 " />
        <polyline stroke="black" stroke-width="3" stroke-linecap="round" fill="transparent" stroke-linejoin="round" points="172 95 188 102 203 109 213 117 213 117 " />
        <polyline stroke="black" stroke-width="3" stroke-linecap="round" fill="transparent" stroke-linejoin="round" points="91 164 91 177 92 191 93 205 94 212 94 214 94 215 94 215 " />
        <polyline stroke="black" stroke-width="3" stroke-linecap="round" fill="transparent" stroke-linejoin="round" points="149 153 149 162 149 176 149 188 149 200 149 210 149 218 149 227 149 230 149 230 " />
        <polyline stroke="black" stroke-width="3" stroke-linecap="round" fill="transparent" stroke-linejoin="round" points="64 188 70 187 94 183 123 181 137 181 160 180 179 180 191 180 196 180 196 182 196 182 " />
        <polyline stroke="black" stroke-width="3" stroke-linecap="round" fill="transparent" stroke-linejoin="round" points="100 205 104 205 109 205 123 205 136 205 146 205 153 205 156 205 157 205 157 205 " />
        </svg>