<?xml version="1.0" standalone="no"?>
    <svg width="256" height="256" xmlns="http://www.w3.org/2000/svg" version="1.1">
    <polyline stroke="black" stroke-width="3" stroke-linecap="round" fill="transparent" stroke-linejoin="round" points="112.49688720703124 63.838134765625 126.28485107421876 59.80262756347656 132.67437744140625 57.784881591796875 144.444580078125 54.75825500488281 154.197021484375 52.404205322265625 161.2591552734375 51.059043884277344 164.2857666015625 51.059043884277344 164.2857666015625 51.059043884277344 " />
        <polyline stroke="black" stroke-width="3" stroke-linecap="round" fill="transparent" stroke-linejoin="round" points="104.76217651367188 119.9988250732422 111.82431030273438 117.98106384277344 136.03729248046875 112.26409912109376 153.8607177734375 107.2197265625 164.9583740234375 104.193115234375 164.9583740234375 104.193115234375 " />
        <polyline stroke="black" stroke-width="3" stroke-linecap="round" fill="transparent" stroke-linejoin="round" points="90.30160522460938 160.3538055419922 108.46136474609376 157.66348266601563 130.65658569335938 154.6368408203125 156.21478271484375 149.25619506835938 180.09149169921875 141.85777282714844 180.09149169921875 141.85777282714844 " />
        <polyline stroke="black" stroke-width="3" stroke-linecap="round" fill="transparent" stroke-linejoin="round" points="130.992919921875 23.819427490234375 132.00180053710938 32.563011169433594 133.6832275390625 43.996917724609375 135.70098876953125 61.147796630859375 139.40020751953125 92.75920104980467 142.09051513671875 125.71575927734376 142.76312255859375 159.34494018554688 140.07275390625 197.34588623046875 138.39132690429688 213.48785400390625 138.39132690429688 213.48785400390625 " />
        </svg>