<?xml version="1.0" standalone="no"?>
    <svg width="256" height="256" xmlns="http://www.w3.org/2000/svg" version="1.1">
    <polyline stroke="black" stroke-width="3" stroke-linecap="round" fill="transparent" stroke-linejoin="round" points="97.42880249023438 77.8516845703125 128.84521484375 74.27001953125 143.49789428710938 72.35978698730469 168.65850830078125 69.34683227539063 176.6080322265625 69.03092956542969 186.77313232421875 68.63438415527344 187.3074951171875 68.59759521484375 187.315185546875 68.5970458984375 " />
        <polyline stroke="black" stroke-width="3" stroke-linecap="round" fill="transparent" stroke-linejoin="round" points="105.65093994140624 104.78521728515624 116.08383178710938 104.1484375 138.255126953125 104.13641357421876 147.53204345703125 104.27923583984376 158.2552490234375 104.47410583496094 158.6383056640625 104.48178100585938 158.6722412109375 104.4824676513672 158.68328857421875 104.482666015625 " />
        <polyline stroke="black" stroke-width="3" stroke-linecap="round" fill="transparent" stroke-linejoin="round" points="90.47726440429688 155.9208221435547 121.98443603515624 152.17112731933594 135.64886474609375 151.0135955810547 161.32568359375 149.0958251953125 170.62957763671875 148.14605712890625 182.68023681640625 147.53363037109375 185.62542724609375 146.8945770263672 185.69134521484375 146.8706512451172 " />
        <polyline stroke="black" stroke-width="3" stroke-linecap="round" fill="transparent" stroke-linejoin="round" points="126.04598999023438 40.17167663574219 126.25616455078124 84.75735473632813 125.62631225585938 107.66336059570313 123.65414428710938 148.5523681640625 122.82345581054688 166.40487670898438 119.44442749023438 197.31976318359375 119.23162841796876 194.05035400390625 " />
        </svg>