<?xml version="1.0" standalone="no"?>
    <svg width="256" height="256" xmlns="http://www.w3.org/2000/svg" version="1.1">
    <polyline stroke="black" stroke-width="3" stroke-linecap="round" fill="transparent" stroke-linejoin="round" points="104.90960693359376 97.35061645507813 121.84466552734376 91.56790161132813 130.10565185546875 89.089599609375 154.4755859375 83.30690002441406 160.67138671875 81.65469360351563 169.34539794921875 79.1763916015625 173.4759521484375 78.35029602050781 173.4759521484375 78.35029602050781 " />
        <polyline stroke="black" stroke-width="3" stroke-linecap="round" fill="transparent" stroke-linejoin="round" points="104.08346557617188 134.52513122558594 110.6922607421875 132.4598846435547 118.54022216796876 130.39463806152344 134.649169921875 125.85107421875 150.75814819335938 120.89447021484376 157.780029296875 118.8292236328125 169.75848388671875 115.11175537109376 169.75848388671875 115.11175537109376 " />
        <polyline stroke="black" stroke-width="3" stroke-linecap="round" fill="transparent" stroke-linejoin="round" points="93.34417724609376 175.00405883789063 102.84432983398438 172.11270141601563 124.7359619140625 167.15609741210938 155.71478271484375 160.96035766601563 173.88897705078125 156.4167938232422 185.454345703125 151.04714965820313 185.454345703125 151.04714965820313 " />
        <polyline stroke="black" stroke-width="3" stroke-linecap="round" fill="transparent" stroke-linejoin="round" points="128.45346069335938 91.56790161132813 128.45346069335938 105.6116180419922 128.866455078125 121.30752563476563 130.10565185546875 153.93850708007813 130.93173217773438 169.2213592529297 132.99700927734375 196.06964111328125 135.47528076171875 221.67874145507813 135.47528076171875 221.67874145507813 " />
        </svg>