<?xml version="1.0" standalone="no"?>
    <svg width="256" height="256" xmlns="http://www.w3.org/2000/svg" version="1.1">
    <polyline stroke="black" stroke-width="3" stroke-linecap="round" fill="transparent" stroke-linejoin="round" points="70.2548828125 76.4864501953125 79.47763061523438 71.87506103515625 89.16156005859375 67.26368713378906 100.22885131835938 62.652313232421875 132.50851440429688 52.50726318359375 148.18719482421875 48.81816101074219 153.72088623046875 47.89588928222656 159.7156982421875 47.43474578857422 159.7156982421875 47.43474578857422 " />
        <polyline stroke="black" stroke-width="3" stroke-linecap="round" fill="transparent" stroke-linejoin="round" points="78.55538940429688 109.68840026855467 94.6951904296875 104.15472412109376 104.37908935546876 101.38790893554688 113.60186767578124 99.08219909667967 132.04736328125 94.93196105957033 144.49813842773438 93.54855346679688 144.49813842773438 93.54855346679688 " />
        <polyline stroke="black" stroke-width="3" stroke-linecap="round" fill="transparent" stroke-linejoin="round" points="81.32220458984375 148.88511657714844 89.16156005859375 146.1182861328125 98.845458984375 143.35147094726563 132.96966552734375 134.58984375 143.57586669921875 131.3618621826172 162.0213623046875 124.44479370117188 168.93841552734375 120.2945556640625 168.93841552734375 120.2945556640625 " />
        <polyline stroke="black" stroke-width="3" stroke-linecap="round" fill="transparent" stroke-linejoin="round" points="97.92318725585938 37.75084686279297 97.46200561523438 48.357025146484375 97.46200561523438 61.73002624511719 97.46200561523438 76.94758605957031 98.845458984375 107.3826904296875 102.07342529296876 134.12869262695313 105.76254272460938 155.80218505859375 108.990478515625 174.70884704589844 111.75732421875 188.54296875 111.75732421875 188.54296875 " />
        </svg>