<?xml version="1.0" standalone="no"?>
    <svg width="256" height="256" xmlns="http://www.w3.org/2000/svg" version="1.1">
    <polyline stroke="black" stroke-width="3" stroke-linecap="round" fill="transparent" stroke-linejoin="round" points="59.1207275390625 110.94039916992188 69.458984375 107.49429321289063 81.52032470703125 102.89950561523438 99.89950561523438 96.5816650390625 118.85302734375 89.11512756347656 136.6578369140625 82.22294616699219 153.8883056640625 75.33074951171875 164.2265625 70.7359619140625 172.841796875 67.28987121582031 172.841796875 67.28987121582031 " />
        <polyline stroke="black" stroke-width="3" stroke-linecap="round" fill="transparent" stroke-linejoin="round" points="134.934814453125 101.17645263671876 125.17086791992188 114.38648986816406 117.12997436523438 128.17086791992188 98.17645263671876 166.65225219726563 90.13555908203124 181.0109710693359 84.39208984375 193.07229614257813 80.94598388671875 199.96450805664065 78.64859008789063 205.13363647460935 78.64859008789063 206.856689453125 84.39208984375 205.70797729492188 97.02777099609376 198.8157958984375 113.68389892578124 190.77490234375 125.17086791992188 183.30838012695313 137.232177734375 175.26748657226563 146.42178344726563 168.3752899169922 156.18572998046875 157.46266174316406 156.18572998046875 157.46266174316406 " />
        <polyline stroke="black" stroke-width="3" stroke-linecap="round" fill="transparent" stroke-linejoin="round" points="114.83258056640624 144.2526397705078 123.44781494140624 139.08349609375 130.34002685546875 135.06304931640625 140.10394287109375 130.46826171875 150.44219970703125 125.87347412109376 159.0574951171875 121.85302734375 165.37530517578125 120.12997436523438 169.9700927734375 120.70433044433594 171.693115234375 125.87347412109376 171.693115234375 139.08349609375 169.395751953125 158.61135864257813 167.09832763671875 178.1392364501953 167.6727294921875 193.07229614257813 169.395751953125 204.55929565429688 172.2674560546875 212.02581787109375 176.8623046875 217.76931762695313 183.18011474609375 221.78976440429688 189.4979248046875 224.087158203125 196.39013671875 224.087158203125 207.87713623046875 217.19497680664065 212.471923828125 210.87713623046875 214.769287109375 203.98492431640625 214.769287109375 195.36968994140625 214.769287109375 195.36968994140625 " />
        </svg>