<?xml version="1.0" standalone="no"?>
    <svg width="256" height="256" xmlns="http://www.w3.org/2000/svg" version="1.1">
    <polyline stroke="black" stroke-width="3" stroke-linecap="round" fill="transparent" stroke-linejoin="round" points="86.8223876953125 73.44515991210938 88.96078491210938 89.48307800292969 91.6337890625 104.98641967773438 93.237548828125 115.14376831054688 93.77215576171876 119.95515441894533 93.77215576171876 118.88595581054688 93.77215576171876 118.88595581054688 " />
        <polyline stroke="black" stroke-width="3" stroke-linecap="round" fill="transparent" stroke-linejoin="round" points="108.74090576171876 60.61480712890625 122.1058349609375 55.268829345703125 137.60919189453125 48.853660583496094 153.11248779296875 44.04228210449219 166.4774169921875 42.43849182128906 173.9617919921875 44.04228210449219 178.773193359375 48.319068908691406 181.4461669921875 55.803436279296875 180.376953125 68.09918212890625 173.9617919921875 80.92951965332031 161.66607666015625 94.8290557861328 161.66607666015625 94.8290557861328 " />
        <polyline stroke="black" stroke-width="3" stroke-linecap="round" fill="transparent" stroke-linejoin="round" points="99.1181640625 99.1058349609375 107.67169189453124 94.29446411132813 120.50204467773438 88.948486328125 134.40158081054688 84.13710021972656 148.83572387695313 79.32572937011719 159.5277099609375 75.0489501953125 164.8736572265625 69.70297241210938 164.8736572265625 69.70297241210938 " />
        <polyline stroke="black" stroke-width="3" stroke-linecap="round" fill="transparent" stroke-linejoin="round" points="142.95513916015625 77.18733215332031 138.67837524414063 88.41389465332031 132.79779052734375 99.64044189453124 126.917236328125 109.26319885253906 121.57122802734376 115.67837524414063 114.08688354492188 121.02433776855467 108.206298828125 123.16273498535156 103.92950439453124 124.23193359375 101.7911376953125 124.23193359375 104.464111328125 123.16273498535156 110.34469604492188 121.55894470214844 126.38262939453124 118.88595581054688 140.8167724609375 115.14376831054688 154.71630859375 111.40158081054688 162.20068359375 109.26319885253906 162.20068359375 109.26319885253906 " />
        <polyline stroke="black" stroke-width="3" stroke-linecap="round" fill="transparent" stroke-linejoin="round" points="68.64608764648438 163.7921600341797 74.52664184570313 163.7921600341797 82.54559326171875 161.6537628173828 94.3067626953125 157.9115753173828 108.74090576171876 152.031005859375 129.5902099609375 145.61582946777344 157.92388916015625 138.1314697265625 179.30780029296875 133.8546905517578 196.94952392578125 130.1125030517578 207.6414794921875 128.5087127685547 211.918212890625 128.5087127685547 210.84906005859375 130.1125030517578 202.29547119140625 135.45848083496094 202.29547119140625 135.45848083496094 " />
        <polyline stroke="black" stroke-width="3" stroke-linecap="round" fill="transparent" stroke-linejoin="round" points="96.44515991210938 179.2954864501953 87.35699462890625 193.19503784179688 79.87261962890625 205.49078369140625 73.45745849609375 215.64813232421875 70.2498779296875 222.06329345703125 70.2498779296875 224.20169067382813 70.2498779296875 224.20169067382813 " />
        <polyline stroke="black" stroke-width="3" stroke-linecap="round" fill="transparent" stroke-linejoin="round" points="111.41387939453124 188.91824340820313 117.82904052734376 195.3334045410156 125.8480224609375 202.28317260742188 134.40158081054688 207.629150390625 134.40158081054688 207.629150390625 " />
        <polyline stroke="black" stroke-width="3" stroke-linecap="round" fill="transparent" stroke-linejoin="round" points="165.40826416015625 179.830078125 160.59686279296875 188.91824340820313 155.25091552734375 199.61019897460935 149.9049072265625 209.23294067382813 144.5589599609375 217.25192260742188 144.5589599609375 217.25192260742188 " />
        <polyline stroke="black" stroke-width="3" stroke-linecap="round" fill="transparent" stroke-linejoin="round" points="162.7352294921875 208.6983642578125 171.82342529296875 214.0443420410156 182.515380859375 220.45950317382813 192.13812255859375 227.4092712402344 192.13812255859375 227.4092712402344 " />
        </svg>