<?xml version="1.0" standalone="no"?>
    <svg width="256" height="256" xmlns="http://www.w3.org/2000/svg" version="1.1">
    <polyline stroke="black" stroke-width="3" stroke-linecap="round" fill="transparent" stroke-linejoin="round" points="69.6112060546875 74.27908325195313 71.27725219726563 101.49134826660156 72.94329833984375 118.15193176269533 74.05401611328125 129.25897216796875 74.05401611328125 129.25897216796875 " />
        <polyline stroke="black" stroke-width="3" stroke-linecap="round" fill="transparent" stroke-linejoin="round" points="80.16290283203125 59.284576416015625 91.26995849609376 52.06499481201172 104.598388671875 44.84541320800781 120.14825439453124 40.40259552001953 135.14279174804688 38.736534118652344 147.36053466796875 39.84723663330078 154.58013916015625 44.290061950683594 159.57830810546875 53.17569732666016 161.7996826171875 69.28091430664063 157.9122314453125 88.16290283203125 149.026611328125 103.15740966796876 138.47491455078125 112.59840393066406 122.925048828125 119.81797790527344 122.925048828125 119.81797790527344 " />
        <polyline stroke="black" stroke-width="3" stroke-linecap="round" fill="transparent" stroke-linejoin="round" points="81.27362060546875 93.16107177734376 94.60205078125 85.94148254394531 109.04122924804688 78.16654968261719 123.48037719726563 70.94697570800781 135.14279174804688 64.83810424804688 142.917724609375 58.729217529296875 142.917724609375 58.729217529296875 " />
        <polyline stroke="black" stroke-width="3" stroke-linecap="round" fill="transparent" stroke-linejoin="round" points="116.816162109375 73.16838073730469 112.9287109375 84.83078002929688 107.37518310546876 97.6038818359375 101.26629638671876 108.7109375 94.60205078125 117.59657287597656 89.04852294921875 123.7054443359375 85.16107177734375 128.1482696533203 83.4949951171875 129.8143310546875 85.7164306640625 129.8143310546875 92.38064575195313 127.03756713867188 104.598388671875 122.59474182128906 116.816162109375 118.707275390625 124.59109497070313 117.59657287597656 128.47857666015625 119.81797790527344 128.47857666015625 119.81797790527344 " />
        <polyline stroke="black" stroke-width="3" stroke-linecap="round" fill="transparent" stroke-linejoin="round" points="49.06317138671875 170.3550567626953 67.3897705078125 165.35687255859375 98.48953247070313 156.4712371826172 119.03756713867188 151.4730682373047 140.14096069335938 147.03025817871094 153.46942138671875 144.2534942626953 160.68896484375 142.58743286132813 163.46575927734375 142.58743286132813 163.46575927734375 142.58743286132813 " />
        <polyline stroke="black" stroke-width="3" stroke-linecap="round" fill="transparent" stroke-linejoin="round" points="70.16656494140625 187.015625 62.94696044921875 197.56732177734375 56.838104248046875 209.22970581054688 52.395263671875 217.004638671875 50.17388916015625 220.89212036132813 50.17388916015625 220.89212036132813 " />
        <polyline stroke="black" stroke-width="3" stroke-linecap="round" fill="transparent" stroke-linejoin="round" points="90.714599609375 209.7850646972656 96.823486328125 215.8939514160156 102.93234252929688 219.78140258789065 110.707275390625 219.78140258789065 122.925048828125 212.56182861328125 122.925048828125 212.56182861328125 " />
        <polyline stroke="black" stroke-width="3" stroke-linecap="round" fill="transparent" stroke-linejoin="round" points="133.47674560546875 181.46209716796875 126.25714111328124 194.23519897460935 118.48220825195313 208.1190185546875 113.48403930664063 218.1153564453125 110.15191650390624 225.33493041992188 110.15191650390624 225.33493041992188 " />
        <polyline stroke="black" stroke-width="3" stroke-linecap="round" fill="transparent" stroke-linejoin="round" points="142.36236572265625 218.1153564453125 152.9140625 223.113525390625 162.910400390625 230.3330993652344 162.910400390625 230.3330993652344 " />
        </svg>