<?xml version="1.0" standalone="no"?>
    <svg width="256" height="256" xmlns="http://www.w3.org/2000/svg" version="1.1">
    <polyline stroke="black" stroke-width="3" stroke-linecap="round" fill="transparent" stroke-linejoin="round" points="92 39 91 43 91 45 91 55 91 62 91 70 92 77 92 80 96 89 96 90 96 90 " />
        <polyline stroke="black" stroke-width="3" stroke-linecap="round" fill="transparent" stroke-linejoin="round" points="94 42 95 42 96 42 101 40 103 40 105 39 107 38 115 36 118 36 120 35 123 35 129 35 137 34 145 34 148 34 148 35 149 36 149 41 148 49 148 62 146 75 145 85 145 89 145 90 145 91 145 91 " />
        <polyline stroke="black" stroke-width="3" stroke-linecap="round" fill="transparent" stroke-linejoin="round" points="96 67 97 67 98 66 100 66 111 64 123 64 131 64 136 65 142 67 144 69 144 69 " />
        <polyline stroke="black" stroke-width="3" stroke-linecap="round" fill="transparent" stroke-linejoin="round" points="99 99 101 98 110 96 119 95 134 93 143 92 145 92 145 92 " />
        <polyline stroke="black" stroke-width="3" stroke-linecap="round" fill="transparent" stroke-linejoin="round" points="123 46 123 47 122 51 122 59 122 65 122 72 122 76 124 87 125 93 126 95 126 95 " />
        <polyline stroke="black" stroke-width="3" stroke-linecap="round" fill="transparent" stroke-linejoin="round" points="84 125 83 125 84 125 86 125 88 124 91 124 94 123 108 119 112 118 128 114 132 114 143 111 149 110 149 110 " />
        <polyline stroke="black" stroke-width="3" stroke-linecap="round" fill="transparent" stroke-linejoin="round" points="107 125 106 127 106 128 103 136 102 139 100 142 99 145 97 148 95 152 90 160 88 164 87 165 86 167 86 168 86 168 " />
        <polyline stroke="black" stroke-width="3" stroke-linecap="round" fill="transparent" stroke-linejoin="round" points="103 146 104 147 106 150 108 155 112 162 115 165 117 168 117 168 " />
        <polyline stroke="black" stroke-width="3" stroke-linecap="round" fill="transparent" stroke-linejoin="round" points="144 119 144 122 140 134 136 144 135 148 131 159 128 167 128 168 128 168 " />
        <polyline stroke="black" stroke-width="3" stroke-linecap="round" fill="transparent" stroke-linejoin="round" points="140 140 141 144 142 146 148 156 155 165 163 172 165 173 165 173 " />
        </svg>