<?xml version="1.0" standalone="no"?>
    <svg width="256" height="256" xmlns="http://www.w3.org/2000/svg" version="1.1">
    <polyline stroke="black" stroke-width="3" stroke-linecap="round" fill="transparent" stroke-linejoin="round" points="76 87 76 87 77 87 78 89 79 91 80 94 81 97 82 104 83 110 84 115 84 119 85 123 86 125 87 126 88 126 90 126 " />
        <polyline stroke="black" stroke-width="3" stroke-linecap="round" fill="transparent" stroke-linejoin="round" points="104 87 104 87 105 89 105 91 106 95 107 98 107 102 108 105 109 109 109 112 110 114 110 114 110 114 110 112 111 111 " />
        <polyline stroke="black" stroke-width="3" stroke-linecap="round" fill="transparent" stroke-linejoin="round" points="117 84 119 83 123 81 128 80 134 79 143 78 145 78 153 78 157 79 160 80 162 81 162 83 161 87 156 93 146 104 137 111 128 116 119 120 112 123 107 125 103 126 101 126 101 127 101 127 105 126 109 125 114 123 117 122 126 119 133 116 140 112 144 110 " />
        <polyline stroke="black" stroke-width="3" stroke-linecap="round" fill="transparent" stroke-linejoin="round" points="130 55 130 55 128 56 127 59 126 65 124 78 123 89 123 100 123 111 123 121 123 129 124 137 125 142 127 147 130 149 133 149 " />
        <polyline stroke="black" stroke-width="3" stroke-linecap="round" fill="transparent" stroke-linejoin="round" points="194 72 195 71 195 71 195 73 192 78 188 85 180 99 174 109 166 119 159 129 151 139 144 147 141 151 " />
        <polyline stroke="black" stroke-width="3" stroke-linecap="round" fill="transparent" stroke-linejoin="round" points="104 155 103 154 104 153 105 152 107 151 110 149 115 147 120 145 129 142 137 140 145 138 153 138 160 138 166 140 169 142 170 144 " />
        <polyline stroke="black" stroke-width="3" stroke-linecap="round" fill="transparent" stroke-linejoin="round" points="96 180 94 181 90 181 88 181 86 182 86 182 88 181 93 181 98 181 106 181 115 182 126 182 138 182 152 181 167 181 174 181 182 182 " />
        </svg>