<?xml version="1.0" standalone="no"?>
    <svg width="256" height="256" xmlns="http://www.w3.org/2000/svg" version="1.1">
    <polyline stroke="black" stroke-width="3" stroke-linecap="round" fill="transparent" stroke-linejoin="round" points="85.03717041015625 85.05044555664063 83.12680053710938 94.40257263183594 80.14572143554688 104.08641052246094 71.97723388671875 125.63302612304688 64.78564453125 141.7533416748047 61.953125 144.70872497558594 61.669891357421875 145.0042724609375 61.64471435546875 145.0305633544922 " />
        <polyline stroke="black" stroke-width="3" stroke-linecap="round" fill="transparent" stroke-linejoin="round" points="94.1429443359375 80.09765625 98.38327026367188 78.65383911132813 106.422119140625 77.40911865234375 109.3211669921875 77.68411254882813 111.27792358398438 79.42478942871094 112.62841796875 84.48660278320313 114.36996459960938 111.31700134277344 111.75521850585938 129.5361328125 102.30572509765624 159.88473510742188 91.06051635742188 183.3727874755859 84.90496826171875 193.19915771484375 76.00558471679688 204.10565185546875 72.09579467773438 206.77340698242188 67.57171630859375 206.9945068359375 67.95675659179688 204.6878662109375 " />
        <polyline stroke="black" stroke-width="3" stroke-linecap="round" fill="transparent" stroke-linejoin="round" points="92.992431640625 155.07144165039063 98.08480834960938 162.5195770263672 110.31710815429688 180.8367919921875 116.10687255859376 188.900146484375 117.40072631835938 190.10601806640625 124.68930053710938 191.9647521972656 125.37774658203124 190.7875061035156 " />
        <polyline stroke="black" stroke-width="3" stroke-linecap="round" fill="transparent" stroke-linejoin="round" points="147.97689819335938 61.603851318359375 144.8599853515625 70.4498291015625 138.3946533203125 100.26016235351563 135.704345703125 116.50271606445313 125.577392578125 140.17227172851563 117.75244140625 150.14022827148438 117.23406982421876 149.12840270996094 117.18222045898438 149.02720642089844 " />
        <polyline stroke="black" stroke-width="3" stroke-linecap="round" fill="transparent" stroke-linejoin="round" points="160.53851318359375 68.03097534179688 171.150390625 73.0401611328125 177.48297119140625 76.85922241210938 192.12078857421875 87.3511962890625 198.181640625 92.0446319580078 202.91064453125 97.0471649169922 204.53399658203125 104.5592041015625 202.9781494140625 104.21200561523438 " />
        <polyline stroke="black" stroke-width="3" stroke-linecap="round" fill="transparent" stroke-linejoin="round" points="171.701171875 111.98330688476563 175.4354248046875 140.12506103515625 176.908203125 156.48187255859375 178.88983154296875 183.3311462402344 180.1937255859375 203.53518676757813 180.511962890625 209.84652709960935 181.0865478515625 219.74215698242188 180.9329833984375 222.136474609375 180.9161376953125 222.39987182617188 180.91595458984375 222.40182495117188 180.91595458984375 222.40237426757813 180.096435546875 221.20114135742188 171.2451171875 208.68408203125 166.6129150390625 202.58767700195313 166.268310546875 201.9940490722656 " />
        <polyline stroke="black" stroke-width="3" stroke-linecap="round" fill="transparent" stroke-linejoin="round" points="139.33929443359375 157.10606384277344 153.76690673828125 162.81353759765625 164.08544921875 167.11944580078125 165.1409912109375 168.56065368652344 165.237548828125 168.692626953125 " />
        <polyline stroke="black" stroke-width="3" stroke-linecap="round" fill="transparent" stroke-linejoin="round" points="199.78240966796875 139.1624755859375 193.845947265625 150.29251098632813 187.940673828125 164.66726684570313 186.78143310546875 168.09890747070313 " />
        </svg>