<?xml version="1.0" standalone="no"?>
    <svg width="256" height="256" xmlns="http://www.w3.org/2000/svg" version="1.1">
    <polyline stroke="black" stroke-width="3" stroke-linecap="round" fill="transparent" stroke-linejoin="round" points="106.16986083984376 103.76228332519533 98.30841064453124 117.13298034667967 85.33706665039063 141.1215362548828 80.6202392578125 148.59336853027344 72.7587890625 158.8180389404297 70.00729370117188 161.96408081054688 70.00729370117188 161.96408081054688 " />
        <polyline stroke="black" stroke-width="3" stroke-linecap="round" fill="transparent" stroke-linejoin="round" points="111.27978515625 123.81829833984376 124.2510986328125 118.31272888183594 132.112548828125 114.38018798828124 142.3323974609375 110.44761657714844 143.9046630859375 110.05436706542967 145.08389282226563 110.44761657714844 145.08389282226563 112.02066040039063 141.54623413085938 120.67225646972656 137.22247314453125 127.7508544921875 123.4649658203125 148.59336853027344 115.60354614257813 159.99777221679688 100.2738037109375 181.6268310546875 92.019287109375 192.2447204589844 75.11721801757813 212.69400024414065 75.11721801757813 212.69400024414065 " />
        <polyline stroke="black" stroke-width="3" stroke-linecap="round" fill="transparent" stroke-linejoin="round" points="110.49362182617188 160.39105224609375 115.60354614257813 164.32359313964844 120.71347045898438 167.0763702392578 123.0718994140625 169.43589782714844 123.8580322265625 170.22242736816406 125.82339477539063 171.7954559326172 126.21649169921876 172.5819549560547 126.60955810546876 172.5819549560547 127.00262451171876 172.97520446777344 127.00262451171876 173.76173400878906 127.00262451171876 174.1549835205078 127.00262451171876 174.1549835205078 " />
        <polyline stroke="black" stroke-width="3" stroke-linecap="round" fill="transparent" stroke-linejoin="round" points="165.5235595703125 92.75114440917967 162.3790283203125 101.00950622558594 152.55224609375 123.81829833984376 145.47695922851563 134.82945251464844 131.326416015625 155.67198181152344 125.43032836914063 163.9303436279297 115.99661254882813 173.76173400878906 115.99661254882813 173.76173400878906 " />
        <polyline stroke="black" stroke-width="3" stroke-linecap="round" fill="transparent" stroke-linejoin="round" points="161.9859619140625 123.42506408691406 170.240478515625 129.32388305664063 184.7840576171875 136.40248107910156 189.10784912109375 137.58221435546875 195.00390625 139.54852294921875 196.57623291015625 140.33502197265625 196.57623291015625 140.33502197265625 " />
        <polyline stroke="black" stroke-width="3" stroke-linecap="round" fill="transparent" stroke-linejoin="round" points="163.1651611328125 147.806884765625 163.1651611328125 160.39105224609375 161.9859619140625 182.80661010742188 161.1998291015625 191.8514404296875 160.8067626953125 199.71658325195313 160.02056884765625 211.5142517089844 159.62750244140625 215.44677734375 158.05523681640625 220.55911254882813 157.66217041015625 221.73883056640625 156.08990478515625 222.13214111328125 156.48297119140625 222.13214111328125 149.40765380859375 216.6265563964844 149.40765380859375 216.6265563964844 " />
        <polyline stroke="black" stroke-width="3" stroke-linecap="round" fill="transparent" stroke-linejoin="round" points="149.01458740234375 176.9077606201172 152.9453125 179.2672882080078 154.517578125 181.23358154296875 154.91064453125 181.23358154296875 154.91064453125 181.23358154296875 " />
        <polyline stroke="black" stroke-width="3" stroke-linecap="round" fill="transparent" stroke-linejoin="round" points="183.9979248046875 159.21128845214844 180.4603271484375 165.50335693359375 174.564208984375 174.9414825439453 171.419677734375 177.69427490234375 163.9512939453125 184.37960815429688 163.9512939453125 184.37960815429688 " />
        </svg>