<?xml version="1.0" standalone="no"?>
    <svg width="256" height="256" xmlns="http://www.w3.org/2000/svg" version="1.1">
    <polyline stroke="black" stroke-width="3" stroke-linecap="round" fill="transparent" stroke-linejoin="round" points="71.998046875 55.925567626953125 57.499908447265625 78.78800964355469 48.020355224609375 93.84376525878906 39.09844970703125 106.66903686523438 34.079833984375 113.9180908203125 30.734130859375 117.82144165039063 32.406982421875 116.70619201660156 36.867950439453125 111.12998962402344 47.462738037109375 101.0928192138672 60.28802490234375 89.38279724121094 73.11328125 80.46087646484375 83.15045166015625 74.88465881347656 89.28427124023438 72.65419006347656 92.6300048828125 72.65419006347656 92.6300048828125 78.23039245605469 82.03521728515625 108.34188842773438 63.07611083984375 144.02960205078125 48.020355224609375 170.23776245117188 36.310333251953125 187.52398681640625 29.618896484375 196.4459228515625 25.715545654296875 201.46450805664065 25.715545654296875 201.46450805664065 " />
        <polyline stroke="black" stroke-width="3" stroke-linecap="round" fill="transparent" stroke-linejoin="round" points="60.84564208984375 139.01101684570313 71.4404296875 147.93295288085938 83.70806884765625 157.41249084472656 94.3028564453125 166.8920440673828 104.34002685546876 174.14111328125 104.34002685546876 174.14111328125 " />
        <polyline stroke="black" stroke-width="3" stroke-linecap="round" fill="transparent" stroke-linejoin="round" points="150.06488037109375 36.96647644042969 141.70059204101563 48.11888122558594 131.10580444335938 62.61701965332031 120.51101684570313 76.55752563476563 112.146728515625 87.15231323242188 107.68572998046876 93.84376525878906 106.01287841796876 96.63186645507813 106.01287841796876 96.63186645507813 " />
        <polyline stroke="black" stroke-width="3" stroke-linecap="round" fill="transparent" stroke-linejoin="round" points="161.77490234375 41.98505401611328 175.1578369140625 43.657920837402344 189.65594482421875 47.56126403808594 203.038818359375 52.02222442626953 211.9608154296875 55.925567626953125 216.9793701171875 59.27128601074219 219.7674560546875 62.61701965332031 217.5369873046875 67.07797241210938 217.5369873046875 67.07797241210938 " />
        <polyline stroke="black" stroke-width="3" stroke-linecap="round" fill="transparent" stroke-linejoin="round" points="172.3697509765625 102.76568603515624 170.6968994140625 127.30099487304688 169.02398681640625 149.04818725585938 168.46636962890625 166.3344268798828 167.35113525390625 179.15969848632813 165.67828369140625 186.96636962890625 162.33251953125 191.9849548339844 155.64111328125 193.1001892089844 155.64111328125 193.1001892089844 " />
        <polyline stroke="black" stroke-width="3" stroke-linecap="round" fill="transparent" stroke-linejoin="round" points="110.47384643554688 137.89578247070313 117.165283203125 142.91436767578125 131.66342163085938 149.60580444335938 131.66342163085938 149.60580444335938 " />
        <polyline stroke="black" stroke-width="3" stroke-linecap="round" fill="transparent" stroke-linejoin="round" points="204.154052734375 121.16716003417967 197.462646484375 129.53146362304688 184.6373291015625 146.8177032470703 184.6373291015625 146.8177032470703 " />
        </svg>