<?xml version="1.0" standalone="no"?>
    <svg width="256" height="256" xmlns="http://www.w3.org/2000/svg" version="1.1">
    <polyline stroke="black" stroke-width="3" stroke-linecap="round" fill="transparent" stroke-linejoin="round" points="76.71542358398438 69.599853515625 72.68255615234375 77.21757507324219 64.61669921875 91.10870361328124 53.8623046875 108.1365203857422 49.38128662109375 113.96185302734376 47.14080810546875 116.20233154296876 47.14080810546875 115.75424194335938 50.27752685546875 113.06564331054688 58.79144287109375 107.24034118652344 68.64962768554688 100.51882934570313 74.02685546875 97.8302001953125 86.12557983398438 92.4530029296875 89.26229858398438 91.55679321289063 94.63949584960938 91.10870361328124 95.98382568359376 98.2783203125 87.021728515625 133.6782684326172 73.130615234375 170.4225311279297 61.48004150390625 194.171875 52.51800537109375 208.06301879882813 48.933197021484375 212.09591674804688 46.244598388671875 214.33642578125 46.244598388671875 214.33642578125 " />
        <polyline stroke="black" stroke-width="3" stroke-linecap="round" fill="transparent" stroke-linejoin="round" points="66.40911865234375 156.5314178466797 71.78634643554688 159.66812133789063 78.05975341796875 163.70103454589844 84.33319091796875 167.7339324951172 96.87997436523438 175.79974365234375 111.21920776367188 182.0731658935547 117.94073486328124 182.52127075195313 117.94073486328124 182.52127075195313 " />
        <polyline stroke="black" stroke-width="3" stroke-linecap="round" fill="transparent" stroke-linejoin="round" points="156.4774169921875 96.48590087890624 148.85968017578125 108.58464050292967 136.3128662109375 127.40487670898438 127.350830078125 139.50360107421875 120.62933349609376 146.67320251464844 118.38885498046876 148.91372680664063 118.38885498046876 148.91372680664063 " />
        <polyline stroke="black" stroke-width="3" stroke-linecap="round" fill="transparent" stroke-linejoin="round" points="188.74066162109375 89.764404296875 192.7735595703125 90.6605987548828 197.25457763671875 91.55679321289063 205.76849365234375 94.2454071044922 212.9381103515625 96.93400573730467 215.626708984375 97.8302001953125 217.41912841796875 98.72640991210938 217.41912841796875 98.72640991210938 " />
        <polyline stroke="black" stroke-width="3" stroke-linecap="round" fill="transparent" stroke-linejoin="round" points="184.707763671875 138.15928649902344 182.91534423828125 158.77191162109375 182.0191650390625 168.630126953125 181.1229248046875 177.59214782714844 179.33056640625 191.03518676757813 178.434326171875 196.41238403320313 174.84954833984375 206.2706298828125 173.05712890625 208.06301879882813 166.78369140625 209.4073181152344 166.78369140625 209.4073181152344 " />
        <polyline stroke="black" stroke-width="3" stroke-linecap="round" fill="transparent" stroke-linejoin="round" points="134.52044677734375 178.48834228515625 147.96347045898438 180.28076171875 158.7178955078125 178.9364471435547 158.7178955078125 178.9364471435547 " />
        <polyline stroke="black" stroke-width="3" stroke-linecap="round" fill="transparent" stroke-linejoin="round" points="217.8671875 154.739013671875 212.04193115234375 163.70103454589844 199.94317626953125 181.62506103515625 193.6697998046875 191.931396484375 193.6697998046875 191.931396484375 " />
        </svg>