<?xml version="1.0" standalone="no"?>
    <svg width="256" height="256" xmlns="http://www.w3.org/2000/svg" version="1.1">
    <polyline stroke="black" stroke-width="3" stroke-linecap="round" fill="transparent" stroke-linejoin="round" points="103.12167358398438 61.49766540527344 101.72430419921876 83.16996765136719 101.37493896484376 90.86007690429688 100.67623901367188 98.55021667480467 101.02560424804688 111.13397216796876 101.72430419921876 116.02793884277344 103.12167358398438 120.57188415527344 104.868408203125 123.7180633544922 107.314208984375 126.51457214355467 107.314208984375 126.51457214355467 " />
        <polyline stroke="black" stroke-width="3" stroke-linecap="round" fill="transparent" stroke-linejoin="round" points="164.26092529296875 61.14794921875 164.96002197265625 78.62567138671875 162.16485595703125 91.55914306640624 160.4180908203125 98.55021667480467 158.32196044921875 104.84226989746094 155.876220703125 109.7358856201172 153.7801513671875 115.32888793945313 150.9849853515625 121.27127075195313 150.9849853515625 121.27127075195313 " />
        <polyline stroke="black" stroke-width="3" stroke-linecap="round" fill="transparent" stroke-linejoin="round" points="89.49636840820313 158.32383728027344 106.26614379882813 154.47860717773438 130.02297973632813 148.88592529296875 141.55218505859375 146.4387664794922 152.0333251953125 144.69102478027344 161.81549072265625 143.29290771484375 170.549560546875 142.2441864013672 178.93463134765625 141.54515075683594 186.62066650390625 140.84609985351563 193.2586669921875 140.84609985351563 198.49920654296875 140.84609985351563 202.34210205078125 141.19544982910156 204.43853759765625 142.2441864013672 204.43853759765625 142.2441864013672 " />
        <polyline stroke="black" stroke-width="3" stroke-linecap="round" fill="transparent" stroke-linejoin="round" points="147.8408203125 151.6820831298828 147.8408203125 174.05343627929688 149.23822021484375 196.4248046875 151.33465576171875 216.349365234375 153.0814208984375 225.4378967285156 155.17755126953125 234.87579345703125 155.17755126953125 234.87579345703125 " />
        </svg>