<?xml version="1.0" standalone="no"?>
    <svg width="256" height="256" xmlns="http://www.w3.org/2000/svg" version="1.1">
    <polyline stroke="black" stroke-width="3" stroke-linecap="round" fill="transparent" stroke-linejoin="round" points="98 67 98 67 100 68 101 69 102 71 103 74 104 77 105 82 106 86 108 93 111 96 113 99 117 101 120 101 122 101 " />
        <polyline stroke="black" stroke-width="3" stroke-linecap="round" fill="transparent" stroke-linejoin="round" points="157 48 158 48 159 51 158 56 156 63 153 72 147 82 141 93 128 110 119 121 115 125 110 130 106 134 " />
        <polyline stroke="black" stroke-width="3" stroke-linecap="round" fill="transparent" stroke-linejoin="round" points="77 147 77 146 77 145 81 143 86 140 91 138 98 135 106 132 114 129 123 126 135 121 144 117 152 113 159 110 165 107 168 106 171 105 " />
        <polyline stroke="black" stroke-width="3" stroke-linecap="round" fill="transparent" stroke-linejoin="round" points="130 134 130 134 128 137 127 143 127 147 128 152 129 158 130 165 131 172 133 180 134 187 134 195 135 203 136 211 137 215 138 218 " />
        </svg>