<?xml version="1.0" standalone="no"?>
    <svg width="256" height="256" xmlns="http://www.w3.org/2000/svg" version="1.1">
    <polyline stroke="black" stroke-width="3" stroke-linecap="round" fill="transparent" stroke-linejoin="round" points="99.18179321289063 40.19425201416016 103.47195434570313 57.02488708496094 116.34243774414063 87.05601501464844 122.28268432617188 94.3162841796875 122.28268432617188 94.3162841796875 " />
        <polyline stroke="black" stroke-width="3" stroke-linecap="round" fill="transparent" stroke-linejoin="round" points="166.50439453125 49.434593200683594 159.24407958984375 62.63508605957031 154.62384033203125 71.21540832519531 118.65252685546876 110.48687744140624 110.73220825195313 115.76707458496094 95.55169677734376 124.347412109375 95.55169677734376 124.347412109375 95.55169677734376 124.347412109375 " />
        <polyline stroke="black" stroke-width="3" stroke-linecap="round" fill="transparent" stroke-linejoin="round" points="74.43084716796875 128.9675750732422 88.951416015625 119.72723388671876 124.92279052734376 102.56657409667967 171.12451171875 89.69610595703125 177.39471435546875 88.37605285644531 188.28515625 87.38601684570313 191.91534423828125 88.04603576660156 191.91534423828125 88.04603576660156 191.91534423828125 88.04603576660156 " />
        <polyline stroke="black" stroke-width="3" stroke-linecap="round" fill="transparent" stroke-linejoin="round" points="141.75338745117188 106.8567352294922 142.74343872070313 123.6873779296875 147.36361694335938 156.35861206054688 148.02362060546875 160.64877319335938 150.333740234375 173.18923950195313 151.32373046875 183.089599609375 151.65380859375 190.679931640625 151.65380859375 196.29010009765625 151.65380859375 198.93020629882813 151.65380859375 198.93020629882813 151.65380859375 198.93020629882813 " />
        </svg>