<?xml version="1.0" standalone="no"?>
    <svg width="256" height="256" xmlns="http://www.w3.org/2000/svg" version="1.1">
    <polyline stroke="black" stroke-width="3" stroke-linecap="round" fill="transparent" stroke-linejoin="round" points="88.2913818359375 94.64630126953124 90.27145385742188 110.81689453125 94.8916015625 138.53793334960938 100.83187866210938 145.7982177734375 102.81195068359376 146.1282501220703 111.062255859375 143.81814575195313 127.5628662109375 128.6375732421875 138.45327758789063 111.47691345214844 147.0335693359375 97.9464111328125 153.3038330078125 92.00619506835938 157.26397705078125 91.0161590576172 159.57403564453125 92.33619689941406 160.23406982421875 94.97630310058594 157.26397705078125 104.8766632080078 147.36361694335938 121.04728698730467 123.272705078125 146.45823669433594 100.50189208984376 165.5989532470703 86.31130981445313 174.1792755126953 86.31130981445313 174.1792755126953 86.31130981445313 174.1792755126953 " />
        <polyline stroke="black" stroke-width="3" stroke-linecap="round" fill="transparent" stroke-linejoin="round" points="60.240325927734375 183.7496337890625 67.50057983398438 179.78948974609375 96.87173461914063 170.879150390625 124.92279052734376 161.30877685546875 129.54293823242188 159.32870483398438 137.46322631835938 156.68861389160156 151.65380859375 151.0784149169922 151.65380859375 151.0784149169922 151.65380859375 151.0784149169922 " />
        <polyline stroke="black" stroke-width="3" stroke-linecap="round" fill="transparent" stroke-linejoin="round" points="119.97259521484376 180.7795257568359 118.32254028320313 191.00991821289065 117.99252319335938 195.30007934570313 117.99252319335938 225.99124145507813 117.99252319335938 230.2813720703125 117.99252319335938 237.8716735839844 117.6624755859375 239.521728515625 117.6624755859375 239.521728515625 " />
        </svg>