<?xml version="1.0" standalone="no"?>
    <svg width="256" height="256" xmlns="http://www.w3.org/2000/svg" version="1.1">
    <polyline stroke="black" stroke-width="3" stroke-linecap="round" fill="transparent" stroke-linejoin="round" points="100.17184448242188 53.064720153808594 83.67123413085938 73.85551452636719 54.96014404296875 106.19671630859376 44.729766845703125 113.4569854736328 44.0697021484375 113.4569854736328 44.0697021484375 113.4569854736328 44.0697021484375 113.4569854736328 " />
        <polyline stroke="black" stroke-width="3" stroke-linecap="round" fill="transparent" stroke-linejoin="round" points="99.18179321289063 92.6662139892578 93.2415771484375 108.83682250976563 70.470703125 140.51800537109375 53.31005859375 155.3685760498047 51.660003662109375 156.35861206054688 51.660003662109375 156.35861206054688 " />
        <polyline stroke="black" stroke-width="3" stroke-linecap="round" fill="transparent" stroke-linejoin="round" points="98.52175903320313 144.8081512451172 93.2415771484375 160.31874084472656 70.470703125 200.58029174804688 66.51058959960938 205.200439453125 57.600250244140625 216.42086791992188 51.329986572265625 222.03106689453125 50.00994873046875 223.0210876464844 50.00994873046875 223.0210876464844 " />
        <polyline stroke="black" stroke-width="3" stroke-linecap="round" fill="transparent" stroke-linejoin="round" points="196.2054443359375 81.11579895019531 192.90533447265625 90.6861572265625 151.9837646484375 140.51800537109375 106.112060546875 163.9488983154297 101.49188232421876 163.2888641357422 101.49188232421876 163.2888641357422 " />
        <polyline stroke="black" stroke-width="3" stroke-linecap="round" fill="transparent" stroke-linejoin="round" points="147.0335693359375 66.26521301269531 148.68365478515625 76.82562255859375 144.0634765625 118.73719787597656 139.7733154296875 137.2178955078125 137.13323974609375 164.60891723632813 139.44329833984375 188.36978149414065 145.71353149414063 205.200439453125 154.95391845703125 216.7508850097656 163.8642578125 224.0111389160156 174.754638671875 227.9713134765625 186.63507080078125 228.63131713867188 198.18548583984375 225.33120727539065 207.4259033203125 219.0609436035156 213.36602783203125 211.14065551757813 218.3162841796875 198.6001892089844 218.976318359375 191.66995239257813 218.976318359375 191.66995239257813 " />
        <polyline stroke="black" stroke-width="3" stroke-linecap="round" fill="transparent" stroke-linejoin="round" points="169.1444091796875 137.5478973388672 181.3548583984375 150.08836364746094 187.29510498046875 157.3486328125 187.29510498046875 157.3486328125 " />
        </svg>