<?xml version="1.0" standalone="no"?>
    <svg width="256" height="256" xmlns="http://www.w3.org/2000/svg" version="1.1">
    <polyline stroke="black" stroke-width="3" stroke-linecap="round" fill="transparent" stroke-linejoin="round" points="90.29320629335024 93.13293656039644 86.71375295680139 93.68362168909628 81.75758679850298 102.76992631264338 75.70005038280493 118.46445248058832 69.64251396710688 134.70966377723315 66.33840319490793 146.82473660862925 65.51237550185817 150.4041899451781 65.51237550185817 150.4041899451781 " />
        <polyline stroke="black" stroke-width="3" stroke-linecap="round" fill="transparent" stroke-linejoin="round" points="103.509649382146 131.6808955693841 94.97402988729874 137.73843198508217 86.43841039245149 148.47679199472873 79.00416115500389 164.17131816267369 75.42470781845503 176.83707612276964 75.42470781845503 176.83707612276964 " />
        <polyline stroke="black" stroke-width="3" stroke-linecap="round" fill="transparent" stroke-linejoin="round" points="113.42198169874284 156.73706892522608 109.842528362194 159.21515200437528 99.65485348124724 170.22885457837177 86.71375295680139 188.126121261116 74.87402268975518 207.1247582012599 63.30963498705887 221.16722898310545 53.947987799161865 227.50010796315345 50.36853446261301 227.77545052750332 50.36853446261301 227.77545052750332 " />
        <polyline stroke="black" stroke-width="3" stroke-linecap="round" fill="transparent" stroke-linejoin="round" points="176.47542893487264 119.01513760928816 173.17131816267374 117.0877396588388 166.28775405392594 118.73979504493826 156.65076430167903 127.00007197543562 145.63706172768252 139.66582993553155 136.5507571041354 153.43295815302713 127.73979504493826 164.17131816267369 118.37814785704126 169.12748432097212 118.37814785704126 169.12748432097212 " />
        <polyline stroke="black" stroke-width="3" stroke-linecap="round" fill="transparent" stroke-linejoin="round" points="125.53705453013896 99.19047297609453 126.36308222318873 99.46581554044442 126.36308222318873 109.10280529269131 126.36308222318873 128.37678479718517 126.36308222318873 150.95487507387793 126.36308222318873 169.67816944967194 127.4644524805883 183.72064023151745 131.3192483814871 196.38639819161335 137.92746992588496 204.92201768646063 148.11514480683172 210.97955410215872 161.60693045997743 214.0083223100077 175.37405867747293 214.2836648743576 188.59050176626872 210.4288689734589 198.50283408286555 204.3713325577608 204.28502793421376 201.3425643499118 205.66174075596325 200.24119409251216 203.45900024116395 197.76311101336296 197.12612126111603 190.3288617759153 190.51789971671815 178.76447407321902 187.2137889445191 171.8809099644712 187.2137889445191 171.8809099644712 " />
        <polyline stroke="black" stroke-width="3" stroke-linecap="round" fill="transparent" stroke-linejoin="round" points="154.99870891557953 157.8384391826257 154.44802378687973 157.5630966182758 160.50556020257773 167.47542893487264 170.96857764787444 179.31515920191885 176.47542893487264 182.06858484541792 176.47542893487264 182.06858484541792 " />
        </svg>