<?xml version="1.0" standalone="no"?>
    <svg width="256" height="256" xmlns="http://www.w3.org/2000/svg" version="1.1">
    <polyline stroke="black" stroke-width="3" stroke-linecap="round" fill="transparent" stroke-linejoin="round" points="64.60699462890625 118.92887878417969 66.82284545898438 150.31948852539063 69.0386962890625 181.71009826660156 71.25448608398438 202.76028442382813 72.36233520507813 214.57791137695313 73.47027587890625 221.59466552734375 73.47027587890625 221.59466552734375 " />
        <polyline stroke="black" stroke-width="3" stroke-linecap="round" fill="transparent" stroke-linejoin="round" points="81.59500122070313 79.41360473632813 100.79861450195313 69.811767578125 120.00222778320313 60.209930419921875 138.0980224609375 54.67040252685547 153.2393798828125 51.71600341796875 164.687744140625 51.34669494628906 175.0281982421875 53.931793212890625 182.78350830078125 62.79502868652344 188.6923828125 91.60055541992188 188.322998046875 125.57627868652344 186.8458251953125 155.48968505859375 182.78350830078125 178.01708984375 177.9825439453125 196.11285400390625 173.18170166015625 208.2998046875 166.903564453125 212.73141479492188 161.73333740234375 211.25424194335935 161.73333740234375 211.25424194335935 " />
        <polyline stroke="black" stroke-width="3" stroke-linecap="round" fill="transparent" stroke-linejoin="round" points="88.61163330078125 135.5474090576172 91.19674682617188 151.05807495117188 93.7818603515625 166.56874084472656 95.25906372070313 171.73899841308594 95.25906372070313 171.73899841308594 " />
        <polyline stroke="black" stroke-width="3" stroke-linecap="round" fill="transparent" stroke-linejoin="round" points="111.50833129882813 96.40144348144533 119.263671875 94.55494689941406 127.01901245117188 92.7084503173828 132.92779541015625 91.60055541992188 139.57522583007813 91.60055541992188 145.48410034179688 93.8163604736328 149.54641723632813 102.67959594726563 150.28494262695313 127.05348205566406 148.80776977539063 146.62648010253906 146.9613037109375 161.3985137939453 144.00686645507813 172.10826110839844 144.00686645507813 172.10826110839844 " />
        <polyline stroke="black" stroke-width="3" stroke-linecap="round" fill="transparent" stroke-linejoin="round" points="114.83203125 107.48049926757813 117.0478515625 130.0078887939453 119.263671875 152.5352783203125 120.74087524414063 165.46084594726563 121.11013793945313 168.04592895507813 121.11013793945313 168.04592895507813 " />
        <polyline stroke="black" stroke-width="3" stroke-linecap="round" fill="transparent" stroke-linejoin="round" points="27.30767822265625 152.9045867919922 62.391265869140625 142.56414794921875 97.474853515625 132.2237091064453 132.55853271484375 123.3604736328125 162.47198486328125 117.08235168457033 184.6300048828125 113.38932800292967 198.294189453125 112.28143310546876 206.7880859375 111.54281616210938 209.00390625 111.54281616210938 207.15740966796875 111.91213989257813 207.15740966796875 111.91213989257813 " />
        <polyline stroke="black" stroke-width="3" stroke-linecap="round" fill="transparent" stroke-linejoin="round" points="91.93536376953125 182.8179931640625 107.44601440429688 178.7556915283203 122.9566650390625 174.69338989257813 134.77432250976563 173.58547973632813 138.46731567382813 173.58547973632813 138.46731567382813 173.58547973632813 " />
        </svg>