<?xml version="1.0" standalone="no"?>
    <svg width="256" height="256" xmlns="http://www.w3.org/2000/svg" version="1.1">
    <polyline stroke="black" stroke-width="3" stroke-linecap="round" fill="transparent" stroke-linejoin="round" points="73.64556884765625 72.43142700195313 74.8978271484375 97.47735595703124 75.31527709960938 108.74801635742188 75.31527709960938 121.68840026855467 74.8978271484375 147.56918334960938 74.06298828125 159.25726318359375 72.39324951171875 180.12884521484375 71.14096069335938 192.65182495117188 69.47125244140625 199.33071899414065 68.6363525390625 203.08761596679688 67.801513671875 203.50503540039065 67.801513671875 203.50503540039065 " />
        <polyline stroke="black" stroke-width="3" stroke-linecap="round" fill="transparent" stroke-linejoin="round" points="71.975830078125 92.88558959960938 85.75106811523438 80.36264038085938 91.17767333984376 76.18832397460938 111.21441650390624 64.08279418945313 128.3291015625 56.151580810546875 137.51263427734375 52.8121337890625 156.29705810546875 47.802947998046875 170.90716552734375 47.385520935058594 181.34295654296875 51.559837341308594 189.69158935546875 61.995635986328125 198.45770263671875 82.86723327636719 203.88427734375 109.58287048339844 206.80633544921875 135.46365356445313 208.05859375 156.75267028808594 207.6412353515625 172.19766235351563 205.5540771484375 183.4683074951172 201.797119140625 190.56466674804688 196.37054443359375 194.321533203125 190.10906982421875 195.5738525390625 190.10906982421875 195.5738525390625 " />
        <polyline stroke="black" stroke-width="3" stroke-linecap="round" fill="transparent" stroke-linejoin="round" points="104.11810302734376 135.04623413085938 125.40707397460938 131.28933715820313 132.08602905273438 130.45445251464844 138.764892578125 129.61959838867188 160.053955078125 127.11502075195313 170.07232666015625 124.61041259765624 176.751220703125 122.52328491210938 178.42095947265625 120.853515625 178.42095947265625 120.853515625 " />
        <polyline stroke="black" stroke-width="3" stroke-linecap="round" fill="transparent" stroke-linejoin="round" points="118.31076049804688 110.00030517578124 117.05844116210938 121.27098083496094 116.22360229492188 126.69757080078124 115.80615234375 132.5416259765625 114.55389404296876 146.7342987060547 113.718994140625 153.4132080078125 113.718994140625 153.4132080078125 " />
        <polyline stroke="black" stroke-width="3" stroke-linecap="round" fill="transparent" stroke-linejoin="round" points="118.72821044921876 111.67002868652344 128.3291015625 104.99113464355467 131.25115966796875 103.73883056640624 136.677734375 101.6516571044922 141.26950073242188 101.23423767089844 145.0263671875 101.6516571044922 148.3658447265625 103.73883056640624 151.705322265625 108.33056640625 154.20989990234375 115.84434509277344 154.6273193359375 124.61041259765624 153.79248046875 134.2113494873047 151.287841796875 142.9774169921875 147.531005859375 150.07376098632813 147.531005859375 150.07376098632813 " />
        <polyline stroke="black" stroke-width="3" stroke-linecap="round" fill="transparent" stroke-linejoin="round" points="135.8428955078125 107.9131317138672 134.17318725585938 120.853515625 132.50341796875 134.2113494873047 129.99887084960938 146.31687927246094 127.49423217773438 157.17010498046875 124.57223510742188 164.6838836669922 121.65023803710938 168.8582000732422 120.39791870117188 169.69305419921875 120.39791870117188 169.69305419921875 " />
        <polyline stroke="black" stroke-width="3" stroke-linecap="round" fill="transparent" stroke-linejoin="round" points="101.196044921875 158.00497436523438 119.14559936523438 154.24807739257813 124.98968505859376 153.4132080078125 130.416259765625 152.57835388183594 140.85205078125 151.3260498046875 140.85205078125 151.3260498046875 " />
        </svg>