<?xml version="1.0" standalone="no"?>
    <svg width="256" height="256" xmlns="http://www.w3.org/2000/svg" version="1.1">
    <polyline stroke="black" stroke-width="3" stroke-linecap="round" fill="transparent" stroke-linejoin="round" points="52.2000732421875 89.86669921875 56.466796875 111.20002746582033 60.7333984375 145.33334350585938 63.93341064453125 176.26669311523438 65.00006103515625 201.86666870117188 66.06671142578125 214.66668701171875 67.1334228515625 221.06671142578125 67.1334228515625 222.13336181640625 67.1334228515625 222.13336181640625 " />
        <polyline stroke="black" stroke-width="3" stroke-linecap="round" fill="transparent" stroke-linejoin="round" points="68.2000732421875 77.06668090820313 92.7333984375 66.40000915527344 115.1334228515625 60 134.3333740234375 54.66667175292969 146.0667724609375 52.533355712890625 150.3333740234375 51.46668243408203 153.533447265625 50.40000915527344 154.60009765625 51.46668243408203 155.666748046875 62.13334655761719 158.86669921875 89.86669921875 161 125.06671142578124 163.1334228515625 156.00001525878906 164.2000732421875 181.60003662109375 165.2667236328125 202.933349609375 165.2667236328125 208.2666931152344 165.2667236328125 211.4666748046875 162.0667724609375 211.4666748046875 149.2667236328125 197.6000061035156 149.2667236328125 197.6000061035156 " />
        <polyline stroke="black" stroke-width="3" stroke-linecap="round" fill="transparent" stroke-linejoin="round" points="78.86669921875 115.4666748046875 81.00006103515625 142.1333465576172 84.2000732421875 154.93336486816406 85.2667236328125 160.26669311523438 87.4000244140625 163.4666748046875 87.4000244140625 157.06671142578125 87.4000244140625 157.06671142578125 " />
        <polyline stroke="black" stroke-width="3" stroke-linecap="round" fill="transparent" stroke-linejoin="round" points="79.93341064453125 114.40000915527344 98.06671142578124 103.73333740234376 107.666748046875 100.53335571289063 123.666748046875 95.20002746582033 134.3333740234375 94.1333465576172 138.60009765625 98.40000915527344 139.666748046875 104.8000030517578 138.60009765625 121.86668395996094 135.4000244140625 135.73338317871094 134.3333740234375 145.33334350585938 132.2000732421875 153.86668395996094 127.93341064453124 159.20001220703125 127.93341064453124 159.20001220703125 " />
        <polyline stroke="black" stroke-width="3" stroke-linecap="round" fill="transparent" stroke-linejoin="round" points="104.466796875 111.20002746582033 108.7333984375 143.20001220703125 109.80010986328124 150.6666717529297 110.86669921875 160.26669311523438 106.60003662109376 162.40003967285156 106.60003662109376 162.40003967285156 " />
        <polyline stroke="black" stroke-width="3" stroke-linecap="round" fill="transparent" stroke-linejoin="round" points="35.1334228515625 166.6666717529297 65.00006103515625 154.93336486816406 105.53338623046876 142.1333465576172 161 129.33334350585938 181.2667236328125 126.1333465576172 186.60009765625 126.1333465576172 187.666748046875 127.20001220703124 187.666748046875 127.20001220703124 " />
        <polyline stroke="black" stroke-width="3" stroke-linecap="round" fill="transparent" stroke-linejoin="round" points="86.3333740234375 169.86668395996094 111.93341064453124 162.40003967285156 130.0667724609375 158.1333465576172 138.60009765625 157.06671142578125 143.933349609375 158.1333465576172 143.933349609375 158.1333465576172 " />
        </svg>