<?xml version="1.0" standalone="no"?>
    <svg width="256" height="256" xmlns="http://www.w3.org/2000/svg" version="1.1">
    <polyline stroke="black" stroke-width="3" stroke-linecap="round" fill="transparent" stroke-linejoin="round" points="57.29156494140625 85.34986877441406 57.29156494140625 107.18670654296876 58.471923828125 144.95852661132813 59.062103271484375 168.56590270996094 59.65228271484375 183.91070556640625 60.8326416015625 193.35366821289065 62.013031005859375 196.894775390625 62.60321044921875 195.71441650390625 62.60321044921875 195.71441650390625 " />
        <polyline stroke="black" stroke-width="3" stroke-linecap="round" fill="transparent" stroke-linejoin="round" points="60.8326416015625 121.94131469726563 70.275634765625 108.3670654296875 79.71856689453125 99.51429748535156 92.70263671875 91.84190368652344 110.40817260742188 85.34986877441406 128.70391845703125 81.80876159667969 151.7210693359375 82.39894104003906 170.60699462890625 85.94004821777344 188.9027099609375 94.20263671875 200.7064208984375 104.23577880859376 210.73956298828125 119.58058166503906 215.4610595703125 140.8272247314453 213.100341796875 165.02479553222656 205.42791748046875 185.6812744140625 197.165283203125 199.845703125 184.1812744140625 209.28863525390625 166.4757080078125 211.64938354492188 154.08184814453125 203.3868103027344 154.08184814453125 203.3868103027344 " />
        <polyline stroke="black" stroke-width="3" stroke-linecap="round" fill="transparent" stroke-linejoin="round" points="105.68670654296876 36.364540100097656 105.68670654296876 46.397674560546875 104.50634765625 66.46395874023438 102.14556884765624 111.90817260742188 100.9652099609375 137.28611755371094 100.37503051757813 160.30331420898438 100.37503051757813 179.18922424316406 100.9652099609375 193.35366821289065 100.9652099609375 201.02606201171875 102.14556884765624 203.3868103027344 105.68670654296876 200.43588256835935 105.68670654296876 200.43588256835935 " />
        <polyline stroke="black" stroke-width="3" stroke-linecap="round" fill="transparent" stroke-linejoin="round" points="136.37628173828125 38.13509368896485 135.7861328125 61.74247741699219 132.835205078125 99.51429748535156 130.47445678710938 129.02352905273438 129.2940673828125 161.4836883544922 128.11370849609375 183.91070556640625 126.933349609375 201.61624145507813 127.52352905273438 214.60031127929688 127.52352905273438 214.60031127929688 " />
        </svg>