<?xml version="1.0" standalone="no"?>
    <svg width="256" height="256" xmlns="http://www.w3.org/2000/svg" version="1.1">
    <polyline stroke="black" stroke-width="3" stroke-linecap="round" fill="transparent" stroke-linejoin="round" points="116.69198608398438 64.5911865234375 111.95468139648438 78.01344299316406 108.7965087890625 85.90890502929688 105.63836669921876 93.01480102539063 102.48016357421876 100.12069702148438 99.71676635742188 106.0422821044922 94.9794921875 116.70114135742188 91.8212890625 123.80703735351563 89.84747314453125 128.54429626464844 88.66314697265625 131.30770874023438 88.26837158203125 133.28155517578125 88.26837158203125 133.67633056640625 90.63702392578124 134.4658660888672 95.76904296875 133.67633056640625 102.87493896484376 131.70245361328125 110.3756103515625 129.33383178710938 117.87631225585938 126.96519470214844 121.42919921875 125.7808837890625 130.50900268554688 123.80703735351563 135.24627685546875 123.41226196289063 138.7991943359375 123.41226196289063 141.95736694335938 124.2017822265625 145.11557006835938 125.3861083984375 147.87899780273438 127.75474548339844 152.221435546875 134.8606414794922 156.169189453125 147.88812255859375 157.748291015625 161.31039428710938 156.958740234375 173.94309997558594 154.590087890625 183.41763305664065 151.037109375 190.5235290527344 147.08944702148438 195.26080322265625 139.9835205078125 199.20852661132813 127.350830078125 201.182373046875 110.3756103515625 197.62942504882813 93.005615234375 188.1549072265625 77.6094970703125 175.52218627929688 65.37158203125 163.67901611328125 65.37158203125 163.67901611328125 " />
        </svg>