<?xml version="1.0" standalone="no"?>
    <svg width="256" height="256" xmlns="http://www.w3.org/2000/svg" version="1.1">
    <polyline stroke="black" stroke-width="3" stroke-linecap="round" fill="transparent" stroke-linejoin="round" points="44.85009765625 111.30094909667967 57.217376708984375 103.35055541992188 69.58468627929688 96.72518920898438 84.60211181640625 90.5415496826172 99.6195068359375 85.24127197265625 111.98681640625 81.707763671875 116.4036865234375 80.82438659667969 121.26229858398438 79.94100952148438 123.029052734375 79.49932861328125 123.029052734375 79.49932861328125 " />
        <polyline stroke="black" stroke-width="3" stroke-linecap="round" fill="transparent" stroke-linejoin="round" points="69.14300537109375 94.95843505859376 59.867523193359375 120.13470458984376 58.10076904296875 130.29356384277344 55.892303466796875 146.63604736328125 55.00897216796875 152.37802124023438 55.00897216796875 163.42022705078125 56.333984375 165.18698120117188 58.10076904296875 165.18698120117188 58.10076904296875 165.18698120117188 " />
        <polyline stroke="black" stroke-width="3" stroke-linecap="round" fill="transparent" stroke-linejoin="round" points="112.87020874023438 90.5415496826172 105.36151123046876 108.2091064453125 100.50289916992188 117.48458862304688 94.76095581054688 128.08511352539063 84.160400390625 145.752685546875 68.70126342773438 167.83712768554688 61.63427734375 177.1125946044922 56.77569580078125 182.8545379638672 53.68389892578125 185.50469970703125 52.35882568359375 186.3880615234375 53.68389892578125 185.9463806152344 55.892303466796875 184.62130737304688 65.16778564453125 177.99595642089844 79.74349975585938 167.83712768554688 95.20263671875 157.6782684326172 111.10345458984376 147.9611053466797 119.0538330078125 142.2191619873047 119.0538330078125 142.2191619873047 " />
        <polyline stroke="black" stroke-width="3" stroke-linecap="round" fill="transparent" stroke-linejoin="round" points="133.1878662109375 79.49932861328125 145.11346435546875 68.45709228515625 150.41375732421875 64.48190307617188 155.71405029296875 60.948394775390625 173.8232421875 52.11460876464844 179.565185546875 50.34785461425781 188.8406982421875 48.581085205078125 196.349365234375 49.906158447265625 201.649658203125 53.88136291503906 206.50823974609375 63.156829833984375 207.8333740234375 70.66554260253906 206.50823974609375 95.40013122558594 201.649658203125 111.30094909667967 198.11614990234375 117.04289245605467 185.7489013671875 130.29356384277344 180.0069580078125 133.3853759765625 173.381591796875 135.59381103515625 173.381591796875 135.59381103515625 " />
        <polyline stroke="black" stroke-width="3" stroke-linecap="round" fill="transparent" stroke-linejoin="round" points="148.205322265625 74.19905090332031 149.08871459960938 89.65817260742188 149.08871459960938 98.491943359375 147.76361083984375 119.69302368164063 146.43856811523438 132.50201416015625 140.69662475585938 167.3954315185547 137.604736328125 183.7379150390625 133.62957763671875 204.93899536132813 133.62957763671875 204.93899536132813 " />
        </svg>