<?xml version="1.0" standalone="no"?>
    <svg width="256" height="256" xmlns="http://www.w3.org/2000/svg" version="1.1">
    <polyline stroke="black" stroke-width="3" stroke-linecap="round" fill="transparent" stroke-linejoin="round" points="40 104 54 99 68 94 96 86 113 85 119 85 119 85 " />
        <polyline stroke="black" stroke-width="3" stroke-linecap="round" fill="transparent" stroke-linejoin="round" points="64 111 62 125 60 139 60 147 62 163 66 166 71 167 71 167 " />
        <polyline stroke="black" stroke-width="3" stroke-linecap="round" fill="transparent" stroke-linejoin="round" points="98 123 91 138 84 153 76 168 76 168 " />
        <polyline stroke="black" stroke-width="3" stroke-linecap="round" fill="transparent" stroke-linejoin="round" points="38 190 45 188 52 186 70 179 91 175 112 171 130 166 130 166 " />
        <polyline stroke="black" stroke-width="3" stroke-linecap="round" fill="transparent" stroke-linejoin="round" points="147 85 147 95 147 105 145 137 144 154 144 199 145 211 150 227 155 235 158 235 158 235 " />
        <polyline stroke="black" stroke-width="3" stroke-linecap="round" fill="transparent" stroke-linejoin="round" points="142 82 153 80 164 78 177 76 190 75 202 79 207 98 209 127 209 151 209 168 206 180 196 186 181 187 163 184 148 171 142 161 142 161 " />
        </svg>