<?xml version="1.0" standalone="no"?>
    <svg width="256" height="256" xmlns="http://www.w3.org/2000/svg" version="1.1">
    <polyline stroke="black" stroke-width="3" stroke-linecap="round" fill="transparent" stroke-linejoin="round" points="129.11395263671875 42.64329528808594 111.0682373046875 67.40361022949219 101.41595458984376 79.99360656738281 82.11126708984375 105.59326171875 64.90496826171875 128.6749267578125 58.609954833984375 136.2289276123047 53.573944091796875 142.104248046875 44.760955810546875 151.75657653808594 44.760955810546875 151.75657653808594 " />
        <polyline stroke="black" stroke-width="3" stroke-linecap="round" fill="transparent" stroke-linejoin="round" points="116.104248046875 64.04627990722656 129.5335693359375 62.78727722167969 138.3465576171875 62.78727722167969 149.25790405273438 63.206939697265625 159.3299560546875 64.4659423828125 179.473876953125 68.24295043945313 195.4212646484375 72.01994323730469 205.912841796875 75.37727355957031 211.3685302734375 78.73460388183594 212.6275634765625 80.41326904296875 212.6275634765625 80.41326904296875 " />
        <polyline stroke="black" stroke-width="3" stroke-linecap="round" fill="transparent" stroke-linejoin="round" points="104.35360717773438 137.90757751464844 98.478271484375 156.37290954589844 96.799560546875 163.92691040039063 93.4422607421875 178.615234375 92.18328857421876 184.91021728515625 90.0849609375 194.14288330078125 88.40625 199.59857177734375 87.56695556640625 200.8575439453125 87.56695556640625 200.8575439453125 " />
        <polyline stroke="black" stroke-width="3" stroke-linecap="round" fill="transparent" stroke-linejoin="round" points="100.57659912109376 136.64859008789063 113.16659545898438 126.99626159667967 121.14022827148438 123.21926879882813 129.9532470703125 119.8619384765625 137.92694091796875 116.92425537109376 161.42822265625 113.1472625732422 170.660888671875 113.98660278320313 176.1165771484375 118.18325805664063 181.152587890625 129.93392944335938 183.25091552734375 150.07791137695313 182.41156005859375 160.56956481933594 176.9559326171875 179.45457458496094 165.20526123046875 197.500244140625 161.847900390625 200.4378967285156 161.847900390625 200.4378967285156 " />
        <polyline stroke="black" stroke-width="3" stroke-linecap="round" fill="transparent" stroke-linejoin="round" points="116.104248046875 173.5792236328125 127.43524169921876 167.28424072265625 133.310546875 163.92691040039063 138.3465576171875 160.56956481933594 147.5792236328125 153.8549041748047 154.29388427734375 147.14024353027344 157.2315673828125 143.78292846679688 157.2315673828125 143.78292846679688 " />
        <polyline stroke="black" stroke-width="3" stroke-linecap="round" fill="transparent" stroke-linejoin="round" points="144.221923828125 128.6749267578125 140.02523803710938 137.90757751464844 137.50726318359375 144.6222381591797 134.9892578125 152.17623901367188 127.43524169921876 174.41856384277344 121.55990600585938 187.847900390625 118.62225341796876 193.30355834960935 110.64862060546876 204.63455200195313 106.451904296875 208.41156005859375 103.51425170898438 210.5098876953125 102.2552490234375 210.9295654296875 101.83563232421876 210.9295654296875 103.09457397460938 210.0902099609375 110.22894287109376 207.99188232421875 124.917236328125 204.63455200195313 133.310546875 202.95590209960935 150.93658447265625 200.01821899414065 167.7232666015625 201.2772216796875 167.7232666015625 201.2772216796875 " />
        </svg>