<?xml version="1.0" standalone="no"?>
    <svg width="256" height="256" xmlns="http://www.w3.org/2000/svg" version="1.1">
    <polyline stroke="black" stroke-width="3" stroke-linecap="round" fill="transparent" stroke-linejoin="round" points="115.58221435546876 42.13873291015625 100.80160522460938 67.59414672851563 92.5902099609375 81.14297485351563 65.49252319335938 122.6106414794922 53.175384521484375 139.44406127929688 45.37451171875 149.70834350585938 40.858245849609375 155.45632934570313 40.858245849609375 155.45632934570313 " />
        <polyline stroke="black" stroke-width="3" stroke-linecap="round" fill="transparent" stroke-linejoin="round" points="121.33016967773438 55.68757629394531 133.64730834960938 57.329864501953125 147.606689453125 61.435577392578125 172.240966796875 71.28927612304688 188.2532958984375 79.50070190429688 200.98095703125 86.48040771484375 205.49725341796875 89.35440063476563 212.88751220703125 93.87068176269533 212.88751220703125 93.87068176269533 " />
        <polyline stroke="black" stroke-width="3" stroke-linecap="round" fill="transparent" stroke-linejoin="round" points="104.49676513671876 137.80178833007813 103.26507568359376 155.45632934570313 102.8544921875 164.8994598388672 102.8544921875 176.39544677734375 101.62277221679688 200.619140625 100.80160522460938 209.24114990234375 100.80160522460938 211.29397583007813 100.80160522460938 212.1151123046875 100.80160522460938 212.1151123046875 " />
        <polyline stroke="black" stroke-width="3" stroke-linecap="round" fill="transparent" stroke-linejoin="round" points="106.13909912109376 157.09861755371094 111.06591796875 146.42376708984375 114.76107788085938 141.49691772460938 124.20419311523438 132.05377197265625 136.1107177734375 123.02122497558594 149.24899291992188 116.45208740234376 162.3873291015625 113.57809448242188 174.70440673828125 114.80979919433594 183.73699951171875 118.91551208496094 192.76953125 129.17979431152344 197.28582763671875 138.21234130859375 203.4443359375 170.64744567871094 198.9281005859375 192.81829833984375 190.7166748046875 210.8834228515625 185.789794921875 217.0419921875 185.789794921875 217.0419921875 " />
        <polyline stroke="black" stroke-width="3" stroke-linecap="round" fill="transparent" stroke-linejoin="round" points="122.56185913085938 201.85086059570313 137.75302124023438 191.176025390625 143.91156005859375 188.302001953125 149.65960693359375 185.42800903320313 164.44012451171875 176.80601501464844 169.366943359375 171.87918090820313 172.240966796875 166.13116455078125 172.240966796875 166.13116455078125 " />
        <polyline stroke="black" stroke-width="3" stroke-linecap="round" fill="transparent" stroke-linejoin="round" points="159.923828125 134.5172119140625 150.89129638671875 153.40347290039063 145.55389404296875 169.82632446289063 142.269287109375 179.68002319335938 132.826171875 203.49313354492188 125.43588256835938 215.39968872070313 119.27731323242188 222.78997802734375 114.76107788085938 226.89569091796875 111.88705444335938 229.35910034179688 110.2447509765625 230.18023681640625 109.83419799804688 230.18023681640625 110.65533447265624 228.5379638671875 113.52935791015624 226.89569091796875 131.18389892578125 219.0948486328125 139.395263671875 216.2208251953125 154.58642578125 212.1151123046875 177.578369140625 208.83056640625 177.578369140625 208.83056640625 " />
        </svg>