<?xml version="1.0" standalone="no"?>
    <svg width="256" height="256" xmlns="http://www.w3.org/2000/svg" version="1.1">
    <polyline stroke="black" stroke-width="3" stroke-linecap="round" fill="transparent" stroke-linejoin="round" points="85.04891967773438 88.38693237304688 91.76361083984376 84.60993957519531 98.89794921875 80.83294677734375 105.61260986328124 77.89527893066406 119.04193115234376 72.43960571289063 132.47125244140625 68.66261291503906 143.80224609375 67.82327270507813 152.615234375 69.082275390625 157.6512451171875 72.01994323730469 161.847900390625 80.83294677734375 163.94622802734375 98.45895385742188 161.42822265625 120.28160095214844 156.8118896484375 140.00592041015625 150.09725952148438 157.21224975585938 143.382568359375 168.12356567382813 140.44491577148438 171.90057373046875 140.44491577148438 171.90057373046875 " />
        <polyline stroke="black" stroke-width="3" stroke-linecap="round" fill="transparent" stroke-linejoin="round" points="116.104248046875 129.09458923339844 112.32723999023438 138.32725524902344 105.61260986328124 155.9532470703125 99.31759643554688 168.54324340820313 97.21923828125 172.73989868164063 97.21923828125 172.73989868164063 " />
        <polyline stroke="black" stroke-width="3" stroke-linecap="round" fill="transparent" stroke-linejoin="round" points="84.2095947265625 138.74693298339844 93.4422607421875 135.8092498779297 135.40890502929688 124.05859375 162.687255859375 120.28160095214844 168.98223876953125 120.28160095214844 179.05419921875 123.21926879882813 179.05419921875 123.21926879882813 " />
        <polyline stroke="black" stroke-width="3" stroke-linecap="round" fill="transparent" stroke-linejoin="round" points="74.13763427734375 188.68722534179688 84.2095947265625 183.2315673828125 95.96026611328124 177.77590942382813 107.291259765625 173.15957641601563 133.310546875 164.7662353515625 157.6512451171875 159.31057739257813 175.6968994140625 158.4712371826172 188.286865234375 161.82858276367188 188.286865234375 161.82858276367188 " />
        </svg>