<?xml version="1.0" standalone="no"?>
    <svg width="256" height="256" xmlns="http://www.w3.org/2000/svg" version="1.1">
    <polyline stroke="black" stroke-width="3" stroke-linecap="round" fill="transparent" stroke-linejoin="round" points="83.98095703125 83.1983642578125 97.38436889648438 77.33436584472656 114.976318359375 71.05152893066406 133.8248291015625 66.86296081542969 152.67333984375 66.02525329589844 166.0767822265625 68.53839111328125 174.45391845703125 73.56466674804688 181.1556396484375 84.45492553710938 183.668701171875 104.56002807617188 179.8990478515625 128.43484497070313 171.9407958984375 149.79649353027344 167.3333740234375 158.59249877929688 157.28076171875 170.73931884765625 150.5791015625 171.9958953857422 150.5791015625 171.9958953857422 " />
        <polyline stroke="black" stroke-width="3" stroke-linecap="round" fill="transparent" stroke-linejoin="round" points="123.35345458984376 108.74859619140624 120.84030151367188 118.38229370117188 111.20663452148438 148.12107849121094 99.05978393554688 169.90159606933594 99.05978393554688 169.90159606933594 " />
        <polyline stroke="black" stroke-width="3" stroke-linecap="round" fill="transparent" stroke-linejoin="round" points="76.86041259765625 147.2833709716797 88.16952514648438 143.93252563476563 100.73519897460938 139.74395751953125 114.55746459960938 135.13653564453125 127.12313842773438 131.36685180664063 152.67333984375 124.24626159667967 175.2916259765625 119.63885498046876 190.789306640625 117.54458618164063 198.74755859375 116.28800964355467 200.004150390625 115.869140625 199.5853271484375 115.869140625 194.14013671875 119.22000122070313 194.14013671875 119.22000122070313 " />
        <polyline stroke="black" stroke-width="3" stroke-linecap="round" fill="transparent" stroke-linejoin="round" points="98.2220458984375 190.84442138671875 117.48944091796876 186.23699951171875 128.37973022460938 183.7238616943359 161.88818359375 177.85986328125 172.77850341796875 176.60330200195313 190.3704833984375 176.1844482421875 202.098388671875 178.69757080078125 205.86810302734375 180.37301635742188 205.86810302734375 180.37301635742188 " />
        </svg>