<?xml version="1.0" standalone="no"?>
    <svg width="256" height="256" xmlns="http://www.w3.org/2000/svg" version="1.1">
    <polyline stroke="black" stroke-width="3" stroke-linecap="round" fill="transparent" stroke-linejoin="round" points="109.3017578125 89.51472473144531 124.7276611328125 82.31596374511719 147.35235595703125 74.08880615234375 160.207275390625 71.517822265625 167.92022705078125 71.517822265625 173.06219482421875 78.71658325195313 176.14739990234375 107.51162719726563 171.00543212890625 141.96282958984375 165.86346435546875 160.98812866210938 159.693115234375 177.44244384765625 153.522705078125 186.18380737304688 145.29556274414063 190.29736328125 145.29556274414063 190.29736328125 " />
        <polyline stroke="black" stroke-width="3" stroke-linecap="round" fill="transparent" stroke-linejoin="round" points="117.01470947265624 113.16778564453124 112.386962890625 147.61900329589844 108.78756713867188 166.64430236816406 104.67398071289063 180.5276336669922 99.017822265625 189.26898193359375 93.36163330078124 192.86837768554688 93.36163330078124 192.86837768554688 " />
        <polyline stroke="black" stroke-width="3" stroke-linecap="round" fill="transparent" stroke-linejoin="round" points="86.67706298828125 144.01962280273438 121.64251708984376 125.50852966308594 150.43756103515625 112.65359497070313 180.775146484375 102.88385009765624 196.20111083984375 101.85545349121094 206.48504638671875 104.94064331054688 210.5986328125 114.19618225097656 210.5986328125 114.19618225097656 " />
        <polyline stroke="black" stroke-width="3" stroke-linecap="round" fill="transparent" stroke-linejoin="round" points="102.6171875 204.69488525390625 121.1282958984375 200.58132934570313 151.9801025390625 195.4393615722656 172.0338134765625 192.86837768554688 189.0023193359375 191.3257751464844 198.7720947265625 191.3257751464844 198.7720947265625 191.3257751464844 " />
        </svg>