<?xml version="1.0" standalone="no"?>
    <svg width="256" height="256" xmlns="http://www.w3.org/2000/svg" version="1.1">
    <polyline stroke="black" stroke-width="3" stroke-linecap="round" fill="transparent" stroke-linejoin="round" points="51.25079345703125 124.32537841796876 68.80657958984375 118.78665161132813 78.32733154296875 114.52957153320313 92.82196044921876 107.87777709960938 99.7088623046875 105.69146728515624 105.19857788085938 104.23313903808594 105.55111694335938 104.1763916015625 105.58258056640624 104.17135620117188 105.586669921875 104.17068481445313 " />
        <polyline stroke="black" stroke-width="3" stroke-linecap="round" fill="transparent" stroke-linejoin="round" points="76.47042846679688 113.77531433105467 74.38677978515625 130.88116455078125 68.67059326171875 166.70156860351563 60.303558349609375 198.24530029296875 56.346282958984375 208.65707397460935 51.039306640625 216.65817260742188 49.3121337890625 217.124267578125 46.49017333984375 218.85916137695313 46.435638427734375 218.8612365722656 " />
        <polyline stroke="black" stroke-width="3" stroke-linecap="round" fill="transparent" stroke-linejoin="round" points="77.31024169921875 178.84991455078125 90.48641967773438 191.61767578125 97.57708740234376 199.30584716796875 106.61862182617188 210.04949951171875 119.634765625 217.223876953125 126.53524780273438 218.78021240234375 126.628662109375 218.73873901367188 126.638427734375 218.73440551757813 " />
        <polyline stroke="black" stroke-width="3" stroke-linecap="round" fill="transparent" stroke-linejoin="round" points="122.0609130859375 114.31198120117188 126.81488037109376 112.92723083496094 140.18804931640625 109.12663269042967 156.3616943359375 106.5305633544922 174.7021484375 103.46731567382813 177.4427490234375 102.80123901367188 182.30584716796875 101.21969604492188 183.57763671875 100.64596557617188 187.5675048828125 99.53916931152344 187.69244384765625 99.50100708007813 187.72479248046875 99.49113464355467 " />
        <polyline stroke="black" stroke-width="3" stroke-linecap="round" fill="transparent" stroke-linejoin="round" points="162.4779052734375 74.4056396484375 161.78369140625 90.484375 152.96844482421875 124.59001159667967 138.873779296875 161.06016540527344 135.184814453125 175.3444061279297 132.364013671875 187.85061645507813 129.47787475585938 204.42962646484375 127.168212890625 213.855224609375 125.468994140625 217.49127197265625 119.24566650390624 220.07275390625 118.62335205078124 220.3309326171875 " />
        <polyline stroke="black" stroke-width="3" stroke-linecap="round" fill="transparent" stroke-linejoin="round" points="174.73309326171875 160.22398376464844 188.5565185546875 179.4393768310547 195.0487060546875 186.42117309570313 207.23089599609375 196.35073852539065 211.3701171875 199.48114013671875 212.0081787109375 206.25311279296875 211.9041748046875 206.699951171875 " />
        </svg>