<?xml version="1.0" standalone="no"?>
    <svg width="256" height="256" xmlns="http://www.w3.org/2000/svg" version="1.1">
    <polyline stroke="black" stroke-width="3" stroke-linecap="round" fill="transparent" stroke-linejoin="round" points="60.54229736328125 116.85134887695313 74.9764404296875 110.97077941894533 94.221923828125 103.48641967773438 109.190673828125 96.00204467773438 119.88262939453124 87.448486328125 126.8323974609375 76.22193908691406 126.8323974609375 76.22193908691406 " />
        <polyline stroke="black" stroke-width="3" stroke-linecap="round" fill="transparent" stroke-linejoin="round" points="81.92620849609375 79.42951965332031 73.9072265625 114.71296691894533 66.95745849609375 143.04664611816406 58.9384765625 172.98410034179688 54.661712646484375 187.41824340820313 52.5233154296875 198.11019897460935 51.454132080078125 202.386962890625 53.592529296875 199.17938232421875 53.592529296875 199.17938232421875 " />
        <polyline stroke="black" stroke-width="3" stroke-linecap="round" fill="transparent" stroke-linejoin="round" points="79.78778076171875 166.56893920898438 83.52996826171875 172.4495086669922 87.8067626953125 178.330078125 93.68731689453124 182.60687255859375 99.56793212890624 184.74526977539065 99.56793212890624 184.74526977539065 " />
        <polyline stroke="black" stroke-width="3" stroke-linecap="round" fill="transparent" stroke-linejoin="round" points="117.20965576171876 121.12814331054688 126.29779052734376 117.92054748535156 141.26654052734375 113.64376831054688 159.44287109375 108.29779052734376 172.80780029296875 105.0902099609375 181.89593505859375 102.95181274414063 187.7764892578125 100.8134307861328 187.7764892578125 100.8134307861328 " />
        <polyline stroke="black" stroke-width="3" stroke-linecap="round" fill="transparent" stroke-linejoin="round" points="153.562255859375 45.74987030029297 150.35467529296875 63.39158630371094 144.47412109375 93.86366271972656 138.59353637695313 118.98974609375 131.10919189453125 146.788818359375 125.76318359375 166.03433227539063 120.95181274414063 182.072265625 116.675048828125 190.0912170410156 114.53665161132813 193.298828125 114.53665161132813 193.298828125 " />
        <polyline stroke="black" stroke-width="3" stroke-linecap="round" fill="transparent" stroke-linejoin="round" points="147.1470947265625 148.39260864257813 156.2352294921875 154.273193359375 165.8580322265625 161.75755310058594 176.54998779296875 172.4495086669922 176.54998779296875 172.4495086669922 " />
        </svg>