<?xml version="1.0" standalone="no"?>
    <svg width="256" height="256" xmlns="http://www.w3.org/2000/svg" version="1.1">
    <polyline stroke="black" stroke-width="3" stroke-linecap="round" fill="transparent" stroke-linejoin="round" points="43.01922678885643 141.0425427572811 53.20690166980313 139.11514480683172 68.07540014469839 133.8836360841834 85.1466391343929 126.72472941108568 99.4644524805883 118.46445248058832 110.47815505458482 108.5521201639915 113.78226582678376 102.49458374829344 113.78226582678376 102.49458374829344 " />
        <polyline stroke="black" stroke-width="3" stroke-linecap="round" fill="transparent" stroke-linejoin="round" points="84.04526887699325 100.01650066914424 81.842528362194 125.34801658933614 76.88636220389554 150.95487507387793 68.35074270904829 174.63433560797034 57.06169757070194 195.0096853698638 47.14936525410508 207.67544332995976 40.81648627405713 209.87818384475904 40.81648627405713 209.87818384475904 " />
        <polyline stroke="black" stroke-width="3" stroke-linecap="round" fill="transparent" stroke-linejoin="round" points="87.0740370848423 150.1288473808282 90.92883298574104 149.57816225212838 94.5082863222899 149.57816225212838 98.36308222318873 152.05624533127758 103.04390581713716 155.91104123217633 107.17404428238586 158.93980944002536 108.5507571041354 159.21515200437528 108.5507571041354 159.21515200437528 " />
        <polyline stroke="black" stroke-width="3" stroke-linecap="round" fill="transparent" stroke-linejoin="round" points="115.15897864853332 130.57952531198447 125.34665352948002 130.02884018328464 138.8384391826257 126.17404428238586 153.70693765752094 117.91376735188852 165.27132536021736 106.34937964919224 165.27132536021736 106.34937964919224 " />
        <polyline stroke="black" stroke-width="3" stroke-linecap="round" fill="transparent" stroke-linejoin="round" points="145.17131816267369 90.93019604559716 141.86720739047473 109.37814785704126 136.63569866782643 130.30418274763454 128.65076430167898 150.1288473808282 117.08637659898268 173.2576227862208 106.89870171803597 193.35762998376435 95.60965657968956 210.70421153780876 86.24800939179255 221.71791411180527 86.24800939179255 221.71791411180527 " />
        <polyline stroke="black" stroke-width="3" stroke-linecap="round" fill="transparent" stroke-linejoin="round" points="151.22885457837174 149.57816225212838 164.99598279586735 162.51926277657424 184.26996230036116 177.38776125146947 206.57271001270396 188.67680638981585 231.35354080419597 192.8069448550645 243.19327107124215 192.8069448550645 243.19327107124215 192.8069448550645 " />
        </svg>