<?xml version="1.0" standalone="no"?>
    <svg width="256" height="256" xmlns="http://www.w3.org/2000/svg" version="1.1">
    <polyline stroke="black" stroke-width="3" stroke-linecap="round" fill="transparent" stroke-linejoin="round" points="68.45028686523438 81.0313720703125 71.73089599609375 92.00393676757813 74.94305419921875 104.29391479492188 77.77462768554688 116.03634643554688 80.41635131835938 131.68115234375 80.67254638671875 135.42124938964844 80.65618896484375 135.80215454101563 80.65585327148438 135.8092041015625 " />
        <polyline stroke="black" stroke-width="3" stroke-linecap="round" fill="transparent" stroke-linejoin="round" points="83.6033935546875 57.48872375488281 99.47723388671876 50.11101531982422 109.21029663085938 46.73809051513672 129.2852783203125 43.47611999511719 146.48358154296875 46.18000793457031 153.3548583984375 49.05802917480469 162.328857421875 55.38615417480469 165.4984130859375 59.1832275390625 170.557373046875 72.72457885742188 172.09393310546875 83.42739868164063 169.93035888671875 106.51528930664063 165.973388671875 117.24668884277344 151.7548828125 131.3494873046875 150.18002319335938 129.67706298828125 " />
        <polyline stroke="black" stroke-width="3" stroke-linecap="round" fill="transparent" stroke-linejoin="round" points="109.9320068359375 89.2547607421875 123.5029296875 89.30921936035156 130.654052734375 89.34747314453125 140.304931640625 89.44413757324219 142.66326904296875 89.47073364257813 143.5697021484375 89.48919677734375 143.63873291015625 89.4906005859375 143.676025390625 89.49136352539063 143.69467163085938 89.49172973632813 " />
        <polyline stroke="black" stroke-width="3" stroke-linecap="round" fill="transparent" stroke-linejoin="round" points="102.76986694335938 126.97146606445313 116.10009765625 127.0760498046875 121.749755859375 127.12457275390624 126.139404296875 127.1649169921875 130.38177490234375 127.18449401855467 133.008544921875 127.19873046875 133.23919677734375 127.19987487792967 133.3380126953125 127.20042419433594 " />
        <polyline stroke="black" stroke-width="3" stroke-linecap="round" fill="transparent" stroke-linejoin="round" points="116.61590576171876 89.92648315429688 117.45321655273438 109.37158203125 117.58941650390624 129.6932830810547 116.95809936523438 173.68417358398438 116.265380859375 192.20571899414065 116.30963134765624 212.97601318359375 115.89462280273438 221.36724853515625 114.21115112304688 226.32135009765625 114.2735595703125 223.1253662109375 " />
        <polyline stroke="black" stroke-width="3" stroke-linecap="round" fill="transparent" stroke-linejoin="round" points="112.58660888671876 157.3824462890625 133.23370361328125 158.6445770263672 140.45001220703125 158.76939392089844 149.66854858398438 158.1515350341797 151.356689453125 157.48875427246094 151.84954833984375 156.82049560546875 151.873046875 156.78868103027344 151.884521484375 156.7731170654297 " />
        <polyline stroke="black" stroke-width="3" stroke-linecap="round" fill="transparent" stroke-linejoin="round" points="83.15304565429688 216.71343994140625 89.77001953125 216.25787353515625 106.64682006835938 216.14117431640625 115.102294921875 216.187255859375 130.23583984375 217.32595825195313 145.2364501953125 219.04595947265625 150.84259033203125 219.54248046875 156.1357421875 219.9830017089844 164.53753662109375 220.80548095703125 167.543212890625 220.58538818359375 167.79718017578125 220.47027587890625 168.7762451171875 220.38308715820313 169.13812255859375 220.363037109375 " />
        </svg>