<?xml version="1.0" standalone="no"?>
    <svg width="256" height="256" xmlns="http://www.w3.org/2000/svg" version="1.1">
    <polyline stroke="black" stroke-width="3" stroke-linecap="round" fill="transparent" stroke-linejoin="round" points="71.75656127929688 89.94970703125 80.01953125 115.85769653320313 82.76571655273438 127.3511199951172 83.90744018554688 135.95657348632813 83.00262451171875 143.61251831054688 82.429443359375 142.18362426757813 " />
        <polyline stroke="black" stroke-width="3" stroke-linecap="round" fill="transparent" stroke-linejoin="round" points="119.2491455078125 63.745697021484375 130.83993530273438 61.85752868652344 158.62615966796875 59.54148864746094 170.56884765625 59.77723693847656 189.212646484375 63.65931701660156 195.303955078125 67.32696533203125 201.2535400390625 77.82925415039063 202.51214599609375 87.17098999023438 197.9178466796875 104.76495361328124 192.83502197265625 112.7571258544922 177.79168701171875 123.37266540527344 176.41839599609375 122.53729248046876 " />
        <polyline stroke="black" stroke-width="3" stroke-linecap="round" fill="transparent" stroke-linejoin="round" points="112.106201171875 105.29312133789063 120.53341674804688 104.05517578125 138.38494873046875 100.4263153076172 146.16571044921875 98.91984558105467 154.21624755859375 96.8785400390625 157.454833984375 95.5523681640625 157.712890625 95.449951171875 157.8240966796875 95.4058074951172 " />
        <polyline stroke="black" stroke-width="3" stroke-linecap="round" fill="transparent" stroke-linejoin="round" points="135.79916381835938 124.4844970703125 146.88339233398438 119.71002197265624 165.23236083984375 113.61627197265624 175.8179931640625 106.24984741210938 176.87652587890625 105.51321411132813 " />
        <polyline stroke="black" stroke-width="3" stroke-linecap="round" fill="transparent" stroke-linejoin="round" points="128.19931030273438 101.05844116210938 131.08349609375 124.42062377929688 135.13827514648438 172.06756591796875 136.16305541992188 211.0960998535156 135.75042724609375 225.490234375 129.19638061523438 231.94793701171875 128.08078002929688 229.1302795410156 " />
        <polyline stroke="black" stroke-width="3" stroke-linecap="round" fill="transparent" stroke-linejoin="round" points="109.43222045898438 176.78936767578125 133.00228881835938 171.6422119140625 155.5147705078125 166.90069580078125 163.92254638671875 166.45213317871094 171.2821044921875 168.8496551513672 171.453857421875 168.9850311279297 " />
        <polyline stroke="black" stroke-width="3" stroke-linecap="round" fill="transparent" stroke-linejoin="round" points="96.39111328125 222.36798095703125 106.57882690429688 220.44000244140625 132.99740600585938 216.3529052734375 159.70233154296875 215.2578125 172.28094482421875 215.8856201171875 189.0714111328125 216.714111328125 196.7645263671875 216.873779296875 202.4876708984375 217.6636962890625 202.526123046875 217.66900634765625 " />
        </svg>