<?xml version="1.0" standalone="no"?>
    <svg width="256" height="256" xmlns="http://www.w3.org/2000/svg" version="1.1">
    <polyline stroke="black" stroke-width="3" stroke-linecap="round" fill="transparent" stroke-linejoin="round" points="96 67 96 66 97 68 98 71 98 75 99 82 100 89 101 96 102 103 103 110 105 117 105 120 106 121 107 123 108 123 " />
        <polyline stroke="black" stroke-width="3" stroke-linecap="round" fill="transparent" stroke-linejoin="round" points="107 79 109 76 112 73 115 70 119 67 124 65 129 62 134 59 141 56 150 53 156 52 160 51 164 51 166 52 168 55 168 60 168 68 166 77 163 86 157 100 152 109 147 116 145 119 143 122 " />
        <polyline stroke="black" stroke-width="3" stroke-linecap="round" fill="transparent" stroke-linejoin="round" points="104 99 105 96 106 93 109 91 112 89 116 87 121 86 129 85 136 84 142 84 148 83 153 83 157 84 161 86 162 88 162 90 " />
        <polyline stroke="black" stroke-width="3" stroke-linecap="round" fill="transparent" stroke-linejoin="round" points="111 108 110 108 111 108 113 108 117 108 121 108 125 108 129 108 134 108 138 106 144 104 146 102 149 100 " />
        <polyline stroke="black" stroke-width="3" stroke-linecap="round" fill="transparent" stroke-linejoin="round" points="133 65 132 67 131 70 131 75 131 87 131 98 131 110 131 122 131 134 132 146 132 156 132 165 131 172 131 181 130 183 129 187 129 188 " />
        <polyline stroke="black" stroke-width="3" stroke-linecap="round" fill="transparent" stroke-linejoin="round" points="107 164 108 163 112 160 115 158 120 157 124 155 129 154 134 153 139 152 146 151 151 151 152 152 154 153 155 154 " />
        <polyline stroke="black" stroke-width="3" stroke-linecap="round" fill="transparent" stroke-linejoin="round" points="97 190 94 190 93 191 92 191 92 190 94 190 98 189 102 189 108 188 115 187 127 185 137 183 146 180 157 178 167 176 178 174 187 174 196 175 199 177 " />
        </svg>