<?xml version="1.0" standalone="no"?>
    <svg width="256" height="256" xmlns="http://www.w3.org/2000/svg" version="1.1">
    <polyline stroke="black" stroke-width="3" stroke-linecap="round" fill="transparent" stroke-linejoin="round" points="103.47195434570313 88.37605285644531 111.062255859375 120.71728515625 111.062255859375 123.6873779296875 111.062255859375 125.99745178222656 111.062255859375 125.99745178222656 111.062255859375 125.99745178222656 " />
        <polyline stroke="black" stroke-width="3" stroke-linecap="round" fill="transparent" stroke-linejoin="round" points="114.36236572265624 62.63508605957031 137.46322631835938 43.49437713623047 141.75338745117188 41.84430694580078 151.9837646484375 40.854286193847656 158.583984375 44.154388427734375 165.18426513671875 52.40470123291016 171.45452880859375 70.88539123535156 173.1046142578125 94.3162841796875 166.50439453125 118.73719787597656 166.50439453125 118.73719787597656 166.50439453125 118.73719787597656 " />
        <polyline stroke="black" stroke-width="3" stroke-linecap="round" fill="transparent" stroke-linejoin="round" points="114.6923828125 113.78700256347656 117.6624755859375 112.46696472167967 141.42340087890625 103.55662536621094 146.04354858398438 102.236572265625 156.60400390625 99.26646423339844 162.87420654296875 98.27642822265624 162.87420654296875 98.27642822265624 162.87420654296875 98.27642822265624 " />
        <polyline stroke="black" stroke-width="3" stroke-linecap="round" fill="transparent" stroke-linejoin="round" points="122.94265747070313 141.1780242919922 139.44329833984375 134.57777404785156 141.75338745117188 133.91775512695313 141.75338745117188 133.91775512695313 141.75338745117188 133.91775512695313 " />
        <polyline stroke="black" stroke-width="3" stroke-linecap="round" fill="transparent" stroke-linejoin="round" points="114.36236572265624 173.18923950195313 148.35366821289063 159.65872192382813 153.6337890625 157.01864624023438 166.8343505859375 149.4283447265625 177.39471435546875 139.8579864501953 179.04473876953125 136.557861328125 179.04473876953125 136.557861328125 " />
        <polyline stroke="black" stroke-width="3" stroke-linecap="round" fill="transparent" stroke-linejoin="round" points="137.79324340820313 90.026123046875 141.75338745117188 124.347412109375 142.4134521484375 129.95761108398438 145.05349731445313 148.768310546875 146.70358276367188 168.56906127929688 147.36361694335938 186.05972290039065 147.36361694335938 197.28012084960935 146.70358276367188 203.88037109375 146.04354858398438 207.18051147460935 145.383544921875 208.83059692382813 144.39349365234375 209.82061767578125 144.39349365234375 209.82061767578125 144.39349365234375 209.82061767578125 " />
        <polyline stroke="black" stroke-width="3" stroke-linecap="round" fill="transparent" stroke-linejoin="round" points="118.32254028320313 216.7508850097656 124.26275634765624 215.100830078125 157.593994140625 207.84054565429688 163.8642578125 207.18051147460935 178.71478271484375 205.53042602539065 188.28515625 204.87042236328125 194.55535888671875 204.5404052734375 198.18548583984375 204.87042236328125 199.50555419921875 205.200439453125 199.50555419921875 205.200439453125 " />
        </svg>