<?xml version="1.0" standalone="no"?>
    <svg width="256" height="256" xmlns="http://www.w3.org/2000/svg" version="1.1">
    <polyline stroke="black" stroke-width="3" stroke-linecap="round" fill="transparent" stroke-linejoin="round" points="99.08135986328124 72.41903686523438 96.74664306640624 81.75790405273438 95.07894897460938 91.76382446289063 93.74484252929688 101.10270690917967 92.07720947265624 116.44515991210938 91.07659912109376 128.11874389648438 91.07659912109376 128.78579711914063 91.07659912109376 128.78579711914063 " />
        <polyline stroke="black" stroke-width="3" stroke-linecap="round" fill="transparent" stroke-linejoin="round" points="105.41845703125 66.08193969726563 117.75909423828124 60.41191101074219 132.76800537109375 55.075401306152344 156.7822265625 50.40596008300781 168.455810546875 52.40715026855469 176.1270751953125 56.74305725097656 181.46356201171875 64.41427612304688 183.1312255859375 77.08847045898438 176.1270751953125 93.09796142578124 169.78997802734375 100.43565368652344 169.78997802734375 100.43565368652344 " />
        <polyline stroke="black" stroke-width="3" stroke-linecap="round" fill="transparent" stroke-linejoin="round" points="119.4267578125 94.765625 127.09796142578124 92.430908203125 133.43505859375 91.09677124023438 144.10809326171875 89.42912292480469 147.443359375 89.0955810546875 147.443359375 89.0955810546875 " />
        <polyline stroke="black" stroke-width="3" stroke-linecap="round" fill="transparent" stroke-linejoin="round" points="111.75555419921876 130.1199188232422 117.75909423828124 127.7852020263672 123.76266479492188 124.78343200683594 137.43743896484375 116.1116180419922 149.44454956054688 105.43862915039063 149.44454956054688 105.43862915039063 " />
        <polyline stroke="black" stroke-width="3" stroke-linecap="round" fill="transparent" stroke-linejoin="round" points="136.103271484375 82.75848388671875 135.769775390625 92.0973663330078 135.43624877929688 103.1038818359375 135.43624877929688 124.44989013671876 134.7691650390625 143.12765502929688 133.7685546875 158.47007751464844 131.76742553710938 167.1418914794922 128.09857177734375 171.14427185058594 122.42855834960938 173.14544677734375 117.092041015625 173.47898864746094 113.7567138671875 172.81192016601563 112.756103515625 172.14486694335938 115.42437744140624 170.14366149902344 127.09796142578124 164.8071746826172 142.10687255859375 159.80419921875 157.7828369140625 154.80123901367188 167.1217041015625 151.13238525390625 167.1217041015625 151.13238525390625 " />
        <polyline stroke="black" stroke-width="3" stroke-linecap="round" fill="transparent" stroke-linejoin="round" points="71.064697265625 204.16387939453125 95.41253662109376 198.16030883789065 131.100341796875 189.48849487304688 152.11279296875 185.48611450195313 181.46356201171875 179.4825439453125 181.46356201171875 179.4825439453125 " />
        </svg>