<?xml version="1.0" standalone="no"?>
    <svg width="256" height="256" xmlns="http://www.w3.org/2000/svg" version="1.1">
    <polyline stroke="black" stroke-width="3" stroke-linecap="round" fill="transparent" stroke-linejoin="round" points="52.49224853515625 98.0038604736328 62.898193359375 91.88272094726563 75.7525634765625 85.14947509765625 89.8311767578125 77.80410766601563 102.685546875 70.45875549316406 115.5399169921875 63.72550964355469 122.88531494140624 58.21649169921875 127.17010498046876 55.155914306640625 127.17010498046876 55.155914306640625 122.273193359375 58.82859802246094 111.86724853515624 69.84663391113281 92.8917236328125 98.0038604736328 72.6920166015625 135.9548797607422 60.449737548828125 165.9484405517578 53.71649169921875 181.86338806152344 50.0438232421875 189.82086181640625 48.20745849609375 194.10565185546875 50.655914306640625 191.65719604492188 56.1649169921875 183.69973754882813 71.4677734375 162.8878631591797 83.71002197265625 146.97291564941406 90.44329833984376 139.01544189453125 97.176513671875 133.5064239501953 102.685546875 131.05796813964844 105.74612426757813 134.73065185546875 106.9703369140625 153.09405517578125 106.9703369140625 172.6816864013672 107.58245849609376 180.63916015625 108.80670166015624 186.76028442382813 111.86724853515624 187.98452758789065 116.76416015625 181.86338806152344 116.76416015625 181.86338806152344 " />
        <polyline stroke="black" stroke-width="3" stroke-linecap="round" fill="transparent" stroke-linejoin="round" points="125.94586181640624 72.29508972167969 140.02447509765625 70.45875549316406 150.43038940429688 68.62240600585938 160.8363037109375 65.56184387207031 171.8543701171875 61.88916015625 180.4239501953125 58.82859802246094 185.9329833984375 56.99226379394531 188.9935302734375 56.99226379394531 187.769287109375 60.66493225097656 183.4844970703125 68.01029968261719 173.690673828125 81.47679138183594 163.89691162109375 100.45230102539063 154.10308837890625 123.71261596679688 143.6971435546875 153.70616149902344 137.57601928710938 178.19070434570313 133.29119873046875 192.26931762695313 130.8427734375 198.39044189453125 129.6185302734375 200.83889770507813 130.8427734375 197.16622924804688 136.96389770507813 183.08761596679688 146.14559936523438 166.560546875 155.939453125 153.70616149902344 162.67266845703125 146.36080932617188 170.01800537109375 141.46389770507813 174.9149169921875 139.6275634765625 177.9754638671875 142.68812561035156 178.587646484375 153.70616149902344 178.587646484375 178.19070434570313 181.03607177734375 194.10565185546875 184.708740234375 202.0631103515625 190.2177734375 207.5721435546875 196.9510498046875 209.40847778320313 205.5206298828125 203.287353515625 222.04766845703125 170.2332305908203 222.04766845703125 170.2332305908203 " />
        </svg>