<?xml version="1.0" standalone="no"?>
    <svg width="256" height="256" xmlns="http://www.w3.org/2000/svg" version="1.1">
    <polyline stroke="black" stroke-width="3" stroke-linecap="round" fill="transparent" stroke-linejoin="round" points="96.42578125 46.472320556640625 82.28305053710938 84.709228515625 74.978271484375 102.71279907226563 57.66546630859375 133.65924072265625 42.29229736328125 154.1169891357422 36.624267578125 160.5390625 37.14630126953125 158.89378356933594 " />
        <polyline stroke="black" stroke-width="3" stroke-linecap="round" fill="transparent" stroke-linejoin="round" points="47.68084716796875 89.1241455078125 65.07305908203125 92.6072998046875 73.43344116210938 94.1949462890625 81.61837768554688 96.24783325195313 88.34848022460938 98.85711669921876 97.50537109375 104.50436401367188 99.17221069335938 107.36257934570313 99.28192138671876 107.5506591796875 " />
        <polyline stroke="black" stroke-width="3" stroke-linecap="round" fill="transparent" stroke-linejoin="round" points="86.4156494140625 124.81242370605467 89.09298706054688 156.91177368164063 89.7230224609375 175.77291870117188 89.22518920898438 210.84701538085935 88.102294921875 224.51971435546875 84.60665893554688 236.47247314453125 82.88580322265625 236.60617065429688 80.24908447265625 234.723388671875 76.60919189453125 232.62164306640625 75.50286865234375 231.7933654785156 " />
        <polyline stroke="black" stroke-width="3" stroke-linecap="round" fill="transparent" stroke-linejoin="round" points="53.338714599609375 165.72332763671875 51.73822021484375 192.72000122070313 49.6083984375 198.87420654296875 44.7109375 208.74459838867188 43.33343505859375 210.7554931640625 43.14996337890625 211.02337646484375 " />
        <polyline stroke="black" stroke-width="3" stroke-linecap="round" fill="transparent" stroke-linejoin="round" points="99.90756225585938 187.4844665527344 111.4488525390625 190.83010864257813 " />
        <polyline stroke="black" stroke-width="3" stroke-linecap="round" fill="transparent" stroke-linejoin="round" points="100 187 100 187 " />
        <polyline stroke="black" stroke-width="3" stroke-linecap="round" fill="transparent" stroke-linejoin="round" points="140.8184814453125 95.65248107910156 131.67343139648438 128.95339965820313 129.80319213867188 149.15762329101563 127.24728393554688 166.612060546875 124.09814453125 179.69781494140625 118.38885498046876 191.1236267089844 113.7589111328125 189.59185791015625 113.97271728515624 187.8516540527344 " />
        <polyline stroke="black" stroke-width="3" stroke-linecap="round" fill="transparent" stroke-linejoin="round" points="127.76181030273438 150.92576599121094 153.07489013671875 167.67306518554688 158.6126708984375 171.62960815429688 165.7403564453125 177.7175750732422 165.943115234375 177.87884521484375 " />
        <polyline stroke="black" stroke-width="3" stroke-linecap="round" fill="transparent" stroke-linejoin="round" points="178.682861328125 66.92779541015625 179.17669677734375 86.23133850097656 179.1817626953125 99.6985321044922 179.18017578125 116.37307739257813 177.061767578125 160.2042694091797 175.3734130859375 178.94540405273438 170.828125 208.50640869140625 168.73590087890625 216.69219970703125 162.42913818359375 219.7655029296875 162.01861572265625 215.67327880859375 " />
        <polyline stroke="black" stroke-width="3" stroke-linecap="round" fill="transparent" stroke-linejoin="round" points="179.11810302734375 162.6767578125 192.561767578125 181.9150848388672 197.2713623046875 190.05926513671875 201.14813232421875 197.58169555664065 212.79779052734375 211.42596435546875 214.431396484375 212.21234130859375 " />
        </svg>