<?xml version="1.0" standalone="no"?>
    <svg width="256" height="256" xmlns="http://www.w3.org/2000/svg" version="1.1">
    <polyline stroke="black" stroke-width="3" stroke-linecap="round" fill="transparent" stroke-linejoin="round" points="85.33673095703125 46.655738830566406 80.92922973632813 64.83674621582031 74.868896484375 79.16116333007813 66.05386352539063 95.13841247558594 56.136962890625 110.01377868652344 46.22003173828125 122.13444519042967 40.159698486328125 129.29664611816406 40.159698486328125 129.29664611816406 " />
        <polyline stroke="black" stroke-width="3" stroke-linecap="round" fill="transparent" stroke-linejoin="round" points="33.548431396484375 69.24424743652344 44.567230224609375 71.44801330566406 53.933197021484375 75.30459594726563 65.5029296875 80.81398010253906 79.27639770507813 87.42526245117188 90.84613037109376 94.03652954101563 100.7630615234375 100.64779663085938 108.4761962890625 106.15719604492188 108.4761962890625 106.15719604492188 " />
        <polyline stroke="black" stroke-width="3" stroke-linecap="round" fill="transparent" stroke-linejoin="round" points="69.91043090820313 118.8288116455078 72.11419677734375 137.0098114013672 73.216064453125 155.7417449951172 73.216064453125 175.5755615234375 72.11419677734375 189.8999938964844 69.91043090820313 198.71502685546875 66.05386352539063 204.22442626953125 61.646331787109375 205.87722778320313 57.789764404296875 202.57159423828125 57.789764404296875 202.57159423828125 " />
        <polyline stroke="black" stroke-width="3" stroke-linecap="round" fill="transparent" stroke-linejoin="round" points="37.404998779296875 157.39456176757813 36.303131103515625 173.37181091308594 36.85406494140625 183.28872680664065 38.50689697265625 190.450927734375 41.2615966796875 194.85845947265625 45.669097900390625 194.85845947265625 45.669097900390625 194.85845947265625 " />
        <polyline stroke="black" stroke-width="3" stroke-linecap="round" fill="transparent" stroke-linejoin="round" points="86.98956298828125 162.35302734375 95.80459594726563 175.5755615234375 101.31396484375 183.83966064453125 106.27243041992188 189.34906005859375 111.23089599609376 189.34906005859375 111.23089599609376 189.34906005859375 " />
        <polyline stroke="black" stroke-width="3" stroke-linecap="round" fill="transparent" stroke-linejoin="round" points="136.5740966796875 75.30459594726563 134.92129516601563 86.32337951660156 129.96282958984375 113.87034606933594 124.45343017578124 141.41732788085938 120.04592895507813 161.8020782470703 116.1893310546875 174.47369384765625 113.985595703125 181.63589477539065 113.43463134765624 183.83966064453125 113.985595703125 181.0849609375 116.74029541015624 172.82086181640625 118.94403076171876 166.2095947265625 121.69873046875 162.35302734375 124.45343017578124 161.8020782470703 128.30999755859375 163.45489501953125 133.26846313476563 168.41336059570313 138.77786254882813 175.02462768554688 144.28726196289063 181.0849609375 150.34759521484375 186.04342651367188 156.9588623046875 184.9415283203125 156.9588623046875 184.9415283203125 " />
        <polyline stroke="black" stroke-width="3" stroke-linecap="round" fill="transparent" stroke-linejoin="round" points="183.4039306640625 78.05928039550781 183.95489501953125 91.28182983398438 180.6492919921875 109.46282958984376 174.58892822265625 135.35699462890625 169.6304931640625 155.19081115722656 165.77392578125 170.06617736816406 161.9173583984375 181.0849609375 161.36639404296875 186.5943603515625 161.36639404296875 186.5943603515625 " />
        <polyline stroke="black" stroke-width="3" stroke-linecap="round" fill="transparent" stroke-linejoin="round" points="171.834228515625 162.90396118164063 181.75115966796875 165.1077117919922 187.81146240234375 168.41336059570313 195.524658203125 173.37181091308594 204.33966064453125 179.9830780029297 215.35845947265625 192.6546936035156 215.35845947265625 192.6546936035156 " />
        </svg>