<?xml version="1.0" standalone="no"?>
    <svg width="256" height="256" xmlns="http://www.w3.org/2000/svg" version="1.1">
    <polyline stroke="black" stroke-width="3" stroke-linecap="round" fill="transparent" stroke-linejoin="round" points="119.95339965820313 31.94789123535156 127.20245361328124 41.98505401611328 127.20245361328124 48.67650604248047 125.52960205078124 57.040802001953125 118.838134765625 67.63560485839844 107.12811279296876 79.34562683105469 91.5147705078125 88.26756286621094 79.24710083007813 91.61328125 73.11328125 91.61328125 69.767578125 91.61328125 68.65231323242188 89.94041442871094 71.998046875 87.70993041992188 80.36236572265625 84.36421203613281 102.10955810546876 79.34562683105469 129.43295288085938 75.44229125976563 155.08349609375 73.21180725097656 173.4849853515625 72.0965576171875 185.75262451171875 70.9813232421875 191.328857421875 70.9813232421875 192.444091796875 70.9813232421875 192.444091796875 70.9813232421875 " />
        <polyline stroke="black" stroke-width="3" stroke-linecap="round" fill="transparent" stroke-linejoin="round" points="70.8828125 138.45339965820313 90.9571533203125 133.992431640625 107.12811279296876 130.64671325683594 133.8939208984375 127.30099487304688 150.62252807617188 124.51287841796876 166.23590087890625 120.60954284667967 176.8306884765625 116.70619201660156 184.0797119140625 111.6876220703125 184.0797119140625 111.6876220703125 " />
        <polyline stroke="black" stroke-width="3" stroke-linecap="round" fill="transparent" stroke-linejoin="round" points="139.4700927734375 97.18948364257813 132.7786865234375 113.3604736328125 117.722900390625 148.49057006835938 102.10955810546876 183.62066650390625 89.28427124023438 212.61691284179688 79.80471801757813 229.34552001953125 73.11328125 238.2674560546875 73.11328125 238.2674560546875 " />
        <polyline stroke="black" stroke-width="3" stroke-linecap="round" fill="transparent" stroke-linejoin="round" points="90.39950561523438 151.27867126464844 80.91998291015625 162.9886932373047 72.5556640625 170.79537963867188 61.96087646484375 179.15969848632813 52.4813232421875 186.40875244140625 52.4813232421875 186.40875244140625 " />
        <polyline stroke="black" stroke-width="3" stroke-linecap="round" fill="transparent" stroke-linejoin="round" points="43.55938720703125 154.6243896484375 63.63372802734375 159.08535766601563 85.38092041015625 165.77679443359375 107.68572998046876 175.81396484375 131.66342163085938 187.52398681640625 150.62252807617188 198.1187744140625 167.90875244140625 207.04071044921875 182.4068603515625 215.962646484375 182.4068603515625 215.962646484375 " />
        </svg>