<?xml version="1.0" standalone="no"?>
    <svg width="256" height="256" xmlns="http://www.w3.org/2000/svg" version="1.1">
    <polyline stroke="black" stroke-width="3" stroke-linecap="round" fill="transparent" stroke-linejoin="round" points="155.90252685546875 48.40901947021485 146.56341552734375 54.210205078125 134.28460693359375 63.44532775878906 117.63540649414063 75.48997497558594 100.28384399414063 90.21408081054688 89.3577880859375 101.29621887207033 89.3577880859375 101.29621887207033 " />
        <polyline stroke="black" stroke-width="3" stroke-linecap="round" fill="transparent" stroke-linejoin="round" points="83.8427734375 98.74679565429688 87.14657592773438 111.49383544921876 87.1986083984375 124.5530242919922 86.2620849609375 132.79959106445313 84.5711669921875 141.41033935546875 82.72412109375 151.06166076660156 80.17474365234375 161.62350463867188 78.1976318359375 170.962646484375 73.80123901367188 181.03021240234375 68.884521484375 190.8636474609375 65.06039428710938 198.53787231445313 60.924102783203125 205.561767578125 57.178070068359375 211.70114135742188 54.9407958984375 216.12359619140625 52.963714599609375 219.21929931640625 51.53289794921875 221.222412109375 50.674468994140625 222.4190673828125 50.674468994140625 222.4190673828125 " />
        <polyline stroke="black" stroke-width="3" stroke-linecap="round" fill="transparent" stroke-linejoin="round" points="92.27142333984376 133.50198364257813 96.30364990234376 143.25735473632813 98.54086303710938 154.78172302246094 99.08718872070313 168.1271209716797 98.85302734375 183.2674560546875 99.269287109375 189.4588623046875 99.65945434570313 194.08941650390625 100.15377807617188 198.017578125 100.30984497070313 200.22882080078125 100.5439453125 202.51809692382813 100.93417358398438 204.4171142578125 101.1683349609375 205.01544189453125 101.94873046875 206.21209716796875 101.94873046875 206.21209716796875 " />
        <polyline stroke="black" stroke-width="3" stroke-linecap="round" fill="transparent" stroke-linejoin="round" points="94.58670043945313 135.4010467529297 105.61676025390624 132.8516082763672 119.1962890625 129.49578857421875 134.154541015625 126.37405395507813 144.6123046875 124.39695739746094 152.72882080078125 123.6685791015625 158.7901611328125 123.980712890625 163.23858642578125 124.73513793945313 166.2042236328125 126.6602020263672 167.99920654296875 133.00770568847656 164.85150146484375 144.7141571044922 162.95245361328125 156.9669647216797 161.65167236328125 163.2103729248047 161.10540771484375 166.6702880859375 160.4810791015625 172.39344787597656 160.376953125 178.42880249023438 159.93475341796875 184.88034057617188 159.7266845703125 190.369384765625 159.7266845703125 194.47964477539065 159.85675048828125 198.53787231445313 159.7266845703125 201.91973876953125 159.8046875 203.94888305664065 159.90875244140625 205.1195068359375 160.19488525390625 206.44622802734375 160.19488525390625 206.44622802734375 " />
        <polyline stroke="black" stroke-width="3" stroke-linecap="round" fill="transparent" stroke-linejoin="round" points="96.95404052734376 169.5579071044922 109.9871826171875 165.21347045898438 128.58746337890625 161.41537475585938 143.77984619140625 160.1927032470703 154.8359375 162.22181701660156 158.8941650390625 164.01683044433594 158.8941650390625 164.01683044433594 " />
        <polyline stroke="black" stroke-width="3" stroke-linecap="round" fill="transparent" stroke-linejoin="round" points="100.46591186523438 206.75845336914065 116.02252197265624 203.220458984375 136.88601684570313 200.4369201660156 147.73403930664063 201.45147705078125 147.73403930664063 201.45147705078125 " />
        </svg>