<?xml version="1.0" standalone="no"?>
    <svg width="256" height="256" xmlns="http://www.w3.org/2000/svg" version="1.1">
    <polyline stroke="black" stroke-width="3" stroke-linecap="round" fill="transparent" stroke-linejoin="round" points="154.6981201171875 34.22642517089844 140.20758056640625 54.15093994140625 105.79248046875 68.64151000976563 95.8302001953125 72.26416015625 76.81134033203125 78.60379028320313 76.81134033203125 78.60379028320313 " />
        <polyline stroke="black" stroke-width="3" stroke-linecap="round" fill="transparent" stroke-linejoin="round" points="48.73577880859375 99.4339599609375 68.660400390625 96.71697998046876 76.81134033203125 108.49057006835938 77.7169189453125 114.8302001953125 76.81134033203125 132.03775024414063 71.37738037109375 170.98114013671875 63.2264404296875 198.15093994140625 52.3585205078125 221.6981201171875 43.30181884765625 240.71697998046875 34.24530029296875 251.58489990234375 30.6226806640625 253.396240234375 30.6226806640625 253.396240234375 " />
        <polyline stroke="black" stroke-width="3" stroke-linecap="round" fill="transparent" stroke-linejoin="round" points="78.6226806640625 129.32077026367188 88.5848388671875 151.9622802734375 97.64154052734376 190.9056701660156 100.3585205078125 198.15093994140625 104.88677978515624 209.01885986328125 107.603759765625 213.54718017578125 110.32073974609376 209.92449951171875 110.32073974609376 209.92449951171875 " />
        <polyline stroke="black" stroke-width="3" stroke-linecap="round" fill="transparent" stroke-linejoin="round" points="95.8302001953125 142 118.47174072265624 128.41510009765625 156.50946044921875 111.20755004882813 163.7547607421875 108.49057006835938 175.5283203125 103.9622802734375 183.67926025390625 103.9622802734375 187.3018798828125 110.30186462402344 188.20758056640625 121.16983032226563 184.5848388671875 143.81134033203125 180.056640625 160.11322021484375 173.7169189453125 174.60379028320313 163.7547607421875 190.9056701660156 157.41510009765625 197.24530029296875 153.79248046875 198.15093994140625 153.79248046875 198.15093994140625 " />
        <polyline stroke="black" stroke-width="3" stroke-linecap="round" fill="transparent" stroke-linejoin="round" points="104.88677978515624 165.54718017578125 127.5283203125 157.396240234375 146.54718017578125 150.15093994140625 150.1697998046875 148.33961486816406 154.6981201171875 147.4339599609375 155.603759765625 147.4339599609375 154.6981201171875 148.33961486816406 154.6981201171875 148.33961486816406 " />
        <polyline stroke="black" stroke-width="3" stroke-linecap="round" fill="transparent" stroke-linejoin="round" points="117.56597900390624 195.4339599609375 145.64154052734375 189.0943603515625 158.32073974609375 184.5660095214844 158.32073974609375 184.5660095214844 " />
        </svg>