<?xml version="1.0" standalone="no"?>
    <svg width="256" height="256" xmlns="http://www.w3.org/2000/svg" version="1.1">
    <polyline stroke="black" stroke-width="3" stroke-linecap="round" fill="transparent" stroke-linejoin="round" points="73.29827880859375 90.39894104003906 75.81625366210938 102.56927490234376 77.07528686523438 109.28392028808594 78.75396728515625 115.57891845703124 81.69158935546875 126.909912109375 82.53094482421875 130.68692016601563 82.95062255859375 134.4639129638672 82.95062255859375 134.8835906982422 82.11126708984375 133.62457275390625 81.27194213867188 129.00827026367188 81.69158935546875 121.45426940917967 85.04891967773438 112.22160339355467 91.76361083984376 102.14959716796876 103.51425170898438 90.818603515625 120.7205810546875 78.64828491210938 139.18588256835938 68.99594116210938 155.55291748046875 63.12060546875 166.4642333984375 60.182952880859375 171.919921875 60.60261535644531 174.8575439453125 64.37960815429688 174.01824951171875 76.13027954101563 165.62493896484375 93.75628662109376 151.77587890625 111.38226318359376 145.06124877929688 118.096923828125 145.06124877929688 118.096923828125 " />
        <polyline stroke="black" stroke-width="3" stroke-linecap="round" fill="transparent" stroke-linejoin="round" points="84.62924194335938 150.41123962402344 96.799560546875 143.6965789794922 110.22894287109376 137.82125854492188 130.79257202148438 129.8475799560547 141.70391845703125 125.6509246826172 146.73992919921875 123.55259704589844 151.77587890625 121.03459167480467 151.77587890625 121.03459167480467 " />
        <polyline stroke="black" stroke-width="3" stroke-linecap="round" fill="transparent" stroke-linejoin="round" points="142.962890625 46.333953857421875 139.60556030273438 61.44195556640625 137.50726318359375 71.51394653320313 134.9892578125 82.84494018554688 127.43524169921876 119.35592651367188 119.46160888671876 149.15225219726563 111.4879150390625 178.10923767089844 104.35360717773438 199.51223754882813 100.99627685546876 207.48590087890625 97.638916015625 213.3612060546875 97.638916015625 213.3612060546875 " />
        <polyline stroke="black" stroke-width="3" stroke-linecap="round" fill="transparent" stroke-linejoin="round" points="118.62225341796876 144.1162567138672 130.79257202148438 155.02757263183594 137.50726318359375 161.7422332763672 145.48089599609375 169.71591186523438 153.45458984375 177.68955993652344 167.7232666015625 192.37789916992188 179.8935546875 205.8072204589844 186.6082763671875 213.7808837890625 186.6082763671875 213.7808837890625 " />
        </svg>