<?xml version="1.0" standalone="no"?>
    <svg width="256" height="256" xmlns="http://www.w3.org/2000/svg" version="1.1">
    <polyline stroke="black" stroke-width="3" stroke-linecap="round" fill="transparent" stroke-linejoin="round" points="78.77117919921875 94.33273315429688 82.03936767578125 110.67381286621094 87.26849365234375 134.2049560546875 87.26849365234375 135.51223754882813 89.22943115234375 139.43411254882813 91.843994140625 138.7804412841797 96.41949462890624 132.2440185546875 96.41949462890624 132.2440185546875 " />
        <polyline stroke="black" stroke-width="3" stroke-linecap="round" fill="transparent" stroke-linejoin="round" points="93.80499267578124 110.67381286621094 106.22418212890624 93.67906188964844 127.1407470703125 84.528076171875 133.02362060546875 82.56712341308594 144.13543701171875 79.95256042480469 150.671875 79.29890441894531 155.2474365234375 81.25985717773438 157.86199951171875 87.79629516601563 157.86199951171875 98.908203125 152.6328125 113.94203186035156 144.78912353515625 128.32215881347656 136.94537353515625 139.43411254882813 134.9844970703125 140.7413787841797 134.9844970703125 140.7413787841797 " />
        <polyline stroke="black" stroke-width="3" stroke-linecap="round" fill="transparent" stroke-linejoin="round" points="91.843994140625 145.31689453125 114.06787109375 135.51223754882813 135.63812255859375 131.5903778076172 138.252685546875 130.93673706054688 148.71099853515625 125.70758056640624 153.94012451171875 121.132080078125 153.94012451171875 121.132080078125 " />
        <polyline stroke="black" stroke-width="3" stroke-linecap="round" fill="transparent" stroke-linejoin="round" points="129.75537109375 55.114105224609375 123.87249755859376 91.0644989013672 119.95068359375 139.43411254882813 117.98974609375 150.5460205078125 114.06787109375 161.657958984375 99.03411865234376 189.11102294921875 89.883056640625 202.8374938964844 85.30755615234375 212.6421813964844 85.30755615234375 217.2176513671875 85.30755615234375 217.2176513671875 " />
        <polyline stroke="black" stroke-width="3" stroke-linecap="round" fill="transparent" stroke-linejoin="round" points="121.91156005859376 164.2725372314453 140.213623046875 180.61363220214844 159.16925048828125 198.26199340820313 164.39837646484375 202.18389892578125 176.16400146484375 211.3348693847656 187.92962646484375 220.48587036132813 193.15869140625 225.0614013671875 193.15869140625 225.0614013671875 " />
        </svg>