<?xml version="1.0" standalone="no"?>
    <svg width="256" height="256" xmlns="http://www.w3.org/2000/svg" version="1.1">
    <polyline stroke="black" stroke-width="3" stroke-linecap="round" fill="transparent" stroke-linejoin="round" points="71.8221435546875 79.64045715332031 79.16751098632813 72.90721130371094 89.57342529296875 65.56184387207031 103.65203857421876 58.82859802246094 116.50640869140624 53.93169403076172 129.36080932617188 52.09535217285156 138.54251098632813 52.09535217285156 143.43942260742188 54.54380798339844 146.5 59.440704345703125 145.88787841796875 67.39817810058594 140.37884521484375 80.86468505859375 131.1971435546875 94.3311767578125 119.5670166015625 107.79766845703124 109.773193359375 118.20359802246094 109.773193359375 118.20359802246094 " />
        <polyline stroke="black" stroke-width="3" stroke-linecap="round" fill="transparent" stroke-linejoin="round" points="93.85821533203124 109.63400268554688 106.71261596679688 111.47035217285156 120.17910766601563 113.91880798339844 132.42138671875 116.9793701171875 142.2152099609375 122.48838806152344 142.2152099609375 122.48838806152344 " />
        <polyline stroke="black" stroke-width="3" stroke-linecap="round" fill="transparent" stroke-linejoin="round" points="79.16751098632813 164.11209106445313 73.04638671875 178.8028106689453 67.537353515625 193.4935302734375 65.08892822265625 206.96002197265625 64.476806640625 216.1417236328125 66.92523193359375 221.03863525390625 71.8221435546875 222.87496948242188 84.676513671875 217.97805786132813 103.65203857421876 207.5721435546875 119.5670166015625 197.7783203125 136.09405517578125 186.76028442382813 136.09405517578125 186.76028442382813 " />
        <polyline stroke="black" stroke-width="3" stroke-linecap="round" fill="transparent" stroke-linejoin="round" points="152.009033203125 173.90591430664063 155.68170166015625 183.08761596679688 159.3543701171875 193.4935302734375 164.25128173828125 210.6327209472656 164.25128173828125 210.6327209472656 " />
        </svg>