<?xml version="1.0" standalone="no"?>
    <svg width="256" height="256" xmlns="http://www.w3.org/2000/svg" version="1.1">
    <polyline stroke="black" stroke-width="3" stroke-linecap="round" fill="transparent" stroke-linejoin="round" points="91 75 90 74 89 74 95 72 105 70 115 67 119 67 134 64 148 62 158 61 163 61 165 61 165 62 161 69 152 80 142 94 136 104 136 104 " />
        <polyline stroke="black" stroke-width="3" stroke-linecap="round" fill="transparent" stroke-linejoin="round" points="121 102 120 100 121 100 124 102 129 107 136 113 143 122 144 124 144 124 " />
        <polyline stroke="black" stroke-width="3" stroke-linecap="round" fill="transparent" stroke-linejoin="round" points="109 118 109 124 107 129 101 145 94 160 88 170 85 177 84 179 86 179 91 179 99 178 106 177 109 176 119 175 129 174 137 174 144 174 148 173 149 172 148 172 147 172 146 171 146 171 " />
        <polyline stroke="black" stroke-width="3" stroke-linecap="round" fill="transparent" stroke-linejoin="round" points="138 144 138 143 139 146 143 155 146 168 149 177 151 180 154 185 154 185 " />
        </svg>