<?xml version="1.0" standalone="no"?>
    <svg width="256" height="256" xmlns="http://www.w3.org/2000/svg" version="1.1">
    <polyline stroke="black" stroke-width="3" stroke-linecap="round" fill="transparent" stroke-linejoin="round" points="64.96395874023438 78.17745971679688 81.4891357421875 71.68544006347656 110.40817260742188 61.062103271484375 128.11370849609375 56.34063720703125 149.3603515625 51.61915588378906 164.7052001953125 49.25841522216797 175.918701171875 48.66822814941406 182.41070556640625 49.25841522216797 185.9517822265625 51.02896881103515 185.9517822265625 51.02896881103515 " />
        <polyline stroke="black" stroke-width="3" stroke-linecap="round" fill="transparent" stroke-linejoin="round" points="68.50506591796875 129.52352905273438 78.5382080078125 124.80206298828124 92.11245727539063 118.90020751953124 109.22781372070313 111.8179931640625 126.34317016601563 106.50633239746094 144.0487060546875 103.55540466308594 161.1640625 104.14558410644533 174.73828125 110.04743957519533 184.771484375 120.08058166503906 192.44384765625 137.78611755371094 194.21441650390625 156.08184814453125 191.26348876953125 170.24627685546875 185.36163330078125 178.5088653564453 173.55792236328125 185.0008850097656 157.6229248046875 185.0008850097656 139.32720947265625 176.1481170654297 139.32720947265625 176.1481170654297 " />
        <polyline stroke="black" stroke-width="3" stroke-linecap="round" fill="transparent" stroke-linejoin="round" points="123.39224243164063 15.027702331542969 127.52352905273438 29.192138671875 129.2940673828125 45.717308044433594 129.2940673828125 81.12838745117188 128.11370849609375 112.40817260742188 127.52352905273438 145.45852661132813 128.70391845703125 172.6070098876953 129.88427734375 194.44384765625 131.65484619140625 210.37884521484375 131.65484619140625 218.64141845703125 129.88427734375 223.3628845214844 129.88427734375 223.3628845214844 " />
        <polyline stroke="black" stroke-width="3" stroke-linecap="round" fill="transparent" stroke-linejoin="round" points="71.45599365234375 150.17999267578125 83.849853515625 156.08184814453125 88.57135009765625 162.57388305664063 95.0633544921875 176.73831176757813 95.0633544921875 176.73831176757813 " />
        </svg>