<?xml version="1.0" standalone="no"?>
    <svg width="256" height="256" xmlns="http://www.w3.org/2000/svg" version="1.1">
    <polyline stroke="black" stroke-width="3" stroke-linecap="round" fill="transparent" stroke-linejoin="round" points="78.97686767578125 86.70616149902344 97.1297607421875 74.960205078125 114.74868774414063 65.34986877441406 129.1641845703125 56.2734375 140.37625122070313 49.3326416015625 145.71533203125 45.59529113769531 146.78314208984375 45.59529113769531 146.78314208984375 45.59529113769531 " />
        <polyline stroke="black" stroke-width="3" stroke-linecap="round" fill="transparent" stroke-linejoin="round" points="92.3245849609375 100.5877685546875 77.9090576171875 136.3595733642578 70.43435668945313 159.85150146484375 64.56137084960938 179.6060791015625 60.290130615234375 192.95376586914065 58.68841552734375 200.428466796875 57.086669921875 204.16583251953125 57.086669921875 204.16583251953125 " />
        <polyline stroke="black" stroke-width="3" stroke-linecap="round" fill="transparent" stroke-linejoin="round" points="92.3245849609375 143.8342742919922 102.46881103515624 136.3595733642578 115.2825927734375 127.81704711914063 125.96075439453124 121.41015625 132.90155029296875 118.74061584472656 136.10498046875 120.34234619140624 136.10498046875 133.69003295898438 130.76593017578125 173.73309326171875 129.1641845703125 194.0215759277344 129.1641845703125 208.43707275390625 131.2998046875 218.04742431640625 136.10498046875 222.85260009765625 146.24923706054688 223.92041015625 162.2664794921875 216.4457092285156 174.54632568359375 206.8353576660156 182.02105712890625 198.8267517089844 187.360107421875 189.75033569335935 189.4957275390625 183.34344482421875 188.96185302734375 178.0043487548828 184.15667724609375 173.19918823242188 184.15667724609375 173.19918823242188 " />
        </svg>