<?xml version="1.0" standalone="no"?>
    <svg width="256" height="256" xmlns="http://www.w3.org/2000/svg" version="1.1">
    <polyline stroke="black" stroke-width="3" stroke-linecap="round" fill="transparent" stroke-linejoin="round" points="79.15487670898438 77.937255859375 88.655029296875 73.80674743652344 99.394287109375 69.26318359375 110.13363647460938 65.1326904296875 146.48202514648438 51.50202941894531 152.2647705078125 49.43678283691406 160.9388427734375 46.13237762451172 165.0693359375 44.06712341308594 165.89544677734375 43.24102020263672 165.48236083984375 42.4149169921875 162.59100341796875 42.827972412109375 157.22137451171875 44.893218994140625 150.612548828125 49.849822998046875 141.52545166015625 58.93693542480469 129.13397216796875 76.69808959960938 115.50326538085938 108.08993530273438 103.9378662109375 135.3512420654297 94.024658203125 159.3081512451172 86.58978271484375 174.59100341796875 80.39401245117188 183.2650604248047 76.67657470703125 187.39556884765625 75.43743896484375 187.80862426757813 74.61129760742188 187.39556884765625 74.61129760742188 187.39556884765625 " />
        <polyline stroke="black" stroke-width="3" stroke-linecap="round" fill="transparent" stroke-linejoin="round" points="104.35092163085938 136.59039306640625 110.54669189453124 130.80767822265625 117.15548706054688 125.02496337890624 136.56884765625 110.56822204589844 146.06903076171875 104.78550720214844 151.85174560546875 102.30722045898438 154.7430419921875 103.13333129882813 157.22137451171875 120.48143005371094 155.5692138671875 146.9166259765625 154.7430419921875 167.56915283203125 157.6343994140625 182.02590942382813 164.65625 188.2216796875 177.04779052734375 189.87387084960935 191.09149169921875 185.330322265625 201.830810546875 177.89541625976563 209.6787109375 168.39524841308594 214.2222900390625 156.4167938232422 214.2222900390625 148.98190307617188 214.2222900390625 148.98190307617188 " />
        </svg>