<?xml version="1.0" standalone="no"?>
    <svg width="256" height="256" xmlns="http://www.w3.org/2000/svg" version="1.1">
    <polyline stroke="black" stroke-width="3" stroke-linecap="round" fill="transparent" stroke-linejoin="round" points="70.62777709960938 69.75764465332031 79.97857666015625 66.017333984375 99.80218505859376 59.6588134765625 109.5269775390625 57.41462707519531 127.1064453125 54.422386169433594 139.823486328125 52.55223083496094 147.67816162109375 51.05610656738281 149.92230224609375 50.30804443359375 149.92230224609375 50.30804443359375 " />
        <polyline stroke="black" stroke-width="3" stroke-linecap="round" fill="transparent" stroke-linejoin="round" points="82.22274780273438 113.89328002929688 72.49798583984375 134.8389892578125 62.773162841796875 153.91455078125 54.91851806640625 170.74594116210938 48.18597412109375 183.4629821777344 37.713104248046875 199.92034912109375 32.476654052734375 206.65289306640625 31.354583740234375 207.02691650390625 31.354583740234375 207.02691650390625 " />
        <polyline stroke="black" stroke-width="3" stroke-linecap="round" fill="transparent" stroke-linejoin="round" points="84.46697998046875 131.0986785888672 90.825439453125 129.228515625 97.93206787109376 126.98434448242188 105.03863525390624 124.74015808105467 123.36614990234376 120.25180053710938 130.47271728515625 120.99984741210938 135.33514404296875 128.10643005371094 139.823486328125 149.05215454101563 143.18978881835938 171.86802673339844 147.67816162109375 189.44747924804688 153.66259765625 199.5462951660156 162.63934326171875 204.40869140625 178.72265625 201.41644287109375 194.4320068359375 189.07342529296875 208.2711181640625 172.9901123046875 215.377685546875 158.77696228027344 215.377685546875 158.77696228027344 " />
        </svg>