<?xml version="1.0" standalone="no"?>
    <svg width="256" height="256" xmlns="http://www.w3.org/2000/svg" version="1.1">
    <polyline stroke="black" stroke-width="3" stroke-linecap="round" fill="transparent" stroke-linejoin="round" points="93.1700439453125 85.83631896972656 101.9774169921875 81.43260192871094 127.665771484375 71.15728759765625 137.9410400390625 67.48751831054688 142.3447265625 66.0196533203125 146.0145263671875 64.55172729492188 150.418212890625 62.34989929199219 150.418212890625 62.34989929199219 " />
        <polyline stroke="black" stroke-width="3" stroke-linecap="round" fill="transparent" stroke-linejoin="round" points="112.9866943359375 82.16656494140625 " />
        <polyline stroke="black" stroke-width="3" stroke-linecap="round" fill="transparent" stroke-linejoin="round" points="112 82 " />
        <polyline stroke="black" stroke-width="3" stroke-linecap="round" fill="transparent" stroke-linejoin="round" points="112.9866943359375 97.5795440673828 112.9866943359375 110.05673217773438 111.51885986328124 121.06600952148438 110.0509033203125 131.34130859375 109.31689453125 135.7450408935547 107.84906005859376 142.3505859375 106.381103515625 148.22219848632813 103.4453125 157.76358032226563 100.50958251953124 163.6351776123047 96.10577392578124 170.9746856689453 90.9681396484375 178.314208984375 85.83050537109375 186.38766479492188 74.8212890625 202.53460693359375 74.8212890625 202.53460693359375 " />
        <polyline stroke="black" stroke-width="3" stroke-linecap="round" fill="transparent" stroke-linejoin="round" points="130.6015625 109.32276916503906 143.812744140625 107.12091064453124 152.6201171875 104.9190673828125 159.9595947265625 103.45114135742188 163.62939453125 101.98324584960938 166.565185546875 100.5153350830078 167.2991943359375 100.5153350830078 168.0330810546875 100.5153350830078 168.0330810546875 103.45114135742188 165.831298828125 114.46043395996094 161.427490234375 131.34130859375 157.0238037109375 145.28639221191406 153.35400390625 157.76358032226563 151.88623046875 168.0388946533203 151.88623046875 172.442626953125 154.8218994140625 178.314208984375 159.2257080078125 182.71792602539065 170.23486328125 187.12164306640625 183.446044921875 190.05743408203125 197.3912353515625 191.52532958984375 208.4002685546875 192.9932556152344 214.27197265625 193.72720336914065 220.1435546875 193.72720336914065 228.2171630859375 193.72720336914065 231.1529541015625 193.72720336914065 231.88671875 193.72720336914065 232.620849609375 193.72720336914065 232.620849609375 192.9932556152344 232.620849609375 190.7914123535156 226.01513671875 160.69937133789063 226.01513671875 160.69937133789063 " />
        </svg>