<?xml version="1.0" standalone="no"?>
    <svg width="256" height="256" xmlns="http://www.w3.org/2000/svg" version="1.1">
    <polyline stroke="black" stroke-width="3" stroke-linecap="round" fill="transparent" stroke-linejoin="round" points="68.10638427734375 94.46432495117188 75.16851806640625 92.11029052734376 82.9031982421875 89.41995239257813 97.0274658203125 85.04815673828125 113.16943359375 80.67637634277344 134.69210815429688 74.62313842773438 151.843017578125 69.57876586914063 162.26800537109375 67.22470092773438 165.294677734375 65.87954711914063 164.2857666015625 65.54325866699219 157.2236328125 66.21583557128906 144.10824584960938 70.58763122558594 131.32919311523438 77.64974975585938 121.91302490234376 85.38446044921875 111.82431030273438 96.48207092285156 101.73553466796876 112.28776550292967 90.97421264648438 131.12010192871094 78.53143310546875 155.33309936523438 72.814453125 166.7670135498047 63.398284912109375 186.27191162109375 63.398284912109375 186.27191162109375 " />
        <polyline stroke="black" stroke-width="3" stroke-linecap="round" fill="transparent" stroke-linejoin="round" points="93.66455078125 147.598388671875 106.7799072265625 141.20884704589844 138.72763061523438 126.0757293701172 145.45346069335938 124.73056030273438 149.48895263671875 126.0757293701172 152.51556396484375 132.8015594482422 154.86962890625 145.24435424804688 156.21478271484375 159.36859130859375 157.896240234375 172.48397827148438 160.9228515625 184.25418090820313 165.294677734375 192.99777221679688 170.67529296875 198.04214477539065 179.41888427734375 200.73245239257813 183.79071044921875 200.39617919921875 194.8883056640625 192.99777221679688 205.3133544921875 169.12103271484375 209.0125732421875 138.85479736328125 209.0125732421875 138.85479736328125 " />
        </svg>