<?xml version="1.0" standalone="no"?>
    <svg width="256" height="256" xmlns="http://www.w3.org/2000/svg" version="1.1">
    <polyline stroke="black" stroke-width="3" stroke-linecap="round" fill="transparent" stroke-linejoin="round" points="49.71807861328125 113.77099609375 53.02410888671875 116.22966003417967 53.974609375 116.80081176757813 " />
        <polyline stroke="black" stroke-width="3" stroke-linecap="round" fill="transparent" stroke-linejoin="round" points="79.41717529296875 85.76791381835938 93.094970703125 82.3111572265625 99.9178466796875 82.79940795898438 101.18365478515624 83.54888916015625 101.5347900390625 84.60111999511719 101.473876953125 87.03628540039063 101.38079833984376 88.71406555175781 100.200927734375 95.20306396484376 96.22119140625 103.91680908203124 93.69638061523438 107.69171142578124 89.86846923828125 111.33067321777344 89.3851318359375 111.79014587402344 " />
        <polyline stroke="black" stroke-width="3" stroke-linecap="round" fill="transparent" stroke-linejoin="round" points="86.059814453125 116.84820556640624 87.47918701171875 116.32696533203124 88.06930541992188 116.1102294921875 " />
        <polyline stroke="black" stroke-width="3" stroke-linecap="round" fill="transparent" stroke-linejoin="round" points="42.96282958984375 177.34091186523438 44.057464599609375 183.8080139160156 44.7479248046875 189.4530029296875 45.893890380859375 195.92807006835935 46.0245361328125 196.08627319335935 " />
        <polyline stroke="black" stroke-width="3" stroke-linecap="round" fill="transparent" stroke-linejoin="round" points="74.83148193359375 140.3299560546875 82.34228515625 138.27157592773438 98.5535888671875 135.34967041015625 110.41571044921876 136.49192810058594 118.99069213867188 138.97662353515625 122.64208984375 140.17454528808594 126.82553100585938 141.63040161132813 127.89666748046876 142.438720703125 129.2513427734375 144.29476928710938 129.94293212890625 146.20970153808594 131.2353515625 154.25677490234375 129.92327880859375 160.48345947265625 120.25411987304688 172.748291015625 118.33013916015624 174.54356384277344 118.25839233398438 174.13951110839844 " />
        <polyline stroke="black" stroke-width="3" stroke-linecap="round" fill="transparent" stroke-linejoin="round" points="74.088134765625 186.85598754882813 81.7294921875 184.77362060546875 95.9345703125 180.9371795654297 101.44369506835938 178.98306274414063 101.53436279296876 178.93821716308594 " />
        <polyline stroke="black" stroke-width="3" stroke-linecap="round" fill="transparent" stroke-linejoin="round" points="81.74017333984375 88.51443481445313 83.005615234375 134.25283813476563 83.31414794921875 158.9410858154297 82.71603393554688 203.9404296875 82.06427001953125 222.1580810546875 81.10882568359375 239.44854736328125 82.2471923828125 244.15753173828125 82.36102294921875 244.62844848632813 " />
        <polyline stroke="black" stroke-width="3" stroke-linecap="round" fill="transparent" stroke-linejoin="round" points="140.20199584960938 100.40957641601563 147.00897216796875 98.1836395263672 153.974365234375 96.14598083496094 163.79290771484375 92.6323699951172 167.205810546875 90.77798461914063 170.66644287109375 88.83932495117188 170.9049072265625 88.76055908203125 " />
        <polyline stroke="black" stroke-width="3" stroke-linecap="round" fill="transparent" stroke-linejoin="round" points="151.607177734375 102.37255859375 151.142822265625 125.41970825195313 149.62338256835938 150.8367156982422 146.80892944335938 176.38583374023438 140.69482421875 209.65914916992188 135.040283203125 225.20660400390625 133.23934936523438 227.70849609375 128.01571655273438 230.80612182617188 128.239501953125 228.28433227539065 " />
        <polyline stroke="black" stroke-width="3" stroke-linecap="round" fill="transparent" stroke-linejoin="round" points="155.625244140625 189.75778198242188 165.2498779296875 201.344970703125 168.707275390625 206.39825439453125 171.0389404296875 211.79302978515625 171.1876220703125 212.1758728027344 " />
        <polyline stroke="black" stroke-width="3" stroke-linecap="round" fill="transparent" stroke-linejoin="round" points="187.18408203125 129.5777587890625 194.13909912109375 128.5384979248047 199.7843017578125 127.46788024902344 203.074951171875 126.4669189453125 223.1466064453125 120.87181091308594 226.638916015625 120.17051696777344 " />
        <polyline stroke="black" stroke-width="3" stroke-linecap="round" fill="transparent" stroke-linejoin="round" points="176.921875 93.2456512451172 176.925537109375 112.8625946044922 176.95257568359375 132.45565795898438 176.0172119140625 156.01663208007813 174.764892578125 189.60140991210935 173.353759765625 206.86544799804688 172.40484619140625 215.5413818359375 171.0775146484375 224.86041259765625 171.0399169921875 225.130859375 " />
        <polyline stroke="black" stroke-width="3" stroke-linecap="round" fill="transparent" stroke-linejoin="round" points="191.21826171875 168.6676483154297 202.63800048828125 187.64309692382813 208.6446533203125 200.03955078125 229.4368896484375 229.7657470703125 232.45257568359375 231.8290100097656 " />
        </svg>