<?xml version="1.0" standalone="no"?>
    <svg width="256" height="256" xmlns="http://www.w3.org/2000/svg" version="1.1">
    <polyline stroke="black" stroke-width="3" stroke-linecap="round" fill="transparent" stroke-linejoin="round" points="52.62542724609375 88.61334228515625 52.62542724609375 91.22789001464844 53.279052734375 103.64712524414063 53.93267822265625 105.60806274414063 55.89361572265625 105.60806274414063 59.16180419921875 100.37890625 61.77642822265625 93.18882751464844 67.00555419921875 81.42324829101563 74.1956787109375 73.57952880859375 85.961181640625 68.35038757324219 95.765869140625 67.0430908203125 103.609619140625 68.35038757324219 108.8387451171875 70.9649658203125 110.14605712890624 78.155029296875 103.609619140625 92.53518676757813 91.843994140625 103.64712524414063 79.42474365234375 111.49085998535156 69.6201171875 114.7590789794922 63.7373046875 115.41270446777344 61.77642822265625 115.41270446777344 63.7373046875 115.41270446777344 68.96649169921875 116.06634521484376 76.15655517578125 115.41270446777344 85.30755615234375 112.7981414794922 92.4976806640625 112.1444854736328 97.72674560546876 115.41270446777344 97.72674560546876 115.41270446777344 " />
        <polyline stroke="black" stroke-width="3" stroke-linecap="round" fill="transparent" stroke-linejoin="round" points="53.93267822265625 152.0167236328125 53.93267822265625 152.6703643798828 53.93267822265625 154.6313018798828 57.8546142578125 153.97769165039063 61.122802734375 152.6703643798828 69.6201171875 149.4021453857422 78.11749267578125 146.13394165039063 92.4976806640625 142.86572265625 97.07318115234376 143.5193634033203 100.99505615234376 148.09487915039063 99.03411865234376 152.6703643798828 92.4976806640625 159.20681762695313 79.42474365234375 165.089599609375 68.3128662109375 167.050537109375 60.4691162109375 166.39688110351563 55.23992919921875 165.7432403564453 54.58636474609375 165.089599609375 61.77642822265625 164.4359588623047 72.88836669921875 160.5141143798828 84.00030517578125 153.97769165039063 95.11224365234376 143.5193634033203 95.11224365234376 143.5193634033203 " />
        <polyline stroke="black" stroke-width="3" stroke-linecap="round" fill="transparent" stroke-linejoin="round" points="82.6929931640625 72.92588806152344 82.6929931640625 76.84774780273438 82.6929931640625 125.21734619140624 82.6929931640625 132.4074249267578 82.03936767578125 161.16775512695313 81.38568115234375 187.96713256835935 80.73211669921875 199.73272705078125 80.07843017578125 204.96185302734375 82.6929931640625 204.96185302734375 90.53680419921876 199.07907104492188 90.53680419921876 199.07907104492188 " />
        <polyline stroke="black" stroke-width="3" stroke-linecap="round" fill="transparent" stroke-linejoin="round" points="120.60430908203124 116.06634521484376 138.90631103515625 105.60806274414063 140.86724853515625 104.30076599121094 151.97918701171875 101.68620300292967 161.78387451171875 99.72526550292967 166.35931396484375 96.45704650878906 166.35931396484375 96.45704650878906 " />
        <polyline stroke="black" stroke-width="3" stroke-linecap="round" fill="transparent" stroke-linejoin="round" points="129.1016845703125 105.60806274414063 127.1407470703125 110.8372039794922 113.41424560546876 155.28494262695313 112.10693359375 160.5141143798828 106.22418212890624 182.7379608154297 103.609619140625 192.54263305664065 104.9168701171875 194.5035400390625 108.8387451171875 189.92807006835935 108.8387451171875 189.92807006835935 " />
        <polyline stroke="black" stroke-width="3" stroke-linecap="round" fill="transparent" stroke-linejoin="round" points="138.90631103515625 169.01145935058594 140.86724853515625 170.3187713623047 151.3255615234375 173.5869903564453 151.3255615234375 173.5869903564453 " />
        <polyline stroke="black" stroke-width="3" stroke-linecap="round" fill="transparent" stroke-linejoin="round" points="155.2474365234375 119.98820495605467 172.24212646484375 110.8372039794922 178.12493896484375 108.8762664794922 190.54412841796875 104.95443725585938 203.61700439453125 99.72526550292967 210.1534423828125 93.8424835205078 210.1534423828125 93.8424835205078 " />
        <polyline stroke="black" stroke-width="3" stroke-linecap="round" fill="transparent" stroke-linejoin="round" points="176.16400146484375 98.41799926757813 173.5494384765625 103.64712524414063 150.671875 154.6313018798828 148.71099853515625 161.16775512695313 140.213623046875 189.2744140625 136.94537353515625 200.3863220214844 138.252685546875 208.2300720214844 142.82818603515625 205.615478515625 142.82818603515625 205.615478515625 " />
        <polyline stroke="black" stroke-width="3" stroke-linecap="round" fill="transparent" stroke-linejoin="round" points="180.739501953125 164.4359588623047 195.77325439453125 194.5035400390625 200.34881591796875 203.65457153320313 208.19256591796875 216.0738220214844 208.19256591796875 216.0738220214844 " />
        </svg>