<?xml version="1.0" standalone="no"?>
    <svg width="256" height="256" xmlns="http://www.w3.org/2000/svg" version="1.1">
    <polyline stroke="black" stroke-width="3" stroke-linecap="round" fill="transparent" stroke-linejoin="round" points="52.738861083984375 87.84744262695313 52.738861083984375 91.00563049316406 52.344085693359375 93.374267578125 51.949310302734375 95.34814453125 51.949310302734375 98.1115264892578 52.344085693359375 97.71676635742188 54.712738037109375 94.95335388183594 61.423828125 86.26837158203125 71.29315185546875 74.03042602539063 81.95199584960938 62.976806640625 92.216064453125 55.47612762451172 100.11154174804688 52.31794738769531 102.87493896484376 51.92317962646485 108.4017333984375 53.10749816894531 109.9808349609375 55.08135223388672 109.5860595703125 60.21339416503906 102.48016357421876 70.47747802734375 88.26837158203125 82.32064819335938 72.47747802734375 92.9794921875 60.63427734375 100.48014831542967 54.712738037109375 103.63835144042967 52.738861083984375 104.42788696289063 52.344085693359375 104.42788696289063 55.502288818359375 103.63835144042967 65.37158203125 101.26971435546876 78.3990478515625 98.1115264892578 91.8212890625 95.34814453125 96.55859375 94.55857849121094 102.87493896484376 93.76904296875 105.24359130859376 93.374267578125 105.24359130859376 93.374267578125 " />
        <polyline stroke="black" stroke-width="3" stroke-linecap="round" fill="transparent" stroke-linejoin="round" points="51.554534912109375 129.69332885742188 48.7911376953125 134.82534790039063 41.29046630859375 149.82669067382813 38.527069091796875 154.95872497558594 37.737518310546875 156.14305114746094 37.342742919921875 156.53781127929688 38.921844482421875 154.95872497558594 46.02777099609375 148.2476043701172 59.45001220703125 137.1939697265625 81.95199584960938 121.7978515625 88.66314697265625 118.63967895507813 97.74288940429688 115.87628173828124 102.48016357421876 115.87628173828124 103.66448974609376 118.2449188232422 94.18994140625 132.4567108154297 80.3729248046875 144.69464111328125 67.34542846679688 154.16917419433594 63.0029296875 156.93258666992188 57.87091064453125 160.09075927734375 56.686614990234375 160.48553466796875 57.08135986328125 160.48553466796875 62.21337890625 160.09075927734375 73.26702880859375 158.51168823242188 85.89974975585938 155.35350036621094 100.90109252929688 146.27374267578125 100.90109252929688 146.27374267578125 " />
        <polyline stroke="black" stroke-width="3" stroke-linecap="round" fill="transparent" stroke-linejoin="round" points="92.61083984375 52.71272277832031 91.8212890625 67.31930541992188 88.66314697265625 115.87628173828124 87.47882080078125 130.87762451171875 85.50497436523438 160.09075927734375 83.92587280273438 183.777099609375 82.74154663085938 193.64642333984375 80.3729248046875 206.27911376953125 78.7938232421875 211.80593872070313 78.7938232421875 211.80593872070313 " />
        <polyline stroke="black" stroke-width="3" stroke-linecap="round" fill="transparent" stroke-linejoin="round" points="113.13900756835938 114.69195556640624 119.45538330078124 111.92857360839844 132.48284912109375 107.5860595703125 149.45806884765625 102.84880065917967 153.800537109375 100.87492370605467 153.800537109375 100.87492370605467 " />
        <polyline stroke="black" stroke-width="3" stroke-linecap="round" fill="transparent" stroke-linejoin="round" points="147.08944702148438 75.21473693847656 141.56259155273438 87.84744262695313 136.03582763671875 100.08541870117188 124.58740234375 126.14036560058594 115.11288452148438 147.4580535888672 111.5599365234375 155.35350036621094 108.4017333984375 161.6698455810547 104.45404052734376 168.3809814453125 103.26971435546876 169.56529235839844 103.66448974609376 167.9862060546875 107.61224365234376 160.88031005859375 111.95468139648438 155.35350036621094 117.08676147460938 151.01101684570313 122.613525390625 148.6423797607422 129.32470703125 149.43191528320313 136.43060302734375 152.98486328125 143.53646850585938 158.11691284179688 148.27377319335938 162.4593963623047 150.24761962890625 164.43325805664063 150.24761962890625 164.43325805664063 " />
        <polyline stroke="black" stroke-width="3" stroke-linecap="round" fill="transparent" stroke-linejoin="round" points="176.3026123046875 108.77037048339844 181.4345703125 107.5860595703125 187.356201171875 107.19131469726563 206.3052978515625 107.19131469726563 211.83203125 107.9808349609375 223.28045654296875 107.5860595703125 226.43865966796875 105.21743774414063 226.43865966796875 105.21743774414063 " />
        <polyline stroke="black" stroke-width="3" stroke-linecap="round" fill="transparent" stroke-linejoin="round" points="207.0948486328125 65.74020385742188 199.1993408203125 91.00563049316406 194.46209716796875 105.21743774414063 183.80322265625 135.22012329101563 178.2764892578125 149.03713989257813 172.7496337890625 161.27508544921875 163.66986083984375 180.22415161132813 158.537841796875 190.09344482421875 156.169189453125 194.04119873046875 156.169189453125 194.04119873046875 " />
        <polyline stroke="black" stroke-width="3" stroke-linecap="round" fill="transparent" stroke-linejoin="round" points="197.62030029296875 145.08941650390625 200.7784423828125 152.1953125 204.7261962890625 160.09075927734375 213.805908203125 177.0659637451172 218.543212890625 185.356201171875 223.67523193359375 193.64642333984375 234.3341064453125 210.22683715820313 240.65045166015625 220.49090576171875 240.65045166015625 220.49090576171875 " />
        </svg>