<?xml version="1.0" standalone="no"?>
    <svg width="256" height="256" xmlns="http://www.w3.org/2000/svg" version="1.1">
    <polyline stroke="black" stroke-width="3" stroke-linecap="round" fill="transparent" stroke-linejoin="round" points="59.949737548828125 83.92524719238281 70.9677734375 75.9677734375 85.04638671875 66.78607177734375 100.34921264648438 56.38014221191406 115.0399169921875 46.586334228515625 125.44586181640624 39.85308074951172 130.95489501953125 36.18040466308594 133.4033203125 34.34406280517578 132.79119873046875 34.34406280517578 128.50640869140625 36.792518615722656 122.99740600585938 42.91365051269531 117.4884033203125 50.871124267578125 109.53091430664063 64.94973754882813 98.51287841796876 85.76158142089844 85.65850830078125 113.3066864013672 71.57989501953125 145.13658142089844 60.56182861328125 169.62110900878906 53.82861328125 186.14816284179688 51.380126953125 192.26931762695313 49.5438232421875 195.32986450195313 51.380126953125 192.26931762695313 55.052825927734375 184.9239501953125 64.23452758789063 167.78477478027344 73.41622924804688 156.1546173095703 82.59793090820313 145.74868774414063 94.8402099609375 136.56700134277344 106.4703369140625 131.6700897216797 116.26416015625 131.05796813964844 123.60952758789063 134.73065185546875 130.95489501953125 150.0334930419922 128.50640869140625 177.57858276367188 119.93682861328124 195.32986450195313 113.20361328125 202.0631103515625 103.4097900390625 205.12368774414065 97.28863525390624 200.83889770507813 93.00384521484376 178.19070434570313 93.00384521484376 178.19070434570313 " />
        <polyline stroke="black" stroke-width="3" stroke-linecap="round" fill="transparent" stroke-linejoin="round" points="127.89431762695313 82.70101928710938 136.46389770507813 77.19200134277344 149.93038940429688 69.23452758789063 166.45745849609375 60.052825927734375 181.76025390625 51.48323822021485 195.226806640625 44.13787841796875 202.5721435546875 40.46519470214844 206.85693359375 38.62886047363281 206.85693359375 38.62886047363281 202.5721435546875 42.301536560058594 195.226806640625 47.81055450439453 188.4935302734375 55.155914306640625 180.53607177734375 67.39817810058594 171.96649169921875 85.14947509765625 161.560546875 110.24612426757813 149.31829833984375 142.07601928710938 141.972900390625 165.9484405517578 138.30023193359375 186.76028442382813 137.07601928710938 197.16622924804688 137.07601928710938 202.67523193359375 140.1365966796875 202.67523193359375 140.1365966796875 202.67523193359375 " />
        <polyline stroke="black" stroke-width="3" stroke-linecap="round" fill="transparent" stroke-linejoin="round" points="162.17266845703125 136.56700134277344 176.8634033203125 126.16107177734376 184.82086181640625 120.03993225097656 192.7783203125 115.75514221191406 199.5115966796875 113.91880798339844 204.408447265625 116.36724853515624 207.46905517578125 126.16107177734376 208.6932373046875 145.13658142089844 210.5296630859375 164.11209106445313 212.97802734375 177.57858276367188 216.6507568359375 186.76028442382813 220.935546875 192.88140869140625 225.83245849609375 196.5541076660156 230.7293701171875 196.5541076660156 234.40203857421875 191.65719604492188 235.626220703125 177.57858276367188 233.1778564453125 158.6030731201172 233.1778564453125 158.6030731201172 " />
        </svg>