<?xml version="1.0" standalone="no"?>
    <svg width="256" height="256" xmlns="http://www.w3.org/2000/svg" version="1.1">
    <polyline stroke="black" stroke-width="3" stroke-linecap="round" fill="transparent" stroke-linejoin="round" points="46.77099609375 90.17994689941406 60.544464111328125 83.01774597167969 71.56326293945313 78.6102294921875 85.33673095703125 72.54989624023438 101.86492919921876 66.48956298828125 117.8421630859375 60.429229736328125 128.8609619140625 55.47076416015625 134.92129516601563 52.71607208251953 138.2269287109375 52.71607208251953 138.2269287109375 52.71607208251953 " />
        <polyline stroke="black" stroke-width="3" stroke-linecap="round" fill="transparent" stroke-linejoin="round" points="98.00836181640624 90.17994689941406 93.600830078125 97.8931121826172 87.54049682617188 110.56471252441406 75.97076416015625 139.21356201171875 64.95196533203125 166.76052856445313 56.687896728515625 188.79812622070313 51.72943115234375 205.3262939453125 48.423797607421875 215.24319458007813 46.77099609375 219.65072631835935 46.77099609375 219.65072631835935 " />
        <polyline stroke="black" stroke-width="3" stroke-linecap="round" fill="transparent" stroke-linejoin="round" points="76.521728515625 143.0701446533203 83.68389892578125 137.0098114013672 91.947998046875 130.39852905273438 100.21209716796876 124.33819580078124 107.92526245117188 120.48162841796876 114.53652954101563 118.27786254882813 120.04592895507813 118.27786254882813 124.45343017578124 121.03256225585938 126.65719604492188 129.84759521484375 126.65719604492188 145.82484436035156 122.24969482421876 163.45489501953125 115.638427734375 175.5755615234375 110.1290283203125 183.28872680664065 104.61962890625 187.14529418945313 99.66116333007813 187.14529418945313 95.80459594726563 181.63589477539065 95.80459594726563 181.63589477539065 " />
        <polyline stroke="black" stroke-width="3" stroke-linecap="round" fill="transparent" stroke-linejoin="round" points="147.5928955078125 70.89707946777344 157.50982666015625 67.04049682617188 167.9776611328125 63.73486328125 177.3436279296875 60.98016357421875 185.0567626953125 58.776397705078125 190.566162109375 57.12358093261719 194.97369384765625 54.919830322265625 196.62652587890625 54.919830322265625 196.62652587890625 54.919830322265625 " />
        <polyline stroke="black" stroke-width="3" stroke-linecap="round" fill="transparent" stroke-linejoin="round" points="186.7095947265625 66.48956298828125 177.3436279296875 83.01774597167969 169.6304931640625 97.8931121826172 155.85699462890625 126.54196166992188 145.38916015625 149.13047790527344 137.67596435546875 168.41336059570313 131.61566162109375 183.83966064453125 128.30999755859375 193.20562744140625 126.65719604492188 198.16409301757813 126.65719604492188 199.26596069335935 126.65719604492188 199.26596069335935 " />
        <polyline stroke="black" stroke-width="3" stroke-linecap="round" fill="transparent" stroke-linejoin="round" points="159.16259765625 119.93067932128906 172.38519287109375 118.27786254882813 177.89453125 117.1759796142578 182.85302734375 116.07411193847656 186.15869140625 117.1759796142578 188.913330078125 119.37974548339844 190.0152587890625 125.9910125732422 188.913330078125 141.41732788085938 185.60772705078125 160.7001953125 183.4039306640625 176.1265106201172 182.30206298828125 188.79812622070313 183.4039306640625 198.16409301757813 185.60772705078125 204.22442626953125 190.566162109375 209.182861328125 198.83026123046875 212.48849487304688 210.4000244140625 213.59039306640625 220.31689453125 211.93756103515625 226.377197265625 208.6319274902344 231.8865966796875 204.77536010742188 236.294189453125 199.81689453125 238.4979248046875 194.3074951171875 239.048828125 183.83966064453125 234.09039306640625 165.65866088867188 226.92816162109375 138.66262817382813 226.92816162109375 138.66262817382813 " />
        </svg>