<?xml version="1.0" standalone="no"?>
    <svg width="256" height="256" xmlns="http://www.w3.org/2000/svg" version="1.1">
    <polyline stroke="black" stroke-width="3" stroke-linecap="round" fill="transparent" stroke-linejoin="round" points="68.46530151367188 105.8544921875 72.86172485351563 102.6571044921875 82.45388793945313 96.66200256347656 94.44406127929688 88.66854858398438 102.83718872070313 83.87246704101563 110.43096923828124 79.47605895996094 110.43096923828124 79.47605895996094 " />
        <polyline stroke="black" stroke-width="3" stroke-linecap="round" fill="transparent" stroke-linejoin="round" points="64.86822509765625 77.07801818847656 67.66595458984375 77.47769165039063 70.46371459960938 77.47769165039063 70.46371459960938 77.47769165039063 " />
        <polyline stroke="black" stroke-width="3" stroke-linecap="round" fill="transparent" stroke-linejoin="round" points="92.0460205078125 61.09111022949219 88.04928588867188 83.0731201171875 86.05093383789063 91.8659210205078 78.4571533203125 122.6407470703125 66.4669189453125 153.81524658203125 55.276092529296875 181.3926696777344 45.284271240234375 202.1756591796875 40.088531494140625 214.5655517578125 40.088531494140625 214.5655517578125 " />
        <polyline stroke="black" stroke-width="3" stroke-linecap="round" fill="transparent" stroke-linejoin="round" points="83.65289306640625 97.06167602539063 89.64797973632813 128.23617553710938 94.44406127929688 154.61459350585938 98.4407958984375 172.59988403320313 101.63815307617188 192.18386840820313 104.03619384765624 204.57369995117188 105.2352294921875 210.96847534179688 105.2352294921875 210.96847534179688 " />
        <polyline stroke="black" stroke-width="3" stroke-linecap="round" fill="transparent" stroke-linejoin="round" points="119.2237548828125 123.04043579101563 136.40972900390625 134.6309356689453 148.39990234375 139.82667541503906 148.39990234375 139.82667541503906 " />
        <polyline stroke="black" stroke-width="3" stroke-linecap="round" fill="transparent" stroke-linejoin="round" points="165.58587646484375 114.2476043701172 163.9871826171875 144.2230987548828 159.1910400390625 167.4041290283203 151.5972900390625 185.7890625 144.00350952148438 201.7759704589844 139.20742797851563 210.16915893554688 135.210693359375 213.36651611328125 135.210693359375 213.36651611328125 " />
        <polyline stroke="black" stroke-width="3" stroke-linecap="round" fill="transparent" stroke-linejoin="round" points="181.97247314453125 85.87083435058594 185.96917724609375 84.27212524414063 188.3671875 83.0731201171875 188.3671875 83.0731201171875 " />
        <polyline stroke="black" stroke-width="3" stroke-linecap="round" fill="transparent" stroke-linejoin="round" points="173.97894287109375 127.03717041015624 191.1649169921875 119.04368591308594 202.35577392578125 113.8479461669922 209.15020751953125 109.4515380859375 209.15020751953125 109.4515380859375 " />
        <polyline stroke="black" stroke-width="3" stroke-linecap="round" fill="transparent" stroke-linejoin="round" points="199.95770263671875 81.07475280761719 203.95440673828125 117.44500732421876 206.752197265625 146.22146606445313 208.75048828125 170.20184326171875 209.9495849609375 192.98321533203125 210.34918212890625 208.17074584960935 209.9495849609375 224.15765380859375 209.54986572265625 229.75311279296875 209.54986572265625 229.75311279296875 " />
        </svg>