<?xml version="1.0" standalone="no"?>
    <svg width="256" height="256" xmlns="http://www.w3.org/2000/svg" version="1.1">
    <polyline stroke="black" stroke-width="3" stroke-linecap="round" fill="transparent" stroke-linejoin="round" points="72.38104248046875 90.5742645263672 73.6883544921875 91.88156127929688 79.5711669921875 94.49612426757813 81.5321044921875 94.49612426757813 91.3367919921875 94.49612426757813 91.3367919921875 94.49612426757813 " />
        <polyline stroke="black" stroke-width="3" stroke-linecap="round" fill="transparent" stroke-linejoin="round" points="91.3367919921875 95.1497802734375 88.06854248046875 98.41799926757813 67.15191650390625 115.41270446777344 63.23004150390625 118.68092346191406 58.65460205078125 122.602783203125 56.03997802734375 124.56373596191406 55.38641357421875 125.21734619140624 58.65460205078125 124.56373596191406 61.92279052734375 123.25642395019533 77.6102294921875 116.06634521484376 91.3367919921875 108.8762664794922 100.48773193359376 103.64712524414063 113.56060791015624 94.49612426757813 118.78973388671876 85.34513854980469 118.78973388671876 85.34513854980469 " />
        <polyline stroke="black" stroke-width="3" stroke-linecap="round" fill="transparent" stroke-linejoin="round" points="84.80029296875 66.38945007324219 84.80029296875 70.31130981445313 86.10760498046875 107.56898498535156 86.76116943359375 113.45176696777344 90.0294189453125 144.1730194091797 91.9903564453125 165.7432403564453 92.64398193359376 169.6651153564453 91.9903564453125 191.23532104492188 91.9903564453125 190.58169555664065 91.9903564453125 186.65985107421875 91.9903564453125 186.65985107421875 " />
        <polyline stroke="black" stroke-width="3" stroke-linecap="round" fill="transparent" stroke-linejoin="round" points="65.84466552734375 138.94387817382813 64.53729248046875 142.2120819091797 56.693603515625 161.16775512695313 54.732666015625 164.4359588623047 52.771728515625 168.35781860351563 52.771728515625 169.01145935058594 56.03997802734375 167.050537109375 59.3082275390625 164.4359588623047 59.3082275390625 164.4359588623047 " />
        <polyline stroke="black" stroke-width="3" stroke-linecap="round" fill="transparent" stroke-linejoin="round" points="107.024169921875 139.59751892089844 118.78973388671876 140.90481567382813 129.24798583984375 133.7147216796875 129.24798583984375 133.7147216796875 " />
        <polyline stroke="black" stroke-width="3" stroke-linecap="round" fill="transparent" stroke-linejoin="round" points="135.13079833984375 74.88682556152344 135.13079833984375 80.76962280273438 135.13079833984375 123.91007995605467 135.78448486328125 129.79286193847656 136.4381103515625 145.4803009033203 137.745361328125 169.01145935058594 138.3990478515625 176.85520935058594 139.706298828125 182.7379608154297 144.2818603515625 179.46975708007813 144.2818603515625 179.46975708007813 " />
        <polyline stroke="black" stroke-width="3" stroke-linecap="round" fill="transparent" stroke-linejoin="round" points="153.43280029296875 102.99348449707033 154.08648681640625 102.99348449707033 156.7010498046875 105.60806274414063 156.7010498046875 108.8762664794922 156.04742431640625 110.8372039794922 156.04742431640625 110.8372039794922 " />
        <polyline stroke="black" stroke-width="3" stroke-linecap="round" fill="transparent" stroke-linejoin="round" points="165.19842529296875 126.52464294433594 179.57855224609375 114.1054229736328 180.8858642578125 112.1444854736328 180.8858642578125 112.1444854736328 " />
        <polyline stroke="black" stroke-width="3" stroke-linecap="round" fill="transparent" stroke-linejoin="round" points="163.89111328125 87.95968627929688 164.5447998046875 93.8424835205078 169.12030029296875 130.44650268554688 170.42755126953125 136.3292999267578 174.34942626953125 169.01145935058594 176.31036376953125 182.08433532714844 180.23223876953125 197.77178955078125 182.193115234375 201.69363403320313 182.193115234375 201.69363403320313 " />
        </svg>