<?xml version="1.0" standalone="no"?>
    <svg width="256" height="256" xmlns="http://www.w3.org/2000/svg" version="1.1">
    <polyline stroke="black" stroke-width="3" stroke-linecap="round" fill="transparent" stroke-linejoin="round" points="79 103 79 101 79 102 79 111 81 128 85 149 90 173 99 208 104 226 106 239 106 246 106 249 104 249 100 246 95 239 90 230 81 218 76 209 70 201 66 192 62 183 59 176 59 175 59 175 " />
        <polyline stroke="black" stroke-width="3" stroke-linecap="round" fill="transparent" stroke-linejoin="round" points="54 125 55 125 62 131 70 137 82 145 94 151 98 152 98 152 " />
        <polyline stroke="black" stroke-width="3" stroke-linecap="round" fill="transparent" stroke-linejoin="round" points="126 119 119 125 110 133 100 141 83 151 77 154 76 155 76 155 " />
        <polyline stroke="black" stroke-width="3" stroke-linecap="round" fill="transparent" stroke-linejoin="round" points="55 179 67 177 82 173 98 168 114 163 131 159 137 157 138 157 135 157 135 157 " />
        <polyline stroke="black" stroke-width="3" stroke-linecap="round" fill="transparent" stroke-linejoin="round" points="95 176 93 181 85 193 74 206 62 217 50 227 49 227 52 222 52 222 " />
        <polyline stroke="black" stroke-width="3" stroke-linecap="round" fill="transparent" stroke-linejoin="round" points="122 183 138 190 153 194 165 197 166 197 166 197 " />
        <polyline stroke="black" stroke-width="3" stroke-linecap="round" fill="transparent" stroke-linejoin="round" points="170 153 175 152 186 149 198 146 210 145 222 143 222 143 221 143 221 143 " />
        <polyline stroke="black" stroke-width="3" stroke-linecap="round" fill="transparent" stroke-linejoin="round" points="162 177 178 176 191 174 203 173 214 173 221 173 226 173 226 172 224 172 224 172 " />
        <polyline stroke="black" stroke-width="3" stroke-linecap="round" fill="transparent" stroke-linejoin="round" points="158 73 161 77 163 102 163 133 163 169 163 198 165 228 167 238 169 243 171 243 172 239 172 239 " />
        <polyline stroke="black" stroke-width="3" stroke-linecap="round" fill="transparent" stroke-linejoin="round" points="222 85 226 97 228 116 230 144 230 174 231 210 233 230 234 246 237 259 " />
        </svg>