<?xml version="1.0" standalone="no"?>
    <svg width="256" height="256" xmlns="http://www.w3.org/2000/svg" version="1.1">
    <polyline stroke="black" stroke-width="3" stroke-linecap="round" fill="transparent" stroke-linejoin="round" points="48.85845947265625 99.48126220703124 51.876068115234375 104.8446044921875 52.764862060546875 105.85476684570313 53.533538818359375 106.7031707763672 54.543304443359375 107.29290771484376 54.98858642578125 107.55300903320313 " />
        <polyline stroke="black" stroke-width="3" stroke-linecap="round" fill="transparent" stroke-linejoin="round" points="101.0994873046875 60.56817626953125 97.0684814453125 66.90116882324219 88.24472045898438 80.05320739746094 83.56527709960938 86.0015869140625 74.76617431640625 102.470458984375 74.42501831054688 103.3436279296875 " />
        <polyline stroke="black" stroke-width="3" stroke-linecap="round" fill="transparent" stroke-linejoin="round" points="46.1988525390625 127.3441162109375 53.36944580078125 124.57864379882813 69.20956420898438 116.78459167480467 84.18048095703125 108.53912353515624 89.74154663085938 105.6318359375 94.63037109375 102.9326171875 100.32772827148438 101.16220092773438 101.54949951171876 101.22042846679688 101.75396728515624 101.23019409179688 " />
        <polyline stroke="black" stroke-width="3" stroke-linecap="round" fill="transparent" stroke-linejoin="round" points="69.77548217773438 89.86105346679688 71.10125732421875 111.59088134765624 71.43075561523438 153.55796813964844 70.68487548828125 183.3049163818359 69.98629760742188 193.80999755859375 69.34405517578125 207.4971923828125 69.310546875 212.82632446289065 70.0972900390625 220.22052001953125 69.25750732421875 223.74176025390625 69.184814453125 224.04666137695313 " />
        <polyline stroke="black" stroke-width="3" stroke-linecap="round" fill="transparent" stroke-linejoin="round" points="54.472015380859375 182.8933563232422 52.096282958984375 193.19464111328125 48.741455078125 204.6212158203125 40.7508544921875 226.69137573242188 39.34588623046875 227.14990234375 39.234344482421875 227.186279296875 " />
        <polyline stroke="black" stroke-width="3" stroke-linecap="round" fill="transparent" stroke-linejoin="round" points="95.67626953125 157.42861938476563 106.50872802734376 161.52134704589844 108.73699951171876 162.93917846679688 109.61578369140624 163.84527587890625 109.74334716796876 164.07308959960938 " />
        <polyline stroke="black" stroke-width="3" stroke-linecap="round" fill="transparent" stroke-linejoin="round" points="126.0020751953125 112.90696716308594 127.47665405273438 132.41360473632813 126.26739501953124 163.61904907226563 121.3411865234375 187.71240234375 118.43453979492188 193.97732543945313 114.67236328125 197.9224853515625 114.5948486328125 192.75445556640625 " />
        <polyline stroke="black" stroke-width="3" stroke-linecap="round" fill="transparent" stroke-linejoin="round" points="153.1845703125 110.0073699951172 170.2935791015625 108.23028564453124 176.016357421875 108.0403289794922 181.1175537109375 108.82730102539063 181.7392578125 109.0242919921875 181.87322998046875 109.06674194335938 " />
        <polyline stroke="black" stroke-width="3" stroke-linecap="round" fill="transparent" stroke-linejoin="round" points="156.47869873046875 132.20648193359375 163.0108642578125 131.5687255859375 167.41046142578125 131.0587158203125 173.3828125 130.1793670654297 175.7037353515625 130.11367797851563 180.7059326171875 129.4390106201172 181.3414306640625 129.34201049804688 " />
        <polyline stroke="black" stroke-width="3" stroke-linecap="round" fill="transparent" stroke-linejoin="round" points="180.0054931640625 78.280517578125 180.174560546875 110.751220703125 179.78759765625 140.538818359375 179.70819091796875 156.6270751953125 179.6607666015625 174.70993041992188 180.74560546875 205.4076232910156 182.6912841796875 224.8538818359375 182.8109130859375 225.989990234375 " />
        </svg>