<?xml version="1.0" standalone="no"?>
    <svg width="256" height="256" xmlns="http://www.w3.org/2000/svg" version="1.1">
    <polyline stroke="black" stroke-width="3" stroke-linecap="round" fill="transparent" stroke-linejoin="round" points="68 59 71 79 74 87 78 99 81 107 83 111 86 115 88 119 88 119 " />
        <polyline stroke="black" stroke-width="3" stroke-linecap="round" fill="transparent" stroke-linejoin="round" points="135 50 136 56 136 60 135 67 133 75 131 79 127 89 127 89 " />
        <polyline stroke="black" stroke-width="3" stroke-linecap="round" fill="transparent" stroke-linejoin="round" points="123 132 137 128 140 127 143 127 144 127 145 127 147 127 147 127 " />
        <polyline stroke="black" stroke-width="3" stroke-linecap="round" fill="transparent" stroke-linejoin="round" points="107 41 108 55 110 69 112 111 115 158 115 171 117 189 118 199 118 201 118 205 118 207 118 208 118 209 118 211 118 211 118 213 117 214 117 215 117 215 " />
        <polyline stroke="black" stroke-width="3" stroke-linecap="round" fill="transparent" stroke-linejoin="round" points="114 159 114 158 113 158 112 159 111 159 108 164 106 167 101 174 95 179 92 183 90 186 86 188 84 191 83 191 83 191 82 192 81 193 80 193 80 192 80 190 82 187 87 179 87 179 " />
        <polyline stroke="black" stroke-width="3" stroke-linecap="round" fill="transparent" stroke-linejoin="round" points="118 140 119 140 119 142 122 144 125 148 127 151 133 155 135 156 137 157 138 159 139 159 139 159 " />
        <polyline stroke="black" stroke-width="3" stroke-linecap="round" fill="transparent" stroke-linejoin="round" points="160 48 160 54 163 95 166 150 166 167 166 191 166 211 166 219 166 230 166 235 165 236 165 237 165 237 " />
        <polyline stroke="black" stroke-width="3" stroke-linecap="round" fill="transparent" stroke-linejoin="round" points="168 154 170 152 171 151 180 147 192 143 198 139 204 138 207 138 208 137 210 136 210 136 " />
        <polyline stroke="black" stroke-width="3" stroke-linecap="round" fill="transparent" stroke-linejoin="round" points="178 171 178 172 181 172 186 171 191 171 199 169 203 168 205 167 207 167 208 167 208 166 208 166 " />
        <polyline stroke="black" stroke-width="3" stroke-linecap="round" fill="transparent" stroke-linejoin="round" points="203 66 204 83 206 91 207 103 208 119 210 130 215 160 216 180 217 186 219 195 220 202 220 207 221 212 221 215 221 216 221 217 221 219 221 219 221 219 " />
        </svg>