<?xml version="1.0" standalone="no"?>
    <svg width="256" height="256" xmlns="http://www.w3.org/2000/svg" version="1.1">
    <polyline stroke="black" stroke-width="3" stroke-linecap="round" fill="transparent" stroke-linejoin="round" points="85.32125854492188 72.53547668457031 86.31130981445313 78.14566040039063 87.96139526367188 101.90655517578124 87.96139526367188 104.54666137695313 87.63134765625 109.8268585205078 87.63134765625 109.8268585205078 87.63134765625 109.8268585205078 " />
        <polyline stroke="black" stroke-width="3" stroke-linecap="round" fill="transparent" stroke-linejoin="round" points="112.7122802734375 50.42462921142578 142.0833740234375 40.854286193847656 146.70358276367188 40.854286193847656 157.26397705078125 43.49437713623047 164.854248046875 47.78453063964844 168.81439208984375 54.384788513183594 166.50439453125 72.865478515625 154.29388427734375 94.3162841796875 147.0335693359375 100.25651550292967 109.08218383789063 119.06721496582033 109.08218383789063 119.06721496582033 " />
        <polyline stroke="black" stroke-width="3" stroke-linecap="round" fill="transparent" stroke-linejoin="round" points="102.48190307617188 95.30632019042967 130.20297241210938 85.075927734375 134.49310302734375 85.075927734375 141.09335327148438 86.72598266601563 141.09335327148438 86.72598266601563 141.09335327148438 86.72598266601563 " />
        <polyline stroke="black" stroke-width="3" stroke-linecap="round" fill="transparent" stroke-linejoin="round" points="67.50057983398438 166.5889892578125 108.09213256835938 155.69857788085938 145.71353149414063 142.82809448242188 145.71353149414063 142.82809448242188 145.71353149414063 142.82809448242188 " />
        <polyline stroke="black" stroke-width="3" stroke-linecap="round" fill="transparent" stroke-linejoin="round" points="99.18179321289063 122.03733825683594 80.70111083984375 179.78948974609375 79.38104248046875 188.36978149414065 77.40097045898438 204.21041870117188 77.40097045898438 211.470703125 78.39105224609375 213.45074462890625 81.0311279296875 211.8006896972656 81.0311279296875 211.8006896972656 " />
        <polyline stroke="black" stroke-width="3" stroke-linecap="round" fill="transparent" stroke-linejoin="round" points="120.30258178710938 136.2278594970703 127.89291381835938 182.09957885742188 129.212890625 190.34988403320313 133.83309936523438 220.7110290527344 136.14315795898438 235.56158447265625 136.14315795898438 235.56158447265625 " />
        </svg>