<?xml version="1.0" standalone="no"?>
    <svg width="256" height="256" xmlns="http://www.w3.org/2000/svg" version="1.1">
    <polyline stroke="black" stroke-width="3" stroke-linecap="round" fill="transparent" stroke-linejoin="round" points="77 71 87 66 93 63 112 54 132 48 145 45 160 45 169 45 172 45 165 55 151 65 145 70 145 70 " />
        <polyline stroke="black" stroke-width="3" stroke-linecap="round" fill="transparent" stroke-linejoin="round" points="111 66 100 84 99 90 97 97 91 109 87 119 84 125 84 126 87 123 105 113 127 104 150 98 169 96 185 96 195 97 198 106 199 122 195 144 186 162 177 179 166 194 155 208 140 218 140 218 " />
        <polyline stroke="black" stroke-width="3" stroke-linecap="round" fill="transparent" stroke-linejoin="round" points="81 151 78 163 78 175 76 188 75 194 74 203 74 203 " />
        <polyline stroke="black" stroke-width="3" stroke-linecap="round" fill="transparent" stroke-linejoin="round" points="89 147 105 135 120 134 134 133 144 133 150 138 153 148 153 164 150 179 141 192 134 198 134 198 " />
        <polyline stroke="black" stroke-width="3" stroke-linecap="round" fill="transparent" stroke-linejoin="round" points="117 134 113 157 110 170 103 183 103 183 " />
        <polyline stroke="black" stroke-width="3" stroke-linecap="round" fill="transparent" stroke-linejoin="round" points="38 186 63 177 83 172 111 170 133 168 154 168 168 168 172 168 172 168 " />
        <polyline stroke="black" stroke-width="3" stroke-linecap="round" fill="transparent" stroke-linejoin="round" points="88 202 102 200 121 200 145 200 155 200 155 200 " />
        </svg>