<?xml version="1.0" standalone="no"?>
    <svg width="256" height="256" xmlns="http://www.w3.org/2000/svg" version="1.1">
    <polyline stroke="black" stroke-width="3" stroke-linecap="round" fill="transparent" stroke-linejoin="round" points="83 88 89 81 97 78 114 70 121 67 139 64 143 64 145 64 145 74 140 96 132 112 132 112 " />
        <polyline stroke="black" stroke-width="3" stroke-linecap="round" fill="transparent" stroke-linejoin="round" points="95 103 87 112 87 120 86 127 81 141 76 152 73 159 73 160 76 160 88 155 109 145 129 138 150 135 168 135 181 135 188 139 189 153 189 175 182 195 172 211 159 224 145 233 132 238 132 238 " />
        <polyline stroke="black" stroke-width="3" stroke-linecap="round" fill="transparent" stroke-linejoin="round" points="83 186 77 196 77 202 77 215 76 228 76 235 76 236 76 236 " />
        <polyline stroke="black" stroke-width="3" stroke-linecap="round" fill="transparent" stroke-linejoin="round" points="82 183 104 172 117 170 129 170 134 170 136 170 136 175 132 192 125 208 118 222 118 222 " />
        <polyline stroke="black" stroke-width="3" stroke-linecap="round" fill="transparent" stroke-linejoin="round" points="108 170 104 178 104 189 100 204 98 210 98 210 " />
        <polyline stroke="black" stroke-width="3" stroke-linecap="round" fill="transparent" stroke-linejoin="round" points="39 217 65 204 83 200 108 197 130 195 150 194 162 194 162 194 " />
        <polyline stroke="black" stroke-width="3" stroke-linecap="round" fill="transparent" stroke-linejoin="round" points="76 237 87 232 107 227 132 222 142 220 142 220 " />
        </svg>