<?xml version="1.0" standalone="no"?>
    <svg width="256" height="256" xmlns="http://www.w3.org/2000/svg" version="1.1">
    <polyline stroke="black" stroke-width="3" stroke-linecap="round" fill="transparent" stroke-linejoin="round" points="77.1038818359375 69.62110900878906 88.849853515625 62.68031311035156 107.53662109375 53.60388946533203 133.69805908203125 42.92573547363281 158.791748046875 35.45103454589844 173.74114990234375 31.179771423339844 184.95318603515625 27.97632598876953 189.2244873046875 27.97632598876953 189.2244873046875 32.247589111328125 189.2244873046875 32.247589111328125 " />
        <polyline stroke="black" stroke-width="3" stroke-linecap="round" fill="transparent" stroke-linejoin="round" points="97.92626953125 87.24005126953125 101.12969970703124 100.0538330078125 103.79925537109376 106.99462890625 108.07052612304688 109.66416931152344 108.07052612304688 109.66416931152344 " />
        <polyline stroke="black" stroke-width="3" stroke-linecap="round" fill="transparent" stroke-linejoin="round" points="161.4613037109375 49.33262634277344 158.2578125 64.81594848632813 150.78311157226563 79.2314453125 141.17279052734375 95.24867248535156 129.96072387695313 111.7998046875 129.96072387695313 111.7998046875 " />
        <polyline stroke="black" stroke-width="3" stroke-linecap="round" fill="transparent" stroke-linejoin="round" points="84.044677734375 136.89344787597656 95.7906494140625 132.08828735351563 114.4774169921875 125.14749145507813 132.09637451171875 118.7406005859375 155.05438232421875 112.33370971679688 172.67333984375 106.46072387695313 172.67333984375 106.46072387695313 " />
        <polyline stroke="black" stroke-width="3" stroke-linecap="round" fill="transparent" stroke-linejoin="round" points="74.43435668945313 155.58021545410156 86.1802978515625 152.91067504882813 101.12969970703124 149.17332458496094 127.29119873046876 143.83424377441406 144.91015625 140.63079833984375 163.06298828125 137.42735290527344 175.87677001953125 133.15609741210938 181.749755859375 130.48655700683594 181.749755859375 130.48655700683594 181.749755859375 130.48655700683594 " />
        <polyline stroke="black" stroke-width="3" stroke-linecap="round" fill="transparent" stroke-linejoin="round" points="103.26535034179688 157.1819305419922 101.12969970703124 167.86009216308594 100.5958251953125 178.53823852539063 101.12969970703124 190.28421020507813 103.26535034179688 199.36062622070313 108.07052612304688 202.5640563964844 108.07052612304688 202.5640563964844 " />
        <polyline stroke="black" stroke-width="3" stroke-linecap="round" fill="transparent" stroke-linejoin="round" points="161.4613037109375 150.2411346435547 159.85955810546875 160.3853759765625 148.64749145507813 174.80088806152344 134.76589965820313 189.21636962890625 134.76589965820313 189.21636962890625 " />
        <polyline stroke="black" stroke-width="3" stroke-linecap="round" fill="transparent" stroke-linejoin="round" points="70.69699096679688 212.70831298828125 84.044677734375 211.6405029296875 100.0618896484375 208.43704223632813 126.223388671875 204.16580200195313 147.57965087890625 202.5640563964844 164.13079833984375 202.5640563964844 180.14801025390625 203.63189697265625 188.6905517578125 206.30142211914065 192.42791748046875 210.57269287109375 192.42791748046875 210.57269287109375 " />
        </svg>