<?xml version="1.0" standalone="no"?>
    <svg width="256" height="256" xmlns="http://www.w3.org/2000/svg" version="1.1">
    <polyline stroke="black" stroke-width="3" stroke-linecap="round" fill="transparent" stroke-linejoin="round" points="150.99371337890625 51.74467468261719 133.50308227539063 59.00495910644531 100.17184448242188 67.91529846191406 97.53170776367188 68.5753173828125 91.59149169921876 69.89535522460938 88.951416015625 70.88539123535156 87.96139526367188 72.865478515625 86.97134399414063 84.4158935546875 87.30133056640625 108.1768035888672 85.65130615234375 135.56781005859375 81.36111450195313 159.32870483398438 75.75091552734375 179.1294403076172 70.470703125 193.6499938964844 67.83062744140625 203.22036743164065 66.1805419921875 206.52047729492188 66.1805419921875 206.52047729492188 66.1805419921875 206.52047729492188 " />
        <polyline stroke="black" stroke-width="3" stroke-linecap="round" fill="transparent" stroke-linejoin="round" points="104.7919921875 126.657470703125 116.012451171875 119.72723388671876 155.6138916015625 102.236572265625 181.02490234375 97.286376953125 183.3349609375 96.62638854980467 185.64501953125 96.2963409423828 185.64501953125 96.2963409423828 185.64501953125 96.2963409423828 " />
        <polyline stroke="black" stroke-width="3" stroke-linecap="round" fill="transparent" stroke-linejoin="round" points="130.532958984375 76.49562072753906 125.91278076171876 92.33619689941406 115.35238647460938 139.8579864501953 100.50189208984376 189.6898498535156 92.91159057617188 211.14065551757813 91.92153930664063 212.46072387695313 91.92153930664063 212.46072387695313 " />
        <polyline stroke="black" stroke-width="3" stroke-linecap="round" fill="transparent" stroke-linejoin="round" points="124.92279052734376 147.11825561523438 135.81317138671875 150.08836364746094 173.4345703125 165.928955078125 179.37481689453125 169.55908203125 193.56536865234375 180.44949340820313 197.5255126953125 185.06967163085935 197.5255126953125 185.06967163085935 " />
        </svg>