<?xml version="1.0" standalone="no"?>
    <svg width="256" height="256" xmlns="http://www.w3.org/2000/svg" version="1.1">
    <polyline stroke="black" stroke-width="3" stroke-linecap="round" fill="transparent" stroke-linejoin="round" points="150.81829833984375 54.848365783691406 134.4771728515625 67.92123413085938 110.29241943359376 84.91595458984375 105.063232421875 88.18418884277344 95.258544921875 94.72061157226563 86.10760498046875 101.9106903076172 82.18572998046875 108.44712829589844 78.91748046875 120.86634826660156 77.6102294921875 137.861083984375 76.95654296875 156.8167266845703 76.30291748046875 182.3088226318359 76.30291748046875 192.11349487304688 75.6492919921875 201.26449584960935 80.22479248046875 205.83999633789065 82.83935546875 203.87905883789065 82.83935546875 203.87905883789065 " />
        <polyline stroke="black" stroke-width="3" stroke-linecap="round" fill="transparent" stroke-linejoin="round" points="86.76116943359375 155.5094757080078 99.180419921875 143.0902099609375 101.14141845703124 141.78294372558594 121.404296875 133.939208984375 129.24798583984375 131.3246307373047 141.01361083984375 126.74913024902344 164.5447998046875 118.25177001953124 173.04217529296875 114.98356628417967 177.61761474609375 111.06169128417967 177.61761474609375 109.7544403076172 177.61761474609375 109.7544403076172 " />
        <polyline stroke="black" stroke-width="3" stroke-linecap="round" fill="transparent" stroke-linejoin="round" points="145.589111328125 103.8716278076172 125.326171875 120.2126922607422 123.365234375 123.48092651367188 113.56060791015624 155.5094757080078 112.90692138671876 160.7386016845703 110.29241943359376 175.1187744140625 107.6778564453125 194.07443237304688 106.37054443359376 205.18634033203125 107.6778564453125 207.14727783203125 109.63873291015624 205.18634033203125 109.63873291015624 205.18634033203125 " />
        <polyline stroke="black" stroke-width="3" stroke-linecap="round" fill="transparent" stroke-linejoin="round" points="120.0970458984375 163.35317993164063 137.09173583984375 165.96775817871094 141.667236328125 170.54324340820313 156.7010498046875 188.84527587890625 162.5838623046875 196.03533935546875 171.08123779296875 207.80093383789065 188.07598876953125 226.75656127929688 188.07598876953125 226.75656127929688 " />
        </svg>