<?xml version="1.0" standalone="no"?>
    <svg width="256" height="256" xmlns="http://www.w3.org/2000/svg" version="1.1">
    <polyline stroke="black" stroke-width="3" stroke-linecap="round" fill="transparent" stroke-linejoin="round" points="158 60 158 60 158 60 157 60 157 60 156 60 155 60 154 60 152 61 150 62 148 63 145 64 142 65 139 67 136 69 132 70 129 72 125 74 121 76 118 78 115 80 112 82 109 84 106 85 103 87 101 88 99 89 98 91 96 92 95 92 94 93 93 94 93 94 92 95 92 95 91 95 91 96 91 97 91 98 91 100 90 102 90 105 90 108 90 111 90 115 90 119 90 123 90 128 90 133 90 138 90 143 89 148 89 153 89 158 88 163 88 168 87 173 86 177 85 182 85 186 84 189 83 193 81 196 80 199 79 202 78 205 77 207 75 209 74 211 73 213 72 214 " />
        <polyline stroke="black" stroke-width="3" stroke-linecap="round" fill="transparent" stroke-linejoin="round" points="97 148 98 147 99 146 101 145 102 144 104 143 106 142 107 141 109 140 111 139 114 138 116 137 118 136 121 136 123 135 126 134 129 133 131 133 134 132 137 131 139 130 142 130 145 129 148 128 150 127 153 126 155 125 158 124 160 122 162 120 163 118 165 116 " />
        <polyline stroke="black" stroke-width="3" stroke-linecap="round" fill="transparent" stroke-linejoin="round" points="144 90 140 101 139 106 137 112 136 118 134 124 132 131 130 137 129 144 127 150 125 156 123 162 122 168 120 174 119 180 117 185 116 190 114 194 113 198 112 202 111 205 110 208 109 210 108 212 108 214 107 215 107 216 106 217 106 218 " />
        <polyline stroke="black" stroke-width="3" stroke-linecap="round" fill="transparent" stroke-linejoin="round" points="122 170 122 170 124 170 125 169 127 169 128 169 130 169 132 170 133 170 135 171 137 172 139 174 141 176 144 178 146 180 149 183 151 186 154 189 157 192 159 196 162 199 165 202 167 205 170 208 173 211 175 214 " />
        </svg>