<?xml version="1.0" standalone="no"?>
    <svg width="256" height="256" xmlns="http://www.w3.org/2000/svg" version="1.1">
    <polyline stroke="black" stroke-width="3" stroke-linecap="round" fill="transparent" stroke-linejoin="round" points="95.81451416015624 66.65618896484375 101.62451171875 70.91006469726563 107.55343627929688 75.00384521484375 112.87777709960938 78.21932983398438 122.06939697265624 84.62240600585938 125.950439453125 85.83992004394531 126.23388671875 85.9288330078125 " />
        <polyline stroke="black" stroke-width="3" stroke-linecap="round" fill="transparent" stroke-linejoin="round" points="160.55853271484375 51.00914764404297 158.47076416015625 65.26649475097656 155.75872802734375 80.29682922363281 147.778564453125 107.554931640625 138.876708984375 123.90118408203124 133.4376220703125 131.46316528320313 128.22796630859375 136.58090209960938 128.9404296875 133.36611938476563 " />
        <polyline stroke="black" stroke-width="3" stroke-linecap="round" fill="transparent" stroke-linejoin="round" points="103.78704833984376 132.61825561523438 112.3204345703125 131.49822998046875 121.8248291015625 130.0948944091797 139.85296630859375 128.34976196289063 152.3851318359375 128.34622192382813 159.28656005859375 128.96359252929688 161.0938720703125 129.1448211669922 173.7374267578125 129.25531005859375 179.50897216796875 129.2952880859375 180.03857421875 129.2989501953125 180.08331298828125 129.29928588867188 179.32684326171875 129.78562927246094 175.1781005859375 134.91140747070313 170.400390625 142.97476196289063 161.767578125 159.8464813232422 156.9739990234375 168.55938720703125 152.68377685546875 174.5787811279297 152.001708984375 174.53782653808594 " />
        <polyline stroke="black" stroke-width="3" stroke-linecap="round" fill="transparent" stroke-linejoin="round" points="121.8974609375 186.9241943359375 127.93466186523438 191.20883178710935 138.4052734375 198.62054443359375 142.78756713867188 201.5909118652344 150.30526733398438 205.18161010742188 151.81927490234375 206.07113647460935 151.875732421875 206.16778564453125 " />
        </svg>