<?xml version="1.0" standalone="no"?>
    <svg width="256" height="256" xmlns="http://www.w3.org/2000/svg" version="1.1">
    <polyline stroke="black" stroke-width="3" stroke-linecap="round" fill="transparent" stroke-linejoin="round" points="89.883056640625 77.99163818359375 91.19036865234376 80.60618591308594 100.3414306640625 96.29362487792967 102.9559326171875 98.908203125 107.53143310546876 101.52278137207033 119.95068359375 100.86915588378906 128.447998046875 96.94728088378906 128.447998046875 96.94728088378906 " />
        <polyline stroke="black" stroke-width="3" stroke-linecap="round" fill="transparent" stroke-linejoin="round" points="142.17449951171875 91.0644989013672 125.1798095703125 117.2102508544922 125.1798095703125 117.2102508544922 " />
        <polyline stroke="black" stroke-width="3" stroke-linecap="round" fill="transparent" stroke-linejoin="round" points="111.45330810546876 117.86387634277344 136.94537353515625 117.2102508544922 142.82818603515625 117.2102508544922 153.2864990234375 117.86387634277344 160.4765625 118.51750183105467 163.09112548828125 121.132080078125 160.4765625 131.5903778076172 152.6328125 142.0486602783203 142.17449951171875 152.5069580078125 134.330810546875 159.0434112548828 129.1016845703125 162.9652862548828 129.1016845703125 162.9652862548828 " />
        <polyline stroke="black" stroke-width="3" stroke-linecap="round" fill="transparent" stroke-linejoin="round" points="117.98974609375 160.35069274902344 142.82818603515625 179.95999145507813 149.3646240234375 186.49642944335935 163.74481201171875 200.8765563964844 178.12493896484375 214.60308837890625 178.12493896484375 214.60308837890625 " />
        </svg>