<?xml version="1.0" standalone="no"?>
    <svg width="256" height="256" xmlns="http://www.w3.org/2000/svg" version="1.1">
    <polyline stroke="black" stroke-width="3" stroke-linecap="round" fill="transparent" stroke-linejoin="round" points="42 64 54 65 59 66 62 66 67 65 74 64 80 64 93 63 96 63 102 63 104 63 108 64 111 65 111 65 112 66 112 68 " />
        <polyline stroke="black" stroke-width="3" stroke-linecap="round" fill="transparent" stroke-linejoin="round" points="65 118 66 117 70 114 77 110 82 108 84 107 87 107 93 105 102 105 107 105 113 106 114 106 116 106 118 108 119 110 121 112 122 115 123 125 123 133 123 141 121 156 120 170 120 180 119 184 118 188 115 199 113 206 110 213 107 219 104 223 103 224 101 225 96 225 92 224 83 217 80 213 74 205 71 202 68 197 65 192 61 184 61 184 " />
        <polyline stroke="black" stroke-width="3" stroke-linecap="round" fill="transparent" stroke-linejoin="round" points="75 77 75 82 75 84 75 87 74 93 74 97 73 101 71 111 68 120 64 130 64 130 60 140 51 163 49 168 47 172 44 178 38 188 36 193 34 196 32 200 30 202 30 202 " />
        <polyline stroke="black" stroke-width="3" stroke-linecap="round" fill="transparent" stroke-linejoin="round" points="126 32 132 36 136 40 139 44 139 44 141 48 143 56 143 67 141 83 139 89 137 96 137 96 134 102 133 104 132 106 129 110 127 112 125 112 125 112 " />
        <polyline stroke="black" stroke-width="3" stroke-linecap="round" fill="transparent" stroke-linejoin="round" points="150 78 153 78 158 76 161 76 165 76 175 75 181 74 186 73 193 72 201 71 213 69 224 68 230 67 231 67 233 67 233 67 233 67 " />
        <polyline stroke="black" stroke-width="3" stroke-linecap="round" fill="transparent" stroke-linejoin="round" points="125 148 125 148 126 148 127 148 133 149 151 147 154 147 161 146 178 145 195 144 203 144 213 144 229 145 236 146 238 146 238 146 239 146 239 146 239 146 235 146 " />
        <polyline stroke="black" stroke-width="3" stroke-linecap="round" fill="transparent" stroke-linejoin="round" points="146 96 147 97 148 101 148 103 149 106 149 108 149 112 149 121 149 128 149 138 148 153 147 164 145 175 143 183 141 193 135 207 134 208 132 211 131 212 " />
        <polyline stroke="black" stroke-width="3" stroke-linecap="round" fill="transparent" stroke-linejoin="round" points="179 93 179 96 179 97 179 100 179 106 178 114 176 129 176 135 175 143 176 152 176 174 176 181 176 191 177 200 177 206 176 207 176 208 176 207 176 207 " />
        <polyline stroke="black" stroke-width="3" stroke-linecap="round" fill="transparent" stroke-linejoin="round" points="209 65 209 66 209 66 209 67 209 69 209 73 208 81 207 99 207 104 206 112 205 132 206 146 206 158 208 175 210 191 210 205 210 222 211 236 211 242 209 249 209 251 207 254 " />
        </svg>