<?xml version="1.0" standalone="no"?>
    <svg width="256" height="256" xmlns="http://www.w3.org/2000/svg" version="1.1">
    <polyline stroke="black" stroke-width="3" stroke-linecap="round" fill="transparent" stroke-linejoin="round" points="75.01101684570313 82.10250854492188 93.18731689453124 77.82572937011719 108.690673828125 73.5489501953125 119.917236328125 69.27217102050781 125.26318359375 66.0645751953125 126.86700439453124 62.85699462890625 126.86700439453124 62.85699462890625 " />
        <polyline stroke="black" stroke-width="3" stroke-linecap="round" fill="transparent" stroke-linejoin="round" points="99.60250854492188 83.17170715332031 84.6337890625 110.97077941894533 71.26882934570313 139.30445861816406 60.04229736328125 162.2921600341797 54.6962890625 172.98410034179688 52.0233154296875 178.330078125 53.092529296875 176.1916961669922 59.5076904296875 166.03433227539063 70.19964599609375 150.531005859375 81.42620849609375 138.23526000976563 93.721923828125 130.7509002685547 102.81008911132813 129.68170166015625 108.15606689453124 133.95848083496094 111.89825439453124 150.531005859375 109.22528076171876 174.0532989501953 97.464111328125 199.17938232421875 89.979736328125 207.1983642578125 81.96078491210938 211.47512817382813 76.61480712890625 210.40594482421875 76.0802001953125 195.43719482421875 76.0802001953125 195.43719482421875 " />
        <polyline stroke="black" stroke-width="3" stroke-linecap="round" fill="transparent" stroke-linejoin="round" points="157.33905029296875 75.68733215332031 152.5277099609375 89.58688354492188 145.04330444335938 104.55560302734376 137.02435302734375 118.98974609375 130.60919189453125 127.54330444335938 126.86700439453124 132.3546905517578 125.79779052734376 133.95848083496094 128.47076416015625 130.7509002685547 134.88595581054688 124.8703155517578 149.320068359375 116.31675720214844 166.9617919921875 107.22859191894533 186.20733642578125 101.3480224609375 204.3836669921875 97.0712432861328 215.6102294921875 95.46745300292967 221.49078369140625 95.46745300292967 221.49078369140625 97.6058349609375 221.49078369140625 97.6058349609375 " />
        <polyline stroke="black" stroke-width="3" stroke-linecap="round" fill="transparent" stroke-linejoin="round" points="127.93618774414063 167.6381378173828 149.320068359375 161.22296142578125 181.9305419921875 150.531005859375 200.6414794921875 144.11582946777344 215.6102294921875 139.30445861816406 223.629150390625 136.0968780517578 225.23291015625 132.8892822265625 225.23291015625 132.8892822265625 " />
        <polyline stroke="black" stroke-width="3" stroke-linecap="round" fill="transparent" stroke-linejoin="round" points="155.20068359375 135.02767944335938 145.04330444335938 167.6381378173828 140.76654052734375 185.27984619140625 138.09353637695313 200.24859619140625 137.5589599609375 209.871337890625 137.5589599609375 215.21731567382813 138.09353637695313 212.5443420410156 138.09353637695313 212.5443420410156 " />
        <polyline stroke="black" stroke-width="3" stroke-linecap="round" fill="transparent" stroke-linejoin="round" points="173.376953125 147.32342529296875 173.91156005859375 161.22296142578125 173.91156005859375 175.65708923339844 174.4461669921875 188.4874267578125 173.91156005859375 196.50640869140625 173.91156005859375 201.3177795410156 174.98077392578125 201.3177795410156 174.98077392578125 201.3177795410156 " />
        <polyline stroke="black" stroke-width="3" stroke-linecap="round" fill="transparent" stroke-linejoin="round" points="196.8992919921875 129.68170166015625 199.03765869140625 143.58123779296875 201.710693359375 160.1537628173828 203.314453125 174.58790588378906 204.918212890625 187.95285034179688 205.9874267578125 203.4561767578125 205.9874267578125 203.4561767578125 " />
        </svg>