<?xml version="1.0" standalone="no"?>
    <svg width="256" height="256" xmlns="http://www.w3.org/2000/svg" version="1.1">
    <polyline stroke="black" stroke-width="3" stroke-linecap="round" fill="transparent" stroke-linejoin="round" points="62.4073486328125 90.02891540527344 75.77645874023438 84.88694763183594 96.3443603515625 77.68818664550781 109.19927978515624 72.54620361328125 116.39804077148438 70.48942565917969 119.48321533203124 70.48942565917969 117.94064331054688 71.00361633300781 112.79864501953124 74.08880615234375 107.14251708984376 78.20237731933594 99.9437255859375 84.37274169921875 88.63140869140625 96.19927978515624 67.54931640625 132.19308471679688 58.29376220703125 152.2467803955078 51.095001220703125 167.67269897460938 47.49560546875 172.81466674804688 44.92462158203125 175.38565063476563 46.981414794921875 172.81466674804688 52.123382568359375 167.15850830078125 64.464111328125 153.78936767578125 78.86163330078125 142.47703552246094 90.17398071289063 136.30667114257813 97.886962890625 135.2782745361328 102.51470947265624 138.87765502929688 106.6282958984375 156.8745574951172 102.51470947265624 181.0418243408203 97.886962890625 190.29736328125 92.23077392578124 195.4393615722656 84.00360107421875 199.03872680664065 78.34744262695313 198.0103454589844 74.748046875 187.72637939453125 78.86163330078125 162.53073120117188 96.85855102539063 127.05111694335938 96.85855102539063 127.05111694335938 " />
        <polyline stroke="black" stroke-width="3" stroke-linecap="round" fill="transparent" stroke-linejoin="round" points="135.93756103515625 81.8017578125 128.73876953125 105.454833984375 121.5400390625 124.48013305664063 115.36962890625 137.33506774902344 110.74188232421876 145.5622100830078 109.7135009765625 147.1048126220703 113.82705688476563 145.0480194091797 115.36962890625 139.391845703125 120.51162719726563 134.2498779296875 134.90914916992188 126.53692626953124 152.391845703125 118.3097686767578 171.4171142578125 111.11100769042967 186.328857421875 105.96902465820313 197.12701416015625 102.36964416503906 202.783203125 100.82705688476563 207.41094970703125 100.82705688476563 207.41094970703125 100.82705688476563 " />
        <polyline stroke="black" stroke-width="3" stroke-linecap="round" fill="transparent" stroke-linejoin="round" points="123.5968017578125 155.33197021484375 137.48013305664063 150.70419311523438 161.1331787109375 142.47703552246094 175.53076171875 138.3634490966797 188.89984130859375 135.2782745361328 198.1553955078125 134.2498779296875 203.29736328125 133.2214813232422 203.29736328125 133.2214813232422 " />
        <polyline stroke="black" stroke-width="3" stroke-linecap="round" fill="transparent" stroke-linejoin="round" points="139.022705078125 152.76097106933594 128.22457885742188 182.58441162109375 124.11102294921876 192.35415649414065 121.5400390625 198.5245361328125 120.51162719726563 200.58132934570313 120.51162719726563 200.58132934570313 " />
        <polyline stroke="black" stroke-width="3" stroke-linecap="round" fill="transparent" stroke-linejoin="round" points="148.27825927734375 148.13320922851563 146.73568725585938 160.98812866210938 144.67889404296875 176.92825317382813 144.1646728515625 186.18380737304688 144.1646728515625 190.29736328125 148.27825927734375 187.72637939453125 148.27825927734375 187.72637939453125 " />
        <polyline stroke="black" stroke-width="3" stroke-linecap="round" fill="transparent" stroke-linejoin="round" points="182.7294921875 138.3634490966797 183.24365234375 152.76097106933594 182.7294921875 170.7578887939453 180.15850830078125 196.46774291992188 176.044921875 223.72018432617188 176.044921875 223.72018432617188 " />
        </svg>