<?xml version="1.0" standalone="no"?>
    <svg width="256" height="256" xmlns="http://www.w3.org/2000/svg" version="1.1">
    <polyline stroke="black" stroke-width="3" stroke-linecap="round" fill="transparent" stroke-linejoin="round" points="59.733367919921875 107.00001525878906 69.60003662109375 103.26667785644533 82.13336181640625 100.06668090820313 99.20001220703124 97.66667175292967 107.46673583984376 97.13336181640624 112.2667236328125 97.13336181640624 113.86672973632813 97.13336181640624 111.20001220703124 98.4666748046875 111.20001220703124 98.4666748046875 " />
        <polyline stroke="black" stroke-width="3" stroke-linecap="round" fill="transparent" stroke-linejoin="round" points="80.2667236328125 123.53335571289063 77.60003662109375 135.2666778564453 73.33334350585938 149.40000915527344 68.80001831054688 163.2666778564453 63.733367919921875 179.53335571289063 62.4000244140625 185.4000244140625 62.4000244140625 185.4000244140625 " />
        <polyline stroke="black" stroke-width="3" stroke-linecap="round" fill="transparent" stroke-linejoin="round" points="77.60003662109375 157.6666717529297 84.2667236328125 152.33335876464844 90.66671752929688 148.60000610351563 94.4000244140625 147.00001525878906 96.53335571289063 148.86668395996094 96.80001831054688 154.20001220703125 96.80001831054688 162.73336791992188 96.53335571289063 173.66668701171875 94.66671752929688 186.20001220703125 90.13336181640624 205.933349609375 86.66671752929688 216.33334350585935 84.2667236328125 222.20001220703125 84.00003051757813 223.00003051757813 84.00003051757813 221.4000244140625 84.00003051757813 221.4000244140625 " />
        <polyline stroke="black" stroke-width="3" stroke-linecap="round" fill="transparent" stroke-linejoin="round" points="148.53338623046875 92.06668090820313 147.20001220703125 104.60000610351563 142.933349609375 119.8000030517578 137.3333740234375 135.2666778564453 130.13336181640625 152.60000610351563 127.20001220703124 158.73336791992188 126.933349609375 158.20001220703125 126.933349609375 158.20001220703125 " />
        <polyline stroke="black" stroke-width="3" stroke-linecap="round" fill="transparent" stroke-linejoin="round" points="154.933349609375 116.60000610351563 168.53338623046875 112.33335876464844 183.20001220703125 108.06668090820313 196.53338623046875 105.13336181640624 206.4000244140625 103.8000030517578 213.06671142578125 103.8000030517578 214.13336181640625 104.33335876464844 213.60003662109375 105.93336486816406 212.53338623046875 107.00001525878906 212.53338623046875 107.00001525878906 " />
        <polyline stroke="black" stroke-width="3" stroke-linecap="round" fill="transparent" stroke-linejoin="round" points="148.800048828125 164.06668090820313 161.86669921875 160.86668395996094 176.53338623046875 156.86668395996094 196.2667236328125 152.33335876464844 202.933349609375 151.53335571289063 204.53338623046875 151.53335571289063 204 153.40000915527344 200.53338623046875 155.00001525878906 198.933349609375 155.53335571289063 198.933349609375 155.53335571289063 " />
        <polyline stroke="black" stroke-width="3" stroke-linecap="round" fill="transparent" stroke-linejoin="round" points="152.53338623046875 144.33335876464844 152.53338623046875 151.00001525878906 152.2667236328125 167.00001525878906 150.4000244140625 183.80001831054688 147.73333740234375 202.20001220703125 147.20001220703125 208.06668090820313 147.20001220703125 209.13336181640625 147.73333740234375 205.933349609375 147.73333740234375 205.933349609375 " />
        <polyline stroke="black" stroke-width="3" stroke-linecap="round" fill="transparent" stroke-linejoin="round" points="166.13336181640625 148.06668090820313 166.13336181640625 161.40000915527344 165.60003662109375 182.73336791992188 165.60003662109375 193.4000244140625 166.4000244140625 200.33334350585935 166.933349609375 204.6000061035156 167.20001220703125 205.13336181640625 167.20001220703125 203.53335571289065 167.20001220703125 203.53335571289065 " />
        <polyline stroke="black" stroke-width="3" stroke-linecap="round" fill="transparent" stroke-linejoin="round" points="181.06671142578125 136.06668090820313 182.4000244140625 150.4666748046875 183.73333740234375 169.40000915527344 184.53338623046875 189.4000244140625 185.60003662109375 214.4666748046875 186.4000244140625 225.933349609375 186.933349609375 233.66668701171875 187.4666748046875 237.66668701171875 187.4666748046875 236.6000061035156 187.4666748046875 236.6000061035156 " />
        </svg>