<?xml version="1.0" standalone="no"?>
    <svg width="256" height="256" xmlns="http://www.w3.org/2000/svg" version="1.1">
    <polyline stroke="black" stroke-width="3" stroke-linecap="round" fill="transparent" stroke-linejoin="round" points="72.53335571289063 104.60000610351563 77.86672973632813 103.26667785644533 90.933349609375 100.33335876464844 108.2667236328125 96.86666870117188 116.53335571289063 95.26667785644533 119.46673583984376 95.00001525878906 119.46673583984376 95.00001525878906 " />
        <polyline stroke="black" stroke-width="3" stroke-linecap="round" fill="transparent" stroke-linejoin="round" points="84.53335571289063 114.4666748046875 83.73336791992188 126.4666748046875 80.80001831054688 142.4666748046875 76.00003051757813 159.2666778564453 69.60003662109375 176.06668090820313 68.53335571289063 181.13336181640625 68.53335571289063 181.66668701171875 69.06671142578125 180.33335876464844 69.06671142578125 180.33335876464844 " />
        <polyline stroke="black" stroke-width="3" stroke-linecap="round" fill="transparent" stroke-linejoin="round" points="92.80001831054688 131.80001831054688 97.33334350585938 131.53335571289063 101.33334350585938 131.2666778564453 105.06671142578124 131.2666778564453 108.2667236328125 132.33335876464844 110.4000244140625 138.20001220703125 110.933349609375 148.60000610351563 110.13336181640624 169.13336181640625 108.2667236328125 182.73336791992188 105.86672973632813 193.933349609375 102.4000244140625 202.20001220703125 101.86672973632813 201.4000244140625 101.86672973632813 199.53335571289065 101.86672973632813 199.53335571289065 " />
        <polyline stroke="black" stroke-width="3" stroke-linecap="round" fill="transparent" stroke-linejoin="round" points="144.2667236328125 99.53335571289063 137.3333740234375 117.13336181640624 131.73336791992188 131.80001831054688 128.00003051757813 141.13336181640625 128.00003051757813 140.60000610351563 128.00003051757813 140.60000610351563 " />
        <polyline stroke="black" stroke-width="3" stroke-linecap="round" fill="transparent" stroke-linejoin="round" points="151.46673583984375 107.00001525878906 161.60003662109375 105.13336181640624 173.60003662109375 103.53335571289063 186.933349609375 102.7333526611328 206.13336181640625 102.20001220703124 212.2667236328125 102.20001220703124 212.2667236328125 102.20001220703124 " />
        <polyline stroke="black" stroke-width="3" stroke-linecap="round" fill="transparent" stroke-linejoin="round" points="146.933349609375 155.80001831054688 160.53338623046875 153.6666717529297 183.4666748046875 151.80001831054688 196.53338623046875 151.53335571289063 204.800048828125 151.53335571289063 206.933349609375 151.53335571289063 206.4000244140625 151.53335571289063 206.4000244140625 151.53335571289063 " />
        <polyline stroke="black" stroke-width="3" stroke-linecap="round" fill="transparent" stroke-linejoin="round" points="149.60003662109375 144.33335876464844 146.933349609375 156.06668090820313 144.800048828125 166.4666748046875 143.73333740234375 175.00001525878906 143.46673583984375 182.4666748046875 144.800048828125 183.2666931152344 146.666748046875 180.6000061035156 146.666748046875 180.6000061035156 " />
        <polyline stroke="black" stroke-width="3" stroke-linecap="round" fill="transparent" stroke-linejoin="round" points="168.800048828125 138.20001220703125 166.4000244140625 150.4666748046875 164 163.00001525878906 162.4000244140625 173.66668701171875 161.86669921875 180.6000061035156 162.13336181640625 182.73336791992188 165.06671142578125 178.73336791992188 165.06671142578125 178.73336791992188 " />
        <polyline stroke="black" stroke-width="3" stroke-linecap="round" fill="transparent" stroke-linejoin="round" points="186.66668701171875 149.40000915527344 186.66668701171875 167.00001525878906 186.66668701171875 186.20001220703125 186.66668701171875 203.2666931152344 188.800048828125 217.13336181640625 190.933349609375 217.13336181640625 191.20001220703125 215 191.20001220703125 215 " />
        </svg>