<?xml version="1.0" standalone="no"?>
    <svg width="256" height="256" xmlns="http://www.w3.org/2000/svg" version="1.1">
    <polyline stroke="black" stroke-width="3" stroke-linecap="round" fill="transparent" stroke-linejoin="round" points="62.66668701171875 102.00001525878906 76 97.55557250976563 86.666748046875 94.888916015625 92 94.888916015625 92 94.888916015625 " />
        <polyline stroke="black" stroke-width="3" stroke-linecap="round" fill="transparent" stroke-linejoin="round" points="84.888916015625 126.00003051757813 88.4444580078125 126.00003051757813 93.77777099609376 125.11111450195313 97.33331298828124 126.00003051757813 98.22222900390624 131.3333282470703 97.33331298828124 141.11111450195313 92.888916015625 164.22222900390625 89.33331298828125 174 87.5555419921875 179.33335876464844 84.888916015625 182.88888549804688 79.5555419921875 183.77780151367188 73.3333740234375 179.33335876464844 73.3333740234375 179.33335876464844 " />
        <polyline stroke="black" stroke-width="3" stroke-linecap="round" fill="transparent" stroke-linejoin="round" points="62.66668701171875 132.22222900390625 60.888916015625 139.33335876464844 56.4444580078125 155.3333282470703 47.5555419921875 177.55555725097656 44 184.66665649414065 39.5555419921875 187.33334350585935 39.5555419921875 187.33334350585935 " />
        <polyline stroke="black" stroke-width="3" stroke-linecap="round" fill="transparent" stroke-linejoin="round" points="133.77777099609375 72.66667175292969 128.4444580078125 92.22224426269533 118.66668701171876 115.33334350585938 116 121.55558776855467 114.22222900390624 125.11111450195313 113.3333740234375 126.00003051757813 113.3333740234375 126.00003051757813 " />
        <polyline stroke="black" stroke-width="3" stroke-linecap="round" fill="transparent" stroke-linejoin="round" points="170.22222900390625 90.44444274902344 178.22222900390625 89.55555725097656 192.4444580078125 92.22224426269533 192.4444580078125 92.22224426269533 " />
        <polyline stroke="black" stroke-width="3" stroke-linecap="round" fill="transparent" stroke-linejoin="round" points="163.11114501953125 139.33335876464844 184.44451904296875 134.888916015625 199.5555419921875 132.22222900390625 206.66668701171875 132.22222900390625 207.5555419921875 132.22222900390625 207.5555419921875 132.22222900390625 " />
        <polyline stroke="black" stroke-width="3" stroke-linecap="round" fill="transparent" stroke-linejoin="round" points="132.888916015625 147.3333282470703 131.11114501953125 156.22222900390625 128.4444580078125 170.44447326660156 126.666748046875 177.55555725097656 124 182 121.33331298828124 183.77780151367188 121.33331298828124 183.77780151367188 " />
        <polyline stroke="black" stroke-width="3" stroke-linecap="round" fill="transparent" stroke-linejoin="round" points="145.33331298828125 142.88888549804688 145.33331298828125 150 146.22222900390625 158.88888549804688 146.22222900390625 163.3333282470703 147.11114501953125 166.88888549804688 147.11114501953125 166.88888549804688 " />
        <polyline stroke="black" stroke-width="3" stroke-linecap="round" fill="transparent" stroke-linejoin="round" points="180.00006103515625 120.66667175292967 184.44451904296875 149.11111450195313 186.22222900390625 176.6666717529297 187.11114501953125 202.4444580078125 187.11114501953125 225.5555725097656 187.11114501953125 229.11111450195313 187.11114501953125 229.11111450195313 " />
        </svg>