<?xml version="1.0" standalone="no"?>
    <svg width="256" height="256" xmlns="http://www.w3.org/2000/svg" version="1.1">
    <polyline stroke="black" stroke-width="3" stroke-linecap="round" fill="transparent" stroke-linejoin="round" points="92.00003051757813 92.60000610351563 92.80001831054688 100.33334350585938 93.60003662109376 107.53334045410156 94.66671752929688 109.4000244140625 95.46673583984376 108.60002136230467 95.46673583984376 108.60002136230467 " />
        <polyline stroke="black" stroke-width="3" stroke-linecap="round" fill="transparent" stroke-linejoin="round" points="104.80001831054688 67.80000305175781 110.13336181640624 66.20001220703125 121.86672973632813 64.06668090820313 133.3333740234375 63.53334045410156 143.46673583984375 63.53334045410156 150.666748046875 65.40000915527344 154.933349609375 71.53334045410156 154.933349609375 79.00001525878906 153.06671142578125 86.4666748046875 149.60003662109375 93.66667175292967 145.3333740234375 99.80001831054688 141.60003662109375 103.00003051757813 140.2667236328125 103.26667785644533 140.2667236328125 103.26667785644533 " />
        <polyline stroke="black" stroke-width="3" stroke-linecap="round" fill="transparent" stroke-linejoin="round" points="114.13336181640624 92.33334350585938 118.4000244140625 93.1333465576172 124.2667236328125 95.26667785644533 130.933349609375 99.26667785644533 131.73336791992188 102.73333740234376 130.13336181640625 104.60002136230467 130.13336181640625 104.60002136230467 " />
        <polyline stroke="black" stroke-width="3" stroke-linecap="round" fill="transparent" stroke-linejoin="round" points="103.46673583984376 113.66667175292967 107.20001220703124 112.86668395996094 116.53335571289063 111.26667785644533 127.20001220703124 110.4666748046875 137.60003662109375 110.4666748046875 148.53338623046875 112.33334350585938 150.13336181640625 114.4666748046875 149.60003662109375 115.26667785644533 149.60003662109375 115.26667785644533 " />
        <polyline stroke="black" stroke-width="3" stroke-linecap="round" fill="transparent" stroke-linejoin="round" points="64.00003051757813 173.66668701171875 68.00003051757813 183.53335571289065 71.73336791992188 194.20004272460935 75.20001220703125 203.2666931152344 77.60003662109375 209.66668701171875 79.73336791992188 212.6000061035156 79.73336791992188 211.53335571289065 79.73336791992188 211.53335571289065 " />
        <polyline stroke="black" stroke-width="3" stroke-linecap="round" fill="transparent" stroke-linejoin="round" points="76.2667236328125 156.86668395996094 86.4000244140625 152.33334350585938 107.20001220703124 147.80003356933594 115.20001220703124 147.00003051757813 137.86669921875 146.4666748046875 150.666748046875 147.2666778564453 160.2667236328125 149.6666717529297 168 155.80003356933594 169.3333740234375 162.2000274658203 169.06671142578125 170.2000274658203 165.3333740234375 178.7333526611328 156.800048828125 190.73333740234375 150.4000244140625 196.60003662109375 145.86669921875 199 144.53338623046875 199.2666931152344 144.53338623046875 199.2666931152344 " />
        <polyline stroke="black" stroke-width="3" stroke-linecap="round" fill="transparent" stroke-linejoin="round" points="99.20001220703124 178.2000274658203 108.53335571289063 177.1333465576172 119.20001220703124 176.86668395996094 129.3333740234375 176.86668395996094 140 179.2666778564453 142.4000244140625 181.933349609375 140.800048828125 183.2666931152344 140.800048828125 183.2666931152344 " />
        <polyline stroke="black" stroke-width="3" stroke-linecap="round" fill="transparent" stroke-linejoin="round" points="109.06671142578124 201.13336181640625 120.53335571289063 199.2666931152344 133.06671142578125 198.4666748046875 148.53338623046875 198.20001220703125 152.53338623046875 198.20001220703125 152.53338623046875 198.20001220703125 " />
        </svg>