<?xml version="1.0" standalone="no"?>
    <svg width="256" height="256" xmlns="http://www.w3.org/2000/svg" version="1.1">
    <polyline stroke="black" stroke-width="3" stroke-linecap="round" fill="transparent" stroke-linejoin="round" points="86.35821533203125 71.6829833984375 88.194580078125 80.2525634765625 88.80670166015625 89.43426513671875 89.4188232421875 98.0038604736328 89.4188232421875 104.12498474121094 88.194580078125 106.5734405517578 85.74612426757813 104.7371063232422 82.07342529296875 98.0038604736328 80.84921264648438 86.98580932617188 82.685546875 74.74354553222656 87.58245849609375 61.88916015625 94.92782592773438 52.09535217285156 106.5579833984375 42.301536560058594 121.86080932617188 32.507720947265625 137.16363525390625 26.998703002929688 148.79379272460938 25.77447509765625 156.75128173828125 28.222930908203125 162.26025390625 34.9561767578125 165.9329833984375 50.871124267578125 161.648193359375 67.39817810058594 149.40591430664063 82.70101928710938 124.92138671875 99.84019470214844 107.78219604492188 106.5734405517578 107.78219604492188 106.5734405517578 " />
        <polyline stroke="black" stroke-width="3" stroke-linecap="round" fill="transparent" stroke-linejoin="round" points="96.15203857421876 83.31312561035156 110.8427734375 76.57987976074219 126.75772094726563 69.84663391113281 140.22421264648438 63.72550964355469 147.569580078125 60.052825927734375 151.24224853515625 60.052825927734375 147.569580078125 64.33761596679688 136.551513671875 75.35565185546875 115.1275634765625 94.3311767578125 115.1275634765625 94.3311767578125 " />
        <polyline stroke="black" stroke-width="3" stroke-linecap="round" fill="transparent" stroke-linejoin="round" points="100.43682861328124 115.75514221191406 110.23065185546876 109.02189636230467 120.02447509765624 99.84019470214844 127.36981201171876 90.6584930419922 131.65460205078125 85.76158142089844 131.65460205078125 85.76158142089844 " />
        <polyline stroke="black" stroke-width="3" stroke-linecap="round" fill="transparent" stroke-linejoin="round" points="79.01287841796875 156.1546173095703 80.23712158203125 168.3968963623047 80.84921264648438 180.63916015625 80.84921264648438 191.04507446289065 79.01287841796875 197.7783203125 77.176513671875 200.83889770507813 77.176513671875 198.39044189453125 78.4007568359375 191.65719604492188 84.52191162109375 178.8028106689453 93.70361328125 162.2757568359375 106.5579833984375 146.36080932617188 120.6365966796875 131.6700897216797 137.7757568359375 120.6520538330078 152.46649169921875 115.75514221191406 161.03607177734375 116.9793701171875 167.769287109375 123.10049438476563 173.2783203125 137.7912139892578 169.60565185546875 157.37884521484375 156.13916015625 174.5180206298828 131.65460205078125 191.04507446289065 131.65460205078125 191.04507446289065 " />
        <polyline stroke="black" stroke-width="3" stroke-linecap="round" fill="transparent" stroke-linejoin="round" points="93.70361328125 173.29379272460938 105.94586181640624 169.00900268554688 119.412353515625 163.49998474121094 131.65460205078125 157.990966796875 139.61209106445313 153.70616149902344 142.060546875 153.70616149902344 139.61209106445313 157.37884521484375 139.61209106445313 157.37884521484375 " />
        <polyline stroke="black" stroke-width="3" stroke-linecap="round" fill="transparent" stroke-linejoin="round" points="96.15203857421876 208.18426513671875 108.39431762695313 205.12368774414065 123.6971435546875 199.61468505859375 138.38787841796875 192.88140869140625 151.24224853515625 187.98452758789065 151.24224853515625 187.98452758789065 " />
        </svg>