<?xml version="1.0" standalone="no"?>
    <svg width="256" height="256" xmlns="http://www.w3.org/2000/svg" version="1.1">
    <polyline stroke="black" stroke-width="3" stroke-linecap="round" fill="transparent" stroke-linejoin="round" points="75.62228393554688 71.35302734375 77.87875366210938 77.25349426269531 80.47592163085938 83.26611328125 83.195068359375 89.16757202148438 85.66595458984375 93.76414489746094 86.52963256835938 95.7386474609375 86.94223022460938 97.51544189453124 88.76654052734375 101.94097900390624 88.941162109375 102.10662841796876 " />
        <polyline stroke="black" stroke-width="3" stroke-linecap="round" fill="transparent" stroke-linejoin="round" points="116.32635498046876 48.51647186279297 125.882080078125 46.878196716308594 140.16732788085938 46.05195617675781 145.73825073242188 46.42925262451172 164.298095703125 49.46199798583984 166.32550048828125 50.732139587402344 169.02117919921875 53.62574768066406 171.79583740234375 56.87269592285156 172.99652099609375 59.901275634765625 174.80303955078125 68.70683288574219 174.954833984375 73.37564086914063 173.0426025390625 82.90202331542969 168.76995849609375 92.72268676757813 166.93817138671875 96.10205078125 162.7376708984375 102.85382080078124 160.75946044921875 106.69328308105467 160.95916748046875 106.013916015625 " />
        <polyline stroke="black" stroke-width="3" stroke-linecap="round" fill="transparent" stroke-linejoin="round" points="112.76217651367188 81.78298950195313 119.79306030273438 80.36097717285156 134.026123046875 77.29063415527344 140.48211669921875 76.16976928710938 158.338623046875 75.66816711425781 163.4549560546875 75.93939208984375 164.1129150390625 76.28762817382813 162.36834716796875 77.34349060058594 161.85894775390625 77.65177917480469 " />
        <polyline stroke="black" stroke-width="3" stroke-linecap="round" fill="transparent" stroke-linejoin="round" points="119.02438354492188 115.85687255859376 124.62939453125 114.69309997558594 130.30926513671875 113.90318298339844 140.6781005859375 113.03298950195313 144.67572021484375 112.94696044921876 157.86126708984375 112.44522094726563 166.613525390625 111.94541931152344 166.83837890625 111.36143493652344 166.85540771484375 111.3171844482422 " />
        <polyline stroke="black" stroke-width="3" stroke-linecap="round" fill="transparent" stroke-linejoin="round" points="72.28155517578125 195.68832397460935 74.88119506835938 204.1683654785156 78.94012451171875 220.61489868164065 79.6328125 234.4990234375 78.94577026367188 234.27984619140625 " />
        <polyline stroke="black" stroke-width="3" stroke-linecap="round" fill="transparent" stroke-linejoin="round" points="108.599365234375 140.00881958007813 128.43698120117188 134.63555908203125 139.09613037109375 133.38890075683594 170.5733642578125 134.07176208496094 179.16400146484375 137.9095916748047 183.109375 140.38687133789063 185.3497314453125 142.68472290039063 192.23406982421875 148.00083923339844 196.3192138671875 150.81631469726563 202.0465087890625 156.94317626953125 205.7593994140625 167.01559448242188 206.07080078125 173.38961791992188 202.3814697265625 189.0491943359375 199.3040771484375 196.39254760742188 192.359130859375 210.85952758789065 184.48052978515625 223.5953063964844 184.0860595703125 224.26052856445313 " />
        <polyline stroke="black" stroke-width="3" stroke-linecap="round" fill="transparent" stroke-linejoin="round" points="110.46286010742188 175.68130493164063 124.68133544921876 172.8138427734375 130.677001953125 171.80429077148438 141.74786376953125 170.83897399902344 145.05126953125 170.84483337402344 163.39471435546875 170.74571228027344 165.76239013671875 171.0049285888672 166.0228271484375 171.03343200683594 166.02435302734375 171.03359985351563 " />
        <polyline stroke="black" stroke-width="3" stroke-linecap="round" fill="transparent" stroke-linejoin="round" points="108.9775390625 218.9407958984375 120.50244140625 216.81243896484375 128.72698974609375 216.15115356445313 138.821533203125 215.70703125 165.7164306640625 215.84796142578125 178.6768798828125 216.63006591796875 179.86322021484375 217.23822021484375 181.7047119140625 219.0057678222656 183.6195068359375 219.85202026367188 188.92474365234375 222.98046875 189.154541015625 223.1378173828125 " />
        </svg>