<?xml version="1.0" standalone="no"?>
    <svg width="256" height="256" xmlns="http://www.w3.org/2000/svg" version="1.1">
    <polyline stroke="black" stroke-width="3" stroke-linecap="round" fill="transparent" stroke-linejoin="round" points="87.03863525390625 65.643310546875 87.03863525390625 69.00958251953125 87.03863525390625 72.0018310546875 87.03863525390625 77.6123046875 86.29052734375 78.73439025878906 85.54248046875 78.73439025878906 85.54248046875 76.49020385742188 85.91650390625 74.99407958984375 89.65682983398438 68.26152038574219 92.27508544921876 65.643310546875 106.11419677734376 55.54447937011719 112.84677124023438 51.804168701171875 131.92230224609375 45.07161712646485 142.39520263671875 43.57549285888672 148.379638671875 43.94952392578125 151.3719482421875 45.44564056396485 152.1199951171875 49.55998229980469 150.62387084960938 54.04835510253906 134.54052734375 71.62779235839844 118.45721435546876 83.22276306152344 105.36614990234376 89.955322265625 99.00762939453124 92.19949340820313 96.763427734375 92.57351684570313 96.389404296875 91.82545471191406 100.50375366210938 88.83322143554688 112.09869384765624 83.59677124023438 119.20526123046876 80.60453796386719 134.54052734375 76.49020385742188 134.54052734375 76.49020385742188 " />
        <polyline stroke="black" stroke-width="3" stroke-linecap="round" fill="transparent" stroke-linejoin="round" points="95.641357421875 125.11418151855467 94.51925659179688 126.98434448242188 92.27508544921876 130.35061645507813 95.26730346679688 128.48046875 105.36614990234376 121.74790954589844 118.83123779296876 112.39715576171876 131.92230224609375 104.91653442382813 141.2730712890625 100.80218505859376 144.26531982421875 99.68009948730467 148.753662109375 99.68009948730467 149.127685546875 101.17623901367188 140.52499389648438 115.763427734375 126.31185913085938 128.8544921875 110.6025390625 139.32736206054688 100.12973022460938 144.56378173828125 95.641357421875 146.43394470214844 94.89328002929688 146.43394470214844 96.763427734375 144.56378173828125 106.86224365234376 140.07542419433594 122.197509765625 132.96884155273438 131.17425537109375 127.73240661621094 140.15097045898438 121.37388610839844 140.15097045898438 121.37388610839844 " />
        <polyline stroke="black" stroke-width="3" stroke-linecap="round" fill="transparent" stroke-linejoin="round" points="122.197509765625 53.67431640625 122.197509765625 64.14718627929688 122.945556640625 76.49020385742188 123.693603515625 89.20724487304688 125.56381225585938 116.137451171875 125.56381225585938 140.82347106933594 122.571533203125 162.1432342529297 119.95333862304688 170.74594116210938 119.95333862304688 170.74594116210938 " />
        <polyline stroke="black" stroke-width="3" stroke-linecap="round" fill="transparent" stroke-linejoin="round" points="88.16073608398438 192.81375122070313 106.48822021484376 186.08120727539065 123.319580078125 180.09671020507813 146.883544921875 171.11996459960938 156.98236083984375 166.257568359375 156.98236083984375 166.257568359375 " />
        <polyline stroke="black" stroke-width="3" stroke-linecap="round" fill="transparent" stroke-linejoin="round" points="120.32736206054688 183.4629821777344 113.59481811523438 192.43972778320313 101.25180053710938 210.0191650390625 94.14520263671876 219.74395751953125 90.40487670898438 224.6063537597656 89.65682983398438 225.35443115234375 89.65682983398438 225.35443115234375 " />
        <polyline stroke="black" stroke-width="3" stroke-linecap="round" fill="transparent" stroke-linejoin="round" points="139.77694702148438 207.40093994140625 148.005615234375 210.0191650390625 156.60833740234375 213.01141357421875 165.2110595703125 216.377685546875 183.91259765625 224.6063537597656 183.91259765625 224.6063537597656 " />
        </svg>