<?xml version="1.0" standalone="no"?>
    <svg width="256" height="256" xmlns="http://www.w3.org/2000/svg" version="1.1">
    <polyline stroke="black" stroke-width="3" stroke-linecap="round" fill="transparent" stroke-linejoin="round" points="93.744873046875 64.68896484375 94.08587646484376 68.0986328125 95.10873413085938 73.55406188964844 95.44970703125 75.599853515625 95.44970703125 77.64566040039063 95.10873413085938 77.3046875 94.76776123046876 75.2589111328125 95.10873413085938 70.14442443847656 98.51840209960938 57.18772888183594 103.97384643554688 47.64070129394531 111.8160400390625 39.11656188964844 123.40887451171876 31.27435302734375 135.34262084960938 26.50083923339844 141.13909912109375 25.136978149414063 154.7777099609375 24.455047607421875 160.233154296875 25.477951049804688 162.2789306640625 26.159873962402344 165.6885986328125 30.25145721435547 166.029541015625 33.66111755371094 157.1644287109375 50.36842346191406 142.8438720703125 63.325103759765625 133.6378173828125 69.80345153808594 133.6378173828125 69.80345153808594 " />
        <polyline stroke="black" stroke-width="3" stroke-linecap="round" fill="transparent" stroke-linejoin="round" points="101.92803955078124 74.91792297363281 108.74737548828124 72.19021606445313 130.2281494140625 66.05284118652344 144.5487060546875 64.68896484375 144.5487060546875 64.68896484375 " />
        <polyline stroke="black" stroke-width="3" stroke-linecap="round" fill="transparent" stroke-linejoin="round" points="89.31234741210938 115.15184020996094 88.97137451171875 118.22052001953124 88.97137451171875 120.60728454589844 88.97137451171875 123.67596435546876 88.97137451171875 124.35791015625 90.67620849609376 123.67596435546876 95.7906494140625 119.92535400390624 105.33770751953124 112.08316040039063 117.95343017578124 102.87710571289063 130.91009521484375 95.03488159179688 142.5029296875 89.92041015625 151.708984375 87.87460327148438 157.1644287109375 87.53366088867188 160.233154296875 88.215576171875 161.5970458984375 90.26136779785156 160.5740966796875 96.05778503417967 154.43670654296875 104.24095153808594 140.45712280273438 114.81088256835938 123.06787109375 124.35791015625 111.47509765625 128.7904510498047 105.67864990234376 130.4952850341797 103.63287353515624 130.83624267578125 103.29193115234376 130.15432739257813 106.360595703125 128.44949340820313 117.95343017578124 125.0398406982422 126.13656616210938 122.99404907226563 152.39093017578125 114.1289520263672 163.30181884765625 107.65060424804688 163.30181884765625 107.65060424804688 " />
        <polyline stroke="black" stroke-width="3" stroke-linecap="round" fill="transparent" stroke-linejoin="round" points="129.54623413085938 32.29725646972656 130.2281494140625 40.13945770263672 130.56915283203125 49.00456237792969 131.9329833984375 69.12152099609375 133.978759765625 103.89999389648438 134.66073608398438 126.06272888183594 134.66073608398438 126.06272888183594 " />
        <polyline stroke="black" stroke-width="3" stroke-linecap="round" fill="transparent" stroke-linejoin="round" points="76.35565185546875 188.11843872070313 82.49301147460938 184.70880126953125 89.31234741210938 181.29913330078125 97.4954833984375 178.23043823242188 115.90765380859376 172.77499389648438 126.13656616210938 170.3882293701172 145.23065185546875 166.97857666015625 160.5740966796875 165.9556884765625 170.8031005859375 165.27374267578125 173.87176513671875 164.59182739257813 173.87176513671875 164.59182739257813 " />
        <polyline stroke="black" stroke-width="3" stroke-linecap="round" fill="transparent" stroke-linejoin="round" points="140.11614990234375 139.0194091796875 134.66073608398438 144.474853515625 127.50042724609376 152.3170623779297 103.29193115234376 184.36782836914065 89.65328979492188 204.48480224609375 83.51593017578125 213.0089111328125 83.51593017578125 213.0089111328125 " />
        <polyline stroke="black" stroke-width="3" stroke-linecap="round" fill="transparent" stroke-linejoin="round" points="126.4775390625 187.7774658203125 136.02459716796875 190.84616088867188 146.2535400390625 194.937744140625 155.800537109375 199.71127319335935 165.34759521484375 204.48480224609375 185.8055419921875 216.75955200195313 193.647705078125 221.8740234375 193.647705078125 221.8740234375 " />
        </svg>