<?xml version="1.0" standalone="no"?>
    <svg width="256" height="256" xmlns="http://www.w3.org/2000/svg" version="1.1">
    <polyline stroke="black" stroke-width="3" stroke-linecap="round" fill="transparent" stroke-linejoin="round" points="96.81356811523438 76.28179931640625 97.154541015625 79.009521484375 97.4954833984375 83.10110473632813 97.154541015625 85.14688110351563 97.154541015625 84.80592346191406 97.83642578125 82.7601318359375 100.56417846679688 78.66854858398438 102.950927734375 75.94082641601563 114.54379272460938 64.68896484375 127.50042724609376 56.50579833984375 135.00167846679688 53.09614562988281 155.4595947265625 47.64070129394531 160.5740966796875 47.29972839355469 169.7801513671875 49.00456237792969 171.14404296875 52.0732421875 169.7801513671875 55.82386779785156 158.5283203125 68.43959045410156 158.5283203125 68.43959045410156 " />
        <polyline stroke="black" stroke-width="3" stroke-linecap="round" fill="transparent" stroke-linejoin="round" points="102.26901245117188 89.57945251464844 116.93051147460938 81.0552978515625 133.978759765625 72.19021606445313 148.98129272460938 67.07572937011719 157.84637451171875 66.05284118652344 160.233154296875 66.05284118652344 160.233154296875 66.05284118652344 " />
        <polyline stroke="black" stroke-width="3" stroke-linecap="round" fill="transparent" stroke-linejoin="round" points="108.74737548828124 114.46990966796876 121.0220947265625 106.96867370605467 133.978759765625 100.49034118652344 145.91259765625 97.0806884765625 155.11865234375 95.71682739257813 160.9150390625 95.3758544921875 163.64276123046875 95.71682739257813 163.64276123046875 97.0806884765625 157.50537109375 103.2180633544922 140.11614990234375 114.1289520263672 123.74984741210938 122.31211853027344 114.54379272460938 125.72177124023438 111.13412475585938 127.08563232421876 111.13412475585938 126.7446746826172 119.3172607421875 124.35791015625 126.81854248046876 121.97116088867188 149.66317749023438 110.7192840576172 149.66317749023438 110.7192840576172 " />
        <polyline stroke="black" stroke-width="3" stroke-linecap="round" fill="transparent" stroke-linejoin="round" points="147.27645874023438 42.526214599609375 145.57162475585938 51.39131164550781 144.207763671875 61.96125793457031 143.52581787109375 86.16978454589844 145.57162475585938 117.53860473632813 145.23065185546875 136.9736328125 143.52581787109375 146.1796875 143.52581787109375 146.1796875 " />
        <polyline stroke="black" stroke-width="3" stroke-linecap="round" fill="transparent" stroke-linejoin="round" points="95.44970703125 179.59429931640625 104.65576171875 174.13885498046875 113.86181640625 169.36534118652344 132.95590209960938 162.5460205078125 165.6885986328125 155.04478454589844 175.235595703125 152.65805053710938 175.235595703125 152.65805053710938 " />
        <polyline stroke="black" stroke-width="3" stroke-linecap="round" fill="transparent" stroke-linejoin="round" points="115.566650390625 172.77499389648438 110.79315185546876 179.59429931640625 106.01962280273438 186.41363525390625 101.58709716796876 192.2100524902344 94.76776123046876 200.39321899414065 92.72198486328124 202.77996826171875 92.72198486328124 202.77996826171875 " />
        <polyline stroke="black" stroke-width="3" stroke-linecap="round" fill="transparent" stroke-linejoin="round" points="148.29931640625 176.8665771484375 154.09576416015625 180.6171875 160.5740966796875 185.731689453125 168.75726318359375 192.8919677734375 168.75726318359375 192.8919677734375 " />
        </svg>