<?xml version="1.0" standalone="no"?>
    <svg width="256" height="256" xmlns="http://www.w3.org/2000/svg" version="1.1">
    <polyline stroke="black" stroke-width="3" stroke-linecap="round" fill="transparent" stroke-linejoin="round" points="78.28936767578125 95.21321105957033 80.03826904296875 98.9141845703125 81.640869140625 101.82537841796876 83.6197509765625 105.85067749023438 83.75643920898438 106.35009765625 " />
        <polyline stroke="black" stroke-width="3" stroke-linecap="round" fill="transparent" stroke-linejoin="round" points="117.13363647460938 57.73890686035156 135.34521484375 56.566070556640625 143.020751953125 56.711639404296875 149.7918701171875 57.00213623046875 161.29925537109375 58.565155029296875 164.72705078125 59.81477355957031 167.6199951171875 61.08171081542969 167.9222412109375 61.23870849609375 167.5545654296875 62.06329345703125 164.7332763671875 67.036376953125 160.793212890625 71.89556884765625 146.83758544921875 82.82220458984375 146.18994140625 82.879150390625 " />
        <polyline stroke="black" stroke-width="3" stroke-linecap="round" fill="transparent" stroke-linejoin="round" points="120.62567138671876 89.73947143554688 134.16390991210938 87.96208190917969 138.17938232421875 87.63298034667969 141.53948974609375 86.64515686035156 141.78033447265625 86.4744873046875 " />
        <polyline stroke="black" stroke-width="3" stroke-linecap="round" fill="transparent" stroke-linejoin="round" points="60.6180419921875 155.03294372558594 64.31634521484375 160.6134490966797 67.7364501953125 166.05953979492188 68.13998413085938 168.2882537841797 68.20916748046875 168.67039489746094 " />
        <polyline stroke="black" stroke-width="3" stroke-linecap="round" fill="transparent" stroke-linejoin="round" points="99.62567138671876 122.8445281982422 108.8818359375 117.6903076171875 134.01205444335938 104.31771850585938 160.2939453125 96.95309448242188 173.52978515625 98.03549194335938 183.14263916015625 101.57696533203124 194.52191162109375 110.05865478515624 195.26007080078125 112.92724609375 193.0880126953125 115.83404541015624 190.8707275390625 120.31036376953124 188.300537109375 123.73745727539063 176.46923828125 135.90594482421875 165.051513671875 143.74278259277344 161.19036865234375 144.978515625 161.526123046875 144.12649536132813 " />
        <polyline stroke="black" stroke-width="3" stroke-linecap="round" fill="transparent" stroke-linejoin="round" points="115.11578369140624 150.8306884765625 124.35589599609376 149.59652709960938 139.8514404296875 146.83035278320313 144.76177978515625 145.7270965576172 150.3187255859375 144.3204803466797 150.41232299804688 144.29306030273438 " />
        <polyline stroke="black" stroke-width="3" stroke-linecap="round" fill="transparent" stroke-linejoin="round" points="116.2728271484375 55.43284606933594 118.83554077148438 92.9250946044922 119.24151611328124 114.40391540527344 119.07196044921876 133.37875366210938 118.095703125 165.6450653076172 116.07919311523438 184.75991821289065 114.7462158203125 194.56765747070313 114.79745483398438 189.44989013671875 " />
        <polyline stroke="black" stroke-width="3" stroke-linecap="round" fill="transparent" stroke-linejoin="round" points="88.34490966796875 208.10379028320313 108.5816650390625 206.42901611328125 119.55050659179688 205.19869995117188 138.441650390625 203.42633056640625 144.84271240234375 203.05599975585935 153.47900390625 201.6629638671875 156.23150634765625 200.673828125 156.470947265625 200.20904541015625 156.4832763671875 200.18511962890625 " />
        <polyline stroke="black" stroke-width="3" stroke-linecap="round" fill="transparent" stroke-linejoin="round" points="104.9710693359375 208.1654357910156 100.09579467773438 218.70294189453125 88.76080322265625 239.77590942382813 78.7548828125 255.68032836914065 69.42584228515625 266.60113525390625 66.31805419921875 268.717529296875 67.56353759765625 266.4412841796875 " />
        <polyline stroke="black" stroke-width="3" stroke-linecap="round" fill="transparent" stroke-linejoin="round" points="135.35498046875 234.25640869140625 144.404296875 240.4654235839844 162.7347412109375 250.7635803222656 170.91204833984375 254.7484130859375 181.421630859375 258.4075012207031 186.4412841796875 259.86566162109375 186.85504150390625 259.98590087890625 " />
        </svg>