<?xml version="1.0" standalone="no"?>
    <svg width="256" height="256" xmlns="http://www.w3.org/2000/svg" version="1.1">
    <polyline stroke="black" stroke-width="3" stroke-linecap="round" fill="transparent" stroke-linejoin="round" points="71.98956298828125 77.20574951171875 77.5654296875 84.42623901367188 82.33868408203125 91.62020874023438 86.7542724609375 101.09588623046876 86.973876953125 102.80169677734376 86.2930908203125 103.5859375 86.220703125 103.66935729980467 " />
        <polyline stroke="black" stroke-width="3" stroke-linecap="round" fill="transparent" stroke-linejoin="round" points="105.23016357421876 51.72820281982422 116.19564819335938 49.324249267578125 139.56231689453125 45.21574401855469 150.640869140625 44.125 167.92535400390625 44.440673828125 178.36614990234375 47.117828369140625 180.7459716796875 48.66112518310547 182.22711181640625 50.56359100341797 181.69866943359375 54.09446716308594 179.60491943359375 62.35264587402344 176.319091796875 70.00843811035156 170.6895751953125 77.03878784179688 153.00677490234375 89.71226501464844 152.31634521484375 88.9794921875 " />
        <polyline stroke="black" stroke-width="3" stroke-linecap="round" fill="transparent" stroke-linejoin="round" points="120.17095947265624 85.02682495117188 142.92730712890625 79.08908081054688 155.41656494140625 75.81643676757813 160.24578857421875 74.33792114257813 164.64404296875 73.31036376953125 164.8492431640625 73.27801513671875 164.9136962890625 73.267822265625 " />
        <polyline stroke="black" stroke-width="3" stroke-linecap="round" fill="transparent" stroke-linejoin="round" points="67.59637451171875 145.85079956054688 71.3101806640625 151.97256469726563 76.160400390625 163.83396911621094 75.87741088867188 163.64083862304688 " />
        <polyline stroke="black" stroke-width="3" stroke-linecap="round" fill="transparent" stroke-linejoin="round" points="96.87887573242188 125.11434936523438 106.192626953125 120.3892822265625 132.09140014648438 109.42575073242188 145.53195190429688 106.30978393554688 173.7801513671875 105.8839111328125 186.90728759765625 109.20504760742188 202.85943603515625 117.98838806152344 205.82965087890625 120.83526611328124 205.78094482421875 120.95602416992188 205.7763671875 120.96731567382813 205.7760009765625 120.96823120117188 202.707763671875 125.161376953125 197.5751953125 131.74107360839844 174.884765625 150.45220947265625 172.28582763671875 151.58795166015625 " />
        <polyline stroke="black" stroke-width="3" stroke-linecap="round" fill="transparent" stroke-linejoin="round" points="114.71920776367188 150.42210388183594 134.72006225585938 147.45565795898438 152.7076416015625 146.43841552734375 158.7037353515625 146.10317993164063 162.77093505859375 145.74923706054688 164.59124755859375 145.29034423828125 164.625732421875 145.28167724609375 " />
        <polyline stroke="black" stroke-width="3" stroke-linecap="round" fill="transparent" stroke-linejoin="round" points="128.57708740234375 65.76104736328125 127.929443359375 81.78302001953125 126.454833984375 111.09764099121094 126.0615234375 133.8809814453125 126.256103515625 140.50457763671875 127.16378784179688 156.05288696289063 122.78927612304688 165.04058837890625 121.63885498046876 164.42462158203125 " />
        <polyline stroke="black" stroke-width="3" stroke-linecap="round" fill="transparent" stroke-linejoin="round" points="105.10406494140624 191.13641357421875 115.75692749023438 188.95358276367188 137.73345947265625 184.32568359375 145.98837280273438 183.35903930664065 159.1199951171875 183.821044921875 162.98114013671875 184.39117431640625 164.4100341796875 184.83209228515625 164.434814453125 184.8397216796875 " />
        <polyline stroke="black" stroke-width="3" stroke-linecap="round" fill="transparent" stroke-linejoin="round" points="119.58175659179688 178.56773376464844 115.9866943359375 189.3848571777344 110.87677001953124 201.74029541015625 99.35302734375 221.298828125 93.2796630859375 228.59930419921875 83.20687866210938 237.3168029785156 79.36907958984375 239.64913940429688 76.41644287109375 240.6224365234375 77.07928466796875 239.3818359375 " />
        <polyline stroke="black" stroke-width="3" stroke-linecap="round" fill="transparent" stroke-linejoin="round" points="129.68560791015625 218.99169921875 140.412353515625 223.02957153320313 163.4935302734375 231.1768798828125 185.890625 239.16384887695313 194.71875 242.17742919921875 199.70880126953125 243.5926818847656 200.207763671875 243.73422241210935 " />
        </svg>