<?xml version="1.0" standalone="no"?>
    <svg width="256" height="256" xmlns="http://www.w3.org/2000/svg" version="1.1">
    <polyline stroke="black" stroke-width="3" stroke-linecap="round" fill="transparent" stroke-linejoin="round" points="32.978851318359375 145.19601440429688 46.351806640625 137.8177947998047 57.41912841796875 132.7452850341797 80.47604370117188 120.75570678710938 91.08221435546876 115.2220458984375 108.60546875 104.61587524414063 121.97845458984376 89.3983154296875 121.97845458984376 89.3983154296875 " />
        <polyline stroke="black" stroke-width="3" stroke-linecap="round" fill="transparent" stroke-linejoin="round" points="72.175537109375 69.10824584960938 70.7921142578125 101.38790893554688 69.869873046875 116.60546875 68.4864501953125 129.51731872558594 67.56417846679688 142.89031982421875 67.10302734375 152.1130828857422 67.56417846679688 163.64154052734375 68.94760131835938 167.79177856445313 70.33099365234375 167.79177856445313 72.175537109375 165.94720458984375 72.175537109375 165.94720458984375 " />
        <polyline stroke="black" stroke-width="3" stroke-linecap="round" fill="transparent" stroke-linejoin="round" points="105.37750244140624 64.49685668945313 106.76092529296876 89.3983154296875 106.76092529296876 103.23245239257813 103.99407958984376 129.51731872558594 101.22723388671876 140.58462524414063 94.31015014648438 157.1855926513672 86.4708251953125 166.40835571289063 81.3983154296875 171.01974487304688 77.248046875 172.86428833007813 75.86468505859375 173.32542419433594 74.48126220703125 172.40313720703125 78.17034912109375 169.63632202148438 90.62106323242188 162.71923828125 106.76092529296876 154.41876220703125 106.76092529296876 154.41876220703125 " />
        <polyline stroke="black" stroke-width="3" stroke-linecap="round" fill="transparent" stroke-linejoin="round" points="166.7088623046875 99.5433349609375 182.3875732421875 91.70399475097656 186.9989013671875 90.32058715820313 198.52734375 89.3983154296875 203.1387939453125 91.70399475097656 204.52215576171875 94.4708251953125 204.52215576171875 94.4708251953125 " />
        <polyline stroke="black" stroke-width="3" stroke-linecap="round" fill="transparent" stroke-linejoin="round" points="133.04574584960938 172.86428833007813 150.56903076171875 169.1751708984375 161.6363525390625 168.25291442871094 173.62591552734375 167.33062744140625 185.615478515625 166.86949157714844 208.2113037109375 168.71405029296875 228.04022216796875 177.47567749023438 228.04022216796875 177.47567749023438 " />
        </svg>