<?xml version="1.0" standalone="no"?>
    <svg width="256" height="256" xmlns="http://www.w3.org/2000/svg" version="1.1">
    <polyline stroke="black" stroke-width="3" stroke-linecap="round" fill="transparent" stroke-linejoin="round" points="29.65911865234375 114.76089477539063 44.876678466796875 103.23245239257813 54.099456787109375 98.15992736816406 62.861083984375 94.00968933105467 71.62274169921875 90.78172302246094 90.06820678710938 85.24806213378906 98.829833984375 83.40351867675781 117.73651123046876 78.79212951660156 117.73651123046876 78.79212951660156 " />
        <polyline stroke="black" stroke-width="3" stroke-linecap="round" fill="transparent" stroke-linejoin="round" points="73.92840576171875 60.80775451660156 67.93359375 89.85945129394531 66.08905029296875 108.3049774169922 64.70565795898438 125.82821655273438 63.32220458984375 142.89031982421875 61.938812255859375 167.33062744140625 62.39990234375 175.16998291015625 63.7833251953125 183.470458984375 65.62789916992188 183.470458984375 65.62789916992188 183.470458984375 " />
        <polyline stroke="black" stroke-width="3" stroke-linecap="round" fill="transparent" stroke-linejoin="round" points="110.3582763671875 66.80255126953125 111.280517578125 90.32058715820313 110.3582763671875 104.15472412109376 103.90234375 139.662353515625 99.29098510742188 153.49649047851563 94.67962646484376 164.1026611328125 84.99569702148438 180.24249267578125 78.07861328125 186.69842529296875 73.46722412109375 189.46527099609375 71.62274169921875 189.9263916015625 71.16156005859375 189.46527099609375 72.08383178710938 188.08184814453125 77.15634155273438 184.39276123046875 88.2236328125 178.39794921875 105.28573608398438 169.63632202148438 105.28573608398438 169.63632202148438 " />
        <polyline stroke="black" stroke-width="3" stroke-linecap="round" fill="transparent" stroke-linejoin="round" points="152.3218994140625 115.68316650390624 162.0057373046875 109.68840026855467 166.156005859375 107.84384155273438 170.767333984375 106.46041870117188 175.3787841796875 105.07699584960938 183.67919921875 104.15472412109376 188.751708984375 105.07699584960938 188.751708984375 105.07699584960938 " />
        <polyline stroke="black" stroke-width="3" stroke-linecap="round" fill="transparent" stroke-linejoin="round" points="112.20281982421876 192.23208618164065 123.73129272460938 188.08184814453125 132.492919921875 185.31500244140625 152.782958984375 181.1647796630859 163.85028076171875 179.78135681152344 187.36834716796875 178.39794921875 207.65838623046875 179.32022094726563 216.4200439453125 181.62591552734375 216.4200439453125 181.62591552734375 " />
        </svg>