<?xml version="1.0" standalone="no"?>
    <svg width="256" height="256" xmlns="http://www.w3.org/2000/svg" version="1.1">
    <polyline stroke="black" stroke-width="3" stroke-linecap="round" fill="transparent" stroke-linejoin="round" points="38 150 27 150 27 152 36 153 52 150 74 146 98 142 113 138 116 138 123 135 124 133 126 131 125 130 125 130 " />
        <polyline stroke="black" stroke-width="3" stroke-linecap="round" fill="transparent" stroke-linejoin="round" points="70 102 69 101 73 112 74 135 71 162 68 181 66 191 66 196 66 198 67 198 70 198 78 195 89 191 97 190 102 188 102 186 102 186 " />
        <polyline stroke="black" stroke-width="3" stroke-linecap="round" fill="transparent" stroke-linejoin="round" points="110 100 110 97 110 100 111 111 111 115 108 132 107 138 105 160 105 178 107 191 109 198 112 200 112 200 " />
        <polyline stroke="black" stroke-width="3" stroke-linecap="round" fill="transparent" stroke-linejoin="round" points="159 153 155 152 156 152 159 152 161 152 168 152 178 150 187 148 192 148 193 148 193 148 " />
        <polyline stroke="black" stroke-width="3" stroke-linecap="round" fill="transparent" stroke-linejoin="round" points="128 192 127 192 130 192 147 191 171 187 192 186 205 186 209 186 219 186 222 186 228 188 228 189 228 190 228 190 " />
        </svg>