<?xml version="1.0" standalone="no"?>
    <svg width="256" height="256" xmlns="http://www.w3.org/2000/svg" version="1.1">
    <polyline stroke="black" stroke-width="3" stroke-linecap="round" fill="transparent" stroke-linejoin="round" points="56.687896728515625 97.8931121826172 67.7066650390625 90.73089599609376 90.29519653320313 78.05928039550781 129.96282958984375 65.38768005371094 155.85699462890625 60.98016357421875 180.09832763671875 58.2254638671875 195.524658203125 56.57264709472656 206.54345703125 54.919830322265625 212.05279541015625 54.919830322265625 212.05279541015625 54.919830322265625 " />
        <polyline stroke="black" stroke-width="3" stroke-linecap="round" fill="transparent" stroke-linejoin="round" points="78.17453002929688 146.9267120361328 93.04989624023438 143.0701446533203 109.57806396484376 138.11167907714844 136.02316284179688 129.84759521484375 158.6116943359375 122.13444519042967 175.139892578125 114.97222900390624 188.913330078125 106.7081298828125 197.17742919921875 96.79122924804688 197.17742919921875 96.79122924804688 " />
        <polyline stroke="black" stroke-width="3" stroke-linecap="round" fill="transparent" stroke-linejoin="round" points="150.89852905273438 86.87431335449219 146.49102783203125 94.58746337890624 142.63446044921875 104.50437927246094 139.32879638671875 118.27786254882813 135.47222900390625 138.11167907714844 132.16659545898438 159.59832763671875 128.30999755859375 176.6774444580078 121.69873046875 189.34906005859375 113.985595703125 197.06219482421875 100.7630615234375 203.67349243164065 87.54049682617188 205.87722778320313 78.17453002929688 206.42816162109375 73.216064453125 206.42816162109375 71.0123291015625 206.42816162109375 74.31793212890625 204.77536010742188 90.29519653320313 200.36782836914065 115.08746337890624 194.85845947265625 142.63446044921875 191.0018615722656 168.528564453125 188.79812622070313 187.260498046875 187.14529418945313 200.48309326171875 184.9415283203125 214.256591796875 186.04342651367188 214.256591796875 186.04342651367188 " />
        </svg>