<?xml version="1.0" standalone="no"?>
    <svg width="256" height="256" xmlns="http://www.w3.org/2000/svg" version="1.1">
    <polyline stroke="black" stroke-width="3" stroke-linecap="round" fill="transparent" stroke-linejoin="round" points="74.17864990234376 110.83264160156247 83.145751953125 104.98454284667967 92.11285400390624 99.13644409179688 111.996337890625 86.27064514160156 130.710205078125 75.74406433105469 146.30514526367188 68.72634887695313 156.83172607421875 64.43775939941406 162.6798095703125 62.4884033203125 164.629150390625 62.09852600097656 163.4595947265625 66.77699279785156 152.9329833984375 85.10102844238281 137.72796630859375 108.49339294433594 122.52291870117188 131.49588012695313 112.38619995117188 151.37937927246094 108.48748779296876 169.3135223388672 110.43685913085938 183.7388153076172 119.0140380859375 193.09576416015625 138.89755249023438 199.72360229492188 160.340576171875 199.72360229492188 177.1051025390625 195.04513549804688 188.80126953125 188.80718994140625 197.768310546875 180.61984252929688 197.768310546875 180.61984252929688 " />
        <polyline stroke="black" stroke-width="3" stroke-linecap="round" fill="transparent" stroke-linejoin="round" points="85.8748779296875 124.47814941406247 92.892578125 125.64776611328124 99.9102783203125 126.8173828125 107.31787109375 128.37689208984375 133.4393310546875 136.564208984375 142.7962646484375 139.68319702148438 142.7962646484375 139.68319702148438 " />
        </svg>