<?xml version="1.0" standalone="no"?>
    <svg width="256" height="256" xmlns="http://www.w3.org/2000/svg" version="1.1">
    <polyline stroke="black" stroke-width="3" stroke-linecap="round" fill="transparent" stroke-linejoin="round" points="86.49880981445313 73.48091125488281 91.2911376953125 71.08474731445313 96.08346557617188 68.68858337402344 101.9027099609375 66.29241943359375 120.72967529296876 59.446258544921875 134.07968139648438 55.33856201171875 145.37582397460938 52.60009765625 151.879638671875 51.57317352294922 154.6181640625 51.230865478515625 154.6181640625 53.969329833984375 147.42965698242188 69.37319946289063 131.68353271484375 94.01936340332033 113.54119873046876 120.03477478027344 100.533447265625 142.62710571289063 94.7142333984375 159.4001922607422 94.7142333984375 172.4078826904297 97.11041259765624 177.2001953125 113.54119873046876 187.46945190429688 128.94503784179688 190.89251708984375 142.63739013671875 190.55023193359375 153.2489013671875 187.811767578125 158.04119873046875 185.41558837890625 168.65277099609375 174.46173095703125 168.65277099609375 174.46173095703125 " />
        <polyline stroke="black" stroke-width="3" stroke-linecap="round" fill="transparent" stroke-linejoin="round" points="98.13726806640624 86.14631652832031 111.4873046875 99.49630737304688 124.83734130859376 112.84629821777344 139.89889526367188 130.30401611328125 147.42965698242188 140.23094177246094 147.42965698242188 140.23094177246094 " />
        </svg>