<?xml version="1.0" standalone="no"?>
    <svg width="256" height="256" xmlns="http://www.w3.org/2000/svg" version="1.1">
    <polyline stroke="black" stroke-width="3" stroke-linecap="round" fill="transparent" stroke-linejoin="round" points="79.52005004882813 85.18809509277344 88.00579833984375 82.35952758789063 96.49154663085938 79.53096008300781 114.27117919921876 74.27789306640625 136.49569702148438 68.6207275390625 144.17327880859375 67.00439453125 154.679443359375 64.98397827148438 160.3365478515625 64.57989501953125 162.7611083984375 65.79214477539063 160.74066162109375 76.70237731933594 148.6181640625 100.94732666015624 130.83856201171875 126.80862426757813 112.250732421875 153.073974609375 98.916015625 174.4903564453125 92.046630859375 191.4618225097656 91.23846435546876 204.3924560546875 96.08746337890624 211.66595458984375 113.05892944335938 217.3231201171875 137.30389404296875 218.53533935546875 158.72021484375 215.706787109375 175.69171142578125 211.66595458984375 182.15704345703125 209.241455078125 194.68359375 201.96795654296875 197.51214599609375 199.139404296875 203.1693115234375 172.06585693359375 197.10809326171875 144.58824157714844 197.10809326171875 144.58824157714844 " />
        <polyline stroke="black" stroke-width="3" stroke-linecap="round" fill="transparent" stroke-linejoin="round" points="103.36090087890624 103.77590942382813 109.01806640625 107.00857543945313 114.67523193359376 110.24124145507813 121.14056396484376 114.28204345703124 134.47528076171875 123.9800262451172 149.42636108398438 137.71884155273438 149.42636108398438 137.71884155273438 " />
        </svg>