<?xml version="1.0" standalone="no"?>
    <svg width="256" height="256" xmlns="http://www.w3.org/2000/svg" version="1.1">
    <polyline stroke="black" stroke-width="3" stroke-linecap="round" fill="transparent" stroke-linejoin="round" points="73 84 80 83 87 82 105 78 122 77 136 77 143 77 146 79 145 92 131 110 113 135 95 156 85 172 82 184 84 194 96 202 116 205 136 205 154 204 166 199 174 193 177 188 177 182 177 182 " />
        <polyline stroke="black" stroke-width="3" stroke-linecap="round" fill="transparent" stroke-linejoin="round" points="87 116 107 129 127 142 133 147 133 147 " />
        </svg>