<?xml version="1.0" standalone="no"?>
    <svg width="256" height="256" xmlns="http://www.w3.org/2000/svg" version="1.1">
    <polyline stroke="black" stroke-width="3" stroke-linecap="round" fill="transparent" stroke-linejoin="round" points="62.649169921875 101.54367065429688 63.4970703125 132.16001892089844 62.303466796875 147.32467651367188 57.929931640625 168.04620361328125 50.55035400390625 180.02108764648438 48.22344970703125 182.0336151123047 47.99072265625 182.23486328125 " />
        <polyline stroke="black" stroke-width="3" stroke-linecap="round" fill="transparent" stroke-linejoin="round" points="85.748046875 63.107330322265625 94.1541748046875 60.0806884765625 103.3470458984375 57.28379821777344 111.31857299804688 54.77928924560547 131.42669677734375 50.542205810546875 144.388427734375 48.80382537841797 145.31698608398438 49.14019012451172 145.86630249023438 49.791709899902344 146.00302124023438 50.570220947265625 148.81234741210938 62.768646240234375 150.6015625 78.27154541015625 151.82977294921875 111.618896484375 152.607177734375 127.22732543945313 154.9124755859375 153.6450653076172 165.8397216796875 168.50119018554688 172.9010009765625 172.67617797851563 181.22796630859375 179.62979125976563 183.9722900390625 181.2579345703125 189.86907958984375 183.11111450195313 192.21868896484375 182.75341796875 194.0498046875 181.68133544921875 196.91015625 177.388427734375 203.72314453125 157.599365234375 205.931396484375 146.37518310546875 205.79315185546875 144.57504272460938 " />
        <polyline stroke="black" stroke-width="3" stroke-linecap="round" fill="transparent" stroke-linejoin="round" points="110.40777587890624 115.1959228515625 115.26351928710938 117.4722900390625 118.04891967773438 119.02749633789063 120.3585205078125 120.8388671875 121.00323486328124 123.5023193359375 121.07125854492188 123.78326416015624 " />
        <polyline stroke="black" stroke-width="3" stroke-linecap="round" fill="transparent" stroke-linejoin="round" points="108.72235107421876 137.91705322265625 116.1251220703125 142.98428344726563 118.469482421875 145.0511474609375 120.99923706054688 147.69139099121094 121.17279052734376 147.8671875 " />
        </svg>