<?xml version="1.0" standalone="no"?>
    <svg width="256" height="256" xmlns="http://www.w3.org/2000/svg" version="1.1">
    <polyline stroke="black" stroke-width="3" stroke-linecap="round" fill="transparent" stroke-linejoin="round" points="64.7490234375 115.60086059570313 64.38006591796875 134.701416015625 58.8779296875 170.25457763671875 55.11248779296875 184.63397216796875 47.688568115234375 203.955078125 42.7198486328125 213.353759765625 41.15997314453125 216.51266479492188 41.00396728515625 216.82855224609375 40.988983154296875 216.85888671875 " />
        <polyline stroke="black" stroke-width="3" stroke-linecap="round" fill="transparent" stroke-linejoin="round" points="80.52523803710938 109.29376220703124 85.8172607421875 106.99850463867188 99.499267578125 100.11508178710938 107.267822265625 95.20947265625 127.732421875 83.09346008300781 137.39608764648438 76.85848999023438 145.802490234375 69.39805603027344 149.9417724609375 66.29696655273438 151.1734619140625 65.732177734375 162.9251708984375 66.7716064453125 164.6878662109375 71.67141723632813 168.74652099609375 103.63330078125 167.6790771484375 146.41519165039063 167.82781982421875 160.84295654296875 170.932861328125 185.0375061035156 174.1007080078125 194.1346435546875 180.21435546875 200.83721923828125 184.64251708984375 202.6903076171875 196.08856201171875 200.33285522460935 201.02099609375 195.4720764160156 209.9404296875 181.07736206054688 212.72998046875 172.1894989013672 212.79998779296875 170.4814910888672 " />
        <polyline stroke="black" stroke-width="3" stroke-linecap="round" fill="transparent" stroke-linejoin="round" points="119.67926025390624 131.47854614257813 125.89401245117188 134.6381072998047 125.554931640625 136.34727478027344 121.57797241210938 150.58323669433594 118.28570556640624 158.75732421875 111.5162353515625 166.91140747070313 106.11630249023438 167.32403564453125 104.8304443359375 166.65206909179688 104.71139526367188 166.58982849121094 104.67498779296876 166.57080078125 124.43783569335938 167.56497192382813 132.60369873046875 169.36749267578125 134.486572265625 169.86190795898438 " />
        </svg>