<?xml version="1.0" standalone="no"?>
    <svg width="256" height="256" xmlns="http://www.w3.org/2000/svg" version="1.1">
    <polyline stroke="black" stroke-width="3" stroke-linecap="round" fill="transparent" stroke-linejoin="round" points="61.459564208984375 95.20236206054688 62.387939453125 109.64511108398438 63.080810546875 154.39019775390625 60.262176513671875 192.076904296875 58.231658935546875 207.53021240234375 54.8197021484375 218.44366455078125 54.3984375 220.31741333007813 53.24530029296875 219.23028564453125 53.154998779296875 219.14517211914065 " />
        <polyline stroke="black" stroke-width="3" stroke-linecap="round" fill="transparent" stroke-linejoin="round" points="88.5546875 77.60818481445313 95.95355224609376 75.49002075195313 113.0084228515625 71.9486083984375 119.61859130859376 70.42465209960938 129.07223510742188 67.54067993164063 132.25192260742188 66.62939453125 137.25936889648438 65.19627380371094 140.91888427734375 64.72187805175781 143.27096557617188 64.81549072265625 144.94842529296875 65.07188415527344 148.20574951171875 67.18215942382813 150.93878173828125 71.27328491210938 161.5164794921875 97.88812255859376 168.7412109375 137.4539031982422 169.8409423828125 151.94065856933594 172.29779052734375 180.893310546875 173.89697265625 192.69793701171875 179.15142822265625 213.0789794921875 185.11767578125 228.72360229492188 188.6148681640625 235.14495849609375 191.6009521484375 240.06500244140625 196.02374267578125 243.94317626953125 197.5802001953125 244.37799072265625 198.319580078125 243.5721435546875 198.35467529296875 243.533935546875 199.775146484375 241.9461669921875 206.70947265625 219.8878173828125 209.8173828125 195.829345703125 209.349365234375 172.10813903808594 208.75360107421875 167.77435302734375 " />
        <polyline stroke="black" stroke-width="3" stroke-linecap="round" fill="transparent" stroke-linejoin="round" points="118.50152587890624 137.84677124023438 129.059326171875 141.67495727539063 131.96795654296875 142.86270141601563 132.665283203125 144.01226806640625 133.15673828125 144.4407196044922 133.1956787109375 144.59225463867188 " />
        <polyline stroke="black" stroke-width="3" stroke-linecap="round" fill="transparent" stroke-linejoin="round" points="126.259033203125 173.32437133789063 137.17236328125 177.21531677246094 141.49630737304688 178.81980895996094 142.982666015625 179.69602966308594 143.62530517578125 179.99118041992188 " />
        </svg>