<?xml version="1.0" standalone="no"?>
    <svg width="256" height="256" xmlns="http://www.w3.org/2000/svg" version="1.1">
    <polyline stroke="black" stroke-width="3" stroke-linecap="round" fill="transparent" stroke-linejoin="round" points="67.21502685546875 92.94754028320313 64.22274780273438 106.0386199951172 60.85650634765625 120.25180053710938 57.490203857421875 134.46495056152344 54.12396240234375 149.8002166748047 47.765380859375 176.35638427734375 44.02508544921875 195.05792236328125 42.15496826171875 205.90484619140625 41.0328369140625 211.14126586914065 41.0328369140625 211.14126586914065 " />
        <polyline stroke="black" stroke-width="3" stroke-linecap="round" fill="transparent" stroke-linejoin="round" points="83.67236328125 49.93401336669922 97.511474609375 43.94952392578125 114.34286499023438 41.70533752441406 131.17425537109375 44.69758605957031 144.26531982421875 53.30028533935547 150.24984741210938 60.40687561035156 167.45526123046875 105.29055786132813 172.691650390625 137.83123779296875 174.56182861328125 152.79246520996094 180.54632568359375 186.08120727539065 182.79052734375 193.56182861328125 191.0191650390625 207.40093994140625 194.38543701171875 210.3931884765625 203.3621826171875 214.88156127929688 213.8350830078125 216.003662109375 225.0560302734375 209.6451416015625 225.0560302734375 209.6451416015625 " />
        <polyline stroke="black" stroke-width="3" stroke-linecap="round" fill="transparent" stroke-linejoin="round" points="102.74789428710938 110.5269775390625 108.732421875 113.51925659179688 115.46493530273438 118.0076141357422 123.319580078125 122.4959716796875 130.42620849609375 127.35838317871094 130.42620849609375 127.35838317871094 " />
        <polyline stroke="black" stroke-width="3" stroke-linecap="round" fill="transparent" stroke-linejoin="round" points="108.3583984375 156.1587371826172 115.46493530273438 161.76919555664063 133.04440307617188 180.09671020507813 143.51727294921875 192.43972778320313 143.51727294921875 192.43972778320313 " />
        </svg>