<?xml version="1.0" standalone="no"?>
    <svg width="256" height="256" xmlns="http://www.w3.org/2000/svg" version="1.1">
    <polyline stroke="black" stroke-width="3" stroke-linecap="round" fill="transparent" stroke-linejoin="round" points="71.73922729492188 128.23501586914063 70.899658203125 153.00204467773438 67.96121215820313 171.8921356201172 63.343597412109375 189.52288818359375 59.14581298828125 202.95587158203125 56.20733642578125 214.2899169921875 53.268890380859375 218.4877014160156 53.268890380859375 218.4877014160156 " />
        <polyline stroke="black" stroke-width="3" stroke-linecap="round" fill="transparent" stroke-linejoin="round" points="93.987548828125 99.6899871826172 122.11279296875 90.87460327148438 146.04025268554688 84.15812683105469 155.275390625 82.05921936035156 163.251220703125 80.79988098144531 169.54791259765625 80.79988098144531 172.90618896484375 81.21966552734375 175.005126953125 83.73834228515625 175.005126953125 93.39328002929688 174.16552734375 122.7778778076172 176.264404296875 155.94049072265625 182.141357421875 184.06573486328125 190.11712646484375 205.05474853515625 198.51275634765625 218.4877014160156 206.06878662109375 223.94479370117188 211.52587890625 225.20416259765625 216.14349365234375 224.78439331054688 219.08197021484375 223.10528564453125 220.76104736328125 221.4261474609375 221.60064697265625 216.3887939453125 218.242431640625 207.99319458007813 211.9456787109375 200.43716430664065 200.19189453125 186.58441162109375 200.19189453125 186.58441162109375 " />
        <polyline stroke="black" stroke-width="3" stroke-linecap="round" fill="transparent" stroke-linejoin="round" points="138.06442260742188 137.0504150390625 150.238037109375 144.60643005371094 152.7567138671875 145.86575317382813 152.7567138671875 145.86575317382813 " />
        <polyline stroke="black" stroke-width="3" stroke-linecap="round" fill="transparent" stroke-linejoin="round" points="144.36114501953125 194.98001098632813 148.55892944335938 198.75802612304688 148.55892944335938 198.75802612304688 " />
        </svg>