<?xml version="1.0" standalone="no"?>
    <svg width="256" height="256" xmlns="http://www.w3.org/2000/svg" version="1.1">
    <polyline stroke="black" stroke-width="3" stroke-linecap="round" fill="transparent" stroke-linejoin="round" points="120.95623779296876 54.0452880859375 123.00912475585938 61.024993896484375 125.4725341796875 69.64698791503906 129.57821655273438 90.58612060546876 132.86279296875 115.22036743164063 134.09454345703125 136.9806365966797 134.09454345703125 156.2774658203125 133.27337646484375 170.23687744140625 132.04168701171875 181.32229614257813 131.22055053710938 185.42800903320313 128.34652709960938 193.2288818359375 125.88311767578124 195.28170776367188 120.545654296875 196.10284423828125 116.02938842773438 194.04998779296875 116.02938842773438 194.04998779296875 " />
        <polyline stroke="black" stroke-width="3" stroke-linecap="round" fill="transparent" stroke-linejoin="round" points="67.58203125 106.59837341308594 70.86663818359375 119.32609558105467 71.687744140625 127.12693786621094 72.09832763671875 135.33836364746094 67.99261474609375 163.66775512695313 65.5291748046875 171.0580291748047 58.54949951171875 186.2491455078125 55.67547607421875 191.58657836914065 54.854339599609375 194.04998779296875 56.49658203125 194.87115478515625 64.29745483398438 193.2288818359375 70.04547119140625 190.76544189453125 82.77316284179688 184.60687255859375 99.19601440429688 173.52145385742188 99.19601440429688 173.52145385742188 " />
        <polyline stroke="black" stroke-width="3" stroke-linecap="round" fill="transparent" stroke-linejoin="round" points="173.0987548828125 91.8178253173828 159.5499267578125 104.9561004638672 159.5499267578125 104.9561004638672 " />
        <polyline stroke="black" stroke-width="3" stroke-linecap="round" fill="transparent" stroke-linejoin="round" points="145.59051513671875 140.26519775390625 158.3182373046875 145.1920623779297 164.88739013671875 148.47662353515625 178.43621826171875 156.6880340576172 191.574462890625 168.18402099609375 206.35498046875 187.0703125 206.35498046875 187.0703125 " />
        </svg>