<?xml version="1.0" standalone="no"?>
    <svg width="256" height="256" xmlns="http://www.w3.org/2000/svg" version="1.1">
    <polyline stroke="black" stroke-width="3" stroke-linecap="round" fill="transparent" stroke-linejoin="round" points="133.296875 80.70672607421875 136.70651245117188 91.61759948730467 139.77520751953125 104.23332214355467 142.5029296875 116.84904479980467 145.91259765625 142.08047485351563 146.93548583984375 163.56130981445313 145.91259765625 178.5637664794922 143.86679077148438 187.42889404296875 141.13909912109375 192.202392578125 137.388427734375 193.9072265625 130.2281494140625 191.52044677734375 130.2281494140625 191.52044677734375 " />
        <polyline stroke="black" stroke-width="3" stroke-linecap="round" fill="transparent" stroke-linejoin="round" points="87.948486328125 120.94061279296876 84.19784545898438 143.10337829589844 75.6737060546875 166.62998962402344 72.2640380859375 174.8131561279297 70.5592041015625 178.90475463867188 69.53631591796875 180.2686004638672 70.90020751953125 179.24571228027344 82.15203857421875 171.0625457763672 102.26901245117188 153.67330932617188 119.99920654296876 137.9888916015625 119.99920654296876 137.9888916015625 " />
        <polyline stroke="black" stroke-width="3" stroke-linecap="round" fill="transparent" stroke-linejoin="round" points="177.28143310546875 96.73208618164063 168.416259765625 102.86944580078124 168.416259765625 102.86944580078124 " />
        <polyline stroke="black" stroke-width="3" stroke-linecap="round" fill="transparent" stroke-linejoin="round" points="167.734375 124.00930786132813 177.96331787109375 127.0780029296875 200.80804443359375 139.01177978515625 200.80804443359375 139.01177978515625 " />
        </svg>