<?xml version="1.0" standalone="no"?>
    <svg width="256" height="256" xmlns="http://www.w3.org/2000/svg" version="1.1">
    <polyline stroke="black" stroke-width="3" stroke-linecap="round" fill="transparent" stroke-linejoin="round" points="120 121 120 127 119 139 119 144 119 154 119 159 119 159 119 162 119 164 119 166 119 171 119 177 119 180 119 185 118 187 118 188 118 189 117 190 117 191 116 192 115 192 115 193 110 193 101 188 95 186 87 179 83 176 83 175 83 175 82 175 82 174 81 173 81 173 " />
        <polyline stroke="black" stroke-width="3" stroke-linecap="round" fill="transparent" stroke-linejoin="round" points="71 133 72 133 73 134 75 139 79 147 79 148 79 151 79 153 79 154 79 154 " />
        <polyline stroke="black" stroke-width="3" stroke-linecap="round" fill="transparent" stroke-linejoin="round" points="43 182 43 183 43 183 47 182 56 179 79 167 86 164 87 163 88 163 89 162 89 162 " />
        <polyline stroke="black" stroke-width="3" stroke-linecap="round" fill="transparent" stroke-linejoin="round" points="167 131 164 133 157 139 151 143 150 144 150 144 " />
        <polyline stroke="black" stroke-width="3" stroke-linecap="round" fill="transparent" stroke-linejoin="round" points="131 153 131 154 131 155 139 162 147 168 163 180 171 186 173 186 175 187 175 188 175 188 " />
        </svg>