<?xml version="1.0" standalone="no"?>
    <svg width="256" height="256" xmlns="http://www.w3.org/2000/svg" version="1.1">
    <polyline stroke="black" stroke-width="3" stroke-linecap="round" fill="transparent" stroke-linejoin="round" points="131.631103515625 29.821609497070313 131.631103515625 51.58187103271485 125.4725341796875 68.82585144042969 114.38714599609376 86.89097595214844 102.48056030273438 100.4398193359375 93.447998046875 108.24069213867188 86.87887573242188 112.34637451171876 83.18377685546875 113.57809448242188 81.95199584960938 113.1675262451172 83.18377685546875 111.52523803710938 93.03744506835938 105.77725219726563 102.48056030273438 101.67153930664063 138.61080932617188 90.9967041015625 160.78167724609375 86.89097595214844 176.38330078125 84.42755126953125 181.72076416015625 84.0169677734375 181.72076416015625 84.0169677734375 " />
        <polyline stroke="black" stroke-width="3" stroke-linecap="round" fill="transparent" stroke-linejoin="round" points="53.2120361328125 173.9320068359375 65.11859130859375 170.64744567871094 79.899169921875 166.541748046875 87.70001220703125 164.4888916015625 111.51312255859376 158.330322265625 123.419677734375 154.224609375 130.39938354492188 149.70834350585938 130.39938354492188 149.70834350585938 " />
        <polyline stroke="black" stroke-width="3" stroke-linecap="round" fill="transparent" stroke-linejoin="round" points="109.870849609375 113.1675262451172 101.659423828125 122.6106414794922 88.52117919921875 144.78147888183594 76.20404052734375 168.18402099609375 67.17147827148438 188.302001953125 60.191741943359375 203.08258056640625 55.264892578125 212.936279296875 55.264892578125 212.936279296875 " />
        <polyline stroke="black" stroke-width="3" stroke-linecap="round" fill="transparent" stroke-linejoin="round" points="72.50888061523438 178.85887145996094 84.82601928710938 182.55401611328125 88.110595703125 184.60687255859375 94.26913452148438 189.1231689453125 99.60653686523438 193.63943481445313 99.60653686523438 193.63943481445313 " />
        <polyline stroke="black" stroke-width="3" stroke-linecap="round" fill="transparent" stroke-linejoin="round" points="105.76513671875 174.75315856933594 120.95623779296876 163.66775512695313 135.32626342773438 157.09861755371094 149.28564453125 151.76119995117188 162.4239501953125 147.24490356445313 171.45648193359375 144.37091064453125 171.45648193359375 144.37091064453125 " />
        <polyline stroke="black" stroke-width="3" stroke-linecap="round" fill="transparent" stroke-linejoin="round" points="155.03363037109375 110.7041015625 144.76937866210938 131.64321899414063 140.66366577148438 141.49691772460938 132.04168701171875 163.25717163085938 125.4725341796875 180.50115966796875 120.13510131835938 192.40771484375 118.082275390625 196.92401123046875 118.082275390625 196.92401123046875 " />
        <polyline stroke="black" stroke-width="3" stroke-linecap="round" fill="transparent" stroke-linejoin="round" points="126.70428466796876 169.0051727294922 137.78964233398438 173.52145385742188 149.28564453125 180.090576171875 155.4442138671875 184.1962890625 166.940185546875 193.63943481445313 173.0987548828125 200.20855712890625 173.0987548828125 200.20855712890625 " />
        </svg>