<?xml version="1.0" standalone="no"?>
    <svg width="256" height="256" xmlns="http://www.w3.org/2000/svg" version="1.1">
    <polyline stroke="black" stroke-width="3" stroke-linecap="round" fill="transparent" stroke-linejoin="round" points="49 76 47 82 47 94 47 107 44 116 41 121 41 121 " />
        <polyline stroke="black" stroke-width="3" stroke-linecap="round" fill="transparent" stroke-linejoin="round" points="56 99 67 95 73 96 74 101 76 109 76 116 76 129 69 144 60 162 51 182 44 198 40 209 40 209 " />
        <polyline stroke="black" stroke-width="3" stroke-linecap="round" fill="transparent" stroke-linejoin="round" points="36 143 39 151 44 161 57 177 71 194 82 208 88 217 91 222 94 227 95 227 95 227 " />
        <polyline stroke="black" stroke-width="3" stroke-linecap="round" fill="transparent" stroke-linejoin="round" points="116 103 120 108 120 116 120 130 116 147 112 162 108 172 104 178 100 182 99 182 99 178 99 168 103 162 107 158 111 157 115 157 121 159 130 166 139 175 151 183 160 190 168 194 175 194 175 194 " />
        <polyline stroke="black" stroke-width="3" stroke-linecap="round" fill="transparent" stroke-linejoin="round" points="184 116 180 120 179 130 174 144 167 157 159 171 155 179 152 182 150 183 150 177 151 168 155 164 160 162 164 162 170 165 175 175 180 185 188 194 197 203 205 210 205 210 " />
        </svg>