<?xml version="1.0" standalone="no"?>
    <svg width="256" height="256" xmlns="http://www.w3.org/2000/svg" version="1.1">
    <polyline stroke="black" stroke-width="3" stroke-linecap="round" fill="transparent" stroke-linejoin="round" points="73.07769775390625 84.75141906738281 82.80355834960938 106.41363525390624 85.01400756835938 113.04495239257813 88.10861206054688 122.32876586914063 89.43487548828125 127.6337890625 89.876953125 129.4021453857422 89.43487548828125 129.84422302246094 88.10861206054688 125.42337036132813 88.55072021484375 114.81329345703124 90.76116943359376 101.55070495605467 95.62408447265624 89.17228698730469 103.13958740234376 78.56221008300781 114.6337890625 67.9521484375 131.43307495117188 57.342071533203125 149.55859375 49.82659912109375 165.4737548828125 46.73199462890625 176.96795654296875 48.50035095214844 183.5992431640625 52.47911834716797 187.13592529296875 60.878753662109375 184.925537109375 75.90969848632813 172.98919677734375 94.03523254394533 152.6531982421875 112.60284423828124 152.6531982421875 112.60284423828124 " />
        <polyline stroke="black" stroke-width="3" stroke-linecap="round" fill="transparent" stroke-linejoin="round" points="92.9715576171875 108.6240692138672 109.32879638671876 101.55070495605467 117.28631591796876 99.34025573730467 125.68597412109376 96.687744140625 133.64352416992188 95.36148071289063 153.0953369140625 92.70896911621094 159.2845458984375 92.26687622070313 161.0528564453125 92.70896911621094 161.0528564453125 92.70896911621094 " />
        <polyline stroke="black" stroke-width="3" stroke-linecap="round" fill="transparent" stroke-linejoin="round" points="102.69744873046876 137.8017578125 114.19171142578124 131.17047119140625 120.38095092773438 127.6337890625 127.01220703125 124.09710693359376 139.390625 119.23416137695313 150.44281005859375 115.69744873046876 150.44281005859375 115.69744873046876 " />
        <polyline stroke="black" stroke-width="3" stroke-linecap="round" fill="transparent" stroke-linejoin="round" points="76.17230224609375 184.2208251953125 94.29782104492188 171.40032958984375 110.212890625 162.11651611328125 129.66473388671875 152.83270263671875 148.23236083984375 146.20140075683594 171.2208251953125 143.10679626464844 180.94671630859375 143.99099731445313 185.8096923828125 146.64352416992188 188.0201416015625 152.39060974121094 184.0413818359375 166.09530639648438 169.89459228515625 183.3366546630859 159.2845458984375 192.17840576171875 148.23236083984375 198.8096923828125 148.23236083984375 198.8096923828125 " />
        <polyline stroke="black" stroke-width="3" stroke-linecap="round" fill="transparent" stroke-linejoin="round" points="109.32879638671876 199.25177001953125 125.68597412109376 196.15716552734375 133.64352416992188 196.15716552734375 142.04315185546875 196.5992431640625 169.89459228515625 203.23052978515625 187.57806396484375 215.60894775390625 187.57806396484375 215.60894775390625 " />
        </svg>