<?xml version="1.0" standalone="no"?>
    <svg width="256" height="256" xmlns="http://www.w3.org/2000/svg" version="1.1">
    <polyline stroke="black" stroke-width="3" stroke-linecap="round" fill="transparent" stroke-linejoin="round" points="101.568359375 77.27006530761719 79.48699951171875 105.97584533691406 61.380279541015625 130.70697021484375 48.573089599609375 147.4888153076172 37.09075927734375 163.8290252685547 26.49169921875 177.07786560058594 26.49169921875 177.07786560058594 " />
        <polyline stroke="black" stroke-width="3" stroke-linecap="round" fill="transparent" stroke-linejoin="round" points="171.345458984375 79.03657531738281 194.75177001953125 93.1686553955078 208.88385009765625 102.4428253173828 215.50823974609375 108.18397521972656 215.50823974609375 108.18397521972656 " />
        <polyline stroke="black" stroke-width="3" stroke-linecap="round" fill="transparent" stroke-linejoin="round" points="142.19805908203125 124.08258056640624 153.680419921875 118.78305053710938 160.3048095703125 115.25001525878906 163.39617919921875 112.60026550292967 163.39617919921875 112.60026550292967 " />
        <polyline stroke="black" stroke-width="3" stroke-linecap="round" fill="transparent" stroke-linejoin="round" points="87.8779296875 128.9404754638672 85.6697998046875 147.4888153076172 86.11138916015625 164.27066040039063 87.8779296875 178.40274047851563 90.0860595703125 189.00180053710935 94.06069946289063 199.60086059570313 99.80184936523438 207.99176025390625 109.07601928710938 213.29132080078125 125.85787963867188 212.40805053710935 147.49761962890625 207.99176025390625 162.0712890625 206.22528076171875 170.4622802734375 208.87503051757813 173.55364990234375 213.29132080078125 173.55364990234375 213.29132080078125 " />
        </svg>