<?xml version="1.0" standalone="no"?>
    <svg width="256" height="256" xmlns="http://www.w3.org/2000/svg" version="1.1">
    <polyline stroke="black" stroke-width="3" stroke-linecap="round" fill="transparent" stroke-linejoin="round" points="105.2235107421875 56.21903991699219 86.73040771484375 82.5203857421875 76.86740112304688 96.08203125 67.41537475585938 110.05459594726563 51.798919677734375 133.47923278808594 46.867431640625 140.87649536132813 43.99072265625 145.3970184326172 43.99072265625 145.3970184326172 " />
        <polyline stroke="black" stroke-width="3" stroke-linecap="round" fill="transparent" stroke-linejoin="round" points="138.10018920898438 43.890281677246094 147.96322631835938 46.35604095458984 157.415283203125 49.643699645996094 176.3193359375 57.45191955566406 194.40155029296875 65.67108154296875 203.03167724609375 70.19161987304688 203.03167724609375 70.19161987304688 " />
        <polyline stroke="black" stroke-width="3" stroke-linecap="round" fill="transparent" stroke-linejoin="round" points="152.4837646484375 128.95867919921875 135.63446044921875 145.3970184326172 126.59335327148438 154.0271453857422 111.38790893554688 167.17782592773438 104.81259155273438 172.10931396484375 104.81259155273438 172.10931396484375 " />
        <polyline stroke="black" stroke-width="3" stroke-linecap="round" fill="transparent" stroke-linejoin="round" points="96.5933837890625 127.72581481933594 95.771484375 135.53404235839844 95.36053466796876 144.98606872558594 97.415283203125 163.0682373046875 104.401611328125 181.15042114257813 113.8536376953125 195.53396606445313 126.182373046875 207.86273193359375 142.6207275390625 216.90380859375 152.07275390625 218.54763793945313 163.57958984375 217.7257080078125 163.57958984375 217.7257080078125 " />
        </svg>