<?xml version="1.0" standalone="no"?>
    <svg width="256" height="256" xmlns="http://www.w3.org/2000/svg" version="1.1">
    <polyline stroke="black" stroke-width="3" stroke-linecap="round" fill="transparent" stroke-linejoin="round" points="109.41897583007813 69.40879821777344 21.841094970703125 166.83921813964844 19.104278564453125 169.02865600585938 21.293731689453125 164.10240173339844 21.293731689453125 164.10240173339844 " />
        <polyline stroke="black" stroke-width="3" stroke-linecap="round" fill="transparent" stroke-linejoin="round" points="113.79788208007813 63.3878173828125 117.08203125 63.3878173828125 122.5556640625 62.29310607910156 131.86083984375 61.19837951660156 145.54486083984375 62.84046936035156 161.4183349609375 69.95616149902344 177.2918701171875 79.26132202148438 191.52325439453125 91.30328369140624 206.849365234375 104.43995666503906 218.343994140625 113.7451171875 227.649169921875 120.31346130371094 227.649169921875 120.31346130371094 " />
        <polyline stroke="black" stroke-width="3" stroke-linecap="round" fill="transparent" stroke-linejoin="round" points="157.5867919921875 124.14498901367188 136.23971557617188 140.0184783935547 119.271484375 153.70252990722656 105.04010009765624 165.74449157714844 94.64019775390624 174.5022735595703 94.64019775390624 174.5022735595703 " />
        <polyline stroke="black" stroke-width="3" stroke-linecap="round" fill="transparent" stroke-linejoin="round" points="96.82965087890624 150.96571350097656 89.71395874023438 167.38658142089844 84.7877197265625 182.16534423828125 82.5982666015625 194.20730590820313 84.2403564453125 202.417724609375 91.35604858398438 206.796630859375 106.68218994140624 208.986083984375 127.48193359375 203.512451171875 151.01849365234375 194.75466918945313 164.7025146484375 189.28103637695313 173.4603271484375 185.44952392578125 177.2918701171875 182.16534423828125 177.2918701171875 176.6917266845703 177.2918701171875 176.6917266845703 " />
        </svg>