<?xml version="1.0" standalone="no"?>
    <svg width="256" height="256" xmlns="http://www.w3.org/2000/svg" version="1.1">
    <polyline stroke="black" stroke-width="3" stroke-linecap="round" fill="transparent" stroke-linejoin="round" points="116.52392578125 48.604949951171875 100.99627685546876 68.32928466796875 81.27194213867188 92.25027465820313 64.48529052734375 111.13525390625 53.573944091796875 121.62692260742188 47.6986083984375 125.82359313964844 47.6986083984375 125.82359313964844 " />
        <polyline stroke="black" stroke-width="3" stroke-linecap="round" fill="transparent" stroke-linejoin="round" points="129.5335693359375 51.9622802734375 144.221923828125 55.739280700683594 152.615234375 57.837615966796875 175.2772216796875 64.97195434570313 187.8671875 69.58828735351563 192.90325927734375 71.68661499023438 201.71624755859375 78.40127563476563 201.71624755859375 78.40127563476563 " />
        <polyline stroke="black" stroke-width="3" stroke-linecap="round" fill="transparent" stroke-linejoin="round" points="168.98223876953125 118.26959228515624 160.16925048828125 123.30560302734376 140.02523803710938 137.1545867919922 120.7205810546875 152.2625732421875 115.264892578125 156.03958129882813 115.264892578125 156.03958129882813 " />
        <polyline stroke="black" stroke-width="3" stroke-linecap="round" fill="transparent" stroke-linejoin="round" points="100.57659912109376 137.99392700195313 99.31759643554688 151.0035858154297 98.478271484375 162.33457946777344 102.2552490234375 198.4259033203125 110.64862060546876 206.8192138671875 118.20257568359376 210.59622192382813 138.3465576171875 216.0518798828125 167.3035888671875 216.0518798828125 178.21490478515625 213.11422729492188 191.22454833984375 208.0782165527344 191.22454833984375 208.0782165527344 " />
        </svg>