<?xml version="1.0" standalone="no"?>
    <svg width="256" height="256" xmlns="http://www.w3.org/2000/svg" version="1.1">
    <polyline stroke="black" stroke-width="3" stroke-linecap="round" fill="transparent" stroke-linejoin="round" points="121 53 118 57 111 67 97 87 84 105 75 116 72 119 72 119 " />
        <polyline stroke="black" stroke-width="3" stroke-linecap="round" fill="transparent" stroke-linejoin="round" points="123 60 122 61 122 62 125 64 133 70 146 81 149 84 153 87 157 91 161 94 165 97 175 102 185 107 197 110 202 112 216 115 216 115 " />
        <polyline stroke="black" stroke-width="3" stroke-linecap="round" fill="transparent" stroke-linejoin="round" points="117 126 118 125 122 124 137 119 151 115 163 111 166 109 166 109 " />
        <polyline stroke="black" stroke-width="3" stroke-linecap="round" fill="transparent" stroke-linejoin="round" points="114 107 114 118 113 129 113 133 110 148 109 161 109 169 113 175 120 178 132 178 146 176 159 174 168 174 175 175 178 176 179 177 180 176 181 175 181 174 180 174 179 174 179 172 179 172 " />
        </svg>