<?xml version="1.0" standalone="no"?>
    <svg width="256" height="256" xmlns="http://www.w3.org/2000/svg" version="1.1">
    <polyline stroke="black" stroke-width="3" stroke-linecap="round" fill="transparent" stroke-linejoin="round" points="113 58 114 66 117 77 117 77 " />
        <polyline stroke="black" stroke-width="3" stroke-linecap="round" fill="transparent" stroke-linejoin="round" points="61 116 78 113 99 108 125 102 151 95 170 92 177 90 178 90 178 90 " />
        <polyline stroke="black" stroke-width="3" stroke-linecap="round" fill="transparent" stroke-linejoin="round" points="110 115 108 123 103 141 89 161 79 179 70 190 69 193 69 193 " />
        <polyline stroke="black" stroke-width="3" stroke-linecap="round" fill="transparent" stroke-linejoin="round" points="120 100 127 120 127 138 129 162 147 179 169 188 190 189 204 189 210 184 212 179 212 166 212 140 212 123 212 123 " />
        </svg>