<?xml version="1.0" standalone="no"?>
    <svg width="256" height="256" xmlns="http://www.w3.org/2000/svg" version="1.1">
    <polyline stroke="black" stroke-width="3" stroke-linecap="round" fill="transparent" stroke-linejoin="round" points="117.0321350097656 50.74009704589844 116.24786376953124 62.1121826171875 115.46359252929688 73.48426818847656 114.28717041015624 82.50350952148438 108.40505981445313 102.89483642578124 101.73867797851563 117.7961883544922 93.50369262695313 128.77613830566406 83.7001953125 137.79537963867188 77.81808471679688 139.3639373779297 77.81808471679688 139.3639373779297 " />
        <polyline stroke="black" stroke-width="3" stroke-linecap="round" fill="transparent" stroke-linejoin="round" points="148.01116943359375 24.466644287109375 147.22695922851563 54.6614990234375 146.4427490234375 84.85635375976563 148.79559326171875 106.81623840332033 151.93267822265625 119.36476135253906 155.8541259765625 129.5604248046875 160.95196533203125 137.01109313964844 168.402587890625 140.5403594970703 175.46112060546875 140.5403594970703 181.73541259765625 137.79537963867188 186.44110107421875 134.26611328125 188.7939453125 131.52110290527344 189.57818603515625 129.9525604248047 189.18609619140625 128.77613830566406 184.48040771484375 123.67829895019533 178.20611572265625 116.22761535644533 178.20611572265625 116.22761535644533 " />
        <polyline stroke="black" stroke-width="3" stroke-linecap="round" fill="transparent" stroke-linejoin="round" points="57.818847656249986 121.71757507324219 84.48446655273438 105.24766540527344 111.15008544921876 88.77775573730469 132.32562255859375 75.83711242675781 132.32562255859375 75.83711242675781 " />
        <polyline stroke="black" stroke-width="3" stroke-linecap="round" fill="transparent" stroke-linejoin="round" points="188.0096435546875 91.13059997558594 188.0096435546875 91.13059997558594 188.0096435546875 91.13059997558594 " />
        <polyline stroke="black" stroke-width="3" stroke-linecap="round" fill="transparent" stroke-linejoin="round" points="77.81805419921872 182.89158630371094 104.87579345703124 174.2644805908203 131.93353271484375 165.6373748779297 146.83486938476563 161.32383728027344 160.559814453125 157.79457092285156 168.402587890625 156.22598266601563 175.06903076171875 155.83384704589844 177.81396484375 155.83384704589844 178.5982666015625 157.01028442382813 173.892578125 163.28453063964844 162.91265869140625 174.2644805908203 150.75628662109375 186.0286865234375 139.38418579101563 195.83221435546875 130.75711059570313 202.10647583007813 126.05142211914063 202.89077758789065 126.05142211914063 202.89077758789065 " />
        <polyline stroke="black" stroke-width="3" stroke-linecap="round" fill="transparent" stroke-linejoin="round" points="132.32568359375 200.9300537109375 138.9920654296875 205.6357421875 145.658447265625 210.3414306640625 154.67767333984375 218.18426513671875 163.3048095703125 223.6742248535156 163.3048095703125 223.6742248535156 " />
        </svg>