<?xml version="1.0" standalone="no"?>
    <svg width="256" height="256" xmlns="http://www.w3.org/2000/svg" version="1.1">
    <polyline stroke="black" stroke-width="3" stroke-linecap="round" fill="transparent" stroke-linejoin="round" points="127 57 127 63 127 69 124 86 117 101 114 110 108 123 100 133 93 141 88 147 81 150 81 150 " />
        <polyline stroke="black" stroke-width="3" stroke-linecap="round" fill="transparent" stroke-linejoin="round" points="54 114 66 114 78 114 95 114 110 114 110 114 " />
        <polyline stroke="black" stroke-width="3" stroke-linecap="round" fill="transparent" stroke-linejoin="round" points="192 86 189 86 186 86 177 86 166 86 162 86 162 86 " />
        <polyline stroke="black" stroke-width="3" stroke-linecap="round" fill="transparent" stroke-linejoin="round" points="150 44 150 55 150 66 150 80 151 95 154 101 159 106 172 116 189 118 206 119 222 119 227 117 227 117 " />
        <polyline stroke="black" stroke-width="3" stroke-linecap="round" fill="transparent" stroke-linejoin="round" points="98 152 105 150 112 148 135 141 164 137 170 137 179 137 181 139 181 148 174 158 164 169 152 180 139 189 132 192 132 192 " />
        <polyline stroke="black" stroke-width="3" stroke-linecap="round" fill="transparent" stroke-linejoin="round" points="106 196 117 196 128 196 142 197 162 201 180 209 180 209 " />
        </svg>