<?xml version="1.0" standalone="no"?>
    <svg width="256" height="256" xmlns="http://www.w3.org/2000/svg" version="1.1">
    <polyline stroke="black" stroke-width="3" stroke-linecap="round" fill="transparent" stroke-linejoin="round" points="58.1739501953125 89.43426513671875 61.234527587890625 105.96133422851563 61.84661865234375 124.93684387207033 61.84661865234375 142.07601928710938 61.84661865234375 153.09405517578125 61.84661865234375 158.6030731201172 61.84661865234375 161.05152893066406 60.622406005859375 158.6030731201172 60.622406005859375 149.42137145996094 63.07086181640625 131.05796813964844 67.35565185546875 113.91880798339844 74.08892822265625 98.0038604736328 81.43426513671875 85.76158142089844 88.16751098632813 79.02833557128906 95.51287841796876 74.74354553222656 102.24612426757813 73.51931762695313 107.755126953125 74.74354553222656 112.65203857421876 80.2525634765625 115.71261596679688 90.6584930419922 115.10049438476563 107.185546875 110.81570434570313 120.03993225097656 103.4703369140625 132.28219604492188 93.06442260742188 143.3002471923828 78.98580932617188 156.1546173095703 69.1920166015625 164.11209106445313 63.07086181640625 167.78477478027344 60.622406005859375 167.78477478027344 60.622406005859375 166.560546875 65.51931762695313 163.49998474121094 74.08892822265625 158.6030731201172 89.3917236328125 150.0334930419922 100.4097900390625 143.912353515625 109.59149169921876 139.01544189453125 109.59149169921876 139.01544189453125 " />
        <polyline stroke="black" stroke-width="3" stroke-linecap="round" fill="transparent" stroke-linejoin="round" points="143.86981201171875 102.9007568359375 153.051513671875 93.71905517578124 160.39691162109375 88.82215881347656 168.96649169921875 84.537353515625 177.53607177734375 80.86468505859375 184.88140869140625 77.80410766601563 189.7783203125 77.80410766601563 192.226806640625 79.02833557128906 192.226806640625 79.02833557128906 " />
        <polyline stroke="black" stroke-width="3" stroke-linecap="round" fill="transparent" stroke-linejoin="round" points="127.95489501953124 152.48194885253906 138.36080932617188 150.64559936523438 148.7667236328125 148.1971435546875 161.62109375 145.13658142089844 173.8634033203125 140.85179138183594 184.269287109375 137.17910766601563 191.61468505859375 133.5064239501953 191.61468505859375 133.5064239501953 " />
        <polyline stroke="black" stroke-width="3" stroke-linecap="round" fill="transparent" stroke-linejoin="round" points="164.069580078125 49.03478240966797 162.8453369140625 62.50128173828125 160.39691162109375 85.76158142089844 157.94842529296875 105.96133422851563 155.5 131.6700897216797 153.66363525390625 153.09405517578125 153.051513671875 173.90591430664063 155.5 191.65719604492188 158.560546875 204.51156616210935 162.8453369140625 212.46905517578125 168.96649169921875 217.365966796875 177.53607177734375 217.97805786132813 188.5540771484375 214.91751098632813 197.73583984375 209.40847778320313 205.0811767578125 203.89947509765625 209.97802734375 198.39044189453125 213.6507568359375 194.10565185546875 214.26287841796875 191.04507446289065 212.426513671875 187.37240600585935 212.426513671875 187.37240600585935 " />
        </svg>