<?xml version="1.0" standalone="no"?>
    <svg width="256" height="256" xmlns="http://www.w3.org/2000/svg" version="1.1">
    <polyline stroke="black" stroke-width="3" stroke-linecap="round" fill="transparent" stroke-linejoin="round" points="46.5438232421875 90.04638671875 45.93170166015625 104.12498474121094 45.319580078125 116.9793701171875 45.319580078125 131.05796813964844 47.155914306640625 144.52447509765625 48.99224853515625 154.93038940429688 50.21649169921875 161.66363525390625 50.21649169921875 166.560546875 50.21649169921875 167.78477478027344 48.99224853515625 162.8878631591797 47.155914306640625 143.912353515625 45.93170166015625 121.87628173828124 46.5438232421875 112.694580078125 47.768035888671875 105.96133422851563 50.21649169921875 101.06442260742188 53.27703857421875 96.16751098632813 58.1739501953125 92.4948272705078 65.51931762695313 88.82215881347656 74.70101928710938 86.37370300292969 82.04638671875 86.37370300292969 88.16751098632813 88.82215881347656 93.676513671875 94.3311767578125 97.96133422851563 104.7371063232422 99.185546875 122.48838806152344 96.125 135.9548797607422 90.615966796875 148.80926513671875 82.65850830078125 159.21519470214844 72.2525634765625 170.2332305908203 64.29510498046875 176.9664764404297 58.1739501953125 181.2512664794922 54.50128173828125 183.69973754882813 56.949737548828125 183.08761596679688 61.84661865234375 180.02703857421875 71.0283203125 173.90591430664063 80.8221435546875 165.9484405517578 97.34921264648438 150.0334930419922 97.34921264648438 150.0334930419922 " />
        <polyline stroke="black" stroke-width="3" stroke-linecap="round" fill="transparent" stroke-linejoin="round" points="121.22161865234376 101.06442260742188 134.07601928710938 94.94328308105467 144.48193359375 90.6584930419922 155.5 86.98580932617188 167.130126953125 83.31312561035156 175.69970703125 80.86468505859375 181.208740234375 80.86468505859375 183.0450439453125 82.08891296386719 177.53607177734375 93.71905517578124 177.53607177734375 93.71905517578124 " />
        <polyline stroke="black" stroke-width="3" stroke-linecap="round" fill="transparent" stroke-linejoin="round" points="115.10049438476563 148.80926513671875 126.73065185546876 146.36080932617188 137.1365966796875 143.3002471923828 149.990966796875 139.6275634765625 163.45745849609375 134.11854553222656 177.53607177734375 126.77317810058594 177.53607177734375 126.77317810058594 " />
        <polyline stroke="black" stroke-width="3" stroke-linecap="round" fill="transparent" stroke-linejoin="round" points="168.96649169921875 33.119834899902344 162.8453369140625 50.871124267578125 156.7242431640625 74.13143920898438 150.60308837890625 102.28865051269533 146.93038940429688 127.99740600585938 143.86981201171875 153.70616149902344 142.64559936523438 174.5180206298828 143.86981201171875 192.88140869140625 146.93038940429688 206.34793090820313 153.051513671875 214.30538940429688 162.23321533203125 219.81442260742188 173.25128173828125 222.87496948242188 183.6572265625 221.6507568359375 191.0025634765625 217.97805786132813 197.73583984375 211.85693359375 202.0206298828125 205.12368774414065 205.0811767578125 195.9419860839844 204.46905517578125 187.37240600585935 195.89947509765625 161.05152893066406 195.89947509765625 161.05152893066406 " />
        </svg>