<?xml version="1.0" standalone="no"?>
    <svg width="256" height="256" xmlns="http://www.w3.org/2000/svg" version="1.1">
    <polyline stroke="black" stroke-width="3" stroke-linecap="round" fill="transparent" stroke-linejoin="round" points="82.36578369140625 68.23451232910156 93.57931518554688 59.381744384765625 107.74374389648438 51.11915588378906 127.2198486328125 44.03694152832031 144.335205078125 40.495826721191406 159.67999267578125 38.72527313232422 168.53277587890625 39.315460205078125 172.6640625 41.67620086669922 172.6640625 48.16822814941406 166.1719970703125 58.79154968261719 153.18798828125 72.95599365234375 140.7940673828125 87.71060180664063 133.71185302734375 103.05540466308594 131.35113525390625 119.58058166503906 131.94131469726563 136.10574340820313 136.0726318359375 154.9916534423828 140.20391845703125 171.51683044433594 141.97445678710938 183.32052612304688 141.97445678710938 189.81256103515625 140.20391845703125 194.53402709960935 135.482421875 195.71441650390625 127.81002807617188 192.76348876953125 127.81002807617188 192.76348876953125 " />
        <polyline stroke="black" stroke-width="3" stroke-linecap="round" fill="transparent" stroke-linejoin="round" points="70.56210327148438 133.1548309326172 82.36578369140625 142.00759887695313 91.80877685546876 146.7290802001953 105.97320556640624 147.3192596435547 127.2198486328125 140.8272247314453 127.2198486328125 140.8272247314453 " />
        <polyline stroke="black" stroke-width="3" stroke-linecap="round" fill="transparent" stroke-linejoin="round" points="208.665283203125 103.05540466308594 198.6322021484375 118.99038696289063 183.8775634765625 137.28611755371094 158.4996337890625 165.02479553222656 158.4996337890625 165.02479553222656 " />
        <polyline stroke="black" stroke-width="3" stroke-linecap="round" fill="transparent" stroke-linejoin="round" points="66.43081665039063 215.7806701660156 81.1854248046875 208.69845581054688 95.9400634765625 202.2064208984375 124.2689208984375 192.17330932617188 144.92538452148438 186.86163330078125 170.3033447265625 183.32052612304688 188.59906005859375 182.7303466796875 203.3536376953125 186.27145385742188 203.3536376953125 186.27145385742188 " />
        </svg>