<?xml version="1.0" standalone="no"?>
    <svg width="256" height="256" xmlns="http://www.w3.org/2000/svg" version="1.1">
    <polyline stroke="black" stroke-width="3" stroke-linecap="round" fill="transparent" stroke-linejoin="round" points="58.540985107421875 81.4039306640625 71.36151123046875 74.77264404296875 78.876953125 71.67803955078125 87.276611328125 68.58343505859375 96.11834716796876 65.48883056640625 115.12802124023438 60.625885009765625 132.81149291992188 57.089202880859375 146.51617431640625 55.32084655761719 153.1474609375 55.32084655761719 154.915771484375 56.64710998535156 153.1474609375 64.16256713867188 143.42156982421875 79.63558959960938 131.04315185546875 94.66653442382813 120.87518310546876 108.37120056152344 114.68597412109376 118.5391845703125 111.59130859375 127.822998046875 111.14926147460938 140.20140075683594 111.59130859375 147.27481079101563 114.68597412109376 173.35787963867188 114.68597412109376 187.06256103515625 112.47552490234376 198.11471557617188 107.612548828125 205.1881103515625 105.84423828125 207.3985290527344 105.84423828125 207.3985290527344 " />
        <polyline stroke="black" stroke-width="3" stroke-linecap="round" fill="transparent" stroke-linejoin="round" points="36.878753662109375 142.8539276123047 46.60467529296875 150.369384765625 51.467620849609375 153.4639892578125 69.15106201171875 162.30572509765625 69.15106201171875 162.30572509765625 " />
        <polyline stroke="black" stroke-width="3" stroke-linecap="round" fill="transparent" stroke-linejoin="round" points="193.81939697265625 97.3190460205078 183.6513671875 110.58163452148438 177.904296875 116.77085876464844 147.8424072265625 145.06436157226563 130.158935546875 159.6531982421875 122.201416015625 166.28448486328125 122.201416015625 166.28448486328125 " />
        <polyline stroke="black" stroke-width="3" stroke-linecap="round" fill="transparent" stroke-linejoin="round" points="32.4578857421875 207.3985290527344 50.141357421875 204.7460021972656 70.477294921875 202.093505859375 95.67623901367188 197.67263793945313 123.0855712890625 195.0201110839844 148.7265625 193.69384765625 169.504638671875 193.25177001953125 177.462158203125 194.5780334472656 177.462158203125 194.5780334472656 " />
        </svg>