<?xml version="1.0" standalone="no"?>
    <svg width="256" height="256" xmlns="http://www.w3.org/2000/svg" version="1.1">
    <polyline stroke="black" stroke-width="3" stroke-linecap="round" fill="transparent" stroke-linejoin="round" points="90 83 94 83 98 83 104 82 118 78 132 76 143 74 151 74 154 74 154 75 146 84 135 95 126 102 121 109 120 114 122 121 131 132 138 145 142 156 144 166 144 174 139 181 131 185 122 188 113 189 103 186 103 186 " />
        <polyline stroke="black" stroke-width="3" stroke-linecap="round" fill="transparent" stroke-linejoin="round" points="71 153 80 158 89 163 102 166 102 166 " />
        <polyline stroke="black" stroke-width="3" stroke-linecap="round" fill="transparent" stroke-linejoin="round" points="180 124 174 134 168 144 158 154 158 154 " />
        <polyline stroke="black" stroke-width="3" stroke-linecap="round" fill="transparent" stroke-linejoin="round" points="63 212 68 209 73 206 86 203 95 200 116 198 127 197 152 197 177 196 201 194 222 194 222 194 " />
        </svg>