<?xml version="1.0" standalone="no"?>
    <svg width="256" height="256" xmlns="http://www.w3.org/2000/svg" version="1.1">
    <polyline stroke="black" stroke-width="3" stroke-linecap="round" fill="transparent" stroke-linejoin="round" points="127.48648071289063 40.53510284423828 117.46182250976563 52.176658630371094 99.02935791015624 79.34031677246094 76.39297485351563 113.94161987304688 56.6669921875 148.86630249023438 38.2344970703125 181.52735900878903 24.329315185546875 204.16372680664065 24.329315185546875 204.16372680664065 " />
        <polyline stroke="black" stroke-width="3" stroke-linecap="round" fill="transparent" stroke-linejoin="round" points="118.75527954101563 75.13641357421875 153.67999267578125 91.30525207519533 180.8436279296875 111.03121948242188 201.21636962890625 128.4935760498047 215.4449462890625 137.87149047851563 215.4449462890625 137.87149047851563 " />
        <polyline stroke="black" stroke-width="3" stroke-linecap="round" fill="transparent" stroke-linejoin="round" points="63.4578857421875 174.73643493652344 96.11895751953124 165.3585205078125 114.55142211914063 162.77151489257813 126.19296264648438 161.47799682617188 146.56573486328125 161.15463256835938 155.6202392578125 161.47799682617188 155.6202392578125 161.47799682617188 " />
        <polyline stroke="black" stroke-width="3" stroke-linecap="round" fill="transparent" stroke-linejoin="round" points="70.57217407226563 116.20526123046876 64.10464477539063 149.83644104003906 63.781280517578125 175.05982971191406 67.01504516601563 196.40267944335935 74.12930297851563 209.9844970703125 81.89035034179688 218.0689392089844 99.02935791015624 226.47671508789065 120.37216186523438 228.0936279296875 140.74493408203125 225.506591796875 155.94366455078125 224.53646850585935 170.1722412109375 225.8299865722656 180.1968994140625 230.35726928710935 180.1968994140625 230.35726928710935 " />
        </svg>