<?xml version="1.0" standalone="no"?>
    <svg width="256" height="256" xmlns="http://www.w3.org/2000/svg" version="1.1">
    <polyline stroke="black" stroke-width="3" stroke-linecap="round" fill="transparent" stroke-linejoin="round" points="131.43307495117188 41.0936279296875 118.17050170898438 55.240386962890625 110.655029296875 63.64002990722656 102.69744873046876 72.92384338378906 94.29782104492188 82.64974975585938 81.03524780273438 98.1227569580078 70.86724853515625 109.61700439453124 64.67803955078125 116.69036865234376 60.69927978515625 120.22708129882813 60.69927978515625 120.22708129882813 " />
        <polyline stroke="black" stroke-width="3" stroke-linecap="round" fill="transparent" stroke-linejoin="round" points="132.75933837890625 60.10333251953125 148.23236083984375 64.96629333496094 154.42156982421875 67.61880493164063 160.61077880859375 71.15550231933594 176.96795654296875 81.323486328125 181.38885498046875 84.4180908203125 185.8096923828125 87.95477294921875 188.904296875 90.6072998046875 188.904296875 90.6072998046875 " />
        <polyline stroke="black" stroke-width="3" stroke-linecap="round" fill="transparent" stroke-linejoin="round" points="181.38885498046875 124.64793395996094 165.4737548828125 133.93174743652344 157.0740966796875 139.23678588867188 147.34814453125 145.42599487304688 128.780517578125 156.92025756835938 121.70721435546876 160.89901733398438 121.70721435546876 160.89901733398438 " />
        <polyline stroke="black" stroke-width="3" stroke-linecap="round" fill="transparent" stroke-linejoin="round" points="93.41366577148438 137.4684295654297 92.9715576171875 160.4569091796875 93.41366577148438 169.29864501953125 96.95037841796876 185.6558532714844 110.212890625 205.10763549804688 128.33847045898438 215.275634765625 147.34814453125 219.25439453125 164.1474609375 218.3702392578125 175.19964599609375 214.83355712890625 175.19964599609375 214.83355712890625 " />
        </svg>