<?xml version="1.0" standalone="no"?>
    <svg width="256" height="256" xmlns="http://www.w3.org/2000/svg" version="1.1">
    <polyline stroke="black" stroke-width="3" stroke-linecap="round" fill="transparent" stroke-linejoin="round" points="124 33 118 41 112 49 110 52 103 59 98 67 95 70 93 74 91 76 91 77 91 79 90 79 88 81 88 83 87 84 87 85 87 87 86 87 86 89 84 92 83 95 83 95 82 97 81 98 81 99 91 99 117 92 123 89 141 83 151 77 155 76 158 74 160 74 160 73 161 73 162 72 162 72 " />
        <polyline stroke="black" stroke-width="3" stroke-linecap="round" fill="transparent" stroke-linejoin="round" points="151 58 152 60 153 62 159 69 173 85 179 94 190 107 194 113 197 118 199 121 199 122 199 122 " />
        <polyline stroke="black" stroke-width="3" stroke-linecap="round" fill="transparent" stroke-linejoin="round" points="112 119 112 127 112 135 112 142 111 164 109 187 107 195 106 204 105 207 105 208 105 209 105 210 105 210 " />
        <polyline stroke="black" stroke-width="3" stroke-linecap="round" fill="transparent" stroke-linejoin="round" points="123 130 124 130 125 130 127 130 127 129 130 129 133 129 139 129 147 130 156 131 161 131 164 132 169 132 173 133 175 133 175 134 176 135 176 138 176 151 175 162 170 180 165 191 159 200 158 203 157 204 156 204 156 205 156 205 " />
        <polyline stroke="black" stroke-width="3" stroke-linecap="round" fill="transparent" stroke-linejoin="round" points="103 201 109 201 115 201 133 201 145 200 161 199 170 199 171 199 175 198 176 198 177 198 177 198 " />
        </svg>