<?xml version="1.0" standalone="no"?>
    <svg width="256" height="256" xmlns="http://www.w3.org/2000/svg" version="1.1">
    <polyline stroke="black" stroke-width="3" stroke-linecap="round" fill="transparent" stroke-linejoin="round" points="113 46 114 45 115 44 115 45 113 50 107 60 101 69 92 82 87 90 85 93 85 94 86 95 90 94 97 93 105 91 118 89 132 86 145 83 153 80 155 80 160 79 161 79 161 80 160 80 159 80 157 81 155 81 155 81 " />
        <polyline stroke="black" stroke-width="3" stroke-linecap="round" fill="transparent" stroke-linejoin="round" points="156 65 160 71 164 77 168 85 169 89 169 89 " />
        <polyline stroke="black" stroke-width="3" stroke-linecap="round" fill="transparent" stroke-linejoin="round" points="99 131 98 130 97 129 96 129 96 131 96 133 97 143 97 157 96 170 96 178 98 182 102 181 102 181 " />
        <polyline stroke="black" stroke-width="3" stroke-linecap="round" fill="transparent" stroke-linejoin="round" points="103 137 103 135 103 133 106 131 115 128 126 126 138 125 150 125 157 125 159 125 165 124 168 124 167 127 165 134 161 144 158 154 156 163 155 169 154 172 154 173 154 174 153 175 153 175 " />
        <polyline stroke="black" stroke-width="3" stroke-linecap="round" fill="transparent" stroke-linejoin="round" points="100 179 104 178 108 177 116 175 129 173 139 173 142 173 153 174 159 175 159 175 " />
        </svg>