<?xml version="1.0" standalone="no"?>
    <svg width="256" height="256" xmlns="http://www.w3.org/2000/svg" version="1.1">
    <polyline stroke="black" stroke-width="3" stroke-linecap="round" fill="transparent" stroke-linejoin="round" points="50.041900634765625 82.53211975097656 64.475341796875 81.90788269042969 78.90878295898438 81.28364562988281 114.75762939453124 78.7869873046875 134.0892333984375 77.43403625488281 152.7349853515625 75.56654357910156 187.0032958984375 71.74180603027344 206.6734619140625 68.8424072265625 209.18621826171875 69.06723022460938 209.4375 69.08970642089844 " />
        <polyline stroke="black" stroke-width="3" stroke-linecap="round" fill="transparent" stroke-linejoin="round" points="92.26068115234371 94.97264099121091 94.51617431640624 107.94914245605467 96.77166748046876 120.92564392089844 102.50323486328124 148.05633544921875 105.901123046875 162.05978393554688 112.078857421875 178.4417724609375 114.31698608398438 182.06912231445313 114.540771484375 182.43185424804688 114.555908203125 182.45632934570313 " />
        <polyline stroke="black" stroke-width="3" stroke-linecap="round" fill="transparent" stroke-linejoin="round" points="171.130615234375 108.0443115234375 170.0609130859375 120.03965759277344 168.9912109375 132.03500366210938 166.5198974609375 146.8474578857422 161.98870849609375 160.87950134277344 154.81201171875 174.03277587890625 153.4544677734375 174.02012634277344 " />
        <polyline stroke="black" stroke-width="3" stroke-linecap="round" fill="transparent" stroke-linejoin="round" points="61.3988037109375 203.73672485351563 73.97900390625 200.18600463867188 86.5592041015625 196.63528442382813 102.32748413085938 194.11102294921875 127.92367553710938 194.62667846679688 141.8179931640625 197.1990966796875 169.54315185546875 202.0369873046875 181.667724609375 202.85369873046875 201.4798583984375 203.6505126953125 208.848388671875 204.48095703125 209.05218505859375 204.52197265625 209.0655517578125 204.524658203125 " />
        </svg>