<?xml version="1.0" standalone="no"?>
    <svg width="256" height="256" xmlns="http://www.w3.org/2000/svg" version="1.1">
    <polyline stroke="black" stroke-width="3" stroke-linecap="round" fill="transparent" stroke-linejoin="round" points="50.4566650390625 93.82904052734375 58.54296875 89.77528381347656 66.6292724609375 85.72152709960938 89.34173583984375 76.80427551269531 112.704833984375 71.56938171386719 122.74072265625 70.16165161132813 144.11849975585938 67.541259765625 153.373779296875 66.42657470703125 159.950927734375 64.52731323242188 161.43695068359375 63.248809814453125 161.803955078125 62.01152038574219 161.811767578125 61.98504638671875 161.8128662109375 61.98146057128906 " />
        <polyline stroke="black" stroke-width="3" stroke-linecap="round" fill="transparent" stroke-linejoin="round" points="80.9786376953125 102.40925598144531 81.3714599609375 112.11062622070313 81.7642822265625 121.81199645996094 83.63311767578125 142.92123413085938 86.6494140625 155.3170166015625 88.70867919921875 158.52349853515625 92.52239990234376 159.92062377929688 93.72271728515624 159.66079711914063 98.87841796875 159.8240203857422 100.050537109375 159.5320281982422 " />
        <polyline stroke="black" stroke-width="3" stroke-linecap="round" fill="transparent" stroke-linejoin="round" points="148.697509765625 85.20217895507813 147.06552124023438 105.79421997070313 145.43353271484375 126.38626098632813 143.6798095703125 137.96263122558594 137.37557983398438 161.51904296875 133.104736328125 170.2073211669922 129.72509765625 174.30862426757813 129.70623779296875 172.1454315185547 " />
        <polyline stroke="black" stroke-width="3" stroke-linecap="round" fill="transparent" stroke-linejoin="round" points="74.56610107421875 178.88851928710938 84.17330932617188 177.24630737304688 93.780517578125 175.60409545898438 103.34201049804688 174.05368041992188 128.68417358398438 170.66802978515625 140.11419677734375 169.221923828125 157.7607421875 167.20022583007813 161.42474365234375 167.02871704101563 165.06573486328125 168.32781982421875 165.384521484375 174.44883728027344 164.60064697265625 175.35897827148438 " />
        </svg>