<?xml version="1.0" standalone="no"?>
    <svg width="256" height="256" xmlns="http://www.w3.org/2000/svg" version="1.1">
    <polyline stroke="black" stroke-width="3" stroke-linecap="round" fill="transparent" stroke-linejoin="round" points="65.84466552734375 87.95968627929688 83.49298095703125 86.65238952636719 86.76116943359375 85.99876403808594 111.59967041015624 84.03782653808594 122.0579833984375 82.73052978515625 149.510986328125 79.46232604980469 171.08123779296875 75.54048156738281 186.7686767578125 72.92588806152344 193.30511474609375 70.9649658203125 191.34417724609375 70.9649658203125 186.11505126953125 72.92588806152344 186.11505126953125 72.92588806152344 " />
        <polyline stroke="black" stroke-width="3" stroke-linecap="round" fill="transparent" stroke-linejoin="round" points="90.0294189453125 108.8762664794922 84.14666748046875 131.7537841796875 84.80029296875 133.7147216796875 86.76116943359375 148.74851989746094 86.76116943359375 152.6703643798828 86.76116943359375 155.9385986328125 87.41485595703125 157.2458953857422 87.41485595703125 151.3630828857422 87.41485595703125 151.3630828857422 " />
        <polyline stroke="black" stroke-width="3" stroke-linecap="round" fill="transparent" stroke-linejoin="round" points="84.14666748046875 132.4074249267578 93.29766845703124 109.5299072265625 95.9122314453125 108.22264099121094 114.21429443359376 99.72526550292967 120.75067138671876 97.76432800292967 139.05267333984375 95.1497802734375 150.16461181640625 95.1497802734375 165.85205078125 97.11068725585938 175.00311279296875 99.72526550292967 179.57855224609375 104.30076599121094 182.193115234375 118.0272979736328 178.9249267578125 131.10015869140625 173.69573974609375 139.59751892089844 159.96923828125 146.78758239746094 156.04742431640625 145.4803009033203 154.7401123046875 144.82666015625 154.7401123046875 144.82666015625 " />
        <polyline stroke="black" stroke-width="3" stroke-linecap="round" fill="transparent" stroke-linejoin="round" points="124.0189208984375 107.56898498535156 116.1751708984375 125.21734619140624 116.1751708984375 127.83195495605467 117.48248291015624 137.6365966796875 118.1361083984375 137.6365966796875 119.443359375 136.98294067382813 124.0189208984375 127.83195495605467 127.287109375 121.94914245605467 127.287109375 121.94914245605467 " />
        <polyline stroke="black" stroke-width="3" stroke-linecap="round" fill="transparent" stroke-linejoin="round" points="133.16986083984375 108.8762664794922 146.89642333984375 96.45704650878906 148.20367431640625 110.18356323242188 147.550048828125 113.45176696777344 139.05267333984375 131.10015869140625 128.59442138671875 143.5193634033203 122.71160888671876 148.09487915039063 122.71160888671876 148.09487915039063 " />
        <polyline stroke="black" stroke-width="3" stroke-linecap="round" fill="transparent" stroke-linejoin="round" points="93.9512939453125 159.20681762695313 124.0189208984375 152.6703643798828 127.94073486328124 152.6703643798828 169.77392578125 153.97769165039063 175.65667724609375 155.28494262695313 180.8858642578125 155.9385986328125 180.8858642578125 155.9385986328125 " />
        </svg>