<?xml version="1.0" standalone="no"?>
    <svg width="256" height="256" xmlns="http://www.w3.org/2000/svg" version="1.1">
    <polyline stroke="black" stroke-width="3" stroke-linecap="round" fill="transparent" stroke-linejoin="round" points="57.27020263671875 112.79696655273438 75.75091552734375 104.8766632080078 128.55288696289063 86.06597900390625 174.0946044921875 77.1556396484375 183.3349609375 77.81565856933594 183.3349609375 77.81565856933594 " />
        <polyline stroke="black" stroke-width="3" stroke-linecap="round" fill="transparent" stroke-linejoin="round" points="65.5205078125 140.8480224609375 67.50057983398438 152.72845458984375 73.11080932617188 168.23904418945313 74.43084716796875 171.8691864013672 74.43084716796875 171.8691864013672 " />
        <polyline stroke="black" stroke-width="3" stroke-linecap="round" fill="transparent" stroke-linejoin="round" points="73.7708740234375 148.768310546875 79.38104248046875 142.82809448242188 108.75213623046876 124.347412109375 144.39349365234375 117.41712951660156 150.00369262695313 117.41712951660156 165.84429931640625 120.3872528076172 176.4046630859375 125.66746520996094 181.68487548828125 132.2677001953125 182.6749267578125 139.19796752929688 178.05474853515625 150.74838256835938 167.49432373046875 161.63880920410156 152.97381591796875 169.88912963867188 134.8231201171875 173.51927185058594 134.8231201171875 173.51927185058594 134.8231201171875 173.51927185058594 " />
        <polyline stroke="black" stroke-width="3" stroke-linecap="round" fill="transparent" stroke-linejoin="round" points="95.22164916992188 130.28762817382813 99.18179321289063 142.82809448242188 102.81195068359376 157.01864624023438 103.14193725585938 158.66868591308594 106.112060546875 161.30877685546875 113.04232788085938 159.65872192382813 123.93270874023438 149.7583770751953 130.20297241210938 142.16806030273438 135.15316772460938 139.52796936035156 138.12322998046875 138.8679656982422 139.11328125 139.19796752929688 139.44329833984375 141.1780242919922 132.18304443359375 153.0584716796875 119.31256103515624 166.25900268554688 102.81195068359376 176.81936645507813 88.951416015625 182.4296112060547 82.35116577148438 183.089599609375 79.05105590820313 183.089599609375 78.72103881835938 182.09957885742188 82.35116577148438 180.44949340820313 94.8916015625 178.13943481445313 112.05224609375 176.48934936523438 131.85299682617188 176.15936279296875 145.383544921875 176.81936645507813 174.754638671875 181.4395446777344 174.754638671875 181.4395446777344 " />
        </svg>