<?xml version="1.0" standalone="no"?>
    <svg width="256" height="256" xmlns="http://www.w3.org/2000/svg" version="1.1">
    <polyline stroke="black" stroke-width="3" stroke-linecap="round" fill="transparent" stroke-linejoin="round" points="79.8223876953125 71.94515991210938 95.32574462890624 68.73756408691406 115.1058349609375 63.92619323730469 131.14376831054688 60.18400573730469 145.57791137695313 57.511016845703125 154.66607666015625 57.511016845703125 159.4774169921875 59.11480712890625 161.08123779296875 63.39158630371094 157.8736572265625 75.15274047851563 146.11248779296875 91.190673828125 130.0745849609375 105.6248016357422 130.0745849609375 105.6248016357422 " />
        <polyline stroke="black" stroke-width="3" stroke-linecap="round" fill="transparent" stroke-linejoin="round" points="105.48309326171876 96.53665161132813 119.38262939453124 99.74423217773438 133.8167724609375 105.0902099609375 146.11248779296875 115.24755859375 146.11248779296875 115.24755859375 " />
        <polyline stroke="black" stroke-width="3" stroke-linecap="round" fill="transparent" stroke-linejoin="round" points="77.1494140625 155.87698364257813 91.58355712890624 153.20399475097656 109.22528076171876 149.9964141845703 122.05560302734376 147.85801696777344 132.21295166015625 145.71963500976563 136.48974609375 143.04664611816406 136.48974609375 143.04664611816406 " />
        <polyline stroke="black" stroke-width="3" stroke-linecap="round" fill="transparent" stroke-linejoin="round" points="87.3067626953125 155.34239196777344 80.35699462890625 170.84571838378906 73.94183349609375 186.88363647460935 69.13043212890625 199.7139892578125 66.9920654296875 207.73294067382813 66.45745849609375 212.5443420410156 66.45745849609375 212.5443420410156 " />
        <polyline stroke="black" stroke-width="3" stroke-linecap="round" fill="transparent" stroke-linejoin="round" points="102.2755126953125 185.27984619140625 109.75985717773438 192.2296142578125 118.31341552734376 199.17938232421875 125.26318359375 203.4561767578125 125.26318359375 203.4561767578125 " />
        <polyline stroke="black" stroke-width="3" stroke-linecap="round" fill="transparent" stroke-linejoin="round" points="154.66607666015625 154.273193359375 162.68505859375 152.66940307617188 171.23858642578125 151.0655975341797 180.3267822265625 148.39260864257813 187.8111572265625 143.04664611816406 187.8111572265625 143.04664611816406 " />
        <polyline stroke="black" stroke-width="3" stroke-linecap="round" fill="transparent" stroke-linejoin="round" points="173.376953125 98.67503356933594 166.42724609375 112.03997802734376 157.8736572265625 135.02767944335938 150.92388916015625 155.87698364257813 143.97412109375 177.26089477539063 139.1627197265625 194.36801147460935 134.88595581054688 207.73294067382813 134.88595581054688 207.73294067382813 " />
        <polyline stroke="black" stroke-width="3" stroke-linecap="round" fill="transparent" stroke-linejoin="round" points="164.288818359375 173.51870727539063 173.376953125 181.00306701660156 185.6727294921875 192.76422119140625 200.10687255859375 214.14813232421875 200.10687255859375 214.14813232421875 " />
        </svg>