<?xml version="1.0" standalone="no"?>
    <svg width="256" height="256" xmlns="http://www.w3.org/2000/svg" version="1.1">
    <polyline stroke="black" stroke-width="3" stroke-linecap="round" fill="transparent" stroke-linejoin="round" points="93.80010986328124 73.86668395996094 119.4000244140625 66.40000915527344 137.533447265625 62.13334655761719 147.1334228515625 60 150.3333740234375 60 153.533447265625 60 152.466796875 62.13334655761719 149.2667236328125 65.33334350585938 142.86669921875 71.73333740234375 127.93341064453124 81.33334350585938 109.80010986328124 87.73333740234375 109.80010986328124 87.73333740234375 " />
        <polyline stroke="black" stroke-width="3" stroke-linecap="round" fill="transparent" stroke-linejoin="round" points="130.0667724609375 98.40000915527344 132.2000732421875 100.53335571289063 134.3333740234375 102.66667175292967 131.1334228515625 104.8000030517578 131.1334228515625 104.8000030517578 " />
        <polyline stroke="black" stroke-width="3" stroke-linecap="round" fill="transparent" stroke-linejoin="round" points="76.7333984375 145.33334350585938 101.2667236328125 136.80001831054688 115.1334228515625 133.6000213623047 119.4000244140625 132.53334045410156 119.4000244140625 131.4666748046875 119.4000244140625 131.4666748046875 " />
        <polyline stroke="black" stroke-width="3" stroke-linecap="round" fill="transparent" stroke-linejoin="round" points="87.4000244140625 136.80001831054688 84.2000732421875 162.40003967285156 78.86669921875 183.73336791992188 71.4000244140625 199.73336791992188 66.06671142578125 209.33334350585935 63.93341064453125 209.33334350585935 63.93341064453125 209.33334350585935 " />
        <polyline stroke="black" stroke-width="3" stroke-linecap="round" fill="transparent" stroke-linejoin="round" points="105.53338623046876 181.60003662109375 105.53338623046876 181.60003662109375 " />
        <polyline stroke="black" stroke-width="3" stroke-linecap="round" fill="transparent" stroke-linejoin="round" points="150.3333740234375 130.40003967285156 161 128.26669311523438 169.533447265625 126.1333465576172 181.2667236328125 122.93336486816406 183.4000244140625 120.8000030517578 183.4000244140625 119.73338317871094 183.4000244140625 119.73338317871094 " />
        <polyline stroke="black" stroke-width="3" stroke-linecap="round" fill="transparent" stroke-linejoin="round" points="151.4000244140625 133.6000213623047 141.8001708984375 169.86668395996094 133.2667236328125 189.06671142578125 126.86669921875 201.86666870117188 123.666748046875 205.06671142578125 121.53338623046876 205.06671142578125 121.53338623046876 205.06671142578125 " />
        <polyline stroke="black" stroke-width="3" stroke-linecap="round" fill="transparent" stroke-linejoin="round" points="162.0667724609375 160.26669311523438 178.0667724609375 181.60003662109375 193 200.80001831054688 207.933349609375 218.933349609375 219.666748046875 227.4666748046875 219.666748046875 227.4666748046875 " />
        </svg>