<?xml version="1.0" standalone="no"?>
    <svg width="256" height="256" xmlns="http://www.w3.org/2000/svg" version="1.1">
    <polyline stroke="black" stroke-width="3" stroke-linecap="round" fill="transparent" stroke-linejoin="round" points="81.2615966796875 69.23452758789063 100.23712158203124 59.440704345703125 126.5579833984375 49.64689636230469 147.36981201171875 43.52576446533203 162.67266845703125 39.85308074951172 171.24224853515625 38.016746520996094 171.24224853515625 38.016746520996094 " />
        <polyline stroke="black" stroke-width="3" stroke-linecap="round" fill="transparent" stroke-linejoin="round" points="89.8311767578125 116.36724853515624 87.99481201171875 121.26416015625 86.77059936523438 125.5489501953125 86.77059936523438 127.99740600585938 86.77059936523438 129.2216339111328 86.77059936523438 129.2216339111328 89.21905517578125 125.5489501953125 92.8917236328125 119.42782592773438 101.46133422851563 109.02189636230467 111.86724853515624 97.39173889160156 125.333740234375 86.37370300292969 136.96389770507813 79.02833557128906 149.81829833984375 74.74354553222656 156.551513671875 74.13143920898438 160.8363037109375 74.13143920898438 162.67266845703125 75.9677734375 160.8363037109375 80.86468505859375 152.87884521484375 90.04638671875 133.9033203125 105.96133422851563 117.9884033203125 117.59147644042967 105.13400268554688 124.32472229003906 99.01287841796876 127.3852996826172 94.72808837890624 129.2216339111328 93.50384521484376 129.2216339111328 95.3402099609375 127.3852996826172 102.07342529296876 124.32472229003906 113.09149169921876 118.81570434570313 126.5579833984375 112.08245849609376 132.67910766601563 109.02189636230467 137.57601928710938 107.79766845703124 137.57601928710938 107.79766845703124 " />
        <polyline stroke="black" stroke-width="3" stroke-linecap="round" fill="transparent" stroke-linejoin="round" points="66.57086181640625 172.06956481933594 66.57086181640625 178.19070434570313 66.57086181640625 183.69973754882813 69.01931762695313 188.59661865234375 72.6920166015625 192.26931762695313 76.976806640625 194.10565185546875 83.71002197265625 192.26931762695313 92.27963256835938 187.98452758789065 114.92782592773438 172.6816864013672 126.5579833984375 164.72421264648438 133.9033203125 158.6030731201172 141.86080932617188 152.48194885253906 149.2061767578125 146.97291564941406 155.3272705078125 142.07601928710938 159.612060546875 138.40333557128906 162.67266845703125 137.7912139892578 164.509033203125 140.2396697998047 166.3453369140625 146.36080932617188 166.95745849609375 156.76673889160156 166.95745849609375 164.11209106445313 166.3453369140625 169.62110900878906 163.89691162109375 173.29379272460938 157.16363525390625 171.45745849609375 157.16363525390625 171.45745849609375 " />
        <polyline stroke="black" stroke-width="3" stroke-linecap="round" fill="transparent" stroke-linejoin="round" points="125.94586181640624 145.74868774414063 121.0489501953125 165.33631896972656 110.03091430664063 202.0631103515625 102.07342529296876 218.59017944335935 94.72808837890624 233.28091430664065 89.8311767578125 241.2383728027344 86.77059936523438 244.2989501953125 86.77059936523438 244.2989501953125 " />
        </svg>