<?xml version="1.0" standalone="no"?>
    <svg width="256" height="256" xmlns="http://www.w3.org/2000/svg" version="1.1">
    <polyline stroke="black" stroke-width="3" stroke-linecap="round" fill="transparent" stroke-linejoin="round" points="62.57611083984375 58.15223693847656 78.41000366210938 49.62628173828125 107.0328369140625 36.22835540771485 127.12973022460938 28.92040252685547 147.83560180664063 23.439430236816406 160.62451171875 20.394447326660156 166.10546875 19.17646026611328 166.10546875 19.17646026611328 " />
        <polyline stroke="black" stroke-width="3" stroke-linecap="round" fill="transparent" stroke-linejoin="round" points="79.01901245117188 99.56399536132813 77.801025390625 107.48094177246094 77.801025390625 114.17990112304688 77.801025390625 117.83387756347656 77.801025390625 119.0518798828125 79.62799072265625 116.61589050292967 85.10897827148438 109.30793762207033 97.28887939453124 93.47402954101563 114.94979858398438 72.15914916992188 133.21969604492188 55.71624755859375 150.2716064453125 44.75431060791016 164.27850341796875 39.273338317871094 174.6314697265625 38.664344787597656 180.1124267578125 39.273338317871094 183.15740966796875 42.92732238769531 180.721435546875 52.06226348876953 164.27850341796875 73.98614501953125 137.482666015625 94.6920166015625 112.5137939453125 108.6989288330078 97.28887939453124 115.3979034423828 91.19891357421876 119.66087341308594 87.54495239257813 122.09686279296876 86.32696533203125 123.92384338378906 89.98095703125 123.92384338378906 100.3338623046875 118.44287109375 122.86676025390624 105.65394592285156 146.00860595703125 89.82003784179688 158.79754638671875 79.46710205078125 162.4515380859375 77.64012145996094 162.4515380859375 77.64012145996094 " />
        <polyline stroke="black" stroke-width="3" stroke-linecap="round" fill="transparent" stroke-linejoin="round" points="74.14703369140625 147.06570434570313 73.53802490234375 158.02764892578125 75.36502075195313 167.77159118652344 79.01901245117188 174.47055053710938 86.93597412109375 178.12452697753906 104.59686279296876 176.9065399169922 123.47576904296876 168.9895782470703 143.5726318359375 158.02764892578125 162.4515380859375 144.62973022460938 176.45843505859375 133.66778564453125 184.3753662109375 126.96882629394533 189.24737548828125 120.26986694335938 192.2923583984375 114.17990112304688 194.11932373046875 110.5259246826172 192.2923583984375 115.3979034423828 190.46533203125 126.96882629394533 188.63836669921875 139.1487579345703 186.8114013671875 146.4567108154297 184.3753662109375 152.5466766357422 180.1124267578125 153.15567016601563 180.1124267578125 153.15567016601563 " />
        <polyline stroke="black" stroke-width="3" stroke-linecap="round" fill="transparent" stroke-linejoin="round" points="149.0535888671875 137.93077087402344 142.963623046875 167.77159118652344 135.65567016601563 190.9134521484375 127.12973022460938 212.22833251953125 116.77679443359376 238.41519165039065 116.77679443359376 238.41519165039065 " />
        </svg>