<?xml version="1.0" standalone="no"?>
    <svg width="256" height="256" xmlns="http://www.w3.org/2000/svg" version="1.1">
    <polyline stroke="black" stroke-width="3" stroke-linecap="round" fill="transparent" stroke-linejoin="round" points="62.63372802734375 89.38279724121094 76.0166015625 85.47944641113281 102.78240966796876 78.23039245605469 123.97198486328124 73.76942443847656 140.14297485351563 69.30845642089844 154.64111328125 65.40512084960938 165.79351806640625 60.94415283203125 174.1578369140625 55.925567626953125 174.1578369140625 55.925567626953125 " />
        <polyline stroke="black" stroke-width="3" stroke-linecap="round" fill="transparent" stroke-linejoin="round" points="107.80099487304688 36.96647644042969 105.01287841796876 50.906982421875 102.78240966796876 63.73225402832031 101.66717529296876 78.23039245605469 101.10955810546876 91.0556640625 101.66717529296876 101.0928192138672 102.78240966796876 107.78427124023438 104.45526123046876 112.8028564453125 107.80099487304688 116.14857482910156 112.819580078125 117.26382446289063 118.39578247070313 117.26382446289063 124.52960205078124 113.9180908203125 139.02774047851563 97.74710083007813 139.02774047851563 97.74710083007813 " />
        <polyline stroke="black" stroke-width="3" stroke-linecap="round" fill="transparent" stroke-linejoin="round" points="142.37347412109375 42.54267883300781 141.25820922851563 55.367950439453125 140.70059204101563 65.96273803710938 140.14297485351563 78.23039245605469 139.58535766601563 92.1708984375 137.9124755859375 114.47572326660156 137.9124755859375 114.47572326660156 " />
        <polyline stroke="black" stroke-width="3" stroke-linecap="round" fill="transparent" stroke-linejoin="round" points="62.07611083984375 170.79537963867188 83.26568603515625 164.66156005859375 102.78240966796876 159.64297485351563 122.29913330078124 156.29725646972656 141.81585693359375 152.39390563964844 157.98681640625 149.04818725585938 170.2545166015625 146.2600860595703 176.9459228515625 144.02960205078125 180.2916259765625 141.2415008544922 180.2916259765625 141.2415008544922 " />
        <polyline stroke="black" stroke-width="3" stroke-linecap="round" fill="transparent" stroke-linejoin="round" points="113.377197265625 139.56863403320313 108.35861206054688 148.49057006835938 103.89764404296876 159.64297485351563 99.99432373046876 174.69873046875 97.76382446289063 189.1968688964844 97.76382446289063 199.23403930664065 101.10955810546876 205.36785888671875 107.24334716796876 208.71356201171875 116.722900390625 209.82882690429688 126.76007080078124 208.71356201171875 137.3548583984375 204.25262451171875 149.06488037109375 195.8883056640625 149.06488037109375 195.8883056640625 " />
        <polyline stroke="black" stroke-width="3" stroke-linecap="round" fill="transparent" stroke-linejoin="round" points="161.89013671875 135.66529846191406 158.54443359375 145.14483642578125 157.42919921875 155.73963928222656 156.31396484375 169.12252807617188 155.75634765625 181.39016723632813 155.75634765625 192.5425720214844 155.19873046875 205.36785888671875 155.19873046875 205.36785888671875 " />
        </svg>