<?xml version="1.0" standalone="no"?>
    <svg width="256" height="256" xmlns="http://www.w3.org/2000/svg" version="1.1">
    <polyline stroke="black" stroke-width="3" stroke-linecap="round" fill="transparent" stroke-linejoin="round" points="52.31494140625 94.17593383789063 65.3245849609375 89.13993835449219 79.59326171875 84.10394287109375 87.986572265625 81.16627502441406 107.291259765625 74.87127685546875 118.62225341796876 71.51394653320313 140.02523803710938 65.21894836425781 157.6512451171875 59.763275146484375 168.98223876953125 56.40594482421875 175.2772216796875 54.3076171875 177.7952880859375 53.048614501953125 177.7952880859375 53.048614501953125 " />
        <polyline stroke="black" stroke-width="3" stroke-linecap="round" fill="transparent" stroke-linejoin="round" points="103.93392944335938 42.13729095458984 93.0225830078125 67.31727600097656 89.24560546875 80.32693481445313 86.72760009765625 91.65792846679688 84.2095947265625 107.1855926513672 85.04891967773438 117.25759887695313 89.24560546875 118.93626403808594 99.73724365234376 118.93626403808594 112.74691772460938 115.99859619140624 125.756591796875 111.80192565917967 136.66790771484375 106.34628295898438 145.06124877929688 99.631591796875 150.51690673828125 93.33660888671876 150.51690673828125 93.33660888671876 " />
        <polyline stroke="black" stroke-width="3" stroke-linecap="round" fill="transparent" stroke-linejoin="round" points="148.41854858398438 32.904624938964844 144.221923828125 45.49462127685547 142.962890625 51.78961181640625 141.70391845703125 58.50428771972656 140.02523803710938 73.61227416992188 137.92694091796875 97.11360168457033 137.92694091796875 97.11360168457033 " />
        <polyline stroke="black" stroke-width="3" stroke-linecap="round" fill="transparent" stroke-linejoin="round" points="41.40362548828125 186.0828857421875 63.64593505859375 178.10923767089844 74.97698974609375 174.75189208984375 88.825927734375 170.55523681640625 101.41595458984376 167.19790649414063 125.756591796875 160.90289306640625 146.32025146484375 155.86691284179688 161.008544921875 152.5095672607422 168.1429443359375 150.41123962402344 170.2412109375 149.15225219726563 170.2412109375 149.15225219726563 " />
        <polyline stroke="black" stroke-width="3" stroke-linecap="round" fill="transparent" stroke-linejoin="round" points="106.0322265625 131.10659790039063 95.54061889648438 155.44725036621094 91.76361083984376 165.51922607421875 85.46859741210938 183.98455810546875 81.27194213867188 197.41387939453125 79.59326171875 206.22689819335935 80.4326171875 212.5218811035156 83.37030029296875 217.55789184570313 89.665283203125 220.91522216796875 102.2552490234375 221.33489990234375 118.20257568359376 217.13821411132813 132.47125244140625 210.00390625 137.92694091796875 206.22689819335935 148.41854858398438 195.3155517578125 148.41854858398438 195.3155517578125 " />
        <polyline stroke="black" stroke-width="3" stroke-linecap="round" fill="transparent" stroke-linejoin="round" points="146.73992919921875 151.25057983398438 145.06124877929688 161.7422332763672 144.64157104492188 168.87657165527344 145.06124877929688 183.14523315429688 147.9989013671875 203.28924560546875 149.25790405273438 210.84323120117188 149.25790405273438 210.84323120117188 " />
        </svg>