<?xml version="1.0" standalone="no"?>
    <svg width="256" height="256" xmlns="http://www.w3.org/2000/svg" version="1.1">
    <polyline stroke="black" stroke-width="3" stroke-linecap="round" fill="transparent" stroke-linejoin="round" points="49.465698242187486 95.2935791015625 76.42471313476563 89.01544189453125 103.38372802734376 82.7373046875 133.66644287109375 77.56709289550781 161.73333740234375 74.98197937011719 182.78350830078125 74.24336242675781 192.754638671875 74.24336242675781 201.61785888671875 73.13548278808594 201.61785888671875 73.13548278808594 " />
        <polyline stroke="black" stroke-width="3" stroke-linecap="round" fill="transparent" stroke-linejoin="round" points="98.58273315429688 64.27226257324217 100.05996704101563 85.32243347167969 101.53720092773438 106.3726043701172 103.75299072265624 118.55955505371094 104.12228393554688 120.77536010742188 104.12228393554688 120.77536010742188 " />
        <polyline stroke="black" stroke-width="3" stroke-linecap="round" fill="transparent" stroke-linejoin="round" points="148.06918334960938 64.64152526855467 144.00686645507813 90.8619384765625 139.94454956054688 117.08235168457033 136.62081909179688 131.485107421875 136.62081909179688 131.485107421875 " />
        <polyline stroke="black" stroke-width="3" stroke-linecap="round" fill="transparent" stroke-linejoin="round" points="94.88983154296875 125.94557189941405 111.13906860351563 123.72976684570313 127.3883056640625 121.5139617919922 142.16033935546875 120.77536010742188 148.06915283203125 120.77536010742188 148.06915283203125 120.77536010742188 " />
        <polyline stroke="black" stroke-width="3" stroke-linecap="round" fill="transparent" stroke-linejoin="round" points="48.3577880859375 189.83474731445313 82.70281982421875 182.07940673828125 117.0478515625 174.32406616210938 147.6998291015625 168.41525268554688 172.44305419921875 163.98362731933594 188.6923828125 161.3985137939453 193.49322509765625 160.29061889648438 193.49322509765625 160.29061889648438 " />
        <polyline stroke="black" stroke-width="3" stroke-linecap="round" fill="transparent" stroke-linejoin="round" points="95.99771118164065 155.85897827148438 98.95208740234376 176.1705780029297 101.90646362304688 196.482177734375 104.86090087890624 210.14630126953125 106.7073974609375 219.37884521484375 106.7073974609375 219.37884521484375 " />
        <polyline stroke="black" stroke-width="3" stroke-linecap="round" fill="transparent" stroke-linejoin="round" points="155.4552001953125 127.05349731445313 154.3472900390625 150.31948852539063 153.2393798828125 173.58547973632813 152.87005615234375 192.78912353515625 152.13153076171875 206.45330810546875 152.13153076171875 206.45330810546875 " />
        <polyline stroke="black" stroke-width="3" stroke-linecap="round" fill="transparent" stroke-linejoin="round" points="102.27581787109375 213.10070800781256 117.0478515625 210.88491821289065 131.81988525390625 208.66912841796875 146.22265625 206.82260131835935 154.71661376953125 206.08401489257813 154.71661376953125 206.08401489257813 " />
        </svg>