<?xml version="1.0" standalone="no"?>
    <svg width="256" height="256" xmlns="http://www.w3.org/2000/svg" version="1.1">
    <polyline stroke="black" stroke-width="3" stroke-linecap="round" fill="transparent" stroke-linejoin="round" points="80 55 80 57 80 59 81 59 87 62 107 65 119 67 143 67 159 66 164 65 171 63 176 63 177 63 179 63 180 63 181 63 181 62 182 62 183 62 183 62 " />
        <polyline stroke="black" stroke-width="3" stroke-linecap="round" fill="transparent" stroke-linejoin="round" points="111 45 111 46 111 47 110 55 109 72 108 80 105 96 104 109 104 117 104 120 104 123 104 126 104 127 104 127 104 128 104 129 105 130 108 130 111 130 116 130 122 130 125 129 130 127 136 125 139 123 142 122 143 120 144 120 145 119 146 119 146 119 147 119 147 117 147 117 " />
        <polyline stroke="black" stroke-width="3" stroke-linecap="round" fill="transparent" stroke-linejoin="round" points="151 51 151 55 151 59 147 79 145 88 144 97 144 101 143 103 143 105 143 106 143 107 143 107 143 109 143 110 143 111 143 111 143 111 " />
        <polyline stroke="black" stroke-width="3" stroke-linecap="round" fill="transparent" stroke-linejoin="round" points="75 165 75 166 75 167 76 167 85 167 91 167 102 167 107 167 115 167 117 167 120 167 127 165 131 165 139 163 147 162 151 161 156 160 159 160 162 160 164 159 166 159 169 159 171 159 173 159 174 159 175 159 177 159 178 159 179 159 179 159 180 159 180 159 " />
        <polyline stroke="black" stroke-width="3" stroke-linecap="round" fill="transparent" stroke-linejoin="round" points="99 146 99 147 99 148 99 150 99 151 99 154 99 158 99 162 99 165 99 172 99 175 99 179 99 182 99 183 99 185 99 186 99 187 99 187 99 188 99 189 101 189 103 190 104 191 107 191 111 191 114 192 116 192 123 192 127 192 128 192 130 192 131 192 133 192 135 192 135 192 136 192 137 192 138 192 139 191 139 191 140 191 140 191 " />
        <polyline stroke="black" stroke-width="3" stroke-linecap="round" fill="transparent" stroke-linejoin="round" points="144 131 144 141 144 151 143 158 140 171 139 176 139 178 138 180 137 183 137 183 137 185 137 186 137 187 137 187 136 188 136 189 136 189 " />
        </svg>