<?xml version="1.0" standalone="no"?>
    <svg width="256" height="256" xmlns="http://www.w3.org/2000/svg" version="1.1">
    <polyline stroke="black" stroke-width="3" stroke-linecap="round" fill="transparent" stroke-linejoin="round" points="82 66 85 83 85 96 85 111 85 121 85 124 85 124 " />
        <polyline stroke="black" stroke-width="3" stroke-linecap="round" fill="transparent" stroke-linejoin="round" points="79 72 108 62 125 59 144 58 155 58 160 58 162 61 162 71 153 96 138 116 131 123 131 123 " />
        <polyline stroke="black" stroke-width="3" stroke-linecap="round" fill="transparent" stroke-linejoin="round" points="34 150 64 140 93 130 127 124 159 119 184 116 203 116 213 116 213 116 " />
        <polyline stroke="black" stroke-width="3" stroke-linecap="round" fill="transparent" stroke-linejoin="round" points="76 165 79 177 80 187 83 199 88 213 91 221 94 224 94 224 " />
        <polyline stroke="black" stroke-width="3" stroke-linecap="round" fill="transparent" stroke-linejoin="round" points="83 176 95 165 102 164 119 162 136 161 153 161 165 163 170 170 172 180 170 191 159 202 159 202 " />
        <polyline stroke="black" stroke-width="3" stroke-linecap="round" fill="transparent" stroke-linejoin="round" points="88 223 110 216 133 209 159 205 159 205 " />
        </svg>