<?xml version="1.0" standalone="no"?>
    <svg width="256" height="256" xmlns="http://www.w3.org/2000/svg" version="1.1">
    <polyline stroke="black" stroke-width="3" stroke-linecap="round" fill="transparent" stroke-linejoin="round" points="86.10537719726563 35.366119384765625 86.69976806640625 52.603172302246094 87.29412841796875 72.21774291992188 88.48291015625 97.77613830566406 89.0772705078125 114.41880798339844 90.26605224609376 128.6839599609375 90.86041259765624 138.1940460205078 90.86041259765624 144.1378631591797 92.0491943359375 145.92100524902344 92.0491943359375 142.9490966796875 92.0491943359375 137.0052947998047 93.23794555664063 130.46710205078125 96.2098388671875 123.3345184326172 99.776123046875 117.39071655273438 105.12554931640624 111.4468994140625 112.8525390625 106.6918487548828 126.52328491210938 99.5592803955078 141.9771728515625 92.4267120361328 158.0255126953125 86.48289489746094 171.10186767578125 79.9447021484375 181.20635986328125 72.21774291992188 189.5277099609375 63.302032470703125 195.47149658203125 50.22564697265625 194.28271484375 38.932411193847656 191.90521240234375 32.98859405517578 187.7445068359375 28.827926635742188 184.77264404296875 28.233551025390625 182.3951416015625 30.016693115234375 180.6119384765625 34.77174377441406 179.4232177734375 47.25374603271485 177.64007568359375 68.05708312988281 175.2625732421875 90.64356994628906 169.9130859375 110.25813293457033 162.780517578125 123.3345184326172 154.459228515625 134.03338623046875 144.354736328125 141.7603302001953 131.87271118164063 146.515380859375 131.87271118164063 146.515380859375 " />
        <polyline stroke="black" stroke-width="3" stroke-linecap="round" fill="transparent" stroke-linejoin="round" points="96.2098388671875 147.10977172851563 106.90869140625 143.54348754882813 118.79632568359376 139.3828125 132.46710205078125 135.22213745117188 148.515380859375 131.0614776611328 162.1861572265625 128.6839599609375 170.50750732421875 127.49519348144533 175.2625732421875 130.46710205078125 175.2625732421875 130.46710205078125 " />
        <polyline stroke="black" stroke-width="3" stroke-linecap="round" fill="transparent" stroke-linejoin="round" points="64.11328125 188.1220703125 74.21774291992188 186.33892822265625 83.72784423828125 183.36700439453125 97.99298095703124 179.2063446044922 121.17385864257813 174.4512939453125 148.515380859375 170.29063415527344 168.724365234375 168.5074920654297 190.7164306640625 167.3187255859375 207.9534912109375 166.72434997558594 218.65234375 167.3187255859375 218.65234375 167.3187255859375 " />
        </svg>