<?xml version="1.0" standalone="no"?>
    <svg width="256" height="256" xmlns="http://www.w3.org/2000/svg" version="1.1">
    <polyline stroke="black" stroke-width="3" stroke-linecap="round" fill="transparent" stroke-linejoin="round" points="84.93853759765625 85.36421203613281 83.26568603515625 103.76568603515624 81.03521728515625 122.72477722167967 79.91998291015625 136.10768127441406 78.80471801757813 145.58721923828125 77.68948364257813 151.16342163085938 77.68948364257813 151.72105407714844 77.68948364257813 151.72105407714844 " />
        <polyline stroke="black" stroke-width="3" stroke-linecap="round" fill="transparent" stroke-linejoin="round" points="86.05377197265625 119.37905883789063 101.66717529296876 112.6876220703125 113.377197265625 108.22665405273438 126.76007080078124 101.5352020263672 142.93109130859375 89.26756286621094 142.93109130859375 89.26756286621094 " />
        <polyline stroke="black" stroke-width="3" stroke-linecap="round" fill="transparent" stroke-linejoin="round" points="156.31396484375 52.46460723876953 152.96826171875 65.28987121582031 150.18014526367188 75.32704162597656 146.27679443359375 88.15231323242188 141.81585693359375 102.0928192138672 135.6820068359375 116.03334045410156 128.43295288085938 129.41622924804688 120.06863403320313 139.45339965820313 120.06863403320313 139.45339965820313 " />
        <polyline stroke="black" stroke-width="3" stroke-linecap="round" fill="transparent" stroke-linejoin="round" points="73.7861328125 151.16342163085938 84.38092041015625 151.16342163085938 92.7452392578125 150.60580444335938 101.10955810546876 149.49057006835938 108.35861206054688 148.3753204345703 113.934814453125 147.8177032470703 116.722900390625 147.8177032470703 116.722900390625 147.8177032470703 " />
        <polyline stroke="black" stroke-width="3" stroke-linecap="round" fill="transparent" stroke-linejoin="round" points="30.849365234375 199.67642211914065 42.55938720703125 196.8883056640625 52.0389404296875 195.2154541015625 68.20993041992188 192.4273376464844 96.0909423828125 189.08160400390625 122.85675048828124 186.85113525390625 145.71917724609375 184.06304931640625 162.44781494140625 181.83255004882813 174.1578369140625 180.15969848632813 179.7340087890625 180.15969848632813 179.7340087890625 180.15969848632813 " />
        </svg>