<?xml version="1.0" standalone="no"?>
    <svg width="256" height="256" xmlns="http://www.w3.org/2000/svg" version="1.1">
    <polyline stroke="black" stroke-width="3" stroke-linecap="round" fill="transparent" stroke-linejoin="round" points="40.41546630859375 129.14926147460938 60.309326171875 120.30752563476563 67.82479858398438 117.21292114257813 76.22445678710938 114.11833190917967 92.58163452148438 108.81329345703124 107.17050170898438 102.6240692138672 117.780517578125 95.99278259277344 123.0855712890625 88.47732543945313 123.0855712890625 88.47732543945313 " />
        <polyline stroke="black" stroke-width="3" stroke-linecap="round" fill="transparent" stroke-linejoin="round" points="66.49853515625 75.65681457519531 63.846038818359375 101.73991394042967 62.07769775390625 116.77085876464844 59.4251708984375 134.01220703125 57.2147216796875 147.27481079101563 54.1201171875 168.05284118652344 53.2359619140625 174.24205017089844 52.79388427734375 182.1996154785156 53.67803955078125 183.52586364746097 53.67803955078125 183.52586364746097 " />
        <polyline stroke="black" stroke-width="3" stroke-linecap="round" fill="transparent" stroke-linejoin="round" points="114.68597412109376 63.27839660644531 112.47552490234376 78.75141906738281 110.26507568359376 88.03523254394531 107.612548828125 99.08738708496094 96.11834716796876 130.03343200683594 86.39242553710938 149.92730712890625 81.52947998046875 159.21112060546875 81.52947998046875 159.21112060546875 " />
        <polyline stroke="black" stroke-width="3" stroke-linecap="round" fill="transparent" stroke-linejoin="round" points="44.39422607421875 202.093505859375 59.4251708984375 193.69384765625 65.61434936523438 188.83090209960935 73.57196044921875 183.0837860107422 82.41366577148438 175.126220703125 96.11834716796876 163.18988037109375 96.11834716796876 163.18988037109375 " />
        <polyline stroke="black" stroke-width="3" stroke-linecap="round" fill="transparent" stroke-linejoin="round" points="176.13592529296875 52.66832733154297 169.06256103515625 68.58343505859375 161.547119140625 83.61436462402344 142.537353515625 111.90788269042967 142.537353515625 111.90788269042967 " />
        <polyline stroke="black" stroke-width="3" stroke-linecap="round" fill="transparent" stroke-linejoin="round" points="117.780517578125 110.13955688476563 131.92733764648438 102.6240692138672 139.00070190429688 99.52947998046876 146.958251953125 95.99278259277344 164.6417236328125 88.91940307617188 194.261474609375 79.19351196289063 194.261474609375 79.19351196289063 " />
        <polyline stroke="black" stroke-width="3" stroke-linecap="round" fill="transparent" stroke-linejoin="round" points="118.22265625 121.6337890625 121.75933837890624 138.43307495117188 124.85394287109376 146.83270263671875 128.83270263671875 153.4639892578125 131.92733764648438 155.67442321777344 131.92733764648438 155.67442321777344 " />
        <polyline stroke="black" stroke-width="3" stroke-linecap="round" fill="transparent" stroke-linejoin="round" points="201.7769775390625 123.84422302246094 186.303955078125 137.10679626464844 174.8096923828125 145.94854736328125 162.87335205078125 154.79025268554688 140.76904296875 169.82119750976563 123.52767944335938 180.43125915527344 116.8963623046875 183.9679412841797 107.17050170898438 187.94671630859375 102.74960327148438 189.27297973632813 102.30755615234376 188.83090209960935 107.17050170898438 185.29421997070313 125.2960205078125 174.24205017089844 147.8424072265625 162.30572509765625 169.06256103515625 153.4639892578125 186.74603271484375 147.71688842773438 200.00860595703125 143.73809814453125 200.00860595703125 143.73809814453125 " />
        <polyline stroke="black" stroke-width="3" stroke-linecap="round" fill="transparent" stroke-linejoin="round" points="165.52587890625 116.77085876464844 155.35791015625 134.45428466796875 150.05282592773438 145.94854736328125 144.747802734375 159.21112060546875 139.88485717773438 171.58953857421875 135.02191162109375 183.0837860107422 126.18017578125 202.9776611328125 122.201416015625 210.49313354492188 118.66473388671876 218.89276123046875 118.66473388671876 218.89276123046875 " />
        <polyline stroke="black" stroke-width="3" stroke-linecap="round" fill="transparent" stroke-linejoin="round" points="138.55859375 178.66290283203125 150.93701171875 186.6204833984375 156.68414306640625 190.5992431640625 162.87335205078125 194.5780334472656 175.25177001953125 202.53558349609375 188.072265625 211.81939697265625 197.7982177734375 217.5665283203125 197.7982177734375 217.5665283203125 " />
        </svg>