<?xml version="1.0" standalone="no"?>
    <svg width="256" height="256" xmlns="http://www.w3.org/2000/svg" version="1.1">
    <polyline stroke="black" stroke-width="3" stroke-linecap="round" fill="transparent" stroke-linejoin="round" points="46.60626220703125 113.1675262451172 65.903076171875 113.57809448242188 79.86251831054688 113.57809448242188 91.76904296875 112.75694274902344 100.39105224609376 111.93582153320313 106.13909912109376 111.11466979980467 106.13909912109376 111.11466979980467 " />
        <polyline stroke="black" stroke-width="3" stroke-linecap="round" fill="transparent" stroke-linejoin="round" points="82.73651123046875 63.488433837890625 78.63079833984375 75.80555725097656 72.8828125 97.97639465332033 70.41937255859375 109.0618133544922 65.903076171875 129.59036254882813 63.02911376953125 143.9603271484375 61.79736328125 153.81405639648438 61.79736328125 159.56204223632813 63.02911376953125 163.25717163085938 65.903076171875 165.72061157226563 71.24053955078125 166.9523162841797 77.80966186523438 166.541748046875 83.5576171875 164.8994598388672 85.61053466796875 164.07830810546875 85.61053466796875 164.07830810546875 " />
        <polyline stroke="black" stroke-width="3" stroke-linecap="round" fill="transparent" stroke-linejoin="round" points="98.748779296875 66.77299499511719 93.00079345703124 92.22840881347656 89.7161865234375 116.45208740234376 87.66339111328125 136.9806365966797 85.61053466796875 153.40347290039063 83.5576171875 164.07830810546875 83.5576171875 164.07830810546875 " />
        <polyline stroke="black" stroke-width="3" stroke-linecap="round" fill="transparent" stroke-linejoin="round" points="164.8507080078125 46.24444580078125 161.9766845703125 56.91929626464844 157.04986572265625 68.82585144042969 148.01727294921875 83.60641479492188 138.57415771484375 95.51296997070313 127.8992919921875 104.13494873046876 123.79364013671876 106.18780517578124 122.56185913085938 106.59837341308594 120.91961669921876 107.00895690917967 120.09848022460938 107.00895690917967 121.33016967773438 106.59837341308594 127.48873901367188 105.36666870117188 138.57415771484375 103.31382751464844 150.480712890625 101.26095581054688 159.923828125 100.02923583984376 167.7247314453125 99.20809936523438 170.59869384765625 98.79753112792967 176.3466796875 98.38697814941406 177.578369140625 98.38697814941406 177.578369140625 98.38697814941406 " />
        <polyline stroke="black" stroke-width="3" stroke-linecap="round" fill="transparent" stroke-linejoin="round" points="120.91961669921876 130.00091552734375 123.383056640625 143.9603271484375 125.43588256835938 150.52947998046875 127.8992919921875 155.04576110839844 127.8992919921875 155.04576110839844 " />
        <polyline stroke="black" stroke-width="3" stroke-linecap="round" fill="transparent" stroke-linejoin="round" points="183.326416015625 120.147216796875 162.7978515625 137.80178833007813 141.44818115234375 155.04576110839844 123.383056640625 169.0051727294922 109.423583984375 178.0377197265625 102.44393920898438 182.1434326171875 98.748779296875 184.1962890625 97.51708984375 184.60687255859375 97.9276123046875 184.60687255859375 103.26507568359376 182.9645843505859 109.423583984375 181.32229614257813 134.057861328125 174.34259033203125 151.71240234375 169.41574096679688 167.31414794921875 165.31002807617188 173.88330078125 163.66775512695313 188.663818359375 159.15147399902344 191.537841796875 157.91973876953125 191.537841796875 157.91973876953125 " />
        <polyline stroke="black" stroke-width="3" stroke-linecap="round" fill="transparent" stroke-linejoin="round" points="167.31414794921875 118.91551208496094 159.10272216796875 131.23263549804688 147.606689453125 153.81405639648438 136.1107177734375 178.0377197265625 125.43588256835938 196.10284423828125 117.22445678710938 209.24114990234375 114.3504638671875 213.34683227539065 114.3504638671875 213.34683227539065 " />
        <polyline stroke="black" stroke-width="3" stroke-linecap="round" fill="transparent" stroke-linejoin="round" points="145.143310546875 165.31002807617188 155.4075927734375 172.70030212402344 165.671875 181.73287963867188 176.75726318359375 191.58657836914065 188.2532958984375 203.08258056640625 188.2532958984375 203.08258056640625 " />
        </svg>