<?xml version="1.0" standalone="no"?>
    <svg width="256" height="256" xmlns="http://www.w3.org/2000/svg" version="1.1">
    <polyline stroke="black" stroke-width="3" stroke-linecap="round" fill="transparent" stroke-linejoin="round" points="102.2391357421875 112.3931121826172 115.99661254882813 107.674072265625 129.75408935546875 102.9550323486328 145.87002563476563 96.26969909667967 151.373046875 94.30340576171876 157.26910400390625 92.73037719726563 158.44830322265625 92.33712768554688 158.84136962890625 93.1236572265625 158.44830322265625 95.48316955566406 156.08990478515625 104.92131042480467 153.7314453125 111.60665893554688 150.97994995117188 118.29197692871094 145.87002563476563 130.48289489746094 144.29776000976563 135.59523010253906 141.9393310546875 142.67379760742188 140.76010131835938 145.4265899658203 138.00860595703125 148.57264709472656 138.00860595703125 148.57264709472656 " />
        <polyline stroke="black" stroke-width="3" stroke-linecap="round" fill="transparent" stroke-linejoin="round" points="127.00256347656247 110.82012939453125 119.53424072265624 134.80870056152344 112.06591796875 158.79727172851563 109.31442260742188 165.4826202392578 107.74212646484376 169.80841064453125 106.56292724609376 173.74098205566406 106.16986083984376 174.52748107910156 106.95599365234376 174.92074584960938 108.92135620117188 174.52748107910156 118.35504150390624 170.5949249267578 125.03726196289063 167.84214782714844 141.1531982421875 161.94332885742188 148.62152099609375 159.19052124023438 155.3037109375 156.83099365234375 164.3443603515625 155.65122985839844 165.91668701171875 155.65122985839844 166.70281982421875 158.01077270507813 166.70281982421875 161.15679931640625 165.1304931640625 172.56118774414063 162.3790283203125 180.819580078125 155.69677734375 200.08908081054688 152.55224609375 209.13394165039065 147.04925537109375 221.3248291015625 145.08389282226563 225.65069580078125 141.54623413085938 230.3697204589844 139.18780517578125 231.9427490234375 137.22247314453125 233.12252807617188 133.291748046875 233.90899658203125 131.326416015625 233.12252807617188 124.2510986328125 229.18997192382813 117.17584228515624 222.89788818359375 117.17584228515624 222.89788818359375 " />
        </svg>