<?xml version="1.0" standalone="no"?>
    <svg width="256" height="256" xmlns="http://www.w3.org/2000/svg" version="1.1">
    <polyline stroke="black" stroke-width="3" stroke-linecap="round" fill="transparent" stroke-linejoin="round" points="82.98886108398438 62.87835693359375 88.36605834960938 60.637847900390625 93.74325561523438 58.3973388671875 100.01669311523438 55.70873260498047 121.9736328125 49.435325622558594 135.86474609375 46.74671936035156 147.96347045898438 46.298614501953125 155.5811767578125 48.53911590576172 159.6141357421875 52.572021484375 160.95843505859375 57.05303955078125 160.51031494140625 70.04795837402344 150.2039794921875 92.90109252929688 139.44955444335938 107.24034118652344 133.624267578125 113.06564331054688 128.69515991210938 117.546630859375 128.69515991210938 117.546630859375 " />
        <polyline stroke="black" stroke-width="3" stroke-linecap="round" fill="transparent" stroke-linejoin="round" points="107.63442993164063 74.52894592285155 99.568603515625 92.90109252929688 91.50277709960938 111.2732391357422 87.4698486328125 119.33905029296876 84.33319091796875 126.06057739257813 80.74838256835938 135.47068786621094 80.30026245117188 140.3997802734375 82.98886108398438 142.19219970703125 94.19137573242188 140.847900390625 112.5634765625 134.1263885498047 130.93563842773438 128.3010711669922 146.619140625 128.3010711669922 156.029296875 132.78208923339844 163.19891357421875 145.3289031982422 164.543212890625 169.97442626953125 158.269775390625 194.171875 147.96347045898438 210.75161743164065 135.41668701171875 221.50604248046875 118.38885498046876 226.88323974609375 103.60150146484376 223.74655151367188 92.84710693359376 216.12884521484375 92.84710693359376 216.12884521484375 " />
        </svg>