<?xml version="1.0" standalone="no"?>
    <svg width="256" height="256" xmlns="http://www.w3.org/2000/svg" version="1.1">
    <polyline stroke="black" stroke-width="3" stroke-linecap="round" fill="transparent" stroke-linejoin="round" points="69.44866943359375 77.80319213867188 81.83331298828125 69.26206970214844 87.81210327148438 65.41854858398438 94.21795654296876 61.575042724609375 101.05087280273438 57.731536865234375 114.7166748046875 49.617454528808594 120.69549560546876 46.20100402832031 131.37191772460938 40.649261474609375 142.475341796875 36.378692626953125 147.17303466796875 35.951629638671875 148.88119506835938 36.378692626953125 151.443603515625 41.076316833496094 152.2977294921875 55.169189453125 149.30828857421875 76.094970703125 139.91302490234375 104.707763671875 136.49658203125 111.54067993164063 136.49658203125 111.54067993164063 " />
        <polyline stroke="black" stroke-width="3" stroke-linecap="round" fill="transparent" stroke-linejoin="round" points="111.30023193359376 68.407958984375 106.60263061523438 80.36553955078125 102.75912475585938 93.17724609375 100.623779296875 105.98893737792967 99.76971435546876 116.23831176757813 99.76971435546876 123.498291015625 100.19677734375 128.19589233398438 101.47796630859376 131.185302734375 102.33203125 132.03941345214844 113.43551635742188 132.4664764404297 126.67425537109376 129.05001831054688 143.3294677734375 123.07121276855467 158.2764892578125 117.51947021484376 171.5152587890625 113.67596435546876 181.3375244140625 112.82186889648438 187.31634521484375 113.67596435546876 191.5869140625 117.09243774414063 195.85748291015625 126.91471862792967 198.4197998046875 142.28875732421875 197.9927978515625 159.798095703125 195.430419921875 175.17214965820313 191.15985107421875 187.55679321289065 186.03515625 196.09793090820313 181.3375244140625 200.7955322265625 173.2235107421875 204.6390686035156 161.69293212890625 205.06610107421875 147.17303466796875 199.94143676757813 138.20480346679688 194.38970947265625 138.20480346679688 194.38970947265625 " />
        </svg>