<?xml version="1.0" standalone="no"?>
    <svg width="256" height="256" xmlns="http://www.w3.org/2000/svg" version="1.1">
    <polyline stroke="black" stroke-width="3" stroke-linecap="round" fill="transparent" stroke-linejoin="round" points="89.65686035156253 71.2537841796875 94.14520263671876 68.63555908203125 98.633544921875 66.017333984375 103.8699951171875 63.39912414550781 115.09091186523438 58.162689208984375 120.70138549804688 55.54447937011719 126.68588256835938 53.30028533935547 137.53277587890625 49.93401336669922 144.26531982421875 48.811920166015625 148.753662109375 49.18595886230469 150.99789428710938 52.178192138671875 150.99789428710938 63.77314758300781 144.63934326171875 83.97080993652344 135.66259765625 100.05413818359376 127.05990600585938 109.7789306640625 120.70138549804688 115.01536560058594 120.70138549804688 115.01536560058594 " />
        <polyline stroke="black" stroke-width="3" stroke-linecap="round" fill="transparent" stroke-linejoin="round" points="102.37393188476563 79.48242187500003 95.641357421875 94.81770324707033 88.90878295898438 110.15298461914063 84.04638671875 123.24404907226563 81.05413818359375 133.34286499023438 80.30609130859375 138.95333862304688 81.05413818359375 141.197509765625 82.55026245117188 141.571533203125 96.015380859375 141.197509765625 102.74789428710938 140.44944763183594 122.571533203125 138.20526123046875 135.66259765625 137.83123779296875 141.2730712890625 138.20526123046875 153.6160888671875 141.571533203125 156.23431396484375 143.8157196044922 162.59283447265625 161.76919555664063 161.0966796875 181.96685791015625 154.3641357421875 199.5462951660156 145.76144409179688 208.5230407714844 139.40292358398438 211.14126586914065 122.945556640625 210.7672119140625 98.259521484375 197.6761474609375 98.259521484375 197.6761474609375 " />
        </svg>