<?xml version="1.0" standalone="no"?>
    <svg width="256" height="256" xmlns="http://www.w3.org/2000/svg" version="1.1">
    <polyline stroke="black" stroke-width="3" stroke-linecap="round" fill="transparent" stroke-linejoin="round" points="47.5426025390625 76.41859436035156 40.3525390625 94.06697082519533 41.65985107421875 97.98883056640624 45.58172607421875 108.44712829589844 46.23529052734375 110.40806579589844 49.5035400390625 114.98356628417967 58.65460205078125 119.55908203125 69.11285400390625 116.29086303710938 72.38104248046875 114.98356628417967 72.38104248046875 114.98356628417967 " />
        <polyline stroke="black" stroke-width="3" stroke-linecap="round" fill="transparent" stroke-linejoin="round" points="90.68304443359376 84.26231384277344 83.49298095703125 99.94978332519533 80.87841796875 103.21800231933594 54.732666015625 128.05642700195313 51.4644775390625 130.67100524902344 41.65985107421875 137.861083984375 37.0843505859375 141.12930297851563 35.77703857421875 143.0902099609375 35.77703857421875 143.0902099609375 40.3525390625 141.78294372558594 56.03997802734375 137.861083984375 72.38104248046875 132.63194274902344 89.37579345703125 126.0955047607422 103.75592041015624 116.29086303710938 112.90692138671876 101.25704956054688 112.90692138671876 101.25704956054688 " />
        <polyline stroke="black" stroke-width="3" stroke-linecap="round" fill="transparent" stroke-linejoin="round" points="85.45391845703125 65.96031188964844 73.03466796875 79.68681335449219 70.42010498046875 87.53053283691406 59.96185302734375 124.1345672607422 58.00091552734375 131.3246307373047 52.1181640625 163.35317993164063 46.88897705078125 186.23068237304688 45.58172607421875 190.15255737304688 48.84991455078125 192.76712036132813 51.4644775390625 188.84527587890625 51.4644775390625 188.84527587890625 " />
        <polyline stroke="black" stroke-width="3" stroke-linecap="round" fill="transparent" stroke-linejoin="round" points="58.00091552734375 156.1630859375 79.5711669921875 156.1630859375 82.83935546875 159.43130493164063 93.9512939453125 166.6213836669922 100.48773193359376 167.9286651611328 119.443359375 160.08494567871094 123.365234375 156.8167266845703 123.365234375 156.8167266845703 " />
        <polyline stroke="black" stroke-width="3" stroke-linecap="round" fill="transparent" stroke-linejoin="round" points="133.16986083984375 69.22853088378906 129.24798583984375 90.14512634277344 129.90167236328125 93.41334533691406 131.86260986328125 109.7544403076172 132.51629638671875 110.40806579589844 133.8236083984375 105.83255004882813 133.8236083984375 103.8716278076172 133.8236083984375 103.8716278076172 " />
        <polyline stroke="black" stroke-width="3" stroke-linecap="round" fill="transparent" stroke-linejoin="round" points="125.326171875 80.99411010742188 142.3209228515625 62.03843688964844 144.93548583984375 60.73118591308594 163.89111328125 57.46296691894531 166.5057373046875 57.46296691894531 172.38848876953125 58.1165771484375 178.9249267578125 61.38481140136719 180.23223876953125 66.61393737792969 178.9249267578125 84.91595458984375 175.00311279296875 94.72061157226563 169.77392578125 103.8716278076172 169.77392578125 103.8716278076172 " />
        <polyline stroke="black" stroke-width="3" stroke-linecap="round" fill="transparent" stroke-linejoin="round" points="127.94073486328124 87.53053283691406 146.24273681640625 83.60868835449219 147.550048828125 83.60868835449219 161.93017578125 84.91595458984375 163.23748779296875 84.91595458984375 166.5057373046875 88.18418884277344 165.85205078125 90.79875183105467 165.85205078125 90.79875183105467 " />
        <polyline stroke="black" stroke-width="3" stroke-linecap="round" fill="transparent" stroke-linejoin="round" points="142.3209228515625 107.79348754882813 158.6619873046875 102.5643310546875 160.6229248046875 102.5643310546875 166.5057373046875 108.44712829589844 166.5057373046875 112.36898803710938 166.5057373046875 112.36898803710938 " />
        <polyline stroke="black" stroke-width="3" stroke-linecap="round" fill="transparent" stroke-linejoin="round" points="137.745361328125 137.861083984375 157.35467529296875 130.01734924316406 159.96923828125 130.01734924316406 175.65667724609375 132.63194274902344 176.9639892578125 133.2855682373047 178.27130126953125 135.900146484375 178.27130126953125 135.900146484375 " />
        <polyline stroke="black" stroke-width="3" stroke-linecap="round" fill="transparent" stroke-linejoin="round" points="131.86260986328125 153.5485076904297 156.04742431640625 153.5485076904297 159.96923828125 152.89488220214844 182.8468017578125 150.28030395507813 185.46136474609375 149.6266632080078 190.6904296875 147.6657257080078 190.6904296875 147.6657257080078 " />
        <polyline stroke="black" stroke-width="3" stroke-linecap="round" fill="transparent" stroke-linejoin="round" points="168.46661376953125 137.20742797851563 158.00836181640625 158.77769470214844 158.6619873046875 162.0458984375 165.19842529296875 192.11349487304688 165.85205078125 196.03533935546875 169.77392578125 207.14727783203125 178.9249267578125 220.87380981445313 178.9249267578125 220.87380981445313 " />
        </svg>