<?xml version="1.0" standalone="no"?>
    <svg width="256" height="256" xmlns="http://www.w3.org/2000/svg" version="1.1">
    <polyline stroke="black" stroke-width="3" stroke-linecap="round" fill="transparent" stroke-linejoin="round" points="52.771728515625 84.26231384277344 46.88897705078125 101.9106903076172 47.5426025390625 103.8716278076172 54.732666015625 111.71533203125 56.693603515625 112.36898803710938 63.23004150390625 113.67626953125 77.6102294921875 108.44712829589844 77.6102294921875 108.44712829589844 " />
        <polyline stroke="black" stroke-width="3" stroke-linecap="round" fill="transparent" stroke-linejoin="round" points="95.258544921875 86.87690734863281 84.14666748046875 105.1789093017578 80.87841796875 108.44712829589844 56.693603515625 128.71006774902344 53.4254150390625 130.67100524902344 44.92803955078125 137.20742797851563 41.00616455078125 140.4756317138672 42.3134765625 141.78294372558594 46.88897705078125 141.78294372558594 60.615478515625 139.82200622558594 74.34197998046875 135.24649047851563 92.64398193359376 126.0955047607422 103.102294921875 119.55908203125 109.63873291015624 111.71533203125 109.63873291015624 111.71533203125 " />
        <polyline stroke="black" stroke-width="3" stroke-linecap="round" fill="transparent" stroke-linejoin="round" points="87.41485595703125 75.11131286621094 74.99566650390625 96.02789306640624 72.38104248046875 106.4862060546875 63.88372802734375 154.85581970214844 59.3082275390625 182.9624786376953 58.65460205078125 187.5379638671875 58.00091552734375 190.80618286132813 61.92279052734375 186.23068237304688 61.92279052734375 186.23068237304688 " />
        <polyline stroke="black" stroke-width="3" stroke-linecap="round" fill="transparent" stroke-linejoin="round" points="65.84466552734375 156.1630859375 92.64398193359376 164.6604461669922 114.86785888671876 174.46511840820313 118.78973388671876 174.46511840820313 129.90167236328125 170.54324340820313 129.90167236328125 170.54324340820313 " />
        <polyline stroke="black" stroke-width="3" stroke-linecap="round" fill="transparent" stroke-linejoin="round" points="140.3599853515625 67.92123413085938 137.09173583984375 85.56962585449219 137.745361328125 88.18418884277344 141.667236328125 103.8716278076172 141.667236328125 104.52525329589844 144.2818603515625 101.9106903076172 144.2818603515625 97.33518981933594 144.2818603515625 97.33518981933594 " />
        <polyline stroke="black" stroke-width="3" stroke-linecap="round" fill="transparent" stroke-linejoin="round" points="139.706298828125 73.80404663085938 156.04742431640625 62.03843688964844 158.6619873046875 62.03843688964844 174.34942626953125 61.38481140136719 178.9249267578125 62.03843688964844 185.46136474609375 65.30665588378906 189.38323974609375 71.84309387207031 188.7296142578125 80.34048461914063 182.8468017578125 96.68156433105467 177.61761474609375 105.1789093017578 175.65667724609375 105.83255004882813 175.65667724609375 105.83255004882813 " />
        <polyline stroke="black" stroke-width="3" stroke-linecap="round" fill="transparent" stroke-linejoin="round" points="147.550048828125 96.68156433105467 156.04742431640625 81.64775085449219 158.00836181640625 80.99411010742188 174.34942626953125 79.03318786621094 176.9639892578125 79.03318786621094 184.8077392578125 84.26231384277344 184.8077392578125 88.83782958984375 184.8077392578125 88.83782958984375 " />
        <polyline stroke="black" stroke-width="3" stroke-linecap="round" fill="transparent" stroke-linejoin="round" points="149.510986328125 100.60340881347656 171.08123779296875 101.9106903076172 173.04217529296875 102.5643310546875 180.23223876953125 109.7544403076172 180.23223876953125 109.7544403076172 " />
        <polyline stroke="black" stroke-width="3" stroke-linecap="round" fill="transparent" stroke-linejoin="round" points="149.510986328125 125.4418487548828 169.77392578125 124.7882080078125 172.38848876953125 126.0955047607422 176.31036376953125 133.2855682373047 176.31036376953125 133.2855682373047 " />
        <polyline stroke="black" stroke-width="3" stroke-linecap="round" fill="transparent" stroke-linejoin="round" points="148.20367431640625 148.31936645507813 131.20892333984375 152.24124145507813 129.90167236328125 152.24124145507813 127.94073486328124 152.89488220214844 140.3599853515625 152.24124145507813 177.61761474609375 147.6657257080078 182.193115234375 147.0120849609375 196.5732421875 143.74388122558594 199.18792724609375 143.0902099609375 199.18792724609375 143.0902099609375 " />
        <polyline stroke="black" stroke-width="3" stroke-linecap="round" fill="transparent" stroke-linejoin="round" points="169.77392578125 128.05642700195313 153.43280029296875 137.20742797851563 153.43280029296875 140.4756317138672 154.08648681640625 169.2359619140625 154.7401123046875 173.15782165527344 156.7010498046875 188.19161987304688 163.89111328125 201.26449584960935 167.15936279296875 204.53271484375 167.15936279296875 204.53271484375 " />
        </svg>