<?xml version="1.0" standalone="no"?>
    <svg width="256" height="256" xmlns="http://www.w3.org/2000/svg" version="1.1">
    <polyline stroke="black" stroke-width="3" stroke-linecap="round" fill="transparent" stroke-linejoin="round" points="74 93 73 93 74 94 74 96 75 98 75 101 74 104 75 107 75 110 77 115 79 117 82 118 86 118 91 116 93 114 " />
        <polyline stroke="black" stroke-width="3" stroke-linecap="round" fill="transparent" stroke-linejoin="round" points="112 81 111 82 110 85 107 91 103 98 98 105 91 112 84 119 78 124 71 129 65 134 62 136 61 137 60 138 60 138 62 138 65 138 70 137 79 133 86 130 93 125 100 120 107 114 114 108 117 105 " />
        <polyline stroke="black" stroke-width="3" stroke-linecap="round" fill="transparent" stroke-linejoin="round" points="96 71 95 71 94 75 90 85 87 94 84 105 80 117 77 130 74 142 71 153 69 163 67 171 66 178 65 182 65 184 65 185 65 184 " />
        <polyline stroke="black" stroke-width="3" stroke-linecap="round" fill="transparent" stroke-linejoin="round" points="77 143 80 144 85 147 89 150 92 153 96 156 100 159 103 160 106 161 111 159 114 158 " />
        <polyline stroke="black" stroke-width="3" stroke-linecap="round" fill="transparent" stroke-linejoin="round" points="137 68 137 69 136 72 134 77 133 83 131 89 130 96 129 102 129 108 129 113 128 117 128 117 129 117 130 116 " />
        <polyline stroke="black" stroke-width="3" stroke-linecap="round" fill="transparent" stroke-linejoin="round" points="140 67 144 63 147 60 151 57 155 55 158 54 162 53 166 53 172 55 176 58 179 62 181 67 182 74 181 81 178 89 174 96 172 100 " />
        <polyline stroke="black" stroke-width="3" stroke-linecap="round" fill="transparent" stroke-linejoin="round" points="131 94 132 93 134 91 138 89 142 87 148 83 153 81 157 79 161 78 163 79 164 83 163 85 " />
        <polyline stroke="black" stroke-width="3" stroke-linecap="round" fill="transparent" stroke-linejoin="round" points="133 113 133 113 131 114 130 113 132 112 135 109 139 106 145 102 151 99 158 95 165 93 167 92 170 92 " />
        <polyline stroke="black" stroke-width="3" stroke-linecap="round" fill="transparent" stroke-linejoin="round" points="123 139 123 139 123 139 125 138 128 136 132 134 137 132 143 129 149 127 155 124 161 122 167 122 170 123 " />
        <polyline stroke="black" stroke-width="3" stroke-linecap="round" fill="transparent" stroke-linejoin="round" points="113 163 112 164 112 163 116 162 121 160 127 157 134 154 142 151 150 148 159 144 171 141 175 140 181 140 183 140 " />
        <polyline stroke="black" stroke-width="3" stroke-linecap="round" fill="transparent" stroke-linejoin="round" points="153 137 153 137 150 137 149 139 148 142 147 148 147 155 147 163 147 173 147 183 147 194 148 205 149 211 150 216 " />
        </svg>