<?xml version="1.0" standalone="no"?>
    <svg width="256" height="256" xmlns="http://www.w3.org/2000/svg" version="1.1">
    <polyline stroke="black" stroke-width="3" stroke-linecap="round" fill="transparent" stroke-linejoin="round" points="102.22479248046876 48.67650604248047 116.165283203125 41.42743682861328 128.43295288085938 36.96647644042969 135.1243896484375 35.293609619140625 137.3548583984375 38.08171081542969 130.10580444335938 58.15605163574219 98.32144165039063 110.57237243652344 76.57424926757813 145.14483642578125 60.40325927734375 170.79537963867188 50.9237060546875 183.06304931640625 46.462738037109375 188.6392517089844 46.462738037109375 188.6392517089844 " />
        <polyline stroke="black" stroke-width="3" stroke-linecap="round" fill="transparent" stroke-linejoin="round" points="113.934814453125 98.30471801757813 125.08721923828124 91.61328125 138.4700927734375 85.47944641113281 155.19873046875 79.90324401855469 170.8121337890625 77.11514282226563 183.0797119140625 78.23039245605469 190.886474609375 83.24897766113281 197.020263671875 101.65045166015624 193.674560546875 139.56863403320313 183.0797119140625 165.21917724609375 170.8121337890625 185.85113525390625 159.10205078125 199.23403930664065 147.94964599609375 207.59832763671875 136.7972412109375 209.82882690429688 130.10580444335938 205.92547607421875 130.10580444335938 205.92547607421875 " />
        <polyline stroke="black" stroke-width="3" stroke-linecap="round" fill="transparent" stroke-linejoin="round" points="141.81585693359375 119.49430847167967 130.10580444335938 140.6838836669922 115.050048828125 164.66156005859375 106.12811279296876 175.25634765625 97.76382446289063 183.06304931640625 97.76382446289063 183.06304931640625 " />
        <polyline stroke="black" stroke-width="3" stroke-linecap="round" fill="transparent" stroke-linejoin="round" points="119.51101684570313 149.04818725585938 151.85302734375 156.85487365722656 174.1578369140625 164.66156005859375 199.250732421875 175.81396484375 228.80462646484375 195.8883056640625 228.80462646484375 195.8883056640625 " />
        </svg>