<?xml version="1.0" standalone="no"?>
    <svg width="256" height="256" xmlns="http://www.w3.org/2000/svg" version="1.1">
    <polyline stroke="black" stroke-width="3" stroke-linecap="round" fill="transparent" stroke-linejoin="round" points="80.47686767578125 66.89286804199219 90.29318237304688 62.27342224121094 100.68692016601563 57.65399169921875 110.50323486328124 53.0345458984375 120.31951904296876 49.569969177246094 126.6712646484375 46.682823181152344 131.29071044921875 44.950531005859375 133.60040283203125 43.79566955566406 133.60040283203125 45.52796173095703 128.403564453125 53.61197662353515 112.81292724609376 78.44146728515625 93.75775146484376 109.62266540527344 77.5897216796875 137.33929443359375 68.92828369140625 154.0847625732422 64.308837890625 161.59133911132813 61.42169189453125 166.21078491210938 59.68939208984375 167.3656463623047 59.68939208984375 163.32363891601563 59.68939208984375 163.32363891601563 " />
        <polyline stroke="black" stroke-width="3" stroke-linecap="round" fill="transparent" stroke-linejoin="round" points="107.03863525390624 93.4546356201172 117.432373046875 90.56748962402344 127.24868774414063 88.25776672363281 137.64242553710938 87.1029052734375 148.03616333007813 85.94804382324219 157.2750244140625 85.37062072753906 165.9365234375 85.94804382324219 171.7108154296875 87.68032836914063 175.7528076171875 91.72235107421876 176.90765380859375 100.9612274169922 172.2882080078125 124.63583374023438 163.04931640625 154.0847625732422 152.07818603515625 180.6465301513672 138.2198486328125 206.630859375 127.24868774414063 224.53118896484375 120.31951904296876 230.8829345703125 110.50323486328124 234.9249267578125 102.99664306640624 231.4603576660156 94.335205078125 218.75689697265625 94.335205078125 218.75689697265625 " />
        <polyline stroke="black" stroke-width="3" stroke-linecap="round" fill="transparent" stroke-linejoin="round" points="137.64242553710938 108.46780395507813 130.13583374023438 119.43898010253906 118.00982666015624 135.6070098876953 103.57406616210938 154.6621856689453 92.02548217773438 167.9430694580078 83.94146728515625 174.8722381591797 78.16717529296875 178.33680725097656 74.70257568359375 177.18194580078125 74.70257568359375 177.18194580078125 " />
        <polyline stroke="black" stroke-width="3" stroke-linecap="round" fill="transparent" stroke-linejoin="round" points="87.40603637695313 144.26844787597656 96.6448974609375 143.69102478027344 108.77093505859376 145.42330932617188 123.2066650390625 149.46531677246094 140.52957153320313 155.81704711914063 157.2750244140625 163.90106201171875 174.597900390625 171.98507690429688 195.3853759765625 182.95623779296875 195.3853759765625 182.95623779296875 " />
        </svg>