<?xml version="1.0" standalone="no"?>
    <svg width="256" height="256" xmlns="http://www.w3.org/2000/svg" version="1.1">
    <polyline stroke="black" stroke-width="3" stroke-linecap="round" fill="transparent" stroke-linejoin="round" points="65.25 110 97.75 90 117.75 77.5 122.75 72.5 124 71.25 125.25 70 125.25 71.25 125.25 72.5 107.75 107.5 95.25 138.75 76.5 170 66.5 187.5 65.25 190 62.75 192.5 62.75 193.75 62.75 193.75 " />
        <polyline stroke="black" stroke-width="3" stroke-linecap="round" fill="transparent" stroke-linejoin="round" points="145.25 106.25 159 100 182.75 91.25 189 88.75 197.75 86.25 200.25 85 201.5 85 202.75 85 204 88.75 204 98.75 201.5 133.75 196.5 170 194 182.5 182.75 210 171.5 227.5 167.75 236.25 166.5 237.5 165.25 238.75 164 238.75 162.75 237.5 147.75 222.5 115.25 187.5 110.25 177.5 107.75 168.75 107.75 168.75 " />
        <polyline stroke="black" stroke-width="3" stroke-linecap="round" fill="transparent" stroke-linejoin="round" points="132.75 150 112.75 185 102.75 197.5 92.75 210 92.75 210 " />
        <polyline stroke="black" stroke-width="3" stroke-linecap="round" fill="transparent" stroke-linejoin="round" points="94 145 137.75 163.75 180.25 183.75 200.25 191.25 209 195 211.5 195 214 196.25 219 200 226.5 211.25 230.25 216.25 232.75 220 235.25 221.25 236.5 218.75 236.5 218.75 " />
        </svg>