<?xml version="1.0" standalone="no"?>
    <svg width="256" height="256" xmlns="http://www.w3.org/2000/svg" version="1.1">
    <polyline stroke="black" stroke-width="3" stroke-linecap="round" fill="transparent" stroke-linejoin="round" points="76 58 93 53 107 52 112 52 113 54 109 72 92 98 68 125 47 150 34 164 29 170 29 170 " />
        <polyline stroke="black" stroke-width="3" stroke-linecap="round" fill="transparent" stroke-linejoin="round" points="111 90 122 89 143 85 164 81 182 81 193 83 197 99 198 121 194 146 181 167 168 184 155 197 142 203 134 204 131 193 131 181 131 181 " />
        <polyline stroke="black" stroke-width="3" stroke-linecap="round" fill="transparent" stroke-linejoin="round" points="142 104 135 122 124 141 111 157 100 171 91 179 80 181 77 181 77 181 " />
        <polyline stroke="black" stroke-width="3" stroke-linecap="round" fill="transparent" stroke-linejoin="round" points="118 144 146 154 178 163 208 174 228 182 228 182 " />
        </svg>