<?xml version="1.0" standalone="no"?>
    <svg width="256" height="256" xmlns="http://www.w3.org/2000/svg" version="1.1">
    <polyline stroke="black" stroke-width="3" stroke-linecap="round" fill="transparent" stroke-linejoin="round" points="78 66 83 66 97 65 107 64 111 64 112 65 110 71 94 93 73 122 53 149 39 167 32 176 32 177 32 177 " />
        <polyline stroke="black" stroke-width="3" stroke-linecap="round" fill="transparent" stroke-linejoin="round" points="85 104 97 104 120 98 149 91 170 91 180 91 183 93 182 110 169 133 156 155 140 174 128 189 118 200 109 204 102 203 102 203 " />
        <polyline stroke="black" stroke-width="3" stroke-linecap="round" fill="transparent" stroke-linejoin="round" points="105 141 93 161 79 177 70 182 68 183 68 183 " />
        <polyline stroke="black" stroke-width="3" stroke-linecap="round" fill="transparent" stroke-linejoin="round" points="121 157 151 166 184 175 212 179 212 179 " />
        </svg>