<?xml version="1.0" standalone="no"?>
    <svg width="256" height="256" xmlns="http://www.w3.org/2000/svg" version="1.1">
    <polyline stroke="black" stroke-width="3" stroke-linecap="round" fill="transparent" stroke-linejoin="round" points="74 69 73 81 73 101 73 133 73 161 73 185 75 205 80 212 84 213 84 213 " />
        <polyline stroke="black" stroke-width="3" stroke-linecap="round" fill="transparent" stroke-linejoin="round" points="70 100 97 95 109 92 134 89 161 89 168 90 173 94 181 112 181 134 181 158 178 178 174 188 171 193 166 193 166 193 " />
        <polyline stroke="black" stroke-width="3" stroke-linecap="round" fill="transparent" stroke-linejoin="round" points="74 147 78 150 85 150 93 150 114 150 135 150 156 150 168 151 173 152 173 152 " />
        <polyline stroke="black" stroke-width="3" stroke-linecap="round" fill="transparent" stroke-linejoin="round" points="78 210 102 212 124 210 148 208 169 208 169 208 " />
        </svg>