<?xml version="1.0" standalone="no"?>
    <svg width="256" height="256" xmlns="http://www.w3.org/2000/svg" version="1.1">
    <polyline stroke="black" stroke-width="3" stroke-linecap="round" fill="transparent" stroke-linejoin="round" points="75.85638427734375 66.90522766113281 69.24871826171875 77.6751708984375 65.3465576171875 84.20477294921875 62.042724609375 90.68234252929688 58.556793212890625 97.2899932861328 55.122894287109375 103.74154663085938 52.833648681640625 108.42413330078124 50.986602783203125 112.22224426269533 50.28424072265625 113.8871612548828 49.9720458984375 114.97976684570313 49.868011474609375 115.5000457763672 49.868011474609375 115.5000457763672 " />
        <polyline stroke="black" stroke-width="3" stroke-linecap="round" fill="transparent" stroke-linejoin="round" points="84.02487182617188 63.211181640625 93.44204711914063 61.494232177734375 101.1683349609375 59.98539733886719 104.96646118164063 59.30903625488281 106.08502197265624 59.10090637207031 106.24114990234376 59.07490539550781 106.50125122070313 59.022857666015625 107.54183959960938 58.996856689453125 108.270263671875 59.1529541015625 108.40032958984376 59.230987548828125 108.50436401367188 59.85533142089844 108.0361328125 61.28611755371094 106.89154052734376 63.80950927734375 105.38265991210938 66.90522766113281 103.45758056640624 70.98947143554688 101.27239990234376 75.69807434082031 98.6448974609375 82.27969360351563 96.06951904296876 90.3961944580078 92.4794921875 98.69476318359376 90.84060668945313 106.99334716796876 87.90103149414063 116.77474975585938 84.62319946289063 127.076416015625 79.83657836914063 137.40414428710938 75.88238525390625 145.78074645996094 70.62750244140625 156.1084747314453 65.42459106445313 163.75668334960938 61.26226806640625 169.7659912109375 56.68377685546875 174.5006103515625 54.134368896484375 177.07601928710938 51.923126220703125 178.6629180908203 51.5589599609375 178.76698303222656 51.5589599609375 178.76698303222656 " />
        <polyline stroke="black" stroke-width="3" stroke-linecap="round" fill="transparent" stroke-linejoin="round" points="78.69195556640625 106.29095458984376 85.63775634765625 112.9506378173828 94.014404296875 123.27835083007813 103.40554809570313 133.918212890625 113.2650146484375 143.62156677246094 120.26287841796876 151.50390625 125.41372680664063 157.7213592529297 127.67694091796876 160.55691528320313 129.0556640625 162.27386474609375 130.01821899414063 163.73065185546875 129.0556640625 164.43304443359375 127.46884155273438 162.95022583007813 127.46884155273438 162.95022583007813 " />
        <polyline stroke="black" stroke-width="3" stroke-linecap="round" fill="transparent" stroke-linejoin="round" points="138.31683349609375 90.91647338867188 142.50515747070313 99.08497619628906 145.1585693359375 105.406494140625 146.14715576171875 108.34609985351563 146.38131713867188 109.12654113769533 146.66744995117188 109.5427703857422 146.66744995117188 109.5427703857422 " />
        <polyline stroke="black" stroke-width="3" stroke-linecap="round" fill="transparent" stroke-linejoin="round" points="155.30419921875 84.308837890625 157.35931396484375 87.97685241699219 158.71209716796875 90.6303253173828 160.3509521484375 93.127685546875 162.30206298828125 94.94871520996094 167.99920654296875 94.8186492919922 167.99920654296875 94.8186492919922 " />
        <polyline stroke="black" stroke-width="3" stroke-linecap="round" fill="transparent" stroke-linejoin="round" points="195.106201171875 52.15507507324219 196.48492431640625 52.28515625 197.73358154296875 52.41522216796875 198.25390625 52.49327087402344 198.80023193359375 52.59733581542969 199.6846923828125 52.80543518066406 200.1529541015625 52.96153259277344 200.28302001953125 53.03956604003906 200.93341064453125 53.61188507080078 201.583740234375 54.62644958496094 202.2601318359375 56.8116455078125 201.73980712890625 61.20808410644531 200.85528564453125 67.03529357910156 198.9302978515625 74.29328918457031 195.60040283203125 83.73651123046875 191.5682373046875 94.35037231445313 186.1312255859375 104.756103515625 180.30401611328125 115.29193115234376 172.23956298828125 127.5186767578125 164.4613037109375 135.8693084716797 157.54150390625 143.1793212890625 152.624755859375 149.4227752685547 152.624755859375 149.4227752685547 " />
        <polyline stroke="black" stroke-width="3" stroke-linecap="round" fill="transparent" stroke-linejoin="round" points="137.484375 141.8265838623047 153.35308837890625 141.07215881347656 171.3291015625 142.0867462158203 186.9376220703125 142.03469848632813 199.1904296875 142.3208465576172 204.78350830078125 141.8005828857422 206.8646240234375 141.6704864501953 208.89373779296875 141.56643676757813 209.23199462890625 141.69650268554688 209.23199462890625 141.69650268554688 " />
        </svg>