<?xml version="1.0" standalone="no"?>
    <svg width="256" height="256" xmlns="http://www.w3.org/2000/svg" version="1.1">
    <polyline stroke="black" stroke-width="3" stroke-linecap="round" fill="transparent" stroke-linejoin="round" points="50.41510009765625 88.50408935546875 45.76434326171875 96.14866638183594 42.774749755859375 99.80455017089844 40.117034912109375 103.12825012207033 37.79180908203125 106.11978149414063 35.46624755859375 108.77850341796876 33.473175048828125 111.10501098632813 31.480133056640625 112.76686096191406 30.15142822265625 113.43186950683594 29.154571533203125 113.43186950683594 29.154571533203125 113.43186950683594 " />
        <polyline stroke="black" stroke-width="3" stroke-linecap="round" fill="transparent" stroke-linejoin="round" points="73.66836547851563 73.21525573730469 81.6412353515625 74.54460144042969 85.62734985351563 75.54177856445313 89.9459228515625 76.5389404296875 93.6002197265625 77.20364379882813 96.58978271484376 77.53579711914063 99.24749755859376 77.86830139160156 101.57275390625 78.53298950195313 103.5657958984375 78.865478515625 104.89450073242188 79.19764709472656 106.22354125976563 79.5301513671875 107.55221557617188 80.19483947753906 108.54876708984376 80.52732849121094 109.21310424804688 81.19200134277344 110.20965576171876 81.856689453125 110.87396240234376 82.5213623046875 111.2061767578125 83.18637084960938 111.538330078125 84.51570129394531 111.870849609375 85.84506225585938 111.870849609375 87.50691223144531 111.538330078125 89.83345031738281 111.2061767578125 92.16029357910156 110.54180908203124 95.48399353027344 109.5452880859375 99.4723663330078 108.21658325195313 104.79010009765624 105.89132690429688 111.77003479003906 102.56927490234376 120.07893371582033 98.58282470703124 129.05287170410156 94.26455688476563 139.02398681640625 90.27813720703124 147.9979248046875 85.95950317382813 156.63967895507813 81.97341918945313 163.95176696777344 78.31915283203125 170.5991668701172 74.66519165039063 176.9140625 71.01095581054688 181.899658203125 67.356689453125 186.88519287109375 64.03494262695313 191.53823852539065 61.045074462890625 196.5238037109375 58.38763427734375 200.51217651367188 56.39459228515625 204.1683654785156 54.7333984375 206.49493408203125 53.404693603515625 207.82424926757813 52.076019287109375 208.8214111328125 51.0794677734375 209.48611450195313 50.747314453125 210.1507873535156 50.41510009765625 210.1507873535156 50.08294677734375 210.1507873535156 50.08294677734375 209.81863403320313 50.747314453125 208.15676879882813 50.747314453125 208.15676879882813 " />
        <polyline stroke="black" stroke-width="3" stroke-linecap="round" fill="transparent" stroke-linejoin="round" points="83.30209350585938 144.00953674316406 94.59671020507813 157.63685607910156 100.90838623046876 165.2811279296875 106.88784790039063 172.5931854248047 112.86737060546876 178.2434539794922 118.84689331054688 182.89682006835935 125.15850830078124 186.88519287109375 130.4736328125 189.87640380859375 135.12411499023438 192.20294189453125 138.44619750976563 193.5325927734375 140.43923950195313 194.197265625 142.10009765625 194.52975463867188 143.09698486328125 194.52975463867188 143.42913818359375 194.52975463867188 143.42913818359375 194.52975463867188 143.42913818359375 194.197265625 143.09698486328125 193.5325927734375 143.09698486328125 193.5325927734375 " />
        <polyline stroke="black" stroke-width="3" stroke-linecap="round" fill="transparent" stroke-linejoin="round" points="158.04547119140625 84.18321228027344 157.71331787109375 91.49530029296876 157.38116455078125 99.4723663330078 156.716796875 112.1021728515625 156.3846435546875 116.75555419921876 156.3846435546875 120.74395751953124 156.3846435546875 123.07046508789063 157.0489501953125 124.39982604980467 158.04547119140625 124.06764221191406 158.04547119140625 124.06764221191406 " />
        <polyline stroke="black" stroke-width="3" stroke-linecap="round" fill="transparent" stroke-linejoin="round" points="188.939453125 78.865478515625 186.6138916015625 96.14866638183594 185.61737060546875 103.7929229736328 185.28515625 110.10818481445313 184.9530029296875 115.42588806152344 184.620849609375 119.4142608642578 184.620849609375 122.0732879638672 184.620849609375 123.73513793945313 184.9530029296875 124.39982604980467 185.61737060546875 124.06764221191406 185.61737060546875 124.06764221191406 " />
        <polyline stroke="black" stroke-width="3" stroke-linecap="round" fill="transparent" stroke-linejoin="round" points="222.15863037109375 83.18637084960938 219.501220703125 104.79010009765624 217.1756591796875 123.07046508789063 216.17919921875 128.720703125 215.51483154296875 133.37374877929688 214.8504638671875 137.3621368408203 214.18609619140625 140.35366821289063 213.1895751953125 142.68019104003906 212.52520751953125 144.67422485351563 211.52838134765625 146.00389099121094 210.864013671875 147.333251953125 209.867431640625 148.33042907714844 209.867431640625 148.33042907714844 " />
        <polyline stroke="black" stroke-width="3" stroke-linecap="round" fill="transparent" stroke-linejoin="round" points="174.32275390625 182.89682006835935 196.9119873046875 181.5671539306641 206.21356201171875 181.5671539306641 214.8504638671875 181.5671539306641 222.15863037109375 181.2349395751953 229.1346435546875 181.2349395751953 234.781982421875 181.2349395751953 239.10052490234375 180.9024658203125 242.42230224609375 180.9024658203125 244.74786376953125 180.57028198242188 246.74090576171875 179.9052734375 246.74090576171875 179.9052734375 " />
        </svg>