<?xml version="1.0" standalone="no"?>
    <svg width="256" height="256" xmlns="http://www.w3.org/2000/svg" version="1.1">
    <polyline stroke="black" stroke-width="3" stroke-linecap="round" fill="transparent" stroke-linejoin="round" points="63.2264404296875 91.28302001953124 54.16973876953125 116.64151000976563 52.3585205078125 119.35848999023438 50.54718017578125 122.07546997070313 49.64154052734375 121.16983032226563 52.3585205078125 116.64151000976563 59.603759765625 108.49057006835938 77.7169189453125 92.18869018554688 90.396240234375 83.132080078125 99.4527587890625 79.50942993164063 104.88677978515624 79.50942993164063 106.6981201171875 89.47171020507813 102.16973876953124 105.77359008789063 93.11322021484376 126.60379028320313 80.43389892578125 150.15093994140625 65.0377197265625 171.88681030273438 52.3585205078125 190 36.9622802734375 207.20751953125 30.6226806640625 212.6415100097656 26.0943603515625 211.73583984375 26.0943603515625 211.73583984375 " />
        <polyline stroke="black" stroke-width="3" stroke-linecap="round" fill="transparent" stroke-linejoin="round" points="66.84906005859375 149.24530029296875 84.9622802734375 152.86790466308594 87.67926025390625 153.77359008789063 90.396240234375 153.77359008789063 90.396240234375 153.77359008789063 " />
        <polyline stroke="black" stroke-width="3" stroke-linecap="round" fill="transparent" stroke-linejoin="round" points="120.282958984375 112.11322021484376 124.81134033203124 113.92453002929688 125.7169189453125 113.01885986328124 125.7169189453125 113.01885986328124 " />
        <polyline stroke="black" stroke-width="3" stroke-linecap="round" fill="transparent" stroke-linejoin="round" points="153.79248046875 81.32077026367188 167.37738037109375 65.01884460449219 170.99993896484375 60.490570068359375 180.056640625 55.05659484863281 183.67926025390625 55.05659484863281 183.67926025390625 58.67924499511719 180.9622802734375 65.92453002929688 174.6226806640625 76.79244995117188 164.660400390625 91.28302001953124 153.79248046875 107.58488464355467 135.67926025390625 129.32077026367188 124.81134033203124 142.90565490722656 113.94342041015624 153.77359008789063 103.98114013671876 163.73583984375 103.07550048828124 166.45285034179688 108.50946044921876 164.64149475097656 122.0943603515625 159.20753479003906 140.20758056640625 151.9622802734375 160.13201904296875 144.71697998046875 187.3018798828125 135.6603546142578 199.98114013671875 129.32077026367188 204.50946044921875 126.60379028320313 204.50946044921875 126.60379028320313 " />
        </svg>