<?xml version="1.0" standalone="no"?>
    <svg width="256" height="256" xmlns="http://www.w3.org/2000/svg" version="1.1">
    <polyline stroke="black" stroke-width="3" stroke-linecap="round" fill="transparent" stroke-linejoin="round" points="68.3128662109375 94.49612426757813 60.4691162109375 110.18356323242188 59.16180419921875 112.1444854736328 57.8546142578125 114.7590789794922 57.8546142578125 115.41270446777344 59.81549072265625 114.1054229736328 66.3519287109375 106.26170349121094 74.1956787109375 97.76432800292967 80.07843017578125 92.53518676757813 84.00030517578125 90.5742645263672 86.6148681640625 91.22789001464844 86.6148681640625 101.68620300292967 82.6929931640625 119.33456420898438 76.81024169921875 139.59751892089844 65.6982421875 162.4750213623047 58.50823974609375 172.93333435058594 49.357177734375 180.7770233154297 47.396240234375 180.7770233154297 47.396240234375 179.46975708007813 47.396240234375 179.46975708007813 " />
        <polyline stroke="black" stroke-width="3" stroke-linecap="round" fill="transparent" stroke-linejoin="round" points="73.5419921875 140.90481567382813 89.22943115234375 158.5531768798828 91.19036865234376 159.86045837402344 101.64862060546876 164.4359588623047 108.8387451171875 163.128662109375 108.8387451171875 163.128662109375 " />
        <polyline stroke="black" stroke-width="3" stroke-linecap="round" fill="transparent" stroke-linejoin="round" points="122.56524658203124 116.06634521484376 123.87249755859376 118.0272979736328 130.408935546875 122.602783203125 132.369873046875 121.29551696777344 134.9844970703125 115.41270446777344 134.9844970703125 115.41270446777344 " />
        <polyline stroke="black" stroke-width="3" stroke-linecap="round" fill="transparent" stroke-linejoin="round" points="144.78912353515625 119.33456420898438 146.09637451171875 121.29551696777344 157.86199951171875 133.7147216796875 159.82293701171875 133.7147216796875 165.05206298828125 132.4074249267578 165.05206298828125 132.4074249267578 " />
        <polyline stroke="black" stroke-width="3" stroke-linecap="round" fill="transparent" stroke-linejoin="round" points="184.66131591796875 105.60806274414063 159.82293701171875 149.4021453857422 155.90106201171875 153.97769165039063 140.86724853515625 168.35781860351563 127.1407470703125 176.2015380859375 117.98974609375 179.46975708007813 114.06787109375 180.7770233154297 112.7606201171875 181.43069458007813 114.06787109375 181.43069458007813 123.21893310546876 180.1234130859375 134.9844970703125 179.46975708007813 150.01824951171875 178.8161163330078 172.24212646484375 178.1624755859375 185.96868896484375 178.1624755859375 207.53887939453125 185.3525390625 216.68988037109375 193.1962890625 216.68988037109375 193.1962890625 " />
        </svg>