<?xml version="1.0" standalone="no"?>
    <svg width="256" height="256" xmlns="http://www.w3.org/2000/svg" version="1.1">
    <polyline stroke="black" stroke-width="3" stroke-linecap="round" fill="transparent" stroke-linejoin="round" points="95.9122314453125 65.30665588378906 100.48773193359376 64.65301513671875 131.20892333984375 62.03843688964844 148.20367431640625 60.73118591308594 164.5447998046875 58.770233154296875 183.50042724609375 56.155670166015625 190.6904296875 56.155670166015625 191.34417724609375 58.1165771484375 190.03692626953125 60.73118591308594 190.03692626953125 60.73118591308594 " />
        <polyline stroke="black" stroke-width="3" stroke-linecap="round" fill="transparent" stroke-linejoin="round" points="92.64398193359376 106.4862060546875 90.68304443359376 111.06169128417967 90.68304443359376 129.36373901367188 90.68304443359376 131.978271484375 92.64398193359376 143.74388122558594 94.60498046875 155.5094757080078 95.258544921875 162.0458984375 95.9122314453125 165.31411743164063 97.219482421875 162.6995086669922 97.219482421875 162.6995086669922 " />
        <polyline stroke="black" stroke-width="3" stroke-linecap="round" fill="transparent" stroke-linejoin="round" points="95.258544921875 115.63719177246094 96.56585693359376 114.32991027832033 110.29241943359376 103.8716278076172 112.90692138671876 102.5643310546875 127.94073486328124 96.02789306640624 144.93548583984375 92.75968933105467 156.04742431640625 91.452392578125 163.89111328125 92.10604858398438 169.12030029296875 96.02789306640624 171.73486328125 107.13983154296876 171.73486328125 123.48092651367188 169.12030029296875 140.4756317138672 163.89111328125 154.2021484375 158.00836181640625 162.6995086669922 154.08648681640625 164.6604461669922 154.08648681640625 164.6604461669922 " />
        <polyline stroke="black" stroke-width="3" stroke-linecap="round" fill="transparent" stroke-linejoin="round" points="121.404296875 141.78294372558594 121.404296875 145.0511474609375 118.1361083984375 162.0458984375 116.1751708984375 164.6604461669922 116.1751708984375 164.6604461669922 " />
        <polyline stroke="black" stroke-width="3" stroke-linecap="round" fill="transparent" stroke-linejoin="round" points="114.86785888671876 137.861083984375 116.82879638671876 137.20742797851563 135.78448486328125 133.939208984375 137.745361328125 133.939208984375 146.89642333984375 135.900146484375 150.16461181640625 141.12930297851563 148.85736083984375 148.9730224609375 148.85736083984375 148.9730224609375 " />
        <polyline stroke="black" stroke-width="3" stroke-linecap="round" fill="transparent" stroke-linejoin="round" points="144.93548583984375 173.15782165527344 148.85736083984375 173.8114471435547 173.69573974609375 178.38699340820313 182.8468017578125 182.9624786376953 182.8468017578125 182.9624786376953 " />
        </svg>