<?xml version="1.0" standalone="no"?>
    <svg width="256" height="256" xmlns="http://www.w3.org/2000/svg" version="1.1">
    <polyline stroke="black" stroke-width="3" stroke-linecap="round" fill="transparent" stroke-linejoin="round" points="69.54244995117188 80.38270568847656 76.60946655273438 76.40750122070313 86.32662963867188 71.99061584472656 98.252197265625 67.57373046875 138.88763427734375 58.73994445800781 162.297119140625 56.089813232421875 178.6396484375 54.764739990234375 187.91510009765625 54.764739990234375 190.12353515625 55.64811706542969 190.12353515625 55.64811706542969 " />
        <polyline stroke="black" stroke-width="3" stroke-linecap="round" fill="transparent" stroke-linejoin="round" points="89.86016845703125 149.2861785888672 92.95196533203124 170.48724365234375 94.27703857421876 180.20440673828125 95.60211181640624 195.22183227539065 96.04379272460938 203.61392211914065 95.160400390625 208.47250366210935 95.160400390625 208.47250366210935 " />
        <polyline stroke="black" stroke-width="3" stroke-linecap="round" fill="transparent" stroke-linejoin="round" points="107.08602905273438 124.9932861328125 113.2696533203125 119.69302368164063 120.77838134765624 114.39274597167967 136.67916870117188 106.00067138671876 145.07125854492188 102.90884399414063 160.9720458984375 98.9336395263672 173.781005859375 98.9336395263672 183.0565185546875 101.58377075195313 186.1483154296875 103.35055541992188 193.6571044921875 114.83444213867188 194.98211669921875 121.90147399902344 191.89031982421875 149.2861785888672 183.49822998046875 170.04556274414063 171.5726318359375 190.36328125 171.5726318359375 190.36328125 " />
        <polyline stroke="black" stroke-width="3" stroke-linecap="round" fill="transparent" stroke-linejoin="round" points="110.17782592773438 159.88671875 115.47811889648438 156.79489135742188 120.77838134765624 153.70309448242188 131.820556640625 148.40281677246094 137.56256103515625 145.752685546875 153.02166748046875 137.80227661132813 160.0887451171875 132.94369506835938 164.06390380859375 128.08511352539063 164.06390380859375 128.08511352539063 " />
        <polyline stroke="black" stroke-width="3" stroke-linecap="round" fill="transparent" stroke-linejoin="round" points="136.23748779296875 139.12734985351563 133.58734130859375 147.9611053466797 130.49554443359375 158.11996459960938 123.428466796875 175.7875213623047 119.89498901367188 182.8545379638672 111.944580078125 193.455078125 105.31927490234376 199.63873291015625 100.460693359375 202.7305603027344 97.810546875 203.1722412109375 97.36883544921876 202.28887939453125 99.57733154296876 200.08041381835935 103.552490234375 197.4302978515625 125.636962890625 188.59649658203125 141.09603881835938 184.62130737304688 156.996826171875 182.412841796875 165.388916015625 182.412841796875 165.388916015625 182.412841796875 " />
        </svg>