<?xml version="1.0" standalone="no"?>
    <svg width="256" height="256" xmlns="http://www.w3.org/2000/svg" version="1.1">
    <polyline stroke="black" stroke-width="3" stroke-linecap="round" fill="transparent" stroke-linejoin="round" points="79.0780029296875 68.00469970703125 99.19601440429688 62.2567138671875 109.870849609375 59.79328918457031 142.71652221679688 55.68757629394531 152.15966796875 55.277008056640625 170.6353759765625 56.09814453125 176.7939453125 58.56158447265625 176.7939453125 58.56158447265625 " />
        <polyline stroke="black" stroke-width="3" stroke-linecap="round" fill="transparent" stroke-linejoin="round" points="84.41546630859375 121.78952026367188 84.82601928710938 139.44406127929688 85.236572265625 150.118896484375 87.2894287109375 171.0580291748047 88.93173217773438 187.4808654785156 89.34228515625 197.74514770507813 88.93173217773438 203.49313354492188 88.110595703125 205.13543701171875 88.110595703125 205.13543701171875 " />
        <polyline stroke="black" stroke-width="3" stroke-linecap="round" fill="transparent" stroke-linejoin="round" points="96.32199096679688 114.80979919433594 109.46029663085938 104.9561004638672 116.44000244140624 100.85040283203124 123.83026123046876 97.15525817871094 145.59051513671875 91.8178253173828 159.13934326171875 93.04953002929688 168.9930419921875 97.56582641601563 176.38330078125 105.36666870117188 182.9525146484375 120.147216796875 185.00531005859375 139.44406127929688 182.13134765625 159.15147399902344 178.8468017578125 168.18402099609375 168.58251953125 185.0174560546875 168.58251953125 185.0174560546875 " />
        <polyline stroke="black" stroke-width="3" stroke-linecap="round" fill="transparent" stroke-linejoin="round" points="104.53341674804688 162.8466033935547 116.85055541992188 154.6351776123047 129.98883056640625 146.01318359375 140.25311279296875 139.85464477539063 147.64337158203125 134.5172119140625 151.74908447265625 130.8220672607422 152.57025146484375 129.17979431152344 152.57025146484375 123.84237670898438 152.15966796875 122.2000732421875 149.69622802734375 118.50494384765624 148.053955078125 117.27322387695313 146.41162109375 116.8626708984375 144.35882568359375 117.68380737304688 141.07421875 124.25296020507813 136.968505859375 137.39120483398438 133.27337646484375 153.81405639648438 129.16766357421875 167.77346801757813 123.419677734375 181.32229614257813 116.85055541992188 191.99713134765625 109.870849609375 199.38742065429688 106.58627319335938 201.85086059570313 101.24887084960938 205.5459899902344 97.14315795898438 206.7777099609375 96.73260498046876 205.95654296875 100.427734375 201.85086059570313 105.35458374023438 198.15570068359375 127.93597412109376 186.2491455078125 135.73681640625 183.37515258789065 157.4970703125 179.26943969726563 164.88739013671875 180.090576171875 164.88739013671875 180.090576171875 " />
        </svg>