<?xml version="1.0" standalone="no"?>
    <svg width="256" height="256" xmlns="http://www.w3.org/2000/svg" version="1.1">
    <polyline stroke="black" stroke-width="3" stroke-linecap="round" fill="transparent" stroke-linejoin="round" points="62.38299560546875 76.613037109375 71.51266479492188 74.73646545410156 91.4598388671875 71.84951782226563 104.42550659179688 70.713623046875 131.24481201171875 68.80499267578125 153.99493408203125 69.44308471679688 165.84344482421875 70.326416015625 184.96405029296875 72.0460205078125 192.2841796875 72.19265747070313 201.3935546875 71.95004272460938 204.68023681640625 71.85130310058594 207.51654052734375 71.16786193847656 207.83544921875 70.68472290039063 207.95648193359375 70.50141906738281 207.9736328125 70.47537231445313 " />
        <polyline stroke="black" stroke-width="3" stroke-linecap="round" fill="transparent" stroke-linejoin="round" points="79.11776733398438 147.5847625732422 83.38812255859375 177.07821655273438 84.16146850585938 187.91409301757813 83.82369995117188 199.54702758789065 83.48703002929688 201.4560546875 83.453857421875 201.6441650390625 83.4517822265625 201.65594482421875 83.45086669921875 201.6612243652344 83.45037841796875 201.66400146484375 " />
        <polyline stroke="black" stroke-width="3" stroke-linecap="round" fill="transparent" stroke-linejoin="round" points="107.60369873046876 104.76725769042967 116.29351806640624 101.78684997558594 125.51425170898438 99.72079467773438 143.16925048828125 98.345947265625 151.21112060546875 99.4210205078125 160.40692138671875 103.45559692382813 164.6502685546875 106.08732604980467 168.217529296875 112.10824584960938 169.43524169921875 115.19309997558594 172.29486083984375 123.228515625 174.12933349609375 129.9446258544922 175.5863037109375 147.60891723632813 173.50823974609375 163.1429443359375 171.811767578125 171.279541015625 167.03466796875 180.91036987304688 163.72833251953125 185.84814453125 156.2694091796875 191.69821166992188 152.55426025390625 194.48785400390625 152.3597412109375 194.06027221679688 " />
        <polyline stroke="black" stroke-width="3" stroke-linecap="round" fill="transparent" stroke-linejoin="round" points="113.89450073242188 142.42489624023438 114.654296875 156.7180633544922 114.82354736328124 183.07127380371097 114.21893310546876 190.32586669921875 112.1632080078125 199.51116943359375 111.8929443359375 201.9036865234375 111.873046875 202.0796813964844 " />
        <polyline stroke="black" stroke-width="3" stroke-linecap="round" fill="transparent" stroke-linejoin="round" points="105.93698120117188 160.28610229492188 115.21209716796876 159.69688415527344 134.29452514648438 158.66917419433594 149.40267944335938 158.93414306640625 154.403564453125 159.08364868164063 157.0064697265625 159.20797729492188 157.5069580078125 158.74298095703125 157.5279541015625 158.7234344482422 157.5374755859375 158.714599609375 " />
        <polyline stroke="black" stroke-width="3" stroke-linecap="round" fill="transparent" stroke-linejoin="round" points="112.8773193359375 190.87469482421875 127.43023681640624 189.47525024414065 143.7562255859375 190.4527587890625 149.8671875 191.344970703125 157.14324951171875 192.2808532714844 157.333984375 192.29122924804688 157.387451171875 192.294189453125 " />
        </svg>