<?xml version="1.0" standalone="no"?>
    <svg width="256" height="256" xmlns="http://www.w3.org/2000/svg" version="1.1">
    <polyline stroke="black" stroke-width="3" stroke-linecap="round" fill="transparent" stroke-linejoin="round" points="86.52996826171875 94.13320922851563 90.89608764648438 98.6447296142578 100.81869506835938 105.29405212402344 104.93344116210938 104.595458984375 105.43234252929688 104.4482421875 " />
        <polyline stroke="black" stroke-width="3" stroke-linecap="round" fill="transparent" stroke-linejoin="round" points="154.630859375 74.27964782714844 143.302734375 87.01551818847656 131.39794921875 101.67477416992188 129.38290405273438 104.13079833984376 " />
        <polyline stroke="black" stroke-width="3" stroke-linecap="round" fill="transparent" stroke-linejoin="round" points="90.78366088867188 119.8372039794922 101.18768310546876 115.87539672851563 113.33294677734376 112.37620544433594 126.98736572265624 109.85002136230467 149.71490478515625 107.5642547607422 163.05657958984375 106.7061767578125 167.06304931640625 105.95132446289063 169.3385009765625 105.60441589355467 169.3687744140625 105.59982299804688 " />
        <polyline stroke="black" stroke-width="3" stroke-linecap="round" fill="transparent" stroke-linejoin="round" points="124.0487060546875 68.47982788085938 115.97262573242188 110.98760986328124 110.46429443359376 132.67208862304688 104.56137084960938 154.42059326171875 92.62338256835938 188.91192626953125 85.47323608398438 219.65850830078125 85.2921142578125 220.72341918945313 " />
        <polyline stroke="black" stroke-width="3" stroke-linecap="round" fill="transparent" stroke-linejoin="round" points="133.73748779296875 152.81614685058594 158.154296875 173.25082397460938 172.2860107421875 185.3424072265625 184.17413330078125 198.37591552734375 185.9202880859375 200.8543701171875 " />
        </svg>