<?xml version="1.0" standalone="no"?>
    <svg width="256" height="256" xmlns="http://www.w3.org/2000/svg" version="1.1">
    <polyline stroke="black" stroke-width="3" stroke-linecap="round" fill="transparent" stroke-linejoin="round" points="92.00003051757813 75.00001525878906 94.66671752929688 83.80000305175781 96.80001831054688 89.40000915527344 99.46673583984376 93.40000915527344 102.4000244140625 95.26667785644533 103.73336791992188 95.00001525878906 103.73336791992188 95.00001525878906 " />
        <polyline stroke="black" stroke-width="3" stroke-linecap="round" fill="transparent" stroke-linejoin="round" points="152.800048828125 73.40000915527344 149.06671142578125 78.4666748046875 144 84.33334350585938 137.06671142578125 90.7333526611328 125.06671142578124 100.06668090820313 123.73336791992188 100.60000610351563 122.933349609375 100.86666870117188 122.933349609375 100.86666870117188 " />
        <polyline stroke="black" stroke-width="3" stroke-linecap="round" fill="transparent" stroke-linejoin="round" points="84.80001831054688 115.00001525878906 93.86672973632813 111.26667785644533 105.06671142578124 107.8000030517578 117.60003662109376 105.13336181640624 139.20001220703125 102.20001220703124 153.06671142578125 99.8000030517578 164.53338623046875 97.66667175292967 172.53338623046875 95.26667785644533 176 93.66667175292967 174.933349609375 93.13336181640624 174.933349609375 93.13336181640624 " />
        <polyline stroke="black" stroke-width="3" stroke-linecap="round" fill="transparent" stroke-linejoin="round" points="120.00003051757813 61.93333435058594 118.4000244140625 71.26667785644531 116.2667236328125 91.53335571289063 113.60003662109376 107.53335571289063 109.60003662109376 124.06668090820313 104.80001831054688 139.2666778564453 99.46673583984376 153.13336181640625 92.00003051757813 171.53335571289063 87.73336791992188 182.20001220703125 84.00003051757813 191.2666931152344 81.33334350585938 197.4000244140625 80.00003051757813 200.33334350585935 80.00003051757813 199.2666931152344 80.00003051757813 199.2666931152344 " />
        <polyline stroke="black" stroke-width="3" stroke-linecap="round" fill="transparent" stroke-linejoin="round" points="118.4000244140625 121.40000915527344 123.46673583984376 127.53335571289063 130.4000244140625 133.6666717529297 138.13336181640625 140.33335876464844 152 151.80001831054688 161.60003662109375 159.53335571289063 172 166.73336791992188 182.66668701171875 172.60000610351563 198.66668701171875 179.00001525878906 204 180.6000061035156 214.933349609375 182.73336791992188 216.00006103515625 182.73336791992188 216.00006103515625 182.73336791992188 " />
        </svg>