<?xml version="1.0" standalone="no"?>
    <svg width="256" height="256" xmlns="http://www.w3.org/2000/svg" version="1.1">
    <polyline stroke="black" stroke-width="3" stroke-linecap="round" fill="transparent" stroke-linejoin="round" points="55.791748046875 103.32330322265624 65.82891845703125 98.30471801757813 79.2117919921875 92.1708984375 93.15231323242188 84.36421203613281 108.20806884765624 76.55752563476563 117.1300048828125 70.9813232421875 122.1485595703125 67.63560485839844 123.26382446289063 65.96273803710938 121.0333251953125 67.07797241210938 115.4571533203125 73.21180725097656 103.18948364257813 89.38279724121094 88.69134521484375 113.9180908203125 76.4237060546875 137.89578247070313 67.50177001953125 156.85487365722656 61.925567626953125 171.35301208496094 59.695068359375 176.92921447753906 59.695068359375 178.60206604003906 62.483184814453125 174.69873046875 72.52035522460938 162.4310760498047 87.01849365234375 148.49057006835938 99.2861328125 140.12625122070313 107.65045166015624 139.56863403320313 112.66903686523438 144.02960205078125 116.5723876953125 163.54632568359375 112.11138916015624 183.06304931640625 104.86236572265624 194.7730712890625 94.267578125 200.90689086914065 87.57611083984375 202.57974243164065 81.99990844726563 198.67642211914065 81.99990844726563 198.67642211914065 " />
        <polyline stroke="black" stroke-width="3" stroke-linecap="round" fill="transparent" stroke-linejoin="round" points="139.434814453125 39.19695281982422 144.45339965820313 55.925567626953125 143.89578247070313 68.75083923339844 141.107666015625 81.57611083984375 135.53146362304688 92.1708984375 129.95526123046875 101.0928192138672 125.49432373046876 106.11140441894533 122.7061767578125 108.89950561523438 122.7061767578125 108.89950561523438 127.16717529296876 106.11140441894533 141.665283203125 98.30471801757813 162.2972412109375 88.26756286621094 182.92919921875 78.78800964355469 196.8697509765625 71.5389404296875 204.6763916015625 69.30845642089844 208.5797119140625 69.30845642089844 206.9068603515625 73.76942443847656 206.9068603515625 73.76942443847656 " />
        <polyline stroke="black" stroke-width="3" stroke-linecap="round" fill="transparent" stroke-linejoin="round" points="128.28240966796875 149.60580444335938 139.992431640625 145.14483642578125 153.37530517578125 141.2415008544922 168.98870849609375 135.66529846191406 185.15966796875 128.97384643554688 195.7545166015625 121.72477722167967 200.7730712890625 112.8028564453125 200.7730712890625 112.8028564453125 " />
        <polyline stroke="black" stroke-width="3" stroke-linecap="round" fill="transparent" stroke-linejoin="round" points="170.10394287109375 89.38279724121094 163.4124755859375 106.11140441894533 158.9515380859375 121.72477722167967 152.26007080078125 145.14483642578125 147.24151611328125 164.66156005859375 142.780517578125 183.06304931640625 138.319580078125 199.79165649414065 134.41622924804688 213.17453002929688 132.18572998046875 219.30838012695313 132.18572998046875 219.30838012695313 " />
        <polyline stroke="black" stroke-width="3" stroke-linecap="round" fill="transparent" stroke-linejoin="round" points="157.2786865234375 157.97010803222656 166.7581787109375 160.20059204101563 180.14111328125 164.66156005859375 195.1968994140625 170.79537963867188 209.6949462890625 178.04444885253906 221.962646484375 184.73590087890625 231.99981689453125 188.6392517089844 231.99981689453125 188.6392517089844 " />
        <polyline stroke="black" stroke-width="3" stroke-linecap="round" fill="transparent" stroke-linejoin="round" points="196.3121337890625 131.20433044433594 185.15966796875 143.47198486328125 176.23779296875 154.6243896484375 167.87347412109375 169.12252807617188 167.87347412109375 169.12252807617188 " />
        </svg>