<?xml version="1.0" standalone="no"?>
    <svg width="256" height="256" xmlns="http://www.w3.org/2000/svg" version="1.1">
    <polyline stroke="black" stroke-width="3" stroke-linecap="round" fill="transparent" stroke-linejoin="round" points="64 138 78 131 94 125 118 117 128 114 132 114 131 115 129 116 129 116 " />
        <polyline stroke="black" stroke-width="3" stroke-linecap="round" fill="transparent" stroke-linejoin="round" points="90 160 106 152 109 150 113 149 119 147 120 148 120 152 120 158 119 165 115 176 111 180 108 183 106 184 104 183 101 179 98 171 95 164 95 162 95 162 " />
        <polyline stroke="black" stroke-width="3" stroke-linecap="round" fill="transparent" stroke-linejoin="round" points="96 124 93 138 91 150 87 167 80 190 75 203 72 212 69 218 69 217 69 217 " />
        <polyline stroke="black" stroke-width="3" stroke-linecap="round" fill="transparent" stroke-linejoin="round" points="147 77 148 91 148 93 148 96 148 99 147 100 147 100 " />
        <polyline stroke="black" stroke-width="3" stroke-linecap="round" fill="transparent" stroke-linejoin="round" points="119 119 132 112 138 109 151 105 163 102 172 100 179 98 185 98 187 98 187 99 186 100 184 102 184 102 " />
        <polyline stroke="black" stroke-width="3" stroke-linecap="round" fill="transparent" stroke-linejoin="round" points="126 147 136 143 140 141 149 138 159 136 168 134 177 132 180 131 181 131 181 130 181 129 180 128 180 128 " />
        <polyline stroke="black" stroke-width="3" stroke-linecap="round" fill="transparent" stroke-linejoin="round" points="157 111 155 129 152 143 145 160 136 178 124 198 121 205 119 209 119 208 119 208 " />
        <polyline stroke="black" stroke-width="3" stroke-linecap="round" fill="transparent" stroke-linejoin="round" points="148 148 158 153 164 158 171 164 183 174 191 181 199 187 206 191 211 194 214 195 215 195 215 195 " />
        <polyline stroke="black" stroke-width="3" stroke-linecap="round" fill="transparent" stroke-linejoin="round" points="195 146 189 155 183 166 171 184 164 195 163 197 163 197 " />
        </svg>