<?xml version="1.0" standalone="no"?>
    <svg width="256" height="256" xmlns="http://www.w3.org/2000/svg" version="1.1">
    <polyline stroke="black" stroke-width="3" stroke-linecap="round" fill="transparent" stroke-linejoin="round" points="50.089202880859375 115.47996520996094 69.98309326171875 100.89111328125 76.17230224609375 96.91232299804688 82.36151123046875 93.37564086914063 95.1820068359375 85.86016845703125 101.37118530273438 82.76556396484375 116.84423828125 74.80801391601563 123.9176025390625 71.71340942382813 128.780517578125 70.38714599609375 130.54891967773438 70.82923889160156 130.10678100585938 72.59757995605469 127.01220703125 76.13427734375 122.14926147460938 80.99722290039063 116.84423828125 87.18643188476563 111.09710693359376 95.58607482910156 103.58163452148438 107.9644775390625 94.73992919921876 124.32168579101563 83.687744140625 145.98391723632813 73.519775390625 165.87779235839844 66.44638061523438 181.35079956054688 62.467620849609375 189.308349609375 61.141357421875 191.518798828125 60.69927978515625 191.518798828125 62.467620849609375 188.4241943359375 69.54098510742188 178.25621032714844 78.38275146484375 165.43569946289063 87.66650390625 153.49937438964844 96.95037841796876 143.77346801757813 105.79208374023438 136.25799560546875 112.86544799804688 131.83714294433594 118.17050170898438 129.626708984375 122.14926147460938 129.626708984375 124.8017578125 132.72134399414063 125.68597412109376 142.44720458984375 120.38095092773438 161.01483154296875 109.77084350585938 180.46664428710935 100.044921875 191.96087646484375 95.1820068359375 196.8238220214844 95.1820068359375 196.8238220214844 " />
        <polyline stroke="black" stroke-width="3" stroke-linecap="round" fill="transparent" stroke-linejoin="round" points="191.11474609375 37.67277526855469 190.672607421875 53.145782470703125 187.13592529296875 62.429595947265625 180.94671630859375 69.945068359375 168.56829833984375 78.78678894042969 164.58953857421875 80.55514526367188 156.63201904296875 83.64974975585938 154.42156982421875 83.64974975585938 153.9794921875 83.20765686035156 156.18988037109375 80.11305236816406 160.61077880859375 77.90261840820313 184.0413818359375 68.17672729492188 202.6090087890625 63.31378173828125 211.89276123046875 61.54542541503906 225.597412109375 59.334991455078125 234.88128662109375 58.892913818359375 241.95465087890625 60.6612548828125 241.95465087890625 60.6612548828125 " />
        <polyline stroke="black" stroke-width="3" stroke-linecap="round" fill="transparent" stroke-linejoin="round" points="138.94857788085938 119.90081787109376 149.55859375 117.69036865234376 155.3057861328125 116.36412048339844 161.4949951171875 115.03787231445313 179.17840576171875 111.05908203125 189.34637451171875 107.52239990234376 197.303955078125 103.9857177734375 199.9564208984375 102.65945434570313 205.70355224609375 96.02815246582033 207.91400146484375 88.07060241699219 207.02978515625 80.55514526367188 204.3773193359375 76.57635498046875 202.1668701171875 74.80801391601563 199.51434326171875 73.92384338378906 195.9776611328125 75.69218444824219 190.672607421875 82.323486328125 182.27294921875 96.91232299804688 173.87335205078125 115.47996520996094 165.915771484375 136.25799560546875 157.51617431640625 157.0360565185547 149.55859375 176.04576110839844 143.81149291992188 190.19253540039065 138.94857788085938 201.686767578125 134.96978759765625 210.52850341796875 133.64352416992188 213.1810302734375 133.64352416992188 213.1810302734375 " />
        <polyline stroke="black" stroke-width="3" stroke-linecap="round" fill="transparent" stroke-linejoin="round" points="183.5992431640625 162.78318786621094 199.072265625 174.27743530273438 205.261474609375 180.0245361328125 212.3348388671875 185.77166748046875 229.57623291015625 200.8026123046875 236.20751953125 206.9918212890625 238.86004638671875 209.64434814453125 238.86004638671875 209.64434814453125 " />
        <polyline stroke="black" stroke-width="3" stroke-linecap="round" fill="transparent" stroke-linejoin="round" points="249.4700927734375 136.70010375976563 238.41796875 146.86807250976563 227.3658447265625 159.2465057373047 215.429443359375 170.74072265625 202.1668701171875 183.56124877929688 198.1881103515625 187.09793090820313 198.1881103515625 187.09793090820313 " />
        </svg>