<?xml version="1.0" standalone="no"?>
    <svg width="256" height="256" xmlns="http://www.w3.org/2000/svg" version="1.1">
    <polyline stroke="black" stroke-width="3" stroke-linecap="round" fill="transparent" stroke-linejoin="round" points="82 127 86 137 94 149 105 164 117 178 126 191 126 192 126 192 " />
        <polyline stroke="black" stroke-width="3" stroke-linecap="round" fill="transparent" stroke-linejoin="round" points="113 143 116 132 123 122 137 114 155 106 181 100 193 100 199 106 198 115 190 135 182 150 174 165 167 175 162 183 158 184 158 184 " />
        <polyline stroke="black" stroke-width="3" stroke-linecap="round" fill="transparent" stroke-linejoin="round" points="133 155 139 156 149 162 157 170 158 175 158 175 " />
        <polyline stroke="black" stroke-width="3" stroke-linecap="round" fill="transparent" stroke-linejoin="round" points="111 217 117 210 130 203 150 197 172 195 189 197 189 197 " />
        </svg>