<?xml version="1.0" standalone="no"?>
    <svg width="256" height="256" xmlns="http://www.w3.org/2000/svg" version="1.1">
    <polyline stroke="black" stroke-width="3" stroke-linecap="round" fill="transparent" stroke-linejoin="round" points="79.90155029296875 129.13363647460938 79.90155029296875 147.72088623046875 79.90155029296875 162.5906982421875 79.488525390625 187.78677368164065 79.488525390625 200.59130859375 79.488525390625 206.3740234375 79.488525390625 205.54791259765625 79.488525390625 203.482666015625 79.488525390625 203.482666015625 " />
        <polyline stroke="black" stroke-width="3" stroke-linecap="round" fill="transparent" stroke-linejoin="round" points="81.14071655273438 98.56790161132813 86.51034545898438 88.65469360351563 95.18441772460938 79.154541015625 108.8150634765625 69.2413330078125 127.40234375 61.39338684082031 146.40264892578125 57.675933837890625 161.685546875 59.328125 174.0770263671875 65.93693542480469 184.40325927734375 80.39369201660156 191.838134765625 109.7202606201172 192.251220703125 143.59039306640625 188.1207275390625 172.09085083007813 182.3380126953125 192.330322265625 176.5552978515625 204.72183227539065 171.5987548828125 210.09149169921875 171.5987548828125 210.09149169921875 " />
        <polyline stroke="black" stroke-width="3" stroke-linecap="round" fill="transparent" stroke-linejoin="round" points="123.27182006835938 121.69871520996094 126.9892578125 125.8292236328125 137.31552124023438 143.59039306640625 139.38079833984375 151.85137939453125 139.38079833984375 151.85137939453125 " />
        <polyline stroke="black" stroke-width="3" stroke-linecap="round" fill="transparent" stroke-linejoin="round" points="92.70611572265624 194.80862426757813 110.88031005859376 194.39556884765625 132.77197265625 194.80862426757813 145.16351318359375 195.2216796875 168.2943115234375 198.52606201171875 179.8597412109375 201.8304748535156 179.8597412109375 201.8304748535156 " />
        </svg>