<?xml version="1.0" standalone="no"?>
    <svg width="256" height="256" xmlns="http://www.w3.org/2000/svg" version="1.1">
    <polyline stroke="black" stroke-width="3" stroke-linecap="round" fill="transparent" stroke-linejoin="round" points="77 70 77 93 78 124 79 141 82 182 83 200 84 208 85 209 85 209 " />
        <polyline stroke="black" stroke-width="3" stroke-linecap="round" fill="transparent" stroke-linejoin="round" points="98 59 107 57 128 51 141 48 164 48 174 48 188 58 198 76 202 101 203 132 203 164 201 189 199 206 196 215 192 217 188 217 188 217 " />
        <polyline stroke="black" stroke-width="3" stroke-linecap="round" fill="transparent" stroke-linejoin="round" points="126 116 131 121 140 133 148 145 151 151 151 151 " />
        <polyline stroke="black" stroke-width="3" stroke-linecap="round" fill="transparent" stroke-linejoin="round" points="95 208 103 208 137 208 151 208 187 214 203 220 203 220 " />
        </svg>