<?xml version="1.0" standalone="no"?>
    <svg width="256" height="256" xmlns="http://www.w3.org/2000/svg" version="1.1">
    <polyline stroke="black" stroke-width="3" stroke-linecap="round" fill="transparent" stroke-linejoin="round" points="47.5953369140625 83.31312561035156 50.0438232421875 97.39173889160156 53.1043701171875 113.3066864013672 56.1649169921875 126.77317810058594 59.22552490234375 134.73065185546875 61.06182861328125 137.7912139892578 62.898193359375 134.73065185546875 62.898193359375 134.73065185546875 " />
        <polyline stroke="black" stroke-width="3" stroke-linecap="round" fill="transparent" stroke-linejoin="round" points="54.940704345703125 99.2280731201172 72.6920166015625 83.92524719238281 87.99481201171875 74.13143920898438 113.09149169921876 62.50128173828125 136.351806640625 55.155914306640625 160.8363037109375 50.871124267578125 177.9754638671875 50.871124267578125 190.829833984375 53.93169403076172 199.39947509765625 58.82859802246094 204.29638671875 65.56184387207031 206.74481201171875 81.47679138183594 198.17523193359375 111.47035217285156 181.648193359375 135.9548797607422 181.648193359375 135.9548797607422 " />
        <polyline stroke="black" stroke-width="3" stroke-linecap="round" fill="transparent" stroke-linejoin="round" points="37.189422607421875 176.9664764404297 48.819580078125 173.29379272460938 70.85565185546875 166.560546875 101.46133422851563 157.990966796875 123.49740600585938 153.09405517578125 146.14559936523438 148.80926513671875 162.67266845703125 145.74868774414063 174.9149169921875 142.07601928710938 182.26025390625 132.89431762695313 182.26025390625 132.89431762695313 " />
        <polyline stroke="black" stroke-width="3" stroke-linecap="round" fill="transparent" stroke-linejoin="round" points="102.07342529296876 101.67652893066406 96.56442260742188 128.60952758789063 89.8311767578125 173.29379272460938 87.38272094726563 188.59661865234375 83.71002197265625 202.67523193359375 80.64947509765625 214.30538940429688 78.20101928710938 221.03863525390625 78.20101928710938 221.03863525390625 " />
        <polyline stroke="black" stroke-width="3" stroke-linecap="round" fill="transparent" stroke-linejoin="round" points="118.60049438476563 101.06442260742188 123.49740600585938 116.9793701171875 126.5579833984375 152.48194885253906 128.39431762695313 181.2512664794922 130.23065185546875 197.7783203125 132.0670166015625 211.24481201171875 133.9033203125 224.0992126464844 133.9033203125 224.0992126464844 " />
        </svg>