<?xml version="1.0" standalone="no"?>
    <svg width="256" height="256" xmlns="http://www.w3.org/2000/svg" version="1.1">
    <polyline stroke="black" stroke-width="3" stroke-linecap="round" fill="transparent" stroke-linejoin="round" points="53.20745849609375 96.16751098632813 56.880126953125 101.06442260742188 64.22552490234375 98.0038604736328 64.22552490234375 98.0038604736328 " />
        <polyline stroke="black" stroke-width="3" stroke-linecap="round" fill="transparent" stroke-linejoin="round" points="107.07342529296876 50.259010314941406 94.8311767578125 80.86468505859375 74.63143920898438 116.9793701171875 60.552825927734375 139.01544189453125 43.41363525390625 157.37884521484375 43.41363525390625 157.37884521484375 " />
        <polyline stroke="black" stroke-width="3" stroke-linecap="round" fill="transparent" stroke-linejoin="round" points="65.44973754882813 118.81570434570313 79.5283203125 121.26416015625 93.60693359375 124.32472229003906 104.01287841796876 127.99740600585938 109.52191162109376 134.11854553222656 109.52191162109376 134.11854553222656 " />
        <polyline stroke="black" stroke-width="3" stroke-linecap="round" fill="transparent" stroke-linejoin="round" points="50.14691162109375 165.33631896972656 58.1043701171875 164.11209106445313 67.898193359375 161.66363525390625 86.87371826171875 153.70616149902344 91.77059936523438 151.25772094726563 93.60693359375 151.25772094726563 87.48580932617188 157.990966796875 69.12240600585938 173.90591430664063 52.5953369140625 187.98452758789065 41.577301025390625 195.9419860839844 34.23193359375 199.61468505859375 31.78350830078125 201.45101928710935 34.84405517578125 198.39044189453125 42.801544189453125 192.26931762695313 64.83761596679688 178.19070434570313 83.20101928710938 167.17266845703125 90.54638671875 162.2757568359375 95.44329833984376 157.990966796875 96.66751098632813 153.09405517578125 95.44329833984376 146.36080932617188 92.38272094726563 140.85179138183594 88.71002197265625 138.40333557128906 81.976806640625 143.912353515625 58.71649169921875 177.57858276367188 45.86212158203125 206.34793090820313 40.35308837890625 225.32342529296875 38.516754150390625 231.444580078125 38.516754150390625 235.11724853515625 38.516754150390625 235.11724853515625 42.189422607421875 228.38400268554688 42.189422607421875 228.38400268554688 " />
        <polyline stroke="black" stroke-width="3" stroke-linecap="round" fill="transparent" stroke-linejoin="round" points="81.976806640625 194.7177734375 87.48580932617188 198.39044189453125 97.27963256835938 196.5541076660156 97.27963256835938 196.5541076660156 " />
        <polyline stroke="black" stroke-width="3" stroke-linecap="round" fill="transparent" stroke-linejoin="round" points="129.10952758789063 112.08245849609376 118.09149169921876 142.68812561035156 111.35821533203124 159.82730102539063 105.23712158203124 173.90591430664063 101.56442260742188 181.86338806152344 99.72808837890624 186.14816284179688 99.72808837890624 184.9239501953125 101.56442260742188 182.4754943847656 105.84921264648438 179.41493225097656 110.13400268554688 178.8028106689453 116.255126953125 179.41493225097656 124.82470703125 181.2512664794922 132.78219604492188 183.08761596679688 144.412353515625 181.2512664794922 144.412353515625 181.2512664794922 " />
        <polyline stroke="black" stroke-width="3" stroke-linecap="round" fill="transparent" stroke-linejoin="round" points="182.9754638671875 104.7371063232422 173.7938232421875 122.48838806152344 162.7757568359375 146.97291564941406 155.430419921875 164.11209106445313 149.30926513671875 178.19070434570313 145.02447509765625 185.53607177734375 141.96389770507813 188.59661865234375 143.1881103515625 183.69973754882813 146.86080932617188 176.9664764404297 152.36981201171875 172.06956481933594 159.7152099609375 170.2332305908203 171.3453369140625 170.8453369140625 183.587646484375 174.5180206298828 195.829833984375 179.41493225097656 203.787353515625 184.31182861328125 203.787353515625 184.31182861328125 " />
        </svg>