<?xml version="1.0" standalone="no"?>
    <svg width="256" height="256" xmlns="http://www.w3.org/2000/svg" version="1.1">
    <polyline stroke="black" stroke-width="3" stroke-linecap="round" fill="transparent" stroke-linejoin="round" points="80.234619140625 87.2210693359375 82.95022583007813 89.03144836425781 85.36410522460938 90.54013061523438 86.87274169921875 91.7470703125 88.38143920898438 92.95402526855467 89.58834838867188 93.85922241210938 90.49362182617188 94.4626922607422 91.3988037109375 95.066162109375 92.30398559570313 95.66961669921876 93.20919799804688 95.97137451171876 94.41616821289063 96.27308654785156 96.82998657226563 95.97137451171876 101.35598754882813 94.1609344482422 110.10635375976563 90.54013061523438 110.10635375976563 90.54013061523438 " />
        <polyline stroke="black" stroke-width="3" stroke-linecap="round" fill="transparent" stroke-linejoin="round" points="144.50405883789063 55.53892517089844 142.69366455078125 57.349334716796875 140.58154296875 59.763214111328125 137.86593627929688 63.98748779296875 134.54684448242188 70.32391357421875 130.926025390625 78.16903686523438 126.70175170898438 86.01411437988281 122.17575073242188 93.85922241210938 117.34796142578124 102.60951232910156 112.82196044921876 111.05809020996094 108.59765625 117.69625854492188 104.67507934570313 123.42921447753906 100.14907836914063 129.76564025878906 95.62307739257813 135.80032348632813 91.09707641601563 141.8350067138672 86.57101440429688 147.26625061035156 82.34674072265625 151.792236328125 77.82073974609375 155.7147979736328 72.38949584960938 159.3356170654297 66.65655517578125 162.65469360351563 60.923583984375 165.37030029296875 55.79412841796875 167.48243713378906 51.569854736328125 168.9911346435547 47.94903564453125 170.49977111816406 44.62994384765625 172.00848388671875 41.009124755859375 173.2154083251953 37.991790771484375 173.8188934326172 37.991790771484375 173.8188934326172 " />
        <polyline stroke="black" stroke-width="3" stroke-linecap="round" fill="transparent" stroke-linejoin="round" points="65.75137329101563 124.03265380859376 73.29470825195313 125.84307861328124 81.13983154296875 127.95523071289063 88.38143920898438 130.06736755371094 95.01959228515624 132.1794891357422 101.0543212890625 134.29164123535156 107.39071655273438 136.40377807617188 112.82196044921876 137.91246032714844 117.649658203125 139.11941528320313 121.2705078125 140.02459716796875 124.287841796875 140.62806701660156 127.30520629882813 141.23155212402344 129.7191162109375 141.8350067138672 131.52947998046875 142.1367645263672 133.03811645507813 142.4384765625 134.24508666992188 142.74020385742188 135.15029907226563 143.04196166992188 136.05548095703125 143.34368896484375 136.65899658203125 143.34368896484375 137.26242065429688 143.34368896484375 137.86593627929688 143.34368896484375 138.46939086914063 143.34368896484375 138.7711181640625 143.34368896484375 138.7711181640625 143.64540100097656 138.46939086914063 144.2489013671875 137.564208984375 145.1540985107422 137.564208984375 145.1540985107422 " />
        <polyline stroke="black" stroke-width="3" stroke-linecap="round" fill="transparent" stroke-linejoin="round" points="81.13983154296875 183.47439575195313 81.7432861328125 184.68130493164065 82.34674072265625 185.88824462890625 82.95022583007813 186.79345703125 83.25198364257813 187.39694213867188 83.5537109375 187.69866943359375 84.15716552734375 188.0003967285156 85.36410522460938 188.0003967285156 85.36410522460938 188.0003967285156 " />
        <polyline stroke="black" stroke-width="3" stroke-linecap="round" fill="transparent" stroke-linejoin="round" points="130.02081298828125 156.3182830810547 130.926025390625 157.52520751953125 131.52947998046875 158.430419921875 132.1329345703125 159.3356170654297 132.7364501953125 160.24081420898438 133.33990478515625 161.44775390625 133.64166259765625 162.95643615722656 133.33990478515625 164.766845703125 132.1329345703125 167.48243713378906 129.7191162109375 170.80154418945313 126.4000244140625 174.72409057617188 122.77920532226563 178.3448944091797 122.77920532226563 178.3448944091797 " />
        <polyline stroke="black" stroke-width="3" stroke-linecap="round" fill="transparent" stroke-linejoin="round" points="58.81146240234375 220.28598022460935 68.16522216796875 212.74261474609375 75.4068603515625 208.82009887695313 82.64846801757813 205.802734375 89.28665161132813 203.38885498046875 94.7178955078125 201.57846069335935 99.84735107421876 200.37152099609375 105.278564453125 199.16458129882813 110.70980834960938 197.9576416015625 116.14102172851563 197.05242919921875 121.2705078125 196.14724731445313 125.19305419921876 195.24203491210935 128.21038818359375 194.6385498046875 130.32257080078125 194.0350646972656 131.83120727539063 193.73333740234375 133.03811645507813 193.431640625 133.94338989257813 192.82815551757813 134.54684448242188 192.22467041015625 134.84857177734375 191.6212158203125 135.15029907226563 191.31948852539065 135.15029907226563 191.31948852539065 " />
        <polyline stroke="black" stroke-width="3" stroke-linecap="round" fill="transparent" stroke-linejoin="round" points="115.23583984375 175.02581787109375 114.33062744140624 181.36224365234375 113.4254150390625 187.69866943359375 111.916748046875 194.94027709960935 110.40805053710938 202.785400390625 108.8994140625 209.72528076171875 107.39071655273438 215.45822143554688 105.88204956054688 220.88949584960935 104.37335205078124 226.3206787109375 102.86471557617188 231.45016479492188 101.35598754882813 235.9761657714844 100.14907836914063 240.20050048828125 98.94216918945313 243.51956176757813 97.7352294921875 245.93341064453125 96.52825927734376 247.74386596679688 95.32135009765624 249.25250244140625 94.41616821289063 250.15768432617188 94.41616821289063 250.15768432617188 " />
        <polyline stroke="black" stroke-width="3" stroke-linecap="round" fill="transparent" stroke-linejoin="round" points="110.10635375976563 223.00161743164065 113.12368774414063 225.11376953125 115.53756713867188 226.92416381835935 117.649658203125 228.73455810546875 119.46011352539063 230.2432556152344 120.96878051757813 231.45016479492188 122.17575073242188 232.3553771972656 123.0809326171875 232.95883178710935 123.98611450195313 232.95883178710935 124.89129638671876 232.6571044921875 125.49478149414063 232.3553771972656 125.49478149414063 232.3553771972656 " />
        <polyline stroke="black" stroke-width="3" stroke-linecap="round" fill="transparent" stroke-linejoin="round" points="196.10064697265625 126.14479064941406 194.89373779296875 127.95523071289063 193.68682861328125 130.06736755371094 192.4798583984375 132.4812469482422 191.27288818359375 135.80032348632813 190.06597900390625 140.62806701660156 188.255615234375 147.26625061035156 186.4451904296875 153.90438842773438 184.63470458984375 161.74951171875 182.22088623046875 169.5946044921875 179.8070068359375 177.13795471191406 177.39312744140625 182.8708953857422 174.67755126953125 188.3021545410156 172.26361083984375 193.1298828125 169.84979248046875 197.05242919921875 167.73760986328125 200.37152099609375 165.92718505859375 203.087158203125 164.1168212890625 205.50100708007813 162.608154296875 207.61312866210935 161.4012451171875 208.82009887695313 161.4012451171875 208.82009887695313 " />
        <polyline stroke="black" stroke-width="3" stroke-linecap="round" fill="transparent" stroke-linejoin="round" points="184.9365234375 184.9830322265625 190.97119140625 186.79345703125 195.49725341796875 188.6038818359375 198.8162841796875 190.112548828125 201.23016357421875 191.6212158203125 203.34228515625 192.82815551757813 204.8509521484375 193.73333740234375 206.05792236328125 194.6385498046875 207.264892578125 195.24203491210935 208.1700439453125 195.54376220703125 209.0753173828125 195.54376220703125 209.67877197265625 195.24203491210935 210.2822265625 194.33685302734375 211.1873779296875 191.9229431152344 211.79083251953125 190.41427612304688 211.79083251953125 190.41427612304688 " />
        <polyline stroke="black" stroke-width="3" stroke-linecap="round" fill="transparent" stroke-linejoin="round" points="226.57586669921875 139.11941528320313 227.4810791015625 143.34368896484375 228.08453369140625 148.17144775390625 228.38629150390625 152.9991912841797 228.38629150390625 158.73216247558594 227.7828369140625 164.766845703125 226.27410888671875 171.103271484375 224.16204833984375 177.43966674804688 221.4464111328125 183.17263793945313 218.1273193359375 189.50909423828125 214.20477294921875 195.84548950195313 209.98046875 201.57846069335935 206.05792236328125 206.40621948242188 202.1353759765625 210.6304931640625 199.72149658203125 213.04437255859375 199.72149658203125 213.04437255859375 " />
        <polyline stroke="black" stroke-width="3" stroke-linecap="round" fill="transparent" stroke-linejoin="round" points="237.1365966796875 178.9483642578125 240.1539306640625 181.6639709472656 242.86956787109375 184.37960815429688 245.58514404296875 187.09518432617188 248.30078125 189.810791015625 251.016357421875 192.82815551757813 253.73199462890625 196.14724731445313 256.14581298828125 199.76803588867188 257.9561767578125 203.38885498046875 259.16326904296875 206.7079162597656 260.06842041015625 209.72528076171875 260.9736328125 212.74261474609375 260.9736328125 212.74261474609375 " />
        </svg>