<?xml version="1.0" standalone="no"?>
    <svg width="256" height="256" xmlns="http://www.w3.org/2000/svg" version="1.1">
    <polyline stroke="black" stroke-width="3" stroke-linecap="round" fill="transparent" stroke-linejoin="round" points="72.75 88.75 72.75 88.75 " />
        <polyline stroke="black" stroke-width="3" stroke-linecap="round" fill="transparent" stroke-linejoin="round" points="106.5 71.25 102.75 83.75 92.75 108.75 84 126.25 69 148.75 60.25 160 51.5 167.5 45.25 172.5 39 176.25 32.75 176.25 30.25 176.25 30.25 176.25 " />
        <polyline stroke="black" stroke-width="3" stroke-linecap="round" fill="transparent" stroke-linejoin="round" points="76.5 116.25 82.75 120 89 122.5 92.75 125 97.75 125 99 126.25 97.75 126.25 97.75 126.25 " />
        <polyline stroke="black" stroke-width="3" stroke-linecap="round" fill="transparent" stroke-linejoin="round" points="61.5 197.5 62.75 197.5 62.75 195 62.75 195 " />
        <polyline stroke="black" stroke-width="3" stroke-linecap="round" fill="transparent" stroke-linejoin="round" points="99 163.75 95.25 171.25 90.25 180 84 188.75 74 198.75 67.75 203.75 61.5 208.75 54 213.75 49 220 49 220 " />
        <polyline stroke="black" stroke-width="3" stroke-linecap="round" fill="transparent" stroke-linejoin="round" points="65.25 217.5 71.5 212.5 77.75 207.5 92.75 197.5 99 193.75 104 191.25 106.5 190 105.25 190 105.25 190 " />
        <polyline stroke="black" stroke-width="3" stroke-linecap="round" fill="transparent" stroke-linejoin="round" points="80.25 193.75 79 216.25 76.5 231.25 75.25 242.5 72.75 248.75 70.25 253.75 67.75 255 66.5 256.25 66.5 256.25 " />
        <polyline stroke="black" stroke-width="3" stroke-linecap="round" fill="transparent" stroke-linejoin="round" points="102.75 240 104 241.25 104 242.5 104 241.25 104 241.25 " />
        <polyline stroke="black" stroke-width="3" stroke-linecap="round" fill="transparent" stroke-linejoin="round" points="129 158.75 125.25 171.25 120.25 187.5 116.5 201.25 114 210 111.5 213.75 110.25 213.75 110.25 213.75 " />
        <polyline stroke="black" stroke-width="3" stroke-linecap="round" fill="transparent" stroke-linejoin="round" points="141.5 197.5 145.25 198.75 146.5 200 144 196.25 144 196.25 " />
        <polyline stroke="black" stroke-width="3" stroke-linecap="round" fill="transparent" stroke-linejoin="round" points="164 141.25 160.25 158.75 154 177.5 147.75 196.25 141.5 211.25 136.5 221.25 131.5 227.5 127.75 230 127.75 230 " />
        <polyline stroke="black" stroke-width="3" stroke-linecap="round" fill="transparent" stroke-linejoin="round" points="184 186.25 190.25 191.25 202.75 202.5 214 212.5 221.5 221.25 225.25 226.25 227.75 230 226.5 232.5 224 232.5 224 232.5 " />
        </svg>