<?xml version="1.0" standalone="no"?>
    <svg width="256" height="256" xmlns="http://www.w3.org/2000/svg" version="1.1">
    <polyline stroke="black" stroke-width="3" stroke-linecap="round" fill="transparent" stroke-linejoin="round" points="70.59490966796875 76.50779724121094 80.50119018554688 73.43417358398438 92.00775146484376 69.68626403808594 116.833740234375 62.0201416015625 126.83331298828124 59.31401062011719 145.04119873046875 56.39222717285156 150.81842041015625 56.4991455078125 157.70697021484375 57.09605407714844 157.80218505859375 57.149139404296875 157.82147216796875 57.159912109375 157.82904052734375 57.16412353515625 " />
        <polyline stroke="black" stroke-width="3" stroke-linecap="round" fill="transparent" stroke-linejoin="round" points="59.454803466796875 147.88113403320313 61.626434326171875 166.84539794921875 59.43408203125 178.08621215820313 58.48199462890625 180.07162475585938 " />
        <polyline stroke="black" stroke-width="3" stroke-linecap="round" fill="transparent" stroke-linejoin="round" points="95.7703857421875 104.8109130859375 108.76605224609376 99.69540405273438 121.15625 94.623779296875 147.75201416015625 88.20144653320313 166.92578125 88.89138793945313 176.9974365234375 90.42324829101563 185.24200439453125 95.45770263671876 184.8604736328125 97.11700439453124 183.57391357421875 99.47508239746094 182.83148193359375 104.67497253417967 182.06561279296875 109.33233642578124 178.7711181640625 123.21012878417967 175.77490234375 129.48529052734375 170.34320068359375 136.49020385742188 167.4600830078125 138.8795623779297 161.21136474609375 142.83810424804688 160.6212158203125 142.63104248046875 " />
        <polyline stroke="black" stroke-width="3" stroke-linecap="round" fill="transparent" stroke-linejoin="round" points="102.771484375 66.13978576660156 111.01852416992188 117.97500610351563 114.62948608398438 171.23736572265625 114.21981811523438 189.198974609375 109.87228393554688 222.94125366210935 109.27630615234376 219.73825073242188 " />
        </svg>