<?xml version="1.0" standalone="no"?>
    <svg width="256" height="256" xmlns="http://www.w3.org/2000/svg" version="1.1">
    <polyline stroke="black" stroke-width="3" stroke-linecap="round" fill="transparent" stroke-linejoin="round" points="97.73410034179688 70.54029846191406 102.1312255859375 68.34173583984375 124.84970092773438 58.81462097167969 142.07183837890625 52.21891784667969 145.36968994140625 51.48606872558594 145.36968994140625 51.48606872558594 " />
        <polyline stroke="black" stroke-width="3" stroke-linecap="round" fill="transparent" stroke-linejoin="round" points="94.80264282226563 108.64877319335938 120.45260620117188 91.42666625976563 147.2017822265625 76.40313720703125 169.55389404296875 66.14317321777344 188.608154296875 61.379608154296875 197.40234375 62.11247253417969 202.8988037109375 69.44102478027344 201.43310546875 94.72451782226563 193.37164306640625 118.54231262207033 185.31024169921875 135.39796447753906 177.61529541015625 147.85650634765625 167.72174072265625 151.1543426513672 164.05743408203125 147.49008178710938 164.05743408203125 147.49008178710938 " />
        <polyline stroke="black" stroke-width="3" stroke-linecap="round" fill="transparent" stroke-linejoin="round" points="125.21612548828124 104.98448181152344 124.84970092773438 153.3529052734375 126.68185424804688 191.46136474609375 126.68185424804688 216.01202392578125 126.3154296875 233.234130859375 126.3154296875 233.234130859375 " />
        <polyline stroke="black" stroke-width="3" stroke-linecap="round" fill="transparent" stroke-linejoin="round" points="94.80264282226563 175.33853149414063 105.06265258789063 173.13999938964844 105.06265258789063 173.13999938964844 " />
        </svg>