<?xml version="1.0" standalone="no"?>
    <svg width="256" height="256" xmlns="http://www.w3.org/2000/svg" version="1.1">
    <polyline stroke="black" stroke-width="3" stroke-linecap="round" fill="transparent" stroke-linejoin="round" points="73.12985229492188 71.2359619140625 96.11834716796876 60.18379211425781 118.66473388671876 52.22624206542969 141.6531982421875 46.92120361328125 162.4312744140625 43.38451385498047 178.34637451171875 41.17408752441406 186.303955078125 40.73199462890625 189.840576171875 40.73199462890625 189.840576171875 40.73199462890625 " />
        <polyline stroke="black" stroke-width="3" stroke-linecap="round" fill="transparent" stroke-linejoin="round" points="100.98129272460938 108.37120056152344 109.38095092773438 103.95034790039063 117.780517578125 99.9715576171875 134.579833984375 92.89817810058594 149.16867065429688 89.80357360839844 160.2208251953125 91.57192993164063 167.736328125 96.876953125 175.69384765625 115.0024871826172 177.904296875 126.05467224121094 177.462158203125 151.2535858154297 173.4833984375 160.53738403320313 166.4100341796875 166.28448486328125 159.77874755859375 168.93701171875 143.86361694335938 170.26327514648438 143.86361694335938 170.26327514648438 " />
        <polyline stroke="black" stroke-width="3" stroke-linecap="round" fill="transparent" stroke-linejoin="round" points="127.50643920898438 35.869049072265625 128.390625 47.805381774902344 129.71688842773438 61.9521484375 131.92733764648438 78.75141906738281 136.34814453125 114.11833190917967 141.21112060546875 148.15896606445313 144.30575561523438 183.9679412841797 141.6531982421875 199.883056640625 139.44281005859375 206.072265625 139.44281005859375 206.072265625 " />
        <polyline stroke="black" stroke-width="3" stroke-linecap="round" fill="transparent" stroke-linejoin="round" points="100.09710693359376 149.92730712890625 105.84423828125 153.02191162109375 111.59130859375 156.55859375 116.8963623046875 160.09530639648438 126.62228393554688 169.82119750976563 132.369384765625 176.01040649414063 132.369384765625 176.01040649414063 " />
        </svg>