<?xml version="1.0" standalone="no"?>
    <svg width="256" height="256" xmlns="http://www.w3.org/2000/svg" version="1.1">
    <polyline stroke="black" stroke-width="3" stroke-linecap="round" fill="transparent" stroke-linejoin="round" points="85.04379272460938 87.44972229003906 92.99420166015624 84.79959106445313 101.82797241210938 82.14945983886719 121.26229858398438 76.84918212890625 150.41375732421875 71.10723876953125 168.081298828125 67.57373046875 180.0069580078125 65.36528015136719 185.30718994140625 64.04020690917969 185.30718994140625 64.04020690917969 " />
        <polyline stroke="black" stroke-width="3" stroke-linecap="round" fill="transparent" stroke-linejoin="round" points="107.56991577148438 114.83444213867188 112.428466796875 112.18431091308594 117.728759765625 109.53416442871094 123.029052734375 107.32574462890624 135.39633178710938 104.23391723632813 148.64697265625 103.35055541992188 160.5726318359375 105.5589599609375 169.84808349609375 110.41754150390624 177.3568115234375 118.80963134765624 180.89031982421875 125.43498229980467 185.30718994140625 141.33578491210938 184.423828125 160.77008056640625 180.4486083984375 170.48724365234375 174.2650146484375 177.1125946044922 161.897705078125 182.8545379638672 161.897705078125 182.8545379638672 " />
        <polyline stroke="black" stroke-width="3" stroke-linecap="round" fill="transparent" stroke-linejoin="round" points="145.11346435546875 45.48927307128906 145.11346435546875 56.089813232421875 145.55517578125 83.91621398925781 146.43856811523438 115.27615356445313 147.76361083984375 144.86929321289063 149.53036499023438 169.60386657714844 149.9720458984375 188.59649658203125 148.64697265625 201.40548706054688 145.996826171875 208.03082275390625 144.67181396484375 209.79757690429688 144.67181396484375 209.79757690429688 " />
        <polyline stroke="black" stroke-width="3" stroke-linecap="round" fill="transparent" stroke-linejoin="round" points="102.2696533203125 143.98590087890625 111.98681640625 151.05294799804688 116.84539794921876 155.46983337402344 127.88763427734376 168.7205047607422 127.88763427734376 168.7205047607422 " />
        </svg>