<?xml version="1.0" standalone="no"?>
    <svg width="256" height="256" xmlns="http://www.w3.org/2000/svg" version="1.1">
    <polyline stroke="black" stroke-width="3" stroke-linecap="round" fill="transparent" stroke-linejoin="round" points="66.39447021484375 75.42864990234375 75.89425659179688 73.00611877441406 85.81170654296875 70.73970031738281 107.89852905273438 67.0970458984375 128.676513671875 66.22947692871094 150.12506103515625 67.95783996582031 171.37750244140625 70.65927124023438 175.41162109375 71.41366577148438 176.29901123046875 72.04582214355469 176.30706787109375 72.05155944824219 176.30780029296875 72.05210876464844 176.307861328125 72.05215454101563 " />
        <polyline stroke="black" stroke-width="3" stroke-linecap="round" fill="transparent" stroke-linejoin="round" points="58.9801025390625 138.24790954589844 65.472900390625 152.2279052734375 68.68560791015625 157.7432861328125 73.56341552734375 164.67791748046875 75.231201171875 166.65087890625 75.89730834960938 167.46176147460938 75.9412841796875 167.5153045654297 " />
        <polyline stroke="black" stroke-width="3" stroke-linecap="round" fill="transparent" stroke-linejoin="round" points="85.36215209960938 111.66098022460938 90.08349609375 109.47323608398438 96.47348022460938 106.9456024169922 120.93426513671876 101.62548828125 141.61239624023438 98.23654174804688 160.053955078125 96.48863220214844 178.5357666015625 97.31437683105467 185.074951171875 99.43240356445313 195.85125732421875 107.89404296875 198.942626953125 112.5882568359375 203.83392333984375 123.317626953125 204.7484130859375 129.13406372070313 203.82537841796875 141.57176208496094 197.930419921875 150.59219360351563 194.765625 152.90806579589844 187.7576904296875 154.8970184326172 183.9656982421875 155.37271118164063 180.22509765625 155.8277587890625 174.98846435546875 157.44265747070313 174.1353759765625 157.53829956054688 " />
        <polyline stroke="black" stroke-width="3" stroke-linecap="round" fill="transparent" stroke-linejoin="round" points="110.47454833984376 49.4691162109375 121.34234619140624 90.07034301757813 124.610595703125 114.89947509765624 127.82318115234376 165.99618530273438 130.02670288085938 189.57989501953125 133.677734375 237.6800842285156 133.864990234375 251.93865966796875 127.502197265625 268.1136474609375 126.945556640625 268.686767578125 " />
        </svg>