<?xml version="1.0" standalone="no"?>
    <svg width="256" height="256" xmlns="http://www.w3.org/2000/svg" version="1.1">
    <polyline stroke="black" stroke-width="3" stroke-linecap="round" fill="transparent" stroke-linejoin="round" points="56.737518310546875 98.67362976074219 64.45846557617188 95.42269897460938 72.17941284179688 92.17176818847656 83.15130615234375 88.51448059082031 107.9395751953125 80.38716125488281 120.53695678710938 77.13623046875 147.763427734375 71.85348510742188 172.1453857421875 68.19619750976563 188.806396484375 65.75799560546875 194.089111328125 65.35162353515625 202.21649169921875 64.13253784179688 202.21649169921875 64.13253784179688 " />
        <polyline stroke="black" stroke-width="3" stroke-linecap="round" fill="transparent" stroke-linejoin="round" points="72.585693359375 164.09849548339844 83.5576171875 160.4412078857422 94.529541015625 156.78392028808594 105.90777587890624 153.5330047607422 117.6923828125 149.87570190429688 152.2335205078125 140.1229248046875 172.9581298828125 133.2147216796875 189.2127685546875 125.90013122558594 189.2127685546875 125.90013122558594 " />
        <polyline stroke="black" stroke-width="3" stroke-linecap="round" fill="transparent" stroke-linejoin="round" points="95.34225463867188 130.77650451660156 95.34225463867188 138.09109497070313 95.34225463867188 145.4056854248047 95.34225463867188 153.5330047607422 96.56137084960938 167.34942626953125 98.18682861328124 173.44491577148438 103.46957397460938 182.38497924804688 112.40960693359376 188.8868408203125 125.413330078125 192.95050048828125 140.04248046875 191.32501220703125 156.297119140625 180.7595062255859 156.297119140625 180.7595062255859 " />
        <polyline stroke="black" stroke-width="3" stroke-linecap="round" fill="transparent" stroke-linejoin="round" points="155.4844970703125 121.83648681640625 155.89080810546875 127.52560424804688 156.297119140625 133.2147216796875 157.10986328125 139.716552734375 157.922607421875 153.1266326904297 157.922607421875 160.8475799560547 158.7353515625 182.38497924804688 158.7353515625 182.38497924804688 " />
        </svg>