<?xml version="1.0" standalone="no"?>
    <svg width="256" height="256" xmlns="http://www.w3.org/2000/svg" version="1.1">
    <polyline stroke="black" stroke-width="3" stroke-linecap="round" fill="transparent" stroke-linejoin="round" points="55.367889404296875 126.97569274902345 91.46890258789063 112.70315551757813 127.56991577148438 98.4306182861328 158.6336669921875 92.13392639160156 177.9434814453125 88.77569580078125 187.1787109375 88.35592651367188 195.154541015625 87.516357421875 195.154541015625 87.516357421875 " />
        <polyline stroke="black" stroke-width="3" stroke-linecap="round" fill="transparent" stroke-linejoin="round" points="83.07327270507813 197.07891845703125 109.93917846679688 184.90530395507813 136.80508422851563 172.731689453125 148.97869873046875 169.37344360351563 174.58526611328125 162.65696716308594 190.95672607421875 158.4591827392578 197.25341796875 156.36026000976563 198.09295654296875 155.10093688964844 198.09295654296875 155.10093688964844 " />
        <polyline stroke="black" stroke-width="3" stroke-linecap="round" fill="transparent" stroke-linejoin="round" points="102.38311767578124 146.28555297851563 103.6424560546875 168.11410522460938 104.90179443359376 189.94265747070313 105.74136352539063 203.3756103515625 107.42050170898438 210.51187133789065 109.93917846679688 213.03054809570313 109.93917846679688 213.03054809570313 " />
        <polyline stroke="black" stroke-width="3" stroke-linecap="round" fill="transparent" stroke-linejoin="round" points="149.81832885742188 103.04823303222656 146.87982177734375 129.0745849609375 143.94131469726563 155.10093688964844 143.94131469726563 173.5712432861328 144.78091430664063 182.806396484375 145.20071411132813 190.36245727539065 144.36114501953125 193.3009033203125 144.36114501953125 193.3009033203125 " />
        <polyline stroke="black" stroke-width="3" stroke-linecap="round" fill="transparent" stroke-linejoin="round" points="109.939208984375 213.03051757812494 129.66885375976563 202.5360412597656 149.39849853515625 192.04156494140625 162.41168212890625 186.58441162109375 168.28857421875 184.90530395507813 168.28857421875 184.90530395507813 " />
        </svg>