<?xml version="1.0" standalone="no"?>
    <svg width="256" height="256" xmlns="http://www.w3.org/2000/svg" version="1.1">
    <polyline stroke="black" stroke-width="3" stroke-linecap="round" fill="transparent" stroke-linejoin="round" points="46.719299316406264 149.4373779296875 70.33856201171875 140.19505310058594 93.95782470703124 130.95272827148438 116.8924560546875 124.44888305664063 127.84628295898438 121.36810302734376 148.04248046875 116.23348999023438 164.4732666015625 110.41424560546876 176.45404052734375 102.19888305664063 180.904052734375 96.03732299804688 180.904052734375 96.03732299804688 " />
        <polyline stroke="black" stroke-width="3" stroke-linecap="round" fill="transparent" stroke-linejoin="round" points="86.76931762695313 86.79504394531251 82.3193359375 103.22579956054688 77.86935424804688 119.65655517578124 72.73471069335938 138.14120483398438 62.80780029296875 175.11045837402344 58.70013427734375 189.8297119140625 52.53857421875 215.16049194335935 50.142425537109375 225.42974853515625 50.142425537109375 225.42974853515625 " />
        <polyline stroke="black" stroke-width="3" stroke-linecap="round" fill="transparent" stroke-linejoin="round" points="138.80014038085938 50.510345458984375 135.03475952148438 66.94113159179688 131.26937866210938 83.37191772460938 128.18865966796875 98.77578735351563 125.10784912109376 128.21426391601563 126.134765625 152.86044311523438 131.26937866210938 173.05661010742188 139.82708740234375 189.4873962402344 151.807861328125 200.7835693359375 159.68096923828125 205.23358154296875 178.5079345703125 210.02587890625 186.0386962890625 207.9720458984375 190.48870849609375 203.17974853515625 192.54248046875 199.41433715820313 195.623291015625 178.19122314453125 194.93865966796875 154.91429138183594 194.93865966796875 154.91429138183594 " />
        </svg>