<?xml version="1.0" standalone="no"?>
    <svg width="256" height="256" xmlns="http://www.w3.org/2000/svg" version="1.1">
    <polyline stroke="black" stroke-width="3" stroke-linecap="round" fill="transparent" stroke-linejoin="round" points="59.6876220703125 102.31124877929685 69.54583740234375 100.07072448730467 79.404052734375 97.8302001953125 89.71038818359375 95.58970642089844 126.00653076171876 87.52389526367188 137.65716552734375 85.28338623046875 158.269775390625 81.25048828125 174.40142822265625 77.66567993164063 183.8115234375 75.4251708984375 183.8115234375 75.4251708984375 " />
        <polyline stroke="black" stroke-width="3" stroke-linecap="round" fill="transparent" stroke-linejoin="round" points="121.077392578125 32.85560607910156 107.186279296875 64.22265625 93.295166015625 95.58970642089844 81.64453125 127.40487670898438 70.4420166015625 162.80484008789063 66.85723876953125 176.69595336914063 66.85723876953125 176.69595336914063 " />
        <polyline stroke="black" stroke-width="3" stroke-linecap="round" fill="transparent" stroke-linejoin="round" points="136.76092529296875 49.435333251953125 133.1761474609375 64.22265625 129.59136962890625 79.00997924804688 125.55844116210938 95.1416015625 122.42172241210938 113.06564331054688 120.18124389648438 131.4377899169922 119.73312377929688 156.08331298828125 125.55844116210938 172.21495056152344 136.3128662109375 182.9693603515625 153.788818359375 191.4832763671875 171.71282958984375 195.51617431640625 186.05206298828125 195.51617431640625 195.9102783203125 193.27569580078125 201.735595703125 190.58709716796875 204.4241943359375 188.3465881347656 204.872314453125 185.657958984375 204.872314453125 185.657958984375 " />
        </svg>