<?xml version="1.0" standalone="no"?>
    <svg width="256" height="256" xmlns="http://www.w3.org/2000/svg" version="1.1">
    <polyline stroke="black" stroke-width="3" stroke-linecap="round" fill="transparent" stroke-linejoin="round" points="45.2333984375 117.69625854492188 56.095855712890625 109.2476806640625 63.33746337890625 104.7216796875 72.0877685546875 99.8939208984375 80.83807373046875 94.76441955566406 89.28665161132813 89.63493347167969 95.9248046875 85.10891723632813 102.26123046875 80.88462829589844 107.69244384765624 77.5655517578125 111.31326293945313 75.15167236328125 114.02890014648438 73.03953552246094 115.83929443359376 71.53085327148438 117.04623413085938 70.62565612792969 117.649658203125 70.02218627929688 117.649658203125 69.720458984375 117.649658203125 69.720458984375 " />
        <polyline stroke="black" stroke-width="3" stroke-linecap="round" fill="transparent" stroke-linejoin="round" points="101.65777587890624 94.1609344482422 101.35598754882813 105.02340698242188 100.75253295898438 115.28236389160156 100.4508056640625 126.44656372070313 99.84735107421876 140.02459716796875 99.243896484375 152.093994140625 98.94216918945313 165.37030029296875 98.33871459960938 177.74142456054688 97.7352294921875 188.6038818359375 97.43350219726563 199.46633911132813 96.82998657226563 208.82009887695313 96.52825927734376 215.45822143554688 96.52825927734376 221.49295043945313 96.52825927734376 226.01898193359375 96.52825927734376 229.03628540039065 96.52825927734376 230.84671020507813 96.52825927734376 231.75192260742188 96.52825927734376 232.05364990234375 96.52825927734376 232.3553771972656 96.52825927734376 232.3553771972656 " />
        <polyline stroke="black" stroke-width="3" stroke-linecap="round" fill="transparent" stroke-linejoin="round" points="48.250762939453125 172.3101806640625 58.50970458984375 167.1807098388672 63.33746337890625 165.0685577392578 68.46694946289063 162.95643615722656 73.898193359375 160.84429931640625 79.32940673828125 159.3356170654297 83.5537109375 158.12867736816406 85.96755981445313 157.52520751953125 85.96755981445313 157.52520751953125 " />
        <polyline stroke="black" stroke-width="3" stroke-linecap="round" fill="transparent" stroke-linejoin="round" points="82.04501342773438 176.23275756835938 76.61380004882813 183.17263793945313 74.50164794921875 186.19000244140625 72.99298095703125 188.3021545410156 72.0877685546875 189.810791015625 71.48431396484375 190.71603393554688 71.18255615234375 191.31948852539065 72.0877685546875 191.01776123046875 75.10513305664063 188.90557861328125 81.4415283203125 183.47439575195313 81.4415283203125 183.47439575195313 " />
        <polyline stroke="black" stroke-width="3" stroke-linecap="round" fill="transparent" stroke-linejoin="round" points="139.67630004882813 105.02340698242188 133.03811645507813 110.75634765625 127.30520629882813 116.48931884765624 121.2705078125 123.73094177246094 115.83929443359376 131.5760498046875 111.01153564453124 138.8176727294922 107.39071655273438 144.5506134033203 105.580322265625 147.5679473876953 105.580322265625 147.5679473876953 " />
        <polyline stroke="black" stroke-width="3" stroke-linecap="round" fill="transparent" stroke-linejoin="round" points="106.78726196289063 158.12867736816406 117.34796142578124 158.73216247558594 121.87396240234376 159.3356170654297 126.4000244140625 159.9390869140625 131.83120727539063 160.84429931640625 136.35720825195313 161.74951171875 136.35720825195313 161.74951171875 " />
        <polyline stroke="black" stroke-width="3" stroke-linecap="round" fill="transparent" stroke-linejoin="round" points="123.38265991210938 82.393310546875 133.94338989257813 75.15167236328125 140.58154296875 71.83259582519531 147.52142333984375 68.51350402832031 154.7630615234375 65.49615478515625 162.00469970703125 62.78056335449219 168.944580078125 60.06494140625 175.58270263671875 57.349334716796875 181.315673828125 55.23719787597656 184.63470458984375 53.728515625 187.350341796875 52.82331085205078 189.16082763671875 52.21983337402344 190.06597900390625 51.918113708496094 190.36773681640625 51.918113708496094 190.36773681640625 52.521583557128906 189.16082763671875 54.935447692871094 185.84173583984375 59.15974426269531 180.41046142578125 66.4013671875 173.1688232421875 75.45339965820313 165.32379150390625 84.50544738769531 157.47869873046875 93.2557373046875 150.84051513671875 101.10084533691406 145.71102905273438 106.83381652832033 142.0902099609375 110.75634765625 139.97802734375 113.17022705078124 138.7711181640625 114.37716674804688 138.16763305664063 114.98063659667967 141.78848266601563 112.26502990722656 147.21969604492188 108.64421081542967 153.85784912109375 104.41990661621094 160.49603271484375 100.4973602294922 166.22894287109375 97.4800262451172 170.7550048828125 95.3678741455078 174.67755126953125 94.1609344482422 177.69488525390625 93.55747985839844 179.8070068359375 93.55747985839844 181.01397705078125 93.85922241210938 181.617431640625 95.066162109375 181.617431640625 98.08351135253906 180.1087646484375 103.51470947265624 176.4879150390625 110.45462036132813 171.05670166015625 118.60145568847656 163.51336669921875 129.76564025878906 153.85784912109375 142.4384765625 144.20233154296875 155.7147979736328 134.84857177734375 169.2928466796875 128.21038818359375 179.5518341064453 123.68438720703124 186.49172973632813 121.2705078125 190.41427612304688 120.06356811523438 192.22467041015625 120.06356811523438 192.52642822265625 120.66702270507813 192.22467041015625 124.89129638671876 188.3021545410156 135.75375366210938 178.0431671142578 149.33184814453125 164.46510314941406 168.34112548828125 147.5679473876953 185.23828125 134.5933837890625 200.324951171875 124.93788146972656 210.88568115234375 119.20492553710938 217.22210693359375 116.48931884765624 220.84295654296875 115.58412170410156 223.55853271484375 115.58412170410156 224.76544189453125 116.18757629394533 225.06719970703125 118.29971313476563 223.8602294921875 122.52401733398438 220.23944091796875 129.16213989257813 214.8082275390625 137.30899047851563 208.4718017578125 145.1540985107422 202.1353759765625 152.6974334716797 195.7989501953125 159.9390869140625 190.06597900390625 165.67205810546875 187.04864501953125 168.38763427734375 187.04864501953125 168.38763427734375 " />
        <polyline stroke="black" stroke-width="3" stroke-linecap="round" fill="transparent" stroke-linejoin="round" points="161.0994873046875 32.60710144042969 163.8150634765625 40.753936767578125 166.53070068359375 53.426788330078125 170.15155029296875 73.03953552246094 173.7723388671875 93.85922241210938 177.0914306640625 117.99797058105467 179.5052490234375 143.94715881347656 181.01397705078125 169.2928466796875 182.22088623046875 193.73333740234375 182.22088623046875 217.2686767578125 181.01397705078125 241.105712890625 180.41046142578125 265.8479309082031 180.1087646484375 285.76239013671875 179.5052490234375 302.3577880859375 179.5052490234375 302.3577880859375 " />
        </svg>