<?xml version="1.0" standalone="no"?>
    <svg width="256" height="256" xmlns="http://www.w3.org/2000/svg" version="1.1">
    <polyline stroke="black" stroke-width="3" stroke-linecap="round" fill="transparent" stroke-linejoin="round" points="47.93341064453125 114.40000915527344 84.2000732421875 99.4666748046875 95.93341064453124 97.33334350585938 101.2667236328125 97.33334350585938 102.3333740234375 98.40000915527344 102.3333740234375 98.40000915527344 " />
        <polyline stroke="black" stroke-width="3" stroke-linecap="round" fill="transparent" stroke-linejoin="round" points="82.06671142578125 104.8000030517578 84.2000732421875 128.26669311523438 85.2667236328125 141.06671142578125 89.53338623046875 178.40003967285156 89.53338623046875 197.6000061035156 88.466796875 209.33334350585935 86.3333740234375 216.80001831054688 82.06671142578125 218.933349609375 69.2667236328125 204 69.2667236328125 204 " />
        <polyline stroke="black" stroke-width="3" stroke-linecap="round" fill="transparent" stroke-linejoin="round" points="43.66668701171875 153.86668395996094 44.7333984375 175.20001220703125 44.7333984375 175.20001220703125 " />
        <polyline stroke="black" stroke-width="3" stroke-linecap="round" fill="transparent" stroke-linejoin="round" points="42.60003662109375 195.4666748046875 58.60003662109375 180.53335571289065 72.466796875 172.00001525878906 72.466796875 172.00001525878906 " />
        <polyline stroke="black" stroke-width="3" stroke-linecap="round" fill="transparent" stroke-linejoin="round" points="115.1334228515625 136.80001831054688 95.93341064453124 154.93336486816406 92.7333984375 157.06671142578125 92.7333984375 158.1333465576172 97.00006103515624 158.1333465576172 102.3333740234375 158.1333465576172 110.86669921875 159.20001220703125 118.3333740234375 160.26669311523438 123.666748046875 162.40003967285156 123.666748046875 163.4666748046875 123.666748046875 163.4666748046875 " />
        <polyline stroke="black" stroke-width="3" stroke-linecap="round" fill="transparent" stroke-linejoin="round" points="143.933349609375 69.60000610351563 146.0667724609375 89.86669921875 147.1334228515625 98.40000915527344 148.2000732421875 104.8000030517578 149.2667236328125 108.00001525878906 147.1334228515625 104.8000030517578 147.1334228515625 104.8000030517578 " />
        <polyline stroke="black" stroke-width="3" stroke-linecap="round" fill="transparent" stroke-linejoin="round" points="146.0667724609375 100.53335571289063 177 93.06668090820313 187.666748046875 89.86669921875 194.0667724609375 88.80000305175781 200.4666748046875 86.66667175292969 201.533447265625 85.60000610351563 201.533447265625 85.60000610351563 " />
        <polyline stroke="black" stroke-width="3" stroke-linecap="round" fill="transparent" stroke-linejoin="round" points="194.0667724609375 60 196.2000732421875 86.66667175292969 197.2667236328125 94.1333465576172 196.2000732421875 101.60000610351563 196.2000732421875 101.60000610351563 " />
        <polyline stroke="black" stroke-width="3" stroke-linecap="round" fill="transparent" stroke-linejoin="round" points="138.60009765625 144.26669311523438 159.933349609375 129.33334350585938 175.933349609375 119.73338317871094 186.60009765625 114.40000915527344 195.1334228515625 111.20002746582033 199.4000244140625 110.1333465576172 200.4666748046875 110.1333465576172 199.4000244140625 113.33334350585938 197.2667236328125 115.4666748046875 195.1334228515625 118.66667175292967 195.1334228515625 118.66667175292967 " />
        <polyline stroke="black" stroke-width="3" stroke-linecap="round" fill="transparent" stroke-linejoin="round" points="140.7333984375 162.40003967285156 159.933349609375 150.6666717529297 169.533447265625 145.33334350585938 181.2667236328125 141.06671142578125 198.3333740234375 137.86668395996094 204.7333984375 136.80001831054688 209 138.93336486816406 209 143.20001220703125 209 149.6000213623047 205.800048828125 158.1333465576172 201.533447265625 163.4666748046875 197.2667236328125 165.6000213623047 190.86669921875 162.40003967285156 184.466796875 153.86668395996094 184.466796875 153.86668395996094 " />
        <polyline stroke="black" stroke-width="3" stroke-linecap="round" fill="transparent" stroke-linejoin="round" points="165.2667236328125 56.800018310546875 166.3333740234375 96.26667785644533 168.466796875 133.6000213623047 171.666748046875 183.73336791992188 173.8001708984375 211.4666748046875 174.86669921875 229.6000061035156 174.86669921875 237.06671142578125 174.86669921875 240.2666931152344 174.86669921875 240.2666931152344 " />
        </svg>