<?xml version="1.0" standalone="no"?>
    <svg width="256" height="256" xmlns="http://www.w3.org/2000/svg" version="1.1">
    <polyline stroke="black" stroke-width="3" stroke-linecap="round" fill="transparent" stroke-linejoin="round" points="94 42 94 43 94 47 95 51 95 55 96 59 97 63 98 67 100 71 101 75 102 78 103 79 104 80 " />
        <polyline stroke="black" stroke-width="3" stroke-linecap="round" fill="transparent" stroke-linejoin="round" points="102 47 104 44 106 40 109 37 112 35 119 31 124 29 130 27 135 26 140 25 145 24 149 24 152 25 155 26 157 28 157 30 155 38 154 42 147 53 142 62 139 66 " />
        <polyline stroke="black" stroke-width="3" stroke-linecap="round" fill="transparent" stroke-linejoin="round" points="92 63 93 62 94 61 96 59 99 57 102 55 105 53 109 52 114 51 120 51 126 50 131 50 136 50 139 50 141 51 142 52 " />
        <polyline stroke="black" stroke-width="3" stroke-linecap="round" fill="transparent" stroke-linejoin="round" points="97 81 96 82 96 82 97 82 102 80 103 79 110 76 115 75 120 73 126 71 128 71 131 71 " />
        <polyline stroke="black" stroke-width="3" stroke-linecap="round" fill="transparent" stroke-linejoin="round" points="67 119 65 120 64 120 64 119 66 119 71 117 80 114 88 111 97 107 106 103 116 98 127 93 137 87 147 83 156 80 160 79 164 78 " />
        <polyline stroke="black" stroke-width="3" stroke-linecap="round" fill="transparent" stroke-linejoin="round" points="107 115 104 121 101 127 99 134 97 143 95 152 95 161 95 171 96 180 98 190 99 195 100 198 101 200 103 200 106 196 110 191 116 183 122 173 128 162 134 152 137 147 139 143 " />
        <polyline stroke="black" stroke-width="3" stroke-linecap="round" fill="transparent" stroke-linejoin="round" points="144 127 144 126 145 127 147 129 150 134 152 136 158 146 163 153 168 162 173 170 180 177 187 184 190 187 " />
        </svg>