<?xml version="1.0" standalone="no"?>
    <svg width="256" height="256" xmlns="http://www.w3.org/2000/svg" version="1.1">
    <polyline stroke="black" stroke-width="3" stroke-linecap="round" fill="transparent" stroke-linejoin="round" points="83.738525390625 90.49656677246094 91.18344116210938 104.40049743652344 93.60552978515624 109.26446533203124 94.5704345703125 111.71604919433594 94.651123046875 111.92112731933594 " />
        <polyline stroke="black" stroke-width="3" stroke-linecap="round" fill="transparent" stroke-linejoin="round" points="115.84628295898438 45.067344665527344 126.5894775390625 43.80572509765625 136.62680053710938 43.67417907714844 151.78485107421875 44.265899658203125 157.35467529296875 44.52049255371094 165.85394287109375 44.76952362060547 168.96453857421875 45.34226989746094 172.48236083984375 46.566184997558594 173.3087158203125 47.03050231933594 174.3831787109375 48.71452331542969 175.0037841796875 50.30970764160156 175.582275390625 56.883453369140625 174.7479248046875 62.210052490234375 167.4864501953125 78.2344970703125 153.98443603515625 91.6731414794922 142.6356201171875 100.816162109375 140.66473388671875 101.5487060546875 " />
        <polyline stroke="black" stroke-width="3" stroke-linecap="round" fill="transparent" stroke-linejoin="round" points="112.56149291992188 88.2213134765625 128.03192138671875 86.34378051757813 135.1165771484375 85.76705932617188 143.23004150390625 85.0548095703125 144.49728393554688 84.71847534179688 145.4256591796875 84.2086181640625 145.52462768554688 84.15428161621094 " />
        <polyline stroke="black" stroke-width="3" stroke-linecap="round" fill="transparent" stroke-linejoin="round" points="105.88229370117188 104.27346801757813 122.63934326171876 100.47996520996094 129.26568603515625 99.45114135742188 139.5067138671875 98.09561157226563 141.3504638671875 97.84442138671876 141.42633056640625 97.83409118652344 " />
        <polyline stroke="black" stroke-width="3" stroke-linecap="round" fill="transparent" stroke-linejoin="round" points="64.53790283203125 147.0904998779297 87.14373779296875 142.83367919921875 99.19305419921876 140.73965454101563 124.99224853515624 136.9515838623047 137.4215087890625 136.04974365234375 157.21923828125 134.66241455078125 166.8319091796875 133.82684326171875 180.80322265625 132.0422821044922 186.760498046875 131.1503143310547 194.54388427734375 130.4644012451172 196.032470703125 130.70086669921875 196.4613037109375 131.2257537841797 195.77587890625 132.07571411132813 195.45672607421875 132.47161865234375 " />
        <polyline stroke="black" stroke-width="3" stroke-linecap="round" fill="transparent" stroke-linejoin="round" points="78.56201171875 164.5164794921875 78.548583984375 174.6346435546875 78.0860595703125 185.71063232421875 76.77777099609375 208.63980102539065 76.164794921875 214.90023803710935 75.59954833984375 218.2989196777344 75.12347412109375 219.0860290527344 75.21417236328125 219.3882751464844 75.26303100585938 219.55105590820313 76.72555541992188 219.07684326171875 85.46688842773438 216.348876953125 101.041748046875 209.36553955078125 106.92962646484376 206.26739501953125 118.79684448242188 199.7738342285156 125.84124755859376 195.4888916015625 125.87191772460938 195.39654541015625 125.87921142578124 195.37469482421875 " />
        <polyline stroke="black" stroke-width="3" stroke-linecap="round" fill="transparent" stroke-linejoin="round" points="142.18881225585938 172.80413818359375 163.366943359375 203.12060546875 173.3544921875 217.84307861328125 187.2322998046875 239.11480712890625 190.09466552734375 242.75775146484375 192.04534912109375 244.41567993164065 192.23529052734375 244.5771484375 " />
        </svg>