<?xml version="1.0" standalone="no"?>
    <svg width="256" height="256" xmlns="http://www.w3.org/2000/svg" version="1.1">
    <polyline stroke="black" stroke-width="3" stroke-linecap="round" fill="transparent" stroke-linejoin="round" points="112.85205078125 89.1444091796875 122.2857666015625 87.57138061523438 137.61553955078125 84.42532348632813 143.9046630859375 83.24559020996094 149.01458740234375 81.67254638671875 149.01458740234375 81.67254638671875 " />
        <polyline stroke="black" stroke-width="3" stroke-linecap="round" fill="transparent" stroke-linejoin="round" points="137.61553955078125 72.62767028808594 138.00860595703125 91.8971710205078 138.00860595703125 97.79598999023438 137.22247314453125 106.44761657714844 135.65020751953125 109.59367370605467 132.898681640625 111.95320129394533 132.898681640625 111.95320129394533 " />
        <polyline stroke="black" stroke-width="3" stroke-linecap="round" fill="transparent" stroke-linejoin="round" points="69.22116088867188 134.7620086669922 77.08258056640625 133.18898010253906 87.30242919921875 130.4362030029297 111.27978515625 123.7508544921875 124.6441650390625 120.60482788085938 135.25711059570313 117.45877075195313 152.55224609375 113.9194793701172 158.44830322265625 113.13298034667967 163.5582275390625 111.95320129394533 163.9512939453125 111.95320129394533 163.1651611328125 112.34645080566406 163.1651611328125 112.34645080566406 " />
        <polyline stroke="black" stroke-width="3" stroke-linecap="round" fill="transparent" stroke-linejoin="round" points="117.17584228515624 151.27871704101563 129.36102294921875 147.34617614746094 144.29776000976563 142.62709045410156 149.80075073242188 141.0540771484375 158.44830322265625 139.08779907226563 160.8067626953125 139.08779907226563 161.9859619140625 139.48106384277344 161.5928955078125 140.66082763671875 159.62750244140625 142.62709045410156 151.373046875 150.88546752929688 145.08389282226563 155.21128845214844 133.291748046875 162.2898712158203 129.36102294921875 164.64939880371094 125.43032836914063 166.61569213867188 125.03726196289063 167.00892639160156 125.03726196289063 165.8291778564453 125.82339477539063 165.0426483154297 126.60955810546876 163.86289978027344 129.75408935546875 162.68312072753906 131.326416015625 162.2898712158203 134.86404418945313 162.68312072753906 137.22247314453125 163.86289978027344 141.54623413085938 167.40220642089844 143.1185302734375 169.76173400878906 145.47695922851563 173.69427490234375 146.26309204101563 175.2672882080078 147.83538818359375 177.6268310546875 148.22845458984375 178.80661010742188 148.22845458984375 179.98635864257813 148.22845458984375 179.98635864257813 " />
        </svg>