<?xml version="1.0" standalone="no"?>
    <svg width="256" height="256" xmlns="http://www.w3.org/2000/svg" version="1.1">
    <polyline stroke="black" stroke-width="3" stroke-linecap="round" fill="transparent" stroke-linejoin="round" points="109.30035400390624 68.71260070800781 118.85491943359376 64.94866943359375 126.09320068359376 62.63243103027344 132.75244140625 60.316162109375 138.25357055664063 58.868499755859375 143.17562866210938 57.999908447265625 145.78143310546875 57.71037292480469 146.07095336914063 57.42083740234375 146.07095336914063 57.42083740234375 " />
        <polyline stroke="black" stroke-width="3" stroke-linecap="round" fill="transparent" stroke-linejoin="round" points="99.74578857421876 62.63243103027344 100.03536987304688 71.02885437011719 100.32489013671876 82.32060241699219 101.19345092773438 91.87516784667967 101.77252197265624 104.03550720214844 101.19345092773438 106.64129638671876 101.19345092773438 106.64129638671876 " />
        <polyline stroke="black" stroke-width="3" stroke-linecap="round" fill="transparent" stroke-linejoin="round" points="76.58322143554688 118.80165100097656 94.82376098632813 116.19586181640624 112.1956787109375 113.300537109375 128.988525390625 110.11569213867188 143.75466918945313 106.3517608642578 155.62548828125 103.45645141601563 166.62774658203125 100.85066223144533 174.155517578125 100.56112670898438 174.155517578125 100.56112670898438 " />
        <polyline stroke="black" stroke-width="3" stroke-linecap="round" fill="transparent" stroke-linejoin="round" points="95.98184204101563 151.8083038330078 101.19345092773438 150.36065673828125 112.48519897460938 147.46533203125 126.67230224609376 143.9909210205078 137.96405029296875 141.6746826171875 147.22906494140625 139.64794921875 154.75689697265625 138.48983764648438 160.54754638671875 138.2003173828125 163.732421875 138.48983764648438 164.6009521484375 139.9375 162.86376953125 145.72813415527344 157.07318115234375 154.1245574951172 148.96624755859375 163.6791229248047 140.56982421875 172.6546173095703 133.91058349609375 179.3138427734375 128.11996459960938 185.39404296875 122.32931518554688 190.02655029296875 117.98629760742188 191.1846618652344 115.9595947265625 190.60562133789065 115.9595947265625 190.60562133789065 " />
        <polyline stroke="black" stroke-width="3" stroke-linecap="round" fill="transparent" stroke-linejoin="round" points="126.09320068359376 184.81497192382813 133.04202270507813 191.47418212890625 139.12216186523438 197.55438232421875 146.93954467773438 204.50311279296875 155.04638671875 209.1356506347656 155.04638671875 209.1356506347656 " />
        </svg>