<?xml version="1.0" standalone="no"?>
    <svg width="256" height="256" xmlns="http://www.w3.org/2000/svg" version="1.1">
    <polyline stroke="black" stroke-width="3" stroke-linecap="round" fill="transparent" stroke-linejoin="round" points="96.28533935546876 77.85841369628906 102.8544921875 76.626708984375 109.83419799804688 75.39498901367188 124.20419311523438 72.93156433105469 137.75302124023438 70.4681396484375 149.24899291992188 68.00469970703125 156.6392822265625 65.95185852050781 159.923828125 63.077850341796875 159.923828125 63.077850341796875 " />
        <polyline stroke="black" stroke-width="3" stroke-linecap="round" fill="transparent" stroke-linejoin="round" points="125.846435546875 63.077850341796875 125.02532958984376 68.82585144042969 123.79364013671876 74.5738525390625 118.86676025390624 90.175537109375 116.4033203125 95.10238647460938 106.960205078125 107.00895690917967 99.15936279296876 112.75694274902344 91.76904296875 116.8626708984375 85.61053466796875 119.32609558105467 81.50482177734375 120.55780029296876 80.2730712890625 120.96836853027344 79.04135131835938 120.96836853027344 79.451904296875 120.96836853027344 93.00079345703124 119.73666381835938 100.80160522460938 118.50494384765624 124.20419311523438 115.22036743164063 138.57415771484375 113.1675262451172 148.4278564453125 111.52523803710938 152.94415283203125 109.8829345703125 152.94415283203125 109.8829345703125 " />
        <polyline stroke="black" stroke-width="3" stroke-linecap="round" fill="transparent" stroke-linejoin="round" points="88.07391357421875 149.70834350585938 93.82196044921876 147.65548706054688 99.98046875 145.60263061523438 113.11874389648438 141.907470703125 125.846435546875 139.44406127929688 136.931884765625 138.21234130859375 145.55389404296875 137.39120483398438 151.3018798828125 137.39120483398438 154.58642578125 137.39120483398438 155.818115234375 137.80178833007813 156.22869873046875 139.0334930419922 155.4075927734375 142.72862243652344 153.76531982421875 145.60263061523438 146.78558349609375 155.45632934570313 135.70016479492188 166.9523162841797 129.54159545898438 171.87918090820313 129.54159545898438 171.87918090820313 " />
        <polyline stroke="black" stroke-width="3" stroke-linecap="round" fill="transparent" stroke-linejoin="round" points="106.13909912109376 173.1108856201172 111.47650146484376 176.39544677734375 117.635009765625 180.090576171875 137.34246826171875 194.4605712890625 149.24899291992188 204.724853515625 155.818115234375 211.29397583007813 155.818115234375 211.29397583007813 " />
        </svg>