<?xml version="1.0" standalone="no"?>
    <svg width="256" height="256" xmlns="http://www.w3.org/2000/svg" version="1.1">
    <polyline stroke="black" stroke-width="3" stroke-linecap="round" fill="transparent" stroke-linejoin="round" points="108.614013671875 67.81256103515625 117.0997314453125 65.79214477539063 125.98956298828124 63.771728515625 134.47528076171875 62.15541076660156 150.2344970703125 58.92274475097656 163.1651611328125 56.90234375 172.45904541015625 55.690086364746094 176.0958251953125 54.88191986083984 176.0958251953125 54.88191986083984 " />
        <polyline stroke="black" stroke-width="3" stroke-linecap="round" fill="transparent" stroke-linejoin="round" points="159.5284423828125 59.73091125488281 158.316162109375 71.44931030273438 151.44677734375 98.1187744140625 151.44677734375 98.1187744140625 " />
        <polyline stroke="black" stroke-width="3" stroke-linecap="round" fill="transparent" stroke-linejoin="round" points="122.352783203125 124.38412475585938 142.55694580078125 114.28204345703124 153.0631103515625 109.83714294433594 173.2672119140625 102.56365966796876 181.348876953125 100.13916015625 193.87542724609375 98.5228271484375 198.3203125 98.92692565917967 198.3203125 98.92692565917967 " />
        <polyline stroke="black" stroke-width="3" stroke-linecap="round" fill="transparent" stroke-linejoin="round" points="106.59359741210938 160.3474578857422 113.8670654296875 156.71072387695313 131.64669799804688 149.84130859375 141.34469604492188 147.0127410888672 158.72021484375 143.7800750732422 165.9937744140625 142.97190856933594 178.1162109375 143.37600708007813 185.7938232421875 145.3964080810547 189.8345947265625 147.82090759277344 191.85498046875 152.26580810546875 190.64276123046875 162.36788940429688 182.5611572265625 175.70260620117188 168.822265625 188.63323974609375 168.822265625 188.63323974609375 " />
        <polyline stroke="black" stroke-width="3" stroke-linecap="round" fill="transparent" stroke-linejoin="round" points="141.748779296875 183.3801727294922 155.487548828125 186.61285400390625 170.43865966796875 192.26998901367188 184.985595703125 201.56390380859375 192.25909423828125 209.241455078125 192.25909423828125 209.241455078125 " />
        </svg>