<?xml version="1.0" standalone="no"?>
    <svg width="256" height="256" xmlns="http://www.w3.org/2000/svg" version="1.1">
    <polyline stroke="black" stroke-width="3" stroke-linecap="round" fill="transparent" stroke-linejoin="round" points="60.84564208984375 78.78800964355469 64.19134521484375 99.4199676513672 69.767578125 121.16716003417967 74.7861328125 134.550048828125 81.47760009765625 142.3567352294922 88.72665405273438 142.91436767578125 88.72665405273438 142.91436767578125 " />
        <polyline stroke="black" stroke-width="3" stroke-linecap="round" fill="transparent" stroke-linejoin="round" points="109.91622924804688 85.47944641113281 117.165283203125 98.30471801757813 120.51101684570313 103.88093566894533 132.7786865234375 110.57237243652344 132.7786865234375 110.57237243652344 " />
        <polyline stroke="black" stroke-width="3" stroke-linecap="round" fill="transparent" stroke-linejoin="round" points="200.808349609375 63.17463684082031 195.232177734375 75.99990844726563 182.4068603515625 95.51661682128906 147.83441162109375 138.45339965820313 118.280517578125 172.46824645996094 118.280517578125 172.46824645996094 " />
        <polyline stroke="black" stroke-width="3" stroke-linecap="round" fill="transparent" stroke-linejoin="round" points="36.867950439453125 207.04071044921875 46.34747314453125 200.34927368164065 58.615142822265625 195.3306884765625 82.59283447265625 186.96636962890625 106.57049560546876 180.27493286132813 128.31768798828125 176.37158203125 146.16156005859375 174.14111328125 164.56304931640625 173.02586364746094 182.4068603515625 171.91062927246094 195.789794921875 171.35301208496094 202.481201171875 171.35301208496094 202.481201171875 171.35301208496094 " />
        </svg>