<?xml version="1.0" standalone="no"?>
    <svg width="256" height="256" xmlns="http://www.w3.org/2000/svg" version="1.1">
    <polyline stroke="black" stroke-width="3" stroke-linecap="round" fill="transparent" stroke-linejoin="round" points="65.00555419921875 95.32362365722658 68.03619384765625 99.90444946289063 71.06683349609375 104.48527526855467 76.71771240234375 112.09603881835938 78.18746948242188 114.1594696044922 78.51531982421875 114.62063598632813 " />
        <polyline stroke="black" stroke-width="3" stroke-linecap="round" fill="transparent" stroke-linejoin="round" points="108.17938232421875 95.57243347167967 111.48239135742188 95.6419677734375 114.785400390625 95.71150207519533 121.78369140625 93.66456604003906 123.85797119140624 91.95849609375 178.4639892578125 73.06399536132813 180.2037353515625 72.42955017089844 180.3951416015625 72.35977172851563 180.39697265625 72.35910034179688 180.3970947265625 72.35906982421875 180.3970947265625 72.35906982421875 179.03717041015625 77.66423034667969 161.237060546875 98.83493041992188 150.89987182617188 112.33905029296876 125.82675170898438 136.53915405273438 116.77923583984376 145.8988037109375 92.74130249023438 165.9808349609375 75.44076538085938 175.1817626953125 73.55792236328125 174.2694091796875 " />
        <polyline stroke="black" stroke-width="3" stroke-linecap="round" fill="transparent" stroke-linejoin="round" points="55.503173828124986 177.0286865234375 80.59555053710938 175.71798706054688 105.68792724609376 174.40728759765625 119.83370971679688 173.77114868164063 157.670654296875 174.50747680664063 178.00909423828125 176.51205444335938 193.49224853515625 181.25250244140625 195.47357177734375 183.6781311035156 198.653564453125 188.182373046875 199.6171875 190.58688354492188 199.71356201171875 190.82733154296875 " />
        </svg>