<?xml version="1.0" standalone="no"?>
    <svg width="256" height="256" xmlns="http://www.w3.org/2000/svg" version="1.1">
    <polyline stroke="black" stroke-width="3" stroke-linecap="round" fill="transparent" stroke-linejoin="round" points="91.92153930664063 71.21540832519531 93.57156372070313 75.8355712890625 98.1917724609375 92.33619689941406 98.52175903320313 94.64630126953124 98.1917724609375 96.62638854980467 98.1917724609375 96.62638854980467 " />
        <polyline stroke="black" stroke-width="3" stroke-linecap="round" fill="transparent" stroke-linejoin="round" points="111.39224243164063 41.84430694580078 141.09335327148438 32.933982849121094 145.383544921875 32.603965759277344 157.593994140625 36.234100341796875 164.854248046875 42.83434295654297 168.81439208984375 50.09461975097656 167.16436767578125 65.93521118164063 156.9339599609375 84.74592590332031 142.4134521484375 94.64630126953124 142.4134521484375 94.64630126953124 142.4134521484375 94.64630126953124 " />
        <polyline stroke="black" stroke-width="3" stroke-linecap="round" fill="transparent" stroke-linejoin="round" points="62.22039794921875 119.397216796875 108.09213256835938 105.20668029785156 117.00244140625 101.90655517578124 145.71353149414063 94.64630126953124 171.12451171875 90.35612487792967 186.965087890625 89.03607177734375 192.24530029296875 89.03607177734375 192.90533447265625 89.69610595703125 192.90533447265625 89.69610595703125 192.90533447265625 89.69610595703125 " />
        <polyline stroke="black" stroke-width="3" stroke-linecap="round" fill="transparent" stroke-linejoin="round" points="79.05105590820313 142.16806030273438 79.38104248046875 145.46820068359375 82.68115234375 162.62884521484375 83.67123413085938 165.5989532470703 86.31130981445313 171.8691864013672 86.97134399414063 173.51927185058594 86.97134399414063 173.51927185058594 86.97134399414063 173.51927185058594 " />
        <polyline stroke="black" stroke-width="3" stroke-linecap="round" fill="transparent" stroke-linejoin="round" points="108.42214965820313 155.69857788085938 120.962646484375 163.9488983154297 120.962646484375 163.9488983154297 120.962646484375 163.9488983154297 " />
        <polyline stroke="black" stroke-width="3" stroke-linecap="round" fill="transparent" stroke-linejoin="round" points="169.804443359375 143.15809631347656 130.20297241210938 181.1095428466797 130.20297241210938 181.1095428466797 130.20297241210938 181.1095428466797 " />
        <polyline stroke="black" stroke-width="3" stroke-linecap="round" fill="transparent" stroke-linejoin="round" points="72.12075805664063 189.02984619140625 120.30258178710938 174.1792755126953 130.532958984375 171.2091522216797 161.55413818359375 164.60891723632813 190.92529296875 162.62884521484375 212.7060546875 167.2490234375 217.65625 170.5491180419922 217.65625 170.5491180419922 " />
        </svg>