<?xml version="1.0" standalone="no"?>
    <svg width="256" height="256" xmlns="http://www.w3.org/2000/svg" version="1.1">
    <polyline stroke="black" stroke-width="3" stroke-linecap="round" fill="transparent" stroke-linejoin="round" points="82 73 82 75 82 78 82 80 83 83 83 86 84 88 84 91 85 94 85 97 86 99 86 101 87 103 87 105 87 107 88 108 88 110 88 111 88 112 88 113 88 113 89 114 89 114 89 114 " />
        <polyline stroke="black" stroke-width="3" stroke-linecap="round" fill="transparent" stroke-linejoin="round" points="90 80 91 79 92 77 93 76 95 75 97 73 99 72 101 71 103 69 106 68 108 67 111 66 114 65 117 64 120 63 123 62 126 61 129 61 132 60 135 60 138 59 140 59 143 59 145 59 147 59 149 59 151 60 153 61 154 62 156 64 157 66 158 69 159 72 159 75 159 79 159 83 158 88 156 92 154 97 152 101 149 105 146 109 143 113 140 116 " />
        <polyline stroke="black" stroke-width="3" stroke-linecap="round" fill="transparent" stroke-linejoin="round" points="59 128 60 127 61 127 62 126 63 126 64 125 65 125 67 124 69 123 71 123 74 122 76 121 79 120 82 120 85 119 89 118 92 118 96 117 100 117 104 116 108 116 112 116 116 116 120 116 124 115 129 115 133 115 137 115 142 115 146 115 150 115 155 115 159 114 163 114 167 114 170 114 174 114 177 113 180 113 182 113 185 113 187 112 189 112 190 112 192 111 193 111 194 111 195 111 195 111 196 110 196 110 196 110 " />
        <polyline stroke="black" stroke-width="3" stroke-linecap="round" fill="transparent" stroke-linejoin="round" points="79 160 79 160 79 161 79 161 80 162 80 162 81 164 81 165 82 166 83 168 84 170 85 171 86 173 87 175 88 176 89 178 90 179 91 181 92 182 93 183 94 184 95 185 96 185 97 186 98 186 99 185 100 184 " />
        <polyline stroke="black" stroke-width="3" stroke-linecap="round" fill="transparent" stroke-linejoin="round" points="100 150 100 150 100 150 101 149 101 149 101 150 102 150 102 150 103 151 104 151 105 152 106 152 107 153 108 154 109 155 111 156 112 157 113 158 114 159 116 160 117 161 119 161 121 162 123 162 125 161 127 161 129 160 " />
        <polyline stroke="black" stroke-width="3" stroke-linecap="round" fill="transparent" stroke-linejoin="round" points="151 141 151 141 152 141 152 141 152 141 152 142 151 144 151 145 150 147 149 150 147 152 145 155 143 158 141 161 138 164 135 167 132 170 129 174 126 177 123 181 120 185 117 188 114 191 111 194 108 197 106 200 103 202 100 204 97 205 95 206 92 207 90 208 87 209 85 209 83 210 81 210 80 210 78 210 77 210 76 210 75 210 75 210 74 210 74 210 74 210 74 210 75 210 75 210 76 210 78 210 79 210 81 210 84 210 87 210 90 210 93 210 97 210 101 210 106 211 111 211 115 211 120 212 125 212 131 213 136 213 141 213 146 214 151 214 156 213 161 213 165 213 169 212 173 212 177 212 180 211 183 211 186 211 188 210 190 210 191 210 193 210 194 211 195 211 196 212 197 214 " />
        </svg>