<?xml version="1.0" standalone="no"?>
    <svg width="256" height="256" xmlns="http://www.w3.org/2000/svg" version="1.1">
    <polyline stroke="black" stroke-width="3" stroke-linecap="round" fill="transparent" stroke-linejoin="round" points="80 74 79 80 79 82 79 85 79 88 79 91 79 93 79 96 79 98 79 100 80 102 80 104 80 105 81 106 82 108 83 109 " />
        <polyline stroke="black" stroke-width="3" stroke-linecap="round" fill="transparent" stroke-linejoin="round" points="106 55 108 54 114 52 117 51 120 50 127 49 133 47 140 46 143 45 146 45 154 44 156 44 158 44 159 44 162 44 163 44 164 45 165 46 165 47 166 49 166 51 166 55 166 59 164 65 163 67 162 71 160 74 158 77 155 81 153 84 150 87 147 91 144 94 140 97 137 100 " />
        <polyline stroke="black" stroke-width="3" stroke-linecap="round" fill="transparent" stroke-linejoin="round" points="40 117 41 116 42 116 44 116 45 116 47 115 51 115 54 114 57 114 63 113 67 113 71 112 75 112 79 111 84 111 89 110 94 110 105 109 111 108 117 108 123 107 129 106 135 106 140 105 146 105 156 103 160 103 164 102 171 101 175 100 177 100 182 99 184 99 186 98 187 98 188 98 189 98 189 97 189 97 189 98 189 98 " />
        <polyline stroke="black" stroke-width="3" stroke-linecap="round" fill="transparent" stroke-linejoin="round" points="65 145 66 147 66 148 67 150 67 151 68 154 70 157 71 158 71 160 73 162 75 165 76 166 77 166 78 167 79 168 " />
        <polyline stroke="black" stroke-width="3" stroke-linecap="round" fill="transparent" stroke-linejoin="round" points="97 143 97 144 97 145 98 146 99 147 99 148 100 149 101 150 102 151 103 152 104 153 106 154 107 155 109 156 110 157 114 159 116 159 118 160 121 160 123 160 " />
        <polyline stroke="black" stroke-width="3" stroke-linecap="round" fill="transparent" stroke-linejoin="round" points="165 135 163 138 161 140 159 143 156 146 146 157 142 161 138 164 134 168 " />
        <polyline stroke="black" stroke-width="3" stroke-linecap="round" fill="transparent" stroke-linejoin="round" points="52 198 56 197 58 197 61 197 67 197 74 197 82 196 87 196 91 196 96 196 101 196 106 196 112 196 118 196 123 197 129 197 135 197 141 197 147 197 153 198 159 198 165 198 170 198 176 198 181 198 186 198 191 197 195 197 203 197 206 197 211 196 213 196 215 196 217 196 218 196 219 196 " />
        </svg>