<?xml version="1.0" standalone="no"?>
    <svg width="256" height="256" xmlns="http://www.w3.org/2000/svg" version="1.1">
    <polyline stroke="black" stroke-width="3" stroke-linecap="round" fill="transparent" stroke-linejoin="round" points="118.27987670898438 67.45314025878906 105.1796875 90.69534301757813 100.10870361328124 100.83738708496094 91.234375 116.89561462402344 83.20526123046875 130.84092712402344 77.2890625 140.56039428710938 73.90841674804688 145.63140869140625 71.79550170898438 148.58950805664063 70.95028686523438 149.0120849609375 71.37289428710938 147.74432373046875 76.86651611328125 142.67332458496094 88.27630615234375 133.79904174804688 101.79904174804688 123.656982421875 116.58953857421876 114.78269958496094 130.9573974609375 107.59873962402344 143.63494873046875 102.95030212402344 152.93182373046875 100.83738708496094 159.2706298828125 100.41477966308594 163.07391357421875 100.83738708496094 165.18682861328125 102.95030212402344 166.031982421875 110.13424682617188 164.3416748046875 120.27629089355467 157.15771484375 134.2216033935547 145.32528686523438 149.43467712402344 138.141357421875 157.04119873046875 138.141357421875 157.04119873046875 " />
        <polyline stroke="black" stroke-width="3" stroke-linecap="round" fill="transparent" stroke-linejoin="round" points="109.40557861328124 157.4637908935547 122.08309936523438 159.15414428710938 127.99932861328124 161.26705932617188 134.76068115234375 163.80258178710938 152.086669921875 173.09945678710938 171.10302734375 188.31253051757813 179.13214111328125 196.76422119140625 179.13214111328125 196.76422119140625 " />
        </svg>