<?xml version="1.0" standalone="no"?>
    <svg width="256" height="256" xmlns="http://www.w3.org/2000/svg" version="1.1">
    <polyline stroke="black" stroke-width="3" stroke-linecap="round" fill="transparent" stroke-linejoin="round" points="99.2872314453125 56.17066955566406 96.43359375 89.400146484375 93.72845458984376 100.52873229980467 86.50302124023438 123.15072631835938 82.38348388671875 133.16864013671875 73.45184326171875 151.52401733398438 66.2469482421875 164.05955505371094 64.46908569335938 168.0688934326172 64.303466796875 168.44235229492188 " />
        <polyline stroke="black" stroke-width="3" stroke-linecap="round" fill="transparent" stroke-linejoin="round" points="88.92050170898438 89.62698364257813 106.335693359375 80.02548217773438 114.88705444335938 77.65205383300781 123.41180419921876 75.31265258789063 131.72039794921875 73.04637145996094 144.28256225585938 70.49293518066406 151.8138427734375 70.18798828125 154.2484130859375 70.5296630859375 156.82635498046875 71.1041259765625 157.8018798828125 71.66162109375 159.174072265625 73.23583984375 165.641845703125 85.4703369140625 169.338134765625 107.96836853027344 168.5936279296875 120.23983764648438 161.12939453125 146.26797485351563 148.19161987304688 172.003173828125 141.50595092773438 183.04820251464844 130.147216796875 191.46258544921875 124.74029541015624 193.95339965820313 119.52996826171876 195.4580078125 120.0286865234375 193.50128173828125 " />
        <polyline stroke="black" stroke-width="3" stroke-linecap="round" fill="transparent" stroke-linejoin="round" points="100.22967529296876 180.1003875732422 121.19830322265624 187.36029052734375 129.42282104492188 190.60546875 137.91229248046875 194.44467163085935 152.950439453125 202.50634765625 159.36053466796875 205.97088623046875 162.29168701171875 210.20333862304688 162.27093505859375 210.4112548828125 " />
        </svg>