<?xml version="1.0" standalone="no"?>
    <svg width="256" height="256" xmlns="http://www.w3.org/2000/svg" version="1.1">
    <polyline stroke="black" stroke-width="3" stroke-linecap="round" fill="transparent" stroke-linejoin="round" points="105 124 117 119 129 114 141 111 149 109 153 108 152 108 151 108 151 108 " />
        <polyline stroke="black" stroke-width="3" stroke-linecap="round" fill="transparent" stroke-linejoin="round" points="137 102 131 116 131 123 131 130 130 140 128 141 128 141 " />
        <polyline stroke="black" stroke-width="3" stroke-linecap="round" fill="transparent" stroke-linejoin="round" points="81 163 97 157 111 153 126 148 150 142 163 140 172 139 176 139 176 139 176 139 " />
        <polyline stroke="black" stroke-width="3" stroke-linecap="round" fill="transparent" stroke-linejoin="round" points="92 189 103 185 108 184 125 177 140 172 153 169 162 167 166 166 167 166 167 167 166 171 162 178 151 190 141 199 135 203 134 203 134 203 " />
        <polyline stroke="black" stroke-width="3" stroke-linecap="round" fill="transparent" stroke-linejoin="round" points="120 195 137 198 146 202 154 208 162 213 168 218 171 222 171 223 171 223 " />
        </svg>