<?xml version="1.0" standalone="no"?>
    <svg width="256" height="256" xmlns="http://www.w3.org/2000/svg" version="1.1">
    <polyline stroke="black" stroke-width="3" stroke-linecap="round" fill="transparent" stroke-linejoin="round" points="83.77264404296871 70.55401611328125 94.30206298828124 68.41465759277344 104.83148193359376 66.27529907226563 125.37545776367188 61.41064453125 142.79953002929688 57.71147155761719 150.44784545898438 56.841827392578125 156.6776123046875 56.30340576171875 163.5386962890625 55.65782165527344 164.8826904296875 55.50860595703125 165.01318359375 55.49413299560547 165.02215576171875 55.493133544921875 165.0262451171875 55.49269104003906 " />
        <polyline stroke="black" stroke-width="3" stroke-linecap="round" fill="transparent" stroke-linejoin="round" points="123.51721191406253 45.167114257812486 122.70379638671876 54.62947845458984 121.890380859375 64.09184265136719 120.34848022460938 73.03202819824219 115.17022705078124 90.80686950683594 111.51495361328124 98.01643371582033 103.93902587890624 109.8165283203125 104.01898193359376 108.5188446044922 " />
        <polyline stroke="black" stroke-width="3" stroke-linecap="round" fill="transparent" stroke-linejoin="round" points="56.50299072265625 115.71812438964844 72.993896484375 110.99021911621094 89.48480224609375 106.26231384277344 99.08172607421876 104.64178466796876 118.04794311523438 104.81936645507813 126.76950073242188 105.84231567382813 142.16842651367188 107.7518310546875 158.74609375 106.32878112792967 172.5673828125 103.31060791015624 178.444580078125 102.14938354492188 183.8199462890625 100.84072875976563 184.236572265625 100.61521911621094 184.2548828125 100.31414794921876 184.25653076171875 100.28752136230467 184.25732421875 100.27386474609376 184.2578125 100.2661590576172 184.2581787109375 100.2615203857422 " />
        <polyline stroke="black" stroke-width="3" stroke-linecap="round" fill="transparent" stroke-linejoin="round" points="68.8602294921875 152.11402893066406 77.349365234375 150.80010986328125 85.8385009765625 149.48619079589844 106.33163452148438 148.6450653076172 116.94171142578124 148.32565307617188 134.836181640625 146.66787719726563 151.359619140625 143.1522216796875 159.3553466796875 141.49371337890625 172.81658935546875 139.28030395507813 179.21307373046875 139.0092010498047 183.802001953125 139.2761688232422 184.0010986328125 139.563720703125 184.04376220703125 139.62530517578125 184.0487060546875 139.6324920654297 184.05169677734375 139.63677978515625 180.55810546875 142.55908203125 175.69580078125 147.65841674804688 163.50115966796875 161.02337646484375 157.872314453125 167.2898406982422 147.6600341796875 178.001220703125 144.38787841796875 180.92784118652344 136.78460693359375 185.77557373046875 133.33309936523438 187.60671997070313 133.61309814453125 187.079833984375 " />
        <polyline stroke="black" stroke-width="3" stroke-linecap="round" fill="transparent" stroke-linejoin="round" points="119.04724121093753 196.01379394531244 125.05706787109376 199.3836975097656 131.06689453125 202.75360107421875 142.71160888671875 209.34893798828125 147.45468139648438 212.76727294921875 148.28961181640625 215.7496337890625 148.33163452148438 215.99176025390625 " />
        </svg>