<?xml version="1.0" standalone="no"?>
    <svg width="256" height="256" xmlns="http://www.w3.org/2000/svg" version="1.1">
    <polyline stroke="black" stroke-width="3" stroke-linecap="round" fill="transparent" stroke-linejoin="round" points="74.10086059570313 93.98626708984376 85.32125854492188 87.38601684570313 90.27145385742188 84.74592590332031 115.35238647460938 74.18551635742188 119.97259521484376 72.865478515625 132.84304809570313 68.5753173828125 143.73345947265625 65.60520935058594 148.68365478515625 63.29512023925781 148.68365478515625 63.29512023925781 " />
        <polyline stroke="black" stroke-width="3" stroke-linecap="round" fill="transparent" stroke-linejoin="round" points="127.89291381835938 54.05477142333984 129.212890625 69.56533813476563 128.222900390625 75.17556762695313 119.31256103515624 101.2465362548828 116.012451171875 105.86669921875 102.81195068359376 116.75711059570313 87.96139526367188 124.347412109375 76.0809326171875 128.6375732421875 68.16061401367188 131.93768310546875 64.86053466796875 133.2577362060547 63.8704833984375 134.2477569580078 66.840576171875 134.2477569580078 81.0311279296875 131.60769653320313 96.87173461914063 127.64753723144533 114.36236572265624 121.70730590820313 132.18304443359375 116.42709350585938 149.013671875 111.8069305419922 162.54412841796875 109.49684143066406 168.81439208984375 109.16682434082033 168.81439208984375 109.16682434082033 " />
        <polyline stroke="black" stroke-width="3" stroke-linecap="round" fill="transparent" stroke-linejoin="round" points="68.8206787109375 164.2789306640625 85.32125854492188 160.64877319335938 114.36236572265624 152.72845458984375 134.8231201171875 150.08836364746094 137.13323974609375 150.08836364746094 142.0833740234375 150.74838256835938 144.7235107421875 152.72845458984375 144.0634765625 158.9987030029297 133.83309936523438 174.1792755126953 119.31256103515624 189.6898498535156 119.31256103515624 189.6898498535156 119.31256103515624 189.6898498535156 " />
        <polyline stroke="black" stroke-width="3" stroke-linecap="round" fill="transparent" stroke-linejoin="round" points="75.4208984375 182.4296112060547 93.2415771484375 180.7795257568359 99.51181030273438 181.1095428466797 126.24282836914063 188.36978149414065 131.52301025390625 190.34988403320313 145.71353149414063 198.27017211914065 155.6138916015625 204.5404052734375 155.6138916015625 204.5404052734375 155.6138916015625 204.5404052734375 " />
        </svg>