<?xml version="1.0" standalone="no"?>
    <svg width="256" height="256" xmlns="http://www.w3.org/2000/svg" version="1.1">
    <polyline stroke="black" stroke-width="3" stroke-linecap="round" fill="transparent" stroke-linejoin="round" points="81.32879638671875 38.43157958984375 76.71469116210938 58.73374938964844 74.4075927734375 68.88484191894531 69.33206176757813 93.8011474609375 63.333709716796875 119.64031982421876 53.644012451171875 147.78652954101563 49.491302490234375 155.16912841796875 49.491302490234375 155.16912841796875 " />
        <polyline stroke="black" stroke-width="3" stroke-linecap="round" fill="transparent" stroke-linejoin="round" points="69.33206176757813 94.26255798339844 97.939697265625 85.0343017578125 105.32229614257813 82.26583862304688 113.62774658203124 79.49736022949219 141.31253051757813 73.03756713867188 155.61639404296875 71.6533203125 165.3060302734375 71.6533203125 171.76580810546875 77.65168762207031 173.61151123046875 93.8011474609375 169.920166015625 117.33322143554688 160.23046875 147.32508850097656 148.69515991210938 169.47293090820313 137.15982055664063 195.77349853515625 128.39297485351563 209.61590576171875 121.01034545898438 216.53707885742188 113.16632080078124 219.7669677734375 105.78372192382813 216.53707885742188 96.55548095703124 201.7718505859375 92.8641357421875 192.08218383789065 92.8641357421875 192.08218383789065 " />
        <polyline stroke="black" stroke-width="3" stroke-linecap="round" fill="transparent" stroke-linejoin="round" points="110.8592529296875 92.41691589355467 106.70657348632813 109.95062255859376 99.78533935546876 128.8685760498047 92.4027099609375 147.78652954101563 77.17611694335938 173.1642303466797 59.64239501953125 192.5435791015625 49.029876708984375 202.6947021484375 43.954315185546875 205.46316528320313 43.954315185546875 205.46316528320313 " />
        <polyline stroke="black" stroke-width="3" stroke-linecap="round" fill="transparent" stroke-linejoin="round" points="55.489654541015625 125.63868713378906 78.09893798828125 130.71420288085938 86.86578369140625 134.40553283691406 107.62933349609376 150.09356689453125 129.3157958984375 161.62892150878906 150.07940673828125 175.00990295410156 172.22723388671875 186.54522705078125 186.069580078125 195.31207275390625 194.37506103515625 199.00338745117188 199.91204833984375 201.3104248046875 199.91204833984375 201.3104248046875 " />
        </svg>