<?xml version="1.0" standalone="no"?>
    <svg width="256" height="256" xmlns="http://www.w3.org/2000/svg" version="1.1">
    <polyline stroke="black" stroke-width="3" stroke-linecap="round" fill="transparent" stroke-linejoin="round" points="93.45498657226563 44.14530944824219 84.32003784179688 63.024200439453125 74.57611083984375 77.03111267089844 64.8321533203125 91.64703369140624 57.524200439453125 101.39097595214844 53.8702392578125 106.8719482421875 53.8702392578125 107.48094177246094 59.960205078125 102.60897827148438 76.403076171875 87.99305725097656 102.58993530273438 69.11416625976563 129.99478149414063 56.32524108886719 157.39959716796875 51.453269958496094 175.66949462890625 54.49824523925781 188.45843505859375 61.80621337890625 198.202392578125 75.81312561035156 203.683349609375 105.65394592285156 195.15740966796875 148.8927001953125 179.323486328125 185.4324951171875 164.09857177734375 207.3563537597656 153.13665771484375 218.31829833984375 138.520751953125 226.2352600097656 125.7318115234375 225.01724243164065 112.94287109375 206.74737548828125 112.94287109375 206.74737548828125 " />
        <polyline stroke="black" stroke-width="3" stroke-linecap="round" fill="transparent" stroke-linejoin="round" points="122.07781982421876 99.56399536132813 120.2508544921875 117.22488403320313 107.4619140625 145.2387237548828 91.62799072265624 170.20758056640625 78.2301025390625 186.04147338867188 65.441162109375 196.3944091796875 65.441162109375 196.3944091796875 " />
        <polyline stroke="black" stroke-width="3" stroke-linecap="round" fill="transparent" stroke-linejoin="round" points="83.7110595703125 127.57781982421876 93.45498657226563 131.2318115234375 109.28887939453124 137.32176208496094 136.08474731445313 149.50169372558594 159.8355712890625 160.46363830566406 177.4964599609375 170.8165740966797 193.93939208984375 186.6504821777344 193.93939208984375 186.6504821777344 " />
        </svg>