<?xml version="1.0" standalone="no"?>
    <svg width="256" height="256" xmlns="http://www.w3.org/2000/svg" version="1.1">
    <polyline stroke="black" stroke-width="3" stroke-linecap="round" fill="transparent" stroke-linejoin="round" points="71.4677734375 69.23452758789063 68.4072265625 84.537353515625 66.57086181640625 91.27059936523438 64.73452758789063 96.16751098632813 62.898193359375 99.2280731201172 62.898193359375 101.06442260742188 64.73452758789063 99.84019470214844 70.2435302734375 95.55540466308594 84.3221435546875 85.14947509765625 105.13400268554688 72.90721130371094 126.5579833984375 62.50128173828125 144.92138671875 57.6043701171875 157.7757568359375 59.440704345703125 167.569580078125 64.94973754882813 178.587646484375 85.76158142089844 180.4239501953125 129.2216339111328 173.07861328125 167.17266845703125 162.67266845703125 195.9419860839844 151.65460205078125 214.91751098632813 141.86080932617188 224.7113037109375 127.78219604492188 232.66879272460935 113.09149169921876 233.28091430664065 105.74612426757813 227.1597595214844 99.01287841796876 190.4329833984375 99.01287841796876 190.4329833984375 " />
        <polyline stroke="black" stroke-width="3" stroke-linecap="round" fill="transparent" stroke-linejoin="round" points="113.70361328125 93.71905517578124 110.03091430664063 102.9007568359375 102.07342529296876 123.71261596679688 87.38272094726563 151.25772094726563 77.58892822265625 166.560546875 65.958740234375 178.19070434570313 56.1649169921875 185.53607177734375 56.1649169921875 185.53607177734375 " />
        <polyline stroke="black" stroke-width="3" stroke-linecap="round" fill="transparent" stroke-linejoin="round" points="46.371124267578125 132.28219604492188 62.898193359375 132.89431762695313 83.71002197265625 137.17910766601563 119.82470703125 145.13658142089844 143.08502197265625 151.8698272705078 165.12109375 161.66363525390625 181.03607177734375 174.5180206298828 181.03607177734375 174.5180206298828 " />
        </svg>