<?xml version="1.0" standalone="no"?>
    <svg width="256" height="256" xmlns="http://www.w3.org/2000/svg" version="1.1">
    <polyline stroke="black" stroke-width="3" stroke-linecap="round" fill="transparent" stroke-linejoin="round" points="98.41693115234376 35.619361877441406 90.49996948242188 50.23527526855469 77.7110595703125 74.59513854980469 69.18511962890625 91.0380401611328 61.87713623046875 106.26295471191406 57.00518798828125 116.61589050292967 54.569183349609375 122.09686279296876 54.569183349609375 123.31484985351563 60.0501708984375 119.0518798828125 70.403076171875 107.48094177246094 87.45498657226563 90.42904663085938 113.641845703125 69.11416625976563 153.8355712890625 36.22835540771485 178.804443359375 24.048431396484375 200.11932373046875 21.003448486328125 213.5172119140625 26.484413146972656 222.043212890625 39.88233947753906 223.26123046875 75.81312561035156 213.5172119140625 114.78889465332033 197.683349609375 151.93768310546875 184.8944091796875 176.9065399169922 173.323486328125 197.6124267578125 166.62451171875 207.3563537597656 161.1435546875 214.05532836914065 156.2716064453125 217.70928955078125 150.79061889648438 217.70928955078125 142.8736572265625 211.0103454589844 125.2127685546875 187.86846923828125 125.2127685546875 187.86846923828125 " />
        <polyline stroke="black" stroke-width="3" stroke-linecap="round" fill="transparent" stroke-linejoin="round" points="142.26467895507813 76.422119140625 143.482666015625 95.91000366210938 133.12973022460938 116.00689697265624 120.3408203125 140.3667449951172 108.160888671875 158.02764892578125 95.98095703125 172.03456115722656 80.14703369140625 186.6504821777344 80.14703369140625 186.6504821777344 " />
        <polyline stroke="black" stroke-width="3" stroke-linecap="round" fill="transparent" stroke-linejoin="round" points="93.54495239257813 108.08993530273438 106.94287109375 113.57090759277344 118.5137939453125 119.0518798828125 136.78369140625 127.57781982421876 161.1435546875 139.1487579345703 179.4134521484375 148.28370666503906 196.46533203125 156.20065307617188 210.4722900390625 167.77159118652344 210.4722900390625 167.77159118652344 " />
        </svg>