<?xml version="1.0" standalone="no"?>
    <svg width="256" height="256" xmlns="http://www.w3.org/2000/svg" version="1.1">
    <polyline stroke="black" stroke-width="3" stroke-linecap="round" fill="transparent" stroke-linejoin="round" points="68.14947509765625 91.27059936523438 78.555419921875 88.21003723144531 90.79766845703124 85.14947509765625 109.16107177734376 80.86468505859375 132.42138671875 76.57987976074219 149.560546875 74.13143920898438 162.4149169921875 72.29508972167969 170.9844970703125 71.07086181640625 176.4935302734375 71.07086181640625 178.9420166015625 71.07086181640625 178.9420166015625 71.07086181640625 " />
        <polyline stroke="black" stroke-width="3" stroke-linecap="round" fill="transparent" stroke-linejoin="round" points="88.34921264648438 123.10049438476563 82.8402099609375 135.3427734375 80.3917236328125 150.0334930419922 79.77963256835938 167.78477478027344 81.00384521484375 184.31182861328125 82.8402099609375 192.88140869140625 85.28863525390625 197.16622924804688 87.73712158203125 194.7177734375 87.73712158203125 194.7177734375 " />
        <polyline stroke="black" stroke-width="3" stroke-linecap="round" fill="transparent" stroke-linejoin="round" points="91.4097900390625 137.7912139892578 106.10049438476563 123.10049438476563 118.3427734375 114.53091430664063 134.25772094726563 105.96133422851563 151.39691162109375 101.06442260742188 167.31182861328125 99.2280731201172 180.7783203125 102.28865051269533 189.347900390625 108.40977478027344 194.85693359375 117.59147644042967 196.6932373046875 132.28219604492188 193.6326904296875 148.1971435546875 185.0631103515625 164.72421264648438 173.4329833984375 178.19070434570313 173.4329833984375 178.19070434570313 " />
        <polyline stroke="black" stroke-width="3" stroke-linecap="round" fill="transparent" stroke-linejoin="round" points="88.34921264648438 161.05152893066406 109.773193359375 155.54251098632813 124.46389770507813 151.25772094726563 139.15460205078125 146.97291564941406 153.8453369140625 142.07601928710938 164.25128173828125 136.56700134277344 170.3724365234375 130.44586181640625 175.269287109375 121.26416015625 175.269287109375 121.26416015625 " />
        <polyline stroke="black" stroke-width="3" stroke-linecap="round" fill="transparent" stroke-linejoin="round" points="144.66363525390625 94.3311767578125 144.66363525390625 106.5734405517578 145.2757568359375 114.53091430664063 145.88787841796875 126.77317810058594 145.2757568359375 140.85179138183594 144.051513671875 152.48194885253906 142.2152099609375 161.66363525390625 139.15460205078125 169.62110900878906 134.86981201171875 175.74224853515625 129.36080932617188 181.2512664794922 123.851806640625 185.53607177734375 117.73065185546876 189.208740234375 110.99740600585938 192.26931762695313 105.4884033203125 194.10565185546875 101.81570434570313 194.7177734375 99.36724853515624 194.7177734375 99.36724853515624 194.7177734375 103.0399169921875 193.4935302734375 114.0579833984375 191.65719604492188 134.25772094726563 189.208740234375 153.23321533203125 186.76028442382813 165.4754638671875 186.14816284179688 174.0450439453125 185.53607177734375 181.39044189453125 185.53607177734375 181.39044189453125 185.53607177734375 " />
        </svg>