<?xml version="1.0" standalone="no"?>
    <svg width="256" height="256" xmlns="http://www.w3.org/2000/svg" version="1.1">
    <polyline stroke="black" stroke-width="3" stroke-linecap="round" fill="transparent" stroke-linejoin="round" points="119.14401245117188 64.85090637207031 125.358642578125 67.95819091796875 127.90097045898438 69.65309143066406 130.44326782226563 71.63044738769531 132.98562622070313 73.60783386230469 134.96304321289063 75.30271911621094 136.0928955078125 76.43264770507813 137.22283935546875 77.56256103515625 138.07028198242188 78.41000366210938 138.63525390625 79.2574462890625 138.91775512695313 80.10490417480469 139.48272705078125 80.95234680175781 139.76519775390625 82.08226013183594 140.33013916015625 84.05964660644531 140.89511108398438 88.01437377929688 140.89511108398438 94.51144409179688 140.89511108398438 103.55085754394533 140.6126708984375 114.28512573242188 140.33013916015625 127.279296875 140.04766845703125 138.86102294921875 139.20022583007813 151.00770568847656 138.07028198242188 162.0244903564453 136.65789794921875 170.7814178466797 135.52792358398438 178.12594604492188 134.11557006835938 184.90548706054688 132.70315551757813 190.83758544921875 131.57321166992188 195.6397705078125 130.16082763671875 199.87701416015625 128.74844360351563 204.11419677734375 127.61849975585938 208.3514404296875 126.77102661132813 212.023681640625 125.923583984375 214.8485107421875 125.358642578125 217.10836791992188 124.79367065429688 218.80325317382813 124.22869873046876 219.93313598632813 123.94622802734376 220.4981384277344 123.66378784179688 221.0631103515625 123.38128662109376 221.3455810546875 123.0987548828125 221.3455810546875 122.81631469726563 221.3455810546875 122.2513427734375 221.3455810546875 121.40390014648438 221.0631103515625 119.99151611328124 220.4981384277344 116.88421630859376 218.520751953125 111.23458862304688 214.0010681152344 101.34774780273438 204.96163940429688 87.78860473632813 190.27264404296875 87.78860473632813 190.27264404296875 " />
        </svg>