<?xml version="1.0" standalone="no"?>
    <svg width="256" height="256" xmlns="http://www.w3.org/2000/svg" version="1.1">
    <polyline stroke="black" stroke-width="3" stroke-linecap="round" fill="transparent" stroke-linejoin="round" points="57.881744384765625 81.21856689453125 69.09524536132813 75.90690612792969 83.849853515625 69.41488647460938 105.68670654296876 62.33265686035156 123.982421875 58.20137023925781 141.68795776367188 57.02099609375 155.26220703125 57.61119079589844 162.93463134765625 59.381744384765625 167.6561279296875 61.74247741699219 168.24627685546875 65.87376403808594 164.114990234375 74.72654724121094 151.7210693359375 88.30079650878906 133.42538452148438 102.46522521972656 117.49038696289063 113.08854675292967 117.49038696289063 113.08854675292967 " />
        <polyline stroke="black" stroke-width="3" stroke-linecap="round" fill="transparent" stroke-linejoin="round" points="88.57135009765625 101.87503051757813 103.32595825195313 100.10447692871094 115.129638671875 102.46522521972656 127.52352905273438 107.18670654296876 141.68795776367188 114.2689208984375 151.7210693359375 122.531494140625 158.213134765625 131.38427734375 158.213134765625 136.10574340820313 158.213134765625 136.10574340820313 " />
        <polyline stroke="black" stroke-width="3" stroke-linecap="round" fill="transparent" stroke-linejoin="round" points="78.5382080078125 154.40147399902344 80.89892578125 173.8775634765625 83.25967407226563 185.6812744140625 86.21060180664063 198.07513427734375 87.3909912109375 205.1573486328125 87.3909912109375 208.69845581054688 86.21060180664063 204.56716918945313 84.4400634765625 192.76348876953125 83.25967407226563 178.5990447998047 83.849853515625 170.33645629882813 86.80078125 165.02479553222656 93.88299560546876 161.4836883544922 108.63763427734376 157.9425811767578 125.75299072265624 154.40147399902344 144.0487060546875 151.45054626464844 158.8033447265625 149.67999267578125 169.4266357421875 150.2701873779297 175.918701171875 152.04074096679688 179.45977783203125 154.9916534423828 180.04998779296875 159.713134765625 175.3284912109375 169.74627685546875 162.34442138671875 183.91070556640625 134.60574340820313 199.845703125 134.60574340820313 199.845703125 " />
        <polyline stroke="black" stroke-width="3" stroke-linecap="round" fill="transparent" stroke-linejoin="round" points="88.57135009765625 198.07513427734375 100.37503051757813 194.53402709960935 115.129638671875 190.992919921875 129.88427734375 188.0419921875 144.0487060546875 185.6812744140625 153.49163818359375 183.91070556640625 161.1640625 183.91070556640625 161.1640625 183.91070556640625 " />
        </svg>