<?xml version="1.0" standalone="no"?>
    <svg width="256" height="256" xmlns="http://www.w3.org/2000/svg" version="1.1">
    <polyline stroke="black" stroke-width="3" stroke-linecap="round" fill="transparent" stroke-linejoin="round" points="62.517669677734375 83.47451782226563 78.41845703125 76.84918212890625 85.4854736328125 74.6407470703125 92.552490234375 71.99061584472656 100.06121826171876 69.78216552734375 116.4036865234375 65.80696105957031 130.09603881835938 64.04020690917969 140.69662475585938 64.04020690917969 147.76361083984375 65.80696105957031 151.297119140625 68.45709228515625 153.06390380859375 75.08242797851563 148.64697265625 90.98324584960938 136.72137451171875 109.53416442871094 129.65438842773438 117.92626953125 129.65438842773438 117.92626953125 " />
        <polyline stroke="black" stroke-width="3" stroke-linecap="round" fill="transparent" stroke-linejoin="round" points="86.810546875 119.69302368164063 104.47811889648438 116.15951538085938 111.54510498046876 116.15951538085938 118.61215209960938 116.6011962890625 132.74618530273438 118.80963134765624 151.297119140625 124.9932861328125 155.71405029296875 127.64341735839844 155.71405029296875 127.64341735839844 " />
        <polyline stroke="black" stroke-width="3" stroke-linecap="round" fill="transparent" stroke-linejoin="round" points="96.96942138671876 157.236572265625 92.552490234375 172.25401306152344 91.2274169921875 178.43765258789063 90.34405517578124 185.06298828125 89.01898193359375 190.804931640625 87.252197265625 199.197021484375 86.36883544921875 204.05560302734375 85.4854736328125 204.497314453125 85.92718505859375 203.1722412109375 89.01898193359375 197.4302978515625 96.52767944335938 186.3880615234375 108.45330810546876 170.92893981933594 121.70394897460938 157.6782684326172 135.8380126953125 146.63604736328125 149.53036499023438 139.12734985351563 161.45599365234375 135.59381103515625 170.7314453125 135.1521453857422 176.473388671875 137.36058044433594 179.565185546875 142.66085815429688 176.473388671875 162.53684997558594 162.33935546875 184.17962646484375 153.06390380859375 194.7801513671875 153.06390380859375 194.7801513671875 " />
        <polyline stroke="black" stroke-width="3" stroke-linecap="round" fill="transparent" stroke-linejoin="round" points="85.04379272460938 203.61392211914065 107.12823486328124 187.27142333984375 116.4036865234375 181.97116088867188 124.7957763671875 177.55429077148438 132.74618530273438 174.020751953125 148.205322265625 169.16217041015625 168.9647216796875 168.27880859375 168.9647216796875 168.27880859375 " />
        </svg>