<?xml version="1.0" standalone="no"?>
    <svg width="256" height="256" xmlns="http://www.w3.org/2000/svg" version="1.1">
    <polyline stroke="black" stroke-width="3" stroke-linecap="round" fill="transparent" stroke-linejoin="round" points="85.93389892578125 71.49349975585938 93.72860717773438 68.6590576171875 101.5233154296875 65.82461547851563 109.67233276367188 62.99017333984375 118.17562866210938 60.864349365234375 133.41073608398438 57.3212890625 145.81146240234375 55.904075622558594 153.2518310546875 55.904075622558594 158.21209716796875 57.3212890625 158.56640625 58.0299072265625 154.31475830078125 70.78489685058594 142.6226806640625 86.72860717773438 134.82797241210938 96.64913940429688 134.82797241210938 96.64913940429688 " />
        <polyline stroke="black" stroke-width="3" stroke-linecap="round" fill="transparent" stroke-linejoin="round" points="113.56967163085938 98.42065429687503 119.59286499023438 100.1921844482422 125.61605834960938 101.96371459960938 131.284912109375 103.73526000976563 147.58294677734375 109.04983520507813 154.31475830078125 115.78160095214844 156.44061279296875 118.61605834960938 156.44061279296875 118.61605834960938 " />
        <polyline stroke="black" stroke-width="3" stroke-linecap="round" fill="transparent" stroke-linejoin="round" points="90.53982543945313 162.54986572265625 90.185546875 168.92735290527344 89.83126831054688 175.30484008789063 88.768310546875 193.3743896484375 88.05975341796875 200.8148193359375 88.05975341796875 200.8148193359375 " />
        <polyline stroke="black" stroke-width="3" stroke-linecap="round" fill="transparent" stroke-linejoin="round" points="103.29486083984375 153.6922607421875 110.38095092773438 149.79489135742188 117.467041015625 145.89752197265625 124.90744018554688 142.7087860107422 131.9935302734375 139.87432861328125 139.78826904296875 137.74851989746094 156.0863037109375 134.9140625 170.967041015625 134.55975341796875 181.9505615234375 135.97698974609375 188.3280029296875 137.03990173339844 191.87109375 138.45712280273438 193.28826904296875 142.35447692871094 187.9737548828125 155.4637451171875 173.44720458984375 173.8876190185547 156.44061279296875 190.1856384277344 156.44061279296875 190.1856384277344 " />
        <polyline stroke="black" stroke-width="3" stroke-linecap="round" fill="transparent" stroke-linejoin="round" points="97.6259765625 197.9803466796875 106.837890625 193.3743896484375 116.0498046875 188.7684326171875 124.90744018554688 185.22537231445313 133.05645751953125 182.39093017578125 147.58294677734375 178.13926696777344 154.6690673828125 177.4306640625 173.801513671875 177.7849578857422 173.801513671875 177.7849578857422 " />
        </svg>