<?xml version="1.0" standalone="no"?>
    <svg width="256" height="256" xmlns="http://www.w3.org/2000/svg" version="1.1">
    <polyline stroke="black" stroke-width="3" stroke-linecap="round" fill="transparent" stroke-linejoin="round" points="82 53 84 53 86 53 88 53 90 53 91 53 94 53 96 53 100 52 104 51 107 49 109 47 113 47 117 45 120 44 123 43 127 43 128 42 133 40 140 39 143 39 146 37 150 35 152 35 154 35 154 34 155 34 156 34 156 33 156 33 157 33 158 33 158 34 158 35 158 37 155 42 149 51 145 58 138 68 133 75 132 78 131 81 128 83 128 84 127 86 127 88 126 88 125 90 125 91 124 91 124 92 124 92 124 92 " />
        <polyline stroke="black" stroke-width="3" stroke-linecap="round" fill="transparent" stroke-linejoin="round" points="98 77 98 80 98 83 101 89 103 91 108 97 112 100 115 102 118 105 120 106 120 107 122 107 122 108 123 108 124 110 126 111 127 112 130 114 131 115 132 116 133 116 133 117 134 118 135 118 135 118 " />
        <polyline stroke="black" stroke-width="3" stroke-linecap="round" fill="transparent" stroke-linejoin="round" points="96 119 96 120 96 121 95 122 95 127 95 130 95 136 96 140 96 145 96 151 96 155 97 164 97 174 97 178 97 180 97 182 97 183 97 183 97 184 97 184 " />
        <polyline stroke="black" stroke-width="3" stroke-linecap="round" fill="transparent" stroke-linejoin="round" points="95 130 97 129 99 128 101 127 104 127 108 126 111 125 113 124 116 124 120 124 126 124 129 123 133 123 139 123 144 123 147 123 149 123 150 123 152 123 154 123 156 123 160 123 164 123 165 123 168 124 169 125 170 126 171 126 172 126 172 127 173 127 174 127 175 130 175 133 176 135 176 142 173 156 172 163 167 176 164 183 163 185 161 187 160 187 160 187 " />
        <polyline stroke="black" stroke-width="3" stroke-linecap="round" fill="transparent" stroke-linejoin="round" points="90 183 95 183 100 183 105 183 108 183 116 183 124 183 129 183 136 183 138 183 141 182 144 182 144 181 146 181 148 181 149 180 151 179 152 179 152 179 153 179 154 179 156 179 156 179 157 179 158 179 159 179 160 179 160 179 161 179 161 179 " />
        </svg>