<?xml version="1.0" standalone="no"?>
    <svg width="256" height="256" xmlns="http://www.w3.org/2000/svg" version="1.1">
    <polyline stroke="black" stroke-width="3" stroke-linecap="round" fill="transparent" stroke-linejoin="round" points="58.26531982421875 88.014892578125 71.17718505859375 80.17555236816406 78.55538940429688 76.94758605957031 85.47247314453125 73.71961975097656 93.311767578125 70.95278930664063 108.990478515625 65.88027954101563 118.21322631835938 63.5745849609375 120.98007202148438 63.5745849609375 120.98007202148438 65.88027954101563 120.98007202148438 65.88027954101563 " />
        <polyline stroke="black" stroke-width="3" stroke-linecap="round" fill="transparent" stroke-linejoin="round" points="55.037322998046875 125.82821655273438 66.56576538085938 122.60025024414063 79.93881225585938 118.4499969482422 86.39471435546875 116.60546875 98.845458984375 113.838623046875 102.99569702148438 113.3774871826172 104.84027099609376 113.3774871826172 104.84027099609376 113.3774871826172 " />
        <polyline stroke="black" stroke-width="3" stroke-linecap="round" fill="transparent" stroke-linejoin="round" points="58.26531982421875 152.57421875 72.09945678710938 150.7296600341797 79.47763061523438 148.88511657714844 86.85589599609375 146.57940673828125 101.61227416992188 138.2789306640625 101.61227416992188 138.2789306640625 " />
        <polyline stroke="black" stroke-width="3" stroke-linecap="round" fill="transparent" stroke-linejoin="round" points="93.311767578125 40.97882080078125 91.006103515625 68.18595886230469 90.54498291015624 84.32579040527344 90.08383178710938 102.31016540527344 90.08383178710938 157.646728515625 89.62274169921875 196.38232421875 89.62274169921875 211.59988403320313 90.08383178710938 215.28900146484375 90.08383178710938 215.28900146484375 " />
        <polyline stroke="black" stroke-width="3" stroke-linecap="round" fill="transparent" stroke-linejoin="round" points="136.65878295898438 35.445159912109375 137.119873046875 47.89588928222656 134.814208984375 57.11865234375 131.12509155273438 67.26368713378906 120.5189208984375 89.3983154296875 109.45162963867188 109.22723388671876 106.684814453125 114.29977416992188 106.2236328125 114.76089477539063 112.67962646484376 111.53292846679688 129.74169921875 103.23245239257813 151.8763427734375 94.00968933105467 175.3944091796875 87.09262084960938 196.14556884765625 82.9423828125 203.5238037109375 81.5589599609375 209.979736328125 81.09782409667969 209.979736328125 81.09782409667969 " />
        <polyline stroke="black" stroke-width="3" stroke-linecap="round" fill="transparent" stroke-linejoin="round" points="136.65878295898438 134.58984375 132.96966552734375 149.34625244140625 132.96966552734375 156.72447204589844 133.4307861328125 163.18038940429688 137.5810546875 176.09225463867188 145.88153076171875 180.24249267578125 160.17681884765625 180.24249267578125 175.3944091796875 174.70884704589844 190.1507568359375 164.1026611328125 197.9901123046875 153.49649047851563 197.9901123046875 153.49649047851563 " />
        <polyline stroke="black" stroke-width="3" stroke-linecap="round" fill="transparent" stroke-linejoin="round" points="207.67401123046875 116.14431762695313 204.9072265625 135.05096435546875 204.446044921875 141.04576110839844 200.29583740234375 155.80218505859375 200.29583740234375 155.80218505859375 " />
        <polyline stroke="black" stroke-width="3" stroke-linecap="round" fill="transparent" stroke-linejoin="round" points="157.87109375 113.838623046875 156.48773193359375 141.04576110839844 155.5654296875 156.2633056640625 154.1820068359375 171.9420166015625 151.8763427734375 187.1595764160156 145.42037963867188 216.67242431640625 136.19760131835938 245.72409057617188 136.19760131835938 245.72409057617188 " />
        </svg>