<?xml version="1.0" standalone="no"?>
    <svg width="256" height="256" xmlns="http://www.w3.org/2000/svg" version="1.1">
    <polyline stroke="black" stroke-width="3" stroke-linecap="round" fill="transparent" stroke-linejoin="round" points="40.293548583984375 109.63354492187497 63.476409912109375 108.38262939453124 86.65927124023438 107.1317138671875 97.76693725585938 105.95245361328124 104.82904052734376 104.73454284667967 113.00738525390624 101.19688415527344 115.7354736328125 99.15704345703124 115.80987548828124 96.12548828125 115.07598876953124 95.66778564453124 " />
        <polyline stroke="black" stroke-width="3" stroke-linecap="round" fill="transparent" stroke-linejoin="round" points="71.04595947265625 130.1551513671875 87.53988647460938 123.99571228027344 104.0338134765625 117.83627319335938 107.89093017578124 116.6839599609375 108.17742919921876 116.59835815429688 108.24606323242188 116.57786560058594 " />
        <polyline stroke="black" stroke-width="3" stroke-linecap="round" fill="transparent" stroke-linejoin="round" points="42.403228759765625 179.58657836914063 69.525634765625 164.42840576171875 96.64804077148438 149.27023315429688 108.57550048828124 143.69322204589844 118.95465087890624 139.0533447265625 132.45346069335938 134.96971130371094 139.87802124023438 133.26492309570313 138.13998413085938 134.39508056640625 " />
        <polyline stroke="black" stroke-width="3" stroke-linecap="round" fill="transparent" stroke-linejoin="round" points="78.83828735351563 24.001556396484375 81.59912109375 43.76838684082031 84.35995483398438 63.53521728515625 88.16778564453125 114.300537109375 88.97103881835938 139.36526489257813 87.35580444335938 191.22711181640625 85.77255249023438 209.4696044921875 84.18988037109375 229.799560546875 85.04119873046875 232.58282470703125 85.1263427734375 232.8612060546875 " />
        <polyline stroke="black" stroke-width="3" stroke-linecap="round" fill="transparent" stroke-linejoin="round" points="123.99560546874999 48.669464111328125 123.04891967773438 61.57487487792969 122.10223388671876 74.48028564453125 116.77035522460938 101.97845458984376 112.148681640625 115.29209899902344 109.489990234375 123.92033386230467 109.241943359375 124.67037963867188 " />
        <polyline stroke="black" stroke-width="3" stroke-linecap="round" fill="transparent" stroke-linejoin="round" points="131.79058837890625 82.11370849609375 156.0482177734375 71.28746032714844 180.30584716796875 60.461212158203125 191.7432861328125 56.52235412597656 204.989013671875 53.05358123779297 207.7716064453125 52.57518768310547 209.5531005859375 52.794189453125 209.584716796875 52.79808044433594 " />
        <polyline stroke="black" stroke-width="3" stroke-linecap="round" fill="transparent" stroke-linejoin="round" points="118.0911865234375 123.08323669433597 117.37890625 126.5564422607422 116.6666259765625 130.02964782714844 116.70263671875 131.021240234375 117.2352294921875 132.3184814453125 118.06219482421876 132.98851013183594 122.96533203125 134.8568572998047 129.2010498046875 135.72189331054688 149.098388671875 134.8669891357422 159.59149169921875 133.27684020996094 179.8497314453125 128.23277282714844 189.09765625 125.44694519042967 202.697021484375 119.0156707763672 204.58941650390625 115.2728271484375 203.6353759765625 114.80169677734376 " />
        <polyline stroke="black" stroke-width="3" stroke-linecap="round" fill="transparent" stroke-linejoin="round" points="208.2513427734375 104.30650329589844 209.6553955078125 117.91954040527344 211.0594482421875 131.53257751464844 211.42340087890625 135.20144653320313 " />
        <polyline stroke="black" stroke-width="3" stroke-linecap="round" fill="transparent" stroke-linejoin="round" points="158.8538818359375 52.35612487792969 161.215576171875 106.85899353027344 163.5772705078125 161.3618621826172 155.8878173828125 219.08526611328125 146.459228515625 241.4998779296875 135.39242553710938 256.3792419433594 134.01937866210938 252.546142578125 " />
        </svg>