<?xml version="1.0" standalone="no"?>
    <svg width="256" height="256" xmlns="http://www.w3.org/2000/svg" version="1.1">
    <polyline stroke="black" stroke-width="3" stroke-linecap="round" fill="transparent" stroke-linejoin="round" points="80.89422607421875 74.35273742675781 90.57470703125 70.48052978515625 102.836669921875 65.96296691894531 119.61614990234376 62.09077453613281 137.04107666015625 58.86395263671875 151.88446044921875 58.86395263671875 165.4371337890625 60.800048828125 173.826904296875 64.6722412109375 179.63525390625 70.48052978515625 183.5074462890625 87.90542602539063 181.5712890625 113.72006225585938 175.11767578125 138.88934326171875 168.01861572265625 158.89569091796875 161.56494140625 171.80300903320313 157.04742431640625 179.5474090576172 150.59375 186.0010681152344 143.49472045898438 189.2279052734375 137.04107666015625 189.2279052734375 130.58740234375 183.41961669921875 130.58740234375 183.41961669921875 " />
        <polyline stroke="black" stroke-width="3" stroke-linecap="round" fill="transparent" stroke-linejoin="round" points="124.77911376953124 93.06834411621094 115.74395751953124 113.07469177246094 104.12738037109376 136.30787658691406 93.801513671875 153.08738708496094 84.12103271484375 165.34934997558594 76.37664794921875 172.44837951660156 69.9229736328125 176.32057189941406 69.9229736328125 176.32057189941406 " />
        <polyline stroke="black" stroke-width="3" stroke-linecap="round" fill="transparent" stroke-linejoin="round" points="73.14981079101563 108.55712890625 87.99322509765625 111.13859558105467 107.99957275390624 116.30152893066406 129.9420166015625 123.40055847167967 149.9483642578125 130.4995880126953 168.01861572265625 136.9532470703125 183.5074462890625 142.1161651611328 195.7694091796875 145.98837280273438 202.868408203125 148.56982421875 209.9674072265625 151.1512908935547 209.9674072265625 151.1512908935547 " />
        </svg>