<?xml version="1.0" standalone="no"?>
    <svg width="256" height="256" xmlns="http://www.w3.org/2000/svg" version="1.1">
    <polyline stroke="black" stroke-width="3" stroke-linecap="round" fill="transparent" stroke-linejoin="round" points="116.40216064453124 67.40130615234375 116.40216064453124 74.91677856445313 113.74960327148438 94.36856079101563 108.00250244140624 121.3358154296875 92.9715576171875 165.54446411132813 83.687744140625 183.2279052734375 79.26690673828125 190.74337768554688 70.4251708984375 204.0059814453125 68.65682983398438 205.7742919921875 68.65682983398438 205.7742919921875 " />
        <polyline stroke="black" stroke-width="3" stroke-linecap="round" fill="transparent" stroke-linejoin="round" points="85.45611572265625 91.27395629882813 92.52947998046876 89.505615234375 100.487060546875 88.62144470214844 117.7283935546875 86.85308837890625 136.73812866210938 86.85308837890625 154.42156982421875 88.62144470214844 167.2420654296875 90.38978576660156 175.19964599609375 93.04229736328124 180.94671630859375 96.13690185546876 182.715087890625 97.90525817871094 188.462158203125 108.9573974609375 190.2305908203125 120.0095672607422 188.0201416015625 135.4825897216797 181.38885498046875 151.39768981933594 177.4100341796875 158.0289764404297 177.4100341796875 158.0289764404297 " />
        <polyline stroke="black" stroke-width="3" stroke-linecap="round" fill="transparent" stroke-linejoin="round" points="154.8636474609375 116.47288513183594 158.8424072265625 116.47288513183594 162.82122802734375 116.47288513183594 166.79998779296875 116.47288513183594 173.4312744140625 116.91496276855467 175.6417236328125 116.91496276855467 179.17840576171875 116.91496276855467 179.17840576171875 116.91496276855467 " />
        <polyline stroke="black" stroke-width="3" stroke-linecap="round" fill="transparent" stroke-linejoin="round" points="142.92733764648438 162.00775146484375 149.55859375 161.565673828125 158.8424072265625 163.77610778808594 158.8424072265625 163.77610778808594 " />
        </svg>