<?xml version="1.0" standalone="no"?>
    <svg width="256" height="256" xmlns="http://www.w3.org/2000/svg" version="1.1">
    <polyline stroke="black" stroke-width="3" stroke-linecap="round" fill="transparent" stroke-linejoin="round" points="118.95339965820313 49.79174041748047 112.261962890625 78.23039245605469 105.01287841796876 106.11140441894533 95.5333251953125 133.434814453125 88.28427124023438 154.0667724609375 78.24710083007813 175.81396484375 69.3251953125 190.3121032714844 62.63372802734375 197.5611572265625 55.3846435546875 199.79165649414065 55.3846435546875 199.79165649414065 " />
        <polyline stroke="black" stroke-width="3" stroke-linecap="round" fill="transparent" stroke-linejoin="round" points="73.7861328125 84.92182922363281 82.15045166015625 82.13372802734375 96.0909423828125 78.78800964355469 115.607666015625 74.88465881347656 133.4515380859375 72.0965576171875 148.50726318359375 69.86607360839844 159.10205078125 69.86607360839844 165.79351806640625 71.5389404296875 171.3697509765625 74.88465881347656 174.7154541015625 81.01849365234375 176.3883056640625 92.1708984375 174.7154541015625 107.78427124023438 168.02398681640625 126.1857452392578 157.42919921875 144.58721923828125 157.42919921875 144.58721923828125 " />
        <polyline stroke="black" stroke-width="3" stroke-linecap="round" fill="transparent" stroke-linejoin="round" points="137.9124755859375 125.0705108642578 145.71917724609375 122.28240966796876 155.75634765625 119.49430847167967 164.12066650390625 117.26382446289063 170.2545166015625 116.14857482910156 174.1578369140625 116.14857482910156 174.1578369140625 117.82144165039063 174.1578369140625 117.82144165039063 " />
        <polyline stroke="black" stroke-width="3" stroke-linecap="round" fill="transparent" stroke-linejoin="round" points="126.20245361328124 152.95152282714844 135.1243896484375 151.27867126464844 143.48870849609375 150.16342163085938 151.29541015625 149.04818725585938 158.54443359375 147.93295288085938 164.67828369140625 146.8177032470703 168.02398681640625 146.8177032470703 168.02398681640625 146.8177032470703 " />
        </svg>