<?xml version="1.0" standalone="no"?>
    <svg width="256" height="256" xmlns="http://www.w3.org/2000/svg" version="1.1">
    <polyline stroke="black" stroke-width="3" stroke-linecap="round" fill="transparent" stroke-linejoin="round" points="71.7315673828125 91.43031311035156 83.07162475585938 86.09381103515625 90.40936279296876 83.09202575683594 105.418212890625 78.08905029296875 120.76068115234376 73.75314331054688 128.09835815429688 71.751953125 143.10726928710938 68.08311462402344 155.44793701171875 65.74839782714844 163.7862548828125 66.74899291992188 169.1226806640625 70.75137329101563 173.79217529296875 80.42378234863281 174.792724609375 97.76739501953124 169.789794921875 117.11221313476563 160.450927734375 136.12347412109375 160.450927734375 136.12347412109375 " />
        <polyline stroke="black" stroke-width="3" stroke-linecap="round" fill="transparent" stroke-linejoin="round" points="133.76840209960938 112.10923767089844 139.10491943359375 110.10806274414063 143.77435302734375 108.44039916992188 148.1102294921875 106.439208984375 155.44793701171875 105.10508728027344 160.784423828125 104.1044921875 162.78564453125 104.1044921875 162.1185302734375 106.10568237304688 159.4503173828125 109.77452087402344 159.4503173828125 109.77452087402344 " />
        <polyline stroke="black" stroke-width="3" stroke-linecap="round" fill="transparent" stroke-linejoin="round" points="123.09539794921876 143.12765502929688 129.09896850585938 140.79293823242188 135.10250854492188 138.79173278808594 140.43902587890625 136.79055786132813 149.77789306640625 131.78758239746094 154.44732666015625 128.11874389648438 154.44732666015625 128.11874389648438 " />
        <polyline stroke="black" stroke-width="3" stroke-linecap="round" fill="transparent" stroke-linejoin="round" points="102.41644287109376 68.08311462402344 98.08053588867188 89.76264953613281 93.74462890625 112.10923767089844 84.07223510742188 152.800048828125 75.40045166015625 183.48492431640625 69.06332397460938 208.499755859375 69.06332397460938 208.499755859375 " />
        </svg>