<?xml version="1.0" standalone="no"?>
    <svg width="256" height="256" xmlns="http://www.w3.org/2000/svg" version="1.1">
    <polyline stroke="black" stroke-width="3" stroke-linecap="round" fill="transparent" stroke-linejoin="round" points="55.49847412109375 94.93196105957033 67.94921875 89.3983154296875 82.70565795898438 83.86465454101563 97.92318725585938 77.86985778808594 112.21844482421876 73.71961975097656 121.44125366210938 70.95278930664063 124.669189453125 70.030517578125 127.43600463867188 69.56936645507813 126.974853515625 70.030517578125 126.974853515625 70.030517578125 " />
        <polyline stroke="black" stroke-width="3" stroke-linecap="round" fill="transparent" stroke-linejoin="round" points="39.819793701171875 158.10789489746094 63.33782958984375 151.65194702148438 72.09945678710938 147.96282958984375 80.39990234375 143.81259155273438 87.77813720703125 139.662353515625 98.845458984375 132.28414916992188 102.07342529296876 129.0561981201172 102.07342529296876 129.0561981201172 " />
        <polyline stroke="black" stroke-width="3" stroke-linecap="round" fill="transparent" stroke-linejoin="round" points="87.77813720703125 91.70399475097656 88.70040893554688 108.76609802246094 90.54498291015624 129.51731872558594 92.85067749023438 150.7296600341797 94.23406982421876 159.95242309570313 97.92318725585938 181.1647796630859 99.30661010742188 188.08184814453125 100.22885131835938 190.38754272460935 100.22885131835938 190.38754272460935 " />
        <polyline stroke="black" stroke-width="3" stroke-linecap="round" fill="transparent" stroke-linejoin="round" points="136.19760131835938 90.32058715820313 151.8763427734375 82.02009582519531 159.2545166015625 78.79212951660156 166.63275146484375 75.56417846679688 181.38916015625 70.030517578125 187.8450927734375 68.18595886230469 200.7569580078125 65.41912841796875 203.0626220703125 65.88027954101563 203.0626220703125 65.88027954101563 " />
        <polyline stroke="black" stroke-width="3" stroke-linecap="round" fill="transparent" stroke-linejoin="round" points="142.1923828125 118.9111328125 158.79339599609375 116.14431762695313 166.171630859375 114.76089477539063 185.5394287109375 111.53292846679688 193.3787841796875 110.14952087402344 195.22332763671875 110.61065673828124 195.22332763671875 110.61065673828124 " />
        <polyline stroke="black" stroke-width="3" stroke-linecap="round" fill="transparent" stroke-linejoin="round" points="123.28573608398438 159.49130249023438 138.96444702148438 151.65194702148438 147.72607421875 148.4239959716797 157.87109375 144.73486328125 186.92279052734375 135.05096435546875 202.60150146484375 130.43960571289063 213.20770263671875 127.21163940429688 216.89678955078125 124.90594482421876 216.89678955078125 124.90594482421876 " />
        <polyline stroke="black" stroke-width="3" stroke-linecap="round" fill="transparent" stroke-linejoin="round" points="169.8607177734375 51.584991455078125 166.63275146484375 72.33621215820313 168.01611328125 107.3826904296875 169.39959716796875 120.2945556640625 173.08868408203125 144.27374267578125 174.47210693359375 154.87991333007813 176.77777099609375 174.70884704589844 176.77777099609375 201.91598510742188 176.77777099609375 201.91598510742188 " />
        </svg>