<?xml version="1.0" standalone="no"?>
    <svg width="256" height="256" xmlns="http://www.w3.org/2000/svg" version="1.1">
    <polyline stroke="black" stroke-width="3" stroke-linecap="round" fill="transparent" stroke-linejoin="round" points="50.12469482421875 80.68809509277344 65.65887451171875 77.32003784179688 75.51123046875 75.76535034179688 86.4814453125 73.96479797363281 113.06173706054688 71.59683227539063 128.97909545898438 70.74888610839844 153.56365966796875 68.33688354492188 174.98016357421875 66.20095825195313 182.8231201171875 64.65507507324219 187.04150390625 62.0765380859375 200.0924072265625 60.44819641113281 204.56890869140625 60.11341857910156 204.57806396484375 60.11273193359375 " />
        <polyline stroke="black" stroke-width="3" stroke-linecap="round" fill="transparent" stroke-linejoin="round" points="118.4324951171875 111.371826171875 134.88400268554688 111.32574462890624 138.55126953125 111.74528503417967 144.13568115234375 112.64447021484376 162.3382568359375 116.69432067871094 168.05029296875 121.991455078125 169.4658203125 126.87371826171876 170.28045654296875 133.95860290527344 162.99212646484375 154.00802612304688 151.2691650390625 185.40533447265625 148.57882690429688 202.5201416015625 144.0234375 232.52349853515625 142.31207275390625 240.94927978515625 139.44039916992188 243.99786376953125 137.99179077148438 241.16033935546875 130.286865234375 231.9451904296875 117.02288818359376 212.6973571777344 110.27816772460938 202.06256103515625 104.04339599609376 194.05401611328125 98.22802734375 187.10757446289065 99.61090087890624 188.76861572265625 " />
        <polyline stroke="black" stroke-width="3" stroke-linecap="round" fill="transparent" stroke-linejoin="round" points="117.701904296875 89.08958435058594 103.64642333984376 122.25057983398438 97.580322265625 137.11599731445313 82.8350830078125 164.5698699951172 74.6114501953125 176.20050048828125 56.1607666015625 202.2476501464844 45.419525146484375 215.8935546875 45.0721435546875 215.5218811035156 " />
        </svg>