<?xml version="1.0" standalone="no"?>
    <svg width="256" height="256" xmlns="http://www.w3.org/2000/svg" version="1.1">
    <polyline stroke="black" stroke-width="3" stroke-linecap="round" fill="transparent" stroke-linejoin="round" points="97 73 96 72 96 72 96 72 96 72 97 73 98 74 100 77 102 80 104 84 106 88 109 93 112 96 116 99 119 99 122 99 " />
        <polyline stroke="black" stroke-width="3" stroke-linecap="round" fill="transparent" stroke-linejoin="round" points="165 46 165 46 166 46 166 49 165 53 163 61 155 77 147 89 137 101 133 107 118 123 109 132 105 135 " />
        <polyline stroke="black" stroke-width="3" stroke-linecap="round" fill="transparent" stroke-linejoin="round" points="83 149 83 148 85 147 88 145 92 143 96 141 103 137 109 135 115 132 122 130 129 127 137 125 145 122 153 119 161 117 167 116 170 116 173 116 " />
        <polyline stroke="black" stroke-width="3" stroke-linecap="round" fill="transparent" stroke-linejoin="round" points="139 128 137 129 135 130 134 134 134 138 135 143 136 149 137 156 138 164 139 173 140 182 140 190 140 198 141 210 141 214 142 218 143 222 " />
        </svg>