<?xml version="1.0" standalone="no"?>
    <svg width="256" height="256" xmlns="http://www.w3.org/2000/svg" version="1.1">
    <polyline stroke="black" stroke-width="3" stroke-linecap="round" fill="transparent" stroke-linejoin="round" points="109.9356689453125 38.939064025878906 105.41812133789063 49.264923095703125 96.38299560546876 66.04443359375 76.37664794921875 98.95811462402344 60.88787841796875 122.83665466308594 46.04443359375 144.7790985107422 35.073211669921875 159.6225128173828 28.61956787109375 168.0122833251953 25.392730712890625 171.23910522460938 25.392730712890625 171.23910522460938 " />
        <polyline stroke="black" stroke-width="3" stroke-linecap="round" fill="transparent" stroke-linejoin="round" points="115.09860229492188 48.61955261230469 133.16885375976563 50.55564880371094 147.36691284179688 56.36395263671875 165.4371337890625 66.68980407714844 183.5074462890625 77.01565551757813 198.350830078125 87.34152221679688 209.9674072265625 95.73127746582033 219.0025634765625 101.53956604003906 224.81085205078125 106.70249938964844 224.81085205078125 106.70249938964844 " />
        <polyline stroke="black" stroke-width="3" stroke-linecap="round" fill="transparent" stroke-linejoin="round" points="100.25518798828124 110.57469177246094 91.86541748046876 127.99958801269533 86.05712890625 142.1976318359375 80.89422607421875 155.7503204345703 76.37664794921875 164.14007568359375 73.14981079101563 169.94837951660156 73.14981079101563 171.8844757080078 76.37664794921875 169.30300903320313 81.53955078125 162.2039794921875 90.57470703125 151.8781280517578 104.12738037109376 137.03469848632813 120.26153564453124 123.48202514648438 135.10494995117188 113.15615844726563 153.1751708984375 106.70249938964844 169.309326171875 105.41177368164063 182.862060546875 107.99322509765624 192.54254150390625 115.73762512207033 203.5137939453125 132.51715087890625 209.322021484375 155.10494995117188 208.03131103515625 175.7566680908203 201.57763671875 193.82693481445313 193.1878662109375 206.7342529296875 182.2166748046875 216.41473388671875 167.373291015625 224.15911865234375 156.40203857421875 224.80450439453125 148.01226806640625 219.64157104492188 148.01226806640625 219.64157104492188 " />
        <polyline stroke="black" stroke-width="3" stroke-linecap="round" fill="transparent" stroke-linejoin="round" points="125.42446899414063 129.29031372070313 120.26153564453124 147.36056518554688 115.09860229492188 162.84934997558594 109.29031372070313 177.69276428222656 104.77276611328124 188.66400146484375 101.5458984375 195.76303100585935 98.9644775390625 201.57131958007813 100.90057373046876 201.57131958007813 100.90057373046876 201.57131958007813 " />
        <polyline stroke="black" stroke-width="3" stroke-linecap="round" fill="transparent" stroke-linejoin="round" points="162.2103271484375 132.51715087890625 159.62884521484375 149.29666137695313 154.4659423828125 163.49472045898438 146.7215576171875 179.6288604736328 137.6864013671875 194.4722900390625 129.9420166015625 209.31570434570313 129.9420166015625 209.31570434570313 " />
        </svg>