<?xml version="1.0" standalone="no"?>
    <svg width="256" height="256" xmlns="http://www.w3.org/2000/svg" version="1.1">
    <polyline stroke="black" stroke-width="3" stroke-linecap="round" fill="transparent" stroke-linejoin="round" points="112 50 97 80 91 90 83 104 63 131 50 150 38 160 32 162 32 162 " />
        <polyline stroke="black" stroke-width="3" stroke-linecap="round" fill="transparent" stroke-linejoin="round" points="114 58 117 73 129 86 149 101 173 117 198 131 222 142 238 149 243 153 243 153 " />
        <polyline stroke="black" stroke-width="3" stroke-linecap="round" fill="transparent" stroke-linejoin="round" points="99 129 87 140 87 148 85 156 75 185 69 200 68 204 67 206 67 206 " />
        <polyline stroke="black" stroke-width="3" stroke-linecap="round" fill="transparent" stroke-linejoin="round" points="87 141 103 138 112 138 134 138 159 138 178 138 193 139 200 148 201 166 195 189 185 208 174 220 166 226 158 227 153 227 153 227 " />
        <polyline stroke="black" stroke-width="3" stroke-linecap="round" fill="transparent" stroke-linejoin="round" points="124 139 119 152 118 160 110 178 106 186 93 209 92 212 92 213 92 213 " />
        <polyline stroke="black" stroke-width="3" stroke-linecap="round" fill="transparent" stroke-linejoin="round" points="163 144 159 154 159 161 154 179 143 200 132 220 132 220 " />
        </svg>