<?xml version="1.0" standalone="no"?>
    <svg width="256" height="256" xmlns="http://www.w3.org/2000/svg" version="1.1">
    <polyline stroke="black" stroke-width="3" stroke-linecap="round" fill="transparent" stroke-linejoin="round" points="80.47760009765625 70.9813232421875 89.9571533203125 66.52035522460938 100.55194091796876 62.05938720703125 113.934814453125 57.59843444824219 127.87530517578124 53.13746643066406 139.58535766601563 50.349365234375 147.94964599609375 49.79174041748047 154.08349609375 50.906982421875 158.54443359375 54.25270080566406 159.65966796875 60.94415283203125 158.54443359375 71.5389404296875 154.08349609375 84.36421203613281 145.16156005859375 99.4199676513672 134.0091552734375 111.6876220703125 134.0091552734375 111.6876220703125 " />
        <polyline stroke="black" stroke-width="3" stroke-linecap="round" fill="transparent" stroke-linejoin="round" points="103.89764404296876 70.4237060546875 100.55194091796876 87.15231323242188 98.87905883789063 96.63186645507813 96.6485595703125 105.55378723144533 95.5333251953125 112.2452392578125 95.5333251953125 117.26382446289063 95.5333251953125 120.60954284667967 97.76382446289063 122.28240966796876 101.66717529296876 122.28240966796876 108.35861206054688 122.28240966796876 121.18389892578124 122.28240966796876 135.1243896484375 123.39764404296876 145.71917724609375 125.0705108642578 154.64111328125 128.97384643554688 160.77490234375 134.550048828125 166.35113525390625 145.7024688720703 168.02398681640625 160.75820922851563 164.67828369140625 175.25634765625 161.33251953125 181.9477996826172 156.87158203125 188.08160400390625 151.29541015625 191.9849548339844 143.48870849609375 193.6578369140625 126.76007080078124 188.6392517089844 126.76007080078124 188.6392517089844 " />
        <polyline stroke="black" stroke-width="3" stroke-linecap="round" fill="transparent" stroke-linejoin="round" points="49.8084716796875 163.54632568359375 63.74896240234375 159.08535766601563 73.7861328125 156.29725646972656 86.61138916015625 153.5091552734375 98.32144165039063 151.27867126464844 110.03146362304688 149.60580444335938 117.838134765625 148.49057006835938 122.85675048828124 146.2600860595703 122.85675048828124 146.2600860595703 " />
        <polyline stroke="black" stroke-width="3" stroke-linecap="round" fill="transparent" stroke-linejoin="round" points="104.45526123046876 137.89578247070313 98.32144165039063 144.58721923828125 92.7452392578125 152.39390563964844 84.93853759765625 163.54632568359375 77.13186645507813 175.25634765625 70.998046875 184.73590087890625 67.09469604492188 190.8697204589844 64.86419677734375 193.6578369140625 64.86419677734375 193.6578369140625 " />
        <polyline stroke="black" stroke-width="3" stroke-linecap="round" fill="transparent" stroke-linejoin="round" points="91.0723876953125 164.66156005859375 103.89764404296876 168.0072784423828 111.704345703125 172.46824645996094 119.51101684570313 177.48683166503906 125.64483642578124 182.50540161132813 125.64483642578124 182.50540161132813 " />
        </svg>