<?xml version="1.0" standalone="no"?>
    <svg width="256" height="256" xmlns="http://www.w3.org/2000/svg" version="1.1">
    <polyline stroke="black" stroke-width="3" stroke-linecap="round" fill="transparent" stroke-linejoin="round" points="82.1607666015625 72.62518310546875 108.5830078125 60.88197326660156 124.72991943359376 55.74430847167969 136.47314453125 52.80851745605469 143.0787353515625 51.34059143066406 145.2806396484375 51.34059143066406 145.2806396484375 52.07453918457031 143.0787353515625 59.4140625 136.47314453125 73.35916137695313 129.86767578125 87.30422973632813 124.72991943359376 96.8455810546875 122.52813720703124 101.98324584960938 118.8583984375 106.38699340820313 115.1885986328125 109.32276916503906 115.1885986328125 109.32276916503906 " />
        <polyline stroke="black" stroke-width="3" stroke-linecap="round" fill="transparent" stroke-linejoin="round" points="97.57366943359376 74.82704162597656 89.50030517578125 107.8548583984375 82.89471435546875 125.46971130371094 75.55517578125 138.68081665039063 72.619384765625 144.55242919921875 72.619384765625 147.48825073242188 72.619384765625 148.22219848632813 83.628662109375 140.88267517089844 100.50958251953124 128.40553283691406 120.32623291015624 118.8641357421875 140.1429443359375 114.46043395996094 166.565185546875 112.25857543945313 178.308349609375 112.25857543945313 184.1800537109375 113.72648620605467 187.8497314453125 116.66227722167967 188.583740234375 124.73576354980467 178.308349609375 150.424072265625 169.5009765625 171.70863342285156 163.62939453125 193.72720336914065 159.9595947265625 212.07598876953125 159.2257080078125 224.55316162109375 158.49169921875 227.48898315429688 157.0238037109375 228.222900390625 148.9503173828125 217.94760131835935 148.9503173828125 217.94760131835935 " />
        <polyline stroke="black" stroke-width="3" stroke-linecap="round" fill="transparent" stroke-linejoin="round" points="73.35333251953125 159.23147583007813 104.9132080078125 146.0203399658203 123.9959716796875 141.6166229248047 139.408935546875 138.68081665039063 147.482421875 136.47897338867188 150.418212890625 134.27711486816406 150.418212890625 134.27711486816406 " />
        <polyline stroke="black" stroke-width="3" stroke-linecap="round" fill="transparent" stroke-linejoin="round" points="116.65643310546876 118.8641357421875 115.9224853515625 134.27711486816406 115.1885986328125 143.08456420898438 112.9866943359375 151.89195251464844 100.50958251953124 173.91049194335938 90.9681396484375 187.12164306640625 83.628662109375 195.19509887695313 78.49102783203125 199.59881591796875 75.55517578125 195.92904663085935 75.55517578125 195.92904663085935 " />
        <polyline stroke="black" stroke-width="3" stroke-linecap="round" fill="transparent" stroke-linejoin="round" points="108.5830078125 162.1672821044922 120.32623291015624 173.91049194335938 132.0694580078125 185.6537170410156 142.3447265625 197.39694213867188 149.684326171875 206.20437622070313 149.684326171875 206.20437622070313 " />
        </svg>