<?xml version="1.0" standalone="no"?>
    <svg width="256" height="256" xmlns="http://www.w3.org/2000/svg" version="1.1">
    <polyline stroke="black" stroke-width="3" stroke-linecap="round" fill="transparent" stroke-linejoin="round" points="74.7861328125 88.26756286621094 97.6485595703125 80.46087646484375 121.62625122070313 73.76942443847656 142.25820922851563 69.30845642089844 158.42919921875 66.52035522460938 171.2545166015625 64.84748840332031 176.8306884765625 64.84748840332031 176.8306884765625 64.84748840332031 " />
        <polyline stroke="black" stroke-width="3" stroke-linecap="round" fill="transparent" stroke-linejoin="round" points="36.310333251953125 161.8734588623047 48.577972412109375 159.08535766601563 81.47760009765625 150.72105407714844 108.24334716796876 144.02960205078125 134.4515380859375 137.89578247070313 156.75634765625 132.31956481933594 172.3697509765625 127.30099487304688 182.9644775390625 121.72477722167967 190.21356201171875 109.45713806152344 190.21356201171875 109.45713806152344 " />
        <polyline stroke="black" stroke-width="3" stroke-linecap="round" fill="transparent" stroke-linejoin="round" points="121.62625122070313 99.9775848388672 117.722900390625 108.34188842773438 113.819580078125 118.37905883789063 106.01287841796876 137.33815002441406 93.7452392578125 166.8920440673828 84.82330322265625 184.73590087890625 76.458984375 200.90689086914065 68.09469604492188 213.73214721679688 65.30657958984375 219.30838012695313 65.30657958984375 219.30838012695313 " />
        <polyline stroke="black" stroke-width="3" stroke-linecap="round" fill="transparent" stroke-linejoin="round" points="104.89764404296876 166.8920440673828 124.41436767578124 170.23776245117188 138.3548583984375 176.92921447753906 152.85302734375 185.85113525390625 166.23590087890625 195.8883056640625 176.2730712890625 204.81024169921875 176.2730712890625 204.81024169921875 " />
        </svg>