<?xml version="1.0" standalone="no"?>
    <svg width="256" height="256" xmlns="http://www.w3.org/2000/svg" version="1.1">
    <polyline stroke="black" stroke-width="3" stroke-linecap="round" fill="transparent" stroke-linejoin="round" points="155.7117919921875 67.67535400390625 146.00238037109375 76.10575866699219 136.29296875 84.53616333007813 122.81146240234376 95.62184143066406 95.19622802734376 116.99356079101563 84.19476318359375 126.79434204101563 61.91876220703125 151.04489135742188 53.824920654296875 160.76092529296875 53.01556396484375 161.73252868652344 " />
        <polyline stroke="black" stroke-width="3" stroke-linecap="round" fill="transparent" stroke-linejoin="round" points="73.19967651367188 76.96945190429689 74.51229858398438 93.46296691894533 75.82492065429688 109.95648193359376 77.81527709960938 145.99154663085938 77.7783203125 160.20848083496094 78.315673828125 180.14944458007813 79.67584228515625 190.5616455078125 81.2755126953125 194.30419921875 84.57064819335938 199.69564819335935 85.95932006835938 201.21917724609375 89.8634033203125 205.22091674804688 91.58612060546876 206.6890563964844 94.97625732421876 209.4083251953125 96.89047241210938 210.936767578125 102.87335205078124 213.96563720703125 108.43804931640624 215.8782958984375 122.28671264648438 218.52865600585935 138.85116577148438 219.26956176757813 147.12118530273438 219.6781311035156 166.89666748046875 220.93731689453125 174.6434326171875 220.72381591796875 184.5731201171875 219.566162109375 188.85791015625 218.21286010742188 196.326904296875 215.65240478515625 198.0185546875 215.0372314453125 198.870361328125 214.59368896484375 199.1177978515625 214.08706665039065 199.349853515625 213.73779296875 199.49359130859375 212.55694580078125 199.56732177734375 211.95101928710935 " />
        </svg>