<?xml version="1.0" standalone="no"?>
    <svg width="256" height="256" xmlns="http://www.w3.org/2000/svg" version="1.1">
    <polyline stroke="black" stroke-width="3" stroke-linecap="round" fill="transparent" stroke-linejoin="round" points="168 69 162 77 156 85 151 90 137 100 120 110 102 117 85 123 72 127 72 127 " />
        <polyline stroke="black" stroke-width="3" stroke-linecap="round" fill="transparent" stroke-linejoin="round" points="96 65 96 68 96 71 96 91 96 108 96 116 96 123 96 136 98 147 104 157 112 164 122 171 135 175 149 176 160 177 174 177 183 175 190 173 192 172 193 172 193 171 193 170 193 166 192 152 191 125 191 125 " />
        </svg>