<?xml version="1.0" standalone="no"?>
    <svg width="256" height="256" xmlns="http://www.w3.org/2000/svg" version="1.1">
    <polyline stroke="black" stroke-width="3" stroke-linecap="round" fill="transparent" stroke-linejoin="round" points="72.780517578125 59.637969970703125 80.61386108398438 57.0997314453125 88.44720458984375 54.561492919921875 102.93280029296876 48.37932586669922 122.9234619140625 42.341522216796875 129.3101806640625 41.57991790771485 132.46435546875 41.57344055175781 132.4930419921875 41.5733642578125 132.49533081054688 41.5733642578125 132.49569702148438 41.5733642578125 " />
        <polyline stroke="black" stroke-width="3" stroke-linecap="round" fill="transparent" stroke-linejoin="round" points="84.69912719726563 79.34384155273438 89.80755615234375 77.30253601074219 94.91598510742188 75.26123046875 106.15634155273438 70.85922241210938 111.22531127929688 68.45292663574219 111.68841552734376 68.23028564453125 " />
        <polyline stroke="black" stroke-width="3" stroke-linecap="round" fill="transparent" stroke-linejoin="round" points="89.73626708984375 62.44480895996094 85.85714721679688 73.1268310546875 81.97802734375 83.80885314941406 72.16632080078125 117.53855895996094 67.35958862304688 133.41075134277344 58.61883544921875 160.38949584960938 56.159271240234375 168.8271484375 54.102874755859375 175.37228393554688 53.26800537109375 178.60162353515625 53.18450927734375 178.92453002929688 " />
        <polyline stroke="black" stroke-width="3" stroke-linecap="round" fill="transparent" stroke-linejoin="round" points="92.38442993164063 116.10354614257817 113.781494140625 113.8191375732422 135.17855834960938 111.53472900390624 144.8565673828125 111.15597534179688 169.24920654296875 113.56968688964844 176.1864013671875 115.91229248046876 180.637939453125 121.89898681640624 181.6671142578125 135.97142028808594 181.7252197265625 148.14427185058594 179.0570068359375 175.19815063476563 176.79534912109375 187.399169921875 170.3328857421875 203.94387817382813 162.7750244140625 209.07623291015625 151.32421875 212.9468688964844 147.20895385742188 213.79388427734375 140.335205078125 213.31243896484375 125.19393920898438 202.4300537109375 123.13632202148438 199.53436279296875 " />
        <polyline stroke="black" stroke-width="3" stroke-linecap="round" fill="transparent" stroke-linejoin="round" points="106.61782836914065 123.01069641113281 101.81243896484376 140.54318237304688 97.00704956054688 158.07566833496094 93.86077880859376 164.75254821777344 87.07846069335938 176.54736328125 83.84429931640625 178.9867401123047 83.52084350585938 179.23068237304688 " />
        <polyline stroke="black" stroke-width="3" stroke-linecap="round" fill="transparent" stroke-linejoin="round" points="131.71649169921875 134.568359375 124.29684448242188 146.82945251464844 116.877197265625 159.09054565429688 103.906005859375 183.70623779296875 88.0391845703125 206.14828491210935 87.116455078125 207.090576171875 " />
        </svg>