<?xml version="1.0" standalone="no"?>
    <svg width="256" height="256" xmlns="http://www.w3.org/2000/svg" version="1.1">
    <polyline stroke="black" stroke-width="3" stroke-linecap="round" fill="transparent" stroke-linejoin="round" points="91.10150146484376 58.48583984375 100.31634521484376 54.297271728515625 107.01803588867188 51.78413391113281 115.39520263671876 49.689849853515625 132.56829833984375 46.33900451660156 141.3642578125 45.50129699707031 156.02423095703125 45.082427978515625 164.8201904296875 45.082427978515625 169.4276123046875 45.50129699707031 170.6842041015625 45.50129699707031 170.6842041015625 45.50129699707031 " />
        <polyline stroke="black" stroke-width="3" stroke-linecap="round" fill="transparent" stroke-linejoin="round" points="96.546630859375 66.02525329589844 92.35809326171876 83.1983642578125 89.00726318359375 98.696044921875 84.81866455078125 117.54458618164063 75.60385131835938 151.05307006835938 64.294677734375 185.81814575195313 60.10614013671875 199.2215576171875 60.10614013671875 199.2215576171875 " />
        <polyline stroke="black" stroke-width="3" stroke-linecap="round" fill="transparent" stroke-linejoin="round" points="102.41064453125 126.7593994140625 114.976318359375 119.22000122070313 127.12313842773438 113.77488708496094 132.56829833984375 111.68058776855467 143.45855712890625 107.91087341308594 151.835693359375 104.9788818359375 151.835693359375 104.9788818359375 " />
        <polyline stroke="black" stroke-width="3" stroke-linecap="round" fill="transparent" stroke-linejoin="round" points="89.84494018554688 168.64505004882813 104.0860595703125 161.10562133789063 110.78778076171876 157.7547607421875 126.285400390625 151.8907928466797 145.13397216796875 147.70223999023438 163.56365966796875 147.2833709716797 179.48016357421875 151.05307006835938 189.95159912109375 158.1736297607422 194.55902099609375 163.19989013671875 202.9361572265625 184.56158447265625 203.77386474609375 192.1009826660156 197.90985107421875 211.36837768554688 187.01959228515625 223.93408203125 179.8990478515625 228.9603271484375 163.9825439453125 235.66204833984375 163.9825439453125 235.66204833984375 " />
        <polyline stroke="black" stroke-width="3" stroke-linecap="round" fill="transparent" stroke-linejoin="round" points="123.35345458984376 163.61875915527344 115.81402587890624 177.02215576171875 111.20663452148438 185.81814575195313 107.4368896484375 192.938720703125 101.99179077148438 208.01751708984375 101.99179077148438 208.855224609375 101.99179077148438 208.855224609375 " />
        <polyline stroke="black" stroke-width="3" stroke-linecap="round" fill="transparent" stroke-linejoin="round" points="154.7677001953125 174.50901794433594 145.55282592773438 190.0067138671875 140.52655029296875 199.2215576171875 135.08139038085938 208.01751708984375 130.05514526367188 216.3946533203125 122.51571655273438 228.12261962890625 122.51571655273438 228.12261962890625 " />
        </svg>