<?xml version="1.0" standalone="no"?>
    <svg width="256" height="256" xmlns="http://www.w3.org/2000/svg" version="1.1">
    <polyline stroke="black" stroke-width="3" stroke-linecap="round" fill="transparent" stroke-linejoin="round" points="54.1239013671875 66.017333984375 75.06964111328125 58.91075134277344 96.015380859375 51.804168701171875 107.61032104492188 49.18595886230469 127.80795288085938 45.819671630859375 146.509521484375 43.57549285888672 155.86029052734375 42.079368591308594 161.0966796875 40.957275390625 161.0966796875 40.58324432373047 161.0966796875 40.58324432373047 " />
        <polyline stroke="black" stroke-width="3" stroke-linecap="round" fill="transparent" stroke-linejoin="round" points="57.490264892578125 75.36811828613281 54.87200927734375 88.83322143554688 52.253753662109375 102.29832458496094 47.017333984375 132.22076416015625 38.788665771484375 179.72268676757813 34.30029296875 199.5462951660156 30.55999755859375 209.6451416015625 29.43792724609375 211.51528930664065 29.43792724609375 211.51528930664065 " />
        <polyline stroke="black" stroke-width="3" stroke-linecap="round" fill="transparent" stroke-linejoin="round" points="59.360382080078125 114.6413116455078 67.96307373046875 110.5269775390625 76.56576538085938 106.4126434326172 85.54248046875 102.67234802246094 94.51925659179688 99.30607604980467 123.319580078125 92.19949340820313 136.41064453125 89.955322265625 144.26531982421875 88.45918273925781 147.257568359375 87.71112060546875 147.257568359375 87.71112060546875 " />
        <polyline stroke="black" stroke-width="3" stroke-linecap="round" fill="transparent" stroke-linejoin="round" points="50.38360595703125 147.55599975585938 68.71112060546875 138.57928466796875 87.03863525390625 129.60256958007813 107.23626708984376 123.99209594726563 128.5560302734375 121.37388610839844 139.02890014648438 121.37388610839844 161.0966796875 122.8699951171875 178.6761474609375 126.23626708984376 191.0191650390625 131.0986785888672 198.499755859375 136.33511352539063 204.1102294921875 146.43394470214844 205.98040771484375 162.8912811279297 201.1180419921875 179.3486328125 192.51531982421875 192.43972778320313 181.29437255859375 201.41644287109375 169.69940185546875 206.65289306640625 169.69940185546875 206.65289306640625 " />
        <polyline stroke="black" stroke-width="3" stroke-linecap="round" fill="transparent" stroke-linejoin="round" points="104.61810302734375 125.11419677734375 95.26730346679688 152.04440307617188 85.91650390625 178.974609375 82.92428588867188 188.32537841796875 81.05413818359375 194.30987548828125 79.55804443359375 200.29437255859375 79.55804443359375 200.66839599609375 79.55804443359375 200.66839599609375 " />
        <polyline stroke="black" stroke-width="3" stroke-linecap="round" fill="transparent" stroke-linejoin="round" points="116.58703613281251 161.7691650390625 114.34286499023438 173.3641357421875 112.09869384765624 184.9591064453125 108.3583984375 204.40869140625 106.86224365234376 213.38543701171875 106.86224365234376 213.38543701171875 " />
        </svg>