<?xml version="1.0" standalone="no"?>
    <svg width="256" height="256" xmlns="http://www.w3.org/2000/svg" version="1.1">
    <polyline stroke="black" stroke-width="3" stroke-linecap="round" fill="transparent" stroke-linejoin="round" points="66.109130859375 55.342628479003906 83.8984375 53.47419738769531 101.687744140625 51.60576629638672 131.909912109375 49.301536560058594 155.6585693359375 46.44371795654297 160.2197265625 45.56749725341797 164.94891357421875 42.8914794921875 165.0205078125 42.798118591308594 165.03045654296875 42.78509521484375 " />
        <polyline stroke="black" stroke-width="3" stroke-linecap="round" fill="transparent" stroke-linejoin="round" points="104.2493896484375 68.56877136230469 110.759033203125 67.74407958984375 117.2686767578125 66.91938781738281 119.53387451171876 66.72171020507813 122.22625732421876 66.01275634765625 122.43856811523438 65.68357849121094 122.589599609375 65.44949340820313 122.62188720703124 65.39936828613281 " />
        <polyline stroke="black" stroke-width="3" stroke-linecap="round" fill="transparent" stroke-linejoin="round" points="92.10693359375 54.29400634765625 87.64584350585938 70.92803955078125 83.18475341796875 87.56207275390625 66.3988037109375 133.65362548828125 57.13507080078125 153.89227294921875 40.73126220703125 177.63241577148438 35.332275390625 183.6597595214844 38.091644287109375 177.42312622070313 " />
        <polyline stroke="black" stroke-width="3" stroke-linecap="round" fill="transparent" stroke-linejoin="round" points="88.108642578125 113.6255340576172 101.74169921875 109.67137145996094 115.374755859375 105.71720886230467 122.62310791015624 103.7601318359375 136.03668212890625 102.32504272460938 140.67388916015625 102.72079467773438 145.81161499023438 103.51774597167967 147.41439819335938 103.72274780273438 149.63668823242188 103.96592712402344 155.1923828125 104.43601989746094 159.02313232421875 104.69200134277344 162.97454833984375 105.18026733398438 172.7098388671875 105.88967895507813 183.08514404296875 106.65911865234376 187.9669189453125 106.55477905273438 193.8287353515625 107.45957946777344 195.23504638671875 107.99554443359376 196.582275390625 109.30316162109376 197.921630859375 111.82266235351563 205.33282470703125 136.1060791015625 208.4019775390625 172.95608520507813 207.98529052734375 190.15847778320313 206.97723388671875 204.68597412109375 204.5240478515625 221.47994995117188 200.528564453125 225.99234008789065 197.98291015625 226.3251953125 193.2879638671875 225.4515380859375 189.0711669921875 225.33267211914065 171.36962890625 224.89373779296875 162.06494140625 222.80609130859375 135.91708374023438 211.23599243164065 117.03466796875 201.57711791992188 117.33538818359376 200.70452880859375 " />
        <polyline stroke="black" stroke-width="3" stroke-linecap="round" fill="transparent" stroke-linejoin="round" points="91.23114013671875 133.78273010253906 87.706298828125 148.9346923828125 84.18145751953125 164.08665466308594 74.91278076171875 190.972412109375 71.58749389648438 200.46197509765625 71.23297119140625 200.5318603515625 " />
        <polyline stroke="black" stroke-width="3" stroke-linecap="round" fill="transparent" stroke-linejoin="round" points="130.53652954101565 130.0029296875 126.15252685546876 150.16790771484375 121.76852416992188 170.3328857421875 113.92010498046876 191.44601440429688 111.89630126953124 196.2588806152344 " />
        </svg>