<?xml version="1.0" standalone="no"?>
    <svg width="256" height="256" xmlns="http://www.w3.org/2000/svg" version="1.1">
    <polyline stroke="black" stroke-width="3" stroke-linecap="round" fill="transparent" stroke-linejoin="round" points="72.46420288085938 75.19241333007813 81.36422729492188 71.42703247070313 90.26425170898438 67.66165161132813 100.87579345703124 63.896270751953125 112.51425170898438 60.13087463378906 144.006591796875 52.60009765625 160.7796630859375 49.177024841308594 166.94122314453125 47.80779266357422 166.94122314453125 47.80779266357422 " />
        <polyline stroke="black" stroke-width="3" stroke-linecap="round" fill="transparent" stroke-linejoin="round" points="59.114166259765625 71.42706298828125 54.6641845703125 88.54244995117188 50.214202880859375 105.6578369140625 45.76422119140625 124.82708740234376 41.314178466796875 144.6809539794922 35.15264892578125 177.8848114013672 33.09881591796875 188.49636840820313 31.044921875 203.21560668945313 30.018035888671875 210.40408325195313 30.018035888671875 210.74639892578125 30.018035888671875 210.74639892578125 " />
        <polyline stroke="black" stroke-width="3" stroke-linecap="round" fill="transparent" stroke-linejoin="round" points="72.46420288085938 114.2155303955078 81.36422729492188 111.134765625 90.26425170898438 108.0540008544922 107.03732299804688 102.91937255859376 114.910400390625 100.86553955078124 121.75656127929688 99.49630737304688 131.68353271484375 97.44244384765624 137.160400390625 96.41552734375 138.18734741210938 96.41552734375 138.18734741210938 96.41552734375 " />
        <polyline stroke="black" stroke-width="3" stroke-linecap="round" fill="transparent" stroke-linejoin="round" points="48.502685546875 143.99632263183594 69.72576904296875 137.4924774169922 90.9488525390625 130.98863220214844 123.81039428710938 125.51170349121094 132.71041870117188 124.48478698730467 147.42965698242188 124.1424560546875 158.04119873046875 126.19631958007813 164.88739013671875 131.3309326171875 171.3912353515625 143.99632263183594 173.787353515625 161.45404052734375 172.41815185546875 178.56944274902344 168.65277099609375 192.26174926757813 162.83349609375 201.16177368164065 153.2489013671875 206.98101806640625 145.37582397460938 208.3502197265625 145.37582397460938 208.3502197265625 " />
        <polyline stroke="black" stroke-width="3" stroke-linecap="round" fill="transparent" stroke-linejoin="round" points="77.941162109375 151.86940002441406 77.25653076171875 159.74249267578125 76.5718994140625 167.61558532714844 75.54501342773438 181.99252319335935 75.20269775390625 186.78485107421875 74.8603515625 192.9463806152344 75.54501342773438 192.6040954589844 75.54501342773438 192.6040954589844 " />
        <polyline stroke="black" stroke-width="3" stroke-linecap="round" fill="transparent" stroke-linejoin="round" points="117.99114990234371 147.76171875 115.59503173828124 159.4001922607422 113.19891357421876 171.03866577148438 110.80270385742188 182.33482360839844 108.74887084960938 191.5771484375 104.98348999023438 210.06179809570313 104.98348999023438 210.06179809570313 " />
        </svg>