<?xml version="1.0" standalone="no"?>
    <svg width="256" height="256" xmlns="http://www.w3.org/2000/svg" version="1.1">
    <polyline stroke="black" stroke-width="3" stroke-linecap="round" fill="transparent" stroke-linejoin="round" points="54.154083251953125 94.90209960937499 58.3455810546875 109.38619995117188 62.537078857421875 123.87030029296876 71.517822265625 161.36343383789063 77.00030517578125 190.1785888671875 78.60595703125 198.4090576171875 80.1456298828125 201.906005859375 80.29962158203125 202.25570678710935 " />
        <polyline stroke="black" stroke-width="3" stroke-linecap="round" fill="transparent" stroke-linejoin="round" points="95.62823486328125 94.24972534179688 116.65170288085938 85.88587951660156 137.6751708984375 77.52203369140625 150.4703369140625 74.90335083007813 162.590576171875 74.47476196289063 186.47039794921875 81.20036315917969 198.60076904296875 96.51751708984376 205.48883056640625 110.83547973632813 207.8037109375 142.76681518554688 196.1259765625 172.07400512695313 186.29443359375 180.36666870117188 179.34808349609375 182.26321411132813 178.55120849609375 179.3994140625 " />
        <polyline stroke="black" stroke-width="3" stroke-linecap="round" fill="transparent" stroke-linejoin="round" points="97.36074829101565 134.27120971679688 107.41864013671876 133.64407348632813 117.47653198242188 133.01693725585938 127.8330078125 132.442138671875 148.46331787109375 131.3044891357422 160.4520263671875 131.39739990234375 162.7376708984375 133.3834686279297 162.89764404296875 133.52252197265625 " />
        <polyline stroke="black" stroke-width="3" stroke-linecap="round" fill="transparent" stroke-linejoin="round" points="106.125244140625 191.82489013671875 131.90283203125 189.8280029296875 157.680419921875 187.83111572265625 169.77294921875 188.00982666015625 188.18701171875 191.28237915039065 186.405517578125 191.9384765625 " />
        </svg>