<?xml version="1.0" standalone="no"?>
    <svg width="256" height="256" xmlns="http://www.w3.org/2000/svg" version="1.1">
    <polyline stroke="black" stroke-width="3" stroke-linecap="round" fill="transparent" stroke-linejoin="round" points="79.983642578125 87.55375671386719 83.67279052734375 98.62106323242188 86.90072631835938 111.99406433105467 89.2064208984375 123.98367309570313 93.356689453125 153.49649047851563 94.2789306640625 159.0301513671875 95.20123291015624 165.94720458984375 94.74008178710938 165.94720458984375 94.2789306640625 165.486083984375 94.2789306640625 165.486083984375 " />
        <polyline stroke="black" stroke-width="3" stroke-linecap="round" fill="transparent" stroke-linejoin="round" points="79.983642578125 96.31536865234376 99.35150146484376 89.3983154296875 111.341064453125 86.63148498535156 123.791748046875 83.86465454101563 135.32025146484375 82.02009582519531 156.07147216796875 80.63668823242188 171.28900146484375 82.48123168945313 181.89520263671875 87.55375671386719 188.812255859375 94.00968933105467 192.9625244140625 105.07699584960938 188.812255859375 121.21682739257813 172.2113037109375 139.662353515625 172.2113037109375 139.662353515625 " />
        <polyline stroke="black" stroke-width="3" stroke-linecap="round" fill="transparent" stroke-linejoin="round" points="91.9732666015625 141.04576110839844 106.26852416992188 138.74009704589844 114.56903076171876 137.8177947998047 123.791748046875 137.35667419433594 138.54818725585938 136.89553833007813 144.54296875 137.8177947998047 151.92120361328125 140.12350463867188 151.92120361328125 140.12350463867188 " />
        <polyline stroke="black" stroke-width="3" stroke-linecap="round" fill="transparent" stroke-linejoin="round" points="98.42919921875 190.84869384765625 118.25814819335938 179.78135681152344 127.9420166015625 176.09225463867188 137.164794921875 173.32542419433594 158.37713623046875 171.9420166015625 172.2113037109375 174.24771118164063 172.2113037109375 174.24771118164063 " />
        </svg>