<?xml version="1.0" standalone="no"?>
    <svg width="256" height="256" xmlns="http://www.w3.org/2000/svg" version="1.1">
    <polyline stroke="black" stroke-width="3" stroke-linecap="round" fill="transparent" stroke-linejoin="round" points="56 84 56 95 56 106 56 126 56 149 56 161 60 177 66 187 70 190 70 190 " />
        <polyline stroke="black" stroke-width="3" stroke-linecap="round" fill="transparent" stroke-linejoin="round" points="52 99 72 98 92 97 123 95 150 91 172 89 184 89 186 89 186 102 180 124 173 145 166 163 163 178 159 186 159 186 " />
        <polyline stroke="black" stroke-width="3" stroke-linecap="round" fill="transparent" stroke-linejoin="round" points="53 132 72 132 91 132 127 132 137 132 147 133 159 139 159 139 " />
        <polyline stroke="black" stroke-width="3" stroke-linecap="round" fill="transparent" stroke-linejoin="round" points="66 207 86 203 106 199 133 196 159 195 172 195 172 195 " />
        </svg>