<?xml version="1.0" standalone="no"?>
    <svg width="256" height="256" xmlns="http://www.w3.org/2000/svg" version="1.1">
    <polyline stroke="black" stroke-width="3" stroke-linecap="round" fill="transparent" stroke-linejoin="round" points="99 64 100 64 103 66 105 70 107 75 107 81 106 89 103 97 99 112 95 122 91 132 89 137 86 142 " />
        <polyline stroke="black" stroke-width="3" stroke-linecap="round" fill="transparent" stroke-linejoin="round" points="56 165 56 165 55 165 56 164 58 162 62 160 67 157 73 154 85 148 94 144 104 140 115 135 126 130 137 123 148 116 158 108 162 104 " />
        <polyline stroke="black" stroke-width="3" stroke-linecap="round" fill="transparent" stroke-linejoin="round" points="143 41 142 41 140 43 139 47 138 55 137 66 137 88 137 104 137 122 137 139 138 156 138 171 139 185 139 197 140 208 141 213 " />
        </svg>