<?xml version="1.0" standalone="no"?>
    <svg width="256" height="256" xmlns="http://www.w3.org/2000/svg" version="1.1">
    <polyline stroke="black" stroke-width="3" stroke-linecap="round" fill="transparent" stroke-linejoin="round" points="85.35333251953125 73.94515991210938 86.58856201171875 83.77313232421875 87.82379150390625 93.60110473632813 88.41534423828125 111.64007568359376 87.25119018554688 120.78634643554688 81.99603271484375 137.20669555664063 78.458984375 145.20431518554688 77.88983154296875 144.65176391601563 " />
        <polyline stroke="black" stroke-width="3" stroke-linecap="round" fill="transparent" stroke-linejoin="round" points="56.1700439453125 151.75311279296875 63.34576416015625 147.930908203125 70.521484375 144.10870361328125 87.823974609375 136.75076293945313 98.83148193359376 133.2778778076172 118.01840209960938 128.58737182617188 152.916259765625 122.1063232421875 184.2181396484375 117.60299682617188 186.923828125 116.82717895507813 189.20098876953125 115.28947448730467 189.47802734375 114.6126708984375 189.0150146484375 113.9968719482422 188.82391357421875 113.74278259277344 " />
        <polyline stroke="black" stroke-width="3" stroke-linecap="round" fill="transparent" stroke-linejoin="round" points="147.75106811523438 69.02935791015625 147.88803100585938 89.80458068847656 148.02499389648438 110.57980346679688 147.83297729492188 148.7133026123047 147.74935913085938 167.23599243164063 147.68829345703125 200.828369140625 148.235107421875 215.74392700195313 148.346435546875 231.11944580078125 148.281982421875 232.951416015625 146.57342529296875 236.1832275390625 146.195556640625 233.11663818359375 " />
        </svg>