<?xml version="1.0" standalone="no"?>
    <svg width="256" height="256" xmlns="http://www.w3.org/2000/svg" version="1.1">
    <polyline stroke="black" stroke-width="3" stroke-linecap="round" fill="transparent" stroke-linejoin="round" points="70.05706787109375 103.71994018554688 83.72784423828125 100.15365600585938 95.02108764648438 95.99299621582033 109.880615234375 91.23794555664063 126.52328491210938 86.48289489746094 144.9490966796875 81.13346862792969 160.99737548828125 75.78404235839844 172.885009765625 71.62336730957031 179.4232177734375 67.46270751953125 184.17822265625 61.518890380859375 184.17822265625 61.518890380859375 " />
        <polyline stroke="black" stroke-width="3" stroke-linecap="round" fill="transparent" stroke-linejoin="round" points="148.515380859375 27.04478454589844 137.22213745117188 44.281837463378906 128.90081787109375 60.92451477050781 115.82443237304688 86.48289489746094 102.748046875 111.4468994140625 86.69976806640625 143.54348754882813 77.7840576171875 161.37490844726563 71.8402099609375 173.85691833496094 68.86831665039063 179.80072021484375 68.86831665039063 180.9894866943359 68.86831665039063 180.9894866943359 " />
        <polyline stroke="black" stroke-width="3" stroke-linecap="round" fill="transparent" stroke-linejoin="round" points="106.90869140625 112.63566589355467 119.985107421875 113.23004150390624 128.90081787109375 115.60757446289063 140.7884521484375 120.36262512207033 153.86480712890625 127.49519348144533 165.1580810546875 135.22213745117188 174.07379150390625 144.73223876953125 179.4232177734375 157.80862426757813 179.4232177734375 157.80862426757813 " />
        <polyline stroke="black" stroke-width="3" stroke-linecap="round" fill="transparent" stroke-linejoin="round" points="32.611083984375 199.41531372070313 42.12115478515625 196.44338989257813 51.63128662109375 194.6602478027344 66.49078369140625 192.87710571289065 92.0491943359375 190.49957275390625 120.5794677734375 188.7164306640625 144.9490966796875 187.52767944335935 169.9130859375 185.150146484375 187.150146484375 183.96139526367188 201.415283203125 182.17825317382813 209.73663330078125 181.58387756347656 213.8973388671875 181.58387756347656 213.8973388671875 181.58387756347656 " />
        </svg>