<?xml version="1.0" standalone="no"?>
    <svg width="256" height="256" xmlns="http://www.w3.org/2000/svg" version="1.1">
    <polyline stroke="black" stroke-width="3" stroke-linecap="round" fill="transparent" stroke-linejoin="round" points="67.58203125 94.69183349609376 88.110595703125 87.30155944824219 106.17572021484376 81.55355834960938 115.61883544921876 78.67955017089844 133.27337646484375 74.98440551757813 155.4442138671875 71.28927612304688 166.5296630859375 70.05755615234375 173.5093994140625 69.23641967773438 176.7939453125 69.23641967773438 176.7939453125 69.23641967773438 " />
        <polyline stroke="black" stroke-width="3" stroke-linecap="round" fill="transparent" stroke-linejoin="round" points="146.82223510742188 46.24444580078125 137.37908935546875 60.203857421875 131.22055053710938 69.64698791503906 116.85055541992188 95.10238647460938 97.5537109375 127.53750610351563 79.48861694335938 155.45632934570313 68.813720703125 170.23687744140625 65.11859130859375 173.9320068359375 62.244598388671875 176.80601501464844 62.244598388671875 176.80601501464844 " />
        <polyline stroke="black" stroke-width="3" stroke-linecap="round" fill="transparent" stroke-linejoin="round" points="121.77740478515624 87.71211242675781 140.66366577148438 99.20809936523438 154.2125244140625 109.47239685058594 168.58251953125 120.55780029296876 182.13134765625 131.23263549804688 193.21673583984375 140.67576599121094 193.21673583984375 140.67576599121094 " />
        <polyline stroke="black" stroke-width="3" stroke-linecap="round" fill="transparent" stroke-linejoin="round" points="38.02093505859375 173.9320068359375 49.927490234375 176.80601501464844 65.11859130859375 178.0377197265625 92.62689208984376 179.26943969726563 111.51312255859376 179.26943969726563 120.95623779296876 179.26943969726563 139.842529296875 178.44830322265625 158.728759765625 177.2165985107422 174.7410888671875 175.98486328125 187.87933349609375 174.75315856933594 198.14361572265625 173.52145385742188 205.123291015625 172.70030212402344 209.22900390625 172.28973388671875 211.2818603515625 172.28973388671875 211.2818603515625 172.28973388671875 " />
        </svg>