<?xml version="1.0" standalone="no"?>
    <svg width="256" height="256" xmlns="http://www.w3.org/2000/svg" version="1.1">
    <polyline stroke="black" stroke-width="3" stroke-linecap="round" fill="transparent" stroke-linejoin="round" points="68.80856323242188 102.8515625 79.27639770507813 101.19874572753906 95.253662109375 98.99497985839844 119.4949951171875 94.58746337890624 135.47222900390625 90.17994689941406 154.20416259765625 84.11961364746094 169.07952880859375 78.6102294921875 178.9964599609375 73.100830078125 184.505859375 68.69331359863281 187.260498046875 63.73486328125 187.260498046875 54.919830322265625 187.260498046875 54.919830322265625 " />
        <polyline stroke="black" stroke-width="3" stroke-linecap="round" fill="transparent" stroke-linejoin="round" points="152.55133056640625 32.33131408691406 144.28726196289063 41.69728088378906 138.77786254882813 51.063255310058594 132.717529296875 65.93861389160156 122.24969482421876 92.93464660644533 110.679931640625 118.27786254882813 99.66116333007813 141.96826171875 88.0914306640625 160.14926147460938 77.0726318359375 173.92274475097656 70.46136474609375 180.53402709960935 64.95196533203125 183.83966064453125 62.74822998046875 183.83966064453125 63.299163818359375 178.33026123046875 63.299163818359375 178.33026123046875 " />
        <polyline stroke="black" stroke-width="3" stroke-linecap="round" fill="transparent" stroke-linejoin="round" points="102.41586303710938 113.31941223144533 117.8421630859375 114.97222900390624 131.064697265625 118.27786254882813 151.449462890625 123.78726196289063 169.07952880859375 129.84759521484375 183.95489501953125 135.35699462890625 195.524658203125 139.76449584960938 202.1358642578125 141.96826171875 202.1358642578125 141.96826171875 " />
        <polyline stroke="black" stroke-width="3" stroke-linecap="round" fill="transparent" stroke-linejoin="round" points="35.752197265625 206.9791259765625 48.9747314453125 200.91879272460935 59.9935302734375 197.6131591796875 75.97076416015625 194.3074951171875 99.1102294921875 191.55279541015625 125.00439453125 189.34906005859375 150.89852905273438 188.2471618652344 174.0379638671875 187.69622802734375 193.871826171875 186.5943603515625 210.4000244140625 184.39059448242188 221.9697265625 182.18682861328125 228.58099365234375 180.53402709960935 233.5394287109375 178.88121032714844 235.7431640625 177.77932739257813 235.7431640625 177.77932739257813 " />
        </svg>