<?xml version="1.0" standalone="no"?>
    <svg width="256" height="256" xmlns="http://www.w3.org/2000/svg" version="1.1">
    <polyline stroke="black" stroke-width="3" stroke-linecap="round" fill="transparent" stroke-linejoin="round" points="86.564453125 86.57026672363281 110.0509033203125 77.76284790039063 130.6015625 72.62518310546875 149.684326171875 68.95542907714844 167.2991943359375 66.0196533203125 170.23486328125 65.28567504882813 170.23486328125 64.55172729492188 170.23486328125 64.55172729492188 " />
        <polyline stroke="black" stroke-width="3" stroke-linecap="round" fill="transparent" stroke-linejoin="round" points="120.32623291015624 36.66156005859375 119.59222412109376 60.14801025390625 115.9224853515625 81.43260192871094 110.0509033203125 103.45114135742188 101.24346923828124 125.46971130371094 91.7021484375 143.08456420898438 79.22491455078125 159.96542358398438 76.28912353515625 163.6351776123047 73.35333251953125 162.1672821044922 73.35333251953125 162.1672821044922 " />
        <polyline stroke="black" stroke-width="3" stroke-linecap="round" fill="transparent" stroke-linejoin="round" points="132.0694580078125 91.70794677734376 140.1429443359375 104.1851043701172 153.35400390625 120.33204650878906 176.1064453125 141.6166229248047 190.7855224609375 151.89195251464844 201.7947998046875 159.23147583007813 206.9324951171875 162.90122985839844 206.9324951171875 162.90122985839844 " />
        <polyline stroke="black" stroke-width="3" stroke-linecap="round" fill="transparent" stroke-linejoin="round" points="78.49102783203125 184.18582153320313 97.57366943359376 179.78213500976563 133.537353515625 176.84629821777344 156.289794921875 176.84629821777344 176.8404541015625 177.58026123046875 191.51953125 179.78213500976563 199.593017578125 182.71792602539065 202.5286865234375 186.38766479492188 202.5286865234375 186.38766479492188 " />
        </svg>