<?xml version="1.0" standalone="no"?>
    <svg width="256" height="256" xmlns="http://www.w3.org/2000/svg" version="1.1">
    <polyline stroke="black" stroke-width="3" stroke-linecap="round" fill="transparent" stroke-linejoin="round" points="61.29510498046875 99.84019470214844 72.92523193359375 90.6584930419922 85.77963256835938 81.47679138183594 98.02191162109376 73.51931762695313 107.81570434570313 68.01029968261719 113.32470703125 64.94973754882813 115.16107177734376 64.33761596679688 115.16107177734376 64.33761596679688 " />
        <polyline stroke="black" stroke-width="3" stroke-linecap="round" fill="transparent" stroke-linejoin="round" points="57.622406005859375 174.5180206298828 74.7615966796875 165.33631896972656 87.615966796875 156.1546173095703 100.4703369140625 144.52447509765625 111.4884033203125 129.2216339111328 117.60952758789063 109.63400268554688 117.60952758789063 109.63400268554688 " />
        <polyline stroke="black" stroke-width="3" stroke-linecap="round" fill="transparent" stroke-linejoin="round" points="93.73712158203124 50.871124267578125 91.28863525390624 65.56184387207031 87.615966796875 102.28865051269533 85.16751098632813 132.28219604492188 81.49481201171875 162.8878631591797 79.65850830078125 181.2512664794922 77.8221435546875 196.5541076660156 77.21002197265625 205.73580932617188 78.43426513671875 206.96002197265625 78.43426513671875 206.96002197265625 " />
        <polyline stroke="black" stroke-width="3" stroke-linecap="round" fill="transparent" stroke-linejoin="round" points="132.30023193359375 85.76158142089844 134.74868774414063 99.2280731201172 136.58502197265625 116.9793701171875 136.58502197265625 133.5064239501953 134.74868774414063 148.80926513671875 132.912353515625 158.6030731201172 131.6881103515625 163.49998474121094 131.6881103515625 163.49998474121094 134.74868774414063 156.1546173095703 144.54251098632813 137.17910766601563 156.17266845703125 116.36724853515624 169.02703857421875 99.84019470214844 181.88140869140625 88.82215881347656 194.1236572265625 84.537353515625 202.6932373046875 89.43426513671875 211.875 104.12498474121094 214.935546875 124.32472229003906 210.03863525390625 140.85179138183594 200.24481201171875 152.48194885253906 188.0025634765625 159.21519470214844 177.59661865234375 155.54251098632813 165.3543701171875 134.73065185546875 165.3543701171875 134.73065185546875 " />
        <polyline stroke="black" stroke-width="3" stroke-linecap="round" fill="transparent" stroke-linejoin="round" points="156.7847900390625 38.016746520996094 159.8453369140625 60.66493225097656 162.9058837890625 101.67652893066406 163.51800537109375 127.3852996826172 164.130126953125 154.3182830810547 164.130126953125 173.29379272460938 162.2938232421875 193.4935302734375 159.8453369140625 211.24481201171875 159.8453369140625 211.24481201171875 " />
        </svg>