<?xml version="1.0" standalone="no"?>
    <svg width="256" height="256" xmlns="http://www.w3.org/2000/svg" version="1.1">
    <polyline stroke="black" stroke-width="3" stroke-linecap="round" fill="transparent" stroke-linejoin="round" points="51.677093505859375 107.73931884765624 76.4576416015625 104.82260131835938 93.94979858398438 102.39199829101563 111.44195556640624 99.96141052246094 147.3980712890625 91.2112274169922 163.43255615234375 85.86390686035156 187.2413330078125 78.08596801757813 193.55792236328125 77.11372375488281 196.47332763671875 80.03044128417969 193.072021484375 85.37777709960938 193.072021484375 85.37777709960938 " />
        <polyline stroke="black" stroke-width="3" stroke-linecap="round" fill="transparent" stroke-linejoin="round" points="63.82440185546875 151.976318359375 74.99996948242188 147.1151123046875 111.44195556640624 138.36492919921875 133.30715942382813 135.44821166992188 154.68646240234375 133.5037384033203 191.6143798828125 131.07313537597656 205.70526123046875 129.61477661132813 219.310302734375 126.6980438232422 219.310302734375 126.6980438232422 " />
        <polyline stroke="black" stroke-width="3" stroke-linecap="round" fill="transparent" stroke-linejoin="round" points="87.6331787109375 49.40483093261719 91.03445434570313 82.46104431152344 92.49212646484376 105.79483032226563 93.94979858398438 152.46243286132813 94.43569946289063 174.337890625 93.94979858398438 207.39410400390625 93.46392822265624 217.6026611328125 94.43569946289063 223.92221069335935 94.43569946289063 223.92221069335935 " />
        <polyline stroke="black" stroke-width="3" stroke-linecap="round" fill="transparent" stroke-linejoin="round" points="126.504638671875 77.11372375488281 126.504638671875 104.82260131835938 127.4764404296875 128.6425323486328 128.93411254882813 173.36566162109375 129.4200439453125 191.83822631835935 129.4200439453125 205.4496154785156 129.90594482421875 217.6026611328125 129.90594482421875 217.6026611328125 " />
        <polyline stroke="black" stroke-width="3" stroke-linecap="round" fill="transparent" stroke-linejoin="round" points="159.54541015625 46.97422790527344 158.5736083984375 60.0994873046875 157.601806640625 80.51657104492188 159.05950927734375 147.1151123046875 161.489013671875 178.71299743652344 163.43255615234375 200.102294921875 163.43255615234375 200.102294921875 " />
        </svg>