<?xml version="1.0" standalone="no"?>
    <svg width="256" height="256" xmlns="http://www.w3.org/2000/svg" version="1.1">
    <polyline stroke="black" stroke-width="3" stroke-linecap="round" fill="transparent" stroke-linejoin="round" points="43.9521484375 103.066162109375 55.88848876953125 96.876953125 65.61434936523438 93.7823486328125 89.92913818359375 87.15106201171875 102.74960327148438 84.49853515625 127.50643920898438 81.4039306640625 154.4737548828125 80.96185302734375 179.2305908203125 82.28811645507813 198.240234375 84.05645751953125 209.29241943359375 86.26687622070313 214.597412109375 88.03523254394531 214.597412109375 88.03523254394531 " />
        <polyline stroke="black" stroke-width="3" stroke-linecap="round" fill="transparent" stroke-linejoin="round" points="51.467620849609375 143.73809814453125 69.15106201171875 132.6859588623047 92.58163452148438 123.84422302246094 105.84423828125 120.30752563476563 132.81149291992188 116.32876586914063 157.56829833984375 114.56040954589844 177.904296875 114.11833190917967 194.261474609375 113.23416137695313 204.87158203125 111.02371215820313 204.87158203125 111.02371215820313 " />
        <polyline stroke="black" stroke-width="3" stroke-linecap="round" fill="transparent" stroke-linejoin="round" points="100.98129272460938 56.64710998535156 94.79208374023438 80.07768249511719 89.487060546875 114.56040954589844 84.62408447265625 162.747802734375 82.41366577148438 182.1996154785156 81.08740234375 196.34637451171875 80.64532470703125 205.1881103515625 80.64532470703125 207.3985290527344 80.64532470703125 207.3985290527344 " />
        <polyline stroke="black" stroke-width="3" stroke-linecap="round" fill="transparent" stroke-linejoin="round" points="121.75933837890624 56.64710998535156 119.54891967773438 76.09890747070313 118.22265625 89.80357360839844 116.8963623046875 105.71867370605467 115.12802124023438 123.84422302246094 112.9176025390625 157.88485717773438 112.033447265625 171.14744567871094 112.033447265625 188.38882446289065 112.033447265625 198.9989013671875 112.9176025390625 202.53558349609375 112.9176025390625 202.53558349609375 " />
        <polyline stroke="black" stroke-width="3" stroke-linecap="round" fill="transparent" stroke-linejoin="round" points="165.96795654296875 47.805381774902344 165.08380126953125 71.67803955078125 165.08380126953125 84.94062805175781 165.52587890625 98.20323181152344 167.294189453125 124.28630065917967 169.06256103515625 149.0431365966797 169.94671630859375 160.09530639648438 170.38885498046875 170.26327514648438 169.94671630859375 195.904296875 169.06256103515625 210.49313354492188 169.06256103515625 210.49313354492188 " />
        </svg>