<?xml version="1.0" standalone="no"?>
    <svg width="256" height="256" xmlns="http://www.w3.org/2000/svg" version="1.1">
    <polyline stroke="black" stroke-width="3" stroke-linecap="round" fill="transparent" stroke-linejoin="round" points="106 51 106 75 106 99 106 132 106 163 106 184 106 194 107 194 107 194 " />
        <polyline stroke="black" stroke-width="3" stroke-linecap="round" fill="transparent" stroke-linejoin="round" points="153 52 153 64 153 76 153 105 149 144 149 178 149 202 149 210 149 210 " />
        <polyline stroke="black" stroke-width="3" stroke-linecap="round" fill="transparent" stroke-linejoin="round" points="201 31 201 71 201 111 200 146 198 180 198 196 195 213 195 213 " />
        <polyline stroke="black" stroke-width="3" stroke-linecap="round" fill="transparent" stroke-linejoin="round" points="72 116 102 116 132 116 165 116 194 116 216 117 230 119 234 119 234 119 " />
        <polyline stroke="black" stroke-width="3" stroke-linecap="round" fill="transparent" stroke-linejoin="round" points="62 156 75 156 88 156 102 156 132 156 166 157 181 157 208 158 218 158 218 158 " />
        </svg>