<?xml version="1.0" standalone="no"?>
    <svg width="256" height="256" xmlns="http://www.w3.org/2000/svg" version="1.1">
    <polyline stroke="black" stroke-width="3" stroke-linecap="round" fill="transparent" stroke-linejoin="round" points="91 108 100 108 109 108 128 107 139 107 161 105 179 104 192 103 197 103 197 103 " />
        <polyline stroke="black" stroke-width="3" stroke-linecap="round" fill="transparent" stroke-linejoin="round" points="86 147 95 147 104 147 125 144 149 141 168 140 182 138 190 136 191 135 191 135 " />
        <polyline stroke="black" stroke-width="3" stroke-linecap="round" fill="transparent" stroke-linejoin="round" points="113 59 113 69 113 79 114 90 117 120 117 152 117 178 117 193 117 199 119 191 119 191 " />
        <polyline stroke="black" stroke-width="3" stroke-linecap="round" fill="transparent" stroke-linejoin="round" points="146 53 146 61 146 69 146 92 146 123 146 150 146 171 146 182 146 185 146 181 147 171 147 171 " />
        <polyline stroke="black" stroke-width="3" stroke-linecap="round" fill="transparent" stroke-linejoin="round" points="174 42 174 73 174 104 174 139 174 172 175 203 177 212 177 212 " />
        </svg>