<?xml version="1.0" standalone="no"?>
    <svg width="256" height="256" xmlns="http://www.w3.org/2000/svg" version="1.1">
    <polyline stroke="black" stroke-width="3" stroke-linecap="round" fill="transparent" stroke-linejoin="round" points="42 48 42 49 42 51 42 55 42 58 42 62 43 70 44 75 45 79 47 84 47 84 50 89 57 100 60 104 63 109 64 111 65 112 65 112 " />
        <polyline stroke="black" stroke-width="3" stroke-linecap="round" fill="transparent" stroke-linejoin="round" points="111 59 111 59 112 60 112 61 112 63 112 64 112 65 112 66 111 69 107 78 105 83 99 93 91 106 88 110 81 120 81 120 72 126 69 127 66 127 " />
        <polyline stroke="black" stroke-width="3" stroke-linecap="round" fill="transparent" stroke-linejoin="round" points="31 152 33 152 36 149 41 147 48 143 57 139 63 137 72 134 84 131 91 130 95 129 98 127 102 125 111 122 118 119 120 119 121 119 121 119 " />
        <polyline stroke="black" stroke-width="3" stroke-linecap="round" fill="transparent" stroke-linejoin="round" points="83 55 83 56 83 58 83 62 83 67 83 73 82 82 80 98 78 110 78 117 77 136 77 155 77 161 77 170 77 191 77 204 77 208 77 212 76 216 76 221 76 221 75 223 75 224 74 224 74 224 " />
        <polyline stroke="black" stroke-width="3" stroke-linecap="round" fill="transparent" stroke-linejoin="round" points="67 156 65 160 60 168 56 174 53 177 50 180 46 185 41 190 36 194 32 197 29 201 25 205 22 208 21 210 20 211 19 211 " />
        <polyline stroke="black" stroke-width="3" stroke-linecap="round" fill="transparent" stroke-linejoin="round" points="70 146 72 147 76 148 82 151 88 154 92 157 97 160 103 163 106 165 107 166 108 166 109 165 109 165 " />
        <polyline stroke="black" stroke-width="3" stroke-linecap="round" fill="transparent" stroke-linejoin="round" points="137 60 138 64 140 68 142 71 145 74 147 76 148 77 149 78 151 79 151 80 152 81 152 81 152 81 " />
        <polyline stroke="black" stroke-width="3" stroke-linecap="round" fill="transparent" stroke-linejoin="round" points="188 57 188 58 184 65 180 73 176 80 172 87 165 97 157 107 152 113 146 119 137 126 129 132 123 135 118 138 112 140 108 141 106 141 " />
        <polyline stroke="black" stroke-width="3" stroke-linecap="round" fill="transparent" stroke-linejoin="round" points="139 103 143 106 150 112 155 114 165 119 169 121 179 124 183 125 193 126 198 127 208 128 216 129 223 130 228 132 231 133 233 133 234 133 235 133 " />
        <polyline stroke="black" stroke-width="3" stroke-linecap="round" fill="transparent" stroke-linejoin="round" points="161 137 157 141 155 144 152 147 149 150 142 157 139 161 135 165 128 171 125 174 123 176 119 178 115 180 109 183 106 184 103 184 " />
        <polyline stroke="black" stroke-width="3" stroke-linecap="round" fill="transparent" stroke-linejoin="round" points="158 149 160 149 162 149 167 148 171 147 176 146 178 145 180 144 187 142 190 141 197 139 198 139 199 139 200 139 201 140 201 142 197 151 197 151 188 165 179 176 175 180 170 186 164 193 153 203 150 205 147 207 139 213 132 217 127 219 121 222 117 222 109 220 " />
        <polyline stroke="black" stroke-width="3" stroke-linecap="round" fill="transparent" stroke-linejoin="round" points="136 168 141 172 149 178 151 180 154 182 157 184 163 188 176 196 181 199 185 201 193 206 196 208 208 219 213 224 217 227 220 231 222 234 " />
        </svg>