<?xml version="1.0" standalone="no"?>
    <svg width="256" height="256" xmlns="http://www.w3.org/2000/svg" version="1.1">
    <polyline stroke="black" stroke-width="3" stroke-linecap="round" fill="transparent" stroke-linejoin="round" points="54.401947021484375 72.94607543945313 65.03134155273438 89.373291015625 72.52023315429688 100.72740173339844 75.66073608398438 107.00840759277344 79.52597045898438 115.46359252929688 82.66644287109375 120.05357360839844 84.59906005859375 122.46932983398438 85.56536865234375 122.95248413085938 85.56536865234375 122.95248413085938 " />
        <polyline stroke="black" stroke-width="3" stroke-linecap="round" fill="transparent" stroke-linejoin="round" points="110.20620727539063 69.80558776855469 102.23419189453124 84.54179382324219 97.88580322265624 92.51382446289063 90.63848876953124 104.59263610839844 82.66644287109375 118.36253356933594 82.66644287109375 118.36253356933594 " />
        <polyline stroke="black" stroke-width="3" stroke-linecap="round" fill="transparent" stroke-linejoin="round" points="40.632049560546875 150.4922637939453 54.8851318359375 142.2786407470703 61.6492919921875 138.41339111328125 69.86288452148438 135.03131103515625 77.83489990234375 132.3739776611328 86.53167724609375 130.19979858398438 95.47003173828124 128.75033569335938 102.71731567382813 127.30085754394533 111.89727783203124 125.12667846679688 113.58828735351563 124.64352416992188 115.27932739257813 123.43563842773438 115.27932739257813 123.43563842773438 " />
        <polyline stroke="black" stroke-width="3" stroke-linecap="round" fill="transparent" stroke-linejoin="round" points="86.77325439453125 49.02998352050781 84.11590576171875 68.83929443359375 84.35751342773438 76.32815551757813 84.84066772460938 85.50808715820313 87.73956298828125 121.26144409179688 88.46429443359375 145.90228271484375 87.98110961914063 170.7847137451172 87.73956298828125 192.7681884765625 87.25640869140625 210.6448974609375 87.49798583984375 223.44842529296875 88.22274780273438 231.17889404296875 88.70587158203125 233.3531188964844 88.70587158203125 234.07781982421875 88.46429443359375 234.07781982421875 88.46429443359375 234.07781982421875 " />
        <polyline stroke="black" stroke-width="3" stroke-linecap="round" fill="transparent" stroke-linejoin="round" points="81.94171142578125 147.5933074951172 77.35174560546875 161.36318969726563 76.38543701171875 166.19473266601563 73.96966552734375 172.23414611816406 69.86288452148438 183.5882873535156 62.857147216796875 195.6670837402344 59.233489990234375 201.223388671875 57.542449951171875 206.2965087890625 56.576141357421875 209.1954040527344 56.576141357421875 209.1954040527344 " />
        <polyline stroke="black" stroke-width="3" stroke-linecap="round" fill="transparent" stroke-linejoin="round" points="91.36322021484376 167.16104125976563 109.48147583007813 176.58253479003906 114.07144165039063 179.72303771972656 118.17825317382813 183.829833984375 121.56033325195313 186.4871826171875 123.492919921875 187.69509887695313 124.2176513671875 187.9366455078125 124.2176513671875 187.9366455078125 " />
        <polyline stroke="black" stroke-width="3" stroke-linecap="round" fill="transparent" stroke-linejoin="round" points="142.5775146484375 68.83929443359375 152.96527099609375 78.50236511230469 157.79681396484375 82.12600708007813 160.21258544921875 85.50808715820313 161.66204833984375 88.1654052734375 161.66204833984375 88.1654052734375 " />
        <polyline stroke="black" stroke-width="3" stroke-linecap="round" fill="transparent" stroke-linejoin="round" points="183.6455078125 65.45721435546875 172.77459716796875 78.01919555664063 170.60040283203125 81.40127563476563 168.18463134765625 85.02493286132813 164.56097412109375 92.75537109375 160.4542236328125 100.96900939941406 153.93157958984375 107.97471618652344 145.718017578125 117.63778686523438 140.4033203125 123.1940460205078 133.8807373046875 127.54244995117188 127.1165771484375 130.92453002929688 123.492919921875 132.13241577148438 123.492919921875 132.13241577148438 " />
        <polyline stroke="black" stroke-width="3" stroke-linecap="round" fill="transparent" stroke-linejoin="round" points="116.97036743164063 98.070068359375 136.2965087890625 107.25001525878906 142.09432983398438 110.87362670898438 151.2742919921875 115.46359252929688 161.66204833984375 119.57041931152344 173.0162353515625 125.12667846679688 186.30291748046875 131.6492462158203 192.825439453125 134.54815673828125 196.93231201171875 135.5144805908203 198.38177490234375 135.75604248046875 198.623291015625 135.5144805908203 198.14019775390625 135.5144805908203 198.14019775390625 135.5144805908203 " />
        <polyline stroke="black" stroke-width="3" stroke-linecap="round" fill="transparent" stroke-linejoin="round" points="151.2742919921875 139.3797149658203 149.10009765625 156.7732391357422 147.650634765625 161.36318969726563 142.3359375 175.13308715820313 138.47073364257813 184.0714111328125 133.63916015625 191.0771484375 129.290771484375 195.425537109375 126.1502685546875 198.32443237304688 124.2176513671875 199.77389526367188 123.97610473632813 200.01547241210935 123.97610473632813 200.01547241210935 " />
        <polyline stroke="black" stroke-width="3" stroke-linecap="round" fill="transparent" stroke-linejoin="round" points="141.36962890625 158.94744873046875 155.86419677734375 154.84063720703125 159.4879150390625 154.84063720703125 162.62835693359375 154.84063720703125 173.25775146484375 156.0485076904297 178.57244873046875 157.4979705810547 180.98822021484375 158.4642791748047 182.43768310546875 160.63848876953125 183.16241455078125 165.2284393310547 180.74664306640625 172.95887756347656 175.67352294921875 181.89724731445313 167.45989990234375 193.49288940429688 162.145263671875 201.4649353027344 154.1732177734375 209.43698120117188 148.1337890625 214.75167846679688 143.5438232421875 219.58319091796875 137.021240234375 225.13946533203125 137.021240234375 225.13946533203125 " />
        <polyline stroke="black" stroke-width="3" stroke-linecap="round" fill="transparent" stroke-linejoin="round" points="144.26849365234375 190.3524169921875 160.69573974609375 199.77389526367188 163.11151123046875 202.4312438964844 166.73516845703125 206.77963256835935 177.60614013671875 214.0269470214844 183.16241455078125 216.44271850585935 187.02764892578125 218.13375854492188 188.96026611328125 218.61688232421875 188.96026611328125 218.61688232421875 " />
        </svg>