<?xml version="1.0" standalone="no"?>
    <svg width="256" height="256" xmlns="http://www.w3.org/2000/svg" version="1.1">
    <polyline stroke="black" stroke-width="3" stroke-linecap="round" fill="transparent" stroke-linejoin="round" points="41.33331298828125 84.22222900390625 52.888916015625 96.66667175292967 57.33331298828125 96.66667175292967 66.22222900390625 94.888916015625 66.22222900390625 94.888916015625 " />
        <polyline stroke="black" stroke-width="3" stroke-linecap="round" fill="transparent" stroke-linejoin="round" points="88.4444580078125 61.11112976074219 76 82.44444274902344 66.22222900390625 97.55557250976563 66.22222900390625 97.55557250976563 " />
        <polyline stroke="black" stroke-width="3" stroke-linecap="round" fill="transparent" stroke-linejoin="round" points="36.888916015625 130.44447326660156 50.22222900390625 118.88888549804688 69.77777099609375 107.33332824707033 87.5555419921875 98.44444274902344 95.55560302734376 94 100.888916015625 92.22224426269533 100.888916015625 92.22224426269533 " />
        <polyline stroke="black" stroke-width="3" stroke-linecap="round" fill="transparent" stroke-linejoin="round" points="66.22222900390625 54.888885498046875 65.33331298828125 80.66667175292969 66.22222900390625 98.44444274902344 69.77777099609375 133.1111297607422 75.11114501953125 165.11111450195313 81.33331298828125 200.66665649414065 83.11114501953125 212.22222900390625 82.2222900390625 213.11111450195313 79.5555419921875 207.77777099609375 79.5555419921875 207.77777099609375 " />
        <polyline stroke="black" stroke-width="3" stroke-linecap="round" fill="transparent" stroke-linejoin="round" points="60.00006103515625 120.66667175292967 52 139.33335876464844 47.5555419921875 158 44.888916015625 171.3333282470703 44 176.6666717529297 45.77777099609375 174.888916015625 53.77777099609375 165.11111450195313 68.88897705078125 151.7777862548828 86.666748046875 138.44444274902344 92.888916015625 132.22222900390625 92.888916015625 132.22222900390625 " />
        <polyline stroke="black" stroke-width="3" stroke-linecap="round" fill="transparent" stroke-linejoin="round" points="110.66668701171876 75.33332824707031 133.77777099609375 84.22222900390625 133.77777099609375 84.22222900390625 " />
        <polyline stroke="black" stroke-width="3" stroke-linecap="round" fill="transparent" stroke-linejoin="round" points="142.66668701171875 50.44444274902344 138.22222900390625 68.22222900390625 131.11114501953125 90.44444274902344 124 110.88890075683594 118.66668701171876 124.22224426269533 115.11114501953124 132.22222900390625 114.22222900390624 133.1111297607422 114.22222900390624 133.1111297607422 " />
        <polyline stroke="black" stroke-width="3" stroke-linecap="round" fill="transparent" stroke-linejoin="round" points="112.4444580078125 98.44444274902344 180.00006103515625 129.55555725097656 183.5555419921875 128.66668701171875 185.33331298828125 127.7777862548828 185.33331298828125 127.7777862548828 " />
        <polyline stroke="black" stroke-width="3" stroke-linecap="round" fill="transparent" stroke-linejoin="round" points="133.77777099609375 145.55555725097656 123.11114501953124 166.00003051757813 118.66668701171876 173.11111450195313 117.77783203125 174 117.77783203125 168.6666717529297 118.66668701171876 165.11111450195313 118.66668701171876 165.11111450195313 " />
        <polyline stroke="black" stroke-width="3" stroke-linecap="round" fill="transparent" stroke-linejoin="round" points="128.4444580078125 150.88890075683594 143.5555419921875 142.00001525878906 155.11114501953125 137.55557250976563 156.888916015625 137.55557250976563 156.888916015625 139.33335876464844 147.11114501953125 162.44444274902344 136.4444580078125 183.77780151367188 126.666748046875 199.77777099609375 119.5555419921875 211.33334350585935 118.66668701171876 213.11111450195313 116.888916015625 212.22222900390625 116.888916015625 212.22222900390625 " />
        <polyline stroke="black" stroke-width="3" stroke-linecap="round" fill="transparent" stroke-linejoin="round" points="124 166.88888549804688 133.77777099609375 181.11111450195313 140.00006103515625 185.5555725097656 160.4444580078125 198.88888549804688 180.888916015625 207.77777099609375 195.11114501953125 211.33334350585935 206.66668701171875 212.22222900390625 206.66668701171875 212.22222900390625 " />
        </svg>