<?xml version="1.0" standalone="no"?>
    <svg width="256" height="256" xmlns="http://www.w3.org/2000/svg" version="1.1">
    <polyline stroke="black" stroke-width="3" stroke-linecap="round" fill="transparent" stroke-linejoin="round" points="64 93 62 92 62 96 64 101 65 103 69 109 73 113 79 114 79 114 " />
        <polyline stroke="black" stroke-width="3" stroke-linecap="round" fill="transparent" stroke-linejoin="round" points="117 81 115 84 112 91 105 100 95 110 89 116 89 116 " />
        <polyline stroke="black" stroke-width="3" stroke-linecap="round" fill="transparent" stroke-linejoin="round" points="37 155 38 152 43 148 54 143 66 137 80 130 93 124 103 119 110 115 113 114 113 114 " />
        <polyline stroke="black" stroke-width="3" stroke-linecap="round" fill="transparent" stroke-linejoin="round" points="90 67 89 66 89 72 90 80 90 84 88 104 86 127 85 149 84 170 84 185 85 196 85 202 85 203 85 206 85 207 84 208 83 207 82 205 82 205 " />
        <polyline stroke="black" stroke-width="3" stroke-linecap="round" fill="transparent" stroke-linejoin="round" points="85 137 83 137 81 141 79 151 75 163 68 175 58 190 49 201 45 205 37 214 34 217 26 225 24 227 24 227 " />
        <polyline stroke="black" stroke-width="3" stroke-linecap="round" fill="transparent" stroke-linejoin="round" points="91 143 90 143 90 144 91 146 92 149 93 150 97 153 100 157 102 159 105 162 106 164 106 164 " />
        <polyline stroke="black" stroke-width="3" stroke-linecap="round" fill="transparent" stroke-linejoin="round" points="138 90 137 88 136 88 137 91 139 95 141 99 144 102 145 102 145 102 " />
        <polyline stroke="black" stroke-width="3" stroke-linecap="round" fill="transparent" stroke-linejoin="round" points="178 81 177 81 173 85 168 94 160 106 148 119 133 133 121 144 112 151 106 155 106 155 " />
        <polyline stroke="black" stroke-width="3" stroke-linecap="round" fill="transparent" stroke-linejoin="round" points="122 115 123 114 125 116 132 121 139 125 141 127 149 129 151 130 159 132 162 133 171 135 177 137 178 138 178 138 " />
        <polyline stroke="black" stroke-width="3" stroke-linecap="round" fill="transparent" stroke-linejoin="round" points="145 145 140 146 137 152 135 159 132 166 129 172 128 173 128 173 " />
        <polyline stroke="black" stroke-width="3" stroke-linecap="round" fill="transparent" stroke-linejoin="round" points="140 157 144 153 150 151 157 149 162 148 164 148 168 147 169 148 171 149 172 150 172 153 169 159 165 167 158 178 148 190 138 201 130 210 125 214 124 215 119 217 119 217 " />
        <polyline stroke="black" stroke-width="3" stroke-linecap="round" fill="transparent" stroke-linejoin="round" points="141 175 144 173 145 174 149 177 156 181 163 186 171 190 180 193 188 196 188 196 " />
        </svg>