<?xml version="1.0" standalone="no"?>
    <svg width="256" height="256" xmlns="http://www.w3.org/2000/svg" version="1.1">
    <polyline stroke="black" stroke-width="3" stroke-linecap="round" fill="transparent" stroke-linejoin="round" points="81.51446533203125 70.42332458496094 81.51446533203125 90.2400360107422 82.248291015625 104.9190673828125 83.7161865234375 114.46043395996094 85.18414306640625 116.66227722167967 85.9180908203125 118.8641357421875 88.11993408203125 118.8641357421875 92.523681640625 117.39625549316406 101.3310546875 111.5246124267578 108.6705322265625 107.12091064453124 119.67987060546876 102.71722412109376 132.156982421875 98.31349182128906 140.9644775390625 95.37771606445313 143.9002685546875 94.64372253417967 145.3681640625 94.64372253417967 146.1021728515625 95.37771606445313 146.1021728515625 95.37771606445313 " />
        <polyline stroke="black" stroke-width="3" stroke-linecap="round" fill="transparent" stroke-linejoin="round" points="151.2398681640625 72.62518310546875 151.9736328125 79.23077392578125 154.175537109375 88.77212524414063 156.37744140625 94.64372253417967 157.111328125 97.5795440673828 157.111328125 97.5795440673828 " />
        <polyline stroke="black" stroke-width="3" stroke-linecap="round" fill="transparent" stroke-linejoin="round" points="118.94586181640624 129.13946533203125 120.413818359375 143.8184814453125 121.14776611328124 156.29566955566406 121.88177490234376 158.49752807617188 122.61566162109376 162.1672821044922 122.61566162109376 162.1672821044922 " />
        <polyline stroke="black" stroke-width="3" stroke-linecap="round" fill="transparent" stroke-linejoin="round" points="80.7803955078125 196.6629943847656 107.20269775390624 188.58953857421875 136.560791015625 184.91976928710935 165.9188232421875 184.18582153320313 190.8731689453125 184.18582153320313 212.8917236328125 184.18582153320313 217.29541015625 184.18582153320313 221.6990966796875 183.45187377929688 223.9010009765625 184.18582153320313 224.635009765625 186.38766479492188 224.635009765625 186.38766479492188 " />
        </svg>