<?xml version="1.0" standalone="no"?>
    <svg width="256" height="256" xmlns="http://www.w3.org/2000/svg" version="1.1">
    <polyline stroke="black" stroke-width="3" stroke-linecap="round" fill="transparent" stroke-linejoin="round" points="70.0831298828125 72.08973693847656 68.35086059570313 85.94804382324219 67.7734375 99.22892761230467 67.19598388671875 109.62266540527344 68.35086059570313 115.97439575195313 71.23800659179688 120.0164031982422 77.01229858398438 121.1712646484375 101.26434326171876 116.55181884765624 127.24868774414063 106.73551940917967 138.2198486328125 99.80636596679688 150.34588623046875 86.52548217773438 150.34588623046875 86.52548217773438 " />
        <polyline stroke="black" stroke-width="3" stroke-linecap="round" fill="transparent" stroke-linejoin="round" points="154.96533203125 56.49913024902344 153.8104248046875 69.20257568359375 150.92330932617188 85.94804382324219 145.14901733398438 103.27093505859376 145.14901733398438 103.27093505859376 " />
        <polyline stroke="black" stroke-width="3" stroke-linecap="round" fill="transparent" stroke-linejoin="round" points="101.841796875 139.64901733398438 100.1094970703125 147.7330322265625 96.6448974609375 156.3944854736328 91.44805908203124 164.47850036621094 85.0963134765625 171.40765380859375 76.43487548828125 178.33680725097656 68.92828369140625 182.95623779296875 61.9991455078125 185.8433837890625 57.957122802734375 188.15310668945313 56.224822998046875 188.15310668945313 59.68939208984375 188.15310668945313 68.35086059570313 184.68853759765625 86.82861328125 178.33680725097656 107.6160888671875 172.56251525878906 128.98098754882813 167.3656463623047 148.03616333007813 163.90106201171875 159.58477783203125 163.32363891601563 167.09130859375 163.90106201171875 172.2882080078125 166.21078491210938 172.2882080078125 166.21078491210938 " />
        </svg>