<?xml version="1.0" standalone="no"?>
    <svg width="256" height="256" xmlns="http://www.w3.org/2000/svg" version="1.1">
    <polyline stroke="black" stroke-width="3" stroke-linecap="round" fill="transparent" stroke-linejoin="round" points="65.388671875 58.801513671875 65.00732421875 64.90304565429688 65.00732421875 76.72476196289063 65.00732421875 82.4449462890625 65.388671875 87.78378295898438 66.1513671875 96.93606567382813 66.9140625 100.74951171875 69.20211791992188 107.23239135742188 73.01559448242188 112.18988037109376 79.11712646484375 116.76603698730467 87.8880615234375 119.81680297851563 99.32846069335938 120.19815063476563 110.387451171875 118.67276000976563 121.06512451171876 116.00335693359376 131.74276733398438 112.18988037109376 142.03912353515625 105.70701599121094 151.19140625 96.17337036132813 151.19140625 96.17337036132813 " />
        <polyline stroke="black" stroke-width="3" stroke-linecap="round" fill="transparent" stroke-linejoin="round" points="162.63177490234375 56.51344299316406 165.30120849609375 70.62322998046875 165.68255615234375 87.78378295898438 163.39447021484375 104.94432067871094 163.39447021484375 104.94432067871094 " />
        <polyline stroke="black" stroke-width="3" stroke-linecap="round" fill="transparent" stroke-linejoin="round" points="113.056884765625 136.2146453857422 112.675537109375 142.69754028320313 111.912841796875 149.94309997558594 109.243408203125 164.05288696289063 104.667236328125 175.49325561523438 101.61651611328124 179.6880340576172 94.75228881835938 187.31494140625 94.75228881835938 187.31494140625 " />
        <polyline stroke="black" stroke-width="3" stroke-linecap="round" fill="transparent" stroke-linejoin="round" points="59.66845703125 193.79782104492188 67.6767578125 191.89111328125 76.82904052734375 189.984375 96.27767944335938 185.78958129882813 106.192626953125 183.50149536132813 126.78533935546876 179.3066864013672 146.23388671875 175.11190795898438 162.25042724609375 171.67979431152344 175.2161865234375 169.77305603027344 183.2244873046875 169.01036071777344 185.89385986328125 169.01036071777344 185.89385986328125 169.01036071777344 " />
        </svg>