<?xml version="1.0" standalone="no"?>
    <svg width="256" height="256" xmlns="http://www.w3.org/2000/svg" version="1.1">
    <polyline stroke="black" stroke-width="3" stroke-linecap="round" fill="transparent" stroke-linejoin="round" points="59 107 59 107 61 107 64 107 67 108 71 108 78 108 83 108 89 107 94 105 99 102 104 98 109 92 111 89 " />
        <polyline stroke="black" stroke-width="3" stroke-linecap="round" fill="transparent" stroke-linejoin="round" points="92 80 90 88 89 97 88 108 87 119 86 129 84 144 82 153 79 160 76 166 73 169 71 171 66 173 62 173 60 173 58 173 58 173 58 173 60 171 63 169 67 167 73 164 79 161 87 157 95 151 105 145 116 138 121 134 " />
        <polyline stroke="black" stroke-width="3" stroke-linecap="round" fill="transparent" stroke-linejoin="round" points="139 74 138 75 136 78 133 85 129 94 125 105 121 118 116 136 113 147 110 157 109 165 107 171 106 176 105 178 105 179 105 179 " />
        <polyline stroke="black" stroke-width="3" stroke-linecap="round" fill="transparent" stroke-linejoin="round" points="115 146 118 145 120 145 125 147 129 150 133 152 138 155 142 157 147 159 151 160 157 159 160 157 " />
        <polyline stroke="black" stroke-width="3" stroke-linecap="round" fill="transparent" stroke-linejoin="round" points="174 75 173 73 171 75 169 82 165 100 162 114 159 130 157 147 155 162 153 174 152 184 151 190 150 194 150 195 150 195 " />
        <polyline stroke="black" stroke-width="3" stroke-linecap="round" fill="transparent" stroke-linejoin="round" points="152 155 153 154 155 153 159 153 163 154 167 156 173 159 179 163 185 168 191 172 195 177 199 182 204 186 207 189 " />
        </svg>