<?xml version="1.0" standalone="no"?>
    <svg width="256" height="256" xmlns="http://www.w3.org/2000/svg" version="1.1">
    <polyline stroke="black" stroke-width="3" stroke-linecap="round" fill="transparent" stroke-linejoin="round" points="49.679962158203125 137.5478973388672 53.31005859375 136.557861328125 78.39105224609375 123.02734375 82.35116577148438 119.397216796875 92.91159057617188 96.62638854980467 92.91159057617188 96.62638854980467 92.91159057617188 96.62638854980467 " />
        <polyline stroke="black" stroke-width="3" stroke-linecap="round" fill="transparent" stroke-linejoin="round" points="59.580322265625 110.81689453125 58.59027099609375 116.09709167480467 55.950164794921875 145.13818359375 54.96014404296875 150.74838256835938 47.699859619140625 170.879150390625 42.089630126953125 180.11947631835938 34.4993896484375 189.35986328125 31.19921875 192.3299560546875 30.209228515625 193.32000732421875 37.469482421875 189.6898498535156 49.679962158203125 180.44949340820313 64.20046997070313 170.2191162109375 77.40097045898438 159.98875427246094 92.91159057617188 145.46820068359375 92.91159057617188 145.46820068359375 92.91159057617188 145.46820068359375 " />
        <polyline stroke="black" stroke-width="3" stroke-linecap="round" fill="transparent" stroke-linejoin="round" points="97.20172119140624 104.54666137695313 93.2415771484375 115.1070556640625 76.740966796875 174.83929443359375 74.43084716796875 184.07965087890625 70.14071655273438 200.58029174804688 68.8206787109375 205.53042602539065 68.8206787109375 206.19049072265625 68.8206787109375 206.19049072265625 68.8206787109375 206.19049072265625 " />
        <polyline stroke="black" stroke-width="3" stroke-linecap="round" fill="transparent" stroke-linejoin="round" points="99.841796875 169.55908203125 118.32254028320313 176.48934936523438 134.49310302734375 175.16932678222656 134.49310302734375 175.16932678222656 134.49310302734375 175.16932678222656 " />
        <polyline stroke="black" stroke-width="3" stroke-linecap="round" fill="transparent" stroke-linejoin="round" points="155.283935546875 95.30632019042967 140.76333618164063 142.82809448242188 136.80319213867188 156.68861389160156 132.84304809570313 167.5790252685547 128.55288696289063 178.13943481445313 126.57281494140624 182.09957885742188 126.57281494140624 182.09957885742188 126.57281494140624 182.09957885742188 " />
        <polyline stroke="black" stroke-width="3" stroke-linecap="round" fill="transparent" stroke-linejoin="round" points="154.62384033203125 143.81814575195313 158.9140625 144.14813232421875 182.6749267578125 150.4183807373047 186.63507080078125 152.72845458984375 198.84552001953125 163.9488983154297 208.4158935546875 189.02984619140625 214.026123046875 203.5503845214844 214.026123046875 203.5503845214844 " />
        </svg>