<?xml version="1.0" standalone="no"?>
    <svg width="256" height="256" xmlns="http://www.w3.org/2000/svg" version="1.1">
    <polyline stroke="black" stroke-width="3" stroke-linecap="round" fill="transparent" stroke-linejoin="round" points="53 111 53 111 54 111 56 110 59 110 63 110 68 109 73 108 79 108 87 107 92 106 97 105 101 104 103 103 104 102 " />
        <polyline stroke="black" stroke-width="3" stroke-linecap="round" fill="transparent" stroke-linejoin="round" points="85 86 81 95 81 98 78 109 76 117 74 125 73 132 70 138 68 143 66 148 62 153 59 155 57 156 55 157 53 157 52 157 51 158 50 158 50 158 50 158 51 157 52 157 57 156 62 155 68 154 75 152 83 150 92 146 100 141 105 139 109 136 " />
        <polyline stroke="black" stroke-width="3" stroke-linecap="round" fill="transparent" stroke-linejoin="round" points="132 64 131 65 129 68 126 74 122 82 118 91 112 108 108 119 105 130 101 140 98 149 95 158 93 165 90 170 89 173 89 174 " />
        <polyline stroke="black" stroke-width="3" stroke-linecap="round" fill="transparent" stroke-linejoin="round" points="107 141 109 141 112 142 114 143 118 145 120 147 123 149 126 151 130 153 133 153 " />
        <polyline stroke="black" stroke-width="3" stroke-linecap="round" fill="transparent" stroke-linejoin="round" points="158 63 154 68 150 76 146 85 143 94 140 104 137 118 136 122 134 130 132 140 132 143 132 146 " />
        <polyline stroke="black" stroke-width="3" stroke-linecap="round" fill="transparent" stroke-linejoin="round" points="139 122 141 123 145 124 148 126 152 129 157 132 162 136 167 141 172 147 177 154 180 158 " />
        </svg>