<?xml version="1.0" standalone="no"?>
    <svg width="256" height="256" xmlns="http://www.w3.org/2000/svg" version="1.1">
    <polyline stroke="black" stroke-width="3" stroke-linecap="round" fill="transparent" stroke-linejoin="round" points="144.77777099609375 55.555572509765625 127 108.88888549804688 112.77780151367188 135.55555725097656 97.66665649414063 157.7777862548828 87 171.11111450195313 82.55557250976563 174.6666717529297 79 171.11111450195313 79 171.11111450195313 " />
        <polyline stroke="black" stroke-width="3" stroke-linecap="round" fill="transparent" stroke-linejoin="round" points="102.11111450195313 102.6667022705078 118.11111450195313 121.33332824707033 128.77777099609375 131.11111450195313 136.77777099609375 136.4444580078125 144.77777099609375 144.44444274902344 144.77777099609375 146.22222900390625 143 147.11114501953125 143 147.11114501953125 " />
        <polyline stroke="black" stroke-width="3" stroke-linecap="round" fill="transparent" stroke-linejoin="round" points="72.77780151367188 113.33332824707033 71 139.11111450195313 71 157.7777862548828 71.88888549804688 172.88888549804688 74.55557250976563 185.33334350585935 77.22225952148438 188.88888549804688 84.33334350585938 193.33334350585935 100.33334350585938 196.88888549804688 122.55557250976563 197.77777099609375 153.66665649414063 197.77777099609375 169.66665649414063 197.77777099609375 179.4444580078125 197.77777099609375 184.77777099609375 197.77777099609375 191 196.88888549804688 191.88888549804688 195.11111450195313 191.88888549804688 185.33334350585935 189.22222900390625 173.77780151367188 180.33334350585935 163.11111450195313 180.33334350585935 163.11111450195313 " />
        </svg>