<?xml version="1.0" standalone="no"?>
    <svg width="256" height="256" xmlns="http://www.w3.org/2000/svg" version="1.1">
    <polyline stroke="black" stroke-width="3" stroke-linecap="round" fill="transparent" stroke-linejoin="round" points="152 50 152 52 153 54 153 58 152 64 151 68 149 73 143 84 139 92 134 99 127 109 119 119 111 128 109 131 99 141 94 146 88 152 84 156 76 161 63 169 54 169 54 169 " />
        <polyline stroke="black" stroke-width="3" stroke-linecap="round" fill="transparent" stroke-linejoin="round" points="96 92 97 93 99 94 101 96 104 98 113 102 122 108 123 110 125 111 127 113 136 120 145 129 148 132 152 135 157 139 165 146 166 148 167 148 168 149 169 150 169 150 " />
        <polyline stroke="black" stroke-width="3" stroke-linecap="round" fill="transparent" stroke-linejoin="round" points="55 47 56 48 57 50 59 54 61 62 62 65 64 71 67 80 67 80 68 85 69 92 69 92 71 108 72 127 72 130 72 147 73 155 73 161 73 166 72 174 72 182 72 192 72 200 72 205 72 207 72 210 74 214 76 217 78 219 80 220 82 221 85 222 95 224 99 225 104 225 108 225 112 226 117 227 129 228 133 228 138 228 138 228 149 229 164 228 165 228 173 227 178 227 183 226 188 225 190 225 192 224 193 224 195 224 199 222 199 222 200 222 200 221 200 221 201 221 201 221 201 220 200 217 199 215 198 207 197 195 197 190 197 185 198 175 198 175 " />
        </svg>