<?xml version="1.0" standalone="no"?>
    <svg width="256" height="256" xmlns="http://www.w3.org/2000/svg" version="1.1">
    <polyline stroke="black" stroke-width="3" stroke-linecap="round" fill="transparent" stroke-linejoin="round" points="103 58 132 46 151 41 169 39 182 38 190 38 193 39 193 45 190 58 179 72 170 85 160 94 157 98 157 98 " />
        <polyline stroke="black" stroke-width="3" stroke-linecap="round" fill="transparent" stroke-linejoin="round" points="129 96 144 99 160 101 175 104 190 110 201 117 203 119 203 119 " />
        <polyline stroke="black" stroke-width="3" stroke-linecap="round" fill="transparent" stroke-linejoin="round" points="112 157 113 176 115 189 118 203 121 216 123 223 124 225 124 225 " />
        <polyline stroke="black" stroke-width="3" stroke-linecap="round" fill="transparent" stroke-linejoin="round" points="112 154 125 144 132 144 148 144 165 145 180 150 190 155 196 159 197 165 197 178 196 194 190 208 190 208 " />
        <polyline stroke="black" stroke-width="3" stroke-linecap="round" fill="transparent" stroke-linejoin="round" points="120 223 151 217 173 215 196 214 204 214 204 214 " />
        </svg>