<?xml version="1.0" standalone="no"?>
    <svg width="256" height="256" xmlns="http://www.w3.org/2000/svg" version="1.1">
    <polyline stroke="black" stroke-width="3" stroke-linecap="round" fill="transparent" stroke-linejoin="round" points="116 43 115 43 115 45 113 51 108 65 106 70 99 86 94 95 90 104 86 112 83 117 81 122 79 124 79 125 79 125 " />
        <polyline stroke="black" stroke-width="3" stroke-linecap="round" fill="transparent" stroke-linejoin="round" points="104 83 111 80 118 77 127 74 133 72 139 70 143 68 147 66 151 64 154 62 156 62 157 62 " />
        <polyline stroke="black" stroke-width="3" stroke-linecap="round" fill="transparent" stroke-linejoin="round" points="115 82 113 86 111 91 111 96 111 102 112 109 114 114 115 117 117 121 119 123 122 124 126 123 129 122 " />
        <polyline stroke="black" stroke-width="3" stroke-linecap="round" fill="transparent" stroke-linejoin="round" points="147 84 143 92 137 103 130 117 117 141 109 156 101 170 95 182 89 191 87 195 83 202 82 204 " />
        <polyline stroke="black" stroke-width="3" stroke-linecap="round" fill="transparent" stroke-linejoin="round" points="95 134 100 132 105 130 111 128 117 126 127 123 134 120 142 116 149 113 156 110 163 107 168 106 171 106 " />
        <polyline stroke="black" stroke-width="3" stroke-linecap="round" fill="transparent" stroke-linejoin="round" points="118 133 115 139 113 147 112 156 111 165 111 176 112 185 113 198 114 205 115 210 116 213 117 216 118 217 120 216 124 212 129 200 134 189 136 183 137 178 " />
        <polyline stroke="black" stroke-width="3" stroke-linecap="round" fill="transparent" stroke-linejoin="round" points="132 135 133 136 135 138 137 141 141 145 145 151 149 157 153 164 159 176 163 183 166 191 169 199 171 204 173 208 " />
        </svg>