<?xml version="1.0" standalone="no"?>
    <svg width="256" height="256" xmlns="http://www.w3.org/2000/svg" version="1.1">
    <polyline stroke="black" stroke-width="3" stroke-linecap="round" fill="transparent" stroke-linejoin="round" points="110.773193359375 49.96068572998047 105.082275390625 63.219146728515625 87.593505859375 98.339111328125 77.98529052734375 116.1938934326172 57.80670166015625 152.83236694335938 49.71160888671875 166.65756225585938 37.43389892578125 184.95855712890625 29.226043701171875 194.037841796875 29.18353271484375 193.81207275390625 29.179290771484375 193.7894592285156 " />
        <polyline stroke="black" stroke-width="3" stroke-linecap="round" fill="transparent" stroke-linejoin="round" points="131.439697265625 79.77497863769531 151.57080078125 103.96694946289063 162.8162841796875 115.75143432617188 182.76708984375 141.13462829589844 195.17034912109375 153.2633514404297 211.7606201171875 168.24563598632813 214.901611328125 173.4061279296875 214.935546875 173.55270385742188 234.01092529296875 177.90591430664063 236.0943603515625 175.92132568359375 " />
        <polyline stroke="black" stroke-width="3" stroke-linecap="round" fill="transparent" stroke-linejoin="round" points="106.32635498046876 123.7932586669922 103.38229370117188 135.52590942382813 99.80245971679688 148.27842712402344 91.8848876953125 169.16281127929688 88.527099609375 176.31689453125 85.9208984375 181.42002868652344 83.1817626953125 186.07180786132813 81.876708984375 188.7337951660156 81.95892333984375 190.12774658203125 83.15463256835938 193.95306396484375 84.95455932617188 196.76693725585935 86.5657958984375 197.58111572265625 94.88775634765624 198.1607666015625 102.46322631835938 196.65798950195313 109.38037109375 194.48580932617188 122.100341796875 190.55838012695313 127.0654296875 189.0362548828125 134.19268798828125 187.2919921875 136.121826171875 186.78564453125 136.23553466796875 186.73272705078125 " />
        <polyline stroke="black" stroke-width="3" stroke-linecap="round" fill="transparent" stroke-linejoin="round" points="146.86996459960938 194.96499633789065 149.76080322265625 201.4754638671875 152.877197265625 208.51483154296875 153.1236572265625 209.08282470703125 " />
        </svg>