<?xml version="1.0" standalone="no"?>
    <svg width="256" height="256" xmlns="http://www.w3.org/2000/svg" version="1.1">
    <polyline stroke="black" stroke-width="3" stroke-linecap="round" fill="transparent" stroke-linejoin="round" points="66.16946411132813 93.61546325683594 76.86831665039063 81.72784423828125 88.75592041015625 69.84022521972656 103.02108764648438 58.54698181152344 115.50311279296876 49.036888122558594 126.20196533203124 42.49869537353515 132.74014282226563 39.52678680419922 135.7120361328125 38.33802795410156 135.7120361328125 40.715553283691406 130.36260986328125 48.4425048828125 115.50311279296876 68.65145874023438 96.48291015625 99.5592803955078 82.8121337890625 123.3345184326172 72.11328125 147.10977172851563 62.0087890625 167.91310119628906 57.253753662109375 178.61196899414063 54.876220703125 183.96139526367188 54.281829833984375 186.33892822265625 56.064971923828125 183.96139526367188 61.4144287109375 176.82882690429688 78.65145874023438 155.4311065673828 91.72784423828124 139.3828125 101.23794555664063 129.87271118164063 112.53118896484376 122.74014282226563 119.06939697265624 120.95700073242188 123.82443237304688 124.52328491210938 127.985107421875 142.9490966796875 122.041259765625 178.61196899414063 117.2862548828125 190.49957275390625 110.748046875 195.8490295410156 103.615478515625 197.63217163085935 98.26605224609376 193.47149658203125 98.26605224609376 193.47149658203125 " />
        <polyline stroke="black" stroke-width="3" stroke-linecap="round" fill="transparent" stroke-linejoin="round" points="145.22213745117188 76.37841796875 152.9490966796875 84.69975280761719 155.9210205078125 88.86041259765625 162.459228515625 90.04917907714844 162.459228515625 90.04917907714844 " />
        <polyline stroke="black" stroke-width="3" stroke-linecap="round" fill="transparent" stroke-linejoin="round" points="211.198486328125 69.245849609375 203.47149658203125 84.10537719726563 188.6119384765625 97.1817626953125 170.780517578125 110.85252380371094 154.73223876953125 120.36262512207033 143.43899536132813 125.11766052246094 138.08956909179688 126.90080261230467 135.7120361328125 126.90080261230467 139.2783203125 123.3345184326172 149.9771728515625 116.79632568359376 168.99737548828125 109.0693817138672 189.20635986328125 101.34242248535156 207.03778076171875 94.80422973632813 218.3310546875 89.45480346679688 224.86920166015625 84.69975280761719 224.86920166015625 84.69975280761719 " />
        <polyline stroke="black" stroke-width="3" stroke-linecap="round" fill="transparent" stroke-linejoin="round" points="190.989501953125 42.49869537353515 181.4793701171875 63.89640808105469 172.56365966796875 88.86041259765625 163.64794921875 112.63566589355467 154.73223876953125 135.22213745117188 147.00531005859375 153.64796447753906 141.06146240234375 165.53558349609375 137.49517822265625 172.66815185546875 135.11767578125 175.04568481445313 137.49517822265625 169.6962432861328 141.06146240234375 159.59176635742188 145.8165283203125 152.45919799804688 151.16595458984375 147.7041473388672 160.676025390625 145.32662963867188 173.1580810546875 144.73223876953125 187.4232177734375 147.10977172851563 200.49957275390625 149.48728942871094 208.2265625 151.2704315185547 214.7647705078125 152.45919799804688 214.7647705078125 152.45919799804688 " />
        <polyline stroke="black" stroke-width="3" stroke-linecap="round" fill="transparent" stroke-linejoin="round" points="158.29852294921875 168.5074920654297 151.76031494140625 177.42320251464844 148.7884521484375 186.93328857421875 145.8165283203125 197.63217163085935 144.03338623046875 205.35910034179688 144.03338623046875 210.70855712890625 144.03338623046875 211.89730834960935 145.22213745117188 207.73663330078125 147.59967041015625 200.0096740722656 154.13787841796875 188.1220703125 161.86480712890625 178.017578125 171.96929931640625 170.29063415527344 183.2625732421875 166.1299591064453 192.77264404296875 164.34681701660156 199.90521240234375 165.53558349609375 204.6602783203125 169.10186767578125 205.8489990234375 176.23443603515625 198.1220703125 199.41531372070313 183.85693359375 215.46359252929688 183.85693359375 215.46359252929688 " />
        <polyline stroke="black" stroke-width="3" stroke-linecap="round" fill="transparent" stroke-linejoin="round" points="145.22213745117188 217.24673461914065 153.54345703125 212.49169921875 165.43109130859375 208.33102416992188 179.10186767578125 204.7647399902344 191.5838623046875 202.98159790039065 202.8770751953125 208.33102416992188 202.8770751953125 208.33102416992188 " />
        </svg>