<?xml version="1.0" standalone="no"?>
    <svg width="256" height="256" xmlns="http://www.w3.org/2000/svg" version="1.1">
    <polyline stroke="black" stroke-width="3" stroke-linecap="round" fill="transparent" stroke-linejoin="round" points="52.76483154296875 92.63897705078124 68.777099609375 85.24868774414063 81.50482177734375 80.32183837890625 88.07391357421875 78.26898193359375 104.9073486328125 73.75270080566406 109.423583984375 72.52099609375 118.04559326171876 70.87870788574219 120.509033203125 70.05755615234375 121.33016967773438 70.05755615234375 121.33016967773438 70.05755615234375 " />
        <polyline stroke="black" stroke-width="3" stroke-linecap="round" fill="transparent" stroke-linejoin="round" points="102.0333251953125 85.24868774414063 89.7161865234375 102.08212280273438 76.57794189453125 123.02122497558594 69.18768310546875 136.15948486328125 56.87054443359375 159.97259521484375 48.24853515625 176.39544677734375 43.32171630859375 185.83859252929688 41.26885986328125 189.53372192382813 41.26885986328125 189.53372192382813 " />
        <polyline stroke="black" stroke-width="3" stroke-linecap="round" fill="transparent" stroke-linejoin="round" points="81.50482177734375 141.0863494873047 95.05364990234376 134.10665893554688 97.9276123046875 133.28549194335938 100.80160522460938 133.28549194335938 107.78134155273438 135.74893188476563 111.47650146484376 141.0863494873047 113.93988037109376 152.1717529296875 111.06591796875 167.77346801757813 102.8544921875 182.1434326171875 95.874755859375 188.71258544921875 89.30563354492188 191.99713134765625 83.5576171875 191.58657836914065 79.451904296875 187.89144897460935 79.451904296875 187.89144897460935 " />
        <polyline stroke="black" stroke-width="3" stroke-linecap="round" fill="transparent" stroke-linejoin="round" points="143.09042358398438 81.55355834960938 145.55389404296875 95.51296997070313 145.96444702148438 97.97639465332033 147.19613647460938 103.31382751464844 148.01727294921875 105.36666870117188 149.24899291992188 106.18780517578124 152.12298583984375 105.77725219726563 157.04986572265625 101.67153930664063 165.671875 91.8178253173828 173.88330078125 81.55355834960938 179.63128662109375 74.5738525390625 184.1475830078125 70.05755615234375 187.02154541015625 68.00469970703125 188.2532958984375 67.59414672851563 188.2532958984375 68.415283203125 186.6109619140625 73.34213256835938 180.0418701171875 84.42755126953125 168.13525390625 98.38697814941406 155.4075927734375 110.7041015625 143.91156005859375 120.55780029296876 135.70016479492188 127.12693786621094 129.9521484375 131.23263549804688 126.25701904296876 133.28549194335938 124.20419311523438 134.5172119140625 123.79364013671876 134.9277801513672 125.846435546875 134.9277801513672 129.54159545898438 134.10665893554688 142.67987060546875 130.8220672607422 165.671875 124.25296020507813 172.240966796875 121.78952026367188 190.30609130859375 115.63095092773438 198.51751708984375 111.11466979980467 198.51751708984375 111.11466979980467 " />
        <polyline stroke="black" stroke-width="3" stroke-linecap="round" fill="transparent" stroke-linejoin="round" points="172.240966796875 42.959869384765625 164.44012451171875 57.329864501953125 161.15557861328125 65.54129028320313 153.354736328125 87.71211242675781 145.143310546875 112.75694274902344 137.75302124023438 134.9277801513672 131.59445190429688 152.5823211669922 129.13104248046875 159.15147399902344 123.383056640625 173.52145385742188 121.33016967773438 178.44830322265625 121.33016967773438 178.44830322265625 " />
        <polyline stroke="black" stroke-width="3" stroke-linecap="round" fill="transparent" stroke-linejoin="round" points="144.3221435546875 150.94004821777344 158.692138671875 151.76119995117188 164.44012451171875 152.5823211669922 175.52557373046875 155.04576110839844 184.55810546875 157.50918579101563 191.537841796875 159.97259521484375 196.0540771484375 161.61489868164063 197.28582763671875 162.02545166015625 197.28582763671875 162.02545166015625 " />
        <polyline stroke="black" stroke-width="3" stroke-linecap="round" fill="transparent" stroke-linejoin="round" points="150.89129638671875 170.23687744140625 147.606689453125 182.9645843505859 146.375 188.302001953125 145.143310546875 193.2288818359375 142.67987060546875 203.9037170410156 141.85873413085938 208.0093994140625 141.03759765625 210.062255859375 140.62701416015625 210.47283935546875 140.62701416015625 210.062255859375 141.44818115234375 208.83056640625 145.55389404296875 203.49313354492188 152.5335693359375 195.6922912597656 164.44012451171875 183.7857360839844 168.54583740234375 180.090576171875 179.63128662109375 172.28973388671875 182.5052490234375 170.64744567871094 188.2532958984375 168.18402099609375 190.30609130859375 168.59458923339844 190.7166748046875 169.0051727294922 190.30609130859375 174.75315856933594 187.43212890625 179.26943969726563 171.8304443359375 195.6922912597656 160.7449951171875 203.49313354492188 153.76531982421875 207.59884643554688 150.480712890625 209.24114990234375 149.24899291992188 209.24114990234375 149.24899291992188 208.83056640625 150.89129638671875 208.0093994140625 152.94415283203125 206.7777099609375 158.2816162109375 204.724853515625 163.20843505859375 203.08258056640625 163.20843505859375 203.08258056640625 " />
        </svg>