<?xml version="1.0" standalone="no"?>
    <svg width="256" height="256" xmlns="http://www.w3.org/2000/svg" version="1.1">
    <polyline stroke="black" stroke-width="3" stroke-linecap="round" fill="transparent" stroke-linejoin="round" points="67.86322021484375 126.93760681152344 97.9552001953125 118.8641357421875 130.9830322265625 112.25857543945313 162.5428466796875 109.32276916503906 184.5614013671875 107.8548583984375 193.368896484375 106.38699340820313 194.8367919921875 106.38699340820313 194.102783203125 106.38699340820313 190.43310546875 106.38699340820313 190.43310546875 106.38699340820313 " />
        <polyline stroke="black" stroke-width="3" stroke-linecap="round" fill="transparent" stroke-linejoin="round" points="100.8909912109375 73.35916137695313 104.560791015625 88.03819274902344 107.49652099609376 110.05673217773438 106.76263427734376 131.34130859375 99.423095703125 153.35986328125 83.27618408203125 180.51605224609375 77.404541015625 190.05743408203125 74.46875 192.25927734375 73.0008544921875 190.05743408203125 73.0008544921875 190.05743408203125 " />
        <polyline stroke="black" stroke-width="3" stroke-linecap="round" fill="transparent" stroke-linejoin="round" points="147.8638916015625 76.29495239257813 151.53369140625 103.45114135742188 155.203369140625 128.40553283691406 158.8731689453125 147.48825073242188 162.5428466796875 159.96542358398438 164.0107421875 167.30494689941406 164.0107421875 167.30494689941406 " />
        <polyline stroke="black" stroke-width="3" stroke-linecap="round" fill="transparent" stroke-linejoin="round" points="197.03857421875 35.19365692138672 196.3046875 52.80851745605469 194.8367919921875 86.57026672363281 195.5706787109375 122.5338897705078 199.974365234375 154.0938262939453 206.5799560546875 191.52532958984375 209.515869140625 209.14019775390625 211.7176513671875 220.14947509765625 213.1854248046875 228.222900390625 213.9195556640625 228.95684814453125 213.9195556640625 228.95684814453125 " />
        </svg>