<?xml version="1.0" standalone="no"?>
    <svg width="256" height="256" xmlns="http://www.w3.org/2000/svg" version="1.1">
    <polyline stroke="black" stroke-width="3" stroke-linecap="round" fill="transparent" stroke-linejoin="round" points="55.2850341796875 126.67718505859376 73.45928955078125 123.37277221679688 84.19857788085938 122.5466766357422 109.39462280273438 120.48143005371094 147.395263671875 118.8292236328125 168.4608154296875 118.8292236328125 177.9609375 118.8292236328125 190.76556396484375 118.00314331054688 196.54827880859375 116.35092163085938 197.787353515625 113.87261962890624 197.787353515625 113.87261962890624 " />
        <polyline stroke="black" stroke-width="3" stroke-linecap="round" fill="transparent" stroke-linejoin="round" points="101.959716796875 68.85014343261719 95.35092163085938 98.17672729492188 93.69873046875 116.76397705078124 92.87265014648438 132.4598846435547 92.87265014648438 159.3081512451172 93.28570556640624 169.2213592529297 94.9378662109375 182.02590942382813 95.76400756835938 185.74337768554688 96.590087890625 185.74337768554688 96.590087890625 185.74337768554688 " />
        <polyline stroke="black" stroke-width="3" stroke-linecap="round" fill="transparent" stroke-linejoin="round" points="125.50360107421876 75.87199401855469 122.19918823242188 105.6116180419922 121.37310791015624 133.69903564453125 121.37310791015624 146.09054565429688 121.37310791015624 155.5906982421875 122.61224365234376 168.80828857421875 123.85140991210938 175.00405883789063 124.677490234375 176.65625 124.677490234375 176.65625 " />
        <polyline stroke="black" stroke-width="3" stroke-linecap="round" fill="transparent" stroke-linejoin="round" points="156.48236083984375 68.0240478515625 157.7215576171875 87.85044860839844 158.547607421875 101.8941650390625 161.85205078125 136.17733764648438 168.04779052734375 185.330322265625 171.7652587890625 220.02655029296875 173.83050537109375 241.50515747070313 173.83050537109375 241.50515747070313 " />
        </svg>