<?xml version="1.0" standalone="no"?>
    <svg width="256" height="256" xmlns="http://www.w3.org/2000/svg" version="1.1">
    <polyline stroke="black" stroke-width="3" stroke-linecap="round" fill="transparent" stroke-linejoin="round" points="55.38641357421875 69.22853088378906 62.576416015625 91.452392578125 63.23004150390625 93.41334533691406 67.15191650390625 103.21800231933594 68.459228515625 104.52525329589844 69.7664794921875 102.5643310546875 70.42010498046875 99.94978332519533 70.42010498046875 99.94978332519533 " />
        <polyline stroke="black" stroke-width="3" stroke-linecap="round" fill="transparent" stroke-linejoin="round" points="69.7664794921875 95.374267578125 74.99566650390625 79.68681335449219 76.30291748046875 77.72587585449219 88.06854248046875 65.96031188964844 90.68304443359376 64.65301513671875 108.33148193359376 54.848365783691406 123.365234375 50.27286529541016 130.55535888671875 48.965576171875 139.05267333984375 49.61922454833984 141.01361083984375 52.88744354248047 139.05267333984375 68.57487487792969 129.90167236328125 89.49147033691406 122.0579833984375 101.9106903076172 116.1751708984375 108.44712829589844 116.1751708984375 108.44712829589844 " />
        <polyline stroke="black" stroke-width="3" stroke-linecap="round" fill="transparent" stroke-linejoin="round" points="39.69891357421875 129.36373901367188 53.4254150390625 118.25177001953124 56.693603515625 116.94448852539063 91.3367919921875 111.71533203125 97.87322998046876 111.71533203125 129.24798583984375 109.7544403076172 147.550048828125 109.10076904296876 171.73486328125 108.44712829589844 184.154052734375 107.79348754882813 186.7686767578125 109.10076904296876 185.46136474609375 111.71533203125 185.46136474609375 111.71533203125 " />
        <polyline stroke="black" stroke-width="3" stroke-linecap="round" fill="transparent" stroke-linejoin="round" points="69.7664794921875 139.82200622558594 74.99566650390625 160.7386016845703 75.6492919921875 162.0458984375 81.5321044921875 166.6213836669922 83.49298095703125 166.6213836669922 90.68304443359376 159.43130493164063 90.68304443359376 159.43130493164063 " />
        <polyline stroke="black" stroke-width="3" stroke-linecap="round" fill="transparent" stroke-linejoin="round" points="92.64398193359376 143.74388122558594 110.29241943359376 152.24124145507813 111.59967041015624 152.24124145507813 126.63348388671876 149.6266632080078 129.24798583984375 147.6657257080078 132.51629638671875 146.3584442138672 132.51629638671875 146.3584442138672 " />
        <polyline stroke="black" stroke-width="3" stroke-linecap="round" fill="transparent" stroke-linejoin="round" points="146.24273681640625 130.01734924316406 135.13079833984375 157.47036743164063 130.55535888671875 161.39224243164063 107.024169921875 179.69424438476563 107.024169921875 179.69424438476563 " />
        <polyline stroke="black" stroke-width="3" stroke-linecap="round" fill="transparent" stroke-linejoin="round" points="68.459228515625 196.03533935546875 46.23529052734375 199.30355834960935 45.58172607421875 199.30355834960935 52.1181640625 196.68896484375 58.65460205078125 195.38168334960935 75.6492919921875 192.11349487304688 97.87322998046876 190.15255737304688 122.71160888671876 190.15255737304688 148.85736083984375 192.11349487304688 175.00311279296875 197.34262084960935 192.6513671875 202.57177734375 192.6513671875 202.57177734375 " />
        </svg>