<?xml version="1.0" standalone="no"?>
    <svg width="256" height="256" xmlns="http://www.w3.org/2000/svg" version="1.1">
    <polyline stroke="black" stroke-width="3" stroke-linecap="round" fill="transparent" stroke-linejoin="round" points="59.272552490234375 94.40840148925786 64.02694702148438 109.11492919921876 68.78134155273438 123.82145690917967 75.93133544921875 155.31210327148438 77.57586669921875 167.61119079589844 78.35812377929688 185.21847534179688 77.00875854492188 185.0047607421875 76.45587158203125 183.2718505859375 " />
        <polyline stroke="black" stroke-width="3" stroke-linecap="round" fill="transparent" stroke-linejoin="round" points="77.27993774414065 91.32257080078125 102.11614990234376 88.30422973632813 126.95236206054688 85.285888671875 136.57626342773438 85.51466369628906 152.91241455078125 88.17276000976563 160.18865966796875 90.7199249267578 168.296630859375 98.7651824951172 170.08056640625 104.59893798828124 173.02490234375 125.51976013183594 171.83038330078125 138.23306274414063 162.82440185546875 157.70455932617188 153.485107421875 167.6287841796875 146.99545288085938 176.6113739013672 146.24179077148438 176.58139038085938 " />
        <polyline stroke="black" stroke-width="3" stroke-linecap="round" fill="transparent" stroke-linejoin="round" points="62.8349609375 182.94830322265625 73.21282958984375 182.60623168945313 83.5906982421875 182.26416015625 96.692138671875 181.2682342529297 129.74554443359375 177.6575164794922 146.0115966796875 176.358154296875 176.2520751953125 176.03973388671875 188.85369873046875 176.89151000976563 203.045654296875 178.76605224609375 204.9405517578125 179.548095703125 204.957763671875 179.55520629882813 204.95892333984375 179.5556640625 " />
        </svg>