<?xml version="1.0" standalone="no"?>
    <svg width="256" height="256" xmlns="http://www.w3.org/2000/svg" version="1.1">
    <polyline stroke="black" stroke-width="3" stroke-linecap="round" fill="transparent" stroke-linejoin="round" points="77.2890625 83.51138305664063 76.44393920898438 97.03411865234376 76.44393920898438 104.64065551757813 76.86651611328125 112.66976928710938 79.8245849609375 133.79904174804688 81.51495361328125 142.67332458496094 82.78271484375 148.58950805664063 82.78271484375 148.58950805664063 " />
        <polyline stroke="black" stroke-width="3" stroke-linecap="round" fill="transparent" stroke-linejoin="round" points="82.360107421875 106.33097839355467 92.07955932617188 95.34376525878906 97.99578857421876 91.117919921875 104.33456420898438 86.89205932617188 121.23797607421876 79.70809936523438 140.2542724609375 75.90484619140625 159.6932373046875 74.6370849609375 176.17401123046875 75.48225402832031 187.5838623046875 77.59518432617188 194.76776123046875 79.2855224609375 198.571044921875 80.97586059570313 200.26141357421875 83.08879089355469 200.6839599609375 87.73722839355469 196.4581298828125 95.34376525878906 184.625732421875 106.75357055664063 156.3125 126.61508178710938 138.56393432617188 138.87005615234375 138.56393432617188 138.87005615234375 " />
        <polyline stroke="black" stroke-width="3" stroke-linecap="round" fill="transparent" stroke-linejoin="round" points="42.21453857421875 157.4637908935547 54.892059326171875 151.54759216308594 63.766357421875 149.0120849609375 73.48580932617188 146.89915466308594 95.8828125 144.3636474609375 141.94464111328125 146.0540008544922 167.72235107421875 149.0120849609375 191.3870849609375 149.85726928710938 209.13568115234375 151.54759216308594 221.39068603515625 152.39276123046875 228.5745849609375 153.23794555664063 232.80047607421875 154.08311462402344 234.91339111328125 155.3508758544922 234.91339111328125 155.3508758544922 " />
        </svg>