<?xml version="1.0" standalone="no"?>
    <svg width="256" height="256" xmlns="http://www.w3.org/2000/svg" version="1.1">
    <polyline stroke="black" stroke-width="3" stroke-linecap="round" fill="transparent" stroke-linejoin="round" points="68.1920166015625 99.84019470214844 64.51931762695313 149.42137145996094 62.6829833984375 190.4329833984375 62.6829833984375 211.24481201171875 62.6829833984375 227.7718811035156 64.51931762695313 234.505126953125 64.51931762695313 234.505126953125 " />
        <polyline stroke="black" stroke-width="3" stroke-linecap="round" fill="transparent" stroke-linejoin="round" points="81.04638671875 74.13143920898438 94.51287841796876 62.50128173828125 116.5489501953125 50.871124267578125 159.39691162109375 44.74999237060547 174.087646484375 52.09535217285156 186.9420166015625 68.01029968261719 199.79638671875 108.40977478027344 202.85693359375 150.0334930419922 199.79638671875 180.63916015625 193.67523193359375 202.0631103515625 184.4935302734375 219.20230102539065 184.4935302734375 219.20230102539065 " />
        <polyline stroke="black" stroke-width="3" stroke-linecap="round" fill="transparent" stroke-linejoin="round" points="96.96133422851563 125.5489501953125 103.694580078125 131.6700897216797 115.32470703125 137.7912139892578 131.23968505859375 137.17910766601563 131.23968505859375 137.17910766601563 " />
        <polyline stroke="black" stroke-width="3" stroke-linecap="round" fill="transparent" stroke-linejoin="round" points="163.069580078125 110.85823059082033 144.09405517578125 127.99740600585938 117.16107177734376 150.64559936523438 100.63400268554688 164.11209106445313 89.00384521484375 172.6816864013672 83.49481201171875 176.9664764404297 84.71905517578125 176.9664764404297 95.125 171.45745849609375 115.32470703125 162.2757568359375 134.912353515625 151.25772094726563 151.439453125 141.46389770507813 167.3543701171875 126.77317810058594 167.3543701171875 126.77317810058594 " />
        <polyline stroke="black" stroke-width="3" stroke-linecap="round" fill="transparent" stroke-linejoin="round" points="137.36080932617188 106.5734405517578 120.833740234375 139.6275634765625 109.20361328125 167.17266845703125 102.4703369140625 184.9239501953125 97.57342529296876 199.61468505859375 93.9007568359375 209.40847778320313 93.9007568359375 212.46905517578125 93.9007568359375 212.46905517578125 " />
        <polyline stroke="black" stroke-width="3" stroke-linecap="round" fill="transparent" stroke-linejoin="round" points="126.95489501953124 180.63916015625 142.86981201171875 178.8028106689453 157.560546875 178.19070434570313 167.3543701171875 179.41493225097656 167.3543701171875 179.41493225097656 " />
        <polyline stroke="black" stroke-width="3" stroke-linecap="round" fill="transparent" stroke-linejoin="round" points="83.49481201171875 239.40203857421875 100.02191162109376 235.11724853515625 123.89431762695313 228.38400268554688 144.7061767578125 224.0992126464844 163.069580078125 222.26287841796875 177.76025390625 222.26287841796875 188.166259765625 225.935546875 188.166259765625 225.935546875 " />
        </svg>