<?xml version="1.0" standalone="no"?>
    <svg width="256" height="256" xmlns="http://www.w3.org/2000/svg" version="1.1">
    <polyline stroke="black" stroke-width="3" stroke-linecap="round" fill="transparent" stroke-linejoin="round" points="34 128.75 37.75 151.25 39 166.25 40.25 193.75 40.25 215 40.25 225 40.25 227.5 40.25 230 40.25 231.25 40.25 232.5 41.5 232.5 41.5 232.5 " />
        <polyline stroke="black" stroke-width="3" stroke-linecap="round" fill="transparent" stroke-linejoin="round" points="102.75 52.5 120.25 47.5 142.75 41.25 152.75 37.5 157.75 37.5 164 35 166.5 35 167.75 35 169 35 169 36.25 170.25 36.25 170.25 37.5 170.25 38.75 170.25 40 171.5 41.25 175.25 56.25 181.5 80 184 107.5 185.25 121.25 185.25 143.75 185.25 163.75 185.25 180 185.25 187.5 185.25 202.5 185.25 213.75 184 218.75 184 220 184 221.25 184 222.5 184 223.75 184 223.75 " />
        <polyline stroke="black" stroke-width="3" stroke-linecap="round" fill="transparent" stroke-linejoin="round" points="57.75 118.75 59 120 65.25 117.5 71.5 112.5 71.5 112.5 " />
        <polyline stroke="black" stroke-width="3" stroke-linecap="round" fill="transparent" stroke-linejoin="round" points="132.75 76.25 119 97.5 100.25 118.75 100.25 118.75 " />
        <polyline stroke="black" stroke-width="3" stroke-linecap="round" fill="transparent" stroke-linejoin="round" points="74 145 100.25 132.5 111.5 127.5 122.75 123.75 126.5 122.5 127.75 121.25 129 121.25 129 121.25 " />
        <polyline stroke="black" stroke-width="3" stroke-linecap="round" fill="transparent" stroke-linejoin="round" points="100.25 95 100.25 105 99 128.75 94 153.75 80.25 181.25 74 191.25 62.75 210 55.25 218.75 47.75 221.25 41.5 217.5 41.5 217.5 " />
        <polyline stroke="black" stroke-width="3" stroke-linecap="round" fill="transparent" stroke-linejoin="round" points="125.25 165 134 167.5 146.5 171.25 152.75 172.5 154 172.5 155.25 172.5 156.5 172.5 155.25 172.5 154 173.75 154 173.75 " />
        <polyline stroke="black" stroke-width="3" stroke-linecap="round" fill="transparent" stroke-linejoin="round" points="67.75 223.75 85.25 218.75 106.5 212.5 131.5 203.75 145.25 198.75 150.25 197.5 152.75 197.5 154 197.5 154 197.5 " />
        </svg>