<?xml version="1.0" standalone="no"?>
    <svg width="256" height="256" xmlns="http://www.w3.org/2000/svg" version="1.1">
    <polyline stroke="black" stroke-width="3" stroke-linecap="round" fill="transparent" stroke-linejoin="round" points="60.28863525390625 81.5859375 61.1279296875 90.818603515625 61.96728515625 100.89059448242188 64.06561279296875 121.03459167480467 64.90496826171875 131.10659790039063 66.58358764648438 150.41123962402344 67.84262084960938 167.19790649414063 68.26229858398438 179.36822509765625 66.58358764648438 192.37789916992188 65.3245849609375 195.3155517578125 65.3245849609375 195.3155517578125 " />
        <polyline stroke="black" stroke-width="3" stroke-linecap="round" fill="transparent" stroke-linejoin="round" points="85.46859741210938 112.22160339355467 89.665283203125 109.70359802246094 99.31759643554688 105.0872802734375 103.93392944335938 102.98893737792967 107.7109375 101.31028747558594 114.84521484375 98.7922821044922 114.84521484375 98.7922821044922 " />
        <polyline stroke="black" stroke-width="3" stroke-linecap="round" fill="transparent" stroke-linejoin="round" points="87.986572265625 165.09957885742188 93.4422607421875 163.840576171875 98.478271484375 161.7422332763672 102.6749267578125 159.2242431640625 109.38958740234376 152.9292449951172 111.90756225585938 149.15225219726563 119.04193115234376 133.62457275390625 119.04193115234376 133.62457275390625 " />
        <polyline stroke="black" stroke-width="3" stroke-linecap="round" fill="transparent" stroke-linejoin="round" points="118.20257568359376 73.19261169433594 117.78292846679688 83.26460266113281 117.78292846679688 96.27427673339844 118.20257568359376 108.86428833007813 120.3009033203125 135.3032684326172 123.23858642578124 158.8045654296875 125.3369140625 173.49290466308594 125.756591796875 183.14523315429688 125.756591796875 186.5025634765625 125.756591796875 186.5025634765625 " />
        <polyline stroke="black" stroke-width="3" stroke-linecap="round" fill="transparent" stroke-linejoin="round" points="152.615234375 85.36294555664063 158.4906005859375 82.005615234375 163.94622802734375 78.64828491210938 168.98223876953125 75.71060180664063 182.41156005859375 67.7369384765625 188.286865234375 63.95994567871094 191.22454833984375 61.86161804199219 191.64422607421875 61.02227783203125 191.64422607421875 61.02227783203125 " />
        <polyline stroke="black" stroke-width="3" stroke-linecap="round" fill="transparent" stroke-linejoin="round" points="169.40191650390625 87.46127319335938 161.42822265625 106.76593017578124 154.29388427734375 130.2672576904297 148.83822631835938 151.67025756835938 144.221923828125 168.45689392089844 142.543212890625 173.91256713867188 139.18588256835938 181.88623046875 138.7662353515625 182.3058929443359 140.02523803710938 177.68955993652344 145.06124877929688 162.1619110107422 148.41854858398438 152.5095672607422 160.5888671875 129.00827026367188 167.3035888671875 120.19528198242188 174.43792724609375 113.9002685546875 182.83123779296875 109.70359802246094 187.02789306640625 108.86428833007813 197.099853515625 113.4805908203125 203.3948974609375 126.07058715820313 205.49322509765625 135.3032684326172 205.0736083984375 167.19790649414063 199.1982421875 186.5025634765625 191.64422607421875 198.67291259765625 182.83123779296875 205.8072204589844 171.08056640625 208.744873046875 161.42822265625 207.48590087890625 161.42822265625 207.48590087890625 " />
        </svg>