<?xml version="1.0" standalone="no"?>
    <svg width="256" height="256" xmlns="http://www.w3.org/2000/svg" version="1.1">
    <polyline stroke="black" stroke-width="3" stroke-linecap="round" fill="transparent" stroke-linejoin="round" points="102.23193359375003 98.42068481445313 101.87762451171876 105.861083984375 101.5233154296875 113.30148315429688 99.3974609375 126.0564422607422 99.04318237304688 127.82797241210938 97.98028564453124 128.53659057617188 97.98028564453124 128.53659057617188 " />
        <polyline stroke="black" stroke-width="3" stroke-linecap="round" fill="transparent" stroke-linejoin="round" points="97.27169799804688 94.52331542968747 101.16903686523438 90.27165222167967 105.06637573242188 86.01998901367188 122.78158569335938 71.13919067382813 136.5994873046875 62.99017333984375 143.331298828125 59.44712829589844 153.96044921875 55.904075622558594 163.17236328125 56.61268615722656 166.0068359375 62.6358642578125 164.23529052734375 78.93389892578125 155.377685546875 97.71206665039063 143.68560791015625 111.52995300292967 143.68560791015625 111.52995300292967 " />
        <polyline stroke="black" stroke-width="3" stroke-linecap="round" fill="transparent" stroke-linejoin="round" points="106.48364257812503 133.142578125 113.92401123046876 128.89089965820313 121.3643798828125 124.63922119140624 144.74853515625 113.30148315429688 153.60614013671875 109.7584228515625 153.60614013671875 109.7584228515625 " />
        <polyline stroke="black" stroke-width="3" stroke-linecap="round" fill="transparent" stroke-linejoin="round" points="50.857696533203125 172.11607360839847 50.14910888671875 177.7849578857422 49.440521240234375 183.4538421630859 49.086181640625 185.22537231445313 49.086181640625 185.9339904785156 51.212005615234375 183.0995330810547 57.235198974609375 176.36773681640625 68.21868896484375 166.801513671875 80.9736328125 157.58958435058594 91.95709228515624 152.27500915527344 100.814697265625 150.149169921875 106.48358154296876 150.8577880859375 109.31805419921876 152.27500915527344 110.38095092773438 155.81805419921875 106.837890625 162.90415954589844 97.6259765625 171.76177978515625 85.57958984375 180.26510620117188 80.2650146484375 183.4538421630859 69.99017333984375 188.059814453125 67.86434936523438 188.41412353515625 67.51007080078125 188.41412353515625 71.76171875 186.99688720703125 84.8709716796875 183.4538421630859 101.16903686523438 178.4935760498047 111.44384765625 176.013427734375 111.44384765625 176.013427734375 " />
        <polyline stroke="black" stroke-width="3" stroke-linecap="round" fill="transparent" stroke-linejoin="round" points="145.102783203125 162.9041748046875 145.102783203125 167.15582275390625 145.102783203125 171.407470703125 144.74853515625 175.30484008789063 144.74853515625 180.61941528320313 144.74853515625 183.4538421630859 144.74853515625 184.1624755859375 146.16574096679688 182.03662109375 152.8975830078125 173.53330993652344 163.17236328125 162.90415954589844 176.28167724609375 152.27500915527344 183.013427734375 148.0233612060547 201.7916259765625 140.58294677734375 209.2320556640625 139.87432861328125 212.0665283203125 140.2286376953125 216.318115234375 145.89752197265625 215.2552490234375 157.58958435058594 207.46044921875 171.407470703125 201.7916259765625 177.07635498046875 173.44720458984375 191.24856567382813 156.794921875 193.3743896484375 145.45712280273438 193.72869873046875 140.85116577148438 193.3743896484375 140.14254760742188 192.665771484375 144.03988647460938 191.9571533203125 157.149169921875 190.5399475097656 173.801513671875 188.7684326171875 190.453857421875 186.99688720703125 202.14593505859375 186.99688720703125 202.14593505859375 186.99688720703125 " />
        </svg>