<?xml version="1.0" standalone="no"?>
    <svg width="256" height="256" xmlns="http://www.w3.org/2000/svg" version="1.1">
    <polyline stroke="black" stroke-width="3" stroke-linecap="round" fill="transparent" stroke-linejoin="round" points="85.62973022460938 83.59677124023438 86.00375366210938 89.58126831054688 86.37777709960938 95.56576538085938 86.75180053710938 101.92428588867188 87.1258544921875 108.28280639648438 87.4998779296875 114.26730346679688 88.62200927734375 126.23626708984376 88.99603271484375 128.48046875 88.99603271484375 128.48046875 " />
        <polyline stroke="black" stroke-width="3" stroke-linecap="round" fill="transparent" stroke-linejoin="round" points="110.31570434570315 66.01736450195313 116.30023193359376 62.27703857421875 122.28475952148438 58.536712646484375 128.26922607421875 55.54447937011719 133.87969970703125 53.67431640625 138.74212646484375 52.55223083496094 147.34481811523438 52.92626190185547 153.32928466796875 55.91850280761719 157.443603515625 63.02508544921875 158.191650390625 78.3603515625 151.83319091796875 98.55801391601563 139.86419677734375 116.137451171875 133.50567626953125 122.8699951171875 133.50567626953125 122.8699951171875 " />
        <polyline stroke="black" stroke-width="3" stroke-linecap="round" fill="transparent" stroke-linejoin="round" points="93.85852050781253 141.19749450683594 100.96502685546876 137.4571990966797 108.071533203125 133.71690368652344 116.30023193359376 129.60256958007813 125.2769775390625 125.86224365234376 140.98626708984375 120.25180053710938 147.71884155273438 119.12969970703124 147.71884155273438 119.12969970703124 " />
        <polyline stroke="black" stroke-width="3" stroke-linecap="round" fill="transparent" stroke-linejoin="round" points="47.4786376953125 179.72265625 47.104583740234375 185.7071533203125 46.73052978515625 191.691650390625 46.73052978515625 196.9281005859375 47.478607177734375 205.53079223632813 49.348724365234375 210.3931884765625 50.0968017578125 211.88931274414065 50.0968017578125 211.88931274414065 " />
        <polyline stroke="black" stroke-width="3" stroke-linecap="round" fill="transparent" stroke-linejoin="round" points="67.67623901367188 176.73040771484375 73.66073608398438 173.3641357421875 79.64523315429688 169.99786376953125 91.24020385742188 165.13548278808594 100.96502685546876 162.5172576904297 109.94174194335938 163.26531982421875 112.9339599609375 167.37966918945313 114.05609130859376 177.47848510742188 112.1859130859375 184.5850830078125 100.5909423828125 207.02691650390625 100.5909423828125 207.02691650390625 " />
        <polyline stroke="black" stroke-width="3" stroke-linecap="round" fill="transparent" stroke-linejoin="round" points="53.837127685546875 222.73623657226563 66.18014526367188 218.62188720703125 78.52316284179688 214.50753784179688 85.25570678710938 212.26336669921875 102.46112060546876 207.40093994140625 102.46112060546876 207.40093994140625 " />
        <polyline stroke="black" stroke-width="3" stroke-linecap="round" fill="transparent" stroke-linejoin="round" points="153.70330810546875 169.6238250732422 152.58123779296875 175.2342987060547 151.45916748046875 180.8447723388672 149.96298217773438 191.691650390625 149.21493530273438 199.1722717285156 148.84091186523438 205.15676879882813 148.84091186523438 207.02691650390625 148.84091186523438 207.02691650390625 " />
        <polyline stroke="black" stroke-width="3" stroke-linecap="round" fill="transparent" stroke-linejoin="round" points="160.435791015625 154.66261291503906 166.79437255859375 152.41842651367188 173.1529541015625 150.1742401123047 179.885498046875 148.30410766601563 200.0831298828125 144.93780517578125 210.5560302734375 145.31185913085938 217.66259765625 147.18199157714844 222.15093994140625 150.1742401123047 224.0211181640625 152.41842651367188 227.01336669921875 165.88352966308594 223.6470947265625 180.09671020507813 215.04437255859375 195.43197631835935 203.44940185546875 208.8970642089844 191.48040771484375 217.87380981445313 179.885498046875 222.3621826171875 173.1529541015625 223.85833740234375 170.53466796875 223.85833740234375 170.16064453125 223.4842529296875 170.90869140625 221.9881591796875 176.1451416015625 219.74395751953125 181.007568359375 218.24786376953125 198.5870361328125 214.13348388671875 204.945556640625 214.13348388671875 204.945556640625 214.13348388671875 " />
        </svg>