<?xml version="1.0" standalone="no"?>
    <svg width="256" height="256" xmlns="http://www.w3.org/2000/svg" version="1.1">
    <polyline stroke="black" stroke-width="3" stroke-linecap="round" fill="transparent" stroke-linejoin="round" points="89.5106201171875 97.56599426269528 90.716064453125 103.59318542480467 91.9215087890625 109.62037658691406 93.52877807617188 114.44216918945313 94.33242797851563 118.46031188964844 94.33242797851563 118.05850219726563 94.33242797851563 118.05850219726563 " />
        <polyline stroke="black" stroke-width="3" stroke-linecap="round" fill="transparent" stroke-linejoin="round" points="104.77963256835938 69.8406982421875 114.0213623046875 65.82255554199219 123.26309204101563 61.804412841796875 130.09396362304688 59.39349365234375 137.32662963867188 57.384429931640625 142.55020141601563 56.580810546875 146.16653442382813 56.580810546875 147.7738037109375 57.384429931640625 148.97921752929688 60.598968505859375 148.97921752929688 67.83163452148438 147.7738037109375 79.08244323730469 147.37197875976563 93.54779052734376 147.37197875976563 110.02220153808594 146.97018432617188 118.05850219726563 146.97018432617188 118.05850219726563 " />
        <polyline stroke="black" stroke-width="3" stroke-linecap="round" fill="transparent" stroke-linejoin="round" points="108.79769897460938 122.07666015624997 126.07577514648438 115.2458038330078 143.35385131835938 108.41494750976563 155.0064697265625 102.78952026367188 155.0064697265625 102.78952026367188 " />
        <polyline stroke="black" stroke-width="3" stroke-linecap="round" fill="transparent" stroke-linejoin="round" points="46.516448974609375 196.81423950195313 47.72186279296875 204.44873046875 48.927276611328125 212.08322143554688 50.5345458984375 218.1104431152344 52.141815185546875 223.73583984375 52.945465087890625 224.53948974609375 52.945465087890625 224.13766479492188 52.945465087890625 224.13766479492188 " />
        <polyline stroke="black" stroke-width="3" stroke-linecap="round" fill="transparent" stroke-linejoin="round" points="53.3472900390625 187.572494506836 67.8126220703125 180.33982849121097 82.2779541015625 173.10716247558594 95.537841796875 167.88356018066406 102.36868286132813 165.87449645996094 108.79776000976563 164.26724243164063 113.61953735351563 165.07086181640625 116.0303955078125 167.48175048828125 117.63766479492188 174.31259155273438 117.63766479492188 179.53619384765625 117.63766479492188 199.22509765625 117.23587036132813 211.68142700195313 116.83404541015624 222.9322204589844 116.83404541015624 228.95944213867188 116.83404541015624 228.95944213867188 " />
        <polyline stroke="black" stroke-width="3" stroke-linecap="round" fill="transparent" stroke-linejoin="round" points="67.41076660156249 231.37026977539063 85.49246215820313 227.75396728515625 103.57415771484376 224.13766479492188 117.63766479492188 222.12860107421875 124.06668090820313 221.72677612304688 124.06668090820313 221.72677612304688 " />
        <polyline stroke="black" stroke-width="3" stroke-linecap="round" fill="transparent" stroke-linejoin="round" points="160.63189697265625 161.05270385742188 161.03369140625 180.7416534423828 161.43548583984375 200.43060302734375 162.64093017578125 213.2886657714844 163.04278564453125 219.71771240234375 163.44464111328125 224.53948974609375 163.44464111328125 222.9322204589844 163.44464111328125 222.9322204589844 " />
        <polyline stroke="black" stroke-width="3" stroke-linecap="round" fill="transparent" stroke-linejoin="round" points="160.63189697265625 169.89263916015625 172.68634033203125 165.87449645996094 184.74078369140625 161.85635375976563 191.97344970703125 160.24908447265625 199.20611572265625 159.84725952148438 206.43878173828125 160.24908447265625 212.466064453125 162.25814819335938 216.08233642578125 168.68719482421875 218.49322509765625 181.1434631347656 219.69866943359375 198.01971435546875 220.90411376953125 212.48504638671875 223.31500244140625 224.53948974609375 226.12774658203125 231.77212524414065 226.529541015625 233.78121948242188 226.529541015625 233.78121948242188 " />
        <polyline stroke="black" stroke-width="3" stroke-linecap="round" fill="transparent" stroke-linejoin="round" points="173.89178466796875 230.9685363769531 185.94622802734375 231.37033081054688 198.00067138671875 231.77212524414065 206.43878173828125 231.37033081054688 222.109619140625 230.968505859375 228.9404296875 230.56671142578125 233.76220703125 229.36126708984375 233.76220703125 229.36126708984375 " />
        </svg>