<?xml version="1.0" standalone="no"?>
    <svg width="256" height="256" xmlns="http://www.w3.org/2000/svg" version="1.1">
    <polyline stroke="black" stroke-width="3" stroke-linecap="round" fill="transparent" stroke-linejoin="round" points="82 64 83 77 84 90 87 98 92 113 95 120 95 120 " />
        <polyline stroke="black" stroke-width="3" stroke-linecap="round" fill="transparent" stroke-linejoin="round" points="103 53 115 53 127 53 140 53 150 55 157 58 160 61 160 65 159 71 155 75 155 75 " />
        <polyline stroke="black" stroke-width="3" stroke-linecap="round" fill="transparent" stroke-linejoin="round" points="112 100 122 96 132 92 142 90 147 90 147 90 " />
        <polyline stroke="black" stroke-width="3" stroke-linecap="round" fill="transparent" stroke-linejoin="round" points="86 161 87 172 88 183 92 195 96 205 96 205 " />
        <polyline stroke="black" stroke-width="3" stroke-linecap="round" fill="transparent" stroke-linejoin="round" points="109 140 114 140 119 140 128 140 136 140 141 141 146 147 148 155 149 166 149 176 146 180 146 180 " />
        <polyline stroke="black" stroke-width="3" stroke-linecap="round" fill="transparent" stroke-linejoin="round" points="110 193 120 191 130 189 143 184 149 182 149 182 " />
        <polyline stroke="black" stroke-width="3" stroke-linecap="round" fill="transparent" stroke-linejoin="round" points="164 137 164 147 164 157 164 172 164 175 166 179 166 179 " />
        <polyline stroke="black" stroke-width="3" stroke-linecap="round" fill="transparent" stroke-linejoin="round" points="176 133 178 132 180 131 186 131 191 131 197 131 201 133 204 137 205 144 207 153 208 161 208 168 210 173 210 173 " />
        <polyline stroke="black" stroke-width="3" stroke-linecap="round" fill="transparent" stroke-linejoin="round" points="163 187 174 187 185 187 200 186 213 186 227 186 227 186 " />
        </svg>