<?xml version="1.0" standalone="no"?>
    <svg width="256" height="256" xmlns="http://www.w3.org/2000/svg" version="1.1">
    <polyline stroke="black" stroke-width="3" stroke-linecap="round" fill="transparent" stroke-linejoin="round" points="100 84 101 89 102 94 105 107 108 117 111 121 112 123 113 123 113 123 " />
        <polyline stroke="black" stroke-width="3" stroke-linecap="round" fill="transparent" stroke-linejoin="round" points="86 74 103 67 120 60 145 54 166 52 180 52 186 52 188 60 188 72 183 87 176 101 165 114 165 114 " />
        <polyline stroke="black" stroke-width="3" stroke-linecap="round" fill="transparent" stroke-linejoin="round" points="102 114 112 114 122 114 137 109 159 104 176 102 186 101 186 101 " />
        <polyline stroke="black" stroke-width="3" stroke-linecap="round" fill="transparent" stroke-linejoin="round" points="71 163 73 167 75 171 78 176 84 188 87 192 87 192 " />
        <polyline stroke="black" stroke-width="3" stroke-linecap="round" fill="transparent" stroke-linejoin="round" points="67 152 86 146 105 140 126 138 142 138 150 144 153 155 153 168 151 184 140 197 127 206 127 206 " />
        <polyline stroke="black" stroke-width="3" stroke-linecap="round" fill="transparent" stroke-linejoin="round" points="70 207 81 206 92 205 110 201 130 200 149 199 149 199 " />
        <polyline stroke="black" stroke-width="3" stroke-linecap="round" fill="transparent" stroke-linejoin="round" points="171 142 171 155 171 168 171 185 173 196 174 199 174 201 174 201 " />
        <polyline stroke="black" stroke-width="3" stroke-linecap="round" fill="transparent" stroke-linejoin="round" points="186 129 201 126 216 123 227 123 234 125 237 137 237 153 237 167 237 180 236 189 235 191 235 191 " />
        <polyline stroke="black" stroke-width="3" stroke-linecap="round" fill="transparent" stroke-linejoin="round" points="168 197 178 197 188 197 205 197 226 197 235 197 235 197 " />
        </svg>