<?xml version="1.0" standalone="no"?>
    <svg width="256" height="256" xmlns="http://www.w3.org/2000/svg" version="1.1">
    <polyline stroke="black" stroke-width="3" stroke-linecap="round" fill="transparent" stroke-linejoin="round" points="95 61 95 60 95 59 95 60 95 62 95 67 95 68 95 76 95 83 96 86 96 86 " />
        <polyline stroke="black" stroke-width="3" stroke-linecap="round" fill="transparent" stroke-linejoin="round" points="98 62 99 62 100 62 103 61 108 59 116 58 123 57 131 56 138 55 142 54 145 53 146 53 145 53 145 54 144 57 144 62 142 69 140 75 139 80 138 82 137 82 136 84 136 84 " />
        <polyline stroke="black" stroke-width="3" stroke-linecap="round" fill="transparent" stroke-linejoin="round" points="99 91 102 90 105 89 111 88 120 85 128 83 133 82 136 82 135 82 135 82 " />
        <polyline stroke="black" stroke-width="3" stroke-linecap="round" fill="transparent" stroke-linejoin="round" points="60 133 60 136 60 139 59 146 59 150 59 159 60 164 63 166 63 166 " />
        <polyline stroke="black" stroke-width="3" stroke-linecap="round" fill="transparent" stroke-linejoin="round" points="61 134 64 133 67 132 72 129 81 127 91 124 98 123 103 122 104 123 103 123 103 124 101 125 99 128 98 131 98 137 98 144 98 151 96 157 94 162 92 165 92 166 92 166 " />
        <polyline stroke="black" stroke-width="3" stroke-linecap="round" fill="transparent" stroke-linejoin="round" points="61 167 64 167 67 167 73 166 82 163 91 162 95 162 96 162 99 163 99 163 " />
        <polyline stroke="black" stroke-width="3" stroke-linecap="round" fill="transparent" stroke-linejoin="round" points="136 123 137 123 138 123 138 127 137 135 137 142 137 149 138 153 138 155 138 155 " />
        <polyline stroke="black" stroke-width="3" stroke-linecap="round" fill="transparent" stroke-linejoin="round" points="141 128 140 127 139 126 142 125 148 124 155 123 164 122 172 122 178 121 179 121 179 122 177 124 175 128 173 134 172 140 171 145 171 150 170 152 170 153 170 154 170 154 " />
        <polyline stroke="black" stroke-width="3" stroke-linecap="round" fill="transparent" stroke-linejoin="round" points="145 158 144 158 143 158 144 158 151 157 161 155 168 154 170 154 175 155 177 156 177 156 " />
        </svg>