<?xml version="1.0" standalone="no"?>
    <svg width="256" height="256" xmlns="http://www.w3.org/2000/svg" version="1.1">
    <polyline stroke="black" stroke-width="3" stroke-linecap="round" fill="transparent" stroke-linejoin="round" points="71.37289428710938 113.5149383544922 81.51495361328125 150.7024383544922 83.62786865234375 180.28338623046875 83.62786865234375 190.42544555664065 83.20526123046875 201.41265869140625 83.62786865234375 203.10302734375 83.62786865234375 202.680419921875 83.62786865234375 202.680419921875 " />
        <polyline stroke="black" stroke-width="3" stroke-linecap="round" fill="transparent" stroke-linejoin="round" points="85.74081420898438 124.07955932617188 94.61508178710938 114.36009216308594 99.68612670898438 110.13424682617188 105.1796875 105.90841674804688 111.09588623046876 102.10514831542967 117.0120849609375 98.72445678710938 128.421875 93.65342712402344 138.56393432617188 90.27273559570313 147.438232421875 89.00498962402344 154.6221923828125 89.00498962402344 160.1158447265625 90.27273559570313 164.3416748046875 92.38566589355467 168.1448974609375 96.18893432617188 172.37078857421875 104.2180633544922 175.328857421875 116.05046081542967 175.75146484375 127.88284301757813 173.6385498046875 138.02487182617188 168.9901123046875 148.1669158935547 160.9609375 158.73155212402344 149.5511474609375 169.71878051757813 136.45101928710938 179.86080932617188 123.35089111328124 189.15768432617188 111.94110107421876 196.76422119140625 103.48934936523438 201.41265869140625 97.57318115234376 203.94818115234375 94.61508178710938 204.37075805664065 93.7698974609375 203.52557373046875 95.46026611328124 201.83526611328125 103.91195678710938 196.34164428710935 117.0120849609375 190.42544555664065 129.68963623046875 186.1995849609375 142.789794921875 184.93182373046875 142.789794921875 184.93182373046875 " />
        </svg>