<?xml version="1.0" standalone="no"?>
    <svg width="256" height="256" xmlns="http://www.w3.org/2000/svg" version="1.1">
    <polyline stroke="black" stroke-width="3" stroke-linecap="round" fill="transparent" stroke-linejoin="round" points="77.5982666015625 102.25051879882813 77.5982666015625 147.68154907226563 77.0509033203125 161.3656005859375 76.5035400390625 177.7864532470703 75.4088134765625 190.37576293945313 74.3140869140625 197.49148559570313 74.3140869140625 197.49148559570313 " />
        <polyline stroke="black" stroke-width="3" stroke-linecap="round" fill="transparent" stroke-linejoin="round" points="80.3350830078125 95.6821746826172 91.82965087890624 90.20855712890624 108.79788208007813 81.99812316894531 126.86083984375 73.24034118652344 144.37640380859375 68.3140869140625 160.2498779296875 68.8614501953125 175.0286865234375 74.33506774902344 185.97589111328125 86.37702941894531 195.281005859375 106.08204650878906 198.017822265625 131.2606964111328 192.54425048828125 152.60780334472656 178.3128662109375 173.95492553710938 155.3236083984375 195.30203247070313 155.3236083984375 195.30203247070313 " />
        <polyline stroke="black" stroke-width="3" stroke-linecap="round" fill="transparent" stroke-linejoin="round" points="66.6510009765625 196.94412231445313 77.5982666015625 185.99688720703125 92.37701416015624 181.61798095703125 123.029296875 175.5970001220703 147.66058349609375 173.40756225585938 165.1761474609375 175.5970001220703 182.14434814453125 179.97589111328125 182.14434814453125 179.97589111328125 " />
        </svg>