<?xml version="1.0" standalone="no"?>
    <svg width="256" height="256" xmlns="http://www.w3.org/2000/svg" version="1.1">
    <polyline stroke="black" stroke-width="3" stroke-linecap="round" fill="transparent" stroke-linejoin="round" points="68.35086059570313 79.01889038085938 70.0831298828125 99.80636596679688 73.5477294921875 115.97439575195313 78.74459838867188 136.76187133789063 83.364013671875 154.6621856689453 86.82861328125 169.6753692626953 87.98345947265625 180.069091796875 87.98345947265625 180.069091796875 " />
        <polyline stroke="black" stroke-width="3" stroke-linecap="round" fill="transparent" stroke-linejoin="round" points="75.280029296875 93.4546356201172 83.364013671875 85.94804382324219 94.335205078125 77.28660583496094 106.46124267578124 69.78001403808594 120.31951904296876 65.16056823730469 135.33270263671875 63.42828369140625 149.7684326171875 64.58314514160156 164.7816162109375 69.20257568359375 175.17535400390625 75.55430603027344 182.1044921875 81.90603637695313 187.3013916015625 95.7643585205078 187.8787841796875 115.39697265625 182.1044921875 137.33929443359375 171.7108154296875 159.28163146972656 159.00732421875 176.60452270507813 159.00732421875 176.60452270507813 " />
        <polyline stroke="black" stroke-width="3" stroke-linecap="round" fill="transparent" stroke-linejoin="round" points="82.78662109375 161.59133911132813 92.6029052734375 158.12677001953125 106.46124267578124 155.2396240234375 123.78411865234376 152.92990112304688 141.6844482421875 152.35247802734375 156.12017822265625 152.35247802734375 168.8236083984375 154.6621856689453 168.8236083984375 154.6621856689453 " />
        </svg>