<?xml version="1.0" standalone="no"?>
    <svg width="256" height="256" xmlns="http://www.w3.org/2000/svg" version="1.1">
    <polyline stroke="black" stroke-width="3" stroke-linecap="round" fill="transparent" stroke-linejoin="round" points="74.4432373046875 90.98324584960938 77.09335327148438 107.76742553710938 77.97674560546875 115.27615356445313 79.30184936523438 123.668212890625 81.06857299804688 133.3853759765625 84.60211181640625 151.05294799804688 87.252197265625 164.74530029296875 89.01898193359375 176.22921752929688 89.01898193359375 178.43765258789063 89.01898193359375 178.43765258789063 " />
        <polyline stroke="black" stroke-width="3" stroke-linecap="round" fill="transparent" stroke-linejoin="round" points="81.06857299804688 103.35055541992188 90.34405517578124 95.84181213378906 96.52767944335938 91.4249267578125 111.54510498046876 83.91621398925781 127.00424194335938 78.17425537109375 142.905029296875 74.6407470703125 157.0390625 73.315673828125 168.081298828125 74.19905090332031 176.03173828125 75.9658203125 180.89031982421875 78.61593627929688 183.5404052734375 81.26608276367188 184.865478515625 86.12466430664063 183.5404052734375 96.72518920898438 176.03173828125 113.95108032226563 169.4063720703125 124.1099090576172 142.905029296875 154.58645629882813 142.905029296875 154.58645629882813 " />
        <polyline stroke="black" stroke-width="3" stroke-linecap="round" fill="transparent" stroke-linejoin="round" points="95.20263671875 176.6708984375 109.77838134765624 171.81231689453125 115.96200561523438 170.04556274414063 128.32928466796875 166.51205444335938 134.512939453125 164.74530029296875 149.08871459960938 160.77008056640625 154.388916015625 159.88671875 154.388916015625 159.88671875 " />
        </svg>