<?xml version="1.0" standalone="no"?>
    <svg width="256" height="256" xmlns="http://www.w3.org/2000/svg" version="1.1">
    <polyline stroke="black" stroke-width="3" stroke-linecap="round" fill="transparent" stroke-linejoin="round" points="86.42712402343747 86.48861694335938 93.61553955078124 83.06552124023438 100.803955078125 79.64242553710938 115.523193359375 74.16551208496094 123.39633178710938 71.76934814453125 138.11557006835938 68.34626770019531 149.75399780273438 67.31935119628906 156.9425048828125 67.66165161132813 160.7078857421875 68.68858337402344 162.0771484375 71.76934814453125 157.96942138671875 84.77705383300781 145.98861694335938 101.8924560546875 131.26937866210938 116.6116943359375 131.26937866210938 116.6116943359375 " />
        <polyline stroke="black" stroke-width="3" stroke-linecap="round" fill="transparent" stroke-linejoin="round" points="108.67712402343753 129.27706909179688 113.81170654296876 129.96170043945313 118.9462890625 130.64633178710938 136.40399169921875 136.807861328125 145.98861694335938 142.9694061279297 148.72711181640625 146.0501708984375 148.72711181640625 146.0501708984375 " />
        <polyline stroke="black" stroke-width="3" stroke-linecap="round" fill="transparent" stroke-linejoin="round" points="98.75015258789063 172.4079132080078 105.9385986328125 170.01174926757813 113.12704467773438 167.61558532714844 120.6578369140625 165.90403747558594 127.84628295898438 164.8771209716797 146.3309326171875 165.56173706054688 155.5732421875 168.6425018310547 161.0501708984375 172.4078826904297 163.44635009765625 176.85789489746094 161.0501708984375 184.73098754882813 157.2847900390625 188.83868408203125 157.2847900390625 188.83868408203125 " />
        <polyline stroke="black" stroke-width="3" stroke-linecap="round" fill="transparent" stroke-linejoin="round" points="100.11932373046875 195.684814453125 113.12704467773438 199.79254150390625 126.134765625 203.9002685546875 133.66552734375 206.98101806640625 151.123291015625 217.250244140625 160.7078857421875 224.09640502929688 160.7078857421875 224.09640502929688 " />
        </svg>