<?xml version="1.0" standalone="no"?>
    <svg width="256" height="256" xmlns="http://www.w3.org/2000/svg" version="1.1">
    <polyline stroke="black" stroke-width="3" stroke-linecap="round" fill="transparent" stroke-linejoin="round" points="81.40423583984375 76.75489807128906 85.40658569335938 74.086669921875 89.408935546875 71.41844177246094 93.74484252929688 68.75018310546875 97.7471923828125 66.08193969726563 106.08551025390624 61.412506103515625 114.75732421875 56.74305725097656 123.0955810546875 53.07421112060547 130.43328857421875 50.07243347167969 135.769775390625 48.40477752685547 138.77157592773438 48.07124328613281 141.10629272460938 48.07124328613281 142.10687255859375 49.07183074951172 143.10748291015625 53.74127197265625 140.772705078125 69.08370971679688 134.43563842773438 86.7608642578125 134.43563842773438 86.7608642578125 " />
        <polyline stroke="black" stroke-width="3" stroke-linecap="round" fill="transparent" stroke-linejoin="round" points="120.76089477539063 108.4403839111328 124.09619140625 109.44097900390624 127.43148803710938 110.44157409667967 130.76681518554688 111.77569580078124 143.77450561523438 120.447509765625 143.77450561523438 120.447509765625 " />
        <polyline stroke="black" stroke-width="3" stroke-linecap="round" fill="transparent" stroke-linejoin="round" points="104.08428955078125 164.80718994140625 110.08786010742188 161.47186279296875 116.0914306640625 158.13653564453125 122.42855834960938 155.4683074951172 135.10272216796875 150.79885864257813 140.772705078125 149.4647216796875 150.44515991210938 147.79708862304688 157.11578369140625 147.4635467529297 161.1181640625 147.79708862304688 163.452880859375 148.79766845703125 164.7869873046875 150.79885864257813 164.11993408203125 158.80361938476563 158.783447265625 172.14486694335938 154.78106689453125 178.8154754638672 154.78106689453125 178.8154754638672 " />
        <polyline stroke="black" stroke-width="3" stroke-linecap="round" fill="transparent" stroke-linejoin="round" points="114.42376708984371 182.81787109375 120.09381103515624 183.15139770507813 125.76385498046876 183.48492431640625 138.77157592773438 186.15316772460935 151.11224365234375 190.8226318359375 162.4522705078125 197.15969848632813 177.127685546875 208.16622924804688 177.127685546875 208.16622924804688 " />
        </svg>