<?xml version="1.0" standalone="no"?>
    <svg width="256" height="256" xmlns="http://www.w3.org/2000/svg" version="1.1">
    <polyline stroke="black" stroke-width="3" stroke-linecap="round" fill="transparent" stroke-linejoin="round" points="74.098876953125 77.4251708984375 83.38275146484375 72.1201171875 88.687744140625 69.90969848632813 94.43487548828124 67.69926452636719 101.066162109375 65.48883056640625 120.5179443359375 58.8575439453125 134.22265625 54.878753662109375 145.71688842773438 51.784149169921875 153.6744384765625 50.01580810546875 158.9794921875 49.57372283935547 162.0740966796875 50.01580810546875 162.958251953125 52.22624206542969 162.958251953125 58.41545104980469 159.42156982421875 68.141357421875 152.790283203125 79.19351196289063 144.83270263671875 89.80357360839844 135.10678100585938 99.9715576171875 125.822998046875 109.25537109375 125.822998046875 109.25537109375 " />
        <polyline stroke="black" stroke-width="3" stroke-linecap="round" fill="transparent" stroke-linejoin="round" points="89.57196044921875 124.7283935546875 101.95037841796876 121.6337890625 113.88665771484376 120.30752563476563 127.59130859375 120.74961853027344 134.22265625 121.1916961669922 139.52767944335938 122.5179443359375 148.81149291992188 125.612548828125 148.81149291992188 125.612548828125 " />
        <polyline stroke="black" stroke-width="3" stroke-linecap="round" fill="transparent" stroke-linejoin="round" points="72.77264404296875 179.10501098632813 86.03524780273438 168.93701171875 93.99276733398438 164.95823669433594 124.49676513671876 156.55859375 135.10678100585938 155.67442321777344 145.71688842773438 155.2323455810547 164.2845458984375 155.67442321777344 174.89459228515625 157.00070190429688 181.52587890625 160.09530639648438 182.4100341796875 163.18988037109375 178.87335205078125 175.56829833984375 166.0528564453125 192.8096923828125 146.60107421875 210.49313354492188 146.60107421875 210.49313354492188 " />
        <polyline stroke="black" stroke-width="3" stroke-linecap="round" fill="transparent" stroke-linejoin="round" points="93.99276733398438 209.60894775390625 113.444580078125 199.883056640625 120.5179443359375 198.55679321289065 141.73812866210938 199.44097900390625 156.32696533203125 208.72479248046875 156.32696533203125 208.72479248046875 " />
        </svg>