<?xml version="1.0" standalone="no"?>
    <svg width="256" height="256" xmlns="http://www.w3.org/2000/svg" version="1.1">
    <polyline stroke="black" stroke-width="3" stroke-linecap="round" fill="transparent" stroke-linejoin="round" points="77 63 88 59 99 55 136 46 156 43 167 43 170 43 170 46 162 61 148 78 133 92 125 97 125 97 " />
        <polyline stroke="black" stroke-width="3" stroke-linecap="round" fill="transparent" stroke-linejoin="round" points="107 84 118 87 129 90 144 95 157 102 157 102 " />
        <polyline stroke="black" stroke-width="3" stroke-linecap="round" fill="transparent" stroke-linejoin="round" points="78 146 86 144 94 142 108 136 119 133 144 127 173 124 185 124 189 124 189 125 182 136 169 149 153 161 138 169 133 172 133 172 " />
        <polyline stroke="black" stroke-width="3" stroke-linecap="round" fill="transparent" stroke-linejoin="round" points="112 160 127 165 142 170 161 180 181 193 181 193 " />
        </svg>