<?xml version="1.0" standalone="no"?>
    <svg width="256" height="256" xmlns="http://www.w3.org/2000/svg" version="1.1">
    <polyline stroke="black" stroke-width="3" stroke-linecap="round" fill="transparent" stroke-linejoin="round" points="75.93759155273438 105.19857788085938 79.241943359375 129.15548706054688 82.95941162109375 149.3949432373047 85.85076904296875 162.1995086669922 87.08993530273438 169.2213592529297 87.50299072265625 172.11270141601563 87.08993530273438 171.28660583496094 86.67684936523438 169.2213592529297 86.67684936523438 169.2213592529297 " />
        <polyline stroke="black" stroke-width="3" stroke-linecap="round" fill="transparent" stroke-linejoin="round" points="103.19891357421876 101.48110961914063 123.43832397460938 91.56790161132813 142.43865966796875 85.78520202636719 161.02587890625 84.9591064453125 173.83050537109375 87.43740844726563 182.9176025390625 92.80705261230467 189.11334228515625 101.8941650390625 192.417724609375 117.59007263183594 189.11334228515625 137.00344848632813 178.3740234375 156.00375366210938 178.3740234375 156.00375366210938 " />
        <polyline stroke="black" stroke-width="3" stroke-linecap="round" fill="transparent" stroke-linejoin="round" points="115.59042358398438 122.5466766357422 123.85140991210938 121.30752563476563 131.28631591796875 120.48143005371094 150.69964599609375 120.48143005371094 159.37371826171875 122.5466766357422 165.15643310546875 129.15548706054688 165.15643310546875 129.15548706054688 " />
        <polyline stroke="black" stroke-width="3" stroke-linecap="round" fill="transparent" stroke-linejoin="round" points="127.98190307617188 162.1995086669922 137.89511108398438 160.54730224609375 159.78680419921875 158.48204040527344 180.0262451171875 158.48204040527344 199.8526611328125 165.09085083007813 199.8526611328125 165.09085083007813 " />
        </svg>