<?xml version="1.0" standalone="no"?>
    <svg width="256" height="256" xmlns="http://www.w3.org/2000/svg" version="1.1">
    <polyline stroke="black" stroke-width="3" stroke-linecap="round" fill="transparent" stroke-linejoin="round" points="75.59872436523438 102.95030212402344 76.44393920898438 110.13424682617188 78.13424682617188 129.9957733154297 78.97943115234375 139.7152099609375 80.24716186523438 158.73155212402344 80.24716186523438 169.71878051757813 80.24716186523438 172.67686462402344 80.24716186523438 172.67686462402344 " />
        <polyline stroke="black" stroke-width="3" stroke-linecap="round" fill="transparent" stroke-linejoin="round" points="106.87005615234376 94.07600402832033 116.16693115234376 89.85015869140625 125.88641357421876 86.04689025878906 145.32528686523438 80.13069152832031 162.65130615234375 77.59518432617188 181.24505615234375 78.86294555664063 185.47088623046875 80.13069152832031 190.96453857421875 85.20172119140625 195.61297607421875 98.3018798828125 193.5 121.54405212402344 175.75146484375 157.4637908935547 167.72235107421875 166.7606658935547 167.72235107421875 166.7606658935547 " />
        <polyline stroke="black" stroke-width="3" stroke-linecap="round" fill="transparent" stroke-linejoin="round" points="115.32174682617188 140.56039428710938 128.844482421875 136.7571258544922 139.83172607421875 134.64419555664063 147.86080932617188 133.37643432617188 150.39633178710938 133.37643432617188 153.35443115234375 134.64419555664063 153.35443115234375 134.64419555664063 " />
        <polyline stroke="black" stroke-width="3" stroke-linecap="round" fill="transparent" stroke-linejoin="round" points="107.7152099609375 180.7059783935547 117.85726928710938 177.32530212402344 127.15414428710938 174.789794921875 152.93182373046875 172.2542724609375 161.80615234375 174.36721801757813 173.2159423828125 179.86080932617188 173.2159423828125 179.86080932617188 " />
        </svg>