<?xml version="1.0" standalone="no"?>
    <svg width="256" height="256" xmlns="http://www.w3.org/2000/svg" version="1.1">
    <polyline stroke="black" stroke-width="3" stroke-linecap="round" fill="transparent" stroke-linejoin="round" points="76.267333984375 93.34919738769533 76.71542358398438 100.9669189453125 78.05975341796875 118.89096069335938 79.404052734375 144.88079833984375 79.404052734375 156.5314178466797 79.404052734375 163.2529296875 79.404052734375 165.9415283203125 79.404052734375 165.9415283203125 " />
        <polyline stroke="black" stroke-width="3" stroke-linecap="round" fill="transparent" stroke-linejoin="round" points="87.91796875 101.41502380371094 91.50277709960938 97.38211059570313 95.53564453125 93.34919738769533 113.90780639648438 80.80238342285156 128.2470703125 74.97706604003906 143.48248291015625 70.94415283203125 157.82171630859375 69.15176391601563 169.92041015625 69.599853515625 179.7786865234375 70.94415283203125 186.05206298828125 73.63276672363281 189.6368408203125 76.32138061523438 191.87738037109375 80.80238342285156 191.42926025390625 90.6605987548828 189.188720703125 97.38211059570313 171.71282958984375 125.61245727539063 162.302734375 136.36688232421875 162.302734375 136.36688232421875 " />
        <polyline stroke="black" stroke-width="3" stroke-linecap="round" fill="transparent" stroke-linejoin="round" points="93.74325561523438 117.546630859375 105.39389038085938 111.2732391357422 117.94073486328124 106.79222106933594 123.76605224609376 104.99981689453124 134.52044677734375 102.7593231201172 139.00146484375 101.86312866210938 147.96347045898438 101.86312866210938 147.96347045898438 101.86312866210938 " />
        <polyline stroke="black" stroke-width="3" stroke-linecap="round" fill="transparent" stroke-linejoin="round" points="93.295166015625 164.14913940429688 110.7711181640625 156.5314178466797 119.28500366210938 152.94662475585938 137.65716552734375 146.22509765625 156.4774169921875 140.847900390625 174.40142822265625 138.15928649902344 188.74066162109375 138.60739135742188 188.74066162109375 138.60739135742188 " />
        </svg>