<?xml version="1.0" standalone="no"?>
    <svg width="256" height="256" xmlns="http://www.w3.org/2000/svg" version="1.1">
    <polyline stroke="black" stroke-width="3" stroke-linecap="round" fill="transparent" stroke-linejoin="round" points="61.272552490234375 93.58424377441406 60.85369873046875 99.44822692871094 60.85369873046875 105.31222534179688 60.85369873046875 117.04019165039063 61.69140625 126.67388916015624 62.11029052734375 130.86245727539063 62.11029052734375 137.56414794921875 61.69140625 141.7527313232422 61.69140625 141.7527313232422 " />
        <polyline stroke="black" stroke-width="3" stroke-linecap="round" fill="transparent" stroke-linejoin="round" points="81.37765502929688 77.66769409179688 88.49822998046875 75.57342529296875 114.04843139648438 69.70944213867188 132.05926513671875 65.93972778320313 147.97579956054688 64.26431274414063 160.54150390625 65.10202026367188 168.499755859375 67.61515808105469 172.6883544921875 70.96600341796875 176.4580078125 80.18084716796875 175.62030029296875 95.67852783203124 168.91864013671875 114.94590759277344 155.09637451171875 136.30758666992188 155.09637451171875 136.30758666992188 " />
        <polyline stroke="black" stroke-width="3" stroke-linecap="round" fill="transparent" stroke-linejoin="round" points="93.52450561523438 101.96136474609376 101.901611328125 99.44822692871094 106.509033203125 98.191650390625 111.53533935546876 97.77281188964844 122.84442138671876 97.35394287109376 128.28955078125 98.61051940917967 128.28955078125 98.61051940917967 " />
        <polyline stroke="black" stroke-width="3" stroke-linecap="round" fill="transparent" stroke-linejoin="round" points="92.26791381835938 147.61669921875 101.06390380859376 145.1035614013672 109.85986328125 142.59042358398438 127.45184326171876 140.07730102539063 136.66668701171875 139.23959350585938 156.77178955078125 140.91500854492188 168.91864013671875 143.4281463623047 168.91864013671875 143.4281463623047 " />
        </svg>