<?xml version="1.0" standalone="no"?>
    <svg width="256" height="256" xmlns="http://www.w3.org/2000/svg" version="1.1">
    <polyline stroke="black" stroke-width="3" stroke-linecap="round" fill="transparent" stroke-linejoin="round" points="41.32891845703125 131.76194763183594 41.32891845703125 142.3567352294922 41.32891845703125 151.27867126464844 41.32891845703125 157.41249084472656 41.32891845703125 160.75820922851563 41.32891845703125 161.8734588623047 42.44415283203125 160.20059204101563 43.00177001953125 155.1820068359375 44.67462158203125 145.7024688720703 47.462738037109375 131.76194763183594 52.4813232421875 117.82144165039063 59.73040771484375 104.43855285644533 70.3251953125 92.728515625 83.70806884765625 82.13372802734375 98.2061767578125 74.88465881347656 112.146728515625 72.0965576171875 121.62625122070313 73.76942443847656 128.31768798828125 78.78800964355469 136.1243896484375 93.2861328125 138.9124755859375 112.2452392578125 136.1243896484375 128.97384643554688 131.10580444335938 139.56863403320313 124.97198486328124 147.93295288085938 111.03146362304688 155.73963928222656 111.03146362304688 155.73963928222656 " />
        <polyline stroke="black" stroke-width="3" stroke-linecap="round" fill="transparent" stroke-linejoin="round" points="77.57424926757813 55.925567626953125 78.13186645507813 74.88465881347656 77.57424926757813 110.01475524902344 77.57424926757813 136.78053283691406 79.80471801757813 168.5648956298828 80.91998291015625 190.3121032714844 82.03521728515625 207.59832763671875 83.70806884765625 217.635498046875 83.70806884765625 217.635498046875 " />
        <polyline stroke="black" stroke-width="3" stroke-linecap="round" fill="transparent" stroke-linejoin="round" points="176.8306884765625 97.18948364257813 187.42547607421875 93.84376525878906 200.250732421875 90.49803161621094 212.5184326171875 88.26756286621094 223.1131591796875 86.59469604492188 228.13177490234375 86.59469604492188 232.03515625 92.1708984375 232.03515625 92.1708984375 " />
        <polyline stroke="black" stroke-width="3" stroke-linecap="round" fill="transparent" stroke-linejoin="round" points="165.67828369140625 160.75820922851563 178.5035400390625 157.41249084472656 193.001708984375 154.6243896484375 207.49981689453125 151.83628845214844 220.3250732421875 149.04818725585938 229.24700927734375 144.02960205078125 229.24700927734375 144.02960205078125 " />
        <polyline stroke="black" stroke-width="3" stroke-linecap="round" fill="transparent" stroke-linejoin="round" points="182.4068603515625 52.02222442626953 183.5220947265625 82.13372802734375 184.0797119140625 111.12998962402344 184.0797119140625 138.45339965820313 185.75262451171875 160.75820922851563 186.86785888671875 178.60206604003906 187.98309326171875 194.2154541015625 187.98309326171875 203.69497680664065 186.86785888671875 210.94406127929688 186.31024169921875 218.750732421875 186.31024169921875 218.750732421875 " />
        </svg>