<?xml version="1.0" standalone="no"?>
    <svg width="256" height="256" xmlns="http://www.w3.org/2000/svg" version="1.1">
    <polyline stroke="black" stroke-width="3" stroke-linecap="round" fill="transparent" stroke-linejoin="round" points="49.00006103515625 131.4666748046875 49.00006103515625 141.06671142578125 49.00006103515625 146.40003967285156 50.06671142578125 149.6000213623047 52.2000732421875 138.93336486816406 51.1334228515625 120.8000030517578 51.1334228515625 106.933349609375 53.2667236328125 101.60000610351563 59.66668701171875 96.26667785644533 89.53338623046875 86.66667175292969 115.1334228515625 81.33334350585938 130.0667724609375 80.26667785644531 136.466796875 80.26667785644531 138.60009765625 81.33334350585938 135.4000244140625 92.00001525878906 129 101.60000610351563 121.53338623046876 112.26667785644533 115.1334228515625 119.73338317871094 104.466796875 117.60000610351563 101.2667236328125 113.33334350585938 101.2667236328125 113.33334350585938 " />
        <polyline stroke="black" stroke-width="3" stroke-linecap="round" fill="transparent" stroke-linejoin="round" points="89.53338623046875 65.33334350585938 94.86669921875 103.73333740234376 100.2000732421875 146.40003967285156 105.53338623046876 199.73336791992188 107.666748046875 215.73336791992188 107.666748046875 220.00003051757813 107.666748046875 220.00003051757813 " />
        <polyline stroke="black" stroke-width="3" stroke-linecap="round" fill="transparent" stroke-linejoin="round" points="169.533447265625 98.40000915527344 171.666748046875 132.53334045410156 175.933349609375 163.4666748046875 181.2667236328125 185.86666870117188 182.3333740234375 189.06671142578125 183.4000244140625 186.933349609375 182.3333740234375 177.33334350585938 182.3333740234375 177.33334350585938 " />
        <polyline stroke="black" stroke-width="3" stroke-linecap="round" fill="transparent" stroke-linejoin="round" points="158.86669921875 101.60000610351563 177 97.33334350585938 183.4000244140625 95.20002746582033 184.466796875 95.20002746582033 184.466796875 95.20002746582033 " />
        <polyline stroke="black" stroke-width="3" stroke-linecap="round" fill="transparent" stroke-linejoin="round" points="167.4000244140625 127.20001220703124 177 125.06671142578124 191.933349609375 124.00001525878906 198.3333740234375 122.93336486816406 198.3333740234375 122.93336486816406 " />
        </svg>