<?xml version="1.0" standalone="no"?>
    <svg width="256" height="256" xmlns="http://www.w3.org/2000/svg" version="1.1">
    <polyline stroke="black" stroke-width="3" stroke-linecap="round" fill="transparent" stroke-linejoin="round" points="44 165 49 176.25 54 183.75 57.75 187.5 59 188.75 59 188.75 " />
        <polyline stroke="black" stroke-width="3" stroke-linecap="round" fill="transparent" stroke-linejoin="round" points="82.75 123.75 95.25 116.25 106.5 111.25 117.75 108.75 121.5 108.75 124 110 124 115 122.75 125 120.25 138.75 117.75 150 115.25 156.25 111.5 160 106.5 162.5 101.5 161.25 101.5 161.25 " />
        <polyline stroke="black" stroke-width="3" stroke-linecap="round" fill="transparent" stroke-linejoin="round" points="90.25 113.75 90.25 127.5 90.25 141.25 90.25 185 90.25 206.25 90.25 218.75 90.25 225 90.25 226.25 90.25 225 90.25 225 " />
        <polyline stroke="black" stroke-width="3" stroke-linecap="round" fill="transparent" stroke-linejoin="round" points="150.25 116.25 162.75 110 174 105 181.5 101.25 186.5 100 185.25 102.5 180.25 110 167.75 131.25 146.5 156.25 132.75 168.75 124 176.25 122.75 177.5 129 172.5 144 161.25 161.5 150 176.5 140 184 133.75 186.5 130 184 127.5 184 127.5 " />
        <polyline stroke="black" stroke-width="3" stroke-linecap="round" fill="transparent" stroke-linejoin="round" points="164 85 165.25 103.75 166.5 125 167.75 172.5 167.75 230 169 251.25 170.25 258.75 170.25 258.75 " />
        </svg>