<?xml version="1.0" standalone="no"?>
    <svg width="256" height="256" xmlns="http://www.w3.org/2000/svg" version="1.1">
    <polyline stroke="black" stroke-width="3" stroke-linecap="round" fill="transparent" stroke-linejoin="round" points="46.424652099609375 103.894287109375 46.778564453125 110.97251892089844 47.1324462890625 117.69686889648438 47.48638916015625 123.00553894042967 48.548095703125 130.43768310546875 48.90203857421875 134.33071899414063 48.90203857421875 135.3924560546875 48.90203857421875 134.68463134765625 51.73333740234375 127.60638427734376 61.2889404296875 112.38816833496094 68.3671875 102.83255004882813 83.23150634765625 87.26042175292969 99.51144409179688 75.93524169921875 116.85311889648438 73.811767578125 124.99310302734376 80.53610229492188 129.24008178710938 87.96824645996094 131.00961303710938 124.4211883544922 127.82440185546876 133.62289428710938 115.7913818359375 145.30198669433594 115.7913818359375 145.30198669433594 " />
        <polyline stroke="black" stroke-width="3" stroke-linecap="round" fill="transparent" stroke-linejoin="round" points="86.41671752929688 104.24819946289063 87.83236694335938 125.48291015625 88.89410400390625 144.94808959960938 91.3714599609375 175.73843383789063 92.787109375 186.35580444335935 94.556640625 196.6192626953125 95.26449584960938 198.034912109375 95.26449584960938 198.034912109375 " />
        <polyline stroke="black" stroke-width="3" stroke-linecap="round" fill="transparent" stroke-linejoin="round" points="146.93563842773438 109.91079711914063 154.3677978515625 107.07949829101563 176.31036376953125 98.93951416015624 180.203369140625 97.87777709960938 183.38861083984375 97.52386474609376 183.03466796875 99.29344177246094 183.03466796875 99.29344177246094 " />
        <polyline stroke="black" stroke-width="3" stroke-linecap="round" fill="transparent" stroke-linejoin="round" points="137.026123046875 133.62289428710938 146.58172607421875 127.96031188964844 165.6929931640625 117.69686889648438 174.1868896484375 113.0959930419922 182.32684326171875 108.84906005859376 190.46685791015625 104.24819946289063 198.6068115234375 96.46212768554688 198.6068115234375 96.46212768554688 " />
        <polyline stroke="black" stroke-width="3" stroke-linecap="round" fill="transparent" stroke-linejoin="round" points="167.108642578125 59.6552734375 167.108642578125 71.33438110351563 167.8165283203125 84.42913818359375 169.23211669921875 98.58560180664063 173.47906494140625 132.20724487304688 178.433837890625 163.35150146484375 181.97296142578125 189.541015625 183.03466796875 204.75924682617188 183.03466796875 204.75924682617188 " />
        </svg>