<?xml version="1.0" standalone="no"?>
    <svg width="256" height="256" xmlns="http://www.w3.org/2000/svg" version="1.1">
    <polyline stroke="black" stroke-width="3" stroke-linecap="round" fill="transparent" stroke-linejoin="round" points="58 112 58 121 60 133 64 146 68 153 72 155 72 155 " />
        <polyline stroke="black" stroke-width="3" stroke-linecap="round" fill="transparent" stroke-linejoin="round" points="75 116 83 110 94 100 107 91 115 87 119 87 122 87 124 87 126 93 127 100 127 110 127 122 126 132 125 139 124 144 124 149 123 149 121 149 121 149 " />
        <polyline stroke="black" stroke-width="3" stroke-linecap="round" fill="transparent" stroke-linejoin="round" points="90 67 90 78 92 91 93 107 94 128 96 150 97 170 99 185 101 195 103 202 104 207 104 207 " />
        <polyline stroke="black" stroke-width="3" stroke-linecap="round" fill="transparent" stroke-linejoin="round" points="170 103 177 103 186 101 200 96 207 94 212 94 212 98 212 98 " />
        <polyline stroke="black" stroke-width="3" stroke-linecap="round" fill="transparent" stroke-linejoin="round" points="151 164 164 156 182 144 198 136 208 133 215 132 219 132 220 131 220 129 220 129 " />
        <polyline stroke="black" stroke-width="3" stroke-linecap="round" fill="transparent" stroke-linejoin="round" points="189 67 189 79 189 98 190 124 190 163 190 199 190 226 192 241 194 251 194 251 " />
        </svg>