<?xml version="1.0" standalone="no"?>
    <svg width="256" height="256" xmlns="http://www.w3.org/2000/svg" version="1.1">
    <polyline stroke="black" stroke-width="3" stroke-linecap="round" fill="transparent" stroke-linejoin="round" points="72.69610595703125 82.88262939453125 78.26434326171875 95.970703125 79.90521240234375 99.98649597167967 81.414306640625 103.3580322265625 81.52978515625 103.65621948242188 81.57000732421875 103.76004028320313 " />
        <polyline stroke="black" stroke-width="3" stroke-linecap="round" fill="transparent" stroke-linejoin="round" points="107.88323974609376 46.100250244140625 117.6453857421875 42.58892059326172 127.6114501953125 38.909629821777344 149.29525756835938 32.307029724121094 158.78106689453125 30.617034912109375 175.25238037109375 33.15068817138672 181.3489990234375 36.398094177246094 187.43017578125 48.387237548828125 189.1905517578125 58.108734130859375 189.784423828125 81.74066162109375 181.178466796875 102.02435302734376 174.09234619140625 112.47113037109376 164.82470703125 118.943359375 163.58123779296875 116.35067749023438 " />
        <polyline stroke="black" stroke-width="3" stroke-linecap="round" fill="transparent" stroke-linejoin="round" points="124.72360229492188 83.31356811523438 125.13616943359376 107.05886840820313 122.95684814453124 116.54655456542967 122.73886108398438 117.49528503417967 " />
        <polyline stroke="black" stroke-width="3" stroke-linecap="round" fill="transparent" stroke-linejoin="round" points="117.88949584960938 90.88029479980467 127.13986206054688 88.33259582519531 137.10101318359375 86.84716796875 152.4176025390625 86.48716735839844 158.2828369140625 87.76467895507813 158.41375732421875 87.87155151367188 158.458984375 87.90850830078125 " />
        <polyline stroke="black" stroke-width="3" stroke-linecap="round" fill="transparent" stroke-linejoin="round" points="117.75439453125 132.9092254638672 125.469970703125 130.67776489257813 134.88949584960938 127.7408447265625 151.2451171875 121.7158660888672 154.7442626953125 120.08645629882813 155.0340576171875 119.95152282714844 155.0845947265625 119.92796325683594 " />
        <polyline stroke="black" stroke-width="3" stroke-linecap="round" fill="transparent" stroke-linejoin="round" points="145.83602905273438 145.78160095214844 147.04415893554688 157.5228271484375 147.82659912109375 170.88658142089844 148.0987548828125 195.5331115722656 146.77011108398438 207.095458984375 142.025390625 216.9112243652344 139.473876953125 220.50567626953125 133.40972900390625 223.47601318359375 127.64791870117188 224.63204956054688 120.22137451171876 222.23599243164065 119.70687866210938 220.97332763671875 " />
        <polyline stroke="black" stroke-width="3" stroke-linecap="round" fill="transparent" stroke-linejoin="round" points="83.22640991210938 195.27978515625 89.82098388671875 197.7782287597656 102.18209838867188 198.456298828125 102.3111572265625 197.8232421875 " />
        <polyline stroke="black" stroke-width="3" stroke-linecap="round" fill="transparent" stroke-linejoin="round" points="183.1715087890625 170.27325439453125 170.5938720703125 186.8057861328125 166.7176513671875 191.25274658203125 " />
        </svg>