<?xml version="1.0" standalone="no"?>
    <svg width="256" height="256" xmlns="http://www.w3.org/2000/svg" version="1.1">
    <polyline stroke="black" stroke-width="3" stroke-linecap="round" fill="transparent" stroke-linejoin="round" points="86.29052734375 66.017333984375 87.03863525390625 77.986328125 87.41265869140625 83.97080993652344 87.41265869140625 95.19174194335938 87.41265869140625 103.79443359375 87.41265869140625 103.79443359375 " />
        <polyline stroke="black" stroke-width="3" stroke-linecap="round" fill="transparent" stroke-linejoin="round" points="95.641357421875 52.92626190185547 100.50375366210938 49.93401336669922 106.48822021484376 46.94176483154297 118.83123779296876 42.079368591308594 133.04440307617188 39.087120056152344 139.77694702148438 38.713096618652344 150.99789428710938 39.83518981933594 158.8525390625 42.827423095703125 163.3409423828125 47.3157958984375 165.9591064453125 59.2847900390625 162.21881103515625 77.6123046875 157.73046875 86.58903503417969 157.73046875 86.58903503417969 " />
        <polyline stroke="black" stroke-width="3" stroke-linecap="round" fill="transparent" stroke-linejoin="round" points="105.74017333984376 86.58903503417969 112.09869384765624 82.47468566894531 118.45721435546876 78.73439025878906 124.44171142578124 74.99407958984375 135.66259765625 68.26152038574219 143.51727294921875 61.90299987792969 143.51727294921875 61.90299987792969 " />
        <polyline stroke="black" stroke-width="3" stroke-linecap="round" fill="transparent" stroke-linejoin="round" points="120.70138549804688 72.0018310546875 119.57928466796876 77.23825073242188 118.45721435546876 82.84872436523438 114.71688842773438 95.56576538085938 111.72467041015624 103.04637145996094 108.732421875 110.5269775390625 108.732421875 110.5269775390625 " />
        <polyline stroke="black" stroke-width="3" stroke-linecap="round" fill="transparent" stroke-linejoin="round" points="117.33514404296876 115.01536560058594 124.06768798828124 110.5269775390625 135.66259765625 103.04637145996094 140.52499389648438 100.80218505859376 140.52499389648438 100.80218505859376 " />
        <polyline stroke="black" stroke-width="3" stroke-linecap="round" fill="transparent" stroke-linejoin="round" points="125.93783569335938 165.88352966308594 125.93783569335938 172.9901123046875 125.18978881835938 187.20330810546875 123.693603515625 196.18002319335935 120.32736206054688 201.04241943359375 118.83123779296876 202.53854370117188 118.83123779296876 202.53854370117188 " />
        <polyline stroke="black" stroke-width="3" stroke-linecap="round" fill="transparent" stroke-linejoin="round" points="70.58126831054688 174.11221313476563 79.55804443359375 176.73043823242188 115.8389892578125 175.60833740234375 115.8389892578125 175.60833740234375 " />
        <polyline stroke="black" stroke-width="3" stroke-linecap="round" fill="transparent" stroke-linejoin="round" points="171.569580078125 171.49400329589844 165.5850830078125 181.96685791015625 159.6005859375 194.68389892578125 154.3641357421875 208.1490173339844 154.3641357421875 208.1490173339844 " />
        </svg>