<?xml version="1.0" standalone="no"?>
    <svg width="256" height="256" xmlns="http://www.w3.org/2000/svg" version="1.1">
    <polyline stroke="black" stroke-width="3" stroke-linecap="round" fill="transparent" stroke-linejoin="round" points="72.11328125 64.84748840332031 73.7861328125 79.34562683105469 77.68948364257813 99.4199676513672 79.91998291015625 113.3604736328125 81.03521728515625 122.84002685546876 81.03521728515625 126.7433624267578 81.03521728515625 126.7433624267578 " />
        <polyline stroke="black" stroke-width="3" stroke-linecap="round" fill="transparent" stroke-linejoin="round" points="93.8604736328125 49.23412322998047 109.47384643554688 44.215538024902344 131.7786865234375 39.75457763671875 148.50726318359375 39.19695281982422 164.67828369140625 40.86981964111328 178.6187744140625 45.888397216796875 186.98309326171875 50.906982421875 191.444091796875 57.040802001953125 192.559326171875 68.75083923339844 186.98309326171875 84.92182922363281 171.9273681640625 103.88093566894533 150.73776245117188 117.82144165039063 150.73776245117188 117.82144165039063 " />
        <polyline stroke="black" stroke-width="3" stroke-linecap="round" fill="transparent" stroke-linejoin="round" points="83.82330322265625 108.89950561523438 95.5333251953125 103.88093566894533 113.377197265625 96.63186645507813 130.66342163085938 90.49803161621094 147.39202880859375 86.03707885742188 160.77490234375 82.13372802734375 169.1392822265625 79.34562683105469 169.1392822265625 79.34562683105469 " />
        <polyline stroke="black" stroke-width="3" stroke-linecap="round" fill="transparent" stroke-linejoin="round" points="135.6820068359375 62.05938720703125 135.6820068359375 69.30845642089844 134.5667724609375 79.34562683105469 133.4515380859375 89.94041442871094 128.99057006835938 104.99617004394533 121.74151611328124 117.82144165039063 121.74151611328124 117.82144165039063 " />
        <polyline stroke="black" stroke-width="3" stroke-linecap="round" fill="transparent" stroke-linejoin="round" points="99.99432373046876 127.30099487304688 115.050048828125 121.72477722167967 131.7786865234375 117.26382446289063 144.04632568359375 114.47572326660156 154.08349609375 113.3604736328125 159.65966796875 113.9180908203125 159.65966796875 113.9180908203125 " />
        <polyline stroke="black" stroke-width="3" stroke-linecap="round" fill="transparent" stroke-linejoin="round" points="126.76007080078124 155.73963928222656 127.87530517578124 160.75820922851563 128.99057006835938 168.5648956298828 129.54818725585938 181.39016723632813 130.10580444335938 195.8883056640625 130.66342163085938 208.15594482421875 129.54818725585938 214.847412109375 126.20245361328124 219.30838012695313 126.20245361328124 219.30838012695313 " />
        <polyline stroke="black" stroke-width="3" stroke-linecap="round" fill="transparent" stroke-linejoin="round" points="71.5556640625 175.81396484375 77.68948364257813 180.27493286132813 86.61138916015625 184.73590087890625 96.6485595703125 186.40875244140625 96.6485595703125 186.40875244140625 " />
        <polyline stroke="black" stroke-width="3" stroke-linecap="round" fill="transparent" stroke-linejoin="round" points="183.0797119140625 164.66156005859375 177.5035400390625 173.02586364746094 169.1392822265625 183.62066650390625 158.54443359375 199.23403930664065 158.54443359375 199.23403930664065 " />
        </svg>