<?xml version="1.0" standalone="no"?>
    <svg width="256" height="256" xmlns="http://www.w3.org/2000/svg" version="1.1">
    <polyline stroke="black" stroke-width="3" stroke-linecap="round" fill="transparent" stroke-linejoin="round" points="53.00177001953125 59.61753845214844 58.22076416015625 67.98312377929688 62.6710205078125 75.97956848144531 66.47637939453125 84.74006652832031 69.08175659179688 98.24282836914063 69.13818359375 98.8218231201172 " />
        <polyline stroke="black" stroke-width="3" stroke-linecap="round" fill="transparent" stroke-linejoin="round" points="94.785888671875 37.29789733886719 102.47027587890624 35.033531188964844 113.71380615234376 31.807212829589844 136.96017456054688 32.51953125 141.58700561523438 35.089508056640625 145.57003784179688 41.056846618652344 155.1024169921875 46.02424621582031 159.46759033203125 52.61003875732422 159.84808349609375 57.93498229980469 155.2476806640625 75.92410278320313 155.006103515625 77.0440673828125 " />
        <polyline stroke="black" stroke-width="3" stroke-linecap="round" fill="transparent" stroke-linejoin="round" points="100.90927124023438 58.292999267578125 101.6279296875 68.49737548828125 100.29034423828124 96.48435974121094 97.63372802734376 103.0271453857422 97.36618041992188 103.5947723388672 " />
        <polyline stroke="black" stroke-width="3" stroke-linecap="round" fill="transparent" stroke-linejoin="round" points="93.22357177734376 67.85577392578125 98.4398193359375 66.61386108398438 104.4169921875 65.3529052734375 109.69091796875 64.52713012695313 115.489990234375 64.331787109375 129.36883544921875 65.67105102539063 129.719482421875 65.75900268554688 129.74871826171875 65.76632690429688 " />
        <polyline stroke="black" stroke-width="3" stroke-linecap="round" fill="transparent" stroke-linejoin="round" points="88.90545654296875 95.0265655517578 104.48703002929688 90.12313842773438 111.34246826171876 88.26513671875 137.1976318359375 86.8421630859375 140.01373291015625 87.75543212890625 140.29534912109375 87.84677124023438 140.323486328125 87.85589599609375 " />
        <polyline stroke="black" stroke-width="3" stroke-linecap="round" fill="transparent" stroke-linejoin="round" points="99.02264404296876 117.935791015625 100.94586181640624 138.704345703125 101.69638061523438 148.70248413085938 102.03253173828124 167.74424743652344 101.89422607421876 173.94407653808594 100.6484375 182.47296142578125 99.8504638671875 184.10455322265625 97.45501708984376 185.1983642578125 92.11569213867188 186.2525634765625 87.06298828125 186.3243408203125 68.071533203125 179.71340942382813 67.3721923828125 179.36306762695313 " />
        <polyline stroke="black" stroke-width="3" stroke-linecap="round" fill="transparent" stroke-linejoin="round" points="53.028076171875 147.34722900390625 65.6983642578125 150.5990447998047 71.3642578125 152.30548095703125 73.97177124023438 153.62924194335938 74.65521240234375 153.87408447265625 " />
        <polyline stroke="black" stroke-width="3" stroke-linecap="round" fill="transparent" stroke-linejoin="round" points="156.3270263671875 121.16842651367188 151.1148681640625 125.2283172607422 138.32757568359375 137.3916473388672 136.56930541992188 139.43948364257813 " />
        </svg>