<?xml version="1.0" standalone="no"?>
    <svg width="256" height="256" xmlns="http://www.w3.org/2000/svg" version="1.1">
    <polyline stroke="black" stroke-width="3" stroke-linecap="round" fill="transparent" stroke-linejoin="round" points="89.74041748046875 82.98536682128906 93.20574951171876 93.68728637695313 98.17254638671876 109.91729736328124 101.07733154296876 117.87120056152344 101.172607421875 118.06089782714844 " />
        <polyline stroke="black" stroke-width="3" stroke-linecap="round" fill="transparent" stroke-linejoin="round" points="104.06768798828124 50.935302734375 109.8382568359375 49.61852264404297 132.19052124023438 46.88945007324219 163.6346435546875 46.36717224121094 176.2020263671875 49.07381439208984 179.21990966796875 51.04792785644531 181.56854248046875 53.72615814208984 181.711181640625 55.1431884765625 181.9791259765625 64.53538513183594 181.03692626953125 73.66361999511719 175.17437744140625 96.39187622070313 170.1761474609375 101.27317810058594 169.67633056640625 101.76129150390624 " />
        <polyline stroke="black" stroke-width="3" stroke-linecap="round" fill="transparent" stroke-linejoin="round" points="122.56396484375 76.6202392578125 122.93658447265624 85.99014282226563 123.02987670898438 105.1861572265625 122.353515625 111.7099609375 122.29998779296876 113.11026000976563 " />
        <polyline stroke="black" stroke-width="3" stroke-linecap="round" fill="transparent" stroke-linejoin="round" points="110.99505615234376 81.81179809570313 122.61422729492188 79.482177734375 138.52947998046875 76.35185241699219 145.49798583984375 75.61810302734375 165.32470703125 75.48468017578125 165.882080078125 75.524169921875 165.8858642578125 75.52445983886719 " />
        <polyline stroke="black" stroke-width="3" stroke-linecap="round" fill="transparent" stroke-linejoin="round" points="129.69915771484375 104.755859375 143.62350463867188 101.74252319335938 159.61968994140625 99.05014038085938 168.22509765625 97.27238464355467 168.3773193359375 97.23204040527344 168.390869140625 97.22843933105467 168.3927001953125 97.22796630859376 " />
        <polyline stroke="black" stroke-width="3" stroke-linecap="round" fill="transparent" stroke-linejoin="round" points="142.29388427734375 149.89703369140625 143.4052734375 162.20639038085938 143.79132080078125 185.74530029296875 143.69354248046875 194.61376953125 142.01806640625 200.38677978515625 140.90536499023438 200.76901245117188 138.73016357421875 201.0933532714844 137.76962280273438 200.9063720703125 124.85006713867188 201.65203857421875 121.74154663085938 201.16265869140625 119.35906982421876 199.09686279296875 119.20260620117188 198.96124267578125 " />
        <polyline stroke="black" stroke-width="3" stroke-linecap="round" fill="transparent" stroke-linejoin="round" points="96.02447509765624 164.41763305664063 105.37445068359376 166.2266082763672 113.07440185546876 167.30734252929688 114.70556640625 167.4344940185547 " />
        <polyline stroke="black" stroke-width="3" stroke-linecap="round" fill="transparent" stroke-linejoin="round" points="170.6890869140625 146.8729248046875 168.486328125 149.7726287841797 " />
        </svg>