<?xml version="1.0" standalone="no"?>
    <svg width="256" height="256" xmlns="http://www.w3.org/2000/svg" version="1.1">
    <polyline stroke="black" stroke-width="3" stroke-linecap="round" fill="transparent" stroke-linejoin="round" points="56.172271728515625 86.72862243652345 59.0067138671875 92.39749145507813 61.841156005859375 98.0663604736328 68.92724609375 108.34121704101563 68.92724609375 108.34121704101563 " />
        <polyline stroke="black" stroke-width="3" stroke-linecap="round" fill="transparent" stroke-linejoin="round" points="116.40411376953124 50.943817138671875 108.255126953125 66.17892456054688 100.10614013671876 81.41403198242188 76.01336669921875 130.66241455078125 67.15573120117188 146.6061248779297 52.27490234375 169.28164672851563 42.708709716796875 182.7452392578125 37.039794921875 188.7684326171875 35.268310546875 189.83132934570313 35.268310546875 189.83132934570313 " />
        <polyline stroke="black" stroke-width="3" stroke-linecap="round" fill="transparent" stroke-linejoin="round" points="49.086212158203125 138.81146240234375 55.46368408203125 144.48031616210938 61.841156005859375 150.149169921875 69.28158569335938 155.81805419921875 83.80807495117188 163.96707153320313 99.04318237304688 166.801513671875 110.026611328125 163.61277770996094 110.026611328125 163.61277770996094 " />
        <polyline stroke="black" stroke-width="3" stroke-linecap="round" fill="transparent" stroke-linejoin="round" points="148.29159545898438 67.24188232421875 137.66244506835938 93.10610961914063 127.03329467773438 118.9703369140625 118.17562866210938 141.29156494140625 115.69549560546876 145.89752197265625 115.34124755859376 146.2518310546875 117.467041015625 142.0001678466797 124.19882202148438 133.14254760742188 129.86767578125 127.4736785888672 135.53659057617188 124.284912109375 142.26840209960938 123.57632446289063 150.06307983398438 125.7021484375 157.149169921875 128.89089965820313 165.2982177734375 131.72532653808594 176.28167724609375 129.5994873046875 176.28167724609375 129.5994873046875 " />
        <polyline stroke="black" stroke-width="3" stroke-linecap="round" fill="transparent" stroke-linejoin="round" points="206.39752197265625 67.59616088867186 199.665771484375 83.53987121582031 192.93402099609375 99.48358154296876 186.91082763671875 114.71868896484376 176.28167724609375 141.64585876464844 171.67572021484375 153.3379364013672 163.8809814453125 173.53330993652344 161.04656982421875 180.9737243652344 157.8577880859375 192.665771484375 157.8577880859375 192.665771484375 " />
        <polyline stroke="black" stroke-width="3" stroke-linecap="round" fill="transparent" stroke-linejoin="round" points="197.5399169921875 146.96044921875 203.91741943359375 151.21209716796875 210.294921875 155.4637451171875 241.4737548828125 190.89425659179688 241.4737548828125 190.89425659179688 " />
        </svg>