<?xml version="1.0" standalone="no"?>
    <svg width="256" height="256" xmlns="http://www.w3.org/2000/svg" version="1.1">
    <polyline stroke="black" stroke-width="3" stroke-linecap="round" fill="transparent" stroke-linejoin="round" points="59.927276611328125 96.52243041992188 61.4039306640625 97.89797973632813 62.880584716796875 99.27352905273438 65.85604858398438 100.61174011230467 75.40277099609375 99.5419921875 79.80804443359375 96.75393676757813 87.59677124023438 88.10063171386719 91.18917846679688 83.68209838867188 96.6361083984375 77.18730163574219 97.798095703125 76.39163208007813 98.06222534179688 78.69830322265625 98.4251708984375 90.27679443359376 91.5731201171875 119.79539489746094 84.57662963867188 131.4466552734375 66.748291015625 151.67269897460938 48.14190673828125 174.2897186279297 42.14825439453125 184.10601806640625 34.809417724609375 199.64031982421875 34.669769287109375 200.16629028320313 " />
        <polyline stroke="black" stroke-width="3" stroke-linecap="round" fill="transparent" stroke-linejoin="round" points="50.95147705078125 127.3641357421875 56.36444091796875 133.05223083496094 61.77740478515625 138.74032592773438 76.68624877929688 155.51675415039063 91.85711669921876 172.81362915039063 95.60955810546876 177.12258911132813 97.3856201171875 179.47149658203125 97.40121459960938 179.49209594726563 " />
        <polyline stroke="black" stroke-width="3" stroke-linecap="round" fill="transparent" stroke-linejoin="round" points="123.0660400390625 47.963134765625014 121.331298828125 87.41946411132813 119.5965576171875 126.87579345703124 116.54217529296876 146.06692504882813 109.31906127929688 180.75601196289065 106.78045654296876 188.31640625 103.00909423828124 196.72906494140625 102.873046875 196.837646484375 102.85812377929688 196.84954833984375 102.8580322265625 196.84963989257813 103.5023193359375 195.0460205078125 105.92587280273438 189.23797607421875 112.5986328125 177.59454345703125 116.39373779296876 174.78250122070313 132.39990234375 177.53501892089844 146.32186889648438 188.8125915527344 149.49520874023438 196.27420043945313 155.60150146484375 212.48773193359375 160.13922119140625 216.80633544921875 160.593017578125 217.23822021484375 " />
        <polyline stroke="black" stroke-width="3" stroke-linecap="round" fill="transparent" stroke-linejoin="round" points="174.5576171875 48.205078125 172.13812255859375 85.163818359375 169.7186279296875 122.12255859375 167.4398193359375 141.0035858154297 157.2147216796875 161.69326782226563 144.74716186523438 187.92047119140625 142.848388671875 197.79965209960935 143.3096923828125 198.15972900390625 143.36044311523438 198.19937133789065 143.36077880859375 198.1995849609375 159.19482421875 186.78192138671875 167.6011962890625 176.10662841796875 172.311767578125 171.88589477539063 176.65594482421875 170.15110778808594 186.54168701171875 174.80601501464844 192.29931640625 180.96722412109375 201.06060791015625 196.40603637695313 208.1905517578125 211.54400634765625 209.0703125 216.84991455078125 207.605224609375 222.802734375 207.458740234375 223.39801025390625 " />
        </svg>