<?xml version="1.0" standalone="no"?>
    <svg width="256" height="256" xmlns="http://www.w3.org/2000/svg" version="1.1">
    <polyline stroke="black" stroke-width="3" stroke-linecap="round" fill="transparent" stroke-linejoin="round" points="63.763671875 81.41865539550781 70.767578125 102.0970458984375 72.565185546875 108.90603637695313 75.98065185546875 123.0552978515625 76.7509765625 128.01878356933594 77.35702514648438 135.25189208984375 78.36557006835938 138.4781494140625 78.4361572265625 138.70388793945313 " />
        <polyline stroke="black" stroke-width="3" stroke-linecap="round" fill="transparent" stroke-linejoin="round" points="83.85418701171875 64.98094177246094 103.99578857421876 57.65397644042969 112.88409423828124 56.185577392578125 135.04232788085938 55.24913787841797 146.2161865234375 55.347618103027344 156.0643310546875 57.2259521484375 158.4423828125 58.78489685058594 184.1927490234375 66.62557983398438 189.0106201171875 70.64813232421875 194.43310546875 80.15348815917969 203.0281982421875 88.63470458984375 198.6051025390625 102.69000244140624 189.9427490234375 114.5128173828125 186.4600830078125 120.2552490234375 179.466552734375 127.43069458007813 168.815673828125 131.9617919921875 157.4239501953125 134.20492553710938 153.8505859375 133.45359802246094 145.4683837890625 125.67588806152344 139.626953125 117.59780883789063 140.208984375 115.95480346679688 " />
        <polyline stroke="black" stroke-width="3" stroke-linecap="round" fill="transparent" stroke-linejoin="round" points="121.84359741210938 20.416473388671875 121.43905639648438 37.395355224609375 121.87362670898438 49.16334533691406 122.73162841796876 65.00593566894531 123.3731689453125 81.97349548339844 123.84945678710938 109.69308471679688 124.10760498046876 120.91229248046876 123.53768920898438 138.3809814453125 121.25567626953124 144.99139404296875 120.60784912109376 142.80850219726563 " />
        <polyline stroke="black" stroke-width="3" stroke-linecap="round" fill="transparent" stroke-linejoin="round" points="80.20135498046875 162.5113525390625 87.29388427734375 175.23876953125 90.748291015625 182.97154235839844 97.4962158203125 203.20138549804688 99.968017578125 211.64712524414065 101.24520874023438 222.322265625 100.552490234375 223.8035888671875 100.49935913085938 223.917236328125 " />
        <polyline stroke="black" stroke-width="3" stroke-linecap="round" fill="transparent" stroke-linejoin="round" points="109.05868530273438 162.87664794921875 122.09957885742188 152.2572479248047 137.234130859375 146.856689453125 143.95404052734375 144.99032592773438 153.903564453125 143.949951171875 156.1617431640625 144.54656982421875 175.88079833984375 147.89251708984375 181.15185546875 151.18856811523438 180.6732177734375 152.46234130859375 180.53125 159.3954315185547 179.5595703125 166.52679443359375 165.5718994140625 181.81964111328125 159.60687255859375 190.25482177734375 151.58319091796875 204.67559814453125 151.9815673828125 204.0668029785156 " />
        <polyline stroke="black" stroke-width="3" stroke-linecap="round" fill="transparent" stroke-linejoin="round" points="61.2066650390625 215.112060546875 77.11618041992188 213.14642333984375 84.37716674804688 212.07061767578125 91.03829956054688 211.53228759765625 106.911865234375 209.98004150390625 116.19329833984376 209.1109619140625 126.76971435546876 207.88037109375 153.96917724609375 205.9630126953125 157.44720458984375 205.8343505859375 189.472412109375 204.6722412109375 192.5498046875 204.4779052734375 195.03973388671875 204.19622802734375 215.04949951171875 204.54986572265625 217.99365234375 204.67572021484375 218.0206298828125 204.6768493652344 217.956298828125 205.7005920410156 217.9320068359375 206.08706665039065 " />
        </svg>