<?xml version="1.0" standalone="no"?>
    <svg width="256" height="256" xmlns="http://www.w3.org/2000/svg" version="1.1">
    <polyline stroke="black" stroke-width="3" stroke-linecap="round" fill="transparent" stroke-linejoin="round" points="107.54461669921876 92.71051025390624 120.17550659179688 89.0994873046875 143.1817626953125 81.87744140625 158.97039794921875 77.81504821777344 163.4814453125 77.36366271972656 166.1881103515625 77.81504821777344 166.1881103515625 77.81504821777344 " />
        <polyline stroke="black" stroke-width="3" stroke-linecap="round" fill="transparent" stroke-linejoin="round" points="140.47515869140625 104.897705078125 138.67074584960938 117.5362548828125 136.41522216796875 130.17483520507813 131.001953125 155.0006103515625 128.7464599609375 164.02816772460938 128.29534912109375 174.40985107421875 128.7464599609375 176.66673278808594 128.7464599609375 176.66673278808594 " />
        <polyline stroke="black" stroke-width="3" stroke-linecap="round" fill="transparent" stroke-linejoin="round" points="108.89788818359376 143.2647705078125 125.58871459960938 138.29962158203125 133.70858764648438 136.49412536621094 140.92626953125 135.59136962890625 154.45941162109375 135.59136962890625 159.87261962890625 136.49412536621094 166.1881103515625 140.10516357421875 166.1881103515625 140.10516357421875 " />
        <polyline stroke="black" stroke-width="3" stroke-linecap="round" fill="transparent" stroke-linejoin="round" points="66.494140625 201.49249267578125 85.44052124023438 194.27044677734375 134.61080932617188 182.53465270996097 158.0682373046875 180.7291259765625 195.50982666015625 179.37503051757813 209.4940185546875 179.37503051757813 219.4183349609375 179.82635498046875 228.8914794921875 182.083251953125 230.6959228515625 184.79153442382813 230.6959228515625 184.79153442382813 " />
        </svg>