<?xml version="1.0" standalone="no"?>
    <svg width="256" height="256" xmlns="http://www.w3.org/2000/svg" version="1.1">
    <polyline stroke="black" stroke-width="3" stroke-linecap="round" fill="transparent" stroke-linejoin="round" points="106.02862548828124 66.75357055664063 131.7169189453125 62.34989929199219 167.6805419921875 58.68013000488281 184.5614013671875 57.94615173339844 191.1669921875 57.21220397949219 194.102783203125 57.21220397949219 192.6348876953125 57.21220397949219 190.43310546875 57.21220397949219 190.43310546875 57.21220397949219 " />
        <polyline stroke="black" stroke-width="3" stroke-linecap="round" fill="transparent" stroke-linejoin="round" points="128.04718017578125 80.69866943359375 125.84527587890624 107.8548583984375 123.64349365234376 142.3505859375 122.9095458984375 159.23147583007813 122.9095458984375 170.9746856689453 124.37738037109376 179.04815673828125 125.84527587890624 181.9839782714844 130.2490234375 182.71792602539065 130.2490234375 182.71792602539065 " />
        <polyline stroke="black" stroke-width="3" stroke-linecap="round" fill="transparent" stroke-linejoin="round" points="113.3681640625 124.73576354980467 133.9188232421875 119.59808349609376 153.7354736328125 118.8641357421875 168.41455078125 119.59808349609376 170.616455078125 121.06600952148438 171.350341796875 124.00180053710938 167.6805419921875 127.67155456542967 167.6805419921875 127.67155456542967 " />
        <polyline stroke="black" stroke-width="3" stroke-linecap="round" fill="transparent" stroke-linejoin="round" points="96.4873046875 190.05743408203125 111.16632080078124 187.8555908203125 125.84527587890624 186.38766479492188 175.0201416015625 186.38766479492188 202.91015625 189.323486328125 223.4608154296875 192.25927734375 235.9381103515625 194.46115112304688 244.011474609375 195.92904663085935 244.011474609375 195.92904663085935 " />
        </svg>