<?xml version="1.0" standalone="no"?>
    <svg width="256" height="256" xmlns="http://www.w3.org/2000/svg" version="1.1">
    <polyline stroke="black" stroke-width="3" stroke-linecap="round" fill="transparent" stroke-linejoin="round" points="68 66 78 65 100 61 113 59 139 58 162 58 179 58 185 58 185 58 " />
        <polyline stroke="black" stroke-width="3" stroke-linecap="round" fill="transparent" stroke-linejoin="round" points="126 86 126 112 126 140 126 163 127 179 127 179 " />
        <polyline stroke="black" stroke-width="3" stroke-linecap="round" fill="transparent" stroke-linejoin="round" points="69 126 78 126 101 125 127 125 140 125 153 125 171 125 180 125 180 125 " />
        <polyline stroke="black" stroke-width="3" stroke-linecap="round" fill="transparent" stroke-linejoin="round" points="50 202 57 202 78 198 93 196 122 193 154 191 182 190 194 190 194 190 " />
        </svg>