<?xml version="1.0" standalone="no"?>
    <svg width="256" height="256" xmlns="http://www.w3.org/2000/svg" version="1.1">
    <polyline stroke="black" stroke-width="3" stroke-linecap="round" fill="transparent" stroke-linejoin="round" points="82 66 87 66 102 63 119 60 140 58 153 58 163 57 163 57 " />
        <polyline stroke="black" stroke-width="3" stroke-linecap="round" fill="transparent" stroke-linejoin="round" points="77 110 83 109 97 105 114 102 123 101 131 99 146 97 157 95 160 95 160 95 " />
        <polyline stroke="black" stroke-width="3" stroke-linecap="round" fill="transparent" stroke-linejoin="round" points="122 74 122 79 122 93 122 112 122 123 122 140 121 153 119 159 119 159 " />
        <polyline stroke="black" stroke-width="3" stroke-linecap="round" fill="transparent" stroke-linejoin="round" points="80 166 86 166 101 163 121 161 132 160 166 158 182 158 190 161 190 161 " />
        </svg>