<?xml version="1.0" standalone="no"?>
    <svg width="256" height="256" xmlns="http://www.w3.org/2000/svg" version="1.1">
    <polyline stroke="black" stroke-width="3" stroke-linecap="round" fill="transparent" stroke-linejoin="round" points="65.36056518554688 94.84913635253906 73.99069213867188 91.97242736816406 82.62081909179688 89.09571838378906 92.07284545898438 85.80804443359375 114.675537109375 79.23271179199219 138.51116943359375 73.06832885742188 158.2371826171875 69.36972045898438 171.798828125 66.49301147460938 180.0179443359375 64.84916687011719 184.1275634765625 64.02725219726563 185.3604736328125 63.616302490234375 184.949462890625 63.20533752441406 184.949462890625 63.20533752441406 " />
        <polyline stroke="black" stroke-width="3" stroke-linecap="round" fill="transparent" stroke-linejoin="round" points="99.88107299804688 106.35600280761714 97.00436401367188 115.80802917480467 94.12765502929688 125.2600555419922 87.55233764648438 148.2737274169922 85.49752807617188 161.01345825195313 85.0865478515625 166.76687622070313 85.0865478515625 172.93124389648438 89.60711669921875 187.72576904296875 92.894775390625 191.013427734375 104.81259155273438 198.41067504882813 126.182373046875 203.75311279296875 150.83993530273438 203.75311279296875 173.03167724609375 202.10931396484375 189.8809814453125 200.05450439453125 201.79876708984375 199.23260498046875 208.3741455078125 199.23260498046875 208.3741455078125 199.23260498046875 " />
        </svg>