<?xml version="1.0" standalone="no"?>
    <svg width="256" height="256" xmlns="http://www.w3.org/2000/svg" version="1.1">
    <polyline stroke="black" stroke-width="3" stroke-linecap="round" fill="transparent" stroke-linejoin="round" points="54.4342041015625 111.22006225585938 48.62591552734375 127.35421752929688 42.817626953125 142.84300231933594 38.300048828125 153.16885375976563 36.36395263671875 157.68641662597656 36.36395263671875 155.7503204345703 36.36395263671875 155.7503204345703 " />
        <polyline stroke="black" stroke-width="3" stroke-linecap="round" fill="transparent" stroke-linejoin="round" points="59.59710693359375 106.05712890625 71.85906982421875 97.02200317382813 86.7025146484375 86.05078125 104.77276611328124 76.37030029296875 123.48837280273438 67.98052978515625 144.78546142578125 61.52687072753906 164.14642333984375 58.945404052734375 179.63525390625 62.1722412109375 189.315673828125 71.85273742675781 198.350830078125 97.02200317382813 200.9322509765625 132.51715087890625 194.4786376953125 163.49472045898438 183.5074462890625 189.9547119140625 171.89080810546875 207.37960815429688 163.5010986328125 215.12399291992188 145.43081665039063 222.2230224609375 135.10494995117188 222.2230224609375 126.7152099609375 217.06008911132813 126.7152099609375 217.06008911132813 " />
        <polyline stroke="black" stroke-width="3" stroke-linecap="round" fill="transparent" stroke-linejoin="round" points="99.60980224609376 115.09225463867188 87.34786987304688 149.29666137695313 82.830322265625 168.0122833251953 79.60345458984375 181.56497192382813 78.312744140625 188.01861572265625 80.24884033203125 188.01861572265625 80.24884033203125 188.01861572265625 " />
        <polyline stroke="black" stroke-width="3" stroke-linecap="round" fill="transparent" stroke-linejoin="round" points="135.10494995117188 108.63859558105467 128.65130615234375 133.80787658691406 120.90692138671876 157.0410614013672 115.09860229492188 176.40203857421875 111.22640991210938 195.76303100585935 111.22640991210938 195.76303100585935 " />
        </svg>