<?xml version="1.0" standalone="no"?>
    <svg width="256" height="256" xmlns="http://www.w3.org/2000/svg" version="1.1">
    <polyline stroke="black" stroke-width="3" stroke-linecap="round" fill="transparent" stroke-linejoin="round" points="89.24676513671875 62.91343688964844 84.7767333984375 71.44711303710938 79.90036010742188 81.19989013671875 65.67758178710938 112.08367919921876 58.36297607421875 126.71286010742188 53.486572265625 134.84017944335938 50.64202880859375 138.49746704101563 49.82928466796875 138.90383911132813 51.04840087890625 136.8719940185547 60.394775390625 128.74468994140625 77.0557861328125 116.5537109375 97.37408447265624 103.55001831054688 118.50509643554688 92.98451232910156 139.6361083984375 85.2635498046875 158.3289794921875 80.38716125488281 174.98992919921875 79.16806030273438 185.96185302734375 83.63809204101563 194.4954833984375 94.60995483398438 202.21649169921875 118.17918395996094 204.248291015625 144.9993133544922 201.81005859375 168.1621551513672 196.1209716796875 186.4486083984375 187.99365234375 199.45233154296875 177.02178955078125 208.7987365722656 158.3289794921875 213.67514038085935 158.3289794921875 213.67514038085935 " />
        <polyline stroke="black" stroke-width="3" stroke-linecap="round" fill="transparent" stroke-linejoin="round" points="112.40960693359376 123.46194458007813 109.5650634765625 130.7765350341797 106.31414794921876 138.09109497070313 101.0313720703125 150.68844604492188 96.56137084960938 159.22210693359375 96.15499877929688 159.62847900390625 96.15499877929688 159.62847900390625 " />
        <polyline stroke="black" stroke-width="3" stroke-linecap="round" fill="transparent" stroke-linejoin="round" points="142.07431030273438 113.70916748046876 140.04248046875 122.24284362792967 137.19793701171875 131.5892333984375 133.947021484375 141.74839782714844 126.63241577148438 162.06668090820313 121.34967041015624 175.88311767578125 121.34967041015624 175.88311767578125 " />
        </svg>