<?xml version="1.0" standalone="no"?>
    <svg width="256" height="256" xmlns="http://www.w3.org/2000/svg" version="1.1">
    <polyline stroke="black" stroke-width="3" stroke-linecap="round" fill="transparent" stroke-linejoin="round" points="87.15032958984375 85.23277282714844 80.09536743164063 103.37411499023438 73.0404052734375 122.52330017089844 66.4893798828125 144.696044921875 62.45794677734375 156.28634643554688 59.43438720703125 163.84524536132813 59.43438720703125 164.85308837890625 59.43438720703125 164.85308837890625 " />
        <polyline stroke="black" stroke-width="3" stroke-linecap="round" fill="transparent" stroke-linejoin="round" points="87.65423583984375 108.4133758544922 100.25241088867188 101.35841369628906 117.88983154296876 93.29559326171876 140.56646728515625 85.73670959472656 156.692138671875 82.71315002441406 171.30596923828125 83.21707153320313 184.9119873046875 87.24847412109375 193.478759765625 95.81521606445313 201.54150390625 113.95655822753906 204.5650634765625 142.17642211914063 200.53369140625 167.3727264404297 193.478759765625 187.02584838867188 185.4158935546875 202.14361572265625 175.33740234375 212.22213745117188 162.23529052734375 220.28494262695313 144.597900390625 222.8045959472656 129.4801025390625 214.23785400390625 118.89767456054688 193.07293701171875 118.89767456054688 193.07293701171875 " />
        <polyline stroke="black" stroke-width="3" stroke-linecap="round" fill="transparent" stroke-linejoin="round" points="112.85055541992188 119.49974060058594 102.26812744140624 153.26278686523438 96.72491455078124 168.3805694580078 91.18173217773438 180.47479248046875 88.158203125 186.0179748535156 87.15032958984375 186.0179748535156 87.15032958984375 186.0179748535156 " />
        <polyline stroke="black" stroke-width="3" stroke-linecap="round" fill="transparent" stroke-linejoin="round" points="147.6214599609375 107.405517578125 142.58221435546875 126.05078125 135.0233154296875 149.23138427734375 126.96047973632813 166.86878967285156 115.37017822265624 190.04937744140625 105.79559326171876 210.7103576660156 105.79559326171876 210.7103576660156 " />
        </svg>