<?xml version="1.0" standalone="no"?>
    <svg width="256" height="256" xmlns="http://www.w3.org/2000/svg" version="1.1">
    <polyline stroke="black" stroke-width="3" stroke-linecap="round" fill="transparent" stroke-linejoin="round" points="86.29452514648438 73.57421875 83.13632202148438 82.25920104980469 79.1885986328125 92.91806030273438 68.52975463867188 116.99917602539063 57.47613525390625 138.71163940429688 48.0015869140625 153.71298217773438 42.47479248046875 162.003173828125 42.47479248046875 162.003173828125 " />
        <polyline stroke="black" stroke-width="3" stroke-linecap="round" fill="transparent" stroke-linejoin="round" points="79.1885986328125 126.47369384765624 98.92721557617188 111.86711120605467 120.24493408203124 100.8134765625 140.7730712890625 93.70759582519533 161.30120849609375 90.54940795898438 177.8817138671875 90.94419860839844 190.514404296875 96.07623291015624 200.3836669921875 106.34031677246094 208.6739501953125 128.0527801513672 208.6739501953125 156.47637939453125 201.9627685546875 183.3208923339844 191.69866943359375 203.84906005859375 181.829345703125 216.87652587890625 171.9600830078125 225.166748046875 160.906494140625 229.90402221679688 154.98486328125 229.90402221679688 149.45806884765625 227.93014526367188 149.45806884765625 227.93014526367188 " />
        <polyline stroke="black" stroke-width="3" stroke-linecap="round" fill="transparent" stroke-linejoin="round" points="118.66586303710938 122.92074584960938 116.69198608398438 132.39529418945313 113.53378295898438 143.0541229248047 106.03314208984376 163.582275390625 98.532470703125 180.16270446777344 95.76904296875 185.68951416015625 91.8212890625 192.79541015625 90.63702392578124 194.37451171875 89.45269775390625 195.1640625 89.45269775390625 195.1640625 " />
        <polyline stroke="black" stroke-width="3" stroke-linecap="round" fill="transparent" stroke-linejoin="round" points="146.29989624023438 134.36912536621094 142.74691772460938 147.3966064453125 133.27239990234375 173.0568084716797 123.403076171875 195.95361328125 115.90243530273438 213.32357788085935 115.90243530273438 213.32357788085935 " />
        </svg>