<?xml version="1.0" standalone="no"?>
    <svg width="256" height="256" xmlns="http://www.w3.org/2000/svg" version="1.1">
    <polyline stroke="black" stroke-width="3" stroke-linecap="round" fill="transparent" stroke-linejoin="round" points="89.73822021484375 66.63430786132813 46.094085693359375 153.55581665039063 42.05975341796875 160.15744018554688 42.05975341796875 160.15744018554688 " />
        <polyline stroke="black" stroke-width="3" stroke-linecap="round" fill="transparent" stroke-linejoin="round" points="98.54037475585938 102.20977783203124 114.67770385742188 98.17544555664063 120.17904663085938 96.70841979980467 125.31365966796876 95.24137878417967 131.54855346679688 93.77435302734376 140.3507080078125 92.3073272705078 151.72021484375 90.8402862548828 162.356201171875 89.74002075195313 170.4248046875 90.10678100585938 176.29296875 93.04083251953124 182.52783203125 102.94328308105467 188.39593505859375 121.64791870117188 189.86297607421875 145.48715209960938 186.928955078125 168.22610473632813 180.3272705078125 190.2315368652344 170.7916259765625 210.76995849609375 160.1556396484375 224.70675659179688 149.15292358398438 233.50894165039065 135.21612548828125 237.17648315429688 135.21612548828125 237.17648315429688 " />
        <polyline stroke="black" stroke-width="3" stroke-linecap="round" fill="transparent" stroke-linejoin="round" points="109.17636108398438 131.9171142578125 102.94149780273438 149.8882293701172 95.6063232421875 167.12582397460938 88.637939453125 181.06260681152344 83.87008666992188 190.2315368652344 81.30279541015625 195.36614990234375 79.83578491210938 197.93344116210935 79.83578491210938 197.93344116210935 " />
        <polyline stroke="black" stroke-width="3" stroke-linecap="round" fill="transparent" stroke-linejoin="round" points="134.48260498046875 127.14927673339844 126.04721069335938 146.22064208984375 117.978515625 162.7247314453125 109.17636108398438 178.49530029296875 105.14202880859376 186.19720458984375 105.14202880859376 186.19720458984375 " />
        </svg>