<?xml version="1.0" standalone="no"?>
    <svg width="256" height="256" xmlns="http://www.w3.org/2000/svg" version="1.1">
    <polyline stroke="black" stroke-width="3" stroke-linecap="round" fill="transparent" stroke-linejoin="round" points="82.5205078125 71.04237365722656 71.27291870117188 120.52604675292967 58.263885498046875 142.90464782714844 52.885711669921875 148.74658203125 47.731658935546875 153.45518493652344 47.6429443359375 151.97970581054688 " />
        <polyline stroke="black" stroke-width="3" stroke-linecap="round" fill="transparent" stroke-linejoin="round" points="104.24850463867188 77.37924194335938 116.65988159179688 76.8829345703125 132.835205078125 76.62841796875 137.99798583984375 77.08670043945313 160.6055908203125 78.93577575683594 163.89837646484375 81.45745849609375 166.32611083984375 83.76910400390625 168.8453369140625 86.79481506347656 175.750244140625 96.69921875 181.01220703125 107.51145935058594 187.041259765625 133.97349548339844 185.55487060546875 159.94613647460938 183.3187255859375 175.4483642578125 176.6766357421875 196.94732666015625 173.551513671875 202.76046752929688 168.094970703125 213.87689208984375 166.54119873046875 214.3040771484375 163.43701171875 216.328125 161.7332763671875 217.7781982421875 158.908447265625 220.26629638671875 152.065673828125 222.79226684570313 138.74310302734375 224.09906005859375 134.98251342773438 222.3765563964844 117.29791259765624 218.4180908203125 110.32391357421876 215.3118896484375 " />
        <polyline stroke="black" stroke-width="3" stroke-linecap="round" fill="transparent" stroke-linejoin="round" points="94.74041748046876 105.19998168945313 93.88128662109376 117.93296813964844 91.98361206054688 130.9930877685547 88.91864013671875 144.7521209716797 80.11956787109375 166.34776306152344 74.15365600585938 172.7835693359375 71.85076904296875 174.12625122070313 " />
        <polyline stroke="black" stroke-width="3" stroke-linecap="round" fill="transparent" stroke-linejoin="round" points="132.04095458984375 113.74571228027344 119.774658203125 144.78192138671875 112.04046630859376 162.75311279296875 98.684326171875 196.892822265625 91.21124267578124 209.622802734375 90.46392822265624 210.89581298828125 " />
        </svg>