<?xml version="1.0" standalone="no"?>
    <svg width="256" height="256" xmlns="http://www.w3.org/2000/svg" version="1.1">
    <polyline stroke="black" stroke-width="3" stroke-linecap="round" fill="transparent" stroke-linejoin="round" points="73.2265625 65.87376403808594 77.947998046875 74.1363525390625 83.25967407226563 81.21856689453125 89.751708984375 85.94004821777344 89.751708984375 85.94004821777344 " />
        <polyline stroke="black" stroke-width="3" stroke-linecap="round" fill="transparent" stroke-linejoin="round" points="124.5726318359375 56.430816650390625 131.06463623046875 59.971923828125 142.86834716796875 61.74247741699219 142.86834716796875 61.74247741699219 " />
        <polyline stroke="black" stroke-width="3" stroke-linecap="round" fill="transparent" stroke-linejoin="round" points="190.67333984375 47.57804870605469 172.9677734375 62.33265686035156 135.7861328125 90.66152954101563 118.08056640625 101.28485107421876 118.08056640625 101.28485107421876 " />
        <polyline stroke="black" stroke-width="3" stroke-linecap="round" fill="transparent" stroke-linejoin="round" points="70.86578369140625 110.72781372070313 83.849853515625 104.23577880859376 105.68670654296876 97.153564453125 124.5726318359375 93.0222625732422 146.409423828125 91.251708984375 164.114990234375 90.66152954101563 180.64013671875 90.07135009765625 192.44384765625 90.07135009765625 199.52606201171875 90.07135009765625 204.8377685546875 88.30079650878906 204.8377685546875 88.30079650878906 " />
        <polyline stroke="black" stroke-width="3" stroke-linecap="round" fill="transparent" stroke-linejoin="round" points="89.751708984375 153.22109985351563 87.98114013671875 163.8444366455078 87.98114013671875 175.6481170654297 89.751708984375 184.5008850097656 93.88299560546876 190.4027404785156 100.9652099609375 192.76348876953125 113.35910034179688 188.63217163085935 126.933349609375 179.18922424316406 142.27813720703125 164.4346160888672 154.6719970703125 150.2701873779297 162.93463134765625 140.8272247314453 169.4266357421875 136.10574340820313 174.14813232421875 133.1548309326172 177.09906005859375 133.1548309326172 179.45977783203125 136.10574340820313 181.2303466796875 141.4174041748047 181.820556640625 149.08981323242188 180.64013671875 163.25424194335938 180.64013671875 169.15609741210938 180.64013671875 169.15609741210938 " />
        <polyline stroke="black" stroke-width="3" stroke-linecap="round" fill="transparent" stroke-linejoin="round" points="139.32720947265625 133.74501037597656 129.88427734375 181.5499725341797 126.34317016601563 196.894775390625 121.6217041015625 211.0592041015625 116.90020751953124 221.6825256347656 113.94927978515624 228.174560546875 113.94927978515624 228.174560546875 " />
        </svg>