<?xml version="1.0" standalone="no"?>
    <svg width="256" height="256" xmlns="http://www.w3.org/2000/svg" version="1.1">
    <polyline stroke="black" stroke-width="3" stroke-linecap="round" fill="transparent" stroke-linejoin="round" points="71.4000244140625 81.33334350585938 75.66668701171875 87.73333740234375 78.86669921875 93.06668090820313 79.93341064453125 92.00001525878906 79.93341064453125 87.73333740234375 79.93341064453125 87.73333740234375 " />
        <polyline stroke="black" stroke-width="3" stroke-linecap="round" fill="transparent" stroke-linejoin="round" points="117.2667236328125 74.93333435058594 119.4000244140625 80.26667785644531 119.4000244140625 80.26667785644531 " />
        <polyline stroke="black" stroke-width="3" stroke-linecap="round" fill="transparent" stroke-linejoin="round" points="147.1334228515625 61.066680908203125 138.60009765625 77.06668090820313 138.60009765625 77.06668090820313 " />
        <polyline stroke="black" stroke-width="3" stroke-linecap="round" fill="transparent" stroke-linejoin="round" points="103.4000244140625 86.66667175292969 134.3333740234375 77.06668090820313 165.2667236328125 71.73333740234375 188.7333984375 69.60000610351563 197.2667236328125 70.66667175292969 197.2667236328125 73.86668395996094 197.2667236328125 73.86668395996094 " />
        <polyline stroke="black" stroke-width="3" stroke-linecap="round" fill="transparent" stroke-linejoin="round" points="81.00006103515625 146.40003967285156 82.06671142578125 151.73338317871094 82.06671142578125 154.93336486816406 83.1334228515625 154.93336486816406 88.466796875 151.73338317871094 106.60003662109376 142.1333465576172 131.1334228515625 133.6000213623047 153.533447265625 128.26669311523438 166.3333740234375 125.06671142578124 170.60009765625 124.00001525878906 172.7333984375 124.00001525878906 172.7333984375 122.93336486816406 171.666748046875 118.66667175292967 171.666748046875 118.66667175292967 " />
        <polyline stroke="black" stroke-width="3" stroke-linecap="round" fill="transparent" stroke-linejoin="round" points="172.7333984375 112.26667785644533 170.60009765625 113.33334350585938 170.60009765625 113.33334350585938 " />
        <polyline stroke="black" stroke-width="3" stroke-linecap="round" fill="transparent" stroke-linejoin="round" points="126.86669921875 98.40000915527344 131.1334228515625 125.06671142578124 131.1334228515625 153.86668395996094 125.80010986328124 179.4666748046875 117.2667236328125 201.86666870117188 103.4000244140625 224.2666931152344 103.4000244140625 224.2666931152344 " />
        </svg>