<?xml version="1.0" standalone="no"?>
    <svg width="256" height="256" xmlns="http://www.w3.org/2000/svg" version="1.1">
    <polyline stroke="black" stroke-width="3" stroke-linecap="round" fill="transparent" stroke-linejoin="round" points="123 31 124 40 124 47 124 54 124 60 124 66 123 71 123 71 " />
        <polyline stroke="black" stroke-width="3" stroke-linecap="round" fill="transparent" stroke-linejoin="round" points="36 89 57 83 77 78 104 74 129 72 149 71 165 71 173 70 178 70 180 70 180 70 " />
        <polyline stroke="black" stroke-width="3" stroke-linecap="round" fill="transparent" stroke-linejoin="round" points="114 81 114 91 114 100 114 110 113 115 113 115 " />
        <polyline stroke="black" stroke-width="3" stroke-linecap="round" fill="transparent" stroke-linejoin="round" points="56 123 76 120 90 119 106 118 125 118 143 118 157 117 162 117 162 117 " />
        <polyline stroke="black" stroke-width="3" stroke-linecap="round" fill="transparent" stroke-linejoin="round" points="110 126 104 137 101 144 92 158 82 171 75 180 73 183 73 184 77 184 92 184 108 179 126 173 144 168 160 162 168 159 168 159 " />
        <polyline stroke="black" stroke-width="3" stroke-linecap="round" fill="transparent" stroke-linejoin="round" points="162 137 167 144 168 148 174 156 180 168 182 175 182 175 " />
        <polyline stroke="black" stroke-width="3" stroke-linecap="round" fill="transparent" stroke-linejoin="round" points="98 193 90 212 86 220 84 228 84 232 84 232 " />
        <polyline stroke="black" stroke-width="3" stroke-linecap="round" fill="transparent" stroke-linejoin="round" points="125 179 122 189 122 199 122 208 125 216 137 223 152 227 170 228 186 228 198 223 205 218 209 209 210 191 211 167 211 167 " />
        </svg>