<?xml version="1.0" standalone="no"?>
    <svg width="256" height="256" xmlns="http://www.w3.org/2000/svg" version="1.1">
    <polyline stroke="black" stroke-width="3" stroke-linecap="round" fill="transparent" stroke-linejoin="round" points="102 40 104 49 104 61 104 73 102 78 102 78 " />
        <polyline stroke="black" stroke-width="3" stroke-linecap="round" fill="transparent" stroke-linejoin="round" points="38 109 71 95 101 84 131 77 155 72 170 70 175 70 176 70 173 72 173 72 " />
        <polyline stroke="black" stroke-width="3" stroke-linecap="round" fill="transparent" stroke-linejoin="round" points="107 104 106 113 106 123 106 132 106 137 106 137 " />
        <polyline stroke="black" stroke-width="3" stroke-linecap="round" fill="transparent" stroke-linejoin="round" points="60 151 65 150 79 145 103 136 127 129 147 124 160 124 164 124 164 124 " />
        <polyline stroke="black" stroke-width="3" stroke-linecap="round" fill="transparent" stroke-linejoin="round" points="114 141 92 168 83 179 78 184 78 185 84 185 99 180 118 174 136 166 151 161 163 158 167 157 167 157 " />
        <polyline stroke="black" stroke-width="3" stroke-linecap="round" fill="transparent" stroke-linejoin="round" points="157 146 164 152 171 159 175 164 177 170 177 170 " />
        <polyline stroke="black" stroke-width="3" stroke-linecap="round" fill="transparent" stroke-linejoin="round" points="93 200 85 208 83 221 78 233 75 242 73 247 73 247 " />
        <polyline stroke="black" stroke-width="3" stroke-linecap="round" fill="transparent" stroke-linejoin="round" points="126 186 130 194 130 202 131 210 140 216 158 219 179 219 201 216 213 210 216 207 217 206 217 204 217 198 217 179 217 150 217 150 " />
        </svg>