<?xml version="1.0" standalone="no"?>
    <svg width="256" height="256" xmlns="http://www.w3.org/2000/svg" version="1.1">
    <polyline stroke="black" stroke-width="3" stroke-linecap="round" fill="transparent" stroke-linejoin="round" points="120.18124389648438 59.74163818359375 123.31793212890624 65.11885070800781 126.00653076171876 70.49606323242188 126.00653076171876 70.49606323242188 " />
        <polyline stroke="black" stroke-width="3" stroke-linecap="round" fill="transparent" stroke-linejoin="round" points="87.91796875 130.54156494140625 97.77621459960938 127.40487670898438 108.53060913085938 124.71627807617188 128.2470703125 120.68338012695313 148.41156005859375 117.09854125976563 166.78369140625 114.40994262695313 176.6419677734375 113.06564331054688 178.434326171875 112.6175537109375 178.434326171875 112.6175537109375 " />
        <polyline stroke="black" stroke-width="3" stroke-linecap="round" fill="transparent" stroke-linejoin="round" points="107.6343994140625 136.36688232421875 95.98382568359376 153.39471435546875 77.16354370117188 182.9693603515625 66.40911865234375 201.34149169921875 60.583831787109375 211.19970703125 60.583831787109375 211.19970703125 " />
        <polyline stroke="black" stroke-width="3" stroke-linecap="round" fill="transparent" stroke-linejoin="round" points="143.03436279296875 150.25802612304688 142.58627319335938 159.66812133789063 142.58627319335938 170.4225311279297 145.72299194335938 188.794677734375 149.755859375 198.20480346679688 154.2369384765625 205.3743896484375 166.78369140625 216.12884521484375 186.50018310546875 221.95413208007813 202.63177490234375 221.05792236328125 212.9381103515625 217.47314453125 218.763427734375 211.19970703125 222.79632568359375 195.51617431640625 221.900146484375 183.41746520996097 221.900146484375 183.41746520996097 " />
        </svg>