<?xml version="1.0" standalone="no"?>
    <svg width="256" height="256" xmlns="http://www.w3.org/2000/svg" version="1.1">
    <polyline stroke="black" stroke-width="3" stroke-linecap="round" fill="transparent" stroke-linejoin="round" points="121.07196044921876 45.06932830810547 126.20654296875 50.88856506347656 131.68353271484375 58.419342041015625 141.61044311523438 74.5078125 147.08734130859375 91.62322998046876 146.0604248046875 107.02706909179688 146.0604248046875 107.02706909179688 " />
        <polyline stroke="black" stroke-width="3" stroke-linecap="round" fill="transparent" stroke-linejoin="round" points="80.33734130859375 132.35784912109375 87.86810302734375 129.96170043945313 96.76806640625 127.5655517578125 116.62191772460938 124.1424560546875 137.50274658203125 121.06169128417967 147.08734130859375 120.03477478027344 155.64501953125 119.35015869140624 166.598876953125 118.66552734375 171.0489501953125 118.32322692871094 171.0489501953125 118.32322692871094 " />
        <polyline stroke="black" stroke-width="3" stroke-linecap="round" fill="transparent" stroke-linejoin="round" points="106.01043701171876 154.95018005371094 101.56039428710938 160.7694091796875 89.92193603515625 177.2001953125 85.12960815429688 183.70404052734375 81.02191162109375 189.18096923828125 74.51806640625 197.73870849609375 70.41036987304688 202.531005859375 69.3834228515625 203.21560668945313 69.3834228515625 203.21560668945313 " />
        <polyline stroke="black" stroke-width="3" stroke-linecap="round" fill="transparent" stroke-linejoin="round" points="133.39501953125 160.42710876464844 135.44891357421875 173.09251403808594 137.84506225585938 180.965576171875 144.691162109375 194.65792846679688 153.5911865234375 206.29638671875 158.04119873046875 210.40408325195313 172.41815185546875 219.98870849609375 181.318115234375 222.3848876953125 184.7412109375 222.04254150390625 190.56048583984375 219.6463928222656 203.56817626953125 191.91943359375 206.99127197265625 173.77713012695313 206.99127197265625 173.77713012695313 " />
        </svg>