<?xml version="1.0" standalone="no"?>
    <svg width="256" height="256" xmlns="http://www.w3.org/2000/svg" version="1.1">
    <polyline stroke="black" stroke-width="3" stroke-linecap="round" fill="transparent" stroke-linejoin="round" points="135.7957763671875 59.623321533203125 139.32928466796875 64.04020690917969 145.512939453125 73.315673828125 148.1630859375 82.14945983886719 146.8380126953125 90.5415496826172 144.62957763671875 95.40013122558594 144.62957763671875 95.40013122558594 " />
        <polyline stroke="black" stroke-width="3" stroke-linecap="round" fill="transparent" stroke-linejoin="round" points="88.09335327148438 120.13470458984376 114.15301513671876 113.50938415527344 128.728759765625 110.41754150390624 157.8802490234375 105.11727905273438 183.49822998046875 101.58377075195313 202.0491943359375 99.8170166015625 212.2080078125 99.8170166015625 215.2998046875 100.70040893554688 215.2998046875 101.58377075195313 215.2998046875 101.58377075195313 " />
        <polyline stroke="black" stroke-width="3" stroke-linecap="round" fill="transparent" stroke-linejoin="round" points="106.644287109375 151.9363250732422 100.90234375 162.09515380859375 95.160400390625 171.81231689453125 79.70126342773438 196.105224609375 72.63427734375 207.1474609375 68.21737670898438 214.2144775390625 68.21737670898438 214.2144775390625 " />
        <polyline stroke="black" stroke-width="3" stroke-linecap="round" fill="transparent" stroke-linejoin="round" points="149.04647827148438 149.2861785888672 145.512939453125 159.0033416748047 142.421142578125 169.16217041015625 140.65438842773438 178.87933349609375 141.97943115234375 196.105224609375 144.1878662109375 203.61392211914065 147.27972412109375 210.68096923828125 155.67181396484375 220.83978271484375 168.0390625 228.79022216796875 181.289794921875 233.20709228515625 193.6571044921875 233.20709228515625 203.37420654296875 228.3485107421875 210.8829345703125 218.63134765625 215.74151611328125 208.03082275390625 215.74151611328125 208.03082275390625 " />
        </svg>