<?xml version="1.0" standalone="no"?>
    <svg width="256" height="256" xmlns="http://www.w3.org/2000/svg" version="1.1">
    <polyline stroke="black" stroke-width="3" stroke-linecap="round" fill="transparent" stroke-linejoin="round" points="134.06195068359375 61.038238525390625 138.7991943359375 70.90754699707031 139.1939697265625 76.03958129882813 139.1939697265625 76.03958129882813 " />
        <polyline stroke="black" stroke-width="3" stroke-linecap="round" fill="transparent" stroke-linejoin="round" points="67.74020385742188 115.91159057617188 76.42523193359375 114.33250427246094 87.08407592773438 112.35862731933594 113.13900756835938 108.8056640625 142.35214233398438 105.6475067138672 190.9091796875 100.12069702148438 211.04254150390625 98.14682006835938 220.51708984375 98.14682006835938 222.88568115234375 98.93638610839844 222.88568115234375 98.93638610839844 " />
        <polyline stroke="black" stroke-width="3" stroke-linecap="round" fill="transparent" stroke-linejoin="round" points="97.74288940429688 145.51950073242188 91.8212890625 156.1783447265625 83.92587280273438 170.39013671875 75.24090576171875 185.3914794921875 61.423828125 207.10397338867188 53.133636474609375 220.1314392089844 51.159759521484375 222.89483642578125 51.159759521484375 222.89483642578125 " />
        <polyline stroke="black" stroke-width="3" stroke-linecap="round" fill="transparent" stroke-linejoin="round" points="165.24896240234375 130.91293334960938 163.27508544921875 138.01882934570313 161.30120849609375 146.30905151367188 157.748291015625 163.28424072265625 156.56396484375 171.574462890625 155.7744140625 185.7862548828125 157.353515625 198.02420043945313 161.30120849609375 208.68304443359375 166.82806396484375 216.9732666015625 173.9339599609375 223.28961181640625 183.408447265625 228.02688598632813 192.88299560546875 230.3955078125 201.5679931640625 229.60598754882813 208.2791748046875 226.05303955078125 213.4111328125 220.9209899902344 217.753662109375 210.65692138671875 218.93798828125 195.26080322265625 217.753662109375 181.8385467529297 217.753662109375 181.8385467529297 " />
        </svg>