<?xml version="1.0" standalone="no"?>
    <svg width="256" height="256" xmlns="http://www.w3.org/2000/svg" version="1.1">
    <polyline stroke="black" stroke-width="3" stroke-linecap="round" fill="transparent" stroke-linejoin="round" points="114.53948974609376 62.33265686035156 106.8670654296875 77.67745971679688 93.29281616210938 104.82595825195313 82.07931518554688 127.84317016601563 72.04617309570313 150.2701873779297 66.14431762695313 165.02479553222656 62.60321044921875 179.18922424316406 61.4228515625 186.27145385742188 62.013031005859375 190.992919921875 67.32470703125 192.76348876953125 76.76763916015625 188.0419921875 94.47320556640624 176.8284912109375 112.7689208984375 163.25424194335938 126.34317016601563 153.22109985351563 138.1468505859375 143.7781524658203 147.58981323242188 136.10574340820313 153.49163818359375 130.2039031982422 158.8033447265625 120.17076110839844 158.8033447265625 113.08854675292967 157.03277587890625 106.59651184082033 155.26220703125 102.46522521972656 154.08184814453125 100.69467163085938 154.08184814453125 100.69467163085938 154.08184814453125 104.23577880859376 158.213134765625 117.21983337402344 167.06591796875 137.8762969970703 175.918701171875 156.76220703125 185.9517822265625 177.41867065429688 193.62420654296875 199.25552368164065 198.9359130859375 210.46902465820313 198.9359130859375 210.46902465820313 " />
        </svg>