<?xml version="1.0" standalone="no"?>
    <svg width="256" height="256" xmlns="http://www.w3.org/2000/svg" version="1.1">
    <polyline stroke="black" stroke-width="3" stroke-linecap="round" fill="transparent" stroke-linejoin="round" points="62.219818115234375 101.06805419921876 77.089599609375 93.63314819335938 86.17672729492188 89.91571044921875 97.74212646484376 86.19825744628906 120.45989990234376 80.00250244140625 131.61224365234375 77.52420043945313 141.9384765625 75.0458984375 160.11273193359375 71.74148559570313 172.5042724609375 70.08929443359375 178.28692626953125 69.67623901367188 179.52606201171875 69.67623901367188 179.52606201171875 69.67623901367188 " />
        <polyline stroke="black" stroke-width="3" stroke-linecap="round" fill="transparent" stroke-linejoin="round" points="48.589111328125 161.37339782714844 89.8941650390625 150.63409423828125 103.52484130859376 147.32969665527344 115.91635131835938 144.02529907226563 138.63412475585938 138.24258422851563 160.11273193359375 133.28598022460938 171.26507568359375 129.9815673828125 177.04779052734375 125.4380340576172 177.04779052734375 125.4380340576172 " />
        <polyline stroke="black" stroke-width="3" stroke-linecap="round" fill="transparent" stroke-linejoin="round" points="101.87265014648438 110.15518188476563 96.08993530273438 145.26443481445313 94.024658203125 162.1995086669922 91.95941162109376 178.72149658203125 88.241943359375 202.265380859375 84.52450561523438 216.30908203125 82.872314453125 219.61349487304688 82.45928955078125 219.61349487304688 82.45928955078125 219.61349487304688 " />
        <polyline stroke="black" stroke-width="3" stroke-linecap="round" fill="transparent" stroke-linejoin="round" points="135.32968139648438 101.48110961914063 135.32968139648438 122.13363647460938 136.56884765625 150.63409423828125 137.39495849609375 163.02560424804688 142.76458740234375 198.1348876953125 148.13424682617188 218.37432861328125 148.13424682617188 218.37432861328125 " />
        </svg>