<?xml version="1.0" standalone="no"?>
    <svg width="256" height="256" xmlns="http://www.w3.org/2000/svg" version="1.1">
    <polyline stroke="black" stroke-width="3" stroke-linecap="round" fill="transparent" stroke-linejoin="round" points="62.548583984375 106.60446166992188 75.88330078125 98.5228271484375 89.218017578125 90.44119262695313 103.7650146484375 82.35952758789063 117.50384521484376 75.49012756347656 142.55694580078125 64.98397827148438 163.1651611328125 58.11457824707031 180.1365966796875 54.47783660888672 190.64276123046875 53.265586853027344 196.7039794921875 53.265586853027344 198.72442626953125 53.265586853027344 198.72442626953125 53.265586853027344 " />
        <polyline stroke="black" stroke-width="3" stroke-linecap="round" fill="transparent" stroke-linejoin="round" points="47.59759521484375 158.73114013671875 58.507781982421875 155.90255737304688 69.41796875 153.073974609375 81.54046630859375 149.84130859375 106.18951416015624 142.97190856933594 129.22222900390625 137.71884155273438 152.6590576171875 132.86985778808594 170.84271240234375 129.23309326171875 181.7529296875 126.00045776367188 186.6019287109375 123.9800262451172 186.6019287109375 123.9800262451172 " />
        <polyline stroke="black" stroke-width="3" stroke-linecap="round" fill="transparent" stroke-linejoin="round" points="92.046630859375 101.75553894042972 88.40988159179688 123.5759735107422 84.77313232421875 145.3964080810547 79.92416381835938 168.83319091796875 73.86288452148438 194.69448852539065 70.22616577148438 209.241455078125 69.013916015625 214.89862060546875 69.013916015625 214.89862060546875 " />
        <polyline stroke="black" stroke-width="3" stroke-linecap="round" fill="transparent" stroke-linejoin="round" points="156.6998291015625 99.33100891113281 158.316162109375 110.24124145507813 159.9324951171875 121.15147399902344 162.7611083984375 143.7800750732422 163.97332763671875 153.47805786132813 165.9937744140625 171.66177368164063 167.20599365234375 186.208740234375 168.418212890625 199.94757080078125 168.418212890625 199.94757080078125 " />
        </svg>