<?xml version="1.0" standalone="no"?>
    <svg width="256" height="256" xmlns="http://www.w3.org/2000/svg" version="1.1">
    <polyline stroke="black" stroke-width="3" stroke-linecap="round" fill="transparent" stroke-linejoin="round" points="52.731658935546875 114.29977416992188 79.47763061523438 100.9267578125 92.3895263671875 95.39309692382813 106.2236328125 89.3983154296875 136.65878295898438 77.40872192382813 164.7882080078125 67.72482299804688 185.0782470703125 61.268890380859375 197.52899169921875 57.57978820800781 199.83465576171875 57.57978820800781 199.83465576171875 57.57978820800781 " />
        <polyline stroke="black" stroke-width="3" stroke-linecap="round" fill="transparent" stroke-linejoin="round" points="70.2548828125 168.25291442871094 97.00091552734376 157.1855926513672 109.91278076171876 151.65194702148438 125.59149169921876 145.6571502685547 171.70526123046875 131.3618621826172 194.301025390625 126.28936767578124 206.2906494140625 123.06138610839844 206.2906494140625 123.06138610839844 " />
        <polyline stroke="black" stroke-width="3" stroke-linecap="round" fill="transparent" stroke-linejoin="round" points="142.1923828125 100.00448608398438 127.89715576171876 117.98887634277344 121.90234375 129.0561981201172 116.36865234375 141.04576110839844 107.60711669921876 163.18038940429688 101.61227416992188 182.0870361328125 97.46200561523438 195.4600524902344 95.15634155273438 203.2994079589844 94.6951904296875 204.68280029296875 94.6951904296875 204.68280029296875 " />
        <polyline stroke="black" stroke-width="3" stroke-linecap="round" fill="transparent" stroke-linejoin="round" points="154.1820068359375 98.62106323242188 155.5654296875 119.37229919433594 157.4100341796875 143.81259155273438 159.2545166015625 169.63632202148438 160.17681884765625 202.37713623046875 160.17681884765625 202.37713623046875 " />
        </svg>