<?xml version="1.0" standalone="no"?>
    <svg width="256" height="256" xmlns="http://www.w3.org/2000/svg" version="1.1">
    <polyline stroke="black" stroke-width="3" stroke-linecap="round" fill="transparent" stroke-linejoin="round" points="58 83 83 78 105 74 129 69 151 67 169 65 178 65 181 64 181 64 " />
        <polyline stroke="black" stroke-width="3" stroke-linecap="round" fill="transparent" stroke-linejoin="round" points="43 150 51 146 59 146 69 143 92 138 115 133 124 131 145 128 161 126 172 124 177 122 177 122 " />
        <polyline stroke="black" stroke-width="3" stroke-linecap="round" fill="transparent" stroke-linejoin="round" points="89 96 92 108 92 117 92 139 91 168 89 180 84 205 81 218 80 222 80 222 " />
        <polyline stroke="black" stroke-width="3" stroke-linecap="round" fill="transparent" stroke-linejoin="round" points="133 87 133 99 133 109 133 120 133 158 133 170 133 198 133 211 133 220 133 224 133 224 " />
        </svg>