<?xml version="1.0" standalone="no"?>
    <svg width="256" height="256" xmlns="http://www.w3.org/2000/svg" version="1.1">
    <polyline stroke="black" stroke-width="3" stroke-linecap="round" fill="transparent" stroke-linejoin="round" points="89.3719482421875 44.75431060791016 82.6729736328125 56.934234619140625 77.801025390625 66.67817687988281 71.7110595703125 77.64012145996094 66.2301025390625 86.77507019042969 62.57611083984375 93.47402954101563 60.749114990234375 97.12800598144533 60.749114990234375 98.3459930419922 66.2301025390625 95.30101013183594 79.01901245117188 86.16606140136719 102.76986694335938 71.55015563964844 127.12973022460938 57.54322814941406 147.83560180664063 47.19029235839844 160.62451171875 41.709327697753906 166.10546875 39.273338317871094 168.54150390625 38.664344787597656 165.4964599609375 42.318321228027344 165.4964599609375 42.318321228027344 " />
        <polyline stroke="black" stroke-width="3" stroke-linecap="round" fill="transparent" stroke-linejoin="round" points="72.92904663085938 122.7058563232422 87.54495239257813 115.3979034423828 99.72488403320313 109.91693115234376 114.94979858398438 103.2179718017578 132.61068725585938 97.73699951171876 147.22662353515625 97.12800598144533 156.9705810546875 101.99996948242188 164.27850341796875 114.17990112304688 164.88751220703125 134.2767791748047 160.0155029296875 153.15567016601563 153.925537109375 165.33560180664063 146.61761474609375 172.03456115722656 135.04669189453125 174.47055053710938 120.4307861328125 167.16259765625 120.4307861328125 167.16259765625 " />
        <polyline stroke="black" stroke-width="3" stroke-linecap="round" fill="transparent" stroke-linejoin="round" points="117.38580322265624 37.44635009765625 117.99478149414063 50.23527526855469 116.77679443359376 75.81312561035156 115.55877685546876 112.9619140625 117.38580322265624 137.32176208496094 121.03976440429688 163.5086212158203 122.25775146484376 186.04147338867188 122.86676025390624 207.3563537597656 119.82177734375 222.58126831054688 116.77679443359376 229.28024291992188 116.77679443359376 229.28024291992188 " />
        <polyline stroke="black" stroke-width="3" stroke-linecap="round" fill="transparent" stroke-linejoin="round" points="72.32003784179688 154.982666015625 85.10897827148438 167.16259765625 91.80792236328124 179.95152282714844 91.80792236328124 179.95152282714844 " />
        </svg>