<?xml version="1.0" standalone="no"?>
    <svg width="256" height="256" xmlns="http://www.w3.org/2000/svg" version="1.1">
    <polyline stroke="black" stroke-width="3" stroke-linecap="round" fill="transparent" stroke-linejoin="round" points="87.14727783203125 115.15927124023438 106.87158203125 113.0609130859375 127.01556396484376 110.12327575683594 136.66790771484375 108.44461059570313 155.13323974609375 102.98893737792967 168.1429443359375 97.53327941894533 174.8575439453125 92.91693115234376 176.5362548828125 90.818603515625 176.5362548828125 90.818603515625 " />
        <polyline stroke="black" stroke-width="3" stroke-linecap="round" fill="transparent" stroke-linejoin="round" points="95.96026611328124 77.80894470214844 96.37994384765624 100.47093200683594 94.28158569335938 124.81158447265624 93.4422607421875 136.142578125 92.18328857421876 145.375244140625 90.50457763671876 160.06358337402344 89.665283203125 167.61758422851563 89.24560546875 169.71591186523438 89.24560546875 169.71591186523438 " />
        <polyline stroke="black" stroke-width="3" stroke-linecap="round" fill="transparent" stroke-linejoin="round" points="104.77328491210938 79.48760986328125 105.61260986328124 88.72027587890625 106.451904296875 99.2119140625 106.87158203125 108.86428833007813 107.291259765625 126.49026489257813 107.291259765625 138.66058349609375 106.87158203125 145.79490661621094 106.87158203125 148.73257446289063 106.87158203125 148.73257446289063 " />
        <polyline stroke="black" stroke-width="3" stroke-linecap="round" fill="transparent" stroke-linejoin="round" points="136.66790771484375 82.84494018554688 138.3465576171875 97.53327941894533 140.02523803710938 113.4805908203125 141.70391845703125 130.2672576904297 145.06124877929688 165.09957885742188 147.5792236328125 199.51223754882813 149.67758178710938 215.4595642089844 149.67758178710938 215.4595642089844 " />
        </svg>