<?xml version="1.0" standalone="no"?>
    <svg width="256" height="256" xmlns="http://www.w3.org/2000/svg" version="1.1">
    <polyline stroke="black" stroke-width="3" stroke-linecap="round" fill="transparent" stroke-linejoin="round" points="55.21923828125 117.01873779296876 69.50228881835938 111.27384948730467 78.56088256835938 107.97178649902344 89.42770385742188 104.80613708496094 114.124267578125 99.97705078125 140.50677490234375 94.83734130859376 152.0947265625 92.3363800048828 180.06317138671875 85.98333740234375 182.7525634765625 84.85574340820313 191.69189453125 82.98170471191406 195.638916015625 82.45828247070313 201.222412109375 81.54489135742188 201.404296875 81.29354858398438 201.6209716796875 80.82331848144531 201.63470458984375 80.79345703125 " />
        <polyline stroke="black" stroke-width="3" stroke-linecap="round" fill="transparent" stroke-linejoin="round" points="92.60009765625 88.72282409667969 93.74273681640624 99.401611328125 93.94808959960938 128.20516967773438 91.79058837890624 154.54600524902344 89.94830322265625 165.432861328125 86.62802124023438 172.4232177734375 83.84442138671875 174.7745361328125 82.0791015625 175.61233520507813 81.90780639648438 175.69363403320313 " />
        <polyline stroke="black" stroke-width="3" stroke-linecap="round" fill="transparent" stroke-linejoin="round" points="118.221435546875 70.98397827148438 118.8936767578125 80.95379638671875 119.95965576171876 91.9248504638672 121.97613525390624 112.23992919921876 123.25289916992188 121.31204223632813 124.66558837890624 131.67306518554688 124.9610595703125 135.41671752929688 124.9906005859375 135.79107666015625 " />
        <polyline stroke="black" stroke-width="3" stroke-linecap="round" fill="transparent" stroke-linejoin="round" points="166.82366943359375 27.85337829589844 166.35205078125 42.14625549316406 165.5404052734375 77.89378356933594 165.853759765625 96.70223999023438 167.37274169921875 132.1317596435547 168.83807373046875 151.5152587890625 171.18310546875 178.32867431640625 172.7388916015625 196.2474670410156 173.30328369140625 202.60964965820313 172.8717041015625 210.4956970214844 172.64764404296875 213.19580078125 170.08258056640625 218.1522216796875 169.914794921875 218.45849609375 " />
        </svg>