<?xml version="1.0" standalone="no"?>
    <svg width="256" height="256" xmlns="http://www.w3.org/2000/svg" version="1.1">
    <polyline stroke="black" stroke-width="3" stroke-linecap="round" fill="transparent" stroke-linejoin="round" points="61.09539794921875 54.919830322265625 64.95196533203125 68.69331359863281 66.05386352539063 74.75364685058594 67.7066650390625 81.91586303710938 69.91043090820313 87.9761962890625 72.66513061523438 93.485595703125 72.66513061523438 93.485595703125 " />
        <polyline stroke="black" stroke-width="3" stroke-linecap="round" fill="transparent" stroke-linejoin="round" points="118.39312744140624 49.410430908203125 111.78182983398438 64.83674621582031 104.61962890625 80.26304626464844 93.600830078125 98.99497985839844 83.13299560546875 115.52316284179688 72.66513061523438 129.29664611816406 64.40103149414063 139.21356201171875 58.89166259765625 145.27389526367188 55.035064697265625 149.13047790527344 53.38226318359375 150.2323455810547 54.484130859375 148.57952880859375 57.789764404296875 144.17201232910156 64.40103149414063 138.66262817382813 74.868896484375 129.84759521484375 88.64239501953125 119.93067932128906 100.21209716796876 112.217529296875 109.02713012695313 106.7081298828125 115.08746337890624 102.30062866210938 119.4949951171875 95.68934631347656 119.4949951171875 95.68934631347656 " />
        <polyline stroke="black" stroke-width="3" stroke-linecap="round" fill="transparent" stroke-linejoin="round" points="92.49896240234376 43.90103912353515 90.29519653320313 61.531097412109375 85.8876953125 86.87431335449219 79.82733154296875 114.97222900390624 72.11419677734375 138.11167907714844 66.05386352539063 156.8436279296875 59.9935302734375 172.82086181640625 55.58599853515625 187.14529418945313 53.38226318359375 194.3074951171875 52.831298828125 198.16409301757813 52.831298828125 198.16409301757813 52.831298828125 198.16409301757813 " />
        <polyline stroke="black" stroke-width="3" stroke-linecap="round" fill="transparent" stroke-linejoin="round" points="74.31793212890625 146.3757781982422 86.4385986328125 146.9267120361328 93.04989624023438 150.78329467773438 99.66116333007813 155.7417449951172 106.27243041992188 161.2511444091797 113.985595703125 164.55677795410156 113.985595703125 164.55677795410156 " />
        <polyline stroke="black" stroke-width="3" stroke-linecap="round" fill="transparent" stroke-linejoin="round" points="122.80062866210938 63.73486328125 131.064697265625 73.65176391601563 135.47222900390625 83.01774597167969 138.77786254882813 92.93464660644533 140.4306640625 98.99497985839844 140.4306640625 103.40249633789063 140.4306640625 105.05531311035156 140.4306640625 105.05531311035156 " />
        <polyline stroke="black" stroke-width="3" stroke-linecap="round" fill="transparent" stroke-linejoin="round" points="127.75909423828124 67.5914306640625 133.26846313476563 60.429229736328125 137.67596435546875 56.02171325683594 144.28726196289063 51.61418914794922 154.20416259765625 46.655738830566406 167.42669677734375 41.69728088378906 180.6492919921875 38.39164733886719 193.32086181640625 36.73883056640625 201.0340576171875 36.187889099121094 206.54345703125 37.289764404296875 210.4000244140625 40.044464111328125 212.603759765625 44.45198059082031 211.5018310546875 53.26701354980469 205.4415283203125 68.69331359863281 197.17742919921875 85.22149658203125 197.17742919921875 85.22149658203125 " />
        <polyline stroke="black" stroke-width="3" stroke-linecap="round" fill="transparent" stroke-linejoin="round" points="145.38916015625 84.11961364746094 160.2645263671875 74.20271301269531 170.73236083984375 68.14237976074219 180.6492919921875 63.18391418457031 189.46429443359375 58.776397705078125 196.0755615234375 54.919830322265625 200.48309326171875 52.165130615234375 202.68682861328125 48.308555603027344 202.68682861328125 48.308555603027344 " />
        <polyline stroke="black" stroke-width="3" stroke-linecap="round" fill="transparent" stroke-linejoin="round" points="186.15869140625 46.655738830566406 185.0567626953125 57.674530029296875 183.4039306640625 64.28579711914063 180.6492919921875 72.54989624023438 176.24176025390625 83.01774597167969 170.73236083984375 92.38371276855467 165.22296142578125 100.64779663085938 159.16259765625 106.15719604492188 153.102294921875 110.01377868652344 148.14382934570313 111.66659545898438 144.83819580078125 111.66659545898438 143.18536376953125 111.11564636230467 144.28726196289063 108.91189575195313 148.14382934570313 105.60626220703124 155.3060302734375 101.19874572753906 169.6304931640625 94.03652954101563 180.09832763671875 88.52713012695313 188.913330078125 84.67056274414063 194.4227294921875 83.01774597167969 198.279296875 83.01774597167969 198.279296875 83.01774597167969 " />
        <polyline stroke="black" stroke-width="3" stroke-linecap="round" fill="transparent" stroke-linejoin="round" points="137.12506103515625 143.0701446533203 155.3060302734375 135.90792846679688 169.07952880859375 129.84759521484375 182.30206298828125 123.78726196289063 193.32086181640625 118.8288116455078 199.93212890625 115.52316284179688 203.23779296875 114.97222900390624 203.23779296875 114.97222900390624 " />
        <polyline stroke="black" stroke-width="3" stroke-linecap="round" fill="transparent" stroke-linejoin="round" points="114.53652954101563 173.92274475097656 132.717529296875 168.96429443359375 150.34759521484375 164.55677795410156 170.73236083984375 159.04737854003906 188.3624267578125 154.63986206054688 202.68682861328125 150.2323455810547 214.8074951171875 146.3757781982422 221.4188232421875 143.62107849121094 225.8262939453125 141.41732788085938 227.4791259765625 139.21356201171875 227.4791259765625 139.21356201171875 " />
        <polyline stroke="black" stroke-width="3" stroke-linecap="round" fill="transparent" stroke-linejoin="round" points="191.66802978515625 134.25511169433594 186.15869140625 143.62107849121094 186.15869140625 152.98704528808594 186.7095947265625 166.76052856445313 187.260498046875 181.63589477539065 187.260498046875 195.9603271484375 186.7095947265625 209.73382568359375 184.505859375 223.50729370117188 184.505859375 223.50729370117188 " />
        </svg>