<?xml version="1.0" standalone="no"?>
    <svg width="256" height="256" xmlns="http://www.w3.org/2000/svg" version="1.1">
    <polyline stroke="black" stroke-width="3" stroke-linecap="round" fill="transparent" stroke-linejoin="round" points="33.00006103515625 108.00001525878906 51.1334228515625 124.00001525878906 60.7333984375 122.93336486816406 60.7333984375 122.93336486816406 " />
        <polyline stroke="black" stroke-width="3" stroke-linecap="round" fill="transparent" stroke-linejoin="round" points="85.2667236328125 74.93333435058594 77.80010986328125 112.26667785644533 63.93341064453125 134.6666717529297 53.2667236328125 146.40003967285156 46.86669921875 151.73338317871094 40.466796875 154.93336486816406 41.53338623046875 152.80001831054688 47.93341064453125 144.26669311523438 61.80010986328125 132.53334045410156 93.80010986328124 113.33334350585938 106.60003662109376 105.86669921875 110.86669921875 102.66667175292967 108.7333984375 92.00001525878906 108.7333984375 92.00001525878906 " />
        <polyline stroke="black" stroke-width="3" stroke-linecap="round" fill="transparent" stroke-linejoin="round" points="83.1334228515625 58.93333435058594 79.93341064453125 81.33334350585938 77.80010986328125 96.26667785644533 72.466796875 129.33334350585938 68.2000732421875 159.20001220703125 63.93341064453125 185.86666870117188 59.66668701171875 211.4666748046875 56.466796875 214.66668701171875 56.466796875 214.66668701171875 " />
        <polyline stroke="black" stroke-width="3" stroke-linecap="round" fill="transparent" stroke-linejoin="round" points="65.00006103515625 146.40003967285156 97.00006103515624 168.80001831054688 105.53338623046876 174.1333465576172 108.7333984375 176.26669311523438 108.7333984375 176.26669311523438 " />
        <polyline stroke="black" stroke-width="3" stroke-linecap="round" fill="transparent" stroke-linejoin="round" points="124.7333984375 62.13334655761719 123.666748046875 94.1333465576172 126.86669921875 102.66667175292967 129 106.933349609375 132.2000732421875 102.66667175292967 139.666748046875 72.80000305175781 145 58.93333435058594 150.3333740234375 53.600006103515625 163.1334228515625 47.20001983642578 181.2667236328125 42.93334197998047 186.60009765625 44.00000762939453 187.666748046875 48.26667022705078 178.0667724609375 62.13334655761719 165.2667236328125 76.00001525878906 156.7333984375 84.53335571289063 155.666748046875 86.66667175292969 157.8001708984375 85.60000610351563 165.2667236328125 78.13334655761719 174.86669921875 65.33334350585938 178.0667724609375 62.13334655761719 178.0667724609375 63.20002746582031 175.933349609375 66.40000915527344 169.533447265625 79.20002746582031 158.86669921875 94.1333465576172 154.60009765625 100.53335571289063 152.466796875 102.66667175292967 153.533447265625 102.66667175292967 162.0667724609375 96.26667785644533 169.533447265625 92.00001525878906 177 89.86669921875 180.2000732421875 89.86669921875 179.1334228515625 95.20002746582033 179.1334228515625 95.20002746582033 " />
        <polyline stroke="black" stroke-width="3" stroke-linecap="round" fill="transparent" stroke-linejoin="round" points="114.06671142578124 132.53334045410156 139.666748046875 121.86668395996094 161 116.53335571289063 174.86669921875 114.40000915527344 178.0667724609375 114.40000915527344 177 116.53335571289063 155.666748046875 131.4666748046875 133.2667236328125 148.53334045410156 118.3333740234375 160.26669311523438 111.93341064453124 164.53334045410156 107.666748046875 167.73338317871094 110.86669921875 166.6666717529297 123.666748046875 159.20001220703125 145 148.53334045410156 168.466796875 141.06671142578125 186.60009765625 136.80001831054688 193 134.6666717529297 196.2000732421875 130.40003967285156 196.2000732421875 130.40003967285156 " />
        <polyline stroke="black" stroke-width="3" stroke-linecap="round" fill="transparent" stroke-linejoin="round" points="156.7333984375 117.60000610351563 153.533447265625 174.1333465576172 154.60009765625 204 155.666748046875 229.6000061035156 156.7333984375 243.4666748046875 156.7333984375 249.86666870117188 156.7333984375 249.86666870117188 " />
        </svg>