<?xml version="1.0" standalone="no"?>
    <svg width="256" height="256" xmlns="http://www.w3.org/2000/svg" version="1.1">
    <polyline stroke="black" stroke-width="3" stroke-linecap="round" fill="transparent" stroke-linejoin="round" points="69 72 68 72 67 72 67 74 68 78 71 86 74 92 78 96 80 100 82 103 82 103 " />
        <polyline stroke="black" stroke-width="3" stroke-linecap="round" fill="transparent" stroke-linejoin="round" points="108 83 108 85 108 88 104 97 99 107 97 110 92 118 92 118 " />
        <polyline stroke="black" stroke-width="3" stroke-linecap="round" fill="transparent" stroke-linejoin="round" points="44 154 44 155 46 155 48 155 59 151 75 145 94 139 110 134 118 132 118 132 " />
        <polyline stroke="black" stroke-width="3" stroke-linecap="round" fill="transparent" stroke-linejoin="round" points="98 61 99 61 98 62 98 65 98 67 95 81 90 104 84 135 76 162 69 181 65 191 64 193 62 196 62 196 " />
        <polyline stroke="black" stroke-width="3" stroke-linecap="round" fill="transparent" stroke-linejoin="round" points="81 145 81 147 86 151 92 158 103 169 113 177 122 184 130 188 130 188 " />
        <polyline stroke="black" stroke-width="3" stroke-linecap="round" fill="transparent" stroke-linejoin="round" points="143 61 141 62 140 65 140 67 139 76 140 92 143 104 147 110 148 112 148 112 " />
        <polyline stroke="black" stroke-width="3" stroke-linecap="round" fill="transparent" stroke-linejoin="round" points="143 60 142 61 143 60 144 60 149 58 152 57 162 55 169 54 179 52 191 51 196 52 200 55 202 59 203 65 204 73 205 85 205 87 205 97 203 105 202 112 200 115 200 115 " />
        <polyline stroke="black" stroke-width="3" stroke-linecap="round" fill="transparent" stroke-linejoin="round" points="148 92 148 91 149 89 155 89 165 89 178 90 187 91 190 91 195 92 195 92 " />
        <polyline stroke="black" stroke-width="3" stroke-linecap="round" fill="transparent" stroke-linejoin="round" points="149 117 148 118 149 118 152 118 154 118 163 118 181 116 194 115 199 115 199 115 " />
        <polyline stroke="black" stroke-width="3" stroke-linecap="round" fill="transparent" stroke-linejoin="round" points="174 61 174 60 174 64 174 76 173 89 173 100 175 110 176 112 176 112 " />
        <polyline stroke="black" stroke-width="3" stroke-linecap="round" fill="transparent" stroke-linejoin="round" points="155 149 154 149 157 148 163 148 179 147 189 147 191 147 198 148 198 148 " />
        <polyline stroke="black" stroke-width="3" stroke-linecap="round" fill="transparent" stroke-linejoin="round" points="141 189 142 189 144 188 145 187 157 185 177 182 199 181 216 181 225 183 225 183 " />
        <polyline stroke="black" stroke-width="3" stroke-linecap="round" fill="transparent" stroke-linejoin="round" points="179 190 176 189 176 190 176 191 175 198 175 216 175 235 176 245 176 248 178 253 178 253 " />
        </svg>