<?xml version="1.0" standalone="no"?>
    <svg width="256" height="256" xmlns="http://www.w3.org/2000/svg" version="1.1">
    <polyline stroke="black" stroke-width="3" stroke-linecap="round" fill="transparent" stroke-linejoin="round" points="35.1334228515625 103.73333740234376 53.2667236328125 116.53335571289063 53.2667236328125 116.53335571289063 " />
        <polyline stroke="black" stroke-width="3" stroke-linecap="round" fill="transparent" stroke-linejoin="round" points="93.80010986328124 63.20002746582031 82.06671142578125 83.4666748046875 74.60003662109375 103.73333740234376 67.1334228515625 119.73338317871094 67.1334228515625 119.73338317871094 " />
        <polyline stroke="black" stroke-width="3" stroke-linecap="round" fill="transparent" stroke-linejoin="round" points="26.60003662109375 151.73338317871094 50.06671142578125 134.6666717529297 74.60003662109375 120.8000030517578 92.7333984375 112.26667785644533 97.00006103515624 111.20002746582033 98.06671142578124 110.1333465576172 98.06671142578124 109.06668090820313 98.06671142578124 109.06668090820313 " />
        <polyline stroke="black" stroke-width="3" stroke-linecap="round" fill="transparent" stroke-linejoin="round" points="56.466796875 76.00001525878906 62.86669921875 112.26667785644533 61.80010986328125 158.1333465576172 55.4000244140625 181.60003662109375 50.06671142578125 198.66668701171875 46.86669921875 205.06671142578125 44.7333984375 205.06671142578125 44.7333984375 205.06671142578125 " />
        <polyline stroke="black" stroke-width="3" stroke-linecap="round" fill="transparent" stroke-linejoin="round" points="59.66668701171875 152.80001831054688 94.86669921875 168.80001831054688 106.60003662109376 174.1333465576172 111.93341064453124 175.20001220703125 116.2000732421875 176.26669311523438 116.2000732421875 176.26669311523438 " />
        <polyline stroke="black" stroke-width="3" stroke-linecap="round" fill="transparent" stroke-linejoin="round" points="110.86669921875 69.60000610351563 109.80010986328124 92.00001525878906 109.80010986328124 101.60000610351563 111.93341064453124 104.8000030517578 113.00006103515624 106.933349609375 113.00006103515624 106.933349609375 " />
        <polyline stroke="black" stroke-width="3" stroke-linecap="round" fill="transparent" stroke-linejoin="round" points="117.2667236328125 57.86668395996094 162.0667724609375 42.93334197998047 169.533447265625 40.800010681152344 174.86669921875 39.73333740234375 178.0667724609375 39.73333740234375 179.1334228515625 42.93334197998047 179.1334228515625 54.66667175292969 177 70.66667175292969 174.86669921875 87.73333740234375 173.8001708984375 96.26667785644533 169.533447265625 101.60000610351563 168.466796875 102.66667175292967 168.466796875 102.66667175292967 " />
        <polyline stroke="black" stroke-width="3" stroke-linecap="round" fill="transparent" stroke-linejoin="round" points="139.666748046875 60 141.8001708984375 90.933349609375 141.8001708984375 98.40000915527344 141.8001708984375 104.8000030517578 141.8001708984375 104.8000030517578 " />
        <polyline stroke="black" stroke-width="3" stroke-linecap="round" fill="transparent" stroke-linejoin="round" points="123.666748046875 76.00001525878906 146.0667724609375 71.73333740234375 153.533447265625 71.73333740234375 162.0667724609375 71.73333740234375 162.0667724609375 71.73333740234375 " />
        <polyline stroke="black" stroke-width="3" stroke-linecap="round" fill="transparent" stroke-linejoin="round" points="120.466796875 94.1333465576172 147.1334228515625 92.00001525878906 155.666748046875 92.00001525878906 161 95.20002746582033 161 95.20002746582033 " />
        <polyline stroke="black" stroke-width="3" stroke-linecap="round" fill="transparent" stroke-linejoin="round" points="111.93341064453124 128.26669311523438 147.1334228515625 121.86668395996094 166.3333740234375 120.8000030517578 178.0667724609375 124.00001525878906 178.0667724609375 124.00001525878906 " />
        <polyline stroke="black" stroke-width="3" stroke-linecap="round" fill="transparent" stroke-linejoin="round" points="84.2000732421875 176.26669311523438 151.4000244140625 160.26669311523438 184.466796875 157.06671142578125 206.86669921875 157.06671142578125 217.533447265625 157.06671142578125 219.666748046875 158.1333465576172 219.666748046875 158.1333465576172 " />
        <polyline stroke="black" stroke-width="3" stroke-linecap="round" fill="transparent" stroke-linejoin="round" points="152.466796875 129.33334350585938 155.666748046875 153.86668395996094 159.933349609375 188 163.1334228515625 215.73336791992188 165.2667236328125 237.06671142578125 166.3333740234375 247.73336791992188 166.3333740234375 247.73336791992188 " />
        </svg>