<?xml version="1.0" standalone="no"?>
    <svg width="256" height="256" xmlns="http://www.w3.org/2000/svg" version="1.1">
    <polyline stroke="black" stroke-width="3" stroke-linecap="round" fill="transparent" stroke-linejoin="round" points="21 84 31 78 42 73 64 66 86 61 101 58 112 57 114 57 114 57 " />
        <polyline stroke="black" stroke-width="3" stroke-linecap="round" fill="transparent" stroke-linejoin="round" points="57 94 62 104 67 115 70 120 70 120 " />
        <polyline stroke="black" stroke-width="3" stroke-linecap="round" fill="transparent" stroke-linejoin="round" points="128 79 113 91 101 103 84 122 74 129 74 129 " />
        <polyline stroke="black" stroke-width="3" stroke-linecap="round" fill="transparent" stroke-linejoin="round" points="37 156 59 145 76 136 92 131 108 127 118 126 120 126 120 126 " />
        <polyline stroke="black" stroke-width="3" stroke-linecap="round" fill="transparent" stroke-linejoin="round" points="46 177 57 172 73 164 92 157 108 152 120 149 127 148 127 148 " />
        <polyline stroke="black" stroke-width="3" stroke-linecap="round" fill="transparent" stroke-linejoin="round" points="76 173 79 179 82 182 87 192 91 199 94 201 94 201 " />
        <polyline stroke="black" stroke-width="3" stroke-linecap="round" fill="transparent" stroke-linejoin="round" points="128 170 123 180 115 190 103 203 91 213 91 213 " />
        <polyline stroke="black" stroke-width="3" stroke-linecap="round" fill="transparent" stroke-linejoin="round" points="83 220 72 223 91 216 113 208 120 205 120 205 " />
        <polyline stroke="black" stroke-width="3" stroke-linecap="round" fill="transparent" stroke-linejoin="round" points="195 44 195 63 192 84 186 113 177 145 167 172 159 187 154 201 150 208 149 209 149 209 " />
        <polyline stroke="black" stroke-width="3" stroke-linecap="round" fill="transparent" stroke-linejoin="round" points="150 108 156 106 167 105 183 103 198 103 208 103 212 110 212 127 212 149 209 170 205 185 200 199 197 206 196 208 194 209 191 209 184 208 172 189 172 189 " />
        <polyline stroke="black" stroke-width="3" stroke-linecap="round" fill="transparent" stroke-linejoin="round" points="149 50 158 59 170 68 180 79 191 96 194 107 194 107 " />
        </svg>