<?xml version="1.0" standalone="no"?>
    <svg width="256" height="256" xmlns="http://www.w3.org/2000/svg" version="1.1">
    <polyline stroke="black" stroke-width="3" stroke-linecap="round" fill="transparent" stroke-linejoin="round" points="56.102569580078125 77.07379150390625 69.173583984375 75.9580078125 82.24459838867188 74.84222412109375 96.82235717773438 73.687255859375 130.08489990234375 71.73226928710938 146.93701171875 71.17153930664063 170.75653076171875 69.79032897949219 189.18304443359375 68.92926025390625 193.6431884765625 69.03378295898438 196.0870361328125 69.25750732421875 196.586181640625 68.85519409179688 195.25897216796875 69.91973876953125 194.7655029296875 70.31561279296875 " />
        <polyline stroke="black" stroke-width="3" stroke-linecap="round" fill="transparent" stroke-linejoin="round" points="74.17269897460938 87.19390869140624 74.24996948242188 103.52227783203124 74.32723999023438 119.85064697265624 72.5657958984375 157.1196746826172 68.92706298828125 188.7645568847656 68.95199584960938 194.40621948242188 70.2294921875 199.66851806640625 71.73486328125 200.00946044921875 74.81088256835938 198.10122680664065 85.18270874023438 194.6595458984375 95.12005615234376 188.3169860839844 104.45599365234376 179.8783416748047 119.74847412109376 158.75057983398438 123.78924560546876 152.69891357421875 121.33773803710938 154.5441131591797 " />
        <polyline stroke="black" stroke-width="3" stroke-linecap="round" fill="transparent" stroke-linejoin="round" points="120.7635498046875 75.29335021972656 146.28057861328125 119.099853515625 171.797607421875 162.90635681152344 182.85406494140625 182.053955078125 190.41107177734375 195.90914916992188 188.7528076171875 193.3257751464844 " />
        </svg>