<?xml version="1.0" standalone="no"?>
    <svg width="256" height="256" xmlns="http://www.w3.org/2000/svg" version="1.1">
    <polyline stroke="black" stroke-width="3" stroke-linecap="round" fill="transparent" stroke-linejoin="round" points="72.21807861328125 94.92117309570313 84.89559936523438 88.15982055664063 93.34735107421876 84.77912902832031 103.06683349609376 81.39845275878906 134.33807373046875 71.25640869140625 154.1995849609375 64.49504089355469 172.37078857421875 59.001434326171875 175.328857421875 58.15626525878906 177.8643798828125 57.31109619140625 174.48370361328125 57.733673095703125 161.80615234375 61.53694152832031 151.6640625 65.3402099609375 143.21237182617188 69.56607055664063 136.45101928710938 75.05966186523438 132.22518920898438 79.2855224609375 115.74432373046876 105.06321716308594 101.79904174804688 147.32174682617188 94.61508178710938 174.789794921875 91.656982421875 192.96096801757813 91.234375 202.25784301757813 92.92474365234376 203.94818115234375 103.06683349609376 198.45455932617188 122.92831420898438 184.50924682617188 141.52206420898438 169.71878051757813 149.12860107421875 163.80258178710938 160.1158447265625 155.3508758544922 163.9190673828125 151.54759216308594 163.9190673828125 151.54759216308594 " />
        <polyline stroke="black" stroke-width="3" stroke-linecap="round" fill="transparent" stroke-linejoin="round" points="152.93182373046875 119.85372924804688 163.07391357421875 135.91195678710938 167.72235107421875 142.67332458496094 172.7933349609375 149.43467712402344 192.2322998046875 184.50924682617188 192.2322998046875 184.50924682617188 " />
        </svg>