<?xml version="1.0" standalone="no"?>
    <svg width="256" height="256" xmlns="http://www.w3.org/2000/svg" version="1.1">
    <polyline stroke="black" stroke-width="3" stroke-linecap="round" fill="transparent" stroke-linejoin="round" points="55.10931396484375 124.99356079101558 63.6126708984375 122.15910339355467 72.11602783203125 119.32464599609376 81.68222045898438 116.13591003417967 93.37432861328124 112.59286499023438 119.59286499023438 103.73526000976563 145.81146240234375 95.23193359375 167.7783203125 87.79153442382813 182.6591796875 81.76834106445313 190.80816650390625 78.57958984375 193.9969482421875 77.51667785644531 193.9969482421875 77.16238403320313 193.9969482421875 77.16238403320313 " />
        <polyline stroke="black" stroke-width="3" stroke-linecap="round" fill="transparent" stroke-linejoin="round" points="81.68228149414063 111.17561340332033 82.03656005859375 118.9703369140625 82.39083862304688 126.76506042480467 82.74517822265625 145.543212890625 83.09945678710938 156.17236328125 84.8709716796875 175.30484008789063 86.996826171875 188.41412353515625 89.12265014648438 197.62603759765625 91.602783203125 200.10617065429688 99.3974609375 200.10617065429688 110.73529052734376 194.43731689453125 123.84454345703124 185.9339904785156 135.18231201171875 177.07635498046875 144.39422607421875 168.92735290527344 148.29159545898438 165.02999877929688 148.29159545898438 165.02999877929688 " />
        <polyline stroke="black" stroke-width="3" stroke-linecap="round" fill="transparent" stroke-linejoin="round" points="146.52001953125 135.9769744873047 151.8345947265625 141.64585876464844 157.149169921875 147.3147430419922 163.17236328125 153.69223022460938 182.6591796875 174.59622192382813 194.70550537109375 189.47705078125 194.70550537109375 189.47705078125 " />
        </svg>