<?xml version="1.0" standalone="no"?>
    <svg width="256" height="256" xmlns="http://www.w3.org/2000/svg" version="1.1">
    <polyline stroke="black" stroke-width="3" stroke-linecap="round" fill="transparent" stroke-linejoin="round" points="42.14111328125 101.3467102050781 62.385589599609375 97.40045166015624 82.63006591796875 93.45419311523438 95.40097045898438 90.76022338867188 108.3973388671875 87.86709594726563 135.756591796875 81.14175415039063 162.850830078125 72.36231994628906 174.59686279296875 68.96591186523438 190.825927734375 64.59756469726563 200.45501708984375 61.29154968261719 202.24505615234375 60.48583984375 203.135498046875 59.861297607421875 203.1478271484375 59.85264587402344 203.152099609375 59.849639892578125 203.154052734375 59.84825134277344 " />
        <polyline stroke="black" stroke-width="3" stroke-linecap="round" fill="transparent" stroke-linejoin="round" points="68.48251342773438 104.74275207519528 69.21237182617188 122.53521728515624 69.94223022460938 140.3276824951172 69.05026245117188 175.46832275390625 67.71319580078125 187.498291015625 65.0880126953125 198.62249755859375 64.39010620117188 200.47796630859375 64.38473510742188 200.4923095703125 64.38339233398438 200.49581909179688 64.38327026367188 200.4962158203125 67.44232177734375 200.01852416992188 72.56072998046875 198.7530517578125 92.50839233398438 190.0389404296875 103.206787109375 183.6620330810547 124.60140991210938 170.1820526123047 140.6473388671875 159.7508544921875 142.99432373046875 157.61019897460938 143.48388671875 156.2196044921875 143.52536010742188 156.10183715820313 " />
        <polyline stroke="black" stroke-width="3" stroke-linecap="round" fill="transparent" stroke-linejoin="round" points="139.7052001953125 111.52070617675784 147.09765625 125.12396240234376 154.4901123046875 138.7272186279297 171.11572265625 164.62985229492188 177.915771484375 173.130615234375 188.14404296875 182.8079833984375 192.0484619140625 184.65042114257813 192.4388427734375 184.83465576171875 " />
        </svg>