<?xml version="1.0" standalone="no"?>
    <svg width="256" height="256" xmlns="http://www.w3.org/2000/svg" version="1.1">
    <polyline stroke="black" stroke-width="3" stroke-linecap="round" fill="transparent" stroke-linejoin="round" points="54.87200927734375 106.4126434326172 63.848724365234375 102.67234802246094 72.825439453125 98.93205261230467 82.55026245117188 95.19174194335938 103.1219482421875 87.71112060546875 124.81573486328124 80.23049926757813 142.39520263671875 73.49795532226563 155.11224365234375 69.00958251953125 161.84478759765625 66.391357421875 163.7149658203125 65.643310546875 163.7149658203125 65.643310546875 " />
        <polyline stroke="black" stroke-width="3" stroke-linecap="round" fill="transparent" stroke-linejoin="round" points="88.16064453125 111.64907836914063 85.91650390625 120.62582397460938 83.67236328125 129.60256958007813 81.42816162109375 138.95333862304688 78.0618896484375 156.5327606201172 76.56576538085938 176.35638427734375 76.93978881835938 185.3331298828125 78.0618896484375 190.195556640625 82.55026245117188 192.065673828125 95.641357421875 186.82925415039065 109.8544921875 175.98236083984375 121.075439453125 165.13548278808594 130.05218505859375 155.03665161132813 136.78472900390625 146.05990600585938 136.78472900390625 146.05990600585938 " />
        <polyline stroke="black" stroke-width="3" stroke-linecap="round" fill="transparent" stroke-linejoin="round" points="133.04434204101563 137.08316040039063 136.41064453125 143.8157196044922 139.77694702148438 150.54827880859375 143.51727294921875 158.40292358398438 147.631591796875 166.257568359375 162.59283447265625 188.32537841796875 167.45526123046875 195.05792236328125 177.9281005859375 210.7672119140625 177.9281005859375 210.7672119140625 " />
        </svg>