<?xml version="1.0" standalone="no"?>
    <svg width="256" height="256" xmlns="http://www.w3.org/2000/svg" version="1.1">
    <polyline stroke="black" stroke-width="3" stroke-linecap="round" fill="transparent" stroke-linejoin="round" points="146.0145263671875 43.267127990722656 131.33544921875 67.48751831054688 112.9866943359375 91.70794677734376 93.1700439453125 113.72648620605467 71.8853759765625 134.27711486816406 57.20635986328125 148.22219848632813 50.600830078125 158.49752807617188 50.600830078125 158.49752807617188 " />
        <polyline stroke="black" stroke-width="3" stroke-linecap="round" fill="transparent" stroke-linejoin="round" points="83.628662109375 118.13018798828124 79.22491455078125 149.69009399414063 74.8212890625 190.05743408203125 74.0872802734375 207.6722717285156 74.0872802734375 216.47970581054688 74.0872802734375 219.41549682617188 76.28912353515625 220.14947509765625 91.7021484375 209.14019775390625 108.5830078125 193.72720336914065 123.9959716796875 182.71792602539065 137.2071533203125 175.37840270996094 146.0145263671875 171.70863342285156 151.1522216796875 169.5067901611328 154.0880126953125 168.77285766601563 155.555908203125 167.30494689941406 155.555908203125 167.30494689941406 " />
        <polyline stroke="black" stroke-width="3" stroke-linecap="round" fill="transparent" stroke-linejoin="round" points="147.482421875 117.39625549316406 157.0238037109375 135.0110626220703 165.831298828125 152.6259002685547 174.6385498046875 166.5709991455078 183.446044921875 177.58026123046875 189.317626953125 185.6537170410156 193.7213134765625 192.25927734375 196.6571044921875 195.92904663085935 196.6571044921875 195.92904663085935 " />
        </svg>