<?xml version="1.0" standalone="no"?>
    <svg width="256" height="256" xmlns="http://www.w3.org/2000/svg" version="1.1">
    <polyline stroke="black" stroke-width="3" stroke-linecap="round" fill="transparent" stroke-linejoin="round" points="59.370697021484375 96.84814453125 78.99746704101563 89.92103576660156 98.62423706054688 82.99392700195313 118.82830810546876 76.93270874023438 137.01193237304688 72.31463623046875 150.57754516601563 68.56245422363281 159.5250244140625 65.09889221191406 162.699951171875 63.36714172363281 162.699951171875 63.36714172363281 " />
        <polyline stroke="black" stroke-width="3" stroke-linecap="round" fill="transparent" stroke-linejoin="round" points="70.62722778320313 128.0200958251953 70.62722778320313 146.781005859375 70.62722778320313 165.5419158935547 70.91583251953125 180.8392333984375 70.62722778320313 186.90045166015625 70.62722778320313 191.80712890625 71.2044677734375 194.69342041015625 72.3590087890625 193.82757568359375 78.99746704101563 186.32321166992188 92.8516845703125 172.468994140625 108.4376220703125 158.326171875 122.86911010742188 144.7605743408203 134.41427612304688 132.06089782714844 137.01193237304688 124.8451690673828 137.01193237304688 124.8451690673828 " />
        <polyline stroke="black" stroke-width="3" stroke-linecap="round" fill="transparent" stroke-linejoin="round" points="118.25103759765625 89.63240051269534 140.76412963867188 119.07258605957033 163.2772216796875 148.5127716064453 180.594970703125 171.31448364257813 196.75823974609375 187.766357421875 204.26251220703125 194.1162109375 204.26251220703125 194.1162109375 " />
        </svg>