<?xml version="1.0" standalone="no"?>
    <svg width="256" height="256" xmlns="http://www.w3.org/2000/svg" version="1.1">
    <polyline stroke="black" stroke-width="3" stroke-linecap="round" fill="transparent" stroke-linejoin="round" points="81.43426513671875 119.42782592773438 85.71905517578125 132.89431762695313 88.77963256835938 146.36080932617188 90.615966796875 156.1546173095703 90.615966796875 156.1546173095703 " />
        <polyline stroke="black" stroke-width="3" stroke-linecap="round" fill="transparent" stroke-linejoin="round" points="91.8402099609375 93.10694885253906 102.85821533203124 84.537353515625 118.16107177734376 75.9677734375 137.1365966796875 68.01029968261719 157.3363037109375 63.11338806152344 173.25128173828125 63.72550964355469 185.4935302734375 68.01029968261719 192.8388671875 75.9677734375 198.347900390625 92.4948272705078 195.89947509765625 118.81570434570313 183.6572265625 143.3002471923828 183.6572265625 143.3002471923828 " />
        <polyline stroke="black" stroke-width="3" stroke-linecap="round" fill="transparent" stroke-linejoin="round" points="63.6829833984375 136.56700134277344 78.37371826171875 133.5064239501953 105.9188232421875 128.60952758789063 137.74868774414063 123.10049438476563 167.74224853515625 117.59147644042967 188.5540771484375 113.3066864013672 207.5296630859375 108.40977478027344 219.7718505859375 104.7371063232422 225.89300537109375 101.67652893066406 228.3414306640625 97.39173889160156 228.3414306640625 97.39173889160156 " />
        <polyline stroke="black" stroke-width="3" stroke-linecap="round" fill="transparent" stroke-linejoin="round" points="158.560546875 88.82215881347656 154.2757568359375 100.45230102539063 149.990966796875 115.75514221191406 144.48193359375 132.28219604492188 136.52447509765625 148.1971435546875 129.17910766601563 159.82730102539063 121.22161865234376 167.17266845703125 112.65203857421876 172.06956481933594 105.9188232421875 173.29379272460938 100.4097900390625 173.29379272460938 97.96133422851563 173.29379272460938 97.96133422851563 171.45745849609375 102.85821533203124 169.62110900878906 118.16107177734376 167.17266845703125 140.1971435546875 164.11209106445313 163.45745849609375 161.66363525390625 180.59661865234375 160.43942260742188 193.4510498046875 161.05152893066406 200.18426513671875 163.49998474121094 200.18426513671875 163.49998474121094 " />
        </svg>