<?xml version="1.0" standalone="no"?>
    <svg width="256" height="256" xmlns="http://www.w3.org/2000/svg" version="1.1">
    <polyline stroke="black" stroke-width="3" stroke-linecap="round" fill="transparent" stroke-linejoin="round" points="69.984130859375 98.491943359375 70.42584228515625 105.5589599609375 70.86752319335938 124.1099090576172 71.3092041015625 135.59381103515625 73.075927734375 153.70309448242188 74.40106201171875 167.83712768554688 74.84271240234375 174.4624481201172 74.40106201171875 177.1125946044922 74.40106201171875 177.1125946044922 " />
        <polyline stroke="black" stroke-width="3" stroke-linecap="round" fill="transparent" stroke-linejoin="round" points="74.40106201171875 103.79222106933594 81.468017578125 99.37533569335938 89.86016845703125 94.95843505859376 107.52767944335938 87.44972229003906 126.52032470703124 82.59115600585938 135.7957763671875 81.26608276367188 144.1878662109375 80.38270568847656 159.64697265625 80.82438659667969 169.80584716796875 83.47451782226563 176.43115234375 87.89141845703125 181.7314453125 97.60856628417967 184.8232421875 115.7178192138672 179.9647216796875 142.2191619873047 166.2723388671875 168.27880859375 166.2723388671875 168.27880859375 " />
        <polyline stroke="black" stroke-width="3" stroke-linecap="round" fill="transparent" stroke-linejoin="round" points="56.733489990234375 142.66085815429688 66.45062255859375 141.33578491210938 77.93453979492188 140.01071166992188 90.30184936523438 138.24395751953125 114.15301513671876 135.1521453857422 126.96200561523438 133.8270721435547 152.5799560546875 132.94369506835938 173.781005859375 131.61862182617188 189.681884765625 130.29356384277344 199.3990478515625 128.96849060058594 203.81591796875 127.64341735839844 203.81591796875 127.64341735839844 " />
        <polyline stroke="black" stroke-width="3" stroke-linecap="round" fill="transparent" stroke-linejoin="round" points="125.636962890625 113.06768798828124 125.636962890625 120.576416015625 125.19525146484376 128.52682495117188 124.75360107421876 136.91888427734375 123.428466796875 150.6112518310547 120.336669921875 162.09515380859375 114.5947265625 173.57907104492188 111.06121826171876 177.99595642089844 111.06121826171876 177.99595642089844 " />
        <polyline stroke="black" stroke-width="3" stroke-linecap="round" fill="transparent" stroke-linejoin="round" points="87.21002197265625 193.01339721679688 96.4854736328125 189.0382080078125 106.644287109375 185.06298828125 126.96200561523438 179.76272583007813 136.23748779296875 177.99595642089844 145.512939453125 177.1125946044922 167.597412109375 179.76272583007813 167.597412109375 179.76272583007813 " />
        </svg>