<?xml version="1.0" standalone="no"?>
    <svg width="256" height="256" xmlns="http://www.w3.org/2000/svg" version="1.1">
    <polyline stroke="black" stroke-width="3" stroke-linecap="round" fill="transparent" stroke-linejoin="round" points="88 73 88 80 89 88 89 97 89 107 88 116 88 128 88 134 89 138 89 142 89 143 90 143 " />
        <polyline stroke="black" stroke-width="3" stroke-linecap="round" fill="transparent" stroke-linejoin="round" points="86 94 90 90 95 86 104 81 112 77 120 73 129 69 139 66 148 64 156 64 164 65 170 68 176 78 178 87 179 99 177 111 174 122 169 133 162 142 159 145 155 148 " />
        <polyline stroke="black" stroke-width="3" stroke-linecap="round" fill="transparent" stroke-linejoin="round" points="37 135 34 133 33 131 35 129 37 126 41 123 46 120 54 118 70 116 84 115 99 115 115 115 131 115 147 115 161 113 174 111 184 107 192 103 199 100 201 98 203 97 " />
        <polyline stroke="black" stroke-width="3" stroke-linecap="round" fill="transparent" stroke-linejoin="round" points="126 82 122 85 120 92 119 99 118 106 118 114 117 122 115 130 113 138 110 145 108 148 106 150 " />
        <polyline stroke="black" stroke-width="3" stroke-linecap="round" fill="transparent" stroke-linejoin="round" points="77 162 76 162 77 162 82 160 87 158 93 157 101 156 111 155 121 155 133 157 145 159 158 164 165 167 " />
        </svg>