<?xml version="1.0" standalone="no"?>
    <svg width="256" height="256" xmlns="http://www.w3.org/2000/svg" version="1.1">
    <polyline stroke="black" stroke-width="3" stroke-linecap="round" fill="transparent" stroke-linejoin="round" points="72.68255615234375 99.6226043701172 83.43695068359375 99.6226043701172 95.98382568359376 99.6226043701172 109.87493896484376 99.17449951171876 138.105224609375 99.6226043701172 166.78369140625 100.9669189453125 178.8824462890625 101.41502380371094 198.1507568359375 102.7593231201172 209.8013916015625 101.86312866210938 213.8343505859375 98.72640991210938 213.8343505859375 98.72640991210938 " />
        <polyline stroke="black" stroke-width="3" stroke-linecap="round" fill="transparent" stroke-linejoin="round" points="94.19137573242188 88.42008972167969 94.19137573242188 100.9669189453125 94.19137573242188 113.96185302734376 94.19137573242188 125.61245727539063 94.19137573242188 146.67320251464844 94.19137573242188 157.87571716308594 94.19137573242188 160.56431579589844 93.295166015625 161.90863037109375 93.295166015625 161.90863037109375 " />
        <polyline stroke="black" stroke-width="3" stroke-linecap="round" fill="transparent" stroke-linejoin="round" points="94.19137573242188 85.28338623046875 99.568603515625 80.80238342285156 115.25213623046876 71.39225769042969 133.624267578125 63.77455139160156 151.1002197265625 59.293548583984375 164.9913330078125 58.3973388671875 176.6419677734375 61.53404235839844 185.1558837890625 69.15176391601563 192.7735595703125 83.9390869140625 196.8065185546875 103.20744323730467 194.56597900390625 119.7871551513672 191.42926025390625 125.1643524169922 184.2596435546875 130.54156494140625 184.2596435546875 130.54156494140625 " />
        <polyline stroke="black" stroke-width="3" stroke-linecap="round" fill="transparent" stroke-linejoin="round" points="146.17108154296875 91.10870361328124 146.619140625 100.51882934570313 146.17108154296875 110.37704467773438 144.378662109375 119.7871551513672 141.6900634765625 128.74917602539063 132.72802734375 144.43270874023438 127.79891967773438 149.80990600585938 119.28500366210938 155.63522338867188 113.0115966796875 158.32382202148438 111.21920776367188 158.77191162109375 111.21920776367188 158.32382202148438 117.94073486328124 154.739013671875 147.0672607421875 146.22509765625 168.57611083984375 142.19219970703125 180.22674560546875 141.29598999023438 195.01409912109375 141.74407958984375 195.01409912109375 141.74407958984375 " />
        </svg>