<?xml version="1.0" standalone="no"?>
    <svg width="256" height="256" xmlns="http://www.w3.org/2000/svg" version="1.1">
    <polyline stroke="black" stroke-width="3" stroke-linecap="round" fill="transparent" stroke-linejoin="round" points="64.32968139648438 100.60775756835938 67.61370849609375 116.89117431640624 72.66253662109375 154.76434326171875 75.34130859375 180.39974975585935 75.555419921875 186.2207946777344 75.73422241210938 189.97509765625 75.56866455078125 191.52392578125 75.82940673828125 192.89617919921875 75.85763549804688 193.0447998046875 " />
        <polyline stroke="black" stroke-width="3" stroke-linecap="round" fill="transparent" stroke-linejoin="round" points="105.51083374023438 79.85308837890625 125.80810546875 77.47250366210938 134.87948608398438 76.89505004882813 142.21578979492188 77.15087890625 155.35546875 82.44052124023438 165.14703369140625 91.66769409179688 171.6419677734375 104.72857666015624 174.98236083984375 115.16178894042967 176.7340087890625 126.62052917480467 178.3887939453125 150.77297973632813 177.3138427734375 161.19345092773438 174.3409423828125 175.61819458007813 168.584228515625 186.86636352539065 163.88079833984375 190.154296875 163.1751708984375 188.61599731445313 " />
        <polyline stroke="black" stroke-width="3" stroke-linecap="round" fill="transparent" stroke-linejoin="round" points="117.61422729492188 130.31387329101563 120.713623046875 147.466064453125 121.69613647460938 154.12213134765625 122.7802734375 163.5802459716797 122.56707763671876 168.9358367919922 123.24505615234376 171.56427001953125 123.28857421875 171.73312377929688 " />
        <polyline stroke="black" stroke-width="3" stroke-linecap="round" fill="transparent" stroke-linejoin="round" points="61.356689453125 148.19900512695313 70.87655639648438 146.82244873046875 80.26705932617188 146.13174438476563 90.6444091796875 146.08203125 107.6693115234375 147.7926025390625 114.6131591796875 149.137451171875 132.52645874023438 150.6495819091797 155.6251220703125 150.39089965820313 168.054443359375 150.21633911132813 192.6622314453125 150.56033325195313 204.20025634765625 151.22372436523438 212.7322998046875 151.85498046875 214.8927001953125 151.73648071289063 215.878173828125 151.58909606933594 216.3753662109375 151.54690551757813 216.58648681640625 151.52902221679688 216.6302490234375 151.20108032226563 216.6524658203125 151.03488159179688 " />
        <polyline stroke="black" stroke-width="3" stroke-linecap="round" fill="transparent" stroke-linejoin="round" points="113.29754638671876 188.491455078125 120.79171752929688 188.5189514160156 139.56747436523438 189.06362915039065 156.338134765625 190.90728759765625 163.19866943359375 192.22683715820313 170.214111328125 193.27362060546875 170.94720458984375 194.6324157714844 171.0330810546875 194.79150390625 " />
        </svg>