<?xml version="1.0" standalone="no"?>
    <svg width="256" height="256" xmlns="http://www.w3.org/2000/svg" version="1.1">
    <polyline stroke="black" stroke-width="3" stroke-linecap="round" fill="transparent" stroke-linejoin="round" points="64.132080078125 74.98114013671875 65.94342041015625 78.60379028320313 65.94342041015625 78.60379028320313 " />
        <polyline stroke="black" stroke-width="3" stroke-linecap="round" fill="transparent" stroke-linejoin="round" points="55.98114013671875 112.11322021484376 95.8302001953125 83.132080078125 104.88677978515624 76.79244995117188 118.47174072265624 66.8302001953125 127.5283203125 59.58491516113281 132.056640625 55.05659484863281 132.056640625 55.05659484863281 " />
        <polyline stroke="black" stroke-width="3" stroke-linecap="round" fill="transparent" stroke-linejoin="round" points="106.6981201171875 41.47169494628906 83.15087890625 93.09432983398438 75.90570068359375 111.20755004882813 52.3585205078125 161.01885986328125 39.67926025390625 181.8490447998047 28.81134033203125 195.4339599609375 23.37738037109375 201.7735595703125 21.5660400390625 201.7735595703125 21.5660400390625 201.7735595703125 " />
        <polyline stroke="black" stroke-width="3" stroke-linecap="round" fill="transparent" stroke-linejoin="round" points="88.5848388671875 171.88681030273438 93.11322021484376 188.18869018554688 99.4527587890625 180.94337463378903 101.26416015625 174.60379028320313 108.50946044921876 153.77359008789063 111.2264404296875 136.5660400390625 112.132080078125 119.35848999023438 113.0377197265625 108.49057006835938 113.94342041015624 105.77359008789063 116.660400390625 109.396240234375 122.99993896484376 119.35848999023438 126.6226806640625 123.88681030273438 128.43389892578125 125.69810485839844 129.33966064453125 123.88681030273438 128.43389892578125 121.16983032226563 128.43389892578125 121.16983032226563 " />
        <polyline stroke="black" stroke-width="3" stroke-linecap="round" fill="transparent" stroke-linejoin="round" points="164.660400390625 63.207550048828125 196.3585205078125 48.71697998046875 200.88677978515625 47.811317443847656 206.32073974609375 51.4339599609375 208.132080078125 60.490570068359375 205.41510009765625 75.88681030273438 199.07550048828125 95.8113250732422 182.77362060546875 124.79244995117188 170.99993896484375 138.37734985351563 160.13201904296875 148.33961486816406 146.54718017578125 152.86790466308594 139.30181884765625 149.24530029296875 135.67926025390625 140.18869018554688 135.67926025390625 125.69810485839844 140.20758056640625 114.8302001953125 145.64154052734375 111.20755004882813 155.603759765625 122.07546997070313 161.0377197265625 142 162.8489990234375 169.16983032226563 159.2264404296875 215.3584899902344 152.88677978515625 240.71697998046875 148.3585205078125 249.7735595703125 148.3585205078125 249.7735595703125 " />
        </svg>