<?xml version="1.0" standalone="no"?>
    <svg width="256" height="256" xmlns="http://www.w3.org/2000/svg" version="1.1">
    <polyline stroke="black" stroke-width="3" stroke-linecap="round" fill="transparent" stroke-linejoin="round" points="74 75 84 78 89 76 93 74 98 72 104 69 109 67 116 64 122 62 128 59 135 57 141 55 148 54 154 52 160 51 164 51 168 50 172 50 175 49 177 48 179 48 179 47 178 47 178 47 " />
        <polyline stroke="black" stroke-width="3" stroke-linecap="round" fill="transparent" stroke-linejoin="round" points="86 81 87 84 87 87 88 91 88 96 86 103 85 111 83 119 80 128 77 138 75 147 72 156 68 166 63 175 57 183 52 191 46 199 46 199 " />
        </svg>