<?xml version="1.0" standalone="no"?>
    <svg width="256" height="256" xmlns="http://www.w3.org/2000/svg" version="1.1">
    <polyline stroke="black" stroke-width="3" stroke-linecap="round" fill="transparent" stroke-linejoin="round" points="61.30108642578125 113.93911743164063 59.673583984375 120.04214477539063 58.046142578125 126.14517211914063 56.418670654296875 131.84130859375 53.1636962890625 141.19931030273438 50.722503662109375 148.52294921875 49.50189208984375 151.37103271484375 47.467529296875 155.0328369140625 47.0606689453125 155.0328369140625 47.0606689453125 154.6259765625 51.536224365234375 147.70921325683594 55.19805908203125 143.233642578125 64.5560302734375 132.65505981445313 81.64453125 117.19403076171876 93.4437255859375 108.6497802734375 102.39486694335938 103.76736450195313 106.056640625 102.95364379882813 114.19403076171876 104.98797607421876 116.22836303710938 106.61546325683594 119.07647705078124 111.49789428710938 119.07647705078124 124.11080932617188 117.04217529296876 128.99322509765625 110.12533569335938 136.72373962402344 110.12533569335938 136.72373962402344 " />
        <polyline stroke="black" stroke-width="3" stroke-linecap="round" fill="transparent" stroke-linejoin="round" points="84.89950561523438 79.76210021972656 83.67889404296875 94.00251770019533 82.458251953125 108.242919921875 80.01705932617188 138.35122680664063 76.355224609375 172.5281982421875 74.32089233398438 187.58236694335935 68.21786499023438 226.23492431640625 68.21786499023438 226.23492431640625 " />
        <polyline stroke="black" stroke-width="3" stroke-linecap="round" fill="transparent" stroke-linejoin="round" points="143.89547729492188 85.45826721191406 148.77792358398438 83.83079528808594 153.66033935546875 82.20330810546875 169.93505859375 78.54150390625 174.41064453125 78.54150390625 180.513671875 80.57583618164063 184.5823974609375 85.0513916015625 187.83734130859375 96.4437255859375 186.61669921875 111.09100341796876 180.513671875 125.3314208984375 175.63128662109375 131.4344482421875 175.63128662109375 131.4344482421875 " />
        <polyline stroke="black" stroke-width="3" stroke-linecap="round" fill="transparent" stroke-linejoin="round" points="143.48861694335938 108.242919921875 141.04736328125 116.38031005859376 138.19931030273438 124.924560546875 129.655029296875 153.81224060058594 128.027587890625 162.3564910888672 127.62069702148438 167.64578247070313 128.84130859375 170.08700561523438 132.50314331054688 170.90074157714844 139.8267822265625 168.86639404296875 150.40536499023438 164.39083862304688 162.6114501953125 158.69467163085938 174.8175048828125 154.21910095214844 182.54803466796875 153.40538024902344 187.0235595703125 155.84658813476563 191.09228515625 163.57708740234375 192.7197265625 177.41062927246094 191.09228515625 190.43045043945313 186.61669921875 200.6021728515625 180.1068115234375 208.73956298828125 175.63128662109375 212.4013671875 152.84661865234375 218.9112548828125 130.87567138671875 216.06317138671875 130.87567138671875 216.06317138671875 " />
        </svg>