<?xml version="1.0" standalone="no"?>
    <svg width="256" height="256" xmlns="http://www.w3.org/2000/svg" version="1.1">
    <polyline stroke="black" stroke-width="3" stroke-linecap="round" fill="transparent" stroke-linejoin="round" points="46.35650634765625 158.02890014648438 45.60845947265625 164.38742065429688 44.8603515625 169.62384033203125 44.486328125 173.3641357421875 44.1123046875 177.10446166992188 44.1123046875 177.47848510742188 44.1123046875 177.47848510742188 " />
        <polyline stroke="black" stroke-width="3" stroke-linecap="round" fill="transparent" stroke-linejoin="round" points="66.92819213867188 114.26730346679688 72.16464233398438 111.27507019042967 78.14910888671875 108.65684509277344 83.38555908203125 106.4126434326172 93.8583984375 103.79443359375 102.83514404296876 104.54251098632813 109.19366455078124 109.0308837890625 115.17816162109376 119.87774658203124 117.42233276367188 138.95333862304688 116.30023193359376 148.30410766601563 108.071533203125 166.631591796875 103.20916748046876 169.62384033203125 103.20916748046876 169.62384033203125 " />
        <polyline stroke="black" stroke-width="3" stroke-linecap="round" fill="transparent" stroke-linejoin="round" points="89.37005615234375 58.91075134277344 88.2479248046875 75.74212646484375 82.263427734375 134.46495056152344 79.27120971679688 161.76919555664063 74.7828369140625 198.4241943359375 72.53866577148438 218.24786376953125 72.53866577148438 225.35443115234375 74.40878295898438 224.6063537597656 74.40878295898438 224.6063537597656 " />
        <polyline stroke="black" stroke-width="3" stroke-linecap="round" fill="transparent" stroke-linejoin="round" points="144.7265625 74.99407958984375 164.92425537109375 56.29254150390625 177.64129638671875 50.68206787109375 185.8699951171875 51.430137634277344 189.23626708984375 54.04835510253906 196.71685791015625 69.00958251953125 199.7091064453125 110.90103149414063 197.8389892578125 122.1219482421875 189.98431396484375 140.82347106933594 189.98431396484375 140.82347106933594 " />
        <polyline stroke="black" stroke-width="3" stroke-linecap="round" fill="transparent" stroke-linejoin="round" points="152.95526123046875 107.16070556640624 151.0850830078125 116.88552856445313 148.09286499023438 137.0831756591797 148.84091186523438 144.56378173828125 149.96298217773438 146.43394470214844 161.5579833984375 150.54827880859375 168.29052734375 151.67037963867188 187.7401123046875 154.66262817382813 192.9765625 156.90679931640625 205.319580078125 171.49400329589844 210.1820068359375 193.93585205078125 207.937744140625 217.87380981445313 205.319580078125 227.224609375 192.9765625 241.063720703125 173.5269775390625 240.31564331054688 150.3370361328125 225.72845458984375 150.3370361328125 225.72845458984375 " />
        </svg>