<?xml version="1.0" standalone="no"?>
    <svg width="256" height="256" xmlns="http://www.w3.org/2000/svg" version="1.1">
    <polyline stroke="black" stroke-width="3" stroke-linecap="round" fill="transparent" stroke-linejoin="round" points="79.3104248046875 86.14630126953125 78.96807861328125 90.59629821777344 78.625732421875 95.04629516601563 78.283447265625 99.49630737304688 77.94113159179688 103.60398864746094 77.25653076171875 110.10783386230467 76.5718994140625 112.50399780273438 75.54501342773438 115.5847625732422 74.8603515625 116.26939392089844 74.17578125 115.5847625732422 73.83343505859375 112.50399780273438 75.88729858398438 106.00015258789063 81.70654296875 95.73092651367188 90.60653686523438 83.7501220703125 104.64117431640624 71.42703247070313 122.441162109375 60.13087463378906 137.160400390625 54.31163787841797 149.14120483398438 52.942405700683594 157.35662841796875 54.99626159667969 160.4373779296875 57.392425537109375 166.94122314453125 70.40011596679688 166.94122314453125 109.08091735839844 159.7528076171875 128.2501678466797 155.64501953125 133.7270965576172 155.64501953125 133.7270965576172 " />
        <polyline stroke="black" stroke-width="3" stroke-linecap="round" fill="transparent" stroke-linejoin="round" points="126.89111328125 57.734710693359375 126.20654296875 72.45396423339844 125.52197265625 87.1732177734375 123.12582397460938 112.84629821777344 121.41424560546876 122.43093872070313 121.41424560546876 122.43093872070313 " />
        <polyline stroke="black" stroke-width="3" stroke-linecap="round" fill="transparent" stroke-linejoin="round" points="89.57962036132813 146.05014038085938 89.92193603515625 158.03094482421875 90.26425170898438 170.01174926757813 90.26425170898438 178.9117431640625 90.26425170898438 184.388671875 90.26425170898438 186.1002197265625 90.26425170898438 184.388671875 90.60653686523438 182.33482360839844 93.344970703125 174.1194305419922 96.76806640625 168.30020141601563 102.58734130859376 162.48095703125 111.82965087890624 156.31942749023438 123.81039428710938 151.18479919433594 134.07968139648438 148.4463348388672 141.61044311523438 147.76171875 146.0604248046875 149.47325134277344 148.79891967773438 154.26556396484375 149.14120483398438 163.1655731201172 145.03350830078125 173.77713012695313 136.13348388671875 183.0194396972656 122.441162109375 192.26174926757813 110.46038818359376 198.08099365234375 102.58734130859376 200.4771423339844 99.16424560546876 200.81948852539065 98.82196044921876 200.13482666015625 99.848876953125 199.45022583007813 117.99118041992188 192.9463806152344 134.07968139648438 189.18096923828125 153.2489013671875 189.5233154296875 153.2489013671875 189.5233154296875 " />
        </svg>