<?xml version="1.0" standalone="no"?>
    <svg width="256" height="256" xmlns="http://www.w3.org/2000/svg" version="1.1">
    <polyline stroke="black" stroke-width="3" stroke-linecap="round" fill="transparent" stroke-linejoin="round" points="74.67596435546875 104.9788818359375 75.09481811523438 117.12571716308594 75.09481811523438 120.4765625 75.09481811523438 123.40855407714844 75.09481811523438 126.34056091308594 75.09481811523438 130.52911376953125 75.09481811523438 132.6234130859375 75.09481811523438 133.04226684570313 75.09481811523438 132.6234130859375 75.09481811523438 130.94796752929688 76.35137939453125 126.34056091308594 80.53997802734375 117.9634246826172 88.49822998046875 106.654296875 98.9696044921875 94.92634582519533 114.04843139648438 82.36064147949219 131.22152709960938 71.88923645019531 149.65121459960938 64.34982299804688 165.14892578125 63.09326171875 176.87689208984375 67.70068359375 184.416259765625 75.24008178710938 189.023681640625 88.22463989257813 187.3482666015625 104.56002807617188 179.808837890625 118.38229370117188 168.0809326171875 130.52911376953125 168.0809326171875 130.52911376953125 " />
        <polyline stroke="black" stroke-width="3" stroke-linecap="round" fill="transparent" stroke-linejoin="round" points="142.94952392578125 29.584747314453125 143.36837768554688 47.59557342529297 142.53070068359375 55.97270202636719 141.27410888671875 65.18753051757813 134.5723876953125 96.18292236328124 129.12728881835938 117.9634246826172 126.19528198242188 130.1102752685547 126.19528198242188 130.1102752685547 " />
        <polyline stroke="black" stroke-width="3" stroke-linecap="round" fill="transparent" stroke-linejoin="round" points="95.61874389648438 150.21536254882813 92.26791381835938 165.294189453125 90.17364501953124 177.85986328125 89.3359375 182.8861541748047 88.49822998046875 189.58786010742188 87.66049194335938 192.51983642578125 88.079345703125 191.68212890625 89.3359375 190.0067138671875 95.19989013671876 182.46728515625 103.15817260742188 171.15817260742188 111.95416259765624 160.686767578125 122.00668334960938 152.72850036621094 133.31585693359375 146.864501953125 144.62493896484375 144.3513641357422 153.83978271484375 144.77023315429688 158.8660888671875 146.864501953125 160.9603271484375 149.79649353027344 158.8660888671875 156.49819946289063 146.30038452148438 168.64505004882813 123.26327514648438 184.98043823242188 103.15817260742188 195.45184326171875 92.686767578125 198.80267333984375 89.7547607421875 199.2215576171875 89.3359375 198.38385009765625 90.17364501953124 197.546142578125 93.943359375 197.9649658203125 95.61874389648438 198.38385009765625 95.61874389648438 198.38385009765625 " />
        </svg>