<?xml version="1.0" standalone="no"?>
    <svg width="256" height="256" xmlns="http://www.w3.org/2000/svg" version="1.1">
    <polyline stroke="black" stroke-width="3" stroke-linecap="round" fill="transparent" stroke-linejoin="round" points="69.98837280273438 92.7852020263672 71.22750854492188 105.17672729492188 72.0535888671875 111.78550720214844 72.46664428710938 118.807373046875 74.11883544921875 132.85107421875 74.53192138671875 139.04684448242188 75.35800170898438 146.4817352294922 76.18408203125 149.7861328125 76.18408203125 150.19918823242188 76.18408203125 148.96002197265625 76.18408203125 146.894775390625 77.01019287109375 135.742431640625 77.8363037109375 128.7205810546875 79.075439453125 122.9378662109375 80.72763061523438 118.39431762695313 83.20599365234375 114.26382446289063 84.858154296875 112.19857788085938 95.18441772460938 103.1114501953125 105.92376708984376 96.50267028808594 112.945556640625 92.7852020263672 134.01116943359375 84.937255859375 146.40264892578125 82.87199401855469 151.7723388671875 83.28504943847656 162.9246826171875 89.89385986328125 170.35955810546875 108.8941650390625 172.4248046875 125.8292236328125 169.12042236328125 164.24290466308594 164.163818359375 172.91696166992188 158.381103515625 173.7430419921875 155.07672119140625 172.09085083007813 155.07672119140625 172.09085083007813 " />
        <polyline stroke="black" stroke-width="3" stroke-linecap="round" fill="transparent" stroke-linejoin="round" points="137.72860717773438 39.08866882324219 135.663330078125 57.26287841796875 134.42416381835938 68.00218200683594 129.880615234375 110.54637145996094 128.6414794921875 119.22042846679688 124.92404174804688 136.5685272216797 123.68490600585938 141.52513122558594 123.68490600585938 141.52513122558594 " />
        <polyline stroke="black" stroke-width="3" stroke-linecap="round" fill="transparent" stroke-linejoin="round" points="91.05392456054688 166.72119140625 88.16256713867188 179.5257568359375 86.92343139648438 196.04779052734375 86.51034545898438 202.2435302734375 85.68426513671875 211.33062744140625 85.27120971679688 215.46112060546875 85.27120971679688 215.048095703125 85.27120971679688 214.22198486328125 86.92343139648438 210.09149169921875 95.59747314453124 198.52606201171875 105.92376708984376 188.1998291015625 119.14132690429688 178.69964599609375 124.92404174804688 174.98220825195313 139.38079833984375 170.02560424804688 145.5765380859375 170.4386444091797 148.05487060546875 173.3300018310547 148.05487060546875 177.04745483398438 134.42416381835938 199.3521728515625 119.14132690429688 210.9175720214844 110.88031005859376 215.46112060546875 93.94525146484376 221.24383544921875 90.640869140625 221.24383544921875 90.227783203125 220.83078002929688 96.010498046875 218.7655334472656 112.945556640625 215.46112060546875 122.03268432617188 214.22198486328125 146.40264892578125 215.048095703125 155.07672119140625 217.5263671875 155.07672119140625 217.5263671875 " />
        </svg>