<?xml version="1.0" standalone="no"?>
    <svg width="256" height="256" xmlns="http://www.w3.org/2000/svg" version="1.1">
    <polyline stroke="black" stroke-width="3" stroke-linecap="round" fill="transparent" stroke-linejoin="round" points="46.03985595703125 75.96173095703125 55.84375 95.5240478515625 58.77301025390625 104.182861328125 64.74139404296875 119.65432739257813 67.83724975585938 130.61184692382813 68.400390625 133.1731414794922 69.57659912109375 135.0754852294922 69.72763061523438 135.31973266601563 " />
        <polyline stroke="black" stroke-width="3" stroke-linecap="round" fill="transparent" stroke-linejoin="round" points="81.38104248046875 88.21333312988281 105.00225830078124 79.30815124511719 128.2626953125 72.40943908691406 139.68487548828125 69.36068725585938 161.2518310546875 65.98966979980469 170.9176025390625 66.60330200195313 187.2193603515625 71.58308410644531 195.042724609375 77.34236145019531 195.8416748046875 79.64108276367188 195.3428955078125 80.99333190917969 194.0347900390625 85.84744262695313 189.88116455078125 98.84686279296876 185.52490234375 107.64459228515624 174.7100830078125 125.54290771484376 167.256103515625 133.9718017578125 157.6365966796875 142.79173278808594 157.41046142578125 141.44371032714844 " />
        <polyline stroke="black" stroke-width="3" stroke-linecap="round" fill="transparent" stroke-linejoin="round" points="119.07830810546876 35.43717956542969 123.31219482421876 59.915924072265625 124.0244140625 73.0279541015625 123.349365234375 99.97381591796876 122.02630615234376 111.5381317138672 118.01010131835938 129.78506469726563 116.32638549804688 135.23541259765625 116.157958984375 135.78045654296875 " />
        <polyline stroke="black" stroke-width="3" stroke-linecap="round" fill="transparent" stroke-linejoin="round" points="82.794677734375 159.83811950683594 88.06103515625 180.71881103515625 90.17181396484376 191.91213989257813 92.0654296875 203.83404541015625 94.08795166015624 222.3296813964844 94.41339111328124 227.43215942382813 94.47344970703124 232.24658203125 94.2567138671875 232.6651611328125 94.2047119140625 232.765625 94.18539428710938 232.80291748046875 " />
        <polyline stroke="black" stroke-width="3" stroke-linecap="round" fill="transparent" stroke-linejoin="round" points="96.45993041992188 158.89569091796875 116.031494140625 146.88394165039063 123.42794799804688 144.0094451904297 139.55746459960938 140.25897216796875 146.1192626953125 140.34686279296875 154.5067138671875 144.36953735351563 156.62884521484375 147.05296325683594 157.5633544921875 155.94151306152344 156.6546630859375 174.37454223632813 154.62744140625 184.4559326171875 147.9814453125 204.80999755859375 143.77621459960938 213.49343872070313 136.01608276367188 230.385986328125 137.33847045898438 227.9911193847656 " />
        <polyline stroke="black" stroke-width="3" stroke-linecap="round" fill="transparent" stroke-linejoin="round" points="99.7584228515625 224.86590576171875 122.60458374023438 220.34683227539065 130.903564453125 218.65121459960935 147.78155517578125 216.64910888671875 158.35980224609375 216.34393310546875 158.7525634765625 216.19598388671875 158.82244873046875 216.16964721679688 " />
        </svg>