<?xml version="1.0" standalone="no"?>
    <svg width="256" height="256" xmlns="http://www.w3.org/2000/svg" version="1.1">
    <polyline stroke="black" stroke-width="3" stroke-linecap="round" fill="transparent" stroke-linejoin="round" points="89.876953125 59.443756103515625 98.276611328125 75.35885620117188 103.13958740234376 83.75849914550781 105.3499755859375 87.29518127441406 109.77084350585938 93.48439025878906 111.98129272460938 96.13690185546876 111.98129272460938 96.13690185546876 " />
        <polyline stroke="black" stroke-width="3" stroke-linecap="round" fill="transparent" stroke-linejoin="round" points="169.4525146484375 48.83367919921875 148.23236083984375 81.54806518554688 137.62228393554688 96.13690185546876 104.023681640625 138.13510131835938 79.708984375 162.00775146484375 68.2147216796875 169.96531677246094 63.79388427734375 172.17575073242188 63.79388427734375 172.17575073242188 " />
        <polyline stroke="black" stroke-width="3" stroke-linecap="round" fill="transparent" stroke-linejoin="round" points="76.61434936523438 108.9573974609375 100.044921875 114.26243591308594 116.40216064453124 120.0095672607422 147.79025268554688 134.15634155273438 156.63201904296875 139.019287109375 159.7265625 140.78762817382813 159.7265625 140.78762817382813 " />
        <polyline stroke="black" stroke-width="3" stroke-linecap="round" fill="transparent" stroke-linejoin="round" points="48.32086181640625 139.019287109375 41.689544677734375 154.49229431152344 39.921234130859375 161.565673828125 39.03704833984375 169.52322387695313 38.594940185546875 184.112060546875 40.805389404296875 191.1854553222656 46.552490234375 195.6063232421875 60.257171630859375 200.02719116210935 78.82479858398438 200.911376953125 100.044921875 200.02719116210935 122.14926147460938 198.700927734375 142.48519897460938 194.72216796875 159.7265625 190.30126953125 173.87335205078125 183.66998291015625 173.87335205078125 183.66998291015625 " />
        <polyline stroke="black" stroke-width="3" stroke-linecap="round" fill="transparent" stroke-linejoin="round" points="172.10498046875 113.37828063964844 172.98919677734375 130.61962890625 173.4312744140625 138.13510131835938 174.3154296875 146.53472900390625 176.08380126953125 164.2181854248047 177.8521728515625 185.4383544921875 178.736328125 197.37466430664065 178.736328125 197.37466430664065 " />
        </svg>