<?xml version="1.0" standalone="no"?>
    <svg width="256" height="256" xmlns="http://www.w3.org/2000/svg" version="1.1">
    <polyline stroke="black" stroke-width="3" stroke-linecap="round" fill="transparent" stroke-linejoin="round" points="88.07391357421875 69.64698791503906 101.21221923828124 84.83811950683594 103.67562866210938 88.53326416015625 110.2447509765625 99.61868286132813 114.3504638671875 105.77725219726563 116.4033203125 107.41952514648438 116.4033203125 107.41952514648438 " />
        <polyline stroke="black" stroke-width="3" stroke-linecap="round" fill="transparent" stroke-linejoin="round" points="170.59869384765625 49.93959045410156 167.31414794921875 61.024993896484375 161.15557861328125 76.21612548828125 150.89129638671875 97.97639465332033 136.52133178710938 122.6106414794922 120.91961669921876 147.65548706054688 106.54962158203124 166.9523162841797 99.98046875 175.98486328125 90.12680053710938 187.0703125 83.14706420898438 193.2288818359375 83.14706420898438 193.2288818359375 " />
        <polyline stroke="black" stroke-width="3" stroke-linecap="round" fill="transparent" stroke-linejoin="round" points="74.93563842773438 109.8829345703125 94.64306640625 116.8626708984375 102.8544921875 120.55780029296876 121.74072265625 129.17979431152344 148.01727294921875 142.72862243652344 155.4075927734375 146.83433532714844 168.13525390625 153.40347290039063 179.220703125 157.91973876953125 179.220703125 157.91973876953125 " />
        <polyline stroke="black" stroke-width="3" stroke-linecap="round" fill="transparent" stroke-linejoin="round" points="50.3013916015625 100.02923583984376 53.175384521484375 116.04150390625 53.5859375 123.84237670898438 53.5859375 140.26519775390625 54.4071044921875 155.86691284179688 54.81768798828125 168.59458923339844 56.4599609375 182.55401611328125 58.92340087890625 193.63943481445313 60.565673828125 198.97686767578125 67.13482666015625 212.52569580078125 72.0616455078125 218.68426513671875 81.09420776367188 223.61111450195313 95.874755859375 225.6639709472656 113.93988037109376 223.61111450195313 132.826171875 219.0948486328125 150.89129638671875 214.16796875 166.4930419921875 210.062255859375 179.63128662109375 205.95654296875 189.8955078125 203.08258056640625 198.10693359375 200.20855712890625 204.2655029296875 197.74514770507813 209.60296630859375 192.81829833984375 209.60296630859375 192.81829833984375 " />
        <polyline stroke="black" stroke-width="3" stroke-linecap="round" fill="transparent" stroke-linejoin="round" points="209.1923828125 96.3341064453125 210.0135498046875 112.75694274902344 210.83465576171875 127.53750610351563 211.65576171875 143.54977416992188 212.06634521484375 150.94004821777344 212.06634521484375 165.72061157226563 210.83465576171875 186.2491455078125 210.0135498046875 191.99713134765625 207.96063232421875 202.6719970703125 207.96063232421875 202.6719970703125 " />
        </svg>