<?xml version="1.0" standalone="no"?>
    <svg width="256" height="256" xmlns="http://www.w3.org/2000/svg" version="1.1">
    <polyline stroke="black" stroke-width="3" stroke-linecap="round" fill="transparent" stroke-linejoin="round" points="93 79 99 88 108 96 118 106 129 116 129 116 " />
        <polyline stroke="black" stroke-width="3" stroke-linecap="round" fill="transparent" stroke-linejoin="round" points="170 61 156 81 144 105 129 133 114 160 99 183 86 199 81 204 81 204 " />
        <polyline stroke="black" stroke-width="3" stroke-linecap="round" fill="transparent" stroke-linejoin="round" points="93 143 103 149 109 153 120 164 133 174 143 181 146 185 146 185 " />
        <polyline stroke="black" stroke-width="3" stroke-linecap="round" fill="transparent" stroke-linejoin="round" points="33 149 34 156 34 166 36 188 41 209 45 222 46 227 48 228 54 229 66 229 90 228 117 224 144 221 163 219 178 218 184 215 184 215 " />
        <polyline stroke="black" stroke-width="3" stroke-linecap="round" fill="transparent" stroke-linejoin="round" points="197 136 195 158 190 180 187 204 186 225 186 234 186 234 " />
        </svg>