<?xml version="1.0" standalone="no"?>
    <svg width="256" height="256" xmlns="http://www.w3.org/2000/svg" version="1.1">
    <polyline stroke="black" stroke-width="3" stroke-linecap="round" fill="transparent" stroke-linejoin="round" points="85.89974975585938 78.40821838378906 93.795166015625 76.03958129882813 102.48016357421876 73.67095947265625 135.64105224609375 68.53890991210938 156.56396484375 66.56504821777344 177.8817138671875 64.1964111328125 184.5927734375 63.40687561035156 186.566650390625 63.01210021972656 186.566650390625 63.01210021972656 " />
        <polyline stroke="black" stroke-width="3" stroke-linecap="round" fill="transparent" stroke-linejoin="round" points="104.05926513671876 96.1729736328125 93.795166015625 121.83316040039063 88.26837158203125 137.62405395507813 82.74154663085938 152.62539672851563 73.66180419921875 178.68035888671875 70.50363159179688 188.9444580078125 67.34542846679688 204.73532104492188 67.34542846679688 214.2098693847656 70.89837646484375 219.7366943359375 80.3729248046875 224.07916259765625 98.92721557617188 226.44781494140625 109.5860595703125 226.44781494140625 130.50900268554688 225.65826416015625 156.169189453125 223.28961181640625 169.9862060546875 220.9209899902344 181.829345703125 218.1575927734375 186.566650390625 216.5784912109375 194.85687255859375 213.81509399414065 196.43597412109375 213.4203186035156 196.43597412109375 213.4203186035156 " />
        </svg>