<?xml version="1.0" standalone="no"?>
    <svg width="256" height="256" xmlns="http://www.w3.org/2000/svg" version="1.1">
    <polyline stroke="black" stroke-width="3" stroke-linecap="round" fill="transparent" stroke-linejoin="round" points="74.23388671875 67.91844177246094 73.71966552734375 81.28756713867188 71.66290283203125 128.5937042236328 68.06350708007813 153.78936767578125 64.464111328125 183.09860229492188 62.921539306640625 195.95355224609375 63.43572998046875 206.23748779296875 63.43572998046875 209.83688354492188 63.43572998046875 209.83688354492188 " />
        <polyline stroke="black" stroke-width="3" stroke-linecap="round" fill="transparent" stroke-linejoin="round" points="86.5745849609375 89.51472473144531 96.3443603515625 81.28756713867188 108.68508911132813 73.06040954589844 124.62518310546876 65.86164855957031 139.022705078125 61.23387145996094 151.36346435546875 60.205474853515625 160.10479736328125 61.74806213378906 166.275146484375 65.86164855957031 172.445556640625 77.68818664550781 177.07330322265625 100.82705688476563 179.130126953125 120.88075256347656 180.6727294921875 138.3634490966797 181.1868896484375 153.78936767578125 179.130126953125 169.7294921875 170.38873291015625 192.35415649414065 163.7042236328125 204.69488525390625 163.7042236328125 204.69488525390625 " />
        <polyline stroke="black" stroke-width="3" stroke-linecap="round" fill="transparent" stroke-linejoin="round" points="94.8017578125 139.391845703125 98.91534423828124 129.62210083007813 105.59991455078124 122.9375457763672 114.85546875 115.22457885742188 126.16778564453124 109.05421447753906 135.42333984375 105.96902465820313 140.5653076171875 105.96902465820313 141.07952880859375 113.68199157714844 135.93756103515625 126.02272033691406 126.16778564453124 137.33506774902344 115.36962890625 145.5622100830078 109.19927978515624 149.16159057617188 105.59991455078124 150.70419311523438 103.54312133789063 151.7325897216797 106.11410522460938 151.7325897216797 112.79864501953124 148.64739990234375 129.76715087890625 140.4202423095703 141.07952880859375 133.73568725585938 147.2498779296875 129.10791015625 152.391845703125 121.90914916992188 153.42022705078125 111.11100769042967 149.30667114257813 102.36964416503906 146.22149658203125 96.19927978515624 143.13629150390625 92.08570861816406 140.5653076171875 89.51472473144531 138.508544921875 89.00051879882813 136.45172119140625 90.02891540527344 134.90914916992188 93.6282958984375 133.36654663085938 106.48323059082033 132.33816528320313 129.62210083007813 130.79556274414063 149.16159057617188 125.65359497070313 166.64430236816406 121.5400390625 177.95664978027344 121.5400390625 177.95664978027344 " />
        <polyline stroke="black" stroke-width="3" stroke-linecap="round" fill="transparent" stroke-linejoin="round" points="69.6060791015625 203.66650390625 80.91845703125 206.23748779296875 102.00051879882813 203.66650390625 125.65359497070313 198.0103454589844 142.62210083007813 194.92514038085935 157.0196533203125 193.382568359375 167.3035888671875 193.382568359375 172.445556640625 194.92514038085935 176.55914306640625 199.03872680664065 176.55914306640625 199.03872680664065 " />
        </svg>