<?xml version="1.0" standalone="no"?>
    <svg width="256" height="256" xmlns="http://www.w3.org/2000/svg" version="1.1">
    <polyline stroke="black" stroke-width="3" stroke-linecap="round" fill="transparent" stroke-linejoin="round" points="82.361328125 78.34034729003906 83.91659545898438 84.56132507324219 85.47186279296875 91.30072021484376 87.027099609375 96.48486328125 90.65597534179688 102.18743896484376 97.39535522460938 105.29791259765624 112.42941284179688 101.15060424804688 112.42941284179688 101.15060424804688 " />
        <polyline stroke="black" stroke-width="3" stroke-linecap="round" fill="transparent" stroke-linejoin="round" points="158.568359375 68.49046325683594 144.052734375 80.41400146484375 126.94503784179688 93.89279174804688 110.35577392578124 105.81634521484376 82.87973022460938 123.96086120605467 72.511474609375 130.18185424804688 64.216796875 134.8475799560547 53.330078125 140.03173828125 49.701171875 141.58697509765625 49.18280029296875 141.06857299804688 56.958984375 138.47650146484375 65.77206420898438 135.3660125732422 100.505859375 123.44244384765624 122.279296875 117.22146606445313 132.129150390625 115.14781188964844 147.681640625 112.03732299804688 159.0867919921875 108.92681884765624 162.7156982421875 107.37158203125 162.7156982421875 107.37158203125 " />
        <polyline stroke="black" stroke-width="3" stroke-linecap="round" fill="transparent" stroke-linejoin="round" points="122.79769897460938 64.3431396484375 114.5030517578125 79.89559936523438 81.84295654296875 140.55014038085938 65.77206420898438 171.1366424560547 60.06951904296875 182.541748046875 50.738037109375 200.1678771972656 45.55389404296875 210.01776123046875 45.55389404296875 210.01776123046875 " />
        <polyline stroke="black" stroke-width="3" stroke-linecap="round" fill="transparent" stroke-linejoin="round" points="105.69003295898438 146.2527313232422 113.46624755859376 151.95526123046875 136.794921875 169.06297302246094 147.681640625 177.8760223388672 151.8289794921875 182.0233612060547 151.8289794921875 182.0233612060547 " />
        <polyline stroke="black" stroke-width="3" stroke-linecap="round" fill="transparent" stroke-linejoin="round" points="101.54269409179688 197.057373046875 111.392578125 204.8336181640625 116.05831909179688 209.49932861328125 121.7608642578125 216.75714111328125 121.7608642578125 216.75714111328125 " />
        </svg>