<?xml version="1.0" standalone="no"?>
    <svg width="256" height="256" xmlns="http://www.w3.org/2000/svg" version="1.1">
    <polyline stroke="black" stroke-width="3" stroke-linecap="round" fill="transparent" stroke-linejoin="round" points="82.59585571289063 76.60365295410156 85.06570434570313 77.83857727050781 104.41299438476563 81.54336547851563 104.41299438476563 81.54336547851563 " />
        <polyline stroke="black" stroke-width="3" stroke-linecap="round" fill="transparent" stroke-linejoin="round" points="146.8123779296875 65.48924255371094 136.93289184570313 83.18997192382813 130.34661865234375 93.48106384277344 130.34661865234375 93.48106384277344 " />
        <polyline stroke="black" stroke-width="3" stroke-linecap="round" fill="transparent" stroke-linejoin="round" points="109.76437377929688 105.83041381835938 127.876708984375 99.2440948486328 138.99111938476563 94.30436706542967 142.28427124023438 92.65779113769533 142.28427124023438 92.65779113769533 " />
        <polyline stroke="black" stroke-width="3" stroke-linecap="round" fill="transparent" stroke-linejoin="round" points="113.05752563476563 58.90293884277344 109.35272216796876 82.7783203125 105.23626708984376 109.94685363769533 100.70822143554688 131.76400756835938 92.886962890625 153.1695098876953 83.41915893554688 172.928466796875 76.42117309570313 185.27780151367188 66.95333862304688 200.9202880859375 66.95333862304688 200.9202880859375 " />
        <polyline stroke="black" stroke-width="3" stroke-linecap="round" fill="transparent" stroke-linejoin="round" points="125.81851196289063 132.17564392089844 148.458984375 146.1715545654297 172.33428955078125 161.81405639648438 197.85626220703125 177.86819458007813 215.9686279296875 186.92437744140625 229.1412353515625 191.04080200195313 235.7275390625 191.04080200195313 235.7275390625 191.04080200195313 " />
        <polyline stroke="black" stroke-width="3" stroke-linecap="round" fill="transparent" stroke-linejoin="round" points="124.9952392578125 165.10720825195313 137.34454345703125 177.04489135742188 147.2239990234375 186.5126953125 147.2239990234375 186.5126953125 " />
        </svg>