<?xml version="1.0" standalone="no"?>
    <svg width="256" height="256" xmlns="http://www.w3.org/2000/svg" version="1.1">
    <polyline stroke="black" stroke-width="3" stroke-linecap="round" fill="transparent" stroke-linejoin="round" points="100.25 107.5 105.25 112.5 109 115 112.75 113.75 114 111.25 115.25 106.25 115.25 106.25 " />
        <polyline stroke="black" stroke-width="3" stroke-linecap="round" fill="transparent" stroke-linejoin="round" points="184 41.25 185.25 41.25 186.5 41.25 186.5 42.5 187.75 42.5 182.75 52.5 175.25 65 156.5 90 132.75 116.25 110.25 135 101.5 143.75 101.5 143.75 " />
        <polyline stroke="black" stroke-width="3" stroke-linecap="round" fill="transparent" stroke-linejoin="round" points="66.5 153.75 84 143.75 120.25 125 149 107.5 157.75 101.25 175.25 93.75 185.25 90 189 90 190.25 88.75 191.5 88.75 187.75 87.5 180.25 85 180.25 85 " />
        <polyline stroke="black" stroke-width="3" stroke-linecap="round" fill="transparent" stroke-linejoin="round" points="136.5 41.25 137.75 46.25 135.25 65 131.5 95 127.75 111.25 115.25 143.75 101.5 173.75 87.75 200 71.5 220 66.5 226.25 55.25 241.25 41.5 251.25 31.5 253.75 25.25 253.75 25.25 253.75 " />
        <polyline stroke="black" stroke-width="3" stroke-linecap="round" fill="transparent" stroke-linejoin="round" points="179 142.5 190.25 151.25 206.5 160 231.5 180 252.75 191.25 266.5 201.25 274 206.25 286.5 213.75 291.5 217.5 292.75 217.5 292.75 218.75 292.75 218.75 " />
        <polyline stroke="black" stroke-width="3" stroke-linecap="round" fill="transparent" stroke-linejoin="round" points="150.25 180 160.25 187.5 165.25 190 167.75 191.25 171.5 192.5 175.25 193.75 176.5 195 176.5 195 " />
        </svg>