<?xml version="1.0" standalone="no"?>
    <svg width="256" height="256" xmlns="http://www.w3.org/2000/svg" version="1.1">
    <polyline stroke="black" stroke-width="3" stroke-linecap="round" fill="transparent" stroke-linejoin="round" points="50.15716552734375 106.26170349121094 74.34197998046875 101.68620300292967 77.6102294921875 101.68620300292967 100.48773193359376 97.76432800292967 105.063232421875 95.80340576171876 112.90692138671876 89.92060852050781 114.86785888671876 84.03782653808594 114.86785888671876 80.11595153808594 114.86785888671876 80.11595153808594 " />
        <polyline stroke="black" stroke-width="3" stroke-linecap="round" fill="transparent" stroke-linejoin="round" points="93.9512939453125 62.46760559082031 80.22479248046875 87.95968627929688 78.91748046875 93.18882751464844 69.11285400390625 135.67564392089844 67.80560302734375 141.55845642089844 63.23004150390625 161.82139587402344 61.26910400390625 170.3187713623047 56.693603515625 186.65985107421875 56.693603515625 187.3134765625 58.65460205078125 180.1234130859375 58.65460205078125 180.1234130859375 " />
        <polyline stroke="black" stroke-width="3" stroke-linecap="round" fill="transparent" stroke-linejoin="round" points="62.576416015625 142.86572265625 86.10760498046875 148.09487915039063 88.72210693359375 150.05581665039063 103.102294921875 160.5141143798828 107.6778564453125 161.16775512695313 117.48248291015624 157.89952087402344 120.0970458984375 155.9385986328125 120.0970458984375 155.9385986328125 " />
        <polyline stroke="black" stroke-width="3" stroke-linecap="round" fill="transparent" stroke-linejoin="round" points="116.1751708984375 89.92060852050781 135.13079833984375 80.11595153808594 137.745361328125 80.11595153808594 158.00836181640625 76.84774780273438 160.6229248046875 76.19410705566406 174.34942626953125 70.31130981445313 177.61761474609375 67.0430908203125 177.61761474609375 64.42852783203125 177.61761474609375 64.42852783203125 " />
        <polyline stroke="black" stroke-width="3" stroke-linecap="round" fill="transparent" stroke-linejoin="round" points="147.550048828125 69.00404357910156 136.4381103515625 86.65238952636719 135.78448486328125 88.61334228515625 135.78448486328125 95.1497802734375 136.4381103515625 98.41799926757813 138.3990478515625 101.03254699707033 143.628173828125 101.03254699707033 154.08648681640625 95.1497802734375 154.08648681640625 95.1497802734375 " />
        <polyline stroke="black" stroke-width="3" stroke-linecap="round" fill="transparent" stroke-linejoin="round" points="168.46661376953125 76.19410705566406 159.31561279296875 91.22789001464844 157.35467529296875 93.18882751464844 142.3209228515625 105.60806274414063 137.745361328125 108.8762664794922 130.55535888671875 112.7981414794922 122.71160888671876 116.71998596191406 120.75067138671876 118.0272979736328 120.75067138671876 118.0272979736328 124.67254638671876 117.37364196777344 133.16986083984375 115.41270446777344 144.93548583984375 112.7981414794922 159.31561279296875 107.56898498535156 176.31036376953125 102.33982849121094 184.154052734375 101.68620300292967 184.8077392578125 102.33982849121094 184.8077392578125 102.33982849121094 " />
        <polyline stroke="black" stroke-width="3" stroke-linecap="round" fill="transparent" stroke-linejoin="round" points="135.78448486328125 124.56373596191406 124.67254638671876 138.2902069091797 124.67254638671876 139.59751892089844 127.94073486328124 150.05581665039063 128.59442138671875 151.3630828857422 130.55535888671875 153.3240203857422 133.8236083984375 154.6313018798828 140.3599853515625 152.6703643798828 150.81829833984375 143.5193634033203 158.00836181640625 136.98294067382813 165.85205078125 131.10015869140625 170.42755126953125 129.1392059326172 174.34942626953125 132.4074249267578 177.61761474609375 137.6365966796875 180.8858642578125 144.82666015625 181.53948974609375 147.4412384033203 181.53948974609375 149.4021453857422 180.8858642578125 144.1730194091797 180.8858642578125 144.1730194091797 " />
        <polyline stroke="black" stroke-width="3" stroke-linecap="round" fill="transparent" stroke-linejoin="round" points="164.5447998046875 117.37364196777344 154.7401123046875 144.1730194091797 154.08648681640625 148.09487915039063 152.77923583984375 176.85520935058594 152.77923583984375 180.7770233154297 155.39373779296875 201.69363403320313 159.96923828125 213.45919799804688 159.96923828125 213.45919799804688 " />
        </svg>