<?xml version="1.0" standalone="no"?>
    <svg width="256" height="256" xmlns="http://www.w3.org/2000/svg" version="1.1">
    <polyline stroke="black" stroke-width="3" stroke-linecap="round" fill="transparent" stroke-linejoin="round" points="57 118 57 118 57 118 59 118 61 118 64 117 71 115 76 113 81 111 87 109 94 106 100 104 107 102 114 98 118 96 " />
        <polyline stroke="black" stroke-width="3" stroke-linecap="round" fill="transparent" stroke-linejoin="round" points="97 60 97 60 94 66 91 76 87 88 83 102 77 123 73 136 70 148 67 157 65 165 64 171 63 174 64 176 64 175 " />
        <polyline stroke="black" stroke-width="3" stroke-linecap="round" fill="transparent" stroke-linejoin="round" points="74 130 75 129 79 129 82 130 87 133 90 135 93 138 96 141 99 145 102 150 106 154 108 155 " />
        <polyline stroke="black" stroke-width="3" stroke-linecap="round" fill="transparent" stroke-linejoin="round" points="110 80 111 78 116 74 120 72 125 70 131 67 138 65 145 63 152 60 159 58 167 55 173 52 176 50 179 49 " />
        <polyline stroke="black" stroke-width="3" stroke-linecap="round" fill="transparent" stroke-linejoin="round" points="136 60 136 60 135 65 134 72 135 76 135 80 136 83 138 86 140 88 143 89 145 90 147 89 " />
        <polyline stroke="black" stroke-width="3" stroke-linecap="round" fill="transparent" stroke-linejoin="round" points="165 64 163 67 159 75 154 83 147 91 139 98 132 105 124 110 118 115 113 118 109 120 107 122 106 123 106 122 108 121 114 115 120 110 127 104 136 98 145 92 154 87 164 82 173 79 182 78 186 78 190 78 " />
        <polyline stroke="black" stroke-width="3" stroke-linecap="round" fill="transparent" stroke-linejoin="round" points="129 132 129 132 126 134 124 135 123 135 123 137 124 139 125 142 128 145 130 148 133 151 137 152 143 153 147 152 153 149 158 144 164 138 170 131 172 127 175 124 " />
        <polyline stroke="black" stroke-width="3" stroke-linecap="round" fill="transparent" stroke-linejoin="round" points="181 113 181 113 181 116 181 119 182 123 183 126 184 129 184 132 185 134 185 135 185 135 185 135 " />
        <polyline stroke="black" stroke-width="3" stroke-linecap="round" fill="transparent" stroke-linejoin="round" points="156 105 156 105 155 105 154 106 154 108 154 112 154 118 153 125 152 135 151 146 150 158 149 172 149 179 149 186 " />
        </svg>