<?xml version="1.0" standalone="no"?>
    <svg width="256" height="256" xmlns="http://www.w3.org/2000/svg" version="1.1">
    <polyline stroke="black" stroke-width="3" stroke-linecap="round" fill="transparent" stroke-linejoin="round" points="41.56463623046875 107.73387145996094 52.749481201171875 104.00558471679688 59.79180908203125 101.93431091308594 67.24835205078125 99.863037109375 83.81845092773438 95.72052001953124 97.48876953125 92.406494140625 107.84515380859376 89.09246826171875 115.30169677734376 85.36419677734375 119.85848999023438 81.22164916992188 119.85848999023438 81.22164916992188 " />
        <polyline stroke="black" stroke-width="3" stroke-linecap="round" fill="transparent" stroke-linejoin="round" points="73.87640380859375 60.509002685546875 70.56234741210938 75.422119140625 69.319580078125 84.94993591308594 67.66259765625 98.20602416992188 65.17709350585938 131.76052856445313 64.7628173828125 167.3862762451172 65.17709350585938 178.9853515625 65.59130859375 182.29937744140625 66.41986083984375 184.37066650390625 66.83407592773438 184.784912109375 66.83407592773438 184.784912109375 " />
        <polyline stroke="black" stroke-width="3" stroke-linecap="round" fill="transparent" stroke-linejoin="round" points="110.33065795898438 50.98118591308594 108.25936889648438 69.62257385253906 106.60238647460938 80.39315795898438 104.53109741210938 91.9922332763672 102.04559326171876 104.00558471679688 98.31732177734376 125.13249206542967 95.00326538085938 141.28836059570313 92.51776123046876 151.6446533203125 90.0322265625 158.272705078125 87.54672241210938 162.00100708007813 85.06121826171875 164.07225036621094 83.40423583984375 164.9007568359375 82.57568359375 165.72927856445313 82.98995971679688 165.72927856445313 84.64697265625 165.72927856445313 91.27499389648438 163.6580047607422 99.56005859375 159.9297332763672 110.33065795898438 154.54443359375 110.33065795898438 154.54443359375 " />
        <polyline stroke="black" stroke-width="3" stroke-linecap="round" fill="transparent" stroke-linejoin="round" points="118.201416015625 86.19268798828125 128.14352416992188 79.97889709472656 140.9853515625 73.76510620117188 161.2838134765625 64.65153503417969 173.71136474609375 59.26625061035156 181.9964599609375 55.5379638671875 184.89617919921875 54.29521179199219 186.96746826171875 53.052452087402344 186.96746826171875 53.052452087402344 " />
        <polyline stroke="black" stroke-width="3" stroke-linecap="round" fill="transparent" stroke-linejoin="round" points="162.1123046875 39.382102966308594 153.8272705078125 59.26625061035156 148.02767944335938 77.07913208007813 145.12789916992188 85.7784423828125 139.328369140625 102.7628173828125 136.84286499023438 109.39085388183594 131.04330444335938 124.303955078125 128.97201538085938 130.103515625 128.55780029296875 132.17477416992188 128.55780029296875 132.17477416992188 " />
        <polyline stroke="black" stroke-width="3" stroke-linecap="round" fill="transparent" stroke-linejoin="round" points="141.81390380859375 108.14810180664063 168.3260498046875 101.5200653076172 174.9541015625 100.69155883789063 192.76702880859375 99.863037109375 201.05206298828125 99.863037109375 201.05206298828125 99.863037109375 " />
        <polyline stroke="black" stroke-width="3" stroke-linecap="round" fill="transparent" stroke-linejoin="round" points="122.343994140625 169.04330444335938 135.60009765625 164.07225036621094 143.056640625 162.00100708007813 165.42626953125 154.95867919921875 179.0966796875 150.4019012451172 184.48193359375 148.74490356445313 196.0810546875 144.60235595703125 198.9808349609375 142.53111267089844 198.9808349609375 142.53111267089844 " />
        <polyline stroke="black" stroke-width="3" stroke-linecap="round" fill="transparent" stroke-linejoin="round" points="171.64007568359375 97.37753295898438 161.697998046875 118.09017944335938 153.8272705078125 140.87408447265625 142.64239501953125 171.52880859375 139.328369140625 180.22813415527344 133.94305419921875 194.72698974609375 131.87179565429688 200.11227416992188 127.31503295898438 208.81158447265625 127.31503295898438 208.81158447265625 " />
        <polyline stroke="black" stroke-width="3" stroke-linecap="round" fill="transparent" stroke-linejoin="round" points="152.58447265625 166.5577850341797 167.49755859375 169.45755004882813 173.71136474609375 171.52880859375 179.51092529296875 174.0143280029297 192.35272216796875 181.47088623046875 198.9808349609375 186.85617065429688 198.9808349609375 186.85617065429688 " />
        </svg>