<?xml version="1.0" standalone="no"?>
    <svg width="256" height="256" xmlns="http://www.w3.org/2000/svg" version="1.1">
    <polyline stroke="black" stroke-width="3" stroke-linecap="round" fill="transparent" stroke-linejoin="round" points="66.20050048828125 114.12896728515624 75.06561279296875 113.447021484375 83.93072509765625 112.76507568359376 101.3199462890625 111.7421875 109.50311279296876 111.40122985839844 116.66342163085938 111.06027221679688 127.57431030273438 109.35543823242188 131.66586303710938 107.99156188964844 131.66586303710938 107.99156188964844 " />
        <polyline stroke="black" stroke-width="3" stroke-linecap="round" fill="transparent" stroke-linejoin="round" points="83.58978271484375 51.7322998046875 80.52108764648438 61.96125793457031 77.452392578125 72.19021606445313 74.3836669921875 83.78302001953125 69.95114135742188 106.96867370605467 68.24630737304688 117.87956237792967 65.1776123046875 138.67845153808594 62.790863037109375 156.06768798828125 62.44989013671875 162.5460205078125 62.44989013671875 162.5460205078125 " />
        <polyline stroke="black" stroke-width="3" stroke-linecap="round" fill="transparent" stroke-linejoin="round" points="115.64050292968751 60.938354492187514 111.54891967773438 80.37338256835938 107.45733642578124 99.80841064453124 104.04769897460938 111.06027221679688 100.97900390625 121.97116088867188 94.15966796875 142.4290771484375 90.75 151.97610473632813 90.75 151.97610473632813 " />
        <polyline stroke="black" stroke-width="3" stroke-linecap="round" fill="transparent" stroke-linejoin="round" points="72.67889404296875 162.8870086669922 76.42950439453125 161.1821746826172 80.18011474609375 159.4773406982422 86.9993896484375 156.06768798828125 86.9993896484375 156.06768798828125 " />
        <polyline stroke="black" stroke-width="3" stroke-linecap="round" fill="transparent" stroke-linejoin="round" points="140.1900634765625 95.37585449218749 145.30450439453125 94.01199340820313 150.4189453125 92.64813232421876 156.8973388671875 91.28427124023438 163.7166748046875 89.92041015625 179.74200439453125 86.16978454589844 179.74200439453125 86.16978454589844 " />
        <polyline stroke="black" stroke-width="3" stroke-linecap="round" fill="transparent" stroke-linejoin="round" points="191.3348388671875 6.724845886230469 181.44683837890625 30.25145721435547 171.558837890625 53.77806854248047 166.78533935546875 67.07572937011719 158.6021728515625 91.28427124023438 151.44189453125 112.4241180419922 147.35028076171875 126.06272888183594 146.327392578125 131.17721557617188 146.327392578125 131.17721557617188 " />
        <polyline stroke="black" stroke-width="3" stroke-linecap="round" fill="transparent" stroke-linejoin="round" points="181.7877197265625 90.94331359863286 186.561279296875 92.64813232421876 191.3348388671875 94.35295104980467 202.586669921875 100.49034118652344 208.0421142578125 104.24095153808594 213.83856201171875 108.33255004882813 213.83856201171875 108.33255004882813 " />
        <polyline stroke="black" stroke-width="3" stroke-linecap="round" fill="transparent" stroke-linejoin="round" points="135.75750732421875 174.13885498046875 143.25872802734375 172.77499389648438 150.75994873046875 171.4111328125 167.12628173828125 169.36534118652344 175.99139404296875 168.68341064453125 192.69866943359375 166.97857666015625 206.3372802734375 164.9327850341797 214.52044677734375 162.5460205078125 218.612060546875 158.79541015625 218.612060546875 158.79541015625 " />
        <polyline stroke="black" stroke-width="3" stroke-linecap="round" fill="transparent" stroke-linejoin="round" points="188.26611328125 112.08314514160156 181.78778076171875 122.653076171875 175.3094482421875 133.22300720214844 169.17205810546875 144.8158416748047 146.327392578125 192.55099487304688 137.4622802734375 210.963134765625 134.73455810546875 216.4185791015625 134.73455810546875 216.4185791015625 " />
        <polyline stroke="black" stroke-width="3" stroke-linecap="round" fill="transparent" stroke-linejoin="round" points="163.716552734375 165.9556884765625 169.17205810546875 172.0930633544922 174.6275634765625 178.23043823242188 181.44683837890625 186.41363525390625 196.10833740234375 207.2125244140625 203.60955810546875 219.48724365234375 216.5662841796875 244.37774658203125 216.5662841796875 244.37774658203125 " />
        </svg>