<?xml version="1.0" standalone="no"?>
    <svg width="256" height="256" xmlns="http://www.w3.org/2000/svg" version="1.1">
    <polyline stroke="black" stroke-width="3" stroke-linecap="round" fill="transparent" stroke-linejoin="round" points="104.19989013671876 54.78611755371094 99.7298583984375 66.16436767578125 94.04074096679688 80.79351806640625 87.13253784179688 98.26725769042967 75.7542724609375 125.49375915527344 72.09701538085938 133.2147216796875 67.626953125 142.56112670898438 66.00152587890625 145.4056854248047 66.00152587890625 145.4056854248047 " />
        <polyline stroke="black" stroke-width="3" stroke-linecap="round" fill="transparent" stroke-linejoin="round" points="97.29168701171876 97.86090087890624 115.578125 87.29537963867188 136.70916748046875 79.16806030273438 157.433837890625 73.88531494140625 181.0030517578125 69.0089111328125 187.5048828125 67.78982543945313 187.5048828125 67.78982543945313 " />
        <polyline stroke="black" stroke-width="3" stroke-linecap="round" fill="transparent" stroke-linejoin="round" points="109.88900756835938 156.37754821777344 109.482666015625 160.8475799560547 109.07626342773438 164.91123962402344 108.669921875 171.4130859375 108.669921875 173.85128784179688 111.10812377929688 176.2894744873047 119.23544311523438 175.47674560546875 132.23910522460938 170.19400024414063 147.6810302734375 160.8475799560547 163.9356689453125 147.4375 170.03118896484375 140.93565368652344 180.5966796875 126.30648803710938 183.44122314453125 121.02374267578124 184.25396728515625 119.39828491210938 184.66033935546875 118.17918395996094 185.066650390625 123.05557250976563 185.066650390625 140.1229248046875 182.22210693359375 153.5330047607422 182.22210693359375 153.5330047607422 " />
        <polyline stroke="black" stroke-width="3" stroke-linecap="round" fill="transparent" stroke-linejoin="round" points="151.33837890625 105.17547607421876 150.52560424804688 117.366455078125 149.71286010742188 129.9637908935547 148.08740234375 145.4056854248047 140.366455078125 181.9786071777344 134.67733764648438 201.48416137695313 125.33090209960938 227.89794921875 118.42269897460938 241.71435546875 118.42269897460938 241.71435546875 " />
        </svg>