<?xml version="1.0" standalone="no"?>
    <svg width="256" height="256" xmlns="http://www.w3.org/2000/svg" version="1.1">
    <polyline stroke="black" stroke-width="3" stroke-linecap="round" fill="transparent" stroke-linejoin="round" points="87.91033935546875 67.36964416503906 86.66244506835938 76.933349609375 80.68646240234375 100.58700561523438 72.70504760742188 117.89974975585938 69.58261108398438 123.03971862792967 66.43878173828125 125.9609375 66.35275268554688 125.97744750976563 66.344482421875 125.9790496826172 66.34396362304688 125.9791259765625 74.88461303710938 120.84481811523438 84.944580078125 114.70726013183594 106.22283935546876 101.58390808105467 132.25228881835938 87.84214782714844 144.00009155273438 83.65106201171875 167.66033935546875 80.3983154296875 171.260009765625 81.08920288085938 176.23809814453125 82.57464599609375 177.72509765625 83.79103088378906 " />
        <polyline stroke="black" stroke-width="3" stroke-linecap="round" fill="transparent" stroke-linejoin="round" points="80.929443359375 139.00848388671875 81.10702514648438 142.82025146484375 81.56051635742188 144.49380493164063 83.59896850585938 147.81521606445313 85.1536865234375 149.2761688232422 91.75970458984376 152.49758911132813 104.66180419921876 153.304443359375 110.58114624023438 151.2644500732422 137.73947143554688 144.30813598632813 155.82855224609375 141.50759887695313 169.8646240234375 138.6804656982422 172.31268310546875 137.96173095703125 172.5574951171875 137.88987731933594 " />
        <polyline stroke="black" stroke-width="3" stroke-linecap="round" fill="transparent" stroke-linejoin="round" points="172.39447021484375 134.70150756835938 172.614990234375 148.62371826171875 172.548095703125 151.9853515625 " />
        <polyline stroke="black" stroke-width="3" stroke-linecap="round" fill="transparent" stroke-linejoin="round" points="136.0537109375 105.5196533203125 135.27670288085938 141.10533142089844 133.21453857421875 161.8203582763672 120.85784912109376 204.34906005859375 115.2978515625 222.2626037597656 112.12353515625 231.363525390625 " />
        </svg>