<?xml version="1.0" standalone="no"?>
    <svg width="256" height="256" xmlns="http://www.w3.org/2000/svg" version="1.1">
    <polyline stroke="black" stroke-width="3" stroke-linecap="round" fill="transparent" stroke-linejoin="round" points="98.15521240234376 48.61067962646485 94.43771362304688 57.28472900390625 89.8941650390625 68.43708801269531 72.13299560546875 103.95941162109376 65.11117553710938 116.76397705078124 60.98065185546875 122.5466766357422 59.328460693359375 124.19889831542967 59.74151611328125 123.37277221679688 66.35031127929688 115.52482604980467 83.69842529296875 100.24197387695313 107.24227905273438 84.13299560546875 120.04684448242188 77.52420043945313 157.6343994140625 63.89353942871094 175.3956298828125 59.34999084472656 185.30877685546875 57.697784423828125 188.20013427734375 57.697784423828125 191.09149169921875 58.523895263671875 191.09149169921875 58.523895263671875 " />
        <polyline stroke="black" stroke-width="3" stroke-linecap="round" fill="transparent" stroke-linejoin="round" points="96.50299072265624 137.00344848632813 94.024658203125 147.74273681640625 93.61163330078124 156.829833984375 94.85076904296876 163.02560424804688 96.916015625 165.91696166992188 105.177001953125 165.91696166992188 118.39462280273438 160.54730224609375 125.82955932617188 156.4167938232422 145.242919921875 140.30783081054688 152.2647705078125 131.22073364257813 164.24322509765625 113.45956420898438 167.547607421875 108.916015625 168.78680419921875 107.26382446289063 168.78680419921875 107.67686462402344 168.78680419921875 113.45956420898438 168.37371826171875 118.41616821289063 166.7215576171875 129.5685272216797 163.4171142578125 141.96002197265625 162.177978515625 144.43833923339844 160.9388427734375 146.09054565429688 160.9388427734375 146.09054565429688 " />
        <polyline stroke="black" stroke-width="3" stroke-linecap="round" fill="transparent" stroke-linejoin="round" points="148.54730224609375 89.91571044921875 144.41680908203125 102.30722045898438 132.43832397460938 144.85137939453125 124.17733764648438 174.17796325683594 108.068359375 221.26568603515625 99.807373046875 241.09210205078125 99.807373046875 241.09210205078125 " />
        </svg>