<?xml version="1.0" standalone="no"?>
    <svg width="256" height="256" xmlns="http://www.w3.org/2000/svg" version="1.1">
    <polyline stroke="black" stroke-width="3" stroke-linecap="round" fill="transparent" stroke-linejoin="round" points="96.524169921875 76.4864501953125 86.84027099609375 93.08741760253906 76.6951904296875 107.84384155273438 68.39471435546875 118.9111328125 50.41033935546875 139.662353515625 44.876678466796875 144.27374267578125 43.493255615234375 143.81259155273438 45.7989501953125 140.12350463867188 58.7108154296875 126.28936767578124 71.62274169921875 115.2220458984375 114.04736328125 88.47602844238281 126.959228515625 82.02009582519531 162.4669189453125 70.49165344238281 171.68963623046875 68.6470947265625 183.67919921875 65.88027954101563 183.67919921875 65.88027954101563 " />
        <polyline stroke="black" stroke-width="3" stroke-linecap="round" fill="transparent" stroke-linejoin="round" points="80.38427734375 141.96804809570313 79.92318725585938 148.4239959716797 80.38427734375 153.9576416015625 81.30661010742188 161.79698181152344 83.61227416992188 166.40835571289063 89.14593505859375 168.71405029296875 99.29098510742188 167.33062744140625 106.669189453125 164.56381225585938 121.42559814453124 157.1855926513672 136.1820068359375 146.1182861328125 140.79339599609375 141.96804809570313 140.79339599609375 141.96804809570313 " />
        <polyline stroke="black" stroke-width="3" stroke-linecap="round" fill="transparent" stroke-linejoin="round" points="171.68963623046875 136.89553833007813 171.228515625 141.04576110839844 168.92279052734375 149.34625244140625 168.92279052734375 149.34625244140625 " />
        <polyline stroke="black" stroke-width="3" stroke-linecap="round" fill="transparent" stroke-linejoin="round" points="129.72607421875 126.28936767578124 124.1923828125 146.1182861328125 119.119873046875 164.56381225585938 111.74169921875 194.9989013671875 109.43600463867188 206.988525390625 107.59149169921876 224.51174926757813 107.59149169921876 224.51174926757813 " />
        </svg>