<?xml version="1.0" standalone="no"?>
    <svg width="256" height="256" xmlns="http://www.w3.org/2000/svg" version="1.1">
    <polyline stroke="black" stroke-width="3" stroke-linecap="round" fill="transparent" stroke-linejoin="round" points="93.8619384765625 47.59294891357422 89.665283203125 54.3076171875 85.46859741210938 61.86161804199219 76.23593139648438 78.22860717773438 68.26229858398438 94.17593383789063 64.90496826171875 101.72991943359376 61.96728515625 108.44461059570313 61.96728515625 108.44461059570313 " />
        <polyline stroke="black" stroke-width="3" stroke-linecap="round" fill="transparent" stroke-linejoin="round" points="101.41595458984376 82.84494018554688 111.0682373046875 76.9696044921875 122.39926147460938 71.09426879882813 132.47125244140625 66.05828857421875 156.8118896484375 56.82562255859375 172.339599609375 51.36994934082031 180.73291015625 49.6912841796875 183.25091552734375 50.11095428466797 183.25091552734375 50.11095428466797 " />
        <polyline stroke="black" stroke-width="3" stroke-linecap="round" fill="transparent" stroke-linejoin="round" points="95.54061889648438 126.49026489257813 95.12094116210938 129.42791748046875 95.12094116210938 132.78526306152344 95.54061889648438 139.08026123046875 98.05859375 146.63424682617188 100.99627685546876 149.5718994140625 107.7109375 150.41123962402344 116.104248046875 148.3129119873047 127.01556396484376 142.43759155273438 138.7662353515625 131.52627563476563 142.543212890625 127.749267578125 142.543212890625 127.749267578125 " />
        <polyline stroke="black" stroke-width="3" stroke-linecap="round" fill="transparent" stroke-linejoin="round" points="164.36590576171875 114.31993103027344 163.10693359375 118.93626403808594 161.847900390625 123.13291931152344 160.16925048828125 129.8475799560547 159.3299560546875 131.9459228515625 156.8118896484375 134.4639129638672 154.29388427734375 134.4639129638672 153.034912109375 133.20492553710938 153.034912109375 133.20492553710938 " />
        <polyline stroke="black" stroke-width="3" stroke-linecap="round" fill="transparent" stroke-linejoin="round" points="132.47125244140625 102.98893737792967 129.5335693359375 115.99859619140624 121.97958374023438 144.95556640625 117.36325073242188 158.8045654296875 103.93392944335938 198.25323486328125 99.31759643554688 211.68255615234375 95.54061889648438 222.5938720703125 95.54061889648438 222.5938720703125 " />
        </svg>