<?xml version="1.0" standalone="no"?>
    <svg width="256" height="256" xmlns="http://www.w3.org/2000/svg" version="1.1">
    <polyline stroke="black" stroke-width="3" stroke-linecap="round" fill="transparent" stroke-linejoin="round" points="78.20660400390625 58.605682373046875 86.33477783203125 56.96394348144531 105.904052734375 53.70826721191406 129.27633666992188 52.624290466308594 140.66937255859375 52.59458923339844 160.2877197265625 53.20149230957031 169.498779296875 54.68788146972656 172.5399169921875 56.2330322265625 173.01708984375 58.0244140625 175.9307861328125 67.10319519042969 177.6900634765625 89.37539672851563 177.46923828125 102.29562377929688 174.5872802734375 125.733642578125 172.8758544921875 133.49905395507813 169.9859619140625 141.6151123046875 168.85882568359375 142.0231170654297 168.73675537109375 142.0673065185547 168.73504638671875 142.06796264648438 168.73406982421875 142.0682830810547 167.8778076171875 141.1533660888672 166.8975830078125 140.48348999023438 152.59765625 135.63916015625 142.26177978515625 132.55184936523438 126.25457763671876 128.37896728515625 119.568359375 126.38523864746094 " />
        <polyline stroke="black" stroke-width="3" stroke-linecap="round" fill="transparent" stroke-linejoin="round" points="93.46139526367188 108.84829711914063 94.21600341796876 123.78927612304688 95.04293823242188 160.65078735351563 94.74154663085938 177.77716064453125 92.25180053710938 214.15997314453125 91.70285034179688 220.5589599609375 " />
        </svg>