<?xml version="1.0" standalone="no"?>
    <svg width="256" height="256" xmlns="http://www.w3.org/2000/svg" version="1.1">
    <polyline stroke="black" stroke-width="3" stroke-linecap="round" fill="transparent" stroke-linejoin="round" points="61.130859375 106.878662109375 67.83160400390625 105.67320251464844 82.98809814453125 102.3367156982422 90.35629272460938 100.03654479980467 120.29559326171876 92.0133056640625 129.89984130859375 89.077880859375 137.59100341796875 86.388671875 148.56600952148438 83.04190063476563 169.443359375 82.25395202636719 171.09808349609375 83.14205932617188 171.2801513671875 83.23974609375 171.28173828125 83.24061584472656 172.8214111328125 90.95881652832033 174.41864013671875 106.76309204101563 173.925048828125 115.32682800292967 172.92523193359375 122.09002685546876 169.121826171875 129.9923553466797 166.89715576171875 131.98971557617188 162.6370849609375 136.0294189453125 144.73095703125 142.60009765625 138.50115966796875 143.33151245117188 127.20501708984376 141.92425537109375 115.40283203125 137.94110107421875 114.25738525390624 136.46014404296875 " />
        <polyline stroke="black" stroke-width="3" stroke-linecap="round" fill="transparent" stroke-linejoin="round" points="89.56097412109375 126.7263641357422 91.07528686523438 144.1832275390625 92.44833374023438 182.4722595214844 92.62826538085938 197.2745056152344 92.7764892578125 223.12579345703125 92.59600830078124 231.51956176757813 91.134765625 243.16604614257813 91.07391357421876 243.5899658203125 " />
        </svg>