<?xml version="1.0" standalone="no"?>
    <svg width="256" height="256" xmlns="http://www.w3.org/2000/svg" version="1.1">
    <polyline stroke="black" stroke-width="3" stroke-linecap="round" fill="transparent" stroke-linejoin="round" points="49 38 51 37 63 36 74 36 80 36 80 36 89 37 107 38 121 39 126 38 131 37 148 34 164 29 169 27 171 25 175 23 189 15 200 10 201 10 201 10 199 14 186 25 181 27 " />
        <polyline stroke="black" stroke-width="3" stroke-linecap="round" fill="transparent" stroke-linejoin="round" points="83 44 84 46 85 46 85 48 86 50 87 53 89 58 91 63 93 67 94 73 94 80 95 88 95 103 95 106 95 107 95 108 95 109 95 110 95 110 95 110 " />
        <polyline stroke="black" stroke-width="3" stroke-linecap="round" fill="transparent" stroke-linejoin="round" points="158 31 159 31 160 32 160 32 161 32 161 33 162 36 163 45 164 52 164 58 164 66 162 78 161 90 161 93 161 97 160 103 160 107 160 108 160 108 159 108 159 108 " />
        <polyline stroke="black" stroke-width="3" stroke-linecap="round" fill="transparent" stroke-linejoin="round" points="41 126 43 126 46 125 52 125 69 123 72 123 81 123 97 122 111 120 122 118 135 115 157 110 170 106 181 104 181 104 193 101 203 99 211 96 217 95 221 94 224 95 226 95 227 95 228 95 " />
        <polyline stroke="black" stroke-width="3" stroke-linecap="round" fill="transparent" stroke-linejoin="round" points="68 142 69 143 71 144 72 146 74 151 75 155 75 159 76 166 76 166 76 174 76 179 77 182 78 185 78 190 78 192 79 195 79 196 79 197 79 197 79 198 79 198 81 198 84 198 104 193 108 192 112 192 118 191 122 190 140 186 154 184 161 183 169 182 186 180 190 179 191 179 192 179 193 179 193 179 194 179 195 179 195 179 " />
        <polyline stroke="black" stroke-width="3" stroke-linecap="round" fill="transparent" stroke-linejoin="round" points="202 107 202 109 203 112 203 119 201 135 200 139 199 144 199 147 199 150 198 153 198 157 197 170 197 179 197 180 197 180 197 180 197 181 " />
        <polyline stroke="black" stroke-width="3" stroke-linecap="round" fill="transparent" stroke-linejoin="round" points="143 116 144 118 145 118 146 121 149 127 150 137 150 150 146 166 139 184 130 202 127 207 125 211 122 217 119 221 116 226 109 237 105 241 102 243 97 244 " />
        </svg>