<?xml version="1.0" standalone="no"?>
    <svg width="256" height="256" xmlns="http://www.w3.org/2000/svg" version="1.1">
    <polyline stroke="black" stroke-width="3" stroke-linecap="round" fill="transparent" stroke-linejoin="round" points="109.19927978515624 73.06040954589844 134.90914916992188 66.89004516601563 147.76406860351563 63.80485534667969 160.6190185546875 60.205474853515625 170.38873291015625 57.634490966796875 175.53076171875 56.60609436035156 177.07330322265625 56.60609436035156 177.07330322265625 56.60609436035156 " />
        <polyline stroke="black" stroke-width="3" stroke-linecap="round" fill="transparent" stroke-linejoin="round" points="107.14251708984376 93.11410522460938 99.42953491210938 103.39804077148438 96.85855102539063 112.139404296875 95.31597900390624 118.82395935058594 95.31597900390624 124.99432373046876 98.401123046875 129.10791015625 103.54312133789063 129.10791015625 112.79864501953124 122.9375457763672 112.79864501953124 122.9375457763672 " />
        <polyline stroke="black" stroke-width="3" stroke-linecap="round" fill="transparent" stroke-linejoin="round" points="160.10479736328125 68.43263244628906 155.47705078125 77.68818664550781 147.76406860351563 90.02891540527344 129.76715087890625 114.71038818359376 117.42645263671876 131.16468811035156 117.42645263671876 131.16468811035156 " />
        <polyline stroke="black" stroke-width="3" stroke-linecap="round" fill="transparent" stroke-linejoin="round" points="62.921539306640625 148.13320922851563 83.48944091796875 141.96282958984375 113.3128662109375 130.65049743652344 131.30975341796875 124.99432373046876 146.73568725585938 121.39494323730467 161.64739990234375 119.33816528320313 171.93133544921875 118.82395935058594 177.07330322265625 118.82395935058594 177.07330322265625 118.82395935058594 " />
        <polyline stroke="black" stroke-width="3" stroke-linecap="round" fill="transparent" stroke-linejoin="round" points="99.42953491210938 147.61900329589844 94.8017578125 160.47393798828125 93.2591552734375 169.7294921875 93.2591552734375 176.92825317382813 94.8017578125 181.5560302734375 98.91534423828124 183.09860229492188 107.14251708984376 180.013427734375 122.05419921875 170.7578887939453 135.93756103515625 160.98812866210938 145.707275390625 154.81776428222656 151.36346435546875 152.76097106933594 154.96282958984375 152.76097106933594 157.5338134765625 155.33197021484375 159.076416015625 160.47393798828125 160.10479736328125 166.13011169433594 160.10479736328125 170.7578887939453 159.076416015625 175.8998565673828 159.076416015625 175.8998565673828 " />
        <polyline stroke="black" stroke-width="3" stroke-linecap="round" fill="transparent" stroke-linejoin="round" points="129.25299072265625 133.73568725585938 123.5968017578125 145.5622100830078 117.42645263671876 174.35726928710938 114.34124755859376 192.35415649414065 110.74188232421876 210.35107421875 108.68508911132813 223.20599365234375 108.68508911132813 230.9189453125 108.68508911132813 230.9189453125 " />
        </svg>