<?xml version="1.0" standalone="no"?>
    <svg width="256" height="256" xmlns="http://www.w3.org/2000/svg" version="1.1">
    <polyline stroke="black" stroke-width="3" stroke-linecap="round" fill="transparent" stroke-linejoin="round" points="92.13958740234376 45.594940185546875 85.95037841796875 57.973358154296875 84.1820068359375 62.39422607421875 81.9715576171875 66.81509399414063 79.76116943359375 72.1201171875 73.57196044921875 84.49853515625 71.36151123046875 88.03523254394531 70.91940307617188 88.47732543945313 72.687744140625 87.15106201171875 77.99276733398438 84.49853515625 85.95037841796875 80.07768249511719 94.3499755859375 76.54098510742188 101.86544799804688 73.44638061523438 107.17050170898438 72.1201171875 110.26507568359376 72.56221008300781 111.14926147460938 75.65681457519531 106.7283935546875 96.43487548828124 90.37118530273438 134.8963623046875 74.898193359375 163.18988037109375 62.07769775390625 183.52586364746097 52.79388427734375 197.23052978515625 45.720458984375 204.7460021972656 43.51007080078125 206.51434326171875 43.51007080078125 206.51434326171875 " />
        <polyline stroke="black" stroke-width="3" stroke-linecap="round" fill="transparent" stroke-linejoin="round" points="84.62408447265625 106.60284423828124 91.25537109375 121.6337890625 93.90789794921876 128.26507568359375 97.444580078125 136.22264099121094 100.5391845703125 143.73809814453125 112.47552490234376 169.82119750976563 117.780517578125 176.8945770263672 122.201416015625 180.43125915527344 124.85394287109376 180.43125915527344 128.83270263671875 178.66290283203125 128.83270263671875 178.66290283203125 " />
        <polyline stroke="black" stroke-width="3" stroke-linecap="round" fill="transparent" stroke-linejoin="round" points="165.96795654296875 48.689544677734375 149.16867065429688 65.930908203125 139.00070190429688 79.63558959960938 129.71688842773438 92.45608520507813 121.75933837890624 104.8345184326172 107.17050170898438 127.822998046875 104.5179443359375 133.12803649902344 104.5179443359375 133.12803649902344 " />
        <polyline stroke="black" stroke-width="3" stroke-linecap="round" fill="transparent" stroke-linejoin="round" points="165.08380126953125 74.77264404296875 176.57806396484375 70.79386901855469 180.9989013671875 69.90969848632813 185.4197998046875 69.0255126953125 201.7769775390625 69.46760559082031 207.08197021484375 70.35177612304688 210.1766357421875 72.1201171875 210.1766357421875 72.1201171875 " />
        <polyline stroke="black" stroke-width="3" stroke-linecap="round" fill="transparent" stroke-linejoin="round" points="177.462158203125 101.29782104492188 173.4833984375 124.28630065917967 172.5992431640625 132.24386596679688 170.8309326171875 148.60105895996094 168.17840576171875 164.5161590576172 166.4100341796875 171.58953857421875 162.4312744140625 181.3154296875 159.336669921875 184.85211181640625 159.336669921875 184.85211181640625 " />
        <polyline stroke="black" stroke-width="3" stroke-linecap="round" fill="transparent" stroke-linejoin="round" points="132.81149291992188 115.0024871826172 144.747802734375 123.4021453857422 149.61077880859375 126.93882751464844 154.0316162109375 130.4755096435547 162.87335205078125 138.43307495117188 175.69384765625 150.369384765625 175.69384765625 150.369384765625 " />
        <polyline stroke="black" stroke-width="3" stroke-linecap="round" fill="transparent" stroke-linejoin="round" points="213.27117919921875 122.5179443359375 201.3348388671875 145.06436157226563 195.5877685546875 157.44277954101563 195.5877685546875 157.44277954101563 " />
        </svg>