<?xml version="1.0" standalone="no"?>
    <svg width="256" height="256" xmlns="http://www.w3.org/2000/svg" version="1.1">
    <polyline stroke="black" stroke-width="3" stroke-linecap="round" fill="transparent" stroke-linejoin="round" points="104 58 103 58 100 61 96 68 91 77 86 86 80 98 78 101 73 109 72 111 70 114 69 116 69 116 69 116 70 114 73 110 79 101 85 94 91 87 97 80 103 74 108 70 111 68 113 70 113 79 111 91 108 105 103 120 99 135 93 149 88 161 82 171 77 179 73 185 69 190 68 191 67 192 " />
        <polyline stroke="black" stroke-width="3" stroke-linecap="round" fill="transparent" stroke-linejoin="round" points="70 124 71 124 74 123 78 124 82 126 87 129 93 134 101 140 110 146 124 157 134 164 143 169 151 172 159 173 163 172 167 170 " />
        <polyline stroke="black" stroke-width="3" stroke-linecap="round" fill="transparent" stroke-linejoin="round" points="162 65 161 65 157 68 153 74 149 82 145 90 140 99 136 106 132 114 127 120 124 124 121 128 120 130 120 130 " />
        <polyline stroke="black" stroke-width="3" stroke-linecap="round" fill="transparent" stroke-linejoin="round" points="153 79 154 78 159 78 164 78 169 78 176 79 182 80 192 81 198 81 205 82 210 83 216 83 220 84 223 85 225 85 225 85 " />
        <polyline stroke="black" stroke-width="3" stroke-linecap="round" fill="transparent" stroke-linejoin="round" points="178 110 177 117 177 125 179 133 182 149 185 161 188 172 190 181 192 188 192 193 191 196 188 199 183 199 177 198 171 194 168 191 165 188 " />
        <polyline stroke="black" stroke-width="3" stroke-linecap="round" fill="transparent" stroke-linejoin="round" points="124 141 125 142 127 145 130 148 134 151 139 154 143 156 148 158 154 159 160 159 163 158 " />
        <polyline stroke="black" stroke-width="3" stroke-linecap="round" fill="transparent" stroke-linejoin="round" points="217 107 217 107 218 110 219 115 219 121 217 128 215 136 212 146 207 156 199 173 197 179 195 185 " />
        </svg>