<?xml version="1.0" standalone="no"?>
    <svg width="256" height="256" xmlns="http://www.w3.org/2000/svg" version="1.1">
    <polyline stroke="black" stroke-width="3" stroke-linecap="round" fill="transparent" stroke-linejoin="round" points="68.0333251953125 79.57443237304688 68.439697265625 99.89273071289063 68.8460693359375 111.67733764648438 68.8460693359375 134.02745056152344 67.22064208984375 152.31390380859375 64.37606811523438 163.692138671875 60.71875 171.0067138671875 59.906005859375 171.8194580078125 59.09332275390625 172.22581481933594 59.49969482421875 171.0067138671875 66.81427001953125 163.692138671875 76.973388671875 155.5648193359375 87.13253784179688 147.4375 96.07260131835938 138.49746704101563 107.857177734375 121.43009948730467 107.857177734375 121.43009948730467 " />
        <polyline stroke="black" stroke-width="3" stroke-linecap="round" fill="transparent" stroke-linejoin="round" points="118.82907104492188 62.50706481933594 116.390869140625 74.69804382324219 111.10812377929688 101.11181640625 104.60626220703124 124.274658203125 96.47894287109376 141.74839782714844 87.53890991210938 154.34573364257813 79.41159057617188 161.66030883789063 73.31610107421875 165.31761169433594 70.87789916992188 165.72396850585938 70.47152709960938 164.91123962402344 75.347900390625 162.06668090820313 85.91342163085938 157.19029235839844 98.91717529296876 150.68844604492188 108.2635498046875 144.5929412841797 108.2635498046875 144.5929412841797 " />
        <polyline stroke="black" stroke-width="3" stroke-linecap="round" fill="transparent" stroke-linejoin="round" points="147.274658203125 54.78611755371094 153.77655029296875 51.12882995605469 167.99932861328125 43.814239501953125 179.783935546875 37.71875 184.66033935546875 35.28056335449219 190.3494873046875 32.029632568359375 192.38128662109375 30.81053924560547 191.56854248046875 32.029632568359375 189.13037109375 35.28056335449219 178.97119140625 50.31609344482422 163.529296875 76.72987365722656 148.900146484375 106.80093383789063 137.11553955078125 136.05926513671875 127.76913452148438 160.8475799560547 121.26727294921876 177.1022186279297 117.60995483398438 185.63589477539065 116.390869140625 186.85498046875 117.20361328125 184.82318115234375 123.299072265625 175.07037353515625 134.27099609375 161.66030883789063 149.71286010742188 147.8438720703125 166.3739013671875 136.05926513671875 180.1903076171875 129.1510467529297 189.94305419921875 125.49375915527344 196.4449462890625 125.49375915527344 198.0704345703125 126.71286010742188 200.508544921875 148.250244140625 195.225830078125 171.4130859375 186.692138671875 188.8868408203125 177.75213623046875 199.85870361328125 165.967529296875 206.36053466796875 165.967529296875 206.36053466796875 " />
        </svg>