<?xml version="1.0" standalone="no"?>
    <svg width="256" height="256" xmlns="http://www.w3.org/2000/svg" version="1.1">
    <polyline stroke="black" stroke-width="3" stroke-linecap="round" fill="transparent" stroke-linejoin="round" points="55.25262451171875 89.22627258300781 57.350921630859375 126.99626159667967 57.770599365234375 140.84524536132813 57.770599365234375 163.5072479248047 57.350921630859375 178.615234375 55.67230224609375 187.42822265625 53.993621826171875 190.36590576171875 53.573944091796875 190.36590576171875 53.573944091796875 190.36590576171875 " />
        <polyline stroke="black" stroke-width="3" stroke-linecap="round" fill="transparent" stroke-linejoin="round" points="61.1279296875 137.4879150390625 72.87860107421875 130.35357666015625 78.33428955078125 127.41593933105467 94.28158569335938 118.60293579101563 103.93392944335938 111.46859741210938 103.93392944335938 111.46859741210938 " />
        <polyline stroke="black" stroke-width="3" stroke-linecap="round" fill="transparent" stroke-linejoin="round" points="107.291259765625 87.547607421875 106.0322265625 97.61959838867188 103.09457397460938 118.60293579101563 100.99627685546876 129.51425170898438 95.54061889648438 148.81890869140625 87.986572265625 165.18589782714844 79.59326171875 176.09722900390625 73.29827880859375 181.5529022216797 68.68197631835938 184.0708923339844 66.58358764648438 183.65122985839844 66.1639404296875 182.8118896484375 68.68197631835938 180.71356201171875 77.07528686523438 176.9365692138672 89.24560546875 172.73989868164063 102.2552490234375 167.28424072265625 108.96994018554688 163.5072479248047 116.104248046875 158.4712371826172 116.104248046875 158.4712371826172 " />
        <polyline stroke="black" stroke-width="3" stroke-linecap="round" fill="transparent" stroke-linejoin="round" points="157.6512451171875 61.108612060546875 165.20526123046875 58.59062194824219 174.8575439453125 55.65294647216797 179.8935546875 53.97428894042969 181.572265625 53.13494873046875 185.3492431640625 51.45628356933594 185.7689208984375 50.61695861816406 185.3492431640625 49.777618408203125 184.5098876953125 49.777618408203125 183.67059326171875 50.197288513183594 177.3756103515625 59.849609375 170.2412109375 74.95761108398438 162.687255859375 93.84260559082033 154.71356201171875 114.40625 150.51690673828125 125.73724365234376 143.382568359375 144.20257568359375 133.310546875 166.02523803710938 128.69427490234375 173.9989013671875 126.17623901367188 176.9365692138672 125.756591796875 176.9365692138672 125.756591796875 176.9365692138672 " />
        <polyline stroke="black" stroke-width="3" stroke-linecap="round" fill="transparent" stroke-linejoin="round" points="164.78558349609375 106.43260192871094 169.40191650390625 105.59326171875 172.339599609375 105.59326171875 181.572265625 109.78994750976563 189.126220703125 121.12094116210938 195.4212646484375 143.78292846679688 196.68023681640625 168.12356567382813 194.1622314453125 189.10690307617188 188.70654296875 202.95590209960935 182.83123779296875 211.3492431640625 174.01824951171875 215.5458984375 162.687255859375 215.126220703125 157.6512451171875 212.60821533203125 157.6512451171875 212.60821533203125 " />
        </svg>