<?xml version="1.0" standalone="no"?>
    <svg width="256" height="256" xmlns="http://www.w3.org/2000/svg" version="1.1">
    <polyline stroke="black" stroke-width="3" stroke-linecap="round" fill="transparent" stroke-linejoin="round" points="62.608154296875 107.62136840820313 57.47613525390625 129.72862243652344 53.923187255859375 149.8619842529297 50.764984130859375 165.6528778076172 47.6068115234375 181.8385467529297 47.6068115234375 181.8385467529297 50.3702392578125 175.91696166992188 55.897064208984375 162.88946533203125 60.23956298828125 152.62539672851563 63.397705078125 146.70379638671875 66.95065307617188 141.96653747558594 71.29315185546875 137.22927856445313 77.6094970703125 132.49200439453125 86.29452514648438 127.3599853515625 90.63702392578124 124.99136352539063 103.26971435546876 117.88543701171876 109.9808349609375 112.35862731933594 116.29721069335938 105.2527313232422 121.823974609375 95.7781982421875 124.982177734375 87.88275146484375 126.9560546875 83.14547729492188 127.350830078125 80.77685546875 126.9560546875 80.382080078125 125.376953125 81.96116638183594 119.45538330078124 95.38343811035156 114.71810913085938 107.2266082763672 98.13766479492188 139.597900390625 87.47882080078125 154.9940185546875 77.2147216796875 167.23196411132813 72.87225341796875 172.75877380371094 63.79248046875 181.4437713623047 61.029052734375 184.20718383789065 60.63427734375 184.9967041015625 61.423828125 184.9967041015625 66.95065307617188 182.62808227539065 79.9781494140625 176.31173706054688 95.76904296875 168.02151489257813 110.77035522460938 160.12606811523438 117.48153686523438 155.7835693359375 117.48153686523438 155.7835693359375 " />
        <polyline stroke="black" stroke-width="3" stroke-linecap="round" fill="transparent" stroke-linejoin="round" points="152.6162109375 72.88140869140625 162.88031005859375 68.53890991210938 173.9339599609375 64.1964111328125 184.5927734375 60.248687744140625 192.88299560546875 56.30096435546875 195.64642333984375 54.721885681152344 195.64642333984375 54.721885681152344 " />
        <polyline stroke="black" stroke-width="3" stroke-linecap="round" fill="transparent" stroke-linejoin="round" points="175.5130615234375 75.25003051757813 157.748291015625 100.91024780273438 136.43060302734375 139.203125 127.350830078125 157.75743103027344 114.32333374023438 183.41763305664065 106.42791748046876 203.94580078125 106.03314208984376 204.340576171875 106.03314208984376 204.340576171875 " />
        <polyline stroke="black" stroke-width="3" stroke-linecap="round" fill="transparent" stroke-linejoin="round" points="155.7744140625 134.0710906982422 160.906494140625 130.12338256835938 172.3548583984375 123.41226196289063 178.2764892578125 120.64884948730467 183.80322265625 118.67498779296876 198.80462646484375 117.49066162109376 205.5157470703125 119.85929870605467 210.25299072265625 124.5965576171875 212.226806640625 128.54429626464844 213.4111328125 147.88812255859375 211.43731689453125 154.5992431640625 198.01507568359375 173.94309997558594 183.80322265625 184.9967041015625 168.40716552734375 192.49737548828125 161.69598388671875 194.47125244140625 145.11557006835938 191.3130798339844 145.11557006835938 191.3130798339844 " />
        </svg>