<?xml version="1.0" standalone="no"?>
    <svg width="256" height="256" xmlns="http://www.w3.org/2000/svg" version="1.1">
    <polyline stroke="black" stroke-width="3" stroke-linecap="round" fill="transparent" stroke-linejoin="round" points="59.83734130859375 112.35292053222656 62.88232421875 122.09686279296876 63.4913330078125 126.35983276367188 63.4913330078125 128.7958221435547 65.31832885742188 128.7958221435547 68.36331176757813 123.92384338378906 75.062255859375 113.57090759277344 85.41522216796875 97.12800598144533 96.37713623046876 85.55706787109375 107.94805908203124 80.07609558105469 118.91000366210938 82.5120849609375 127.43597412109376 91.64703369140624 135.3529052734375 110.5259246826172 136.5709228515625 127.57781982421876 134.13491821289063 136.7127685546875 128.6539306640625 139.75775146484375 119.51901245117188 129.40481567382813 100.0311279296875 81.90309143066406 100.0311279296875 81.90309143066406 " />
        <polyline stroke="black" stroke-width="3" stroke-linecap="round" fill="transparent" stroke-linejoin="round" points="89.06918334960938 41.10032653808594 92.72314453125 124.5328369140625 91.50518798828124 167.16259765625 90.28717041015624 213.44631958007813 90.89617919921876 226.84423828125 92.11416625976563 234.76119995117188 96.98614501953124 231.10720825195313 96.98614501953124 231.10720825195313 " />
        <polyline stroke="black" stroke-width="3" stroke-linecap="round" fill="transparent" stroke-linejoin="round" points="134.13491821289063 66.67817687988281 143.87884521484375 63.63319396972656 156.66778564453125 59.979217529296875 172.501708984375 58.15223693847656 188.944580078125 61.80621337890625 202.342529296875 73.37713623046875 213.304443359375 98.3459930419922 214.5224609375 118.44287109375 209.04150390625 131.84080505371094 198.07952880859375 134.8857879638672 184.0726318359375 126.96882629394533 184.0726318359375 126.96882629394533 " />
        <polyline stroke="black" stroke-width="3" stroke-linecap="round" fill="transparent" stroke-linejoin="round" points="158.4947509765625 72.15914916992188 156.66778564453125 87.38406372070313 154.2318115234375 117.83387756347656 153.0137939453125 132.44979858398438 153.0137939453125 143.41172790527344 154.8408203125 149.50169372558594 160.32177734375 151.3286895751953 174.93768310546875 147.67471313476563 195.6435546875 142.19374084472656 211.47747802734375 142.802734375 220.6124267578125 150.71969604492188 227.3114013671875 173.2525634765625 225.484375 198.22140502929688 216.3494873046875 214.664306640625 198.68853759765625 225.62625122070313 163.97576904296875 226.84423828125 131.08993530273438 216.4913024902344 131.08993530273438 216.4913024902344 " />
        </svg>