<?xml version="1.0" standalone="no"?>
    <svg width="256" height="256" xmlns="http://www.w3.org/2000/svg" version="1.1">
    <polyline stroke="black" stroke-width="3" stroke-linecap="round" fill="transparent" stroke-linejoin="round" points="43.06292724609375 89.9173583984375 52.27490234375 84.24847412109375 61.48687744140625 78.57958984375 72.82464599609375 72.55641174316406 94.79150390625 62.28157043457031 118.52996826171876 53.06963348388672 144.39422607421875 42.79479217529297 163.17236328125 35.000083923339844 169.54986572265625 32.51995086669922 170.25848388671875 32.16564178466797 170.25848388671875 32.16564178466797 " />
        <polyline stroke="black" stroke-width="3" stroke-linecap="round" fill="transparent" stroke-linejoin="round" points="134.11932373046875 38.5431365966797 112.15243530273438 68.30474853515625 90.185546875 98.0663604736328 69.6358642578125 135.6226806640625 56.17230224609375 163.96707153320313 47.314666748046875 185.5796813964844 45.188812255859375 191.24856567382813 45.188812255859375 191.60284423828125 45.188812255859375 191.60284423828125 " />
        <polyline stroke="black" stroke-width="3" stroke-linecap="round" fill="transparent" stroke-linejoin="round" points="67.15576171874999 127.47366333007813 79.91073608398438 117.55313110351563 92.66571044921876 107.63259887695313 104.35775756835938 99.48358154296876 116.7584228515625 92.39749145507813 148.64584350585938 82.83125305175781 158.21209716796875 87.08291625976563 163.5267333984375 112.94717407226563 159.983642578125 154.75515747070313 158.56640625 184.87106323242188 162.4637451171875 203.64923095703125 170.61279296875 213.56979370117188 184.78497314453125 216.4042053222656 199.665771484375 208.6094970703125 215.2552490234375 181.68231201171875 221.6326904296875 147.66905212402344 216.67242431640625 132.43394470214844 216.67242431640625 132.43394470214844 " />
        </svg>