<?xml version="1.0" standalone="no"?>
    <svg width="256" height="256" xmlns="http://www.w3.org/2000/svg" version="1.1">
    <polyline stroke="black" stroke-width="3" stroke-linecap="round" fill="transparent" stroke-linejoin="round" points="71.62109375 78.24911499023438 85.01901245117188 72.15914916992188 104.50689697265624 64.2421875 125.82177734375 53.889251708984375 144.0916748046875 44.14530944824219 156.880615234375 37.44635009765625 162.361572265625 36.22835540771485 162.361572265625 36.22835540771485 " />
        <polyline stroke="black" stroke-width="3" stroke-linecap="round" fill="transparent" stroke-linejoin="round" points="101.4619140625 92.25602722167967 92.32696533203124 118.44287109375 85.01901245117188 142.802734375 79.53802490234375 162.29061889648438 74.05706787109375 180.56051635742188 68.57611083984375 196.3944091796875 63.09515380859375 212.22833251953125 63.09515380859375 212.22833251953125 " />
        <polyline stroke="black" stroke-width="3" stroke-linecap="round" fill="transparent" stroke-linejoin="round" points="77.7110595703125 148.28370666503906 86.84600830078125 142.802734375 97.19891357421876 136.10377502441406 109.37884521484376 129.40481567382813 120.94979858398438 124.5328369140625 130.08474731445313 122.7058563232422 136.17471313476563 125.141845703125 141.04669189453125 135.49478149414063 142.26467895507813 154.982666015625 141.65567016601563 174.47055053710938 142.26467895507813 189.69546508789065 145.30966186523438 198.22140502929688 149.5726318359375 204.92037963867188 155.66259765625 209.7923583984375 162.361572265625 212.83734130859375 169.060546875 212.83734130859375 175.1505126953125 209.183349609375 180.0224609375 203.702392578125 182.45843505859375 193.34945678710935 183.06744384765625 180.56051635742188 178.1954345703125 168.9895782470703 178.1954345703125 168.9895782470703 " />
        </svg>