<?xml version="1.0" standalone="no"?>
    <svg width="256" height="256" xmlns="http://www.w3.org/2000/svg" version="1.1">
    <polyline stroke="black" stroke-width="3" stroke-linecap="round" fill="transparent" stroke-linejoin="round" points="48 62 56 62 64 62 84 58 95 56 125 54 141 54 147 54 147 54 " />
        <polyline stroke="black" stroke-width="3" stroke-linecap="round" fill="transparent" stroke-linejoin="round" points="105 61 102 80 99 99 94 127 88 157 83 182 79 200 76 210 76 211 76 211 " />
        <polyline stroke="black" stroke-width="3" stroke-linecap="round" fill="transparent" stroke-linejoin="round" points="90 122 107 122 124 122 139 122 152 123 158 129 159 140 159 157 159 170 159 182 169 193 184 201 200 205 213 205 221 205 223 201 223 188 220 159 220 159 " />
        </svg>