<?xml version="1.0" standalone="no"?>
    <svg width="256" height="256" xmlns="http://www.w3.org/2000/svg" version="1.1">
    <polyline stroke="black" stroke-width="3" stroke-linecap="round" fill="transparent" stroke-linejoin="round" points="92.98675537109376 50.67491912841797 96.55160522460938 48.666046142578125 120.01007080078124 43.265594482421875 126.19345092773438 41.97105407714844 133.50875854492188 41.125640869140625 134.856201171875 41.14354705810547 134.896484375 41.138214111328125 134.90997314453125 41.13641357421875 125.47494506835938 44.412132263183594 123.46258544921876 45.08678436279297 " />
        <polyline stroke="black" stroke-width="3" stroke-linecap="round" fill="transparent" stroke-linejoin="round" points="93.48898315429688 75.91105651855469 97.9779052734375 73.39207458496094 124.6405029296875 65.45452880859375 129.189453125 64.51371765136719 149.18222045898438 62.69580078125 151.6070556640625 63.0198974609375 " />
        <polyline stroke="black" stroke-width="3" stroke-linecap="round" fill="transparent" stroke-linejoin="round" points="95.8238525390625 76.5745849609375 93.62310791015624 87.29225158691406 88.14910888671875 109.62713623046876 80.10589599609375 133.32376098632813 75.66439819335938 146.72850036621094 66.06390380859375 168.6934051513672 61.67620849609375 177.1747283935547 52.6171875 193.237060546875 47.1102294921875 202.076904296875 40.211273193359375 207.69073486328125 41.491058349609375 205.08758544921875 " />
        <polyline stroke="black" stroke-width="3" stroke-linecap="round" fill="transparent" stroke-linejoin="round" points="107.43478393554688 114.40780639648438 115.53070068359376 111.78515625 122.39974975585938 109.70986938476563 128.7994384765625 108.03971862792967 153.49273681640625 103.995361328125 164.13671875 102.7186279296875 166.19140625 102.43846130371094 172.44384765625 103.1488037109375 174.6016845703125 103.86224365234376 178.69232177734375 105.99209594726563 180.21441650390625 107.58097839355467 188.041015625 119.06109619140624 192.19720458984375 129.07766723632813 197.1666259765625 155.88357543945313 197.35418701171875 170.74404907226563 193.47216796875 196.03518676757813 186.98553466796875 209.45843505859375 183.70538330078125 215.57565307617188 180.8543701171875 219.427490234375 176.2513427734375 221.37533569335935 170.2347412109375 222.83413696289065 166.41851806640625 223.68109130859375 150.291259765625 224.0614013671875 148.05279541015625 222.72610473632813 149.43344116210938 221.91275024414065 " />
        <polyline stroke="black" stroke-width="3" stroke-linecap="round" fill="transparent" stroke-linejoin="round" points="104.82797241210938 126.74288940429688 104.15643310546876 138.7646484375 101.4991455078125 160.49241638183594 96.80572509765624 177.57098388671875 93.98382568359376 183.0992889404297 89.49154663085938 192.41409301757813 89.33810424804688 192.77008056640625 " />
        <polyline stroke="black" stroke-width="3" stroke-linecap="round" fill="transparent" stroke-linejoin="round" points="140.888427734375 129.05780029296875 140.23373413085938 130.33306884765625 139.87033081054688 135.69537353515625 137.62606811523438 155.96287536621094 135.52899169921875 167.26736450195313 127.42181396484376 196.52874755859375 104.92575073242188 229.74908447265625 103.88116455078124 230.19189453125 " />
        </svg>