<?xml version="1.0" standalone="no"?>
    <svg width="256" height="256" xmlns="http://www.w3.org/2000/svg" version="1.1">
    <polyline stroke="black" stroke-width="3" stroke-linecap="round" fill="transparent" stroke-linejoin="round" points="85.50497436523438 61.731048583984375 96.163818359375 57.7833251953125 108.00701904296876 53.835594177246094 118.66586303710938 51.07219696044922 137.61492919921875 47.519248962402344 145.11557006835938 46.334922790527344 156.169189453125 44.75584411621094 162.48553466796875 43.17675018310547 162.48553466796875 43.17675018310547 " />
        <polyline stroke="black" stroke-width="3" stroke-linecap="round" fill="transparent" stroke-linejoin="round" points="96.953369140625 79.89056396484375 88.26837158203125 100.8134765625 76.82000732421875 127.65802001953124 64.976806640625 156.47637939453125 54.712738037109375 181.74180603027344 47.2120361328125 198.32223510742188 42.47479248046875 206.61245727539065 41.29046630859375 209.3758544921875 41.29046630859375 209.3758544921875 " />
        <polyline stroke="black" stroke-width="3" stroke-linecap="round" fill="transparent" stroke-linejoin="round" points="102.08541870117188 127.65802001953124 128.140380859375 116.99917602539063 136.82537841796875 114.23574829101563 144.72079467773438 111.86711120605467 157.748291015625 109.10369873046876 163.27508544921875 108.70895385742188 163.27508544921875 108.70895385742188 " />
        <polyline stroke="black" stroke-width="3" stroke-linecap="round" fill="transparent" stroke-linejoin="round" points="102.08541870117188 145.02798461914063 109.5860595703125 143.8436737060547 118.27105712890624 142.6593475341797 147.48422241210938 141.08026123046875 166.03851318359375 143.4488983154297 185.38232421875 151.73910522460938 193.67254638671875 160.02932739257813 199.5941162109375 174.2411346435547 199.5941162109375 192.400634765625 197.62030029296875 200.29608154296875 187.7509765625 217.27130126953125 179.06597900390625 224.377197265625 166.82806396484375 229.90402221679688 153.010986328125 231.08831787109375 148.66851806640625 231.08831787109375 148.66851806640625 231.08831787109375 " />
        <polyline stroke="black" stroke-width="3" stroke-linecap="round" fill="transparent" stroke-linejoin="round" points="110.77035522460938 160.02932739257813 108.00701904296876 165.95091247558594 104.84881591796876 172.6620330810547 98.92721557617188 184.89996337890625 96.55859375 190.03201293945313 93.400390625 197.53268432617188 91.42657470703124 201.87518310546875 91.03173828125 203.05950927734375 91.03173828125 203.05950927734375 " />
        <polyline stroke="black" stroke-width="3" stroke-linecap="round" fill="transparent" stroke-linejoin="round" points="141.56259155273438 168.71432495117188 134.06195068359375 182.5313415527344 124.58740234375 197.92745971679688 115.50765991210938 212.1392822265625 111.16513061523438 218.85040283203125 107.61224365234376 225.5615234375 107.61224365234376 225.5615234375 " />
        </svg>