<?xml version="1.0" standalone="no"?>
    <svg width="256" height="256" xmlns="http://www.w3.org/2000/svg" version="1.1">
    <polyline stroke="black" stroke-width="3" stroke-linecap="round" fill="transparent" stroke-linejoin="round" points="58.6134033203125 97.39173889160156 61.6739501953125 109.02189636230467 64.73452758789063 121.87628173828124 66.57086181640625 130.44586181640625 66.57086181640625 136.56700134277344 66.57086181640625 137.7912139892578 66.57086181640625 137.7912139892578 " />
        <polyline stroke="black" stroke-width="3" stroke-linecap="round" fill="transparent" stroke-linejoin="round" points="91.66751098632813 80.86468505859375 113.70361328125 69.23452758789063 141.24868774414063 58.21649169921875 163.89691162109375 52.09535217285156 180.4239501953125 50.259010314941406 193.89044189453125 51.48323822021485 201.847900390625 56.38014221191406 206.74481201171875 66.78607177734375 203.0721435546875 88.82215881347656 185.9329833984375 119.42782592773438 163.89691162109375 138.40333557128906 163.89691162109375 138.40333557128906 " />
        <polyline stroke="black" stroke-width="3" stroke-linecap="round" fill="transparent" stroke-linejoin="round" points="57.38916015625 172.06956481933594 73.91622924804688 164.72421264648438 103.29766845703124 153.09405517578125 126.5579833984375 142.68812561035156 145.53350830078125 134.11854553222656 159.612060546875 126.16107177734376 166.3453369140625 120.03993225097656 168.18170166015625 110.24612426757813 168.18170166015625 110.24612426757813 " />
        <polyline stroke="black" stroke-width="3" stroke-linecap="round" fill="transparent" stroke-linejoin="round" points="97.78863525390624 115.1430206298828 90.44329833984376 156.1546173095703 86.15850830078125 175.74224853515625 80.64947509765625 194.7177734375 74.5283203125 210.6327209472656 70.85565185546875 220.426513671875 70.85565185546875 220.426513671875 " />
        <polyline stroke="black" stroke-width="3" stroke-linecap="round" fill="transparent" stroke-linejoin="round" points="131.45489501953125 117.59147644042967 132.67910766601563 139.6275634765625 134.51544189453125 165.9484405517578 135.1275634765625 184.31182861328125 135.1275634765625 202.67523193359375 135.1275634765625 202.67523193359375 " />
        </svg>