<?xml version="1.0" standalone="no"?>
    <svg width="256" height="256" xmlns="http://www.w3.org/2000/svg" version="1.1">
    <polyline stroke="black" stroke-width="3" stroke-linecap="round" fill="transparent" stroke-linejoin="round" points="57.56182861328125 95.55540466308594 60.622406005859375 101.67652893066406 63.07086181640625 107.79766845703124 65.51931762695313 112.694580078125 66.7435302734375 115.75514221191406 65.51931762695313 115.75514221191406 63.6829833984375 113.3066864013672 61.84661865234375 108.40977478027344 61.84661865234375 101.67652893066406 63.6829833984375 92.4948272705078 70.41622924804688 80.2525634765625 81.43426513671875 68.62240600585938 101.63400268554688 53.93169403076172 127.95489501953124 41.07730865478515 156.7242431640625 33.119834899902344 176.9239501953125 32.507720947265625 192.226806640625 36.792518615722656 198.96002197265625 41.689422607421875 205.0811767578125 52.09535217285156 205.0811767578125 72.29508972167969 193.4510498046875 93.71905517578124 172.02703857421875 113.91880798339844 172.02703857421875 113.91880798339844 " />
        <polyline stroke="black" stroke-width="3" stroke-linecap="round" fill="transparent" stroke-linejoin="round" points="70.41622924804688 155.54251098632813 85.71905517578125 151.25772094726563 107.755126953125 145.74868774414063 127.3427734375 140.2396697998047 145.7061767578125 133.5064239501953 159.17266845703125 127.3852996826172 166.51800537109375 121.26416015625 172.02703857421875 112.694580078125 172.02703857421875 112.694580078125 " />
        <polyline stroke="black" stroke-width="3" stroke-linecap="round" fill="transparent" stroke-linejoin="round" points="114.4884033203125 87.59793090820313 106.53091430664063 114.53091430664063 99.79766845703124 142.68812561035156 94.9007568359375 164.11209106445313 90.615966796875 181.86338806152344 88.16751098632813 195.32986450195313 86.94329833984375 203.287353515625 86.94329833984375 203.287353515625 " />
        <polyline stroke="black" stroke-width="3" stroke-linecap="round" fill="transparent" stroke-linejoin="round" points="143.25772094726563 101.67652893066406 142.03350830078125 116.9793701171875 140.1971435546875 145.74868774414063 138.972900390625 167.78477478027344 137.1365966796875 193.4935302734375 137.1365966796875 193.4935302734375 " />
        </svg>