<?xml version="1.0" standalone="no"?>
    <svg width="256" height="256" xmlns="http://www.w3.org/2000/svg" version="1.1">
    <polyline stroke="black" stroke-width="3" stroke-linecap="round" fill="transparent" stroke-linejoin="round" points="61.949859619140625 101.05499267578124 50.20989990234375 134.10067749023438 48.905517578125 138.01397705078125 46.731414794921875 143.66653442382813 44.9921875 143.66653442382813 43.687744140625 131.92662048339844 43.2529296875 107.14234924316406 47.166229248046875 94.96763610839844 57.601715087890625 83.22772216796875 71.08084106445313 72.35743713378906 90.64736938476563 62.79158020019531 116.30123901367188 53.66053771972656 144.1292724609375 46.26873016357422 172.39190673828125 40.616180419921875 198.48065185546875 37.1376953125 217.17755126953125 35.39845275878906 226.30859375 36.26807403564453 228.91748046875 40.616180419921875 223.264892578125 57.5738525390625 208.9161376953125 83.66255187988281 192.828125 104.53346252441406 177.60968017578125 119.75189208984376 170.21795654296875 125.83924865722656 170.21795654296875 125.83924865722656 " />
        <polyline stroke="black" stroke-width="3" stroke-linecap="round" fill="transparent" stroke-linejoin="round" points="101.95248413085938 144.53614807128906 132.38931274414063 134.5354766845703 163.69573974609375 127.14369201660156 186.30596923828125 121.49114990234376 196.74139404296875 118.8822784423828 196.74139404296875 118.8822784423828 " />
        <polyline stroke="black" stroke-width="3" stroke-linecap="round" fill="transparent" stroke-linejoin="round" points="102.38729858398438 153.66720581054688 96.29989624023438 195.4090881347656 93.6910400390625 224.54147338867188 93.25628662109376 231.49847412109375 92.38665771484376 235.4117431640625 92.38665771484376 235.4117431640625 " />
        <polyline stroke="black" stroke-width="3" stroke-linecap="round" fill="transparent" stroke-linejoin="round" points="150.21658325195313 160.1893768310547 151.955810546875 213.67117309570313 155.869140625 248.02127075195313 157.17352294921875 254.10867309570313 158.04315185546875 257.587158203125 158.04315185546875 257.587158203125 " />
        </svg>