<?xml version="1.0" standalone="no"?>
    <svg width="256" height="256" xmlns="http://www.w3.org/2000/svg" version="1.1">
    <polyline stroke="black" stroke-width="3" stroke-linecap="round" fill="transparent" stroke-linejoin="round" points="88 107 88 118 89 123 91 133 93 147 94 157 94 162 94 173 94 177 95 188 95 193 95 194 95 195 95 196 95 196 " />
        <polyline stroke="black" stroke-width="3" stroke-linecap="round" fill="transparent" stroke-linejoin="round" points="127 86 128 86 128 86 128 87 129 89 129 94 129 102 129 105 129 108 129 114 130 121 130 132 131 141 131 147 132 153 133 159 133 160 133 160 134 161 134 161 134 161 " />
        <polyline stroke="black" stroke-width="3" stroke-linecap="round" fill="transparent" stroke-linejoin="round" points="180 31 180 34 179 39 178 45 177 52 176 59 177 73 178 90 180 106 181 113 181 120 182 136 183 152 183 166 183 177 183 187 184 195 184 201 184 202 " />
        </svg>