<?xml version="1.0" standalone="no"?>
    <svg width="256" height="256" xmlns="http://www.w3.org/2000/svg" version="1.1">
    <polyline stroke="black" stroke-width="3" stroke-linecap="round" fill="transparent" stroke-linejoin="round" points="89 130 94 137.5 95.25 141.25 96.5 150 96.5 158.75 95.25 170 95.25 175 94 176.25 94 177.5 94 177.5 " />
        <polyline stroke="black" stroke-width="3" stroke-linecap="round" fill="transparent" stroke-linejoin="round" points="131.5 116.25 132.75 125 132.75 132.5 134 142.5 134 145 134 146.25 146.5 117.5 146.5 117.5 " />
        <polyline stroke="black" stroke-width="3" stroke-linecap="round" fill="transparent" stroke-linejoin="round" points="181.5 86.25 184 98.75 186.5 127.5 186.5 161.25 186.5 177.5 185.25 210 184 230 185.25 241.25 185.25 243.75 185.25 246.25 185.25 246.25 " />
        </svg>