<?xml version="1.0" standalone="no"?>
    <svg width="256" height="256" xmlns="http://www.w3.org/2000/svg" version="1.1">
    <polyline stroke="black" stroke-width="3" stroke-linecap="round" fill="transparent" stroke-linejoin="round" points="66.7344970703125 100.10447692871094 80.30877685546875 95.3830108642578 105.09649658203124 87.12042236328125 151.13092041015625 75.31672668457031 166.4757080078125 70.59524536132813 179.45977783203125 64.69340515136719 189.492919921875 56.430816650390625 189.492919921875 56.430816650390625 " />
        <polyline stroke="black" stroke-width="3" stroke-linecap="round" fill="transparent" stroke-linejoin="round" points="147.58981323242188 32.233245849609375 144.0487060546875 44.62712097167969 136.37628173828125 72.36579895019531 126.34317016601563 110.13761901855467 117.49038696289063 144.95852661132813 107.457275390625 177.41867065429688 100.37503051757813 196.894775390625 94.47320556640624 209.28863525390625 89.751708984375 215.7806701660156 86.21060180664063 218.14141845703125 86.21060180664063 218.14141845703125 " />
        <polyline stroke="black" stroke-width="3" stroke-linecap="round" fill="transparent" stroke-linejoin="round" points="72.04617309570313 141.4174041748047 85.03024291992188 150.86036682128906 93.88299560546876 155.58184814453125 102.73577880859376 157.9425811767578 102.73577880859376 157.9425811767578 " />
        <polyline stroke="black" stroke-width="3" stroke-linecap="round" fill="transparent" stroke-linejoin="round" points="144.63888549804688 86.53024291992188 151.13092041015625 103.64558410644533 157.6229248046875 118.40020751953124 164.7052001953125 135.51556396484375 172.3775634765625 152.63092041015625 179.45977783203125 167.3855438232422 184.771484375 176.8284912109375 189.492919921875 182.7303466796875 195.394775390625 182.7303466796875 195.394775390625 182.7303466796875 " />
        <polyline stroke="black" stroke-width="3" stroke-linecap="round" fill="transparent" stroke-linejoin="round" points="180.04998779296875 83.57931518554688 172.9677734375 94.20263671875 168.83642578125 101.28485107421876 161.1640625 109.54743957519533 161.1640625 109.54743957519533 " />
        </svg>