<?xml version="1.0" standalone="no"?>
    <svg width="256" height="256" xmlns="http://www.w3.org/2000/svg" version="1.1">
    <polyline stroke="black" stroke-width="3" stroke-linecap="round" fill="transparent" stroke-linejoin="round" points="64.6602783203125 80.62838745117188 74.10321044921875 79.44801330566406 84.1363525390625 77.67745971679688 98.30078125 75.31672668457031 121.3179931640625 72.36579895019531 141.38427734375 69.41488647460938 179.1561279296875 61.74247741699219 188.59906005859375 57.61119079589844 191.54998779296875 52.299522399902344 189.189208984375 44.03694152832031 180.9266357421875 35.184165954589844 169.713134765625 29.87250518798828 157.31927490234375 29.282318115234375 147.87628173828125 34.59397888183594 136.0726318359375 52.299522399902344 121.3179931640625 87.71060180664063 106.5633544921875 129.6137237548828 92.9891357421875 170.92665100097656 78.2344970703125 209.28863525390625 72.9228515625 221.09234619140625 69.38174438476563 228.174560546875 65.25042724609375 231.71566772460935 65.25042724609375 231.71566772460935 " />
        <polyline stroke="black" stroke-width="3" stroke-linecap="round" fill="transparent" stroke-linejoin="round" points="70.56210327148438 140.8272247314453 76.46395874023438 153.22109985351563 81.1854248046875 159.713134765625 86.49710083007813 163.8444366455078 94.75967407226563 162.6640625 94.75967407226563 162.6640625 " />
        <polyline stroke="black" stroke-width="3" stroke-linecap="round" fill="transparent" stroke-linejoin="round" points="138.433349609375 80.0382080078125 139.61370849609375 93.61245727539063 141.97445678710938 115.44927978515624 144.92538452148438 144.95852661132813 149.05667114257813 167.97572326660156 155.5487060546875 192.17330932617188 162.040771484375 209.87884521484375 169.1229248046875 222.8628845214844 175.0247802734375 225.2236328125 175.0247802734375 225.2236328125 " />
        <polyline stroke="black" stroke-width="3" stroke-linecap="round" fill="transparent" stroke-linejoin="round" points="185.64813232421875 104.82595825195313 172.0738525390625 120.17076110839844 160.8603515625 134.92538452148438 148.46649169921875 152.04074096679688 140.20391845703125 165.614990234375 140.20391845703125 165.614990234375 " />
        </svg>