<?xml version="1.0" standalone="no"?>
    <svg width="256" height="256" xmlns="http://www.w3.org/2000/svg" version="1.1">
    <polyline stroke="black" stroke-width="3" stroke-linecap="round" fill="transparent" stroke-linejoin="round" points="74.99993896484375 87.66035461425781 118.47174072265624 75.88681030273438 143.8302001953125 65.01884460449219 147.4527587890625 64.11322021484375 153.79248046875 61.39622497558594 155.603759765625 60.490570068359375 152.88677978515625 61.39622497558594 152.88677978515625 61.39622497558594 " />
        <polyline stroke="black" stroke-width="3" stroke-linecap="round" fill="transparent" stroke-linejoin="round" points="55.98114013671875 140.18869018554688 56.88671875 162.8302001953125 57.79248046875 162.8302001953125 66.84906005859375 155.5848846435547 66.84906005859375 155.5848846435547 " />
        <polyline stroke="black" stroke-width="3" stroke-linecap="round" fill="transparent" stroke-linejoin="round" points="113.0377197265625 118.45281982421876 137.4906005859375 107.58488464355467 158.32073974609375 103.0565948486328 158.32073974609375 103.9622802734375 156.50946044921875 109.396240234375 150.1697998046875 116.64151000976563 141.11322021484375 123.88681030273438 130.24530029296875 130.2263946533203 120.282958984375 132.94337463378906 107.603759765625 130.2263946533203 107.603759765625 130.2263946533203 " />
        <polyline stroke="black" stroke-width="3" stroke-linecap="round" fill="transparent" stroke-linejoin="round" points="99.4527587890625 32.41510009765625 118.47174072265624 58.67924499511719 105.79248046875 149.24530029296875 101.26416015625 166.45285034179688 89.4906005859375 195.4339599609375 75.90570068359375 219.8868103027344 61.41510009765625 238 46.018798828125 247.9622802734375 33.33966064453125 252.49053955078125 23.37738037109375 250.67926025390625 23.37738037109375 250.67926025390625 " />
        <polyline stroke="black" stroke-width="3" stroke-linecap="round" fill="transparent" stroke-linejoin="round" points="113.0377197265625 179.13209533691406 150.1697998046875 199.9622802734375 193.64154052734375 234.3773498535156 201.79248046875 241.6226501464844 209.0377197265625 248.867919921875 209.0377197265625 248.867919921875 " />
        </svg>