<?xml version="1.0" standalone="no"?>
    <svg width="256" height="256" xmlns="http://www.w3.org/2000/svg" version="1.1">
    <polyline stroke="black" stroke-width="3" stroke-linecap="round" fill="transparent" stroke-linejoin="round" points="75.5872802734375 99.51429748535156 87.3909912109375 93.0222625732422 103.9161376953125 86.53024291992188 122.21185302734376 80.62838745117188 140.50759887695313 76.49710083007813 156.44256591796875 74.1363525390625 170.60699462890625 71.77561950683594 181.2303466796875 66.46395874023438 181.2303466796875 66.46395874023438 " />
        <polyline stroke="black" stroke-width="3" stroke-linecap="round" fill="transparent" stroke-linejoin="round" points="134.60574340820313 28.101951599121097 125.16278076171876 49.93878173828125 116.90020751953124 74.72654724121094 109.22781372070313 98.9241180419922 99.78485107421876 133.1548309326172 89.751708984375 162.6640625 81.4891357421875 181.5499725341797 71.45599365234375 199.25552368164065 64.96395874023438 208.1082763671875 64.96395874023438 208.1082763671875 " />
        <polyline stroke="black" stroke-width="3" stroke-linecap="round" fill="transparent" stroke-linejoin="round" points="59.062103271484375 139.6468505859375 68.50506591796875 147.90943908691406 74.99710083007813 152.04074096679688 85.62042236328125 153.81129455566406 85.62042236328125 153.81129455566406 " />
        <polyline stroke="black" stroke-width="3" stroke-linecap="round" fill="transparent" stroke-linejoin="round" points="122.80206298828124 88.89097595214844 126.34317016601563 101.28485107421876 132.2449951171875 117.21983337402344 145.22906494140625 149.67999267578125 157.6229248046875 172.1070098876953 167.6561279296875 189.81256103515625 177.09906005859375 203.97698974609375 184.771484375 212.82977294921875 184.771484375 212.82977294921875 " />
        <polyline stroke="black" stroke-width="3" stroke-linecap="round" fill="transparent" stroke-linejoin="round" points="190.0831298828125 106.59651184082033 179.45977783203125 114.85910034179688 168.24627685546875 124.89224243164063 152.311279296875 142.00759887695313 139.32720947265625 157.9425811767578 139.32720947265625 157.9425811767578 " />
        </svg>