<?xml version="1.0" standalone="no"?>
    <svg width="256" height="256" xmlns="http://www.w3.org/2000/svg" version="1.1">
    <polyline stroke="black" stroke-width="3" stroke-linecap="round" fill="transparent" stroke-linejoin="round" points="55.64739990234375 103.84837341308594 64.308837890625 100.3837890625 77.5897216796875 95.18692016601563 104.1514892578125 87.68032836914063 127.82611083984376 80.75117492675781 150.34588623046875 73.24459838867188 167.09130859375 67.47029113769531 178.63995361328125 60.5411376953125 184.41424560546875 53.61197662353515 184.41424560546875 53.61197662353515 " />
        <polyline stroke="black" stroke-width="3" stroke-linecap="round" fill="transparent" stroke-linejoin="round" points="121.47439575195313 42.063385009765625 117.432373046875 64.00572204589844 112.23553466796876 95.7643585205078 107.03863525390624 132.14242553710938 101.26434326171876 161.013916015625 95.49005126953124 181.8013916015625 90.87060546875 196.8145751953125 86.25115966796875 204.89859008789065 81.0543212890625 208.94058227539065 81.0543212890625 208.94058227539065 " />
        <polyline stroke="black" stroke-width="3" stroke-linecap="round" fill="transparent" stroke-linejoin="round" points="53.337677001953125 152.35247802734375 66.61856079101563 157.54933166503906 73.5477294921875 159.28163146972656 80.47686767578125 157.54933166503906 80.47686767578125 157.54933166503906 " />
        <polyline stroke="black" stroke-width="3" stroke-linecap="round" fill="transparent" stroke-linejoin="round" points="104.72894287109376 80.75117492675781 111.6580810546875 94.6094970703125 118.00982666015624 107.3129425048828 127.82611083984376 122.3261260986328 138.79730224609375 138.49415588378906 151.500732421875 154.0847625732422 163.62677001953125 166.7882080078125 174.0205078125 176.02708435058594 183.2593994140625 181.2239532470703 193.07568359375 180.069091796875 193.07568359375 180.069091796875 " />
        <polyline stroke="black" stroke-width="3" stroke-linecap="round" fill="transparent" stroke-linejoin="round" points="164.2042236328125 91.14491271972656 150.92330932617188 110.77752685546876 139.37472534179688 133.87472534179688 139.37472534179688 133.87472534179688 " />
        </svg>