<?xml version="1.0" standalone="no"?>
    <svg width="256" height="256" xmlns="http://www.w3.org/2000/svg" version="1.1">
    <polyline stroke="black" stroke-width="3" stroke-linecap="round" fill="transparent" stroke-linejoin="round" points="103.4000244140625 99.4666748046875 135.4000244140625 89.86669921875 158.86669921875 83.4666748046875 170.60009765625 81.33334350585938 173.8001708984375 81.33334350585938 174.86669921875 81.33334350585938 174.86669921875 81.33334350585938 " />
        <polyline stroke="black" stroke-width="3" stroke-linecap="round" fill="transparent" stroke-linejoin="round" points="126.86669921875 52.533355712890625 121.53338623046876 73.86668395996094 115.1334228515625 121.86668395996094 108.7333984375 151.73338317871094 99.1334228515625 176.26669311523438 92.7333984375 189.06671142578125 86.3333740234375 193.33334350585935 81.00006103515625 194.40005493164065 81.00006103515625 194.40005493164065 " />
        <polyline stroke="black" stroke-width="3" stroke-linecap="round" fill="transparent" stroke-linejoin="round" points="121.53338623046876 127.20001220703124 151.4000244140625 163.4666748046875 173.8001708984375 177.33334350585938 194.0667724609375 185.86666870117188 209 189.06671142578125 215.4000244140625 189.06671142578125 215.4000244140625 189.06671142578125 " />
        <polyline stroke="black" stroke-width="3" stroke-linecap="round" fill="transparent" stroke-linejoin="round" points="88.466796875 122.93336486816406 108.7333984375 138.93336486816406 108.7333984375 138.93336486816406 " />
        <polyline stroke="black" stroke-width="3" stroke-linecap="round" fill="transparent" stroke-linejoin="round" points="178.0667724609375 105.86669921875 157.8001708984375 134.6666717529297 157.8001708984375 134.6666717529297 " />
        </svg>