<?xml version="1.0" standalone="no"?>
    <svg width="256" height="256" xmlns="http://www.w3.org/2000/svg" version="1.1">
    <polyline stroke="black" stroke-width="3" stroke-linecap="round" fill="transparent" stroke-linejoin="round" points="38.15289306640625 112.93618774414063 45.22625732421875 109.8415985107422 53.62591552734375 107.18907165527344 69.98309326171875 99.23150634765624 83.24566650390625 91.27395629882813 93.41366577148438 83.75849914550781 97.39242553710938 79.77972412109375 97.39242553710938 79.77972412109375 " />
        <polyline stroke="black" stroke-width="3" stroke-linecap="round" fill="transparent" stroke-linejoin="round" points="62.467620849609375 88.17935180664063 59.81512451171875 98.7894287109375 56.720458984375 111.1678466796875 50.089202880859375 135.4825897216797 44.342041015625 157.1448211669922 39.4791259765625 174.82827758789063 36.384521484375 185.4383544921875 34.616180419921875 188.97503662109375 34.174072265625 189.85919189453125 34.174072265625 189.85919189453125 " />
        <polyline stroke="black" stroke-width="3" stroke-linecap="round" fill="transparent" stroke-linejoin="round" points="57.162567138671875 159.79733276367188 61.58343505859375 161.565673828125 66.00433349609375 163.77610778808594 74.4039306640625 167.3127899169922 83.687744140625 170.8494873046875 86.7823486328125 170.4073944091797 86.7823486328125 170.4073944091797 " />
        <polyline stroke="black" stroke-width="3" stroke-linecap="round" fill="transparent" stroke-linejoin="round" points="125.24386596679688 106.30490112304688 131.43307495117188 102.7681884765625 137.18017578125 99.23150634765624 142.48519897460938 96.57899475097656 152.21112060546875 91.71604919433594 158.40032958984375 89.06353759765625 161.4949951171875 87.29518127441406 161.93701171875 86.85308837890625 160.61077880859375 86.85308837890625 153.537353515625 88.62144470214844 142.92733764648438 92.15814208984376 134.96978759765625 97.02108764648438 128.780517578125 102.32611083984376 123.033447265625 110.28367614746094 118.17050170898438 120.45166015625 115.07589721679688 131.50381469726563 113.30755615234376 139.9034423828125 112.86544799804688 146.53472900390625 112.86544799804688 150.51351928710938 115.07589721679688 150.9556121826172 115.07589721679688 150.9556121826172 " />
        <polyline stroke="black" stroke-width="3" stroke-linecap="round" fill="transparent" stroke-linejoin="round" points="149.11654663085938 119.56748962402344 143.369384765625 128.85128784179688 136.73812866210938 138.13510131835938 121.26507568359376 154.93438720703125 101.81332397460938 172.61782836914063 93.41366577148438 180.13330078125 91.20321655273438 181.90164184570313 89.43487548828125 183.66998291015625 91.64532470703124 182.34373474121097 100.487060546875 177.92288208007813 112.86544799804688 171.29156494140625 119.93881225585938 167.3127899169922 138.50643920898438 154.93438720703125 147.34814453125 146.53472900390625 156.18988037109375 135.4825897216797 156.18988037109375 135.4825897216797 " />
        <polyline stroke="black" stroke-width="3" stroke-linecap="round" fill="transparent" stroke-linejoin="round" points="157.51617431640625 76.24302673339844 164.58953857421875 74.0325927734375 171.6629638671875 71.82217407226563 185.8096923828125 67.8433837890625 196.86181640625 64.748779296875 203.93524169921875 62.538360595703125 208.3560791015625 60.77000427246094 208.3560791015625 60.77000427246094 " />
        <polyline stroke="black" stroke-width="3" stroke-linecap="round" fill="transparent" stroke-linejoin="round" points="185.36761474609375 50.159934997558594 184.925537109375 59.443756103515625 183.5992431640625 70.49591064453125 178.294189453125 96.57899475097656 169.89459228515625 123.54624938964844 165.4737548828125 135.92466735839844 152.6531982421875 168.63906860351563 146.90609741210938 182.34373474121097 142.92733764648438 190.30126953125 141.60107421875 192.51171875 139.83270263671875 194.72216796875 139.83270263671875 194.72216796875 " />
        <polyline stroke="black" stroke-width="3" stroke-linecap="round" fill="transparent" stroke-linejoin="round" points="184.0413818359375 133.27215576171875 193.76727294921875 144.7664031982422 198.63018798828125 152.28189086914063 207.471923828125 169.52322387695313 213.218994140625 181.90164184570313 213.218994140625 181.90164184570313 " />
        </svg>