<?xml version="1.0" standalone="no"?>
    <svg width="256" height="256" xmlns="http://www.w3.org/2000/svg" version="1.1">
    <polyline stroke="black" stroke-width="3" stroke-linecap="round" fill="transparent" stroke-linejoin="round" points="70.20724487304688 107.53475952148438 75.44369506835938 104.16845703125 81.42816162109375 100.80218505859376 97.137451171875 92.94754028320313 106.86224365234376 88.08514404296875 113.96884155273438 83.22276306152344 113.96884155273438 83.22276306152344 " />
        <polyline stroke="black" stroke-width="3" stroke-linecap="round" fill="transparent" stroke-linejoin="round" points="67.96307373046875 131.0986785888672 64.59677124023438 146.05990600585938 57.490203857421875 177.85252380371094 54.87200927734375 189.07342529296875 53.7498779296875 192.065673828125 53.7498779296875 192.065673828125 " />
        <polyline stroke="black" stroke-width="3" stroke-linecap="round" fill="transparent" stroke-linejoin="round" points="92.27508544921876 155.7847137451172 95.641357421875 156.5327606201172 98.633544921875 156.90679931640625 104.24407958984376 156.90679931640625 104.24407958984376 156.90679931640625 " />
        <polyline stroke="black" stroke-width="3" stroke-linecap="round" fill="transparent" stroke-linejoin="round" points="118.83123779296876 112.77117919921876 123.693603515625 109.40489196777344 134.16650390625 102.29832458496094 147.631591796875 94.06964111328124 153.2420654296875 90.32933044433594 153.2420654296875 90.32933044433594 " />
        <polyline stroke="black" stroke-width="3" stroke-linecap="round" fill="transparent" stroke-linejoin="round" points="120.32736206054688 134.46495056152344 119.57928466796876 137.4571990966797 119.20526123046876 140.44944763183594 119.20526123046876 142.69363403320313 119.95333862304688 146.43394470214844 120.70138549804688 147.18199157714844 120.70138549804688 147.18199157714844 " />
        <polyline stroke="black" stroke-width="3" stroke-linecap="round" fill="transparent" stroke-linejoin="round" points="146.135498046875 129.228515625 141.2730712890625 136.70913696289063 136.03662109375 144.93780517578125 125.18978881835938 161.76919555664063 121.075439453125 167.005615234375 114.71688842773438 173.73818969726563 110.228515625 177.10446166992188 107.23626708984376 178.22654724121094 106.11419677734376 177.85252380371094 106.48822021484376 175.98236083984375 112.84677124023438 170.37191772460938 124.81573486328124 161.39517211914063 138.65487670898438 151.29632568359375 151.3719482421875 140.82347106933594 151.3719482421875 140.82347106933594 " />
        <polyline stroke="black" stroke-width="3" stroke-linecap="round" fill="transparent" stroke-linejoin="round" points="169.32537841796875 96.31382751464844 174.187744140625 93.32159423828124 179.79827880859375 89.58126831054688 192.14129638671875 81.35260009765625 198.873779296875 75.74212646484375 211.216796875 63.39912414550781 214.5831298828125 59.6588134765625 214.5831298828125 59.6588134765625 " />
        <polyline stroke="black" stroke-width="3" stroke-linecap="round" fill="transparent" stroke-linejoin="round" points="200.7440185546875 46.56774139404297 192.14129638671875 66.017333984375 182.41644287109375 91.07740783691406 177.1800537109375 104.91653442382813 165.5850830078125 141.197509765625 160.72265625 160.2730712890625 157.35638427734375 171.86802673339844 156.60833740234375 176.35638427734375 156.60833740234375 176.35638427734375 " />
        <polyline stroke="black" stroke-width="3" stroke-linecap="round" fill="transparent" stroke-linejoin="round" points="193.26336669921875 128.8544921875 198.499755859375 132.59481811523438 204.4842529296875 137.0831756591797 217.57537841796875 151.29632568359375 226.1781005859375 162.5172576904297 233.28466796875 175.2342987060547 233.28466796875 175.2342987060547 " />
        </svg>