<?xml version="1.0" standalone="no"?>
    <svg width="256" height="256" xmlns="http://www.w3.org/2000/svg" version="1.1">
    <polyline stroke="black" stroke-width="3" stroke-linecap="round" fill="transparent" stroke-linejoin="round" points="29.19500732421875 109.40548706054688 34.82403564453125 108.1411590576172 45.544525146484375 105.26187133789063 49.965576171875 104.02554321289063 57.291107177734375 101.83335876464844 59.42510986328125 100.90127563476563 62.61309814453125 99.0113525390625 63.739959716796875 98.21835327148438 64.40255737304688 96.90716552734376 64.53375244140625 96.40469360351563 64.59552001953125 96.16802978515624 64.62777709960938 96.0443115234375 " />
        <polyline stroke="black" stroke-width="3" stroke-linecap="round" fill="transparent" stroke-linejoin="round" points="41.91644287109375 71.19465637207031 40.7298583984375 80.18113708496094 37.939056396484375 103.69743347167967 36.65716552734375 118.65017700195313 35.155364990234375 143.34027099609375 34.50860595703125 154.87350463867188 31.718505859375 175.65379333496094 29.524383544921875 184.91357421875 24.8717041015625 197.4423828125 19.1263427734375 207.75003051757813 16.495819091796875 209.2007751464844 14.38916015625 211.685302734375 14.17852783203125 211.93377685546875 " />
        <polyline stroke="black" stroke-width="3" stroke-linecap="round" fill="transparent" stroke-linejoin="round" points="41.611419677734375 166.564208984375 45.66357421875 171.55526733398438 50.05572509765625 177.17425537109375 56.1973876953125 185.5238037109375 59.10809326171875 189.25735473632813 63.400604248046875 195.94802856445313 65.48080444335938 198.68148803710935 67.869873046875 202.12762451171875 68.39486694335938 202.85369873046875 68.53582763671875 203.04864501953125 68.5523681640625 203.071533203125 68.5614013671875 203.08404541015625 68.56683349609375 203.09152221679688 " />
        <polyline stroke="black" stroke-width="3" stroke-linecap="round" fill="transparent" stroke-linejoin="round" points="102.82064819335938 113.52757263183594 127.61602783203124 110.1013641357422 163.48944091796875 106.6511688232422 169.364990234375 105.72024536132813 172.8375244140625 105.1458740234375 177.3233642578125 103.94468688964844 178.5830078125 103.6399383544922 178.7183837890625 103.60720825195313 178.721923828125 103.60636901855467 178.722412109375 103.6062469482422 " />
        <polyline stroke="black" stroke-width="3" stroke-linecap="round" fill="transparent" stroke-linejoin="round" points="108.29818725585938 136.6204833984375 109.60345458984376 151.12332153320313 109.966064453125 158.19192504882813 110.53964233398438 168.40151977539063 110.8536376953125 172.07705688476563 110.67169189453124 175.0079345703125 110.58590698242188 175.56430053710938 110.56930541992188 175.6717987060547 " />
        <polyline stroke="black" stroke-width="3" stroke-linecap="round" fill="transparent" stroke-linejoin="round" points="150.544921875 127.04150390625 153.0252685546875 139.0631561279297 153.37322998046875 144.86785888671875 152.81610107421875 155.38153076171875 150.8388671875 162.55853271484375 147.05706787109375 166.73912048339844 147.73226928710938 171.7808074951172 147.79159545898438 172.22402954101563 " />
        <polyline stroke="black" stroke-width="3" stroke-linecap="round" fill="transparent" stroke-linejoin="round" points="88.3328857421875 186.35980224609375 93.264892578125 185.99612426757813 98.36273193359376 185.6029357910156 107.81201171875 184.86334228515625 121.71527099609376 184.489013671875 150.81869506835938 184.66650390625 157.97412109375 184.46383666992188 159.7974853515625 184.13616943359375 162.81256103515625 183.78558349609375 164.85498046875 183.3897399902344 165.9959716796875 183.093017578125 166.054931640625 183.0776824951172 166.0811767578125 183.07090759277344 166.09417724609375 183.0674743652344 " />
        <polyline stroke="black" stroke-width="3" stroke-linecap="round" fill="transparent" stroke-linejoin="round" points="192.89080810546875 125.19503784179688 200.09326171875 124.09793090820313 212.5953369140625 122.10391235351563 218.084228515625 121.03240966796876 227.19403076171875 119.18783569335938 231.412353515625 117.4028778076172 234.17803955078125 116.2757568359375 235.5714111328125 115.27775573730467 236.83001708984375 113.347412109375 236.9886474609375 113.09512329101563 " />
        <polyline stroke="black" stroke-width="3" stroke-linecap="round" fill="transparent" stroke-linejoin="round" points="206.9559326171875 84.2664794921875 205.060302734375 92.021484375 202.78057861328125 100.51632690429688 197.09637451171875 120.3406219482422 194.2974853515625 129.88449096679688 191.36102294921875 140.0220184326172 186.8306884765625 159.49203491210938 182.60748291015625 178.44497680664063 180.5609130859375 186.35736083984375 176.00439453125 200.34228515625 174.2672119140625 204.7783203125 171.02044677734375 209.67770385742188 169.55218505859375 211.76556396484375 167.55120849609375 214.92703247070313 167.37408447265625 215.206787109375 " />
        <polyline stroke="black" stroke-width="3" stroke-linecap="round" fill="transparent" stroke-linejoin="round" points="208.70135498046875 161.33543395996094 212.868896484375 169.29989624023438 223.86279296875 186.46243286132813 229.86669921875 195.49822998046875 239.42529296875 207.81488037109375 242.379150390625 210.19174194335935 245.436767578125 211.95822143554688 245.9969482421875 211.97430419921875 246.07470703125 211.9624938964844 " />
        </svg>