<?xml version="1.0" standalone="no"?>
    <svg width="256" height="256" xmlns="http://www.w3.org/2000/svg" version="1.1">
    <polyline stroke="black" stroke-width="3" stroke-linecap="round" fill="transparent" stroke-linejoin="round" points="52 115 66 115 74 113 91 110 107 104 120 100 127 98 127 98 " />
        <polyline stroke="black" stroke-width="3" stroke-linecap="round" fill="transparent" stroke-linejoin="round" points="100 80 95 100 83 130 73 160 62 190 55 212 52 220 49 222 49 222 " />
        <polyline stroke="black" stroke-width="3" stroke-linecap="round" fill="transparent" stroke-linejoin="round" points="91 174 96 174 112 174 133 178 152 188 162 193 162 193 " />
        <polyline stroke="black" stroke-width="3" stroke-linecap="round" fill="transparent" stroke-linejoin="round" points="141 98 150 98 172 92 183 89 208 83 228 77 241 77 243 77 243 77 " />
        <polyline stroke="black" stroke-width="3" stroke-linecap="round" fill="transparent" stroke-linejoin="round" points="137 151 137 161 137 167 137 176 139 184 141 186 143 188 143 188 " />
        <polyline stroke="black" stroke-width="3" stroke-linecap="round" fill="transparent" stroke-linejoin="round" points="176 152 175 167 171 175 171 175 " />
        <polyline stroke="black" stroke-width="3" stroke-linecap="round" fill="transparent" stroke-linejoin="round" points="134 199 150 192 171 184 192 177 209 171 209 171 " />
        <polyline stroke="black" stroke-width="3" stroke-linecap="round" fill="transparent" stroke-linejoin="round" points="204 46 204 67 201 98 196 134 190 167 182 195 175 213 170 221 170 225 170 225 " />
        <polyline stroke="black" stroke-width="3" stroke-linecap="round" fill="transparent" stroke-linejoin="round" points="205 175 211 176 225 187 240 201 240 201 " />
        </svg>