<?xml version="1.0" standalone="no"?>
    <svg width="256" height="256" xmlns="http://www.w3.org/2000/svg" version="1.1">
    <polyline stroke="black" stroke-width="3" stroke-linecap="round" fill="transparent" stroke-linejoin="round" points="44.95703125 95.63021850585938 51.202850341796875 94.6800537109375 58.4671630859375 92.98272705078124 65.534423828125 91.12554931640624 80.4697265625 85.83035278320313 86.786865234375 83.76200866699219 100.74569702148438 81.56303405761719 110.24777221679688 80.85281372070313 111.35467529296876 81.42826843261719 112.45980834960938 81.79730224609375 112.69329833984376 81.87528991699219 112.72079467773438 81.88446044921875 112.73385620117188 81.88880920410156 " />
        <polyline stroke="black" stroke-width="3" stroke-linecap="round" fill="transparent" stroke-linejoin="round" points="54.48455810546875 65.05564880371094 55.165008544921875 105.4163818359375 52.0467529296875 138.590576171875 49.091796875 151.83047485351563 44.26507568359375 173.0882568359375 41.4637451171875 185.4339599609375 41.0487060546875 188.33981323242188 41.51123046875 193.130126953125 42.42926025390625 194.40252685546875 43.38397216796875 194.81207275390625 44.31793212890625 194.71649169921875 50.862060546875 192.95843505859375 67.69561767578125 187.36880493164065 75.00518798828125 185.23287963867188 88.79931640625 182.9991912841797 93.8990478515625 183.2938537597656 97.58456420898438 184.225341796875 100.02401733398438 186.38818359375 100.049560546875 186.53762817382813 " />
        <polyline stroke="black" stroke-width="3" stroke-linecap="round" fill="transparent" stroke-linejoin="round" points="91.89852905273438 75.85752868652344 95.45965576171876 107.62619018554688 96.68792724609376 145.62063598632813 95.92501831054688 160.6116943359375 93.23876953125 186.39956665039065 91.9176025390625 191.1156311035156 91.71896362304688 186.35137939453125 " />
        <polyline stroke="black" stroke-width="3" stroke-linecap="round" fill="transparent" stroke-linejoin="round" points="137.59039306640625 45.63389587402344 134.73333740234375 58.5985107421875 125.99334716796876 90.74635314941406 120.62579345703124 108.28964233398438 110.30426025390624 133.7630615234375 105.86395263671876 143.73846435546875 100.65463256835938 157.525634765625 100.5001220703125 158.07540893554688 " />
        <polyline stroke="black" stroke-width="3" stroke-linecap="round" fill="transparent" stroke-linejoin="round" points="151.6536865234375 58.23681640625 160.745361328125 68.52325439453125 180.7391357421875 88.38238525390625 193.809326171875 100.8006591796875 196.7042236328125 103.08932495117188 197.01947021484375 103.3385009765625 197.02288818359375 103.34121704101563 " />
        <polyline stroke="black" stroke-width="3" stroke-linecap="round" fill="transparent" stroke-linejoin="round" points="158.43939208984375 113.88095092773438 161.978515625 138.8253173828125 163.0849609375 188.8794860839844 162.0400390625 208.08001708984375 157.66473388671875 226.19329833984375 156.3758544921875 227.71136474609375 154.36444091796875 227.59616088867188 154.2811279296875 227.4185485839844 152.22711181640625 225.82171630859375 147.29293823242188 221.1856689453125 145.83843994140625 219.4497985839844 " />
        <polyline stroke="black" stroke-width="3" stroke-linecap="round" fill="transparent" stroke-linejoin="round" points="129.89889526367188 168.5189666748047 132.99520874023438 171.31863403320313 134.48800659179688 172.45419311523438 134.83541870117188 172.70941162109375 " />
        <polyline stroke="black" stroke-width="3" stroke-linecap="round" fill="transparent" stroke-linejoin="round" points="187.4869384765625 158.87811279296875 183.97821044921875 169.54678344726563 179.62255859375 181.24383544921875 176.27386474609375 191.14520263671875 175.65380859375 192.98779296875 " />
        </svg>