<?xml version="1.0" standalone="no"?>
    <svg width="256" height="256" xmlns="http://www.w3.org/2000/svg" version="1.1">
    <polyline stroke="black" stroke-width="3" stroke-linecap="round" fill="transparent" stroke-linejoin="round" points="59.54046630859375 130.95155334472656 67.73245239257813 126.71432495117188 75.64193725585938 122.4770965576172 84.39886474609375 117.9573974609375 92.02584838867188 113.7201690673828 99.370361328125 110.04792785644533 105.867431640625 106.9406280517578 111.23458862304688 104.39830017089844 115.18930053710938 102.70338439941406 118.01416015625 101.29100036621094 119.99151611328124 100.4435577392578 121.40390014648438 99.87858581542967 122.53384399414063 99.59611511230467 123.0987548828125 99.31362915039063 123.38128662109376 99.0311279296875 123.0987548828125 99.0311279296875 122.53384399414063 99.0311279296875 121.40390014648438 99.31362915039063 121.40390014648438 99.31362915039063 " />
        <polyline stroke="black" stroke-width="3" stroke-linecap="round" fill="transparent" stroke-linejoin="round" points="71.68716430664063 97.90121459960938 73.382080078125 105.81068420410156 75.07693481445313 114.85011291503906 76.20684814453125 125.86686706542967 77.0543212890625 135.75372314453125 77.0543212890625 145.0756072998047 77.0543212890625 153.83251953125 76.48934936523438 160.89456176757813 75.92437744140625 165.979248046875 75.35943603515625 169.36898803710938 74.79446411132813 172.1938018798828 74.22955322265625 174.17120361328125 73.947021484375 175.3011016845703 73.66458129882813 176.14854431152344 73.382080078125 176.71351623535156 73.382080078125 176.99600219726563 73.66458129882813 176.99600219726563 74.51202392578125 176.71351623535156 76.77182006835938 175.58360290527344 79.87911987304688 173.60621643066406 83.83389282226563 170.7814178466797 87.78860473632813 167.95660400390625 91.74334716796876 165.1317901611328 95.9805908203125 161.74200439453125 99.65283203125 158.91720581054688 103.04257202148438 156.37486267089844 105.867431640625 154.11502075195313 108.40975952148438 152.13763427734375 110.10464477539063 150.72525024414063 111.799560546875 149.03033447265625 112.64697265625 147.61795043945313 113.21197509765624 146.48802185058594 113.21197509765624 146.48802185058594 " />
        <polyline stroke="black" stroke-width="3" stroke-linecap="round" fill="transparent" stroke-linejoin="round" points="114.05938720703124 76.99760437011719 116.60171508789063 82.92971801757813 118.5791015625 91.12167358398438 119.70901489257813 100.16107177734376 119.99151611328124 108.635498046875 119.70901489257813 117.39242553710938 119.14401245117188 125.58439636230467 118.5791015625 132.0814666748047 118.01416015625 136.60116577148438 117.44918823242188 140.27340698242188 116.88421630859376 143.09823608398438 116.60171508789063 145.35809326171875 116.31924438476563 146.77049255371094 116.31924438476563 146.77049255371094 " />
        <polyline stroke="black" stroke-width="3" stroke-linecap="round" fill="transparent" stroke-linejoin="round" points="163.776123046875 11.744407653808594 164.05853271484375 12.59185791015625 164.341064453125 13.156814575195313 164.62353515625 13.721778869628906 164.62353515625 14.2867431640625 164.62353515625 14.851692199707031 164.62353515625 15.416664123535156 164.62353515625 15.98162841796875 164.62353515625 16.829071044921875 164.341064453125 18.241477966308594 163.776123046875 20.218841552734375 162.9287109375 23.043663024902344 161.7987060546875 27.84584045410156 159.82135009765625 34.625396728515625 157.279052734375 42.817352294921875 154.7366943359375 51.00932312011719 151.62945556640625 60.61369323730469 147.95712280273438 70.50053405761719 144.5673828125 78.9749755859375 140.6126708984375 88.01437377929688 136.65789794921875 97.05377197265624 132.98562622070313 104.39830017089844 129.31341552734375 111.17784118652344 125.358642578125 117.6749267578125 121.68637084960938 123.88949584960938 118.29660034179688 129.25665283203125 115.47177124023438 133.77633666992188 112.64697265625 137.44859313964844 110.38711547851563 140.55589294433594 108.40975952148438 143.38070678710938 106.71484375 145.6405792236328 105.30245971679688 147.33546447753906 103.89004516601563 149.03033447265625 102.76010131835938 150.16026306152344 102.76010131835938 150.16026306152344 " />
        <polyline stroke="black" stroke-width="3" stroke-linecap="round" fill="transparent" stroke-linejoin="round" points="182.70233154296875 48.46698760986328 187.22198486328125 52.13924407958984 192.87164306640625 56.658935546875 198.80377197265625 62.308563232421875 205.01837158203125 68.24067687988281 210.95050048828125 73.89028930664063 216.317626953125 78.9749755859375 221.11981201171875 83.49465942382813 224.79205322265625 87.16694641113281 227.61688232421875 89.99176025390625 229.87677001953125 92.2515869140625 231.28912353515625 93.66400146484376 232.7015380859375 94.79393005371094 233.83148193359375 95.64138793945313 234.39642333984375 96.20631408691406 235.24383544921875 96.77130126953124 235.5263671875 97.05377197265624 235.5263671875 97.33625793457033 235.24383544921875 97.33625793457033 235.24383544921875 97.33625793457033 " />
        <polyline stroke="black" stroke-width="3" stroke-linecap="round" fill="transparent" stroke-linejoin="round" points="155.30169677734375 84.05964660644531 157.84393310546875 84.90707397460938 160.10382080078125 85.75453186035156 162.08123779296875 86.31948852539063 163.49359130859375 86.88446044921875 165.47100830078125 87.44940185546875 166.03594970703125 87.73188781738281 166.6009521484375 87.73188781738281 167.16583251953125 87.73188781738281 167.4483642578125 87.73188781738281 167.73089599609375 87.73188781738281 168.0133056640625 87.73188781738281 168.2957763671875 87.73188781738281 168.57830810546875 87.73188781738281 168.8607177734375 88.29684448242188 169.42572021484375 89.42677307128906 169.99066162109375 92.2515869140625 171.12060546875 97.61874389648438 171.968017578125 104.39830017089844 172.8154296875 111.74281311035156 173.94549560546875 120.78221130371094 174.79290771484375 130.38658142089844 175.64031982421875 139.1435089111328 176.48773193359375 148.18287658691406 176.770263671875 157.22232055664063 177.052734375 164.5668182373047 176.770263671875 171.34637451171875 176.48773193359375 176.71351623535156 175.92279052734375 181.7981719970703 175.35784912109375 185.47042846679688 174.5103759765625 188.5777282714844 173.66290283203125 191.12005615234375 172.8154296875 193.37994384765625 171.968017578125 195.0747985839844 171.403076171875 196.4872131347656 170.5556640625 197.89962768554688 169.99066162109375 199.02957153320313 169.42572021484375 200.15945434570313 168.8607177734375 201.00689697265625 168.57830810546875 201.5718688964844 168.0133056640625 202.1368408203125 167.73089599609375 202.70181274414065 167.4483642578125 202.98431396484375 167.16583251953125 203.26675415039065 166.8834228515625 203.54925537109375 166.6009521484375 203.54925537109375 166.31842041015625 203.54925537109375 165.75347900390625 203.26675415039065 164.906005859375 202.70181274414065 162.9287109375 200.15945434570313 162.9287109375 200.15945434570313 " />
        <polyline stroke="black" stroke-width="3" stroke-linecap="round" fill="transparent" stroke-linejoin="round" points="124.51119995117188 149.59530639648438 127.05352783203124 153.55006408691406 129.31341552734375 157.5048065185547 131.57321166992188 161.1770477294922 133.26812744140625 164.00186157226563 134.68051147460938 165.979248046875 135.81045532226563 167.6741180419922 136.65789794921875 168.80404663085938 137.50534057617188 169.36898803710938 138.07028198242188 169.6514892578125 138.91775512695313 169.36898803710938 138.91775512695313 169.36898803710938 " />
        <polyline stroke="black" stroke-width="3" stroke-linecap="round" fill="transparent" stroke-linejoin="round" points="205.3009033203125 112.30776977539063 202.193603515625 117.10995483398438 197.673828125 124.17198181152344 191.45928955078125 133.21139526367188 184.67974853515625 143.09823608398438 175.92279052734375 154.67996215820313 175.92279052734375 154.67996215820313 " />
        </svg>