<?xml version="1.0" standalone="no"?>
    <svg width="256" height="256" xmlns="http://www.w3.org/2000/svg" version="1.1">
    <polyline stroke="black" stroke-width="3" stroke-linecap="round" fill="transparent" stroke-linejoin="round" points="64.26083374023438 123.02122497558594 72.0616455078125 119.73666381835938 98.33822631835938 111.52523803710938 114.3504638671875 108.24069213867188 127.07818603515624 105.77725219726563 135.70016479492188 104.13494873046876 139.80587768554688 102.49267578125 139.80587768554688 102.49267578125 " />
        <polyline stroke="black" stroke-width="3" stroke-linecap="round" fill="transparent" stroke-linejoin="round" points="83.5576171875 65.95185852050781 81.91537475585938 71.69984436035156 80.2730712890625 78.26898193359375 74.114501953125 103.72439575195313 70.41937255859375 122.6106414794922 67.54537963867188 136.570068359375 65.903076171875 148.47662353515625 65.49252319335938 156.6880340576172 65.903076171875 160.3831787109375 67.54537963867188 166.13116455078125 72.47222900390625 171.46859741210938 78.63079833984375 174.34259033203125 85.199951171875 175.57431030273438 91.76904296875 174.75315856933594 98.33822631835938 170.23687744140625 98.33822631835938 170.23687744140625 " />
        <polyline stroke="black" stroke-width="3" stroke-linecap="round" fill="transparent" stroke-linejoin="round" points="113.93988037109376 78.67955017089844 113.11874389648438 84.83811950683594 112.70819091796876 91.8178253173828 112.297607421875 106.59837341308594 112.297607421875 128.7692108154297 111.88705444335938 141.907470703125 111.06591796875 150.94004821777344 109.01303100585938 164.4888916015625 109.01303100585938 164.4888916015625 " />
        <polyline stroke="black" stroke-width="3" stroke-linecap="round" fill="transparent" stroke-linejoin="round" points="171.8304443359375 72.11041259765625 165.671875 81.14297485351563 145.143310546875 110.29351806640624 133.64730834960938 126.71636962890624 125.846435546875 135.74893188476563 120.91961669921876 140.67576599121094 119.27731323242188 142.31805419921875 119.27731323242188 142.31805419921875 " />
        <polyline stroke="black" stroke-width="3" stroke-linecap="round" fill="transparent" stroke-linejoin="round" points="186.6109619140625 75.39498901367188 196.875244140625 77.85841369628906 207.96063232421875 81.14297485351563 213.70867919921875 83.19583129882813 227.25750732421875 89.35440063476563 235.46893310546875 93.04953002929688 235.46893310546875 93.04953002929688 " />
        <polyline stroke="black" stroke-width="3" stroke-linecap="round" fill="transparent" stroke-linejoin="round" points="181.68408203125 130.4114990234375 183.73699951171875 144.78147888183594 184.1475830078125 152.99290466308594 184.55810546875 169.0051727294922 183.73699951171875 182.1434326171875 181.68408203125 192.40771484375 178.81011962890625 198.97686767578125 174.2938232421875 203.08258056640625 172.240966796875 204.724853515625 172.240966796875 204.724853515625 " />
        <polyline stroke="black" stroke-width="3" stroke-linecap="round" fill="transparent" stroke-linejoin="round" points="136.52133178710938 141.0863494873047 140.62701416015625 144.37091064453125 158.2816162109375 156.2774658203125 166.4930419921875 159.15147399902344 166.4930419921875 159.15147399902344 " />
        <polyline stroke="black" stroke-width="3" stroke-linecap="round" fill="transparent" stroke-linejoin="round" points="214.94036865234375 152.1717529296875 207.550048828125 161.61489868164063 197.6964111328125 176.39544677734375 197.6964111328125 176.39544677734375 " />
        </svg>