<?xml version="1.0" standalone="no"?>
    <svg width="256" height="256" xmlns="http://www.w3.org/2000/svg" version="1.1">
    <polyline stroke="black" stroke-width="3" stroke-linecap="round" fill="transparent" stroke-linejoin="round" points="41.609832763671875 115.49430847167967 49.28741455078125 111.85757446289063 58.177215576171875 108.62490844726563 86.05892944335938 98.1187744140625 103.03036499023438 91.6534423828125 116.36508178710938 85.99629211425781 124.44674682617188 80.74319458007813 124.44674682617188 80.74319458007813 " />
        <polyline stroke="black" stroke-width="3" stroke-linecap="round" fill="transparent" stroke-linejoin="round" points="69.08746337890625 63.367645263671875 66.25888061523438 72.25747680664063 63.430267333984375 83.57179260253906 58.177215576171875 106.20040893554688 54.944549560546875 127.21270751953124 54.13641357421875 145.3964080810547 55.3486328125 155.49847412109375 56.9649658203125 158.7311248779297 59.38946533203125 158.7311248779297 59.38946533203125 158.7311248779297 " />
        <polyline stroke="black" stroke-width="3" stroke-linecap="round" fill="transparent" stroke-linejoin="round" points="111.51611328125 64.98397827148438 109.09164428710938 73.87380981445313 103.4344482421875 96.0983428955078 96.96917724609376 118.72697448730467 87.27117919921875 141.75967407226563 87.27117919921875 141.75967407226563 " />
        <polyline stroke="black" stroke-width="3" stroke-linecap="round" fill="transparent" stroke-linejoin="round" points="63.430267333984375 167.21685791015625 69.49154663085938 165.60052490234375 75.552734375 163.5801239013672 81.20993041992188 161.55972290039063 94.14056396484376 155.49847412109375 102.62631225585938 150.2454071044922 102.62631225585938 150.2454071044922 " />
        <polyline stroke="black" stroke-width="3" stroke-linecap="round" fill="transparent" stroke-linejoin="round" points="175.3612060546875 47.608428955078125 168.49176025390625 59.32682800292969 161.21826171875 71.44931030273438 141.418212890625 101.35140991210938 130.91207885742188 117.1106414794922 129.69979858398438 118.72697448730467 129.69979858398438 118.72697448730467 " />
        <polyline stroke="black" stroke-width="3" stroke-linecap="round" fill="transparent" stroke-linejoin="round" points="196.77752685546875 56.498260498046875 203.64691162109375 58.51866149902344 212.5367431640625 61.34724426269531 222.2347412109375 64.98397827148438 241.22662353515625 72.25747680664063 254.56134033203125 78.31871032714844 263.04705810546875 83.16769409179688 265.87567138671875 85.1881103515625 265.87567138671875 85.1881103515625 " />
        <polyline stroke="black" stroke-width="3" stroke-linecap="round" fill="transparent" stroke-linejoin="round" points="188.29180908203125 114.68614196777344 188.6959228515625 123.9800262451172 189.0999755859375 156.306640625 187.8876953125 173.68218994140625 185.05914306640625 187.8250732421875 183.44281005859375 189.84548950195313 183.44281005859375 189.84548950195313 " />
        <polyline stroke="black" stroke-width="3" stroke-linecap="round" fill="transparent" stroke-linejoin="round" points="136.97332763671875 153.47805786132813 141.822265625 155.90255737304688 175.3612060546875 156.71072387695313 175.3612060546875 156.71072387695313 " />
        <polyline stroke="black" stroke-width="3" stroke-linecap="round" fill="transparent" stroke-linejoin="round" points="235.1654052734375 132.46575927734375 229.1041259765625 141.35557556152344 221.42657470703125 151.8617401123047 213.34490966796875 162.77195739746094 204.85919189453125 174.89443969726563 204.85919189453125 174.89443969726563 " />
        </svg>