<?xml version="1.0" standalone="no"?>
    <svg width="256" height="256" xmlns="http://www.w3.org/2000/svg" version="1.1">
    <polyline stroke="black" stroke-width="3" stroke-linecap="round" fill="transparent" stroke-linejoin="round" points="61 119 62 126 62 148 63 168 64 181 64 189 64 193 64 194 64 195 65 195 65 195 " />
        <polyline stroke="black" stroke-width="3" stroke-linecap="round" fill="transparent" stroke-linejoin="round" points="118 81 118 86 118 92 121 117 121 125 121 145 121 163 120 176 117 186 117 186 " />
        <polyline stroke="black" stroke-width="3" stroke-linecap="round" fill="transparent" stroke-linejoin="round" points="38 140 46 140 62 137 82 133 104 130 115 129 132 126 141 126 141 126 " />
        <polyline stroke="black" stroke-width="3" stroke-linecap="round" fill="transparent" stroke-linejoin="round" points="69 206 73 205 85 199 99 194 106 191 124 183 124 183 " />
        <polyline stroke="black" stroke-width="3" stroke-linecap="round" fill="transparent" stroke-linejoin="round" points="188 51 184 54 175 69 161 90 156 99 148 112 138 131 132 143 129 149 128 149 128 149 " />
        <polyline stroke="black" stroke-width="3" stroke-linecap="round" fill="transparent" stroke-linejoin="round" points="195 51 199 56 206 68 215 82 220 89 224 96 232 107 237 117 237 121 237 121 " />
        <polyline stroke="black" stroke-width="3" stroke-linecap="round" fill="transparent" stroke-linejoin="round" points="190 102 190 110 190 119 190 142 190 166 190 176 189 194 187 206 185 213 184 216 181 217 176 216 166 202 166 202 " />
        <polyline stroke="black" stroke-width="3" stroke-linecap="round" fill="transparent" stroke-linejoin="round" points="157 158 159 162 166 170 166 170 " />
        <polyline stroke="black" stroke-width="3" stroke-linecap="round" fill="transparent" stroke-linejoin="round" points="231 155 229 161 213 186 205 194 205 194 " />
        </svg>