<?xml version="1.0" standalone="no"?>
    <svg width="256" height="256" xmlns="http://www.w3.org/2000/svg" version="1.1">
    <polyline stroke="black" stroke-width="3" stroke-linecap="round" fill="transparent" stroke-linejoin="round" points="84.82601928710938 84.0169677734375 93.85858154296876 81.14297485351563 102.89111328125 78.67955017089844 129.98883056640625 72.52099609375 138.61080932617188 70.87870788574219 153.391357421875 67.59414672851563 163.6556396484375 64.3095703125 167.7613525390625 62.2567138671875 167.7613525390625 62.2567138671875 " />
        <polyline stroke="black" stroke-width="3" stroke-linecap="round" fill="transparent" stroke-linejoin="round" points="118.082275390625 42.54930877685547 104.9439697265625 61.84614562988281 96.73260498046876 74.5738525390625 77.84628295898438 110.29351806640624 66.35031127929688 131.64321899414063 59.78118896484375 142.72862243652344 56.49658203125 147.24490356445313 56.49658203125 147.24490356445313 " />
        <polyline stroke="black" stroke-width="3" stroke-linecap="round" fill="transparent" stroke-linejoin="round" points="113.56597900390624 95.92355346679688 132.45223999023438 96.7446746826172 154.2125244140625 99.61868286132813 173.919921875 102.49267578125 188.2899169921875 104.5455322265625 188.2899169921875 104.5455322265625 " />
        <polyline stroke="black" stroke-width="3" stroke-linecap="round" fill="transparent" stroke-linejoin="round" points="65.93975830078125 159.97259521484375 76.61459350585938 158.7408905029297 113.9765625 153.81405639648438 136.14739990234375 150.52947998046875 153.80194091796875 148.47662353515625 164.88739013671875 146.83433532714844 164.88739013671875 146.83433532714844 " />
        <polyline stroke="black" stroke-width="3" stroke-linecap="round" fill="transparent" stroke-linejoin="round" points="112.334228515625 112.75694274902344 108.228515625 119.32609558105467 103.71224975585938 126.3057861328125 87.70001220703125 148.0660400390625 73.74057006835938 168.18402099609375 62.6551513671875 183.37515258789065 55.264892578125 191.58657836914065 50.748626708984375 196.513427734375 48.28521728515625 199.79800415039065 48.28521728515625 199.79800415039065 " />
        <polyline stroke="black" stroke-width="3" stroke-linecap="round" fill="transparent" stroke-linejoin="round" points="109.04974365234376 165.31002807617188 125.4725341796875 170.23687744140625 147.2327880859375 180.50115966796875 160.37109375 191.176025390625 168.58251953125 200.619140625 168.58251953125 200.619140625 " />
        </svg>