<?xml version="1.0" standalone="no"?>
    <svg width="256" height="256" xmlns="http://www.w3.org/2000/svg" version="1.1">
    <polyline stroke="black" stroke-width="3" stroke-linecap="round" fill="transparent" stroke-linejoin="round" points="107.55221557617188 123.73513793945313 128.14810180664063 123.40264892578124 149.40859985351563 124.06764221191406 158.377685546875 124.73231506347656 166.35015869140625 125.0644989013672 173.658447265625 125.39698791503906 179.63787841796875 125.0644989013672 184.28863525390625 124.73231506347656 187.94293212890625 124.39982604980467 190.26812744140625 123.73513793945313 192.92559814453125 122.40579223632813 195.2510986328125 120.74395751953124 195.2510986328125 120.74395751953124 " />
        <polyline stroke="black" stroke-width="3" stroke-linecap="round" fill="transparent" stroke-linejoin="round" points="158.04547119140625 86.84223937988281 152.398193359375 96.4808349609375 145.75436401367188 106.78445434570313 132.4666748046875 128.05601501464844 125.49069213867188 137.69464111328125 118.51467895507813 146.66856384277344 111.870849609375 154.9778289794922 100.57623291015624 166.27828979492188 95.59323120117188 170.2666778564453 91.274658203125 173.5903778076172 88.28509521484375 176.24942016601563 86.29168701171875 177.57876586914063 84.96298217773438 178.57594299316406 85.29519653320313 178.2434539794922 85.29519653320313 178.2434539794922 " />
        <polyline stroke="black" stroke-width="3" stroke-linecap="round" fill="transparent" stroke-linejoin="round" points="174.9874267578125 145.0067138671875 187.278564453125 151.32164001464844 192.26123046875 153.98065185546875 196.57977294921875 155.6425018310547 196.57977294921875 155.6425018310547 " />
        <polyline stroke="black" stroke-width="3" stroke-linecap="round" fill="transparent" stroke-linejoin="round" points="140.43923950195313 203.83587646484375 163.02850341796875 199.84750366210935 183.62432861328125 196.1913146972656 190.9324951171875 194.8619384765625 197.244140625 194.197265625 201.89495849609375 192.8675842285156 201.89495849609375 192.8675842285156 " />
        <polyline stroke="black" stroke-width="3" stroke-linecap="round" fill="transparent" stroke-linejoin="round" points="167.67889404296875 162.2899169921875 162.36407470703125 171.59600830078125 150.40512084960938 194.197265625 138.77835083007813 215.1363220214844 133.79541015625 223.77810668945313 129.14462280273438 231.0902099609375 120.175537109375 242.05813598632813 116.52127075195313 245.71435546875 110.87396240234376 250.03521728515625 109.21310424804688 250.03521728515625 109.21310424804688 250.03521728515625 " />
        <polyline stroke="black" stroke-width="3" stroke-linecap="round" fill="transparent" stroke-linejoin="round" points="168.0111083984375 209.48611450195313 188.27508544921875 218.46002197265625 197.244140625 223.44561767578125 209.867431640625 232.08734130859375 214.51824951171875 236.07571411132813 218.50433349609375 240.39630126953125 222.49078369140625 244.7171630859375 222.49078369140625 244.7171630859375 " />
        </svg>