<?xml version="1.0" standalone="no"?>
    <svg width="256" height="256" xmlns="http://www.w3.org/2000/svg" version="1.1">
    <polyline stroke="black" stroke-width="3" stroke-linecap="round" fill="transparent" stroke-linejoin="round" points="86 84 86 84 89 84 92 85 94 85 97 85 100 85 103 84 107 83 122 81 129 81 136 80 143 79 152 77 155 76 157 75 " />
        <polyline stroke="black" stroke-width="3" stroke-linecap="round" fill="transparent" stroke-linejoin="round" points="132 59 131 63 130 65 129 71 128 78 125 85 121 91 115 100 112 102 105 108 101 110 98 111 92 113 89 114 87 114 86 114 85 115 85 115 85 115 86 115 88 114 94 114 102 112 105 112 112 110 120 109 127 108 134 107 140 108 142 109 " />
        <polyline stroke="black" stroke-width="3" stroke-linecap="round" fill="transparent" stroke-linejoin="round" points="76 151 75 151 74 151 74 152 77 151 81 150 86 149 93 147 101 146 109 145 119 144 133 142 142 141 151 140 158 139 161 139 164 139 " />
        <polyline stroke="black" stroke-width="3" stroke-linecap="round" fill="transparent" stroke-linejoin="round" points="126 131 123 135 121 137 115 147 113 151 107 157 101 163 95 168 85 174 78 178 76 179 72 181 70 183 68 184 66 184 65 185 65 185 64 185 64 185 64 185 64 185 64 185 65 185 67 185 71 185 77 185 88 186 97 185 112 185 117 184 129 183 141 183 158 184 164 185 " />
        </svg>