<?xml version="1.0" standalone="no"?>
    <svg width="256" height="256" xmlns="http://www.w3.org/2000/svg" version="1.1">
    <polyline stroke="black" stroke-width="3" stroke-linecap="round" fill="transparent" stroke-linejoin="round" points="56.720458984375 88.73019409179688 72.19354248046875 87.84602355957031 81.477294921875 86.96185302734375 102.69744873046876 85.19351196289063 114.19171142578124 83.86724853515625 134.52767944335938 81.65681457519531 151.32696533203125 79.44638061523438 163.70538330078125 78.1201171875 172.547119140625 78.56221008300781 174.3154296875 79.00430297851563 174.3154296875 79.00430297851563 " />
        <polyline stroke="black" stroke-width="3" stroke-linecap="round" fill="transparent" stroke-linejoin="round" points="86.34027099609375 142.22264099121094 103.58163452148438 136.9176025390625 110.655029296875 135.14926147460938 118.612548828125 133.822998046875 134.52767944335938 130.7283935546875 149.11654663085938 128.5179443359375 160.168701171875 128.5179443359375 169.4525146484375 131.612548828125 169.4525146484375 131.612548828125 " />
        <polyline stroke="black" stroke-width="3" stroke-linecap="round" fill="transparent" stroke-linejoin="round" points="62.90966796875 218.70355224609375 74.4039306640625 214.28271484375 81.91940307617188 212.072265625 101.81332397460938 207.65139770507813 112.42333984375 205.44097900390625 133.64352416992188 202.34637451171875 150.88485717773438 201.46218872070313 162.82122802734375 201.904296875 168.126220703125 203.67263793945313 168.126220703125 203.67263793945313 " />
        </svg>