<?xml version="1.0" standalone="no"?>
    <svg width="256" height="256" xmlns="http://www.w3.org/2000/svg" version="1.1">
    <polyline stroke="black" stroke-width="3" stroke-linecap="round" fill="transparent" stroke-linejoin="round" points="70.11907958984375 61.38957214355469 79.66937255859375 59.55796813964844 89.21966552734375 57.72636413574219 107.50482177734376 53.379356384277344 125.44467163085938 50.49725341796875 140.82220458984375 48.545074462890625 161.4271240234375 47.93193817138672 165.3111572265625 48.81986999511719 165.73846435546875 48.91753387451172 165.74169921875 48.91827392578125 " />
        <polyline stroke="black" stroke-width="3" stroke-linecap="round" fill="transparent" stroke-linejoin="round" points="75.258056640625 109.90628051757817 81.18466186523438 108.6992645263672 87.11126708984375 107.49224853515624 100.92706298828124 104.0118408203125 125.56796264648438 100.066162109375 134.7470703125 99.38322448730467 144.77438354492188 100.4005126953125 158.8841552734375 101.05723571777344 161.834228515625 101.98289489746094 161.861083984375 101.99131774902344 " />
        <polyline stroke="black" stroke-width="3" stroke-linecap="round" fill="transparent" stroke-linejoin="round" points="56.546142578125 177.87452697753906 66.32818603515625 175.98681640625 76.1102294921875 174.09910583496094 87.95150756835938 172.02023315429688 98.53146362304688 170.59194946289063 131.656982421875 168.6315155029297 144.703857421875 168.73623657226563 173.57489013671875 168.98263549804688 183.719970703125 169.11740112304688 195.17523193359375 169.77720642089844 204.1322021484375 171.40615844726563 207.9217529296875 172.41751098632813 210.11480712890625 173.40304565429688 210.128173828125 173.40902709960938 " />
        </svg>