<?xml version="1.0" standalone="no"?>
    <svg width="256" height="256" xmlns="http://www.w3.org/2000/svg" version="1.1">
    <polyline stroke="black" stroke-width="3" stroke-linecap="round" fill="transparent" stroke-linejoin="round" points="44 111.25 66.5 101.25 109 86.25 126.5 78.75 152.75 67.5 165.25 62.5 179 58.75 184 57.5 189 57.5 191.5 57.5 194 60 195.25 66.25 197.75 91.25 196.5 125 190.25 156.25 181.5 178.75 179 185 175.25 190 172.75 192.5 171.5 192.5 170.25 191.25 170.25 191.25 " />
        <polyline stroke="black" stroke-width="3" stroke-linecap="round" fill="transparent" stroke-linejoin="round" points="131.5 92.5 135.25 116.25 137.75 151.25 139 172.5 135.25 223.75 131.5 272.5 130.25 295 126.5 326.25 125.25 341.25 125.25 341.25 " />
        </svg>