<?xml version="1.0" standalone="no"?>
    <svg width="256" height="256" xmlns="http://www.w3.org/2000/svg" version="1.1">
    <polyline stroke="black" stroke-width="3" stroke-linecap="round" fill="transparent" stroke-linejoin="round" points="84.62628173828125 79.71441650390625 86.00970458984375 93.08741760253906 86.4708251953125 98.62106323242188 86.93197631835938 103.69358825683594 87.39312744140625 111.07180786132813 87.39312744140625 114.76089477539063 87.39312744140625 115.2220458984375 89.23764038085938 111.99406433105467 98.92156982421876 97.69879150390624 114.13912963867188 78.79212951660156 132.12350463867188 62.652313232421875 147.80218505859375 52.50726318359375 160.2529296875 48.81816101074219 168.09228515625 50.201568603515625 171.32025146484375 55.7352294921875 167.631103515625 70.49165344238281 151.952392578125 87.55375671386719 124.28414916992188 105.53814697265624 103.99407958984376 114.76089477539063 94.31015014648438 117.98887634277344 92.00448608398438 117.52774047851563 93.38790893554688 114.76089477539063 102.14950561523438 107.84384155273438 117.3670654296875 99.5433349609375 132.58465576171875 94.4708251953125 132.58465576171875 94.4708251953125 " />
        <polyline stroke="black" stroke-width="3" stroke-linecap="round" fill="transparent" stroke-linejoin="round" points="96.61590576171876 147.0405731201172 81.3983154296875 159.0301513671875 77.248046875 162.25811767578125 73.5589599609375 165.0249481201172 69.869873046875 167.79177856445313 69.40869140625 167.33062744140625 75.86468505859375 162.71923828125 97.07699584960938 148.88511657714844 122.90072631835938 135.51211547851563 143.19085693359375 129.0561981201172 154.71923828125 127.21163940429688 159.3306884765625 128.13389587402344 157.02496337890625 135.51211547851563 134.89031982421875 160.41355895996094 105.37750244140624 183.470458984375 88.77655029296875 193.61550903320313 84.16513061523438 194.9989013671875 86.00970458984375 191.77093505859375 101.22723388671876 177.47567749023438 126.128662109375 159.95242309570313 143.65194702148438 147.96282958984375 143.65194702148438 147.96282958984375 " />
        <polyline stroke="black" stroke-width="3" stroke-linecap="round" fill="transparent" stroke-linejoin="round" points="120.13388061523438 28.989227294921875 114.60028076171876 85.24806213378906 114.13912963867188 137.8177947998047 116.90594482421876 203.2994079589844 118.28939819335938 232.81222534179688 118.28939819335938 232.81222534179688 " />
        </svg>