<?xml version="1.0" standalone="no"?>
    <svg width="256" height="256" xmlns="http://www.w3.org/2000/svg" version="1.1">
    <polyline stroke="black" stroke-width="3" stroke-linecap="round" fill="transparent" stroke-linejoin="round" points="79.93341064453125 85.60000610351563 83.1334228515625 109.06668090820313 85.2667236328125 112.26667785644533 85.2667236328125 104.8000030517578 85.2667236328125 104.8000030517578 " />
        <polyline stroke="black" stroke-width="3" stroke-linecap="round" fill="transparent" stroke-linejoin="round" points="86.3333740234375 73.86668395996094 111.93341064453124 66.40000915527344 132.2000732421875 63.20002746582031 147.1334228515625 61.066680908203125 150.3333740234375 61.066680908203125 150.3333740234375 62.13334655761719 150.3333740234375 64.26667785644531 147.1334228515625 70.66667175292969 141.8001708984375 83.4666748046875 132.2000732421875 95.20002746582033 132.2000732421875 95.20002746582033 " />
        <polyline stroke="black" stroke-width="3" stroke-linecap="round" fill="transparent" stroke-linejoin="round" points="93.80010986328124 106.933349609375 127.93341064453124 98.40000915527344 138.60009765625 96.26667785644533 140.7333984375 98.40000915527344 140.7333984375 98.40000915527344 " />
        <polyline stroke="black" stroke-width="3" stroke-linecap="round" fill="transparent" stroke-linejoin="round" points="83.1334228515625 156.00001525878906 86.3333740234375 160.26669311523438 " />
        <polyline stroke="black" stroke-width="3" stroke-linecap="round" fill="transparent" stroke-linejoin="round" points="86 160 86 160 " />
        <polyline stroke="black" stroke-width="3" stroke-linecap="round" fill="transparent" stroke-linejoin="round" points="86.3333740234375 144.26669311523438 130.0667724609375 125.06671142578124 155.666748046875 120.8000030517578 173.8001708984375 118.66667175292967 182.3333740234375 117.60000610351563 184.466796875 118.66667175292967 183.4000244140625 121.86668395996094 177 129.33334350585938 163.1334228515625 140.00001525878906 141.8001708984375 150.6666717529297 122.60003662109376 156.00001525878906 117.2667236328125 156.00001525878906 114.06671142578124 153.86668395996094 115.1334228515625 151.73338317871094 125.80010986328124 147.4666748046875 153.533447265625 140.00001525878906 162.0667724609375 137.86668395996094 164.2000732421875 136.80001831054688 163.1334228515625 136.80001831054688 163.1334228515625 136.80001831054688 " />
        <polyline stroke="black" stroke-width="3" stroke-linecap="round" fill="transparent" stroke-linejoin="round" points="121.53338623046876 19.46668243408203 121.53338623046876 39.73333740234375 122.60003662109376 77.06668090820313 125.80010986328124 124.00001525878906 126.86669921875 170.93336486816406 129 205.06671142578125 131.1334228515625 224.2666931152344 131.1334228515625 227.4666748046875 131.1334228515625 228.53335571289065 131.1334228515625 228.53335571289065 " />
        </svg>