<?xml version="1.0" standalone="no"?>
    <svg width="256" height="256" xmlns="http://www.w3.org/2000/svg" version="1.1">
    <polyline stroke="black" stroke-width="3" stroke-linecap="round" fill="transparent" stroke-linejoin="round" points="105.9793701171875 52.70746612548828 93.125 73.51931762695313 82.10693359375 89.43426513671875 70.476806640625 104.7371063232422 58.84661865234375 117.59147644042967 50.88916015625 124.93684387207033 45.99224853515625 129.2216339111328 45.99224853515625 129.2216339111328 45.99224853515625 129.2216339111328 " />
        <polyline stroke="black" stroke-width="3" stroke-linecap="round" fill="transparent" stroke-linejoin="round" points="100.4703369140625 117.59147644042967 88.22808837890625 136.56700134277344 77.21002197265625 150.0334930419922 66.80410766601563 164.11209106445313 58.84661865234375 172.6816864013672 54.56182861328125 176.9664764404297 54.56182861328125 176.9664764404297 54.56182861328125 176.9664764404297 " />
        <polyline stroke="black" stroke-width="3" stroke-linecap="round" fill="transparent" stroke-linejoin="round" points="101.08245849609376 140.2396697998047 99.85821533203124 151.25772094726563 94.34921264648438 166.560546875 80.27059936523438 191.65719604492188 69.2525634765625 207.5721435546875 58.234527587890625 218.59017944335935 47.82861328125 227.1597595214844 42.319580078125 233.28091430664065 42.319580078125 233.28091430664065 " />
        <polyline stroke="black" stroke-width="3" stroke-linecap="round" fill="transparent" stroke-linejoin="round" points="202.0811767578125 91.27059936523438 194.73583984375 104.12498474121094 182.4935302734375 117.59147644042967 166.57861328125 132.28219604492188 148.2152099609375 143.912353515625 131.6881103515625 151.25772094726563 121.89431762695313 153.09405517578125 121.89431762695313 153.09405517578125 " />
        <polyline stroke="black" stroke-width="3" stroke-linecap="round" fill="transparent" stroke-linejoin="round" points="169.02703857421875 61.27705383300781 162.9058837890625 86.37370300292969 149.43942260742188 123.71261596679688 142.09405517578125 145.74868774414063 137.1971435546875 168.3968963623047 137.80926513671875 186.76028442382813 142.09405517578125 203.287353515625 150.66363525390625 216.1417236328125 161.069580078125 224.7113037109375 172.69970703125 230.83245849609375 183.10565185546875 233.28091430664065 190.4510498046875 233.28091430664065 195.96002197265625 230.2203369140625 200.24481201171875 224.0992126464844 203.305419921875 208.18426513671875 203.305419921875 184.31182861328125 203.305419921875 184.31182861328125 " />
        </svg>