<?xml version="1.0" standalone="no"?>
    <svg width="256" height="256" xmlns="http://www.w3.org/2000/svg" version="1.1">
    <polyline stroke="black" stroke-width="3" stroke-linecap="round" fill="transparent" stroke-linejoin="round" points="73.41455078125 45.760536193847656 79.7882080078125 60.02534484863281 79.7882080078125 60.02534484863281 " />
        <polyline stroke="black" stroke-width="3" stroke-linecap="round" fill="transparent" stroke-linejoin="round" points="114.99496459960938 26.639633178710938 102.55120849609376 64.27444458007813 96.48104858398438 84.609375 87.07235717773438 105.55133056640624 77.9671630859375 123.15470886230467 69.46896362304688 135.2949676513672 69.46896362304688 135.2949676513672 " />
        <polyline stroke="black" stroke-width="3" stroke-linecap="round" fill="transparent" stroke-linejoin="round" points="67.95144653320313 69.73756408691406 84.644287109375 77.32522583007813 100.4266357421875 87.03742980957031 112.87039184570313 97.05314636230467 122.88613891601563 106.76535034179688 129.86676025390625 116.17405700683594 129.86676025390625 116.17405700683594 " />
        <polyline stroke="black" stroke-width="3" stroke-linecap="round" fill="transparent" stroke-linejoin="round" points="53.07965087890625 145.61419677734375 65.21990966796875 151.98782348632813 79.18118286132813 157.14744567871094 87.67935180664063 157.75445556640625 87.67935180664063 157.75445556640625 " />
        <polyline stroke="black" stroke-width="3" stroke-linecap="round" fill="transparent" stroke-linejoin="round" points="122.58261108398438 110.71095275878906 111.35284423828124 136.50900268554688 102.55120849609376 155.9333953857422 101.03366088867188 158.36148071289063 101.03366088867188 158.36148071289063 " />
        <polyline stroke="black" stroke-width="3" stroke-linecap="round" fill="transparent" stroke-linejoin="round" points="55.204132080078125 186.89108276367188 77.056640625 174.143798828125 91.92843627929688 165.34210205078125 107.7108154296875 155.32640075683594 111.65640258789063 151.98782348632813 111.65640258789063 151.98782348632813 " />
        <polyline stroke="black" stroke-width="3" stroke-linecap="round" fill="transparent" stroke-linejoin="round" points="87.67935180664063 113.13899230957033 83.12673950195313 132.8668975830078 80.09170532226563 158.96847534179688 77.66363525390625 180.82098388671875 74.32504272460938 201.76290893554688 68.8619384765625 219.97329711914065 68.8619384765625 219.97329711914065 " />
        <polyline stroke="black" stroke-width="3" stroke-linecap="round" fill="transparent" stroke-linejoin="round" points="78.27066040039063 177.1788787841797 92.23196411132813 186.58758544921875 101.94415283203124 192.96124267578125 114.69146728515624 199.63836669921875 117.7265625 199.94189453125 117.7265625 199.94189453125 " />
        <polyline stroke="black" stroke-width="3" stroke-linecap="round" fill="transparent" stroke-linejoin="round" points="159.00341796875 63.970947265625 146.8631591796875 109.1934051513672 139.27545166015625 138.33004760742188 133.20535278320313 160.48602294921875 127.43875122070313 176.26837158203125 123.79666137695313 182.9455108642578 123.79666137695313 182.9455108642578 " />
        <polyline stroke="black" stroke-width="3" stroke-linecap="round" fill="transparent" stroke-linejoin="round" points="142.00704956054688 133.4739532470703 158.69989013671875 139.8475799560547 165.98406982421875 142.27565002441406 170.53668212890625 142.27565002441406 170.53668212890625 142.27565002441406 " />
        <polyline stroke="black" stroke-width="3" stroke-linecap="round" fill="transparent" stroke-linejoin="round" points="212.42059326171875 45.153533935546875 202.10137939453125 90.98301696777344 193.6031494140625 127.40380859375 182.3734130859375 162.91407775878906 171.75067138671875 190.22964477539065 162.0384521484375 206.92251586914065 159.00341796875 210.56460571289065 159.00341796875 210.56460571289065 " />
        <polyline stroke="black" stroke-width="3" stroke-linecap="round" fill="transparent" stroke-linejoin="round" points="186.926025390625 118.60211181640624 204.8328857421875 131.04586791992188 220.615234375 148.64927673339844 233.05902099609375 165.34210205078125 241.253662109375 180.5174560546875 247.32379150390625 195.08575439453125 249.75189208984375 202.6734313964844 249.75189208984375 202.6734313964844 " />
        </svg>