<?xml version="1.0" standalone="no"?>
    <svg width="256" height="256" xmlns="http://www.w3.org/2000/svg" version="1.1">
    <polyline stroke="black" stroke-width="3" stroke-linecap="round" fill="transparent" stroke-linejoin="round" points="65 64 75 78 81 85 85 88 85 88 " />
        <polyline stroke="black" stroke-width="3" stroke-linecap="round" fill="transparent" stroke-linejoin="round" points="118 45 105 62 94 80 78 107 62 132 47 154 38 168 31 174 31 174 " />
        <polyline stroke="black" stroke-width="3" stroke-linecap="round" fill="transparent" stroke-linejoin="round" points="52 104 72 107 85 111 98 117 111 125 121 133 124 141 124 141 " />
        <polyline stroke="black" stroke-width="3" stroke-linecap="round" fill="transparent" stroke-linejoin="round" points="37 171 46 176 48 176 53 176 59 177 62 177 62 177 " />
        <polyline stroke="black" stroke-width="3" stroke-linecap="round" fill="transparent" stroke-linejoin="round" points="126 133 117 143 113 147 104 158 93 170 79 180 79 180 " />
        <polyline stroke="black" stroke-width="3" stroke-linecap="round" fill="transparent" stroke-linejoin="round" points="26 220 44 203 59 195 74 186 92 180 106 176 117 174 117 174 " />
        <polyline stroke="black" stroke-width="3" stroke-linecap="round" fill="transparent" stroke-linejoin="round" points="82 147 78 167 73 185 63 212 51 231 42 245 37 249 37 249 " />
        <polyline stroke="black" stroke-width="3" stroke-linecap="round" fill="transparent" stroke-linejoin="round" points="69 210 92 218 105 219 122 219 122 219 " />
        <polyline stroke="black" stroke-width="3" stroke-linecap="round" fill="transparent" stroke-linejoin="round" points="159 91 153 110 144 131 130 162 116 195 105 219 96 233 92 236 92 236 " />
        <polyline stroke="black" stroke-width="3" stroke-linecap="round" fill="transparent" stroke-linejoin="round" points="118 186 137 193 149 198 161 202 165 203 165 203 " />
        <polyline stroke="black" stroke-width="3" stroke-linecap="round" fill="transparent" stroke-linejoin="round" points="206 79 194 111 183 140 172 174 162 205 151 225 146 229 146 229 " />
        <polyline stroke="black" stroke-width="3" stroke-linecap="round" fill="transparent" stroke-linejoin="round" points="181 165 206 180 220 184 234 187 241 190 241 190 " />
        </svg>