<?xml version="1.0" standalone="no"?>
    <svg width="256" height="256" xmlns="http://www.w3.org/2000/svg" version="1.1">
    <polyline stroke="black" stroke-width="3" stroke-linecap="round" fill="transparent" stroke-linejoin="round" points="48 52 48 52 48 52 48 52 48 52 48 52 48 52 49 52 49 53 50 54 51 55 52 56 53 57 53 58 54 59 55 60 56 61 57 62 57 63 59 64 60 66 61 67 62 68 64 69 66 70 68 71 70 71 " />
        <polyline stroke="black" stroke-width="3" stroke-linecap="round" fill="transparent" stroke-linejoin="round" points="87 41 87 41 86 41 85 42 85 43 84 45 83 47 81 50 80 53 79 56 77 60 76 64 74 68 72 72 70 76 68 80 66 84 64 89 62 93 60 97 58 101 56 104 54 108 52 111 51 114 49 117 48 120 46 122 45 124 " />
        <polyline stroke="black" stroke-width="3" stroke-linecap="round" fill="transparent" stroke-linejoin="round" points="35 83 38 82 40 81 41 81 42 81 44 81 46 82 48 82 50 82 52 83 55 84 58 85 61 87 65 88 68 90 72 92 76 94 80 97 84 99 88 101 92 103 96 105 100 106 103 108 106 109 109 110 111 111 114 112 116 113 117 113 " />
        <polyline stroke="black" stroke-width="3" stroke-linecap="round" fill="transparent" stroke-linejoin="round" points="54 137 53 138 53 138 53 139 54 140 54 141 55 142 55 142 56 143 56 144 57 145 58 146 59 147 60 148 61 149 62 149 63 150 64 151 65 151 66 152 67 152 68 152 69 152 71 152 72 152 74 151 76 151 78 150 " />
        <polyline stroke="black" stroke-width="3" stroke-linecap="round" fill="transparent" stroke-linejoin="round" points="97 122 93 132 91 134 89 137 88 140 86 144 84 147 " />
        <polyline stroke="black" stroke-width="3" stroke-linecap="round" fill="transparent" stroke-linejoin="round" points="53 181 53 181 53 181 54 180 55 180 56 179 57 179 59 178 61 177 63 176 65 176 67 175 69 174 71 173 74 172 77 171 79 170 82 169 85 168 89 166 92 165 95 164 102 161 105 159 108 158 111 156 114 154 116 153 118 151 120 149 122 147 " />
        <polyline stroke="black" stroke-width="3" stroke-linecap="round" fill="transparent" stroke-linejoin="round" points="84 107 84 108 84 110 84 113 84 116 84 119 84 123 84 127 84 132 84 136 84 141 84 146 85 152 85 157 85 162 85 168 85 173 85 178 85 183 85 188 85 192 85 196 84 200 84 203 84 207 83 209 83 212 82 215 82 217 81 219 81 220 80 221 80 222 80 223 80 223 79 224 " />
        <polyline stroke="black" stroke-width="3" stroke-linecap="round" fill="transparent" stroke-linejoin="round" points="84 179 84 179 84 179 85 178 86 178 87 178 89 178 90 178 92 179 94 179 95 180 97 180 100 181 102 182 104 183 106 184 109 186 111 187 113 189 116 190 119 191 121 192 124 193 126 194 129 194 131 193 134 193 " />
        <polyline stroke="black" stroke-width="3" stroke-linecap="round" fill="transparent" stroke-linejoin="round" points="148 61 148 60 148 59 147 59 147 59 147 59 146 61 146 64 145 67 144 72 143 76 142 82 142 87 141 93 140 99 139 105 138 111 137 117 136 123 135 128 134 134 133 138 132 143 131 147 130 151 129 154 128 158 127 160 126 162 126 164 125 165 125 167 125 167 125 168 125 168 126 168 " />
        <polyline stroke="black" stroke-width="3" stroke-linecap="round" fill="transparent" stroke-linejoin="round" points="136 139 137 138 138 138 139 138 140 138 140 138 141 139 142 139 143 139 145 140 146 140 147 141 150 143 152 144 153 144 155 145 157 146 158 147 160 148 162 149 163 151 165 152 167 152 169 153 171 154 172 154 174 155 177 154 " />
        <polyline stroke="black" stroke-width="3" stroke-linecap="round" fill="transparent" stroke-linejoin="round" points="180 75 179 74 179 75 178 76 177 78 176 80 175 84 174 89 173 94 172 100 171 106 170 113 169 119 168 126 167 132 166 139 165 145 164 150 162 156 161 161 160 165 158 170 157 173 156 177 155 180 154 183 153 185 152 187 151 189 151 190 150 191 150 192 150 192 " />
        <polyline stroke="black" stroke-width="3" stroke-linecap="round" fill="transparent" stroke-linejoin="round" points="166 143 168 142 169 142 170 142 171 142 172 142 173 143 174 143 176 144 178 145 180 146 182 148 184 149 186 151 189 154 191 156 193 159 196 162 198 165 200 167 203 170 205 173 207 176 210 179 212 182 215 185 " />
        </svg>