<?xml version="1.0" standalone="no"?>
    <svg width="256" height="256" xmlns="http://www.w3.org/2000/svg" version="1.1">
    <polyline stroke="black" stroke-width="3" stroke-linecap="round" fill="transparent" stroke-linejoin="round" points="85.74081420898438 69.56607055664063 85.74081420898438 80.97586059570313 86.16339111328125 96.18893432617188 87.008544921875 110.13424682617188 89.96664428710938 136.33453369140625 91.656982421875 151.54759216308594 91.656982421875 157.88638305664063 90.38925170898438 156.61862182617188 91.656982421875 143.5184783935547 97.57318115234376 125.7698974609375 107.7152099609375 111.40200805664063 123.35089111328124 98.3018798828125 140.2542724609375 88.5823974609375 155.4674072265625 81.821044921875 167.29974365234375 77.172607421875 172.37078857421875 75.05966186523438 172.37078857421875 75.05966186523438 " />
        <polyline stroke="black" stroke-width="3" stroke-linecap="round" fill="transparent" stroke-linejoin="round" points="158.42547607421875 64.91763305664063 156.735107421875 73.79191589355469 152.086669921875 96.61151123046876 149.12860107421875 106.75357055664063 146.17050170898438 115.62785339355467 138.56393432617188 130.84092712402344 130.53485107421875 140.98297119140625 122.92831420898438 147.32174682617188 117.43466186523438 151.12503051757813 114.899169921875 151.97018432617188 115.32174682617188 151.54759216308594 122.92831420898438 149.43467712402344 138.98651123046875 145.63140869140625 154.1995849609375 142.67332458496094 161.383544921875 142.25071716308594 162.22869873046875 143.5184783935547 162.22869873046875 143.5184783935547 " />
        <polyline stroke="black" stroke-width="3" stroke-linecap="round" fill="transparent" stroke-linejoin="round" points="89.96664428710938 190.42544555664065 102.64422607421876 187.04476928710935 117.85726928710938 182.81890869140625 160.53839111328125 172.2542724609375 173.6385498046875 170.141357421875 184.625732421875 168.87359619140625 207.02276611328125 170.141357421875 207.02276611328125 170.141357421875 " />
        </svg>