<?xml version="1.0" standalone="no"?>
    <svg width="256" height="256" xmlns="http://www.w3.org/2000/svg" version="1.1">
    <polyline stroke="black" stroke-width="3" stroke-linecap="round" fill="transparent" stroke-linejoin="round" points="92.20791625976563 87.26866149902344 93.39651489257813 118.56771850585938 94.98126220703124 146.69725036621094 94.98126220703124 155.0172576904297 96.16983032226563 163.33724975585938 96.56600952148438 168.88394165039063 98.15081787109376 171.26107788085938 103.30130004882813 171.26107788085938 113.20602416992188 168.091552734375 130.24224853515625 160.96011352539063 150.447998046875 154.22486877441406 168.27655029296875 146.69725036621094 182.93560791015625 142.7353515625 189.27459716796875 139.1696319580078 192.4442138671875 135.60391235351563 193.236572265625 132.43438720703125 192.4442138671875 130.0572509765625 192.4442138671875 130.0572509765625 " />
        <polyline stroke="black" stroke-width="3" stroke-linecap="round" fill="transparent" stroke-linejoin="round" points="144.90130615234375 102.7200927734375 155.20220947265625 97.56961059570313 164.7108154296875 91.6267547607422 173.03082275390625 85.68388366699219 180.1622314453125 78.15626525878906 185.70892333984375 69.44007873535156 188.48223876953125 59.53529357910156 189.27459716796875 52.80005645751953 189.6708984375 50.02672576904297 191.25555419921875 69.04388427734375 195.217529296875 105.88961791992188 198.3870849609375 137.18865966796875 202.34893798828125 153.8286895751953 203.9337158203125 159.7715606689453 204.72613525390625 163.73345947265625 204.72613525390625 163.73345947265625 " />
        <polyline stroke="black" stroke-width="3" stroke-linecap="round" fill="transparent" stroke-linejoin="round" points="91.41555786132813 230.29348754882813 132.22320556640625 218.803955078125 168.27655029296875 208.1068115234375 202.7451171875 197.01345825195313 229.68609619140625 188.2972717285156 252.6651611328125 183.1468048095703 265.34326171875 181.16583251953125 278.813720703125 179.97727966308594 283.56805419921875 180.3734588623047 283.56805419921875 180.3734588623047 " />
        </svg>