<?xml version="1.0" standalone="no"?>
    <svg width="256" height="256" xmlns="http://www.w3.org/2000/svg" version="1.1">
    <polyline stroke="black" stroke-width="3" stroke-linecap="round" fill="transparent" stroke-linejoin="round" points="95.2318115234375 65.2740478515625 94.06219482421876 78.13984680175781 92.892578125 91.3955078125 91.72296142578124 102.70182800292967 90.55331420898438 114.00814819335938 90.1634521484375 131.5524139404297 90.94320678710938 143.24859619140625 92.502685546875 151.04605102539063 94.8419189453125 155.72451782226563 97.571044921875 158.843505859375 101.07989501953124 160.79287719726563 103.02926635742188 161.96249389648438 103.02926635742188 161.96249389648438 " />
        <polyline stroke="black" stroke-width="3" stroke-linecap="round" fill="transparent" stroke-linejoin="round" points="109.2672119140625 115.95750427246094 114.72543334960938 114.00814819335938 132.65960693359375 107.77017211914063 143.96591186523438 103.09170532226563 153.3228759765625 96.07398986816406 158.3912353515625 89.4461669921875 158.3912353515625 89.4461669921875 " />
        <polyline stroke="black" stroke-width="3" stroke-linecap="round" fill="transparent" stroke-linejoin="round" points="161.90008544921875 46.95002746582031 160.73046875 54.74748229980469 156.83172607421875 75.80059814453125 151.37347412109375 98.41322326660156 143.96591186523438 117.9068603515625 134.99884033203125 133.89166259765625 125.641845703125 145.19796752929688 116.284912109375 152.60552978515625 106.927978515625 156.89413452148438 101.46978759765624 158.0637664794922 99.9102783203125 158.45364379882813 98.74066162109376 158.45364379882813 100.69003295898438 157.67388916015625 108.48748779296876 156.1143798828125 122.91278076171876 152.21566772460938 141.62664794921875 145.58782958984375 149.42413330078125 143.24859619140625 149.42413330078125 143.24859619140625 " />
        <polyline stroke="black" stroke-width="3" stroke-linecap="round" fill="transparent" stroke-linejoin="round" points="62.87237548828125 212.25607299804688 82.36602783203125 206.40798950195313 121.353271484375 198.22064208984375 151.76336669921875 192.762451171875 178.66455078125 187.694091796875 190.75067138671875 185.7447204589844 207.905029296875 183.01560974121097 207.905029296875 183.01560974121097 " />
        </svg>