<?xml version="1.0" standalone="no"?>
    <svg width="256" height="256" xmlns="http://www.w3.org/2000/svg" version="1.1">
    <polyline stroke="black" stroke-width="3" stroke-linecap="round" fill="transparent" stroke-linejoin="round" points="91.666748046875 83.4666748046875 82.06671142578125 125.06671142578124 73.53338623046875 143.20001220703125 66.06671142578125 151.73338317871094 59.66668701171875 153.86668395996094 59.66668701171875 153.86668395996094 " />
        <polyline stroke="black" stroke-width="3" stroke-linecap="round" fill="transparent" stroke-linejoin="round" points="155.666748046875 76.00001525878906 178.0667724609375 73.86668395996094 185.533447265625 73.86668395996094 186.60009765625 74.93333435058594 186.60009765625 74.93333435058594 " />
        <polyline stroke="black" stroke-width="3" stroke-linecap="round" fill="transparent" stroke-linejoin="round" points="91.666748046875 144.26669311523438 120.466796875 134.6666717529297 148.2000732421875 129.33334350585938 177 126.1333465576172 183.4000244140625 125.06671142578124 186.60009765625 125.06671142578124 185.533447265625 125.06671142578124 181.2667236328125 125.06671142578124 181.2667236328125 125.06671142578124 " />
        <polyline stroke="black" stroke-width="3" stroke-linecap="round" fill="transparent" stroke-linejoin="round" points="89.53338623046875 136.80001831054688 89.53338623046875 161.33334350585938 89.53338623046875 179.4666748046875 88.466796875 189.06671142578125 87.4000244140625 191.20001220703125 86.3333740234375 191.20001220703125 86.3333740234375 191.20001220703125 " />
        <polyline stroke="black" stroke-width="3" stroke-linecap="round" fill="transparent" stroke-linejoin="round" points="127.93341064453124 140.00001525878906 130.0667724609375 158.1333465576172 132.2000732421875 173.06671142578125 132.2000732421875 180.53335571289065 133.2667236328125 183.73336791992188 133.2667236328125 183.73336791992188 " />
        <polyline stroke="black" stroke-width="3" stroke-linecap="round" fill="transparent" stroke-linejoin="round" points="171.666748046875 138.93336486816406 174.86669921875 170.93336486816406 177 201.86666870117188 178.0667724609375 226.40005493164065 179.1334228515625 249.86666870117188 179.1334228515625 249.86666870117188 " />
        </svg>