<?xml version="1.0" standalone="no"?>
    <svg width="256" height="256" xmlns="http://www.w3.org/2000/svg" version="1.1">
    <polyline stroke="black" stroke-width="3" stroke-linecap="round" fill="transparent" stroke-linejoin="round" points="55.46368408203125 79.2882080078125 73.17892456054688 73.61932373046875 90.8941650390625 67.950439453125 100.46038818359376 65.47032165527344 120.30148315429688 61.92726135253906 129.51339721679688 60.155731201171875 146.87435913085938 56.96699523925781 159.62933349609375 54.13255310058594 166.0068359375 52.36102294921875 168.1326904296875 52.0067138671875 168.1326904296875 52.0067138671875 " />
        <polyline stroke="black" stroke-width="3" stroke-linecap="round" fill="transparent" stroke-linejoin="round" points="68.2186279296875 120.74188232421875 67.86434936523438 135.6226806640625 67.51007080078125 150.50347900390625 67.51007080078125 157.58958435058594 67.51007080078125 164.67568969726563 67.15573120117188 176.013427734375 66.44711303710938 182.03662109375 66.09283447265625 183.8081512451172 66.09283447265625 183.0995330810547 67.51007080078125 177.7849578857422 71.40740966796875 164.67568969726563 77.43060302734375 149.79489135742188 85.57958984375 136.6855926513672 96.208740234375 125.34783935546876 110.026611328125 115.072998046875 124.90744018554688 107.63259887695313 137.30810546875 104.08953857421876 146.52001953125 105.15245056152344 153.60614013671875 111.52995300292967 162.81805419921875 132.43394470214844 166.361083984375 158.29820251464844 165.2982177734375 181.68231201171875 162.1094970703125 195.85452270507813 160.33795166015625 199.3975830078125 160.33795166015625 199.3975830078125 " />
        <polyline stroke="black" stroke-width="3" stroke-linecap="round" fill="transparent" stroke-linejoin="round" points="119.59286499023438 83.18557739257813 119.59286499023438 89.9173583984375 119.59286499023438 96.64913940429688 119.94720458984376 104.08953857421876 119.59286499023438 132.0796356201172 118.52996826171876 143.41738891601563 117.11273193359376 154.40084838867188 117.11273193359376 154.40084838867188 " />
        <polyline stroke="black" stroke-width="3" stroke-linecap="round" fill="transparent" stroke-linejoin="round" points="88.05972290039063 133.49685668945313 96.208740234375 132.0796356201172 104.35775756835938 130.66241455078125 115.69549560546876 129.5994873046875 129.15911865234375 128.53659057617188 136.24520874023438 128.89089965820313 138.725341796875 132.43394470214844 138.725341796875 132.43394470214844 " />
        <polyline stroke="black" stroke-width="3" stroke-linecap="round" fill="transparent" stroke-linejoin="round" points="82.03652954101563 178.13925170898438 91.602783203125 176.7220458984375 101.16903686523438 175.30484008789063 112.50677490234376 173.8876190185547 124.19882202148438 173.53330993652344 148.29159545898438 175.65914916992188 148.29159545898438 175.65914916992188 " />
        </svg>