<?xml version="1.0" standalone="no"?>
    <svg width="256" height="256" xmlns="http://www.w3.org/2000/svg" version="1.1">
    <polyline stroke="black" stroke-width="3" stroke-linecap="round" fill="transparent" stroke-linejoin="round" points="67.56964111328125 91.54049682617188 77.2890625 86.89205932617188 87.43112182617188 83.08879089355469 99.26351928710938 79.2855224609375 125.04119873046876 72.10157775878906 147.438232421875 67.45314025878906 163.4964599609375 64.07244873046875 169.4127197265625 62.80470275878906 177.8643798828125 61.53694152832031 179.13214111328125 61.53694152832031 179.13214111328125 61.53694152832031 " />
        <polyline stroke="black" stroke-width="3" stroke-linecap="round" fill="transparent" stroke-linejoin="round" points="75.59872436523438 122.38922119140624 74.75360107421875 139.7152099609375 75.17620849609375 151.54759216308594 75.17620849609375 162.9573974609375 76.02133178710938 172.67686462402344 77.2890625 191.2706298828125 77.711669921875 194.22869873046875 78.13424682617188 195.4964599609375 78.13424682617188 194.22869873046875 78.55682373046875 191.69320678710935 80.66976928710938 174.789794921875 83.62786865234375 161.68963623046875 89.96664428710938 151.12503051757813 102.22161865234376 140.1378173828125 120.81536865234376 128.30540466308594 138.141357421875 120.27629089355467 153.35443115234375 116.4730224609375 163.9190673828125 116.4730224609375 170.680419921875 120.27629089355467 176.59661865234375 131.26351928710938 178.2869873046875 149.0120849609375 174.48370361328125 164.22515869140625 166.87713623046875 173.9446258544922 166.87713623046875 173.9446258544922 " />
        <polyline stroke="black" stroke-width="3" stroke-linecap="round" fill="transparent" stroke-linejoin="round" points="120.81536865234376 87.73722839355469 121.23797607421876 104.2180633544922 121.23797607421876 115.62785339355467 121.23797607421876 128.30540466308594 120.39276123046876 151.54759216308594 116.16693115234376 173.09945678710938 113.63143920898438 176.9027099609375 113.63143920898438 176.9027099609375 " />
        <polyline stroke="black" stroke-width="3" stroke-linecap="round" fill="transparent" stroke-linejoin="round" points="97.57318115234376 155.77346801757813 106.87005615234376 151.12503051757813 125.04119873046876 144.3636474609375 133.0703125 141.82815551757813 145.74789428710938 139.29263305664063 152.50927734375 138.87005615234375 154.1995849609375 141.82815551757813 154.1995849609375 141.82815551757813 " />
        <polyline stroke="black" stroke-width="3" stroke-linecap="round" fill="transparent" stroke-linejoin="round" points="84.89559936523438 203.94818115234375 121.6605224609375 187.88995361328125 131.80258178710938 184.93182373046875 150.39633178710938 182.81890869140625 162.22869873046875 184.086669921875 162.22869873046875 184.086669921875 " />
        </svg>