<?xml version="1.0" standalone="no"?>
    <svg width="256" height="256" xmlns="http://www.w3.org/2000/svg" version="1.1">
    <polyline stroke="black" stroke-width="3" stroke-linecap="round" fill="transparent" stroke-linejoin="round" points="111.06591796875 48.29729461669922 120.09848022460938 46.24444580078125 144.73272705078125 40.49645233154297 157.04986572265625 37.62245178222656 165.671875 35.159027099609375 170.59869384765625 33.516746520996094 172.240966796875 32.69560241699219 172.65155029296875 32.2850341796875 172.65155029296875 32.2850341796875 " />
        <polyline stroke="black" stroke-width="3" stroke-linecap="round" fill="transparent" stroke-linejoin="round" points="88.4844970703125 99.20809936523438 89.7161865234375 103.72439575195313 91.35848999023438 113.1675262451172 91.35848999023438 116.8626708984375 90.94793701171876 118.09439086914063 90.537353515625 118.09439086914063 90.537353515625 118.09439086914063 " />
        <polyline stroke="black" stroke-width="3" stroke-linecap="round" fill="transparent" stroke-linejoin="round" points="113.52935791015624 74.16326904296875 123.79364013671876 69.23641967773438 134.46844482421875 64.72013854980469 143.91156005859375 61.84614562988281 151.71240234375 61.024993896484375 157.87103271484375 62.2567138671875 161.9766845703125 65.13070678710938 165.671875 76.21612548828125 165.671875 95.51296997070313 161.9766845703125 112.34637451171876 155.818115234375 125.4846649169922 155.818115234375 125.4846649169922 " />
        <polyline stroke="black" stroke-width="3" stroke-linecap="round" fill="transparent" stroke-linejoin="round" points="126.25701904296876 64.72013854980469 127.8992919921875 74.5738525390625 129.54159545898438 86.89097595214844 129.54159545898438 90.175537109375 129.13104248046875 95.92355346679688 127.8992919921875 100.4398193359375 125.43588256835938 103.72439575195313 124.20419311523438 104.9561004638672 124.20419311523438 104.9561004638672 " />
        <polyline stroke="black" stroke-width="3" stroke-linecap="round" fill="transparent" stroke-linejoin="round" points="105.31787109375 100.4398193359375 111.06591796875 98.38697814941406 123.79364013671876 94.28125 136.931884765625 91.40725708007813 147.19613647460938 89.76498413085938 153.354736328125 89.35440063476563 155.818115234375 89.35440063476563 155.818115234375 89.76498413085938 155.818115234375 89.76498413085938 " />
        <polyline stroke="black" stroke-width="3" stroke-linecap="round" fill="transparent" stroke-linejoin="round" points="106.13909912109376 128.7692108154297 112.297607421875 125.89520263671876 133.23675537109375 117.68380737304688 146.375 113.9886474609375 154.1759033203125 112.75694274902344 156.22869873046875 112.34637451171876 156.22869873046875 112.34637451171876 " />
        <polyline stroke="black" stroke-width="3" stroke-linecap="round" fill="transparent" stroke-linejoin="round" points="94.23251342773438 189.53372192382813 93.00079345703124 194.87115478515625 90.537353515625 205.5459899902344 88.07391357421875 217.0419921875 88.07391357421875 217.0419921875 " />
        <polyline stroke="black" stroke-width="3" stroke-linecap="round" fill="transparent" stroke-linejoin="round" points="116.4033203125 162.02545166015625 121.74072265625 157.09861755371094 141.03759765625 142.31805419921875 152.94415283203125 136.15948486328125 163.20843505859375 132.46435546875 171.41986083984375 131.23263549804688 177.1678466796875 131.64321899414063 180.86297607421875 134.10665893554688 184.96868896484375 140.67576599121094 188.2532958984375 159.15147399902344 188.663818359375 182.55401611328125 187.43212890625 199.38742065429688 184.96868896484375 212.52569580078125 181.2735595703125 220.73712158203125 176.3466796875 225.6639709472656 165.26123046875 229.76968383789065 157.04986572265625 230.18023681640625 157.04986572265625 230.18023681640625 " />
        <polyline stroke="black" stroke-width="3" stroke-linecap="round" fill="transparent" stroke-linejoin="round" points="74.52508544921875 193.2288818359375 85.199951171875 190.3548583984375 99.15936279296876 187.4808654785156 145.143310546875 179.68002319335938 175.9361572265625 177.2165985107422 202.62322998046875 176.39544677734375 223.5623779296875 176.39544677734375 237.521728515625 175.98486328125 246.5543212890625 175.57431030273438 249.01776123046875 175.1637420654297 249.01776123046875 175.1637420654297 " />
        </svg>