<?xml version="1.0" standalone="no"?>
    <svg width="256" height="256" xmlns="http://www.w3.org/2000/svg" version="1.1">
    <polyline stroke="black" stroke-width="3" stroke-linecap="round" fill="transparent" stroke-linejoin="round" points="83.56210327148438 60.58012390136719 90.6826171875 58.066986083984375 98.64093017578124 56.39155578613281 107.85577392578124 54.297271728515625 127.96087646484376 50.10870361328125 144.715087890625 47.59557342529297 151.835693359375 45.92015075683594 162.30706787109375 43.82586669921875 169.0087890625 42.15044403076172 171.9407958984375 41.31272888183594 172.359619140625 40.89387512207031 171.9407958984375 40.89387512207031 171.9407958984375 40.89387512207031 " />
        <polyline stroke="black" stroke-width="3" stroke-linecap="round" fill="transparent" stroke-linejoin="round" points="86.91293334960938 83.61721801757813 86.91293334960938 89.06234741210938 86.49407958984375 94.088623046875 86.49407958984375 99.95262145996094 86.0751953125 117.12571716308594 85.237548828125 124.66513061523438 84.39984130859375 129.27255249023438 83.14324951171875 130.52911376953125 82.30551147460938 130.52911376953125 82.30551147460938 130.52911376953125 " />
        <polyline stroke="black" stroke-width="3" stroke-linecap="round" fill="transparent" stroke-linejoin="round" points="88.58837890625 98.27719116210938 95.29010009765624 95.34518432617188 109.95004272460938 88.64349365234375 117.90829467773438 85.71148681640625 134.24371337890625 80.68521118164063 155.1865234375 77.75323486328125 164.8201904296875 79.42864990234375 171.10302734375 82.36064147949219 173.1973876953125 84.45492553710938 177.8048095703125 97.02061462402344 177.38592529296875 103.72233581542967 168.17108154296875 122.1519775390625 156.02423095703125 132.6234130859375 156.02423095703125 132.6234130859375 " />
        <polyline stroke="black" stroke-width="3" stroke-linecap="round" fill="transparent" stroke-linejoin="round" points="122.09686279296876 99.5337371826172 120.84030151367188 108.32974243164063 113.30087280273438 120.89543151855467 113.30087280273438 120.89543151855467 " />
        <polyline stroke="black" stroke-width="3" stroke-linecap="round" fill="transparent" stroke-linejoin="round" points="106.59921264648438 105.81658935546876 114.13861083984376 103.72233581542967 128.798583984375 100.7903289794922 141.3642578125 99.11489868164063 150.5791015625 98.696044921875 155.60540771484375 98.27719116210938 158.1185302734375 98.27719116210938 158.537353515625 98.27719116210938 155.1865234375 100.3714599609375 155.1865234375 100.3714599609375 " />
        <polyline stroke="black" stroke-width="3" stroke-linecap="round" fill="transparent" stroke-linejoin="round" points="104.0860595703125 135.55538940429688 111.62545776367188 133.87997436523438 120.00262451171876 132.6234130859375 128.798583984375 131.36685180664063 146.80941772460938 128.43484497070313 157.69964599609375 125.92169189453124 172.359619140625 122.98971557617188 176.5482177734375 121.73313903808594 176.5482177734375 121.73313903808594 " />
        <polyline stroke="black" stroke-width="3" stroke-linecap="round" fill="transparent" stroke-linejoin="round" points="84.39984130859375 175.76559448242188 83.56210327148438 182.46728515625 82.724365234375 190.0067138671875 81.0489501953125 203.8289794921875 79.79241943359375 213.462646484375 79.37353515625 216.81350708007813 78.53582763671875 219.32666015625 78.53582763671875 219.32666015625 " />
        <polyline stroke="black" stroke-width="3" stroke-linecap="round" fill="transparent" stroke-linejoin="round" points="100.31634521484376 160.686767578125 106.18035888671876 157.33592224121094 112.88201904296876 153.5662078857422 120.42144775390624 150.21536254882813 128.798583984375 146.864501953125 150.99798583984375 143.09481811523438 161.88818359375 143.51365661621094 169.0087890625 146.44566345214844 173.6162109375 151.05307006835938 177.38592529296875 164.03762817382813 176.967041015625 182.46728515625 171.9407958984375 200.05926513671875 163.9825439453125 212.62493896484375 154.34881591796875 221.0020751953125 136.33798217773438 228.12261962890625 136.33798217773438 228.12261962890625 " />
        <polyline stroke="black" stroke-width="3" stroke-linecap="round" fill="transparent" stroke-linejoin="round" points="46.702728271484375 176.60330200195313 59.2684326171875 174.50901794433594 73.92840576171875 172.83360290527344 107.01803588867188 169.90159606933594 140.94540405273438 171.15817260742188 174.0350341796875 174.09017944335938 198.3287353515625 177.85986328125 206.705810546875 179.53530883789063 219.271484375 182.46728515625 223.87896728515625 183.7238616943359 223.87896728515625 183.7238616943359 " />
        </svg>