<?xml version="1.0" standalone="no"?>
    <svg width="256" height="256" xmlns="http://www.w3.org/2000/svg" version="1.1">
    <polyline stroke="black" stroke-width="3" stroke-linecap="round" fill="transparent" stroke-linejoin="round" points="85.67376708984375 54.18940734863281 88.5609130859375 57.65399169921875 92.6029052734375 58.80885314941406 99.53204345703124 58.231414794921875 111.08065795898438 55.92169189453125 125.51641845703124 51.30226135253906 143.994140625 46.10539245605469 163.04931640625 41.48595428466797 177.485107421875 37.443946838378906 187.3013916015625 34.556793212890625 192.498291015625 33.401939392089844 194.2305908203125 33.401939392089844 193.653076171875 35.13422393798828 193.653076171875 35.13422393798828 " />
        <polyline stroke="black" stroke-width="3" stroke-linecap="round" fill="transparent" stroke-linejoin="round" points="87.98345947265625 100.9612274169922 90.87060546875 110.20010375976563 93.18032836914063 118.86154174804688 94.91262817382813 124.63583374023438 96.6448974609375 128.6778564453125 97.22235107421876 130.41014099121094 97.22235107421876 128.1004180908203 96.0675048828125 121.1712646484375 92.6029052734375 111.93238830566406 91.44805908203124 105.00323486328124 91.44805908203124 99.22892761230467 94.91262817382813 93.4546356201172 101.841796875 88.25776672363281 118.00982666015624 80.17375183105469 134.1778564453125 74.39944458007813 152.07818603515625 70.93487548828125 165.9365234375 69.20257568359375 175.7528076171875 69.20257568359375 181.527099609375 70.35743713378906 185.569091796875 73.24459838867188 188.45623779296875 76.13174438476563 189.03369140625 80.17375183105469 186.72393798828125 89.99005126953125 176.3302001953125 108.46780395507813 168.8236083984375 115.97439575195313 168.8236083984375 115.97439575195313 " />
        <polyline stroke="black" stroke-width="3" stroke-linecap="round" fill="transparent" stroke-linejoin="round" points="136.487548828125 70.93487548828125 134.75527954101563 79.01889038085938 131.86813354492188 90.56748962402344 126.09381103515624 105.58065795898438 120.31951904296876 115.39697265625 115.1226806640625 121.1712646484375 108.77093505859376 124.63583374023438 103.57406616210938 124.63583374023438 99.53204345703124 122.90354919433594 97.79977416992188 120.59382629394533 100.1094970703125 117.12925720214844 105.30636596679688 113.08724975585938 116.27752685546876 107.3129425048828 130.13583374023438 101.53865051269533 145.7264404296875 95.7643585205078 156.12017822265625 92.877197265625 163.04931640625 91.14491271972656 167.66876220703125 91.14491271972656 169.40106201171875 95.18692016601563 169.40106201171875 95.18692016601563 " />
        <polyline stroke="black" stroke-width="3" stroke-linecap="round" fill="transparent" stroke-linejoin="round" points="112.23553466796876 136.76187133789063 125.51641845703124 130.41014099121094 141.10699462890625 123.48098754882813 153.2330322265625 117.12925720214844 162.471923828125 113.08724975585938 169.978515625 109.04524230957033 169.978515625 109.04524230957033 " />
        <polyline stroke="black" stroke-width="3" stroke-linecap="round" fill="transparent" stroke-linejoin="round" points="100.1094970703125 167.3656463623047 98.377197265625 182.95623779296875 96.6448974609375 198.54684448242188 94.91262817382813 210.095458984375 93.75775146484376 216.4471740722656 93.75775146484376 216.4471740722656 " />
        <polyline stroke="black" stroke-width="3" stroke-linecap="round" fill="transparent" stroke-linejoin="round" points="126.6712646484375 148.8878936767578 137.64242553710938 142.53616333007813 148.61358642578125 138.49415588378906 158.429931640625 136.76187133789063 164.7816162109375 136.76187133789063 169.40106201171875 139.0715789794922 172.86566162109375 144.26844787597656 174.597900390625 155.81704711914063 174.0205078125 172.56251525878906 171.7108154296875 189.3079833984375 167.66876220703125 202.5888671875 161.89447021484375 209.51800537109375 148.03616333007813 214.71487426757813 148.03616333007813 214.71487426757813 " />
        <polyline stroke="black" stroke-width="3" stroke-linecap="round" fill="transparent" stroke-linejoin="round" points="63.731414794921875 192.7725524902344 77.5897216796875 191.04025268554688 98.95465087890624 188.7305603027344 124.93896484375 186.42083740234375 146.88128662109375 184.11111450195313 164.2042236328125 182.3788146972656 179.7947998046875 180.069091796875 192.498291015625 178.33680725097656 200.0048828125 176.60452270507813 205.7791748046875 176.60452270507813 212.130859375 176.60452270507813 212.130859375 176.60452270507813 " />
        </svg>