<?xml version="1.0" standalone="no"?>
    <svg width="256" height="256" xmlns="http://www.w3.org/2000/svg" version="1.1">
    <polyline stroke="black" stroke-width="3" stroke-linecap="round" fill="transparent" stroke-linejoin="round" points="78.36874389648438 62.5999755859375 89.37142944335938 57.832122802734375 101.47445678710938 52.33076477050781 123.47991943359376 42.42830657958984 151.35345458984375 31.05883026123047 165.656982421875 25.924224853515625 174.45916748046875 23.72368621826172 177.760009765625 24.09043884277344 177.760009765625 24.09043884277344 " />
        <polyline stroke="black" stroke-width="3" stroke-linecap="round" fill="transparent" stroke-linejoin="round" points="96.70660400390624 97.07516479492188 95.6063232421875 105.87734985351563 94.50604248046876 113.57925415039063 93.40576171875 120.91439819335938 91.20526123046876 131.55035400390625 90.10494995117188 135.2179412841797 89.00469970703125 139.6190185546875 88.27117919921875 140.3525390625 88.27117919921875 138.1519775390625 89.73822021484375 128.98306274414063 93.03903198242188 118.71385192871094 97.80685424804688 106.97760009765624 105.5087890625 96.34164428710938 115.41122436523438 86.80596923828125 128.98126220703125 77.63702392578125 142.55126953125 71.40216064453125 154.28753662109375 68.8348388671875 162.356201171875 71.03538513183594 168.957763671875 81.30461120605469 173.35888671875 103.31004333496094 170.4248046875 120.91439819335938 163.82318115234375 132.28387451171875 155.02099609375 138.1519775390625 149.88641357421875 138.885498046875 149.88641357421875 138.885498046875 " />
        <polyline stroke="black" stroke-width="3" stroke-linecap="round" fill="transparent" stroke-linejoin="round" points="124.58016967773438 65.90078735351563 126.04721069335938 77.270263671875 126.78070068359376 87.53947448730469 126.04721069335938 112.84573364257813 123.47991943359376 123.84844970703124 121.27935791015624 128.24954223632813 116.511474609375 134.11766052246094 112.11041259765624 137.78524780273438 112.11041259765624 137.78524780273438 " />
        <polyline stroke="black" stroke-width="3" stroke-linecap="round" fill="transparent" stroke-linejoin="round" points="106.24227905273438 129.71658325195313 113.57745361328124 126.7825164794922 138.88372802734375 116.5133056640625 146.21884155273438 113.94601440429688 159.78887939453125 110.64518737792967 161.6226806640625 110.64518737792967 161.98944091796875 113.21250915527344 161.98944091796875 113.21250915527344 " />
        <polyline stroke="black" stroke-width="3" stroke-linecap="round" fill="transparent" stroke-linejoin="round" points="142.18450927734375 146.95416259765625 150.61993408203125 144.02011108398438 157.955078125 141.4528045654297 168.957763671875 138.885498046875 168.957763671875 138.885498046875 " />
        <polyline stroke="black" stroke-width="3" stroke-linecap="round" fill="transparent" stroke-linejoin="round" points="100.00741577148438 181.06260681152344 100.00741577148438 193.5323486328125 99.64068603515624 203.80157470703125 99.64068603515624 213.3372802734375 98.90716552734376 230.2081298828125 98.17364501953124 238.64352416992188 97.44012451171876 242.6778564453125 97.07333374023438 243.04461669921875 97.07333374023438 241.57757568359375 97.07333374023438 241.57757568359375 " />
        <polyline stroke="black" stroke-width="3" stroke-linecap="round" fill="transparent" stroke-linejoin="round" points="141.084228515625 182.1628875732422 150.61993408203125 178.49530029296875 168.22430419921875 171.89366149902344 188.7626953125 168.95962524414063 197.1981201171875 171.89366149902344 204.16650390625 182.52963256835935 207.46734619140625 202.7012939453125 206.00030517578125 219.20538330078125 200.86572265625 229.84133911132813 193.163818359375 236.4429931640625 177.760009765625 242.3111267089844 177.760009765625 242.3111267089844 " />
        <polyline stroke="black" stroke-width="3" stroke-linecap="round" fill="transparent" stroke-linejoin="round" points="76.90170288085938 212.97052001953125 93.40576171875 211.13671875 112.47714233398438 208.9361572265625 132.28207397460938 206.00210571289065 151.35345458984375 203.434814453125 168.591064453125 201.9677734375 209.66790771484375 203.434814453125 227.6390380859375 206.00210571289065 240.84228515625 210.4032287597656 244.50982666015625 211.8702392578125 244.50982666015625 211.8702392578125 " />
        </svg>