<?xml version="1.0" standalone="no"?>
    <svg width="256" height="256" xmlns="http://www.w3.org/2000/svg" version="1.1">
    <polyline stroke="black" stroke-width="3" stroke-linecap="round" fill="transparent" stroke-linejoin="round" points="49.9166259765625 73.14346313476563 53.143463134765625 87.98687744140625 54.4342041015625 93.79518127441406 58.306396484375 97.02200317382813 67.98687744140625 95.08590698242188 67.98687744140625 95.08590698242188 " />
        <polyline stroke="black" stroke-width="3" stroke-linecap="round" fill="transparent" stroke-linejoin="round" points="105.41812133789063 47.97418975830078 97.02835083007813 66.68980407714844 85.41177368164063 86.05078125 71.21371459960938 104.12103271484376 60.24249267578125 115.73762512207033 49.271270751953125 124.7727508544922 42.1722412109375 128.6449432373047 38.300048828125 131.22640991210938 36.36395263671875 132.51715087890625 39.59075927734375 132.51715087890625 46.04443359375 131.22640991210938 58.306396484375 128.6449432373047 71.85906982421875 124.12738037109376 87.99322509765625 118.319091796875 98.9644775390625 113.80152893066406 106.0634765625 107.99322509765624 106.0634765625 107.99322509765624 " />
        <polyline stroke="black" stroke-width="3" stroke-linecap="round" fill="transparent" stroke-linejoin="round" points="71.21371459960938 51.84638214111328 71.21371459960938 62.81761169433594 66.6961669921875 98.312744140625 56.37030029296875 142.84300231933594 47.98052978515625 175.11129760742188 42.817626953125 190.60009765625 38.945404052734375 200.92593383789065 36.36395263671875 205.44351196289065 37.6546630859375 204.15277099609375 37.6546630859375 204.15277099609375 " />
        <polyline stroke="black" stroke-width="3" stroke-linecap="round" fill="transparent" stroke-linejoin="round" points="73.795166015625 128.6449432373047 90.57470703125 143.48837280273438 102.1912841796875 156.39569091796875 113.16250610351563 168.6576385498047 122.1976318359375 176.40203857421875 122.1976318359375 176.40203857421875 " />
        <polyline stroke="black" stroke-width="3" stroke-linecap="round" fill="transparent" stroke-linejoin="round" points="131.23275756835938 69.27127075195313 137.04107666015625 82.1785888671875 140.91326904296875 91.8590850830078 144.14007568359375 102.83030700683594 146.076171875 109.92933654785156 146.076171875 109.92933654785156 " />
        <polyline stroke="black" stroke-width="3" stroke-linecap="round" fill="transparent" stroke-linejoin="round" points="133.814208984375 66.04443359375 146.076171875 57.65467834472656 157.6927490234375 52.49175262451172 171.2454833984375 47.97418975830078 186.7342529296875 44.74736022949219 200.28692626953125 44.10198974609375 211.90350341796875 46.68345642089844 219.64794921875 52.49175262451172 226.1015625 64.75370788574219 228.03765869140625 83.46931457519531 222.874755859375 103.47567749023438 213.839599609375 116.38299560546876 213.839599609375 116.38299560546876 " />
        <polyline stroke="black" stroke-width="3" stroke-linecap="round" fill="transparent" stroke-linejoin="round" points="148.65765380859375 111.8654327392578 153.820556640625 101.53956604003906 162.2103271484375 97.02200317382813 173.826904296875 91.8590850830078 186.0888671875 87.34152221679688 196.41473388671875 84.11468505859375 203.5137939453125 81.53321838378906 207.385986328125 77.01565551757813 207.385986328125 77.01565551757813 " />
        <polyline stroke="black" stroke-width="3" stroke-linecap="round" fill="transparent" stroke-linejoin="round" points="183.5074462890625 49.264923095703125 182.862060546875 69.27127075195313 181.5712890625 84.76005554199219 178.9898681640625 99.6034698486328 174.4722900390625 110.57469177246094 168.66400146484375 117.67372131347656 161.56494140625 120.90055847167967 154.4659423828125 122.1912841796875 149.30300903320313 122.1912841796875 146.076171875 120.90055847167967 148.65765380859375 118.96446228027344 154.4659423828125 117.67372131347656 169.9547119140625 113.80152893066406 186.7342529296875 109.92933654785156 200.9322509765625 107.34786987304688 207.385986328125 106.05712890625 211.90350341796875 107.99322509765624 211.90350341796875 107.99322509765624 " />
        <polyline stroke="black" stroke-width="3" stroke-linecap="round" fill="transparent" stroke-linejoin="round" points="145.43081665039063 160.26788330078125 166.7279052734375 153.81422424316406 178.9898681640625 150.58738708496094 191.2518310546875 148.0059356689453 198.9962158203125 146.71519470214844 198.9962158203125 146.71519470214844 " />
        <polyline stroke="black" stroke-width="3" stroke-linecap="round" fill="transparent" stroke-linejoin="round" points="120.90692138671876 194.4722900390625 135.10494995117188 189.30935668945313 147.36691284179688 184.79180908203125 165.4371337890625 180.27423095703125 184.79815673828125 175.7566680908203 206.09521484375 171.8844757080078 223.5201416015625 168.6576385498047 236.42742919921875 166.72154235839844 241.59033203125 166.72154235839844 241.59033203125 166.72154235839844 " />
        <polyline stroke="black" stroke-width="3" stroke-linecap="round" fill="transparent" stroke-linejoin="round" points="178.344482421875 153.81422424316406 183.5074462890625 163.49472045898438 183.5074462890625 175.11129760742188 183.5074462890625 189.9547119140625 183.5074462890625 204.15277099609375 182.862060546875 215.12399291992188 181.5712890625 225.44985961914065 181.5712890625 225.44985961914065 " />
        </svg>