<?xml version="1.0" standalone="no"?>
    <svg width="256" height="256" xmlns="http://www.w3.org/2000/svg" version="1.1">
    <polyline stroke="black" stroke-width="3" stroke-linecap="round" fill="transparent" stroke-linejoin="round" points="57.53338623046875 95.20002746582033 78.86669921875 105.86669921875 88.466796875 104.8000030517578 88.466796875 104.8000030517578 " />
        <polyline stroke="black" stroke-width="3" stroke-linecap="round" fill="transparent" stroke-linejoin="round" points="122.60003662109376 56.800018310546875 108.7333984375 87.73333740234375 91.666748046875 111.20002746582033 91.666748046875 111.20002746582033 " />
        <polyline stroke="black" stroke-width="3" stroke-linecap="round" fill="transparent" stroke-linejoin="round" points="61.80010986328125 128.26669311523438 82.06671142578125 116.53335571289063 103.4000244140625 105.86669921875 122.60003662109376 98.40000915527344 125.80010986328124 95.20002746582033 125.80010986328124 95.20002746582033 " />
        <polyline stroke="black" stroke-width="3" stroke-linecap="round" fill="transparent" stroke-linejoin="round" points="89.53338623046875 56.800018310546875 91.666748046875 85.60000610351563 92.7333984375 113.33334350585938 88.466796875 151.73338317871094 82.06671142578125 174.1333465576172 75.66668701171875 188 71.4000244140625 193.33334350585935 66.06671142578125 189.06671142578125 66.06671142578125 189.06671142578125 " />
        <polyline stroke="black" stroke-width="3" stroke-linecap="round" fill="transparent" stroke-linejoin="round" points="86.3333740234375 140.00001525878906 109.80010986328124 159.20001220703125 114.06671142578124 161.33334350585938 119.4000244140625 163.4666748046875 120.466796875 161.33334350585938 120.466796875 161.33334350585938 " />
        <polyline stroke="black" stroke-width="3" stroke-linecap="round" fill="transparent" stroke-linejoin="round" points="136.466796875 66.40000915527344 141.8001708984375 98.40000915527344 145 103.73333740234376 146.0667724609375 102.66667175292967 146.0667724609375 96.26667785644533 146.0667724609375 96.26667785644533 " />
        <polyline stroke="black" stroke-width="3" stroke-linecap="round" fill="transparent" stroke-linejoin="round" points="140.7333984375 54.66667175292969 163.1334228515625 53.600006103515625 178.0667724609375 53.600006103515625 188.7333984375 52.533355712890625 196.2000732421875 52.533355712890625 200.4666748046875 54.66667175292969 200.4666748046875 56.800018310546875 200.4666748046875 63.20002746582031 200.4666748046875 71.73333740234375 200.4666748046875 86.66667175292969 200.4666748046875 95.20002746582033 199.4000244140625 100.53335571289063 197.2667236328125 102.66667175292967 197.2667236328125 102.66667175292967 " />
        <polyline stroke="black" stroke-width="3" stroke-linecap="round" fill="transparent" stroke-linejoin="round" points="172.7333984375 58.93333435058594 172.7333984375 80.26667785644531 174.86669921875 87.73333740234375 175.933349609375 90.933349609375 174.86669921875 90.933349609375 174.86669921875 90.933349609375 " />
        <polyline stroke="black" stroke-width="3" stroke-linecap="round" fill="transparent" stroke-linejoin="round" points="150.3333740234375 67.4666748046875 172.7333984375 69.60000610351563 183.4000244140625 69.60000610351563 189.8001708984375 71.73333740234375 189.8001708984375 71.73333740234375 " />
        <polyline stroke="black" stroke-width="3" stroke-linecap="round" fill="transparent" stroke-linejoin="round" points="152.466796875 88.80000305175781 180.2000732421875 88.80000305175781 189.8001708984375 88.80000305175781 191.933349609375 89.86669921875 191.933349609375 89.86669921875 " />
        <polyline stroke="black" stroke-width="3" stroke-linecap="round" fill="transparent" stroke-linejoin="round" points="136.466796875 125.06671142578124 174.86669921875 120.8000030517578 187.666748046875 120.8000030517578 194.0667724609375 121.86668395996094 194.0667724609375 121.86668395996094 " />
        <polyline stroke="black" stroke-width="3" stroke-linecap="round" fill="transparent" stroke-linejoin="round" points="115.1334228515625 158.1333465576172 139.666748046875 154.93336486816406 172.7333984375 152.80001831054688 201.533447265625 152.80001831054688 229.2667236328125 153.86668395996094 236.7333984375 154.93336486816406 237.800048828125 156.00001525878906 237.800048828125 156.00001525878906 " />
        <polyline stroke="black" stroke-width="3" stroke-linecap="round" fill="transparent" stroke-linejoin="round" points="175.933349609375 117.60000610351563 173.8001708984375 145.33334350585938 174.86669921875 181.60003662109375 177 201.86666870117188 177 214.66668701171875 177 225.33334350585935 177 225.33334350585935 " />
        </svg>