<?xml version="1.0" standalone="no"?>
    <svg width="256" height="256" xmlns="http://www.w3.org/2000/svg" version="1.1">
    <polyline stroke="black" stroke-width="3" stroke-linecap="round" fill="transparent" stroke-linejoin="round" points="56.466796875 68.53335571289063 60.7333984375 95.20002746582033 63.93341064453125 102.66667175292967 69.2667236328125 106.933349609375 73.53338623046875 105.86669921875 73.53338623046875 105.86669921875 " />
        <polyline stroke="black" stroke-width="3" stroke-linecap="round" fill="transparent" stroke-linejoin="round" points="116.2000732421875 47.20001983642578 104.466796875 74.93333435058594 95.93341064453124 94.1333465576172 87.4000244140625 109.06668090820313 87.4000244140625 109.06668090820313 " />
        <polyline stroke="black" stroke-width="3" stroke-linecap="round" fill="transparent" stroke-linejoin="round" points="49.00006103515625 136.80001831054688 70.3333740234375 124.00001525878906 94.86669921875 111.20002746582033 116.2000732421875 102.66667175292967 120.466796875 100.53335571289063 123.666748046875 97.33334350585938 123.666748046875 94.1333465576172 123.666748046875 94.1333465576172 " />
        <polyline stroke="black" stroke-width="3" stroke-linecap="round" fill="transparent" stroke-linejoin="round" points="84.2000732421875 51.46668243408203 85.2667236328125 98.40000915527344 86.3333740234375 127.20001220703124 84.2000732421875 153.86668395996094 78.86669921875 174.1333465576172 73.53338623046875 185.86666870117188 66.06671142578125 184.80001831054688 66.06671142578125 184.80001831054688 " />
        <polyline stroke="black" stroke-width="3" stroke-linecap="round" fill="transparent" stroke-linejoin="round" points="85.2667236328125 136.80001831054688 111.93341064453124 149.6000213623047 117.2667236328125 150.6666717529297 117.2667236328125 150.6666717529297 " />
        <polyline stroke="black" stroke-width="3" stroke-linecap="round" fill="transparent" stroke-linejoin="round" points="134.3333740234375 48.26667022705078 131.1334228515625 83.4666748046875 133.2667236328125 94.1333465576172 135.4000244140625 99.4666748046875 137.533447265625 104.8000030517578 138.60009765625 99.4666748046875 138.60009765625 99.4666748046875 " />
        <polyline stroke="black" stroke-width="3" stroke-linecap="round" fill="transparent" stroke-linejoin="round" points="145 45.066673278808594 165.2667236328125 35.46668243408203 171.666748046875 32.26667022705078 182.3333740234375 28.00000762939453 189.8001708984375 26.93334197998047 195.1334228515625 25.86669158935547 199.4000244140625 26.93334197998047 201.533447265625 30.133346557617188 201.533447265625 37.600006103515625 201.533447265625 53.600006103515625 200.4666748046875 70.66667175292969 199.4000244140625 79.20002746582031 198.3333740234375 87.73333740234375 198.3333740234375 90.933349609375 194.0667724609375 85.60000610351563 194.0667724609375 85.60000610351563 " />
        <polyline stroke="black" stroke-width="3" stroke-linecap="round" fill="transparent" stroke-linejoin="round" points="168.466796875 45.066673278808594 166.3333740234375 83.4666748046875 168.466796875 99.4666748046875 169.533447265625 103.73333740234376 170.60009765625 106.933349609375 167.4000244140625 102.66667175292967 167.4000244140625 102.66667175292967 " />
        <polyline stroke="black" stroke-width="3" stroke-linecap="round" fill="transparent" stroke-linejoin="round" points="145 82.40000915527344 182.3333740234375 69.60000610351563 188.7333984375 67.4666748046875 193 67.4666748046875 196.2000732421875 70.66667175292969 196.2000732421875 70.66667175292969 " />
        <polyline stroke="black" stroke-width="3" stroke-linecap="round" fill="transparent" stroke-linejoin="round" points="150.3333740234375 100.53335571289063 169.533447265625 94.1333465576172 180.2000732421875 92.00001525878906 185.533447265625 93.06668090820313 186.60009765625 97.33334350585938 186.60009765625 97.33334350585938 " />
        <polyline stroke="black" stroke-width="3" stroke-linecap="round" fill="transparent" stroke-linejoin="round" points="132.2000732421875 140.00001525878906 168.466796875 126.1333465576172 184.466796875 125.06671142578124 190.86669921875 125.06671142578124 190.86669921875 125.06671142578124 " />
        <polyline stroke="black" stroke-width="3" stroke-linecap="round" fill="transparent" stroke-linejoin="round" points="87.4000244140625 179.4666748046875 110.86669921875 167.73338317871094 147.1334228515625 156.00001525878906 185.533447265625 147.4666748046875 230.3333740234375 143.20001220703125 245.2667236328125 143.20001220703125 248.4666748046875 144.26669311523438 248.4666748046875 145.33334350585938 248.4666748046875 145.33334350585938 " />
        <polyline stroke="black" stroke-width="3" stroke-linecap="round" fill="transparent" stroke-linejoin="round" points="163.1334228515625 132.53334045410156 161 154.93336486816406 161 168.80001831054688 161 194.40005493164065 162.0667724609375 213.6000061035156 163.1334228515625 225.33334350585935 163.1334228515625 229.6000061035156 163.1334228515625 230.66668701171875 163.1334228515625 230.66668701171875 " />
        </svg>