<?xml version="1.0" standalone="no"?>
    <svg width="256" height="256" xmlns="http://www.w3.org/2000/svg" version="1.1">
    <polyline stroke="black" stroke-width="3" stroke-linecap="round" fill="transparent" stroke-linejoin="round" points="60.7333984375 76.00001525878906 83.1334228515625 100.53335571289063 97.00006103515624 98.40000915527344 97.00006103515624 98.40000915527344 " />
        <polyline stroke="black" stroke-width="3" stroke-linecap="round" fill="transparent" stroke-linejoin="round" points="115.1334228515625 56.800018310546875 102.3333740234375 76.00001525878906 86.3333740234375 103.73333740234376 67.1334228515625 132.53334045410156 67.1334228515625 132.53334045410156 " />
        <polyline stroke="black" stroke-width="3" stroke-linecap="round" fill="transparent" stroke-linejoin="round" points="46.86669921875 147.4666748046875 81.00006103515625 120.8000030517578 106.60003662109376 108.00001525878906 119.4000244140625 101.60000610351563 122.60003662109376 96.26667785644533 123.666748046875 88.80000305175781 123.666748046875 88.80000305175781 " />
        <polyline stroke="black" stroke-width="3" stroke-linecap="round" fill="transparent" stroke-linejoin="round" points="94.86669921875 50.40000915527344 90.60003662109376 72.80000305175781 88.466796875 106.933349609375 85.2667236328125 141.06671142578125 76.7333984375 183.73336791992188 72.466796875 195.4666748046875 68.2000732421875 196.53335571289065 68.2000732421875 196.53335571289065 " />
        <polyline stroke="black" stroke-width="3" stroke-linecap="round" fill="transparent" stroke-linejoin="round" points="79.93341064453125 138.93336486816406 105.53338623046876 156.00001525878906 116.2000732421875 162.40003967285156 121.53338623046876 164.53334045410156 123.666748046875 162.40003967285156 123.666748046875 162.40003967285156 " />
        <polyline stroke="black" stroke-width="3" stroke-linecap="round" fill="transparent" stroke-linejoin="round" points="149.2667236328125 62.13334655761719 149.2667236328125 83.4666748046875 149.2667236328125 90.933349609375 148.2000732421875 88.80000305175781 148.2000732421875 72.80000305175781 149.2667236328125 53.600006103515625 152.466796875 45.066673278808594 159.933349609375 39.73333740234375 169.533447265625 37.600006103515625 180.2000732421875 36.533355712890625 189.8001708984375 37.600006103515625 196.2000732421875 45.066673278808594 193 55.73333740234375 186.60009765625 67.4666748046875 181.2667236328125 76.00001525878906 177 81.33334350585938 177 79.20002746582031 177 79.20002746582031 " />
        <polyline stroke="black" stroke-width="3" stroke-linecap="round" fill="transparent" stroke-linejoin="round" points="173.8001708984375 52.533355712890625 173.8001708984375 72.80000305175781 173.8001708984375 84.53335571289063 173.8001708984375 90.933349609375 169.533447265625 96.26667785644533 165.2667236328125 93.06668090820313 162.0667724609375 84.53335571289063 158.86669921875 69.60000610351563 158.86669921875 63.20002746582031 162.0667724609375 61.066680908203125 168.466796875 61.066680908203125 175.933349609375 63.20002746582031 182.3333740234375 66.40000915527344 184.466796875 73.86668395996094 181.2667236328125 80.26667785644531 178.0667724609375 84.53335571289063 177 85.60000610351563 179.1334228515625 87.73333740234375 179.1334228515625 87.73333740234375 " />
        <polyline stroke="black" stroke-width="3" stroke-linecap="round" fill="transparent" stroke-linejoin="round" points="135.4000244140625 121.86668395996094 161 118.66667175292967 177 117.60000610351563 185.533447265625 117.60000610351563 185.533447265625 117.60000610351563 " />
        <polyline stroke="black" stroke-width="3" stroke-linecap="round" fill="transparent" stroke-linejoin="round" points="104.466796875 160.26669311523438 151.4000244140625 148.53334045410156 170.60009765625 144.26669311523438 200.4666748046875 141.06671142578125 215.4000244140625 142.1333465576172 219.666748046875 144.26669311523438 218.60009765625 148.53334045410156 213.2667236328125 151.73338317871094 213.2667236328125 151.73338317871094 " />
        <polyline stroke="black" stroke-width="3" stroke-linecap="round" fill="transparent" stroke-linejoin="round" points="157.8001708984375 122.93336486816406 162.0667724609375 164.53334045410156 166.3333740234375 198.66668701171875 166.3333740234375 238.13336181640625 162.0667724609375 250.933349609375 162.0667724609375 250.933349609375 " />
        </svg>