<?xml version="1.0" standalone="no"?>
    <svg width="256" height="256" xmlns="http://www.w3.org/2000/svg" version="1.1">
    <polyline stroke="black" stroke-width="3" stroke-linecap="round" fill="transparent" stroke-linejoin="round" points="78.0146484375 72.32621765136719 87.95892333984375 69.46702575683594 107.78961181640624 61.97271728515625 117.376708984375 57.98219299316406 130.50228881835938 53.15935516357422 136.47540283203125 53.006126403808594 136.57101440429688 53.050628662109375 136.59326171875 53.061004638671875 136.60238647460938 53.065216064453125 " />
        <polyline stroke="black" stroke-width="3" stroke-linecap="round" fill="transparent" stroke-linejoin="round" points="99.88290405273438 103.83262634277344 106.85845947265624 101.7209930419922 108.96786499023438 101.08390808105467 112.432373046875 100.32257080078124 113.26751708984376 100.0882568359375 113.75460815429688 100.09848022460938 114.6943359375 101.77513122558594 117.40731811523438 122.99505615234376 117.65435791015624 139.84649658203125 114.51007080078124 172.31243896484375 108.95065307617188 197.45138549804688 106.49899291992188 208.3221740722656 104.22991943359376 216.2921142578125 100.6881103515625 221.65872192382813 97.300537109375 225.5414123535156 96.05194091796876 226.57003784179688 93.19140625 226.98590087890625 90.73715209960938 227.14703369140625 82.6553955078125 224.9444580078125 75.023193359375 219.6591796875 68.08990478515625 210.85650634765625 68.07769775390625 209.58349609375 " />
        <polyline stroke="black" stroke-width="3" stroke-linecap="round" fill="transparent" stroke-linejoin="round" points="77.34164428710938 122.77703857421876 69.690185546875 154.175048828125 64.3262939453125 172.75970458984375 58.555633544921875 192.15350341796875 51.343994140625 214.56146240234375 50.6007080078125 218.7650451660156 50.5263671875 219.1854553222656 " />
        <polyline stroke="black" stroke-width="3" stroke-linecap="round" fill="transparent" stroke-linejoin="round" points="142.43829345703125 121.5620574951172 151.18170166015625 120.90228271484376 169.7393798828125 120.4588623046875 187.1578369140625 119.82183837890624 194.592529296875 118.70628356933594 203.71868896484375 115.86972045898438 205.839599609375 114.74032592773438 207.265380859375 113.82408142089844 208.20355224609375 112.76268005371094 208.97259521484375 112.1002197265625 209.26507568359375 111.8482666015625 " />
        <polyline stroke="black" stroke-width="3" stroke-linecap="round" fill="transparent" stroke-linejoin="round" points="177.94671630859375 65.29293823242188 177.93084716796875 78.01666259765625 178.3148193359375 113.64352416992188 178.40081787109375 134.76959228515625 178.86572265625 150.802978515625 179.61492919921875 183.6837615966797 179.99359130859375 201.3731384277344 180.0677490234375 207.30581665039065 179.369384765625 213.51763916015625 178.6392822265625 215.66693115234375 176.94140625 218.43576049804688 175.015380859375 220.5611267089844 174.107177734375 221.24627685546875 170.8936767578125 222.036376953125 167.02716064453125 221.92672729492188 150.89938354492188 213.9677734375 140.21115112304688 206.4775390625 138.15097045898438 204.62701416015625 " />
        </svg>