<?xml version="1.0" standalone="no"?>
    <svg width="256" height="256" xmlns="http://www.w3.org/2000/svg" version="1.1">
    <polyline stroke="black" stroke-width="3" stroke-linecap="round" fill="transparent" stroke-linejoin="round" points="97.48876953125 75.3411865234375 90.86077880859376 84.8690185546875 76.776123046875 104.75315856933594 62.277313232421875 125.4658203125 52.335205078125 139.13616943359375 47.36419677734375 144.10720825195313 46.121429443359375 144.93569946289063 46.121429443359375 144.93569946289063 " />
        <polyline stroke="black" stroke-width="3" stroke-linecap="round" fill="transparent" stroke-linejoin="round" points="119.02996826171876 77.41246032714844 128.14352416992188 77.82672119140625 137.67135620117188 78.240966796875 147.19915771484375 79.06947326660156 163.35504150390625 81.1407470703125 175.78265380859375 83.62625122070313 180.33941650390625 85.28326416015625 185.7247314453125 88.5972900390625 187.79595947265625 93.15408325195313 187.79595947265625 93.15408325195313 " />
        <polyline stroke="black" stroke-width="3" stroke-linecap="round" fill="transparent" stroke-linejoin="round" points="80.918701171875 146.17845153808594 78.847412109375 158.19180297851563 77.60467529296875 169.3766326904297 76.36190795898438 179.31869506835938 75.53338623046875 194.64605712890625 74.70492553710938 202.93112182617188 73.87640380859375 206.24514770507813 73.462158203125 206.24514770507813 73.462158203125 206.24514770507813 " />
        <polyline stroke="black" stroke-width="3" stroke-linecap="round" fill="transparent" stroke-linejoin="round" points="97.903076171875 137.06488037109375 104.11688232421876 134.16513061523438 111.57342529296876 130.85110473632813 126.072265625 125.0515594482422 133.11459350585938 122.98031616210938 145.95639038085938 121.3232879638672 154.65570068359375 122.15177917480467 157.5555419921875 123.39453125 162.1123046875 129.60833740234375 163.35504150390625 156.94903564453125 160.45526123046875 167.7196044921875 146.784912109375 191.74627685546875 136.84286499023438 200.44561767578125 129.800537109375 203.7596435546875 129.800537109375 203.7596435546875 " />
        <polyline stroke="black" stroke-width="3" stroke-linecap="round" fill="transparent" stroke-linejoin="round" points="98.73153686523438 175.17617797851563 105.359619140625 171.86215209960938 111.98764038085938 168.13388061523438 126.9007568359375 159.43455505371094 131.87179565429688 155.70628356933594 133.94305419921875 153.635009765625 134.77157592773438 151.97799682617188 134.77157592773438 151.14950561523438 133.94305419921875 149.90673828125 132.70028686523438 149.4924774169922 130.6290283203125 150.7352294921875 126.072265625 156.94903564453125 119.4442138671875 171.03363037109375 111.98764038085938 187.18951416015625 104.94537353515624 198.78857421875 98.73153686523438 205.4166259765625 92.103515625 209.97341918945313 87.13250732421875 212.45892333984375 84.64697265625 213.70172119140625 84.23272705078125 213.70172119140625 87.54672241210938 214.115966796875 102.04559326171876 212.87319946289065 122.343994140625 209.1449279785156 140.57113647460938 205.4166259765625 157.1412353515625 205.83090209960935 166.25482177734375 208.73065185546875 166.25482177734375 208.73065185546875 " />
        </svg>