<?xml version="1.0" standalone="no"?>
    <svg width="256" height="256" xmlns="http://www.w3.org/2000/svg" version="1.1">
    <polyline stroke="black" stroke-width="3" stroke-linecap="round" fill="transparent" stroke-linejoin="round" points="115.50326538085938 69.67623901367188 110.959716796875 78.35029602050781 99.807373046875 96.52450561523438 94.85076904296876 104.37248229980467 82.872314453125 120.48143005371094 77.502685546875 125.85107421875 75.85043334960938 127.50328063964844 75.85043334960938 127.50328063964844 " />
        <polyline stroke="black" stroke-width="3" stroke-linecap="round" fill="transparent" stroke-linejoin="round" points="120.45989990234376 76.69808959960938 128.72088623046875 76.69808959960938 145.65594482421875 77.11114501953125 161.764892578125 78.35029602050781 173.743408203125 80.00250244140625 180.7652587890625 81.24165344238281 182.41741943359375 82.0677490234375 182.41741943359375 82.89385986328125 182.41741943359375 82.89385986328125 " />
        <polyline stroke="black" stroke-width="3" stroke-linecap="round" fill="transparent" stroke-linejoin="round" points="89.06805419921875 167.98220825195313 90.30722045898438 179.547607421875 91.13330078125 189.4608154296875 91.54638671875 201.43927001953125 91.13330078125 204.74368286132813 90.30722045898438 206.80892944335935 89.48114013671875 206.3958740234375 89.48114013671875 206.3958740234375 " />
        <polyline stroke="black" stroke-width="3" stroke-linecap="round" fill="transparent" stroke-linejoin="round" points="117.9815673828125 122.95974731445313 124.17733764648438 122.13363647460938 130.7861328125 121.30752563476563 142.76458740234375 120.89447021484376 146.89511108398438 121.30752563476563 153.50390625 123.78582763671876 158.46051025390625 128.742431640625 162.177978515625 141.13394165039063 163.00408935546875 156.4167938232422 160.5257568359375 171.28660583496094 156.395263671875 180.78677368164065 156.395263671875 180.78677368164065 " />
        <polyline stroke="black" stroke-width="3" stroke-linecap="round" fill="transparent" stroke-linejoin="round" points="123.35125732421876 157.65594482421875 123.7642822265625 167.15609741210938 124.17733764648438 177.06930541992188 123.7642822265625 192.3521728515625 121.69906616210938 199.3740234375 118.80770874023438 201.85232543945313 114.26412963867188 201.85232543945313 114.26412963867188 201.85232543945313 " />
        <polyline stroke="black" stroke-width="3" stroke-linecap="round" fill="transparent" stroke-linejoin="round" points="117.15548706054688 180.78677368164065 125.41650390625 179.1345672607422 139.460205078125 176.2432098388672 151.025634765625 175.00405883789063 152.6778564453125 175.00405883789063 152.6778564453125 175.00405883789063 " />
        <polyline stroke="black" stroke-width="3" stroke-linecap="round" fill="transparent" stroke-linejoin="round" points="120.04684448242188 201.85232543945313 127.48175048828124 200.20013427734375 135.32968139648438 198.96096801757813 150.19952392578125 198.1348876953125 157.22137451171875 198.96096801757813 157.22137451171875 198.96096801757813 " />
        </svg>