<?xml version="1.0" standalone="no"?>
    <svg width="256" height="256" xmlns="http://www.w3.org/2000/svg" version="1.1">
    <polyline stroke="black" stroke-width="3" stroke-linecap="round" fill="transparent" stroke-linejoin="round" points="117.070556640625 61.084503173828125 112.0443115234375 70.29933166503906 106.18035888671876 81.18960571289063 92.35809326171876 104.2266845703125 77.69808959960938 129.3580780029297 65.13241577148438 148.62545776367188 57.593017578125 160.3534393310547 57.593017578125 160.3534393310547 " />
        <polyline stroke="black" stroke-width="3" stroke-linecap="round" fill="transparent" stroke-linejoin="round" points="124.61004638671876 61.50335693359375 132.56829833984375 63.17877197265625 141.78314208984375 65.2730712890625 158.95623779296875 71.13705444335938 167.3333740234375 74.48789978027344 181.99334716796875 81.60845947265625 192.0458984375 89.14787292480469 195.396728515625 92.49871826171876 195.396728515625 92.49871826171876 " />
        <polyline stroke="black" stroke-width="3" stroke-linecap="round" fill="transparent" stroke-linejoin="round" points="109.1123046875 149.46316528320313 107.01803588867188 159.09686279296875 103.66717529296876 178.36424255371094 101.57293701171876 195.11849975585935 99.05978393554688 205.58990478515625 99.05978393554688 205.58990478515625 " />
        <polyline stroke="black" stroke-width="3" stroke-linecap="round" fill="transparent" stroke-linejoin="round" points="114.976318359375 146.5311737060547 121.2591552734375 142.761474609375 127.96087646484376 138.99176025390625 148.48480224609375 131.03350830078125 160.21282958984375 129.77694702148438 168.5899658203125 131.45236206054688 174.0350341796875 135.2220458984375 178.2236328125 141.9237518310547 179.8990478515625 153.23287963867188 178.2236328125 166.2174072265625 173.1973876953125 177.5265350341797 166.91448974609375 185.48480224609375 163.144775390625 188.83566284179688 158.537353515625 192.6053771972656 158.537353515625 192.6053771972656 " />
        <polyline stroke="black" stroke-width="3" stroke-linecap="round" fill="transparent" stroke-linejoin="round" points="120.42144775390624 177.94540405273438 128.798583984375 173.7568359375 132.98715209960938 171.66256713867188 141.3642578125 167.47398376464844 149.322509765625 163.70428466796875 155.1865234375 159.9345703125 158.95623779296875 156.16485595703125 159.7939453125 152.39517211914063 158.95623779296875 150.30088806152344 158.1185302734375 149.0443115234375 157.28076171875 148.62545776367188 156.8619384765625 148.62545776367188 154.7677001953125 151.1385955810547 151.835693359375 158.2591552734375 146.80941772460938 170.40599060058594 138.4322509765625 186.322509765625 129.2174072265625 198.88821411132813 122.9345703125 204.752197265625 118.74603271484376 206.84649658203125 117.48944091796876 206.4276123046875 118.3271484375 204.33334350585935 124.191162109375 200.56365966796875 133.8248291015625 196.37506103515625 144.29623413085938 194.28079223632813 154.7677001953125 195.11849975585935 161.050537109375 197.2127990722656 161.050537109375 197.2127990722656 " />
        </svg>