<?xml version="1.0" standalone="no"?>
    <svg width="256" height="256" xmlns="http://www.w3.org/2000/svg" version="1.1">
    <polyline stroke="black" stroke-width="3" stroke-linecap="round" fill="transparent" stroke-linejoin="round" points="107.90081787109376 64.40740966796875 102.23193359375 72.91072082519531 83.45379638671875 98.77496337890624 73.88754272460938 112.94717407226563 65.0299072265625 124.63922119140624 49.7947998046875 140.2286376953125 44.83453369140625 144.8345947265625 43.417327880859375 145.89752197265625 43.417327880859375 145.89752197265625 " />
        <polyline stroke="black" stroke-width="3" stroke-linecap="round" fill="transparent" stroke-linejoin="round" points="147.2286376953125 33.937164306640625 158.92071533203125 33.22856140136719 171.67572021484375 32.51995086669922 192.93402099609375 33.58287048339844 211.712158203125 35.000083923339844 222.6956787109375 37.48021697998047 227.6558837890625 39.960350036621094 229.42742919921875 42.086181640625 229.42742919921875 42.086181640625 " />
        <polyline stroke="black" stroke-width="3" stroke-linecap="round" fill="transparent" stroke-linejoin="round" points="85.57958984375 141.64585876464844 84.8709716796875 151.56640625 84.8709716796875 159.71542358398438 85.22531127929688 167.15582275390625 85.93389892578125 178.84788513183594 86.996826171875 186.642578125 87.70541381835938 188.7684326171875 88.05975341796875 188.7684326171875 88.05975341796875 188.7684326171875 " />
        <polyline stroke="black" stroke-width="3" stroke-linecap="round" fill="transparent" stroke-linejoin="round" points="112.861083984375 118.9703369140625 121.01010131835938 113.30148315429688 130.22201538085938 107.27828979492188 140.14254760742188 100.90080261230467 159.62933349609375 92.39749145507813 176.28167724609375 87.43721008300781 187.9737548828125 86.72860717773438 195.7684326171875 88.5001220703125 200.72869873046875 93.46038818359376 205.33465576171875 106.92399597167967 205.68896484375 126.0564422607422 200.72869873046875 145.543212890625 191.51678466796875 165.02999877929688 189.03662109375 169.99026489257813 189.03662109375 169.99026489257813 " />
        <polyline stroke="black" stroke-width="3" stroke-linecap="round" fill="transparent" stroke-linejoin="round" points="114.98690795898438 147.3147430419922 122.072998046875 144.8345947265625 138.37103271484375 140.2286376953125 146.16574096679688 137.74851989746094 159.2750244140625 133.85116577148438 170.25848388671875 130.66241455078125 176.990234375 128.53659057617188 180.17901611328125 126.0564422607422 181.241943359375 124.9935302734375 181.241943359375 124.9935302734375 " />
        <polyline stroke="black" stroke-width="3" stroke-linecap="round" fill="transparent" stroke-linejoin="round" points="149.3544921875 115.78160095214844 146.87435913085938 122.86770629882813 144.74853515625 129.95379638671875 142.26840209960938 138.81143188476563 140.496826171875 145.18890380859375 138.725341796875 150.8577880859375 133.76507568359375 162.90415954589844 130.22201538085938 170.34457397460938 122.42733764648438 183.8081512451172 122.42733764648438 183.8081512451172 " />
        <polyline stroke="black" stroke-width="3" stroke-linecap="round" fill="transparent" stroke-linejoin="round" points="101.5233154296875 192.665771484375 110.026611328125 190.1856384277344 119.59286499023438 187.3511962890625 129.51339721679688 183.8081512451172 149.3544921875 177.7849578857422 166.0068359375 173.8876190185547 179.47039794921875 172.1160888671875 190.09954833984375 172.4703826904297 190.09954833984375 172.4703826904297 " />
        </svg>