<?xml version="1.0" standalone="no"?>
    <svg width="256" height="256" xmlns="http://www.w3.org/2000/svg" version="1.1">
    <polyline stroke="black" stroke-width="3" stroke-linecap="round" fill="transparent" stroke-linejoin="round" points="81.18853759765625 65.36158752441406 72.57650756835938 78.46998596191406 61.462860107421875 94.56427001953124 49.639892578125 111.01919555664063 29.61981201171875 140.35630798339844 20.67596435546875 153.83897399902344 10.02069091796875 174.80294799804688 7.64593505859375 179.81427001953125 7.408447265625 180.31541442871097 " />
        <polyline stroke="black" stroke-width="3" stroke-linecap="round" fill="transparent" stroke-linejoin="round" points="112.25927734375 52.82038879394531 123.82772827148438 58.057098388671875 137.93890380859375 65.40213012695313 167.09698486328125 81.96116638183594 175.00469970703125 88.49716186523438 204.814453125 105.70486450195313 207.3875732421875 107.37319946289063 206.5556640625 111.84027099609376 231.967529296875 123.23521423339844 234.170166015625 123.20623779296876 " />
        <polyline stroke="black" stroke-width="3" stroke-linecap="round" fill="transparent" stroke-linejoin="round" points="69.32601928710938 161.86473083496094 74.40841674804688 187.9039001464844 76.27069091796875 199.4840087890625 77.86737060546875 211.07620239257813 81.37860107421875 214.72467041015625 81.809814453125 213.08151245117188 " />
        <polyline stroke="black" stroke-width="3" stroke-linecap="round" fill="transparent" stroke-linejoin="round" points="105.75726318359376 116.3091278076172 114.96923828125 114.14927673339844 137.89453125 111.6717529296875 147.0283203125 112.7585906982422 161.32470703125 115.49462890625 164.8936767578125 117.45465087890624 165.9578857421875 120.88949584960938 166.87786865234375 127.39376831054688 167.4544677734375 135.58309936523438 167.60479736328125 160.7775115966797 166.39520263671875 175.50865173339844 161.46405029296875 198.26373291015625 154.3594970703125 214.55413818359375 150.9105224609375 217.73773193359375 146.60418701171875 219.18695068359375 146.73336791992188 215.721435546875 " />
        <polyline stroke="black" stroke-width="3" stroke-linecap="round" fill="transparent" stroke-linejoin="round" points="117.51861572265624 158.30625915527344 119.30322265625 173.1165771484375 120.25936889648438 187.220458984375 120.1787109375 208.43374633789065 118.90768432617188 212.32009887695313 116.96380615234376 213.52169799804688 113.07379150390624 215.17849731445313 112.44601440429688 214.12142944335935 " />
        <polyline stroke="black" stroke-width="3" stroke-linecap="round" fill="transparent" stroke-linejoin="round" points="122.1341552734375 164.63259887695313 131.28414916992188 163.61489868164063 139.34246826171875 162.58517456054688 149.16339111328125 162.13897705078125 151.21197509765625 163.00143432617188 151.04791259765625 164.7415008544922 150.99313354492188 165.3227996826172 " />
        <polyline stroke="black" stroke-width="3" stroke-linecap="round" fill="transparent" stroke-linejoin="round" points="112.26080322265624 204.41534423828125 128.64047241210938 204.9561767578125 135.474853515625 206.31396484375 145.739013671875 209.16900634765625 147.58441162109375 209.761962890625 149.73617553710938 209.73876953125 149.85491943359375 209.62844848632813 " />
        </svg>