<?xml version="1.0" standalone="no"?>
    <svg width="256" height="256" xmlns="http://www.w3.org/2000/svg" version="1.1">
    <polyline stroke="black" stroke-width="3" stroke-linecap="round" fill="transparent" stroke-linejoin="round" points="96.98529052734376 80.17555236816406 81.76776123046875 99.5433349609375 69.31698608398438 115.68316650390624 59.171966552734375 126.75048828125 44.41552734375 141.96804809570313 38.420745849609375 146.1182861328125 37.49847412109375 145.19601440429688 37.49847412109375 145.19601440429688 " />
        <polyline stroke="black" stroke-width="3" stroke-linecap="round" fill="transparent" stroke-linejoin="round" points="118.65878295898438 77.86985778808594 144.48251342773438 80.63668823242188 168.92279052734375 86.17034912109375 191.5185546875 92.16513061523438 196.591064453125 93.54855346679688 199.35791015625 96.77651977539063 199.35791015625 96.77651977539063 " />
        <polyline stroke="black" stroke-width="3" stroke-linecap="round" fill="transparent" stroke-linejoin="round" points="85.45684814453125 159.49130249023438 83.151123046875 171.01974487304688 81.30661010742188 183.470458984375 78.07861328125 211.13873291015625 77.15634155273438 220.36151123046875 76.6951904296875 222.2060546875 77.61749267578125 219.43923950195313 83.61227416992188 204.2216796875 94.21844482421876 183.470458984375 106.669189453125 165.0249481201172 120.50335693359376 150.7296600341797 135.72088623046875 140.58462524414063 150.93841552734375 134.58984375 157.85546875 133.66757202148438 173.995361328125 139.662353515625 177.6844482421875 142.89031982421875 185.0626220703125 159.49130249023438 184.60150146484375 166.40835571289063 171.68963623046875 186.69842529296875 171.68963623046875 186.69842529296875 " />
        <polyline stroke="black" stroke-width="3" stroke-linecap="round" fill="transparent" stroke-linejoin="round" points="123.73129272460938 165.0249481201172 118.65878295898438 178.39794921875 113.12509155273438 187.1595764160156 107.59149169921876 191.77093505859375 102.05780029296876 193.61550903320313 99.75213623046876 193.15435791015625 96.98529052734376 190.84869384765625 99.75213623046876 188.08184814453125 112.66400146484376 183.0093231201172 129.72607421875 179.78135681152344 142.637939453125 178.39794921875 148.63275146484375 178.85906982421875 149.55502319335938 178.85906982421875 148.63275146484375 179.78135681152344 128.3426513671875 189.9263916015625 121.42559814453124 193.15435791015625 109.43600463867188 197.7657470703125 107.59149169921876 198.22686767578125 109.89715576171876 197.7657470703125 124.653564453125 194.53778076171875 149.0938720703125 191.77093505859375 149.0938720703125 191.77093505859375 " />
        </svg>