<?xml version="1.0" standalone="no"?>
    <svg width="256" height="256" xmlns="http://www.w3.org/2000/svg" version="1.1">
    <polyline stroke="black" stroke-width="3" stroke-linecap="round" fill="transparent" stroke-linejoin="round" points="136 61 135 61 135 63 128 75 111 98 102 108 86 122 65 137 56 141 47 147 44 148 43 149 43 149 43 149 " />
        <polyline stroke="black" stroke-width="3" stroke-linecap="round" fill="transparent" stroke-linejoin="round" points="133 73 136 73 157 85 177 95 207 112 223 122 229 123 235 127 237 127 237 128 238 128 238 128 " />
        <polyline stroke="black" stroke-width="3" stroke-linecap="round" fill="transparent" stroke-linejoin="round" points="87 148 87 151 87 153 91 160 95 177 98 187 103 208 106 225 107 231 108 235 108 237 108 238 108 238 " />
        <polyline stroke="black" stroke-width="3" stroke-linecap="round" fill="transparent" stroke-linejoin="round" points="102 161 106 160 129 156 155 151 167 148 184 144 191 142 201 141 206 141 207 141 210 143 212 147 213 151 214 165 214 179 213 184 210 195 207 203 206 206 204 209 203 210 203 210 " />
        <polyline stroke="black" stroke-width="3" stroke-linecap="round" fill="transparent" stroke-linejoin="round" points="151 155 150 174 148 179 148 195 147 207 147 212 147 217 147 220 147 221 147 222 147 222 " />
        <polyline stroke="black" stroke-width="3" stroke-linecap="round" fill="transparent" stroke-linejoin="round" points="113 198 130 195 145 191 171 186 187 183 191 182 195 181 197 181 197 181 " />
        <polyline stroke="black" stroke-width="3" stroke-linecap="round" fill="transparent" stroke-linejoin="round" points="131 230 139 230 153 229 182 225 197 222 202 220 206 219 207 219 207 219 " />
        </svg>