<?xml version="1.0" standalone="no"?>
    <svg width="256" height="256" xmlns="http://www.w3.org/2000/svg" version="1.1">
    <polyline stroke="black" stroke-width="3" stroke-linecap="round" fill="transparent" stroke-linejoin="round" points="72 67 79 65 87 65 109 62 133 61 155 61 171 61 181 61 181 61 " />
        <polyline stroke="black" stroke-width="3" stroke-linecap="round" fill="transparent" stroke-linejoin="round" points="56 103 72 103 106 100 119 99 153 96 163 95 178 93 182 92 182 92 " />
        <polyline stroke="black" stroke-width="3" stroke-linecap="round" fill="transparent" stroke-linejoin="round" points="139 40 127 55 125 65 115 84 103 109 90 133 78 151 70 162 70 162 " />
        <polyline stroke="black" stroke-width="3" stroke-linecap="round" fill="transparent" stroke-linejoin="round" points="118 104 150 118 166 129 180 138 194 147 205 154 205 154 " />
        <polyline stroke="black" stroke-width="3" stroke-linecap="round" fill="transparent" stroke-linejoin="round" points="110 150 131 149 138 149 160 153 171 158 175 159 175 159 " />
        <polyline stroke="black" stroke-width="3" stroke-linecap="round" fill="transparent" stroke-linejoin="round" points="121 198 122 198 126 198 142 200 162 206 170 210 170 210 " />
        </svg>