<?xml version="1.0" standalone="no"?>
    <svg width="256" height="256" xmlns="http://www.w3.org/2000/svg" version="1.1">
    <polyline stroke="black" stroke-width="3" stroke-linecap="round" fill="transparent" stroke-linejoin="round" points="70.752685546875 91.96551513671876 71.43731689453125 96.75784301757813 72.12191772460938 101.20782470703124 73.14886474609375 107.36936950683594 73.83343505859375 110.79246520996094 73.83343505859375 111.47708129882813 73.83343505859375 111.134765625 73.83343505859375 109.08091735839844 74.51806640625 106.34245300292967 76.5718994140625 101.55014038085938 78.625732421875 98.46937561035156 85.814208984375 90.9385986328125 99.16424560546876 81.35398864746094 126.20654296875 69.37319946289063 133.7373046875 67.31935119628906 151.537353515625 66.63473510742188 157.69891357421875 69.03089904785156 161.12200927734375 73.48089599609375 163.17584228515625 82.38090515136719 160.7796630859375 90.59629821777344 156.3297119140625 95.73092651367188 156.3297119140625 95.73092651367188 " />
        <polyline stroke="black" stroke-width="3" stroke-linecap="round" fill="transparent" stroke-linejoin="round" points="123.46810913085938 48.83470916748047 123.81039428710938 57.73472595214844 124.1527099609375 69.03089904785156 124.49505615234376 81.6962890625 123.81039428710938 107.36936950683594 123.81039428710938 107.36936950683594 " />
        <polyline stroke="black" stroke-width="3" stroke-linecap="round" fill="transparent" stroke-linejoin="round" points="62.879608154296875 152.55401611328125 72.46420288085938 146.7347869873047 83.7603759765625 141.60018920898438 95.74118041992188 137.15017700195313 116.27963256835938 131.3309326171875 133.7373046875 127.90786743164063 149.14120483398438 125.51170349121094 163.5181884765625 123.45785522460938 167.6258544921875 122.7732391357422 167.6258544921875 122.7732391357422 " />
        <polyline stroke="black" stroke-width="3" stroke-linecap="round" fill="transparent" stroke-linejoin="round" points="114.568115234375 121.40399169921876 98.4796142578125 143.31170654296875 87.5257568359375 159.4001922607422 80.67962646484375 169.32711791992188 77.25653076171875 174.46173095703125 77.25653076171875 174.46173095703125 " />
        <polyline stroke="black" stroke-width="3" stroke-linecap="round" fill="transparent" stroke-linejoin="round" points="127.9180908203125 145.70787048339844 134.42196655273438 147.07711791992188 141.26812744140625 148.78863525390625 148.1142578125 150.84249877929688 160.0950927734375 155.6348114013672 168.31048583984375 159.4001922607422 172.07586669921875 161.79635620117188 172.07586669921875 161.79635620117188 " />
        <polyline stroke="black" stroke-width="3" stroke-linecap="round" fill="transparent" stroke-linejoin="round" points="113.88348388671876 186.4425048828125 108.74887084960938 193.63101196289065 106.69500732421876 196.7117919921875 102.58734130859376 203.55792236328125 101.56039428710938 204.92718505859375 100.533447265625 205.9541015625 100.191162109375 205.61175537109375 101.56039428710938 200.13482666015625 106.35272216796876 191.23483276367188 112.17196655273438 184.04638671875 121.41424560546876 176.17327880859375 132.36810302734375 170.01174926757813 143.32196044921875 165.56173706054688 152.22198486328125 163.50787353515625 157.69891357421875 163.85018920898438 160.7796630859375 164.8771209716797 161.80657958984375 168.30020141601563 158.725830078125 178.56944274902344 149.14120483398438 191.91943359375 149.14120483398438 191.91943359375 " />
        <polyline stroke="black" stroke-width="3" stroke-linecap="round" fill="transparent" stroke-linejoin="round" points="102.92962646484376 205.26947021484375 109.4334716796875 202.531005859375 123.46810913085938 198.08099365234375 129.629638671875 196.7117919921875 149.14120483398438 196.7117919921875 149.14120483398438 196.7117919921875 " />
        </svg>