<?xml version="1.0" standalone="no"?>
    <svg width="256" height="256" xmlns="http://www.w3.org/2000/svg" version="1.1">
    <polyline stroke="black" stroke-width="3" stroke-linecap="round" fill="transparent" stroke-linejoin="round" points="61.029052734375 96.92721557617188 61.423828125 101.26971435546876 62.21337890625 109.5599365234375 62.608154296875 113.50765991210938 63.397705078125 121.00833129882813 63.79248046875 124.16648864746094 64.187255859375 126.53512573242188 64.58203125 129.69332885742188 64.58203125 130.48284912109375 64.58203125 129.69332885742188 65.37158203125 126.53512573242188 68.52975463867188 119.0344696044922 74.45135498046875 109.5599365234375 82.74154663085938 99.29583740234376 96.163818359375 88.24223327636719 114.32333374023438 79.55723571777344 132.08807373046875 76.00428771972656 148.66851806640625 76.7938232421875 162.09075927734375 81.53109741210938 171.9600830078125 89.03176879882813 179.85552978515625 99.29583740234376 184.987548828125 112.32333374023438 184.5927734375 124.56126403808594 181.03985595703125 132.4567108154297 176.6973876953125 135.22012329101563 174.3287353515625 135.22012329101563 174.3287353515625 135.22012329101563 " />
        <polyline stroke="black" stroke-width="3" stroke-linecap="round" fill="transparent" stroke-linejoin="round" points="135.64105224609375 67.31930541992188 135.64105224609375 77.9781494140625 135.24627685546875 90.21607971191406 130.50900268554688 125.35081481933594 127.350830078125 134.82534790039063 121.03448486328124 149.43191528320313 121.03448486328124 149.43191528320313 " />
        <polyline stroke="black" stroke-width="3" stroke-linecap="round" fill="transparent" stroke-linejoin="round" points="62.608154296875 171.93392944335938 70.50363159179688 171.93392944335938 80.76766967773438 171.14439392089844 119.06060791015624 167.9862060546875 142.74691772460938 165.61758422851563 152.6162109375 164.43325805664063 167.61761474609375 162.0646209716797 176.6973876953125 158.51168823242188 176.6973876953125 158.51168823242188 " />
        <polyline stroke="black" stroke-width="3" stroke-linecap="round" fill="transparent" stroke-linejoin="round" points="138.4044189453125 133.2462615966797 131.69332885742188 139.56260681152344 122.613525390625 148.2476043701172 112.74423217773438 158.11691284179688 92.61083984375 179.0398406982422 69.71408081054688 202.7261657714844 60.23956298828125 212.20068359375 56.686614990234375 215.35888671875 56.686614990234375 215.35888671875 " />
        <polyline stroke="black" stroke-width="3" stroke-linecap="round" fill="transparent" stroke-linejoin="round" points="132.48284912109375 166.40713500976563 143.53646850585938 167.1966552734375 155.379638671875 168.7757568359375 178.2764892578125 173.11825561523438 201.5679931640625 180.22415161132813 210.64776611328125 184.566650390625 212.62158203125 185.7509765625 212.62158203125 185.7509765625 " />
        <polyline stroke="black" stroke-width="3" stroke-linecap="round" fill="transparent" stroke-linejoin="round" points="123.403076171875 195.62026977539065 118.66586303710938 205.09478759765625 111.5599365234375 218.51705932617188 107.61224365234376 224.43865966796875 106.42791748046876 226.01773071289065 104.45404052734376 227.9915771484375 103.66448974609376 227.9915771484375 104.05926513671876 226.80728149414065 107.61224365234376 222.07000732421875 115.90243530273438 214.174560546875 127.350830078125 204.70001220703125 141.56259155273438 196.40982055664065 154.1953125 190.88299560546875 164.06463623046875 188.90914916992188 170.7757568359375 188.51437377929688 173.5391845703125 190.09344482421875 173.9339599609375 195.2254943847656 168.8018798828125 205.09478759765625 156.169189453125 215.753662109375 138.00970458984375 225.22817993164065 124.192626953125 229.5706787109375 116.29721069335938 230.7550048828125 113.53378295898438 230.3602294921875 113.13900756835938 229.5706787109375 118.66586303710938 226.4125061035156 132.08807373046875 221.28045654296875 148.27377319335938 218.51705932617188 162.48553466796875 219.30661010742188 166.43328857421875 219.70135498046875 166.43328857421875 219.70135498046875 " />
        </svg>