<?xml version="1.0" standalone="no"?>
    <svg width="256" height="256" xmlns="http://www.w3.org/2000/svg" version="1.1">
    <polyline stroke="black" stroke-width="3" stroke-linecap="round" fill="transparent" stroke-linejoin="round" points="99.62939453125 87.47174072265625 106.19775390625 131.8080596923828 107.29248046875 146.03945922851563 106.7451171875 167.93394470214844 105.10302734375 182.16534423828125 102.3662109375 194.20730590820313 97.9873046875 202.417724609375 94.15579223632813 207.891357421875 89.77691650390625 209.533447265625 84.85064697265625 206.249267578125 76.64019775390625 193.11257934570313 76.64019775390625 193.11257934570313 " />
        <polyline stroke="black" stroke-width="3" stroke-linecap="round" fill="transparent" stroke-linejoin="round" points="55.8404541015625 133.45013427734375 47.630035400390625 149.87100219726563 40.51434326171875 158.6287841796875 32.85125732421875 165.19712829589844 27.925018310546875 169.02865600585938 25.735565185546875 172.31283569335938 25.735565185546875 172.86019897460938 29.01971435546875 172.31283569335938 35.04071044921875 169.57601928710938 44.893218994140625 164.10240173339844 55.8404541015625 158.6287841796875 68.42977905273438 153.15516662597656 77.73492431640625 148.22891235351563 85.39801025390625 144.3973846435547 91.41897583007813 140.5658416748047 96.89260864257813 136.18695068359375 96.89260864257813 136.18695068359375 " />
        <polyline stroke="black" stroke-width="3" stroke-linecap="round" fill="transparent" stroke-linejoin="round" points="143.41836547851563 78.16659545898438 139.58682250976563 87.47174072265625 131.92376708984375 102.79788208007813 119.33444213867188 124.69235229492188 110.57666015625 140.0184783935547 105.10302734375 150.96571350097656 104.5556640625 158.6287841796875 107.29248046875 163.55503845214844 113.3134765625 166.29185485839844 123.16595458984376 168.48129272460938 134.66058349609375 169.02865600585938 143.41836547851563 168.48129272460938 154.3656005859375 164.10240173339844 154.3656005859375 164.10240173339844 " />
        <polyline stroke="black" stroke-width="3" stroke-linecap="round" fill="transparent" stroke-linejoin="round" points="173.52325439453125 62.29310607910156 171.88116455078125 74.88241577148438 167.50225830078125 94.0400848388672 161.4813232421875 112.650390625 151.6287841796875 132.9027862548828 142.32363891601563 148.77627563476563 133.01849365234375 163.00767517089844 128.09222412109375 169.02865600585938 125.90277099609376 172.31283569335938 128.63958740234375 172.31283569335938 135.20794677734375 169.57601928710938 150.5340576171875 161.9129638671875 170.78643798828125 149.87100219726563 190.491455078125 138.92376708984375 209.101806640625 130.1659698486328 222.23846435546875 125.78707885742188 229.3541259765625 123.59762573242188 233.7330322265625 119.76609802246094 233.7330322265625 119.76609802246094 " />
        <polyline stroke="black" stroke-width="3" stroke-linecap="round" fill="transparent" stroke-linejoin="round" points="198.701904296875 48.60905456542969 198.701904296875 80.90339660644531 198.154541015625 115.38720703125 195.965087890625 155.34461975097656 193.775634765625 185.99688720703125 192.680908203125 211.722900390625 191.586181640625 233.07000732421875 189.396728515625 251.1329345703125 189.396728515625 251.1329345703125 " />
        </svg>