<?xml version="1.0" standalone="no"?>
    <svg width="256" height="256" xmlns="http://www.w3.org/2000/svg" version="1.1">
    <polyline stroke="black" stroke-width="3" stroke-linecap="round" fill="transparent" stroke-linejoin="round" points="107.4930419921875 56.32524108886719 108.7110595703125 70.3321533203125 111.14703369140624 102.60897827148438 111.14703369140624 131.2318115234375 111.75604248046876 154.37367248535156 111.75604248046876 171.42556762695313 110.53802490234376 183.60549926757813 108.7110595703125 190.9134521484375 104.44805908203124 193.95843505859375 95.3131103515625 189.69546508789065 95.3131103515625 189.69546508789065 " />
        <polyline stroke="black" stroke-width="3" stroke-linecap="round" fill="transparent" stroke-linejoin="round" points="38.67645263671875 126.35983276367188 38.06744384765625 139.75775146484375 36.240478515625 149.50169372558594 33.19549560546875 159.85464477539063 31.368499755859375 167.16259765625 30.759521484375 171.42556762695313 32.58648681640625 171.42556762695313 38.06744384765625 166.55360412597656 48.42041015625 156.80966186523438 62.42730712890625 144.62973022460938 76.43423461914063 133.0587921142578 91.0501708984375 122.7058563232422 103.83908081054688 114.78889465332033 103.83908081054688 114.78889465332033 " />
        <polyline stroke="black" stroke-width="3" stroke-linecap="round" fill="transparent" stroke-linejoin="round" points="122.71795654296876 106.8719482421875 120.8909912109375 119.66087341308594 118.45498657226563 125.141845703125 116.01901245117188 130.622802734375 113.5830078125 136.7127685546875 111.14703369140624 141.58474731445313 111.14703369140624 145.2387237548828 112.36502075195313 148.28370666503906 116.62799072265624 150.71969604492188 124.54495239257813 153.76467895507813 136.72488403320313 157.4186553955078 145.85983276367188 159.24563598632813 150.7318115234375 160.46363830566406 154.9947509765625 160.46363830566406 154.9947509765625 160.46363830566406 " />
        <polyline stroke="black" stroke-width="3" stroke-linecap="round" fill="transparent" stroke-linejoin="round" points="165.95672607421875 59.37022399902344 162.302734375 77.03111267089844 157.4307861328125 94.08302307128906 151.3408203125 112.9619140625 146.46881103515625 127.57781982421876 142.20587158203125 137.93077087402344 139.160888671875 143.41172790527344 137.94287109375 147.06570434570313 137.94287109375 148.28370666503906 139.76986694335938 147.06570434570313 145.2508544921875 144.02073669433594 158.039794921875 136.10377502441406 178.74560546875 124.5328369140625 200.060546875 113.57090759277344 217.721435546875 105.04495239257813 229.9013671875 97.73699951171876 236.600341796875 92.25602722167967 241.4722900390625 79.46710205078125 241.4722900390625 79.46710205078125 " />
        <polyline stroke="black" stroke-width="3" stroke-linecap="round" fill="transparent" stroke-linejoin="round" points="203.10546875 50.844268798828125 202.4964599609375 64.2421875 199.4515380859375 96.51901245117188 196.40655517578125 126.35983276367188 197.0155029296875 153.76467895507813 198.2335205078125 176.29754638671875 200.66949462890625 195.17642211914065 202.4964599609375 215.2733154296875 203.10546875 239.024169921875 203.10546875 239.024169921875 " />
        </svg>