<?xml version="1.0" standalone="no"?>
    <svg width="256" height="256" xmlns="http://www.w3.org/2000/svg" version="1.1">
    <polyline stroke="black" stroke-width="3" stroke-linecap="round" fill="transparent" stroke-linejoin="round" points="61.23040771484375 60.985015869140625 62.88043212890625 70.22537231445313 71.1307373046875 91.34616088867188 72.12075805664063 92.6662139892578 73.7708740234375 95.30632019042967 73.7708740234375 95.30632019042967 73.7708740234375 95.30632019042967 " />
        <polyline stroke="black" stroke-width="3" stroke-linecap="round" fill="transparent" stroke-linejoin="round" points="70.470703125 63.6251220703125 80.70111083984375 60.32499694824219 117.6624755859375 48.114540100097656 148.35366821289063 45.144432067871094 163.8642578125 50.42462921142578 162.87420654296875 71.54542541503906 136.47320556640625 99.26646423339844 136.47320556640625 99.26646423339844 136.47320556640625 99.26646423339844 " />
        <polyline stroke="black" stroke-width="3" stroke-linecap="round" fill="transparent" stroke-linejoin="round" points="94.56161499023438 61.315032958984375 95.88168334960938 70.55537414550781 96.54168701171876 73.52549743652344 99.18179321289063 84.4158935546875 101.161865234375 89.03607177734375 114.36236572265624 78.47569274902344 124.26275634765624 70.55537414550781 131.19302368164063 62.96510314941406 136.14315795898438 61.645050048828125 138.78329467773438 62.63508605957031 138.12322998046875 70.55537414550781 127.23284912109376 88.37605285644531 110.07220458984376 105.53669738769533 91.59149169921876 117.41712951660156 80.04107666015625 121.70730590820313 76.41091918945313 122.69734191894533 75.75091552734375 122.69734191894533 81.691162109375 118.73719787597656 97.20172119140624 108.83682250976563 118.32254028320313 96.62638854980467 139.44329833984375 89.03607177734375 139.44329833984375 89.03607177734375 139.44329833984375 89.03607177734375 " />
        <polyline stroke="black" stroke-width="3" stroke-linecap="round" fill="transparent" stroke-linejoin="round" points="117.00244140625 113.12698364257813 101.82186889648438 127.64753723144533 84.66122436523438 165.2689666748047 76.0809326171875 198.93020629882813 75.09091186523438 201.5703125 72.12075805664063 205.200439453125 71.46078491210938 205.200439453125 71.46078491210938 205.200439453125 " />
        <polyline stroke="black" stroke-width="3" stroke-linecap="round" fill="transparent" stroke-linejoin="round" points="83.01119995117188 171.2091522216797 96.87173461914063 171.5391845703125 117.99252319335938 178.79945373535156 120.962646484375 179.45945739746094 132.18304443359375 179.45945739746094 137.13323974609375 176.48934936523438 150.99371337890625 148.768310546875 150.99371337890625 148.768310546875 " />
        <polyline stroke="black" stroke-width="3" stroke-linecap="round" fill="transparent" stroke-linejoin="round" points="154.29388427734375 112.13694763183594 147.0335693359375 130.28762817382813 135.483154296875 164.93893432617188 128.222900390625 180.44949340820313 127.23284912109376 182.09957885742188 125.25277709960938 185.06967163085935 124.26275634765624 185.72970581054688 125.91278076171876 183.41964721679688 130.86297607421875 178.46942138671875 139.7733154296875 175.4993133544922 157.26397705078125 176.15936279296875 171.45452880859375 179.45945739746094 184.655029296875 184.07965087890625 189.60516357421875 187.04977416992188 189.60516357421875 187.04977416992188 " />
        </svg>