<?xml version="1.0" standalone="no"?>
    <svg width="256" height="256" xmlns="http://www.w3.org/2000/svg" version="1.1">
    <polyline stroke="black" stroke-width="3" stroke-linecap="round" fill="transparent" stroke-linejoin="round" points="60.900360107421875 77.1556396484375 65.5205078125 93.32624816894533 67.17059326171875 98.93644714355467 73.44085693359375 121.37728881835938 73.7708740234375 123.6873779296875 74.10086059570313 126.657470703125 74.10086059570313 126.657470703125 " />
        <polyline stroke="black" stroke-width="3" stroke-linecap="round" fill="transparent" stroke-linejoin="round" points="76.740966796875 84.74592590332031 98.1917724609375 75.8355712890625 103.47195434570313 73.85551452636719 135.15316772460938 64.61515808105469 142.0833740234375 62.96510314941406 161.55413818359375 60.985015869140625 175.08465576171875 62.96510314941406 182.01495361328125 65.93521118164063 184.9849853515625 71.21540832519531 184.32501220703125 87.71601867675781 176.07470703125 109.49684143066406 160.89410400390625 125.00741577148438 154.62384033203125 127.97756958007813 154.62384033203125 127.97756958007813 " />
        <polyline stroke="black" stroke-width="3" stroke-linecap="round" fill="transparent" stroke-linejoin="round" points="105.4520263671875 78.80569458007813 104.46200561523438 86.39598083496094 104.46200561523438 89.69610595703125 104.13198852539063 102.8966064453125 104.13198852539063 104.21664428710938 104.13198852539063 106.5267333984375 104.13198852539063 106.5267333984375 104.13198852539063 106.5267333984375 " />
        <polyline stroke="black" stroke-width="3" stroke-linecap="round" fill="transparent" stroke-linejoin="round" points="132.84304809570313 78.80569458007813 130.86297607421875 93.98626708984376 128.222900390625 98.93644714355467 107.76214599609376 121.04728698730467 102.15191650390624 124.347412109375 102.15191650390624 124.347412109375 102.15191650390624 124.347412109375 " />
        <polyline stroke="black" stroke-width="3" stroke-linecap="round" fill="transparent" stroke-linejoin="round" points="64.530517578125 132.927734375 84.99127197265625 124.347412109375 127.89291381835938 106.19671630859376 134.49310302734375 103.55662536621094 152.643798828125 97.9464111328125 164.19427490234375 97.9464111328125 166.17431640625 98.93644714355467 166.17431640625 98.93644714355467 " />
        <polyline stroke="black" stroke-width="3" stroke-linecap="round" fill="transparent" stroke-linejoin="round" points="94.23162841796876 130.28762817382813 86.31130981445313 139.19796752929688 82.35116577148438 144.14813232421875 65.5205078125 179.1294403076172 62.88043212890625 185.72970581054688 56.280181884765625 201.9002990722656 51 211.470703125 50.00994873046875 213.78076171875 50.00994873046875 213.78076171875 " />
        <polyline stroke="black" stroke-width="3" stroke-linecap="round" fill="transparent" stroke-linejoin="round" points="76.0809326171875 174.50930786132813 86.641357421875 176.81936645507813 105.78207397460938 183.7496337890625 109.08218383789063 184.7396545410156 109.08218383789063 184.7396545410156 109.08218383789063 184.7396545410156 " />
        <polyline stroke="black" stroke-width="3" stroke-linecap="round" fill="transparent" stroke-linejoin="round" points="145.383544921875 127.97756958007813 132.18304443359375 147.4482879638672 111.39224243164063 190.679931640625 109.41217041015624 195.30007934570313 106.44207763671876 201.24029541015625 104.7919921875 203.22036743164065 104.13198852539063 203.22036743164065 104.13198852539063 203.22036743164065 " />
        <polyline stroke="black" stroke-width="3" stroke-linecap="round" fill="transparent" stroke-linejoin="round" points="131.85299682617188 157.01864624023438 143.40341186523438 162.29881286621094 161.8841552734375 175.82933044433594 179.37481689453125 198.27017211914065 179.37481689453125 198.27017211914065 179.37481689453125 198.27017211914065 " />
        </svg>