<?xml version="1.0" standalone="no"?>
    <svg width="256" height="256" xmlns="http://www.w3.org/2000/svg" version="1.1">
    <polyline stroke="black" stroke-width="3" stroke-linecap="round" fill="transparent" stroke-linejoin="round" points="67.66259765625 57.5283203125 66.00558471679688 95.6396026611328 65.59130859375 111.38121032714844 65.17709350585938 141.20742797851563 65.17709350585938 166.06260681152344 66.00558471679688 180.1472015380859 66.00558471679688 187.603759765625 66.00558471679688 188.4322509765625 66.00558471679688 188.4322509765625 " />
        <polyline stroke="black" stroke-width="3" stroke-linecap="round" fill="transparent" stroke-linejoin="round" points="74.29061889648438 113.86672973632813 85.06121826171875 104.3389129638672 103.288330078125 91.91131591796876 114.47314453125 86.11177062988281 149.68466186523438 73.68418884277344 171.225830078125 70.78440856933594 186.55322265625 72.44142150878906 196.49530029296875 78.240966796875 203.95184326171875 91.0828094482422 207.265869140625 113.03823852539063 204.3660888671875 136.65066528320313 198.15228271484375 154.87777709960938 190.69573974609375 167.30535888671875 183.6534423828125 174.34765625 171.64007568359375 178.075927734375 158.79827880859375 173.51914978027344 158.79827880859375 173.51914978027344 " />
        <polyline stroke="black" stroke-width="3" stroke-linecap="round" fill="transparent" stroke-linejoin="round" points="106.1881103515625 40.12969207763672 106.1881103515625 66.64187622070313 106.1881103515625 80.72648620605469 106.1881103515625 95.6396026611328 105.359619140625 139.13616943359375 105.359619140625 167.30535888671875 104.94537353515624 172.27639770507813 104.94537353515624 178.075927734375 104.94537353515624 178.075927734375 " />
        <polyline stroke="black" stroke-width="3" stroke-linecap="round" fill="transparent" stroke-linejoin="round" points="139.328369140625 28.944869995117188 137.257080078125 56.69981384277344 133.52880859375 86.52603149414063 129.38629150390625 120.90902709960938 127.729248046875 137.06488037109375 125.65802001953124 166.89111328125 124.0009765625 193.81756591796875 124.0009765625 193.81756591796875 " />
        </svg>