<?xml version="1.0" standalone="no"?>
    <svg width="256" height="256" xmlns="http://www.w3.org/2000/svg" version="1.1">
    <polyline stroke="black" stroke-width="3" stroke-linecap="round" fill="transparent" stroke-linejoin="round" points="61.642913818359375 107.78732299804685 60.581146240234375 117.34294128417967 59.519378662109375 126.8985595703125 58.103729248046875 138.2237548828125 56.688079833984375 148.13328552246094 54.210693359375 165.4749755859375 52.7950439453125 177.5079803466797 52.087249755859375 183.5245056152344 51.73333740234375 184.94015502929688 51.73333740234375 184.94015502929688 " />
        <polyline stroke="black" stroke-width="3" stroke-linecap="round" fill="transparent" stroke-linejoin="round" points="61.28900146484375 101.41690063476563 68.72113037109375 98.58560180664063 76.15325927734375 95.75430297851563 83.58538818359375 93.27691650390624 92.07928466796876 90.44563293457033 112.25228881835938 85.49087524414063 134.19482421875 83.36740112304688 156.4913330078125 84.07521057128906 175.95648193359375 87.96824645996094 187.63555908203125 92.92301940917967 194.35986328125 98.93951416015624 198.960693359375 109.55686950683594 198.6068115234375 126.19073486328124 193.65203857421875 144.24026489257813 186.927734375 157.3350067138672 180.203369140625 166.890625 174.540771484375 172.90713500976563 166.7547607421875 176.8001708984375 155.4295654296875 173.61495971679688 155.4295654296875 173.61495971679688 " />
        <polyline stroke="black" stroke-width="3" stroke-linecap="round" fill="transparent" stroke-linejoin="round" points="97.74194335937499 69.5648193359375 94.91061401367188 86.19868469238281 92.07928466796876 102.83255004882813 89.60189819335938 119.82034301757813 85.7088623046875 147.4254608154297 84.293212890625 158.396728515625 83.23150634765625 181.7549285888672 83.23150634765625 187.41754150390625 84.64715576171875 196.26531982421875 84.64715576171875 196.26531982421875 " />
        <polyline stroke="black" stroke-width="3" stroke-linecap="round" fill="transparent" stroke-linejoin="round" points="126.76269531249999 50.453582763671875 123.57748413085938 72.04220581054688 120.39227294921876 93.63082885742188 113.66790771484376 135.3924560546875 108.713134765625 165.8289031982422 105.17404174804688 188.1253662109375 103.050537109375 201.92791748046875 101.98883056640624 206.52877807617188 100.92709350585938 210.42181396484375 100.92709350585938 210.42181396484375 " />
        </svg>