<?xml version="1.0" standalone="no"?>
    <svg width="256" height="256" xmlns="http://www.w3.org/2000/svg" version="1.1">
    <polyline stroke="black" stroke-width="3" stroke-linecap="round" fill="transparent" stroke-linejoin="round" points="50.15716552734375 97.33518981933594 50.81085205078125 98.64248657226563 58.00091552734375 108.44712829589844 59.3082275390625 109.10076904296876 63.23004150390625 111.06169128417967 73.03466796875 107.13983154296876 78.91748046875 102.5643310546875 78.91748046875 102.5643310546875 " />
        <polyline stroke="black" stroke-width="3" stroke-linecap="round" fill="transparent" stroke-linejoin="round" points="87.41485595703125 96.02789306640624 84.80029296875 99.29612731933594 65.84466552734375 120.2126922607422 63.88372802734375 122.1736297607422 56.03997802734375 128.05642700195313 53.4254150390625 130.01734924316406 52.1181640625 131.3246307373047 56.03997802734375 130.01734924316406 63.23004150390625 128.71006774902344 78.26385498046875 124.1345672607422 88.06854248046875 120.86634826660156 101.7950439453125 113.02264404296876 106.37054443359376 106.4862060546875 106.37054443359376 106.4862060546875 " />
        <polyline stroke="black" stroke-width="3" stroke-linecap="round" fill="transparent" stroke-linejoin="round" points="68.459228515625 97.98883056640624 68.459228515625 103.21800231933594 69.11285400390625 148.31936645507813 69.7664794921875 154.85581970214844 70.42010498046875 177.0796661376953 70.42010498046875 194.07443237304688 69.7664794921875 199.30355834960935 69.11285400390625 198.64990234375 69.7664794921875 184.9234313964844 69.7664794921875 184.9234313964844 " />
        <polyline stroke="black" stroke-width="3" stroke-linecap="round" fill="transparent" stroke-linejoin="round" points="50.15716552734375 158.1240234375 46.88897705078125 165.96775817871094 42.3134765625 177.7333221435547 45.58172607421875 180.347900390625 45.58172607421875 180.347900390625 " />
        <polyline stroke="black" stroke-width="3" stroke-linecap="round" fill="transparent" stroke-linejoin="round" points="76.95654296875 152.89488220214844 78.26385498046875 154.2021484375 91.3367919921875 161.39224243164063 96.56585693359376 161.39224243164063 103.75592041015624 157.47036743164063 103.75592041015624 157.47036743164063 " />
        <polyline stroke="black" stroke-width="3" stroke-linecap="round" fill="transparent" stroke-linejoin="round" points="124.0189208984375 96.68156433105467 125.97979736328124 96.02789306640624 135.13079833984375 97.98883056640624 135.13079833984375 99.29612731933594 134.4771728515625 99.94978332519533 134.4771728515625 99.94978332519533 " />
        <polyline stroke="black" stroke-width="3" stroke-linecap="round" fill="transparent" stroke-linejoin="round" points="122.71160888671876 126.74913024902344 124.67254638671876 126.0955047607422 138.3990478515625 118.25177001953124 139.706298828125 116.94448852539063 140.3599853515625 113.02264404296876 140.3599853515625 113.02264404296876 " />
        <polyline stroke="black" stroke-width="3" stroke-linecap="round" fill="transparent" stroke-linejoin="round" points="114.21429443359376 128.05642700195313 114.21429443359376 131.3246307373047 117.48248291015624 152.89488220214844 124.67254638671876 163.35317993164063 131.20892333984375 160.7386016845703 131.20892333984375 160.7386016845703 " />
        <polyline stroke="black" stroke-width="3" stroke-linecap="round" fill="transparent" stroke-linejoin="round" points="153.43280029296875 77.72587585449219 151.47186279296875 82.3013916015625 134.4771728515625 119.55908203125 132.51629638671875 123.48092651367188 128.59442138671875 135.24649047851563 129.90167236328125 139.82200622558594 130.55535888671875 139.82200622558594 130.55535888671875 139.82200622558594 " />
        <polyline stroke="black" stroke-width="3" stroke-linecap="round" fill="transparent" stroke-linejoin="round" points="159.31561279296875 99.29612731933594 161.93017578125 97.98883056640624 182.193115234375 92.10604858398438 185.46136474609375 90.79875183105467 193.95867919921875 89.49147033691406 202.4560546875 90.79875183105467 202.4560546875 90.79875183105467 " />
        <polyline stroke="black" stroke-width="3" stroke-linecap="round" fill="transparent" stroke-linejoin="round" points="144.93548583984375 124.7882080078125 144.2818603515625 126.0955047607422 145.589111328125 134.59288024902344 146.24273681640625 135.24649047851563 149.510986328125 137.861083984375 158.6619873046875 140.4756317138672 171.08123779296875 137.20742797851563 178.27130126953125 134.59288024902344 184.154052734375 131.978271484375 186.11505126953125 131.3246307373047 190.03692626953125 131.3246307373047 192.6513671875 135.24649047851563 193.95867919921875 140.4756317138672 195.26605224609375 143.74388122558594 195.26605224609375 147.0120849609375 195.91961669921875 145.70481872558594 197.22698974609375 139.82200622558594 197.22698974609375 139.82200622558594 " />
        <polyline stroke="black" stroke-width="3" stroke-linecap="round" fill="transparent" stroke-linejoin="round" points="173.69573974609375 126.74913024902344 173.04217529296875 131.978271484375 169.77392578125 169.8896026611328 169.12030029296875 175.7723846435547 165.85205078125 196.68896484375 167.81298828125 217.6055908203125 167.81298828125 217.6055908203125 " />
        </svg>