<?xml version="1.0" standalone="no"?>
    <svg width="256" height="256" xmlns="http://www.w3.org/2000/svg" version="1.1">
    <polyline stroke="black" stroke-width="3" stroke-linecap="round" fill="transparent" stroke-linejoin="round" points="59 89 61 93 63 97 65 101 67 104 68 107 70 110 71 112 73 114 76 115 80 115 82 115 85 114 " />
        <polyline stroke="black" stroke-width="3" stroke-linecap="round" fill="transparent" stroke-linejoin="round" points="112 88 112 89 110 92 107 98 102 105 96 114 88 122 76 133 69 138 63 143 59 146 57 148 55 149 55 150 56 150 59 150 67 149 73 147 81 144 89 140 96 134 104 127 111 118 114 114 117 110 " />
        <polyline stroke="black" stroke-width="3" stroke-linecap="round" fill="transparent" stroke-linejoin="round" points="91 72 89 75 89 80 89 92 89 96 88 114 87 128 87 141 86 154 86 166 85 176 85 184 85 191 85 193 85 194 85 193 85 191 " />
        <polyline stroke="black" stroke-width="3" stroke-linecap="round" fill="transparent" stroke-linejoin="round" points="75 147 74 149 69 156 65 160 62 165 59 169 56 174 53 178 51 181 49 185 48 186 48 187 49 187 " />
        <polyline stroke="black" stroke-width="3" stroke-linecap="round" fill="transparent" stroke-linejoin="round" points="74 155 78 154 82 154 86 154 89 154 91 155 93 155 94 156 96 158 98 160 100 163 102 164 " />
        <polyline stroke="black" stroke-width="3" stroke-linecap="round" fill="transparent" stroke-linejoin="round" points="120 102 119 100 120 99 122 98 124 98 126 98 129 97 134 97 138 96 142 95 146 94 150 93 153 93 154 94 155 95 " />
        <polyline stroke="black" stroke-width="3" stroke-linecap="round" fill="transparent" stroke-linejoin="round" points="104 144 104 145 104 146 108 146 113 145 118 144 125 143 132 141 139 138 146 135 152 130 156 128 159 125 " />
        <polyline stroke="black" stroke-width="3" stroke-linecap="round" fill="transparent" stroke-linejoin="round" points="136 101 133 105 129 116 127 126 126 136 124 146 124 156 124 165 125 172 126 178 128 183 131 184 133 184 136 183 " />
        <polyline stroke="black" stroke-width="3" stroke-linecap="round" fill="transparent" stroke-linejoin="round" points="178 73 175 73 167 82 161 91 155 100 149 110 144 119 139 128 135 137 132 144 129 149 128 152 128 153 128 153 " />
        <polyline stroke="black" stroke-width="3" stroke-linecap="round" fill="transparent" stroke-linejoin="round" points="156 115 163 112 170 109 180 107 186 106 191 104 195 103 199 102 203 102 206 101 208 101 209 101 " />
        <polyline stroke="black" stroke-width="3" stroke-linecap="round" fill="transparent" stroke-linejoin="round" points="170 127 167 130 166 132 165 134 165 137 166 140 168 143 170 145 172 148 175 150 179 152 183 153 187 154 191 154 199 151 201 149 207 142 210 137 212 134 212 133 212 132 " />
        <polyline stroke="black" stroke-width="3" stroke-linecap="round" fill="transparent" stroke-linejoin="round" points="212 131 211 133 210 135 210 137 210 139 210 142 210 144 210 145 211 147 211 147 212 147 " />
        <polyline stroke="black" stroke-width="3" stroke-linecap="round" fill="transparent" stroke-linejoin="round" points="203 115 203 117 202 122 201 130 199 139 197 150 194 162 192 177 189 192 188 200 187 208 " />
        </svg>