<?xml version="1.0" standalone="no"?>
    <svg width="256" height="256" xmlns="http://www.w3.org/2000/svg" version="1.1">
    <polyline stroke="black" stroke-width="3" stroke-linecap="round" fill="transparent" stroke-linejoin="round" points="77.3646240234375 98.41522216796876 80.14129638671875 107.74827575683594 83.78988647460938 121.77499389648438 83.40081787109375 125.8338623046875 83.34716796875 126.13128662109376 " />
        <polyline stroke="black" stroke-width="3" stroke-linecap="round" fill="transparent" stroke-linejoin="round" points="102.021484375 65.61125183105469 133.78256225585938 63.98150634765625 160.14080810546875 70.83589172363281 164.94305419921875 74.3121337890625 168.765625 86.05645751953125 170.75091552734375 102.8341064453125 170.2041015625 113.09127807617188 166.0750732421875 123.48263549804688 163.53338623046875 126.8499755859375 150.15814208984375 128.5538330078125 142.533203125 127.42813110351563 133.25460815429688 114.549560546875 132.86874389648438 113.84213256835938 " />
        <polyline stroke="black" stroke-width="3" stroke-linecap="round" fill="transparent" stroke-linejoin="round" points="120.57662963867188 57.21482849121094 123.3720703125 73.56147766113281 127.54144287109376 111.442626953125 128.218994140625 126.9295654296875 127.806884765625 143.6727294921875 127.76568603515624 145.3470458984375 " />
        <polyline stroke="black" stroke-width="3" stroke-linecap="round" fill="transparent" stroke-linejoin="round" points="53.325164794921875 113.98074340820313 59.9884033203125 119.84280395507813 72.61163330078125 131.11700439453125 81.78329467773438 135.90362548828125 82.64498901367188 136.33016967773438 " />
        <polyline stroke="black" stroke-width="3" stroke-linecap="round" fill="transparent" stroke-linejoin="round" points="193.5174560546875 111.13487243652344 175.4190673828125 125.50920104980467 171.36175537109375 127.97671508789063 " />
        <polyline stroke="black" stroke-width="3" stroke-linecap="round" fill="transparent" stroke-linejoin="round" points="117.78060913085938 155.64407348632813 123.85931396484376 155.2402801513672 148.83856201171875 155.23692321777344 154.7830810546875 155.33428955078125 157.24554443359375 155.88662719726563 157.29083251953125 155.89682006835938 " />
        <polyline stroke="black" stroke-width="3" stroke-linecap="round" fill="transparent" stroke-linejoin="round" points="80.59750366210938 199.33587646484375 103.56817626953124 195.82244873046875 125.48397827148438 195.1949462890625 147.9437255859375 195.21673583984375 166.21185302734375 195.68832397460935 181.4720458984375 196.95538330078125 202.351806640625 198.7435302734375 204.02239990234375 200.0234375 204.189453125 200.15142822265625 204.201904296875 200.1610107421875 " />
        </svg>