<?xml version="1.0" standalone="no"?>
    <svg width="256" height="256" xmlns="http://www.w3.org/2000/svg" version="1.1">
    <polyline stroke="black" stroke-width="3" stroke-linecap="round" fill="transparent" stroke-linejoin="round" points="69.36717140275692 105.24800939179258 75.42470781845503 122.86993351018694 83.40964218460243 141.0425427572811 90.29320629335024 147.10007917297915 90.29320629335024 147.10007917297915 " />
        <polyline stroke="black" stroke-width="3" stroke-linecap="round" fill="transparent" stroke-linejoin="round" points="104.33567707519576 99.19047297609453 104.88636220389554 106.90006477789206 107.08910271869485 115.98636940143912 109.01650066914424 123.42061863888676 109.56718579784405 125.34801658933614 109.56718579784405 125.34801658933614 " />
        <polyline stroke="black" stroke-width="3" stroke-linecap="round" fill="transparent" stroke-linejoin="round" points="106.53841758999503 92.30690886734672 112.871296570043 92.30690886734672 125.81239709448886 88.72745553079787 141.78226582678377 83.22060424379964 157.20144943037883 78.26443808550121 167.93980944002533 74.68498474895236 173.99734585572344 74.13429962025253 176.75077149922254 74.13429962025253 177.85214175662213 74.96032731330229 177.85214175662213 78.26443808550121 177.3014566279223 87.35074270904832 172.89597559832373 108.00143503529168 170.14254995482463 127.82609966848534 167.66446687567543 140.49185762858127 164.91104123217633 146.27405147992943 163.25898584607685 147.37542173732908 161.05624533127752 147.10007917297915 157.47679199472873 138.83980224248182 153.89733865817982 128.927469925885 151.14391301468072 123.69596120323666 151.14391301468072 123.69596120323666 " />
        <polyline stroke="black" stroke-width="3" stroke-linecap="round" fill="transparent" stroke-linejoin="round" points="139.57952531198447 60.36717140275695 136.8260996684853 86.8000575803485 136.5507571041354 114.60965657968958 137.92746992588496 138.01377454943207 139.0288401832846 152.8822730243273 139.3041827476345 158.66446687567546 139.3041827476345 161.14254995482466 139.3041827476345 161.14254995482466 " />
        <polyline stroke="black" stroke-width="3" stroke-linecap="round" fill="transparent" stroke-linejoin="round" points="210.61790691426165 81.84389142205006 201.80694485506456 95.33567707519576 189.14118689496857 111.58088837184056 176.47542893487264 125.34801658933614 168.76583713307514 132.50692326243384 168.76583713307514 132.50692326243384 " />
        <polyline stroke="black" stroke-width="3" stroke-linecap="round" fill="transparent" stroke-linejoin="round" points="115.0740370848423 159.49049456872518 123.33431401533966 159.21515200437528 140.40555300503416 157.2877540539259 157.20144943037883 154.8096709747767 167.38912431132553 153.15761558867723 170.14254995482463 153.15761558867723 170.14254995482463 153.15761558867723 " />
        <polyline stroke="black" stroke-width="3" stroke-linecap="round" fill="transparent" stroke-linejoin="round" points="70.19319909580668 210.70421153780876 84.51101244200208 203.820647429061 104.61101963954565 197.2124258846631 128.56582273798796 191.15488946896505 156.10007917297912 185.6480381819668 182.2576227862207 180.96721458801832 200.15488946896505 179.86584433061867 209.5165366568621 179.86584433061867 212.26996230036116 183.4452976671675 212.26996230036116 186.74940843936645 212.26996230036116 186.74940843936645 " />
        </svg>