<?xml version="1.0" standalone="no"?>
    <svg width="256" height="256" xmlns="http://www.w3.org/2000/svg" version="1.1">
    <polyline stroke="black" stroke-width="3" stroke-linecap="round" fill="transparent" stroke-linejoin="round" points="100 86 100 85 99 88 98 94 98 96 97 108 97 120 97 123 97 123 " />
        <polyline stroke="black" stroke-width="3" stroke-linecap="round" fill="transparent" stroke-linejoin="round" points="106 81 106 80 108 79 116 77 127 73 137 71 146 69 151 69 152 68 156 67 158 67 159 67 159 68 159 70 159 75 160 83 162 91 163 100 163 107 160 113 157 118 152 119 149 119 146 118 146 118 " />
        <polyline stroke="black" stroke-width="3" stroke-linecap="round" fill="transparent" stroke-linejoin="round" points="130 48 131 47 131 46 130 46 131 51 132 64 132 86 131 108 130 122 130 126 130 136 130 138 131 143 132 144 132 144 " />
        <polyline stroke="black" stroke-width="3" stroke-linecap="round" fill="transparent" stroke-linejoin="round" points="81 69 79 78 78 92 78 92 " />
        <polyline stroke="black" stroke-width="3" stroke-linecap="round" fill="transparent" stroke-linejoin="round" points="189 61 190 58 191 56 190 60 187 65 181 77 179 81 177 85 177 85 " />
        <polyline stroke="black" stroke-width="3" stroke-linecap="round" fill="transparent" stroke-linejoin="round" points="119 158 117 157 116 157 116 156 118 156 125 154 136 153 146 153 153 153 156 153 160 153 160 153 " />
        <polyline stroke="black" stroke-width="3" stroke-linecap="round" fill="transparent" stroke-linejoin="round" points="88 195 89 194 94 193 100 192 121 188 141 187 161 186 179 185 195 185 208 185 212 186 212 186 " />
        </svg>