<?xml version="1.0" standalone="no"?>
    <svg width="256" height="256" xmlns="http://www.w3.org/2000/svg" version="1.1">
    <polyline stroke="black" stroke-width="3" stroke-linecap="round" fill="transparent" stroke-linejoin="round" points="58 98 58 98 60 98 62 98 65 98 70 97 75 96 81 96 87 95 93 93 98 92 106 89 111 87 115 85 118 83 119 82 " />
        <polyline stroke="black" stroke-width="3" stroke-linecap="round" fill="transparent" stroke-linejoin="round" points="89 62 88 63 87 67 86 72 84 79 83 86 82 94 81 103 80 112 80 120 81 127 82 135 83 139 84 142 84 144 85 146 87 146 89 146 92 145 96 142 102 137 104 134 106 132 108 129 " />
        <polyline stroke="black" stroke-width="3" stroke-linecap="round" fill="transparent" stroke-linejoin="round" points="108 64 108 64 109 65 109 68 109 73 108 80 107 89 106 98 106 107 105 115 105 122 105 131 106 135 107 137 108 138 110 139 " />
        <polyline stroke="black" stroke-width="3" stroke-linecap="round" fill="transparent" stroke-linejoin="round" points="133 68 133 68 133 68 133 67 133 67 133 67 133 67 133 67 134 67 134 68 134 68 134 69 135 69 136 70 136 71 137 72 139 74 140 76 141 78 142 80 143 82 144 83 146 85 148 87 151 88 155 89 158 89 " />
        <polyline stroke="black" stroke-width="3" stroke-linecap="round" fill="transparent" stroke-linejoin="round" points="186 39 186 39 187 40 187 42 185 46 181 53 175 61 164 74 160 79 146 91 138 97 134 99 125 104 121 106 118 107 117 108 117 108 118 108 121 107 125 106 130 104 136 101 146 97 152 95 159 92 166 90 172 88 178 86 183 84 188 82 192 80 194 78 " />
        <polyline stroke="black" stroke-width="3" stroke-linecap="round" fill="transparent" stroke-linejoin="round" points="173 32 172 31 171 31 170 32 166 41 162 51 157 64 151 79 146 94 140 109 134 123 130 135 126 145 122 155 120 159 119 161 120 161 120 160 " />
        <polyline stroke="black" stroke-width="3" stroke-linecap="round" fill="transparent" stroke-linejoin="round" points="143 122 143 122 147 121 152 121 156 122 161 123 165 123 169 124 173 125 177 125 182 126 184 127 186 127 188 128 " />
        <polyline stroke="black" stroke-width="3" stroke-linecap="round" fill="transparent" stroke-linejoin="round" points="142 144 142 144 140 144 141 143 142 143 145 143 149 142 153 141 158 140 163 139 168 138 176 136 181 136 185 136 186 137 187 138 " />
        <polyline stroke="black" stroke-width="3" stroke-linecap="round" fill="transparent" stroke-linejoin="round" points="169 156 168 160 167 165 167 170 167 176 167 182 168 188 168 193 168 197 168 199 167 201 165 202 162 201 157 200 153 198 151 197 " />
        </svg>