<?xml version="1.0" standalone="no"?>
    <svg width="256" height="256" xmlns="http://www.w3.org/2000/svg" version="1.1">
    <polyline stroke="black" stroke-width="3" stroke-linecap="round" fill="transparent" stroke-linejoin="round" points="48 79 47 87 47 103 47 121 47 141 50 161 54 179 59 190 59 190 " />
        <polyline stroke="black" stroke-width="3" stroke-linecap="round" fill="transparent" stroke-linejoin="round" points="103 78 104 104 103 125 101 149 100 168 99 178 98 180 98 180 " />
        <polyline stroke="black" stroke-width="3" stroke-linecap="round" fill="transparent" stroke-linejoin="round" points="14 149 18 147 25 147 45 141 65 136 85 134 99 133 109 133 109 134 109 134 " />
        <polyline stroke="black" stroke-width="3" stroke-linecap="round" fill="transparent" stroke-linejoin="round" points="52 192 65 192 77 189 91 186 101 185 101 185 " />
        <polyline stroke="black" stroke-width="3" stroke-linecap="round" fill="transparent" stroke-linejoin="round" points="126 53 138 52 148 52 157 52 166 54 172 57 177 61 181 62 181 62 " />
        <polyline stroke="black" stroke-width="3" stroke-linecap="round" fill="transparent" stroke-linejoin="round" points="224 16 221 21 216 28 205 40 189 58 168 78 168 78 " />
        <polyline stroke="black" stroke-width="3" stroke-linecap="round" fill="transparent" stroke-linejoin="round" points="119 104 130 102 144 98 159 93 177 89 189 86 198 84 201 81 201 81 " />
        <polyline stroke="black" stroke-width="3" stroke-linecap="round" fill="transparent" stroke-linejoin="round" points="190 32 182 44 173 60 161 84 148 112 136 139 128 156 124 166 124 167 124 167 " />
        <polyline stroke="black" stroke-width="3" stroke-linecap="round" fill="transparent" stroke-linejoin="round" points="172 80 176 85 186 92 197 103 210 112 223 122 231 129 233 131 233 131 " />
        <polyline stroke="black" stroke-width="3" stroke-linecap="round" fill="transparent" stroke-linejoin="round" points="140 136 156 132 168 129 182 127 195 126 200 126 200 126 " />
        <polyline stroke="black" stroke-width="3" stroke-linecap="round" fill="transparent" stroke-linejoin="round" points="185 129 182 135 182 153 182 173 182 192 182 204 182 209 181 211 178 211 170 211 154 208 142 203 142 203 " />
        </svg>