<?xml version="1.0" standalone="no"?>
    <svg width="256" height="256" xmlns="http://www.w3.org/2000/svg" version="1.1">
    <polyline stroke="black" stroke-width="3" stroke-linecap="round" fill="transparent" stroke-linejoin="round" points="94.3621826171875 112.013916015625 109.44100952148438 106.98764038085938 116.14276123046876 105.31222534179688 122.84442138671876 103.21794128417967 134.99127197265625 99.44822692871094 147.13812255859375 95.67852783203124 157.6094970703125 92.32766723632813 165.5677490234375 89.81454467773438 168.91864013671875 88.55796813964844 174.36376953125 86.04483032226563 175.62030029296875 84.78826904296875 175.201416015625 83.53169250488281 174.36376953125 83.11283874511719 172.6883544921875 83.11283874511719 171.8505859375 83.53169250488281 168.91864013671875 86.88253784179688 163.05462646484375 99.8670654296875 158.0283203125 113.6893310546875 155.09637451171875 121.228759765625 147.97579956054688 137.14529418945313 139.1798095703125 149.7109832763672 115.723876953125 168.97837829589844 106.09017944335938 174.004638671875 89.3359375 180.2874755859375 75.93255615234375 182.80062866210935 73.83822631835938 182.3817596435547 75.09481811523438 179.86863708496094 91.84906005859376 169.397216796875 121.16900634765624 156.41268920898438 149.65121459960938 149.2921142578125 174.36376953125 146.77899169921875 194.8876953125 146.36013793945313 208.2911376953125 146.77899169921875 213.3173828125 147.19784545898438 213.3173828125 147.19784545898438 " />
        </svg>