<?xml version="1.0" standalone="no"?>
    <svg width="256" height="256" xmlns="http://www.w3.org/2000/svg" version="1.1">
    <polyline stroke="black" stroke-width="3" stroke-linecap="round" fill="transparent" stroke-linejoin="round" points="81.7833251953125 98.62106323242188 94.6951904296875 96.31536865234376 104.37908935546876 95.39309692382813 114.524169921875 94.00968933105467 136.65878295898438 91.70399475097656 157.4100341796875 89.3983154296875 174.01092529296875 87.55375671386719 187.8450927734375 85.70919799804688 190.6119384765625 84.78692626953125 190.1507568359375 83.86465454101563 186.00054931640625 83.40351867675781 178.622314453125 84.78692626953125 171.70526123046875 88.014892578125 166.171630859375 92.16513061523438 159.2545166015625 101.38790893554688 153.72088623046875 111.53292846679688 148.64837646484375 123.06138610839844 143.57586669921875 134.12869262695313 136.19760131835938 145.19601440429688 123.28573608398438 157.646728515625 104.37908935546876 170.55859375 87.31698608398438 180.24249267578125 76.7108154296875 185.31500244140625 72.09945678710938 187.1595764160156 71.6383056640625 186.69842529296875 82.24447631835938 183.0093231201172 112.21844482421876 174.70884704589844 143.57586669921875 168.25291442871094 169.8607177734375 167.79177856445313 191.07305908203125 171.4808807373047 200.7569580078125 175.631103515625 200.7569580078125 175.631103515625 " />
        </svg>