<?xml version="1.0" standalone="no"?>
    <svg width="256" height="256" xmlns="http://www.w3.org/2000/svg" version="1.1">
    <polyline stroke="black" stroke-width="3" stroke-linecap="round" fill="transparent" stroke-linejoin="round" points="101.85759399604656 68.07676320455448 95.24937245164864 68.07676320455448 90.29320629335024 75.23566987765219 83.40964218460243 89.82882578819752 76.80142064020458 106.90006477789206 71.84525448190618 122.31924838148711 68.81648627405713 130.85486787633437 68.81648627405713 130.85486787633437 " />
        <polyline stroke="black" stroke-width="3" stroke-linecap="round" fill="transparent" stroke-linejoin="round" points="99.10416835254745 74.96032731330229 104.33567707519576 73.03292936285288 109.29184323349416 71.65621654110333 117.2767775996416 69.17813346195413 131.8699335101869 65.04799499670546 152.79596840078025 60.091828838407054 173.72200329137354 54.5849775514088 192.16995510281765 50.454839086160135 202.90831511246415 49.07812626441057 207.31379614206276 49.07812626441057 208.41516639946235 50.454839086160135 208.13982383511245 54.860320115758725 201.80694485506456 63.671282174955905 189.6918720236683 78.81512321420104 174.27268842007334 100.56718579784408 174.27268842007334 100.56718579784408 " />
        <polyline stroke="black" stroke-width="3" stroke-linecap="round" fill="transparent" stroke-linejoin="round" points="94.148002194249 137.18774685638235 92.77128937249944 140.21651506423137 90.84389142205008 156.73706892522608 85.06169757070194 179.31515920191885 78.72881859065393 198.86448127076255 71.01922678885643 211.5302392308585 64.96169037315838 217.31243308220667 61.10689447225957 216.21106282480704 59.45483908616012 203.54530486471103 59.45483908616012 203.54530486471103 " />
        <polyline stroke="black" stroke-width="3" stroke-linecap="round" fill="transparent" stroke-linejoin="round" points="99.93019604559714 130.02884018328464 105.7123898969453 126.4493868467358 109.842528362194 123.97130376758656 115.3493796491922 121.49322068843736 122.5082863222899 119.84116530233788 129.3918504310377 119.84116530233788 135.44938684673576 119.84116530233788 139.85486787633437 123.69596120323666 141.78226582678377 130.30418274763454 142.05760839113367 142.69459814338057 141.78226582678377 158.66446687567546 140.95623813373402 174.63433560797034 142.05760839113367 184.8220104889171 148.11514480683172 190.0535192115654 157.20144943037883 192.8069448550645 169.86720739047473 193.08228741941448 186.11241868711951 190.0535192115654 201.25625972636465 186.19872331066665 213.37133255776075 183.99598279586735 220.25489666650856 183.4452976671675 223.00832231000777 183.4452976671675 221.08092435955837 182.34392740976784 213.37133255776075 177.66310381581937 202.63297254811425 166.6494012418229 192.16995510281765 150.95487507387793 186.93844638016924 140.49185762858127 186.93844638016924 140.49185762858127 " />
        </svg>