<?xml version="1.0" standalone="no"?>
    <svg width="256" height="256" xmlns="http://www.w3.org/2000/svg" version="1.1">
    <polyline stroke="black" stroke-width="3" stroke-linecap="round" fill="transparent" stroke-linejoin="round" points="65.25717163085938 70.79386901855469 74.98309326171875 82.73019409179688 78.07769775390625 86.70896911621094 81.17230224609375 90.24566650390624 84.26690673828125 92.89817810058594 93.10861206054688 97.76113891601563 93.10861206054688 97.76113891601563 " />
        <polyline stroke="black" stroke-width="3" stroke-linecap="round" fill="transparent" stroke-linejoin="round" points="169.58953857421875 61.9521484375 162.51617431640625 77.4251708984375 158.0953369140625 84.49853515625 152.34814453125 92.01400756835938 125.822998046875 121.1916961669922 125.822998046875 121.1916961669922 " />
        <polyline stroke="black" stroke-width="3" stroke-linecap="round" fill="transparent" stroke-linejoin="round" points="88.24566650390625 157.88485717773438 100.62408447265624 149.48521423339844 105.92913818359376 146.39060974121094 111.234130859375 143.2960205078125 128.9176025390625 135.78054809570313 139.96978759765625 132.24386596679688 150.13775634765625 130.4755096435547 157.21112060546875 130.03343200683594 161.63201904296875 131.35971069335938 163.8424072265625 133.5701141357422 163.8424072265625 139.31724548339844 158.537353515625 151.2535858154297 147.04315185546875 165.40032958984375 128.47552490234375 183.0837860107422 128.47552490234375 183.0837860107422 " />
        <polyline stroke="black" stroke-width="3" stroke-linecap="round" fill="transparent" stroke-linejoin="round" points="94.876953125 187.94671630859375 106.81332397460938 188.38882446289065 112.56039428710938 189.27297973632813 119.19171142578124 190.5992431640625 125.822998046875 192.3675842285156 139.96978759765625 197.67263793945313 153.6744384765625 204.30392456054688 165.168701171875 212.261474609375 171.35791015625 218.00860595703125 171.35791015625 218.00860595703125 " />
        </svg>