<?xml version="1.0" standalone="no"?>
    <svg width="256" height="256" xmlns="http://www.w3.org/2000/svg" version="1.1">
    <polyline stroke="black" stroke-width="3" stroke-linecap="round" fill="transparent" stroke-linejoin="round" points="198.7412109375 716.8909301757813 198.7412109375 716.8909301757813 195.11834716796875 720.5138549804688 173.38079833984375 747.685791015625 144.39743041992188 793.8779907226563 132.6229248046875 818.3327026367188 119.03695678710938 854.5619506835938 104.5452880859375 888.0739135742188 92.77078247070313 921.5859375 80.99630737304688 956.909423828125 71.03326416015625 992.23291015625 66.50460815429688 1012.158935546875 380.79296875 -80.15157127380371 " />
        <polyline stroke="black" stroke-width="3" stroke-linecap="round" fill="transparent" stroke-linejoin="round" points="102.17703247070313 92.49203491210938 125.533935546875 112.37022399902344 153.3634033203125 125.29104614257813 153.3634033203125 125.29104614257813 " />
        <polyline stroke="black" stroke-width="3" stroke-linecap="round" fill="transparent" stroke-linejoin="round" points="210.51318359375 93.48593139648438 178.70806884765625 127.77581787109376 156.3450927734375 152.12660217285156 156.3450927734375 152.12660217285156 " />
        <polyline stroke="black" stroke-width="3" stroke-linecap="round" fill="transparent" stroke-linejoin="round" points="97.20748901367188 178.4652099609375 126.52783203125 160.077880859375 160.32073974609375 145.6661834716797 178.70806884765625 139.20579528808594 204.54974365234375 132.2484130859375 214.4888916015625 131.75146484375 221.44622802734375 133.73928833007813 223.4339599609375 140.6966552734375 216.47662353515625 155.6053009033203 206.04058837890625 172.50177001953125 192.1258544921875 188.404296875 192.1258544921875 188.404296875 " />
        <polyline stroke="black" stroke-width="3" stroke-linecap="round" fill="transparent" stroke-linejoin="round" points="146.90298461914063 203.80990600585935 176.72027587890625 217.72463989257813 193.61669921875 229.15460205078125 207.53143310546875 237.60281372070313 207.53143310546875 237.60281372070313 " />
        </svg>