<?xml version="1.0" standalone="no"?>
    <svg width="256" height="256" xmlns="http://www.w3.org/2000/svg" version="1.1">
    <polyline stroke="black" stroke-width="3" stroke-linecap="round" fill="transparent" stroke-linejoin="round" points="78 69 84 72 87 72 96 89 104 104 108 108 108 108 " />
        <polyline stroke="black" stroke-width="3" stroke-linecap="round" fill="transparent" stroke-linejoin="round" points="154 66 155 84 149 98 139 117 125 136 120 143 120 143 " />
        <polyline stroke="black" stroke-width="3" stroke-linecap="round" fill="transparent" stroke-linejoin="round" points="71 164 102 151 120 147 139 144 151 143 159 143 161 143 161 148 156 160 147 175 135 188 122 199 122 199 " />
        <polyline stroke="black" stroke-width="3" stroke-linecap="round" fill="transparent" stroke-linejoin="round" points="106 189 115 196 122 200 131 206 142 214 148 227 148 227 " />
        </svg>