<?xml version="1.0" standalone="no"?>
    <svg width="256" height="256" xmlns="http://www.w3.org/2000/svg" version="1.1">
    <polyline stroke="black" stroke-width="3" stroke-linecap="round" fill="transparent" stroke-linejoin="round" points="126.98037719726563 27.074134826660156 131.4232177734375 37.625831604003906 130.86785888671875 46.51146697998047 123.64825439453124 59.284576416015625 123.64825439453124 59.284576416015625 " />
        <polyline stroke="black" stroke-width="3" stroke-linecap="round" fill="transparent" stroke-linejoin="round" points="59.782745361328125 86.49684143066406 70.33444213867188 84.27543640136719 85.32894897460938 82.05401611328125 111.98587036132813 77.05584716796875 133.64459228515625 73.16838073730469 149.74981689453125 70.94697570800781 161.4122314453125 70.94697570800781 166.96575927734375 73.72373962402344 166.96575927734375 80.38796997070313 166.96575927734375 80.38796997070313 " />
        <polyline stroke="black" stroke-width="3" stroke-linecap="round" fill="transparent" stroke-linejoin="round" points="84.77362060546875 122.59474182128906 104.2109375 115.93051147460938 119.76080322265624 111.48770141601563 136.42138671875 109.26628112792967 150.30517578125 111.48770141601563 158.635498046875 117.59657287597656 165.2996826171875 130.3696746826172 166.96575927734375 145.91954040527344 164.744384765625 158.69265747070313 158.08013916015625 167.5782928466797 148.08377075195313 173.68716430664063 131.4232177734375 173.68716430664063 131.4232177734375 173.68716430664063 " />
        <polyline stroke="black" stroke-width="3" stroke-linecap="round" fill="transparent" stroke-linejoin="round" points="111.43051147460938 122.03939819335938 111.43051147460938 140.92137145996094 110.87518310546876 164.80152893066406 110.31982421875 182.57281494140625 109.2091064453125 198.67800903320313 108.098388671875 211.45114135742188 108.098388671875 211.45114135742188 " />
        </svg>