<?xml version="1.0" standalone="no"?>
    <svg width="256" height="256" xmlns="http://www.w3.org/2000/svg" version="1.1">
    <polyline stroke="black" stroke-width="3" stroke-linecap="round" fill="transparent" stroke-linejoin="round" points="83.71002197265625 69.84663391113281 86.15850830078125 82.70101928710938 87.99481201171875 97.39173889160156 89.21905517578125 110.85823059082033 89.8311767578125 119.42782592773438 89.8311767578125 124.32472229003906 89.8311767578125 126.16107177734376 91.66751098632813 123.10049438476563 97.176513671875 112.694580078125 107.58245849609376 94.94328308105467 122.273193359375 77.19200134277344 136.96389770507813 62.50128173828125 154.7152099609375 50.259010314941406 170.01800537109375 44.13787841796875 177.9754638671875 42.91365051269531 183.4844970703125 44.74999237060547 186.5450439453125 51.48323822021485 184.708740234375 72.90721130371094 171.24224853515625 97.39173889160156 154.10308837890625 115.1430206298828 131.45489501953125 130.44586181640625 116.15203857421876 137.17910766601563 106.9703369140625 140.2396697998047 101.46133422851563 141.46389770507813 99.01287841796876 141.46389770507813 99.01287841796876 139.6275634765625 103.29766845703124 135.3427734375 113.09149169921876 128.60952758789063 129.6185302734375 118.81570434570313 138.80023193359375 115.1430206298828 147.36981201171875 115.1430206298828 147.36981201171875 115.1430206298828 " />
        <polyline stroke="black" stroke-width="3" stroke-linecap="round" fill="transparent" stroke-linejoin="round" points="78.8131103515625 174.5180206298828 94.115966796875 163.49998474121094 105.13400268554688 157.37884521484375 118.60049438476563 150.64559936523438 129.00640869140625 146.36080932617188 135.1275634765625 143.3002471923828 138.1881103515625 142.07601928710938 139.412353515625 142.07601928710938 138.1881103515625 145.13658142089844 133.9033203125 151.8698272705078 128.39431762695313 162.8878631591797 122.88531494140624 175.74224853515625 117.9884033203125 187.37240600585935 111.255126953125 197.7783203125 99.625 206.96002197265625 82.48580932617188 215.52963256835935 67.1829833984375 220.426513671875 57.38916015625 222.26287841796875 51.880126953125 223.48709106445313 50.655914306640625 223.48709106445313 56.77703857421875 221.6507568359375 81.2615966796875 216.75384521484375 110.64300537109376 214.91751098632813 137.57601928710938 213.0811767578125 162.67266845703125 211.85693359375 178.587646484375 210.6327209472656 190.829833984375 211.24481201171875 190.829833984375 211.24481201171875 " />
        </svg>