<?xml version="1.0" standalone="no"?>
    <svg width="256" height="256" xmlns="http://www.w3.org/2000/svg" version="1.1">
    <polyline stroke="black" stroke-width="3" stroke-linecap="round" fill="transparent" stroke-linejoin="round" points="80.63009643554688 62.85621643066406 80.63009643554688 78.35032653808594 80.63009643554688 91.83595275878906 81.20391845703125 103.31307983398438 81.20391845703125 103.31307983398438 " />
        <polyline stroke="black" stroke-width="3" stroke-linecap="round" fill="transparent" stroke-linejoin="round" points="87.22940063476563 49.94445037841797 103.29742431640624 45.066673278808594 115.06143188476563 42.77125549316406 126.53860473632813 41.33660125732422 136.00723266601563 40.76274871826172 142.60653686523438 41.33660125732422 147.77127075195313 43.34510040283203 150.92745971679688 47.362098693847656 150.64053344726563 56.543792724609375 143.75424194335938 73.75947570800781 136.86798095703125 91.5490264892578 129.40786743164063 106.4692840576172 129.40786743164063 106.4692840576172 " />
        <polyline stroke="black" stroke-width="3" stroke-linecap="round" fill="transparent" stroke-linejoin="round" points="79.48236083984375 118.80720520019533 108.17520141601563 110.19935607910156 127.97323608398438 106.4692840576172 147.48431396484375 103.60000610351563 159.5352783203125 103.02615356445313 159.5352783203125 103.02615356445313 " />
        <polyline stroke="black" stroke-width="3" stroke-linecap="round" fill="transparent" stroke-linejoin="round" points="69.72677612304688 166.43727111816406 87.22940063476563 160.6986846923828 106.16668701171876 156.10784912109375 127.1124267578125 152.37777709960938 139.73727416992188 149.79544067382813 142.60653686523438 149.22157287597656 142.60653686523438 149.22157287597656 " />
        <polyline stroke="black" stroke-width="3" stroke-linecap="round" fill="transparent" stroke-linejoin="round" points="107.601318359375 164.42877197265625 106.45361328125 182.21829223632813 107.88824462890624 200.86862182617188 109.03594970703124 209.763427734375 109.03594970703124 209.763427734375 " />
        <polyline stroke="black" stroke-width="3" stroke-linecap="round" fill="transparent" stroke-linejoin="round" points="30.70458984375 224.10980224609375 54.8065185546875 216.649658203125 87.22940063476563 211.4849548339844 121.08694458007813 207.46798706054688 154.37060546875 204.8856201171875 186.2196044921875 204.02484130859375 208.5999755859375 205.17257690429688 226.3895263671875 207.1810607910156 239.30133056640625 210.3372802734375 239.30133056640625 210.3372802734375 " />
        </svg>