<?xml version="1.0" standalone="no"?>
    <svg width="256" height="256" xmlns="http://www.w3.org/2000/svg" version="1.1">
    <polyline stroke="black" stroke-width="3" stroke-linecap="round" fill="transparent" stroke-linejoin="round" points="78.18402099609375 70.34135437011719 80.3223876953125 79.42951965332031 82.99539184570313 91.190673828125 85.1337890625 102.41722106933594 86.20297241210938 110.97077941894533 87.27215576171875 116.31675720214844 87.27215576171875 116.31675720214844 " />
        <polyline stroke="black" stroke-width="3" stroke-linecap="round" fill="transparent" stroke-linejoin="round" points="87.27215576171875 78.36032104492188 97.964111328125 71.94515991210938 106.5177001953125 68.20297241210938 118.27880859375 62.85699462890625 133.24755859375 57.511016845703125 147.68170166015625 53.23423767089844 159.9774169921875 51.63044738769531 166.92724609375 52.69963836669922 171.73858642578125 55.37263488769531 173.3424072265625 61.78779602050781 169.06561279296875 77.82572937011719 159.44287109375 97.6058349609375 147.68170166015625 112.03997802734376 147.68170166015625 112.03997802734376 " />
        <polyline stroke="black" stroke-width="3" stroke-linecap="round" fill="transparent" stroke-linejoin="round" points="92.08355712890624 120.05894470214844 105.98309326171876 115.78216552734376 116.675048828125 112.57456970214844 127.36700439453124 109.3669891357422 140.73193359375 106.15940856933594 150.8892822265625 103.48641967773438 156.76983642578125 103.48641967773438 156.76983642578125 103.48641967773438 " />
        <polyline stroke="black" stroke-width="3" stroke-linecap="round" fill="transparent" stroke-linejoin="round" points="89.94515991210938 159.08456420898438 104.3792724609375 152.13479614257813 115.6058349609375 148.92721557617188 126.8323974609375 145.71963500976563 139.6627197265625 142.5120391845703 148.75091552734375 139.83905029296875 154.6314697265625 138.7698516845703 154.6314697265625 138.7698516845703 " />
        <polyline stroke="black" stroke-width="3" stroke-linecap="round" fill="transparent" stroke-linejoin="round" points="117.74423217773438 169.77651977539063 116.675048828125 180.46847534179688 115.07122802734376 187.95285034179688 109.72528076171876 199.17938232421875 109.72528076171876 199.17938232421875 " />
        <polyline stroke="black" stroke-width="3" stroke-linecap="round" fill="transparent" stroke-linejoin="round" points="57.334716796875 212.00973510742188 70.69964599609375 212.00973510742188 81.92620849609375 210.9405517578125 102.7755126953125 208.26754760742188 124.159423828125 207.1983642578125 146.07791137695313 207.73294067382813 163.18505859375 208.26754760742188 177.619140625 208.8021545410156 185.103515625 210.40594482421875 185.103515625 210.40594482421875 " />
        </svg>