<?xml version="1.0" standalone="no"?>
    <svg width="256" height="256" xmlns="http://www.w3.org/2000/svg" version="1.1">
    <polyline stroke="black" stroke-width="3" stroke-linecap="round" fill="transparent" stroke-linejoin="round" points="80 78 79 91 79 98 79 113 79 128 82 139 84 141 84 141 " />
        <polyline stroke="black" stroke-width="3" stroke-linecap="round" fill="transparent" stroke-linejoin="round" points="77 78 87 72 104 72 124 70 143 70 157 70 163 78 164 91 164 109 164 123 161 132 159 136 159 136 " />
        <polyline stroke="black" stroke-width="3" stroke-linecap="round" fill="transparent" stroke-linejoin="round" points="80 137 109 132 127 131 143 131 156 131 160 131 160 131 " />
        <polyline stroke="black" stroke-width="3" stroke-linecap="round" fill="transparent" stroke-linejoin="round" points="65 171 102 163 123 157 143 155 159 155 170 155 173 155 173 155 " />
        <polyline stroke="black" stroke-width="3" stroke-linecap="round" fill="transparent" stroke-linejoin="round" points="109 179 109 188 109 192 111 203 112 214 114 220 114 220 " />
        <polyline stroke="black" stroke-width="3" stroke-linecap="round" fill="transparent" stroke-linejoin="round" points="58 227 83 223 111 216 140 210 167 208 188 207 203 208 209 216 209 216 " />
        </svg>