<?xml version="1.0" standalone="no"?>
    <svg width="256" height="256" xmlns="http://www.w3.org/2000/svg" version="1.1">
    <polyline stroke="black" stroke-width="3" stroke-linecap="round" fill="transparent" stroke-linejoin="round" points="34.69970703125 126.3057861328125 49.480224609375 118.50494384765624 65.49252319335938 110.29351806640624 82.73651123046875 102.90324401855467 97.9276123046875 97.15525817871094 111.06591796875 92.63897705078124 119.68792724609376 89.76498413085938 123.79364013671876 88.1226806640625 124.61474609375 87.71211242675781 124.61474609375 87.71211242675781 " />
        <polyline stroke="black" stroke-width="3" stroke-linecap="round" fill="transparent" stroke-linejoin="round" points="72.8828125 116.8626708984375 65.903076171875 136.570068359375 63.02911376953125 153.40347290039063 62.20794677734375 160.3831787109375 60.97625732421875 179.68002319335938 61.386810302734375 187.0703125 63.02911376953125 189.53372192382813 63.02911376953125 189.53372192382813 " />
        <polyline stroke="black" stroke-width="3" stroke-linecap="round" fill="transparent" stroke-linejoin="round" points="122.56185913085938 102.49267578125 113.52935791015624 118.91551208496094 106.54962158203124 131.23263549804688 89.30563354492188 160.3831787109375 74.52508544921875 183.37515258789065 74.52508544921875 183.37515258789065 " />
        <polyline stroke="black" stroke-width="3" stroke-linecap="round" fill="transparent" stroke-linejoin="round" points="44.55340576171875 227.71682739257813 58.10223388671875 215.81027221679688 65.49252319335938 210.062255859375 82.73651123046875 197.74514770507813 101.21221923828124 184.1962890625 111.06591796875 175.57431030273438 111.06591796875 175.57431030273438 " />
        <polyline stroke="black" stroke-width="3" stroke-linecap="round" fill="transparent" stroke-linejoin="round" points="129.54159545898438 84.42755126953125 141.03759765625 78.67955017089844 146.78558349609375 76.21612548828125 152.5335693359375 73.75270080566406 164.8507080078125 68.415283203125 180.452392578125 59.79328918457031 184.55810546875 57.329864501953125 192.3590087890625 51.58187103271485 194.001220703125 49.93959045410156 194.001220703125 49.529014587402344 192.3590087890625 50.35015106201172 187.84271240234375 54.45586395263672 184.55810546875 58.1510009765625 177.578369140625 68.00469970703125 166.0823974609375 86.48040771484375 157.04986572265625 103.72439575195313 148.01727294921875 125.89520263671876 143.5009765625 139.0334930419922 134.057861328125 165.31002807617188 122.97247314453124 193.2288818359375 118.04559326171876 203.9037170410156 115.171630859375 209.24114990234375 115.171630859375 209.24114990234375 " />
        <polyline stroke="black" stroke-width="3" stroke-linecap="round" fill="transparent" stroke-linejoin="round" points="138.57415771484375 155.45632934570313 151.3018798828125 142.72862243652344 162.7978515625 134.10665893554688 173.88330078125 127.53750610351563 183.73699951171875 123.43179321289063 193.18011474609375 121.78952026367188 200.98095703125 123.02122497558594 207.1395263671875 127.12693786621094 212.88751220703125 138.21234130859375 215.761474609375 155.04576110839844 214.94036865234375 171.46859741210938 213.298095703125 178.85887145996094 205.9078369140625 195.28170776367188 199.338623046875 201.85086059570313 191.537841796875 206.36712646484375 182.09466552734375 207.59884643554688 172.240966796875 204.31427001953125 164.44012451171875 198.5662841796875 164.44012451171875 198.5662841796875 " />
        </svg>