<?xml version="1.0" standalone="no"?>
    <svg width="256" height="256" xmlns="http://www.w3.org/2000/svg" version="1.1">
    <polyline stroke="black" stroke-width="3" stroke-linecap="round" fill="transparent" stroke-linejoin="round" points="78.86669921875 70.66667175292969 79.93341064453125 92.00001525878906 85.2667236328125 117.60000610351563 87.4000244140625 125.06671142578124 88.466796875 129.33334350585938 89.53338623046875 129.33334350585938 89.53338623046875 124.00001525878906 89.53338623046875 124.00001525878906 " />
        <polyline stroke="black" stroke-width="3" stroke-linecap="round" fill="transparent" stroke-linejoin="round" points="87.4000244140625 65.33334350585938 118.3333740234375 62.13334655761719 129 61.066680908203125 143.933349609375 60 150.3333740234375 58.93333435058594 154.60009765625 58.93333435058594 155.666748046875 58.93333435058594 155.666748046875 60 155.666748046875 69.60000610351563 155.666748046875 83.4666748046875 155.666748046875 94.1333465576172 156.7333984375 99.4666748046875 157.8001708984375 106.933349609375 154.60009765625 108.00001525878906 154.60009765625 108.00001525878906 " />
        <polyline stroke="black" stroke-width="3" stroke-linecap="round" fill="transparent" stroke-linejoin="round" points="108.7333984375 65.33334350585938 110.86669921875 85.60000610351563 114.06671142578124 101.60000610351563 116.2000732421875 108.00001525878906 116.2000732421875 111.20002746582033 116.2000732421875 111.20002746582033 " />
        <polyline stroke="black" stroke-width="3" stroke-linecap="round" fill="transparent" stroke-linejoin="round" points="100.2000732421875 89.86669921875 125.80010986328124 84.53335571289063 141.8001708984375 82.40000915527344 149.2667236328125 83.4666748046875 149.2667236328125 86.66667175292969 149.2667236328125 86.66667175292969 " />
        <polyline stroke="black" stroke-width="3" stroke-linecap="round" fill="transparent" stroke-linejoin="round" points="102.3333740234375 106.933349609375 129 102.66667175292967 139.666748046875 102.66667175292967 146.0667724609375 106.933349609375 146.0667724609375 106.933349609375 " />
        <polyline stroke="black" stroke-width="3" stroke-linecap="round" fill="transparent" stroke-linejoin="round" points="42.60003662109375 162.40003967285156 70.3333740234375 153.86668395996094 110.86669921875 144.26669311523438 152.466796875 137.86668395996094 185.533447265625 134.6666717529297 206.86669921875 134.6666717529297 217.533447265625 136.80001831054688 218.60009765625 137.86668395996094 213.2667236328125 141.06671142578125 213.2667236328125 141.06671142578125 " />
        <polyline stroke="black" stroke-width="3" stroke-linecap="round" fill="transparent" stroke-linejoin="round" points="89.53338623046875 176.26669311523438 93.80010986328124 201.86666870117188 94.86669921875 208.2666931152344 95.93341064453124 211.4666748046875 95.93341064453124 206.13336181640625 94.86669921875 196.53335571289065 94.86669921875 196.53335571289065 " />
        <polyline stroke="black" stroke-width="3" stroke-linecap="round" fill="transparent" stroke-linejoin="round" points="99.1334228515625 177.33334350585938 131.1334228515625 164.53334045410156 151.4000244140625 160.26669311523438 165.2667236328125 159.20001220703125 169.533447265625 160.26669311523438 173.8001708984375 163.4666748046875 173.8001708984375 168.80001831054688 173.8001708984375 176.26669311523438 171.666748046875 191.20001220703125 169.533447265625 200.80001831054688 164.2000732421875 209.33334350585935 159.933349609375 212.53335571289065 159.933349609375 212.53335571289065 " />
        <polyline stroke="black" stroke-width="3" stroke-linecap="round" fill="transparent" stroke-linejoin="round" points="127.93341064453124 169.86668395996094 131.1334228515625 197.6000061035156 131.1334228515625 202.933349609375 131.1334228515625 202.933349609375 " />
        <polyline stroke="black" stroke-width="3" stroke-linecap="round" fill="transparent" stroke-linejoin="round" points="107.666748046875 191.20001220703125 131.1334228515625 189.06671142578125 149.2667236328125 186.933349609375 157.8001708984375 188 163.1334228515625 191.20001220703125 163.1334228515625 191.20001220703125 " />
        <polyline stroke="black" stroke-width="3" stroke-linecap="round" fill="transparent" stroke-linejoin="round" points="110.86669921875 208.2666931152344 138.60009765625 208.2666931152344 152.466796875 208.2666931152344 165.2667236328125 208.2666931152344 182.3333740234375 212.53335571289065 182.3333740234375 212.53335571289065 " />
        </svg>