<?xml version="1.0" standalone="no"?>
    <svg width="256" height="256" xmlns="http://www.w3.org/2000/svg" version="1.1">
    <polyline stroke="black" stroke-width="3" stroke-linecap="round" fill="transparent" stroke-linejoin="round" points="48.2518310546875 81.67218017578125 61.045013427734375 80.10989379882813 73.83819580078125 78.547607421875 81.99374389648438 78.89486694335938 85.86138916015625 79.11322021484375 92.36788940429688 79.10699462890625 94.95068359375 79.39297485351563 95.126220703125 79.41239929199219 " />
        <polyline stroke="black" stroke-width="3" stroke-linecap="round" fill="transparent" stroke-linejoin="round" points="89.47912597656253 130.7921905517578 104.69158935546876 137.73370361328125 119.904052734375 144.6752166748047 125.14111328125 149.6708221435547 133.17172241210938 165.11729431152344 135.21273803710938 174.90130615234375 132.64044189453125 191.6929626464844 125.941162109375 201.46466064453125 122.16220092773438 204.93524169921875 115.7869873046875 209.3099365234375 113.49484252929688 209.46728515625 97.85128784179688 211.3714599609375 93.709716796875 209.920654296875 88.0787353515625 196.463134765625 83.719482421875 176.42437744140625 83.89901733398438 172.6097412109375 " />
        <polyline stroke="black" stroke-width="3" stroke-linecap="round" fill="transparent" stroke-linejoin="round" points="77.9111328125 108.31475830078125 76.92562866210938 121.11697387695313 75.94012451171875 133.919189453125 72.26718139648438 167.95367431640625 66.11761474609375 194.24496459960935 65.70834350585938 195.4794006347656 " />
        <polyline stroke="black" stroke-width="3" stroke-linecap="round" fill="transparent" stroke-linejoin="round" points="132.0013427734375 64.05377197265625 131.41302490234375 64.61544799804688 130.82470703125 65.1771240234375 131.89056396484375 76.58917236328125 136.239990234375 102.43350219726563 144.03073120117188 117.48966979980467 149.818603515625 134.53988647460938 155.1268310546875 168.521240234375 155.95263671875 193.88232421875 157.09375 204.75592041015625 157.4991455078125 216.940673828125 157.4969482421875 217.56939697265625 " />
        <polyline stroke="black" stroke-width="3" stroke-linecap="round" fill="transparent" stroke-linejoin="round" points="179.73394775390625 64.97178649902344 183.13525390625 78.2618408203125 186.53656005859375 91.55189514160156 195.80889892578125 126.29351806640624 201.02777099609375 144.96810913085938 207.968017578125 177.96112060546875 210.17578125 201.83538818359375 209.3349609375 208.305908203125 205.1015625 213.83169555664065 204.67822265625 214.38427734375 " />
        <polyline stroke="black" stroke-width="3" stroke-linecap="round" fill="transparent" stroke-linejoin="round" points="157.9501953125 112.82510375976564 168.2642822265625 111.73924255371094 178.578369140625 110.65338134765624 184.00872802734375 110.20565795898438 189.38665771484375 110.37911987304688 189.489990234375 110.443359375 " />
        <polyline stroke="black" stroke-width="3" stroke-linecap="round" fill="transparent" stroke-linejoin="round" points="155.72125244140625 153.1992645263672 166.2869873046875 150.7350311279297 176.85272216796875 148.2707977294922 188.28466796875 145.39126586914063 189.37158203125 145.24972534179688 189.40966796875 145.24749755859375 " />
        </svg>