<?xml version="1.0" standalone="no"?>
    <svg width="256" height="256" xmlns="http://www.w3.org/2000/svg" version="1.1">
    <polyline stroke="black" stroke-width="3" stroke-linecap="round" fill="transparent" stroke-linejoin="round" points="34.466033935546875 98.15484619140624 53.46630859375 87.00250244140625 69.98837280273438 79.56759643554688 78.24935913085938 76.26318359375 94.7713623046875 70.06744384765625 101.38018798828124 67.58914184570313 113.358642578125 63.45863342285156 122.8587646484375 59.741180419921875 124.92404174804688 58.91508483886719 124.510986328125 58.50202941894531 122.03268432617188 58.91508483886719 114.59774780273438 62.219482421875 105.51068115234376 69.2413330078125 90.640869140625 85.76335144042969 69.98837280273438 124.17703247070313 54.292449951171875 160.5254364013672 44.79229736328125 185.72149658203125 39.835693359375 198.93911743164065 37.77044677734375 204.30877685546875 37.357391357421875 204.30877685546875 41.0748291015625 196.4608154296875 46.857513427734375 186.547607421875 71.22750854492188 153.5035858154297 87.74951171875 138.22073364257813 100.96713256835938 129.95974731445313 110.05419921875 128.30752563476563 115.8369140625 134.09024047851563 117.90219116210938 165.06900024414063 110.46728515625 193.9825134277344 98.90185546875 208.0262451171875 85.27120971679688 215.46112060546875 72.87973022460938 214.63504028320313 66.68392944335938 206.3740234375 66.68392944335938 206.3740234375 " />
        <polyline stroke="black" stroke-width="3" stroke-linecap="round" fill="transparent" stroke-linejoin="round" points="143.51132202148438 56.02372741699219 142.6851806640625 75.43708801269531 141.446044921875 89.48080444335938 139.38079833984375 106.41587829589844 136.48944091796875 125.41616821289063 134.42416381835938 145.24258422851563 131.94589233398438 178.28660583496094 131.11981201171875 196.87387084960935 131.11981201171875 205.54791259765625 131.11981201171875 207.20013427734375 131.94589233398438 202.2435302734375 131.94589233398438 202.2435302734375 " />
        <polyline stroke="black" stroke-width="3" stroke-linecap="round" fill="transparent" stroke-linejoin="round" points="141.032958984375 127.89447021484376 156.31585693359375 120.45956420898438 162.9246826171875 117.56822204589844 169.946533203125 115.08993530273438 181.098876953125 110.95941162109376 187.29461669921875 109.30722045898438 188.5338134765625 109.30722045898438 188.1207275390625 113.85076904296876 177.3814697265625 130.37277221679688 159.6202392578125 148.54698181152344 145.16351318359375 161.35154724121094 138.1416015625 168.37339782714844 136.07638549804688 171.67779541015625 137.72860717773438 172.50390625 148.4678955078125 170.4386444091797 164.57684326171875 163.4167938232422 181.51190185546875 150.19918823242188 199.6861572265625 126.24229431152344 199.6861572265625 126.24229431152344 " />
        <polyline stroke="black" stroke-width="3" stroke-linecap="round" fill="transparent" stroke-linejoin="round" points="196.3817138671875 52.3062744140625 188.5338134765625 81.63284301757813 186.05548095703125 97.32875061035156 184.40325927734375 113.024658203125 183.5771484375 129.5466766357422 183.16412353515625 144.41648864746094 183.16412353515625 170.85171508789063 183.16412353515625 196.04779052734375 183.5771484375 223.30908203125 183.5771484375 223.30908203125 " />
        </svg>