<?xml version="1.0" standalone="no"?>
    <svg width="256" height="256" xmlns="http://www.w3.org/2000/svg" version="1.1">
    <polyline stroke="black" stroke-width="3" stroke-linecap="round" fill="transparent" stroke-linejoin="round" points="94.42904663085938 73.98614501953125 81.64013671875 114.17990112304688 72.50518798828125 139.75775146484375 58.49822998046875 170.8165740966797 49.9722900390625 189.08645629882813 49.9722900390625 189.08645629882813 " />
        <polyline stroke="black" stroke-width="3" stroke-linecap="round" fill="transparent" stroke-linejoin="round" points="77.37713623046875 127.57781982421876 95.64703369140624 141.58474731445313 105.3909912109375 150.71969604492188 112.69891357421876 158.02764892578125 119.39788818359376 162.8996124267578 126.09686279296876 162.8996124267578 130.96881103515625 156.20065307617188 138.27679443359375 136.7127685546875 138.27679443359375 136.7127685546875 " />
        <polyline stroke="black" stroke-width="3" stroke-linecap="round" fill="transparent" stroke-linejoin="round" points="150.45672607421875 48.40828704833984 151.065673828125 58.76123046875 149.23870849609375 83.73008728027344 141.9307861328125 119.66087341308594 133.40481567382813 148.8927001953125 124.87884521484376 173.2525634765625 117.5709228515625 190.9134521484375 111.48095703125 201.8753967285156 111.48095703125 201.8753967285156 " />
        <polyline stroke="black" stroke-width="3" stroke-linecap="round" fill="transparent" stroke-linejoin="round" points="142.53976440429688 140.9757537841797 160.8096923828125 147.67471313476563 172.380615234375 153.76467895507813 185.16949462890625 162.29061889648438 198.56744384765625 175.0795440673828 213.183349609375 190.30447387695313 213.183349609375 190.30447387695313 " />
        </svg>