<?xml version="1.0" standalone="no"?>
    <svg width="256" height="256" xmlns="http://www.w3.org/2000/svg" version="1.1">
    <polyline stroke="black" stroke-width="3" stroke-linecap="round" fill="transparent" stroke-linejoin="round" points="90.05950927734375 50.722473144531236 79.90036010742188 77.5426025390625 69.7412109375 104.36273193359376 64.05209350585938 118.99191284179688 53.486572265625 143.78021240234375 44.54656982421875 160.4412078857422 39.670166015625 168.1621551513672 36.41925048828125 171.8194580078125 35.60650634765625 171.8194580078125 35.60650634765625 171.8194580078125 " />
        <polyline stroke="black" stroke-width="3" stroke-linecap="round" fill="transparent" stroke-linejoin="round" points="74.21124267578125 134.02743530273438 79.90036010742188 137.2783660888672 85.5894775390625 140.529296875 90.46588134765624 143.37384033203125 106.31414794921876 149.46934509277344 117.6923828125 146.62478637695313 117.6923828125 146.62478637695313 " />
        <polyline stroke="black" stroke-width="3" stroke-linecap="round" fill="transparent" stroke-linejoin="round" points="158.73526000976563 49.503356933593736 146.95068359375 81.60626220703125 135.16610717773438 113.70916748046876 129.47698974609375 127.11923217773438 123.787841796875 140.93565368652344 116.4732666015625 156.78392028808594 112.00326538085938 165.72396850585938 109.5650634765625 169.3812713623047 109.15869140625 169.78762817382813 109.15869140625 169.78762817382813 " />
        <polyline stroke="black" stroke-width="3" stroke-linecap="round" fill="transparent" stroke-linejoin="round" points="148.98248291015625 136.46563720703125 155.484375 140.1229248046875 161.98626708984375 143.78021240234375 177.83447265625 152.7202606201172 196.52734375 166.94305419921875 196.52734375 166.94305419921875 " />
        </svg>