<?xml version="1.0" standalone="no"?>
    <svg width="256" height="256" xmlns="http://www.w3.org/2000/svg" version="1.1">
    <polyline stroke="black" stroke-width="3" stroke-linecap="round" fill="transparent" stroke-linejoin="round" points="102.705322265625 56.156829833984375 99.1204833984375 66.46315002441406 95.53564453125 76.76947021484375 91.50277709960938 87.52389526367188 86.57366943359375 99.6226043701172 75.81927490234375 123.82005310058594 66.85723876953125 143.5364990234375 61.48004150390625 154.29092407226563 58.34332275390625 160.1162109375 56.9990234375 161.90863037109375 56.9990234375 161.90863037109375 " />
        <polyline stroke="black" stroke-width="3" stroke-linecap="round" fill="transparent" stroke-linejoin="round" points="90.15844726562499 142.64028930664063 100.01669311523438 148.46560668945313 109.87493896484376 154.29092407226563 118.38885498046876 156.5314178466797 118.38885498046876 156.5314178466797 " />
        <polyline stroke="black" stroke-width="3" stroke-linecap="round" fill="transparent" stroke-linejoin="round" points="177.98626708984375 44.05810546875 173.5052490234375 56.156829833984375 169.02423095703125 68.25555419921875 163.19891357421875 83.04287719726563 157.37359619140625 97.8302001953125 146.17108154296875 126.06057739257813 137.20907592773438 148.46560668945313 130.93563842773438 163.2529296875 126.00653076171876 172.66305541992188 126.00653076171876 172.66305541992188 " />
        <polyline stroke="black" stroke-width="3" stroke-linecap="round" fill="transparent" stroke-linejoin="round" points="157.82171630859375 133.6782989501953 163.19891357421875 135.91879272460938 168.57611083984375 138.15928649902344 179.7786865234375 144.43270874023438 190.5330810546875 152.49850463867188 203.07989501953125 163.70103454589844 203.07989501953125 163.70103454589844 " />
        </svg>