<?xml version="1.0" standalone="no"?>
    <svg width="256" height="256" xmlns="http://www.w3.org/2000/svg" version="1.1">
    <polyline stroke="black" stroke-width="3" stroke-linecap="round" fill="transparent" stroke-linejoin="round" points="96.8956298828125 67.00439453125 93.25888061523438 78.72279357910156 89.62213134765625 90.44119262695313 84.77313232421875 103.77590942382813 74.67108154296875 131.6575927734375 67.3975830078125 155.09439086914063 60.528167724609375 180.55160522460935 56.48736572265625 192.26998901367188 56.48736572265625 192.26998901367188 " />
        <polyline stroke="black" stroke-width="3" stroke-linecap="round" fill="transparent" stroke-linejoin="round" points="72.24658203124999 127.21267700195313 85.17721557617188 132.46575927734375 98.10784912109376 137.71884155273438 117.50384521484376 145.80050659179688 129.62631225585938 147.41680908203125 129.62631225585938 147.41680908203125 " />
        <polyline stroke="black" stroke-width="3" stroke-linecap="round" fill="transparent" stroke-linejoin="round" points="160.74066162109375 73.87380981445311 157.50799560546875 84.78404235839844 154.27532958984375 95.69427490234376 151.04266357421875 106.6044921875 145.78961181640625 130.041259765625 142.15283203125 151.4576416015625 140.13241577148438 166.00462341308594 139.32427978515625 176.10667419433594 139.32427978515625 178.5311737060547 139.32427978515625 178.5311737060547 " />
        <polyline stroke="black" stroke-width="3" stroke-linecap="round" fill="transparent" stroke-linejoin="round" points="153.06304931640625 148.62905883789063 160.3365478515625 152.66989135742188 167.61004638671875 156.71072387695313 176.0958251953125 161.55972290039063 194.68359375 172.46994018554688 203.97747802734375 179.33934020996094 203.97747802734375 179.33934020996094 " />
        </svg>