<?xml version="1.0" standalone="no"?>
    <svg width="256" height="256" xmlns="http://www.w3.org/2000/svg" version="1.1">
    <polyline stroke="black" stroke-width="3" stroke-linecap="round" fill="transparent" stroke-linejoin="round" points="98.10784912109372 56.498260498046875 92.85479736328124 73.4697265625 87.60174560546875 90.44119262695313 81.13641357421875 109.02899169921876 68.20574951171875 144.18417358398438 55.67919921875 172.06585693359375 44.3648681640625 193.07815551757813 41.940399169921875 196.71490478515625 41.940399169921875 196.71490478515625 " />
        <polyline stroke="black" stroke-width="3" stroke-linecap="round" fill="transparent" stroke-linejoin="round" points="82.3486328125 145.3964080810547 85.581298828125 147.0127410888672 88.81396484375 148.6290740966797 95.27926635742188 153.073974609375 101.34051513671876 158.32705688476563 106.9976806640625 162.77195739746094 114.27117919921876 165.1964569091797 120.3323974609375 163.98419189453125 120.3323974609375 163.98419189453125 " />
        <polyline stroke="black" stroke-width="3" stroke-linecap="round" fill="transparent" stroke-linejoin="round" points="180.13653564453125 67.00440979003908 175.28759765625 79.93504333496094 170.43865966796875 92.8656768798828 156.6998291015625 125.59635925292967 132.85897827148438 178.12710571289063 127.2017822265625 190.24957275390625 122.75692749023438 199.94757080078125 117.90789794921876 212.07003784179688 117.0997314453125 214.4945373535156 117.0997314453125 214.4945373535156 " />
        <polyline stroke="black" stroke-width="3" stroke-linecap="round" fill="transparent" stroke-linejoin="round" points="170.0345458984375 144.9923095703125 176.4998779296875 148.2249755859375 182.9652099609375 151.4576416015625 196.2999267578125 159.53929138183594 202.7652587890625 163.98419189453125 215.29180908203125 176.10667419433594 221.757080078125 184.5924072265625 221.757080078125 184.5924072265625 " />
        </svg>