<?xml version="1.0" standalone="no"?>
    <svg width="256" height="256" xmlns="http://www.w3.org/2000/svg" version="1.1">
    <polyline stroke="black" stroke-width="3" stroke-linecap="round" fill="transparent" stroke-linejoin="round" points="112 98 109 107 106 116 92 145 81 166 76 175 62 192 56 197 56 197 " />
        <polyline stroke="black" stroke-width="3" stroke-linecap="round" fill="transparent" stroke-linejoin="round" points="88 156 97 158 106 160 116 164 127 169 138 172 138 172 " />
        <polyline stroke="black" stroke-width="3" stroke-linecap="round" fill="transparent" stroke-linejoin="round" points="182 89 174 108 166 127 161 139 149 167 144 180 134 201 128 212 125 216 125 216 " />
        <polyline stroke="black" stroke-width="3" stroke-linecap="round" fill="transparent" stroke-linejoin="round" points="142 174 152 182 162 190 172 198 186 204 204 209 216 215 216 215 " />
        </svg>