<?xml version="1.0" standalone="no"?>
    <svg width="256" height="256" xmlns="http://www.w3.org/2000/svg" version="1.1">
    <polyline stroke="black" stroke-width="3" stroke-linecap="round" fill="transparent" stroke-linejoin="round" points="97 111 106 110 117 107 138 103 148 102 151 103 150 108 144 117 130 137 119 153 108 168 98 178 94 179 94 179 " />
        <polyline stroke="black" stroke-width="3" stroke-linecap="round" fill="transparent" stroke-linejoin="round" points="109 131 117 134 131 139 146 144 161 149 170 152 172 155 172 155 " />
        <polyline stroke="black" stroke-width="3" stroke-linecap="round" fill="transparent" stroke-linejoin="round" points="102 195 106 193 115 189 133 184 143 183 146 182 147 182 147 183 146 185 144 189 142 197 141 207 143 220 149 226 156 230 165 230 179 228 189 223 196 220 199 218 199 218 197 218 195 218 192 218 190 217 187 215 184 211 181 206 179 205 179 205 " />
        <polyline stroke="black" stroke-width="3" stroke-linecap="round" fill="transparent" stroke-linejoin="round" points="170 191 171 192 176 198 181 202 181 202 181 202 " />
        <polyline stroke="black" stroke-width="3" stroke-linecap="round" fill="transparent" stroke-linejoin="round" points="124 195 124 197 124 201 123 206 118 218 114 229 110 239 106 247 104 249 104 249 " />
        </svg>