<?xml version="1.0" standalone="no"?>
    <svg width="256" height="256" xmlns="http://www.w3.org/2000/svg" version="1.1">
    <polyline stroke="black" stroke-width="3" stroke-linecap="round" fill="transparent" stroke-linejoin="round" points="86.2620849609375 79.808349609375 97.55230712890624 74.31932067871094 108.92059326171876 69.35057067871094 118.59793090820313 64.90213012695313 127.312744140625 61.7803955078125 129.940185546875 60.76582336425781 131.99530029296875 60.1414794921875 132.90582275390625 60.01142883300781 133.13998413085938 60.50569152832031 129.3939208984375 63.523345947265625 123.33258056640624 69.48065185546875 116.12655639648438 78.24748229980469 106.99554443359376 90.7083740234375 101.53250122070313 96.8997802734375 95.31509399414063 102.6229248046875 91.54296875 106.629150390625 87.61483764648438 111.41580200195313 83.92083740234375 116.9568328857422 80.22674560546875 122.36784362792967 75.88238525390625 127.3625946044922 72.78668212890625 130.6664276123047 69.95111083984375 133.86619567871094 68.4422607421875 135.66116333007813 68.4422607421875 135.66116333007813 " />
        <polyline stroke="black" stroke-width="3" stroke-linecap="round" fill="transparent" stroke-linejoin="round" points="91.02273559570313 96.22340393066406 104.68026733398438 98.04440307617188 116.41275024414063 100.25564575195313 126.37625122070313 102.80503845214844 129.185791015625 103.76756286621094 131.94329833984375 104.5740203857422 133.55621337890625 104.93821716308594 135.09100341796875 105.1983642578125 135.94949340820313 105.30242919921876 137.22427368164063 105.4324951171875 138.83709716796875 105.61457824707033 139.09722900390625 105.64060974121094 139.48748779296875 105.8227081298828 139.85165405273438 106.08283996582033 139.85165405273438 106.08283996582033 " />
        <polyline stroke="black" stroke-width="3" stroke-linecap="round" fill="transparent" stroke-linejoin="round" points="101.97479248046876 135.79124450683594 105.09652709960938 135.55711364746094 106.37118530273438 135.55711364746094 107.85397338867188 136.15545654296875 109.024658203125 139.82347106933594 107.12564086914063 149.78695678710938 101.1683349609375 162.32589721679688 97.47427368164063 168.10107421875 93.1038818359375 173.74618530273438 88.31723022460938 180.5359344482422 83.27044677734375 187.32568359375 80.0966796875 192.89276123046875 76.55874633789063 197.26318359375 74.841796875 200.8271484375 74.6336669921875 200.93121337890625 74.6336669921875 200.93121337890625 " />
        <polyline stroke="black" stroke-width="3" stroke-linecap="round" fill="transparent" stroke-linejoin="round" points="85.5076904296875 145.91082763671875 95.41912841796876 141.9046173095703 107.04754638671876 137.97645568847656 116.75091552734376 135.0108184814453 122.89028930664063 133.449951171875 126.66238403320313 132.6435089111328 128.4573974609375 132.1492462158203 129.44595336914063 131.83705139160156 129.9921875 131.6289520263672 130.642578125 131.42083740234375 131.44906616210938 130.8485107421875 131.5531005859375 130.822509765625 131.47506713867188 131.00462341308594 131.344970703125 131.36878967285156 131.05877685546875 132.22727966308594 130.22634887695313 133.7881622314453 129.57601928710938 135.1669158935547 128.66549682617188 137.0659637451172 127.546875 139.09506225585938 126.42828369140624 141.1241912841797 124.58123779296876 143.69960021972656 123.72274780273438 145.44256591796875 122.8382568359375 147.62777709960938 121.6156005859375 150.333251953125 120.28890991210938 152.70057678222656 119.716552734375 153.97528076171875 119.09222412109376 155.8223114013672 118.259765625 158.24163818359375 117.06307983398438 161.20726013183594 116.95904541015624 161.67552185058594 116.80291748046876 162.56002807617188 116.51678466796876 164.09486389160156 116.048583984375 166.25404357910156 115.86639404296876 167.21658325195313 115.736328125 168.3092041015625 115.65829467773438 169.5318603515625 115.63229370117188 170.26025390625 115.63229370117188 170.962646484375 115.63229370117188 171.6650390625 115.684326171875 172.99179077148438 115.736328125 173.6421356201172 115.94442749023438 174.91683959960938 116.90701293945313 177.75241088867188 119.30035400390624 180.56195068359375 121.875732421875 181.94070434570313 127.57290649414063 183.78775024414065 130.30438232421875 184.54214477539065 134.59677124023438 185.582763671875 138.60299682617188 186.28512573242188 141.28250122070313 186.88345336914065 144.92446899414063 187.87200927734375 146.719482421875 188.28823852539065 151.7662353515625 189.53692626953125 154.47174072265625 189.953125 158.8681640625 190.73358154296875 162.666259765625 191.5660400390625 167.4268798828125 191.98223876953125 171.79730224609375 192.3724670410156 175.43927001953125 192.68463134765625 180.5380859375 193.30902099609375 183.5557861328125 193.54312133789065 187.48394775390625 193.85528564453125 191.64630126953125 194.58367919921875 194.53387451171875 194.6617431640625 196.90118408203125 194.50567626953125 199.24249267578125 194.14144897460935 202.2601318359375 193.282958984375 203.170654296875 192.8407287597656 203.4827880859375 192.5545654296875 204.05517578125 191.4359436035156 204.10711669921875 189.12066650390625 201.5577392578125 183.60562133789065 197.265380859375 177.8304443359375 191.98443603515625 171.8211212158203 184.33624267578125 165.3175506591797 177.49444580078125 160.79104614257813 169.69012451171875 156.9669647216797 163.784912109375 154.49557495117188 163.784912109375 154.49557495117188 " />
        <polyline stroke="black" stroke-width="3" stroke-linecap="round" fill="transparent" stroke-linejoin="round" points="156.83905029296875 161.961669921875 156.83905029296875 161.961669921875 " />
        </svg>