<?xml version="1.0" standalone="no"?>
    <svg width="256" height="256" xmlns="http://www.w3.org/2000/svg" version="1.1">
    <polyline stroke="black" stroke-width="3" stroke-linecap="round" fill="transparent" stroke-linejoin="round" points="93 85 112 78 125 74 135 72 140 71 142 71 142 71 142 71 142 72 142 73 140 75 136 81 130 90 119 107 111 118 103 126 96 131 95 131 95 131 " />
        <polyline stroke="black" stroke-width="3" stroke-linecap="round" fill="transparent" stroke-linejoin="round" points="97 95 101 96 108 98 121 103 133 108 145 112 156 115 165 117 171 118 176 119 178 120 179 121 179 121 179 121 " />
        <polyline stroke="black" stroke-width="3" stroke-linecap="round" fill="transparent" stroke-linejoin="round" points="104 131 105 131 111 129 119 127 129 123 138 121 144 119 147 119 147 119 144 121 142 123 139 127 137 131 136 138 136 149 137 155 139 158 144 161 152 162 162 163 173 165 183 167 191 169 202 173 207 175 209 176 210 177 211 177 212 177 213 176 214 175 214 175 214 174 213 173 212 171 211 169 210 167 207 161 203 157 200 152 199 151 199 151 " />
        <polyline stroke="black" stroke-width="3" stroke-linecap="round" fill="transparent" stroke-linejoin="round" points="169 137 172 139 179 145 180 146 180 146 " />
        <polyline stroke="black" stroke-width="3" stroke-linecap="round" fill="transparent" stroke-linejoin="round" points="131 144 126 150 114 165 105 175 96 185 90 194 88 198 88 198 " />
        </svg>