<?xml version="1.0" standalone="no"?>
    <svg width="256" height="256" xmlns="http://www.w3.org/2000/svg" version="1.1">
    <polyline stroke="black" stroke-width="3" stroke-linecap="round" fill="transparent" stroke-linejoin="round" points="96.9793701171875 70.45875549316406 105.5489501953125 65.56184387207031 114.1185302734375 60.052825927734375 123.912353515625 54.54380798339844 132.48193359375 50.871124267578125 138.60308837890625 48.42266845703125 142.2757568359375 48.42266845703125 142.2757568359375 51.48323822021485 138.60308837890625 59.440704345703125 125.74868774414063 77.19200134277344 106.773193359375 102.28865051269533 87.185546875 123.71261596679688 71.88272094726563 138.40333557128906 61.476806640625 146.97291564941406 55.35565185546875 151.25772094726563 55.35565185546875 151.25772094726563 " />
        <polyline stroke="black" stroke-width="3" stroke-linecap="round" fill="transparent" stroke-linejoin="round" points="89.02191162109375 98.615966796875 102.4884033203125 102.9007568359375 119.6275634765625 107.79766845703124 139.82730102539063 112.08245849609376 155.74224853515625 113.91880798339844 165.53607177734375 113.3066864013672 169.82086181640625 110.24612426757813 169.82086181640625 110.24612426757813 " />
        <polyline stroke="black" stroke-width="3" stroke-linecap="round" fill="transparent" stroke-linejoin="round" points="92.694580078125 144.52447509765625 103.71261596679688 137.7912139892578 114.1185302734375 131.05796813964844 124.52447509765624 126.16107177734376 132.48193359375 124.32472229003906 136.7667236328125 124.32472229003906 136.7667236328125 128.60952758789063 128.80926513671875 142.07601928710938 111.0579833984375 163.49998474121094 88.4097900390625 187.98452758789065 71.88272094726563 202.67523193359375 60.2525634765625 211.85693359375 55.35565185546875 215.52963256835935 55.35565185546875 215.52963256835935 55.35565185546875 215.52963256835935 " />
        <polyline stroke="black" stroke-width="3" stroke-linecap="round" fill="transparent" stroke-linejoin="round" points="87.79766845703125 156.76673889160156 84.73712158203125 169.00900268554688 81.06442260742188 183.69973754882813 79.8402099609375 196.5541076660156 82.28863525390625 207.5721435546875 87.185546875 214.91751098632813 98.81570434570313 221.03863525390625 115.3427734375 222.87496948242188 134.31829833984375 221.03863525390625 150.23321533203125 217.97805786132813 161.25128173828125 214.30538940429688 168.59661865234375 210.0205993652344 174.7177734375 203.287353515625 177.7783203125 191.65719604492188 174.7177734375 174.5180206298828 174.7177734375 174.5180206298828 " />
        <polyline stroke="black" stroke-width="3" stroke-linecap="round" fill="transparent" stroke-linejoin="round" points="149.62109375 163.49998474121094 153.2938232421875 166.560546875 156.3543701171875 169.00900268554688 158.80279541015625 172.6816864013672 158.80279541015625 172.6816864013672 " />
        </svg>