<?xml version="1.0" standalone="no"?>
    <svg width="256" height="256" xmlns="http://www.w3.org/2000/svg" version="1.1">
    <polyline stroke="black" stroke-width="3" stroke-linecap="round" fill="transparent" stroke-linejoin="round" points="77.91461181640625 74.20462036132813 84.62924194335938 71.68661499023438 106.451904296875 63.29327392578125 119.04193115234376 58.67694091796875 130.79257202148438 54.89994812011719 132.89093017578125 54.48027801513672 135.40890502929688 54.48027801513672 134.9892578125 56.998291015625 128.27459716796875 68.32928466796875 111.4879150390625 91.4109344482422 91.34393310546876 117.43026733398438 76.65560913085938 133.37759399414063 67.00326538085938 143.0299072265625 61.547607421875 147.646240234375 61.547607421875 147.646240234375 " />
        <polyline stroke="black" stroke-width="3" stroke-linecap="round" fill="transparent" stroke-linejoin="round" points="81.69158935546875 101.06326293945313 89.665283203125 101.06326293945313 98.05859375 101.48294067382813 114.00595092773438 102.322265625 121.97958374023438 102.74192810058594 145.06124877929688 106.09927368164063 145.06124877929688 106.09927368164063 " />
        <polyline stroke="black" stroke-width="3" stroke-linecap="round" fill="transparent" stroke-linejoin="round" points="79.59326171875 156.87890625 86.72760009765625 152.68223571777344 95.12094116210938 148.48558044433594 109.80926513671876 142.1905975341797 116.104248046875 140.09225463867188 126.17623901367188 137.1545867919922 131.63192749023438 136.31524658203125 133.730224609375 136.31524658203125 132.89093017578125 139.67259216308594 121.55990600585938 157.71824645996094 98.05859375 186.67523193359375 77.91461181640625 206.39956665039065 69.10162353515625 214.37322998046875 48.957611083984375 230.320556640625 45.18060302734375 232.83856201171875 45.18060302734375 232.83856201171875 " />
        <polyline stroke="black" stroke-width="3" stroke-linecap="round" fill="transparent" stroke-linejoin="round" points="85.04891967773438 176.60324096679688 82.95062255859375 195.90789794921875 85.46859741210938 213.95355224609375 87.986572265625 221.92721557617188 95.12094116210938 231.99920654296875 107.7109375 239.55322265625 126.17623901367188 241.65155029296875 145.48089599609375 237.03521728515625 161.42822265625 230.320556640625 171.919921875 224.4452209472656 178.21490478515625 219.82888793945313 181.99188232421875 213.95355224609375 181.99188232421875 213.95355224609375 " />
        <polyline stroke="black" stroke-width="3" stroke-linecap="round" fill="transparent" stroke-linejoin="round" points="136.24822998046875 179.12124633789063 140.44491577148438 181.21957397460935 144.64157104492188 183.737548828125 154.71356201171875 192.97021484375 154.71356201171875 192.97021484375 " />
        </svg>