<?xml version="1.0" standalone="no"?>
    <svg width="256" height="256" xmlns="http://www.w3.org/2000/svg" version="1.1">
    <polyline stroke="black" stroke-width="3" stroke-linecap="round" fill="transparent" stroke-linejoin="round" points="82.18572998046875 52.233787536621094 78.26385498046875 73.80404663085938 78.91748046875 78.37953186035156 81.5321044921875 89.49147033691406 82.18572998046875 92.10604858398438 86.10760498046875 95.374267578125 86.76116943359375 95.374267578125 88.72210693359375 92.75968933105467 88.72210693359375 92.75968933105467 " />
        <polyline stroke="black" stroke-width="3" stroke-linecap="round" fill="transparent" stroke-linejoin="round" points="82.83935546875 66.61393737792969 101.14141845703124 51.58015441894531 106.37054443359376 49.61922454833984 122.0579833984375 45.04371643066406 128.59442138671875 43.736427307128906 142.3209228515625 42.42913818359375 152.12554931640625 44.39009094238281 156.7010498046875 47.004638671875 159.96923828125 57.46296691894531 159.96923828125 65.30665588378906 154.08648681640625 78.37953186035156 147.550048828125 86.22325134277344 141.667236328125 86.87690734863281 141.667236328125 86.87690734863281 " />
        <polyline stroke="black" stroke-width="3" stroke-linecap="round" fill="transparent" stroke-linejoin="round" points="101.14141845703124 59.42387390136719 104.40960693359376 75.76496887207031 104.40960693359376 77.07225036621094 105.71685791015624 86.22325134277344 106.37054443359376 88.18418884277344 109.63873291015624 90.14512634277344 112.2532958984375 89.49147033691406 112.2532958984375 89.49147033691406 " />
        <polyline stroke="black" stroke-width="3" stroke-linecap="round" fill="transparent" stroke-linejoin="round" points="127.94073486328124 62.69209289550781 124.0189208984375 80.99411010742188 108.98504638671876 92.75968933105467 105.063232421875 94.06697082519533 99.180419921875 96.02789306640624 96.56585693359376 96.02789306640624 96.56585693359376 96.02789306640624 103.102294921875 95.374267578125 107.6778564453125 95.374267578125 122.0579833984375 93.41334533691406 131.86260986328125 92.10604858398438 147.550048828125 90.14512634277344 156.04742431640625 91.452392578125 158.00836181640625 92.75968933105467 158.00836181640625 92.75968933105467 " />
        <polyline stroke="black" stroke-width="3" stroke-linecap="round" fill="transparent" stroke-linejoin="round" points="107.6778564453125 107.13983154296876 93.29766845703124 118.90542602539063 92.64398193359376 122.1736297607422 84.80029296875 146.3584442138672 82.18572998046875 152.89488220214844 77.6102294921875 165.31411743164063 73.03466796875 175.1187744140625 71.72747802734375 177.7333221435547 73.03466796875 176.426025390625 74.99566650390625 173.15782165527344 74.99566650390625 173.15782165527344 " />
        <polyline stroke="black" stroke-width="3" stroke-linecap="round" fill="transparent" stroke-linejoin="round" points="80.87841796875 158.1240234375 102.44866943359376 157.47036743164063 103.75592041015624 157.47036743164063 114.21429443359376 161.39224243164063 118.78973388671876 161.39224243164063 130.55535888671875 158.77769470214844 130.55535888671875 158.77769470214844 " />
        <polyline stroke="black" stroke-width="3" stroke-linecap="round" fill="transparent" stroke-linejoin="round" points="148.20367431640625 115.63719177246094 131.86260986328125 130.67100524902344 130.55535888671875 133.2855682373047 123.365234375 148.9730224609375 122.0579833984375 152.24124145507813 117.48248291015624 164.00682067871094 118.1361083984375 169.8896026611328 119.443359375 170.54324340820313 119.443359375 170.54324340820313 " />
        <polyline stroke="black" stroke-width="3" stroke-linecap="round" fill="transparent" stroke-linejoin="round" points="123.365234375 154.85581970214844 142.97454833984375 165.96775817871094 146.89642333984375 168.5823211669922 161.93017578125 185.5770263671875 168.46661376953125 192.76712036132813 168.46661376953125 192.76712036132813 " />
        </svg>