<?xml version="1.0" standalone="no"?>
    <svg width="256" height="256" xmlns="http://www.w3.org/2000/svg" version="1.1">
    <polyline stroke="black" stroke-width="3" stroke-linecap="round" fill="transparent" stroke-linejoin="round" points="83 50 82 52 81 55 80 60 80 67 81 75 82 85 83 92 85 97 86 101 87 104 89 106 91 106 92 104 93 103 " />
        <polyline stroke="black" stroke-width="3" stroke-linecap="round" fill="transparent" stroke-linejoin="round" points="89 66 89 65 91 63 93 61 96 59 100 58 105 57 113 56 120 56 124 55 135 55 141 54 148 54 153 54 157 54 160 55 162 55 163 59 163 63 163 69 161 74 159 80 156 85 152 89 151 90 150 91 " />
        <polyline stroke="black" stroke-width="3" stroke-linecap="round" fill="transparent" stroke-linejoin="round" points="112 60 112 60 111 60 111 61 111 63 111 69 111 74 112 79 112 84 113 88 113 91 113 93 114 95 116 96 117 97 " />
        <polyline stroke="black" stroke-width="3" stroke-linecap="round" fill="transparent" stroke-linejoin="round" points="136 74 137 74 139 75 140 77 139 79 138 83 135 86 127 94 117 100 113 102 109 104 107 105 106 106 105 107 104 107 104 107 105 107 107 107 109 107 113 106 118 106 123 105 130 104 136 103 143 102 152 101 154 101 158 102 159 102 " />
        <polyline stroke="black" stroke-width="3" stroke-linecap="round" fill="transparent" stroke-linejoin="round" points="118 125 116 127 114 130 109 137 107 139 102 149 98 157 95 165 91 175 88 183 86 191 82 201 81 203 78 208 78 210 78 210 " />
        <polyline stroke="black" stroke-width="3" stroke-linecap="round" fill="transparent" stroke-linejoin="round" points="90 173 91 172 94 171 97 170 99 170 102 171 105 172 109 175 112 177 115 180 117 182 121 184 122 184 125 184 " />
        <polyline stroke="black" stroke-width="3" stroke-linecap="round" fill="transparent" stroke-linejoin="round" points="152 121 152 120 152 120 151 122 149 125 147 130 144 138 142 146 137 159 134 166 131 173 129 178 127 182 125 185 125 185 " />
        <polyline stroke="black" stroke-width="3" stroke-linecap="round" fill="transparent" stroke-linejoin="round" points="135 163 135 163 137 163 140 163 143 165 146 167 152 172 156 177 160 181 164 187 168 192 172 198 175 201 " />
        </svg>