<?xml version="1.0" standalone="no"?>
    <svg width="256" height="256" xmlns="http://www.w3.org/2000/svg" version="1.1">
    <polyline stroke="black" stroke-width="3" stroke-linecap="round" fill="transparent" stroke-linejoin="round" points="77.37518310546875 65.88377380371094 76.30734252929688 75.49411010742188 75.23953247070313 87.77398681640625 73.1038818359375 100.05384826660156 72.03607177734375 110.73200988769533 70.96826171875 118.74061584472656 70.96826171875 125.1475067138672 72.03607177734375 129.9526824951172 74.70562744140625 134.22393798828125 80.044677734375 137.42738342285156 86.45159912109375 138.4951934814453 97.1297607421875 137.42738342285156 111.0113525390625 133.69003295898438 124.3590087890625 128.3509521484375 132.90155029296875 123.01188659667967 140.37625122070313 116.07107543945313 149.986572265625 103.7912139892578 149.986572265625 103.7912139892578 " />
        <polyline stroke="black" stroke-width="3" stroke-linecap="round" fill="transparent" stroke-linejoin="round" points="133.9693603515625 31.71369171142578 136.10498046875 41.857933044433594 138.7745361328125 66.95158386230469 139.84234619140625 101.12167358398438 140.37625122070313 129.9526824951172 141.97796630859375 160.38540649414063 143.0457763671875 181.20779418945313 145.181396484375 197.22503662109375 145.71533203125 208.97097778320313 141.97796630859375 216.4457092285156 141.97796630859375 216.4457092285156 " />
        <polyline stroke="black" stroke-width="3" stroke-linecap="round" fill="transparent" stroke-linejoin="round" points="40.5355224609375 198.8267517089844 58.15447998046875 194.55548095703125 73.6378173828125 191.35205078125 103.00271606445313 185.47906494140625 126.49465942382813 181.20779418945313 153.72393798828125 176.93653869628906 171.8768310546875 174.8009033203125 188.42791748046875 172.13137817382813 199.1060791015625 171.0635528564453 204.4451904296875 171.0635528564453 204.4451904296875 171.0635528564453 " />
        </svg>