<?xml version="1.0" standalone="no"?>
    <svg width="256" height="256" xmlns="http://www.w3.org/2000/svg" version="1.1">
    <polyline stroke="black" stroke-width="3" stroke-linecap="round" fill="transparent" stroke-linejoin="round" points="92.73077392578124 60.71968078613281 88.6171875 85.40113830566406 81.41845703125 121.39494323730467 78.333251953125 135.2782745361328 77.81906127929688 145.5622100830078 77.81906127929688 150.1899871826172 81.9326171875 149.16159057617188 87.58880615234375 145.5622100830078 95.3017578125 139.9060516357422 105.585693359375 134.2498779296875 114.84124755859376 128.0795135498047 125.639404296875 117.79556274414063 125.639404296875 117.79556274414063 " />
        <polyline stroke="black" stroke-width="3" stroke-linecap="round" fill="transparent" stroke-linejoin="round" points="154.9486083984375 47.86474609375 149.29248046875 64.31906127929688 144.6646728515625 83.85855102539063 141.0653076171875 106.99742126464844 139.008544921875 130.65049743652344 139.008544921875 147.61900329589844 139.008544921875 166.13011169433594 137.98013305664063 181.5560302734375 134.89495849609375 198.0103454589844 128.72457885742188 212.40786743164065 128.72457885742188 212.40786743164065 " />
        <polyline stroke="black" stroke-width="3" stroke-linecap="round" fill="transparent" stroke-linejoin="round" points="54.165985107421875 183.61282348632813 63.421539306640625 181.0418243408203 75.76226806640625 177.44244384765625 98.901123046875 172.30047607421875 116.89804077148438 169.2152862548828 137.98013305664063 167.67269897460938 152.891845703125 167.67269897460938 164.2042236328125 168.7010955810547 170.37457275390625 170.24368286132813 173.97393798828125 174.35726928710938 173.97393798828125 174.35726928710938 " />
        </svg>