<?xml version="1.0" standalone="no"?>
    <svg width="256" height="256" xmlns="http://www.w3.org/2000/svg" version="1.1">
    <polyline stroke="black" stroke-width="3" stroke-linecap="round" fill="transparent" stroke-linejoin="round" points="46.7098388671875 105.20668029785156 61.23040771484375 95.96633911132813 66.1805419921875 93.65625 90.60150146484376 80.45576477050781 95.22164916992188 77.81565856933594 103.47195434570313 73.85551452636719 108.75213623046876 72.2054443359375 110.73220825195313 72.2054443359375 111.062255859375 72.53547668457031 108.09213256835938 75.8355712890625 97.86175537109376 90.35612487792967 84.33123779296875 111.1469268798828 67.17059326171875 139.19796752929688 51.329986572265625 166.25900268554688 43.739715576171875 180.7795257568359 41.429595947265625 184.7396545410156 42.089630126953125 185.06967163085935 49.0198974609375 180.11947631835938 60.240325927734375 168.56906127929688 72.12075805664063 156.68861389160156 85.65130615234375 145.7982177734375 96.87173461914063 140.8480224609375 103.80194091796876 141.1780242919922 109.41217041015624 148.4383087158203 109.7421875 166.5889892578125 103.14193725585938 190.01986694335935 92.25152587890624 207.51052856445313 81.36111450195313 215.43081665039065 72.12075805664063 216.7508850097656 65.19052124023438 210.8106689453125 63.210418701171875 205.200439453125 63.210418701171875 205.200439453125 " />
        <polyline stroke="black" stroke-width="3" stroke-linecap="round" fill="transparent" stroke-linejoin="round" points="138.12322998046875 105.20668029785156 142.74343872070313 125.33743286132813 145.05349731445313 167.2490234375 145.05349731445313 171.5391845703125 144.0634765625 180.44949340820313 143.40341186523438 184.40966796875 143.07342529296875 185.06967163085935 143.07342529296875 185.06967163085935 143.07342529296875 185.06967163085935 " />
        <polyline stroke="black" stroke-width="3" stroke-linecap="round" fill="transparent" stroke-linejoin="round" points="140.10336303710938 130.28762817382813 146.70358276367188 125.00741577148438 149.34368896484375 123.6873779296875 169.1444091796875 114.7770538330078 174.42462158203125 113.12698364257813 187.955078125 110.48687744140624 199.175537109375 112.13694763183594 208.08587646484375 117.41712951660156 216.66619873046875 131.2776641845703 221.9464111328125 149.4283447265625 224.2564697265625 170.5491180419922 222.2763671875 185.06967163085935 216.336181640625 192.3299560546875 213.03607177734375 193.32000732421875 213.03607177734375 193.32000732421875 " />
        <polyline stroke="black" stroke-width="3" stroke-linecap="round" fill="transparent" stroke-linejoin="round" points="183.66497802734375 125.33743286132813 175.08465576171875 151.40841674804688 157.593994140625 184.07965087890625 148.02362060546875 191.66995239257813 147.36361694335938 191.99993896484375 146.70358276367188 191.66995239257813 147.36361694335938 190.34988403320313 152.97381591796875 186.7197265625 169.804443359375 180.11947631835938 185.97509765625 175.16932678222656 201.48565673828125 171.8691864013672 214.6861572265625 172.19920349121094 217.98626708984375 173.84925842285156 217.98626708984375 173.84925842285156 " />
        </svg>