<?xml version="1.0" standalone="no"?>
    <svg width="256" height="256" xmlns="http://www.w3.org/2000/svg" version="1.1">
    <polyline stroke="black" stroke-width="3" stroke-linecap="round" fill="transparent" stroke-linejoin="round" points="59 82 59 82 57 82 57 81 59 80 61 80 65 79 70 78 76 76 82 75 88 73 94 71 100 70 109 66 112 64 117 61 121 59 122 58 " />
        <polyline stroke="black" stroke-width="3" stroke-linecap="round" fill="transparent" stroke-linejoin="round" points="96 79 93 83 84 98 79 107 75 117 71 125 68 133 66 140 65 145 63 148 63 150 62 152 62 152 64 152 66 150 70 147 75 143 81 139 88 133 95 129 105 124 110 122 115 122 117 125 118 130 116 138 114 147 111 155 108 163 102 173 97 177 93 180 88 181 85 180 81 179 79 175 79 170 80 167 " />
        <polyline stroke="black" stroke-width="3" stroke-linecap="round" fill="transparent" stroke-linejoin="round" points="136 79 136 80 136 86 135 93 134 102 133 111 132 120 132 130 132 139 132 146 132 154 132 157 132 158 132 155 132 149 132 142 134 133 135 123 136 118 140 106 144 100 149 95 154 91 160 88 166 85 172 83 178 82 183 82 190 82 194 85 197 89 199 96 201 106 201 116 200 125 199 134 196 140 192 144 190 145 188 145 " />
        <polyline stroke="black" stroke-width="3" stroke-linecap="round" fill="transparent" stroke-linejoin="round" points="169 92 170 91 170 90 170 93 168 99 165 107 162 118 157 129 152 141 146 151 141 159 137 165 131 170 129 172 128 174 127 174 127 174 129 173 132 170 136 168 142 165 153 161 162 159 171 158 176 158 182 159 " />
        </svg>