<?xml version="1.0" standalone="no"?>
    <svg width="256" height="256" xmlns="http://www.w3.org/2000/svg" version="1.1">
    <polyline stroke="black" stroke-width="3" stroke-linecap="round" fill="transparent" stroke-linejoin="round" points="55.00897216796875 87.44972229003906 81.51025390625 71.10723876953125 94.76095581054688 66.2486572265625 101.38629150390624 64.48190307617188 113.31185913085938 61.39007568359375 122.14569091796876 59.181640625 127.4459228515625 56.97319030761719 129.65438842773438 55.64811706542969 129.65438842773438 55.64811706542969 " />
        <polyline stroke="black" stroke-width="3" stroke-linecap="round" fill="transparent" stroke-linejoin="round" points="55.892303466796875 129.85186767578125 67.81793212890625 122.78483581542967 74.88494873046875 119.2513427734375 82.83538818359375 115.7178192138672 97.852783203125 109.9758758544922 112.428466796875 105.5589599609375 124.7957763671875 102.02548217773438 135.8380126953125 97.60856628417967 135.8380126953125 97.60856628417967 " />
        <polyline stroke="black" stroke-width="3" stroke-linecap="round" fill="transparent" stroke-linejoin="round" points="63.40106201171875 157.236572265625 89.01898193359375 154.14476013183594 104.47811889648438 149.2861785888672 119.0538330078125 141.33578491210938 126.120849609375 133.8270721435547 126.120849609375 133.8270721435547 " />
        <polyline stroke="black" stroke-width="3" stroke-linecap="round" fill="transparent" stroke-linejoin="round" points="102.71136474609376 28.263412475585938 100.944580078125 51.67291259765625 98.29443359375 82.14945983886719 96.08602905273438 116.6011962890625 96.08602905273438 133.3853759765625 96.52767944335938 163.86192321777344 96.96942138671876 189.4798889160156 97.41107177734376 207.1474609375 97.41107177734376 216.42291259765625 97.41107177734376 216.42291259765625 " />
        <polyline stroke="black" stroke-width="3" stroke-linecap="round" fill="transparent" stroke-linejoin="round" points="173.381591796875 34.88874816894531 162.781005859375 50.34785461425781 157.9224853515625 57.8565673828125 152.6221923828125 66.2486572265625 146.88021850585938 75.9658203125 135.39633178710938 94.07505798339844 130.09603881835938 102.90884399414063 120.820556640625 117.04289245605467 113.75360107421876 125.43498229980467 108.45330810546876 129.85186767578125 105.80316162109376 129.85186767578125 105.36151123046876 126.76004028320313 111.10345458984376 113.95108032226563 115.52032470703124 107.32574462890624 131.421142578125 92.75 145.55517578125 85.24127197265625 160.13092041015625 80.82438659667969 175.1483154296875 78.17425537109375 188.3990478515625 76.40750122070313 201.2080078125 74.6407470703125 212.69189453125 72.87399291992188 220.20062255859375 71.54891967773438 220.20062255859375 71.54891967773438 " />
        <polyline stroke="black" stroke-width="3" stroke-linecap="round" fill="transparent" stroke-linejoin="round" points="151.297119140625 145.31097412109375 147.32196044921875 155.46983337402344 145.55517578125 161.65347290039063 145.996826171875 172.25401306152344 148.64697265625 174.90414428710938 155.71405029296875 176.22921752929688 165.8729248046875 174.4624481201172 177.7984619140625 169.60386657714844 189.28240966796875 162.09515380859375 199.4412841796875 153.70309448242188 208.71673583984375 144.4276123046875 219.3172607421875 128.96849060058594 219.3172607421875 128.96849060058594 " />
        <polyline stroke="black" stroke-width="3" stroke-linecap="round" fill="transparent" stroke-linejoin="round" points="210.9251708984375 99.8170166015625 211.80853271484375 113.95108032226563 211.80853271484375 118.36795043945313 211.80853271484375 127.64341735839844 210.9251708984375 138.68565368652344 209.15838623046875 144.4276123046875 206.50823974609375 149.2861785888672 206.50823974609375 149.2861785888672 " />
        <polyline stroke="black" stroke-width="3" stroke-linecap="round" fill="transparent" stroke-linejoin="round" points="196.349365234375 93.63336181640624 191.0491943359375 116.6011962890625 188.8406982421875 126.318359375 184.423828125 149.72789001464844 179.12353515625 173.57907104492188 173.381591796875 194.7801513671875 166.3145751953125 212.44769287109375 155.2723388671875 232.32373046875 155.2723388671875 232.32373046875 " />
        </svg>