<?xml version="1.0" standalone="no"?>
    <svg width="256" height="256" xmlns="http://www.w3.org/2000/svg" version="1.1">
    <polyline stroke="black" stroke-width="3" stroke-linecap="round" fill="transparent" stroke-linejoin="round" points="47.763031005859375 99.41587829589844 48.589111328125 105.19857788085938 49.415252685546875 114.2856903076172 49.82830810546875 119.6553192138672 49.82830810546875 120.48143005371094 49.82830810546875 120.89447021484376 49.82830810546875 119.6553192138672 50.2413330078125 115.52482604980467 53.1326904296875 107.26382446289063 59.328460693359375 96.1114501953125 66.76336669921875 85.78520202636719 76.26351928710938 76.69808959960938 87.41586303710938 68.0240478515625 97.3291015625 62.654388427734375 105.590087890625 59.34999084472656 110.959716796875 58.11083984375 113.85107421875 58.523895263671875 115.09027099609376 61.828277587890625 112.61190795898438 70.50234985351563 105.590087890625 82.0677490234375 93.61163330078124 94.872314453125 80.39401245117188 106.43771362304688 69.24166870117188 115.11175537109376 61.3936767578125 120.48143005371094 58.915374755859375 122.13363647460938 58.50238037109375 122.13363647460938 61.806732177734375 119.6553192138672 72.13299560546875 113.87261962890624 85.3505859375 106.85076904296876 96.916015625 101.48110961914063 106.41619873046876 97.76365661621094 113.02499389648438 95.69842529296876 115.91635131835938 95.2853546142578 116.329345703125 96.52450561523438 112.19891357421876 103.54637145996094 104.76400756835938 112.63346862792967 96.50299072265624 121.30752563476563 87.82891845703125 131.6337890625 79.98095703125 141.13394165039063 72.9591064453125 149.3949432373047 67.1763916015625 157.24290466308594 63.458953857421875 161.78643798828125 61.3936767578125 163.85171508789063 60.567596435546875 163.4386444091797 61.3936767578125 161.78643798828125 67.1763916015625 154.76458740234375 77.502685546875 144.85137939453125 88.655029296875 136.59039306640625 98.56820678710938 131.22073364257813 105.590087890625 128.742431640625 109.7205810546875 128.32937622070313 110.959716796875 131.22073364257813 106.8292236328125 143.6122283935547 96.50299072265624 158.06900024414063 84.1114501953125 168.80828857421875 72.54608154296875 176.2432098388672 66.35031127929688 179.547607421875 63.87200927734375 179.96066284179688 63.87200927734375 179.547607421875 70.48080444335938 175.83016967773438 86.58978271484375 167.98220825195313 104.35092163085938 160.13424682617188 111.78582763671876 156.829833984375 129.54696655273438 145.26443481445313 135.32968139648438 137.82955932617188 135.32968139648438 137.82955932617188 " />
        <polyline stroke="black" stroke-width="3" stroke-linecap="round" fill="transparent" stroke-linejoin="round" points="89.06805419921875 65.95878601074219 89.48114013671875 77.11114501953125 90.72027587890624 89.91571044921875 91.95941162109376 102.7202606201172 93.61163330078124 117.59007263183594 97.3291015625 148.15579223632813 100.63348388671876 176.2432098388672 102.28570556640624 198.1348876953125 102.69873046875 213.417724609375 102.69873046875 219.200439453125 102.69873046875 219.200439453125 102.69873046875 219.200439453125 " />
        <polyline stroke="black" stroke-width="3" stroke-linecap="round" fill="transparent" stroke-linejoin="round" points="135.32968139648438 90.7418212890625 141.11239624023438 87.85044860839844 153.9169921875 82.89385986328125 160.5257568359375 80.41555786132813 172.917236328125 76.69808959960938 177.8739013671875 75.45895385742188 186.1348876953125 72.98065185546875 192.74365234375 70.08929443359375 192.74365234375 70.08929443359375 " />
        <polyline stroke="black" stroke-width="3" stroke-linecap="round" fill="transparent" stroke-linejoin="round" points="165.89544677734375 63.06744384765625 161.764892578125 70.91539001464844 157.6343994140625 79.1763916015625 153.50390625 88.26351928710938 147.30816650390625 104.37248229980467 144.829833984375 110.98126220703124 140.28631591796875 122.13363647460938 137.8079833984375 128.742431640625 137.39495849609375 130.39463806152344 137.8079833984375 130.39463806152344 142.3515625 128.32937622070313 151.025634765625 123.78582763671876 163.8302001953125 118.00314331054688 176.63470458984375 113.04653930664063 188.6131591796875 109.32908630371094 197.2872314453125 107.26382446289063 203.0699462890625 105.6116180419922 204.72216796875 105.19857788085938 204.72216796875 105.19857788085938 " />
        <polyline stroke="black" stroke-width="3" stroke-linecap="round" fill="transparent" stroke-linejoin="round" points="147.30816650390625 156.829833984375 161.764892578125 151.46018981933594 175.3956298828125 145.677490234375 181.59130859375 142.7861328125 192.3306884765625 137.82955932617188 199.76556396484375 132.87295532226563 202.65692138671875 128.742431640625 202.65692138671875 128.742431640625 " />
        <polyline stroke="black" stroke-width="3" stroke-linecap="round" fill="transparent" stroke-linejoin="round" points="179.113037109375 116.76397705078124 172.917236328125 124.19889831542967 153.50390625 154.35154724121094 143.5906982421875 176.2432098388672 138.63412475585938 188.63470458984375 135.74276733398438 194.41741943359375 134.9166259765625 195.65655517578125 134.50360107421875 195.65655517578125 136.98190307617188 192.3521728515625 143.5906982421875 184.91726684570313 148.13424682617188 180.78677368164065 160.11273193359375 173.764892578125 173.330322265625 169.6343994140625 193.98284912109375 170.4604949951172 208.8526611328125 178.72149658203125 208.8526611328125 178.72149658203125 " />
        </svg>