<?xml version="1.0" standalone="no"?>
    <svg width="256" height="256" xmlns="http://www.w3.org/2000/svg" version="1.1">
    <polyline stroke="black" stroke-width="3" stroke-linecap="round" fill="transparent" stroke-linejoin="round" points="69.8828125 63.17463684082031 79.36236572265625 59.82891845703125 92.7452392578125 55.925567626953125 115.607666015625 48.11888122558594 133.4515380859375 43.10029602050781 148.50726318359375 39.19695281982422 159.65966796875 36.40885162353515 165.23590087890625 35.293609619140625 168.02398681640625 35.293609619140625 168.02398681640625 35.293609619140625 " />
        <polyline stroke="black" stroke-width="3" stroke-linecap="round" fill="transparent" stroke-linejoin="round" points="101.66717529296876 67.07797241210938 97.2061767578125 79.34562683105469 92.1876220703125 94.40138244628906 87.72665405273438 110.57237243652344 83.82330322265625 124.51287841796876 81.59283447265625 132.877197265625 81.59283447265625 137.89578247070313 83.82330322265625 140.12625122070313 91.6300048828125 138.45339965820313 107.80099487304688 128.97384643554688 136.2396240234375 114.47572326660156 157.98681640625 107.78427124023438 174.1578369140625 108.89950561523438 183.6373291015625 114.47572326660156 190.886474609375 126.1857452392578 195.905029296875 149.60580444335938 193.674560546875 169.12252807617188 187.54071044921875 183.62066650390625 179.1763916015625 194.7730712890625 162.44781494140625 204.81024169921875 145.16156005859375 205.92547607421875 136.2396240234375 200.34927368164065 125.08721923828124 179.15969848632813 125.08721923828124 179.15969848632813 " />
        <polyline stroke="black" stroke-width="3" stroke-linecap="round" fill="transparent" stroke-linejoin="round" points="125.64483642578124 76.55752563476563 126.76007080078124 87.70993041992188 123.41436767578124 102.76568603515624 111.704345703125 135.10768127441406 101.66717529296876 157.97010803222656 91.6300048828125 175.25634765625 79.36236572265625 191.9849548339844 79.36236572265625 191.9849548339844 " />
        </svg>