<?xml version="1.0" standalone="no"?>
    <svg width="256" height="256" xmlns="http://www.w3.org/2000/svg" version="1.1">
    <polyline stroke="black" stroke-width="3" stroke-linecap="round" fill="transparent" stroke-linejoin="round" points="86.97134399414063 95.30632019042967 103.14193725585938 90.026123046875 107.76214599609376 89.03607177734375 125.91278076171876 85.075927734375 129.212890625 84.4158935546875 138.78329467773438 83.42587280273438 144.39349365234375 83.09585571289063 144.39349365234375 83.09585571289063 144.39349365234375 83.09585571289063 " />
        <polyline stroke="black" stroke-width="3" stroke-linecap="round" fill="transparent" stroke-linejoin="round" points="95.22164916992188 117.08714294433594 89.28143310546875 131.60769653320313 86.97134399414063 138.8679656982422 86.31130981445313 139.52796936035156 86.31130981445313 142.16806030273438 86.641357421875 143.4881134033203 89.94140625 144.4781494140625 96.87173461914063 143.81814575195313 114.03231811523438 139.8579864501953 129.54293823242188 138.2079315185547 144.0634765625 137.2178955078125 155.94390869140625 138.2079315185547 163.2042236328125 142.4980926513672 168.1544189453125 149.4283447265625 169.47442626953125 163.9488983154297 164.19427490234375 183.089599609375 154.62384033203125 199.92025756835935 145.71353149414063 208.50054931640625 133.17303466796875 213.1207275390625 127.89291381835938 213.1207275390625 121.29263305664063 209.82061767578125 116.012451171875 202.23031616210935 114.6923828125 196.29010009765625 114.6923828125 196.29010009765625 " />
        <polyline stroke="black" stroke-width="3" stroke-linecap="round" fill="transparent" stroke-linejoin="round" points="136.14315795898438 104.8766632080078 127.23284912109376 129.95761108398438 106.44207763671876 169.2290802001953 102.15191650390624 176.81936645507813 89.61141967773438 196.6201171875 77.73101806640625 214.77078247070313 75.75091552734375 218.40093994140625 75.75091552734375 218.40093994140625 " />
        </svg>