<?xml version="1.0" standalone="no"?>
    <svg width="256" height="256" xmlns="http://www.w3.org/2000/svg" version="1.1">
    <polyline stroke="black" stroke-width="3" stroke-linecap="round" fill="transparent" stroke-linejoin="round" points="88.413818359375 41.79923248291016 107.49652099609376 36.66156005859375 122.17559814453124 32.99180603027344 133.184814453125 30.789962768554688 141.2584228515625 29.322044372558594 144.9281005859375 28.588088989257813 147.8638916015625 27.85414123535156 149.331787109375 27.85414123535156 149.331787109375 28.588088989257813 146.39599609375 35.9276123046875 139.7904052734375 51.34059143066406 133.184814453125 67.48751831054688 128.7811279296875 82.9005126953125 128.04718017578125 88.77212524414063 128.04718017578125 90.97398376464844 128.04718017578125 90.97398376464844 " />
        <polyline stroke="black" stroke-width="3" stroke-linecap="round" fill="transparent" stroke-linejoin="round" points="102.35888671875 51.34059143066406 97.9552001953125 66.0196533203125 94.285400390625 74.82704162597656 82.542236328125 103.45114135742188 75.9366455078125 117.39625549316406 71.53289794921875 124.00180053710938 70.06500244140625 126.93760681152344 70.06500244140625 128.40553283691406 73.0008544921875 126.93760681152344 94.285400390625 115.1943817138672 113.3681640625 108.5888214111328 131.7169189453125 106.38699340820313 156.6712646484375 105.65299987792967 166.212646484375 105.65299987792967 170.616455078125 105.65299987792967 175.0201416015625 104.9190673828125 178.6898193359375 104.9190673828125 181.625732421875 104.9190673828125 181.625732421875 107.12091064453124 181.625732421875 110.79066467285156 177.9559326171875 124.00180053710938 171.350341796875 149.69009399414063 166.212646484375 169.5067901611328 160.341064453125 189.323486328125 155.9373779296875 204.73648071289065 153.7354736328125 213.54388427734375 152.267578125 217.94760131835935 152.267578125 219.41549682617188 150.7996826171875 219.41549682617188 142.7261962890625 212.8099365234375 142.7261962890625 212.8099365234375 " />
        <polyline stroke="black" stroke-width="3" stroke-linecap="round" fill="transparent" stroke-linejoin="round" points="79.60638427734375 151.1580047607422 96.4873046875 143.8184814453125 114.10211181640624 138.68081665039063 131.7169189453125 136.47897338867188 145.6619873046875 134.27711486816406 153.0015869140625 133.54315185546875 155.9373779296875 132.8092041015625 157.4052734375 132.07528686523438 154.469482421875 130.60736083984375 154.469482421875 130.60736083984375 " />
        <polyline stroke="black" stroke-width="3" stroke-linecap="round" fill="transparent" stroke-linejoin="round" points="117.7718505859375 111.5246124267578 114.8360595703125 126.2036590576172 111.90032958984376 136.47897338867188 106.02862548828124 157.0296173095703 97.9552001953125 173.91049194335938 89.14776611328125 187.8555908203125 83.27618408203125 196.6629943847656 78.8724365234375 200.332763671875 78.13848876953125 199.59881591796875 78.13848876953125 199.59881591796875 " />
        <polyline stroke="black" stroke-width="3" stroke-linecap="round" fill="transparent" stroke-linejoin="round" points="114.10211181640624 152.6259002685547 130.2490234375 168.0388946533203 139.7904052734375 174.64443969726563 146.39599609375 179.04815673828125 150.0657958984375 182.71792602539065 150.0657958984375 182.71792602539065 " />
        </svg>