<?xml version="1.0" standalone="no"?>
    <svg width="256" height="256" xmlns="http://www.w3.org/2000/svg" version="1.1">
    <polyline stroke="black" stroke-width="3" stroke-linecap="round" fill="transparent" stroke-linejoin="round" points="65.59500122070313 102.88385009765624 80.5067138671875 91.57150268554688 93.8758544921875 82.31596374511719 112.901123046875 69.9752197265625 126.78448486328124 60.71968078613281 140.66778564453125 56.09190368652344 148.89495849609375 56.09190368652344 153.008544921875 61.23387145996094 156.09368896484375 76.6597900390625 151.9801025390625 98.25607299804688 142.72457885742188 113.16778564453124 131.92645263671875 120.88075256347656 131.92645263671875 120.88075256347656 " />
        <polyline stroke="black" stroke-width="3" stroke-linecap="round" fill="transparent" stroke-linejoin="round" points="95.41845703125 86.42953491210938 92.84744262695313 95.68508911132813 90.7906494140625 109.05421447753906 88.73388671875 121.39494323730467 88.73388671875 129.62210083007813 90.27645874023438 134.2498779296875 94.90423583984376 134.76406860351563 104.1597900390625 131.67889404296875 119.585693359375 124.48013305664063 135.52581787109375 120.36654663085938 149.40914916992188 121.90914916992188 159.17889404296875 128.0795135498047 167.40606689453125 144.53382873535156 170.4912109375 170.24368286132813 166.377685546875 191.8399658203125 159.17889404296875 208.29428100585935 150.43756103515625 214.97885131835935 132.954833984375 217.03564453125 115.986328125 213.43624877929688 115.986328125 213.43624877929688 " />
        <polyline stroke="black" stroke-width="3" stroke-linecap="round" fill="transparent" stroke-linejoin="round" points="63.024017333984375 184.6412048339844 82.04931640625 178.9850311279297 96.44683837890624 173.32887268066406 115.47210693359376 166.13011169433594 128.32705688476563 160.47393798828125 136.55419921875 155.84616088867188 136.55419921875 155.84616088867188 " />
        <polyline stroke="black" stroke-width="3" stroke-linecap="round" fill="transparent" stroke-linejoin="round" points="104.1597900390625 144.01962280273438 100.5604248046875 151.7325897216797 87.70547485351563 179.49923706054688 76.9073486328125 200.067138671875 69.70855712890625 210.86526489257813 64.56658935546875 217.03564453125 61.99560546875 219.0924072265625 63.024017333984375 216.52142333984375 63.024017333984375 216.52142333984375 " />
        <polyline stroke="black" stroke-width="3" stroke-linecap="round" fill="transparent" stroke-linejoin="round" points="89.76226806640625 180.5276336669922 102.10299682617188 184.12701416015625 109.81597900390624 189.78317260742188 118.04312133789063 198.0103454589844 124.2135009765625 208.8084716796875 124.2135009765625 208.8084716796875 " />
        </svg>