<?xml version="1.0" standalone="no"?>
    <svg width="256" height="256" xmlns="http://www.w3.org/2000/svg" version="1.1">
    <polyline stroke="black" stroke-width="3" stroke-linecap="round" fill="transparent" stroke-linejoin="round" points="43.738983154296875 68.0194091796875 41.0694580078125 78.16365051269531 41.0694580078125 86.70616149902344 42.671173095703125 97.3843231201172 45.3406982421875 105.92683410644533 50.1458740234375 108.59637451171876 50.1458740234375 108.59637451171876 " />
        <polyline stroke="black" stroke-width="3" stroke-linecap="round" fill="transparent" stroke-linejoin="round" points="107.27398681640624 53.60389709472656 100.86709594726563 62.14642333984375 86.45159912109375 81.36709594726563 70.43435668945313 98.9860382080078 54.9510498046875 115.53717041015624 42.671173095703125 128.3509521484375 36.798187255859375 135.82565307617188 34.662567138671875 139.56301879882813 36.798187255859375 141.69863891601563 43.738983154296875 142.2325439453125 57.620574951171875 139.56301879882813 73.6378173828125 134.75784301757813 88.05331420898438 130.48658752441406 100.86709594726563 121.41015625 100.86709594726563 121.41015625 " />
        <polyline stroke="black" stroke-width="3" stroke-linecap="round" fill="transparent" stroke-linejoin="round" points="64.56137084960938 31.179786682128903 64.0274658203125 46.12919616699219 62.95965576171875 90.97743225097656 61.891845703125 123.54579162597656 57.620574951171875 163.05494689941406 56.552764892578125 184.94515991210935 55.484954833984375 206.8353576660156 55.484954833984375 218.58132934570313 58.15447998046875 221.7847595214844 58.15447998046875 221.7847595214844 " />
        <polyline stroke="black" stroke-width="3" stroke-linecap="round" fill="transparent" stroke-linejoin="round" points="73.1038818359375 123.01188659667967 61.357940673828125 139.56301879882813 52.281494140625 158.78369140625 47.476348876953125 171.0635528564453 45.3406982421875 178.0043487548828 45.3406982421875 178.0043487548828 " />
        <polyline stroke="black" stroke-width="3" stroke-linecap="round" fill="transparent" stroke-linejoin="round" points="89.655029296875 145.96990966796875 94.99411010742188 153.978515625 100.86709594726563 161.9871368408203 106.74008178710938 166.25839233398438 114.74868774414063 163.05494689941406 114.74868774414063 163.05494689941406 " />
        <polyline stroke="black" stroke-width="3" stroke-linecap="round" fill="transparent" stroke-linejoin="round" points="133.43545532226563 63.748138427734375 136.638916015625 74.960205078125 138.7745361328125 81.36709594726563 142.51190185546875 86.70616149902344 149.986572265625 87.24008178710938 149.986572265625 87.24008178710938 " />
        <polyline stroke="black" stroke-width="3" stroke-linecap="round" fill="transparent" stroke-linejoin="round" points="190.56353759765625 37.052764892578125 183.62274169921875 53.60389709472656 165.46990966796875 84.57054138183594 145.71533203125 114.4693603515625 133.43545532226563 130.48658752441406 121.68948364257813 144.90208435058594 121.68948364257813 144.90208435058594 " />
        <polyline stroke="black" stroke-width="3" stroke-linecap="round" fill="transparent" stroke-linejoin="round" points="115.81649780273438 110.73200988769533 137.17279052734375 110.19810485839844 159.06298828125 111.79981994628906 180.4193115234375 116.60499572753906 198.5721435546875 123.01188659667967 215.123291015625 129.9526824951172 215.123291015625 129.9526824951172 " />
        <polyline stroke="black" stroke-width="3" stroke-linecap="round" fill="transparent" stroke-linejoin="round" points="141.44406127929688 159.85150146484375 136.638916015625 175.8687286376953 135.57107543945313 189.2164001464844 134.50326538085938 200.96237182617188 134.50326538085938 206.8353576660156 134.50326538085938 206.8353576660156 " />
        <polyline stroke="black" stroke-width="3" stroke-linecap="round" fill="transparent" stroke-linejoin="round" points="144.11358642578125 144.36817932128906 159.596923828125 140.63082885742188 169.74114990234375 138.4951934814453 180.9532470703125 135.82565307617188 191.09747314453125 134.22393798828125 199.1060791015625 135.291748046875 204.97906494140625 138.4951934814453 208.7164306640625 146.50381469726563 211.385986328125 164.6566619873047 208.1824951171875 184.4112548828125 208.1824951171875 184.4112548828125 " />
        <polyline stroke="black" stroke-width="3" stroke-linecap="round" fill="transparent" stroke-linejoin="round" points="151.58831787109375 172.665283203125 159.06298828125 167.860107421875 168.139404296875 164.1227569580078 177.749755859375 160.38540649414063 189.4957275390625 154.51242065429688 189.4957275390625 154.51242065429688 " />
        <polyline stroke="black" stroke-width="3" stroke-linecap="round" fill="transparent" stroke-linejoin="round" points="172.41070556640625 148.63943481445313 169.74114990234375 157.1819610595703 166.5377197265625 164.6566619873047 162.2664794921875 175.8687286376953 156.9273681640625 187.61468505859375 149.986572265625 198.8267517089844 141.97796630859375 206.30145263671875 133.43545532226563 211.6405334472656 128.63027954101563 213.24224853515625 127.028564453125 212.1744384765625 130.76593017578125 206.8353576660156 144.11358642578125 198.2928466796875 161.7325439453125 190.81814575195313 176.1480712890625 188.14859008789065 188.96185302734375 189.2164001464844 206.580810546875 195.08938598632813 206.580810546875 195.08938598632813 " />
        </svg>