<?xml version="1.0" standalone="no"?>
    <svg width="256" height="256" xmlns="http://www.w3.org/2000/svg" version="1.1">
    <polyline stroke="black" stroke-width="3" stroke-linecap="round" fill="transparent" stroke-linejoin="round" points="59.734375 69.00961303710938 53.0018310546875 85.46694946289063 46.269287109375 101.92428588867188 40.6588134765625 116.88552856445313 32.430145263671875 137.83123779296875 28.3157958984375 146.80796813964844 26.445648193359375 150.92230224609375 26.071624755859375 151.29632568359375 26.819671630859375 149.8002166748047 29.0638427734375 146.80796813964844 40.2847900390625 135.5870361328125 67.58905029296875 114.26730346679688 84.42041015625 103.79443359375 91.15301513671876 99.30607604980467 107.23626708984376 85.0928955078125 112.09869384765624 77.23825073242188 112.09869384765624 77.23825073242188 " />
        <polyline stroke="black" stroke-width="3" stroke-linecap="round" fill="transparent" stroke-linejoin="round" points="97.51150512695315 48.437896728515625 92.64910888671876 58.91075134277344 87.78671264648438 69.38360595703125 76.19174194335938 101.55026245117188 63.100677490234375 151.67037963867188 60.482421875 162.5172576904297 55.62005615234375 181.5928192138672 54.49798583984375 186.08120727539065 54.49798583984375 186.45523071289065 54.49798583984375 186.45523071289065 " />
        <polyline stroke="black" stroke-width="3" stroke-linecap="round" fill="transparent" stroke-linejoin="round" points="78.43594360351563 169.24981689453125 83.29833984375 169.62384033203125 88.16073608398438 169.99786376953125 94.89328002929688 168.12771606445313 104.61810302734376 162.8912811279297 104.61810302734376 162.8912811279297 " />
        <polyline stroke="black" stroke-width="3" stroke-linecap="round" fill="transparent" stroke-linejoin="round" points="153.24200439453125 52.926239013671875 148.379638671875 61.528961181640625 143.51727294921875 70.13168334960938 139.02890014648438 77.986328125 131.17425537109375 89.58126831054688 128.18197631835938 93.69561767578124 124.06768798828124 99.30607604980467 122.197509765625 101.55026245117188 123.319580078125 100.80218505859376 125.93783569335938 99.30607604980467 137.90682983398438 92.57351684570313 158.478515625 82.10067749023438 180.92034912109375 70.87973022460938 191.0191650390625 66.391357421875 213.4610595703125 54.796409606933594 217.20135498046875 51.804168701171875 217.20135498046875 51.804168701171875 " />
        <polyline stroke="black" stroke-width="3" stroke-linecap="round" fill="transparent" stroke-linejoin="round" points="202.2401123046875 32.35453796386719 189.5230712890625 53.30028533935547 176.8060302734375 74.24603271484375 171.195556640625 84.7188720703125 157.35638427734375 110.15298461914063 150.99789428710938 121.37388610839844 147.257568359375 128.10643005371094 146.883544921875 128.8544921875 150.24984741210938 125.48822021484376 160.72265625 117.63357543945313 166.7071533203125 113.51925659179688 188.4010009765625 103.79443359375 201.1180419921875 101.92428588867188 211.59088134765625 102.29832458496094 217.94940185546875 103.04637145996094 217.94940185546875 103.04637145996094 " />
        <polyline stroke="black" stroke-width="3" stroke-linecap="round" fill="transparent" stroke-linejoin="round" points="158.8525390625 135.96109008789063 150.99789428710938 144.18975830078125 143.14324951171875 152.41842651367188 126.68588256835938 171.11996459960938 116.5870361328125 183.4629821777344 112.09869384765624 188.69940185546875 111.72467041015624 189.44747924804688 112.47271728515624 189.07342529296875 125.93783569335938 180.47073364257813 141.6470947265625 171.49400329589844 160.72265625 161.76919555664063 170.447509765625 157.28082275390625 198.873779296875 142.69363403320313 207.47650146484375 136.70913696289063 207.47650146484375 136.70913696289063 " />
        <polyline stroke="black" stroke-width="3" stroke-linecap="round" fill="transparent" stroke-linejoin="round" points="206.35443115234375 110.15296936035153 199.99591064453125 119.12969970703124 193.63739013671875 128.10643005371094 178.3021240234375 152.41842651367188 157.35638427734375 190.569580078125 147.257568359375 207.40093994140625 140.15097045898438 218.62188720703125 137.90682983398438 221.6141357421875 137.90682983398438 221.6141357421875 " />
        <polyline stroke="black" stroke-width="3" stroke-linecap="round" fill="transparent" stroke-linejoin="round" points="165.2110595703125 199.17230224609375 170.447509765625 202.91259765625 175.6839599609375 206.65289306640625 181.66839599609375 210.3931884765625 187.65289306640625 214.50753784179688 201.4920654296875 223.4842529296875 201.4920654296875 223.4842529296875 " />
        </svg>