<?xml version="1.0" standalone="no"?>
    <svg width="256" height="256" xmlns="http://www.w3.org/2000/svg" version="1.1">
    <polyline stroke="black" stroke-width="3" stroke-linecap="round" fill="transparent" stroke-linejoin="round" points="89.16152954101563 42.266380310058594 82.07931518554688 60.562103271484375 69.09524536132813 91.251708984375 62.013031005859375 108.3670654296875 56.70135498046875 118.40020751953124 54.34063720703125 123.7118682861328 54.34063720703125 123.7118682861328 56.1112060546875 118.99038696289063 62.60321044921875 111.3179931640625 73.2265625 98.9241180419922 84.4400634765625 88.89097595214844 95.0633544921875 80.62838745117188 105.09649658203124 73.54617309570313 113.35910034179688 66.46395874023438 121.031494140625 57.02099609375 125.16278076171876 50.52896881103515 125.16278076171876 46.397674560546875 122.21185302734376 46.397674560546875 118.08056640625 49.348602294921875 113.94927978515624 55.84063720703125 103.32595825195313 75.90690612792969 91.52227783203124 101.87503051757813 77.947998046875 140.23704528808594 66.7344970703125 170.92665100097656 64.373779296875 182.7303466796875 62.013031005859375 187.45181274414065 62.013031005859375 189.22238159179688 62.013031005859375 186.27145385742188 62.013031005859375 186.27145385742188 " />
        <polyline stroke="black" stroke-width="3" stroke-linecap="round" fill="transparent" stroke-linejoin="round" points="77.947998046875 152.04074096679688 94.47320556640624 152.04074096679688 103.9161376953125 152.04074096679688 114.53948974609376 149.67999267578125 128.70391845703125 139.05667114257813 128.70391845703125 139.05667114257813 " />
        <polyline stroke="black" stroke-width="3" stroke-linecap="round" fill="transparent" stroke-linejoin="round" points="162.93463134765625 30.462692260742188 154.6719970703125 46.98786163330078 145.22906494140625 62.9228515625 136.96649169921875 80.0382080078125 131.65484619140625 91.251708984375 129.88427734375 96.56336975097656 131.65484619140625 99.51429748535156 138.1468505859375 98.9241180419922 148.77020263671875 94.20263671875 161.7542724609375 88.30079650878906 172.9677734375 83.57931518554688 183.591064453125 79.44801330566406 193.62420654296875 75.31672668457031 206.6082763671875 64.69340515136719 206.6082763671875 64.69340515136719 " />
        <polyline stroke="black" stroke-width="3" stroke-linecap="round" fill="transparent" stroke-linejoin="round" points="195.394775390625 31.05287170410156 189.492919921875 41.08601379394531 180.64013671875 56.430816650390625 167.06591796875 80.0382080078125 158.213134765625 95.3830108642578 149.3603515625 111.3179931640625 144.0487060546875 120.7609405517578 141.0977783203125 124.89224243164063 141.0977783203125 124.89224243164063 144.63888549804688 123.12168884277344 151.7210693359375 119.58058166503906 162.93463134765625 114.85910034179688 174.14813232421875 111.90817260742188 184.1812744140625 110.13761901855467 194.21441650390625 108.3670654296875 202.47698974609375 108.3670654296875 202.47698974609375 108.3670654296875 " />
        <polyline stroke="black" stroke-width="3" stroke-linecap="round" fill="transparent" stroke-linejoin="round" points="158.8033447265625 129.6137237548828 151.13092041015625 135.51556396484375 141.0977783203125 143.18795776367188 129.88427734375 154.9916534423828 119.85113525390624 165.614990234375 113.35910034179688 175.0579376220703 109.8179931640625 180.95977783203125 109.8179931640625 183.32052612304688 113.94927978515624 181.5499725341797 122.80206298828124 176.23831176757813 139.91741943359375 164.4346160888672 159.39349365234375 153.81129455566406 175.3284912109375 146.13888549804688 185.9517822265625 142.00759887695313 192.44384765625 139.6468505859375 198.9359130859375 135.51556396484375 198.9359130859375 135.51556396484375 " />
        <polyline stroke="black" stroke-width="3" stroke-linecap="round" fill="transparent" stroke-linejoin="round" points="170.016845703125 134.92538452148438 157.6229248046875 153.81129455566406 139.91741943359375 185.6812744140625 130.47445678710938 206.92791748046875 122.21185302734376 222.272705078125 116.90020751953124 231.71566772460935 113.35910034179688 236.4371337890625 113.35910034179688 236.4371337890625 " />
        <polyline stroke="black" stroke-width="3" stroke-linecap="round" fill="transparent" stroke-linejoin="round" points="135.1959228515625 197.4849548339844 148.17999267578125 198.07513427734375 162.93463134765625 198.66531372070313 178.2794189453125 200.43588256835935 190.67333984375 202.796630859375 204.24755859375 206.33773803710935 204.24755859375 206.33773803710935 " />
        </svg>