<?xml version="1.0" standalone="no"?>
    <svg width="256" height="256" xmlns="http://www.w3.org/2000/svg" version="1.1">
    <polyline stroke="black" stroke-width="3" stroke-linecap="round" fill="transparent" stroke-linejoin="round" points="58.80255126953125 77.86985778808594 56.035736083984375 90.78172302246094 53.73004150390625 99.08219909667967 51.42431640625 108.76609802246094 48.196380615234375 118.4499969482422 42.20159912109375 131.3618621826172 38.051361083984375 137.35667419433594 35.284515380859375 139.662353515625 34.36224365234375 139.662353515625 34.8233642578125 137.8177947998047 40.81817626953125 130.43960571289063 54.191162109375 117.52774047851563 73.5589599609375 104.15472412109376 91.5433349609375 94.00968933105467 105.838623046875 86.17034912109375 114.13912963867188 79.71441650390625 116.90594482421876 76.02529907226563 119.67279052734376 70.49165344238281 119.67279052734376 70.49165344238281 " />
        <polyline stroke="black" stroke-width="3" stroke-linecap="round" fill="transparent" stroke-linejoin="round" points="89.69882202148438 63.113433837890625 81.3983154296875 85.70919799804688 75.86468505859375 105.53814697265624 70.33099365234375 125.3670654296875 64.336181640625 143.81259155273438 54.191162109375 171.9420166015625 48.196380615234375 187.6207275390625 44.50726318359375 194.07666015625 43.123870849609375 195.4600524902344 42.6627197265625 194.53778076171875 44.046142578125 190.84869384765625 47.7352294921875 184.39276123046875 52.34661865234375 178.85906982421875 59.263671875 173.78656005859375 69.869873046875 171.4808807373047 80.93719482421875 170.0974578857422 92.9267578125 170.0974578857422 103.99407958984376 169.1751708984375 113.216796875 165.0249481201172 113.216796875 165.0249481201172 " />
        <polyline stroke="black" stroke-width="3" stroke-linecap="round" fill="transparent" stroke-linejoin="round" points="144.11309814453125 56.196380615234375 129.81781005859375 83.40351867675781 125.2064208984375 90.78172302246094 118.28939819335938 101.38790893554688 114.13912963867188 107.3826904296875 113.216796875 109.68840026855467 113.677978515625 109.68840026855467 122.43963623046876 105.53814697265624 137.19601440429688 97.23765563964844 155.180419921875 87.09262084960938 163.9420166015625 81.5589599609375 183.309814453125 66.34140014648438 183.309814453125 66.34140014648438 " />
        <polyline stroke="black" stroke-width="3" stroke-linecap="round" fill="transparent" stroke-linejoin="round" points="175.00933837890625 49.740440368652344 163.019775390625 70.030517578125 157.486083984375 80.17555236816406 151.952392578125 90.32058715820313 134.89031982421875 120.2945556640625 125.2064208984375 135.05096435546875 119.21163940429688 144.27374267578125 117.82821655273438 147.0405731201172 116.44479370117188 148.4239959716797 117.3670654296875 147.96282958984375 122.43963623046876 145.6571502685547 139.96282958984375 140.58462524414063 154.2581787109375 137.35667419433594 162.09747314453125 135.51211547851563 179.15960693359375 132.28414916992188 182.84869384765625 130.43960571289063 182.84869384765625 130.43960571289063 " />
        <polyline stroke="black" stroke-width="3" stroke-linecap="round" fill="transparent" stroke-linejoin="round" points="154.71923828125 141.04576110839844 144.57421875 149.34625244140625 130.2789306640625 162.25811767578125 119.21163940429688 173.32542419433594 110.9111328125 181.62591552734375 109.98886108398438 182.54818725585935 112.75570678710938 181.62591552734375 117.3670654296875 179.78135681152344 142.26852416992188 170.0974578857422 161.1751708984375 162.71923828125 175.931640625 155.80218505859375 184.6932373046875 148.88511657714844 187.92120361328125 144.27374267578125 187.92120361328125 144.27374267578125 " />
        <polyline stroke="black" stroke-width="3" stroke-linecap="round" fill="transparent" stroke-linejoin="round" points="172.2425537109375 130.43960571289063 164.4031982421875 139.662353515625 150.56903076171875 159.95242309570313 135.81259155273438 184.8538818359375 117.82821655273438 212.52215576171875 111.372314453125 221.74493408203125 108.144287109375 226.35629272460935 107.68319702148438 226.81744384765625 107.68319702148438 226.81744384765625 " />
        <polyline stroke="black" stroke-width="3" stroke-linecap="round" fill="transparent" stroke-linejoin="round" points="145.03533935546875 212.9833068847656 160.2529296875 215.28900146484375 167.631103515625 216.67242431640625 174.5482177734375 218.5169677734375 181.46527099609375 220.8226318359375 195.76055908203125 227.278564453125 195.76055908203125 227.278564453125 " />
        </svg>