<?xml version="1.0" standalone="no"?>
    <svg width="256" height="256" xmlns="http://www.w3.org/2000/svg" version="1.1">
    <polyline stroke="black" stroke-width="3" stroke-linecap="round" fill="transparent" stroke-linejoin="round" points="63.81195068359375 66.0196533203125 61.61004638671875 96.11163330078124 55.0045166015625 119.59808349609376 43.26129150390625 147.48825073242188 38.1236572265625 159.96542358398438 35.18780517578125 167.30494689941406 32.25201416015625 170.24073791503906 32.25201416015625 170.24073791503906 " />
        <polyline stroke="black" stroke-width="3" stroke-linecap="round" fill="transparent" stroke-linejoin="round" points="46.1971435546875 131.34130859375 64.5458984375 118.8641357421875 83.628662109375 109.32276916503906 97.57366943359376 104.9190673828125 106.381103515625 101.98324584960938 112.9866943359375 99.78138732910156 115.9224853515625 98.31349182128906 115.9224853515625 98.31349182128906 " />
        <polyline stroke="black" stroke-width="3" stroke-linecap="round" fill="transparent" stroke-linejoin="round" points="84.36260986328125 46.93688201904297 84.36260986328125 64.55172729492188 84.36260986328125 89.50607299804688 80.69281005859375 115.1943817138672 74.0872802734375 140.88267517089844 66.0137939453125 165.1031036376953 54.27056884765625 191.52532958984375 50.600830078125 200.332763671875 48.39892578125 203.2685546875 46.9310302734375 204.0025329589844 46.9310302734375 204.0025329589844 " />
        <polyline stroke="black" stroke-width="3" stroke-linecap="round" fill="transparent" stroke-linejoin="round" points="88.0323486328125 120.33204650878906 101.9774169921875 144.55242919921875 108.5830078125 151.1580047607422 113.72064208984376 154.8277587890625 121.06011962890624 157.0296173095703 121.06011962890624 157.0296173095703 " />
        <polyline stroke="black" stroke-width="3" stroke-linecap="round" fill="transparent" stroke-linejoin="round" points="154.0880126953125 40.331321716308594 142.3447265625 67.48751831054688 135.7391357421875 84.36843872070313 132.0694580078125 95.37771606445313 130.6015625 100.5153350830078 130.6015625 100.5153350830078 " />
        <polyline stroke="black" stroke-width="3" stroke-linecap="round" fill="transparent" stroke-linejoin="round" points="137.9410400390625 69.68939208984375 153.35400390625 62.34989929199219 170.23486328125 57.21220397949219 183.446044921875 54.276397705078125 194.455322265625 52.80851745605469 198.8590087890625 52.07453918457031 201.7947998046875 51.34059143066406 201.7947998046875 51.34059143066406 " />
        <polyline stroke="black" stroke-width="3" stroke-linecap="round" fill="transparent" stroke-linejoin="round" points="185.64794921875 19.780685424804688 181.9781494140625 35.19365692138672 179.0423583984375 45.468994140625 170.23486328125 67.48751831054688 159.9595947265625 87.30422973632813 150.418212890625 103.45114135742188 142.3447265625 114.46043395996094 137.2071533203125 121.79994201660156 135.7391357421875 123.26785278320313 135.7391357421875 123.26785278320313 " />
        <polyline stroke="black" stroke-width="3" stroke-linecap="round" fill="transparent" stroke-linejoin="round" points="178.308349609375 65.28567504882813 190.0516357421875 80.69866943359375 202.5286865234375 94.64372253417967 215.006103515625 104.9190673828125 223.0794677734375 111.5246124267578 226.01513671875 113.72648620605467 226.749267578125 114.46043395996094 226.749267578125 114.46043395996094 " />
        <polyline stroke="black" stroke-width="3" stroke-linecap="round" fill="transparent" stroke-linejoin="round" points="144.546630859375 108.5888214111328 138.675048828125 128.40553283691406 135.0052490234375 135.7450408935547 132.0694580078125 143.08456420898438 125.4638671875 157.0296173095703 123.26202392578124 162.90122985839844 120.32623291015624 167.30494689941406 120.32623291015624 167.30494689941406 " />
        <polyline stroke="black" stroke-width="3" stroke-linecap="round" fill="transparent" stroke-linejoin="round" points="135.7391357421875 139.41481018066406 151.1522216796875 132.07528686523438 168.7669677734375 126.93760681152344 181.9781494140625 124.73576354980467 193.7213134765625 123.26785278320313 200.326904296875 121.06600952148438 200.326904296875 121.06600952148438 " />
        <polyline stroke="black" stroke-width="3" stroke-linecap="round" fill="transparent" stroke-linejoin="round" points="170.23486328125 82.16656494140625 166.565185546875 104.1851043701172 164.36328125 114.46043395996094 158.49169921875 135.0110626220703 149.684326171875 154.8277587890625 139.408935546875 170.9746856689453 123.26202392578124 190.7914123535156 117.39044189453124 196.6629943847656 113.72064208984376 198.1309509277344 109.31689453125 197.39694213867188 109.31689453125 197.39694213867188 " />
        <polyline stroke="black" stroke-width="3" stroke-linecap="round" fill="transparent" stroke-linejoin="round" points="170.23486328125 124.73576354980467 178.308349609375 141.6166229248047 192.25341796875 162.90122985839844 211.3363037109375 180.51605224609375 242.8961181640625 201.06671142578125 261.244873046875 209.14019775390625 278.8597412109375 211.342041015625 278.8597412109375 211.342041015625 " />
        </svg>