<?xml version="1.0" standalone="no"?>
    <svg width="256" height="256" xmlns="http://www.w3.org/2000/svg" version="1.1">
    <polyline stroke="black" stroke-width="3" stroke-linecap="round" fill="transparent" stroke-linejoin="round" points="60.449737548828125 108.40977478027344 59.837615966796875 121.26416015625 58.6134033203125 132.89431762695313 56.77703857421875 142.07601928710938 54.940704345703125 148.1971435546875 53.1043701171875 152.48194885253906 51.880126953125 152.48194885253906 53.1043701171875 148.1971435546875 57.38916015625 138.40333557128906 65.958740234375 125.5489501953125 76.36468505859375 113.3066864013672 86.77059936523438 102.9007568359375 100.23712158203124 93.71905517578124 110.64300537109376 86.98580932617188 119.21261596679688 84.537353515625 125.94586181640624 88.21003723144531 133.29119873046875 101.06442260742188 136.96389770507813 123.71261596679688 134.51544189453125 140.85179138183594 129.00640869140625 151.25772094726563 121.66107177734376 157.37884521484375 108.80670166015624 160.43942260742188 108.80670166015624 160.43942260742188 " />
        <polyline stroke="black" stroke-width="3" stroke-linecap="round" fill="transparent" stroke-linejoin="round" points="107.58245849609376 75.9677734375 107.58245849609376 116.36724853515624 103.9097900390625 145.74868774414063 99.01287841796876 169.62110900878906 94.72808837890624 187.37240600585935 91.66751098632813 203.287353515625 90.44329833984376 214.30538940429688 90.44329833984376 218.59017944335935 90.44329833984376 218.59017944335935 " />
        <polyline stroke="black" stroke-width="3" stroke-linecap="round" fill="transparent" stroke-linejoin="round" points="165.73321533203125 116.36724853515624 153.490966796875 145.74868774414063 143.6971435546875 163.49998474121094 133.29119873046875 180.63916015625 122.88531494140624 195.32986450195313 122.88531494140624 195.32986450195313 " />
        <polyline stroke="black" stroke-width="3" stroke-linecap="round" fill="transparent" stroke-linejoin="round" points="159 170.8453369140625 163.89691162109375 175.74224853515625 168.7938232421875 180.63916015625 174.30279541015625 184.31182861328125 174.30279541015625 184.31182861328125 " />
        <polyline stroke="black" stroke-width="3" stroke-linecap="round" fill="transparent" stroke-linejoin="round" points="208.5811767578125 110.85823059082033 196.3388671875 140.2396697998047 187.1572265625 161.05152893066406 179.19970703125 177.57858276367188 171.8543701171875 190.4329833984375 166.95745849609375 197.7783203125 166.95745849609375 197.7783203125 " />
        <polyline stroke="black" stroke-width="3" stroke-linecap="round" fill="transparent" stroke-linejoin="round" points="187.1572265625 167.78477478027344 196.3388671875 169.62110900878906 205.5206298828125 173.90591430664063 214.7022705078125 180.63916015625 223.884033203125 191.04507446289065 223.884033203125 191.04507446289065 " />
        </svg>