<?xml version="1.0" standalone="no"?>
    <svg width="256" height="256" xmlns="http://www.w3.org/2000/svg" version="1.1">
    <polyline stroke="black" stroke-width="3" stroke-linecap="round" fill="transparent" stroke-linejoin="round" points="50.74151611328125 114.2856903076172 51.154541015625 123.78582763671876 51.154541015625 132.87295532226563 51.154541015625 140.30783081054688 51.154541015625 149.8079833984375 50.328460693359375 153.93850708007813 49.50238037109375 154.35154724121094 48.676239013671875 151.87322998046875 49.915374755859375 144.02529907226563 54.0458984375 132.04684448242188 60.241668701171875 120.48143005371094 68.089599609375 110.98126220703124 78.41586303710938 102.7202606201172 87.916015625 96.93757629394533 96.590087890625 94.04620361328124 103.19891357421876 94.872314453125 108.15548706054688 100.24197387695313 111.87298583984376 115.9378662109375 110.220703125 135.3512420654297 106.50326538085938 144.85137939453125 103.61190795898438 148.56883239746094 103.61190795898438 148.56883239746094 " />
        <polyline stroke="black" stroke-width="3" stroke-linecap="round" fill="transparent" stroke-linejoin="round" points="80.8941650390625 66.37184143066406 79.241943359375 89.50267028808594 77.17672729492188 118.00314331054688 75.52450561523438 144.43833923339844 72.63314819335938 180.78677368164065 70.56793212890625 203.09149169921875 69.3287353515625 217.13519287109375 69.3287353515625 220.8526306152344 69.3287353515625 219.61349487304688 69.3287353515625 219.61349487304688 " />
        <polyline stroke="black" stroke-width="3" stroke-linecap="round" fill="transparent" stroke-linejoin="round" points="119.72088623046876 114.2856903076172 114.7642822265625 130.80767822265625 108.9815673828125 149.3949432373047 101.13363647460938 174.59100341796875 98.24227905273438 181.61285400390625 94.52484130859376 189.4608154296875 93.28570556640624 190.28692626953125 92.87265014648438 188.2216796875 93.69873046875 183.6781005859375 93.69873046875 183.6781005859375 " />
        <polyline stroke="black" stroke-width="3" stroke-linecap="round" fill="transparent" stroke-linejoin="round" points="123.85140991210938 151.87322998046875 133.76458740234375 157.65594482421875 143.67782592773438 163.85171508789063 148.22137451171875 166.7430419921875 160.1998291015625 171.69964599609375 164.330322265625 170.04745483398438 164.330322265625 170.04745483398438 " />
        <polyline stroke="black" stroke-width="3" stroke-linecap="round" fill="transparent" stroke-linejoin="round" points="170.52606201171875 111.807373046875 165.5694580078125 126.26412963867188 161.02587890625 141.54698181152344 156.89544677734375 155.17764282226563 149.87353515625 176.65625 144.91696166992188 189.04779052734375 142.43865966796875 193.17828369140625 142.02560424804688 193.17828369140625 142.02560424804688 193.17828369140625 " />
        <polyline stroke="black" stroke-width="3" stroke-linecap="round" fill="transparent" stroke-linejoin="round" points="175.06964111328125 160.54730224609375 186.22198486328125 167.56915283203125 197.787353515625 177.06930541992188 204.39617919921875 182.85202026367188 204.39617919921875 182.85202026367188 " />
        </svg>