<?xml version="1.0" standalone="no"?>
    <svg width="256" height="256" xmlns="http://www.w3.org/2000/svg" version="1.1">
    <polyline stroke="black" stroke-width="3" stroke-linecap="round" fill="transparent" stroke-linejoin="round" points="54.918548583984375 115.9272918701172 54.918548583984375 123.35943603515624 54.210693359375 134.68463134765625 53.50286865234375 141.76287841796875 52.7950439453125 145.30198669433594 52.087249755859375 146.0098114013672 51.73333740234375 143.53244018554688 52.087249755859375 134.33071899414063 53.856781005859375 123.00553894042967 58.103729248046875 113.0959930419922 64.82806396484375 103.54039001464844 68.72113037109375 98.93951416015624 84.64715576171875 86.90650939941406 89.955810546875 84.78303527832031 103.40447998046876 87.26042175292969 111.89837646484376 104.95602416992188 114.02182006835938 131.1455078125 110.48272705078124 147.07156372070313 106.943603515625 151.6724090576172 104.46624755859376 151.6724090576172 104.46624755859376 151.6724090576172 " />
        <polyline stroke="black" stroke-width="3" stroke-linecap="round" fill="transparent" stroke-linejoin="round" points="79.33847045898438 58.94744873046875 77.92282104492188 80.18218994140625 76.50717163085938 102.12472534179688 74.73760986328125 122.651611328125 71.90631103515625 156.62718200683594 70.84457397460938 179.63145446777344 70.84457397460938 194.49578857421875 72.26022338867188 201.57403564453125 77.92282104492188 200.86618041992188 77.92282104492188 200.86618041992188 " />
        <polyline stroke="black" stroke-width="3" stroke-linecap="round" fill="transparent" stroke-linejoin="round" points="139.857421875 64.61004638671875 138.08786010742188 74.87350463867188 135.96435546875 86.90650939941406 133.48699951171875 98.58560180664063 130.3017578125 109.91079711914063 123.57748413085938 130.43768310546875 120.39227294921876 139.28549194335938 114.72967529296876 152.02633666992188 111.89837646484376 158.04283142089844 111.89837646484376 158.04283142089844 " />
        <polyline stroke="black" stroke-width="3" stroke-linecap="round" fill="transparent" stroke-linejoin="round" points="132.42526245117188 155.5654296875 137.38006591796875 157.68890380859375 143.75045776367188 159.8123779296875 150.47479248046875 160.52020263671875 157.552978515625 159.8123779296875 167.46258544921875 154.14981079101563 167.46258544921875 154.14981079101563 " />
        <polyline stroke="black" stroke-width="3" stroke-linecap="round" fill="transparent" stroke-linejoin="round" points="191.1746826171875 58.2396240234375 178.433837890625 98.58560180664063 166.046875 138.57766723632813 160.38427734375 155.21153259277344 150.47479248046875 187.77145385742188 148.7052001953125 194.49578857421875 150.47479248046875 192.372314453125 160.0303955078125 175.73843383789063 166.40081787109375 167.24453735351563 172.4173583984375 163.35150146484375 181.26513671875 164.4132537841797 192.2364501953125 169.721923828125 204.623291015625 177.86190795898438 217.36419677734375 187.06362915039065 230.10498046875 197.68096923828125 230.10498046875 197.68096923828125 " />
        </svg>