<?xml version="1.0" standalone="no"?>
    <svg width="256" height="256" xmlns="http://www.w3.org/2000/svg" version="1.1">
    <polyline stroke="black" stroke-width="3" stroke-linecap="round" fill="transparent" stroke-linejoin="round" points="41 127 41 129 43 138 44 155 45 170 47 180 47 184 48 185 47 181 47 180 47 180 " />
        <polyline stroke="black" stroke-width="3" stroke-linecap="round" fill="transparent" stroke-linejoin="round" points="49 153 50 152 57 148 65 144 69 142 80 137 84 134 94 128 98 127 107 122 109 121 115 118 115 117 114 119 113 125 112 135 111 138 110 150 110 156 110 171 109 178 107 181 103 181 99 178 94 173 92 168 92 168 " />
        <polyline stroke="black" stroke-width="3" stroke-linecap="round" fill="transparent" stroke-linejoin="round" points="80 79 80 80 81 90 81 103 80 110 78 133 77 143 74 178 72 203 71 209 70 230 71 241 72 247 74 248 75 244 75 242 76 238 76 238 " />
        <polyline stroke="black" stroke-width="3" stroke-linecap="round" fill="transparent" stroke-linejoin="round" points="144 108 142 115 137 133 130 158 121 185 113 208 108 220 107 223 104 227 103 226 103 226 " />
        <polyline stroke="black" stroke-width="3" stroke-linecap="round" fill="transparent" stroke-linejoin="round" points="130 175 131 175 132 175 136 180 140 188 144 198 149 204 153 205 153 205 " />
        <polyline stroke="black" stroke-width="3" stroke-linecap="round" fill="transparent" stroke-linejoin="round" points="208 99 206 104 205 112 204 117 198 138 187 163 173 190 159 215 148 230 142 235 142 235 " />
        <polyline stroke="black" stroke-width="3" stroke-linecap="round" fill="transparent" stroke-linejoin="round" points="185 173 190 176 195 181 196 184 200 191 201 195 210 206 222 215 233 220 238 221 238 221 " />
        </svg>