<?xml version="1.0" standalone="no"?>
    <svg width="256" height="256" xmlns="http://www.w3.org/2000/svg" version="1.1">
    <polyline stroke="black" stroke-width="3" stroke-linecap="round" fill="transparent" stroke-linejoin="round" points="42.55938720703125 97.18948364257813 62.07611083984375 97.74710083007813 82.15045166015625 91.61328125 104.45526123046876 86.03707885742188 125.64483642578124 82.13372802734375 146.27679443359375 79.90324401855469 163.56304931640625 78.78800964355469 175.8306884765625 77.67276000976563 181.4068603515625 77.67276000976563 183.0797119140625 77.67276000976563 183.0797119140625 77.67276000976563 " />
        <polyline stroke="black" stroke-width="3" stroke-linecap="round" fill="transparent" stroke-linejoin="round" points="110.589111328125 35.293609619140625 106.68572998046876 43.657920837402344 102.22479248046876 55.925567626953125 94.9757080078125 79.90324401855469 89.9571533203125 100.5352020263672 87.16903686523438 121.16716003417967 84.93853759765625 136.78053283691406 84.38092041015625 149.60580444335938 84.93853759765625 157.41249084472656 86.61138916015625 162.9886932373047 92.1876220703125 165.77679443359375 102.78240966796876 164.66156005859375 115.607666015625 160.75820922851563 123.97198486328124 156.85487365722656 132.8939208984375 150.72105407714844 132.8939208984375 150.72105407714844 " />
        <polyline stroke="black" stroke-width="3" stroke-linecap="round" fill="transparent" stroke-linejoin="round" points="135.6820068359375 25.256439208984375 137.3548583984375 38.08171081542969 137.9124755859375 53.13746643066406 138.4700927734375 78.78800964355469 139.58535766601563 96.63186645507813 139.58535766601563 113.9180908203125 139.58535766601563 127.30099487304688 138.4700927734375 143.47198486328125 138.4700927734375 143.47198486328125 " />
        </svg>