<?xml version="1.0" standalone="no"?>
    <svg width="256" height="256" xmlns="http://www.w3.org/2000/svg" version="1.1">
    <polyline stroke="black" stroke-width="3" stroke-linecap="round" fill="transparent" stroke-linejoin="round" points="50.896240234375 101.76617431640625 62.93109130859375 99.93905639648438 74.9659423828125 98.1119384765625 103.21151733398438 94.29806518554688 119.51947021484376 93.647705078125 146.75244140625 93.9434814453125 176.46112060546875 96.42617797851563 184.2763671875 97.1396484375 206.377685546875 97.42852783203124 209.996337890625 97.31195068359376 210.358154296875 97.30027770996094 210.39727783203125 97.29904174804688 210.3978271484375 97.29901123046876 210.3980712890625 97.29899597167967 " />
        <polyline stroke="black" stroke-width="3" stroke-linecap="round" fill="transparent" stroke-linejoin="round" points="78.706298828125 60.972625732421875 81.375 73.88548278808594 84.043701171875 86.79833984375 86.9969482421875 102.1878662109375 89.510498046875 116.78636169433594 91.46435546875 130.18634033203125 93.509033203125 150.25938415527344 94.43011474609376 156.813232421875 96.56768798828124 166.85923767089844 97.74911499023438 170.2957763671875 98.98263549804688 173.86700439453125 100.20297241210938 177.27743530273438 100.51254272460938 178.47113037109375 100.77670288085938 179.3035125732422 100.9715576171875 179.54600524902344 101.88958740234376 179.9614715576172 103.69329833984376 180.09957885742188 112.6009521484375 180.06576538085938 118.04440307617188 179.8082275390625 129.49581909179688 179.97286987304688 138.423828125 180.73257446289065 140.36764526367188 181.16409301757813 142.062255859375 181.08767700195313 142.21575927734375 181.0625457763672 142.27801513671875 181.0523681640625 " />
        <polyline stroke="black" stroke-width="3" stroke-linecap="round" fill="transparent" stroke-linejoin="round" points="140.82757568359375 37.592926025390625 141.67010498046875 65.14797973632813 142.51263427734375 92.70303344726563 142.97836303710938 109.23269653320313 143.41455078125 122.69747924804688 144.31658935546875 150.38699340820313 146.05722045898438 169.13568115234375 146.1220703125 179.5641326904297 146.12850952148438 180.60699462890625 " />
        </svg>