<?xml version="1.0" standalone="no"?>
    <svg width="256" height="256" xmlns="http://www.w3.org/2000/svg" version="1.1">
    <polyline stroke="black" stroke-width="3" stroke-linecap="round" fill="transparent" stroke-linejoin="round" points="48 122 54 120 64 118 84 111 110 99 136 85 161 73 175 68 182 67 186 67 186 68 179 72 179 72 " />
        <polyline stroke="black" stroke-width="3" stroke-linecap="round" fill="transparent" stroke-linejoin="round" points="98 69 98 76 98 83 98 93 98 108 98 122 98 134 98 144 98 153 98 159 98 164 98 168 98 170 98 172 99 172 99 172 " />
        <polyline stroke="black" stroke-width="3" stroke-linecap="round" fill="transparent" stroke-linejoin="round" points="157 47 155 58 154 70 147 90 137 110 132 123 124 136 124 136 " />
        <polyline stroke="black" stroke-width="3" stroke-linecap="round" fill="transparent" stroke-linejoin="round" points="103 156 106 153 112 153 120 151 136 145 152 136 168 129 179 125 186 124 191 124 193 128 193 128 " />
        </svg>