<?xml version="1.0" standalone="no"?>
    <svg width="256" height="256" xmlns="http://www.w3.org/2000/svg" version="1.1">
    <polyline stroke="black" stroke-width="3" stroke-linecap="round" fill="transparent" stroke-linejoin="round" points="58.39483642578125 92.24284362792967 56.6732177734375 99.4736785888672 52.196990966796875 117.3785400390625 45.654815673828125 143.20289611816406 38.768310546875 166.61697387695313 32.57049560546875 183.48887634277344 28.78289794921875 190.71969604492188 28.78289794921875 190.71969604492188 " />
        <polyline stroke="black" stroke-width="3" stroke-linecap="round" fill="transparent" stroke-linejoin="round" points="62.5267333984375 130.1185760498047 70.10183715820313 126.33099365234376 73.54510498046875 124.26502990722656 86.28512573242188 117.72286987304688 97.64785766601563 111.18069458007813 103.84567260742188 107.04881286621094 103.84567260742188 107.04881286621094 " />
        <polyline stroke="black" stroke-width="3" stroke-linecap="round" fill="transparent" stroke-linejoin="round" points="81.80886840820313 114.27961730957033 78.36563110351563 131.15151977539063 75.61105346679688 142.8585662841797 69.41323852539063 168.33859252929688 61.493743896484375 192.4413146972656 53.91864013671875 213.44512939453125 51.16400146484375 217.23269653320313 51.16400146484375 217.23269653320313 " />
        <polyline stroke="black" stroke-width="3" stroke-linecap="round" fill="transparent" stroke-linejoin="round" points="97.303466796875 151.12237548828125 103.15701293945313 158.35316467285156 104.87863159179688 160.41909790039063 104.87863159179688 160.41909790039063 " />
        <polyline stroke="black" stroke-width="3" stroke-linecap="round" fill="transparent" stroke-linejoin="round" points="122.78350830078124 112.21368408203124 115.2083740234375 140.79261779785156 109.01052856445313 161.4521026611328 109.01052856445313 161.4521026611328 " />
        <polyline stroke="black" stroke-width="3" stroke-linecap="round" fill="transparent" stroke-linejoin="round" points="137.24517822265625 120.13314819335938 154.80572509765625 112.55799865722656 168.92303466796875 104.98284912109376 180.974365234375 96.37474060058594 184.761962890625 92.24284362792967 184.761962890625 92.24284362792967 " />
        <polyline stroke="black" stroke-width="3" stroke-linecap="round" fill="transparent" stroke-linejoin="round" points="149.64083862304688 101.88392639160156 141.03274536132813 136.6607208251953 132.08029174804688 169.02720642089844 123.12783813476563 193.81863403320313 115.552734375 212.06781005859375 107.97760009765624 224.80783081054688 107.97760009765624 224.80783081054688 " />
        <polyline stroke="black" stroke-width="3" stroke-linecap="round" fill="transparent" stroke-linejoin="round" points="169.95599365234375 137.69369506835938 186.48358154296875 166.9613037109375 203.01116943359375 193.47427368164065 219.1944580078125 217.23269653320313 234.6890869140625 236.17056274414065 234.6890869140625 236.17056274414065 " />
        </svg>