<?xml version="1.0" standalone="no"?>
    <svg width="256" height="256" xmlns="http://www.w3.org/2000/svg" version="1.1">
    <polyline stroke="black" stroke-width="3" stroke-linecap="round" fill="transparent" stroke-linejoin="round" points="114.8360595703125 70.42332458496094 107.49652099609376 89.50607299804688 96.4873046875 114.46043395996094 85.47796630859375 135.7450408935547 78.13848876953125 150.424072265625 75.20269775390625 158.49752807617188 74.46875 161.433349609375 74.46875 162.90122985839844 75.20269775390625 162.1672821044922 84.01007080078125 157.76358032226563 105.29473876953124 149.69009399414063 130.2490234375 141.6166229248047 158.13916015625 135.7450408935547 166.9466552734375 134.27711486816406 169.1484375 133.54315185546875 170.616455078125 133.54315185546875 169.8824462890625 133.54315185546875 168.41455078125 133.54315185546875 166.9466552734375 133.54315185546875 166.9466552734375 133.54315185546875 " />
        <polyline stroke="black" stroke-width="3" stroke-linecap="round" fill="transparent" stroke-linejoin="round" points="162.5428466796875 101.98324584960938 169.8824462890625 123.26785278320313 173.55224609375 132.07528686523438 180.15771484375 145.28639221191406 185.29541015625 153.35986328125 188.231201171875 157.76358032226563 190.43310546875 164.369140625 190.43310546875 164.369140625 " />
        <polyline stroke="black" stroke-width="3" stroke-linecap="round" fill="transparent" stroke-linejoin="round" points="85.47796630859375 183.45187377929688 92.08355712890624 205.47042846679688 95.0194091796875 214.27783203125 95.7532958984375 217.94760131835935 97.22125244140624 220.14947509765625 98.6890869140625 219.41549682617188 99.423095703125 213.54388427734375 99.423095703125 213.54388427734375 " />
        <polyline stroke="black" stroke-width="3" stroke-linecap="round" fill="transparent" stroke-linejoin="round" points="98.6890869140625 171.70863342285156 126.579345703125 162.1672821044922 146.39599609375 159.23147583007813 166.212646484375 157.76358032226563 172.8182373046875 157.0296173095703 176.488037109375 157.0296173095703 178.6898193359375 157.0296173095703 178.6898193359375 159.23147583007813 172.0843505859375 176.84629821777344 169.1484375 192.25927734375 169.8824462890625 201.8006591796875 172.0843505859375 206.93832397460935 173.55224609375 209.8741455078125 175.0201416015625 211.342041015625 175.0201416015625 211.342041015625 " />
        <polyline stroke="black" stroke-width="3" stroke-linecap="round" fill="transparent" stroke-linejoin="round" points="106.02862548828124 213.54388427734375 133.9188232421875 206.20437622070313 144.9281005859375 204.0025329589844 164.0107421875 202.53460693359375 180.15771484375 202.53460693359375 180.15771484375 202.53460693359375 " />
        </svg>