<?xml version="1.0" standalone="no"?>
    <svg width="256" height="256" xmlns="http://www.w3.org/2000/svg" version="1.1">
    <polyline stroke="black" stroke-width="3" stroke-linecap="round" fill="transparent" stroke-linejoin="round" points="85.55484008789063 77.02171325683594 75.235595703125 102.81976318359376 67.04095458984375 120.11964416503906 60.363800048828125 131.65289306640625 56.721710205078125 136.8125 54.597137451171875 136.8125 54.597137451171875 136.8125 " />
        <polyline stroke="black" stroke-width="3" stroke-linecap="round" fill="transparent" stroke-linejoin="round" points="94.96356201171876 111.6214599609375 106.1932373046875 119.20913696289063 117.7265625 122.85121154785156 128.3492431640625 121.03016662597656 142.310546875 108.58639526367188 151.11224365234375 95.53561401367188 151.11224365234375 95.53561401367188 " />
        <polyline stroke="black" stroke-width="3" stroke-linecap="round" fill="transparent" stroke-linejoin="round" points="148.98770141601563 104.33731079101563 138.97195434570313 132.8668975830078 134.1158447265625 145.61419677734375 131.99136352539063 151.38079833984375 131.99136352539063 151.38079833984375 " />
        <polyline stroke="black" stroke-width="3" stroke-linecap="round" fill="transparent" stroke-linejoin="round" points="181.15936279296875 118.60211181640624 190.87158203125 130.43887329101563 194.513671875 135.2949676513672 195.72772216796875 138.02651977539063 195.72772216796875 138.02651977539063 " />
        <polyline stroke="black" stroke-width="3" stroke-linecap="round" fill="transparent" stroke-linejoin="round" points="118.03005981445313 145.31069946289063 131.68780517578125 143.7931671142578 136.84744262695313 144.0966796875 139.57901000976563 144.40017700195313 139.57901000976563 144.40017700195313 " />
        <polyline stroke="black" stroke-width="3" stroke-linecap="round" fill="transparent" stroke-linejoin="round" points="74.32504272460938 186.58758544921875 107.10379028320313 178.0894012451172 141.09649658203125 171.10874938964844 170.84014892578125 168.37718200683594 194.513671875 168.37718200683594 194.513671875 168.37718200683594 " />
        </svg>