<?xml version="1.0" standalone="no"?>
    <svg width="256" height="256" xmlns="http://www.w3.org/2000/svg" version="1.1">
    <polyline stroke="black" stroke-width="3" stroke-linecap="round" fill="transparent" stroke-linejoin="round" points="94 32 94 35 93 42 92 52 88 70 85 81 82 91 79 101 76 109 73 116 70 122 68 126 67 128 66 129 66 129 " />
        <polyline stroke="black" stroke-width="3" stroke-linecap="round" fill="transparent" stroke-linejoin="round" points="78 97 82 98 86 99 93 103 97 107 102 110 105 113 109 115 112 118 117 118 119 118 122 118 " />
        <polyline stroke="black" stroke-width="3" stroke-linecap="round" fill="transparent" stroke-linejoin="round" points="155 44 153 49 150 56 146 66 141 76 135 87 130 97 125 107 119 119 116 125 114 129 114 131 114 132 " />
        <polyline stroke="black" stroke-width="3" stroke-linecap="round" fill="transparent" stroke-linejoin="round" points="134 107 140 104 146 103 153 103 159 103 165 104 170 105 174 106 177 107 181 109 182 110 " />
        <polyline stroke="black" stroke-width="3" stroke-linecap="round" fill="transparent" stroke-linejoin="round" points="109 134 109 134 111 133 116 132 121 130 128 128 134 127 145 124 152 123 159 123 164 126 167 128 " />
        <polyline stroke="black" stroke-width="3" stroke-linecap="round" fill="transparent" stroke-linejoin="round" points="94 179 93 178 95 178 97 178 101 177 107 176 115 175 129 173 140 171 151 170 163 169 176 169 188 170 194 171 " />
        </svg>