<?xml version="1.0" standalone="no"?>
    <svg width="256" height="256" xmlns="http://www.w3.org/2000/svg" version="1.1">
    <polyline stroke="black" stroke-width="3" stroke-linecap="round" fill="transparent" stroke-linejoin="round" points="108.0115966796875 47.697715759277344 102.71136474609376 57.41487121582031 95.644287109375 69.78216552734375 77.53509521484375 99.8170166015625 66.0511474609375 118.36795043945313 50.592041015625 142.66085815429688 44.40838623046875 151.05294799804688 43.083343505859375 152.81968688964844 43.083343505859375 152.37802124023438 43.083343505859375 152.37802124023438 " />
        <polyline stroke="black" stroke-width="3" stroke-linecap="round" fill="transparent" stroke-linejoin="round" points="93.87753295898438 110.41754150390624 99.17782592773438 113.95108032226563 104.91976928710938 118.36795043945313 116.4036865234375 127.20175170898438 121.70394897460938 131.17694091796875 131.86279296875 136.03550720214844 131.86279296875 136.03550720214844 " />
        <polyline stroke="black" stroke-width="3" stroke-linecap="round" fill="transparent" stroke-linejoin="round" points="173.381591796875 49.02278137207031 167.6396484375 60.50669860839844 150.41375732421875 94.51675415039063 144.67181396484375 105.5589599609375 135.8380126953125 122.3431396484375 132.30450439453125 128.52682495117188 127.88763427734376 136.03550720214844 126.120849609375 138.24395751953125 125.67916870117188 137.80227661132813 128.32928466796875 134.26876831054688 131.421142578125 131.61862182617188 146.88021850585938 122.78483581542967 160.5726318359375 120.13470458984376 176.03173828125 120.13470458984376 187.957275390625 121.90147399902344 197.67449951171875 124.9932861328125 197.67449951171875 124.9932861328125 " />
        <polyline stroke="black" stroke-width="3" stroke-linecap="round" fill="transparent" stroke-linejoin="round" points="108.45330810546876 171.37063598632813 114.636962890625 168.7205047607422 127.4459228515625 163.86192321777344 141.5799560546875 160.77008056640625 155.2723388671875 158.5616455078125 167.19793701171875 156.79489135742188 167.19793701171875 156.79489135742188 " />
        <polyline stroke="black" stroke-width="3" stroke-linecap="round" fill="transparent" stroke-linejoin="round" points="77.97674560546875 221.72317504882813 85.92718505859375 216.86459350585935 95.20263671875 212.00601196289065 123.470703125 201.40548706054688 144.2301025390625 198.31365966796875 169.4063720703125 196.54690551757813 185.30718994140625 196.54690551757813 185.30718994140625 196.54690551757813 " />
        </svg>