<?xml version="1.0" standalone="no"?>
    <svg width="256" height="256" xmlns="http://www.w3.org/2000/svg" version="1.1">
    <polyline stroke="black" stroke-width="3" stroke-linecap="round" fill="transparent" stroke-linejoin="round" points="104.35092163085938 63.06744384765625 99.807373046875 70.08929443359375 95.67684936523438 77.52420043945313 88.241943359375 89.089599609375 85.3505859375 93.22012329101563 81.22015380859375 99.0028076171875 79.56793212890625 101.06805419921876 81.22015380859375 100.65501403808594 89.48114013671875 96.52450561523438 103.52484130859376 89.50267028808594 120.04684448242188 83.30690002441406 136.98190307617188 79.58944702148438 148.54730224609375 80.41555786132813 155.982177734375 85.37216186523438 162.177978515625 97.76365661621094 163.8302001953125 117.17703247070313 159.28662109375 138.24258422851563 151.85174560546875 154.76458740234375 145.65594482421875 163.02560424804688 139.460205078125 166.7430419921875 134.9166259765625 165.50390625 133.264404296875 163.85171508789063 133.264404296875 163.85171508789063 " />
        <polyline stroke="black" stroke-width="3" stroke-linecap="round" fill="transparent" stroke-linejoin="round" points="119.6337890625 120.89447021484376 114.26412963867188 138.24258422851563 111.37277221679688 146.9166259765625 105.177001953125 160.13424682617188 99.807373046875 167.56915283203125 94.024658203125 172.5257568359375 87.82891845703125 176.2432098388672 84.52450561523438 177.48236083984375 84.52450561523438 177.48236083984375 " />
        <polyline stroke="black" stroke-width="3" stroke-linecap="round" fill="transparent" stroke-linejoin="round" points="82.872314453125 183.2650604248047 95.26385498046876 180.78677368164065 122.93817138671876 174.59100341796875 157.6343994140625 167.98220825195313 175.3956298828125 166.7430419921875 183.2435302734375 167.56915283203125 196.048095703125 172.93881225585938 196.048095703125 172.93881225585938 " />
        </svg>