<?xml version="1.0" standalone="no"?>
    <svg width="256" height="256" xmlns="http://www.w3.org/2000/svg" version="1.1">
    <polyline stroke="black" stroke-width="3" stroke-linecap="round" fill="transparent" stroke-linejoin="round" points="115.66668701171876 55 114.3333740234375 59.66667175292969 109.66668701171876 73 99.66668701171876 95 94.3333740234375 105.66668701171876 87 118.33334350585938 85.66668701171875 119.66668701171876 85.66668701171875 119.66668701171876 " />
        <polyline stroke="black" stroke-width="3" stroke-linecap="round" fill="transparent" stroke-linejoin="round" points="125 85 139.66668701171875 79.66667175292969 154.3333740234375 75.66667175292969 165 74.33334350585938 169 74.33334350585938 170.3333740234375 79 167 91 159 111 153 129.66668701171875 143 158.33334350585938 137 174.33334350585938 132.3333740234375 183 125 190.33334350585935 121 191.66668701171875 117 189.66668701171875 110.3333740234375 177 106.3333740234375 156.33334350585938 105 144.33334350585938 105 144.33334350585938 " />
        <polyline stroke="black" stroke-width="3" stroke-linecap="round" fill="transparent" stroke-linejoin="round" points="125.66668701171876 117 113.66668701171876 133.66668701171875 97 154.33334350585938 79 175.66668701171875 69.66668701171875 185.66668701171875 69.66668701171875 185.66668701171875 " />
        <polyline stroke="black" stroke-width="3" stroke-linecap="round" fill="transparent" stroke-linejoin="round" points="60.3333740234375 204.33334350585935 87.66668701171875 195 122.3333740234375 187 156.3333740234375 183 182.3333740234375 182.33334350585935 195.66668701171875 182.33334350585935 198.3333740234375 183 194.3333740234375 185 194.3333740234375 185 " />
        </svg>