<?xml version="1.0" standalone="no"?>
    <svg width="256" height="256" xmlns="http://www.w3.org/2000/svg" version="1.1">
    <polyline stroke="black" stroke-width="3" stroke-linecap="round" fill="transparent" stroke-linejoin="round" points="108.51119995117188 59.09574890136719 105.63449096679688 69.36972045898438 103.16876220703124 77.99984741210938 99.05917358398438 92.38339233398438 97.415283203125 100.19158935546876 97.82626342773438 103.06829833984376 101.93588256835938 102.6573486328125 114.26461791992188 95.26010131835938 131.935791015625 81.69845581054688 148.3741455078125 71.0135498046875 160.2919921875 66.08204650878906 168.5111083984375 67.31491088867188 171.3878173828125 69.78067016601563 178.78509521484375 98.13681030273438 176.3193359375 125.6710205078125 168.1002197265625 149.09564208984375 157.415283203125 163.47918701171875 151.661865234375 167.99974060058594 132.75775146484375 169.64358520507813 132.75775146484375 169.64358520507813 " />
        <polyline stroke="black" stroke-width="3" stroke-linecap="round" fill="transparent" stroke-linejoin="round" points="121.661865234375 100.6025390625 120.83993530273438 110.05459594726563 117.55224609375 143.34222412109375 114.675537109375 157.3148193359375 113.03173828125 162.24632263183594 110.9769287109375 166.35589599609375 109.74407958984376 169.23260498046875 109.74407958984376 169.23260498046875 " />
        <polyline stroke="black" stroke-width="3" stroke-linecap="round" fill="transparent" stroke-linejoin="round" points="84.2646484375 183.2052001953125 95.771484375 180.73944091796875 108.10028076171876 178.27371215820313 133.9906005859375 173.3422088623047 161.52484130859375 168.8216552734375 186.59326171875 167.17782592773438 205.4974365234375 167.99974060058594 217.0042724609375 170.05453491210938 222.3466796875 172.52029418945313 223.57958984375 175.80795288085938 223.57958984375 179.9175262451172 223.57958984375 179.9175262451172 " />
        </svg>