<?xml version="1.0" standalone="no"?>
    <svg width="256" height="256" xmlns="http://www.w3.org/2000/svg" version="1.1">
    <polyline stroke="black" stroke-width="3" stroke-linecap="round" fill="transparent" stroke-linejoin="round" points="83.17620849609375 77.9508056640625 78.1297607421875 94.53189086914063 73.44378662109375 108.9502410888672 70.56011962890625 117.60125732421876 68.39739990234375 124.44996643066406 66.95553588867188 129.13592529296875 66.5950927734375 129.85684204101563 70.56011962890625 126.61271667480467 78.8507080078125 118.32217407226563 91.46673583984376 106.78749084472656 106.24551391601563 95.2528076171875 120.30343627929688 84.43904113769531 133.27993774414063 75.42759704589844 145.17507934570313 71.822998046875 154.5469970703125 74.7066650390625 162.11663818359375 86.24134826660156 167.52349853515625 110.75253295898438 168.6048583984375 137.06602478027344 166.442138671875 156.89125061035156 161.395751953125 170.94912719726563 157.4306640625 179.96060180664063 153.82611083984375 182.4838409423828 147.69830322265625 179.96060180664063 139.7681884765625 164.46087646484375 139.7681884765625 164.46087646484375 " />
        <polyline stroke="black" stroke-width="3" stroke-linecap="round" fill="transparent" stroke-linejoin="round" points="112.37335205078124 125.53134155273438 108.40826416015624 146.07749938964844 104.4432373046875 164.46087646484375 101.19912719726563 175.9955596923828 99.3968505859375 184.6465759277344 99.036376953125 188.61160278320313 99.036376953125 188.61160278320313 " />
        <polyline stroke="black" stroke-width="3" stroke-linecap="round" fill="transparent" stroke-linejoin="round" points="74.52520751953125 223.21563720703125 105.52462768554688 216.0064392089844 134.00088500976563 210.59957885742188 162.11663818359375 205.91363525390625 186.98828125 201.58810424804688 203.56939697265625 196.90213012695313 203.56939697265625 196.90213012695313 " />
        </svg>