<?xml version="1.0" standalone="no"?>
    <svg width="256" height="256" xmlns="http://www.w3.org/2000/svg" version="1.1">
    <polyline stroke="black" stroke-width="3" stroke-linecap="round" fill="transparent" stroke-linejoin="round" points="112.8525390625 56.169464111328125 97.39862060546876 76.97279357910156 67.6795654296875 120.36262512207033 54.0087890625 139.3828125 42.12115478515625 156.61985778808594 33.799835205078125 167.3187255859375 31.42230224609375 171.47938537597656 31.42230224609375 171.47938537597656 " />
        <polyline stroke="black" stroke-width="3" stroke-linecap="round" fill="transparent" stroke-linejoin="round" points="73.62335205078125 126.90080261230467 74.21774291992188 138.1940460205078 74.21774291992188 153.64796447753906 72.43460083007813 175.6400604248047 71.245849609375 189.90521240234375 70.05706787109375 201.79281616210935 70.05706787109375 208.33102416992188 71.8402099609375 210.1141662597656 71.8402099609375 210.1141662597656 " />
        <polyline stroke="black" stroke-width="3" stroke-linecap="round" fill="transparent" stroke-linejoin="round" points="154.459228515625 56.76383972167969 160.99737548828125 65.67955017089844 166.941162109375 76.37841796875 174.07379150390625 93.02108764648438 184.17822265625 114.41880798339844 193.6883544921875 132.250244140625 203.198486328125 150.67605590820313 210.9254150390625 162.5636749267578 210.9254150390625 162.5636749267578 " />
        <polyline stroke="black" stroke-width="3" stroke-linecap="round" fill="transparent" stroke-linejoin="round" points="174.07379150390625 119.76823425292967 166.941162109375 134.03338623046875 166.3468017578125 149.48728942871094 167.53558349609375 170.885009765625 169.3187255859375 190.49957275390625 171.69622802734375 210.70855712890625 172.885009765625 226.7568359375 172.885009765625 226.7568359375 " />
        </svg>