<?xml version="1.0" standalone="no"?>
    <svg width="256" height="256" xmlns="http://www.w3.org/2000/svg" version="1.1">
    <polyline stroke="black" stroke-width="3" stroke-linecap="round" fill="transparent" stroke-linejoin="round" points="107.73699951171876 46.581298828125 86.422119140625 78.24911499023438 66.32525634765625 108.6989288330078 54.14532470703125 126.35983276367188 45.0103759765625 140.3667449951172 45.0103759765625 140.3667449951172 " />
        <polyline stroke="black" stroke-width="3" stroke-linecap="round" fill="transparent" stroke-linejoin="round" points="76.67816162109375 100.17298889160156 80.3321533203125 113.57090759277344 79.11416625976563 131.2318115234375 73.6331787109375 163.5086212158203 68.1522216796875 187.25949096679688 62.6712646484375 206.13836669921875 57.1903076171875 219.53628540039065 54.754302978515625 225.01724243164065 54.754302978515625 225.01724243164065 " />
        <polyline stroke="black" stroke-width="3" stroke-linecap="round" fill="transparent" stroke-linejoin="round" points="155.23870849609375 84.33908081054688 171.681640625 90.42904663085938 182.0345458984375 96.51901245117188 192.9964599609375 104.43595886230467 202.740478515625 112.9619140625 211.266357421875 120.8788604736328 211.266357421875 120.8788604736328 " />
        <polyline stroke="black" stroke-width="3" stroke-linecap="round" fill="transparent" stroke-linejoin="round" points="180.20758056640625 122.7058563232422 175.3355712890625 134.8857879638672 174.11761474609375 150.11068725585938 172.89959716796875 175.0795440673828 174.11761474609375 199.43939208984375 174.72662353515625 219.53628540039065 174.72662353515625 237.80618286132813 174.72662353515625 237.80618286132813 " />
        </svg>