<?xml version="1.0" standalone="no"?>
    <svg width="256" height="256" xmlns="http://www.w3.org/2000/svg" version="1.1">
    <polyline stroke="black" stroke-width="3" stroke-linecap="round" fill="transparent" stroke-linejoin="round" points="87.54672241210938 72.44142150878906 88.375244140625 80.31222534179688 89.2037353515625 87.76878356933594 90.0322265625 94.81109619140624 91.27499389648438 114.69523620605467 91.27499389648438 118.00926208496094 91.27499389648438 118.00926208496094 " />
        <polyline stroke="black" stroke-width="3" stroke-linecap="round" fill="transparent" stroke-linejoin="round" points="102.87411499023438 45.929229736328125 111.57342529296876 41.37245178222656 120.68698120117188 36.81566619873047 130.21478271484375 33.08738708496094 148.02767944335938 28.530601501464844 160.041015625 28.530601501464844 168.3260498046875 32.258880615234375 174.5399169921875 44.68647766113281 175.368408203125 67.47039794921875 167.91180419921875 89.84005737304688 155.07000732421875 106.82443237304688 155.07000732421875 106.82443237304688 " />
        <polyline stroke="black" stroke-width="3" stroke-linecap="round" fill="transparent" stroke-linejoin="round" points="110.744873046875 80.72648620605469 117.37298583984376 78.65521240234375 123.1724853515625 76.58395385742188 136.01434326171875 72.02717590332031 141.81390380859375 69.54165649414063 147.19915771484375 67.05613708496094 155.07000732421875 62.08509826660156 155.07000732421875 62.08509826660156 " />
        <polyline stroke="black" stroke-width="3" stroke-linecap="round" fill="transparent" stroke-linejoin="round" points="128.55780029296875 64.1563720703125 127.729248046875 69.54165649414063 126.48651123046876 75.3411865234375 122.75823974609376 86.94027709960938 117.37298583984376 96.8823699951172 107.0166015625 108.06719970703124 101.21710205078124 112.62396240234376 99.14584350585938 113.86672973632813 96.66033935546876 115.52374267578124 96.24603271484376 115.52374267578124 100.80282592773438 114.28099060058594 105.359619140625 112.62396240234376 118.61572265625 108.06719970703124 138.08563232421875 101.8533935546875 148.44189453125 99.7821044921875 148.44189453125 99.7821044921875 " />
        <polyline stroke="black" stroke-width="3" stroke-linecap="round" fill="transparent" stroke-linejoin="round" points="65.17709350585938 155.29202270507813 73.87640380859375 151.56375122070313 84.64697265625 147.83547973632813 107.43087768554688 140.37893676757813 119.02996826171876 137.06488037109375 140.9853515625 131.26535034179688 159.62677001953125 126.70858764648438 174.9541015625 123.80880737304688 184.06768798828125 122.98031616210938 186.96746826171875 122.98031616210938 186.96746826171875 122.98031616210938 " />
        <polyline stroke="black" stroke-width="3" stroke-linecap="round" fill="transparent" stroke-linejoin="round" points="99.97430419921876 168.96237182617188 114.887451171875 163.9913330078125 121.92974853515624 162.33433532714844 134.35736083984375 160.67730712890625 143.056640625 161.50582885742188 148.02767944335938 164.40557861328125 150.92742919921875 172.69065856933594 148.85617065429688 185.94674682617188 140.9853515625 200.44561767578125 129.38629150390625 211.63043212890625 129.38629150390625 211.63043212890625 " />
        <polyline stroke="black" stroke-width="3" stroke-linecap="round" fill="transparent" stroke-linejoin="round" points="118.61572265625 209.5591735839844 134.35736083984375 215.77294921875 151.7559814453125 224.88653564453125 162.9407958984375 231.51458740234375 162.9407958984375 231.51458740234375 " />
        </svg>