<?xml version="1.0" standalone="no"?>
    <svg width="256" height="256" xmlns="http://www.w3.org/2000/svg" version="1.1">
    <polyline stroke="black" stroke-width="3" stroke-linecap="round" fill="transparent" stroke-linejoin="round" points="81.91537475585938 53.63471984863281 82.73651123046875 59.79328918457031 83.96823120117188 66.77299499511719 86.02108764648438 80.32183837890625 87.66339111328125 91.40725708007813 88.89508056640625 99.20809936523438 89.30563354492188 103.31382751464844 88.4844970703125 104.13494873046876 88.07391357421875 104.13494873046876 87.25277709960938 102.90324401855467 83.5576171875 93.87068176269533 81.50482177734375 86.06985473632813 80.68365478515625 80.32183837890625 80.68365478515625 77.85841369628906 81.09420776367188 72.52099609375 81.91537475585938 69.64698791503906 83.96823120117188 66.77299499511719 88.89508056640625 62.66728210449219 97.10650634765624 56.91929626464844 107.37078857421876 50.76072692871094 119.68792724609376 45.012725830078125 131.59445190429688 40.49645233154297 143.5009765625 37.62245178222656 154.1759033203125 36.39073944091797 162.7978515625 36.80131530761719 166.4930419921875 37.62245178222656 173.88330078125 42.13873291015625 177.1678466796875 47.065582275390625 179.63128662109375 55.68757629394531 178.81011962890625 67.59414672851563 174.2938232421875 78.67955017089844 166.903564453125 88.53326416015625 166.903564453125 88.53326416015625 " />
        <polyline stroke="black" stroke-width="3" stroke-linecap="round" fill="transparent" stroke-linejoin="round" points="111.06591796875 80.73240661621094 121.74072265625 77.85841369628906 127.07818603515624 76.626708984375 141.44818115234375 72.52099609375 148.4278564453125 70.05755615234375 152.5335693359375 67.59414672851563 153.76531982421875 66.3624267578125 153.76531982421875 66.3624267578125 " />
        <polyline stroke="black" stroke-width="3" stroke-linecap="round" fill="transparent" stroke-linejoin="round" points="137.34246826171875 60.61444091796875 136.931884765625 65.13070678710938 135.28955078125 77.44784545898438 133.64730834960938 84.83811950683594 131.59445190429688 90.9967041015625 129.13104248046875 95.92355346679688 126.66757202148438 99.61868286132813 124.20419311523438 102.08212280273438 122.15133666992188 103.72439575195313 121.33016967773438 104.13494873046876 119.68792724609376 105.36666870117188 118.86676025390624 105.77725219726563 119.68792724609376 105.77725219726563 121.74072265625 105.77725219726563 128.30990600585938 104.9561004638672 137.75302124023438 104.13494873046876 147.19613647460938 103.31382751464844 154.1759033203125 102.08212280273438 158.2816162109375 101.26095581054688 159.5133056640625 101.26095581054688 159.5133056640625 101.26095581054688 " />
        <polyline stroke="black" stroke-width="3" stroke-linecap="round" fill="transparent" stroke-linejoin="round" points="87.66339111328125 130.4114990234375 95.874755859375 127.94808959960938 105.31787109375 125.07408142089844 134.46844482421875 118.09439086914063 153.354736328125 115.22036743164063 161.9766845703125 113.9886474609375 182.09466552734375 111.11466979980467 189.4849853515625 110.29351806640624 191.537841796875 109.8829345703125 191.537841796875 109.8829345703125 " />
        <polyline stroke="black" stroke-width="3" stroke-linecap="round" fill="transparent" stroke-linejoin="round" points="118.04559326171876 148.0660400390625 134.057861328125 145.60263061523438 157.87103271484375 142.31805419921875 164.8507080078125 141.49691772460938 176.3466796875 140.67576599121094 184.1475830078125 140.26519775390625 188.663818359375 140.26519775390625 190.7166748046875 140.67576599121094 191.12725830078125 142.72862243652344 185.789794921875 151.76119995117188 179.63128662109375 158.7408905029297 154.1759033203125 182.1434326171875 147.19613647460938 187.89144897460935 147.19613647460938 187.89144897460935 " />
        <polyline stroke="black" stroke-width="3" stroke-linecap="round" fill="transparent" stroke-linejoin="round" points="122.15133666992188 184.60687255859375 142.269287109375 193.63943481445313 151.3018798828125 200.20855712890625 160.7449951171875 211.29397583007813 164.8507080078125 217.4525451660156 164.8507080078125 217.4525451660156 " />
        </svg>