<?xml version="1.0" standalone="no"?>
    <svg width="256" height="256" xmlns="http://www.w3.org/2000/svg" version="1.1">
    <polyline stroke="black" stroke-width="3" stroke-linecap="round" fill="transparent" stroke-linejoin="round" points="87.40603637695313 57.65399169921875 90.29318237304688 68.0477294921875 92.6029052734375 79.5963134765625 94.91262817382813 91.72235107421876 96.0675048828125 100.3837890625 96.0675048828125 107.3129425048828 96.0675048828125 111.35494995117188 96.0675048828125 111.35494995117188 96.0675048828125 107.890380859375 96.0675048828125 107.890380859375 " />
        <polyline stroke="black" stroke-width="3" stroke-linecap="round" fill="transparent" stroke-linejoin="round" points="103.57406616210938 54.18940734863281 115.1226806640625 48.41511535644531 126.6712646484375 43.21824645996094 141.6844482421875 37.443946838378906 154.38787841796875 32.82450866699219 166.513916015625 29.35993194580078 173.44305419921875 28.782501220703125 179.2174072265625 29.93736267089844 183.2593994140625 34.556793212890625 185.569091796875 44.950531005859375 184.99169921875 61.118560791015625 180.37225341796875 75.55430603027344 171.7108154296875 88.83518981933594 164.7816162109375 97.49664306640624 164.7816162109375 97.49664306640624 " />
        <polyline stroke="black" stroke-width="3" stroke-linecap="round" fill="transparent" stroke-linejoin="round" points="117.432373046875 85.37062072753906 126.09381103515624 80.75117492675781 135.91015625 76.13174438476563 143.994140625 70.93487548828125 150.34588623046875 65.16056823730469 156.6976318359375 57.65399169921875 156.6976318359375 57.65399169921875 " />
        <polyline stroke="black" stroke-width="3" stroke-linecap="round" fill="transparent" stroke-linejoin="round" points="138.2198486328125 51.30226135253906 135.33270263671875 61.69599914550781 131.29071044921875 73.822021484375 126.6712646484375 85.94804382324219 121.47439575195313 95.7643585205078 116.27752685546876 103.84837341308594 110.50323486328124 110.20010375976563 104.1514892578125 114.8195343017578 98.377197265625 117.70668029785156 94.335205078125 119.43898010253906 92.02548217773438 119.43898010253906 93.18032836914063 119.43898010253906 97.79977416992188 117.12925720214844 109.348388671875 112.5098114013672 126.6712646484375 106.73551940917967 139.9521484375 101.53865051269533 151.500732421875 96.91921997070313 157.2750244140625 94.03205871582033 161.3170166015625 92.29977416992188 161.3170166015625 92.29977416992188 161.3170166015625 92.29977416992188 " />
        <polyline stroke="black" stroke-width="3" stroke-linecap="round" fill="transparent" stroke-linejoin="round" points="85.67376708984375 148.8878936767578 104.72894287109376 144.84588623046875 128.403564453125 139.0715789794922 150.34588623046875 134.4521484375 167.66876220703125 130.41014099121094 180.94964599609375 126.36813354492188 187.8787841796875 124.05841064453124 191.92083740234375 122.90354919433594 190.18853759765625 122.90354919433594 190.18853759765625 122.90354919433594 " />
        <polyline stroke="black" stroke-width="3" stroke-linecap="round" fill="transparent" stroke-linejoin="round" points="89.1383056640625 164.47850036621094 101.26434326171876 159.8590545654297 118.00982666015624 154.0847625732422 134.1778564453125 148.8878936767578 150.34588623046875 144.26844787597656 162.471923828125 143.11358642578125 169.978515625 144.26844787597656 174.597900390625 148.31045532226563 176.3302001953125 154.6621856689453 174.0205078125 165.05592346191406 165.35906982421875 178.91424560546875 153.2330322265625 192.19512939453125 153.2330322265625 192.19512939453125 " />
        <polyline stroke="black" stroke-width="3" stroke-linecap="round" fill="transparent" stroke-linejoin="round" points="115.1226806640625 200.27914428710935 128.403564453125 203.16629028320313 143.416748046875 206.630859375 156.6976318359375 209.51800537109375 167.09130859375 212.4051513671875 174.0205078125 215.29232788085935 174.0205078125 215.29232788085935 " />
        </svg>