<?xml version="1.0" standalone="no"?>
    <svg width="256" height="256" xmlns="http://www.w3.org/2000/svg" version="1.1">
    <polyline stroke="black" stroke-width="3" stroke-linecap="round" fill="transparent" stroke-linejoin="round" points="84.55014038085938 72.33621215820313 86.39471435546875 79.71441650390625 87.31698608398438 87.09262084960938 87.77813720703125 93.08741760253906 87.77813720703125 101.38790893554688 86.39471435546875 105.07699584960938 86.39471435546875 105.07699584960938 " />
        <polyline stroke="black" stroke-width="3" stroke-linecap="round" fill="transparent" stroke-linejoin="round" points="110.83505249023438 43.28450775146485 127.43600463867188 36.828575134277344 144.49813842773438 32.217193603515625 151.8763427734375 31.294921875 164.7882080078125 31.756057739257813 175.3944091796875 38.21199798583984 178.622314453125 51.584991455078125 173.5498046875 71.41392517089844 158.332275390625 92.62628173828124 158.332275390625 92.62628173828124 " />
        <polyline stroke="black" stroke-width="3" stroke-linecap="round" fill="transparent" stroke-linejoin="round" points="115.90756225585938 77.86985778808594 129.74169921875 74.18075561523438 150.492919921875 68.18595886230469 160.637939453125 64.03572082519531 166.63275146484375 59.424346923828125 166.63275146484375 59.424346923828125 " />
        <polyline stroke="black" stroke-width="3" stroke-linecap="round" fill="transparent" stroke-linejoin="round" points="135.27536010742188 56.657501220703125 132.96966552734375 62.652313232421875 130.20281982421875 68.6470947265625 127.43600463867188 75.10302734375 124.20806884765624 81.09782409667969 118.21322631835938 90.32058715820313 114.98529052734376 94.4708251953125 109.91278076171876 100.00448608398438 106.684814453125 102.31016540527344 105.76254272460938 103.23245239257813 106.2236328125 103.23245239257813 115.4464111328125 100.4656219482422 130.66400146484375 96.31536865234376 144.49813842773438 93.08741760253906 151.4151611328125 92.62628173828124 151.4151611328125 92.62628173828124 " />
        <polyline stroke="black" stroke-width="3" stroke-linecap="round" fill="transparent" stroke-linejoin="round" points="95.61749267578124 125.3670654296875 108.06820678710938 121.67796325683594 143.11468505859375 114.76089477539063 171.244140625 112.45523071289063 176.77777099609375 111.99406433105467 176.77777099609375 111.99406433105467 " />
        <polyline stroke="black" stroke-width="3" stroke-linecap="round" fill="transparent" stroke-linejoin="round" points="91.46722412109376 160.87472534179688 102.99569702148438 155.34104919433594 114.98529052734376 150.26852416992188 138.96444702148438 141.96804809570313 149.57064819335938 140.12350463867188 158.332275390625 139.2012176513672 170.782958984375 140.12350463867188 177.2388916015625 142.42918395996094 180.0057373046875 146.1182861328125 180.0057373046875 154.87991333007813 173.5498046875 165.486083984375 156.48773193359375 181.62591552734375 156.48773193359375 181.62591552734375 " />
        <polyline stroke="black" stroke-width="3" stroke-linecap="round" fill="transparent" stroke-linejoin="round" points="125.59149169921876 191.309814453125 144.03695678710938 197.7657470703125 166.63275146484375 210.21649169921875 174.01092529296875 217.133544921875 174.01092529296875 217.133544921875 " />
        </svg>