<?xml version="1.0" standalone="no"?>
    <svg width="256" height="256" xmlns="http://www.w3.org/2000/svg" version="1.1">
    <polyline stroke="black" stroke-width="3" stroke-linecap="round" fill="transparent" stroke-linejoin="round" points="92.9320068359375 58.275909423828125 82.16146850585938 76.08877563476563 76.776123046875 85.61660766601563 70.56234741210938 98.45846557617188 61.0345458984375 114.61431884765624 53.99224853515625 124.556396484375 50.26397705078125 129.52743530273438 48.192718505859375 130.7701873779297 47.36419677734375 129.52743530273438 49.849700927734375 124.556396484375 55.649261474609375 116.68557739257813 63.52008056640625 108.40054321289063 67.66259765625 104.25798034667967 79.67596435546875 94.7301788330078 85.88973999023438 91.00189208984376 87.96099853515625 90.1733856201172 92.103515625 89.75912475585938 93.34628295898438 94.31591796875 89.2037353515625 117.09983825683594 80.09017944335938 146.92605590820313 70.97665405273438 170.5384521484375 66.00558471679688 179.6520233154297 53.577972412109375 199.53619384765625 49.021209716796875 205.33572387695313 46.53570556640625 207.406982421875 46.53570556640625 207.406982421875 " />
        <polyline stroke="black" stroke-width="3" stroke-linecap="round" fill="transparent" stroke-linejoin="round" points="62.69158935546875 139.46951293945313 72.63363647460938 144.8547821044922 78.43319702148438 148.5830535888672 91.68927001953124 157.28237915039063 104.94537353515624 167.22445678710938 116.54443359375 175.9237518310547 128.97201538085938 182.13755798339844 128.97201538085938 182.13755798339844 " />
        <polyline stroke="black" stroke-width="3" stroke-linecap="round" fill="transparent" stroke-linejoin="round" points="161.2838134765625 47.919578552246094 155.4842529296875 56.618896484375 151.34173583984375 63.2469482421875 146.784912109375 70.7034912109375 137.257080078125 86.03085327148438 124.82952880859376 107.57200622558594 121.51547241210938 113.78581237792967 116.13021850585938 123.31364440917967 116.13021850585938 123.31364440917967 " />
        <polyline stroke="black" stroke-width="3" stroke-linecap="round" fill="transparent" stroke-linejoin="round" points="149.68466186523438 80.64556884765625 161.697998046875 77.33154296875 167.49755859375 76.50303649902344 180.33941650390625 75.26028442382813 186.138916015625 74.84602355957031 191.5242919921875 74.4317626953125 201.46630859375 74.84602355957031 208.9228515625 76.08877563476563 214.3082275390625 78.16004943847656 214.3082275390625 78.16004943847656 " />
        <polyline stroke="black" stroke-width="3" stroke-linecap="round" fill="transparent" stroke-linejoin="round" points="176.1968994140625 115.85708618164063 175.78265380859375 130.7701873779297 175.78265380859375 138.64097595214844 175.78265380859375 174.26675415039063 175.78265380859375 183.38031005859375 175.368408203125 197.46490478515625 174.1256103515625 204.9214782714844 173.297119140625 207.406982421875 170.8116455078125 209.06399536132813 170.8116455078125 209.06399536132813 " />
        <polyline stroke="black" stroke-width="3" stroke-linecap="round" fill="transparent" stroke-linejoin="round" points="115.30169677734376 152.3113250732422 127.31503295898438 157.69662475585938 132.70028686523438 161.01065063476563 138.49984741210938 164.32467651367188 156.312744140625 174.26675415039063 156.312744140625 174.26675415039063 " />
        <polyline stroke="black" stroke-width="3" stroke-linecap="round" fill="transparent" stroke-linejoin="round" points="220.52197265625 137.81248474121094 209.75140380859375 158.9393768310547 203.95184326171875 172.1954803466797 198.15228271484375 186.28009033203125 198.15228271484375 186.28009033203125 " />
        </svg>