<?xml version="1.0" standalone="no"?>
    <svg width="256" height="256" xmlns="http://www.w3.org/2000/svg" version="1.1">
    <polyline stroke="black" stroke-width="3" stroke-linecap="round" fill="transparent" stroke-linejoin="round" points="80.64532470703125 58.41545104980469 70.03524780273438 78.309326171875 62.519775390625 92.01400756835938 55.88848876953125 104.39242553710938 49.69927978515625 114.11833190917967 41.299652099609375 125.612548828125 38.6470947265625 128.70718383789063 36.878753662109375 130.9176025390625 37.32086181640625 130.03343200683594 42.62591552734375 123.84422302246094 55.00433349609375 111.02371215820313 67.82479858398438 98.64529418945313 77.55072021484375 90.687744140625 82.855712890625 87.5931396484375 85.066162109375 88.91940307617188 82.41366577148438 110.13955688476563 68.26690673828125 149.92730712890625 53.2359619140625 183.0837860107422 40.8575439453125 206.51434326171875 34.22625732421875 217.1244201660156 31.57373046875 219.7769470214844 31.57373046875 219.7769470214844 " />
        <polyline stroke="black" stroke-width="3" stroke-linecap="round" fill="transparent" stroke-linejoin="round" points="52.79388427734375 138.87515258789063 62.96185302734375 151.69564819335938 67.82479858398438 158.76902770996094 81.08740234375 174.6841278076172 95.234130859375 188.38882446289065 111.59130859375 199.44097900390625 120.43307495117188 201.65139770507813 120.43307495117188 201.65139770507813 " />
        <polyline stroke="black" stroke-width="3" stroke-linecap="round" fill="transparent" stroke-linejoin="round" points="169.06256103515625 45.594940185546875 156.68414306640625 61.9521484375 149.61077880859375 73.00430297851563 142.09530639648438 84.49853515625 124.411865234375 113.23416137695313 120.87518310546876 119.42337036132813 120.87518310546876 119.42337036132813 " />
        <polyline stroke="black" stroke-width="3" stroke-linecap="round" fill="transparent" stroke-linejoin="round" points="149.61077880859375 76.54098510742188 165.52587890625 74.33056640625 173.0413818359375 73.88847351074219 181.44097900390625 73.88847351074219 198.682373046875 74.33056640625 206.19781494140625 74.77264404296875 219.018310546875 76.54098510742188 226.975830078125 78.75141906738281 226.975830078125 78.75141906738281 " />
        <polyline stroke="black" stroke-width="3" stroke-linecap="round" fill="transparent" stroke-linejoin="round" points="195.1456298828125 126.49673461914063 194.261474609375 142.8539276123047 193.81939697265625 154.34817504882813 193.3773193359375 167.6107635498047 192.051025390625 178.66290283203125 189.3985595703125 195.904296875 184.093505859375 211.3773193359375 180.55682373046875 214.91400146484375 180.55682373046875 214.91400146484375 " />
        <polyline stroke="black" stroke-width="3" stroke-linecap="round" fill="transparent" stroke-linejoin="round" points="127.94857788085938 141.9697723388672 142.537353515625 150.81149291992188 149.61077880859375 153.90609741210938 158.01043701171875 156.55859375 169.06256103515625 158.76902770996094 169.06256103515625 158.76902770996094 " />
        <polyline stroke="black" stroke-width="3" stroke-linecap="round" fill="transparent" stroke-linejoin="round" points="238.9122314453125 132.24386596679688 225.64959716796875 148.15896606445313 209.29241943359375 174.24205017089844 209.29241943359375 174.24205017089844 " />
        </svg>