<?xml version="1.0" standalone="no"?>
    <svg width="256" height="256" xmlns="http://www.w3.org/2000/svg" version="1.1">
    <polyline stroke="black" stroke-width="3" stroke-linecap="round" fill="transparent" stroke-linejoin="round" points="72 96 74 95 76 95 79 94 82 93 86 92 90 90 95 88 100 87 104 86 109 86 111 87 112 88 " />
        <polyline stroke="black" stroke-width="3" stroke-linecap="round" fill="transparent" stroke-linejoin="round" points="72 125 72 126 73 126 76 127 79 126 83 126 87 125 92 124 96 123 99 123 100 124 " />
        <polyline stroke="black" stroke-width="3" stroke-linecap="round" fill="transparent" stroke-linejoin="round" points="68 159 67 160 68 160 71 160 75 160 80 159 86 157 91 155 97 151 104 145 111 138 114 134 117 129 " />
        <polyline stroke="black" stroke-width="3" stroke-linecap="round" fill="transparent" stroke-linejoin="round" points="97 67 94 72 92 81 90 93 86 116 84 133 83 149 83 164 83 178 84 188 85 197 87 202 88 204 89 206 " />
        <polyline stroke="black" stroke-width="3" stroke-linecap="round" fill="transparent" stroke-linejoin="round" points="121 110 125 105 128 102 132 98 137 94 145 86 150 81 156 76 162 71 168 66 172 62 174 60 176 59 " />
        <polyline stroke="black" stroke-width="3" stroke-linecap="round" fill="transparent" stroke-linejoin="round" points="148 90 143 100 138 112 133 124 129 137 125 149 121 167 119 177 117 185 116 191 115 195 115 198 114 200 114 201 114 201 116 199 119 196 123 191 128 185 133 179 138 172 144 165 149 158 155 150 159 144 161 142 " />
        <polyline stroke="black" stroke-width="3" stroke-linecap="round" fill="transparent" stroke-linejoin="round" points="142 142 141 141 141 138 142 134 144 129 147 124 151 119 155 115 159 113 163 112 168 113 171 116 175 124 177 132 178 141 178 150 178 159 179 168 181 177 182 185 186 197 188 203 191 208 194 212 197 213 201 213 206 209 212 202 217 193 223 183 225 179 227 176 " />
        </svg>