<?xml version="1.0" standalone="no"?>
    <svg width="256" height="256" xmlns="http://www.w3.org/2000/svg" version="1.1">
    <polyline stroke="black" stroke-width="3" stroke-linecap="round" fill="transparent" stroke-linejoin="round" points="80.07843017578125 87.14262390136719 98.38043212890624 82.56712341308594 100.3414306640625 81.91348266601563 104.26324462890624 81.25985717773438 104.9168701171875 86.48899841308594 102.9559326171875 94.98634338378906 102.9559326171875 94.98634338378906 " />
        <polyline stroke="black" stroke-width="3" stroke-linecap="round" fill="transparent" stroke-linejoin="round" points="89.883056640625 121.78573608398438 99.03411865234376 124.40029907226563 97.07318115234376 127.66851806640624 95.11224365234376 129.6294403076172 95.11224365234376 129.6294403076172 " />
        <polyline stroke="black" stroke-width="3" stroke-linecap="round" fill="transparent" stroke-linejoin="round" points="93.15130615234376 152.5069580078125 117.98974609375 133.5513153076172 119.95068359375 130.28311157226563 121.91156005859376 127.014892578125 121.91156005859376 127.014892578125 " />
        <polyline stroke="black" stroke-width="3" stroke-linecap="round" fill="transparent" stroke-linejoin="round" points="87.922119140625 99.56185913085938 87.922119140625 105.44464111328124 85.30755615234375 156.4288330078125 85.30755615234375 167.540771484375 85.30755615234375 184.53549194335935 85.30755615234375 196.30108642578125 87.26849365234375 201.53024291992188 93.15130615234376 198.91567993164065 95.11224365234376 197.60836791992188 95.11224365234376 197.60836791992188 " />
        <polyline stroke="black" stroke-width="3" stroke-linecap="round" fill="transparent" stroke-linejoin="round" points="131.71624755859375 81.91348266601563 153.2864990234375 65.57240295410156 155.90106201171875 64.26512145996094 166.35931396484375 59.03596496582031 173.5494384765625 56.42140197753906 175.5103759765625 56.42140197753906 172.895751953125 59.68962097167969 165.70574951171875 68.84062194824219 158.515625 81.25985717773438 150.01824951171875 100.21549987792967 142.17449951171875 125.70758056640624 135.63812255859375 150.5460205078125 130.408935546875 169.501708984375 127.1407470703125 181.92092895507813 126.48712158203124 185.84280395507813 127.1407470703125 187.15008544921875 130.408935546875 185.84280395507813 136.291748046875 181.2672576904297 150.01824951171875 166.88711547851563 163.09112548828125 151.19969177246094 172.24212646484375 142.0486602783203 173.5494384765625 140.0877685546875 173.5494384765625 140.0877685546875 " />
        <polyline stroke="black" stroke-width="3" stroke-linecap="round" fill="transparent" stroke-linejoin="round" points="157.86199951171875 106.09828186035156 172.895751953125 100.86915588378906 174.856689453125 103.48371887207033 176.817626953125 115.90293884277344 174.856689453125 136.16587829589844 172.24212646484375 157.73611450195313 170.93487548828125 177.99905395507813 171.5885009765625 187.8037109375 173.5494384765625 192.37924194335935 177.4713134765625 194.9937744140625 185.3150634765625 193.03286743164065 199.69512939453125 185.84280395507813 208.19256591796875 180.61363220214844 213.42169189453125 177.3454132080078 214.72894287109375 176.0381317138672 215.38262939453125 176.0381317138672 216.0362548828125 177.99905395507813 216.0362548828125 177.99905395507813 " />
        </svg>