<?xml version="1.0" standalone="no"?>
    <svg width="256" height="256" xmlns="http://www.w3.org/2000/svg" version="1.1">
    <polyline stroke="black" stroke-width="3" stroke-linecap="round" fill="transparent" stroke-linejoin="round" points="70.14071655273438 104.54666137695313 98.1917724609375 97.61639404296876 101.49188232421876 96.62638854980467 107.76214599609376 93.98626708984376 109.41217041015624 92.99623107910156 109.41217041015624 92.99623107910156 109.41217041015624 92.99623107910156 " />
        <polyline stroke="black" stroke-width="3" stroke-linecap="round" fill="transparent" stroke-linejoin="round" points="59.91033935546875 158.66868591308594 64.20046997070313 157.67864990234375 85.98129272460938 150.08836364746094 89.61141967773438 148.768310546875 97.86175537109376 145.7982177734375 101.49188232421876 143.81814575195313 101.82186889648438 143.81814575195313 101.82186889648438 143.81814575195313 " />
        <polyline stroke="black" stroke-width="3" stroke-linecap="round" fill="transparent" stroke-linejoin="round" points="52.98004150390625 178.13943481445313 82.35116577148438 170.5491180419922 86.31130981445313 168.56906127929688 97.86175537109376 159.32870483398438 104.7919921875 148.4383087158203 104.7919921875 148.4383087158203 " />
        <polyline stroke="black" stroke-width="3" stroke-linecap="round" fill="transparent" stroke-linejoin="round" points="70.470703125 81.77580261230469 71.1307373046875 88.7060546875 70.80072021484375 141.8380584716797 71.1307373046875 154.04852294921875 71.46078491210938 184.40966796875 71.790771484375 207.84054565429688 72.45077514648438 216.09085083007813 73.44085693359375 218.40093994140625 73.44085693359375 218.40093994140625 73.44085693359375 218.40093994140625 " />
        <polyline stroke="black" stroke-width="3" stroke-linecap="round" fill="transparent" stroke-linejoin="round" points="119.97259521484376 117.08714294433594 150.66372680664063 95.63633728027344 156.60400390625 92.00619506835938 172.7745361328125 83.75588989257813 184.655029296875 78.14566040039063 189.9351806640625 76.16560363769531 190.92529296875 76.16560363769531 190.92529296875 76.16560363769531 " />
        <polyline stroke="black" stroke-width="3" stroke-linecap="round" fill="transparent" stroke-linejoin="round" points="145.05349731445313 117.74714660644533 142.4134521484375 123.6873779296875 128.222900390625 157.01864624023438 125.91278076171876 163.618896484375 119.97259521484376 184.07965087890625 115.35238647460938 202.23031616210935 113.04232788085938 211.470703125 112.38229370117188 215.100830078125 112.38229370117188 216.42086791992188 113.37234497070313 216.09085083007813 118.98251342773438 210.48062133789065 127.23284912109376 199.5902404785156 136.80319213867188 187.70977783203125 143.40341186523438 175.4993133544922 146.70358276367188 168.8990936279297 146.70358276367188 168.8990936279297 146.70358276367188 168.8990936279297 " />
        <polyline stroke="black" stroke-width="3" stroke-linecap="round" fill="transparent" stroke-linejoin="round" points="136.80319213867188 139.19796752929688 152.643798828125 131.93768310546875 155.283935546875 130.94764709472656 161.22412109375 128.6375732421875 165.18426513671875 128.30755615234375 167.82440185546875 130.6176300048828 166.8343505859375 149.4283447265625 162.21417236328125 177.14939880371094 158.9140625 204.21041870117188 160.89410400390625 223.68112182617188 165.18426513671875 232.26144409179688 171.12451171875 236.22161865234375 177.7247314453125 237.211669921875 183.66497802734375 234.90155029296875 187.955078125 228.63131713867188 192.5753173828125 216.42086791992188 195.54541015625 202.56036376953125 196.2054443359375 193.6499938964844 195.54541015625 187.04977416992188 193.56536865234375 184.40966796875 192.24530029296875 183.7496337890625 192.24530029296875 183.7496337890625 " />
        </svg>