<?xml version="1.0" standalone="no"?>
    <svg width="256" height="256" xmlns="http://www.w3.org/2000/svg" version="1.1">
    <polyline stroke="black" stroke-width="3" stroke-linecap="round" fill="transparent" stroke-linejoin="round" points="61.1279296875 55.65294647216797 61.96728515625 67.40361022949219 61.547607421875 81.67227172851563 60.708251953125 88.38693237304688 59.86895751953125 95.10159301757813 58.190277099609375 106.85226440429688 57.770599365234375 111.04893493652344 56.9312744140625 117.76359558105467 56.9312744140625 124.05859375 58.190277099609375 126.99626159667967 60.708251953125 129.09458923339844 67.42294311523438 130.77325439453125 77.07528686523438 130.77325439453125 86.72760009765625 128.6749267578125 96.799560546875 124.89793395996094 105.61260986328124 119.0225830078125 105.61260986328124 119.0225830078125 " />
        <polyline stroke="black" stroke-width="3" stroke-linecap="round" fill="transparent" stroke-linejoin="round" points="115.6845703125 77.89527893066406 116.943603515625 90.48527526855467 117.36325073242188 95.52127075195313 117.78292846679688 100.97695922851563 118.62225341796876 111.04893493652344 118.62225341796876 111.04893493652344 " />
        <polyline stroke="black" stroke-width="3" stroke-linecap="round" fill="transparent" stroke-linejoin="round" points="93.0225830078125 48.93828582763672 94.70126342773438 61.94795227050781 94.70126342773438 71.60028076171875 94.28158569335938 82.9312744140625 90.92425537109376 117.76359558105467 87.56695556640625 139.16659545898438 84.2095947265625 158.4712371826172 82.95062255859375 167.28424072265625 80.012939453125 182.8118896484375 76.65560913085938 202.5362243652344 76.65560913085938 202.5362243652344 " />
        <polyline stroke="black" stroke-width="3" stroke-linecap="round" fill="transparent" stroke-linejoin="round" points="148.83822631835938 56.911956787109375 147.9989013671875 72.01994323730469 147.15960693359375 83.35093688964844 146.32025146484375 97.61959838867188 145.48089599609375 112.30795288085938 145.06124877929688 142.104248046875 147.15960693359375 182.8118896484375 148.41854858398438 204.21490478515625 148.41854858398438 204.21490478515625 " />
        </svg>