<?xml version="1.0" standalone="no"?>
    <svg width="256" height="256" xmlns="http://www.w3.org/2000/svg" version="1.1">
    <polyline stroke="black" stroke-width="3" stroke-linecap="round" fill="transparent" stroke-linejoin="round" points="44.939208984375 103.7752380371094 46.670989990234375 119.64984130859376 48.40277099609375 135.52444458007813 49.268646240234375 142.7401885986328 49.557281494140625 146.781005859375 50.134552001953125 150.53317260742188 49.84588623046875 152.5535888671875 49.268646240234375 153.13082885742188 48.40277099609375 153.41946411132813 48.114105224609375 153.41946411132813 47.82550048828125 153.41946411132813 49.268646240234375 153.41946411132813 56.19573974609375 151.39906311035156 69.7613525390625 146.49237060546875 87.07904052734375 138.69937133789063 103.819580078125 132.06089782714844 114.7874755859375 127.44284057617188 123.15771484375 123.40202331542967 127.19854736328124 121.95887756347656 127.19854736328124 121.95887756347656 " />
        <polyline stroke="black" stroke-width="3" stroke-linecap="round" fill="transparent" stroke-linejoin="round" points="100.93331909179688 90.49827575683594 103.819580078125 105.2183837890625 106.70584106445313 119.93849182128906 107.28311157226563 124.8451690673828 108.4376220703125 130.04046630859375 109.014892578125 132.3495330810547 109.014892578125 132.3495330810547 " />
        <polyline stroke="black" stroke-width="3" stroke-linecap="round" fill="transparent" stroke-linejoin="round" points="84.48141479492188 53.553741455078125 85.3472900390625 83.57118225097656 86.21316528320313 113.588623046875 86.79043579101563 143.02882385253906 85.05865478515625 169.87132263183594 82.17239379882813 192.0957946777344 77.5543212890625 216.05203247070313 72.3590087890625 241.45138549804688 72.3590087890625 241.45138549804688 " />
        <polyline stroke="black" stroke-width="3" stroke-linecap="round" fill="transparent" stroke-linejoin="round" points="156.35009765625 64.81027221679683 153.75244140625 95.4049835205078 151.15478515625 125.99969482421876 149.13436889648438 159.1920623779297 149.13436889648438 183.14830017089844 149.71163940429688 200.17739868164065 150.28887939453125 206.81588745117188 150.86614990234375 209.9908142089844 150.86614990234375 209.9908142089844 " />
        </svg>