<?xml version="1.0" standalone="no"?>
    <svg width="256" height="256" xmlns="http://www.w3.org/2000/svg" version="1.1">
    <polyline stroke="black" stroke-width="3" stroke-linecap="round" fill="transparent" stroke-linejoin="round" points="84 63 83 65 82 69 81 75 79 82 77 89 75 98 74 105 73 112 73 120 73 124 74 127 74 130 76 132 78 133 82 135 86 136 92 137 101 137 108 136 114 135 120 133 125 130 129 127 133 123 134 121 " />
        <polyline stroke="black" stroke-width="3" stroke-linecap="round" fill="transparent" stroke-linejoin="round" points="133 83 133 83 134 83 136 84 138 85 139 87 140 90 141 94 141 102 141 107 140 112 139 117 138 120 138 121 " />
        <polyline stroke="black" stroke-width="3" stroke-linecap="round" fill="transparent" stroke-linejoin="round" points="110 51 111 50 112 50 114 51 115 53 116 58 116 70 115 83 113 97 110 113 108 128 105 142 103 155 100 166 99 175 97 182 97 187 97 191 98 192 " />
        <polyline stroke="black" stroke-width="3" stroke-linecap="round" fill="transparent" stroke-linejoin="round" points="171 35 171 35 172 36 174 39 175 45 175 53 175 65 173 80 171 97 169 115 167 142 166 158 166 172 166 184 166 195 167 204 168 211 170 217 170 220 171 222 " />
        </svg>