<?xml version="1.0" standalone="no"?>
    <svg width="256" height="256" xmlns="http://www.w3.org/2000/svg" version="1.1">
    <polyline stroke="black" stroke-width="3" stroke-linecap="round" fill="transparent" stroke-linejoin="round" points="76.65789794921876 68.50209045410156 95.1982421875 66.87643432617188 113.73858642578124 65.25077819824219 122.1392822265625 64.29608154296875 138.15380859375 62.156890869140625 146.09140014648438 60.64878845214844 158.55218505859375 57.482421875 163.99993896484375 56.486114501953125 173.36346435546875 56.08251953125 179.8758544921875 55.56813049316406 180.81414794921875 55.335845947265625 183.008056640625 54.62901306152344 183.7138671875 54.25054168701172 184.3375244140625 53.977783203125 184.4385986328125 53.87157440185547 " />
        <polyline stroke="black" stroke-width="3" stroke-linecap="round" fill="transparent" stroke-linejoin="round" points="125.68600463867188 46.36994934082031 120.14413452148438 57.171112060546875 114.60226440429688 67.97227478027344 100.89764404296876 92.88848876953124 93.33993530273438 107.1414031982422 80.99618530273438 132.28411865234375 69.63827514648438 157.80294799804688 64.62118530273438 166.0462646484375 63.22821044921875 168.1999969482422 63.08892822265625 168.41537475585938 " />
        <polyline stroke="black" stroke-width="3" stroke-linecap="round" fill="transparent" stroke-linejoin="round" points="134.42803955078125 85.77368164062503 144.71737670898438 90.33503723144533 155.0067138671875 94.89639282226563 175.19158935546875 104.82177734375 187.86712646484375 113.55039978027344 190.79193115234375 116.9656219482422 193.2486572265625 121.3584442138672 193.35552978515625 122.05838012695313 195.6295166015625 127.24893188476563 195.697998046875 129.90386962890625 195.40594482421875 130.45651245117188 " />
        <polyline stroke="black" stroke-width="3" stroke-linecap="round" fill="transparent" stroke-linejoin="round" points="89.5430908203125 127.69508361816406 97.632080078125 150.2911376953125 105.7210693359375 172.88719177246094 109.75936889648438 190.3270568847656 110.306396484375 195.74945068359375 109.84344482421876 199.49752807617188 108.67401123046876 202.95159912109375 108.65426635742188 203.00991821289065 " />
        <polyline stroke="black" stroke-width="3" stroke-linecap="round" fill="transparent" stroke-linejoin="round" points="123.74627685546875 124.99276733398438 129.835205078125 124.35728454589844 135.92413330078125 123.7218017578125 142.56817626953125 123.50376892089844 146.866943359375 123.55339050292967 154.111572265625 123.74691772460938 160.2064208984375 124.25228881835938 162.75048828125 124.82603454589844 164.982666015625 126.13833618164063 165.70867919921875 127.35629272460938 169.1805419921875 138.69895935058594 169.66656494140625 156.8258514404297 168.94842529296875 165.68063354492188 164.12615966796875 186.4354248046875 161.77117919921875 193.49847412109375 161.4315185546875 192.30670166015625 " />
        <polyline stroke="black" stroke-width="3" stroke-linecap="round" fill="transparent" stroke-linejoin="round" points="70.6116943359375 205.53219604492196 86.833740234375 203.25503540039065 103.0557861328125 200.97787475585935 111.6226806640625 200.01751708984375 129.77203369140625 199.83837890625 140.11688232421875 200.1854248046875 161.86981201171875 201.7708740234375 181.50445556640625 204.32086181640625 188.87921142578125 206.07696533203125 194.59814453125 208.2169189453125 196.51904296875 208.5780029296875 208.95281982421875 209.1117248535156 216.6861572265625 208.91357421875 217.2789306640625 208.89840698242188 217.4097900390625 208.89508056640625 " />
        </svg>