<?xml version="1.0" standalone="no"?>
    <svg width="256" height="256" xmlns="http://www.w3.org/2000/svg" version="1.1">
    <polyline stroke="black" stroke-width="3" stroke-linecap="round" fill="transparent" stroke-linejoin="round" points="37.22296142578125 124.77511596679688 46.778564453125 120.52816772460938 56.33416748046875 116.28121948242188 67.65936279296875 110.97251892089844 93.14105224609376 99.29344177246094 121.80792236328124 87.26042175292969 150.120849609375 76.28915405273438 172.06341552734375 65.67178344726563 178.78778076171875 60.36309814453125 178.78778076171875 60.36309814453125 " />
        <polyline stroke="black" stroke-width="3" stroke-linecap="round" fill="transparent" stroke-linejoin="round" points="127.470458984375 44.43707275390625 110.1287841796875 70.62655639648438 92.787109375 96.8160400390625 78.27670288085938 120.88206481933594 68.01327514648438 137.86984252929688 63.41241455078125 147.4254608154297 62.70458984375 150.2567596435547 62.70458984375 150.2567596435547 " />
        <polyline stroke="black" stroke-width="3" stroke-linecap="round" fill="transparent" stroke-linejoin="round" points="109.77490234375 105.30995178222655 129.59396362304688 109.20297241210938 149.41302490234375 113.0959930419922 157.90692138671875 115.21946716308594 180.203369140625 121.5898895263672 181.97296142578125 122.651611328125 181.97296142578125 122.651611328125 " />
        <polyline stroke="black" stroke-width="3" stroke-linecap="round" fill="transparent" stroke-linejoin="round" points="90.30972290039063 161.58193969726563 89.955810546875 166.890625 89.60189819335938 172.19931030273438 88.89410400390625 180.3392791748047 88.5401611328125 184.94015502929688 88.5401611328125 186.35580444335935 88.5401611328125 186.709716796875 88.5401611328125 186.709716796875 " />
        <polyline stroke="black" stroke-width="3" stroke-linecap="round" fill="transparent" stroke-linejoin="round" points="108.713134765625 167.59848022460938 122.51571655273438 163.70542907714844 136.31829833984375 159.8123779296875 147.64349365234375 157.3350067138672 155.4295654296875 156.9810791015625 160.0303955078125 157.68890380859375 162.1539306640625 159.8123779296875 160.38427734375 168.66018676757813 147.28955078125 188.1253662109375 147.28955078125 188.1253662109375 " />
        <polyline stroke="black" stroke-width="3" stroke-linecap="round" fill="transparent" stroke-linejoin="round" points="48.194244384765625 203.3436279296875 60.22723388671875 201.57403564453125 72.26022338867188 199.804443359375 86.77059936523438 197.68096923828125 116.49920654296876 193.43402099609375 155.4295654296875 189.8948974609375 178.0799560546875 188.479248046875 196.8372802734375 188.479248046875 204.623291015625 188.479248046875 220.5494384765625 188.479248046875 223.38067626953125 189.18707275390625 223.38067626953125 189.18707275390625 " />
        </svg>