<?xml version="1.0" standalone="no"?>
    <svg width="256" height="256" xmlns="http://www.w3.org/2000/svg" version="1.1">
    <polyline stroke="black" stroke-width="3" stroke-linecap="round" fill="transparent" stroke-linejoin="round" points="64.284423828125 93.19168090820313 70.468017578125 90.98324584960938 84.160400390625 86.56634521484375 90.78573608398438 83.91621398925781 103.15301513671876 78.61593627929688 112.428466796875 73.75736999511719 118.17047119140624 70.22384643554688 119.93719482421876 68.01541137695313 119.93719482421876 68.01541137695313 " />
        <polyline stroke="black" stroke-width="3" stroke-linecap="round" fill="transparent" stroke-linejoin="round" points="53.2421875 135.59381103515625 71.35140991210938 129.85186767578125 95.644287109375 122.78483581542967 101.82797241210938 121.01809692382813 112.428466796875 117.04289245605467 115.52032470703124 115.7178192138672 115.52032470703124 115.7178192138672 " />
        <polyline stroke="black" stroke-width="3" stroke-linecap="round" fill="transparent" stroke-linejoin="round" points="75.768310546875 130.7352294921875 73.1181640625 140.8940887451172 70.468017578125 151.05294799804688 67.81793212890625 171.37063598632813 67.376220703125 179.76272583007813 67.81793212890625 192.1300048828125 69.58468627929688 199.197021484375 70.468017578125 201.40548706054688 70.468017578125 201.40548706054688 " />
        <polyline stroke="black" stroke-width="3" stroke-linecap="round" fill="transparent" stroke-linejoin="round" points="136.27972412109375 53.439666748046875 131.86279296875 61.831756591796875 126.56256103515624 71.54891967773438 115.07861328125 88.77479553222656 98.29443359375 110.85923767089844 91.2274169921875 118.80963134765624 89.01898193359375 120.576416015625 86.810546875 119.69302368164063 89.460693359375 113.95108032226563 96.52767944335938 105.11727905273438 108.0115966796875 95.84181213378906 115.07861328125 91.86660766601563 134.512939453125 83.0328369140625 148.205322265625 77.29087829589844 154.8306884765625 74.6407470703125 167.6396484375 69.78216552734375 179.12353515625 66.2486572265625 187.515625 63.156829833984375 191.0491943359375 61.831756591796875 191.0491943359375 61.831756591796875 " />
        <polyline stroke="black" stroke-width="3" stroke-linecap="round" fill="transparent" stroke-linejoin="round" points="140.2548828125 116.15951538085938 137.1630859375 122.3431396484375 130.97943115234375 136.4772186279297 126.120849609375 154.14476013183594 125.67916870117188 160.3284149169922 127.00424194335938 163.42022705078125 131.86279296875 165.628662109375 142.02166748046875 166.0703582763672 154.388916015625 162.97854614257813 167.19793701171875 155.91152954101563 179.565185546875 143.98590087890625 185.30718994140625 136.91888427734375 185.30718994140625 136.91888427734375 " />
        <polyline stroke="black" stroke-width="3" stroke-linecap="round" fill="transparent" stroke-linejoin="round" points="198.11614990234375 117.04289245605467 196.349365234375 123.668212890625 191.4908447265625 142.66085815429688 188.8406982421875 151.49462890625 186.1905517578125 156.79489135742188 186.1905517578125 156.79489135742188 " />
        <polyline stroke="black" stroke-width="3" stroke-linecap="round" fill="transparent" stroke-linejoin="round" points="178.681884765625 100.25871276855467 176.473388671875 109.9758758544922 173.8232421875 120.576416015625 165.8729248046875 145.31097412109375 155.71405029296875 174.4624481201172 145.11346435546875 204.05560302734375 138.92987060546875 219.9564208984375 133.62957763671875 233.64877319335935 133.62957763671875 233.64877319335935 " />
        </svg>