<?xml version="1.0" standalone="no"?>
    <svg width="256" height="256" xmlns="http://www.w3.org/2000/svg" version="1.1">
    <polyline stroke="black" stroke-width="3" stroke-linecap="round" fill="transparent" stroke-linejoin="round" points="59.09332275390625 99.08000183105467 70.47152709960938 94.60995483398438 76.973388671875 92.578125 98.51080322265624 86.48265075683594 106.23175048828124 84.45083618164063 119.23544311523438 81.19989013671875 119.23544311523438 81.19989013671875 " />
        <polyline stroke="black" stroke-width="3" stroke-linecap="round" fill="transparent" stroke-linejoin="round" points="57.87420654296875 165.31761169433594 67.22064208984375 158.81576538085938 72.09701538085938 155.97119140625 82.66253662109375 151.09481811523438 93.63436889648438 147.03115844726563 106.23175048828124 140.93565368652344 106.23175048828124 140.93565368652344 " />
        <polyline stroke="black" stroke-width="3" stroke-linecap="round" fill="transparent" stroke-linejoin="round" points="75.347900390625 124.6810302734375 74.94158935546875 138.49746704101563 74.53521728515625 153.93936157226563 74.53521728515625 181.9786071777344 76.973388671875 210.017822265625 79.00521850585938 219.7706298828125 80.63070678710938 224.24066162109375 83.881591796875 224.24066162109375 83.881591796875 224.24066162109375 " />
        <polyline stroke="black" stroke-width="3" stroke-linecap="round" fill="transparent" stroke-linejoin="round" points="145.24285888671875 60.475250244140625 141.99191284179688 67.38345336914063 138.33465576171875 75.10440063476563 129.80096435546875 93.7972412109375 120.86093139648438 111.67733764648438 114.35906982421876 127.11923217773438 111.10812377929688 133.2147216796875 111.51449584960938 132.4019775390625 116.390869140625 127.52560424804688 128.98822021484375 116.9600830078125 144.83648681640625 106.3945770263672 161.90380859375 97.86090087890624 179.3775634765625 90.54632568359376 189.94305419921875 86.07627868652344 189.94305419921875 86.07627868652344 " />
        <polyline stroke="black" stroke-width="3" stroke-linecap="round" fill="transparent" stroke-linejoin="round" points="125.7373046875 142.15475463867188 124.924560546875 147.03115844726563 124.5181884765625 152.31390380859375 125.7373046875 164.50486755371094 126.95639038085938 167.34942626953125 130.61370849609375 171.0067138671875 139.5537109375 172.22581481933594 151.7447509765625 168.9748992919922 164.342041015625 162.47305297851563 181.0030517578125 149.87570190429688 185.066650390625 145.8120574951172 191.56854248046875 137.6847381591797 198.0704345703125 123.05557250976563 198.47674560546875 118.58555603027344 197.66400146484375 115.33462524414063 196.851318359375 114.52188110351563 196.03857421875 115.33462524414063 193.600341796875 127.93194580078124 192.78759765625 140.93565368652344 191.97491455078125 147.4375 189.94305419921875 156.78392028808594 189.94305419921875 156.78392028808594 " />
        <polyline stroke="black" stroke-width="3" stroke-linecap="round" fill="transparent" stroke-linejoin="round" points="173.2821044921875 109.23912048339844 172.06298828125 121.02374267578124 170.03118896484375 134.43382263183594 165.15478515625 165.31761169433594 159.4656982421875 193.76321411132813 150.93197631835938 224.24066162109375 146.8682861328125 237.65069580078125 146.8682861328125 237.65069580078125 " />
        </svg>