<?xml version="1.0" standalone="no"?>
    <svg width="256" height="256" xmlns="http://www.w3.org/2000/svg" version="1.1">
    <polyline stroke="black" stroke-width="3" stroke-linecap="round" fill="transparent" stroke-linejoin="round" points="82.360107421875 81.39845275878906 89.96664428710938 77.59518432617188 96.72802734375 75.05966186523438 108.1378173828125 70.41122436523438 117.43466186523438 67.45314025878906 120.81536865234376 66.60797119140625 126.3089599609375 64.49504089355469 127.15414428710938 64.49504089355469 127.15414428710938 64.49504089355469 " />
        <polyline stroke="black" stroke-width="3" stroke-linecap="round" fill="transparent" stroke-linejoin="round" points="57.85015869140625 144.78623962402344 64.61151123046875 140.1378173828125 71.79550170898438 135.48936462402344 86.5859375 127.03765869140624 97.15057373046876 121.12149047851563 100.53125 118.1633758544922 105.602294921875 113.9375 105.602294921875 113.9375 " />
        <polyline stroke="black" stroke-width="3" stroke-linecap="round" fill="transparent" stroke-linejoin="round" points="77.2890625 109.711669921875 76.44393920898438 120.69888305664063 75.59872436523438 132.53128051757813 75.17620849609375 144.3636474609375 75.59872436523438 166.7606658935547 76.02133178710938 174.789794921875 78.13424682617188 188.735107421875 80.24716186523438 195.9190673828125 80.24716186523438 195.9190673828125 " />
        <polyline stroke="black" stroke-width="3" stroke-linecap="round" fill="transparent" stroke-linejoin="round" points="141.52206420898438 71.25640869140625 130.53485107421875 91.96310424804688 124.61862182617188 103.37289428710938 114.4765625 121.54405212402344 107.7152099609375 134.64419555664063 104.33456420898438 140.56039428710938 104.33456420898438 140.56039428710938 " />
        <polyline stroke="black" stroke-width="3" stroke-linecap="round" fill="transparent" stroke-linejoin="round" points="147.86080932617188 95.34376525878906 152.50927734375 94.07600402832033 157.15771484375 92.80825805664063 166.87713623046875 90.69534301757813 177.4417724609375 88.5823974609375 196.0355224609375 84.77912902832031 196.0355224609375 84.77912902832031 " />
        <polyline stroke="black" stroke-width="3" stroke-linecap="round" fill="transparent" stroke-linejoin="round" points="141.52206420898438 133.37643432617188 138.141357421875 145.63140869140625 136.02841186523438 162.1122283935547 137.29620361328125 168.02842712402344 140.67684936523438 170.98651123046875 148.28338623046875 172.2542724609375 158.8480224609375 170.56393432617188 168.9901123046875 166.7606658935547 175.75146484375 162.1122283935547 175.75146484375 162.1122283935547 " />
        <polyline stroke="black" stroke-width="3" stroke-linecap="round" fill="transparent" stroke-linejoin="round" points="200.6839599609375 122.8118133544922 199.83880615234375 128.30540466308594 198.99365234375 133.37643432617188 197.3033447265625 143.5184783935547 195.61297607421875 151.54759216308594 193.5 157.04119873046875 193.5 157.04119873046875 " />
        <polyline stroke="black" stroke-width="3" stroke-linecap="round" fill="transparent" stroke-linejoin="round" points="173.6385498046875 129.5731658935547 171.10302734375 137.602294921875 168.5675048828125 146.89915466308594 164.3416748046875 165.91549682617188 160.1158447265625 185.35443115234375 152.50927734375 214.5128173828125 148.70599365234375 227.61294555664065 148.70599365234375 227.61294555664065 " />
        </svg>