<?xml version="1.0" standalone="no"?>
    <svg width="256" height="256" xmlns="http://www.w3.org/2000/svg" version="1.1">
    <polyline stroke="black" stroke-width="3" stroke-linecap="round" fill="transparent" stroke-linejoin="round" points="39 90 47 86 67 76 79 72 100 67 120 64 132 64 132 64 " />
        <polyline stroke="black" stroke-width="3" stroke-linecap="round" fill="transparent" stroke-linejoin="round" points="44 170 59 162 78 152 98 141 116 131 127 124 127 124 " />
        <polyline stroke="black" stroke-width="3" stroke-linecap="round" fill="transparent" stroke-linejoin="round" points="83 90 83 110 83 139 83 168 83 179 83 197 84 206 86 208 86 208 " />
        <polyline stroke="black" stroke-width="3" stroke-linecap="round" fill="transparent" stroke-linejoin="round" points="146 66 131 96 127 109 122 124 122 124 " />
        <polyline stroke="black" stroke-width="3" stroke-linecap="round" fill="transparent" stroke-linejoin="round" points="161 80 176 80 189 77 201 76 212 76 216 76 216 76 " />
        <polyline stroke="black" stroke-width="3" stroke-linecap="round" fill="transparent" stroke-linejoin="round" points="123 152 123 156 126 163 128 164 135 165 146 165 158 164 172 158 186 152 202 146 210 140 210 140 " />
        <polyline stroke="black" stroke-width="3" stroke-linecap="round" fill="transparent" stroke-linejoin="round" points="216 123 216 131 216 140 217 145 217 145 " />
        <polyline stroke="black" stroke-width="3" stroke-linecap="round" fill="transparent" stroke-linejoin="round" points="177 117 177 139 175 169 168 197 160 223 147 249 147 249 " />
        </svg>