<?xml version="1.0" standalone="no"?>
    <svg width="256" height="256" xmlns="http://www.w3.org/2000/svg" version="1.1">
    <polyline stroke="black" stroke-width="3" stroke-linecap="round" fill="transparent" stroke-linejoin="round" points="67.15191650390625 81.64775085449219 94.60498046875 69.88217163085938 98.52679443359376 69.22853088378906 140.3599853515625 60.0775146484375 175.00311279296875 52.88744354248047 177.61761474609375 52.88744354248047 182.193115234375 54.848365783691406 182.193115234375 56.155670166015625 182.193115234375 56.155670166015625 " />
        <polyline stroke="black" stroke-width="3" stroke-linecap="round" fill="transparent" stroke-linejoin="round" points="90.0294189453125 92.75968933105467 78.26385498046875 113.67626953125 78.26385498046875 116.29086303710938 80.87841796875 139.1683807373047 80.87841796875 141.12930297851563 82.83935546875 148.31936645507813 83.49298095703125 149.6266632080078 86.10760498046875 143.0902099609375 86.10760498046875 143.0902099609375 " />
        <polyline stroke="black" stroke-width="3" stroke-linecap="round" fill="transparent" stroke-linejoin="round" points="82.18572998046875 125.4418487548828 95.9122314453125 111.06169128417967 111.59967041015624 104.52525329589844 122.0579833984375 101.25704956054688 133.16986083984375 97.98883056640624 150.81829833984375 96.02789306640624 161.93017578125 96.02789306640624 170.42755126953125 100.60340881347656 172.38848876953125 108.44712829589844 169.12030029296875 126.74913024902344 161.93017578125 139.1683807373047 152.77923583984375 145.70481872558594 145.589111328125 143.74388122558594 145.589111328125 143.74388122558594 " />
        <polyline stroke="black" stroke-width="3" stroke-linecap="round" fill="transparent" stroke-linejoin="round" points="110.29241943359376 107.13983154296876 111.59967041015624 124.7882080078125 112.2532958984375 126.0955047607422 118.78973388671876 135.900146484375 120.0970458984375 135.900146484375 126.63348388671876 131.3246307373047 128.59442138671875 129.36373901367188 128.59442138671875 129.36373901367188 " />
        <polyline stroke="black" stroke-width="3" stroke-linecap="round" fill="transparent" stroke-linejoin="round" points="135.78448486328125 113.67626953125 127.94073486328124 138.5147247314453 125.326171875 142.4365997314453 111.59967041015624 156.1630859375 111.59967041015624 156.1630859375 " />
        <polyline stroke="black" stroke-width="3" stroke-linecap="round" fill="transparent" stroke-linejoin="round" points="99.180419921875 159.43130493164063 124.67254638671876 150.93394470214844 128.59442138671875 150.93394470214844 157.35467529296875 157.47036743164063 162.5838623046875 160.08494567871094 175.65667724609375 169.8896026611328 175.65667724609375 169.8896026611328 " />
        </svg>