<?xml version="1.0" standalone="no"?>
    <svg width="256" height="256" xmlns="http://www.w3.org/2000/svg" version="1.1">
    <polyline stroke="black" stroke-width="3" stroke-linecap="round" fill="transparent" stroke-linejoin="round" points="20 134 38 129 55 123 73 117 91 111 105 106 112 104 112 104 " />
        <polyline stroke="black" stroke-width="3" stroke-linecap="round" fill="transparent" stroke-linejoin="round" points="89 73 78 103 71 130 62 161 52 191 47 214 43 228 42 230 42 230 " />
        <polyline stroke="black" stroke-width="3" stroke-linecap="round" fill="transparent" stroke-linejoin="round" points="58 166 69 171 80 179 95 190 110 196 110 196 " />
        <polyline stroke="black" stroke-width="3" stroke-linecap="round" fill="transparent" stroke-linejoin="round" points="121 58 116 77 116 93 116 112 116 124 117 125 117 125 " />
        <polyline stroke="black" stroke-width="3" stroke-linecap="round" fill="transparent" stroke-linejoin="round" points="113 74 126 63 151 56 174 52 196 51 209 51 213 52 214 58 210 74 194 95 187 107 187 107 " />
        <polyline stroke="black" stroke-width="3" stroke-linecap="round" fill="transparent" stroke-linejoin="round" points="142 111 145 115 145 121 145 139 144 161 139 184 133 203 127 217 125 222 125 222 " />
        <polyline stroke="black" stroke-width="3" stroke-linecap="round" fill="transparent" stroke-linejoin="round" points="93 177 106 170 117 166 139 157 163 150 183 145 201 143 212 142 219 141 219 141 " />
        <polyline stroke="black" stroke-width="3" stroke-linecap="round" fill="transparent" stroke-linejoin="round" points="184 88 183 104 183 112 183 132 183 159 183 183 183 203 183 219 183 230 183 230 " />
        </svg>