<?xml version="1.0" standalone="no"?>
    <svg width="256" height="256" xmlns="http://www.w3.org/2000/svg" version="1.1">
    <polyline stroke="black" stroke-width="3" stroke-linecap="round" fill="transparent" stroke-linejoin="round" points="78.05706787109375 81.72784423828125 88.16156005859375 78.16156005859375 101.83233642578124 74.00088500976563 117.880615234375 69.84022521972656 133.33453369140625 66.86831665039063 146.410888671875 63.89640808105469 158.29852294921875 59.735748291015625 165.43109130859375 55.5750732421875 170.780517578125 49.036888122558594 170.780517578125 49.036888122558594 " />
        <polyline stroke="black" stroke-width="3" stroke-linecap="round" fill="transparent" stroke-linejoin="round" points="126.79632568359376 41.90431213378906 120.25811767578124 58.54698181152344 111.3424072265625 81.72784423828125 103.615478515625 99.5592803955078 95.88851928710938 116.79632568359376 89.9447021484375 130.46710205078125 84.59527587890625 141.16595458984375 80.43460083007813 147.7041473388672 78.05706787109375 151.8648223876953 78.05706787109375 151.8648223876953 " />
        <polyline stroke="black" stroke-width="3" stroke-linecap="round" fill="transparent" stroke-linejoin="round" points="125.01318359375 103.71994018554688 138.08956909179688 109.66375732421876 153.54345703125 119.17385864257813 171.3748779296875 131.0614776611328 188.6119384765625 142.9490966796875 205.254638671875 153.05357360839844 220.1141357421875 160.78053283691406 233.784912109375 163.15805053710938 233.784912109375 163.15805053710938 " />
        <polyline stroke="black" stroke-width="3" stroke-linecap="round" fill="transparent" stroke-linejoin="round" points="214.7647705078125 71.62336730957031 204.06591796875 79.35032653808594 191.5838623046875 89.45480346679688 179.10186767578125 99.5592803955078 167.80859375 107.880615234375 167.80859375 107.880615234375 " />
        <polyline stroke="black" stroke-width="3" stroke-linecap="round" fill="transparent" stroke-linejoin="round" points="170.780517578125 81.72784423828125 182.66815185546875 85.88851928710938 197.5277099609375 93.02108764648438 211.7928466796875 101.34242248535156 223.0860595703125 109.66375732421876 232.00177001953125 121.55137634277344 232.00177001953125 121.55137634277344 " />
        <polyline stroke="black" stroke-width="3" stroke-linecap="round" fill="transparent" stroke-linejoin="round" points="85.7840576171875 182.17825317382813 96.48291015625 175.04568481445313 112.53118896484376 167.3187255859375 130.36260986328125 160.78053283691406 151.16595458984375 154.24234008789063 171.3748779296875 146.515380859375 185.045654296875 141.16595458984375 185.045654296875 141.16595458984375 " />
        <polyline stroke="black" stroke-width="3" stroke-linecap="round" fill="transparent" stroke-linejoin="round" points="123.82443237304688 150.67605590820313 119.66375732421876 163.15805053710938 117.2862548828125 178.61196899414063 116.69183349609376 192.87710571289065 118.4749755859375 205.35910034179688 123.23004150390624 211.89730834960935 130.95700073242188 216.0579833984375 143.43899536132813 217.24673461914065 155.32666015625 214.27484130859375 169.591796875 206.54788208007813 169.591796875 206.54788208007813 " />
        <polyline stroke="black" stroke-width="3" stroke-linecap="round" fill="transparent" stroke-linejoin="round" points="171.3748779296875 149.48728942871094 171.3748779296875 157.80862426757813 173.1580810546875 173.26254272460938 173.75244140625 201.19845581054688 173.75244140625 221.40740966796875 173.75244140625 221.40740966796875 " />
        </svg>