<?xml version="1.0" standalone="no"?>
    <svg width="256" height="256" xmlns="http://www.w3.org/2000/svg" version="1.1">
    <polyline stroke="black" stroke-width="3" stroke-linecap="round" fill="transparent" stroke-linejoin="round" points="49 86 64 81 91 72 110 67 125 62 136 59 136 59 " />
        <polyline stroke="black" stroke-width="3" stroke-linecap="round" fill="transparent" stroke-linejoin="round" points="117 62 106 79 92 100 76 119 63 136 54 147 48 155 45 157 45 157 " />
        <polyline stroke="black" stroke-width="3" stroke-linecap="round" fill="transparent" stroke-linejoin="round" points="117 102 127 108 143 115 161 121 180 126 198 128 211 130 211 130 " />
        <polyline stroke="black" stroke-width="3" stroke-linecap="round" fill="transparent" stroke-linejoin="round" points="195 75 188 83 180 91 167 103 162 107 151 114 151 114 " />
        <polyline stroke="black" stroke-width="3" stroke-linecap="round" fill="transparent" stroke-linejoin="round" points="168 81 177 87 187 93 200 100 209 107 209 107 " />
        <polyline stroke="black" stroke-width="3" stroke-linecap="round" fill="transparent" stroke-linejoin="round" points="104 150 104 156 104 166 104 177 104 189 104 195 104 205 104 210 104 211 106 211 106 211 " />
        <polyline stroke="black" stroke-width="3" stroke-linecap="round" fill="transparent" stroke-linejoin="round" points="160 138 160 143 160 155 160 170 159 185 157 196 156 201 156 201 " />
        <polyline stroke="black" stroke-width="3" stroke-linecap="round" fill="transparent" stroke-linejoin="round" points="94 173 100 172 127 170 145 169 155 169 168 169 176 169 177 169 177 169 " />
        <polyline stroke="black" stroke-width="3" stroke-linecap="round" fill="transparent" stroke-linejoin="round" points="111 207 123 207 138 205 154 205 167 205 167 205 " />
        </svg>