<?xml version="1.0" standalone="no"?>
    <svg width="256" height="256" xmlns="http://www.w3.org/2000/svg" version="1.1">
    <polyline stroke="black" stroke-width="3" stroke-linecap="round" fill="transparent" stroke-linejoin="round" points="73 61 79 61 96 56 106 53 124 49 139 45 151 43 154 43 154 43 " />
        <polyline stroke="black" stroke-width="3" stroke-linecap="round" fill="transparent" stroke-linejoin="round" points="118 43 118 47 117 52 108 67 95 85 79 102 65 114 54 123 49 126 49 126 " />
        <polyline stroke="black" stroke-width="3" stroke-linecap="round" fill="transparent" stroke-linejoin="round" points="118 92 129 98 145 104 163 110 172 113 190 115 197 117 197 117 " />
        <polyline stroke="black" stroke-width="3" stroke-linecap="round" fill="transparent" stroke-linejoin="round" points="181 66 176 70 165 78 154 85 148 90 138 96 129 98 129 98 " />
        <polyline stroke="black" stroke-width="3" stroke-linecap="round" fill="transparent" stroke-linejoin="round" points="168 73 173 77 186 86 205 98 205 98 " />
        <polyline stroke="black" stroke-width="3" stroke-linecap="round" fill="transparent" stroke-linejoin="round" points="93 140 93 144 93 157 91 172 91 184 91 190 91 200 94 205 96 206 96 206 " />
        <polyline stroke="black" stroke-width="3" stroke-linecap="round" fill="transparent" stroke-linejoin="round" points="151 136 151 149 151 156 151 168 151 175 151 188 151 199 151 203 151 203 " />
        <polyline stroke="black" stroke-width="3" stroke-linecap="round" fill="transparent" stroke-linejoin="round" points="63 167 81 166 104 163 127 160 151 158 169 155 183 154 190 154 190 154 " />
        <polyline stroke="black" stroke-width="3" stroke-linecap="round" fill="transparent" stroke-linejoin="round" points="104 199 115 199 134 199 152 197 152 197 " />
        </svg>