<?xml version="1.0" standalone="no"?>
    <svg width="256" height="256" xmlns="http://www.w3.org/2000/svg" version="1.1">
    <polyline stroke="black" stroke-width="3" stroke-linecap="round" fill="transparent" stroke-linejoin="round" points="77.14947509765625 62.50128173828125 72.86468505859375 81.47679138183594 71.64044189453125 90.6584930419922 71.64044189453125 97.39173889160156 72.86468505859375 102.28865051269533 77.7615966796875 104.12498474121094 86.3311767578125 102.9007568359375 99.79766845703124 97.39173889160156 115.71261596679688 89.43426513671875 128.5670166015625 80.86468505859375 140.1971435546875 73.51931762695313 152.439453125 64.94973754882813 152.439453125 64.94973754882813 " />
        <polyline stroke="black" stroke-width="3" stroke-linecap="round" fill="transparent" stroke-linejoin="round" points="157.94842529296875 43.52576446533203 159.17266845703125 54.54380798339844 157.94842529296875 61.27705383300781 155.5 67.39817810058594 152.439453125 71.6829833984375 149.37884521484375 71.6829833984375 147.54251098632813 66.17396545410156 143.86981201171875 52.70746612548828 142.03350830078125 41.07730865478515 142.03350830078125 35.56829071044922 142.03350830078125 32.507720947265625 140.80926513671875 32.507720947265625 140.1971435546875 36.792518615722656 137.74868774414063 45.974220275878906 132.851806640625 64.94973754882813 126.1185302734375 85.14947509765625 118.16107177734376 105.34921264648438 108.36724853515624 124.93684387207033 94.28863525390624 146.36080932617188 86.3311767578125 156.1546173095703 78.37371826171875 165.9484405517578 72.86468505859375 171.45745849609375 69.1920166015625 173.90591430664063 69.1920166015625 173.90591430664063 " />
        <polyline stroke="black" stroke-width="3" stroke-linecap="round" fill="transparent" stroke-linejoin="round" points="64.9072265625 134.73065185546875 78.37371826171875 134.73065185546875 91.22808837890624 135.3427734375 105.9188232421875 135.3427734375 121.22161865234376 135.3427734375 135.912353515625 135.9548797607422 145.09405517578125 137.17910766601563 150.60308837890625 139.6275634765625 150.60308837890625 139.6275634765625 " />
        <polyline stroke="black" stroke-width="3" stroke-linecap="round" fill="transparent" stroke-linejoin="round" points="74.70101928710938 182.4754943847656 83.88272094726563 178.8028106689453 96.125 175.13014221191406 111.42782592773438 170.8453369140625 124.89431762695313 167.17266845703125 136.52447509765625 164.72421264648438 144.48193359375 164.72421264648438 148.15460205078125 166.560546875 148.15460205078125 166.560546875 " />
        <polyline stroke="black" stroke-width="3" stroke-linecap="round" fill="transparent" stroke-linejoin="round" points="53.27703857421875 208.18426513671875 67.35565185546875 203.287353515625 79.59793090820313 199.0025634765625 96.125 194.10565185546875 116.32470703125 189.82086181640625 134.6881103515625 187.98452758789065 152.439453125 188.59661865234375 166.51800537109375 189.82086181640625 173.25128173828125 192.88140869140625 173.25128173828125 192.88140869140625 " />
        </svg>