<?xml version="1.0" standalone="no"?>
    <svg width="256" height="256" xmlns="http://www.w3.org/2000/svg" version="1.1">
    <polyline stroke="black" stroke-width="3" stroke-linecap="round" fill="transparent" stroke-linejoin="round" points="86 48 95 58 97 66 98 76 98 85 98 89 98 91 99 91 100 91 105 91 114 91 126 91 140 91 157 89 172 86 178 84 178 84 " />
        <polyline stroke="black" stroke-width="3" stroke-linecap="round" fill="transparent" stroke-linejoin="round" points="201 42 201 60 199 71 195 79 195 79 " />
        <polyline stroke="black" stroke-width="3" stroke-linecap="round" fill="transparent" stroke-linejoin="round" points="154 31 161 71 157 99 144 131 124 161 102 181 81 190 81 190 " />
        <polyline stroke="black" stroke-width="3" stroke-linecap="round" fill="transparent" stroke-linejoin="round" points="122 117 128 121 134 121 149 126 168 133 187 139 204 145 215 151 215 151 " />
        <polyline stroke="black" stroke-width="3" stroke-linecap="round" fill="transparent" stroke-linejoin="round" points="124 164 133 164 146 164 164 164 181 164 195 167 197 169 197 169 " />
        <polyline stroke="black" stroke-width="3" stroke-linecap="round" fill="transparent" stroke-linejoin="round" points="102 221 101 220 116 220 136 220 157 219 180 217 207 217 207 217 " />
        </svg>