<?xml version="1.0" standalone="no"?>
    <svg width="256" height="256" xmlns="http://www.w3.org/2000/svg" version="1.1">
    <polyline stroke="black" stroke-width="3" stroke-linecap="round" fill="transparent" stroke-linejoin="round" points="59 75 60 74 64 74 70 73 87 69 99 66 117 62 135 60 150 58 159 58 159 58 " />
        <polyline stroke="black" stroke-width="3" stroke-linecap="round" fill="transparent" stroke-linejoin="round" points="76 107 76 114 76 123 78 130 80 136 81 140 81 141 82 141 83 141 90 139 101 134 115 129 128 126 142 124 155 123 165 121 165 121 " />
        <polyline stroke="black" stroke-width="3" stroke-linecap="round" fill="transparent" stroke-linejoin="round" points="174 93 175 97 175 103 175 113 175 118 175 118 " />
        <polyline stroke="black" stroke-width="3" stroke-linecap="round" fill="transparent" stroke-linejoin="round" points="127 81 133 87 133 92 134 121 130 147 124 162 108 191 90 215 90 215 " />
        </svg>