<?xml version="1.0" standalone="no"?>
    <svg width="256" height="256" xmlns="http://www.w3.org/2000/svg" version="1.1">
    <polyline stroke="black" stroke-width="3" stroke-linecap="round" fill="transparent" stroke-linejoin="round" points="48.81512451171875 98.64529418945313 73.57196044921875 92.01400756835938 85.95037841796875 89.36148071289063 128.83270263671875 81.4039306640625 159.77874755859375 77.4251708984375 188.072265625 74.77264404296875 207.5240478515625 74.33056640625 216.807861328125 74.77264404296875 219.46038818359375 75.65681457519531 219.46038818359375 76.54098510742188 219.46038818359375 76.54098510742188 " />
        <polyline stroke="black" stroke-width="3" stroke-linecap="round" fill="transparent" stroke-linejoin="round" points="66.94064331054688 155.67442321777344 91.25537109375 155.2323455810547 116.8963623046875 153.90609741210938 144.747802734375 150.369384765625 158.4525146484375 148.15896606445313 178.7884521484375 143.2960205078125 189.3985595703125 139.31724548339844 192.4931640625 137.99099731445313 192.4931640625 137.99099731445313 " />
        <polyline stroke="black" stroke-width="3" stroke-linecap="round" fill="transparent" stroke-linejoin="round" points="117.780517578125 114.11833190917967 109.822998046875 126.05467224121094 106.7283935546875 131.8017578125 101.86544799804688 144.62228393554688 98.32879638671876 159.6531982421875 97.88665771484376 166.72659301757813 101.42333984375 183.0837860107422 107.17050170898438 188.83090209960935 116.8963623046875 193.69384765625 122.64352416992188 195.0201110839844 142.97946166992188 192.3675842285156 142.97946166992188 192.3675842285156 " />
        <polyline stroke="black" stroke-width="3" stroke-linecap="round" fill="transparent" stroke-linejoin="round" points="152.70538330078125 115.88665771484376 154.4737548828125 131.35971069335938 155.79998779296875 139.31724548339844 157.126220703125 149.0431365966797 159.336669921875 172.91580200195313 160.2208251953125 186.6204833984375 160.2208251953125 186.6204833984375 " />
        </svg>