<?xml version="1.0" standalone="no"?>
    <svg width="256" height="256" xmlns="http://www.w3.org/2000/svg" version="1.1">
    <polyline stroke="black" stroke-width="3" stroke-linecap="round" fill="transparent" stroke-linejoin="round" points="66.89230346679688 60.50669860839844 64.68389892578125 79.05763244628906 58.05853271484375 108.2091064453125 53.64166259765625 124.9932861328125 44.366180419921875 158.5616455078125 39.94927978515625 173.13739013671875 36.415771484375 185.9463806152344 30.673828125 204.93899536132813 27.14031982421875 217.3062744140625 24.931854248046875 223.931640625 24.931854248046875 223.931640625 " />
        <polyline stroke="black" stroke-width="3" stroke-linecap="round" fill="transparent" stroke-linejoin="round" points="66.00897216796875 77.73257446289063 74.40106201171875 67.57373046875 78.376220703125 64.04020690917969 87.21002197265625 57.41487121582031 96.04379272460938 52.99797821044922 103.552490234375 52.11460876464844 108.41107177734376 55.2064208984375 113.71136474609376 69.78216552734375 115.03643798828124 96.72518920898438 112.82797241210938 124.9932861328125 110.6195068359375 146.63604736328125 110.17782592773438 162.97854614257813 111.50289916992188 177.99595642089844 115.47811889648438 189.4798889160156 122.54510498046876 198.31365966796875 134.470703125 205.8223876953125 151.2548828125 211.1226501464844 167.597412109375 211.5643310546875 183.0565185546875 209.35589599609375 196.30718994140625 205.38067626953125 206.90771484375 200.5220947265625 214.41644287109375 194.7801513671875 219.71673583984375 185.9463806152344 219.71673583984375 185.9463806152344 " />
        <polyline stroke="black" stroke-width="3" stroke-linecap="round" fill="transparent" stroke-linejoin="round" points="78.376220703125 82.59115600585938 83.67648315429688 92.75 85.88494873046875 98.05027770996094 88.53509521484375 103.35055541992188 91.62689208984376 109.09249877929688 96.92718505859376 119.2513427734375 100.460693359375 127.64341735839844 101.34405517578124 133.3853759765625 101.34405517578124 133.3853759765625 " />
        <polyline stroke="black" stroke-width="3" stroke-linecap="round" fill="transparent" stroke-linejoin="round" points="65.12557983398438 144.4276123046875 71.75091552734375 153.26138305664063 74.84271240234375 157.236572265625 77.49285888671875 161.21177673339844 84.1181640625 170.92893981933594 84.1181640625 170.92893981933594 " />
        <polyline stroke="black" stroke-width="3" stroke-linecap="round" fill="transparent" stroke-linejoin="round" points="139.32928466796875 79.05763244628906 138.4459228515625 90.099853515625 138.00424194335938 97.60856628417967 137.120849609375 105.11727905273438 136.23748779296875 113.50938415527344 134.91241455078125 132.060302734375 133.58734130859375 140.45242309570313 131.820556640625 146.19436645507813 131.37890625 147.9611053466797 131.37890625 147.9611053466797 " />
        <polyline stroke="black" stroke-width="3" stroke-linecap="round" fill="transparent" stroke-linejoin="round" points="146.39633178710938 82.14945983886719 159.64697265625 75.08242797851563 165.388916015625 72.87399291992188 171.13092041015625 71.10723876953125 183.49822998046875 69.34048461914063 194.5404052734375 70.22384643554688 203.37420654296875 74.19905090332031 210.4412841796875 83.0328369140625 216.6248779296875 97.16688537597656 218.8333740234375 113.50938415527344 214.858154296875 128.96849060058594 203.37420654296875 145.752685546875 196.7489013671875 151.9363250732422 196.7489013671875 151.9363250732422 " />
        <polyline stroke="black" stroke-width="3" stroke-linecap="round" fill="transparent" stroke-linejoin="round" points="103.11083984375 123.22654724121094 118.12823486328124 116.6011962890625 126.96200561523438 113.50938415527344 146.39633178710938 107.76742553710938 156.55517578125 105.5589599609375 176.8729248046875 102.02548217773438 194.98211669921875 100.25871276855467 202.93255615234375 100.25871276855467 218.8333740234375 99.37533569335938 221.48345947265625 99.37533569335938 224.13360595703125 98.9336395263672 224.13360595703125 98.9336395263672 " />
        <polyline stroke="black" stroke-width="3" stroke-linecap="round" fill="transparent" stroke-linejoin="round" points="183.93988037109375 73.315673828125 181.289794921875 83.91621398925781 178.6396484375 95.40013122558594 169.80584716796875 119.69302368164063 165.388916015625 127.64341735839844 160.9720458984375 133.3853759765625 156.11346435546875 137.36058044433594 149.92987060546875 140.8940887451172 147.27972412109375 142.2191619873047 141.53778076171875 144.4276123046875 140.212646484375 144.4276123046875 140.65438842773438 144.4276123046875 147.27972412109375 145.752685546875 162.297119140625 147.07774353027344 179.9647216796875 148.844482421875 194.0987548828125 151.05294799804688 201.607421875 154.14476013183594 201.607421875 154.14476013183594 " />
        </svg>