<?xml version="1.0" standalone="no"?>
    <svg width="256" height="256" xmlns="http://www.w3.org/2000/svg" version="1.1">
    <polyline stroke="black" stroke-width="3" stroke-linecap="round" fill="transparent" stroke-linejoin="round" points="55.73724365234375 83.51138305664063 57.427581787109375 100.83738708496094 58.27276611328125 111.8245849609375 58.6953125 138.44744873046875 58.27276611328125 150.27984619140625 55.73724365234375 169.71878051757813 52.356536865234375 183.66409301757813 48.130706787109375 194.22869873046875 44.75 199.72232055664065 43.059661865234375 201.41265869140625 43.059661865234375 201.41265869140625 " />
        <polyline stroke="black" stroke-width="3" stroke-linecap="round" fill="transparent" stroke-linejoin="round" points="62.076019287109375 99.5696258544922 67.14706420898438 88.15982055664063 70.5277099609375 82.66619873046875 73.48580932617188 78.44035339355469 79.40203857421875 71.25640869140625 85.74081420898438 64.91763305664063 93.34735107421876 60.269195556640625 100.53125 58.15626525878906 106.02487182617188 59.84660339355469 111.94110107421876 69.56607055664063 115.32174682617188 80.13069152832031 123.35089111328124 119.00852966308594 128.844482421875 145.20883178710938 135.6058349609375 165.07034301757813 143.21237182617188 178.17047119140625 147.438232421875 183.2415008544922 157.15771484375 190.8480224609375 171.94818115234375 196.34164428710935 179.977294921875 196.76422119140625 183.3580322265625 195.4964599609375 183.3580322265625 195.4964599609375 " />
        <polyline stroke="black" stroke-width="3" stroke-linecap="round" fill="transparent" stroke-linejoin="round" points="66.72445678710938 106.75357055664063 73.90841674804688 117.74078369140624 77.2890625 122.8118133544922 86.16339111328125 136.7571258544922 89.54403686523438 143.09588623046875 89.54403686523438 143.09588623046875 " />
        <polyline stroke="black" stroke-width="3" stroke-linecap="round" fill="transparent" stroke-linejoin="round" points="64.61151123046875 161.68963623046875 72.21807861328125 170.141357421875 75.17620849609375 173.09945678710938 78.97943115234375 175.63494873046875 92.07955932617188 179.438232421875 92.07955932617188 179.438232421875 " />
        <polyline stroke="black" stroke-width="3" stroke-linecap="round" fill="transparent" stroke-linejoin="round" points="142.3671875 70.83381652832031 144.05755615234375 85.20172119140625 144.9027099609375 91.117919921875 145.74789428710938 97.45669555664063 146.59307861328125 103.79547119140624 148.28338623046875 117.74078369140624 149.12860107421875 124.50213623046876 149.12860107421875 128.30540466308594 149.12860107421875 128.72801208496094 149.12860107421875 128.72801208496094 " />
        <polyline stroke="black" stroke-width="3" stroke-linecap="round" fill="transparent" stroke-linejoin="round" points="136.45101928710938 92.80825805664063 153.77703857421875 80.55328369140625 169.4127197265625 72.524169921875 186.7386474609375 66.18537902832031 194.76776123046875 64.07244873046875 208.713134765625 62.382110595703125 218.010009765625 63.649871826171875 223.92620849609375 67.45314025878906 228.9971923828125 76.32742309570313 231.53271484375 90.27273559570313 230.2650146484375 105.48580932617188 224.7713623046875 118.58596801757813 220.96807861328125 124.07955932617188 220.96807861328125 124.07955932617188 " />
        <polyline stroke="black" stroke-width="3" stroke-linecap="round" fill="transparent" stroke-linejoin="round" points="171.10302734375 73.36932373046875 169.83526611328125 87.31463623046875 168.5675048828125 96.18893432617188 163.4964599609375 121.12149047851563 158.00286865234375 134.2216033935547 158.00286865234375 134.2216033935547 " />
        <polyline stroke="black" stroke-width="3" stroke-linecap="round" fill="transparent" stroke-linejoin="round" points="120.39276123046876 113.5149383544922 139.40911865234375 105.48580932617188 149.5511474609375 102.5277099609375 160.53839111328125 99.5696258544922 185.47088623046875 94.92117309570313 197.3033447265625 92.80825805664063 228.15203857421875 90.27273559570313 235.758544921875 89.42756652832031 248.85870361328125 89.42756652832031 251.39422607421875 90.69534301757813 251.81683349609375 91.54049682617188 251.81683349609375 93.23085021972656 251.81683349609375 93.23085021972656 " />
        <polyline stroke="black" stroke-width="3" stroke-linecap="round" fill="transparent" stroke-linejoin="round" points="140.2542724609375 140.1378173828125 153.35443115234375 134.2216033935547 160.1158447265625 132.1086883544922 173.6385498046875 129.15057373046875 186.31610107421875 127.88284301757813 196.0355224609375 128.30540466308594 205.7550048828125 131.68609619140625 205.7550048828125 131.68609619140625 " />
        </svg>