<?xml version="1.0" standalone="no"?>
    <svg width="256" height="256" xmlns="http://www.w3.org/2000/svg" version="1.1">
    <polyline stroke="black" stroke-width="3" stroke-linecap="round" fill="transparent" stroke-linejoin="round" points="86.0751953125 50.10870361328125 82.724365234375 63.09326171875 79.37353515625 76.49665832519531 74.76611328125 93.25091552734376 64.294677734375 126.34056091308594 52.566741943359375 157.7547607421875 44.18963623046875 176.60330200195313 39.163330078125 187.07470703125 36.2313232421875 190.84442138671875 35.812469482421875 190.84442138671875 35.812469482421875 190.84442138671875 " />
        <polyline stroke="black" stroke-width="3" stroke-linecap="round" fill="transparent" stroke-linejoin="round" points="60.94384765625 78.5909423828125 72.67184448242188 73.14581298828125 81.46783447265625 69.3760986328125 89.42608642578125 66.02525329589844 96.12777709960938 63.09326171875 101.99179077148438 61.41783142089844 110.368896484375 59.742401123046875 116.23287963867188 61.83668518066406 118.74603271484376 64.7686767578125 127.12313842773438 96.6017608642578 127.96087646484376 127.59713745117188 127.5419921875 155.24163818359375 129.2174072265625 174.50901794433594 134.24371337890625 190.0067138671875 140.94540405273438 200.89697265625 149.322509765625 208.01751708984375 159.7939453125 212.20608520507813 170.26531982421875 209.6929626464844 174.87274169921875 205.0855407714844 174.87274169921875 205.0855407714844 " />
        <polyline stroke="black" stroke-width="3" stroke-linecap="round" fill="transparent" stroke-linejoin="round" points="92.35809326171876 105.39773559570313 104.5048828125 110.84288024902344 106.59921264648438 113.3560028076172 106.59921264648438 113.3560028076172 " />
        <polyline stroke="black" stroke-width="3" stroke-linecap="round" fill="transparent" stroke-linejoin="round" points="74.34725952148438 143.09481811523438 78.95468139648438 155.24163818359375 81.0489501953125 160.686767578125 83.14324951171875 166.13189697265625 86.91293334960938 174.92788696289063 88.58837890625 178.2787322998047 92.77694702148438 184.56158447265625 97.80322265625 183.7238616943359 97.80322265625 183.7238616943359 " />
        <polyline stroke="black" stroke-width="3" stroke-linecap="round" fill="transparent" stroke-linejoin="round" points="148.48480224609375 94.92634582519533 149.74139404296875 108.74859619140624 149.74139404296875 115.45028686523438 149.322509765625 129.69140625 147.6470947265625 141.41940307617188 146.80941772460938 145.60794067382813 145.13397216796875 152.30963134765625 144.29623413085938 152.72850036621094 143.0396728515625 149.79649353027344 141.78314208984375 138.48739624023438 143.0396728515625 127.1782684326172 145.9716796875 118.38229370117188 150.99798583984375 111.26174926757813 159.7939453125 104.1411590576172 173.1973876953125 98.27719116210938 187.01959228515625 94.92634582519533 193.30242919921875 94.088623046875 207.96240234375 97.85832214355467 214.2452392578125 104.9788818359375 217.17724609375 110.84288024902344 217.17724609375 133.4611053466797 208.38128662109375 149.37765502929688 200.84185791015625 156.91705322265625 200.84185791015625 156.91705322265625 " />
        <polyline stroke="black" stroke-width="3" stroke-linecap="round" fill="transparent" stroke-linejoin="round" points="122.51571655273438 138.90625 137.17572021484375 135.13653564453125 145.9716796875 133.04226684570313 155.60540771484375 130.94796752929688 178.6424560546875 127.59713745117188 212.1510009765625 124.66513061523438 228.0675048828125 123.82742309570313 237.70123291015625 122.98971557617188 241.05206298828125 122.1519775390625 241.470947265625 121.31430053710938 241.470947265625 121.31430053710938 " />
        <polyline stroke="black" stroke-width="3" stroke-linecap="round" fill="transparent" stroke-linejoin="round" points="194.55902099609375 100.7903289794922 193.7213134765625 117.12571716308594 192.883544921875 123.40855407714844 191.20819091796875 130.94796752929688 189.1138916015625 138.0685272216797 183.2498779296875 151.05307006835938 175.2916259765625 159.43020629882813 166.49560546875 165.71304321289063 160.63165283203125 169.48275756835938 157.28076171875 170.73931884765625 156.443115234375 170.73931884765625 157.28076171875 170.73931884765625 163.9825439453125 170.73931884765625 176.967041015625 170.32046508789063 192.883544921875 170.73931884765625 209.218994140625 173.6713104248047 209.218994140625 173.6713104248047 " />
        </svg>