<?xml version="1.0" standalone="no"?>
    <svg width="256" height="256" xmlns="http://www.w3.org/2000/svg" version="1.1">
    <polyline stroke="black" stroke-width="3" stroke-linecap="round" fill="transparent" stroke-linejoin="round" points="50.600830078125 70.42332458496094 50.600830078125 93.1758270263672 49.1329345703125 107.8548583984375 42.52734375 138.68081665039063 33.71990966796875 164.369140625 24.9124755859375 184.91976928710935 16.83905029296875 201.06671142578125 14.63720703125 205.47042846679688 14.63720703125 205.47042846679688 " />
        <polyline stroke="black" stroke-width="3" stroke-linecap="round" fill="transparent" stroke-linejoin="round" points="58.67425537109375 82.16656494140625 77.75701904296875 75.56100463867188 85.83050537109375 73.35916137695313 94.63787841796876 71.15728759765625 96.83984375 71.15728759765625 97.57366943359376 71.15728759765625 98.30767822265624 70.42332458496094 101.24346923828124 69.68939208984375 103.4453125 69.68939208984375 104.1793212890625 68.95542907714844 104.1793212890625 70.42332458496094 102.71136474609376 78.49679565429688 99.77557373046876 96.11163330078124 98.30767822265624 126.2036590576172 99.77557373046876 141.6166229248047 104.1793212890625 155.5617218017578 112.25274658203124 167.30494689941406 129.1336669921875 180.51605224609375 142.3447265625 187.12164306640625 156.289794921875 191.52532958984375 168.0330810546875 192.9932556152344 178.308349609375 194.46115112304688 187.8497314453125 195.19509887695313 194.455322265625 196.6629943847656 201.7947998046875 198.1309509277344 208.4002685546875 198.8648681640625 217.9417724609375 200.332763671875 223.8133544921875 201.06671142578125 228.2171630859375 201.8006591796875 231.88671875 201.8006591796875 233.354736328125 202.53460693359375 234.0887451171875 202.53460693359375 234.82275390625 202.53460693359375 235.5565185546875 202.53460693359375 236.29052734375 202.53460693359375 237.0245361328125 202.53460693359375 237.7584228515625 202.53460693359375 238.4925537109375 201.06671142578125 238.4925537109375 194.46115112304688 238.4925537109375 181.9839782714844 236.29052734375 168.77285766601563 231.88671875 157.0296173095703 231.88671875 157.0296173095703 " />
        <polyline stroke="black" stroke-width="3" stroke-linecap="round" fill="transparent" stroke-linejoin="round" points="153.35400390625 82.9005126953125 147.482421875 101.98324584960938 143.812744140625 123.26785278320313 145.2806396484375 140.1487274169922 148.2164306640625 149.69009399414063 151.1522216796875 153.35986328125 156.289794921875 152.6259002685547 156.289794921875 152.6259002685547 " />
        <polyline stroke="black" stroke-width="3" stroke-linecap="round" fill="transparent" stroke-linejoin="round" points="148.9503173828125 90.97398376464844 175.37255859375 82.16656494140625 187.1158447265625 80.69866943359375 195.189208984375 80.69866943359375 200.326904296875 80.69866943359375 206.9324951171875 81.43260192871094 210.602294921875 82.16656494140625 211.3363037109375 82.16656494140625 211.3363037109375 85.83631896972656 206.198486328125 106.38699340820313 203.2628173828125 124.73576354980467 202.5286865234375 137.94686889648438 202.5286865234375 148.22219848632813 203.2628173828125 153.35986328125 204.730712890625 155.5617218017578 204.730712890625 155.5617218017578 " />
        <polyline stroke="black" stroke-width="3" stroke-linecap="round" fill="transparent" stroke-linejoin="round" points="174.6385498046875 80.69866943359375 172.436767578125 100.5153350830078 170.9688720703125 110.79066467285156 170.23486328125 129.8734130859375 170.23486328125 139.41481018066406 170.9688720703125 144.55242919921875 171.7027587890625 147.48825073242188 172.436767578125 148.95614624023438 172.436767578125 148.95614624023438 " />
        <polyline stroke="black" stroke-width="3" stroke-linecap="round" fill="transparent" stroke-linejoin="round" points="100.50958251953124 122.5338897705078 117.39044189453124 118.13018798828124 143.0787353515625 113.72648620605467 170.23486328125 112.25857543945313 212.070068359375 113.72648620605467 232.620849609375 116.66227722167967 242.8961181640625 118.13018798828124 246.56591796875 118.13018798828124 248.0338134765625 118.8641357421875 245.831787109375 121.06600952148438 239.226318359375 124.00180053710938 239.226318359375 124.00180053710938 " />
        <polyline stroke="black" stroke-width="3" stroke-linecap="round" fill="transparent" stroke-linejoin="round" points="140.8768310546875 154.0938262939453 158.49169921875 151.89195251464844 176.1064453125 151.89195251464844 195.189208984375 154.0938262939453 201.0609130859375 155.5617218017578 203.2628173828125 157.0296173095703 203.2628173828125 159.23147583007813 203.2628173828125 159.23147583007813 " />
        <polyline stroke="black" stroke-width="3" stroke-linecap="round" fill="transparent" stroke-linejoin="round" points="60.1422119140625 109.32276916503906 76.28912353515625 115.1943817138672 79.22491455078125 117.39625549316406 83.628662109375 122.5338897705078 85.0965576171875 126.93760681152344 85.0965576171875 126.93760681152344 " />
        <polyline stroke="black" stroke-width="3" stroke-linecap="round" fill="transparent" stroke-linejoin="round" points="58.67425537109375 148.22219848632813 74.0872802734375 152.6259002685547 77.75701904296875 154.8277587890625 85.0965576171875 160.69937133789063 90.2342529296875 165.8370361328125 90.2342529296875 165.8370361328125 " />
        </svg>