<?xml version="1.0" standalone="no"?>
    <svg width="256" height="256" xmlns="http://www.w3.org/2000/svg" version="1.1">
    <polyline stroke="black" stroke-width="3" stroke-linecap="round" fill="transparent" stroke-linejoin="round" points="49 72 49 82 49 92 49 118 49 132 49 162 48 184 48 199 48 205 48 205 " />
        <polyline stroke="black" stroke-width="3" stroke-linecap="round" fill="transparent" stroke-linejoin="round" points="46 64 65 58 84 52 104 51 118 54 125 70 128 95 129 121 131 148 138 168 151 186 169 198 186 204 202 205 213 204 222 192 222 192 " />
        <polyline stroke="black" stroke-width="3" stroke-linecap="round" fill="transparent" stroke-linejoin="round" points="81 90 85 99 89 108 94 120 98 124 98 124 " />
        <polyline stroke="black" stroke-width="3" stroke-linecap="round" fill="transparent" stroke-linejoin="round" points="74 173 80 173 86 173 99 173 113 173 113 173 " />
        <polyline stroke="black" stroke-width="3" stroke-linecap="round" fill="transparent" stroke-linejoin="round" points="167 73 166 82 165 91 163 122 162 129 161 136 161 136 " />
        <polyline stroke="black" stroke-width="3" stroke-linecap="round" fill="transparent" stroke-linejoin="round" points="159 48 176 48 193 48 210 48 224 48 228 48 231 51 232 60 232 76 227 91 223 106 220 119 217 127 216 129 216 129 " />
        <polyline stroke="black" stroke-width="3" stroke-linecap="round" fill="transparent" stroke-linejoin="round" points="207 42 207 50 207 58 207 69 203 91 200 110 200 119 199 129 199 133 199 133 " />
        <polyline stroke="black" stroke-width="3" stroke-linecap="round" fill="transparent" stroke-linejoin="round" points="123 88 137 88 151 88 174 88 197 88 217 88 233 89 243 91 248 91 248 91 " />
        <polyline stroke="black" stroke-width="3" stroke-linecap="round" fill="transparent" stroke-linejoin="round" points="155 132 171 132 187 132 208 132 228 132 228 132 " />
        </svg>