<?xml version="1.0" standalone="no"?>
    <svg width="256" height="256" xmlns="http://www.w3.org/2000/svg" version="1.1">
    <polyline stroke="black" stroke-width="3" stroke-linecap="round" fill="transparent" stroke-linejoin="round" points="88.34890747070313 95.87936401367188 90.03781127929688 99.25717163085938 91.72674560546876 103.64834594726563 93.07785034179688 108.37728881835938 94.09121704101563 113.44403076171876 94.76678466796876 119.52409362792967 94.76678466796876 126.61750793457033 93.75341796875 135.39984130859375 92.40228271484376 142.8310546875 90.71340942382813 149.92445373535156 88.68667602539063 156.68011474609375 86.6600341796875 163.09796142578125 84.9710693359375 168.50244140625 83.61996459960938 173.2313995361328 82.26882934570313 177.2847900390625 81.25546264648438 180.66261291503903 80.24215698242188 183.70263671875 79.56655883789063 186.4049072265625 78.55325317382813 189.10714721679688 77.20208740234375 191.13385009765625 77.20208740234375 191.13385009765625 " />
        <polyline stroke="black" stroke-width="3" stroke-linecap="round" fill="transparent" stroke-linejoin="round" points="57.94854736328125 172.55584716796875 64.36639404296875 167.1513214111328 71.797607421875 160.73348999023438 80.57992553710938 152.62672424316406 90.03781127929688 144.5199432373047 100.50906372070313 136.41319274902344 110.30471801757813 128.98199462890625 119.08706665039063 122.22633361816406 126.18048095703124 116.82185363769533 132.59832763671875 112.0928955078125 137.3272705078125 108.37728881835938 141.38067626953125 105.33726501464844 144.42068481445313 102.97279357910156 147.12295532226563 101.28387451171876 148.81182861328125 100.27052307128906 150.16302490234375 99.25717163085938 151.17633056640625 98.58161926269533 151.85186767578125 98.24383544921876 152.5274658203125 97.9060516357422 152.865234375 97.56828308105467 152.5274658203125 97.56828308105467 152.5274658203125 97.56828308105467 " />
        <polyline stroke="black" stroke-width="3" stroke-linecap="round" fill="transparent" stroke-linejoin="round" points="134.28726196289063 56.35888671875 134.28726196289063 64.80345153808594 134.28726196289063 72.91021728515625 133.61163330078125 82.36810302734375 132.93609619140625 93.17710876464844 131.2471923828125 104.66169738769533 129.55828857421875 115.80851745605467 127.5316162109375 127.630859375 125.84268188476563 138.1020965576172 124.829345703125 146.2088623046875 124.15377807617188 152.96450805664063 123.81600952148438 159.38235473632813 123.81600952148438 165.46243286132813 124.49154663085938 170.86692810058594 125.1671142578125 175.25807189941406 126.51824951171876 178.97369384765625 128.544921875 182.0137176513672 131.2471923828125 184.378173828125 136.65170288085938 187.75604248046875 144.08291625976563 190.45828247070313 153.87860107421875 192.82275390625 164.68756103515625 194.17388916015625 175.15887451171875 194.51165771484375 183.941162109375 193.83609008789065 192.38568115234375 192.4849548339844 198.80352783203125 190.79605102539065 203.87030029296875 188.76937866210935 208.261474609375 186.4049072265625 211.97705078125 184.0404357910156 214.6793212890625 182.0137176513672 216.70599365234375 179.98703002929688 218.05712890625 178.29812622070313 219.0704345703125 176.27142333984375 219.74603271484375 173.56919860839844 219.74603271484375 169.8535919189453 218.05712890625 163.77349853515625 212.3148193359375 151.95115661621094 200.1546630859375 127.630859375 200.1546630859375 127.630859375 " />
        </svg>