<?xml version="1.0" standalone="no"?>
    <svg width="256" height="256" xmlns="http://www.w3.org/2000/svg" version="1.1">
    <polyline stroke="black" stroke-width="3" stroke-linecap="round" fill="transparent" stroke-linejoin="round" points="53.38226318359375 121.58349609375 64.40103149414063 119.37974548339844 71.0123291015625 118.27786254882813 79.27639770507813 116.6250457763672 86.4385986328125 114.42129516601563 93.04989624023438 112.217529296875 98.55926513671876 108.3609619140625 105.72149658203124 97.8931121826172 105.72149658203124 97.8931121826172 " />
        <polyline stroke="black" stroke-width="3" stroke-linecap="round" fill="transparent" stroke-linejoin="round" points="116.74029541015624 50.51231384277344 117.29122924804688 61.531097412109375 114.53652954101563 71.99894714355469 109.02713012695313 85.22149658203125 102.41586303710938 100.64779663085938 93.600830078125 116.6250457763672 85.33673095703125 131.5004119873047 77.0726318359375 145.27389526367188 71.0123291015625 154.63986206054688 65.5029296875 163.45489501953125 63.85009765625 167.86241149902344 63.85009765625 167.86241149902344 " />
        <polyline stroke="black" stroke-width="3" stroke-linecap="round" fill="transparent" stroke-linejoin="round" points="192.7698974609375 74.75364685058594 186.15869140625 81.36492919921875 177.89453125 86.87431335449219 166.87579345703125 92.38371276855467 154.20416259765625 96.79122924804688 143.18536376953125 97.3421630859375 136.02316284179688 93.485595703125 136.02316284179688 93.485595703125 " />
        <polyline stroke="black" stroke-width="3" stroke-linecap="round" fill="transparent" stroke-linejoin="round" points="132.717529296875 49.96137237548828 131.064697265625 59.32734680175781 128.8609619140625 73.100830078125 126.65719604492188 91.83277893066406 126.65719604492188 106.15719604492188 128.30999755859375 118.8288116455078 132.16659545898438 128.1947784423828 137.67596435546875 134.80604553222656 145.9400634765625 139.21356201171875 156.407958984375 141.41732788085938 164.6719970703125 140.8663787841797 172.38519287109375 138.11167907714844 177.89453125 133.15322875976563 181.2001953125 125.44007873535156 182.30206298828125 117.7269287109375 182.30206298828125 117.7269287109375 " />
        <polyline stroke="black" stroke-width="3" stroke-linecap="round" fill="transparent" stroke-linejoin="round" points="79.82733154296875 180.53402709960935 92.49896240234376 175.02462768554688 100.7630615234375 171.1680450439453 111.78182983398438 167.86241149902344 123.3515625 165.65866088867188 131.61566162109375 165.65866088867188 136.5740966796875 167.3114776611328 139.8797607421875 171.718994140625 139.8797607421875 178.33026123046875 136.5740966796875 190.450927734375 128.8609619140625 203.12252807617188 120.59686279296876 213.0394592285156 113.985595703125 217.99789428710935 113.985595703125 217.99789428710935 " />
        <polyline stroke="black" stroke-width="3" stroke-linecap="round" fill="transparent" stroke-linejoin="round" points="93.600830078125 206.9791259765625 103.51776123046876 206.9791259765625 111.23089599609376 208.6319274902344 121.69873046875 213.0394592285156 132.16659545898438 219.09979248046875 140.4306640625 226.26199340820313 149.796630859375 237.28079223632813 149.796630859375 237.28079223632813 " />
        </svg>