<?xml version="1.0" standalone="no"?>
    <svg width="256" height="256" xmlns="http://www.w3.org/2000/svg" version="1.1">
    <polyline stroke="black" stroke-width="3" stroke-linecap="round" fill="transparent" stroke-linejoin="round" points="76.11117553710938 51.53330993652342 76.97705078125 74.33503723144531 77.84292602539063 97.1367645263672 79.86334228515625 121.09298706054688 81.3065185546875 143.89471435546875 82.17239379882813 162.36695861816406 83.03829956054688 177.66433715820313 83.326904296875 186.61181640625 83.326904296875 189.7867431640625 83.326904296875 189.7867431640625 " />
        <polyline stroke="black" stroke-width="3" stroke-linecap="round" fill="transparent" stroke-linejoin="round" points="89.67672729492188 56.15141296386719 107.57174682617188 50.956077575683594 125.46676635742188 45.7607421875 140.18685913085938 42.58582305908203 151.44342041015625 40.854042053222656 161.83404541015625 39.69953155517578 170.49298095703125 39.69953155517578 176.8427734375 42.29718780517578 182.03814697265625 48.93566131591797 185.50164794921875 67.98518371582031 187.52203369140625 93.67320251464844 189.25384521484375 126.86557006835938 191.56292724609375 161.21246337890625 192.14013671875 185.74594116210935 190.985595703125 199.8887939453125 190.985595703125 199.8887939453125 " />
        <polyline stroke="black" stroke-width="3" stroke-linecap="round" fill="transparent" stroke-linejoin="round" points="117.673828125 86.45747375488281 135.28018188476563 83.57118225097656 152.88653564453125 80.68489074707031 167.895263671875 78.3758544921875 173.37921142578125 78.08721923828125 180.88360595703125 78.66448974609375 184.63580322265625 79.53036499023438 184.63580322265625 79.53036499023438 " />
        <polyline stroke="black" stroke-width="3" stroke-linecap="round" fill="transparent" stroke-linejoin="round" points="111.32394409179688 125.13380432128908 128.64169311523438 120.51573181152344 145.95944213867188 115.8976593017578 160.39093017578125 112.14547729492188 172.5133056640625 108.6819305419922 182.61541748046875 103.19796752929688 182.61541748046875 103.19796752929688 " />
        <polyline stroke="black" stroke-width="3" stroke-linecap="round" fill="transparent" stroke-linejoin="round" points="143.93899536132813 60.769470214843736 145.95944213867188 84.43707275390625 147.97988891601563 108.10467529296876 149.42300415039063 128.02008056640625 150.00027465820313 138.98797607421875 150.00027465820313 150.53317260742188 149.42300415039063 164.0987548828125 147.97988891601563 173.04624938964844 147.97988891601563 173.04624938964844 " />
        <polyline stroke="black" stroke-width="3" stroke-linecap="round" fill="transparent" stroke-linejoin="round" points="107.86038208007813 184.88002014160156 126.3326416015625 184.01416015625 144.80490112304688 183.14830017089844 161.2568359375 182.5710296630859 177.13140869140625 183.14830017089844 187.52203369140625 184.30279541015625 193.294677734375 185.168701171875 193.294677734375 185.168701171875 " />
        </svg>