<?xml version="1.0" standalone="no"?>
    <svg width="256" height="256" xmlns="http://www.w3.org/2000/svg" version="1.1">
    <polyline stroke="black" stroke-width="3" stroke-linecap="round" fill="transparent" stroke-linejoin="round" points="58.057525634765625 85.47944641113281 60.28802490234375 130.08909606933594 61.40325927734375 154.6243896484375 63.07611083984375 185.85113525390625 64.74896240234375 202.57974243164065 64.74896240234375 214.289794921875 64.74896240234375 214.289794921875 " />
        <polyline stroke="black" stroke-width="3" stroke-linecap="round" fill="transparent" stroke-linejoin="round" points="70.8828125 74.32704162597656 83.70806884765625 66.52035522460938 107.12811279296876 55.367950439453125 131.10580444335938 48.11888122558594 152.29541015625 45.888397216796875 169.02398681640625 48.11888122558594 183.5220947265625 53.69508361816406 193.559326171875 64.28987121582031 203.038818359375 84.36421203613281 210.84552001953125 123.39764404296876 210.28790283203125 154.0667724609375 207.49981689453125 175.25634765625 201.923583984375 193.6578369140625 201.923583984375 193.6578369140625 " />
        <polyline stroke="black" stroke-width="3" stroke-linecap="round" fill="transparent" stroke-linejoin="round" points="100.43667602539063 114.47572326660156 119.39578247070313 104.99617004394533 134.4515380859375 99.4199676513672 150.06488037109375 94.95899963378906 162.33251953125 94.95899963378906 162.33251953125 94.95899963378906 " />
        <polyline stroke="black" stroke-width="3" stroke-linecap="round" fill="transparent" stroke-linejoin="round" points="98.76382446289063 141.2415008544922 114.934814453125 134.550048828125 129.43295288085938 129.53146362304688 150.06488037109375 119.49430847167967 161.21728515625 111.12998962402344 161.21728515625 111.12998962402344 " />
        <polyline stroke="black" stroke-width="3" stroke-linecap="round" fill="transparent" stroke-linejoin="round" points="131.66342163085938 68.19322204589844 131.66342163085938 81.01849365234375 132.2210693359375 94.40138244628906 133.3363037109375 118.37905883789063 134.4515380859375 145.7024688720703 132.2210693359375 175.81396484375 132.2210693359375 175.81396484375 " />
        <polyline stroke="black" stroke-width="3" stroke-linecap="round" fill="transparent" stroke-linejoin="round" points="48.020355224609375 209.27120971679688 69.20993041992188 203.13735961914065 95.4180908203125 197.0035400390625 123.29913330078124 193.1001892089844 145.60394287109375 190.8697204589844 166.23590087890625 189.7544860839844 181.8492431640625 188.6392517089844 193.559326171875 189.1968688964844 193.559326171875 189.1968688964844 " />
        </svg>