<?xml version="1.0" standalone="no"?>
    <svg width="256" height="256" xmlns="http://www.w3.org/2000/svg" version="1.1">
    <polyline stroke="black" stroke-width="3" stroke-linecap="round" fill="transparent" stroke-linejoin="round" points="51.694427490234375 97.6376495361328 57.98162841796875 134.08689880371094 59.19854736328125 146.02305603027344 59.484375 159.0801239013672 59.4268798828125 171.62457275390625 57.9024658203125 188.3983154296875 57.1031494140625 192.792236328125 55.828460693359375 197.33721923828125 55.8214111328125 199.42367553710935 55.820770263671875 199.62271118164065 " />
        <polyline stroke="black" stroke-width="3" stroke-linecap="round" fill="transparent" stroke-linejoin="round" points="61.5899658203125 100.9361572265625 79.08590698242188 89.20895385742188 87.17822265625 84.88758850097656 96.6195068359375 80.10905456542969 106.45849609375 75.93588256835938 129.01547241210938 67.373779296875 138.66024780273438 64.970703125 159.234619140625 61.748291015625 172.23065185546875 63.03936767578125 177.3856201171875 64.37655639648438 183.97314453125 77.01589965820313 187.62255859375 88.51107788085938 190.08203125 103.70941162109376 193.3819580078125 139.85531616210938 195.906494140625 177.88253784179688 197.0653076171875 208.671630859375 197.6927490234375 225.2803955078125 198.4853515625 230.40768432617188 196.6439208984375 232.44879150390625 195.86883544921875 227.71954345703125 " />
        <polyline stroke="black" stroke-width="3" stroke-linecap="round" fill="transparent" stroke-linejoin="round" points="80.4385986328125 132.5076141357422 104.82675170898438 125.80978393554688 119.47640991210938 121.94529724121094 126.85238647460938 119.27587890625 135.04769897460938 115.54586791992188 135.64031982421875 114.97312927246094 135.73593139648438 114.88076782226563 135.77108764648438 114.84677124023438 " />
        <polyline stroke="black" stroke-width="3" stroke-linecap="round" fill="transparent" stroke-linejoin="round" points="72.42791748046875 165.96392822265625 95.02166748046876 159.42129516601563 102.5819091796875 157.66299438476563 120.21258544921876 152.98167419433594 127.82305908203124 150.77267456054688 144.09735107421875 146.51382446289063 155.3560791015625 143.1048583984375 158.8516845703125 141.84963989257813 159.925048828125 140.95989990234375 159.948974609375 140.94009399414063 " />
        <polyline stroke="black" stroke-width="3" stroke-linecap="round" fill="transparent" stroke-linejoin="round" points="114.36614990234376 76.43295288085938 118.1025390625 99.83682250976563 122.72164916992188 133.3974609375 123.945556640625 149.7483367919922 123.7564697265625 182.27818298339844 122.30404663085938 192.64425659179688 118.703369140625 204.07489013671875 116.78765869140624 206.63592529296875 116.71188354492188 203.68746948242188 " />
        <polyline stroke="black" stroke-width="3" stroke-linecap="round" fill="transparent" stroke-linejoin="round" points="67.71578979492188 222.98101806640625 99.65841674804688 217.23858642578125 125.25567626953124 213.8624267578125 140.09954833984375 211.941162109375 163.814208984375 210.0166015625 174.5909423828125 209.639892578125 188.6768798828125 209.77203369140625 192.89569091796875 210.1048583984375 195.130859375 212.832763671875 195.204833984375 212.95867919921875 " />
        </svg>