<?xml version="1.0" standalone="no"?>
    <svg width="256" height="256" xmlns="http://www.w3.org/2000/svg" version="1.1">
    <polyline stroke="black" stroke-width="3" stroke-linecap="round" fill="transparent" stroke-linejoin="round" points="47.21649169921875 123.10049438476563 65.57989501953125 120.03993225097656 78.43426513671875 117.59147644042967 93.73712158203124 115.1430206298828 111.4884033203125 110.85823059082033 124.95489501953124 105.96133422851563 134.1365966796875 99.84019470214844 139.03350830078125 93.10694885253906 139.03350830078125 93.10694885253906 " />
        <polyline stroke="black" stroke-width="3" stroke-linecap="round" fill="transparent" stroke-linejoin="round" points="98.63400268554688 57.6043701171875 97.4097900390625 71.6829833984375 93.125 91.88272094726563 82.71905517578125 127.99740600585938 69.2525634765625 159.82730102539063 58.234527587890625 186.14816284179688 51.50128173828125 200.83889770507813 45.99224853515625 210.6327209472656 42.93170166015625 214.30538940429688 42.93170166015625 214.30538940429688 " />
        <polyline stroke="black" stroke-width="3" stroke-linecap="round" fill="transparent" stroke-linejoin="round" points="79.65850830078125 143.912353515625 98.02191162109376 154.3182830810547 112.10049438476563 163.49998474121094 126.79119873046876 176.3543701171875 142.7061767578125 189.208740234375 157.39691162109375 199.61468505859375 167.190673828125 203.89947509765625 176.9844970703125 197.7783203125 176.9844970703125 197.7783203125 " />
        <polyline stroke="black" stroke-width="3" stroke-linecap="round" fill="transparent" stroke-linejoin="round" points="172.69970703125 56.99226379394531 165.96649169921875 75.9677734375 159.23321533203125 93.71905517578124 150.66363525390625 113.3066864013672 143.93038940429688 127.99740600585938 140.25772094726563 138.40333557128906 138.42138671875 144.52447509765625 138.42138671875 149.42137145996094 140.25772094726563 152.48194885253906 144.54251098632813 154.3182830810547 150.66363525390625 154.3182830810547 159.23321533203125 152.48194885253906 169.02703857421875 146.97291564941406 178.208740234375 137.7912139892578 190.4510498046875 119.42782592773438 194.73583984375 103.51287841796876 194.73583984375 98.615966796875 194.73583984375 96.16751098632813 194.73583984375 97.39173889160156 194.73583984375 101.67652893066406 199.0206298828125 113.3066864013672 205.75384521484375 131.05796813964844 211.26287841796875 152.48194885253906 216.7718505859375 184.9239501953125 216.7718505859375 184.9239501953125 " />
        </svg>