<?xml version="1.0" standalone="no"?>
    <svg width="256" height="256" xmlns="http://www.w3.org/2000/svg" version="1.1">
    <polyline stroke="black" stroke-width="3" stroke-linecap="round" fill="transparent" stroke-linejoin="round" points="36.2000732421875 128.26669311523438 62.86669921875 111.20002746582033 86.3333740234375 100.53335571289063 98.06671142578124 96.26667785644533 104.466796875 94.1333465576172 104.466796875 94.1333465576172 " />
        <polyline stroke="black" stroke-width="3" stroke-linecap="round" fill="transparent" stroke-linejoin="round" points="72.466796875 74.93333435058594 69.2667236328125 115.4666748046875 66.06671142578125 132.53334045410156 61.80010986328125 149.6000213623047 52.2000732421875 178.40003967285156 38.3333740234375 205.06671142578125 31.93341064453125 207.20001220703125 31.93341064453125 207.20001220703125 " />
        <polyline stroke="black" stroke-width="3" stroke-linecap="round" fill="transparent" stroke-linejoin="round" points="83.1334228515625 130.40003967285156 108.7333984375 154.93336486816406 138.60009765625 172.00001525878906 170.60009765625 184.80001831054688 196.2000732421875 190.13336181640625 207.933349609375 191.20001220703125 207.933349609375 191.20001220703125 " />
        <polyline stroke="black" stroke-width="3" stroke-linecap="round" fill="transparent" stroke-linejoin="round" points="157.8001708984375 57.86668395996094 142.86669921875 82.40000915527344 133.2667236328125 101.60000610351563 129 113.33334350585938 125.80010986328124 120.8000030517578 125.80010986328124 121.86668395996094 127.93341064453124 120.8000030517578 134.3333740234375 116.53335571289063 148.2000732421875 110.1333465576172 175.933349609375 102.66667175292967 182.3333740234375 100.53335571289063 185.533447265625 100.53335571289063 185.533447265625 99.4666748046875 185.533447265625 99.4666748046875 " />
        <polyline stroke="black" stroke-width="3" stroke-linecap="round" fill="transparent" stroke-linejoin="round" points="175.933349609375 87.73333740234375 185.533447265625 117.60000610351563 190.86669921875 126.1333465576172 197.2667236328125 138.93336486816406 197.2667236328125 138.93336486816406 " />
        </svg>