<?xml version="1.0" standalone="no"?>
    <svg width="256" height="256" xmlns="http://www.w3.org/2000/svg" version="1.1">
    <polyline stroke="black" stroke-width="3" stroke-linecap="round" fill="transparent" stroke-linejoin="round" points="70.0089111328125 115.38720703125 94.09283447265624 107.72413635253906 110.51370239257813 101.70315551757813 124.19775390625 96.2295379638672 136.23971557617188 89.66119384765625 143.35540771484375 81.45075988769531 143.35540771484375 81.45075988769531 " />
        <polyline stroke="black" stroke-width="3" stroke-linecap="round" fill="transparent" stroke-linejoin="round" points="112.70315551757813 38.75653839111328 111.60842895507813 48.06169128417969 106.13482666015624 73.78770446777344 90.80868530273438 120.31346130371094 76.5772705078125 155.89198303222656 62.345855712890625 188.18634033203125 53.58807373046875 205.701904296875 47.01971435546875 218.83859252929688 47.01971435546875 218.83859252929688 " />
        <polyline stroke="black" stroke-width="3" stroke-linecap="round" fill="transparent" stroke-linejoin="round" points="87.52450561523438 135.09222412109375 96.82965087890624 138.37640380859375 108.32427978515624 143.8500213623047 121.4609375 152.60780334472656 138.42916870117188 165.74449157714844 159.2288818359375 182.71270751953125 175.1024169921875 194.75466918945313 188.23907470703125 203.512451171875 197.54425048828125 206.796630859375 197.54425048828125 206.796630859375 " />
        <polyline stroke="black" stroke-width="3" stroke-linecap="round" fill="transparent" stroke-linejoin="round" points="194.80743408203125 46.41960906982422 190.42852783203125 65.5772705078125 181.1234130859375 90.75592041015624 172.9129638671875 112.10302734375 166.8919677734375 129.6186065673828 164.7025146484375 143.8500213623047 165.7972412109375 154.24989318847656 168.5340576171875 159.1761474609375 174.0076904296875 160.8182373046875 180.5760498046875 158.6287841796875 188.23907470703125 151.51307678222656 197.54425048828125 140.5658416748047 206.302001953125 129.6186065673828 206.302001953125 129.6186065673828 " />
        <polyline stroke="black" stroke-width="3" stroke-linecap="round" fill="transparent" stroke-linejoin="round" points="218.343994140625 101.70315551757813 221.628173828125 112.10302734375 226.554443359375 126.33444213867188 233.670166015625 146.58682250976563 239.14373779296875 165.74449157714844 242.97528076171875 185.44952392578125 242.97528076171875 185.44952392578125 " />
        </svg>