<?xml version="1.0" standalone="no"?>
    <svg width="256" height="256" xmlns="http://www.w3.org/2000/svg" version="1.1">
    <polyline stroke="black" stroke-width="3" stroke-linecap="round" fill="transparent" stroke-linejoin="round" points="46 119 55 117 64 115 72 114 87 111 93 109 93 109 " />
        <polyline stroke="black" stroke-width="3" stroke-linecap="round" fill="transparent" stroke-linejoin="round" points="88 72 83 95 78 118 69 149 57 180 47 205 37 221 34 225 34 225 " />
        <polyline stroke="black" stroke-width="3" stroke-linecap="round" fill="transparent" stroke-linejoin="round" points="70 164 77 166 84 168 100 180 120 194 143 208 165 217 185 220 191 220 191 220 " />
        <polyline stroke="black" stroke-width="3" stroke-linecap="round" fill="transparent" stroke-linejoin="round" points="138 83 134 100 130 117 125 134 120 147 119 149 119 151 119 152 131 152 144 150 158 146 170 143 181 139 181 139 " />
        <polyline stroke="black" stroke-width="3" stroke-linecap="round" fill="transparent" stroke-linejoin="round" points="186 127 187 135 188 143 195 162 197 171 197 171 " />
        </svg>