<?xml version="1.0" standalone="no"?>
    <svg width="256" height="256" xmlns="http://www.w3.org/2000/svg" version="1.1">
    <polyline stroke="black" stroke-width="3" stroke-linecap="round" fill="transparent" stroke-linejoin="round" points="45.1064453125 82.92788696289063 39.98175048828125 93.60430908203124 37.846435546875 102.14543151855467 36.99237060546875 108.97833251953124 36.565277099609375 111.11363220214844 36.13824462890625 112.82186889648438 36.13824462890625 112.39480590820313 39.98175048828125 103.42660522460938 47.24169921875 92.3231201171875 57.06402587890625 81.21965026855469 69.0216064453125 70.54324340820313 82.68743896484375 62.85621643066406 93.79095458984376 58.58564758300781 101.47796630859376 57.304473876953125 105.74847412109376 58.58564758300781 107.8837890625 60.72093200683594 107.8837890625 66.69972229003906 102.75912475585938 76.094970703125 92.50973510742188 87.62550354003906 79.27096557617188 98.72897338867188 72.43807983398438 103.85366821289063 52.36639404296875 116.23831176757813 46.814666748046875 119.22770690917967 35.28411865234375 124.77946472167967 32.29473876953125 125.20651245117188 31.86767578125 124.77946472167967 33.575897216796875 123.498291015625 40.408782958984375 120.93594360351563 50.23114013671875 118.80064392089844 60.05340576171875 117.51947021484376 69.44866943359375 117.09243774414063 78.4168701171875 117.09243774414063 86.1038818359375 117.09243774414063 89.52035522460938 117.09243774414063 89.52035522460938 117.09243774414063 " />
        <polyline stroke="black" stroke-width="3" stroke-linecap="round" fill="transparent" stroke-linejoin="round" points="44.67938232421875 156.3816375732422 60.05340576171875 145.27818298339844 72.43807983398438 138.872314453125 84.82272338867188 134.60174560546875 93.36386108398438 133.32058715820313 98.91561889648438 133.32058715820313 101.90496826171876 133.74765014648438 102.33203125 134.1746826171875 101.90496826171876 135.4558563232422 97.20736694335938 139.72642517089844 75.42745971679688 155.52752685546875 60.48046875 164.49571228027344 54.9287109375 167.485107421875 45.53350830078125 172.1827392578125 44.2523193359375 172.60980224609375 45.1064453125 172.60980224609375 46.814666748046875 172.60980224609375 49.804046630859375 172.1827392578125 65.1781005859375 171.32864379882813 75.8544921875 170.90158081054688 85.67684936523438 169.19334411621094 89.9473876953125 167.485107421875 89.9473876953125 167.485107421875 " />
        <polyline stroke="black" stroke-width="3" stroke-linecap="round" fill="transparent" stroke-linejoin="round" points="86.9580078125 29.54579162597656 88.66622924804688 57.731536865234375 90.37445068359376 71.39735412597656 93.79095458984376 97.8748779296875 97.20736694335938 120.08181762695313 100.19677734375 138.0181884765625 101.47796630859376 151.2569580078125 101.05087280273438 163.21453857421875 100.19677734375 168.7662811279297 98.06146240234376 178.58859252929688 98.06146240234376 178.58859252929688 " />
        <polyline stroke="black" stroke-width="3" stroke-linecap="round" fill="transparent" stroke-linejoin="round" points="114.7166748046875 100.43722534179688 125.82015991210938 95.31253051757813 130.94482421875 93.17724609375 136.06951904296875 91.04196166992188 141.62127685546875 89.333740234375 146.74594116210938 87.62550354003906 161.69293212890625 84.6361083984375 169.8070068359375 82.92788696289063 169.8070068359375 82.92788696289063 " />
        <polyline stroke="black" stroke-width="3" stroke-linecap="round" fill="transparent" stroke-linejoin="round" points="159.5576171875 53.460960388183594 150.58944702148438 69.68911743164063 147.17303466796875 78.65731811523438 136.06951904296875 108.97833251953124 132.653076171875 118.80064392089844 126.24725341796876 137.16409301757813 123.68487548828124 144.42405700683594 119.414306640625 155.52752685546875 116.85198974609376 161.50633239746094 116.85198974609376 161.50633239746094 " />
        <polyline stroke="black" stroke-width="3" stroke-linecap="round" fill="transparent" stroke-linejoin="round" points="134.36129760742188 121.36297607421876 151.01654052734375 131.185302734375 154.86004638671875 134.1746826171875 162.1199951171875 141.00759887695313 168.09881591796875 146.13229370117188 168.09881591796875 146.13229370117188 " />
        <polyline stroke="black" stroke-width="3" stroke-linecap="round" fill="transparent" stroke-linejoin="round" points="171.5152587890625 103.42660522460938 183.47283935546875 98.30192565917967 188.17041015625 96.59371948242188 193.72216796875 94.88546752929688 199.27392578125 93.17724609375 204.39862060546875 91.46902465820313 213.79388427734375 88.05256652832031 218.064453125 85.91728210449219 218.064453125 85.91728210449219 " />
        <polyline stroke="black" stroke-width="3" stroke-linecap="round" fill="transparent" stroke-linejoin="round" points="205.6798095703125 66.27267456054688 196.2845458984375 85.06317138671875 192.86810302734375 94.88546752929688 189.878662109375 104.707763671875 184.326904296875 124.35238647460938 177.0670166015625 153.81930541992188 175.78582763671875 158.9439697265625 173.6505126953125 165.7769012451172 173.2235107421875 167.485107421875 173.2235107421875 167.485107421875 " />
        <polyline stroke="black" stroke-width="3" stroke-linecap="round" fill="transparent" stroke-linejoin="round" points="209.5233154296875 110.68658447265624 218.9185791015625 121.7900390625 223.1890869140625 128.6229705810547 227.88671875 136.73703002929688 232.5843505859375 146.13229370117188 238.1361083984375 158.08987426757813 238.1361083984375 158.08987426757813 " />
        </svg>