<?xml version="1.0" standalone="no"?>
    <svg width="256" height="256" xmlns="http://www.w3.org/2000/svg" version="1.1">
    <polyline stroke="black" stroke-width="3" stroke-linecap="round" fill="transparent" stroke-linejoin="round" points="46.13726806640625 57.875152587890625 47.205078125 70.15501403808594 49.3406982421875 90.44349670410156 49.874603271484375 101.6555633544922 49.874603271484375 106.99462890625 50.942413330078125 108.0624542236328 52.54412841796875 103.79118347167967 57.883209228515625 92.04522705078124 66.42572021484375 78.69754028320313 75.50216674804688 68.55329895019531 84.57861328125 61.61250305175781 93.655029296875 57.875152587890625 100.0618896484375 57.875152587890625 104.33316040039063 59.47686767578125 105.4010009765625 64.28202819824219 101.66363525390624 73.89236450195313 90.45156860351563 86.70614624023438 73.90045166015625 99.51992797851563 60.01885986328125 107.52853393554688 52.54412841796875 112.33370971679688 48.806793212890625 115.00325012207033 48.806793212890625 116.07106018066406 53.6119384765625 115.00325012207033 66.42572021484375 111.26589965820313 80.30731201171875 106.99462890625 88.849853515625 104.32508850097656 88.849853515625 104.32508850097656 " />
        <polyline stroke="black" stroke-width="3" stroke-linecap="round" fill="transparent" stroke-linejoin="round" points="52.54412841796875 151.3089599609375 50.40850830078125 159.85147094726563 50.40850830078125 161.9871063232422 54.679779052734375 159.85147094726563 62.15447998046875 155.0463104248047 76.03607177734375 145.96987915039063 87.78204345703125 139.56298828125 96.32455444335938 136.89344787597656 101.12969970703124 136.89344787597656 101.12969970703124 139.02908325195313 95.7906494140625 145.43597412109375 80.30731201171875 158.249755859375 64.29010009765625 167.326171875 55.21368408203125 172.13134765625 49.874603271484375 175.3347930908203 46.671142578125 177.4704132080078 46.671142578125 179.0721435546875 51.476318359375 179.0721435546875 63.756195068359375 174.2669677734375 78.17169189453125 166.25836181640625 86.1802978515625 158.78366088867188 86.1802978515625 158.78366088867188 " />
        <polyline stroke="black" stroke-width="3" stroke-linecap="round" fill="transparent" stroke-linejoin="round" points="76.03607177734375 32.781494140625 76.56997680664063 46.129180908203125 76.56997680664063 72.82455444335938 77.1038818359375 111.26589965820313 78.17169189453125 141.69862365722656 78.70562744140625 161.9871063232422 78.70562744140625 179.0721435546875 78.70562744140625 192.9537353515625 77.63778686523438 203.09799194335935 77.1038818359375 212.1744079589844 77.1038818359375 212.1744079589844 " />
        <polyline stroke="black" stroke-width="3" stroke-linecap="round" fill="transparent" stroke-linejoin="round" points="108.60443115234376 106.46072387695313 117.68084716796876 103.79118347167967 127.8250732421875 101.12165832519533 138.50323486328125 97.918212890625 149.71530151367188 92.57913208007813 149.71530151367188 92.57913208007813 " />
        <polyline stroke="black" stroke-width="3" stroke-linecap="round" fill="transparent" stroke-linejoin="round" points="137.9693603515625 55.20561218261719 134.23199462890625 67.4854736328125 124.62164306640624 102.18946838378906 118.7486572265625 132.08828735351563 115.54522705078124 149.17332458496094 111.807861328125 162.52101135253906 108.60443115234376 171.59744262695313 105.4010009765625 175.3347930908203 102.7314453125 173.73306274414063 102.7314453125 173.73306274414063 " />
        <polyline stroke="black" stroke-width="3" stroke-linecap="round" fill="transparent" stroke-linejoin="round" points="116.07913208007813 128.35093688964844 126.223388671875 132.08828735351563 133.1641845703125 136.3595428466797 140.10498046875 141.69862365722656 146.5118408203125 146.5037841796875 151.8509521484375 149.7072296142578 151.8509521484375 149.7072296142578 " />
        <polyline stroke="black" stroke-width="3" stroke-linecap="round" fill="transparent" stroke-linejoin="round" points="165.7325439453125 90.44349670410156 178.01239013671875 88.30787658691406 186.554931640625 87.77397155761719 194.56353759765625 87.77397155761719 204.173828125 86.1722412109375 204.173828125 86.1722412109375 " />
        <polyline stroke="black" stroke-width="3" stroke-linecap="round" fill="transparent" stroke-linejoin="round" points="202.5721435546875 41.324012756347656 194.02960205078125 52.002166748046875 178.54632568359375 90.44349670410156 165.7325439453125 131.02047729492188 158.2578125 157.1819305419922 152.38482666015625 173.73306274414063 145.97796630859375 188.1485595703125 141.17279052734375 198.82672119140625 139.03717041015625 202.5640563964844 139.03717041015625 202.5640563964844 " />
        <polyline stroke="black" stroke-width="3" stroke-linecap="round" fill="transparent" stroke-linejoin="round" points="171.60552978515625 146.5037841796875 183.3514404296875 153.97848510742188 192.9617919921875 160.91928100585938 204.173828125 169.99571228027344 213.7841796875 179.60604858398438 213.7841796875 179.60604858398438 " />
        </svg>