<?xml version="1.0" standalone="no"?>
    <svg width="256" height="256" xmlns="http://www.w3.org/2000/svg" version="1.1">
    <polyline stroke="black" stroke-width="3" stroke-linecap="round" fill="transparent" stroke-linejoin="round" points="71.48593139648438 77.02481079101563 89.20172119140625 70.052978515625 103.0673828125 66.33291625976563 110.81961059570313 66.87922668457031 115.84039306640624 70.02696228027344 115.84039306640624 70.02696228027344 " />
        <polyline stroke="black" stroke-width="3" stroke-linecap="round" fill="transparent" stroke-linejoin="round" points="87.12057495117188 110.14108276367188 93.96237182617188 106.36900329589844 101.1943359375 102.54490661621094 107.04754638671876 99.34513854980467 111.07977294921876 97.2899932861328 113.70721435546876 95.96327209472656 115.50222778320313 95.18283081054688 115.81439208984376 95.0527801513672 116.9329833984375 94.84465026855467 119.30035400390624 96.14537048339844 121.43353271484376 97.65419006347656 123.5146484375 100.12556457519533 125.28363037109376 103.9496612548828 123.33258056640624 112.352294921875 121.771728515625 121.01507568359376 120.31491088867188 130.12010192871094 118.10366821289063 137.97645568847656 115.94442749023438 144.27191162109375 114.85183715820313 150.5673828125 112.66665649414063 156.91488647460938 111.18386840820313 160.53089904785156 109.57095336914063 163.7046356201172 108.73846435546876 165.36956787109375 108.24423217773438 166.2020263671875 107.77593994140624 166.7483673095703 106.65731811523438 167.84095764160156 106.37118530273438 167.9449920654297 104.60220336914063 168.04905700683594 103.74374389648438 167.7108612060547 101.68862915039063 165.4996337890625 98.93109130859376 161.5974884033203 93.650146484375 148.95452880859375 89.3577880859375 137.8203582763672 86.99050903320313 122.1597137451172 86.52224731445313 112.89860534667967 86.52224731445313 112.89860534667967 " />
        <polyline stroke="black" stroke-width="3" stroke-linecap="round" fill="transparent" stroke-linejoin="round" points="88.23919677734375 75.98423767089844 86.9124755859375 90.21408081054688 83.58258056640625 106.57711791992188 78.171630859375 125.74969482421876 70.54940795898438 142.737060546875 63.525543212890625 160.16668701171875 55.5911865234375 172.99179077148438 48.073028564453125 184.04788208007813 43.5205078125 190.8896484375 43.234344482421875 191.64410400390625 43.858673095703125 193.80325317382813 43.858673095703125 193.80325317382813 " />
        <polyline stroke="black" stroke-width="3" stroke-linecap="round" fill="transparent" stroke-linejoin="round" points="143.70181274414063 115.31796264648438 145.60086059570313 126.37405395507813 147.0316162109375 135.79124450683594 148.30633544921875 143.56954956054688 149.47698974609375 150.0731201171875 149.91921997070313 152.70057678222656 149.99725341796875 154.2354278564453 150.569580078125 154.96385192871094 150.59564208984375 153.09078979492188 150.59564208984375 153.09078979492188 " />
        <polyline stroke="black" stroke-width="3" stroke-linecap="round" fill="transparent" stroke-linejoin="round" points="157.12518310546875 102.28474426269533 171.01690673828125 97.576171875 185.636962890625 93.38786315917967 196.797119140625 90.99453735351563 202.988525390625 90.05799865722656 207.02081298828125 90.500244140625 208.86773681640625 91.02053833007813 210.81884765625 92.19119262695313 212.04150390625 96.69166564941406 209.70025634765625 109.64682006835938 207.5670166015625 123.512451171875 204.05517578125 135.84326171875 202.4942626953125 145.44256591796875 200.51715087890625 154.13134765625 198.43603515625 158.78793334960938 198.2279052734375 159.0740966796875 198.2279052734375 159.0740966796875 198.2279052734375 159.0740966796875 " />
        <polyline stroke="black" stroke-width="3" stroke-linecap="round" fill="transparent" stroke-linejoin="round" points="170.0543212890625 120.7029266357422 170.0543212890625 134.2563934326172 168.70166015625 147.5757598876953 167.94720458984375 158.34568786621094 166.10015869140625 165.42160034179688 165.21563720703125 167.03451538085938 165.21563720703125 167.03451538085938 " />
        <polyline stroke="black" stroke-width="3" stroke-linecap="round" fill="transparent" stroke-linejoin="round" points="154.5498046875 160.94711303710938 169.32598876953125 154.91180419921875 185.01263427734375 150.25521850585938 192.50469970703125 148.7984161376953 199.892822265625 147.80990600585938 204.96563720703125 147.4456787109375 208.763671875 147.5757598876953 212.32769775390625 148.77239990234375 217.062255859375 151.63400268554688 221.0684814453125 154.54759216308594 219.48162841796875 157.69534301757813 219.48162841796875 157.69534301757813 " />
        </svg>