<?xml version="1.0" standalone="no"?>
    <svg width="256" height="256" xmlns="http://www.w3.org/2000/svg" version="1.1">
    <polyline stroke="black" stroke-width="3" stroke-linecap="round" fill="transparent" stroke-linejoin="round" points="59.5076904296875 91.190673828125 73.4072265625 90.12147521972656 87.84136962890625 86.37928771972656 109.75985717773438 80.49871826171875 130.0745849609375 76.22193908691406 150.3892822265625 71.41055297851563 165.3580322265625 66.59918212890625 174.4461669921875 62.32240295410156 180.3267822265625 55.37263488769531 180.3267822265625 55.37263488769531 " />
        <polyline stroke="black" stroke-width="3" stroke-linecap="round" fill="transparent" stroke-linejoin="round" points="132.74755859375 34.52332305908203 122.05560302734376 49.49205017089844 104.948486328125 76.75653076171875 83.5645751953125 112.57456970214844 68.59585571289063 139.30445861816406 59.5076904296875 153.73858642578125 54.161712646484375 161.22296142578125 52.0233154296875 164.96514892578125 52.0233154296875 164.96514892578125 " />
        <polyline stroke="black" stroke-width="3" stroke-linecap="round" fill="transparent" stroke-linejoin="round" points="95.32574462890624 112.57456970214844 108.690673828125 112.57456970214844 133.8167724609375 113.1091766357422 159.4774169921875 116.31675720214844 177.119140625 118.98974609375 193.1571044921875 121.66273498535156 204.3836669921875 123.80113220214844 209.7296142578125 126.47410583496094 209.7296142578125 126.47410583496094 " />
        <polyline stroke="black" stroke-width="3" stroke-linecap="round" fill="transparent" stroke-linejoin="round" points="102.81008911132813 136.6314697265625 101.74090576171876 145.18502807617188 100.1370849609375 155.34239196777344 98.5333251953125 168.1727294921875 96.92950439453124 179.39927673339844 94.7911376953125 188.4874267578125 94.7911376953125 188.4874267578125 " />
        <polyline stroke="black" stroke-width="3" stroke-linecap="round" fill="transparent" stroke-linejoin="round" points="103.34469604492188 149.46180725097656 120.45181274414063 143.04664611816406 133.28216552734375 139.30445861816406 145.57791137695313 136.6314697265625 156.804443359375 136.0968780517578 164.288818359375 137.1660614013672 169.634765625 139.30445861816406 171.773193359375 144.11582946777344 171.23858642578125 152.13479614257813 161.6158447265625 168.1727294921875 144.50872802734375 184.21066284179688 144.50872802734375 184.21066284179688 " />
        <polyline stroke="black" stroke-width="3" stroke-linecap="round" fill="transparent" stroke-linejoin="round" points="51.48870849609375 199.7139892578125 66.9920654296875 194.90261840820313 80.35699462890625 191.16043090820313 103.34469604492188 186.88363647460935 124.72857666015624 183.67605590820313 149.85467529296875 181.00306701660156 167.49639892578125 180.46847534179688 184.603515625 179.39927673339844 196.36468505859375 178.86468505859375 202.2452392578125 178.86468505859375 205.452880859375 179.9338836669922 204.3836669921875 185.814453125 204.3836669921875 185.814453125 " />
        </svg>