<?xml version="1.0" standalone="no"?>
    <svg width="256" height="256" xmlns="http://www.w3.org/2000/svg" version="1.1">
    <polyline stroke="black" stroke-width="3" stroke-linecap="round" fill="transparent" stroke-linejoin="round" points="125 77 125 75 125 73 126 74 127 75 129 78 131 82 133 89 135 98 136 108 136 121 136 136 135 151 135 167 135 183 135 198 136 212 137 222 138 230 140 236 141 240 141 243 142 245 142 247 141 247 140 247 138 245 135 243 133 241 131 239 128 236 124 234 119 231 113 228 105 225 97 221 87 217 76 211 65 205 54 197 44 187 35 178 27 169 20 162 20 162 " />
        </svg>