<?xml version="1.0" standalone="no"?>
    <svg width="256" height="256" xmlns="http://www.w3.org/2000/svg" version="1.1">
    <polyline stroke="black" stroke-width="3" stroke-linecap="round" fill="transparent" stroke-linejoin="round" points="127.86941528320313 89.12374877929689 130.5716552734375 90.47486877441406 133.27389526367188 91.82598876953124 135.63836669921875 93.17710876464844 137.66506958007813 94.52824401855467 139.01620483398438 95.54159545898438 140.02951049804688 96.2171630859375 140.705078125 96.89271545410156 141.38067626953125 97.23049926757813 141.71841430664063 97.56828308105467 142.05621337890625 97.9060516357422 142.39401245117188 98.24383544921876 142.73178100585938 98.24383544921876 143.069580078125 98.58161926269533 143.4073486328125 98.91940307617188 143.7451171875 99.93276977539063 144.08291625976563 101.95945739746094 144.75845336914063 106.01283264160156 145.09622192382813 111.755126953125 145.09622192382813 119.52409362792967 145.09622192382813 129.3197479248047 144.75845336914063 139.11544799804688 144.42068481445313 148.57334899902344 144.08291625976563 158.36900329589844 143.7451171875 168.1646728515625 143.4073486328125 176.94700622558594 143.069580078125 184.71597290039065 142.73178100585938 192.14718627929688 142.39401245117188 198.5650329589844 141.71841430664063 203.63177490234375 141.0428466796875 207.34735107421875 140.3673095703125 210.04959106445313 139.69174194335938 211.738525390625 139.35397338867188 213.08963012695313 139.01620483398438 213.7652282714844 138.67843627929688 214.44076538085935 138.0028076171875 214.44076538085935 136.98947143554688 214.44076538085935 134.96282958984375 213.7652282714844 131.2471923828125 211.738525390625 124.829345703125 207.34735107421875 116.04702758789063 200.25396728515625 105.23797607421876 190.1204833984375 93.4156494140625 177.2847900390625 93.4156494140625 177.2847900390625 " />
        </svg>