<?xml version="1.0" standalone="no"?>
    <svg width="256" height="256" xmlns="http://www.w3.org/2000/svg" version="1.1">
    <polyline stroke="black" stroke-width="3" stroke-linecap="round" fill="transparent" stroke-linejoin="round" points="72.76181030273438 79.95181274414063 75.66073608398438 85.50808715820313 78.80120849609375 91.5474853515625 81.45858764648438 95.89590454101563 83.39117431640625 98.3116455078125 83.39117431640625 98.3116455078125 " />
        <polyline stroke="black" stroke-width="3" stroke-linecap="round" fill="transparent" stroke-linejoin="round" points="102.23419189453124 62.79985046386719 99.81838989257813 66.18193054199219 97.64419555664063 71.25505065917969 84.35751342773438 92.51382446289063 77.35174560546875 102.17689514160156 77.35174560546875 102.17689514160156 " />
        <polyline stroke="black" stroke-width="3" stroke-linecap="round" fill="transparent" stroke-linejoin="round" points="49.328826904296875 137.93023681640625 52.227752685546875 135.2729034423828 55.8514404296875 131.89083862304688 70.10443115234375 120.77828979492188 74.45281982421875 115.22203063964844 83.14959716796875 106.28367614746094 95.95318603515624 95.89590454101563 99.81838989257813 92.272216796875 103.44204711914063 91.0643310546875 105.13311767578124 90.82278442382813 105.13311767578124 90.82278442382813 " />
        <polyline stroke="black" stroke-width="3" stroke-linecap="round" fill="transparent" stroke-linejoin="round" points="83.63275146484375 60.62565612792969 83.14959716796875 76.32815551757813 82.66644287109375 95.89590454101563 82.18328857421875 117.87937927246094 81.45858764648438 143.2449493408203 80.25067138671875 169.33523559570313 79.284423828125 192.526611328125 78.55966186523438 210.40328979492188 78.31805419921875 223.44842529296875 77.59335327148438 233.59466552734375 76.62704467773438 237.70150756835935 76.62704467773438 237.70150756835935 " />
        <polyline stroke="black" stroke-width="3" stroke-linecap="round" fill="transparent" stroke-linejoin="round" points="66.48080444335938 165.71160888671875 64.30657958984375 170.05996704101563 61.890838623046875 174.1667938232422 57.784027099609375 184.31301879882813 53.194061279296875 193.97604370117188 47.879364013671875 202.189697265625 44.2557373046875 207.2628173828125 44.2557373046875 207.2628173828125 " />
        <polyline stroke="black" stroke-width="3" stroke-linecap="round" fill="transparent" stroke-linejoin="round" points="92.08795166015624 170.54310607910156 95.22842407226563 172.95887756347656 99.81838989257813 177.30726623535156 103.92520141601563 181.17250061035156 108.51516723632813 184.31301879882813 111.17251586914063 186.24560546875 112.13882446289063 188.17822265625 112.13882446289063 188.17822265625 " />
        <polyline stroke="black" stroke-width="3" stroke-linecap="round" fill="transparent" stroke-linejoin="round" points="143.785400390625 67.38981628417969 145.47640991210938 69.08085632324219 147.4090576171875 70.77189636230469 150.06634521484375 72.94607543945313 151.03271484375 73.18765258789063 151.03271484375 73.18765258789063 " />
        <polyline stroke="black" stroke-width="3" stroke-linecap="round" fill="transparent" stroke-linejoin="round" points="170.60040283203125 60.62565612792969 163.11151123046875 70.04716491699219 153.2069091796875 83.81704711914063 144.26849365234375 97.103759765625 130.0155029296875 121.26144409179688 126.63345336914063 126.5761260986328 116.24563598632813 141.79547119140625 112.38040161132813 146.62701416015625 112.38040161132813 146.62701416015625 " />
        <polyline stroke="black" stroke-width="3" stroke-linecap="round" fill="transparent" stroke-linejoin="round" points="133.3975830078125 99.27796936035156 144.02694702148438 105.80052185058594 153.6900634765625 112.08151245117188 165.2857666015625 119.08726501464844 176.63983154296875 124.88508605957033 187.02764892578125 129.23348999023438 199.83123779296875 133.5818634033203 204.6627197265625 135.75604248046875 207.0784912109375 137.44708251953125 207.0784912109375 137.44708251953125 " />
        <polyline stroke="black" stroke-width="3" stroke-linecap="round" fill="transparent" stroke-linejoin="round" points="139.920166015625 147.1101837158203 136.2965087890625 156.2900848388672 131.70657348632813 165.9531707763672 126.63345336914063 172.95887756347656 121.3187255859375 181.4140625 119.14456176757813 185.762451171875 117.4534912109375 188.17822265625 117.4534912109375 188.17822265625 " />
        <polyline stroke="black" stroke-width="3" stroke-linecap="round" fill="transparent" stroke-linejoin="round" points="148.37533569335938 155.08221435546875 156.5889892578125 153.6327362060547 163.8363037109375 152.6664276123047 171.0836181640625 151.2169647216797 183.6455078125 149.04278564453125 186.78607177734375 148.5596160888672 194.75811767578125 148.31805419921875 199.1064453125 149.04278564453125 201.0390625 149.5259246826172 202.00537109375 150.4922637939453 200.79754638671875 153.14959716796875 191.859130859375 162.5710906982422 185.09503173828125 170.05996704101563 174.46563720703125 177.5488739013672 165.76885986328125 184.31301879882813 154.414794921875 193.009765625 141.12802124023438 206.05490112304688 136.2965087890625 210.6448974609375 124.7008056640625 219.10006713867188 122.526611328125 221.27426147460935 115.5208740234375 226.5889587402344 110.6893310546875 229.24630737304688 106.82412719726563 230.21258544921875 104.40835571289063 231.42047119140625 104.40835571289063 231.42047119140625 " />
        <polyline stroke="black" stroke-width="3" stroke-linecap="round" fill="transparent" stroke-linejoin="round" points="144.751708984375 185.0377197265625 153.6900634765625 191.3187255859375 163.59466552734375 198.5660095214844 173.49932861328125 209.1954040527344 182.67919921875 218.13375854492188 188.96026611328125 228.27999877929688 194.27490234375 237.21832275390625 194.27490234375 237.21832275390625 " />
        </svg>