<?xml version="1.0" standalone="no"?>
    <svg width="256" height="256" xmlns="http://www.w3.org/2000/svg" version="1.1">
    <polyline stroke="black" stroke-width="3" stroke-linecap="round" fill="transparent" stroke-linejoin="round" points="55.290130615234375 79.13569641113281 62.550445556640625 76.82562255859375 102.15191650390624 67.25526428222656 109.41217041015624 66.26521301269531 130.86297607421875 63.6251220703125 149.013671875 60.655029296875 161.55413818359375 58.34492492675781 166.50439453125 56.694854736328125 166.50439453125 56.694854736328125 166.50439453125 56.694854736328125 " />
        <polyline stroke="black" stroke-width="3" stroke-linecap="round" fill="transparent" stroke-linejoin="round" points="123.60272216796876 34.91404724121094 117.33248901367188 43.49437713623047 114.03231811523438 48.774559020996094 93.2415771484375 88.7060546875 88.62136840820313 98.27642822265624 77.07095336914063 126.657470703125 67.83062744140625 145.46820068359375 63.8704833984375 154.3785400390625 63.8704833984375 154.3785400390625 63.8704833984375 154.3785400390625 " />
        <polyline stroke="black" stroke-width="3" stroke-linecap="round" fill="transparent" stroke-linejoin="round" points="91.59149169921876 94.64630126953124 113.04232788085938 103.2266082763672 149.34368896484375 120.0572509765625 155.283935546875 122.69734191894533 171.45452880859375 130.6176300048828 180.36480712890625 134.57777404785156 180.36480712890625 134.57777404785156 180.36480712890625 134.57777404785156 " />
        <polyline stroke="black" stroke-width="3" stroke-linecap="round" fill="transparent" stroke-linejoin="round" points="174.754638671875 71.54542541503906 156.60400390625 89.03607177734375 134.1630859375 111.47691345214844 130.532958984375 115.76707458496094 130.532958984375 115.76707458496094 130.532958984375 115.76707458496094 " />
        <polyline stroke="black" stroke-width="3" stroke-linecap="round" fill="transparent" stroke-linejoin="round" points="132.5130615234375 96.62638854980467 145.383544921875 93.65625 166.17431640625 94.97630310058594 168.81439208984375 95.96633911132813 175.08465576171875 98.6064453125 175.08465576171875 98.6064453125 175.08465576171875 98.6064453125 " />
        <polyline stroke="black" stroke-width="3" stroke-linecap="round" fill="transparent" stroke-linejoin="round" points="81.0311279296875 146.7882537841797 96.54168701171876 146.45823669433594 102.81195068359376 146.45823669433594 132.84304809570313 144.8081512451172 138.12322998046875 144.4781494140625 150.99371337890625 143.81814575195313 156.9339599609375 143.15809631347656 156.9339599609375 143.15809631347656 156.9339599609375 143.15809631347656 " />
        <polyline stroke="black" stroke-width="3" stroke-linecap="round" fill="transparent" stroke-linejoin="round" points="82.35116577148438 191.33990478515625 103.14193725585938 187.70977783203125 151.65380859375 180.7795257568359 159.57403564453125 180.11947631835938 181.02490234375 182.4296112060547 186.3050537109375 184.40966796875 186.3050537109375 184.40966796875 " />
        </svg>