<?xml version="1.0" standalone="no"?>
    <svg width="256" height="256" xmlns="http://www.w3.org/2000/svg" version="1.1">
    <polyline stroke="black" stroke-width="3" stroke-linecap="round" fill="transparent" stroke-linejoin="round" points="57.499908447265625 99.4199676513672 69.767578125 94.95899963378906 94.3028564453125 86.59469604492188 119.95339965820313 79.34562683105469 139.4700927734375 72.65419006347656 155.64111328125 66.52035522460938 166.79351806640625 62.05938720703125 174.6002197265625 58.71366882324219 174.6002197265625 58.71366882324219 " />
        <polyline stroke="black" stroke-width="3" stroke-linecap="round" fill="transparent" stroke-linejoin="round" points="127.76007080078124 34.735992431640625 123.29913330078124 43.10029602050781 118.280517578125 57.040802001953125 107.68572998046876 83.80659484863281 98.76382446289063 105.55378723144533 91.5147705078125 123.39764404296876 83.70806884765625 137.89578247070313 77.57424926757813 147.93295288085938 73.6708984375 152.95152282714844 72.5556640625 152.95152282714844 72.5556640625 152.95152282714844 " />
        <polyline stroke="black" stroke-width="3" stroke-linecap="round" fill="transparent" stroke-linejoin="round" points="100.99432373046876 109.45713806152344 112.146728515625 111.6876220703125 126.64483642578124 116.14857482910156 147.27679443359375 121.72477722167967 162.33251953125 126.7433624267578 176.2730712890625 131.20433044433594 185.75262451171875 134.550048828125 191.328857421875 136.22291564941406 196.347412109375 135.10768127441406 196.347412109375 135.10768127441406 " />
        <polyline stroke="black" stroke-width="3" stroke-linecap="round" fill="transparent" stroke-linejoin="round" points="184.0797119140625 68.19322204589844 180.1763916015625 76.55752563476563 175.7154541015625 82.13372802734375 169.58160400390625 89.94041442871094 161.77490234375 98.8623504638672 154.52587890625 106.11140441894533 149.50726318359375 111.12998962402344 145.60394287109375 113.9180908203125 144.48870849609375 113.9180908203125 144.48870849609375 113.9180908203125 " />
        <polyline stroke="black" stroke-width="3" stroke-linecap="round" fill="transparent" stroke-linejoin="round" points="144.48870849609375 97.18948364257813 156.19873046875 97.18948364257813 162.33251953125 97.18948364257813 167.35113525390625 98.8623504638672 172.3697509765625 100.5352020263672 180.1763916015625 104.99617004394533 180.1763916015625 104.99617004394533 " />
        <polyline stroke="black" stroke-width="3" stroke-linecap="round" fill="transparent" stroke-linejoin="round" points="92.6300048828125 156.29725646972656 102.10955810546876 154.0667724609375 111.03146362304688 152.95152282714844 121.06863403320313 151.83628845214844 132.2210693359375 150.16342163085938 140.58535766601563 149.04818725585938 146.16156005859375 149.04818725585938 146.16156005859375 149.04818725585938 " />
        <polyline stroke="black" stroke-width="3" stroke-linecap="round" fill="transparent" stroke-linejoin="round" points="44.11700439453125 200.34927368164065 56.942291259765625 196.4459228515625 69.767578125 194.2154541015625 93.1876220703125 192.5425720214844 117.165283203125 191.4273376464844 135.0091552734375 190.8697204589844 150.06488037109375 190.8697204589844 160.65966796875 190.8697204589844 165.67828369140625 191.9849548339844 165.67828369140625 191.9849548339844 " />
        </svg>