<?xml version="1.0" standalone="no"?>
    <svg width="256" height="256" xmlns="http://www.w3.org/2000/svg" version="1.1">
    <polyline stroke="black" stroke-width="3" stroke-linecap="round" fill="transparent" stroke-linejoin="round" points="40 89 45 87 56 82 76 73 100 66 123 60 141 58 153 54 153 54 " />
        <polyline stroke="black" stroke-width="3" stroke-linecap="round" fill="transparent" stroke-linejoin="round" points="110 27 102 48 99 60 87 89 71 124 51 156 35 180 23 194 18 198 18 198 " />
        <polyline stroke="black" stroke-width="3" stroke-linecap="round" fill="transparent" stroke-linejoin="round" points="88 110 102 114 123 118 145 126 172 136 191 142 211 147 227 148 237 148 237 148 " />
        <polyline stroke="black" stroke-width="3" stroke-linecap="round" fill="transparent" stroke-linejoin="round" points="190 70 183 85 173 103 159 119 145 133 139 136 139 136 " />
        <polyline stroke="black" stroke-width="3" stroke-linecap="round" fill="transparent" stroke-linejoin="round" points="145 89 164 99 180 105 196 111 213 117 213 117 " />
        <polyline stroke="black" stroke-width="3" stroke-linecap="round" fill="transparent" stroke-linejoin="round" points="92 178 98 177 112 175 128 171 147 168 161 165 170 165 170 165 " />
        <polyline stroke="black" stroke-width="3" stroke-linecap="round" fill="transparent" stroke-linejoin="round" points="73 226 84 228 106 223 131 216 155 212 176 210 192 210 192 210 " />
        </svg>