<?xml version="1.0" standalone="no"?>
    <svg width="256" height="256" xmlns="http://www.w3.org/2000/svg" version="1.1">
    <polyline stroke="black" stroke-width="3" stroke-linecap="round" fill="transparent" stroke-linejoin="round" points="66.76336669921875 124.19889831542967 75.43743896484375 118.00314331054688 82.45928955078125 113.87261962890624 89.48114013671875 110.15518188476563 105.177001953125 103.54637145996094 119.6337890625 99.0028076171875 133.264404296875 94.4592742919922 143.5906982421875 91.56790161132813 148.54730224609375 89.91571044921875 150.612548828125 87.85044860839844 150.612548828125 87.85044860839844 " />
        <polyline stroke="black" stroke-width="3" stroke-linecap="round" fill="transparent" stroke-linejoin="round" points="110.54669189453124 68.43708801269531 108.068359375 87.85044860839844 104.76400756835938 112.63346862792967 100.22042846679688 139.4817352294922 89.48114013671875 181.19981384277344 81.63314819335938 205.98284912109375 76.26351928710938 219.200439453125 72.13299560546875 224.57009887695313 71.306884765625 224.983154296875 71.306884765625 224.983154296875 " />
        <polyline stroke="black" stroke-width="3" stroke-linecap="round" fill="transparent" stroke-linejoin="round" points="103.52484130859376 149.8079833984375 113.43804931640624 154.35154724121094 120.04684448242188 158.06900024414063 127.48175048828124 162.612548828125 135.74276733398438 167.56915283203125 151.43865966796875 177.06930541992188 165.89544677734375 185.330322265625 176.63470458984375 190.69998168945313 184.06964111328125 193.59130859375 184.06964111328125 193.59130859375 " />
        <polyline stroke="black" stroke-width="3" stroke-linecap="round" fill="transparent" stroke-linejoin="round" points="141.52545166015625 86.19825744628906 152.2647705078125 84.13299560546875 158.0474853515625 83.71995544433594 163.8302001953125 83.30690002441406 174.15643310546875 83.30690002441406 180.7652587890625 84.13299560546875 184.895751953125 85.78520202636719 188.20013427734375 91.98097229003906 189.0262451171875 103.54637145996094 184.482666015625 120.068359375 176.63470458984375 134.52513122558594 167.547607421875 144.85137939453125 163.4171142578125 148.98190307617188 163.4171142578125 148.98190307617188 " />
        <polyline stroke="black" stroke-width="3" stroke-linecap="round" fill="transparent" stroke-linejoin="round" points="141.11239624023438 147.32969665527344 155.982177734375 146.09054565429688 169.6129150390625 148.15579223632813 176.63470458984375 150.22103881835938 192.3306884765625 158.48204040527344 192.3306884765625 158.48204040527344 " />
        </svg>