<?xml version="1.0" standalone="no"?>
    <svg width="256" height="256" xmlns="http://www.w3.org/2000/svg" version="1.1">
    <polyline stroke="black" stroke-width="3" stroke-linecap="round" fill="transparent" stroke-linejoin="round" points="43 105 52 101 65 99 90 91 103 86 110 83 110 83 " />
        <polyline stroke="black" stroke-width="3" stroke-linecap="round" fill="transparent" stroke-linejoin="round" points="99 55 88 68 84 86 78 105 69 128 59 155 50 181 45 198 44 201 44 201 " />
        <polyline stroke="black" stroke-width="3" stroke-linecap="round" fill="transparent" stroke-linejoin="round" points="69 143 91 150 105 159 127 172 153 181 176 187 198 188 210 188 210 188 " />
        <polyline stroke="black" stroke-width="3" stroke-linecap="round" fill="transparent" stroke-linejoin="round" points="126 74 132 73 138 73 154 71 167 71 172 71 182 71 182 77 173 95 162 112 156 118 156 118 " />
        <polyline stroke="black" stroke-width="3" stroke-linecap="round" fill="transparent" stroke-linejoin="round" points="135 126 144 131 150 132 165 140 182 154 188 162 188 162 " />
        </svg>