<?xml version="1.0" standalone="no"?>
    <svg width="256" height="256" xmlns="http://www.w3.org/2000/svg" version="1.1">
    <polyline stroke="black" stroke-width="3" stroke-linecap="round" fill="transparent" stroke-linejoin="round" points="43.281951904296875 131.5181579589844 55.556732177734375 125.38079833984376 67.83151245117188 119.24343872070313 90.67620849609376 108.33255004882813 111.47509765625 97.0806884765625 119.99920654296876 90.94329833984376 126.81854248046876 84.80592346191406 126.81854248046876 84.80592346191406 " />
        <polyline stroke="black" stroke-width="3" stroke-linecap="round" fill="transparent" stroke-linejoin="round" points="88.63037109375 81.39630126953124 84.8797607421875 97.0806884765625 81.129150390625 112.76507568359376 72.60504150390625 140.7242431640625 67.83151245117188 153.3399658203125 57.6025390625 175.1617431640625 49.760345458984375 192.8919677734375 44.98681640625 203.4619140625 44.98681640625 203.4619140625 " />
        <polyline stroke="black" stroke-width="3" stroke-linecap="round" fill="transparent" stroke-linejoin="round" points="76.35562133789063 148.56643676757813 81.129150390625 152.3170623779297 85.90267944335938 156.06768798828125 97.154541015625 165.61473083496094 108.0654296875 174.13885498046875 114.20281982421876 177.5485076904297 114.20281982421876 177.5485076904297 " />
        <polyline stroke="black" stroke-width="3" stroke-linecap="round" fill="transparent" stroke-linejoin="round" points="151.36810302734375 113.10603332519531 152.04998779296875 118.56149291992188 152.73187255859375 124.01695251464844 153.0728759765625 128.7904510498047 153.75482177734375 134.92784118652344 153.75482177734375 136.9736328125 153.75482177734375 136.9736328125 " />
        <polyline stroke="black" stroke-width="3" stroke-linecap="round" fill="transparent" stroke-linejoin="round" points="161.596923828125 82.41915893554688 168.0753173828125 80.03240966796875 174.5537109375 77.64566040039063 181.031982421875 75.599853515625 187.16937255859375 74.57696533203125 197.39837646484375 75.2589111328125 203.876708984375 78.66854858398438 209.3321533203125 87.87460327148438 211.0369873046875 104.92288208007813 204.89959716796875 124.69888305664063 204.89959716796875 124.69888305664063 " />
        <polyline stroke="black" stroke-width="3" stroke-linecap="round" fill="transparent" stroke-linejoin="round" points="128.8643798828125 169.36532592773438 128.52337646484375 174.13885498046875 128.182373046875 178.91238403320313 127.84140014648438 183.34490966796875 127.15948486328124 189.141357421875 127.15948486328124 190.50518798828125 128.52337646484375 188.80035400390625 133.6378173828125 183.0039520263672 143.86679077148438 172.77499389648438 157.84637451171875 160.84121704101563 175.235595703125 149.93032836914063 192.9658203125 142.4290771484375 207.286376953125 139.36038208007813 216.492431640625 140.04232788085938 220.92498779296875 142.08811950683594 222.288818359375 144.474853515625 214.78759765625 165.9556884765625 181.031982421875 195.61968994140625 181.031982421875 195.61968994140625 " />
        <polyline stroke="black" stroke-width="3" stroke-linecap="round" fill="transparent" stroke-linejoin="round" points="115.566650390625 212.3270263671875 129.20526123046875 208.57638549804688 142.8438720703125 204.82574462890625 167.3934326171875 199.71127319335935 190.23809814453125 196.98355102539065 216.1514892578125 194.5968017578125 230.13104248046875 193.57388305664065 245.8154296875 195.96063232421875 245.8154296875 195.96063232421875 " />
        </svg>