<?xml version="1.0" standalone="no"?>
    <svg width="256" height="256" xmlns="http://www.w3.org/2000/svg" version="1.1">
    <polyline stroke="black" stroke-width="3" stroke-linecap="round" fill="transparent" stroke-linejoin="round" points="47 102 54 102 61 102 71 99 79 97 87 96 93 95 93 95 " />
        <polyline stroke="black" stroke-width="3" stroke-linecap="round" fill="transparent" stroke-linejoin="round" points="88 65 83 86 78 107 73 131 66 151 60 168 54 180 51 183 51 183 " />
        <polyline stroke="black" stroke-width="3" stroke-linecap="round" fill="transparent" stroke-linejoin="round" points="83 130 91 141 99 152 108 162 117 167 127 168 127 168 " />
        <polyline stroke="black" stroke-width="3" stroke-linecap="round" fill="transparent" stroke-linejoin="round" points="136 52 136 66 136 80 136 94 136 103 137 106 137 106 " />
        <polyline stroke="black" stroke-width="3" stroke-linecap="round" fill="transparent" stroke-linejoin="round" points="151 43 156 43 161 43 171 43 180 44 187 49 192 54 194 60 195 72 195 87 186 101 186 101 " />
        <polyline stroke="black" stroke-width="3" stroke-linecap="round" fill="transparent" stroke-linejoin="round" points="125 121 125 126 125 131 125 146 128 160 132 170 134 177 137 177 137 177 " />
        <polyline stroke="black" stroke-width="3" stroke-linecap="round" fill="transparent" stroke-linejoin="round" points="110 103 122 101 134 99 152 96 171 95 190 95 200 95 208 101 209 113 209 126 208 139 205 150 201 157 200 160 200 160 " />
        <polyline stroke="black" stroke-width="3" stroke-linecap="round" fill="transparent" stroke-linejoin="round" points="91 180 107 175 123 170 144 165 169 159 191 157 212 156 212 156 " />
        </svg>