<?xml version="1.0" standalone="no"?>
    <svg width="256" height="256" xmlns="http://www.w3.org/2000/svg" version="1.1">
    <polyline stroke="black" stroke-width="3" stroke-linecap="round" fill="transparent" stroke-linejoin="round" points="37 147 45 147 53 147 61 143 71 137 79 132 87 126 92 122 95 120 97 118 98 118 98 117 98 114 98 114 " />
        <polyline stroke="black" stroke-width="3" stroke-linecap="round" fill="transparent" stroke-linejoin="round" points="88 88 88 91 88 98 87 110 82 130 75 151 69 172 65 188 62 200 61 209 60 215 59 219 58 220 57 220 55 220 55 220 " />
        <polyline stroke="black" stroke-width="3" stroke-linecap="round" fill="transparent" stroke-linejoin="round" points="78 138 86 144 92 152 100 162 110 171 118 176 124 179 129 181 133 184 134 184 134 184 " />
        <polyline stroke="black" stroke-width="3" stroke-linecap="round" fill="transparent" stroke-linejoin="round" points="142 80 139 88 139 94 139 104 139 112 140 119 141 124 143 126 144 128 145 129 146 129 147 127 147 127 " />
        <polyline stroke="black" stroke-width="3" stroke-linecap="round" fill="transparent" stroke-linejoin="round" points="149 85 150 87 155 87 163 87 174 86 182 86 187 85 193 85 198 84 200 84 201 84 201 85 199 90 195 97 192 102 189 106 185 110 181 112 181 112 " />
        <polyline stroke="black" stroke-width="3" stroke-linecap="round" fill="transparent" stroke-linejoin="round" points="125 135 125 137 125 141 125 148 126 160 127 176 129 191 131 200 132 206 133 208 134 209 135 209 135 209 " />
        <polyline stroke="black" stroke-width="3" stroke-linecap="round" fill="transparent" stroke-linejoin="round" points="134 130 137 133 142 133 147 133 154 133 165 133 176 130 186 128 194 127 201 126 207 126 211 126 213 126 213 128 213 135 210 143 205 152 201 162 198 168 196 173 193 177 191 180 189 182 183 186 183 186 " />
        <polyline stroke="black" stroke-width="3" stroke-linecap="round" fill="transparent" stroke-linejoin="round" points="95 217 99 216 105 216 115 213 128 208 144 204 158 198 179 192 196 189 215 188 230 188 239 191 244 194 246 198 247 201 247 205 244 207 244 207 " />
        </svg>