<?xml version="1.0" standalone="no"?>
    <svg width="256" height="256" xmlns="http://www.w3.org/2000/svg" version="1.1">
    <polyline stroke="black" stroke-width="3" stroke-linecap="round" fill="transparent" stroke-linejoin="round" points="20 118 19 118 20 118 24 117 26 117 35 117 39 117 42 116 51 115 55 115 59 114 68 113 77 111 81 110 89 107 93 105 97 104 100 102 " />
        <polyline stroke="black" stroke-width="3" stroke-linecap="round" fill="transparent" stroke-linejoin="round" points="69 67 62 91 59 103 58 110 57 118 53 142 51 150 47 172 46 178 45 184 43 189 40 201 38 205 36 211 35 213 35 215 33 217 33 217 33 217 " />
        <polyline stroke="black" stroke-width="3" stroke-linecap="round" fill="transparent" stroke-linejoin="round" points="53 144 53 144 55 144 56 144 57 144 58 145 59 145 61 147 63 149 66 153 71 158 73 161 76 163 78 166 81 170 90 178 95 183 98 185 103 188 106 188 109 188 113 186 " />
        <polyline stroke="black" stroke-width="3" stroke-linecap="round" fill="transparent" stroke-linejoin="round" points="128 69 128 70 128 71 128 73 128 75 129 84 129 87 131 98 132 102 133 106 134 113 136 119 137 127 138 129 139 132 140 133 141 134 " />
        <polyline stroke="black" stroke-width="3" stroke-linecap="round" fill="transparent" stroke-linejoin="round" points="136 81 140 75 144 71 147 69 151 67 153 66 157 64 162 63 167 62 169 63 172 63 176 64 180 65 182 66 184 66 186 68 188 71 189 74 189 76 188 79 187 86 184 94 181 102 179 106 " />
        <polyline stroke="black" stroke-width="3" stroke-linecap="round" fill="transparent" stroke-linejoin="round" points="125 135 123 136 122 139 122 140 122 142 123 147 123 149 124 152 125 158 126 161 127 165 129 173 130 176 131 180 133 191 134 193 134 196 135 199 136 200 " />
        <polyline stroke="black" stroke-width="3" stroke-linecap="round" fill="transparent" stroke-linejoin="round" points="117 151 118 147 119 146 121 143 122 142 123 141 128 137 131 136 136 134 138 133 141 132 148 131 154 130 161 129 165 129 168 128 178 127 181 127 184 127 187 128 192 128 194 128 196 128 198 129 199 129 202 130 203 131 205 133 206 134 207 136 206 144 205 147 204 150 200 158 197 161 194 165 190 169 187 172 " />
        <polyline stroke="black" stroke-width="3" stroke-linecap="round" fill="transparent" stroke-linejoin="round" points="88 205 86 203 87 202 89 201 96 198 98 197 101 196 107 195 111 195 119 194 128 193 133 193 148 193 153 192 157 192 167 192 172 191 177 191 187 189 191 188 195 187 199 187 205 185 208 184 213 182 215 181 " />
        </svg>