<?xml version="1.0" standalone="no"?>
    <svg width="256" height="256" xmlns="http://www.w3.org/2000/svg" version="1.1">
    <polyline stroke="black" stroke-width="3" stroke-linecap="round" fill="transparent" stroke-linejoin="round" points="73.74057006835938 44.60216522216797 84.82601928710938 54.45586395263672 91.3951416015625 62.2567138671875 96.73260498046876 72.52099609375 99.19601440429688 85.24868774414063 99.19601440429688 85.24868774414063 " />
        <polyline stroke="black" stroke-width="3" stroke-linecap="round" fill="transparent" stroke-linejoin="round" points="53.2120361328125 102.08212280273438 72.09832763671875 92.22840881347656 86.46826171875 87.71211242675781 101.24887084960938 84.83811950683594 113.9765625 83.60641479492188 125.06195068359376 84.0169677734375 133.27337646484375 85.24868774414063 133.27337646484375 85.24868774414063 " />
        <polyline stroke="black" stroke-width="3" stroke-linecap="round" fill="transparent" stroke-linejoin="round" points="61.83404541015625 134.5172119140625 87.2894287109375 125.89520263671876 100.427734375 123.02122497558594 111.92367553710938 120.96836853027344 121.3668212890625 120.147216796875 128.34652709960938 119.32609558105467 131.22055053710938 118.50494384765624 131.22055053710938 118.50494384765624 " />
        <polyline stroke="black" stroke-width="3" stroke-linecap="round" fill="transparent" stroke-linejoin="round" points="102.07000732421876 95.92355346679688 96.73260498046876 109.47239685058594 89.34228515625 131.23263549804688 76.61459350585938 166.9523162841797 67.58203125 189.53372192382813 61.83404541015625 203.08258056640625 58.138885498046875 210.47283935546875 57.3177490234375 212.1151123046875 57.3177490234375 212.1151123046875 " />
        <polyline stroke="black" stroke-width="3" stroke-linecap="round" fill="transparent" stroke-linejoin="round" points="93.85858154296876 141.49691772460938 107.40740966796876 152.99290466308594 111.92367553710938 157.09861755371094 116.85055541992188 161.61489868164063 125.06195068359376 169.82632446289063 132.04168701171875 176.80601501464844 135.32626342773438 180.91172790527344 135.32626342773438 180.91172790527344 " />
        <polyline stroke="black" stroke-width="3" stroke-linecap="round" fill="transparent" stroke-linejoin="round" points="143.1270751953125 119.73666381835938 157.0865478515625 111.11466979980467 164.06622314453125 109.0618133544922 185.82647705078125 105.36666870117188 199.3753662109375 103.72439575195313 211.69244384765625 102.49267578125 218.2615966796875 100.85040283203124 218.2615966796875 100.85040283203124 " />
        <polyline stroke="black" stroke-width="3" stroke-linecap="round" fill="transparent" stroke-linejoin="round" points="198.14361572265625 49.529014587402344 193.21673583984375 59.382720947265625 185.4158935546875 81.55355834960938 176.38330078125 109.47239685058594 166.940185546875 137.39120483398438 157.0865478515625 164.07830810546875 151.74908447265625 177.62716674804688 143.1270751953125 198.15570068359375 137.37908935546875 210.47283935546875 137.37908935546875 210.47283935546875 " />
        <polyline stroke="black" stroke-width="3" stroke-linecap="round" fill="transparent" stroke-linejoin="round" points="168.9930419921875 107.83010864257813 178.8468017578125 119.73666381835938 189.11102294921875 133.69607543945313 194.85906982421875 141.49691772460938 210.460693359375 164.8994598388672 219.90386962890625 178.85887145996094 227.70477294921875 191.99713134765625 236.3267822265625 207.18829345703125 238.7901611328125 212.1151123046875 238.7901611328125 212.1151123046875 " />
        </svg>