<?xml version="1.0" standalone="no"?>
    <svg width="256" height="256" xmlns="http://www.w3.org/2000/svg" version="1.1">
    <polyline stroke="black" stroke-width="3" stroke-linecap="round" fill="transparent" stroke-linejoin="round" points="82.542236328125 66.75357055664063 87.67987060546875 79.96470642089844 91.349609375 85.83631896972656 96.4873046875 90.97398376464844 96.4873046875 90.97398376464844 " />
        <polyline stroke="black" stroke-width="3" stroke-linecap="round" fill="transparent" stroke-linejoin="round" points="51.7161865234375 114.46043395996094 75.20269775390625 103.45114135742188 96.4873046875 96.11163330078124 115.570068359375 92.44189453125 134.6527099609375 90.2400360107422 139.7904052734375 90.2400360107422 141.2584228515625 90.97398376464844 141.2584228515625 90.97398376464844 " />
        <polyline stroke="black" stroke-width="3" stroke-linecap="round" fill="transparent" stroke-linejoin="round" points="64.1934814453125 137.94686889648438 80.34033203125 131.34130859375 89.14776611328125 128.40553283691406 105.29473876953124 124.00180053710938 120.7076416015625 122.5338897705078 125.11138916015624 121.79994201660156 128.04718017578125 121.79994201660156 128.04718017578125 121.79994201660156 " />
        <polyline stroke="black" stroke-width="3" stroke-linecap="round" fill="transparent" stroke-linejoin="round" points="96.4873046875 93.9097900390625 95.0194091796875 111.5246124267578 86.94586181640625 146.75430297851563 78.13848876953125 168.0388946533203 69.3310546875 187.12164306640625 62.72552490234375 200.332763671875 59.7896728515625 206.20437622070313 57.58782958984375 207.6722717285156 57.58782958984375 207.6722717285156 " />
        <polyline stroke="black" stroke-width="3" stroke-linecap="round" fill="transparent" stroke-linejoin="round" points="90.61566162109376 152.6259002685547 113.3681640625 169.5067901611328 121.44158935546876 176.1123809814453 128.04718017578125 179.78213500976563 130.9830322265625 180.51605224609375 130.9830322265625 180.51605224609375 " />
        <polyline stroke="black" stroke-width="3" stroke-linecap="round" fill="transparent" stroke-linejoin="round" points="138.322509765625 113.72648620605467 153.7354736328125 109.32276916503906 172.8182373046875 104.1851043701172 189.6990966796875 100.5153350830078 202.1763916015625 99.04747009277344 209.515869140625 98.31349182128906 212.45166015625 97.5795440673828 211.7176513671875 96.8455810546875 211.7176513671875 96.8455810546875 " />
        <polyline stroke="black" stroke-width="3" stroke-linecap="round" fill="transparent" stroke-linejoin="round" points="177.221923828125 58.68013000488281 173.55224609375 79.23077392578125 169.8824462890625 93.9097900390625 161.8089599609375 126.2036590576172 147.1298828125 166.5709991455078 136.8546142578125 187.12164306640625 128.7811279296875 201.8006591796875 122.9095458984375 209.8741455078125 119.23980712890624 211.342041015625 119.23980712890624 211.342041015625 " />
        <polyline stroke="black" stroke-width="3" stroke-linecap="round" fill="transparent" stroke-linejoin="round" points="175.7540283203125 124.73576354980467 184.5614013671875 145.28639221191406 197.7725830078125 168.77285766601563 212.45166015625 190.05743408203125 233.0023193359375 210.60809326171875 246.947265625 217.21365356445313 246.947265625 217.21365356445313 " />
        </svg>