<?xml version="1.0" standalone="no"?>
    <svg width="256" height="256" xmlns="http://www.w3.org/2000/svg" version="1.1">
    <polyline stroke="black" stroke-width="3" stroke-linecap="round" fill="transparent" stroke-linejoin="round" points="47.7352294921875 92.16513061523438 59.724822998046875 93.54855346679688 62.491668701171875 94.4708251953125 65.25848388671875 95.39309692382813 70.7921142578125 98.62106323242188 76.32577514648438 103.69358825683594 79.09262084960938 107.3826904296875 84.62628173828125 117.52774047851563 86.4708251953125 126.75048828125 85.54855346679688 130.90072631835938 85.54855346679688 130.90072631835938 " />
        <polyline stroke="black" stroke-width="3" stroke-linecap="round" fill="transparent" stroke-linejoin="round" points="35.74566650390625 145.19601440429688 49.11865234375 138.2789306640625 56.9580078125 134.12869262695313 66.18075561523438 129.97845458984375 75.40353393554688 126.28936767578124 92.00448608398438 120.2945556640625 107.68319702148438 116.14431762695313 115.52255249023438 114.76089477539063 117.3670654296875 115.2220458984375 117.3670654296875 115.2220458984375 " />
        <polyline stroke="black" stroke-width="3" stroke-linecap="round" fill="transparent" stroke-linejoin="round" points="41.740447998046875 183.0093231201172 54.191162109375 181.62591552734375 61.108245849609375 179.78135681152344 68.4864501953125 177.47567749023438 90.62106323242188 168.25291442871094 102.61068725585938 160.41355895996094 102.61068725585938 160.41355895996094 " />
        <polyline stroke="black" stroke-width="3" stroke-linecap="round" fill="transparent" stroke-linejoin="round" points="98.46041870117188 124.44479370117188 83.7039794921875 145.6571502685547 77.248046875 159.95242309570313 62.491668701171875 196.38232421875 55.11346435546875 210.6776123046875 51.42431640625 218.05581665039065 50.04095458984375 218.97808837890625 50.04095458984375 218.5169677734375 50.04095458984375 218.5169677734375 " />
        <polyline stroke="black" stroke-width="3" stroke-linecap="round" fill="transparent" stroke-linejoin="round" points="68.02532958984375 189.46527099609375 80.93719482421875 191.309814453125 97.999267578125 195.4600524902344 106.76092529296876 197.7657470703125 128.43441772460938 200.99371337890625 138.1182861328125 197.7657470703125 138.1182861328125 197.7657470703125 " />
        <polyline stroke="black" stroke-width="3" stroke-linecap="round" fill="transparent" stroke-linejoin="round" points="140.42401123046875 143.81259155273438 155.64154052734375 136.89553833007813 163.019775390625 134.58984375 184.6932373046875 129.0561981201172 196.68280029296875 124.44479370117188 201.75537109375 119.37229919433594 201.75537109375 119.37229919433594 " />
        <polyline stroke="black" stroke-width="3" stroke-linecap="round" fill="transparent" stroke-linejoin="round" points="169.4757080078125 59.885467529296875 161.1751708984375 82.02009582519531 156.5638427734375 99.08219909667967 151.952392578125 121.21682739257813 138.57943725585938 186.69842529296875 133.04574584960938 212.9833068847656 130.2789306640625 224.51174926757813 129.81781005859375 227.278564453125 129.81781005859375 227.278564453125 " />
        <polyline stroke="black" stroke-width="3" stroke-linecap="round" fill="transparent" stroke-linejoin="round" points="162.55859375 151.19082641601563 176.39276123046875 163.18038940429688 184.23211669921875 170.55859375 193.454833984375 179.32022094726563 202.21649169921875 188.08184814453125 221.1231689453125 210.6776123046875 221.1231689453125 210.6776123046875 " />
        </svg>