<?xml version="1.0" standalone="no"?>
    <svg width="256" height="256" xmlns="http://www.w3.org/2000/svg" version="1.1">
    <polyline stroke="black" stroke-width="3" stroke-linecap="round" fill="transparent" stroke-linejoin="round" points="67.90036010742188 84.44403076171875 70.62060546875 98.53895568847656 72.51190185546875 115.49395751953124 73.1336669921875 144.48362731933594 72.63986206054688 154.8084716796875 71.97393798828125 160.87420654296875 71.53973388671875 162.56622314453125 71.535400390625 162.58306884765625 75.593017578125 161.97959899902344 92.0731201171875 155.42361450195313 101.55844116210938 150.35252380371094 128.53610229492188 139.5140838623047 140.01937866210938 134.15631103515625 155.841064453125 120.65348815917967 161.52581787109375 115.00411987304688 161.21685791015625 114.01579284667967 " />
        <polyline stroke="black" stroke-width="3" stroke-linecap="round" fill="transparent" stroke-linejoin="round" points="164.28973388671875 76.9036865234375 165.56903076171875 87.27706909179688 166.2412109375 97.60528564453124 165.90484619140625 120.8541259765625 165.1873779296875 132.63790893554688 164.92822265625 135.7771453857422 " />
        <polyline stroke="black" stroke-width="3" stroke-linecap="round" fill="transparent" stroke-linejoin="round" points="113.465576171875 51.077728271484375 113.96441650390624 73.017333984375 114.22247314453124 123.48558044433594 111.4375 185.9202880859375 110.04718017578124 221.06182861328125 106.02392578125 244.96994018554688 102.97274780273438 259.37347412109375 " />
        </svg>