<?xml version="1.0" standalone="no"?>
    <svg width="256" height="256" xmlns="http://www.w3.org/2000/svg" version="1.1">
    <polyline stroke="black" stroke-width="3" stroke-linecap="round" fill="transparent" stroke-linejoin="round" points="73.8466796875 107.80467224121094 80.4012451171875 134.76358032226563 83.04550170898438 146.6128387451172 85.32223510742188 161.08335876464844 85.46005249023438 165.76461791992188 83.30209350585938 166.83721923828125 82.50094604492188 166.63385009765625 81.53402709960938 166.13088989257813 81.381103515625 166.05137634277344 84.224609375 164.41384887695313 89.91976928710938 162.10903930664063 108.855224609375 158.010986328125 119.1036376953125 157.7093505859375 139.21224975585938 158.93902587890625 154.08465576171875 161.45169067382813 158.1851806640625 162.10142517089844 160.50390625 162.3306884765625 160.5255126953125 162.30184936523438 160.53338623046875 162.2913818359375 " />
        <polyline stroke="black" stroke-width="3" stroke-linecap="round" fill="transparent" stroke-linejoin="round" points="175.3863525390625 96.97317504882813 178.706787109375 123.35995483398438 179.61761474609375 134.85174560546875 180.21258544921875 149.76690673828125 179.75146484375 156.5425262451172 179.8984375 162.11474609375 179.91290283203125 162.6640625 " />
        <polyline stroke="black" stroke-width="3" stroke-linecap="round" fill="transparent" stroke-linejoin="round" points="116.60198974609376 68.54548645019531 121.33822631835938 90.43638610839844 124.8988037109375 115.24139404296876 127.918212890625 169.20297241210938 125.925537109375 197.163330078125 116.67440795898438 228.68951416015625 111.3380126953125 243.00567626953125 105.35739135742188 257.4907531738281 106.24264526367188 248.092041015625 " />
        </svg>