<?xml version="1.0" standalone="no"?>
    <svg width="256" height="256" xmlns="http://www.w3.org/2000/svg" version="1.1">
    <polyline stroke="black" stroke-width="3" stroke-linecap="round" fill="transparent" stroke-linejoin="round" points="80.16290283203125 73.72373962402344 77.38613891601563 89.82894897460938 74.05401611328125 112.04304504394533 72.38796997070313 125.92686462402344 71.83261108398438 137.03390502929688 72.94329833984375 143.69813537597656 76.27545166015625 147.58560180664063 82.38430786132813 149.2516632080078 99.04486083984376 147.03025817871094 120.14825439453124 142.03207397460938 141.25164794921875 136.4785614013672 157.35687255859375 132.03573608398438 169.57464599609375 128.70362854003906 175.6834716796875 125.92686462402344 179.57098388671875 117.04122924804688 179.57098388671875 117.04122924804688 " />
        <polyline stroke="black" stroke-width="3" stroke-linecap="round" fill="transparent" stroke-linejoin="round" points="169.57464599609375 93.71641540527344 170.1300048828125 107.0448760986328 170.1300048828125 120.3733367919922 167.9085693359375 131.48037719726563 165.6871337890625 137.03390502929688 165.6871337890625 137.03390502929688 " />
        <polyline stroke="black" stroke-width="3" stroke-linecap="round" fill="transparent" stroke-linejoin="round" points="134.03207397460938 54.286407470703125 131.25531005859375 90.93966674804688 126.8125 120.3733367919922 121.8143310546875 146.4748992919922 116.816162109375 164.80152893066406 110.707275390625 182.0174560546875 102.93234252929688 198.67800903320313 94.60205078125 212.56182861328125 87.93783569335938 222.55816650390625 87.93783569335938 222.55816650390625 " />
        </svg>