<?xml version="1.0" standalone="no"?>
    <svg width="256" height="256" xmlns="http://www.w3.org/2000/svg" version="1.1">
    <polyline stroke="black" stroke-width="3" stroke-linecap="round" fill="transparent" stroke-linejoin="round" points="94 64 92 70 89 85 84 105 81 119 79 139 80 148 82 151 82 152 85 153 86 154 89 154 94 154 106 152 123 149 139 147 151 148 161 149 168 151 171 151 173 152 173 152 " />
        <polyline stroke="black" stroke-width="3" stroke-linecap="round" fill="transparent" stroke-linejoin="round" points="178 84 178 92 178 96 177 100 175 117 172 131 172 131 " />
        <polyline stroke="black" stroke-width="3" stroke-linecap="round" fill="transparent" stroke-linejoin="round" points="138 19 138 24 140 38 138 70 131 113 122 155 112 189 103 209 100 218 99 220 99 220 " />
        </svg>