<?xml version="1.0" standalone="no"?>
    <svg width="256" height="256" xmlns="http://www.w3.org/2000/svg" version="1.1">
    <polyline stroke="black" stroke-width="3" stroke-linecap="round" fill="transparent" stroke-linejoin="round" points="36.44451904296875 124.88890075683594 65.3333740234375 114.88890075683594 85.3333740234375 104.88890075683594 102 96.00001525878906 115.3333740234375 88.22222900390625 125.3333740234375 80.4444580078125 132 74.88890075683594 132 73.77778625488281 130.888916015625 74.88890075683594 128.666748046875 77.11111450195313 128.666748046875 77.11111450195313 " />
        <polyline stroke="black" stroke-width="3" stroke-linecap="round" fill="transparent" stroke-linejoin="round" points="86.4444580078125 161.55557250976563 102 153.7777862548828 104.2222900390625 153.7777862548828 105.3333740234375 152.6666717529297 106.4444580078125 167.1111297607422 106.4444580078125 180.4444580078125 105.3333740234375 199.33334350585935 103.1112060546875 208.22222900390625 98.666748046875 216 95.3333740234375 221.5555725097656 92 224.888916015625 89.77783203125 226 87.5556640625 226 85.3333740234375 223.77780151367188 80.888916015625 213.77780151367188 74.2222900390625 197.11111450195313 69.77783203125 178.22222900390625 69.77783203125 178.22222900390625 " />
        <polyline stroke="black" stroke-width="3" stroke-linecap="round" fill="transparent" stroke-linejoin="round" points="92 119.33334350585938 84.2222900390625 144.88890075683594 77.55560302734375 160.4444580078125 67.55560302734375 176.00001525878906 57.55560302734375 190.4444580078125 44.2222900390625 206 40.888916015625 209.33334350585935 40.888916015625 209.33334350585935 " />
        <polyline stroke="black" stroke-width="3" stroke-linecap="round" fill="transparent" stroke-linejoin="round" points="158.666748046875 53.77778625488281 174.2222900390625 63.77778625488281 176.4444580078125 81.55555725097656 177.5556640625 107.11111450195313 178.666748046875 136.00001525878906 179.77783203125 170.4444580078125 177.5556640625 188.22222900390625 176.4444580078125 202.66668701171875 175.3333740234375 211.5555725097656 175.3333740234375 216 175.3333740234375 217.11111450195313 175.3333740234375 216 173.1112060546875 213.77780151367188 173.1112060546875 213.77780151367188 " />
        <polyline stroke="black" stroke-width="3" stroke-linecap="round" fill="transparent" stroke-linejoin="round" points="119.77783203125 160.4444580078125 149.77783203125 148.22222900390625 158.666748046875 143.7777862548828 177.5556640625 136.00001525878906 185.3333740234375 132.6666717529297 203.1112060546875 128.22222900390625 212 127.11111450195313 216.4444580078125 128.22222900390625 217.5556640625 129.33334350585938 217.5556640625 129.33334350585938 " />
        </svg>