<?xml version="1.0" standalone="no"?>
    <svg width="256" height="256" xmlns="http://www.w3.org/2000/svg" version="1.1">
    <polyline stroke="black" stroke-width="3" stroke-linecap="round" fill="transparent" stroke-linejoin="round" points="47.43670654296875 82.87432861328125 62.90966796875 74.91677856445313 76.61434936523438 69.61172485351563 83.24566650390625 66.51712036132813 100.487060546875 58.5595703125 106.234130859375 54.58080291748047 109.32879638671876 50.602020263671875 108.88665771484376 49.2757568359375 108.00250244140624 48.83367919921875 100.487060546875 55.4649658203125 85.45611572265625 78.45346069335938 64.2359619140625 124.87252807617188 48.762939453125 158.91317749023438 39.921234130859375 180.57537841796875 35.05828857421875 190.74337768554688 33.2899169921875 194.28005981445313 32.84783935546875 194.28005981445313 35.94244384765625 188.532958984375 47.43670654296875 171.29156494140625 63.79388427734375 149.187255859375 77.94064331054688 132.38800048828125 91.20321655273438 120.45166015625 103.58163452148438 112.93618774414063 112.42333984375 110.72575378417967 117.7283935546875 112.93618774414063 121.70721435546876 123.98834228515624 115.96005249023438 153.60813903808594 101.37118530273438 184.55416870117188 94.73992919921876 193.3958740234375 80.15106201171875 206.2164001464844 76.61434936523438 207.1005859375 76.61434936523438 207.1005859375 " />
        <polyline stroke="black" stroke-width="3" stroke-linecap="round" fill="transparent" stroke-linejoin="round" points="128.33847045898438 135.92466735839844 138.94857788085938 131.50381469726563 146.02191162109375 128.4092254638672 170.77874755859375 118.2412109375 185.8096923828125 110.28367614746094 194.6513671875 101.4419403076172 201.28271484375 79.77972412109375 201.28271484375 79.77972412109375 " />
        <polyline stroke="black" stroke-width="3" stroke-linecap="round" fill="transparent" stroke-linejoin="round" points="177.8521728515625 35.57109069824219 173.87335205078125 61.6541748046875 173.87335205078125 98.34733581542967 173.87335205078125 117.35704040527344 171.2208251953125 162.89193725585938 167.2420654296875 180.13330078125 161.93701171875 188.532958984375 152.21112060546875 192.95379638671875 137.62228393554688 191.6275634765625 130.10678100585938 188.97503662109375 130.10678100585938 188.97503662109375 " />
        </svg>