<?xml version="1.0" standalone="no"?>
    <svg width="256" height="256" xmlns="http://www.w3.org/2000/svg" version="1.1">
    <polyline stroke="black" stroke-width="3" stroke-linecap="round" fill="transparent" stroke-linejoin="round" points="60.155120849609375 97.15525817871094 74.114501953125 89.76498413085938 86.431640625 84.0169677734375 97.51708984375 78.26898193359375 106.13909912109376 73.75270080566406 112.70819091796876 70.87870788574219 115.99276733398438 68.82585144042969 118.04559326171876 67.59414672851563 118.4561767578125 66.77299499511719 118.4561767578125 66.3624267578125 117.22445678710938 66.3624267578125 116.81390380859376 66.77299499511719 113.11874389648438 70.05755615234375 109.423583984375 75.39498901367188 103.67562866210938 85.65927124023438 94.64306640625 104.9561004638672 85.199951171875 128.7692108154297 76.1673583984375 150.94004821777344 68.36651611328125 169.41574096679688 61.79736328125 185.42800903320313 57.281097412109375 195.28170776367188 55.6387939453125 198.5662841796875 52.76483154296875 203.9037170410156 51.943695068359375 204.31427001953125 51.53314208984375 203.49313354492188 51.53314208984375 199.38742065429688 52.354248046875 193.2288818359375 53.175384521484375 187.89144897460935 53.99652099609375 185.0174560546875 56.87054443359375 176.80601501464844 59.7445068359375 172.28973388671875 64.26083374023438 166.541748046875 70.41937255859375 159.56204223632813 80.68365478515625 150.118896484375 92.17962646484376 141.0863494873047 102.0333251953125 134.5172119140625 111.06591796875 130.4114990234375 114.76107788085938 129.17979431152344 122.97247314453124 129.59036254882813 126.66757202148438 133.69607543945313 129.54159545898438 146.42376708984375 128.30990600585938 164.4888916015625 122.56185913085938 182.9645843505859 115.58221435546876 196.10284423828125 109.01303100585938 203.49313354492188 105.72848510742188 205.95654296875 96.69589233398438 208.41998291015625 94.64306640625 208.41998291015625 94.64306640625 208.41998291015625 " />
        <polyline stroke="black" stroke-width="3" stroke-linecap="round" fill="transparent" stroke-linejoin="round" points="127.07818603515624 118.91551208496094 137.75302124023438 114.39923095703124 150.07015991210938 109.47239685058594 162.7978515625 105.36666870117188 175.114990234375 101.26095581054688 185.789794921875 98.38697814941406 194.41180419921875 95.10238647460938 197.6964111328125 93.04953002929688 197.6964111328125 93.04953002929688 " />
        <polyline stroke="black" stroke-width="3" stroke-linecap="round" fill="transparent" stroke-linejoin="round" points="182.5052490234375 66.77299499511719 184.55810546875 95.51296997070313 184.96868896484375 126.71636962890624 184.55810546875 156.6880340576172 184.1475830078125 180.090576171875 182.91583251953125 194.4605712890625 180.0418701171875 203.49313354492188 176.75726318359375 208.83056640625 172.65155029296875 210.8834228515625 164.44012451171875 210.062255859375 153.354736328125 204.31427001953125 153.354736328125 204.31427001953125 " />
        </svg>