<?xml version="1.0" standalone="no"?>
    <svg width="256" height="256" xmlns="http://www.w3.org/2000/svg" version="1.1">
    <polyline stroke="black" stroke-width="3" stroke-linecap="round" fill="transparent" stroke-linejoin="round" points="43 92 69 84 88 80 110 76 128 74 128 74 " />
        <polyline stroke="black" stroke-width="3" stroke-linecap="round" fill="transparent" stroke-linejoin="round" points="85 96 65 125 51 152 35 183 24 203 22 209 22 209 " />
        <polyline stroke="black" stroke-width="3" stroke-linecap="round" fill="transparent" stroke-linejoin="round" points="60 150 77 140 87 140 95 140 101 143 103 156 103 178 103 194 97 205 90 212 78 217 68 218 59 213 57 197 57 197 " />
        <polyline stroke="black" stroke-width="3" stroke-linecap="round" fill="transparent" stroke-linejoin="round" points="169 65 182 104 181 131 178 161 175 187 175 206 172 219 170 223 170 223 " />
        <polyline stroke="black" stroke-width="3" stroke-linecap="round" fill="transparent" stroke-linejoin="round" points="125 140 154 134 178 131 210 129 220 129 220 129 " />
        </svg>