<?xml version="1.0" standalone="no"?>
    <svg width="256" height="256" xmlns="http://www.w3.org/2000/svg" version="1.1">
    <polyline stroke="black" stroke-width="3" stroke-linecap="round" fill="transparent" stroke-linejoin="round" points="55.753753662109375 80.53907775878906 65.85821533203125 82.91661071777344 80.12335205078125 79.35032653808594 96.76605224609376 74.00088500976563 111.62554931640624 70.43460083007813 121.73004150390624 67.46270751953125 128.86260986328125 66.27394104003906 134.80642700195313 66.27394104003906 134.80642700195313 66.27394104003906 " />
        <polyline stroke="black" stroke-width="3" stroke-linecap="round" fill="transparent" stroke-linejoin="round" points="42.082977294921875 122.74014282226563 57.536895751953125 119.76823425292967 67.641357421875 117.39071655273438 81.3121337890625 115.01318359375 93.79412841796876 112.63566589355467 105.6817626953125 109.66375732421876 114.59747314453124 106.6918487548828 121.73004150390624 103.12556457519533 128.26824951171875 95.99299621582033 128.26824951171875 95.99299621582033 " />
        <polyline stroke="black" stroke-width="3" stroke-linecap="round" fill="transparent" stroke-linejoin="round" points="89.0390625 40.12117004394531 86.06719970703125 53.19755554199219 84.87841796875 65.67955017089844 83.09527587890625 80.53907775878906 80.12335205078125 101.34242248535156 75.36831665039063 130.46710205078125 70.01889038085938 156.02548217773438 65.85821533203125 170.885009765625 62.29193115234375 183.36700439453125 59.9144287109375 189.31082153320313 59.9144287109375 189.31082153320313 " />
        <polyline stroke="black" stroke-width="3" stroke-linecap="round" fill="transparent" stroke-linejoin="round" points="99.1435546875 51.41441345214844 97.36041259765624 69.84022521972656 94.38851928710938 86.48289489746094 91.4166259765625 108.47499084472656 90.22784423828124 125.71205139160156 89.63348388671875 142.35472106933594 89.63348388671875 153.64796447753906 89.63348388671875 160.1861572265625 92.60537719726563 163.75244140625 92.60537719726563 163.75244140625 " />
        <polyline stroke="black" stroke-width="3" stroke-linecap="round" fill="transparent" stroke-linejoin="round" points="146.69403076171875 62.11326599121094 145.50531005859375 72.8121337890625 141.93899536132813 98.37051391601563 138.37271118164063 135.8165283203125 134.80642700195313 161.37490844726563 130.645751953125 182.77264404296875 128.26824951171875 198.22653198242188 126.485107421875 205.9534912109375 126.485107421875 205.9534912109375 " />
        <polyline stroke="black" stroke-width="3" stroke-linecap="round" fill="transparent" stroke-linejoin="round" points="137.1839599609375 92.4267120361328 145.50531005859375 78.75593566894531 153.82666015625 71.62336730957031 163.33673095703125 65.67955017089844 172.25244140625 62.11326599121094 180.57379150390625 60.92451477050781 187.70635986328125 62.70765686035156 193.650146484375 68.05708312988281 198.99957275390625 83.510986328125 201.97149658203125 112.04127502441406 200.78271484375 144.73223876953125 197.2164306640625 172.0737762451172 192.46142578125 194.6602478027344 187.70635986328125 210.70855712890625 184.73443603515625 217.84112548828125 179.9793701171875 222.59616088867188 171.06365966796875 224.3793029785156 171.06365966796875 224.3793029785156 " />
        <polyline stroke="black" stroke-width="3" stroke-linecap="round" fill="transparent" stroke-linejoin="round" points="106.276123046875 158.9973907470703 114.59747314453124 150.0816650390625 127.0794677734375 140.5715789794922 140.750244140625 132.250244140625 157.3929443359375 125.11766052246094 175.8187255859375 119.76823425292967 192.46142578125 116.79632568359376 206.1322021484375 115.60757446289063 215.6422119140625 115.60757446289063 221.5860595703125 118.5794677734375 221.5860595703125 118.5794677734375 " />
        </svg>