<?xml version="1.0" standalone="no"?>
    <svg width="256" height="256" xmlns="http://www.w3.org/2000/svg" version="1.1">
    <polyline stroke="black" stroke-width="3" stroke-linecap="round" fill="transparent" stroke-linejoin="round" points="37.01727294921875 105.04495239257813 45.543212890625 100.17298889160156 57.72314453125 94.08302307128906 72.94805908203125 86.77507019042969 90.60897827148438 78.85810852050781 105.22488403320313 72.76814270019531 111.923828125 70.3321533203125 111.923828125 72.76814270019531 111.923828125 72.76814270019531 " />
        <polyline stroke="black" stroke-width="3" stroke-linecap="round" fill="transparent" stroke-linejoin="round" points="26.664337158203125 154.37367248535156 40.062255859375 151.93768310546875 50.41522216796875 147.67471313476563 65.0311279296875 141.58474731445313 80.86502075195313 134.8857879638672 96.08993530273438 126.96882629394533 108.26986694335938 116.00689697265624 108.26986694335938 116.00689697265624 " />
        <polyline stroke="black" stroke-width="3" stroke-linecap="round" fill="transparent" stroke-linejoin="round" points="64.422119140625 53.889251708984375 63.204132080078125 63.63319396972656 58.941162109375 91.0380401611328 52.8511962890625 130.622802734375 46.1522216796875 165.33560180664063 41.889251708984375 186.6504821777344 39.453277587890625 199.43939208984375 39.453277587890625 205.52935791015625 42.49822998046875 204.31137084960935 51.024200439453125 186.04147338867188 51.024200439453125 186.04147338867188 " />
        <polyline stroke="black" stroke-width="3" stroke-linecap="round" fill="transparent" stroke-linejoin="round" points="90.60897827148438 61.80621337890625 91.82696533203124 71.55015563964844 91.21795654296876 94.6920166015625 88.1729736328125 129.40481567382813 85.12799072265625 156.80966186523438 83.91000366210938 175.0795440673828 83.301025390625 189.08645629882813 86.34600830078125 193.95843505859375 86.34600830078125 193.95843505859375 " />
        <polyline stroke="black" stroke-width="3" stroke-linecap="round" fill="transparent" stroke-linejoin="round" points="131.4117431640625 84.94807434082031 131.4117431640625 108.6989288330078 128.97576904296875 145.84771728515625 127.14874267578124 167.77159118652344 125.9307861328125 184.21450805664065 125.32177734375 192.74044799804688 125.32177734375 193.95843505859375 125.32177734375 193.95843505859375 " />
        <polyline stroke="black" stroke-width="3" stroke-linecap="round" fill="transparent" stroke-linejoin="round" points="128.97576904296875 98.3459930419922 143.5916748046875 83.73008728027344 156.380615234375 73.37713623046875 170.9964599609375 65.46018981933594 185.6124267578125 61.80621337890625 197.183349609375 63.63319396972656 205.70928955078125 72.15914916992188 215.4532470703125 97.73699951171876 217.88922119140625 134.2767791748047 216.062255859375 159.24563598632813 212.40826416015625 177.51553344726563 209.36328125 189.08645629882813 205.100341796875 195.17642211914065 199.0103759765625 198.83041381835935 180.1314697265625 193.34945678710935 180.1314697265625 193.34945678710935 " />
        <polyline stroke="black" stroke-width="3" stroke-linecap="round" fill="transparent" stroke-linejoin="round" points="91.21795654296876 152.5466766357422 99.743896484375 147.06570434570313 110.70587158203124 140.9757537841797 128.36676025390625 133.0587921142578 162.4705810546875 120.8788604736328 189.266357421875 114.17990112304688 215.4532470703125 108.6989288330078 234.941162109375 106.26295471191406 248.94805908203125 105.65394592285156 254.42901611328125 106.8719482421875 255.64697265625 111.13491821289063 255.64697265625 111.13491821289063 " />
        </svg>