<?xml version="1.0" standalone="no"?>
    <svg width="256" height="256" xmlns="http://www.w3.org/2000/svg" version="1.1">
    <polyline stroke="black" stroke-width="3" stroke-linecap="round" fill="transparent" stroke-linejoin="round" points="60.01031494140625 111.47035217285156 74.08892822265625 107.79766845703124 93.676513671875 102.28865051269533 116.32470703125 96.16751098632813 132.23968505859375 90.6584930419922 142.03350830078125 86.37370300292969 146.93038940429688 84.537353515625 146.93038940429688 84.537353515625 " />
        <polyline stroke="black" stroke-width="3" stroke-linecap="round" fill="transparent" stroke-linejoin="round" points="28.180419921875 164.72421264648438 52.052825927734375 159.21519470214844 79.59793090820313 150.0334930419922 104.08245849609376 139.6275634765625 123.67010498046876 128.60952758789063 139.58502197265625 116.9793701171875 149.990966796875 104.7371063232422 149.990966796875 104.7371063232422 " />
        <polyline stroke="black" stroke-width="3" stroke-linecap="round" fill="transparent" stroke-linejoin="round" points="91.8402099609375 69.84663391113281 86.3311767578125 112.08245849609376 81.43426513671875 140.85179138183594 74.70101928710938 162.8878631591797 69.1920166015625 178.8028106689453 63.07086181640625 191.04507446289065 59.398193359375 195.9419860839844 59.398193359375 195.9419860839844 " />
        <polyline stroke="black" stroke-width="3" stroke-linecap="round" fill="transparent" stroke-linejoin="round" points="106.53091430664063 65.56184387207031 108.36724853515624 77.19200134277344 109.59149169921876 105.34921264648438 108.9793701171875 139.01544189453125 107.14300537109376 158.6030731201172 105.30670166015624 174.5180206298828 103.4703369140625 184.31182861328125 104.08245849609376 187.37240600585935 104.08245849609376 187.37240600585935 " />
        <polyline stroke="black" stroke-width="3" stroke-linecap="round" fill="transparent" stroke-linejoin="round" points="161.62109375 85.14947509765625 161.62109375 109.63400268554688 160.39691162109375 142.68812561035156 159.7847900390625 159.82730102539063 158.560546875 174.5180206298828 157.3363037109375 183.08761596679688 154.88787841796875 185.53607177734375 154.88787841796875 185.53607177734375 " />
        <polyline stroke="black" stroke-width="3" stroke-linecap="round" fill="transparent" stroke-linejoin="round" points="151.2152099609375 104.7371063232422 163.45745849609375 94.94328308105467 174.4754638671875 88.21003723144531 189.166259765625 80.2525634765625 202.0206298828125 75.35565185546875 212.426513671875 74.13143920898438 219.1597900390625 77.19200134277344 224.6688232421875 89.43426513671875 228.3414306640625 111.47035217285156 227.7293701171875 133.5064239501953 224.6688232421875 150.0334930419922 220.99609375 159.21519470214844 216.0992431640625 165.9484405517578 199.5721435546875 175.13014221191406 199.5721435546875 175.13014221191406 " />
        <polyline stroke="black" stroke-width="3" stroke-linecap="round" fill="transparent" stroke-linejoin="round" points="113.26416015625 144.52447509765625 137.74868774414063 141.46389770507813 164.68170166015625 138.40333557128906 191.61468505859375 134.73065185546875 217.32342529296875 131.05796813964844 235.68682861328125 128.60952758789063 250.3775634765625 126.77317810058594 260.17138671875 126.77317810058594 263.84405517578125 127.99740600585938 263.84405517578125 132.28219604492188 263.84405517578125 132.28219604492188 " />
        </svg>