<?xml version="1.0" standalone="no"?>
    <svg width="256" height="256" xmlns="http://www.w3.org/2000/svg" version="1.1">
    <polyline stroke="black" stroke-width="3" stroke-linecap="round" fill="transparent" stroke-linejoin="round" points="80.2880859375 69.46760559082031 99.73992919921876 61.067962646484375 109.023681640625 57.973358154296875 141.2960205078125 51.342063903808594 160.747802734375 49.57372283935547 179.3154296875 49.57372283935547 185.06256103515625 50.89998626708984 186.38885498046875 52.66832733154297 183.736328125 69.0255126953125 177.98919677734375 77.86724853515625 150.579833984375 104.8345184326172 150.579833984375 104.8345184326172 " />
        <polyline stroke="black" stroke-width="3" stroke-linecap="round" fill="transparent" stroke-linejoin="round" points="113.88665771484376 101.73991394042967 131.12802124023438 102.6240692138672 143.06439208984375 105.71867370605467 151.9061279296875 108.37120056152344 158.0953369140625 110.13955688476563 165.61077880859375 114.11833190917967 165.61077880859375 114.11833190917967 " />
        <polyline stroke="black" stroke-width="3" stroke-linecap="round" fill="transparent" stroke-linejoin="round" points="81.61434936523438 181.3154296875 106.81332397460938 173.35787963867188 115.655029296875 170.7053680419922 124.49676513671876 168.05284118652344 141.73812866210938 163.63198852539063 156.76904296875 157.00070190429688 166.93701171875 148.60105895996094 166.93701171875 148.60105895996094 " />
        <polyline stroke="black" stroke-width="3" stroke-linecap="round" fill="transparent" stroke-linejoin="round" points="134.66473388671875 141.52767944335938 125.822998046875 154.79025268554688 116.98129272460938 170.7053680419922 109.023681640625 183.9679412841797 100.62408447265624 193.69384765625 91.34027099609376 200.32513427734375 83.38275146484375 205.63018798828125 78.519775390625 208.72479248046875 76.309326171875 210.49313354492188 75.86724853515625 211.3773193359375 77.63558959960938 211.81939697265625 99.29782104492188 210.49313354492188 120.96005249023438 208.72479248046875 143.06439208984375 208.72479248046875 168.70538330078125 210.93521118164065 168.70538330078125 210.93521118164065 " />
        </svg>