<?xml version="1.0" standalone="no"?>
    <svg width="256" height="256" xmlns="http://www.w3.org/2000/svg" version="1.1">
    <polyline stroke="black" stroke-width="3" stroke-linecap="round" fill="transparent" stroke-linejoin="round" points="131.43307495117188 31.91857147216797 129.66473388671875 46.065330505371094 128.33847045898438 51.370361328125 122.59130859375 65.51712036132813 109.32879638671876 81.87432861328125 109.32879638671876 81.87432861328125 " />
        <polyline stroke="black" stroke-width="3" stroke-linecap="round" fill="transparent" stroke-linejoin="round" points="60.257171630859375 106.18907165527344 73.07769775390625 97.7894287109375 80.5931396484375 94.69482421875 88.99276733398438 91.6002197265625 107.11834716796876 86.29518127441406 126.12802124023438 83.20057678222656 142.48519897460938 80.99014282226563 154.8636474609375 79.66389465332031 160.61077880859375 79.2218017578125 162.37908935546875 79.2218017578125 162.37908935546875 79.2218017578125 " />
        <polyline stroke="black" stroke-width="3" stroke-linecap="round" fill="transparent" stroke-linejoin="round" points="72.63558959960938 123.87252807617188 83.687744140625 130.50381469726563 89.876953125 132.27215576171875 98.276611328125 132.71426391601563 109.32879638671876 131.38800048828125 109.32879638671876 131.38800048828125 " />
        <polyline stroke="black" stroke-width="3" stroke-linecap="round" fill="transparent" stroke-linejoin="round" points="167.68414306640625 118.12541198730467 138.06439208984375 135.808837890625 123.47552490234376 143.32432556152344 96.95037841796876 157.4710693359375 86.7823486328125 162.77610778808594 72.19354248046875 169.4073944091797 64.67803955078125 173.38616943359375 61.58343505859375 174.27035522460938 61.141357421875 174.27035522460938 61.58343505859375 174.27035522460938 76.17230224609375 172.05992126464844 96.50827026367188 169.4073944091797 115.5179443359375 166.3127899169922 131.87518310546875 164.10235595703125 143.369384765625 161.44985961914063 151.32696533203125 158.35525512695313 154.8636474609375 155.26065063476563 154.8636474609375 155.26065063476563 " />
        <polyline stroke="black" stroke-width="3" stroke-linecap="round" fill="transparent" stroke-linejoin="round" points="117.28631591796876 97.34733581542967 105.79208374023438 121.22000122070313 96.95037841796876 141.99807739257813 68.2147216796875 203.0059814453125 61.141357421875 218.03689575195313 58.0467529296875 225.99444580078125 57.60467529296875 227.3207092285156 57.60467529296875 227.3207092285156 " />
        <polyline stroke="black" stroke-width="3" stroke-linecap="round" fill="transparent" stroke-linejoin="round" points="113.30755615234376 176.92288208007813 128.33847045898438 180.90164184570313 135.411865234375 183.99624633789065 150.44281005859375 191.95379638671875 157.958251953125 196.37466430664065 170.336669921875 205.2164001464844 177.4100341796875 212.28976440429688 177.4100341796875 212.28976440429688 " />
        </svg>