<?xml version="1.0" standalone="no"?>
    <svg width="256" height="256" xmlns="http://www.w3.org/2000/svg" version="1.1">
    <polyline stroke="black" stroke-width="3" stroke-linecap="round" fill="transparent" stroke-linejoin="round" points="47.2855224609375 138.87005615234375 46.86297607421875 148.58950805664063 46.86297607421875 157.88638305664063 46.44036865234375 168.87359619140625 45.595184326171875 173.52203369140625 45.172607421875 173.52203369140625 44.32745361328125 170.56393432617188 44.32745361328125 170.56393432617188 " />
        <polyline stroke="black" stroke-width="3" stroke-linecap="round" fill="transparent" stroke-linejoin="round" points="64.18893432617188 115.62785339355467 76.02133178710938 107.59873962402344 81.9375 103.79547119140624 93.7698974609375 98.72445678710938 105.1796875 97.03411865234376 109.828125 100.41477966308594 114.4765625 113.9375 115.74432373046876 136.33453369140625 112.3636474609375 156.61862182617188 106.87005615234376 167.6058349609375 100.953857421875 172.2542724609375 95.03768920898438 171.83169555664063 95.03768920898438 171.83169555664063 " />
        <polyline stroke="black" stroke-width="3" stroke-linecap="round" fill="transparent" stroke-linejoin="round" points="84.4730224609375 75.48225402832031 84.05047607421875 115.62785339355467 84.05047607421875 137.17971801757813 84.4730224609375 156.19602966308594 84.89559936523438 183.66409301757813 84.89559936523438 198.031982421875 84.4730224609375 203.10302734375 84.4730224609375 203.10302734375 " />
        <polyline stroke="black" stroke-width="3" stroke-linecap="round" fill="transparent" stroke-linejoin="round" points="138.141357421875 85.62429809570313 144.9027099609375 83.08879089355469 160.53839111328125 78.01776123046875 175.328857421875 72.10157775878906 186.7386474609375 67.45314025878906 193.5 64.49504089355469 196.8807373046875 62.80470275878906 197.72589111328125 62.382110595703125 197.72589111328125 62.382110595703125 " />
        <polyline stroke="black" stroke-width="3" stroke-linecap="round" fill="transparent" stroke-linejoin="round" points="155.88995361328125 108.8665008544922 153.35443115234375 116.4730224609375 150.39633178710938 125.7698974609375 145.32528686523438 146.47659301757813 143.21237182617188 157.88638305664063 138.141357421875 185.35443115234375 135.6058349609375 197.18682861328125 133.492919921875 203.52557373046875 133.492919921875 203.52557373046875 " />
        <polyline stroke="black" stroke-width="3" stroke-linecap="round" fill="transparent" stroke-linejoin="round" points="163.07391357421875 122.38922119140624 167.29974365234375 119.43112182617188 181.24505615234375 112.24717712402344 188.42901611328125 110.13424682617188 193.07745361328125 110.13424682617188 196.4581298828125 114.36009216308594 200.26141357421875 129.5731658935547 201.5291748046875 151.54759216308594 200.6839599609375 169.2961883544922 198.571044921875 182.39633178710935 195.19036865234375 191.2706298828125 190.96453857421875 196.34164428710935 179.13214111328125 200.1448974609375 179.13214111328125 200.1448974609375 " />
        <polyline stroke="black" stroke-width="3" stroke-linecap="round" fill="transparent" stroke-linejoin="round" points="138.141357421875 151.97018432617188 147.86080932617188 149.85726928710938 157.58026123046875 147.74432373046875 168.1448974609375 145.63140869140625 189.274169921875 142.67332458496094 207.867919921875 141.4055633544922 220.96807861328125 141.82815551757813 231.110107421875 146.0540008544922 231.110107421875 146.0540008544922 " />
        </svg>