<?xml version="1.0" standalone="no"?>
    <svg width="256" height="256" xmlns="http://www.w3.org/2000/svg" version="1.1">
    <polyline stroke="black" stroke-width="3" stroke-linecap="round" fill="transparent" stroke-linejoin="round" points="56.1649169921875 108.40977478027344 54.940704345703125 131.6700897216797 54.32861328125 148.80926513671875 53.1043701171875 161.66363525390625 51.880126953125 167.78477478027344 50.655914306640625 167.78477478027344 50.655914306640625 162.2757568359375 52.49224853515625 148.1971435546875 57.38916015625 130.44586181640625 65.34661865234375 113.91880798339844 74.5283203125 101.06442260742188 83.09793090820313 93.10694885253906 96.56442260742188 85.14947509765625 107.58245849609376 81.47679138183594 115.5399169921875 82.08891296386719 122.273193359375 88.21003723144531 129.6185302734375 110.85823059082033 128.39431762695313 136.56700134277344 122.88531494140624 156.1546173095703 117.37628173828124 165.33631896972656 108.194580078125 170.2332305908203 97.78863525390624 167.17266845703125 85.54638671875 148.80926513671875 76.36468505859375 110.85823059082033 75.14044189453125 70.45875549316406 75.7525634765625 50.259010314941406 76.36468505859375 45.974220275878906 76.36468505859375 45.974220275878906 77.58892822265625 55.768035888671875 80.64947509765625 92.4948272705078 83.71002197265625 127.99740600585938 87.38272094726563 166.560546875 87.99481201171875 185.53607177734375 88.60693359375 195.32986450195313 88.60693359375 200.83889770507813 88.60693359375 204.51156616210935 88.60693359375 202.0631103515625 88.60693359375 202.0631103515625 " />
        <polyline stroke="black" stroke-width="3" stroke-linecap="round" fill="transparent" stroke-linejoin="round" points="121.0489501953125 86.98580932617188 133.29119873046875 81.47679138183594 147.36981201171875 75.9677734375 161.44842529296875 69.84663391113281 174.9149169921875 64.94973754882813 187.769287109375 59.440704345703125 196.9510498046875 55.768035888671875 203.0721435546875 52.09535217285156 203.0721435546875 52.09535217285156 " />
        <polyline stroke="black" stroke-width="3" stroke-linecap="round" fill="transparent" stroke-linejoin="round" points="154.10308837890625 93.10694885253906 147.98193359375 109.02189636230467 139.412353515625 140.85179138183594 135.73968505859375 161.66363525390625 132.67910766601563 183.69973754882813 130.8427734375 198.39044189453125 129.6185302734375 206.34793090820313 129.6185302734375 208.79635620117188 130.8427734375 201.45101928710935 135.1275634765625 178.8028106689453 138.80023193359375 157.37884521484375 143.08502197265625 143.912353515625 148.59405517578125 131.6700897216797 155.939453125 121.26416015625 163.2847900390625 113.91880798339844 174.9149169921875 105.96133422851563 182.8724365234375 102.28865051269533 190.2177734375 102.28865051269533 196.9510498046875 107.79766845703124 204.29638671875 133.5064239501953 201.847900390625 164.11209106445313 195.11468505859375 190.4329833984375 188.38140869140625 205.73580932617188 183.4844970703125 213.0811767578125 176.75128173828125 217.97805786132813 161.44842529296875 219.20230102539065 161.44842529296875 219.20230102539065 " />
        <polyline stroke="black" stroke-width="3" stroke-linecap="round" fill="transparent" stroke-linejoin="round" points="128.39431762695313 156.76673889160156 144.92138671875 153.70616149902344 169.4058837890625 150.64559936523438 187.769287109375 149.42137145996094 204.29638671875 149.42137145996094 215.926513671875 151.8698272705078 215.926513671875 151.8698272705078 " />
        </svg>