<?xml version="1.0" standalone="no"?>
    <svg width="256" height="256" xmlns="http://www.w3.org/2000/svg" version="1.1">
    <polyline stroke="black" stroke-width="3" stroke-linecap="round" fill="transparent" stroke-linejoin="round" points="49.822509765625 112.2581787109375 48.583099365234375 127.13104248046876 47.343719482421875 138.2856903076172 46.517425537109375 145.30899047851563 45.691162109375 150.6797332763672 45.27801513671875 152.7454071044922 45.27801513671875 152.7454071044922 " />
        <polyline stroke="black" stroke-width="3" stroke-linecap="round" fill="transparent" stroke-linejoin="round" points="74.610595703125 95.73280334472656 82.04705810546875 91.18829345703124 90.30975341796876 89.12261962890625 97.3330078125 92.01458740234376 103.530029296875 101.10354614257813 108.90081787109376 117.62893676757813 109.31396484375 134.1543426513672 106.4219970703125 147.37466430664063 101.87753295898438 157.70303344726563 98.15927124023438 162.24749755859375 96.50677490234376 163.48692321777344 96.50677490234376 163.48692321777344 " />
        <polyline stroke="black" stroke-width="3" stroke-linecap="round" fill="transparent" stroke-linejoin="round" points="71.3055419921875 61.85572814941406 72.13180541992188 73.42349243164063 72.95806884765625 84.16500854492188 75.02377319335938 130.0229949951172 76.26315307617188 160.594970703125 77.08944702148438 174.22842407226563 78.741943359375 204.8004150390625 79.15512084960938 211.82369995117188 79.56820678710938 227.5228271484375 79.98138427734375 231.24105834960935 79.98138427734375 231.24105834960935 " />
        <polyline stroke="black" stroke-width="3" stroke-linecap="round" fill="transparent" stroke-linejoin="round" points="115.09783935546876 82.51246643066406 127.49188232421876 77.1417236328125 144.430419921875 70.94468688964844 163.43463134765625 65.98707580566406 180.3731689453125 62.68199157714844 194.8328857421875 60.20318603515625 199.37738037109375 59.376922607421875 199.37738037109375 59.376922607421875 " />
        <polyline stroke="black" stroke-width="3" stroke-linecap="round" fill="transparent" stroke-linejoin="round" points="147.32235717773438 119.69461059570313 145.6697998046875 128.7835693359375 140.71221923828125 159.76870727539063 137.4071044921875 177.53350830078125 134.92831420898438 190.3406982421875 131.62322998046875 200.25592041015625 129.970703125 203.97415161132813 129.970703125 203.97415161132813 " />
        <polyline stroke="black" stroke-width="3" stroke-linecap="round" fill="transparent" stroke-linejoin="round" points="151.04058837890625 96.14591979980467 155.5850830078125 92.42770385742188 160.54266357421875 89.12261962890625 175.00238037109375 83.3387451171875 183.67822265625 83.3387451171875 190.7015380859375 87.4700927734375 198.137939453125 97.7984619140625 205.1612548828125 118.04208374023438 207.64007568359375 141.59075927734375 208.05322265625 164.726318359375 205.987548828125 184.96994018554688 203.0955810546875 199.42965698242188 199.79052734375 208.51861572265625 196.072265625 213.88937377929688 191.11468505859375 217.60760498046875 186.5701904296875 218.43386840820313 172.52362060546875 215.1287841796875 172.52362060546875 215.1287841796875 " />
        <polyline stroke="black" stroke-width="3" stroke-linecap="round" fill="transparent" stroke-linejoin="round" points="125.83935546875 151.91912841796875 146.49609375 146.96151733398438 169.218505859375 143.24331665039063 191.94091796875 141.17764282226563 212.1845703125 140.76449584960938 227.057373046875 141.17764282226563 237.3857421875 143.65643310546875 237.3857421875 143.65643310546875 " />
        </svg>