<?xml version="1.0" standalone="no"?>
    <svg width="256" height="256" xmlns="http://www.w3.org/2000/svg" version="1.1">
    <polyline stroke="black" stroke-width="3" stroke-linecap="round" fill="transparent" stroke-linejoin="round" points="61.25762939453125 105.98573303222656 60.523681640625 114.05918884277344 59.05572509765625 129.47219848632813 59.05572509765625 142.68328857421875 59.7896728515625 146.35305786132813 61.25762939453125 150.02281188964844 62.72552490234375 150.02281188964844 63.45941162109375 146.35305786132813 63.45941162109375 146.35305786132813 " />
        <polyline stroke="black" stroke-width="3" stroke-linecap="round" fill="transparent" stroke-linejoin="round" points="91.349609375 88.37089538574219 107.49652099609376 83.96717834472656 117.7718505859375 81.76533508300781 122.9095458984375 81.0313720703125 129.51513671875 81.0313720703125 131.7169189453125 81.76533508300781 131.7169189453125 85.43510437011719 130.2490234375 98.64620971679688 127.313232421875 117.72894287109376 123.64349365234376 139.01353454589844 122.17559814453124 147.08700561523438 120.7076416015625 151.49073791503906 119.23980712890624 155.16049194335938 117.03790283203124 154.42652893066406 114.10211181640624 148.55491638183594 114.10211181640624 148.55491638183594 " />
        <polyline stroke="black" stroke-width="3" stroke-linecap="round" fill="transparent" stroke-linejoin="round" points="90.61566162109376 75.89370727539063 90.61566162109376 105.98573303222656 92.8175048828125 136.07772827148438 94.285400390625 165.43580627441406 96.4873046875 192.59201049804688 97.9552001953125 215.34451293945313 100.15704345703124 238.8309326171875 100.8909912109375 246.90444946289065 101.62493896484376 248.372314453125 101.62493896484376 247.63836669921875 101.62493896484376 247.63836669921875 " />
        <polyline stroke="black" stroke-width="3" stroke-linecap="round" fill="transparent" stroke-linejoin="round" points="159.607177734375 62.68257141113281 177.221923828125 57.544921875 202.91015625 53.141204833984375 215.387451171875 50.939353942871094 221.259033203125 50.205421447753906 224.19482421875 50.205421447753906 224.19482421875 50.205421447753906 " />
        <polyline stroke="black" stroke-width="3" stroke-linecap="round" fill="transparent" stroke-linejoin="round" points="155.9373779296875 139.01353454589844 153.7354736328125 159.56419372558594 148.597900390625 178.6469268798828 139.7904052734375 202.1333923339844 135.38671875 210.9407958984375 133.9188232421875 214.61056518554688 133.184814453125 214.61056518554688 133.184814453125 209.472900390625 133.184814453125 209.472900390625 " />
        <polyline stroke="black" stroke-width="3" stroke-linecap="round" fill="transparent" stroke-linejoin="round" points="173.55224609375 106.71966552734376 177.9559326171875 104.517822265625 181.625732421875 102.31597900390624 192.6348876953125 97.91224670410156 200.7083740234375 95.71038818359376 208.0479736328125 93.50856018066406 213.9195556640625 92.7746124267578 216.855224609375 94.24249267578124 216.855224609375 100.84805297851563 213.1854248046875 119.19685363769533 209.515869140625 144.15122985839844 208.0479736328125 171.30740356445313 208.0479736328125 207.27105712890625 208.7818603515625 225.61984252929688 209.515869140625 238.09698486328125 209.515869140625 243.96859741210935 207.3138427734375 246.90444946289065 202.1763916015625 244.7025451660156 195.5706787109375 238.8309326171875 195.5706787109375 238.8309326171875 " />
        <polyline stroke="black" stroke-width="3" stroke-linecap="round" fill="transparent" stroke-linejoin="round" points="140.5242919921875 164.7018585205078 151.53369140625 161.03208923339844 176.488037109375 155.16049194335938 199.974365234375 152.22467041015625 221.9930419921875 150.02281188964844 244.7454833984375 147.08700561523438 250.6170654296875 146.35305786132813 252.0849609375 146.35305786132813 249.8831787109375 148.55491638183594 249.8831787109375 148.55491638183594 " />
        </svg>