<?xml version="1.0" standalone="no"?>
    <svg width="256" height="256" xmlns="http://www.w3.org/2000/svg" version="1.1">
    <polyline stroke="black" stroke-width="3" stroke-linecap="round" fill="transparent" stroke-linejoin="round" points="78.77117919921875 71.4552001953125 66.3519287109375 89.75721740722656 56.54730224609375 106.75193786621094 44.78167724609375 119.17115783691406 41.51348876953125 121.132080078125 37.59161376953125 125.05393981933594 37.59161376953125 127.014892578125 37.59161376953125 127.014892578125 " />
        <polyline stroke="black" stroke-width="3" stroke-linecap="round" fill="transparent" stroke-linejoin="round" points="70.2738037109375 120.47845458984376 66.3519287109375 136.8195343017578 51.31817626953125 157.73611450195313 49.357177734375 160.35069274902344 44.1280517578125 166.23350524902344 42.82073974609375 170.1553192138672 45.435302734375 172.1162567138672 45.435302734375 172.1162567138672 " />
        <polyline stroke="black" stroke-width="3" stroke-linecap="round" fill="transparent" stroke-linejoin="round" points="70.92742919921875 157.0824737548828 72.88836669921875 174.0771942138672 61.77642822265625 196.30108642578125 59.81549072265625 198.91567993164065 51.97174072265625 210.6812438964844 50.0108642578125 215.91036987304688 50.66448974609375 219.83224487304688 50.66448974609375 219.83224487304688 " />
        <polyline stroke="black" stroke-width="3" stroke-linecap="round" fill="transparent" stroke-linejoin="round" points="160.4765625 89.10356140136719 131.71624755859375 117.86387634277344 104.26324462890624 140.7413787841797 97.72674560546876 145.31689453125 89.22943115234375 151.19969177246094 88.5758056640625 152.5069580078125 88.5758056640625 152.5069580078125 " />
        <polyline stroke="black" stroke-width="3" stroke-linecap="round" fill="transparent" stroke-linejoin="round" points="129.75537109375 67.5333251953125 119.29705810546876 102.83006286621094 116.6824951171875 147.27781677246094 117.33612060546876 152.5069580078125 120.60430908203124 170.80899047851563 127.79437255859376 189.76461791992188 134.9844970703125 200.8765563964844 143.48187255859375 208.7203063964844 153.94012451171875 212.6421813964844 170.28118896484375 213.2958068847656 182.04681396484375 211.3348693847656 191.85137939453125 209.3739318847656 199.04150390625 207.41302490234375 203.61700439453125 206.105712890625 206.23162841796875 204.14480590820313 206.88519287109375 200.22293090820313 205.57794189453125 193.68649291992188 200.34881591796875 185.18914794921875 195.77325439453125 176.0381317138672 194.46600341796875 174.0771942138672 194.46600341796875 174.0771942138672 " />
        <polyline stroke="black" stroke-width="3" stroke-linecap="round" fill="transparent" stroke-linejoin="round" points="151.97918701171875 134.8585968017578 170.93487548828125 145.31689453125 184.00775146484375 162.9652862548828 186.62225341796875 168.1944122314453 193.15869140625 176.0381317138672 194.46600341796875 177.99905395507813 194.46600341796875 177.99905395507813 " />
        </svg>