<?xml version="1.0" standalone="no"?>
    <svg width="256" height="256" xmlns="http://www.w3.org/2000/svg" version="1.1">
    <polyline stroke="black" stroke-width="3" stroke-linecap="round" fill="transparent" stroke-linejoin="round" points="100 52 100 52 98 55 96 59 94 62 92 66 90 70 88 74 86 78 84 81 82 85 79 88 77 91 75 94 73 97 72 99 70 101 68 103 67 105 66 107 65 108 64 109 63 111 62 111 62 112 62 113 62 114 62 114 63 115 65 115 " />
        <polyline stroke="black" stroke-width="3" stroke-linecap="round" fill="transparent" stroke-linejoin="round" points="107 88 107 88 107 89 106 90 106 91 105 93 104 96 102 98 100 101 98 103 96 106 94 109 92 112 90 115 88 118 85 121 83 123 81 126 79 128 78 131 76 133 75 135 73 136 73 137 72 139 71 140 71 140 71 141 71 142 " />
        <polyline stroke="black" stroke-width="3" stroke-linecap="round" fill="transparent" stroke-linejoin="round" points="102 129 103 132 103 135 102 137 101 139 100 142 98 145 97 148 95 151 92 154 90 157 87 160 85 162 82 165 80 167 77 169 75 171 73 173 71 175 69 176 67 178 66 179 65 180 64 181 63 181 63 182 62 182 63 182 " />
        <polyline stroke="black" stroke-width="3" stroke-linecap="round" fill="transparent" stroke-linejoin="round" points="174 50 173 49 173 49 172 49 170 49 169 50 167 51 165 52 162 55 160 57 157 60 154 64 150 68 147 72 143 76 140 80 136 84 133 88 129 91 126 95 123 99 120 102 117 105 115 107 112 110 110 112 109 113 107 115 106 116 105 117 104 117 104 117 104 117 " />
        <polyline stroke="black" stroke-width="3" stroke-linecap="round" fill="transparent" stroke-linejoin="round" points="133 29 133 29 133 31 134 35 134 39 134 44 135 49 135 56 135 62 135 70 136 77 136 85 136 93 136 101 136 109 137 117 137 124 137 131 138 137 138 143 139 148 139 153 140 157 141 161 142 165 142 168 143 171 144 174 145 176 147 178 148 180 149 182 151 183 153 184 154 185 156 186 158 187 160 187 162 187 165 187 167 186 170 185 172 184 175 183 177 181 180 180 182 178 184 177 186 175 188 174 189 173 190 172 192 171 192 170 193 169 194 168 194 167 194 167 195 166 195 165 195 163 194 162 194 161 193 160 193 159 192 157 191 156 189 155 188 153 187 152 " />
        <polyline stroke="black" stroke-width="3" stroke-linecap="round" fill="transparent" stroke-linejoin="round" points="156 87 157 87 157 87 157 87 158 87 158 88 159 88 160 89 161 90 162 92 164 94 165 96 167 98 168 100 170 103 172 106 174 109 176 112 178 115 179 118 181 120 182 123 184 126 185 129 186 131 186 133 187 135 187 137 188 139 " />
        </svg>