<?xml version="1.0" standalone="no"?>
    <svg width="256" height="256" xmlns="http://www.w3.org/2000/svg" version="1.1">
    <polyline stroke="black" stroke-width="3" stroke-linecap="round" fill="transparent" stroke-linejoin="round" points="76 58 79 70 83 80 88 89 88 89 " />
        <polyline stroke="black" stroke-width="3" stroke-linecap="round" fill="transparent" stroke-linejoin="round" points="121 58 127 64 129 72 131 75 131 75 " />
        <polyline stroke="black" stroke-width="3" stroke-linecap="round" fill="transparent" stroke-linejoin="round" points="178 50 173 64 160 78 142 99 122 114 122 114 " />
        <polyline stroke="black" stroke-width="3" stroke-linecap="round" fill="transparent" stroke-linejoin="round" points="80 118 79 128 79 134 71 150 62 165 53 179 47 188 45 191 45 191 " />
        <polyline stroke="black" stroke-width="3" stroke-linecap="round" fill="transparent" stroke-linejoin="round" points="77 146 106 133 125 127 144 124 162 121 176 121 184 121 190 125 192 136 192 157 190 178 182 196 174 209 166 217 157 222 149 225 139 226 133 219 133 219 " />
        <polyline stroke="black" stroke-width="3" stroke-linecap="round" fill="transparent" stroke-linejoin="round" points="121 125 118 144 114 159 108 179 102 193 98 197 98 197 " />
        <polyline stroke="black" stroke-width="3" stroke-linecap="round" fill="transparent" stroke-linejoin="round" points="153 136 152 140 147 163 136 187 131 198 131 198 " />
        </svg>