<?xml version="1.0" standalone="no"?>
    <svg width="256" height="256" xmlns="http://www.w3.org/2000/svg" version="1.1">
    <polyline stroke="black" stroke-width="3" stroke-linecap="round" fill="transparent" stroke-linejoin="round" points="60.970794677734375 99.481201171875 58.84625244140625 116.17405700683594 56.721710205078125 133.4739532470703 56.11468505859375 147.13172912597656 56.11468505859375 151.98782348632813 56.11468505859375 151.98782348632813 " />
        <polyline stroke="black" stroke-width="3" stroke-linecap="round" fill="transparent" stroke-linejoin="round" points="62.184783935546875 98.87419128417967 74.32504272460938 90.37600708007813 87.67935180664063 84.30587768554688 100.73016357421876 81.57431030273438 107.40728759765624 81.87782287597656 113.78094482421876 84.91288757324219 122.58261108398438 104.33731079101563 121.06509399414063 126.49327087402344 114.99496459960938 146.8282470703125 109.22836303710938 159.57550048828125 101.337158203125 166.85963439941406 93.44601440429688 166.25265502929688 89.1968994140625 161.39654541015625 89.1968994140625 161.39654541015625 " />
        <polyline stroke="black" stroke-width="3" stroke-linecap="round" fill="transparent" stroke-linejoin="round" points="75.235595703125 57.90080261230469 76.75314331054688 85.5198974609375 77.36013793945313 111.31796264648438 77.66363525390625 124.97575378417967 78.57415771484375 176.26837158203125 80.09170532226563 204.49447631835935 82.21624755859375 223.00836181640625 82.8232421875 231.81002807617188 82.8232421875 231.81002807617188 " />
        <polyline stroke="black" stroke-width="3" stroke-linecap="round" fill="transparent" stroke-linejoin="round" points="140.79299926757813 80.66378784179688 158.69989013671875 72.77262878417969 173.2681884765625 69.13055419921875 186.926025390625 67.61302185058594 202.40484619140625 67.00599670410156 205.43994140625 66.70248413085938 205.43994140625 66.70248413085938 " />
        <polyline stroke="black" stroke-width="3" stroke-linecap="round" fill="transparent" stroke-linejoin="round" points="162.94903564453125 114.6565399169922 154.14727783203125 166.25265502929688 152.02276611328125 195.99627685546875 151.415771484375 212.99264526367188 151.11224365234375 217.54525756835935 150.20172119140625 221.18734741210935 150.20172119140625 221.18734741210935 " />
        <polyline stroke="black" stroke-width="3" stroke-linecap="round" fill="transparent" stroke-linejoin="round" points="163.8594970703125 127.40380859375 179.03485107421875 114.0495147705078 188.14007568359375 110.10392761230467 197.2452392578125 109.8004150390625 202.40484619140625 112.531982421875 211.51007080078125 134.68797302246094 210.5994873046875 158.96847534179688 206.3504638671875 179.91043090820313 200.58380126953125 198.42431640625 196.03118896484375 209.65408325195313 190.26458740234375 219.6697998046875 183.283935546875 222.70486450195313 183.283935546875 222.70486450195313 " />
        <polyline stroke="black" stroke-width="3" stroke-linecap="round" fill="transparent" stroke-linejoin="round" points="111.95989990234376 175.0543212890625 136.24041748046875 163.5210723876953 168.71563720703125 155.6299285888672 201.49432373046875 152.29135131835938 231.54144287109375 152.89833068847656 254.91143798828125 154.41587829589844 254.91143798828125 154.41587829589844 " />
        </svg>