<?xml version="1.0" standalone="no"?>
    <svg width="256" height="256" xmlns="http://www.w3.org/2000/svg" version="1.1">
    <polyline stroke="black" stroke-width="3" stroke-linecap="round" fill="transparent" stroke-linejoin="round" points="67.7066650390625 89.62901306152344 85.33673095703125 84.67056274414063 99.1102294921875 81.36492919921875 116.1893310546875 77.50834655761719 132.16659545898438 74.20271301269531 148.14382934570313 70.89707946777344 160.8154296875 68.14237976074219 170.73236083984375 66.48956298828125 176.79266357421875 65.38768005371094 180.09832763671875 65.38768005371094 180.09832763671875 65.38768005371094 " />
        <polyline stroke="black" stroke-width="3" stroke-linecap="round" fill="transparent" stroke-linejoin="round" points="81.48016357421875 130.94947814941406 99.66116333007813 127.64382934570313 111.78182983398438 126.54196166992188 126.10626220703124 124.88914489746094 140.4306640625 123.78726196289063 154.755126953125 123.78726196289063 165.22296142578125 124.88914489746094 172.38519287109375 128.1947784423828 177.3436279296875 133.15322875976563 181.75115966796875 144.72296142578125 182.85302734375 160.7001953125 179.54736328125 176.6774444580078 174.0379638671875 188.2471618652344 167.42669677734375 194.3074951171875 153.6531982421875 199.26596069335935 143.736328125 198.71502685546875 143.736328125 198.71502685546875 " />
        <polyline stroke="black" stroke-width="3" stroke-linecap="round" fill="transparent" stroke-linejoin="round" points="112.88372802734376 50.51231384277344 112.332763671875 60.98016357421875 111.23089599609376 73.65176391601563 110.679931640625 95.68934631347656 111.23089599609376 126.54196166992188 113.43463134765624 159.59832763671875 117.29122924804688 185.49246215820313 118.94403076171876 204.77536010742188 121.69873046875 216.89602661132813 122.80062866210938 222.95635986328125 122.80062866210938 226.26199340820313 122.24969482421876 225.16012573242188 122.24969482421876 225.16012573242188 " />
        <polyline stroke="black" stroke-width="3" stroke-linecap="round" fill="transparent" stroke-linejoin="round" points="75.97076416015625 154.63986206054688 85.8876953125 159.59832763671875 90.29519653320313 162.35302734375 94.70269775390624 166.76052856445313 94.70269775390624 166.76052856445313 " />
        </svg>