<?xml version="1.0" standalone="no"?>
    <svg width="256" height="256" xmlns="http://www.w3.org/2000/svg" version="1.1">
    <polyline stroke="black" stroke-width="3" stroke-linecap="round" fill="transparent" stroke-linejoin="round" points="102.87628173828124 40.46519470214844 94.9188232421875 63.11338806152344 80.8402099609375 90.6584930419922 66.14947509765625 114.53091430664063 53.9072265625 132.89431762695313 42.88916015625 148.1971435546875 36.155914306640625 156.1546173095703 33.0953369140625 159.82730102539063 33.0953369140625 159.82730102539063 " />
        <polyline stroke="black" stroke-width="3" stroke-linecap="round" fill="transparent" stroke-linejoin="round" points="75.3311767578125 102.28865051269533 77.16751098632813 115.1430206298828 75.3311767578125 131.6700897216797 69.8221435546875 162.2757568359375 66.14947509765625 180.02703857421875 64.3131103515625 195.32986450195313 65.537353515625 203.287353515625 69.8221435546875 205.12368774414065 69.8221435546875 205.12368774414065 " />
        <polyline stroke="black" stroke-width="3" stroke-linecap="round" fill="transparent" stroke-linejoin="round" points="142.66363525390625 60.66493225097656 135.31829833984375 83.92524719238281 123.6881103515625 102.28865051269533 110.22161865234376 121.26416015625 99.20361328125 136.56700134277344 93.694580078125 143.912353515625 90.63400268554688 148.1971435546875 91.85821533203124 150.0334930419922 96.755126953125 147.5850372314453 110.833740234375 139.6275634765625 131.64559936523438 127.3852996826172 153.68170166015625 115.75514221191406 172.6572265625 106.5734405517578 187.347900390625 99.84019470214844 195.305419921875 94.94328308105467 200.814453125 87.59793090820313 200.814453125 87.59793090820313 " />
        <polyline stroke="black" stroke-width="3" stroke-linecap="round" fill="transparent" stroke-linejoin="round" points="178.166259765625 53.319580078125 173.88140869140625 66.17396545410156 165.9239501953125 83.31312561035156 154.2938232421875 109.63400268554688 142.66363525390625 132.28219604492188 131.03350830078125 153.70616149902344 120.01544189453124 172.06956481933594 110.22161865234376 188.59661865234375 102.87628173828124 200.83889770507813 98.59149169921876 207.5721435546875 94.9188232421875 212.46905517578125 93.694580078125 213.6932678222656 93.694580078125 213.6932678222656 " />
        <polyline stroke="black" stroke-width="3" stroke-linecap="round" fill="transparent" stroke-linejoin="round" points="128.58502197265625 175.74224853515625 139.60308837890625 185.53607177734375 145.72421264648438 191.04507446289065 152.45745849609375 197.7783203125 161.02703857421875 206.96002197265625 170.208740234375 219.81442260742188 176.9420166015625 236.34146118164065 176.9420166015625 236.34146118164065 " />
        </svg>