<?xml version="1.0" standalone="no"?>
    <svg width="256" height="256" xmlns="http://www.w3.org/2000/svg" version="1.1">
    <polyline stroke="black" stroke-width="3" stroke-linecap="round" fill="transparent" stroke-linejoin="round" points="96.73712158203124 26.998703002929688 95.51287841796876 43.52576446533203 83.88272094726563 77.19200134277344 67.35565185546875 112.08245849609376 56.337615966796875 130.44586181640625 47.768035888671875 143.912353515625 42.871124267578125 150.0334930419922 42.871124267578125 150.0334930419922 42.871124267578125 150.0334930419922 " />
        <polyline stroke="black" stroke-width="3" stroke-linecap="round" fill="transparent" stroke-linejoin="round" points="71.64044189453125 109.63400268554688 68.57989501953125 137.7912139892578 64.9072265625 171.45745849609375 63.6829833984375 189.82086181640625 63.6829833984375 206.34793090820313 63.6829833984375 216.75384521484375 65.51931762695313 220.426513671875 65.51931762695313 220.426513671875 " />
        <polyline stroke="black" stroke-width="3" stroke-linecap="round" fill="transparent" stroke-linejoin="round" points="140.80926513671875 50.259010314941406 137.74868774414063 69.23452758789063 129.79119873046875 91.88272094726563 123.0579833984375 107.79766845703124 115.71261596679688 120.6520538330078 108.9793701171875 132.28219604492188 110.81570434570313 133.5064239501953 120.60952758789063 128.60952758789063 138.972900390625 116.9793701171875 157.3363037109375 103.51287841796876 172.63916015625 91.88272094726563 184.269287109375 82.70101928710938 192.226806640625 75.9677734375 198.347900390625 69.23452758789063 201.408447265625 60.052825927734375 201.408447265625 60.052825927734375 " />
        <polyline stroke="black" stroke-width="3" stroke-linecap="round" fill="transparent" stroke-linejoin="round" points="173.25128173828125 25.77447509765625 170.80279541015625 36.18040466308594 165.2938232421875 63.11338806152344 157.94842529296875 94.94328308105467 149.990966796875 117.59147644042967 142.64559936523438 137.7912139892578 134.6881103515625 155.54251098632813 126.1185302734375 171.45745849609375 116.93682861328124 187.98452758789065 107.14300537109376 202.67523193359375 95.51287841796876 219.20230102539065 95.51287841796876 219.20230102539065 " />
        <polyline stroke="black" stroke-width="3" stroke-linecap="round" fill="transparent" stroke-linejoin="round" points="135.912353515625 178.19070434570313 145.7061767578125 180.02703857421875 151.8272705078125 184.31182861328125 159.17266845703125 190.4329833984375 167.74224853515625 197.7783203125 174.4754638671875 204.51156616210935 179.9844970703125 210.6327209472656 185.4935302734375 217.97805786132813 185.4935302734375 217.97805786132813 " />
        </svg>