<?xml version="1.0" standalone="no"?>
    <svg width="256" height="256" xmlns="http://www.w3.org/2000/svg" version="1.1">
    <polyline stroke="black" stroke-width="3" stroke-linecap="round" fill="transparent" stroke-linejoin="round" points="100.4097900390625 48.42266845703125 93.676513671875 69.84663391113281 78.98580932617188 101.67652893066406 66.13143920898438 125.5489501953125 54.50128173828125 143.912353515625 45.319580078125 158.6030731201172 41.0347900390625 165.9484405517578 41.0347900390625 165.9484405517578 " />
        <polyline stroke="black" stroke-width="3" stroke-linecap="round" fill="transparent" stroke-linejoin="round" points="80.8221435546875 102.28865051269533 80.8221435546875 113.91880798339844 75.3131103515625 154.93038940429688 71.64044189453125 180.02703857421875 68.57989501953125 195.32986450195313 65.51931762695313 208.79635620117188 64.29510498046875 214.91751098632813 64.29510498046875 214.91751098632813 " />
        <polyline stroke="black" stroke-width="3" stroke-linecap="round" fill="transparent" stroke-linejoin="round" points="140.80926513671875 65.56184387207031 132.851806640625 86.98580932617188 122.44586181640624 107.185546875 113.26416015625 121.87628173828124 107.14300537109376 131.6700897216797 103.4703369140625 137.17910766601563 103.4703369140625 140.2396697998047 110.81570434570313 139.01544189453125 125.50640869140624 131.6700897216797 146.31829833984375 120.03993225097656 165.9058837890625 109.02189636230467 181.208740234375 99.2280731201172 192.226806640625 90.6584930419922 198.347900390625 83.92524719238281 198.347900390625 83.92524719238281 " />
        <polyline stroke="black" stroke-width="3" stroke-linecap="round" fill="transparent" stroke-linejoin="round" points="174.4754638671875 54.54380798339844 170.80279541015625 67.39817810058594 163.45745849609375 98.615966796875 154.2757568359375 128.60952758789063 144.48193359375 157.37884521484375 135.30023193359375 180.02703857421875 126.73065185546876 200.22677612304688 115.71261596679688 218.59017944335935 107.755126953125 231.444580078125 107.755126953125 231.444580078125 " />
        <polyline stroke="black" stroke-width="3" stroke-linecap="round" fill="transparent" stroke-linejoin="round" points="137.74868774414063 192.26931762695313 151.2152099609375 194.7177734375 162.23321533203125 198.39044189453125 173.8634033203125 203.89947509765625 186.10565185546875 210.6327209472656 195.287353515625 219.81442260742188 195.287353515625 219.81442260742188 " />
        </svg>