<?xml version="1.0" standalone="no"?>
    <svg width="256" height="256" xmlns="http://www.w3.org/2000/svg" version="1.1">
    <polyline stroke="black" stroke-width="3" stroke-linecap="round" fill="transparent" stroke-linejoin="round" points="67.9559326171875 89.35440063476563 90.94793701171876 83.19583129882813 99.15936279296876 81.14297485351563 116.4033203125 77.44784545898438 131.18389892578125 74.5738525390625 144.73272705078125 71.69984436035156 153.76531982421875 69.64698791503906 159.10272216796875 67.59414672851563 161.15557861328125 66.77299499511719 161.15557861328125 66.77299499511719 " />
        <polyline stroke="black" stroke-width="3" stroke-linecap="round" fill="transparent" stroke-linejoin="round" points="147.19613647460938 33.106170654296875 141.85873413085938 42.54930877685547 134.46844482421875 56.09814453125 123.383056640625 76.626708984375 107.37078857421876 102.90324401855467 87.25277709960938 132.05377197265625 73.29339599609375 146.83433532714844 63.439666748046875 156.2774658203125 63.439666748046875 156.2774658203125 " />
        <polyline stroke="black" stroke-width="3" stroke-linecap="round" fill="transparent" stroke-linejoin="round" points="67.9559326171875 102.08212280273438 89.7161865234375 107.83010864257813 109.423583984375 113.1675262451172 128.720458984375 118.09439086914063 146.78558349609375 123.02122497558594 159.5133056640625 126.3057861328125 166.903564453125 128.358642578125 166.903564453125 128.358642578125 " />
        <polyline stroke="black" stroke-width="3" stroke-linecap="round" fill="transparent" stroke-linejoin="round" points="86.02108764648438 159.97259521484375 96.69589233398438 157.50918579101563 102.8544921875 156.6880340576172 123.383056640625 154.224609375 136.52133178710938 152.5823211669922 146.375 152.1717529296875 150.07015991210938 152.1717529296875 150.07015991210938 152.1717529296875 " />
        <polyline stroke="black" stroke-width="3" stroke-linecap="round" fill="transparent" stroke-linejoin="round" points="47.42742919921875 195.28170776367188 60.97625732421875 190.76544189453125 80.2730712890625 186.65972900390625 104.9073486328125 184.1962890625 129.54159545898438 183.37515258789065 153.76531982421875 185.42800903320313 175.114990234375 187.4808654785156 190.7166748046875 189.53372192382813 201.39154052734375 191.99713134765625 201.39154052734375 191.99713134765625 " />
        </svg>