<?xml version="1.0" standalone="no"?>
    <svg width="256" height="256" xmlns="http://www.w3.org/2000/svg" version="1.1">
    <polyline stroke="black" stroke-width="3" stroke-linecap="round" fill="transparent" stroke-linejoin="round" points="67 95 84 90 101 86 121 82 141 78 147 75 147 75 " />
        <polyline stroke="black" stroke-width="3" stroke-linecap="round" fill="transparent" stroke-linejoin="round" points="145 47 138 54 137 61 129 80 117 105 99 132 81 153 66 168 53 177 53 177 " />
        <polyline stroke="black" stroke-width="3" stroke-linecap="round" fill="transparent" stroke-linejoin="round" points="80 103 88 108 104 116 126 128 152 137 176 144 193 148 201 149 201 149 " />
        <polyline stroke="black" stroke-width="3" stroke-linecap="round" fill="transparent" stroke-linejoin="round" points="91 164 95 164 102 164 115 164 129 164 144 164 153 164 153 164 " />
        <polyline stroke="black" stroke-width="3" stroke-linecap="round" fill="transparent" stroke-linejoin="round" points="88 212 93 212 107 212 125 211 149 208 174 207 174 207 " />
        </svg>