<?xml version="1.0" standalone="no"?>
    <svg width="256" height="256" xmlns="http://www.w3.org/2000/svg" version="1.1">
    <polyline stroke="black" stroke-width="3" stroke-linecap="round" fill="transparent" stroke-linejoin="round" points="59.3343505859375 132.62240600585938 62.757415771484375 151.38218688964844 67.54403686523438 183.29742431640625 68.64373779296875 193.78997802734375 67.61434936523438 198.6455993652344 67.50497436523438 198.698974609375 67.49777221679688 198.70245361328125 " />
        <polyline stroke="black" stroke-width="3" stroke-linecap="round" fill="transparent" stroke-linejoin="round" points="88.942138671875 90.83636474609376 97.36764526367188 87.02955627441406 112.70126342773438 81.25640869140625 152.03997802734375 76.52459716796875 161.3636474609375 77.6552734375 191.6951904296875 85.58482360839844 193.036376953125 89.10855102539063 191.840576171875 96.46815490722656 192.611083984375 103.82763671875 193.51885986328125 123.88082885742188 192.69354248046875 136.3249969482422 185.9945068359375 159.36279296875 173.4923095703125 176.56851196289063 173.307861328125 177.2874755859375 " />
        <polyline stroke="black" stroke-width="3" stroke-linecap="round" fill="transparent" stroke-linejoin="round" points="111.93441772460938 48.587852478027344 114.396728515625 91.70774841308594 115.604248046875 117.13943481445313 116.22885131835938 162.21820068359375 115.98092651367188 178.7530975341797 115.577392578125 200.7044677734375 114.50924682617188 206.91726684570313 114.40243530273438 207.53854370117188 " />
        <polyline stroke="black" stroke-width="3" stroke-linecap="round" fill="transparent" stroke-linejoin="round" points="107.14486694335938 136.5252685546875 113.72982788085938 137.0301971435547 152.47039794921875 138.84970092773438 177.6519775390625 142.4912109375 179.4716796875 142.74514770507813 " />
        <polyline stroke="black" stroke-width="3" stroke-linecap="round" fill="transparent" stroke-linejoin="round" points="104.887451171875 205.15240478515625 123.801513671875 204.508544921875 136.46441650390625 204.50277709960935 145.61102294921875 204.662353515625 151.3734130859375 207.12451171875 151.48260498046875 207.25418090820313 " />
        </svg>