<?xml version="1.0" standalone="no"?>
    <svg width="256" height="256" xmlns="http://www.w3.org/2000/svg" version="1.1">
    <polyline stroke="black" stroke-width="3" stroke-linecap="round" fill="transparent" stroke-linejoin="round" points="80.51507568359375 160.5181884765625 81.82318115234375 177.52374267578125 83.13128662109375 188.96975708007813 84.439453125 194.2022399902344 85.09347534179688 196.1644287109375 85.09347534179688 196.1644287109375 " />
        <polyline stroke="black" stroke-width="3" stroke-linecap="round" fill="transparent" stroke-linejoin="round" points="111.58291625976563 110.4826202392578 128.91546630859375 106.2312469482422 140.36154174804688 104.92311096191406 150.49945068359375 105.57717895507813 158.0211181640625 108.52044677734376 165.5428466796875 116.04212951660156 173.39154052734375 134.35580444335938 175.68072509765625 153.3235321044922 173.71856689453125 171.63719177246094 172.41046142578125 178.50482177734375 172.41046142578125 178.50482177734375 " />
        <polyline stroke="black" stroke-width="3" stroke-linecap="round" fill="transparent" stroke-linejoin="round" points="121.0667724609375 51.61725616455078 124.01007080078124 98.70954895019533 126.62628173828124 143.8396759033203 128.26141357421875 170.98313903808594 128.91546630859375 184.391357421875 128.91546630859375 188.31570434570313 128.91546630859375 188.31570434570313 " />
        <polyline stroke="black" stroke-width="3" stroke-linecap="round" fill="transparent" stroke-linejoin="round" points="132.5128173828125 129.45034790039063 139.38043212890625 128.46926879882813 149.84539794921875 127.81521606445313 152.46160888671875 128.14224243164063 152.46160888671875 128.14224243164063 " />
        <polyline stroke="black" stroke-width="3" stroke-linecap="round" fill="transparent" stroke-linejoin="round" points="112.89102172851563 167.71282958984375 136.43716430664063 162.48036193847656 158.67523193359375 159.53707885742188 170.44830322265625 158.883056640625 170.44830322265625 158.883056640625 " />
        </svg>