<?xml version="1.0" standalone="no"?>
    <svg width="256" height="256" xmlns="http://www.w3.org/2000/svg" version="1.1">
    <polyline stroke="black" stroke-width="3" stroke-linecap="round" fill="transparent" stroke-linejoin="round" points="87 90 87 93 86 98 85 106 84 115 82 129 82 138 82 146 82 154 82 162 83 167 84 172 84 175 85 176 85 176 86 175 " />
        <polyline stroke="black" stroke-width="3" stroke-linecap="round" fill="transparent" stroke-linejoin="round" points="91 125 94 122 98 117 102 115 107 112 112 110 117 108 122 107 127 106 133 105 138 106 145 110 149 114 152 121 153 130 154 140 153 151 150 162 147 170 144 176 140 180 138 181 136 181 " />
        <polyline stroke="black" stroke-width="3" stroke-linecap="round" fill="transparent" stroke-linejoin="round" points="125 66 124 62 124 58 124 59 123 62 121 69 120 78 118 89 116 100 114 112 112 124 109 141 107 146 105 154 103 161 101 165 100 166 " />
        <polyline stroke="black" stroke-width="3" stroke-linecap="round" fill="transparent" stroke-linejoin="round" points="90 154 91 152 93 150 96 148 100 145 102 144 106 142 111 141 117 140 126 140 133 140 139 142 142 144 144 146 " />
        <polyline stroke="black" stroke-width="3" stroke-linecap="round" fill="transparent" stroke-linejoin="round" points="96 186 95 186 95 186 97 185 99 185 103 185 110 185 117 185 124 186 133 187 142 189 151 191 156 193 " />
        </svg>