<?xml version="1.0" standalone="no"?>
    <svg width="256" height="256" xmlns="http://www.w3.org/2000/svg" version="1.1">
    <polyline stroke="black" stroke-width="3" stroke-linecap="round" fill="transparent" stroke-linejoin="round" points="71.35140991210938 93.63336181640624 82.39364624023438 91.4249267578125 90.34405517578124 90.099853515625 99.6195068359375 88.77479553222656 120.37890625 86.12466430664063 141.13827514648438 82.59115600585938 157.0390625 78.61593627929688 169.84808349609375 73.315673828125 180.0069580078125 66.69033813476563 182.6571044921875 60.50669860839844 180.89031982421875 53.439666748046875 176.473388671875 47.697715759277344 172.0565185546875 44.60588836669922 168.081298828125 43.28082275390625 164.54779052734375 43.72251892089844 161.45599365234375 48.581085205078125 158.3641357421875 66.2486572265625 157.0390625 94.95843505859376 156.597412109375 123.668212890625 156.15570068359375 136.03550720214844 153.947265625 164.74530029296875 152.6221923828125 172.69570922851563 149.08871459960938 188.59649658203125 147.76361083984375 191.68832397460935 145.11346435546875 196.105224609375 139.813232421875 198.75537109375 132.30450439453125 196.54690551757813 124.35409545898438 189.92156982421875 115.52032470703124 178.43765258789063 112.87020874023438 174.4624481201172 112.87020874023438 174.4624481201172 " />
        <polyline stroke="black" stroke-width="3" stroke-linecap="round" fill="transparent" stroke-linejoin="round" points="145.11346435546875 88.33309936523438 138.92987060546875 97.60856628417967 132.30450439453125 106.884033203125 83.71871948242188 164.74530029296875 74.4432373046875 173.57907104492188 57.65911865234375 188.59649658203125 57.65911865234375 188.59649658203125 " />
        </svg>