<?xml version="1.0" standalone="no"?>
    <svg width="256" height="256" xmlns="http://www.w3.org/2000/svg" version="1.1">
    <polyline stroke="black" stroke-width="3" stroke-linecap="round" fill="transparent" stroke-linejoin="round" points="65.21185302734375 87.37689208984375 72.40109252929688 85.57693481445313 79.59033203125 83.7769775390625 96.4969482421875 81.54559326171875 105.0050048828125 80.84190368652344 116.71881103515624 80.51322937011719 130.1475830078125 81.08558654785156 134.39080810546875 81.3448486328125 143.06671142578125 81.60142517089844 146.414306640625 81.18978881835938 152.7718505859375 80.05615234375 154.873291015625 79.573974609375 158.45355224609375 78.737060546875 160.85693359375 77.9580078125 162.19384765625 77.55224609375 163.3167724609375 77.06756591796875 163.543701171875 77.00146484375 " />
        <polyline stroke="black" stroke-width="3" stroke-linecap="round" fill="transparent" stroke-linejoin="round" points="132.46441650390625 43.083892822265625 134.97348022460938 61.45314025878906 137.4825439453125 79.8223876953125 140.15155029296875 101.41319274902344 144.06024169921875 152.81500244140625 145.35079956054688 178.37942504882813 145.1251220703125 212.93115234375 144.65447998046875 220.701171875 143.11495971679688 223.52252197265625 142.38238525390625 222.142822265625 142.37713623046875 222.13296508789065 142.37545776367188 222.1297912597656 142.375244140625 222.12939453125 142.37509155273438 222.12905883789065 142.09725952148438 222.15423583984375 141.190185546875 222.0804443359375 140.64413452148438 221.8666076660156 138.467041015625 220.5382080078125 129.4273681640625 212.89556884765625 117.36419677734376 204.5716552734375 114.48175048828124 202.69122314453125 " />
        <polyline stroke="black" stroke-width="3" stroke-linecap="round" fill="transparent" stroke-linejoin="round" points="121.89007568359371 119.41259765625 110.84405517578124 133.79931640625 99.79803466796876 148.18603515625 75.42047119140625 172.14712524414063 53.77117919921875 189.03387451171875 52.770111083984375 189.7789306640625 " />
        </svg>