<?xml version="1.0" standalone="no"?>
    <svg width="256" height="256" xmlns="http://www.w3.org/2000/svg" version="1.1">
    <polyline stroke="black" stroke-width="3" stroke-linecap="round" fill="transparent" stroke-linejoin="round" points="59.68939208984375 110.20010375976563 73.5477294921875 109.04524230957033 89.1383056640625 106.1580810546875 117.432373046875 100.3837890625 134.75527954101563 96.34178161621094 157.2750244140625 89.99005126953125 173.44305419921875 85.37062072753906 186.14654541015625 80.75117492675781 193.07568359375 77.86402893066406 196.540283203125 75.55430603027344 196.540283203125 70.93487548828125 196.540283203125 70.93487548828125 " />
        <polyline stroke="black" stroke-width="3" stroke-linecap="round" fill="transparent" stroke-linejoin="round" points="135.33270263671875 49.569969177246094 138.79730224609375 67.47029113769531 144.57159423828125 93.4546356201172 150.92330932617188 127.5229949951172 153.2330322265625 152.92990112304688 153.2330322265625 177.18194580078125 151.500732421875 193.3499755859375 147.458740234375 206.630859375 142.83929443359375 215.8697509765625 135.91015625 221.64404296875 127.82611083984376 225.10861206054688 120.31951904296876 224.53118896484375 113.390380859375 219.9117431640625 107.6160888671875 207.7857360839844 107.6160888671875 207.7857360839844 " />
        <polyline stroke="black" stroke-width="3" stroke-linecap="round" fill="transparent" stroke-linejoin="round" points="141.6844482421875 130.41014099121094 133.60040283203125 137.33929443359375 123.78411865234376 146.5781707763672 108.19351196289063 160.43649291992188 90.29318237304688 175.4496612548828 75.280029296875 187.57568359375 63.731414794921875 196.8145751953125 55.64739990234375 203.16629028320313 51.60540771484375 207.7857360839844 51.60540771484375 207.7857360839844 " />
        </svg>