<?xml version="1.0" standalone="no"?>
    <svg width="256" height="256" xmlns="http://www.w3.org/2000/svg" version="1.1">
    <polyline stroke="black" stroke-width="3" stroke-linecap="round" fill="transparent" stroke-linejoin="round" points="52 107 65 106 78 105 96 103 108 102 143 101 164 101 181 101 193 101 201 99 201 99 " />
        <polyline stroke="black" stroke-width="3" stroke-linecap="round" fill="transparent" stroke-linejoin="round" points="163 33 163 72 163 111 164 150 167 183 170 204 173 217 173 221 170 206 170 206 " />
        <polyline stroke="black" stroke-width="3" stroke-linecap="round" fill="transparent" stroke-linejoin="round" points="158 106 153 111 148 116 133 130 112 152 90 173 69 188 54 200 46 207 43 211 43 211 " />
        </svg>