<?xml version="1.0" standalone="no"?>
    <svg width="256" height="256" xmlns="http://www.w3.org/2000/svg" version="1.1">
    <polyline stroke="black" stroke-width="3" stroke-linecap="round" fill="transparent" stroke-linejoin="round" points="48.706878662109375 75.24008178710938 47.450286865234375 88.22463989257813 46.612548828125 102.88461303710938 45.77490234375 110.42401123046876 44.93719482421875 122.98971557617188 44.099456787109375 133.4611053466797 44.099456787109375 140.16282653808594 44.099456787109375 142.257080078125 44.099456787109375 143.93252563476563 44.099456787109375 143.93252563476563 " />
        <polyline stroke="black" stroke-width="3" stroke-linecap="round" fill="transparent" stroke-linejoin="round" points="77.60791015625 50.52757263183594 75.93255615234375 67.28182983398438 72.5816650390625 90.73776245117188 69.649658203125 106.23545837402344 60.015960693359375 159.01133728027344 57.921722412109375 171.9958953857422 54.989715576171875 199.2215576171875 54.570892333984375 211.7872314453125 54.570892333984375 220.16436767578125 54.570892333984375 223.51519775390625 54.570892333984375 223.93408203125 54.570892333984375 223.93408203125 " />
        <polyline stroke="black" stroke-width="3" stroke-linecap="round" fill="transparent" stroke-linejoin="round" points="128.28955078125 48.852142333984375 119.49359130859376 61.83668518066406 114.88616943359376 68.95724487304688 109.85986328125 77.33436584472656 104.41473388671876 85.71148681640625 94.78106689453124 101.20919799804688 87.24163818359375 113.77488708496094 80.95880126953125 124.66513061523438 80.95880126953125 124.66513061523438 " />
        <polyline stroke="black" stroke-width="3" stroke-linecap="round" fill="transparent" stroke-linejoin="round" points="132.47811889648438 63.93096923828125 145.88153076171875 67.70068359375 149.65121459960938 69.3760986328125 153.4208984375 71.05152893066406 159.70379638671875 73.9835205078125 163.892333984375 76.49665832519531 165.98663330078125 78.17208862304688 166.8243408203125 79.00979614257813 166.8243408203125 79.00979614257813 " />
        <polyline stroke="black" stroke-width="3" stroke-linecap="round" fill="transparent" stroke-linejoin="round" points="119.91244506835938 113.3560028076172 119.91244506835938 129.27255249023438 119.91244506835938 135.9742431640625 119.91244506835938 159.43020629882813 118.65585327148438 172.83360290527344 117.818115234375 177.85986328125 115.723876953125 185.81814575195313 113.210693359375 190.42556762695313 110.27874755859376 192.1009826660156 104.83358764648438 191.68212890625 102.32049560546876 190.0067138671875 102.32049560546876 190.0067138671875 " />
        <polyline stroke="black" stroke-width="3" stroke-linecap="round" fill="transparent" stroke-linejoin="round" points="83.05307006835938 139.74395751953125 91.43017578125 148.9587860107422 93.52450561523438 150.63421630859375 106.509033203125 152.30963134765625 106.509033203125 152.30963134765625 " />
        <polyline stroke="black" stroke-width="3" stroke-linecap="round" fill="transparent" stroke-linejoin="round" points="147.97579956054688 120.05772399902344 137.08554077148438 134.29881286621094 132.89697265625 139.74395751953125 121.16900634765624 152.30963134765625 118.23699951171876 155.24163818359375 118.23699951171876 155.24163818359375 " />
        <polyline stroke="black" stroke-width="3" stroke-linecap="round" fill="transparent" stroke-linejoin="round" points="185.2540283203125 45.92015075683594 178.55230712890625 58.48583984375 175.201416015625 64.34982299804688 162.2169189453125 84.873779296875 150.90780639648438 102.046875 145.04379272460938 110.42401123046876 142.94952392578125 113.3560028076172 142.94952392578125 113.3560028076172 " />
        <polyline stroke="black" stroke-width="3" stroke-linecap="round" fill="transparent" stroke-linejoin="round" points="173.107177734375 66.86296081542969 186.929443359375 66.02525329589844 191.95574951171875 66.44410705566406 207.453369140625 68.11953735351563 217.5059814453125 69.79495239257813 225.4642333984375 71.47038269042969 231.7470703125 73.14581298828125 234.6790771484375 74.40237426757813 234.6790771484375 74.40237426757813 " />
        <polyline stroke="black" stroke-width="3" stroke-linecap="round" fill="transparent" stroke-linejoin="round" points="181.9031982421875 111.26174926757813 179.3900146484375 121.31430053710938 177.714599609375 129.27255249023438 177.2957763671875 133.4611053466797 175.62030029296875 141.41940307617188 173.9449462890625 147.2833709716797 172.26947021484375 150.63421630859375 171.01287841796875 151.471923828125 169.75634765625 149.79649353027344 168.91864013671875 145.60794067382813 168.499755859375 141.83824157714844 168.499755859375 138.0685272216797 169.75634765625 133.87997436523438 172.6883544921875 129.69140625 177.714599609375 124.66513061523438 185.2540283203125 120.05772399902344 193.2122802734375 117.12571716308594 201.1705322265625 115.869140625 207.87225341796875 116.28800964355467 212.8985595703125 117.9634246826172 215.41168212890625 120.05772399902344 216.668212890625 124.24626159667967 215.41168212890625 132.6234130859375 210.3853759765625 143.51365661621094 202.4271240234375 154.40391540527344 197.8197021484375 159.43020629882813 197.8197021484375 159.43020629882813 " />
        <polyline stroke="black" stroke-width="3" stroke-linecap="round" fill="transparent" stroke-linejoin="round" points="175.201416015625 141.41940307617188 190.69915771484375 138.0685272216797 194.4688720703125 137.64968872070313 197.8197021484375 137.64968872070313 208.2911376953125 137.64968872070313 209.5477294921875 137.64968872070313 209.5477294921875 137.64968872070313 " />
        <polyline stroke="black" stroke-width="3" stroke-linecap="round" fill="transparent" stroke-linejoin="round" points="164.31121826171875 175.76559448242188 178.97119140625 174.92788696289063 183.9974365234375 174.09017944335938 193.2122802734375 172.83360290527344 196.9820556640625 171.9958953857422 202.4271240234375 171.15817260742188 204.1025390625 170.73931884765625 204.1025390625 170.73931884765625 " />
        <polyline stroke="black" stroke-width="3" stroke-linecap="round" fill="transparent" stroke-linejoin="round" points="153.0020751953125 195.03298950195313 151.74554443359375 207.59866333007813 150.48895263671875 218.48895263671875 148.8134765625 228.9603271484375 148.3946533203125 230.63577270507813 147.55694580078125 232.73004150390625 147.55694580078125 232.31118774414065 149.65121459960938 228.12261962890625 153.0020751953125 217.65121459960935 154.677490234375 213.88153076171875 159.70379638671875 203.8289794921875 164.31121826171875 198.80267333984375 173.52606201171875 192.938720703125 185.2540283203125 188.331298828125 191.95574951171875 186.23699951171875 210.80426025390625 184.14273071289065 219.6002197265625 185.3992919921875 225.4642333984375 187.91241455078125 228.396240234375 190.84442138671875 229.65283203125 193.3575439453125 227.97735595703125 205.50439453125 219.6002197265625 215.1380920410156 204.9403076171875 226.44720458984375 187.76715087890625 234.40545654296875 187.76715087890625 234.40545654296875 " />
        <polyline stroke="black" stroke-width="3" stroke-linecap="round" fill="transparent" stroke-linejoin="round" points="147.97579956054688 209.27410888671875 162.2169189453125 208.855224609375 168.91864013671875 208.01751708984375 175.62030029296875 207.59866333007813 181.48431396484375 206.76095581054688 191.95574951171875 205.9232482910156 199.0762939453125 205.0855407714844 203.6837158203125 205.0855407714844 205.77801513671875 205.0855407714844 206.19683837890625 205.0855407714844 206.19683837890625 205.0855407714844 " />
        <polyline stroke="black" stroke-width="3" stroke-linecap="round" fill="transparent" stroke-linejoin="round" points="160.54150390625 240.26947021484375 171.4317626953125 235.66204833984375 176.87689208984375 233.98663330078125 181.9031982421875 232.31118774414065 186.5106201171875 230.63577270507813 198.65740966796875 228.9603271484375 204.9403076171875 229.79803466796875 204.9403076171875 229.79803466796875 " />
        </svg>