<?xml version="1.0" standalone="no"?>
    <svg width="256" height="256" xmlns="http://www.w3.org/2000/svg" version="1.1">
    <polyline stroke="black" stroke-width="3" stroke-linecap="round" fill="transparent" stroke-linejoin="round" points="47.3218994140625 74.20271301269531 44.567230224609375 87.42526245117188 41.812530517578125 113.31941223144533 40.71063232421875 127.0928955078125 40.71063232421875 138.66262817382813 41.812530517578125 144.17201232910156 44.01629638671875 144.17201232910156 47.3218994140625 137.0098114013672 53.38226318359375 118.27786254882813 53.38226318359375 118.27786254882813 " />
        <polyline stroke="black" stroke-width="3" stroke-linecap="round" fill="transparent" stroke-linejoin="round" points="67.7066650390625 51.61418914794922 67.15573120117188 64.28579711914063 66.60479736328125 99.54592895507813 66.60479736328125 133.15322875976563 66.60479736328125 166.76052856445313 66.05386352539063 186.04342651367188 66.05386352539063 204.77536010742188 66.05386352539063 215.79415893554688 66.05386352539063 221.30352783203125 66.05386352539063 221.30352783203125 70.46136474609375 210.835693359375 70.46136474609375 210.835693359375 " />
        <polyline stroke="black" stroke-width="3" stroke-linecap="round" fill="transparent" stroke-linejoin="round" points="106.27243041992188 52.165130615234375 103.51776123046876 68.14237976074219 94.15176391601563 97.8931121826172 85.33673095703125 121.03256225585938 79.27639770507813 134.80604553222656 74.868896484375 142.51919555664063 72.11419677734375 143.62107849121094 72.11419677734375 143.62107849121094 " />
        <polyline stroke="black" stroke-width="3" stroke-linecap="round" fill="transparent" stroke-linejoin="round" points="114.53652954101563 69.79519653320313 125.5552978515625 68.14237976074219 137.67596435546875 67.04049682617188 150.34759521484375 68.14237976074219 160.8154296875 70.89707946777344 168.528564453125 74.20271301269531 168.528564453125 74.20271301269531 " />
        <polyline stroke="black" stroke-width="3" stroke-linecap="round" fill="transparent" stroke-linejoin="round" points="122.24969482421876 117.1759796142578 120.04592895507813 127.0928955078125 118.94403076171876 141.41732788085938 118.94403076171876 172.26992797851563 119.4949951171875 191.55279541015625 120.04592895507813 206.42816162109375 118.94403076171876 213.0394592285156 117.8421630859375 211.93756103515625 117.8421630859375 211.93756103515625 " />
        <polyline stroke="black" stroke-width="3" stroke-linecap="round" fill="transparent" stroke-linejoin="round" points="77.0726318359375 149.13047790527344 78.7254638671875 158.49644470214844 83.68389892578125 164.55677795410156 91.947998046875 168.96429443359375 102.41586303710938 168.96429443359375 116.74029541015624 162.90396118164063 116.74029541015624 162.90396118164063 " />
        <polyline stroke="black" stroke-width="3" stroke-linecap="round" fill="transparent" stroke-linejoin="round" points="155.85699462890625 147.4776611328125 152.00042724609375 156.2926788330078 152.00042724609375 157.9455108642578 153.102294921875 154.08892822265625 153.102294921875 154.08892822265625 " />
        <polyline stroke="black" stroke-width="3" stroke-linecap="round" fill="transparent" stroke-linejoin="round" points="185.60772705078125 47.75761413574219 183.95489501953125 57.12358093261719 178.9964599609375 73.100830078125 170.73236083984375 97.3421630859375 164.6719970703125 110.56471252441406 160.2645263671875 119.37974548339844 157.50982666015625 122.68537902832033 157.50982666015625 122.68537902832033 " />
        <polyline stroke="black" stroke-width="3" stroke-linecap="round" fill="transparent" stroke-linejoin="round" points="194.97369384765625 65.93861389160156 204.890625 65.38768005371094 216.4603271484375 65.38768005371094 229.682861328125 65.38768005371094 240.1507568359375 67.04049682617188 248.96575927734375 68.69331359863281 248.96575927734375 68.69331359863281 " />
        <polyline stroke="black" stroke-width="3" stroke-linecap="round" fill="transparent" stroke-linejoin="round" points="199.3812255859375 103.40249633789063 192.7698974609375 119.37974548339844 190.0152587890625 130.94947814941406 187.260498046875 142.51919555664063 186.15869140625 150.78329467773438 184.505859375 155.19081115722656 183.4039306640625 156.2926788330078 182.30206298828125 150.78329467773438 182.85302734375 138.66262817382813 187.260498046875 124.88914489746094 194.4227294921875 113.31941223144533 202.1358642578125 104.50437927246094 211.5018310546875 96.79122924804688 221.9697265625 90.73089599609376 230.23382568359375 87.9761962890625 236.294189453125 87.9761962890625 240.1507568359375 91.83277893066406 242.3544921875 100.09686279296876 239.048828125 120.48162841796876 230.23382568359375 135.90792846679688 221.9697265625 145.27389526367188 213.1546630859375 150.78329467773438 200.48309326171875 150.78329467773438 195.524658203125 148.02859497070313 193.32086181640625 144.17201232910156 193.32086181640625 139.76449584960938 196.62652587890625 135.35699462890625 201.5849609375 130.94947814941406 208.7471923828125 125.9910125732422 218.1131591796875 121.03256225585938 224.1734619140625 118.27786254882813 229.682861328125 117.1759796142578 230.7847900390625 121.58349609375 224.72442626953125 134.80604553222656 212.05279541015625 149.68141174316406 201.5849609375 159.59832763671875 197.17742919921875 164.00584411621094 195.524658203125 166.2095947265625 196.0755615234375 166.2095947265625 199.3812255859375 164.00584411621094 204.890625 159.59832763671875 212.05279541015625 154.08892822265625 219.7659912109375 146.9267120361328 225.275390625 140.8663787841797 225.275390625 140.8663787841797 " />
        <polyline stroke="black" stroke-width="3" stroke-linecap="round" fill="transparent" stroke-linejoin="round" points="178.9964599609375 184.9415283203125 174.0379638671875 194.3074951171875 171.834228515625 200.91879272460935 170.181396484375 211.3866271972656 169.6304931640625 219.09979248046875 169.6304931640625 224.0582275390625 170.73236083984375 225.7110595703125 172.93609619140625 222.40542602539065 176.79266357421875 214.14132690429688 183.4039306640625 203.12252807617188 191.66802978515625 192.6546936035156 202.1358642578125 182.73779296875 215.35845947265625 173.37181091308594 226.92816162109375 167.86241149902344 234.641357421875 166.2095947265625 240.70166015625 167.3114776611328 245.10919189453125 171.718994140625 246.761962890625 184.39059448242188 241.80352783203125 200.91879272460935 231.8865966796875 214.6922607421875 231.8865966796875 214.6922607421875 " />
        <polyline stroke="black" stroke-width="3" stroke-linecap="round" fill="transparent" stroke-linejoin="round" points="183.4039306640625 211.93756103515625 193.32086181640625 206.42816162109375 203.7886962890625 200.91879272460935 214.8074951171875 197.06219482421875 223.07159423828125 194.85845947265625 228.58099365234375 194.85845947265625 229.682861328125 200.36782836914065 229.682861328125 200.36782836914065 " />
        <polyline stroke="black" stroke-width="3" stroke-linecap="round" fill="transparent" stroke-linejoin="round" points="181.75115966796875 237.83172607421875 196.62652587890625 228.46575927734375 205.992431640625 224.0582275390625 215.35845947265625 221.30352783203125 215.35845947265625 221.30352783203125 " />
        </svg>