<?xml version="1.0" standalone="no"?>
    <svg width="256" height="256" xmlns="http://www.w3.org/2000/svg" version="1.1">
    <polyline stroke="black" stroke-width="3" stroke-linecap="round" fill="transparent" stroke-linejoin="round" points="73.11416625976563 96.51901245117188 83.46710205078125 90.42904663085938 94.42904663085938 84.94807434082031 104.1729736328125 80.07609558105469 110.8719482421875 78.24911499023438 115.743896484375 78.24911499023438 115.743896484375 78.24911499023438 " />
        <polyline stroke="black" stroke-width="3" stroke-linecap="round" fill="transparent" stroke-linejoin="round" points="64.58819580078125 174.47055053710938 75.5501708984375 167.16259765625 87.12109375 158.6366424560547 99.301025390625 148.8927001953125 109.04495239257813 136.10377502441406 109.04495239257813 136.10377502441406 " />
        <polyline stroke="black" stroke-width="3" stroke-linecap="round" fill="transparent" stroke-linejoin="round" points="70.67816162109375 84.94807434082031 69.460205078125 126.35983276367188 65.19720458984375 164.7266082763672 60.934234619140625 197.6124267578125 57.889251708984375 215.88232421875 57.2802734375 231.7162170410156 57.2802734375 237.80618286132813 60.32525634765625 235.97918701171875 60.32525634765625 235.97918701171875 " />
        <polyline stroke="black" stroke-width="3" stroke-linecap="round" fill="transparent" stroke-linejoin="round" points="101.73699951171876 75.20413208007813 102.34600830078124 106.26295471191406 99.301025390625 140.3667449951172 95.64703369140624 169.5985870361328 91.9930419921875 197.00341796875 90.16607666015624 215.2733154296875 90.16607666015624 225.01724243164065 90.16607666015624 225.01724243164065 " />
        <polyline stroke="black" stroke-width="3" stroke-linecap="round" fill="transparent" stroke-linejoin="round" points="151.065673828125 98.3459930419922 149.23870849609375 129.40481567382813 146.1937255859375 152.5466766357422 141.9307861328125 175.68853759765625 137.05877685546875 192.74044799804688 134.0137939453125 206.74737548828125 132.18682861328125 213.44631958007813 132.18682861328125 213.44631958007813 " />
        <polyline stroke="black" stroke-width="3" stroke-linecap="round" fill="transparent" stroke-linejoin="round" points="160.20068359375 80.68510437011719 167.50860595703125 69.11416625976563 174.81658935546875 61.19720458984375 182.7335205078125 56.32524108886719 192.47747802734375 56.32524108886719 203.43939208984375 61.80621337890625 213.183349609375 75.81312561035156 221.70928955078125 98.95498657226563 225.36328125 126.96882629394533 223.5362548828125 151.3286895751953 218.664306640625 171.42556762695313 212.5743408203125 186.04147338867188 205.266357421875 195.78543090820313 193.6954345703125 203.0933837890625 193.6954345703125 203.0933837890625 " />
        <polyline stroke="black" stroke-width="3" stroke-linecap="round" fill="transparent" stroke-linejoin="round" points="134.0137939453125 126.35983276367188 149.23870849609375 123.31484985351563 171.16259765625 120.26986694335938 196.1314697265625 117.83387756347656 216.22833251953125 116.00689697265624 233.88922119140625 115.3979034423828 249.72314453125 116.00689697265624 261.2940673828125 119.0518798828125 261.2940673828125 119.0518798828125 " />
        </svg>