<?xml version="1.0" standalone="no"?>
    <svg width="256" height="256" xmlns="http://www.w3.org/2000/svg" version="1.1">
    <polyline stroke="black" stroke-width="3" stroke-linecap="round" fill="transparent" stroke-linejoin="round" points="72 63 72 82 72 110 72 140 66 168 55 190 42 203 37 207 37 207 " />
        <polyline stroke="black" stroke-width="3" stroke-linecap="round" fill="transparent" stroke-linejoin="round" points="49 111 59 111 78 105 101 102 121 99 132 99 134 99 134 99 " />
        <polyline stroke="black" stroke-width="3" stroke-linecap="round" fill="transparent" stroke-linejoin="round" points="69 159 84 159 102 157 120 154 131 150 131 150 " />
        <polyline stroke="black" stroke-width="3" stroke-linecap="round" fill="transparent" stroke-linejoin="round" points="124 92 124 133 120 170 116 196 111 215 111 217 111 217 " />
        <polyline stroke="black" stroke-width="3" stroke-linecap="round" fill="transparent" stroke-linejoin="round" points="162 104 162 131 155 163 148 190 142 207 140 213 140 213 " />
        <polyline stroke="black" stroke-width="3" stroke-linecap="round" fill="transparent" stroke-linejoin="round" points="169 83 176 83 190 83 203 83 210 83 214 91 214 113 214 142 210 166 207 190 205 205 203 215 197 220 188 221 188 221 " />
        <polyline stroke="black" stroke-width="3" stroke-linecap="round" fill="transparent" stroke-linejoin="round" points="136 136 156 136 175 137 199 141 223 145 233 150 233 150 " />
        </svg>