<?xml version="1.0" standalone="no"?>
    <svg width="256" height="256" xmlns="http://www.w3.org/2000/svg" version="1.1">
    <polyline stroke="black" stroke-width="3" stroke-linecap="round" fill="transparent" stroke-linejoin="round" points="53.492156982421875 92.1888427734375 55.797454833984375 98.74517822265624 62.529541015625 117.26744079589844 70.12203979492188 134.7053680419922 72.9075927734375 140.501953125 74.90570068359375 143.31394958496094 74.923828125 143.3395233154297 74.92510986328125 143.34129333496094 74.92547607421875 143.341796875 " />
        <polyline stroke="black" stroke-width="3" stroke-linecap="round" fill="transparent" stroke-linejoin="round" points="80.81576538085938 67.26780700683594 91.1026611328125 64.09304809570313 106.56344604492188 61.346893310546875 112.58709716796876 60.814361572265625 153.9222412109375 60.04304504394531 161.6162109375 61.0927734375 165.972412109375 66.288330078125 167.21636962890625 70.47640991210938 173.52239990234375 81.06126403808594 177.271484375 88.54109191894531 181.114501953125 103.43655395507813 181.923583984375 111.77239990234376 179.468505859375 123.97616577148438 174.7008056640625 133.48265075683594 171.802734375 137.68975830078125 165.2305908203125 142.69854736328125 164.87310791015625 142.95584106445313 " />
        <polyline stroke="black" stroke-width="3" stroke-linecap="round" fill="transparent" stroke-linejoin="round" points="103.09112548828124 73.26473999023438 104.86141967773438 81.92593383789063 106.73138427734376 91.59127807617188 108.0555419921875 100.52659606933594 109.93133544921876 118.7427978515625 110.35540771484376 132.2325439453125 110.19488525390624 137.67001342773438 109.33908081054688 141.99160766601563 109.28900146484376 142.1890869140625 " />
        <polyline stroke="black" stroke-width="3" stroke-linecap="round" fill="transparent" stroke-linejoin="round" points="79.71026611328125 108.74674987792967 87.87957763671875 107.93310546875 102.81161499023438 106.7192840576172 108.52230834960938 106.4197998046875 133.14166259765625 104.64578247070313 158.0035400390625 103.59147644042967 158.602294921875 103.56887817382813 158.668212890625 103.56640625 158.668701171875 103.56637573242188 158.6688232421875 103.56637573242188 " />
        <polyline stroke="black" stroke-width="3" stroke-linecap="round" fill="transparent" stroke-linejoin="round" points="102.40966796875 142.85800170898438 137.54647827148438 143.17283630371094 156.21484375 143.62908935546875 166.73699951171875 144.4869842529297 179.1282958984375 146.98239135742188 187.05029296875 148.9088134765625 187.2564697265625 148.98106384277344 187.277099609375 148.98828125 187.2786865234375 148.98883056640625 " />
        <polyline stroke="black" stroke-width="3" stroke-linecap="round" fill="transparent" stroke-linejoin="round" points="74.5146484375 185.96893310546875 81.61163330078125 184.5381774902344 99.2960205078125 183.21775817871097 128.55038452148438 183.4706115722656 157.15301513671875 183.9278564453125 173.3377685546875 185.80694580078125 182.78070068359375 186.70541381835935 202.369384765625 188.68255615234375 212.69329833984375 189.5887756347656 213.8267822265625 189.64968872070313 213.9400634765625 189.65579223632813 213.951416015625 189.65640258789065 213.951904296875 189.65643310546875 213.9522705078125 189.65643310546875 " />
        </svg>