<?xml version="1.0" standalone="no"?>
    <svg width="256" height="256" xmlns="http://www.w3.org/2000/svg" version="1.1">
    <polyline stroke="black" stroke-width="3" stroke-linecap="round" fill="transparent" stroke-linejoin="round" points="99.13055419921876 66.40483093261719 99.13055419921876 73.81240844726563 99.5203857421875 82.38961791992188 99.9102783203125 91.356689453125 100.69003295898438 108.90097045898438 101.859619140625 122.93638610839844 102.639404296875 132.68319702148438 103.02926635742188 137.36167907714844 103.02926635742188 137.36167907714844 " />
        <polyline stroke="black" stroke-width="3" stroke-linecap="round" fill="transparent" stroke-linejoin="round" points="127.59124755859376 58.217498779296875 133.82919311523438 55.09852600097656 141.23678588867188 52.369407653808594 156.05194091796875 48.47068786621094 163.0697021484375 47.690940856933594 175.15570068359375 48.080810546875 183.73291015625 51.19979095458984 189.97088623046875 56.26814270019531 195.42913818359375 67.1845703125 197.768310546875 82.77949523925781 195.03924560546875 100.3237762451172 186.4620361328125 118.25790405273438 181.00384521484375 126.44523620605467 181.00384521484375 126.44523620605467 " />
        <polyline stroke="black" stroke-width="3" stroke-linecap="round" fill="transparent" stroke-linejoin="round" points="125.641845703125 112.7996826171875 131.87985229492188 110.07058715820313 138.50765991210938 107.73135375976563 145.135498046875 105.39212036132813 151.37347412109375 103.0528564453125 163.4595947265625 97.59465026855467 172.8165283203125 91.356689453125 179.4443359375 82.38961791992188 179.4443359375 82.38961791992188 " />
        <polyline stroke="black" stroke-width="3" stroke-linecap="round" fill="transparent" stroke-linejoin="round" points="154.88232421875 62.11622619628906 154.88232421875 68.35418701171875 154.88232421875 74.98202514648438 154.492431640625 89.0174560546875 153.3228759765625 101.88323974609376 150.59375 115.91867065429688 145.915283203125 129.17434692382813 142.01654052734375 136.9718017578125 142.01654052734375 136.9718017578125 " />
        <polyline stroke="black" stroke-width="3" stroke-linecap="round" fill="transparent" stroke-linejoin="round" points="123.69256591796876 138.14141845703125 130.32037353515625 136.58193969726563 137.72796630859375 135.02243041992188 145.525390625 133.4629364013672 161.12030029296875 130.34396362304688 186.0721435546875 125.27561950683594 192.3101806640625 124.1060028076172 192.3101806640625 124.1060028076172 " />
        <polyline stroke="black" stroke-width="3" stroke-linecap="round" fill="transparent" stroke-linejoin="round" points="70.27996826171875 200.52105712890625 96.01156616210938 197.79196166992188 110.82675170898438 196.23245239257813 157.6114501953125 192.333740234375 172.0367431640625 191.16412353515625 208.294921875 188.82489013671875 216.8720703125 188.43499755859375 232.0771484375 187.6552734375 234.8062744140625 187.6552734375 234.8062744140625 187.6552734375 " />
        </svg>