<?xml version="1.0" standalone="no"?>
    <svg width="256" height="256" xmlns="http://www.w3.org/2000/svg" version="1.1">
    <polyline stroke="black" stroke-width="3" stroke-linecap="round" fill="transparent" stroke-linejoin="round" points="86 74 86 88 87 114 89 129 93 139 95 141 95 141 " />
        <polyline stroke="black" stroke-width="3" stroke-linecap="round" fill="transparent" stroke-linejoin="round" points="87 63 98 63 118 63 139 62 156 62 169 62 177 68 179 83 180 99 180 116 179 130 173 143 166 148 166 148 " />
        <polyline stroke="black" stroke-width="3" stroke-linecap="round" fill="transparent" stroke-linejoin="round" points="129 75 129 82 129 97 128 112 128 127 128 137 128 141 128 141 " />
        <polyline stroke="black" stroke-width="3" stroke-linecap="round" fill="transparent" stroke-linejoin="round" points="98 108 105 108 119 108 139 109 157 112 169 118 169 118 " />
        <polyline stroke="black" stroke-width="3" stroke-linecap="round" fill="transparent" stroke-linejoin="round" points="98 153 109 153 127 153 147 152 162 152 172 152 172 152 " />
        <polyline stroke="black" stroke-width="3" stroke-linecap="round" fill="transparent" stroke-linejoin="round" points="59 201 66 201 86 199 112 196 128 195 141 194 167 194 188 194 200 196 205 198 205 198 " />
        </svg>