<?xml version="1.0" standalone="no"?>
    <svg width="256" height="256" xmlns="http://www.w3.org/2000/svg" version="1.1">
    <polyline stroke="black" stroke-width="3" stroke-linecap="round" fill="transparent" stroke-linejoin="round" points="98.73617553710938 20.313003540039063 97.41107177734376 33.121978759765625 95.20263671875 42.39744567871094 92.11083984375 54.32305145263672 87.252197265625 68.01541137695313 74.88494873046875 93.19168090820313 67.81793212890625 105.5589599609375 55.00897216796875 126.76004028320313 44.40838623046875 142.2191619873047 37.783050537109375 149.72789001464844 35.57464599609375 151.9363250732422 35.57464599609375 151.9363250732422 " />
        <polyline stroke="black" stroke-width="3" stroke-linecap="round" fill="transparent" stroke-linejoin="round" points="83.71871948242188 99.37533569335938 95.644287109375 111.30094909667967 100.50289916992188 116.15951538085938 104.47811889648438 120.13470458984376 111.98681640625 126.76004028320313 122.14569091796876 131.17694091796875 122.14569091796876 131.17694091796875 " />
        <polyline stroke="black" stroke-width="3" stroke-linecap="round" fill="transparent" stroke-linejoin="round" points="173.8232421875 19.871307373046875 168.52301025390625 37.98055267333984 164.54779052734375 49.02278137207031 160.13092041015625 60.50669860839844 143.78842163085938 92.3083038330078 126.56256103515624 117.48458862304688 121.70394897460938 123.22654724121094 113.75360107421876 132.94369506835938 111.10345458984376 135.59381103515625 111.10345458984376 135.59381103515625 " />
        <polyline stroke="black" stroke-width="3" stroke-linecap="round" fill="transparent" stroke-linejoin="round" points="133.62957763671875 109.53416442871094 146.88021850585938 106.44235229492188 153.505615234375 106.00067138671876 167.19793701171875 106.44235229492188 173.381591796875 106.884033203125 187.957275390625 108.2091064453125 194.1409912109375 108.65080261230467 194.1409912109375 108.65080261230467 " />
        <polyline stroke="black" stroke-width="3" stroke-linecap="round" fill="transparent" stroke-linejoin="round" points="80.18524169921875 165.18698120117188 96.52767944335938 159.0033416748047 104.91976928710938 156.3531951904297 113.75360107421876 154.14476013183594 131.421142578125 150.1695556640625 149.08871459960938 146.63604736328125 165.43115234375 143.54421997070313 175.59002685546875 140.8940887451172 175.59002685546875 140.8940887451172 " />
        <polyline stroke="black" stroke-width="3" stroke-linecap="round" fill="transparent" stroke-linejoin="round" points="50.150360107421875 202.28887939453125 62.959320068359375 197.8719787597656 71.35140991210938 196.105224609375 81.51025390625 194.3384704589844 105.36151123046876 192.57171630859375 117.728759765625 192.1300048828125 156.597412109375 191.68832397460935 185.30718994140625 190.36328125 185.30718994140625 190.36328125 " />
        </svg>