<?xml version="1.0" standalone="no"?>
    <svg width="256" height="256" xmlns="http://www.w3.org/2000/svg" version="1.1">
    <polyline stroke="black" stroke-width="3" stroke-linecap="round" fill="transparent" stroke-linejoin="round" points="94.94958496093753 41.83549499511719 92.48382568359376 50.46562194824219 90.01806640625 59.09574890136719 86.31942749023438 69.78067016601563 76.4564208984375 93.61627197265624 67.41537475585938 114.1641845703125 61.66192626953125 126.08197021484376 58.374267578125 130.60252380371094 58.374267578125 130.60252380371094 " />
        <polyline stroke="black" stroke-width="3" stroke-linecap="round" fill="transparent" stroke-linejoin="round" points="78.51123046875 98.5477294921875 84.2646484375 100.6025390625 90.01806640625 102.6573486328125 102.75778198242188 108.82171630859376 120.83993530273438 119.50665283203124 125.77145385742188 121.56143188476563 125.77145385742188 121.56143188476563 " />
        <polyline stroke="black" stroke-width="3" stroke-linecap="round" fill="transparent" stroke-linejoin="round" points="167.27825927734375 35.260154724121094 164.40155029296875 43.890281677246094 161.52484130859375 52.520408630371094 158.2371826171875 63.616302490234375 147.55224609375 94.84915161132813 139.7440185546875 111.2874755859375 136.04541015625 117.0408935546875 130.2919921875 122.7943115234375 129.47006225585938 122.3833465576172 129.47006225585938 121.97239685058594 134.40158081054688 117.45184326171876 144.675537109375 113.7532196044922 157.826171875 111.69842529296876 170.15496826171875 111.69842529296876 180.428955078125 112.93130493164063 184.53851318359375 113.7532196044922 184.53851318359375 113.7532196044922 " />
        <polyline stroke="black" stroke-width="3" stroke-linecap="round" fill="transparent" stroke-linejoin="round" points="66.59347534179688 166.35589599609375 84.67562866210938 162.6572723388672 102.75778198242188 158.95864868164063 114.675537109375 156.08193969726563 127.00433349609376 153.20523071289063 150.83993530273438 146.21893310546875 161.935791015625 142.5203094482422 175.4974365234375 138.41073608398438 175.4974365234375 138.41073608398438 " />
        <polyline stroke="black" stroke-width="3" stroke-linecap="round" fill="transparent" stroke-linejoin="round" points="67.41534423828125 192.24627685546875 75.634521484375 191.8353271484375 83.85369873046875 191.42437744140625 92.894775390625 191.013427734375 114.26461791992188 189.78054809570313 138.51116943359375 186.90383911132813 151.2508544921875 184.84906005859375 163.9906005859375 182.38328552246097 163.9906005859375 182.38328552246097 " />
        </svg>