<?xml version="1.0" standalone="no"?>
    <svg width="256" height="256" xmlns="http://www.w3.org/2000/svg" version="1.1">
    <polyline stroke="black" stroke-width="3" stroke-linecap="round" fill="transparent" stroke-linejoin="round" points="87.4000244140625 70.66667175292969 81.00006103515625 121.86668395996094 72.466796875 142.1333465576172 63.93341064453125 158.1333465576172 59.66668701171875 165.6000213623047 55.4000244140625 166.6666717529297 52.2000732421875 165.6000213623047 52.2000732421875 165.6000213623047 " />
        <polyline stroke="black" stroke-width="3" stroke-linecap="round" fill="transparent" stroke-linejoin="round" points="81.00006103515625 121.86668395996094 102.3333740234375 129.33334350585938 111.93341064453124 132.53334045410156 117.2667236328125 134.6666717529297 119.4000244140625 136.80001831054688 119.4000244140625 136.80001831054688 " />
        <polyline stroke="black" stroke-width="3" stroke-linecap="round" fill="transparent" stroke-linejoin="round" points="143.933349609375 44.00000762939453 143.933349609375 65.33334350585938 142.86669921875 78.13334655761719 139.666748046875 103.73333740234376 135.4000244140625 126.1333465576172 129 143.20001220703125 122.60003662109376 157.06671142578125 120.466796875 158.1333465576172 117.2667236328125 154.93336486816406 117.2667236328125 154.93336486816406 " />
        <polyline stroke="black" stroke-width="3" stroke-linecap="round" fill="transparent" stroke-linejoin="round" points="148.2000732421875 111.20002746582033 167.4000244140625 129.33334350585938 178.0667724609375 134.6666717529297 186.60009765625 140.00001525878906 189.8001708984375 145.33334350585938 189.8001708984375 145.33334350585938 " />
        <polyline stroke="black" stroke-width="3" stroke-linecap="round" fill="transparent" stroke-linejoin="round" points="95.93341064453124 170.93336486816406 118.3333740234375 162.40003967285156 137.533447265625 158.1333465576172 149.2667236328125 156.00001525878906 154.60009765625 157.06671142578125 154.60009765625 157.06671142578125 " />
        <polyline stroke="black" stroke-width="3" stroke-linecap="round" fill="transparent" stroke-linejoin="round" points="60.7333984375 243.4666748046875 100.2000732421875 226.40005493164065 137.533447265625 215.73336791992188 172.7333984375 210.40005493164065 202.60009765625 208.2666931152344 229.2667236328125 207.20001220703125 229.2667236328125 207.20001220703125 " />
        </svg>