<?xml version="1.0" standalone="no"?>
    <svg width="256" height="256" xmlns="http://www.w3.org/2000/svg" version="1.1">
    <polyline stroke="black" stroke-width="3" stroke-linecap="round" fill="transparent" stroke-linejoin="round" points="110.228515625 51.80418395996094 103.1219482421875 67.13943481445313 96.015380859375 82.47468566894531 88.16073608398438 100.05413818359376 81.05413818359375 116.137451171875 63.848724365234375 152.04440307617188 58.6123046875 162.8912811279297 56.368133544921875 167.37966918945313 55.99407958984375 167.37966918945313 139.40292358398438 161.39517211914063 139.40292358398438 161.39517211914063 " />
        <polyline stroke="black" stroke-width="3" stroke-linecap="round" fill="transparent" stroke-linejoin="round" points="180.92022705078125 67.88748168945313 174.187744140625 82.47468566894531 167.45526123046875 97.0618896484375 160.72265625 109.40489196777344 153.9901123046875 121.74790954589844 142.76922607421875 140.07542419433594 133.41842651367188 152.41842651367188 132.67037963867188 152.79246520996094 132.67037963867188 152.79246520996094 " />
        <polyline stroke="black" stroke-width="3" stroke-linecap="round" fill="transparent" stroke-linejoin="round" points="174.9359130859375 115.01535034179688 188.7750244140625 122.4959716796875 202.6141357421875 129.97659301757813 212.33892822265625 136.70913696289063 217.20135498046875 143.0676727294922 217.20135498046875 143.0676727294922 " />
        <polyline stroke="black" stroke-width="3" stroke-linecap="round" fill="transparent" stroke-linejoin="round" points="107.23635864257815 199.1722412109375 116.96112060546876 195.05792236328125 126.68588256835938 190.943603515625 136.41064453125 186.82925415039065 155.11224365234375 179.72268676757813 163.3409423828125 177.10446166992188 176.4320068359375 174.11221313476563 183.16455078125 173.73818969726563 183.53857421875 174.11221313476563 183.53857421875 174.11221313476563 " />
        <polyline stroke="black" stroke-width="3" stroke-linecap="round" fill="transparent" stroke-linejoin="round" points="70.20724487304688 223.85836791992182 82.55026245117188 219.36996459960935 94.89328002929688 214.88156127929688 107.98434448242188 210.3931884765625 136.41064453125 203.28662109375 152.1199951171875 200.29437255859375 185.40869140625 195.05792236328125 214.9571533203125 192.81375122070313 225.8040771484375 193.93585205078125 225.8040771484375 193.93585205078125 " />
        </svg>