<?xml version="1.0" standalone="no"?>
    <svg width="256" height="256" xmlns="http://www.w3.org/2000/svg" version="1.1">
    <polyline stroke="black" stroke-width="3" stroke-linecap="round" fill="transparent" stroke-linejoin="round" points="57.615142822265625 80.46087646484375 58.172760009765625 93.2861328125 59.84564208984375 109.45713806152344 64.86419677734375 130.64671325683594 68.20993041992188 143.47198486328125 69.8828125 150.72105407714844 70.998046875 153.5091552734375 70.998046875 153.5091552734375 " />
        <polyline stroke="black" stroke-width="3" stroke-linecap="round" fill="transparent" stroke-linejoin="round" points="57.057525634765625 109.45713806152344 68.20993041992188 99.9775848388672 81.59283447265625 93.2861328125 103.89764404296876 85.47944641113281 133.4515380859375 79.90324401855469 151.29541015625 77.67276000976563 169.1392822265625 77.11514282226563 183.0797119140625 78.23039245605469 189.771240234375 79.34562683105469 194.789794921875 82.13372802734375 196.462646484375 87.15231323242188 195.905029296875 94.95899963378906 188.65594482421875 111.12998962402344 170.8121337890625 133.434814453125 170.8121337890625 133.434814453125 " />
        <polyline stroke="black" stroke-width="3" stroke-linecap="round" fill="transparent" stroke-linejoin="round" points="99.43667602539063 87.70993041992188 101.10955810546876 98.8623504638672 101.10955810546876 108.89950561523438 101.10955810546876 119.49430847167967 101.10955810546876 128.97384643554688 100.55194091796876 136.22291564941406 100.55194091796876 136.22291564941406 " />
        <polyline stroke="black" stroke-width="3" stroke-linecap="round" fill="transparent" stroke-linejoin="round" points="141.81585693359375 100.5352020263672 139.02774047851563 113.9180908203125 133.4515380859375 124.51287841796876 122.29913330078124 137.33815002441406 106.12811279296876 150.16342163085938 91.6300048828125 159.08535766601563 81.03521728515625 163.54632568359375 76.57424926757813 165.77679443359375 74.34375 165.77679443359375 78.24710083007813 162.9886932373047 92.7452392578125 156.85487365722656 112.819580078125 150.72105407714844 132.3363037109375 146.8177032470703 147.39202880859375 145.14483642578125 160.21728515625 144.58721923828125 168.02398681640625 144.02960205078125 173.6002197265625 145.14483642578125 176.3883056640625 149.60580444335938 176.3883056640625 149.60580444335938 " />
        </svg>