<?xml version="1.0" standalone="no"?>
    <svg width="256" height="256" xmlns="http://www.w3.org/2000/svg" version="1.1">
    <polyline stroke="black" stroke-width="3" stroke-linecap="round" fill="transparent" stroke-linejoin="round" points="69.2237548828125 100.93600463867188 68.113037109375 114.26446533203124 67.55767822265625 138.69996643066406 68.113037109375 151.4730682373047 69.2237548828125 161.4694061279297 70.33444213867188 167.02293395996094 72.00048828125 167.02293395996094 73.1112060546875 160.35870361328125 73.1112060546875 144.2534942626953 73.1112060546875 130.3696746826172 73.66656494140625 119.81797790527344 76.9986572265625 110.93234252929688 84.77362060546875 102.60206604003906 103.65557861328124 90.93966674804688 123.64825439453124 82.609375 144.75164794921875 77.05584716796875 162.52294921875 76.50050354003906 178.07281494140625 79.27725219726563 188.06915283203125 84.83078002929688 195.2886962890625 95.93783569335938 199.17620849609375 114.81980895996094 196.95477294921875 132.03573608398438 191.4012451171875 148.69630432128906 180.849609375 165.35687255859375 168.07647705078125 177.019287109375 168.07647705078125 177.019287109375 " />
        <polyline stroke="black" stroke-width="3" stroke-linecap="round" fill="transparent" stroke-linejoin="round" points="113.0965576171875 104.2681121826172 112.54122924804688 117.59657287597656 112.54122924804688 129.25897216796875 113.0965576171875 140.36602783203125 114.207275390625 147.03025817871094 115.3179931640625 149.2516632080078 116.98403930664063 143.69813537597656 116.98403930664063 143.69813537597656 " />
        <polyline stroke="black" stroke-width="3" stroke-linecap="round" fill="transparent" stroke-linejoin="round" points="138.08743286132813 88.71824645996094 138.64279174804688 107.0448760986328 135.3106689453125 125.92686462402344 127.53573608398438 143.69813537597656 118.0947265625 158.13729858398438 108.098388671875 168.13363647460938 97.54669189453124 173.68716430664063 88.105712890625 175.9085693359375 81.996826171875 175.9085693359375 79.2200927734375 174.24252319335938 81.44146728515625 172.02110290527344 88.66107177734375 169.79969787597656 113.0965576171875 167.5782928466797 139.1981201171875 168.13363647460938 159.1907958984375 171.46575927734375 174.185302734375 177.5746307373047 174.185302734375 177.5746307373047 " />
        </svg>