<?xml version="1.0" standalone="no"?>
    <svg width="256" height="256" xmlns="http://www.w3.org/2000/svg" version="1.1">
    <polyline stroke="black" stroke-width="3" stroke-linecap="round" fill="transparent" stroke-linejoin="round" points="81.61801147460938 67.56779479980469 95.29827880859376 63.596099853515625 101.4764404296875 61.830902099609375 108.095947265625 60.065704345703125 121.77621459960938 56.53532409667969 128.39569091796875 54.77012634277344 141.19332885742188 51.23973846435547 149.5780029296875 49.91584777832031 153.990966796875 50.357139587402344 154.87359619140625 54.77012634277344 147.37152099609375 73.30467224121094 130.16085815429688 101.98907470703124 108.978515625 132.87998962402344 90.88525390625 160.6818084716797 84.70712280273438 171.7142791748047 77.20504760742188 188.04232788085935 76.76373291015625 205.69427490234375 83.82452392578125 211.43115234375 104.56552124023438 215.40286254882813 128.39569091796875 214.0789794921875 148.25411987304688 210.10726928710935 164.140869140625 205.69427490234375 176.055908203125 199.0747985839844 186.205810546875 189.36624145507813 198.120849609375 167.30130004882813 202.97515869140625 141.2646942138672 199.00347900390625 123.1714324951172 195.03173828125 116.99325561523438 195.03173828125 116.99325561523438 " />
        <polyline stroke="black" stroke-width="3" stroke-linecap="round" fill="transparent" stroke-linejoin="round" points="84.26580810546875 104.1956024169922 102.80035400390624 109.49118041992188 112.067626953125 112.58026123046876 122.21749877929688 115.66935729980467 132.36737060546875 119.19973754882813 151.7845458984375 126.70182800292967 170.31903076171875 133.32131958007813 170.31903076171875 133.32131958007813 " />
        </svg>