<?xml version="1.0" standalone="no"?>
    <svg width="256" height="256" xmlns="http://www.w3.org/2000/svg" version="1.1">
    <polyline stroke="black" stroke-width="3" stroke-linecap="round" fill="transparent" stroke-linejoin="round" points="65.62921142578125 46.66310119628906 71.50216674804688 56.807342529296875 75.23953247070313 64.28204345703125 80.044677734375 72.29066467285156 84.849853515625 78.16365051269531 89.12112426757813 82.43490600585938 94.99411010742188 84.03663635253906 94.99411010742188 84.03663635253906 " />
        <polyline stroke="black" stroke-width="3" stroke-linecap="round" fill="transparent" stroke-linejoin="round" points="112.613037109375 47.19700622558594 122.75729370117188 54.671722412109375 126.49465942382813 57.87516784667969 129.1641845703125 61.07861328125 133.9693603515625 61.612518310546875 133.9693603515625 61.612518310546875 " />
        <polyline stroke="black" stroke-width="3" stroke-linecap="round" fill="transparent" stroke-linejoin="round" points="185.7584228515625 27.976341247558594 181.48712158203125 40.79012298583984 172.41070556640625 55.739532470703125 155.85955810546875 76.56192016601563 142.51190185546875 90.97743225097656 142.51190185546875 90.97743225097656 " />
        <polyline stroke="black" stroke-width="3" stroke-linecap="round" fill="transparent" stroke-linejoin="round" points="103.00271606445313 91.51133728027344 96.06192016601563 104.32511901855467 84.849853515625 124.61360168457033 76.30734252929688 140.096923828125 68.8326416015625 151.30897521972656 64.56137084960938 157.1819610595703 61.891845703125 158.78369140625 61.891845703125 157.7158660888672 61.891845703125 157.7158660888672 " />
        <polyline stroke="black" stroke-width="3" stroke-linecap="round" fill="transparent" stroke-linejoin="round" points="91.7906494140625 120.87625122070313 100.86709594726563 118.74061584472656 112.07916259765624 115.00326538085938 125.42681884765624 110.73200988769533 143.0457763671875 104.85902404785156 158.52911376953125 101.12167358398438 171.3428955078125 98.9860382080078 182.02105712890625 98.9860382080078 188.42791748046875 100.5877685546875 192.69921875 105.92683410644533 193.23309326171875 122.47796630859376 187.89404296875 146.50381469726563 180.4193115234375 167.32620239257813 170.8089599609375 185.47906494140625 162.80035400390625 198.8267517089844 155.85955810546875 205.76754760742188 148.38485717773438 211.10662841796875 140.91015625 213.24224853515625 135.03717041015625 212.1744384765625 130.76593017578125 205.233642578125 130.76593017578125 205.233642578125 " />
        <polyline stroke="black" stroke-width="3" stroke-linecap="round" fill="transparent" stroke-linejoin="round" points="134.50326538085938 124.61360168457033 128.09637451171875 137.96128845214844 121.15557861328124 151.30897521972656 112.613037109375 163.58885192871094 103.53662109375 174.26699829101563 95.52801513671876 181.74171447753903 88.58721923828125 185.47906494140625 88.58721923828125 185.47906494140625 " />
        <polyline stroke="black" stroke-width="3" stroke-linecap="round" fill="transparent" stroke-linejoin="round" points="99.265380859375 148.10552978515625 111.0113525390625 151.30897521972656 126.49465942382813 157.1819610595703 147.8509521484375 165.7244873046875 162.80035400390625 172.665283203125 176.1480712890625 180.13998413085938 185.2244873046875 187.61468505859375 192.69921875 205.233642578125 192.69921875 205.233642578125 " />
        </svg>