<?xml version="1.0" standalone="no"?>
    <svg width="256" height="256" xmlns="http://www.w3.org/2000/svg" version="1.1">
    <polyline stroke="black" stroke-width="3" stroke-linecap="round" fill="transparent" stroke-linejoin="round" points="128.49273681640625 49.48619842529297 131.48974609375 58.73399353027344 135.424072265625 77.55307006835938 136.4013671875 87.27381896972656 135.203125 100.60601806640624 133.04940795898438 107.14390563964844 132.83404541015625 107.79771423339844 " />
        <polyline stroke="black" stroke-width="3" stroke-linecap="round" fill="transparent" stroke-linejoin="round" points="92.64031982421876 120.242431640625 119.94439697265624 115.7681884765625 133.75653076171875 113.72135925292967 154.4254150390625 110.98947143554688 169.5302734375 110.1831512451172 181.3385009765625 110.69761657714844 183.871337890625 111.01806640625 185.9071044921875 111.3016357421875 185.92059326171875 111.30355834960938 " />
        <polyline stroke="black" stroke-width="3" stroke-linecap="round" fill="transparent" stroke-linejoin="round" points="76.697998046875 168.6754150390625 83.250732421875 167.46568298339844 98.90728759765624 165.03646850585938 132.3616943359375 162.20872497558594 142.0025634765625 161.2386474609375 172.6409912109375 157.7845458984375 182.828369140625 156.39608764648438 193.5816650390625 154.78787231445313 196.60009765625 154.3823699951172 198.6751708984375 154.21475219726563 199.63958740234375 154.24072265625 199.6529541015625 154.2410888671875 " />
        <polyline stroke="black" stroke-width="3" stroke-linecap="round" fill="transparent" stroke-linejoin="round" points="136.81307983398438 176.35662841796875 137.35714721679688 187.6806640625 137.06829833984375 214.48992919921875 135.654296875 241.36892700195313 133.65203857421875 252.76788330078125 127.729248046875 260.12823486328125 127.136962890625 260.8642883300781 " />
        </svg>