<?xml version="1.0" standalone="no"?>
    <svg width="256" height="256" xmlns="http://www.w3.org/2000/svg" version="1.1">
    <polyline stroke="black" stroke-width="3" stroke-linecap="round" fill="transparent" stroke-linejoin="round" points="121.3668212890625 44.60216522216797 121.3668212890625 49.93959045410156 119.31396484375 66.3624267578125 115.61883544921876 76.21612548828125 113.1553955078125 80.32183837890625 107.40740966796876 87.30155944824219 107.40740966796876 87.30155944824219 " />
        <polyline stroke="black" stroke-width="3" stroke-linecap="round" fill="transparent" stroke-linejoin="round" points="85.64715576171875 94.69183349609376 101.24887084960938 93.87068176269533 116.85055541992188 93.87068176269533 133.27337646484375 93.87068176269533 145.59051513671875 94.28125 153.391357421875 94.28125 156.265380859375 94.69183349609376 158.3182373046875 94.69183349609376 158.3182373046875 94.69183349609376 " />
        <polyline stroke="black" stroke-width="3" stroke-linecap="round" fill="transparent" stroke-linejoin="round" points="65.11859130859375 143.9603271484375 72.50888061523438 141.0863494873047 80.30975341796875 138.62290954589844 105.76513671875 133.28549194335938 124.6513671875 132.05377197265625 141.48480224609375 131.64321899414063 156.265380859375 131.64321899414063 167.35076904296875 131.23263549804688 172.688232421875 130.8220672607422 173.919921875 130.8220672607422 173.919921875 130.8220672607422 " />
        <polyline stroke="black" stroke-width="3" stroke-linecap="round" fill="transparent" stroke-linejoin="round" points="112.334228515625 155.45632934570313 112.74484252929688 161.20433044433594 115.208251953125 191.176025390625 115.61883544921876 196.513427734375 116.02938842773438 207.59884643554688 114.79769897460938 219.0948486328125 113.1553955078125 230.5908203125 113.1553955078125 230.5908203125 " />
        </svg>