<?xml version="1.0" standalone="no"?>
    <svg width="256" height="256" xmlns="http://www.w3.org/2000/svg" version="1.1">
    <polyline stroke="black" stroke-width="3" stroke-linecap="round" fill="transparent" stroke-linejoin="round" points="71.390869140625 81.22164916992188 68.4910888671875 103.17706298828124 64.34857177734375 140.04559326171875 61.44879150390625 168.6290283203125 60.206024169921875 180.22813415527344 59.79180908203125 199.28375244140625 59.79180908203125 204.25482177734375 59.79180908203125 203.84054565429688 59.79180908203125 203.01202392578125 59.79180908203125 203.01202392578125 " />
        <polyline stroke="black" stroke-width="3" stroke-linecap="round" fill="transparent" stroke-linejoin="round" points="94.58905029296876 58.02349853515625 107.43087768554688 53.466705322265625 132.28607177734375 50.98118591308594 148.85617065429688 53.880950927734375 161.697998046875 60.094757080078125 172.4686279296875 71.69384765625 183.23919677734375 93.2349853515625 188.62445068359375 121.40422058105467 188.62445068359375 149.15914916992188 184.48193359375 173.60008239746094 177.43963623046875 192.241455078125 173.71136474609375 198.45526123046875 173.71136474609375 198.45526123046875 " />
        <polyline stroke="black" stroke-width="3" stroke-linecap="round" fill="transparent" stroke-linejoin="round" points="93.760498046875 112.29063415527344 100.38861083984376 108.14810180664063 107.0166015625 104.41983032226563 114.47314453125 101.10580444335938 125.65802001953124 96.54904174804688 129.800537109375 94.89199829101563 136.42855834960938 92.8207550048828 140.57113647460938 91.9922332763672 142.22811889648438 91.9922332763672 142.22811889648438 91.9922332763672 " />
        <polyline stroke="black" stroke-width="3" stroke-linecap="round" fill="transparent" stroke-linejoin="round" points="96.24603271484376 155.78720092773438 102.4598388671875 151.6446533203125 109.50213623046876 147.08787536621094 128.55780029296875 134.24603271484375 134.35736083984375 128.8607635498047 139.74261474609375 123.06120300292967 139.74261474609375 123.06120300292967 " />
        <polyline stroke="black" stroke-width="3" stroke-linecap="round" fill="transparent" stroke-linejoin="round" points="126.9007568359375 87.02120971679688 125.65802001953124 96.96327209472656 124.82952880859376 107.73387145996094 123.58676147460938 130.103515625 122.75823974609376 140.87408447265625 119.85848999023438 162.82949829101563 117.37298583984376 171.94305419921875 114.47314453125 179.81387329101563 114.47314453125 179.81387329101563 " />
        <polyline stroke="black" stroke-width="3" stroke-linecap="round" fill="transparent" stroke-linejoin="round" points="82.98995971679688 211.297119140625 93.34628295898438 207.56881713867188 104.11688232421876 204.25482177734375 114.887451171875 201.35504150390625 133.94305419921875 196.7982482910156 157.9697265625 193.48422241210935 171.225830078125 193.06997680664065 171.225830078125 193.06997680664065 " />
        </svg>