<?xml version="1.0" standalone="no"?>
    <svg width="256" height="256" xmlns="http://www.w3.org/2000/svg" version="1.1">
    <polyline stroke="black" stroke-width="3" stroke-linecap="round" fill="transparent" stroke-linejoin="round" points="74.4039306640625 68.83631896972656 73.96185302734375 82.09890747070313 73.519775390625 96.24566650390624 72.19354248046875 127.6337890625 71.75143432617188 163.00070190429688 71.75143432617188 189.08380126953125 71.309326171875 203.23052978515625 70.86724853515625 207.20932006835935 70.86724853515625 207.20932006835935 " />
        <polyline stroke="black" stroke-width="3" stroke-linecap="round" fill="transparent" stroke-linejoin="round" points="90.76116943359376 69.72048950195313 97.39242553710938 66.18379211425781 112.86544799804688 60.436676025390625 130.10678100585938 58.6683349609375 153.0953369140625 62.64710998535156 160.168701171875 65.29962158203125 166.35791015625 68.83631896972656 181.8309326171875 85.19351196289063 191.55682373046875 103.76113891601563 195.093505859375 114.37120056152344 198.63018798828125 136.03343200683594 196.86181640625 167.4215545654297 191.55682373046875 183.3366546630859 187.57806396484375 190.4100341796875 187.57806396484375 190.4100341796875 " />
        <polyline stroke="black" stroke-width="3" stroke-linecap="round" fill="transparent" stroke-linejoin="round" points="112.42333984375 123.65501403808594 117.28631591796876 120.11833190917967 123.033447265625 116.58163452148438 129.22265625 113.48704528808594 140.71688842773438 109.50827026367188 146.4639892578125 107.73991394042967 150.00070190429688 106.41363525390624 150.00070190429688 106.41363525390624 " />
        <polyline stroke="black" stroke-width="3" stroke-linecap="round" fill="transparent" stroke-linejoin="round" points="106.67623901367188 144.43307495117188 111.98129272460938 142.66473388671875 118.17050170898438 140.45428466796875 131.87518310546875 136.9176025390625 149.11654663085938 130.2863006591797 158.8424072265625 122.32876586914063 158.8424072265625 122.32876586914063 " />
        <polyline stroke="black" stroke-width="3" stroke-linecap="round" fill="transparent" stroke-linejoin="round" points="139.83270263671875 91.38272094726563 137.18017578125 98.89817810058594 130.990966796875 125.86544799804688 129.22265625 135.59133911132813 126.12802124023438 153.71688842773438 120.38095092773438 173.16867065429688 116.40216064453124 181.126220703125 116.40216064453124 181.126220703125 " />
        <polyline stroke="black" stroke-width="3" stroke-linecap="round" fill="transparent" stroke-linejoin="round" points="99.1607666015625 194.38882446289065 119.49676513671876 188.1996154785156 147.34814453125 184.2208251953125 156.18988037109375 183.7787322998047 179.17840576171875 184.2208251953125 179.17840576171875 184.2208251953125 " />
        </svg>