<?xml version="1.0" standalone="no"?>
    <svg width="256" height="256" xmlns="http://www.w3.org/2000/svg" version="1.1">
    <polyline stroke="black" stroke-width="3" stroke-linecap="round" fill="transparent" stroke-linejoin="round" points="67.27313232421875 95.63232421875 69.532958984375 116.01608276367188 70.81103515625 136.33177185058594 70.95977783203125 158.10418701171875 69.38265991210938 193.6572265625 67.82476806640625 202.6220703125 67.40963745117188 199.42645263671875 " />
        <polyline stroke="black" stroke-width="3" stroke-linecap="round" fill="transparent" stroke-linejoin="round" points="113.0491943359375 57.22581481933594 122.41671752929688 52.711387634277344 145.541748046875 43.053489685058594 156.0546875 40.03385925292969 174.005859375 40.06218719482422 180.76788330078125 45.974884033203125 194.411865234375 77.71395874023438 203.0439453125 129.53884887695313 203.3763427734375 149.38882446289063 202.11431884765625 179.05694580078125 202.140380859375 189.8802490234375 203.3758544921875 200.12823486328125 203.9097900390625 203.61260986328125 203.96319580078125 203.9610595703125 " />
        <polyline stroke="black" stroke-width="3" stroke-linecap="round" fill="transparent" stroke-linejoin="round" points="125.83114624023438 126.171142578125 141.74740600585938 121.71490478515624 145.08139038085938 120.33421325683594 146.00445556640625 120.04342651367188 " />
        <polyline stroke="black" stroke-width="3" stroke-linecap="round" fill="transparent" stroke-linejoin="round" points="115.7418212890625 147.6954803466797 124.3056640625 146.3986053466797 134.23568725585938 146.12478637695313 147.80938720703125 147.15689086914063 148.24102783203125 147.571533203125 149.48983764648438 148.15875244140625 149.69964599609375 148.25738525390625 " />
        <polyline stroke="black" stroke-width="3" stroke-linecap="round" fill="transparent" stroke-linejoin="round" points="130.84603881835938 97.28536987304688 134.4273681640625 122.34991455078124 137.43820190429688 150.12203979492188 138.48309326171875 171.33529663085938 136.5869140625 200.47869873046875 133.5517578125 208.06069946289065 126.22393798828124 214.30130004882813 125.90545654296876 212.012939453125 " />
        <polyline stroke="black" stroke-width="3" stroke-linecap="round" fill="transparent" stroke-linejoin="round" points="105.46420288085938 221.5052795410156 116.4671630859375 218.55050659179688 147.0377197265625 213.2215576171875 161.477294921875 213.66864013671875 182.64501953125 218.4329833984375 186.4405517578125 222.156494140625 186.820068359375 222.52886962890625 " />
        </svg>