<?xml version="1.0" standalone="no"?>
    <svg width="256" height="256" xmlns="http://www.w3.org/2000/svg" version="1.1">
    <polyline stroke="black" stroke-width="3" stroke-linecap="round" fill="transparent" stroke-linejoin="round" points="71 73 72 75 73 80 74 86 75 95 76 106 77 118 78 131 80 144 82 162 83 173 84 181 85 188 85 193 85 196 86 197 86 196 " />
        <polyline stroke="black" stroke-width="3" stroke-linecap="round" fill="transparent" stroke-linejoin="round" points="77 99 80 96 84 93 87 92 91 90 95 89 101 87 107 85 115 84 123 82 132 80 145 76 154 74 161 73 167 73 171 73 175 75 178 79 180 86 183 101 184 113 185 125 186 138 187 148 187 158 187 167 187 175 187 182 186 188 186 192 185 193 " />
        <polyline stroke="black" stroke-width="3" stroke-linecap="round" fill="transparent" stroke-linejoin="round" points="96 124 96 122 97 121 99 120 103 118 107 117 111 116 117 116 122 115 128 114 133 113 139 112 144 111 146 111 148 112 " />
        <polyline stroke="black" stroke-width="3" stroke-linecap="round" fill="transparent" stroke-linejoin="round" points="110 139 109 139 108 140 109 140 110 140 113 140 117 140 121 139 126 139 130 139 135 138 142 134 148 130 151 127 154 124 156 121 " />
        <polyline stroke="black" stroke-width="3" stroke-linecap="round" fill="transparent" stroke-linejoin="round" points="139 88 135 90 133 93 132 97 131 104 131 112 131 122 132 132 132 142 133 152 133 166 133 175 132 183 132 187 " />
        <polyline stroke="black" stroke-width="3" stroke-linecap="round" fill="transparent" stroke-linejoin="round" points="93 200 92 199 91 198 91 198 92 197 95 196 98 195 103 195 113 193 121 193 130 192 140 191 150 190 160 190 170 189 180 188 188 189 192 189 " />
        </svg>