<?xml version="1.0" standalone="no"?>
    <svg width="256" height="256" xmlns="http://www.w3.org/2000/svg" version="1.1">
    <polyline stroke="black" stroke-width="3" stroke-linecap="round" fill="transparent" stroke-linejoin="round" points="73.5477294921875 70.35743713378906 73.5477294921875 93.4546356201172 75.280029296875 125.79069519042967 77.01229858398438 153.50732421875 78.74459838867188 173.71737670898438 79.322021484375 187.57568359375 78.74459838867188 194.50485229492188 78.16717529296875 196.23712158203125 78.16717529296875 196.23712158203125 " />
        <polyline stroke="black" stroke-width="3" stroke-linecap="round" fill="transparent" stroke-linejoin="round" points="77.01229858398438 51.30226135253906 93.75775146484376 48.99253845214844 119.74212646484376 46.682823181152344 137.64242553710938 45.52796173095703 155.542724609375 44.950531005859375 169.978515625 45.52796173095703 179.7947998046875 49.569969177246094 187.3013916015625 56.49913024902344 195.96282958984375 73.822021484375 200.582275390625 100.3837890625 201.15966796875 129.25527954101563 198.8499755859375 153.50732421875 193.653076171875 173.1399383544922 193.653076171875 173.1399383544922 " />
        <polyline stroke="black" stroke-width="3" stroke-linecap="round" fill="transparent" stroke-linejoin="round" points="99.53204345703124 103.27093505859376 110.50323486328124 101.53865051269533 123.2066650390625 99.22892761230467 133.60040283203125 98.07406616210938 140.52957153320313 97.49664306640624 146.30389404296875 98.65150451660156 146.30389404296875 98.65150451660156 " />
        <polyline stroke="black" stroke-width="3" stroke-linecap="round" fill="transparent" stroke-linejoin="round" points="109.348388671875 134.4521484375 118.58724975585938 133.87472534179688 130.13583374023438 133.2972869873047 142.26187133789063 130.98756408691406 153.8104248046875 125.79069519042967 153.8104248046875 125.79069519042967 " />
        <polyline stroke="black" stroke-width="3" stroke-linecap="round" fill="transparent" stroke-linejoin="round" points="127.82611083984376 76.70916748046875 128.98098754882813 95.18692016601563 131.86813354492188 116.55181884765624 134.1778564453125 133.2972869873047 134.75527954101563 150.04275512695313 131.86813354492188 166.21078491210938 131.86813354492188 166.21078491210938 " />
        <polyline stroke="black" stroke-width="3" stroke-linecap="round" fill="transparent" stroke-linejoin="round" points="93.75775146484376 181.8013916015625 112.23553466796876 179.49166870117188 139.37472534179688 176.02708435058594 164.7816162109375 171.98507690429688 182.1044921875 169.6753692626953 195.96282958984375 167.9430694580078 203.46942138671875 167.9430694580078 205.7791748046875 168.5205078125 205.7791748046875 168.5205078125 " />
        </svg>