<?xml version="1.0" standalone="no"?>
    <svg width="256" height="256" xmlns="http://www.w3.org/2000/svg" version="1.1">
    <polyline stroke="black" stroke-width="3" stroke-linecap="round" fill="transparent" stroke-linejoin="round" points="80.63070678710938 99.48635864257813 78.59884643554688 117.77281188964844 76.973388671875 137.6847381591797 76.16064453125 158.81576538085938 76.5670166015625 205.9541931152344 76.973388671875 212.8623962402344 77.3797607421875 219.3642578125 77.3797607421875 219.3642578125 " />
        <polyline stroke="black" stroke-width="3" stroke-linecap="round" fill="transparent" stroke-linejoin="round" points="99.323486328125 72.25985717773438 107.04443359375 68.19619750976563 115.1717529296875 64.53889465332031 133.458251953125 58.03704833984375 150.93197631835938 54.78611755371094 166.3739013671875 56.005218505859375 178.5648193359375 62.50706481933594 188.7239990234375 76.32350158691406 198.0704345703125 102.33091735839844 200.508544921875 116.9600830078125 198.8831787109375 158.81576538085938 189.13037109375 184.41680908203125 189.13037109375 184.41680908203125 " />
        <polyline stroke="black" stroke-width="3" stroke-linecap="round" fill="transparent" stroke-linejoin="round" points="123.7054443359375 120.21099853515624 130.207275390625 116.14736938476563 136.70916748046875 112.49008178710938 155.4019775390625 105.98820495605467 157.433837890625 106.3945770263672 157.433837890625 106.3945770263672 " />
        <polyline stroke="black" stroke-width="3" stroke-linecap="round" fill="transparent" stroke-linejoin="round" points="109.482666015625 149.06297302246094 115.9844970703125 146.21841430664063 123.7054443359375 142.56112670898438 133.05184936523438 137.2783660888672 133.05184936523438 137.2783660888672 " />
        <polyline stroke="black" stroke-width="3" stroke-linecap="round" fill="transparent" stroke-linejoin="round" points="135.49008178710938 79.57443237304688 135.89642333984375 87.70175170898438 134.67733764648438 129.55743408203125 130.61370849609375 153.93936157226563 126.95639038085938 166.53671264648438 126.95639038085938 166.53671264648438 " />
        <polyline stroke="black" stroke-width="3" stroke-linecap="round" fill="transparent" stroke-linejoin="round" points="95.66622924804688 216.92605590820313 106.63812255859376 213.67514038085935 117.20361328125 210.83056640625 126.95639038085938 207.98602294921875 146.4619140625 203.109619140625 171.250244140625 198.23321533203125 171.250244140625 198.23321533203125 " />
        </svg>