<?xml version="1.0" standalone="no"?>
    <svg width="256" height="256" xmlns="http://www.w3.org/2000/svg" version="1.1">
    <polyline stroke="black" stroke-width="3" stroke-linecap="round" fill="transparent" stroke-linejoin="round" points="84.3333740234375 117 99 111.66668701171876 113.66668701171876 105.66668701171876 124.3333740234375 102.33334350585938 127 101 127 101 " />
        <polyline stroke="black" stroke-width="3" stroke-linecap="round" fill="transparent" stroke-linejoin="round" points="79.66668701171875 141.66668701171875 83 148.33334350585938 87 152.33334350585938 88.3333740234375 153 88.3333740234375 153 " />
        <polyline stroke="black" stroke-width="3" stroke-linecap="round" fill="transparent" stroke-linejoin="round" points="99 143 93 151.66668701171875 89 157.66668701171875 89 157.66668701171875 " />
        <polyline stroke="black" stroke-width="3" stroke-linecap="round" fill="transparent" stroke-linejoin="round" points="78.3333740234375 173.66668701171875 91.66668701171876 163 107.66668701171876 151 125 139 133.66668701171875 133 133.66668701171875 133 " />
        <polyline stroke="black" stroke-width="3" stroke-linecap="round" fill="transparent" stroke-linejoin="round" points="155.66668701171875 93 167 89.66667175292969 178.3333740234375 86.33334350585938 185.66668701171875 83.66667175292969 187 83 187 83 " />
        <polyline stroke="black" stroke-width="3" stroke-linecap="round" fill="transparent" stroke-linejoin="round" points="143 130.33334350585938 133.66668701171875 149.66668701171875 125 167.66668701171875 118.3333740234375 181.66668701171875 115.66668701171876 189.66668701171875 115.66668701171876 191 115.66668701171876 191 " />
        <polyline stroke="black" stroke-width="3" stroke-linecap="round" fill="transparent" stroke-linejoin="round" points="162.3333740234375 135.66668701171875 173.66668701171875 129.66668701171875 181.66668701171875 125.66668701171876 183.66668701171875 125 183 127.66668701171876 181 135 177 147 175 161 173 175 172.3333740234375 180.33334350585935 171 183.66668701171875 169 185 166.3333740234375 185 162.3333740234375 182.33334350585935 153.66668701171875 172.33334350585938 151 169 151 169 " />
        </svg>