<?xml version="1.0" standalone="no"?>
    <svg width="256" height="256" xmlns="http://www.w3.org/2000/svg" version="1.1">
    <polyline stroke="black" stroke-width="3" stroke-linecap="round" fill="transparent" stroke-linejoin="round" points="56.88189697265625 114.29977416992188 64.72125244140625 110.14952087402344 90.54498291015624 100.00448608398438 105.76254272460938 94.93196105957033 111.75732421875 92.62628173828124 120.05780029296876 88.93716430664063 124.669189453125 86.17034912109375 126.05258178710938 84.32579040527344 125.59149169921876 82.48123168945313 120.5189208984375 80.63668823242188 111.75732421875 79.71441650390625 103.45684814453124 81.09782409667969 97.46200561523438 83.40351867675781 92.3895263671875 86.63148498535156 86.39471435546875 94.00968933105467 77.63311767578125 113.3774871826172 69.79376220703125 135.05096435546875 65.182373046875 153.03533935546875 63.7989501953125 165.0249481201172 64.26010131835938 170.0974578857422 65.64349365234375 171.4808807373047 68.87152099609375 171.01974487304688 68.87152099609375 171.01974487304688 " />
        <polyline stroke="black" stroke-width="3" stroke-linecap="round" fill="transparent" stroke-linejoin="round" points="122.36349487304688 135.51211547851563 108.06820678710938 163.64154052734375 94.6951904296875 182.0870361328125 89.16156005859375 188.54296875 76.7108154296875 199.61029052734375 73.48284912109375 201.91598510742188 73.021728515625 201.91598510742188 77.17196655273438 199.149169921875 91.46722412109376 189.00411987304688 110.83505249023438 174.24771118164063 128.81942749023438 158.5690155029297 138.96444702148438 147.0405731201172 138.96444702148438 147.0405731201172 " />
        <polyline stroke="black" stroke-width="3" stroke-linecap="round" fill="transparent" stroke-linejoin="round" points="173.5498046875 66.80255126953125 178.622314453125 64.95799255371094 183.2337646484375 62.652313232421875 187.8450927734375 60.34661865234375 197.06787109375 56.657501220703125 203.5238037109375 53.89067840576172 206.751708984375 52.50726318359375 207.67401123046875 52.04612731933594 206.2906494140625 52.50726318359375 199.83465576171875 60.34661865234375 189.228515625 73.71961975097656 178.16119384765625 92.16513061523438 167.0938720703125 116.60546875 155.5654296875 149.80740356445313 145.88153076171875 184.39276123046875 139.42559814453125 208.37191772460935 136.19760131835938 222.2060546875 133.89193725585938 230.04541015625 133.89193725585938 230.04541015625 " />
        <polyline stroke="black" stroke-width="3" stroke-linecap="round" fill="transparent" stroke-linejoin="round" points="182.7725830078125 156.2633056640625 188.3062744140625 153.03533935546875 193.83984375 150.26852416992188 199.37353515625 147.96282958984375 208.13519287109375 145.19601440429688 211.3631591796875 145.19601440429688 215.51336669921875 147.96282958984375 220.124755859375 160.87472534179688 220.124755859375 183.470458984375 214.591064453125 202.8382568359375 206.2906494140625 216.21127319335935 195.22332763671875 224.972900390625 177.7000732421875 230.9676818847656 168.477294921875 232.35110473632813 168.477294921875 232.35110473632813 " />
        </svg>