<?xml version="1.0" standalone="no"?>
    <svg width="256" height="256" xmlns="http://www.w3.org/2000/svg" version="1.1">
    <polyline stroke="black" stroke-width="3" stroke-linecap="round" fill="transparent" stroke-linejoin="round" points="133.83309936523438 37.55414581298828 115.68240356445313 53.394744873046875 76.41091918945313 85.075927734375 72.12075805664063 88.7060546875 66.1805419921875 95.30632019042967 64.86053466796875 98.6064453125 67.83062744140625 99.92648315429688 67.83062744140625 99.92648315429688 67.83062744140625 99.92648315429688 " />
        <polyline stroke="black" stroke-width="3" stroke-linecap="round" fill="transparent" stroke-linejoin="round" points="149.013671875 66.59524536132813 140.76333618164063 78.47569274902344 90.93148803710938 127.97756958007813 81.691162109375 134.9077911376953 61.890380859375 146.7882537841797 54.96014404296875 148.768310546875 54.96014404296875 148.768310546875 54.96014404296875 148.768310546875 " />
        <polyline stroke="black" stroke-width="3" stroke-linecap="round" fill="transparent" stroke-linejoin="round" points="84.33123779296875 96.95637512207033 96.54168701171876 98.27642822265624 144.0634765625 103.55662536621094 151.9837646484375 104.8766632080078 175.74468994140625 109.8268585205078 190.26519775390625 113.4569854736328 193.2353515625 115.76707458496094 193.2353515625 115.76707458496094 193.2353515625 115.76707458496094 " />
        <polyline stroke="black" stroke-width="3" stroke-linecap="round" fill="transparent" stroke-linejoin="round" points="102.48190307617188 131.93768310546875 96.87173461914063 143.15809631347656 96.211669921875 146.7882537841797 97.20172119140624 161.9687957763672 104.7919921875 175.82933044433594 106.77206420898438 177.14939880371094 115.35238647460938 177.8094024658203 131.52301025390625 170.2191162109375 146.04354858398438 155.3685760498047 155.6138916015625 143.15809631347656 160.23406982421875 138.53793334960938 163.5341796875 137.5478973388672 167.49432373046875 139.19796752929688 172.7745361328125 144.14813232421875 177.7247314453125 151.73841857910156 180.36480712890625 158.9987030029297 180.36480712890625 158.9987030029297 180.36480712890625 158.9987030029297 " />
        <polyline stroke="black" stroke-width="3" stroke-linecap="round" fill="transparent" stroke-linejoin="round" points="136.80319213867188 132.2677001953125 137.79324340820313 142.16806030273438 138.12322998046875 148.768310546875 138.45327758789063 188.36978149414065 138.12322998046875 196.6201171875 134.1630859375 222.03106689453125 131.85299682617188 229.62136840820313 131.85299682617188 229.62136840820313 " />
        </svg>