<?xml version="1.0" standalone="no"?>
    <svg width="256" height="256" xmlns="http://www.w3.org/2000/svg" version="1.1">
    <polyline stroke="black" stroke-width="3" stroke-linecap="round" fill="transparent" stroke-linejoin="round" points="96.73577880859376 26.075469970703125 87.67926025390625 51.4339599609375 74.99993896484375 72.26416015625 73.188720703125 75.88681030273438 71.37738037109375 79.50942993164063 72.282958984375 79.50942993164063 72.282958984375 79.50942993164063 " />
        <polyline stroke="black" stroke-width="3" stroke-linecap="round" fill="transparent" stroke-linejoin="round" points="127.5283203125 39.66038513183594 148.3585205078125 44.188690185546875 127.5283203125 83.132080078125 119.37738037109376 94 102.16973876953124 115.73583984375 84.9622802734375 133.84906005859375 69.5660400390625 146.5283203125 63.2264404296875 150.15093994140625 63.2264404296875 150.15093994140625 " />
        <polyline stroke="black" stroke-width="3" stroke-linecap="round" fill="transparent" stroke-linejoin="round" points="54.16973876953125 113.92453002929688 106.6981201171875 94.90567016601563 162.8489990234375 85.84906005859375 195.45281982421875 87.66035461425781 198.1697998046875 88.5660400390625 195.45281982421875 94 195.45281982421875 94 " />
        <polyline stroke="black" stroke-width="3" stroke-linecap="round" fill="transparent" stroke-linejoin="round" points="71.37738037109375 169.16983032226563 89.4906005859375 182.75473022460935 95.8302001953125 175.50941467285156 95.8302001953125 175.50941467285156 " />
        <polyline stroke="black" stroke-width="3" stroke-linecap="round" fill="transparent" stroke-linejoin="round" points="162.8489990234375 115.73583984375 161.94342041015625 136.5660400390625 138.396240234375 148.33961486816406 132.9622802734375 149.24530029296875 123.90570068359376 149.24530029296875 118.47174072265624 141.09432983398438 121.188720703125 132.03775024414063 128.43389892578125 124.79244995117188 137.4906005859375 122.07546997070313 143.8302001953125 128.41510009765625 146.54718017578125 143.81134033203125 140.20758056640625 179.13209533691406 130.24530029296875 204.49053955078125 109.41510009765624 234.3773498535156 109.41510009765624 234.3773498535156 " />
        </svg>