<?xml version="1.0" standalone="no"?>
    <svg width="256" height="256" xmlns="http://www.w3.org/2000/svg" version="1.1">
    <polyline stroke="black" stroke-width="3" stroke-linecap="round" fill="transparent" stroke-linejoin="round" points="92.92437744140624 55.177398681640625 92.37701416015624 99.51370239257813 85.80868530273438 132.9027862548828 76.5035400390625 168.48129272460938 68.2930908203125 189.82839965820313 61.724761962890625 207.343994140625 56.251129150390625 219.93331909179688 56.251129150390625 219.93331909179688 " />
        <polyline stroke="black" stroke-width="3" stroke-linecap="round" fill="transparent" stroke-linejoin="round" points="73.2193603515625 70.50352478027344 84.16659545898438 62.29310607910156 96.75592041015624 52.987945556640625 110.9873046875 43.13543701171875 125.76611328125 34.925010681152344 139.45013427734375 29.451393127441406 150.94473266601563 27.809303283691406 156.9656982421875 32.735557556152344 160.2498779296875 48.06169128417969 155.3236083984375 77.07186889648438 147.11322021484375 98.96633911132813 138.90277099609375 115.38720703125 136.16595458984375 123.05026245117188 136.16595458984375 126.88180541992188 142.18695068359375 126.33444213867188 158.0604248046875 115.38720703125 172.2918701171875 103.34524536132813 184.88116455078125 95.6821746826172 196.375732421875 96.2295379638672 206.775634765625 109.91357421875 213.891357421875 148.22891235351563 210.607177734375 183.26007080078125 201.302001953125 210.080810546875 191.99688720703125 223.76483154296875 182.14434814453125 229.78582763671875 165.7235107421875 229.23846435546875 151.4920654296875 218.83859252929688 151.4920654296875 218.83859252929688 " />
        </svg>