<?xml version="1.0" standalone="no"?>
    <svg width="256" height="256" xmlns="http://www.w3.org/2000/svg" version="1.1">
    <polyline stroke="black" stroke-width="3" stroke-linecap="round" fill="transparent" stroke-linejoin="round" points="126.17623901367188 66.23095703125 112.74691772460938 87.21426391601563 104.35360717773438 99.38461303710938 96.799560546875 109.45660400390624 82.53094482421875 128.3415985107422 76.23593139648438 135.47592163085938 68.26229858398438 142.61026000976563 68.26229858398438 142.61026000976563 " />
        <polyline stroke="black" stroke-width="3" stroke-linecap="round" fill="transparent" stroke-linejoin="round" points="87.986572265625 94.7682647705078 95.54061889648438 96.86660766601563 103.09457397460938 98.96493530273438 110.22894287109376 101.48294067382813 126.59591674804688 106.9385986328125 145.90057373046875 114.49259948730467 155.13323974609375 117.43026733398438 155.13323974609375 117.43026733398438 " />
        <polyline stroke="black" stroke-width="3" stroke-linecap="round" fill="transparent" stroke-linejoin="round" points="137.92694091796875 147.646240234375 115.6845703125 171.14756774902344 98.89794921875 188.3538818359375 92.60296630859376 194.64889526367188 87.14727783203125 199.2652282714844 77.91461181640625 206.39956665039065 75.39657592773438 208.0782165527344 75.39657592773438 208.0782165527344 " />
        <polyline stroke="black" stroke-width="3" stroke-linecap="round" fill="transparent" stroke-linejoin="round" points="103.51425170898438 153.52157592773438 111.90756225585938 156.03958129882813 121.14022827148438 159.39691162109375 139.18588256835938 168.6295623779297 149.25790405273438 174.924560546875 160.16925048828125 183.737548828125 173.59857177734375 195.06857299804688 173.59857177734375 195.06857299804688 " />
        </svg>