<?xml version="1.0" standalone="no"?>
    <svg width="256" height="256" xmlns="http://www.w3.org/2000/svg" version="1.1">
    <polyline stroke="black" stroke-width="3" stroke-linecap="round" fill="transparent" stroke-linejoin="round" points="95.9867076175462 44.85405212159544 88.29163337330505 50.71696583149347 88.29163337330505 63.54208957189533 87.19233705269914 77.83294173977174 75.83294173977174 95.7881149763344 58.977064823815 114.47615242663431 41.38832369412097 134.2634861975401 33.326817343011214 144.15715308299298 33.326817343011214 144.15715308299298 " />
        <polyline stroke="black" stroke-width="3" stroke-linecap="round" fill="transparent" stroke-linejoin="round" points="80.96299123593252 92.49022601451676 83.52801598401288 89.19233705269914 98.91816447249516 86.26088019775011 122.0033872052186 80.39796648785213 146.92077047228508 75.63434909856 170.0059932050085 72.33646013674235 188.69403065530832 70.1378674955306 202.61845071631615 70.1378674955306 212.14568549490036 69.77143538866196 212.14568549490036 69.77143538866196 " />
        <polyline stroke="black" stroke-width="3" stroke-linecap="round" fill="transparent" stroke-linejoin="round" points="141.4242888692557 87.36017651835598 138.8592641211754 89.55876915956776 138.8592641211754 107.5139423961304 137.75996780056948 133.89705409067145 134.09564673188322 161.01302999894975 130.79775777006557 182.9989564110673 128.59916512885383 197.28980857894368 126.03414038077348 205.7177470369221 124.20197984643032 209.3820681056083 122.3698193120872 209.74850021247693 116.5069056021892 209.74850021247693 102.94891764805004 197.28980857894368 102.94891764805004 197.28980857894368 " />
        </svg>