<?xml version="1.0" standalone="no"?>
    <svg width="256" height="256" xmlns="http://www.w3.org/2000/svg" version="1.1">
    <polyline stroke="black" stroke-width="3" stroke-linecap="round" fill="transparent" stroke-linejoin="round" points="68.63226318359375 58.300048828125 69.27761840820313 71.20736694335938 69.9229736328125 86.69615173339844 70.568359375 100.89421081542967 71.21371459960938 109.92933654785156 71.21371459960938 114.4468994140625 71.21371459960938 116.38299560546876 71.21371459960938 113.80152893066406 71.21371459960938 107.99322509765624 75.08590698242188 97.66737365722656 84.12103271484375 84.11468505859375 97.6737060546875 69.27127075195313 118.9708251953125 55.073211669921875 137.6864013671875 45.392723083496094 151.88446044921875 40.87516021728515 162.2103271484375 41.520530700683594 168.01861572265625 46.0380859375 169.309326171875 55.073211669921875 162.855712890625 73.14346313476563 144.78546142578125 89.27761840820313 118.9708251953125 107.34786987304688 95.73760986328124 117.67372131347656 84.76641845703125 120.90055847167967 76.37664794921875 123.48202514648438 71.85906982421875 125.41812133789063 71.85906982421875 126.0634765625 77.6673583984375 126.0634765625 91.86541748046876 122.83665466308594 106.7088623046875 117.67372131347656 120.90692138671876 110.57469177246094 128.00592041015625 106.05712890625 131.87811279296875 104.7664031982422 131.87811279296875 109.28396606445313 131.87811279296875 109.28396606445313 " />
        <polyline stroke="black" stroke-width="3" stroke-linecap="round" fill="transparent" stroke-linejoin="round" points="69.27761840820313 164.7854461669922 85.41177368164063 160.26788330078125 97.02835083007813 155.10494995117188 109.29031372070313 149.94203186035156 117.03469848632813 146.71519470214844 120.90692138671876 146.71519470214844 120.26153564453124 150.58738708496094 115.74395751953124 158.331787109375 107.99957275390624 169.30300903320313 98.319091796875 180.9196014404297 89.28396606445313 191.89080810546875 79.60345458984375 202.86203002929688 66.6961669921875 212.54254150390625 58.951751708984375 217.7054748535156 54.4342041015625 221.57766723632813 51.85272216796875 222.868408203125 53.788818359375 222.868408203125 61.533203125 222.868408203125 82.830322265625 220.28692626953125 106.0634765625 216.41473388671875 125.42446899414063 213.1878967285156 140.26788330078125 211.89715576171875 156.40203857421875 217.06008911132813 156.40203857421875 217.06008911132813 " />
        </svg>