<?xml version="1.0" standalone="no"?>
    <svg width="256" height="256" xmlns="http://www.w3.org/2000/svg" version="1.1">
    <polyline stroke="black" stroke-width="3" stroke-linecap="round" fill="transparent" stroke-linejoin="round" points="76.59793090820313 77.19200134277344 77.8221435546875 89.43426513671875 79.65850830078125 99.2280731201172 81.49481201171875 109.02189636230467 83.3311767578125 116.36724853515624 85.16751098632813 120.6520538330078 85.77963256835938 123.10049438476563 85.77963256835938 123.10049438476563 87.00384521484375 120.03993225097656 88.8402099609375 113.3066864013672 92.51287841796876 102.9007568359375 99.24612426757813 91.88272094726563 107.81570434570313 81.47679138183594 120.67010498046876 71.6829833984375 135.36080932617188 63.11338806152344 151.2757568359375 57.6043701171875 164.130126953125 55.768035888671875 170.8634033203125 56.99226379394531 176.3724365234375 60.052825927734375 178.82086181640625 64.94973754882813 176.3724365234375 72.29508972167969 166.57861328125 85.14947509765625 148.2152099609375 99.84019470214844 127.4033203125 112.694580078125 112.71261596679688 120.6520538330078 103.53091430664063 124.93684387207033 96.185546875 126.77317810058594 91.9007568359375 127.99740600585938 89.45230102539063 127.99740600585938 90.676513671875 127.99740600585938 94.96133422851563 127.99740600585938 101.694580078125 126.16107177734376 116.99740600585938 121.26416015625 128.01544189453125 115.75514221191406 137.1971435546875 110.85823059082033 142.7061767578125 108.40977478027344 146.37884521484375 108.40977478027344 146.37884521484375 108.40977478027344 " />
        <polyline stroke="black" stroke-width="3" stroke-linecap="round" fill="transparent" stroke-linejoin="round" points="86.3917236328125 165.9484405517578 100.4703369140625 159.82730102539063 111.4884033203125 154.93038940429688 123.73065185546876 149.42137145996094 135.36080932617188 143.912353515625 142.7061767578125 140.85179138183594 146.990966796875 139.01544189453125 148.2152099609375 139.01544189453125 145.15460205078125 140.2396697998047 138.42138671875 145.13658142089844 129.851806640625 153.70616149902344 120.67010498046876 166.560546875 113.32470703125 179.41493225097656 108.42782592773438 188.59661865234375 102.9188232421875 195.9419860839844 94.34921264648438 202.0631103515625 78.43426513671875 208.79635620117188 67.41622924804688 211.24481201171875 61.29510498046875 212.46905517578125 58.84661865234375 212.46905517578125 61.9072265625 210.6327209472656 75.98580932617188 206.96002197265625 101.694580078125 202.0631103515625 125.5670166015625 199.61468505859375 148.2152099609375 199.61468505859375 166.57861328125 200.22677612304688 179.4329833984375 201.45101928710935 189.226806640625 203.287353515625 189.226806640625 203.287353515625 " />
        </svg>