<?xml version="1.0" standalone="no"?>
    <svg width="256" height="256" xmlns="http://www.w3.org/2000/svg" version="1.1">
    <polyline stroke="black" stroke-width="3" stroke-linecap="round" fill="transparent" stroke-linejoin="round" points="78.92904663085938 64.2421875 80.14703369140625 77.03111267089844 82.5830078125 90.42904663085938 85.01901245117188 101.39097595214844 86.84600830078125 109.30793762207033 86.84600830078125 111.74391174316406 86.84600830078125 111.74391174316406 " />
        <polyline stroke="black" stroke-width="3" stroke-linecap="round" fill="transparent" stroke-linejoin="round" points="81.97402954101563 59.979217529296875 94.762939453125 53.28025817871094 106.3338623046875 48.40828704833984 120.3408203125 42.92732238769531 141.04669189453125 37.44635009765625 159.31658935546875 35.01036834716797 173.323486328125 35.619361877441406 181.8494873046875 38.05534362792969 186.1124267578125 42.92732238769531 186.1124267578125 51.453269958496094 177.58642578125 68.50517272949219 159.925537109375 89.82003784179688 135.56570434570313 109.30793762207033 135.56570434570313 109.30793762207033 " />
        <polyline stroke="black" stroke-width="3" stroke-linecap="round" fill="transparent" stroke-linejoin="round" points="76.4930419921875 125.75083923339844 86.84600830078125 119.66087341308594 95.3719482421875 115.3979034423828 106.3338623046875 110.5259246826172 117.29583740234376 106.26295471191406 130.08474731445313 100.781982421875 145.30966186523438 92.25602722167967 152.61761474609375 89.21104431152344 152.61761474609375 89.21104431152344 " />
        <polyline stroke="black" stroke-width="3" stroke-linecap="round" fill="transparent" stroke-linejoin="round" points="75.27508544921875 168.38058471679688 92.32696533203124 162.29061889648438 106.3338623046875 158.02764892578125 120.3408203125 153.15567016601563 133.12973022460938 149.50169372558594 141.04669189453125 147.67471313476563 145.30966186523438 146.4567108154297 145.91864013671875 146.4567108154297 143.482666015625 147.67471313476563 137.3927001953125 150.71969604492188 130.6937255859375 155.59165954589844 123.99478149414063 162.29061889648438 117.29583740234376 170.20758056640625 109.98785400390624 179.95152282714844 103.28887939453124 190.30447387695313 97.19891357421876 197.6124267578125 86.84600830078125 205.52935791015625 74.05706787109375 212.22833251953125 62.48614501953125 215.88232421875 55.78717041015625 217.10031127929688 51.524200439453125 217.10031127929688 49.08819580078125 217.10031127929688 52.1331787109375 215.88232421875 69.18511962890625 214.05532836914065 97.80792236328124 212.22833251953125 131.302734375 209.7923583984375 161.7525634765625 209.183349609375 180.6314697265625 208.5743408203125 192.8114013671875 208.5743408203125 200.11932373046875 208.5743408203125 204.9913330078125 208.5743408203125 204.9913330078125 208.5743408203125 " />
        </svg>