<?xml version="1.0" standalone="no"?>
    <svg width="256" height="256" xmlns="http://www.w3.org/2000/svg" version="1.1">
    <polyline stroke="black" stroke-width="3" stroke-linecap="round" fill="transparent" stroke-linejoin="round" points="54.43170166015625 117.59147644042967 57.49224853515625 138.40333557128906 57.49224853515625 150.0334930419922 56.880126953125 160.43942260742188 55.0438232421875 167.17266845703125 53.20745849609375 170.8453369140625 51.983245849609375 170.2332305908203 53.20745849609375 162.8878631591797 58.1043701171875 146.97291564941406 66.06182861328125 127.99740600585938 74.63143920898438 111.47035217285156 82.58892822265625 100.45230102539063 88.71002197265625 93.71905517578124 96.66751098632813 88.82215881347656 104.01287841796876 87.59793090820313 110.13400268554688 90.04638671875 114.4188232421875 99.84019470214844 111.35821533203124 124.32472229003906 99.115966796875 147.5850372314453 84.42523193359375 165.9484405517578 73.4072265625 175.13014221191406 66.6739501953125 180.63916015625 63.00128173828125 184.31182861328125 61.77703857421875 185.53607177734375 64.22552490234375 184.31182861328125 69.12240600585938 181.2512664794922 77.6920166015625 174.5180206298828 77.6920166015625 174.5180206298828 " />
        <polyline stroke="black" stroke-width="3" stroke-linecap="round" fill="transparent" stroke-linejoin="round" points="140.73968505859375 91.88272094726563 157.87884521484375 85.76158142089844 167.67266845703125 82.70101928710938 178.690673828125 80.2525634765625 188.4844970703125 77.80410766601563 198.89044189453125 75.9677734375 198.89044189453125 75.9677734375 " />
        <polyline stroke="black" stroke-width="3" stroke-linecap="round" fill="transparent" stroke-linejoin="round" points="110.74612426757813 164.11209106445313 124.82470703125 161.66363525390625 135.23065185546875 157.37884521484375 148.08502197265625 151.8698272705078 163.38787841796875 145.13658142089844 179.9149169921875 136.56700134277344 200.11468505859375 120.6520538330078 200.11468505859375 120.6520538330078 " />
        <polyline stroke="black" stroke-width="3" stroke-linecap="round" fill="transparent" stroke-linejoin="round" points="151.7576904296875 40.46519470214844 151.7576904296875 50.871124267578125 151.1456298828125 61.27705383300781 149.92138671875 81.47679138183594 146.86080932617188 114.53091430664063 143.80023193359375 137.7912139892578 141.96389770507813 162.2757568359375 141.351806640625 181.86338806152344 141.96389770507813 196.5541076660156 145.02447509765625 206.96002197265625 152.36981201171875 212.46905517578125 171.95745849609375 215.52963256835935 188.4844970703125 212.46905517578125 200.11468505859375 205.73580932617188 206.847900390625 199.0025634765625 211.74481201171875 190.4329833984375 214.1932373046875 183.69973754882813 214.1932373046875 176.9664764404297 210.5206298828125 157.990966796875 210.5206298828125 157.990966796875 " />
        </svg>