<?xml version="1.0" standalone="no"?>
    <svg width="256" height="256" xmlns="http://www.w3.org/2000/svg" version="1.1">
    <polyline stroke="black" stroke-width="3" stroke-linecap="round" fill="transparent" stroke-linejoin="round" points="68.502685546875 91.56790161132813 70.56793212890625 95.69842529296876 72.22015380859375 99.41587829589844 74.69842529296875 105.6116180419922 75.93759155273438 110.15518188476563 75.52450561523438 111.807373046875 74.28536987304688 110.98126220703124 73.872314453125 109.74211120605467 75.1114501953125 103.95941162109376 81.30722045898438 94.04620361328124 94.11175537109376 82.0677490234375 113.93817138671876 69.26318359375 134.5906982421875 60.17608642578125 154.00408935546875 54.806427001953125 167.2216796875 52.741180419921875 175.482666015625 53.567283630371094 179.20013427734375 58.11083984375 178.787109375 72.56759643554688 165.15643310546875 97.76365661621094 154.4171142578125 111.807373046875 154.4171142578125 111.807373046875 " />
        <polyline stroke="black" stroke-width="3" stroke-linecap="round" fill="transparent" stroke-linejoin="round" points="88.74212646484375 138.6556396484375 104.85107421875 129.15548706054688 111.87298583984376 125.02496337890624 125.9166259765625 117.17703247070313 135.00375366210938 111.39431762695313 139.96038818359375 107.67686462402344 139.96038818359375 107.67686462402344 " />
        <polyline stroke="black" stroke-width="3" stroke-linecap="round" fill="transparent" stroke-linejoin="round" points="99.89447021484376 141.54698181152344 97.00314331054688 153.93850708007813 94.52484130859376 164.26475524902344 86.67684936523438 187.80862426757813 81.30722045898438 196.06964111328125 77.58978271484375 200.20013427734375 75.1114501953125 202.265380859375 73.872314453125 202.67843627929688 74.28536987304688 202.265380859375 75.93759155273438 201.43927001953125 85.024658203125 196.89572143554688 107.742431640625 182.43896484375 115.17733764648438 177.06930541992188 129.22103881835938 165.50390625 129.22103881835938 165.50390625 " />
        <polyline stroke="black" stroke-width="3" stroke-linecap="round" fill="transparent" stroke-linejoin="round" points="153.177978515625 114.69871520996094 158.960693359375 112.63346862792967 164.743408203125 110.15518188476563 175.482666015625 106.024658203125 183.3306884765625 103.95941162109376 182.9176025390625 107.67686462402344 180.0262451171875 114.69871520996094 166.80859375 134.52513122558594 166.80859375 134.52513122558594 " />
        <polyline stroke="black" stroke-width="3" stroke-linecap="round" fill="transparent" stroke-linejoin="round" points="141.19952392578125 162.612548828125 147.80828857421875 158.89511108398438 167.2216796875 148.15579223632813 171.3521728515625 146.09054565429688 175.895751953125 146.09054565429688 171.7652587890625 156.00375366210938 167.2216796875 163.4386444091797 167.2216796875 163.4386444091797 " />
        <polyline stroke="black" stroke-width="3" stroke-linecap="round" fill="transparent" stroke-linejoin="round" points="148.6343994140625 183.2650604248047 158.547607421875 177.89541625976563 168.04779052734375 172.5257568359375 177.1348876953125 167.15609741210938 192.00469970703125 156.00375366210938 202.7440185546875 143.19918823242188 202.7440185546875 143.19918823242188 " />
        <polyline stroke="black" stroke-width="3" stroke-linecap="round" fill="transparent" stroke-linejoin="round" points="155.24322509765625 113.87261962890624 154.4171142578125 127.50328063964844 154.4171142578125 141.54698181152344 154.8302001953125 156.00375366210938 158.13458251953125 194.8304748535156 159.78680419921875 216.30908203125 159.78680419921875 230.352783203125 159.78680419921875 230.352783203125 " />
        </svg>