<?xml version="1.0" standalone="no"?>
    <svg width="256" height="256" xmlns="http://www.w3.org/2000/svg" version="1.1">
    <polyline stroke="black" stroke-width="3" stroke-linecap="round" fill="transparent" stroke-linejoin="round" points="73.11416625976563 80.07609558105469 74.941162109375 89.82003784179688 76.15914916992188 104.43595886230467 78.59515380859375 120.8788604736328 82.24911499023438 137.93077087402344 87.12109375 151.93768310546875 92.60205078125 161.68162536621094 99.91000366210938 164.7266082763672 99.91000366210938 164.7266082763672 " />
        <polyline stroke="black" stroke-width="3" stroke-linecap="round" fill="transparent" stroke-linejoin="round" points="176.0345458984375 73.98614501953125 176.6435546875 87.38406372070313 169.3355712890625 102.60897827148438 154.7197265625 123.92384338378906 134.622802734375 148.28370666503906 112.08993530273438 170.8165740966797 93.2110595703125 187.86846923828125 79.20413208007813 197.6124267578125 70.67816162109375 201.26638793945313 64.58819580078125 202.484375 61.543212890625 202.484375 61.543212890625 200.65740966796875 67.02420043945313 198.22140502929688 82.24911499023438 192.74044799804688 104.1729736328125 187.25949096679688 129.141845703125 182.9964904785156 154.7197265625 179.342529296875 177.861572265625 178.12452697753906 193.08642578125 179.342529296875 199.785400390625 182.9964904785156 204.65740966796875 189.08645629882813 204.04840087890625 195.78543090820313 204.04840087890625 195.78543090820313 " />
        </svg>