<?xml version="1.0" standalone="no"?>
    <svg width="256" height="256" xmlns="http://www.w3.org/2000/svg" version="1.1">
    <polyline stroke="black" stroke-width="3" stroke-linecap="round" fill="transparent" stroke-linejoin="round" points="99 80 99 81 100 84 101 88 102 94 102 100 103 106 104 111 105 117 106 121 109 127 111 128 114 130 121 130 124 129 " />
        <polyline stroke="black" stroke-width="3" stroke-linecap="round" fill="transparent" stroke-linejoin="round" points="162 70 162 70 163 70 164 72 164 77 162 85 159 94 154 105 147 116 138 126 129 136 120 144 111 150 102 155 93 158 90 159 " />
        <polyline stroke="black" stroke-width="3" stroke-linecap="round" fill="transparent" stroke-linejoin="round" points="70 160 70 160 69 160 69 160 71 159 74 159 78 158 83 157 90 157 97 156 105 155 115 155 124 155 140 155 152 154 164 154 176 153 188 152 194 152 200 152 " />
        </svg>