<?xml version="1.0" standalone="no"?>
    <svg width="256" height="256" xmlns="http://www.w3.org/2000/svg" version="1.1">
    <polyline stroke="black" stroke-width="3" stroke-linecap="round" fill="transparent" stroke-linejoin="round" points="81 57 82 65 82 72 83 77 85 87 89 96 95 101 95 101 " />
        <polyline stroke="black" stroke-width="3" stroke-linecap="round" fill="transparent" stroke-linejoin="round" points="84 65 87 63 105 60 129 56 152 54 170 54 182 54 188 55 190 57 190 63 184 72 173 81 155 88 155 88 " />
        <polyline stroke="black" stroke-width="3" stroke-linecap="round" fill="transparent" stroke-linejoin="round" points="92 98 98 98 114 98 131 96 146 95 157 95 164 95 164 95 " />
        <polyline stroke="black" stroke-width="3" stroke-linecap="round" fill="transparent" stroke-linejoin="round" points="81 120 83 127 83 132 87 149 90 158 93 162 94 166 95 168 95 168 " />
        <polyline stroke="black" stroke-width="3" stroke-linecap="round" fill="transparent" stroke-linejoin="round" points="80 133 98 125 121 120 151 117 175 117 193 117 204 118 208 120 208 126 203 135 186 142 176 144 176 144 " />
        <polyline stroke="black" stroke-width="3" stroke-linecap="round" fill="transparent" stroke-linejoin="round" points="94 161 107 159 122 159 140 157 157 155 171 155 178 153 179 153 179 153 " />
        <polyline stroke="black" stroke-width="3" stroke-linecap="round" fill="transparent" stroke-linejoin="round" points="132 40 133 43 133 49 133 56 133 88 133 99 134 129 135 148 135 163 136 177 136 186 136 186 " />
        <polyline stroke="black" stroke-width="3" stroke-linecap="round" fill="transparent" stroke-linejoin="round" points="66 197 83 196 104 191 129 188 155 185 166 185 186 183 197 183 204 182 204 182 " />
        <polyline stroke="black" stroke-width="3" stroke-linecap="round" fill="transparent" stroke-linejoin="round" points="147 174 144 181 142 188 130 205 115 222 99 237 84 248 72 255 72 255 " />
        <polyline stroke="black" stroke-width="3" stroke-linecap="round" fill="transparent" stroke-linejoin="round" points="129 203 147 217 155 224 188 240 222 246 243 247 259 247 259 247 " />
        </svg>