<?xml version="1.0" standalone="no"?>
    <svg width="256" height="256" xmlns="http://www.w3.org/2000/svg" version="1.1">
    <polyline stroke="black" stroke-width="3" stroke-linecap="round" fill="transparent" stroke-linejoin="round" points="57 59 57 59 57 59 58 59 59 60 60 61 61 63 63 66 66 69 69 72 72 75 76 77 81 79 84 80 87 80 " />
        <polyline stroke="black" stroke-width="3" stroke-linecap="round" fill="transparent" stroke-linejoin="round" points="117 34 117 34 116 35 113 40 109 50 101 70 94 85 87 100 81 115 74 129 68 141 62 153 57 162 53 170 50 175 49 176 " />
        <polyline stroke="black" stroke-width="3" stroke-linecap="round" fill="transparent" stroke-linejoin="round" points="54 115 54 115 61 109 66 107 72 105 77 103 83 101 89 99 95 98 102 96 113 93 121 91 124 91 128 91 " />
        <polyline stroke="black" stroke-width="3" stroke-linecap="round" fill="transparent" stroke-linejoin="round" points="85 123 85 123 82 130 81 136 80 142 80 149 81 154 82 160 82 165 84 171 86 178 87 182 89 185 90 188 92 189 93 189 95 185 97 179 98 172 98 168 99 164 " />
        <polyline stroke="black" stroke-width="3" stroke-linecap="round" fill="transparent" stroke-linejoin="round" points="94 132 94 131 95 130 97 130 99 130 102 131 105 133 108 136 113 139 117 144 122 149 126 153 130 158 134 160 136 161 " />
        <polyline stroke="black" stroke-width="3" stroke-linecap="round" fill="transparent" stroke-linejoin="round" points="140 85 139 82 139 79 140 76 142 73 144 71 150 68 155 66 161 65 167 64 174 64 180 64 185 67 190 70 195 75 199 83 203 98 204 108 204 116 203 124 200 130 196 135 191 137 186 137 180 134 175 128 173 125 " />
        <polyline stroke="black" stroke-width="3" stroke-linecap="round" fill="transparent" stroke-linejoin="round" points="162 96 161 93 160 90 160 88 159 87 159 88 160 91 161 98 162 108 163 121 164 136 165 154 164 172 163 189 161 211 160 218 160 224 160 229 " />
        </svg>