<?xml version="1.0" standalone="no"?>
    <svg width="256" height="256" xmlns="http://www.w3.org/2000/svg" version="1.1">
    <polyline stroke="black" stroke-width="3" stroke-linecap="round" fill="transparent" stroke-linejoin="round" points="48.350533724624825 80.76439859472075 48.350533724624825 92.49022601451676 49.449830045230726 100.55173236562652 51.28199057957386 107.5139423961304 52.3812869001797 113.37685610602844 53.4805832207856 117.04117717471468 56.045607968865966 118.5069056021892 59.343496930683614 118.5069056021892 59.343496930683614 118.5069056021892 " />
        <polyline stroke="black" stroke-width="3" stroke-linecap="round" fill="transparent" stroke-linejoin="round" points="100.017460793101 67.57284274745021 94.88741129694029 78.56580595350897 88.29163337330505 87.36017651835598 79.13083070158939 98.35313972441476 68.50429960239927 109.34610293047352 55.312743755128736 119.97263402966372 55.312743755128736 119.97263402966372 " />
        <polyline stroke="black" stroke-width="3" stroke-linecap="round" fill="transparent" stroke-linejoin="round" points="23.79958256442694 129.1334367013793 32.59395312927393 131.6984614494597 48.350533724624825 125.46911563269308 69.2371638161365 118.5069056021892 89.02449758704228 113.37685610602844 103.31534975491866 110.0789671442108 110.64399189229118 108.97967082360492 113.94188085410876 108.6132387167363 117.97263402966372 104.94891764805 117.97263402966372 104.94891764805 " />
        <polyline stroke="black" stroke-width="3" stroke-linecap="round" fill="transparent" stroke-linejoin="round" points="75.83294173977174 110.0789671442108 71.80218856421686 117.04117717471468 65.57284274745024 129.1334367013793 56.41204007573458 141.95856044178123 46.51837319028169 156.24941260965764 37.357570518566035 169.80740056379676 28.56319995371905 181.5332279835928 19.035965175134777 192.52619118965157 14.272347785842667 196.5569443652064 14.272347785842667 196.5569443652064 " />
        <polyline stroke="black" stroke-width="3" stroke-linecap="round" fill="transparent" stroke-linejoin="round" points="73.63434909856 125.83554773956168 71.06932435047958 133.89705409067145 71.06932435047958 144.5235851898616 71.06932435047958 159.1808694646066 70.70289224361102 175.30388216682613 67.03857117492475 192.1597590827829 63.74068221310711 205.7177470369221 60.80922535815813 215.24498181550632 60.07636114442085 218.5428707773239 65.57284274745024 213.04638917429455 76.56580595350897 203.1527222888417 87.55876915956776 193.99191961712603 95.2538434038089 186.2968453728849 101.48318922057553 180.43393166298696 108.81183135794804 173.10528952561438 113.57544874724022 167.9752400294536 113.57544874724022 167.9752400294536 " />
        <polyline stroke="black" stroke-width="3" stroke-linecap="round" fill="transparent" stroke-linejoin="round" points="102.58248554118144 138.29423937309497 109.54469557168528 151.48579522036545 116.14047349532058 162.11232631955562 122.0033872052186 171.6395610981399 128.59916512885383 179.33463534238103 132.99635041127732 184.46468483854176 134.82851094562045 186.6632774797535 135.19494305248907 186.6632774797535 135.19494305248907 186.6632774797535 " />
        <polyline stroke="black" stroke-width="3" stroke-linecap="round" fill="transparent" stroke-linejoin="round" points="130.79775777006557 84.79515177027565 135.92780726622635 84.42871966340701 146.18790625854786 84.42871966340701 158.2801657852126 84.42871966340701 172.93745005995743 84.42871966340701 191.25905540338888 83.69585544966975 209.5806607468201 82.59655912906388 220.94005605974735 82.23012702219526 224.2379450215651 82.23012702219526 223.50508080782788 82.23012702219526 221.3064881666162 89.19233705269914 219.4743276322729 104.21605343431278 218.00859920479843 123.27052299148131 215.44357445671812 141.95856044178123 210.6799570674259 157.3487089302635 204.8170433575281 169.44096845692815 199.3205617544986 176.40317848743203 196.3891048995495 177.86890691490652 195.65624068581224 177.86890691490652 192.3583517239947 174.57101795308887 186.86187012096525 166.87594370884773 186.86187012096525 166.87594370884773 " />
        <polyline stroke="black" stroke-width="3" stroke-linecap="round" fill="transparent" stroke-linejoin="round" points="156.4480052508693 93.95595444199124 154.2494126096576 107.88037450299905 154.2494126096576 126.20197984643032 154.2494126096576 147.8214741516792 154.61584471652623 169.44096845692815 154.61584471652623 191.060462762177 154.61584471652623 211.5806607468201 154.61584471652623 227.33724134217096 154.61584471652623 238.33020454822977 154.61584471652623 238.33020454822977 " />
        </svg>