<?xml version="1.0" standalone="no"?>
    <svg width="256" height="256" xmlns="http://www.w3.org/2000/svg" version="1.1">
    <polyline stroke="black" stroke-width="3" stroke-linecap="round" fill="transparent" stroke-linejoin="round" points="53.71649169921875 131.05796813964844 73.30410766601563 127.3852996826172 98.4007568359375 120.6520538330078 126.5579833984375 111.47035217285156 150.43038940429688 101.06442260742188 168.18170166015625 91.88272094726563 181.03607177734375 82.08891296386719 185.9329833984375 72.90721130371094 185.32086181640625 61.88916015625 176.13916015625 52.09535217285156 162.060546875 45.36210632324219 149.81829833984375 44.74999237060547 144.30926513671875 47.81055450439453 141.24868774414063 58.21649169921875 143.6971435546875 83.31312561035156 150.43038940429688 116.9793701171875 155.939453125 148.1971435546875 159.612060546875 174.5180206298828 160.2242431640625 193.4935302734375 159 204.51156616210935 155.939453125 211.24481201171875 149.2061767578125 215.52963256835935 133.29119873046875 219.20230102539065 114.92782592773438 216.75384521484375 96.56442260742188 210.6327209472656 96.56442260742188 210.6327209472656 " />
        <polyline stroke="black" stroke-width="3" stroke-linecap="round" fill="transparent" stroke-linejoin="round" points="132.0670166015625 122.48838806152344 124.72161865234376 142.68812561035156 104.52191162109376 174.5180206298828 87.38272094726563 195.32986450195313 70.2435302734375 213.6932678222656 53.1043701171875 231.444580078125 53.1043701171875 231.444580078125 " />
        </svg>