<?xml version="1.0" standalone="no"?>
    <svg width="256" height="256" xmlns="http://www.w3.org/2000/svg" version="1.1">
    <polyline stroke="black" stroke-width="3" stroke-linecap="round" fill="transparent" stroke-linejoin="round" points="96 31 99 34 102 37 104 42 106 49 106 57 106 68 106 81 104 103 103 118 102 132 101 144 100 153 99 160 98 164 96 167 94 168 89 166 87 162 86 159 85 156 " />
        <polyline stroke="black" stroke-width="3" stroke-linecap="round" fill="transparent" stroke-linejoin="round" points="101 73 100 74 97 79 91 86 82 97 75 105 67 113 61 120 55 126 50 132 46 136 44 139 43 140 43 140 " />
        <polyline stroke="black" stroke-width="3" stroke-linecap="round" fill="transparent" stroke-linejoin="round" points="133 46 134 52 134 60 134 71 133 84 132 107 130 123 130 139 129 153 129 166 129 176 128 184 128 189 128 192 129 193 129 192 " />
        <polyline stroke="black" stroke-width="3" stroke-linecap="round" fill="transparent" stroke-linejoin="round" points="130 125 134 124 142 125 148 127 154 129 160 131 167 134 173 138 179 142 181 145 " />
        <polyline stroke="black" stroke-width="3" stroke-linecap="round" fill="transparent" stroke-linejoin="round" points="34 195 36 195 39 195 43 195 48 194 55 193 64 191 79 188 91 186 104 184 118 184 132 184 146 186 159 188 171 190 182 192 187 193 " />
        </svg>