<?xml version="1.0" standalone="no"?>
    <svg width="256" height="256" xmlns="http://www.w3.org/2000/svg" version="1.1">
    <polyline stroke="black" stroke-width="3" stroke-linecap="round" fill="transparent" stroke-linejoin="round" points="100.99505615234376 87.79629516601563 100.3414306640625 142.7023162841797 100.3414306640625 148.58511352539063 101.64862060546876 170.80899047851563 101.64862060546876 180.61363220214844 100.3414306640625 182.5745849609375 95.11224365234376 181.2672576904297 87.922119140625 174.7308349609375 84.00030517578125 162.31163024902344 84.00030517578125 153.16062927246094 84.6539306640625 149.8924102783203 84.6539306640625 149.8924102783203 " />
        <polyline stroke="black" stroke-width="3" stroke-linecap="round" fill="transparent" stroke-linejoin="round" points="96.41949462890624 109.3665008544922 93.80499267578124 112.6347198486328 70.2738037109375 139.43411254882813 67.65924072265625 142.7023162841797 58.50823974609375 151.8533172607422 51.97174072265625 156.4288330078125 53.279052734375 156.4288330078125 55.89361572265625 155.1215362548828 55.89361572265625 155.1215362548828 " />
        <polyline stroke="black" stroke-width="3" stroke-linecap="round" fill="transparent" stroke-linejoin="round" points="133.67718505859375 74.06976318359375 136.94537353515625 128.97581481933594 136.94537353515625 134.8585968017578 138.252685546875 161.0043182373047 138.252685546875 170.80899047851563 137.59906005859375 178.65269470214844 136.291748046875 177.99905395507813 137.59906005859375 170.1553192138672 138.252685546875 167.540771484375 138.252685546875 167.540771484375 " />
        <polyline stroke="black" stroke-width="3" stroke-linecap="round" fill="transparent" stroke-linejoin="round" points="150.01824951171875 128.32215881347656 170.93487548828125 129.6294403076172 172.895751953125 130.28311157226563 182.04681396484375 132.8976593017578 189.2369384765625 135.51223754882813 189.2369384765625 135.51223754882813 " />
        <polyline stroke="black" stroke-width="3" stroke-linecap="round" fill="transparent" stroke-linejoin="round" points="81.38568115234375 186.49642944335935 116.02880859375 182.5745849609375 125.83343505859376 181.2672576904297 144.78912353515625 177.3454132080078 163.09112548828125 173.42356872558594 178.12493896484375 170.80899047851563 189.2369384765625 170.80899047851563 199.04150390625 178.65269470214844 201.00244140625 180.61363220214844 201.00244140625 180.61363220214844 " />
        </svg>