<?xml version="1.0" standalone="no"?>
    <svg width="256" height="256" xmlns="http://www.w3.org/2000/svg" version="1.1">
    <polyline stroke="black" stroke-width="3" stroke-linecap="round" fill="transparent" stroke-linejoin="round" points="94.45855712890624 98.908203125 99.68768310546876 144.66323852539063 100.99505615234376 157.0824737548828 102.9559326171875 174.7308349609375 104.9168701171875 193.68649291992188 102.30230712890624 200.22293090820313 95.11224365234376 201.53024291992188 84.00030517578125 194.9937744140625 78.77117919921875 189.11102294921875 76.15655517578125 179.30638122558594 76.15655517578125 176.6917724609375 76.15655517578125 176.6917724609375 " />
        <polyline stroke="black" stroke-width="3" stroke-linecap="round" fill="transparent" stroke-linejoin="round" points="84.00030517578125 138.7804412841797 59.16180419921875 172.76992797851563 56.54730224609375 176.0381317138672 48.0499267578125 187.15008544921875 43.474365234375 193.03286743164065 46.0889892578125 194.34014892578125 50.66448974609375 192.37924194335935 50.66448974609375 192.37924194335935 " />
        <polyline stroke="black" stroke-width="3" stroke-linecap="round" fill="transparent" stroke-linejoin="round" points="128.447998046875 100.86915588378906 128.447998046875 106.09828186035156 130.408935546875 153.8142547607422 130.408935546875 159.0434112548828 132.369873046875 183.8818359375 133.02362060546875 196.30108642578125 133.02362060546875 202.18389892578125 134.330810546875 200.22293090820313 134.9844970703125 198.26199340820313 134.9844970703125 198.26199340820313 " />
        <polyline stroke="black" stroke-width="3" stroke-linecap="round" fill="transparent" stroke-linejoin="round" points="150.01824951171875 155.1215362548828 165.70574951171875 163.618896484375 168.97393798828125 164.9261932373047 174.856689453125 166.23350524902344 174.856689453125 166.23350524902344 " />
        <polyline stroke="black" stroke-width="3" stroke-linecap="round" fill="transparent" stroke-linejoin="round" points="86.6148681640625 200.22293090820313 125.1798095703125 195.64743041992188 135.63812255859375 194.34014892578125 157.2083740234375 193.03286743164065 176.16400146484375 191.72555541992188 193.81231689453125 190.41830444335935 202.96337890625 189.11102294921875 208.19256591796875 188.45736694335935 210.1534423828125 189.76461791992188 210.1534423828125 189.76461791992188 " />
        </svg>