<?xml version="1.0" standalone="no"?>
    <svg width="256" height="256" xmlns="http://www.w3.org/2000/svg" version="1.1">
    <polyline stroke="black" stroke-width="3" stroke-linecap="round" fill="transparent" stroke-linejoin="round" points="55 84 55 95 55 124 59 166 64 200 69 220 74 228 77 230 79 228 80 214 80 214 " />
        <polyline stroke="black" stroke-width="3" stroke-linecap="round" fill="transparent" stroke-linejoin="round" points="86 75 114 69 141 66 166 66 182 68 194 78 198 101 198 131 196 162 190 187 186 203 184 211 184 212 182 212 182 212 " />
        <polyline stroke="black" stroke-width="3" stroke-linecap="round" fill="transparent" stroke-linejoin="round" points="131 108 129 115 120 134 109 157 98 175 86 187 76 193 72 193 72 193 " />
        <polyline stroke="black" stroke-width="3" stroke-linecap="round" fill="transparent" stroke-linejoin="round" points="101 140 109 144 128 154 147 162 159 169 165 173 165 173 " />
        <polyline stroke="black" stroke-width="3" stroke-linecap="round" fill="transparent" stroke-linejoin="round" points="92 227 114 225 139 224 164 224 184 224 184 224 " />
        </svg>