<?xml version="1.0" standalone="no"?>
    <svg width="256" height="256" xmlns="http://www.w3.org/2000/svg" version="1.1">
    <polyline stroke="black" stroke-width="3" stroke-linecap="round" fill="transparent" stroke-linejoin="round" points="72.39288330078125 98.65150451660156 85.0963134765625 89.99005126953125 94.335205078125 83.63832092285156 104.1514892578125 76.70916748046875 112.81292724609376 69.78001403808594 120.31951904296876 64.58314514160156 126.6712646484375 60.5411376953125 130.13583374023438 58.231414794921875 131.86813354492188 57.07655334472656 130.13583374023438 59.38627624511719 125.51641845703124 66.89286804199219 112.81292724609376 86.52548217773438 97.79977416992188 110.20010375976563 86.25115966796875 130.41014099121094 77.5897216796875 142.53616333007813 71.8154296875 153.50732421875 68.92828369140625 158.70419311523438 67.19598388671875 162.1687774658203 67.19598388671875 162.1687774658203 69.5057373046875 159.28163146972656 75.280029296875 152.92990112304688 86.25115966796875 141.958740234375 98.95465087890624 132.71986389160156 105.30636596679688 130.41014099121094 111.6580810546875 131.56500244140625 117.432373046875 143.69102478027344 116.85494995117188 170.83023071289063 111.08065795898438 195.082275390625 105.30636596679688 208.3631591796875 99.53204345703124 214.71487426757813 92.6029052734375 218.17947387695313 84.51889038085938 218.17947387695313 78.16717529296875 215.8697509765625 78.16717529296875 215.8697509765625 " />
        <polyline stroke="black" stroke-width="3" stroke-linecap="round" fill="transparent" stroke-linejoin="round" points="150.34588623046875 76.13174438476563 150.92330932617188 92.29977416992188 150.92330932617188 102.69351196289063 150.92330932617188 111.93238830566406 150.34588623046875 119.43898010253906 150.34588623046875 124.63583374023438 150.34588623046875 128.1004180908203 149.7684326171875 129.25527954101563 148.61358642578125 129.25527954101563 148.61358642578125 126.36813354492188 150.92330932617188 121.74868774414063 154.38787841796875 115.39697265625 159.58477783203125 107.890380859375 167.09130859375 100.3837890625 176.3302001953125 92.29977416992188 186.72393798828125 84.79318237304688 197.11767578125 78.44146728515625 209.8211669921875 73.822021484375 216.75030517578125 72.66716003417969 223.10205078125 74.39944458007813 226.566650390625 79.01889038085938 228.8763427734375 88.25776672363281 227.721435546875 102.11607360839844 223.10205078125 113.6646728515625 217.9051513671875 121.1712646484375 210.97601318359375 127.5229949951172 203.46942138671875 131.56500244140625 195.3853759765625 131.56500244140625 190.18853759765625 128.1004180908203 186.72393798828125 121.1712646484375 182.1044921875 112.5098114013672 180.37225341796875 107.890380859375 180.37225341796875 105.58065795898438 180.37225341796875 105.58065795898438 179.2174072265625 107.3129425048828 178.0625 110.77752685546876 175.7528076171875 115.97439575195313 172.2882080078125 121.74868774414063 167.09130859375 128.6778564453125 160.7396240234375 135.02957153320313 154.38787841796875 140.8038787841797 148.61358642578125 144.84588623046875 145.14901733398438 147.15560913085938 145.14901733398438 147.7330322265625 148.03616333007813 146.5781707763672 154.96533203125 143.69102478027344 168.2462158203125 138.49415588378906 179.2174072265625 134.4521484375 188.45623779296875 131.56500244140625 195.3853759765625 129.25527954101563 201.15966796875 126.945556640625 205.7791748046875 124.63583374023438 207.511474609375 122.90354919433594 207.511474609375 122.90354919433594 " />
        <polyline stroke="black" stroke-width="3" stroke-linecap="round" fill="transparent" stroke-linejoin="round" points="187.3013916015625 142.53616333007813 180.94964599609375 151.19761657714844 175.17535400390625 161.013916015625 169.978515625 171.40765380859375 166.513916015625 182.3788146972656 163.62677001953125 191.61770629882813 161.3170166015625 197.96942138671875 158.429931640625 203.74371337890625 152.6556396484375 208.3631591796875 145.14901733398438 211.25030517578125 137.06500244140625 212.98260498046875 131.29071044921875 212.98260498046875 127.82611083984376 212.98260498046875 127.82611083984376 210.095458984375 132.445556640625 205.47601318359375 146.88128662109375 197.96942138671875 166.513916015625 192.7725524902344 184.41424560546875 191.04025268554688 198.2725830078125 191.04025268554688 209.24371337890625 191.04025268554688 216.75030517578125 191.04025268554688 222.52459716796875 191.04025268554688 226.566650390625 191.04025268554688 226.566650390625 191.04025268554688 226.566650390625 191.04025268554688 " />
        </svg>