<?xml version="1.0" standalone="no"?>
    <svg width="256" height="256" xmlns="http://www.w3.org/2000/svg" version="1.1">
    <polyline stroke="black" stroke-width="3" stroke-linecap="round" fill="transparent" stroke-linejoin="round" points="64.61669921875 98.2783203125 77.16354370117188 92.90109252929688 83.88510131835938 90.21249389648438 95.98382568359376 85.73149108886719 108.97869873046876 79.90617370605469 113.459716796875 77.66567993164063 116.1483154296875 76.32138061523438 116.1483154296875 76.32138061523438 " />
        <polyline stroke="black" stroke-width="3" stroke-linecap="round" fill="transparent" stroke-linejoin="round" points="76.267333984375 132.33396911621094 70.4420166015625 147.56942749023438 65.0648193359375 161.46051025390625 62.376220703125 168.18203735351563 58.34332275390625 178.04025268554688 55.206634521484375 184.31365966796875 52.96612548828125 187.45037841796875 52.96612548828125 187.45037841796875 " />
        <polyline stroke="black" stroke-width="3" stroke-linecap="round" fill="transparent" stroke-linejoin="round" points="78.9559326171875 148.91372680664063 83.88510131835938 146.22509765625 93.74325561523438 142.19219970703125 100.46478271484376 140.3997802734375 105.39389038085938 141.74407958984375 109.42684936523438 149.80990600585938 110.322998046875 169.07823181152344 105.39389038085938 187.00225830078125 98.67236328125 197.30859375 92.39898681640624 201.34149169921875 85.2293701171875 202.685791015625 85.2293701171875 202.685791015625 " />
        <polyline stroke="black" stroke-width="3" stroke-linecap="round" fill="transparent" stroke-linejoin="round" points="173.05712890625 61.0859375 169.92041015625 68.25555419921875 164.9913330078125 76.76947021484375 155.5811767578125 89.764404296875 155.5811767578125 89.764404296875 " />
        <polyline stroke="black" stroke-width="3" stroke-linecap="round" fill="transparent" stroke-linejoin="round" points="127.350830078125 106.3441162109375 133.624267578125 103.655517578125 154.68499755859375 95.58970642089844 170.3685302734375 90.21249389648438 184.2596435546875 85.73149108886719 195.01409912109375 82.59478759765625 195.01409912109375 82.59478759765625 " />
        <polyline stroke="black" stroke-width="3" stroke-linecap="round" fill="transparent" stroke-linejoin="round" points="132.72802734375 149.80990600585938 145.72299194335938 147.12130737304688 158.269775390625 144.43270874023438 164.0950927734375 143.08837890625 169.92041015625 141.74407958984375 178.434326171875 139.50360107421875 178.434326171875 139.50360107421875 " />
        <polyline stroke="black" stroke-width="3" stroke-linecap="round" fill="transparent" stroke-linejoin="round" points="155.133056640625 126.50865173339844 150.2039794921875 137.711181640625 144.378662109375 150.25802612304688 131.83184814453125 178.48834228515625 121.077392578125 200.89340209960935 113.90780639648438 216.57693481445313 109.42684936523438 225.987060546875 108.08251953125 228.6756591796875 108.08251953125 228.6756591796875 " />
        <polyline stroke="black" stroke-width="3" stroke-linecap="round" fill="transparent" stroke-linejoin="round" points="148.85968017578125 175.79974365234375 154.2369384765625 178.9364471435547 166.33563232421875 186.55416870117188 183.36346435546875 199.10101318359375 191.87738037109375 205.3743896484375 191.87738037109375 205.3743896484375 " />
        <polyline stroke="black" stroke-width="3" stroke-linecap="round" fill="transparent" stroke-linejoin="round" points="185.1558837890625 169.97442626953125 178.434326171875 176.2478485107422 171.71282958984375 182.9693603515625 164.9913330078125 190.13897705078125 152.892578125 203.58200073242188 147.0672607421875 212.09591674804688 147.0672607421875 212.09591674804688 " />
        </svg>