<?xml version="1.0" standalone="no"?>
    <svg width="256" height="256" xmlns="http://www.w3.org/2000/svg" version="1.1">
    <polyline stroke="black" stroke-width="3" stroke-linecap="round" fill="transparent" stroke-linejoin="round" points="58.504791259765625 80.39625549316406 70.33856201171875 75.200927734375 81.59512329101563 72.02601623535156 90.2540283203125 70.29423522949219 97.18112182617188 69.42832946777344 99.4901123046875 69.13972473144531 99.4901123046875 69.13972473144531 " />
        <polyline stroke="black" stroke-width="3" stroke-linecap="round" fill="transparent" stroke-linejoin="round" points="71.49310302734375 113.588623046875 84.48138427734375 107.52740478515624 95.73794555664063 103.48660278320313 102.37643432617188 102.33209228515624 107.86041259765624 104.3524932861328 113.63299560546876 122.8247528076172 112.47842407226563 145.9151153564453 108.72628784179688 165.25328063964844 104.68545532226563 180.55062866210935 99.20150756835938 191.51852416992188 94.00619506835938 198.7342834472656 87.07904052734375 201.04327392578125 79.28607177734375 194.40481567382813 76.39981079101563 185.74594116210935 76.39981079101563 185.74594116210935 " />
        <polyline stroke="black" stroke-width="3" stroke-linecap="round" fill="transparent" stroke-linejoin="round" points="54.752593994140625 135.81307983398438 44.361968994140625 165.5419158935547 35.99169921875 187.1890869140625 30.2191162109375 199.02288818359375 26.4669189453125 203.35232543945313 26.4669189453125 203.35232543945313 " />
        <polyline stroke="black" stroke-width="3" stroke-linecap="round" fill="transparent" stroke-linejoin="round" points="166.74072265625 60.4808349609375 165.00897216796875 70.00559997558594 163.8544921875 74.62367248535156 162.41131591796875 78.66448974609375 162.41131591796875 78.66448974609375 " />
        <polyline stroke="black" stroke-width="3" stroke-linecap="round" fill="transparent" stroke-linejoin="round" points="138.16647338867188 85.59159851074219 154.04107666015625 80.68489074707031 165.8748779296875 77.79859924316406 174.53375244140625 76.06681823730469 180.88360595703125 74.62367248535156 180.88360595703125 74.62367248535156 " />
        <polyline stroke="black" stroke-width="3" stroke-linecap="round" fill="transparent" stroke-linejoin="round" points="146.53671264648438 113.3000030517578 159.81365966796875 108.10467529296876 171.6474609375 103.19796752929688 180.0177001953125 98.8685302734375 182.61541748046875 97.1367645263672 182.61541748046875 97.1367645263672 " />
        <polyline stroke="black" stroke-width="3" stroke-linecap="round" fill="transparent" stroke-linejoin="round" points="154.906982421875 106.08425903320313 147.40261840820313 129.46324157714844 139.03237915039063 152.5535888671875 131.5279541015625 172.18035888671875 126.62130737304688 181.99375915527344 121.42596435546876 189.49810791015625 118.82830810546876 192.961669921875 118.82830810546876 192.961669921875 " />
        <polyline stroke="black" stroke-width="3" stroke-linecap="round" fill="transparent" stroke-linejoin="round" points="159.81365966796875 138.41073608398438 180.3062744140625 158.03750610351563 198.489990234375 175.9325408935547 211.76690673828125 185.74594116210935 224.75518798828125 190.65264892578125 228.21875 190.364013671875 228.21875 190.364013671875 " />
        <polyline stroke="black" stroke-width="3" stroke-linecap="round" fill="transparent" stroke-linejoin="round" points="161.2568359375 141.87428283691406 152.0206298828125 161.21246337890625 149.71163940429688 165.25328063964844 149.71163940429688 165.25328063964844 " />
        </svg>