<?xml version="1.0" standalone="no"?>
    <svg width="256" height="256" xmlns="http://www.w3.org/2000/svg" version="1.1">
    <polyline stroke="black" stroke-width="3" stroke-linecap="round" fill="transparent" stroke-linejoin="round" points="59.81512451171875 90.38978576660156 66.88848876953125 85.96893310546875 73.96185302734375 82.43223571777344 88.10861206054688 75.35885620117188 100.044921875 69.61172485351563 107.56039428710938 66.51712036132813 111.09710693359376 65.19087219238281 111.98129272460938 66.07504272460938 112.42333984375 66.51712036132813 112.42333984375 66.51712036132813 " />
        <polyline stroke="black" stroke-width="3" stroke-linecap="round" fill="transparent" stroke-linejoin="round" points="65.56222534179688 127.5250244140625 60.69927978515625 140.34555053710938 56.278411865234375 151.83978271484375 46.994598388671875 175.71243286132813 41.24749755859375 189.85919189453125 38.15289306640625 196.93258666992188 36.384521484375 199.5850830078125 35.94244384765625 199.14300537109375 35.94244384765625 197.8167724609375 39.03704833984375 186.322509765625 41.24749755859375 180.57537841796875 46.552490234375 169.96531677246094 59.373016357421875 152.28189086914063 70.4251708984375 142.11387634277344 81.477294921875 133.71426391601563 91.64532470703124 128.4092254638672 96.066162109375 127.5250244140625 101.81332397460938 128.85128784179688 108.00250244140624 144.7664031982422 105.79208374023438 168.19696044921875 98.71868896484376 190.30126953125 90.76116943359376 202.6796875 82.36151123046875 209.75308227539065 78.38275146484375 211.52142333984375 72.63558959960938 211.9635009765625 71.309326171875 211.079345703125 71.309326171875 211.079345703125 " />
        <polyline stroke="black" stroke-width="3" stroke-linecap="round" fill="transparent" stroke-linejoin="round" points="181.8309326171875 44.412811279296875 179.17840576171875 58.5595703125 176.08380126953125 67.40130615234375 160.61077880859375 91.71604919433594 149.55859375 100.99986267089844 141.158935546875 106.30490112304688 136.73812866210938 108.0732421875 135.411865234375 107.6311492919922 135.85394287109375 106.30490112304688 142.48519897460938 101.4419403076172 159.2845458984375 93.04229736328124 180.06256103515625 83.75849914550781 199.072265625 77.127197265625 213.6611328125 73.59051513671875 222.060791015625 73.14842224121094 226.9237060546875 74.91677856445313 226.9237060546875 74.91677856445313 " />
        <polyline stroke="black" stroke-width="3" stroke-linecap="round" fill="transparent" stroke-linejoin="round" points="140.27484130859375 150.51351928710938 146.4639892578125 149.62936401367188 153.9794921875 148.3031005859375 176.52587890625 144.32432556152344 189.7884521484375 141.22970581054688 194.2093505859375 139.9034423828125 200.3985595703125 136.808837890625 203.4931640625 132.38800048828125 204.3773193359375 126.64085388183594 203.4931640625 122.66209411621094 200.840576171875 116.03079223632813 199.072265625 113.82037353515624 196.86181640625 113.37828063964844 192.883056640625 115.14663696289063 185.36761474609375 124.87252807617188 174.3154296875 143.44012451171875 163.2633056640625 164.6602783203125 152.21112060546875 184.99624633789065 142.92733764648438 201.35345458984375 135.411865234375 213.73187255859375 129.66473388671875 221.247314453125 126.57012939453124 223.457763671875 124.8017578125 222.57357788085935 124.35971069335938 216.3843688964844 127.8963623046875 208.42681884765625 133.201416015625 203.12179565429688 142.48519897460938 200.02719116210935 154.8636474609375 200.02719116210935 167.68414306640625 202.6796875 180.06256103515625 206.65847778320313 190.2305908203125 211.079345703125 197.303955078125 215.05810546875 199.51434326171875 216.3843688964844 199.51434326171875 216.3843688964844 " />
        <polyline stroke="black" stroke-width="3" stroke-linecap="round" fill="transparent" stroke-linejoin="round" points="195.093505859375 183.2279052734375 188.462158203125 189.85919189453125 181.8309326171875 196.93258666992188 166.35791015625 214.61602783203125 159.7265625 223.01568603515625 159.7265625 223.01568603515625 " />
        </svg>