<?xml version="1.0" standalone="no"?>
    <svg width="256" height="256" xmlns="http://www.w3.org/2000/svg" version="1.1">
    <polyline stroke="black" stroke-width="3" stroke-linecap="round" fill="transparent" stroke-linejoin="round" points="66.09283447265625 97.00344848632813 72.82464599609375 91.33456420898438 85.22531127929688 83.53987121582031 96.56304931640624 77.87098693847656 104.71209716796876 75.39083862304688 107.19219970703124 74.32794189453125 107.19219970703124 74.32794189453125 " />
        <polyline stroke="black" stroke-width="3" stroke-linecap="round" fill="transparent" stroke-linejoin="round" points="69.28158569335938 129.5994873046875 65.0299072265625 140.937255859375 56.88092041015625 164.67568969726563 53.337860107421875 173.8876190185547 47.6689453125 188.059814453125 46.25177001953125 190.5399475097656 44.83453369140625 193.72869873046875 44.83453369140625 193.72869873046875 " />
        <polyline stroke="black" stroke-width="3" stroke-linecap="round" fill="transparent" stroke-linejoin="round" points="77.784912109375 142.0001678466797 84.51669311523438 137.3942108154297 91.602783203125 137.74851989746094 94.79150390625 157.2352752685547 91.602783203125 185.5796813964844 85.22531127929688 204.712158203125 79.20211791992188 213.56979370117188 73.53326416015625 216.4042053222656 67.15573120117188 214.6326904296875 67.15573120117188 214.6326904296875 " />
        <polyline stroke="black" stroke-width="3" stroke-linecap="round" fill="transparent" stroke-linejoin="round" points="165.65252685546875 55.904075622558594 163.17236328125 62.99017333984375 148.29159545898438 90.9802703857422 148.29159545898438 90.9802703857422 " />
        <polyline stroke="black" stroke-width="3" stroke-linecap="round" fill="transparent" stroke-linejoin="round" points="125.9703369140625 103.73526000976563 134.82797241210938 98.42068481445313 146.52001953125 92.39749145507813 157.5035400390625 85.66571044921875 179.1160888671875 78.57958984375 195.41412353515625 73.9736328125 203.56317138671875 72.91072082519531 206.3975830078125 73.2650146484375 204.6260986328125 81.76834106445313 190.80816650390625 100.5465087890625 183.7220458984375 109.04983520507813 180.5333251953125 112.94717407226563 140.496826171875 142.35447692871094 133.41073608398438 146.96043395996094 131.9935302734375 148.0233612060547 135.18231201171875 147.66905212402344 148.29159545898438 145.89752197265625 164.589599609375 142.0001678466797 179.82470703125 137.3942108154297 186.20220947265625 135.26837158203125 196.831298828125 129.5994873046875 199.31146240234375 126.76506042480467 200.0201416015625 125.7021484375 195.7684326171875 119.678955078125 189.7452392578125 115.072998046875 183.3677978515625 114.3643798828125 173.0928955078125 120.03326416015624 159.62933349609375 135.26837158203125 143.331298828125 163.2584686279297 132.34783935546875 185.9339904785156 125.9703369140625 205.06646728515625 122.78158569335938 216.758544921875 121.71868896484376 219.2386474609375 121.71868896484376 218.8843688964844 122.42733764648438 217.11282348632813 128.80477905273438 193.72869873046875 131.63925170898438 181.3280029296875 133.05645751953125 177.7849578857422 138.725341796875 172.82469177246094 151.1259765625 172.82469177246094 167.7783203125 178.4935760498047 184.4306640625 186.642578125 192.225341796875 191.60284423828125 211.712158203125 203.64923095703125 218.089599609375 206.8379821777344 218.089599609375 206.8379821777344 " />
        <polyline stroke="black" stroke-width="3" stroke-linecap="round" fill="transparent" stroke-linejoin="round" points="189.7452392578125 158.65249633789063 175.21875 179.55648803710938 161.755126953125 204.712158203125 161.755126953125 204.712158203125 " />
        </svg>