<?xml version="1.0" standalone="no"?>
    <svg width="256" height="256" xmlns="http://www.w3.org/2000/svg" version="1.1">
    <polyline stroke="black" stroke-width="3" stroke-linecap="round" fill="transparent" stroke-linejoin="round" points="62.498626708984375 95.766357421875 68.83740234375 94.49859619140624 81.9375 90.27273559570313 88.69891357421875 87.73722839355469 94.61508178710938 85.62429809570313 103.91195678710938 81.821044921875 110.250732421875 78.44035339355469 113.63143920898438 76.32742309570313 114.899169921875 75.48225402832031 114.4765625 75.48225402832031 111.09588623046876 78.86294555664063 105.602294921875 84.35655212402344 99.68612670898438 91.54049682617188 92.50213623046876 100.83738708496094 83.20526123046875 114.36009216308594 68.414794921875 141.82815551757813 54.892059326171875 167.6058349609375 43.90484619140625 188.735107421875 36.72088623046875 200.1448974609375 33.3402099609375 205.2159423828125 32.07244873046875 205.63851928710935 32.07244873046875 205.2159423828125 33.3402099609375 202.680419921875 36.72088623046875 198.031982421875 43.059661865234375 189.15768432617188 51.51141357421875 179.01565551757813 62.92120361328125 166.7606658935547 74.75360107421875 155.3508758544922 87.008544921875 146.0540008544922 92.50213623046876 142.67332458496094 103.91195678710938 139.29263305664063 107.7152099609375 142.25071716308594 111.94110107421876 159.57672119140625 111.09588623046876 182.81890869140625 105.602294921875 200.1448974609375 97.99578857421876 211.13214111328125 89.54403686523438 217.47088623046875 81.09237670898438 220.00640869140625 77.711669921875 220.00640869140625 77.711669921875 220.00640869140625 " />
        <polyline stroke="black" stroke-width="3" stroke-linecap="round" fill="transparent" stroke-linejoin="round" points="154.1995849609375 68.29830932617188 152.50927734375 74.21450805664063 148.70599365234375 83.51138305664063 143.63494873046875 91.117919921875 138.98651123046875 96.18893432617188 134.76068115234375 100.41477966308594 131.80258178710938 103.37289428710938 129.68963623046875 105.48580932617188 129.26705932617188 106.33097839355467 133.492919921875 106.33097839355467 150.81893920898438 102.95030212402344 161.80615234375 99.9921875 182.0902099609375 94.92117309570313 202.796875 89.42756652832031 212.09375 86.469482421875 217.164794921875 84.35655212402344 217.58740234375 83.51138305664063 217.58740234375 83.51138305664063 " />
        <polyline stroke="black" stroke-width="3" stroke-linecap="round" fill="transparent" stroke-linejoin="round" points="139.83172607421875 139.7152099609375 147.015625 138.44744873046875 154.1995849609375 137.17971801757813 160.9609375 136.33453369140625 173.6385498046875 134.64419555664063 179.13214111328125 133.37643432617188 188.0064697265625 130.4183349609375 196.8807373046875 125.34732055664063 198.99365234375 122.38922119140624 201.9517822265625 112.24717712402344 201.5291748046875 102.95030212402344 199.83880615234375 98.3018798828125 198.1484375 96.18893432617188 196.4581298828125 95.766357421875 189.274169921875 98.72445678710938 185.47088623046875 102.10514831542967 169.83526611328125 125.34732055664063 160.1158447265625 143.5184783935547 155.0447998046875 153.23794555664063 142.3671875 178.5930633544922 133.91549682617188 194.22869873046875 130.11224365234375 200.99008178710935 121.6605224609375 214.5128173828125 118.27987670898438 218.7386474609375 117.0120849609375 219.1612548828125 117.0120849609375 219.1612548828125 " />
        <polyline stroke="black" stroke-width="3" stroke-linecap="round" fill="transparent" stroke-linejoin="round" points="167.29974365234375 170.141357421875 173.2159423828125 173.09945678710938 179.5546875 176.48013305664063 185.47088623046875 179.438232421875 190.96453857421875 182.81890869140625 201.1065673828125 188.735107421875 205.3323974609375 191.2706298828125 209.55828857421875 193.80612182617188 209.55828857421875 193.80612182617188 " />
        <polyline stroke="black" stroke-width="3" stroke-linecap="round" fill="transparent" stroke-linejoin="round" points="209.13568115234375 149.85726928710938 203.219482421875 154.50570678710938 197.3033447265625 159.57672119140625 191.8096923828125 164.22515869140625 180.82244873046875 173.9446258544922 164.7642822265625 192.11578369140625 164.7642822265625 192.11578369140625 " />
        </svg>