<?xml version="1.0" standalone="no"?>
    <svg width="256" height="256" xmlns="http://www.w3.org/2000/svg" version="1.1">
    <polyline stroke="black" stroke-width="3" stroke-linecap="round" fill="transparent" stroke-linejoin="round" points="52.734619140625 98.03927612304688 68.68197631835938 88.80661010742188 90.92425537109376 78.31494140625 105.19296264648438 72.43960571289063 116.52392578125 67.82327270507813 124.077880859375 64.8856201171875 128.27459716796875 63.626617431640625 129.11395263671875 63.206939697265625 129.11395263671875 63.206939697265625 " />
        <polyline stroke="black" stroke-width="3" stroke-linecap="round" fill="transparent" stroke-linejoin="round" points="86.30795288085938 106.012939453125 82.53094482421875 113.5669403076172 77.07528686523438 127.41593933105467 60.708251953125 173.5792236328125 53.993621826171875 189.94622802734375 49.796966552734375 199.17889404296875 47.2789306640625 202.95590209960935 46.01995849609375 203.37554931640625 45.18060302734375 202.5362243652344 44.760955810546875 201.2772216796875 44.760955810546875 198.33956909179688 46.43963623046875 192.4642333984375 48.957611083984375 184.91021728515625 52.31494140625 176.5168914794922 56.5115966796875 168.12356567382813 61.547607421875 160.56956481933594 67.84262084960938 153.8549041748047 76.65560913085938 147.14024353027344 84.62924194335938 142.52392578125 91.76361083984376 140.00592041015625 98.05859375 139.58624267578125 102.6749267578125 140.84524536132813 106.0322265625 148.39923095703125 104.35360717773438 175.67758178710938 98.478271484375 194.14288330078125 92.60296630859376 202.95590209960935 86.30795288085938 206.73291015625 80.85226440429688 206.313232421875 79.173583984375 204.63455200195313 79.173583984375 204.63455200195313 " />
        <polyline stroke="black" stroke-width="3" stroke-linecap="round" fill="transparent" stroke-linejoin="round" points="158.0709228515625 53.97428894042969 156.39227294921875 61.94795227050781 150.51690673828125 79.15426635742188 135.82858276367188 103.07525634765624 130.37289428710938 108.11126708984376 127.85491943359376 109.78994750976563 124.49755859375 111.46859741210938 122.81893920898438 111.88827514648438 123.23858642578124 111.04893493652344 124.49755859375 110.2095947265625 137.08758544921875 104.3342742919922 143.80224609375 101.39659118652344 167.3035888671875 92.1639404296875 174.43792724609375 89.64593505859375 191.22454833984375 85.02960205078125 194.5819091796875 84.60993957519531 197.51953125 85.02960205078125 197.51953125 85.02960205078125 " />
        <polyline stroke="black" stroke-width="3" stroke-linecap="round" fill="transparent" stroke-linejoin="round" points="122.81893920898438 140.4255828857422 133.730224609375 137.0682373046875 139.60556030273438 135.38958740234375 151.356201171875 132.03225708007813 162.687255859375 129.51425170898438 171.919921875 127.41593933105467 180.313232421875 124.47825622558594 184.9295654296875 121.54058837890624 184.9295654296875 121.54058837890624 " />
        <polyline stroke="black" stroke-width="3" stroke-linecap="round" fill="transparent" stroke-linejoin="round" points="159.74957275390625 109.78994750976563 155.55291748046875 117.76359558105467 150.93658447265625 126.99626159667967 141.70391845703125 146.3009033203125 133.310546875 164.3465576171875 125.756591796875 179.87423706054688 119.04193115234376 192.8839111328125 113.58627319335938 200.8575439453125 109.80926513671876 206.313232421875 109.80926513671876 206.313232421875 " />
        <polyline stroke="black" stroke-width="3" stroke-linecap="round" fill="transparent" stroke-linejoin="round" points="157.6512451171875 184.0708923339844 163.52655029296875 186.16925048828125 175.2772216796875 191.6249084472656 185.7689208984375 197.500244140625 190.38525390625 200.01821899414065 196.26055908203125 202.95590209960935 196.26055908203125 202.95590209960935 " />
        <polyline stroke="black" stroke-width="3" stroke-linecap="round" fill="transparent" stroke-linejoin="round" points="177.7952880859375 146.7205810546875 170.2412109375 155.5335693359375 160.5888671875 167.28424072265625 150.93658447265625 181.1332244873047 150.93658447265625 181.1332244873047 " />
        </svg>