<?xml version="1.0" standalone="no"?>
    <svg width="256" height="256" xmlns="http://www.w3.org/2000/svg" version="1.1">
    <polyline stroke="black" stroke-width="3" stroke-linecap="round" fill="transparent" stroke-linejoin="round" points="80.212890625 106.20791625976563 80.212890625 113.94261169433594 80.54916381835938 120.66844177246094 81.22177124023438 134.79269409179688 81.89434814453125 145.55401611328125 82.23065185546875 154.63389587402344 82.23065185546875 157.99681091308594 82.23065185546875 157.99681091308594 " />
        <polyline stroke="black" stroke-width="3" stroke-linecap="round" fill="transparent" stroke-linejoin="round" points="105.43475341796876 96.4554443359375 112.49688720703124 93.4288330078125 120.2315673828125 90.73849487304688 145.78973388671875 86.03041076660156 168.3212890625 87.71188354492188 179.0826416015625 90.73849487304688 186.14471435546875 95.11029052734376 190.51654052734375 100.82723999023438 191.8616943359375 114.61520385742188 182.7818603515625 136.13784790039063 163.27685546875 157.66050720214844 149.48895263671875 168.42184448242188 149.48895263671875 168.42184448242188 " />
        <polyline stroke="black" stroke-width="3" stroke-linecap="round" fill="transparent" stroke-linejoin="round" points="60.707977294921875 165.05892944335938 69.787841796875 162.36859130859375 106.443603515625 155.30645751953125 138.05502319335938 150.93467712402344 154.5333251953125 149.5895233154297 169.66644287109375 148.58062744140625 196.2335205078125 149.92581176757813 228.18115234375 157.99681091308594 228.18115234375 157.99681091308594 " />
        </svg>