<?xml version="1.0" standalone="no"?>
    <svg width="256" height="256" xmlns="http://www.w3.org/2000/svg" version="1.1">
    <polyline stroke="black" stroke-width="3" stroke-linecap="round" fill="transparent" stroke-linejoin="round" points="87.4000244140625 116.53335571289063 86.3333740234375 130.40003967285156 86.3333740234375 134.6666717529297 87.4000244140625 131.4666748046875 87.4000244140625 125.06671142578124 88.466796875 102.66667175292967 90.60003662109376 81.33334350585938 100.2000732421875 72.80000305175781 133.2667236328125 64.26667785644531 147.1334228515625 63.20002746582031 159.933349609375 62.13334655761719 174.86669921875 62.13334655761719 183.4000244140625 65.33334350585938 182.3333740234375 72.80000305175781 171.666748046875 88.80000305175781 161 106.933349609375 156.7333984375 115.4666748046875 155.666748046875 125.06671142578124 151.4000244140625 132.53334045410156 142.86669921875 137.86668395996094 142.86669921875 137.86668395996094 " />
        <polyline stroke="black" stroke-width="3" stroke-linecap="round" fill="transparent" stroke-linejoin="round" points="106.60003662109376 143.20001220703125 147.1334228515625 138.93336486816406 202.60009765625 137.86668395996094 217.533447265625 138.93336486816406 237.800048828125 141.06671142578125 249.533447265625 143.20001220703125 254.86669921875 146.40003967285156 255.933349609375 147.4666748046875 255.933349609375 147.4666748046875 " />
        </svg>