<?xml version="1.0" standalone="no"?>
    <svg width="256" height="256" xmlns="http://www.w3.org/2000/svg" version="1.1">
    <polyline stroke="black" stroke-width="3" stroke-linecap="round" fill="transparent" stroke-linejoin="round" points="73 92 73 99 74 110 76 122 79 132 82 139 83 143 86 146 88 146 92 142 92 142 " />
        <polyline stroke="black" stroke-width="3" stroke-linecap="round" fill="transparent" stroke-linejoin="round" points="92 97 97 97 105 96 117 94 126 91 137 87 145 86 150 85 154 85 157 85 159 86 159 90 159 98 158 107 156 112 154 115 152 118 148 122 144 123 144 123 " />
        <polyline stroke="black" stroke-width="3" stroke-linecap="round" fill="transparent" stroke-linejoin="round" points="47 156 55 156 64 155 81 152 99 148 119 142 139 137 154 136 166 134 177 134 186 133 192 132 198 132 202 132 205 132 206 133 206 133 " />
        </svg>