<?xml version="1.0" standalone="no"?>
    <svg width="256" height="256" xmlns="http://www.w3.org/2000/svg" version="1.1">
    <polyline stroke="black" stroke-width="3" stroke-linecap="round" fill="transparent" stroke-linejoin="round" points="73.53237915039063 114.68617248535155 81.614013671875 112.66574096679688 89.69564819335938 110.6453094482422 108.283447265625 107.4126434326172 129.69979858398438 104.17999267578124 139.8018798828125 102.96775817871094 157.17742919921875 100.13916015625 169.7039794921875 96.90652465820313 177.381591796875 94.0779266357422 181.42236328125 92.05752563476563 182.2305908203125 91.24935913085938 182.2305908203125 91.24935913085938 " />
        <polyline stroke="black" stroke-width="3" stroke-linecap="round" fill="transparent" stroke-linejoin="round" points="100.60586547851563 66.60031127929688 100.2017822265625 79.12687683105469 99.79769897460938 91.6534423828125 98.98956298828124 104.58407592773438 97.37322998046876 144.18417358398438 97.37322998046876 154.6903076171875 98.58544921875 169.641357421875 100.60589599609376 176.9148406982422 101.818115234375 177.72300720214844 104.24264526367188 177.31893920898438 104.24264526367188 177.31893920898438 " />
        <polyline stroke="black" stroke-width="3" stroke-linecap="round" fill="transparent" stroke-linejoin="round" points="152.3284912109375 48.82066345214844 150.30804443359375 66.19622802734375 148.28759765625 83.57179260253906 146.26718139648438 100.5432586669922 144.65087890625 136.506591796875 145.45904541015625 185.40057373046875 146.26718139648438 199.94757080078125 148.69171142578125 223.78842163085935 148.69171142578125 223.78842163085935 " />
        </svg>