<?xml version="1.0" standalone="no"?>
    <svg width="256" height="256" xmlns="http://www.w3.org/2000/svg" version="1.1">
    <polyline stroke="black" stroke-width="3" stroke-linecap="round" fill="transparent" stroke-linejoin="round" points="108 66 108 77 108 88 108 128 108 154 108 175 110 190 113 193 113 193 " />
        <polyline stroke="black" stroke-width="3" stroke-linecap="round" fill="transparent" stroke-linejoin="round" points="159 33 159 46 159 59 159 77 158 103 157 132 156 160 155 175 154 180 154 180 " />
        <polyline stroke="black" stroke-width="3" stroke-linecap="round" fill="transparent" stroke-linejoin="round" points="63 123 69 122 75 121 92 118 116 116 129 116 153 116 175 116 197 116 197 116 " />
        </svg>