<?xml version="1.0" standalone="no"?>
    <svg width="256" height="256" xmlns="http://www.w3.org/2000/svg" version="1.1">
    <polyline stroke="black" stroke-width="3" stroke-linecap="round" fill="transparent" stroke-linejoin="round" points="75.13946533203125 70.717041015625 87.47409057617188 67.92343139648438 102.27096557617188 65.16152954101563 117.20257568359376 62.690399169921875 142.6134033203125 58.0396728515625 161.24554443359375 57.35595703125 170.2711181640625 58.435272216796875 180.7109375 62.165985107421875 182.4068603515625 64.18621826171875 181.8297119140625 66.864013671875 181.2197265625 68.9764404296875 177.4852294921875 79.18936157226563 165.92919921875 95.13612365722656 157.25592041015625 102.09744262695313 137.48580932617188 112.77108764648438 136.10812377929688 112.66110229492188 " />
        <polyline stroke="black" stroke-width="3" stroke-linecap="round" fill="transparent" stroke-linejoin="round" points="137.38693237304688 115.772705078125 147.3348388671875 119.7239990234375 148.0670166015625 122.41886901855467 148.09478759765625 123.01861572265624 " />
        <polyline stroke="black" stroke-width="3" stroke-linecap="round" fill="transparent" stroke-linejoin="round" points="103.675537109375 188.92437744140625 107.98895263671876 195.6817626953125 114.039306640625 208.11541748046875 114.325927734375 212.37921142578125 113.68060302734376 211.86090087890625 " />
        <polyline stroke="black" stroke-width="3" stroke-linecap="round" fill="transparent" stroke-linejoin="round" points="124.9407958984375 152.1683349609375 134.05560302734375 148.07298278808594 154.30462646484375 144.31504821777344 169.7913818359375 147.9434051513672 176.16162109375 151.80715942382813 180.0255126953125 161.11375427246094 180.6842041015625 167.82925415039063 177.4541015625 190.40582275390625 163.6600341796875 211.50994873046875 162.380126953125 211.18426513671875 " />
        <polyline stroke="black" stroke-width="3" stroke-linecap="round" fill="transparent" stroke-linejoin="round" points="141.70068359375 207.84857177734375 149.97869873046875 206.62973022460935 165.27191162109375 207.9822998046875 166.81396484375 208.44241333007813 " />
        </svg>