<?xml version="1.0" standalone="no"?>
    <svg width="256" height="256" xmlns="http://www.w3.org/2000/svg" version="1.1">
    <polyline stroke="black" stroke-width="3" stroke-linecap="round" fill="transparent" stroke-linejoin="round" points="69.81069946289063 93.32624816894533 68.8206787109375 130.94764709472656 59.91033935546875 153.71849060058594 58.26025390625 155.3685760498047 54.96014404296875 158.66868591308594 52.320068359375 159.65872192382813 51.660003662109375 159.65872192382813 51.329986572265625 158.3386993408203 58.26025390625 151.0784149169922 71.46078491210938 140.8480224609375 81.0311279296875 134.57777404785156 100.50189208984376 121.37728881835938 113.04232788085938 109.16682434082033 118.98251342773438 98.6064453125 118.98251342773438 98.6064453125 118.98251342773438 98.6064453125 " />
        <polyline stroke="black" stroke-width="3" stroke-linecap="round" fill="transparent" stroke-linejoin="round" points="95.55169677734376 87.05601501464844 92.91159057617188 151.73841857910156 96.87173461914063 193.98001098632813 96.87173461914063 200.58029174804688 96.87173461914063 200.58029174804688 " />
        <polyline stroke="black" stroke-width="3" stroke-linecap="round" fill="transparent" stroke-linejoin="round" points="142.0833740234375 53.394744873046875 142.0833740234375 60.985015869140625 133.17303466796875 112.13694763183594 115.68240356445313 145.13818359375 111.39224243164063 150.4183807373047 129.212890625 138.2079315185547 164.19427490234375 119.72723388671876 188.94512939453125 108.50680541992188 188.94512939453125 108.50680541992188 188.94512939453125 108.50680541992188 " />
        <polyline stroke="black" stroke-width="3" stroke-linecap="round" fill="transparent" stroke-linejoin="round" points="161.22412109375 84.08589172363281 162.21417236328125 136.557861328125 170.79449462890625 206.52047729492188 171.45452880859375 219.0609436035156 171.45452880859375 219.0609436035156 " />
        </svg>