<?xml version="1.0" standalone="no"?>
    <svg width="256" height="256" xmlns="http://www.w3.org/2000/svg" version="1.1">
    <polyline stroke="black" stroke-width="3" stroke-linecap="round" fill="transparent" stroke-linejoin="round" points="46.1956787109375 124.66349792480467 67.54537963867188 115.22036743164063 77.39910888671875 111.52523803710938 106.54962158203124 102.49267578125 122.15133666992188 98.79753112792967 133.64730834960938 95.92355346679688 141.03759765625 94.28125 141.03759765625 94.28125 " />
        <polyline stroke="black" stroke-width="3" stroke-linecap="round" fill="transparent" stroke-linejoin="round" points="81.91537475585938 68.415283203125 71.65109252929688 97.56582641601563 67.13482666015625 118.09439086914063 65.49252319335938 127.53750610351563 63.8502197265625 146.42376708984375 63.8502197265625 154.6351776123047 64.67138671875 170.64744567871094 65.49252319335938 174.34259033203125 67.9559326171875 182.55401611328125 69.18768310546875 184.1962890625 72.47222900390625 186.65972900390625 79.86251831054688 187.4808654785156 93.41134643554688 183.37515258789065 98.748779296875 179.26943969726563 98.748779296875 179.26943969726563 " />
        <polyline stroke="black" stroke-width="3" stroke-linecap="round" fill="transparent" stroke-linejoin="round" points="104.49676513671876 58.1510009765625 99.98046875 95.51296997070313 99.15936279296876 118.91551208496094 99.15936279296876 143.54977416992188 99.98046875 162.43603515625 100.39105224609376 172.70030212402344 100.39105224609376 172.70030212402344 " />
        <polyline stroke="black" stroke-width="3" stroke-linecap="round" fill="transparent" stroke-linejoin="round" points="136.52133178710938 123.43179321289063 150.89129638671875 118.09439086914063 164.029541015625 113.9886474609375 177.578369140625 111.93582153320313 189.4849853515625 110.29351806640624 199.338623046875 108.65122985839844 202.212646484375 108.24069213867188 202.212646484375 108.24069213867188 " />
        <polyline stroke="black" stroke-width="3" stroke-linecap="round" fill="transparent" stroke-linejoin="round" points="188.663818359375 68.415283203125 183.326416015625 88.94383239746094 180.0418701171875 106.59837341308594 177.98895263671875 116.04150390625 173.0621337890625 134.10665893554688 166.4930419921875 150.118896484375 158.2816162109375 162.43603515625 149.65960693359375 170.23687744140625 140.2164306640625 175.57431030273438 132.826171875 178.0377197265625 127.8992919921875 178.85887145996094 126.25701904296876 178.85887145996094 125.02532958984376 178.85887145996094 127.8992919921875 178.0377197265625 140.62701416015625 177.2165985107422 150.07015991210938 176.39544677734375 172.240966796875 175.98486328125 194.001220703125 175.98486328125 217.81439208984375 177.2165985107422 226.846923828125 179.68002319335938 230.5421142578125 182.1434326171875 230.5421142578125 182.1434326171875 " />
        </svg>