<?xml version="1.0" standalone="no"?>
    <svg width="256" height="256" xmlns="http://www.w3.org/2000/svg" version="1.1">
    <polyline stroke="black" stroke-width="3" stroke-linecap="round" fill="transparent" stroke-linejoin="round" points="34.325775146484375 130.00091552734375 54.854339599609375 121.37893676757813 72.50888061523438 115.63095092773438 89.34228515625 111.52523803710938 104.53341674804688 108.65122985839844 115.61883544921876 106.18780517578124 123.00912475585938 104.5455322265625 125.4725341796875 103.31382751464844 125.4725341796875 103.31382751464844 " />
        <polyline stroke="black" stroke-width="3" stroke-linecap="round" fill="transparent" stroke-linejoin="round" points="72.50888061523438 72.52099609375 68.813720703125 84.0169677734375 66.7608642578125 92.22840881347656 64.7080078125 100.85040283203124 58.960052490234375 127.53750610351563 56.49658203125 144.37091064453125 54.854339599609375 158.7408905029297 54.033172607421875 169.41574096679688 54.44378662109375 177.2165985107422 55.264892578125 182.9645843505859 56.907196044921875 186.2491455078125 59.78118896484375 187.89144897460935 64.7080078125 189.1231689453125 71.27719116210938 189.1231689453125 77.43572998046875 187.89144897460935 82.362548828125 185.42800903320313 86.46826171875 180.090576171875 86.46826171875 180.090576171875 " />
        <polyline stroke="black" stroke-width="3" stroke-linecap="round" fill="transparent" stroke-linejoin="round" points="95.5008544921875 67.59414672851563 93.447998046875 82.78526306152344 93.03744506835938 90.58612060546876 91.80575561523438 107.41952514648438 90.98455810546876 123.84237670898438 90.57403564453124 138.21234130859375 89.75286865234375 151.35061645507813 88.93173217773438 162.02545166015625 88.110595703125 169.41574096679688 87.70001220703125 175.1637420654297 87.70001220703125 176.80601501464844 87.70001220703125 176.80601501464844 " />
        <polyline stroke="black" stroke-width="3" stroke-linecap="round" fill="transparent" stroke-linejoin="round" points="116.85055541992188 111.11466979980467 127.11483764648438 108.24069213867188 137.37908935546875 106.59837341308594 142.71652221679688 105.77725219726563 153.391357421875 104.5455322265625 163.24505615234375 103.31382751464844 170.6353759765625 101.67153930664063 173.0987548828125 100.85040283203124 173.0987548828125 100.85040283203124 " />
        <polyline stroke="black" stroke-width="3" stroke-linecap="round" fill="transparent" stroke-linejoin="round" points="160.37109375 74.98440551757813 155.85479736328125 102.08212280273438 151.3385009765625 118.50494384765624 145.179931640625 134.9277801513672 138.20025634765625 147.65548706054688 131.22055053710938 157.50918579101563 124.6513671875 163.66775512695313 121.3668212890625 166.13116455078125 113.9765625 170.23687744140625 111.92367553710938 170.64744567871094 111.51312255859376 170.23687744140625 111.92367553710938 169.82632446289063 125.4725341796875 164.8994598388672 141.89535522460938 161.20433044433594 151.3385009765625 159.56204223632813 177.2044677734375 157.91973876953125 185.00531005859375 158.330322265625 202.659912109375 162.8466033935547 202.659912109375 162.8466033935547 " />
        </svg>