<?xml version="1.0" standalone="no"?>
    <svg width="256" height="256" xmlns="http://www.w3.org/2000/svg" version="1.1">
    <polyline stroke="black" stroke-width="3" stroke-linecap="round" fill="transparent" stroke-linejoin="round" points="27 130 47 125 62 119 83 113 101 110 117 107 130 104 135 102 135 102 " />
        <polyline stroke="black" stroke-width="3" stroke-linecap="round" fill="transparent" stroke-linejoin="round" points="68 64 68 73 68 83 66 103 62 129 59 152 58 172 57 187 57 194 57 196 58 196 59 196 66 196 75 191 85 187 93 180 100 173 100 173 " />
        <polyline stroke="black" stroke-width="3" stroke-linecap="round" fill="transparent" stroke-linejoin="round" points="102 72 103 91 103 112 103 136 103 161 103 181 103 195 103 195 " />
        <polyline stroke="black" stroke-width="3" stroke-linecap="round" fill="transparent" stroke-linejoin="round" points="140 121 148 119 150 119 162 119 173 117 187 114 199 110 199 110 " />
        <polyline stroke="black" stroke-width="3" stroke-linecap="round" fill="transparent" stroke-linejoin="round" points="185 56 177 85 175 107 173 130 171 153 169 174 166 194 166 194 " />
        <polyline stroke="black" stroke-width="3" stroke-linecap="round" fill="transparent" stroke-linejoin="round" points="104 198 127 188 147 183 171 181 197 180 223 178 233 178 233 178 " />
        </svg>