<?xml version="1.0" standalone="no"?>
    <svg width="256" height="256" xmlns="http://www.w3.org/2000/svg" version="1.1">
    <polyline stroke="black" stroke-width="3" stroke-linecap="round" fill="transparent" stroke-linejoin="round" points="62.7191162109375 94.6625518798828 64.95632934570313 97.9923858642578 69.50885009765625 103.11721801757813 69.50885009765625 103.11721801757813 " />
        <polyline stroke="black" stroke-width="3" stroke-linecap="round" fill="transparent" stroke-linejoin="round" points="95.08099365234376 85.34939575195313 90.68453979492188 100.28164672851563 86.65231323242188 113.13275146484376 86.65231323242188 113.13275146484376 " />
        <polyline stroke="black" stroke-width="3" stroke-linecap="round" fill="transparent" stroke-linejoin="round" points="65.8148193359375 126.21795654296876 79.42034912109375 120.0005340576172 86.10601806640625 117.19099426269533 93.46804809570313 114.35540771484376 99.919677734375 112.11819458007813 105.27859497070313 110.27116394042967 108.94662475585938 108.86637878417967 111.86019897460938 107.77377319335938 113.96737670898438 107.12342834472656 115.4241943359375 106.86328125 117.40130615234376 106.94132995605467 117.40130615234376 106.94132995605467 " />
        <polyline stroke="black" stroke-width="3" stroke-linecap="round" fill="transparent" stroke-linejoin="round" points="83.76470947265625 65.00617980957031 83.97283935546875 78.09138488769531 83.1663818359375 93.830078125 82.28189086914063 102.9611358642578 80.64300537109375 113.10671997070313 78.90005493164063 124.47502136230467 79.49838256835938 134.4905242919922 77.80740356445313 145.44256591796875 75.20599365234375 157.0449676513672 72.42245483398438 166.930419921875 69.352783203125 174.6306915283203 65.97088623046875 182.0968017578125 62.693115234375 188.60040283203125 60.48187255859375 192.94479370117188 58.764923095703125 195.98846435546875 58.37469482421875 196.742919921875 58.270660400390625 196.95098876953125 57.386138916015625 198.77200317382813 57.386138916015625 198.77200317382813 " />
        <polyline stroke="black" stroke-width="3" stroke-linecap="round" fill="transparent" stroke-linejoin="round" points="95.02896118164063 136.2074737548828 101.27239990234376 143.51754760742188 105.12252807617188 148.35618591308594 107.77593994140624 151.99818420410156 108.40032958984376 152.80462646484375 109.33685302734376 153.84519958496094 111.18386840820313 155.45809936523438 112.45855712890624 156.26454162597656 112.45855712890624 156.26454162597656 " />
        <polyline stroke="black" stroke-width="3" stroke-linecap="round" fill="transparent" stroke-linejoin="round" points="137.22427368164063 120.26066589355467 137.250244140625 130.77049255371094 137.1201171875 141.77455139160156 138.2127685546875 153.2208709716797 137.7705078125 159.8805389404297 140.345947265625 164.79725646972656 142.63522338867188 166.64427185058594 142.63522338867188 166.64427185058594 " />
        <polyline stroke="black" stroke-width="3" stroke-linecap="round" fill="transparent" stroke-linejoin="round" points="143.51971435546875 93.2577667236328 155.7984619140625 88.809326171875 168.7796630859375 85.71360778808594 178.22283935546875 83.55442810058594 186.5994873046875 82.01956176757813 191.23004150390625 80.79690551757813 194.1956787109375 80.61477661132813 196.90118408203125 80.92697143554688 198.59210205078125 81.86347961425781 198.64410400390625 82.669921875 197.91571044921875 86.36396789550781 196.5889892578125 95.07878112792967 195.6524658203125 107.12342834472656 196.06866455078125 123.48646545410156 196.43292236328125 138.5227508544922 197.2913818359375 155.09388732910156 198.2279052734375 161.67552185058594 198.69610595703125 166.6702880859375 198.72216796875 169.5318603515625 198.956298828125 172.39344787597656 199.0343017578125 173.8762664794922 199.0343017578125 174.24046325683594 198.904296875 175.12496948242188 198.8521728515625 175.22900390625 198.5140380859375 175.74929809570313 197.10931396484375 176.63377380371094 196.90118408203125 176.63377380371094 194.84600830078125 176.0094451904297 194.84600830078125 176.0094451904297 " />
        <polyline stroke="black" stroke-width="3" stroke-linecap="round" fill="transparent" stroke-linejoin="round" points="167.21875 126.86833190917967 173.30615234375 131.42083740234375 177.0782470703125 137.30007934570313 179.86181640625 142.19076538085938 179.86181640625 142.19076538085938 " />
        <polyline stroke="black" stroke-width="3" stroke-linecap="round" fill="transparent" stroke-linejoin="round" points="160.24688720703125 165.3955841064453 175.98565673828125 166.7483673095703 191.46417236328125 170.05213928222656 198.80023193359375 172.39344787597656 198.80023193359375 172.39344787597656 " />
        </svg>