<?xml version="1.0" standalone="no"?>
    <svg width="256" height="256" xmlns="http://www.w3.org/2000/svg" version="1.1">
    <polyline stroke="black" stroke-width="3" stroke-linecap="round" fill="transparent" stroke-linejoin="round" points="44.12591552734375 105.50675964355467 44.12591552734375 112.94717407226563 44.480224609375 120.3875732421875 46.606048583984375 132.78823852539063 48.023284912109375 137.3942108154297 51.920623779296875 141.29156494140625 51.920623779296875 141.29156494140625 " />
        <polyline stroke="black" stroke-width="3" stroke-linecap="round" fill="transparent" stroke-linejoin="round" points="103.29486083984376 83.8941650390625 86.996826171875 103.38092041015624 71.05307006835938 115.78160095214844 63.967010498046875 121.4504852294922 51.920623779296875 130.30810546875 44.480224609375 135.97698974609375 40.582855224609375 138.81143188476563 39.51995849609375 140.58294677734375 40.93719482421875 140.58294677734375 52.27490234375 138.10281372070313 72.82464599609375 128.89089965820313 90.53988647460938 117.90744018554688 103.29486083984376 109.40411376953124 109.67233276367188 102.31802368164063 112.15243530273438 97.00344848632813 112.15243530273438 97.00344848632813 " />
        <polyline stroke="black" stroke-width="3" stroke-linecap="round" fill="transparent" stroke-linejoin="round" points="71.76171875 82.47695922851563 63.967010498046875 117.19882202148438 56.17230224609375 149.79489135742188 52.27490234375 163.96707153320313 46.25177001953125 180.61941528320313 42.000091552734375 194.43731689453125 40.22857666015625 199.04327392578125 39.874267578125 199.04327392578125 39.874267578125 199.04327392578125 " />
        <polyline stroke="black" stroke-width="3" stroke-linecap="round" fill="transparent" stroke-linejoin="round" points="67.15573120117188 162.5498504638672 78.49349975585938 169.28164672851563 90.185546875 175.65914916992188 96.208740234375 178.4935760498047 107.5465087890625 180.61941528320313 114.27828979492188 179.55648803710938 114.27828979492188 179.55648803710938 " />
        <polyline stroke="black" stroke-width="3" stroke-linecap="round" fill="transparent" stroke-linejoin="round" points="123.84454345703124 106.92399597167967 124.19882202148438 121.80479431152344 124.90744018554688 135.97698974609375 127.03329467773438 158.29820251464844 128.45050048828125 167.8644256591797 130.57635498046875 179.91079711914063 131.9935302734375 184.87106323242188 132.7021484375 184.87106323242188 132.7021484375 184.87106323242188 " />
        <polyline stroke="black" stroke-width="3" stroke-linecap="round" fill="transparent" stroke-linejoin="round" points="151.8345947265625 70.78489685058594 158.92071533203125 67.59614562988281 166.7154541015625 64.40740966796875 174.5101318359375 62.6358642578125 181.59619140625 60.155731201171875 195.059814453125 59.09281921386719 205.33465576171875 62.99017333984375 214.19232177734375 73.2650146484375 223.40423583984375 95.23193359375 229.0731201171875 120.03326416015624 230.8446044921875 138.45712280273438 229.78167724609375 150.50347900390625 225.8843994140625 158.29820251464844 222.34130859375 161.4869384765625 222.34130859375 161.4869384765625 " />
        <polyline stroke="black" stroke-width="3" stroke-linecap="round" fill="transparent" stroke-linejoin="round" points="154.6690673828125 103.73526000976563 158.56640625 108.69549560546876 162.1094970703125 112.94717407226563 166.361083984375 118.61605834960938 170.61279296875 124.9935302734375 170.61279296875 124.9935302734375 " />
        <polyline stroke="black" stroke-width="3" stroke-linecap="round" fill="transparent" stroke-linejoin="round" points="133.76507568359375 167.15582275390625 143.331298828125 166.0928955078125 154.31475830078125 165.38430786132813 176.28167724609375 163.2584686279297 203.2088623046875 160.7783203125 209.5863037109375 160.06973266601563 219.5068359375 161.84124755859375 221.27838134765625 162.5498504638672 221.27838134765625 162.5498504638672 " />
        </svg>