<?xml version="1.0" standalone="no"?>
    <svg width="256" height="256" xmlns="http://www.w3.org/2000/svg" version="1.1">
    <polyline stroke="black" stroke-width="3" stroke-linecap="round" fill="transparent" stroke-linejoin="round" points="58.22918701171875 95.26164245605467 59.553070068359375 100.11593627929688 62.20086669921875 107.61801147460938 63.083465576171875 110.26579284667967 63.083465576171875 110.26579284667967 " />
        <polyline stroke="black" stroke-width="3" stroke-linecap="round" fill="transparent" stroke-linejoin="round" points="125.30657958984376 65.69464111328125 108.095947265625 85.11177062988281 96.62216186523438 97.02684020996094 61.75958251953125 128.3590545654297 54.25750732421875 134.09593200683594 44.990234375 140.71539306640625 41.459808349609375 142.9219207763672 41.459808349609375 142.4805908203125 49.844482421875 138.5089111328125 65.73126220703125 131.88943481445313 74.11593627929688 129.24163818359375 98.82867431640624 122.62216186523438 116.039306640625 117.32658386230467 124.86532592773438 112.91360473632813 124.86532592773438 112.91360473632813 " />
        <polyline stroke="black" stroke-width="3" stroke-linecap="round" fill="transparent" stroke-linejoin="round" points="87.35491943359375 78.05099487304688 82.94189453125 91.28994750976563 72.35076904296875 121.73956298828124 66.17254638671875 139.39151000976563 60.4356689453125 154.83697509765625 50.72711181640625 180.4322967529297 45.4315185546875 194.112548828125 44.548919677734375 197.20166015625 44.548919677734375 197.20166015625 " />
        <polyline stroke="black" stroke-width="3" stroke-linecap="round" fill="transparent" stroke-linejoin="round" points="86.91357421875 149.10008239746094 91.32659912109376 155.27825927734375 109.41986083984376 182.19747924804688 113.39154052734376 186.169189453125 113.39154052734376 186.169189453125 " />
        <polyline stroke="black" stroke-width="3" stroke-linecap="round" fill="transparent" stroke-linejoin="round" points="136.78036499023438 99.23333740234376 135.45648193359375 109.8245086669922 134.132568359375 121.73956298828124 131.48480224609375 147.3348846435547 129.27825927734375 168.075927734375 127.954345703125 183.080078125 127.51312255859376 187.0517578125 127.51312255859376 187.0517578125 " />
        <polyline stroke="black" stroke-width="3" stroke-linecap="round" fill="transparent" stroke-linejoin="round" points="150.019287109375 93.05514526367188 155.7562255859375 91.28994750976563 161.93438720703125 89.52476501464844 174.290771484375 86.87696838378906 184.44061279296875 85.99436950683594 188.41229248046875 86.4356689453125 195.47308349609375 89.52476501464844 201.2099609375 96.58554077148438 206.94683837890625 113.35488891601563 208.270751953125 136.30242919921875 205.6229248046875 158.80865478515625 200.7686767578125 177.78448486328125 194.149169921875 191.90606689453125 194.149169921875 191.90606689453125 " />
        <polyline stroke="black" stroke-width="3" stroke-linecap="round" fill="transparent" stroke-linejoin="round" points="179.14501953125 148.65878295898438 183.11669921875 160.13255310058594 183.999267578125 163.66294860839844 183.999267578125 163.66294860839844 " />
        <polyline stroke="black" stroke-width="3" stroke-linecap="round" fill="transparent" stroke-linejoin="round" points="138.98681640625 185.28656005859375 145.1650390625 185.72787475585935 150.90191650390625 186.169189453125 162.8170166015625 187.0517578125 168.112548828125 187.4930725097656 172.52557373046875 187.93438720703125 179.5863037109375 189.6995849609375 184.44061279296875 193.22994995117188 184.44061279296875 193.22994995117188 " />
        </svg>