<?xml version="1.0" standalone="no"?>
    <svg width="256" height="256" xmlns="http://www.w3.org/2000/svg" version="1.1">
    <polyline stroke="black" stroke-width="3" stroke-linecap="round" fill="transparent" stroke-linejoin="round" points="23.655385785252633 113.78265701633438 24.930650009472288 115.3767372966089 30.031706906350564 115.69555335266378 33.53868352295444 116.01436940871866 38.002108307723006 116.01436940871866 48.8418542135895 116.01436940871866 61.594496455785475 112.5073927921148 74.02832264192637 108.68160011945604 84.23043643568315 106.76870378312664 93.15728600522029 105.49343955890708 96.66426262182416 105.49343955890708 96.66426262182416 105.49343955890708 " />
        <polyline stroke="black" stroke-width="3" stroke-linecap="round" fill="transparent" stroke-linejoin="round" points="30.66933901846039 144.0701823415496 32.2634192987349 144.7078144536594 38.63974041983283 144.7078144536594 47.2477739333151 144.7078144536594 58.72515195129131 144.7078144536594 70.20252996926763 143.75136628549473 80.08582770696944 139.92557361283596 88.37504516439674 137.69386122045168 88.37504516439674 137.69386122045168 " />
        <polyline stroke="black" stroke-width="3" stroke-linecap="round" fill="transparent" stroke-linejoin="round" points="34.8139477471741 183.9221893484117 37.68329225166815 184.55982146052156 46.291325765150305 184.55982146052156 60.63804828762068 182.32810906813728 76.57885109036556 179.4587645636432 91.88202178100062 176.27060400309423 105.59111219136128 171.48836316227076 114.51796176089827 166.38730626539245 114.51796176089827 166.38730626539245 " />
        <polyline stroke="black" stroke-width="3" stroke-linecap="round" fill="transparent" stroke-linejoin="round" points="65.42028912844421 61.81563987938617 64.78265701633438 65.64143255204493 64.78265701633438 77.11881057002122 64.78265701633438 85.72684408350347 64.78265701633438 96.24777393331505 64.78265701633438 118.24608180110296 67.01436940871872 141.83846994916533 70.20252996926763 163.83677781695323 73.70950658587151 181.05284484391768 76.2600350343107 195.71838342244297 77.53529925853024 206.23931327225455 77.85411531458521 213.2532665054623 77.85411531458521 213.2532665054623 " />
        <polyline stroke="black" stroke-width="3" stroke-linecap="round" fill="transparent" stroke-linejoin="round" points="135.87863751657642 88.59618858799752 144.4866710300587 87.32092436377795 149.90654398299193 87.00210830772303 155.64523299198004 86.36447619561324 169.03550734628573 84.77039591533875 181.7881495884816 83.49513169111918 193.90315971856776 82.53868352295447 204.74290562443423 82.53868352295447 204.74290562443423 82.53868352295447 " />
        <polyline stroke="black" stroke-width="3" stroke-linecap="round" fill="transparent" stroke-linejoin="round" points="153.4135205995958 90.190268868272 154.05115271170553 95.92895787726016 152.45707243143113 109.63804828762072 148.63127975877228 128.44819559485967 145.44311919822337 144.7078144536594 144.16785497400372 157.1416406398004 143.84903891794886 167.02493837750222 143.84903891794886 173.40125949860015 145.44311919822337 178.50231639547852 148.31246370271742 180.41521273180788 152.45707243143113 180.7340287878628 159.4710256646389 177.22705217125892 168.07905917812104 171.80717921832567 176.6870926916033 167.3437544335571 181.15051747637187 165.74967415328263 181.15051747637187 165.74967415328263 " />
        <polyline stroke="black" stroke-width="3" stroke-linecap="round" fill="transparent" stroke-linejoin="round" points="149.2689118708821 138.65030938861636 153.73233665565067 136.41859699623208 163.29681833729762 132.91162037962823 169.3543234023407 131.31754009935375 174.13656424316412 130.04227587513415 183.06341381270124 129.72345981907924 188.16447070957952 130.04227587513415 190.077367045909 134.8245167159576 190.39618310196383 142.47610206127513 189.43973493379917 153.95348007925142 185.61394226114044 167.662570489612 184.01986198086593 179.4587645636432 184.01986198086593 189.9796944134548 184.01986198086593 201.45707243143107 184.9763101490306 211.02155411307805 188.80210282168937 217.07905917812104 193.90315971856776 220.58603579472492 200.9171129517755 222.18011607499943 209.2063304092028 222.4989321310543 218.13317997873992 222.4989321310543 225.46594926800253 222.4989321310543 229.29174194066127 220.90485185077983 230.24819010882595 218.35432340234064 230.24819010882595 212.2968183372976 228.9729258846064 204.3264169359252 225.46594926800253 196.99364764666257 221.95897265139865 189.6608783573999 221.32134053928883 184.87863751657648 221.32134053928883 184.87863751657648 " />
        </svg>