<?xml version="1.0" standalone="no"?>
    <svg width="256" height="256" xmlns="http://www.w3.org/2000/svg" version="1.1">
    <polyline stroke="black" stroke-width="3" stroke-linecap="round" fill="transparent" stroke-linejoin="round" points="69.08743286132813 88.82484436035156 80.80584716796875 83.97586059570313 92.52426147460938 79.12687683105469 103.83856201171876 74.68196105957031 126.4671630859375 68.21664428710938 138.185546875 65.3880615234375 160.41009521484375 61.34724426269531 178.9979248046875 58.51866149902344 192.3326416015625 55.690086364746094 200.414306640625 52.86150360107422 200.414306640625 52.86150360107422 " />
        <polyline stroke="black" stroke-width="3" stroke-linecap="round" fill="transparent" stroke-linejoin="round" points="108.28335571289063 48.8206787109375 108.6875 53.66967010498047 109.09164428710938 58.51866149902344 109.89974975585938 64.17581176757813 113.94061279296876 77.91462707519531 117.57733154296876 82.35952758789063 125.65902709960938 83.57179260253906 138.589599609375 76.70237731933594 151.520263671875 63.771728515625 160.814208984375 53.265586853027344 166.0672607421875 47.608428955078125 168.8958740234375 45.18394470214844 170.10809326171875 44.77986145019531 169.7039794921875 47.204345703125 161.622314453125 62.96357727050781 143.43865966796875 88.4207763671875 134.548828125 100.5432586669922 134.548828125 100.5432586669922 " />
        <polyline stroke="black" stroke-width="3" stroke-linecap="round" fill="transparent" stroke-linejoin="round" points="74.34048461914063 143.37599182128906 82.01806640625 138.1229248046875 89.69564819335938 132.86985778808594 98.181396484375 127.61679077148438 114.748779296875 117.91879272460938 131.316162109375 110.24124145507813 146.67132568359375 104.9881591796875 160.00604248046875 101.35140991210938 165.25909423828125 100.5432586669922 174.552978515625 99.73509216308594 175.7652587890625 102.56365966796876 165.6632080078125 115.49430847167967 145.86312866210938 132.0616912841797 134.548828125 140.14334106445313 134.548828125 140.14334106445313 " />
        <polyline stroke="black" stroke-width="3" stroke-linecap="round" fill="transparent" stroke-linejoin="round" points="92.12017822265625 157.51889038085938 97.77731323242188 155.09439086914063 103.4344482421875 152.66989135742188 120.40594482421876 147.0127410888672 129.69979858398438 144.99234008789063 137.37738037109375 143.7800750732422 143.0345458984375 142.56784057617188 143.0345458984375 142.56784057617188 " />
        <polyline stroke="black" stroke-width="3" stroke-linecap="round" fill="transparent" stroke-linejoin="round" points="115.15289306640629 156.30665588378906 110.30389404296876 162.36788940429688 105.45489501953124 168.4291229248047 101.4140625 174.89443969726563 96.96917724609376 185.8046875 96.56503295898438 190.24957275390625 100.60589599609376 196.71490478515625 106.26303100585938 199.94757080078125 124.850830078125 204.3924560546875 144.65087890625 204.79653930664065 161.21826171875 202.776123046875 174.552978515625 199.139404296875 183.846923828125 194.2904052734375 189.5040283203125 188.22915649414065 193.14080810546875 179.33934020996094 193.14080810546875 179.33934020996094 " />
        </svg>