<?xml version="1.0" standalone="no"?>
    <svg width="256" height="256" xmlns="http://www.w3.org/2000/svg" version="1.1">
    <polyline stroke="black" stroke-width="3" stroke-linecap="round" fill="transparent" stroke-linejoin="round" points="109.5650634765625 51.535186767578125 109.5650634765625 64.53889465332031 109.5650634765625 77.5426025390625 109.5650634765625 92.17176818847656 109.15869140625 109.64549255371094 107.9395751953125 142.56112670898438 107.533203125 169.3812713623047 107.533203125 187.667724609375 107.533203125 199.04595947265625 107.533203125 205.14144897460935 107.533203125 205.14144897460935 " />
        <polyline stroke="black" stroke-width="3" stroke-linecap="round" fill="transparent" stroke-linejoin="round" points="117.28604125976563 122.64920043945311 125.413330078125 117.77281188964844 133.54061889648438 112.89642333984376 142.480712890625 108.4263916015625 150.60800170898438 105.5818328857422 157.10986328125 104.36273193359376 158.3289794921875 104.36273193359376 158.3289794921875 104.36273193359376 " />
        <polyline stroke="black" stroke-width="3" stroke-linecap="round" fill="transparent" stroke-linejoin="round" points="127.038818359375 158.40939331054688 132.7279052734375 156.78392028808594 138.4169921875 155.158447265625 148.98251342773438 151.90753173828125 158.7353515625 147.8438720703125 168.48809814453125 140.529296875 173.7708740234375 133.62107849121094 173.7708740234375 133.62107849121094 " />
        <polyline stroke="black" stroke-width="3" stroke-linecap="round" fill="transparent" stroke-linejoin="round" points="170.9263916015625 53.16065979003906 170.51995849609375 65.75799560546875 170.113525390625 78.35533142089844 170.113525390625 93.390869140625 170.113525390625 144.5929412841797 170.113525390625 159.22210693359375 170.51995849609375 187.2613525390625 170.92626953125 200.26507568359375 170.92626953125 200.26507568359375 " />
        </svg>