<?xml version="1.0" standalone="no"?>
    <svg width="256" height="256" xmlns="http://www.w3.org/2000/svg" version="1.1">
    <polyline stroke="black" stroke-width="3" stroke-linecap="round" fill="transparent" stroke-linejoin="round" points="81.08740234375 77.4251708984375 79.76116943359375 88.47732543945313 76.66650390625 110.13955688476563 73.12985229492188 138.43307495117188 70.03524780273438 167.16867065429688 67.82479858398438 193.25177001953125 66.94064331054688 213.58773803710935 66.05645751953125 228.61865234375 66.05645751953125 237.018310546875 65.61434936523438 239.22872924804688 65.61434936523438 239.22872924804688 " />
        <polyline stroke="black" stroke-width="3" stroke-linecap="round" fill="transparent" stroke-linejoin="round" points="78.876953125 108.37120056152344 95.234130859375 107.04495239257813 107.17050170898438 107.04495239257813 118.22265625 107.48704528808594 129.71688842773438 107.48704528808594 139.88485717773438 107.48704528808594 141.6531982421875 107.92910766601563 141.6531982421875 107.92910766601563 " />
        <polyline stroke="black" stroke-width="3" stroke-linecap="round" fill="transparent" stroke-linejoin="round" points="61.635589599609375 177.7787322998047 77.99276733398438 178.2208251953125 91.69744873046876 178.66290283203125 112.033447265625 176.01040649414063 123.96978759765624 171.58953857421875 130.60107421875 166.72659301757813 130.60107421875 166.72659301757813 " />
        <polyline stroke="black" stroke-width="3" stroke-linecap="round" fill="transparent" stroke-linejoin="round" points="141.6531982421875 57.089202880859375 142.09530639648438 73.88847351074219 142.97946166992188 99.9715576171875 143.42156982421875 130.4755096435547 144.30575561523438 160.97946166992188 144.30575561523438 185.29421997070313 143.86361694335938 205.1881103515625 142.09530639648438 222.429443359375 140.76904296875 234.36578369140625 140.76904296875 234.36578369140625 " />
        </svg>