<?xml version="1.0" standalone="no"?>
    <svg width="256" height="256" xmlns="http://www.w3.org/2000/svg" version="1.1">
    <polyline stroke="black" stroke-width="3" stroke-linecap="round" fill="transparent" stroke-linejoin="round" points="85.561767578125 52.06561279296875 86.92559814453125 61.612640380859375 88.2894287109375 71.15966796875 89.65328979492188 84.11636352539063 92.0400390625 127.0780029296875 92.38104248046876 168.33480834960938 92.0400390625 204.13616943359375 90.67620849609376 226.2989501953125 89.31234741210938 235.5050048828125 89.31234741210938 235.5050048828125 " />
        <polyline stroke="black" stroke-width="3" stroke-linecap="round" fill="transparent" stroke-linejoin="round" points="94.76776123046875 135.943115234375 100.56417846679688 132.533447265625 106.360595703125 129.123779296875 111.47509765625 126.39605712890624 123.06787109375 121.62255859375 125.11370849609376 120.94061279296876 125.11370849609376 120.94061279296876 " />
        <polyline stroke="black" stroke-width="3" stroke-linecap="round" fill="transparent" stroke-linejoin="round" points="86.92556762695313 162.53839111328125 95.44970703125 162.1974334716797 103.97384643554688 161.85647583007813 113.17990112304688 161.17454528808594 139.43426513671875 149.5817108154297 139.43426513671875 149.5817108154297 " />
        <polyline stroke="black" stroke-width="3" stroke-linecap="round" fill="transparent" stroke-linejoin="round" points="127.8414306640625 47.633056640625 132.61492919921875 86.50311279296875 137.388427734375 125.3731689453125 143.52581787109375 167.99383544921875 152.73187255859375 229.36764526367188 156.14154052734375 247.09783935546875 156.14154052734375 247.09783935546875 " />
        </svg>