<?xml version="1.0" standalone="no"?>
    <svg width="256" height="256" xmlns="http://www.w3.org/2000/svg" version="1.1">
    <polyline stroke="black" stroke-width="3" stroke-linecap="round" fill="transparent" stroke-linejoin="round" points="76.7333984375 88.80000305175781 91.666748046875 84.53335571289063 98.06671142578124 82.40000915527344 103.4000244140625 80.26667785644531 104.466796875 80.26667785644531 105.53338623046876 81.33334350585938 105.53338623046876 81.33334350585938 " />
        <polyline stroke="black" stroke-width="3" stroke-linecap="round" fill="transparent" stroke-linejoin="round" points="66.06671142578125 136.80001831054688 85.2667236328125 130.40003967285156 95.93341064453124 126.1333465576172 101.2667236328125 125.06671142578124 104.466796875 124.00001525878906 103.4000244140625 124.00001525878906 103.4000244140625 124.00001525878906 " />
        <polyline stroke="black" stroke-width="3" stroke-linecap="round" fill="transparent" stroke-linejoin="round" points="57.53338623046875 143.20001220703125 55.4000244140625 169.86668395996094 53.2667236328125 197.6000061035156 52.2000732421875 206.13336181640625 52.2000732421875 208.2666931152344 51.1334228515625 209.33334350585935 51.1334228515625 208.2666931152344 52.2000732421875 205.06671142578125 55.4000244140625 199.73336791992188 61.80010986328125 193.33334350585935 76.7333984375 183.73336791992188 103.4000244140625 168.80001831054688 111.93341064453124 165.6000213623047 116.2000732421875 163.4666748046875 116.2000732421875 163.4666748046875 " />
        <polyline stroke="black" stroke-width="3" stroke-linecap="round" fill="transparent" stroke-linejoin="round" points="149.2667236328125 78.13334655761719 154.60009765625 78.13334655761719 167.4000244140625 77.06668090820313 178.0667724609375 76.00001525878906 185.533447265625 76.00001525878906 189.8001708984375 76.00001525878906 189.8001708984375 77.06668090820313 186.60009765625 86.66667175292969 181.2667236328125 112.26667785644533 177 142.1333465576172 175.933349609375 165.6000213623047 175.933349609375 181.60003662109375 178.0667724609375 185.86666870117188 180.2000732421875 185.86666870117188 181.2667236328125 181.60003662109375 181.2667236328125 181.60003662109375 " />
        <polyline stroke="black" stroke-width="3" stroke-linecap="round" fill="transparent" stroke-linejoin="round" points="157.8001708984375 137.86668395996094 178.0667724609375 136.80001831054688 178.0667724609375 138.93336486816406 178.0667724609375 140.00001525878906 178.0667724609375 140.00001525878906 " />
        <polyline stroke="black" stroke-width="3" stroke-linecap="round" fill="transparent" stroke-linejoin="round" points="146.0667724609375 186.933349609375 163.1334228515625 186.933349609375 171.666748046875 189.06671142578125 171.666748046875 189.06671142578125 " />
        </svg>