<?xml version="1.0" standalone="no"?>
    <svg width="256" height="256" xmlns="http://www.w3.org/2000/svg" version="1.1">
    <polyline stroke="black" stroke-width="3" stroke-linecap="round" fill="transparent" stroke-linejoin="round" points="85.01400756835938 90.16520690917967 99.1607666015625 83.53390502929688 111.09710693359376 78.67095947265625 119.93881225585938 75.57635498046875 125.24386596679688 73.36593627929688 125.24386596679688 73.36593627929688 " />
        <polyline stroke="black" stroke-width="3" stroke-linecap="round" fill="transparent" stroke-linejoin="round" points="80.15106201171875 118.90081787109376 76.61434936523438 129.51089477539063 69.098876953125 160.89901733398438 68.2147216796875 175.929931640625 70.86724853515625 188.308349609375 73.96185302734375 191.4029541015625 79.708984375 192.28713989257813 86.34027099609375 188.75045776367188 94.29782104492188 179.90872192382813 94.29782104492188 179.90872192382813 " />
        <polyline stroke="black" stroke-width="3" stroke-linecap="round" fill="transparent" stroke-linejoin="round" points="99.1607666015625 136.14218139648438 110.212890625 131.2792205810547 116.40216064453124 127.7425537109375 135.85394287109375 115.36412048339844 135.85394287109375 115.36412048339844 " />
        <polyline stroke="black" stroke-width="3" stroke-linecap="round" fill="transparent" stroke-linejoin="round" points="199.9564208984375 72.0396728515625 203.93524169921875 73.80801391601563 211.00860595703125 79.11305236816406 218.08197021484375 90.6072998046875 222.50286865234375 110.94326782226563 220.7344970703125 135.70010375976563 212.7769775390625 157.80441284179688 202.6090087890625 176.81411743164063 192.883056640625 188.75045776367188 187.13592529296875 193.6134033203125 187.13592529296875 193.6134033203125 " />
        <polyline stroke="black" stroke-width="3" stroke-linecap="round" fill="transparent" stroke-linejoin="round" points="183.15716552734375 132.16339111328125 187.13592529296875 131.2792205810547 190.672607421875 130.3950653076172 195.53558349609375 129.95297241210938 197.74603271484375 130.83714294433594 197.74603271484375 130.83714294433594 " />
        <polyline stroke="black" stroke-width="3" stroke-linecap="round" fill="transparent" stroke-linejoin="round" points="154.8636474609375 177.25621032714844 159.7265625 175.48785400390625 164.1474609375 174.16160583496094 174.75750732421875 174.6036834716797 174.75750732421875 174.6036834716797 " />
        </svg>