<?xml version="1.0" standalone="no"?>
    <svg width="256" height="256" xmlns="http://www.w3.org/2000/svg" version="1.1">
    <polyline stroke="black" stroke-width="3" stroke-linecap="round" fill="transparent" stroke-linejoin="round" points="27.395599365234375 80.86468505859375 32.292510986328125 91.27059936523438 36.577301025390625 99.2280731201172 42.698455810546875 106.5734405517578 50.0438232421875 112.694580078125 60.449737548828125 113.91880798339844 72.6920166015625 109.02189636230467 86.77059936523438 97.39173889160156 99.01287841796876 82.70101928710938 105.13400268554688 75.9677734375 109.4188232421875 72.90721130371094 111.255126953125 72.90721130371094 108.80670166015624 80.2525634765625 91.055419921875 107.79766845703124 69.63143920898438 133.5064239501953 51.880126953125 151.8698272705078 39.0257568359375 161.66363525390625 33.516754150390625 165.33631896972656 30.4561767578125 165.33631896972656 30.4561767578125 162.2757568359375 36.577301025390625 156.76673889160156 49.43170166015625 148.80926513671875 65.34661865234375 142.68812561035156 80.037353515625 136.56700134277344 91.66751098632813 131.05796813964844 100.23712158203124 123.71261596679688 112.4793701171875 102.9007568359375 112.4793701171875 102.9007568359375 " />
        <polyline stroke="black" stroke-width="3" stroke-linecap="round" fill="transparent" stroke-linejoin="round" points="75.7525634765625 51.48323822021485 70.85565185546875 72.90721130371094 58.6134033203125 122.48838806152344 48.819580078125 156.76673889160156 40.25 192.88140869140625 35.35308837890625 208.79635620117188 32.292510986328125 217.365966796875 31.06829833984375 219.81442260742188 31.06829833984375 219.81442260742188 " />
        <polyline stroke="black" stroke-width="3" stroke-linecap="round" fill="transparent" stroke-linejoin="round" points="59.22552490234375 172.06956481933594 70.2435302734375 178.8028106689453 78.20101928710938 185.53607177734375 86.15850830078125 192.88140869140625 94.72808837890624 199.61468505859375 102.685546875 202.67523193359375 111.255126953125 199.61468505859375 111.255126953125 199.61468505859375 " />
        <polyline stroke="black" stroke-width="3" stroke-linecap="round" fill="transparent" stroke-linejoin="round" points="134.51544189453125 68.62240600585938 129.00640869140625 90.04638671875 117.37628173828124 142.07601928710938 111.255126953125 170.8453369140625 105.13400268554688 193.4935302734375 100.84921264648438 206.34793090820313 97.78863525390624 211.24481201171875 97.78863525390624 208.79635620117188 97.78863525390624 208.79635620117188 " />
        <polyline stroke="black" stroke-width="3" stroke-linecap="round" fill="transparent" stroke-linejoin="round" points="117.9884033203125 157.37884521484375 133.9033203125 162.2757568359375 143.08502197265625 166.560546875 152.87884521484375 170.8453369140625 163.2847900390625 172.06956481933594 163.2847900390625 172.06956481933594 " />
        <polyline stroke="black" stroke-width="3" stroke-linecap="round" fill="transparent" stroke-linejoin="round" points="184.09661865234375 65.56184387207031 179.19970703125 80.86468505859375 165.73321533203125 126.77317810058594 158.38787841796875 150.0334930419922 150.43038940429688 172.6816864013672 144.92138671875 188.59661865234375 141.24868774414063 197.16622924804688 140.02447509765625 201.45101928710935 141.24868774414063 197.16622924804688 149.2061767578125 180.63916015625 157.16363525390625 164.72421264648438 162.060546875 158.6030731201172 168.18170166015625 156.1546173095703 176.13916015625 156.76673889160156 187.769287109375 162.2757568359375 202.46002197265625 170.8453369140625 215.314453125 180.63916015625 233.065673828125 199.0025634765625 233.065673828125 199.0025634765625 " />
        </svg>