<?xml version="1.0" standalone="no"?>
    <svg width="256" height="256" xmlns="http://www.w3.org/2000/svg" version="1.1">
    <polyline stroke="black" stroke-width="3" stroke-linecap="round" fill="transparent" stroke-linejoin="round" points="37.36212158203125 97.39173889160156 37.974212646484375 110.85823059082033 39.198455810546875 122.48838806152344 42.259002685546875 129.2216339111328 47.768035888671875 131.05796813964844 53.88916015625 126.77317810058594 67.35565185546875 113.91880798339844 67.35565185546875 113.91880798339844 " />
        <polyline stroke="black" stroke-width="3" stroke-linecap="round" fill="transparent" stroke-linejoin="round" points="103.4703369140625 65.56184387207031 105.30670166015624 82.08891296386719 91.8402099609375 106.5734405517578 72.2525634765625 132.28219604492188 57.56182861328125 147.5850372314453 45.319580078125 156.76673889160156 36.13787841796875 160.43942260742188 31.85308837890625 161.66363525390625 31.85308837890625 159.21519470214844 37.36212158203125 153.09405517578125 50.82861328125 142.07601928710938 69.80410766601563 128.60952758789063 88.77963256835938 116.36724853515624 108.36724853515624 99.84019470214844 108.36724853515624 99.84019470214844 " />
        <polyline stroke="black" stroke-width="3" stroke-linecap="round" fill="transparent" stroke-linejoin="round" points="87.555419921875 75.9677734375 77.7615966796875 100.45230102539063 64.29510498046875 142.07601928710938 52.052825927734375 186.76028442382813 46.5438232421875 203.89947509765625 41.64691162109375 217.365966796875 39.198455810546875 224.0992126464844 37.974212646484375 224.0992126464844 37.974212646484375 224.0992126464844 " />
        <polyline stroke="black" stroke-width="3" stroke-linecap="round" fill="transparent" stroke-linejoin="round" points="68.57989501953125 153.09405517578125 82.04638671875 162.8878631591797 91.8402099609375 170.8453369140625 102.24612426757813 178.8028106689453 112.0399169921875 184.31182861328125 112.0399169921875 184.31182861328125 " />
        <polyline stroke="black" stroke-width="3" stroke-linecap="round" fill="transparent" stroke-linejoin="round" points="145.09405517578125 60.66493225097656 137.74868774414063 86.37370300292969 129.79119873046875 122.48838806152344 124.89431762695313 140.2396697998047 119.38531494140624 159.21519470214844 115.10049438476563 173.90591430664063 111.42782592773438 185.53607177734375 111.42782592773438 185.53607177734375 " />
        <polyline stroke="black" stroke-width="3" stroke-linecap="round" fill="transparent" stroke-linejoin="round" points="123.67010498046876 140.2396697998047 139.58502197265625 144.52447509765625 149.37884521484375 148.1971435546875 159.7847900390625 151.8698272705078 172.63916015625 148.1971435546875 172.63916015625 148.1971435546875 " />
        <polyline stroke="black" stroke-width="3" stroke-linecap="round" fill="transparent" stroke-linejoin="round" points="192.8388671875 47.81055450439453 190.39044189453125 60.052825927734375 183.0450439453125 94.3311767578125 174.4754638671875 127.99740600585938 165.9058837890625 157.37884521484375 161.009033203125 174.5180206298828 156.112060546875 189.82086181640625 151.8272705078125 198.39044189453125 151.8272705078125 198.39044189453125 " />
        <polyline stroke="black" stroke-width="3" stroke-linecap="round" fill="transparent" stroke-linejoin="round" points="180.59661865234375 151.25772094726563 195.287353515625 161.05152893066406 204.46905517578125 168.3968963623047 213.6507568359375 175.74224853515625 221.60821533203125 185.53607177734375 221.60821533203125 185.53607177734375 " />
        </svg>