<?xml version="1.0" standalone="no"?>
    <svg width="256" height="256" xmlns="http://www.w3.org/2000/svg" version="1.1">
    <polyline stroke="black" stroke-width="3" stroke-linecap="round" fill="transparent" stroke-linejoin="round" points="45.42266845703125 95.55540466308594 65.62240600585938 85.14947509765625 78.476806640625 78.41622924804688 93.16751098632813 71.6829833984375 105.4097900390625 64.94973754882813 114.59149169921876 60.66493225097656 120.71261596679688 57.6043701171875 123.16107177734376 56.38014221191406 121.32470703125 58.21649169921875 115.81570434570313 63.72550964355469 103.57342529296876 77.19200134277344 85.8221435546875 100.45230102539063 70.51931762695313 126.77317810058594 60.72552490234375 146.97291564941406 55.82861328125 155.54251098632813 53.380126953125 160.43942260742188 54.6043701171875 161.66363525390625 60.72552490234375 154.93038940429688 79.70101928710938 136.56700134277344 100.51287841796876 120.03993225097656 112.14300537109376 115.75514221191406 121.32470703125 117.59147644042967 126.22161865234376 125.5489501953125 127.44586181640624 156.1546173095703 119.4884033203125 180.02703857421875 110.30670166015624 194.7177734375 99.9007568359375 201.45101928710935 89.49481201171875 204.51156616210935 82.7615966796875 200.83889770507813 82.7615966796875 200.83889770507813 " />
        <polyline stroke="black" stroke-width="3" stroke-linecap="round" fill="transparent" stroke-linejoin="round" points="135.4033203125 82.70101928710938 154.37884521484375 75.35565185546875 167.23321533203125 70.45875549316406 178.8634033203125 64.94973754882813 189.88140869140625 59.440704345703125 196.61468505859375 56.38014221191406 200.287353515625 55.155914306640625 200.287353515625 58.21649169921875 196.0025634765625 66.17396545410156 184.9844970703125 82.08891296386719 172.74224853515625 101.06442260742188 159.2757568359375 123.71261596679688 147.03350830078125 146.97291564941406 136.6275634765625 169.00900268554688 128.0579833984375 183.69973754882813 123.773193359375 191.04507446289065 121.32470703125 195.32986450195313 121.32470703125 193.4935302734375 129.28219604492188 180.63916015625 145.1971435546875 154.93038940429688 156.8272705078125 141.46389770507813 169.069580078125 131.05796813964844 179.4754638671875 124.32472229003906 188.0450439453125 121.26416015625 194.7783203125 121.26416015625 197.8388671875 125.5489501953125 198.4510498046875 143.912353515625 195.39044189453125 166.560546875 194.166259765625 181.2512664794922 196.0025634765625 190.4329833984375 200.287353515625 196.5541076660156 206.408447265625 200.83889770507813 213.75384521484375 200.83889770507813 222.32342529296875 195.32986450195313 228.444580078125 187.98452758789065 233.3414306640625 175.74224853515625 233.3414306640625 175.74224853515625 " />
        </svg>