<?xml version="1.0" standalone="no"?>
    <svg width="256" height="256" xmlns="http://www.w3.org/2000/svg" version="1.1">
    <polyline stroke="black" stroke-width="3" stroke-linecap="round" fill="transparent" stroke-linejoin="round" points="39.412139892578125 92.65643310546876 63.845001220703125 72.82684326171875 78.71719360351563 63.266143798828125 91.81890869140624 57.24644470214844 100.31732177734376 55.830047607421875 106.69110107421876 56.89234924316406 106.69110107421876 56.89234924316406 " />
        <polyline stroke="black" stroke-width="3" stroke-linecap="round" fill="transparent" stroke-linejoin="round" points="65.96963500976563 132.31561279296875 89.34017944335938 122.75491333007813 98.19271850585938 123.10902404785156 102.7960205078125 127.00411987304688 108.81570434570313 147.18780517578125 105.27471923828124 171.6206817626953 99.25497436523438 189.32568359375 92.52713012695313 199.5946044921875 83.32052612304688 202.78146362304688 73.40573120117188 190.7420959472656 73.40573120117188 190.7420959472656 " />
        <polyline stroke="black" stroke-width="3" stroke-linecap="round" fill="transparent" stroke-linejoin="round" points="62.4285888671875 91.5941162109375 55.34661865234375 120.27621459960938 47.556427001953125 147.89601135253906 39.412139892578125 171.26658630371094 33.74652099609375 182.59779357910156 30.205535888671875 189.6797790527344 28.78912353515625 191.80438232421875 28.78912353515625 191.80438232421875 " />
        <polyline stroke="black" stroke-width="3" stroke-linecap="round" fill="transparent" stroke-linejoin="round" points="115.54360961914063 88.76132202148438 136.78958129882813 73.88912963867188 152.3699951171875 67.86943054199219 168.304443359375 63.6202392578125 174.32421875 61.495635986328125 174.32421875 61.495635986328125 " />
        <polyline stroke="black" stroke-width="3" stroke-linecap="round" fill="transparent" stroke-linejoin="round" points="148.12081909179688 80.262939453125 138.9141845703125 106.11221313476563 131.47808837890625 137.27301025390625 126.52069091796876 165.95509338378906 122.62557983398438 190.38796997070313 121.56329345703124 197.469970703125 121.20919799804688 201.010986328125 121.20919799804688 201.010986328125 " />
        <polyline stroke="black" stroke-width="3" stroke-linecap="round" fill="transparent" stroke-linejoin="round" points="137.85186767578125 128.7746124267578 153.4322509765625 113.90242004394533 165.8258056640625 107.52862548828124 175.03240966796875 103.98762512207033 181.76025390625 102.21713256835938 188.4881591796875 101.5089111328125 192.38330078125 102.5712432861328 194.15374755859375 106.11221313476563 192.73736572265625 117.79751586914063 187.77996826171875 139.751708984375 183.53076171875 158.5189971923828 181.05206298828125 176.22398376464844 181.40618896484375 188.9715881347656 185.6553955078125 197.469970703125 192.38330078125 201.71917724609375 202.65216064453125 205.2601623535156 210.7965087890625 206.32247924804688 217.17022705078125 206.32247924804688 223.18994140625 204.90603637695313 227.793212890625 202.4273681640625 228.50146484375 201.3651123046875 228.85552978515625 200.65689086914065 224.6063232421875 193.57489013671875 219.64892578125 185.78469848632813 213.275146484375 171.9747772216797 207.96368408203125 156.04029846191406 206.19317626953125 150.02059936523438 206.9013671875 142.58450317382813 206.9013671875 142.58450317382813 " />
        </svg>