<?xml version="1.0" standalone="no"?>
    <svg width="256" height="256" xmlns="http://www.w3.org/2000/svg" version="1.1">
    <polyline stroke="black" stroke-width="3" stroke-linecap="round" fill="transparent" stroke-linejoin="round" points="80.04107666015625 47.12451171875 86.31130981445313 68.90533447265625 95.88168334960938 144.4781494140625 96.54168701171876 187.3797607421875 96.211669921875 192.65997314453125 93.2415771484375 200.58029174804688 87.63134765625 203.22036743164065 72.78082275390625 193.6499938964844 72.78082275390625 193.6499938964844 " />
        <polyline stroke="black" stroke-width="3" stroke-linecap="round" fill="transparent" stroke-linejoin="round" points="45.05975341796875 119.72723388671876 36.1494140625 140.8480224609375 35.15936279296875 169.88912963867188 35.489410400390625 171.2091522216797 36.479461669921875 173.51927185058594 37.139495849609375 173.84925842285156 46.0498046875 163.9488983154297 56.940216064453125 148.4383087158203 73.44085693359375 127.31752014160156 95.88168334960938 99.5964813232422 95.88168334960938 99.5964813232422 " />
        <polyline stroke="black" stroke-width="3" stroke-linecap="round" fill="transparent" stroke-linejoin="round" points="111.062255859375 90.6861572265625 110.4022216796875 99.26646423339844 105.4520263671875 118.73719787597656 105.12203979492188 121.70730590820313 103.14193725585938 129.6276092529297 101.49188232421876 136.88787841796875 100.83187866210938 141.50804138183594 101.49188232421876 144.8081512451172 105.78207397460938 146.7882537841797 122.28268432617188 147.11825561523438 122.28268432617188 147.11825561523438 122.28268432617188 147.11825561523438 " />
        <polyline stroke="black" stroke-width="3" stroke-linecap="round" fill="transparent" stroke-linejoin="round" points="132.18304443359375 103.55662536621094 143.40341186523438 98.27642822265624 190.59521484375 80.12574768066406 198.84552001953125 78.14566040039063 218.976318359375 74.84553527832031 225.24652099609375 75.50556945800781 225.24652099609375 75.50556945800781 225.24652099609375 75.50556945800781 " />
        <polyline stroke="black" stroke-width="3" stroke-linecap="round" fill="transparent" stroke-linejoin="round" points="169.47442626953125 93.32624816894533 159.24407958984375 110.81689453125 152.97381591796875 136.2278594970703 152.643798828125 139.8579864501953 153.9638671875 153.71849060058594 155.94390869140625 165.5989532470703 158.2540283203125 173.51927185058594 159.24407958984375 174.83929443359375 159.24407958984375 174.83929443359375 " />
        <polyline stroke="black" stroke-width="3" stroke-linecap="round" fill="transparent" stroke-linejoin="round" points="208.08587646484375 95.63633728027344 202.8056640625 117.08714294433594 173.4345703125 166.25900268554688 166.17431640625 174.1792755126953 145.383544921875 191.33990478515625 137.79324340820313 195.30007934570313 135.81317138671875 196.6201171875 137.13323974609375 195.30007934570313 146.37359619140625 189.35986328125 165.5142822265625 182.7595977783203 185.64501953125 177.47938537597656 206.43585205078125 173.84925842285156 221.286376953125 173.84925842285156 226.8966064453125 175.82933044433594 226.8966064453125 175.82933044433594 226.8966064453125 175.82933044433594 " />
        </svg>