<?xml version="1.0" standalone="no"?>
    <svg width="256" height="256" xmlns="http://www.w3.org/2000/svg" version="1.1">
    <polyline stroke="black" stroke-width="3" stroke-linecap="round" fill="transparent" stroke-linejoin="round" points="96.87173461914063 50.42462921142578 89.61141967773438 60.32499694824219 85.98129272460938 66.26521301269531 71.790771484375 94.3162841796875 69.81069946289063 99.5964813232422 65.19052124023438 110.81689453125 62.550445556640625 117.41712951660156 62.550445556640625 117.41712951660156 62.550445556640625 117.41712951660156 " />
        <polyline stroke="black" stroke-width="3" stroke-linecap="round" fill="transparent" stroke-linejoin="round" points="90.93148803710938 77.81565856933594 99.841796875 73.52549743652344 104.7919921875 71.87544250488281 133.83309936523438 61.975067138671875 139.7733154296875 60.655029296875 156.27392578125 57.354888916015625 168.484375 56.694854736328125 175.4146728515625 57.68489074707031 177.06475830078125 58.67494201660156 177.06475830078125 58.67494201660156 177.06475830078125 58.67494201660156 " />
        <polyline stroke="black" stroke-width="3" stroke-linecap="round" fill="transparent" stroke-linejoin="round" points="95.55169677734376 78.47569274902344 101.161865234375 93.98626708984376 102.48190307617188 97.61639404296876 109.08218383789063 112.46696472167967 110.07220458984376 114.447021484375 113.04232788085938 117.41712951660156 113.04232788085938 117.41712951660156 113.04232788085938 117.41712951660156 " />
        <polyline stroke="black" stroke-width="3" stroke-linecap="round" fill="transparent" stroke-linejoin="round" points="151.9837646484375 79.79573059082031 144.39349365234375 95.96633911132813 108.42214965820313 154.04852294921875 101.49188232421876 164.2789306640625 83.01119995117188 188.6997985839844 71.46078491210938 201.9002990722656 67.17059326171875 205.200439453125 67.17059326171875 205.200439453125 67.17059326171875 205.200439453125 " />
        <polyline stroke="black" stroke-width="3" stroke-linecap="round" fill="transparent" stroke-linejoin="round" points="79.05105590820313 139.52796936035156 100.50189208984376 136.2278594970703 142.74343872070313 126.657470703125 174.0946044921875 122.69734191894533 177.7247314453125 123.35736083984376 177.7247314453125 123.35736083984376 " />
        <polyline stroke="black" stroke-width="3" stroke-linecap="round" fill="transparent" stroke-linejoin="round" points="117.33248901367188 149.7583770751953 115.02239990234376 160.31874084472656 112.7122802734375 192.3299560546875 114.6923828125 206.52047729492188 115.35238647460938 207.84054565429688 118.32254028320313 210.48062133789065 121.95263671875 211.470703125 127.23284912109376 209.4906005859375 138.12322998046875 193.32000732421875 146.70358276367188 165.5989532470703 146.70358276367188 165.5989532470703 " />
        <polyline stroke="black" stroke-width="3" stroke-linecap="round" fill="transparent" stroke-linejoin="round" points="148.68365478515625 140.8480224609375 157.92401123046875 163.9488983154297 170.4644775390625 194.6400451660156 171.78448486328125 198.27017211914065 175.74468994140625 208.17056274414065 175.74468994140625 208.17056274414065 175.74468994140625 208.17056274414065 " />
        </svg>