<?xml version="1.0" standalone="no"?>
    <svg width="256" height="256" xmlns="http://www.w3.org/2000/svg" version="1.1">
    <polyline stroke="black" stroke-width="3" stroke-linecap="round" fill="transparent" stroke-linejoin="round" points="102.65679931640624 65.75796508789063 99.812255859375 75.10440063476563 96.96771240234376 84.45083618164063 94.12313842773438 94.20361328125 91.27862548828124 103.55001831054688 86.80859375 121.8364715576172 83.96405029296875 134.43382263183594 82.33856201171875 143.37384033203125 81.52581787109375 148.250244140625 81.11947631835938 149.06297302246094 81.11947631835938 148.65660095214844 81.11947631835938 144.5929412841797 81.11947631835938 140.1229248046875 81.52581787109375 137.6847381591797 82.33856201171875 136.05926513671875 86.80859375 133.2147216796875 94.93588256835938 129.55743408203125 107.9395751953125 124.6810302734375 122.56878662109376 119.80465698242188 137.60433959960938 113.70916748046876 150.20162963867188 107.20730590820313 161.57989501953125 99.48635864257813 170.113525390625 89.32722473144531 175.80267333984375 78.76170349121094 175.80267333984375 78.76170349121094 " />
        <polyline stroke="black" stroke-width="3" stroke-linecap="round" fill="transparent" stroke-linejoin="round" points="163.61181640625 60.068878173828125 160.7672119140625 68.60255432128906 157.922607421875 77.13623046875 151.4207763671875 95.42269897460938 148.576171875 102.73728942871094 141.66796875 117.77281188964844 138.01068115234375 124.6810302734375 125.413330078125 142.56112670898438 117.6923828125 150.68844604492188 112.40960693359376 153.5330047607422 112.40960693359376 153.5330047607422 " />
        <polyline stroke="black" stroke-width="3" stroke-linecap="round" fill="transparent" stroke-linejoin="round" points="77.05572509765625 150.2820587158203 83.5576171875 149.87570190429688 90.05950927734375 149.46934509277344 98.18682861328124 148.65660095214844 114.03509521484376 147.03115844726563 121.34967041015624 146.21841430664063 128.25790405273438 145.4056854248047 138.01068115234375 143.78021240234375 138.01068115234375 143.78021240234375 " />
        <polyline stroke="black" stroke-width="3" stroke-linecap="round" fill="transparent" stroke-linejoin="round" points="51.86114501953125 209.20507812499994 62.8330078125 208.7987365722656 73.80487060546875 208.39239501953125 86.40219116210938 207.98602294921875 118.0987548828125 207.57965087890625 151.4207763671875 206.76690673828125 183.1173095703125 207.17327880859375 207.49920654296875 207.98602294921875 224.972900390625 208.7987365722656 229.4429931640625 209.20510864257813 229.4429931640625 209.20510864257813 " />
        </svg>