<?xml version="1.0" standalone="no"?>
    <svg width="256" height="256" xmlns="http://www.w3.org/2000/svg" version="1.1">
    <polyline stroke="black" stroke-width="3" stroke-linecap="round" fill="transparent" stroke-linejoin="round" points="74.4432373046875 27.38002014160156 77.09335327148438 38.4222412109375 78.86016845703125 49.02278137207031 82.83538818359375 75.9658203125 84.160400390625 89.21647644042969 86.36883544921875 122.3431396484375 86.36883544921875 137.80227661132813 85.4854736328125 148.40281677246094 84.160400390625 155.02813720703125 83.27703857421875 157.236572265625 82.39364624023438 156.79489135742188 82.39364624023438 155.46983337402344 84.160400390625 151.05294799804688 86.810546875 146.63604736328125 100.944580078125 130.29356384277344 116.84539794921876 117.48458862304688 135.8380126953125 103.35055541992188 157.4808349609375 88.33309936523438 175.59002685546875 74.19905090332031 188.8406982421875 63.156829833984375 196.349365234375 55.64811706542969 196.349365234375 55.64811706542969 " />
        <polyline stroke="black" stroke-width="3" stroke-linecap="round" fill="transparent" stroke-linejoin="round" points="191.4908447265625 31.355224609375 183.98211669921875 45.48927307128906 180.89031982421875 53.88136291503906 174.7066650390625 73.75736999511719 167.6396484375 95.84181213378906 159.689208984375 117.48458862304688 150.85543823242188 135.59381103515625 141.13827514648438 149.2861785888672 130.97943115234375 159.0033416748047 122.14569091796876 165.628662109375 115.07861328125 168.7205047607422 111.10345458984376 170.04556274414063 109.336669921875 170.04556274414063 108.89498901367188 169.16217041015625 112.428466796875 166.51205444335938 123.470703125 161.21177673339844 130.53778076171875 158.5616455078125 145.11346435546875 153.70309448242188 161.0142822265625 150.1695556640625 161.0142822265625 150.1695556640625 " />
        <polyline stroke="black" stroke-width="3" stroke-linecap="round" fill="transparent" stroke-linejoin="round" points="45.291748046875 208.03082275390625 68.70126342773438 204.497314453125 81.06857299804688 203.61392211914065 94.31927490234376 202.7305603027344 108.89498901367188 202.28887939453125 155.71405029296875 202.28887939453125 185.7489013671875 202.7305603027344 210.041748046875 208.03082275390625 220.642333984375 213.33108520507813 220.642333984375 213.33108520507813 " />
        </svg>