<?xml version="1.0" standalone="no"?>
    <svg width="256" height="256" xmlns="http://www.w3.org/2000/svg" version="1.1">
    <polyline stroke="black" stroke-width="3" stroke-linecap="round" fill="transparent" stroke-linejoin="round" points="80 65 79 65 79 66 80 67 81 68 82 70 84 72 86 76 88 81 90 87 91 94 93 103 94 111 94 120 94 128 94 135 93 140 93 143 93 146 93 147 93 148 93 150 94 151 94 152 94 153 94 154 94 155 93 156 92 157 91 158 90 158 89 158 88 158 87 158 87 157 88 156 88 155 89 154 91 153 94 151 98 148 103 145 110 142 117 139 123 137 130 135 136 134 141 134 146 133 149 133 150 133 150 134 149 134 147 133 147 133 " />
        <polyline stroke="black" stroke-width="3" stroke-linecap="round" fill="transparent" stroke-linejoin="round" points="162 55 161 55 160 57 160 59 159 62 158 67 158 72 157 79 156 88 155 98 154 109 153 118 152 128 151 135 151 139 151 141 152 142 153 142 155 139 155 139 " />
        <polyline stroke="black" stroke-width="3" stroke-linecap="round" fill="transparent" stroke-linejoin="round" points="102 95 100 94 100 93 100 92 101 91 104 90 108 88 114 87 121 86 129 85 137 85 143 86 147 87 150 88 152 90 152 91 152 91 " />
        <polyline stroke="black" stroke-width="3" stroke-linecap="round" fill="transparent" stroke-linejoin="round" points="54 224 53 224 52 224 52 223 53 222 54 221 56 220 59 218 65 215 71 212 75 210 80 208 89 203 95 201 107 197 120 193 134 191 148 191 158 192 166 194 173 196 178 196 183 197 186 197 188 197 189 197 189 196 189 195 189 195 " />
        </svg>