<?xml version="1.0" standalone="no"?>
    <svg width="256" height="256" xmlns="http://www.w3.org/2000/svg" version="1.1">
    <polyline stroke="black" stroke-width="3" stroke-linecap="round" fill="transparent" stroke-linejoin="round" points="89.60003662109375 53.66667175292969 104.2667236328125 52.333351135253906 115.20001220703124 49.66667175292969 131.46673583984375 47.26667022705078 142.13336181640625 46.4666748046875 151.46673583984375 46.20000457763672 156.800048828125 45.933349609375 158.4000244140625 45.933349609375 156.800048828125 45.933349609375 156.800048828125 45.933349609375 " />
        <polyline stroke="black" stroke-width="3" stroke-linecap="round" fill="transparent" stroke-linejoin="round" points="114.4000244140625 53.933349609375 114.66671752929688 60.066680908203125 114.4000244140625 72.33334350585938 114.4000244140625 76.86666870117188 114.933349609375 87.80000305175781 115.73336791992188 92.06668090820313 117.06671142578124 94.20001220703124 117.86672973632813 93.66667175292967 117.86672973632813 93.66667175292967 " />
        <polyline stroke="black" stroke-width="3" stroke-linecap="round" fill="transparent" stroke-linejoin="round" points="142.4000244140625 50.4666748046875 143.46673583984375 59 142.933349609375 64.60000610351563 141.60003662109375 75.53334045410156 140.53338623046875 85.93333435058594 140 94.4666748046875 139.20001220703125 101.4000244140625 137.86669921875 103.80001831054688 137.86669921875 103.80001831054688 " />
        <polyline stroke="black" stroke-width="3" stroke-linecap="round" fill="transparent" stroke-linejoin="round" points="84.80001831054688 109.1333465576172 91.20001220703124 107.00003051757813 95.46673583984376 106.20002746582033 106.933349609375 103.80001831054688 120.80001831054688 101.933349609375 143.20001220703125 100.33334350585938 156.2667236328125 100.06668090820313 166.13336181640625 100.06668090820313 171.73333740234375 101.1333465576172 174.4000244140625 103.00003051757813 173.60003662109375 104.06668090820313 173.60003662109375 104.06668090820313 " />
        <polyline stroke="black" stroke-width="3" stroke-linecap="round" fill="transparent" stroke-linejoin="round" points="109.06671142578124 138.4666748046875 104.80001831054688 146.4666748046875 103.46673583984376 152.33334350585938 103.46673583984376 158.2000274658203 104.00003051757813 163.00003051757813 105.60003662109376 166.4666748046875 109.86672973632813 169.4000244140625 116.2667236328125 169.4000244140625 126.13336181640624 168.06668090820313 137.86669921875 164.86668395996094 154.13336181640625 159.2666778564453 161.60003662109375 156.06668090820313 161.86669921875 155.53334045410156 161.86669921875 155.53334045410156 " />
        <polyline stroke="black" stroke-width="3" stroke-linecap="round" fill="transparent" stroke-linejoin="round" points="164 135.53334045410156 162.933349609375 141.6666717529297 162.13336181640625 145.1333465576172 160 151.53334045410156 157.60003662109375 156.6000213623047 154.933349609375 159.80003356933594 153.60003662109375 159.80003356933594 153.60003662109375 159.80003356933594 " />
        <polyline stroke="black" stroke-width="3" stroke-linecap="round" fill="transparent" stroke-linejoin="round" points="132 118.4666748046875 133.06671142578125 129.1333465576172 133.86669921875 140.33334350585938 133.86669921875 153.1333465576172 131.20001220703125 166.4666748046875 123.73336791992188 184.86666870117188 117.86672973632813 195.53335571289065 112.80001831054688 204.33334350585935 108.53335571289063 210.73333740234375 108.2667236328125 210.73333740234375 108.2667236328125 210.73333740234375 " />
        </svg>