<?xml version="1.0" standalone="no"?>
    <svg width="256" height="256" xmlns="http://www.w3.org/2000/svg" version="1.1">
    <polyline stroke="black" stroke-width="3" stroke-linecap="round" fill="transparent" stroke-linejoin="round" points="75.76226806640625 76.6597900390625 79.8758544921875 69.46102905273438 90.1597900390625 63.29066467285156 108.15667724609376 54.54930114746094 128.21038818359375 45.807952880859375 144.6646728515625 40.15178680419922 158.0338134765625 36.55240631103515 168.3177490234375 33.981414794921875 173.97393798828125 32.953025817871094 176.03076171875 32.953025817871094 176.03076171875 32.953025817871094 " />
        <polyline stroke="black" stroke-width="3" stroke-linecap="round" fill="transparent" stroke-linejoin="round" points="104.55731201171876 78.71658325195313 102.50051879882813 90.02891540527344 102.50051879882813 96.19927978515624 103.5289306640625 100.82705688476563 107.1282958984375 104.94064331054688 111.75607299804688 105.96902465820313 119.46902465820313 100.82705688476563 119.46902465820313 100.82705688476563 " />
        <polyline stroke="black" stroke-width="3" stroke-linecap="round" fill="transparent" stroke-linejoin="round" points="153.92022705078125 50.43572998046875 147.23568725585938 64.31906127929688 135.40914916992188 80.25917053222656 118.954833984375 101.3412628173828 118.954833984375 101.3412628173828 " />
        <polyline stroke="black" stroke-width="3" stroke-linecap="round" fill="transparent" stroke-linejoin="round" points="57.25115966796875 133.2214813232422 75.76226806640625 124.99432373046876 98.901123046875 115.73878479003906 125.639404296875 104.94064331054688 144.6646728515625 98.770263671875 161.6331787109375 94.6566925048828 176.03076171875 92.5998992919922 185.80047607421875 92.08570861816406 191.9708251953125 93.6282958984375 191.9708251953125 93.6282958984375 " />
        <polyline stroke="black" stroke-width="3" stroke-linecap="round" fill="transparent" stroke-linejoin="round" points="90.67398071289063 133.2214813232422 89.64556884765625 141.44863891601563 90.1597900390625 148.13320922851563 92.21658325195313 154.30357360839844 95.3017578125 159.44554138183594 100.95794677734376 163.044921875 107.64251708984376 164.58750915527344 116.89804077148438 162.0165252685547 129.23876953125 153.78936767578125 139.008544921875 144.01962280273438 145.17889404296875 138.3634490966797 150.32086181640625 134.76406860351563 153.40606689453125 132.70729064941406 155.97705078125 132.70729064941406 158.0338134765625 135.2782745361328 159.576416015625 138.3634490966797 160.090576171875 141.96282958984375 160.090576171875 145.0480194091797 160.090576171875 145.0480194091797 " />
        <polyline stroke="black" stroke-width="3" stroke-linecap="round" fill="transparent" stroke-linejoin="round" points="127.6961669921875 121.39494323730467 121.01162719726563 144.01962280273438 115.35546875 173.8430633544922 111.75607299804688 188.2406005859375 107.1282958984375 203.66650390625 103.01470947265624 217.03564453125 103.01470947265624 217.03564453125 " />
        </svg>