<?xml version="1.0" standalone="no"?>
    <svg width="256" height="256" xmlns="http://www.w3.org/2000/svg" version="1.1">
    <polyline stroke="black" stroke-width="3" stroke-linecap="round" fill="transparent" stroke-linejoin="round" points="55.8363037109375 114.58871459960938 69.54098510742188 106.18907165527344 84.57196044921875 99.99986267089844 101.81332397460938 93.81065368652344 119.0546875 89.83187866210938 134.52767944335938 87.62144470214844 146.4639892578125 84.96893310546875 155.3057861328125 81.43223571777344 158.8424072265625 77.89553833007813 158.8424072265625 77.89553833007813 " />
        <polyline stroke="black" stroke-width="3" stroke-linecap="round" fill="transparent" stroke-linejoin="round" points="124.35971069335938 53.13871765136719 121.70721435546876 75.68511962890625 120.38095092773438 84.96893310546875 114.19171142578124 115.03079223632813 111.5391845703125 125.64085388183594 105.3499755859375 145.9768524169922 102.25537109375 154.81854248046875 96.95037841796876 168.08114624023438 90.76116943359376 181.7858123779297 85.45611572265625 188.85919189453125 77.94064331054688 195.04840087890625 73.519775390625 196.8167724609375 69.54098510742188 197.700927734375 67.77264404296875 197.700927734375 67.33056640625 197.25885009765625 73.07769775390625 195.04840087890625 89.876953125 190.1854553222656 99.1607666015625 186.64877319335935 125.24386596679688 177.80703735351563 139.83270263671875 171.61782836914063 154.42156982421875 162.77610778808594 154.42156982421875 162.77610778808594 " />
        <polyline stroke="black" stroke-width="3" stroke-linecap="round" fill="transparent" stroke-linejoin="round" points="151.32696533203125 137.13510131835938 153.537353515625 151.28189086914063 155.3057861328125 157.4710693359375 157.51617431640625 164.10235595703125 163.2633056640625 178.24913024902344 169.4525146484375 195.490478515625 172.98919677734375 209.19515991210935 172.98919677734375 209.19515991210935 " />
        </svg>