<?xml version="1.0" standalone="no"?>
    <svg width="256" height="256" xmlns="http://www.w3.org/2000/svg" version="1.1">
    <polyline stroke="black" stroke-width="3" stroke-linecap="round" fill="transparent" stroke-linejoin="round" points="72.87225341796875 98.5063018798828 86.68930053710938 94.55857849121094 95.76904296875 92.18994140625 116.29721069335938 89.03176879882813 147.87899780273438 87.05792236328125 158.9326171875 85.08404541015625 165.24896240234375 81.53109741210938 167.22283935546875 79.95201110839844 167.22283935546875 79.95201110839844 " />
        <polyline stroke="black" stroke-width="3" stroke-linecap="round" fill="transparent" stroke-linejoin="round" points="137.22015380859375 33.76365661621094 135.64105224609375 53.10749816894531 134.85150146484375 66.13497924804688 130.11422729492188 94.95335388183594 125.771728515625 109.5599365234375 120.6396484375 122.982177734375 108.4017333984375 145.87896728515625 95.76904296875 162.4593963623047 82.74154663085938 175.48687744140625 71.29315185546875 184.171875 64.58203125 188.51437377929688 61.818603515625 189.69866943359375 61.423828125 189.30392456054688 65.766357421875 186.93527221679688 78.0042724609375 181.80322265625 96.953369140625 175.88165283203125 120.6396484375 169.96006774902344 143.93124389648438 165.61758422851563 163.27508544921875 162.4593963623047 173.9339599609375 159.30120849609375 173.9339599609375 159.30120849609375 " />
        <polyline stroke="black" stroke-width="3" stroke-linecap="round" fill="transparent" stroke-linejoin="round" points="176.3026123046875 117.0605926513672 177.0921630859375 132.4567108154297 177.4869384765625 139.95738220214844 178.2764892578125 149.03713989257813 179.06597900390625 158.51168823242188 183.408447265625 187.33004760742188 185.777099609375 208.25299072265625 186.96142578125 218.51705932617188 186.96142578125 218.51705932617188 " />
        </svg>