<?xml version="1.0" standalone="no"?>
    <svg width="256" height="256" xmlns="http://www.w3.org/2000/svg" version="1.1">
    <polyline stroke="black" stroke-width="3" stroke-linecap="round" fill="transparent" stroke-linejoin="round" points="89.18902587890625 86.82275390625 110.56005859375 78.8226318359375 131.93109130859375 70.822509765625 139.99609375 67.74868774414063 164.50390625 63.523895263671875 165.3885498046875 63.483001708984375 165.47705078125 63.47889709472656 165.4842529296875 63.47857666015625 " />
        <polyline stroke="black" stroke-width="3" stroke-linecap="round" fill="transparent" stroke-linejoin="round" points="97.33145141601563 51.074676513671875 94.9825439453125 61.99537658691406 92.63363647460938 72.91607666015625 89.8785400390625 83.09051513671875 87.1988525390625 93.17225646972656 83.81573486328125 103.3642578125 82.87142944335938 107.10513305664063 83.17916870117188 108.91754150390624 83.96151733398438 110.68205261230467 85.98199462890625 112.42625427246094 87.82040405273438 113.63682556152344 90.64706420898438 114.58293151855467 101.13958740234376 114.09918212890624 117.92184448242188 111.75889587402344 137.64691162109375 106.8704833984375 156.1719970703125 104.64068603515624 167.901123046875 103.17147827148438 170.739013671875 103.31887817382813 174.40081787109375 104.67808532714844 176.31195068359375 112.05728149414063 178.04241943359375 121.102783203125 179.22381591796875 148.1443328857422 178.105224609375 161.16197204589844 175.59344482421875 183.1877288818359 173.14178466796875 199.66921997070313 171.40625 207.6405334472656 169.6298828125 212.17645263671875 165.6805419921875 218.14007568359375 156.28948974609375 224.91506958007813 148.35430908203125 226.94744873046875 140.989501953125 228.21307373046875 130.0911865234375 227.462646484375 107.44873046875 225.08929443359375 102.50347900390624 223.21051025390625 102.0089111328125 223.02261352539065 " />
        <polyline stroke="black" stroke-width="3" stroke-linecap="round" fill="transparent" stroke-linejoin="round" points="121.26000976562499 126.518310546875 110.61483764648438 144.51300048828125 99.96966552734376 162.5076904296875 94.17218017578124 171.33782958984375 84.4010009765625 186.07986450195313 78.653076171875 191.9505920410156 68.91571044921875 201.27215576171875 64.54144287109375 204.93267822265625 50.952117919921875 212.8460998535156 50.0853271484375 213.33563232421875 " />
        <polyline stroke="black" stroke-width="3" stroke-linecap="round" fill="transparent" stroke-linejoin="round" points="63.7701416015625 165.65866088867188 70.69305419921875 167.51266479492188 77.615966796875 169.36666870117188 84.723876953125 171.962890625 101.77157592773438 179.2540740966797 121.25534057617188 185.17916870117188 135.240966796875 189.71728515625 137.34384155273438 190.33538818359375 149.25555419921875 191.00308227539065 150.42572021484375 191.06365966796875 " />
        </svg>