<?xml version="1.0" standalone="no"?>
    <svg width="256" height="256" xmlns="http://www.w3.org/2000/svg" version="1.1">
    <polyline stroke="black" stroke-width="3" stroke-linecap="round" fill="transparent" stroke-linejoin="round" points="107.69744873046876 52.22624206542969 102.83453369140624 66.37300109863281 101.066162109375 73.00430297851563 99.29782104492188 79.63558959960938 96.20321655273438 92.45608520507813 93.55072021484376 103.50827026367188 91.7823486328125 112.3499755859375 91.34027099609376 117.65501403808594 92.22445678710938 119.42337036132813 98.855712890625 118.5391845703125 112.56039428710938 113.23416137695313 120.96005249023438 109.69744873046876 144.83270263671875 101.73991394042967 157.6531982421875 102.1820068359375 162.958251953125 104.39242553710938 170.915771484375 112.79208374023438 177.547119140625 142.41184997558594 176.2208251953125 153.90609741210938 164.7265625 184.85211181640625 153.6744384765625 198.55679321289065 148.81149291992188 202.9776611328125 139.0855712890625 207.84060668945313 134.22265625 207.84060668945313 134.22265625 207.84060668945313 " />
        <polyline stroke="black" stroke-width="3" stroke-linecap="round" fill="transparent" stroke-linejoin="round" points="95.31906127929688 82.28811645507813 106.37118530273438 74.77264404296875 119.6337890625 69.0255126953125 135.54891967773438 64.16256713867188 150.13775634765625 60.625885009765625 162.0740966796875 57.531280517578125 169.1474609375 55.32084655761719 169.1474609375 55.32084655761719 " />
        <polyline stroke="black" stroke-width="3" stroke-linecap="round" fill="transparent" stroke-linejoin="round" points="135.10678100585938 111.90788269042967 127.14926147460938 126.49673461914063 113.00250244140624 149.92730712890625 84.26690673828125 195.904296875 78.07769775390625 204.7460021972656 73.65682983398438 211.3773193359375 70.1201171875 216.68234252929688 65.69927978515625 222.429443359375 65.69927978515625 222.429443359375 " />
        <polyline stroke="black" stroke-width="3" stroke-linecap="round" fill="transparent" stroke-linejoin="round" points="63.930908203125 169.82119750976563 79.84603881835938 167.6107635498047 88.24566650390625 167.16867065429688 97.9715576171875 167.6107635498047 126.26507568359376 172.0316162109375 143.50643920898438 177.7787322998047 152.790283203125 182.1996154785156 152.790283203125 182.1996154785156 " />
        </svg>