<?xml version="1.0" standalone="no"?>
    <svg width="256" height="256" xmlns="http://www.w3.org/2000/svg" version="1.1">
    <polyline stroke="black" stroke-width="3" stroke-linecap="round" fill="transparent" stroke-linejoin="round" points="104 39 102 53 101 59 100 65 98 75 97 80 96 85 95 88 95 89 95 91 95 92 95 92 95 94 95 95 95 97 95 98 95 99 95 100 95 101 94 106 92 109 91 110 91 112 94 112 99 112 104 112 112 112 114 112 127 112 130 113 139 114 145 115 149 116 153 117 156 118 159 122 161 125 162 134 162 146 161 152 160 157 156 165 152 175 148 184 142 194 139 197 133 204 130 207 128 209 127 210 124 210 119 209 116 208 113 205 111 203 106 200 104 197 103 196 99 190 97 185 96 181 95 179 95 179 " />
        <polyline stroke="black" stroke-width="3" stroke-linecap="round" fill="transparent" stroke-linejoin="round" points="118 118 117 121 115 125 108 140 103 151 97 161 88 173 79 181 70 190 64 194 58 199 53 200 50 202 45 204 41 204 40 205 37 205 37 205 " />
        <polyline stroke="black" stroke-width="3" stroke-linecap="round" fill="transparent" stroke-linejoin="round" points="68 130 68 136 68 139 70 143 80 152 89 156 93 158 99 162 106 167 110 170 118 176 122 179 127 179 131 182 135 183 137 183 139 183 140 183 140 183 " />
        <polyline stroke="black" stroke-width="3" stroke-linecap="round" fill="transparent" stroke-linejoin="round" points="97 75 104 76 115 74 191 53 194 52 194 52 195 52 195 52 " />
        </svg>