<?xml version="1.0" standalone="no"?>
    <svg width="256" height="256" xmlns="http://www.w3.org/2000/svg" version="1.1">
    <polyline stroke="black" stroke-width="3" stroke-linecap="round" fill="transparent" stroke-linejoin="round" points="47.495574951171875 129.9815673828125 59.47406005859375 122.13363647460938 75.169921875 113.04653930664063 84.67010498046875 108.5029754638672 102.84432983398438 100.65501403808594 110.6922607421875 97.76365661621094 123.90988159179688 92.80705261230467 132.99700927734375 89.089599609375 139.60580444335938 86.19825744628906 143.3232421875 84.54605102539063 144.97543334960938 83.71995544433594 144.97543334960938 82.89385986328125 144.5623779296875 82.48080444335938 144.5623779296875 82.48080444335938 " />
        <polyline stroke="black" stroke-width="3" stroke-linecap="round" fill="transparent" stroke-linejoin="round" points="97.8876953125 105.19857788085938 93.34417724609376 115.52482604980467 89.626708984375 127.91635131835938 87.56146240234375 138.6556396484375 83.843994140625 158.06900024414063 81.36572265625 170.04745483398438 80.53964233398438 177.06930541992188 80.53964233398438 179.1345672607422 80.95263671875 179.1345672607422 80.95263671875 179.1345672607422 " />
        <polyline stroke="black" stroke-width="3" stroke-linecap="round" fill="transparent" stroke-linejoin="round" points="133.4100341796875 90.7418212890625 127.6273193359375 103.54637145996094 124.7359619140625 109.74211120605467 121.43157958984376 117.59007263183594 111.10531616210938 137.82955932617188 106.148681640625 147.74273681640625 97.06161499023438 164.26475524902344 87.56146240234375 180.3737030029297 80.53964233398438 190.28692626953125 76.40911865234375 195.2435302734375 73.9307861328125 198.1348876953125 73.10470581054688 198.96096801757813 72.278564453125 200.20013427734375 73.10470581054688 200.20013427734375 77.23519897460938 198.54791259765625 80.12655639648438 196.482666015625 90.45281982421876 187.39556884765625 102.84432983398438 174.17796325683594 123.083740234375 151.04714965820313 134.23614501953125 134.11209106445313 141.6710205078125 119.6553192138672 141.6710205078125 119.6553192138672 " />
        <polyline stroke="black" stroke-width="3" stroke-linecap="round" fill="transparent" stroke-linejoin="round" points="137.12750244140625 85.78520202636719 149.93206787109375 80.82859802246094 154.888671875 79.1763916015625 160.25830078125 77.52420043945313 170.5845947265625 74.21978759765625 175.54119873046875 72.98065185546875 184.2152099609375 70.50234985351563 191.650146484375 68.0240478515625 197.84588623046875 65.54574584960938 204.0416259765625 63.48048400878906 204.0416259765625 63.48048400878906 " />
        <polyline stroke="black" stroke-width="3" stroke-linecap="round" fill="transparent" stroke-linejoin="round" points="182.56298828125 84.9591064453125 173.0628662109375 98.17672729492188 169.34539794921875 103.95941162109376 163.149658203125 115.11175537109376 155.30169677734375 132.87295532226563 149.10595703125 153.11239624023438 142.91015625 175.83016967773438 139.19271850585938 186.5694580078125 136.71444702148438 193.17828369140625 135.47528076171875 195.65655517578125 135.47528076171875 195.65655517578125 " />
        <polyline stroke="black" stroke-width="3" stroke-linecap="round" fill="transparent" stroke-linejoin="round" points="146.62762451171875 155.5906982421875 155.30169677734375 143.19918823242188 163.149658203125 134.11209106445313 173.0628662109375 126.26412963867188 182.56298828125 120.068359375 190.4110107421875 117.17703247070313 194.54150390625 116.35092163085938 201.15032958984375 116.76397705078124 206.51995849609375 119.24229431152344 212.7156982421875 132.4598846435547 213.5418701171875 148.56883239746094 211.0634765625 164.26475524902344 206.10693359375 179.1345672607422 198.6719970703125 190.69998168945313 189.17181396484375 198.1348876953125 176.7802734375 203.09149169921875 176.7802734375 203.09149169921875 " />
        </svg>