<?xml version="1.0" standalone="no"?>
    <svg width="256" height="256" xmlns="http://www.w3.org/2000/svg" version="1.1">
    <polyline stroke="black" stroke-width="3" stroke-linecap="round" fill="transparent" stroke-linejoin="round" points="54 93 57 92 71 88 95 81 121 71 123 71 123 71 " />
        <polyline stroke="black" stroke-width="3" stroke-linecap="round" fill="transparent" stroke-linejoin="round" points="81 89 73 99 69 122 71 135 79 139 80 139 " />
        <polyline stroke="black" stroke-width="3" stroke-linecap="round" fill="transparent" stroke-linejoin="round" points="106 85 105 86 90 125 75 157 73 160 " />
        <polyline stroke="black" stroke-width="3" stroke-linecap="round" fill="transparent" stroke-linejoin="round" points="61 170 62 170 77 159 98 143 105 137 109 134 113 131 " />
        <polyline stroke="black" stroke-width="3" stroke-linecap="round" fill="transparent" stroke-linejoin="round" points="121 85 120 81 128 73 148 66 167 57 173 53 173 53 " />
        <polyline stroke="black" stroke-width="3" stroke-linecap="round" fill="transparent" stroke-linejoin="round" points="154 71 143 95 126 152 120 190 120 195 120 196 120 198 " />
        <polyline stroke="black" stroke-width="3" stroke-linecap="round" fill="transparent" stroke-linejoin="round" points="121 144 133 129 152 110 175 100 184 118 179 166 173 194 156 193 145 184 143 181 141 179 " />
        </svg>