<?xml version="1.0" standalone="no"?>
    <svg width="256" height="256" xmlns="http://www.w3.org/2000/svg" version="1.1">
    <polyline stroke="black" stroke-width="3" stroke-linecap="round" fill="transparent" stroke-linejoin="round" points="46.913482666015625 109.30793762207033 63.96539306640625 100.781982421875 79.1903076171875 94.6920166015625 96.2421875 87.99305725097656 112.68511962890624 81.90309143066406 127.91000366210938 77.64012145996094 138.262939453125 73.37713623046875 143.13491821289063 71.55015563964844 143.13491821289063 71.55015563964844 " />
        <polyline stroke="black" stroke-width="3" stroke-linecap="round" fill="transparent" stroke-linejoin="round" points="82.23529052734375 105.04495239257813 74.31832885742188 117.22488403320313 68.22836303710938 130.622802734375 63.35638427734375 145.2387237548828 59.702392578125 158.02764892578125 59.093414306640625 167.77159118652344 61.529388427734375 173.86155700683594 68.83734130859375 173.2525634765625 85.2802734375 163.5086212158203 101.72314453125 147.67471313476563 113.29409790039063 132.44979858398438 118.77508544921876 126.35983276367188 123.03802490234376 122.7058563232422 124.25604248046876 122.7058563232422 122.42904663085938 126.96882629394533 114.5120849609375 141.58474731445313 99.28717041015624 164.7266082763672 82.23529052734375 187.86846923828125 71.27334594726563 201.26638793945313 66.4013671875 207.96536254882813 63.96539306640625 211.61932373046875 65.18338012695313 211.61932373046875 70.66433715820313 207.3563537597656 82.84426879882813 195.78543090820313 100.50518798828124 175.0795440673828 119.38406372070313 149.50169372558594 134.60897827148438 128.7958221435547 134.60897827148438 128.7958221435547 " />
        <polyline stroke="black" stroke-width="3" stroke-linecap="round" fill="transparent" stroke-linejoin="round" points="145.5709228515625 85.55706787109375 158.96881103515625 80.07609558105469 167.4947509765625 75.81312561035156 177.23870849609375 70.941162109375 186.3736572265625 66.06918334960938 194.89959716796875 59.37022399902344 194.89959716796875 59.37022399902344 " />
        <polyline stroke="black" stroke-width="3" stroke-linecap="round" fill="transparent" stroke-linejoin="round" points="194.89959716796875 63.024200439453125 183.93768310546875 75.81312561035156 169.9307861328125 94.6920166015625 151.660888671875 123.92384338378906 138.8719482421875 148.28370666503906 129.73699951171875 169.5985870361328 123.03802490234376 186.6504821777344 119.38406372070313 197.00341796875 118.77508544921876 201.8753967285156 121.2110595703125 201.8753967285156 127.91000366210938 193.95843505859375 141.91693115234375 173.2525634765625 157.7508544921875 148.8927001953125 170.539794921875 129.40481567382813 179.6746826171875 118.44287109375 189.41864013671875 111.74391174316406 197.3355712890625 109.30793762207033 205.861572265625 112.35292053222656 216.2144775390625 130.01380920410156 222.9134521484375 158.6366424560547 222.304443359375 182.9964904785156 216.823486328125 200.65740966796875 209.5155029296875 211.61932373046875 197.3355712890625 221.36328125 176.020751953125 228.06222534179688 163.8408203125 227.4532470703125 163.8408203125 227.4532470703125 " />
        </svg>