<?xml version="1.0" standalone="no"?>
    <svg width="256" height="256" xmlns="http://www.w3.org/2000/svg" version="1.1">
    <polyline stroke="black" stroke-width="3" stroke-linecap="round" fill="transparent" stroke-linejoin="round" points="102.44866943359376 76.84774780273438 103.102294921875 81.42324829101563 104.40960693359376 90.5742645263672 105.063232421875 91.22789001464844 106.37054443359376 93.8424835205078 110.946044921875 93.18882751464844 120.75067138671876 88.61334228515625 126.63348388671876 83.38418579101563 126.63348388671876 83.38418579101563 " />
        <polyline stroke="black" stroke-width="3" stroke-linecap="round" fill="transparent" stroke-linejoin="round" points="159.96923828125 47.43379211425781 159.31561279296875 55.931182861328125 157.35467529296875 59.19938659667969 144.93548583984375 72.27226257324219 125.97979736328124 86.65238952636719 107.024169921875 99.07162475585938 91.9903564453125 108.8762664794922 84.14666748046875 114.1054229736328 80.87841796875 116.06634521484376 83.49298095703125 116.71998596191406 94.60498046875 113.45176696777344 104.40960693359376 110.8372039794922 119.443359375 107.56898498535156 135.78448486328125 102.99348449707033 159.31561279296875 96.45704650878906 165.19842529296875 95.80340576171876 167.15936279296875 103.64712524414063 165.85205078125 106.26170349121094 165.85205078125 106.26170349121094 " />
        <polyline stroke="black" stroke-width="3" stroke-linecap="round" fill="transparent" stroke-linejoin="round" points="92.64398193359376 142.2120819091797 91.9903564453125 142.2120819091797 93.29766845703124 142.86572265625 97.219482421875 142.2120819091797 108.33148193359376 141.55845642089844 125.97979736328124 140.90481567382813 137.745361328125 139.59751892089844 158.6619873046875 135.67564392089844 173.69573974609375 127.17828369140624 180.23223876953125 116.06634521484376 180.23223876953125 116.06634521484376 " />
        <polyline stroke="black" stroke-width="3" stroke-linecap="round" fill="transparent" stroke-linejoin="round" points="133.16986083984375 71.61859130859375 131.86260986328125 78.155029296875 127.287109375 129.79286193847656 127.94073486328124 175.5478973388672 127.94073486328124 182.7379608154297 128.59442138671875 192.54263305664065 129.24798583984375 196.46450805664065 134.4771728515625 200.3863220214844 138.3990478515625 202.3472595214844 138.3990478515625 202.3472595214844 " />
        </svg>