<?xml version="1.0" standalone="no"?>
    <svg width="256" height="256" xmlns="http://www.w3.org/2000/svg" version="1.1">
    <polyline stroke="black" stroke-width="3" stroke-linecap="round" fill="transparent" stroke-linejoin="round" points="94 55 96 55 98 56 100 58 102 61 106 66 108 69 110 72 112 75 114 78 116 81 118 83 121 84 125 84 127 84 129 83 " />
        <polyline stroke="black" stroke-width="3" stroke-linecap="round" fill="transparent" stroke-linejoin="round" points="169 45 170 46 170 50 167 54 162 60 155 67 147 74 137 80 127 86 117 92 108 96 97 100 92 102 89 104 87 105 86 105 87 105 89 105 92 104 97 102 107 99 115 97 124 94 132 92 141 89 149 86 156 85 162 85 164 86 166 87 " />
        <polyline stroke="black" stroke-width="3" stroke-linecap="round" fill="transparent" stroke-linejoin="round" points="94 138 92 138 91 138 92 138 95 137 99 136 104 135 111 133 119 131 128 128 138 124 147 120 156 115 164 110 171 106 174 104 " />
        <polyline stroke="black" stroke-width="3" stroke-linecap="round" fill="transparent" stroke-linejoin="round" points="130 42 129 47 128 54 127 64 126 75 126 87 125 101 125 116 126 130 126 144 127 162 127 174 128 184 129 189 131 194 " />
        </svg>