<?xml version="1.0" standalone="no"?>
    <svg width="256" height="256" xmlns="http://www.w3.org/2000/svg" version="1.1">
    <polyline stroke="black" stroke-width="3" stroke-linecap="round" fill="transparent" stroke-linejoin="round" points="88 58 88 59 90 63 91 65 92 68 95 74 97 79 100 86 101 88 104 93 106 96 109 98 110 99 112 100 117 101 122 102 124 102 " />
        <polyline stroke="black" stroke-width="3" stroke-linecap="round" fill="transparent" stroke-linejoin="round" points="167 87 165 88 162 91 159 93 157 95 150 99 147 101 143 103 136 108 132 111 128 113 124 115 " />
        <polyline stroke="black" stroke-width="3" stroke-linecap="round" fill="transparent" stroke-linejoin="round" points="88 121 91 121 93 121 95 120 101 120 104 120 107 120 118 120 122 121 126 121 135 121 139 122 143 122 152 123 161 123 165 123 169 123 173 124 177 124 181 124 185 124 189 124 193 124 196 124 " />
        <polyline stroke="black" stroke-width="3" stroke-linecap="round" fill="transparent" stroke-linejoin="round" points="101 158 100 158 100 159 100 159 101 159 103 159 106 159 111 159 117 160 120 160 131 160 134 160 142 161 146 161 150 161 158 161 165 161 168 161 172 160 178 159 185 157 188 155 190 153 " />
        <polyline stroke="black" stroke-width="3" stroke-linecap="round" fill="transparent" stroke-linejoin="round" points="124 66 124 68 125 72 125 79 126 87 126 91 126 101 127 106 127 116 127 121 128 126 128 131 129 141 130 146 130 151 131 156 132 166 133 171 134 184 135 191 135 195 135 202 135 205 135 211 135 214 135 218 135 220 135 224 135 224 135 225 135 225 134 224 133 223 133 222 132 221 132 219 " />
        </svg>