<?xml version="1.0" standalone="no"?>
    <svg width="256" height="256" xmlns="http://www.w3.org/2000/svg" version="1.1">
    <polyline stroke="black" stroke-width="3" stroke-linecap="round" fill="transparent" stroke-linejoin="round" points="56.1649169921875 65.56184387207031 65.34661865234375 59.440704345703125 82.48580932617188 51.48323822021485 123.49740600585938 36.18040466308594 143.6971435546875 30.05927276611328 163.89691162109375 24.550247192382813 176.75128173828125 21.48968505859375 183.4844970703125 20.265457153320313 185.9329833984375 21.48968505859375 182.26025390625 28.835044860839844 166.95745849609375 42.301536560058594 145.53350830078125 54.54380798339844 128.39431762695313 62.50128173828125 121.0489501953125 66.78607177734375 114.31570434570313 71.6829833984375 107.58245849609376 79.02833557128906 102.07342529296876 89.43426513671875 97.78863525390624 98.615966796875 95.95230102539063 104.7371063232422 94.72808837890624 109.63400268554688 94.72808837890624 110.85823059082033 97.78863525390624 108.40977478027344 105.13400268554688 99.84019470214844 120.43682861328124 83.31312561035156 133.29119873046875 71.6829833984375 147.36981201171875 63.11338806152344 155.939453125 60.052825927734375 162.67266845703125 60.052825927734375 166.3453369140625 62.50128173828125 166.3453369140625 69.23452758789063 156.551513671875 86.37370300292969 136.351806640625 103.51287841796876 118.60049438476563 114.53091430664063 108.80670166015624 118.81570434570313 103.29766845703124 119.42782592773438 101.46133422851563 119.42782592773438 104.52191162109376 116.36724853515624 117.9884033203125 109.63400268554688 136.351806640625 101.06442260742188 151.65460205078125 96.77963256835938 157.7757568359375 96.16751098632813 161.44842529296875 98.0038604736328 161.44842529296875 98.0038604736328 " />
        <polyline stroke="black" stroke-width="3" stroke-linecap="round" fill="transparent" stroke-linejoin="round" points="87.99481201171875 139.6275634765625 85.54638671875 149.42137145996094 85.54638671875 156.1546173095703 85.54638671875 162.8878631591797 87.38272094726563 169.00900268554688 91.66751098632813 172.6816864013672 101.46133422851563 173.90591430664063 117.37628173828124 170.2332305908203 133.29119873046875 161.66363525390625 151.65460205078125 150.0334930419922 165.73321533203125 138.40333557128906 174.9149169921875 129.833740234375 181.03607177734375 124.32472229003906 185.32086181640625 120.6520538330078 187.769287109375 120.03993225097656 188.38140869140625 121.26416015625 188.38140869140625 126.16107177734376 190.2177734375 133.5064239501953 191.4420166015625 142.68812561035156 191.4420166015625 149.42137145996094 189.60565185546875 154.3182830810547 189.60565185546875 154.3182830810547 " />
        <polyline stroke="black" stroke-width="3" stroke-linecap="round" fill="transparent" stroke-linejoin="round" points="135.73968505859375 121.26416015625 133.29119873046875 145.13658142089844 126.5579833984375 175.13014221191406 119.82470703125 200.83889770507813 115.5399169921875 216.75384521484375 111.86724853515624 227.7718811035156 110.64300537109376 236.34146118164065 110.64300537109376 236.34146118164065 " />
        </svg>