<?xml version="1.0" standalone="no"?>
    <svg width="256" height="256" xmlns="http://www.w3.org/2000/svg" version="1.1">
    <polyline stroke="black" stroke-width="3" stroke-linecap="round" fill="transparent" stroke-linejoin="round" points="55.72552490234375 79.02833557128906 70.41622924804688 68.01029968261719 94.28863525390624 54.54380798339844 118.773193359375 44.74999237060547 138.36080932617188 38.62886047363281 154.2757568359375 33.73194885253906 164.069580078125 30.67138671875 168.3543701171875 30.05927276611328 168.3543701171875 30.05927276611328 " />
        <polyline stroke="black" stroke-width="3" stroke-linecap="round" fill="transparent" stroke-linejoin="round" points="85.10693359375 81.47679138183594 83.88272094726563 95.55540466308594 82.65850830078125 102.9007568359375 81.43426513671875 109.02189636230467 81.43426513671875 112.08245849609376 81.43426513671875 110.85823059082033 85.10693359375 103.51287841796876 96.125 88.82215881347656 110.20361328125 72.90721130371094 126.1185302734375 58.82859802246094 139.58502197265625 50.871124267578125 149.990966796875 47.81055450439453 156.7242431640625 47.81055450439453 159.7847900390625 50.259010314941406 159.7847900390625 55.768035888671875 150.60308837890625 67.39817810058594 126.1185302734375 86.37370300292969 101.63400268554688 102.9007568359375 91.8402099609375 108.40977478027344 85.71905517578125 110.85823059082033 92.45230102539063 108.40977478027344 117.5489501953125 98.615966796875 133.46389770507813 91.88272094726563 144.48193359375 88.21003723144531 149.37884521484375 88.21003723144531 149.37884521484375 88.21003723144531 " />
        <polyline stroke="black" stroke-width="3" stroke-linecap="round" fill="transparent" stroke-linejoin="round" points="57.56182861328125 139.6275634765625 58.1739501953125 155.54251098632813 56.337615966796875 167.78477478027344 55.72552490234375 177.57858276367188 55.72552490234375 184.31182861328125 59.398193359375 187.37240600585935 67.35565185546875 186.14816284179688 82.04638671875 177.57858276367188 102.24612426757813 164.11209106445313 124.28219604492188 150.0334930419922 142.64559936523438 139.6275634765625 153.66363525390625 134.11854553222656 160.39691162109375 132.28219604492188 165.9058837890625 131.05796813964844 170.190673828125 131.05796813964844 173.25128173828125 134.11854553222656 176.31182861328125 138.40333557128906 179.3724365234375 143.912353515625 181.208740234375 148.1971435546875 182.4329833984375 151.25772094726563 181.208740234375 153.70616149902344 181.208740234375 153.70616149902344 " />
        <polyline stroke="black" stroke-width="3" stroke-linecap="round" fill="transparent" stroke-linejoin="round" points="142.03350830078125 116.36724853515624 136.52447509765625 126.16107177734376 132.23968505859375 139.6275634765625 126.1185302734375 157.990966796875 118.16107177734376 181.86338806152344 107.755126953125 209.40847778320313 98.57342529296876 227.1597595214844 90.615966796875 238.7899169921875 86.3311767578125 244.91107177734375 83.88272094726563 247.3594970703125 83.88272094726563 247.3594970703125 " />
        </svg>