<?xml version="1.0" standalone="no"?>
    <svg width="256" height="256" xmlns="http://www.w3.org/2000/svg" version="1.1">
    <polyline stroke="black" stroke-width="3" stroke-linecap="round" fill="transparent" stroke-linejoin="round" points="46.84820556640625 60.787445068359375 79.07131958007813 48.03984069824219 105.98291015625 39.54145050048828 131.12399291992188 32.813560485839844 150.59945678710938 27.50205993652344 165.11761474609375 23.96105194091797 174.67828369140625 21.48235321044922 174.67828369140625 21.48235321044922 " />
        <polyline stroke="black" stroke-width="3" stroke-linecap="round" fill="transparent" stroke-linejoin="round" points="96.77630615234376 68.22352600097656 99.60910034179688 89.8236083984375 100.31732177734376 93.71871948242188 100.67141723632813 94.78102111816406 100.67141723632813 94.78102111816406 " />
        <polyline stroke="black" stroke-width="3" stroke-linecap="round" fill="transparent" stroke-linejoin="round" points="97.838623046875 69.9940185546875 118.37640380859376 60.0792236328125 126.16659545898438 57.95465087890625 131.12399291992188 56.89234924316406 136.43548583984375 56.53825378417969 141.03878784179688 57.60054016113281 143.16342163085938 60.0792236328125 143.16342163085938 66.09893798828125 140.33056640625 76.01373291015625 138.20596313476563 80.61703491210938 138.20596313476563 80.61703491210938 " />
        <polyline stroke="black" stroke-width="3" stroke-linecap="round" fill="transparent" stroke-linejoin="round" points="98.90090942382813 101.1548309326172 119.43869018554688 94.07281494140624 127.93707275390624 91.94822692871094 130.415771484375 91.5941162109375 130.415771484375 91.5941162109375 " />
        <polyline stroke="black" stroke-width="3" stroke-linecap="round" fill="transparent" stroke-linejoin="round" points="81.90414428710938 128.7746124267578 86.1533203125 146.47959899902344 90.40252685546876 147.89601135253906 98.19271850585938 145.7714080810547 108.10751342773438 141.522216796875 119.0845947265625 137.27301025390625 129.35348510742188 133.73202514648438 138.20596313476563 131.60739135742188 146.35028076171875 128.7746124267578 146.35028076171875 128.7746124267578 " />
        <polyline stroke="black" stroke-width="3" stroke-linecap="round" fill="transparent" stroke-linejoin="round" points="169.7208251953125 109.65321350097656 168.304443359375 123.81721496582033 " />
        <polyline stroke="black" stroke-width="3" stroke-linecap="round" fill="transparent" stroke-linejoin="round" points="127.58297729492188 102.92532348632813 101.37960815429688 223.31927490234375 " />
        </svg>