<?xml version="1.0" standalone="no"?>
    <svg width="256" height="256" xmlns="http://www.w3.org/2000/svg" version="1.1">
    <polyline stroke="black" stroke-width="3" stroke-linecap="round" fill="transparent" stroke-linejoin="round" points="78.96783447265625 82.81553649902344 88.16278076171875 89.47317504882813 93.22845458984376 92.1153564453125 102.97052001953124 94.55941772460938 104.2265625 94.55804443359376 " />
        <polyline stroke="black" stroke-width="3" stroke-linecap="round" fill="transparent" stroke-linejoin="round" points="127.42877197265624 67.04727172851563 123.6146240234375 76.5491943359375 115.83932495117188 101.4443359375 107.01205444335938 132.9140625 99.6484375 151.57810974121094 84.09823608398438 176.46531677246094 75.52841186523438 183.5456390380859 54.9544677734375 197.0316162109375 53.9132080078125 197.74542236328125 " />
        <polyline stroke="black" stroke-width="3" stroke-linecap="round" fill="transparent" stroke-linejoin="round" points="92.496337890625 163.44822692871094 94.44287109375 179.52586364746094 94.92819213867188 189.96209716796875 94.947265625 199.49038696289065 94.38058471679688 216.88983154296875 93.75982666015624 227.31393432617188 93.64697265625 230.59848022460935 93.66146850585938 231.68194580078125 93.66156005859376 231.68939208984375 93.66162109375 231.69244384765625 101.70236206054688 220.58642578125 107.24884033203124 211.3441162109375 112.43817138671876 202.24359130859375 119.85983276367188 185.94284057617188 119.40625 186.0277404785156 " />
        <polyline stroke="black" stroke-width="3" stroke-linecap="round" fill="transparent" stroke-linejoin="round" points="158.83087158203125 144.34654235839844 163.5623779296875 149.39071655273438 169.1036376953125 157.57662963867188 174.8272705078125 167.60520935058594 187.3702392578125 190.56903076171875 188.67449951171875 192.72525024414065 " />
        </svg>