<?xml version="1.0" standalone="no"?>
    <svg width="256" height="256" xmlns="http://www.w3.org/2000/svg" version="1.1">
    <polyline stroke="black" stroke-width="3" stroke-linecap="round" fill="transparent" stroke-linejoin="round" points="84.03207397460938 62.712249755859375 85.68426513671875 70.14715576171875 87.74951171875 77.58206176757813 91.8800048828125 90.79966735839844 93.94525146484376 96.16934204101563 97.24969482421876 103.604248046875 100.96713256835938 106.90863037109376 108.8150634765625 106.08255004882813 108.8150634765625 106.08255004882813 " />
        <polyline stroke="black" stroke-width="3" stroke-linecap="round" fill="transparent" stroke-linejoin="round" points="160.859375 52.385986328125 155.07672119140625 66.01666259765625 146.40264892578125 83.77781677246094 121.20654296875 131.27859497070313 96.423583984375 170.10531616210938 79.488525390625 191.1708984375 67.923095703125 201.0841064453125 61.314300537109375 204.80154418945313 60.075164794921875 204.80154418945313 60.075164794921875 204.80154418945313 " />
        <polyline stroke="black" stroke-width="3" stroke-linecap="round" fill="transparent" stroke-linejoin="round" points="106.33676147460938 159.779052734375 107.16290283203124 180.4315643310547 109.22811889648438 202.3232421875 111.7064208984375 208.9320373535156 115.01083374023438 211.41033935546875 122.44573974609376 208.9320373535156 131.94589233398438 200.6710205078125 142.27215576171875 187.04037475585935 148.05487060546875 177.54022216796875 148.05487060546875 177.54022216796875 " />
        <polyline stroke="black" stroke-width="3" stroke-linecap="round" fill="transparent" stroke-linejoin="round" points="155.90283203125 158.12686157226563 166.64208984375 172.5836181640625 178.62060546875 187.86648559570313 195.142578125 216.77999877929688 195.142578125 216.77999877929688 " />
        </svg>