<?xml version="1.0" standalone="no"?>
    <svg width="256" height="256" xmlns="http://www.w3.org/2000/svg" version="1.1">
    <polyline stroke="black" stroke-width="3" stroke-linecap="round" fill="transparent" stroke-linejoin="round" points="85.80172729492188 74.08526611328125 89.69281005859375 78.48336791992188 95.554931640625 84.22955322265625 95.71054077148438 84.36422729492188 " />
        <polyline stroke="black" stroke-width="3" stroke-linecap="round" fill="transparent" stroke-linejoin="round" points="129.12860107421875 65.25401306152344 117.418212890625 79.22615051269531 104.01788330078124 93.25514221191406 73.364501953125 126.08432006835938 59.75537109375 143.603271484375 46.42279052734375 164.15737915039063 35.153900146484375 176.3997039794922 34.02703857421875 177.6239471435547 " />
        <polyline stroke="black" stroke-width="3" stroke-linecap="round" fill="transparent" stroke-linejoin="round" points="72.06280517578125 169.41586303710938 74.1793212890625 196.93832397460935 74.73199462890625 208.3203125 73.83786010742188 219.05490112304688 72.910400390625 223.77593994140625 72.90316772460938 223.81292724609375 72.90145874023438 223.82159423828125 72.90130615234375 223.822509765625 72.901123046875 223.8232421875 73.61764526367188 223.61697387695313 78.648193359375 221.54876708984375 85.41326904296875 217.80960083007813 102.26116943359376 204.01470947265625 111.109130859375 195.98309326171875 124.33065795898438 182.47799682617188 130.038330078125 176.85211181640625 135.00433349609375 172.6737060546875 135.50091552734375 172.255859375 " />
        <polyline stroke="black" stroke-width="3" stroke-linecap="round" fill="transparent" stroke-linejoin="round" points="128.080810546875 122.26690673828124 135.18344116210938 133.32186889648438 151.94635009765625 157.075927734375 159.50604248046875 168.54080200195313 165.167236328125 179.0079345703125 180.776123046875 200.10919189453125 181.9190673828125 199.4576110839844 " />
        </svg>