<?xml version="1.0" standalone="no"?>
    <svg width="256" height="256" xmlns="http://www.w3.org/2000/svg" version="1.1">
    <polyline stroke="black" stroke-width="3" stroke-linecap="round" fill="transparent" stroke-linejoin="round" points="72.16830444335938 85.64376831054688 77.12860107421875 89.49105834960938 83.31161499023438 94.04217529296876 95.21249389648438 102.36602783203124 100.2708740234375 105.39999389648438 106.54183959960938 109.02293395996094 106.75140380859376 109.17082214355467 " />
        <polyline stroke="black" stroke-width="3" stroke-linecap="round" fill="transparent" stroke-linejoin="round" points="141.65826416015625 71.69120788574219 136.78253173828125 77.5738525390625 130.48797607421875 87.80293273925781 118.71517944335938 100.38565063476563 101.95993041992188 129.4756317138672 95.8519287109375 145.47305297851563 84.82821655273438 170.92247009277344 74.42901611328125 185.41519165039065 69.34384155273438 190.05776977539065 59.730560302734375 195.77716064453125 58.22161865234375 195.8245849609375 58.0706787109375 195.829345703125 " />
        <polyline stroke="black" stroke-width="3" stroke-linecap="round" fill="transparent" stroke-linejoin="round" points="97.11834716796876 174.26150512695313 99.56890869140624 198.5015869140625 100.44342041015624 210.206787109375 101.07138061523438 227.03048706054688 101.23760986328124 230.41497802734375 101.67025756835938 231.11380004882813 101.69281005859376 231.13018798828125 101.69854736328124 231.1343688964844 102.20623779296876 230.24169921875 121.742919921875 213.7384033203125 129.68392944335938 202.94998168945313 138.82904052734375 185.40704345703125 141.11309814453125 178.75247192382813 141.34149169921875 178.08702087402344 " />
        <polyline stroke="black" stroke-width="3" stroke-linecap="round" fill="transparent" stroke-linejoin="round" points="151.30615234375 139.7967529296875 155.66107177734375 142.2679443359375 166.1639404296875 151.0692138671875 176.64288330078125 163.8017578125 181.23822021484375 169.95126342773438 187.27276611328125 180.01446533203125 189.44036865234375 185.80169677734375 189.6038818359375 187.21548461914065 " />
        </svg>