<?xml version="1.0" standalone="no"?>
    <svg width="256" height="256" xmlns="http://www.w3.org/2000/svg" version="1.1">
    <polyline stroke="black" stroke-width="3" stroke-linecap="round" fill="transparent" stroke-linejoin="round" points="114.899169921875 61.95953369140625 115.74432373046876 67.03054809570313 118.27987670898438 78.44035339355469 121.23797607421876 87.73722839355469 125.46380615234376 96.61151123046876 127.15414428710938 99.9921875 127.15414428710938 99.9921875 " />
        <polyline stroke="black" stroke-width="3" stroke-linecap="round" fill="transparent" stroke-linejoin="round" points="171.10302734375 69.56607055664063 159.6932373046875 79.70809936523438 147.438232421875 91.117919921875 111.09588623046876 124.92474365234376 87.43112182617188 146.47659301757813 67.14706420898438 167.6058349609375 54.469482421875 179.01565551757813 51.08880615234375 181.97373962402344 51.08880615234375 181.97373962402344 " />
        <polyline stroke="black" stroke-width="3" stroke-linecap="round" fill="transparent" stroke-linejoin="round" points="133.91549682617188 122.38922119140624 134.33807373046875 128.30540466308594 135.18328857421875 134.2216033935547 137.71875 153.23794555664063 138.141357421875 159.9993133544922 139.40911865234375 170.56393432617188 140.2542724609375 177.74789428710938 141.09945678710938 182.81890869140625 142.3671875 186.1995849609375 143.63494873046875 188.735107421875 146.17050170898438 190.00286865234375 150.81893920898438 189.58026123046875 156.3125 188.31253051757813 161.383544921875 185.77700805664065 166.031982421875 181.97373962402344 168.1448974609375 179.438232421875 172.7933349609375 174.36721801757813 172.7933349609375 174.36721801757813 " />
        <polyline stroke="black" stroke-width="3" stroke-linecap="round" fill="transparent" stroke-linejoin="round" points="171.94818115234375 119.43112182617188 178.2869873046875 133.79904174804688 185.89349365234375 150.27984619140625 200.6839599609375 179.01565551757813 204.48724365234375 185.77700805664065 214.20672607421875 206.48370361328125 214.20672607421875 206.48370361328125 " />
        </svg>