<?xml version="1.0" standalone="no"?>
    <svg width="256" height="256" xmlns="http://www.w3.org/2000/svg" version="1.1">
    <polyline stroke="black" stroke-width="3" stroke-linecap="round" fill="transparent" stroke-linejoin="round" points="70.33646013674235 64.27495378563259 89.7573618007795 60.97706482381494 116.5069056021892 56.213447434522834 143.9893136173361 52.18269425896793 168.17383267066543 49.25123740401895 186.129005907228 47.785508976544435 196.02267279268085 47.41907686967582 197.4884012201555 47.41907686967582 196.02267279268085 47.41907686967582 196.02267279268085 47.41907686967582 " />
        <polyline stroke="black" stroke-width="3" stroke-linecap="round" fill="transparent" stroke-linejoin="round" points="127.13343670137932 67.93927485431885 125.66770827390484 80.39796648785213 119.43836245713815 100.1853002587579 107.71253503734216 125.10268352582445 93.42168286946576 151.48579522036545 78.39796648785216 176.40317848743203 64.83997853371295 198.02267279268096 57.8777685032091 207.91633967813385 57.8777685032091 207.91633967813385 " />
        <polyline stroke="black" stroke-width="3" stroke-linecap="round" fill="transparent" stroke-linejoin="round" points="142.15715308299298 100.91816447249516 151.6843878615773 100.91816447249516 161.94448685389875 100.55173236562652 173.67031427369488 100.55173236562652 187.22830222783384 100.55173236562652 201.1527222888417 103.48318922057555 211.04638917429452 106.41464607552452 215.44357445671812 108.97967082360492 215.8100065635867 111.54469557168528 213.9778460292437 118.14047349532056 205.9163396781339 133.16418987693422 196.3891048995495 154.7836841821831 187.22830222783384 177.1360427011693 177.33463534238103 196.19051225833775 165.6088079225849 213.41282128116325 152.78368418218315 227.70367344903963 142.15715308299298 237.23090822762384 135.56137515935774 239.06306876196695 127.49986880824798 233.20015505206905 127.49986880824798 233.20015505206905 " />
        <polyline stroke="black" stroke-width="3" stroke-linecap="round" fill="transparent" stroke-linejoin="round" points="84.26088019775011 132.43132566319696 96.35313972441476 138.6606714799636 109.17826346481668 144.5235851898616 123.83554773956166 149.28720257915373 131.16418987693424 151.85222732723412 131.16418987693424 151.85222732723412 " />
        </svg>