<?xml version="1.0" standalone="no"?>
    <svg width="256" height="256" xmlns="http://www.w3.org/2000/svg" version="1.1">
    <polyline stroke="black" stroke-width="3" stroke-linecap="round" fill="transparent" stroke-linejoin="round" points="50 74 57 73 76 67 100 63 125 59 148 55 166 52 179 50 183 49 183 49 " />
        <polyline stroke="black" stroke-width="3" stroke-linecap="round" fill="transparent" stroke-linejoin="round" points="112 88 105 102 97 126 86 150 76 167 69 178 65 186 65 188 65 188 " />
        <polyline stroke="black" stroke-width="3" stroke-linecap="round" fill="transparent" stroke-linejoin="round" points="106 99 112 98 127 94 143 91 157 89 169 89 177 93 182 109 182 135 182 161 179 182 174 199 169 211 164 218 159 222 154 223 144 222 129 206 129 206 " />
        <polyline stroke="black" stroke-width="3" stroke-linecap="round" fill="transparent" stroke-linejoin="round" points="69 129 75 129 98 132 106 133 132 136 149 141 149 141 " />
        </svg>