<?xml version="1.0" standalone="no"?>
    <svg width="256" height="256" xmlns="http://www.w3.org/2000/svg" version="1.1">
    <polyline stroke="black" stroke-width="3" stroke-linecap="round" fill="transparent" stroke-linejoin="round" points="67.19598388671875 99.80636596679688 70.0831298828125 110.20010375976563 75.280029296875 114.8195343017578 75.280029296875 114.8195343017578 " />
        <polyline stroke="black" stroke-width="3" stroke-linecap="round" fill="transparent" stroke-linejoin="round" points="123.78411865234376 66.3154296875 109.348388671875 91.72235107421876 91.44805908203124 118.86154174804688 78.16717529296875 133.87472534179688 66.61856079101563 145.42330932617188 57.37969970703125 152.92990112304688 52.76025390625 155.81704711914063 52.76025390625 155.2396240234375 58.5345458984375 150.04275512695313 69.5057373046875 141.958740234375 85.67376708984375 132.71986389160156 102.99664306640624 122.3261260986328 119.74212646484376 109.04524230957033 132.445556640625 87.1029052734375 132.445556640625 87.1029052734375 " />
        <polyline stroke="black" stroke-width="3" stroke-linecap="round" fill="transparent" stroke-linejoin="round" points="98.95465087890624 61.69599914550781 88.5609130859375 102.11607360839844 78.16717529296875 138.49415588378906 68.92828369140625 174.8722381591797 63.15399169921875 191.61770629882813 58.5345458984375 203.74371337890625 55.64739990234375 208.3631591796875 55.64739990234375 208.3631591796875 " />
        <polyline stroke="black" stroke-width="3" stroke-linecap="round" fill="transparent" stroke-linejoin="round" points="98.377197265625 157.54933166503906 107.03863525390624 163.90106201171875 115.70010375976563 168.5205078125 124.36154174804688 168.5205078125 124.36154174804688 168.5205078125 " />
        <polyline stroke="black" stroke-width="3" stroke-linecap="round" fill="transparent" stroke-linejoin="round" points="138.2198486328125 77.28660583496094 138.2198486328125 92.29977416992188 138.2198486328125 106.1580810546875 137.06500244140625 113.6646728515625 134.75527954101563 116.55181884765624 134.75527954101563 116.55181884765624 " />
        <polyline stroke="black" stroke-width="3" stroke-linecap="round" fill="transparent" stroke-linejoin="round" points="159.00732421875 34.556793212890625 172.86566162109375 31.09221649169922 187.3013916015625 31.09221649169922 197.69512939453125 34.556793212890625 204.046875 41.48595428466797 208.0888671875 54.18940734863281 205.7791748046875 72.08973693847656 194.2305908203125 90.56748962402344 177.485107421875 105.00323486328124 157.85247802734375 114.24211120605467 157.85247802734375 114.24211120605467 " />
        <polyline stroke="black" stroke-width="3" stroke-linecap="round" fill="transparent" stroke-linejoin="round" points="149.1910400390625 94.03205871582033 163.04931640625 88.25776672363281 175.7528076171875 81.32861328125 186.14654541015625 72.08973693847656 193.07568359375 59.963714599609375 193.07568359375 59.963714599609375 " />
        <polyline stroke="black" stroke-width="3" stroke-linecap="round" fill="transparent" stroke-linejoin="round" points="174.0205078125 47.26025390625 172.86566162109375 61.118560791015625 170.555908203125 76.13174438476563 165.9365234375 89.41262817382813 159.58477783203125 98.65150451660156 152.6556396484375 106.1580810546875 145.7264404296875 110.77752685546876 141.6844482421875 113.08724975585938 139.9521484375 114.24211120605467 141.6844482421875 113.6646728515625 148.03616333007813 111.35494995117188 160.16217041015625 107.3129425048828 172.86566162109375 102.69351196289063 180.37225341796875 100.3837890625 185.569091796875 99.22892761230467 187.3013916015625 99.22892761230467 184.99169921875 103.84837341308594 184.99169921875 103.84837341308594 " />
        <polyline stroke="black" stroke-width="3" stroke-linecap="round" fill="transparent" stroke-linejoin="round" points="145.7264404296875 148.31045532226563 158.429931640625 145.42330932617188 171.7108154296875 141.3813018798828 180.94964599609375 137.91673278808594 187.3013916015625 135.6070098876953 189.03369140625 135.6070098876953 184.41424560546875 139.0715789794922 167.66876220703125 150.04275512695313 167.66876220703125 150.04275512695313 " />
        <polyline stroke="black" stroke-width="3" stroke-linecap="round" fill="transparent" stroke-linejoin="round" points="116.85494995117188 189.88540649414065 131.86813354492188 184.68853759765625 155.542724609375 177.18194580078125 172.86566162109375 170.83023071289063 189.03369140625 164.47850036621094 200.0048828125 160.43649291992188 206.3565673828125 157.54933166503906 209.24371337890625 154.0847625732422 209.24371337890625 154.0847625732422 " />
        <polyline stroke="black" stroke-width="3" stroke-linecap="round" fill="transparent" stroke-linejoin="round" points="172.2882080078125 166.7882080078125 171.7108154296875 173.1399383544922 171.13336181640625 180.6465301513672 170.555908203125 189.88540649414065 169.978515625 203.16629028320313 169.40106201171875 218.75689697265625 169.40106201171875 218.75689697265625 " />
        </svg>