<?xml version="1.0" standalone="no"?>
    <svg width="256" height="256" xmlns="http://www.w3.org/2000/svg" version="1.1">
    <polyline stroke="black" stroke-width="3" stroke-linecap="round" fill="transparent" stroke-linejoin="round" points="75.3333740234375 44.888893127441406 94.2222900390625 40.44445037841797 97.5556640625 41.55555725097656 98.666748046875 42.66667175292969 99.77783203125 43.77778625488281 99.77783203125 44.888893127441406 98.666748046875 47.111114501953125 97.5556640625 52.66667175292969 93.1112060546875 63.77778625488281 84.2222900390625 81.55555725097656 64.2222900390625 119.33334350585938 49.77783203125 142.6666717529297 36.44451904296875 159.33334350585938 23.11114501953125 173.7777862548828 18.66668701171875 178.22222900390625 18.66668701171875 178.22222900390625 " />
        <polyline stroke="black" stroke-width="3" stroke-linecap="round" fill="transparent" stroke-linejoin="round" points="69.77783203125 128.22222900390625 88.666748046875 131.55557250976563 88.666748046875 132.6666717529297 88.666748046875 133.7777862548828 89.77783203125 137.11111450195313 89.77783203125 142.6666717529297 89.77783203125 152.6666717529297 89.77783203125 170.4444580078125 90.888916015625 211.5555725097656 90.888916015625 241.5555725097656 90.888916015625 263.7778015136719 90.888916015625 273.7778015136719 90.888916015625 277.1111145019531 92 277.1111145019531 92 277.1111145019531 " />
        <polyline stroke="black" stroke-width="3" stroke-linecap="round" fill="transparent" stroke-linejoin="round" points="113.1112060546875 120.4444580078125 129.77783203125 136.00001525878906 129.77783203125 144.88890075683594 130.888916015625 159.33334350585938 129.77783203125 167.1111297607422 128.666748046875 171.55557250976563 128.666748046875 171.55557250976563 " />
        <polyline stroke="black" stroke-width="3" stroke-linecap="round" fill="transparent" stroke-linejoin="round" points="98.666748046875 199.33334350585935 118.666748046875 183.77780151367188 136.4444580078125 170.4444580078125 158.666748046875 154.88890075683594 180.888916015625 140.4444580078125 205.3333740234375 124.88890075683594 214.2222900390625 120.4444580078125 217.5556640625 119.33334350585938 218.666748046875 118.22222900390624 216.4444580078125 119.33334350585938 216.4444580078125 119.33334350585938 " />
        <polyline stroke="black" stroke-width="3" stroke-linecap="round" fill="transparent" stroke-linejoin="round" points="155.3333740234375 34.888893127441406 173.1112060546875 31.55555725097656 174.2222900390625 31.55555725097656 175.3333740234375 32.66667175292969 175.3333740234375 34.888893127441406 177.5556640625 49.33333587646485 178.666748046875 69.33334350585938 182 98.22222900390624 184.2222900390625 153.7777862548828 185.3333740234375 192.66668701171875 185.3333740234375 230.4444580078125 184.2222900390625 260.4444580078125 180.888916015625 284.888916015625 175.3333740234375 304.888916015625 175.3333740234375 304.888916015625 " />
        </svg>