<?xml version="1.0" standalone="no"?>
    <svg width="256" height="256" xmlns="http://www.w3.org/2000/svg" version="1.1">
    <polyline stroke="black" stroke-width="3" stroke-linecap="round" fill="transparent" stroke-linejoin="round" points="103.28887939453124 21.61244201660156 87.45498657226563 44.75431060791016 62.48614501953125 83.12107849121094 42.99822998046875 119.0518798828125 27.773345947265625 150.71969604492188 20.46539306640625 162.8996124267578 20.46539306640625 162.8996124267578 " />
        <polyline stroke="black" stroke-width="3" stroke-linecap="round" fill="transparent" stroke-linejoin="round" points="66.14013671875 95.91000366210938 67.96710205078125 113.57090759277344 67.96710205078125 126.96882629394533 67.96710205078125 142.19374084472656 68.57611083984375 158.6366424560547 69.79409790039063 172.64356994628906 70.403076171875 185.4324951171875 71.62109375 193.95843505859375 72.83908081054688 200.04840087890625 74.66607666015625 204.92037963867188 74.66607666015625 204.92037963867188 " />
        <polyline stroke="black" stroke-width="3" stroke-linecap="round" fill="transparent" stroke-linejoin="round" points="146.52764892578125 52.06226348876953 143.482666015625 69.11416625976563 138.61068725585938 85.55706787109375 127.03976440429688 112.35292053222656 108.76986694335938 144.02073669433594 97.19891357421876 158.6366424560547 97.19891357421876 158.6366424560547 " />
        <polyline stroke="black" stroke-width="3" stroke-linecap="round" fill="transparent" stroke-linejoin="round" points="73.44805908203125 182.9964904785156 91.10897827148438 173.86155700683594 104.50689697265624 167.16259765625 121.55877685546876 159.24563598632813 140.43768310546875 151.3286895751953 158.70758056640625 142.802734375 178.1954345703125 133.0587921142578 197.0743408203125 120.26986694335938 211.081298828125 105.04495239257813 221.4342041015625 85.55706787109375 221.4342041015625 85.55706787109375 " />
        <polyline stroke="black" stroke-width="3" stroke-linecap="round" fill="transparent" stroke-linejoin="round" points="181.8494873046875 41.709327697753906 181.240478515625 52.06226348876953 180.0224609375 67.89617919921875 177.58642578125 100.17298889160156 176.36846923828125 126.35983276367188 176.36846923828125 151.93768310546875 176.36846923828125 170.20758056640625 177.58642578125 187.86846923828125 176.97747802734375 204.31137084960935 177.58642578125 226.84423828125 177.58642578125 226.84423828125 " />
        </svg>