<?xml version="1.0" standalone="no"?>
    <svg width="256" height="256" xmlns="http://www.w3.org/2000/svg" version="1.1">
    <polyline stroke="black" stroke-width="3" stroke-linecap="round" fill="transparent" stroke-linejoin="round" points="112.37060546875 86.41213989257813 113.208740234375 104.80502319335938 113.38375854492188 146.45535278320313 112.4365234375 176.29110717773438 111.80975341796876 188.84002685546875 111.07992553710938 205.60418701171875 110.5616455078125 208.7989501953125 109.94711303710938 211.47836303710935 109.67828369140624 211.77801513671875 109.64935302734376 211.81024169921875 109.64865112304688 211.81106567382813 109.64852905273438 211.8111572265625 108.6812744140625 211.0145568847656 107.64715576171876 210.20281982421875 99.65438842773438 200.9795837402344 93.37225341796876 192.9990234375 85.12933349609375 183.6985321044922 83.927734375 182.32505798339844 " />
        <polyline stroke="black" stroke-width="3" stroke-linecap="round" fill="transparent" stroke-linejoin="round" points="104.61505126953124 126.74327087402344 99.83578491210938 133.54234313964844 86.11459350585938 150.00730895996094 63.779144287109375 172.376953125 62.4765625 173.57742309570313 " />
        <polyline stroke="black" stroke-width="3" stroke-linecap="round" fill="transparent" stroke-linejoin="round" points="157.016357421875 92.03463745117188 160.92864990234375 110.47378540039063 162.793212890625 130.28787231445313 163.6949462890625 166.885986328125 163.46807861328125 178.75975036621094 162.19256591796875 195.4595947265625 160.93988037109375 201.99313354492188 160.542724609375 207.285400390625 160.5030517578125 207.81463623046875 " />
        <polyline stroke="black" stroke-width="3" stroke-linecap="round" fill="transparent" stroke-linejoin="round" points="174.676025390625 128.46043395996094 189.377197265625 134.0135955810547 199.369140625 139.38705444335938 215.35809326171875 149.47744750976563 221.8604736328125 153.68402099609375 229.628662109375 157.93850708007813 230.88897705078125 158.4053955078125 230.89739990234375 158.40853881835938 " />
        </svg>