<?xml version="1.0" standalone="no"?>
    <svg width="256" height="256" xmlns="http://www.w3.org/2000/svg" version="1.1">
    <polyline stroke="black" stroke-width="3" stroke-linecap="round" fill="transparent" stroke-linejoin="round" points="116.93682861328124 68.62240600585938 122.44586181640624 116.36724853515624 123.67010498046876 144.52447509765625 123.0579833984375 165.33631896972656 121.833740234375 179.41493225097656 119.99740600585938 188.59661865234375 116.93682861328124 194.10565185546875 111.42782592773438 197.16622924804688 104.08245849609376 195.32986450195313 96.125 189.82086181640625 96.125 189.82086181640625 " />
        <polyline stroke="black" stroke-width="3" stroke-linecap="round" fill="transparent" stroke-linejoin="round" points="113.87628173828124 113.3066864013672 91.8402099609375 146.36080932617188 78.37371826171875 164.11209106445313 64.29510498046875 179.41493225097656 53.88916015625 189.208740234375 48.99224853515625 192.26931762695313 50.21649169921875 189.208740234375 50.21649169921875 189.208740234375 " />
        <polyline stroke="black" stroke-width="3" stroke-linecap="round" fill="transparent" stroke-linejoin="round" points="179.9844970703125 55.768035888671875 181.208740234375 90.04638671875 179.3724365234375 122.48838806152344 178.148193359375 148.80926513671875 178.148193359375 167.17266845703125 175.69970703125 183.08761596679688 173.8634033203125 192.88140869140625 171.4149169921875 198.39044189453125 171.4149169921875 198.39044189453125 " />
        <polyline stroke="black" stroke-width="3" stroke-linecap="round" fill="transparent" stroke-linejoin="round" points="163.45745849609375 110.85823059082033 176.31182861328125 115.75514221191406 190.39044189453125 123.10049438476563 203.24481201171875 131.6700897216797 212.426513671875 139.6275634765625 219.7718505859375 150.0334930419922 227.7293701171875 167.78477478027344 227.7293701171875 167.78477478027344 " />
        </svg>