<?xml version="1.0" standalone="no"?>
    <svg width="256" height="256" xmlns="http://www.w3.org/2000/svg" version="1.1">
    <polyline stroke="black" stroke-width="3" stroke-linecap="round" fill="transparent" stroke-linejoin="round" points="96.2513427734375 77.58517456054688 100.0567626953125 107.0469207763672 101.5164794921875 122.95370483398438 102.293701171875 137.98361206054688 103.05682373046876 167.39292907714844 102.64227294921876 189.977294921875 102.45162963867188 199.44097900390625 101.75570678710938 210.63385009765625 101.6903076171875 213.33001708984375 100.95111083984376 216.67498779296875 100.92230224609376 218.70089721679688 100.92587280273438 218.753662109375 100.92721557617188 218.773681640625 100.92742919921876 218.77682495117188 100.01034545898438 218.22393798828125 99.16293334960938 217.8959045410156 96.4056396484375 217.33355712890625 91.7811279296875 216.12139892578125 87.75827026367188 213.84097290039065 87.047607421875 213.20556640625 " />
        <polyline stroke="black" stroke-width="3" stroke-linecap="round" fill="transparent" stroke-linejoin="round" points="95.89840698242188 129.9745330810547 90.55303955078124 136.728271484375 74.26605224609375 151.6278076171875 48.802490234375 172.47695922851563 37.928070068359375 180.45849609375 36.840667724609375 181.2566375732422 " />
        <polyline stroke="black" stroke-width="3" stroke-linecap="round" fill="transparent" stroke-linejoin="round" points="126.706298828125 72.02618408203125 129.26559448242188 79.30538940429688 136.26861572265625 112.16148376464844 138.66009521484375 132.29251098632813 141.33578491210938 167.5708465576172 141.29550170898438 182.64093017578125 140.48532104492188 199.929443359375 139.85226440429688 204.32254028320313 136.92059326171875 211.08236694335935 149.841064453125 219.31243896484375 153.70208740234375 219.022216796875 " />
        <polyline stroke="black" stroke-width="3" stroke-linecap="round" fill="transparent" stroke-linejoin="round" points="166.33477783203125 144.27244567871094 180.1185302734375 145.64634704589844 187.4898681640625 147.15721130371094 205.4705810546875 151.99227905273438 211.3560791015625 154.1854248046875 214.392333984375 155.4461669921875 214.41156005859375 155.4541473388672 214.41693115234375 155.45635986328125 " />
        </svg>