<?xml version="1.0" standalone="no"?>
    <svg width="256" height="256" xmlns="http://www.w3.org/2000/svg" version="1.1">
    <polyline stroke="black" stroke-width="3" stroke-linecap="round" fill="transparent" stroke-linejoin="round" points="125.52960205078124 48.11888122558594 128.31768798828125 81.57611083984375 129.43295288085938 111.12998962402344 129.99057006835938 138.45339965820313 129.99057006835938 156.85487365722656 128.87530517578125 171.91062927246094 126.08721923828124 180.83255004882813 122.18389892578124 185.29351806640625 116.050048828125 186.96636962890625 105.45526123046876 183.62066650390625 94.8604736328125 174.69873046875 87.61138916015625 161.3158416748047 87.61138916015625 161.3158416748047 " />
        <polyline stroke="black" stroke-width="3" stroke-linecap="round" fill="transparent" stroke-linejoin="round" points="124.41436767578124 117.26382446289063 109.91622924804688 130.08909606933594 89.28427124023438 148.49057006835938 71.4404296875 162.4310760498047 58.057525634765625 171.91062927246094 50.8084716796875 178.04444885253906 50.8084716796875 178.04444885253906 " />
        <polyline stroke="black" stroke-width="3" stroke-linecap="round" fill="transparent" stroke-linejoin="round" points="169.58160400390625 50.906982421875 170.1392822265625 70.9813232421875 170.6968994140625 101.65045166015624 171.8121337890625 125.6281280517578 172.9273681640625 149.04818725585938 172.9273681640625 166.3344268798828 171.8121337890625 180.83255004882813 170.1392822265625 190.3121032714844 167.90875244140625 195.3306884765625 167.90875244140625 195.3306884765625 " />
        <polyline stroke="black" stroke-width="3" stroke-linecap="round" fill="transparent" stroke-linejoin="round" points="156.19873046875 108.89950561523438 165.12066650390625 109.45713806152344 176.8306884765625 112.2452392578125 189.09832763671875 117.26382446289063 199.693115234375 122.84002685546876 206.94219970703125 127.85861206054688 211.9608154296875 134.550048828125 211.9608154296875 134.550048828125 " />
        </svg>