<?xml version="1.0" standalone="no"?>
    <svg width="256" height="256" xmlns="http://www.w3.org/2000/svg" version="1.1">
    <polyline stroke="black" stroke-width="3" stroke-linecap="round" fill="transparent" stroke-linejoin="round" points="49.0198974609375 81.77580261230469 51.660003662109375 148.768310546875 55.62017822265625 196.6201171875 53.31005859375 205.8604431152344 53.31005859375 205.8604431152344 53.31005859375 205.8604431152344 " />
        <polyline stroke="black" stroke-width="3" stroke-linecap="round" fill="transparent" stroke-linejoin="round" points="75.09091186523438 65.93521118164063 119.642578125 54.384788513183594 168.81439208984375 49.764617919921875 194.8853759765625 55.0447998046875 197.1954345703125 56.03483581542969 201.81561279296875 62.96510314941406 204.4556884765625 80.12574768066406 203.79571533203125 102.56657409667967 202.8056640625 125.99745178222656 203.4656982421875 148.768310546875 205.11578369140625 171.2091522216797 207.4259033203125 188.6997985839844 208.08587646484375 202.23031616210935 207.0958251953125 211.470703125 204.125732421875 220.7110290527344 200.49560546875 227.9713134765625 197.1954345703125 231.2713928222656 197.1954345703125 231.2713928222656 197.1954345703125 231.2713928222656 " />
        <polyline stroke="black" stroke-width="3" stroke-linecap="round" fill="transparent" stroke-linejoin="round" points="119.31256103515624 95.63633728027344 125.25277709960938 141.50804138183594 125.582763671875 149.09832763671875 124.59274291992188 168.8990936279297 122.28268432617188 180.11947631835938 119.31256103515624 184.40966796875 113.37234497070313 186.05972290039065 105.4520263671875 183.7496337890625 105.4520263671875 183.7496337890625 105.4520263671875 183.7496337890625 " />
        <polyline stroke="black" stroke-width="3" stroke-linecap="round" fill="transparent" stroke-linejoin="round" points="72.45077514648438 122.69734191894533 66.51058959960938 150.4183807373047 66.51058959960938 160.64877319335938 67.17059326171875 160.978759765625 76.0809326171875 159.65872192382813 91.92153930664063 152.0684356689453 108.09213256835938 142.82809448242188 126.24282836914063 131.93768310546875 132.5130615234375 126.98748779296876 132.5130615234375 126.98748779296876 " />
        <polyline stroke="black" stroke-width="3" stroke-linecap="round" fill="transparent" stroke-linejoin="round" points="154.29388427734375 103.88665771484376 136.80319213867188 121.70730590820313 131.19302368164063 131.60769653320313 138.12322998046875 137.5478973388672 141.42340087890625 138.8679656982422 156.60400390625 142.82809448242188 166.8343505859375 145.7982177734375 166.8343505859375 145.7982177734375 166.8343505859375 145.7982177734375 " />
        <polyline stroke="black" stroke-width="3" stroke-linecap="round" fill="transparent" stroke-linejoin="round" points="78.06100463867188 196.95013427734375 126.24282836914063 190.679931640625 134.8231201171875 190.34988403320313 160.23406982421875 190.01986694335935 182.01495361328125 191.00991821289065 197.85546875 192.65997314453125 203.79571533203125 194.31005859375 205.11578369140625 195.63006591796875 205.11578369140625 195.63006591796875 205.11578369140625 195.63006591796875 " />
        </svg>