<?xml version="1.0" standalone="no"?>
    <svg width="256" height="256" xmlns="http://www.w3.org/2000/svg" version="1.1">
    <polyline stroke="black" stroke-width="3" stroke-linecap="round" fill="transparent" stroke-linejoin="round" points="63.23004150390625 101.62789916992188 62.576416015625 108.8179931640625 56.03997802734375 163.72402954101563 54.732666015625 178.7578125 52.1181640625 204.90353393554688 52.1181640625 223.20559692382813 56.693603515625 232.3565673828125 65.1910400390625 226.47381591796875 65.1910400390625 226.47381591796875 " />
        <polyline stroke="black" stroke-width="3" stroke-linecap="round" fill="transparent" stroke-linejoin="round" points="82.18572998046875 80.05766296386719 84.80029296875 78.75038146972656 109.63873291015624 72.86759948730469 113.56060791015624 72.86759948730469 130.55535888671875 71.56031799316406 143.628173828125 71.56031799316406 156.04742431640625 72.21394348144531 166.5057373046875 74.17488098144531 175.65667724609375 80.05766296386719 184.154052734375 102.28155517578124 186.7686767578125 133.00279235839844 188.07598876953125 168.2995147705078 188.7296142578125 198.36712646484375 189.38323974609375 218.63006591796875 188.7296142578125 228.43472290039065 184.154052734375 232.3565673828125 180.23223876953125 229.74203491210935 179.57855224609375 228.43472290039065 179.57855224609375 228.43472290039065 " />
        <polyline stroke="black" stroke-width="3" stroke-linecap="round" fill="transparent" stroke-linejoin="round" points="121.404296875 135.61734008789063 122.0579833984375 141.50015258789063 122.71160888671876 184.64059448242188 122.71160888671876 188.56246948242188 122.71160888671876 201.6353454589844 122.71160888671876 207.51812744140625 119.443359375 210.1327209472656 115.52154541015624 205.5572204589844 112.90692138671876 193.7916259765625 112.90692138671876 189.8697509765625 112.90692138671876 189.8697509765625 " />
        <polyline stroke="black" stroke-width="3" stroke-linecap="round" fill="transparent" stroke-linejoin="round" points="89.37579345703125 175.48960876464844 89.37579345703125 178.7578125 89.37579345703125 179.4114532470703 90.0294189453125 180.0651092529297 93.29766845703124 177.45054626464844 96.56585693359376 176.1432342529297 105.063232421875 170.2604522705078 114.86785888671876 163.0703582763672 125.326171875 157.8412322998047 133.16986083984375 157.1875762939453 133.16986083984375 157.1875762939453 " />
        <polyline stroke="black" stroke-width="3" stroke-linecap="round" fill="transparent" stroke-linejoin="round" points="137.745361328125 147.3829345703125 127.94073486328124 158.494873046875 126.63348388671876 160.455810546875 125.97979736328124 162.41673278808594 125.97979736328124 164.377685546875 129.90167236328125 169.6068115234375 137.09173583984375 174.1823272705078 146.24273681640625 180.0651092529297 157.35467529296875 186.60153198242188 166.5057373046875 195.7525329589844 168.46661376953125 198.36712646484375 168.46661376953125 198.36712646484375 " />
        <polyline stroke="black" stroke-width="3" stroke-linecap="round" fill="transparent" stroke-linejoin="round" points="80.22479248046875 228.43472290039065 118.78973388671876 227.12741088867188 129.24798583984375 227.12741088867188 150.81829833984375 227.12741088867188 166.5057373046875 227.78109741210935 188.07598876953125 235.62478637695313 194.6123046875 240.85394287109375 194.6123046875 240.85394287109375 " />
        </svg>