<?xml version="1.0" standalone="no"?>
    <svg width="256" height="256" xmlns="http://www.w3.org/2000/svg" version="1.1">
    <polyline stroke="black" stroke-width="3" stroke-linecap="round" fill="transparent" stroke-linejoin="round" points="83.10205078125 81.52015686035156 98.08786010742188 78.28326416015625 105.86581420898438 76.77915954589844 119.6851806640625 75.16067504882813 126.3568115234375 74.42167663574219 136.67974853515625 73.3466796875 144.69287109375 73.933349609375 147.5057373046875 74.19126892089844 150.93792724609375 75.38006591796875 151.54248046875 75.88876342773438 152.3275146484375 77.05368041992188 154.2379150390625 81.82879638671875 156.4732666015625 91.77182006835938 157.69744873046875 105.13615417480467 156.69537353515625 137.97940063476563 151.77392578125 165.10057067871094 149.15499877929688 176.18321228027344 144.5069580078125 193.83810424804688 142.48663330078125 201.94204711914065 140.8492431640625 210.73373413085935 140.02792358398438 212.99826049804688 138.37066650390625 215.78402709960935 138.39450073242188 215.87936401367188 " />
        <polyline stroke="black" stroke-width="3" stroke-linecap="round" fill="transparent" stroke-linejoin="round" points="81.16781616210938 197.86166381835935 90.0491943359375 195.9105529785156 111.77215576171876 192.08056640625 123.34442138671876 190.88742065429688 139.6368408203125 191.9017333984375 146.66549682617188 194.8807373046875 146.44760131835938 196.16714477539065 145.27203369140625 196.9071044921875 144.920654296875 197.1282958984375 " />
        </svg>