<?xml version="1.0" standalone="no"?>
    <svg width="256" height="256" xmlns="http://www.w3.org/2000/svg" version="1.1">
    <polyline stroke="black" stroke-width="3" stroke-linecap="round" fill="transparent" stroke-linejoin="round" points="89.93963623046875 79.719482421875 99.363525390625 78.36685180664063 110.89352416992188 77.2828369140625 120.62890625 76.65780639648438 141.2991943359375 75.31326293945313 151.6116943359375 73.83277893066406 153.97021484375 73.063720703125 155.7740478515625 71.93550109863281 155.856201171875 71.904541015625 156.059326171875 71.66702270507813 156.08441162109375 71.63774108886719 156.2392578125 73.54122924804688 157.04486083984375 94.64907836914063 156.82513427734375 108.91661071777344 153.89923095703125 134.56582641601563 152.220458984375 147.31634521484375 149.30160522460938 169.3701629638672 148.581298828125 175.60130310058594 146.90142822265625 186.84014892578125 146.53271484375 190.9384765625 146.495849609375 191.34832763671875 " />
        <polyline stroke="black" stroke-width="3" stroke-linecap="round" fill="transparent" stroke-linejoin="round" points="104.59664916992188 197.45361328125 122.95111083984376 199.3408203125 131.56185913085938 200.35076904296875 143.92181396484375 201.72076416015625 147.94915771484375 202.0631103515625 150.23690795898438 201.67111206054688 150.3153076171875 201.65655517578125 150.33566284179688 201.65277099609375 " />
        </svg>