<?xml version="1.0" standalone="no"?>
    <svg width="256" height="256" xmlns="http://www.w3.org/2000/svg" version="1.1">
    <polyline stroke="black" stroke-width="3" stroke-linecap="round" fill="transparent" stroke-linejoin="round" points="91 74 91 76 92 80 91 87 90 97 88 108 87 120 86 138 86 149 86 159 87 168 88 174 89 179 90 182 91 182 " />
        <polyline stroke="black" stroke-width="3" stroke-linecap="round" fill="transparent" stroke-linejoin="round" points="89 92 93 89 97 87 102 85 110 83 115 82 121 81 128 79 136 77 144 75 152 74 160 73 167 72 177 74 182 77 186 83 189 93 191 105 192 118 192 133 192 146 192 162 192 170 191 177 189 181 187 185 184 187 180 188 176 187 171 185 169 183 167 181 " />
        <polyline stroke="black" stroke-width="3" stroke-linecap="round" fill="transparent" stroke-linejoin="round" points="110 123 110 124 110 125 110 127 111 129 111 131 111 133 111 134 111 136 111 137 111 137 111 137 111 137 112 136 113 133 115 128 118 122 122 116 127 110 133 104 138 100 144 97 151 95 155 95 158 96 159 98 159 103 156 109 153 116 148 123 142 129 133 137 126 140 119 143 114 144 109 145 106 145 103 145 102 145 101 145 101 145 103 145 106 144 110 143 116 142 123 142 126 142 130 142 " />
        </svg>