<?xml version="1.0" standalone="no"?>
    <svg width="256" height="256" xmlns="http://www.w3.org/2000/svg" version="1.1">
    <polyline stroke="black" stroke-width="3" stroke-linecap="round" fill="transparent" stroke-linejoin="round" points="53.640106201171875 88.04603576660156 57.27020263671875 145.7982177734375 67.17059326171875 189.6898498535156 68.16061401367188 193.98001098632813 69.15066528320313 198.93020629882813 69.15066528320313 198.93020629882813 69.15066528320313 198.93020629882813 " />
        <polyline stroke="black" stroke-width="3" stroke-linecap="round" fill="transparent" stroke-linejoin="round" points="69.81069946289063 46.4644775390625 75.4208984375 45.144432067871094 111.39224243164063 38.87419128417969 118.98251342773438 38.21417236328125 143.73345947265625 41.51429748535156 166.17431640625 48.114540100097656 186.965087890625 66.26521301269531 192.5753173828125 79.79573059082031 197.5255126953125 104.8766632080078 198.18548583984375 127.64753723144533 194.8853759765625 144.8081512451172 190.26519775390625 157.67864990234375 182.01495361328125 166.9189910888672 170.13446044921875 172.85922241210938 159.57403564453125 170.5491180419922 159.57403564453125 170.5491180419922 " />
        <polyline stroke="black" stroke-width="3" stroke-linecap="round" fill="transparent" stroke-linejoin="round" points="95.22164916992188 97.9464111328125 93.901611328125 103.55662536621094 93.901611328125 104.21664428710938 94.56161499023438 105.20668029785156 96.87173461914063 105.53669738769533 103.14193725585938 100.25651550292967 114.03231811523438 86.72598266601563 121.62261962890624 80.7857666015625 127.89291381835938 78.80569458007813 134.49310302734375 80.12574768066406 140.10336303710938 84.08589172363281 143.07342529296875 88.7060546875 140.433349609375 98.6064453125 127.5628662109375 112.46696472167967 113.37234497070313 118.73719787597656 103.14193725585938 121.04728698730467 96.54168701171876 121.70730590820313 94.23162841796876 121.04728698730467 93.2415771484375 120.3872528076172 92.91159057617188 120.3872528076172 92.91159057617188 120.3872528076172 92.91159057617188 120.3872528076172 " />
        </svg>