<?xml version="1.0" standalone="no"?>
    <svg width="256" height="256" xmlns="http://www.w3.org/2000/svg" version="1.1">
    <polyline stroke="black" stroke-width="3" stroke-linecap="round" fill="transparent" stroke-linejoin="round" points="72.20907592773438 107.4004364013672 75.93682861328125 112.57853698730467 82.592529296875 121.47129821777344 86.0748291015625 124.7911376953125 86.32684326171875 125.01998901367188 " />
        <polyline stroke="black" stroke-width="3" stroke-linecap="round" fill="transparent" stroke-linejoin="round" points="110.0948486328125 63.14964294433594 118.73529052734376 58.8756103515625 148.541748046875 48.921875 158.0567626953125 47.03850555419922 164.88372802734375 49.73424530029297 165.9857177734375 52.44319152832031 164.72271728515625 59.431549072265625 164.01531982421875 67.04299926757813 158.7615966796875 84.67318725585938 137.05746459960938 100.34074401855467 116.46728515625 110.19808959960938 105.92587280273438 112.00894165039063 " />
        <polyline stroke="black" stroke-width="3" stroke-linecap="round" fill="transparent" stroke-linejoin="round" points="115.63143920898438 109.84548950195313 121.27996826171876 107.51792907714844 132.01220703125 102.69424438476563 136.56219482421875 100.64738464355467 150.81820678710938 97.4724578857422 153.85797119140625 96.77740478515624 154.084228515625 96.72569274902344 " />
        <polyline stroke="black" stroke-width="3" stroke-linecap="round" fill="transparent" stroke-linejoin="round" points="101.14373779296876 159.001220703125 104.38803100585938 164.85107421875 103.92901611328124 170.3951873779297 103.87127685546876 170.81834411621094 " />
        <polyline stroke="black" stroke-width="3" stroke-linecap="round" fill="transparent" stroke-linejoin="round" points="156.96160888671875 141.66769409179688 146.21273803710938 152.61236572265625 122.06915283203124 164.37521362304688 111.9013671875 169.507568359375 " />
        <polyline stroke="black" stroke-width="3" stroke-linecap="round" fill="transparent" stroke-linejoin="round" points="77.210693359375 194.94158935546875 83.19189453125 191.17633056640625 89.95272827148438 187.1102600097656 117.36968994140624 178.42034912109375 137.27349853515625 175.14385986328125 155.94622802734375 173.69754028320313 175.15045166015625 172.62083435058594 179.3154296875 172.5828857421875 183.41058349609375 173.20079040527344 184.4368896484375 173.93711853027344 184.5146484375 175.72479248046875 184.5196533203125 175.84019470214844 " />
        </svg>