<?xml version="1.0" standalone="no"?>
    <svg width="256" height="256" xmlns="http://www.w3.org/2000/svg" version="1.1">
    <polyline stroke="black" stroke-width="3" stroke-linecap="round" fill="transparent" stroke-linejoin="round" points="81.72027587890625 81.65469360351563 82.95941162109375 91.56790161132813 84.19857788085938 101.06805419921876 85.024658203125 109.32908630371094 86.67684936523438 121.7205810546875 87.50299072265625 128.32937622070313 87.08993530273438 129.9815673828125 86.26385498046875 129.5685272216797 85.024658203125 124.61192321777344 84.61163330078125 111.807373046875 87.50299072265625 97.35061645507813 89.98129272460938 90.7418212890625 97.41619873046876 79.1763916015625 108.56854248046876 68.43708801269531 132.9384765625 54.39338684082031 149.87353515625 49.43678283691406 162.6781005859375 48.61067962646485 167.2216796875 49.02372741699219 175.06964111328125 53.98033142089844 177.5479736328125 65.1326904296875 173.83050537109375 84.13299560546875 163.0911865234375 103.13333129882813 149.04745483398438 117.17703247070313 149.04745483398438 117.17703247070313 " />
        <polyline stroke="black" stroke-width="3" stroke-linecap="round" fill="transparent" stroke-linejoin="round" points="90.394287109375 122.5466766357422 99.4814453125 121.7205810546875 108.56854248046876 120.89447021484376 117.6556396484375 119.6553192138672 132.9384765625 117.59007263183594 139.13424682617188 116.76397705078124 147.80828857421875 115.9378662109375 151.9388427734375 116.76397705078124 151.9388427734375 116.76397705078124 " />
        <polyline stroke="black" stroke-width="3" stroke-linecap="round" fill="transparent" stroke-linejoin="round" points="78.41586303710938 165.09085083007813 80.48114013671875 171.28660583496094 82.95941162109375 177.48236083984375 90.394287109375 189.4608154296875 97.41619873046876 192.7652282714844 108.9815673828125 191.52606201171875 127.15576171875 181.61285400390625 144.50390625 165.50390625 156.48236083984375 154.35154724121094 163.0911865234375 148.15579223632813 166.3956298828125 145.677490234375 166.80859375 145.26443481445313 164.330322265625 149.8079833984375 153.59100341796875 163.4386444091797 144.0908203125 173.3518524169922 112.69906616210938 197.30877685546875 94.11175537109376 205.56976318359375 80.48114013671875 208.46112060546875 74.69842529296875 208.46112060546875 73.45928955078125 207.63504028320313 75.1114501953125 205.15673828125 88.74212646484375 198.96096801757813 114.7642822265625 190.69998168945313 138.30816650390625 184.91726684570313 160.1998291015625 182.43896484375 182.09149169921875 184.0911865234375 196.13519287109375 188.63470458984375 196.13519287109375 188.63470458984375 " />
        </svg>