<?xml version="1.0" standalone="no"?>
    <svg width="256" height="256" xmlns="http://www.w3.org/2000/svg" version="1.1">
    <polyline stroke="black" stroke-width="3" stroke-linecap="round" fill="transparent" stroke-linejoin="round" points="93.57156372070313 90.026123046875 99.51181030273438 87.05601501464844 133.17303466796875 73.19548034667969 139.7733154296875 70.88539123535156 156.60400390625 62.96510314941406 164.19427490234375 57.354888916015625 164.19427490234375 57.354888916015625 " />
        <polyline stroke="black" stroke-width="3" stroke-linecap="round" fill="transparent" stroke-linejoin="round" points="122.28268432617188 62.63508605957031 121.29263305664063 68.90533447265625 109.41217041015624 101.5765380859375 106.44207763671876 107.51678466796876 94.56161499023438 120.71728515625 82.35116577148438 128.30755615234375 77.07095336914063 129.95761108398438 75.09091186523438 128.9675750732422 78.06100463867188 123.35736083984376 91.26150512695313 111.1469268798828 108.42214965820313 102.236572265625 129.54293823242188 95.96633911132813 149.013671875 92.99623107910156 159.904052734375 93.32624816894533 163.8642578125 94.64630126953124 163.8642578125 94.64630126953124 163.8642578125 94.64630126953124 " />
        <polyline stroke="black" stroke-width="3" stroke-linecap="round" fill="transparent" stroke-linejoin="round" points="90.93148803710938 156.68861389160156 97.53170776367188 155.69857788085938 130.20297241210938 148.10829162597656 136.80319213867188 146.1282501220703 154.29388427734375 136.2278594970703 154.29388427734375 136.2278594970703 154.29388427734375 136.2278594970703 " />
        <polyline stroke="black" stroke-width="3" stroke-linecap="round" fill="transparent" stroke-linejoin="round" points="121.62261962890624 140.51800537109375 97.53170776367188 175.82933044433594 92.25152587890624 181.7695770263672 77.07095336914063 197.61013793945313 64.86053466796875 205.53042602539065 59.250274658203125 207.84054565429688 56.610198974609375 207.84054565429688 56.610198974609375 206.8504943847656 67.83062744140625 202.56036376953125 86.97134399414063 196.29010009765625 108.42214965820313 191.66995239257813 129.54293823242188 190.679931640625 147.69363403320313 193.32000732421875 158.583984375 197.28012084960935 158.583984375 197.28012084960935 " />
        </svg>