<?xml version="1.0" standalone="no"?>
    <svg width="256" height="256" xmlns="http://www.w3.org/2000/svg" version="1.1">
    <polyline stroke="black" stroke-width="3" stroke-linecap="round" fill="transparent" stroke-linejoin="round" points="109.01650066914424 92.85759399604656 118.37814785704126 91.20553860994708 131.594590945837 88.45211296644794 144.26034890593297 85.97402988729874 153.07131096513012 84.04663193684937 156.92610686602893 83.22060424379964 157.20144943037883 82.94526167944971 156.92610686602893 82.94526167944971 156.92610686602893 82.94526167944971 " />
        <polyline stroke="black" stroke-width="3" stroke-linecap="round" fill="transparent" stroke-linejoin="round" points="140.95623813373402 70.27950371935378 140.68089556938412 82.11923398639999 139.3041827476345 96.4370473325954 137.92746992588496 108.00143503529168 135.17404428238586 117.36308222318868 135.17404428238586 117.36308222318868 " />
        <polyline stroke="black" stroke-width="3" stroke-linecap="round" fill="transparent" stroke-linejoin="round" points="107.9151304117446 127.27541453978552 113.69732426309275 126.72472941108568 124.1603417083894 123.97130376758656 137.10144223283527 120.1165078666878 150.59322788598092 116.81239709448886 162.43295815302713 113.78362888663985 171.24392021222434 112.13157350054036 176.47542893487264 111.85623093619046 177.85214175662213 111.85623093619046 177.85214175662213 111.85623093619046 " />
        <polyline stroke="black" stroke-width="3" stroke-linecap="round" fill="transparent" stroke-linejoin="round" points="111.76992631264336 158.66446687567546 123.60965657968956 154.53432841042678 138.47815505458482 149.85350481647828 151.96994070773053 145.7233663512296 160.50556020257773 141.86857045033085 162.70830071737703 138.01377454943207 162.70830071737703 138.01377454943207 " />
        <polyline stroke="black" stroke-width="3" stroke-linecap="round" fill="transparent" stroke-linejoin="round" points="133.24664633193646 126.17404428238586 135.72472941108566 134.15897864853332 139.3041827476345 147.10007917297915 141.50692326243382 161.14254995482466 141.78226582678377 172.70693765752097 139.0288401832846 181.51789971671815 136.27541453978552 184.8220104889171 136.27541453978552 184.8220104889171 " />
        <polyline stroke="black" stroke-width="3" stroke-linecap="round" fill="transparent" stroke-linejoin="round" points="78.17813346195413 211.2548966665086 97.17677040209804 204.3713325577608 120.85623093619046 197.487768449013 148.66582993553152 192.8069448550645 176.20008637052274 190.87954690461515 200.70557459766485 190.3288617759153 216.67544332995976 190.3288617759153 226.03709051785677 190.3288617759153 226.03709051785677 190.3288617759153 " />
        </svg>