<?xml version="1.0" standalone="no"?>
    <svg width="256" height="256" xmlns="http://www.w3.org/2000/svg" version="1.1">
    <polyline stroke="black" stroke-width="3" stroke-linecap="round" fill="transparent" stroke-linejoin="round" points="58.652435302734375 106.56968688964844 57.58953857421875 117.19882202148438 56.88092041015625 126.76506042480467 55.817962646484375 146.6061248779297 55.109375 150.149169921875 55.109375 149.79489135742188 55.109375 148.37765502929688 55.109375 146.96043395996094 58.298095703125 123.22201538085938 60.4239501953125 116.8445281982422 70.344482421875 101.96371459960938 82.74517822265625 92.39749145507813 97.98028564453124 84.95707702636719 110.026611328125 83.8941650390625 119.94720458984376 87.79153442382813 128.09619140625 100.5465087890625 131.9935302734375 123.57632446289063 128.80477905273438 143.77169799804688 123.84454345703124 152.98362731933594 118.52996826171876 154.75515747070313 118.52996826171876 154.75515747070313 " />
        <polyline stroke="black" stroke-width="3" stroke-linecap="round" fill="transparent" stroke-linejoin="round" points="81.68222045898438 57.3212890625 81.68222045898438 79.64250183105469 81.68222045898438 103.73526000976563 81.68222045898438 128.18228149414063 82.39083862304688 168.5730438232422 83.80807495117188 191.60284423828125 85.22531127929688 203.294921875 85.93389892578125 204.712158203125 85.93389892578125 204.712158203125 " />
        <polyline stroke="black" stroke-width="3" stroke-linecap="round" fill="transparent" stroke-linejoin="round" points="135.890869140625 70.78489685058594 142.26840209960938 67.950439453125 149.70880126953125 65.47032165527344 164.94390869140625 60.864349365234375 172.38427734375 59.44712829589844 183.7220458984375 60.155731201171875 191.87109375 64.40740966796875 199.31146240234375 75.39083862304688 204.9803466796875 97.35775756835938 205.68896484375 119.32464599609376 203.2088623046875 132.0796356201172 198.9571533203125 138.45712280273438 190.453857421875 138.81143188476563 190.453857421875 138.81143188476563 " />
        <polyline stroke="black" stroke-width="3" stroke-linecap="round" fill="transparent" stroke-linejoin="round" points="155.02337646484375 105.15245056152344 156.0863037109375 118.61605834960938 157.149169921875 133.14254760742188 159.2750244140625 161.4869384765625 160.6922607421875 188.059814453125 161.40087890625 218.8843688964844 161.40087890625 218.8843688964844 " />
        </svg>