<?xml version="1.0" standalone="no"?>
    <svg width="256" height="256" xmlns="http://www.w3.org/2000/svg" version="1.1">
    <polyline stroke="black" stroke-width="3" stroke-linecap="round" fill="transparent" stroke-linejoin="round" points="49.718505859375 125.78402709960938 48.3843994140625 133.1217041015625 46.71673583984375 140.79293823242188 44.38201904296875 151.13238525390625 43.04791259765625 156.13536071777344 42.71435546875 157.469482421875 44.38201904296875 154.13418579101563 47.71734619140625 148.130615234375 58.723876953125 129.11932373046875 74.73336791992188 105.43862915039063 83.07162475585938 95.09915161132813 92.4105224609375 87.76145935058594 101.08233642578124 83.75909423828125 104.41766357421876 83.75909423828125 113.08944702148438 94.43209838867188 115.09066772460938 118.77987670898438 110.42120361328124 139.12527465820313 102.75 152.46652221679688 100.08172607421876 155.134765625 100.08172607421876 155.134765625 " />
        <polyline stroke="black" stroke-width="3" stroke-linecap="round" fill="transparent" stroke-linejoin="round" points="90.74285888671876 67.08251953125 89.74227905273438 87.09439086914063 85.73992919921875 129.78640747070313 82.73812866210938 161.47186279296875 82.071044921875 182.1508026123047 82.73812866210938 192.8238220214844 83.4051513671875 195.15850830078125 83.4051513671875 195.15850830078125 " />
        <polyline stroke="black" stroke-width="3" stroke-linecap="round" fill="transparent" stroke-linejoin="round" points="140.77255249023438 82.42497253417969 144.77490234375 78.75611877441406 150.11141967773438 75.42080688476563 156.114990234375 72.7525634765625 169.45623779296875 69.75077819824219 182.7974853515625 72.41903686523438 192.80340576171875 80.42378234863281 202.14227294921875 96.43328857421876 206.811767578125 115.44454956054688 205.4776611328125 132.12112426757813 200.14111328125 141.79351806640625 192.1363525390625 146.46295166015625 192.1363525390625 146.46295166015625 " />
        <polyline stroke="black" stroke-width="3" stroke-linecap="round" fill="transparent" stroke-linejoin="round" points="164.78680419921875 103.1038818359375 165.453857421875 112.77630615234376 166.1209716796875 122.7822265625 166.7879638671875 133.1217041015625 167.78857421875 155.4683074951172 168.1220703125 166.808349609375 168.1220703125 194.15792846679688 168.7891845703125 207.49917602539065 168.7891845703125 207.49917602539065 " />
        </svg>