<?xml version="1.0" standalone="no"?>
    <svg width="256" height="256" xmlns="http://www.w3.org/2000/svg" version="1.1">
    <polyline stroke="black" stroke-width="3" stroke-linecap="round" fill="transparent" stroke-linejoin="round" points="48.81512451171875 93.7823486328125 47.0467529296875 99.9715576171875 45.278411865234375 107.04495239257813 42.183807373046875 119.86544799804688 40.8575439453125 125.17047119140624 39.089202880859375 132.6859588623047 38.20501708984375 137.10679626464844 38.20501708984375 138.43307495117188 38.20501708984375 137.99099731445313 38.6470947265625 136.66473388671875 43.067962646484375 129.59133911132813 46.162567138671875 124.28630065917967 57.656829833984375 105.71867370605467 65.61434936523438 95.55068969726563 73.57196044921875 87.5931396484375 82.855712890625 81.4039306640625 91.25537109375 80.07768249511719 97.444580078125 83.17228698730469 103.6337890625 94.66653442382813 107.612548828125 115.444580078125 106.28631591796876 134.45428466796875 102.30755615234376 148.15896606445313 97.00250244140624 155.67442321777344 94.79208374023438 157.88485717773438 94.79208374023438 157.88485717773438 " />
        <polyline stroke="black" stroke-width="3" stroke-linecap="round" fill="transparent" stroke-linejoin="round" points="64.2880859375 71.67803955078125 64.2880859375 90.687744140625 63.4039306640625 111.90788269042967 62.07769775390625 132.24386596679688 59.4251708984375 165.40032958984375 58.540985107421875 176.45248413085938 57.656829833984375 191.92550659179688 57.2147216796875 195.904296875 57.2147216796875 195.904296875 " />
        <polyline stroke="black" stroke-width="3" stroke-linecap="round" fill="transparent" stroke-linejoin="round" points="123.96978759765624 56.64710998535156 139.88485717773438 48.247467041015625 148.7265625 45.594940185546875 165.52587890625 44.26869201660156 180.9989013671875 49.13163757324219 192.051025390625 60.625885009765625 201.3348388671875 79.63558959960938 203.9874267578125 99.08738708496094 201.3348388671875 114.11833190917967 195.5877685546875 124.28630065917967 189.3985595703125 129.59133911132813 180.11474609375 132.24386596679688 171.715087890625 128.26507568359375 171.715087890625 128.26507568359375 " />
        <polyline stroke="black" stroke-width="3" stroke-linecap="round" fill="transparent" stroke-linejoin="round" points="143.86361694335938 109.69744873046876 144.30575561523438 125.612548828125 145.18988037109375 142.41184997558594 145.63201904296875 158.3269500732422 145.18988037109375 185.73629760742188 143.86361694335938 200.32513427734375 141.6531982421875 214.471923828125 141.6531982421875 214.471923828125 " />
        </svg>