<?xml version="1.0" standalone="no"?>
    <svg width="256" height="256" xmlns="http://www.w3.org/2000/svg" version="1.1">
    <polyline stroke="black" stroke-width="3" stroke-linecap="round" fill="transparent" stroke-linejoin="round" points="54.570892333984375 96.2684326171875 54.1519775390625 106.32096862792967 54.1519775390625 110.09068298339844 53.314300537109375 115.116943359375 52.4765625 116.79238891601563 50.8011474609375 116.79238891601563 50.8011474609375 116.79238891601563 " />
        <polyline stroke="black" stroke-width="3" stroke-linecap="round" fill="transparent" stroke-linejoin="round" points="60.85369873046875 71.555908203125 66.71771240234375 66.52963256835938 84.728515625 54.38279724121094 90.59249877929688 51.869659423828125 105.25244140625 49.77537536621094 109.85986328125 51.031944274902344 117.818115234375 57.314788818359375 127.032958984375 84.95930480957031 126.61410522460938 96.68728637695313 117.818115234375 120.14323425292967 107.34674072265624 127.68264770507813 107.34674072265624 127.68264770507813 " />
        <polyline stroke="black" stroke-width="3" stroke-linecap="round" fill="transparent" stroke-linejoin="round" points="73.00048828125 23.38744354248047 73.83822631835938 40.56053924560547 74.257080078125 61.50335693359375 74.257080078125 104.2266845703125 75.513671875 158.67800903320313 77.1890869140625 183.3905334472656 78.02679443359375 191.76763916015625 80.12109375 201.8201904296875 80.12109375 201.8201904296875 " />
        <polyline stroke="black" stroke-width="3" stroke-linecap="round" fill="transparent" stroke-linejoin="round" points="120.7501220703125 64.01649475097656 126.19528198242188 59.40907287597656 140.01751708984375 51.031944274902344 155.09637451171875 46.00566864013672 162.2169189453125 45.16796112060547 168.91864013671875 45.586814880371094 180.22772216796875 50.194236755371094 189.8614501953125 61.922210693359375 199.0762939453125 85.79702758789063 202.4271240234375 108.41526794433594 199.91400146484375 125.58836364746094 194.04998779296875 136.47862243652344 184.416259765625 141.9237518310547 178.13348388671875 142.34263610839844 178.13348388671875 142.34263610839844 " />
        <polyline stroke="black" stroke-width="3" stroke-linecap="round" fill="transparent" stroke-linejoin="round" points="156.77178955078125 112.18498229980467 156.77178955078125 130.6146240234375 157.190673828125 163.28543090820313 157.190673828125 190.09222412109375 154.677490234375 210.61618041992188 154.677490234375 210.61618041992188 " />
        </svg>