<?xml version="1.0" standalone="no"?>
    <svg width="256" height="256" xmlns="http://www.w3.org/2000/svg" version="1.1">
    <polyline stroke="black" stroke-width="3" stroke-linecap="round" fill="transparent" stroke-linejoin="round" points="51 103 51 101 51 103 51 104 51 110 51 112 51 118 51 120 49 135 47 145 47 150 49 151 49 151 " />
        <polyline stroke="black" stroke-width="3" stroke-linecap="round" fill="transparent" stroke-linejoin="round" points="57 104 56 101 55 100 55 99 55 97 61 95 70 91 82 88 92 86 100 85 103 85 101 86 100 86 99 86 98 88 98 91 99 97 99 108 98 120 95 131 94 137 93 139 92 143 91 144 91 143 91 140 90 134 90 133 90 133 " />
        <polyline stroke="black" stroke-width="3" stroke-linecap="round" fill="transparent" stroke-linejoin="round" points="79 48 79 58 77 80 73 110 69 137 64 159 61 172 61 178 62 181 62 181 " />
        <polyline stroke="black" stroke-width="3" stroke-linecap="round" fill="transparent" stroke-linejoin="round" points="123 78 124 78 127 77 133 74 141 73 151 72 160 70 165 69 168 69 169 69 170 69 170 70 170 73 171 80 171 89 170 100 170 107 170 109 169 118 168 124 168 127 167 130 166 132 165 134 163 134 162 133 161 132 159 130 151 124 150 123 150 123 " />
        <polyline stroke="black" stroke-width="3" stroke-linecap="round" fill="transparent" stroke-linejoin="round" points="128 79 128 76 129 76 130 83 129 101 125 129 121 158 117 178 116 187 117 190 118 190 118 190 " />
        </svg>