<?xml version="1.0" standalone="no"?>
    <svg width="256" height="256" xmlns="http://www.w3.org/2000/svg" version="1.1">
    <polyline stroke="black" stroke-width="3" stroke-linecap="round" fill="transparent" stroke-linejoin="round" points="99.19601440429688 50.35015106201172 92.21627807617188 65.13070678710938 85.236572265625 79.09011840820313 80.30975341796875 89.76498413085938 76.61459350585938 96.7446746826172 74.56173706054688 101.67153930664063 73.74057006835938 104.13494873046876 74.15118408203125 104.5455322265625 78.25689697265625 103.72439575195313 83.18377685546875 101.67153930664063 106.17572021484376 90.58612060546876 121.77740478515624 82.78526306152344 134.09454345703125 76.626708984375 139.43197631835938 73.75270080566406 149.69622802734375 67.18356323242188 156.67596435546875 60.61444091796875 156.67596435546875 60.61444091796875 " />
        <polyline stroke="black" stroke-width="3" stroke-linecap="round" fill="transparent" stroke-linejoin="round" points="166.940185546875 63.89900207519531 172.277587890625 77.03726196289063 177.61505126953125 97.97639465332033 179.66790771484375 110.29351806640624 179.66790771484375 110.29351806640624 " />
        <polyline stroke="black" stroke-width="3" stroke-linecap="round" fill="transparent" stroke-linejoin="round" points="60.602294921875 149.70834350585938 67.58203125 149.29776000976563 83.18377685546875 148.47662353515625 106.58627319335938 147.24490356445313 118.90341186523438 145.60263061523438 127.525390625 142.31805419921875 127.525390625 142.31805419921875 " />
        <polyline stroke="black" stroke-width="3" stroke-linecap="round" fill="transparent" stroke-linejoin="round" points="91.3951416015625 130.8220672607422 88.52117919921875 139.0334930419922 85.236572265625 148.47662353515625 76.61459350585938 174.75315856933594 70.45602416992188 191.176025390625 64.7080078125 203.9037170410156 60.191741943359375 211.29397583007813 58.54949951171875 213.34683227539065 58.54949951171875 213.34683227539065 " />
        <polyline stroke="black" stroke-width="3" stroke-linecap="round" fill="transparent" stroke-linejoin="round" points="90.16342163085938 185.42800903320313 97.96429443359376 192.81829833984375 101.659423828125 196.10284423828125 107.8179931640625 201.85086059570313 111.1025390625 205.95654296875 111.1025390625 205.95654296875 " />
        <polyline stroke="black" stroke-width="3" stroke-linecap="round" fill="transparent" stroke-linejoin="round" points="139.0213623046875 158.330322265625 145.179931640625 156.6880340576172 163.24505615234375 152.5823211669922 174.33050537109375 150.52947998046875 183.363037109375 148.88719177246094 189.5216064453125 147.24490356445313 189.5216064453125 147.24490356445313 " />
        <polyline stroke="black" stroke-width="3" stroke-linecap="round" fill="transparent" stroke-linejoin="round" points="155.03363037109375 127.53750610351563 152.57025146484375 137.39120483398438 149.28564453125 148.88719177246094 136.968505859375 184.1962890625 129.98883056640625 201.85086059570313 124.6513671875 214.16796875 122.18798828125 219.0948486328125 122.18798828125 219.0948486328125 " />
        <polyline stroke="black" stroke-width="3" stroke-linecap="round" fill="transparent" stroke-linejoin="round" points="162.01336669921875 185.42800903320313 167.35076904296875 190.76544189453125 185.00531005859375 210.47283935546875 191.98504638671875 221.55825805664065 191.98504638671875 221.55825805664065 " />
        </svg>