<?xml version="1.0" standalone="no"?>
    <svg width="256" height="256" xmlns="http://www.w3.org/2000/svg" version="1.1">
    <polyline stroke="black" stroke-width="3" stroke-linecap="round" fill="transparent" stroke-linejoin="round" points="91.27035522460938 69.15289306640625 85.89425659179688 76.89764404296875 74.19638061523438 94.469970703125 68.405517578125 103.00802612304688 67.39617919921875 104.52775573730467 66.57025146484375 105.61424255371094 66.55902099609375 105.61865234375 66.55526733398438 105.6201171875 67.51229858398438 105.4150848388672 79.276123046875 104.25888061523438 98.08920288085938 99.67637634277344 106.20184326171876 96.70611572265624 116.17327880859376 91.64581298828124 119.046142578125 89.61062622070313 122.819580078125 86.36593627929688 135.39205932617188 82.92457580566406 136.51446533203125 82.95845031738281 " />
        <polyline stroke="black" stroke-width="3" stroke-linecap="round" fill="transparent" stroke-linejoin="round" points="140.8626708984375 77.31863403320313 143.65826416015625 79.44317626953125 161.26995849609375 88.52816772460938 165.46759033203125 92.29684448242188 169.54638671875 98.9534149169922 173.2637939453125 108.80320739746094 174.25958251953125 114.82540893554688 173.88031005859375 115.84898376464844 " />
        <polyline stroke="black" stroke-width="3" stroke-linecap="round" fill="transparent" stroke-linejoin="round" points="56.359954833984375 154.87420654296875 62.361572265625 151.67520141601563 75.06744384765625 145.25973510742188 81.50204467773438 142.55679321289063 95.17138671875 136.90176391601563 105.32943725585938 132.8218231201172 107.5784912109375 131.6065673828125 110.60589599609376 130.29373168945313 110.88522338867188 130.17259216308594 " />
        <polyline stroke="black" stroke-width="3" stroke-linecap="round" fill="transparent" stroke-linejoin="round" points="74.42489624023438 129.61575317382813 74.44122314453125 137.84109497070313 72.9989013671875 161.00726318359375 69.86154174804688 182.43197631835935 67.46038818359375 190.498779296875 65.14120483398438 197.22161865234375 60.43304443359375 205.8131103515625 58.248138427734375 208.9725341796875 58.0296630859375 209.28851318359375 " />
        <polyline stroke="black" stroke-width="3" stroke-linecap="round" fill="transparent" stroke-linejoin="round" points="99.36373901367188 181.92864990234375 105.11862182617188 183.7122802734375 113.98956298828124 186.549560546875 116.70733642578124 187.34011840820313 120.3204345703125 187.9669189453125 120.69699096679688 188.16839599609375 120.81591796875 188.23199462890625 " />
        <polyline stroke="black" stroke-width="3" stroke-linecap="round" fill="transparent" stroke-linejoin="round" points="130.12838745117188 137.84996032714844 138.1768798828125 136.7922821044922 165.9488525390625 133.35311889648438 170.9298095703125 132.15122985839844 177.873291015625 130.70645141601563 184.39599609375 129.58566284179688 186.62750244140625 128.95938110351563 189.342041015625 128.67381286621094 189.53448486328125 128.653564453125 " />
        <polyline stroke="black" stroke-width="3" stroke-linecap="round" fill="transparent" stroke-linejoin="round" points="149.84481811523438 123.88792419433594 147.60906982421875 133.38671875 145.37484741210938 143.85519409179688 143.58822631835938 156.1359100341797 140.142333984375 178.6145477294922 137.8388671875 187.25909423828125 128.47360229492188 197.53143310546875 126.15338134765624 201.12255859375 124.8892822265625 203.78741455078125 124.88046264648438 203.80609130859375 " />
        <polyline stroke="black" stroke-width="3" stroke-linecap="round" fill="transparent" stroke-linejoin="round" points="141.583251953125 155.36074829101563 153.581298828125 159.33932495117188 158.90020751953125 161.8560028076172 167.60302734375 168.34326171875 172.582275390625 173.7886199951172 187.2073974609375 187.61880493164065 200.78143310546875 200.78421020507813 206.11566162109375 205.30657958984375 209.6597900390625 207.7835998535156 211.83734130859375 209.081787109375 211.8529052734375 209.09112548828125 " />
        </svg>