<?xml version="1.0" standalone="no"?>
    <svg width="256" height="256" xmlns="http://www.w3.org/2000/svg" version="1.1">
    <polyline stroke="black" stroke-width="3" stroke-linecap="round" fill="transparent" stroke-linejoin="round" points="107.26412963867188 42.7198486328125 98.9833984375 56.38307189941406 94.843017578125 63.007659912109375 86.976318359375 75.84281921386719 81.17977905273438 85.36567687988281 79.109619140625 89.09201049804688 77.0394287109375 94.8885498046875 77.0394287109375 98.6148681640625 84.9061279296875 102.34121704101563 97.74130249023438 102.34121704101563 112.23260498046876 100.68505859375 124.6536865234375 96.544677734375 136.24676513671875 91.57623291015624 144.5274658203125 86.6077880859375 147.83978271484375 84.12356567382813 147.83978271484375 84.12356567382813 " />
        <polyline stroke="black" stroke-width="3" stroke-linecap="round" fill="transparent" stroke-linejoin="round" points="163.98724365234375 77.08493041992188 165.6434326171875 80.81126403808594 167.299560546875 84.53759765625 169.3697509765625 91.99026489257813 168.5416259765625 106.89561462402344 168.5416259765625 106.89561462402344 " />
        <polyline stroke="black" stroke-width="3" stroke-linecap="round" fill="transparent" stroke-linejoin="round" points="63.376190185546875 157.40814208984375 70.828857421875 155.33795166015625 87.80438232421875 151.6116180419922 105.19393920898438 146.64317321777344 118.857177734375 142.91683959960938 130.4501953125 138.77647399902344 138.31689453125 134.6361083984375 141.62924194335938 131.7378387451172 141.62924194335938 131.7378387451172 " />
        <polyline stroke="black" stroke-width="3" stroke-linecap="round" fill="transparent" stroke-linejoin="round" points="107.67816162109376 135.46417236328125 102.709716796875 150.3695068359375 90.70263671875 185.56268310546875 87.39035034179688 193.84341430664065 82.8359375 205.02239990234375 79.93768310546875 209.57684326171875 78.28155517578125 209.9908447265625 78.28155517578125 209.9908447265625 " />
        <polyline stroke="black" stroke-width="3" stroke-linecap="round" fill="transparent" stroke-linejoin="round" points="106.85009765625 178.52403259277344 112.6466064453125 180.59422302246097 118.857177734375 183.07843017578125 124.6536865234375 185.14862060546875 135.83270263671875 188.046875 143.69940185546875 188.046875 146.18359375 187.63287353515625 146.18359375 187.63287353515625 " />
        <polyline stroke="black" stroke-width="3" stroke-linecap="round" fill="transparent" stroke-linejoin="round" points="155.29248046875 143.33090209960938 161.91705322265625 141.26068115234375 168.12762451171875 139.19049072265625 180.13470458984375 135.46417236328125 192.9698486328125 131.7378387451172 195.45404052734375 130.90977478027344 199.180419921875 129.25360107421875 199.180419921875 129.25360107421875 " />
        <polyline stroke="black" stroke-width="3" stroke-linecap="round" fill="transparent" stroke-linejoin="round" points="170.61181640625 125.52728271484376 167.299560546875 132.97994995117188 163.98724365234375 141.6747283935547 156.5345458984375 158.65025329589844 149.08187866210938 174.3836669921875 145.35556030273438 182.2503662109375 142.04327392578125 188.87496948242188 137.07479858398438 198.3978271484375 137.07479858398438 198.3978271484375 " />
        <polyline stroke="black" stroke-width="3" stroke-linecap="round" fill="transparent" stroke-linejoin="round" points="174.338134765625 164.03274536132813 179.306640625 166.1029052734375 184.6890869140625 168.58714294433594 200.8365478515625 178.93807983398438 208.2891845703125 186.3907470703125 208.2891845703125 186.3907470703125 " />
        </svg>