<?xml version="1.0" standalone="no"?>
    <svg width="256" height="256" xmlns="http://www.w3.org/2000/svg" version="1.1">
    <polyline stroke="black" stroke-width="3" stroke-linecap="round" fill="transparent" stroke-linejoin="round" points="106.58969116210938 34.881439208984375 98.44970703125 44.790977478027344 90.66366577148438 54.70051574707031 72.61410522460938 80.18218994140625 69.07501220703125 85.84477233886719 64.47412109375 95.75430297851563 63.05853271484375 102.4786376953125 66.24371337890625 106.7255859375 80.40020751953125 108.84906005859376 101.98883056640624 103.894287109375 121.10009765625 95.75430297851563 136.67221069335938 87.26042175292969 147.99740600585938 80.18218994140625 154.013916015625 75.93524169921875 157.1990966796875 73.45785522460938 159.676513671875 71.68829345703125 162.1539306640625 71.33438110351563 165.339111328125 72.3961181640625 168.878173828125 75.2274169921875 174.1868896484375 83.01347351074219 176.31036376953125 93.98475646972656 176.31036376953125 93.98475646972656 " />
        <polyline stroke="black" stroke-width="3" stroke-linecap="round" fill="transparent" stroke-linejoin="round" points="80.40020751953125 159.8123779296875 93.49496459960938 152.02633666992188 105.5279541015625 144.5941619873047 116.14532470703124 138.57766723632813 132.7791748046875 130.79161071777344 143.75045776367188 126.54466247558594 149.05914306640625 124.0672607421875 150.47479248046875 122.651611328125 150.120849609375 121.2359619140625 145.52001953125 120.88206481933594 133.133056640625 126.19073486328124 118.268798828125 138.93157958984375 110.48272705078124 148.13328552246094 91.72540283203124 175.03060913085938 83.93930053710938 188.479248046875 79.33847045898438 196.6192626953125 77.92282104492188 198.74273681640625 76.861083984375 199.804443359375 78.98455810546875 193.7879638671875 81.81585693359375 190.24884033203125 84.293212890625 188.83319091796875 93.49496459960938 187.77145385742188 118.268798828125 193.43402099609375 127.470458984375 196.26531982421875 144.10433959960938 200.86618041992188 159.676513671875 202.2818298339844 162.8616943359375 199.4505615234375 162.8616943359375 199.4505615234375 " />
        <polyline stroke="black" stroke-width="3" stroke-linecap="round" fill="transparent" stroke-linejoin="round" points="162.8616943359375 139.99331665039063 169.93994140625 137.16201782226563 184.096435546875 130.43768310546875 199.6685791015625 119.46641540527344 206.746826171875 110.2646942138672 207.1007080078125 105.6638641357422 202.853759765625 105.6638641357422 188.697265625 116.98904418945313 177.0181884765625 130.79161071777344 146.93563842773438 183.87840270996097 136.67221069335938 204.75924682617188 131.363525390625 217.14614868164065 130.3017578125 221.0391845703125 137.73394775390625 213.6070251464844 150.47479248046875 196.26531982421875 150.47479248046875 196.26531982421875 " />
        <polyline stroke="black" stroke-width="3" stroke-linecap="round" fill="transparent" stroke-linejoin="round" points="192.59033203125 145.65591430664063 196.48333740234375 152.02633666992188 209.22418212890625 171.84539794921875 220.90325927734375 190.9566650390625 220.90325927734375 190.9566650390625 " />
        </svg>