<?xml version="1.0" standalone="no"?>
    <svg width="256" height="256" xmlns="http://www.w3.org/2000/svg" version="1.1">
    <polyline stroke="black" stroke-width="3" stroke-linecap="round" fill="transparent" stroke-linejoin="round" points="89.93014526367188 40.34458923339844 87.0009765625 50.32946014404297 78.57977294921875 75.46197509765625 73.337646484375 89.01620483398438 65.14471435546875 109.83563232421876 60.90478515625 118.5605926513672 60.4708251953125 119.2117919921875 60.42388916015625 119.28225708007813 60.4232177734375 119.2832489013672 61.87847900390625 118.82688903808594 66.817138671875 117.31716918945313 87.4893798828125 110.09332275390624 96.63671875 106.15353393554688 115.4903564453125 97.24508666992188 129.28875732421875 89.93316650390625 134.67730712890625 87.11868286132813 138.15911865234375 85.52070617675781 140.20077514648438 84.12078857421875 140.17831420898438 83.95700073242188 140.17538452148438 83.93588256835938 " />
        <polyline stroke="black" stroke-width="3" stroke-linecap="round" fill="transparent" stroke-linejoin="round" points="146.88714599609375 90.14613342285156 152.41766357421875 108.91360473632813 153.87060546875 118.939697265625 153.5128173828125 126.27970886230467 152.88427734375 126.74172973632813 " />
        <polyline stroke="black" stroke-width="3" stroke-linecap="round" fill="transparent" stroke-linejoin="round" points="68.21542358398438 176.460205078125 75.9407958984375 172.98171997070313 93.1536865234375 166.67181396484375 102.60247802734376 163.74124145507813 114.20965576171876 160.69219970703125 118.21395874023438 159.74693298339844 118.593994140625 159.6572265625 " />
        <polyline stroke="black" stroke-width="3" stroke-linecap="round" fill="transparent" stroke-linejoin="round" points="80.06613159179688 149.8158416748047 75.28424072265625 177.80111694335938 72.109130859375 194.2564697265625 65.343994140625 220.35433959960935 62.1767578125 228.70523071289065 57.397186279296875 238.85269165039065 56.0843505859375 240.2423095703125 56.848114013671875 237.33795166015625 " />
        <polyline stroke="black" stroke-width="3" stroke-linecap="round" fill="transparent" stroke-linejoin="round" points="99.6082763671875 215.70880126953125 104.45809936523438 217.6124267578125 108.23434448242188 218.9618225097656 111.86395263671876 220.05487060546875 111.9832763671875 220.04690551757813 " />
        <polyline stroke="black" stroke-width="3" stroke-linecap="round" fill="transparent" stroke-linejoin="round" points="126.49249267578124 151.59048461914063 133.08819580078125 149.81546020507813 144.15045166015625 146.08648681640625 148.40594482421875 144.1771240234375 170.2919921875 141.33053588867188 173.3284912109375 141.34214782714844 173.34735107421875 141.34222412109375 " />
        <polyline stroke="black" stroke-width="3" stroke-linecap="round" fill="transparent" stroke-linejoin="round" points="136.3909912109375 142.69332885742188 135.0794677734375 155.88058471679688 131.92941284179688 182.798583984375 127.92562866210938 201.37466430664065 126.177734375 206.23321533203125 123.75726318359376 209.59646606445313 122.75115966796876 211.355224609375 122.218994140625 212.78564453125 122.183349609375 212.88153076171875 " />
        <polyline stroke="black" stroke-width="3" stroke-linecap="round" fill="transparent" stroke-linejoin="round" points="157.44586181640625 190.2041015625 172.9822998046875 200.61480712890625 178.50555419921875 204.48764038085935 195.0892333984375 212.94439697265625 196.26776123046875 213.4588623046875 196.3759765625 213.506103515625 " />
        </svg>