<?xml version="1.0" standalone="no"?>
    <svg width="256" height="256" xmlns="http://www.w3.org/2000/svg" version="1.1">
    <polyline stroke="black" stroke-width="3" stroke-linecap="round" fill="transparent" stroke-linejoin="round" points="57.93023681640625 95.30632019042967 63.210418701171875 109.49684143066406 72.78082275390625 132.2677001953125 74.76089477539063 137.2178955078125 74.76089477539063 137.2178955078125 " />
        <polyline stroke="black" stroke-width="3" stroke-linecap="round" fill="transparent" stroke-linejoin="round" points="79.71109008789063 94.3162841796875 85.98129272460938 102.56657409667967 92.91159057617188 114.11701965332033 93.2415771484375 115.1070556640625 93.2415771484375 115.1070556640625 " />
        <polyline stroke="black" stroke-width="3" stroke-linecap="round" fill="transparent" stroke-linejoin="round" points="96.211669921875 92.33619689941406 116.34243774414063 81.77580261230469 151.65380859375 77.48565673828125 155.94390869140625 79.13569641113281 165.5142822265625 86.39598083496094 169.804443359375 92.00619506835938 172.44451904296875 101.2465362548828 168.484375 108.50680541992188 151.65380859375 115.1070556640625 143.73345947265625 115.1070556640625 143.73345947265625 115.1070556640625 " />
        <polyline stroke="black" stroke-width="3" stroke-linecap="round" fill="transparent" stroke-linejoin="round" points="101.82186889648438 43.16435241699219 105.78207397460938 52.734710693359375 107.76214599609376 59.9949951171875 116.012451171875 100.25651550292967 117.00244140625 107.51678466796876 120.63259887695313 127.64753723144533 123.93270874023438 142.16806030273438 125.25277709960938 151.0784149169922 124.92279052734376 155.03855895996094 124.92279052734376 155.03855895996094 124.92279052734376 155.03855895996094 " />
        <polyline stroke="black" stroke-width="3" stroke-linecap="round" fill="transparent" stroke-linejoin="round" points="193.56536865234375 75.8355712890625 188.61517333984375 97.61639404296876 173.4345703125 129.6276092529297 169.804443359375 134.57777404785156 161.8841552734375 145.7982177734375 161.8841552734375 145.7982177734375 161.8841552734375 145.7982177734375 " />
        <polyline stroke="black" stroke-width="3" stroke-linecap="round" fill="transparent" stroke-linejoin="round" points="107.43209838867188 166.9189910888672 123.272705078125 161.9687957763672 150.333740234375 158.9987030029297 152.643798828125 159.32870483398438 157.593994140625 160.978759765625 157.593994140625 160.978759765625 157.593994140625 160.978759765625 " />
        <polyline stroke="black" stroke-width="3" stroke-linecap="round" fill="transparent" stroke-linejoin="round" points="67.83062744140625 212.13067626953125 79.38104248046875 207.84054565429688 84.99127197265625 205.8604431152344 118.65252685546876 197.61013793945313 126.24282836914063 196.29010009765625 149.6737060546875 193.32000732421875 164.19427490234375 191.66995239257813 184.655029296875 191.00991821289065 189.60516357421875 192.3299560546875 189.60516357421875 192.3299560546875 189.60516357421875 192.3299560546875 " />
        </svg>