<?xml version="1.0" standalone="no"?>
    <svg width="256" height="256" xmlns="http://www.w3.org/2000/svg" version="1.1">
    <polyline stroke="black" stroke-width="3" stroke-linecap="round" fill="transparent" stroke-linejoin="round" points="68.20147705078125 93.34919738769533 70.4420166015625 95.1416015625 72.68255615234375 96.93400573730467 83.43695068359375 100.9669189453125 83.43695068359375 100.9669189453125 " />
        <polyline stroke="black" stroke-width="3" stroke-linecap="round" fill="transparent" stroke-linejoin="round" points="100.91287231445315 89.31628417968751 100.46478271484376 92.90109252929688 100.01669311523438 96.48590087890624 98.67236328125 105.44792175292967 97.77621459960938 108.1365203857422 97.32809448242188 108.58464050292967 96.87997436523438 104.55174255371094 96.431884765625 100.9669189453125 96.431884765625 92.90109252929688 97.77621459960938 88.42008972167969 100.91290283203124 83.9390869140625 106.73822021484376 78.11376953125 114.35589599609376 71.84036254882813 123.31793212890624 66.9112548828125 127.79891967773438 64.67074584960938 140.34576416015625 61.982147216796875 143.48248291015625 62.43023681640625 149.30780029296875 64.67074584960938 153.3406982421875 69.15176391601563 157.37359619140625 86.17959594726563 155.5811767578125 99.17449951171876 153.3406982421875 104.99981689453124 144.378662109375 115.30615234375 135.41668701171875 116.65045166015624 131.83184814453125 114.8580322265625 131.83184814453125 114.8580322265625 " />
        <polyline stroke="black" stroke-width="3" stroke-linecap="round" fill="transparent" stroke-linejoin="round" points="108.978759765625 31.063209533691406 110.7711181640625 39.12901306152344 112.5634765625 47.19481658935547 114.80404663085938 56.156829833984375 119.28500366210938 76.76947021484375 126.00653076171876 113.06564331054688 127.79891967773438 125.1643524169922 129.59136962890625 132.33396911621094 130.487548828125 134.1263885498047 136.3128662109375 135.47068786621094 136.3128662109375 135.47068786621094 " />
        <polyline stroke="black" stroke-width="3" stroke-linecap="round" fill="transparent" stroke-linejoin="round" points="216.07476806640625 57.501129150390625 198.1507568359375 76.76947021484375 180.22674560546875 96.03781127929688 161.8546142578125 114.8580322265625 161.8546142578125 114.8580322265625 " />
        <polyline stroke="black" stroke-width="3" stroke-linecap="round" fill="transparent" stroke-linejoin="round" points="100.01678466796875 158.77191162109375 109.42684936523438 155.18711853027344 118.8369140625 151.60232543945313 150.652099609375 143.08837890625 162.302734375 141.74407958984375 170.3685302734375 141.29598999023438 170.3685302734375 141.29598999023438 " />
        <polyline stroke="black" stroke-width="3" stroke-linecap="round" fill="transparent" stroke-linejoin="round" points="73.57873535156253 197.30856323242188 95.08758544921876 187.00225830078125 116.596435546875 176.69595336914063 126.90277099609376 173.11114501953125 147.515380859375 169.07823181152344 182.0191650390625 168.18203735351563 202.63177490234375 168.630126953125 202.63177490234375 168.630126953125 " />
        </svg>