<?xml version="1.0" standalone="no"?>
    <svg width="256" height="256" xmlns="http://www.w3.org/2000/svg" version="1.1">
    <polyline stroke="black" stroke-width="3" stroke-linecap="round" fill="transparent" stroke-linejoin="round" points="50.437744140625 79.54682922363281 53.72503662109375 96.80490112304688 58.2449951171875 109.9539031982422 61.943115234375 119.40472412109376 65.23040771484375 123.92471313476563 68.92855834960938 125.979248046875 74.27035522460938 125.979248046875 74.27035522460938 125.979248046875 " />
        <polyline stroke="black" stroke-width="3" stroke-linecap="round" fill="transparent" stroke-linejoin="round" points="91.52841186523438 79.54682922363281 92.7611083984375 91.463134765625 95.2265625 105.43392944335938 96.04833984375 109.54299926757813 97.28109741210938 114.88479614257813 97.28109741210938 117.3502197265625 97.28109741210938 117.3502197265625 " />
        <polyline stroke="black" stroke-width="3" stroke-linecap="round" fill="transparent" stroke-linejoin="round" points="106.73193359375 77.08139038085938 120.70272827148438 68.45236206054688 142.06988525390625 61.87786865234375 150.69891357421875 62.699676513671875 155.6297607421875 66.3978271484375 160.1497802734375 78.31411743164063 159.32794189453125 97.21580505371094 157.2734375 105.84483337402344 147.000732421875 125.15744018554688 140.42623901367188 130.91012573242188 133.44085693359375 132.14285278320313 133.44085693359375 132.14285278320313 " />
        <polyline stroke="black" stroke-width="3" stroke-linecap="round" fill="transparent" stroke-linejoin="round" points="122.75726318359376 35.579864501953125 124.40087890625 66.3978271484375 124.811767578125 98.44851684570313 124.40087890625 141.5936737060547 124.40087890625 152.2772216796875 124.811767578125 165.01531982421875 126.04452514648438 169.9462127685547 127.2772216796875 170.3571014404297 127.2772216796875 170.3571014404297 " />
        <polyline stroke="black" stroke-width="3" stroke-linecap="round" fill="transparent" stroke-linejoin="round" points="195.4876708984375 64.34329223632813 187.680419921875 78.72502136230469 182.33868408203125 88.58676147460938 159.7388916015625 121.04837036132813 151.52069091796875 131.73191833496094 151.52069091796875 131.73191833496094 " />
        <polyline stroke="black" stroke-width="3" stroke-linecap="round" fill="transparent" stroke-linejoin="round" points="90.295654296875 172.41165161132813 102.62289428710938 165.01531982421875 121.5245361328125 156.79721069335938 141.658935546875 150.63360595703125 156.45159912109375 147.3463592529297 163.026123046875 146.93545532226563 165.4915771484375 149.40087890625 163.026123046875 160.90628051757813 163.026123046875 160.90628051757813 " />
        <polyline stroke="black" stroke-width="3" stroke-linecap="round" fill="transparent" stroke-linejoin="round" points="65.23040771484375 202.4078063964844 89.473876953125 194.189697265625 100.15744018554688 191.7242431640625 110.84100341796876 189.2587890625 132.20809936523438 186.7933654785156 142.89169311523438 185.9715576171875 171.6551513671875 186.7933654785156 180.2841796875 188.43698120117188 180.2841796875 188.43698120117188 " />
        </svg>