<?xml version="1.0" standalone="no"?>
    <svg width="256" height="256" xmlns="http://www.w3.org/2000/svg" version="1.1">
    <polyline stroke="black" stroke-width="3" stroke-linecap="round" fill="transparent" stroke-linejoin="round" points="66.49822998046875 90.79875183105467 69.7664794921875 89.49147033691406 96.56585693359376 80.99411010742188 102.44866943359376 78.37953186035156 109.63873291015624 72.49674987792969 112.2532958984375 67.92123413085938 112.2532958984375 67.92123413085938 " />
        <polyline stroke="black" stroke-width="3" stroke-linecap="round" fill="transparent" stroke-linejoin="round" points="71.07379150390625 75.11131286621094 69.11285400390625 81.64775085449219 58.00091552734375 127.4027862548828 57.3472900390625 133.2855682373047 53.4254150390625 155.5094757080078 51.4644775390625 164.6604461669922 50.81085205078125 167.2750244140625 54.732666015625 160.7386016845703 54.732666015625 160.7386016845703 " />
        <polyline stroke="black" stroke-width="3" stroke-linecap="round" fill="transparent" stroke-linejoin="round" points="79.5711669921875 123.48092651367188 81.5321044921875 126.0955047607422 95.258544921875 139.82200622558594 96.56585693359376 141.12930297851563 105.063232421875 146.3584442138672 117.48248291015624 145.70481872558594 117.48248291015624 145.70481872558594 " />
        <polyline stroke="black" stroke-width="3" stroke-linecap="round" fill="transparent" stroke-linejoin="round" points="127.287109375 60.0775146484375 129.90167236328125 59.42387390136719 152.77923583984375 51.58015441894531 156.7010498046875 50.92652893066406 170.42755126953125 47.004638671875 182.8468017578125 45.04371643066406 187.42230224609375 46.35101318359375 188.07598876953125 47.004638671875 188.07598876953125 47.004638671875 " />
        <polyline stroke="black" stroke-width="3" stroke-linecap="round" fill="transparent" stroke-linejoin="round" points="140.3599853515625 79.68681335449219 139.706298828125 81.64775085449219 139.706298828125 90.14512634277344 150.16461181640625 94.72061157226563 152.77923583984375 94.06697082519533 155.39373779296875 92.75968933105467 155.39373779296875 92.75968933105467 " />
        <polyline stroke="black" stroke-width="3" stroke-linecap="round" fill="transparent" stroke-linejoin="round" points="170.42755126953125 84.26231384277344 167.15936279296875 87.53053283691406 142.97454833984375 109.7544403076172 119.443359375 122.1736297607422 117.48248291015624 123.48092651367188 112.2532958984375 124.7882080078125 114.86785888671876 124.1345672607422 129.24798583984375 117.59812927246094 148.20367431640625 110.40806579589844 174.34942626953125 101.9106903076172 193.95867919921875 96.68156433105467 208.3388671875 95.374267578125 215.5289306640625 97.98883056640624 215.5289306640625 97.98883056640624 " />
        <polyline stroke="black" stroke-width="3" stroke-linecap="round" fill="transparent" stroke-linejoin="round" points="116.82879638671876 149.6266632080078 116.82879638671876 150.93394470214844 121.404296875 164.6604461669922 122.71160888671876 167.2750244140625 128.59442138671875 175.7723846435547 131.86260986328125 179.0406036376953 138.3990478515625 180.347900390625 146.24273681640625 173.15782165527344 159.96923828125 154.2021484375 169.77392578125 139.82200622558594 176.9639892578125 134.59288024902344 182.193115234375 135.24649047851563 188.07598876953125 143.0902099609375 191.34417724609375 151.5875701904297 192.6513671875 158.77769470214844 192.6513671875 160.08494567871094 191.99786376953125 157.47036743164063 191.99786376953125 157.47036743164063 " />
        <polyline stroke="black" stroke-width="3" stroke-linecap="round" fill="transparent" stroke-linejoin="round" points="156.7010498046875 148.9730224609375 156.04742431640625 155.5094757080078 152.12554931640625 200.61083984375 150.81829833984375 206.49362182617188 146.89642333984375 233.9466857910156 148.20367431640625 246.36587524414065 149.510986328125 249.63409423828125 149.510986328125 249.63409423828125 " />
        </svg>