<?xml version="1.0" standalone="no"?>
    <svg width="256" height="256" xmlns="http://www.w3.org/2000/svg" version="1.1">
    <polyline stroke="black" stroke-width="3" stroke-linecap="round" fill="transparent" stroke-linejoin="round" points="57.08612060546875 78.70809936523438 82.20413208007813 64.87498474121094 101.1336669921875 56.50233459472656 115.69482421875 51.04187774658203 132.80419921875 45.94547271728515 138.628662109375 44.489356994628906 140.08474731445313 44.489356994628906 136.44448852539063 50.313819885253906 124.4315185546875 65.96707153320313 105.50201416015624 94.7253875732422 93.48904418945313 111.47071838378906 82.20413208007813 126.03189086914063 74.55950927734375 131.49234008789063 74.55950927734375 131.49234008789063 " />
        <polyline stroke="black" stroke-width="3" stroke-linecap="round" fill="transparent" stroke-linejoin="round" points="99.67752075195313 90.72105407714844 127.70779418945313 97.27360534667967 142.26895141601563 103.09805297851563 155.73797607421875 108.19447326660156 162.29052734375 111.47071838378906 162.29052734375 111.47071838378906 " />
        <polyline stroke="black" stroke-width="3" stroke-linecap="round" fill="transparent" stroke-linejoin="round" points="68.3709716796875 171.17153930664063 87.300537109375 164.2549591064453 110.96243286132813 156.61036682128906 130.6199951171875 149.32977294921875 142.26895141601563 144.96141052246094 151.00567626953125 141.68516540527344 158.6502685546875 138.4088897705078 163.7467041015625 136.5887451171875 164.83880615234375 135.86068725585938 162.654541015625 136.95278930664063 153.1898193359375 143.50531005859375 130.98406982421875 160.61468505859375 101.86172485351563 186.09671020507813 71.64724731445313 217.4032287597656 50.169586181640625 242.521240234375 42.524932861328125 249.43780517578125 42.524932861328125 249.43780517578125 " />
        <polyline stroke="black" stroke-width="3" stroke-linecap="round" fill="transparent" stroke-linejoin="round" points="100.04156494140624 156.97438049316406 97.12930297851563 178.45211791992188 96.76531982421876 200.65786743164065 98.58544921875 217.4032287597656 101.86172485351563 223.22769165039065 115.330810546875 231.60037231445313 136.80850219726563 234.14859008789065 155.3740234375 231.23638916015625 169.5711669921875 227.5960693359375 184.496337890625 223.22769165039065 196.145263671875 217.4032287597656 204.8819580078125 211.94281005859375 209.25030517578125 207.57443237304688 209.6143798828125 202.842041015625 205.97412109375 193.37728881835935 200.51361083984375 187.18881225585935 195.05316162109375 183.91253662109375 186.31646728515625 184.64059448242188 182.67620849609375 185.00466918945313 182.67620849609375 185.00466918945313 " />
        <polyline stroke="black" stroke-width="3" stroke-linecap="round" fill="transparent" stroke-linejoin="round" points="157.19415283203125 183.5485076904297 170.6632080078125 190.8291015625 177.21575927734375 194.46939086914065 177.21575927734375 194.46939086914065 " />
        </svg>