<?xml version="1.0" standalone="no"?>
    <svg width="256" height="256" xmlns="http://www.w3.org/2000/svg" version="1.1">
    <polyline stroke="black" stroke-width="3" stroke-linecap="round" fill="transparent" stroke-linejoin="round" points="69.25994873046875 77.59518432617188 78.97943115234375 70.41122436523438 87.43112182617188 65.3402099609375 106.87005615234376 56.465911865234375 126.73153686523438 49.704551696777344 135.6058349609375 47.169036865234375 151.6640625 44.21095275878906 162.22869873046875 42.94319152832031 167.29974365234375 42.520599365234375 168.5675048828125 43.36577606201172 167.29974365234375 46.7464599609375 158.00286865234375 58.15626525878906 136.02841186523438 82.66619873046875 112.3636474609375 105.90841674804688 92.07955932617188 123.656982421875 75.59872436523438 138.02487182617188 69.68255615234375 143.09588623046875 69.68255615234375 143.09588623046875 " />
        <polyline stroke="black" stroke-width="3" stroke-linecap="round" fill="transparent" stroke-linejoin="round" points="79.40203857421875 97.8792724609375 100.10870361328124 90.69534301757813 110.67333984375 88.5823974609375 121.6605224609375 87.31463623046875 150.39633178710938 87.31463623046875 158.00286865234375 88.5823974609375 175.75146484375 93.65342712402344 179.13214111328125 94.92117309570313 179.13214111328125 94.92117309570313 " />
        <polyline stroke="black" stroke-width="3" stroke-linecap="round" fill="transparent" stroke-linejoin="round" points="82.78271484375 133.79904174804688 97.57318115234376 128.30540466308594 106.87005615234376 125.34732055664063 116.58953857421876 122.38922119140624 125.88641357421876 119.43112182617188 142.789794921875 114.78269958496094 159.6932373046875 111.8245849609375 164.7642822265625 111.8245849609375 166.45458984375 113.5149383544922 164.7642822265625 118.58596801757813 139.40911865234375 153.23794555664063 128.844482421875 162.53482055664063 98.4183349609375 185.35443115234375 98.4183349609375 185.35443115234375 " />
        <polyline stroke="black" stroke-width="3" stroke-linecap="round" fill="transparent" stroke-linejoin="round" points="100.53125 145.20883178710938 103.06683349609376 161.26705932617188 103.48934936523438 169.2961883544922 104.33456420898438 178.17047119140625 107.29266357421876 199.29974365234375 111.09588623046876 207.75146484375 119.125 214.0902099609375 136.45101928710938 218.7386474609375 158.8480224609375 217.89349365234375 169.83526611328125 215.78057861328125 185.89349365234375 211.55471801757813 198.571044921875 206.90628051757813 201.1065673828125 204.37075805664065 201.1065673828125 204.37075805664065 " />
        <polyline stroke="black" stroke-width="3" stroke-linecap="round" fill="transparent" stroke-linejoin="round" points="151.6640625 159.57672119140625 165.18682861328125 172.2542724609375 174.90625 180.7059783935547 183.78057861328125 190.00286865234375 183.78057861328125 190.00286865234375 " />
        </svg>