<?xml version="1.0" standalone="no"?>
    <svg width="256" height="256" xmlns="http://www.w3.org/2000/svg" version="1.1">
    <polyline stroke="black" stroke-width="3" stroke-linecap="round" fill="transparent" stroke-linejoin="round" points="72.97027587890625 68.62515258789063 85.0963134765625 60.5411376953125 93.75775146484376 55.92169189453125 103.57406616210938 50.14739990234375 114.54522705078124 44.950531005859375 124.93896484375 40.90852355957031 131.29071044921875 39.176239013671875 135.33270263671875 39.176239013671875 135.33270263671875 44.37310028076172 125.51641845703124 64.00572204589844 105.30636596679688 94.6094970703125 87.40603637695313 117.12925720214844 71.8154296875 131.56500244140625 59.68939208984375 140.2264404296875 59.68939208984375 140.2264404296875 " />
        <polyline stroke="black" stroke-width="3" stroke-linecap="round" fill="transparent" stroke-linejoin="round" points="74.70257568359375 87.1029052734375 92.02548217773438 84.79318237304688 107.03863525390624 84.79318237304688 123.78411865234376 85.37062072753906 141.10699462890625 87.68032836914063 155.542724609375 91.72235107421876 155.542724609375 91.72235107421876 " />
        <polyline stroke="black" stroke-width="3" stroke-linecap="round" fill="transparent" stroke-linejoin="round" points="66.61856079101563 157.54933166503906 81.63174438476563 148.31045532226563 94.335205078125 141.3813018798828 109.348388671875 134.4521484375 123.78411865234376 128.1004180908203 134.1778564453125 124.63583374023438 138.79730224609375 123.48098754882813 141.10699462890625 124.63583374023438 137.06500244140625 131.56500244140625 119.1646728515625 154.0847625732422 88.5609130859375 189.3079833984375 70.66058349609375 207.20831298828125 57.37969970703125 220.48919677734375 50.450531005859375 228.57321166992188 50.450531005859375 228.57321166992188 " />
        <polyline stroke="black" stroke-width="3" stroke-linecap="round" fill="transparent" stroke-linejoin="round" points="77.5897216796875 155.81704711914063 79.322021484375 170.25279235839844 80.47686767578125 178.91424560546875 83.364013671875 187.57568359375 87.98345947265625 196.23712158203125 97.22235107421876 204.32113647460935 112.23553466796876 212.4051513671875 129.55841064453125 217.02459716796875 149.7684326171875 218.75689697265625 165.9365234375 216.4471740722656 176.90765380859375 212.4051513671875 182.68194580078125 208.3631591796875 186.72393798828125 202.5888671875 187.8787841796875 195.65969848632813 182.68194580078125 180.6465301513672 182.68194580078125 180.6465301513672 " />
        <polyline stroke="black" stroke-width="3" stroke-linecap="round" fill="transparent" stroke-linejoin="round" points="142.83929443359375 164.47850036621094 154.96533203125 171.40765380859375 159.58477783203125 175.4496612548828 165.35906982421875 184.11111450195313 165.35906982421875 184.11111450195313 " />
        </svg>