<?xml version="1.0" standalone="no"?>
    <svg width="256" height="256" xmlns="http://www.w3.org/2000/svg" version="1.1">
    <polyline stroke="black" stroke-width="3" stroke-linecap="round" fill="transparent" stroke-linejoin="round" points="53.47705078125 78.67880249023438 77.32476806640625 76.239990234375 94.336669921875 75.12922668457031 104.08261108398438 74.12638854980469 122.86483764648438 72.06460571289063 132.01531982421875 72.02606201171875 148.14727783203125 73.08285522460938 155.3082275390625 73.89913940429688 166.39471435546875 75.26622009277344 170.2940673828125 75.30192565917969 173.08349609375 74.98046875 174.22601318359375 74.50732421875 175.1129150390625 73.95526123046875 175.36907958984375 73.73768615722656 175.41766357421875 73.69642639160156 " />
        <polyline stroke="black" stroke-width="3" stroke-linecap="round" fill="transparent" stroke-linejoin="round" points="76.54388427734375 82.59580993652344 73.96392822265625 105.35595703125 69.30291748046875 123.29080200195313 63.93096923828125 135.73033142089844 62.565155029296875 136.93960571289063 61.70526123046875 137.67942810058594 61.506683349609375 138.1082000732422 61.80096435546875 138.5350799560547 62.402923583984375 138.84381103515625 65.2884521484375 139.96420288085938 68.44921875 140.80271911621094 83.91546630859375 140.48883056640625 96.63055419921876 135.65399169921875 102.63995361328124 132.48275756835938 112.64120483398438 128.05230712890625 115.65927124023438 127.69442749023438 115.86483764648438 127.67002868652344 " />
        <polyline stroke="black" stroke-width="3" stroke-linecap="round" fill="transparent" stroke-linejoin="round" points="127.0296630859375 82.16058349609375 144.28863525390625 100.64596557617188 151.45416259765625 108.90335083007813 166.13604736328125 123.93756103515624 172.9837646484375 130.6694793701172 182.955078125 141.96165466308594 183.4425048828125 142.54959106445313 " />
        <polyline stroke="black" stroke-width="3" stroke-linecap="round" fill="transparent" stroke-linejoin="round" points="69.14508056640625 158.32455444335938 61.391204833984375 182.787109375 59.72149658203125 186.08056640625 56.9691162109375 190.1644592285156 56.743255615234375 190.594482421875 56.532958984375 191.00375366210935 56.3603515625 191.3397216796875 61.010833740234375 192.21697998046875 68.61874389648438 192.699462890625 91.73162841796876 190.319580078125 103.5145263671875 188.2183837890625 125.89157104492188 184.7132568359375 134.63775634765625 183.62649536132813 151.8594970703125 182.04104614257813 156.324462890625 181.25914001464844 162.10638427734375 180.8236541748047 164.181884765625 180.51123046875 164.38897705078125 180.4800720214844 164.39990234375 180.4784240722656 164.40509033203125 180.47764587402344 " />
        <polyline stroke="black" stroke-width="3" stroke-linecap="round" fill="transparent" stroke-linejoin="round" points="157.06005859375 149.62010192871094 163.49786376953125 168.28111267089844 165.266357421875 173.29296875 165.3424072265625 181.27932739257813 165.22406005859375 181.67941284179688 " />
        <polyline stroke="black" stroke-width="3" stroke-linecap="round" fill="transparent" stroke-linejoin="round" points="121.8070068359375 135.69296264648438 120.03955078125 174.45005798339844 117.54437255859376 188.53399658203125 109.90087890625 211.747314453125 104.37655639648438 220.36956787109375 98.134033203125 232.42510986328125 97.4561767578125 232.34912109375 " />
        </svg>