<?xml version="1.0" standalone="no"?>
    <svg width="256" height="256" xmlns="http://www.w3.org/2000/svg" version="1.1">
    <polyline stroke="black" stroke-width="3" stroke-linecap="round" fill="transparent" stroke-linejoin="round" points="52.74169921875 69.16964721679688 68.65682983398438 59.885833740234375 75.73019409179688 56.349151611328125 84.12985229492188 53.254539489746094 113.30755615234376 42.64447021484375 132.75933837890625 36.89735412597656 149.55859375 32.91857147216797 160.61077880859375 30.70814514160156 165.0316162109375 29.38188934326172 165.4737548828125 28.497711181640625 163.70538330078125 27.613540649414063 163.70538330078125 27.613540649414063 " />
        <polyline stroke="black" stroke-width="3" stroke-linecap="round" fill="transparent" stroke-linejoin="round" points="112.42333984375 41.76029968261719 100.044921875 56.349151611328125 96.066162109375 62.09626770019531 86.34027099609375 78.45346069335938 81.91940307617188 89.505615234375 78.82479858398438 98.7894287109375 77.94064331054688 101.884033203125 77.49853515625 106.30490112304688 79.708984375 110.28367614746094 81.477294921875 110.72575378417967 86.7823486328125 109.8415985107422 96.066162109375 106.74697875976563 106.67623901367188 101.4419403076172 120.822998046875 91.27395629882813 127.45428466796876 84.20057678222656 131.43307495117188 79.33763122558594 134.0855712890625 75.80093383789063 135.411865234375 74.47468566894531 139.83270263671875 71.82217407226563 142.04315185546875 71.82217407226563 150.44281005859375 74.47468566894531 156.18988037109375 78.89553833007813 161.4949951171875 88.17935180664063 161.4949951171875 88.17935180664063 " />
        <polyline stroke="black" stroke-width="3" stroke-linecap="round" fill="transparent" stroke-linejoin="round" points="67.77264404296875 147.41891479492188 66.88848876953125 158.4710693359375 66.88848876953125 163.3340301513672 66.88848876953125 168.63906860351563 68.2147216796875 177.48077392578125 70.86724853515625 182.34373474121097 76.61434936523438 185.4383544921875 88.10861206054688 184.99624633789065 102.69744873046876 181.4595642089844 117.7283935546875 176.5966033935547 130.990966796875 170.8494873046875 141.158935546875 165.10235595703125 148.23236083984375 160.2394256591797 152.21112060546875 156.70272827148438 155.3057861328125 151.83978271484375 155.3057861328125 151.83978271484375 " />
        <polyline stroke="black" stroke-width="3" stroke-linecap="round" fill="transparent" stroke-linejoin="round" points="158.40032958984375 138.13510131835938 160.61077880859375 149.62936401367188 161.0528564453125 157.1448211669922 160.168701171875 163.3340301513672 157.51617431640625 168.19696044921875 157.51617431640625 168.19696044921875 " />
        <polyline stroke="black" stroke-width="3" stroke-linecap="round" fill="transparent" stroke-linejoin="round" points="116.40216064453124 127.08294677734376 107.11834716796876 150.51351928710938 101.81332397460938 168.19696044921875 92.9715576171875 200.911376953125 85.898193359375 221.68939208984375 80.15106201171875 237.16241455078125 80.15106201171875 237.16241455078125 " />
        </svg>