<?xml version="1.0" standalone="no"?>
    <svg width="256" height="256" xmlns="http://www.w3.org/2000/svg" version="1.1">
    <polyline stroke="black" stroke-width="3" stroke-linecap="round" fill="transparent" stroke-linejoin="round" points="50.13104248046875 78.12554931640625 72.51214599609375 62.28660583496094 83.53054809570313 57.121734619140625 102.81271362304688 50.579559326171875 123.8165283203125 45.414695739746094 140.34408569335938 41.62714385986328 140.34408569335938 41.62714385986328 " />
        <polyline stroke="black" stroke-width="3" stroke-linecap="round" fill="transparent" stroke-linejoin="round" points="68.035888671875 73.99363708496094 61.83807373046875 97.40771484375 60.460784912109375 108.42611694335938 60.460784912109375 114.96827697753906 61.83807373046875 119.10017395019533 65.62564086914063 119.788818359375 71.4791259765625 114.27961730957033 78.70999145507813 105.6715087890625 86.62945556640625 96.03044128417967 93.17160034179688 88.1109619140625 97.99212646484376 82.60176086425781 102.4683837890625 74.68229675292969 102.4683837890625 74.68229675292969 " />
        <polyline stroke="black" stroke-width="3" stroke-linecap="round" fill="transparent" stroke-linejoin="round" points="91.44998168945313 55.400108337402344 134.4906005859375 82.25743103027344 161.69219970703125 99.8179931640625 188.549560546875 114.96827697753906 209.5533447265625 123.92071533203124 209.5533447265625 123.92071533203124 " />
        <polyline stroke="black" stroke-width="3" stroke-linecap="round" fill="transparent" stroke-linejoin="round" points="54.262908935546875 133.2174835205078 54.951568603515625 148.36776733398438 55.6402587890625 162.14073181152344 56.6732177734375 171.78184509277344 58.39483642578125 179.70127868652344 61.493743896484375 184.5218505859375 68.72454833984375 186.93212890625 87.66241455078125 181.07859802246097 106.60025024414063 170.74884033203125 125.88247680664063 159.3861541748047 140.68841552734375 151.4666748046875 153.0841064453125 145.9574737548828 163.7581787109375 142.169921875 167.89007568359375 140.44830322265625 167.89007568359375 140.44830322265625 " />
        <polyline stroke="black" stroke-width="3" stroke-linecap="round" fill="transparent" stroke-linejoin="round" points="156.8717041015625 108.42611694335938 157.56036376953125 133.2174835205078 158.59332275390625 152.49966430664063 158.93756103515625 156.2872314453125 158.93756103515625 156.2872314453125 " />
        <polyline stroke="black" stroke-width="3" stroke-linecap="round" fill="transparent" stroke-linejoin="round" points="106.60025024414063 108.42611694335938 106.944580078125 133.9061279296875 106.25595092773438 165.23968505859375 104.53433227539063 195.1958923339844 101.09109497070313 224.4635009765625 95.58184814453124 248.221923828125 92.8272705078125 255.10836791992188 92.8272705078125 255.10836791992188 " />
        </svg>