<?xml version="1.0" standalone="no"?>
    <svg width="256" height="256" xmlns="http://www.w3.org/2000/svg" version="1.1">
    <polyline stroke="black" stroke-width="3" stroke-linecap="round" fill="transparent" stroke-linejoin="round" points="70.90975952148438 87.44972229003906 90.78573608398438 73.75736999511719 106.244873046875 64.48190307617188 115.07861328125 60.06500244140625 130.97943115234375 52.11460876464844 138.48812866210938 48.139404296875 150.41375732421875 41.95576477050781 157.4808349609375 37.53887176513672 161.0142822265625 35.33042907714844 162.33935546875 34.00535583496094 162.33935546875 33.56367492675781 162.33935546875 33.56367492675781 " />
        <polyline stroke="black" stroke-width="3" stroke-linecap="round" fill="transparent" stroke-linejoin="round" points="111.98681640625 70.66554260253906 107.56991577148438 82.14945983886719 103.15301513671876 97.16688537597656 97.852783203125 120.13470458984376 96.08602905273438 131.17694091796875 95.644287109375 137.80227661132813 96.96942138671876 141.77749633789063 99.6195068359375 142.66085815429688 106.244873046875 141.77749633789063 115.52032470703124 136.4772186279297 125.23748779296876 128.52682495117188 135.39633178710938 119.2513427734375 145.55517578125 107.32574462890624 153.505615234375 94.95843505859376 156.15570068359375 89.65817260742188 156.15570068359375 89.65817260742188 " />
        <polyline stroke="black" stroke-width="3" stroke-linecap="round" fill="transparent" stroke-linejoin="round" points="157.0390625 74.19905090332031 163.2227783203125 84.79959106445313 165.8729248046875 89.21647644042969 168.52301025390625 93.63336181640624 176.473388671875 107.32574462890624 178.681884765625 113.50938415527344 180.0069580078125 119.2513427734375 180.0069580078125 119.2513427734375 " />
        <polyline stroke="black" stroke-width="3" stroke-linecap="round" fill="transparent" stroke-linejoin="round" points="79.74349975585938 169.60386657714844 79.74349975585938 180.64610290527344 80.18524169921875 184.17962646484375 80.62689208984375 186.82974243164065 81.51025390625 192.1300048828125 83.71871948242188 196.105224609375 91.66912841796876 199.63873291015625 96.08602905273438 199.63873291015625 109.336669921875 197.8719787597656 122.58734130859376 193.89678955078125 142.905029296875 185.50469970703125 153.505615234375 180.20440673828125 161.0142822265625 175.7875213623047 164.54779052734375 172.69570922851563 164.54779052734375 172.69570922851563 " />
        <polyline stroke="black" stroke-width="3" stroke-linecap="round" fill="transparent" stroke-linejoin="round" points="169.84808349609375 152.37802124023438 168.52301025390625 163.42022705078125 168.081298828125 168.27880859375 167.19793701171875 172.69570922851563 164.989501953125 181.0877990722656 163.6644287109375 185.06298828125 163.6644287109375 185.06298828125 " />
        <polyline stroke="black" stroke-width="3" stroke-linecap="round" fill="transparent" stroke-linejoin="round" points="137.1630859375 144.4276123046875 128.77099609375 161.65347290039063 124.35409545898438 172.25401306152344 119.49554443359376 183.7379150390625 114.636962890625 195.66351318359375 106.244873046875 212.889404296875 98.73617553710938 226.14007568359375 98.73617553710938 226.14007568359375 " />
        </svg>