<?xml version="1.0" standalone="no"?>
    <svg width="256" height="256" xmlns="http://www.w3.org/2000/svg" version="1.1">
    <polyline stroke="black" stroke-width="3" stroke-linecap="round" fill="transparent" stroke-linejoin="round" points="79.93341064453125 88.80000305175781 76.7333984375 120.8000030517578 76.7333984375 128.26669311523438 79.93341064453125 132.53334045410156 82.06671142578125 132.53334045410156 82.06671142578125 127.20001220703124 82.06671142578125 127.20001220703124 " />
        <polyline stroke="black" stroke-width="3" stroke-linecap="round" fill="transparent" stroke-linejoin="round" points="75.66668701171875 73.86668395996094 108.7333984375 53.600006103515625 133.2667236328125 48.26667022705078 149.2667236328125 46.13334655761719 156.7333984375 46.13334655761719 159.933349609375 52.533355712890625 157.8001708984375 67.4666748046875 153.533447265625 89.86669921875 149.2667236328125 112.26667785644533 149.2667236328125 118.66667175292967 148.2000732421875 124.00001525878906 145 126.1333465576172 145 126.1333465576172 " />
        <polyline stroke="black" stroke-width="3" stroke-linecap="round" fill="transparent" stroke-linejoin="round" points="86.3333740234375 98.40000915527344 107.666748046875 96.26667785644533 118.3333740234375 96.26667785644533 125.80010986328124 97.33334350585938 126.86669921875 101.60000610351563 115.1334228515625 111.20002746582033 104.466796875 118.66667175292967 98.06671142578124 122.93336486816406 94.86669921875 124.00001525878906 97.00006103515624 124.00001525878906 100.2000732421875 122.93336486816406 111.93341064453124 120.8000030517578 124.7333984375 117.60000610351563 138.60009765625 109.06668090820313 138.60009765625 109.06668090820313 " />
        <polyline stroke="black" stroke-width="3" stroke-linecap="round" fill="transparent" stroke-linejoin="round" points="116.2000732421875 65.33334350585938 116.2000732421875 102.66667175292967 120.466796875 156.00001525878906 122.60003662109376 188 124.7333984375 207.20001220703125 125.80010986328124 214.66668701171875 125.80010986328124 215.73336791992188 124.7333984375 207.20001220703125 124.7333984375 207.20001220703125 " />
        <polyline stroke="black" stroke-width="3" stroke-linecap="round" fill="transparent" stroke-linejoin="round" points="77.80010986328125 191.20001220703125 111.93341064453124 182.66668701171875 130.0667724609375 178.40003967285156 137.533447265625 177.33334350585938 139.666748046875 177.33334350585938 135.4000244140625 179.4666748046875 135.4000244140625 179.4666748046875 " />
        <polyline stroke="black" stroke-width="3" stroke-linecap="round" fill="transparent" stroke-linejoin="round" points="58.60003662109375 227.4666748046875 78.86669921875 220.00003051757813 92.7333984375 215.73336791992188 108.7333984375 211.4666748046875 155.666748046875 206.13336181640625 182.3333740234375 206.13336181640625 201.533447265625 206.13336181640625 210.0667724609375 206.13336181640625 215.4000244140625 208.2666931152344 215.4000244140625 208.2666931152344 " />
        </svg>