<?xml version="1.0" standalone="no"?>
    <svg width="256" height="256" xmlns="http://www.w3.org/2000/svg" version="1.1">
    <polyline stroke="black" stroke-width="3" stroke-linecap="round" fill="transparent" stroke-linejoin="round" points="60.4422607421875 58.524688720703125 66.9932861328125 72.63462829589844 83.11892700195313 127.56256103515624 84.63070678710938 132.60182189941406 84.63070678710938 132.60182189941406 " />
        <polyline stroke="black" stroke-width="3" stroke-linecap="round" fill="transparent" stroke-linejoin="round" points="70.016845703125 62.05218505859375 77.07180786132813 57.516845703125 84.12677001953125 54.997222900390625 95.71707153320313 50.96580505371094 109.32305908203124 47.438323974609375 123.4329833984375 43.91084289550781 133.00759887695313 41.391212463378906 140.56646728515625 41.391212463378906 147.6214599609375 42.39906311035156 153.6685791015625 45.42262268066406 162.23529052734375 53.48543548583984 171.30596923828125 67.59536743164063 177.35308837890625 82.71315002441406 180.37664794921875 98.83877563476563 179.3687744140625 115.46833801269533 173.82562255859375 131.59397888183594 164.75494384765625 143.68820190429688 149.63714599609375 153.26278686523438 149.63714599609375 153.26278686523438 " />
        <polyline stroke="black" stroke-width="3" stroke-linecap="round" fill="transparent" stroke-linejoin="round" points="88.662109375 115.46833801269533 97.7327880859375 109.92515563964844 107.811279296875 107.405517578125 121.41729736328124 105.38981628417967 135.5272216796875 103.87803649902344 147.6214599609375 103.37411499023438 154.6763916015625 103.37411499023438 160.2196044921875 105.38981628417967 160.2196044921875 105.38981628417967 " />
        <polyline stroke="black" stroke-width="3" stroke-linecap="round" fill="transparent" stroke-linejoin="round" points="87.65423583984375 157.79812622070313 105.29168701171876 153.7667236328125 117.38589477539063 151.24708557128906 128.9761962890625 148.7274627685547 142.0782470703125 144.19212341308594 152.15679931640625 136.12930297851563 152.15679931640625 136.12930297851563 " />
        <polyline stroke="black" stroke-width="3" stroke-linecap="round" fill="transparent" stroke-linejoin="round" points="122.9290771484375 73.64247131347656 124.44085693359376 103.87803649902344 126.45654296875 135.1214599609375 126.45654296875 158.3020477294922 125.95263671875 179.46694946289063 125.44873046875 194.584716796875 123.93695068359376 206.678955078125 121.41729736328124 213.73391723632813 118.39373779296876 218.77316284179688 118.39373779296876 218.77316284179688 " />
        <polyline stroke="black" stroke-width="3" stroke-linecap="round" fill="transparent" stroke-linejoin="round" points="96.72491455078124 205.16717529296875 100.75634765625 197.1043701171875 107.811279296875 193.57687377929688 117.88983154296876 190.04937744140625 129.4801025390625 188.03369140625 143.59002685546875 187.02584838867188 156.188232421875 187.52975463867188 156.188232421875 187.52975463867188 " />
        <polyline stroke="black" stroke-width="3" stroke-linecap="round" fill="transparent" stroke-linejoin="round" points="38.7734375 229.85955810546875 52.88336181640625 223.3085021972656 68.50506591796875 218.77316284179688 96.22100830078124 214.23785400390625 116.8819580078125 213.22998046875 145.101806640625 214.74176025390625 160.2196044921875 216.75747680664065 174.83349609375 218.77316284179688 186.42376708984375 220.28494262695313 197.0062255859375 221.79672241210935 197.0062255859375 221.79672241210935 " />
        </svg>