<?xml version="1.0" standalone="no"?>
    <svg width="256" height="256" xmlns="http://www.w3.org/2000/svg" version="1.1">
    <polyline stroke="black" stroke-width="3" stroke-linecap="round" fill="transparent" stroke-linejoin="round" points="60.35260009765625 53.291900634765625 73.08306884765625 73.66288757324219 79.2530517578125 88.04597473144531 87.74874877929688 115.5120086669922 88.37213134765625 125.32073974609376 86.35519409179688 123.93167114257813 84.94293212890625 122.00384521484376 84.57235717773438 121.49807739257813 " />
        <polyline stroke="black" stroke-width="3" stroke-linecap="round" fill="transparent" stroke-linejoin="round" points="80.443115234375 44.525115966796875 96.84091186523438 37.97607421875 105.00152587890624 35.84613037109375 115.89242553710938 33.81688690185547 128.33258056640625 32.723419189453125 145.34393310546875 33.5372314453125 150.86761474609375 37.64686584472656 164.86090087890625 42.83299255371094 173.72601318359375 51.143585205078125 174.55255126953125 55.38580322265625 174.269287109375 66.63059997558594 173.5408935546875 73.81440734863281 163.169189453125 91.05116271972656 155.887451171875 102.77671813964844 146.374267578125 120.04728698730467 146.770751953125 117.73590087890624 " />
        <polyline stroke="black" stroke-width="3" stroke-linecap="round" fill="transparent" stroke-linejoin="round" points="84.46124267578125 85.436767578125 100.906005859375 79.54953002929688 116.58978271484376 75.91748046875 124.9638671875 74.10853576660156 132.99456787109375 73.06393432617188 140.23654174804688 72.43367004394531 141.98406982421875 73.01957702636719 142.03131103515625 73.08285522460938 142.04632568359375 73.10299682617188 " />
        <polyline stroke="black" stroke-width="3" stroke-linecap="round" fill="transparent" stroke-linejoin="round" points="83.73065185546875 127.80953979492188 108.068359375 121.90020751953124 116.40283203125 120.9351043701172 134.89300537109375 120.08770751953124 144.0123291015625 120.33401489257813 145.671142578125 120.037353515625 146.72103881835938 119.03019714355467 146.74969482421875 118.9050750732422 " />
        <polyline stroke="black" stroke-width="3" stroke-linecap="round" fill="transparent" stroke-linejoin="round" points="116.6060791015625 44.15983581542969 115.36688232421876 78.76571655273438 117.4765625 118.42483520507813 118.26995849609376 140.13623046875 118.60906982421876 154.6132049560547 118.78536987304688 179.93540954589844 120.04571533203124 198.80563354492188 120.56048583984376 205.35421752929688 122.18597412109376 212.60934448242188 122.66375732421876 215.9847717285156 121.18905639648438 218.7481689453125 121.05075073242188 219.00732421875 " />
        <polyline stroke="black" stroke-width="3" stroke-linecap="round" fill="transparent" stroke-linejoin="round" points="91.40158081054688 170.1822967529297 116.61553955078124 167.28207397460938 125.763916015625 167.20982360839844 141.8455810546875 166.83901977539063 144.78515625 166.58457946777344 147.82455444335938 166.6573944091797 147.91064453125 166.6661834716797 147.91839599609375 166.6669921875 " />
        <polyline stroke="black" stroke-width="3" stroke-linecap="round" fill="transparent" stroke-linejoin="round" points="55.969207763671875 215.47732543945313 70.92730712890625 207.69113159179688 90.63314819335938 206.1572265625 105.37826538085938 206.20004272460935 115.0172119140625 206.26150512695313 131.41497802734375 206.53033447265625 140.37948608398438 206.61114501953125 149.19906616210938 206.6966552734375 169.39794921875 206.70867919921875 183.035888671875 207.14077758789065 202.7718505859375 210.02972412109375 207.52410888671875 211.2462158203125 203.1685791015625 212.7012939453125 202.97314453125 212.74337768554688 " />
        </svg>