<?xml version="1.0" standalone="no"?>
    <svg width="256" height="256" xmlns="http://www.w3.org/2000/svg" version="1.1">
    <polyline stroke="black" stroke-width="3" stroke-linecap="round" fill="transparent" stroke-linejoin="round" points="74.70101928710938 97.39173889160156 88.16751098632813 89.43426513671875 113.26416015625 75.35565185546875 137.1365966796875 65.56184387207031 157.94842529296875 61.88916015625 173.25128173828125 64.33761596679688 184.88140869140625 72.29508972167969 192.8388671875 90.04638671875 193.4510498046875 131.6700897216797 184.88140869140625 157.990966796875 172.63916015625 180.02703857421875 161.009033203125 195.32986450195313 148.7667236328125 202.67523193359375 136.52447509765625 204.51156616210935 128.5670166015625 198.39044189453125 128.5670166015625 198.39044189453125 " />
        <polyline stroke="black" stroke-width="3" stroke-linecap="round" fill="transparent" stroke-linejoin="round" points="127.95489501953124 88.82215881347656 123.67010498046876 110.85823059082033 118.16107177734376 126.77317810058594 107.755126953125 143.912353515625 95.51287841796876 158.6030731201172 83.27059936523438 168.3968963623047 74.08892822265625 172.6816864013672 74.08892822265625 172.6816864013672 " />
        <polyline stroke="black" stroke-width="3" stroke-linecap="round" fill="transparent" stroke-linejoin="round" points="65.51931762695313 121.87628173828124 80.21002197265625 123.10049438476563 107.755126953125 131.05796813964844 131.01544189453125 140.2396697998047 157.94842529296875 153.70616149902344 175.69970703125 162.2757568359375 192.8388671875 172.06956481933594 206.91748046875 183.08761596679688 206.91748046875 183.08761596679688 " />
        </svg>