<?xml version="1.0" standalone="no"?>
    <svg width="256" height="256" xmlns="http://www.w3.org/2000/svg" version="1.1">
    <polyline stroke="black" stroke-width="3" stroke-linecap="round" fill="transparent" stroke-linejoin="round" points="79 61 79 61 80 65 81 70 81 76 82 83 82 91 83 98 84 103 85 108 85 110 86 111 " />
        <polyline stroke="black" stroke-width="3" stroke-linecap="round" fill="transparent" stroke-linejoin="round" points="93 70 93 70 96 67 101 64 106 61 111 57 117 54 123 50 131 46 136 44 141 43 145 43 149 44 152 47 154 53 156 60 157 69 156 84 156 88 153 100 149 106 148 108 " />
        <polyline stroke="black" stroke-width="3" stroke-linecap="round" fill="transparent" stroke-linejoin="round" points="116 67 116 67 117 69 117 70 118 75 117 80 116 86 114 92 111 97 108 102 105 106 102 109 101 110 " />
        <polyline stroke="black" stroke-width="3" stroke-linecap="round" fill="transparent" stroke-linejoin="round" points="95 112 95 111 95 111 97 110 100 108 104 107 112 104 118 102 124 101 130 99 136 97 142 96 146 94 150 94 152 95 " />
        <polyline stroke="black" stroke-width="3" stroke-linecap="round" fill="transparent" stroke-linejoin="round" points="109 119 109 119 106 122 103 125 100 129 97 134 92 143 89 149 86 155 84 161 81 166 79 171 78 174 77 177 76 178 77 178 " />
        <polyline stroke="black" stroke-width="3" stroke-linecap="round" fill="transparent" stroke-linejoin="round" points="91 150 91 150 95 148 99 147 103 147 109 148 112 149 116 150 119 152 122 154 125 157 127 157 " />
        <polyline stroke="black" stroke-width="3" stroke-linecap="round" fill="transparent" stroke-linejoin="round" points="145 108 144 109 143 113 140 120 137 128 134 137 131 145 127 152 122 163 119 169 117 173 116 176 115 177 115 177 " />
        <polyline stroke="black" stroke-width="3" stroke-linecap="round" fill="transparent" stroke-linejoin="round" points="137 153 139 151 145 150 150 149 156 150 161 151 166 153 170 157 175 162 177 165 " />
        </svg>