<?xml version="1.0" standalone="no"?>
    <svg width="256" height="256" xmlns="http://www.w3.org/2000/svg" version="1.1">
    <polyline stroke="black" stroke-width="3" stroke-linecap="round" fill="transparent" stroke-linejoin="round" points="67.58944702148438 104.78550720214844 82.872314453125 97.35061645507813 91.95941162109376 94.04620361328124 115.50326538085938 86.19825744628906 128.30783081054688 82.89385986328125 165.48236083984375 72.56759643554688 184.895751953125 68.0240478515625 198.11334228515625 64.71963500976563 203.89605712890625 63.48048400878906 205.13519287109375 63.48048400878906 205.13519287109375 63.48048400878906 " />
        <polyline stroke="black" stroke-width="3" stroke-linecap="round" fill="transparent" stroke-linejoin="round" points="140.28631591796875 90.32875061035156 139.047119140625 103.95941162109376 138.22103881835938 111.807373046875 136.98190307617188 123.78582763671876 134.50360107421875 148.56883239746094 132.02532958984375 178.72149658203125 131.19918823242188 189.4608154296875 130.37310791015625 193.17828369140625 130.37310791015625 193.17828369140625 " />
        <polyline stroke="black" stroke-width="3" stroke-linecap="round" fill="transparent" stroke-linejoin="round" points="95.67684936523438 144.02529907226563 98.98129272460938 157.65594482421875 104.35092163085938 165.91696166992188 111.78582763671876 172.5257568359375 124.59042358398438 177.89541625976563 139.87322998046875 178.72149658203125 153.9169921875 174.59100341796875 162.177978515625 169.6343994140625 162.177978515625 169.6343994140625 " />
        <polyline stroke="black" stroke-width="3" stroke-linecap="round" fill="transparent" stroke-linejoin="round" points="194.8089599609375 137.41648864746094 195.635009765625 148.56883239746094 197.2872314453125 160.54730224609375 199.35247802734375 181.19981384277344 199.35247802734375 181.19981384277344 " />
        </svg>