<?xml version="1.0" standalone="no"?>
    <svg width="256" height="256" xmlns="http://www.w3.org/2000/svg" version="1.1">
    <polyline stroke="black" stroke-width="3" stroke-linecap="round" fill="transparent" stroke-linejoin="round" points="91.59515380859376 85.78924560546875 104.95294189453124 79.1103515625 120.39791870117188 72.43142700195313 137.09518432617188 65.75251770019531 155.0447998046875 60.32591247558594 171.7420654296875 57.40388488769531 185.099853515625 56.56903076171875 190.10906982421875 56.56903076171875 190.10906982421875 56.56903076171875 " />
        <polyline stroke="black" stroke-width="3" stroke-linecap="round" fill="transparent" stroke-linejoin="round" points="152.12274169921875 67.4222412109375 143.77410888671875 96.22506713867188 137.09518432617188 117.09664916992188 134.17318725585938 126.69757080078124 130.416259765625 142.14256286621094 127.91171264648438 154.24807739257813 126.241943359375 161.7618408203125 124.57223510742188 165.51873779296875 122.90252685546876 167.18846130371094 121.23275756835938 167.18846130371094 121.23275756835938 167.18846130371094 " />
        <polyline stroke="black" stroke-width="3" stroke-linecap="round" fill="transparent" stroke-linejoin="round" points="90.76025390625 121.68840026855467 88.25567626953125 138.8031005859375 87.83822631835938 145.0645751953125 87.83822631835938 150.9086151123047 88.25567626953125 160.92698669433594 89.50799560546875 167.60589599609375 90.34286499023438 170.11050415039063 94.09970092773438 173.0325164794922 103.283203125 175.1196746826172 115.80615234375 175.537109375 131.66854858398438 172.19766235351563 147.94842529296875 165.10130310058594 155.0447998046875 160.09213256835938 155.0447998046875 160.09213256835938 " />
        <polyline stroke="black" stroke-width="3" stroke-linecap="round" fill="transparent" stroke-linejoin="round" points="182.1778564453125 118.34893798828124 180.925537109375 128.78475952148438 180.0906982421875 134.2113494873047 179.67327880859375 139.22052001953125 179.25579833984375 144.6471405029297 178.42095947265625 156.33523559570313 176.751220703125 168.44076538085938 176.751220703125 175.537109375 176.751220703125 175.537109375 " />
        </svg>