<?xml version="1.0" standalone="no"?>
    <svg width="256" height="256" xmlns="http://www.w3.org/2000/svg" version="1.1">
    <polyline stroke="black" stroke-width="3" stroke-linecap="round" fill="transparent" stroke-linejoin="round" points="60.1083984375 113.51922607421875 66.0928955078125 109.40489196777344 72.077392578125 105.29055786132813 81.05413818359375 101.17623901367188 91.15301513671876 97.0618896484375 117.33514404296876 88.45918273925781 156.23431396484375 79.48245239257813 173.813720703125 76.11616516113281 183.91259765625 74.99407958984375 188.4010009765625 74.62004089355469 189.8970947265625 74.62004089355469 189.8970947265625 74.62004089355469 " />
        <polyline stroke="black" stroke-width="3" stroke-linecap="round" fill="transparent" stroke-linejoin="round" points="141.27304077148438 117.63354492187503 140.15097045898438 126.23626708984376 139.02890014648438 134.8389892578125 138.28085327148438 143.8157196044922 137.15875244140625 153.54052734375 136.03662109375 162.1432342529297 133.04440307617188 176.35638427734375 128.5560302734375 189.07342529296875 128.5560302734375 189.07342529296875 " />
        <polyline stroke="black" stroke-width="3" stroke-linecap="round" fill="transparent" stroke-linejoin="round" points="80.68011474609375 153.91455078125 81.05413818359375 159.15098571777344 81.42816162109375 164.38742065429688 82.55026245117188 169.62384033203125 88.16073608398438 180.47073364257813 97.511474609375 189.82150268554688 113.22079467773438 197.3021240234375 129.30413818359375 199.5462951660156 143.51727294921875 197.3021240234375 156.60833740234375 190.943603515625 167.82928466796875 180.09671020507813 176.8060302734375 165.13548278808594 180.54632568359375 156.1587371826172 182.04241943359375 152.41842651367188 182.41644287109375 151.67037963867188 182.79052734375 150.92230224609375 183.91259765625 152.79246520996094 186.53076171875 160.2730712890625 189.1490478515625 171.86802673339844 191.0191650390625 191.317626953125 191.3931884765625 203.66064453125 191.3931884765625 203.66064453125 " />
        </svg>