<?xml version="1.0" standalone="no"?>
    <svg width="256" height="256" xmlns="http://www.w3.org/2000/svg" version="1.1">
    <polyline stroke="black" stroke-width="3" stroke-linecap="round" fill="transparent" stroke-linejoin="round" points="56 107 65 111 67 111 70 109 72 108 74 107 76 106 80 105 84 103 88 102 92 100 98 98 104 96 110 94 116 92 124 91 130 89 137 87 144 86 152 84 159 81 165 79 172 75 179 71 184 69 190 67 194 65 198 63 201 63 201 63 " />
        <polyline stroke="black" stroke-width="3" stroke-linecap="round" fill="transparent" stroke-linejoin="round" points="68 163 70 175 69 178 68 181 66 184 64 187 62 190 60 193 57 196 56 199 54 202 53 203 52 205 52 207 53 207 54 207 56 205 59 203 63 201 67 198 72 194 78 191 84 187 91 183 98 181 104 179 112 176 118 175 124 174 130 172 135 171 140 169 143 167 146 165 148 164 150 163 150 163 " />
        <polyline stroke="black" stroke-width="3" stroke-linecap="round" fill="transparent" stroke-linejoin="round" points="114 100 124 99 125 99 126 99 126 100 126 101 126 103 125 107 125 111 124 116 124 122 124 129 123 136 122 143 122 151 122 156 121 162 122 166 122 169 122 171 123 173 124 174 125 174 125 174 " />
        <polyline stroke="black" stroke-width="3" stroke-linecap="round" fill="transparent" stroke-linejoin="round" points="160 143 162 148 165 154 168 159 172 163 177 169 182 175 187 180 192 186 196 190 200 195 204 198 208 201 210 203 212 205 212 206 212 206 " />
        </svg>