<?xml version="1.0" standalone="no"?>
    <svg width="256" height="256" xmlns="http://www.w3.org/2000/svg" version="1.1">
    <polyline stroke="black" stroke-width="3" stroke-linecap="round" fill="transparent" stroke-linejoin="round" points="52 94 59 94 66 94 85 89 97 85 124 80 149 77 169 76 183 76 186 76 186 76 " />
        <polyline stroke="black" stroke-width="3" stroke-linecap="round" fill="transparent" stroke-linejoin="round" points="125 106 125 125 125 144 125 160 125 175 125 182 125 184 125 184 " />
        <polyline stroke="black" stroke-width="3" stroke-linecap="round" fill="transparent" stroke-linejoin="round" points="73 165 73 170 73 175 78 177 90 178 110 178 129 177 149 173 166 169 179 163 182 158 182 158 " />
        <polyline stroke="black" stroke-width="3" stroke-linecap="round" fill="transparent" stroke-linejoin="round" points="180 120 180 135 180 150 180 173 180 182 180 182 " />
        </svg>