<?xml version="1.0" standalone="no"?>
    <svg width="256" height="256" xmlns="http://www.w3.org/2000/svg" version="1.1">
    <polyline stroke="black" stroke-width="3" stroke-linecap="round" fill="transparent" stroke-linejoin="round" points="46 104 79 100 92 97 131 89 154 87 172 85 181 84 184 84 184 84 " />
        <polyline stroke="black" stroke-width="3" stroke-linecap="round" fill="transparent" stroke-linejoin="round" points="125 92 126 107 126 126 126 146 126 162 126 175 126 183 122 190 122 190 " />
        <polyline stroke="black" stroke-width="3" stroke-linecap="round" fill="transparent" stroke-linejoin="round" points="82 146 81 169 79 179 79 187 79 190 80 191 86 192 97 192 109 192 122 191 134 188 149 185 162 181 167 179 167 179 " />
        <polyline stroke="black" stroke-width="3" stroke-linecap="round" fill="transparent" stroke-linejoin="round" points="180 134 179 137 179 147 179 161 178 178 178 185 178 185 " />
        </svg>