<?xml version="1.0" standalone="no"?>
    <svg width="256" height="256" xmlns="http://www.w3.org/2000/svg" version="1.1">
    <polyline stroke="black" stroke-width="3" stroke-linecap="round" fill="transparent" stroke-linejoin="round" points="88.77777099609375 76.88888549804688 102.11111450195313 90.22222900390624 102.11111450195313 90.22222900390624 " />
        <polyline stroke="black" stroke-width="3" stroke-linecap="round" fill="transparent" stroke-linejoin="round" points="119 60.888885498046875 131.4444580078125 72.44444274902344 135.00003051757813 72.44444274902344 135.00003051757813 72.44444274902344 " />
        <polyline stroke="black" stroke-width="3" stroke-linecap="round" fill="transparent" stroke-linejoin="round" points="148.3333740234375 45.77777862548828 138.55557250976563 71.55555725097656 128.77777099609375 89.33335876464844 117.22225952148438 107.11114501953124 117.22225952148438 107.11114501953124 " />
        <polyline stroke="black" stroke-width="3" stroke-linecap="round" fill="transparent" stroke-linejoin="round" points="74.55557250976563 111.55558776855467 68.3333740234375 135.55555725097656 66.55557250976563 144.44444274902344 64.77777099609375 152.44444274902344 60.333343505859375 169.33335876464844 58.555572509765625 173.77780151367188 58.555572509765625 173.77780151367188 " />
        <polyline stroke="black" stroke-width="3" stroke-linecap="round" fill="transparent" stroke-linejoin="round" points="83.4444580078125 127.55557250976563 122.55557250976563 112.44444274902344 137.66665649414063 108 147.4444580078125 106.22222900390624 152.77780151367188 105.33334350585938 158.11111450195313 108 159.88888549804688 116.88888549804688 160.77777099609375 135.55555725097656 161.66665649414063 158.6666717529297 161.66665649414063 180.88888549804688 159.88888549804688 206.66665649414065 158.11111450195313 212.88888549804688 156.33334350585938 215.5555725097656 148.3333740234375 208.4444580078125 148.3333740234375 208.4444580078125 " />
        <polyline stroke="black" stroke-width="3" stroke-linecap="round" fill="transparent" stroke-linejoin="round" points="123.4444580078125 123.1111297607422 114.55557250976563 147.11114501953125 98.55557250976563 176.44444274902344 87 193.33334350585935 79 204 73.66665649414063 207.5555725097656 69.22222900390625 206.66665649414065 69.22222900390625 206.66665649414065 " />
        <polyline stroke="black" stroke-width="3" stroke-linecap="round" fill="transparent" stroke-linejoin="round" points="86.11114501953125 155.11111450195313 123.4444580078125 171.11111450195313 157.22225952148438 181.77777099609375 189.22222900390625 189.77777099609375 228.33331298828125 195.11111450195313 241.66668701171875 196.00003051757813 241.66668701171875 196.00003051757813 " />
        </svg>