<?xml version="1.0" standalone="no"?>
    <svg width="256" height="256" xmlns="http://www.w3.org/2000/svg" version="1.1">
    <polyline stroke="black" stroke-width="3" stroke-linecap="round" fill="transparent" stroke-linejoin="round" points="68.05078125 55.073211669921875 74.50445556640625 67.33517456054688 78.37664794921875 74.4342041015625 82.89422607421875 81.53321838378906 88.7025146484375 87.34152221679688 93.86541748046876 88.63224792480469 93.86541748046876 88.63224792480469 " />
        <polyline stroke="black" stroke-width="3" stroke-linecap="round" fill="transparent" stroke-linejoin="round" points="100.9644775390625 52.49175262451172 110.64495849609376 58.945404052734375 116.4532470703125 63.46296691894531 123.55224609375 67.33517456054688 132.58740234375 66.68980407714844 132.58740234375 66.68980407714844 " />
        <polyline stroke="black" stroke-width="3" stroke-linecap="round" fill="transparent" stroke-linejoin="round" points="173.2454833984375 32.48540496826172 164.855712890625 48.61955261230469 154.52984619140625 64.10833740234375 141.62249755859375 80.24249267578125 130.00592041015625 91.8590850830078 122.26153564453124 97.02200317382813 115.16250610351563 98.312744140625 108.7088623046875 97.02200317382813 104.1912841796875 97.02200317382813 99.02835083007813 98.312744140625 91.9293212890625 104.7664031982422 75.14981079101563 127.99958801269533 64.1785888671875 148.6512908935547 58.37030029296875 158.331787109375 55.788818359375 163.49472045898438 55.788818359375 164.7854461669922 57.72491455078125 162.2039794921875 60.951751708984375 155.7503204345703 69.34152221679688 143.48837280273438 79.6673583984375 133.16250610351563 97.09225463867188 120.25518798828124 114.51715087890624 109.92933654785156 132.58740234375 103.47567749023438 153.88446044921875 98.312744140625 173.2454833984375 97.02200317382813 186.79815673828125 99.6034698486328 193.89715576171875 104.7664031982422 200.9962158203125 124.12738037109376 199.06005859375 153.16885375976563 191.315673828125 178.338134765625 182.9259033203125 196.40838623046875 175.1815185546875 206.7342529296875 168.08251953125 212.54254150390625 156.4659423828125 217.06008911132813 146.14007568359375 215.76937866210935 142.26788330078125 208.02496337890625 142.26788330078125 208.02496337890625 " />
        <polyline stroke="black" stroke-width="3" stroke-linecap="round" fill="transparent" stroke-linejoin="round" points="142.91326904296875 131.22640991210938 129.36056518554688 150.58738708496094 119.03469848632813 166.72154235839844 106.77276611328124 182.2103271484375 98.38299560546876 190.60009765625 91.9293212890625 194.4722900390625 91.9293212890625 194.4722900390625 " />
        <polyline stroke="black" stroke-width="3" stroke-linecap="round" fill="transparent" stroke-linejoin="round" points="82.89422607421875 149.94203186035156 102.90057373046876 152.52349853515625 119.6800537109375 157.68641662597656 139.04107666015625 164.14007568359375 157.75665283203125 171.23910522460938 175.1815185546875 180.27423095703125 175.1815185546875 180.27423095703125 " />
        </svg>