<?xml version="1.0" standalone="no"?>
    <svg width="256" height="256" xmlns="http://www.w3.org/2000/svg" version="1.1">
    <polyline stroke="black" stroke-width="3" stroke-linecap="round" fill="transparent" stroke-linejoin="round" points="48.28521728515625 119.32609558105467 67.17147827148438 110.29351806640624 77.025146484375 106.18780517578124 102.07000732421876 97.56582641601563 127.525390625 90.58612060546876 159.5499267578125 82.78526306152344 166.5296630859375 81.14297485351563 179.66790771484375 78.67955017089844 179.66790771484375 78.67955017089844 " />
        <polyline stroke="black" stroke-width="3" stroke-linecap="round" fill="transparent" stroke-linejoin="round" points="107.40740966796876 98.38697814941406 101.659423828125 112.75694274902344 98.785400390625 121.37893676757813 93.447998046875 139.0334930419922 89.75286865234375 159.15147399902344 88.52117919921875 184.60687255859375 90.16342163085938 193.63943481445313 91.3951416015625 196.513427734375 100.01715087890624 199.79800415039065 104.9439697265625 198.15570068359375 121.77740478515624 185.83859252929688 133.68392944335938 171.0580291748047 142.71652221679688 154.224609375 142.71652221679688 154.224609375 " />
        <polyline stroke="black" stroke-width="3" stroke-linecap="round" fill="transparent" stroke-linejoin="round" points="131.22055053710938 140.26519775390625 147.2327880859375 163.66775512695313 152.57025146484375 171.87918090820313 169.4036865234375 198.15570068359375 180.0784912109375 219.91598510742188 180.0784912109375 219.91598510742188 " />
        </svg>