<?xml version="1.0" standalone="no"?>
    <svg width="256" height="256" xmlns="http://www.w3.org/2000/svg" version="1.1">
    <polyline stroke="black" stroke-width="3" stroke-linecap="round" fill="transparent" stroke-linejoin="round" points="60.84375 105.1968994140625 71.75640869140625 100.02775573730467 88.98687744140625 93.13557434082033 112.53518676757813 84.52033996582031 131.48870849609375 76.47944641113281 152.165283203125 68.43856811523438 167.09832763671875 61.54637145996094 178.010986328125 56.95158386230469 183.75445556640625 55.22853088378906 186.626220703125 55.22853088378906 186.626220703125 55.22853088378906 " />
        <polyline stroke="black" stroke-width="3" stroke-linecap="round" fill="transparent" stroke-linejoin="round" points="86.1151123046875 122.4273681640625 86.1151123046875 133.3400115966797 86.68948364257813 143.67828369140625 87.26382446289063 156.88832092285156 88.98687744140625 171.24703979492188 91.28427124023438 181.5853271484375 94.156005859375 188.47750854492188 100.473876953125 192.4979553222656 110.8121337890625 193.07229614257813 122.87347412109376 187.90316772460935 134.934814453125 178.7135772705078 145.847412109375 168.3752899169922 158.48309326171875 152.29351806640625 158.48309326171875 152.29351806640625 " />
        <polyline stroke="black" stroke-width="3" stroke-linecap="round" fill="transparent" stroke-linejoin="round" points="138.95526123046875 132.19131469726563 150.44219970703125 144.8269805908203 159.6318359375 154.59092712402344 171.1187744140625 166.65225219726563 182.60577392578125 179.86227416992188 191.22100830078125 189.0518493652344 196.39013671875 194.79534912109375 201.559326171875 198.241455078125 201.559326171875 198.241455078125 " />
        </svg>