<?xml version="1.0" standalone="no"?>
    <svg width="256" height="256" xmlns="http://www.w3.org/2000/svg" version="1.1">
    <polyline stroke="black" stroke-width="3" stroke-linecap="round" fill="transparent" stroke-linejoin="round" points="43.22503662109375 127.1431121826172 59.553070068359375 121.40623474121094 69.26165771484375 118.317138671875 79.4114990234375 115.22805786132813 101.4764404296875 109.04986572265624 112.067626953125 105.0781707763672 133.69125366210938 97.57611083984376 166.34735107421875 86.10234069824219 176.49725341796875 82.13064575195313 183.11669921875 79.04156494140625 187.08837890625 76.39376831054688 187.52972412109375 75.95246887207031 187.52972412109375 75.95246887207031 " />
        <polyline stroke="black" stroke-width="3" stroke-linecap="round" fill="transparent" stroke-linejoin="round" points="104.12423706054688 98.90000915527344 98.38739013671876 112.13897705078124 92.20916748046876 129.7908935546875 83.38323974609375 162.8883056640625 81.61801147460938 171.7142791748047 78.97021484375 185.8358459472656 78.08761596679688 195.54443359375 79.4114990234375 202.60519409179688 82.94189453125 206.13558959960935 91.76791381835938 208.34207153320313 105.0068359375 207.0181884765625 117.36322021484376 203.0465087890625 128.83700561523438 197.75091552734375 141.19332885742188 188.04232788085935 141.19332885742188 188.04232788085935 " />
        <polyline stroke="black" stroke-width="3" stroke-linecap="round" fill="transparent" stroke-linejoin="round" points="141.19332885742188 149.2080535888672 150.019287109375 163.77090454101563 155.31488037109375 173.47947692871094 161.0517578125 183.62933349609375 172.52557373046875 205.69427490234375 183.55804443359375 230.84832763671875 183.55804443359375 230.84832763671875 " />
        </svg>