<?xml version="1.0" standalone="no"?>
    <svg width="256" height="256" xmlns="http://www.w3.org/2000/svg" version="1.1">
    <polyline stroke="black" stroke-width="3" stroke-linecap="round" fill="transparent" stroke-linejoin="round" points="85 55 85 55 85 56 85 60 85 65 85 72 86 85 87 94 88 103 89 110 90 117 90 121 90 124 91 125 91 124 " />
        <polyline stroke="black" stroke-width="3" stroke-linecap="round" fill="transparent" stroke-linejoin="round" points="84 60 85 58 89 55 93 52 100 49 105 46 111 44 117 42 124 40 131 40 138 40 144 40 150 42 158 45 161 47 164 52 166 59 166 69 165 79 164 90 161 101 157 111 153 119 151 123 " />
        <polyline stroke="black" stroke-width="3" stroke-linecap="round" fill="transparent" stroke-linejoin="round" points="101 115 100 114 100 113 101 112 102 109 104 107 107 105 111 103 115 101 121 100 127 99 138 98 145 97 152 96 157 96 158 96 160 97 " />
        <polyline stroke="black" stroke-width="3" stroke-linecap="round" fill="transparent" stroke-linejoin="round" points="102 136 102 136 99 137 98 138 97 138 96 138 97 138 98 138 101 138 107 137 110 137 119 136 126 135 133 134 140 131 148 129 151 127 " />
        <polyline stroke="black" stroke-width="3" stroke-linecap="round" fill="transparent" stroke-linejoin="round" points="122 44 122 45 123 49 123 54 123 62 124 72 124 85 125 99 126 116 128 133 131 158 133 173 134 188 134 200 134 211 134 220 135 227 135 229 " />
        </svg>