<?xml version="1.0" standalone="no"?>
    <svg width="256" height="256" xmlns="http://www.w3.org/2000/svg" version="1.1">
    <polyline stroke="black" stroke-width="3" stroke-linecap="round" fill="transparent" stroke-linejoin="round" points="88 78 87 85 86 92 86 112 86 129 89 139 89 139 " />
        <polyline stroke="black" stroke-width="3" stroke-linecap="round" fill="transparent" stroke-linejoin="round" points="85 59 102 57 119 55 141 51 161 51 170 51 180 52 187 57 190 65 190 79 189 95 182 113 172 128 172 128 " />
        <polyline stroke="black" stroke-width="3" stroke-linecap="round" fill="transparent" stroke-linejoin="round" points="106 98 126 97 146 96 163 96 174 96 178 96 178 96 " />
        <polyline stroke="black" stroke-width="3" stroke-linecap="round" fill="transparent" stroke-linejoin="round" points="98 143 114 142 130 141 148 137 163 134 173 129 173 129 " />
        <polyline stroke="black" stroke-width="3" stroke-linecap="round" fill="transparent" stroke-linejoin="round" points="142 57 142 64 142 71 142 90 141 114 140 130 140 176 140 209 140 222 140 222 " />
        </svg>