<?xml version="1.0" standalone="no"?>
    <svg width="256" height="256" xmlns="http://www.w3.org/2000/svg" version="1.1">
    <polyline stroke="black" stroke-width="3" stroke-linecap="round" fill="transparent" stroke-linejoin="round" points="97.84765625 53.252410888671875 95.2314453125 69.27687072753906 94.25033569335938 80.39588928222656 94.25033569335938 87.26351928710938 94.57733154296876 102.306884765625 95.2314453125 111.46371459960938 95.55844116210938 113.7529296875 95.55844116210938 113.7529296875 " />
        <polyline stroke="black" stroke-width="3" stroke-linecap="round" fill="transparent" stroke-linejoin="round" points="98.17471313476563 51.944297790527344 113.54510498046876 44.42261505126953 134.80203247070313 38.53607177734375 152.13458251953125 36.246856689453125 160.63739013671875 36.246856689453125 167.83203125 37.22795867919922 174.37261962890625 39.84418487548828 177.96990966796875 44.74964141845703 177.6429443359375 53.252410888671875 172.73748779296875 71.89311218261719 167.177978515625 92.16896057128906 161.94549560546875 109.8285675048828 160.310302734375 116.04212951660156 160.310302734375 116.04212951660156 " />
        <polyline stroke="black" stroke-width="3" stroke-linecap="round" fill="transparent" stroke-linejoin="round" points="127.93441772460938 53.252410888671875 126.29922485351563 72.54718017578125 125.31817626953124 89.55271911621094 124.6640625 104.92311096191406 124.6640625 107.21232604980467 124.6640625 107.21232604980467 " />
        <polyline stroke="black" stroke-width="3" stroke-linecap="round" fill="transparent" stroke-linejoin="round" points="100.46389770507813 74.18231201171875 134.4749755859375 60.44706726074219 145.92105102539063 58.48487854003906 155.077880859375 57.5037841796875 158.67523193359375 57.17677307128906 158.67523193359375 57.17677307128906 " />
        <polyline stroke="black" stroke-width="3" stroke-linecap="round" fill="transparent" stroke-linejoin="round" points="96.53955078125 101.32579040527344 115.83432006835938 96.0933074951172 136.11013793945313 92.16896057128906 143.95883178710938 90.5338134765625 151.80755615234375 88.89865112304688 154.0968017578125 88.57162475585938 154.0968017578125 88.57162475585938 " />
        <polyline stroke="black" stroke-width="3" stroke-linecap="round" fill="transparent" stroke-linejoin="round" points="70.37716674804688 144.16668701171875 91.30703735351563 136.64500427246094 112.2369384765625 132.3936309814453 130.877685546875 129.7773895263672 141.66964721679688 129.7773895263672 144.285888671875 130.10443115234375 144.285888671875 130.10443115234375 " />
        <polyline stroke="black" stroke-width="3" stroke-linecap="round" fill="transparent" stroke-linejoin="round" points="61.220306396484375 183.4102783203125 84.7664794921875 176.2156219482422 118.12350463867188 170.3290557861328 147.8831787109375 166.0776824951172 179.93212890625 161.82630920410156 201.8431396484375 159.86412048339844 212.6351318359375 159.53707885742188 215.90533447265625 159.21005249023438 215.90533447265625 159.21005249023438 " />
        <polyline stroke="black" stroke-width="3" stroke-linecap="round" fill="transparent" stroke-linejoin="round" points="124.6640625 136.64500427246094 126.62628173828124 180.1399688720703 127.93441772460938 204.01315307617188 129.24252319335938 222.65383911132813 129.56951904296875 230.82958984375 129.56951904296875 230.82958984375 " />
        </svg>