<?xml version="1.0" standalone="no"?>
    <svg width="256" height="256" xmlns="http://www.w3.org/2000/svg" version="1.1">
    <polyline stroke="black" stroke-width="3" stroke-linecap="round" fill="transparent" stroke-linejoin="round" points="72.12075805664063 63.29512023925781 76.41091918945313 76.49562072753906 83.01119995117188 99.5964813232422 84.66122436523438 112.46696472167967 84.66122436523438 112.46696472167967 84.66122436523438 112.46696472167967 " />
        <polyline stroke="black" stroke-width="3" stroke-linecap="round" fill="transparent" stroke-linejoin="round" points="80.37109375 78.47569274902344 86.97134399414063 73.52549743652344 109.41217041015624 57.354888916015625 119.97259521484376 51.08466339111328 135.483154296875 45.144432067871094 148.68365478515625 42.83434295654297 159.904052734375 44.814422607421875 168.1544189453125 51.08466339111328 174.754638671875 66.59524536132813 176.4046630859375 90.026123046875 169.47442626953125 114.11701965332033 159.57403564453125 125.99745178222656 146.37359619140625 126.98748779296876 138.12322998046875 120.0572509765625 125.582763671875 96.62638854980467 118.65252685546876 80.12574768066406 116.012451171875 68.90533447265625 115.68240356445313 64.61515808105469 116.34243774414063 63.95513916015625 116.67242431640624 65.60520935058594 117.00244140625 71.54542541503906 117.00244140625 87.38601684570313 115.02239990234376 105.53669738769533 110.07220458984376 121.04728698730467 106.112060546875 126.657470703125 106.112060546875 126.657470703125 106.112060546875 126.657470703125 " />
        <polyline stroke="black" stroke-width="3" stroke-linecap="round" fill="transparent" stroke-linejoin="round" points="87.96139526367188 102.56657409667967 108.75213623046876 93.32624816894533 141.09335327148438 83.09585571289063 160.23406982421875 85.7359619140625 160.23406982421875 85.7359619140625 160.23406982421875 85.7359619140625 160.23406982421875 85.7359619140625 " />
        <polyline stroke="black" stroke-width="3" stroke-linecap="round" fill="transparent" stroke-linejoin="round" points="93.2415771484375 129.95761108398438 113.37234497070313 121.37728881835938 145.383544921875 114.7770538330078 151.9837646484375 116.09709167480467 151.9837646484375 116.09709167480467 " />
        <polyline stroke="black" stroke-width="3" stroke-linecap="round" fill="transparent" stroke-linejoin="round" points="93.2415771484375 155.3685760498047 108.42214965820313 148.4383087158203 135.15316772460938 141.8380584716797 135.15316772460938 141.8380584716797 135.15316772460938 141.8380584716797 135.15316772460938 141.8380584716797 " />
        <polyline stroke="black" stroke-width="3" stroke-linecap="round" fill="transparent" stroke-linejoin="round" points="56.280181884765625 193.98001098632813 65.5205078125 188.36978149414065 103.80194091796876 175.82933044433594 149.34368896484375 172.85922241210938 180.0347900390625 171.5391845703125 182.6749267578125 170.879150390625 182.6749267578125 170.879150390625 " />
        <polyline stroke="black" stroke-width="3" stroke-linecap="round" fill="transparent" stroke-linejoin="round" points="121.62261962890624 151.40841674804688 120.63259887695313 160.31874084472656 122.94265747070313 209.16058349609375 129.8729248046875 246.45196533203125 129.8729248046875 246.45196533203125 129.8729248046875 246.45196533203125 " />
        </svg>