<?xml version="1.0" standalone="no"?>
    <svg width="256" height="256" xmlns="http://www.w3.org/2000/svg" version="1.1">
    <polyline stroke="black" stroke-width="3" stroke-linecap="round" fill="transparent" stroke-linejoin="round" points="74 33 73 50 73 63 73 78 74 92 77 103 77 103 " />
        <polyline stroke="black" stroke-width="3" stroke-linecap="round" fill="transparent" stroke-linejoin="round" points="78 40 105 38 129 35 153 34 170 34 180 35 183 40 183 48 183 61 173 77 164 91 155 100 155 100 " />
        <polyline stroke="black" stroke-width="3" stroke-linecap="round" fill="transparent" stroke-linejoin="round" points="132 33 124 44 120 58 115 77 112 91 110 97 110 97 " />
        <polyline stroke="black" stroke-width="3" stroke-linecap="round" fill="transparent" stroke-linejoin="round" points="64 77 97 70 116 69 137 69 153 69 164 72 166 74 166 74 " />
        <polyline stroke="black" stroke-width="3" stroke-linecap="round" fill="transparent" stroke-linejoin="round" points="78 106 92 104 108 103 129 102 146 102 162 102 170 102 170 102 " />
        <polyline stroke="black" stroke-width="3" stroke-linecap="round" fill="transparent" stroke-linejoin="round" points="74 149 83 149 90 149 108 148 127 147 144 145 159 145 166 145 166 145 " />
        <polyline stroke="black" stroke-width="3" stroke-linecap="round" fill="transparent" stroke-linejoin="round" points="43 194 53 191 61 191 82 187 113 182 141 180 167 180 185 180 194 180 196 180 196 180 " />
        <polyline stroke="black" stroke-width="3" stroke-linecap="round" fill="transparent" stroke-linejoin="round" points="119 158 122 180 122 202 122 229 122 229 " />
        </svg>