<?xml version="1.0" standalone="no"?>
    <svg width="256" height="256" xmlns="http://www.w3.org/2000/svg" version="1.1">
    <polyline stroke="black" stroke-width="3" stroke-linecap="round" fill="transparent" stroke-linejoin="round" points="76.15914916992188 77.03111267089844 88.33908081054688 68.50517272949219 101.73699951171876 59.37022399902344 113.30792236328124 52.06226348876953 122.44287109375 47.799293518066406 127.31484985351563 45.97229766845703 128.5328369140625 48.40828704833984 124.87884521484376 57.54322814941406 106.60897827148438 85.55706787109375 78.59515380859375 125.75083923339844 61.543212890625 153.15567016601563 48.754302978515625 177.51553344726563 42.664337158203125 190.9134521484375 39.0103759765625 196.3944091796875 39.0103759765625 198.22140502929688 41.44635009765625 194.56744384765625 48.14532470703125 184.823486328125 62.1522216796875 164.7266082763672 74.3321533203125 147.06570434570313 85.29409790039063 132.44979858398438 93.2110595703125 122.09686279296876 99.301025390625 116.61589050292967 104.1729736328125 114.17990112304688 105.99996948242188 118.44287109375 105.3909912109375 137.93077087402344 105.99996948242188 153.15567016601563 108.43597412109376 165.33560180664063 111.48095703125 173.2525634765625 115.743896484375 178.7335205078125 120.61590576171876 182.9964904785156 126.70587158203124 182.9964904785156 132.18682861328125 175.68853759765625 143.14874267578125 135.49478149414063 143.14874267578125 135.49478149414063 " />
        <polyline stroke="black" stroke-width="3" stroke-linecap="round" fill="transparent" stroke-linejoin="round" points="160.20068359375 82.5120849609375 168.72662353515625 81.29409790039063 178.4705810546875 78.24911499023438 185.77850341796875 73.98614501953125 193.08642578125 68.50517272949219 198.56744384765625 63.024200439453125 201.6124267578125 58.15223693847656 201.6124267578125 55.10725402832031 199.1763916015625 56.934234619140625 190.6505126953125 66.06918334960938 175.425537109375 89.82003784179688 158.3736572265625 124.5328369140625 143.75775146484375 163.5086212158203 133.40481567382813 193.95843505859375 127.923828125 211.61932373046875 126.70587158203124 217.70928955078125 128.5328369140625 217.70928955078125 132.18682861328125 211.0103454589844 141.9307861328125 189.08645629882813 148.62973022460938 171.42556762695313 155.32867431640625 156.80966186523438 162.02764892578125 144.02073669433594 168.11761474609375 136.10377502441406 175.425537109375 128.7958221435547 182.7335205078125 123.92384338378906 188.823486328125 120.8788604736328 193.6954345703125 122.7058563232422 195.5224609375 131.84080505371094 193.6954345703125 156.80966186523438 192.47747802734375 173.86155700683594 193.6954345703125 184.823486328125 196.740478515625 192.1314392089844 202.221435546875 198.83041381835935 209.52935791015625 203.702392578125 220.4913330078125 204.92037963867188 227.79925537109375 201.8753967285156 233.2802734375 194.56744384765625 239.97918701171875 168.9895782470703 239.97918701171875 137.93077087402344 239.97918701171875 137.93077087402344 " />
        </svg>