<?xml version="1.0" standalone="no"?>
    <svg width="256" height="256" xmlns="http://www.w3.org/2000/svg" version="1.1">
    <polyline stroke="black" stroke-width="3" stroke-linecap="round" fill="transparent" stroke-linejoin="round" points="70.41622924804688 90.04638671875 82.04638671875 82.70101928710938 96.73712158203124 74.74354553222656 110.20361328125 65.56184387207031 121.22161865234376 58.21649169921875 127.95489501953124 53.319580078125 130.4033203125 49.03478240966797 130.4033203125 49.03478240966797 " />
        <polyline stroke="black" stroke-width="3" stroke-linecap="round" fill="transparent" stroke-linejoin="round" points="92.45230102539063 92.4948272705078 80.21002197265625 120.6520538330078 69.1920166015625 148.1971435546875 61.84661865234375 169.00900268554688 55.72552490234375 184.9239501953125 51.440704345703125 194.7177734375 48.380126953125 199.61468505859375 48.380126953125 199.61468505859375 " />
        <polyline stroke="black" stroke-width="3" stroke-linecap="round" fill="transparent" stroke-linejoin="round" points="91.8402099609375 138.40333557128906 99.185546875 134.73065185546875 104.694580078125 133.5064239501953 104.08245849609376 154.3182830810547 97.34921264648438 189.208740234375 94.9007568359375 203.89947509765625 95.51287841796876 214.91751098632813 97.34921264648438 219.81442260742188 102.24612426757813 219.20230102539065 110.20361328125 211.24481201171875 123.0579833984375 191.65719604492188 129.79119873046875 172.6816864013672 129.79119873046875 172.6816864013672 " />
        <polyline stroke="black" stroke-width="3" stroke-linecap="round" fill="transparent" stroke-linejoin="round" points="151.8272705078125 77.80410766601563 164.069580078125 71.07086181640625 176.31182861328125 64.94973754882813 188.5540771484375 60.052825927734375 197.73583984375 56.38014221191406 203.24481201171875 53.93169403076172 203.24481201171875 53.93169403076172 " />
        <polyline stroke="black" stroke-width="3" stroke-linecap="round" fill="transparent" stroke-linejoin="round" points="170.80279541015625 93.10694885253906 164.68170166015625 105.96133422851563 156.7242431640625 124.32472229003906 145.7061767578125 156.1546173095703 138.36080932617188 181.2512664794922 134.07601928710938 199.0025634765625 131.01544189453125 213.0811767578125 129.17910766601563 218.59017944335935 129.17910766601563 218.59017944335935 " />
        <polyline stroke="black" stroke-width="3" stroke-linecap="round" fill="transparent" stroke-linejoin="round" points="152.439453125 141.46389770507813 164.069580078125 132.89431762695313 175.69970703125 126.16107177734376 184.269287109375 123.71261596679688 189.7783203125 124.93684387207033 194.0631103515625 131.6700897216797 197.1236572265625 146.36080932617188 198.96002197265625 163.49998474121094 202.0206298828125 178.19070434570313 205.0811767578125 187.37240600585935 208.1417236328125 193.4935302734375 211.814453125 197.7783203125 214.875 199.0025634765625 218.54766845703125 197.7783203125 221.60821533203125 192.26931762695313 224.056640625 183.08761596679688 225.89300537109375 163.49998474121094 223.444580078125 137.17910766601563 223.444580078125 137.17910766601563 " />
        </svg>