<?xml version="1.0" standalone="no"?>
    <svg width="256" height="256" xmlns="http://www.w3.org/2000/svg" version="1.1">
    <polyline stroke="black" stroke-width="3" stroke-linecap="round" fill="transparent" stroke-linejoin="round" points="85.91766357421875 64.81596374511719 84.849853515625 73.35847473144531 81.64642333984375 86.17225646972656 77.9090576171875 103.25729370117188 74.17172241210938 121.94406127929688 72.57000732421875 137.42738342285156 73.6378173828125 147.57162475585938 76.30734252929688 152.91070556640625 81.64642333984375 154.51242065429688 94.99411010742188 151.30897521972656 113.68087768554688 144.90208435058594 130.76593017578125 139.0290985107422 147.8509521484375 132.0883026123047 160.66473388671875 124.07969665527344 171.3428955078125 111.79981994628906 171.3428955078125 111.79981994628906 " />
        <polyline stroke="black" stroke-width="3" stroke-linecap="round" fill="transparent" stroke-linejoin="round" points="159.06298828125 50.40045166015625 160.130859375 65.34986877441406 162.2664794921875 77.62974548339844 163.8681640625 93.11305236816406 164.93597412109375 120.87625122070313 164.93597412109375 120.87625122070313 " />
        <polyline stroke="black" stroke-width="3" stroke-linecap="round" fill="transparent" stroke-linejoin="round" points="138.7745361328125 153.978515625 130.76593017578125 161.9871368408203 127.56246948242188 169.99574279785156 123.82513427734376 179.6060791015625 119.5538330078125 187.61468505859375 113.14697265625 195.623291015625 103.53662109375 204.16583251953125 91.7906494140625 212.1744384765625 80.044677734375 217.51351928710935 73.1038818359375 219.115234375 66.697021484375 220.18304443359375 62.425750732421875 220.18304443359375 61.357940673828125 220.18304443359375 64.56137084960938 218.58132934570313 80.044677734375 213.77615356445313 106.2061767578125 206.8353576660156 130.76593017578125 203.0980224609375 156.9273681640625 202.0301818847656 175.08026123046875 202.0301818847656 189.4957275390625 202.0301818847656 196.4365234375 202.0301818847656 201.775634765625 204.16583251953125 206.046875 209.50491333007813 206.046875 209.50491333007813 " />
        </svg>