<?xml version="1.0" standalone="no"?>
    <svg width="256" height="256" xmlns="http://www.w3.org/2000/svg" version="1.1">
    <polyline stroke="black" stroke-width="3" stroke-linecap="round" fill="transparent" stroke-linejoin="round" points="56 93 56 114 56 135 56 154 56 166 65 186 68 188 68 188 " />
        <polyline stroke="black" stroke-width="3" stroke-linecap="round" fill="transparent" stroke-linejoin="round" points="68 110 76 110 84 110 108 106 133 104 154 104 169 107 174 118 175 135 172 153 164 167 155 174 155 174 " />
        <polyline stroke="black" stroke-width="3" stroke-linecap="round" fill="transparent" stroke-linejoin="round" points="111 114 111 123 111 132 110 147 110 163 110 172 112 173 112 173 " />
        <polyline stroke="black" stroke-width="3" stroke-linecap="round" fill="transparent" stroke-linejoin="round" points="137 116 135 132 133 148 130 163 130 163 " />
        <polyline stroke="black" stroke-width="3" stroke-linecap="round" fill="transparent" stroke-linejoin="round" points="55 177 68 177 81 177 104 176 132 175 160 174 173 174 173 174 " />
        </svg>