<?xml version="1.0" standalone="no"?>
    <svg width="256" height="256" xmlns="http://www.w3.org/2000/svg" version="1.1">
    <polyline stroke="black" stroke-width="3" stroke-linecap="round" fill="transparent" stroke-linejoin="round" points="86.87887573242188 99.61868286132813 109.870849609375 90.9967041015625 128.757080078125 87.30155944824219 148.46453857421875 83.60641479492188 167.7613525390625 81.55355834960938 184.5947265625 80.73240661621094 195.68017578125 80.73240661621094 201.8387451171875 81.55355834960938 201.8387451171875 81.55355834960938 " />
        <polyline stroke="black" stroke-width="3" stroke-linecap="round" fill="transparent" stroke-linejoin="round" points="81.130859375 143.1392059326172 99.19601440429688 137.39120483398438 118.082275390625 133.28549194335938 127.525390625 132.05377197265625 143.9482421875 131.23263549804688 159.13934326171875 130.8220672607422 171.8670654296875 131.23263549804688 177.61505126953125 130.8220672607422 183.363037109375 130.00091552734375 183.363037109375 130.00091552734375 " />
        <polyline stroke="black" stroke-width="3" stroke-linecap="round" fill="transparent" stroke-linejoin="round" points="146.41162109375 57.329864501953125 142.71652221679688 71.69984436035156 140.66366577148438 79.50070190429688 138.61080932617188 89.35440063476563 132.45223999023438 118.50494384765624 129.16766357421875 137.39120483398438 126.70428466796876 152.5823211669922 126.29367065429688 165.31002807617188 127.525390625 176.80601501464844 128.757080078125 181.73287963867188 135.73681640625 191.99713134765625 143.1270751953125 196.92401123046875 152.9808349609375 200.619140625 157.90765380859375 201.85086059570313 168.58251953125 202.26141357421875 173.0987548828125 201.44027709960935 176.7939453125 199.79800415039065 178.43621826171875 198.5662841796875 180.489013671875 196.10284423828125 183.363037109375 189.53372192382813 183.363037109375 180.50115966796875 180.899658203125 168.18402099609375 180.899658203125 168.18402099609375 " />
        </svg>