<?xml version="1.0" standalone="no"?>
    <svg width="256" height="256" xmlns="http://www.w3.org/2000/svg" version="1.1">
    <polyline stroke="black" stroke-width="3" stroke-linecap="round" fill="transparent" stroke-linejoin="round" points="75 79 76 79 77 78 79 78 81 77 84 76 87 76 92 75 96 75 100 74 104 74 109 74 114 74 119 73 124 72 129 72 134 70 135 70 137 69 138 70 138 71 " />
        <polyline stroke="black" stroke-width="3" stroke-linecap="round" fill="transparent" stroke-linejoin="round" points="85 119 85 119 82 120 81 121 80 122 80 122 81 122 83 122 86 122 91 122 98 121 103 121 109 120 115 119 122 116 130 112 137 107 141 105 144 102 " />
        <polyline stroke="black" stroke-width="3" stroke-linecap="round" fill="transparent" stroke-linejoin="round" points="108 48 107 50 105 56 103 65 101 75 99 87 96 98 95 110 93 122 93 139 93 149 95 159 96 167 99 175 102 182 105 188 109 193 114 197 119 200 128 202 135 201 143 198 150 194 155 190 160 187 163 184 165 182 166 181 167 181 166 180 165 179 164 179 " />
        </svg>