<?xml version="1.0" standalone="no"?>
    <svg width="256" height="256" xmlns="http://www.w3.org/2000/svg" version="1.1">
    <polyline stroke="black" stroke-width="3" stroke-linecap="round" fill="transparent" stroke-linejoin="round" points="133.29119873046875 53.319580078125 103.9097900390625 90.6584930419922 87.38272094726563 108.40977478027344 70.2435302734375 121.87628173828124 56.77703857421875 129.2216339111328 56.77703857421875 129.2216339111328 " />
        <polyline stroke="black" stroke-width="3" stroke-linecap="round" fill="transparent" stroke-linejoin="round" points="98.4007568359375 69.23452758789063 115.5399169921875 72.90721130371094 144.92138671875 77.19200134277344 165.73321533203125 79.64045715332031 182.26025390625 81.47679138183594 193.2783203125 82.70101928710938 198.17523193359375 84.537353515625 198.17523193359375 84.537353515625 " />
        <polyline stroke="black" stroke-width="3" stroke-linecap="round" fill="transparent" stroke-linejoin="round" points="86.15850830078125 138.40333557128906 99.01287841796876 134.11854553222656 115.5399169921875 129.833740234375 133.9033203125 124.32472229003906 152.87884521484375 120.03993225097656 166.3453369140625 116.9793701171875 172.46649169921875 115.75514221191406 174.30279541015625 115.75514221191406 170.630126953125 117.59147644042967 164.509033203125 120.03993225097656 159 123.71261596679688 154.10308837890625 127.3852996826172 150.43038940429688 132.89431762695313 146.75772094726563 145.13658142089844 145.53350830078125 164.11209106445313 146.14559936523438 181.2512664794922 146.75772094726563 195.32986450195313 146.14559936523438 205.12368774414065 141.86080932617188 219.20230102539065 141.86080932617188 219.20230102539065 " />
        </svg>