<?xml version="1.0" standalone="no"?>
    <svg width="256" height="256" xmlns="http://www.w3.org/2000/svg" version="1.1">
    <polyline stroke="black" stroke-width="3" stroke-linecap="round" fill="transparent" stroke-linejoin="round" points="60.44500732421875 86.43122863769531 83.58505249023438 82.45213317871094 98.884033203125 80.65362548828125 127.67391967773438 78.61279296875 139.67938232421875 78.66090393066406 150.6898193359375 79.06277465820313 170.7545166015625 79.67959594726563 177.743408203125 79.98399353027344 180.74163818359375 80.02732849121094 181.2188720703125 79.5565185546875 194.2169189453125 78.94564819335938 206.946044921875 77.80174255371094 208.7657470703125 76.9088134765625 208.8302001953125 76.8748779296875 208.86663818359375 76.85568237304688 " />
        <polyline stroke="black" stroke-width="3" stroke-linecap="round" fill="transparent" stroke-linejoin="round" points="94.93759155273438 80.75460815429688 94.1400146484375 93.0980987548828 92.00289916992188 113.03836059570313 90.7330322265625 122.6130828857422 88.81707763671875 130.07373046875 88.20513916015625 132.2483367919922 88.19647216796875 132.27915954589844 88.192138671875 132.2944793701172 88.49081420898438 132.3616943359375 90.188720703125 133.04397583007813 93.00851440429688 133.73333740234375 107.9111328125 134.28155517578125 124.567138671875 133.2159881591797 133.85275268554688 132.46908569335938 146.90704345703125 132.27098083496094 150.457275390625 132.32958984375 154.21600341796875 132.42771911621094 154.2503662109375 132.43186950683594 " />
        <polyline stroke="black" stroke-width="3" stroke-linecap="round" fill="transparent" stroke-linejoin="round" points="151.662353515625 60.24169921875 151.73504638671875 70.552001953125 151.0938720703125 91.967041015625 150.59564208984375 101.67234802246094 148.998046875 118.84762573242188 147.41024780273438 133.24288940429688 145.92999267578125 139.6424560546875 145.78195190429688 140.2823944091797 " />
        <polyline stroke="black" stroke-width="3" stroke-linecap="round" fill="transparent" stroke-linejoin="round" points="89.98126220703125 185.40008544921875 101.56771850585938 186.451171875 124.69686889648438 188.681884765625 148.63519287109375 189.595947265625 158.89794921875 189.4261474609375 169.20458984375 189.1734619140625 179.57171630859375 188.2568359375 194.78314208984375 188.75411987304688 201.3531494140625 189.38568115234375 204.6451416015625 190.94430541992188 204.9666748046875 191.0965576171875 " />
        </svg>