<?xml version="1.0" standalone="no"?>
    <svg width="256" height="256" xmlns="http://www.w3.org/2000/svg" version="1.1">
    <polyline stroke="black" stroke-width="3" stroke-linecap="round" fill="transparent" stroke-linejoin="round" points="61.664337158203125 127.57781982421876 72.62628173828125 124.5328369140625 89.67816162109375 119.66087341308594 118.91000366210938 112.35292053222656 143.87884521484375 107.48094177246094 163.97576904296875 104.43595886230467 181.63665771484375 100.781982421875 193.81658935546875 97.12800598144533 201.12451171875 94.6920166015625 201.12451171875 94.6920166015625 " />
        <polyline stroke="black" stroke-width="3" stroke-linecap="round" fill="transparent" stroke-linejoin="round" points="104.903076171875 92.25602722167967 99.422119140625 108.6989288330078 93.941162109375 130.01380920410156 91.50518798828124 146.4567108154297 91.50518798828124 160.46363830566406 92.72314453125 169.5985870361328 96.98614501953124 176.29754638671875 103.07611083984376 179.95152282714844 112.2110595703125 181.77850341796875 123.1729736328125 179.95152282714844 134.743896484375 174.47055053710938 147.5328369140625 164.11761474609375 160.9307861328125 144.62973022460938 160.9307861328125 144.62973022460938 " />
        <polyline stroke="black" stroke-width="3" stroke-linecap="round" fill="transparent" stroke-linejoin="round" points="156.66778564453125 75.20413208007813 156.66778564453125 91.0380401611328 157.88580322265625 114.17990112304688 158.4947509765625 144.62973022460938 159.103759765625 163.5086212158203 159.103759765625 163.5086212158203 " />
        <polyline stroke="black" stroke-width="3" stroke-linecap="round" fill="transparent" stroke-linejoin="round" points="70.1903076171875 229.88922119140625 79.32525634765625 225.01724243164065 93.941162109375 219.53628540039065 117.6920166015625 213.44631958007813 150.57781982421875 206.13836669921875 174.32867431640625 202.484375 193.20758056640625 201.26638793945313 206.60546875 201.26638793945313 215.1314697265625 203.0933837890625 219.3944091796875 206.13836669921875 219.3944091796875 206.13836669921875 " />
        </svg>