<?xml version="1.0" standalone="no"?>
    <svg width="256" height="256" xmlns="http://www.w3.org/2000/svg" version="1.1">
    <polyline stroke="black" stroke-width="3" stroke-linecap="round" fill="transparent" stroke-linejoin="round" points="81.4619140625 117.69686889648438 92.07928466796876 115.9272918701172 102.6966552734375 114.15774536132813 112.606201171875 112.38816833496094 132.42526245117188 108.1412353515625 151.1826171875 104.95602416992188 168.17041015625 102.4786376953125 180.9112548828125 100.00125122070313 189.4051513671875 98.58560180664063 192.59033203125 97.87777709960938 192.59033203125 97.87777709960938 " />
        <polyline stroke="black" stroke-width="3" stroke-linecap="round" fill="transparent" stroke-linejoin="round" points="110.48272705078124 73.10394287109375 108.00534057617188 82.3056640625 102.34274291992188 108.49514770507813 100.57318115234376 123.35943603515624 100.57318115234376 136.45419311523438 101.63494873046876 149.54893493652344 103.050537109375 161.22802734375 105.5279541015625 171.49148559570313 109.06707763671876 178.9236297607422 110.83663940429688 181.7549285888672 118.6226806640625 187.41754150390625 128.17831420898438 188.83319091796875 138.44174194335938 188.1253662109375 149.41302490234375 185.2940673828125 163.9234619140625 172.90713500976563 163.9234619140625 172.90713500976563 " />
        <polyline stroke="black" stroke-width="3" stroke-linecap="round" fill="transparent" stroke-linejoin="round" points="165.6929931640625 67.08743286132813 164.9852294921875 78.76654052734375 163.9234619140625 92.92301940917967 163.215576171875 105.3099365234375 158.96868896484375 143.53244018554688 155.4295654296875 158.7506561279297 152.5982666015625 171.49148559570313 152.5982666015625 171.49148559570313 " />
        <polyline stroke="black" stroke-width="3" stroke-linecap="round" fill="transparent" stroke-linejoin="round" points="68.3671875 218.91571044921875 78.98455810546875 218.56182861328125 91.72540283203124 217.85397338867188 119.33053588867188 213.9609375 133.48699951171875 211.83746337890625 148.351318359375 209.36007690429688 175.6025390625 205.82098388671875 198.960693359375 204.75924682617188 217.71807861328125 205.467041015625 225.1502685546875 206.8827209472656 225.1502685546875 206.8827209472656 " />
        </svg>