<?xml version="1.0" standalone="no"?>
    <svg width="256" height="256" xmlns="http://www.w3.org/2000/svg" version="1.1">
    <polyline stroke="black" stroke-width="3" stroke-linecap="round" fill="transparent" stroke-linejoin="round" points="92 54 92 61 90 95 89 118 89 141 89 157 91 165 93 169 95 172 95 172 " />
        <polyline stroke="black" stroke-width="3" stroke-linecap="round" fill="transparent" stroke-linejoin="round" points="184 53 184 68 178 90 175 112 174 121 172 141 169 156 162 166 162 166 " />
        <polyline stroke="black" stroke-width="3" stroke-linecap="round" fill="transparent" stroke-linejoin="round" points="104 167 129 167 146 167 160 167 160 167 " />
        <polyline stroke="black" stroke-width="3" stroke-linecap="round" fill="transparent" stroke-linejoin="round" points="52 128 60 128 82 126 115 125 132 124 174 124 193 124 198 126 198 126 " />
        <polyline stroke="black" stroke-width="3" stroke-linecap="round" fill="transparent" stroke-linejoin="round" points="58 234 85 229 105 228 159 224 175 224 205 223 229 224 229 224 " />
        </svg>