<?xml version="1.0" standalone="no"?>
    <svg width="256" height="256" xmlns="http://www.w3.org/2000/svg" version="1.1">
    <polyline stroke="black" stroke-width="3" stroke-linecap="round" fill="transparent" stroke-linejoin="round" points="62 89 82 86 114 81 146 76 174 73 197 71 213 71 220 70 221 70 221 70 " />
        <polyline stroke="black" stroke-width="3" stroke-linecap="round" fill="transparent" stroke-linejoin="round" points="109 70 108 93 105 114 102 128 101 133 101 135 102 135 108 135 120 135 134 135 147 132 153 131 153 131 " />
        <polyline stroke="black" stroke-width="3" stroke-linecap="round" fill="transparent" stroke-linejoin="round" points="159 72 159 89 156 112 156 112 " />
        <polyline stroke="black" stroke-width="3" stroke-linecap="round" fill="transparent" stroke-linejoin="round" points="91 176 110 176 133 175 157 174 176 174 194 174 210 174 210 174 " />
        </svg>