<?xml version="1.0" standalone="no"?>
    <svg width="256" height="256" xmlns="http://www.w3.org/2000/svg" version="1.1">
    <polyline stroke="black" stroke-width="3" stroke-linecap="round" fill="transparent" stroke-linejoin="round" points="76.27545166015625 47.62217712402344 75.16473388671875 68.72557067871094 75.7200927734375 90.38430786132813 76.83078002929688 103.7127685546875 78.496826171875 113.7091064453125 79.05218505859375 119.81797790527344 79.05218505859375 122.03939819335938 77.94146728515625 119.26263427734376 77.94146728515625 119.26263427734376 " />
        <polyline stroke="black" stroke-width="3" stroke-linecap="round" fill="transparent" stroke-linejoin="round" points="80.16290283203125 73.16838073730469 86.27178955078125 65.39344787597656 95.7127685546875 56.5078125 106.26446533203124 48.177528381347656 119.5928955078125 41.51329803466797 132.36602783203125 37.07048034667969 144.0284423828125 34.84906768798828 151.8033447265625 34.84906768798828 156.801513671875 37.07048034667969 159.57830810546875 43.73470306396485 161.244384765625 62.61668395996094 158.46759033203125 85.94148254394531 152.35870361328125 105.93417358398438 152.35870361328125 105.93417358398438 " />
        <polyline stroke="black" stroke-width="3" stroke-linecap="round" fill="transparent" stroke-linejoin="round" points="73.4986572265625 100.93600463867188 84.605712890625 93.71641540527344 95.15740966796876 89.27360534667969 107.37518310546876 84.27543640136719 119.03756713867188 79.83261108398438 128.47857666015625 76.50050354003906 135.14279174804688 71.5023193359375 135.14279174804688 71.5023193359375 " />
        <polyline stroke="black" stroke-width="3" stroke-linecap="round" fill="transparent" stroke-linejoin="round" points="125.14642333984376 52.62034606933594 120.70361328125 66.504150390625 119.03756713867188 78.16654968261719 116.26080322265624 89.82894897460938 112.9287109375 100.93600463867188 107.93051147460938 109.26628112792967 101.8216552734375 115.93051147460938 95.15740966796876 120.92869567871094 89.04852294921875 123.7054443359375 85.16107177734375 124.816162109375 85.16107177734375 124.26080322265624 91.26995849609376 121.48403930664063 103.48770141601563 117.04122924804688 117.9268798828125 111.48770141601563 127.9232177734375 109.26628112792967 133.47674560546875 109.26628112792967 133.47674560546875 109.26628112792967 " />
        <polyline stroke="black" stroke-width="3" stroke-linecap="round" fill="transparent" stroke-linejoin="round" points="40.177520751953125 161.4694061279297 54.61669921875 161.4694061279297 71.83261108398438 159.2480010986328 101.8216552734375 153.69447326660156 121.25897216796876 148.69630432128906 138.47491455078125 144.2534942626953 152.35870361328125 140.92137145996094 160.68896484375 138.69996643066406 165.6871337890625 137.58926391601563 166.7978515625 137.58926391601563 166.7978515625 137.58926391601563 " />
        <polyline stroke="black" stroke-width="3" stroke-linecap="round" fill="transparent" stroke-linejoin="round" points="89.04852294921875 155.9158935546875 76.83078002929688 169.79969787597656 69.6112060546875 185.34957885742188 62.94696044921875 202.0101318359375 56.282745361328125 213.67254638671875 52.395263671875 219.22607421875 50.729217529296875 220.33676147460935 50.729217529296875 220.33676147460935 " />
        <polyline stroke="black" stroke-width="3" stroke-linecap="round" fill="transparent" stroke-linejoin="round" points="76.83078002929688 191.45843505859375 84.05035400390625 198.67800903320313 92.93600463867188 207.00830078125 100.7109375 214.2279052734375 109.04122924804688 217.55999755859375 119.03756713867188 214.2279052734375 119.03756713867188 214.2279052734375 " />
        <polyline stroke="black" stroke-width="3" stroke-linecap="round" fill="transparent" stroke-linejoin="round" points="142.917724609375 160.9140625 139.0302734375 171.46575927734375 135.14279174804688 180.90675354003903 131.8106689453125 192.0137939453125 128.47857666015625 202.0101318359375 125.7017822265625 210.3404235839844 122.36968994140624 217.004638671875 120.14825439453124 220.33676147460935 120.14825439453124 220.33676147460935 " />
        <polyline stroke="black" stroke-width="3" stroke-linecap="round" fill="transparent" stroke-linejoin="round" points="134.58743286132813 205.34225463867188 152.9140625 209.22970581054688 163.46575927734375 213.67254638671875 172.35137939453125 220.89212036132813 172.35137939453125 220.89212036132813 " />
        </svg>