<?xml version="1.0" standalone="no"?>
    <svg width="256" height="256" xmlns="http://www.w3.org/2000/svg" version="1.1">
    <polyline stroke="black" stroke-width="3" stroke-linecap="round" fill="transparent" stroke-linejoin="round" points="104 94 103 93 104 95 104 100 105 107 105 110 106 120 107 128 107 132 108 133 108 134 109 134 109 134 " />
        <polyline stroke="black" stroke-width="3" stroke-linecap="round" fill="transparent" stroke-linejoin="round" points="109 95 108 93 111 92 118 89 125 87 128 86 139 82 149 77 158 74 162 74 163 76 162 81 161 86 160 88 156 99 153 109 152 112 150 123 148 131 146 135 144 138 143 138 142 138 142 138 " />
        <polyline stroke="black" stroke-width="3" stroke-linecap="round" fill="transparent" stroke-linejoin="round" points="127 101 126 100 126 101 127 106 127 114 127 117 127 119 126 130 126 133 124 135 123 135 123 134 123 134 " />
        <polyline stroke="black" stroke-width="3" stroke-linecap="round" fill="transparent" stroke-linejoin="round" points="113 119 113 118 117 117 124 116 131 115 138 113 142 113 144 113 143 115 143 115 " />
        <polyline stroke="black" stroke-width="3" stroke-linecap="round" fill="transparent" stroke-linejoin="round" points="106 141 111 140 118 137 120 136 129 134 137 132 142 132 143 133 143 133 " />
        <polyline stroke="black" stroke-width="3" stroke-linecap="round" fill="transparent" stroke-linejoin="round" points="70 181 71 179 79 176 94 169 107 164 112 162 133 156 152 151 164 148 170 147 171 147 169 147 169 147 " />
        <polyline stroke="black" stroke-width="3" stroke-linecap="round" fill="transparent" stroke-linejoin="round" points="116 164 113 169 111 175 110 177 105 189 96 201 88 210 83 216 80 219 80 219 " />
        <polyline stroke="black" stroke-width="3" stroke-linecap="round" fill="transparent" stroke-linejoin="round" points="111 186 112 187 115 189 118 191 121 192 123 192 124 192 124 192 " />
        <polyline stroke="black" stroke-width="3" stroke-linecap="round" fill="transparent" stroke-linejoin="round" points="147 161 145 161 144 165 143 173 140 182 137 189 135 192 128 201 120 210 115 216 114 218 114 218 " />
        <polyline stroke="black" stroke-width="3" stroke-linecap="round" fill="transparent" stroke-linejoin="round" points="139 192 139 191 141 191 145 194 151 197 159 200 171 203 185 205 192 206 192 206 " />
        </svg>