<?xml version="1.0" standalone="no"?>
    <svg width="256" height="256" xmlns="http://www.w3.org/2000/svg" version="1.1">
    <polyline stroke="black" stroke-width="3" stroke-linecap="round" fill="transparent" stroke-linejoin="round" points="77 73 78 74 78 75 79 80 79 85 80 90 80 95 80 100 80 104 80 108 81 111 81 113 81 113 " />
        <polyline stroke="black" stroke-width="3" stroke-linecap="round" fill="transparent" stroke-linejoin="round" points="85 89 87 88 90 86 93 84 97 82 104 79 109 77 115 75 121 74 126 73 131 72 135 72 139 72 141 72 144 74 145 77 144 81 142 87 138 93 133 100 126 107 123 110 " />
        <polyline stroke="black" stroke-width="3" stroke-linecap="round" fill="transparent" stroke-linejoin="round" points="86 123 86 123 87 122 88 121 91 120 93 119 96 118 99 116 105 115 109 114 114 114 118 114 122 114 126 114 128 115 " />
        <polyline stroke="black" stroke-width="3" stroke-linecap="round" fill="transparent" stroke-linejoin="round" points="60 160 60 160 58 161 58 162 59 163 62 163 65 162 69 162 75 162 81 161 87 161 94 160 102 158 114 155 122 153 130 150 137 147 142 145 144 144 145 143 " />
        <polyline stroke="black" stroke-width="3" stroke-linecap="round" fill="transparent" stroke-linejoin="round" points="102 127 102 127 100 129 97 133 95 137 93 143 91 149 88 155 86 166 84 172 82 178 81 184 80 188 80 191 80 192 " />
        <polyline stroke="black" stroke-width="3" stroke-linecap="round" fill="transparent" stroke-linejoin="round" points="112 128 112 128 113 127 114 128 115 129 116 135 116 141 117 148 117 157 117 165 117 173 117 182 116 189 115 197 115 201 115 205 " />
        </svg>