<?xml version="1.0" standalone="no"?>
    <svg width="256" height="256" xmlns="http://www.w3.org/2000/svg" version="1.1">
    <polyline stroke="black" stroke-width="3" stroke-linecap="round" fill="transparent" stroke-linejoin="round" points="77.056640625 91.89353942871094 73.11105346679688 106.15834045410156 69.46896362304688 117.08457946777344 66.43389892578125 124.6722412109375 63.0953369140625 129.52835083007813 63.0953369140625 129.52835083007813 " />
        <polyline stroke="black" stroke-width="3" stroke-linecap="round" fill="transparent" stroke-linejoin="round" points="103.76519775390624 71.55860900878906 125.01065063476563 64.27444458007813 146.8631591796875 59.721832275390625 166.28753662109375 56.686767578125 181.462890625 57.293792724609375 188.7470703125 59.721832275390625 193.90667724609375 64.88145446777344 192.08563232421875 80.96730041503906 180.8558349609375 100.69523620605467 167.19805908203125 119.51263427734376 153.84381103515625 131.95639038085938 153.84381103515625 131.95639038085938 " />
        <polyline stroke="black" stroke-width="3" stroke-linecap="round" fill="transparent" stroke-linejoin="round" points="104.67575073242188 129.83187866210938 97.69509887695313 143.7931671142578 93.74951171875 154.41587829589844 92.53546142578124 162.30706787109375 94.35650634765624 169.5912322998047 101.337158203125 175.96482849121094 118.9405517578125 179.30345153808594 135.02639770507813 174.7508544921875 150.50521850585938 167.4666748046875 163.8594970703125 160.78955078125 172.66119384765625 157.14744567871094 175.999755859375 156.8439483642578 176.9102783203125 157.450927734375 177.517333984375 160.48602294921875 178.4278564453125 168.37718200683594 179.33837890625 181.427978515625 181.462890625 185.37353515625 181.462890625 185.37353515625 " />
        </svg>