<?xml version="1.0" standalone="no"?>
    <svg width="256" height="256" xmlns="http://www.w3.org/2000/svg" version="1.1">
    <polyline stroke="black" stroke-width="3" stroke-linecap="round" fill="transparent" stroke-linejoin="round" points="56.30621337890625 101.99996948242188 56.30621337890625 112.35292053222656 55.69720458984375 118.44287109375 54.479217529296875 118.44287109375 54.479217529296875 118.44287109375 " />
        <polyline stroke="black" stroke-width="3" stroke-linecap="round" fill="transparent" stroke-linejoin="round" points="72.14013671875 64.8511962890625 87.36502075195313 55.71624755859375 112.3338623046875 43.53631591796875 132.4307861328125 39.273338317871094 150.70065307617188 40.4913330078125 166.5345458984375 45.97229766845703 176.27850341796875 55.10725402832031 182.36846923828125 70.3321533203125 180.54150390625 91.64703369140624 166.5345458984375 119.66087341308594 166.5345458984375 119.66087341308594 " />
        <polyline stroke="black" stroke-width="3" stroke-linecap="round" fill="transparent" stroke-linejoin="round" points="108.0709228515625 119.66087341308594 97.71795654296876 145.84771728515625 90.41000366210938 164.11761474609375 85.53802490234375 180.56051635742188 84.32003784179688 192.1314392089844 86.14703369140625 198.22140502929688 92.84600830078124 199.43939208984375 105.02593994140624 195.17642211914065 119.641845703125 187.25949096679688 130.603759765625 178.7335205078125 138.520751953125 170.8165740966797 144.61068725585938 161.68162536621094 148.26467895507813 148.28370666503906 149.482666015625 141.58474731445313 150.0916748046875 139.1487579345703 151.91864013671875 139.1487579345703 155.5726318359375 142.802734375 161.0535888671875 151.93768310546875 171.40655517578125 172.03456115722656 179.323486328125 193.34945678710935 184.1954345703125 225.62625122070313 184.1954345703125 225.62625122070313 " />
        </svg>