<?xml version="1.0" standalone="no"?>
    <svg width="256" height="256" xmlns="http://www.w3.org/2000/svg" version="1.1">
    <polyline stroke="black" stroke-width="3" stroke-linecap="round" fill="transparent" stroke-linejoin="round" points="62.666717529296875 73.13334655761719 63.20001220703125 84.86666870117188 63.20001220703125 99.53335571289063 62.666717529296875 118.4666748046875 62.933349609375 124.60000610351563 66.4000244140625 125.66667175292967 69.86672973632813 122.7333526611328 70.66671752929688 121.13336181640624 70.66671752929688 121.13336181640624 " />
        <polyline stroke="black" stroke-width="3" stroke-linecap="round" fill="transparent" stroke-linejoin="round" points="101.33334350585938 71.80000305175781 110.933349609375 70.4666748046875 124.2667236328125 67.53334045410156 140.800048828125 64.60000610351563 156.800048828125 61.93333435058594 176.2667236328125 60.333343505859375 185.60003662109375 60.066680908203125 191.20001220703125 60.066680908203125 193.86669921875 60.066680908203125 194.66668701171875 60.066680908203125 194.66668701171875 61.13334655761719 193.86669921875 65.40000915527344 187.4666748046875 78.20001220703125 178.933349609375 89.66667175292969 168.53338623046875 101.66667175292967 158.933349609375 112.33335876464844 157.3333740234375 113.66667175292967 157.3333740234375 113.66667175292967 " />
        <polyline stroke="black" stroke-width="3" stroke-linecap="round" fill="transparent" stroke-linejoin="round" points="114.933349609375 121.93336486816406 113.60003662109376 126.7333526611328 109.3333740234375 138.20001220703125 100.80001831054688 155.53335571289063 94.4000244140625 165.6666717529297 88.80001831054688 173.40000915527344 85.33334350585938 177.93336486816406 84.2667236328125 179.2666778564453 85.86672973632813 179.2666778564453 89.86672973632813 177.13336181640625 96.53335571289063 173.93336486816406 106.66671752929688 171.00001525878906 126.4000244140625 166.73336791992188 139.73333740234375 164.86668395996094 150.666748046875 163.80001831054688 159.20001220703125 163.2666778564453 160.800048828125 163.2666778564453 160.2667236328125 163.2666778564453 160.2667236328125 163.2666778564453 " />
        <polyline stroke="black" stroke-width="3" stroke-linecap="round" fill="transparent" stroke-linejoin="round" points="163.73333740234375 151.00001525878906 165.86669921875 155.00001525878906 172.53338623046875 166.73336791992188 176.800048828125 172.33335876464844 180.2667236328125 176.60000610351563 182.4000244140625 179.80001831054688 184 182.73336791992188 184.800048828125 184.6000061035156 184.800048828125 184.6000061035156 " />
        </svg>