<?xml version="1.0" standalone="no"?>
    <svg width="256" height="256" xmlns="http://www.w3.org/2000/svg" version="1.1">
    <polyline stroke="black" stroke-width="3" stroke-linecap="round" fill="transparent" stroke-linejoin="round" points="58.78607177734375 92.4948272705078 58.78607177734375 102.9007568359375 58.78607177734375 112.08245849609376 58.78607177734375 116.9793701171875 58.78607177734375 116.9793701171875 58.78607177734375 111.47035217285156 60.01031494140625 101.06442260742188 61.84661865234375 88.21003723144531 66.13143920898438 79.64045715332031 75.3131103515625 70.45875549316406 93.06442260742188 58.82859802246094 116.32470703125 49.03478240966797 141.42138671875 42.301536560058594 168.96649169921875 39.85308074951172 188.5540771484375 41.07730865478515 199.5721435546875 44.74999237060547 205.0811767578125 50.871124267578125 209.97802734375 66.78607177734375 201.408447265625 94.94328308105467 184.269287109375 113.91880798339844 168.96649169921875 126.77317810058594 168.96649169921875 126.77317810058594 " />
        <polyline stroke="black" stroke-width="3" stroke-linecap="round" fill="transparent" stroke-linejoin="round" points="120.60952758789063 105.96133422851563 108.9793701171875 137.17910766601563 95.51287841796876 165.9484405517578 87.555419921875 184.31182861328125 82.65850830078125 198.39044189453125 80.8221435546875 205.73580932617188 84.49481201171875 208.79635620117188 96.125 205.73580932617188 113.87628173828124 195.32986450195313 130.4033203125 181.2512664794922 143.86981201171875 167.78477478027344 154.2757568359375 157.37884521484375 154.2757568359375 157.37884521484375 " />
        <polyline stroke="black" stroke-width="3" stroke-linecap="round" fill="transparent" stroke-linejoin="round" points="161.009033203125 160.43942260742188 167.130126953125 171.45745849609375 173.25128173828125 186.14816284179688 181.82086181640625 217.365966796875 181.82086181640625 217.365966796875 " />
        </svg>