<?xml version="1.0" standalone="no"?>
    <svg width="256" height="256" xmlns="http://www.w3.org/2000/svg" version="1.1">
    <polyline stroke="black" stroke-width="3" stroke-linecap="round" fill="transparent" stroke-linejoin="round" points="53.448760986328125 113.54830932617188 50.615936279296875 131.9615020751953 49.553680419921875 143.29270935058594 49.1995849609375 149.66650390625 49.1995849609375 149.66650390625 " />
        <polyline stroke="black" stroke-width="3" stroke-linecap="round" fill="transparent" stroke-linejoin="round" points="94.17022705078124 87.69902038574219 114.7080078125 79.20063781738281 136.30813598632813 72.47273254394531 152.59674072265625 66.45301818847656 167.822998046875 62.55793762207031 180.57061767578125 60.0792236328125 189.7772216796875 59.37104797363281 196.50506591796875 60.0792236328125 200.046142578125 62.91204833984375 201.1083984375 68.93173217773438 197.2132568359375 88.4072265625 188.36083984375 110.36141967773438 183.04931640625 119.2139129638672 183.04931640625 119.2139129638672 " />
        <polyline stroke="black" stroke-width="3" stroke-linecap="round" fill="transparent" stroke-linejoin="round" points="92.04562377929688 140.4599151611328 82.83905029296875 160.64358520507813 75.75704956054688 180.1190948486328 72.57015991210938 192.86669921875 71.86196899414063 202.07327270507813 75.04885864257813 208.09295654296875 86.734130859375 208.8011779785156 107.27197265625 202.07327270507813 129.22613525390625 192.86669921875 149.763916015625 184.3682861328125 166.7607421875 179.76499938964844 181.27880859375 176.9321746826172 185.52801513671875 175.51577758789063 185.52801513671875 175.51577758789063 " />
        <polyline stroke="black" stroke-width="3" stroke-linecap="round" fill="transparent" stroke-linejoin="round" points="184.4656982421875 172.328857421875 195.08868408203125 197.469970703125 203.2330322265625 218.00775146484375 203.2330322265625 218.00775146484375 " />
        </svg>