<?xml version="1.0" standalone="no"?>
    <svg width="256" height="256" xmlns="http://www.w3.org/2000/svg" version="1.1">
    <polyline stroke="black" stroke-width="3" stroke-linecap="round" fill="transparent" stroke-linejoin="round" points="96 52 92 70 81 91 73 107 67 121 63 128 63 130 63 130 " />
        <polyline stroke="black" stroke-width="3" stroke-linecap="round" fill="transparent" stroke-linejoin="round" points="98 81 105 81 123 78 144 73 164 69 177 68 184 68 185 72 184 87 174 103 159 121 146 134 136 140 136 140 " />
        <polyline stroke="black" stroke-width="3" stroke-linecap="round" fill="transparent" stroke-linejoin="round" points="115 137 106 156 94 176 84 194 79 207 77 211 77 212 83 212 98 208 120 201 139 195 153 192 162 191 165 191 165 191 " />
        <polyline stroke="black" stroke-width="3" stroke-linecap="round" fill="transparent" stroke-linejoin="round" points="157 178 164 187 174 201 184 216 188 224 188 224 " />
        </svg>