<?xml version="1.0" standalone="no"?>
    <svg width="256" height="256" xmlns="http://www.w3.org/2000/svg" version="1.1">
    <polyline stroke="black" stroke-width="3" stroke-linecap="round" fill="transparent" stroke-linejoin="round" points="160.4224853515625 61.52980041503906 146.9154052734375 65.85205078125 130.70700073242188 70.17428588867188 116.65972900390624 74.49652099609375 90.18597412109376 83.68128967285156 84.242919921875 86.3826904296875 80.4609375 88.0035400390625 80.4609375 88.0035400390625 " />
        <polyline stroke="black" stroke-width="3" stroke-linecap="round" fill="transparent" stroke-linejoin="round" points="98.83050537109376 46.942230224609375 98.83050537109376 53.42559051513672 99.37078857421876 61.52980041503906 99.91107177734376 72.33540344238281 104.23324584960938 92.86605834960938 108.01522827148438 109.61474609375 109.63607788085938 117.17868041992188 113.41806030273438 129.06484985351563 115.57916259765624 135.54820251464844 122.602783203125 146.35382080078125 126.925048828125 150.13577270507813 132.32785034179688 153.37744140625 140.43206787109375 156.078857421875 144.75433349609375 156.61912536621094 152.8585205078125 156.61912536621094 160.4224853515625 155.53857421875 163.12384033203125 154.998291015625 167.986328125 153.917724609375 170.1474609375 153.37744140625 172.30859375 152.83718872070313 173.38916015625 152.83718872070313 174.4697265625 152.29690551757813 175.010009765625 152.29690551757813 176.090576171875 150.67605590820313 177.171142578125 149.5955047607422 183.65447998046875 132.3065185546875 191.2183837890625 111.23558044433594 195.0003662109375 101.5105438232422 195.0003662109375 101.5105438232422 " />
        <polyline stroke="black" stroke-width="3" stroke-linecap="round" fill="transparent" stroke-linejoin="round" points="106.93466186523438 192.27764892578125 96.66937255859376 203.62353515625 74.517822265625 227.9361572265625 64.25253295898438 238.74176025390625 49.66497802734375 253.86959838867188 45.883026123046875 258.19183349609375 43.72186279296875 263.5946350097656 43.72186279296875 263.5946350097656 " />
        <polyline stroke="black" stroke-width="3" stroke-linecap="round" fill="transparent" stroke-linejoin="round" points="186.89617919921875 202.002685546875 192.8392333984375 209.02633666992188 204.1851806640625 220.37222290039065 209.04766845703125 225.2347412109375 209.04766845703125 225.2347412109375 " />
        </svg>