<?xml version="1.0" standalone="no"?>
    <svg width="256" height="256" xmlns="http://www.w3.org/2000/svg" version="1.1">
    <polyline stroke="black" stroke-width="3" stroke-linecap="round" fill="transparent" stroke-linejoin="round" points="132 74 134 75 135 78 133 84 132 87 125 97 122 100 107 115 92 123 82 124 78 123 78 123 " />
        <polyline stroke="black" stroke-width="3" stroke-linecap="round" fill="transparent" stroke-linejoin="round" points="76 82 76 80 76 78 76 77 78 76 81 80 82 93 82 113 80 136 80 152 80 155 83 162 85 163 97 162 113 156 131 151 148 147 163 144 171 140 172 137 170 132 165 125 164 123 157 116 157 116 " />
        <polyline stroke="black" stroke-width="3" stroke-linecap="round" fill="transparent" stroke-linejoin="round" points="112 189 111 189 110 190 108 195 107 197 99 211 85 227 70 240 61 249 61 249 " />
        <polyline stroke="black" stroke-width="3" stroke-linecap="round" fill="transparent" stroke-linejoin="round" points="171 175 177 182 183 196 190 213 195 223 196 225 201 229 202 229 202 229 " />
        </svg>