<?xml version="1.0" standalone="no"?>
    <svg width="256" height="256" xmlns="http://www.w3.org/2000/svg" version="1.1">
    <polyline stroke="black" stroke-width="3" stroke-linecap="round" fill="transparent" stroke-linejoin="round" points="84.21826171875 90.93966674804688 83.66290283203125 101.49134826660156 78.66473388671875 123.7054443359375 75.33261108398438 138.1446075439453 73.66656494140625 147.58560180664063 73.66656494140625 153.13912963867188 79.2200927734375 154.2498321533203 91.43783569335938 148.14096069335938 108.65374755859376 135.92320251464844 126.98037719726563 120.3733367919922 143.64096069335938 100.38064575195313 143.64096069335938 100.38064575195313 " />
        <polyline stroke="black" stroke-width="3" stroke-linecap="round" fill="transparent" stroke-linejoin="round" points="141.4195556640625 69.83627319335938 136.97674560546875 87.05220031738281 130.86785888671875 120.92869567871094 129.2017822265625 150.36236572265625 130.86785888671875 182.57281494140625 132.53390502929688 200.89944458007813 133.08926391601563 216.4493103027344 129.75714111328125 227.00100708007813 129.75714111328125 227.00100708007813 " />
        <polyline stroke="black" stroke-width="3" stroke-linecap="round" fill="transparent" stroke-linejoin="round" points="43.677520751953125 199.23336791992188 56.45062255859375 197.011962890625 85.88430786132813 192.0137939453125 119.2054443359375 186.46026611328125 146.97308349609375 181.46209716796875 168.6318359375 179.24069213867188 182.515625 180.3513946533203 182.515625 180.3513946533203 " />
        </svg>