<?xml version="1.0" standalone="no"?>
    <svg width="256" height="256" xmlns="http://www.w3.org/2000/svg" version="1.1">
    <polyline stroke="black" stroke-width="3" stroke-linecap="round" fill="transparent" stroke-linejoin="round" points="86.16290283203125 64.31906127929688 84.62030029296875 84.88694763183594 81.02090454101563 111.11100769042967 78.964111328125 124.99432373046876 78.964111328125 134.2498779296875 81.53509521484375 138.87765502929688 87.70547485351563 138.87765502929688 100.5604248046875 134.2498779296875 118.55731201171876 126.53692626953124 131.4122314453125 119.85235595703124 142.21038818359375 115.22457885742188 150.43756103515625 110.5968017578125 160.207275390625 97.74188232421876 160.207275390625 97.74188232421876 " />
        <polyline stroke="black" stroke-width="3" stroke-linecap="round" fill="transparent" stroke-linejoin="round" points="150.43756103515625 37.06660461425781 147.86654663085938 54.54930114746094 145.80975341796875 107.51162719726563 147.86654663085938 144.53382873535156 151.9801025390625 178.47084045410156 154.5511474609375 200.067138671875 156.09368896484375 219.0924072265625 154.5511474609375 233.48992919921875 154.5511474609375 233.48992919921875 " />
        <polyline stroke="black" stroke-width="3" stroke-linecap="round" fill="transparent" stroke-linejoin="round" points="66.62338256835938 182.0702209472656 77.93572998046875 180.013427734375 99.53201293945313 174.8714599609375 123.18508911132813 171.27207946777344 145.80975341796875 168.7010955810547 167.40606689453125 168.7010955810547 185.4029541015625 170.24368286132813 198.25787353515625 172.81466674804688 205.4566650390625 178.9850311279297 205.4566650390625 178.9850311279297 " />
        </svg>