<?xml version="1.0" standalone="no"?>
    <svg width="256" height="256" xmlns="http://www.w3.org/2000/svg" version="1.1">
    <polyline stroke="black" stroke-width="3" stroke-linecap="round" fill="transparent" stroke-linejoin="round" points="93.18032836914063 35.13422393798828 96.6448974609375 57.65399169921875 97.22235107421876 87.68032836914063 96.6448974609375 110.77752685546876 94.91262817382813 137.33929443359375 93.18032836914063 154.6621856689453 92.02548217773438 168.5205078125 91.44805908203124 175.4496612548828 90.29318237304688 178.33680725097656 89.1383056640625 176.02708435058594 89.1383056640625 170.25279235839844 88.5609130859375 162.74620056152344 87.40603637695313 151.77503967285156 89.71575927734375 146.00074768066406 92.6029052734375 140.2264404296875 98.95465087890624 135.02957153320313 109.348388671875 128.1004180908203 124.36154174804688 121.1712646484375 135.91015625 115.97439575195313 150.34588623046875 111.35494995117188 159.58477783203125 107.890380859375 171.13336181640625 99.80636596679688 171.13336181640625 99.80636596679688 " />
        <polyline stroke="black" stroke-width="3" stroke-linecap="round" fill="transparent" stroke-linejoin="round" points="177.485107421875 36.289085388183594 176.90765380859375 46.682823181152344 175.17535400390625 57.65399169921875 172.2882080078125 74.39944458007813 167.66876220703125 100.3837890625 163.04931640625 123.48098754882813 157.85247802734375 142.53616333007813 151.500732421875 159.8590545654297 151.500732421875 159.8590545654297 " />
        <polyline stroke="black" stroke-width="3" stroke-linecap="round" fill="transparent" stroke-linejoin="round" points="88.5609130859375 195.082275390625 103.57406616210938 189.3079833984375 117.432373046875 185.8433837890625 131.86813354492188 182.3788146972656 147.458740234375 180.069091796875 160.16217041015625 180.069091796875 160.16217041015625 180.069091796875 " />
        </svg>