<?xml version="1.0" standalone="no"?>
    <svg width="256" height="256" xmlns="http://www.w3.org/2000/svg" version="1.1">
    <polyline stroke="black" stroke-width="3" stroke-linecap="round" fill="transparent" stroke-linejoin="round" points="90.38925170898438 70.41122436523438 87.85372924804688 87.73722839355469 86.5859375 97.8792724609375 84.89559936523438 109.2890625 81.09237670898438 142.25071716308594 79.40203857421875 158.3089599609375 77.711669921875 168.02842712402344 76.86651611328125 171.4091033935547 75.17620849609375 175.63494873046875 74.75360107421875 175.63494873046875 74.75360107421875 175.63494873046875 " />
        <polyline stroke="black" stroke-width="3" stroke-linecap="round" fill="transparent" stroke-linejoin="round" points="76.02133178710938 154.08311462402344 96.305419921875 139.7152099609375 111.94110107421876 130.4183349609375 128.421875 122.38922119140624 146.17050170898438 113.9375 164.7642822265625 102.5277099609375 173.6385498046875 96.18893432617188 173.6385498046875 96.18893432617188 " />
        <polyline stroke="black" stroke-width="3" stroke-linecap="round" fill="transparent" stroke-linejoin="round" points="162.22869873046875 78.01776123046875 158.42547607421875 96.18893432617188 154.6221923828125 114.36009216308594 152.086669921875 126.19248962402344 144.9027099609375 148.58950805664063 136.45101928710938 166.33807373046875 127.99932861328124 178.17047119140625 119.547607421875 187.04476928710935 110.67333984375 193.80612182617188 102.64422607421876 197.18682861328125 96.72802734375 198.45455932617188 92.07955932617188 198.031982421875 90.38925170898438 197.18682861328125 89.96664428710938 196.34164428710935 95.46026611328124 193.80612182617188 108.1378173828125 188.735107421875 124.196044921875 184.086669921875 142.3671875 180.28338623046875 154.1995849609375 178.5930633544922 154.1995849609375 178.5930633544922 " />
        </svg>