<?xml version="1.0" standalone="no"?>
    <svg width="256" height="256" xmlns="http://www.w3.org/2000/svg" version="1.1">
    <polyline stroke="black" stroke-width="3" stroke-linecap="round" fill="transparent" stroke-linejoin="round" points="64.54721069335938 46.806549072265625 68.36654663085938 67.93707275390625 72.18588256835938 89.06759643554688 75.04000854492188 110.23760986328124 76.03158569335938 129.29742431640625 73.12936401367188 165.536865234375 72.104736328125 168.63381958007813 70.7177734375 172.48947143554688 70.16534423828125 173.2382049560547 70.12408447265625 173.294189453125 70.108642578125 173.31509399414063 70.1065673828125 173.31787109375 70.10491943359375 173.3201904296875 70.94976806640625 173.41928100585938 77.8172607421875 173.55960083007813 96.09579467773438 172.41893005371094 106.47601318359376 171.5299530029297 124.12103271484376 170.07925415039063 139.34564208984375 168.870361328125 142.26971435546875 168.9231414794922 143.6094970703125 169.1423797607422 143.6416015625 169.14764404296875 143.65206909179688 169.14935302734375 " />
        <polyline stroke="black" stroke-width="3" stroke-linecap="round" fill="transparent" stroke-linejoin="round" points="150.20712280273438 42.34844970703125 150.17025756835938 59.850433349609375 150.13339233398438 77.3524169921875 150.09457397460938 93.88029479980467 150.05294799804688 111.70846557617188 150.60226440429688 139.3469696044922 151.5240478515625 154.58926391601563 150.3154296875 161.9840087890625 149.96176147460938 160.0579833984375 " />
        <polyline stroke="black" stroke-width="3" stroke-linecap="round" fill="transparent" stroke-linejoin="round" points="103.08453369140624 100.29171752929685 112.33740234375 101.33721923828124 121.59027099609376 102.38272094726563 123.81658935546876 102.81338500976563 " />
        </svg>