<?xml version="1.0" standalone="no"?>
    <svg width="256" height="256" xmlns="http://www.w3.org/2000/svg" version="1.1">
    <polyline stroke="black" stroke-width="3" stroke-linecap="round" fill="transparent" stroke-linejoin="round" points="92.83505249023438 52.04612731933594 91.45162963867188 63.113433837890625 89.60711669921875 74.18075561523438 84.99569702148438 100.4656219482422 82.22885131835938 118.9111328125 78.07861328125 150.7296600341797 76.23406982421875 180.70364379882813 75.311767578125 189.9263916015625 74.3895263671875 193.61550903320313 73.92840576171875 193.61550903320313 73.92840576171875 192.6932373046875 74.3895263671875 188.08184814453125 79.92318725585938 175.16998291015625 87.76254272460938 164.56381225585938 92.83505249023438 159.49130249023438 114.04736328125 143.81259155273438 128.3426513671875 135.9732666015625 142.17681884765625 127.67277526855467 149.55502319335938 121.67796325683594 149.55502319335938 121.67796325683594 " />
        <polyline stroke="black" stroke-width="3" stroke-linecap="round" fill="transparent" stroke-linejoin="round" points="161.08349609375 58.96319580078125 155.5498046875 76.94758605957031 151.8607177734375 91.24285888671876 147.24932861328125 107.84384155273438 141.71566772460938 124.44479370117188 135.72088623046875 143.35147094726563 123.73129272460938 173.78656005859375 117.73651123046876 184.8538818359375 107.13031005859376 199.149169921875 99.29098510742188 204.68280029296875 92.3739013671875 206.06622314453125 89.60711669921875 204.68280029296875 89.14593505859375 201.454833984375 94.21844482421876 196.84347534179688 109.43600463867188 191.309814453125 130.18719482421875 189.46527099609375 143.09906005859375 191.309814453125 143.09906005859375 191.309814453125 " />
        </svg>