<?xml version="1.0" standalone="no"?>
    <svg width="256" height="256" xmlns="http://www.w3.org/2000/svg" version="1.1">
    <polyline stroke="black" stroke-width="3" stroke-linecap="round" fill="transparent" stroke-linejoin="round" points="76.97332763671875 38.12510681152344 75.347900390625 47.471527099609375 73.72247314453125 56.81794738769531 72.50335693359375 67.78982543945313 71.69064331054688 92.578125 72.09701538085938 105.98820495605467 73.31610107421875 119.80465698242188 75.7542724609375 140.1229248046875 78.19247436523438 158.40939331054688 77.7861328125 162.87942504882813 77.3797607421875 163.2857666015625 77.3797607421875 163.2857666015625 " />
        <polyline stroke="black" stroke-width="3" stroke-linecap="round" fill="transparent" stroke-linejoin="round" points="79.00524902343751 141.34201049804688 88.35165405273438 138.49746704101563 97.69805908203124 135.65292358398438 117.20361328125 129.55743408203125 144.02377319335938 117.77281188964844 151.7447509765625 111.67733764648438 151.7447509765625 111.67733764648438 " />
        <polyline stroke="black" stroke-width="3" stroke-linecap="round" fill="transparent" stroke-linejoin="round" points="150.52557373046875 42.59515380859375 149.71286010742188 53.16065979003906 148.900146484375 63.726165771484375 148.08740234375 75.91714477539063 146.8682861328125 88.92083740234375 144.02377319335938 112.49008178710938 138.33465576171875 130.7765350341797 129.39459228515625 143.37384033203125 115.1717529296875 154.34573364257813 100.5426025390625 161.2539520263672 92.8216552734375 164.0985107421875 90.789794921875 164.50486755371094 93.22802734375 163.692138671875 99.7298583984375 162.06668090820313 116.7972412109375 156.78392028808594 135.89642333984375 150.28207397460938 135.89642333984375 150.28207397460938 " />
        </svg>