<?xml version="1.0" standalone="no"?>
    <svg width="256" height="256" xmlns="http://www.w3.org/2000/svg" version="1.1">
    <polyline stroke="black" stroke-width="3" stroke-linecap="round" fill="transparent" stroke-linejoin="round" points="39 104.44444274902344 54.111114501953125 92.88888549804688 59.444488525390625 88.44444274902344 63.888916015625 84.888916015625 77.22225952148438 77.77778625488281 82.55557250976563 76.88888549804688 86.11114501953125 77.77778625488281 86.11114501953125 82.22224426269531 77.22225952148438 92.00001525878906 71 98.22224426269533 66.55557250976563 100.88890075683594 64.77777099609375 100.88890075683594 64.77777099609375 100 71.88888549804688 96.4444580078125 77.22225952148438 94.66667175292967 81.66668701171875 95.55555725097656 82.55557250976563 99.11111450195313 82.55557250976563 99.11111450195313 " />
        <polyline stroke="black" stroke-width="3" stroke-linecap="round" fill="transparent" stroke-linejoin="round" points="56.77777099609375 142.6667022705078 39 172 41.66668701171875 167.55555725097656 45.22222900390625 162.22222900390625 54.111114501953125 150.6666717529297 63 142.6667022705078 78.11111450195313 134.6666717529297 87 132.00001525878906 92.33334350585938 132.00001525878906 93.22222900390624 132.00001525878906 88.77777099609375 138.2222442626953 81.66668701171875 145.33334350585938 73.66665649414063 152.44444274902344 69.22222900390625 156.00003051757813 68.3333740234375 156.00003051757813 71.88888549804688 153.3333282470703 77.22225952148438 148.88888549804688 84.33334350585938 142.6667022705078 87.88888549804688 136.4444580078125 87.88888549804688 136.4444580078125 " />
        <polyline stroke="black" stroke-width="3" stroke-linecap="round" fill="transparent" stroke-linejoin="round" points="70.11111450195313 36.888893127441406 71.88888549804688 92.88888549804688 75.4444580078125 148 79.88888549804688 197.77777099609375 84.33334350585938 236.88888549804688 88.77777099609375 260.8888854980469 88.77777099609375 262.66668701171875 88.77777099609375 261.77777099609375 88.77777099609375 261.77777099609375 " />
        <polyline stroke="black" stroke-width="3" stroke-linecap="round" fill="transparent" stroke-linejoin="round" points="130.55557250976563 57.33332824707031 147.4444580078125 49.33333587646485 156.33334350585938 45.77777862548828 176.77777099609375 38.66666412353515 180.33334350585935 36.888893127441406 183 35.111114501953125 183 35.111114501953125 " />
        <polyline stroke="black" stroke-width="3" stroke-linecap="round" fill="transparent" stroke-linejoin="round" points="160.77777099609375 30.666664123535156 156.33334350585938 50.22222137451172 153.66665649414063 60.888885498046875 146.55557250976563 83.11111450195313 139.44448852539063 101.7777862548828 134.11111450195313 112.44444274902344 131.4444580078125 117.7777862548828 130.55557250976563 116.88888549804688 130.55557250976563 109.7777862548828 130.55557250976563 109.7777862548828 " />
        <polyline stroke="black" stroke-width="3" stroke-linecap="round" fill="transparent" stroke-linejoin="round" points="148.3333740234375 83.11111450195313 165.22222900390625 92.00001525878906 169.66665649414063 94.66667175292967 170.55557250976563 100 167.88888549804688 104.44444274902344 167.88888549804688 104.44444274902344 " />
        <polyline stroke="black" stroke-width="3" stroke-linecap="round" fill="transparent" stroke-linejoin="round" points="103 156.88888549804688 130.55557250976563 139.11111450195313 142.11111450195313 133.77780151367188 162.55557250976563 127.55557250976563 177.66665649414063 122.22222900390624 183.88888549804688 119.55555725097656 183.88888549804688 116.88888549804688 183.88888549804688 116.88888549804688 " />
        <polyline stroke="black" stroke-width="3" stroke-linecap="round" fill="transparent" stroke-linejoin="round" points="140.33334350585938 87.55557250976563 138.55557250976563 129.33335876464844 136.77777099609375 155.11111450195313 127.88888549804688 188 119.88888549804688 204.888916015625 111.88888549804688 214.66665649414065 106.55557250976563 216.4444580078125 106.55557250976563 216.4444580078125 " />
        <polyline stroke="black" stroke-width="3" stroke-linecap="round" fill="transparent" stroke-linejoin="round" points="139.44448852539063 161.3333282470703 158.11111450195313 188 175.88888549804688 204 194.5555725097656 217.33334350585935 213.22222900390625 228 224.77777099609375 231.5555725097656 224.77777099609375 231.5555725097656 " />
        </svg>