<?xml version="1.0" standalone="no"?>
    <svg width="256" height="256" xmlns="http://www.w3.org/2000/svg" version="1.1">
    <polyline stroke="black" stroke-width="3" stroke-linecap="round" fill="transparent" stroke-linejoin="round" points="69.58676147460938 79.48844909667969 66.6884765625 93.15167236328124 65.44638061523438 98.53416442871094 64.20428466796875 103.50260925292967 62.548095703125 107.64299011230467 60.06390380859375 112.61143493652344 59.23583984375 113.85354614257813 58.40777587890625 114.26756286621094 57.579681396484375 113.4394989013672 57.579681396484375 109.71316528320313 60.8919677734375 100.60433959960938 66.6884765625 91.08148193359376 73.72714233398438 82.80075073242188 83.66400146484375 74.93405151367188 93.18685913085938 69.55155944824219 101.46762084960938 66.2392578125 107.67816162109376 64.99714660644531 110.990478515625 64.99714660644531 112.23260498046876 65.82522583007813 112.23260498046876 69.13752746582031 107.26412963867188 78.246337890625 96.9132080078125 89.42533874511719 82.421875 100.1903076171875 68.34466552734375 108.88510131835938 57.99371337890625 114.26756286621094 53.853363037109375 115.9237060546875 52.61126708984375 115.50968933105467 53.853363037109375 114.26756286621094 62.13409423828125 110.54124450683594 75.79733276367188 105.98681640625 87.39035034179688 102.260498046875 95.25704956054688 100.1903076171875 99.81146240234376 99.77627563476563 101.46762084960938 100.1903076171875 101.46762084960938 100.1903076171875 " />
        <polyline stroke="black" stroke-width="3" stroke-linecap="round" fill="transparent" stroke-linejoin="round" points="68.34466552734375 137.03961181640625 58.82177734375 151.53091430664063 56.7515869140625 156.0853271484375 54.681396484375 160.63973999023438 50.955078125 167.67837524414063 50.12701416015625 167.67837524414063 50.541015625 166.022216796875 56.33758544921875 158.56954956054688 61.305999755859375 153.60110473632813 74.55523681640625 142.42210388183594 86.976318359375 134.55538940429688 98.5693359375 130.41502380371094 101.46762084960938 131.65713500976563 102.295654296875 135.79751586914063 93.18685913085938 158.98358154296875 81.59384155273438 169.74853515625 68.7586669921875 178.029296875 58.40777587890625 182.1696624755859 53.0252685546875 182.99774169921875 52.19720458984375 182.58370971679688 54.26739501953125 176.78717041015625 62.962158203125 168.09239196777344 77.0394287109375 158.56954956054688 90.28857421875 149.4607391357422 99.3974609375 143.2501678466797 99.3974609375 143.2501678466797 " />
        <polyline stroke="black" stroke-width="3" stroke-linecap="round" fill="transparent" stroke-linejoin="round" points="84.49212646484375 43.881256103515625 83.66400146484375 57.13044738769531 83.25 67.06733703613281 82.8359375 79.48844909667969 82.421875 103.91665649414063 82.421875 115.50968933105467 82.00790405273438 138.69578552246094 82.00790405273438 161.05377197265625 82.00790405273438 184.6539001464844 82.00790405273438 205.769775390625 81.17977905273438 219.01898193359375 80.35174560546875 225.22955322265625 80.35174560546875 225.22955322265625 " />
        <polyline stroke="black" stroke-width="3" stroke-linecap="round" fill="transparent" stroke-linejoin="round" points="114.716796875 106.81491088867188 123.41159057617188 101.01840209960938 138.31689453125 93.97976684570313 153.2222900390625 87.76919555664063 167.71356201171875 82.38671875 178.892578125 78.246337890625 187.58734130859375 74.93405151367188 191.31365966796875 73.69192504882813 191.31365966796875 73.69192504882813 " />
        <polyline stroke="black" stroke-width="3" stroke-linecap="round" fill="transparent" stroke-linejoin="round" points="163.1591796875 45.951438903808594 151.98016357421875 63.755035400390625 147.01171875 72.86386108398438 131.69232177734375 110.12722778320313 125.89581298828124 123.79043579101563 119.68524169921876 137.03961181640625 116.7869873046875 142.83612060546875 116.7869873046875 142.83612060546875 " />
        <polyline stroke="black" stroke-width="3" stroke-linecap="round" fill="transparent" stroke-linejoin="round" points="157.77667236328125 98.53416442871094 178.892578125 95.2218780517578 185.93121337890625 94.80783081054688 192.5557861328125 94.80783081054688 198.352294921875 95.2218780517578 207.87518310546875 95.63589477539063 217.3980712890625 98.53416442871094 217.3980712890625 98.53416442871094 " />
        <polyline stroke="black" stroke-width="3" stroke-linecap="round" fill="transparent" stroke-linejoin="round" points="114.716796875 173.47488403320313 132.93441772460938 169.74853515625 142.871337890625 168.09239196777344 152.8082275390625 166.022216796875 162.3310546875 163.53799438476563 177.65045166015625 159.8116455078125 183.86102294921875 158.15550231933594 193.3839111328125 155.67129516601563 199.180419921875 152.77304077148438 199.180419921875 152.77304077148438 " />
        <polyline stroke="black" stroke-width="3" stroke-linecap="round" fill="transparent" stroke-linejoin="round" points="144.94149780273438 154.84320068359375 137.48886108398438 166.85028076171875 124.6536865234375 194.59078979492188 121.34140014648438 202.45748901367188 115.54489135742188 216.94879150390625 110.990478515625 226.88568115234375 110.990478515625 226.88568115234375 " />
        <polyline stroke="black" stroke-width="3" stroke-linecap="round" fill="transparent" stroke-linejoin="round" points="151.98016357421875 190.036376953125 168.12762451171875 196.66094970703125 181.3768310546875 203.28558349609375 193.3839111328125 211.15228271484375 209.5313720703125 226.47164916992188 209.5313720703125 226.47164916992188 " />
        </svg>