<?xml version="1.0" standalone="no"?>
    <svg width="256" height="256" xmlns="http://www.w3.org/2000/svg" version="1.1">
    <polyline stroke="black" stroke-width="3" stroke-linecap="round" fill="transparent" stroke-linejoin="round" points="68.525634765625 78.18728637695313 61.46026611328125 92.4658203125 53.4654541015625 108.52410888671876 46.3948974609375 122.23429870605467 32.823089599609375 146.725830078125 23.53350830078125 163.59197998046875 19.73773193359375 169.91769409179688 15.743743896484377 178.2659912109375 15.15179443359375 178.39254760742188 15.102752685546877 178.40304565429688 " />
        <polyline stroke="black" stroke-width="3" stroke-linecap="round" fill="transparent" stroke-linejoin="round" points="87.2041015625 60.93060302734375 94.393310546875 68.39947509765625 102.29342651367188 77.67672729492188 114.04183959960938 94.55740356445313 118.15695190429688 100.23809814453124 123.63153076171876 104.89236450195313 125.86932373046876 106.20529174804688 126.89218139648438 106.34487915039063 126.92196655273438 106.34896850585938 126.93499755859376 106.35073852539063 126.9420166015625 106.3516845703125 " />
        <polyline stroke="black" stroke-width="3" stroke-linecap="round" fill="transparent" stroke-linejoin="round" points="93.5216064453125 114.36151123046876 95.12240600585938 127.79965209960938 98.28915405273438 171.2036590576172 98.06982421875 183.37811279296875 96.9422607421875 201.14886474609375 95.7977294921875 209.36605834960935 92.2484130859375 219.5423889160156 90.749755859375 221.49972534179688 87.9326171875 223.0194396972656 86.8116455078125 223.6500244140625 85.52532958984375 223.9423828125 84.33026123046875 223.6695556640625 83.398681640625 223.61041259765625 80.01934814453125 222.68328857421875 77.11822509765625 220.62017822265625 67.15438842773438 208.76809692382813 63.339202880859375 202.38253784179688 63.048797607421875 201.896484375 " />
        <polyline stroke="black" stroke-width="3" stroke-linecap="round" fill="transparent" stroke-linejoin="round" points="63.311492919921875 176.35733032226563 67.56195068359375 178.976806640625 73.4404296875 182.45672607421875 74.51123046875 182.6968994140625 76.154541015625 182.10760498046875 76.38497924804688 182.0249481201172 " />
        <polyline stroke="black" stroke-width="3" stroke-linecap="round" fill="transparent" stroke-linejoin="round" points="115.58233642578124 139.5082244873047 113.10565185546876 145.6876678466797 109.81756591796876 151.8032684326172 101.88070678710938 163.56121826171875 98.87899780273438 167.86016845703125 98.67245483398438 168.1461181640625 " />
        <polyline stroke="black" stroke-width="3" stroke-linecap="round" fill="transparent" stroke-linejoin="round" points="150.22323608398438 57.577880859375 157.156005859375 54.9874267578125 169.16473388671875 50.701324462890625 172.2664794921875 49.073150634765625 176.47369384765625 45.848533630371094 197.111083984375 40.97816467285156 199.82977294921875 40.396575927734375 200.1092529296875 40.336814880371094 200.120361328125 40.334434509277344 198.4669189453125 40.06889343261719 196.87957763671875 39.96977233886719 " />
        <polyline stroke="black" stroke-width="3" stroke-linecap="round" fill="transparent" stroke-linejoin="round" points="162.65228271484375 60.220733642578125 160.74554443359375 70.64346313476563 158.231689453125 81.06941223144531 151.3770751953125 99.47355651855467 147.46746826171875 107.20297241210938 143.35638427734375 113.8968505859375 136.5419921875 123.24919128417967 132.08428955078125 128.31260681152344 132.40158081054688 126.84690856933594 " />
        <polyline stroke="black" stroke-width="3" stroke-linecap="round" fill="transparent" stroke-linejoin="round" points="184.75408935546875 93.01455688476563 205.835205078125 100.53556823730467 213.314208984375 106.66305541992188 213.0035400390625 107.96661376953124 227.73602294921875 113.84085083007813 229.54052734375 114.0088348388672 " />
        <polyline stroke="black" stroke-width="3" stroke-linecap="round" fill="transparent" stroke-linejoin="round" points="149.05828857421875 174.007568359375 151.11248779296875 183.6441345214844 152.1380615234375 186.7318115234375 153.249755859375 189.519287109375 153.87799072265625 189.960693359375 154.1141357421875 190.12661743164065 " />
        <polyline stroke="black" stroke-width="3" stroke-linecap="round" fill="transparent" stroke-linejoin="round" points="187.08245849609375 128.0032196044922 194.95977783203125 127.79173278808594 203.0821533203125 127.946044921875 204.16851806640625 128.89175415039063 204.44775390625 129.64862060546875 205.11541748046875 132.65753173828125 205.61328125 136.9439697265625 205.6883544921875 152.92428588867188 204.3494873046875 159.9623260498047 193.61700439453125 174.29356384277344 186.49139404296875 182.95770263671875 181.39703369140625 190.65081787109375 181.0147705078125 191.12091064453125 " />
        <polyline stroke="black" stroke-width="3" stroke-linecap="round" fill="transparent" stroke-linejoin="round" points="147.26205444335938 196.06744384765625 162.880859375 196.81097412109375 169.17340087890625 196.71017456054688 193.13519287109375 195.83837890625 202.86273193359375 195.78640747070313 213.23345947265625 195.81704711914065 214.9681396484375 195.84759521484375 215.1541748046875 195.85089111328125 228.9498291015625 199.2772521972656 231.23052978515625 200.23171997070313 " />
        </svg>