<?xml version="1.0" standalone="no"?>
    <svg width="256" height="256" xmlns="http://www.w3.org/2000/svg" version="1.1">
    <polyline stroke="black" stroke-width="3" stroke-linecap="round" fill="transparent" stroke-linejoin="round" points="61.531494140625 92.17176818847656 52.997802734375 107.61367797851563 46.495941162109375 118.17918395996094 39.181365966796875 130.37014770507813 36.7431640625 133.62107849121094 33.89862060546875 136.46563720703125 33.89862060546875 136.46563720703125 " />
        <polyline stroke="black" stroke-width="3" stroke-linecap="round" fill="transparent" stroke-linejoin="round" points="102.57443237304688 58.03704833984375 110.29537963867188 58.84977722167969 118.01632690429688 60.068878173828125 125.7373046875 61.6943359375 139.5537109375 64.94526672363281 144.83648681640625 66.57072448730469 148.49374389648438 68.19619750976563 148.49374389648438 68.19619750976563 " />
        <polyline stroke="black" stroke-width="3" stroke-linecap="round" fill="transparent" stroke-linejoin="round" points="107.857177734375 119.80465698242188 106.63812255859376 143.37384033203125 106.63812255859376 154.75210571289063 105.82537841796876 182.38497924804688 103.79354858398438 191.32501220703125 99.323486328125 195.7950439453125 93.22802734375 198.63958740234375 93.22802734375 198.63958740234375 " />
        <polyline stroke="black" stroke-width="3" stroke-linecap="round" fill="transparent" stroke-linejoin="round" points="61.531494140625 156.78392028808594 66.00152587890625 158.40939331054688 66.00152587890625 158.40939331054688 " />
        <polyline stroke="black" stroke-width="3" stroke-linecap="round" fill="transparent" stroke-linejoin="round" points="122.89276123046876 139.716552734375 114.76544189453124 150.28207397460938 107.857177734375 159.22210693359375 101.76171875 166.13034057617188 94.44711303710938 174.25765991210938 94.44711303710938 174.25765991210938 " />
        <polyline stroke="black" stroke-width="3" stroke-linecap="round" fill="transparent" stroke-linejoin="round" points="155.808349609375 75.91714477539063 162.716552734375 74.69804382324219 170.03118896484375 73.47894287109375 185.47308349609375 71.04074096679688 193.19403076171875 69.415283203125 208.63592529296875 64.13253784179688 215.54412841796875 60.068878173828125 215.54412841796875 60.068878173828125 " />
        <polyline stroke="black" stroke-width="3" stroke-linecap="round" fill="transparent" stroke-linejoin="round" points="185.066650390625 60.475250244140625 181.0030517578125 69.8216552734375 176.53302001953125 80.79351806640625 172.06298828125 92.17176818847656 161.49749755859375 117.77281188964844 150.52560424804688 140.93565368652344 144.02377319335938 151.90753173828125 144.02377319335938 151.90753173828125 " />
        <polyline stroke="black" stroke-width="3" stroke-linecap="round" fill="transparent" stroke-linejoin="round" points="200.10223388671875 110.86459350585938 205.7913818359375 112.89642333984376 211.48046875 115.74099731445313 216.76318359375 118.58555603027344 224.89056396484375 123.8682861328125 227.3287353515625 125.49375915527344 227.3287353515625 125.49375915527344 " />
        <polyline stroke="black" stroke-width="3" stroke-linecap="round" fill="transparent" stroke-linejoin="round" points="135.89642333984375 180.7595062255859 135.89642333984375 188.0740966796875 135.89642333984375 194.9822998046875 135.89642333984375 200.26507568359375 135.89642333984375 207.57965087890625 135.89642333984375 209.61148071289065 135.89642333984375 209.20510864257813 137.11553955078125 205.54782104492188 140.77279663085938 197.82687377929688 148.49374389648438 185.63589477539065 159.4656982421875 173.44491577148438 174.50115966796875 162.06668090820313 191.16217041015625 153.5330047607422 205.385009765625 149.06297302246094 216.76318359375 147.4375 223.67144775390625 147.8438720703125 225.7032470703125 148.250244140625 228.1414794921875 150.28207397460938 227.735107421875 157.59666442871094 209.85498046875 182.79132080078125 196.851318359375 194.575927734375 196.851318359375 194.575927734375 " />
        <polyline stroke="black" stroke-width="3" stroke-linecap="round" fill="transparent" stroke-linejoin="round" points="128.58184814453125 215.70697021484375 141.17919921875 213.67514038085935 154.5892333984375 211.2369384765625 177.75213623046875 206.36053466796875 200.10223388671875 201.8905334472656 220.826904296875 198.63958740234375 238.30059814453125 198.23321533203125 250.085205078125 201.07778930664065 250.085205078125 201.07778930664065 " />
        </svg>