<?xml version="1.0" standalone="no"?>
    <svg width="256" height="256" xmlns="http://www.w3.org/2000/svg" version="1.1">
    <polyline stroke="black" stroke-width="3" stroke-linecap="round" fill="transparent" stroke-linejoin="round" points="69 47 68 53 64 61 54 80 49 91 36 115 24 133 15 144 10 146 10 146 " />
        <polyline stroke="black" stroke-width="3" stroke-linecap="round" fill="transparent" stroke-linejoin="round" points="76 58 83 68 90 80 98 93 108 107 117 121 119 127 119 127 " />
        <polyline stroke="black" stroke-width="3" stroke-linecap="round" fill="transparent" stroke-linejoin="round" points="65 124 65 148 65 173 65 194 65 208 64 216 64 218 63 218 62 218 60 218 60 218 " />
        <polyline stroke="black" stroke-width="3" stroke-linecap="round" fill="transparent" stroke-linejoin="round" points="33 165 42 165 46 165 46 165 " />
        <polyline stroke="black" stroke-width="3" stroke-linecap="round" fill="transparent" stroke-linejoin="round" points="88 161 77 173 69 178 69 178 " />
        <polyline stroke="black" stroke-width="3" stroke-linecap="round" fill="transparent" stroke-linejoin="round" points="144 78 151 78 165 75 187 68 192 65 192 65 " />
        <polyline stroke="black" stroke-width="3" stroke-linecap="round" fill="transparent" stroke-linejoin="round" points="169 55 161 69 149 91 133 113 120 131 107 143 103 146 103 146 " />
        <polyline stroke="black" stroke-width="3" stroke-linecap="round" fill="transparent" stroke-linejoin="round" points="168 107 180 115 185 118 192 122 199 125 203 129 206 132 206 132 " />
        <polyline stroke="black" stroke-width="3" stroke-linecap="round" fill="transparent" stroke-linejoin="round" points="136 160 137 176 138 181 139 190 139 195 139 195 " />
        <polyline stroke="black" stroke-width="3" stroke-linecap="round" fill="transparent" stroke-linejoin="round" points="133 141 146 137 162 137 177 137 186 138 191 140 194 142 194 147 194 158 192 173 187 186 184 192 184 192 " />
        <polyline stroke="black" stroke-width="3" stroke-linecap="round" fill="transparent" stroke-linejoin="round" points="110 199 127 199 134 199 154 197 166 196 190 192 215 189 215 189 " />
        </svg>