<?xml version="1.0" standalone="no"?>
    <svg width="256" height="256" xmlns="http://www.w3.org/2000/svg" version="1.1">
    <polyline stroke="black" stroke-width="3" stroke-linecap="round" fill="transparent" stroke-linejoin="round" points="93 69 93 69 97 67 104 65 112 64 120 62 128 60 136 58 147 54 153 52 158 50 162 48 165 47 166 46 166 46 " />
        <polyline stroke="black" stroke-width="3" stroke-linecap="round" fill="transparent" stroke-linejoin="round" points="124 56 119 64 115 75 110 88 105 101 101 116 96 131 91 150 88 162 85 172 83 180 81 187 79 192 78 195 77 196 77 196 " />
        <polyline stroke="black" stroke-width="3" stroke-linecap="round" fill="transparent" stroke-linejoin="round" points="104 127 111 125 118 123 128 121 133 120 138 119 143 118 148 116 152 115 156 113 157 113 159 113 " />
        <polyline stroke="black" stroke-width="3" stroke-linecap="round" fill="transparent" stroke-linejoin="round" points="105 149 107 150 109 150 113 150 118 149 127 147 134 145 142 144 149 142 155 141 161 141 166 142 170 144 174 149 176 163 177 175 176 187 174 199 171 209 168 217 163 225 158 231 153 235 145 237 140 236 138 234 136 232 134 229 " />
        <polyline stroke="black" stroke-width="3" stroke-linecap="round" fill="transparent" stroke-linejoin="round" points="120 153 118 155 117 159 114 165 112 171 109 177 107 183 105 188 104 193 103 197 103 198 104 200 105 201 108 200 110 198 112 197 " />
        <polyline stroke="black" stroke-width="3" stroke-linecap="round" fill="transparent" stroke-linejoin="round" points="146 151 147 152 148 157 147 163 146 171 144 180 142 188 139 197 137 205 133 216 131 223 130 226 " />
        </svg>