<?xml version="1.0" standalone="no"?>
    <svg width="256" height="256" xmlns="http://www.w3.org/2000/svg" version="1.1">
    <polyline stroke="black" stroke-width="3" stroke-linecap="round" fill="transparent" stroke-linejoin="round" points="82.95062255859375 61.108612060546875 86.30795288085938 70.76094055175781 86.72760009765625 72.85928344726563 87.14727783203125 74.95761108398438 87.14727783203125 77.05593872070313 86.30795288085938 82.9312744140625 85.46859741210938 85.02960205078125 84.62924194335938 85.44927978515625 83.78997802734375 85.02960205078125 83.37030029296875 83.77059936523438 83.37030029296875 81.67227172851563 84.62924194335938 79.15426635742188 87.14727783203125 76.21661376953125 92.60296630859376 71.60028076171875 103.51425170898438 64.4659423828125 116.52392578125 57.33161926269531 131.63192749023438 50.197288513183594 145.06124877929688 44.74162292480469 155.97259521484375 41.38429260253906 162.687255859375 40.12528991699219 166.0445556640625 40.964622497558594 167.3035888671875 44.74162292480469 166.0445556640625 54.393951416015625 163.52655029296875 61.108612060546875 150.51690673828125 79.99360656738281 141.28427124023438 87.96726989746094 137.08758544921875 90.90495300292967 137.08758544921875 90.90495300292967 " />
        <polyline stroke="black" stroke-width="3" stroke-linecap="round" fill="transparent" stroke-linejoin="round" points="133.730224609375 26.27629852294922 131.63192749023438 39.28594970703125 130.37289428710938 48.51861572265625 129.11395263671875 58.17095947265625 126.59591674804688 77.89527893066406 121.14022827148438 114.40625 121.14022827148438 114.40625 " />
        <polyline stroke="black" stroke-width="3" stroke-linecap="round" fill="transparent" stroke-linejoin="round" points="70.7802734375 139.58624267578125 84.2095947265625 136.64859008789063 91.76361083984376 134.96994018554688 108.13058471679688 131.6125946044922 131.21224975585938 126.57658386230467 142.543212890625 123.21926879882813 151.356201171875 120.70126342773438 158.0709228515625 119.0225830078125 158.0709228515625 119.0225830078125 " />
        <polyline stroke="black" stroke-width="3" stroke-linecap="round" fill="transparent" stroke-linejoin="round" points="124.49755859375 98.45895385742188 116.104248046875 111.46859741210938 106.0322265625 128.2552490234375 99.73724365234376 138.32725524902344 93.0225830078125 149.6582489013672 82.95062255859375 166.86456298828125 75.81625366210938 176.9365692138672 71.199951171875 182.39224243164065 71.199951171875 182.39224243164065 " />
        <polyline stroke="black" stroke-width="3" stroke-linecap="round" fill="transparent" stroke-linejoin="round" points="95.96026611328124 140.4255828857422 111.0682373046875 136.64859008789063 118.62225341796876 135.38958740234375 127.01556396484376 134.55026245117188 142.543212890625 134.13058471679688 156.8118896484375 134.55026245117188 167.7232666015625 135.8092498779297 174.8575439453125 137.4879150390625 179.473876953125 139.58624267578125 180.73291015625 140.4255828857422 180.73291015625 140.4255828857422 " />
        <polyline stroke="black" stroke-width="3" stroke-linecap="round" fill="transparent" stroke-linejoin="round" points="119.46160888671876 160.56956481933594 114.84521484375 178.615234375 113.16659545898438 187.847900390625 111.4879150390625 195.82156372070313 110.22894287109376 202.5362243652344 107.7109375 212.18853759765625 106.451904296875 215.5458984375 104.35360717773438 218.48355102539065 103.51425170898438 218.9032287597656 103.09457397460938 218.9032287597656 103.09457397460938 218.9032287597656 " />
        <polyline stroke="black" stroke-width="3" stroke-linecap="round" fill="transparent" stroke-linejoin="round" points="112.74691772460938 189.94622802734375 122.81893920898438 179.87423706054688 128.69427490234375 175.67758178710938 134.14990234375 171.48089599609375 139.18588256835938 168.12356567382813 154.29388427734375 160.98924255371094 160.5888671875 158.8909149169922 164.36590576171875 158.4712371826172 165.62493896484375 158.8909149169922 167.3035888671875 161.40890502929688 166.4642333984375 167.28424072265625 162.267578125 175.67758178710938 155.13323974609375 186.58889770507813 150.93658447265625 192.0445556640625 150.93658447265625 192.0445556640625 " />
        <polyline stroke="black" stroke-width="3" stroke-linecap="round" fill="transparent" stroke-linejoin="round" points="115.6845703125 217.64422607421875 126.59591674804688 213.86721801757813 135.82858276367188 210.9295654296875 150.09725952148438 208.41156005859375 153.45458984375 207.99188232421875 153.45458984375 207.99188232421875 " />
        </svg>