<?xml version="1.0" standalone="no"?>
    <svg width="256" height="256" xmlns="http://www.w3.org/2000/svg" version="1.1">
    <polyline stroke="black" stroke-width="3" stroke-linecap="round" fill="transparent" stroke-linejoin="round" points="50.28076171875 79.73146057128906 56.4774169921875 102.3438720703125 58.86151123046875 109.40373229980467 60.332489013671875 115.19406127929688 61.74676513671875 121.29722595214844 61.834320068359375 122.07241821289063 62.03411865234375 123.11972045898438 62.104339599609375 123.4876708984375 " />
        <polyline stroke="black" stroke-width="3" stroke-linecap="round" fill="transparent" stroke-linejoin="round" points="65.83090209960938 77.84658813476563 84.416259765625 69.42144775390625 106.62060546875 64.29714965820313 120.56845092773438 61.47587585449219 147.64111328125 58.535369873046875 158.288330078125 58.4678955078125 168.29180908203125 59.58088684082031 183.899169921875 63.05615234375 194.8255615234375 67.012939453125 202.059326171875 71.22883605957031 202.842529296875 72.53863525390625 203.12640380859375 73.67185974121094 204.23828125 77.89495849609375 204.46429443359375 80.89651489257813 203.34326171875 90.04383850097656 196.11712646484375 102.37646484375 191.64691162109375 106.83848571777344 176.8123779296875 114.60289001464844 175.76318359375 114.14080810546876 " />
        <polyline stroke="black" stroke-width="3" stroke-linecap="round" fill="transparent" stroke-linejoin="round" points="120.491943359375 34.49474334716797 123.27548217773438 54.44081115722656 123.93246459960938 62.618133544921875 125.17425537109376 81.41116333007813 125.17767333984376 96.05267333984376 124.49822998046876 98.90985107421876 121.43994140625 106.22610473632813 121.07843017578124 105.8005828857422 " />
        <polyline stroke="black" stroke-width="3" stroke-linecap="round" fill="transparent" stroke-linejoin="round" points="74.31280517578125 148.05772399902344 98.36944580078124 145.03033447265625 108.50265502929688 145.0616455078125 118.40509033203124 145.10626220703125 137.74130249023438 144.64215087890625 145.51571655273438 143.4449920654297 157.29510498046875 139.72286987304688 161.068115234375 137.99095153808594 165.592041015625 136.1018524169922 165.98974609375 135.77175903320313 166.12939453125 135.65576171875 166.15081787109375 135.63803100585938 " />
        <polyline stroke="black" stroke-width="3" stroke-linecap="round" fill="transparent" stroke-linejoin="round" points="133.21478271484375 114.13018798828124 121.19256591796876 132.2668914794922 114.38510131835938 145.4276123046875 107.073974609375 159.5972137451172 98.08599853515624 175.467041015625 83.82333374023438 194.5843505859375 72.22738647460938 205.5435791015625 66.369384765625 208.55813598632813 59.99993896484375 210.767578125 61.981658935546875 207.55914306640625 " />
        <polyline stroke="black" stroke-width="3" stroke-linecap="round" fill="transparent" stroke-linejoin="round" points="113.42367553710938 150.413818359375 133.879638671875 162.26544189453125 158.717041015625 176.4002685546875 173.5018310546875 184.1976318359375 199.4095458984375 196.2421875 208.64886474609375 200.28890991210935 213.6256103515625 201.94680786132813 214.02777099609375 202.017578125 214.05999755859375 202.01068115234375 " />
        <polyline stroke="black" stroke-width="3" stroke-linecap="round" fill="transparent" stroke-linejoin="round" points="85.1507568359375 203.18997192382813 93.07577514648438 222.7728271484375 95.56356811523438 230.3455810546875 98.640869140625 241.05050659179688 99.205078125 245.50228881835935 99.738037109375 247.81741333007813 99.819580078125 248.17156982421875 " />
        <polyline stroke="black" stroke-width="3" stroke-linecap="round" fill="transparent" stroke-linejoin="round" points="106.82666015625 201.77630615234375 124.114013671875 194.42364501953125 130.391357421875 193.09747314453125 142.356201171875 192.3511962890625 149.65121459960938 193.27239990234375 151.5516357421875 193.9974670410156 154.3878173828125 195.56610107421875 155.53778076171875 196.91604614257813 158.7674560546875 204.12347412109375 160.50244140625 210.1459045410156 159.99462890625 222.99127197265625 154.0743408203125 231.53732299804688 151.7430419921875 232.49044799804688 151.173583984375 232.024169921875 " />
        <polyline stroke="black" stroke-width="3" stroke-linecap="round" fill="transparent" stroke-linejoin="round" points="112.95248413085938 231.93414306640625 140.86883544921875 231.41519165039065 151.499755859375 232.49951171875 153.5401611328125 233.03561401367188 154.06939697265625 233.52178955078125 154.260986328125 233.6978454589844 " />
        </svg>