<?xml version="1.0" standalone="no"?>
    <svg width="256" height="256" xmlns="http://www.w3.org/2000/svg" version="1.1">
    <polyline stroke="black" stroke-width="3" stroke-linecap="round" fill="transparent" stroke-linejoin="round" points="63.7989501953125 82.48123168945313 67.02694702148438 99.5433349609375 67.94921875 104.15472412109376 68.41033935546875 108.76609802246094 68.87152099609375 116.14431762695313 68.87152099609375 121.67796325683594 68.87152099609375 122.13912963867188 68.87152099609375 122.13912963867188 " />
        <polyline stroke="black" stroke-width="3" stroke-linecap="round" fill="transparent" stroke-linejoin="round" points="76.7108154296875 90.78172302246094 93.311767578125 80.17555236816406 100.69003295898438 76.94758605957031 122.36349487304688 68.6470947265625 136.19760131835938 64.49685668945313 147.72607421875 63.5745849609375 155.5654296875 64.49685668945313 160.637939453125 68.18595886230469 162.943603515625 70.95278930664063 165.71044921875 83.86465454101563 162.943603515625 92.62628173828124 156.48773193359375 99.08219909667967 151.8763427734375 101.38790893554688 151.8763427734375 101.38790893554688 " />
        <polyline stroke="black" stroke-width="3" stroke-linecap="round" fill="transparent" stroke-linejoin="round" points="123.74691772460938 28.989227294921875 126.974853515625 42.8233642578125 128.3582763671875 51.12385559082031 129.74169921875 59.424346923828125 130.66400146484375 68.18595886230469 131.58627319335938 75.56417846679688 132.04736328125 91.24285888671876 132.04736328125 98.62106323242188 129.280517578125 112.45523071289063 126.974853515625 119.83341979980467 126.974853515625 119.83341979980467 " />
        <polyline stroke="black" stroke-width="3" stroke-linecap="round" fill="transparent" stroke-linejoin="round" points="69.79376220703125 154.41876220703125 90.08383178710938 150.26852416992188 98.38427734375 148.4239959716797 124.669189453125 141.50692749023438 140.80902099609375 135.9732666015625 147.72607421875 132.7452850341797 157.4100341796875 127.21163940429688 157.4100341796875 127.21163940429688 " />
        <polyline stroke="black" stroke-width="3" stroke-linecap="round" fill="transparent" stroke-linejoin="round" points="146.80380249023438 111.99406433105467 132.04736328125 128.59503173828125 125.13031005859376 136.89553833007813 100.69003295898438 165.486083984375 86.39471435546875 182.54818725585935 81.32220458984375 188.08184814453125 74.40512084960938 194.53778076171875 70.71603393554688 197.30462646484375 70.71603393554688 197.30462646484375 " />
        <polyline stroke="black" stroke-width="3" stroke-linecap="round" fill="transparent" stroke-linejoin="round" points="108.52935791015624 160.41355895996094 123.28573608398438 160.87472534179688 130.66400146484375 161.33584594726563 138.04217529296875 162.25811767578125 145.42037963867188 163.18038940429688 159.7156982421875 165.0249481201172 169.39959716796875 166.86949157714844 172.6275634765625 167.79177856445313 174.9332275390625 168.25291442871094 174.9332275390625 168.25291442871094 " />
        <polyline stroke="black" stroke-width="3" stroke-linecap="round" fill="transparent" stroke-linejoin="round" points="108.06820678710938 201.454833984375 103.45684814453124 212.9833068847656 102.99569702148438 213.4444580078125 102.5345458984375 213.90557861328125 101.61227416992188 213.90557861328125 101.151123046875 213.4444580078125 100.22885131835938 212.52215576171875 100.22885131835938 210.21649169921875 102.99569702148438 205.6051025390625 110.83505249023438 198.68801879882813 122.36349487304688 192.23208618164065 134.35308837890625 186.69842529296875 144.49813842773438 183.470458984375 151.4151611328125 182.0870361328125 155.5654296875 182.0870361328125 157.4100341796875 182.54818725585935 156.9488525390625 184.39276123046875 151.8763427734375 189.00411987304688 136.65878295898438 198.22686767578125 120.5189208984375 206.06622314453125 110.3739013671875 210.21649169921875 104.84027099609376 212.52215576171875 104.37908935546876 212.52215576171875 109.45162963867188 212.06103515625 114.98529052734376 211.59988403320313 137.119873046875 207.9107666015625 148.18719482421875 207.9107666015625 148.18719482421875 207.9107666015625 " />
        </svg>