<?xml version="1.0" standalone="no"?>
    <svg width="256" height="256" xmlns="http://www.w3.org/2000/svg" version="1.1">
    <polyline stroke="black" stroke-width="3" stroke-linecap="round" fill="transparent" stroke-linejoin="round" points="57 53 56 85 56 102 58 113 60 115 60 115 " />
        <polyline stroke="black" stroke-width="3" stroke-linecap="round" fill="transparent" stroke-linejoin="round" points="44 68 51 65 61 64 89 56 119 50 150 50 173 51 190 60 196 70 198 75 198 81 190 90 180 97 174 100 174 100 " />
        <polyline stroke="black" stroke-width="3" stroke-linecap="round" fill="transparent" stroke-linejoin="round" points="123 30 119 37 119 56 115 77 114 87 114 87 " />
        <polyline stroke="black" stroke-width="3" stroke-linecap="round" fill="transparent" stroke-linejoin="round" points="82 133 103 127 120 122 140 119 155 118 163 118 165 118 165 118 " />
        <polyline stroke="black" stroke-width="3" stroke-linecap="round" fill="transparent" stroke-linejoin="round" points="121 114 109 129 94 146 79 160 66 170 63 175 63 176 63 176 " />
        <polyline stroke="black" stroke-width="3" stroke-linecap="round" fill="transparent" stroke-linejoin="round" points="119 132 134 137 143 138 162 144 179 150 192 155 198 158 198 162 198 162 " />
        <polyline stroke="black" stroke-width="3" stroke-linecap="round" fill="transparent" stroke-linejoin="round" points="104 158 104 170 104 181 107 194 110 201 111 203 111 203 " />
        <polyline stroke="black" stroke-width="3" stroke-linecap="round" fill="transparent" stroke-linejoin="round" points="100 165 130 148 149 146 167 146 175 151 177 158 177 171 168 184 168 184 " />
        <polyline stroke="black" stroke-width="3" stroke-linecap="round" fill="transparent" stroke-linejoin="round" points="108 196 122 193 140 188 161 186 161 186 " />
        </svg>