<?xml version="1.0" standalone="no"?>
    <svg width="256" height="256" xmlns="http://www.w3.org/2000/svg" version="1.1">
    <polyline stroke="black" stroke-width="3" stroke-linecap="round" fill="transparent" stroke-linejoin="round" points="75 91 75 92 75 93 75 94 76 96 77 99 79 102 80 105 83 111 85 117 88 125 90 131 92 137 93 141 94 144 95 145 95 146 95 146 " />
        <polyline stroke="black" stroke-width="3" stroke-linecap="round" fill="transparent" stroke-linejoin="round" points="83 96 84 95 85 94 87 93 89 92 93 91 96 91 102 90 110 89 118 88 126 86 134 84 141 83 147 82 152 82 155 82 157 82 158 82 158 83 158 85 158 87 156 90 153 94 150 98 147 102 144 107 140 112 137 117 135 120 135 120 " />
        <polyline stroke="black" stroke-width="3" stroke-linecap="round" fill="transparent" stroke-linejoin="round" points="86 144 86 143 86 142 86 141 89 140 93 139 99 137 102 136 105 134 114 132 122 129 131 127 139 126 145 126 149 126 152 126 153 126 153 126 " />
        <polyline stroke="black" stroke-width="3" stroke-linecap="round" fill="transparent" stroke-linejoin="round" points="107 51 107 50 107 49 107 50 109 53 109 56 110 58 111 61 113 69 113 73 114 78 115 89 116 96 117 102 117 116 118 130 118 146 118 154 118 162 118 177 117 190 115 203 114 213 112 223 111 230 110 235 110 239 109 241 108 241 105 240 105 240 " />
        <polyline stroke="black" stroke-width="3" stroke-linecap="round" fill="transparent" stroke-linejoin="round" points="40 149 40 153 40 157 40 160 40 162 40 164 41 169 41 173 42 174 42 175 43 176 44 176 45 176 46 174 48 170 51 167 54 162 57 157 61 153 66 149 68 147 68 147 " />
        <polyline stroke="black" stroke-width="3" stroke-linecap="round" fill="transparent" stroke-linejoin="round" points="195 85 194 84 193 83 193 85 193 87 193 90 193 95 192 102 190 111 187 120 184 129 180 137 180 137 " />
        </svg>