<?xml version="1.0" standalone="no"?>
    <svg width="256" height="256" xmlns="http://www.w3.org/2000/svg" version="1.1">
    <polyline stroke="black" stroke-width="3" stroke-linecap="round" fill="transparent" stroke-linejoin="round" points="39.77130126953125 74.88465881347656 44.23223876953125 83.24897766113281 49.8084716796875 96.63186645507813 56.499908447265625 116.70619201660156 60.40325927734375 128.97384643554688 63.19134521484375 137.33815002441406 64.30657958984375 141.7991180419922 64.30657958984375 141.7991180419922 " />
        <polyline stroke="black" stroke-width="3" stroke-linecap="round" fill="transparent" stroke-linejoin="round" points="80.47760009765625 71.5389404296875 84.38092041015625 85.47944641113281 88.84188842773438 99.4199676513672 94.4180908203125 113.9180908203125 98.87905883789063 125.0705108642578 100.55194091796876 131.76194763183594 100.55194091796876 131.76194763183594 " />
        <polyline stroke="black" stroke-width="3" stroke-linecap="round" fill="transparent" stroke-linejoin="round" points="101.66717529296876 77.11514282226563 120.06863403320313 70.9813232421875 134.5667724609375 69.30845642089844 150.18014526367188 69.30845642089844 164.67828369140625 71.5389404296875 176.3883056640625 75.44229125976563 183.0797119140625 79.90324401855469 186.42547607421875 86.03707885742188 183.0797119140625 99.9775848388672 165.79351806640625 122.84002685546876 165.79351806640625 122.84002685546876 " />
        <polyline stroke="black" stroke-width="3" stroke-linecap="round" fill="transparent" stroke-linejoin="round" points="103.89764404296876 152.39390563964844 114.492431640625 146.8177032470703 124.52960205078124 143.47198486328125 137.9124755859375 140.6838836669922 151.29541015625 138.45339965820313 161.89013671875 136.22291564941406 173.0426025390625 130.08909606933594 173.0426025390625 130.08909606933594 " />
        <polyline stroke="black" stroke-width="3" stroke-linecap="round" fill="transparent" stroke-linejoin="round" points="129.54818725585938 47.003639221191406 130.66342163085938 55.925567626953125 129.54818725585938 82.69134521484375 128.99057006835938 125.6281280517578 129.54818725585938 149.04818725585938 130.10580444335938 167.4496612548828 130.66342163085938 185.29351806640625 130.10580444335938 197.0035400390625 130.10580444335938 203.13735961914065 130.10580444335938 203.13735961914065 " />
        <polyline stroke="black" stroke-width="3" stroke-linecap="round" fill="transparent" stroke-linejoin="round" points="215.4217529296875 94.40138244628906 207.61505126953125 118.93667602539063 188.09832763671875 146.8177032470703 188.09832763671875 146.8177032470703 " />
        </svg>