<?xml version="1.0" standalone="no"?>
    <svg width="256" height="256" xmlns="http://www.w3.org/2000/svg" version="1.1">
    <polyline stroke="black" stroke-width="3" stroke-linecap="round" fill="transparent" stroke-linejoin="round" points="46.924560546875 109.396240234375 63.2264404296875 128.41510009765625 74.0943603515625 162.8302001953125 75.90570068359375 167.3584747314453 77.7169189453125 171.88681030273438 77.7169189453125 172.7924346923828 77.7169189453125 171.88681030273438 77.7169189453125 171.88681030273438 " />
        <polyline stroke="black" stroke-width="3" stroke-linecap="round" fill="transparent" stroke-linejoin="round" points="77.7169189453125 101.24530029296876 92.20758056640624 125.69810485839844 94.924560546875 132.94337463378906 104.88677978515624 154.67926025390625 106.6981201171875 157.396240234375 107.603759765625 159.20753479003906 107.603759765625 159.20753479003906 " />
        <polyline stroke="black" stroke-width="3" stroke-linecap="round" fill="transparent" stroke-linejoin="round" points="98.54718017578124 115.73583984375 117.56597900390624 106.67926025390624 142.924560546875 98.5283203125 148.3585205078125 96.71697998046876 162.8489990234375 91.28302001953124 170.0943603515625 89.47171020507813 172.81134033203125 88.5660400390625 171.90570068359375 92.18869018554688 149.26416015625 122.98112487792967 143.8302001953125 128.41510009765625 133.86785888671875 136.5660400390625 122.0943603515625 145.6226348876953 122.0943603515625 145.6226348876953 " />
        <polyline stroke="black" stroke-width="3" stroke-linecap="round" fill="transparent" stroke-linejoin="round" points="105.79248046875 149.24530029296875 128.43389892578125 140.18869018554688 151.07550048828125 125.69810485839844 154.6981201171875 122.98112487792967 159.2264404296875 117.54718017578124 161.0377197265625 115.73583984375 161.0377197265625 115.73583984375 " />
        <polyline stroke="black" stroke-width="3" stroke-linecap="round" fill="transparent" stroke-linejoin="round" points="192.73583984375 64.11322021484375 207.2264404296875 87.66035461425781 197.26416015625 115.73583984375 192.73583984375 121.16983032226563 180.9622802734375 134.75473022460938 171.90570068359375 139.28302001953125 171.90570068359375 139.28302001953125 " />
        <polyline stroke="black" stroke-width="3" stroke-linecap="round" fill="transparent" stroke-linejoin="round" points="107.603759765625 28.792449951171875 128.43389892578125 29.6981201171875 135.67926025390625 48.71697998046875 135.67926025390625 55.05659484863281 136.5848388671875 73.16983032226563 135.67926025390625 103.0565948486328 134.77362060546875 140.18869018554688 133.86785888671875 179.13209533691406 132.9622802734375 228.94338989257813 132.9622802734375 252.49053955078125 132.9622802734375 266.98114013671875 132.9622802734375 266.98114013671875 " />
        </svg>