<?xml version="1.0" standalone="no"?>
    <svg width="256" height="256" xmlns="http://www.w3.org/2000/svg" version="1.1">
    <polyline stroke="black" stroke-width="3" stroke-linecap="round" fill="transparent" stroke-linejoin="round" points="40.83587646484375 118.37359619140624 44.2523193359375 132.4664764404297 47.24169921875 146.13229370117188 49.37701416015625 153.39224243164063 55.355804443359375 170.47451782226563 58.772216796875 176.45330810546875 58.772216796875 176.45330810546875 " />
        <polyline stroke="black" stroke-width="3" stroke-linecap="round" fill="transparent" stroke-linejoin="round" points="78.84393310546875 108.97833251953124 81.40625 120.08181762695313 83.11447143554688 129.05001831054688 83.96859741210938 139.72642517089844 83.96859741210938 139.72642517089844 " />
        <polyline stroke="black" stroke-width="3" stroke-linecap="round" fill="transparent" stroke-linejoin="round" points="93.36386108398438 100.01016235351563 111.727294921875 89.333740234375 124.966064453125 83.78199768066406 139.91302490234375 79.08438110351563 154.4329833984375 76.9490966796875 168.52581787109375 77.37614440917969 179.2022705078125 79.51142883300781 185.1810302734375 83.35493469238281 188.5975341796875 88.4796142578125 189.02459716796875 97.44781494140624 182.61871337890625 108.55130004882813 177.0670166015625 114.53009033203124 169.8070068359375 120.93594360351563 169.8070068359375 120.93594360351563 " />
        <polyline stroke="black" stroke-width="3" stroke-linecap="round" fill="transparent" stroke-linejoin="round" points="101.47796630859376 135.88291931152344 118.13314819335938 129.47708129882813 131.7989501953125 126.4876708984375 144.61065673828125 124.35238647460938 155.714111328125 122.64414978027344 168.09881591796875 120.08181762695313 168.09881591796875 120.08181762695313 " />
        <polyline stroke="black" stroke-width="3" stroke-linecap="round" fill="transparent" stroke-linejoin="round" points="232.1573486328125 74.81381225585938 226.178466796875 87.62550354003906 222.3349609375 92.7501983642578 217.63739013671875 98.30192565917967 204.39862060546875 110.25950622558594 204.39862060546875 110.25950622558594 " />
        <polyline stroke="black" stroke-width="3" stroke-linecap="round" fill="transparent" stroke-linejoin="round" points="149.7353515625 27.41050720214844 149.7353515625 43.21160125732422 149.7353515625 53.460960388183594 148.88119506835938 94.88546752929688 148.027099609375 110.68658447265624 145.03768920898438 159.798095703125 144.18359375 173.03684997558594 141.62127685546875 194.38970947265625 140.340087890625 208.48257446289065 140.340087890625 208.48257446289065 " />
        </svg>