<?xml version="1.0" standalone="no"?>
    <svg width="256" height="256" xmlns="http://www.w3.org/2000/svg" version="1.1">
    <polyline stroke="black" stroke-width="3" stroke-linecap="round" fill="transparent" stroke-linejoin="round" points="61.547607421875 80.83294677734375 60.708251953125 93.42294311523438 60.708251953125 99.71794128417967 61.1279296875 105.59326171875 61.547607421875 110.62925720214844 62.386932373046875 119.4422607421875 63.226287841796875 124.89793395996094 63.64593505859375 126.57658386230467 63.64593505859375 126.57658386230467 " />
        <polyline stroke="black" stroke-width="3" stroke-linecap="round" fill="transparent" stroke-linejoin="round" points="93.4422607421875 70.34127807617188 92.18328857421876 80.41326904296875 91.76361083984376 86.28860473632813 91.34393310546876 92.1639404296875 90.0849609375 103.9145965576172 89.24560546875 108.95059204101563 86.30795288085938 121.54058837890624 86.30795288085938 121.54058837890624 " />
        <polyline stroke="black" stroke-width="3" stroke-linecap="round" fill="transparent" stroke-linejoin="round" points="94.70126342773438 79.99360656738281 105.19296264648438 77.47561645507813 109.80926513671876 76.63627624511719 114.84521484375 75.37727355957031 127.43524169921876 72.01994323730469 147.15960693359375 66.98394775390625 158.0709228515625 65.30528259277344 164.78558349609375 65.30528259277344 166.8839111328125 66.14462280273438 170.660888671875 72.01994323730469 168.5626220703125 81.67227172851563 166.0445556640625 87.1279296875 151.356201171875 103.49493408203124 136.24822998046875 114.825927734375 136.24822998046875 114.825927734375 " />
        <polyline stroke="black" stroke-width="3" stroke-linecap="round" fill="transparent" stroke-linejoin="round" points="90.50457763671876 137.4879150390625 101.83563232421876 130.35357666015625 106.0322265625 127.83560180664063 110.22894287109376 125.31759643554688 119.04193115234376 120.28160095214844 124.49755859375 117.34393310546876 137.08758544921875 110.2095947265625 145.06124877929688 106.43260192871094 153.45458984375 101.81626892089844 153.45458984375 101.81626892089844 " />
        <polyline stroke="black" stroke-width="3" stroke-linecap="round" fill="transparent" stroke-linejoin="round" points="221.0208740234375 66.14462280273438 204.6539306640625 76.21661376953125 195.4212646484375 82.09194946289063 174.01824951171875 94.68194580078124 174.01824951171875 94.68194580078124 " />
        <polyline stroke="black" stroke-width="3" stroke-linecap="round" fill="transparent" stroke-linejoin="round" points="133.730224609375 25.017295837402344 133.730224609375 46.00062561035156 131.21224975585938 72.43960571289063 125.756591796875 112.7275848388672 124.077880859375 125.31759643554688 120.7205810546875 159.73025512695313 119.46160888671876 183.2315673828125 119.46160888671876 203.79522705078125 119.46160888671876 203.79522705078125 " />
        </svg>