<?xml version="1.0" standalone="no"?>
    <svg width="256" height="256" xmlns="http://www.w3.org/2000/svg" version="1.1">
    <polyline stroke="black" stroke-width="3" stroke-linecap="round" fill="transparent" stroke-linejoin="round" points="69.352783203125 45.15721893310547 62.484954833984375 59.30903625488281 56.18951416015625 74.96968078613281 48.359161376953125 92.76350402832033 42.583984375 105.32843017578124 40.24267578125 108.89239501953124 39.90447998046875 110.14108276367188 40.06060791015625 110.45327758789063 42.349884033203125 108.89239501953124 42.349884033203125 108.89239501953124 " />
        <polyline stroke="black" stroke-width="3" stroke-linecap="round" fill="transparent" stroke-linejoin="round" points="57.2821044921875 56.57752990722656 66.28305053710938 51.738861083984375 75.3880615234375 48.59112548828125 82.95828247070313 46.35387420654297 88.60336303710938 45.495399475097656 93.416015625 44.89707946777344 96.43368530273438 45.07917022705078 98.77499389648438 46.067718505859375 100.28384399414063 48.77320861816406 98.56686401367188 59.699249267578125 92.94781494140624 73.69497680664063 87.6668701171875 93.3358154296875 80.56494140625 114.56355285644533 72.16229248046875 139.58935546875 61.88665771484375 165.03138732910156 56.83984375 175.8533935546875 51.741058349609375 185.53070068359375 46.74627685546875 193.23095703125 41.959625244140625 199.1622314453125 38.265625 203.29849243164065 36.31451416015625 204.67724609375 35.143890380859375 205.19754028320313 34.961761474609375 205.17153930664065 34.961761474609375 205.17153930664065 " />
        <polyline stroke="black" stroke-width="3" stroke-linecap="round" fill="transparent" stroke-linejoin="round" points="57.568267822265625 102.67497253417967 69.06658935546875 109.1525421142578 79.108154296875 117.16496276855467 88.109130859375 125.98382568359376 94.14447021484376 132.01918029785156 96.459716796875 134.30844116210938 98.85302734375 136.70175170898438 100.28384399414063 138.0544891357422 101.428466796875 139.01702880859375 102.18289184570313 139.53732299804688 103.301513671875 140.109619140625 104.21200561523438 140.3697967529297 108.16619873046876 139.9275360107422 108.16619873046876 139.9275360107422 " />
        <polyline stroke="black" stroke-width="3" stroke-linecap="round" fill="transparent" stroke-linejoin="round" points="131.344970703125 81.10905456542969 135.71539306640625 92.6334228515625 136.93807983398438 95.96327209472656 138.368896484375 99.501220703125 139.14926147460938 101.8685302734375 139.6435546875 103.89764404296876 140.528076171875 106.52508544921876 141.28250122070313 107.79978942871094 141.28250122070313 107.79978942871094 " />
        <polyline stroke="black" stroke-width="3" stroke-linecap="round" fill="transparent" stroke-linejoin="round" points="148.51443481445313 68.54412841796875 152.8848876953125 78.22148132324219 156.7349853515625 86.80621337890625 159.3104248046875 92.97160339355467 161.26153564453125 96.37950134277344 166.77655029296875 100.38571166992188 166.77655029296875 100.38571166992188 " />
        <polyline stroke="black" stroke-width="3" stroke-linecap="round" fill="transparent" stroke-linejoin="round" points="181.422607421875 48.48705291748047 190.24151611328125 53.793983459472656 192.50469970703125 56.395416259765625 192.296630859375 65.60450744628906 187.6920166015625 80.71884155273438 182.4111328125 100.95802307128906 175.699462890625 121.7955322265625 164.1490478515625 141.17620849609375 153.71734619140625 154.6516571044922 150.02328491210938 159.38626098632813 150.02328491210938 159.38626098632813 " />
        <polyline stroke="black" stroke-width="3" stroke-linecap="round" fill="transparent" stroke-linejoin="round" points="108.19223022460938 184.72427368164065 124.58123779296876 180.0676727294922 142.84332275390625 175.931396484375 165.16363525390625 172.367431640625 185.61090087890625 170.494384765625 203.794921875 170.494384765625 216.15179443359375 171.92518615722656 225.5689697265625 175.0729217529297 231.26611328125 178.61087036132813 231.26611328125 178.61087036132813 " />
        </svg>