<?xml version="1.0" standalone="no"?>
    <svg width="256" height="256" xmlns="http://www.w3.org/2000/svg" version="1.1">
    <polyline stroke="black" stroke-width="3" stroke-linecap="round" fill="transparent" stroke-linejoin="round" points="79.71109008789063 65.60520935058594 71.1307373046875 83.75588989257813 68.16061401367188 89.03607177734375 59.580322265625 103.55662536621094 58.9202880859375 104.8766632080078 57.27020263671875 106.5267333984375 57.27020263671875 106.5267333984375 60.240325927734375 103.2266082763672 70.80072021484375 93.98626708984376 82.35116577148438 85.075927734375 89.61141967773438 81.11579895019531 94.23162841796876 81.77580261230469 97.53170776367188 89.03607177734375 96.211669921875 110.1568603515625 87.30133056640625 138.8679656982422 72.78082275390625 170.879150390625 60.57037353515625 191.99993896484375 56.940216064453125 196.95013427734375 56.940216064453125 196.95013427734375 " />
        <polyline stroke="black" stroke-width="3" stroke-linecap="round" fill="transparent" stroke-linejoin="round" points="60.900360107421875 142.16806030273438 71.1307373046875 151.0784149169922 89.94140625 173.51927185058594 92.91159057617188 176.48934936523438 98.85174560546876 183.089599609375 99.841796875 184.40966796875 99.841796875 184.40966796875 " />
        <polyline stroke="black" stroke-width="3" stroke-linecap="round" fill="transparent" stroke-linejoin="round" points="116.67242431640624 104.8766632080078 121.62261962890624 116.42709350585938 130.532958984375 130.94764709472656 131.85299682617188 132.5977020263672 135.15316772460938 136.2278594970703 137.46322631835938 137.87791442871094 137.46322631835938 137.87791442871094 137.46322631835938 137.87791442871094 " />
        <polyline stroke="black" stroke-width="3" stroke-linecap="round" fill="transparent" stroke-linejoin="round" points="144.7235107421875 116.09709167480467 153.3038330078125 125.99745178222656 160.5640869140625 133.2577362060547 160.5640869140625 133.2577362060547 " />
        <polyline stroke="black" stroke-width="3" stroke-linecap="round" fill="transparent" stroke-linejoin="round" points="188.94512939453125 108.1768035888672 179.37481689453125 125.33743286132813 144.7235107421875 156.35861206054688 137.46322631835938 160.64877319335938 119.97259521484376 168.23904418945313 113.04232788085938 170.879150390625 110.4022216796875 172.19920349121094 109.7421875 172.19920349121094 111.39224243164063 172.19920349121094 116.67242431640624 171.2091522216797 128.55288696289063 169.2290802001953 145.71353149414063 166.25900268554688 164.854248046875 163.9488983154297 184.655029296875 161.30877685546875 199.175537109375 162.29881286621094 204.4556884765625 164.93893432617188 204.4556884765625 164.93893432617188 " />
        </svg>