<?xml version="1.0" standalone="no"?>
    <svg width="256" height="256" xmlns="http://www.w3.org/2000/svg" version="1.1">
    <polyline stroke="black" stroke-width="3" stroke-linecap="round" fill="transparent" stroke-linejoin="round" points="89.883056640625 71.4552001953125 89.883056640625 97.60093688964844 92.4976806640625 113.28836059570313 93.15130615234376 114.59564208984376 93.80499267578124 112.6347198486328 94.45855712890624 107.40559387207033 94.45855712890624 107.40559387207033 " />
        <polyline stroke="black" stroke-width="3" stroke-linecap="round" fill="transparent" stroke-linejoin="round" points="93.15130615234376 93.67906188964844 100.99505615234376 77.33798217773438 121.91156005859376 68.18696594238281 125.1798095703125 67.5333251953125 136.94537353515625 66.22605895996094 148.05731201171875 66.22605895996094 153.94012451171875 68.18696594238281 156.5546875 71.4552001953125 154.59375 79.95256042480469 148.71099853515625 91.0644989013672 139.55999755859375 100.86915588378906 129.1016845703125 109.3665008544922 125.83343505859376 110.67381286621094 125.83343505859376 110.67381286621094 " />
        <polyline stroke="black" stroke-width="3" stroke-linecap="round" fill="transparent" stroke-linejoin="round" points="106.87786865234376 118.51750183105467 132.369873046875 108.05921936035156 144.13543701171875 104.79100036621094 144.13543701171875 105.44464111328124 144.13543701171875 110.0201416015625 144.13543701171875 110.0201416015625 " />
        <polyline stroke="black" stroke-width="3" stroke-linecap="round" fill="transparent" stroke-linejoin="round" points="67.65924072265625 142.0486602783203 61.122802734375 157.73611450195313 65.04461669921875 166.23350524902344 66.3519287109375 167.540771484375 68.96649169921875 168.84805297851563 75.5029296875 168.1944122314453 80.73211669921875 166.23350524902344 91.843994140625 159.0434112548828 100.99505615234376 153.16062927246094 106.87786865234376 149.8924102783203 112.10693359375 149.8924102783203 115.37518310546876 152.5069580078125 118.64337158203124 157.0824737548828 118.64337158203124 161.0043182373047 117.98974609375 162.9652862548828 116.6824951171875 161.0043182373047 116.6824951171875 161.0043182373047 " />
        <polyline stroke="black" stroke-width="3" stroke-linecap="round" fill="transparent" stroke-linejoin="round" points="97.72674560546876 134.2049560546875 86.6148681640625 162.9652862548828 87.26849365234375 188.45736694335935 87.922119140625 193.03286743164065 89.22943115234375 199.56930541992188 91.843994140625 202.18389892578125 97.72674560546876 202.18389892578125 97.72674560546876 202.18389892578125 " />
        <polyline stroke="black" stroke-width="3" stroke-linecap="round" fill="transparent" stroke-linejoin="round" points="127.1407470703125 159.0434112548828 148.71099853515625 164.9261932373047 165.05206298828125 161.657958984375 167.01300048828125 161.657958984375 174.20306396484375 159.6970672607422 179.4322509765625 157.73611450195313 182.04681396484375 157.0824737548828 184.00775146484375 156.4288330078125 185.3150634765625 157.0824737548828 185.96868896484375 159.6970672607422 186.62225341796875 162.9652862548828 186.62225341796875 163.618896484375 186.62225341796875 163.618896484375 " />
        <polyline stroke="black" stroke-width="3" stroke-linecap="round" fill="transparent" stroke-linejoin="round" points="172.24212646484375 138.12681579589844 161.13018798828125 164.2725372314453 161.13018798828125 167.540771484375 159.82293701171875 191.07192993164065 159.82293701171875 196.9547119140625 160.4765625 206.7593688964844 163.74481201171875 212.6421813964844 163.74481201171875 212.6421813964844 " />
        </svg>