<?xml version="1.0" standalone="no"?>
    <svg width="256" height="256" xmlns="http://www.w3.org/2000/svg" version="1.1">
    <polyline stroke="black" stroke-width="3" stroke-linecap="round" fill="transparent" stroke-linejoin="round" points="78.74459838867188 96.34178161621094 82.78662109375 111.35494995117188 86.25115966796875 126.36813354492188 87.98345947265625 137.33929443359375 89.71575927734375 143.69102478027344 89.71575927734375 146.5781707763672 89.71575927734375 145.42330932617188 88.5609130859375 139.0715789794922 87.40603637695313 128.1004180908203 87.98345947265625 117.12925720214844 90.29318237304688 109.62266540527344 95.49005126953124 102.69351196289063 105.8837890625 95.7643585205078 123.78411865234376 88.83518981933594 139.37472534179688 85.94804382324219 157.2750244140625 85.37062072753906 169.978515625 87.68032836914063 175.7528076171875 91.72235107421876 179.7947998046875 100.9612274169922 181.527099609375 120.0164031982422 176.90765380859375 134.4521484375 171.13336181640625 143.11358642578125 164.7816162109375 148.8878936767578 157.2750244140625 151.77503967285156 145.7264404296875 148.31045532226563 138.2198486328125 137.33929443359375 138.2198486328125 137.33929443359375 " />
        <polyline stroke="black" stroke-width="3" stroke-linecap="round" fill="transparent" stroke-linejoin="round" points="122.6292724609375 32.24707794189453 123.2066650390625 48.41511535644531 123.78411865234376 76.70916748046875 124.36154174804688 98.65150451660156 125.51641845703124 122.90354919433594 126.6712646484375 143.11358642578125 127.82611083984376 161.013916015625 127.82611083984376 175.4496612548828 127.82611083984376 184.11111450195313 127.82611083984376 184.11111450195313 " />
        <polyline stroke="black" stroke-width="3" stroke-linecap="round" fill="transparent" stroke-linejoin="round" points="101.26434326171876 181.8013916015625 111.6580810546875 180.069091796875 124.93896484375 178.91424560546875 139.37472534179688 177.75938415527344 151.500732421875 177.75938415527344 159.58477783203125 178.91424560546875 165.35906982421875 181.2239532470703 165.35906982421875 181.2239532470703 " />
        <polyline stroke="black" stroke-width="3" stroke-linecap="round" fill="transparent" stroke-linejoin="round" points="71.23800659179688 219.9117431640625 87.98345947265625 219.9117431640625 115.70010375976563 220.48919677734375 136.487548828125 221.64404296875 159.58477783203125 223.3763427734375 178.0625 223.95376586914065 194.8079833984375 223.95376586914065 206.3565673828125 223.95376586914065 211.553466796875 223.95376586914065 215.01800537109375 226.26348876953125 215.01800537109375 226.26348876953125 " />
        </svg>