<?xml version="1.0" standalone="no"?>
    <svg width="256" height="256" xmlns="http://www.w3.org/2000/svg" version="1.1">
    <polyline stroke="black" stroke-width="3" stroke-linecap="round" fill="transparent" stroke-linejoin="round" points="86 87 86 98 86 112 86 125 88 131 90 132 90 132 " />
        <polyline stroke="black" stroke-width="3" stroke-linecap="round" fill="transparent" stroke-linejoin="round" points="103 84 122 80 141 79 157 79 167 85 173 98 175 110 175 120 173 126 166 128 157 128 152 121 146 102 146 102 " />
        <polyline stroke="black" stroke-width="3" stroke-linecap="round" fill="transparent" stroke-linejoin="round" points="131 81 131 109 130 136 130 156 130 166 130 166 " />
        <polyline stroke="black" stroke-width="3" stroke-linecap="round" fill="transparent" stroke-linejoin="round" points="106 177 110 177 121 176 134 175 141 175 148 175 158 175 161 175 161 175 " />
        <polyline stroke="black" stroke-width="3" stroke-linecap="round" fill="transparent" stroke-linejoin="round" points="115 224 122 223 139 220 155 218 167 218 188 218 193 222 193 222 " />
        </svg>