<?xml version="1.0" standalone="no"?>
    <svg width="256" height="256" xmlns="http://www.w3.org/2000/svg" version="1.1">
    <polyline stroke="black" stroke-width="3" stroke-linecap="round" fill="transparent" stroke-linejoin="round" points="73.188720703125 75.88681030273438 88.5848388671875 108.49057006835938 94.924560546875 120.26414489746094 99.4527587890625 128.41510009765625 102.16973876953124 130.2263946533203 102.16973876953124 130.2263946533203 " />
        <polyline stroke="black" stroke-width="3" stroke-linecap="round" fill="transparent" stroke-linejoin="round" points="129.33966064453125 55.96226501464844 168.282958984375 43.28301239013672 197.26416015625 36.943397521972656 201.79248046875 37.84906005859375 206.32073974609375 47.811317443847656 200.88677978515625 63.207550048828125 191.8302001953125 83.132080078125 180.9622802734375 103.0565948486328 176.43389892578125 112.11322021484376 176.43389892578125 112.11322021484376 " />
        <polyline stroke="black" stroke-width="3" stroke-linecap="round" fill="transparent" stroke-linejoin="round" points="133.86785888671875 97.62265014648438 128.43389892578125 108.49057006835938 128.43389892578125 108.49057006835938 " />
        <polyline stroke="black" stroke-width="3" stroke-linecap="round" fill="transparent" stroke-linejoin="round" points="127.5283203125 107.58488464355467 147.4527587890625 94.90567016601563 151.07550048828125 91.28302001953124 151.07550048828125 91.28302001953124 " />
        <polyline stroke="black" stroke-width="3" stroke-linecap="round" fill="transparent" stroke-linejoin="round" points="82.24530029296875 169.16983032226563 58.6981201171875 205.396240234375 54.16973876953125 211.73583984375 45.11322021484375 222.60379028320313 44.20758056640625 222.60379028320313 46.018798828125 220.79244995117188 46.018798828125 220.79244995117188 " />
        <polyline stroke="black" stroke-width="3" stroke-linecap="round" fill="transparent" stroke-linejoin="round" points="88.5848388671875 180.03775024414063 105.79248046875 177.32077026367188 108.50946044921876 179.13209533691406 113.94342041015624 185.47171020507813 116.660400390625 188.18869018554688 117.56597900390624 190.9056701660156 118.47174072265624 190 119.37738037109376 188.18869018554688 119.37738037109376 188.18869018554688 " />
        <polyline stroke="black" stroke-width="3" stroke-linecap="round" fill="transparent" stroke-linejoin="round" points="161.94342041015625 144.71697998046875 150.1697998046875 177.32077026367188 148.3585205078125 183.66036987304688 144.73577880859375 191.81134033203125 144.73577880859375 194.5283203125 153.79248046875 187.28298950195313 167.37738037109375 176.41510009765625 182.77362060546875 164.64149475097656 199.07550048828125 154.67926025390625 212.660400390625 147.4339599609375 221.71697998046875 150.15093994140625 219.90570068359375 161.9245147705078 209.94342041015625 180.94337463378903 195.45281982421875 207.20751953125 167.37738037109375 251.58489990234375 157.41510009765625 266.0754699707031 157.41510009765625 266.0754699707031 " />
        </svg>