<?xml version="1.0" standalone="no"?>
    <svg width="256" height="256" xmlns="http://www.w3.org/2000/svg" version="1.1">
    <polyline stroke="black" stroke-width="3" stroke-linecap="round" fill="transparent" stroke-linejoin="round" points="132.45223999023438 31.874465942382813 132.04168701171875 43.37044525146485 129.16766357421875 50.35015106201172 124.6513671875 56.50872802734375 118.49285888671876 61.84614562988281 109.870849609375 67.18356323242188 100.427734375 70.87870788574219 96.32199096679688 72.11041259765625 89.34228515625 73.75270080566406 84.0048828125 74.16326904296875 83.18377685546875 74.16326904296875 84.41546630859375 73.34213256835938 87.70001220703125 72.52099609375 102.07000732421876 70.87870788574219 133.68392944335938 67.18356323242188 154.2125244140625 64.72013854980469 169.4036865234375 63.077850341796875 180.0784912109375 61.84614562988281 185.4158935546875 61.84614562988281 185.4158935546875 61.84614562988281 " />
        <polyline stroke="black" stroke-width="3" stroke-linecap="round" fill="transparent" stroke-linejoin="round" points="83.18377685546875 122.6106414794922 95.5008544921875 119.73666381835938 106.996826171875 118.09439086914063 123.419677734375 115.63095092773438 132.45223999023438 113.9886474609375 139.43197631835938 110.29351806640624 139.43197631835938 110.29351806640624 " />
        <polyline stroke="black" stroke-width="3" stroke-linecap="round" fill="transparent" stroke-linejoin="round" points="123.00912475585938 90.175537109375 113.1553955078125 102.08212280273438 105.76513671875 112.34637451171876 102.07000732421876 118.09439086914063 95.09027099609376 129.17979431152344 89.34228515625 137.39120483398438 84.41546630859375 143.1392059326172 80.30975341796875 147.24490356445313 79.0780029296875 148.0660400390625 79.0780029296875 148.0660400390625 " />
        <polyline stroke="black" stroke-width="3" stroke-linecap="round" fill="transparent" stroke-linejoin="round" points="93.447998046875 128.7692108154297 106.996826171875 133.28549194335938 114.79769897460938 136.570068359375 121.3668212890625 139.44406127929688 126.29367065429688 141.49691772460938 128.757080078125 142.31805419921875 128.757080078125 142.31805419921875 " />
        <polyline stroke="black" stroke-width="3" stroke-linecap="round" fill="transparent" stroke-linejoin="round" points="133.68392944335938 119.32609558105467 149.69622802734375 114.80979919433594 158.3182373046875 113.1675262451172 162.01336669921875 112.75694274902344 168.9930419921875 111.93582153320313 175.151611328125 110.29351806640624 179.66790771484375 107.83010864257813 181.3101806640625 106.18780517578124 181.3101806640625 106.18780517578124 " />
        <polyline stroke="black" stroke-width="3" stroke-linecap="round" fill="transparent" stroke-linejoin="round" points="173.0987548828125 74.98440551757813 162.01336669921875 89.35440063476563 154.2125244140625 102.90324401855467 146.00106811523438 118.91551208496094 138.61080932617188 133.69607543945313 130.39938354492188 150.118896484375 130.39938354492188 150.118896484375 " />
        <polyline stroke="black" stroke-width="3" stroke-linecap="round" fill="transparent" stroke-linejoin="round" points="156.67596435546875 134.5172119140625 170.22479248046875 133.69607543945313 178.43621826171875 133.69607543945313 190.3427734375 134.10665893554688 191.98504638671875 134.10665893554688 193.21673583984375 134.10665893554688 193.21673583984375 134.10665893554688 " />
        <polyline stroke="black" stroke-width="3" stroke-linecap="round" fill="transparent" stroke-linejoin="round" points="66.35031127929688 201.02972412109375 84.0048828125 196.10284423828125 102.07000732421876 191.176025390625 111.1025390625 188.71258544921875 136.55795288085938 182.9645843505859 149.69622802734375 180.090576171875 161.1922607421875 175.98486328125 166.11907958984375 173.52145385742188 166.11907958984375 173.52145385742188 " />
        <polyline stroke="black" stroke-width="3" stroke-linecap="round" fill="transparent" stroke-linejoin="round" points="127.525390625 170.23687744140625 115.61883544921876 185.83859252929688 111.92367553710938 190.76544189453125 104.53341674804688 202.6719970703125 95.09027099609376 218.68426513671875 86.87887573242188 231.00140380859375 80.30975341796875 240.8551025390625 77.84628295898438 243.31854248046875 77.84628295898438 243.31854248046875 " />
        <polyline stroke="black" stroke-width="3" stroke-linecap="round" fill="transparent" stroke-linejoin="round" points="110.69198608398438 201.44027709960935 127.525390625 205.13543701171875 140.25311279296875 208.83056640625 153.80194091796875 214.16796875 166.11907958984375 220.73712158203125 179.66790771484375 228.94854736328125 185.82647705078125 233.46481323242188 185.82647705078125 233.46481323242188 " />
        </svg>