<?xml version="1.0" standalone="no"?>
    <svg width="256" height="256" xmlns="http://www.w3.org/2000/svg" version="1.1">
    <polyline stroke="black" stroke-width="3" stroke-linecap="round" fill="transparent" stroke-linejoin="round" points="46.722808837890625 43.507118225097656 55.951080322265625 67.5006103515625 57.7967529296875 73.03756713867188 59.18096923828125 79.03594970703125 62.410858154296875 89.64846801757813 65.6407470703125 100.2609405517578 67.02499389648438 104.87507629394533 67.02499389648438 104.87507629394533 " />
        <polyline stroke="black" stroke-width="3" stroke-linecap="round" fill="transparent" stroke-linejoin="round" points="103.47665405273438 45.814178466796875 98.862548828125 62.886474609375 95.17120361328124 71.6533203125 88.25003051757813 82.72724914550781 66.1021728515625 105.79791259765624 53.182586669921875 118.2560577392578 41.18585205078125 127.0229034423828 30.5733642578125 134.86695861816406 26.882049560546875 137.6354217529297 25.959197998046875 138.0968475341797 30.1119384765625 135.78977966308594 43.031524658203125 133.0212860107422 63.333709716796875 129.3300018310547 79.483154296875 124.71585083007813 92.4027099609375 117.33322143554688 98.401123046875 110.87344360351563 103.01522827148438 102.10659790039063 104.86087036132813 95.64680480957033 104.86087036132813 87.80278015136719 104.86087036132813 87.80278015136719 " />
        <polyline stroke="black" stroke-width="3" stroke-linecap="round" fill="transparent" stroke-linejoin="round" points="67.94784545898438 25.973419189453125 68.87063598632813 48.12125396728515 69.79348754882813 74.42179870605469 70.25491333007813 109.02780151367188 70.25491333007813 146.4022674560547 69.79348754882813 182.8539123535156 68.40924072265625 211.0001220703125 67.02499389648438 230.3794860839844 66.5635986328125 236.37786865234375 64.71792602539063 239.14633178710935 63.333709716796875 237.7620849609375 63.333709716796875 237.7620849609375 " />
        <polyline stroke="black" stroke-width="3" stroke-linecap="round" fill="transparent" stroke-linejoin="round" points="55.02825927734375 139.01966857910156 48.5684814453125 163.47454833984375 44.877166748046875 173.1642303466797 40.724456787109375 183.7767639160156 35.187469482421875 195.77349853515625 35.187469482421875 195.77349853515625 " />
        <polyline stroke="black" stroke-width="3" stroke-linecap="round" fill="transparent" stroke-linejoin="round" points="66.5635986328125 167.1658935546875 94.70977783203124 173.6256561279297 103.93807983398438 179.6240234375 110.8592529296875 186.08380126953125 114.55056762695313 193.4664306640625 115.47341918945313 194.85064697265625 115.47341918945313 194.85064697265625 " />
        <polyline stroke="black" stroke-width="3" stroke-linecap="round" fill="transparent" stroke-linejoin="round" points="124.24026489257813 55.042449951171875 147.7723388671875 64.73213195800781 154.23211669921875 73.03756713867188 158.3848876953125 79.95877075195313 162.07611083984375 86.41856384277344 162.53753662109375 87.34136962890625 162.53753662109375 87.34136962890625 " />
        <polyline stroke="black" stroke-width="3" stroke-linecap="round" fill="transparent" stroke-linejoin="round" points="186.992431640625 46.275596618652344 168.07452392578125 77.65168762207031 153.30926513671875 90.57125854492188 140.85110473632813 103.49082946777344 128.8543701171875 116.41043090820313 112.70492553710938 127.94573974609376 108.09075927734376 132.0984649658203 108.09075927734376 132.0984649658203 " />
        <polyline stroke="black" stroke-width="3" stroke-linecap="round" fill="transparent" stroke-linejoin="round" points="121.47177124023438 90.57125854492188 144.54241943359375 88.72561645507813 158.84625244140625 91.0326690673828 174.0728759765625 94.26255798339844 191.14520263671875 101.64518737792967 207.29461669921875 110.41203308105467 217.44573974609375 116.87181091308594 218.83001708984375 120.10171508789063 218.3685302734375 124.25442504882813 218.3685302734375 124.25442504882813 " />
        <polyline stroke="black" stroke-width="3" stroke-linecap="round" fill="transparent" stroke-linejoin="round" points="142.69677734375 136.2511749267578 134.391357421875 169.47293090820313 129.3157958984375 177.77838134765625 124.70166015625 181.9310760498047 122.39462280273438 183.3153381347656 121.93319702148438 183.7767639160156 125.62451171875 181.4696807861328 145.46527099609375 168.0886993408203 154.23211669921875 161.62892150878906 181.45550537109375 142.71096801757813 194.37506103515625 136.71258544921875 202.21905517578125 134.86695861816406 205.448974609375 135.78977966308594 204.987548828125 147.32508850097656 196.220703125 168.55010986328125 183.3011474609375 190.23654174804688 160.69189453125 213.76861572265625 154.23211669921875 217.45989990234375 140.38970947265625 223.919677734375 130.23861694335938 225.76535034179688 130.23861694335938 225.76535034179688 " />
        <polyline stroke="black" stroke-width="3" stroke-linecap="round" fill="transparent" stroke-linejoin="round" points="147.3109130859375 193.9278564453125 165.7674560546875 200.38763427734375 179.60980224609375 207.308837890625 195.2978515625 218.84417724609375 211.90875244140625 229.9180908203125 221.13702392578125 237.3006896972656 224.82830810546875 250.681640625 224.82830810546875 250.681640625 " />
        </svg>