<?xml version="1.0" standalone="no"?>
    <svg width="256" height="256" xmlns="http://www.w3.org/2000/svg" version="1.1">
    <polyline stroke="black" stroke-width="3" stroke-linecap="round" fill="transparent" stroke-linejoin="round" points="63.78448486328125 54.83802795410156 64.31906127929688 74.08354187011719 66.45745849609375 86.37928771972656 69.6650390625 94.39825439453124 76.0802001953125 97.0712432861328 76.0802001953125 97.0712432861328 " />
        <polyline stroke="black" stroke-width="3" stroke-linecap="round" fill="transparent" stroke-linejoin="round" points="138.09353637695313 54.303436279296875 130.60919189453125 62.32240295410156 120.98641967773438 75.68733215332031 101.206298828125 97.0712432861328 80.35699462890625 116.31675720214844 65.38824462890625 128.07791137695313 56.834716796875 133.95848083496094 52.55792236328125 136.6314697265625 57.369293212890625 133.42388916015625 69.13043212890625 129.68170166015625 88.91055297851563 125.40492248535156 110.29446411132813 121.66273498535156 126.3323974609375 117.38595581054688 135.95513916015625 111.50538635253906 135.95513916015625 111.50538635253906 " />
        <polyline stroke="black" stroke-width="3" stroke-linecap="round" fill="transparent" stroke-linejoin="round" points="95.32574462890624 36.12711334228515 92.65274047851563 64.46078491210938 91.0489501953125 96.00204467773438 90.51434326171876 118.45515441894533 90.51434326171876 141.44284057617188 90.51434326171876 161.22296142578125 91.0489501953125 178.86468505859375 89.979736328125 194.36801147460935 88.3759765625 203.99078369140625 86.237548828125 208.8021545410156 85.16839599609375 210.9405517578125 84.09918212890625 205.0599670410156 84.09918212890625 205.0599670410156 " />
        <polyline stroke="black" stroke-width="3" stroke-linecap="round" fill="transparent" stroke-linejoin="round" points="83.5645751953125 141.97744750976563 78.21859741210938 149.9964141845703 70.7342529296875 161.75755310058594 61.646087646484375 175.65708923339844 55.23089599609375 185.27984619140625 52.55792236328125 189.556640625 52.55792236328125 185.814453125 52.55792236328125 185.814453125 " />
        <polyline stroke="black" stroke-width="3" stroke-linecap="round" fill="transparent" stroke-linejoin="round" points="97.99871826171876 131.82008361816406 111.89825439453124 142.5120391845703 119.917236328125 149.9964141845703 126.3323974609375 155.34239196777344 130.60919189453125 157.48077392578125 130.60919189453125 157.48077392578125 " />
        <polyline stroke="black" stroke-width="3" stroke-linecap="round" fill="transparent" stroke-linejoin="round" points="143.43951416015625 60.18400573730469 148.25091552734375 75.15274047851563 153.062255859375 81.03330993652344 157.8736572265625 85.84469604492188 157.8736572265625 85.84469604492188 " />
        <polyline stroke="black" stroke-width="3" stroke-linecap="round" fill="transparent" stroke-linejoin="round" points="190.484130859375 38.2655029296875 185.6727294921875 58.04560852050781 176.04998779296875 84.24090576171875 164.82342529296875 107.22859191894533 152.5277099609375 128.6125030517578 142.37030029296875 142.5120391845703 134.35134887695313 149.46180725097656 127.40158081054688 149.9964141845703 127.40158081054688 149.9964141845703 " />
        <polyline stroke="black" stroke-width="3" stroke-linecap="round" fill="transparent" stroke-linejoin="round" points="130.60919189453125 97.6058349609375 144.50872802734375 99.20964050292967 158.40826416015625 102.41722106933594 180.861328125 107.76319885253906 196.8992919921875 111.50538635253906 210.26422119140625 113.64376831054688 210.26422119140625 113.64376831054688 " />
        <polyline stroke="black" stroke-width="3" stroke-linecap="round" fill="transparent" stroke-linejoin="round" points="171.773193359375 136.6314697265625 161.6158447265625 145.71963500976563 156.804443359375 151.0655975341797 151.9930419921875 156.4115753173828 147.18170166015625 160.6883544921875 143.97412109375 162.82675170898438 142.37030029296875 163.8959503173828 144.50872802734375 162.2921600341797 149.320068359375 158.5499725341797 158.40826416015625 152.13479614257813 169.634765625 145.71963500976563 178.72296142578125 141.97744750976563 184.0689697265625 141.44284057617188 187.8111572265625 142.5120391845703 187.8111572265625 148.39260864257813 181.39593505859375 162.82675170898438 169.634765625 180.46847534179688 158.40826416015625 194.36801147460935 150.3892822265625 202.92156982421875 143.97412109375 207.73294067382813 139.1627197265625 209.871337890625 139.1627197265625 209.871337890625 " />
        <polyline stroke="black" stroke-width="3" stroke-linecap="round" fill="transparent" stroke-linejoin="round" points="146.11248779296875 173.51870727539063 162.15045166015625 178.330078125 174.98077392578125 184.21066284179688 190.484130859375 191.69503784179688 205.9874267578125 200.78317260742188 217.74859619140625 213.07891845703125 217.74859619140625 213.07891845703125 " />
        </svg>