<?xml version="1.0" standalone="no"?>
    <svg width="256" height="256" xmlns="http://www.w3.org/2000/svg" version="1.1">
    <polyline stroke="black" stroke-width="3" stroke-linecap="round" fill="transparent" stroke-linejoin="round" points="52 70 52 72 52 77 52 77 53 86 54 87 54 88 55 91 59 100 62 107 63 110 64 111 64 112 64 112 65 113 66 116 " />
        <polyline stroke="black" stroke-width="3" stroke-linecap="round" fill="transparent" stroke-linejoin="round" points="111 71 110 73 109 75 106 79 105 80 103 83 101 85 96 93 95 94 92 99 90 102 89 104 89 104 88 104 88 104 " />
        <polyline stroke="black" stroke-width="3" stroke-linecap="round" fill="transparent" stroke-linejoin="round" points="35 135 37 134 40 132 47 128 52 126 57 124 60 123 61 123 67 120 74 117 80 115 83 114 85 114 92 111 101 108 103 107 105 107 110 105 110 105 111 106 " />
        <polyline stroke="black" stroke-width="3" stroke-linecap="round" fill="transparent" stroke-linejoin="round" points="82 40 82 41 83 51 84 63 84 67 84 67 85 84 85 91 85 96 85 98 84 122 84 127 84 127 83 150 83 157 83 157 83 176 82 182 82 182 82 183 82 187 83 206 83 212 83 213 83 213 83 215 82 216 82 216 " />
        <polyline stroke="black" stroke-width="3" stroke-linecap="round" fill="transparent" stroke-linejoin="round" points="73 136 72 138 69 144 67 149 64 155 63 156 62 157 56 165 49 173 45 177 40 181 37 183 37 184 36 184 35 185 32 186 " />
        <polyline stroke="black" stroke-width="3" stroke-linecap="round" fill="transparent" stroke-linejoin="round" points="88 125 90 126 93 128 94 129 102 136 104 138 106 139 107 140 109 142 112 145 113 146 114 147 115 148 115 149 116 149 116 149 " />
        <polyline stroke="black" stroke-width="3" stroke-linecap="round" fill="transparent" stroke-linejoin="round" points="144 33 144 34 145 35 146 38 146 40 147 42 147 43 148 46 151 50 152 51 153 53 156 57 157 60 158 60 158 61 159 61 159 62 159 62 " />
        <polyline stroke="black" stroke-width="3" stroke-linecap="round" fill="transparent" stroke-linejoin="round" points="197 39 196 40 196 42 195 44 195 44 194 46 194 46 192 49 191 51 188 56 187 57 177 70 175 73 171 77 170 78 169 79 160 88 146 101 144 103 134 111 118 122 117 122 114 124 108 125 " />
        <polyline stroke="black" stroke-width="3" stroke-linecap="round" fill="transparent" stroke-linejoin="round" points="132 67 132 67 134 70 135 71 136 73 137 74 138 76 143 83 145 85 148 87 161 97 164 100 167 102 175 107 188 114 190 116 194 118 196 119 198 120 201 121 207 124 214 126 218 127 221 128 221 128 " />
        <polyline stroke="black" stroke-width="3" stroke-linecap="round" fill="transparent" stroke-linejoin="round" points="137 127 137 128 137 135 136 142 136 144 135 145 135 146 134 149 131 156 124 166 124 167 123 168 120 171 120 171 118 173 110 179 106 182 105 182 105 182 " />
        <polyline stroke="black" stroke-width="3" stroke-linecap="round" fill="transparent" stroke-linejoin="round" points="147 146 151 146 155 145 164 143 164 142 165 142 167 142 174 139 180 137 183 135 188 133 193 130 193 130 194 130 197 129 197 129 199 129 201 129 202 129 202 130 203 131 203 133 201 137 197 144 196 147 194 150 194 150 193 152 183 166 183 166 178 173 174 177 169 182 165 187 161 190 156 195 145 205 141 209 140 209 138 210 130 216 110 228 106 230 106 230 104 230 101 231 " />
        <polyline stroke="black" stroke-width="3" stroke-linecap="round" fill="transparent" stroke-linejoin="round" points="129 157 130 157 132 157 132 157 133 158 134 158 135 159 138 162 139 163 143 167 149 173 155 179 155 179 157 181 157 181 163 186 178 198 183 202 185 203 200 212 207 216 209 218 211 219 216 221 228 224 " />
        </svg>