<?xml version="1.0" standalone="no"?>
    <svg width="256" height="256" xmlns="http://www.w3.org/2000/svg" version="1.1">
    <polyline stroke="black" stroke-width="3" stroke-linecap="round" fill="transparent" stroke-linejoin="round" points="46.333343505859375 64.60000610351563 48.733367919921875 70.20001220703125 49.800018310546875 72.06668090820313 51.666717529296875 76.06668090820313 53.000030517578125 80.06668090820313 53.533355712890625 82.4666748046875 53.533355712890625 82.73333740234375 53.533355712890625 82.73333740234375 " />
        <polyline stroke="black" stroke-width="3" stroke-linecap="round" fill="transparent" stroke-linejoin="round" points="83.933349609375 60.333343505859375 82.06671142578125 73.13334655761719 77.53335571289063 81.66667175292969 71.66671752929688 92.33335876464844 70.86672973632813 93.40000915527344 70.86672973632813 93.40000915527344 " />
        <polyline stroke="black" stroke-width="3" stroke-linecap="round" fill="transparent" stroke-linejoin="round" points="38.333343505859375 120.06668090820313 45.2667236328125 116.60000610351563 54.866729736328125 113.13336181640624 66.33334350585938 108.60000610351563 85.2667236328125 101.40000915527344 93.80001831054688 98.20001220703124 97.2667236328125 96.60000610351563 97.53335571289063 95.8000030517578 95.933349609375 95.00001525878906 93.2667236328125 95.00001525878906 93.2667236328125 95.00001525878906 " />
        <polyline stroke="black" stroke-width="3" stroke-linecap="round" fill="transparent" stroke-linejoin="round" points="62.866729736328125 53.66668701171875 63.13336181640625 63.26667785644531 64.46673583984375 71.53334045410156 65.80001831054688 83.80000305175781 67.13336181640625 100.33335876464844 68.46673583984375 119.26667785644533 70.86672973632813 146.20001220703125 72.46673583984375 160.86668395996094 74.33334350585938 180.86668395996097 74.86672973632813 192.86666870117188 75.13336181640625 202.4666748046875 75.13336181640625 209.13336181640625 75.13336181640625 213.66668701171875 75.13336181640625 215.80001831054688 74.86672973632813 215.2666931152344 74.33334350585938 212.6000061035156 74.33334350585938 212.6000061035156 " />
        <polyline stroke="black" stroke-width="3" stroke-linecap="round" fill="transparent" stroke-linejoin="round" points="65.80001831054688 127.8000030517578 64.20001220703125 137.40000915527344 62.06671142578125 144.33335876464844 57.533355712890625 156.60000610351563 53.800018310546875 165.13336181640625 50.333343505859375 172.60000610351563 47.933349609375 177.93336486816406 46.60003662109375 181.13336181640625 46.06671142578125 181.13336181640625 46.06671142578125 181.13336181640625 " />
        <polyline stroke="black" stroke-width="3" stroke-linecap="round" fill="transparent" stroke-linejoin="round" points="70.86672973632813 128.60000610351563 79.4000244140625 134.73336791992188 85.53335571289063 137.40000915527344 93.2667236328125 140.60000610351563 96.20001220703124 141.93336486816406 96.20001220703124 141.93336486816406 " />
        <polyline stroke="black" stroke-width="3" stroke-linecap="round" fill="transparent" stroke-linejoin="round" points="149.53338623046875 47.00000762939453 150.86669921875 55 152.20001220703125 56.86668395996094 153.800048828125 57.40000915527344 154.3333740234375 57.40000915527344 154.3333740234375 57.40000915527344 " />
        <polyline stroke="black" stroke-width="3" stroke-linecap="round" fill="transparent" stroke-linejoin="round" points="181 40.86668395996094 177.800048828125 47.53334045410156 172.20001220703125 55.53334045410156 162.60003662109375 70.4666748046875 154.3333740234375 83.26667785644531 144.46673583984375 96.60000610351563 134.86669921875 108.33335876464844 125.2667236328125 119.53335571289063 121.2667236328125 123.00001525878906 118.3333740234375 124.06668090820313 118.3333740234375 123.00001525878906 118.3333740234375 123.00001525878906 " />
        <polyline stroke="black" stroke-width="3" stroke-linecap="round" fill="transparent" stroke-linejoin="round" points="131.933349609375 72.86666870117188 138.60003662109375 77.93333435058594 141.2667236328125 80.06668090820313 147.666748046875 84.86666870117188 155.933349609375 90.4666748046875 169.2667236328125 99.26667785644533 178.3333740234375 105.13336181640624 186.3333740234375 109.40000915527344 193 112.06668090820313 195.66668701171875 112.60000610351563 195.66668701171875 112.60000610351563 " />
        <polyline stroke="black" stroke-width="3" stroke-linecap="round" fill="transparent" stroke-linejoin="round" points="154.3333740234375 131.00001525878906 149.53338623046875 139.53335571289063 144.73333740234375 149.13336181640625 139.4000244140625 157.93336486816406 135.933349609375 163.2666778564453 134.86669921875 164.86668395996094 135.666748046875 162.4666748046875 136.46673583984375 161.13336181640625 136.46673583984375 161.13336181640625 " />
        <polyline stroke="black" stroke-width="3" stroke-linecap="round" fill="transparent" stroke-linejoin="round" points="146.3333740234375 145.13336181640625 153.800048828125 138.73336791992188 158.06671142578125 137.40000915527344 160.73333740234375 137.40000915527344 161.800048828125 139.2666778564453 161.800048828125 143.53335571289063 159.933349609375 149.6666717529297 157.2667236328125 157.6666717529297 152.73333740234375 168.06668090820313 141 188.06668090820313 131.933349609375 200.6000061035156 124.73336791992188 209.4000244140625 120.20001220703124 213.933349609375 117.53335571289063 215.53335571289065 117.53335571289063 214.20001220703125 117.53335571289063 214.20001220703125 " />
        <polyline stroke="black" stroke-width="3" stroke-linecap="round" fill="transparent" stroke-linejoin="round" points="136.73333740234375 161.6666717529297 148.46673583984375 165.13336181640625 156.46673583984375 168.86668395996094 161 171.00001525878906 185.800048828125 179.00001525878906 200.73333740234375 182.20001220703125 208.20001220703125 183.80001831054688 229.00006103515625 187.80001831054688 239.933349609375 189.933349609375 248.20001220703125 191.2666931152344 248.20001220703125 191.2666931152344 " />
        </svg>