<?xml version="1.0" standalone="no"?>
    <svg width="256" height="256" xmlns="http://www.w3.org/2000/svg" version="1.1">
    <polyline stroke="black" stroke-width="3" stroke-linecap="round" fill="transparent" stroke-linejoin="round" points="47.899658203125 100.25871276855467 60.2669677734375 96.28350830078124 72.63427734375 92.75 79.25961303710938 90.98324584960938 92.06857299804688 88.33309936523438 102.2274169921875 85.68296813964844 109.29443359375 83.0328369140625 115.47811889648438 80.38270568847656 116.36151123046876 79.49932861328125 116.36151123046876 79.49932861328125 " />
        <polyline stroke="black" stroke-width="3" stroke-linecap="round" fill="transparent" stroke-linejoin="round" points="82.79315185546875 92.75 76.16778564453125 103.79222106933594 70.86752319335938 118.80963134765624 68.21737670898438 128.08511352539063 64.2421875 147.07774353027344 62.917083740234375 156.79489135742188 62.03375244140625 173.13739013671875 62.917083740234375 186.82974243164065 64.68389892578125 196.105224609375 66.00897216796875 199.197021484375 69.984130859375 204.93899536132813 74.40106201171875 207.1474609375 80.14300537109375 206.70574951171875 88.09335327148438 202.7305603027344 96.04379272460938 194.7801513671875 96.04379272460938 194.7801513671875 " />
        <polyline stroke="black" stroke-width="3" stroke-linecap="round" fill="transparent" stroke-linejoin="round" points="75.284423828125 141.77749633789063 88.09335327148438 139.12734985351563 101.34405517578124 137.36058044433594 113.71136474609376 135.59381103515625 124.31185913085938 133.8270721435547 128.28707885742188 132.94369506835938 131.820556640625 131.61862182617188 131.820556640625 131.61862182617188 " />
        <polyline stroke="black" stroke-width="3" stroke-linecap="round" fill="transparent" stroke-linejoin="round" points="165.388916015625 98.491943359375 176.8729248046875 92.75 182.6148681640625 90.98324584960938 193.21533203125 89.21647644042969 202.0491943359375 90.099853515625 205.5826416015625 91.4249267578125 211.32464599609375 95.84181213378906 216.6248779296875 106.00067138671876 219.71673583984375 124.1099090576172 219.2750244140625 134.71044921875 212.649658203125 165.628662109375 204.69927978515625 183.29623413085935 196.30718994140625 194.7801513671875 192.33197021484375 198.75537109375 192.33197021484375 198.75537109375 " />
        <polyline stroke="black" stroke-width="3" stroke-linecap="round" fill="transparent" stroke-linejoin="round" points="163.1805419921875 151.9363250732422 175.10614013671875 147.51943969726563 180.84808349609375 146.19436645507813 192.33197021484375 143.98590087890625 203.37420654296875 142.2191619873047 207.349365234375 141.77749633789063 208.2327880859375 141.77749633789063 208.2327880859375 141.77749633789063 " />
        <polyline stroke="black" stroke-width="3" stroke-linecap="round" fill="transparent" stroke-linejoin="round" points="145.95465087890625 207.1474609375 160.9720458984375 205.38067626953125 169.3641357421875 203.61392211914065 176.8729248046875 202.28887939453125 183.0565185546875 201.84716796875 189.24017333984375 201.40548706054688 189.24017333984375 201.40548706054688 " />
        </svg>