<?xml version="1.0" standalone="no"?>
    <svg width="256" height="256" xmlns="http://www.w3.org/2000/svg" version="1.1">
    <polyline stroke="black" stroke-width="3" stroke-linecap="round" fill="transparent" stroke-linejoin="round" points="40.74737548828125 134.8857879638672 57.1903076171875 136.7127685546875 69.3702392578125 134.2767791748047 83.98614501953125 130.01380920410156 96.77508544921876 123.92384338378906 107.12799072265624 118.44287109375 113.82696533203124 112.9619140625 118.08993530273438 106.8719482421875 118.69891357421876 98.95498657226563 117.48095703125 88.60205078125 112.60897827148438 81.29409790039063 105.91000366210938 76.422119140625 99.2110595703125 75.20413208007813 93.7301025390625 76.422119140625 88.85809326171875 78.85810852050781 85.20413208007813 83.73008728027344 82.76812744140625 89.82003784179688 79.72314453125 99.56399536132813 76.06918334960938 113.57090759277344 71.80621337890625 128.18682861328125 67.543212890625 140.9757537841797 64.49822998046875 150.71969604492188 63.889251708984375 157.4186553955078 63.889251708984375 162.8996124267578 66.32525634765625 167.77159118652344 69.97921752929688 171.42556762695313 74.2421875 173.2525634765625 80.3321533203125 173.2525634765625 85.8131103515625 172.03456115722656 91.903076171875 167.77159118652344 100.42904663085938 154.982666015625 100.42904663085938 154.982666015625 " />
        <polyline stroke="black" stroke-width="3" stroke-linecap="round" fill="transparent" stroke-linejoin="round" points="100.42904663085938 81.90309143066406 99.2110595703125 94.08302307128906 97.9930419921875 106.26295471191406 96.77508544921876 122.09686279296876 95.55706787109376 138.53976440429688 94.33908081054688 154.982666015625 93.7301025390625 168.38058471679688 93.7301025390625 168.38058471679688 " />
        <polyline stroke="black" stroke-width="3" stroke-linecap="round" fill="transparent" stroke-linejoin="round" points="124.17990112304688 94.08302307128906 133.31484985351563 89.82003784179688 143.66778564453125 83.73008728027344 155.84771728515625 77.03111267089844 169.8546142578125 70.941162109375 181.425537109375 66.67817687988281 188.7335205078125 64.2421875 194.2144775390625 61.80621337890625 194.2144775390625 61.80621337890625 " />
        <polyline stroke="black" stroke-width="3" stroke-linecap="round" fill="transparent" stroke-linejoin="round" points="183.2525634765625 61.80621337890625 174.11761474609375 72.15914916992188 144.88580322265625 117.22488403320313 131.48785400390625 146.4567108154297 119.91693115234376 175.68853759765625 113.21795654296876 197.00341796875 109.56399536132813 211.0103454589844 109.56399536132813 216.4913024902344 113.21795654296876 214.664306640625 113.21795654296876 214.664306640625 " />
        <polyline stroke="black" stroke-width="3" stroke-linecap="round" fill="transparent" stroke-linejoin="round" points="140.0137939453125 158.6366424560547 146.103759765625 150.11068725585938 155.84771728515625 141.58474731445313 167.41864013671875 133.0587921142578 179.59857177734375 128.18682861328125 188.7335205078125 125.141845703125 196.04150390625 124.5328369140625 196.04150390625 124.5328369140625 " />
        <polyline stroke="black" stroke-width="3" stroke-linecap="round" fill="transparent" stroke-linejoin="round" points="135.141845703125 167.16259765625 155.23870849609375 162.29061889648438 171.0726318359375 157.4186553955078 187.5155029296875 153.76467895507813 203.3494873046875 153.15567016601563 216.13836669921875 157.4186553955078 224.0552978515625 165.33560180664063 229.5362548828125 181.1695098876953 228.31829833984375 200.04840087890625 220.4013671875 215.88232421875 211.8753662109375 224.40826416015625 198.47747802734375 229.28024291992188 198.47747802734375 229.28024291992188 " />
        <polyline stroke="black" stroke-width="3" stroke-linecap="round" fill="transparent" stroke-linejoin="round" points="172.2906494140625 149.50169372558594 161.93768310546875 167.16259765625 156.45672607421875 179.95152282714844 151.584716796875 192.1314392089844 147.32177734375 203.0933837890625 147.32177734375 203.0933837890625 " />
        <polyline stroke="black" stroke-width="3" stroke-linecap="round" fill="transparent" stroke-linejoin="round" points="180.81658935546875 176.29754638671875 177.16259765625 190.30447387695313 169.24560546875 203.0933837890625 157.6746826171875 219.53628540039065 145.49478149414063 236.58819580078125 145.49478149414063 236.58819580078125 " />
        </svg>