<?xml version="1.0" standalone="no"?>
    <svg width="256" height="256" xmlns="http://www.w3.org/2000/svg" version="1.1">
    <polyline stroke="black" stroke-width="3" stroke-linecap="round" fill="transparent" stroke-linejoin="round" points="37 82 41 82 47 82 59 82 73 81 89 79 101 78 110 78 115 78 115 78 " />
        <polyline stroke="black" stroke-width="3" stroke-linecap="round" fill="transparent" stroke-linejoin="round" points="65 44 64 49 64 56 61 79 59 104 58 124 58 140 58 149 58 154 61 156 68 158 76 159 84 159 93 159 100 155 102 150 102 150 " />
        <polyline stroke="black" stroke-width="3" stroke-linecap="round" fill="transparent" stroke-linejoin="round" points="98 43 99 48 99 56 99 73 97 94 94 116 94 135 94 149 94 149 " />
        <polyline stroke="black" stroke-width="3" stroke-linecap="round" fill="transparent" stroke-linejoin="round" points="139 58 157 54 170 53 183 52 195 51 205 51 205 51 " />
        <polyline stroke="black" stroke-width="3" stroke-linecap="round" fill="transparent" stroke-linejoin="round" points="149 98 161 94 166 94 176 93 190 92 201 91 211 90 211 90 " />
        <polyline stroke="black" stroke-width="3" stroke-linecap="round" fill="transparent" stroke-linejoin="round" points="145 58 143 65 143 74 140 98 131 128 120 161 111 191 108 210 107 217 107 217 " />
        <polyline stroke="black" stroke-width="3" stroke-linecap="round" fill="transparent" stroke-linejoin="round" points="143 133 149 131 157 131 173 127 191 122 209 120 223 120 230 125 231 142 231 168 223 196 216 215 208 228 199 233 192 234 189 232 189 232 " />
        <polyline stroke="black" stroke-width="3" stroke-linecap="round" fill="transparent" stroke-linejoin="round" points="158 136 155 147 155 163 150 179 145 198 141 210 140 214 140 214 " />
        <polyline stroke="black" stroke-width="3" stroke-linecap="round" fill="transparent" stroke-linejoin="round" points="193 130 192 138 190 161 180 190 168 222 164 237 164 237 " />
        </svg>