<?xml version="1.0" standalone="no"?>
    <svg width="256" height="256" xmlns="http://www.w3.org/2000/svg" version="1.1">
    <polyline stroke="black" stroke-width="3" stroke-linecap="round" fill="transparent" stroke-linejoin="round" points="44.93719482421875 108.66307067871094 56.665130615234375 101.1236572265625 64.6234130859375 96.51625061035156 80.95880126953125 87.3013916015625 95.19989013671876 80.18084716796875 112.37301635742188 73.06028747558594 118.65585327148438 70.54714965820313 120.331298828125 69.70944213867188 120.331298828125 69.70944213867188 " />
        <polyline stroke="black" stroke-width="3" stroke-linecap="round" fill="transparent" stroke-linejoin="round" points="86.40390014648438 94.84080505371094 81.79647827148438 107.82536315917967 80.12109375 114.94590759277344 73.00048828125 149.7109832763672 70.90625 163.1143798828125 70.48739624023438 171.4915008544922 71.74398803710938 175.26121520996094 74.67596435546875 176.0989227294922 83.471923828125 172.3292236328125 93.52450561523438 165.2086639404297 98.13192749023438 159.76353454589844 102.32049560546876 153.48068237304688 102.32049560546876 153.48068237304688 " />
        <polyline stroke="black" stroke-width="3" stroke-linecap="round" fill="transparent" stroke-linejoin="round" points="109.44100952148438 124.99845886230467 111.95416259765624 137.14529418945313 113.210693359375 142.17156982421875 114.88616943359376 147.19784545898438 117.39926147460938 154.3184051513672 120.331298828125 161.02011108398438 121.58786010742188 163.1143798828125 121.58786010742188 163.1143798828125 " />
        <polyline stroke="black" stroke-width="3" stroke-linecap="round" fill="transparent" stroke-linejoin="round" points="151.32666015625 82.6939697265625 155.5152587890625 94.00309753417967 157.190673828125 98.61051940917967 158.44720458984375 102.38021850585938 158.8660888671875 102.799072265625 158.8660888671875 102.799072265625 " />
        <polyline stroke="black" stroke-width="3" stroke-linecap="round" fill="transparent" stroke-linejoin="round" points="196.9820556640625 47.51005554199219 191.95574951171875 59.238037109375 178.55230712890625 86.46368408203125 154.677490234375 134.2133026123047 137.08554077148438 167.7218017578125 128.70843505859375 182.80062866210935 125.77642822265624 187.826904296875 123.68212890625 190.7589111328125 123.68212890625 190.7589111328125 " />
        <polyline stroke="black" stroke-width="3" stroke-linecap="round" fill="transparent" stroke-linejoin="round" points="117.818115234375 133.37559509277344 131.22152709960938 124.99845886230467 138.34213256835938 121.64762878417967 146.30038452148438 118.7156219482422 163.05462646484375 114.52706909179688 180.6466064453125 112.85165405273438 188.6048583984375 112.85165405273438 202.00830078125 114.10821533203124 210.80426025390625 118.2967529296875 217.08709716796875 126.67388916015624 221.275634765625 141.7527313232422 220.01910400390625 159.76353454589844 215.41168212890625 175.26121520996094 209.966552734375 187.826904296875 204.9403076171875 195.3663330078125 200.751708984375 199.9737548828125 196.5631103515625 202.90573120117188 191.536865234375 204.16229248046875 183.57861328125 202.48687744140625 183.57861328125 202.48687744140625 " />
        </svg>