<?xml version="1.0" standalone="no"?>
    <svg width="256" height="256" xmlns="http://www.w3.org/2000/svg" version="1.1">
    <polyline stroke="black" stroke-width="3" stroke-linecap="round" fill="transparent" stroke-linejoin="round" points="32.59063720703125 106.85226440429688 47.2789306640625 96.360595703125 61.1279296875 87.1279296875 75.39657592773438 77.89527893066406 81.69158935546875 73.6986083984375 92.18328857421876 66.56428527832031 100.57659912109376 60.68894958496094 103.51425170898438 59.010284423828125 107.291259765625 56.07261657714844 107.291259765625 56.07261657714844 " />
        <polyline stroke="black" stroke-width="3" stroke-linecap="round" fill="transparent" stroke-linejoin="round" points="66.58358764648438 91.7442626953125 55.67230224609375 135.38958740234375 51.895263671875 158.8909149169922 48.957611083984375 182.39224243164065 48.957611083984375 189.10690307617188 49.796966552734375 190.78558349609375 52.31494140625 189.94622802734375 58.190277099609375 184.91021728515625 67.00326538085938 175.25790405273438 76.65560913085938 161.40890502929688 81.27194213867188 152.17623901367188 85.46859741210938 142.104248046875 85.46859741210938 142.104248046875 " />
        <polyline stroke="black" stroke-width="3" stroke-linecap="round" fill="transparent" stroke-linejoin="round" points="92.18328857421876 110.62925720214844 91.76361083984376 132.03225708007813 92.60296630859376 142.52392578125 97.21923828125 171.06124877929688 100.99627685546876 183.65122985839844 103.93392944335938 189.94622802734375 105.19296264648438 190.78558349609375 105.19296264648438 190.78558349609375 " />
        <polyline stroke="black" stroke-width="3" stroke-linecap="round" fill="transparent" stroke-linejoin="round" points="129.9532470703125 93.00326538085938 136.24822998046875 101.39659118652344 138.3465576171875 103.49493408203124 143.382568359375 105.59326171875 143.382568359375 105.59326171875 " />
        <polyline stroke="black" stroke-width="3" stroke-linecap="round" fill="transparent" stroke-linejoin="round" points="195.8409423828125 37.60729217529297 179.8935546875 61.94795227050781 173.17889404296875 74.1182861328125 166.0445556640625 87.96726989746094 153.45458984375 115.24559020996094 147.9989013671875 129.09458923339844 135.82858276367188 161.82858276367188 129.5335693359375 175.67758178710938 124.917236328125 185.32989501953125 122.39926147460938 189.10690307617188 122.39926147460938 189.10690307617188 " />
        <polyline stroke="black" stroke-width="3" stroke-linecap="round" fill="transparent" stroke-linejoin="round" points="119.04193115234376 132.87158203125 131.63192749023438 126.15692138671876 137.50726318359375 124.05859375 144.221923828125 121.9602508544922 159.3299560546875 119.0225830078125 173.17889404296875 118.18325805664063 185.7689208984375 119.8619384765625 193.3228759765625 124.05859375 200.03753662109375 136.64859008789063 202.1358642578125 159.73025512695313 200.45721435546875 171.06124877929688 194.5819091796875 189.52655029296875 180.313232421875 202.1165771484375 155.97259521484375 196.2412109375 143.80224609375 189.10690307617188 143.80224609375 189.10690307617188 " />
        </svg>