<?xml version="1.0" standalone="no"?>
    <svg width="256" height="256" xmlns="http://www.w3.org/2000/svg" version="1.1">
    <polyline stroke="black" stroke-width="3" stroke-linecap="round" fill="transparent" stroke-linejoin="round" points="49.6649169921875 116.36724853515624 68.64044189453125 113.3066864013672 81.49481201171875 110.85823059082033 95.57342529296876 107.79766845703124 109.65203857421876 102.9007568359375 118.22161865234376 96.77963256835938 123.1185302734375 88.21003723144531 123.1185302734375 88.21003723144531 " />
        <polyline stroke="black" stroke-width="3" stroke-linecap="round" fill="transparent" stroke-linejoin="round" points="80.27059936523438 67.39817810058594 77.8221435546875 77.80410766601563 73.537353515625 95.55540466308594 66.1920166015625 125.5489501953125 61.9072265625 144.52447509765625 58.84661865234375 161.66363525390625 58.84661865234375 173.29379272460938 60.6829833984375 180.02703857421875 66.1920166015625 183.08761596679688 74.14947509765625 181.2512664794922 87.00384521484375 173.90591430664063 101.08245849609376 157.37884521484375 114.5489501953125 132.28219604492188 114.5489501953125 132.28219604492188 " />
        <polyline stroke="black" stroke-width="3" stroke-linecap="round" fill="transparent" stroke-linejoin="round" points="101.08245849609376 67.39817810058594 101.694580078125 79.64045715332031 101.08245849609376 103.51287841796876 100.4703369140625 128.60952758789063 100.4703369140625 146.36080932617188 101.08245849609376 161.05152893066406 101.694580078125 170.2332305908203 103.53091430664063 173.90591430664063 103.53091430664063 173.90591430664063 " />
        <polyline stroke="black" stroke-width="3" stroke-linecap="round" fill="transparent" stroke-linejoin="round" points="126.79119873046876 90.04638671875 136.58502197265625 83.92524719238281 148.82730102539063 77.19200134277344 163.51800537109375 69.84663391113281 178.208740234375 63.72550964355469 188.61468505859375 60.052825927734375 193.5115966796875 57.6043701171875 193.5115966796875 55.155914306640625 193.5115966796875 55.155914306640625 " />
        <polyline stroke="black" stroke-width="3" stroke-linecap="round" fill="transparent" stroke-linejoin="round" points="136.58502197265625 97.39173889160156 128.6275634765625 121.87628173828124 123.1185302734375 144.52447509765625 118.833740234375 162.2757568359375 114.5489501953125 178.19070434570313 111.4884033203125 189.208740234375 108.42782592773438 195.32986450195313 108.42782592773438 196.5541076660156 108.42782592773438 196.5541076660156 " />
        <polyline stroke="black" stroke-width="3" stroke-linecap="round" fill="transparent" stroke-linejoin="round" points="137.1971435546875 126.16107177734376 148.82730102539063 120.6520538330078 161.069580078125 115.75514221191406 172.087646484375 111.47035217285156 183.10565185546875 108.40977478027344 190.4510498046875 105.96133422851563 193.5115966796875 105.96133422851563 193.5115966796875 105.96133422851563 " />
        <polyline stroke="black" stroke-width="3" stroke-linecap="round" fill="transparent" stroke-linejoin="round" points="139.64559936523438 150.64559936523438 151.88787841796875 148.1971435546875 165.96649169921875 145.13658142089844 181.88140869140625 142.68812561035156 195.347900390625 143.912353515625 205.1417236328125 148.80926513671875 210.6507568359375 160.43942260742188 212.487060546875 179.41493225097656 208.814453125 200.22677612304688 202.6932373046875 214.91751098632813 196.5721435546875 222.87496948242188 188.0025634765625 227.7718811035156 178.208740234375 226.54766845703125 178.208740234375 226.54766845703125 " />
        <polyline stroke="black" stroke-width="3" stroke-linecap="round" fill="transparent" stroke-linejoin="round" points="155.560546875 154.3182830810547 145.7667236328125 173.29379272460938 137.1971435546875 188.59661865234375 128.6275634765625 202.67523193359375 123.73065185546876 210.0205993652344 121.89431762695313 211.85693359375 124.3427734375 208.79635620117188 124.3427734375 208.79635620117188 " />
        <polyline stroke="black" stroke-width="3" stroke-linecap="round" fill="transparent" stroke-linejoin="round" points="184.9420166015625 151.8698272705078 175.148193359375 174.5180206298828 165.3543701171875 192.88140869140625 155.560546875 210.6327209472656 145.7667236328125 226.54766845703125 145.7667236328125 226.54766845703125 " />
        </svg>