<?xml version="1.0" standalone="no"?>
    <svg width="256" height="256" xmlns="http://www.w3.org/2000/svg" version="1.1">
    <polyline stroke="black" stroke-width="3" stroke-linecap="round" fill="transparent" stroke-linejoin="round" points="40.5257568359375 118.81570434570313 54.6043701171875 118.20359802246094 67.458740234375 117.59147644042967 82.14947509765625 115.1430206298828 97.45230102539063 111.47035217285156 107.85821533203124 108.40977478027344 114.59149169921876 103.51287841796876 114.59149169921876 103.51287841796876 " />
        <polyline stroke="black" stroke-width="3" stroke-linecap="round" fill="transparent" stroke-linejoin="round" points="63.78607177734375 77.19200134277344 59.50128173828125 99.84019470214844 55.82861328125 131.05796813964844 53.99224853515625 149.42137145996094 52.155914306640625 165.9484405517578 52.155914306640625 178.19070434570313 52.155914306640625 184.31182861328125 54.6043701171875 187.98452758789065 57.6649169921875 187.98452758789065 63.1739501953125 184.31182861328125 69.29510498046875 177.57858276367188 79.08892822265625 163.49998474121094 79.08892822265625 163.49998474121094 " />
        <polyline stroke="black" stroke-width="3" stroke-linecap="round" fill="transparent" stroke-linejoin="round" points="86.43426513671875 77.19200134277344 83.37371826171875 91.27059936523438 81.537353515625 104.7371063232422 80.92523193359375 121.26416015625 81.537353515625 139.6275634765625 82.7615966796875 154.93038940429688 83.98580932617188 167.17266845703125 86.43426513671875 173.90591430664063 86.43426513671875 173.90591430664063 " />
        <polyline stroke="black" stroke-width="3" stroke-linecap="round" fill="transparent" stroke-linejoin="round" points="93.77963256835938 83.31312561035156 102.96133422851563 79.02833557128906 117.0399169921875 73.51931762695313 132.3427734375 67.39817810058594 147.64559936523438 61.88916015625 161.7242431640625 56.99226379394531 171.51800537109375 53.319580078125 178.25128173828125 49.64689636230469 178.25128173828125 49.64689636230469 " />
        <polyline stroke="black" stroke-width="3" stroke-linecap="round" fill="transparent" stroke-linejoin="round" points="126.22161865234376 63.11338806152344 121.32470703125 74.13143920898438 114.59149169921876 93.71905517578124 101.73712158203124 139.01544189453125 95.615966796875 168.3968963623047 91.94329833984376 187.98452758789065 90.10693359375 199.61468505859375 89.49481201171875 205.73580932617188 89.49481201171875 205.73580932617188 " />
        <polyline stroke="black" stroke-width="3" stroke-linecap="round" fill="transparent" stroke-linejoin="round" points="122.5489501953125 98.615966796875 140.912353515625 92.4948272705078 159.2757568359375 87.59793090820313 173.96649169921875 83.92524719238281 185.59661865234375 82.08891296386719 193.5540771484375 82.08891296386719 193.5540771484375 82.08891296386719 " />
        <polyline stroke="black" stroke-width="3" stroke-linecap="round" fill="transparent" stroke-linejoin="round" points="106.63400268554688 151.25772094726563 128.0579833984375 147.5850372314453 156.8272705078125 140.85179138183594 175.190673828125 137.17910766601563 193.5540771484375 136.56700134277344 207.0206298828125 140.2396697998047 213.75384521484375 147.5850372314453 217.426513671875 163.49998474121094 214.365966796875 186.14816284179688 206.408447265625 203.287353515625 197.226806640625 214.30538940429688 181.9239501953125 221.6507568359375 181.9239501953125 221.6507568359375 " />
        <polyline stroke="black" stroke-width="3" stroke-linecap="round" fill="transparent" stroke-linejoin="round" points="129.89431762695313 145.13658142089844 128.67010498046875 156.76673889160156 124.99740600585938 174.5180206298828 121.32470703125 189.208740234375 118.87628173828124 198.39044189453125 117.65203857421876 203.287353515625 117.65203857421876 203.287353515625 " />
        <polyline stroke="black" stroke-width="3" stroke-linecap="round" fill="transparent" stroke-linejoin="round" points="166.62109375 152.48194885253906 164.17266845703125 164.11209106445313 160.5 175.74224853515625 156.2152099609375 187.37240600585935 151.31829833984375 196.5541076660156 151.31829833984375 196.5541076660156 " />
        </svg>