<?xml version="1.0" standalone="no"?>
    <svg width="256" height="256" xmlns="http://www.w3.org/2000/svg" version="1.1">
    <polyline stroke="black" stroke-width="3" stroke-linecap="round" fill="transparent" stroke-linejoin="round" points="104 72 105 71 106 70 107 71 106 76 103 85 98 98 94 113 89 128 85 141 82 154 79 166 76 180 74 187 73 192 72 195 72 196 " />
        <polyline stroke="black" stroke-width="3" stroke-linecap="round" fill="transparent" stroke-linejoin="round" points="78 112 80 110 83 105 87 102 90 98 95 95 99 93 104 90 109 87 118 84 123 82 129 81 134 81 138 83 142 86 145 90 147 97 149 105 150 120 150 130 150 140 150 149 151 157 152 165 153 171 154 177 156 182 158 188 160 190 162 192 163 193 166 193 170 191 174 185 178 178 181 170 183 166 183 162 " />
        <polyline stroke="black" stroke-width="3" stroke-linecap="round" fill="transparent" stroke-linejoin="round" points="98 122 97 121 96 121 97 120 99 120 102 119 107 119 111 118 116 118 121 117 125 117 131 117 132 117 133 118 134 120 " />
        <polyline stroke="black" stroke-width="3" stroke-linecap="round" fill="transparent" stroke-linejoin="round" points="98 156 98 156 97 158 97 158 99 159 102 159 106 159 110 158 115 157 121 156 127 153 136 147 139 145 141 142 144 139 " />
        <polyline stroke="black" stroke-width="3" stroke-linecap="round" fill="transparent" stroke-linejoin="round" points="134 60 133 60 132 62 131 67 128 75 126 85 124 97 122 111 120 125 117 146 116 159 115 171 114 182 113 192 113 201 114 208 115 211 " />
        </svg>