<?xml version="1.0" standalone="no"?>
    <svg width="256" height="256" xmlns="http://www.w3.org/2000/svg" version="1.1">
    <polyline stroke="black" stroke-width="3" stroke-linecap="round" fill="transparent" stroke-linejoin="round" points="68.42788696289063 72.3741455078125 86.78564453125 66.55513000488281 105.14340209960938 60.736114501953125 114.40023803710938 58.995269775390625 142.40570068359375 57.170989990234375 147.89791870117188 57.29222106933594 166.68194580078125 56.931640625 168.580810546875 56.9742431640625 169.748046875 56.72474670410156 169.8570556640625 56.701446533203125 " />
        <polyline stroke="black" stroke-width="3" stroke-linecap="round" fill="transparent" stroke-linejoin="round" points="117.84878540039063 47.08393859863281 114.861328125 62.30818176269531 111.87387084960938 77.53242492675781 102.44223022460938 121.09567260742188 97.03878784179688 142.1865234375 85.28509521484375 175.0072021484375 80.255615234375 185.16461181640625 70.381591796875 195.97427368164065 69.9075927734375 196.365234375 " />
        <polyline stroke="black" stroke-width="3" stroke-linecap="round" fill="transparent" stroke-linejoin="round" points="122.2576904296875 105.34515380859371 128.68124389648438 110.69805908203124 135.10479736328125 116.05096435546876 152.2967529296875 126.2002410888672 161.44580078125 133.81304931640625 180.398681640625 151.60227966308594 197.0411376953125 167.3966522216797 203.65545654296875 172.05984497070313 213.91259765625 176.941162109375 215.94189453125 176.95164489746094 216.1590576171875 176.9527587890625 216.16302490234375 176.95278930664063 " />
        <polyline stroke="black" stroke-width="3" stroke-linecap="round" fill="transparent" stroke-linejoin="round" points="170.027099609375 107.13528442382813 168.00555419921875 116.75369262695313 165.9840087890625 126.37210083007813 152.360107421875 146.99514770507813 145.80355834960938 157.93614196777344 137.48153686523438 173.85916137695313 136.98785400390625 174.7527313232422 " />
        </svg>