<?xml version="1.0" standalone="no"?>
    <svg width="256" height="256" xmlns="http://www.w3.org/2000/svg" version="1.1">
    <polyline stroke="black" stroke-width="3" stroke-linecap="round" fill="transparent" stroke-linejoin="round" points="36.66827392578125 143.84439086914063 43.76171875 139.11544799804688 50.85516357421875 134.38650512695313 59.975250244140625 129.65756225585938 69.77093505859375 125.26638793945313 79.56655883789063 121.21299743652344 88.34890747070313 117.49740600585938 95.44229125976563 114.11959838867188 101.52239990234376 111.07955932617188 106.2513427734375 108.71507263183594 109.96694946289063 106.68838500976563 113.0069580078125 104.9994659423828 114.6959228515625 103.64834594726563 116.04702758789063 102.63499450683594 117.06033325195313 101.95945739746094 117.39813232421876 101.62165832519533 117.39813232421876 101.28387451171876 117.06033325195313 100.94610595703124 116.72256469726563 100.94610595703124 116.72256469726563 100.94610595703124 " />
        <polyline stroke="black" stroke-width="3" stroke-linecap="round" fill="transparent" stroke-linejoin="round" points="97.46902465820313 73.92356872558594 97.46902465820313 80.34141540527344 97.46902465820313 86.75926208496094 96.79345703125 94.86604309082033 95.78012084960938 103.64834594726563 94.428955078125 112.0928955078125 92.40228271484376 120.87522888183594 90.03781127929688 130.67091369628906 87.33554077148438 139.791015625 84.63330078125 147.2222137451172 81.93106079101563 153.97784423828125 78.89105224609375 160.3956756591797 75.85098266601563 166.4757843017578 73.14871215820313 171.54251098632813 70.44647216796875 175.9336700439453 68.08200073242188 179.64927673339844 65.71749877929688 182.68930053710935 63.69085693359375 185.05377197265625 62.001922607421875 187.0804748535156 59.975250244140625 189.4449462890625 58.28631591796875 190.79605102539065 58.28631591796875 190.79605102539065 " />
        <polyline stroke="black" stroke-width="3" stroke-linecap="round" fill="transparent" stroke-linejoin="round" points="89.69998168945313 152.9644775390625 97.8067626953125 155.32896423339844 105.91354370117188 157.69345092773438 115.709228515625 161.40902709960938 126.51824951171876 166.13796997070313 138.0028076171875 171.88026428222656 148.81182861328125 177.62255859375 159.95867919921875 183.02706909179688 170.0921630859375 187.75604248046875 178.8743896484375 191.80941772460935 185.29229736328125 195.18722534179688 191.03460693359375 198.22723388671875 195.42572021484375 200.59173583984375 198.80352783203125 202.2806701660156 201.50579833984375 203.63177490234375 203.53253173828125 204.6451110839844 204.88360595703125 205.3206787109375 205.89697265625 205.99624633789065 206.572509765625 206.33401489257813 207.24810791015625 206.67181396484375 207.24810791015625 206.67181396484375 " />
        <polyline stroke="black" stroke-width="3" stroke-linecap="round" fill="transparent" stroke-linejoin="round" points="164.3497314453125 140.80433654785156 159.620849609375 148.91110229492188 154.8919677734375 157.0178680419922 149.149658203125 167.4891357421875 142.39401245117188 177.2847900390625 132.93609619140625 190.1204833984375 132.93609619140625 190.1204833984375 " />
        </svg>