<?xml version="1.0" standalone="no"?>
    <svg width="256" height="256" xmlns="http://www.w3.org/2000/svg" version="1.1">
    <polyline stroke="black" stroke-width="3" stroke-linecap="round" fill="transparent" stroke-linejoin="round" points="73.063232421875 96.18893432617188 95.03768920898438 90.69534301757813 109.828125 87.73722839355469 125.04119873046876 86.04689025878906 138.56393432617188 84.35655212402344 151.24151611328125 82.66619873046875 162.65130615234375 79.70809936523438 173.6385498046875 73.79191589355469 173.6385498046875 73.79191589355469 " />
        <polyline stroke="black" stroke-width="3" stroke-linecap="round" fill="transparent" stroke-linejoin="round" points="118.27987670898438 52.24006652832031 113.63143920898438 66.60797119140625 110.67333984375 75.05966186523438 107.7152099609375 83.51138305664063 104.33456420898438 94.49859619140624 94.61508178710938 122.8118133544922 81.9375 155.77346801757813 72.21807861328125 179.438232421875 68.414794921875 188.735107421875 60.80828857421875 206.06109619140625 60.80828857421875 206.06109619140625 " />
        <polyline stroke="black" stroke-width="3" stroke-linecap="round" fill="transparent" stroke-linejoin="round" points="101.79904174804688 111.8245849609375 117.0120849609375 127.03765869140624 125.46380615234376 135.91195678710938 134.76068115234375 146.0540008544922 144.9027099609375 156.19602966308594 155.88995361328125 166.7606658935547 177.4417724609375 185.77700805664065 194.34521484375 200.1448974609375 207.867919921875 210.70953369140625 207.867919921875 210.70953369140625 " />
        <polyline stroke="black" stroke-width="3" stroke-linecap="round" fill="transparent" stroke-linejoin="round" points="197.72589111328125 113.09234619140624 170.2578125 135.48936462402344 161.383544921875 143.09588623046875 143.21237182617188 159.57672119140625 110.250732421875 194.22869873046875 110.250732421875 194.22869873046875 " />
        </svg>