<?xml version="1.0" standalone="no"?>
    <svg width="256" height="256" xmlns="http://www.w3.org/2000/svg" version="1.1">
    <polyline stroke="black" stroke-width="3" stroke-linecap="round" fill="transparent" stroke-linejoin="round" points="74 115 82.5 112 91 109 100.5 105.5 109 102 119 97 124.5 94 129 91 131.5 89.5 132.5 87.5 132 87 132 87 " />
        <polyline stroke="black" stroke-width="3" stroke-linecap="round" fill="transparent" stroke-linejoin="round" points="104.5 81 104 92 103.5 103 101.5 115 98.5 127.5 95.5 139.5 89.5 156.5 84 167.5 78 178 72.5 187 70 190 62.5 196 62.5 196 " />
        <polyline stroke="black" stroke-width="3" stroke-linecap="round" fill="transparent" stroke-linejoin="round" points="118.5 145.5 119.5 146 120.5 146.5 125 149 130 152.5 135 156 140.5 160.5 150 168 156.5 172.5 162 177 167.5 181.5 173.5 185.5 179 189 186.5 193 191 195 195 197 199.5 198 200 198 202.5 198 202.5 198 " />
        <polyline stroke="black" stroke-width="3" stroke-linecap="round" fill="transparent" stroke-linejoin="round" points="169 125.5 162 140 155 154.5 145 173.5 142.5 178 132.5 195 132.5 195 " />
        </svg>