<?xml version="1.0" standalone="no"?>
    <svg width="256" height="256" xmlns="http://www.w3.org/2000/svg" version="1.1">
    <polyline stroke="black" stroke-width="3" stroke-linecap="round" fill="transparent" stroke-linejoin="round" points="39.536712646484375 111.27507019042967 48.139404296875 109.7789306640625 57.116180419921875 108.28280639648438 76.93978881835938 105.29055786132813 113.59481811523438 89.58126831054688 121.075439453125 80.97857666015625 121.075439453125 80.97857666015625 " />
        <polyline stroke="black" stroke-width="3" stroke-linecap="round" fill="transparent" stroke-linejoin="round" points="79.55804443359375 86.96305847167969 65.7188720703125 125.48822021484376 60.1083984375 142.31961059570313 47.765380859375 182.71490478515625 44.02508544921875 193.56182861328125 43.27703857421875 196.18002319335935 43.27703857421875 196.18002319335935 " />
        <polyline stroke="black" stroke-width="3" stroke-linecap="round" fill="transparent" stroke-linejoin="round" points="88.16073608398438 156.5327606201172 101.62582397460938 169.24981689453125 112.84677124023438 180.47073364257813 120.70138549804688 187.57733154296875 127.05990600585938 191.317626953125 130.80023193359375 190.943603515625 130.80023193359375 190.943603515625 " />
        <polyline stroke="black" stroke-width="3" stroke-linecap="round" fill="transparent" stroke-linejoin="round" points="173.065673828125 43.94952392578125 171.943603515625 51.05610656738281 170.07342529296875 59.2847900390625 161.84478759765625 80.60453796386719 157.35638427734375 89.20724487304688 157.35638427734375 89.20724487304688 " />
        <polyline stroke="black" stroke-width="3" stroke-linecap="round" fill="transparent" stroke-linejoin="round" points="139.40292358398438 103.79443359375 151.7459716796875 97.0618896484375 165.2110595703125 90.32933044433594 178.6761474609375 83.97080993652344 190.6451416015625 78.73439025878906 201.4920654296875 74.62004089355469 217.94940185546875 70.13168334960938 224.68194580078125 69.00958251953125 224.68194580078125 69.00958251953125 " />
        <polyline stroke="black" stroke-width="3" stroke-linecap="round" fill="transparent" stroke-linejoin="round" points="153.9901123046875 116.88552856445313 167.08123779296875 112.39715576171876 167.08123779296875 112.39715576171876 " />
        <polyline stroke="black" stroke-width="3" stroke-linecap="round" fill="transparent" stroke-linejoin="round" points="228.0482177734375 106.0386199951172 199.99591064453125 128.8544921875 169.69940185546875 149.8002166748047 142.02117919921875 168.8757781982422 133.79248046875 174.4862518310547 130.05218505859375 177.85252380371094 130.80023193359375 178.60057067871094 144.26531982421875 174.8602752685547 155.48626708984375 170.74594116210938 179.79827880859375 159.8990478515625 211.96490478515625 141.945556640625 226.1781005859375 129.228515625 226.1781005859375 129.228515625 " />
        <polyline stroke="black" stroke-width="3" stroke-linecap="round" fill="transparent" stroke-linejoin="round" points="179.79827880859375 104.91653442382813 173.439697265625 116.137451171875 158.1044921875 151.67037963867188 150.99789428710938 172.24205017089844 145.76144409179688 189.44747924804688 144.26531982421875 195.43197631835935 142.76922607421875 203.66064453125 142.39520263671875 206.27886962890625 142.39520263671875 206.27886962890625 " />
        <polyline stroke="black" stroke-width="3" stroke-linecap="round" fill="transparent" stroke-linejoin="round" points="182.79052734375 171.49400329589844 188.7750244140625 176.35638427734375 195.13348388671875 181.5928192138672 202.2401123046875 188.32537841796875 219.445556640625 207.77496337890625 227.6741943359375 220.86605834960935 227.6741943359375 220.86605834960935 " />
        </svg>