<?xml version="1.0" standalone="no"?>
    <svg width="256" height="256" xmlns="http://www.w3.org/2000/svg" version="1.1">
    <polyline stroke="black" stroke-width="3" stroke-linecap="round" fill="transparent" stroke-linejoin="round" points="46.7098388671875 124.347412109375 51.990020751953125 123.02734375 79.38104248046875 114.447021484375 84.99127197265625 111.1469268798828 99.18179321289063 99.5964813232422 102.81195068359376 93.32624816894533 102.81195068359376 93.32624816894533 102.81195068359376 93.32624816894533 " />
        <polyline stroke="black" stroke-width="3" stroke-linecap="round" fill="transparent" stroke-linejoin="round" points="71.790771484375 81.44580078125 70.14071655273438 90.35612487792967 60.57037353515625 142.82809448242188 58.59027099609375 153.0584716796875 51.329986572265625 178.79945373535156 47.699859619140625 189.02984619140625 45.71978759765625 191.99993896484375 45.71978759765625 191.99993896484375 45.71978759765625 191.99993896484375 " />
        <polyline stroke="black" stroke-width="3" stroke-linecap="round" fill="transparent" stroke-linejoin="round" points="70.80072021484375 140.8480224609375 74.43084716796875 143.81814575195313 93.2415771484375 158.66868591308594 96.87173461914063 160.978759765625 105.4520263671875 163.9488983154297 105.4520263671875 163.9488983154297 105.4520263671875 163.9488983154297 " />
        <polyline stroke="black" stroke-width="3" stroke-linecap="round" fill="transparent" stroke-linejoin="round" points="155.94390869140625 61.315032958984375 153.6337890625 68.24530029296875 139.7733154296875 89.3660888671875 139.7733154296875 89.3660888671875 " />
        <polyline stroke="black" stroke-width="3" stroke-linecap="round" fill="transparent" stroke-linejoin="round" points="120.962646484375 87.38601684570313 127.5628662109375 85.075927734375 163.8642578125 74.18551635742188 171.12451171875 72.865478515625 190.26519775390625 71.21540832519531 190.26519775390625 71.21540832519531 190.26519775390625 71.21540832519531 " />
        <polyline stroke="black" stroke-width="3" stroke-linecap="round" fill="transparent" stroke-linejoin="round" points="131.19302368164063 124.67741394042967 132.18304443359375 128.9675750732422 133.83309936523438 129.297607421875 137.79324340820313 129.297607421875 137.79324340820313 129.297607421875 " />
        <polyline stroke="black" stroke-width="3" stroke-linecap="round" fill="transparent" stroke-linejoin="round" points="185.31500244140625 108.50680541992188 178.05474853515625 115.4370574951172 124.26275634765624 145.46820068359375 109.08218383789063 151.0784149169922 108.09213256835938 151.40841674804688 107.43209838867188 151.40841674804688 112.7122802734375 150.08836364746094 132.18304443359375 144.4781494140625 155.283935546875 137.87791442871094 179.704833984375 130.94764709472656 200.16558837890625 124.67741394042967 200.16558837890625 124.67741394042967 200.16558837890625 124.67741394042967 " />
        <polyline stroke="black" stroke-width="3" stroke-linecap="round" fill="transparent" stroke-linejoin="round" points="157.26397705078125 94.97630310058594 153.9638671875 102.236572265625 142.0833740234375 149.09832763671875 139.7733154296875 159.65872192382813 132.5130615234375 190.01986694335935 125.582763671875 214.1107482910156 121.29263305664063 227.64126586914065 119.31256103515624 233.9115295410156 119.31256103515624 233.9115295410156 119.31256103515624 233.9115295410156 " />
        <polyline stroke="black" stroke-width="3" stroke-linecap="round" fill="transparent" stroke-linejoin="round" points="153.9638671875 165.928955078125 158.9140625 169.55908203125 183.66497802734375 189.35986328125 187.6251220703125 193.32000732421875 195.54541015625 201.5703125 195.54541015625 201.5703125 195.54541015625 201.5703125 " />
        </svg>