<?xml version="1.0" standalone="no"?>
    <svg width="256" height="256" xmlns="http://www.w3.org/2000/svg" version="1.1">
    <polyline stroke="black" stroke-width="3" stroke-linecap="round" fill="transparent" stroke-linejoin="round" points="96 98 101 117 101 137 94 170 90 187 89 198 89 201 89 199 89 199 " />
        <polyline stroke="black" stroke-width="3" stroke-linecap="round" fill="transparent" stroke-linejoin="round" points="122 94 126 111 129 125 130 140 130 154 130 169 130 171 131 169 131 169 " />
        <polyline stroke="black" stroke-width="3" stroke-linecap="round" fill="transparent" stroke-linejoin="round" points="169 77 171 91 172 107 172 125 173 144 174 160 174 174 174 184 174 192 174 193 174 192 174 192 " />
        <polyline stroke="black" stroke-width="3" stroke-linecap="round" fill="transparent" stroke-linejoin="round" points="79 138 98 131 111 127 126 122 143 119 159 116 171 114 178 114 176 114 176 114 " />
        <polyline stroke="black" stroke-width="3" stroke-linecap="round" fill="transparent" stroke-linejoin="round" points="67 176 87 172 95 170 126 163 152 159 179 156 210 155 219 155 219 157 217 158 217 158 " />
        </svg>