<?xml version="1.0" standalone="no"?>
    <svg width="256" height="256" xmlns="http://www.w3.org/2000/svg" version="1.1">
    <polyline stroke="black" stroke-width="3" stroke-linecap="round" fill="transparent" stroke-linejoin="round" points="73.80487060546875 90.95266723632813 81.93218994140625 87.70175170898438 90.05950927734375 84.45083618164063 98.99957275390624 80.79351806640625 109.15869140625 76.72987365722656 129.88336181640625 69.8216552734375 139.6361083984375 66.97709655761719 162.79901123046875 61.2879638671875 171.3326416015625 59.256134033203125 174.98992919921875 58.03704833984375 175.3963623046875 57.63067626953125 175.3963623046875 57.63067626953125 " />
        <polyline stroke="black" stroke-width="3" stroke-linecap="round" fill="transparent" stroke-linejoin="round" points="109.1587219238281 104.76913452148438 105.90777587890624 115.74099731445313 102.65682983398438 126.71286010742188 98.99957275390624 139.31021118164063 90.87225341796876 164.0985107421875 85.18310546875 184.82318115234375 81.52581787109375 201.07778930664065 79.49398803710938 210.4241943359375 78.27490234375 214.08148193359375 78.27490234375 213.67514038085935 78.27490234375 213.67514038085935 " />
        <polyline stroke="black" stroke-width="3" stroke-linecap="round" fill="transparent" stroke-linejoin="round" points="113.22235107421876 123.05560302734375 117.2860107421875 119.80465698242188 121.34967041015624 116.5537109375 125.413330078125 113.70916748046876 129.88336181640625 110.45823669433594 139.229736328125 104.76910400390624 143.69979858398438 102.33091735839844 148.1697998046875 100.29910278320313 156.297119140625 97.86090087890624 163.205322265625 97.86090087890624 169.70721435546875 102.33091735839844 178.24090576171875 120.21099853515624 183.1173095703125 146.62478637695313 183.9300537109375 170.19400024414063 182.3045654296875 185.22952270507813 178.647216796875 194.9822998046875 173.7708740234375 200.26507568359375 163.6116943359375 203.92236328125 154.26531982421875 204.735107421875 154.26531982421875 204.735107421875 " />
        <polyline stroke="black" stroke-width="3" stroke-linecap="round" fill="transparent" stroke-linejoin="round" points="41.7020263671875 148.65658569335938 51.45477294921875 147.4375 61.20751953125 146.21841430664063 87.62130737304688 143.37384033203125 118.0987548828125 140.1229248046875 149.388916015625 137.2783660888672 164.4244384765625 136.46563720703125 192.46368408203125 135.65292358398438 222.12835693359375 136.05926513671875 233.10028076171875 137.2783660888672 233.10028076171875 137.2783660888672 " />
        </svg>