<?xml version="1.0" standalone="no"?>
    <svg width="256" height="256" xmlns="http://www.w3.org/2000/svg" version="1.1">
    <polyline stroke="black" stroke-width="3" stroke-linecap="round" fill="transparent" stroke-linejoin="round" points="54.4007568359375 88.14584350585938 65.0299072265625 82.47695922851563 75.6590576171875 76.80807495117188 87.35113525390625 71.84780883789063 99.04318237304688 66.53323364257813 121.3643798828125 58.738525390625 130.93063354492188 55.904075622558594 152.18890380859375 51.29811096191406 156.794921875 50.23519134521485 162.1094970703125 49.880889892578125 163.5267333984375 49.880889892578125 163.5267333984375 49.880889892578125 " />
        <polyline stroke="black" stroke-width="3" stroke-linecap="round" fill="transparent" stroke-linejoin="round" points="93.72866821289063 81.76837158203125 88.05975341796875 113.65579223632813 82.39083862304688 145.543212890625 80.2650146484375 161.13262939453125 77.07626342773438 185.22537231445313 76.01336669921875 193.3743896484375 74.950439453125 199.3975830078125 74.950439453125 200.46047973632813 74.950439453125 200.10617065429688 74.950439453125 200.10617065429688 " />
        <polyline stroke="black" stroke-width="3" stroke-linecap="round" fill="transparent" stroke-linejoin="round" points="107.54647827148438 93.46038818359376 114.27828979492188 93.46038818359376 121.01010131835938 93.46038818359376 127.74188232421876 94.16902160644533 134.47369384765625 95.5862274169922 147.937255859375 100.90080261230467 158.21209716796875 109.7584228515625 168.1326904296875 131.72532653808594 172.7386474609375 163.61277770996094 171.67572021484375 183.8081512451172 167.06976318359375 196.20883178710935 157.8577880859375 201.16909790039065 134.47369384765625 201.16909790039065 118.17562866210938 198.68896484375 118.17562866210938 198.68896484375 " />
        <polyline stroke="black" stroke-width="3" stroke-linecap="round" fill="transparent" stroke-linejoin="round" points="32.788116455078125 154.75515747070313 47.6689453125 147.66905212402344 62.549774169921875 140.58294677734375 79.20211791992188 134.20547485351563 112.15243530273438 123.93063354492188 126.678955078125 121.09617614746094 154.6690673828125 119.32464599609376 180.17901611328125 120.74186706542967 203.91741943359375 125.34783935546876 203.91741943359375 125.34783935546876 " />
        </svg>