<?xml version="1.0" standalone="no"?>
    <svg width="256" height="256" xmlns="http://www.w3.org/2000/svg" version="1.1">
    <polyline stroke="black" stroke-width="3" stroke-linecap="round" fill="transparent" stroke-linejoin="round" points="67.82479858398438 87.15106201171875 90.81332397460938 76.98307800292969 105.84423828125 71.2359619140625 120.43307495117188 65.930908203125 135.90609741210938 60.625885009765625 176.57806396484375 50.01580810546875 184.53558349609375 49.13163757324219 193.3773193359375 51.342063903808594 193.81939697265625 53.994590759277344 192.93524169921875 57.531280517578125 192.93524169921875 57.531280517578125 " />
        <polyline stroke="black" stroke-width="3" stroke-linecap="round" fill="transparent" stroke-linejoin="round" points="104.07589721679688 105.27659606933594 99.212890625 120.30752563476563 96.11834716796876 130.4755096435547 92.58163452148438 142.41184997558594 84.62408447265625 167.6107635498047 77.10861206054688 187.504638671875 70.91940307617188 202.9776611328125 66.05645751953125 212.70355224609375 66.05645751953125 212.70355224609375 " />
        <polyline stroke="black" stroke-width="3" stroke-linecap="round" fill="transparent" stroke-linejoin="round" points="108.93881225585938 107.48704528808594 116.8963623046875 99.9715576171875 122.201416015625 95.99278259277344 133.69564819335938 88.47732543945313 145.63201904296875 83.61436462402344 155.35791015625 83.61436462402344 162.87335205078125 90.687744140625 172.15716552734375 112.79208374023438 176.57806396484375 140.64352416992188 175.69384765625 166.28448486328125 170.8309326171875 184.4100341796875 161.98919677734375 197.23052978515625 143.86361694335938 209.60894775390625 143.86361694335938 209.60894775390625 " />
        <polyline stroke="black" stroke-width="3" stroke-linecap="round" fill="transparent" stroke-linejoin="round" points="25.384521484375 163.18988037109375 59.86724853515625 148.60105895996094 74.898193359375 145.50645446777344 90.81332397460938 143.73809814453125 127.06439208984376 141.0855712890625 144.747802734375 141.0855712890625 177.0201416015625 142.8539276123047 201.3348388671875 148.15896606445313 215.48162841796875 156.11651611328125 215.48162841796875 156.11651611328125 " />
        </svg>