<?xml version="1.0" standalone="no"?>
    <svg width="256" height="256" xmlns="http://www.w3.org/2000/svg" version="1.1">
    <polyline stroke="black" stroke-width="3" stroke-linecap="round" fill="transparent" stroke-linejoin="round" points="76.5 97.5 89 91.25 101.5 85 127.75 72.5 147.75 62.5 161.5 56.25 167.75 53.75 169 53.75 166.5 56.25 166.5 56.25 " />
        <polyline stroke="black" stroke-width="3" stroke-linecap="round" fill="transparent" stroke-linejoin="round" points="105.25 135 105.25 146.25 105.25 157.5 105.25 185 106.5 210 107.75 227.5 107.75 240 107.75 242.5 107.75 243.75 107.75 238.75 107.75 238.75 " />
        <polyline stroke="black" stroke-width="3" stroke-linecap="round" fill="transparent" stroke-linejoin="round" points="127.75 118.75 134 116.25 140.25 113.75 145.25 111.25 149 111.25 150.25 113.75 152.75 120 156.5 147.5 157.75 177.5 160.25 208.75 161.5 231.25 162.75 245 160.25 257.5 157.75 260 154 260 146.5 258.75 146.5 258.75 " />
        <polyline stroke="black" stroke-width="3" stroke-linecap="round" fill="transparent" stroke-linejoin="round" points="56.5 196.25 86.5 182.5 116.5 168.75 146.5 157.5 170.25 150 184 145 190.25 142.5 192.75 142.5 191.5 143.75 190.25 145 190.25 145 " />
        </svg>