<?xml version="1.0" standalone="no"?>
    <svg width="256" height="256" xmlns="http://www.w3.org/2000/svg" version="1.1">
    <polyline stroke="black" stroke-width="3" stroke-linecap="round" fill="transparent" stroke-linejoin="round" points="48.84991455078125 133.7147216796875 73.03466796875 128.48558044433594 75.6492919921875 127.83195495605467 99.180419921875 116.71998596191406 101.7950439453125 114.7590789794922 106.37054443359376 110.18356323242188 106.37054443359376 110.18356323242188 " />
        <polyline stroke="black" stroke-width="3" stroke-linecap="round" fill="transparent" stroke-linejoin="round" points="95.9122314453125 91.88156127929688 88.72210693359375 110.8372039794922 80.22479248046875 148.09487915039063 69.7664794921875 178.1624755859375 68.459228515625 180.1234130859375 63.88372802734375 186.00619506835935 60.615478515625 188.62075805664065 58.65460205078125 189.2744140625 62.576416015625 186.65985107421875 65.84466552734375 184.69891357421875 73.6883544921875 179.46975708007813 85.45391845703125 172.93333435058594 100.48773193359376 164.4359588623047 117.48248291015624 155.9385986328125 117.48248291015624 155.9385986328125 " />
        <polyline stroke="black" stroke-width="3" stroke-linecap="round" fill="transparent" stroke-linejoin="round" points="148.85736083984375 84.03782653808594 140.3599853515625 102.99348449707033 124.0189208984375 152.6703643798828 122.71160888671876 157.89952087402344 116.82879638671876 176.85520935058594 113.56060791015624 189.92807006835935 114.21429443359376 195.15719604492188 114.86785888671876 195.81085205078125 114.86785888671876 195.81085205078125 " />
        <polyline stroke="black" stroke-width="3" stroke-linecap="round" fill="transparent" stroke-linejoin="round" points="121.404296875 169.6651153564453 139.706298828125 169.6651153564453 154.08648681640625 174.2406005859375 156.04742431640625 174.2406005859375 164.5447998046875 170.3187713623047 164.5447998046875 170.3187713623047 " />
        <polyline stroke="black" stroke-width="3" stroke-linecap="round" fill="transparent" stroke-linejoin="round" points="190.6904296875 87.95968627929688 180.8858642578125 113.45176696777344 178.9249267578125 119.98820495605467 166.5057373046875 168.35781860351563 158.00836181640625 201.04000854492188 158.6619873046875 203.65457153320313 159.31561279296875 203.65457153320313 159.31561279296875 203.65457153320313 " />
        <polyline stroke="black" stroke-width="3" stroke-linecap="round" fill="transparent" stroke-linejoin="round" points="167.81298828125 174.2406005859375 191.34417724609375 183.39163208007813 208.3388671875 202.3472595214844 208.3388671875 202.3472595214844 " />
        </svg>