<?xml version="1.0" standalone="no"?>
    <svg width="256" height="256" xmlns="http://www.w3.org/2000/svg" version="1.1">
    <polyline stroke="black" stroke-width="3" stroke-linecap="round" fill="transparent" stroke-linejoin="round" points="45.963053433014466 145.7233663512296 47.06442369041412 142.69459814338057 51.74524728436262 142.14391301468075 59.73018165051002 140.21651506423137 69.64251396710688 136.63706172768252 79.00416115500389 131.95623813373402 84.78635500635198 127.00007197543562 86.43841039245149 121.21787812408746 86.43841039245149 121.21787812408746 " />
        <polyline stroke="black" stroke-width="3" stroke-linecap="round" fill="transparent" stroke-linejoin="round" points="71.29456935320633 101.66855605524373 73.49730986800563 103.87129657004304 74.87402268975518 118.18910991623844 76.25073551150473 139.94117249988145 77.07676320455448 149.85350481647828 77.07676320455448 149.85350481647828 " />
        <polyline stroke="black" stroke-width="3" stroke-linecap="round" fill="transparent" stroke-linejoin="round" points="41.28222983906596 199.4151663994624 47.615108819113914 191.70557459766485 56.70141344266102 179.86584433061867 68.81648627405713 162.51926277657424 80.93155910545323 144.07131096513012 91.6699191150998 129.47815505458482 101.30690886734668 119.565822737988 105.7123898969453 115.7110268370892 105.7123898969453 115.7110268370892 " />
        <polyline stroke="black" stroke-width="3" stroke-linecap="round" fill="transparent" stroke-linejoin="round" points="136.5507571041354 90.93019604559716 134.0726740249862 95.06033451084583 127.73979504493826 116.26171196578905 118.37814785704126 138.01377454943207 108.1904729760945 152.33158789562748 97.17677040209804 164.17131816267369 88.36580834290083 173.80830791492062 83.68498474895239 179.03981663756892 83.68498474895239 179.03981663756892 " />
        <polyline stroke="black" stroke-width="3" stroke-linecap="round" fill="transparent" stroke-linejoin="round" points="109.56718579784405 153.70830071737706 115.90006477789206 152.33158789562748 119.7548606787908 152.8822730243273 124.43568427273932 154.8096709747767 130.49322068843736 157.5630966182758 137.6521273615351 161.4178925191746 143.70966377723312 165.54803098442326 147.01377454943207 169.12748432097212 147.56445967813187 170.22885457837177 147.56445967813187 170.22885457837177 " />
        <polyline stroke="black" stroke-width="3" stroke-linecap="round" fill="transparent" stroke-linejoin="round" points="194.64803818196685 74.40964218460246 191.34392740976784 76.88772526375166 185.28639099406985 97.53841758999503 175.37405867747293 128.927469925885 165.18638379652623 159.49049456872518 152.24528327208043 177.9384463801693 140.95623813373402 192.2562597263647 132.97130376758656 200.79187922121196 128.56582273798796 205.4727028151605 126.91376735188852 206.2987305082102 126.91376735188852 206.2987305082102 " />
        <polyline stroke="black" stroke-width="3" stroke-linecap="round" fill="transparent" stroke-linejoin="round" points="173.99734585572344 147.65076430167898 183.90967817232024 150.1288473808282 197.67680638981585 158.66446687567546 212.82064742906095 166.6494012418229 224.10969256740736 171.8809099644712 231.26859924050507 174.08365047927052 234.57271001270396 174.90967817232024 235.12339514140388 175.46036330102007 235.12339514140388 175.46036330102007 " />
        </svg>