<?xml version="1.0" standalone="no"?>
    <svg width="256" height="256" xmlns="http://www.w3.org/2000/svg" version="1.1">
    <polyline stroke="black" stroke-width="3" stroke-linecap="round" fill="transparent" stroke-linejoin="round" points="102 61 99 69 89 89 76 112 66 129 63 134 63 134 " />
        <polyline stroke="black" stroke-width="3" stroke-linecap="round" fill="transparent" stroke-linejoin="round" points="78 108 90 101 109 97 131 93 153 88 170 82 179 79 180 81 180 81 " />
        <polyline stroke="black" stroke-width="3" stroke-linecap="round" fill="transparent" stroke-linejoin="round" points="94 119 95 129 94 136 89 155 81 179 75 193 73 197 72 197 72 197 " />
        <polyline stroke="black" stroke-width="3" stroke-linecap="round" fill="transparent" stroke-linejoin="round" points="121 128 120 144 120 153 120 166 121 171 122 172 123 171 123 171 " />
        <polyline stroke="black" stroke-width="3" stroke-linecap="round" fill="transparent" stroke-linejoin="round" points="156 112 154 123 151 143 149 162 148 175 147 180 147 180 " />
        <polyline stroke="black" stroke-width="3" stroke-linecap="round" fill="transparent" stroke-linejoin="round" points="40 160 49 161 55 161 95 158 130 154 162 149 181 145 202 142 208 143 208 145 208 145 " />
        </svg>