<?xml version="1.0" standalone="no"?>
    <svg width="256" height="256" xmlns="http://www.w3.org/2000/svg" version="1.1">
    <polyline stroke="black" stroke-width="3" stroke-linecap="round" fill="transparent" stroke-linejoin="round" points="63.00946044921875 34.229957580566406 62.30126953125 51.22673797607422 60.53076171875 70.34812927246094 57.697967529296875 89.46952819824219 53.448760986328125 107.1745147705078 48.49139404296875 123.10902404785156 43.53399658203125 133.02381896972656 43.53399658203125 133.02381896972656 " />
        <polyline stroke="black" stroke-width="3" stroke-linecap="round" fill="transparent" stroke-linejoin="round" points="70.79965209960938 101.1548309326172 90.98333740234376 92.65643310546876 112.93756103515624 85.57443237304688 134.18353271484375 79.90882873535156 151.1802978515625 74.95143127441406 163.92791748046875 71.7645263671875 172.42633056640625 69.63993835449219 172.42633056640625 69.63993835449219 " />
        <polyline stroke="black" stroke-width="3" stroke-linecap="round" fill="transparent" stroke-linejoin="round" points="60.176666259765625 163.47640991210938 83.90133666992188 149.31240844726563 115.06216430664063 136.5648193359375 146.93112182617188 126.29591369628906 172.78033447265625 118.85980224609376 196.1510009765625 111.42372131347656 210.6690673828125 105.0499267578125 210.6690673828125 105.0499267578125 " />
        <polyline stroke="black" stroke-width="3" stroke-linecap="round" fill="transparent" stroke-linejoin="round" points="82.83905029296875 116.73521423339844 88.85873413085938 135.5025177001953 92.04562377929688 154.26979064941406 93.4620361328125 171.6206817626953 93.4620361328125 188.9715881347656 92.39974975585938 199.240478515625 91.6915283203125 202.4273681640625 91.6915283203125 202.4273681640625 " />
        <polyline stroke="black" stroke-width="3" stroke-linecap="round" fill="transparent" stroke-linejoin="round" points="121.08181762695313 112.84011840820313 123.560546875 151.08290100097656 125.33099365234376 170.9124755859375 127.1015625 180.4731903076172 127.1015625 180.4731903076172 " />
        <polyline stroke="black" stroke-width="3" stroke-linecap="round" fill="transparent" stroke-linejoin="round" points="157.908203125 116.02700805664063 161.0950927734375 138.33531188964844 166.4066162109375 171.9747772216797 171.71807861328125 204.55197143554688 175.25909423828125 230.04714965820313 176.32135009765625 236.06686401367188 176.32135009765625 236.06686401367188 " />
        </svg>