<?xml version="1.0" standalone="no"?>
    <svg width="256" height="256" xmlns="http://www.w3.org/2000/svg" version="1.1">
    <polyline stroke="black" stroke-width="3" stroke-linecap="round" fill="transparent" stroke-linejoin="round" points="93 73 93 73 95 74 97 76 98 79 99 82 100 87 100 94 101 98 102 102 102 105 102 107 102 108 103 108 104 107 105 105 106 102 107 98 109 95 110 91 112 88 114 85 117 81 121 78 125 75 130 72 134 69 141 66 146 64 148 64 153 63 156 63 158 64 160 65 160 67 159 71 157 77 150 86 145 93 141 96 138 99 134 102 " />
        <polyline stroke="black" stroke-width="3" stroke-linecap="round" fill="transparent" stroke-linejoin="round" points="100 117 100 117 100 117 101 116 104 114 107 113 110 110 114 108 119 106 125 103 130 102 132 101 136 102 138 103 " />
        <polyline stroke="black" stroke-width="3" stroke-linecap="round" fill="transparent" stroke-linejoin="round" points="83 143 81 144 79 144 78 144 79 144 82 142 84 141 93 138 100 137 108 135 118 133 128 131 144 128 154 125 162 122 168 121 169 120 " />
        <polyline stroke="black" stroke-width="3" stroke-linecap="round" fill="transparent" stroke-linejoin="round" points="126 138 126 138 120 144 114 150 108 158 102 166 96 174 90 182 85 189 79 199 78 201 74 207 73 209 72 212 72 212 74 211 75 211 " />
        <polyline stroke="black" stroke-width="3" stroke-linecap="round" fill="transparent" stroke-linejoin="round" points="133 138 134 138 134 142 134 147 133 153 132 163 132 170 132 177 134 185 136 193 139 200 143 207 148 213 152 218 160 221 165 220 171 217 177 211 182 204 185 197 187 191 186 186 185 181 183 178 180 175 177 173 175 173 174 173 " />
        </svg>