<?xml version="1.0" standalone="no"?>
    <svg width="256" height="256" xmlns="http://www.w3.org/2000/svg" version="1.1">
    <polyline stroke="black" stroke-width="3" stroke-linecap="round" fill="transparent" stroke-linejoin="round" points="73 79 73 78 75 76 78 74 84 71 89 68 95 65 102 61 110 58 119 55 128 52 137 49 146 47 159 44 167 43 173 42 178 41 180 41 181 42 " />
        <polyline stroke="black" stroke-width="3" stroke-linecap="round" fill="transparent" stroke-linejoin="round" points="105 75 104 75 102 77 101 79 101 82 101 86 102 91 103 95 104 98 106 101 107 104 109 105 112 105 114 104 " />
        <polyline stroke="black" stroke-width="3" stroke-linecap="round" fill="transparent" stroke-linejoin="round" points="122 82 123 83 124 84 126 85 127 87 128 88 130 89 132 91 134 91 138 91 140 91 " />
        <polyline stroke="black" stroke-width="3" stroke-linecap="round" fill="transparent" stroke-linejoin="round" points="163 68 163 68 163 73 161 80 157 87 153 94 147 102 140 109 129 120 125 122 " />
        <polyline stroke="black" stroke-width="3" stroke-linecap="round" fill="transparent" stroke-linejoin="round" points="73 135 71 135 69 135 69 135 70 135 72 134 76 134 82 133 89 132 98 130 114 128 128 125 142 123 156 120 171 117 184 114 197 113 206 112 210 113 214 114 " />
        <polyline stroke="black" stroke-width="3" stroke-linecap="round" fill="transparent" stroke-linejoin="round" points="100 164 98 165 98 164 100 164 103 163 108 162 114 160 121 157 129 155 138 153 151 150 159 149 167 149 173 150 179 152 180 153 " />
        <polyline stroke="black" stroke-width="3" stroke-linecap="round" fill="transparent" stroke-linejoin="round" points="126 162 120 165 115 169 110 173 107 178 104 184 103 193 104 200 105 205 107 210 109 215 112 218 116 221 120 222 126 221 132 218 140 211 147 204 151 200 " />
        <polyline stroke="black" stroke-width="3" stroke-linecap="round" fill="transparent" stroke-linejoin="round" points="156 159 156 159 155 161 154 166 154 168 154 177 154 180 155 191 156 198 157 206 158 210 159 214 " />
        </svg>