<?xml version="1.0" standalone="no"?>
    <svg width="256" height="256" xmlns="http://www.w3.org/2000/svg" version="1.1">
    <polyline stroke="black" stroke-width="3" stroke-linecap="round" fill="transparent" stroke-linejoin="round" points="54 104 54 104 54 103 56 102 59 101 63 100 66 99 78 96 82 95 98 91 104 89 131 81 138 79 157 74 162 73 171 71 179 70 185 70 186 70 187 70 187 71 " />
        <polyline stroke="black" stroke-width="3" stroke-linecap="round" fill="transparent" stroke-linejoin="round" points="87 94 87 94 87 94 86 94 86 95 86 97 87 98 87 101 89 105 91 111 92 113 93 116 95 119 97 121 100 122 103 122 105 121 " />
        <polyline stroke="black" stroke-width="3" stroke-linecap="round" fill="transparent" stroke-linejoin="round" points="119 97 119 97 121 100 123 104 124 105 126 106 130 106 134 106 136 105 " />
        <polyline stroke="black" stroke-width="3" stroke-linecap="round" fill="transparent" stroke-linejoin="round" points="164 87 163 89 161 94 156 101 150 108 146 112 133 124 129 128 " />
        <polyline stroke="black" stroke-width="3" stroke-linecap="round" fill="transparent" stroke-linejoin="round" points="60 158 60 158 58 157 57 156 58 155 61 153 64 152 69 150 76 148 79 148 98 145 109 144 122 142 136 140 150 137 157 136 175 133 180 133 189 133 192 134 " />
        <polyline stroke="black" stroke-width="3" stroke-linecap="round" fill="transparent" stroke-linejoin="round" points="60 175 59 175 58 174 59 173 61 173 63 172 70 170 74 170 91 167 102 166 114 165 121 165 141 162 147 161 163 159 168 159 177 159 178 159 180 160 180 160 " />
        <polyline stroke="black" stroke-width="3" stroke-linecap="round" fill="transparent" stroke-linejoin="round" points="114 176 114 176 112 177 111 178 107 185 106 190 105 196 105 202 105 208 106 213 107 217 108 219 112 225 115 226 119 226 121 226 129 221 133 218 143 211 146 208 " />
        <polyline stroke="black" stroke-width="3" stroke-linecap="round" fill="transparent" stroke-linejoin="round" points="158 176 158 176 158 175 158 175 157 177 156 180 156 183 155 191 155 194 156 208 157 211 158 215 " />
        </svg>