<?xml version="1.0" standalone="no"?>
    <svg width="256" height="256" xmlns="http://www.w3.org/2000/svg" version="1.1">
    <polyline stroke="black" stroke-width="3" stroke-linecap="round" fill="transparent" stroke-linejoin="round" points="56.9990234375 86.627685546875 56.102783203125 93.79730224609376 53.4141845703125 104.99981689453124 51.1737060546875 109.92893981933594 50.7255859375 110.82513427734376 50.7255859375 110.82513427734376 " />
        <polyline stroke="black" stroke-width="3" stroke-linecap="round" fill="transparent" stroke-linejoin="round" points="74.02685546875 79.00997924804688 90.6065673828125 68.70365905761719 100.91290283203124 63.326446533203125 134.07235717773438 51.22772216796875 154.68499755859375 46.74671936035156 163.64697265625 46.298614501953125 182.0191650390625 47.642913818359375 188.2926025390625 50.33152770996094 190.0849609375 51.67582702636719 190.5330810546875 61.982147216796875 181.1229248046875 79.90617370605469 164.9913330078125 97.8302001953125 164.9913330078125 97.8302001953125 " />
        <polyline stroke="black" stroke-width="3" stroke-linecap="round" fill="transparent" stroke-linejoin="round" points="75.81927490234375 126.06057739257813 83.43695068359375 123.37197875976563 90.6065673828125 120.68338012695313 104.4976806640625 116.65045166015624 125.1103515625 110.82513427734376 130.93563842773438 107.24034118652344 132.72802734375 104.99981689453124 132.72802734375 104.99981689453124 " />
        <polyline stroke="black" stroke-width="3" stroke-linecap="round" fill="transparent" stroke-linejoin="round" points="106.73822021484376 101.86312866210938 103.15341186523438 111.2732391357422 99.568603515625 121.13145446777344 90.158447265625 144.43270874023438 85.67745971679688 154.29092407226563 76.71542358398438 171.31875610351563 69.09774780273438 182.52127075195313 63.72052001953125 188.3465881347656 60.583831787109375 191.03518676757813 59.239501953125 191.4832763671875 59.6876220703125 191.03518676757813 65.96102905273438 187.00225830078125 80.30026245117188 178.48834228515625 95.53564453125 169.07823181152344 109.87493896484376 160.1162109375 117.49261474609376 154.29092407226563 117.49261474609376 154.29092407226563 " />
        <polyline stroke="black" stroke-width="3" stroke-linecap="round" fill="transparent" stroke-linejoin="round" points="151.99639892578125 108.58464050292967 156.4774169921875 107.24034118652344 160.95843505859375 106.3441162109375 170.816650390625 104.55174255371094 174.84954833984375 104.10362243652344 183.36346435546875 101.86312866210938 187.844482421875 100.9669189453125 187.844482421875 100.9669189453125 " />
        <polyline stroke="black" stroke-width="3" stroke-linecap="round" fill="transparent" stroke-linejoin="round" points="133.1761474609375 153.8428192138672 141.241943359375 152.94662475585938 149.30780029296875 151.60232543945313 165.43939208984375 148.91372680664063 189.188720703125 139.50360107421875 195.462158203125 134.574462890625 195.462158203125 134.574462890625 " />
        <polyline stroke="black" stroke-width="3" stroke-linecap="round" fill="transparent" stroke-linejoin="round" points="156.4774169921875 87.07579040527344 154.2369384765625 104.10362243652344 150.652099609375 140.847900390625 148.85968017578125 175.79974365234375 148.85968017578125 200.89340209960935 150.652099609375 219.2655334472656 151.1002197265625 224.19464111328125 151.1002197265625 224.19464111328125 " />
        </svg>