<?xml version="1.0" standalone="no"?>
    <svg width="256" height="256" xmlns="http://www.w3.org/2000/svg" version="1.1">
    <polyline stroke="black" stroke-width="3" stroke-linecap="round" fill="transparent" stroke-linejoin="round" points="62.422607421875 109.74211120605467 63.24871826171875 115.52482604980467 64.0748291015625 125.85107421875 64.0748291015625 129.5685272216797 64.0748291015625 132.87295532226563 63.24871826171875 133.28598022460938 62.422607421875 132.87295532226563 62.422607421875 132.04684448242188 64.48788452148438 123.78582763671876 67.37924194335938 118.41616821289063 74.81414794921875 107.26382446289063 90.923095703125 89.089599609375 106.20599365234376 77.52420043945313 122.72796630859376 68.0240478515625 138.8369140625 63.06744384765625 145.8587646484375 62.654388427734375 157.4241943359375 64.30657958984375 165.6851806640625 68.43708801269531 172.29400634765625 77.937255859375 171.4678955078125 89.089599609375 161.5546875 106.024658203125 153.70672607421875 114.69871520996094 144.61962890625 123.78582763671876 144.61962890625 123.78582763671876 " />
        <polyline stroke="black" stroke-width="3" stroke-linecap="round" fill="transparent" stroke-linejoin="round" points="79.35772705078125 155.5906982421875 85.140380859375 152.2863006591797 90.09701538085938 149.3949432373047 102.488525390625 141.54698181152344 110.33648681640624 136.59039306640625 110.33648681640624 136.59039306640625 " />
        <polyline stroke="black" stroke-width="3" stroke-linecap="round" fill="transparent" stroke-linejoin="round" points="94.64056396484376 148.15579223632813 92.98837280273438 154.76458740234375 90.923095703125 161.78643798828125 83.07516479492188 183.6781005859375 80.59686279296875 189.04779052734375 73.57501220703125 198.96096801757813 70.27059936523438 201.85232543945313 69.03143310546875 203.09149169921875 67.37924194335938 203.5045166015625 67.79229736328125 203.5045166015625 71.0966796875 202.265380859375 79.35772705078125 199.3740234375 85.140380859375 196.89572143554688 97.9449462890625 191.113037109375 115.29306030273438 179.96066284179688 121.90185546875 174.17796325683594 121.90185546875 174.17796325683594 " />
        <polyline stroke="black" stroke-width="3" stroke-linecap="round" fill="transparent" stroke-linejoin="round" points="130.575927734375 134.93817138671875 134.29339599609375 133.69903564453125 138.01083374023438 132.4598846435547 144.61962890625 130.39463806152344 149.9892578125 130.39463806152344 151.22845458984375 134.52513122558594 150.40234375 139.4817352294922 150.40234375 139.4817352294922 " />
        <polyline stroke="black" stroke-width="3" stroke-linecap="round" fill="transparent" stroke-linejoin="round" points="126.03240966796876 180.78677368164065 135.945556640625 174.59100341796875 145.03268432617188 167.98220825195313 150.81536865234375 161.78643798828125 153.70672607421875 156.4167938232422 153.70672607421875 156.4167938232422 " />
        <polyline stroke="black" stroke-width="3" stroke-linecap="round" fill="transparent" stroke-linejoin="round" points="121.07577514648438 130.39463806152344 121.48883056640624 139.4817352294922 121.90185546875 148.98190307617188 122.72796630859376 166.7430419921875 123.55404663085938 182.02590942382813 124.38018798828124 196.06964111328125 125.206298828125 208.87417602539065 126.44540405273438 221.67874145507813 127.6845703125 227.46142578125 127.6845703125 227.46142578125 " />
        </svg>