<?xml version="1.0" standalone="no"?>
    <svg width="256" height="256" xmlns="http://www.w3.org/2000/svg" version="1.1">
    <polyline stroke="black" stroke-width="3" stroke-linecap="round" fill="transparent" stroke-linejoin="round" points="54.191162109375 105.07699584960938 53.268890380859375 121.67796325683594 50.963226318359375 132.28414916992188 49.11865234375 136.43438720703125 48.65753173828125 136.43438720703125 50.502044677734375 132.7452850341797 62.491668701171875 117.98887634277344 93.38790893554688 88.47602844238281 116.44479370117188 71.87506103515625 138.57943725585938 59.885467529296875 156.1026611328125 55.27409362792969 163.48089599609375 54.812957763671875 177.3150634765625 58.040924072265625 179.15960693359375 60.34661865234375 175.931640625 79.71441650390625 152.874755859375 105.07699584960938 152.874755859375 105.07699584960938 " />
        <polyline stroke="black" stroke-width="3" stroke-linecap="round" fill="transparent" stroke-linejoin="round" points="66.64190673828125 169.63632202148438 85.54855346679688 158.5690155029297 94.31015014648438 153.03533935546875 102.14950561523438 147.50169372558594 112.75570678710938 137.35667419433594 118.75048828125 129.97845458984375 122.90072631835938 123.98367309570313 124.28414916992188 121.67796325683594 124.74530029296876 119.37229919433594 122.90072631835938 120.2945556640625 115.06137084960938 132.28414916992188 99.84384155273438 155.80218505859375 83.24285888671875 177.9368133544922 76.78695678710938 185.77615356445313 65.7196044921875 198.68801879882813 62.95281982421875 201.91598510742188 62.491668701171875 202.37713623046875 66.18075561523438 200.5325927734375 76.78695678710938 194.9989013671875 89.69882202148438 188.08184814453125 102.61068725585938 180.70364379882813 112.75570678710938 173.32542419433594 112.75570678710938 173.32542419433594 " />
        <polyline stroke="black" stroke-width="3" stroke-linecap="round" fill="transparent" stroke-linejoin="round" points="147.341064453125 117.52774047851563 158.40838623046875 114.29977416992188 163.48089599609375 112.91635131835938 171.7813720703125 111.07180786132813 175.931640625 110.14952087402344 175.931640625 110.61065673828124 169.4757080078125 117.06658935546876 154.71923828125 129.51731872558594 143.19085693359375 139.662353515625 136.73486328125 145.6571502685547 133.968017578125 150.26852416992188 134.42919921875 153.49649047851563 139.04058837890625 155.34104919433594 149.646728515625 154.41876220703125 163.019775390625 147.0405731201172 163.019775390625 147.0405731201172 " />
        <polyline stroke="black" stroke-width="3" stroke-linecap="round" fill="transparent" stroke-linejoin="round" points="155.64154052734375 100.4656219482422 154.2581787109375 111.07180786132813 153.33587646484375 122.13912963867188 152.874755859375 144.27374267578125 152.874755859375 154.87991333007813 152.874755859375 165.94720458984375 152.41357421875 193.61550903320313 152.874755859375 209.294189453125 152.874755859375 209.294189453125 " />
        </svg>