<?xml version="1.0" standalone="no"?>
    <svg width="256" height="256" xmlns="http://www.w3.org/2000/svg" version="1.1">
    <polyline stroke="black" stroke-width="3" stroke-linecap="round" fill="transparent" stroke-linejoin="round" points="49.38128662109375 84.83529663085938 48.0369873046875 91.10870361328124 47.14080810546875 98.2783203125 46.692718505859375 111.2732391357422 46.692718505859375 124.71627807617188 46.692718505859375 127.40487670898438 46.692718505859375 127.40487670898438 " />
        <polyline stroke="black" stroke-width="3" stroke-linecap="round" fill="transparent" stroke-linejoin="round" points="70.4420166015625 74.97706604003906 82.540771484375 68.70365905761719 88.81417846679688 66.01504516601563 101.36102294921876 63.326446533203125 107.186279296875 62.87835693359375 112.5634765625 62.87835693359375 120.62933349609376 65.11885070800781 125.55844116210938 69.15176391601563 127.79891967773438 79.90617370605469 123.31793212890624 98.2783203125 109.42684936523438 121.13145446777344 109.42684936523438 121.13145446777344 " />
        <polyline stroke="black" stroke-width="3" stroke-linecap="round" fill="transparent" stroke-linejoin="round" points="58.79144287109375 152.94662475585938 64.61669921875 149.36180114746094 70.89013671875 145.77700805664063 83.88510131835938 138.15928649902344 94.63949584960938 131.4377899169922 103.15341186523438 125.61245727539063 109.87493896484376 119.33905029296876 109.87493896484376 119.33905029296876 " />
        <polyline stroke="black" stroke-width="3" stroke-linecap="round" fill="transparent" stroke-linejoin="round" points="75.37115478515625 58.84544372558594 72.23443603515625 74.52896118164063 69.99395751953125 88.42008972167969 65.512939453125 118.89096069335938 61.03192138671875 146.67320251464844 56.5509033203125 170.8706512451172 52.069915771484375 191.03518676757813 49.82940673828125 199.10101318359375 43.555999755859375 217.92123413085935 43.555999755859375 217.92123413085935 " />
        <polyline stroke="black" stroke-width="3" stroke-linecap="round" fill="transparent" stroke-linejoin="round" points="73.130615234375 153.39471435546875 85.67745971679688 163.2529296875 102.25717163085938 178.04025268554688 108.08251953125 182.52127075195313 111.66732788085938 185.657958984375 111.66732788085938 185.657958984375 " />
        <polyline stroke="black" stroke-width="3" stroke-linecap="round" fill="transparent" stroke-linejoin="round" points="150.652099609375 58.3973388671875 153.788818359375 65.56695556640625 156.92547607421875 72.736572265625 160.06219482421875 79.00997924804688 166.78369140625 92.00489807128906 170.3685302734375 96.03781127929688 173.05712890625 96.03781127929688 173.05712890625 96.03781127929688 " />
        <polyline stroke="black" stroke-width="3" stroke-linecap="round" fill="transparent" stroke-linejoin="round" points="211.14569091796875 38.68090057373047 203.07989501953125 68.70365905761719 197.70263671875 83.49098205566406 191.87738037109375 98.72640991210938 185.1558837890625 114.40994262695313 165.43939208984375 165.0453338623047 152.892578125 197.30859375 148.41156005859375 208.5111083984375 140.79388427734375 227.33135986328125 140.79388427734375 227.33135986328125 " />
        <polyline stroke="black" stroke-width="3" stroke-linecap="round" fill="transparent" stroke-linejoin="round" points="136.3128662109375 116.65045166015624 146.17108154296875 132.33396911621094 165.88751220703125 159.2200164794922 179.7786865234375 176.2478485107422 191.87738037109375 190.58709716796875 205.76849365234375 208.5111083984375 205.76849365234375 208.5111083984375 " />
        </svg>