<?xml version="1.0" standalone="no"?>
    <svg width="256" height="256" xmlns="http://www.w3.org/2000/svg" version="1.1">
    <polyline stroke="black" stroke-width="3" stroke-linecap="round" fill="transparent" stroke-linejoin="round" points="34.276702880859375 121.50201416015624 35.795684814453125 134.79315185546875 37.694427490234375 144.6665496826172 39.593170166015625 149.603271484375 40.732391357421875 151.50201416015625 40.732391357421875 151.50201416015625 " />
        <polyline stroke="black" stroke-width="3" stroke-linecap="round" fill="transparent" stroke-linejoin="round" points="58.960235595703125 88.46406555175781 69.5931396484375 82.76785278320313 77.94757080078125 80.10963439941406 85.9222412109375 78.97038269042969 92.37796020507813 81.24888610839844 95.03616333007813 89.98306274414063 93.13742065429688 106.69189453125 87.44125366210938 121.50201416015624 80.98553466796875 133.65391540527344 80.98553466796875 133.65391540527344 " />
        <polyline stroke="black" stroke-width="3" stroke-linecap="round" fill="transparent" stroke-linejoin="round" points="66.93490600585938 132.51466369628906 80.98553466796875 121.88177490234376 84.02349853515625 118.84376525878906 84.02349853515625 118.84376525878906 " />
        <polyline stroke="black" stroke-width="3" stroke-linecap="round" fill="transparent" stroke-linejoin="round" points="65.41592407226563 98.71720886230467 61.238739013671875 145.80580139160156 57.82098388671875 175.80577087402344 54.40325927734375 193.65386962890625 50.6058349609375 211.501953125 46.808349609375 219.85638427734375 46.808349609375 219.85638427734375 " />
        <polyline stroke="black" stroke-width="3" stroke-linecap="round" fill="transparent" stroke-linejoin="round" points="84.78302001953125 153.78048706054688 94.65640258789063 159.85643005371094 94.65640258789063 159.85643005371094 " />
        <polyline stroke="black" stroke-width="3" stroke-linecap="round" fill="transparent" stroke-linejoin="round" points="145.92221069335938 97.9577178955078 145.92221069335938 97.9577178955078 " />
        <polyline stroke="black" stroke-width="3" stroke-linecap="round" fill="transparent" stroke-linejoin="round" points="170.2259521484375 76.31214904785156 158.453857421875 105.17291259765624 140.22601318359375 145.0463104248047 126.93487548828124 173.5272979736328 113.2640380859375 196.6918029785156 103.77032470703124 208.84375 95.03616333007813 213.78042602539065 95.03616333007813 213.78042602539065 " />
        <polyline stroke="black" stroke-width="3" stroke-linecap="round" fill="transparent" stroke-linejoin="round" points="134.52984619140625 126.81846618652344 152.7576904296875 151.88174438476563 176.30194091796875 178.84375 198.32720947265625 201.24880981445313 220.3525390625 217.19818115234375 235.1627197265625 223.65383911132813 235.1627197265625 223.65383911132813 " />
        </svg>