<?xml version="1.0" standalone="no"?>
    <svg width="256" height="256" xmlns="http://www.w3.org/2000/svg" version="1.1">
    <polyline stroke="black" stroke-width="3" stroke-linecap="round" fill="transparent" stroke-linejoin="round" points="42.10986328125 82.9423828125 42.57098388671875 107.3826904296875 42.10986328125 117.52774047851563 41.187591552734375 130.90072631835938 40.26531982421875 136.43438720703125 39.804168701171875 137.8177947998047 39.804168701171875 136.43438720703125 42.57098388671875 129.97845458984375 49.488037109375 116.60546875 59.171966552734375 102.77130126953124 69.31698608398438 90.78172302246094 80.845458984375 81.09782409667969 92.3739013671875 75.10302734375 100.21322631835938 73.71961975097656 104.36349487304688 75.56417846679688 103.44125366210938 88.93716430664063 89.14593505859375 115.68316650390624 73.92840576171875 131.82302856445313 64.24447631835938 140.58462524414063 58.7108154296875 144.27374267578125 56.86627197265625 144.73486328125 56.86627197265625 143.35147094726563 62.39990234375 138.2789306640625 74.3895263671875 128.13389587402344 83.151123046875 119.83341979980467 83.151123046875 119.83341979980467 " />
        <polyline stroke="black" stroke-width="3" stroke-linecap="round" fill="transparent" stroke-linejoin="round" points="71.16156005859375 73.25848388671875 66.08905029296875 91.24285888671876 60.555389404296875 110.61065673828124 50.87152099609375 150.7296600341797 44.41552734375 178.85906982421875 41.187591552734375 193.61550903320313 39.804168701171875 200.99371337890625 39.804168701171875 200.99371337890625 " />
        <polyline stroke="black" stroke-width="3" stroke-linecap="round" fill="transparent" stroke-linejoin="round" points="68.85589599609375 169.63632202148438 73.006103515625 174.24771118164063 78.07861328125 178.85906982421875 90.06820678710938 185.31500244140625 96.524169921875 185.77615356445313 104.36349487304688 182.0870361328125 104.36349487304688 182.0870361328125 " />
        <polyline stroke="black" stroke-width="3" stroke-linecap="round" fill="transparent" stroke-linejoin="round" points="131.10946655273438 90.32058715820313 133.87631225585938 94.93196105957033 136.64315795898438 98.62106323242188 138.94882202148438 100.9267578125 142.637939453125 103.23245239257813 147.24932861328125 104.61587524414063 147.24932861328125 104.61587524414063 " />
        <polyline stroke="black" stroke-width="3" stroke-linecap="round" fill="transparent" stroke-linejoin="round" points="166.156005859375 82.9423828125 148.17160034179688 125.82821655273438 138.48773193359375 147.50169372558594 123.2701416015625 179.78135681152344 113.58627319335938 196.38232421875 108.51373291015624 202.8382568359375 108.51373291015624 202.8382568359375 " />
        <polyline stroke="black" stroke-width="3" stroke-linecap="round" fill="transparent" stroke-linejoin="round" points="115.4307861328125 152.1130828857422 126.49813842773438 162.25811767578125 151.8607177734375 184.39276123046875 182.29583740234375 210.6776123046875 182.29583740234375 210.6776123046875 " />
        </svg>