<?xml version="1.0" standalone="no"?>
    <svg width="256" height="256" xmlns="http://www.w3.org/2000/svg" version="1.1">
    <polyline stroke="black" stroke-width="3" stroke-linecap="round" fill="transparent" stroke-linejoin="round" points="83.01119995117188 91.34616088867188 92.58154296875 86.06597900390625 126.24282836914063 71.87544250488281 132.5130615234375 69.89535522460938 146.04354858398438 67.58528137207031 154.95391845703125 68.90533447265625 159.904052734375 73.19548034667969 163.5341796875 87.38601684570313 163.8642578125 108.50680541992188 159.904052734375 131.60769653320313 149.34368896484375 152.72845458984375 149.34368896484375 152.72845458984375 149.34368896484375 152.72845458984375 " />
        <polyline stroke="black" stroke-width="3" stroke-linecap="round" fill="transparent" stroke-linejoin="round" points="45.71978759765625 124.67741394042967 53.31005859375 119.06721496582033 58.26025390625 116.42709350585938 88.2913818359375 106.8567352294922 95.88168334960938 105.20668029785156 120.63259887695313 100.25651550292967 150.00369262695313 96.2963409423828 178.71478271484375 93.65625 201.81561279296875 93.65625 215.34619140625 95.30632019042967 220.29638671875 98.27642822265624 220.29638671875 98.27642822265624 220.29638671875 98.27642822265624 " />
        <polyline stroke="black" stroke-width="3" stroke-linecap="round" fill="transparent" stroke-linejoin="round" points="80.37109375 172.85922241210938 89.94140625 169.2290802001953 96.211669921875 167.5790252685547 126.90283203125 159.32870483398438 132.84304809570313 158.3386993408203 148.02362060546875 154.3785400390625 159.24407958984375 151.73841857910156 164.854248046875 151.0784149169922 165.84429931640625 151.0784149169922 165.84429931640625 151.0784149169922 " />
        <polyline stroke="black" stroke-width="3" stroke-linecap="round" fill="transparent" stroke-linejoin="round" points="112.38229370117188 43.49437713623047 115.02239990234376 58.34492492675781 120.962646484375 103.55662536621094 121.29263305664063 111.8069305419922 122.6126708984375 137.5478973388672 124.26275634765624 162.62884521484375 125.582763671875 182.7595977783203 125.91278076171876 195.30007934570313 125.91278076171876 201.9002990722656 125.582763671875 205.53042602539065 125.582763671875 207.84054565429688 125.582763671875 207.84054565429688 125.582763671875 207.84054565429688 " />
        </svg>