<?xml version="1.0" standalone="no"?>
    <svg width="256" height="256" xmlns="http://www.w3.org/2000/svg" version="1.1">
    <polyline stroke="black" stroke-width="3" stroke-linecap="round" fill="transparent" stroke-linejoin="round" points="17.90496826171875 148.96018981933594 44.841033935546875 139.70089721679688 75.98593139648438 130.44161987304688 101.65936279296876 124.12847900390624 116.39004516601563 119.91970825195313 124.38671875 116.13180541992188 124.38671875 116.13180541992188 " />
        <polyline stroke="black" stroke-width="3" stroke-linecap="round" fill="transparent" stroke-linejoin="round" points="49.470672607421875 97.61325073242188 37.2652587890625 155.27333068847656 37.2652587890625 187.25994873046875 40.21142578125 204.09500122070313 42.7366943359375 211.2499084472656 44.841033935546875 213.77517700195313 44.841033935546875 213.77517700195313 " />
        <polyline stroke="black" stroke-width="3" stroke-linecap="round" fill="transparent" stroke-linejoin="round" points="87.34957885742188 59.3134765625 85.24520874023438 141.80526733398438 86.08697509765625 171.26663208007813 86.50784301757813 189.78518676757813 87.77044677734375 202.8323974609375 86.92874145507813 209.9873046875 86.92874145507813 209.9873046875 " />
        <polyline stroke="black" stroke-width="3" stroke-linecap="round" fill="transparent" stroke-linejoin="round" points="43.999298095703125 208.30377197265625 77.66943359375 194.41485595703125 99.55502319335938 189.78518676757813 105.44729614257813 188.5225830078125 105.44729614257813 188.5225830078125 " />
        <polyline stroke="black" stroke-width="3" stroke-linecap="round" fill="transparent" stroke-linejoin="round" points="151.74365234375 127.07460021972656 168.1578369140625 117.81532287597656 178.2589111328125 114.02743530273438 180.7841796875 113.18568420410156 190.88519287109375 108.97691345214844 190.88519287109375 108.97691345214844 " />
        <polyline stroke="black" stroke-width="3" stroke-linecap="round" fill="transparent" stroke-linejoin="round" points="166.053466796875 90.03746032714844 160.1612548828125 124.12847900390624 159.31951904296875 158.21946716308594 162.265625 178.42152404785156 166.053466796875 188.10171508789065 166.053466796875 188.10171508789065 " />
        <polyline stroke="black" stroke-width="3" stroke-linecap="round" fill="transparent" stroke-linejoin="round" points="126.07022094726563 209.56640625 166.053466796875 200.72799682617188 197.61920166015625 196.51922607421875 227.08056640625 192.7313537597656 253.1749267578125 189.78518676757813 253.1749267578125 189.78518676757813 " />
        </svg>