<?xml version="1.0" standalone="no"?>
    <svg width="256" height="256" xmlns="http://www.w3.org/2000/svg" version="1.1">
    <polyline stroke="black" stroke-width="3" stroke-linecap="round" fill="transparent" stroke-linejoin="round" points="63 56 61 69 61 77 60 101 60 113 58 148 57 179 57 196 58 203 61 203 64 194 64 194 " />
        <polyline stroke="black" stroke-width="3" stroke-linecap="round" fill="transparent" stroke-linejoin="round" points="107 52 103 65 103 75 101 95 100 123 100 153 100 178 102 193 103 197 103 197 " />
        <polyline stroke="black" stroke-width="3" stroke-linecap="round" fill="transparent" stroke-linejoin="round" points="26 132 31 130 39 129 57 123 77 119 90 117 109 115 125 115 125 115 " />
        <polyline stroke="black" stroke-width="3" stroke-linecap="round" fill="transparent" stroke-linejoin="round" points="59 202 65 199 71 198 88 193 105 190 105 190 " />
        <polyline stroke="black" stroke-width="3" stroke-linecap="round" fill="transparent" stroke-linejoin="round" points="139 96 145 96 155 96 168 96 184 95 192 95 205 93 205 93 " />
        <polyline stroke="black" stroke-width="3" stroke-linecap="round" fill="transparent" stroke-linejoin="round" points="186 49 186 59 186 85 182 120 181 154 181 165 181 165 " />
        <polyline stroke="black" stroke-width="3" stroke-linecap="round" fill="transparent" stroke-linejoin="round" points="127 185 134 181 140 181 145 180 166 174 174 174 195 172 216 172 216 172 " />
        </svg>