<?xml version="1.0" standalone="no"?>
    <svg width="256" height="256" xmlns="http://www.w3.org/2000/svg" version="1.1">
    <polyline stroke="black" stroke-width="3" stroke-linecap="round" fill="transparent" stroke-linejoin="round" points="132.717529296875 31.22943115234375 137.67596435546875 40.59540557861328 135.47222900390625 48.8594970703125 120.04592895507813 74.75364685058594 109.57806396484376 85.22149658203125 109.57806396484376 85.22149658203125 " />
        <polyline stroke="black" stroke-width="3" stroke-linecap="round" fill="transparent" stroke-linejoin="round" points="69.91043090820313 96.2402801513672 81.48016357421875 91.28182983398438 92.49896240234376 86.87431335449219 108.4761962890625 82.466796875 153.102294921875 74.75364685058594 169.07952880859375 71.99894714355469 178.44549560546875 70.34613037109375 183.95489501953125 69.24424743652344 183.95489501953125 69.24424743652344 " />
        <polyline stroke="black" stroke-width="3" stroke-linecap="round" fill="transparent" stroke-linejoin="round" points="89.19329833984375 141.41732788085938 100.21209716796876 141.41732788085938 104.61962890625 141.41732788085938 111.78182983398438 139.76449584960938 123.90249633789063 136.4588623046875 155.85699462890625 127.0928955078125 169.6304931640625 121.58349609375 178.9964599609375 116.07411193847656 185.60772705078125 110.56471252441406 191.11712646484375 103.40249633789063 191.11712646484375 103.40249633789063 " />
        <polyline stroke="black" stroke-width="3" stroke-linecap="round" fill="transparent" stroke-linejoin="round" points="152.00042724609375 91.28182983398438 147.5928955078125 104.50437927246094 140.98162841796875 124.33819580078124 129.41189575195313 157.39456176757813 106.8233642578125 208.6319274902344 98.00836181640624 224.60919189453125 89.7442626953125 235.0770263671875 89.7442626953125 235.0770263671875 " />
        <polyline stroke="black" stroke-width="3" stroke-linecap="round" fill="transparent" stroke-linejoin="round" points="105.72149658203124 155.7417449951172 99.66116333007813 165.1077117919922 89.7442626953125 177.77932739257813 77.0726318359375 192.6546936035156 66.05386352539063 205.3262939453125 58.89166259765625 211.3866271972656 58.89166259765625 211.3866271972656 " />
        <polyline stroke="black" stroke-width="3" stroke-linecap="round" fill="transparent" stroke-linejoin="round" points="57.789764404296875 168.96429443359375 67.7066650390625 168.96429443359375 76.521728515625 170.6171112060547 89.19329833984375 173.37181091308594 106.8233642578125 178.88121032714844 133.81939697265625 186.5943603515625 156.9588623046875 194.85845947265625 193.871826171875 206.42816162109375 207.0943603515625 210.2847595214844 218.6640625 214.6922607421875 218.6640625 214.6922607421875 " />
        </svg>