<?xml version="1.0" standalone="no"?>
    <svg width="256" height="256" xmlns="http://www.w3.org/2000/svg" version="1.1">
    <polyline stroke="black" stroke-width="3" stroke-linecap="round" fill="transparent" stroke-linejoin="round" points="40.32891845703125 117.82144165039063 47.577972412109375 111.12998962402344 59.28802490234375 101.65045166015624 73.7861328125 91.61328125 89.39950561523438 82.69134521484375 102.22479248046876 75.99990844726563 110.589111328125 72.0965576171875 114.492431640625 70.4237060546875 114.492431640625 70.4237060546875 114.492431640625 70.4237060546875 " />
        <polyline stroke="black" stroke-width="3" stroke-linecap="round" fill="transparent" stroke-linejoin="round" points="68.20993041992188 97.18948364257813 60.40325927734375 109.45713806152344 51.4813232421875 135.10768127441406 44.78985595703125 161.3158416748047 42.00177001953125 178.04444885253906 41.44415283203125 191.4273376464844 42.55938720703125 197.5611572265625 46.462738037109375 200.90689086914065 52.0389404296875 199.79165649414065 63.74896240234375 192.5425720214844 75.458984375 182.50540161132813 84.38092041015625 170.79537963867188 90.5147705078125 156.85487365722656 90.5147705078125 156.85487365722656 " />
        <polyline stroke="black" stroke-width="3" stroke-linecap="round" fill="transparent" stroke-linejoin="round" points="67.65231323242188 136.78053283691406 84.93853759765625 136.22291564941406 94.4180908203125 133.992431640625 105.57049560546876 129.53146362304688 105.57049560546876 129.53146362304688 " />
        <polyline stroke="black" stroke-width="3" stroke-linecap="round" fill="transparent" stroke-linejoin="round" points="152.96826171875 38.08171081542969 150.18014526367188 54.25270080566406 143.48870849609375 82.69134521484375 133.4515380859375 147.3753204345703 132.3363037109375 170.79537963867188 132.3363037109375 188.6392517089844 132.3363037109375 201.46450805664065 132.3363037109375 208.15594482421875 132.3363037109375 208.15594482421875 " />
        <polyline stroke="black" stroke-width="3" stroke-linecap="round" fill="transparent" stroke-linejoin="round" points="131.7786865234375 156.29725646972656 144.04632568359375 152.95152282714844 154.08349609375 151.83628845214844 164.12066650390625 152.39390563964844 173.6002197265625 154.0667724609375 180.2916259765625 156.85487365722656 185.86785888671875 162.9886932373047 185.86785888671875 162.9886932373047 " />
        </svg>