<?xml version="1.0" standalone="no"?>
    <svg width="256" height="256" xmlns="http://www.w3.org/2000/svg" version="1.1">
    <polyline stroke="black" stroke-width="3" stroke-linecap="round" fill="transparent" stroke-linejoin="round" points="39.440277099609375 98.94444274902344 50.8365478515625 90.52110290527344 55.791473388671875 87.05267333984375 68.67425537109375 80.11578369140625 80.56600952148438 73.67440795898438 86.01644897460938 71.19694519042969 94.93527221679688 67.728515625 102.86312866210938 64.26007080078125 104.8450927734375 62.773590087890625 104.8450927734375 62.278106689453125 104.8450927734375 62.278106689453125 " />
        <polyline stroke="black" stroke-width="3" stroke-linecap="round" fill="transparent" stroke-linejoin="round" points="67.187744140625 91.5120849609375 64.21481323242188 105.88133239746094 63.719329833984375 111.82720947265624 63.223846435546875 118.76409912109376 60.74639892578125 140.07022094726563 59.75537109375 153.9439697265625 59.25994873046875 166.33126831054688 59.25994873046875 175.25010681152344 60.25091552734375 182.68246459960935 61.73736572265625 188.13287353515625 64.21481323242188 192.59228515625 67.68328857421875 195.56524658203125 73.629150390625 197.05169677734375 81.0615234375 195.0697326660156 87.99838256835938 190.61032104492188 93.94427490234376 184.1689453125 93.94427490234376 184.1689453125 " />
        <polyline stroke="black" stroke-width="3" stroke-linecap="round" fill="transparent" stroke-linejoin="round" points="72.14266967773438 152.9530029296875 87.00741577148438 152.45750427246094 91.96234130859376 151.96200561523438 96.917236328125 151.46653747558594 111.781982421875 147.99807739257813 120.205322265625 143.04315185546875 126.15121459960938 138.583740234375 126.15121459960938 138.583740234375 " />
        <polyline stroke="black" stroke-width="3" stroke-linecap="round" fill="transparent" stroke-linejoin="round" points="154.39422607421875 30.566673278808594 149.934814453125 49.39533996582031 147.95281982421875 62.773590087890625 145.97088623046875 78.62931823730469 142.00692749023438 127.68295288085938 140.52044677734375 154.9349365234375 139.52947998046875 175.25010681152344 138.53851318359375 190.61032104492188 137.54754638671875 197.05169677734375 134.57455444335938 209.43896484375 132.09710693359375 211.91644287109375 131.60162353515625 211.42095947265625 131.60162353515625 211.42095947265625 " />
        <polyline stroke="black" stroke-width="3" stroke-linecap="round" fill="transparent" stroke-linejoin="round" points="140.52044677734375 141.5566864013672 156.376220703125 141.5566864013672 161.3310546875 142.05218505859375 166.781494140625 142.54769897460938 175.7003173828125 143.53866577148438 179.1688232421875 144.03416442871094 181.646240234375 144.52963256835938 181.646240234375 144.52963256835938 " />
        </svg>