<?xml version="1.0" standalone="no"?>
    <svg width="256" height="256" xmlns="http://www.w3.org/2000/svg" version="1.1">
    <polyline stroke="black" stroke-width="3" stroke-linecap="round" fill="transparent" stroke-linejoin="round" points="49.8870849609375 66.97251892089844 61.08837890625 64.11865234375 72.2896728515625 61.26478576660156 80.00323486328125 59.58013916015625 97.42291259765624 55.30976867675781 105.55331420898438 53.089805603027344 124.1448974609375 47.11653137207031 130.33505249023438 44.977569580078125 134.10247802734375 42.68242645263672 134.16253662109375 42.60137939453125 131.746337890625 42.913475036621094 129.61065673828125 43.24481201171875 " />
        <polyline stroke="black" stroke-width="3" stroke-linecap="round" fill="transparent" stroke-linejoin="round" points="60.73675537109375 91.02630615234371 62.220458984375 95.64434814453124 63.70416259765625 100.26239013671876 65.31185913085938 106.61027526855467 67.91107177734375 122.9678192138672 68.198486328125 132.6829071044922 68.0428466796875 153.74949645996094 67.44793701171875 162.6480712890625 65.69332885742188 173.1138153076172 65.17111206054688 177.33102416992188 65.55819702148438 180.279296875 66.05575561523438 180.92160034179688 66.8558349609375 180.98583984375 68.46444702148438 180.58856201171875 70.03509521484375 179.9591064453125 78.248291015625 174.3381805419922 83.16989135742188 169.85935974121094 92.43026733398438 161.32000732421875 96.45089721679688 157.35972595214844 105.1400146484375 151.27493286132813 108.47030639648438 150.34695434570313 109.6231689453125 150.57369995117188 109.7156982421875 150.59185791015625 " />
        <polyline stroke="black" stroke-width="3" stroke-linecap="round" fill="transparent" stroke-linejoin="round" points="82.7305908203125 110.3269958496094 88.0126953125 107.70599365234376 93.2947998046875 105.08499145507813 106.74667358398438 99.02932739257813 111.56982421875 96.8164520263672 121.566650390625 93.96920776367188 126.95614624023438 93.20997619628906 127.49508666992188 93.13406372070313 127.5316162109375 93.12890625 " />
        <polyline stroke="black" stroke-width="3" stroke-linecap="round" fill="transparent" stroke-linejoin="round" points="142.31484985351563 37.455360412597656 140.58856201171875 41.31660461425781 138.86227416992188 45.17784881591797 138.61447143554688 54.45530700683594 141.40692138671875 85.94645690917969 143.72128295898438 104.7908172607422 157.7969970703125 139.85464477539063 159.7623291015625 157.7196044921875 159.7857666015625 194.3924560546875 159.24334716796875 208.8218688964844 157.989013671875 221.34796142578125 157.97821044921875 222.6702880859375 157.97808837890625 222.6822509765625 157.97808837890625 222.68359375 157.97808837890625 222.68359375 " />
        <polyline stroke="black" stroke-width="3" stroke-linecap="round" fill="transparent" stroke-linejoin="round" points="151.2548828125 117.35498046875 157.2967529296875 119.550048828125 163.338623046875 121.7451171875 181.2874755859375 128.09100341796875 192.66326904296875 132.0045623779297 208.98712158203125 138.45684814453125 214.863037109375 141.54122924804688 219.9107666015625 144.09886169433594 220.0601806640625 144.17092895507813 220.0750732421875 144.1781005859375 220.07611083984375 144.17857360839844 " />
        </svg>