<?xml version="1.0" standalone="no"?>
    <svg width="256" height="256" xmlns="http://www.w3.org/2000/svg" version="1.1">
    <polyline stroke="black" stroke-width="3" stroke-linecap="round" fill="transparent" stroke-linejoin="round" points="56 98.5 " />
        <polyline stroke="black" stroke-width="3" stroke-linecap="round" fill="transparent" stroke-linejoin="round" points="56 98 " />
        <polyline stroke="black" stroke-width="3" stroke-linecap="round" fill="transparent" stroke-linejoin="round" points="75.5 96.5 77.5 96 79.5 95.5 87.5 92 94.5 89.5 100 87 104 85 107 83.5 108.5 82.5 109 82.5 108.5 82.5 108.5 82.5 " />
        <polyline stroke="black" stroke-width="3" stroke-linecap="round" fill="transparent" stroke-linejoin="round" points="73 114.5 73.5 121 74 127.5 75 135 76.5 144 78.5 155.5 79.5 163 80.5 168.5 80.5 171.5 80.5 173.5 80 175 80 174.5 80.5 174 81 173 83.5 170.5 87 166.5 94 159 96.5 156.5 100 152 102.5 149 102.5 147.5 102.5 147.5 " />
        <polyline stroke="black" stroke-width="3" stroke-linecap="round" fill="transparent" stroke-linejoin="round" points="59 137.5 68 134 77 130.5 85.5 127 93 124 103 119.5 108.5 117.5 112 116 114 115 113.5 115 111.5 115 111.5 115 " />
        <polyline stroke="black" stroke-width="3" stroke-linecap="round" fill="transparent" stroke-linejoin="round" points="125.5 70.5 127.5 82.5 129.5 94.5 131 107 132 120 133 130.5 133 145 132.5 152.5 132.5 159 132 165 132 169.5 131 174.5 131 177 130.5 178 130.5 178.5 130 178.5 129 176 129 176 " />
        <polyline stroke="black" stroke-width="3" stroke-linecap="round" fill="transparent" stroke-linejoin="round" points="157 105 162.5 107.5 168 110 173.5 112.5 178 115 182 118 186.5 121.5 188 123.5 189 124 189 125 189.5 125.5 189 125.5 188 126 188 126 " />
        </svg>