<?xml version="1.0" standalone="no"?>
    <svg width="256" height="256" xmlns="http://www.w3.org/2000/svg" version="1.1">
    <polyline stroke="black" stroke-width="3" stroke-linecap="round" fill="transparent" stroke-linejoin="round" points="115.70022583007815 52.57203674316406 115.25213623046876 54.36443328857422 114.80404663085938 56.156829833984375 114.35589599609376 57.501129150390625 113.459716796875 60.18974304199219 111.66732788085938 66.46315002441406 108.97869873046876 73.63276672363281 105.39389038085938 83.49098205566406 101.80908203125 93.34919738769533 98.67236328125 101.86312866210938 95.98382568359376 108.58464050292967 94.19137573242188 113.06564331054688 92.84710693359376 116.20233154296876 91.95089721679688 118.89096069335938 91.0546875 120.68338012695313 90.158447265625 122.47575378417967 89.71038818359375 123.37197875976563 89.26229858398438 123.82005310058594 89.26229858398438 125.1643524169922 89.26229858398438 126.06057739257813 89.26229858398438 126.50865173339844 89.71038818359375 126.50865173339844 90.158447265625 126.50865173339844 93.295166015625 125.1643524169922 97.77621459960938 123.37197875976563 104.4976806640625 120.68338012695313 113.0115966796875 118.44285583496094 123.31793212890624 116.65045166015624 133.1761474609375 116.20233154296876 138.105224609375 116.20233154296876 151.1002197265625 118.89096069335938 156.92547607421875 123.82005310058594 162.302734375 135.91879272460938 164.9913330078125 153.39471435546875 164.9913330078125 170.8706512451172 162.7508544921875 184.31365966796875 158.7178955078125 194.171875 156.4774169921875 198.20480346679688 148.41156005859375 205.3743896484375 139.00146484375 207.61492919921875 128.69515991210938 204.47821044921875 128.69515991210938 204.47821044921875 " />
        <polyline stroke="black" stroke-width="3" stroke-linecap="round" fill="transparent" stroke-linejoin="round" points="128.24700927734375 82.59478759765625 134.52044677734375 80.80238342285156 140.79388427734375 79.00997924804688 143.03436279296875 78.56187438964844 148.41156005859375 77.66567993164063 150.652099609375 78.11376953125 150.652099609375 78.11376953125 " />
        <polyline stroke="black" stroke-width="3" stroke-linecap="round" fill="transparent" stroke-linejoin="round" points="119.28500366210938 140.84791564941406 111.21920776367188 152.94662475585938 103.15341186523438 165.0453338623047 80.30026245117188 199.9971923828125 68.64962768554688 214.33642578125 68.64962768554688 214.33642578125 " />
        </svg>