<?xml version="1.0" standalone="no"?>
    <svg width="256" height="256" xmlns="http://www.w3.org/2000/svg" version="1.1">
    <polyline stroke="black" stroke-width="3" stroke-linecap="round" fill="transparent" stroke-linejoin="round" points="89.66629028320313 61.83056640625 89.2235107421875 71.87533569335938 88.78073120117188 81.92010498046875 86.06561279296875 100.74789428710938 81.82736206054688 116.382568359375 80.21856689453125 120.32267761230467 77.86346435546875 124.42718505859376 77.62509155273438 124.8697509765625 77.54794311523438 125.01296997070313 77.53851318359375 125.030517578125 77.53094482421875 125.04454040527344 79.53915405273438 125.33819580078124 82.18841552734375 125.32516479492188 94.48934936523438 124.02517700195313 102.97994995117188 121.98226928710938 118.35870361328124 117.10081481933594 131.56088256835938 114.79429626464844 136.21234130859375 115.2705078125 139.60934448242188 115.80682373046876 146.269287109375 118.03013610839844 149.44769287109375 120.8125457763672 151.01177978515625 122.74313354492188 158.96343994140625 141.50839233398438 162.3563232421875 157.70477294921875 161.87713623046875 188.27218627929688 160.2054443359375 201.34695434570313 155.129638671875 217.05776977539065 150.05047607421875 224.78228759765625 147.62298583984375 228.57916259765625 145.61395263671875 231.04193115234375 142.1749267578125 232.87921142578125 138.24224853515625 233.4447326660156 135.05648803710938 233.30328369140625 125.977783203125 229.505126953125 120.63641357421876 223.49148559570313 113.984619140625 212.8775634765625 113.2501220703125 210.54901123046875 " />
        <polyline stroke="black" stroke-width="3" stroke-linecap="round" fill="transparent" stroke-linejoin="round" points="107.16168212890625 89.7640380859375 125.35348510742188 85.70556640625 143.5452880859375 81.6470947265625 152.64697265625 80.15325927734375 161.43939208984375 79.59297180175781 172.6483154296875 80.43653869628906 177.5025634765625 82.36947631835938 175.5587158203125 82.92196655273438 " />
        <polyline stroke="black" stroke-width="3" stroke-linecap="round" fill="transparent" stroke-linejoin="round" points="114.5006103515625 131.99716186523438 100.50057983398438 152.1666717529297 86.50054931640625 172.336181640625 80.30233764648438 181.61279296875 68.35211181640625 202.0082092285156 62.47296142578125 212.68353271484375 53.06689453125 225.74127197265625 52.640960693359375 226.16616821289065 " />
        </svg>