<?xml version="1.0" standalone="no"?>
    <svg width="256" height="256" xmlns="http://www.w3.org/2000/svg" version="1.1">
    <polyline stroke="black" stroke-width="3" stroke-linecap="round" fill="transparent" stroke-linejoin="round" points="83.676513671875 94.3311767578125 109.38531494140624 80.86468505859375 125.912353515625 72.29508972167969 141.2152099609375 63.72550964355469 152.23321533203125 57.6043701171875 152.23321533203125 57.6043701171875 " />
        <polyline stroke="black" stroke-width="3" stroke-linecap="round" fill="transparent" stroke-linejoin="round" points="88.57342529296875 125.5489501953125 75.71905517578125 167.17266845703125 70.8221435546875 183.69973754882813 68.37371826171875 198.39044189453125 69.59793090820313 206.34793090820313 76.94329833984375 207.5721435546875 95.9188232421875 199.0025634765625 115.50640869140624 183.08761596679688 130.80926513671875 164.72421264648438 139.990966796875 151.8698272705078 139.990966796875 151.8698272705078 " />
        <polyline stroke="black" stroke-width="3" stroke-linecap="round" fill="transparent" stroke-linejoin="round" points="90.4097900390625 110.24612426757813 103.87628173828124 102.9007568359375 117.3427734375 96.77963256835938 130.1971435546875 94.94328308105467 139.37884521484375 98.615966796875 146.11209106445313 110.85823059082033 149.17266845703125 131.6700897216797 151.62109375 154.3182830810547 155.2938232421875 172.6816864013672 162.02703857421875 186.76028442382813 168.76025390625 195.9419860839844 176.10565185546875 202.0631103515625 185.89947509765625 205.12368774414065 193.85693359375 202.67523193359375 199.97802734375 192.88140869140625 199.97802734375 192.88140869140625 " />
        <polyline stroke="black" stroke-width="3" stroke-linecap="round" fill="transparent" stroke-linejoin="round" points="109.99740600585938 131.05796813964844 114.28219604492188 135.9548797607422 117.3427734375 140.85179138183594 119.17910766601563 148.1971435546875 119.17910766601563 148.1971435546875 " />
        </svg>