<?xml version="1.0" standalone="no"?>
    <svg width="256" height="256" xmlns="http://www.w3.org/2000/svg" version="1.1">
    <polyline stroke="black" stroke-width="3" stroke-linecap="round" fill="transparent" stroke-linejoin="round" points="68.93460083007813 99.30422973632813 81.4166259765625 91.5772705078125 96.87051391601563 82.66156005859375 114.10757446289063 74.93460083007813 128.96710205078125 68.39640808105469 142.63787841796875 62.452606201171875 152.7423095703125 58.886322021484375 159.8748779296875 54.72564697265625 159.8748779296875 54.72564697265625 " />
        <polyline stroke="black" stroke-width="3" stroke-linecap="round" fill="transparent" stroke-linejoin="round" points="87.36041259765625 129.61766052246094 78.4447021484375 150.42100524902344 71.3121337890625 167.65805053710938 64.77392578125 184.30072021484375 62.99078369140625 194.40521240234375 63.585174560546875 200.3490295410156 69.52899169921875 203.91531372070313 77.25592041015625 203.91531372070313 90.92669677734376 197.97149658203125 102.8143310546875 189.650146484375 113.51318359375 181.32882690429688 121.83453369140624 171.8187255859375 129.56146240234375 158.14796447753906 129.56146240234375 158.14796447753906 " />
        <polyline stroke="black" stroke-width="3" stroke-linecap="round" fill="transparent" stroke-linejoin="round" points="90.33233642578124 122.48509216308594 101.03118896484376 118.32443237304688 114.70196533203124 112.97499084472656 127.7783203125 107.03118896484376 140.854736328125 102.27613830566406 151.5535888671875 98.70985412597656 159.8748779296875 96.9267120361328 165.224365234375 96.9267120361328 167.60186767578125 101.08737182617188 168.7906494140625 111.1918487548828 168.7906494140625 127.8345184326172 168.7906494140625 146.2603302001953 170.57379150390625 161.11985778808594 173.545654296875 174.1962432861328 177.70635986328125 183.11196899414065 182.46142578125 190.2445373535156 187.2164306640625 195.59396362304688 192.56591796875 199.754638671875 197.915283203125 203.3209228515625 202.075927734375 205.10406494140625 206.23663330078125 205.10406494140625 210.3973388671875 202.72653198242188 210.3973388671875 202.72653198242188 " />
        <polyline stroke="black" stroke-width="3" stroke-linecap="round" fill="transparent" stroke-linejoin="round" points="112.9188232421875 146.2603302001953 118.86260986328124 149.82662963867188 124.80642700195313 153.39291381835938 128.96710205078125 156.95919799804688 131.93899536132813 161.11985778808594 131.93899536132813 161.11985778808594 " />
        </svg>