<?xml version="1.0" standalone="no"?>
    <svg width="256" height="256" xmlns="http://www.w3.org/2000/svg" version="1.1">
    <polyline stroke="black" stroke-width="3" stroke-linecap="round" fill="transparent" stroke-linejoin="round" points="82 86 83 86 92 83 111 77 135 71 154 66 167 64 167 64 " />
        <polyline stroke="black" stroke-width="3" stroke-linecap="round" fill="transparent" stroke-linejoin="round" points="98 95 98 97 98 98 97 104 96 107 94 116 94 119 91 133 88 147 86 159 84 166 84 170 84 172 84 173 84 172 85 172 85 171 85 170 86 170 86 169 89 167 93 165 95 164 103 159 106 157 123 147 134 141 134 141 " />
        <polyline stroke="black" stroke-width="3" stroke-linecap="round" fill="transparent" stroke-linejoin="round" points="109 122 109 123 112 127 120 131 127 134 127 134 " />
        <polyline stroke="black" stroke-width="3" stroke-linecap="round" fill="transparent" stroke-linejoin="round" points="100 109 102 108 103 107 108 106 116 104 119 104 132 101 142 99 151 97 153 96 156 96 156 97 155 98 155 99 154 101 152 104 151 115 149 133 149 147 150 151 153 162 155 166 164 176 172 180 174 181 183 182 195 178 201 174 204 170 204 167 205 163 206 159 206 158 207 154 207 151 207 150 207 149 207 149 " />
        </svg>