<?xml version="1.0" standalone="no"?>
    <svg width="256" height="256" xmlns="http://www.w3.org/2000/svg" version="1.1">
    <polyline stroke="black" stroke-width="3" stroke-linecap="round" fill="transparent" stroke-linejoin="round" points="152.20733642578125 34.054664611816406 148.04248046875 36.48527526855469 143.87762451171875 38.91588592529297 121.65402221679688 52.05296325683594 106.51983642578124 65.47157287597656 99.75128173828124 73.16305541992188 82.442138671875 92.36167907714844 73.33563232421875 99.7503662109375 54.22369384765625 114.23089599609376 45.063232421875 120.7452392578125 28.05029296875 131.66806030273438 27.2508544921875 132.09884643554688 " />
        <polyline stroke="black" stroke-width="3" stroke-linecap="round" fill="transparent" stroke-linejoin="round" points="71.84991455078125 129.16159057617188 72.4061279296875 144.90597534179688 72.96234130859375 160.65036010742188 73.75457763671875 176.32952880859375 74.310302734375 188.69415283203125 75.78329467773438 203.04684448242188 77.2484130859375 204.5394592285156 77.323974609375 204.54330444335935 77.329833984375 204.5435791015625 78.12957763671875 203.89410400390625 83.70150756835938 198.05413818359375 89.507080078125 191.28659057617188 104.59970092773438 174.9307098388672 108.30380249023438 166.75311279296875 108.35809326171876 165.32470703125 " />
        <polyline stroke="black" stroke-width="3" stroke-linecap="round" fill="transparent" stroke-linejoin="round" points="130.435302734375 78.55101013183594 131.3662109375 79.24798583984375 132.297119140625 79.94496154785156 134.12005615234375 83.29080200195313 140.59091186523438 103.66928100585938 145.563720703125 119.85629272460938 167.58709716796875 153.06204223632813 182.03826904296875 182.1822509765625 186.016845703125 189.5595703125 193.4732666015625 202.4185791015625 197.30810546875 211.66485595703125 197.69158935546875 212.5894775390625 " />
        </svg>