<?xml version="1.0" standalone="no"?>
    <svg width="256" height="256" xmlns="http://www.w3.org/2000/svg" version="1.1">
    <polyline stroke="black" stroke-width="3" stroke-linecap="round" fill="transparent" stroke-linejoin="round" points="120.7205810546875 62.36761474609375 115.6845703125 76.63627624511719 112.32723999023438 85.44927978515625 112.32723999023438 85.44927978515625 " />
        <polyline stroke="black" stroke-width="3" stroke-linecap="round" fill="transparent" stroke-linejoin="round" points="105.61260986328124 107.27194213867188 114.84521484375 104.7539520263672 139.60556030273438 97.61959838867188 150.93658447265625 94.68194580078124 158.0709228515625 93.84260559082033 160.16925048828125 93.84260559082033 160.16925048828125 93.84260559082033 " />
        <polyline stroke="black" stroke-width="3" stroke-linecap="round" fill="transparent" stroke-linejoin="round" points="76.65560913085938 165.60557556152344 83.37030029296875 162.24822998046875 102.6749267578125 153.8549041748047 117.36325073242188 148.39923095703125 124.917236328125 144.6222381591797 124.917236328125 144.6222381591797 " />
        <polyline stroke="black" stroke-width="3" stroke-linecap="round" fill="transparent" stroke-linejoin="round" points="80.85226440429688 157.63189697265625 77.07528686523438 173.5792236328125 73.71795654296875 189.10690307617188 72.45895385742188 195.40191650390625 70.7802734375 204.21490478515625 70.360595703125 208.41156005859375 70.360595703125 209.67056274414065 70.360595703125 209.67056274414065 " />
        <polyline stroke="black" stroke-width="3" stroke-linecap="round" fill="transparent" stroke-linejoin="round" points="98.89794921875 182.39224243164065 101.83563232421876 183.2315673828125 104.77328491210938 183.65122985839844 113.16659545898438 186.16925048828125 113.16659545898438 186.16925048828125 " />
        <polyline stroke="black" stroke-width="3" stroke-linecap="round" fill="transparent" stroke-linejoin="round" points="138.3465576171875 158.4712371826172 142.543212890625 156.79257202148438 146.73992919921875 155.11392211914063 155.13323974609375 151.75657653808594 163.10693359375 147.55992126464844 163.10693359375 147.55992126464844 " />
        <polyline stroke="black" stroke-width="3" stroke-linecap="round" fill="transparent" stroke-linejoin="round" points="147.15960693359375 145.88125610351563 143.80224609375 156.37290954589844 140.86459350585938 166.44491577148438 136.24822998046875 185.32989501953125 133.730224609375 198.33956909179688 132.89093017578125 202.5362243652344 132.05160522460938 207.15255737304688 132.05160522460938 207.99188232421875 132.05160522460938 207.99188232421875 " />
        <polyline stroke="black" stroke-width="3" stroke-linecap="round" fill="transparent" stroke-linejoin="round" points="155.97259521484375 184.49057006835935 163.10693359375 193.30355834960935 163.10693359375 193.30355834960935 " />
        </svg>