<?xml version="1.0" standalone="no"?>
    <svg width="256" height="256" xmlns="http://www.w3.org/2000/svg" version="1.1">
    <polyline stroke="black" stroke-width="3" stroke-linecap="round" fill="transparent" stroke-linejoin="round" points="117 36 117 42 117 50 117 56 117 56 " />
        <polyline stroke="black" stroke-width="3" stroke-linecap="round" fill="transparent" stroke-linejoin="round" points="80 65 79 66 81 67 89 66 93 65 109 62 130 58 149 56 164 55 170 55 171 55 173 55 173 55 " />
        <polyline stroke="black" stroke-width="3" stroke-linecap="round" fill="transparent" stroke-linejoin="round" points="81 113 82 112 83 112 87 110 94 108 96 108 106 106 116 104 123 103 125 102 125 102 " />
        <polyline stroke="black" stroke-width="3" stroke-linecap="round" fill="transparent" stroke-linejoin="round" points="103 81 104 81 104 85 103 94 100 106 98 111 93 126 91 131 82 153 74 170 69 179 65 182 65 180 65 180 " />
        <polyline stroke="black" stroke-width="3" stroke-linecap="round" fill="transparent" stroke-linejoin="round" points="96 121 97 121 98 127 103 138 109 151 114 164 119 174 122 181 124 183 124 183 " />
        <polyline stroke="black" stroke-width="3" stroke-linecap="round" fill="transparent" stroke-linejoin="round" points="133 122 133 123 134 123 135 123 144 121 151 119 164 117 175 115 178 113 187 112 187 112 " />
        <polyline stroke="black" stroke-width="3" stroke-linecap="round" fill="transparent" stroke-linejoin="round" points="168 92 167 103 162 121 156 145 154 151 147 168 145 174 137 192 132 201 131 202 131 202 " />
        <polyline stroke="black" stroke-width="3" stroke-linecap="round" fill="transparent" stroke-linejoin="round" points="167 124 166 125 166 131 168 136 172 145 175 150 184 164 192 178 200 189 208 196 212 197 212 197 " />
        </svg>