<?xml version="1.0" standalone="no"?>
    <svg width="256" height="256" xmlns="http://www.w3.org/2000/svg" version="1.1">
    <polyline stroke="black" stroke-width="3" stroke-linecap="round" fill="transparent" stroke-linejoin="round" points="95.3402099609375 52.09535217285156 95.3402099609375 63.11338806152344 93.50384521484376 87.59793090820313 87.38272094726563 123.10049438476563 75.14044189453125 157.990966796875 62.28607177734375 186.14816284179688 52.49224853515625 202.67523193359375 43.310546875 216.1417236328125 43.310546875 216.1417236328125 " />
        <polyline stroke="black" stroke-width="3" stroke-linecap="round" fill="transparent" stroke-linejoin="round" points="113.09149169921876 58.21649169921875 124.10952758789063 49.64689636230469 135.73968505859375 42.301536560058594 147.36981201171875 36.18040466308594 155.3272705078125 34.34406280517578 160.8363037109375 38.62886047363281 163.89691162109375 52.70746612548828 161.44842529296875 88.82215881347656 156.551513671875 123.71261596679688 154.10308837890625 153.09405517578125 156.551513671875 175.74224853515625 162.67266845703125 195.32986450195313 171.8543701171875 206.96002197265625 185.32086181640625 214.91751098632813 201.23583984375 216.75384521484375 212.865966796875 215.52963256835935 220.2113037109375 212.46905517578125 226.33245849609375 206.96002197265625 231.8414306640625 197.7783203125 236.7384033203125 176.3543701171875 234.2899169921875 135.9548797607422 234.2899169921875 135.9548797607422 " />
        </svg>