<?xml version="1.0" standalone="no"?>
    <svg width="256" height="256" xmlns="http://www.w3.org/2000/svg" version="1.1">
    <polyline stroke="black" stroke-width="3" stroke-linecap="round" fill="transparent" stroke-linejoin="round" points="131.78707885742188 45.32488250732422 135.61859130859375 51.34586334228515 135.61859130859375 56.819488525390625 131.23971557617188 59.55628967285156 131.23971557617188 59.55628967285156 " />
        <polyline stroke="black" stroke-width="3" stroke-linecap="round" fill="transparent" stroke-linejoin="round" points="62.819488525390625 90.20855712890624 72.6719970703125 88.56646728515625 87.99810791015625 84.73493957519531 115.3662109375 77.61923217773438 137.26068115234375 72.69297790527344 154.2288818359375 69.40879821777344 167.3656005859375 66.6719970703125 173.3865966796875 65.0299072265625 175.5760498046875 62.29310607910156 175.5760498046875 62.29310607910156 " />
        <polyline stroke="black" stroke-width="3" stroke-linecap="round" fill="transparent" stroke-linejoin="round" points="97.85064697265624 123.59762573242188 106.06106567382813 119.76609802246094 115.91357421875 115.38720703125 126.86083984375 109.91357421875 126.86083984375 109.91357421875 " />
        <polyline stroke="black" stroke-width="3" stroke-linecap="round" fill="transparent" stroke-linejoin="round" points="101.68218994140624 118.12400817871094 92.92437744140624 133.99749755859375 84.16659545898438 148.22891235351563 78.1456298828125 158.6287841796875 75.4088134765625 163.55503845214844 76.5035400390625 163.55503845214844 76.5035400390625 163.55503845214844 " />
        <polyline stroke="black" stroke-width="3" stroke-linecap="round" fill="transparent" stroke-linejoin="round" points="101.13482666015624 152.60780334472656 106.60842895507813 155.34461975097656 111.53466796875 156.43934631347656 111.53466796875 156.43934631347656 " />
        <polyline stroke="black" stroke-width="3" stroke-linecap="round" fill="transparent" stroke-linejoin="round" points="135.61859130859375 119.21873474121094 144.37640380859375 115.93455505371094 154.7762451171875 113.19775390625 163.5340576171875 109.91357421875 172.2918701171875 106.08204650878906 172.2918701171875 106.08204650878906 " />
        <polyline stroke="black" stroke-width="3" stroke-linecap="round" fill="transparent" stroke-linejoin="round" points="157.5130615234375 96.2295379638672 146.01849365234375 125.78707885742188 139.99749755859375 141.1132049560547 133.42916870117188 154.79725646972656 127.95553588867188 165.19712829589844 127.95553588867188 165.19712829589844 " />
        <polyline stroke="black" stroke-width="3" stroke-linecap="round" fill="transparent" stroke-linejoin="round" points="160.2498779296875 135.63958740234375 171.7445068359375 135.63958740234375 181.04962158203125 136.18695068359375 188.16534423828125 136.18695068359375 188.16534423828125 136.18695068359375 " />
        <polyline stroke="black" stroke-width="3" stroke-linecap="round" fill="transparent" stroke-linejoin="round" points="103.32427978515624 183.80743408203125 114.271484375 178.8811798095703 126.3134765625 172.31283569335938 137.80804443359375 164.10240173339844 137.80804443359375 164.10240173339844 " />
        <polyline stroke="black" stroke-width="3" stroke-linecap="round" fill="transparent" stroke-linejoin="round" points="105.51370239257813 205.154541015625 114.271484375 202.417724609375 123.57666015625 196.39675903320313 131.23971557617188 190.37576293945313 135.07122802734375 184.35479736328125 135.07122802734375 177.7864532470703 135.07122802734375 177.7864532470703 " />
        <polyline stroke="black" stroke-width="3" stroke-linecap="round" fill="transparent" stroke-linejoin="round" points="99.49273681640624 188.18634033203125 100.04010009765624 201.322998046875 100.58746337890624 212.81759643554688 101.13482666015624 221.02804565429688 101.13482666015624 225.95428466796875 101.13482666015624 225.95428466796875 101.13482666015624 225.95428466796875 " />
        <polyline stroke="black" stroke-width="3" stroke-linecap="round" fill="transparent" stroke-linejoin="round" points="133.97650146484375 207.343994140625 132.33444213867188 211.722900390625 130.14498901367188 212.81759643554688 128.50289916992188 210.080810546875 128.50289916992188 203.512451171875 132.88180541992188 193.65994262695313 140.54486083984375 183.26007080078125 150.39739990234375 173.95492553710938 160.2498779296875 167.38658142089844 169.0076904296875 163.55503845214844 176.6707763671875 164.10240173339844 182.14434814453125 169.57601928710938 187.61798095703125 184.90216064453125 187.61798095703125 200.22830200195313 184.88116455078125 208.438720703125 179.4075927734375 212.81759643554688 172.2918701171875 213.36495971679688 164.6287841796875 208.986083984375 164.6287841796875 208.986083984375 " />
        <polyline stroke="black" stroke-width="3" stroke-linecap="round" fill="transparent" stroke-linejoin="round" points="151.4920654296875 164.64976501464844 153.1341552734375 188.18634033203125 155.3236083984375 203.512451171875 158.0604248046875 217.19650268554688 159.7025146484375 229.23846435546875 159.7025146484375 229.23846435546875 " />
        </svg>