<?xml version="1.0" standalone="no"?>
    <svg width="256" height="256" xmlns="http://www.w3.org/2000/svg" version="1.1">
    <polyline stroke="black" stroke-width="3" stroke-linecap="round" fill="transparent" stroke-linejoin="round" points="171.768310546875 54.50616455078125 147.9959716796875 61.52980041503906 133.94869995117188 65.311767578125 111.79721069335938 70.17428588867188 102.0721435546875 71.79513549804688 94.50823974609376 72.87568664550781 92.34710693359376 72.87568664550781 89.64572143554688 72.87568664550781 89.10540771484375 72.87568664550781 88.56515502929688 72.87568664550781 88.56515502929688 72.87568664550781 " />
        <polyline stroke="black" stroke-width="3" stroke-linecap="round" fill="transparent" stroke-linejoin="round" points="89.10540771484375 32.35466003417969 87.48458862304688 63.69091796875 88.56515502929688 75.57708740234375 90.72625732421876 86.3826904296875 93.96795654296876 104.75222778320313 95.58880615234376 118.79949951171876 97.20965576171876 124.20231628417967 100.9915771484375 131.2259521484375 103.1527099609375 132.8468017578125 108.55551147460938 136.08848571777344 111.79721069335938 137.16905212402344 121.522216796875 139.33016967773438 125.844482421875 139.33016967773438 135.56951904296875 140.41073608398438 139.35150146484375 140.95101928710938 146.3751220703125 140.41073608398438 149.0765380859375 140.41073608398438 152.3182373046875 139.87046813964844 153.9390869140625 139.87046813964844 156.1002197265625 138.78988647460938 157.7210693359375 137.70932006835938 160.96270751953125 134.46763610839844 163.66412353515625 131.7662353515625 173.929443359375 117.71896362304688 188.51702880859375 86.9229736328125 188.51702880859375 86.9229736328125 188.51702880859375 86.9229736328125 188.51702880859375 86.9229736328125 " />
        <polyline stroke="black" stroke-width="3" stroke-linecap="round" fill="transparent" stroke-linejoin="round" points="85.32345581054688 179.31089782714844 75.05816650390625 189.03594970703125 66.41366577148438 197.68045043945313 50.74554443359375 213.88885498046875 45.34271240234375 220.9124755859375 38.319091796875 230.63754272460935 36.157958984375 233.33892822265625 34.537109375 236.58062744140625 35.077392578125 237.12091064453125 35.077392578125 237.12091064453125 " />
        <polyline stroke="black" stroke-width="3" stroke-linecap="round" fill="transparent" stroke-linejoin="round" points="153.3988037109375 178.7706298828125 170.1474609375 199.84158325195313 176.090576171875 208.48605346679688 180.953125 214.96942138671875 187.97674560546875 223.6138916015625 194.4600830078125 229.55697631835935 196.6212158203125 231.71810913085935 200.4031982421875 237.12091064453125 200.4031982421875 237.12091064453125 " />
        </svg>