<?xml version="1.0" standalone="no"?>
    <svg width="256" height="256" xmlns="http://www.w3.org/2000/svg" version="1.1">
    <polyline stroke="black" stroke-width="3" stroke-linecap="round" fill="transparent" stroke-linejoin="round" points="71.765380859375 109.5684051513672 79.99252319335938 105.454833984375 91.81906127929688 98.25607299804688 106.73077392578124 90.54312133789063 122.15667724609376 82.31596374511719 138.0968017578125 76.14558410644531 148.3807373046875 71.00361633300781 153.522705078125 68.43263244628906 155.57952880859375 67.40423583984375 155.57952880859375 67.40423583984375 " />
        <polyline stroke="black" stroke-width="3" stroke-linecap="round" fill="transparent" stroke-linejoin="round" points="79.99252319335938 62.26226806640625 70.73696899414063 97.22767639160156 65.59500122070313 128.5937042236328 65.080810546875 143.50543212890625 68.16598510742188 154.81776428222656 78.964111328125 160.47393798828125 99.017822265625 161.50233459472656 125.24188232421876 155.84616088867188 143.23876953125 149.67579650878906 158.1505126953125 143.50543212890625 166.377685546875 139.9060516357422 169.46282958984375 137.84925842285156 169.46282958984375 137.84925842285156 " />
        <polyline stroke="black" stroke-width="3" stroke-linecap="round" fill="transparent" stroke-linejoin="round" points="70.2227783203125 184.12701416015625 65.080810546875 193.382568359375 59.9388427734375 203.66650390625 55.31103515625 213.43624877929688 52.225860595703125 219.0924072265625 51.711669921875 222.1776123046875 54.28265380859375 220.12081909179688 54.28265380859375 220.12081909179688 " />
        <polyline stroke="black" stroke-width="3" stroke-linecap="round" fill="transparent" stroke-linejoin="round" points="122.15667724609376 188.7547912597656 129.35546875 196.46774291992188 138.0968017578125 209.3226623535156 146.83816528320313 223.72018432617188 154.03692626953125 234.004150390625 154.03692626953125 234.004150390625 " />
        </svg>