<?xml version="1.0" standalone="no"?>
    <svg width="256" height="256" xmlns="http://www.w3.org/2000/svg" version="1.1">
    <polyline stroke="black" stroke-width="3" stroke-linecap="round" fill="transparent" stroke-linejoin="round" points="97.35855102539063 108.02581787109376 108.15667724609376 104.42643737792967 117.4122314453125 101.3412628173828 129.75299072265625 97.74188232421876 142.09368896484375 93.11410522460938 153.40606689453125 89.51472473144531 161.6331787109375 86.42953491210938 166.260986328125 83.85855102539063 168.83197021484375 81.8017578125 168.83197021484375 81.8017578125 " />
        <polyline stroke="black" stroke-width="3" stroke-linecap="round" fill="transparent" stroke-linejoin="round" points="98.901123046875 50.43572998046875 99.41534423828124 63.29066467285156 98.901123046875 73.57460021972656 97.87274169921876 86.9437255859375 97.87274169921876 101.3412628173828 98.901123046875 115.22457885742188 101.986328125 127.5653076171875 106.61410522460938 135.79246520996094 113.29864501953124 141.96282958984375 126.15359497070313 147.61900329589844 140.55111694335938 149.16159057617188 153.92022705078125 148.13320922851563 164.2042236328125 146.076416015625 171.4029541015625 143.50543212890625 175.51654052734375 141.44863891601563 179.11590576171875 137.84925842285156 179.11590576171875 137.84925842285156 " />
        <polyline stroke="black" stroke-width="3" stroke-linecap="round" fill="transparent" stroke-linejoin="round" points="93.7591552734375 167.15850830078125 87.58880615234375 173.8430633544922 84.50360107421875 180.013427734375 80.39004516601563 187.72637939453125 77.81906127929688 193.89675903320313 77.81906127929688 198.5245361328125 77.81906127929688 201.60971069335935 81.41845703125 202.63812255859375 81.41845703125 202.63812255859375 " />
        <polyline stroke="black" stroke-width="3" stroke-linecap="round" fill="transparent" stroke-linejoin="round" points="155.46282958984375 166.64430236816406 165.23260498046875 174.35726928710938 171.4029541015625 181.0418243408203 176.544921875 188.2406005859375 181.6868896484375 196.46774291992188 185.2862548828125 205.72329711914065 187.8572998046875 220.635009765625 187.8572998046875 220.635009765625 " />
        </svg>