<?xml version="1.0" standalone="no"?>
    <svg width="256" height="256" xmlns="http://www.w3.org/2000/svg" version="1.1">
    <polyline stroke="black" stroke-width="3" stroke-linecap="round" fill="transparent" stroke-linejoin="round" points="69.46270751953125 64.49079895019531 74.8121337890625 73.40650939941406 78.9727783203125 79.9447021484375 82.5390625 85.88851928710938 87.88851928710938 90.64356994628906 87.88851928710938 90.64356994628906 " />
        <polyline stroke="black" stroke-width="3" stroke-linecap="round" fill="transparent" stroke-linejoin="round" points="151.4873046875 21.100975036621097 144.354736328125 38.932411193847656 134.250244140625 54.98069763183594 117.01318359375 83.510986328125 97.99298095703124 113.23004150390624 70.05706787109375 156.02548217773438 56.386322021484375 173.85691833496094 45.09307861328125 185.7445373535156 38.55487060546875 190.49957275390625 38.55487060546875 190.49957275390625 " />
        <polyline stroke="black" stroke-width="3" stroke-linecap="round" fill="transparent" stroke-linejoin="round" points="53.4144287109375 112.04127502441406 63.518890380859375 108.47499084472656 76.00088500976563 103.71994018554688 92.0491943359375 98.96490478515624 115.23004150390624 94.20985412597656 133.06146240234375 91.8323211669922 152.676025390625 90.64356994628906 168.12994384765625 90.64356994628906 177.64007568359375 90.64356994628906 182.3951416015625 90.64356994628906 182.3951416015625 90.64356994628906 " />
        <polyline stroke="black" stroke-width="3" stroke-linecap="round" fill="transparent" stroke-linejoin="round" points="100.37051391601563 120.95700073242188 87.88851928710938 148.89291381835938 80.16156005859375 173.85691833496094 77.18963623046875 186.93328857421875 77.7840576171875 197.03778076171875 80.75592041015625 203.57595825195313 86.10537719726563 205.9534912109375 93.23794555664063 205.9534912109375 100.37051391601563 202.98159790039065 108.09747314453124 197.03778076171875 115.23004150390624 188.7164306640625 125.33453369140624 170.29063415527344 125.33453369140624 170.29063415527344 " />
        <polyline stroke="black" stroke-width="3" stroke-linecap="round" fill="transparent" stroke-linejoin="round" points="121.76824951171876 116.2019500732422 124.145751953125 127.49519348144533 130.08956909179688 138.78843688964844 139.59967041015625 155.4311065673828 153.86480712890625 175.04568481445313 168.12994384765625 192.87710571289065 179.4232177734375 208.33102416992188 186.5557861328125 219.624267578125 186.5557861328125 219.624267578125 " />
        </svg>