<?xml version="1.0" standalone="no"?>
    <svg width="256" height="256" xmlns="http://www.w3.org/2000/svg" version="1.1">
    <polyline stroke="black" stroke-width="3" stroke-linecap="round" fill="transparent" stroke-linejoin="round" points="82.59588623046874 79.0735168457031 87.12396240234375 90.5995635986328 91.65203857421876 102.1256103515625 91.65203857421876 102.1256103515625 " />
        <polyline stroke="black" stroke-width="3" stroke-linecap="round" fill="transparent" stroke-linejoin="round" points="74.36297607421875 123.53111267089847 110.58767700195313 109.5352020263672 146.8123779296875 95.53929138183594 174.80419921875 85.24818420410156 178.09735107421875 83.60159301757813 178.09735107421875 83.60159301757813 " />
        <polyline stroke="black" stroke-width="3" stroke-linecap="round" fill="transparent" stroke-linejoin="round" points="124.9951477050781 63.01937866210936 116.35064697265624 76.60365295410156 107.70614624023438 90.18792724609376 86.30062866210938 122.70782470703124 66.13006591796875 153.99281311035156 48.429351806640625 181.5729827880859 34.433441162109375 203.80181884765625 26.6121826171875 216.15109252929688 26.6121826171875 216.15109252929688 " />
        <polyline stroke="black" stroke-width="3" stroke-linecap="round" fill="transparent" stroke-linejoin="round" points="69.42312622070313 178.27984619140622 70.2464599609375 183.63121032714844 71.06979370117188 188.98257446289065 72.30471801757813 195.15725708007813 74.36297607421875 200.09698486328125 80.94924926757813 200.9202880859375 102.35479736328124 188.98257446289065 126.23016357421876 171.28187561035156 151.7520751953125 150.2880096435547 151.7520751953125 150.2880096435547 " />
        <polyline stroke="black" stroke-width="3" stroke-linecap="round" fill="transparent" stroke-linejoin="round" points="105.2362060546875 121.06124877929688 144.34246826171875 153.99281311035156 183.44873046875 186.92437744140625 213.08709716796875 207.09494018554688 213.08709716796875 207.09494018554688 " />
        </svg>