<?xml version="1.0" standalone="no"?>
    <svg width="256" height="256" xmlns="http://www.w3.org/2000/svg" version="1.1">
    <polyline stroke="black" stroke-width="3" stroke-linecap="round" fill="transparent" stroke-linejoin="round" points="87.69393920898438 56.089813232421875 93.87753295898438 66.2486572265625 96.52767944335938 71.54891967773438 99.6195068359375 77.73257446289063 102.2696533203125 83.91621398925781 104.91976928710938 89.21647644042969 109.336669921875 98.9336395263672 116.4036865234375 106.44235229492188 116.4036865234375 106.44235229492188 " />
        <polyline stroke="black" stroke-width="3" stroke-linecap="round" fill="transparent" stroke-linejoin="round" points="165.43115234375 27.82170867919922 153.947265625 50.34785461425781 145.996826171875 64.923583984375 127.00424194335938 99.37533569335938 116.4036865234375 117.04289245605467 89.90234375 161.65347290039063 77.53509521484375 182.412841796875 67.81793212890625 197.8719787597656 61.63427734375 206.2640686035156 59.867523193359375 207.589111328125 59.867523193359375 207.589111328125 " />
        <polyline stroke="black" stroke-width="3" stroke-linecap="round" fill="transparent" stroke-linejoin="round" points="66.49285888671875 138.68565368652344 96.08602905273438 121.90147399902344 117.28707885742188 113.50938415527344 127.88763427734376 109.9758758544922 157.4808349609375 101.58377075195313 174.7066650390625 96.72518920898438 187.073974609375 93.19168090820313 192.37420654296875 91.86660766601563 192.37420654296875 91.86660766601563 " />
        <polyline stroke="black" stroke-width="3" stroke-linecap="round" fill="transparent" stroke-linejoin="round" points="137.1630859375 117.48458862304688 142.02166748046875 135.1521453857422 148.205322265625 147.07774353027344 161.45599365234375 163.42022705078125 172.93988037109375 174.4624481201172 183.5404052734375 184.17962646484375 192.37420654296875 192.1300048828125 197.2327880859375 196.105224609375 197.2327880859375 196.105224609375 " />
        <polyline stroke="black" stroke-width="3" stroke-linecap="round" fill="transparent" stroke-linejoin="round" points="115.07861328125 158.11996459960938 115.52032470703124 170.48724365234375 119.93719482421876 189.4798889160156 127.4459228515625 212.00601196289065 130.97943115234375 218.18966674804688 134.95465087890625 222.16485595703125 141.13827514648438 223.0482482910156 147.32196044921875 220.39810180664065 155.71405029296875 208.03082275390625 163.2227783203125 189.92156982421875 163.2227783203125 189.92156982421875 " />
        </svg>