<?xml version="1.0" standalone="no"?>
    <svg width="256" height="256" xmlns="http://www.w3.org/2000/svg" version="1.1">
    <polyline stroke="black" stroke-width="3" stroke-linecap="round" fill="transparent" stroke-linejoin="round" points="77.80010986328125 83.4666748046875 93.80010986328124 105.86669921875 93.80010986328124 105.86669921875 " />
        <polyline stroke="black" stroke-width="3" stroke-linecap="round" fill="transparent" stroke-linejoin="round" points="50.06671142578125 140.00001525878906 72.466796875 129.33334350585938 102.3333740234375 117.60000610351563 133.2667236328125 110.1333465576172 155.666748046875 106.933349609375 165.2667236328125 106.933349609375 165.2667236328125 106.933349609375 " />
        <polyline stroke="black" stroke-width="3" stroke-linecap="round" fill="transparent" stroke-linejoin="round" points="116.2000732421875 67.4666748046875 103.4000244140625 116.53335571289063 89.53338623046875 145.33334350585938 59.66668701171875 189.06671142578125 43.66668701171875 212.53335571289065 35.1334228515625 224.2666931152344 28.7333984375 228.53335571289065 28.7333984375 228.53335571289065 " />
        <polyline stroke="black" stroke-width="3" stroke-linecap="round" fill="transparent" stroke-linejoin="round" points="82.06671142578125 159.20001220703125 79.93341064453125 186.933349609375 78.86669921875 198.66668701171875 77.80010986328125 215.73336791992188 77.80010986328125 224.2666931152344 77.80010986328125 227.4666748046875 77.80010986328125 228.53335571289065 89.53338623046875 212.53335571289065 103.4000244140625 196.53335571289065 113.00006103515624 190.13336181640625 119.4000244140625 186.933349609375 127.93341064453124 183.73336791992188 127.93341064453124 183.73336791992188 " />
        <polyline stroke="black" stroke-width="3" stroke-linecap="round" fill="transparent" stroke-linejoin="round" points="113.00006103515624 149.6000213623047 134.3333740234375 173.06671142578125 159.933349609375 190.13336181640625 189.8001708984375 204 227.1334228515625 220.00003051757813 238.86669921875 224.2666931152344 238.86669921875 224.2666931152344 " />
        </svg>