<?xml version="1.0" standalone="no"?>
    <svg width="256" height="256" xmlns="http://www.w3.org/2000/svg" version="1.1">
    <polyline stroke="black" stroke-width="3" stroke-linecap="round" fill="transparent" stroke-linejoin="round" points="80.34951782226563 81.95654296875 82.8746337890625 85.50550842285156 85.39974975585938 89.05447387695313 88.18017578125 91.87924194335938 95.80917358398438 96.1793212890625 99.3345947265625 97.36976623535156 103.66766357421876 97.33056640625 105.14974975585938 96.82211303710938 116.44818115234376 92.51010131835938 121.909423828125 88.25633239746094 122.5341796875 87.05867004394531 " />
        <polyline stroke="black" stroke-width="3" stroke-linecap="round" fill="transparent" stroke-linejoin="round" points="161.11114501953125 66.37266540527344 152.8359375 77.32298278808594 144.56072998046875 88.27330017089844 129.242431640625 116.97100830078124 123.26998901367188 130.38494873046875 101.75555419921876 160.2318572998047 95.96533203125 172.08364868164063 86.49139404296875 185.70294189453125 74.02182006835938 192.7923583984375 60.708984375 197.5216064453125 58.87249755859375 196.50799560546875 " />
        <polyline stroke="black" stroke-width="3" stroke-linecap="round" fill="transparent" stroke-linejoin="round" points="60.34173583984375 133.98788452148438 66.44012451171875 131.89779663085938 72.53851318359375 129.80770874023438 86.694091796875 125.9556121826172 93.78192138671876 124.07388305664063 121.7862548828125 117.39178466796876 134.38494873046875 114.15274047851563 147.3919677734375 110.66134643554688 163.29095458984375 108.79122924804688 174.56195068359375 108.00421142578124 176.6185302734375 108.54376220703124 177.3109130859375 108.54461669921876 178.4224853515625 108.45147705078124 178.62738037109375 108.34410095214844 179.09796142578125 108.02593994140624 179.1639404296875 107.98138427734376 179.20281982421875 107.95506286621094 " />
        <polyline stroke="black" stroke-width="3" stroke-linecap="round" fill="transparent" stroke-linejoin="round" points="109.34271240234376 135.70166015625 108.08465576171876 158.23309326171875 106.82659912109376 180.7645263671875 106.1119384765625 190.4295959472656 104.59701538085938 204.14178466796875 104.244873046875 206.49407958984375 103.9293212890625 207.5980224609375 103.92584228515624 207.6102600097656 107.30758666992188 205.9696044921875 114.29071044921876 202.04830932617188 120.97506713867188 197.64398193359375 126.43133544921876 193.49530029296875 134.96261596679688 186.05093383789065 139.68768310546875 180.3561859130859 147.869140625 172.66546630859375 149.40805053710938 171.08604431152344 " />
        <polyline stroke="black" stroke-width="3" stroke-linecap="round" fill="transparent" stroke-linejoin="round" points="146.69171142578125 124.64753723144531 150.97314453125 128.86123657226563 155.25457763671875 133.07493591308594 159.7232666015625 138.54574584960938 171.95068359375 155.23477172851563 177.5155029296875 164.27706909179688 188.0479736328125 180.2181854248047 192.99163818359375 185.92446899414065 200.1715087890625 190.75115966796875 203.369384765625 191.76303100585935 204.692138671875 191.39031982421875 204.7061767578125 191.3863525390625 " />
        </svg>