<?xml version="1.0" standalone="no"?>
    <svg width="256" height="256" xmlns="http://www.w3.org/2000/svg" version="1.1">
    <polyline stroke="black" stroke-width="3" stroke-linecap="round" fill="transparent" stroke-linejoin="round" points="72.87225341796875 83.50497436523438 82.74154663085938 93.374267578125 85.11019897460938 96.13766479492188 90.24224853515624 100.48014831542967 97.74288940429688 100.08541870117188 97.74288940429688 100.08541870117188 " />
        <polyline stroke="black" stroke-width="3" stroke-linecap="round" fill="transparent" stroke-linejoin="round" points="160.116943359375 32.57933807373047 153.010986328125 48.76499938964844 145.90512084960938 61.00294494628906 136.82537841796875 74.42520141601563 125.376953125 90.21607971191406 101.29583740234376 119.82400512695313 72.87225341796875 150.61624145507813 60.23956298828125 161.6698455810547 60.23956298828125 161.6698455810547 " />
        <polyline stroke="black" stroke-width="3" stroke-linecap="round" fill="transparent" stroke-linejoin="round" points="46.8172607421875 124.9560546875 66.555908203125 121.00833129882813 74.84613037109375 119.82400512695313 85.50497436523438 118.2449188232422 97.74288940429688 116.66583251953124 125.376953125 114.69195556640624 152.221435546875 113.90240478515624 173.9339599609375 113.90240478515624 188.145751953125 113.11288452148438 192.48822021484375 111.92857360839844 192.48822021484375 111.92857360839844 " />
        <polyline stroke="black" stroke-width="3" stroke-linecap="round" fill="transparent" stroke-linejoin="round" points="93.005615234375 143.51034545898438 95.76904296875 158.90646362304688 98.13766479492188 174.30255126953125 98.92721557617188 181.80322265625 101.29583740234376 195.2254943847656 102.87493896484376 204.3052673339844 103.26971435546876 207.06866455078125 104.84881591796876 211.01638793945313 107.21746826171876 209.83206176757813 115.50765991210938 199.1732177734375 115.50765991210938 199.1732177734375 " />
        <polyline stroke="black" stroke-width="3" stroke-linecap="round" fill="transparent" stroke-linejoin="round" points="135.24627685546875 126.14036560058594 138.00970458984375 140.35215759277344 143.53646850585938 156.14305114746094 147.08944702148438 164.82803344726563 156.958740234375 184.566650390625 167.22283935546875 205.09478759765625 177.0921630859375 225.22817993164065 181.03985595703125 235.4922790527344 181.03985595703125 235.4922790527344 " />
        </svg>