<?xml version="1.0" standalone="no"?>
    <svg width="256" height="256" xmlns="http://www.w3.org/2000/svg" version="1.1">
    <polyline stroke="black" stroke-width="3" stroke-linecap="round" fill="transparent" stroke-linejoin="round" points="64.47415161132813 53.99267578125 65.535888671875 58.593536376953125 66.59762573242188 63.19439697265625 68.01327514648438 67.79525756835938 69.42892456054688 72.3961181640625 72.968017578125 81.24392700195313 76.861083984375 89.73782348632813 82.16976928710938 98.23170471191406 84.64715576171875 100.70907592773438 84.64715576171875 100.70907592773438 " />
        <polyline stroke="black" stroke-width="3" stroke-linecap="round" fill="transparent" stroke-linejoin="round" points="165.693115234375 46.914459228515625 159.3226318359375 57.53181457519531 152.9521484375 68.149169921875 144.81219482421875 81.59782409667969 123.22357177734376 114.86557006835938 111.89837646484376 131.1455078125 89.955810546875 162.6436767578125 69.07501220703125 190.24884033203125 51.025482177734375 212.5452880859375 40.40814208984375 223.8704833984375 36.8690185546875 226.7017822265625 36.8690185546875 226.7017822265625 " />
        <polyline stroke="black" stroke-width="3" stroke-linecap="round" fill="transparent" stroke-linejoin="round" points="42.177734375 135.39248657226563 54.56463623046875 130.0837860107422 66.9515380859375 124.77508544921876 95.618408203125 115.21946716308594 144.81219482421875 105.6638641357422 173.12518310546875 104.24819946289063 190.1129150390625 103.54039001464844 197.54510498046875 103.18646240234376 197.54510498046875 103.18646240234376 " />
        <polyline stroke="black" stroke-width="3" stroke-linecap="round" fill="transparent" stroke-linejoin="round" points="100.92709350585938 162.99758911132813 99.51144409179688 172.90713500976563 98.09579467773438 182.81668090820313 95.97235107421876 195.5574951171875 93.14105224609376 209.00619506835935 88.18624877929688 232.3643798828125 86.41671752929688 247.22869873046875 87.12451171875 252.89126586914065 92.787109375 250.0599670410156 105.17404174804688 235.90347290039065 116.85311889648438 218.2078857421875 121.10009765625 211.12966918945313 121.10009765625 211.12966918945313 " />
        <polyline stroke="black" stroke-width="3" stroke-linecap="round" fill="transparent" stroke-linejoin="round" points="132.07135009765625 138.9315643310547 136.31829833984375 145.30198669433594 140.56524658203125 151.6724090576172 145.8739013671875 159.10455322265625 152.5982666015625 167.95236206054688 167.108642578125 186.35580444335935 181.97296142578125 204.0513916015625 195.0677490234375 220.33135986328125 200.7303466796875 228.82525634765625 200.7303466796875 228.82525634765625 " />
        </svg>