<?xml version="1.0" standalone="no"?>
    <svg width="256" height="256" xmlns="http://www.w3.org/2000/svg" version="1.1">
    <polyline stroke="black" stroke-width="3" stroke-linecap="round" fill="transparent" stroke-linejoin="round" points="76.7333984375 74.93333435058594 89.53338623046875 96.26667785644533 89.53338623046875 98.40000915527344 87.4000244140625 100.53335571289063 87.4000244140625 100.53335571289063 " />
        <polyline stroke="black" stroke-width="3" stroke-linecap="round" fill="transparent" stroke-linejoin="round" points="46.86669921875 136.80001831054688 92.7333984375 114.40000915527344 122.60003662109376 103.73333740234376 141.8001708984375 98.40000915527344 150.3333740234375 96.26667785644533 152.466796875 95.20002746582033 152.466796875 94.1333465576172 150.3333740234375 88.80000305175781 150.3333740234375 88.80000305175781 " />
        <polyline stroke="black" stroke-width="3" stroke-linecap="round" fill="transparent" stroke-linejoin="round" points="115.1334228515625 50.40000915527344 110.86669921875 81.33334350585938 99.1334228515625 112.26667785644533 82.06671142578125 142.1333465576172 63.93341064453125 169.86668395996094 43.66668701171875 201.86666870117188 35.1334228515625 214.66668701171875 35.1334228515625 214.66668701171875 " />
        <polyline stroke="black" stroke-width="3" stroke-linecap="round" fill="transparent" stroke-linejoin="round" points="84.2000732421875 143.20001220703125 81.00006103515625 170.93336486816406 81.00006103515625 183.73336791992188 81.00006103515625 189.06671142578125 81.00006103515625 193.33334350585935 81.00006103515625 196.53335571289065 85.2667236328125 192.2666931152344 93.80010986328124 180.53335571289065 104.466796875 169.86668395996094 114.06671142578124 163.4666748046875 121.53338623046876 158.1333465576172 126.86669921875 154.93336486816406 126.86669921875 154.93336486816406 " />
        <polyline stroke="black" stroke-width="3" stroke-linecap="round" fill="transparent" stroke-linejoin="round" points="115.1334228515625 114.40000915527344 139.666748046875 142.1333465576172 158.86669921875 162.40003967285156 177 179.4666748046875 203.666748046875 196.53335571289065 219.666748046875 202.933349609375 219.666748046875 202.933349609375 " />
        </svg>