<?xml version="1.0" standalone="no"?>
    <svg width="256" height="256" xmlns="http://www.w3.org/2000/svg" version="1.1">
    <polyline stroke="black" stroke-width="3" stroke-linecap="round" fill="transparent" stroke-linejoin="round" points="59.442596435546875 82.466796875 62.74822998046875 112.76846313476563 63.299163818359375 141.96826171875 63.85009765625 168.96429443359375 62.74822998046875 184.9415283203125 61.09539794921875 197.6131591796875 59.9935302734375 205.3262939453125 58.89166259765625 208.6319274902344 58.89166259765625 208.6319274902344 " />
        <polyline stroke="black" stroke-width="3" stroke-linecap="round" fill="transparent" stroke-linejoin="round" points="72.66513061523438 67.5914306640625 81.48016357421875 60.429229736328125 93.04989624023438 52.165130615234375 112.332763671875 43.35009765625 134.92129516601563 37.84070587158203 157.50982666015625 37.289764404296875 175.139892578125 41.69728088378906 191.11712646484375 51.61418914794922 202.68682861328125 66.48956298828125 212.603759765625 87.9761962890625 216.4603271484375 118.27786254882813 213.70562744140625 145.82484436035156 208.7471923828125 168.96429443359375 201.5849609375 186.04342651367188 194.97369384765625 194.3074951171875 184.505859375 200.36782836914065 169.6304931640625 200.91879272460935 169.6304931640625 200.91879272460935 " />
        <polyline stroke="black" stroke-width="3" stroke-linecap="round" fill="transparent" stroke-linejoin="round" points="73.216064453125 142.51919555664063 84.78579711914063 139.21356201171875 100.21209716796876 134.80604553222656 122.80062866210938 128.74571228027344 138.2269287109375 123.78726196289063 152.55133056640625 119.37974548339844 161.36639404296875 115.52316284179688 166.3248291015625 112.217529296875 166.3248291015625 107.2590789794922 165.22296142578125 101.19874572753906 165.22296142578125 101.19874572753906 " />
        <polyline stroke="black" stroke-width="3" stroke-linecap="round" fill="transparent" stroke-linejoin="round" points="96.90646362304688 106.15719604492188 93.600830078125 119.93067932128906 90.84613037109376 145.27389526367188 91.947998046875 162.35302734375 93.600830078125 177.22837829589844 94.70269775390624 187.69622802734375 95.80459594726563 192.6546936035156 95.80459594726563 192.6546936035156 " />
        <polyline stroke="black" stroke-width="3" stroke-linecap="round" fill="transparent" stroke-linejoin="round" points="96.35552978515624 110.01377868652344 104.61962890625 102.8515625 114.53652954101563 95.68934631347656 126.10626220703124 91.28182983398438 137.12506103515625 89.62901306152344 147.04196166992188 92.38371276855467 153.6531982421875 100.09686279296876 159.71356201171875 116.6250457763672 161.36639404296875 137.5607452392578 158.06072998046875 155.19081115722656 153.102294921875 167.86241149902344 147.5928955078125 173.37181091308594 147.5928955078125 173.37181091308594 " />
        <polyline stroke="black" stroke-width="3" stroke-linecap="round" fill="transparent" stroke-linejoin="round" points="118.94403076171876 122.68537902832033 118.94403076171876 133.15322875976563 117.8421630859375 145.27389526367188 115.08746337890624 156.2926788330078 110.679931640625 166.76052856445313 106.8233642578125 173.37181091308594 102.41586303710938 177.22837829589844 98.55926513671876 179.43214416503906 98.55926513671876 179.43214416503906 101.31396484375 177.22837829589844 108.4761962890625 174.47369384765625 127.75909423828124 169.51522827148438 143.736328125 165.65866088867188 156.9588623046875 162.90396118164063 163.57012939453125 163.45489501953125 163.57012939453125 163.45489501953125 " />
        </svg>