<?xml version="1.0" standalone="no"?>
    <svg width="256" height="256" xmlns="http://www.w3.org/2000/svg" version="1.1">
    <polyline stroke="black" stroke-width="3" stroke-linecap="round" fill="transparent" stroke-linejoin="round" points="63.967010498046875 89.208740234375 61.841156005859375 122.15910339355467 60.77825927734375 156.17236328125 60.4239501953125 182.03662109375 61.48687744140625 201.16909790039065 62.549774169921875 210.38104248046875 63.258392333984375 210.73532104492188 63.258392333984375 210.73532104492188 " />
        <polyline stroke="black" stroke-width="3" stroke-linecap="round" fill="transparent" stroke-linejoin="round" points="81.32794189453125 62.6358642578125 87.70541381835938 60.155731201171875 116.7584228515625 55.195465087890625 138.01669311523438 54.841156005859375 159.62933349609375 57.67559814453125 178.05316162109375 63.344482421875 191.87109375 72.20210266113281 203.91741943359375 89.9173583984375 208.87774658203125 104.08953857421876 214.19232177734375 146.6061248779297 213.12939453125 168.21873474121094 209.2320556640625 182.03662109375 203.91741943359375 190.5399475097656 191.51678466796875 196.91741943359375 169.195556640625 200.10617065429688 169.195556640625 200.10617065429688 " />
        <polyline stroke="black" stroke-width="3" stroke-linecap="round" fill="transparent" stroke-linejoin="round" points="86.64251708984375 138.10281372070313 95.85446166992188 132.43394470214844 105.420654296875 127.11936950683594 130.93063354492188 117.19882202148438 137.66244506835938 115.42730712890624 152.543212890625 112.94717407226563 156.794921875 111.17564392089844 156.794921875 111.17564392089844 " />
        <polyline stroke="black" stroke-width="3" stroke-linecap="round" fill="transparent" stroke-linejoin="round" points="93.37432861328124 127.4736785888672 92.66571044921876 135.6226806640625 92.31137084960938 143.77169799804688 93.01998901367188 157.9438934326172 93.01998901367188 161.84124755859375 93.01998901367188 162.90415954589844 93.01998901367188 162.90415954589844 " />
        <polyline stroke="black" stroke-width="3" stroke-linecap="round" fill="transparent" stroke-linejoin="round" points="110.73529052734376 99.48358154296876 121.3643798828125 92.39749145507813 131.63925170898438 87.43721008300781 141.9140625 85.31138610839844 151.4803466796875 86.01998901367188 158.56640625 89.56304931640625 164.23529052734375 95.94053649902344 168.84124755859375 107.63259887695313 170.25848388671875 120.03326416015624 168.84124755859375 129.5994873046875 164.94390869140625 134.55975341796875 164.94390869140625 134.55975341796875 " />
        <polyline stroke="black" stroke-width="3" stroke-linecap="round" fill="transparent" stroke-linejoin="round" points="118.88427734375 101.96371459960938 118.88427734375 114.71868896484376 118.88427734375 127.82797241210938 118.52996826171876 137.3942108154297 116.7584228515625 146.96043395996094 115.69549560546876 150.50347900390625 115.69549560546876 150.50347900390625 " />
        <polyline stroke="black" stroke-width="3" stroke-linecap="round" fill="transparent" stroke-linejoin="round" points="108.60943603515624 148.0233612060547 124.55316162109376 144.12600708007813 132.7021484375 143.06309509277344 159.983642578125 142.7087860107422 159.983642578125 142.7087860107422 " />
        </svg>