<?xml version="1.0" standalone="no"?>
    <svg width="256" height="256" xmlns="http://www.w3.org/2000/svg" version="1.1">
    <polyline stroke="black" stroke-width="3" stroke-linecap="round" fill="transparent" stroke-linejoin="round" points="52.76025390625 169.6753692626953 52.182830810546875 185.26596069335935 51.0279541015625 211.25030517578125 49.87310791015625 222.79888916015625 48.71826171875 228.57321166992188 48.14080810546875 227.4183349609375 48.14080810546875 227.4183349609375 " />
        <polyline stroke="black" stroke-width="3" stroke-linecap="round" fill="transparent" stroke-linejoin="round" points="59.111968994140625 77.86402893066406 68.35086059570313 73.24459838867188 82.20916748046875 68.62515258789063 104.72894287109376 64.58314514160156 130.13583374023438 61.69599914550781 153.2330322265625 62.27342224121094 171.13336181640625 65.16056823730469 185.569091796875 70.35743713378906 193.653076171875 76.13174438476563 199.42742919921875 85.37062072753906 203.46942138671875 102.69351196289063 203.46942138671875 122.90354919433594 200.582275390625 143.69102478027344 195.96282958984375 163.90106201171875 189.611083984375 182.95623779296875 182.1044921875 196.8145751953125 173.44305419921875 204.89859008789065 154.96533203125 210.095458984375 154.96533203125 210.095458984375 " />
        <polyline stroke="black" stroke-width="3" stroke-linecap="round" fill="transparent" stroke-linejoin="round" points="69.5057373046875 137.33929443359375 83.364013671875 134.4521484375 100.68692016601563 130.98756408691406 118.00982666015624 126.945556640625 133.02301025390625 123.48098754882813 143.994140625 120.59382629394533 151.500732421875 114.8195343017578 151.500732421875 114.8195343017578 " />
        <polyline stroke="black" stroke-width="3" stroke-linecap="round" fill="transparent" stroke-linejoin="round" points="86.82861328125 125.79069519042967 86.25115966796875 151.77503967285156 86.82861328125 170.25279235839844 87.98345947265625 183.53369140625 88.5609130859375 189.3079833984375 88.5609130859375 190.46282958984375 88.5609130859375 184.11111450195313 88.5609130859375 184.11111450195313 " />
        <polyline stroke="black" stroke-width="3" stroke-linecap="round" fill="transparent" stroke-linejoin="round" points="86.82861328125 111.93238830566406 91.44805908203124 107.890380859375 97.79977416992188 104.42579650878906 104.72894287109376 101.53865051269533 114.54522705078124 99.22892761230467 124.36154174804688 98.07406616210938 131.86813354492188 99.22892761230467 137.64242553710938 102.11607360839844 142.26187133789063 107.3129425048828 145.14901733398438 117.70668029785156 145.7264404296875 135.6070098876953 141.10699462890625 154.6621856689453 135.91015625 167.9430694580078 135.91015625 167.9430694580078 " />
        <polyline stroke="black" stroke-width="3" stroke-linecap="round" fill="transparent" stroke-linejoin="round" points="116.27752685546876 122.3261260986328 117.432373046875 132.71986389160156 116.85494995117188 143.11358642578125 115.1226806640625 154.6621856689453 110.50323486328124 164.47850036621094 105.8837890625 170.83023071289063 101.26434326171876 175.4496612548828 97.79977416992188 178.33680725097656 96.6448974609375 178.91424560546875 96.6448974609375 178.91424560546875 100.1094970703125 178.33680725097656 108.19351196289063 176.60452270507813 122.05181884765624 174.2947998046875 131.86813354492188 172.56251525878906 138.79730224609375 172.56251525878906 145.14901733398438 173.71737670898438 145.14901733398438 173.71737670898438 " />
        </svg>