<?xml version="1.0" standalone="no"?>
    <svg width="256" height="256" xmlns="http://www.w3.org/2000/svg" version="1.1">
    <polyline stroke="black" stroke-width="3" stroke-linecap="round" fill="transparent" stroke-linejoin="round" points="69.14300537109375 76.40750122070313 68.25961303710938 90.099853515625 66.93453979492188 105.11727905273438 62.959320068359375 155.46983337402344 62.075927734375 168.7205047607422 61.63427734375 200.5220947265625 61.63427734375 206.70574951171875 61.63427734375 213.77276611328125 61.63427734375 213.77276611328125 " />
        <polyline stroke="black" stroke-width="3" stroke-linecap="round" fill="transparent" stroke-linejoin="round" points="85.4854736328125 80.82438659667969 92.552490234375 74.6407470703125 115.07861328125 58.73994445800781 141.13827514648438 46.8143310546875 153.505615234375 43.28082275390625 164.989501953125 41.95576477050781 186.63226318359375 45.48927307128906 200.32464599609375 53.439666748046875 211.80853271484375 69.78216552734375 221.083984375 96.72518920898438 225.94256591796875 122.3431396484375 227.26763916015625 145.31097412109375 225.94256591796875 167.3954315185547 224.61749267578125 175.7875213623047 217.9921875 193.455078125 211.80853271484375 201.40548706054688 200.76629638671875 208.03082275390625 189.72406005859375 210.68096923828125 189.72406005859375 210.68096923828125 " />
        <polyline stroke="black" stroke-width="3" stroke-linecap="round" fill="transparent" stroke-linejoin="round" points="92.99420166015624 131.61862182617188 101.38629150390624 129.85186767578125 110.22006225585938 127.64341735839844 119.93719482421876 125.43498229980467 142.46334838867188 121.45977783203124 168.52301025390625 117.92626953125 190.165771484375 114.83444213867188 205.1832275390625 111.30094909667967 209.60009765625 109.53416442871094 209.60009765625 109.53416442871094 " />
        <polyline stroke="black" stroke-width="3" stroke-linecap="round" fill="transparent" stroke-linejoin="round" points="128.77099609375 100.25871276855467 126.56256103515624 108.65080261230467 124.7957763671875 116.6011962890625 120.820556640625 134.71044921875 117.28707885742188 150.6112518310547 113.31185913085938 166.9537353515625 111.98681640625 171.81231689453125 111.98681640625 171.81231689453125 " />
        <polyline stroke="black" stroke-width="3" stroke-linecap="round" fill="transparent" stroke-linejoin="round" points="131.86279296875 103.35055541992188 135.8380126953125 100.25871276855467 155.2723388671875 90.5415496826172 160.5726318359375 89.21647644042969 173.381591796875 88.77479553222656 180.0069580078125 92.3083038330078 186.63226318359375 101.14207458496094 189.72406005859375 108.2091064453125 193.69927978515625 130.7352294921875 192.37420654296875 145.752685546875 187.515625 158.5616455078125 183.5404052734375 165.18698120117188 176.03173828125 174.020751953125 176.03173828125 174.020751953125 " />
        <polyline stroke="black" stroke-width="3" stroke-linecap="round" fill="transparent" stroke-linejoin="round" points="159.24755859375 114.83444213867188 157.9224853515625 119.69302368164063 149.53036499023438 141.33578491210938 140.2548828125 154.14476013183594 134.95465087890625 159.88671875 134.95465087890625 159.88671875 " />
        <polyline stroke="black" stroke-width="3" stroke-linecap="round" fill="transparent" stroke-linejoin="round" points="123.470703125 170.04556274414063 130.09603881835938 168.7205047607422 153.06390380859375 166.0703582763672 164.989501953125 164.74530029296875 191.0491943359375 162.53684997558594 191.0491943359375 162.53684997558594 " />
        </svg>