<?xml version="1.0" standalone="no"?>
    <svg width="256" height="256" xmlns="http://www.w3.org/2000/svg" version="1.1">
    <polyline stroke="black" stroke-width="3" stroke-linecap="round" fill="transparent" stroke-linejoin="round" points="76.19174194335938 74.62004089355469 74.32159423828125 89.58126831054688 71.703369140625 106.4126434326172 65.7188720703125 142.69363403320313 60.85650634765625 173.73818969726563 58.238250732421875 193.18777465820313 56.368133544921875 204.40869140625 55.62005615234375 209.6451416015625 55.24603271484375 210.0191650390625 55.24603271484375 210.0191650390625 " />
        <polyline stroke="black" stroke-width="3" stroke-linecap="round" fill="transparent" stroke-linejoin="round" points="116.5870361328125 50.68206787109375 125.56381225585938 48.437889099121094 135.28857421875 46.94176483154297 166.7071533203125 48.437889099121094 185.78271484375 54.796409606933594 201.1180419921875 65.26927185058594 219.81951904296875 93.32159423828124 225.42999267578125 123.99209594726563 225.42999267578125 138.95333862304688 218.32342529296875 174.11221313476563 210.46875 188.32537841796875 205.98040771484375 193.18777465820313 181.66839599609375 205.90484619140625 181.66839599609375 205.90484619140625 " />
        <polyline stroke="black" stroke-width="3" stroke-linecap="round" fill="transparent" stroke-linejoin="round" points="113.96884155273438 137.4571990966797 122.197509765625 134.09092712402344 130.80023193359375 131.0986785888672 148.005615234375 126.23626708984376 156.60833740234375 124.36613464355467 171.195556640625 120.62582397460938 185.03466796875 115.763427734375 187.27886962890625 113.51925659179688 187.27886962890625 113.51925659179688 " />
        <polyline stroke="black" stroke-width="3" stroke-linecap="round" fill="transparent" stroke-linejoin="round" points="139.40292358398438 94.81770324707033 136.41064453125 104.54251098632813 133.41842651367188 115.38938903808594 127.80795288085938 137.4571990966797 124.44171142578124 155.03665161132813 122.197509765625 165.50950622558594 120.70138549804688 170.37191772460938 119.95333862304688 171.49400329589844 119.57928466796876 168.5017547607422 120.70138549804688 152.41842651367188 122.571533203125 132.96884155273438 125.93783569335938 120.99984741210938 129.67816162109375 112.39715576171876 135.28857421875 106.0386199951172 143.89129638671875 99.30607604980467 154.73822021484375 93.69561767578124 160.3486328125 91.451416015625 176.8060302734375 88.08514404296875 185.78271484375 88.83322143554688 192.51531982421875 91.82545471191406 197.377685546875 97.80996704101563 200.7440185546875 111.64907836914063 198.499755859375 126.98434448242188 192.88934326171875 138.20526123046875 189.8970947265625 141.197509765625 189.8970947265625 141.197509765625 " />
        <polyline stroke="black" stroke-width="3" stroke-linecap="round" fill="transparent" stroke-linejoin="round" points="158.1044921875 106.4126434326172 157.73046875 112.77117919921876 154.3641357421875 131.84674072265625 151.3719482421875 140.44944763183594 149.87579345703125 143.8157196044922 145.38742065429688 149.4261932373047 142.02117919921875 151.29632568359375 142.02117919921875 151.29632568359375 " />
        <polyline stroke="black" stroke-width="3" stroke-linecap="round" fill="transparent" stroke-linejoin="round" points="138.28085327148438 152.04440307617188 143.14324951171875 150.92230224609375 148.005615234375 149.4261932373047 157.73046875 147.5560302734375 161.470703125 147.18199157714844 164.8370361328125 146.80796813964844 170.07342529296875 148.67813110351563 170.07342529296875 148.67813110351563 " />
        </svg>