<?xml version="1.0" standalone="no"?>
    <svg width="256" height="256" xmlns="http://www.w3.org/2000/svg" version="1.1">
    <polyline stroke="black" stroke-width="3" stroke-linecap="round" fill="transparent" stroke-linejoin="round" points="58.615142822265625 63.73225402832031 57.499908447265625 106.11140441894533 55.2694091796875 137.89578247070313 55.2694091796875 168.5648956298828 55.8270263671875 187.52398681640625 55.8270263671875 200.90689086914065 55.8270263671875 207.04071044921875 55.8270263671875 207.04071044921875 " />
        <polyline stroke="black" stroke-width="3" stroke-linecap="round" fill="transparent" stroke-linejoin="round" points="73.6708984375 68.19322204589844 83.70806884765625 60.94415283203125 99.32144165039063 53.13746643066406 132.7786865234375 44.215538024902344 151.73779296875 43.10029602050781 175.1578369140625 48.11888122558594 192.444091796875 56.483184814453125 205.826904296875 69.86607360839844 216.4217529296875 93.2861328125 220.3250732421875 128.41622924804688 216.4217529296875 158.52774047851563 210.84552001953125 179.15969848632813 203.596435546875 194.2154541015625 193.001708984375 203.13735961914065 193.001708984375 203.13735961914065 " />
        <polyline stroke="black" stroke-width="3" stroke-linecap="round" fill="transparent" stroke-linejoin="round" points="84.82330322265625 125.6281280517578 97.0909423828125 121.72477722167967 114.377197265625 116.70619201660156 135.0091552734375 111.6876220703125 152.85302734375 108.34188842773438 166.23590087890625 104.99617004394533 173.4849853515625 102.76568603515624 173.4849853515625 102.76568603515624 " />
        <polyline stroke="black" stroke-width="3" stroke-linecap="round" fill="transparent" stroke-linejoin="round" points="111.03146362304688 104.43855285644533 107.12811279296876 128.41622924804688 105.45526123046876 145.14483642578125 103.78240966796876 159.08535766601563 102.66717529296876 167.4496612548828 102.66717529296876 170.23776245117188 102.66717529296876 170.23776245117188 " />
        <polyline stroke="black" stroke-width="3" stroke-linecap="round" fill="transparent" stroke-linejoin="round" points="117.165283203125 101.65045166015624 122.74151611328124 96.07424926757813 129.43295288085938 91.0556640625 138.3548583984375 86.59469604492188 147.27679443359375 83.80659484863281 155.64111328125 84.36421203613281 162.33251953125 87.15231323242188 166.79351806640625 93.84376525878906 170.6968994140625 107.78427124023438 169.58160400390625 124.51287841796876 165.12066650390625 137.33815002441406 157.87158203125 147.93295288085938 157.87158203125 147.93295288085938 " />
        <polyline stroke="black" stroke-width="3" stroke-linecap="round" fill="transparent" stroke-linejoin="round" points="145.04632568359375 110.57237243652344 143.93109130859375 122.84002685546876 141.70059204101563 137.89578247070313 138.3548583984375 150.72105407714844 134.4515380859375 159.64297485351563 129.43295288085938 165.77679443359375 124.41436767578124 169.12252807617188 118.838134765625 170.79537963867188 113.819580078125 170.79537963867188 110.47384643554688 169.68014526367188 109.35861206054688 168.0072784423828 110.47384643554688 165.77679443359375 117.165283203125 162.9886932373047 128.87530517578125 160.20059204101563 142.81585693359375 158.52774047851563 157.31396484375 157.41249084472656 166.79351806640625 156.85487365722656 174.0426025390625 157.97010803222656 174.0426025390625 157.97010803222656 " />
        </svg>