<?xml version="1.0" standalone="no"?>
    <svg width="256" height="256" xmlns="http://www.w3.org/2000/svg" version="1.1">
    <polyline stroke="black" stroke-width="3" stroke-linecap="round" fill="transparent" stroke-linejoin="round" points="64.20452880859375 66.69192504882813 65.87997436523438 96.4307098388672 67.9742431640625 128.68264770507813 70.06854248046875 155.07058715820313 71.74398803710938 171.8248291015625 72.162841796875 184.80938720703125 72.162841796875 193.6053771972656 71.74398803710938 198.63165283203125 71.74398803710938 199.4693603515625 71.74398803710938 199.4693603515625 " />
        <polyline stroke="black" stroke-width="3" stroke-linecap="round" fill="transparent" stroke-linejoin="round" points="94.3621826171875 88.0535888671875 102.32049560546876 80.93302917480469 120.7501220703125 70.04277038574219 136.66668701171875 65.01649475097656 154.677490234375 62.50335693359375 170.59405517578125 64.17877197265625 181.48431396484375 69.20504760742188 186.09173583984375 73.39361572265625 200.3328857421875 101.45700073242188 204.1025390625 124.07522583007813 203.6837158203125 144.59918212890625 201.1705322265625 161.77227783203125 197.40081787109375 175.59454345703125 191.95574951171875 186.06594848632813 185.6728515625 194.8619384765625 174.7825927734375 202.8201904296875 174.7825927734375 202.8201904296875 " />
        <polyline stroke="black" stroke-width="3" stroke-linecap="round" fill="transparent" stroke-linejoin="round" points="105.67132568359376 147.5311737060547 113.210693359375 145.8557586669922 121.58786010742188 144.59918212890625 136.247802734375 142.50491333007813 142.94952392578125 142.0860595703125 157.6094970703125 142.0860595703125 163.4735107421875 142.50491333007813 163.4735107421875 142.50491333007813 " />
        <polyline stroke="black" stroke-width="3" stroke-linecap="round" fill="transparent" stroke-linejoin="round" points="109.85986328125 127.00723266601563 110.69760131835938 134.12777709960938 111.53533935546876 142.50491333007813 112.37301635742188 158.84030151367188 112.7918701171875 166.37969970703125 112.7918701171875 172.2436981201172 112.7918701171875 180.62081909179688 112.7918701171875 185.22824096679688 112.7918701171875 185.22824096679688 " />
        <polyline stroke="black" stroke-width="3" stroke-linecap="round" fill="transparent" stroke-linejoin="round" points="121.58786010742188 132.03350830078125 124.938720703125 129.10150146484375 128.28955078125 126.58836364746094 134.99127197265625 122.8186492919922 141.27410888671875 120.72439575195313 149.23236083984375 120.72439575195313 151.32666015625 121.56210327148438 155.5152587890625 125.75065612792967 158.0283203125 135.80320739746094 157.190673828125 147.5311737060547 154.677490234375 159.2591552734375 151.32666015625 168.89285278320313 147.97579956054688 176.01339721679688 146.71923828125 178.5265350341797 144.62493896484375 181.4585418701172 144.62493896484375 181.4585418701172 " />
        <polyline stroke="black" stroke-width="3" stroke-linecap="round" fill="transparent" stroke-linejoin="round" points="133.31585693359375 137.47862243652344 132.05926513671875 142.0860595703125 130.80267333984375 147.11233520507813 127.032958984375 157.16485595703125 122.00668334960938 168.89285278320313 119.49359130859376 173.50027465820313 116.98043823242188 177.68882751464844 112.7918701171875 183.1339569091797 111.95416259765624 184.3905334472656 110.27874755859376 185.6470947265625 109.85986328125 186.06594848632813 112.7918701171875 186.06594848632813 119.91244506835938 185.22824096679688 127.87069702148438 183.5528259277344 138.34213256835938 181.87738037109375 142.53070068359375 182.29624938964844 148.8134765625 182.715087890625 148.8134765625 182.715087890625 " />
        </svg>