<?xml version="1.0" standalone="no"?>
    <svg width="256" height="256" xmlns="http://www.w3.org/2000/svg" version="1.1">
    <polyline stroke="black" stroke-width="3" stroke-linecap="round" fill="transparent" stroke-linejoin="round" points="69 76 69 102 69 137 69 173 69 196 73 212 76 216 79 217 79 217 " />
        <polyline stroke="black" stroke-width="3" stroke-linecap="round" fill="transparent" stroke-linejoin="round" points="81 63 89 61 127 52 155 50 167 50 188 50 204 55 215 71 220 100 221 136 221 165 221 188 216 206 213 218 211 225 209 227 203 229 191 229 171 217 148 194 148 194 " />
        <polyline stroke="black" stroke-width="3" stroke-linecap="round" fill="transparent" stroke-linejoin="round" points="105 111 105 118 105 135 105 151 105 157 105 166 105 168 105 169 105 169 " />
        <polyline stroke="black" stroke-width="3" stroke-linecap="round" fill="transparent" stroke-linejoin="round" points="101 96 114 93 133 90 152 89 166 89 174 89 177 94 178 106 178 122 176 140 173 153 170 163 170 167 168 168 168 168 " />
        <polyline stroke="black" stroke-width="3" stroke-linecap="round" fill="transparent" stroke-linejoin="round" points="141 96 141 110 141 128 141 146 141 159 140 167 140 167 " />
        <polyline stroke="black" stroke-width="3" stroke-linecap="round" fill="transparent" stroke-linejoin="round" points="83 128 94 127 133 124 157 124 175 124 183 124 195 124 203 124 205 124 205 124 " />
        <polyline stroke="black" stroke-width="3" stroke-linecap="round" fill="transparent" stroke-linejoin="round" points="118 159 131 159 150 159 157 159 171 159 180 159 184 159 184 159 " />
        </svg>