<?xml version="1.0" standalone="no"?>
    <svg width="256" height="256" xmlns="http://www.w3.org/2000/svg" version="1.1">
    <polyline stroke="black" stroke-width="3" stroke-linecap="round" fill="transparent" stroke-linejoin="round" points="61.943115234375 83.98922729492188 63.175872802734375 96.72732543945313 65.23040771484375 116.45083618164063 66.463134765625 123.84715270996094 67.284912109375 128.77801513671875 67.69586181640625 131.6543426513672 67.69586181640625 132.47618103027344 67.69586181640625 132.06524658203125 67.69586181640625 132.06524658203125 " />
        <polyline stroke="black" stroke-width="3" stroke-linecap="round" fill="transparent" stroke-linejoin="round" points="89.884765625 43.30950927734375 107.142822265625 37.96772766113281 126.45541381835938 35.09138488769531 135.495361328125 34.68047332763672 163.026123046875 40.43316650390625 166.7242431640625 42.89860534667969 169.6005859375 45.77494812011719 176.175048828125 64.6766357421875 174.12054443359375 82.34561157226563 164.669677734375 102.48001098632813 150.69891357421875 118.50535583496094 150.69891357421875 118.50535583496094 " />
        <polyline stroke="black" stroke-width="3" stroke-linecap="round" fill="transparent" stroke-linejoin="round" points="93.17205810546876 104.12364196777344 112.07373046875 95.0836944580078 121.93548583984376 90.97463989257813 137.13900756835938 85.63285827636719 148.23348999023438 82.75650024414063 153.164306640625 81.52378845214844 153.9862060546875 81.52378845214844 153.9862060546875 81.52378845214844 " />
        <polyline stroke="black" stroke-width="3" stroke-linecap="round" fill="transparent" stroke-linejoin="round" points="99.74652099609376 128.3671112060547 109.19735717773438 123.43621826171876 118.648193359375 118.50535583496094 133.44085693359375 111.10903930664063 139.19354248046875 108.23269653320313 146.58984375 102.89093017578124 146.58984375 102.89093017578124 " />
        <polyline stroke="black" stroke-width="3" stroke-linecap="round" fill="transparent" stroke-linejoin="round" points="113.30645751953124 60.56756591796875 112.8955078125 72.89476013183594 112.484619140625 94.67279052734376 112.484619140625 120.55987548828124 113.71734619140624 163.70504760742188 114.95004272460938 190.0030517578125 114.95004272460938 204.384765625 114.95004272460938 211.78106689453125 114.95004272460938 211.78106689453125 " />
        </svg>