<?xml version="1.0" standalone="no"?>
    <svg width="256" height="256" xmlns="http://www.w3.org/2000/svg" version="1.1">
    <polyline stroke="black" stroke-width="3" stroke-linecap="round" fill="transparent" stroke-linejoin="round" points="94.2222900390625 68.22222900390625 97.5556640625 87.11111450195313 94.2222900390625 99.33334350585938 83.11114501953125 129.33334350585938 74.2222900390625 151.55557250976563 68.66668701171875 161.55557250976563 55.3333740234375 187.11111450195313 52.00006103515625 191.5555725097656 52.00006103515625 192.66668701171875 50.888916015625 191.5555725097656 50.888916015625 191.5555725097656 " />
        <polyline stroke="black" stroke-width="3" stroke-linecap="round" fill="transparent" stroke-linejoin="round" points="80.888916015625 153.7777862548828 83.11114501953125 181.5555725097656 83.11114501953125 200.4444580078125 82.00006103515625 219.33334350585935 80.888916015625 233.77780151367188 79.77783203125 243.77780151367188 79.77783203125 244.888916015625 78.66668701171875 243.77780151367188 78.66668701171875 243.77780151367188 " />
        <polyline stroke="black" stroke-width="3" stroke-linecap="round" fill="transparent" stroke-linejoin="round" points="103.1112060546875 132.6666717529297 104.2222900390625 157.11111450195313 103.1112060546875 166.00001525878906 103.1112060546875 166.00001525878906 " />
        <polyline stroke="black" stroke-width="3" stroke-linecap="round" fill="transparent" stroke-linejoin="round" points="99.77783203125 154.88890075683594 123.1112060546875 136.00001525878906 137.5556640625 127.11111450195313 150.888916015625 117.11111450195313 160.888916015625 110.4444580078125 167.5556640625 106.00001525878906 173.1112060546875 102.66667175292967 174.2222900390625 101.55555725097656 173.1112060546875 101.55555725097656 173.1112060546875 101.55555725097656 " />
        <polyline stroke="black" stroke-width="3" stroke-linecap="round" fill="transparent" stroke-linejoin="round" points="132 78.22222900390625 143.1112060546875 98.22222900390624 144.2222900390625 114.88890075683594 143.1112060546875 138.22222900390625 139.77783203125 161.55557250976563 134.2222900390625 181.5555725097656 128.666748046875 196 122 206 118.666748046875 207.11111450195313 118.666748046875 207.11111450195313 " />
        <polyline stroke="black" stroke-width="3" stroke-linecap="round" fill="transparent" stroke-linejoin="round" points="147.5556640625 160.4444580078125 170.888916015625 173.7777862548828 186.4444580078125 188.22222900390625 190.888916015625 192.66668701171875 199.77783203125 202.66668701171875 202 204.888916015625 202 206 202 204.888916015625 202 204.888916015625 " />
        </svg>