<?xml version="1.0" standalone="no"?>
    <svg width="256" height="256" xmlns="http://www.w3.org/2000/svg" version="1.1">
    <polyline stroke="black" stroke-width="3" stroke-linecap="round" fill="transparent" stroke-linejoin="round" points="113.62945556640624 34.15789794921875 95.86917114257813 62.00921630859375 79.31982421875 93.89694213867188 60.75225830078125 141.1230926513672 44.202972412109375 181.08364868164065 32.497344970703125 201.26577758789065 22.406280517578125 212.56771850585935 13.526153564453123 216.20053100585935 11.911590576171877 214.18231201171875 11.911590576171877 214.18231201171875 " />
        <polyline stroke="black" stroke-width="3" stroke-linecap="round" fill="transparent" stroke-linejoin="round" points="59.5413818359375 130.22474670410156 80.53076171875 187.94558715820313 80.12713623046875 219.02603149414065 78.10888671875 234.76806640625 77.3016357421875 241.6300048828125 76.89801025390625 243.64816284179688 76.0906982421875 240.01541137695313 76.0906982421875 240.01541137695313 " />
        <polyline stroke="black" stroke-width="3" stroke-linecap="round" fill="transparent" stroke-linejoin="round" points="134.61883544921875 62.41285705566406 116.85855102539063 93.08966064453124 101.92379760742188 126.18830871582033 90.21817016601563 148.38864135742188 85.77810668945313 154.84690856933594 78.51254272460938 161.70883178710938 72.05426025390625 160.09425354003906 71.65060424804688 148.7922821044922 81.33807373046875 130.22474670410156 103.538330078125 111.65719604492188 128.56417846679688 97.12606811523438 150.7645263671875 88.64959716796875 168.52471923828125 84.20953369140625 180.23040771484375 80.57673645019531 184.266845703125 74.52212524414063 184.266845703125 74.52212524414063 " />
        <polyline stroke="black" stroke-width="3" stroke-linecap="round" fill="transparent" stroke-linejoin="round" points="156.41546630859375 32.139678955078125 133.40789794921875 86.22775268554688 121.7022705078125 132.24295043945313 111.20758056640624 171.396240234375 103.13470458984376 195.61477661132813 95.46551513671876 211.3568115234375 93.043701171875 215.39324951171875 93.043701171875 215.39324951171875 " />
        <polyline stroke="black" stroke-width="3" stroke-linecap="round" fill="transparent" stroke-linejoin="round" points="136.63702392578125 132.64659118652344 161.662841796875 175.83628845214844 171.35028076171875 201.26577758789065 182.24859619140625 219.83331298828125 188.70684814453125 227.50250244140625 192.7432861328125 230.73165893554688 192.7432861328125 230.73165893554688 " />
        </svg>