<?xml version="1.0" standalone="no"?>
    <svg width="256" height="256" xmlns="http://www.w3.org/2000/svg" version="1.1">
    <polyline stroke="black" stroke-width="3" stroke-linecap="round" fill="transparent" stroke-linejoin="round" points="83.71002197265625 49.64689636230469 80.64947509765625 59.440704345703125 74.5283203125 75.9677734375 61.06182861328125 109.02189636230467 52.49224853515625 126.77317810058594 43.310546875 143.912353515625 37.189422607421875 156.1546173095703 37.189422607421875 156.1546173095703 " />
        <polyline stroke="black" stroke-width="3" stroke-linecap="round" fill="transparent" stroke-linejoin="round" points="68.4072265625 107.79766845703124 70.2435302734375 130.44586181640625 68.4072265625 166.560546875 65.958740234375 187.98452758789065 64.12240600585938 204.51156616210935 63.51031494140625 213.0811767578125 65.958740234375 213.0811767578125 65.958740234375 213.0811767578125 " />
        <polyline stroke="black" stroke-width="3" stroke-linecap="round" fill="transparent" stroke-linejoin="round" points="117.9884033203125 34.9561767578125 115.5399169921875 47.81055450439453 105.74612426757813 82.08891296386719 98.4007568359375 99.84019470214844 91.66751098632813 116.36724853515624 86.15850830078125 126.77317810058594 84.3221435546875 131.6700897216797 85.54638671875 132.89431762695313 92.27963256835938 129.833740234375 106.9703369140625 121.26416015625 127.17010498046876 108.40977478027344 146.75772094726563 96.16751098632813 164.509033203125 85.14947509765625 176.75128173828125 75.9677734375 185.9329833984375 68.01029968261719 192.0540771484375 60.66493225097656 192.0540771484375 60.66493225097656 " />
        <polyline stroke="black" stroke-width="3" stroke-linecap="round" fill="transparent" stroke-linejoin="round" points="155.3272705078125 35.56829071044922 151.65460205078125 44.74999237060547 146.75772094726563 63.11338806152344 138.1881103515625 97.39173889160156 129.6185302734375 122.48838806152344 115.5399169921875 158.6030731201172 100.84921264648438 191.04507446289065 91.66751098632813 211.85693359375 83.09793090820313 228.38400268554688 83.09793090820313 228.38400268554688 " />
        <polyline stroke="black" stroke-width="3" stroke-linecap="round" fill="transparent" stroke-linejoin="round" points="129.6185302734375 154.3182830810547 141.86080932617188 164.11209106445313 151.65460205078125 172.06956481933594 165.12109375 182.4754943847656 178.587646484375 194.7177734375 195.11468505859375 213.6932678222656 195.11468505859375 213.6932678222656 " />
        </svg>