<?xml version="1.0" standalone="no"?>
    <svg width="256" height="256" xmlns="http://www.w3.org/2000/svg" version="1.1">
    <polyline stroke="black" stroke-width="3" stroke-linecap="round" fill="transparent" stroke-linejoin="round" points="81.94171142578125 61.10881042480469 77.11016845703125 78.50236511230469 75.66073608398438 86.95755004882813 73.96966552734375 96.62060546875 67.68869018554688 120.29515075683594 59.475067138671875 138.8965606689453 50.0535888671875 162.08792114257813 43.047882080078125 172.95887756347656 39.182647705078125 178.03199768066406 37.9747314453125 180.20620727539065 37.9747314453125 180.20620727539065 " />
        <polyline stroke="black" stroke-width="3" stroke-linecap="round" fill="transparent" stroke-linejoin="round" points="82.90802001953125 65.21562194824219 94.26211547851563 79.22708129882813 96.43634033203124 83.57548522949219 97.88580322265624 87.92385864257813 104.89151000976563 104.35108947753906 106.82412719726563 108.94102478027344 112.86355590820313 124.40193176269533 113.82986450195313 128.9918975830078 113.82986450195313 128.9918975830078 " />
        <polyline stroke="black" stroke-width="3" stroke-linecap="round" fill="transparent" stroke-linejoin="round" points="89.91375732421875 107.73316955566406 91.84634399414063 125.6098175048828 93.29583740234376 144.21124267578125 93.53741455078124 166.43630981445313 92.32952880859376 188.4197998046875 89.43060302734375 213.78536987304688 88.70587158203125 218.8584899902344 87.01483154296875 224.65631103515625 86.29010009765625 225.38104248046875 86.29010009765625 225.38104248046875 " />
        <polyline stroke="black" stroke-width="3" stroke-linecap="round" fill="transparent" stroke-linejoin="round" points="63.098724365234375 154.84063720703125 74.45281982421875 168.61050415039063 76.14385986328125 171.99258422851563 78.31805419921875 178.27357482910156 80.25067138671875 186.4871826171875 80.25067138671875 186.4871826171875 " />
        <polyline stroke="black" stroke-width="3" stroke-linecap="round" fill="transparent" stroke-linejoin="round" points="122.04348754882813 142.2786407470703 117.4534912109375 157.25640869140625 114.31301879882813 163.2958221435547 109.72305297851563 170.05996704101563 104.89151000976563 176.34095764160156 100.05999755859376 184.0714111328125 100.05999755859376 184.0714111328125 " />
        <polyline stroke="black" stroke-width="3" stroke-linecap="round" fill="transparent" stroke-linejoin="round" points="150.79110717773438 59.41778564453125 147.650634765625 73.42924499511719 147.16741943359375 76.81132507324219 144.51010131835938 84.54179382324219 142.3359375 93.4801025390625 139.19540405273438 104.35108947753906 135.8133544921875 115.22203063964844 133.156005859375 121.98617553710938 132.43124389648438 123.67721557617188 132.189697265625 124.16036987304688 131.9481201171875 124.64352416992188 131.9481201171875 124.64352416992188 " />
        <polyline stroke="black" stroke-width="3" stroke-linecap="round" fill="transparent" stroke-linejoin="round" points="148.85848999023438 84.05863952636719 164.56097412109375 87.92385864257813 168.18463134765625 87.92385864257813 172.29144287109375 87.92385864257813 181.22979736328125 87.92385864257813 193.06707763671875 88.89013671875 201.76385498046875 90.5811767578125 207.80322265625 92.272216796875 212.634765625 92.99697875976563 216.2584228515625 93.72171020507813 218.6741943359375 94.68801879882813 219.1573486328125 99.51951599121094 217.7078857421875 103.86793518066406 210.9437255859375 117.39622497558594 204.6627197265625 127.05929565429688 194.5164794921875 137.93023681640625 188.23553466796875 148.07647705078125 180.50506591796875 161.36318969726563 168.90936279296875 178.75672912597656 165.04412841796875 186.24560546875 160.69573974609375 192.526611328125 156.83050537109375 197.35812377929688 153.2069091796875 203.8807373046875 150.79110717773438 207.74594116210935 145.47640991210938 216.20114135742188 145.47640991210938 216.20114135742188 " />
        <polyline stroke="black" stroke-width="3" stroke-linecap="round" fill="transparent" stroke-linejoin="round" points="155.13946533203125 129.9582061767578 166.49359130859375 144.93597412109375 169.39251708984375 150.2506561279297 172.29144287109375 155.56536865234375 182.19610595703125 168.61050415039063 187.75238037109375 178.27357482910156 197.173828125 194.21762084960935 208.0447998046875 213.54379272460935 209.0111083984375 218.8584899902344 209.0111083984375 218.8584899902344 " />
        </svg>