<?xml version="1.0" standalone="no"?>
    <svg width="256" height="256" xmlns="http://www.w3.org/2000/svg" version="1.1">
    <polyline stroke="black" stroke-width="3" stroke-linecap="round" fill="transparent" stroke-linejoin="round" points="78.80120849609375 39.12532806396485 74.93597412109375 61.83354187011719 69.62130737304688 82.36759948730469 63.098724365234375 100.72740173339844 55.609832763671875 116.91307067871094 44.497283935546875 139.8628692626953 38.9410400390625 151.70013427734375 35.5589599609375 163.5373992919922 35.5589599609375 163.5373992919922 " />
        <polyline stroke="black" stroke-width="3" stroke-linecap="round" fill="transparent" stroke-linejoin="round" points="78.07650756835938 63.04142761230469 90.39691162109376 74.87870788574219 93.05426025390624 77.05288696289063 95.95318603515624 79.95181274414063 100.30157470703124 87.6822509765625 108.7567138671875 100.48585510253906 111.6556396484375 105.31736755371094 112.86355590820313 110.63206481933594 112.38040161132813 119.81198120117188 112.38040161132813 119.81198120117188 " />
        <polyline stroke="black" stroke-width="3" stroke-linecap="round" fill="transparent" stroke-linejoin="round" points="83.39117431640625 92.75537109375 85.32379150390625 112.08151245117188 86.04852294921875 132.13241577148438 85.56536865234375 154.3574676513672 82.90802001953125 185.0377197265625 81.70013427734375 200.74020385742188 80.73382568359375 212.57748413085935 79.76751708984375 220.7911071777344 79.284423828125 223.20687866210935 78.07650756835938 224.17318725585935 78.07650756835938 224.17318725585935 " />
        <polyline stroke="black" stroke-width="3" stroke-linecap="round" fill="transparent" stroke-linejoin="round" points="53.4356689453125 150.4922637939453 64.54818725585938 166.43630981445313 68.17181396484375 170.54310607910156 72.03704833984375 173.92518615722656 73.48654174804688 175.13308715820313 73.48654174804688 175.13308715820313 " />
        <polyline stroke="black" stroke-width="3" stroke-linecap="round" fill="transparent" stroke-linejoin="round" points="115.76248168945313 148.31805419921875 106.09939575195313 164.74526977539063 101.75103759765624 171.75100708007813 98.12734985351563 177.30726623535156 94.26211547851563 180.20620727539065 94.26211547851563 180.20620727539065 " />
        <polyline stroke="black" stroke-width="3" stroke-linecap="round" fill="transparent" stroke-linejoin="round" points="132.189697265625 53.13678741455078 132.6728515625 71.97978210449219 130.257080078125 85.74966430664063 127.358154296875 102.90159606933594 123.97610473632813 118.84567260742188 119.3861083984375 131.89083862304688 119.3861083984375 131.89083862304688 " />
        <polyline stroke="black" stroke-width="3" stroke-linecap="round" fill="transparent" stroke-linejoin="round" points="128.0828857421875 99.76112365722656 141.36962890625 94.4464111328125 144.751708984375 93.9632568359375 157.5552978515625 92.99697875976563 165.76885986328125 92.51382446289063 174.94879150390625 92.75537109375 182.67919921875 93.72171020507813 186.78607177734375 94.9295654296875 188.96026611328125 96.37905883789063 190.40966796875 98.3116455078125 189.68499755859375 103.38475036621094 185.57818603515625 117.87937927246094 177.60614013671875 137.2055206298828 168.18463134765625 155.80694580078125 158.5216064453125 174.64991760253906 147.650634765625 191.0771484375 139.920166015625 202.189697265625 136.2965087890625 205.57177734375 129.0491943359375 210.1617126464844 124.7008056640625 213.30221557617188 120.3524169921875 217.16744995117188 120.3524169921875 217.16744995117188 " />
        <polyline stroke="black" stroke-width="3" stroke-linecap="round" fill="transparent" stroke-linejoin="round" points="138.7122802734375 141.79547119140625 157.5552978515625 166.19473266601563 161.178955078125 171.50941467285156 164.56097412109375 178.03199768066406 173.74090576171875 194.94235229492188 183.16241455078125 211.61117553710935 187.75238037109375 224.65631103515625 189.92657470703125 233.83624267578125 189.92657470703125 233.83624267578125 " />
        </svg>