<?xml version="1.0" standalone="no"?>
    <svg width="256" height="256" xmlns="http://www.w3.org/2000/svg" version="1.1">
    <polyline stroke="black" stroke-width="3" stroke-linecap="round" fill="transparent" stroke-linejoin="round" points="87 52 87 51 87 52 86 53 81 61 72 75 60 92 51 104 48 107 48 107 " />
        <polyline stroke="black" stroke-width="3" stroke-linecap="round" fill="transparent" stroke-linejoin="round" points="86 62 85 64 86 66 87 67 88 69 96 77 99 79 105 83 108 85 120 91 128 96 128 96 " />
        <polyline stroke="black" stroke-width="3" stroke-linecap="round" fill="transparent" stroke-linejoin="round" points="91 95 90 100 90 112 89 132 87 147 87 151 85 164 84 168 82 179 81 182 79 190 79 192 79 188 78 182 77 179 77 179 " />
        <polyline stroke="black" stroke-width="3" stroke-linecap="round" fill="transparent" stroke-linejoin="round" points="63 128 63 129 64 131 66 135 72 141 72 141 " />
        <polyline stroke="black" stroke-width="3" stroke-linecap="round" fill="transparent" stroke-linejoin="round" points="113 124 110 130 108 136 105 145 104 148 104 148 " />
        <polyline stroke="black" stroke-width="3" stroke-linecap="round" fill="transparent" stroke-linejoin="round" points="156 74 154 78 151 86 150 89 149 93 144 106 142 112 142 112 " />
        <polyline stroke="black" stroke-width="3" stroke-linecap="round" fill="transparent" stroke-linejoin="round" points="147 102 149 102 151 101 160 99 169 96 182 92 188 91 190 91 190 91 " />
        <polyline stroke="black" stroke-width="3" stroke-linecap="round" fill="transparent" stroke-linejoin="round" points="182 95 182 94 183 94 182 95 181 98 178 109 170 127 159 149 150 165 147 169 139 180 137 182 134 184 134 184 " />
        <polyline stroke="black" stroke-width="3" stroke-linecap="round" fill="transparent" stroke-linejoin="round" points="146 120 146 121 147 123 147 124 151 131 152 134 162 149 174 167 188 183 202 195 215 204 221 207 221 207 " />
        </svg>