<?xml version="1.0" standalone="no"?>
    <svg width="256" height="256" xmlns="http://www.w3.org/2000/svg" version="1.1">
    <polyline stroke="black" stroke-width="3" stroke-linecap="round" fill="transparent" stroke-linejoin="round" points="83.24813842773438 62.680328369140625 91.25677490234376 73.89237976074219 96.5958251953125 79.76536560058594 104.070556640625 84.03663635253906 115.81649780273438 84.57054138183594 115.81649780273438 84.57054138183594 " />
        <polyline stroke="black" stroke-width="3" stroke-linecap="round" fill="transparent" stroke-linejoin="round" points="164.402099609375 40.25621032714844 155.32568359375 55.20562744140625 144.11358642578125 70.155029296875 126.49465942382813 92.04524230957033 109.94354248046876 110.19810485839844 92.3245849609375 127.28314208984376 77.37518310546875 139.56301879882813 77.37518310546875 139.56301879882813 " />
        <polyline stroke="black" stroke-width="3" stroke-linecap="round" fill="transparent" stroke-linejoin="round" points="57.620574951171875 105.39292907714844 69.36654663085938 104.85902404785156 90.18893432617188 104.85902404785156 116.88433837890624 106.99465942382813 137.17279052734375 109.13027954101563 157.99517822265625 111.79981994628906 171.3428955078125 113.93545532226563 180.9532470703125 117.13890075683594 187.360107421875 120.34234619140624 187.360107421875 120.34234619140624 " />
        <polyline stroke="black" stroke-width="3" stroke-linecap="round" fill="transparent" stroke-linejoin="round" points="135.03717041015625 128.3509521484375 125.96075439453124 131.5543975830078 115.2825927734375 135.82565307617188 103.53662109375 140.63082885742188 93.39239501953124 146.50381469726563 85.3837890625 153.978515625 79.51080322265625 163.05494689941406 75.7734375 176.93653869628906 76.30734252929688 189.2164001464844 80.044677734375 200.428466796875 84.31597900390625 206.8353576660156 91.7906494140625 210.038818359375 103.53662109375 207.3692626953125 118.48602294921876 197.75894165039065 128.09637451171875 187.61468505859375 139.30844116210938 170.52964782714844 143.5797119140625 160.38540649414063 144.64752197265625 155.04632568359375 144.64752197265625 151.84288024902344 143.5797119140625 150.7750701904297 143.5797119140625 152.37680053710938 145.71533203125 156.11415100097656 151.58831787109375 165.19058227539063 161.1986083984375 177.47044372558594 170.27508544921875 188.6824951171875 178.28369140625 200.428466796875 185.7584228515625 216.4457092285156 185.7584228515625 216.4457092285156 " />
        </svg>