<?xml version="1.0" standalone="no"?>
    <svg width="256" height="256" xmlns="http://www.w3.org/2000/svg" version="1.1">
    <polyline stroke="black" stroke-width="3" stroke-linecap="round" fill="transparent" stroke-linejoin="round" points="88.4931640625 33.738365173339844 92.93600463867188 45.40076446533203 96.26812744140624 52.62034606933594 100.15557861328124 58.17387390136719 104.04302978515624 61.5059814453125 109.5965576171875 59.83992004394531 109.5965576171875 59.83992004394531 " />
        <polyline stroke="black" stroke-width="3" stroke-linecap="round" fill="transparent" stroke-linejoin="round" points="159.02294921875 17.633140563964844 156.24615478515625 33.183013916015625 146.24981689453125 53.731048583984375 131.25531005859375 77.05584716796875 116.26080322265624 95.93783569335938 100.15557861328124 111.48770141601563 84.05035400390625 125.37150573730467 69.05584716796875 135.3678436279297 69.05584716796875 135.3678436279297 " />
        <polyline stroke="black" stroke-width="3" stroke-linecap="round" fill="transparent" stroke-linejoin="round" points="70.16656494140625 73.16838073730469 79.05218505859375 75.94514465332031 91.26995849609376 81.49867248535156 114.5947265625 93.16107177734376 144.0284423828125 108.15557861328124 161.244384765625 115.37516784667967 177.349609375 120.92869567871094 189.011962890625 124.816162109375 195.67620849609375 126.48220825195313 195.67620849609375 126.48220825195313 " />
        <polyline stroke="black" stroke-width="3" stroke-linecap="round" fill="transparent" stroke-linejoin="round" points="135.14279174804688 123.7054443359375 129.03390502929688 131.48037719726563 123.48037719726563 135.92320251464844 117.37152099609376 140.36602783203125 109.5965576171875 144.808837890625 101.8216552734375 149.8070068359375 95.15740966796876 154.2498321533203 90.15924072265624 160.35870361328125 86.27178955078125 168.13363647460938 85.16107177734375 179.79603576660156 86.27178955078125 193.67984008789065 87.93783569335938 204.2315368652344 90.15924072265624 212.56182861328125 92.38064575195313 217.55999755859375 96.823486328125 220.33676147460935 102.37701416015624 218.67071533203125 110.15191650390624 212.0064697265625 120.14825439453124 202.0101318359375 127.9232177734375 192.0137939453125 133.47674560546875 182.57281494140625 137.36419677734375 174.79786682128906 139.58560180664063 170.3550567626953 140.14096069335938 167.02293395996094 141.8070068359375 164.80152893066406 144.0284423828125 164.80152893066406 147.36053466796875 168.13363647460938 152.35870361328125 174.24252319335938 162.35504150390625 186.46026611328125 171.24072265625 197.011962890625 176.794189453125 204.2315368652344 181.237060546875 210.89578247070313 181.237060546875 210.89578247070313 " />
        </svg>