<?xml version="1.0" standalone="no"?>
    <svg width="256" height="256" xmlns="http://www.w3.org/2000/svg" version="1.1">
    <polyline stroke="black" stroke-width="3" stroke-linecap="round" fill="transparent" stroke-linejoin="round" points="56 65 56 65 56 64 56 64 56 64 56 64 56 64 56 64 56 65 55 69 55 74 54 80 54 89 54 95 55 100 55 105 56 108 56 111 57 112 59 113 62 111 63 110 " />
        <polyline stroke="black" stroke-width="3" stroke-linecap="round" fill="transparent" stroke-linejoin="round" points="105 70 108 70 110 71 110 74 108 79 105 85 101 92 96 99 89 107 83 114 76 120 70 126 61 132 57 134 53 136 51 138 50 139 49 139 49 139 48 139 49 140 51 140 56 140 61 140 67 140 72 140 78 139 84 137 90 134 95 130 100 125 105 120 107 117 " />
        <polyline stroke="black" stroke-width="3" stroke-linecap="round" fill="transparent" stroke-linejoin="round" points="81 72 80 75 80 80 79 87 79 94 78 104 78 115 77 126 77 137 77 149 76 160 76 174 76 178 76 188 75 190 75 196 75 198 75 198 75 198 75 197 " />
        <polyline stroke="black" stroke-width="3" stroke-linecap="round" fill="transparent" stroke-linejoin="round" points="69 155 67 157 64 160 60 164 57 168 53 171 49 177 46 181 44 184 42 187 41 189 40 191 39 192 39 191 40 190 " />
        <polyline stroke="black" stroke-width="3" stroke-linecap="round" fill="transparent" stroke-linejoin="round" points="66 165 72 165 77 166 82 168 88 170 89 170 92 172 93 172 96 173 97 173 " />
        <polyline stroke="black" stroke-width="3" stroke-linecap="round" fill="transparent" stroke-linejoin="round" points="105 125 105 125 104 125 104 126 103 128 102 133 101 138 100 144 100 150 99 157 99 160 99 163 99 165 99 166 100 166 100 167 102 167 104 168 110 166 114 164 116 163 123 157 128 153 131 148 135 144 137 140 138 139 " />
        <polyline stroke="black" stroke-width="3" stroke-linecap="round" fill="transparent" stroke-linejoin="round" points="141 132 142 135 143 139 144 143 145 148 145 152 146 155 145 158 145 160 144 162 142 162 142 162 " />
        <polyline stroke="black" stroke-width="3" stroke-linecap="round" fill="transparent" stroke-linejoin="round" points="121 118 122 122 122 128 121 136 119 146 117 157 115 168 113 179 111 189 109 200 108 206 107 211 106 214 106 217 106 218 107 218 " />
        <polyline stroke="black" stroke-width="3" stroke-linecap="round" fill="transparent" stroke-linejoin="round" points="159 120 159 123 159 128 158 133 157 140 156 149 155 155 154 159 154 162 154 165 154 166 154 167 155 168 156 168 161 168 165 166 170 162 176 158 183 153 188 148 193 144 196 141 199 138 202 137 203 137 204 139 205 142 205 146 205 150 205 154 204 158 203 160 201 163 200 163 199 163 198 162 " />
        <polyline stroke="black" stroke-width="3" stroke-linecap="round" fill="transparent" stroke-linejoin="round" points="188 78 188 81 189 86 188 94 187 105 183 125 180 140 178 155 175 170 173 182 170 194 168 204 166 213 163 221 162 228 161 231 " />
        </svg>