<?xml version="1.0" standalone="no"?>
    <svg width="256" height="256" xmlns="http://www.w3.org/2000/svg" version="1.1">
    <polyline stroke="black" stroke-width="3" stroke-linecap="round" fill="transparent" stroke-linejoin="round" points="58 90 60 92 62 94 64 97 66 100 67 102 69 104 71 106 72 108 74 109 77 110 82 111 84 110 " />
        <polyline stroke="black" stroke-width="3" stroke-linecap="round" fill="transparent" stroke-linejoin="round" points="113 92 110 97 106 104 101 111 95 119 89 125 83 130 77 133 71 137 68 139 67 140 65 141 65 141 65 141 66 141 69 141 73 141 82 139 88 137 96 134 103 131 111 125 115 122 119 118 " />
        <polyline stroke="black" stroke-width="3" stroke-linecap="round" fill="transparent" stroke-linejoin="round" points="98 77 97 78 97 81 96 85 96 91 95 100 93 116 92 128 91 141 91 154 91 166 91 177 91 186 91 192 91 196 91 198 91 198 91 197 " />
        <polyline stroke="black" stroke-width="3" stroke-linecap="round" fill="transparent" stroke-linejoin="round" points="82 149 81 149 79 152 76 155 74 159 71 163 68 167 66 170 64 174 62 176 61 178 61 180 61 180 " />
        <polyline stroke="black" stroke-width="3" stroke-linecap="round" fill="transparent" stroke-linejoin="round" points="92 149 100 147 105 147 110 148 114 149 117 149 120 150 122 151 124 151 " />
        <polyline stroke="black" stroke-width="3" stroke-linecap="round" fill="transparent" stroke-linejoin="round" points="132 107 130 109 129 112 127 115 127 118 126 121 126 125 126 128 127 130 128 132 130 135 131 136 134 136 137 135 141 132 146 128 151 122 156 115 159 110 162 107 164 106 166 106 167 108 168 112 169 116 170 121 171 128 171 132 171 134 171 135 170 136 170 135 " />
        <polyline stroke="black" stroke-width="3" stroke-linecap="round" fill="transparent" stroke-linejoin="round" points="149 78 148 79 146 83 143 96 140 108 138 123 135 138 133 154 131 168 130 180 129 190 128 198 128 203 128 207 129 208 130 208 131 207 " />
        <polyline stroke="black" stroke-width="3" stroke-linecap="round" fill="transparent" stroke-linejoin="round" points="170 128 170 130 169 133 169 135 170 138 170 141 171 143 172 144 174 146 176 147 178 147 181 147 185 146 190 143 195 139 204 132 209 127 213 124 215 121 217 120 219 119 220 118 221 119 223 121 223 123 224 125 225 128 225 130 226 132 226 134 226 134 226 134 " />
        <polyline stroke="black" stroke-width="3" stroke-linecap="round" fill="transparent" stroke-linejoin="round" points="205 95 204 100 202 107 201 116 200 127 199 140 198 153 197 168 197 183 196 203 196 209 197 220 198 235 199 240 200 244 " />
        </svg>