<?xml version="1.0" standalone="no"?>
    <svg width="256" height="256" xmlns="http://www.w3.org/2000/svg" version="1.1">
    <polyline stroke="black" stroke-width="3" stroke-linecap="round" fill="transparent" stroke-linejoin="round" points="12.496823823331283 65.64143255204493 14.090904103605794 68.8295931125939 16.32261649599002 72.65538578525266 21.42367339286841 80.30697113057019 27.481178457911483 87.63974041983283 34.49513169111913 92.7407973167112 34.49513169111913 92.7407973167112 " />
        <polyline stroke="black" stroke-width="3" stroke-linecap="round" fill="transparent" stroke-linejoin="round" points="77.21648320247539 72.97420184130758 73.70950658587151 79.3505229624055 70.20252996926763 87.00210830772303 66.3767372966089 94.65369365304056 66.3767372966089 94.65369365304056 " />
        <polyline stroke="black" stroke-width="3" stroke-linecap="round" fill="transparent" stroke-linejoin="round" points="46.291325765150305 35.672723282884604 46.291325765150305 41.41141229187275 46.291325765150305 48.74418158113539 46.291325765150305 57.352215094617605 46.291325765150305 68.1919610004841 46.610141821205275 80.6257871866251 47.2477739333151 95.61014182120527 48.204222101479786 112.1885767360599 48.52303815753464 128.44819559485967 48.52303815753464 144.0701823415496 48.204222101479786 156.8228245837455 47.885406045424816 165.4308580972277 47.885406045424816 171.16954710621587 47.885406045424816 175.31415583492952 47.885406045424816 179.4587645636432 47.885406045424816 183.28455723630196 47.885406045424816 185.51626962868625 47.56658998936996 186.79153385290584 47.56658998936996 187.11034990896076 47.2477739333151 187.11034990896076 46.92895787726013 186.79153385290584 46.92895787726013 186.79153385290584 " />
        <polyline stroke="black" stroke-width="3" stroke-linecap="round" fill="transparent" stroke-linejoin="round" points="14.409720159660653 127.81056348274988 21.742489448923266 127.491747426695 26.843546345801656 126.53529925853027 32.58223535478976 125.2600350343107 45.33487759698562 120.79661024954214 57.13107167101691 116.33318546477358 66.69555335266375 113.1450249042246 74.34713869798134 110.91331251184032 80.08582770696944 108.68160011945604 83.27398826751846 106.76870378312664 83.91162037962818 106.13107167101684 83.91162037962818 106.13107167101684 " />
        <polyline stroke="black" stroke-width="3" stroke-linecap="round" fill="transparent" stroke-linejoin="round" points="53.94291111046789 122.39069052981662 50.117118437809154 131.63635615540863 44.05961337276608 144.38899839760452 37.04566013955832 157.77927275191018 30.350522962405535 169.5754668259414 25.568282121582 177.86468428336872 22.380121561033093 183.28455723630196 22.061305504978236 184.24100540446665 22.061305504978236 184.24100540446665 " />
        <polyline stroke="black" stroke-width="3" stroke-linecap="round" fill="transparent" stroke-linejoin="round" points="53.30527899835806 137.05622910834188 59.362784063401136 142.79491811733004 62.55094462395016 146.6207107899888 65.73910518449907 150.12768740659266 71.79661024954214 157.1416406398004 77.53529925853024 162.56151359273366 82.31754009935378 167.02493837750222 84.23043643568315 169.5754668259414 84.23043643568315 169.5754668259414 " />
        <polyline stroke="black" stroke-width="3" stroke-linecap="round" fill="transparent" stroke-linejoin="round" points="104.31584796714162 76.48117845791143 104.31584796714162 85.08921197139367 104.31584796714162 91.14671703643673 103.99703191108676 97.84185421358951 103.35939979897694 110.27568039973052 103.04058374292208 121.11542630559704 103.04058374292208 129.72345981907924 103.04058374292208 136.0997809401772 103.04058374292208 139.28794150072616 103.35939979897694 140.24438966889085 104.31584796714162 140.24438966889085 105.90992824741612 140.24438966889085 109.41690486402 138.33149333256148 115.15559387300812 134.8245167159576 121.53191499410605 130.99872404329884 127.58942005914912 128.12937953880476 132.37166089997254 125.89766714642047 135.87863751657642 124.6224029222009 137.7915338529058 124.303586866146 138.74798202107047 123.9847708100911 140.02324624529012 123.9847708100911 140.9796944134548 122.70950658587152 142.25495863767435 122.07187447376172 142.25495863767435 122.07187447376172 " />
        <polyline stroke="black" stroke-width="3" stroke-linecap="round" fill="transparent" stroke-linejoin="round" points="141.61732652556464 76.79999451396634 141.61732652556464 86.36447619561324 141.61732652556464 93.05961337276608 141.61732652556464 100.39238266202872 141.61732652556464 113.1450249042246 142.25495863767435 123.02832264192642 142.89259074978418 128.76701165091455 143.21140680583903 131.31754009935375 143.84903891794886 131.63635615540863 143.84903891794886 131.63635615540863 " />
        <polyline stroke="black" stroke-width="3" stroke-linecap="round" fill="transparent" stroke-linejoin="round" points="119.93783471383152 57.352215094617605 119.93783471383152 58.94629537489209 120.57546682594136 61.17800776727637 121.2130989380512 63.40972015966065 121.53191499410605 65.96024860809982 121.53191499410605 74.24946606552714 121.53191499410605 84.45157985928387 121.53191499410605 95.29132576515036 121.53191499410605 105.49343955890708 121.53191499410605 116.65200152082846 121.53191499410605 130.67990798724395 120.57546682594136 144.38899839760452 117.70612232144732 158.7357209200749 114.83677781695326 171.80717921832567 111.9674333124592 181.05284484391768 109.09808880796504 190.9361425816195 109.09808880796504 190.9361425816195 " />
        <polyline stroke="black" stroke-width="3" stroke-linecap="round" fill="transparent" stroke-linejoin="round" points="169.9919555144504 70.1048573368135 169.9919555144504 77.43762662607614 169.3543234023407 88.59618858799752 167.7602431220662 100.0735666059738 166.16616284179167 109.63804828762072 165.84734678573682 114.7391051844991 165.84734678573682 117.92726574504806 165.84734678573682 119.52134602532254 166.16616284179167 119.84016208137744 166.8037949539015 119.84016208137744 169.03550734628573 119.84016208137744 174.13656424316412 118.56489785715786 182.10696564453656 115.05792124055398 191.6714473261834 111.86976068000502 200.59829689572052 109.95686434367562 207.61225012892828 108.68160011945604 213.03212308186153 107.40633589523644 217.17673181057523 106.44988772707175 219.0896281469046 105.81225561496196 219.40844420295943 105.49343955890708 219.40844420295943 104.85580744679729 219.40844420295943 104.85580744679729 " />
        <polyline stroke="black" stroke-width="3" stroke-linecap="round" fill="transparent" stroke-linejoin="round" points="218.45199603479475 63.40972015966065 218.45199603479475 72.65538578525266 217.81436392268495 86.36447619561324 217.4955478666301 99.43593449386404 217.17673181057523 109.31923223156583 216.5390996984654 114.1014730723893 216.5390996984654 114.1014730723893 " />
        <polyline stroke="black" stroke-width="3" stroke-linecap="round" fill="transparent" stroke-linejoin="round" points="189.12091887774432 33.75982694655522 189.12091887774432 43.32430862820213 189.75855098985403 58.6274793188372 190.077367045909 75.20591423369186 190.7149991580187 93.378429428821 190.7149991580187 113.1450249042246 189.12091887774432 134.8245167159576 185.61394226114044 156.1851924716357 182.74459775664627 174.35770766676484 181.15051747637187 188.7044301892352 180.51288536426205 200.18180820721153 180.51288536426205 206.23931327225455 180.51288536426205 208.15220960858392 180.51288536426205 208.15220960858392 " />
        </svg>