<?xml version="1.0" standalone="no"?>
    <svg width="256" height="256" xmlns="http://www.w3.org/2000/svg" version="1.1">
    <polyline stroke="black" stroke-width="3" stroke-linecap="round" fill="transparent" stroke-linejoin="round" points="108.60247802734376 54.0452880859375 104.9073486328125 68.415283203125 99.56991577148438 85.65927124023438 93.41134643554688 102.90324401855467 88.89508056640625 113.57809448242188 86.02108764648438 120.96836853027344 84.78936767578125 125.07408142089844 84.78936767578125 127.53750610351563 85.199951171875 127.94808959960938 93.82196044921876 127.12693786621094 105.72848510742188 124.66349792480467 121.74072265625 121.37893676757813 128.720458984375 120.55780029296876 145.96444702148438 123.43179321289063 149.65960693359375 125.4846649169922 158.2816162109375 140.26519775390625 159.10272216796875 160.7937469482422 154.58642578125 178.44830322265625 146.78558349609375 194.4605712890625 136.931884765625 205.95654296875 120.91961669921876 215.39968872070313 103.67562866210938 217.4525451660156 97.51708984375 214.9891357421875 93.41134643554688 211.70455932617188 93.41134643554688 211.70455932617188 " />
        <polyline stroke="black" stroke-width="3" stroke-linecap="round" fill="transparent" stroke-linejoin="round" points="93.00079345703124 90.58612060546876 103.26507568359376 85.24868774414063 109.83419799804688 82.37469482421875 117.22445678710938 79.09011840820313 139.395263671875 69.23641967773438 150.07015991210938 64.72013854980469 154.99700927734375 63.488433837890625 156.6392822265625 63.488433837890625 156.6392822265625 63.488433837890625 " />
        <polyline stroke="black" stroke-width="3" stroke-linecap="round" fill="transparent" stroke-linejoin="round" points="112.70819091796876 126.71636962890624 105.72848510742188 142.31805419921875 102.0333251953125 149.29776000976563 96.28533935546876 158.330322265625 70.0087890625 191.176025390625 61.79736328125 201.85086059570313 61.79736328125 201.85086059570313 " />
        </svg>