<?xml version="1.0" standalone="no"?>
    <svg width="256" height="256" xmlns="http://www.w3.org/2000/svg" version="1.1">
    <polyline stroke="black" stroke-width="3" stroke-linecap="round" fill="transparent" stroke-linejoin="round" points="114.40972900390624 51.50202941894531 113.17059326171876 63.06744384765625 111.51840209960938 71.74148559570313 109.86618041992188 81.24165344238281 105.32260131835938 99.8289031982422 100.779052734375 114.2856903076172 97.47467041015624 125.85107421875 94.58331298828124 134.52513122558594 94.17025756835938 137.00344848632813 94.996337890625 137.00344848632813 101.19210815429688 134.52513122558594 113.17059326171876 129.15548706054688 128.45346069335938 122.95974731445313 142.91015625 119.6553192138672 154.888671875 120.89447021484376 161.9105224609375 126.67718505859376 167.6932373046875 141.96002197265625 168.932373046875 162.1995086669922 165.6279296875 179.1345672607422 160.67138671875 190.69998168945313 154.888671875 198.54791259765625 146.62762451171875 203.9175720214844 135.062255859375 206.3958740234375 122.25765991210938 203.09149169921875 122.25765991210938 203.09149169921875 " />
        <polyline stroke="black" stroke-width="3" stroke-linecap="round" fill="transparent" stroke-linejoin="round" points="102.01824951171876 94.04620361328124 115.64886474609376 89.50267028808594 120.60546875 87.85044860839844 125.56210327148438 86.61129760742188 134.649169921875 84.13299560546875 142.49716186523438 82.48080444335938 148.69287109375 80.82859802246094 150.75814819335938 80.41555786132813 150.75814819335938 80.41555786132813 " />
        <polyline stroke="black" stroke-width="3" stroke-linecap="round" fill="transparent" stroke-linejoin="round" points="118.95330810546876 158.48204040527344 113.17059326171876 171.28660583496094 109.453125 178.30845642089844 105.32260131835938 186.5694580078125 96.23553466796876 207.63504028320313 96.23553466796876 207.63504028320313 " />
        </svg>