<?xml version="1.0" standalone="no"?>
    <svg width="256" height="256" xmlns="http://www.w3.org/2000/svg" version="1.1">
    <polyline stroke="black" stroke-width="3" stroke-linecap="round" fill="transparent" stroke-linejoin="round" points="79.93341064453125 81.33334350585938 109.80010986328124 67.4666748046875 121.53338623046876 62.13334655761719 135.4000244140625 57.86668395996094 139.666748046875 57.86668395996094 140.7333984375 56.800018310546875 140.7333984375 57.86668395996094 139.666748046875 58.93333435058594 139.666748046875 58.93333435058594 " />
        <polyline stroke="black" stroke-width="3" stroke-linecap="round" fill="transparent" stroke-linejoin="round" points="115.1334228515625 47.20001983642578 101.2667236328125 83.4666748046875 91.666748046875 105.86669921875 86.3333740234375 117.60000610351563 84.2000732421875 120.8000030517578 84.2000732421875 121.86668395996094 85.2667236328125 119.73338317871094 90.60003662109376 115.4666748046875 105.53338623046876 104.8000030517578 125.80010986328124 98.40000915527344 151.4000244140625 96.26667785644533 168.466796875 97.33334350585938 178.0667724609375 100.53335571289063 180.2000732421875 103.73333740234376 181.2667236328125 115.4666748046875 178.0667724609375 140.00001525878906 173.8001708984375 168.80001831054688 170.60009765625 193.33334350585935 168.466796875 216.80001831054688 167.4000244140625 222.13336181640625 164.2000732421875 226.40005493164065 155.666748046875 225.33334350585935 143.933349609375 216.80001831054688 143.933349609375 216.80001831054688 " />
        <polyline stroke="black" stroke-width="3" stroke-linecap="round" fill="transparent" stroke-linejoin="round" points="124.7333984375 102.66667175292967 115.1334228515625 145.33334350585938 109.80010986328124 157.06671142578125 98.06671142578124 181.60003662109375 85.2667236328125 200.80001831054688 76.7333984375 209.33334350585935 76.7333984375 209.33334350585935 " />
        </svg>