<?xml version="1.0" standalone="no"?>
    <svg width="256" height="256" xmlns="http://www.w3.org/2000/svg" version="1.1">
    <polyline stroke="black" stroke-width="3" stroke-linecap="round" fill="transparent" stroke-linejoin="round" points="67.77569580078125 85.24127197265625 65.12557983398438 95.84181213378906 64.2421875 100.70040893554688 62.917083740234375 113.95108032226563 62.917083740234375 119.2513427734375 64.68389892578125 124.1099090576172 69.54244995117188 126.76004028320313 74.40106201171875 128.08511352539063 89.41845703125 128.52682495117188 113.2696533203125 124.55162048339844 127.4036865234375 120.13470458984376 137.120849609375 116.6011962890625 144.1878662109375 112.62600708007813 146.8380126953125 110.41754150390624 149.48812866210938 106.884033203125 149.48812866210938 106.884033203125 " />
        <polyline stroke="black" stroke-width="3" stroke-linecap="round" fill="transparent" stroke-linejoin="round" points="153.46337890625 92.75 153.46337890625 96.28350830078124 153.02166748046875 99.8170166015625 151.6966552734375 106.00067138671876 149.48812866210938 110.85923767089844 148.604736328125 112.18431091308594 148.604736328125 112.18431091308594 " />
        <polyline stroke="black" stroke-width="3" stroke-linecap="round" fill="transparent" stroke-linejoin="round" points="120.77838134765624 70.66554260253906 117.6865234375 83.47451782226563 109.29443359375 112.62600708007813 97.36883544921876 143.98590087890625 91.18524169921876 159.44503784179688 79.70126342773438 183.7379150390625 70.42584228515625 202.28887939453125 64.2421875 213.33108520507813 64.2421875 213.33108520507813 " />
        <polyline stroke="black" stroke-width="3" stroke-linecap="round" fill="transparent" stroke-linejoin="round" points="75.284423828125 174.4624481201172 83.23480224609375 179.32102966308594 100.460693359375 189.4798889160156 117.6865234375 200.08041381835935 125.19525146484376 204.93899536132813 138.4459228515625 214.6561584472656 138.4459228515625 214.6561584472656 " />
        </svg>