<?xml version="1.0" standalone="no"?>
    <svg width="256" height="256" xmlns="http://www.w3.org/2000/svg" version="1.1">
    <polyline stroke="black" stroke-width="3" stroke-linecap="round" fill="transparent" stroke-linejoin="round" points="92.95196533203124 57.41487121582031 91.62689208984376 64.923583984375 90.30184936523438 73.75736999511719 88.53509521484375 89.65817260742188 87.65170288085938 103.35055541992188 87.65170288085938 108.65080261230467 88.97674560546875 117.04289245605467 91.18524169921876 121.45977783203124 98.69393920898438 124.55162048339844 111.944580078125 124.9932861328125 128.28707885742188 121.90147399902344 145.512939453125 117.04289245605467 153.46337890625 113.50938415527344 174.6644287109375 101.14207458496094 179.081298828125 97.16688537597656 179.081298828125 97.16688537597656 " />
        <polyline stroke="black" stroke-width="3" stroke-linecap="round" fill="transparent" stroke-linejoin="round" points="182.173095703125 78.61593627929688 182.173095703125 86.12466430664063 181.7314453125 94.95843505859376 180.4063720703125 104.23391723632813 179.081298828125 111.74261474609376 179.081298828125 111.74261474609376 " />
        <polyline stroke="black" stroke-width="3" stroke-linecap="round" fill="transparent" stroke-linejoin="round" points="151.2548828125 65.80696105957031 149.04647827148438 76.84918212890625 138.00424194335938 116.6011962890625 129.17047119140625 144.4276123046875 120.336669921875 167.83712768554688 112.38629150390624 184.17962646484375 104.43588256835938 196.105224609375 97.810546875 203.1722412109375 97.810546875 203.1722412109375 " />
        <polyline stroke="black" stroke-width="3" stroke-linecap="round" fill="transparent" stroke-linejoin="round" points="98.69393920898438 166.0703582763672 107.52767944335938 169.60386657714844 127.4036865234375 179.32102966308594 149.92987060546875 192.57171630859375 160.5303955078125 199.63873291015625 181.289794921875 216.42291259765625 181.289794921875 216.42291259765625 " />
        </svg>