<?xml version="1.0" standalone="no"?>
    <svg width="256" height="256" xmlns="http://www.w3.org/2000/svg" version="1.1">
    <polyline stroke="black" stroke-width="3" stroke-linecap="round" fill="transparent" stroke-linejoin="round" points="96 53 95 61 95 65 95 70 95 74 95 77 95 81 95 85 95 87 95 90 95 92 95 93 95 93 95 94 96 95 97 96 99 96 111 96 120 95 123 94 130 92 134 91 137 89 140 89 141 88 142 88 145 87 146 86 147 86 148 86 149 85 149 85 " />
        <polyline stroke="black" stroke-width="3" stroke-linecap="round" fill="transparent" stroke-linejoin="round" points="151 45 151 46 151 50 151 58 151 65 151 68 151 71 151 72 151 73 151 74 151 76 151 77 151 78 151 79 151 81 151 81 151 82 151 83 151 84 151 84 " />
        <polyline stroke="black" stroke-width="3" stroke-linecap="round" fill="transparent" stroke-linejoin="round" points="134 51 134 55 134 73 132 103 129 117 121 139 110 156 105 163 96 174 89 182 85 186 81 191 77 193 75 195 73 197 73 197 73 197 " />
        <polyline stroke="black" stroke-width="3" stroke-linecap="round" fill="transparent" stroke-linejoin="round" points="84 144 90 149 101 155 125 172 141 180 149 185 153 186 157 188 158 188 159 188 159 189 159 189 " />
        </svg>