<?xml version="1.0" standalone="no"?>
    <svg width="256" height="256" xmlns="http://www.w3.org/2000/svg" version="1.1">
    <polyline stroke="black" stroke-width="3" stroke-linecap="round" fill="transparent" stroke-linejoin="round" points="71.1036376953125 74.33506774902344 70.0089111328125 87.47174072265625 69.4615478515625 101.15579223632813 70.0089111328125 113.7451171875 72.1983642578125 122.50289916992188 76.0299072265625 128.5238800048828 83.1456298828125 131.8080596923828 99.56646728515624 130.1659698486328 125.29248046875 121.40818786621094 148.28167724609375 109.91357421875 165.2498779296875 99.51370239257813 176.7445068359375 90.75592041015624 184.4075927734375 78.71395874023438 184.4075927734375 78.71395874023438 " />
        <polyline stroke="black" stroke-width="3" stroke-linecap="round" fill="transparent" stroke-linejoin="round" points="171.8182373046875 60.65101623535156 174.5550537109375 71.05088806152344 175.6497802734375 81.45075988769531 174.5550537109375 90.75592041015624 174.5550537109375 90.75592041015624 " />
        <polyline stroke="black" stroke-width="3" stroke-linecap="round" fill="transparent" stroke-linejoin="round" points="135.14498901367188 72.69297790527344 128.57666015625 113.7451171875 115.9873046875 147.13418579101563 100.66119384765624 183.26007080078125 87.52450561523438 207.343994140625 77.1246337890625 223.76483154296875 67.81948852539063 234.71209716796875 61.251129150390625 239.63833618164065 61.251129150390625 239.63833618164065 " />
        <polyline stroke="black" stroke-width="3" stroke-linecap="round" fill="transparent" stroke-linejoin="round" points="74.9351806640625 171.21810913085938 90.26132202148438 177.7864532470703 124.7451171875 192.01785278320313 153.75531005859375 205.701904296875 177.2918701171875 218.29122924804688 200.828369140625 230.33319091796875 200.828369140625 230.33319091796875 " />
        </svg>