<?xml version="1.0" standalone="no"?>
    <svg width="256" height="256" xmlns="http://www.w3.org/2000/svg" version="1.1">
    <polyline stroke="black" stroke-width="3" stroke-linecap="round" fill="transparent" stroke-linejoin="round" points="92.1876220703125 62.05938720703125 88.84188842773438 72.65419006347656 85.49615478515625 84.92182922363281 83.26568603515625 96.07424926757813 81.59283447265625 106.11140441894533 81.59283447265625 112.2452392578125 82.70806884765625 117.82144165039063 86.61138916015625 120.60954284667967 93.8604736328125 122.84002685546876 107.24334716796876 122.28240966796876 123.41436767578124 119.49430847167967 137.9124755859375 115.03334045410156 149.06488037109375 110.01475524902344 157.42919921875 106.66903686523438 163.56304931640625 103.88093566894533 171.9273681640625 97.74710083007813 171.9273681640625 97.74710083007813 " />
        <polyline stroke="black" stroke-width="3" stroke-linecap="round" fill="transparent" stroke-linejoin="round" points="174.1578369140625 65.40512084960938 174.1578369140625 75.44229125976563 173.0426025390625 86.03707885742188 169.1392822265625 99.9775848388672 164.12066650390625 112.2452392578125 164.12066650390625 112.2452392578125 " />
        <polyline stroke="black" stroke-width="3" stroke-linecap="round" fill="transparent" stroke-linejoin="round" points="146.83441162109375 65.40512084960938 137.9124755859375 102.76568603515624 129.54818725585938 129.53146362304688 118.95339965820313 155.1820068359375 109.47384643554688 173.02586364746094 98.32144165039063 191.4273376464844 98.32144165039063 191.4273376464844 " />
        <polyline stroke="black" stroke-width="3" stroke-linecap="round" fill="transparent" stroke-linejoin="round" points="89.39950561523438 153.5091552734375 102.78240966796876 158.52774047851563 121.74151611328124 165.21917724609375 137.9124755859375 173.02586364746094 153.52587890625 181.9477996826172 166.35113525390625 190.3121032714844 166.35113525390625 190.3121032714844 " />
        </svg>