<?xml version="1.0" standalone="no"?>
    <svg width="256" height="256" xmlns="http://www.w3.org/2000/svg" version="1.1">
    <polyline stroke="black" stroke-width="3" stroke-linecap="round" fill="transparent" stroke-linejoin="round" points="144.2222900390625 33.77778625488281 142 39.33333587646485 137.5556640625 54.88890075683594 128.666748046875 76 115.3333740234375 101.55555725097656 90.888916015625 137.11111450195313 75.3333740234375 156.00001525878906 63.11114501953125 168.22222900390625 52.00006103515625 178.22222900390625 52.00006103515625 178.22222900390625 " />
        <polyline stroke="black" stroke-width="3" stroke-linecap="round" fill="transparent" stroke-linejoin="round" points="100.888916015625 76 114.2222900390625 79.33334350585938 155.3333740234375 92.66667175292967 193.1112060546875 106.00001525878906 212 113.7777862548828 222 119.33334350585938 227.5556640625 122.66667175292967 229.77783203125 124.88890075683594 226.4444580078125 129.33334350585938 226.4444580078125 129.33334350585938 " />
        <polyline stroke="black" stroke-width="3" stroke-linecap="round" fill="transparent" stroke-linejoin="round" points="123.1112060546875 117.11111450195313 127.5556640625 119.33334350585938 128.666748046875 120.4444580078125 128.666748046875 121.55557250976563 129.77783203125 126.00001525878906 132 138.22222900390625 134.2222900390625 160.4444580078125 135.3333740234375 187.11111450195313 136.4444580078125 217.11111450195313 136.4444580078125 222.66668701171875 136.4444580078125 231.5555725097656 136.4444580078125 233.77780151367188 135.3333740234375 233.77780151367188 135.3333740234375 232.66668701171875 135.3333740234375 232.66668701171875 " />
        <polyline stroke="black" stroke-width="3" stroke-linecap="round" fill="transparent" stroke-linejoin="round" points="87.5556640625 176.00001525878906 89.77783203125 178.22222900390625 90.888916015625 180.4444580078125 90.888916015625 180.4444580078125 " />
        <polyline stroke="black" stroke-width="3" stroke-linecap="round" fill="transparent" stroke-linejoin="round" points="186.4444580078125 160.4444580078125 185.3333740234375 167.1111297607422 185.3333740234375 173.7777862548828 185.3333740234375 173.7777862548828 " />
        </svg>