<?xml version="1.0" standalone="no"?>
    <svg width="256" height="256" xmlns="http://www.w3.org/2000/svg" version="1.1">
    <polyline stroke="black" stroke-width="3" stroke-linecap="round" fill="transparent" stroke-linejoin="round" points="142.81585693359375 47.56126403808594 119.39578247070313 77.11514282226563 100.43667602539063 98.8623504638672 83.15045166015625 116.70619201660156 67.53707885742188 129.53146362304688 57.499908447265625 134.550048828125 57.499908447265625 134.550048828125 " />
        <polyline stroke="black" stroke-width="3" stroke-linecap="round" fill="transparent" stroke-linejoin="round" points="83.15045166015625 65.40512084960938 106.01287841796876 69.86607360839844 135.0091552734375 76.55752563476563 157.31396484375 81.01849365234375 174.6002197265625 85.47944641113281 188.54071044921875 88.82518005371094 194.674560546875 90.49803161621094 196.905029296875 90.49803161621094 196.905029296875 90.49803161621094 " />
        <polyline stroke="black" stroke-width="3" stroke-linecap="round" fill="transparent" stroke-linejoin="round" points="120.51101684570313 116.70619201660156 121.06863403320313 129.53146362304688 121.62625122070313 145.14483642578125 121.62625122070313 159.64297485351563 119.95339965820313 171.35301208496094 117.165283203125 178.60206604003906 112.146728515625 183.06304931640625 102.10955810546876 184.73590087890625 102.10955810546876 184.73590087890625 " />
        <polyline stroke="black" stroke-width="3" stroke-linecap="round" fill="transparent" stroke-linejoin="round" points="57.499908447265625 160.75820922851563 55.8270263671875 168.5648956298828 56.942291259765625 173.58348083496094 61.40325927734375 176.92921447753906 61.40325927734375 176.92921447753906 " />
        <polyline stroke="black" stroke-width="3" stroke-linecap="round" fill="transparent" stroke-linejoin="round" points="175.7154541015625 156.29725646972656 181.2916259765625 161.8734588623047 186.31024169921875 168.5648956298828 186.31024169921875 168.5648956298828 " />
        </svg>