<?xml version="1.0" standalone="no"?>
    <svg width="256" height="256" xmlns="http://www.w3.org/2000/svg" version="1.1">
    <polyline stroke="black" stroke-width="3" stroke-linecap="round" fill="transparent" stroke-linejoin="round" points="139.40280151367188 66.31253051757813 131.16989135742188 87.71804809570313 120.87875366210938 107.88864135742188 110.17599487304688 123.94276428222656 99.4732666015625 136.29209899902344 85.88897705078125 150.2880096435547 65.71841430664063 164.695556640625 65.71841430664063 164.695556640625 " />
        <polyline stroke="black" stroke-width="3" stroke-linecap="round" fill="transparent" stroke-linejoin="round" points="138.99111938476563 99.65574645996094 163.6898193359375 117.76809692382813 181.3905029296875 128.47084045410156 194.1514892578125 134.23387145996094 198.6795654296875 135.05714416503906 198.6795654296875 135.05714416503906 " />
        <polyline stroke="black" stroke-width="3" stroke-linecap="round" fill="transparent" stroke-linejoin="round" points="131.16989135742188 162.22569274902344 132.81646728515625 180.74969482421875 134.05142211914063 195.56887817382813 133.63973999023438 208.74151611328125 132.81646728515625 218.6210021972656 130.75820922851563 227.2655334472656 127.465087890625 232.20526123046875 127.465087890625 232.20526123046875 " />
        <polyline stroke="black" stroke-width="3" stroke-linecap="round" fill="transparent" stroke-linejoin="round" points="78.89105224609375 188.5709228515625 65.71841430664063 204.62506103515625 59.955413818359375 211.21139526367188 59.955413818359375 211.21139526367188 " />
        <polyline stroke="black" stroke-width="3" stroke-linecap="round" fill="transparent" stroke-linejoin="round" points="192.5048828125 181.1613311767578 194.9747314453125 183.63121032714844 202.3843994140625 191.04080200195313 211.4405517578125 199.68536376953125 219.26177978515625 207.09494018554688 219.26177978515625 207.09494018554688 " />
        </svg>