<?xml version="1.0" standalone="no"?>
    <svg width="256" height="256" xmlns="http://www.w3.org/2000/svg" version="1.1">
    <polyline stroke="black" stroke-width="3" stroke-linecap="round" fill="transparent" stroke-linejoin="round" points="131.820556640625 51.231224060058594 124.31185913085938 61.39007568359375 115.03643798828124 73.75736999511719 94.71871948242188 99.37533569335938 75.72607421875 120.576416015625 60.2669677734375 136.03550720214844 48.783050537109375 146.63604736328125 45.24957275390625 149.72789001464844 45.24957275390625 149.72789001464844 " />
        <polyline stroke="black" stroke-width="3" stroke-linecap="round" fill="transparent" stroke-linejoin="round" points="80.14300537109375 80.38270568847656 92.06857299804688 82.14945983886719 105.31927490234376 85.24127197265625 134.91241455078125 94.51675415039063 174.6644287109375 110.41754150390624 193.21533203125 119.69302368164063 197.63226318359375 122.3431396484375 197.63226318359375 122.3431396484375 " />
        <polyline stroke="black" stroke-width="3" stroke-linecap="round" fill="transparent" stroke-linejoin="round" points="115.47811889648438 133.3853759765625 115.03643798828124 141.33578491210938 115.03643798828124 148.844482421875 115.47811889648438 156.3531951904297 116.36151123046876 170.48724365234375 116.80316162109376 180.64610290527344 115.91976928710938 191.68832397460935 113.71136474609376 195.66351318359375 110.6195068359375 197.8719787597656 105.31927490234376 198.75537109375 100.01898193359376 196.98858642578125 100.01898193359376 196.98858642578125 " />
        <polyline stroke="black" stroke-width="3" stroke-linecap="round" fill="transparent" stroke-linejoin="round" points="69.984130859375 170.04556274414063 64.2421875 182.412841796875 59.825286865234375 190.36328125 57.6168212890625 194.7801513671875 57.6168212890625 194.7801513671875 " />
        <polyline stroke="black" stroke-width="3" stroke-linecap="round" fill="transparent" stroke-linejoin="round" points="175.989501953125 158.5616455078125 180.4063720703125 168.7205047607422 180.4063720703125 168.7205047607422 " />
        </svg>