<?xml version="1.0" standalone="no"?>
    <svg width="256" height="256" xmlns="http://www.w3.org/2000/svg" version="1.1">
    <polyline stroke="black" stroke-width="3" stroke-linecap="round" fill="transparent" stroke-linejoin="round" points="148.50726318359375 47.003639221191406 136.7972412109375 72.0965576171875 116.722900390625 101.0928192138672 98.87905883789063 122.28240966796876 82.70806884765625 137.89578247070313 68.20993041992188 149.04818725585938 68.20993041992188 149.04818725585938 " />
        <polyline stroke="black" stroke-width="3" stroke-linecap="round" fill="transparent" stroke-linejoin="round" points="92.1876220703125 74.88465881347656 115.607666015625 79.90324401855469 142.37347412109375 86.59469604492188 167.46636962890625 92.728515625 189.771240234375 97.18948364257813 204.826904296875 99.9775848388672 215.9793701171875 101.65045166015624 222.1131591796875 101.65045166015624 222.1131591796875 101.65045166015624 " />
        <polyline stroke="black" stroke-width="3" stroke-linecap="round" fill="transparent" stroke-linejoin="round" points="125.64483642578124 134.550048828125 126.76007080078124 149.04818725585938 127.87530517578124 165.77679443359375 128.43295288085938 180.27493286132813 127.31768798828124 190.3121032714844 125.64483642578124 196.4459228515625 121.18389892578124 199.79165649414065 110.589111328125 199.23403930664065 110.589111328125 199.23403930664065 " />
        <polyline stroke="black" stroke-width="3" stroke-linecap="round" fill="transparent" stroke-linejoin="round" points="69.3251953125 189.1968688964844 69.3251953125 193.6578369140625 71.5556640625 195.3306884765625 71.5556640625 195.3306884765625 " />
        <polyline stroke="black" stroke-width="3" stroke-linecap="round" fill="transparent" stroke-linejoin="round" points="176.9459228515625 161.8734588623047 184.75262451171875 169.68014526367188 192.001708984375 178.04444885253906 197.020263671875 185.85113525390625 197.020263671875 185.85113525390625 " />
        </svg>