<?xml version="1.0" standalone="no"?>
    <svg width="256" height="256" xmlns="http://www.w3.org/2000/svg" version="1.1">
    <polyline stroke="black" stroke-width="3" stroke-linecap="round" fill="transparent" stroke-linejoin="round" points="133.1761474609375 31.51128387451172 127.79891967773438 39.57710266113281 121.077392578125 49.435325622558594 104.04962158203124 71.84036254882813 95.08758544921876 82.59478759765625 87.021728515625 92.00489807128906 74.02685546875 106.3441162109375 64.61669921875 115.30615234375 61.03192138671875 117.9947509765625 61.03192138671875 117.9947509765625 " />
        <polyline stroke="black" stroke-width="3" stroke-linecap="round" fill="transparent" stroke-linejoin="round" points="93.295166015625 70.49606323242188 102.25717163085938 71.84036254882813 121.9736328125 74.97706604003906 143.48248291015625 80.35427856445313 164.543212890625 86.17959594726563 181.1229248046875 91.55679321289063 190.5330810546875 95.58970642089844 192.7735595703125 97.38211059570313 192.7735595703125 97.38211059570313 " />
        <polyline stroke="black" stroke-width="3" stroke-linecap="round" fill="transparent" stroke-linejoin="round" points="135.41668701171875 135.02256774902344 136.3128662109375 144.43270874023438 136.3128662109375 163.2529296875 134.96856689453125 172.66305541992188 133.1761474609375 181.17697143554688 127.79891967773438 194.171875 120.62933349609376 204.03009033203125 109.87493896484376 212.09591674804688 109.87493896484376 212.09591674804688 " />
        <polyline stroke="black" stroke-width="3" stroke-linecap="round" fill="transparent" stroke-linejoin="round" points="71.33822631835938 158.32382202148438 70.4420166015625 161.90863037109375 69.99395751953125 165.49343872070313 70.4420166015625 171.31875610351563 71.33822631835938 173.11114501953125 71.33822631835938 173.11114501953125 " />
        <polyline stroke="black" stroke-width="3" stroke-linecap="round" fill="transparent" stroke-linejoin="round" points="173.5052490234375 156.08331298828125 178.8824462890625 167.7339324951172 178.8824462890625 167.7339324951172 " />
        </svg>