<?xml version="1.0" standalone="no"?>
    <svg width="256" height="256" xmlns="http://www.w3.org/2000/svg" version="1.1">
    <polyline stroke="black" stroke-width="3" stroke-linecap="round" fill="transparent" stroke-linejoin="round" points="84.41546630859375 72.11041259765625 99.19601440429688 65.54129028320313 114.79769897460938 59.79328918457031 131.631103515625 56.09814453125 146.41162109375 54.45586395263672 157.4970703125 54.45586395263672 164.476806640625 55.68757629394531 166.940185546875 56.91929626464844 170.6353759765625 62.66728210449219 168.9930419921875 74.98440551757813 159.13934326171875 92.22840881347656 142.71652221679688 109.8829345703125 142.71652221679688 109.8829345703125 " />
        <polyline stroke="black" stroke-width="3" stroke-linecap="round" fill="transparent" stroke-linejoin="round" points="111.1025390625 117.27322387695313 125.88311767578124 120.96836853027344 133.68392944335938 123.43179321289063 148.87509155273438 131.23263549804688 156.265380859375 136.15948486328125 156.265380859375 136.15948486328125 " />
        <polyline stroke="black" stroke-width="3" stroke-linecap="round" fill="transparent" stroke-linejoin="round" points="94.6796875 171.0580291748047 102.89111328125 165.31002807617188 131.22055053710938 152.1717529296875 147.64337158203125 149.29776000976563 161.1922607421875 150.118896484375 169.814208984375 152.99290466308594 174.7410888671875 157.09861755371094 177.2044677734375 166.13116455078125 173.5093994140625 182.1434326171875 162.4239501953125 197.74514770507813 155.4442138671875 205.5459899902344 155.4442138671875 205.5459899902344 " />
        <polyline stroke="black" stroke-width="3" stroke-linecap="round" fill="transparent" stroke-linejoin="round" points="127.525390625 201.02972412109375 134.09454345703125 201.85086059570313 141.48480224609375 203.49313354492188 166.11907958984375 214.16796875 175.9727783203125 220.73712158203125 175.9727783203125 220.73712158203125 " />
        </svg>