<?xml version="1.0" standalone="no"?>
    <svg width="256" height="256" xmlns="http://www.w3.org/2000/svg" version="1.1">
    <polyline stroke="black" stroke-width="3" stroke-linecap="round" fill="transparent" stroke-linejoin="round" points="83.89096069335938 72.79623413085938 91.55584716796876 71.646240234375 99.158935546875 70.59683227539063 114.42791748046876 67.77058410644531 122.65780639648438 65.53216552734375 137.141845703125 61.400726318359375 144.43853759765625 59.50422668457031 157.6715087890625 56.7650146484375 162.037353515625 56.17481994628906 167.65838623046875 55.997459411621094 168.0462646484375 55.87025451660156 168.0701904296875 55.86241149902344 168.088623046875 55.85636901855469 168.0948486328125 55.85432434082031 167.79193115234375 56.479766845703125 165.27569580078125 61.15655517578125 156.88287353515625 75.27569580078125 151.4644775390625 82.04801940917969 145.41717529296875 87.98724365234375 132.6207275390625 98.73773193359376 120.97628784179688 105.56521606445313 117.394775390625 107.13934326171876 115.16912841796876 107.4520263671875 115.02655029296876 107.4720458984375 " />
        <polyline stroke="black" stroke-width="3" stroke-linecap="round" fill="transparent" stroke-linejoin="round" points="126.35540771484376 110.30027770996094 131.08551025390625 112.66632080078124 135.93515014648438 115.37307739257813 137.20028686523438 117.10978698730467 136.83172607421875 118.50210571289063 136.65927124023438 119.1536102294922 " />
        <polyline stroke="black" stroke-width="3" stroke-linecap="round" fill="transparent" stroke-linejoin="round" points="78.49545288085938 147.50128173828125 86.34686279296875 145.93643188476563 115.257568359375 140.33934020996094 123.02874755859376 138.8923797607422 137.861572265625 136.07965087890625 152.01629638671875 133.827880859375 160.4400634765625 132.95263671875 166.42291259765625 132.79501342773438 173.6905517578125 131.87835693359375 176.8455810546875 131.5244598388672 179.8660888671875 131.3348388671875 180.90594482421875 131.5513916015625 181.01904296875 131.57498168945313 181.10784912109375 131.59344482421875 180.79248046875 132.200927734375 178.19744873046875 137.25193786621094 174.4901123046875 143.22576904296875 162.53009033203125 157.2845916748047 155.9046630859375 164.060546875 144.71875 175.5630340576172 139.98406982421875 180.13113403320313 133.38897705078125 185.032470703125 127.19091796875 188.64895629882813 123.49462890625 189.57403564453125 123.87289428710938 188.89599609375 " />
        <polyline stroke="black" stroke-width="3" stroke-linecap="round" fill="transparent" stroke-linejoin="round" points="131.53280639648438 187.64358520507813 143.9713134765625 191.97357177734375 148.64657592773438 193.5194091796875 152.39459228515625 194.4542236328125 155.114013671875 195.5970458984375 155.41094970703125 195.7218017578125 " />
        </svg>