<?xml version="1.0" standalone="no"?>
    <svg width="256" height="256" xmlns="http://www.w3.org/2000/svg" version="1.1">
    <polyline stroke="black" stroke-width="3" stroke-linecap="round" fill="transparent" stroke-linejoin="round" points="59.328460693359375 90.32875061035156 64.2850341796875 86.19825744628906 69.65472412109375 82.0677490234375 76.67657470703125 77.11114501953125 91.13330078125 68.43708801269531 107.65533447265624 61.828277587890625 121.28598022460938 57.697784423828125 134.09054565429688 55.219482421875 145.65594482421875 54.806427001953125 148.54730224609375 55.632530212402344 149.78646850585938 58.11083984375 148.13424682617188 65.1326904296875 141.52545166015625 77.11114501953125 129.54696655273438 89.91571044921875 125.41650390625 94.04620361328124 125.41650390625 94.04620361328124 " />
        <polyline stroke="black" stroke-width="3" stroke-linecap="round" fill="transparent" stroke-linejoin="round" points="93.19857788085938 113.45956420898438 98.98129272460938 114.69871520996094 110.959716796875 118.00314331054688 116.329345703125 120.068359375 124.59042358398438 124.19889831542967 130.37310791015625 129.15548706054688 130.37310791015625 129.15548706054688 " />
        <polyline stroke="black" stroke-width="3" stroke-linecap="round" fill="transparent" stroke-linejoin="round" points="88.655029296875 151.04714965820313 102.28570556640624 143.6122283935547 116.742431640625 138.24258422851563 136.56884765625 136.17733764648438 145.242919921875 138.6556396484375 150.19952392578125 142.3730926513672 153.50390625 148.98190307617188 152.6778564453125 160.54730224609375 146.06903076171875 172.93881225585938 135.32968139648438 183.2650604248047 121.28598022460938 191.52606201171875 109.30755615234376 194.8304748535156 104.35092163085938 194.8304748535156 95.67684936523438 192.3521728515625 94.024658203125 191.52606201171875 93.61163330078124 190.69998168945313 94.85076904296876 190.69998168945313 108.4814453125 195.2435302734375 124.17733764648438 202.265380859375 132.85140991210938 206.3958740234375 156.80828857421875 221.26568603515625 156.80828857421875 221.26568603515625 " />
        </svg>