<?xml version="1.0" standalone="no"?>
    <svg width="256" height="256" xmlns="http://www.w3.org/2000/svg" version="1.1">
    <polyline stroke="black" stroke-width="3" stroke-linecap="round" fill="transparent" stroke-linejoin="round" points="101.24346923828124 57.21220397949219 125.4638671875 49.13874816894531 148.2164306640625 43.267127990722656 169.5009765625 39.59736633300781 174.6385498046875 38.86341857910156 175.37255859375 38.86341857910156 175.37255859375 39.59736633300781 166.565185546875 52.80851745605469 155.555908203125 67.48751831054688 146.74853515625 79.23077392578125 140.8768310546875 86.57026672363281 137.9410400390625 90.97398376464844 135.0052490234375 97.5795440673828 131.33544921875 99.04747009277344 131.33544921875 99.04747009277344 " />
        <polyline stroke="black" stroke-width="3" stroke-linecap="round" fill="transparent" stroke-linejoin="round" points="137.9410400390625 104.9190673828125 141.61083984375 107.8548583984375 148.9503173828125 112.99252319335938 154.0880126953125 116.66227722167967 154.0880126953125 119.59808349609376 151.1522216796875 121.79994201660156 151.1522216796875 121.79994201660156 " />
        <polyline stroke="black" stroke-width="3" stroke-linecap="round" fill="transparent" stroke-linejoin="round" points="77.75701904296875 164.369140625 104.1793212890625 152.6259002685547 132.0694580078125 143.8184814453125 169.5009765625 135.0110626220703 183.446044921875 132.8092041015625 188.583740234375 132.07528686523438 187.8497314453125 132.8092041015625 184.9139404296875 135.0110626220703 173.170654296875 145.28639221191406 158.49169921875 159.23147583007813 148.2164306640625 170.24073791503906 143.812744140625 176.1123809814453 140.8768310546875 179.78213500976563 138.675048828125 182.71792602539065 138.675048828125 182.71792602539065 " />
        <polyline stroke="black" stroke-width="3" stroke-linecap="round" fill="transparent" stroke-linejoin="round" points="139.408935546875 182.71792602539065 144.546630859375 188.58953857421875 150.418212890625 193.72720336914065 161.427490234375 203.2685546875 165.0972900390625 207.6722717285156 168.7669677734375 212.8099365234375 169.5009765625 218.6815490722656 169.5009765625 218.6815490722656 " />
        </svg>