<?xml version="1.0" standalone="no"?>
    <svg width="256" height="256" xmlns="http://www.w3.org/2000/svg" version="1.1">
    <polyline stroke="black" stroke-width="3" stroke-linecap="round" fill="transparent" stroke-linejoin="round" points="80.861083984375 62.191162109375 92.85067749023438 57.57978820800781 99.76776123046876 54.812957763671875 115.4464111328125 49.740440368652344 132.50851440429688 45.129058837890625 147.26495361328125 41.901092529296875 158.79339599609375 40.056541442871094 162.943603515625 39.59541320800781 168.477294921875 39.59541320800781 171.244140625 40.517669677734375 172.1663818359375 43.28450775146485 170.3218994140625 52.04612731933594 158.79339599609375 70.95278930664063 140.80902099609375 92.16513061523438 130.20281982421875 101.84904479980467 130.20281982421875 101.84904479980467 " />
        <polyline stroke="black" stroke-width="3" stroke-linecap="round" fill="transparent" stroke-linejoin="round" points="120.5189208984375 97.69879150390624 131.58627319335938 100.00448608398438 144.959228515625 105.07699584960938 149.10946655273438 107.84384155273438 149.10946655273438 107.84384155273438 " />
        <polyline stroke="black" stroke-width="3" stroke-linecap="round" fill="transparent" stroke-linejoin="round" points="94.6951904296875 168.25291442871094 103.91796875 163.18038940429688 113.14071655273438 159.49130249023438 121.90234375 155.80218505859375 145.42037963867188 150.26852416992188 156.9488525390625 148.88511657714844 163.86590576171875 148.88511657714844 167.5550537109375 150.26852416992188 168.477294921875 152.1130828857422 167.5550537109375 159.0301513671875 161.09906005859375 169.1751708984375 146.3426513671875 183.93161010742188 146.3426513671875 183.93161010742188 " />
        <polyline stroke="black" stroke-width="3" stroke-linecap="round" fill="transparent" stroke-linejoin="round" points="122.36349487304688 195.4600524902344 128.81942749023438 196.84347534179688 135.73651123046875 198.68801879882813 142.1923828125 200.5325927734375 157.87109375 211.13873291015625 165.24932861328125 219.43923950195313 165.24932861328125 219.43923950195313 " />
        </svg>