<?xml version="1.0" standalone="no"?>
    <svg width="256" height="256" xmlns="http://www.w3.org/2000/svg" version="1.1">
    <polyline stroke="black" stroke-width="3" stroke-linecap="round" fill="transparent" stroke-linejoin="round" points="70.0263671875 89.21647644042969 79.74349975585938 84.79959106445313 85.04379272460938 82.59115600585938 90.34405517578124 80.38270568847656 95.20263671875 78.17425537109375 111.54510498046876 71.54891967773438 122.58734130859376 68.01541137695313 131.86279296875 64.48190307617188 139.813232421875 62.27345275878906 145.11346435546875 60.948394775390625 148.205322265625 60.50669860839844 148.64697265625 60.50669860839844 149.08871459960938 60.948394775390625 146.88021850585938 69.34048461914063 138.92987060546875 84.79959106445313 132.74618530273438 94.51675415039063 107.56991577148438 129.85186767578125 91.2274169921875 149.72789001464844 75.768310546875 166.51205444335938 61.19256591796875 180.64610290527344 47.500213623046875 192.57171630859375 42.199951171875 196.98858642578125 42.199951171875 196.98858642578125 " />
        <polyline stroke="black" stroke-width="3" stroke-linecap="round" fill="transparent" stroke-linejoin="round" points="57.217376708984375 118.80963134765624 77.53509521484375 135.1521453857422 85.4854736328125 141.77749633789063 95.20263671875 148.844482421875 115.52032470703124 163.86192321777344 136.27972412109375 178.43765258789063 157.9224853515625 191.68832397460935 170.7314453125 199.197021484375 170.7314453125 199.197021484375 " />
        </svg>