<?xml version="1.0" standalone="no"?>
    <svg width="256" height="256" xmlns="http://www.w3.org/2000/svg" version="1.1">
    <polyline stroke="black" stroke-width="3" stroke-linecap="round" fill="transparent" stroke-linejoin="round" points="73 118 74 116 82 113 93 108 107 102 122 96 135 91 145 89 151 90 152 92 151 97 148 104 146 106 137 120 126 136 117 148 114 152 103 165 93 176 86 183 79 188 79 188 " />
        <polyline stroke="black" stroke-width="3" stroke-linecap="round" fill="transparent" stroke-linejoin="round" points="105 130 108 132 111 137 122 147 124 148 131 151 137 154 142 156 143 157 143 157 " />
        </svg>