<?xml version="1.0" standalone="no"?>
    <svg width="256" height="256" xmlns="http://www.w3.org/2000/svg" version="1.1">
    <polyline stroke="black" stroke-width="3" stroke-linecap="round" fill="transparent" stroke-linejoin="round" points="50.53125 84.309326171875 49.6470947265625 98.45608520507813 49.6470947265625 104.20323181152344 49.6470947265625 110.39242553710938 49.6470947265625 116.13955688476563 50.089202880859375 126.30752563476563 50.089202880859375 134.26507568359375 50.089202880859375 138.24386596679688 50.089202880859375 138.6859588623047 50.089202880859375 137.8017578125 51.41546630859375 133.38092041015625 52.74169921875 129.84422302246094 57.60467529296875 120.11833190917967 67.77264404296875 104.20323181152344 75.2880859375 95.36148071289063 79.708984375 91.38272094726563 94.29782104492188 83.4251708984375 102.69744873046876 84.75141906738281 109.32879638671876 90.9406280517578 115.07589721679688 102.876953125 116.84423828125 118.79208374023438 114.19171142578124 131.17047119140625 111.5391845703125 135.59133911132813 107.11834716796876 140.45428466796875 107.11834716796876 140.45428466796875 " />
        <polyline stroke="black" stroke-width="3" stroke-linecap="round" fill="transparent" stroke-linejoin="round" points="71.75143432617188 32.143150329589844 75.73019409179688 67.06796264648438 75.73019409179688 104.6453094482422 73.96185302734375 142.66473388671875 71.75143432617188 176.26327514648438 70.86724853515625 199.69384765625 71.309326171875 212.9564208984375 71.309326171875 216.49313354492188 71.309326171875 216.49313354492188 " />
        <polyline stroke="black" stroke-width="3" stroke-linecap="round" fill="transparent" stroke-linejoin="round" points="120.38095092773438 94.91940307617188 144.69564819335938 81.65681457519531 153.537353515625 78.56221008300781 161.4949951171875 75.90969848632813 184.0413818359375 71.0467529296875 194.2093505859375 69.72048950195313 194.2093505859375 69.72048950195313 " />
        <polyline stroke="black" stroke-width="3" stroke-linecap="round" fill="transparent" stroke-linejoin="round" points="167.2420654296875 90.05645751953125 159.2845458984375 102.4348602294922 156.63201904296875 108.6240692138672 148.67440795898438 129.4021453857422 146.90609741210938 135.59133911132813 145.13775634765625 145.7593231201172 145.579833984375 151.94854736328125 146.4639892578125 152.83270263671875 146.4639892578125 152.83270263671875 " />
        <polyline stroke="black" stroke-width="3" stroke-linecap="round" fill="transparent" stroke-linejoin="round" points="197.74603271484375 90.05645751953125 195.093505859375 109.066162109375 191.9989013671875 118.3499755859375 188.0201416015625 127.6337890625 176.08380126953125 145.31724548339844 163.2633056640625 158.579833984375 156.63201904296875 163.88485717773438 145.13775634765625 171.40032958984375 137.62228393554688 174.93701171875 134.96978759765625 175.37908935546875 134.52767944335938 174.93701171875 139.390625 172.28448486328125 155.3057861328125 166.53738403320313 176.96795654296875 162.55859375 196.86181640625 161.67442321777344 216.31365966796875 166.09530639648438 216.31365966796875 166.09530639648438 " />
        </svg>