<?xml version="1.0" standalone="no"?>
    <svg width="256" height="256" xmlns="http://www.w3.org/2000/svg" version="1.1">
    <polyline stroke="black" stroke-width="3" stroke-linecap="round" fill="transparent" stroke-linejoin="round" points="56.022674560546875 74.9619140625 56.022674560546875 100.99851989746094 56.4639892578125 108.05931091308594 57.34661865234375 126.15255737304688 57.34661865234375 134.53721618652344 56.9052734375 140.27410888671875 56.4639892578125 142.039306640625 55.581390380859375 143.3632049560547 54.69879150390625 142.9219207763672 53.3748779296875 139.8328094482422 52.492279052734375 137.18502807617188 51.16839599609375 125.26995849609376 52.492279052734375 114.67877197265624 55.581390380859375 103.20504760742188 60.876953125 92.61386108398438 66.61386108398438 83.34658813476563 73.23333740234375 76.28579711914063 82.059326171875 69.66632080078125 90.88525390625 65.25332641601563 100.15255737304688 63.488128662109375 104.56552124023438 63.929443359375 114.71542358398438 70.10762023925781 118.24581909179688 75.4031982421875 126.189208984375 103.64633178710938 126.189208984375 125.26995849609376 123.10009765625 144.24581909179688 118.68710327148438 156.60215759277344 114.27410888671876 163.22164916992188 112.067626953125 164.98684692382813 105.44818115234376 166.31072998046875 105.44818115234376 166.31072998046875 " />
        <polyline stroke="black" stroke-width="3" stroke-linecap="round" fill="transparent" stroke-linejoin="round" points="83.82452392578125 18.475669860839844 81.61801147460938 44.95359802246094 79.4114990234375 62.60554504394531 77.64633178710938 81.14007568359375 75.4398193359375 102.32241821289063 71.02685546875 141.15670776367188 69.26165771484375 160.13255310058594 67.05514526367188 188.81695556640625 66.61386108398438 211.32321166992188 66.61386108398438 226.32736206054688 66.61386108398438 232.06423950195313 67.49642944335938 232.50555419921875 67.49642944335938 232.50555419921875 " />
        <polyline stroke="black" stroke-width="3" stroke-linecap="round" fill="transparent" stroke-linejoin="round" points="126.189208984375 78.93359375 141.63461303710938 76.28579711914063 147.81283569335938 75.4031982421875 155.31488037109375 74.52059936523438 182.6754150390625 73.63800048828125 201.6512451171875 72.75540161132813 215.33154296875 72.75540161132813 224.157470703125 71.87281799316406 229.45306396484375 71.4315185546875 232.100830078125 70.54891967773438 232.54217529296875 69.66632080078125 230.335693359375 68.78372192382813 220.62713623046875 67.45982360839844 208.270751953125 68.78372192382813 198.120849609375 71.4315185546875 188.8536376953125 75.4031982421875 180.91021728515625 81.14007568359375 173.40814208984375 89.966064453125 167.22998046875 101.88113403320313 161.93438720703125 115.56138610839844 158.40399169921875 127.4764404296875 156.197509765625 138.5089111328125 155.31488037109375 147.3348846435547 155.31488037109375 153.07176208496094 155.31488037109375 156.16085815429688 155.7562255859375 156.60215759277344 161.49310302734375 151.74786376953125 161.49310302734375 151.74786376953125 " />
        <polyline stroke="black" stroke-width="3" stroke-linecap="round" fill="transparent" stroke-linejoin="round" points="221.50970458984375 75.4031982421875 216.6553955078125 90.84866333007813 209.1533203125 110.26579284667967 193.7078857421875 140.71539306640625 181.7928466796875 157.92605590820313 171.20166015625 169.3998260498047 160.6104736328125 176.46060180664063 151.34320068359375 179.10838317871094 144.72372436523438 178.66709899902344 141.19332885742188 177.78448486328125 140.31072998046875 176.9019012451172 141.63461303710938 175.5780029296875 150.019287109375 172.48892211914063 165.46478271484375 168.95852661132813 180.91021728515625 166.31072998046875 195.03173828125 164.10423278808594 206.50555419921875 162.78033447265625 217.0966796875 162.78033447265625 227.24658203125 163.22164916992188 232.54217529296875 165.8694305419922 234.307373046875 168.5172119140625 234.307373046875 168.5172119140625 " />
        </svg>