<?xml version="1.0" standalone="no"?>
    <svg width="256" height="256" xmlns="http://www.w3.org/2000/svg" version="1.1">
    <polyline stroke="black" stroke-width="3" stroke-linecap="round" fill="transparent" stroke-linejoin="round" points="100.31634521484376 47.262237548828125 114.13861083984376 41.817108154296875 128.798583984375 37.20970153808594 147.6470947265625 33.85884094238281 151.835693359375 33.85884094238281 157.28076171875 35.534263610839844 157.69964599609375 44.74909973144531 152.2545166015625 62.759918212890625 143.45855712890625 79.09532165527344 134.66256713867188 90.82330322265624 127.5419921875 100.0381317138672 127.5419921875 100.0381317138672 " />
        <polyline stroke="black" stroke-width="3" stroke-linecap="round" fill="transparent" stroke-linejoin="round" points="88.58837890625 74.90675354003906 86.0751953125 83.28387451171875 83.56210327148438 92.49871826171876 81.88665771484375 100.8758544921875 78.95468139648438 113.44155883789063 78.116943359375 117.21124267578124 77.69808959960938 122.23753356933594 78.95468139648438 123.91293334960938 87.331787109375 123.49407958984376 102.41064453125 118.88665771484376 117.90829467773438 114.27923583984376 128.798583984375 113.8603973388672 136.7568359375 118.4678192138672 145.9716796875 133.96548461914063 152.67333984375 159.9345703125 152.67333984375 180.0396728515625 150.99798583984375 187.5791015625 143.45855712890625 199.30706787109375 133.406005859375 203.49563598632813 116.6517333984375 203.91448974609375 106.59921264648438 201.4013671875 106.59921264648438 201.4013671875 " />
        </svg>