<?xml version="1.0" standalone="no"?>
    <svg width="256" height="256" xmlns="http://www.w3.org/2000/svg" version="1.1">
    <polyline stroke="black" stroke-width="3" stroke-linecap="round" fill="transparent" stroke-linejoin="round" points="79.22882080078125 114.795166015625 81.25546264648438 115.80851745605467 85.30886840820313 116.1462860107422 92.40228271484376 114.45736694335938 102.19796752929688 110.40399169921876 112.3314208984375 104.66169738769533 122.12704467773438 98.58161926269533 131.92276000976563 92.83932495117188 140.705078125 87.09706115722656 148.47406005859375 82.03030395507813 154.8919677734375 77.97694396972656 160.29644775390625 74.59912109375 164.68756103515625 72.23464965820313 168.0654296875 70.88352966308594 170.7677001953125 70.20794677734375 172.79437255859375 70.20794677734375 173.80767822265625 70.54574584960938 174.4832763671875 72.23464965820313 174.1455078125 76.62580871582031 172.1187744140625 84.0570068359375 168.4031982421875 93.51490783691406 163.67425537109375 103.31057739257813 158.9453125 111.41734313964844 154.55413818359375 118.51075744628906 150.16302490234375 124.92861938476563 146.78518676757813 130.67091369628906 143.7451171875 135.39984130859375 141.38067626953125 138.77767944335938 139.69174194335938 141.1421356201172 138.67843627929688 142.49325561523438 137.66506958007813 143.16880798339844 136.65170288085938 143.16880798339844 135.97613525390625 143.16880798339844 135.97613525390625 143.16880798339844 " />
        <polyline stroke="black" stroke-width="3" stroke-linecap="round" fill="transparent" stroke-linejoin="round" points="120.10040283203124 117.8351593017578 118.41143798828124 124.2530517578125 116.38479614257813 131.68421936035156 114.358154296875 139.11544799804688 112.669189453125 145.19549560546875 110.98031616210938 150.26223754882813 109.62918090820313 154.6533966064453 108.61581420898438 158.0312042236328 107.94024658203124 160.05792236328125 107.60247802734376 161.40902709960938 107.26470947265624 162.42237854003906 107.26470947265624 162.76016235351563 108.27804565429688 162.76016235351563 110.98031616210938 162.08460998535156 116.04702758789063 160.3956756591797 122.80267333984376 157.69345092773438 130.5716552734375 154.3156280517578 138.34060668945313 150.9378204345703 145.77182006835938 148.2355499267578 151.85186767578125 146.2088623046875 157.59417724609375 145.19549560546875 162.3231201171875 144.8577423095703 166.37652587890625 145.53330993652344 169.41650390625 146.54661560058594 171.781005859375 148.2355499267578 173.80767822265625 151.27557373046875 175.83441162109375 156.68011474609375 177.5233154296875 165.1246337890625 177.86102294921875 174.92031860351563 176.84771728515625 185.39157104492188 175.15887451171875 196.2005615234375 172.79437255859375 206.67181396484375 169.75433349609375 215.11636352539065 166.71429443359375 222.8853454589844 163.67425537109375 229.64096069335935 160.29644775390625 235.04547119140625 156.9185791015625 239.4366149902344 153.87860107421875 242.81448364257813 150.50079345703125 245.5166931152344 147.12295532226563 247.54339599609375 143.7451171875 248.89456176757813 140.3673095703125 249.2322998046875 136.98947143554688 248.5567626953125 132.93609619140625 246.1922607421875 125.1671142578125 237.0721740722656 125.1671142578125 237.0721740722656 " />
        </svg>