<?xml version="1.0" standalone="no"?>
    <svg width="256" height="256" xmlns="http://www.w3.org/2000/svg" version="1.1">
    <polyline stroke="black" stroke-width="3" stroke-linecap="round" fill="transparent" stroke-linejoin="round" points="105 97 116 91 128 84 139 79 149 75 152 74 153 74 153 75 146 85 143 91 130 109 124 119 121 123 121 123 " />
        <polyline stroke="black" stroke-width="3" stroke-linecap="round" fill="transparent" stroke-linejoin="round" points="110 109 106 119 99 135 95 143 93 145 92 149 93 149 100 145 108 140 120 135 141 129 152 127 160 126 165 125 167 125 168 125 169 125 169 126 169 128 169 134 168 151 165 165 161 179 156 191 149 205 144 211 141 214 140 215 138 215 137 214 136 213 135 210 133 207 128 203 126 201 126 201 " />
        </svg>