<?xml version="1.0" standalone="no"?>
    <svg width="256" height="256" xmlns="http://www.w3.org/2000/svg" version="1.1">
    <polyline stroke="black" stroke-width="3" stroke-linecap="round" fill="transparent" stroke-linejoin="round" points="103.08074951171876 63.861785888671875 110.142822265625 61.17146301269531 113.842041015625 59.8262939453125 117.87753295898438 58.48114013671875 126.28485107421876 56.79966735839844 136.03729248046875 55.790794372558594 139.73651123046875 55.790794372558594 146.12603759765625 59.8262939453125 147.80746459960938 66.88841247558594 144.444580078125 98.83612060546876 138.05502319335938 116.995849609375 135.02841186523438 122.71281433105467 129.98406982421875 129.77493286132813 126.62109375 131.79269409179688 126.62109375 131.79269409179688 " />
        <polyline stroke="black" stroke-width="3" stroke-linecap="round" fill="transparent" stroke-linejoin="round" points="107.78878784179688 88.41107177734375 104.76217651367188 96.81837463378906 96.3548583984375 121.36764526367188 91.31048583984376 141.20884704589844 90.63790893554688 145.58062744140625 91.64678955078124 152.64276123046875 93.3282470703125 153.65164184570313 101.73553466796876 154.66050720214844 119.895263671875 151.63389587402344 131.32919311523438 149.9524383544922 143.099365234375 149.6161346435547 153.8607177734375 152.30645751953125 161.595458984375 157.6871337890625 168.6575927734375 170.46621704101563 170.67529296875 179.8823699951172 168.6575927734375 208.803466796875 163.61322021484375 219.90106201171875 155.2059326171875 225.95431518554688 137.046142578125 226.62689208984375 116.196044921875 219.56478881835935 107.78878784179688 215.86557006835935 107.78878784179688 215.86557006835935 " />
        </svg>