<?xml version="1.0" standalone="no"?>
    <svg width="256" height="256" xmlns="http://www.w3.org/2000/svg" version="1.1">
    <polyline stroke="black" stroke-width="3" stroke-linecap="round" fill="transparent" stroke-linejoin="round" points="55.00897216796875 98.05027770996094 71.79315185546875 93.63336181640624 89.01898193359375 90.099853515625 99.6195068359375 87.89141845703125 131.86279296875 79.05763244628906 141.13827514648438 75.9658203125 155.71405029296875 70.66554260253906 161.897705078125 68.45709228515625 171.173095703125 65.36528015136719 171.173095703125 65.36528015136719 " />
        <polyline stroke="black" stroke-width="3" stroke-linecap="round" fill="transparent" stroke-linejoin="round" points="85.04379272460938 101.58377075195313 78.41845703125 117.48458862304688 74.88494873046875 129.41018676757813 70.90975952148438 141.77749633789063 60.75091552734375 171.37063598632813 56.333984375 183.7379150390625 52.35882568359375 192.1300048828125 52.35882568359375 192.1300048828125 " />
        <polyline stroke="black" stroke-width="3" stroke-linecap="round" fill="transparent" stroke-linejoin="round" points="95.644287109375 139.5690155029297 104.47811889648438 146.63604736328125 107.56991577148438 149.2861785888672 110.22006225585938 151.49462890625 115.07861328125 155.46983337402344 119.0538330078125 157.236572265625 119.0538330078125 157.236572265625 " />
        <polyline stroke="black" stroke-width="3" stroke-linecap="round" fill="transparent" stroke-linejoin="round" points="142.02166748046875 90.5415496826172 134.95465087890625 105.11727905273438 131.421142578125 112.62600708007813 127.88763427734376 120.576416015625 119.49554443359376 140.45242309570313 115.96200561523438 148.40281677246094 110.6617431640625 160.77008056640625 106.6865234375 168.27880859375 104.03643798828124 172.69570922851563 102.71136474609376 173.57907104492188 102.71136474609376 172.69570922851563 104.91976928710938 167.83712768554688 107.12823486328124 163.86192321777344 110.22006225585938 160.3284149169922 116.84539794921876 157.236572265625 126.56256103515624 157.236572265625 138.92987060546875 160.77008056640625 150.41375732421875 166.0703582763672 161.0142822265625 172.69570922851563 165.8729248046875 176.22921752929688 176.473388671875 188.15481567382813 176.473388671875 188.15481567382813 " />
        </svg>