<?xml version="1.0" standalone="no"?>
    <svg width="256" height="256" xmlns="http://www.w3.org/2000/svg" version="1.1">
    <polyline stroke="black" stroke-width="3" stroke-linecap="round" fill="transparent" stroke-linejoin="round" points="49.51434326171875 99.51370239257813 62.6510009765625 91.85064697265624 97.13482666015624 73.78770446777344 128.88180541992188 58.46156311035156 157.3446044921875 49.15641784667969 178.14434814453125 44.23016357421875 194.017822265625 42.58807373046875 203.870361328125 41.49334716796875 208.249267578125 41.49334716796875 205.512451171875 41.49334716796875 194.565185546875 43.13543701171875 174.3128662109375 49.70378112792969 154.0604248046875 57.366851806640625 135.45013427734375 63.3878173828125 126.14498901367188 67.2193603515625 120.67138671875 71.59825134277344 112.4609375 84.18757629394531 98.22955322265624 117.02928161621094 80.71395874023438 153.15516662597656 67.0299072265625 178.3338165283203 57.724761962890625 195.30203247070313 52.798492431640625 203.512451171875 47.87225341796875 209.533447265625 47.87225341796875 209.533447265625 " />
        <polyline stroke="black" stroke-width="3" stroke-linecap="round" fill="transparent" stroke-linejoin="round" points="97.13482666015624 154.24989318847656 105.34524536132813 163.00767517089844 114.10302734375 175.0496368408203 122.3134765625 186.54425048828125 129.42916870117188 193.11257934570313 136.54486083984375 194.20730590820313 136.54486083984375 194.20730590820313 " />
        <polyline stroke="black" stroke-width="3" stroke-linecap="round" fill="transparent" stroke-linejoin="round" points="164.4603271484375 62.84046936035156 167.1971435546875 94.5874481201172 163.9129638671875 137.28167724609375 157.3446044921875 163.55503845214844 150.77627563476563 184.35479736328125 145.85003662109375 198.58621215820313 141.47113037109375 207.891357421875 141.47113037109375 207.891357421875 " />
        <polyline stroke="black" stroke-width="3" stroke-linecap="round" fill="transparent" stroke-linejoin="round" points="162.8182373046875 157.5340576171875 172.6707763671875 162.4603271484375 184.71270751953125 170.67074584960938 196.754638671875 181.61798095703125 208.249267578125 194.20730590820313 208.249267578125 194.20730590820313 " />
        </svg>