<?xml version="1.0" standalone="no"?>
    <svg width="256" height="256" xmlns="http://www.w3.org/2000/svg" version="1.1">
    <polyline stroke="black" stroke-width="3" stroke-linecap="round" fill="transparent" stroke-linejoin="round" points="59.66668701171875 112.26667785644533 89.53338623046875 94.1333465576172 119.4000244140625 82.40000915527344 142.86669921875 77.06668090820313 153.533447265625 77.06668090820313 158.86669921875 77.06668090820313 161 82.40000915527344 161 82.40000915527344 " />
        <polyline stroke="black" stroke-width="3" stroke-linecap="round" fill="transparent" stroke-linejoin="round" points="89.53338623046875 106.933349609375 84.2000732421875 152.80001831054688 79.93341064453125 176.26669311523438 70.3333740234375 200.80001831054688 67.1334228515625 206.13336181640625 60.7333984375 201.86666870117188 60.7333984375 201.86666870117188 " />
        <polyline stroke="black" stroke-width="3" stroke-linecap="round" fill="transparent" stroke-linejoin="round" points="89.53338623046875 148.53334045410156 111.93341064453124 161.33334350585938 120.466796875 162.40003967285156 120.466796875 162.40003967285156 " />
        <polyline stroke="black" stroke-width="3" stroke-linecap="round" fill="transparent" stroke-linejoin="round" points="140.7333984375 95.20002746582033 137.533447265625 140.00001525878906 133.2667236328125 163.4666748046875 125.80010986328124 189.06671142578125 120.466796875 198.66668701171875 120.466796875 198.66668701171875 " />
        <polyline stroke="black" stroke-width="3" stroke-linecap="round" fill="transparent" stroke-linejoin="round" points="145 148.53334045410156 165.2667236328125 161.33334350585938 180.2000732421875 168.80001831054688 188.7333984375 174.1333465576172 198.3333740234375 183.73336791992188 198.3333740234375 183.73336791992188 " />
        </svg>