<?xml version="1.0" standalone="no"?>
    <svg width="256" height="256" xmlns="http://www.w3.org/2000/svg" version="1.1">
    <polyline stroke="black" stroke-width="3" stroke-linecap="round" fill="transparent" stroke-linejoin="round" points="51.9339599609375 89.85015869140625 64.61151123046875 81.821044921875 71.79550170898438 78.44035339355469 86.16339111328125 73.79191589355469 92.92474365234376 72.524169921875 103.91195678710938 71.67898559570313 110.67333984375 72.94674682617188 114.4765625 75.90484619140625 117.85726928710938 83.9339599609375 119.125 95.766357421875 118.70245361328124 107.59873962402344 116.58953857421876 116.05046081542967 114.05401611328124 121.96664428710938 110.67333984375 125.7698974609375 106.87005615234376 128.30540466308594 103.06683349609376 129.15057373046875 103.06683349609376 129.15057373046875 " />
        <polyline stroke="black" stroke-width="3" stroke-linecap="round" fill="transparent" stroke-linejoin="round" points="59.540496826171875 121.96664428710938 60.80828857421875 133.37643432617188 62.498626708984375 145.20883178710938 64.18893432617188 157.88638305664063 68.414794921875 179.438232421875 71.79550170898438 194.22869873046875 74.75360107421875 203.10302734375 76.02133178710938 205.2159423828125 76.44393920898438 205.63851928710935 76.44393920898438 205.63851928710935 " />
        <polyline stroke="black" stroke-width="3" stroke-linecap="round" fill="transparent" stroke-linejoin="round" points="150.81893920898438 72.94674682617188 160.53839111328125 68.72088623046875 166.031982421875 67.03054809570313 175.75146484375 64.49504089355469 184.625732421875 63.22727966308594 190.96453857421875 63.649871826171875 194.76776123046875 65.76278686523438 198.571044921875 72.524169921875 201.1065673828125 86.89205932617188 199.41619873046875 103.37289428710938 195.61297607421875 115.20526123046876 188.42901611328125 124.50213623046876 185.04833984375 127.4602508544922 185.04833984375 127.4602508544922 " />
        <polyline stroke="black" stroke-width="3" stroke-linecap="round" fill="transparent" stroke-linejoin="round" points="152.93182373046875 105.90841674804688 152.50927734375 110.55682373046876 151.24151611328125 119.00852966308594 148.70599365234375 131.26351928710938 147.86080932617188 137.17971801757813 147.86080932617188 140.98297119140625 150.39633178710938 143.9410858154297 159.2706298828125 146.89915466308594 166.45458984375 147.74432373046875 182.9354248046875 147.74432373046875 201.1065673828125 148.58950805664063 207.867919921875 151.12503051757813 209.9808349609375 152.8153533935547 215.4744873046875 162.53482055664063 216.31964111328125 167.6058349609375 215.4744873046875 182.81890869140625 211.67120361328125 192.11578369140625 207.02276611328125 198.87713623046875 201.9517822265625 203.52557373046875 193.5 207.75146484375 186.7386474609375 209.01919555664065 177.01922607421875 208.59661865234375 177.01922607421875 208.59661865234375 " />
        </svg>