<?xml version="1.0" standalone="no"?>
    <svg width="256" height="256" xmlns="http://www.w3.org/2000/svg" version="1.1">
    <polyline stroke="black" stroke-width="3" stroke-linecap="round" fill="transparent" stroke-linejoin="round" points="46.96038818359375 97.71206665039063 53.692138671875 93.10610961914063 61.132568359375 88.5001220703125 77.784912109375 78.57958984375 85.93389892578125 73.61932373046875 94.08294677734376 69.72198486328125 107.5465087890625 64.76170349121094 118.52996826171876 64.76170349121094 127.03329467773438 71.49349975585938 134.82797241210938 90.27165222167967 136.5994873046875 113.30148315429688 133.05645751953125 132.78823852539063 127.3875732421875 146.6061248779297 120.65576171875 152.6293182373047 111.08953857421876 154.40084838867188 102.58624267578124 150.149169921875 102.58624267578124 150.149169921875 " />
        <polyline stroke="black" stroke-width="3" stroke-linecap="round" fill="transparent" stroke-linejoin="round" points="75.30477905273438 106.56968688964844 73.17892456054688 124.63922119140624 71.76171875 142.0001678466797 69.99017333984375 170.69888305664063 69.6358642578125 184.87106323242188 69.99017333984375 192.665771484375 70.344482421875 195.1459045410156 70.344482421875 195.1459045410156 " />
        <polyline stroke="black" stroke-width="3" stroke-linecap="round" fill="transparent" stroke-linejoin="round" points="149.3544921875 40.668968200683594 162.4637451171875 36.41729736328125 170.25848388671875 34.291473388671875 191.51678466796875 30.394119262695313 203.2088623046875 31.45703125 210.294921875 36.7716064453125 217.7353515625 52.0067138671875 219.8612060546875 71.84780883789063 216.67242431640625 87.43721008300781 213.8380126953125 93.10610961914063 204.6260986328125 104.08953857421876 197.1856689453125 107.98690795898438 191.1624755859375 106.92399597167967 186.20220947265625 99.48358154296876 181.59619140625 84.24847412109375 179.82470703125 75.39083862304688 178.7618408203125 72.55641174316406 178.407470703125 72.20210266113281 174.5101318359375 78.22529602050781 168.4869384765625 92.04318237304688 163.17236328125 106.92399597167967 159.62933349609375 119.32464599609376 158.56640625 124.284912109375 158.56640625 132.78823852539063 160.33795166015625 135.26837158203125 166.361083984375 137.03990173339844 178.407470703125 137.3942108154297 185.1392822265625 137.74851989746094 202.14593505859375 143.41738891601563 209.940673828125 152.27500915527344 213.8380126953125 160.06973266601563 217.7353515625 184.87106323242188 217.0267333984375 191.24856567382813 211.0035400390625 201.52340698242188 197.894287109375 206.12939453125 185.49359130859375 206.48367309570313 149.3544921875 202.23199462890625 136.5994873046875 201.52340698242188 136.5994873046875 201.52340698242188 " />
        </svg>