<?xml version="1.0" standalone="no"?>
    <svg width="256" height="256" xmlns="http://www.w3.org/2000/svg" version="1.1">
    <polyline stroke="black" stroke-width="3" stroke-linecap="round" fill="transparent" stroke-linejoin="round" points="79.075439453125 70.14715576171875 85.68426513671875 68.0819091796875 91.8800048828125 66.42970275878906 102.206298828125 65.60360717773438 112.945556640625 70.56021118164063 119.96746826171876 84.19085693359375 123.68490600585938 115.58268737792967 122.8587646484375 129.62640380859375 118.31524658203124 148.62669372558594 109.64117431640624 160.60516357421875 105.92376708984376 161.43125915527344 93.94525146484376 156.06161499023438 90.640869140625 152.3441619873047 90.640869140625 152.3441619873047 " />
        <polyline stroke="black" stroke-width="3" stroke-linecap="round" fill="transparent" stroke-linejoin="round" points="72.87973022460938 101.12594604492188 71.22750854492188 114.756591796875 69.98837280273438 131.69163513183594 68.74920654296875 179.1924285888672 69.1622314453125 190.34478759765625 71.64056396484375 210.997314453125 73.292724609375 215.54083251953125 74.53192138671875 215.95391845703125 74.53192138671875 215.95391845703125 " />
        <polyline stroke="black" stroke-width="3" stroke-linecap="round" fill="transparent" stroke-linejoin="round" points="153.011474609375 61.06005859375 159.6202392578125 58.168701171875 167.05517578125 55.690391540527344 186.05548095703125 51.97294616699219 193.9034423828125 53.21208953857422 199.2730712890625 57.34259033203125 204.64276123046875 70.97325134277344 205.88189697265625 80.88645935058594 201.33831787109375 111.03915405273438 198.033935546875 116.82183837890624 188.5338134765625 126.32199096679688 188.5338134765625 126.32199096679688 " />
        <polyline stroke="black" stroke-width="3" stroke-linecap="round" fill="transparent" stroke-linejoin="round" points="156.72894287109375 101.53898620605467 154.6636962890625 110.21304321289063 152.598388671875 118.47404479980467 150.53314208984375 127.56114196777344 147.228759765625 142.01791381835938 145.16351318359375 151.93109130859375 144.75042724609375 158.12686157226563 145.98959350585938 160.60516357421875 153.011474609375 160.60516357421875 166.22906494140625 156.4746551513672 179.4466552734375 151.93109130859375 190.59906005859375 148.62669372558594 199.6861572265625 147.38755798339844 205.4688720703125 148.21365356445313 208.77325439453125 151.51805114746094 212.49072265625 163.08346557617188 212.49072265625 187.04037475585935 208.3602294921875 206.04071044921875 201.75140380859375 219.67135620117188 193.07733154296875 227.932373046875 177.79443359375 230.41064453125 164.57684326171875 224.62796020507813 157.1419677734375 217.60610961914065 154.2506103515625 214.7147521972656 154.2506103515625 214.7147521972656 " />
        </svg>