<?xml version="1.0" standalone="no"?>
    <svg width="256" height="256" xmlns="http://www.w3.org/2000/svg" version="1.1">
    <polyline stroke="black" stroke-width="3" stroke-linecap="round" fill="transparent" stroke-linejoin="round" points="73.1181640625 81.26608276367188 76.21002197265625 79.49932861328125 86.810546875 74.19905090332031 93.43588256835938 71.54891967773438 99.6195068359375 69.34048461914063 105.36151123046876 68.01541137695313 110.6617431640625 67.57373046875 116.4036865234375 68.01541137695313 119.0538330078125 69.34048461914063 120.820556640625 71.10723876953125 122.58734130859376 74.19905090332031 123.91241455078124 79.94100952148438 124.35409545898438 86.56634521484375 123.91241455078124 93.63336181640624 123.029052734375 100.25871276855467 122.14569091796876 103.35055541992188 119.49554443359376 113.50938415527344 117.728759765625 119.69302368164063 115.96200561523438 124.55162048339844 114.19525146484376 128.08511352539063 112.87020874023438 131.17694091796875 112.428466796875 132.50201416015625 111.10345458984376 134.26876831054688 110.22006225585938 134.26876831054688 108.89498901367188 134.26876831054688 106.244873046875 133.8270721435547 100.06121826171876 129.85186767578125 100.06121826171876 129.85186767578125 " />
        <polyline stroke="black" stroke-width="3" stroke-linecap="round" fill="transparent" stroke-linejoin="round" points="77.97674560546875 106.44235229492188 82.39364624023438 142.66085815429688 84.60211181640625 169.60386657714844 84.60211181640625 181.97116088867188 83.71871948242188 189.0382080078125 83.71871948242188 189.0382080078125 " />
        <polyline stroke="black" stroke-width="3" stroke-linecap="round" fill="transparent" stroke-linejoin="round" points="149.08871459960938 57.8565673828125 153.06390380859375 57.41487121582031 157.0390625 56.97319030761719 161.0142822265625 56.531494140625 169.4063720703125 56.531494140625 173.8232421875 56.97319030761719 183.0987548828125 58.298248291015625 189.72406005859375 60.50669860839844 194.5826416015625 63.156829833984375 197.2327880859375 66.2486572265625 199.4412841796875 77.29087829589844 196.7911376953125 96.72518920898438 189.28240966796875 115.7178192138672 181.773681640625 126.76004028320313 175.1483154296875 133.8270721435547 175.1483154296875 133.8270721435547 " />
        <polyline stroke="black" stroke-width="3" stroke-linecap="round" fill="transparent" stroke-linejoin="round" points="164.989501953125 91.4249267578125 162.781005859375 96.28350830078124 160.5726318359375 102.02548217773438 154.8306884765625 119.2513427734375 152.1805419921875 127.64341735839844 150.85543823242188 131.17694091796875 149.08871459960938 137.36058044433594 148.205322265625 141.77749633789063 147.32196044921875 145.31097412109375 147.32196044921875 147.51943969726563 149.08871459960938 148.40281677246094 155.2723388671875 148.844482421875 164.54779052734375 147.51943969726563 175.1483154296875 145.752685546875 184.423828125 144.4276123046875 191.93255615234375 143.98590087890625 197.67449951171875 144.4276123046875 201.649658203125 146.19436645507813 204.2998046875 150.1695556640625 206.50823974609375 160.3284149169922 205.6248779296875 174.90414428710938 201.649658203125 188.15481567382813 196.7911376953125 197.8719787597656 191.4908447265625 204.93899536132813 185.7489013671875 210.2392578125 178.24017333984375 214.6561584472656 168.52301025390625 217.74798583984375 155.2723388671875 216.86459350585935 155.2723388671875 216.86459350585935 " />
        </svg>