<?xml version="1.0" standalone="no"?>
    <svg width="256" height="256" xmlns="http://www.w3.org/2000/svg" version="1.1">
    <polyline stroke="black" stroke-width="3" stroke-linecap="round" fill="transparent" stroke-linejoin="round" points="63.93341064453125 88.80000305175781 69.2667236328125 86.66667175292969 83.1334228515625 80.26667785644531 94.86669921875 73.86668395996094 103.4000244140625 70.66667175292969 107.666748046875 68.53335571289063 108.7333984375 68.53335571289063 109.80010986328124 69.60000610351563 109.80010986328124 79.20002746582031 109.80010986328124 96.26667785644533 108.7333984375 109.06668090820313 105.53338623046876 118.66667175292967 102.3333740234375 122.93336486816406 99.1334228515625 124.00001525878906 93.80010986328124 117.60000610351563 87.4000244140625 104.8000030517578 87.4000244140625 104.8000030517578 " />
        <polyline stroke="black" stroke-width="3" stroke-linecap="round" fill="transparent" stroke-linejoin="round" points="74.60003662109375 119.73338317871094 75.66668701171875 145.33334350585938 75.66668701171875 165.6000213623047 74.60003662109375 186.933349609375 73.53338623046875 192.2666931152344 73.53338623046875 193.33334350585935 73.53338623046875 193.33334350585935 " />
        <polyline stroke="black" stroke-width="3" stroke-linecap="round" fill="transparent" stroke-linejoin="round" points="158.86669921875 51.46668243408203 171.666748046875 48.26667022705078 185.533447265625 45.066673278808594 189.8001708984375 45.066673278808594 189.8001708984375 51.46668243408203 185.533447265625 69.60000610351563 183.4000244140625 78.13334655761719 182.3333740234375 84.53335571289063 178.0667724609375 89.86669921875 178.0667724609375 89.86669921875 " />
        <polyline stroke="black" stroke-width="3" stroke-linecap="round" fill="transparent" stroke-linejoin="round" points="141.8001708984375 98.40000915527344 138.60009765625 108.00001525878906 134.3333740234375 115.4666748046875 133.2667236328125 119.73338317871094 134.3333740234375 119.73338317871094 139.666748046875 116.53335571289063 150.3333740234375 112.26667785644533 172.7333984375 105.86669921875 183.4000244140625 104.8000030517578 191.933349609375 104.8000030517578 197.2667236328125 105.86669921875 199.4000244140625 106.933349609375 200.4666748046875 108.00001525878906 200.4666748046875 113.33334350585938 200.4666748046875 126.1333465576172 198.3333740234375 149.6000213623047 194.0667724609375 183.73336791992188 191.933349609375 201.86666870117188 190.86669921875 212.53335571289065 190.86669921875 215.73336791992188 189.8001708984375 217.86666870117188 185.533447265625 214.66668701171875 177 200.80001831054688 168.466796875 190.13336181640625 168.466796875 190.13336181640625 " />
        </svg>