<?xml version="1.0" standalone="no"?>
    <svg width="256" height="256" xmlns="http://www.w3.org/2000/svg" version="1.1">
    <polyline stroke="black" stroke-width="3" stroke-linecap="round" fill="transparent" stroke-linejoin="round" points="39.4000244140625 84.53335571289063 55.4000244140625 77.06668090820313 68.2000732421875 70.66667175292969 75.66668701171875 67.4666748046875 82.06671142578125 65.33334350585938 85.2667236328125 64.26667785644531 86.3333740234375 64.26667785644531 88.466796875 64.26667785644531 89.53338623046875 68.53335571289063 90.60003662109376 86.66667175292969 89.53338623046875 102.66667175292967 87.4000244140625 111.20002746582033 85.2667236328125 117.60000610351563 83.1334228515625 121.86668395996094 81.00006103515625 124.00001525878906 71.4000244140625 116.53335571289063 71.4000244140625 116.53335571289063 " />
        <polyline stroke="black" stroke-width="3" stroke-linecap="round" fill="transparent" stroke-linejoin="round" points="51.1334228515625 104.8000030517578 54.3333740234375 118.66667175292967 60.7333984375 159.20001220703125 63.93341064453125 179.4666748046875 65.00006103515625 192.2666931152344 66.06671142578125 197.6000061035156 67.1334228515625 200.80001831054688 67.1334228515625 200.80001831054688 " />
        <polyline stroke="black" stroke-width="3" stroke-linecap="round" fill="transparent" stroke-linejoin="round" points="141.8001708984375 39.73333740234375 150.3333740234375 37.600006103515625 156.7333984375 35.46668243408203 161 33.333335876464844 163.1334228515625 33.333335876464844 163.1334228515625 34.40000915527344 163.1334228515625 36.533355712890625 162.0667724609375 42.93334197998047 159.933349609375 50.40000915527344 159.933349609375 58.93333435058594 159.933349609375 68.53335571289063 162.0667724609375 71.73333740234375 162.0667724609375 71.73333740234375 " />
        <polyline stroke="black" stroke-width="3" stroke-linecap="round" fill="transparent" stroke-linejoin="round" points="123.666748046875 84.53335571289063 121.53338623046876 96.26667785644533 119.4000244140625 102.66667175292967 117.2667236328125 109.06668090820313 115.1334228515625 115.4666748046875 115.1334228515625 116.53335571289063 116.2000732421875 115.4666748046875 120.466796875 112.26667785644533 125.80010986328124 109.06668090820313 133.2667236328125 104.8000030517578 142.86669921875 101.60000610351563 153.533447265625 97.33334350585938 168.466796875 94.1333465576172 174.86669921875 93.06668090820313 179.1334228515625 92.00001525878906 182.3333740234375 92.00001525878906 183.4000244140625 92.00001525878906 184.466796875 92.00001525878906 186.60009765625 92.00001525878906 186.60009765625 93.06668090820313 187.666748046875 94.1333465576172 187.666748046875 96.26667785644533 188.7333984375 97.33334350585938 189.8001708984375 101.60000610351563 189.8001708984375 104.8000030517578 189.8001708984375 108.00001525878906 189.8001708984375 113.33334350585938 189.8001708984375 120.8000030517578 186.60009765625 137.86668395996094 185.533447265625 149.6000213623047 184.466796875 161.33334350585938 184.466796875 172.00001525878906 184.466796875 186.933349609375 184.466796875 195.4666748046875 184.466796875 200.80001831054688 184.466796875 202.933349609375 184.466796875 204 184.466796875 205.06671142578125 183.4000244140625 205.06671142578125 181.2667236328125 204 174.86669921875 200.80001831054688 165.2667236328125 196.53335571289065 146.0667724609375 189.06671142578125 146.0667724609375 189.06671142578125 " />
        </svg>