<?xml version="1.0" standalone="no"?>
    <svg width="256" height="256" xmlns="http://www.w3.org/2000/svg" version="1.1">
    <polyline stroke="black" stroke-width="3" stroke-linecap="round" fill="transparent" stroke-linejoin="round" points="63.15399169921875 76.13174438476563 78.74459838867188 65.16056823730469 90.87060546875 58.80885314941406 105.30636596679688 53.0345458984375 121.47439575195313 48.99253845214844 135.91015625 48.41511535644531 147.458740234375 49.569969177246094 154.38787841796875 53.0345458984375 157.85247802734375 60.5411376953125 159.58477783203125 77.28660583496094 154.96533203125 97.49664306640624 146.30389404296875 115.97439575195313 137.06500244140625 128.6778564453125 128.403564453125 135.6070098876953 119.1646728515625 139.0715789794922 119.1646728515625 139.0715789794922 " />
        <polyline stroke="black" stroke-width="3" stroke-linecap="round" fill="transparent" stroke-linejoin="round" points="90.29318237304688 55.92169189453125 89.1383056640625 77.86402893066406 87.40603637695313 92.877197265625 85.67376708984375 108.46780395507813 85.0963134765625 120.59382629394533 85.67376708984375 129.25527954101563 86.82861328125 135.6070098876953 90.29318237304688 139.64901733398438 97.79977416992188 140.8038787841797 113.96780395507813 139.0715789794922 133.02301025390625 135.6070098876953 154.38787841796875 134.4521484375 170.555908203125 137.91673278808594 180.37225341796875 144.26844787597656 187.3013916015625 155.81704711914063 189.611083984375 174.2947998046875 186.72393798828125 192.7725524902344 180.94964599609375 205.47601318359375 175.17535400390625 212.4051513671875 167.66876220703125 217.60202026367188 156.12017822265625 219.9117431640625 142.26187133789063 215.29232788085935 126.09381103515624 201.4339904785156 107.03863525390624 179.49166870117188 107.03863525390624 179.49166870117188 " />
        </svg>