<?xml version="1.0" standalone="no"?>
    <svg width="256" height="256" xmlns="http://www.w3.org/2000/svg" version="1.1">
    <polyline stroke="black" stroke-width="3" stroke-linecap="round" fill="transparent" stroke-linejoin="round" points="84.1114501953125 72.154541015625 103.9378662109375 61.00218200683594 111.78582763671876 58.11083984375 125.82955932617188 53.567283630371094 138.22103881835938 51.08898162841797 149.37338256835938 51.08898162841797 152.6778564453125 53.15422821044922 155.1561279296875 62.2413330078125 153.9169921875 76.28504943847656 151.43865966796875 84.54605102539063 139.87322998046875 106.85076904296876 135.32968139648438 112.22042846679688 135.32968139648438 112.22042846679688 " />
        <polyline stroke="black" stroke-width="3" stroke-linecap="round" fill="transparent" stroke-linejoin="round" points="95.67684936523438 77.52420043945313 92.37249755859376 94.4592742919922 91.13330078125 104.78550720214844 89.8941650390625 114.69871520996094 89.06805419921875 124.19889831542967 87.41586303710938 135.3512420654297 87.0028076171875 138.6556396484375 87.0028076171875 141.54698181152344 90.72027587890624 141.54698181152344 103.11175537109376 137.82955932617188 120.87298583984376 132.04684448242188 140.28631591796875 127.50328063964844 155.1561279296875 127.50328063964844 165.48236083984375 132.4598846435547 172.917236328125 144.43833923339844 176.2216796875 167.98220825195313 171.26507568359375 193.59130859375 161.764892578125 210.11334228515625 148.54730224609375 217.9613037109375 128.72088623046875 217.5482482910156 111.78582763671876 207.63504028320313 101.45956420898438 198.54791259765625 101.45956420898438 198.54791259765625 " />
        </svg>