<?xml version="1.0" standalone="no"?>
    <svg width="256" height="256" xmlns="http://www.w3.org/2000/svg" version="1.1">
    <polyline stroke="black" stroke-width="3" stroke-linecap="round" fill="transparent" stroke-linejoin="round" points="118 51 113 57 108 63 86 92 68 113 61 121 55 128 46 134 43 135 43 135 " />
        <polyline stroke="black" stroke-width="3" stroke-linecap="round" fill="transparent" stroke-linejoin="round" points="121 63 141 67 161 71 179 80 195 88 208 97 216 103 216 106 216 106 " />
        <polyline stroke="black" stroke-width="3" stroke-linecap="round" fill="transparent" stroke-linejoin="round" points="93 139 102 138 111 137 145 132 166 131 173 131 179 130 179 130 " />
        <polyline stroke="black" stroke-width="3" stroke-linecap="round" fill="transparent" stroke-linejoin="round" points="104 148 103 160 102 172 94 190 84 209 76 221 69 228 67 230 67 230 " />
        <polyline stroke="black" stroke-width="3" stroke-linecap="round" fill="transparent" stroke-linejoin="round" points="103 191 114 197 125 203 138 209 147 210 147 210 " />
        <polyline stroke="black" stroke-width="3" stroke-linecap="round" fill="transparent" stroke-linejoin="round" points="197 144 186 163 175 182 165 201 157 215 150 224 149 224 149 224 " />
        <polyline stroke="black" stroke-width="3" stroke-linecap="round" fill="transparent" stroke-linejoin="round" points="179 190 189 199 199 208 211 219 224 233 224 233 " />
        </svg>