<?xml version="1.0" standalone="no"?>
    <svg width="256" height="256" xmlns="http://www.w3.org/2000/svg" version="1.1">
    <polyline stroke="black" stroke-width="3" stroke-linecap="round" fill="transparent" stroke-linejoin="round" points="61.701263427734375 61.91242980957031 69.62506103515625 59.53529357910156 77.54885864257813 57.15815734863281 100.13177490234376 51.215301513671875 138.56228637695313 44.08386993408203 152.82513427734375 41.31053924560547 172.6346435546875 38.933387756347656 176.5965576171875 38.14100646972656 176.5965576171875 38.14100646972656 " />
        <polyline stroke="black" stroke-width="3" stroke-linecap="round" fill="transparent" stroke-linejoin="round" points="83.09555053710938 100.34294128417967 82.69937133789063 102.32389831542967 82.30319213867188 104.30485534667967 81.90695190429688 112.62484741210938 83.88790893554688 116.58676147460938 90.22698974609376 116.58676147460938 100.92413330078124 111.436279296875 113.20602416992188 104.30485534667967 125.09173583984376 98.36198425292967 134.99652099609375 91.6267547607422 134.99652099609375 91.6267547607422 " />
        <polyline stroke="black" stroke-width="3" stroke-linecap="round" fill="transparent" stroke-linejoin="round" points="136.581298828125 53.196258544921875 151.2403564453125 73.4019775390625 165.8994140625 93.60769653320313 179.369873046875 110.64390563964844 191.25555419921875 125.30296325683594 191.25555419921875 125.30296325683594 " />
        <polyline stroke="black" stroke-width="3" stroke-linecap="round" fill="transparent" stroke-linejoin="round" points="83.88787841796875 164.92202758789063 84.28411865234375 169.6763153076172 84.68035888671875 174.43060302734375 85.47268676757813 180.3734588623047 88.24603271484375 184.7315673828125 96.56600952148438 185.52392578125 112.80984497070313 181.16583251953125 130.638427734375 174.82679748535156 144.10891723632813 169.28012084960938 156.78704833984375 165.31822204589844 165.50323486328125 162.14869689941406 169.0689697265625 159.7715606689453 169.0689697265625 159.7715606689453 " />
        <polyline stroke="black" stroke-width="3" stroke-linecap="round" fill="transparent" stroke-linejoin="round" points="184.12420654296875 152.64015197753906 184.12420654296875 159.7715606689453 184.12420654296875 166.90296936035156 183.72802734375 168.88394165039063 183.72802734375 168.88394165039063 " />
        <polyline stroke="black" stroke-width="3" stroke-linecap="round" fill="transparent" stroke-linejoin="round" points="146.08981323242188 153.03631591796875 142.52413940429688 170.07249450683594 138.95846557617188 187.10867309570313 134.20413208007813 204.1448974609375 128.65750122070313 218.803955078125 121.1298828125 232.67062377929688 121.1298828125 232.67062377929688 " />
        </svg>