<?xml version="1.0" standalone="no"?>
    <svg width="256" height="256" xmlns="http://www.w3.org/2000/svg" version="1.1">
    <polyline stroke="black" stroke-width="3" stroke-linecap="round" fill="transparent" stroke-linejoin="round" points="26.60003662109375 119.73338317871094 53.2667236328125 100.53335571289063 76.7333984375 83.4666748046875 88.466796875 76.00001525878906 113.00006103515624 60 122.60003662109376 53.600006103515625 125.80010986328124 50.40000915527344 123.666748046875 50.40000915527344 107.666748046875 65.33334350585938 79.93341064453125 103.73333740234376 65.00006103515625 126.1333465576172 56.466796875 138.93336486816406 53.2667236328125 144.26669311523438 49.00006103515625 150.6666717529297 47.93341064453125 150.6666717529297 45.80010986328125 148.53334045410156 43.66668701171875 140.00001525878906 42.60003662109375 137.86668395996094 42.60003662109375 133.6000213623047 45.80010986328125 128.26669311523438 54.3333740234375 122.93336486816406 63.93341064453125 119.73338317871094 81.00006103515625 114.40000915527344 86.3333740234375 113.33334350585938 94.86669921875 110.1333465576172 99.1334228515625 106.933349609375 101.2667236328125 103.73333740234376 99.1334228515625 98.40000915527344 98.06671142578124 97.33334350585938 94.86669921875 96.26667785644533 93.80010986328124 95.20002746582033 94.86669921875 95.20002746582033 101.2667236328125 97.33334350585938 115.1334228515625 98.40000915527344 124.7333984375 98.40000915527344 155.666748046875 98.40000915527344 171.666748046875 98.40000915527344 181.2667236328125 99.4666748046875 185.533447265625 100.53335571289063 188.7333984375 102.66667175292967 185.533447265625 106.933349609375 177 112.26667785644533 177 112.26667785644533 " />
        <polyline stroke="black" stroke-width="3" stroke-linecap="round" fill="transparent" stroke-linejoin="round" points="51.1334228515625 184.80001831054688 82.06671142578125 163.4666748046875 93.80010986328124 158.1333465576172 122.60003662109376 148.53334045410156 132.2000732421875 146.40003967285156 134.3333740234375 145.33334350585938 132.2000732421875 145.33334350585938 123.666748046875 145.33334350585938 116.2000732421875 146.40003967285156 111.93341064453124 148.53334045410156 109.80010986328124 148.53334045410156 108.7333984375 149.6000213623047 105.53338623046876 152.80001831054688 103.4000244140625 154.93336486816406 102.3333740234375 156.00001525878906 104.466796875 156.00001525878906 106.60003662109376 154.93336486816406 113.00006103515624 149.6000213623047 129 137.86668395996094 143.933349609375 126.1333465576172 149.2667236328125 121.86668395996094 150.3333740234375 120.8000030517578 151.4000244140625 119.73338317871094 150.3333740234375 120.8000030517578 150.3333740234375 120.8000030517578 " />
        <polyline stroke="black" stroke-width="3" stroke-linecap="round" fill="transparent" stroke-linejoin="round" points="102.3333740234375 110.1333465576172 100.2000732421875 138.93336486816406 97.00006103515624 172.00001525878906 95.93341064453124 196.53335571289065 95.93341064453124 211.4666748046875 94.86669921875 217.86666870117188 90.60003662109376 227.4666748046875 86.3333740234375 229.6000061035156 86.3333740234375 229.6000061035156 " />
        </svg>