<?xml version="1.0" standalone="no"?>
    <svg width="256" height="256" xmlns="http://www.w3.org/2000/svg" version="1.1">
    <polyline stroke="black" stroke-width="3" stroke-linecap="round" fill="transparent" stroke-linejoin="round" points="66 75 97 70 106 68 137 62 155 60 164 60 168 60 168 67 161 80 148 94 128 106 128 106 " />
        <polyline stroke="black" stroke-width="3" stroke-linecap="round" fill="transparent" stroke-linejoin="round" points="98 102 109 112 117 116 128 122 135 129 135 129 " />
        <polyline stroke="black" stroke-width="3" stroke-linecap="round" fill="transparent" stroke-linejoin="round" points="65 163 76 156 85 155 106 150 131 146 142 145 163 145 179 145 188 148 188 157 178 173 161 185 139 195 139 195 " />
        <polyline stroke="black" stroke-width="3" stroke-linecap="round" fill="transparent" stroke-linejoin="round" points="93 189 112 191 118 191 131 193 144 197 153 200 167 210 167 210 " />
        </svg>