<?xml version="1.0" standalone="no"?>
    <svg width="256" height="256" xmlns="http://www.w3.org/2000/svg" version="1.1">
    <polyline stroke="black" stroke-width="3" stroke-linecap="round" fill="transparent" stroke-linejoin="round" points="44.687530517578125 46.1027374267578 49.06915283203125 72.686279296875 53.450775146484375 99.2698211669922 54.862548828125 122.65390014648438 54.973846435546875 133.49346923828125 54.167694091796875 153.93246459960938 53.2679443359375 163.4530029296875 51.989501953125 172.35264587402344 52.018646240234375 175.00625610351563 52.21636962890625 175.34600830078125 55.7828369140625 175.76853942871094 59.736297607421875 176.24395751953125 72.27963256835938 177.0315399169922 79.51763916015625 176.7108154296875 93.06698608398438 175.26803588867188 97.92633056640624 174.295654296875 104.27789306640624 172.17837524414063 106.5015869140625 170.63912963867188 105.49859619140624 170.4256591796875 " />
        <polyline stroke="black" stroke-width="3" stroke-linecap="round" fill="transparent" stroke-linejoin="round" points="96.11718750000003 60.488494873046875 97.19427490234376 73.35488891601563 98.2713623046875 86.22128295898438 100.98052978515624 119.94277954101563 102.00531005859376 135.28115844726563 103.74606323242188 155.62322998046875 104.792236328125 160.18020629882813 105.62289428710938 165.25909423828125 105.61767578125 165.4228515625 " />
        <polyline stroke="black" stroke-width="3" stroke-linecap="round" fill="transparent" stroke-linejoin="round" points="69.4932861328125 107.45501708984376 77.33367919921875 105.2685546875 85.174072265625 103.08209228515624 100.68954467773438 99.86003112792967 107.45712280273438 98.91229248046876 113.95928955078124 98.75738525390624 114.60946655273438 98.74191284179688 " />
        <polyline stroke="black" stroke-width="3" stroke-linecap="round" fill="transparent" stroke-linejoin="round" points="133.04632568359375 59.1141357421875 144.94027709960938 59.112518310546875 156.834228515625 59.11090087890625 163.2410888671875 59.11857604980469 174.21435546875 59.700439453125 179.77435302734375 60.054962158203125 185.81097412109375 60.69671630859375 186.69873046875 60.9498291015625 186.7779541015625 60.97239685058594 186.788330078125 60.975341796875 " />
        <polyline stroke="black" stroke-width="3" stroke-linecap="round" fill="transparent" stroke-linejoin="round" points="165.17840576171875 107.0601806640625 170.98138427734375 108.76817321777344 176.78436279296875 110.47616577148438 186.9736328125 116.05174255371094 189.85394287109375 119.36941528320313 193.9901123046875 130.72044372558594 193.8599853515625 139.16690063476563 188.9215087890625 158.0525360107422 181.59033203125 171.80023193359375 178.8363037109375 174.84088134765625 173.2138671875 180.6826629638672 170.9957275390625 183.08154296875 168.4613037109375 184.79083251953125 164.2396240234375 183.00375366210935 164.26702880859375 182.21157836914065 " />
        <polyline stroke="black" stroke-width="3" stroke-linecap="round" fill="transparent" stroke-linejoin="round" points="168.71902465820313 65.1872100830078 157.21392822265625 90.459228515625 145.70883178710938 115.7312469482422 140.416748046875 130.41415405273438 131.22930908203125 161.19692993164063 126.495849609375 174.6775360107422 118.73495483398438 181.62925720214844 117.62850952148438 180.19595336914065 " />
        </svg>