<?xml version="1.0" standalone="no"?>
    <svg width="256" height="256" xmlns="http://www.w3.org/2000/svg" version="1.1">
    <polyline stroke="black" stroke-width="3" stroke-linecap="round" fill="transparent" stroke-linejoin="round" points="56.571746826171875 68.4478759765625 57.991668701171875 98.2593994140625 59.411590576171875 128.0709228515625 58.110565185546875 159.908935546875 50.858001708984375 212.68875122070313 47.42919921875 220.5736083984375 43.04022216796875 221.2537841796875 42.220306396484375 219.38552856445313 42.245452880859375 217.21463012695313 43.966400146484375 213.99908447265625 46.952392578125 211.46878051757813 66.519287109375 204.12139892578125 78.77764892578125 201.61517333984375 100.68505859375 200.31842041015625 108.60711669921876 200.12109375 116.8067626953125 199.5977783203125 118.95248413085938 198.55859375 119.14788818359376 198.4639587402344 " />
        <polyline stroke="black" stroke-width="3" stroke-linecap="round" fill="transparent" stroke-linejoin="round" points="106.61447143554688 21.799285888671875 108.35531616210938 72.61001586914063 110.09616088867188 123.42074584960938 110.17855834960938 147.59312438964844 109.43429565429688 183.52719116210935 108.11419677734376 194.34820556640625 106.58590698242188 199.0557861328125 106.38107299804688 195.605224609375 " />
        <polyline stroke="black" stroke-width="3" stroke-linecap="round" fill="transparent" stroke-linejoin="round" points="79.49160766601563 141.72897338867188 86.9775390625 139.588134765625 94.46347045898438 137.44729614257813 100.84429931640624 137.39727783203125 101.9007568359375 137.19583129882813 " />
        <polyline stroke="black" stroke-width="3" stroke-linecap="round" fill="transparent" stroke-linejoin="round" points="143.9862060546875 66.1224365234375 155.0352783203125 61.99473571777344 166.0843505859375 57.867034912109375 186.96875 51.109893798828125 193.3416748046875 48.798614501953125 203.529541015625 45.493743896484375 205.7274169921875 44.46202087402344 206.140869140625 43.89599609375 206.15863037109375 43.87176513671875 " />
        <polyline stroke="black" stroke-width="3" stroke-linecap="round" fill="transparent" stroke-linejoin="round" points="171.43212890625 103.92811584472659 178.41278076171875 102.73016357421876 185.3934326171875 101.53221130371094 196.98828125 100.926025390625 200.2730712890625 101.52879333496094 200.8349609375 101.70883178710938 201.304931640625 101.88645935058594 201.387939453125 101.91783142089844 201.5760498046875 103.83279418945313 201.83685302734375 116.82058715820313 198.825439453125 153.9247283935547 195.81463623046875 171.40489196777344 190.2430419921875 192.2369384765625 187.74969482421875 199.7734375 183.66119384765625 207.31564331054688 181.787353515625 207.2933349609375 181.26629638671875 207.01040649414065 179.65008544921875 206.86285400390625 178.02001953125 206.5196533203125 169.213134765625 201.1654052734375 155.51361083984375 191.7484130859375 154.0736083984375 190.3941650390625 " />
        <polyline stroke="black" stroke-width="3" stroke-linecap="round" fill="transparent" stroke-linejoin="round" points="165.92630004882813 69.5821533203125 155.33538818359375 113.42703247070313 144.74447631835938 157.27191162109375 136.5206298828125 178.95895385742188 118.46908569335938 212.5677490234375 116.94622802734376 213.8124084472656 " />
        </svg>