<?xml version="1.0" standalone="no"?>
    <svg width="256" height="256" xmlns="http://www.w3.org/2000/svg" version="1.1">
    <polyline stroke="black" stroke-width="3" stroke-linecap="round" fill="transparent" stroke-linejoin="round" points="53.26416015625 130.2263946533203 70.4716796875 151.9622802734375 69.5660400390625 178.2263946533203 68.660400390625 187.28298950195313 68.660400390625 192.71697998046875 69.5660400390625 194.5283203125 73.188720703125 193.6226501464844 81.33966064453125 188.18869018554688 97.64154052734376 176.41510009765625 106.6981201171875 166.45285034179688 113.0377197265625 157.396240234375 117.56597900390624 149.24530029296875 117.56597900390624 149.24530029296875 " />
        <polyline stroke="black" stroke-width="3" stroke-linecap="round" fill="transparent" stroke-linejoin="round" points="103.07550048828124 93.09432983398438 109.41510009765624 136.5660400390625 98.54718017578124 161.01885986328125 94.924560546875 163.73583984375 94.924560546875 163.73583984375 " />
        <polyline stroke="black" stroke-width="3" stroke-linecap="round" fill="transparent" stroke-linejoin="round" points="38.77362060546875 166.45285034179688 75.90570068359375 143.81134033203125 115.75469970703124 113.92453002929688 115.75469970703124 113.92453002929688 " />
        <polyline stroke="black" stroke-width="3" stroke-linecap="round" fill="transparent" stroke-linejoin="round" points="131.15087890625 42.37736511230469 135.67926025390625 68.64151000976563 128.43389892578125 117.54718017578124 126.6226806640625 124.79244995117188 123.90570068359376 132.94337463378906 122.99993896484376 135.6603546142578 122.99993896484376 135.6603546142578 " />
        <polyline stroke="black" stroke-width="3" stroke-linecap="round" fill="transparent" stroke-linejoin="round" points="137.4906005859375 106.67926025390624 154.6981201171875 92.18869018554688 160.13201904296875 88.5660400390625 182.77362060546875 82.22640991210938 197.26416015625 79.50942993164063 199.98114013671875 78.60379028320313 204.50946044921875 79.50942993164063 207.2264404296875 90.37734985351563 204.50946044921875 107.58488464355467 199.07550048828125 131.132080078125 190.01885986328125 155.5848846435547 180.9622802734375 175.50941467285156 170.99993896484375 191.81134033203125 156.50946044921875 204.49053955078125 149.26416015625 206.3018798828125 143.8302001953125 201.7735595703125 143.8302001953125 201.7735595703125 " />
        <polyline stroke="black" stroke-width="3" stroke-linecap="round" fill="transparent" stroke-linejoin="round" points="153.79248046875 105.77359008789063 151.07550048828125 126.60379028320313 148.3585205078125 133.84906005859375 131.15087890625 159.20753479003906 126.6226806640625 162.8302001953125 117.56597900390624 166.45285034179688 117.56597900390624 166.45285034179688 " />
        <polyline stroke="black" stroke-width="3" stroke-linecap="round" fill="transparent" stroke-linejoin="round" points="120.282958984375 131.132080078125 157.41510009765625 143.81134033203125 205.41510009765625 168.26416015625 250.6981201171875 195.4339599609375 258.84906005859375 201.7735595703125 271.5283203125 211.73583984375 271.5283203125 211.73583984375 " />
        </svg>