<?xml version="1.0" standalone="no"?>
    <svg width="256" height="256" xmlns="http://www.w3.org/2000/svg" version="1.1">
    <polyline stroke="black" stroke-width="3" stroke-linecap="round" fill="transparent" stroke-linejoin="round" points="105.64788818359375 70.42897033691406 120.87875366210938 65.48924255371094 136.109619140625 60.54951477050781 144.34246826171875 57.667999267578125 150.92880249023438 56.02142333984375 156.28021240234375 54.78649139404297 157.51513671875 54.374847412109375 155.8685302734375 57.667999267578125 146.40072631835938 68.37075805664063 130.75820922851563 91.4228515625 115.52737426757813 117.35646057128906 110.58767700195313 126.82427978515624 110.58767700195313 126.82427978515624 " />
        <polyline stroke="black" stroke-width="3" stroke-linecap="round" fill="transparent" stroke-linejoin="round" points="66.13003540039063 142.0551300048828 85.88897705078125 136.29209899902344 105.64791870117188 130.52906799316406 120.05545043945313 127.23591613769533 134.05142211914063 125.1776885986328 141.87261962890625 124.76605224609376 148.87057495117188 124.35441589355467 152.57537841796875 124.35441589355467 154.221923828125 125.58932495117188 151.3404541015625 131.3523712158203 141.87261962890625 142.87841796875 128.28836059570313 160.16746520996094 113.88079833984376 181.1613311767578 103.5897216796875 202.15521240234375 98.23834228515624 219.44427490234375 97.82669067382813 229.32376098632813 100.70822143554688 235.08673095703125 113.05752563476563 238.79156494140625 132.81646728515625 235.4984130859375 156.28021240234375 228.50045776367188 179.332275390625 220.267578125 198.6795654296875 212.85797119140625 213.08709716796875 205.0367126464844 220.49676513671875 199.68536376953125 223.37823486328125 195.56887817382813 222.96661376953125 188.98257446289065 218.02691650390625 179.51475524902344 211.8521728515625 164.695556640625 211.8521728515625 164.695556640625 " />
        </svg>