<?xml version="1.0" standalone="no"?>
    <svg width="256" height="256" xmlns="http://www.w3.org/2000/svg" version="1.1">
    <polyline stroke="black" stroke-width="3" stroke-linecap="round" fill="transparent" stroke-linejoin="round" points="65.6776123046875 79.98080444335938 74.61761474609375 75.51077270507813 83.5576171875 71.04074096679688 92.4976806640625 66.97709655761719 112.00326538085938 59.256134033203125 134.35336303710938 53.5670166015625 149.388916015625 51.535186767578125 157.5162353515625 51.535186767578125 161.17352294921875 52.75428771972656 162.392578125 56.81794738769531 158.7353515625 68.19619750976563 153.85894775390625 77.13623046875 127.44515991210938 108.4263916015625 117.2860107421875 118.99191284179688 117.2860107421875 118.99191284179688 " />
        <polyline stroke="black" stroke-width="3" stroke-linecap="round" fill="transparent" stroke-linejoin="round" points="84.77679443359371 127.93194580078125 91.27862548828124 125.49375915527344 97.78045654296876 123.05557250976563 105.09506225585938 120.61737060546876 120.94329833984376 115.33462524414063 128.66424560546875 112.89642333984376 135.97885131835938 110.86459350585938 151.014404296875 107.20730590820313 161.57989501953125 105.5818328857422 166.8626708984375 105.17547607421876 168.08172607421875 107.20730590820313 166.456298828125 112.08367919921876 142.07431030273438 147.8438720703125 124.6005859375 173.44491577148438 116.4732666015625 189.29318237304688 116.4732666015625 200.26507568359375 125.413330078125 207.98602294921875 148.576171875 213.67514038085935 175.80267333984375 212.8623962402344 198.5592041015625 207.17327880859375 213.5947265625 198.63958740234375 222.94110107421875 188.8868408203125 228.223876953125 174.66400146484375 224.972900390625 157.59666442871094 224.972900390625 157.59666442871094 " />
        </svg>