<?xml version="1.0" standalone="no"?>
    <svg width="256" height="256" xmlns="http://www.w3.org/2000/svg" version="1.1">
    <polyline stroke="black" stroke-width="3" stroke-linecap="round" fill="transparent" stroke-linejoin="round" points="77.0726318359375 86.87431335449219 89.7442626953125 76.95741271972656 98.55926513671876 71.99894714355469 109.02713012695313 66.48956298828125 120.59686279296876 61.531097412109375 131.61566162109375 58.2254638671875 140.4306640625 56.02171325683594 148.69476318359375 54.368896484375 153.6531982421875 54.368896484375 157.50982666015625 55.47076416015625 158.06072998046875 58.776397705078125 156.407958984375 65.38768005371094 149.796630859375 77.50834655761719 128.8609619140625 107.8100128173828 119.4949951171875 122.68537902832033 119.4949951171875 122.68537902832033 " />
        <polyline stroke="black" stroke-width="3" stroke-linecap="round" fill="transparent" stroke-linejoin="round" points="69.91043090820313 133.70416259765625 83.13299560546875 129.84759521484375 91.3970947265625 127.64382934570313 101.31396484375 124.88914489746094 110.679931640625 123.23631286621094 120.04592895507813 121.58349609375 127.2081298828125 120.48162841796876 133.81939697265625 120.48162841796876 138.77786254882813 120.48162841796876 141.53256225585938 120.48162841796876 143.736328125 120.48162841796876 143.736328125 121.58349609375 140.4306640625 125.44007873535156 134.370361328125 133.15322875976563 110.1290283203125 167.3114776611328 99.1102294921875 191.55279541015625 99.1102294921875 197.6131591796875 102.41586303710938 202.57159423828125 111.78182983398438 205.3262939453125 131.064697265625 205.3262939453125 143.18536376953125 203.67349243164065 156.407958984375 200.91879272460935 165.77392578125 198.16409301757813 172.38519287109375 195.40939331054688 182.30206298828125 186.5943603515625 183.95489501953125 178.88121032714844 181.75115966796875 167.3114776611328 173.487060546875 152.98704528808594 173.487060546875 152.98704528808594 " />
        </svg>