<?xml version="1.0" standalone="no"?>
    <svg width="256" height="256" xmlns="http://www.w3.org/2000/svg" version="1.1">
    <polyline stroke="black" stroke-width="3" stroke-linecap="round" fill="transparent" stroke-linejoin="round" points="86.49822998046875 87.38406372070313 102.941162109375 81.29409790039063 133.3909912109375 73.37713623046875 157.7508544921875 70.941162109375 178.45672607421875 69.11416625976563 195.50860595703125 67.89617919921875 205.2525634765625 67.28717041015625 211.342529296875 64.8511962890625 214.9964599609375 61.80621337890625 214.9964599609375 61.80621337890625 " />
        <polyline stroke="black" stroke-width="3" stroke-linecap="round" fill="transparent" stroke-linejoin="round" points="168.7127685546875 43.53631591796875 158.96881103515625 53.889251708984375 144.9619140625 71.55015563964844 123.03802490234376 103.2179718017578 106.59515380859376 131.2318115234375 93.19720458984376 156.20065307617188 84.062255859375 172.64356994628906 78.581298828125 181.77850341796875 78.581298828125 184.21450805664065 78.581298828125 184.21450805664065 " />
        <polyline stroke="black" stroke-width="3" stroke-linecap="round" fill="transparent" stroke-linejoin="round" points="139.48095703125 109.30793762207033 155.923828125 108.6989288330078 181.501708984375 112.9619140625 200.98956298828125 120.26986694335938 217.4324951171875 130.01380920410156 230.221435546875 139.75775146484375 230.221435546875 139.75775146484375 " />
        <polyline stroke="black" stroke-width="3" stroke-linecap="round" fill="transparent" stroke-linejoin="round" points="115.7301025390625 170.8165740966797 113.29409790039063 179.342529296875 110.85809326171876 187.25949096679688 106.59515380859376 197.6124267578125 106.59515380859376 197.6124267578125 109.64013671875 192.74044799804688 115.7301025390625 181.77850341796875 125.47402954101563 167.77159118652344 138.262939453125 154.37367248535156 154.70587158203125 142.19374084472656 169.9307861328125 134.2767791748047 186.982666015625 129.40481567382813 209.5155029296875 133.66778564453125 215.60546875 137.32176208496094 221.08642578125 147.06570434570313 219.86846923828125 153.15567016601563 214.38751220703125 160.46363830566406 200.98956298828125 172.64356994628906 178.45672607421875 185.4324951171875 153.48785400390625 196.3944091796875 127.91000366210938 206.13836669921875 127.91000366210938 206.13836669921875 " />
        <polyline stroke="black" stroke-width="3" stroke-linecap="round" fill="transparent" stroke-linejoin="round" points="84.6712646484375 207.3563537597656 98.67816162109376 206.13836669921875 116.94805908203124 204.31137084960935 143.743896484375 201.26638793945313 173.584716796875 195.17642211914065 202.81658935546875 189.69546508789065 222.304443359375 186.04147338867188 237.52935791015625 184.823486328125 246.0552978515625 184.823486328125 251.5362548828125 184.823486328125 253.9722900390625 187.25949096679688 251.5362548828125 190.30447387695313 251.5362548828125 190.30447387695313 " />
        </svg>