<?xml version="1.0" standalone="no"?>
    <svg width="256" height="256" xmlns="http://www.w3.org/2000/svg" version="1.1">
    <polyline stroke="black" stroke-width="3" stroke-linecap="round" fill="transparent" stroke-linejoin="round" points="67.41537475585938 98.13681030273438 76.04550170898438 95.67105102539063 85.90850830078125 92.79434204101563 95.36053466796876 89.91764831542969 117.55224609375 84.98612976074219 129.05908203125 82.5203857421875 151.661865234375 78.41079711914063 170.9769287109375 75.53408813476563 189.05908203125 72.65737915039063 194.40155029296875 71.42449951171875 196.04534912109375 70.60258483886719 196.456298828125 70.19161987304688 196.456298828125 70.19161987304688 " />
        <polyline stroke="black" stroke-width="3" stroke-linecap="round" fill="transparent" stroke-linejoin="round" points="130.2919921875 78.82174682617188 110.56600952148438 106.76693725585938 94.53863525390624 130.60252380371094 74.81259155273438 157.3148193359375 67.41537475585938 167.99974060058594 62.0728759765625 175.80795288085938 62.0728759765625 175.80795288085938 " />
        <polyline stroke="black" stroke-width="3" stroke-linecap="round" fill="transparent" stroke-linejoin="round" points="138.922119140625 115.39706420898438 147.96322631835938 116.21897888183594 158.64813232421875 117.45184326171876 190.29193115234375 121.97239685058594 207.963134765625 125.2600555419922 221.935791015625 129.36965942382813 226.04534912109375 131.0134735107422 226.04534912109375 131.0134735107422 " />
        <polyline stroke="black" stroke-width="3" stroke-linecap="round" fill="transparent" stroke-linejoin="round" points="99.88107299804688 171.6983642578125 100.2919921875 177.0408172607422 101.11395263671876 182.38328552246097 102.75778198242188 191.42437744140625 104.401611328125 197.99969482421875 104.81259155273438 199.6435546875 105.2235107421875 200.4654541015625 105.2235107421875 200.4654541015625 " />
        <polyline stroke="black" stroke-width="3" stroke-linecap="round" fill="transparent" stroke-linejoin="round" points="131.935791015625 154.0271453857422 138.10018920898438 151.1504364013672 151.2508544921875 145.3970184326172 164.8125 140.0545654296875 171.3878173828125 137.58880615234375 182.4837646484375 135.12307739257813 189.8809814453125 133.8901824951172 192.3466796875 133.8901824951172 196.456298828125 134.3011474609375 196.8673095703125 135.94497680664063 191.1138916015625 145.8079833984375 177.1412353515625 160.60247802734375 168.5111083984375 168.4106903076172 168.5111083984375 168.4106903076172 " />
        <polyline stroke="black" stroke-width="3" stroke-linecap="round" fill="transparent" stroke-linejoin="round" points="71.52490234375 209.91751098632813 89.19613647460938 203.75311279296875 101.11395263671876 199.6435546875 128.2371826171875 191.42437744140625 168.1002197265625 183.2052001953125 188.6480712890625 181.15042114257813 204.2645263671875 179.50657653808594 214.53851318359375 178.68466186523438 219.8809814453125 178.27371215820313 220.29193115234375 178.27371215820313 220.29193115234375 178.27371215820313 " />
        </svg>