<?xml version="1.0" standalone="no"?>
    <svg width="256" height="256" xmlns="http://www.w3.org/2000/svg" version="1.1">
    <polyline stroke="black" stroke-width="3" stroke-linecap="round" fill="transparent" stroke-linejoin="round" points="82.06671142578125 69.60000610351563 93.80010986328124 65.33334350585938 107.666748046875 60 140.7333984375 49.333343505859375 142.86669921875 49.333343505859375 145 48.26667022705078 146.0667724609375 48.26667022705078 146.0667724609375 48.26667022705078 " />
        <polyline stroke="black" stroke-width="3" stroke-linecap="round" fill="transparent" stroke-linejoin="round" points="91.666748046875 82.40000915527344 82.06671142578125 111.20002746582033 67.1334228515625 144.26669311523438 63.93341064453125 151.73338317871094 55.4000244140625 163.4666748046875 54.3333740234375 163.4666748046875 54.3333740234375 163.4666748046875 " />
        <polyline stroke="black" stroke-width="3" stroke-linecap="round" fill="transparent" stroke-linejoin="round" points="141.8001708984375 92.00001525878906 172.7333984375 100.53335571289063 203.666748046875 105.86669921875 210.0667724609375 108.00001525878906 212.2000732421875 111.20002746582033 212.2000732421875 111.20002746582033 " />
        <polyline stroke="black" stroke-width="3" stroke-linecap="round" fill="transparent" stroke-linejoin="round" points="102.3333740234375 178.40003967285156 102.3333740234375 179.4666748046875 102.3333740234375 178.40003967285156 102.3333740234375 166.6666717529297 102.3333740234375 161.33334350585938 102.3333740234375 156.00001525878906 102.3333740234375 148.53334045410156 108.7333984375 138.93336486816406 118.3333740234375 134.6666717529297 130.0667724609375 132.53334045410156 141.8001708984375 132.53334045410156 149.2667236328125 133.6000213623047 153.533447265625 137.86668395996094 153.533447265625 142.1333465576172 151.4000244140625 148.53334045410156 149.2667236328125 151.73338317871094 138.60009765625 165.6000213623047 134.3333740234375 169.86668395996094 134.3333740234375 169.86668395996094 " />
        <polyline stroke="black" stroke-width="3" stroke-linecap="round" fill="transparent" stroke-linejoin="round" points="87.4000244140625 193.33334350585935 153.533447265625 168.80001831054688 188.7333984375 161.33334350585938 231.4000244140625 157.06671142578125 247.4000244140625 157.06671142578125 251.666748046875 158.1333465576172 255.933349609375 160.26669311523438 255.933349609375 160.26669311523438 " />
        </svg>