<?xml version="1.0" standalone="no"?>
    <svg width="256" height="256" xmlns="http://www.w3.org/2000/svg" version="1.1">
    <polyline stroke="black" stroke-width="3" stroke-linecap="round" fill="transparent" stroke-linejoin="round" points="69 79 74 79 81 79 96 77 113 74 128 72 139 69 149 67 153 67 153 67 " />
        <polyline stroke="black" stroke-width="3" stroke-linecap="round" fill="transparent" stroke-linejoin="round" points="129 45 125 52 120 59 100 91 92 107 83 120 70 138 59 151 56 156 56 157 56 157 " />
        <polyline stroke="black" stroke-width="3" stroke-linecap="round" fill="transparent" stroke-linejoin="round" points="118 109 131 119 149 130 164 139 179 145 190 149 194 150 194 150 " />
        <polyline stroke="black" stroke-width="3" stroke-linecap="round" fill="transparent" stroke-linejoin="round" points="94 147 94 153 94 159 94 172 95 183 96 194 98 201 98 202 98 202 " />
        <polyline stroke="black" stroke-width="3" stroke-linecap="round" fill="transparent" stroke-linejoin="round" points="105 142 111 142 128 140 144 140 154 140 161 144 164 149 164 155 164 163 164 172 163 182 163 190 163 190 " />
        <polyline stroke="black" stroke-width="3" stroke-linecap="round" fill="transparent" stroke-linejoin="round" points="72 204 80 204 100 203 127 202 141 201 174 199 188 199 197 197 201 197 203 196 203 196 " />
        </svg>