<?xml version="1.0" standalone="no"?>
    <svg width="256" height="256" xmlns="http://www.w3.org/2000/svg" version="1.1">
    <polyline stroke="black" stroke-width="3" stroke-linecap="round" fill="transparent" stroke-linejoin="round" points="72.13299560546875 84.9591064453125 80.39401245117188 80.82859802246094 89.48114013671875 77.11114501953125 110.13363647460938 69.67623901367188 131.61224365234375 63.06744384765625 149.37338256835938 57.697784423828125 162.59100341796875 53.98033142089844 170.02587890625 51.91508483886719 172.0911865234375 52.328125 172.0911865234375 52.328125 " />
        <polyline stroke="black" stroke-width="3" stroke-linecap="round" fill="transparent" stroke-linejoin="round" points="65.937255859375 157.65594482421875 76.26351928710938 151.87322998046875 100.63348388671876 140.72088623046875 125.41650390625 129.9815673828125 148.13424682617188 122.13363647460938 172.917236328125 114.69871520996094 177.04779052734375 113.45956420898438 180.7652587890625 112.22042846679688 180.7652587890625 112.22042846679688 " />
        <polyline stroke="black" stroke-width="3" stroke-linecap="round" fill="transparent" stroke-linejoin="round" points="119.6337890625 95.69842529296876 108.89447021484376 136.17733764648438 103.52484130859376 157.65594482421875 91.95941162109376 198.54791259765625 87.82891845703125 211.35247802734375 86.17672729492188 214.24383544921875 86.17672729492188 213.83078002929688 86.17672729492188 213.83078002929688 " />
        <polyline stroke="black" stroke-width="3" stroke-linecap="round" fill="transparent" stroke-linejoin="round" points="147.30816650390625 134.93817138671875 147.30816650390625 152.2863006591797 146.89511108398438 166.3300018310547 146.48202514648438 190.69998168945313 146.48202514648438 200.20013427734375 145.65594482421875 218.78738403320313 145.65594482421875 218.78738403320313 " />
        </svg>