<?xml version="1.0" standalone="no"?>
    <svg width="256" height="256" xmlns="http://www.w3.org/2000/svg" version="1.1">
    <polyline stroke="black" stroke-width="3" stroke-linecap="round" fill="transparent" stroke-linejoin="round" points="94.41909790039063 80.35578918457031 107.6856689453125 76.73594665527344 134.62075805664063 68.28965759277344 143.46514892578125 66.27862548828125 148.69134521484375 65.47421264648438 148.69134521484375 65.47421264648438 " />
        <polyline stroke="black" stroke-width="3" stroke-linecap="round" fill="transparent" stroke-linejoin="round" points="63.8658447265625 136.26226806640625 94.82110595703124 125.0005340576172 111.705810546875 119.36965942382813 128.59051513671875 114.14100646972656 154.319580078125 106.9013214111328 161.15386962890625 105.69468688964844 166.38006591796875 105.69468688964844 165.5760498046875 106.9013214111328 165.5760498046875 106.9013214111328 " />
        <polyline stroke="black" stroke-width="3" stroke-linecap="round" fill="transparent" stroke-linejoin="round" points="104.0675048828125 98.4550323486328 101.25338745117188 108.912353515625 96.02716064453124 134.25125122070313 91.60498046875 148.32843017578125 78.740478515625 176.48275756835938 78.740478515625 176.48275756835938 " />
        <polyline stroke="black" stroke-width="3" stroke-linecap="round" fill="transparent" stroke-linejoin="round" points="125.3743896484375 101.6726531982422 124.57037353515624 108.10794067382813 124.97235107421876 125.0005340576172 125.3743896484375 142.69757080078125 125.77639770507813 152.35049438476563 125.77639770507813 162.4055938720703 126.5804443359375 171.25411987304688 126.5804443359375 171.25411987304688 " />
        </svg>