<?xml version="1.0" standalone="no"?>
    <svg width="256" height="256" xmlns="http://www.w3.org/2000/svg" version="1.1">
    <polyline stroke="black" stroke-width="3" stroke-linecap="round" fill="transparent" stroke-linejoin="round" points="94.64501953125 95.6458740234375 115.57080078125 88.38589477539063 128.38250732421875 84.54238891601563 140.76715087890625 81.12593078613281 164.68231201171875 75.14714050292969 192.013916015625 68.74128723144531 202.69036865234375 66.178955078125 205.6798095703125 65.3248291015625 208.24212646484375 64.47071838378906 207.8150634765625 64.89776611328125 202.69036865234375 68.31422424316406 202.69036865234375 68.31422424316406 " />
        <polyline stroke="black" stroke-width="3" stroke-linecap="round" fill="transparent" stroke-linejoin="round" points="64.75106811523438 162.6937713623047 72.8651123046875 160.5584716796875 82.2603759765625 157.569091796875 93.79095458984376 153.72557067871094 120.26840209960938 146.03855895996094 145.03768920898438 140.48684692382813 166.39056396484375 138.35153198242188 184.326904296875 137.0703582763672 197.565673828125 135.36215209960938 201.8363037109375 134.0809783935547 206.53387451171875 130.66452026367188 206.53387451171875 130.66452026367188 " />
        <polyline stroke="black" stroke-width="3" stroke-linecap="round" fill="transparent" stroke-linejoin="round" points="115.14373779296876 122.55044555664063 107.8837890625 149.88206481933594 98.91561889648438 181.4842529296875 95.49911499023438 195.15008544921875 93.79095458984376 202.83709716796875 93.36386108398438 205.82650756835935 93.36386108398438 205.82650756835935 " />
        <polyline stroke="black" stroke-width="3" stroke-linecap="round" fill="transparent" stroke-linejoin="round" points="169.3800048828125 148.173828125 171.088134765625 175.0784149169922 173.2235107421875 207.9617919921875 173.6505126953125 217.3570556640625 173.6505126953125 217.3570556640625 " />
        </svg>