<?xml version="1.0" standalone="no"?>
    <svg width="256" height="256" xmlns="http://www.w3.org/2000/svg" version="1.1">
    <polyline stroke="black" stroke-width="3" stroke-linecap="round" fill="transparent" stroke-linejoin="round" points="87.99481201171875 99.84019470214844 120.43682861328124 93.10694885253906 158.38787841796875 82.08891296386719 173.690673828125 77.19200134277344 182.8724365234375 73.51931762695313 187.769287109375 71.6829833984375 187.769287109375 71.6829833984375 187.769287109375 71.6829833984375 " />
        <polyline stroke="black" stroke-width="3" stroke-linecap="round" fill="transparent" stroke-linejoin="round" points="73.30410766601563 153.09405517578125 89.8311767578125 151.8698272705078 122.88531494140624 149.42137145996094 149.81829833984375 145.74868774414063 174.30279541015625 140.85179138183594 192.666259765625 134.73065185546875 205.5206298828125 128.60952758789063 211.0296630859375 123.10049438476563 211.0296630859375 123.10049438476563 " />
        <polyline stroke="black" stroke-width="3" stroke-linecap="round" fill="transparent" stroke-linejoin="round" points="99.625 126.16107177734376 96.56442260742188 143.3002471923828 92.27963256835938 165.33631896972656 88.60693359375 184.9239501953125 84.3221435546875 201.45101928710935 79.42523193359375 216.75384521484375 79.42523193359375 216.75384521484375 " />
        <polyline stroke="black" stroke-width="3" stroke-linecap="round" fill="transparent" stroke-linejoin="round" points="138.80023193359375 130.44586181640625 138.80023193359375 147.5850372314453 140.6365966796875 173.29379272460938 142.472900390625 192.26931762695313 141.24868774414063 211.85693359375 141.24868774414063 211.85693359375 " />
        </svg>