<?xml version="1.0" standalone="no"?>
    <svg width="256" height="256" xmlns="http://www.w3.org/2000/svg" version="1.1">
    <polyline stroke="black" stroke-width="3" stroke-linecap="round" fill="transparent" stroke-linejoin="round" points="73 86 88 84 109 80 132 76 153 73 172 71 184 70 191 70 191 70 " />
        <polyline stroke="black" stroke-width="3" stroke-linecap="round" fill="transparent" stroke-linejoin="round" points="61 154 66 154 73 154 90 150 112 144 135 139 157 133 173 129 183 127 186 126 186 125 186 125 " />
        <polyline stroke="black" stroke-width="3" stroke-linecap="round" fill="transparent" stroke-linejoin="round" points="105 94 105 104 105 127 105 139 103 162 99 184 97 197 96 202 96 202 " />
        <polyline stroke="black" stroke-width="3" stroke-linecap="round" fill="transparent" stroke-linejoin="round" points="150 107 150 119 151 152 156 199 156 199 " />
        </svg>