<?xml version="1.0" standalone="no"?>
    <svg width="256" height="256" xmlns="http://www.w3.org/2000/svg" version="1.1">
    <polyline stroke="black" stroke-width="3" stroke-linecap="round" fill="transparent" stroke-linejoin="round" points="86.41766357421875 118.46890258789063 90.29815673828124 146.27926635742188 92.561767578125 162.77151489257813 93.85528564453124 167.94552612304688 96.44232177734376 172.14944458007813 98.70599365234376 171.8260498046875 100.646240234375 164.06500244140625 100.646240234375 164.06500244140625 " />
        <polyline stroke="black" stroke-width="3" stroke-linecap="round" fill="transparent" stroke-linejoin="round" points="103.23321533203124 101.0065460205078 119.07870483398438 88.39486694335938 134.92416381835938 81.60394287109375 144.94879150390625 79.987060546875 154.00335693359375 82.25070190429688 161.76446533203125 90.01174926757813 167.9085693359375 110.70785522460938 167.9085693359375 130.75721740722656 166.29168701171875 148.5429229736328 164.9981689453125 162.124755859375 164.6748046875 167.62213134765625 164.6748046875 167.62213134765625 " />
        <polyline stroke="black" stroke-width="3" stroke-linecap="round" fill="transparent" stroke-linejoin="round" points="47.93585205078125 161.47799682617188 77.03970336914063 147.5727996826172 109.05401611328124 134.31436157226563 140.74493408203125 123.3195343017578 162.0877685546875 117.17538452148438 176.963134765625 113.61824035644533 186.6644287109375 111.35459899902344 189.89813232421875 110.3844757080078 189.89813232421875 110.3844757080078 " />
        <polyline stroke="black" stroke-width="3" stroke-linecap="round" fill="transparent" stroke-linejoin="round" points="101.6163330078125 168.59228515625 127.80984497070313 160.1844940185547 152.70989990234375 153.39356994628906 166.29168701171875 149.51303100585938 166.29168701171875 149.51303100585938 " />
        <polyline stroke="black" stroke-width="3" stroke-linecap="round" fill="transparent" stroke-linejoin="round" points="127.16311645507813 75.45979309082031 131.36703491210938 119.43902587890624 136.54104614257813 177.0000762939453 142.0384521484375 221.94943237304688 142.0384521484375 221.94943237304688 " />
        </svg>