<?xml version="1.0" standalone="no"?>
    <svg width="256" height="256" xmlns="http://www.w3.org/2000/svg" version="1.1">
    <polyline stroke="black" stroke-width="3" stroke-linecap="round" fill="transparent" stroke-linejoin="round" points="74.84930419921875 125.05393981933594 79.42474365234375 149.8924102783203 80.73211669921875 154.4678955078125 81.38568115234375 160.35069274902344 82.6929931640625 160.35069274902344 84.00030517578125 153.8142547607422 84.00030517578125 153.8142547607422 " />
        <polyline stroke="black" stroke-width="3" stroke-linecap="round" fill="transparent" stroke-linejoin="round" points="95.765869140625 102.17643737792967 117.98974609375 89.75721740722656 122.56524658203124 87.14262390136719 131.0626220703125 83.87442016601563 137.59906005859375 82.56712341308594 143.48187255859375 85.18168640136719 146.75006103515625 93.0254364013672 147.4036865234375 106.75193786621094 144.78912353515625 125.05393981933594 139.55999755859375 144.66323852539063 133.02362060546875 159.6970672607422 129.75537109375 164.2725372314453 129.75537109375 164.2725372314453 " />
        <polyline stroke="black" stroke-width="3" stroke-linecap="round" fill="transparent" stroke-linejoin="round" points="53.279052734375 136.16587829589844 75.5029296875 130.93673706054688 78.77117919921875 130.93673706054688 95.765869140625 130.28311157226563 119.95068359375 129.6294403076172 139.55999755859375 128.32215881347656 157.86199951171875 126.36123657226563 172.24212646484375 124.40029907226563 179.4322509765625 123.09300231933594 180.08587646484375 124.40029907226563 178.778564453125 125.70758056640624 178.778564453125 125.70758056640624 " />
        <polyline stroke="black" stroke-width="3" stroke-linecap="round" fill="transparent" stroke-linejoin="round" points="113.41424560546876 155.77517700195313 136.94537353515625 147.27781677246094 140.213623046875 145.31689453125 150.671875 135.51223754882813 150.671875 135.51223754882813 " />
        <polyline stroke="black" stroke-width="3" stroke-linecap="round" fill="transparent" stroke-linejoin="round" points="106.87786865234376 90.4108428955078 110.7996826171875 138.7804412841797 112.7606201171875 152.5069580078125 116.6824951171875 177.3454132080078 119.29705810546876 196.30108642578125 121.25799560546876 210.027587890625 125.1798095703125 218.52496337890625 127.1407470703125 219.83224487304688 127.1407470703125 219.83224487304688 " />
        </svg>