<?xml version="1.0" standalone="no"?>
    <svg width="256" height="256" xmlns="http://www.w3.org/2000/svg" version="1.1">
    <polyline stroke="black" stroke-width="3" stroke-linecap="round" fill="transparent" stroke-linejoin="round" points="74.9722900390625 87.71211242675781 75.79345703125 96.7446746826172 78.66744995117188 116.45208740234376 81.54144287109375 134.9277801513672 83.59429931640625 148.0660400390625 84.41546630859375 157.50918579101563 84.41546630859375 160.7937469482422 83.59429931640625 163.66775512695313 83.59429931640625 163.66775512695313 " />
        <polyline stroke="black" stroke-width="3" stroke-linecap="round" fill="transparent" stroke-linejoin="round" points="98.37484741210938 88.94383239746094 109.870849609375 82.37469482421875 116.02938842773438 79.50070190429688 129.98883056640625 74.98440551757813 143.1270751953125 73.34213256835938 155.03363037109375 73.75270080566406 164.06622314453125 75.80555725097656 170.22479248046875 80.32183837890625 175.9727783203125 89.76498413085938 178.025634765625 97.15525817871094 179.25732421875 124.25296020507813 174.7410888671875 142.72862243652344 170.6353759765625 152.1717529296875 170.6353759765625 152.1717529296875 " />
        <polyline stroke="black" stroke-width="3" stroke-linecap="round" fill="transparent" stroke-linejoin="round" points="59.78118896484375 121.78952026367188 70.86663818359375 120.147216796875 107.8179931640625 116.8626708984375 135.73681640625 116.45208740234376 163.24505615234375 117.68380737304688 187.0582275390625 118.50494384765624 203.8916015625 119.32609558105467 213.74530029296875 119.73666381835938 217.85101318359375 120.147216796875 217.85101318359375 120.147216796875 " />
        <polyline stroke="black" stroke-width="3" stroke-linecap="round" fill="transparent" stroke-linejoin="round" points="85.236572265625 177.62716674804688 98.37484741210938 174.34259033203125 113.1553955078125 171.87918090820313 128.34652709960938 170.23687744140625 141.48480224609375 167.77346801757813 152.57025146484375 162.8466033935547 152.57025146484375 162.8466033935547 " />
        <polyline stroke="black" stroke-width="3" stroke-linecap="round" fill="transparent" stroke-linejoin="round" points="123.419677734375 69.23641967773438 122.59857177734376 79.50070190429688 120.95623779296876 111.93582153320313 121.77740478515624 133.28549194335938 122.18798828125 153.40347290039063 122.59857177734376 171.46859741210938 122.59857177734376 187.89144897460935 121.3668212890625 205.5459899902344 120.95623779296876 221.55825805664065 120.95623779296876 221.55825805664065 " />
        </svg>