<?xml version="1.0" standalone="no"?>
    <svg width="256" height="256" xmlns="http://www.w3.org/2000/svg" version="1.1">
    <polyline stroke="black" stroke-width="3" stroke-linecap="round" fill="transparent" stroke-linejoin="round" points="28.293701171875 99.78619384765624 54.774993896484375 91.2508544921875 62.74224853515625 88.8692626953125 81.86129760742188 83.52346801757813 91.37472534179688 81.6451416015625 110.81500244140624 78.42124938964844 129.26718139648438 74.81312561035156 135.29949951171875 73.66409301757813 139.32235717773438 72.576416015625 158.9742431640625 70.33940124511719 174.48675537109375 67.70211791992188 176.707763671875 66.52947998046875 179.82049560546875 65.11251831054688 180.786376953125 64.48945617675781 184.2310791015625 63.4080810546875 186.6849365234375 63.00311279296875 198.4991455078125 62.079864501953125 207.17523193359375 61.22425842285156 207.325927734375 61.197174072265625 207.38568115234375 61.18644714355469 207.3944091796875 61.18487548828125 207.39935302734375 61.183990478515625 " />
        <polyline stroke="black" stroke-width="3" stroke-linecap="round" fill="transparent" stroke-linejoin="round" points="121.68368530273438 76.65289306640625 126.81805419921876 99.951416015625 127.915283203125 111.69247436523438 129.18319702148438 134.79385375976563 129.086181640625 145.936767578125 127.22540283203124 166.12045288085938 125.6591796875 184.73748779296875 125.84423828125 190.8734436035156 126.17138671875 202.18438720703125 126.28045654296876 204.6224670410156 126.36614990234376 205.99261474609375 126.37103271484376 206.0453186035156 126.37274169921876 206.0635986328125 " />
        <polyline stroke="black" stroke-width="3" stroke-linecap="round" fill="transparent" stroke-linejoin="round" points="73.27511596679688 122.49111938476563 72.83673095703125 143.45462036132813 73.38140869140625 163.6700897216797 71.5262451171875 190.36135864257813 69.7127685546875 201.3155212402344 66.30853271484375 214.35260009765625 64.681396484375 217.60867309570313 63.1854248046875 217.49658203125 63.0802001953125 217.49563598632813 63.03424072265625 217.4952392578125 63.023193359375 217.49517822265625 63.020751953125 217.4951171875 66.28826904296875 217.71624755859375 72.47174072265625 217.7001953125 91.72735595703124 217.08172607421875 102.92221069335938 216.88189697265625 125.53302001953124 215.0244140625 132.07342529296875 213.82937622070313 140.30078125 210.452392578125 142.80441284179688 208.43438720703125 154.5638427734375 207.18362426757813 166.42559814453125 205.77444458007813 168.24554443359375 205.586669921875 169.853759765625 205.16506958007813 170.64617919921875 204.29757690429688 165.085693359375 201.53927612304688 160.8424072265625 200.51666259765625 159.0506591796875 200.08489990234375 " />
        <polyline stroke="black" stroke-width="3" stroke-linecap="round" fill="transparent" stroke-linejoin="round" points="149.52935791015625 106.21209716796876 163.14447021484375 127.6721649169922 168.42938232421875 142.00779724121094 172.3048095703125 157.48626708984375 175.9091796875 186.82244873046875 176.2501220703125 197.6776123046875 175.1614990234375 210.98712158203125 174.717041015625 215.78121948242188 174.0487060546875 217.27609252929688 174.028564453125 217.2950439453125 174.02484130859375 217.29852294921875 174.0235595703125 217.29974365234375 " />
        </svg>