<?xml version="1.0" standalone="no"?>
    <svg width="256" height="256" xmlns="http://www.w3.org/2000/svg" version="1.1">
    <polyline stroke="black" stroke-width="3" stroke-linecap="round" fill="transparent" stroke-linejoin="round" points="97.21923828125 42.22362518310547 85.04891967773438 71.18060302734375 80.012939453125 83.77059936523438 68.26229858398438 111.88827514648438 61.96728515625 127.83560180664063 52.734619140625 154.69424438476563 45.60028076171875 171.90057373046875 40.564300537109375 185.32989501953125 38.8856201171875 189.94622802734375 37.62664794921875 192.8839111328125 37.62664794921875 192.8839111328125 " />
        <polyline stroke="black" stroke-width="3" stroke-linecap="round" fill="transparent" stroke-linejoin="round" points="69.10162353515625 139.58624267578125 87.14727783203125 146.3009033203125 92.18328857421876 148.39923095703125 111.90756225585938 156.37290954589844 117.78292846679688 156.79257202148438 117.78292846679688 156.79257202148438 " />
        <polyline stroke="black" stroke-width="3" stroke-linecap="round" fill="transparent" stroke-linejoin="round" points="161.42822265625 59.010284423828125 150.51690673828125 85.86894226074219 145.06124877929688 99.71794128417967 139.60556030273438 113.98660278320313 123.65826416015624 154.69424438476563 112.32723999023438 181.5529022216797 107.7109375 193.7232360839844 104.77328491210938 200.8575439453125 104.77328491210938 200.8575439453125 " />
        <polyline stroke="black" stroke-width="3" stroke-linecap="round" fill="transparent" stroke-linejoin="round" points="140.02523803710938 147.55992126464844 154.29388427734375 153.01556396484375 167.3035888671875 160.98924255371094 179.8935546875 171.90057373046875 192.06390380859375 187.847900390625 192.06390380859375 187.847900390625 " />
        </svg>