<?xml version="1.0" standalone="no"?>
    <svg width="256" height="256" xmlns="http://www.w3.org/2000/svg" version="1.1">
    <polyline stroke="black" stroke-width="3" stroke-linecap="round" fill="transparent" stroke-linejoin="round" points="94.335205078125 54.18940734863281 95.49005126953124 71.51229858398438 91.44805908203124 100.3837890625 82.20916748046875 129.25527954101563 73.5477294921875 151.77503967285156 66.0411376953125 166.21078491210938 59.68939208984375 175.4496612548828 55.64739990234375 180.069091796875 54.4925537109375 180.069091796875 54.4925537109375 180.069091796875 " />
        <polyline stroke="black" stroke-width="3" stroke-linecap="round" fill="transparent" stroke-linejoin="round" points="68.92828369140625 143.69102478027344 83.364013671875 144.84588623046875 93.75775146484376 147.7330322265625 105.8837890625 151.77503967285156 119.74212646484376 155.2396240234375 134.1778564453125 154.0847625732422 134.1778564453125 154.0847625732422 " />
        <polyline stroke="black" stroke-width="3" stroke-linecap="round" fill="transparent" stroke-linejoin="round" points="172.2882080078125 63.42828369140625 168.2462158203125 76.70916748046875 164.2042236328125 90.56748962402344 157.85247802734375 109.62266540527344 150.92330932617188 128.1004180908203 144.57159423828125 144.84588623046875 138.79730224609375 158.12677001953125 135.33270263671875 166.21078491210938 135.33270263671875 171.40765380859375 135.33270263671875 171.40765380859375 " />
        <polyline stroke="black" stroke-width="3" stroke-linecap="round" fill="transparent" stroke-linejoin="round" points="144.57159423828125 151.19761657714844 157.85247802734375 152.35247802734375 167.66876220703125 156.97190856933594 179.7947998046875 164.47850036621094 192.498291015625 174.8722381591797 204.624267578125 189.3079833984375 212.70831298828125 205.47601318359375 212.70831298828125 205.47601318359375 " />
        </svg>