<?xml version="1.0" standalone="no"?>
    <svg width="256" height="256" xmlns="http://www.w3.org/2000/svg" version="1.1">
    <polyline stroke="black" stroke-width="3" stroke-linecap="round" fill="transparent" stroke-linejoin="round" points="82.44683837890625 53.52091217041016 76.27645874023438 81.28756713867188 64.964111328125 116.2529754638672 57.765380859375 139.391845703125 50.052398681640625 157.9029541015625 46.453033447265625 169.2152862548828 44.396240234375 176.41404724121094 42.8536376953125 180.013427734375 42.8536376953125 180.013427734375 " />
        <polyline stroke="black" stroke-width="3" stroke-linecap="round" fill="transparent" stroke-linejoin="round" points="69.5919189453125 126.02272033691406 77.30487060546875 133.73568725585938 83.98944091796875 141.96282958984375 91.702392578125 151.7325897216797 101.47210693359376 160.47393798828125 110.7276611328125 164.58750915527344 120.4974365234375 163.044921875 120.4974365234375 163.044921875 " />
        <polyline stroke="black" stroke-width="3" stroke-linecap="round" fill="transparent" stroke-linejoin="round" points="158.0338134765625 44.779563903808594 150.32086181640625 68.43263244628906 137.4659423828125 103.91224670410156 128.21038818359375 130.1363067626953 121.01162719726563 152.2467803955078 116.38385009765624 165.61590576171875 114.32705688476563 171.27207946777344 114.32705688476563 171.27207946777344 " />
        <polyline stroke="black" stroke-width="3" stroke-linecap="round" fill="transparent" stroke-linejoin="round" points="146.207275390625 130.65049743652344 153.92022705078125 135.2782745361328 163.69000244140625 141.44863891601563 173.97393798828125 149.67579650878906 184.7720947265625 159.44554138183594 197.11279296875 175.38565063476563 197.11279296875 175.38565063476563 " />
        </svg>