<?xml version="1.0" standalone="no"?>
    <svg width="256" height="256" xmlns="http://www.w3.org/2000/svg" version="1.1">
    <polyline stroke="black" stroke-width="3" stroke-linecap="round" fill="transparent" stroke-linejoin="round" points="53.69134521484375 133.69903564453125 68.97421264648438 127.91635131835938 74.34384155273438 125.85107421875 84.257080078125 121.30752563476563 88.80062866210938 119.24229431152344 97.47467041015624 114.69871520996094 104.08346557617188 110.98126220703124 109.0400390625 108.08993530273438 112.344482421875 105.6116180419922 114.82275390625 103.54637145996094 114.82275390625 103.54637145996094 " />
        <polyline stroke="black" stroke-width="3" stroke-linecap="round" fill="transparent" stroke-linejoin="round" points="75.99603271484375 82.0677490234375 73.51776123046875 92.39401245117188 71.86557006835938 103.13333129882813 71.0394287109375 109.32908630371094 69.80029296875 125.02496337890624 69.38726806640625 138.24258422851563 69.80029296875 149.8079833984375 70.62640380859375 159.3081512451172 71.45248413085938 165.50390625 73.10470581054688 168.39524841308594 75.169921875 170.04745483398438 78.88739013671875 171.69964599609375 84.67010498046875 172.5257568359375 90.03976440429688 172.11270141601563 94.58331298828124 170.87356567382813 97.8876953125 168.80828857421875 101.19210815429688 165.09085083007813 101.19210815429688 165.09085083007813 " />
        <polyline stroke="black" stroke-width="3" stroke-linecap="round" fill="transparent" stroke-linejoin="round" points="99.95297241210938 82.0677490234375 100.779052734375 93.22012329101563 101.19210815429688 99.0028076171875 102.01824951171876 112.22042846679688 103.25738525390624 133.28598022460938 104.08346557617188 144.43833923339844 105.32260131835938 156.4167938232422 105.73568725585938 160.13424682617188 105.73568725585938 160.13424682617188 " />
        <polyline stroke="black" stroke-width="3" stroke-linecap="round" fill="transparent" stroke-linejoin="round" points="166.45404052734375 36.21916961669922 154.06256103515625 60.589141845703125 144.14935302734375 81.24165344238281 133.82308959960938 101.8941650390625 129.279541015625 110.98126220703124 118.54022216796876 132.04684448242188 118.54022216796876 132.04684448242188 " />
        <polyline stroke="black" stroke-width="3" stroke-linecap="round" fill="transparent" stroke-linejoin="round" points="153.6495361328125 60.17608642578125 166.86712646484375 60.589141845703125 173.4759521484375 61.41523742675781 180.084716796875 62.2413330078125 186.69354248046875 63.06744384765625 197.84588623046875 65.54574584960938 211.88958740234375 68.0240478515625 218.91143798828125 69.67623901367188 223.45501708984375 70.91539001464844 226.7593994140625 72.154541015625 226.7593994140625 72.154541015625 " />
        <polyline stroke="black" stroke-width="3" stroke-linecap="round" fill="transparent" stroke-linejoin="round" points="181.7369384765625 81.65469360351563 183.80218505859375 91.98097229003906 184.6282958984375 97.35061645507813 185.867431640625 103.13333129882813 186.69354248046875 108.916015625 190.4110107421875 127.91635131835938 192.47625732421875 139.4817352294922 193.7154541015625 149.8079833984375 194.12841796875 158.48204040527344 193.7154541015625 165.50390625 192.47625732421875 170.87356567382813 190.82403564453125 174.59100341796875 188.345703125 177.48236083984375 186.28045654296875 178.72149658203125 186.28045654296875 178.72149658203125 " />
        <polyline stroke="black" stroke-width="3" stroke-linecap="round" fill="transparent" stroke-linejoin="round" points="144.97543334960938 103.95941162109376 151.997314453125 111.39431762695313 154.888671875 114.2856903076172 164.8018798828125 124.61192321777344 180.084716796875 137.41648864746094 180.084716796875 137.41648864746094 " />
        <polyline stroke="black" stroke-width="3" stroke-linecap="round" fill="transparent" stroke-linejoin="round" points="217.67230224609375 108.08993530273438 209.41131591796875 124.19889831542967 204.4547119140625 136.59039306640625 204.4547119140625 136.59039306640625 " />
        </svg>