<?xml version="1.0" standalone="no"?>
    <svg width="256" height="256" xmlns="http://www.w3.org/2000/svg" version="1.1">
    <polyline stroke="black" stroke-width="3" stroke-linecap="round" fill="transparent" stroke-linejoin="round" points="32.408966064453125 128.8017120361328 48.70697021484375 125.34161376953124 65.00497436523438 121.88151550292967 73.5703125 118.57261657714844 91.0382080078125 110.11917114257813 100.369140625 105.75595092773438 108.366455078125 101.99685668945313 121.89105224609376 96.61233520507813 128.23114013671875 92.47488403320313 128.05160522460938 91.53326416015624 128.03021240234375 91.42073059082033 " />
        <polyline stroke="black" stroke-width="3" stroke-linecap="round" fill="transparent" stroke-linejoin="round" points="57.63818359375 75.20907592773438 58.8961181640625 92.5694580078125 60.154052734375 109.92984008789063 61.66265869140625 141.55662536621094 62.230804443359375 169.9269256591797 62.037841796875 179.42247009277344 61.7197265625 190.58807373046875 61.652313232421875 193.4879150390625 61.61529541015625 194.33624267578125 62.2542724609375 194.48165893554688 62.3143310546875 194.49530029296875 65.12969970703125 193.37310791015625 68.7750244140625 191.483154296875 84.81201171875 182.36428833007813 98.18502807617188 174.5519256591797 103.93890380859376 171.49838256835938 108.6348876953125 169.6669158935547 113.8251953125 168.51376342773438 114.06439208984376 168.46080017089844 " />
        <polyline stroke="black" stroke-width="3" stroke-linecap="round" fill="transparent" stroke-linejoin="round" points="98.85586547851563 49.5748291015625 101.9671630859375 81.46250915527344 105.07846069335938 113.35018920898438 107.27670288085938 129.09384155273438 112.7587890625 161.61477661132813 115.0794677734375 171.8300018310547 116.06805419921876 177.73446655273438 116.1668701171875 178.32489013671875 " />
        <polyline stroke="black" stroke-width="3" stroke-linecap="round" fill="transparent" stroke-linejoin="round" points="176.841796875 13.77508544921875 158.956787109375 38.53948974609375 141.07177734375 63.30389404296875 134.8751220703125 75.26275634765625 130.858154296875 87.00311279296875 126.74212646484376 108.42813110351563 124.87973022460938 129.49859619140625 124.099853515625 137.17588806152344 124.652587890625 136.18878173828125 " />
        <polyline stroke="black" stroke-width="3" stroke-linecap="round" fill="transparent" stroke-linejoin="round" points="154.3824462890625 44.05311584472656 162.7869873046875 49.90251922607422 171.1915283203125 55.751922607421875 202.45220947265625 72.898681640625 210.415283203125 80.84434509277344 225.41204833984375 101.79460144042967 238.65606689453125 117.83203125 243.42449951171875 122.74765014648438 247.526611328125 123.68247985839844 246.470947265625 121.94256591796876 " />
        <polyline stroke="black" stroke-width="3" stroke-linecap="round" fill="transparent" stroke-linejoin="round" points="172.327880859375 90.10292053222655 175.5108642578125 106.36605834960938 178.69384765625 122.6291961669922 182.16162109375 140.53860473632813 185.84246826171875 157.37249755859375 200.5765380859375 182.75425720214844 207.684814453125 203.66455078125 208.36236572265625 211.05062866210935 207.0853271484375 220.32806396484375 206.20703125 222.68930053710935 192.23486328125 224.43240356445313 186.6795654296875 224.580322265625 180.28240966796875 223.49664306640625 175.35565185546875 220.59783935546875 172.0460205078125 218.0111389160156 167.49090576171875 213.82177734375 148.20394897460938 202.05203247070313 144.14901733398438 199.4237365722656 " />
        <polyline stroke="black" stroke-width="3" stroke-linecap="round" fill="transparent" stroke-linejoin="round" points="142.45053100585938 168.39157104492188 144.81649780273438 168.8173828125 147.18246459960938 169.24319458007813 148.08367919921875 169.412109375 " />
        <polyline stroke="black" stroke-width="3" stroke-linecap="round" fill="transparent" stroke-linejoin="round" points="212.5225830078125 143.32241821289063 211.87457275390625 145.77362060546875 211.2265625 148.22482299804688 " />
        </svg>