<?xml version="1.0" standalone="no"?>
    <svg width="256" height="256" xmlns="http://www.w3.org/2000/svg" version="1.1">
    <polyline stroke="black" stroke-width="3" stroke-linecap="round" fill="transparent" stroke-linejoin="round" points="53.965606689453125 129.03900146484375 63.49407958984375 125.44363403320313 73.02255249023438 121.8482666015625 93.72103881835938 114.91940307617188 100.47897338867188 113.10281372070313 112.20504760742188 110.95939636230467 114.8563232421875 110.80528259277344 116.63916015625 110.49490356445313 116.65170288085938 110.4927215576172 116.65524291992188 110.49211120605467 " />
        <polyline stroke="black" stroke-width="3" stroke-linecap="round" fill="transparent" stroke-linejoin="round" points="73.31854248046875 88.63970947265629 73.41806030273438 102.97918701171876 73.517578125 117.31866455078124 73.9117431640625 133.9211883544922 73.06072998046875 162.57061767578125 71.72576904296875 171.699951171875 70.11029052734375 176.16998291015625 67.99102783203125 180.39572143554688 67.9046630859375 180.51809692382813 67.90411376953125 180.51890563964844 67.90386962890625 180.51922607421875 67.90380859375 180.51925659179688 73.65536499023438 178.1031494140625 80.4561767578125 175.38670349121094 91.5181884765625 171.5680389404297 95.61798095703124 170.2378387451172 98.5648193359375 169.13314819335938 98.32687377929688 169.100341796875 " />
        <polyline stroke="black" stroke-width="3" stroke-linecap="round" fill="transparent" stroke-linejoin="round" points="97.46337890625 79.82795715332031 99.44140625 93.42929077148438 101.41943359375 107.03062438964844 103.9991455078125 140.657958984375 105.588134765625 174.4541473388672 106.11947631835938 188.53656005859375 106.68896484375 198.07485961914065 106.74594116210938 199.0287170410156 " />
        <polyline stroke="black" stroke-width="3" stroke-linecap="round" fill="transparent" stroke-linejoin="round" points="153.39093017578125 57.03703308105469 152.419921875 57.715240478515625 151.44891357421875 58.39344787597656 150.41195678710938 60.557159423828125 146.514892578125 75.51950073242188 143.53756713867188 86.76109313964844 129.26766967773438 111.84300231933594 121.04684448242188 123.8927001953125 112.3856201171875 143.86041259765625 110.45516967773438 150.3011474609375 109.70809936523438 154.6988525390625 109.63339233398438 155.1385955810547 " />
        <polyline stroke="black" stroke-width="3" stroke-linecap="round" fill="transparent" stroke-linejoin="round" points="156.8896484375 65.54226684570313 162.01507568359375 67.85452270507813 167.1405029296875 70.16677856445313 174.76922607421875 74.88914489746094 190.54412841796875 87.230224609375 199.32904052734375 95.18612670898438 213.0380859375 106.875244140625 216.26409912109375 109.2651824951172 220.2991943359375 111.74444580078124 220.3353271484375 111.7666015625 220.338134765625 111.76837158203124 220.3389892578125 111.76890563964844 " />
        <polyline stroke="black" stroke-width="3" stroke-linecap="round" fill="transparent" stroke-linejoin="round" points="167.0916748046875 123.38076782226563 169.40576171875 139.46725463867188 171.7198486328125 155.55374145507813 175.06024169921875 185.92037963867188 176.0433349609375 195.220458984375 178.182861328125 210.0650329589844 178.6796875 213.72055053710935 179.11248779296875 219.02606201171875 178.91436767578125 222.529541015625 177.1650390625 225.14962768554688 176.23992919921875 225.5645751953125 175.302001953125 225.70196533203125 157.2879638671875 224.359619140625 152.019287109375 221.47091674804688 129.39471435546875 204.78390502929688 126.99203491210938 202.48843383789065 " />
        <polyline stroke="black" stroke-width="3" stroke-linecap="round" fill="transparent" stroke-linejoin="round" points="129.329833984375 177.0125274658203 135.01620483398438 177.72613525390625 140.70257568359375 178.4397430419922 160.42620849609375 180.38226318359375 169.37786865234375 181.6031951904297 170.21746826171875 181.71966552734375 " />
        <polyline stroke="black" stroke-width="3" stroke-linecap="round" fill="transparent" stroke-linejoin="round" points="191.839599609375 162.83456420898438 190.76416015625 164.99029541015625 189.688720703125 167.14602661132813 " />
        </svg>