<?xml version="1.0" standalone="no"?>
    <svg width="256" height="256" xmlns="http://www.w3.org/2000/svg" version="1.1">
    <polyline stroke="black" stroke-width="3" stroke-linecap="round" fill="transparent" stroke-linejoin="round" points="58 69 59 86 59 104 59 128 59 155 59 164 60 183 62 192 65 193 65 193 " />
        <polyline stroke="black" stroke-width="3" stroke-linecap="round" fill="transparent" stroke-linejoin="round" points="101 68 102 90 102 112 101 135 100 156 100 176 100 188 100 188 " />
        <polyline stroke="black" stroke-width="3" stroke-linecap="round" fill="transparent" stroke-linejoin="round" points="26 139 37 135 48 131 64 124 84 119 94 117 120 112 133 111 136 111 136 111 " />
        <polyline stroke="black" stroke-width="3" stroke-linecap="round" fill="transparent" stroke-linejoin="round" points="52 198 69 191 80 187 95 182 109 177 109 177 " />
        <polyline stroke="black" stroke-width="3" stroke-linecap="round" fill="transparent" stroke-linejoin="round" points="166 38 156 53 155 60 146 80 136 101 131 112 122 129 120 133 119 134 119 134 " />
        <polyline stroke="black" stroke-width="3" stroke-linecap="round" fill="transparent" stroke-linejoin="round" points="169 48 183 63 186 68 199 85 208 94 213 98 215 101 218 104 218 104 " />
        <polyline stroke="black" stroke-width="3" stroke-linecap="round" fill="transparent" stroke-linejoin="round" points="168 94 165 104 165 127 163 151 161 164 161 196 161 212 161 220 161 222 160 222 157 215 157 215 " />
        <polyline stroke="black" stroke-width="3" stroke-linecap="round" fill="transparent" stroke-linejoin="round" points="116 151 132 154 141 154 148 154 148 154 " />
        <polyline stroke="black" stroke-width="3" stroke-linecap="round" fill="transparent" stroke-linejoin="round" points="208 137 194 154 182 171 167 185 167 185 " />
        </svg>