<?xml version="1.0" standalone="no"?>
    <svg width="256" height="256" xmlns="http://www.w3.org/2000/svg" version="1.1">
    <polyline stroke="black" stroke-width="3" stroke-linecap="round" fill="transparent" stroke-linejoin="round" points="40 124 43 121 46 118 51 114 60 111 69 107 80 104 90 101 99 99 107 97 113 97 117 97 119 97 120 98 120 99 119 100 119 100 " />
        <polyline stroke="black" stroke-width="3" stroke-linecap="round" fill="transparent" stroke-linejoin="round" points="67 116 67 117 67 119 68 123 70 130 71 138 72 147 72 156 73 165 73 174 72 181 71 187 71 191 70 194 70 196 69 197 69 198 68 198 68 199 67 199 67 200 66 201 65 201 65 202 64 202 64 203 64 202 64 200 65 199 66 197 68 195 70 193 73 190 77 187 81 184 86 181 92 178 98 175 103 173 108 171 112 169 114 168 116 168 117 168 117 168 " />
        <polyline stroke="black" stroke-width="3" stroke-linecap="round" fill="transparent" stroke-linejoin="round" points="22 182 21 182 21 181 20 180 20 179 22 178 25 176 29 173 37 169 45 166 56 161 69 156 82 151 97 146 110 141 123 137 133 133 141 131 148 129 153 129 155 130 155 131 155 133 155 133 " />
        <polyline stroke="black" stroke-width="3" stroke-linecap="round" fill="transparent" stroke-linejoin="round" points="161 63 160 63 159 63 158 63 158 64 158 67 158 71 158 78 159 86 160 95 161 107 161 119 162 132 162 147 161 162 160 178 159 193 157 207 156 218 155 228 154 235 154 240 154 244 154 245 154 241 154 241 " />
        <polyline stroke="black" stroke-width="3" stroke-linecap="round" fill="transparent" stroke-linejoin="round" points="160 148 161 148 162 148 163 148 166 149 172 152 179 155 185 158 191 162 197 165 203 169 207 173 210 176 213 177 215 178 215 178 " />
        </svg>