<?xml version="1.0" standalone="no"?>
    <svg width="256" height="256" xmlns="http://www.w3.org/2000/svg" version="1.1">
    <polyline stroke="black" stroke-width="3" stroke-linecap="round" fill="transparent" stroke-linejoin="round" points="49.1356201171875 94.95899963378906 58.057525634765625 89.94041442871094 67.53707885742188 85.47944641113281 75.34375 82.13372802734375 81.47760009765625 79.34562683105469 85.93853759765625 78.23039245605469 89.28427124023438 78.23039245605469 89.28427124023438 78.23039245605469 " />
        <polyline stroke="black" stroke-width="3" stroke-linecap="round" fill="transparent" stroke-linejoin="round" points="42.44415283203125 118.93667602539063 40.21368408203125 144.58721923828125 38.540802001953125 168.0072784423828 37.425567626953125 184.73590087890625 38.540802001953125 193.6578369140625 40.77130126953125 198.1187744140625 46.905120849609375 195.8883056640625 56.3846435546875 188.6392517089844 68.65231323242188 174.69873046875 68.65231323242188 174.69873046875 " />
        <polyline stroke="black" stroke-width="3" stroke-linecap="round" fill="transparent" stroke-linejoin="round" points="53.5965576171875 138.45339965820313 59.73040771484375 136.22291564941406 67.53707885742188 132.877197265625 78.13186645507813 128.97384643554688 78.13186645507813 128.97384643554688 " />
        <polyline stroke="black" stroke-width="3" stroke-linecap="round" fill="transparent" stroke-linejoin="round" points="128.31768798828125 61.50177001953125 127.20245361328124 82.13372802734375 125.52960205078124 116.14857482910156 125.52960205078124 145.7024688720703 126.64483642578124 168.5648956298828 127.20245361328124 185.29351806640625 127.20245361328124 197.5611572265625 127.20245361328124 203.69497680664065 127.20245361328124 207.59832763671875 126.08721923828124 207.59832763671875 123.85675048828124 197.5611572265625 121.06863403320313 179.15969848632813 120.51101684570313 171.91062927246094 120.51101684570313 166.3344268798828 123.85675048828124 161.3158416748047 129.43295288085938 157.97010803222656 139.4700927734375 155.73963928222656 152.85302734375 155.1820068359375 164.00537109375 156.29725646972656 171.2545166015625 157.97010803222656 177.3883056640625 160.20059204101563 177.3883056640625 160.20059204101563 " />
        </svg>