<?xml version="1.0" standalone="no"?>
    <svg width="256" height="256" xmlns="http://www.w3.org/2000/svg" version="1.1">
    <polyline stroke="black" stroke-width="3" stroke-linecap="round" fill="transparent" stroke-linejoin="round" points="77.55072021484375 71.67803955078125 91.69744873046876 65.0467529296875 105.84423828125 60.18379211425781 123.96978759765624 54.436668395996094 132.369384765625 52.22624206542969 137.67440795898438 50.45790100097656 139.44281005859375 50.01580810546875 139.88485717773438 49.57372283935547 139.88485717773438 49.57372283935547 " />
        <polyline stroke="black" stroke-width="3" stroke-linecap="round" fill="transparent" stroke-linejoin="round" points="67.82479858398438 87.15106201171875 67.38275146484375 95.55068969726563 66.94064331054688 106.60284423828124 68.26690673828125 139.31724548339844 71.36151123046875 157.00070190429688 75.7823486328125 172.0316162109375 81.08740234375 181.3154296875 86.39242553710938 187.504638671875 93.023681640625 191.04132080078125 100.09710693359376 191.48342895507813 109.38095092773438 185.29421997070313 116.01220703125 177.7787322998047 116.01220703125 177.7787322998047 " />
        <polyline stroke="black" stroke-width="3" stroke-linecap="round" fill="transparent" stroke-linejoin="round" points="83.29782104492188 116.32876586914063 95.67623901367188 113.23416137695313 101.86544799804688 111.90788269042967 113.35971069335938 108.81329345703124 126.18017578125 103.95034790039063 126.18017578125 103.95034790039063 " />
        <polyline stroke="black" stroke-width="3" stroke-linecap="round" fill="transparent" stroke-linejoin="round" points="167.294189453125 45.152862548828125 165.52587890625 55.76293182373047 158.89459228515625 98.64529418945313 155.79998779296875 127.38092041015624 153.58953857421875 152.579833984375 152.70538330078125 174.6841278076172 151.37908935546875 191.48342895507813 150.49496459960938 203.86181640625 149.16867065429688 210.051025390625 147.8424072265625 212.261474609375 147.8424072265625 212.261474609375 " />
        <polyline stroke="black" stroke-width="3" stroke-linecap="round" fill="transparent" stroke-linejoin="round" points="172.5992431640625 132.24386596679688 182.32513427734375 130.03343200683594 192.93524169921875 128.26507568359375 203.9874267578125 127.38092041015624 216.807861328125 126.49673461914063 216.807861328125 126.49673461914063 " />
        </svg>