<?xml version="1.0" standalone="no"?>
    <svg width="256" height="256" xmlns="http://www.w3.org/2000/svg" version="1.1">
    <polyline stroke="black" stroke-width="3" stroke-linecap="round" fill="transparent" stroke-linejoin="round" points="74.81414794921875 97.76365661621094 82.66207885742188 94.4592742919922 95.87973022460938 89.089599609375 101.66244506835938 86.61129760742188 110.33648681640624 83.30690002441406 114.8800048828125 81.24165344238281 116.119140625 80.00250244140625 116.119140625 80.00250244140625 " />
        <polyline stroke="black" stroke-width="3" stroke-linecap="round" fill="transparent" stroke-linejoin="round" points="62.835693359375 116.76397705078124 57.466033935546875 146.09054565429688 55.813812255859375 158.48204040527344 54.98773193359375 168.80828857421875 54.16162109375 184.91726684570313 54.98773193359375 194.00436401367188 57.052978515625 197.30877685546875 63.24871826171875 197.72183227539065 73.988037109375 192.7652282714844 85.96649169921875 183.6781005859375 90.923095703125 177.89541625976563 99.18408203125 164.67779541015625 99.18408203125 164.67779541015625 " />
        <polyline stroke="black" stroke-width="3" stroke-linecap="round" fill="transparent" stroke-linejoin="round" points="73.988037109375 127.91635131835938 88.03173828125 125.02496337890624 94.64056396484376 122.95974731445313 109.51034545898438 115.9378662109375 116.119140625 110.56822204589844 116.119140625 110.56822204589844 " />
        <polyline stroke="black" stroke-width="3" stroke-linecap="round" fill="transparent" stroke-linejoin="round" points="144.20654296875 75.45895385742188 142.55438232421875 89.50267028808594 140.90219116210938 104.78550720214844 139.24996948242188 119.6553192138672 135.53253173828125 154.35154724121094 133.05419921875 184.0911865234375 132.22811889648438 202.265380859375 132.22811889648438 213.00469970703125 132.22811889648438 215.48297119140625 132.22811889648438 215.48297119140625 " />
        <polyline stroke="black" stroke-width="3" stroke-linecap="round" fill="transparent" stroke-linejoin="round" points="156.18505859375 145.26443481445313 162.38079833984375 144.02529907226563 168.5765380859375 143.6122283935547 179.72894287109375 144.43833923339844 185.09857177734375 146.09054565429688 185.09857177734375 146.09054565429688 " />
        </svg>