<?xml version="1.0" standalone="no"?>
    <svg width="256" height="256" xmlns="http://www.w3.org/2000/svg" version="1.1">
    <polyline stroke="black" stroke-width="3" stroke-linecap="round" fill="transparent" stroke-linejoin="round" points="92.7796630859375 99.30857849121094 105.144775390625 96.83441162109376 119.57073974609376 92.71076965332033 125.34112548828124 91.4736785888672 129.46282958984375 90.64895629882813 133.58453369140625 90.64895629882813 133.58453369140625 93.9478759765625 133.58453369140625 93.9478759765625 " />
        <polyline stroke="black" stroke-width="3" stroke-linecap="round" fill="transparent" stroke-linejoin="round" points="91.95535278320313 134.77183532714844 92.36749267578124 149.61691284179688 93.60400390625 171.47216796875 93.60400390625 178.48236083984375 94.01617431640624 188.37905883789065 94.4283447265625 190.853271484375 94.84051513671876 192.09036254882813 95.25271606445313 192.50271606445313 95.25271606445313 192.09036254882813 100.61093139648438 185.0801696777344 106.38128662109376 177.24525451660156 118.74639892578124 160.33834838867188 123.2802734375 154.15289306640625 126.57763671875 149.20455932617188 126.57763671875 149.20455932617188 " />
        <polyline stroke="black" stroke-width="3" stroke-linecap="round" fill="transparent" stroke-linejoin="round" points="80.00241088867188 147.1427459716797 96.0770263671875 139.72019958496094 105.144775390625 134.35946655273438 114.62469482421876 128.17401123046875 132.76019287109375 115.80311584472656 132.76019287109375 115.80311584472656 " />
        <polyline stroke="black" stroke-width="3" stroke-linecap="round" fill="transparent" stroke-linejoin="round" points="144.30096435546875 70.44317626953125 143.064453125 91.4736785888672 142.2401123046875 103.43220520019533 142.2401123046875 117.04020690917967 142.65228271484375 145.90565490722656 144.30096435546875 159.1012725830078 148.010498046875 178.8947296142578 149.6591796875 186.7296142578125 152.1322021484375 197.0386962890625 152.1322021484375 198.68814086914065 152.1322021484375 199.51287841796875 152.1322021484375 199.51287841796875 " />
        <polyline stroke="black" stroke-width="3" stroke-linecap="round" fill="transparent" stroke-linejoin="round" points="158.31475830078125 140.54490661621094 166.55816650390625 142.60671997070313 174.389404296875 145.0809326171875 180.57196044921875 146.73037719726563 190.0518798828125 150.02928161621094 190.0518798828125 150.02928161621094 " />
        </svg>