<?xml version="1.0" standalone="no"?>
    <svg width="256" height="256" xmlns="http://www.w3.org/2000/svg" version="1.1">
    <polyline stroke="black" stroke-width="3" stroke-linecap="round" fill="transparent" stroke-linejoin="round" points="64.67562866210938 107.63259887695313 71.40740966796875 105.50675964355467 78.13916015625 103.02664184570313 84.51669311523438 100.5465087890625 96.9173583984375 94.5233154296875 102.23193359375 91.33456420898438 108.96371459960938 86.37429809570313 111.44384765625 84.24847412109375 111.79818725585938 83.53987121582031 111.79818725585938 83.53987121582031 " />
        <polyline stroke="black" stroke-width="3" stroke-linecap="round" fill="transparent" stroke-linejoin="round" points="53.692138671875 126.76506042480467 52.27490234375 137.3942108154297 51.212005615234375 157.58958435058594 51.56634521484375 173.53330993652344 52.27490234375 177.7849578857422 53.692138671875 182.03662109375 57.235198974609375 181.68231201171875 64.3212890625 177.07635498046875 73.17892456054688 169.63595581054688 73.17892456054688 169.63595581054688 " />
        <polyline stroke="black" stroke-width="3" stroke-linecap="round" fill="transparent" stroke-linejoin="round" points="73.53326416015625 139.52005004882813 81.32794189453125 136.6855926513672 90.53988647460938 133.14254760742188 116.7584228515625 120.74186706542967 133.76507568359375 109.40411376953124 133.76507568359375 109.40411376953124 " />
        <polyline stroke="black" stroke-width="3" stroke-linecap="round" fill="transparent" stroke-linejoin="round" points="148.29159545898438 75.39083862304688 145.102783203125 88.5001220703125 141.20550537109375 105.50675964355467 137.30810546875 127.82797241210938 131.284912109375 175.30484008789063 131.63925170898438 193.3743896484375 132.7021484375 201.87774658203125 134.119384765625 203.64923095703125 134.119384765625 203.64923095703125 " />
        <polyline stroke="black" stroke-width="3" stroke-linecap="round" fill="transparent" stroke-linejoin="round" points="157.149169921875 160.42401123046875 162.81805419921875 157.9438934326172 169.195556640625 155.81805419921875 189.7452392578125 150.50347900390625 197.1856689453125 148.73196411132813 197.1856689453125 148.73196411132813 " />
        </svg>