<?xml version="1.0" standalone="no"?>
    <svg width="256" height="256" xmlns="http://www.w3.org/2000/svg" version="1.1">
    <polyline stroke="black" stroke-width="3" stroke-linecap="round" fill="transparent" stroke-linejoin="round" points="76.28741455078125 96.50242614746094 82.3486328125 94.48202514648438 89.218017578125 92.46159362792967 96.08746337890624 90.44119262695313 109.42218017578124 86.804443359375 121.94873046875 83.57179260253906 131.24264526367188 80.74319458007813 136.49569702148438 78.72279357910156 138.11203002929688 77.51054382324219 138.11203002929688 77.51054382324219 " />
        <polyline stroke="black" stroke-width="3" stroke-linecap="round" fill="transparent" stroke-linejoin="round" points="81.54046630859375 121.5555419921875 79.52008056640625 127.61679077148438 76.28741455078125 151.05357360839844 76.28741455078125 158.7311248779297 78.30780029296875 171.2576904296875 81.54046630859375 179.74343872070313 84.77313232421875 185.40057373046875 88.40988159179688 188.63323974609375 93.25888061523438 190.65365600585935 98.916015625 187.8250732421875 102.148681640625 183.3801727294922 102.148681640625 183.3801727294922 " />
        <polyline stroke="black" stroke-width="3" stroke-linecap="round" fill="transparent" stroke-linejoin="round" points="90.02621459960938 149.03314208984375 96.49154663085938 146.608642578125 102.95684814453124 144.18417358398438 109.42218017578124 141.75967407226563 123.56503295898438 136.506591796875 131.64669799804688 133.27395629882813 150.63861083984375 121.5555419921875 150.63861083984375 121.5555419921875 " />
        <polyline stroke="black" stroke-width="3" stroke-linecap="round" fill="transparent" stroke-linejoin="round" points="170.43865966796875 60.94316101074219 167.61004638671875 74.68196105957031 165.185546875 90.84527587890624 161.14471435546875 123.5759735107422 159.5284423828125 139.7392578125 156.6998291015625 180.55160522460935 155.89166259765625 199.54345703125 156.2957763671875 209.64553833007813 156.2957763671875 209.64553833007813 " />
        <polyline stroke="black" stroke-width="3" stroke-linecap="round" fill="transparent" stroke-linejoin="round" points="173.67132568359375 171.66177368164063 178.1162109375 170.04544067382813 182.9652099609375 168.4291229248047 194.279541015625 165.60052490234375 207.21014404296875 163.17605590820313 207.21014404296875 163.17605590820313 " />
        </svg>