<?xml version="1.0" standalone="no"?>
    <svg width="256" height="256" xmlns="http://www.w3.org/2000/svg" version="1.1">
    <polyline stroke="black" stroke-width="3" stroke-linecap="round" fill="transparent" stroke-linejoin="round" points="56 114 62 111 77 106 91 103 104 100 117 99 121 99 121 99 " />
        <polyline stroke="black" stroke-width="3" stroke-linecap="round" fill="transparent" stroke-linejoin="round" points="48 153 62 148 68 145 82 140 96 136 107 132 111 130 111 130 " />
        <polyline stroke="black" stroke-width="3" stroke-linecap="round" fill="transparent" stroke-linejoin="round" points="75 111 75 118 75 134 75 153 76 169 77 178 79 181 80 181 82 181 91 176 107 160 114 151 114 151 " />
        <polyline stroke="black" stroke-width="3" stroke-linecap="round" fill="transparent" stroke-linejoin="round" points="160 66 160 72 160 98 160 110 160 136 160 162 160 183 160 197 161 202 162 202 162 202 " />
        <polyline stroke="black" stroke-width="3" stroke-linecap="round" fill="transparent" stroke-linejoin="round" points="179 131 197 133 212 138 212 138 " />
        </svg>