<?xml version="1.0" standalone="no"?>
    <svg width="256" height="256" xmlns="http://www.w3.org/2000/svg" version="1.1">
    <polyline stroke="black" stroke-width="3" stroke-linecap="round" fill="transparent" stroke-linejoin="round" points="64 77 65 77 67 77 78 73 89 69 100 67 104 67 104 67 " />
        <polyline stroke="black" stroke-width="3" stroke-linecap="round" fill="transparent" stroke-linejoin="round" points="66 78 66 85 67 96 68 110 68 124 68 135 68 143 68 149 68 153 68 156 68 157 69 158 69 159 70 159 73 158 75 158 82 154 90 150 97 146 98 145 98 145 " />
        <polyline stroke="black" stroke-width="3" stroke-linecap="round" fill="transparent" stroke-linejoin="round" points="57 116 65 113 76 109 90 104 94 103 108 99 111 98 111 98 " />
        <polyline stroke="black" stroke-width="3" stroke-linecap="round" fill="transparent" stroke-linejoin="round" points="133 40 133 45 133 55 133 64 133 86 133 110 133 125 133 129 133 145 133 154 132 156 132 162 132 166 133 166 133 166 " />
        <polyline stroke="black" stroke-width="3" stroke-linecap="round" fill="transparent" stroke-linejoin="round" points="135 91 138 91 143 96 148 99 159 105 171 111 180 116 180 116 " />
        </svg>