<?xml version="1.0" standalone="no"?>
    <svg width="256" height="256" xmlns="http://www.w3.org/2000/svg" version="1.1">
    <polyline stroke="black" stroke-width="3" stroke-linecap="round" fill="transparent" stroke-linejoin="round" points="77 150 89 146 102 141 117 136 130 132 139 129 144 129 144 130 143 131 143 131 " />
        <polyline stroke="black" stroke-width="3" stroke-linecap="round" fill="transparent" stroke-linejoin="round" points="101 145 101 157 100 168 98 179 95 191 95 193 95 193 95 193 " />
        <polyline stroke="black" stroke-width="3" stroke-linecap="round" fill="transparent" stroke-linejoin="round" points="121 142 124 167 125 177 128 183 132 185 142 185 152 182 162 178 171 175 178 172 183 170 184 169 184 168 182 167 180 165 177 162 175 159 172 155 171 154 171 154 " />
        </svg>