<?xml version="1.0" standalone="no"?>
    <svg width="256" height="256" xmlns="http://www.w3.org/2000/svg" version="1.1">
    <polyline stroke="black" stroke-width="3" stroke-linecap="round" fill="transparent" stroke-linejoin="round" points="77.05645751953125 81.2147216796875 100.487060546875 72.81509399414063 109.77084350585938 69.27839660644531 119.93881225585938 65.74171447753906 138.94857788085938 58.6683349609375 156.63201904296875 52.03703308105469 169.01043701171875 47.616172790527344 175.6417236328125 45.84782409667969 178.736328125 45.84782409667969 178.736328125 45.84782409667969 " />
        <polyline stroke="black" stroke-width="3" stroke-linecap="round" fill="transparent" stroke-linejoin="round" points="124.8017578125 87.4039306640625 114.19171142578124 101.99278259277344 109.32879638671876 109.066162109375 103.58163452148438 118.3499755859375 90.76116943359376 138.24386596679688 71.309326171875 167.86363220214844 62.0255126953125 181.126220703125 58.930908203125 185.10501098632813 58.930908203125 185.10501098632813 " />
        <polyline stroke="black" stroke-width="3" stroke-linecap="round" fill="transparent" stroke-linejoin="round" points="149.55859375 60.436676025390625 150.00070190429688 74.58343505859375 149.11654663085938 85.19351196289063 147.79025268554688 96.687744140625 146.4639892578125 120.11833190917967 146.4639892578125 132.05467224121094 147.34814453125 142.22264099121094 151.76904296875 159.4639892578125 160.168701171875 173.16867065429688 171.6629638671875 183.7787322998047 187.57806396484375 191.29421997070313 202.6090087890625 193.06256103515625 215.87158203125 188.1996154785156 224.7132568359375 178.91580200195313 231.78662109375 162.55859375 232.67083740234375 151.50645446777344 232.67083740234375 151.50645446777344 " />
        </svg>