<?xml version="1.0" standalone="no"?>
    <svg width="256" height="256" xmlns="http://www.w3.org/2000/svg" version="1.1">
    <polyline stroke="black" stroke-width="3" stroke-linecap="round" fill="transparent" stroke-linejoin="round" points="67.90966796875 99.9715576171875 82.94064331054688 90.687744140625 98.855712890625 83.61436462402344 108.13958740234376 80.07768249511719 128.9176025390625 73.88847351074219 148.81149291992188 67.69926452636719 166.4949951171875 61.51005554199219 177.98919677734375 55.76293182373047 183.294189453125 52.22624206542969 183.294189453125 52.22624206542969 " />
        <polyline stroke="black" stroke-width="3" stroke-linecap="round" fill="transparent" stroke-linejoin="round" points="133.780517578125 79.63558959960938 120.96005249023438 93.7823486328125 101.50827026367188 118.98126220703124 88.24566650390625 136.66473388671875 58.62591552734375 177.33665466308594 48.899993896484375 189.715087890625 44.03704833984375 195.0201110839844 43.594940185546875 195.46218872070313 43.594940185546875 195.46218872070313 " />
        <polyline stroke="black" stroke-width="3" stroke-linecap="round" fill="transparent" stroke-linejoin="round" points="152.790283203125 63.27839660644531 147.04315185546875 82.28811645507813 140.85394287109375 104.39242553710938 138.64352416992188 115.88665771484376 138.201416015625 139.31724548339844 145.71688842773438 169.37908935546875 155.000732421875 181.75750732421875 172.68414306640625 191.04132080078125 193.0201416015625 193.25177001953125 209.81939697265625 188.38882446289065 216.89276123046875 183.9679412841797 227.9449462890625 174.24205017089844 235.9024658203125 159.21112060546875 236.78662109375 130.03343200683594 232.3658447265625 116.32876586914063 232.3658447265625 116.32876586914063 " />
        </svg>