<?xml version="1.0" standalone="no"?>
    <svg width="256" height="256" xmlns="http://www.w3.org/2000/svg" version="1.1">
    <polyline stroke="black" stroke-width="3" stroke-linecap="round" fill="transparent" stroke-linejoin="round" points="71.24053955078125 107.41952514648438 95.874755859375 95.51296997070313 115.58221435546876 86.48040771484375 134.87899780273438 79.09011840820313 150.89129638671875 73.75270080566406 163.6190185546875 70.05755615234375 171.8304443359375 68.00469970703125 175.9361572265625 67.18356323242188 177.1678466796875 66.77299499511719 178.81011962890625 66.77299499511719 178.81011962890625 66.77299499511719 " />
        <polyline stroke="black" stroke-width="3" stroke-linecap="round" fill="transparent" stroke-linejoin="round" points="120.91961669921876 103.31382751464844 113.93988037109376 122.2000732421875 105.72848510742188 143.9603271484375 101.21221923828124 155.86691284179688 91.35848999023438 178.85887145996094 81.50482177734375 198.97686767578125 76.57794189453125 206.7777099609375 76.57794189453125 206.7777099609375 " />
        <polyline stroke="black" stroke-width="3" stroke-linecap="round" fill="transparent" stroke-linejoin="round" points="152.12298583984375 103.31382751464844 148.01727294921875 120.147216796875 146.375 127.12693786621094 141.44818115234375 148.88719177246094 139.80587768554688 162.02545166015625 139.395263671875 173.52145385742188 140.62701416015625 184.60687255859375 143.91156005859375 192.81829833984375 149.24899291992188 198.97686767578125 157.87103271484375 204.724853515625 169.777587890625 209.24114990234375 181.68408203125 210.8834228515625 192.3590087890625 210.8834228515625 200.1597900390625 209.24114990234375 203.0338134765625 208.0093994140625 209.1923828125 203.49313354492188 211.65576171875 198.15570068359375 211.65576171875 187.0703125 205.9078369140625 167.36288452148438 200.5704345703125 152.5823211669922 200.5704345703125 152.5823211669922 " />
        </svg>