<?xml version="1.0" standalone="no"?>
    <svg width="256" height="256" xmlns="http://www.w3.org/2000/svg" version="1.1">
    <polyline stroke="black" stroke-width="3" stroke-linecap="round" fill="transparent" stroke-linejoin="round" points="36.1494140625 126.98748779296876 43.40972900390625 125.00741577148438 74.76089477539063 112.79696655273438 101.161865234375 93.98626708984376 101.161865234375 93.98626708984376 101.161865234375 93.98626708984376 " />
        <polyline stroke="black" stroke-width="3" stroke-linecap="round" fill="transparent" stroke-linejoin="round" points="62.550445556640625 85.40594482421875 57.600250244140625 94.3162841796875 55.62017822265625 101.2465362548828 45.05975341796875 149.4283447265625 43.739715576171875 159.32870483398438 41.099609375 184.40966796875 40.76959228515625 196.29010009765625 42.089630126953125 203.22036743164065 43.079681396484375 205.200439453125 46.0498046875 205.53042602539065 51 203.88037109375 60.900360107421875 193.98001098632813 68.16061401367188 182.4296112060547 72.45077514648438 170.2191162109375 72.45077514648438 170.2191162109375 72.45077514648438 170.2191162109375 " />
        <polyline stroke="black" stroke-width="3" stroke-linecap="round" fill="transparent" stroke-linejoin="round" points="71.1307373046875 69.2353515625 70.470703125 81.11579895019531 70.80072021484375 87.71601867675781 75.09091186523438 129.297607421875 79.38104248046875 158.3386993408203 80.37109375 163.618896484375 81.691162109375 174.50930786132813 82.02114868164063 179.78948974609375 81.691162109375 181.1095428466797 81.691162109375 181.1095428466797 81.691162109375 181.1095428466797 " />
        <polyline stroke="black" stroke-width="3" stroke-linecap="round" fill="transparent" stroke-linejoin="round" points="124.26275634765624 111.8069305419922 135.81317138671875 102.236572265625 165.5142822265625 88.04603576660156 169.804443359375 86.39598083496094 180.36480712890625 85.075927734375 184.655029296875 86.39598083496094 185.31500244140625 87.71601867675781 185.31500244140625 87.71601867675781 " />
        <polyline stroke="black" stroke-width="3" stroke-linecap="round" fill="transparent" stroke-linejoin="round" points="123.60272216796876 163.2888641357422 147.69363403320313 156.35861206054688 192.90533447265625 145.13818359375 200.49560546875 143.4881134033203 213.36602783203125 142.4980926513672 213.36602783203125 142.4980926513672 213.36602783203125 142.4980926513672 " />
        </svg>