<?xml version="1.0" standalone="no"?>
    <svg width="256" height="256" xmlns="http://www.w3.org/2000/svg" version="1.1">
    <polyline stroke="black" stroke-width="3" stroke-linecap="round" fill="transparent" stroke-linejoin="round" points="31.00457763671875 142.72862243652344 47.42742919921875 135.33836364746094 65.08197021484375 130.00091552734375 83.14706420898438 125.4846649169922 99.15936279296876 122.2000732421875 112.297607421875 119.32609558105467 120.91961669921876 116.8626708984375 124.20419311523438 115.63095092773438 124.20419311523438 115.63095092773438 " />
        <polyline stroke="black" stroke-width="3" stroke-linecap="round" fill="transparent" stroke-linejoin="round" points="77.80966186523438 77.03726196289063 67.54537963867188 107.41952514648438 64.67138671875 126.3057861328125 63.439666748046875 142.72862243652344 63.02911376953125 159.15147399902344 63.8502197265625 173.52145385742188 64.26083374023438 184.60687255859375 65.49252319335938 192.40771484375 67.13482666015625 195.6922912597656 70.82992553710938 198.15570068359375 73.70394897460938 199.38742065429688 84.78936767578125 198.97686767578125 90.94793701171876 196.513427734375 95.874755859375 193.63943481445313 97.9276123046875 190.3548583984375 97.9276123046875 190.3548583984375 " />
        <polyline stroke="black" stroke-width="3" stroke-linecap="round" fill="transparent" stroke-linejoin="round" points="95.874755859375 72.93156433105469 96.69589233398438 93.46011352539063 98.33822631835938 111.52523803710938 101.62277221679688 140.26519775390625 102.8544921875 156.6880340576172 103.67562866210938 168.59458923339844 103.67562866210938 178.44830322265625 103.67562866210938 187.4808654785156 104.086181640625 190.3548583984375 104.086181640625 190.3548583984375 " />
        <polyline stroke="black" stroke-width="3" stroke-linecap="round" fill="transparent" stroke-linejoin="round" points="143.91156005859375 98.38697814941406 157.46044921875 95.92355346679688 171.00927734375 94.69183349609376 177.578369140625 94.28125 194.41180419921875 94.69183349609376 200.1597900390625 95.92355346679688 200.1597900390625 95.92355346679688 " />
        <polyline stroke="black" stroke-width="3" stroke-linecap="round" fill="transparent" stroke-linejoin="round" points="120.09848022460938 177.62716674804688 129.54159545898438 174.34259033203125 137.75302124023438 171.87918090820313 156.22869873046875 168.18402099609375 178.3995361328125 165.72061157226563 200.98095703125 164.8994598388672 219.8671875 166.9523162841797 233.82666015625 168.18402099609375 245.3226318359375 173.1108856201172 245.3226318359375 173.1108856201172 " />
        </svg>