<?xml version="1.0" standalone="no"?>
    <svg width="256" height="256" xmlns="http://www.w3.org/2000/svg" version="1.1">
    <polyline stroke="black" stroke-width="3" stroke-linecap="round" fill="transparent" stroke-linejoin="round" points="32.9027099609375 137.35667419433594 44.43115234375 132.28414916992188 51.348236083984375 129.0561981201172 59.187591552734375 125.3670654296875 77.17196655273438 117.52774047851563 95.15634155273438 111.07180786132813 110.3739013671875 104.15472412109376 120.05780029296876 97.69879150390624 123.74691772460938 94.00968933105467 123.74691772460938 94.00968933105467 " />
        <polyline stroke="black" stroke-width="3" stroke-linecap="round" fill="transparent" stroke-linejoin="round" points="87.31698608398438 38.673126220703125 84.55014038085938 53.89067840576172 79.93881225585938 80.63668823242188 67.02694702148438 140.12350463867188 63.33782958984375 156.2633056640625 59.648681640625 171.4808807373047 55.49847412109375 189.9263916015625 55.49847412109375 192.23208618164065 56.420745849609375 193.15435791015625 56.420745849609375 193.15435791015625 " />
        <polyline stroke="black" stroke-width="3" stroke-linecap="round" fill="transparent" stroke-linejoin="round" points="103.91796875 51.584991455078125 102.99569702148438 66.80255126953125 101.151123046875 86.17034912109375 100.22885131835938 96.77651977539063 98.38427734375 117.52774047851563 96.53976440429688 132.28414916992188 94.23406982421876 144.73486328125 90.54498291015624 154.41876220703125 86.39471435546875 160.41355895996094 82.24447631835938 164.56381225585938 77.63311767578125 168.25291442871094 73.021728515625 170.0974578857422 69.79376220703125 171.4808807373047 67.94921875 172.40313720703125 66.10467529296875 173.32542419433594 65.64349365234375 173.78656005859375 64.72125244140625 177.0145263671875 64.72125244140625 179.78135681152344 64.72125244140625 183.0093231201172 64.72125244140625 183.0093231201172 " />
        <polyline stroke="black" stroke-width="3" stroke-linecap="round" fill="transparent" stroke-linejoin="round" points="140.80902099609375 105.53814697265624 154.1820068359375 98.62106323242188 159.7156982421875 96.31536865234376 166.171630859375 94.00968933105467 172.1663818359375 91.70399475097656 177.7000732421875 89.85945129394531 186.461669921875 86.63148498535156 190.1507568359375 85.24806213378906 194.76214599609375 83.86465454101563 195.22332763671875 83.86465454101563 195.22332763671875 83.86465454101563 " />
        <polyline stroke="black" stroke-width="3" stroke-linecap="round" fill="transparent" stroke-linejoin="round" points="102.99569702148438 171.9420166015625 117.29098510742188 165.94720458984375 132.96966552734375 161.33584594726563 151.8763427734375 156.2633056640625 181.38916015625 150.7296600341797 197.06787109375 149.80740356445313 206.751708984375 151.65194702148438 206.751708984375 151.65194702148438 " />
        </svg>