<?xml version="1.0" standalone="no"?>
    <svg width="256" height="256" xmlns="http://www.w3.org/2000/svg" version="1.1">
    <polyline stroke="black" stroke-width="3" stroke-linecap="round" fill="transparent" stroke-linejoin="round" points="59.398193359375 46.586334228515625 54.50128173828125 74.74354553222656 50.21649169921875 127.99740600585938 47.768035888671875 165.33631896972656 47.768035888671875 186.76028442382813 51.440704345703125 201.45101928710935 55.72552490234375 208.79635620117188 55.72552490234375 208.79635620117188 " />
        <polyline stroke="black" stroke-width="3" stroke-linecap="round" fill="transparent" stroke-linejoin="round" points="48.380126953125 72.90721130371094 65.51931762695313 61.88916015625 79.59793090820313 54.54380798339844 103.4703369140625 45.974220275878906 127.3427734375 40.46519470214844 154.2757568359375 38.62886047363281 170.80279541015625 42.301536560058594 184.269287109375 50.871124267578125 195.89947509765625 69.84663391113281 203.85693359375 105.34921264648438 203.85693359375 134.11854553222656 200.18426513671875 159.21519470214844 193.4510498046875 177.57858276367188 182.4329833984375 191.04507446289065 182.4329833984375 191.04507446289065 " />
        <polyline stroke="black" stroke-width="3" stroke-linecap="round" fill="transparent" stroke-linejoin="round" points="69.80410766601563 90.04638671875 79.59793090820313 101.67652893066406 87.555419921875 107.79766845703124 97.34921264648438 112.08245849609376 109.59149169921876 112.694580078125 124.89431762695313 102.9007568359375 124.89431762695313 102.9007568359375 " />
        <polyline stroke="black" stroke-width="3" stroke-linecap="round" fill="transparent" stroke-linejoin="round" points="168.3543701171875 63.11338806152344 151.2152099609375 84.537353515625 124.89431762695313 113.3066864013672 102.24612426757813 132.28219604492188 85.71905517578125 144.52447509765625 74.08892822265625 152.48194885253906 67.9677734375 156.1546173095703 67.9677734375 156.1546173095703 75.3131103515625 150.64559936523438 95.51287841796876 139.6275634765625 118.773193359375 126.77317810058594 138.972900390625 115.75514221191406 154.88787841796875 106.5734405517578 168.3543701171875 93.10694885253906 168.3543701171875 93.10694885253906 " />
        <polyline stroke="black" stroke-width="3" stroke-linecap="round" fill="transparent" stroke-linejoin="round" points="140.80926513671875 60.052825927734375 126.73065185546876 75.35565185546875 119.38531494140624 91.27059936523438 106.53091430664063 120.6520538330078 96.73712158203124 148.80926513671875 90.615966796875 164.11209106445313 85.10693359375 174.5180206298828 82.04638671875 180.63916015625 82.04638671875 180.63916015625 " />
        <polyline stroke="black" stroke-width="3" stroke-linecap="round" fill="transparent" stroke-linejoin="round" points="111.42782592773438 141.46389770507813 123.0579833984375 141.46389770507813 136.52447509765625 143.3002471923828 148.7667236328125 146.36080932617188 148.7667236328125 146.36080932617188 " />
        <polyline stroke="black" stroke-width="3" stroke-linecap="round" fill="transparent" stroke-linejoin="round" points="57.56182861328125 202.0631103515625 76.537353515625 193.4935302734375 92.45230102539063 188.59661865234375 113.87628173828124 184.31182861328125 131.6275634765625 183.69973754882813 151.2152099609375 184.9239501953125 167.74224853515625 186.76028442382813 177.53607177734375 188.59661865234375 183.0450439453125 191.65719604492188 183.0450439453125 191.65719604492188 " />
        </svg>