<?xml version="1.0" standalone="no"?>
    <svg width="256" height="256" xmlns="http://www.w3.org/2000/svg" version="1.1">
    <polyline stroke="black" stroke-width="3" stroke-linecap="round" fill="transparent" stroke-linejoin="round" points="95.73794555664063 67.98521423339844 96.02658081054688 77.79859924316406 96.31521606445313 87.61198425292969 96.02658081054688 93.3845672607422 95.73794555664063 99.7344207763672 95.73794555664063 105.79563903808594 96.02658081054688 110.70233154296876 96.31521606445313 113.588623046875 96.8924560546875 114.45451354980467 100.35598754882813 115.32040405273438 110.74667358398438 113.01136779785156 124.8895263671875 107.23878479003906 137.01193237304688 102.90934753417967 143.93902587890625 100.60031127929688 148.26849365234375 98.8685302734375 154.906982421875 94.82771301269533 159.81365966796875 89.63240051269531 159.81365966796875 89.63240051269531 " />
        <polyline stroke="black" stroke-width="3" stroke-linecap="round" fill="transparent" stroke-linejoin="round" points="165.586181640625 57.01728820800781 167.3179931640625 70.87149047851563 169.0498046875 84.72569274902344 169.33837890625 91.36418151855467 170.20428466796875 102.33209228515624 169.6270751953125 113.87725830078124 169.6270751953125 113.87725830078124 " />
        <polyline stroke="black" stroke-width="3" stroke-linecap="round" fill="transparent" stroke-linejoin="round" points="90.83126831054688 155.72854614257813 91.40853881835938 162.65562438964844 91.98580932617188 169.58270263671875 92.56301879882813 175.64390563964844 92.56301879882813 181.1278839111328 92.56301879882813 184.01416015625 92.56301879882813 184.01416015625 " />
        <polyline stroke="black" stroke-width="3" stroke-linecap="round" fill="transparent" stroke-linejoin="round" points="107.28311157226563 137.83348083496094 121.1373291015625 132.06089782714844 134.99154663085938 126.28831481933594 149.42300415039063 121.67025756835938 161.2568359375 118.78395080566406 169.0498046875 117.34080505371094 176.26556396484375 116.76351928710938 182.61541748046875 117.0522003173828 187.23345947265625 118.20669555664063 190.11968994140625 120.51573181152344 192.14013671875 124.8451690673828 191.56292724609375 132.3495330810547 187.23345947265625 141.87428283691406 181.46087646484375 153.13082885742188 176.8427734375 160.0579376220703 172.5133056640625 163.521484375 168.4725341796875 164.3873748779297 168.4725341796875 164.3873748779297 " />
        <polyline stroke="black" stroke-width="3" stroke-linecap="round" fill="transparent" stroke-linejoin="round" points="131.52801513671875 41.14265441894531 133.54840087890625 65.09889221191406 135.56878662109375 89.05513000488281 135.28018188476563 116.47491455078124 135.56878662109375 144.47195434570313 135.85745239257813 170.7372283935547 137.58920288085938 199.60015869140625 140.18685913085938 217.49514770507813 142.20724487304688 235.96743774414065 142.20724487304688 235.96743774414065 " />
        </svg>