<?xml version="1.0" standalone="no"?>
    <svg width="256" height="256" xmlns="http://www.w3.org/2000/svg" version="1.1">
    <polyline stroke="black" stroke-width="3" stroke-linecap="round" fill="transparent" stroke-linejoin="round" points="69 65 71 71 71 75 73 83 76 91 80 97 84 101 87 103 91 103 98 103 109 100 127 93 145 87 153 84 153 84 " />
        <polyline stroke="black" stroke-width="3" stroke-linecap="round" fill="transparent" stroke-linejoin="round" points="170 45 169 58 168 77 160 93 160 93 " />
        <polyline stroke="black" stroke-width="3" stroke-linecap="round" fill="transparent" stroke-linejoin="round" points="79 138 80 151 80 156 82 166 86 175 88 178 90 181 90 181 " />
        <polyline stroke="black" stroke-width="3" stroke-linecap="round" fill="transparent" stroke-linejoin="round" points="94 185 101 149 121 138 144 132 160 132 174 135 181 144 182 157 178 171 163 183 148 190 148 190 " />
        <polyline stroke="black" stroke-width="3" stroke-linecap="round" fill="transparent" stroke-linejoin="round" points="127 43 129 58 129 79 129 105 131 142 131 160 133 197 134 209 134 209 " />
        </svg>