<?xml version="1.0" standalone="no"?>
    <svg width="256" height="256" xmlns="http://www.w3.org/2000/svg" version="1.1">
    <polyline stroke="black" stroke-width="3" stroke-linecap="round" fill="transparent" stroke-linejoin="round" points="65.35971069335938 87.27090454101563 79.80599975585938 127.45060729980467 80.25741577148438 146.22161865234375 78.61447143554688 165.9246063232422 68.75106811523438 208.0716552734375 62.170013427734375 225.3812561035156 50.246337890625 247.2173767089844 51.300018310546875 242.3936767578125 " />
        <polyline stroke="black" stroke-width="3" stroke-linecap="round" fill="transparent" stroke-linejoin="round" points="30.018524169921875 99.99374389648438 52.7674560546875 96.0281982421875 72.354736328125 89.88473510742188 85.799072265625 84.85472106933594 107.15057373046876 76.03948974609375 117.23602294921876 72.3800048828125 131.96966552734375 67.82791137695313 140.4422607421875 66.05987548828125 142.26898193359375 65.8399658203125 142.80563354492188 65.85040283203125 142.88742065429688 65.85198974609375 142.60882568359375 67.68142700195313 141.49609375 74.59530639648438 134.49798583984375 100.49502563476563 129.16268920898438 113.32199096679688 119.99349975585938 129.54685974121094 113.28851318359376 137.16018676757813 112.557861328125 136.66351318359375 112.794189453125 136.322998046875 112.870849609375 136.30316162109375 112.92724609375 136.28851318359375 114.15032958984376 136.06407165527344 125.7855224609375 135.04998779296875 135.53390502929688 134.66543579101563 151.67706298828125 134.420166015625 164.7152099609375 134.31521606445313 170.61572265625 134.82272338867188 179.51220703125 137.16864013671875 183.11541748046875 139.66357421875 186.82757568359375 147.7737274169922 189.0594482421875 156.35983276367188 190.11419677734375 181.65704345703125 187.177978515625 194.41558837890625 176.563232421875 221.31320190429688 170.66204833984375 231.4273681640625 158.478271484375 248.3832092285156 153.9375 251.91500854492188 146.9930419921875 250.6337890625 136.66403198242188 243.31118774414065 129.892333984375 238.26004028320313 123.62948608398438 233.63861083984375 123.39727783203124 232.85348510742188 " />
        </svg>