<?xml version="1.0" standalone="no"?>
    <svg width="256" height="256" xmlns="http://www.w3.org/2000/svg" version="1.1">
    <polyline stroke="black" stroke-width="3" stroke-linecap="round" fill="transparent" stroke-linejoin="round" points="88.77777099609375 110.66667175292967 96.77777099609376 106.22222900390624 114.55557250976563 99.11111450195313 127.88888549804688 96.4444580078125 135.00003051757813 96.4444580078125 141.22222900390625 103.55555725097656 143 119.55555725097656 140.33334350585938 140.88890075683594 134.11111450195313 158.6666717529297 128.77777099609375 169.33335876464844 124.33334350585938 175.55555725097656 120.77777099609376 175.55555725097656 113.66665649414063 153.3333282470703 113.66665649414063 153.3333282470703 " />
        <polyline stroke="black" stroke-width="3" stroke-linecap="round" fill="transparent" stroke-linejoin="round" points="109.22222900390624 120.44447326660156 106.55557250976563 131.11111450195313 102.11111450195313 142.6667022705078 84.33334350585938 173.77780151367188 69.22222900390625 192.4444580078125 56.77777099609375 204.888916015625 47.888885498046875 210.22222900390625 43.4444580078125 210.22222900390625 39 210.22222900390625 37.222259521484375 210.22222900390625 36.333343505859375 210.22222900390625 40.77777099609375 208.4444580078125 71 193.33334350585935 102.11111450195313 180 134.11111450195313 171.11111450195313 182.11111450195313 164 203.4444580078125 164 215 164 217.66668701171875 165.7777862548828 217.66668701171875 167.55555725097656 217.66668701171875 167.55555725097656 " />
        </svg>