<?xml version="1.0" standalone="no"?>
    <svg width="256" height="256" xmlns="http://www.w3.org/2000/svg" version="1.1">
    <polyline stroke="black" stroke-width="3" stroke-linecap="round" fill="transparent" stroke-linejoin="round" points="89.96664428710938 68.29830932617188 101.37643432617188 64.91763305664063 114.4765625 61.95953369140625 126.3089599609375 59.84660339355469 149.12860107421875 57.31109619140625 163.4964599609375 57.733673095703125 171.94818115234375 60.6917724609375 177.4417724609375 73.79191589355469 176.17401123046875 105.06321716308594 163.4964599609375 144.3636474609375 148.70599365234375 170.56393432617188 136.45101928710938 182.39633178710935 123.35089111328124 187.04476928710935 113.20883178710938 183.2415008544922 109.40557861328124 179.01565551757813 109.40557861328124 179.01565551757813 " />
        <polyline stroke="black" stroke-width="3" stroke-linecap="round" fill="transparent" stroke-linejoin="round" points="115.32174682617188 104.2180633544922 111.09588623046876 114.78269958496094 105.1796875 128.72801208496094 91.234375 157.88638305664063 83.20526123046875 170.98651123046875 79.40203857421875 176.48013305664063 76.44393920898438 180.28338623046875 76.44393920898438 180.28338623046875 " />
        <polyline stroke="black" stroke-width="3" stroke-linecap="round" fill="transparent" stroke-linejoin="round" points="59.117919921875 200.5675048828125 70.10516357421875 196.76422119140625 112.3636474609375 185.77700805664065 137.29620361328125 180.7059783935547 158.42547607421875 177.74789428710938 175.75146484375 176.48013305664063 189.69677734375 177.32530212402344 198.1484375 180.7059783935547 198.1484375 180.7059783935547 " />
        </svg>