<?xml version="1.0" standalone="no"?>
    <svg width="256" height="256" xmlns="http://www.w3.org/2000/svg" version="1.1">
    <polyline stroke="black" stroke-width="3" stroke-linecap="round" fill="transparent" stroke-linejoin="round" points="81.03521728515625 92.61328125 95.5333251953125 85.36421203613281 116.722900390625 76.99990844726563 132.8939208984375 74.21180725097656 147.94964599609375 76.44229125976563 159.10205078125 83.13372802734375 166.35113525390625 98.74710083007813 168.02398681640625 124.95526123046876 163.56304931640625 145.02960205078125 156.31396484375 160.64297485351563 149.06488037109375 170.68014526367188 140.70059204101563 176.25634765625 132.3363037109375 178.48683166503906 121.18389892578124 173.46824645996094 121.18389892578124 173.46824645996094 " />
        <polyline stroke="black" stroke-width="3" stroke-linecap="round" fill="transparent" stroke-linejoin="round" points="109.47384643554688 99.30471801757813 106.68572998046876 111.57237243652344 101.66717529296876 127.7433624267578 95.5333251953125 142.7991180419922 89.39950561523438 155.6243896484375 82.70806884765625 166.77679443359375 74.9013671875 176.81396484375 74.9013671875 176.81396484375 " />
        <polyline stroke="black" stroke-width="3" stroke-linecap="round" fill="transparent" stroke-linejoin="round" points="52.0389404296875 191.3121032714844 65.42181396484375 188.52398681640625 93.3028564453125 183.50540161132813 120.62625122070313 180.15969848632813 151.29541015625 177.37158203125 170.2545166015625 176.25634765625 186.42547607421875 175.69873046875 195.347412109375 176.81396484375 198.693115234375 180.71731567382813 198.693115234375 180.71731567382813 " />
        </svg>