<?xml version="1.0" standalone="no"?>
    <svg width="256" height="256" xmlns="http://www.w3.org/2000/svg" version="1.1">
    <polyline stroke="black" stroke-width="3" stroke-linecap="round" fill="transparent" stroke-linejoin="round" points="104.77328491210938 65.72494506835938 91.76361083984376 93.42294311523438 85.88827514648438 106.85226440429688 75.81625366210938 128.2552490234375 69.521240234375 140.4255828857422 65.7442626953125 146.7205810546875 63.64593505859375 150.07791137695313 63.226287841796875 150.49758911132813 63.226287841796875 150.49758911132813 " />
        <polyline stroke="black" stroke-width="3" stroke-linecap="round" fill="transparent" stroke-linejoin="round" points="109.80926513671876 150.07791137695313 114.84521484375 153.43524169921875 124.077880859375 158.8909149169922 132.05160522460938 161.40890502929688 140.86459350585938 159.31057739257813 140.86459350585938 159.31057739257813 " />
        <polyline stroke="black" stroke-width="3" stroke-linecap="round" fill="transparent" stroke-linejoin="round" points="170.660888671875 61.94795227050781 166.8839111328125 72.85928344726563 162.687255859375 83.77059936523438 153.45458984375 106.012939453125 143.80224609375 125.73724365234376 136.24822998046875 140.00592041015625 136.24822998046875 140.00592041015625 " />
        <polyline stroke="black" stroke-width="3" stroke-linecap="round" fill="transparent" stroke-linejoin="round" points="181.152587890625 137.90757751464844 186.1885986328125 137.90757751464844 189.965576171875 138.32725524902344 189.965576171875 138.32725524902344 " />
        <polyline stroke="black" stroke-width="3" stroke-linecap="round" fill="transparent" stroke-linejoin="round" points="105.61260986328124 177.35623168945313 115.264892578125 176.9365692138672 126.17623901367188 176.5168914794922 137.08758544921875 175.67758178710938 159.74957275390625 173.5792236328125 180.73291015625 171.48089599609375 195.4212646484375 169.382568359375 201.29656982421875 168.962890625 201.29656982421875 168.962890625 " />
        </svg>