<?xml version="1.0" standalone="no"?>
    <svg width="256" height="256" xmlns="http://www.w3.org/2000/svg" version="1.1">
    <polyline stroke="black" stroke-width="3" stroke-linecap="round" fill="transparent" stroke-linejoin="round" points="110 64 110 65 109 70 105 78 100 87 98 93 94 98 91 102 89 105 87 107 82 113 78 117 73 121 69 124 67 127 64 129 64 130 63 130 63 130 " />
        <polyline stroke="black" stroke-width="3" stroke-linecap="round" fill="transparent" stroke-linejoin="round" points="93 100 93 101 95 104 97 107 101 110 104 113 108 117 111 119 112 120 112 120 112 120 " />
        <polyline stroke="black" stroke-width="3" stroke-linecap="round" fill="transparent" stroke-linejoin="round" points="129 65 129 66 129 68 129 72 129 77 128 88 126 94 124 100 122 106 121 109 119 114 117 118 116 122 114 124 114 126 113 127 113 127 113 128 113 128 " />
        <polyline stroke="black" stroke-width="3" stroke-linecap="round" fill="transparent" stroke-linejoin="round" points="126 98 127 99 129 101 132 103 137 107 142 113 147 118 151 120 152 121 152 122 152 122 " />
        <polyline stroke="black" stroke-width="3" stroke-linecap="round" fill="transparent" stroke-linejoin="round" points="79 124 79 124 80 125 81 126 83 127 85 127 89 128 93 128 101 128 109 128 119 125 132 122 137 121 141 120 142 120 143 120 143 120 142 120 142 120 " />
        </svg>