<?xml version="1.0" standalone="no"?>
    <svg width="256" height="256" xmlns="http://www.w3.org/2000/svg" version="1.1">
    <polyline stroke="black" stroke-width="3" stroke-linecap="round" fill="transparent" stroke-linejoin="round" points="98.55075073242188 66.77743530273438 90.59249877929688 85.20712280273438 85.56622314453125 95.67852783203124 74.257080078125 117.45904541015624 62.11029052734375 140.49615478515625 57.921722412109375 147.19784545898438 57.921722412109375 147.19784545898438 " />
        <polyline stroke="black" stroke-width="3" stroke-linecap="round" fill="transparent" stroke-linejoin="round" points="95.19989013671876 125.41732788085938 98.9696044921875 129.6058807373047 103.15817260742188 134.63214111328125 111.95416259765624 143.4281463623047 119.07470703125 150.12982177734375 124.51986694335938 154.73724365234375 127.87069702148438 155.9938201904297 127.87069702148438 155.9938201904297 " />
        <polyline stroke="black" stroke-width="3" stroke-linecap="round" fill="transparent" stroke-linejoin="round" points="152.583251953125 77.66769409179688 150.90780639648438 84.78826904296875 146.30038452148438 100.28594970703124 140.43637084960938 113.6893310546875 135.82894897460938 123.74188232421876 133.31585693359375 127.9304656982422 127.45184326171876 136.7264404296875 124.938720703125 139.65843200683594 123.68212890625 140.07730102539063 123.68212890625 140.07730102539063 " />
        <polyline stroke="black" stroke-width="3" stroke-linecap="round" fill="transparent" stroke-linejoin="round" points="145.462646484375 140.07730102539063 151.32666015625 143.00930786132813 163.05462646484375 148.0355682373047 172.26947021484375 152.22412109375 176.4580078125 154.3184051513672 176.4580078125 154.3184051513672 " />
        <polyline stroke="black" stroke-width="3" stroke-linecap="round" fill="transparent" stroke-linejoin="round" points="106.09017944335938 184.05718994140625 114.04843139648438 182.3817596435547 121.58786010742188 181.12521362304688 135.82894897460938 180.2874755859375 142.53070068359375 180.2874755859375 154.2586669921875 181.54405212402344 163.05462646484375 183.219482421875 169.3375244140625 185.31378173828125 171.4317626953125 186.1514892578125 171.4317626953125 186.1514892578125 " />
        </svg>