<?xml version="1.0" standalone="no"?>
    <svg width="256" height="256" xmlns="http://www.w3.org/2000/svg" version="1.1">
    <polyline stroke="black" stroke-width="3" stroke-linecap="round" fill="transparent" stroke-linejoin="round" points="91.76904296875 70.05755615234375 80.2730712890625 98.38697814941406 68.36651611328125 123.43179321289063 58.92340087890625 142.31805419921875 53.175384521484375 153.81405639648438 49.890838623046875 158.7408905029297 49.069671630859375 159.97259521484375 49.069671630859375 159.97259521484375 " />
        <polyline stroke="black" stroke-width="3" stroke-linecap="round" fill="transparent" stroke-linejoin="round" points="93.00079345703124 129.17979431152344 102.44393920898438 136.570068359375 111.06591796875 143.1392059326172 117.635009765625 146.83433532714844 120.91961669921876 147.65548706054688 120.91961669921876 147.65548706054688 " />
        <polyline stroke="black" stroke-width="3" stroke-linecap="round" fill="transparent" stroke-linejoin="round" points="158.2816162109375 88.94383239746094 149.24899291992188 106.59837341308594 139.80587768554688 125.4846649169922 132.826171875 136.15948486328125 127.8992919921875 142.72862243652344 125.43588256835938 146.01318359375 125.43588256835938 146.01318359375 " />
        <polyline stroke="black" stroke-width="3" stroke-linecap="round" fill="transparent" stroke-linejoin="round" points="148.01727294921875 136.9806365966797 154.1759033203125 136.9806365966797 166.0823974609375 138.21234130859375 175.52557373046875 139.44406127929688 178.3995361328125 140.26519775390625 178.3995361328125 140.26519775390625 " />
        <polyline stroke="black" stroke-width="3" stroke-linecap="round" fill="transparent" stroke-linejoin="round" points="100.39105224609376 171.0580291748047 121.74072265625 168.18402099609375 142.269287109375 167.36288452148438 159.923828125 169.41574096679688 173.88330078125 171.0580291748047 182.09466552734375 173.9320068359375 182.09466552734375 173.9320068359375 " />
        </svg>