<?xml version="1.0" standalone="no"?>
    <svg width="256" height="256" xmlns="http://www.w3.org/2000/svg" version="1.1">
    <polyline stroke="black" stroke-width="3" stroke-linecap="round" fill="transparent" stroke-linejoin="round" points="105.06634521484375 22.245132446289063 83.09945678710938 63.69879150390625 61.132568359375 105.15245056152344 53.692138671875 118.9703369140625 47.314666748046875 129.95379638671875 42.35443115234375 139.16574096679688 38.811370849609375 145.18890380859375 34.20538330078125 149.79489135742188 33.85107421875 145.89752197265625 39.51995849609375 124.9935302734375 50.85772705078125 103.73526000976563 64.3212890625 91.33456420898438 75.30477905273438 85.66571044921875 107.19219970703124 79.99681091308594 125.26171875 81.05972290039063 137.66244506835938 82.83125305175781 145.102783203125 83.8941650390625 145.102783203125 83.8941650390625 " />
        <polyline stroke="black" stroke-width="3" stroke-linecap="round" fill="transparent" stroke-linejoin="round" points="79.91073608398438 138.45709228515625 78.49349975585938 151.9207000732422 77.07626342773438 165.38430786132813 76.36767578125 177.4306640625 73.88754272460938 205.77505493164065 73.17892456054688 206.48367309570313 72.11602783203125 206.48367309570313 72.11602783203125 206.48367309570313 " />
        <polyline stroke="black" stroke-width="3" stroke-linecap="round" fill="transparent" stroke-linejoin="round" points="28.890777587890625 172.1160888671875 32.433837890625 173.8876190185547 35.976898193359375 175.65914916992188 42.708709716796875 176.36773681640625 76.01336669921875 167.8644256591797 76.01336669921875 167.8644256591797 " />
        <polyline stroke="black" stroke-width="3" stroke-linecap="round" fill="transparent" stroke-linejoin="round" points="130.93060302734375 142.0001678466797 121.71868896484376 152.6293182373047 112.50677490234376 163.2584686279297 105.420654296875 171.05316162109375 102.94052124023438 173.8876190185547 102.94052124023438 173.8876190185547 " />
        <polyline stroke="black" stroke-width="3" stroke-linecap="round" fill="transparent" stroke-linejoin="round" points="164.94384765625 90.62599182128906 173.801513671875 87.79153442382813 182.6591796875 84.95707702636719 209.5863037109375 73.61932373046875 217.38104248046875 70.07627868652344 228.364501953125 62.28157043457031 231.90753173828125 58.738525390625 231.90753173828125 58.738525390625 " />
        <polyline stroke="black" stroke-width="3" stroke-linecap="round" fill="transparent" stroke-linejoin="round" points="211.00341796875 18.347732543945313 196.831298828125 44.212005615234375 182.6591796875 70.07627868652344 164.589599609375 104.79815673828124 148.64584350585938 137.03990173339844 139.07965087890625 154.75515747070313 134.47369384765625 160.7783203125 133.41073608398438 162.19554138183594 133.41073608398438 162.19554138183594 " />
        <polyline stroke="black" stroke-width="3" stroke-linecap="round" fill="transparent" stroke-linejoin="round" points="196.47705078125 93.81471252441405 201.0830078125 97.00344848632813 205.68896484375 100.1921844482422 216.67242431640625 110.46702575683594 219.8612060546875 115.78160095214844 219.8612060546875 115.78160095214844 " />
        <polyline stroke="black" stroke-width="3" stroke-linecap="round" fill="transparent" stroke-linejoin="round" points="152.543212890625 167.86441040039063 153.2518310546875 171.05316162109375 153.96044921875 174.24191284179688 154.6690673828125 176.7220458984375 155.377685546875 179.55648803710938 156.44061279296875 179.91079711914063 161.755126953125 174.24191284179688 173.44720458984375 162.90415954589844 178.407470703125 159.00680541992188 189.3909912109375 151.56640625 199.665771484375 146.96043395996094 206.75189208984375 145.543212890625 211.0035400390625 146.6061248779297 212.77508544921875 152.6293182373047 205.68896484375 168.5730438232422 197.1856689453125 178.13926696777344 197.1856689453125 178.13926696777344 " />
        <polyline stroke="black" stroke-width="3" stroke-linecap="round" fill="transparent" stroke-linejoin="round" points="73.178955078125 216.40423583984375 118.88427734375 210.38104248046875 164.589599609375 204.35784912109375 180.88763427734375 202.5863037109375 214.90087890625 197.9803466796875 229.42742919921875 195.85452270507813 251.394287109375 193.02008056640625 263.440673828125 192.665771484375 266.62939453125 194.0830078125 266.9837646484375 197.62603759765625 266.9837646484375 197.62603759765625 " />
        </svg>