<?xml version="1.0" standalone="no"?>
    <svg width="256" height="256" xmlns="http://www.w3.org/2000/svg" version="1.1">
    <polyline stroke="black" stroke-width="3" stroke-linecap="round" fill="transparent" stroke-linejoin="round" points="85.10693359375 56.38014221191406 61.84661865234375 94.3311767578125 48.380126953125 116.36724853515624 39.810546875 129.833740234375 34.91363525390625 137.7912139892578 33.689422607421875 139.01544189453125 33.689422607421875 139.01544189453125 " />
        <polyline stroke="black" stroke-width="3" stroke-linecap="round" fill="transparent" stroke-linejoin="round" points="92.45230102539063 66.78607177734375 103.4703369140625 67.39817810058594 116.93682861328124 69.23452758789063 131.6275634765625 73.51931762695313 143.86981201171875 78.41622924804688 152.439453125 80.86468505859375 152.439453125 80.86468505859375 " />
        <polyline stroke="black" stroke-width="3" stroke-linecap="round" fill="transparent" stroke-linejoin="round" points="91.22808837890624 118.20359802246094 94.28863525390624 143.912353515625 96.125 172.6816864013672 94.28863525390624 186.76028442382813 91.22808837890624 195.32986450195313 86.3311767578125 199.61468505859375 78.98580932617188 199.61468505859375 78.98580932617188 199.61468505859375 " />
        <polyline stroke="black" stroke-width="3" stroke-linecap="round" fill="transparent" stroke-linejoin="round" points="39.810546875 147.5850372314453 48.99224853515625 154.3182830810547 56.949737548828125 158.6030731201172 67.9677734375 160.43942260742188 82.65850830078125 156.76673889160156 82.65850830078125 156.76673889160156 " />
        <polyline stroke="black" stroke-width="3" stroke-linecap="round" fill="transparent" stroke-linejoin="round" points="127.3427734375 139.6275634765625 118.16107177734376 148.80926513671875 115.10049438476563 151.25772094726563 115.10049438476563 151.25772094726563 " />
        <polyline stroke="black" stroke-width="3" stroke-linecap="round" fill="transparent" stroke-linejoin="round" points="126.73065185546876 107.79766845703124 137.74868774414063 101.67652893066406 147.54251098632813 98.0038604736328 161.009033203125 93.71905517578124 175.087646484375 88.82215881347656 190.39044189453125 83.31312561035156 203.24481201171875 75.35565185546875 203.24481201171875 75.35565185546875 " />
        <polyline stroke="black" stroke-width="3" stroke-linecap="round" fill="transparent" stroke-linejoin="round" points="190.39044189453125 46.586334228515625 184.269287109375 55.768035888671875 173.25128173828125 75.35565185546875 159.17266845703125 102.9007568359375 150.60308837890625 120.03993225097656 142.64559936523438 134.73065185546875 136.52447509765625 145.13658142089844 136.52447509765625 145.13658142089844 " />
        <polyline stroke="black" stroke-width="3" stroke-linecap="round" fill="transparent" stroke-linejoin="round" points="156.112060546875 104.7371063232422 168.96649169921875 101.67652893066406 184.269287109375 99.2280731201172 198.96002197265625 98.0038604736328 212.426513671875 98.615966796875 219.7718505859375 99.84019470214844 224.056640625 102.9007568359375 222.83245849609375 109.02189636230467 222.83245849609375 109.02189636230467 " />
        <polyline stroke="black" stroke-width="3" stroke-linecap="round" fill="transparent" stroke-linejoin="round" points="164.069580078125 143.3002471923828 156.112060546875 157.37884521484375 154.2757568359375 167.17266845703125 152.439453125 175.13014221191406 150.60308837890625 180.02703857421875 149.37884521484375 182.4754943847656 149.37884521484375 181.86338806152344 149.990966796875 175.13014221191406 156.7242431640625 161.05152893066406 167.74224853515625 145.74868774414063 179.3724365234375 135.3427734375 193.4510498046875 127.3852996826172 205.0811767578125 123.71261596679688 213.03863525390625 123.10049438476563 218.54766845703125 124.93684387207033 220.99609375 129.2216339111328 217.32342529296875 146.97291564941406 197.73583984375 178.19070434570313 197.73583984375 178.19070434570313 " />
        <polyline stroke="black" stroke-width="3" stroke-linecap="round" fill="transparent" stroke-linejoin="round" points="109.59149169921876 211.85693359375 123.67010498046876 202.67523193359375 142.64559936523438 196.5541076660156 168.96649169921875 189.208740234375 187.9420166015625 184.31182861328125 205.6932373046875 180.63916015625 219.7718505859375 177.57858276367188 230.1778564453125 175.74224853515625 236.2989501953125 175.74224853515625 236.2989501953125 175.74224853515625 " />
        </svg>