<?xml version="1.0" standalone="no"?>
    <svg width="256" height="256" xmlns="http://www.w3.org/2000/svg" version="1.1">
    <polyline stroke="black" stroke-width="3" stroke-linecap="round" fill="transparent" stroke-linejoin="round" points="73.05474853515625 44.77986145019531 68.60983276367188 54.47783660888672 64.1649169921875 64.17581176757813 58.911865234375 74.27789306640625 48.40570068359375 96.0983428955078 44.3648681640625 104.9881591796875 40.728118896484375 113.06980895996094 35.475067138671875 124.38412475585938 32.242401123046875 130.041259765625 31.43426513671875 131.6575927734375 31.43426513671875 131.6575927734375 " />
        <polyline stroke="black" stroke-width="3" stroke-linecap="round" fill="transparent" stroke-linejoin="round" points="69.41790771484376 67.81256103515625 82.752685546875 68.21664428710938 96.08746337890624 68.6207275390625 110.63446044921876 71.04522705078125 118.716064453125 73.06564331054688 132.85897827148438 77.51054382324219 139.32427978515625 80.339111328125 149.022216796875 84.78404235839844 149.022216796875 84.78404235839844 " />
        <polyline stroke="black" stroke-width="3" stroke-linecap="round" fill="transparent" stroke-linejoin="round" points="103.36093139648438 84.37995910644531 103.36093139648438 106.20040893554688 103.36093139648438 128.02085876464844 103.36093139648438 150.64947509765625 102.95684814453124 170.44952392578125 102.95684814453124 179.33934020996094 102.148681640625 192.674072265625 101.34051513671876 201.56390380859375 100.12826538085938 206.0087890625 98.511962890625 206.81695556640625 98.511962890625 206.81695556640625 " />
        <polyline stroke="black" stroke-width="3" stroke-linecap="round" fill="transparent" stroke-linejoin="round" points="50.830230712890625 141.35557556152344 58.911865234375 146.20457458496094 66.99349975585938 151.05357360839844 75.479248046875 155.09439086914063 75.479248046875 155.09439086914063 " />
        <polyline stroke="black" stroke-width="3" stroke-linecap="round" fill="transparent" stroke-linejoin="round" points="115.887451171875 132.06170654296875 109.01806640625 139.7392578125 102.148681640625 147.41680908203125 96.49154663085938 153.073974609375 91.64254760742188 157.92295837402344 91.64254760742188 157.92295837402344 " />
        <polyline stroke="black" stroke-width="3" stroke-linecap="round" fill="transparent" stroke-linejoin="round" points="149.02227783203125 103.371826171875 163.1651611328125 101.7554931640625 177.30804443359375 100.13916015625 191.450927734375 98.92692565917967 208.42236328125 97.71466064453124 215.29180908203125 96.90652465820313 219.7366943359375 95.69427490234376 219.7366943359375 95.69427490234376 " />
        <polyline stroke="black" stroke-width="3" stroke-linecap="round" fill="transparent" stroke-linejoin="round" points="197.916259765625 67.40847778320313 193.87542724609375 75.08604431152344 189.8345947265625 82.76361083984375 180.1365966796875 100.5432586669922 169.6304931640625 119.13104248046876 159.9324951171875 134.8902587890625 152.2548828125 147.82090759277344 147.40594482421875 154.6903076171875 147.40594482421875 154.6903076171875 " />
        <polyline stroke="black" stroke-width="3" stroke-linecap="round" fill="transparent" stroke-linejoin="round" points="191.45098876953125 117.91877746582033 199.1285400390625 118.3228759765625 206.80609130859375 118.72697448730467 214.483642578125 119.53512573242188 229.0306396484375 122.76779174804688 239.94085693359375 126.80862426757813 243.981689453125 128.8290252685547 243.981689453125 128.8290252685547 " />
        <polyline stroke="black" stroke-width="3" stroke-linecap="round" fill="transparent" stroke-linejoin="round" points="170.0345458984375 174.89443969726563 170.0345458984375 180.1475067138672 170.0345458984375 185.40057373046875 169.6304931640625 190.24957275390625 168.822265625 195.09857177734375 168.822265625 195.90673828125 168.822265625 195.90673828125 " />
        <polyline stroke="black" stroke-width="3" stroke-linecap="round" fill="transparent" stroke-linejoin="round" points="179.32843017578125 172.06588745117188 184.985595703125 169.23728942871094 190.64276123046875 166.40869140625 209.2305908203125 160.75155639648438 214.07952880859375 159.94338989257813 221.757080078125 159.94338989257813 224.585693359375 160.3474578857422 228.222412109375 161.9637908935547 230.24285888671875 163.17605590820313 230.24285888671875 167.62095642089844 225.39385986328125 175.2985076904297 213.67547607421875 184.99652099609375 213.67547607421875 184.99652099609375 " />
        <polyline stroke="black" stroke-width="3" stroke-linecap="round" fill="transparent" stroke-linejoin="round" points="137.3038330078125 212.47412109375006 147.0018310546875 211.26187133789065 156.6998291015625 210.04962158203125 178.92437744140625 207.6251220703125 201.95703125 205.20062255859375 219.7366943359375 203.9883728027344 230.64691162109375 203.9883728027344 236.3040771484375 204.79653930664065 238.7286376953125 205.60470581054688 238.7286376953125 205.60470581054688 " />
        </svg>