<?xml version="1.0" standalone="no"?>
    <svg width="256" height="256" xmlns="http://www.w3.org/2000/svg" version="1.1">
    <polyline stroke="black" stroke-width="3" stroke-linecap="round" fill="transparent" stroke-linejoin="round" points="35.062896728515625 124.83766174316406 33.95501708984375 139.60972595214844 32.847137451171875 154.3817901611328 32.477813720703125 161.76780700683594 32.108551025390625 166.19944763183594 32.108551025390625 166.19944763183594 " />
        <polyline stroke="black" stroke-width="3" stroke-linecap="round" fill="transparent" stroke-linejoin="round" points="36.1707763671875 113.75863647460938 49.8349609375 105.63400268554688 63.4991455078125 97.50936889648438 75.3167724609375 93.07774353027344 86.76510620117188 90.1233367919922 95.99765014648438 89.01544189453125 103.75299072265624 89.38475036621094 108.18463134765624 95.66285705566406 108.9232177734375 109.32701110839844 104.4915771484375 130.0078887939453 97.474853515625 142.56414794921875 90.45816040039063 148.47296142578125 90.45816040039063 148.47296142578125 " />
        <polyline stroke="black" stroke-width="3" stroke-linecap="round" fill="transparent" stroke-linejoin="round" points="56.482391357421875 61.31781005859375 59.0675048828125 109.32701110839844 61.652618408203125 157.33621215820313 65.34564208984375 195.00494384765625 67.56143188476563 210.88491821289065 69.407958984375 218.6402282714844 71.62380981445313 224.9183654785156 71.62380981445313 224.9183654785156 " />
        <polyline stroke="black" stroke-width="3" stroke-linecap="round" fill="transparent" stroke-linejoin="round" points="143.63751220703125 54.670379638671875 153.2393798828125 53.56248474121094 162.84124755859375 52.45458984375 168.011474609375 53.19319915771485 173.92022705078125 56.886199951171875 179.45977783203125 75.7205810546875 176.87469482421875 91.9698486328125 172.81231689453125 101.94097900390624 172.81231689453125 101.94097900390624 " />
        <polyline stroke="black" stroke-width="3" stroke-linecap="round" fill="transparent" stroke-linejoin="round" points="129.23477172851563 82.36801147460936 125.54177856445313 95.66285705566406 121.84878540039063 108.95770263671876 120.00222778320313 119.2981414794922 119.63296508789063 124.83767700195313 122.21807861328124 128.16139221191406 129.97341918945313 124.4683837890625 148.4384765625 114.49723815917967 160.62542724609375 108.5884246826172 174.65887451171875 107.1112060546875 186.4765625 110.80421447753906 194.2318115234375 118.19024658203124 198.294189453125 131.8544158935547 196.078369140625 149.21156311035156 189.80023193359375 169.89247131347656 182.04486083984375 190.5733642578125 173.92022705078125 205.71469116210935 167.2728271484375 212.73141479492188 160.256103515625 211.25424194335935 160.256103515625 211.25424194335935 " />
        </svg>