<?xml version="1.0" standalone="no"?>
    <svg width="256" height="256" xmlns="http://www.w3.org/2000/svg" version="1.1">
    <polyline stroke="black" stroke-width="3" stroke-linecap="round" fill="transparent" stroke-linejoin="round" points="51.387969970703125 65.26014709472656 50.15509033203125 72.24642944335938 48.922210693359375 79.23271179199219 47.6893310546875 87.86283874511719 46.867431640625 96.9039306640625 46.45648193359375 104.71214294433594 46.045501708984375 117.45184326171876 45.634521484375 125.2600555419922 44.8126220703125 128.5477294921875 44.40167236328125 128.13677978515625 44.8126220703125 126.49295043945313 47.27838134765625 119.50665283203124 52.620849609375 109.232666015625 60.01812744140625 98.95872497558594 67.8262939453125 89.91764831542969 76.4564208984375 82.10942077636719 87.141357421875 75.94503784179688 97.00436401367188 73.8902587890625 103.57968139648438 76.7669677734375 109.74407958984376 87.04092407226563 114.26461791992188 105.5340576171875 114.675537109375 122.7943115234375 112.20980834960938 134.3011474609375 108.922119140625 139.6436004638672 105.63449096679688 140.0545654296875 105.63449096679688 140.0545654296875 " />
        <polyline stroke="black" stroke-width="3" stroke-linecap="round" fill="transparent" stroke-linejoin="round" points="81.7989501953125 34.84919738769531 80.97698974609375 51.28753662109375 80.155029296875 67.72587585449219 78.92221069335938 101.42446899414063 78.51123046875 118.27378845214844 78.51123046875 133.0682830810547 79.74411010742188 165.12303161621094 80.97698974609375 175.80795288085938 81.79891967773438 178.27371215820313 81.79891967773438 178.27371215820313 " />
        <polyline stroke="black" stroke-width="3" stroke-linecap="round" fill="transparent" stroke-linejoin="round" points="132.75772094726563 63.205352783203125 136.8673095703125 59.5067138671875 140.97689819335938 55.808074951171875 146.3193359375 52.10945892333984 163.57958984375 43.890281677246094 174.2645263671875 41.424530029296875 182.8946533203125 42.24645233154297 189.05908203125 45.53411865234375 193.9906005859375 53.34233093261719 197.27825927734375 66.49301147460938 195.6343994140625 82.10942077636719 189.469970703125 96.9039306640625 183.716552734375 104.30117797851563 183.716552734375 104.30117797851563 " />
        <polyline stroke="black" stroke-width="3" stroke-linecap="round" fill="transparent" stroke-linejoin="round" points="155.7713623046875 68.13681030273438 154.1275634765625 78.82174682617188 152.4837646484375 89.50668334960938 150.83993530273438 99.3696746826172 145.90841674804688 128.5477294921875 145.08651733398438 135.12307739257813 144.675537109375 144.57510375976563 145.08651733398438 149.09564208984375 146.3193359375 150.73948669433594 150.83993530273438 150.73948669433594 159.05908203125 147.04086303710938 171.3878173828125 140.46551513671875 177.963134765625 137.1778564453125 198.10009765625 130.19155883789063 209.196044921875 129.36965942382813 213.716552734375 130.19155883789063 223.57958984375 140.87649536132813 228.92205810546875 159.36961364746094 229.3330078125 178.68466186523438 226.456298828125 191.8353271484375 222.3466796875 198.82162475585935 216.18231201171875 202.93121337890625 202.6207275390625 204.98602294921875 194.40155029296875 204.16409301757813 194.40155029296875 204.16409301757813 " />
        </svg>