<?xml version="1.0" standalone="no"?>
    <svg width="256" height="256" xmlns="http://www.w3.org/2000/svg" version="1.1">
    <polyline stroke="black" stroke-width="3" stroke-linecap="round" fill="transparent" stroke-linejoin="round" points="64.0274658203125 86.70616149902344 80.57861328125 76.56192016601563 94.99411010742188 69.08721923828125 113.14697265625 60.54469299316406 128.09637451171875 53.60389709472656 142.51190185546875 48.26482391357422 151.58831787109375 45.061378479003906 156.39349365234375 45.061378479003906 159.06298828125 46.66310119628906 159.06298828125 52.53608703613281 153.72393798828125 70.68893432617188 143.0457763671875 92.04524230957033 132.36761474609375 109.13027954101563 132.36761474609375 109.13027954101563 " />
        <polyline stroke="black" stroke-width="3" stroke-linecap="round" fill="transparent" stroke-linejoin="round" points="68.8326416015625 139.56301879882813 82.18032836914063 130.48658752441406 94.99411010742188 124.61360168457033 114.21478271484376 117.6728057861328 129.1641845703125 112.8676300048828 144.64752197265625 109.13027954101563 157.4613037109375 106.99465942382813 163.8681640625 106.99465942382813 167.0716552734375 106.99465942382813 166.0037841796875 111.79981994628906 156.39349365234375 127.81704711914063 139.84234619140625 148.10552978515625 125.96075439453124 166.79229736328125 117.418212890625 183.34344482421875 115.2825927734375 195.08938598632813 118.48602294921876 203.0980224609375 127.56246948242188 209.50491333007813 150.5205078125 211.6405334472656 168.67333984375 208.43707275390625 181.48712158203125 204.69973754882813 189.4957275390625 202.0301818847656 195.36871337890625 198.2928466796875 200.17388916015625 192.41986083984375 202.84344482421875 184.4112548828125 202.84344482421875 172.665283203125 197.50433349609375 152.91070556640625 197.50433349609375 152.91070556640625 " />
        </svg>