<?xml version="1.0" standalone="no"?>
    <svg width="256" height="256" xmlns="http://www.w3.org/2000/svg" version="1.1">
    <polyline stroke="black" stroke-width="3" stroke-linecap="round" fill="transparent" stroke-linejoin="round" points="66.57086181640625 87.59793090820313 75.14044189453125 82.08891296386719 88.60693359375 75.35565185546875 104.52191162109376 68.62240600585938 121.66107177734376 62.50128173828125 136.351806640625 58.21649169921875 146.75772094726563 55.768035888671875 152.87884521484375 54.54380798339844 155.939453125 54.54380798339844 155.939453125 56.99226379394531 152.87884521484375 63.72550964355469 143.08502197265625 81.47679138183594 130.23065185546875 102.9007568359375 117.37628173828124 122.48838806152344 110.03091430664063 132.89431762695313 110.03091430664063 132.89431762695313 " />
        <polyline stroke="black" stroke-width="3" stroke-linecap="round" fill="transparent" stroke-linejoin="round" points="63.51031494140625 142.68812561035156 80.037353515625 141.46389770507813 89.8311767578125 139.01544189453125 101.46133422851563 134.73065185546875 115.5399169921875 129.833740234375 127.78219604492188 124.93684387207033 139.412353515625 121.26416015625 148.59405517578125 119.42782592773438 153.490966796875 119.42782592773438 155.939453125 119.42782592773438 154.7152099609375 123.71261596679688 146.14559936523438 136.56700134277344 132.0670166015625 155.54251098632813 120.43682861328124 173.29379272460938 113.09149169921876 184.31182861328125 109.4188232421875 192.88140869140625 108.194580078125 199.61468505859375 111.255126953125 205.73580932617188 120.43682861328124 210.6327209472656 139.412353515625 214.30538940429688 159.612060546875 213.6932678222656 173.690673828125 210.6327209472656 183.4844970703125 206.34793090820313 190.2177734375 202.67523193359375 195.726806640625 197.7783203125 199.39947509765625 192.26931762695313 200.0115966796875 185.53607177734375 193.89044189453125 158.6030731201172 193.89044189453125 158.6030731201172 " />
        </svg>