<?xml version="1.0" standalone="no"?>
    <svg width="256" height="256" xmlns="http://www.w3.org/2000/svg" version="1.1">
    <polyline stroke="black" stroke-width="3" stroke-linecap="round" fill="transparent" stroke-linejoin="round" points="63.69842529296875 79.89559936523438 87.027099609375 63.824737548828125 103.097900390625 55.53008270263672 117.613525390625 48.79070281982422 124.35296630859376 46.19862365722656 134.72128295898438 43.606536865234375 141.46063232421875 42.56971740722656 141.97906494140625 43.606536865234375 139.9053955078125 49.8275146484375 131.09237670898438 65.89839172363281 118.650390625 84.04290771484375 107.763671875 100.63218688964844 107.763671875 100.63218688964844 " />
        <polyline stroke="black" stroke-width="3" stroke-linecap="round" fill="transparent" stroke-linejoin="round" points="63.69842529296875 141.06857299804688 76.65878295898438 131.73709106445313 84.95343017578125 126.55294799804688 94.28488159179688 121.36880493164063 111.392578125 113.5925750732422 119.16879272460938 110.48208618164063 132.129150390625 105.81634521484376 139.386962890625 103.22427368164063 141.97906494140625 102.7058563232422 144.052734375 102.18743896484376 141.97906494140625 105.81634521484376 122.279296875 135.3660125732422 94.80331420898438 172.69187927246094 85.47186279296875 188.24432373046875 83.91659545898438 193.428466796875 89.619140625 202.24151611328125 110.35577392578124 203.27838134765625 138.35015869140625 195.50213623046875 161.160400390625 183.57859802246097 168.418212890625 178.39443969726563 177.2313232421875 170.09979248046875 184.4891357421875 156.6210174560547 182.41546630859375 136.92124938964844 182.41546630859375 136.92124938964844 " />
        </svg>