<?xml version="1.0" standalone="no"?>
    <svg width="256" height="256" xmlns="http://www.w3.org/2000/svg" version="1.1">
    <polyline stroke="black" stroke-width="3" stroke-linecap="round" fill="transparent" stroke-linejoin="round" points="71.2076416015625 97.1817626953125 84.2840576171875 92.4267120361328 99.73794555664063 87.67166137695313 116.9749755859375 83.510986328125 134.2120361328125 80.53907775878906 151.4490966796875 77.56718444824219 165.119873046875 75.18965148925781 175.8187255859375 72.8121337890625 181.16815185546875 70.43460083007813 184.14007568359375 67.46270751953125 184.14007568359375 67.46270751953125 " />
        <polyline stroke="black" stroke-width="3" stroke-linecap="round" fill="transparent" stroke-linejoin="round" points="115.19183349609376 62.70765686035156 112.8143310546875 69.84022521972656 110.43679809570313 79.35032653808594 107.46490478515624 91.8323211669922 103.89862060546876 104.3143310546875 101.52108764648438 113.82443237304688 99.1435546875 119.17385864257813 97.95480346679688 122.74014282226563 97.36041259765624 124.52328491210938 96.17166137695313 123.3345184326172 96.17166137695313 117.98509216308594 97.95480346679688 103.71994018554688 102.115478515625 88.26603698730469 107.46490478515624 76.97279357910156 112.8143310546875 68.05708312988281 118.75811767578124 60.92451477050781 125.29632568359376 54.98069763183594 131.83453369140625 50.22564697265625 138.37271118164063 47.25374603271485 144.3165283203125 46.064979553222656 148.4771728515625 46.064979553222656 152.04345703125 48.4425048828125 154.4210205078125 53.79193878173828 156.20416259765625 63.302032470703125 155.015380859375 84.69975280761719 145.50531005859375 106.6918487548828 135.99517822265625 117.98509216308594 135.99517822265625 117.98509216308594 " />
        <polyline stroke="black" stroke-width="3" stroke-linecap="round" fill="transparent" stroke-linejoin="round" points="98.5491943359375 160.1861572265625 98.5491943359375 170.29063415527344 97.95480346679688 186.33892822265625 95.5772705078125 201.79281616210935 93.79412841796876 211.30291748046875 92.60537719726563 216.65234375 91.4166259765625 219.0298767089844 91.4166259765625 219.0298767089844 " />
        <polyline stroke="black" stroke-width="3" stroke-linecap="round" fill="transparent" stroke-linejoin="round" points="102.115478515625 157.80862426757813 110.43679809570313 149.48728942871094 121.13568115234376 142.9490966796875 131.83453369140625 138.1940460205078 141.3446044921875 136.41090393066406 150.26031494140625 136.41090393066406 157.3929443359375 139.3828125 163.33673095703125 144.73223876953125 167.49737548828125 151.8648223876953 169.280517578125 166.72434997558594 163.93109130859375 191.09396362304688 152.04345703125 213.0860595703125 152.04345703125 213.0860595703125 " />
        <polyline stroke="black" stroke-width="3" stroke-linecap="round" fill="transparent" stroke-linejoin="round" points="80.71774291992188 187.52767944335935 97.36041259765624 181.58387756347656 123.51318359375 174.4512939453125 141.93899536132813 170.885009765625 161.5535888671875 169.10186767578125 179.385009765625 169.10186767578125 193.650146484375 169.6962432861328 204.3489990234375 170.29063415527344 211.4815673828125 170.29063415527344 217.4254150390625 170.29063415527344 217.4254150390625 170.29063415527344 " />
        </svg>