<?xml version="1.0" standalone="no"?>
    <svg width="256" height="256" xmlns="http://www.w3.org/2000/svg" version="1.1">
    <polyline stroke="black" stroke-width="3" stroke-linecap="round" fill="transparent" stroke-linejoin="round" points="107.24227905273438 89.50267028808594 101.45956420898438 115.11175537109376 98.15521240234376 127.09024047851563 90.72027587890624 146.09054565429688 89.06805419921875 148.98190307617188 87.0028076171875 151.04714965820313 86.17672729492188 151.04714965820313 86.17672729492188 151.04714965820313 " />
        <polyline stroke="black" stroke-width="3" stroke-linecap="round" fill="transparent" stroke-linejoin="round" points="120.04684448242188 69.67623901367188 124.17733764648438 66.37184143066406 132.85140991210938 61.00218200683594 143.17767333984375 55.632530212402344 146.89511108398438 54.806427001953125 149.37338256835938 57.28472900390625 152.2647705078125 67.19793701171875 153.0908203125 84.9591064453125 150.612548828125 103.95941162109376 146.06903076171875 117.17703247070313 139.460205078125 126.67718505859376 135.32968139648438 129.9815673828125 135.32968139648438 129.9815673828125 " />
        <polyline stroke="black" stroke-width="3" stroke-linecap="round" fill="transparent" stroke-linejoin="round" points="68.82861328125 99.8289031982422 79.15487670898438 96.52450561523438 98.56820678710938 90.7418212890625 108.4814453125 88.67654418945313 116.742431640625 87.02436828613281 133.264404296875 84.13299560546875 145.65594482421875 83.30690002441406 153.9169921875 85.37216186523438 159.69964599609375 88.67654418945313 159.69964599609375 88.67654418945313 " />
        <polyline stroke="black" stroke-width="3" stroke-linecap="round" fill="transparent" stroke-linejoin="round" points="83.69842529296875 185.74337768554688 77.91571044921875 202.67843627929688 73.78521728515625 215.89605712890625 70.89385986328125 222.91790771484375 69.24166870117188 226.2222900390625 68.82861328125 225.80923461914065 69.24166870117188 224.15704345703125 69.24166870117188 224.15704345703125 " />
        <polyline stroke="black" stroke-width="3" stroke-linecap="round" fill="transparent" stroke-linejoin="round" points="123.7642822265625 149.8079833984375 133.677490234375 149.3949432373047 141.52545166015625 151.87322998046875 147.72119140625 156.829833984375 153.9169921875 174.17796325683594 154.7430419921875 201.43927001953125 149.78646850585938 221.26568603515625 143.5906982421875 229.1136474609375 132.43832397460938 232.41802978515625 116.742431640625 226.6353454589844 108.068359375 222.091796875 108.068359375 222.091796875 " />
        <polyline stroke="black" stroke-width="3" stroke-linecap="round" fill="transparent" stroke-linejoin="round" points="64.2850341796875 191.52606201171875 76.67657470703125 190.69998168945313 103.9378662109375 188.2216796875 129.13397216796875 184.91726684570313 151.43865966796875 183.6781005859375 172.0911865234375 184.50421142578125 188.6131591796875 188.63470458984375 199.76556396484375 197.30877685546875 199.76556396484375 197.30877685546875 " />
        </svg>