<?xml version="1.0" standalone="no"?>
    <svg width="256" height="256" xmlns="http://www.w3.org/2000/svg" version="1.1">
    <polyline stroke="black" stroke-width="3" stroke-linecap="round" fill="transparent" stroke-linejoin="round" points="87 47 87 47 87 48 87 48 87 48 88 49 88 49 90 50 90 51 91 51 93 55 96 61 97 63 97 65 98 66 98 74 98 74 98 85 98 88 98 88 97 90 97 93 96 98 95 101 91 110 90 112 90 112 89 114 89 115 88 116 " />
        <polyline stroke="black" stroke-width="3" stroke-linecap="round" fill="transparent" stroke-linejoin="round" points="90 42 90 42 90 42 90 43 90 43 89 44 89 44 89 44 89 44 90 44 91 43 94 43 97 42 98 42 111 41 112 41 113 41 115 40 118 40 120 39 127 38 130 37 131 37 131 37 132 36 133 36 134 36 135 36 135 36 137 36 138 36 138 36 139 36 140 37 141 37 141 38 141 39 142 42 143 45 143 48 144 55 144 61 144 62 144 64 145 66 145 67 145 68 146 73 146 73 149 88 149 93 149 93 149 94 149 97 148 101 147 105 146 108 146 108 146 109 146 109 146 110 146 111 146 111 145 111 145 112 145 113 144 113 143 113 142 112 139 111 133 108 125 105 125 105 122 104 " />
        <polyline stroke="black" stroke-width="3" stroke-linecap="round" fill="transparent" stroke-linejoin="round" points="26 75 30 76 33 76 35 77 37 77 45 77 49 76 53 76 55 76 75 73 75 73 77 73 81 72 88 71 100 68 104 68 108 67 108 67 112 67 119 66 130 64 137 63 141 63 145 62 148 62 151 62 158 61 172 60 173 60 173 60 174 60 177 59 184 58 188 58 191 57 191 57 191 57 193 57 194 57 194 57 " />
        <polyline stroke="black" stroke-width="3" stroke-linecap="round" fill="transparent" stroke-linejoin="round" points="85 133 85 133 85 133 86 133 86 133 87 133 88 135 89 136 91 141 91 141 91 143 88 155 87 157 87 160 86 161 86 162 85 167 85 167 81 180 78 186 77 191 76 193 75 197 71 208 71 208 69 213 68 213 68 214 68 215 " />
        <polyline stroke="black" stroke-width="3" stroke-linecap="round" fill="transparent" stroke-linejoin="round" points="100 134 103 134 113 134 115 133 118 133 121 132 126 130 128 130 132 128 132 128 136 126 138 125 142 124 144 123 145 123 146 122 147 122 148 122 148 122 149 122 149 122 149 122 150 122 150 122 150 122 150 123 150 124 150 125 150 126 150 128 150 131 150 135 150 141 150 141 150 142 150 143 150 150 151 163 151 163 151 164 153 174 154 184 156 192 156 196 156 197 157 199 157 201 158 213 158 213 159 221 159 221 159 222 159 224 159 225 158 226 158 227 158 228 156 228 156 228 154 228 151 226 143 221 140 220 140 220 139 219 118 210 113 208 113 208 111 207 109 207 93 202 90 201 90 201 " />
        <polyline stroke="black" stroke-width="3" stroke-linecap="round" fill="transparent" stroke-linejoin="round" points="34 175 39 175 47 174 49 174 52 174 56 173 72 172 80 172 80 172 83 171 85 171 92 170 102 168 114 166 118 166 125 165 142 162 153 161 153 160 154 160 168 159 168 159 184 157 187 156 192 156 192 156 194 156 195 156 198 156 198 156 " />
        </svg>