<?xml version="1.0" standalone="no"?>
    <svg width="256" height="256" xmlns="http://www.w3.org/2000/svg" version="1.1">
    <polyline stroke="black" stroke-width="3" stroke-linecap="round" fill="transparent" stroke-linejoin="round" points="115.523193359375 53.28472137451172 104.22705078125 73.82319641113281 90.19244384765624 103.26168823242188 87.45394897460938 109.08091735839844 83.34628295898438 117.29631042480467 81.97705078125 119.69247436523438 81.97705078125 119.69247436523438 " />
        <polyline stroke="black" stroke-width="3" stroke-linecap="round" fill="transparent" stroke-linejoin="round" points="123.73861694335938 61.157806396484375 127.50399780273438 59.10395812988281 135.3770751953125 55.680870056152344 144.619384765625 53.28472137451172 155.5732421875 52.25779724121094 166.527099609375 53.62702941894531 174.7425537109375 57.392425537109375 177.8232421875 60.13087463378906 185.35406494140625 74.16551208496094 187.06561279296875 87.51553344726563 185.01171875 100.180908203125 179.53485107421875 111.8193817138672 171.3194580078125 121.74632263183594 165.842529296875 125.85400390625 165.842529296875 125.85400390625 " />
        <polyline stroke="black" stroke-width="3" stroke-linecap="round" fill="transparent" stroke-linejoin="round" points="95.66937255859376 73.82319641113281 117.57708740234376 74.85012817382813 139.48480224609375 77.58859252929688 163.7886962890625 82.38090515136719 188.092529296875 87.51553344726563 207.9464111328125 92.30783081054688 220.9541015625 96.41552734375 220.9541015625 96.41552734375 " />
        <polyline stroke="black" stroke-width="3" stroke-linecap="round" fill="transparent" stroke-linejoin="round" points="106.62322998046876 152.55401611328125 104.56939697265624 160.7694091796875 102.1732177734375 168.98480224609375 95.66937255859376 190.89251708984375 93.95782470703124 196.02716064453125 92.58859252929688 200.4771423339844 92.58859252929688 200.4771423339844 " />
        <polyline stroke="black" stroke-width="3" stroke-linecap="round" fill="transparent" stroke-linejoin="round" points="134.35018920898438 140.23094177246094 138.45785522460938 139.2040252685547 152.49249267578125 138.86172485351563 162.41943359375 141.60018920898438 171.3194580078125 147.76171875 175.4271240234375 152.55401611328125 183.30023193359375 166.93096923828125 186.7232666015625 183.70404052734375 184.66943359375 204.5848388671875 180.21942138671875 214.16949462890625 172.34637451171875 220.67333984375 165.50018310546875 223.75408935546875 165.50018310546875 223.75408935546875 " />
        <polyline stroke="black" stroke-width="3" stroke-linecap="round" fill="transparent" stroke-linejoin="round" points="72.39242553710938 172.75021362304688 95.66937255859376 170.69635009765625 118.9462890625 170.69635009765625 148.72711181640625 173.434814453125 200.4156494140625 178.56944274902344 228.142578125 181.99252319335935 228.142578125 181.99252319335935 " />
        </svg>