<?xml version="1.0" standalone="no"?>
    <svg width="256" height="256" xmlns="http://www.w3.org/2000/svg" version="1.1">
    <polyline stroke="black" stroke-width="3" stroke-linecap="round" fill="transparent" stroke-linejoin="round" points="93.943359375 41.227203369140625 93.943359375 47.51005554199219 93.943359375 54.21175384521485 93.52450561523438 60.9134521484375 91.43017578125 73.89799499511719 88.079345703125 84.78826904296875 86.40390014648438 88.13911437988281 81.37765502929688 96.09738159179688 78.44564819335938 98.191650390625 78.44564819335938 98.191650390625 " />
        <polyline stroke="black" stroke-width="3" stroke-linecap="round" fill="transparent" stroke-linejoin="round" points="98.9696044921875 42.90263366699219 104.41473388671876 38.714073181152344 113.62957763671876 32.85009002685547 124.938720703125 28.242660522460938 128.28955078125 26.986099243164063 134.15353393554688 26.56724548339844 138.76095581054688 27.823814392089844 146.30038452148438 39.13292694091797 149.23236083984375 47.51005554199219 153.83978271484375 64.68316650390625 155.93408203125 80.18084716796875 155.5152587890625 91.48995971679688 152.583251953125 101.1236572265625 148.3946533203125 104.4744873046875 142.11181640625 106.56878662109376 142.11181640625 106.56878662109376 " />
        <polyline stroke="black" stroke-width="3" stroke-linecap="round" fill="transparent" stroke-linejoin="round" points="65.042236328125 72.64141845703125 73.83822631835938 68.45286560058594 85.1473388671875 64.26431274414063 96.87533569335938 60.494598388671875 123.68212890625 53.37403869628906 150.90780639648438 49.60433197021485 173.52606201171875 47.0911865234375 188.18603515625 46.25347900390625 196.5631103515625 46.25347900390625 200.3328857421875 46.672332763671875 200.3328857421875 46.672332763671875 " />
        <polyline stroke="black" stroke-width="3" stroke-linecap="round" fill="transparent" stroke-linejoin="round" points="93.943359375 150.54869079589844 93.52450561523438 163.53323364257813 92.26791381835938 176.0989227294922 88.079345703125 205.41888427734375 85.98507690429688 215.05255126953125 84.728515625 219.2411193847656 83.89080810546875 220.078857421875 83.89080810546875 219.65997314453125 83.89080810546875 219.65997314453125 " />
        <polyline stroke="black" stroke-width="3" stroke-linecap="round" fill="transparent" stroke-linejoin="round" points="106.509033203125 140.07730102539063 111.53533935546876 135.8887176513672 122.425537109375 127.9304656982422 132.47811889648438 122.48532104492188 141.69296264648438 118.7156219482422 149.23236083984375 117.45904541015624 154.677490234375 118.7156219482422 158.8660888671875 122.48532104492188 163.05462646484375 130.86245727539063 165.98663330078125 142.59042358398438 167.66204833984375 154.3184051513672 167.2431640625 165.62753295898438 165.98663330078125 174.4235076904297 163.4735107421875 181.54405212402344 160.1226806640625 186.98919677734375 156.3529052734375 190.7589111328125 145.88153076171875 195.78515625 145.88153076171875 195.78515625 " />
        <polyline stroke="black" stroke-width="3" stroke-linecap="round" fill="transparent" stroke-linejoin="round" points="72.162841796875 171.4915008544922 86.40390014648438 166.46524047851563 102.32049560546876 161.43894958496094 144.62493896484375 153.48068237304688 171.4317626953125 151.80526733398438 194.04998779296875 151.3863983154297 209.5477294921875 152.22412109375 218.76251220703125 153.48068237304688 221.69451904296875 154.3184051513672 223.788818359375 154.73724365234375 223.788818359375 154.73724365234375 " />
        </svg>