<?xml version="1.0" standalone="no"?>
    <svg width="256" height="256" xmlns="http://www.w3.org/2000/svg" version="1.1">
    <polyline stroke="black" stroke-width="3" stroke-linecap="round" fill="transparent" stroke-linejoin="round" points="60.8138427734375 116.18629455566406 60.525177001953125 119.93849182128906 60.525177001953125 120.80435180664063 60.8138427734375 119.64984130859376 61.39105224609375 115.8976593017578 61.39105224609375 115.8976593017578 " />
        <polyline stroke="black" stroke-width="3" stroke-linecap="round" fill="transparent" stroke-linejoin="round" points="90.54263305664063 82.12803649902344 97.18112182617188 80.39625549316406 101.51052856445313 79.24174499511719 115.65338134765624 76.06681823730469 126.62130737304688 73.46916198730469 139.03237915039063 70.29423522949219 148.84576416015625 67.98518371582031 157.793212890625 66.54203796386719 165.00897216796875 65.96479797363281 169.6270751953125 66.8306884765625 171.93609619140625 69.13972473144531 172.5133056640625 75.48956298828125 171.07025146484375 85.30294799804688 169.0498046875 94.82771301269533 166.74072265625 101.46620178222656 165.00897216796875 101.46620178222656 165.00897216796875 101.46620178222656 " />
        <polyline stroke="black" stroke-width="3" stroke-linecap="round" fill="transparent" stroke-linejoin="round" points="115.65338134765624 67.40794372558594 114.49887084960938 85.59159851074219 114.21026611328124 102.62071228027344 114.21026611328124 113.01136779785156 113.92160034179688 117.34080505371094 113.92160034179688 117.34080505371094 " />
        <polyline stroke="black" stroke-width="3" stroke-linecap="round" fill="transparent" stroke-linejoin="round" points="61.39105224609375 182.2823944091797 61.679718017578125 198.156982421875 62.54559326171875 201.62057495117188 64.56597900390625 205.94998168945313 66.87503051757813 208.259033203125 68.89544677734375 207.10452270507813 70.33856201171875 201.04327392578125 70.33856201171875 201.04327392578125 " />
        <polyline stroke="black" stroke-width="3" stroke-linecap="round" fill="transparent" stroke-linejoin="round" points="91.40853881835938 149.09002685546875 102.66510009765624 143.89471435546875 114.7874755859375 139.27664184570313 126.3326416015625 135.23582458496094 137.30059814453125 132.3495330810547 146.53671264648438 130.61776733398438 155.48419189453125 130.61776733398438 162.41131591796875 132.63815307617188 167.3179931640625 137.83348083496094 169.9156494140625 146.49237060546875 170.49298095703125 158.03750610351563 170.20428466796875 171.02586364746094 169.33837890625 183.4369201660156 168.7611083984375 190.364013671875 167.02935791015625 192.67303466796875 167.02935791015625 192.67303466796875 " />
        <polyline stroke="black" stroke-width="3" stroke-linecap="round" fill="transparent" stroke-linejoin="round" points="100.0673828125 203.64096069335935 113.92160034179688 199.8887939453125 129.507568359375 197.86837768554688 144.22769165039063 196.7138671875 156.9273681640625 195.559326171875 160.6795654296875 194.98208618164065 160.6795654296875 194.98208618164065 " />
        </svg>