<?xml version="1.0" standalone="no"?>
    <svg width="256" height="256" xmlns="http://www.w3.org/2000/svg" version="1.1">
    <polyline stroke="black" stroke-width="3" stroke-linecap="round" fill="transparent" stroke-linejoin="round" points="76 59 76 59 76 63 77 69 79 79 80 82 82 87 83 89 83 91 84 93 84 95 85 97 85 99 85 100 85 101 85 102 85 103 85 103 " />
        <polyline stroke="black" stroke-width="3" stroke-linecap="round" fill="transparent" stroke-linejoin="round" points="84 76 86 75 95 74 104 71 123 69 134 67 137 67 141 67 146 67 147 67 152 67 155 67 155 67 156 67 157 67 158 67 159 67 160 70 161 74 161 92 159 107 156 112 155 115 154 118 154 119 153 119 152 119 151 119 151 119 151 119 " />
        <polyline stroke="black" stroke-width="3" stroke-linecap="round" fill="transparent" stroke-linejoin="round" points="101 44 102 45 103 49 107 64 111 76 115 100 117 118 117 126 117 139 115 146 114 148 112 151 111 153 111 154 111 155 111 155 " />
        <polyline stroke="black" stroke-width="3" stroke-linecap="round" fill="transparent" stroke-linejoin="round" points="90 164 89 165 88 166 87 167 87 172 86 175 86 182 86 188 86 191 86 197 86 203 86 206 86 209 86 211 86 211 " />
        <polyline stroke="black" stroke-width="3" stroke-linecap="round" fill="transparent" stroke-linejoin="round" points="89 159 91 159 96 159 101 159 116 159 128 159 131 158 135 158 139 158 140 158 143 158 145 159 147 161 149 167 150 169 151 175 151 181 151 186 150 189 147 194 145 196 145 197 144 199 143 199 143 199 143 200 143 200 " />
        <polyline stroke="black" stroke-width="3" stroke-linecap="round" fill="transparent" stroke-linejoin="round" points="91 205 100 204 102 204 106 204 107 204 112 204 121 205 125 207 127 207 127 207 127 207 " />
        </svg>