<?xml version="1.0" standalone="no"?>
    <svg width="256" height="256" xmlns="http://www.w3.org/2000/svg" version="1.1">
    <polyline stroke="black" stroke-width="3" stroke-linecap="round" fill="transparent" stroke-linejoin="round" points="78.81329345703125 58.210540771484375 82.99276733398438 67.77041625976563 87.1722412109375 77.33029174804688 92.27337646484376 92.34886169433594 93.48736572265624 97.76190185546876 92.97714233398438 100.95074462890624 91.93429565429688 100.62506103515624 91.5029296875 100.49034118652344 " />
        <polyline stroke="black" stroke-width="3" stroke-linecap="round" fill="transparent" stroke-linejoin="round" points="113.70687866210938 36.02393341064453 122.68771362304688 32.9912109375 131.66854858398438 29.95848846435547 141.4366455078125 26.892845153808594 151.29193115234375 24.566635131835938 169.6129150390625 22.9765625 175.5743408203125 23.601104736328125 183.40521240234375 26.06483459472656 186.5328369140625 27.07341766357422 186.3531494140625 27.65520477294922 186.293701171875 28.338218688964844 185.69708251953125 30.37457275390625 185.4720458984375 33.52208709716797 182.2623291015625 57.361419677734375 177.60784912109375 69.39671325683594 176.32049560546875 71.17108154296875 " />
        <polyline stroke="black" stroke-width="3" stroke-linecap="round" fill="transparent" stroke-linejoin="round" points="91.72998046875 76.2271728515625 109.20556640625 71.46672058105469 126.68115234375 66.70626831054688 135.86102294921875 64.1087646484375 143.696044921875 62.23497009277344 152.84674072265625 60.101409912109375 153.635009765625 60.280364990234375 153.75946044921875 60.308624267578125 " />
        <polyline stroke="black" stroke-width="3" stroke-linecap="round" fill="transparent" stroke-linejoin="round" points="107.05682373046871 94.52081298828125 115.05596923828124 90.510986328125 123.05511474609376 86.50115966796875 131.7918701171875 82.38890075683594 139.22714233398438 79.79347229003906 146.637939453125 78.75018310546875 146.75021362304688 78.76336669921875 146.78402709960938 78.76730346679688 " />
        <polyline stroke="black" stroke-width="3" stroke-linecap="round" fill="transparent" stroke-linejoin="round" points="67.98052978515625 139.4913635253906 75.02508544921875 165.73574829101563 82.06964111328125 191.98013305664065 85.375244140625 205.2537841796875 88.76019287109375 224.4056396484375 90.44482421875 228.9756774902344 90.60922241210938 229.42153930664065 " />
        <polyline stroke="black" stroke-width="3" stroke-linecap="round" fill="transparent" stroke-linejoin="round" points="102.7039794921875 129.93753051757813 125.04562377929688 123.02848815917967 147.38726806640625 116.11944580078124 161.30291748046875 113.714599609375 185.1239013671875 112.36935424804688 194.6533203125 113.162841796875 202.1253662109375 116.41482543945313 216.4678955078125 120.05052185058594 229.38201904296875 124.6792449951172 229.5184326171875 126.13531494140624 228.75 130.789306640625 221.72650146484375 147.34829711914063 214.28680419921875 157.2532958984375 202.72607421875 180.65902709960935 198.16339111328125 191.01165771484375 197.94256591796875 191.49749755859375 " />
        <polyline stroke="black" stroke-width="3" stroke-linecap="round" fill="transparent" stroke-linejoin="round" points="101.94546508789063 167.64981079101563 113.83203125 165.73008728027344 125.71859741210938 163.81036376953125 137.00399780273438 162.01589965820313 159.177001953125 159.64102172851563 166.5819091796875 159.982666015625 173.6180419921875 159.83786010742188 173.91326904296875 159.81533813476563 173.9462890625 159.8127899169922 " />
        <polyline stroke="black" stroke-width="3" stroke-linecap="round" fill="transparent" stroke-linejoin="round" points="99.32427978515624 206.10992431640625 108.4747314453125 204.60247802734375 117.62518310546876 203.09503173828125 137.73666381835938 201.44418334960935 148.270263671875 201.08172607421875 169.06732177734375 200.40704345703125 185.70220947265625 200.79217529296875 193.5084228515625 201.0057678222656 199.22119140625 202.4658203125 199.25726318359375 202.52117919921875 " />
        </svg>