<?xml version="1.0" standalone="no"?>
    <svg width="256" height="256" xmlns="http://www.w3.org/2000/svg" version="1.1">
    <polyline stroke="black" stroke-width="3" stroke-linecap="round" fill="transparent" stroke-linejoin="round" points="77.53509521484375 42.839134216308594 81.06857299804688 58.73994445800781 82.39364624023438 67.57373046875 85.04379272460938 87.00802612304688 85.92718505859375 96.28350830078124 86.36883544921875 104.67559814453124 86.810546875 118.36795043945313 86.810546875 122.78483581542967 86.36883544921875 125.43498229980467 86.36883544921875 125.43498229980467 " />
        <polyline stroke="black" stroke-width="3" stroke-linecap="round" fill="transparent" stroke-linejoin="round" points="86.810546875 72.87399291992188 96.08602905273438 59.181640625 100.50289916992188 54.32305145263672 106.6865234375 48.581085205078125 130.97943115234375 34.447044372558594 148.64697265625 30.0301513671875 156.15570068359375 29.588470458984375 173.8232421875 34.00535583496094 180.4486083984375 39.747314453125 182.6571044921875 44.60588836669922 180.4486083984375 65.36528015136719 174.7066650390625 74.6407470703125 156.597412109375 95.40013122558594 156.597412109375 95.40013122558594 " />
        <polyline stroke="black" stroke-width="3" stroke-linecap="round" fill="transparent" stroke-linejoin="round" points="106.6865234375 88.77479553222656 119.93719482421876 79.49932861328125 127.4459228515625 75.9658203125 136.27972412109375 72.43229675292969 144.67181396484375 69.78216552734375 158.80584716796875 66.69033813476563 164.10614013671875 66.2486572265625 168.52301025390625 67.57373046875 168.52301025390625 71.10723876953125 168.52301025390625 71.10723876953125 " />
        <polyline stroke="black" stroke-width="3" stroke-linecap="round" fill="transparent" stroke-linejoin="round" points="106.244873046875 134.71044921875 121.70394897460938 126.76004028320313 128.77099609375 123.668212890625 136.27972412109375 120.13470458984376 151.297119140625 113.50938415527344 164.54779052734375 107.32574462890624 170.289794921875 105.11727905273438 170.289794921875 105.11727905273438 " />
        <polyline stroke="black" stroke-width="3" stroke-linecap="round" fill="transparent" stroke-linejoin="round" points="135.8380126953125 123.668212890625 127.4459228515625 131.17694091796875 118.61215209960938 142.66085815429688 112.87020874023438 151.49462890625 107.56991577148438 160.3284149169922 101.82797241210938 171.37063598632813 99.17782592773438 177.1125946044922 92.99420166015624 192.57171630859375 90.78573608398438 200.5220947265625 89.460693359375 204.93899536132813 89.01898193359375 206.70574951171875 89.460693359375 206.2640686035156 90.34405517578124 204.497314453125 102.2696533203125 189.92156982421875 115.07861328125 175.7875213623047 129.212646484375 162.97854614257813 137.604736328125 156.79489135742188 161.897705078125 142.66085815429688 177.7984619140625 137.36058044433594 190.165771484375 136.03550720214844 198.557861328125 137.36058044433594 203.41644287109375 140.01071166992188 205.6248779296875 145.31097412109375 202.9747314453125 156.3531951904297 191.93255615234375 171.81231689453125 172.0565185546875 191.68832397460935 172.0565185546875 191.68832397460935 " />
        <polyline stroke="black" stroke-width="3" stroke-linecap="round" fill="transparent" stroke-linejoin="round" points="112.428466796875 195.66351318359375 127.00424194335938 185.06298828125 139.813232421875 179.32102966308594 153.06390380859375 175.7875213623047 170.7314453125 174.4624481201172 176.91510009765625 175.3458251953125 176.91510009765625 175.3458251953125 " />
        <polyline stroke="black" stroke-width="3" stroke-linecap="round" fill="transparent" stroke-linejoin="round" points="158.3641357421875 193.455078125 141.13827514648438 199.63873291015625 136.27972412109375 201.84716796875 135.39633178710938 202.28887939453125 135.39633178710938 202.7305603027344 137.1630859375 203.1722412109375 149.53036499023438 204.497314453125 163.2227783203125 205.38067626953125 172.93988037109375 204.93899536132813 172.93988037109375 204.93899536132813 " />
        </svg>