<?xml version="1.0" standalone="no"?>
    <svg width="256" height="256" xmlns="http://www.w3.org/2000/svg" version="1.1">
    <polyline stroke="black" stroke-width="3" stroke-linecap="round" fill="transparent" stroke-linejoin="round" points="95.82244873046876 77.11114501953125 97.8876953125 91.56790161132813 98.71380615234376 97.76365661621094 100.36602783203124 109.32908630371094 101.19210815429688 120.89447021484376 100.779052734375 125.4380340576172 99.53988647460938 127.09024047851563 99.53988647460938 127.09024047851563 " />
        <polyline stroke="black" stroke-width="3" stroke-linecap="round" fill="transparent" stroke-linejoin="round" points="88.38754272460938 100.24197387695313 96.23553466796876 89.91571044921875 101.19210815429688 85.37216186523438 106.148681640625 81.24165344238281 124.32293701171876 68.85014343261719 136.71444702148438 62.2413330078125 149.10595703125 57.697784423828125 159.84521484375 55.219482421875 166.86712646484375 54.806427001953125 169.75848388671875 55.632530212402344 174.715087890625 61.00218200683594 175.9542236328125 71.32844543457031 171.82373046875 84.9591064453125 161.9105224609375 100.24197387695313 154.888671875 106.85076904296876 154.888671875 106.85076904296876 " />
        <polyline stroke="black" stroke-width="3" stroke-linecap="round" fill="transparent" stroke-linejoin="round" points="97.8876953125 107.26382446289063 116.88803100585938 101.8941650390625 121.84466552734376 100.24197387695313 126.80123901367188 98.17672729492188 135.88836669921875 94.872314453125 140.01885986328125 93.63314819335938 146.62762451171875 91.56790161132813 150.3450927734375 90.32875061035156 151.584228515625 90.7418212890625 151.584228515625 91.98097229003906 151.584228515625 91.98097229003906 " />
        <polyline stroke="black" stroke-width="3" stroke-linecap="round" fill="transparent" stroke-linejoin="round" points="99.53988647460938 137.82955932617188 109.453125 132.87295532226563 114.82275390625 129.9815673828125 121.01852416992188 127.09024047851563 133.82308959960938 121.30752563476563 150.75814819335938 113.04653930664063 154.4755859375 110.98126220703124 159.0191650390625 108.5029754638672 159.0191650390625 108.5029754638672 " />
        <polyline stroke="black" stroke-width="3" stroke-linecap="round" fill="transparent" stroke-linejoin="round" points="78.88739013671875 154.35154724121094 77.23519897460938 167.98220825195313 76.40911865234375 174.17796325683594 75.5830078125 181.19981384277344 75.169921875 193.59130859375 75.169921875 202.67843627929688 75.99603271484375 208.46112060546875 76.8221435546875 211.7655334472656 77.23519897460938 213.00469970703125 77.64825439453125 213.00469970703125 77.64825439453125 213.00469970703125 " />
        <polyline stroke="black" stroke-width="3" stroke-linecap="round" fill="transparent" stroke-linejoin="round" points="95.82244873046876 172.93881225585938 125.14901733398438 159.72119140625 141.6710205078125 154.76458740234375 158.19305419921875 152.2863006591797 170.5845947265625 153.11239624023438 179.2586669921875 156.00375366210938 184.2152099609375 160.54730224609375 187.5196533203125 170.04745483398438 186.28045654296875 182.85202026367188 180.084716796875 195.65655517578125 169.34539794921875 207.22198486328125 169.34539794921875 207.22198486328125 " />
        <polyline stroke="black" stroke-width="3" stroke-linecap="round" fill="transparent" stroke-linejoin="round" points="82.19183349609375 200.6131591796875 104.49652099609376 194.8304748535156 111.931396484375 193.17828369140625 135.062255859375 189.04779052734375 148.27984619140625 186.9825134277344 157.366943359375 186.5694580078125 159.84521484375 186.5694580078125 162.736572265625 186.9825134277344 162.736572265625 186.9825134277344 " />
        <polyline stroke="black" stroke-width="3" stroke-linecap="round" fill="transparent" stroke-linejoin="round" points="83.43096923828125 226.2222900390625 101.60516357421876 224.57009887695313 109.86618041992188 224.15704345703125 118.54022216796876 224.15704345703125 127.21429443359376 224.15704345703125 144.14935302734375 224.57009887695313 162.736572265625 225.80923461914065 162.736572265625 225.80923461914065 " />
        </svg>