<?xml version="1.0" standalone="no"?>
    <svg width="256" height="256" xmlns="http://www.w3.org/2000/svg" version="1.1">
    <polyline stroke="black" stroke-width="3" stroke-linecap="round" fill="transparent" stroke-linejoin="round" points="93 50 93 64 93 78 93 87 95 101 98 113 103 123 106 125 106 125 " />
        <polyline stroke="black" stroke-width="3" stroke-linecap="round" fill="transparent" stroke-linejoin="round" points="91 69 97 64 103 59 121 50 141 43 157 41 163 41 174 42 179 48 181 55 181 64 177 76 166 94 153 107 146 111 146 111 " />
        <polyline stroke="black" stroke-width="3" stroke-linecap="round" fill="transparent" stroke-linejoin="round" points="99 80 114 75 129 70 145 64 157 61 168 60 168 60 " />
        <polyline stroke="black" stroke-width="3" stroke-linecap="round" fill="transparent" stroke-linejoin="round" points="87 124 102 121 117 118 135 114 150 111 162 109 166 109 166 109 " />
        <polyline stroke="black" stroke-width="3" stroke-linecap="round" fill="transparent" stroke-linejoin="round" points="89 168 89 174 89 180 89 194 92 206 94 212 100 222 106 230 111 236 111 236 " />
        <polyline stroke="black" stroke-width="3" stroke-linecap="round" fill="transparent" stroke-linejoin="round" points="74 153 88 150 102 147 122 142 145 138 165 136 178 136 188 138 193 146 194 157 193 173 186 190 177 206 164 215 164 215 " />
        <polyline stroke="black" stroke-width="3" stroke-linecap="round" fill="transparent" stroke-linejoin="round" points="74 197 97 190 120 183 138 178 146 177 162 174 174 174 174 174 " />
        <polyline stroke="black" stroke-width="3" stroke-linecap="round" fill="transparent" stroke-linejoin="round" points="101 229 112 227 123 225 141 217 159 211 179 207 202 206 202 206 " />
        </svg>