<?xml version="1.0" standalone="no"?>
    <svg width="256" height="256" xmlns="http://www.w3.org/2000/svg" version="1.1">
    <polyline stroke="black" stroke-width="3" stroke-linecap="round" fill="transparent" stroke-linejoin="round" points="23 58 28 67 29 69 31 71 32 71 34 72 36 73 37 73 39 73 40 72 40 72 42 71 43 70 43 70 " />
        <polyline stroke="black" stroke-width="3" stroke-linecap="round" fill="transparent" stroke-linejoin="round" points="74 33 84 35 85 35 87 35 88 35 89 35 89 35 89 36 88 37 88 39 87 41 85 43 84 46 81 49 79 53 76 58 74 63 72 67 69 71 66 75 66 75 " />
        <polyline stroke="black" stroke-width="3" stroke-linecap="round" fill="transparent" stroke-linejoin="round" points="28 97 36 91 39 90 42 87 47 85 52 82 57 79 64 75 70 72 77 69 83 67 88 65 93 64 96 64 99 64 100 64 101 65 101 65 " />
        <polyline stroke="black" stroke-width="3" stroke-linecap="round" fill="transparent" stroke-linejoin="round" points="53 31 61 36 61 38 62 39 62 42 62 45 62 49 62 54 62 59 61 66 60 73 59 81 57 90 55 99 53 106 52 113 49 119 48 124 46 128 44 131 41 135 39 137 36 139 34 139 34 139 " />
        <polyline stroke="black" stroke-width="3" stroke-linecap="round" fill="transparent" stroke-linejoin="round" points="61 102 72 107 75 108 79 111 83 112 88 115 92 116 94 118 97 119 99 120 100 121 102 122 103 122 102 122 100 121 100 121 " />
        <polyline stroke="black" stroke-width="3" stroke-linecap="round" fill="transparent" stroke-linejoin="round" points="49 160 59 164 60 163 61 163 63 162 64 160 64 160 " />
        <polyline stroke="black" stroke-width="3" stroke-linecap="round" fill="transparent" stroke-linejoin="round" points="76 139 85 136 86 135 86 136 87 136 86 137 86 139 85 141 84 143 83 147 80 151 79 157 76 165 72 173 68 183 64 193 59 202 54 210 50 216 47 222 44 227 40 230 37 232 34 233 31 233 28 233 28 233 " />
        <polyline stroke="black" stroke-width="3" stroke-linecap="round" fill="transparent" stroke-linejoin="round" points="37 189 46 185 48 186 52 186 57 187 62 188 68 191 73 193 78 196 84 200 88 203 92 207 95 211 97 213 99 215 100 216 101 217 101 216 101 215 101 215 " />
        <polyline stroke="black" stroke-width="3" stroke-linecap="round" fill="transparent" stroke-linejoin="round" points="124 83 124 87 130 93 130 98 130 103 130 109 128 115 127 123 124 131 122 139 120 148 116 157 112 166 108 173 104 179 100 183 97 186 95 187 93 187 93 187 " />
        <polyline stroke="black" stroke-width="3" stroke-linecap="round" fill="transparent" stroke-linejoin="round" points="135 146 128 145 146 151 148 153 152 154 154 155 156 156 158 157 160 158 160 159 160 158 160 157 159 155 158 153 158 153 " />
        <polyline stroke="black" stroke-width="3" stroke-linecap="round" fill="transparent" stroke-linejoin="round" points="176 64 185 68 186 70 186 72 186 75 185 79 184 83 184 87 183 94 180 101 178 110 175 121 170 133 164 147 158 161 152 175 145 190 139 202 133 213 128 221 124 228 121 232 118 236 116 238 113 239 111 238 109 236 109 236 " />
        <polyline stroke="black" stroke-width="3" stroke-linecap="round" fill="transparent" stroke-linejoin="round" points="164 175 173 177 176 179 178 179 181 182 184 183 188 187 190 190 194 194 198 198 203 203 208 208 212 213 217 218 222 223 227 227 232 230 236 233 239 235 241 238 241 238 " />
        </svg>