<?xml version="1.0" standalone="no"?>
    <svg width="256" height="256" xmlns="http://www.w3.org/2000/svg" version="1.1">
    <polyline stroke="black" stroke-width="3" stroke-linecap="round" fill="transparent" stroke-linejoin="round" points="42.44415283203125 96.07424926757813 41.88653564453125 107.22665405273438 40.77130126953125 121.16716003417967 39.65606689453125 134.550048828125 38.540802001953125 143.47198486328125 38.540802001953125 147.93295288085938 40.21368408203125 145.14483642578125 40.21368408203125 145.14483642578125 " />
        <polyline stroke="black" stroke-width="3" stroke-linecap="round" fill="transparent" stroke-linejoin="round" points="70.3251953125 65.40512084960938 69.767578125 75.99990844726563 66.97943115234375 95.51661682128906 63.07611083984375 121.72477722167967 61.40325927734375 141.7991180419922 60.28802490234375 162.4310760498047 59.73040771484375 179.15969848632813 58.615142822265625 193.1001892089844 58.615142822265625 201.46450805664065 58.615142822265625 201.46450805664065 " />
        <polyline stroke="black" stroke-width="3" stroke-linecap="round" fill="transparent" stroke-linejoin="round" points="115.492431640625 73.21180725097656 109.35861206054688 84.36421203613281 101.55194091796876 96.63186645507813 92.0723876953125 108.34188842773438 80.36236572265625 122.28240966796876 80.36236572265625 122.28240966796876 " />
        <polyline stroke="black" stroke-width="3" stroke-linecap="round" fill="transparent" stroke-linejoin="round" points="76.458984375 91.0556640625 93.7452392578125 93.2861328125 106.01287841796876 95.51661682128906 119.95339965820313 98.8623504638672 133.3363037109375 102.20806884765624 142.25820922851563 105.55378723144533 147.83441162109375 108.34188842773438 147.83441162109375 108.34188842773438 " />
        <polyline stroke="black" stroke-width="3" stroke-linecap="round" fill="transparent" stroke-linejoin="round" points="111.03146362304688 131.76194763183594 110.47384643554688 148.49057006835938 110.47384643554688 158.52774047851563 108.80099487304688 169.12252807617188 107.12811279296876 176.37158203125 103.78240966796876 180.83255004882813 98.2061767578125 181.9477996826172 98.2061767578125 181.9477996826172 " />
        <polyline stroke="black" stroke-width="3" stroke-linecap="round" fill="transparent" stroke-linejoin="round" points="69.20993041992188 154.6243896484375 63.07611083984375 162.4310760498047 63.07611083984375 168.5648956298828 65.30657958984375 173.02586364746094 70.8828125 174.69873046875 70.8828125 174.69873046875 " />
        <polyline stroke="black" stroke-width="3" stroke-linecap="round" fill="transparent" stroke-linejoin="round" points="117.722900390625 156.29725646972656 126.08721923828124 161.8734588623047 131.10580444335938 166.8920440673828 136.1243896484375 171.35301208496094 139.4700927734375 174.69873046875 139.4700927734375 174.69873046875 " />
        <polyline stroke="black" stroke-width="3" stroke-linecap="round" fill="transparent" stroke-linejoin="round" points="166.23590087890625 60.38653564453125 157.87158203125 79.90324401855469 150.06488037109375 94.40138244628906 142.25820922851563 107.78427124023438 136.6820068359375 117.82144165039063 133.8939208984375 123.39764404296876 132.2210693359375 123.39764404296876 132.2210693359375 123.39764404296876 " />
        <polyline stroke="black" stroke-width="3" stroke-linecap="round" fill="transparent" stroke-linejoin="round" points="162.89013671875 62.61701965332031 179.0611572265625 65.40512084960938 190.21356201171875 69.30845642089844 202.481201171875 74.32704162597656 214.1912841796875 79.34562683105469 224.7860107421875 85.47944641113281 224.7860107421875 85.47944641113281 " />
        <polyline stroke="black" stroke-width="3" stroke-linecap="round" fill="transparent" stroke-linejoin="round" points="154.52587890625 111.12998962402344 147.83441162109375 120.60954284667967 141.70059204101563 130.64671325683594 136.6820068359375 141.2415008544922 133.3363037109375 149.04818725585938 131.66342163085938 154.0667724609375 132.7786865234375 156.29725646972656 136.1243896484375 154.0667724609375 141.14297485351563 148.49057006835938 150.06488037109375 138.45339965820313 164.00537109375 127.30099487304688 180.7340087890625 117.26382446289063 197.462646484375 111.12998962402344 211.9608154296875 110.57237243652344 221.9979248046875 115.59095764160156 229.80462646484375 126.1857452392578 234.265625 150.72105407714844 230.36224365234375 174.14111328125 223.6707763671875 191.9849548339844 217.5369873046875 199.79165649414065 202.481201171875 208.15594482421875 184.0797119140625 207.04071044921875 184.0797119140625 207.04071044921875 " />
        <polyline stroke="black" stroke-width="3" stroke-linecap="round" fill="transparent" stroke-linejoin="round" points="163.44781494140625 133.992431640625 160.65966796875 142.91436767578125 157.87158203125 153.5091552734375 155.08349609375 165.77679443359375 153.41064453125 175.25634765625 152.29541015625 180.83255004882813 152.29541015625 180.83255004882813 " />
        <polyline stroke="black" stroke-width="3" stroke-linecap="round" fill="transparent" stroke-linejoin="round" points="181.2916259765625 136.78053283691406 179.0611572265625 145.7024688720703 174.6002197265625 159.08535766601563 169.02398681640625 173.58348083496094 161.21728515625 197.5611572265625 161.21728515625 197.5611572265625 " />
        </svg>