<?xml version="1.0" standalone="no"?>
    <svg width="256" height="256" xmlns="http://www.w3.org/2000/svg" version="1.1">
    <polyline stroke="black" stroke-width="3" stroke-linecap="round" fill="transparent" stroke-linejoin="round" points="129.96826171875 45.97206115722656 131.57220458984375 50.529441833496094 133.1761474609375 55.086822509765625 134.58309936523438 60.57551574707031 137.28594970703125 78.39138793945313 137.389404296875 90.09593200683594 129.00277709960938 102.6958465576172 126.3338623046875 105.03207397460938 " />
        <polyline stroke="black" stroke-width="3" stroke-linecap="round" fill="transparent" stroke-linejoin="round" points="75.922119140625 116.72404479980473 101.440673828125 112.2637176513672 126.959228515625 107.80339050292967 140.36581420898438 105.86705017089844 172.98284912109375 103.39073181152344 179.752197265625 103.12059020996094 194.66595458984375 102.41970825195313 199.90228271484375 102.13973999023438 208.19110107421875 101.53195190429688 208.60821533203125 101.45980834960938 208.647705078125 101.45297241210938 208.6514892578125 101.45233154296876 " />
        <polyline stroke="black" stroke-width="3" stroke-linecap="round" fill="transparent" stroke-linejoin="round" points="84.88769531249999 157.66732788085938 91.91329956054688 155.120849609375 98.93890380859376 152.57437133789063 125.96539306640624 145.85675048828125 139.26791381835938 142.91827392578125 166.74310302734375 140.93032836914063 177.273681640625 143.00193786621094 178.7413330078125 144.66099548339844 178.88812255859375 144.82693481445313 " />
        <polyline stroke="black" stroke-width="3" stroke-linecap="round" fill="transparent" stroke-linejoin="round" points="122.85443115234376 120.34063720703122 120.14642333984376 127.15704345703124 117.43841552734376 133.97344970703125 111.32357788085938 153.16848754882813 104.07577514648438 175.92137145996094 100.505126953125 187.3231506347656 90.7559814453125 209.09249877929688 84.16448974609375 220.6043701171875 78.85238647460938 225.86395263671875 78.32122802734375 226.38992309570313 " />
        <polyline stroke="black" stroke-width="3" stroke-linecap="round" fill="transparent" stroke-linejoin="round" points="120.9488525390625 161.56875610351563 130.56503295898438 168.52572631835938 140.18121337890625 175.48269653320313 160.07489013671875 187.8170166015625 169.8397216796875 193.26705932617188 179.528076171875 199.0509033203125 186.186279296875 202.9451904296875 199.42523193359375 209.54583740234375 206.98126220703125 212.59793090820313 207.3309326171875 212.7601318359375 207.3619384765625 212.7745361328125 " />
        </svg>