<?xml version="1.0" standalone="no"?>
    <svg width="256" height="256" xmlns="http://www.w3.org/2000/svg" version="1.1">
    <polyline stroke="black" stroke-width="3" stroke-linecap="round" fill="transparent" stroke-linejoin="round" points="114.49890136718753 36.81324768066406 118.82830810546876 46.915260314941406 123.15771484375 57.01727294921875 124.02362060546876 58.460418701171875 124.60089111328124 59.903564453125 124.60089111328124 59.903564453125 " />
        <polyline stroke="black" stroke-width="3" stroke-linecap="round" fill="transparent" stroke-linejoin="round" points="95.4493408203125 95.69361877441406 112.1898193359375 91.07554626464844 128.9302978515625 86.45747375488281 141.91864013671875 81.26214599609375 145.67080688476563 79.24174499511719 147.40261840820313 77.79859924316406 147.40261840820313 77.79859924316406 " />
        <polyline stroke="black" stroke-width="3" stroke-linecap="round" fill="transparent" stroke-linejoin="round" points="125.75531005859375 127.44284057617188 134.1256103515625 124.55654907226563 142.49591064453125 121.67025756835938 145.38217163085938 120.51573181152344 153.1751708984375 116.47491455078124 153.1751708984375 116.47491455078124 " />
        <polyline stroke="black" stroke-width="3" stroke-linecap="round" fill="transparent" stroke-linejoin="round" points="122.00323486328125 100.31166076660156 117.09652709960938 130.9063720703125 112.1898193359375 161.50108337402344 106.12863159179688 182.2823944091797 100.93325805664063 192.67303466796875 97.4697265625 198.44561767578125 93.14028930664063 200.754638671875 93.14028930664063 200.754638671875 " />
        <polyline stroke="black" stroke-width="3" stroke-linecap="round" fill="transparent" stroke-linejoin="round" points="136.72332763671875 168.71682739257813 149.13436889648438 185.168701171875 161.54541015625 201.62057495117188 185.790283203125 221.8246154785156 199.35589599609375 228.751708984375 207.72613525390625 231.349365234375 207.72613525390625 231.349365234375 " />
        </svg>