<?xml version="1.0" standalone="no"?>
    <svg width="256" height="256" xmlns="http://www.w3.org/2000/svg" version="1.1">
    <polyline stroke="black" stroke-width="3" stroke-linecap="round" fill="transparent" stroke-linejoin="round" points="73.09527587890625 74.59527587890625 74.87841796875 81.13346862792969 76.66156005859375 88.26603698730469 77.850341796875 95.39860534667967 79.0390625 101.93679809570313 79.0390625 106.09747314453124 79.0390625 106.09747314453124 79.0390625 106.09747314453124 " />
        <polyline stroke="black" stroke-width="3" stroke-linecap="round" fill="transparent" stroke-linejoin="round" points="85.5772705078125 62.11326599121094 95.6817626953125 57.952606201171875 108.75811767578124 54.386322021484375 123.61767578125 51.41441345214844 141.4490966796875 49.036888122558594 159.280517578125 47.848121643066406 175.9232177734375 47.848121643066406 190.1883544921875 47.848121643066406 200.88720703125 48.4425048828125 208.019775390625 49.63127136230469 213.36920166015625 52.0087890625 215.7467041015625 57.35821533203125 213.36920166015625 69.84022521972656 203.2647705078125 84.69975280761719 189.593994140625 96.58737182617188 170.57379150390625 104.90870666503906 170.57379150390625 104.90870666503906 " />
        <polyline stroke="black" stroke-width="3" stroke-linecap="round" fill="transparent" stroke-linejoin="round" points="100.43679809570313 66.27394104003906 101.03118896484376 75.18965148925781 101.62554931640624 83.510986328125 102.8143310546875 90.64356994628906 106.9749755859375 94.80422973632813 106.9749755859375 94.80422973632813 " />
        <polyline stroke="black" stroke-width="3" stroke-linecap="round" fill="transparent" stroke-linejoin="round" points="142.63787841796875 77.56718444824219 131.93899536132813 90.64356994628906 131.93899536132813 90.64356994628906 " />
        <polyline stroke="black" stroke-width="3" stroke-linecap="round" fill="transparent" stroke-linejoin="round" points="93.30422973632813 112.63566589355467 104.59747314453124 107.880615234375 118.26824951171876 103.71994018554688 131.93899536132813 99.5592803955078 145.015380859375 96.58737182617188 156.30859375 94.20985412597656 163.441162109375 94.20985412597656 171.16815185546875 94.80422973632813 171.16815185546875 94.80422973632813 " />
        <polyline stroke="black" stroke-width="3" stroke-linecap="round" fill="transparent" stroke-linejoin="round" points="121.83453369140624 137.0052947998047 115.89071655273438 154.24234008789063 108.75811767578124 171.47938537597656 108.75811767578124 171.47938537597656 " />
        <polyline stroke="black" stroke-width="3" stroke-linecap="round" fill="transparent" stroke-linejoin="round" points="73.09527587890625 182.77264404296875 85.5772705078125 179.2063446044922 104.00311279296876 175.6400604248047 127.1839599609375 172.66815185546875 152.14794921875 172.0737762451172 172.35693359375 172.66815185546875 190.78271484375 172.66815185546875 202.075927734375 173.26254272460938 209.80291748046875 175.04568481445313 209.80291748046875 175.04568481445313 " />
        </svg>