<?xml version="1.0" standalone="no"?>
    <svg width="256" height="256" xmlns="http://www.w3.org/2000/svg" version="1.1">
    <polyline stroke="black" stroke-width="3" stroke-linecap="round" fill="transparent" stroke-linejoin="round" points="73.6378173828125 80.83319091796875 73.1038818359375 94.71478271484376 73.1038818359375 105.92683410644533 73.1038818359375 112.33372497558594 74.70562744140625 113.93545532226563 74.70562744140625 111.79981994628906 74.70562744140625 111.79981994628906 " />
        <polyline stroke="black" stroke-width="3" stroke-linecap="round" fill="transparent" stroke-linejoin="round" points="90.72283935546876 70.68893432617188 105.13836669921876 66.41767883300781 125.96075439453124 60.54469299316406 146.78314208984375 55.739532470703125 163.33428955078125 54.671722412109375 175.6141357421875 55.739532470703125 183.0888671875 59.47688293457031 186.826171875 66.95158386230469 185.2244873046875 82.43490600585938 177.21588134765625 97.91822814941406 166.0037841796875 108.59637451171876 147.8509521484375 117.6728057861328 131.2998046875 120.34234619140624 131.2998046875 120.34234619140624 " />
        <polyline stroke="black" stroke-width="3" stroke-linecap="round" fill="transparent" stroke-linejoin="round" points="92.3245849609375 114.4693603515625 92.85845947265624 121.94406127929688 94.99411010742188 127.28314208984376 98.19757080078124 128.88485717773438 103.53662109375 127.28314208984376 112.613037109375 117.6728057861328 125.42681884765624 97.91822814941406 135.57107543945313 83.50271606445313 139.84234619140625 78.16365051269531 142.51190185546875 75.49411010742188 143.5797119140625 76.56192016601563 140.91015625 82.43490600585938 129.1641845703125 102.723388671875 114.74868774414063 121.41015625 104.60443115234376 131.02049255371094 96.5958251953125 137.42738342285156 91.7906494140625 140.63082885742188 89.655029296875 140.63082885742188 91.7906494140625 137.96128845214844 99.79925537109376 132.62220764160156 120.62167358398438 120.34234619140624 136.10498046875 112.33372497558594 148.38485717773438 107.528564453125 154.2578125 106.99465942382813 154.2578125 106.99465942382813 " />
        <polyline stroke="black" stroke-width="3" stroke-linecap="round" fill="transparent" stroke-linejoin="round" points="109.94354248046876 151.30897521972656 103.53662109375 163.05494689941406 94.460205078125 175.33482360839844 82.18032836914063 186.01296997070313 71.50216674804688 194.0215759277344 60.82403564453125 200.428466796875 54.417144775390625 202.5640869140625 50.679779052734375 203.6319274902344 50.679779052734375 201.49627685546875 56.552764892578125 198.8267517089844 75.7734375 191.88595581054688 107.27398681640624 182.27560424804688 141.44406127929688 176.93653869628906 169.207275390625 175.8687286376953 190.56353759765625 176.4026336669922 204.4451904296875 178.0043487548828 210.318115234375 183.8773498535156 210.318115234375 183.8773498535156 " />
        </svg>