<?xml version="1.0" standalone="no"?>
    <svg width="256" height="256" xmlns="http://www.w3.org/2000/svg" version="1.1">
    <polyline stroke="black" stroke-width="3" stroke-linecap="round" fill="transparent" stroke-linejoin="round" points="70.91940307617188 86.70896911621094 72.687744140625 101.29782104492188 74.01400756835938 113.67623901367188 74.45611572265625 122.07589721679688 74.45611572265625 127.38092041015624 74.45611572265625 127.38092041015624 " />
        <polyline stroke="black" stroke-width="3" stroke-linecap="round" fill="transparent" stroke-linejoin="round" points="100.5391845703125 72.56221008300781 116.45428466796876 66.37300109863281 134.579833984375 61.51005554199219 152.70538330078125 58.8575439453125 166.8521728515625 59.29962158203125 175.69384765625 61.51005554199219 180.9989013671875 65.0467529296875 183.6513671875 70.79386901855469 180.9989013671875 83.61436462402344 170.8309326171875 97.76113891601563 163.3154296875 104.8345184326172 163.3154296875 104.8345184326172 " />
        <polyline stroke="black" stroke-width="3" stroke-linecap="round" fill="transparent" stroke-linejoin="round" points="100.98129272460938 82.73019409179688 101.42333984375 93.7823486328125 102.74960327148438 101.73991394042967 104.5179443359375 106.1607666015625 108.93881225585938 107.04495239257813 119.10678100585938 100.41363525390624 128.390625 88.91940307617188 135.02191162109375 80.96185302734375 138.11654663085938 76.98307800292969 139.44281005859375 76.09890747070313 139.00070190429688 77.86724853515625 133.69564819335938 89.36148071289063 119.990966796875 107.48704528808594 104.96005249023438 122.07589721679688 98.77084350585938 127.38092041015624 98.77084350585938 127.38092041015624 " />
        <polyline stroke="black" stroke-width="3" stroke-linecap="round" fill="transparent" stroke-linejoin="round" points="95.67623901367188 124.28630065917967 104.96005249023438 120.74961853027344 130.158935546875 113.23416137695313 144.30575561523438 111.02371215820313 153.1474609375 110.58163452148438 156.68414306640625 110.58163452148438 157.126220703125 110.58163452148438 157.126220703125 110.58163452148438 " />
        <polyline stroke="black" stroke-width="3" stroke-linecap="round" fill="transparent" stroke-linejoin="round" points="133.25360107421875 134.45428466796875 126.18017578125 145.06436157226563 121.75933837890624 151.2535858154297 104.5179443359375 171.58953857421875 88.60287475585938 186.6204833984375 74.01400756835938 197.23052978515625 63.846038818359375 202.53558349609375 58.540985107421875 202.9776611328125 57.2147216796875 202.093505859375 58.098876953125 199.883056640625 66.05645751953125 194.5780334472656 85.066162109375 188.83090209960935 112.033447265625 185.73629760742188 139.88485717773438 185.29421997070313 151.37908935546875 185.73629760742188 181.883056640625 189.27297973632813 201.7769775390625 194.13592529296875 201.7769775390625 194.13592529296875 " />
        </svg>