<?xml version="1.0" standalone="no"?>
    <svg width="256" height="256" xmlns="http://www.w3.org/2000/svg" version="1.1">
    <polyline stroke="black" stroke-width="3" stroke-linecap="round" fill="transparent" stroke-linejoin="round" points="74.2669677734375 86.804443359375 77.09555053710938 105.39225769042967 79.115966796875 121.15147399902344 79.115966796875 130.041259765625 79.115966796875 130.041259765625 " />
        <polyline stroke="black" stroke-width="3" stroke-linecap="round" fill="transparent" stroke-linejoin="round" points="90.8343505859375 58.11457824707031 106.59359741210938 48.416595458984375 123.96917724609376 41.14311218261719 142.55694580078125 37.10228729248047 157.912109375 36.29412078857422 169.2264404296875 37.506370544433594 176.0958251953125 40.33494567871094 180.1365966796875 45.18394470214844 182.15704345703125 50.841094970703125 177.71209716796875 78.31871032714844 166.8018798828125 98.1187744140625 154.679443359375 113.8779754638672 154.679443359375 113.8779754638672 " />
        <polyline stroke="black" stroke-width="3" stroke-linecap="round" fill="transparent" stroke-linejoin="round" points="102.95684814453124 85.59219360351563 103.36093139648438 89.22894287109375 105.78546142578124 97.3105926513672 109.01806640625 98.1187744140625 113.8670654296875 96.0983428955078 113.8670654296875 96.0983428955078 " />
        <polyline stroke="black" stroke-width="3" stroke-linecap="round" fill="transparent" stroke-linejoin="round" points="155.08349609375 52.457420349121094 146.59774780273438 73.06564331054688 135.283447265625 92.05752563476563 130.03036499023438 98.92692565917967 130.03036499023438 98.92692565917967 " />
        <polyline stroke="black" stroke-width="3" stroke-linecap="round" fill="transparent" stroke-linejoin="round" points="102.148681640625 128.02085876464844 118.716064453125 122.76779174804688 126.39364624023438 119.939208984375 146.19369506835938 111.4534912109375 146.19369506835938 111.4534912109375 " />
        <polyline stroke="black" stroke-width="3" stroke-linecap="round" fill="transparent" stroke-linejoin="round" points="107.40179443359376 163.98419189453125 104.16912841796876 169.641357421875 96.89559936523438 180.95567321777344 88.40988159179688 191.0577392578125 83.56088256835938 195.50265502929688 83.56088256835938 195.50265502929688 " />
        <polyline stroke="black" stroke-width="3" stroke-linecap="round" fill="transparent" stroke-linejoin="round" points="65.78125 203.58428955078125 79.92416381835938 197.9271545410156 126.39364624023438 183.3801727294922 151.04266357421875 179.74343872070313 173.67132568359375 179.74343872070313 196.2999267578125 182.16790771484375 207.6142578125 184.99652099609375 217.71630859375 188.63323974609375 217.71630859375 188.63323974609375 " />
        </svg>