<?xml version="1.0" standalone="no"?>
    <svg width="256" height="256" xmlns="http://www.w3.org/2000/svg" version="1.1">
    <polyline stroke="black" stroke-width="3" stroke-linecap="round" fill="transparent" stroke-linejoin="round" points="70.750244140625 71.47703552246094 79.22274780273438 68.70538330078125 87.69525146484375 65.93373107910156 106.51815795898438 59.632232666015625 124.10302734375 57.0052490234375 141.22845458984375 56.67132568359375 147.26559448242188 58.050994873046875 160.3197021484375 61.47772216796875 160.5645751953125 61.618011474609375 160.5894775390625 61.63226318359375 156.38104248046875 64.80094909667969 141.60433959960938 82.73651123046875 121.25079345703124 104.66551208496094 115.7960205078125 112.24479675292967 116.0487060546875 112.06948852539063 " />
        <polyline stroke="black" stroke-width="3" stroke-linecap="round" fill="transparent" stroke-linejoin="round" points="111.7825927734375 102.8284149169922 119.538818359375 103.7690887451172 127.2950439453125 104.7097625732422 132.48651123046875 105.9756317138672 136.74188232421875 107.6814422607422 139.963623046875 110.90179443359376 139.98910522460938 110.998046875 " />
        <polyline stroke="black" stroke-width="3" stroke-linecap="round" fill="transparent" stroke-linejoin="round" points="73.879638671875 167.0541229248047 96.4517822265625 157.5847625732422 119.02392578125 148.1154022216797 127.81893920898438 144.82778930664063 137.67010498046875 140.9285125732422 137.9642333984375 140.79913330078125 137.99313354492188 140.78643798828125 " />
        <polyline stroke="black" stroke-width="3" stroke-linecap="round" fill="transparent" stroke-linejoin="round" points="118.11944580078124 125.73159790039063 115.72296142578124 148.42324829101563 113.32647705078124 171.11489868164063 110.97235107421876 180.93345642089844 102.35043334960938 195.76287841796875 97.53582763671876 199.43746948242188 86.72286987304688 204.06536865234375 80.9892578125 205.31918334960935 71.12094116210938 205.44168090820313 67.71701049804688 204.70501708984375 65.6602783203125 202.8800048828125 65.6236572265625 202.8048095703125 65.62167358398438 202.8006896972656 66.74969482421875 202.47271728515625 71.091064453125 201.1380615234375 93.41464233398438 196.01889038085935 106.0458984375 194.164794921875 139.84088134765625 193.34619140625 165.1092529296875 195.566650390625 175.56121826171875 197.81753540039065 177.5855712890625 202.47589111328125 177.28173828125 204.35891723632813 177.8056640625 207.57977294921875 176.554931640625 208.61569213867188 " />
        </svg>