<?xml version="1.0" standalone="no"?>
    <svg width="256" height="256" xmlns="http://www.w3.org/2000/svg" version="1.1">
    <polyline stroke="black" stroke-width="3" stroke-linecap="round" fill="transparent" stroke-linejoin="round" points="79.11596679687499 58.51866912841797 85.17721557617188 55.690086364746094 91.23846435546876 52.86150360107422 97.70379638671876 50.032928466796875 119.12017822265624 42.75944519042969 132.45489501953125 39.122703552246094 144.57733154296875 37.10228729248047 153.4671630859375 36.698204040527344 158.72021484375 37.10228729248047 161.14471435546875 38.71862030029297 161.952880859375 45.18394470214844 157.912109375 57.71049499511719 149.022216796875 72.25747680664063 138.11203002929688 84.78404235839844 128.00994873046875 94.48202514648438 128.00994873046875 94.48202514648438 " />
        <polyline stroke="black" stroke-width="3" stroke-linecap="round" fill="transparent" stroke-linejoin="round" points="107.40170288085938 85.99627685546875 115.07931518554688 88.82485961914063 122.75692749023438 91.6534423828125 129.62631225585938 94.88609313964844 144.57733154296875 102.15957641601563 151.04266357421875 105.39225769042967 159.9324951171875 110.24124145507813 165.589599609375 114.28204345703124 168.01416015625 118.72697448730467 168.01416015625 118.72697448730467 " />
        <polyline stroke="black" stroke-width="3" stroke-linecap="round" fill="transparent" stroke-linejoin="round" points="74.6710205078125 163.5801544189453 82.752685546875 161.55972290039063 90.8343505859375 159.53929138183594 107.80584716796876 156.306640625 125.181396484375 153.073974609375 147.40594482421875 148.6290740966797 156.2957763671875 145.3964080810547 161.952880859375 140.54742431640625 161.952880859375 140.54742431640625 " />
        <polyline stroke="black" stroke-width="3" stroke-linecap="round" fill="transparent" stroke-linejoin="round" points="127.20181274414063 134.08206176757813 125.181396484375 147.41680908203125 123.16098022460938 160.75155639648438 119.92831420898438 175.2985076904297 113.8670654296875 189.44140625 113.8670654296875 189.44140625 " />
        <polyline stroke="black" stroke-width="3" stroke-linecap="round" fill="transparent" stroke-linejoin="round" points="58.91180419921875 212.8782043457031 72.650634765625 208.43328857421875 86.38946533203125 203.9883728027344 100.12826538085938 199.54345703125 114.67523193359376 196.31082153320313 128.818115234375 193.8863220214844 155.08349609375 190.65365600585935 175.28759765625 189.44140625 189.8345947265625 189.03732299804688 198.3203125 188.63323974609375 198.3203125 188.63323974609375 " />
        </svg>