<?xml version="1.0" standalone="no"?>
    <svg width="256" height="256" xmlns="http://www.w3.org/2000/svg" version="1.1">
    <polyline stroke="black" stroke-width="3" stroke-linecap="round" fill="transparent" stroke-linejoin="round" points="94.8419189453125 87.45797729492188 95.62167358398438 97.98452758789063 96.40142822265624 110.46044921875 97.571044921875 133.85281372070313 98.35079956054688 153.736328125 98.74066162109376 170.89073181152344 98.74066162109376 183.75653076171875 97.9609375 192.333740234375 96.40142822265624 197.79196166992188 94.8419189453125 200.91094970703125 92.892578125 202.08056640625 89.38372802734375 202.47042846679688 84.31536865234375 201.30081176757813 79.24700927734375 198.18182373046875 79.24700927734375 198.18182373046875 " />
        <polyline stroke="black" stroke-width="3" stroke-linecap="round" fill="transparent" stroke-linejoin="round" points="102.639404296875 140.8705291748047 94.8419189453125 146.3287353515625 72.22933959960938 159.19454956054688 60.14324951171875 165.4324951171875 51.9559326171875 170.89073181152344 49.226806640625 173.61984252929688 49.226806640625 173.61984252929688 " />
        <polyline stroke="black" stroke-width="3" stroke-linecap="round" fill="transparent" stroke-linejoin="round" points="163.84942626953125 122.5465087890625 147.8646240234375 140.48065185546875 133.04949951171875 156.85531616210938 122.52291870117188 170.11099243164063 113.55584716796876 181.41729736328125 113.55584716796876 181.41729736328125 " />
        <polyline stroke="black" stroke-width="3" stroke-linecap="round" fill="transparent" stroke-linejoin="round" points="169.697509765625 152.17684936523438 174.3759765625 156.46543884277344 186.0721435546875 166.60214233398438 207.905029296875 186.09576416015625 222.72021484375 199.7413330078125 236.36572265625 213.38687133789065 240.65435791015625 217.67547607421875 240.65435791015625 217.67547607421875 " />
        </svg>