<?xml version="1.0" standalone="no"?>
    <svg width="256" height="256" xmlns="http://www.w3.org/2000/svg" version="1.1">
    <polyline stroke="black" stroke-width="3" stroke-linecap="round" fill="transparent" stroke-linejoin="round" points="104.28231811523438 73.07257080078125 106.72052001953124 94.20361328125 107.9395751953125 105.17547607421876 110.37777709960938 131.99563598632813 110.7841796875 144.18658447265625 109.5650634765625 153.1266326904297 105.90777587890624 161.2539520263672 101.8441162109375 163.692138671875 96.15499877929688 164.91123962402344 90.05950927734375 162.87942504882813 83.5576171875 155.5648193359375 83.5576171875 155.5648193359375 " />
        <polyline stroke="black" stroke-width="3" stroke-linecap="round" fill="transparent" stroke-linejoin="round" points="102.65682983398438 87.70175170898438 84.7767333984375 105.17547607421876 62.8330078125 129.55743408203125 43.32745361328125 152.31390380859375 37.6383056640625 159.22210693359375 36.01287841796875 161.2539520263672 36.01287841796875 161.2539520263672 " />
        <polyline stroke="black" stroke-width="3" stroke-linecap="round" fill="transparent" stroke-linejoin="round" points="177.02178955078125 104.36273193359376 172.5517578125 111.27098083496094 167.6754150390625 118.58555603027344 162.392578125 126.30648803710938 157.5162353515625 133.2147216796875 148.1697998046875 147.4375 140.4488525390625 158.40939331054688 134.35336303710938 165.72396850585938 134.35336303710938 165.72396850585938 " />
        <polyline stroke="black" stroke-width="3" stroke-linecap="round" fill="transparent" stroke-linejoin="round" points="181.08544921875 134.43382263183594 185.555419921875 137.2783660888672 200.997314453125 147.4375 211.156494140625 155.97119140625 216.03289794921875 160.8475799560547 222.94110107421875 169.3812713623047 222.94110107421875 169.3812713623047 " />
        </svg>