<?xml version="1.0" standalone="no"?>
    <svg width="256" height="256" xmlns="http://www.w3.org/2000/svg" version="1.1">
    <polyline stroke="black" stroke-width="3" stroke-linecap="round" fill="transparent" stroke-linejoin="round" points="99.479248046875 116.5623016357422 100.17333984375 155.61968994140625 99.11614990234376 189.437255859375 97.84066772460938 201.334228515625 96.0076904296875 212.08551025390625 93.71966552734376 224.82925415039065 92.805908203125 227.576416015625 92.30770874023438 228.9715576171875 92.3038330078125 228.982421875 92.30294799804688 228.98504638671875 92.30279541015624 228.9854431152344 91.55709838867188 228.63577270507813 87.82138061523438 225.97341918945313 84.53436279296875 223.114990234375 74.953125 210.9739990234375 70.89266967773438 203.4420166015625 63.822723388671875 187.52044677734375 63.971527099609375 187.5332946777344 " />
        <polyline stroke="black" stroke-width="3" stroke-linecap="round" fill="transparent" stroke-linejoin="round" points="88.9556884765625 141.49038696289063 83.8082275390625 153.66659545898438 77.91851806640625 165.11814880371094 64.96957397460938 184.29534912109375 58.543212890625 191.4769287109375 46.43634033203125 202.0050048828125 45.783782958984375 202.5616455078125 " />
        <polyline stroke="black" stroke-width="3" stroke-linecap="round" fill="transparent" stroke-linejoin="round" points="154.8184814453125 117.12054443359376 151.95111083984375 127.5918426513672 142.90008544921875 153.1973114013672 132.14459228515625 173.27801513671875 126.4013671875 181.79100036621097 114.710205078125 195.5611572265625 110.48779296875 198.9151611328125 105.671142578125 202.60308837890625 106.092041015625 201.16842651367188 " />
        <polyline stroke="black" stroke-width="3" stroke-linecap="round" fill="transparent" stroke-linejoin="round" points="170.967041015625 122.44967651367188 175.41455078125 131.7321014404297 193.30419921875 155.92010498046875 203.5826416015625 164.96397399902344 217.0072021484375 177.20269775390625 244.036865234375 190.92581176757813 245.9949951171875 192.47210693359375 246.1907958984375 192.62673950195313 " />
        </svg>