<?xml version="1.0" standalone="no"?>
    <svg width="256" height="256" xmlns="http://www.w3.org/2000/svg" version="1.1">
    <polyline stroke="black" stroke-width="3" stroke-linecap="round" fill="transparent" stroke-linejoin="round" points="92 64 92 70 92 89 92 115 92 144 91 169 91 183 91 191 90 193 89 194 86 194 80 194 70 186 66 179 66 179 " />
        <polyline stroke="black" stroke-width="3" stroke-linecap="round" fill="transparent" stroke-linejoin="round" points="119 92 117 94 108 102 95 115 86 121 76 130 55 146 40 156 26 163 26 163 " />
        <polyline stroke="black" stroke-width="3" stroke-linecap="round" fill="transparent" stroke-linejoin="round" points="136 112 127 141 117 158 112 166 103 178 99 181 99 181 " />
        <polyline stroke="black" stroke-width="3" stroke-linecap="round" fill="transparent" stroke-linejoin="round" points="184 114 189 127 193 142 196 153 199 158 201 167 204 173 206 182 207 186 207 186 " />
        </svg>