<?xml version="1.0" standalone="no"?>
    <svg width="256" height="256" xmlns="http://www.w3.org/2000/svg" version="1.1">
    <polyline stroke="black" stroke-width="3" stroke-linecap="round" fill="transparent" stroke-linejoin="round" points="59.5068359375 96.88424682617188 68.61923217773438 94.31634521484376 79.01229858398438 91.08670043945313 90.39697265625 87.58856201171875 108.6573486328125 81.53460693359375 115.39193725585938 79.15242004394531 126.28094482421876 74.48287963867188 128.84063720703125 70.709716796875 128.33477783203125 68.9736328125 127.20013427734376 68.46493530273438 126.219482421875 68.5791015625 " />
        <polyline stroke="black" stroke-width="3" stroke-linecap="round" fill="transparent" stroke-linejoin="round" points="64.84747314453125 135.03379821777344 63.501953125 150.050048828125 59.14520263671875 177.60997009277344 56.793914794921875 187.56936645507813 54.37457275390625 195.67434692382813 53.53387451171875 197.09066772460935 53.5279541015625 197.10061645507813 53.525634765625 197.1044921875 53.525360107421875 197.10504150390625 56.755950927734375 196.46408081054688 63.055908203125 193.91427612304688 81.27401733398438 179.33714294433594 99.1468505859375 159.67498779296875 105.36090087890624 151.84349060058594 110.919189453125 145.76907348632813 117.256591796875 140.12060546875 120.16845703125 138.7917938232422 120.40679931640624 138.68304443359375 " />
        <polyline stroke="black" stroke-width="3" stroke-linecap="round" fill="transparent" stroke-linejoin="round" points="108.27890014648438 127.95262145996094 117.07968139648438 147.94482421875 122.08502197265624 160.06231689453125 128.84042358398438 180.17019653320313 129.89642333984375 185.45944213867188 128.21798706054688 187.95089721679688 127.14315795898438 186.41546630859375 " />
        <polyline stroke="black" stroke-width="3" stroke-linecap="round" fill="transparent" stroke-linejoin="round" points="148.560302734375 103.39651489257813 152.57257080078125 107.91355895996094 158.408203125 113.51109313964844 159.8641357421875 114.29461669921876 160.1405029296875 114.44338989257813 " />
        <polyline stroke="black" stroke-width="3" stroke-linecap="round" fill="transparent" stroke-linejoin="round" points="181.5771484375 95.13021850585938 176.3084716796875 118.01724243164063 169.590087890625 142.64532470703125 148.28546142578125 205.84747314453125 141.68978881835938 218.19146728515625 130.70211791992188 231.08157348632813 130.88510131835938 229.64996337890625 133.55966186523438 224.1630859375 " />
        <polyline stroke="black" stroke-width="3" stroke-linecap="round" fill="transparent" stroke-linejoin="round" points="149.373046875 135.30474853515625 158.6009521484375 133.72048950195313 168.30999755859375 131.5777587890625 187.014404296875 127.26345825195313 192.8133544921875 125.91744995117188 200.07952880859375 124.53781127929688 202.730224609375 124.70852661132813 203.4384765625 124.99993896484376 203.7501220703125 126.0582275390625 204.267333984375 130.16184997558594 205.3411865234375 144.78038024902344 205.4857177734375 178.7408905029297 202.34796142578125 209.6248779296875 200.30078125 220.46142578125 196.906982421875 234.06912231445313 193.89453125 242.61358642578125 192.64154052734375 242.0177001953125 191.1556396484375 240.48193359375 183.735595703125 236.974609375 167.91644287109375 226.35302734375 167.2264404296875 225.31155395507813 " />
        </svg>