<?xml version="1.0" standalone="no"?>
    <svg width="256" height="256" xmlns="http://www.w3.org/2000/svg" version="1.1">
    <polyline stroke="black" stroke-width="3" stroke-linecap="round" fill="transparent" stroke-linejoin="round" points="68.72982788085938 113.10983276367188 82.40460205078125 104.77154541015624 89.74227905273438 100.7691650390625 95.745849609375 97.43386840820313 105.418212890625 91.76382446289063 111.42181396484376 88.09500122070313 114.09005737304688 86.42733764648438 114.423583984375 85.76026916503906 114.423583984375 85.76026916503906 " />
        <polyline stroke="black" stroke-width="3" stroke-linecap="round" fill="transparent" stroke-linejoin="round" points="73.73275756835938 129.11932373046875 73.39926147460938 136.45701599121094 73.39926147460938 143.79470825195313 73.39926147460938 150.13180541992188 73.73275756835938 159.47067260742188 74.0662841796875 164.8071746826172 74.73336791992188 167.80894470214844 77.06808471679688 168.47601318359375 82.73812866210938 165.14071655273438 89.40875244140625 159.47067260742188 95.07879638671876 153.46710205078125 100.415283203125 146.12942504882813 100.415283203125 146.12942504882813 " />
        <polyline stroke="black" stroke-width="3" stroke-linecap="round" fill="transparent" stroke-linejoin="round" points="113.75653076171876 137.12408447265625 116.75830078125 152.46652221679688 118.75949096679688 159.13714599609375 122.76190185546876 168.47601318359375 127.4312744140625 175.48016357421875 132.43426513671875 176.14724731445313 132.43426513671875 176.14724731445313 " />
        <polyline stroke="black" stroke-width="3" stroke-linecap="round" fill="transparent" stroke-linejoin="round" points="159.7838134765625 73.75314331054688 161.7850341796875 77.08847045898438 163.7862548828125 80.09024047851563 167.78857421875 85.09320068359375 169.1226806640625 86.7608642578125 174.459228515625 89.42912292480469 174.459228515625 89.42912292480469 " />
        <polyline stroke="black" stroke-width="3" stroke-linecap="round" fill="transparent" stroke-linejoin="round" points="193.136962890625 82.75848388671875 182.7974853515625 101.769775390625 173.4586181640625 118.11279296875 149.11083984375 162.80599975585938 141.10604858398438 180.81668090820313 137.43722534179688 189.822021484375 135.76959228515625 192.8238220214844 135.43603515625 193.82440185546875 135.43603515625 193.82440185546875 " />
        <polyline stroke="black" stroke-width="3" stroke-linecap="round" fill="transparent" stroke-linejoin="round" points="141.10604858398438 109.44097900390624 146.776123046875 107.77334594726563 153.11322021484375 106.10568237304688 160.11737060546875 104.43801879882813 173.1251220703125 101.769775390625 179.79571533203125 100.7691650390625 191.8028564453125 99.76858520507813 202.475830078125 101.10270690917967 211.14764404296875 104.43801879882813 217.4847412109375 111.4421844482422 220.48651123046875 119.78045654296876 222.48773193359375 156.8024139404297 218.81884765625 175.81370544433594 214.1494140625 186.15316772460935 211.814697265625 189.48849487304688 204.47698974609375 195.15850830078125 195.80517578125 196.49264526367188 188.801025390625 193.1573486328125 188.801025390625 193.1573486328125 " />
        </svg>