<?xml version="1.0" standalone="no"?>
    <svg width="256" height="256" xmlns="http://www.w3.org/2000/svg" version="1.1">
    <polyline stroke="black" stroke-width="3" stroke-linecap="round" fill="transparent" stroke-linejoin="round" points="66.44451904296875 121.55557250976563 72.00006103515625 118.22222900390624 82.00006103515625 110.4444580078125 90.888916015625 104.88890075683594 96.4444580078125 100.4444580078125 103.1112060546875 96.00001525878906 106.4444580078125 93.7777862548828 107.5556640625 93.7777862548828 107.5556640625 93.7777862548828 " />
        <polyline stroke="black" stroke-width="3" stroke-linecap="round" fill="transparent" stroke-linejoin="round" points="62.00006103515625 170.4444580078125 63.11114501953125 183.77780151367188 62.00006103515625 196 62.00006103515625 202.66668701171875 63.11114501953125 206 63.11114501953125 204.888916015625 72.00006103515625 196 80.888916015625 186 88.666748046875 173.7777862548828 94.2222900390625 161.55557250976563 96.4444580078125 152.6666717529297 97.5556640625 149.33334350585938 97.5556640625 149.33334350585938 " />
        <polyline stroke="black" stroke-width="3" stroke-linecap="round" fill="transparent" stroke-linejoin="round" points="107.5556640625 157.11111450195313 109.77783203125 159.33334350585938 109.77783203125 159.33334350585938 " />
        <polyline stroke="black" stroke-width="3" stroke-linecap="round" fill="transparent" stroke-linejoin="round" points="124.2222900390625 98.22222900390624 125.3333740234375 99.33334350585938 125.3333740234375 99.33334350585938 " />
        <polyline stroke="black" stroke-width="3" stroke-linecap="round" fill="transparent" stroke-linejoin="round" points="153.1112060546875 62.66667175292969 149.77783203125 84.88890075683594 145.3333740234375 111.55555725097656 139.77783203125 139.33334350585938 132 172.6666717529297 126.4444580078125 189.33334350585935 116.4444580078125 208.22222900390625 113.1112060546875 211.5555725097656 106.4444580078125 216 106.4444580078125 216 " />
        <polyline stroke="black" stroke-width="3" stroke-linecap="round" fill="transparent" stroke-linejoin="round" points="126.4444580078125 134.88890075683594 132 130.4444580078125 144.2222900390625 119.33334350585938 156.4444580078125 109.33334350585938 168.666748046875 101.55555725097656 179.77783203125 96.00001525878906 188.666748046875 91.55555725097656 198.666748046875 87.11111450195313 202 86 203.1112060546875 86 204.2222900390625 86 204.2222900390625 87.11111450195313 204.2222900390625 88.22222900390625 205.3333740234375 97.11111450195313 206.4444580078125 109.33334350585938 206.4444580078125 123.7777862548828 207.5556640625 153.7777862548828 207.5556640625 173.7777862548828 205.3333740234375 189.33334350585935 202 202.66668701171875 195.3333740234375 220.4444580078125 190.888916015625 228.22222900390625 187.5556640625 232.66668701171875 185.3333740234375 234.888916015625 184.2222900390625 234.888916015625 176.4444580078125 228.22222900390625 172 223.77780151367188 149.77783203125 194.888916015625 149.77783203125 194.888916015625 " />
        </svg>