<?xml version="1.0" standalone="no"?>
    <svg width="256" height="256" xmlns="http://www.w3.org/2000/svg" version="1.1">
    <polyline stroke="black" stroke-width="3" stroke-linecap="round" fill="transparent" stroke-linejoin="round" points="44.479736328125 101.48019409179688 54.421112060546875 100.0994110107422 75.97445678710938 96.17483520507813 86.94918823242188 93.50559997558594 100.68173217773438 89.87222290039063 107.06158447265624 87.66169738769531 108.03533935546876 87.36601257324219 109.098388671875 87.2017822265625 109.34506225585938 87.16366577148438 " />
        <polyline stroke="black" stroke-width="3" stroke-linecap="round" fill="transparent" stroke-linejoin="round" points="50.006195068359375 145.94134521484375 49.487060546875 166.73081970214844 48.801513671875 176.12303161621094 47.42034912109375 194.652099609375 44.93695068359375 207.98013305664065 44.2259521484375 212.04421997070313 43.83123779296875 213.4207763671875 43.438690185546875 213.834228515625 43.41180419921875 213.86257934570313 44.3905029296875 213.72286987304688 49.365692138671875 212.53533935546875 54.48712158203125 210.58624267578125 70.6663818359375 200.67010498046875 78.33602905273438 193.9239196777344 92.06723022460938 174.4834442138672 91.64471435546876 172.98651123046875 " />
        <polyline stroke="black" stroke-width="3" stroke-linecap="round" fill="transparent" stroke-linejoin="round" points="129.416015625 107.5459442138672 131.77450561523438 108.8443603515625 132.44223022460938 109.22442626953124 " />
        <polyline stroke="black" stroke-width="3" stroke-linecap="round" fill="transparent" stroke-linejoin="round" points="171.9306640625 78.38935852050781 166.35443115234375 114.05809020996094 154.251220703125 154.6353759765625 145.84521484375 171.35556030273438 127.27093505859376 203.54428100585935 115.02239990234376 217.05572509765625 102.6507568359375 228.53500366210935 103.726806640625 224.13430786132813 " />
        <polyline stroke="black" stroke-width="3" stroke-linecap="round" fill="transparent" stroke-linejoin="round" points="131.10873413085938 132.654052734375 141.1328125 130.6307830810547 161.42523193359375 128.3856658935547 181.499267578125 128.04034423828125 188.6756591796875 128.5037078857422 194.2601318359375 129.4859619140625 200.54693603515625 130.6550750732422 201.21746826171875 131.77178955078125 203.68426513671875 137.2423553466797 211.0611572265625 166.92318725585938 212.051025390625 185.2147521972656 210.640625 213.8392333984375 209.0723876953125 220.353515625 205.78851318359375 225.5855407714844 204.483154296875 226.518310546875 201.9215087890625 228.16552734375 195.361572265625 228.82046508789065 185.7882080078125 226.87744140625 184.5472412109375 226.02572631835935 " />
        </svg>