<?xml version="1.0" standalone="no"?>
    <svg width="256" height="256" xmlns="http://www.w3.org/2000/svg" version="1.1">
    <polyline stroke="black" stroke-width="3" stroke-linecap="round" fill="transparent" stroke-linejoin="round" points="83.151123046875 49.279296875 80.38427734375 52.50726318359375 73.92840576171875 58.96319580078125 66.55014038085938 65.41912841796875 56.405120849609375 73.25848388671875 44.876678466796875 82.02009582519531 35.19281005859375 91.24285888671876 28.275726318359375 98.15992736816406 23.664306640625 102.77130126953124 21.358642578125 105.999267578125 20.436370849609375 107.3826904296875 19.9752197265625 108.3049774169922 19.9752197265625 109.22723388671876 19.9752197265625 110.14952087402344 19.9752197265625 111.07180786132813 19.9752197265625 111.99406433105467 20.89752197265625 113.838623046875 22.28094482421875 117.52774047851563 24.58660888671875 145.6571502685547 24.58660888671875 166.40835571289063 24.58660888671875 185.31500244140625 24.58660888671875 196.84347534179688 25.508880615234375 201.454833984375 27.35345458984375 202.37713623046875 32.42596435546875 200.99371337890625 41.648681640625 192.6932373046875 52.716033935546875 179.78135681152344 64.70565795898438 162.25811767578125 64.70565795898438 162.25811767578125 " />
        <polyline stroke="black" stroke-width="3" stroke-linecap="round" fill="transparent" stroke-linejoin="round" points="73.46722412109375 143.81259155273438 79.00091552734375 155.34104919433594 82.69003295898438 160.87472534179688 89.60711669921875 169.1751708984375 94.21844482421876 173.78656005859375 94.21844482421876 173.78656005859375 " />
        <polyline stroke="black" stroke-width="3" stroke-linecap="round" fill="transparent" stroke-linejoin="round" points="108.51373291015624 85.70919799804688 112.66400146484376 89.3983154296875 120.96444702148438 95.39309692382813 130.64837646484375 96.77651977539063 130.64837646484375 96.77651977539063 " />
        <polyline stroke="black" stroke-width="3" stroke-linecap="round" fill="transparent" stroke-linejoin="round" points="153.70526123046875 58.50205993652344 147.71044921875 78.33099365234375 141.2545166015625 99.08219909667967 134.33746337890625 120.2945556640625 124.653564453125 157.646728515625 121.42559814453124 172.40313720703125 115.89193725585938 191.77093505859375 112.66400146484376 200.99371337890625 110.3582763671875 202.8382568359375 110.3582763671875 202.8382568359375 " />
        <polyline stroke="black" stroke-width="3" stroke-linecap="round" fill="transparent" stroke-linejoin="round" points="99.29098510742188 120.2945556640625 110.3582763671875 114.76089477539063 121.42559814453124 110.61065673828124 155.08868408203125 104.61587524414063 176.301025390625 106.92156982421876 191.05743408203125 113.838623046875 201.2025146484375 125.82821655273438 208.11956787109375 145.6571502685547 208.11956787109375 165.94720458984375 203.04705810546875 183.93161010742188 197.05224609375 194.9989013671875 190.5963134765625 201.91598510742188 180.91241455078125 206.52737426757813 166.61712646484375 206.52737426757813 166.61712646484375 206.52737426757813 " />
        </svg>