<?xml version="1.0" standalone="no"?>
    <svg width="256" height="256" xmlns="http://www.w3.org/2000/svg" version="1.1">
    <polyline stroke="black" stroke-width="3" stroke-linecap="round" fill="transparent" stroke-linejoin="round" points="41.75 110.24612426757813 55.82861328125 105.34921264648438 72.9677734375 99.84019470214844 105.4097900390625 86.37370300292969 113.36724853515624 82.70101928710938 117.65203857421876 79.64045715332031 117.65203857421876 79.64045715332031 " />
        <polyline stroke="black" stroke-width="3" stroke-linecap="round" fill="transparent" stroke-linejoin="round" points="55.82861328125 108.40977478027344 52.768035888671875 125.5489501953125 47.259002685546875 157.37884521484375 45.42266845703125 174.5180206298828 44.810546875 190.4329833984375 45.42266845703125 199.0025634765625 48.483245849609375 203.89947509765625 54.6043701171875 203.89947509765625 62.56182861328125 194.10565185546875 74.80410766601563 176.3543701171875 83.98580932617188 156.1546173095703 83.98580932617188 156.1546173095703 " />
        <polyline stroke="black" stroke-width="3" stroke-linecap="round" fill="transparent" stroke-linejoin="round" points="89.49481201171875 156.76673889160156 94.3917236328125 171.45745849609375 99.9007568359375 183.08761596679688 105.4097900390625 188.59661865234375 111.53091430664063 184.9239501953125 111.53091430664063 184.9239501953125 " />
        <polyline stroke="black" stroke-width="3" stroke-linecap="round" fill="transparent" stroke-linejoin="round" points="137.23968505859375 79.02833557128906 142.1365966796875 83.92524719238281 147.03350830078125 88.21003723144531 152.54248046875 90.04638671875 152.54248046875 90.04638671875 " />
        <polyline stroke="black" stroke-width="3" stroke-linecap="round" fill="transparent" stroke-linejoin="round" points="179.4754638671875 31.28350067138672 168.45745849609375 66.17396545410156 153.15460205078125 106.5734405517578 139.6881103515625 139.6275634765625 130.50640869140625 165.33631896972656 123.773193359375 183.08761596679688 119.4884033203125 195.32986450195313 117.0399169921875 199.61468505859375 117.0399169921875 199.61468505859375 " />
        <polyline stroke="black" stroke-width="3" stroke-linecap="round" fill="transparent" stroke-linejoin="round" points="118.26416015625 115.75514221191406 137.23968505859375 107.79766845703124 159.2757568359375 100.45230102539063 178.8634033203125 96.77963256835938 195.39044189453125 96.77963256835938 207.0206298828125 101.06442260742188 214.365966796875 110.24612426757813 219.26287841796875 132.28219604492188 219.26287841796875 160.43942260742188 216.814453125 177.57858276367188 213.75384521484375 186.76028442382813 210.0811767578125 192.88140869140625 205.79638671875 196.5541076660156 202.1236572265625 197.7783203125 197.8388671875 197.7783203125 190.4935302734375 190.4329833984375 190.4935302734375 190.4329833984375 " />
        </svg>