<?xml version="1.0" standalone="no"?>
    <svg width="256" height="256" xmlns="http://www.w3.org/2000/svg" version="1.1">
    <polyline stroke="black" stroke-width="3" stroke-linecap="round" fill="transparent" stroke-linejoin="round" points="73.65850830078125 96.16751098632813 74.27059936523438 106.5734405517578 74.88272094726563 116.9793701171875 74.88272094726563 126.77317810058594 74.88272094726563 133.5064239501953 74.27059936523438 136.56700134277344 73.04638671875 135.3427734375 73.04638671875 128.60952758789063 76.71905517578125 116.9793701171875 82.22808837890625 107.79766845703124 90.185546875 99.84019470214844 104.87628173828124 88.82215881347656 119.5670166015625 78.41622924804688 136.7061767578125 68.62240600585938 153.8453369140625 60.66493225097656 167.9239501953125 57.6043701171875 180.166259765625 58.21649169921875 186.89947509765625 62.50128173828125 191.18426513671875 68.62240600585938 191.18426513671875 82.08891296386719 182.61468505859375 99.2280731201172 158.74224853515625 123.71261596679688 158.74224853515625 123.71261596679688 " />
        <polyline stroke="black" stroke-width="3" stroke-linecap="round" fill="transparent" stroke-linejoin="round" points="21.016754150390625 165.33631896972656 36.93170166015625 159.21519470214844 54.6829833984375 151.25772094726563 86.51287841796875 137.7912139892578 122.01544189453124 124.32472229003906 155.68170166015625 115.1430206298828 177.10565185546875 109.02189636230467 194.24481201171875 104.12498474121094 203.426513671875 101.67652893066406 208.32342529296875 100.45230102539063 210.7718505859375 100.45230102539063 208.935546875 103.51287841796876 201.5902099609375 110.24612426757813 201.5902099609375 110.24612426757813 " />
        <polyline stroke="black" stroke-width="3" stroke-linecap="round" fill="transparent" stroke-linejoin="round" points="97.53091430664063 185.53607177734375 97.53091430664063 199.61468505859375 96.30670166015624 206.34793090820313 95.08245849609376 211.24481201171875 93.85821533203124 213.6932678222656 93.85821533203124 212.46905517578125 96.30670166015624 206.34793090820313 106.10049438476563 193.4935302734375 117.73065185546876 180.02703857421875 134.25772094726563 167.17266845703125 151.39691162109375 156.76673889160156 166.087646484375 151.25772094726563 177.7177734375 148.80926513671875 184.4510498046875 150.0334930419922 188.73583984375 153.70616149902344 188.73583984375 161.05152893066406 180.166259765625 177.57858276367188 161.80279541015625 195.9419860839844 124.46389770507813 217.365966796875 107.93682861328124 221.6507568359375 99.36724853515624 220.426513671875 95.694580078125 219.81442260742188 95.694580078125 217.97805786132813 101.81570434570313 215.52963256835935 120.79119873046876 210.6327209472656 142.82730102539063 204.51156616210935 163.63916015625 197.7783203125 189.347900390625 188.59661865234375 189.347900390625 188.59661865234375 " />
        </svg>