<?xml version="1.0" standalone="no"?>
    <svg width="256" height="256" xmlns="http://www.w3.org/2000/svg" version="1.1">
    <polyline stroke="black" stroke-width="3" stroke-linecap="round" fill="transparent" stroke-linejoin="round" points="106 55 113 65 120 75 128 84 128 84 " />
        <polyline stroke="black" stroke-width="3" stroke-linecap="round" fill="transparent" stroke-linejoin="round" points="165 52 152 75 139 98 118 122 92 150 67 169 48 178 42 178 42 178 " />
        <polyline stroke="black" stroke-width="3" stroke-linecap="round" fill="transparent" stroke-linejoin="round" points="96 97 115 104 134 111 156 120 173 128 186 135 189 139 189 139 " />
        <polyline stroke="black" stroke-width="3" stroke-linecap="round" fill="transparent" stroke-linejoin="round" points="90 143 90 155 90 167 93 181 97 193 99 200 102 201 102 201 " />
        <polyline stroke="black" stroke-width="3" stroke-linecap="round" fill="transparent" stroke-linejoin="round" points="111 150 129 147 147 144 164 144 173 144 176 149 177 164 177 183 170 199 162 206 159 207 159 207 " />
        <polyline stroke="black" stroke-width="3" stroke-linecap="round" fill="transparent" stroke-linejoin="round" points="139 137 139 154 139 171 139 188 139 200 139 206 139 206 " />
        <polyline stroke="black" stroke-width="3" stroke-linecap="round" fill="transparent" stroke-linejoin="round" points="94 177 112 176 130 175 151 175 167 175 174 175 174 175 " />
        <polyline stroke="black" stroke-width="3" stroke-linecap="round" fill="transparent" stroke-linejoin="round" points="97 218 118 218 139 218 164 218 183 218 183 218 " />
        </svg>