<?xml version="1.0" standalone="no"?>
    <svg width="256" height="256" xmlns="http://www.w3.org/2000/svg" version="1.1">
    <polyline stroke="black" stroke-width="3" stroke-linecap="round" fill="transparent" stroke-linejoin="round" points="122 62 122 62 121 62 119 65 114 75 110 84 105 94 100 103 95 113 90 121 86 129 82 136 78 142 74 150 72 152 70 156 68 159 67 160 " />
        <polyline stroke="black" stroke-width="3" stroke-linecap="round" fill="transparent" stroke-linejoin="round" points="118 69 119 69 120 69 121 69 123 69 125 70 128 71 131 72 134 74 138 78 143 83 151 92 156 99 162 108 168 117 175 126 182 136 188 145 194 153 200 161 207 170 211 176 215 180 218 184 219 186 " />
        </svg>