<?xml version="1.0" standalone="no"?>
    <svg width="256" height="256" xmlns="http://www.w3.org/2000/svg" version="1.1">
    <polyline stroke="black" stroke-width="3" stroke-linecap="round" fill="transparent" stroke-linejoin="round" points="39.4495849609375 95.63633728027344 41.429595947265625 104.8766632080078 41.7596435546875 107.186767578125 43.40972900390625 117.74714660644533 43.40972900390625 119.06721496582033 44.0697021484375 123.02734375 44.0697021484375 123.6873779296875 44.0697021484375 123.6873779296875 44.0697021484375 122.69734191894533 44.0697021484375 120.0572509765625 47.699859619140625 112.13694763183594 57.600250244140625 100.91651916503906 68.49066162109375 92.99623107910156 80.70111083984375 88.37605285644531 93.2415771484375 85.40594482421875 104.46200561523438 84.74592590332031 112.38229370117188 86.72598266601563 117.33248901367188 89.03607177734375 119.97259521484376 92.00619506835938 120.962646484375 95.63633728027344 117.6624755859375 109.49684143066406 115.02239990234376 114.7770538330078 115.02239990234376 114.7770538330078 " />
        <polyline stroke="black" stroke-width="3" stroke-linecap="round" fill="transparent" stroke-linejoin="round" points="19.318817138671875 149.09832763671875 32.189300537109375 143.4881134033203 59.91033935546875 139.19796752929688 86.641357421875 138.2079315185547 91.92153930664063 137.5478973388672 104.46200561523438 134.9077911376953 113.37234497070313 132.5977020263672 119.31256103515624 130.28762817382813 123.272705078125 127.64753723144533 123.272705078125 125.33743286132813 118.65252685546876 120.3872528076172 118.65252685546876 120.3872528076172 118.65252685546876 120.3872528076172 " />
        <polyline stroke="black" stroke-width="3" stroke-linecap="round" fill="transparent" stroke-linejoin="round" points="82.02114868164063 116.75711059570313 77.07095336914063 133.2577362060547 75.4208984375 138.8679656982422 67.17059326171875 164.93893432617188 65.85055541992188 168.8990936279297 63.210418701171875 179.1294403076172 62.22039794921875 183.089599609375 62.22039794921875 183.089599609375 " />
        <polyline stroke="black" stroke-width="3" stroke-linecap="round" fill="transparent" stroke-linejoin="round" points="73.44085693359375 139.19796752929688 82.35116577148438 132.2677001953125 84.001220703125 130.94764709472656 96.211669921875 123.02734375 98.85174560546876 121.70730590820313 105.78207397460938 118.73719787597656 113.37234497070313 116.75711059570313 119.642578125 117.08714294433594 124.59274291992188 119.397216796875 127.5628662109375 124.67741394042967 126.90283203125 140.18801879882813 122.28268432617188 152.72845458984375 116.012451171875 162.62884521484375 114.03231811523438 165.2689666748047 114.03231811523438 165.2689666748047 " />
        <polyline stroke="black" stroke-width="3" stroke-linecap="round" fill="transparent" stroke-linejoin="round" points="100.17184448242188 130.6176300048828 96.87173461914063 142.82809448242188 95.88168334960938 145.7982177734375 89.28143310546875 163.618896484375 89.28143310546875 163.618896484375 89.28143310546875 163.618896484375 " />
        <polyline stroke="black" stroke-width="3" stroke-linecap="round" fill="transparent" stroke-linejoin="round" points="75.75091552734375 156.02859497070313 88.951416015625 151.73841857910156 91.59149169921876 150.4183807373047 104.7919921875 147.77828979492188 114.03231811523438 147.77828979492188 115.02239990234376 147.77828979492188 115.02239990234376 147.77828979492188 " />
        <polyline stroke="black" stroke-width="3" stroke-linecap="round" fill="transparent" stroke-linejoin="round" points="141.42340087890625 102.236572265625 151.65380859375 99.26646423339844 179.37481689453125 91.34616088867188 185.31500244140625 89.69610595703125 199.50555419921875 84.08589172363281 208.08587646484375 80.7857666015625 213.36602783203125 79.13569641113281 215.34619140625 78.14566040039063 215.6761474609375 77.81565856933594 215.6761474609375 77.81565856933594 " />
        <polyline stroke="black" stroke-width="3" stroke-linecap="round" fill="transparent" stroke-linejoin="round" points="194.55535888671875 81.11579895019531 189.9351806640625 88.7060546875 187.955078125 92.6662139892578 174.0946044921875 119.72723388671876 170.4644775390625 125.99745178222656 159.24407958984375 145.13818359375 146.37359619140625 165.5989532470703 134.49310302734375 183.41964721679688 125.91278076171876 195.30007934570313 123.93270874023438 197.940185546875 123.93270874023438 197.940185546875 " />
        <polyline stroke="black" stroke-width="3" stroke-linecap="round" fill="transparent" stroke-linejoin="round" points="138.45327758789063 168.23904418945313 153.9638671875 157.67864990234375 175.74468994140625 143.4881134033203 189.27520751953125 136.88787841796875 193.2353515625 137.2178955078125 193.2353515625 138.2079315185547 188.28515625 152.0684356689453 178.384765625 173.84925842285156 169.1444091796875 192.989990234375 164.854248046875 207.18051147460935 165.18426513671875 215.76080322265625 167.82440185546875 222.361083984375 174.754638671875 225.33120727539065 183.3349609375 224.0111389160156 196.2054443359375 215.100830078125 204.125732421875 200.58029174804688 205.77581787109375 183.7496337890625 204.125732421875 177.8094024658203 202.8056640625 175.16932678222656 202.8056640625 175.16932678222656 " />
        </svg>