<?xml version="1.0" standalone="no"?>
    <svg width="256" height="256" xmlns="http://www.w3.org/2000/svg" version="1.1">
    <polyline stroke="black" stroke-width="3" stroke-linecap="round" fill="transparent" stroke-linejoin="round" points="93.6539306640625 69.11416625976563 85.73699951171875 84.94807434082031 68.68511962890625 115.3979034423828 58.941162109375 130.622802734375 48.58819580078125 144.02073669433594 42.49822998046875 150.11068725585938 40.062255859375 150.11068725585938 41.889251708984375 145.2387237548828 47.979217529296875 136.10377502441406 60.76812744140625 122.7058563232422 77.82003784179688 107.48094177246094 100.9619140625 91.64703369140624 129.58474731445313 75.81312561035156 160.6435546875 61.80621337890625 184.3944091796875 52.6712646484375 201.4462890625 47.19029235839844 210.581298828125 45.363304138183594 213.626220703125 45.363304138183594 213.626220703125 45.363304138183594 " />
        <polyline stroke="black" stroke-width="3" stroke-linecap="round" fill="transparent" stroke-linejoin="round" points="58.941162109375 158.6366424560547 81.47402954101563 153.15567016601563 103.39788818359376 145.84771728515625 133.23870849609375 134.8857879638672 164.29754638671875 123.31484985351563 185.6124267578125 116.00689697265624 202.664306640625 109.91693115234376 211.1903076171875 105.65394592285156 213.626220703125 101.39097595214844 213.626220703125 101.39097595214844 " />
        <polyline stroke="black" stroke-width="3" stroke-linecap="round" fill="transparent" stroke-linejoin="round" points="139.32867431640625 87.38406372070313 130.1937255859375 100.781982421875 121.05877685546876 121.48785400390624 110.09686279296876 153.76467895507813 104.61590576171876 171.42556762695313 100.9619140625 186.6504821777344 99.743896484375 196.3944091796875 100.9619140625 200.04840087890625 105.22488403320313 195.17642211914065 105.22488403320313 195.17642211914065 " />
        <polyline stroke="black" stroke-width="3" stroke-linecap="round" fill="transparent" stroke-linejoin="round" points="136.8927001953125 97.73699951171876 136.28369140625 120.26986694335938 133.84771728515625 143.41172790527344 132.62973022460938 161.0726318359375 132.62973022460938 175.68853759765625 133.23870849609375 182.9964904785156 138.11068725585938 182.9964904785156 138.11068725585938 182.9964904785156 " />
        <polyline stroke="black" stroke-width="3" stroke-linecap="round" fill="transparent" stroke-linejoin="round" points="180.1314697265625 80.07609558105469 178.9134521484375 109.91693115234376 177.6954345703125 144.62973022460938 177.08642578125 168.9895782470703 177.6954345703125 208.5743408203125 179.5224609375 237.1971740722656 179.5224609375 237.1971740722656 " />
        </svg>