<?xml version="1.0" standalone="no"?>
    <svg width="256" height="256" xmlns="http://www.w3.org/2000/svg" version="1.1">
    <polyline stroke="black" stroke-width="3" stroke-linecap="round" fill="transparent" stroke-linejoin="round" points="96.79766845703124 50.259010314941406 95.57342529296876 60.66493225097656 90.676513671875 79.64045715332031 82.71905517578125 100.45230102539063 72.92523193359375 116.36724853515624 64.9677734375 126.16107177734376 58.84661865234375 131.6700897216797 54.56182861328125 133.5064239501953 54.56182861328125 131.6700897216797 60.07086181640625 124.93684387207033 73.537353515625 114.53091430664063 96.185546875 102.28865051269533 130.46389770507813 90.04638671875 167.190673828125 83.31312561035156 195.347900390625 79.02833557128906 216.7718505859375 75.35565185546875 225.3414306640625 74.13143920898438 229.01416015625 74.13143920898438 225.95361328125 77.19200134277344 225.95361328125 77.19200134277344 " />
        <polyline stroke="black" stroke-width="3" stroke-linecap="round" fill="transparent" stroke-linejoin="round" points="60.6829833984375 178.8028106689453 70.476806640625 172.06956481933594 85.77963256835938 164.11209106445313 112.71261596679688 153.09405517578125 135.36080932617188 145.74868774414063 162.2938232421875 139.01544189453125 181.269287109375 134.73065185546875 195.347900390625 130.44586181640625 202.0811767578125 126.16107177734376 202.0811767578125 120.6520538330078 202.0811767578125 120.6520538330078 " />
        <polyline stroke="black" stroke-width="3" stroke-linecap="round" fill="transparent" stroke-linejoin="round" points="126.79119873046876 116.36724853515624 122.50640869140624 126.77317810058594 116.38531494140624 142.07601928710938 107.20361328125 165.33631896972656 100.4703369140625 181.86338806152344 94.34921264648438 194.7177734375 90.676513671875 202.0631103515625 90.676513671875 202.0631103515625 " />
        <polyline stroke="black" stroke-width="3" stroke-linecap="round" fill="transparent" stroke-linejoin="round" points="142.09405517578125 102.9007568359375 143.93038940429688 121.26416015625 137.1971435546875 151.8698272705078 130.46389770507813 174.5180206298828 124.3427734375 192.88140869140625 120.0579833984375 205.73580932617188 119.44586181640624 211.85693359375 121.28219604492188 210.0205993652344 121.28219604492188 210.0205993652344 " />
        <polyline stroke="black" stroke-width="3" stroke-linecap="round" fill="transparent" stroke-linejoin="round" points="176.3724365234375 98.0038604736328 175.148193359375 112.08245849609376 170.8634033203125 140.85179138183594 167.190673828125 168.3968963623047 165.3543701171875 191.65719604492188 165.96649169921875 214.91751098632813 165.96649169921875 214.91751098632813 " />
        </svg>