<?xml version="1.0" standalone="no"?>
    <svg width="256" height="256" xmlns="http://www.w3.org/2000/svg" version="1.1">
    <polyline stroke="black" stroke-width="3" stroke-linecap="round" fill="transparent" stroke-linejoin="round" points="75.3131103515625 50.259010314941406 75.92523193359375 67.39817810058594 71.64044189453125 83.31312561035156 65.51931762695313 101.06442260742188 58.78607177734375 118.20359802246094 52.6649169921875 129.833740234375 48.380126953125 136.56700134277344 48.380126953125 136.56700134277344 " />
        <polyline stroke="black" stroke-width="3" stroke-linecap="round" fill="transparent" stroke-linejoin="round" points="65.51931762695313 112.08245849609376 78.37371826171875 105.96133422851563 95.51287841796876 99.2280731201172 122.44586181640624 89.43426513671875 144.48193359375 82.08891296386719 162.8453369140625 75.35565185546875 178.76025390625 69.23452758789063 188.5540771484375 65.56184387207031 194.67523193359375 65.56184387207031 194.67523193359375 65.56184387207031 " />
        <polyline stroke="black" stroke-width="3" stroke-linecap="round" fill="transparent" stroke-linejoin="round" points="59.398193359375 164.72421264648438 80.8221435546875 157.990966796875 106.53091430664063 150.0334930419922 135.912353515625 139.6275634765625 163.45745849609375 129.833740234375 183.0450439453125 121.26416015625 199.5721435546875 113.91880798339844 209.365966796875 109.63400268554688 214.26287841796875 107.185546875 214.26287841796875 107.185546875 " />
        <polyline stroke="black" stroke-width="3" stroke-linecap="round" fill="transparent" stroke-linejoin="round" points="109.59149169921876 114.53091430664063 104.08245849609376 124.93684387207033 98.57342529296876 145.74868774414063 91.22808837890624 175.74224853515625 87.555419921875 192.26931762695313 85.10693359375 203.89947509765625 84.49481201171875 210.0205993652344 85.10693359375 211.24481201171875 85.10693359375 211.24481201171875 " />
        <polyline stroke="black" stroke-width="3" stroke-linecap="round" fill="transparent" stroke-linejoin="round" points="140.80926513671875 104.12498474121094 140.80926513671875 117.59147644042967 138.972900390625 146.36080932617188 135.912353515625 168.3968963623047 132.23968505859375 186.14816284179688 129.17910766601563 199.0025634765625 127.3427734375 205.73580932617188 127.3427734375 205.73580932617188 " />
        <polyline stroke="black" stroke-width="3" stroke-linecap="round" fill="transparent" stroke-linejoin="round" points="165.9058837890625 105.96133422851563 167.130126953125 117.59147644042967 167.74224853515625 140.2396697998047 168.3543701171875 165.9484405517578 168.3543701171875 184.9239501953125 167.74224853515625 204.51156616210935 166.51800537109375 228.99612426757813 166.51800537109375 228.99612426757813 " />
        </svg>