<?xml version="1.0" standalone="no"?>
    <svg width="256" height="256" xmlns="http://www.w3.org/2000/svg" version="1.1">
    <polyline stroke="black" stroke-width="3" stroke-linecap="round" fill="transparent" stroke-linejoin="round" points="109.262939453125 58.76123046875 100.12799072265624 74.59513854980469 80.0311279296875 108.08993530273438 67.8511962890625 124.5328369140625 56.889251708984375 139.1487579345703 50.799285888671875 146.4567108154297 48.9722900390625 148.28370666503906 52.01727294921875 145.2387237548828 59.32525634765625 139.1487579345703 75.76812744140625 126.35983276367188 103.1729736328125 111.13491821289063 135.44979858398438 98.3459930419922 167.72662353515625 91.64703369140624 190.86846923828125 89.82003784179688 207.3114013671875 89.82003784179688 213.4013671875 89.82003784179688 215.22833251953125 91.64703369140624 210.96533203125 94.6920166015625 210.96533203125 94.6920166015625 " />
        <polyline stroke="black" stroke-width="3" stroke-linecap="round" fill="transparent" stroke-linejoin="round" points="49.581298828125 173.86155700683594 65.41522216796875 173.2525634765625 78.20413208007813 172.03456115722656 95.25604248046876 170.20758056640625 125.09686279296876 166.55360412597656 147.62973022460938 162.8996124267578 168.944580078125 158.02764892578125 184.77850341796875 151.3286895751953 192.6954345703125 144.02073669433594 195.1314697265625 134.8857879638672 195.1314697265625 134.8857879638672 " />
        <polyline stroke="black" stroke-width="3" stroke-linecap="round" fill="transparent" stroke-linejoin="round" points="123.87884521484376 103.2179718017578 112.30792236328124 122.7058563232422 104.3909912109375 145.84771728515625 96.47402954101563 175.68853759765625 92.2110595703125 193.95843505859375 89.16607666015625 210.40133666992188 89.16607666015625 217.70928955078125 91.60205078125 217.70928955078125 91.60205078125 217.70928955078125 " />
        <polyline stroke="black" stroke-width="3" stroke-linecap="round" fill="transparent" stroke-linejoin="round" points="128.7508544921875 134.8857879638672 127.5328369140625 150.11068725585938 123.87884521484376 179.342529296875 121.44287109375 197.00341796875 119.00689697265624 212.83734130859375 118.39788818359376 222.58126831054688 122.0518798828125 223.79925537109375 122.0518798828125 223.79925537109375 " />
        <polyline stroke="black" stroke-width="3" stroke-linecap="round" fill="transparent" stroke-linejoin="round" points="173.20758056640625 122.09686279296876 177.4705810546875 133.0587921142578 182.342529296875 156.20065307617188 184.16949462890625 192.74044799804688 181.7335205078125 221.36328125 178.68853759765625 248.76812744140625 178.68853759765625 248.76812744140625 " />
        </svg>