<?xml version="1.0" standalone="no"?>
    <svg width="256" height="256" xmlns="http://www.w3.org/2000/svg" version="1.1">
    <polyline stroke="black" stroke-width="3" stroke-linecap="round" fill="transparent" stroke-linejoin="round" points="86.88272094726563 38.62886047363281 88.71905517578125 49.03478240966797 83.21002197265625 64.33761596679688 70.9677734375 92.4948272705078 62.398193359375 109.63400268554688 55.052825927734375 121.87628173828124 50.155914306640625 130.44586181640625 48.319580078125 133.5064239501953 47.0953369140625 133.5064239501953 48.93170166015625 129.833740234375 53.82861328125 123.10049438476563 60.56182861328125 117.59147644042967 73.41622924804688 108.40977478027344 92.3917236328125 96.77963256835938 115.65203857421876 86.98580932617188 134.6275634765625 79.02833557128906 154.2152099609375 72.29508972167969 170.74224853515625 67.39817810058594 181.148193359375 64.33761596679688 187.88140869140625 63.11338806152344 187.88140869140625 63.11338806152344 " />
        <polyline stroke="black" stroke-width="3" stroke-linecap="round" fill="transparent" stroke-linejoin="round" points="55.052825927734375 186.14816284179688 70.35565185546875 178.8028106689453 84.43426513671875 172.6816864013672 108.9188232421875 162.8878631591797 130.3427734375 154.3182830810547 154.8272705078125 145.13658142089844 172.57861328125 138.40333557128906 186.6572265625 131.05796813964844 194.61468505859375 126.16107177734376 199.5115966796875 120.03993225097656 199.5115966796875 120.03993225097656 " />
        <polyline stroke="black" stroke-width="3" stroke-linecap="round" fill="transparent" stroke-linejoin="round" points="94.22808837890624 118.20359802246094 94.22808837890624 130.44586181640625 93.00384521484376 146.36080932617188 89.3311767578125 183.69973754882813 86.88272094726563 201.45101928710935 83.8221435546875 216.1417236328125 80.7615966796875 224.0992126464844 79.537353515625 227.7718811035156 79.537353515625 227.7718811035156 " />
        <polyline stroke="black" stroke-width="3" stroke-linecap="round" fill="transparent" stroke-linejoin="round" points="123.60952758789063 120.03993225097656 125.44586181640624 141.46389770507813 126.0579833984375 159.82730102539063 126.67010498046876 184.31182861328125 127.28219604492188 202.0631103515625 127.89431762695313 216.75384521484375 127.89431762695313 221.6507568359375 127.89431762695313 221.6507568359375 " />
        <polyline stroke="black" stroke-width="3" stroke-linecap="round" fill="transparent" stroke-linejoin="round" points="157.88787841796875 107.79766845703124 160.94842529296875 121.87628173828124 162.17266845703125 137.7912139892578 164.62109375 161.05152893066406 165.8453369140625 179.41493225097656 167.68170166015625 197.16622924804688 168.9058837890625 215.52963256835935 170.130126953125 233.28091430664065 170.130126953125 233.28091430664065 " />
        </svg>