<?xml version="1.0" standalone="no"?>
    <svg width="256" height="256" xmlns="http://www.w3.org/2000/svg" version="1.1">
    <polyline stroke="black" stroke-width="3" stroke-linecap="round" fill="transparent" stroke-linejoin="round" points="90.09869384765624 44.20588684082031 78.62158203125 63.14314270019531 68.57907104492188 81.79347229003906 59.97125244140625 101.87843322753906 50.50262451171875 121.38954162597656 45.337890625 133.4405517578125 43.90325927734375 136.88365173339844 43.90325927734375 136.88365173339844 " />
        <polyline stroke="black" stroke-width="3" stroke-linecap="round" fill="transparent" stroke-linejoin="round" points="81.20391845703125 81.79347229003906 105.305908203125 70.89021301269531 121.66079711914063 65.72547912597656 128.2601318359375 64.29084777832031 149.77972412109375 59.9869384765625 171.87322998046875 55.683013916015625 183.06341552734375 55.10914611816406 187.08038330078125 56.830718994140625 187.08038330078125 56.830718994140625 " />
        <polyline stroke="black" stroke-width="3" stroke-linecap="round" fill="transparent" stroke-linejoin="round" points="41.894805908203125 159.83792114257813 68.86602783203125 147.50001525878906 103.87124633789063 136.59674072265625 140.02420043945313 127.12811279296876 173.5948486328125 118.80720520019533 199.13134765625 113.06863403320313 199.13134765625 113.06863403320313 " />
        <polyline stroke="black" stroke-width="3" stroke-linecap="round" fill="transparent" stroke-linejoin="round" points="89.52487182617188 121.6764678955078 88.95098876953125 140.0398712158203 88.95098876953125 165.86341857910156 90.95950317382813 189.1045837402344 92.68106079101563 201.4424743652344 92.68106079101563 201.4424743652344 " />
        <polyline stroke="black" stroke-width="3" stroke-linecap="round" fill="transparent" stroke-linejoin="round" points="127.97323608398438 111.92092895507813 128.54705810546875 128.8496551513672 129.40786743164063 148.36080932617188 130.84249877929688 170.16732788085938 132.5640869140625 181.9313812255859 132.5640869140625 181.9313812255859 " />
        <polyline stroke="black" stroke-width="3" stroke-linecap="round" fill="transparent" stroke-linejoin="round" points="165.560791015625 100.73072814941406 163.8392333984375 123.97189331054688 160.96990966796875 150.9431610107422 159.5352783203125 182.50523376464844 158.674560546875 211.19805908203125 160.3961181640625 239.03009033203125 160.3961181640625 239.03009033203125 " />
        </svg>