<?xml version="1.0" standalone="no"?>
    <svg width="256" height="256" xmlns="http://www.w3.org/2000/svg" version="1.1">
    <polyline stroke="black" stroke-width="3" stroke-linecap="round" fill="transparent" stroke-linejoin="round" points="95.234130859375 103.95034790039063 104.5179443359375 101.29782104492188 113.35971069335938 99.08738708496094 131.92733764648438 95.10861206054688 158.01043701171875 91.1298370361328 164.6417236328125 90.24566650390624 175.25177001953125 88.47732543945313 180.11474609375 87.15106201171875 181.883056640625 84.94062805175781 181.883056640625 84.94062805175781 " />
        <polyline stroke="black" stroke-width="3" stroke-linecap="round" fill="transparent" stroke-linejoin="round" points="110.26507568359376 89.80357360839844 109.822998046875 101.73991394042967 109.38095092773438 112.79208374023438 108.0546875 132.24386596679688 107.17050170898438 146.39060974121094 106.7283935546875 153.90609741210938 105.84423828125 157.44277954101563 105.84423828125 157.00070190429688 105.84423828125 157.00070190429688 " />
        <polyline stroke="black" stroke-width="3" stroke-linecap="round" fill="transparent" stroke-linejoin="round" points="142.537353515625 58.41545104980469 140.76904296875 68.141357421875 139.00070190429688 78.75141906738281 137.23236083984375 89.36148071289063 132.81149291992188 121.6337890625 131.04315185546875 141.52767944335938 130.158935546875 159.6531982421875 130.158935546875 180.43125915527344 131.48519897460938 203.86181640625 131.48519897460938 203.86181640625 " />
        </svg>