<?xml version="1.0" standalone="no"?>
    <svg width="256" height="256" xmlns="http://www.w3.org/2000/svg" version="1.1">
    <polyline stroke="black" stroke-width="3" stroke-linecap="round" fill="transparent" stroke-linejoin="round" points="48 132 61 132 79 129 100 126 122 121 140 114 152 110 158 108 162 107 163 107 164 106 164 105 164 105 " />
        <polyline stroke="black" stroke-width="3" stroke-linecap="round" fill="transparent" stroke-linejoin="round" points="92 84 92 92 91 103 89 118 85 139 82 161 79 177 77 191 75 202 74 209 72 213 70 215 67 215 67 215 " />
        <polyline stroke="black" stroke-width="3" stroke-linecap="round" fill="transparent" stroke-linejoin="round" points="128 69 128 81 128 95 129 113 131 136 132 160 134 184 136 202 138 214 141 223 141 231 141 231 " />
        </svg>