<?xml version="1.0" standalone="no"?>
    <svg width="256" height="256" xmlns="http://www.w3.org/2000/svg" version="1.1">
    <polyline stroke="black" stroke-width="3" stroke-linecap="round" fill="transparent" stroke-linejoin="round" points="113.88931274414063 29.782730102539063 110.53347778320313 35.32379150390625 106.397216796875 41.74933624267578 100.75204467773438 49.969871520996094 95.47116088867188 58.9188232421875 89.59188842773438 68.36201477050781 84.076904296875 77.33697509765625 78.92605590820313 87.01431274414063 73.09881591796875 96.01528930664063 68.78045654296875 103.84561157226563 64.51409912109375 110.37521362304688 59.207122802734375 116.54061889648438 57.230072021484375 119.4542236328125 55.565185546875 122.52392578125 54.420501708984375 124.99530029296876 54.420501708984375 124.99530029296876 " />
        <polyline stroke="black" stroke-width="3" stroke-linecap="round" fill="transparent" stroke-linejoin="round" points="97.81246948242188 82.669921875 100.5179443359375 85.11526489257813 103.27548217773438 87.53460693359375 105.74685668945313 89.64176940917969 107.6458740234375 91.20263671875 109.15475463867188 92.52937316894533 110.24734497070313 93.595947265625 110.97573852539063 94.4023895263672 111.78216552734376 95.59906005859376 112.77069091796876 97.39405822753906 114.12347412109376 100.38571166992188 115.736328125 103.5594482421875 116.85494995117188 105.17234802246094 116.85494995117188 105.17234802246094 " />
        <polyline stroke="black" stroke-width="3" stroke-linecap="round" fill="transparent" stroke-linejoin="round" points="157.15118408203125 37.769134521484375 155.46026611328125 43.38824462890625 149.60708618164063 58.73670959472656 140.26791381835938 76.66059875488281 131.29293823242188 96.7436981201172 124.7373046875 111.64993286132813 120.44497680664063 121.7955322265625 118.38983154296876 127.33659362792967 117.089111328125 131.10867309570313 117.089111328125 131.10867309570313 " />
        <polyline stroke="black" stroke-width="3" stroke-linecap="round" fill="transparent" stroke-linejoin="round" points="159.3104248046875 78.50764465332031 171.4591064453125 82.35775756835938 177.23431396484375 84.28280639648438 181.78680419921875 86.07781982421875 185.76702880859375 87.58662414550781 189.35699462890625 89.32960510253906 192.11456298828125 90.68234252929688 194.455810546875 91.7749481201172 196.042724609375 92.5553741455078 198.1759033203125 93.77804565429688 200.56915283203125 95.4949951171875 201.81787109375 96.71769714355467 201.81787109375 96.71769714355467 " />
        <polyline stroke="black" stroke-width="3" stroke-linecap="round" fill="transparent" stroke-linejoin="round" points="91.17880249023438 165.44760131835938 92.193359375 169.5839080810547 93.93630981445313 174.57864379882813 95.41912841796876 180.01565551757813 96.64178466796876 185.45263671875 97.83847045898438 189.9271545410156 98.69692993164063 193.751220703125 99.63348388671876 196.4046936035156 100.04974365234376 198.7460021972656 100.30984497070313 200.1507873535156 100.674072265625 201.68560791015625 100.9862060546875 202.62213134765625 101.22036743164063 202.986328125 102.1048583984375 203.5326232910156 102.1048583984375 203.5326232910156 " />
        <polyline stroke="black" stroke-width="3" stroke-linecap="round" fill="transparent" stroke-linejoin="round" points="104.96646118164063 150.51536560058594 120.73110961914063 144.8182373046875 137.82254028320313 139.9535369873047 152.0523681640625 137.5602264404297 164.92950439453125 136.3895721435547 170.262451171875 135.32298278808594 173.0460205078125 134.8026885986328 177.572509765625 135.53109741210938 179.44549560546875 135.79124450683594 180.2259521484375 135.89529418945313 183.6077880859375 136.5977020263672 184.4923095703125 136.8318328857422 185.636962890625 137.43014526367188 186.4173583984375 138.18455505371094 187.17181396484375 140.4217987060547 185.79302978515625 145.7027130126953 184.38824462890625 150.25521850585938 182.9835205078125 155.1719512939453 181.37060546875 159.36024475097656 180.01788330078125 163.2363739013672 178.7431640625 167.21658325195313 175.98565673828125 171.6390380859375 174.3466796875 174.91683959960938 172.2135009765625 179.18319702148438 169.45599365234375 183.60562133789065 168.103271484375 186.3111267089844 166.38629150390625 189.79705810546875 166.38629150390625 189.79705810546875 " />
        <polyline stroke="black" stroke-width="3" stroke-linecap="round" fill="transparent" stroke-linejoin="round" points="68.83248901367188 211.10284423828125 86.62631225585938 207.51284790039065 108.73846435546876 203.35052490234375 134.154541015625 199.94268798828125 157.4893798828125 198.85003662109375 179.41949462890625 198.04360961914065 198.0977783203125 198.66796875 211.98956298828125 198.87603759765625 222.6553955078125 200.04669189453125 229.70526123046875 201.5035095214844 233.8155517578125 202.67413330078125 233.8155517578125 202.67413330078125 " />
        </svg>