<?xml version="1.0" standalone="no"?>
    <svg width="256" height="256" xmlns="http://www.w3.org/2000/svg" version="1.1">
    <polyline stroke="black" stroke-width="3" stroke-linecap="round" fill="transparent" stroke-linejoin="round" points="97 56 97 58 96 63 95 70 92 79 90 89 87 99 84 109 81 119 78 127 75 134 71 143 69 147 68 150 67 152 67 152 " />
        <polyline stroke="black" stroke-width="3" stroke-linecap="round" fill="transparent" stroke-linejoin="round" points="73 134 75 132 78 131 81 130 84 130 87 130 90 131 93 132 96 134 101 137 104 139 106 140 110 142 112 142 " />
        <polyline stroke="black" stroke-width="3" stroke-linecap="round" fill="transparent" stroke-linejoin="round" points="144 69 142 72 140 77 137 83 133 93 131 101 128 109 126 117 124 124 121 130 119 135 118 139 118 140 117 141 " />
        <polyline stroke="black" stroke-width="3" stroke-linecap="round" fill="transparent" stroke-linejoin="round" points="131 132 136 131 140 130 145 130 149 130 155 130 156 131 159 131 162 132 163 133 " />
        <polyline stroke="black" stroke-width="3" stroke-linecap="round" fill="transparent" stroke-linejoin="round" points="95 160 93 163 91 166 90 170 89 174 89 179 89 183 89 188 89 193 89 196 90 198 90 198 91 198 " />
        <polyline stroke="black" stroke-width="3" stroke-linecap="round" fill="transparent" stroke-linejoin="round" points="100 165 102 161 106 159 110 156 115 155 121 153 126 152 132 152 140 152 145 152 149 153 153 155 156 157 158 159 160 162 160 166 159 171 155 181 150 187 147 190 141 196 138 199 " />
        <polyline stroke="black" stroke-width="3" stroke-linecap="round" fill="transparent" stroke-linejoin="round" points="63 198 62 197 62 196 63 196 65 195 68 195 72 195 77 194 83 194 93 194 101 195 110 195 119 195 129 195 139 195 149 195 158 194 166 194 178 194 182 195 185 196 " />
        </svg>