<?xml version="1.0" standalone="no"?>
    <svg width="256" height="256" xmlns="http://www.w3.org/2000/svg" version="1.1">
    <polyline stroke="black" stroke-width="3" stroke-linecap="round" fill="transparent" stroke-linejoin="round" points="71.56326293945313 83.56867980957031 72.11419677734375 99.54592895507813 73.216064453125 116.6250457763672 74.31793212890625 129.29664611816406 73.76702880859375 138.66262817382813 73.76702880859375 143.62107849121094 73.76702880859375 144.72296142578125 73.76702880859375 144.72296142578125 " />
        <polyline stroke="black" stroke-width="3" stroke-linecap="round" fill="transparent" stroke-linejoin="round" points="89.19329833984375 83.01774597167969 99.1102294921875 78.6102294921875 112.332763671875 73.65176391601563 128.30999755859375 69.24424743652344 145.38916015625 67.04049682617188 161.36639404296875 67.5914306640625 174.0379638671875 70.34613037109375 180.6492919921875 74.75364685058594 186.15869140625 83.01774597167969 188.3624267578125 98.4440460205078 185.0567626953125 114.97222900390624 178.44549560546875 127.0928955078125 170.181396484375 133.70416259765625 170.181396484375 133.70416259765625 " />
        <polyline stroke="black" stroke-width="3" stroke-linecap="round" fill="transparent" stroke-linejoin="round" points="119.4949951171875 95.68934631347656 117.29122924804688 107.8100128173828 113.985595703125 119.37974548339844 109.02713012695313 128.74571228027344 103.51776123046876 135.35699462890625 97.4573974609375 140.31544494628906 91.3970947265625 143.0701446533203 85.8876953125 144.17201232910156 82.58203125 143.0701446533203 80.92922973632813 141.96826171875 81.48016357421875 140.31544494628906 86.4385986328125 137.0098114013672 96.90646362304688 132.0513458251953 112.88372802734376 126.54196166992188 140.98162841796875 119.37974548339844 152.00042724609375 117.7269287109375 163.0191650390625 116.6250457763672 163.0191650390625 116.6250457763672 " />
        <polyline stroke="black" stroke-width="3" stroke-linecap="round" fill="transparent" stroke-linejoin="round" points="122.80062866210938 154.08892822265625 118.39312744140624 166.2095947265625 113.43463134765624 180.53402709960935 107.92526245117188 191.0018615722656 103.51776123046876 197.6131591796875 98.55926513671876 201.4697265625 98.55926513671876 201.4697265625 " />
        <polyline stroke="black" stroke-width="3" stroke-linecap="round" fill="transparent" stroke-linejoin="round" points="72.66513061523438 193.20562744140625 90.84613037109376 189.8999938964844 117.8421630859375 187.14529418945313 134.370361328125 186.5943603515625 153.6531982421875 187.69622802734375 169.6304931640625 189.34906005859375 180.6492919921875 192.103759765625 187.81146240234375 194.3074951171875 194.4227294921875 198.16409301757813 194.4227294921875 198.16409301757813 " />
        </svg>