<?xml version="1.0" standalone="no"?>
    <svg width="256" height="256" xmlns="http://www.w3.org/2000/svg" version="1.1">
    <polyline stroke="black" stroke-width="3" stroke-linecap="round" fill="transparent" stroke-linejoin="round" points="88.5303955078125 120.67898559570313 90.20950317382813 124.87677001953124 90.62933349609376 124.87677001953124 90.62933349609376 124.87677001953124 " />
        <polyline stroke="black" stroke-width="3" stroke-linecap="round" fill="transparent" stroke-linejoin="round" points="117.4952392578125 74.50318908691406 120.85345458984376 71.98451232910156 128.82931518554688 67.36692810058594 141.42263793945313 60.65045166015625 148.97869873046875 58.13175964355469 156.95452880859375 56.8724365234375 163.251220703125 58.13175964355469 167.448974609375 62.74934387207031 169.128173828125 70.72514343261719 168.28857421875 83.31857299804688 165.35015869140625 96.75152587890624 160.7325439453125 111.44383239746094 157.37432861328125 124.03721618652344 157.37432861328125 124.03721618652344 " />
        <polyline stroke="black" stroke-width="3" stroke-linecap="round" fill="transparent" stroke-linejoin="round" points="118.33480834960938 131.17347717285156 131.7677001953125 122.7778778076172 143.52157592773438 116.90097045898438 149.81826782226563 114.3822784423828 156.95452880859375 112.28337097167967 159.47320556640625 110.604248046875 159.47320556640625 110.604248046875 " />
        <polyline stroke="black" stroke-width="3" stroke-linecap="round" fill="transparent" stroke-linejoin="round" points="134.70620727539063 97.59107971191406 134.28640747070313 119.4196319580078 134.28640747070313 137.4701690673828 134.28640747070313 152.58226013183594 134.70620727539063 163.91629028320313 134.28640747070313 175.67013549804688 134.28640747070313 175.67013549804688 " />
        <polyline stroke="black" stroke-width="3" stroke-linecap="round" fill="transparent" stroke-linejoin="round" points="118.75457763671876 192.881103515625 134.28640747070313 187.84375 151.4974365234375 182.806396484375 174.16552734375 177.34927368164063 188.85784912109375 175.67013549804688 199.7720947265625 176.0899200439453 209.00726318359375 177.34927368164063 214.04461669921875 180.2877197265625 215.30389404296875 181.96682739257813 215.30389404296875 181.96682739257813 " />
        </svg>