<?xml version="1.0" standalone="no"?>
    <svg width="256" height="256" xmlns="http://www.w3.org/2000/svg" version="1.1">
    <polyline stroke="black" stroke-width="3" stroke-linecap="round" fill="transparent" stroke-linejoin="round" points="85 85 88 103 92 120 95 131 98 135 98 135 " />
        <polyline stroke="black" stroke-width="3" stroke-linecap="round" fill="transparent" stroke-linejoin="round" points="81 72 90 71 113 64 143 58 167 58 187 59 196 66 199 73 200 79 199 88 192 102 184 115 179 120 179 120 " />
        <polyline stroke="black" stroke-width="3" stroke-linecap="round" fill="transparent" stroke-linejoin="round" points="144 73 144 87 140 103 137 117 134 123 134 123 " />
        <polyline stroke="black" stroke-width="3" stroke-linecap="round" fill="transparent" stroke-linejoin="round" points="104 125 114 123 138 117 157 115 174 115 184 115 187 115 187 115 " />
        <polyline stroke="black" stroke-width="3" stroke-linecap="round" fill="transparent" stroke-linejoin="round" points="144 144 144 154 144 168 142 182 138 195 136 199 136 199 " />
        <polyline stroke="black" stroke-width="3" stroke-linecap="round" fill="transparent" stroke-linejoin="round" points="79 198 112 196 148 196 178 196 204 196 220 196 227 196 228 196 228 196 " />
        </svg>