<?xml version="1.0" standalone="no"?>
    <svg width="256" height="256" xmlns="http://www.w3.org/2000/svg" version="1.1">
    <polyline stroke="black" stroke-width="3" stroke-linecap="round" fill="transparent" stroke-linejoin="round" points="115.82696533203124 66.06918334960938 118.262939453125 72.76814270019531 120.69891357421876 79.46710205078125 124.9619140625 86.16606140136719 124.9619140625 86.16606140136719 " />
        <polyline stroke="black" stroke-width="3" stroke-linecap="round" fill="transparent" stroke-linejoin="round" points="151.14874267578125 66.67817687988281 126.17990112304688 96.51901245117188 105.47402954101563 119.0518798828125 87.8131103515625 137.93077087402344 71.97921752929688 150.71969604492188 71.97921752929688 150.71969604492188 " />
        <polyline stroke="black" stroke-width="3" stroke-linecap="round" fill="transparent" stroke-linejoin="round" points="98.77508544921876 98.3459930419922 121.30792236328124 101.39097595214844 150.53976440429688 105.04495239257813 176.11761474609375 106.8719482421875 191.9515380859375 109.91693115234376 201.08642578125 114.17990112304688 201.08642578125 114.17990112304688 " />
        <polyline stroke="black" stroke-width="3" stroke-linecap="round" fill="transparent" stroke-linejoin="round" points="129.8338623046875 140.9757537841797 118.262939453125 152.5466766357422 106.6920166015625 165.33560180664063 96.33908081054688 175.68853759765625 89.64013671875 182.38751220703125 85.98614501953125 186.04147338867188 88.422119140625 184.21450805664065 96.33908081054688 175.68853759765625 111.56399536132813 163.5086212158203 125.5709228515625 153.76467895507813 137.7508544921875 148.8927001953125 145.05877685546875 147.06570434570313 149.32177734375 148.28370666503906 149.32177734375 154.37367248535156 136.5328369140625 179.342529296875 108.51901245117188 218.31829833984375 90.24911499023438 237.80618286132813 79.28717041015625 245.72314453125 74.41522216796875 248.15911865234375 74.41522216796875 245.1141357421875 74.41522216796875 245.1141357421875 " />
        <polyline stroke="black" stroke-width="3" stroke-linecap="round" fill="transparent" stroke-linejoin="round" points="121.91693115234376 195.17642211914065 137.7508544921875 198.83041381835935 161.501708984375 206.13836669921875 179.16259765625 212.83734130859375 205.3494873046875 226.84423828125 205.3494873046875 226.84423828125 " />
        </svg>