<?xml version="1.0" standalone="no"?>
    <svg width="256" height="256" xmlns="http://www.w3.org/2000/svg" version="1.1">
    <polyline stroke="black" stroke-width="3" stroke-linecap="round" fill="transparent" stroke-linejoin="round" points="113 56 116 59 124 66 133 71 133 71 " />
        <polyline stroke="black" stroke-width="3" stroke-linecap="round" fill="transparent" stroke-linejoin="round" points="153 48 151 54 144 71 132 94 119 117 113 126 100 139 90 146 82 147 82 147 " />
        <polyline stroke="black" stroke-width="3" stroke-linecap="round" fill="transparent" stroke-linejoin="round" points="116 79 128 84 140 92 155 104 167 113 177 122 184 129 184 129 " />
        <polyline stroke="black" stroke-width="3" stroke-linecap="round" fill="transparent" stroke-linejoin="round" points="118 157 115 168 110 178 105 187 103 189 102 191 102 191 " />
        <polyline stroke="black" stroke-width="3" stroke-linecap="round" fill="transparent" stroke-linejoin="round" points="136 145 140 145 148 145 151 145 152 146 152 153 145 169 134 187 122 203 112 216 103 224 100 224 100 224 " />
        <polyline stroke="black" stroke-width="3" stroke-linecap="round" fill="transparent" stroke-linejoin="round" points="115 176 119 177 130 182 143 191 161 201 178 213 198 227 198 227 " />
        </svg>