<?xml version="1.0" standalone="no"?>
    <svg width="256" height="256" xmlns="http://www.w3.org/2000/svg" version="1.1">
    <polyline stroke="black" stroke-width="3" stroke-linecap="round" fill="transparent" stroke-linejoin="round" points="118.3670654296875 54.66026306152344 113.055419921875 63.513031005859375 102.43206787109376 78.85783386230469 81.775634765625 110.13761901855467 69.971923828125 129.02352905273438 59.348602294921875 144.95852661132813 52.8565673828125 156.17202758789063 52.8565673828125 156.17202758789063 " />
        <polyline stroke="black" stroke-width="3" stroke-linecap="round" fill="transparent" stroke-linejoin="round" points="122.49835205078124 61.15229797363281 134.89224243164063 60.562103271484375 154.95849609375 61.74247741699219 173.2542724609375 64.69340515136719 189.189208984375 67.64431762695313 200.4027099609375 70.59524536132813 205.71441650390625 74.72654724121094 205.71441650390625 84.16949462890625 205.71441650390625 84.16949462890625 " />
        <polyline stroke="black" stroke-width="3" stroke-linecap="round" fill="transparent" stroke-linejoin="round" points="117.18670654296876 131.97445678710938 131.94131469726563 126.07261657714844 143.15484619140625 123.12168884277344 156.138916015625 120.7609405517578 166.76220703125 122.531494140625 172.6640625 129.02352905273438 172.0738525390625 137.8762969970703 172.0738525390625 137.8762969970703 " />
        <polyline stroke="black" stroke-width="3" stroke-linecap="round" fill="transparent" stroke-linejoin="round" points="92.9891357421875 179.7794189453125 104.79281616210938 177.41867065429688 119.54742431640624 173.8775634765625 142.56463623046875 169.15609741210938 165.58184814453125 166.20516967773438 200.4027099609375 166.79534912109375 213.3868408203125 172.69720458984375 213.3868408203125 172.69720458984375 " />
        </svg>