<?xml version="1.0" standalone="no"?>
    <svg width="256" height="256" xmlns="http://www.w3.org/2000/svg" version="1.1">
    <polyline stroke="black" stroke-width="3" stroke-linecap="round" fill="transparent" stroke-linejoin="round" points="113.6446533203125 49.32417297363281 99.97430419921876 72.5223388671875 88.78948974609375 89.5067138671875 73.87640380859375 111.87638854980467 60.206024169921875 133.831787109375 56.06353759765625 140.4598388671875 51.09246826171875 147.9163818359375 49.43548583984375 149.15914916992188 49.43548583984375 149.15914916992188 " />
        <polyline stroke="black" stroke-width="3" stroke-linecap="round" fill="transparent" stroke-linejoin="round" points="100.38861083984376 86.60694885253906 128.97201538085938 82.0501708984375 140.57113647460938 82.46441650390625 151.34173583984375 83.29292297363281 185.3104248046875 89.09246826171875 195.666748046875 92.406494140625 200.22357177734375 95.3062744140625 200.22357177734375 95.3062744140625 " />
        <polyline stroke="black" stroke-width="3" stroke-linecap="round" fill="transparent" stroke-linejoin="round" points="97.903076171875 151.23040771484375 110.744873046875 146.25938415527344 117.78720092773438 144.60235595703125 125.24374389648438 142.9453582763672 140.9853515625 140.04559326171875 162.1123046875 138.80284118652344 162.1123046875 138.80284118652344 " />
        <polyline stroke="black" stroke-width="3" stroke-linecap="round" fill="transparent" stroke-linejoin="round" points="67.24835205078125 204.6690673828125 88.375244140625 195.9697265625 98.31732177734376 193.06997680664065 109.50213623046876 190.58447265625 131.04330444335938 186.85617065429688 142.22811889648438 185.6134033203125 181.16790771484375 185.6134033203125 181.16790771484375 185.6134033203125 " />
        </svg>