<?xml version="1.0" standalone="no"?>
    <svg width="256" height="256" xmlns="http://www.w3.org/2000/svg" version="1.1">
    <polyline stroke="black" stroke-width="3" stroke-linecap="round" fill="transparent" stroke-linejoin="round" points="128.50994873046875 35.579864501953125 122.75726318359376 45.441612243652344 117.826416015625 54.07064056396485 103.03378295898438 81.19046020507813 94.815673828125 97.62672424316406 81.66668701171875 122.28109741210938 72.626708984375 137.07371520996094 65.64129638671875 145.70274353027344 62.35406494140625 148.16818237304688 61.943115234375 148.16818237304688 61.943115234375 148.16818237304688 " />
        <polyline stroke="black" stroke-width="3" stroke-linecap="round" fill="transparent" stroke-linejoin="round" points="122.75726318359376 61.466949462890625 133.85174560546875 60.23423767089844 140.837158203125 60.23423767089844 149.46615600585938 60.6451416015625 176.58599853515625 64.75421142578125 192.611328125 68.86326599121094 203.705810546875 72.97233581542969 211.1021728515625 79.54682922363281 211.1021728515625 79.54682922363281 " />
        <polyline stroke="black" stroke-width="3" stroke-linecap="round" fill="transparent" stroke-linejoin="round" points="110.0191650390625 145.29183959960938 125.22271728515624 138.3064422607422 133.02996826171875 135.84100341796875 142.06988525390625 133.78646850585938 150.69891357421875 131.73191833496094 167.1351318359375 129.6774139404297 179.87322998046875 130.0883026123047 184.80413818359375 130.91012573242188 184.80413818359375 130.91012573242188 " />
        <polyline stroke="black" stroke-width="3" stroke-linecap="round" fill="transparent" stroke-linejoin="round" points="73.03759765625 211.03683471679688 94.40472412109376 201.17507934570313 104.2664794921875 198.2987365722656 115.7718505859375 195.83331298828125 138.78265380859375 192.95697021484375 172.0660400390625 192.95697021484375 181.10595703125 193.36785888671875 201.65130615234375 196.65512084960935 201.65130615234375 196.65512084960935 " />
        </svg>