<?xml version="1.0" standalone="no"?>
    <svg width="256" height="256" xmlns="http://www.w3.org/2000/svg" version="1.1">
    <polyline stroke="black" stroke-width="3" stroke-linecap="round" fill="transparent" stroke-linejoin="round" points="92.21627807617188 86.89097595214844 107.40740966796876 81.96412658691406 116.44000244140624 79.91127014160156 143.53768920898438 74.98440551757813 159.13934326171875 73.75270080566406 171.8670654296875 72.11041259765625 181.72076416015625 71.28927612304688 189.11102294921875 70.4681396484375 192.3956298828125 68.82585144042969 192.3956298828125 68.82585144042969 " />
        <polyline stroke="black" stroke-width="3" stroke-linecap="round" fill="transparent" stroke-linejoin="round" points="132.04168701171875 50.76072692871094 124.24081420898438 63.077850341796875 119.31396484375 72.52099609375 98.785400390625 114.39923095703124 88.110595703125 134.5172119140625 84.41546630859375 140.67576599121094 84.41546630859375 140.67576599121094 " />
        <polyline stroke="black" stroke-width="3" stroke-linecap="round" fill="transparent" stroke-linejoin="round" points="138.61080932617188 86.48040771484375 152.57025146484375 91.40725708007813 168.58251953125 97.56582641601563 184.5947265625 103.72439575195313 198.9647216796875 109.8829345703125 210.460693359375 114.80979919433594 216.208740234375 117.27322387695313 216.208740234375 117.27322387695313 " />
        <polyline stroke="black" stroke-width="3" stroke-linecap="round" fill="transparent" stroke-linejoin="round" points="100.83831787109376 138.21234130859375 113.56597900390624 135.33836364746094 128.34652709960938 133.28549194335938 142.71652221679688 130.8220672607422 155.4442138671875 129.59036254882813 161.1922607421875 129.17979431152344 173.919921875 126.71636962890624 176.38330078125 126.3057861328125 176.38330078125 126.3057861328125 " />
        <polyline stroke="black" stroke-width="3" stroke-linecap="round" fill="transparent" stroke-linejoin="round" points="113.9765625 161.61489868164063 103.71224975585938 177.62716674804688 94.26913452148438 192.40771484375 86.05770874023438 204.31427001953125 82.362548828125 210.47283935546875 82.362548828125 210.47283935546875 " />
        <polyline stroke="black" stroke-width="3" stroke-linecap="round" fill="transparent" stroke-linejoin="round" points="142.71652221679688 149.29776000976563 141.89535522460938 155.04576110839844 141.48480224609375 160.7937469482422 142.305908203125 179.68002319335938 144.35882568359375 192.40771484375 147.64337158203125 203.49313354492188 149.69622802734375 208.41998291015625 154.623046875 216.63140869140625 164.476806640625 224.4322509765625 168.58251953125 226.485107421875 181.72076416015625 228.5379638671875 188.700439453125 227.3062438964844 194.03790283203125 224.84283447265625 196.09075927734375 223.2005615234375 198.9647216796875 219.50540161132813 203.0704345703125 209.65170288085935 204.30218505859375 198.97686767578125 203.8916015625 194.04998779296875 203.0704345703125 184.1962890625 203.0704345703125 184.1962890625 " />
        </svg>