<?xml version="1.0" standalone="no"?>
    <svg width="256" height="256" xmlns="http://www.w3.org/2000/svg" version="1.1">
    <polyline stroke="black" stroke-width="3" stroke-linecap="round" fill="transparent" stroke-linejoin="round" points="68.04931640625 69.9752197265625 75.76226806640625 77.17398071289063 78.333251953125 79.74496459960938 81.41845703125 81.8017578125 81.41845703125 81.8017578125 " />
        <polyline stroke="black" stroke-width="3" stroke-linecap="round" fill="transparent" stroke-linejoin="round" points="101.986328125 58.148681640625 113.29864501953124 62.776458740234375 118.44064331054688 64.833251953125 125.12518310546876 64.31906127929688 125.12518310546876 64.31906127929688 " />
        <polyline stroke="black" stroke-width="3" stroke-linecap="round" fill="transparent" stroke-linejoin="round" points="149.29248046875 38.094993591308594 140.03692626953125 54.03511047363281 128.21038818359375 72.03201293945313 128.21038818359375 72.03201293945313 " />
        <polyline stroke="black" stroke-width="3" stroke-linecap="round" fill="transparent" stroke-linejoin="round" points="65.47833251953125 117.79556274414063 71.648681640625 111.6251983642578 80.39004516601563 104.42643737792967 91.18817138671876 96.19927978515624 104.04312133789063 89.00051879882813 112.270263671875 84.88694763183594 117.4122314453125 83.34434509277344 118.44064331054688 84.88694763183594 112.270263671875 99.2844696044922 89.13140869140625 137.33506774902344 77.81906127929688 156.8745574951172 66.5067138671875 172.81466674804688 61.878936767578125 178.9850311279297 58.79376220703125 183.61282348632813 58.79376220703125 183.61282348632813 " />
        <polyline stroke="black" stroke-width="3" stroke-linecap="round" fill="transparent" stroke-linejoin="round" points="98.901123046875 121.90914916992188 108.15667724609376 118.3097686767578 118.954833984375 114.19618225097656 130.26715087890625 110.08261108398438 143.12210083007813 106.99742126464844 157.5196533203125 105.454833984375 171.4029541015625 105.454833984375 182.20111083984375 108.02581787109376 188.8856201171875 113.16778564453124 194.02764892578125 127.05111694335938 192.999267578125 155.84616088867188 186.314697265625 178.47084045410156 178.0875244140625 196.98193359375 169.8603515625 209.3226623535156 163.69000244140625 214.97885131835935 151.86346435546875 219.0924072265625 141.0653076171875 214.97885131835935 141.0653076171875 214.97885131835935 " />
        <polyline stroke="black" stroke-width="3" stroke-linecap="round" fill="transparent" stroke-linejoin="round" points="146.207275390625 121.90914916992188 135.92333984375 135.2782745361328 107.1282958984375 179.49923706054688 98.901123046875 190.81158447265625 91.18817138671876 198.0103454589844 85.017822265625 200.58132934570313 81.9326171875 198.5245361328125 81.9326171875 198.5245361328125 " />
        <polyline stroke="black" stroke-width="3" stroke-linecap="round" fill="transparent" stroke-linejoin="round" points="96.33013916015624 151.2183837890625 107.1282958984375 153.78936767578125 133.35235595703125 160.98812866210938 153.40606689453125 168.7010955810547 173.97393798828125 176.92825317382813 188.3714599609375 183.61282348632813 201.22637939453125 190.81158447265625 201.22637939453125 190.81158447265625 " />
        </svg>