<?xml version="1.0" standalone="no"?>
    <svg width="256" height="256" xmlns="http://www.w3.org/2000/svg" version="1.1">
    <polyline stroke="black" stroke-width="3" stroke-linecap="round" fill="transparent" stroke-linejoin="round" points="55.17205810546875 61.5059814453125 58.504150390625 70.39161682128906 66.27908325195313 84.27543640136719 70.16656494140625 88.71824645996094 74.05401611328125 88.71824645996094 74.05401611328125 88.71824645996094 " />
        <polyline stroke="black" stroke-width="3" stroke-linecap="round" fill="transparent" stroke-linejoin="round" points="87.38247680664063 50.95428466796875 94.60205078125 58.17387390136719 99.6002197265625 62.61668395996094 105.15374755859376 65.39344787597656 111.8179931640625 66.504150390625 122.36968994140624 62.61668395996094 132.36602783203125 55.39710998535156 138.47491455078125 50.95428466796875 142.917724609375 48.732879638671875 145.13912963867188 50.39893341064453 144.0284423828125 55.95245361328125 137.9195556640625 70.39161682128906 125.14642333984376 87.6075439453125 110.707275390625 102.04670715332033 110.707275390625 102.04670715332033 " />
        <polyline stroke="black" stroke-width="3" stroke-linecap="round" fill="transparent" stroke-linejoin="round" points="60.7255859375 115.37516784667967 69.6112060546875 110.93234252929688 79.6075439453125 105.37881469726563 90.714599609375 100.93600463867188 99.6002197265625 98.714599609375 104.598388671875 99.26994323730467 104.598388671875 108.7109375 92.38064575195313 139.25531005859375 79.05218505859375 160.9140625 67.94512939453125 175.3532257080078 59.05950927734375 185.34957885742188 54.06134033203125 190.903076171875 54.06134033203125 190.903076171875 " />
        <polyline stroke="black" stroke-width="3" stroke-linecap="round" fill="transparent" stroke-linejoin="round" points="89.04852294921875 140.92137145996094 100.15557861328124 137.58926391601563 114.03939819335938 132.59109497070313 130.14459228515625 127.59291076660156 146.24981689453125 122.59474182128906 161.7996826171875 119.26263427734376 175.128173828125 119.26263427734376 182.903076171875 123.7054443359375 187.9012451171875 139.25531005859375 185.12451171875 172.02110290527344 177.9049072265625 195.34591674804688 170.1300048828125 211.45114135742188 163.46575927734375 219.78140258789065 155.6907958984375 224.77957153320313 147.36053466796875 226.44564819335935 141.25164794921875 223.113525390625 135.6981201171875 207.56365966796875 135.6981201171875 207.56365966796875 " />
        <polyline stroke="black" stroke-width="3" stroke-linecap="round" fill="transparent" stroke-linejoin="round" points="135.6981201171875 139.8106689453125 130.14459228515625 149.8070068359375 121.8143310546875 166.46759033203125 113.48403930664063 181.46209716796875 106.26446533203124 192.56915283203125 99.04486083984376 199.23336791992188 92.38064575195313 202.56549072265625 85.7164306640625 202.56549072265625 85.7164306640625 202.56549072265625 " />
        <polyline stroke="black" stroke-width="3" stroke-linecap="round" fill="transparent" stroke-linejoin="round" points="84.605712890625 163.69082641601563 107.37518310546876 167.02293395996094 141.8070068359375 173.68716430664063 164.0211181640625 179.24069213867188 186.79052734375 187.015625 202.3404541015625 194.23519897460935 212.89208984375 202.56549072265625 212.89208984375 202.56549072265625 " />
        </svg>