<?xml version="1.0" standalone="no"?>
    <svg width="256" height="256" xmlns="http://www.w3.org/2000/svg" version="1.1">
    <polyline stroke="black" stroke-width="3" stroke-linecap="round" fill="transparent" stroke-linejoin="round" points="79.9781494140625 69.23171997070313 83.13632202148438 84.62783813476563 83.92587280273438 89.36509704589844 84.71542358398438 98.05010986328124 84.71542358398438 103.9716796875 84.71542358398438 107.12985229492188 84.71542358398438 107.52464294433594 84.71542358398438 105.94554138183594 86.29452514648438 99.62918090820313 91.03173828125 89.36509704589844 98.92721557617188 77.91670227050781 108.7965087890625 67.65263366699219 122.613525390625 57.7833251953125 139.1939697265625 51.86174011230469 153.800537109375 50.28264617919922 166.03851318359375 51.86174011230469 174.3287353515625 55.41468811035156 179.06597900390625 59.36241149902344 181.03985595703125 66.07354736328125 177.8817138671875 75.15330505371094 168.01239013671875 83.83830261230469 149.06329345703125 93.70759582519533 129.71945190429688 100.8134765625 114.71810913085938 105.55076599121094 106.42791748046876 107.91940307617188 102.87493896484376 108.70895385742188 102.48016357421876 108.70895385742188 104.84881591796876 108.31417846679688 117.08676147460938 106.73507690429688 136.82537841796875 104.76121520996094 156.56396484375 103.18212890625 171.1705322265625 102.787353515625 179.85552978515625 103.576904296875 179.85552978515625 103.576904296875 " />
        <polyline stroke="black" stroke-width="3" stroke-linecap="round" fill="transparent" stroke-linejoin="round" points="99.71676635742188 137.13253784179688 93.400390625 145.42276000976563 91.03173828125 149.37046813964844 89.05792236328125 153.31820678710938 84.71542358398438 160.81887817382813 81.95199584960938 166.34568786621094 80.76766967773438 169.10910034179688 81.16244506835938 169.50384521484375 86.68930053710938 167.52999877929688 100.50631713867188 160.02932739257813 120.24493408203124 148.9757080078125 140.7730712890625 139.10641479492188 158.14306640625 133.974365234375 171.1705322265625 132.39529418945313 178.67120361328125 132.7900390625 181.829345703125 133.974365234375 181.03985595703125 139.50115966796875 171.1705322265625 151.34434509277344 147.87899780273438 166.74046325683594 126.561279296875 177.0045166015625 111.5599365234375 182.5313415527344 102.87493896484376 184.89996337890625 98.92721557617188 185.29473876953125 98.532470703125 184.89996337890625 102.87493896484376 182.92611694335935 117.08676147460938 179.3731689453125 126.561279296875 177.3992919921875 156.169189453125 172.2672576904297 171.1705322265625 168.31954956054688 177.4869384765625 164.371826171875 177.4869384765625 164.371826171875 " />
        <polyline stroke="black" stroke-width="3" stroke-linecap="round" fill="transparent" stroke-linejoin="round" points="146.29989624023438 36.07085418701172 145.11557006835938 47.519248962402344 144.72079467773438 54.230369567871094 144.32601928710938 62.91535949707031 143.53646850585938 73.968994140625 142.35214233398438 99.62918090820313 141.95736694335938 113.44621276855467 141.16781616210938 140.29071044921875 140.3782958984375 162.792724609375 138.7991943359375 181.74180603027344 136.43060302734375 197.53268432617188 133.27239990234375 212.9288024902344 133.27239990234375 212.9288024902344 " />
        </svg>