<?xml version="1.0" standalone="no"?>
    <svg width="256" height="256" xmlns="http://www.w3.org/2000/svg" version="1.1">
    <polyline stroke="black" stroke-width="3" stroke-linecap="round" fill="transparent" stroke-linejoin="round" points="84 69 84 78 84 87 86 97 90 107 92 111 92 111 " />
        <polyline stroke="black" stroke-width="3" stroke-linecap="round" fill="transparent" stroke-linejoin="round" points="97 66 113 62 129 58 149 55 167 55 174 55 185 57 188 61 188 67 178 78 163 90 155 94 155 94 " />
        <polyline stroke="black" stroke-width="3" stroke-linecap="round" fill="transparent" stroke-linejoin="round" points="114 99 128 96 142 93 153 93 161 93 163 93 163 93 " />
        <polyline stroke="black" stroke-width="3" stroke-linecap="round" fill="transparent" stroke-linejoin="round" points="89 154 89 159 89 164 93 173 98 180 101 183 101 183 " />
        <polyline stroke="black" stroke-width="3" stroke-linecap="round" fill="transparent" stroke-linejoin="round" points="88 148 93 145 98 142 106 138 126 130 148 125 170 124 189 125 199 133 203 144 202 155 192 166 186 169 186 169 " />
        <polyline stroke="black" stroke-width="3" stroke-linecap="round" fill="transparent" stroke-linejoin="round" points="97 182 110 179 123 176 140 172 155 168 165 163 165 163 " />
        <polyline stroke="black" stroke-width="3" stroke-linecap="round" fill="transparent" stroke-linejoin="round" points="147 7 147 30 147 53 146 95 146 152 146 175 152 210 157 227 160 239 160 239 " />
        </svg>