<?xml version="1.0" standalone="no"?>
    <svg width="256" height="256" xmlns="http://www.w3.org/2000/svg" version="1.1">
    <polyline stroke="black" stroke-width="3" stroke-linecap="round" fill="transparent" stroke-linejoin="round" points="149.80224609375 73.11012268066409 151.74993896484375 98.51458740234376 153.6976318359375 123.91905212402344 155.20751953125 174.8433837890625 154.7109375 191.5313415527344 151.51177978515625 214.26461791992188 150.06527709960938 220.76885986328125 147.75482177734375 224.97921752929688 147.19515991210938 225.6546630859375 147.13616943359375 225.72586059570313 147.134521484375 225.72787475585935 147.13348388671875 225.7291259765625 147.13330078125 225.7293701171875 147.13311767578125 225.7296142578125 146.15179443359375 225.14773559570313 144.65777587890625 224.54638671875 141.81427001953125 223.0953369140625 127.12957763671876 208.9830322265625 107.81259155273438 182.45819091796875 99.0362548828125 167.20994567871094 98.86688232421876 165.7568817138672 " />
        <polyline stroke="black" stroke-width="3" stroke-linecap="round" fill="transparent" stroke-linejoin="round" points="167.84320068359375 95.50952148437497 141.51239013671875 114.59381103515624 115.18157958984376 133.6781005859375 101.97909545898438 142.14572143554688 80.62606811523438 155.54733276367188 70.77008056640625 163.11038208007813 62.754150390625 169.44400024414063 61.95257568359375 170.07736206054688 " />
        </svg>