<?xml version="1.0" standalone="no"?>
    <svg width="256" height="256" xmlns="http://www.w3.org/2000/svg" version="1.1">
    <polyline stroke="black" stroke-width="3" stroke-linecap="round" fill="transparent" stroke-linejoin="round" points="86.66000366210938 105.33724975585938 88.34890747070313 106.68838500976563 90.03781127929688 108.03952026367188 91.72674560546876 109.39064025878906 94.09121704101563 110.40399169921876 96.11788940429688 110.7417449951172 96.11788940429688 110.7417449951172 " />
        <polyline stroke="black" stroke-width="3" stroke-linecap="round" fill="transparent" stroke-linejoin="round" points="150.16302490234375 59.736724853515625 148.13629150390625 69.19461059570313 146.10955810546875 78.65249633789063 142.73178100585938 90.81263732910156 138.67843627929688 103.31057739257813 134.28726196289063 114.795166015625 128.88272094726563 126.95529174804688 123.14041137695313 138.1020965576172 117.39813232421876 147.2222137451172 111.65585327148438 156.00453186035156 105.91354370117188 164.11129760742188 101.18460083007813 171.2047119140625 97.1312255859375 176.27142333984375 93.75341796875 179.98703002929688 91.0511474609375 182.3514862060547 88.01113891601563 184.378173828125 83.957763671875 185.72930908203125 78.89105224609375 185.05377197265625 75.85098266601563 184.71597290039065 75.85098266601563 184.71597290039065 " />
        <polyline stroke="black" stroke-width="3" stroke-linecap="round" fill="transparent" stroke-linejoin="round" points="34.3038330078125 128.3064422607422 44.775054931640625 129.65756225585938 55.24627685546875 131.00868225097656 69.0953369140625 133.71090698242188 84.63330078125 138.1020965576172 101.18460083007813 144.8577423095703 118.749267578125 152.62672424316406 136.98947143554688 162.76016235351563 154.55413818359375 174.58255004882813 170.7677001953125 185.72930908203125 183.941162109375 195.5250244140625 195.08795166015625 204.30731201171875 203.87030029296875 211.4007568359375 210.9637451171875 216.80523681640625 216.0303955078125 220.5208740234375 219.40826416015625 223.22311401367188 221.772705078125 224.9120178222656 223.46160888671875 226.26315307617188 224.4749755859375 226.938720703125 225.48834228515625 227.61428833007813 226.1639404296875 227.9520263671875 226.1639404296875 227.9520263671875 " />
        </svg>