<?xml version="1.0" standalone="no"?>
    <svg width="256" height="256" xmlns="http://www.w3.org/2000/svg" version="1.1">
    <polyline stroke="black" stroke-width="3" stroke-linecap="round" fill="transparent" stroke-linejoin="round" points="79.76531982421875 96.39111328125 90.335205078125 92.29953002929688 101.58709716796876 88.20794677734375 125.45468139648438 81.38864135742188 158.5283203125 73.88739013671875 174.5537109375 68.77291870117188 174.5537109375 68.77291870117188 " />
        <polyline stroke="black" stroke-width="3" stroke-linecap="round" fill="transparent" stroke-linejoin="round" points="106.01962280273438 73.20547485351563 106.01962280273438 80.36573791503906 106.01962280273438 88.20794677734375 107.72445678710938 111.3936004638672 109.77023315429688 121.96353149414063 111.13412475585938 126.73704528808594 111.13412475585938 126.73704528808594 " />
        <polyline stroke="black" stroke-width="3" stroke-linecap="round" fill="transparent" stroke-linejoin="round" points="156.14154052734375 57.18009948730469 154.09576416015625 67.4090576171875 151.02703857421875 79.00187683105469 135.68359375 113.09841918945313 127.84140014648438 125.03221130371094 123.74984741210938 129.4647674560547 122.7269287109375 130.14669799804688 122.38595581054688 129.123779296875 125.45468139648438 124.00930786132813 128.52337646484375 120.25869750976563 139.09326171875 110.02972412109376 144.8896484375 106.27911376953124 147.61740112304688 106.62008666992188 147.61740112304688 106.62008666992188 " />
        <polyline stroke="black" stroke-width="3" stroke-linecap="round" fill="transparent" stroke-linejoin="round" points="67.83151245117188 175.49508666992188 78.40142822265625 170.38059997558594 89.9942626953125 165.94805908203125 130.56915283203125 156.06005859375 144.5487060546875 153.67330932617188 167.3934326171875 150.94558715820313 182.054931640625 149.24075317382813 189.55615234375 147.87689208984375 189.55615234375 147.87689208984375 " />
        <polyline stroke="black" stroke-width="3" stroke-linecap="round" fill="transparent" stroke-linejoin="round" points="113.17990112304688 145.8311004638672 111.8160400390625 153.33233642578125 111.13412475585938 161.5155029296875 111.13412475585938 169.3577117919922 111.47509765625 176.85894775390625 113.17990112304688 188.792724609375 115.566650390625 196.63494873046875 119.658203125 198.33978271484375 123.74984741210938 195.9530029296875 123.74984741210938 195.9530029296875 " />
        <polyline stroke="black" stroke-width="3" stroke-linecap="round" fill="transparent" stroke-linejoin="round" points="174.21270751953125 134.57925415039063 170.12109375 145.49014282226563 164.32470703125 157.76487731933594 144.207763671875 188.792724609375 138.07040405273438 195.2710876464844 126.81854248046876 202.7723388671875 119.658203125 205.84103393554688 116.24859619140624 206.18197631835935 115.22567749023438 205.1590881347656 116.93051147460938 202.09039306640625 125.11370849609376 195.9530029296875 141.48004150390625 189.1336975097656 151.708984375 186.40597534179688 151.708984375 186.40597534179688 " />
        </svg>