<?xml version="1.0" standalone="no"?>
    <svg width="256" height="256" xmlns="http://www.w3.org/2000/svg" version="1.1">
    <polyline stroke="black" stroke-width="3" stroke-linecap="round" fill="transparent" stroke-linejoin="round" points="71.306884765625 111.807373046875 96.50299072265624 107.26382446289063 122.112060546875 102.30722045898438 134.50360107421875 100.24197387695313 156.395263671875 96.1114501953125 173.743408203125 92.39401245117188 187.3740234375 89.089599609375 190.678466796875 87.85044860839844 191.09149169921875 86.19825744628906 191.09149169921875 86.19825744628906 " />
        <polyline stroke="black" stroke-width="3" stroke-linecap="round" fill="transparent" stroke-linejoin="round" points="105.177001953125 100.65501403808594 103.9378662109375 110.15518188476563 102.69873046875 134.11209106445313 103.9378662109375 141.54698181152344 106.00314331054688 144.43833923339844 112.61190795898438 145.677490234375 123.35125732421876 143.6122283935547 136.56884765625 138.24258422851563 142.3515625 134.52513122558594 150.19952392578125 127.50328063964844 150.19952392578125 127.50328063964844 " />
        <polyline stroke="black" stroke-width="3" stroke-linecap="round" fill="transparent" stroke-linejoin="round" points="158.0474853515625 82.48080444335938 156.80828857421875 89.91571044921875 155.5692138671875 98.58975219726563 153.9169921875 112.63346862792967 153.0908203125 120.48143005371094 151.85174560546875 130.39463806152344 151.85174560546875 130.39463806152344 " />
        <polyline stroke="black" stroke-width="3" stroke-linecap="round" fill="transparent" stroke-linejoin="round" points="87.41586303710938 186.15643310546875 98.15521240234376 183.6781005859375 109.7205810546875 181.19981384277344 141.9384765625 174.59100341796875 159.28662109375 172.11270141601563 166.3084716796875 171.28660583496094 177.4608154296875 170.04745483398438 177.4608154296875 170.04745483398438 " />
        <polyline stroke="black" stroke-width="3" stroke-linecap="round" fill="transparent" stroke-linejoin="round" points="110.54669189453124 179.547607421875 106.8292236328125 198.96096801757813 105.590087890625 208.048095703125 105.177001953125 219.200439453125 105.590087890625 224.983154296875 106.41619873046876 226.6353454589844 110.13363647460938 227.87451171875 120.87298583984376 224.15704345703125 137.8079833984375 214.24383544921875 155.982177734375 197.30877685546875 155.982177734375 197.30877685546875 " />
        <polyline stroke="black" stroke-width="3" stroke-linecap="round" fill="transparent" stroke-linejoin="round" points="169.1998291015625 162.1995086669922 168.78680419921875 168.80828857421875 168.37371826171875 177.89541625976563 168.37371826171875 186.5694580078125 168.37371826171875 203.9175720214844 168.78680419921875 216.72213745117188 168.78680419921875 216.72213745117188 " />
        </svg>