<?xml version="1.0" standalone="no"?>
    <svg width="256" height="256" xmlns="http://www.w3.org/2000/svg" version="1.1">
    <polyline stroke="black" stroke-width="3" stroke-linecap="round" fill="transparent" stroke-linejoin="round" points="54.2222900390625 74.88890075683594 72.00006103515625 94.88890075683594 76.44451904296875 100.4444580078125 80.888916015625 102.66667175292967 84.2222900390625 102.66667175292967 84.2222900390625 102.66667175292967 " />
        <polyline stroke="black" stroke-width="3" stroke-linecap="round" fill="transparent" stroke-linejoin="round" points="93.1112060546875 64.88890075683594 104.2222900390625 73.77778625488281 " />
        <polyline stroke="black" stroke-width="3" stroke-linecap="round" fill="transparent" stroke-linejoin="round" points="104 73 104 73 " />
        <polyline stroke="black" stroke-width="3" stroke-linecap="round" fill="transparent" stroke-linejoin="round" points="132 33.77778625488281 137.5556640625 50.44445037841797 129.77783203125 59.333343505859375 120.888916015625 71.55555725097656 115.3333740234375 78.22222900390625 115.3333740234375 78.22222900390625 " />
        <polyline stroke="black" stroke-width="3" stroke-linecap="round" fill="transparent" stroke-linejoin="round" points="40.888916015625 140.4444580078125 83.11114501953125 111.55555725097656 105.3333740234375 99.33334350585938 126.4444580078125 87.11111450195313 145.3333740234375 76 158.666748046875 68.22222900390625 166.4444580078125 63.77778625488281 169.77783203125 61.55555725097656 166.4444580078125 63.77778625488281 166.4444580078125 63.77778625488281 " />
        <polyline stroke="black" stroke-width="3" stroke-linecap="round" fill="transparent" stroke-linejoin="round" points="65.3333740234375 158.22222900390625 70.888916015625 182.66668701171875 73.11114501953125 192.66668701171875 73.11114501953125 194.888916015625 74.2222900390625 196 75.3333740234375 193.77780151367188 86.4444580078125 182.66668701171875 100.888916015625 169.33334350585938 117.5556640625 156.00001525878906 138.666748046875 140.4444580078125 149.77783203125 132.6666717529297 154.2222900390625 130.4444580078125 160.888916015625 126.00001525878906 164.2222900390625 123.7777862548828 164.2222900390625 123.7777862548828 " />
        <polyline stroke="black" stroke-width="3" stroke-linecap="round" fill="transparent" stroke-linejoin="round" points="143.1112060546875 100.4444580078125 160.888916015625 104.88890075683594 169.77783203125 111.55555725097656 178.666748046875 122.66667175292967 182 129.33334350585938 180.888916015625 132.6666717529297 180.888916015625 132.6666717529297 " />
        <polyline stroke="black" stroke-width="3" stroke-linecap="round" fill="transparent" stroke-linejoin="round" points="117.5556640625 108.22222900390624 124.2222900390625 130.4444580078125 126.4444580078125 138.22222900390625 128.666748046875 157.11111450195313 128.666748046875 180.4444580078125 127.5556640625 204.888916015625 122 229.33334350585935 107.5556640625 261.5555725097656 107.5556640625 261.5555725097656 " />
        </svg>