<?xml version="1.0" standalone="no"?>
    <svg width="256" height="256" xmlns="http://www.w3.org/2000/svg" version="1.1">
    <polyline stroke="black" stroke-width="3" stroke-linecap="round" fill="transparent" stroke-linejoin="round" points="75.73126220703125 54.34637451171875 77.6673583984375 65.31761169433594 79.60345458984375 72.41664123535156 82.830322265625 79.51565551757813 85.41177368164063 86.61468505859375 89.9293212890625 91.77761840820313 89.9293212890625 91.77761840820313 " />
        <polyline stroke="black" stroke-width="3" stroke-linecap="round" fill="transparent" stroke-linejoin="round" points="104.12738037109376 53.701019287109375 112.51715087890624 65.96296691894531 117.03469848632813 70.48052978515625 122.1976318359375 74.35273742675781 127.36056518554688 76.28883361816406 135.10494995117188 73.06199645996094 146.7215576171875 62.09077453613281 157.04742431640625 48.5380859375 162.855712890625 40.79369354248047 166.7279052734375 36.27613067626953 169.309326171875 33.694671630859375 170.60009765625 33.694671630859375 169.309326171875 38.85759735107422 164.79180908203125 46.60198974609375 153.820556640625 62.73614501953125 139.62249755859375 79.51565551757813 121.55224609375 94.3590850830078 103.48202514648438 107.2664031982422 87.34786987304688 114.3654327392578 73.795166015625 117.59225463867188 66.05078125 117.59225463867188 59.59710693359375 117.59225463867188 56.37030029296875 117.59225463867188 56.37030029296875 116.9468994140625 59.59710693359375 114.3654327392578 70.568359375 109.84786987304688 88.63861083984375 102.74884033203124 109.9356689453125 95.64981079101563 131.23275756835938 89.84152221679688 152.52984619140625 85.32395935058594 166.08251953125 82.74249267578125 173.1815185546875 80.806396484375 178.344482421875 78.87030029296875 180.28057861328125 77.57955932617188 180.28057861328125 77.57955932617188 " />
        <polyline stroke="black" stroke-width="3" stroke-linecap="round" fill="transparent" stroke-linejoin="round" points="75.73126220703125 129.85421752929688 75.73126220703125 142.1161651611328 77.02200317382813 149.86056518554688 78.9581298828125 158.2503204345703 82.830322265625 164.7039794921875 89.28396606445313 168.576171875 99.60980224609376 170.5122833251953 114.4532470703125 167.2854461669922 128.65130615234375 160.831787109375 140.26788330078125 152.44203186035156 149.9483642578125 144.05226135253906 157.6927490234375 136.30787658691406 163.5010986328125 129.85421752929688 167.373291015625 125.98202514648438 168.66400146484375 123.40055847167967 168.66400146484375 124.6912841796875 168.66400146484375 128.5634765625 168.66400146484375 135.01715087890625 169.309326171875 143.4069061279297 169.9547119140625 151.79666137695313 169.9547119140625 158.2503204345703 169.9547119140625 163.4132537841797 166.7279052734375 165.34934997558594 162.855712890625 161.47715759277344 162.855712890625 161.47715759277344 " />
        <polyline stroke="black" stroke-width="3" stroke-linecap="round" fill="transparent" stroke-linejoin="round" points="128.00592041015625 98.23127746582033 124.13372802734376 115.0107879638672 122.843017578125 130.4995880126953 120.90692138671876 147.92446899414063 117.6800537109375 165.99472045898438 113.807861328125 184.06497192382813 109.29031372070313 201.4898376464844 102.836669921875 217.62399291992188 95.73760986328124 235.6942443847656 95.73760986328124 235.6942443847656 " />
        </svg>