<?xml version="1.0" standalone="no"?>
    <svg width="256" height="256" xmlns="http://www.w3.org/2000/svg" version="1.1">
    <polyline stroke="black" stroke-width="3" stroke-linecap="round" fill="transparent" stroke-linejoin="round" points="88.466796875 66.40000915527344 104.466796875 92.00001525878906 110.86669921875 93.06668090820313 110.86669921875 93.06668090820313 " />
        <polyline stroke="black" stroke-width="3" stroke-linecap="round" fill="transparent" stroke-linejoin="round" points="119.4000244140625 42.93334197998047 132.2000732421875 62.13334655761719 137.533447265625 63.20002746582031 137.533447265625 63.20002746582031 " />
        <polyline stroke="black" stroke-width="3" stroke-linecap="round" fill="transparent" stroke-linejoin="round" points="166.3333740234375 30.133346557617188 153.533447265625 51.46668243408203 139.666748046875 70.66667175292969 121.53338623046876 89.86669921875 121.53338623046876 89.86669921875 " />
        <polyline stroke="black" stroke-width="3" stroke-linecap="round" fill="transparent" stroke-linejoin="round" points="73.53338623046875 109.06668090820313 107.666748046875 98.40000915527344 138.60009765625 92.00001525878906 163.1334228515625 87.73333740234375 178.0667724609375 86.66667175292969 182.3333740234375 88.80000305175781 182.3333740234375 88.80000305175781 " />
        <polyline stroke="black" stroke-width="3" stroke-linecap="round" fill="transparent" stroke-linejoin="round" points="97.00006103515624 115.4666748046875 94.86669921875 135.73338317871094 92.7333984375 148.53334045410156 90.60003662109376 157.06671142578125 88.466796875 162.40003967285156 89.53338623046875 162.40003967285156 95.93341064453124 160.26669311523438 114.06671142578124 152.80001831054688 137.533447265625 145.33334350585938 154.60009765625 142.1333465576172 166.3333740234375 141.06671142578125 173.8001708984375 141.06671142578125 173.8001708984375 141.06671142578125 " />
        <polyline stroke="black" stroke-width="3" stroke-linecap="round" fill="transparent" stroke-linejoin="round" points="178.0667724609375 129.33334350585938 177 138.93336486816406 " />
        <polyline stroke="black" stroke-width="3" stroke-linecap="round" fill="transparent" stroke-linejoin="round" points="177 138 177 138 " />
        <polyline stroke="black" stroke-width="3" stroke-linecap="round" fill="transparent" stroke-linejoin="round" points="134.3333740234375 87.73333740234375 136.466796875 109.06668090820313 139.666748046875 134.6666717529297 137.533447265625 162.40003967285156 127.93341064453124 189.06671142578125 113.00006103515624 222.13336181640625 107.666748046875 231.73336791992188 107.666748046875 231.73336791992188 " />
        </svg>