<?xml version="1.0" standalone="no"?>
    <svg width="256" height="256" xmlns="http://www.w3.org/2000/svg" version="1.1">
    <polyline stroke="black" stroke-width="3" stroke-linecap="round" fill="transparent" stroke-linejoin="round" points="72.06546020507813 79.9078369140625 73.9964599609375 100.50552368164063 76.24935913085938 115.63192749023438 77.53668212890625 122.39054870605467 78.18035888671875 127.86180114746094 78.18035888671875 127.86180114746094 " />
        <polyline stroke="black" stroke-width="3" stroke-linecap="round" fill="transparent" stroke-linejoin="round" points="93.95046997070313 53.838897705078125 99.74359130859376 51.58604431152344 111.65158081054688 47.723976135253906 126.45614624023438 43.540077209472656 142.86996459960938 39.678016662597656 152.52508544921875 38.390663146972656 159.92742919921875 38.390663146972656 166.3641357421875 40.321685791015625 169.58251953125 47.080299377441406 168.29522705078125 63.49407958984375 163.78948974609375 84.41358947753906 159.6055908203125 102.1147003173828 155.42169189453125 116.5974578857422 153.81243896484375 121.42503356933594 153.81243896484375 121.42503356933594 " />
        <polyline stroke="black" stroke-width="3" stroke-linecap="round" fill="transparent" stroke-linejoin="round" points="119.69757080078124 77.976806640625 120.98492431640624 97.60897827148438 122.91592407226563 114.02273559570313 124.20330810546876 127.53996276855467 124.20330810546876 130.75836181640625 124.20330810546876 130.75836181640625 " />
        <polyline stroke="black" stroke-width="3" stroke-linecap="round" fill="transparent" stroke-linejoin="round" points="105.53665161132813 79.58601379394531 113.58261108398438 77.33314514160156 120.98492431640624 75.402099609375 132.8929443359375 72.827392578125 140.93890380859375 72.50555419921875 146.73199462890625 72.50555419921875 149.6285400390625 74.11474609375 149.6285400390625 74.11474609375 " />
        <polyline stroke="black" stroke-width="3" stroke-linecap="round" fill="transparent" stroke-linejoin="round" points="99.099853515625 118.20663452148438 118.73202514648438 113.70089721679688 135.46762084960938 110.48251342773438 148.01937866210938 108.87332153320313 158.6400146484375 108.55148315429688 161.8583984375 108.55148315429688 161.8583984375 108.55148315429688 " />
        <polyline stroke="black" stroke-width="3" stroke-linecap="round" fill="transparent" stroke-linejoin="round" points="73.9964599609375 173.8847198486328 107.78955078125 167.76979064941406 145.122802734375 162.94223022460938 177.30670166015625 157.47096252441406 200.1572265625 153.60890197753906 215.60546875 151.3560333251953 223.32965087890625 149.746826171875 223.32965087890625 149.746826171875 " />
        <polyline stroke="black" stroke-width="3" stroke-linecap="round" fill="transparent" stroke-linejoin="round" points="100.0654296875 151.99969482421875 101.35275268554688 173.8847198486328 103.927490234375 195.76974487304688 106.18032836914063 212.50537109375 107.78955078125 218.942138671875 107.78955078125 218.942138671875 " />
        <polyline stroke="black" stroke-width="3" stroke-linecap="round" fill="transparent" stroke-linejoin="round" points="152.52508544921875 149.10316467285156 150.9158935546875 171.63186645507813 149.95037841796875 192.22952270507813 149.6285400390625 209.9306640625 148.98489379882813 218.62030029296875 148.98489379882813 218.62030029296875 " />
        <polyline stroke="black" stroke-width="3" stroke-linecap="round" fill="transparent" stroke-linejoin="round" points="122.59408569335938 212.50537109375 140.93890380859375 211.218017578125 158.31817626953125 211.218017578125 158.31817626953125 211.218017578125 " />
        </svg>