<?xml version="1.0" standalone="no"?>
    <svg width="256" height="256" xmlns="http://www.w3.org/2000/svg" version="1.1">
    <polyline stroke="black" stroke-width="3" stroke-linecap="round" fill="transparent" stroke-linejoin="round" points="102.51556396484376 65.95013427734375 99.43475341796876 86.48860168457031 97.72320556640624 116.26939392089844 97.72320556640624 128.2501678466797 97.72320556640624 134.75401306152344 97.72320556640624 134.75401306152344 " />
        <polyline stroke="black" stroke-width="3" stroke-linecap="round" fill="transparent" stroke-linejoin="round" points="116.20785522460938 48.492401123046875 121.68475341796876 45.06932830810547 128.18865966796875 41.646240234375 149.75399780273438 34.80009460449219 166.527099609375 34.45777893066406 182.2733154296875 38.56547546386719 195.623291015625 46.09625244140625 204.8656005859375 56.023193359375 211.3695068359375 72.45396423339844 210.68487548828125 90.59629821777344 200.7579345703125 110.45016479492188 200.7579345703125 110.45016479492188 " />
        <polyline stroke="black" stroke-width="3" stroke-linecap="round" fill="transparent" stroke-linejoin="round" points="119.63092041015624 102.23477172851563 125.45016479492188 99.15399169921876 145.98861694335938 89.91168212890625 162.76171875 81.35398864746094 172.0040283203125 76.56166076660156 172.0040283203125 76.56166076660156 " />
        <polyline stroke="black" stroke-width="3" stroke-linecap="round" fill="transparent" stroke-linejoin="round" points="154.54632568359375 57.05010986328125 153.5194091796875 64.92320251464844 152.8348388671875 72.45396423339844 151.465576171875 87.51553344726563 150.0963134765625 100.86553955078124 148.72711181640625 113.87322998046876 145.64633178710938 128.59246826171875 143.25018310546875 134.75401306152344 143.25018310546875 134.75401306152344 " />
        <polyline stroke="black" stroke-width="3" stroke-linecap="round" fill="transparent" stroke-linejoin="round" points="119.28857421875 139.88864135742188 126.81939697265624 136.12326049804688 135.03475952148438 132.0155487060547 154.54632568359375 122.43093872070313 166.184814453125 115.92706298828124 188.777099609375 104.6309051513672 188.777099609375 104.6309051513672 " />
        <polyline stroke="black" stroke-width="3" stroke-linecap="round" fill="transparent" stroke-linejoin="round" points="80.6077880859375 201.50408935546875 90.19244384765624 197.73870849609375 100.803955078125 193.63101196289065 124.76556396484376 185.07330322265625 137.77325439453125 181.3079071044922 167.5540771484375 174.1194305419922 199.388671875 166.58865356445313 223.0079345703125 159.4001922607422 236.70025634765625 153.2386474609375 240.4656982421875 149.8155517578125 240.4656982421875 147.76171875 240.4656982421875 147.76171875 " />
        <polyline stroke="black" stroke-width="3" stroke-linecap="round" fill="transparent" stroke-linejoin="round" points="141.1962890625 143.65402221679688 139.82708740234375 150.1578826904297 138.45785522460938 157.34634399414063 136.746337890625 171.38096618652344 135.3770751953125 185.41558837890625 134.35018920898438 197.3963623046875 133.66552734375 207.32330322265625 133.66552734375 211.08871459960935 134.35018920898438 218.27719116210935 135.03475952148438 220.67333984375 135.3770751953125 221.35797119140625 137.77325439453125 223.0694580078125 141.1962890625 223.75408935546875 145.98861694335938 224.09640502929688 150.78094482421875 223.41180419921875 154.54632568359375 222.3848876953125 156.25787353515625 221.70025634765625 160.3656005859375 219.6463928222656 162.41943359375 217.93487548828125 164.1309814453125 215.88101196289065 169.26556396484375 208.0079345703125 169.26556396484375 208.0079345703125 " />
        <polyline stroke="black" stroke-width="3" stroke-linecap="round" fill="transparent" stroke-linejoin="round" points="185.35406494140625 155.97711181640625 183.98480224609375 168.30020141601563 183.30023193359375 173.77713012695313 177.48095703125 198.42330932617188 177.48095703125 198.42330932617188 " />
        </svg>