<?xml version="1.0" standalone="no"?>
    <svg width="256" height="256" xmlns="http://www.w3.org/2000/svg" version="1.1">
    <polyline stroke="black" stroke-width="3" stroke-linecap="round" fill="transparent" stroke-linejoin="round" points="72.8828125 94.28125 74.114501953125 114.39923095703124 76.1673583984375 131.64321899414063 77.39910888671875 141.49691772460938 77.80966186523438 144.78147888183594 78.22021484375 147.24490356445313 78.22021484375 146.83433532714844 78.22021484375 146.83433532714844 " />
        <polyline stroke="black" stroke-width="3" stroke-linecap="round" fill="transparent" stroke-linejoin="round" points="91.35848999023438 89.76498413085938 95.46420288085938 85.65927124023438 101.21221923828124 80.73240661621094 124.20419311523438 68.00469970703125 142.269287109375 64.3095703125 156.22869873046875 65.13070678710938 166.4930419921875 69.23641967773438 170.1881103515625 72.11041259765625 176.3466796875 80.73240661621094 178.81011962890625 104.5455322265625 170.59869384765625 123.43179321289063 163.6190185546875 132.05377197265625 163.6190185546875 132.05377197265625 " />
        <polyline stroke="black" stroke-width="3" stroke-linecap="round" fill="transparent" stroke-linejoin="round" points="89.30563354492188 128.358642578125 95.46420288085938 125.4846649169922 102.0333251953125 122.6106414794922 124.61474609375 115.63095092773438 138.16357421875 112.34637451171876 149.24899291992188 108.24069213867188 156.6392822265625 103.72439575195313 156.6392822265625 103.72439575195313 " />
        <polyline stroke="black" stroke-width="3" stroke-linecap="round" fill="transparent" stroke-linejoin="round" points="138.57415771484375 86.48040771484375 134.87899780273438 92.63897705078124 127.48873901367188 106.59837341308594 123.383056640625 113.57809448242188 109.83419799804688 133.69607543945313 101.21221923828124 142.31805419921875 94.23251342773438 147.65548706054688 89.30563354492188 150.94004821777344 86.84222412109375 152.1717529296875 86.431640625 151.76119995117188 90.12680053710938 148.88719177246094 102.8544921875 142.31805419921875 121.33016967773438 135.74893188476563 138.98471069335938 131.64321899414063 152.12298583984375 129.17979431152344 157.04986572265625 128.358642578125 157.04986572265625 128.358642578125 " />
        <polyline stroke="black" stroke-width="3" stroke-linecap="round" fill="transparent" stroke-linejoin="round" points="57.281097412109375 185.0174560546875 66.31365966796875 182.55401611328125 77.39910888671875 179.26943969726563 111.88705444335938 169.41574096679688 134.87899780273438 165.72061157226563 153.354736328125 164.8994598388672 161.15557861328125 164.8994598388672 175.114990234375 164.8994598388672 175.114990234375 164.8994598388672 " />
        <polyline stroke="black" stroke-width="3" stroke-linecap="round" fill="transparent" stroke-linejoin="round" points="112.70819091796876 157.50918579101563 109.423583984375 164.07830810546875 105.72848510742188 173.1108856201172 93.00079345703124 203.08258056640625 87.66339111328125 216.63140869140625 86.02108764648438 222.78997802734375 86.431640625 225.25341796875 91.35848999023438 226.485107421875 100.39105224609376 224.84283447265625 110.65533447265624 221.96881103515625 120.09848022460938 217.86312866210935 127.48873901367188 212.1151123046875 130.36273193359375 209.65170288085935 130.36273193359375 209.65170288085935 " />
        <polyline stroke="black" stroke-width="3" stroke-linecap="round" fill="transparent" stroke-linejoin="round" points="136.1107177734375 175.57431030273438 132.826171875 189.53372192382813 130.7733154296875 202.6719970703125 129.54159545898438 210.47283935546875 129.54159545898438 210.47283935546875 " />
        </svg>