<?xml version="1.0" standalone="no"?>
    <svg width="256" height="256" xmlns="http://www.w3.org/2000/svg" version="1.1">
    <polyline stroke="black" stroke-width="3" stroke-linecap="round" fill="transparent" stroke-linejoin="round" points="84.3787841796875 83.19583129882813 84.3787841796875 94.28125 84.3787841796875 104.13494873046876 84.3787841796875 111.52523803710938 83.96823120117188 117.27322387695313 83.5576171875 119.32609558105467 83.5576171875 119.32609558105467 " />
        <polyline stroke="black" stroke-width="3" stroke-linecap="round" fill="transparent" stroke-linejoin="round" points="94.23251342773438 63.077850341796875 105.31787109375 57.329864501953125 111.88705444335938 54.86643981933594 131.18389892578125 49.118438720703125 137.75302124023438 48.29729461669922 153.354736328125 47.88673400878906 160.7449951171875 49.118438720703125 166.0823974609375 52.81358337402344 168.13525390625 55.277008056640625 172.240966796875 68.82585144042969 170.1881103515625 82.78526306152344 161.9766845703125 97.15525817871094 156.6392822265625 102.90324401855467 156.6392822265625 102.90324401855467 " />
        <polyline stroke="black" stroke-width="3" stroke-linecap="round" fill="transparent" stroke-linejoin="round" points="111.47650146484376 86.48040771484375 122.97247314453124 83.19583129882813 134.46844482421875 79.91127014160156 143.5009765625 77.03726196289063 148.83843994140625 74.5738525390625 151.71240234375 72.52099609375 152.12298583984375 70.4681396484375 151.71240234375 68.82585144042969 150.89129638671875 67.59414672851563 150.07015991210938 66.77299499511719 149.65960693359375 65.95185852050781 148.01727294921875 64.72013854980469 146.375 64.3095703125 144.3221435546875 64.72013854980469 141.44818115234375 67.59414672851563 136.1107177734375 74.16326904296875 129.54159545898438 84.0169677734375 122.97247314453124 93.46011352539063 116.4033203125 101.26095581054688 110.65533447265624 107.41952514648438 106.13909912109376 111.11466979980467 102.0333251953125 113.9886474609375 98.748779296875 115.63095092773438 96.28533935546876 116.45208740234376 95.05364990234376 116.45208740234376 94.64306640625 116.45208740234376 95.46420288085938 116.04150390625 101.62277221679688 114.39923095703124 113.93988037109376 111.11466979980467 127.48873901367188 107.41952514648438 138.16357421875 104.5455322265625 145.143310546875 103.31382751464844 148.83843994140625 102.90324401855467 148.83843994140625 102.90324401855467 " />
        <polyline stroke="black" stroke-width="3" stroke-linecap="round" fill="transparent" stroke-linejoin="round" points="70.82992553710938 155.86691284179688 80.2730712890625 154.6351776123047 90.94793701171876 153.40347290039063 123.79364013671876 149.29776000976563 134.46844482421875 148.0660400390625 160.33441162109375 144.37091064453125 172.65155029296875 142.31805419921875 179.63128662109375 141.0863494873047 181.68408203125 140.26519775390625 181.68408203125 140.26519775390625 " />
        <polyline stroke="black" stroke-width="3" stroke-linecap="round" fill="transparent" stroke-linejoin="round" points="104.9073486328125 135.33836364746094 100.80160522460938 144.78147888183594 92.17962646484376 168.59458923339844 90.12680053710938 183.37515258789065 89.7161865234375 191.58657836914065 90.12680053710938 194.4605712890625 91.35848999023438 197.74514770507813 94.64306640625 200.20855712890625 102.44393920898438 201.02972412109375 116.81390380859376 198.97686767578125 125.43588256835938 195.28170776367188 132.826171875 191.58657836914065 136.1107177734375 189.1231689453125 136.1107177734375 189.1231689453125 " />
        <polyline stroke="black" stroke-width="3" stroke-linecap="round" fill="transparent" stroke-linejoin="round" points="134.46844482421875 135.33836364746094 134.87899780273438 146.01318359375 135.70016479492188 157.09861755371094 136.52133178710938 166.9523162841797 136.52133178710938 176.39544677734375 136.52133178710938 176.39544677734375 " />
        </svg>