<?xml version="1.0" standalone="no"?>
    <svg width="256" height="256" xmlns="http://www.w3.org/2000/svg" version="1.1">
    <polyline stroke="black" stroke-width="3" stroke-linecap="round" fill="transparent" stroke-linejoin="round" points="110.7711181640625 52.572021484375 94.63949584960938 79.00997924804688 84.33319091796875 93.79730224609376 57.447113037109375 130.54156494140625 48.0369873046875 141.74407958984375 44.00408935546875 144.88079833984375 43.555999755859375 144.88079833984375 43.555999755859375 144.88079833984375 " />
        <polyline stroke="black" stroke-width="3" stroke-linecap="round" fill="transparent" stroke-linejoin="round" points="132.72802734375 53.91633605957031 151.54827880859375 54.812530517578125 161.406494140625 56.156829833984375 184.707763671875 60.637847900390625 201.2874755859375 64.67074584960938 209.353271484375 66.01504516601563 212.489990234375 66.9112548828125 212.489990234375 66.9112548828125 " />
        <polyline stroke="black" stroke-width="3" stroke-linecap="round" fill="transparent" stroke-linejoin="round" points="107.186279296875 114.40994262695313 118.8369140625 108.1365203857422 123.76605224609376 105.44792175292967 131.38372802734375 100.9669189453125 135.86474609375 98.72640991210938 137.65716552734375 98.2783203125 136.76095581054688 100.07072448730467 126.90277099609376 114.8580322265625 118.8369140625 125.1643524169922 100.01669311523438 148.46560668945313 86.12557983398438 165.0453338623047 74.47494506835938 177.14404296875 72.68255615234375 178.48834228515625 73.130615234375 177.59214782714844 76.267333984375 175.35165405273438 101.36102294921876 160.1162109375 124.6622314453125 150.25802612304688 145.27487182617188 144.43270874023438 160.51031494140625 143.08837890625 166.78369140625 143.5364990234375 179.33056640625 149.80990600585938 185.60394287109375 159.66812133789063 189.188720703125 173.5592498779297 189.6368408203125 180.28076171875 183.8115234375 196.8604736328125 180.22674560546875 201.34149169921875 163.19891357421875 213.44021606445313 163.19891357421875 213.44021606445313 " />
        <polyline stroke="black" stroke-width="3" stroke-linecap="round" fill="transparent" stroke-linejoin="round" points="108.97869873046876 180.72886657714844 107.186279296875 185.2098693847656 105.39389038085938 188.794677734375 100.91290283203124 195.96429443359375 99.568603515625 196.8604736328125 99.568603515625 196.8604736328125 " />
        <polyline stroke="black" stroke-width="3" stroke-linecap="round" fill="transparent" stroke-linejoin="round" points="141.6900634765625 169.52633666992188 134.07235717773438 188.794677734375 121.9736328125 212.54400634765625 117.94073486328124 218.36932373046875 117.94073486328124 218.36932373046875 " />
        </svg>