<?xml version="1.0" standalone="no"?>
    <svg width="256" height="256" xmlns="http://www.w3.org/2000/svg" version="1.1">
    <polyline stroke="black" stroke-width="3" stroke-linecap="round" fill="transparent" stroke-linejoin="round" points="98.92721557617188 83.04873657226563 90.63702392578124 94.89190673828124 82.34677124023438 105.55076599121094 63.397705078125 129.63186645507813 56.291839599609375 137.92208862304688 52.738861083984375 141.08026123046875 51.554534912109375 141.47503662109375 51.159759521484375 140.68548583984375 51.159759521484375 140.68548583984375 " />
        <polyline stroke="black" stroke-width="3" stroke-linecap="round" fill="transparent" stroke-linejoin="round" points="125.376953125 47.91401672363281 132.48284912109375 47.519248962402344 140.7730712890625 47.91401672363281 148.66851806640625 49.09832763671875 168.01239013671875 56.5989990234375 183.80322265625 65.67877197265625 195.64642333984375 73.57421875 203.5418701171875 79.49578857421875 207.8843994140625 83.44351196289063 209.85821533203125 85.81214904785156 210.25299072265625 86.60169982910156 210.25299072265625 86.60169982910156 " />
        <polyline stroke="black" stroke-width="3" stroke-linecap="round" fill="transparent" stroke-linejoin="round" points="105.24359130859376 107.52464294433594 112.74423217773438 104.76121520996094 119.85015869140624 102.392578125 126.16650390625 100.4187469482422 138.7991943359375 96.86578369140624 148.27377319335938 94.10237121582033 153.40576171875 92.52328491210938 155.7744140625 92.12850952148438 154.98486328125 92.52328491210938 148.27377319335938 98.8396453857422 130.50900268554688 113.84098815917967 111.16513061523438 129.63186645507813 96.163818359375 142.6593475341797 86.68930053710938 152.13388061523438 81.16244506835938 157.6606903076172 79.9781494140625 160.02932739257813 80.3729248046875 160.02932739257813 96.55859375 156.08160400390625 119.85015869140624 148.5809326171875 142.74691772460938 143.0541229248047 162.88031005859375 141.08026123046875 171.1705322265625 141.47503662109375 186.96142578125 147.3966064453125 193.27777099609375 155.68682861328125 195.25164794921875 172.6620330810547 188.54052734375 192.79541015625 177.8817138671875 207.0072326660156 165.24896240234375 217.27130126953125 151.037109375 223.982421875 138.7991943359375 225.956298828125 131.29852294921875 223.982421875 131.29852294921875 223.982421875 " />
        <polyline stroke="black" stroke-width="3" stroke-linecap="round" fill="transparent" stroke-linejoin="round" points="130.11422729492188 153.31820678710938 123.7978515625 161.21365356445313 115.50765991210938 172.2672576904297 90.24224853515624 205.03335571289065 88.26837158203125 208.1915283203125 89.45269775390625 208.1915283203125 92.61083984375 207.4019775390625 92.61083984375 207.4019775390625 " />
        <polyline stroke="black" stroke-width="3" stroke-linecap="round" fill="transparent" stroke-linejoin="round" points="148.27377319335938 178.9783935546875 143.14169311523438 185.68951416015625 137.61492919921875 192.79541015625 132.08807373046875 199.50656127929688 126.9560546875 205.82290649414065 122.21875 212.1392822265625 122.21875 212.1392822265625 " />
        </svg>