<?xml version="1.0" standalone="no"?>
    <svg width="256" height="256" xmlns="http://www.w3.org/2000/svg" version="1.1">
    <polyline stroke="black" stroke-width="3" stroke-linecap="round" fill="transparent" stroke-linejoin="round" points="100.93646240234376 66.19622802734375 91.23846435546876 80.74319458007813 69.013916015625 112.66574096679688 60.124114990234375 126.40452575683594 54.87103271484375 133.27395629882813 54.87103271484375 133.27395629882813 " />
        <polyline stroke="black" stroke-width="3" stroke-linecap="round" fill="transparent" stroke-linejoin="round" points="132.45489501953125 54.47783660888672 141.748779296875 56.09417724609375 163.1651611328125 60.94316101074219 174.883544921875 64.57989501953125 195.8958740234375 71.44931030273438 212.4632568359375 77.91462707519531 227.01019287109375 84.78404235839844 227.01019287109375 84.78404235839844 " />
        <polyline stroke="black" stroke-width="3" stroke-linecap="round" fill="transparent" stroke-linejoin="round" points="107.80584716796876 102.96775817871094 114.27117919921876 99.73509216308594 126.79769897460938 94.48202514648438 136.09164428710938 91.6534423828125 141.748779296875 90.44119262695313 144.17327880859375 90.037109375 144.17327880859375 92.05752563476563 138.11203002929688 102.15957641601563 124.77731323242188 117.1106414794922 110.63446044921876 130.4453582763672 97.70379638671876 140.95150756835938 90.02621459960938 147.0127410888672 85.9853515625 150.2454071044922 85.17721557617188 150.64947509765625 88.40988159179688 149.03314208984375 100.93646240234376 143.37600708007813 109.82626342773438 139.7392578125 129.22222900390625 132.86985778808594 157.912109375 129.23309326171875 173.2672119140625 132.86985778808594 179.3284912109375 136.10250854492188 187.814208984375 144.58824157714844 195.087646484375 172.06585693359375 194.279541015625 182.16790771484375 186.1978759765625 206.0087890625 182.9652099609375 211.26187133789065 172.45904541015625 220.9598388671875 167.61004638671875 223.38433837890625 159.5284423828125 225.40475463867188 159.5284423828125 225.40475463867188 " />
        <polyline stroke="black" stroke-width="3" stroke-linecap="round" fill="transparent" stroke-linejoin="round" points="117.0997314453125 168.4291229248047 114.27117919921876 172.46994018554688 111.8466796875 176.51077270507813 109.01806640625 182.16790771484375 108.20993041992188 183.78424072265625 108.614013671875 184.99652099609375 112.65484619140624 183.78424072265625 122.352783203125 178.12710571289063 130.4344482421875 172.06585693359375 135.283447265625 168.0250244140625 137.30389404296875 166.8127899169922 137.30389404296875 168.0250244140625 133.6671142578125 177.72300720214844 123.56503295898438 198.73529052734375 116.69564819335938 212.87820434570313 116.69564819335938 212.87820434570313 " />
        </svg>