<?xml version="1.0" standalone="no"?>
    <svg width="256" height="256" xmlns="http://www.w3.org/2000/svg" version="1.1">
    <polyline stroke="black" stroke-width="3" stroke-linecap="round" fill="transparent" stroke-linejoin="round" points="114 27 114 30 114 35 105 59 91 83 84 94 67 109 55 119 50 120 47 123 44 123 43 123 42 124 42 124 " />
        <polyline stroke="black" stroke-width="3" stroke-linecap="round" fill="transparent" stroke-linejoin="round" points="107 39 107 39 111 40 121 47 132 52 154 63 172 70 179 72 188 75 193 76 195 76 198 78 200 78 201 78 203 79 203 79 204 79 205 79 205 79 " />
        <polyline stroke="black" stroke-width="3" stroke-linecap="round" fill="transparent" stroke-linejoin="round" points="118 101 127 99 133 97 134 97 135 97 136 97 137 97 138 96 139 96 139 95 140 95 142 95 143 95 143 95 143 99 137 115 131 127 119 147 108 160 102 167 90 175 80 183 75 185 70 189 65 191 64 192 62 193 61 193 60 194 59 194 59 195 59 195 " />
        <polyline stroke="black" stroke-width="3" stroke-linecap="round" fill="transparent" stroke-linejoin="round" points="123 143 122 143 123 143 137 143 160 140 168 139 179 138 184 137 187 137 189 137 191 137 194 137 202 144 211 161 216 171 218 186 218 198 216 203 211 215 206 223 205 224 203 227 203 228 202 229 201 229 201 230 200 230 198 229 196 227 196 227 " />
        <polyline stroke="black" stroke-width="3" stroke-linecap="round" fill="transparent" stroke-linejoin="round" points="157 159 155 159 151 166 145 174 131 195 125 206 121 211 119 213 118 215 117 216 116 217 115 217 115 217 " />
        <polyline stroke="black" stroke-width="3" stroke-linecap="round" fill="transparent" stroke-linejoin="round" points="171 163 168 175 157 210 153 219 148 230 145 235 143 236 141 239 139 242 139 242 138 243 137 243 137 243 " />
        </svg>