<?xml version="1.0" standalone="no"?>
    <svg width="256" height="256" xmlns="http://www.w3.org/2000/svg" version="1.1">
    <polyline stroke="black" stroke-width="3" stroke-linecap="round" fill="transparent" stroke-linejoin="round" points="121 49 108 68 89 90 69 112 52 127 43 133 42 134 42 134 " />
        <polyline stroke="black" stroke-width="3" stroke-linecap="round" fill="transparent" stroke-linejoin="round" points="136 52 151 67 167 84 184 100 200 112 209 120 209 120 " />
        <polyline stroke="black" stroke-width="3" stroke-linecap="round" fill="transparent" stroke-linejoin="round" points="89 117 99 117 103 116 112 115 118 115 119 114 121 114 119 116 115 122 102 143 83 166 65 184 54 194 52 196 52 196 " />
        <polyline stroke="black" stroke-width="3" stroke-linecap="round" fill="transparent" stroke-linejoin="round" points="115 142 134 142 155 139 174 139 184 139 189 139 189 147 189 162 181 177 171 192 160 203 149 214 138 220 130 220 130 220 " />
        <polyline stroke="black" stroke-width="3" stroke-linecap="round" fill="transparent" stroke-linejoin="round" points="113 167 104 181 92 196 83 206 79 210 79 210 " />
        <polyline stroke="black" stroke-width="3" stroke-linecap="round" fill="transparent" stroke-linejoin="round" points="147 156 139 169 123 188 111 204 105 214 105 214 " />
        </svg>