<?xml version="1.0" standalone="no"?>
    <svg width="256" height="256" xmlns="http://www.w3.org/2000/svg" version="1.1">
    <polyline stroke="black" stroke-width="3" stroke-linecap="round" fill="transparent" stroke-linejoin="round" points="123.6787109375 67.05413818359375 123.6787109375 77.67745971679688 120.13763427734376 91.251708984375 120.13763427734376 91.251708984375 " />
        <polyline stroke="black" stroke-width="3" stroke-linecap="round" fill="transparent" stroke-linejoin="round" points="78.2344970703125 121.35113525390624 94.16949462890624 116.03947448730467 118.3670654296875 109.54743957519533 138.433349609375 104.23577880859376 157.909423828125 98.9241180419922 172.6640625 95.9731903076172 179.74627685546875 95.9731903076172 182.69720458984375 97.153564453125 182.69720458984375 97.153564453125 " />
        <polyline stroke="black" stroke-width="3" stroke-linecap="round" fill="transparent" stroke-linejoin="round" points="87.0872802734375 165.614990234375 100.66152954101563 160.8935089111328 116.59649658203124 155.58184814453125 133.71185302734375 150.2701873779297 149.6468505859375 143.7781524658203 166.76220703125 135.51556396484375 166.76220703125 135.51556396484375 " />
        <polyline stroke="black" stroke-width="3" stroke-linecap="round" fill="transparent" stroke-linejoin="round" points="113.055419921875 115.44927978515624 103.02227783203124 144.3683319091797 93.57931518554688 171.51683044433594 85.31671142578125 189.22238159179688 77.64431762695313 204.56716918945313 71.74249267578125 215.7806701660156 65.84063720703125 225.2236328125 62.88970947265625 231.71566772460935 62.88970947265625 231.71566772460935 " />
        <polyline stroke="black" stroke-width="3" stroke-linecap="round" fill="transparent" stroke-linejoin="round" points="105.97320556640624 169.74627685546875 114.23577880859376 175.0579376220703 127.2198486328125 183.91070556640625 143.15484619140625 194.53402709960935 161.4505615234375 206.92791748046875 176.79534912109375 216.9610595703125 190.36962890625 225.81381225585935 190.36962890625 225.81381225585935 " />
        <polyline stroke="black" stroke-width="3" stroke-linecap="round" fill="transparent" stroke-linejoin="round" points="147.87628173828125 176.23831176757813 134.89224243164063 190.4027404785156 120.13763427734376 209.87884521484375 120.13763427734376 209.87884521484375 " />
        </svg>