<?xml version="1.0" standalone="no"?>
    <svg width="256" height="256" xmlns="http://www.w3.org/2000/svg" version="1.1">
    <polyline stroke="black" stroke-width="3" stroke-linecap="round" fill="transparent" stroke-linejoin="round" points="118.35653686523438 59.53529357910156 115.9793701171875 73.4019775390625 115.18701171875 76.17530822753906 115.18701171875 76.17530822753906 " />
        <polyline stroke="black" stroke-width="3" stroke-linecap="round" fill="transparent" stroke-linejoin="round" points="99.735595703125 71.02482604980469 123.11080932617188 67.45912170410156 141.7318115234375 64.28959655761719 159.95654296875 60.32769775390625 159.95654296875 60.32769775390625 " />
        <polyline stroke="black" stroke-width="3" stroke-linecap="round" fill="transparent" stroke-linejoin="round" points="109.64031982421876 111.436279296875 137.76986694335938 101.92770385742188 167.484130859375 90.43817138671876 180.95465087890625 84.09912109375 180.95465087890625 84.09912109375 " />
        <polyline stroke="black" stroke-width="3" stroke-linecap="round" fill="transparent" stroke-linejoin="round" points="115.18701171875 97.17341613769533 111.62130737304688 106.68199157714844 107.65939331054688 118.56771850585938 101.3203125 137.98106384277344 95.37744140625 153.4324951171875 87.05746459960938 169.28012084960938 80.32220458984375 180.3734588623047 72.39840698242188 191.86300659179688 68.43646240234375 194.6363220214844 68.43646240234375 194.6363220214844 " />
        <polyline stroke="black" stroke-width="3" stroke-linecap="round" fill="transparent" stroke-linejoin="round" points="117.56417846679688 145.50869750976563 137.3736572265625 158.58297729492188 163.91845703125 177.60011291503906 188.87847900390625 192.6553955078125 212.64990234375 201.76776123046875 223.3470458984375 202.5601501464844 223.3470458984375 202.5601501464844 " />
        <polyline stroke="black" stroke-width="3" stroke-linecap="round" fill="transparent" stroke-linejoin="round" points="131.03460693359375 162.14869689941406 127.86508178710938 171.26107788085938 124.695556640625 178.7886962890625 124.695556640625 178.7886962890625 " />
        </svg>