<?xml version="1.0" standalone="no"?>
    <svg width="256" height="256" xmlns="http://www.w3.org/2000/svg" version="1.1">
    <polyline stroke="black" stroke-width="3" stroke-linecap="round" fill="transparent" stroke-linejoin="round" points="129.96005249023438 67.19793701171875 128.30783081054688 72.98065185546875 125.82955932617188 78.76335144042969 119.6337890625 89.089599609375 110.959716796875 96.93757629394533 99.807373046875 103.54637145996094 90.30722045898438 107.26382446289063 84.93759155273438 109.32908630371094 83.28536987304688 109.74211120605467 84.1114501953125 108.916015625 94.43771362304688 105.6116180419922 116.742431640625 99.41587829589844 145.242919921875 92.39401245117188 170.43896484375 87.43740844726563 186.9609375 85.78520202636719 193.98284912109375 86.19825744628906 194.3958740234375 86.61129760742188 193.98284912109375 88.26351928710938 193.98284912109375 88.26351928710938 " />
        <polyline stroke="black" stroke-width="3" stroke-linecap="round" fill="transparent" stroke-linejoin="round" points="96.08993530273438 168.80828857421875 107.24227905273438 164.67779541015625 117.15548706054688 160.96035766601563 135.74276733398438 153.93850708007813 149.78646850585938 149.3949432373047 160.5257568359375 146.5035858154297 163.8302001953125 145.677490234375 163.8302001953125 145.677490234375 " />
        <polyline stroke="black" stroke-width="3" stroke-linecap="round" fill="transparent" stroke-linejoin="round" points="121.28598022460938 154.76458740234375 115.50326538085938 174.59100341796875 110.959716796875 189.87387084960935 103.9378662109375 212.59164428710935 100.22042846679688 221.26568603515625 95.26385498046876 228.7005920410156 91.54638671875 232.0050048828125 89.48114013671875 232.0050048828125 89.48114013671875 232.0050048828125 " />
        <polyline stroke="black" stroke-width="3" stroke-linecap="round" fill="transparent" stroke-linejoin="round" points="138.63412475585938 198.54791259765625 153.0908203125 204.74368286132813 160.9388427734375 207.63504028320313 173.330322265625 212.1785888671875 182.41741943359375 214.65689086914065 190.678466796875 213.00469970703125 190.678466796875 213.00469970703125 " />
        <polyline stroke="black" stroke-width="3" stroke-linecap="round" fill="transparent" stroke-linejoin="round" points="153.0908203125 177.48236083984375 146.48202514648438 186.15643310546875 140.6993408203125 192.7652282714844 135.32968139648438 199.3740234375 127.894775390625 210.11334228515625 127.894775390625 210.11334228515625 " />
        </svg>