<?xml version="1.0" standalone="no"?>
    <svg width="256" height="256" xmlns="http://www.w3.org/2000/svg" version="1.1">
    <polyline stroke="black" stroke-width="3" stroke-linecap="round" fill="transparent" stroke-linejoin="round" points="84.05255126953125 61.89045715332031 85.6512451171875 71.48260498046875 87.24993896484375 81.07475280761719 87.64962768554688 86.27049255371094 87.24993896484375 86.67018127441406 87.24993896484375 86.67018127441406 " />
        <polyline stroke="black" stroke-width="3" stroke-linecap="round" fill="transparent" stroke-linejoin="round" points="94.84368896484375 20.724143981933594 106.43423461914063 17.12708282470703 118.0247802734375 13.530021667480469 128.81588745117188 10.332633972167969 138.80776977539063 7.5349273681640625 148.39990234375 5.53656005859375 155.99365234375 4.737220764160156 160.39013671875 5.136894226074219 162.7880859375 6.7355804443359375 164.38677978515625 13.929695129394531 163.9871826171875 25.919876098632813 163.58746337890625 41.107460021972656 163.18780517578125 57.494049072265625 163.18780517578125 73.48097229003906 163.18780517578125 80.67507934570313 162.7880859375 81.07475280761719 162.7880859375 81.07475280761719 " />
        <polyline stroke="black" stroke-width="3" stroke-linecap="round" fill="transparent" stroke-linejoin="round" points="117.62515258789063 16.327720642089844 118.82412719726563 33.91333770751953 120.02310180664063 51.49895477294922 120.42282104492188 65.08782958984375 120.42282104492188 72.28195190429688 119.6234130859375 75.87901306152344 119.6234130859375 75.87901306152344 " />
        <polyline stroke="black" stroke-width="3" stroke-linecap="round" fill="transparent" stroke-linejoin="round" points="84.85198974609376 57.89372253417969 104.4359130859375 52.697975158691406 124.01983642578124 47.502227783203125 138.4080810546875 44.304840087890625 151.9969482421875 42.30647277832031 159.99041748046875 40.707786560058594 162.7880859375 40.30811309814453 162.7880859375 40.30811309814453 " />
        <polyline stroke="black" stroke-width="3" stroke-linecap="round" fill="transparent" stroke-linejoin="round" points="92.04598999023438 93.06495666503906 109.63162231445313 87.06985473632813 127.21725463867188 81.07475280761719 144.40316772460938 77.47769165039063 150.79794311523438 76.6783447265625 156.79302978515625 76.6783447265625 156.79302978515625 76.6783447265625 " />
        <polyline stroke="black" stroke-width="3" stroke-linecap="round" fill="transparent" stroke-linejoin="round" points="35.69219970703125 161.00933837890625 70.46371459960938 142.22471618652344 105.2352294921875 123.44009399414063 141.20578002929688 109.4515380859375 167.58416748046875 101.45806884765624 189.16656494140625 95.86265563964844 199.95770263671875 93.8643035888672 207.15179443359375 92.66526794433594 207.15179443359375 92.66526794433594 " />
        <polyline stroke="black" stroke-width="3" stroke-linecap="round" fill="transparent" stroke-linejoin="round" points="82.85354614257813 182.5917205810547 103.23684692382813 171.00119018554688 123.62014770507813 159.41065979003906 139.60711669921875 151.41720581054688 154.794677734375 144.62277221679688 163.9871826171875 141.4253692626953 172.77996826171875 139.02732849121094 179.17474365234375 138.2279815673828 181.173095703125 139.02732849121094 179.97406005859375 144.2230987548828 173.579345703125 153.81524658203125 163.18780517578125 165.805419921875 151.5972900390625 179.39431762695313 140.80612182617188 189.78585815429688 135.61038208007813 192.18386840820313 135.61038208007813 192.18386840820313 " />
        <polyline stroke="black" stroke-width="3" stroke-linecap="round" fill="transparent" stroke-linejoin="round" points="136.01007080078125 190.98483276367185 146.80120849609375 200.17730712890625 157.59234619140625 209.36978149414065 165.9854736328125 217.762939453125 169.58258056640625 220.16094970703125 169.58258056640625 220.16094970703125 " />
        </svg>