<?xml version="1.0" standalone="no"?>
    <svg width="256" height="256" xmlns="http://www.w3.org/2000/svg" version="1.1">
    <polyline stroke="black" stroke-width="3" stroke-linecap="round" fill="transparent" stroke-linejoin="round" points="96.72802734375 46.323875427246094 97.99578857421876 59.84660339355469 98.84091186523438 65.76278686523438 100.10870361328124 73.79191589355469 101.37643432617188 82.24362182617188 104.75714111328124 107.17617797851563 105.1796875 112.24717712402344 105.602294921875 119.00852966308594 105.602294921875 121.12149047851563 105.602294921875 121.12149047851563 " />
        <polyline stroke="black" stroke-width="3" stroke-linecap="round" fill="transparent" stroke-linejoin="round" points="98.4183349609375 75.05966186523438 103.91195678710938 65.3402099609375 107.7152099609375 61.53694152832031 113.20883178710938 57.31109619140625 126.73153686523438 49.704551696777344 141.09945678710938 44.21095275878906 155.0447998046875 42.09801483154297 166.87713623046875 42.09801483154297 175.75146484375 43.788360595703125 181.24505615234375 45.90129089355469 182.9354248046875 47.169036865234375 186.31610107421875 52.24006652832031 185.89349365234375 61.114349365234375 183.3580322265625 68.29830932617188 163.07391357421875 97.8792724609375 163.07391357421875 97.8792724609375 " />
        <polyline stroke="black" stroke-width="3" stroke-linecap="round" fill="transparent" stroke-linejoin="round" points="135.6058349609375 53.085235595703125 138.141357421875 69.14347839355469 137.71875 80.13069152832031 136.87362670898438 83.08879089355469 134.76068115234375 89.42756652832031 131.80258178710938 93.23085021972656 127.99932861328124 95.766357421875 123.7734375 97.8792724609375 119.97018432617188 99.14703369140624 117.0120849609375 99.9921875 115.74432373046876 99.9921875 114.4765625 99.9921875 115.74432373046876 98.3018798828125 125.04119873046876 94.92117309570313 138.141357421875 90.27273559570313 150.81893920898438 86.89205932617188 155.88995361328125 85.62429809570313 166.031982421875 83.9339599609375 168.1448974609375 83.9339599609375 168.5675048828125 83.9339599609375 168.5675048828125 83.9339599609375 " />
        <polyline stroke="black" stroke-width="3" stroke-linecap="round" fill="transparent" stroke-linejoin="round" points="113.63143920898438 117.74078369140624 127.57675170898438 111.40200805664063 133.492919921875 109.2890625 148.70599365234375 104.2180633544922 155.0447998046875 102.5277099609375 158.8480224609375 101.68254089355467 158.8480224609375 101.68254089355467 " />
        <polyline stroke="black" stroke-width="3" stroke-linecap="round" fill="transparent" stroke-linejoin="round" points="54.469482421875 143.5184783935547 68.83740234375 137.602294921875 77.2890625 134.64419555664063 87.43112182617188 131.26351928710938 97.57318115234376 127.88284301757813 120.81536865234376 121.54405212402344 141.09945678710938 118.1633758544922 158.00286865234375 117.74078369140624 172.37078857421875 118.1633758544922 190.11932373046875 119.85372924804688 194.34521484375 120.69888305664063 205.3323974609375 122.8118133544922 207.02276611328125 123.234375 207.02276611328125 123.234375 " />
        <polyline stroke="black" stroke-width="3" stroke-linecap="round" fill="transparent" stroke-linejoin="round" points="103.91195678710938 159.9993133544922 117.85726928710938 151.54759216308594 124.61862182617188 148.58950805664063 132.22518920898438 145.63140869140625 139.40911865234375 143.9410858154297 152.93182373046875 142.67332458496094 163.07391357421875 143.09588623046875 171.52557373046875 145.20883178710938 176.59661865234375 147.32174682617188 179.13214111328125 149.85726928710938 180.39990234375 153.23794555664063 179.977294921875 158.3089599609375 176.59661865234375 164.6477508544922 166.87713623046875 174.36721801757813 159.2706298828125 180.28338623046875 159.2706298828125 180.28338623046875 " />
        <polyline stroke="black" stroke-width="3" stroke-linecap="round" fill="transparent" stroke-linejoin="round" points="113.20883178710938 179.86080932617188 136.02841186523438 179.438232421875 144.05755615234375 180.7059783935547 152.086669921875 182.39633178710935 173.2159423828125 190.00286865234375 192.6549072265625 202.680419921875 200.6839599609375 210.28695678710935 200.6839599609375 210.28695678710935 " />
        </svg>