<?xml version="1.0" standalone="no"?>
    <svg width="256" height="256" xmlns="http://www.w3.org/2000/svg" version="1.1">
    <polyline stroke="black" stroke-width="3" stroke-linecap="round" fill="transparent" stroke-linejoin="round" points="98 56 97 70 97 91 97 114 97 131 97 141 98 143 98 143 " />
        <polyline stroke="black" stroke-width="3" stroke-linecap="round" fill="transparent" stroke-linejoin="round" points="98 59 134 49 158 48 178 48 192 50 197 64 197 82 192 101 183 116 174 126 166 130 166 130 " />
        <polyline stroke="black" stroke-width="3" stroke-linecap="round" fill="transparent" stroke-linejoin="round" points="149 53 140 77 136 95 134 112 133 124 132 128 132 128 " />
        <polyline stroke="black" stroke-width="3" stroke-linecap="round" fill="transparent" stroke-linejoin="round" points="98 104 112 95 128 94 144 94 160 94 172 94 181 95 181 95 " />
        <polyline stroke="black" stroke-width="3" stroke-linecap="round" fill="transparent" stroke-linejoin="round" points="105 145 118 140 128 140 146 137 165 134 181 132 190 132 192 132 192 132 " />
        <polyline stroke="black" stroke-width="3" stroke-linecap="round" fill="transparent" stroke-linejoin="round" points="54 171 75 167 102 163 136 160 170 157 197 157 217 157 228 157 230 157 230 157 " />
        <polyline stroke="black" stroke-width="3" stroke-linecap="round" fill="transparent" stroke-linejoin="round" points="92 196 108 188 131 185 154 182 177 179 193 179 199 179 201 183 196 189 179 200 167 206 167 206 " />
        <polyline stroke="black" stroke-width="3" stroke-linecap="round" fill="transparent" stroke-linejoin="round" points="121 200 147 203 160 205 173 214 189 224 194 229 194 229 " />
        </svg>