<?xml version="1.0" standalone="no"?>
    <svg width="256" height="256" xmlns="http://www.w3.org/2000/svg" version="1.1">
    <polyline stroke="black" stroke-width="3" stroke-linecap="round" fill="transparent" stroke-linejoin="round" points="66.43081665039063 87.71060180664063 62.299530029296875 130.2039031982422 59.93878173828125 162.07388305664063 59.348602294921875 182.14016723632813 59.93878173828125 203.97698974609375 59.93878173828125 205.74752807617188 58.7584228515625 201.61624145507813 58.7584228515625 201.61624145507813 " />
        <polyline stroke="black" stroke-width="3" stroke-linecap="round" fill="transparent" stroke-linejoin="round" points="90.0382080078125 68.23451232910156 105.38299560546876 61.74247741699219 125.44927978515624 55.25044250488281 147.87628173828125 51.70933532714844 185.64813232421875 55.84063720703125 198.6322021484375 64.69340515136719 208.665283203125 81.21856689453125 215.1573486328125 111.3179931640625 211.6162109375 142.00759887695313 205.71441650390625 165.02479553222656 198.6322021484375 183.32052612304688 192.14013671875 193.35366821289065 185.05792236328125 198.66531372070313 185.05792236328125 198.66531372070313 " />
        <polyline stroke="black" stroke-width="3" stroke-linecap="round" fill="transparent" stroke-linejoin="round" points="113.055419921875 137.8762969970703 118.3670654296875 142.00759887695313 127.81002807617188 142.00759887695313 127.81002807617188 142.00759887695313 " />
        <polyline stroke="black" stroke-width="3" stroke-linecap="round" fill="transparent" stroke-linejoin="round" points="172.0738525390625 113.67872619628906 163.811279296875 124.89224243164063 154.36834716796875 134.33518981933594 146.6959228515625 139.6468505859375 141.38427734375 138.46649169921875 139.61370849609375 130.79408264160156 139.61370849609375 130.79408264160156 " />
        <polyline stroke="black" stroke-width="3" stroke-linecap="round" fill="transparent" stroke-linejoin="round" points="136.0726318359375 92.4320831298828 134.89224243164063 110.13761901855467 132.531494140625 131.38427734375 130.1707763671875 147.3192596435547 127.2198486328125 162.07388305664063 123.6787109375 175.0579376220703 120.13763427734376 184.5008850097656 116.00634765625 189.22238159179688 111.87503051757813 190.4027404785156 110.1044921875 190.4027404785156 110.1044921875 188.63217163085935 113.055419921875 186.27145385742188 119.54742431640624 182.7303466796875 133.1217041015625 177.41867065429688 146.6959228515625 172.69720458984375 159.08984375 168.56590270996094 167.94256591796875 167.97572326660156 172.6640625 168.56590270996094 172.6640625 168.56590270996094 " />
        <polyline stroke="black" stroke-width="3" stroke-linecap="round" fill="transparent" stroke-linejoin="round" points="83.54617309570313 229.94512939453125 98.30078125 223.45309448242188 118.957275390625 216.37088012695313 136.66278076171875 211.64938354492188 160.27020263671875 208.1082763671875 176.79534912109375 208.1082763671875 191.54998779296875 211.0592041015625 191.54998779296875 211.0592041015625 " />
        </svg>