<?xml version="1.0" standalone="no"?>
    <svg width="256" height="256" xmlns="http://www.w3.org/2000/svg" version="1.1">
    <polyline stroke="black" stroke-width="3" stroke-linecap="round" fill="transparent" stroke-linejoin="round" points="35.61767578125 71.25485229492188 35.61767578125 83.68128967285156 36.157958984375 98.80914306640624 36.6982421875 112.31614685058594 36.157958984375 142.03155517578125 35.61767578125 157.69970703125 36.6982421875 182.55259704589844 37.238525390625 191.19708251953125 37.77880859375 201.46240234375 37.77880859375 204.7041015625 38.319091796875 207.40548706054688 38.319091796875 208.48605346679688 38.319091796875 209.02633666992188 38.319091796875 209.02633666992188 38.319091796875 209.02633666992188 " />
        <polyline stroke="black" stroke-width="3" stroke-linecap="round" fill="transparent" stroke-linejoin="round" points="52.90667724609375 26.411582946777344 63.171966552734375 26.951858520507813 74.517822265625 25.331016540527344 99.37078857421876 21.549057006835938 112.87777709960938 19.92821502685547 138.27093505859375 15.605972290039063 151.7779541015625 14.525413513183594 172.30859375 13.444847106933594 181.493408203125 12.904571533203123 195.0003662109375 12.904571533203123 200.9434814453125 13.444847106933594 207.42681884765625 14.525413513183594 209.58795166015625 15.605972290039063 212.82958984375 17.226806640625 213.91015625 18.84765625 217.15185546875 30.73381805419922 218.232421875 44.24082946777344 217.15185546875 77.73820495605469 215.531005859375 92.32577514648438 212.289306640625 122.04119873046876 210.66851806640625 135.54820251464844 207.96710205078125 156.078857421875 206.88653564453125 162.02194213867188 205.80596923828125 172.2872772216797 205.26568603515625 177.14981079101563 205.26568603515625 185.2540283203125 205.26568603515625 187.95538330078125 205.26568603515625 191.73736572265625 204.72540283203125 193.35821533203125 204.72540283203125 193.89849853515625 204.72540283203125 193.89849853515625 " />
        <polyline stroke="black" stroke-width="3" stroke-linecap="round" fill="transparent" stroke-linejoin="round" points="87.48458862304688 135.54820251464844 97.20965576171876 135.0079345703125 117.20001220703124 134.46763610839844 126.384765625 134.46763610839844 140.97235107421875 135.0079345703125 147.4556884765625 135.0079345703125 158.2613525390625 135.54820251464844 162.04327392578125 135.54820251464844 167.446044921875 135.54820251464844 169.06689453125 135.54820251464844 170.687744140625 135.0079345703125 172.30859375 134.46763610839844 172.30859375 134.46763610839844 " />
        <polyline stroke="black" stroke-width="3" stroke-linecap="round" fill="transparent" stroke-linejoin="round" points="107.47494506835938 49.10335540771485 107.47494506835938 59.908966064453125 107.47494506835938 81.52017211914063 107.47494506835938 90.70494079589844 107.47494506835938 108.5341796875 108.01522827148438 115.01754760742188 108.55551147460938 122.58146667480467 108.55551147460938 124.74259948730467 109.09579467773438 127.44400024414063 109.09579467773438 128.52456665039063 109.63607788085938 130.1453857421875 109.63607788085938 130.6856689453125 109.63607788085938 131.7662353515625 109.63607788085938 132.3065185546875 109.63607788085938 132.3065185546875 109.63607788085938 132.8468017578125 109.63607788085938 132.8468017578125 " />
        <polyline stroke="black" stroke-width="3" stroke-linecap="round" fill="transparent" stroke-linejoin="round" points="61.551116943359375 83.68128967285156 64.79281616210938 87.4632568359375 72.89703369140625 96.10774230957033 75.598388671875 98.80914306640624 81.001220703125 103.1313934326172 81.001220703125 103.1313934326172 " />
        <polyline stroke="black" stroke-width="3" stroke-linecap="round" fill="transparent" stroke-linejoin="round" points="165.82525634765625 52.34503173828125 165.82525634765625 59.368682861328125 164.74468994140625 75.03680419921875 164.20440673828125 83.68128967285156 164.20440673828125 83.68128967285156 " />
        <polyline stroke="black" stroke-width="3" stroke-linecap="round" fill="transparent" stroke-linejoin="round" points="61.010833740234375 201.46240234375 75.05816650390625 199.84158325195313 90.72625732421876 197.14016723632813 117.20001220703124 193.35821533203125 131.78756713867188 191.19708251953125 143.67376708984375 190.11651611328125 169.06689453125 187.95538330078125 187.43646240234375 186.87484741210935 196.6212158203125 186.87484741210935 207.42681884765625 186.87484741210935 211.20880126953125 186.87484741210935 217.15185546875 187.41510009765625 217.15185546875 187.41510009765625 " />
        </svg>