<?xml version="1.0" standalone="no"?>
    <svg width="256" height="256" xmlns="http://www.w3.org/2000/svg" version="1.1">
    <polyline stroke="black" stroke-width="3" stroke-linecap="round" fill="transparent" stroke-linejoin="round" points="51 74 51 84 51 107 51 140 51 170 55 190 59 204 65 207 65 207 " />
        <polyline stroke="black" stroke-width="3" stroke-linecap="round" fill="transparent" stroke-linejoin="round" points="71 78 100 74 134 70 168 66 189 66 203 66 209 77 209 103 205 129 197 154 192 172 190 185 190 193 187 195 187 195 " />
        <polyline stroke="black" stroke-width="3" stroke-linecap="round" fill="transparent" stroke-linejoin="round" points="98 122 110 130 110 130 " />
        <polyline stroke="black" stroke-width="3" stroke-linecap="round" fill="transparent" stroke-linejoin="round" points="156 109 149 117 139 123 139 123 " />
        <polyline stroke="black" stroke-width="3" stroke-linecap="round" fill="transparent" stroke-linejoin="round" points="128 99 128 105 127 122 125 140 124 155 124 164 124 166 124 166 " />
        <polyline stroke="black" stroke-width="3" stroke-linecap="round" fill="transparent" stroke-linejoin="round" points="87 156 100 156 123 156 145 156 162 156 176 156 182 156 182 156 " />
        <polyline stroke="black" stroke-width="3" stroke-linecap="round" fill="transparent" stroke-linejoin="round" points="73 217 90 215 112 212 137 210 156 210 172 209 180 209 186 209 187 211 187 211 " />
        </svg>