<?xml version="1.0" standalone="no"?>
    <svg width="256" height="256" xmlns="http://www.w3.org/2000/svg" version="1.1">
    <polyline stroke="black" stroke-width="3" stroke-linecap="round" fill="transparent" stroke-linejoin="round" points="57.75 110 82.75 107.5 90.25 105 97.75 102.5 110.25 98.75 115.25 97.5 116.5 96.25 116.5 96.25 " />
        <polyline stroke="black" stroke-width="3" stroke-linecap="round" fill="transparent" stroke-linejoin="round" points="72.75 125 72.75 146.25 69 168.75 65.25 191.25 60.25 216.25 57.75 225 56.5 228.75 55.25 230 55.25 230 " />
        <polyline stroke="black" stroke-width="3" stroke-linecap="round" fill="transparent" stroke-linejoin="round" points="70.25 166.25 90.25 155 94 152.5 97.75 150 100.25 148.75 102.75 145 104 145 105.25 143.75 104 147.5 102.75 157.5 100.25 171.25 100.25 186.25 101.5 205 105.25 212.5 111.5 217.5 126.5 225 140.25 226.25 156.5 226.25 172.75 223.75 186.5 218.75 199 211.25 205.25 206.25 207.75 200 207.75 191.25 204 183.75 195.25 173.75 189 167.5 189 167.5 " />
        <polyline stroke="black" stroke-width="3" stroke-linecap="round" fill="transparent" stroke-linejoin="round" points="116.5 123.75 120.25 142.5 120.25 158.75 119 178.75 119 186.25 119 190 120.25 190 122.75 188.75 130.25 183.75 141.5 175 154 165 162.75 158.75 167.75 155 169 153.75 169 153.75 " />
        <polyline stroke="black" stroke-width="3" stroke-linecap="round" fill="transparent" stroke-linejoin="round" points="167.75 86.25 169 111.25 170.25 126.25 171.5 140 171.5 148.75 170.25 152.5 170.25 153.75 170.25 153.75 " />
        <polyline stroke="black" stroke-width="3" stroke-linecap="round" fill="transparent" stroke-linejoin="round" points="126.5 68.75 137.75 87.5 139 105 140.25 133.75 137.75 185 135.25 213.75 131.5 235 131.5 235 " />
        </svg>