<?xml version="1.0" standalone="no"?>
    <svg width="256" height="256" xmlns="http://www.w3.org/2000/svg" version="1.1">
    <polyline stroke="black" stroke-width="3" stroke-linecap="round" fill="transparent" stroke-linejoin="round" points="111 107 113 107 115 107 117 109 118 114 119 123 121 142 122 158 124 173 125 188 127 205 127 210 127 211 127 211 124 209 115 200 107 191 101 185 99 183 99 183 " />
        <polyline stroke="black" stroke-width="3" stroke-linecap="round" fill="transparent" stroke-linejoin="round" points="60 165 69 167 78 169 89 172 99 172 99 172 " />
        <polyline stroke="black" stroke-width="3" stroke-linecap="round" fill="transparent" stroke-linejoin="round" points="142 127 146 128 150 129 155 129 159 132 160 134 159 137 155 143 150 152 139 172 133 185 131 193 131 194 131 194 " />
        </svg>