<?xml version="1.0" standalone="no"?>
    <svg width="256" height="256" xmlns="http://www.w3.org/2000/svg" version="1.1">
    <polyline stroke="black" stroke-width="3" stroke-linecap="round" fill="transparent" stroke-linejoin="round" points="67.23092651367188 109.6641845703125 89.12112426757813 98.9860382080078 113.68087768554688 86.70616149902344 129.6981201171875 79.23146057128906 152.6561279296875 69.62112426757813 167.0716552734375 63.2142333984375 178.28369140625 57.87516784667969 183.62274169921875 55.739532470703125 185.7584228515625 55.739532470703125 185.7584228515625 55.739532470703125 " />
        <polyline stroke="black" stroke-width="3" stroke-linecap="round" fill="transparent" stroke-linejoin="round" points="93.92630004882813 116.07107543945313 86.45159912109375 141.69863891601563 72.57000732421875 177.47044372558594 66.1630859375 191.88595581054688 60.290130615234375 202.5640869140625 57.620574951171875 207.3692626953125 57.620574951171875 207.3692626953125 62.95965576171875 201.49627685546875 62.95965576171875 201.49627685546875 " />
        <polyline stroke="black" stroke-width="3" stroke-linecap="round" fill="transparent" stroke-linejoin="round" points="132.36761474609375 95.24868774414063 131.2998046875 108.59637451171876 131.833740234375 123.01188659667967 134.50326538085938 139.56301879882813 141.44406127929688 155.5802459716797 150.5205078125 169.99574279785156 160.130859375 180.13998413085938 170.27508544921875 186.01296997070313 180.4193115234375 187.08078002929688 188.96185302734375 185.47906494140625 195.36871337890625 181.20779418945313 200.707763671875 174.26699829101563 204.97906494140625 162.5210418701172 205.512939453125 150.2411651611328 205.512939453125 150.2411651611328 " />
        </svg>