<?xml version="1.0" standalone="no"?>
    <svg width="256" height="256" xmlns="http://www.w3.org/2000/svg" version="1.1">
    <polyline stroke="black" stroke-width="3" stroke-linecap="round" fill="transparent" stroke-linejoin="round" points="75.42282104492188 88.07148742675781 105.49688720703124 79.6636962890625 137.18780517578125 73.19615173339844 162.0877685546875 70.93252563476563 183.1072998046875 70.93252563476563 187.95794677734375 70.93252563476563 187.95794677734375 70.93252563476563 " />
        <polyline stroke="black" stroke-width="3" stroke-linecap="round" fill="transparent" stroke-linejoin="round" points="77.03970336914063 121.70265197753906 67.98513793945313 146.92604064941406 58.93060302734375 169.239013671875 50.199462890625 190.25851440429688 46.31890869140625 195.7559509277344 46.31890869140625 195.7559509277344 " />
        <polyline stroke="black" stroke-width="3" stroke-linecap="round" fill="transparent" stroke-linejoin="round" points="122.31246948242188 111.677978515625 119.07870483398438 136.25460815429688 120.69558715820313 156.9507293701172 125.54623413085938 175.05982971191406 133.30728149414063 185.73123168945313 149.79949951171875 196.07931518554688 166.29168701171875 198.98968505859375 182.46051025390625 198.01956176757813 194.748779296875 194.78579711914065 206.390380859375 191.22866821289065 212.53460693359375 188.64163208007813 214.47479248046875 187.6715087890625 213.50469970703125 184.7611083984375 209.6241455078125 180.55723571777344 194.748779296875 164.06500244140625 194.748779296875 164.06500244140625 " />
        </svg>