<?xml version="1.0" standalone="no"?>
    <svg width="256" height="256" xmlns="http://www.w3.org/2000/svg" version="1.1">
    <polyline stroke="black" stroke-width="3" stroke-linecap="round" fill="transparent" stroke-linejoin="round" points="85.284423828125 106.3196258544922 92.12875366210938 103.75735473632813 100.87655639648438 100.7828369140625 128.38766479492188 94.7316436767578 140.28717041015625 92.5337371826172 164.84259033203125 89.45977783203125 173.3690185546875 88.45703125 183.5704345703125 85.96470642089844 196.70391845703125 82.39341735839844 199.36370849609375 81.87620544433594 203.80908203125 81.14712524414063 203.979248046875 81.12405395507813 203.9927978515625 81.12222290039063 " />
        <polyline stroke="black" stroke-width="3" stroke-linecap="round" fill="transparent" stroke-linejoin="round" points="109.2197265625 125.26304626464844 107.71151733398438 133.66427612304688 100.73211669921876 166.73468017578125 96.88156127929688 179.96005249023438 92.5361328125 191.02923583984375 82.162841796875 208.01333618164065 81.64227294921875 208.7264404296875 " />
        <polyline stroke="black" stroke-width="3" stroke-linecap="round" fill="transparent" stroke-linejoin="round" points="140.443603515625 125.01969909667967 140.443603515625 135.67245483398438 140.45843505859375 146.6279754638672 141.05148315429688 156.2324676513672 143.5029296875 173.76634216308594 150.79501342773438 182.60565185546875 160.1048583984375 194.6219482421875 164.54473876953125 204.53326416015625 165.989990234375 205.60824584960935 171.9853515625 207.1234436035156 176.76678466796875 207.27838134765625 190.6651611328125 204.29742431640625 196.41937255859375 199.966064453125 205.9390869140625 189.1656188964844 211.0498046875 179.89410400390625 212.65313720703125 173.76617431640625 211.4483642578125 173.55572509765625 " />
        </svg>