<?xml version="1.0" standalone="no"?>
    <svg width="256" height="256" xmlns="http://www.w3.org/2000/svg" version="1.1">
    <polyline stroke="black" stroke-width="3" stroke-linecap="round" fill="transparent" stroke-linejoin="round" points="99.86322021484376 95.37771606445313 117.47796630859376 89.50607299804688 130.6890869140625 85.83631896972656 136.560791015625 83.63446044921875 139.49658203125 81.43260192871094 141.698486328125 79.96470642089844 140.9644775390625 80.69866943359375 139.49658203125 83.63446044921875 134.35888671875 90.97398376464844 105.0008544921875 133.54315185546875 83.7161865234375 162.1672821044922 67.5693359375 182.71792602539065 58.76190185546875 195.92904663085935 52.1563720703125 204.0025329589844 52.1563720703125 204.0025329589844 " />
        <polyline stroke="black" stroke-width="3" stroke-linecap="round" fill="transparent" stroke-linejoin="round" points="95.45941162109376 122.5338897705078 92.523681640625 144.55242919921875 91.05572509765624 160.69937133789063 91.7896728515625 169.5067901611328 99.12921142578124 176.1123809814453 114.542236328125 179.04815673828125 136.560791015625 177.58026123046875 157.8453369140625 173.17654418945313 185.0015869140625 167.30494689941406 198.212646484375 165.8370361328125 204.8182373046875 164.369140625 207.75390625 164.369140625 209.9559326171875 164.369140625 210.68994140625 164.369140625 210.68994140625 163.6351776123047 209.9559326171875 156.29566955566406 205.5521240234375 131.34130859375 205.5521240234375 131.34130859375 " />
        </svg>