<?xml version="1.0" standalone="no"?>
    <svg width="256" height="256" xmlns="http://www.w3.org/2000/svg" version="1.1">
    <polyline stroke="black" stroke-width="3" stroke-linecap="round" fill="transparent" stroke-linejoin="round" points="78.66244506835938 106.08255004882813 87.33648681640625 103.191162109375 95.59747314453124 100.71287536621094 114.18475341796876 94.93017578125 132.35894775390625 88.73442077636719 149.70703125 82.53866577148438 161.685546875 77.9951171875 168.7073974609375 74.69070434570313 172.01177978515625 73.45155334472656 171.5987548828125 73.45155334472656 170.77264404296875 73.45155334472656 170.77264404296875 73.45155334472656 " />
        <polyline stroke="black" stroke-width="3" stroke-linecap="round" fill="transparent" stroke-linejoin="round" points="99.31491088867188 128.3872528076172 91.46697998046876 144.90924072265625 78.24935913085938 173.4097137451172 69.57528686523438 193.23614501953125 63.7926025390625 202.3232421875 61.314300537109375 203.97543334960935 61.314300537109375 203.97543334960935 " />
        <polyline stroke="black" stroke-width="3" stroke-linecap="round" fill="transparent" stroke-linejoin="round" points="144.75042724609375 118.47404479980467 142.27215576171875 134.5830078125 140.20687866210938 151.51805114746094 140.61996459960938 184.56207275390625 147.228759765625 195.7144470214844 162.5115966796875 203.14935302734375 183.990234375 203.14935302734375 202.5775146484375 196.54052734375 215.382080078125 185.80123901367188 225.70831298828125 169.2792205810547 230.25189208984375 152.3441619873047 226.94744873046875 139.95263671875 226.94744873046875 139.95263671875 " />
        </svg>