<?xml version="1.0" standalone="no"?>
    <svg width="256" height="256" xmlns="http://www.w3.org/2000/svg" version="1.1">
    <polyline stroke="black" stroke-width="3" stroke-linecap="round" fill="transparent" stroke-linejoin="round" points="71.02685546875 104.51950073242188 92.20916748046876 97.01739501953124 113.39154052734376 90.39791870117188 132.80868530273438 85.98492431640625 150.46063232421875 82.89584350585938 164.140869140625 81.13064575195313 172.084228515625 80.68934631347656 175.6146240234375 80.68934631347656 175.6146240234375 80.68934631347656 " />
        <polyline stroke="black" stroke-width="3" stroke-linecap="round" fill="transparent" stroke-linejoin="round" points="103.24163818359376 110.69766235351563 96.62216186523438 119.08233642578124 83.38323974609375 138.94078063964844 77.20504760742188 148.6493377685547 65.28997802734375 167.62518310546875 56.4639892578125 180.8641357421875 50.72711181640625 189.69012451171875 47.19671630859375 194.9857177734375 46.75543212890625 196.30960083007813 48.079315185546875 195.427001953125 48.079315185546875 195.427001953125 " />
        <polyline stroke="black" stroke-width="3" stroke-linecap="round" fill="transparent" stroke-linejoin="round" points="128.83700561523438 112.46287536621094 124.42401123046876 131.87998962402344 122.21749877929688 142.9124755859375 120.010986328125 167.1838836669922 123.10009765625 186.15972900390625 130.60214233398438 198.51611328125 143.84115600585938 206.45947265625 161.93438720703125 208.66595458984375 176.93853759765625 206.45947265625 183.11669921875 205.13558959960935 195.47308349609375 198.51611328125 199.00347900390625 193.66180419921875 202.092529296875 185.71844482421875 202.53387451171875 176.8924560546875 200.7686767578125 165.418701171875 197.23828125 151.73843383789063 197.23828125 151.73843383789063 " />
        </svg>