<?xml version="1.0" standalone="no"?>
    <svg width="256" height="256" xmlns="http://www.w3.org/2000/svg" version="1.1">
    <polyline stroke="black" stroke-width="3" stroke-linecap="round" fill="transparent" stroke-linejoin="round" points="61.19354248046875 80.07768249511719 73.57196044921875 71.67803955078125 80.20321655273438 68.141357421875 87.71868896484375 64.60466003417969 104.07589721679688 57.531280517578125 112.9176025390625 53.994590759277344 129.71688842773438 47.805381774902344 143.42156982421875 43.82659912109375 153.1474609375 42.50035095214844 159.77874755859375 43.82659912109375 161.10498046875 49.13163757324219 155.79998779296875 63.720489501953125 140.76904296875 84.05645751953125 131.48519897460938 93.7823486328125 131.48519897460938 93.7823486328125 " />
        <polyline stroke="black" stroke-width="3" stroke-linecap="round" fill="transparent" stroke-linejoin="round" points="96.11834716796876 97.3190460205078 112.033447265625 97.76113891601563 119.54891967773438 99.08738708496094 127.06439208984376 100.85574340820313 141.21112060546875 104.39242553710938 154.915771484375 110.13955688476563 160.2208251953125 115.88665771484376 160.2208251953125 115.88665771484376 " />
        <polyline stroke="black" stroke-width="3" stroke-linecap="round" fill="transparent" stroke-linejoin="round" points="58.540985107421875 174.24205017089844 75.34027099609375 165.40032958984375 83.29782104492188 161.86363220214844 91.69744873046876 158.3269500732422 118.22265625 147.71688842773438 136.34814453125 139.31724548339844 136.34814453125 139.31724548339844 " />
        <polyline stroke="black" stroke-width="3" stroke-linecap="round" fill="transparent" stroke-linejoin="round" points="97.00250244140624 109.25537109375 91.69744873046876 125.612548828125 88.60287475585938 135.33847045898438 76.22445678710938 166.72659301757813 67.82479858398438 185.73629760742188 60.309326171875 203.41973876953125 54.562225341796875 216.68234252929688 52.79388427734375 221.5452880859375 52.79388427734375 221.5452880859375 " />
        <polyline stroke="black" stroke-width="3" stroke-linecap="round" fill="transparent" stroke-linejoin="round" points="81.9715576171875 189.27297973632813 98.77084350585938 192.3675842285156 111.14926147460938 196.7884521484375 114.24386596679688 197.67263793945313 114.24386596679688 197.67263793945313 " />
        <polyline stroke="black" stroke-width="3" stroke-linecap="round" fill="transparent" stroke-linejoin="round" points="139.44281005859375 154.34817504882813 154.0316162109375 149.0431365966797 160.6629638671875 146.83270263671875 167.294189453125 144.62228393554688 180.9989013671875 140.20140075683594 201.3348388671875 133.12803649902344 205.31365966796875 131.35971069335938 205.31365966796875 131.35971069335938 " />
        <polyline stroke="black" stroke-width="3" stroke-linecap="round" fill="transparent" stroke-linejoin="round" points="173.925537109375 115.444580078125 169.06256103515625 129.59133911132813 167.294189453125 136.66473388671875 165.52587890625 143.73809814453125 161.547119140625 157.00070190429688 150.93701171875 180.8733367919922 141.6531982421875 198.11471557617188 141.6531982421875 198.11471557617188 " />
        <polyline stroke="black" stroke-width="3" stroke-linecap="round" fill="transparent" stroke-linejoin="round" points="145.63201904296875 170.7053680419922 156.68414306640625 174.24205017089844 161.98919677734375 176.8945770263672 167.736328125 179.9891815185547 186.74603271484375 192.8096923828125 199.5665283203125 205.1881103515625 205.31365966796875 213.58773803710935 205.31365966796875 213.58773803710935 " />
        </svg>