<?xml version="1.0" standalone="no"?>
    <svg width="256" height="256" xmlns="http://www.w3.org/2000/svg" version="1.1">
    <polyline stroke="black" stroke-width="3" stroke-linecap="round" fill="transparent" stroke-linejoin="round" points="26.60003662109375 95.20002746582033 61.80010986328125 79.20002746582031 69.2667236328125 76.00001525878906 78.86669921875 72.80000305175781 83.1334228515625 71.73333740234375 86.3333740234375 70.66667175292969 87.4000244140625 70.66667175292969 86.3333740234375 68.53335571289063 84.2000732421875 66.40000915527344 84.2000732421875 66.40000915527344 " />
        <polyline stroke="black" stroke-width="3" stroke-linecap="round" fill="transparent" stroke-linejoin="round" points="57.53338623046875 54.66667175292969 51.1334228515625 94.1333465576172 43.66668701171875 114.40000915527344 36.2000732421875 129.33334350585938 33.00006103515625 136.80001831054688 30.86669921875 137.86668395996094 29.80010986328125 136.80001831054688 29.80010986328125 136.80001831054688 " />
        <polyline stroke="black" stroke-width="3" stroke-linecap="round" fill="transparent" stroke-linejoin="round" points="55.4000244140625 92.00001525878906 79.93341064453125 108.00001525878906 86.3333740234375 113.33334350585938 88.466796875 115.4666748046875 87.4000244140625 115.4666748046875 87.4000244140625 115.4666748046875 " />
        <polyline stroke="black" stroke-width="3" stroke-linecap="round" fill="transparent" stroke-linejoin="round" points="31.93341064453125 164.53334045410156 67.1334228515625 148.53334045410156 87.4000244140625 143.20001220703125 94.86669921875 141.06671142578125 98.06671142578124 141.06671142578125 92.7333984375 140.00001525878906 92.7333984375 140.00001525878906 " />
        <polyline stroke="black" stroke-width="3" stroke-linecap="round" fill="transparent" stroke-linejoin="round" points="59.66668701171875 110.1333465576172 63.93341064453125 140.00001525878906 67.1334228515625 151.73338317871094 70.3333740234375 170.93336486816406 72.466796875 182.66668701171875 72.466796875 186.933349609375 72.466796875 188 72.466796875 188 " />
        <polyline stroke="black" stroke-width="3" stroke-linecap="round" fill="transparent" stroke-linejoin="round" points="104.466796875 101.60000610351563 138.60009765625 88.80000305175781 155.666748046875 83.4666748046875 162.0667724609375 81.33334350585938 165.2667236328125 80.26667785644531 163.1334228515625 79.20002746582031 157.8001708984375 77.06668090820313 157.8001708984375 77.06668090820313 " />
        <polyline stroke="black" stroke-width="3" stroke-linecap="round" fill="transparent" stroke-linejoin="round" points="136.466796875 42.93334197998047 135.4000244140625 66.40000915527344 135.4000244140625 82.40000915527344 132.2000732421875 117.60000610351563 122.60003662109376 165.6000213623047 114.06671142578124 190.13336181640625 107.666748046875 204 102.3333740234375 208.2666931152344 98.06671142578124 208.2666931152344 98.06671142578124 208.2666931152344 " />
        <polyline stroke="black" stroke-width="3" stroke-linecap="round" fill="transparent" stroke-linejoin="round" points="134.3333740234375 109.06668090820313 152.466796875 136.80001831054688 173.8001708984375 160.26669311523438 194.0667724609375 179.4666748046875 211.1334228515625 195.4666748046875 235.666748046875 209.33334350585935 243.1334228515625 211.4666748046875 243.1334228515625 211.4666748046875 " />
        </svg>