<?xml version="1.0" standalone="no"?>
    <svg width="256" height="256" xmlns="http://www.w3.org/2000/svg" version="1.1">
    <polyline stroke="black" stroke-width="3" stroke-linecap="round" fill="transparent" stroke-linejoin="round" points="82.95941162109375 58.93693542480469 85.024658203125 71.74148559570313 86.67684936523438 82.89385986328125 87.08993530273438 87.85044860839844 87.50299072265625 94.872314453125 87.50299072265625 97.35061645507813 87.08993530273438 100.24197387695313 86.26385498046875 100.65501403808594 85.43771362304688 99.41587829589844 84.61163330078125 97.76365661621094 83.37249755859375 91.15484619140624 85.024658203125 81.65469360351563 88.3291015625 75.45895385742188 94.11175537109376 68.85014343261719 104.43804931640624 60.589141845703125 110.220703125 56.87168884277344 123.02532958984376 49.849822998046875 140.78646850585938 43.654075622558594 149.04745483398438 42.827972412109375 155.24322509765625 44.06712341308594 158.547607421875 47.37152099609375 161.02587890625 57.28472900390625 159.37371826171875 73.80674743652344 154.8302001953125 90.7418212890625 148.6343994140625 103.54637145996094 145.33001708984375 107.67686462402344 145.33001708984375 107.67686462402344 " />
        <polyline stroke="black" stroke-width="3" stroke-linecap="round" fill="transparent" stroke-linejoin="round" points="118.894775390625 55.219482421875 121.7861328125 68.0240478515625 122.19918823242188 72.154541015625 122.19918823242188 76.28504943847656 119.72088623046876 87.02436828613281 116.00341796875 92.80705261230467 111.45989990234376 97.35061645507813 106.09027099609376 100.65501403808594 103.61190795898438 101.8941650390625 99.068359375 103.13333129882813 98.65533447265624 102.30722045898438 101.13363647460938 100.24197387695313 111.87298583984376 94.872314453125 127.15576171875 88.67654418945313 133.76458740234375 86.19825744628906 149.46051025390625 81.24165344238281 154.4171142578125 80.00250244140625 155.65625 80.00250244140625 155.65625 80.00250244140625 " />
        <polyline stroke="black" stroke-width="3" stroke-linecap="round" fill="transparent" stroke-linejoin="round" points="88.3291015625 121.7205810546875 101.959716796875 115.11175537109376 108.56854248046876 112.63346862792967 116.00341796875 110.15518188476563 129.63412475585938 106.43771362304688 134.5906982421875 105.19857788085938 142.02560424804688 104.78550720214844 142.02560424804688 104.78550720214844 " />
        <polyline stroke="black" stroke-width="3" stroke-linecap="round" fill="transparent" stroke-linejoin="round" points="53.219818115234375 153.93850708007813 79.241943359375 145.26443481445313 89.15521240234375 141.96002197265625 111.87298583984376 135.3512420654297 123.43832397460938 132.04684448242188 134.17767333984375 129.5685272216797 154.4171142578125 125.85107421875 170.52606201171875 123.78582763671876 183.74365234375 122.5466766357422 192.417724609375 122.13363647460938 197.3743896484375 122.13363647460938 200.2657470703125 122.13363647460938 201.091796875 122.13363647460938 201.91790771484375 122.13363647460938 202.7440185546875 122.13363647460938 202.3309326171875 123.78582763671876 202.3309326171875 123.78582763671876 " />
        <polyline stroke="black" stroke-width="3" stroke-linecap="round" fill="transparent" stroke-linejoin="round" points="92.04656982421876 167.15609741210938 104.43804931640624 162.612548828125 111.04684448242188 160.96035766601563 118.06869506835938 159.3081512451172 132.52545166015625 156.4167938232422 144.91696166992188 156.00375366210938 154.4171142578125 156.829833984375 161.02587890625 158.48204040527344 164.743408203125 160.54730224609375 166.80859375 162.1995086669922 167.63470458984375 165.09085083007813 165.9825439453125 170.87356567382813 159.37371826171875 179.547607421875 144.91696166992188 193.17828369140625 144.91696166992188 193.17828369140625 " />
        <polyline stroke="black" stroke-width="3" stroke-linecap="round" fill="transparent" stroke-linejoin="round" points="99.068359375 196.89572143554688 116.82955932617188 198.54791259765625 134.17767333984375 202.67843627929688 152.764892578125 208.46112060546875 161.02587890625 211.7655334472656 174.6566162109375 218.78738403320313 180.4393310546875 222.91790771484375 185.3958740234375 227.87451171875 185.3958740234375 227.87451171875 " />
        </svg>