<?xml version="1.0" standalone="no"?>
    <svg width="256" height="256" xmlns="http://www.w3.org/2000/svg" version="1.1">
    <polyline stroke="black" stroke-width="3" stroke-linecap="round" fill="transparent" stroke-linejoin="round" points="73.6883544921875 98.64248657226563 101.7950439453125 98.64248657226563 105.063232421875 98.64248657226563 125.326171875 89.49147033691406 125.326171875 89.49147033691406 " />
        <polyline stroke="black" stroke-width="3" stroke-linecap="round" fill="transparent" stroke-linejoin="round" points="110.946044921875 66.61393737792969 91.3367919921875 100.60340881347656 86.10760498046875 112.36898803710938 71.72747802734375 143.74388122558594 52.1181640625 182.3088226318359 50.15716552734375 186.88433837890625 47.5426025390625 191.4598388671875 49.5035400390625 190.80618286132813 54.07904052734375 186.88433837890625 54.07904052734375 186.88433837890625 " />
        <polyline stroke="black" stroke-width="3" stroke-linecap="round" fill="transparent" stroke-linejoin="round" points="73.03466796875 133.2855682373047 92.64398193359376 151.5875701904297 103.75592041015624 162.6995086669922 105.71685791015624 163.35317993164063 115.52154541015624 163.35317993164063 115.52154541015624 163.35317993164063 " />
        <polyline stroke="black" stroke-width="3" stroke-linecap="round" fill="transparent" stroke-linejoin="round" points="139.05267333984375 83.60868835449219 120.75067138671876 109.10076904296876 119.443359375 111.71533203125 114.21429443359376 120.86634826660156 114.86785888671876 120.86634826660156 114.86785888671876 120.86634826660156 " />
        <polyline stroke="black" stroke-width="3" stroke-linecap="round" fill="transparent" stroke-linejoin="round" points="135.78448486328125 85.56962585449219 159.96923828125 88.83782958984375 161.27655029296875 89.49147033691406 171.73486328125 95.374267578125 173.04217529296875 96.68156433105467 175.00311279296875 99.29612731933594 176.31036376953125 101.9106903076172 176.31036376953125 101.9106903076172 " />
        <polyline stroke="black" stroke-width="3" stroke-linecap="round" fill="transparent" stroke-linejoin="round" points="160.6229248046875 103.21800231933594 152.12554931640625 120.2126922607422 152.12554931640625 123.48092651367188 150.81829833984375 145.70481872558594 151.47186279296875 150.93394470214844 151.47186279296875 158.1240234375 151.47186279296875 162.0458984375 150.81829833984375 163.35317993164063 150.81829833984375 164.00682067871094 149.510986328125 163.35317993164063 148.20367431640625 162.0458984375 148.20367431640625 160.7386016845703 149.510986328125 160.08494567871094 149.510986328125 160.08494567871094 " />
        <polyline stroke="black" stroke-width="3" stroke-linecap="round" fill="transparent" stroke-linejoin="round" points="129.90167236328125 177.0796661376953 146.24273681640625 174.46511840820313 148.20367431640625 173.8114471435547 163.23748779296875 167.2750244140625 165.19842529296875 165.96775817871094 171.08123779296875 164.00682067871094 171.08123779296875 164.00682067871094 " />
        <polyline stroke="black" stroke-width="3" stroke-linecap="round" fill="transparent" stroke-linejoin="round" points="171.73486328125 109.7544403076172 184.8077392578125 97.98883056640624 186.7686767578125 97.98883056640624 201.14886474609375 94.72061157226563 203.10980224609375 93.41334533691406 208.99261474609375 88.18418884277344 208.99261474609375 88.18418884277344 " />
        <polyline stroke="black" stroke-width="3" stroke-linecap="round" fill="transparent" stroke-linejoin="round" points="203.10980224609375 62.03843688964844 195.26605224609375 83.60868835449219 194.6123046875 87.53053283691406 190.6904296875 122.1736297607422 188.7296142578125 132.63194274902344 186.11505126953125 150.93394470214844 184.8077392578125 161.39224243164063 183.50042724609375 167.9286651611328 186.11505126953125 169.2359619140625 186.11505126953125 169.2359619140625 " />
        <polyline stroke="black" stroke-width="3" stroke-linecap="round" fill="transparent" stroke-linejoin="round" points="198.5341796875 118.25177001953124 209.6461181640625 131.978271484375 211.6070556640625 135.24649047851563 228.60174560546875 167.2750244140625 233.83099365234375 175.1187744140625 241.67462158203125 185.5770263671875 241.67462158203125 185.5770263671875 " />
        </svg>