<?xml version="1.0" standalone="no"?>
    <svg width="256" height="256" xmlns="http://www.w3.org/2000/svg" version="1.1">
    <polyline stroke="black" stroke-width="3" stroke-linecap="round" fill="transparent" stroke-linejoin="round" points="122.92831420898438 46.323875427246094 119.547607421875 53.085235595703125 115.74432373046876 60.6917724609375 106.02487182617188 78.44035339355469 94.61508178710938 94.92117309570313 83.20526123046875 109.711669921875 72.21807861328125 122.8118133544922 62.498626708984375 134.2216033935547 54.469482421875 143.5184783935547 46.86297607421875 151.12503051757813 46.86297607421875 151.12503051757813 " />
        <polyline stroke="black" stroke-width="3" stroke-linecap="round" fill="transparent" stroke-linejoin="round" points="132.64776611328125 62.80470275878906 142.789794921875 67.45314025878906 154.1995849609375 72.10157775878906 166.031982421875 77.172607421875 187.1612548828125 86.89205932617188 203.64208984375 94.92117309570313 214.6292724609375 100.41477966308594 220.1229248046875 105.06321716308594 220.1229248046875 105.06321716308594 " />
        <polyline stroke="black" stroke-width="3" stroke-linecap="round" fill="transparent" stroke-linejoin="round" points="103.48934936523438 130.84092712402344 111.51849365234376 130.4183349609375 120.39276123046876 129.9957733154297 137.71875 129.5731658935547 145.32528686523438 129.5731658935547 161.383544921875 129.9957733154297 164.7642822265625 129.9957733154297 164.7642822265625 129.9957733154297 " />
        <polyline stroke="black" stroke-width="3" stroke-linecap="round" fill="transparent" stroke-linejoin="round" points="84.4730224609375 169.71878051757813 81.09237670898438 178.17047119140625 75.59872436523438 191.69320678710935 71.37289428710938 199.29974365234375 70.10516357421875 201.41265869140625 68.83740234375 202.25784301757813 68.83740234375 202.25784301757813 " />
        <polyline stroke="black" stroke-width="3" stroke-linecap="round" fill="transparent" stroke-linejoin="round" points="102.64422607421876 181.97373962402344 108.56039428710938 184.93182373046875 126.73153686523438 193.80612182617188 135.18328857421875 196.34164428710935 140.2542724609375 195.9190673828125 140.2542724609375 195.9190673828125 " />
        <polyline stroke="black" stroke-width="3" stroke-linecap="round" fill="transparent" stroke-linejoin="round" points="149.97372436523438 158.3089599609375 147.438232421875 163.37998962402344 135.18328857421875 184.50924682617188 130.9573974609375 191.69320678710935 127.99932861328124 196.76422119140625 127.99932861328124 196.76422119140625 " />
        <polyline stroke="black" stroke-width="3" stroke-linecap="round" fill="transparent" stroke-linejoin="round" points="159.2706298828125 192.11578369140625 165.609375 194.22869873046875 171.52557373046875 196.34164428710935 187.1612548828125 208.17401123046875 187.1612548828125 208.17401123046875 " />
        </svg>