<?xml version="1.0" standalone="no"?>
    <svg width="256" height="256" xmlns="http://www.w3.org/2000/svg" version="1.1">
    <polyline stroke="black" stroke-width="3" stroke-linecap="round" fill="transparent" stroke-linejoin="round" points="121.70785522460938 74.86245727539063 117.5196533203125 83.36251831054688 106.59710693359376 107.91986083984376 100.4652099609375 121.96881103515624 85.82138061523438 148.29547119140625 77.20867919921875 160.6815643310547 62.75067138671875 175.73782348632813 57.594329833984375 179.76409912109375 59.2236328125 176.49314880371094 " />
        <polyline stroke="black" stroke-width="3" stroke-linecap="round" fill="transparent" stroke-linejoin="round" points="129.61004638671875 84.64248657226563 135.85873413085938 88.38922119140625 160.09814453125 102.06883239746094 175.1181640625 113.91213989257813 183.8953857421875 121.45773315429688 201.6571044921875 136.7153778076172 209.2938232421875 143.4913787841797 219.1600341796875 154.28013610839844 223.50067138671875 159.0098114013672 228.9798583984375 165.47117614746094 229.10284423828125 165.6332244873047 " />
        <polyline stroke="black" stroke-width="3" stroke-linecap="round" fill="transparent" stroke-linejoin="round" points="129.66107177734375 138.4788818359375 138.7288818359375 136.9609832763672 165.64398193359375 135.10458374023438 171.49407958984375 134.9016571044922 173.37701416015625 134.94207763671875 173.5887451171875 135.1317596435547 173.60418701171875 135.1455535888672 " />
        <polyline stroke="black" stroke-width="3" stroke-linecap="round" fill="transparent" stroke-linejoin="round" points="101.83642578125 176.6228485107422 99.05596923828124 195.48049926757813 96.49688720703124 205.85321044921875 90.24337768554688 220.0938720703125 84.52178955078125 229.3465576171875 81.19210815429688 232.0777282714844 80.859130859375 232.350830078125 " />
        <polyline stroke="black" stroke-width="3" stroke-linecap="round" fill="transparent" stroke-linejoin="round" points="110.27352905273438 215.51300048828125 128.7579345703125 222.6295166015625 133.08700561523438 224.02056884765625 150.05865478515625 224.6268310546875 156.0806884765625 224.22573852539065 " />
        <polyline stroke="black" stroke-width="3" stroke-linecap="round" fill="transparent" stroke-linejoin="round" points="157.576171875 158.764404296875 149.92941284179688 175.73870849609375 146.24822998046875 186.99050903320313 139.77178955078125 208.8592834472656 142.60614013671875 217.50701904296875 144.73065185546875 219.481689453125 " />
        <polyline stroke="black" stroke-width="3" stroke-linecap="round" fill="transparent" stroke-linejoin="round" points="171.774169921875 197.20684814453125 178.57293701171875 202.92926025390625 185.8685302734375 208.8555603027344 200.6024169921875 225.4837646484375 204.969970703125 234.834716796875 205.40673828125 235.76983642578125 " />
        </svg>