<?xml version="1.0" standalone="no"?>
    <svg width="256" height="256" xmlns="http://www.w3.org/2000/svg" version="1.1">
    <polyline stroke="black" stroke-width="3" stroke-linecap="round" fill="transparent" stroke-linejoin="round" points="127.45184326171876 47.0911865234375 109.44100952148438 69.29057312011719 101.06390380859376 79.76199340820313 93.10565185546876 89.39567565917969 78.02679443359375 107.406494140625 65.46112060546875 121.228759765625 55.827392578125 130.86245727539063 55.827392578125 130.86245727539063 " />
        <polyline stroke="black" stroke-width="3" stroke-linecap="round" fill="transparent" stroke-linejoin="round" points="152.583251953125 50.02318572998047 158.44720458984375 51.6986083984375 165.14892578125 53.37403869628906 173.107177734375 55.887176513671875 187.76715087890625 61.332305908203125 194.4688720703125 64.26431274414063 205.359130859375 69.70944213867188 212.8985595703125 74.31684875488281 217.5059814453125 77.24884033203125 220.43792724609375 79.76199340820313 220.43792724609375 79.76199340820313 " />
        <polyline stroke="black" stroke-width="3" stroke-linecap="round" fill="transparent" stroke-linejoin="round" points="109.85986328125 108.66307067871094 117.818115234375 107.82536315917967 125.77642822265624 107.406494140625 142.53070068359375 107.406494140625 158.44720458984375 107.406494140625 171.8505859375 108.24420166015624 181.48431396484375 109.08193969726563 187.3482666015625 109.08193969726563 189.442626953125 109.08193969726563 189.442626953125 109.08193969726563 " />
        <polyline stroke="black" stroke-width="3" stroke-linecap="round" fill="transparent" stroke-linejoin="round" points="110.27874755859376 153.48068237304688 104.83358764648438 163.53323364257813 98.9696044921875 174.84234619140625 93.52450561523438 186.57034301757813 84.728515625 202.48687744140625 79.28338623046875 210.864013671875 75.513671875 215.471435546875 74.257080078125 215.8902587890625 74.257080078125 215.8902587890625 " />
        <polyline stroke="black" stroke-width="3" stroke-linecap="round" fill="transparent" stroke-linejoin="round" points="119.91244506835938 178.612060546875 123.68212890625 181.12521362304688 129.9649658203125 185.31378173828125 136.247802734375 190.7589111328125 136.247802734375 190.7589111328125 " />
        <polyline stroke="black" stroke-width="3" stroke-linecap="round" fill="transparent" stroke-linejoin="round" points="154.2586669921875 158.5069580078125 148.8134765625 167.30294799804688 143.7872314453125 175.6800537109375 129.546142578125 197.46060180664065 126.19528198242188 202.48687744140625 120.7501220703125 209.607421875 116.98043823242188 214.21484375 115.30502319335938 215.8902587890625 115.30502319335938 215.471435546875 115.30502319335938 215.471435546875 " />
        <polyline stroke="black" stroke-width="3" stroke-linecap="round" fill="transparent" stroke-linejoin="round" points="152.16436767578125 201.23031616210935 157.6094970703125 203.74343872070313 168.0809326171875 209.607421875 178.13348388671875 215.8902587890625 186.5106201171875 221.7542724609375 186.5106201171875 221.7542724609375 " />
        </svg>