<?xml version="1.0" standalone="no"?>
    <svg width="256" height="256" xmlns="http://www.w3.org/2000/svg" version="1.1">
    <polyline stroke="black" stroke-width="3" stroke-linecap="round" fill="transparent" stroke-linejoin="round" points="50.2508544921875 132.877197265625 59.172760009765625 129.53146362304688 74.228515625 124.51287841796876 106.01287841796876 113.3604736328125 129.99057006835938 107.78427124023438 152.85302734375 103.88093566894533 169.02398681640625 100.5352020263672 183.5220947265625 97.74710083007813 194.674560546875 95.51661682128906 194.674560546875 95.51661682128906 " />
        <polyline stroke="black" stroke-width="3" stroke-linecap="round" fill="transparent" stroke-linejoin="round" points="159.54443359375 38.63933563232422 155.64111328125 48.67650604248047 144.48870849609375 68.19322204589844 128.31768798828125 98.30471801757813 113.261962890625 123.95526123046876 98.76382446289063 146.8177032470703 87.61138916015625 164.66156005859375 78.68948364257813 176.37158203125 73.6708984375 181.9477996826172 70.3251953125 183.06304931640625 70.3251953125 183.06304931640625 " />
        <polyline stroke="black" stroke-width="3" stroke-linecap="round" fill="transparent" stroke-linejoin="round" points="106.57049560546876 135.10768127441406 117.722900390625 134.550048828125 135.0091552734375 134.550048828125 157.31396484375 137.33815002441406 174.0426025390625 141.2415008544922 189.65594482421875 145.14483642578125 201.365966796875 148.49057006835938 206.94219970703125 151.83628845214844 206.94219970703125 151.83628845214844 " />
        <polyline stroke="black" stroke-width="3" stroke-linecap="round" fill="transparent" stroke-linejoin="round" points="106.57049560546876 167.4496612548828 103.22479248046876 179.71731567382813 102.10955810546876 191.4273376464844 100.43667602539063 204.25262451171875 100.43667602539063 213.73214721679688 100.43667602539063 218.193115234375 100.43667602539063 219.30838012695313 100.43667602539063 214.847412109375 101.55194091796876 208.15594482421875 104.34002685546876 198.1187744140625 111.03146362304688 186.96636962890625 120.51101684570313 176.37158203125 134.4515380859375 166.3344268798828 147.27679443359375 159.08535766601563 160.10205078125 155.73963928222656 169.02398681640625 155.73963928222656 175.1578369140625 157.97010803222656 179.6187744140625 161.3158416748047 181.8492431640625 166.3344268798828 180.7340087890625 173.02586364746094 171.8121337890625 188.6392517089844 151.73779296875 212.61691284179688 151.73779296875 212.61691284179688 " />
        <polyline stroke="black" stroke-width="3" stroke-linecap="round" fill="transparent" stroke-linejoin="round" points="104.34002685546876 229.90316772460935 111.03146362304688 223.21170043945313 121.06863403320313 217.077880859375 134.4515380859375 212.05929565429688 146.16156005859375 208.71356201171875 156.19873046875 207.04071044921875 162.89013671875 207.04071044921875 162.89013671875 207.04071044921875 " />
        </svg>