<?xml version="1.0" standalone="no"?>
    <svg width="256" height="256" xmlns="http://www.w3.org/2000/svg" version="1.1">
    <polyline stroke="black" stroke-width="3" stroke-linecap="round" fill="transparent" stroke-linejoin="round" points="73.0008544921875 111.12339782714844 103.09283447265624 97.91224670410156 124.37738037109376 91.30670166015624 143.460205078125 86.90298461914063 161.8089599609375 82.49928283691406 165.478759765625 81.76533508300781 168.41455078125 79.56346130371094 169.1484375 77.36161804199219 169.1484375 77.36161804199219 " />
        <polyline stroke="black" stroke-width="3" stroke-linecap="round" fill="transparent" stroke-linejoin="round" points="128.04718017578125 49.47145080566406 125.11138916015624 65.61839294433594 120.7076416015625 86.16903686523438 114.8360595703125 108.18757629394533 106.02862548828124 129.47219848632813 95.0194091796875 150.02281188964844 78.13848876953125 174.97715759277344 71.53289794921875 184.5185546875 67.86322021484375 188.9222412109375 63.45941162109375 190.39013671875 63.45941162109375 190.39013671875 " />
        <polyline stroke="black" stroke-width="3" stroke-linecap="round" fill="transparent" stroke-linejoin="round" points="122.9095458984375 101.58200073242188 139.7904052734375 111.12339782714844 164.0107421875 124.3345184326172 199.974365234375 141.21539306640625 219.05712890625 149.2888641357422 234.4700927734375 154.42652893066406 234.4700927734375 154.42652893066406 " />
        <polyline stroke="black" stroke-width="3" stroke-linecap="round" fill="transparent" stroke-linejoin="round" points="104.560791015625 168.37161254882813 104.560791015625 188.18832397460935 105.29473876953124 198.463623046875 106.02862548828124 203.60128784179688 106.76263427734376 206.53707885742188 107.49652099609376 208.73895263671875 108.96441650390624 208.73895263671875 108.96441650390624 208.73895263671875 " />
        <polyline stroke="black" stroke-width="3" stroke-linecap="round" fill="transparent" stroke-linejoin="round" points="111.16632080078124 165.43580627441406 122.9095458984375 156.62838745117188 131.7169189453125 152.9586181640625 140.5242919921875 148.55491638183594 161.074951171875 142.68328857421875 166.9466552734375 141.9493408203125 169.1484375 141.9493408203125 170.616455078125 142.68328857421875 168.41455078125 144.88514709472656 164.7447509765625 152.9586181640625 161.8089599609375 165.43580627441406 161.074951171875 175.71112060546875 161.074951171875 181.58273315429688 163.27685546875 188.18832397460935 163.27685546875 188.18832397460935 " />
        <polyline stroke="black" stroke-width="3" stroke-linecap="round" fill="transparent" stroke-linejoin="round" points="109.69842529296876 208.73895263671875 136.12060546875 199.19760131835935 150.7996826171875 198.463623046875 160.341064453125 198.463623046875 160.341064453125 198.463623046875 " />
        </svg>