<?xml version="1.0" standalone="no"?>
    <svg width="256" height="256" xmlns="http://www.w3.org/2000/svg" version="1.1">
    <polyline stroke="black" stroke-width="3" stroke-linecap="round" fill="transparent" stroke-linejoin="round" points="60.88787841796875 97.58590698242188 77.6673583984375 95.0044403076172 90.57470703125 91.13224792480467 107.35421752929688 87.26005554199219 124.13372802734376 82.74249267578125 142.849365234375 78.87030029296875 157.04742431640625 75.64346313476563 166.08251953125 73.70736694335938 171.2454833984375 72.41664123535156 175.11767578125 69.18980407714844 175.11767578125 69.18980407714844 " />
        <polyline stroke="black" stroke-width="3" stroke-linecap="round" fill="transparent" stroke-linejoin="round" points="104.12738037109376 43.37516021728515 102.836669921875 61.445404052734375 102.1912841796875 73.70736694335938 102.1912841796875 85.32395935058594 102.836669921875 96.29518127441406 103.48202514648438 105.33030700683594 105.41812133789063 111.78396606445313 107.99957275390624 116.9468994140625 112.51715087890624 120.819091796875 117.03469848632813 123.40055847167967 123.48837280273438 124.6912841796875 128.65130615234375 124.6912841796875 133.814208984375 123.40055847167967 138.9771728515625 121.46446228027344 144.14007568359375 117.59225463867188 151.88446044921875 102.1034698486328 151.88446044921875 102.1034698486328 " />
        <polyline stroke="black" stroke-width="3" stroke-linecap="round" fill="transparent" stroke-linejoin="round" points="145.43081665039063 40.14833068847656 144.14007568359375 50.47418975830078 144.14007568359375 61.445404052734375 144.78546142578125 74.35273742675781 145.43081665039063 87.26005554199219 146.7215576171875 96.9405517578125 146.7215576171875 104.6849365234375 146.7215576171875 112.42933654785156 146.076171875 121.46446228027344 146.076171875 121.46446228027344 " />
        <polyline stroke="black" stroke-width="3" stroke-linecap="round" fill="transparent" stroke-linejoin="round" points="91.86541748046876 159.5410614013672 109.9356689453125 154.3781280517578 120.26153564453124 153.08738708496094 129.9420166015625 151.1512908935547 137.6864013671875 149.86056518554688 144.14007568359375 149.86056518554688 148.01226806640625 149.86056518554688 149.30300903320313 151.79666137695313 149.30300903320313 151.79666137695313 " />
        <polyline stroke="black" stroke-width="3" stroke-linecap="round" fill="transparent" stroke-linejoin="round" points="66.05078125 199.55374145507813 78.9581298828125 196.32693481445313 91.86541748046876 194.39080810546875 109.29031372070313 192.4547119140625 128.00592041015625 190.51861572265625 146.7215576171875 189.2279052734375 162.2103271484375 187.93716430664065 173.826904296875 186.64642333984375 180.9259033203125 186.0010681152344 187.379638671875 185.35568237304688 191.89715576171875 185.35568237304688 194.4786376953125 185.35568237304688 194.4786376953125 185.35568237304688 193.833251953125 187.93716430664065 193.833251953125 187.93716430664065 " />
        </svg>