<?xml version="1.0" standalone="no"?>
    <svg width="256" height="256" xmlns="http://www.w3.org/2000/svg" version="1.1">
    <polyline stroke="black" stroke-width="3" stroke-linecap="round" fill="transparent" stroke-linejoin="round" points="104 39 104 38 103 38 103 39 101 41 99 47 94 59 91 68 88 77 85 85 83 92 81 99 79 104 79 108 78 110 78 111 " />
        <polyline stroke="black" stroke-width="3" stroke-linecap="round" fill="transparent" stroke-linejoin="round" points="83 79 87 76 91 74 99 72 104 71 110 69 116 68 122 68 129 67 135 67 142 67 147 66 152 66 158 66 160 66 161 66 " />
        <polyline stroke="black" stroke-width="3" stroke-linecap="round" fill="transparent" stroke-linejoin="round" points="102 95 102 95 103 94 105 93 109 91 114 90 119 88 125 86 131 85 136 83 142 82 147 81 152 80 156 80 157 81 159 81 " />
        <polyline stroke="black" stroke-width="3" stroke-linecap="round" fill="transparent" stroke-linejoin="round" points="110 94 111 94 111 94 110 95 110 97 108 103 106 110 103 118 101 126 99 135 96 148 94 155 93 162 92 167 92 170 92 173 92 174 92 175 92 175 92 176 93 175 94 174 97 172 101 170 106 166 111 162 118 158 124 153 131 148 134 146 137 144 " />
        <polyline stroke="black" stroke-width="3" stroke-linecap="round" fill="transparent" stroke-linejoin="round" points="103 115 102 115 102 114 103 113 105 112 107 110 111 109 115 108 120 108 127 107 131 108 135 109 138 111 141 114 142 119 143 127 143 136 142 146 141 161 141 171 141 179 143 187 144 193 147 199 149 203 152 206 155 209 162 210 167 210 173 208 180 206 183 204 186 202 " />
        </svg>