<?xml version="1.0" standalone="no"?>
    <svg width="256" height="256" xmlns="http://www.w3.org/2000/svg" version="1.1">
    <polyline stroke="black" stroke-width="3" stroke-linecap="round" fill="transparent" stroke-linejoin="round" points="118 52 118 52 118 52 116 55 109 67 103 77 99 83 92 94 82 110 77 118 75 121 70 130 69 132 " />
        <polyline stroke="black" stroke-width="3" stroke-linecap="round" fill="transparent" stroke-linejoin="round" points="79 77 80 77 84 76 87 76 92 77 97 79 103 82 109 86 117 90 124 95 134 101 140 104 146 106 150 106 152 106 153 105 " />
        <polyline stroke="black" stroke-width="3" stroke-linecap="round" fill="transparent" stroke-linejoin="round" points="108 108 108 108 107 110 107 114 108 118 110 124 112 131 114 139 116 153 118 160 119 167 119 172 118 176 116 178 113 179 110 178 106 175 104 173 102 171 " />
        <polyline stroke="black" stroke-width="3" stroke-linecap="round" fill="transparent" stroke-linejoin="round" points="74 140 74 141 74 145 74 151 75 154 74 158 74 161 74 164 74 166 75 169 76 170 " />
        <polyline stroke="black" stroke-width="3" stroke-linecap="round" fill="transparent" stroke-linejoin="round" points="123 139 125 139 128 140 131 141 133 142 135 143 136 144 138 144 140 145 142 146 143 146 " />
        <polyline stroke="black" stroke-width="3" stroke-linecap="round" fill="transparent" stroke-linejoin="round" points="155 88 155 88 154 89 155 91 155 94 155 98 155 102 156 108 156 113 157 118 158 125 158 129 158 130 158 131 158 132 " />
        <polyline stroke="black" stroke-width="3" stroke-linecap="round" fill="transparent" stroke-linejoin="round" points="156 99 156 99 157 96 159 93 161 91 163 88 166 85 169 82 174 79 181 75 186 73 192 72 197 71 202 72 207 73 210 76 214 81 217 87 220 98 221 105 221 112 221 119 219 125 217 130 216 132 " />
        <polyline stroke="black" stroke-width="3" stroke-linecap="round" fill="transparent" stroke-linejoin="round" points="189 106 188 105 187 104 187 103 186 103 186 104 185 107 183 112 182 118 180 125 178 131 177 138 175 143 174 145 " />
        <polyline stroke="black" stroke-width="3" stroke-linecap="round" fill="transparent" stroke-linejoin="round" points="166 119 166 118 169 115 172 113 176 111 179 110 183 109 187 108 191 107 195 107 198 107 200 107 201 110 201 111 " />
        <polyline stroke="black" stroke-width="3" stroke-linecap="round" fill="transparent" stroke-linejoin="round" points="164 147 164 147 162 148 163 148 166 147 170 146 176 145 182 144 189 143 197 142 204 141 211 141 214 142 218 143 " />
        </svg>