<?xml version="1.0" standalone="no"?>
    <svg width="256" height="256" xmlns="http://www.w3.org/2000/svg" version="1.1">
    <polyline stroke="black" stroke-width="3" stroke-linecap="round" fill="transparent" stroke-linejoin="round" points="37.77880859375 73.95623779296875 44.262176513671875 86.3826904296875 45.883026123046875 99.8896942138672 45.34271240234375 116.09811401367188 38.319091796875 165.26361083984375 28.593994140625 225.2347412109375 24.271820068359375 248.466796875 17.248138427734375 279.80303955078125 15.627288818359377 288.447509765625 14.006439208984377 297.0920104980469 14.006439208984377 298.7128601074219 14.546722412109377 300.8739929199219 14.546722412109377 301.4142761230469 16.167572021484375 301.9545593261719 16.707855224609375 301.9545593261719 19.409271240234375 300.8739929199219 19.409271240234375 300.8739929199219 19.409271240234375 300.8739929199219 " />
        <polyline stroke="black" stroke-width="3" stroke-linecap="round" fill="transparent" stroke-linejoin="round" points="114.49862670898438 60.449249267578125 100.9915771484375 110.6953125 97.20965576171876 136.08848571777344 96.12908935546876 164.72332763671875 97.20965576171876 170.66644287109375 99.37078857421876 175.52896118164063 100.4512939453125 176.6094970703125 103.1527099609375 177.14981079101563 104.23324584960938 177.14981079101563 106.93466186523438 176.6094970703125 108.55551147460938 175.52896118164063 118.28057861328124 172.2872772216797 130.70700073242188 167.9650115966797 152.8585205078125 159.86082458496094 161.50299072265625 157.15940856933594 173.38916015625 153.37744140625 178.7919921875 151.2163543701172 187.43646240234375 148.5149383544922 190.1378173828125 147.9746551513672 195.5406494140625 146.35382080078125 195.5406494140625 146.35382080078125 " />
        <polyline stroke="black" stroke-width="3" stroke-linecap="round" fill="transparent" stroke-linejoin="round" points="218.232421875 56.12701416015625 212.82958984375 72.33540344238281 199.8629150390625 110.6953125 192.8392333984375 141.49130249023438 190.1378173828125 158.78025817871094 189.5975341796875 163.64279174804688 189.05731201171875 168.5052947998047 189.05731201171875 169.04559326171875 188.51702880859375 170.66644287109375 188.51702880859375 170.66644287109375 188.51702880859375 170.66644287109375 " />
        <polyline stroke="black" stroke-width="3" stroke-linecap="round" fill="transparent" stroke-linejoin="round" points="165.28497314453125 50.18391418457031 157.1807861328125 72.33540344238281 151.2376708984375 93.94662475585938 144.21405029296875 123.12174987792967 140.97235107421875 139.33016967773438 129.086181640625 175.52896118164063 123.14306640625 191.19708251953125 111.25692749023438 219.29165649414065 97.20965576171876 245.765380859375 89.10540771484375 259.27239990234375 84.242919921875 270.0780029296875 78.840087890625 283.58502197265625 78.2998046875 285.20587158203125 78.2998046875 285.20587158203125 " />
        </svg>