<?xml version="1.0" standalone="no"?>
    <svg width="256" height="256" xmlns="http://www.w3.org/2000/svg" version="1.1">
    <polyline stroke="black" stroke-width="3" stroke-linecap="round" fill="transparent" stroke-linejoin="round" points="60.708251953125 96.360595703125 65.7442626953125 93.42294311523438 71.61959838867188 90.48527526855467 77.49496459960938 87.1279296875 93.4422607421875 77.89527893066406 98.478271484375 74.95761108398438 105.61260986328124 69.92161560058594 105.61260986328124 69.92161560058594 " />
        <polyline stroke="black" stroke-width="3" stroke-linecap="round" fill="transparent" stroke-linejoin="round" points="111.90756225585938 53.55461883544922 107.7109375 63.206939697265625 97.638916015625 83.35093688964844 92.18328857421876 93.00326538085938 86.30795288085938 103.07525634765624 74.13763427734375 120.70126342773438 69.10162353515625 127.83560180664063 69.10162353515625 127.83560180664063 " />
        <polyline stroke="black" stroke-width="3" stroke-linecap="round" fill="transparent" stroke-linejoin="round" points="179.05419921875 41.803955078125 174.01824951171875 48.09895324707031 168.1429443359375 54.81361389160156 154.71356201171875 66.98394775390625 142.543212890625 77.05593872070313 132.89093017578125 83.77059936523438 127.43524169921876 85.86894226074219 127.43524169921876 85.86894226074219 " />
        <polyline stroke="black" stroke-width="3" stroke-linecap="round" fill="transparent" stroke-linejoin="round" points="139.60556030273438 61.108612060546875 140.44491577148438 64.8856201171875 141.70391845703125 68.66261291503906 143.382568359375 72.43960571289063 147.9989013671875 79.57394409179688 150.51690673828125 82.51161193847656 158.0709228515625 87.96726989746094 167.7232666015625 91.32460021972656 178.634521484375 91.32460021972656 190.80487060546875 86.28860473632813 190.80487060546875 86.28860473632813 " />
        <polyline stroke="black" stroke-width="3" stroke-linecap="round" fill="transparent" stroke-linejoin="round" points="106.451904296875 137.0682373046875 112.74691772460938 133.71092224121094 119.46160888671876 129.93392944335938 126.59591674804688 126.57658386230467 138.7662353515625 121.12094116210938 147.5792236328125 118.60293579101563 153.034912109375 118.18325805664063 155.55291748046875 120.28160095214844 156.8118896484375 126.57658386230467 153.034912109375 138.74693298339844 144.64157104492188 150.917236328125 132.89093017578125 162.66790771484375 129.11395263671875 166.02523803710938 129.11395263671875 166.02523803710938 " />
        <polyline stroke="black" stroke-width="3" stroke-linecap="round" fill="transparent" stroke-linejoin="round" points="116.52392578125 167.7039031982422 124.49755859375 170.22190856933594 132.47125244140625 173.15957641601563 150.51690673828125 181.5529022216797 150.51690673828125 181.5529022216797 " />
        </svg>