<?xml version="1.0" standalone="no"?>
    <svg width="256" height="256" xmlns="http://www.w3.org/2000/svg" version="1.1">
    <polyline stroke="black" stroke-width="3" stroke-linecap="round" fill="transparent" stroke-linejoin="round" points="112.344482421875 49.02372741699219 106.561767578125 65.1326904296875 98.71380615234376 85.37216186523438 87.56146240234375 110.98126220703124 79.7135009765625 127.50328063964844 73.9307861328125 138.6556396484375 68.14813232421875 149.3949432373047 68.14813232421875 149.3949432373047 " />
        <polyline stroke="black" stroke-width="3" stroke-linecap="round" fill="transparent" stroke-linejoin="round" points="80.95263671875 94.872314453125 85.08319091796875 91.98097229003906 89.213623046875 89.50267028808594 92.93109130859376 87.43740844726563 100.779052734375 84.13299560546875 100.779052734375 84.13299560546875 " />
        <polyline stroke="black" stroke-width="3" stroke-linecap="round" fill="transparent" stroke-linejoin="round" points="166.86712646484375 60.17608642578125 162.736572265625 65.95878601074219 153.6495361328125 77.11114501953125 149.51898193359375 82.0677490234375 149.51898193359375 82.0677490234375 " />
        <polyline stroke="black" stroke-width="3" stroke-linecap="round" fill="transparent" stroke-linejoin="round" points="137.54052734375 67.61099243164063 136.71444702148438 73.80674743652344 135.88836669921875 79.58944702148438 135.88836669921875 90.32875061035156 137.12750244140625 100.24197387695313 140.84494018554688 107.67686462402344 146.62762451171875 114.2856903076172 156.5408935546875 120.48143005371094 166.86712646484375 124.61192321777344 175.12811279296875 126.26412963867188 182.56298828125 125.85107421875 186.28045654296875 123.78582763671876 186.28045654296875 123.78582763671876 " />
        <polyline stroke="black" stroke-width="3" stroke-linecap="round" fill="transparent" stroke-linejoin="round" points="104.49652099609376 147.32969665527344 109.0400390625 145.26443481445313 113.99667358398438 143.19918823242188 118.95330810546876 141.13394165039063 128.45346069335938 137.41648864746094 136.30136108398438 134.52513122558594 142.49716186523438 133.28598022460938 146.214599609375 132.87295532226563 148.69287109375 133.28598022460938 149.51898193359375 135.3512420654297 149.51898193359375 140.72088623046875 147.4537353515625 147.74273681640625 143.73629760742188 156.00375366210938 137.95358276367188 165.09085083007813 131.34478759765625 171.69964599609375 125.56210327148438 176.2432098388672 122.25765991210938 178.30845642089844 122.25765991210938 178.30845642089844 " />
        <polyline stroke="black" stroke-width="3" stroke-linecap="round" fill="transparent" stroke-linejoin="round" points="118.54022216796876 180.3737030029297 124.7359619140625 182.85202026367188 143.73629760742188 193.17828369140625 150.75814819335938 198.1348876953125 150.75814819335938 198.1348876953125 " />
        </svg>