<?xml version="1.0" standalone="no"?>
    <svg width="256" height="256" xmlns="http://www.w3.org/2000/svg" version="1.1">
    <polyline stroke="black" stroke-width="3" stroke-linecap="round" fill="transparent" stroke-linejoin="round" points="106.74008178710938 57.73564147949219 106.23739624023438 69.50039672851563 102.82196044921876 95.17947387695313 99.42529296875 107.19329833984376 88.195556640625 126.09634399414063 80.92794799804688 131.0867919921875 80.201171875 131.5858154296875 " />
        <polyline stroke="black" stroke-width="3" stroke-linecap="round" fill="transparent" stroke-linejoin="round" points="67.09954833984375 114.4327392578125 72.57696533203125 109.64657592773438 94.76239013671876 82.28973388671875 103.2413330078125 72.05625915527344 105.10125732421876 69.77560424804688 " />
        <polyline stroke="black" stroke-width="3" stroke-linecap="round" fill="transparent" stroke-linejoin="round" points="118.97802734375 47.76769256591797 118.58773803710938 58.830078125 118.25836181640624 70.20028686523438 118.252685546875 82.50518798828125 118.44403076171876 99.9251708984375 121.790771484375 107.45880126953124 125.3341064453125 109.57669067382813 130.63058471679688 114.2371826171875 132.63250732421875 116.65451049804688 135.2373046875 120.237060546875 138.23519897460938 121.64459228515624 141.91854858398438 122.7549285888672 161.84442138671875 124.99984741210938 167.55194091796875 124.78274536132813 174.7464599609375 123.7591552734375 177.1810302734375 123.10301208496094 181.8494873046875 121.03128051757813 183.052978515625 119.62492370605467 185.1197509765625 115.94151306152344 186.19775390625 113.76805114746094 189.41949462890625 107.7041473388672 191.2406005859375 91.85777282714844 190.78515625 90.31491088867188 " />
        <polyline stroke="black" stroke-width="3" stroke-linecap="round" fill="transparent" stroke-linejoin="round" points="167.57562255859375 77.99966430664063 170.777099609375 80.10662841796875 171.2198486328125 80.39033508300781 " />
        <polyline stroke="black" stroke-width="3" stroke-linecap="round" fill="transparent" stroke-linejoin="round" points="89.91415405273438 151.25466918945313 108.15106201171876 141.76695251464844 127.24081420898438 134.49996948242188 142.806640625 129.5670623779297 148.11605834960938 128.9290771484375 163.868408203125 130.44216918945313 164.3717041015625 130.56585693359375 164.375732421875 130.56686401367188 164.3763427734375 130.56700134277344 158.5740966796875 136.7666473388672 143.20761108398438 152.87411499023438 135.51666259765625 162.08529663085938 117.49325561523438 179.79299926757813 113.39291381835938 184.30014038085935 114.56405639648438 183.01852416992188 " />
        <polyline stroke="black" stroke-width="3" stroke-linecap="round" fill="transparent" stroke-linejoin="round" points="122.43731689453124 188.51263427734375 130.63070678710938 191.5029296875 138.15951538085938 195.62847900390625 138.31088256835938 195.79351806640625 " />
        </svg>