<?xml version="1.0" standalone="no"?>
    <svg width="256" height="256" xmlns="http://www.w3.org/2000/svg" version="1.1">
    <polyline stroke="black" stroke-width="3" stroke-linecap="round" fill="transparent" stroke-linejoin="round" points="55.11346435546875 119.83341979980467 61.56939697265625 117.52774047851563 73.5589599609375 112.91635131835938 78.17034912109375 110.61065673828124 85.54855346679688 105.53814697265624 92.00448608398438 94.00968933105467 92.00448608398438 94.00968933105467 " />
        <polyline stroke="black" stroke-width="3" stroke-linecap="round" fill="transparent" stroke-linejoin="round" points="106.76092529296876 44.66792297363281 104.45526123046876 58.50205993652344 93.38790893554688 96.31536865234376 85.54855346679688 113.838623046875 64.336181640625 147.50169372558594 58.341400146484375 153.9576416015625 48.196380615234375 162.25811767578125 46.351806640625 163.18038940429688 46.351806640625 163.18038940429688 " />
        <polyline stroke="black" stroke-width="3" stroke-linecap="round" fill="transparent" stroke-linejoin="round" points="161.6363525390625 76.4864501953125 154.2581787109375 81.09782409667969 138.57943725585938 87.55375671386719 138.57943725585938 87.55375671386719 " />
        <polyline stroke="black" stroke-width="3" stroke-linecap="round" fill="transparent" stroke-linejoin="round" points="125.66757202148438 82.48123168945313 127.9732666015625 91.70399475097656 130.74008178710938 99.5433349609375 133.968017578125 105.999267578125 138.1182861328125 111.53292846679688 151.4913330078125 122.13912963867188 161.1751708984375 125.82821655273438 169.0145263671875 123.52252197265624 169.0145263671875 123.52252197265624 " />
        <polyline stroke="black" stroke-width="3" stroke-linecap="round" fill="transparent" stroke-linejoin="round" points="109.06658935546876 162.71923828125 115.06137084960938 159.49130249023438 133.50692749023438 153.9576416015625 141.807373046875 153.49649047851563 146.41879272460938 154.87991333007813 147.80218505859375 157.646728515625 145.03533935546875 164.56381225585938 133.968017578125 174.70884704589844 125.2064208984375 180.70364379882813 116.90594482421876 184.8538818359375 116.90594482421876 184.8538818359375 " />
        <polyline stroke="black" stroke-width="3" stroke-linecap="round" fill="transparent" stroke-linejoin="round" points="98.46041870117188 194.9989013671875 114.60028076171876 203.2994079589844 123.822998046875 207.9107666015625 149.18560791015625 224.05059814453125 149.18560791015625 224.05059814453125 " />
        </svg>