<?xml version="1.0" standalone="no"?>
    <svg width="256" height="256" xmlns="http://www.w3.org/2000/svg" version="1.1">
    <polyline stroke="black" stroke-width="3" stroke-linecap="round" fill="transparent" stroke-linejoin="round" points="98 79 98 86 98 105 96 121 95 134 93 143 92 145 92 146 92 146 " />
        <polyline stroke="black" stroke-width="3" stroke-linecap="round" fill="transparent" stroke-linejoin="round" points="58 97 69 97 88 97 103 97 103 97 " />
        <polyline stroke="black" stroke-width="3" stroke-linecap="round" fill="transparent" stroke-linejoin="round" points="175 86 164 86 149 86 143 86 137 85 137 85 " />
        <polyline stroke="black" stroke-width="3" stroke-linecap="round" fill="transparent" stroke-linejoin="round" points="126 63 124 75 121 87 121 99 123 111 134 121 149 130 166 136 182 140 182 140 " />
        <polyline stroke="black" stroke-width="3" stroke-linecap="round" fill="transparent" stroke-linejoin="round" points="86 162 89 162 101 159 107 158 128 156 135 156 145 156 151 156 154 156 154 157 152 162 145 170 137 178 128 185 128 185 " />
        <polyline stroke="black" stroke-width="3" stroke-linecap="round" fill="transparent" stroke-linejoin="round" points="118 188 128 191 144 201 159 211 159 211 " />
        </svg>