<?xml version="1.0" standalone="no"?>
    <svg width="256" height="256" xmlns="http://www.w3.org/2000/svg" version="1.1">
    <polyline stroke="black" stroke-width="3" stroke-linecap="round" fill="transparent" stroke-linejoin="round" points="115 100 115 104 114 109 112 118 111 129 109 137 108 141 108 144 107 145 106 145 106 145 " />
        <polyline stroke="black" stroke-width="3" stroke-linecap="round" fill="transparent" stroke-linejoin="round" points="89 118 96 118 103 118 108 118 111 118 111 118 " />
        <polyline stroke="black" stroke-width="3" stroke-linecap="round" fill="transparent" stroke-linejoin="round" points="148 118 146 118 139 118 132 117 130 117 127 115 127 115 " />
        <polyline stroke="black" stroke-width="3" stroke-linecap="round" fill="transparent" stroke-linejoin="round" points="122 98 122 104 122 112 123 118 128 125 134 129 142 131 149 131 155 131 159 131 159 131 " />
        <polyline stroke="black" stroke-width="3" stroke-linecap="round" fill="transparent" stroke-linejoin="round" points="108 160 118 158 129 156 140 155 142 155 143 155 143 160 142 167 139 172 135 178 131 182 128 183 128 183 " />
        <polyline stroke="black" stroke-width="3" stroke-linecap="round" fill="transparent" stroke-linejoin="round" points="118 177 124 178 130 183 136 186 142 189 146 193 146 193 " />
        </svg>