<?xml version="1.0" standalone="no"?>
    <svg width="256" height="256" xmlns="http://www.w3.org/2000/svg" version="1.1">
    <polyline stroke="black" stroke-width="3" stroke-linecap="round" fill="transparent" stroke-linejoin="round" points="98.06671142578124 106.933349609375 93.80010986328124 124.00001525878906 89.53338623046875 134.6666717529297 85.2667236328125 140.00001525878906 79.93341064453125 142.1333465576172 79.93341064453125 142.1333465576172 " />
        <polyline stroke="black" stroke-width="3" stroke-linecap="round" fill="transparent" stroke-linejoin="round" points="76.7333984375 101.60000610351563 " />
        <polyline stroke="black" stroke-width="3" stroke-linecap="round" fill="transparent" stroke-linejoin="round" points="76 101 " />
        <polyline stroke="black" stroke-width="3" stroke-linecap="round" fill="transparent" stroke-linejoin="round" points="130.0667724609375 85.60000610351563 130.0667724609375 94.1333465576172 130.0667724609375 100.53335571289063 134.3333740234375 110.1333465576172 140.7333984375 113.33334350585938 151.4000244140625 114.40000915527344 166.3333740234375 112.26667785644533 185.533447265625 104.8000030517578 191.933349609375 100.53335571289063 196.2000732421875 96.26667785644533 196.2000732421875 92.00001525878906 186.60009765625 84.53335571289063 186.60009765625 84.53335571289063 " />
        <polyline stroke="black" stroke-width="3" stroke-linecap="round" fill="transparent" stroke-linejoin="round" points="181.2667236328125 84.53335571289063 187.666748046875 88.80000305175781 187.666748046875 88.80000305175781 " />
        <polyline stroke="black" stroke-width="3" stroke-linecap="round" fill="transparent" stroke-linejoin="round" points="89.53338623046875 158.1333465576172 102.3333740234375 150.6666717529297 133.2667236328125 138.93336486816406 156.7333984375 131.4666748046875 167.4000244140625 129.33334350585938 171.666748046875 129.33334350585938 170.60009765625 132.53334045410156 161 141.06671142578125 148.2000732421875 151.73338317871094 136.466796875 160.26669311523438 127.93341064453124 165.6000213623047 121.53338623046876 167.73338317871094 120.466796875 167.73338317871094 121.53338623046876 167.73338317871094 125.80010986328124 167.73338317871094 141.8001708984375 170.93336486816406 154.60009765625 174.1333465576172 163.1334228515625 177.33334350585938 167.4000244140625 179.4666748046875 168.466796875 179.4666748046875 167.4000244140625 177.33334350585938 167.4000244140625 177.33334350585938 " />
        </svg>