<?xml version="1.0" standalone="no"?>
    <svg width="256" height="256" xmlns="http://www.w3.org/2000/svg" version="1.1">
    <polyline stroke="black" stroke-width="3" stroke-linecap="round" fill="transparent" stroke-linejoin="round" points="46 100 46 99 49 98 52 98 56 97 61 96 66 95 71 94 76 93 81 92 86 90 92 87 94 86 96 86 96 86 " />
        <polyline stroke="black" stroke-width="3" stroke-linecap="round" fill="transparent" stroke-linejoin="round" points="50 130 49 131 49 131 50 132 53 132 56 133 61 132 66 132 71 131 78 128 84 125 89 121 91 118 95 114 97 112 " />
        <polyline stroke="black" stroke-width="3" stroke-linecap="round" fill="transparent" stroke-linejoin="round" points="78 94 75 98 73 104 72 113 71 123 71 134 71 145 71 155 72 169 73 176 73 181 74 185 75 188 76 188 78 188 " />
        <polyline stroke="black" stroke-width="3" stroke-linecap="round" fill="transparent" stroke-linejoin="round" points="123 61 122 66 119 76 115 89 111 103 107 117 104 130 101 141 98 150 95 157 93 162 92 164 92 165 " />
        <polyline stroke="black" stroke-width="3" stroke-linecap="round" fill="transparent" stroke-linejoin="round" points="101 137 106 135 110 135 114 135 118 135 121 136 124 136 126 137 128 137 " />
        <polyline stroke="black" stroke-width="3" stroke-linecap="round" fill="transparent" stroke-linejoin="round" points="161 72 158 80 152 90 147 103 141 115 134 135 131 141 125 156 123 160 119 169 119 171 " />
        <polyline stroke="black" stroke-width="3" stroke-linecap="round" fill="transparent" stroke-linejoin="round" points="141 136 146 134 151 134 156 135 162 137 166 140 168 142 175 150 177 154 " />
        </svg>