<?xml version="1.0" standalone="no"?>
    <svg width="256" height="256" xmlns="http://www.w3.org/2000/svg" version="1.1">
    <polyline stroke="black" stroke-width="3" stroke-linecap="round" fill="transparent" stroke-linejoin="round" points="67.62698364257813 110.05187988281249 77.7861328125 107.20730590820313 87.94528198242188 104.36273193359376 98.10443115234376 101.92454528808594 120.04818725585938 97.45452880859376 139.5537109375 94.60995483398438 152.96380615234375 91.35903930664063 157.0274658203125 89.73358154296875 160.68475341796875 86.88902282714844 160.68475341796875 86.88902282714844 " />
        <polyline stroke="black" stroke-width="3" stroke-linecap="round" fill="transparent" stroke-linejoin="round" points="111.51443481445313 38.531494140624986 99.323486328125 71.85348510742188 87.13253784179688 105.17547607421876 74.12884521484375 151.50115966796875 64.78240966796875 183.19769287109375 58.68695068359375 201.07778930664065 55.842376708984375 207.98602294921875 55.842376708984375 207.98602294921875 " />
        <polyline stroke="black" stroke-width="3" stroke-linecap="round" fill="transparent" stroke-linejoin="round" points="89.57070922851563 150.2820587158203 100.13623046875 151.90753173828125 110.70175170898438 153.5330047607422 122.486328125 156.37754821777344 146.8682861328125 164.91123962402344 159.05926513671875 170.19400024414063 182.22210693359375 181.9786071777344 192.78759765625 187.2613525390625 192.78759765625 187.2613525390625 " />
        <polyline stroke="black" stroke-width="3" stroke-linecap="round" fill="transparent" stroke-linejoin="round" points="152.15093994140625 87.29536437988281 161.091064453125 84.857177734375 170.03118896484375 82.41899108886719 178.97119140625 80.79351806640625 187.5048828125 79.98080444335938 201.7276611328125 80.38716125488281 207.41680908203125 81.19989013671875 211.48046875 82.41899108886719 216.76318359375 85.2635498046875 219.201416015625 89.73358154296875 217.16961669921875 100.29910278320313 205.385009765625 114.52188110351563 177.345703125 132.80833435058594 170.8438720703125 134.84017944335938 162.716552734375 136.05926513671875 161.90380859375 135.24655151367188 161.90380859375 134.84017944335938 165.967529296875 134.84017944335938 177.75213623046875 137.2783660888672 194.0067138671875 142.96749877929688 204.572265625 148.65660095214844 204.572265625 148.65660095214844 " />
        </svg>