<?xml version="1.0" standalone="no"?>
    <svg width="256" height="256" xmlns="http://www.w3.org/2000/svg" version="1.1">
    <polyline stroke="black" stroke-width="3" stroke-linecap="round" fill="transparent" stroke-linejoin="round" points="46.44036865234375 84.35655212402344 64.18893432617188 76.32742309570313 73.063232421875 72.524169921875 82.78271484375 69.14347839355469 101.79904174804688 63.22727966308594 117.85726928710938 59.42401123046875 131.37997436523438 57.31109619140625 143.63494873046875 54.77557373046875 143.63494873046875 54.77557373046875 " />
        <polyline stroke="black" stroke-width="3" stroke-linecap="round" fill="transparent" stroke-linejoin="round" points="113.63143920898438 16.320327758789063 105.602294921875 33.223724365234375 101.79904174804688 43.36577606201172 98.4183349609375 53.085235595703125 91.234375 75.48225402832031 81.51495361328125 108.02133178710938 78.13424682617188 119.00852966308594 71.37289428710938 138.44744873046875 63.766357421875 158.3089599609375 56.15985107421875 174.789794921875 46.86297607421875 193.80612182617188 46.86297607421875 193.80612182617188 " />
        <polyline stroke="black" stroke-width="3" stroke-linecap="round" fill="transparent" stroke-linejoin="round" points="102.22161865234376 111.40200805664063 114.4765625 121.96664428710938 129.26705932617188 135.91195678710938 155.0447998046875 159.57672119140625 162.22869873046875 165.91549682617188 174.0611572265625 174.789794921875 180.82244873046875 179.86080932617188 180.82244873046875 179.86080932617188 " />
        <polyline stroke="black" stroke-width="3" stroke-linecap="round" fill="transparent" stroke-linejoin="round" points="159.6932373046875 99.9921875 168.1448974609375 91.96310424804688 172.37078857421875 89.00498962402344 177.01922607421875 86.469482421875 186.31610107421875 83.08879089355469 193.5 80.97586059570313 196.0355224609375 80.97586059570313 198.99365234375 82.24362182617188 200.6839599609375 84.77912902832031 199.83880615234375 95.766357421875 194.34521484375 105.90841674804688 184.203125 113.9375 170.680419921875 122.38922119140624 170.680419921875 122.38922119140624 " />
        <polyline stroke="black" stroke-width="3" stroke-linecap="round" fill="transparent" stroke-linejoin="round" points="144.9027099609375 127.4602508544922 171.94818115234375 130.84092712402344 190.11932373046875 135.48936462402344 204.48724365234375 140.56039428710938 219.2777099609375 149.0120849609375 228.5745849609375 155.77346801757813 228.5745849609375 155.77346801757813 " />
        </svg>