<?xml version="1.0" standalone="no"?>
    <svg width="256" height="256" xmlns="http://www.w3.org/2000/svg" version="1.1">
    <polyline stroke="black" stroke-width="3" stroke-linecap="round" fill="transparent" stroke-linejoin="round" points="64.87744140625 108.77693176269527 81.34735107421875 102.1105499267578 97.8172607421875 95.44416809082033 109.97360229492188 89.56204223632813 113.89501953125 86.81706237792969 113.89501953125 86.81706237792969 " />
        <polyline stroke="black" stroke-width="3" stroke-linecap="round" fill="transparent" stroke-linejoin="round" points="83.70022583007813 52.7008056640625 80.56307983398438 82.11137390136719 77.42593383789063 111.52194213867188 74.680908203125 139.3639373779297 71.15170288085938 162.10809326171875 67.62237548828125 176.2251739501953 64.48526000976563 187.5972595214844 61.348175048828125 196.616455078125 59.779571533203125 199.36148071289065 59.779571533203125 199.36148071289065 " />
        <polyline stroke="black" stroke-width="3" stroke-linecap="round" fill="transparent" stroke-linejoin="round" points="102.13079833984376 147.20675659179688 113.89501953125 153.4810028076172 125.65924072265624 159.7552490234375 145.26629638671875 169.16664123535156 175.06903076171875 180.53872680664065 196.24462890625 186.0286865234375 204.87176513671875 187.20510864257813 204.87176513671875 187.20510864257813 " />
        <polyline stroke="black" stroke-width="3" stroke-linecap="round" fill="transparent" stroke-linejoin="round" points="148.01129150390625 82.50347900390625 154.67767333984375 81.32707214355469 161.34405517578125 80.15066528320313 167.2261962890625 80.15066528320313 171.53973388671875 81.32707214355469 172.7161865234375 85.64064025878906 168.79473876953125 97.01271057128906 163.3048095703125 111.52194213867188 158.59912109375 126.03114318847656 155.46197509765625 136.61895751953125 153.109130859375 144.0696258544922 153.109130859375 144.0696258544922 " />
        <polyline stroke="black" stroke-width="3" stroke-linecap="round" fill="transparent" stroke-linejoin="round" points="138.20770263671875 127.99185180664063 147.22695922851563 138.18751525878906 156.2462158203125 148.3831787109375 162.5205078125 156.22598266601563 165.2655029296875 159.36312866210938 165.2655029296875 159.36312866210938 " />
        </svg>