<?xml version="1.0" standalone="no"?>
    <svg width="256" height="256" xmlns="http://www.w3.org/2000/svg" version="1.1">
    <polyline stroke="black" stroke-width="3" stroke-linecap="round" fill="transparent" stroke-linejoin="round" points="71.7730712890625 81.19985961914063 70.553955078125 92.578125 69.3348388671875 103.95639038085938 67.70941162109375 116.14736938476563 64.05209350585938 142.96749877929688 62.4266357421875 155.97119140625 62.020263671875 164.50486755371094 62.8330078125 170.19400024414063 64.45846557617188 173.44491577148438 71.36666870117188 175.88311767578125 82.74493408203125 174.25765991210938 99.812255859375 165.31761169433594 111.19052124023438 156.78392028808594 111.19052124023438 156.78392028808594 " />
        <polyline stroke="black" stroke-width="3" stroke-linecap="round" fill="transparent" stroke-linejoin="round" points="184.74273681640625 87.70172119140624 166.0499267578125 92.578125 147.35711669921875 97.45452880859376 122.97515869140624 100.29910278320313 103.46957397460938 100.29910278320313 93.3104248046875 98.26725769042967 89.24676513671875 96.6417999267578 88.43405151367188 95.8290557861328 91.27862548828124 96.23542785644533 107.12689208984376 101.5181884765625 132.7279052734375 114.52188110351563 160.36077880859375 130.37014770507813 173.7708740234375 138.49746704101563 197.7464599609375 154.34573364257813 219.2838134765625 172.22581481933594 219.2838134765625 172.22581481933594 " />
        </svg>