<?xml version="1.0" standalone="no"?>
    <svg width="256" height="256" xmlns="http://www.w3.org/2000/svg" version="1.1">
    <polyline stroke="black" stroke-width="3" stroke-linecap="round" fill="transparent" stroke-linejoin="round" points="62.458740234375 69.23452758789063 65.51931762695313 87.59793090820313 66.13143920898438 96.16751098632813 66.13143920898438 102.9007568359375 66.13143920898438 106.5734405517578 67.35565185546875 101.67652893066406 72.86468505859375 91.88272094726563 84.49481201171875 77.19200134277344 102.85821533203124 60.66493225097656 128.5670166015625 42.91365051269531 156.112060546875 31.28350067138672 175.087646484375 28.835044860839844 190.39044189453125 33.73194885253906 198.96002197265625 42.301536560058594 208.1417236328125 66.17396545410156 205.6932373046875 94.3311767578125 191.61468505859375 118.81570434570313 173.8634033203125 133.5064239501953 173.8634033203125 133.5064239501953 " />
        <polyline stroke="black" stroke-width="3" stroke-linecap="round" fill="transparent" stroke-linejoin="round" points="132.851806640625 77.19200134277344 119.38531494140624 98.0038604736328 103.4703369140625 133.5064239501953 94.28863525390624 154.93038940429688 87.555419921875 173.90591430664063 83.27059936523438 189.82086181640625 82.04638671875 199.0025634765625 83.88272094726563 203.89947509765625 90.00384521484375 205.12368774414065 102.24612426757813 201.45101928710935 120.60952758789063 192.26931762695313 137.1365966796875 180.63916015625 150.60308837890625 167.78477478027344 161.62109375 152.48194885253906 164.68170166015625 142.07601928710938 163.45745849609375 135.3427734375 162.23321533203125 131.6700897216797 162.23321533203125 136.56700134277344 165.9058837890625 148.80926513671875 173.25128173828125 166.560546875 180.59661865234375 183.08761596679688 186.10565185546875 205.12368774414065 186.10565185546875 205.12368774414065 " />
        </svg>