<?xml version="1.0" standalone="no"?>
    <svg width="256" height="256" xmlns="http://www.w3.org/2000/svg" version="1.1">
    <polyline stroke="black" stroke-width="3" stroke-linecap="round" fill="transparent" stroke-linejoin="round" points="71.95046997070313 85.40177917480469 55.862457275390625 117.5778350830078 47.166229248046875 145.40577697753906 41.948516845703125 162.79823303222656 38.03521728515625 171.49447631835938 32.81744384765625 174.9729461669922 28.469329833984375 168.45077514648438 28.9041748046875 144.53614807128906 36.295928955078125 127.57850646972656 49.775115966796875 110.620849609375 70.64608764648438 94.09800720214844 99.7784423828125 78.44479370117188 128.91082763671875 65.83526611328125 158.91278076171875 54.96497344970703 181.52301025390625 48.87760162353515 194.5673828125 48.44279479980469 200.21990966796875 52.356101989746094 201.52435302734375 68.87895202636719 192.39324951171875 101.9246063232422 178.91412353515625 136.27471923828125 172.8267822265625 141.92726135253906 172.8267822265625 141.92726135253906 " />
        <polyline stroke="black" stroke-width="3" stroke-linecap="round" fill="transparent" stroke-linejoin="round" points="124.99749755859376 101.05499267578124 98.9088134765625 141.92726135253906 86.73410034179688 164.1026611328125 81.08151245117188 176.7122039794922 78.037841796875 184.10400390625 75.86380004882813 189.75656127929688 76.29861450195313 191.93060302734375 83.6904296875 190.62615966796875 99.3436279296875 184.538818359375 119.344970703125 176.7122039794922 137.17221069335938 171.49447631835938 150.6513671875 168.88558959960938 158.91278076171875 168.88558959960938 162.3912353515625 170.19004821777344 165.43499755859375 173.66851806640625 169.34832763671875 180.1906890869141 175.0008544921875 190.19134521484375 182.82745361328125 202.3660888671875 185.87115478515625 205.84457397460935 185.87115478515625 205.84457397460935 " />
        </svg>