<?xml version="1.0" standalone="no"?>
    <svg width="256" height="256" xmlns="http://www.w3.org/2000/svg" version="1.1">
    <polyline stroke="black" stroke-width="3" stroke-linecap="round" fill="transparent" stroke-linejoin="round" points="107 36 90 81 82 101 76 117 74 130 73 136 73 136 " />
        <polyline stroke="black" stroke-width="3" stroke-linecap="round" fill="transparent" stroke-linejoin="round" points="87 79 114 68 135 61 155 55 171 52 180 52 183 52 184 59 184 73 178 89 167 103 155 118 142 128 135 132 135 132 " />
        <polyline stroke="black" stroke-width="3" stroke-linecap="round" fill="transparent" stroke-linejoin="round" points="117 112 116 117 116 124 114 144 106 167 100 183 96 192 95 194 97 194 102 194 116 193 131 189 146 185 158 181 169 176 176 171 179 169 179 169 " />
        <polyline stroke="black" stroke-width="3" stroke-linecap="round" fill="transparent" stroke-linejoin="round" points="170 155 174 162 180 177 189 197 195 222 198 232 198 232 " />
        </svg>