<?xml version="1.0" standalone="no"?>
    <svg width="256" height="256" xmlns="http://www.w3.org/2000/svg" version="1.1">
    <polyline stroke="black" stroke-width="3" stroke-linecap="round" fill="transparent" stroke-linejoin="round" points="80.44525146484375 76.56924438476563 84.7391357421875 97.18002319335938 85.597900390625 102.7620849609375 86.45672607421875 110.49111938476563 86.45672607421875 114.35563659667967 86.02731323242188 114.7850341796875 86.02731323242188 114.7850341796875 " />
        <polyline stroke="black" stroke-width="3" stroke-linecap="round" fill="transparent" stroke-linejoin="round" points="82.16281127929688 78.71620178222656 95.47393798828124 68.8402099609375 101.914794921875 64.54629516601563 109.21444702148438 60.681793212890625 125.10189819335938 53.8115234375 140.55999755859375 49.088226318359375 154.30047607421875 47.37065887451172 164.17645263671875 48.22944641113281 171.0467529296875 51.23518371582031 172.7642822265625 52.95274353027344 175.77001953125 59.39361572265625 170.18792724609375 80.43376159667969 155.588623046875 98.03878784179688 155.588623046875 98.03878784179688 " />
        <polyline stroke="black" stroke-width="3" stroke-linecap="round" fill="transparent" stroke-linejoin="round" points="97.19149780273438 99.32696533203124 118.6610107421875 86.01583862304688 123.813720703125 83.43949890136719 134.11907958984375 79.57498168945313 147.00082397460938 75.28106689453125 150.00656127929688 73.99290466308594 150.00656127929688 73.99290466308594 " />
        <polyline stroke="black" stroke-width="3" stroke-linecap="round" fill="transparent" stroke-linejoin="round" points="144.42449951171875 61.96995544433594 136.26605224609375 78.71620178222656 130.6839599609375 86.8746337890625 123.38436889648438 94.1742706298828 114.7965087890625 100.61514282226563 107.496826171875 104.9090576171875 103.63232421875 107.05599975585938 102.34417724609376 107.4853973388672 103.20297241210938 107.05599975585938 110.93197631835938 104.9090576171875 117.37286376953124 103.19146728515624 137.55419921875 98.03878784179688 143.565673828125 96.7506103515625 156.44744873046875 93.31550598144533 158.5943603515625 92.88609313964844 158.5943603515625 92.88609313964844 " />
        <polyline stroke="black" stroke-width="3" stroke-linecap="round" fill="transparent" stroke-linejoin="round" points="56.39935302734375 141.83665466308594 72.7161865234375 134.96640014648438 83.45098876953125 131.10189819335938 105.779296875 123.3728485107422 125.960693359375 118.6495361328125 134.97787475585938 117.3613739013672 160.31195068359375 116.07321166992188 173.1937255859375 116.93199157714844 181.35211181640625 116.93199157714844 181.35211181640625 116.93199157714844 " />
        <polyline stroke="black" stroke-width="3" stroke-linecap="round" fill="transparent" stroke-linejoin="round" points="144.42449951171875 149.13629150390625 140.98934936523438 159.87107849121094 139.27178955078125 165.45315551757813 137.12484741210938 171.03524780273438 132.83090209960938 179.623046875 128.53704833984375 184.7757568359375 126.39007568359376 186.49331665039065 123.813720703125 187.781494140625 123.813720703125 187.781494140625 " />
        <polyline stroke="black" stroke-width="3" stroke-linecap="round" fill="transparent" stroke-linejoin="round" points="85.597900390625 153.85960388183594 80.01583862304688 169.3176727294922 78.7276611328125 175.3291473388672 78.29827880859375 180.9112243652344 78.7276611328125 185.634521484375 82.59222412109375 193.36358642578125 92.46820068359376 198.08685302734375 110.07321166992188 199.804443359375 131.11337280273438 196.36929321289065 150.00656127929688 191.21661376953125 157.735595703125 188.21087646484375 174.48187255859375 180.05242919921875 179.634521484375 177.04672241210938 182.6402587890625 175.3291473388672 183.928466796875 174.47036743164063 184.7872314453125 174.47036743164063 186.07537841796875 177.04672241210938 188.6517333984375 185.634521484375 192.51629638671875 205.81591796875 192.51629638671875 205.81591796875 " />
        </svg>