<?xml version="1.0" standalone="no"?>
    <svg width="256" height="256" xmlns="http://www.w3.org/2000/svg" version="1.1">
    <polyline stroke="black" stroke-width="3" stroke-linecap="round" fill="transparent" stroke-linejoin="round" points="95 44 97 55 97 73 97 86 97 104 97 113 97 113 " />
        <polyline stroke="black" stroke-width="3" stroke-linecap="round" fill="transparent" stroke-linejoin="round" points="89 52 103 50 109 50 131 50 139 49 154 48 168 48 178 48 183 48 184 48 185 48 185 55 185 69 185 87 181 101 180 108 178 111 178 111 " />
        <polyline stroke="black" stroke-width="3" stroke-linecap="round" fill="transparent" stroke-linejoin="round" points="145 36 144 43 144 58 140 78 138 95 137 101 137 108 137 108 " />
        <polyline stroke="black" stroke-width="3" stroke-linecap="round" fill="transparent" stroke-linejoin="round" points="96 81 97 80 104 80 110 80 127 80 141 80 156 80 167 80 174 80 177 81 178 82 178 82 " />
        <polyline stroke="black" stroke-width="3" stroke-linecap="round" fill="transparent" stroke-linejoin="round" points="90 113 94 114 107 114 124 114 142 114 151 114 166 114 178 114 181 114 181 114 " />
        <polyline stroke="black" stroke-width="3" stroke-linecap="round" fill="transparent" stroke-linejoin="round" points="43 143 58 141 78 141 102 141 128 141 140 141 163 141 183 141 199 144 210 145 215 146 217 146 217 146 " />
        <polyline stroke="black" stroke-width="3" stroke-linecap="round" fill="transparent" stroke-linejoin="round" points="144 144 144 149 144 162 143 171 140 188 137 205 134 218 134 227 134 230 134 230 " />
        <polyline stroke="black" stroke-width="3" stroke-linecap="round" fill="transparent" stroke-linejoin="round" points="102 163 103 176 103 181 103 186 103 196 100 205 97 208 95 211 95 212 97 212 106 212 119 213 135 214 151 215 166 216 177 217 184 217 186 217 188 217 188 217 " />
        <polyline stroke="black" stroke-width="3" stroke-linecap="round" fill="transparent" stroke-linejoin="round" points="202 173 202 176 202 186 200 201 198 217 196 223 194 230 193 233 193 233 " />
        </svg>