<?xml version="1.0" standalone="no"?>
    <svg width="256" height="256" xmlns="http://www.w3.org/2000/svg" version="1.1">
    <polyline stroke="black" stroke-width="3" stroke-linecap="round" fill="transparent" stroke-linejoin="round" points="72 65 72 69 72 81 72 94 71 107 70 121 70 133 69 144 69 154 69 162 69 173 70 176 70 179 70 181 71 181 " />
        <polyline stroke="black" stroke-width="3" stroke-linecap="round" fill="transparent" stroke-linejoin="round" points="75 77 75 77 78 73 85 68 90 64 95 60 100 57 107 55 114 53 121 53 129 53 137 55 148 59 155 62 160 66 165 70 169 76 172 84 174 93 176 103 177 118 177 127 176 137 176 141 173 153 172 156 171 159 " />
        <polyline stroke="black" stroke-width="3" stroke-linecap="round" fill="transparent" stroke-linejoin="round" points="116 101 115 100 114 98 114 98 113 98 111 101 110 105 107 113 106 118 105 124 105 129 104 133 104 136 104 138 104 139 104 140 105 141 106 141 108 141 111 139 115 137 120 133 125 129 130 125 135 120 138 118 140 117 142 117 143 117 145 117 146 118 147 120 149 122 151 125 152 127 153 128 154 130 155 131 156 133 156 137 156 139 " />
        <polyline stroke="black" stroke-width="3" stroke-linecap="round" fill="transparent" stroke-linejoin="round" points="82 183 81 183 80 183 80 182 81 181 84 180 88 178 93 176 102 173 110 172 119 171 128 170 138 170 147 170 155 170 164 172 172 174 180 177 183 179 " />
        </svg>