<?xml version="1.0" standalone="no"?>
    <svg width="256" height="256" xmlns="http://www.w3.org/2000/svg" version="1.1">
    <polyline stroke="black" stroke-width="3" stroke-linecap="round" fill="transparent" stroke-linejoin="round" points="103.5947265625 52.99797821044922 116.84539794921876 50.78953552246094 123.029052734375 49.02278137207031 129.212646484375 47.25602722167969 157.0390625 40.18901062011719 164.54779052734375 38.4222412109375 187.073974609375 34.447044372558594 200.76629638671875 32.68029022216797 214.90032958984375 31.355224609375 219.3172607421875 31.355224609375 220.20062255859375 31.796905517578125 220.20062255859375 31.796905517578125 " />
        <polyline stroke="black" stroke-width="3" stroke-linecap="round" fill="transparent" stroke-linejoin="round" points="116.84539794921876 89.65817260742188 116.84539794921876 101.14207458496094 116.84539794921876 109.9758758544922 115.52032470703124 131.61862182617188 114.19525146484376 143.54421997070313 108.0115966796875 176.6708984375 103.5947265625 189.92156982421875 100.06121826171876 198.75537109375 97.41107177734376 204.05560302734375 96.08602905273438 205.8223876953125 95.644287109375 206.2640686035156 95.644287109375 206.2640686035156 " />
        <polyline stroke="black" stroke-width="3" stroke-linecap="round" fill="transparent" stroke-linejoin="round" points="119.0538330078125 116.6011962890625 127.4459228515625 106.884033203125 130.97943115234375 103.35055541992188 135.39633178710938 100.25871276855467 140.69662475585938 96.72518920898438 152.1805419921875 90.98324584960938 164.54779052734375 87.00802612304688 176.91510009765625 85.68296813964844 188.3990478515625 87.00802612304688 197.67449951171875 90.5415496826172 203.41644287109375 95.40013122558594 210.041748046875 110.41754150390624 211.3668212890625 136.03550720214844 207.3916015625 162.53684997558594 200.76629638671875 185.50469970703125 194.5826416015625 202.28887939453125 190.165771484375 212.00601196289065 186.63226318359375 217.3062744140625 185.30718994140625 218.63134765625 179.12353515625 219.5147399902344 168.52301025390625 214.6561584472656 155.2723388671875 208.03082275390625 155.2723388671875 208.03082275390625 " />
        <polyline stroke="black" stroke-width="3" stroke-linecap="round" fill="transparent" stroke-linejoin="round" points="75.768310546875 159.0033416748047 87.252197265625 153.26138305664063 96.08602905273438 150.1695556640625 106.244873046875 147.07774353027344 116.84539794921876 144.4276123046875 139.813232421875 141.77749633789063 166.7562255859375 140.8940887451172 198.11614990234375 140.8940887451172 226.38427734375 140.8940887451172 245.818603515625 140.8940887451172 257.74420166015625 140.8940887451172 261.7193603515625 141.77749633789063 265.2529296875 143.98590087890625 265.2529296875 143.98590087890625 " />
        </svg>