<?xml version="1.0" standalone="no"?>
    <svg width="256" height="256" xmlns="http://www.w3.org/2000/svg" version="1.1">
    <polyline stroke="black" stroke-width="3" stroke-linecap="round" fill="transparent" stroke-linejoin="round" points="59.44927978515625 97.199951171875 79.59326171875 85.44927978515625 100.57659912109376 76.63627624511719 111.4879150390625 72.43960571289063 151.77587890625 58.17095947265625 158.4906005859375 56.07261657714844 166.8839111328125 53.97428894042969 170.660888671875 53.97428894042969 170.660888671875 53.97428894042969 " />
        <polyline stroke="black" stroke-width="3" stroke-linecap="round" fill="transparent" stroke-linejoin="round" points="114.00595092773438 97.199951171875 107.291259765625 127.83560180664063 106.0322265625 140.4255828857422 102.2552490234375 178.195556640625 101.83563232421876 188.267578125 99.31759643554688 210.0902099609375 96.799560546875 218.9032287597656 95.12094116210938 221.0015563964844 94.28158569335938 220.58187866210935 94.28158569335938 220.58187866210935 " />
        <polyline stroke="black" stroke-width="3" stroke-linecap="round" fill="transparent" stroke-linejoin="round" points="114.84521484375 135.38958740234375 121.14022827148438 126.15692138671876 124.917236328125 121.9602508544922 129.9532470703125 117.34393310546876 140.44491577148438 109.37026977539063 145.90057373046875 106.012939453125 160.16925048828125 101.81626892089844 166.8839111328125 104.3342742919922 172.75921630859375 113.1472625732422 178.21490478515625 133.71092224121094 179.05419921875 165.60557556152344 176.9559326171875 196.2412109375 174.01824951171875 213.44757080078125 169.821533203125 221.0015563964844 167.3035888671875 222.26055908203125 156.39227294921875 220.58187866210935 156.39227294921875 220.58187866210935 " />
        <polyline stroke="black" stroke-width="3" stroke-linecap="round" fill="transparent" stroke-linejoin="round" points="48.957611083984375 171.06124877929688 68.68197631835938 161.40890502929688 80.85226440429688 157.21224975585938 95.12094116210938 153.43524169921875 122.81893920898438 148.81890869140625 149.67758178710938 146.7205810546875 173.17889404296875 146.3009033203125 193.7425537109375 146.7205810546875 205.0736083984375 147.97958374023438 213.0472412109375 150.07791137695313 213.0472412109375 150.07791137695313 " />
        </svg>