<?xml version="1.0" standalone="no"?>
    <svg width="256" height="256" xmlns="http://www.w3.org/2000/svg" version="1.1">
    <polyline stroke="black" stroke-width="3" stroke-linecap="round" fill="transparent" stroke-linejoin="round" points="106.01287841796876 98.30471801757813 126.08721923828124 93.2861328125 140.02774047851563 89.38279724121094 153.41064453125 86.03707885742188 160.65966796875 84.36421203613281 163.44781494140625 85.47944641113281 163.44781494140625 85.47944641113281 " />
        <polyline stroke="black" stroke-width="3" stroke-linecap="round" fill="transparent" stroke-linejoin="round" points="64.19134521484375 156.85487365722656 84.26568603515625 151.83628845214844 110.47384643554688 145.7024688720703 132.7786865234375 141.2415008544922 155.08349609375 136.78053283691406 170.6968994140625 133.434814453125 179.0611572265625 130.64671325683594 179.0611572265625 130.64671325683594 " />
        <polyline stroke="black" stroke-width="3" stroke-linecap="round" fill="transparent" stroke-linejoin="round" points="115.492431640625 78.23039245605469 111.03146362304688 103.88093566894533 107.68572998046876 128.41622924804688 106.57049560546876 147.93295288085938 107.12811279296876 164.66156005859375 109.91622924804688 178.04444885253906 114.377197265625 187.52398681640625 121.62625122070313 195.3306884765625 137.7972412109375 202.02212524414065 155.64111328125 204.25262451171875 170.6968994140625 203.13735961914065 182.9644775390625 198.1187744140625 189.65594482421875 190.8697204589844 196.905029296875 176.37158203125 198.020263671875 166.3344268798828 193.001708984375 155.1820068359375 193.001708984375 155.1820068359375 " />
        </svg>