<?xml version="1.0" standalone="no"?>
    <svg width="256" height="256" xmlns="http://www.w3.org/2000/svg" version="1.1">
    <polyline stroke="black" stroke-width="3" stroke-linecap="round" fill="transparent" stroke-linejoin="round" points="102.48056030273438 88.94383239746094 118.90341186523438 83.19583129882813 127.11483764648438 80.73240661621094 147.2327880859375 77.85841369628906 158.728759765625 76.21612548828125 166.940185546875 75.39498901367188 170.6353759765625 74.98440551757813 176.7939453125 74.98440551757813 176.7939453125 74.98440551757813 " />
        <polyline stroke="black" stroke-width="3" stroke-linecap="round" fill="transparent" stroke-linejoin="round" points="111.1025390625 175.98486328125 118.90341186523438 173.1108856201172 134.09454345703125 167.77346801757813 146.00106811523438 164.07830810546875 150.92791748046875 162.43603515625 158.728759765625 159.97259521484375 158.728759765625 159.97259521484375 " />
        <polyline stroke="black" stroke-width="3" stroke-linecap="round" fill="transparent" stroke-linejoin="round" points="131.631103515625 67.18356323242188 129.98883056640625 84.83811950683594 128.757080078125 95.10238647460938 125.4725341796875 118.91551208496094 123.83026123046876 130.00091552734375 119.72454833984376 166.541748046875 118.49285888671876 176.80601501464844 117.2611083984375 203.9037170410156 117.2611083984375 210.47283935546875 118.082275390625 224.4322509765625 120.13510131835938 229.76968383789065 121.77740478515624 231.00140380859375 127.93597412109376 233.05426025390625 145.179931640625 231.00140380859375 157.0865478515625 226.07452392578125 166.940185546875 221.55825805664065 174.33050537109375 218.273681640625 179.66790771484375 215.39968872070313 183.363037109375 212.936279296875 185.82647705078125 210.8834228515625 187.46875 208.0093994140625 187.87933349609375 198.5662841796875 186.64764404296875 186.65972900390625 186.64764404296875 186.65972900390625 " />
        </svg>