<?xml version="1.0" standalone="no"?>
    <svg width="256" height="256" xmlns="http://www.w3.org/2000/svg" version="1.1">
    <polyline stroke="black" stroke-width="3" stroke-linecap="round" fill="transparent" stroke-linejoin="round" points="101.24887084960938 81.14297485351563 115.61883544921876 78.26898193359375 129.98883056640625 75.80555725097656 142.71652221679688 74.16326904296875 153.391357421875 72.93156433105469 157.4970703125 72.52099609375 166.5296630859375 71.69984436035156 168.9930419921875 71.28927612304688 168.9930419921875 71.28927612304688 " />
        <polyline stroke="black" stroke-width="3" stroke-linecap="round" fill="transparent" stroke-linejoin="round" points="108.63912963867188 121.37893676757813 123.83026123046876 117.68380737304688 136.968505859375 114.80979919433594 149.69622802734375 113.1675262451172 156.67596435546875 111.52523803710938 156.67596435546875 111.52523803710938 " />
        <polyline stroke="black" stroke-width="3" stroke-linecap="round" fill="transparent" stroke-linejoin="round" points="129.16766357421875 64.3095703125 126.29367065429688 83.60641479492188 122.59857177734376 107.83010864257813 118.90341186523438 135.33836364746094 117.2611083984375 158.330322265625 117.67172241210938 177.2165985107422 118.90341186523438 185.83859252929688 124.24081420898438 201.85086059570313 129.16766357421875 207.59884643554688 136.55795288085938 211.70455932617188 146.00106811523438 214.16796875 155.03363037109375 214.57855224609375 159.13934326171875 214.16796875 166.11907958984375 212.52569580078125 175.151611328125 208.41998291015625 179.66790771484375 205.5459899902344 182.9525146484375 202.26141357421875 185.4158935546875 197.74514770507813 187.87933349609375 188.302001953125 189.93218994140625 174.75315856933594 189.93218994140625 174.75315856933594 " />
        </svg>