<?xml version="1.0" standalone="no"?>
    <svg width="256" height="256" xmlns="http://www.w3.org/2000/svg" version="1.1">
    <polyline stroke="black" stroke-width="3" stroke-linecap="round" fill="transparent" stroke-linejoin="round" points="97.51708984375 84.83811950683594 105.72848510742188 83.19583129882813 123.79364013671876 79.09011840820313 151.71240234375 75.80555725097656 165.26123046875 74.5738525390625 173.47265625 73.34213256835938 175.52557373046875 73.34213256835938 175.52557373046875 73.34213256835938 " />
        <polyline stroke="black" stroke-width="3" stroke-linecap="round" fill="transparent" stroke-linejoin="round" points="95.05364990234376 132.87493896484375 103.26507568359376 130.00091552734375 113.11874389648438 127.53750610351563 143.09042358398438 122.6106414794922 161.15557861328125 121.37893676757813 169.366943359375 120.55780029296876 169.366943359375 120.55780029296876 " />
        <polyline stroke="black" stroke-width="3" stroke-linecap="round" fill="transparent" stroke-linejoin="round" points="120.09848022460938 52.40300750732422 119.68792724609376 61.024993896484375 118.86676025390624 71.28927612304688 116.4033203125 107.41952514648438 115.99276733398438 120.55780029296876 115.99276733398438 140.26519775390625 116.81390380859376 156.6880340576172 119.27731323242188 175.98486328125 120.509033203125 181.32229614257813 127.07818603515624 192.40771484375 135.70016479492188 197.3345642089844 147.606689453125 201.02972412109375 158.2816162109375 201.85086059570313 166.903564453125 201.02972412109375 173.88330078125 198.5662841796875 178.3995361328125 195.28170776367188 181.68408203125 190.76544189453125 183.73699951171875 183.37515258789065 182.91583251953125 173.9320068359375 182.91583251953125 173.9320068359375 " />
        </svg>