<?xml version="1.0" standalone="no"?>
    <svg width="256" height="256" xmlns="http://www.w3.org/2000/svg" version="1.1">
    <polyline stroke="black" stroke-width="3" stroke-linecap="round" fill="transparent" stroke-linejoin="round" points="100.01715087890624 80.73240661621094 113.9765625 74.5738525390625 129.16766357421875 69.23641967773438 141.89535522460938 66.77299499511719 153.80194091796875 65.13070678710938 163.6556396484375 63.89900207519531 169.814208984375 63.488433837890625 171.8670654296875 63.077850341796875 171.8670654296875 63.077850341796875 " />
        <polyline stroke="black" stroke-width="3" stroke-linecap="round" fill="transparent" stroke-linejoin="round" points="99.19601440429688 120.147216796875 115.61883544921876 116.45208740234376 132.86279296875 113.57809448242188 148.46453857421875 111.52523803710938 161.1922607421875 109.47239685058594 168.9930419921875 107.41952514648438 168.9930419921875 107.41952514648438 " />
        <polyline stroke="black" stroke-width="3" stroke-linecap="round" fill="transparent" stroke-linejoin="round" points="124.6513671875 49.93959045410156 120.13510131835938 70.05755615234375 117.2611083984375 81.14297485351563 112.74484252929688 102.90324401855467 109.46029663085938 122.2000732421875 106.58627319335938 139.85464477539063 105.35458374023438 155.86691284179688 105.76513671875 167.77346801757813 107.8179931640625 178.85887145996094 112.334228515625 187.4808654785156 119.31396484375 193.63943481445313 125.4725341796875 196.513427734375 146.00106811523438 198.97686767578125 158.728759765625 196.92401123046875 167.7613525390625 194.4605712890625 171.0458984375 193.2288818359375 177.61505126953125 188.71258544921875 180.0784912109375 185.0174560546875 182.13134765625 179.68002319335938 181.3101806640625 167.36288452148438 181.3101806640625 167.36288452148438 " />
        </svg>