<?xml version="1.0" standalone="no"?>
    <svg width="256" height="256" xmlns="http://www.w3.org/2000/svg" version="1.1">
    <polyline stroke="black" stroke-width="3" stroke-linecap="round" fill="transparent" stroke-linejoin="round" points="68.813720703125 94.28125 90.57403564453124 88.53326416015625 114.38714599609376 83.19583129882813 126.29367065429688 81.14297485351563 157.4970703125 77.44784545898438 165.2979736328125 77.03726196289063 165.2979736328125 77.03726196289063 " />
        <polyline stroke="black" stroke-width="3" stroke-linecap="round" fill="transparent" stroke-linejoin="round" points="80.30975341796875 150.52947998046875 88.93173217773438 148.0660400390625 119.72454833984376 141.907470703125 139.43197631835938 139.85464477539063 155.85479736328125 138.21234130859375 162.83447265625 135.74893188476563 162.83447265625 135.74893188476563 " />
        <polyline stroke="black" stroke-width="3" stroke-linecap="round" fill="transparent" stroke-linejoin="round" points="114.79769897460938 42.13873291015625 112.74484252929688 52.81358337402344 107.8179931640625 80.32183837890625 103.30169677734376 123.84237670898438 103.30169677734376 150.118896484375 105.76513671875 170.64744567871094 109.04974365234376 187.89144897460935 111.1025390625 194.87115478515625 115.208251953125 205.95654296875 122.59857177734376 214.9891357421875 132.86279296875 219.0948486328125 144.35882568359375 219.91598510742188 155.4442138671875 218.273681640625 165.2979736328125 214.57855224609375 173.0987548828125 209.24114990234375 178.43621826171875 203.49313354492188 183.363037109375 194.87115478515625 184.5947265625 189.53372192382813 185.00531005859375 182.1434326171875 185.00531005859375 182.1434326171875 " />
        </svg>