<?xml version="1.0" standalone="no"?>
    <svg width="256" height="256" xmlns="http://www.w3.org/2000/svg" version="1.1">
    <polyline stroke="black" stroke-width="3" stroke-linecap="round" fill="transparent" stroke-linejoin="round" points="109.80010986328124 102.66667175292967 119.4000244140625 97.33334350585938 134.3333740234375 92.00001525878906 140.7333984375 92.00001525878906 143.933349609375 92.00001525878906 143.933349609375 92.00001525878906 " />
        <polyline stroke="black" stroke-width="3" stroke-linecap="round" fill="transparent" stroke-linejoin="round" points="106.60003662109376 142.1333465576172 119.4000244140625 135.73338317871094 130.0667724609375 131.4666748046875 137.533447265625 129.33334350585938 140.7333984375 128.26669311523438 139.666748046875 128.26669311523438 139.666748046875 128.26669311523438 " />
        <polyline stroke="black" stroke-width="3" stroke-linecap="round" fill="transparent" stroke-linejoin="round" points="105.53338623046876 118.66667175292967 109.80010986328124 148.53334045410156 115.1334228515625 172.00001525878906 119.4000244140625 188 122.60003662109376 196.53335571289065 126.86669921875 202.933349609375 132.2000732421875 206.13336181640625 138.60009765625 207.20001220703125 150.3333740234375 205.06671142578125 159.933349609375 201.86666870117188 170.60009765625 199.73336791992188 180.2000732421875 197.6000061035156 189.8001708984375 196.53335571289065 197.2667236328125 195.4666748046875 205.800048828125 194.40005493164065 210.0667724609375 193.33334350585935 213.2667236328125 193.33334350585935 215.4000244140625 192.2666931152344 217.533447265625 189.06671142578125 217.533447265625 181.60003662109375 215.4000244140625 164.53334045410156 215.4000244140625 164.53334045410156 " />
        </svg>