<?xml version="1.0" standalone="no"?>
    <svg width="256" height="256" xmlns="http://www.w3.org/2000/svg" version="1.1">
    <polyline stroke="black" stroke-width="3" stroke-linecap="round" fill="transparent" stroke-linejoin="round" points="67.55972290039063 121.10317993164063 94.27230834960938 113.05722045898438 127.42172241210938 103.40206909179688 151.5595703125 97.93080139160156 172.80096435546875 94.39059448242188 188.57110595703125 92.78138732910156 199.5135498046875 92.78138732910156 207.2376708984375 93.42506408691406 209.49053955078125 95.35610961914063 209.49053955078125 95.35610961914063 " />
        <polyline stroke="black" stroke-width="3" stroke-linecap="round" fill="transparent" stroke-linejoin="round" points="99.74359130859376 84.09173583984375 100.38726806640624 106.94229125976563 101.99642944335938 128.50547790527344 103.927490234375 146.20660400390625 104.5711669921875 158.1146240234375 104.89297485351563 166.80429077148438 105.21481323242188 173.8847198486328 105.21481323242188 176.45945739746094 105.21481323242188 176.45945739746094 " />
        <polyline stroke="black" stroke-width="3" stroke-linecap="round" fill="transparent" stroke-linejoin="round" points="171.19171142578125 82.16070556640625 170.54803466796875 104.68942260742188 169.2607421875 125.93077087402344 167.6514892578125 145.24107360839844 166.68603515625 162.29852294921875 166.3641357421875 173.56289672851563 166.3641357421875 178.3904571533203 166.3641357421875 178.3904571533203 " />
        <polyline stroke="black" stroke-width="3" stroke-linecap="round" fill="transparent" stroke-linejoin="round" points="113.26080322265624 187.08010864257813 124.20330810546876 186.11456298828125 134.1802978515625 185.79275512695313 141.9044189453125 185.47091674804688 148.66305541992188 185.47091674804688 156.38720703125 186.11456298828125 159.6055908203125 186.75830078125 159.6055908203125 186.75830078125 " />
        </svg>