<?xml version="1.0" standalone="no"?>
    <svg width="256" height="256" xmlns="http://www.w3.org/2000/svg" version="1.1">
    <polyline stroke="black" stroke-width="3" stroke-linecap="round" fill="transparent" stroke-linejoin="round" points="57.58782958984375 123.26785278320313 83.27618408203125 117.39625549316406 111.90032958984376 111.5246124267578 141.9921875 107.8548583984375 177.9559326171875 102.71722412109376 189.6990966796875 100.5153350830078 194.102783203125 99.78138732910156 196.3046875 99.04747009277344 190.43310546875 99.04747009277344 190.43310546875 99.04747009277344 " />
        <polyline stroke="black" stroke-width="3" stroke-linecap="round" fill="transparent" stroke-linejoin="round" points="75.9366455078125 85.83631896972656 75.9366455078125 111.5246124267578 76.6705322265625 138.68081665039063 78.13848876953125 169.5067901611328 79.60638427734375 182.71792602539065 80.34033203125 190.7914123535156 81.8082275390625 192.9932556152344 82.542236328125 191.52532958984375 82.542236328125 191.52532958984375 " />
        <polyline stroke="black" stroke-width="3" stroke-linecap="round" fill="transparent" stroke-linejoin="round" points="161.8089599609375 80.69866943359375 161.074951171875 106.38699340820313 161.074951171875 130.60736083984375 162.5428466796875 149.69009399414063 166.212646484375 168.0388946533203 166.9466552734375 172.442626953125 166.9466552734375 172.442626953125 " />
        <polyline stroke="black" stroke-width="3" stroke-linecap="round" fill="transparent" stroke-linejoin="round" points="109.69842529296876 161.433349609375 128.04718017578125 158.49752807617188 148.597900390625 157.0296173095703 164.7447509765625 157.0296173095703 172.0843505859375 157.0296173095703 172.0843505859375 157.0296173095703 " />
        </svg>