<?xml version="1.0" standalone="no"?>
    <svg width="256" height="256" xmlns="http://www.w3.org/2000/svg" version="1.1">
    <polyline stroke="black" stroke-width="3" stroke-linecap="round" fill="transparent" stroke-linejoin="round" points="61.20751953125 112.08367919921876 70.1475830078125 108.4263916015625 79.90036010742188 104.76910400390624 90.05950927734375 101.11181640625 111.19052124023438 95.01632690429688 120.94329833984376 92.578125 140.4488525390625 88.92083740234375 155.484375 85.669921875 165.6435546875 81.19989013671875 168.08172607421875 78.76170349121094 168.08172607421875 78.76170349121094 " />
        <polyline stroke="black" stroke-width="3" stroke-linecap="round" fill="transparent" stroke-linejoin="round" points="96.56137084960938 66.97709655761719 90.87225341796876 88.10812377929688 88.84042358398438 99.08000183105467 87.21493530273438 109.23912048339844 86.80859375 132.4019775390625 90.46588134765624 141.74839782714844 96.96771240234376 148.250244140625 109.15869140625 153.5330047607422 123.38153076171876 155.5648193359375 138.01068115234375 152.31390380859375 144.51254272460938 147.4375 144.51254272460938 147.4375 " />
        <polyline stroke="black" stroke-width="3" stroke-linecap="round" fill="transparent" stroke-linejoin="round" points="137.19793701171875 68.19619750976563 137.60433959960938 77.948974609375 138.4169921875 88.92083740234375 140.04248046875 110.45823669433594 142.07431030273438 132.80833435058594 142.07431030273438 147.03115844726563 142.07431030273438 147.03115844726563 " />
        </svg>