<?xml version="1.0" standalone="no"?>
    <svg width="256" height="256" xmlns="http://www.w3.org/2000/svg" version="1.1">
    <polyline stroke="black" stroke-width="3" stroke-linecap="round" fill="transparent" stroke-linejoin="round" points="26.899322509765625 125.03878784179688 27.298980712890625 140.22634887695313 26.899322509765625 149.0191650390625 24.10162353515625 171.800537109375 20.1048583984375 192.18386840820313 16.108123779296875 205.772705078125 10.912384033203123 216.96359252929688 5.316986083984375 224.557373046875 5.316986083984375 224.557373046875 " />
        <polyline stroke="black" stroke-width="3" stroke-linecap="round" fill="transparent" stroke-linejoin="round" points="47.28265380859375 95.46298217773438 56.075439453125 90.2672119140625 64.86822509765625 85.87083435058594 72.0623779296875 82.27378845214844 80.05584716796875 78.67671203613281 86.45059204101563 76.2786865234375 90.44732666015624 75.07965087890625 91.6463623046875 75.47933959960938 92.4456787109375 78.67671203613281 91.24667358398438 87.86920166015625 88.448974609375 100.25906372070313 85.2515869140625 116.64566040039063 83.25323486328125 137.0289764404297 84.45223999023438 159.81033325195313 90.44732666015624 181.3926696777344 99.2401123046875 200.57696533203125 111.62997436523438 216.56390380859375 126.81759643554688 232.95046997070313 140.80612182617188 242.54263305664065 157.59234619140625 246.13970947265625 172.3802490234375 242.94232177734375 187.168212890625 236.14788818359375 199.55804443359375 229.3534240722656 208.35089111328125 223.75802612304688 213.14697265625 220.5606384277344 215.94464111328125 217.36325073242188 217.94305419921875 212.96685791015625 216.74395751953125 204.17404174804688 213.14697265625 191.78421020507813 205.5531005859375 167.00445556640625 205.5531005859375 167.00445556640625 " />
        <polyline stroke="black" stroke-width="3" stroke-linecap="round" fill="transparent" stroke-linejoin="round" points="76.05911254882813 165.805419921875 77.25808715820313 170.6015167236328 77.65780639648438 173.79888916015625 77.65780639648438 173.79888916015625 " />
        <polyline stroke="black" stroke-width="3" stroke-linecap="round" fill="transparent" stroke-linejoin="round" points="60.87152099609375 186.98809814453125 67.66595458984375 192.98321533203125 74.46041870117188 198.57861328125 77.65780639648438 199.77761840820313 77.65780639648438 199.77761840820313 " />
        <polyline stroke="black" stroke-width="3" stroke-linecap="round" fill="transparent" stroke-linejoin="round" points="112.4293212890625 138.2279815673828 113.62832641601563 148.21983337402344 114.42767333984376 155.8135986328125 115.22702026367188 163.00770568847656 116.0263671875 168.20347595214844 116.0263671875 170.6015167236328 116.0263671875 171.40086364746094 116.0263671875 171.800537109375 116.0263671875 172.20021057128906 119.6234130859375 171.800537109375 126.41790771484376 170.20184326171875 136.40972900390625 169.40249633789063 147.60055541992188 169.40249633789063 159.99041748046875 170.6015167236328 169.58258056640625 173.3992156982422 179.97406005859375 177.79562377929688 188.76690673828125 181.79234313964844 195.96099853515625 184.98971557617188 200.757080078125 186.18875122070313 201.95611572265625 184.98971557617188 201.95611572265625 184.98971557617188 " />
        <polyline stroke="black" stroke-width="3" stroke-linecap="round" fill="transparent" stroke-linejoin="round" points="130.81430053710938 93.06495666503906 142.40481567382813 90.2672119140625 156.39337158203125 87.86920166015625 164.7864990234375 85.87083435058594 173.97894287109375 84.67181396484375 181.57275390625 84.27212524414063 186.36883544921875 84.67181396484375 188.3671875 85.87083435058594 189.56622314453125 89.46788024902344 188.3671875 102.6571044921875 185.1697998046875 122.6407470703125 183.17144775390625 147.82015991210938 181.97247314453125 172.59988403320313 181.173095703125 185.7890625 180.7734375 188.1871032714844 180.7734375 188.1871032714844 " />
        <polyline stroke="black" stroke-width="3" stroke-linecap="round" fill="transparent" stroke-linejoin="round" points="149.59890747070313 118.24435424804688 146.40155029296875 135.43028259277344 143.20416259765625 148.21983337402344 139.20742797851563 157.8119659423828 136.40972900390625 160.60968017578125 136.40972900390625 160.60968017578125 " />
        <polyline stroke="black" stroke-width="3" stroke-linecap="round" fill="transparent" stroke-linejoin="round" points="108.43258666992188 136.62930297851563 136.80938720703125 129.83486938476563 163.58746337890625 125.43844604492188 187.56787109375 123.44009399414063 206.752197265625 122.6407470703125 220.74066162109375 123.83975219726563 231.13214111328125 125.83811950683594 231.13214111328125 125.83811950683594 " />
        </svg>