<?xml version="1.0" standalone="no"?>
    <svg width="256" height="256" xmlns="http://www.w3.org/2000/svg" version="1.1">
    <polyline stroke="black" stroke-width="3" stroke-linecap="round" fill="transparent" stroke-linejoin="round" points="35.138641357421875 109.28366088867188 36.23944091796875 123.4888916015625 37.379608154296875 153.83059692382813 37.3004150390625 168.97056579589844 35.6353759765625 194.61175537109375 34.6605224609375 205.151123046875 32.578216552734375 221.3563232421875 30.928192138671875 228.20883178710935 30.76318359375 228.89407348632813 " />
        <polyline stroke="black" stroke-width="3" stroke-linecap="round" fill="transparent" stroke-linejoin="round" points="63.397796630859375 77.61358642578125 81.62255859375 70.75518798828125 93.19171142578124 67.28140258789063 96.54876708984376 66.82470703125 98.6458740234375 67.139404296875 99.61126708984376 69.56387329101563 104.04208374023438 72.07766723632813 103.73593139648438 78.00502014160156 101.05340576171876 94.19618225097656 99.471435546875 103.8284912109375 96.06451416015624 120.98504638671876 94.1270751953125 131.18692016601563 91.05120849609376 150.02755737304688 90.3568115234375 157.51971435546875 90.98822021484376 176.0234832763672 94.34423828125 193.03887939453125 96.82528686523438 200.55227661132813 110.47210693359376 216.4261779785156 122.243408203125 223.19158935546875 149.028564453125 236.156005859375 154.6802978515625 238.94235229492188 166.24066162109375 241.36996459960935 174.5865478515625 242.1937561035156 185.9510498046875 238.62384033203125 189.8929443359375 235.73712158203125 198.568359375 229.540283203125 203.6219482421875 223.15310668945313 206.8687744140625 219.93963623046875 213.8760986328125 211.94781494140625 217.2386474609375 205.95819091796875 223.7047119140625 185.21868896484375 223.826904296875 169.55194091796875 221.16961669921875 154.29014587402344 220.9039306640625 152.7639617919922 " />
        <polyline stroke="black" stroke-width="3" stroke-linecap="round" fill="transparent" stroke-linejoin="round" points="60.32342529296875 114.18728637695313 64.09725952148438 115.325439453125 67.71347045898438 116.42242431640624 73.75021362304688 118.33078002929688 76.21478271484375 119.3328094482422 80.6827392578125 121.79881286621094 81.08587646484375 122.1378173828125 " />
        <polyline stroke="black" stroke-width="3" stroke-linecap="round" fill="transparent" stroke-linejoin="round" points="59.51361083984375 152.12594604492188 63.365234375 154.1821746826172 67.72052001953125 155.89305114746094 76.3548583984375 156.27053833007813 81.58847045898438 155.20152282714844 82.00521850585938 155.11639404296875 " />
        <polyline stroke="black" stroke-width="3" stroke-linecap="round" fill="transparent" stroke-linejoin="round" points="112.7313232421875 111.46493530273438 117.4866943359375 121.69863891601563 125.48773193359376 143.59027099609375 133.47738647460938 154.47607421875 144.180419921875 173.71385192871094 145.18377685546875 177.74847412109375 144.89144897460938 179.80755615234375 144.888916015625 179.8257293701172 144.888671875 179.8271484375 144.88864135742188 179.82769775390625 " />
        <polyline stroke="black" stroke-width="3" stroke-linecap="round" fill="transparent" stroke-linejoin="round" points="138.0888671875 75.17706298828125 145.82940673828125 67.40652465820313 152.17431640625 63.319091796875 171.0242919921875 56.85882568359375 180.816650390625 55.98442840576172 197.73797607421875 58.652069091796875 203.4310302734375 62.066009521484375 213.6300048828125 71.63035583496094 217.07916259765625 78.1795654296875 223.064208984375 98.74874877929688 222.296142578125 123.27214050292967 220.41644287109375 135.13006591796875 214.16693115234375 151.34068298339844 210.64031982421875 156.51156616210938 202.74560546875 163.48135375976563 196.80780029296875 165.73602294921875 196.21405029296875 165.96148681640625 " />
        <polyline stroke="black" stroke-width="3" stroke-linecap="round" fill="transparent" stroke-linejoin="round" points="158.88720703125 71.8048095703125 160.178955078125 95.34188842773438 160.97998046875 109.71922302246094 164.7520751953125 137.34112548828125 166.68011474609375 148.1835174560547 169.9512939453125 164.41281127929688 170.8671875 168.56024169921875 170.95880126953125 168.9749755859375 " />
        <polyline stroke="black" stroke-width="3" stroke-linecap="round" fill="transparent" stroke-linejoin="round" points="118.69674682617188 139.47283935546875 132.55172729492188 136.55758666992188 147.18148803710938 130.9154052734375 169.73992919921875 123.181640625 183.63641357421875 120.65399169921876 204.06817626953125 118.72024536132813 211.264892578125 118.62326049804688 222.8353271484375 119.4813232421875 228.0858154296875 119.87925720214844 231.98828125 120.42318725585938 232.349609375 120.5459442138672 232.385986328125 120.55831909179688 232.3876953125 120.55892944335938 " />
        <polyline stroke="black" stroke-width="3" stroke-linecap="round" fill="transparent" stroke-linejoin="round" points="161.450927734375 167.4186248779297 178.44580078125 164.51878356933594 186.6575927734375 162.95965576171875 200.01251220703125 160.24522399902344 206.80322265625 158.7932586669922 209.91650390625 158.25022888183594 211.27032470703125 157.69036865234375 211.3480224609375 157.6726531982422 " />
        </svg>