<?xml version="1.0" standalone="no"?>
    <svg width="256" height="256" xmlns="http://www.w3.org/2000/svg" version="1.1">
    <polyline stroke="black" stroke-width="3" stroke-linecap="round" fill="transparent" stroke-linejoin="round" points="64.06561279296875 68.24295043945313 60.708251953125 90.06561279296875 53.993621826171875 127.83560180664063 49.796966552734375 150.917236328125 47.6986083984375 160.56956481933594 41.40362548828125 181.5529022216797 38.4659423828125 190.36590576171875 36.36761474609375 194.14288330078125 35.947967529296875 195.40191650390625 35.947967529296875 195.40191650390625 " />
        <polyline stroke="black" stroke-width="3" stroke-linecap="round" fill="transparent" stroke-linejoin="round" points="58.190277099609375 66.56428527832031 61.96728515625 61.528289794921875 66.58358764648438 56.07261657714844 82.53094482421875 40.544952392578125 87.986572265625 35.92863464355469 98.89794921875 28.79429626464844 109.80926513671876 24.177963256835938 113.58627319335938 26.27629852294922 117.78292846679688 37.1876220703125 119.04193115234376 46.83995056152344 118.62225341796876 82.09194946289063 116.943603515625 106.012939453125 116.104248046875 127.41593933105467 116.52392578125 146.7205810546875 118.62225341796876 163.5072479248047 119.88128662109376 170.22190856933594 123.65826416015624 179.87423706054688 135.82858276367188 189.94622802734375 150.93658447265625 194.14288330078125 167.3035888671875 194.98223876953125 184.5098876953125 192.4642333984375 199.617919921875 187.42822265625 212.6275634765625 181.1332244873047 217.243896484375 177.77590942382813 226.4765625 167.28424072265625 229.8338623046875 155.5335693359375 224.7978515625 136.2289276123047 224.7978515625 136.2289276123047 " />
        <polyline stroke="black" stroke-width="3" stroke-linecap="round" fill="transparent" stroke-linejoin="round" points="92.60296630859376 87.1279296875 95.12094116210938 90.06561279296875 97.21923828125 93.00326538085938 100.99627685546876 100.5572509765625 101.41595458984376 104.3342742919922 100.57659912109376 105.59326171875 100.15692138671876 105.59326171875 100.15692138671876 105.59326171875 " />
        <polyline stroke="black" stroke-width="3" stroke-linecap="round" fill="transparent" stroke-linejoin="round" points="77.49496459960938 108.53094482421876 79.173583984375 112.30795288085938 81.27194213867188 116.92425537109376 86.72760009765625 126.99626159667967 93.8619384765625 140.4255828857422 97.21923828125 145.46157836914063 97.21923828125 145.46157836914063 " />
        <polyline stroke="black" stroke-width="3" stroke-linecap="round" fill="transparent" stroke-linejoin="round" points="150.93658447265625 74.1182861328125 150.93658447265625 83.77059936523438 150.51690673828125 102.23594665527344 149.67758178710938 116.50457763671876 147.9989013671875 126.57658386230467 146.32025146484375 131.6125946044922 145.90057373046875 133.29124450683594 145.90057373046875 133.29124450683594 " />
        <polyline stroke="black" stroke-width="3" stroke-linecap="round" fill="transparent" stroke-linejoin="round" points="148.41854858398438 65.30528259277344 160.16925048828125 58.59062194824219 174.01824951171875 53.13494873046875 193.7425537109375 49.35795593261719 203.8145751953125 50.61695861816406 208.01123046875 51.875946044921875 217.66357421875 60.269287109375 222.6995849609375 72.43960571289063 223.95855712890625 80.41326904296875 220.18157958984375 103.07525634765624 213.4669189453125 114.40625 209.27020263671875 118.18325805664063 209.27020263671875 118.18325805664063 " />
        <polyline stroke="black" stroke-width="3" stroke-linecap="round" fill="transparent" stroke-linejoin="round" points="141.70391845703125 90.06561279296875 152.615234375 86.28860473632813 172.75921630859375 79.99360656738281 193.3228759765625 74.53794860839844 210.94891357421875 70.76094055175781 223.1192626953125 68.24295043945313 231.5125732421875 66.98394775390625 236.548583984375 66.14462280273438 238.6468505859375 66.14462280273438 238.6468505859375 66.14462280273438 " />
        <polyline stroke="black" stroke-width="3" stroke-linecap="round" fill="transparent" stroke-linejoin="round" points="180.313232421875 79.15426635742188 177.7952880859375 90.06561279296875 173.17889404296875 105.173583984375 168.5626220703125 113.98660278320313 163.52655029296875 121.54058837890624 158.4906005859375 126.99626159667967 153.45458984375 130.77325439453125 148.83822631835938 133.71092224121094 145.90057373046875 134.96994018554688 144.64157104492188 134.96994018554688 145.48089599609375 134.13058471679688 153.034912109375 132.03225708007813 168.5626220703125 127.83560180664063 186.6082763671875 124.05859375 201.71624755859375 121.54058837890624 212.2078857421875 121.12094116210938 216.404541015625 121.9602508544922 216.404541015625 121.9602508544922 " />
        </svg>