<?xml version="1.0" standalone="no"?>
    <svg width="256" height="256" xmlns="http://www.w3.org/2000/svg" version="1.1">
    <polyline stroke="black" stroke-width="3" stroke-linecap="round" fill="transparent" stroke-linejoin="round" points="76 63 78 98 70 134.5 69 139.5 66 153.5 65 163 64 168 63.5 174.5 63.5 178 65 179 66.5 175.5 66.5 175.5 " />
        <polyline stroke="black" stroke-width="3" stroke-linecap="round" fill="transparent" stroke-linejoin="round" points="50.5 118.5 70.5 113.5 89 105 90.5 104.5 93.5 103 94 102.5 91.5 101.5 91.5 101.5 " />
        <polyline stroke="black" stroke-width="3" stroke-linecap="round" fill="transparent" stroke-linejoin="round" points="66 76.5 66 99.5 74 103.5 74 103.5 " />
        <polyline stroke="black" stroke-width="3" stroke-linecap="round" fill="transparent" stroke-linejoin="round" points="103 70.5 85 93 82 114 82 114 " />
        <polyline stroke="black" stroke-width="3" stroke-linecap="round" fill="transparent" stroke-linejoin="round" points="75.5 117 63.5 136.5 48.5 157 46 160 43.5 161.5 45.5 156.5 49 151 49 151 " />
        <polyline stroke="black" stroke-width="3" stroke-linecap="round" fill="transparent" stroke-linejoin="round" points="70.5 125.5 88 141.5 103 138 103 138 " />
        <polyline stroke="black" stroke-width="3" stroke-linecap="round" fill="transparent" stroke-linejoin="round" points="103 89 100 109.5 97.5 122.5 97.5 124 98.5 128 100 130 101.5 130 105 129.5 109.5 127 113.5 124 118 120 119.5 118 121.5 113.5 121.5 113.5 " />
        <polyline stroke="black" stroke-width="3" stroke-linecap="round" fill="transparent" stroke-linejoin="round" points="129 95 124.5 115 127 117.5 127 117.5 " />
        <polyline stroke="black" stroke-width="3" stroke-linecap="round" fill="transparent" stroke-linejoin="round" points="116.5 91.5 110 123.5 101 153.5 100.5 156 98.5 162.5 98.5 162.5 " />
        <polyline stroke="black" stroke-width="3" stroke-linecap="round" fill="transparent" stroke-linejoin="round" points="137.5 89 138.5 111.5 145.5 112 147 111.5 153 109 160 106 167.5 103 172 101.5 173.5 101 173 99.5 172 97.5 172 97.5 " />
        <polyline stroke="black" stroke-width="3" stroke-linecap="round" fill="transparent" stroke-linejoin="round" points="174.5 81.5 173 102 173 110 173 110 " />
        <polyline stroke="black" stroke-width="3" stroke-linecap="round" fill="transparent" stroke-linejoin="round" points="151 40 153.5 64 152.5 104.5 151.5 113.5 149.5 139 149 162 150 180.5 153 198 155 206.5 155 208 155 208 " />
        </svg>