<?xml version="1.0" standalone="no"?>
    <svg width="256" height="256" xmlns="http://www.w3.org/2000/svg" version="1.1">
    <polyline stroke="black" stroke-width="3" stroke-linecap="round" fill="transparent" stroke-linejoin="round" points="75.06124877929688 84.67170715332031 77.7342529296875 96.43284606933594 82.01101684570313 107.65940856933594 88.42620849609375 115.14376831054688 88.42620849609375 115.14376831054688 " />
        <polyline stroke="black" stroke-width="3" stroke-linecap="round" fill="transparent" stroke-linejoin="round" points="182.515380859375 64.89158630371094 172.892578125 79.86032104492188 155.25091552734375 101.77882385253906 139.74755859375 117.81675720214844 139.74755859375 117.81675720214844 " />
        <polyline stroke="black" stroke-width="3" stroke-linecap="round" fill="transparent" stroke-linejoin="round" points="68.11148071289063 147.7542266845703 83.61480712890625 144.54664611816406 108.206298828125 139.20066833496094 129.05560302734375 135.45848083496094 154.18170166015625 130.6470947265625 169.15045166015625 127.43951416015624 180.376953125 123.69732666015624 185.1883544921875 122.62814331054688 185.1883544921875 122.62814331054688 181.4461669921875 125.30113220214844 181.4461669921875 125.30113220214844 " />
        <polyline stroke="black" stroke-width="3" stroke-linecap="round" fill="transparent" stroke-linejoin="round" points="101.25653076171876 156.3077850341797 89.49539184570313 169.1381378173828 75.06124877929688 188.91824340820313 65.4384765625 203.35238647460935 60.092529296875 214.0443420410156 57.419525146484375 219.9248962402344 57.419525146484375 222.597900390625 57.419525146484375 222.597900390625 " />
        <polyline stroke="black" stroke-width="3" stroke-linecap="round" fill="transparent" stroke-linejoin="round" points="104.99871826171876 186.77984619140625 111.41387939453124 196.40261840820313 119.432861328125 204.9561767578125 127.98641967773438 208.6983642578125 127.98641967773438 208.6983642578125 " />
        <polyline stroke="black" stroke-width="3" stroke-linecap="round" fill="transparent" stroke-linejoin="round" points="164.8736572265625 160.58456420898438 153.11248779296875 183.03765869140625 145.62814331054688 197.4718017578125 138.67837524414063 209.23294067382813 134.40158081054688 217.7865295410156 134.40158081054688 217.7865295410156 " />
        <polyline stroke="black" stroke-width="3" stroke-linecap="round" fill="transparent" stroke-linejoin="round" points="163.804443359375 201.74859619140625 173.42724609375 211.371337890625 184.119140625 222.06329345703125 195.88031005859375 236.4974365234375 195.88031005859375 236.4974365234375 " />
        </svg>