<?xml version="1.0" standalone="no"?>
    <svg width="256" height="256" xmlns="http://www.w3.org/2000/svg" version="1.1">
    <polyline stroke="black" stroke-width="3" stroke-linecap="round" fill="transparent" stroke-linejoin="round" points="70.12030029296875 89.51472473144531 76.2906494140625 98.770263671875 83.48944091796875 105.96902465820313 92.74496459960938 108.54002380371094 107.14251708984376 100.3128662109375 107.14251708984376 100.3128662109375 " />
        <polyline stroke="black" stroke-width="3" stroke-linecap="round" fill="transparent" stroke-linejoin="round" points="171.93133544921875 51.46412658691406 167.8177490234375 68.43263244628906 155.47705078125 99.2844696044922 144.1646728515625 114.71038818359376 144.1646728515625 114.71038818359376 " />
        <polyline stroke="black" stroke-width="3" stroke-linecap="round" fill="transparent" stroke-linejoin="round" points="63.43572998046875 128.0795135498047 76.2906494140625 127.5653076171875 104.57150268554688 124.48013305664063 126.16778564453124 122.42333984375 147.2498779296875 122.42333984375 162.67578125 122.42333984375 175.53076171875 122.9375457763672 183.75787353515625 123.45173645019533 186.84307861328125 123.45173645019533 186.84307861328125 123.45173645019533 186.84307861328125 123.45173645019533 " />
        <polyline stroke="black" stroke-width="3" stroke-linecap="round" fill="transparent" stroke-linejoin="round" points="98.401123046875 145.5622100830078 81.4326171875 170.7578887939453 67.54931640625 190.29736328125 57.779571533203125 204.18069458007813 50.580810546875 212.92205810546875 45.953033447265625 217.03564453125 45.953033447265625 217.03564453125 " />
        <polyline stroke="black" stroke-width="3" stroke-linecap="round" fill="transparent" stroke-linejoin="round" points="97.886962890625 176.92825317382813 105.59991455078124 187.21218872070313 112.79864501953124 196.98193359375 119.48321533203124 203.15231323242188 119.48321533203124 203.15231323242188 " />
        <polyline stroke="black" stroke-width="3" stroke-linecap="round" fill="transparent" stroke-linejoin="round" points="142.62210083007813 167.15850830078125 130.2813720703125 190.81158447265625 124.11102294921876 202.1239013671875 120.51162719726563 209.3226623535156 118.454833984375 212.40786743164065 120.51162719726563 210.86526489257813 120.51162719726563 210.86526489257813 " />
        <polyline stroke="black" stroke-width="3" stroke-linecap="round" fill="transparent" stroke-linejoin="round" points="165.24676513671875 194.41094970703125 172.445556640625 203.15231323242188 179.644287109375 216.52142333984375 179.644287109375 216.52142333984375 " />
        </svg>