<?xml version="1.0" standalone="no"?>
    <svg width="256" height="256" xmlns="http://www.w3.org/2000/svg" version="1.1">
    <polyline stroke="black" stroke-width="3" stroke-linecap="round" fill="transparent" stroke-linejoin="round" points="73.94183349609375 70.34135437011719 77.68402099609375 81.03330993652344 82.49539184570313 91.190673828125 88.3759765625 95.46745300292967 88.3759765625 95.46745300292967 " />
        <polyline stroke="black" stroke-width="3" stroke-linecap="round" fill="transparent" stroke-linejoin="round" points="163.75421142578125 50.561248779296875 149.85467529296875 75.68733215332031 127.93618774414063 102.41722106933594 127.93618774414063 102.41722106933594 " />
        <polyline stroke="black" stroke-width="3" stroke-linecap="round" fill="transparent" stroke-linejoin="round" points="64.85366821289063 136.0968780517578 77.1494140625 129.68170166015625 97.99871826171876 121.66273498535156 122.5902099609375 114.17837524414063 145.04330444335938 108.8323974609375 161.6158447265625 104.02101135253906 175.515380859375 100.27882385253906 180.861328125 98.67503356933594 180.861328125 98.67503356933594 " />
        <polyline stroke="black" stroke-width="3" stroke-linecap="round" fill="transparent" stroke-linejoin="round" points="83.02996826171875 139.30445861816406 72.3380126953125 169.77651977539063 66.45745849609375 184.74526977539065 59.5076904296875 199.17938232421875 55.23089599609375 209.33676147460935 53.627105712890625 214.14813232421875 53.627105712890625 214.14813232421875 " />
        <polyline stroke="black" stroke-width="3" stroke-linecap="round" fill="transparent" stroke-linejoin="round" points="96.92950439453124 177.26089477539063 103.34469604492188 186.34906005859375 110.82904052734376 195.43719482421875 117.77880859375 201.85238647460935 126.3323974609375 202.92156982421875 126.3323974609375 202.92156982421875 " />
        <polyline stroke="black" stroke-width="3" stroke-linecap="round" fill="transparent" stroke-linejoin="round" points="149.320068359375 138.7698516845703 140.23193359375 159.61917114257813 130.0745849609375 182.072265625 123.659423828125 197.041015625 119.917236328125 206.66375732421875 119.917236328125 212.00973510742188 119.917236328125 212.00973510742188 " />
        <polyline stroke="black" stroke-width="3" stroke-linecap="round" fill="transparent" stroke-linejoin="round" points="159.4774169921875 187.41824340820313 166.9617919921875 194.90261840820313 174.4461669921875 202.92156982421875 181.9305419921875 212.00973510742188 181.9305419921875 212.00973510742188 " />
        </svg>