<?xml version="1.0" standalone="no"?>
    <svg width="256" height="256" xmlns="http://www.w3.org/2000/svg" version="1.1">
    <polyline stroke="black" stroke-width="3" stroke-linecap="round" fill="transparent" stroke-linejoin="round" points="85.88925170898438 44.14530944824219 87.71624755859375 60.58821105957031 87.71624755859375 74.59513854980469 89.543212890625 89.21104431152344 91.97921752929688 100.17298889160156 96.8511962890625 105.04495239257813 106.59515380859376 105.04495239257813 106.59515380859376 105.04495239257813 " />
        <polyline stroke="black" stroke-width="3" stroke-linecap="round" fill="transparent" stroke-linejoin="round" points="168.7127685546875 55.71624755859375 159.57781982421875 69.72315979003906 144.9619140625 84.33908081054688 122.42904663085938 102.60897827148438 98.67816162109376 121.48785400390624 81.01727294921875 133.66778564453125 69.44635009765625 140.3667449951172 63.96539306640625 142.802734375 61.529388427734375 142.19374084472656 64.57437133789063 138.53976440429688 73.100341796875 132.44979858398438 91.3702392578125 122.7058563232422 114.5120849609375 112.35292053222656 141.30792236328125 102.60897827148438 162.622802734375 94.6920166015625 176.020751953125 87.38406372070313 185.1556396484375 80.07609558105469 185.1556396484375 80.07609558105469 " />
        <polyline stroke="black" stroke-width="3" stroke-linecap="round" fill="transparent" stroke-linejoin="round" points="138.262939453125 35.619361877441406 131.56399536132813 43.53631591796875 124.25604248046876 55.71624755859375 117.55706787109376 72.15914916992188 108.422119140625 99.56399536132813 99.89617919921876 126.35983276367188 89.543212890625 153.76467895507813 82.23529052734375 172.03456115722656 76.75430297851563 185.4324951171875 74.31832885742188 190.9134521484375 74.31832885742188 189.69546508789065 74.31832885742188 189.69546508789065 " />
        <polyline stroke="black" stroke-width="3" stroke-linecap="round" fill="transparent" stroke-linejoin="round" points="100.50518798828124 125.141845703125 111.46710205078124 126.96882629394533 121.2110595703125 131.84080505371094 136.43597412109375 140.3667449951172 157.7508544921875 154.37367248535156 176.020751953125 168.9895782470703 191.8546142578125 187.25949096679688 191.8546142578125 187.25949096679688 " />
        </svg>