<?xml version="1.0" standalone="no"?>
    <svg width="256" height="256" xmlns="http://www.w3.org/2000/svg" version="1.1">
    <polyline stroke="black" stroke-width="3" stroke-linecap="round" fill="transparent" stroke-linejoin="round" points="63.3131103515625 107.185546875 61.476806640625 137.17910766601563 60.2525634765625 161.66363525390625 59.0283203125 184.31182861328125 58.416229248046875 202.67523193359375 58.416229248046875 216.75384521484375 58.416229248046875 224.0992126464844 58.416229248046875 226.54766845703125 58.416229248046875 221.6507568359375 57.1920166015625 206.96002197265625 58.416229248046875 187.37240600585935 60.2525634765625 171.45745849609375 62.701019287109375 162.2757568359375 66.37371826171875 152.48194885253906 71.88272094726563 142.68812561035156 77.3917236328125 135.3427734375 84.73712158203125 127.99740600585938 92.694580078125 121.26416015625 100.65203857421876 116.36724853515624 107.38531494140624 113.91880798339844 111.0579833984375 113.91880798339844 109.22161865234376 121.26416015625 96.36724853515624 139.6275634765625 81.676513671875 153.70616149902344 74.3311767578125 161.05152893066406 69.43426513671875 166.560546875 66.98580932617188 170.8453369140625 68.21002197265625 173.29379272460938 72.49481201171875 174.5180206298828 79.22808837890625 174.5180206298828 87.79766845703125 171.45745849609375 96.9793701171875 166.560546875 107.99740600585938 153.70616149902344 122.07601928710938 125.5489501953125 122.07601928710938 125.5489501953125 " />
        <polyline stroke="black" stroke-width="3" stroke-linecap="round" fill="transparent" stroke-linejoin="round" points="115.3427734375 85.76158142089844 112.28219604492188 101.06442260742188 109.22161865234376 129.2216339111328 107.38531494140624 153.09405517578125 106.773193359375 172.6816864013672 106.773193359375 188.59661865234375 106.773193359375 199.0025634765625 109.22161865234376 204.51156616210935 109.22161865234376 204.51156616210935 " />
        <polyline stroke="black" stroke-width="3" stroke-linecap="round" fill="transparent" stroke-linejoin="round" points="134.31829833984375 110.24612426757813 139.2152099609375 117.59147644042967 146.560546875 124.93684387207033 158.80279541015625 131.05796813964844 174.7177734375 132.28219604492188 190.0206298828125 128.60952758789063 202.26287841796875 120.6520538330078 209.60821533203125 113.91880798339844 214.505126953125 109.02189636230467 217.565673828125 105.96133422851563 217.565673828125 105.96133422851563 212.6688232421875 108.40977478027344 195.5296630859375 118.81570434570313 166.76025390625 136.56700134277344 142.88787841796875 151.25772094726563 128.1971435546875 159.21519470214844 122.07601928710938 162.2757568359375 119.6275634765625 164.11209106445313 121.46389770507813 164.11209106445313 128.80926513671875 162.2757568359375 151.45745849609375 156.76673889160156 171.6572265625 150.0334930419922 190.0206298828125 143.3002471923828 201.03863525390625 137.17910766601563 208.384033203125 128.60952758789063 215.7293701171875 104.7371063232422 214.505126953125 90.6584930419922 214.505126953125 90.6584930419922 " />
        <polyline stroke="black" stroke-width="3" stroke-linecap="round" fill="transparent" stroke-linejoin="round" points="185.73583984375 92.4948272705078 184.5115966796875 119.42782592773438 182.67523193359375 145.74868774414063 179.61468505859375 170.8453369140625 176.5540771484375 191.65719604492188 172.88140869140625 208.79635620117188 171.0450439453125 219.81442260742188 171.0450439453125 224.7113037109375 171.0450439453125 224.7113037109375 " />
        <polyline stroke="black" stroke-width="3" stroke-linecap="round" fill="transparent" stroke-linejoin="round" points="163.69970703125 167.17266845703125 155.130126953125 175.13014221191406 146.560546875 183.08761596679688 139.2152099609375 190.4329833984375 131.86981201171875 197.16622924804688 126.972900390625 200.83889770507813 126.972900390625 200.83889770507813 " />
        <polyline stroke="black" stroke-width="3" stroke-linecap="round" fill="transparent" stroke-linejoin="round" points="173.4935302734375 168.3968963623047 180.8388671875 170.8453369140625 189.408447265625 173.29379272460938 200.426513671875 176.9664764404297 212.056640625 181.86338806152344 223.07470703125 186.76028442382813 230.4200439453125 192.26931762695313 236.54119873046875 203.89947509765625 236.54119873046875 203.89947509765625 " />
        </svg>