<?xml version="1.0" standalone="no"?>
    <svg width="256" height="256" xmlns="http://www.w3.org/2000/svg" version="1.1">
    <polyline stroke="black" stroke-width="3" stroke-linecap="round" fill="transparent" stroke-linejoin="round" points="60.10614013671875 73.89799499511719 59.687255859375 88.97682189941406 57.174163818359375 124.99845886230467 55.49871826171875 142.59042358398438 52.985595703125 174.004638671875 50.47247314453125 200.392578125 49.21588134765625 209.1885681152344 48.79705810546875 210.44512939453125 48.79705810546875 210.44512939453125 " />
        <polyline stroke="black" stroke-width="3" stroke-linecap="round" fill="transparent" stroke-linejoin="round" points="71.8341064453125 128.34930419921875 78.116943359375 127.09274291992188 84.39984130859375 125.83616638183594 90.2637939453125 124.57958984375 99.47860717773438 121.228759765625 102.82952880859376 119.13449096679688 106.18035888671876 116.20248413085938 106.59921264648438 115.36477661132813 104.0860595703125 116.20248413085938 99.47860717773438 119.13449096679688 99.47860717773438 119.13449096679688 " />
        <polyline stroke="black" stroke-width="3" stroke-linecap="round" fill="transparent" stroke-linejoin="round" points="55.917572021484375 170.65379333496094 62.200408935546875 172.3292236328125 68.48324584960938 173.16693115234375 74.34725952148438 173.16693115234375 92.35809326171876 166.46524047851563 92.35809326171876 166.46524047851563 " />
        <polyline stroke="black" stroke-width="3" stroke-linecap="round" fill="transparent" stroke-linejoin="round" points="117.48944091796876 73.89799499511719 115.81402587890624 87.72024536132813 113.30087280273438 104.0556640625 107.85577392578124 134.63214111328125 102.82952880859376 161.02011108398438 101.154052734375 171.4915008544922 98.64093017578124 187.826904296875 98.2220458984375 194.94744873046875 98.2220458984375 195.78515625 98.2220458984375 195.78515625 " />
        <polyline stroke="black" stroke-width="3" stroke-linecap="round" fill="transparent" stroke-linejoin="round" points="143.87738037109375 90.65225219726563 144.715087890625 96.09738159179688 145.9716796875 101.96136474609376 148.48480224609375 110.3385009765625 151.835693359375 116.621337890625 157.28076171875 120.39105224609376 166.91448974609375 119.55332946777344 173.1973876953125 116.621337890625 173.1973876953125 116.621337890625 " />
        <polyline stroke="black" stroke-width="3" stroke-linecap="round" fill="transparent" stroke-linejoin="round" points="187.8572998046875 94.42195129394533 179.48016357421875 102.38021850585938 169.84649658203125 110.75735473632813 147.6470947265625 129.18704223632813 126.70428466796876 146.77899169921875 121.2591552734375 151.80526733398438 119.583740234375 153.8995361328125 121.677978515625 154.73724365234375 133.406005859375 152.64297485351563 153.09222412109375 145.52243041992188 173.1973876953125 136.30758666992188 187.8572998046875 125.83616638183594 187.8572998046875 125.83616638183594 " />
        <polyline stroke="black" stroke-width="3" stroke-linecap="round" fill="transparent" stroke-linejoin="round" points="165.657958984375 59.656890869140625 166.49560546875 88.13911437988281 166.91448974609375 104.8933563232422 166.91448974609375 136.7264404296875 166.91448974609375 165.2086639404297 166.49560546875 186.57034301757813 165.657958984375 200.81146240234375 163.9825439453125 207.51315307617188 162.7259521484375 208.76971435546875 162.7259521484375 208.76971435546875 " />
        <polyline stroke="black" stroke-width="3" stroke-linecap="round" fill="transparent" stroke-linejoin="round" points="143.0396728515625 154.73724365234375 139.68881225585938 161.02011108398438 134.24371337890625 170.23492431640625 132.1494140625 173.16693115234375 128.798583984375 176.93663024902344 127.96087646484376 176.93663024902344 129.2174072265625 175.6800537109375 135.500244140625 171.91036987304688 148.06591796875 167.7218017578125 164.4013671875 166.8840789794922 181.1556396484375 168.97837829589844 194.9779052734375 173.16693115234375 199.16644287109375 174.4235076904297 199.16644287109375 174.4235076904297 " />
        </svg>