<?xml version="1.0" standalone="no"?>
    <svg width="256" height="256" xmlns="http://www.w3.org/2000/svg" version="1.1">
    <polyline stroke="black" stroke-width="3" stroke-linecap="round" fill="transparent" stroke-linejoin="round" points="45.831085205078125 103.27093505859376 64.308837890625 95.7643585205078 77.5897216796875 91.14491271972656 92.6029052734375 85.37062072753906 107.6160888671875 77.28660583496094 119.1646728515625 68.0477294921875 124.93896484375 60.5411376953125 124.93896484375 60.5411376953125 " />
        <polyline stroke="black" stroke-width="3" stroke-linecap="round" fill="transparent" stroke-linejoin="round" points="74.70257568359375 109.62266540527344 70.0831298828125 126.36813354492188 65.46371459960938 143.11358642578125 63.731414794921875 154.6621856689453 63.731414794921875 161.013916015625 67.19598388671875 161.013916015625 73.5477294921875 152.92990112304688 87.98345947265625 124.63583374023438 94.335205078125 107.3129425048828 98.377197265625 100.9612274169922 100.1094970703125 98.07406616210938 99.53204345703124 101.53865051269533 94.335205078125 120.59382629394533 82.20916748046875 152.35247802734375 71.8154296875 171.98507690429688 62.5765380859375 183.53369140625 55.64739990234375 188.7305603027344 51.0279541015625 190.46282958984375 51.0279541015625 188.7305603027344 57.957122802734375 182.3788146972656 79.89944458007813 165.63336181640625 101.841796875 150.62017822265625 123.2066650390625 135.02957153320313 140.52957153320313 120.59382629394533 140.52957153320313 120.59382629394533 " />
        <polyline stroke="black" stroke-width="3" stroke-linecap="round" fill="transparent" stroke-linejoin="round" points="139.9521484375 88.83518981933594 147.458740234375 83.06089782714844 160.7396240234375 74.97688293457031 181.527099609375 62.27342224121094 197.69512939453125 52.457122802734375 210.97601318359375 44.37310028076172 210.97601318359375 44.37310028076172 " />
        <polyline stroke="black" stroke-width="3" stroke-linecap="round" fill="transparent" stroke-linejoin="round" points="184.41424560546875 62.850860595703125 175.17535400390625 75.55430603027344 163.04931640625 98.65150451660156 154.96533203125 120.0164031982422 150.92330932617188 136.76187133789063 149.1910400390625 150.62017822265625 150.34588623046875 158.70419311523438 157.2750244140625 159.8590545654297 157.2750244140625 159.8590545654297 " />
        <polyline stroke="black" stroke-width="3" stroke-linecap="round" fill="transparent" stroke-linejoin="round" points="207.511474609375 75.55430603027344 205.7791748046875 85.37062072753906 198.2725830078125 100.9612274169922 178.63995361328125 131.56500244140625 165.35906982421875 147.15560913085938 150.34588623046875 160.43649291992188 138.2198486328125 170.83023071289063 132.445556640625 176.60452270507813 132.445556640625 179.49166870117188 142.83929443359375 178.33680725097656 167.09130859375 170.83023071289063 189.611083984375 162.74620056152344 206.3565673828125 155.2396240234375 219.637451171875 149.46531677246094 226.566650390625 146.5781707763672 230.03118896484375 146.5781707763672 230.03118896484375 150.62017822265625 230.03118896484375 150.62017822265625 " />
        </svg>