<?xml version="1.0" standalone="no"?>
    <svg width="256" height="256" xmlns="http://www.w3.org/2000/svg" version="1.1">
    <polyline stroke="black" stroke-width="3" stroke-linecap="round" fill="transparent" stroke-linejoin="round" points="50.437744140625 98.85943603515624 52.4923095703125 130.0883026123047 53.31414794921875 141.5936737060547 54.546844482421875 153.92086791992188 55.36865234375 163.78262329101563 58.6558837890625 183.09519958496097 60.710418701171875 190.49151611328125 63.586761474609375 201.17507934570313 65.23040771484375 204.87322998046875 66.05221557617188 204.87322998046875 66.05221557617188 204.87322998046875 " />
        <polyline stroke="black" stroke-width="3" stroke-linecap="round" fill="transparent" stroke-linejoin="round" points="60.710418701171875 122.69198608398438 68.92855834960938 116.93930053710938 74.68124389648438 113.65206909179688 98.92474365234376 103.79031372070313 120.29183959960938 100.91397094726563 142.89169311523438 101.32487487792967 152.342529296875 102.14666748046876 170.83331298828125 105.84483337402344 176.9969482421875 107.89935302734376 180.695068359375 110.77569580078124 181.927734375 113.65206909179688 183.5714111328125 132.14285278320313 182.33868408203125 139.95005798339844 165.9024658203125 173.64434814453125 165.9024658203125 173.64434814453125 " />
        <polyline stroke="black" stroke-width="3" stroke-linecap="round" fill="transparent" stroke-linejoin="round" points="110.0191650390625 43.38707733154297 111.66281127929688 60.23423767089844 112.07373046875 71.32870483398438 112.07373046875 84.06680297851563 111.25189208984376 112.41934204101563 110.84100341796876 125.979248046875 109.6082763671875 148.989990234375 107.96466064453124 165.83714294433594 105.49920654296876 178.5752410888672 102.62289428710938 185.14974975585935 101.39013671875 187.20428466796875 101.39013671875 187.20428466796875 " />
        <polyline stroke="black" stroke-width="3" stroke-linecap="round" fill="transparent" stroke-linejoin="round" points="57.423187255859375 164.1935272216797 70.57220458984375 155.9753875732422 77.968505859375 153.0990447998047 102.62289428710938 145.70274353027344 117.826416015625 142.82640075683594 130.153564453125 141.18276977539063 139.19354248046875 140.36094665527344 146.17892456054688 141.5936737060547 148.23348999023438 142.41549682617188 148.23348999023438 142.41549682617188 " />
        <polyline stroke="black" stroke-width="3" stroke-linecap="round" fill="transparent" stroke-linejoin="round" points="70.57220458984375 202.8187255859375 87.41937255859375 195.42239379882813 95.637451171875 192.95697021484375 104.2664794921875 190.49151611328125 112.8955078125 188.43698120117188 128.50994873046875 185.5606384277344 141.658935546875 183.506103515625 153.57525634765625 183.09519958496097 163.847900390625 183.91702270507813 163.847900390625 183.91702270507813 " />
        </svg>