<?xml version="1.0" standalone="no"?>
    <svg width="256" height="256" xmlns="http://www.w3.org/2000/svg" version="1.1">
    <polyline stroke="black" stroke-width="3" stroke-linecap="round" fill="transparent" stroke-linejoin="round" points="115.57012939453124 18.627685546875 116.01220703125 31.006103515625 116.01220703125 38.52156829833984 115.57012939453124 46.03703308105469 114.68597412109376 60.625885009765625 113.8017578125 68.141357421875 111.59130859375 82.28811645507813 106.28631591796876 95.10861206054688 99.212890625 105.27659606933594 99.212890625 105.27659606933594 " />
        <polyline stroke="black" stroke-width="3" stroke-linecap="round" fill="transparent" stroke-linejoin="round" points="52.79388427734375 120.74961853027344 66.94064331054688 112.79208374023438 87.276611328125 104.8345184326172 98.77084350585938 101.29782104492188 123.52767944335938 95.55068969726563 147.40032958984375 91.57192993164063 168.17840576171875 88.91940307617188 182.76727294921875 87.5931396484375 189.3985595703125 87.15106201171875 189.3985595703125 87.15106201171875 " />
        <polyline stroke="black" stroke-width="3" stroke-linecap="round" fill="transparent" stroke-linejoin="round" points="52.79388427734375 151.2535858154297 70.03524780273438 141.9697723388672 79.31906127929688 137.99099731445313 88.60287475585938 134.8963623046875 107.612548828125 129.14926147460938 124.85394287109376 124.7283935546875 140.76904296875 121.6337890625 153.58953857421875 119.42337036132813 161.10498046875 118.98126220703124 163.3154296875 118.98126220703124 163.3154296875 118.98126220703124 " />
        <polyline stroke="black" stroke-width="3" stroke-linecap="round" fill="transparent" stroke-linejoin="round" points="114.68597412109376 145.94854736328125 113.8017578125 157.88485717773438 113.8017578125 166.28448486328125 113.8017578125 175.56829833984375 113.8017578125 206.51434326171875 112.9176025390625 213.1456298828125 111.59130859375 221.5452880859375 111.59130859375 221.5452880859375 " />
        </svg>