<?xml version="1.0" standalone="no"?>
    <svg width="256" height="256" xmlns="http://www.w3.org/2000/svg" version="1.1">
    <polyline stroke="black" stroke-width="3" stroke-linecap="round" fill="transparent" stroke-linejoin="round" points="55.3846435546875 131.20433044433594 65.97943115234375 126.7433624267578 77.68948364257813 121.72477722167967 89.39950561523438 116.14857482910156 98.87905883789063 110.01475524902344 106.12811279296876 104.99617004394533 106.12811279296876 104.99617004394533 " />
        <polyline stroke="black" stroke-width="3" stroke-linecap="round" fill="transparent" stroke-linejoin="round" points="73.228515625 77.67276000976563 67.65231323242188 87.15231323242188 60.40325927734375 110.01475524902344 55.942291259765625 136.78053283691406 55.3846435546875 151.83628845214844 56.499908447265625 166.3344268798828 59.28802490234375 174.69873046875 64.30657958984375 179.15969848632813 70.4404296875 180.27493286132813 77.13186645507813 176.92921447753906 84.93853759765625 170.79537963867188 91.6300048828125 160.75820922851563 91.6300048828125 160.75820922851563 " />
        <polyline stroke="black" stroke-width="3" stroke-linecap="round" fill="transparent" stroke-linejoin="round" points="85.49615478515625 87.15231323242188 84.38092041015625 104.99617004394533 84.93853759765625 119.49430847167967 86.05377197265625 133.434814453125 88.28427124023438 145.7024688720703 89.9571533203125 155.73963928222656 92.7452392578125 168.0072784423828 92.7452392578125 168.0072784423828 " />
        <polyline stroke="black" stroke-width="3" stroke-linecap="round" fill="transparent" stroke-linejoin="round" points="115.050048828125 99.9775848388672 134.5667724609375 91.0556640625 147.39202880859375 86.03707885742188 161.33251953125 79.90324401855469 174.7154541015625 73.76942443847656 174.7154541015625 73.76942443847656 " />
        <polyline stroke="black" stroke-width="3" stroke-linecap="round" fill="transparent" stroke-linejoin="round" points="155.19873046875 50.349365234375 144.60394287109375 72.65419006347656 133.4515380859375 101.65045166015624 126.76007080078124 119.49430847167967 121.18389892578124 134.550048828125 116.722900390625 146.2600860595703 116.722900390625 146.2600860595703 " />
        <polyline stroke="black" stroke-width="3" stroke-linecap="round" fill="transparent" stroke-linejoin="round" points="138.4700927734375 110.57237243652344 156.87158203125 107.78427124023438 168.02398681640625 106.66903686523438 179.1763916015625 106.66903686523438 189.21356201171875 106.66903686523438 195.347412109375 107.78427124023438 195.347412109375 107.78427124023438 " />
        <polyline stroke="black" stroke-width="3" stroke-linecap="round" fill="transparent" stroke-linejoin="round" points="107.24334716796876 164.66156005859375 127.87530517578124 157.97010803222656 144.60394287109375 152.95152282714844 162.44781494140625 148.49057006835938 178.0611572265625 144.02960205078125 188.09832763671875 140.6838836669922 194.789794921875 136.22291564941406 194.789794921875 136.22291564941406 " />
        <polyline stroke="black" stroke-width="3" stroke-linecap="round" fill="transparent" stroke-linejoin="round" points="157.98681640625 125.0705108642578 151.85302734375 139.01101684570313 145.71917724609375 154.0667724609375 134.0091552734375 181.9477996826172 127.31768798828124 198.1187744140625 121.18389892578124 213.17453002929688 115.607666015625 223.76931762695313 111.704345703125 229.34552001953125 108.35861206054688 232.13363647460935 108.35861206054688 232.13363647460935 " />
        <polyline stroke="black" stroke-width="3" stroke-linecap="round" fill="transparent" stroke-linejoin="round" points="133.4515380859375 186.96636962890625 147.94964599609375 187.52398681640625 159.10205078125 190.8697204589844 172.4849853515625 197.0035400390625 185.31024169921875 204.25262451171875 194.789794921875 210.38644409179688 202.038818359375 215.962646484375 202.038818359375 215.962646484375 " />
        </svg>