<?xml version="1.0" standalone="no"?>
    <svg width="256" height="256" xmlns="http://www.w3.org/2000/svg" version="1.1">
    <polyline stroke="black" stroke-width="3" stroke-linecap="round" fill="transparent" stroke-linejoin="round" points="45.291748046875 97.16688537597656 58.984130859375 94.95843505859376 65.60946655273438 93.63336181640624 72.67648315429688 92.3083038330078 86.810546875 89.65817260742188 92.552490234375 88.33309936523438 102.2696533203125 85.24127197265625 106.244873046875 83.47451782226563 111.98681640625 79.94100952148438 115.52032470703124 73.75736999511719 115.52032470703124 73.75736999511719 " />
        <polyline stroke="black" stroke-width="3" stroke-linecap="round" fill="transparent" stroke-linejoin="round" points="66.93453979492188 56.97319030761719 64.72607421875 71.99061584472656 64.284423828125 86.12466430664063 64.284423828125 94.07505798339844 64.72607421875 102.02548217773438 66.49285888671875 117.48458862304688 67.376220703125 124.1099090576172 68.25961303710938 130.29356384277344 69.14300537109375 140.8940887451172 70.0263671875 147.9611053466797 70.90975952148438 151.05294799804688 72.23480224609375 150.6112518310547 72.23480224609375 150.6112518310547 " />
        <polyline stroke="black" stroke-width="3" stroke-linecap="round" fill="transparent" stroke-linejoin="round" points="112.87020874023438 38.86394500732422 111.10345458984376 60.50669860839844 108.45330810546876 85.68296813964844 107.12823486328124 93.63336181640624 105.36151123046876 102.02548217773438 102.2696533203125 116.15951538085938 97.852783203125 126.76004028320313 90.78573608398438 137.80227661132813 86.36883544921875 143.1025390625 86.36883544921875 143.1025390625 " />
        <polyline stroke="black" stroke-width="3" stroke-linecap="round" fill="transparent" stroke-linejoin="round" points="55.45062255859375 152.81968688964844 68.70126342773438 150.6112518310547 79.74349975585938 148.844482421875 85.04379272460938 147.9611053466797 95.644287109375 145.31097412109375 107.12823486328124 140.8940887451172 107.12823486328124 140.8940887451172 " />
        <polyline stroke="black" stroke-width="3" stroke-linecap="round" fill="transparent" stroke-linejoin="round" points="126.120849609375 83.47451782226563 145.55517578125 75.9658203125 150.85543823242188 74.6407470703125 156.15570068359375 73.315673828125 172.0565185546875 69.34048461914063 182.21533203125 65.80696105957031 191.0491943359375 60.50669860839844 195.02435302734375 57.8565673828125 195.02435302734375 57.8565673828125 " />
        <polyline stroke="black" stroke-width="3" stroke-linecap="round" fill="transparent" stroke-linejoin="round" points="181.33197021484375 32.68029022216797 173.8232421875 47.697715759277344 170.7314453125 54.764739990234375 167.19793701171875 62.27345275878906 163.2227783203125 71.99061584472656 155.2723388671875 89.65817260742188 151.73883056640625 98.491943359375 145.11346435546875 113.95108032226563 139.813232421875 124.9932861328125 135.39633178710938 132.50201416015625 131.421142578125 139.5690155029297 131.421142578125 139.5690155029297 " />
        <polyline stroke="black" stroke-width="3" stroke-linecap="round" fill="transparent" stroke-linejoin="round" points="159.24755859375 105.5589599609375 171.6148681640625 105.11727905273438 190.165771484375 107.32574462890624 196.349365234375 108.65080261230467 202.5330810546875 109.9758758544922 212.69189453125 111.74261474609376 220.642333984375 113.50938415527344 226.38427734375 115.27615356445313 226.38427734375 115.27615356445313 " />
        <polyline stroke="black" stroke-width="3" stroke-linecap="round" fill="transparent" stroke-linejoin="round" points="113.31185913085938 178.43765258789063 124.7957763671875 176.6708984375 132.30450439453125 175.3458251953125 140.69662475585938 174.020751953125 156.597412109375 170.48724365234375 164.54779052734375 168.7205047607422 177.3568115234375 166.0703582763672 182.21533203125 165.18698120117188 189.28240966796875 163.42022705078125 194.1409912109375 159.88671875 194.1409912109375 159.88671875 " />
        <polyline stroke="black" stroke-width="3" stroke-linecap="round" fill="transparent" stroke-linejoin="round" points="171.173095703125 128.52682495117188 164.54779052734375 140.45242309570313 158.80584716796875 151.9363250732422 152.1805419921875 165.18698120117188 145.55517578125 177.1125946044922 137.1630859375 191.68832397460935 134.07125854492188 196.98858642578125 130.09603881835938 202.7305603027344 130.09603881835938 202.7305603027344 " />
        <polyline stroke="black" stroke-width="3" stroke-linecap="round" fill="transparent" stroke-linejoin="round" points="158.80584716796875 174.4624481201172 177.3568115234375 178.87933349609375 182.21533203125 180.64610290527344 187.073974609375 182.412841796875 191.93255615234375 184.62130737304688 204.74151611328125 190.36328125 212.250244140625 193.89678955078125 212.250244140625 193.89678955078125 " />
        </svg>