<?xml version="1.0" standalone="no"?>
    <svg width="256" height="256" xmlns="http://www.w3.org/2000/svg" version="1.1">
    <polyline stroke="black" stroke-width="3" stroke-linecap="round" fill="transparent" stroke-linejoin="round" points="123.383056640625 31.05332946777344 129.9521484375 43.37044525146485 128.30990600585938 54.45586395263672 124.20419311523438 61.84614562988281 124.20419311523438 61.84614562988281 " />
        <polyline stroke="black" stroke-width="3" stroke-linecap="round" fill="transparent" stroke-linejoin="round" points="66.31365966796875 93.04953002929688 80.68365478515625 88.94383239746094 96.69589233398438 84.83811950683594 106.13909912109376 82.78526306152344 126.25701904296876 79.09011840820313 147.606689453125 75.80555725097656 166.903564453125 72.52099609375 181.2735595703125 69.23641967773438 190.30609130859375 67.18356323242188 192.76953125 66.3624267578125 194.8223876953125 65.54129028320313 194.8223876953125 65.54129028320313 " />
        <polyline stroke="black" stroke-width="3" stroke-linecap="round" fill="transparent" stroke-linejoin="round" points="72.0616455078125 123.02122497558594 92.5902099609375 116.8626708984375 108.60247802734376 113.9886474609375 123.79364013671876 111.93582153320313 134.87899780273438 110.29351806640624 140.62701416015625 108.65122985839844 142.269287109375 107.41952514648438 142.269287109375 107.41952514648438 " />
        <polyline stroke="black" stroke-width="3" stroke-linecap="round" fill="transparent" stroke-linejoin="round" points="115.99276733398438 90.58612060546876 106.13909912109376 104.13494873046876 97.9276123046875 118.09439086914063 90.94793701171876 131.64321899414063 84.78936767578125 143.54977416992188 80.2730712890625 151.76119995117188 80.2730712890625 151.76119995117188 " />
        <polyline stroke="black" stroke-width="3" stroke-linecap="round" fill="transparent" stroke-linejoin="round" points="88.4844970703125 136.9806365966797 101.62277221679688 137.80178833007813 109.01303100585938 141.0863494873047 115.99276733398438 144.37091064453125 120.509033203125 146.83433532714844 122.15133666992188 147.65548706054688 122.15133666992188 147.65548706054688 " />
        <polyline stroke="black" stroke-width="3" stroke-linecap="round" fill="transparent" stroke-linejoin="round" points="127.07818603515624 120.55780029296876 141.85873413085938 117.27322387695313 147.19613647460938 116.8626708984375 161.9766845703125 115.63095092773438 170.59869384765625 114.80979919433594 176.75726318359375 113.57809448242188 180.452392578125 110.7041015625 182.09466552734375 107.41952514648438 182.09466552734375 107.41952514648438 " />
        <polyline stroke="black" stroke-width="3" stroke-linecap="round" fill="transparent" stroke-linejoin="round" points="173.88330078125 82.37469482421875 161.566162109375 104.13494873046876 152.94415283203125 121.78952026367188 145.55389404296875 136.9806365966797 139.395263671875 148.88719177246094 134.87899780273438 156.2774658203125 132.00506591796875 159.15147399902344 132.00506591796875 159.15147399902344 " />
        <polyline stroke="black" stroke-width="3" stroke-linecap="round" fill="transparent" stroke-linejoin="round" points="149.24899291992188 142.31805419921875 159.923828125 139.85464477539063 165.26123046875 139.44406127929688 171.00927734375 139.0334930419922 180.0418701171875 139.0334930419922 187.02154541015625 139.85464477539063 187.02154541015625 139.85464477539063 " />
        <polyline stroke="black" stroke-width="3" stroke-linecap="round" fill="transparent" stroke-linejoin="round" points="81.91537475585938 186.2491455078125 95.05364990234376 184.1962890625 109.83419799804688 182.9645843505859 126.25701904296876 182.55401611328125 142.67987060546875 182.1434326171875 156.22869873046875 180.91172790527344 166.4930419921875 179.26943969726563 172.240966796875 177.2165985107422 175.114990234375 174.34259033203125 175.114990234375 174.34259033203125 " />
        <polyline stroke="black" stroke-width="3" stroke-linecap="round" fill="transparent" stroke-linejoin="round" points="144.73272705078125 146.42376708984375 136.1107177734375 156.6880340576172 125.846435546875 171.87918090820313 121.33016967773438 180.090576171875 110.2447509765625 199.79800415039065 104.9073486328125 209.65170288085935 101.21221923828124 216.2208251953125 98.33822631835938 219.50540161132813 97.9276123046875 219.50540161132813 97.9276123046875 219.50540161132813 " />
        <polyline stroke="black" stroke-width="3" stroke-linecap="round" fill="transparent" stroke-linejoin="round" points="109.423583984375 188.302001953125 127.8992919921875 194.87115478515625 141.44818115234375 201.85086059570313 154.58642578125 209.24114990234375 166.4930419921875 217.4525451660156 175.52557373046875 225.25341796875 175.52557373046875 225.25341796875 " />
        </svg>