<?xml version="1.0" standalone="no"?>
    <svg width="256" height="256" xmlns="http://www.w3.org/2000/svg" version="1.1">
    <polyline stroke="black" stroke-width="3" stroke-linecap="round" fill="transparent" stroke-linejoin="round" points="111 41 117 54 118 59 123 70 127 74 127 74 " />
        <polyline stroke="black" stroke-width="3" stroke-linecap="round" fill="transparent" stroke-linejoin="round" points="158 28 146 56 133 76 114 101 96 124 80 141 69 149 69 149 " />
        <polyline stroke="black" stroke-width="3" stroke-linecap="round" fill="transparent" stroke-linejoin="round" points="86 84 98 91 105 93 112 95 136 106 143 109 159 119 169 125 169 125 " />
        <polyline stroke="black" stroke-width="3" stroke-linecap="round" fill="transparent" stroke-linejoin="round" points="120 130 100 160 90 176 80 191 72 201 68 203 68 203 " />
        <polyline stroke="black" stroke-width="3" stroke-linecap="round" fill="transparent" stroke-linejoin="round" points="115 143 135 142 143 142 149 143 151 146 151 154 143 170 129 189 113 206 96 221 82 229 77 231 77 231 " />
        <polyline stroke="black" stroke-width="3" stroke-linecap="round" fill="transparent" stroke-linejoin="round" points="96 174 123 189 143 201 168 216 188 230 196 238 196 238 " />
        </svg>