<?xml version="1.0" standalone="no"?>
    <svg width="256" height="256" xmlns="http://www.w3.org/2000/svg" version="1.1">
    <polyline stroke="black" stroke-width="3" stroke-linecap="round" fill="transparent" stroke-linejoin="round" points="73.02337646484375 91.95550537109376 76.25326538085938 109.48922729492188 78.09893798828125 119.64031982421876 82.25161743164063 126.10011291503906 85.48153686523438 127.0229034423828 91.01849365234376 126.56149291992188 97.939697265625 122.40878295898438 104.39947509765624 117.79464721679688 111.3206787109375 111.79627990722656 118.24185180664063 104.41365051269533 123.31741333007813 96.56965637207033 126.08587646484376 89.64846801757813 126.08587646484376 89.64846801757813 " />
        <polyline stroke="black" stroke-width="3" stroke-linecap="round" fill="transparent" stroke-linejoin="round" points="133.929931640625 71.19190979003906 135.314208984375 94.72398376464844 137.6212158203125 137.6354217529297 137.6212158203125 151.93923950195313 136.69839477539063 189.77511596679688 134.852783203125 208.69305419921875 131.16143798828125 222.53549194335935 131.16143798828125 222.53549194335935 " />
        <polyline stroke="black" stroke-width="3" stroke-linecap="round" fill="transparent" stroke-linejoin="round" points="69.33206176757813 177.77838134765625 85.48153686523438 175.47128295898438 101.6309814453125 170.85719299316406 122.39462280273438 166.2430419921875 143.61956787109375 163.0131378173828 174.9957275390625 159.32183837890625 182.8397216796875 158.86041259765625 193.4522705078125 157.9376220703125 199.45062255859375 156.55335998535156 199.45062255859375 156.55335998535156 " />
        </svg>