<?xml version="1.0" standalone="no"?>
    <svg width="256" height="256" xmlns="http://www.w3.org/2000/svg" version="1.1">
    <polyline stroke="black" stroke-width="3" stroke-linecap="round" fill="transparent" stroke-linejoin="round" points="96.39492797851563 58.04560852050781 94.7911376953125 71.41055297851563 93.18731689453124 85.84469604492188 91.58355712890624 98.14044189453124 91.58355712890624 105.6248016357422 91.58355712890624 110.43618774414063 94.7911376953125 113.64376831054688 100.1370849609375 114.71296691894533 108.15606689453124 113.64376831054688 120.45181274414063 109.90158081054688 129.53997802734375 105.6248016357422 138.09353637695313 100.8134307861328 138.09353637695313 100.8134307861328 " />
        <polyline stroke="black" stroke-width="3" stroke-linecap="round" fill="transparent" stroke-linejoin="round" points="147.71630859375 63.92619323730469 145.04330444335938 79.42951965332031 142.37030029296875 114.17837524414063 141.83572387695313 143.04664611816406 141.3011474609375 167.6381378173828 139.69732666015625 187.95285034179688 137.5589599609375 204.52536010742188 133.8167724609375 215.21731567382813 133.8167724609375 215.21731567382813 " />
        <polyline stroke="black" stroke-width="3" stroke-linecap="round" fill="transparent" stroke-linejoin="round" points="77.1494140625 161.75755310058594 88.91055297851563 157.48077392578125 108.15606689453124 151.60020446777344 130.0745849609375 146.2542266845703 150.92388916015625 143.04664611816406 164.288818359375 140.9082489013672 174.4461669921875 140.3736572265625 180.861328125 142.5120391845703 180.861328125 142.5120391845703 " />
        </svg>