<?xml version="1.0" standalone="no"?>
    <svg width="256" height="256" xmlns="http://www.w3.org/2000/svg" version="1.1">
    <polyline stroke="black" stroke-width="3" stroke-linecap="round" fill="transparent" stroke-linejoin="round" points="88.10430908203125 84.47773742675781 82.49899291992188 104.8607177734375 78.93197631835938 118.1096649169922 76.38409423828125 129.3203125 75.36495971679688 136.45436096191406 76.38409423828125 141.04052734375 80.460693359375 144.0979766845703 87.08517456054688 145.62669372558594 98.80538940429688 145.62669372558594 111.54473876953124 143.07882690429688 122.245849609375 137.9830780029297 131.927734375 131.35861206054688 140.59051513671875 121.1671142578125 140.59051513671875 121.1671142578125 " />
        <polyline stroke="black" stroke-width="3" stroke-linecap="round" fill="transparent" stroke-linejoin="round" points="144.6671142578125 73.77667236328125 143.13839721679688 86.51603698730469 141.60968017578125 107.9181671142578 140.59051513671875 127.28201293945313 141.10009765625 146.1362762451172 141.60968017578125 164.48097229003906 142.1192626953125 181.80650329589844 140.59051513671875 197.09375 134.98519897460938 211.87139892578125 134.98519897460938 211.87139892578125 " />
        <polyline stroke="black" stroke-width="3" stroke-linecap="round" fill="transparent" stroke-linejoin="round" points="56.0010986328125 190.97885131835935 67.72134399414063 187.41183471679688 84.0277099609375 183.8448181152344 112.56390380859376 177.2203369140625 136.00433349609375 172.6341552734375 154.858642578125 170.08628845214844 170.1458740234375 167.5384063720703 181.35650634765625 164.99053955078125 185.94268798828125 164.99053955078125 187.47137451171875 164.99053955078125 187.47137451171875 164.99053955078125 " />
        </svg>