<?xml version="1.0" standalone="no"?>
    <svg width="256" height="256" xmlns="http://www.w3.org/2000/svg" version="1.1">
    <polyline stroke="black" stroke-width="3" stroke-linecap="round" fill="transparent" stroke-linejoin="round" points="87.41177368164063 84.11468505859375 84.830322265625 96.37664794921876 82.89422607421875 107.99322509765624 82.24884033203125 117.02835083007813 82.24884033203125 124.12738037109376 83.53955078125 128.6449432373047 86.76641845703125 131.8717803955078 92.57470703125 131.8717803955078 99.6737060546875 129.29031372070313 109.35421752929688 124.7727508544922 119.6800537109375 118.96446228027344 128.7152099609375 112.5107879638672 140.9771728515625 98.312744140625 140.9771728515625 98.312744140625 " />
        <polyline stroke="black" stroke-width="3" stroke-linecap="round" fill="transparent" stroke-linejoin="round" points="154.52984619140625 62.81761169433594 157.111328125 91.21371459960938 161.62884521484375 122.83665466308594 163.56494140625 153.81422424316406 162.91961669921875 175.11129760742188 158.40203857421875 193.1815490722656 153.2391357421875 200.92593383789065 153.2391357421875 200.92593383789065 " />
        <polyline stroke="black" stroke-width="3" stroke-linecap="round" fill="transparent" stroke-linejoin="round" points="55.788818359375 188.01861572265625 71.9229736328125 180.27423095703125 99.6737060546875 167.36691284179688 127.42446899414063 158.331787109375 158.40203857421875 149.94203186035156 179.0537109375 144.13372802734375 199.7054443359375 137.68006896972656 212.61279296875 133.16250610351563 219.7117919921875 130.58103942871094 219.7117919921875 130.58103942871094 " />
        </svg>