<?xml version="1.0" standalone="no"?>
    <svg width="256" height="256" xmlns="http://www.w3.org/2000/svg" version="1.1">
    <polyline stroke="black" stroke-width="3" stroke-linecap="round" fill="transparent" stroke-linejoin="round" points="111.10806274414063 27.153236389160156 107.04443359375 35.686920166015625 102.98080444335938 44.220603942871094 97.29168701171876 55.19248962402344 82.66253662109375 82.82534790039063 76.973388671875 93.390869140625 69.25244140625 105.17547607421876 64.78240966796875 111.27098083496094 62.750579833984375 113.3027801513672 61.937835693359375 112.89642333984376 63.156951904296875 110.45823669433594 69.25244140625 103.95639038085938 74.53521728515625 99.08000183105467 94.85348510742188 85.2635498046875 109.07626342773438 78.35533142089844 124.11181640625 73.88531494140625 139.5537109375 70.22802734375 152.96380615234375 66.97709655761719 163.9356689453125 64.53889465332031 170.8438720703125 62.91343688964844 173.6884765625 61.6943359375 174.50115966796875 60.88160705566406 174.50115966796875 60.88160705566406 " />
        <polyline stroke="black" stroke-width="3" stroke-linecap="round" fill="transparent" stroke-linejoin="round" points="89.57073974609371 136.05929565429688 96.88531494140624 131.18289184570313 104.19989013671876 126.30648803710938 111.92083740234376 121.8364715576172 120.04818725585938 117.366455078125 144.02377319335938 108.02001953125 155.808349609375 106.3945770263672 164.342041015625 108.4263916015625 170.8438720703125 114.9282684326172 175.31390380859375 128.74468994140625 175.31390380859375 143.37384033203125 171.250244140625 155.97119140625 164.7484130859375 163.692138671875 154.182861328125 168.5685272216797 142.80465698242188 165.72396850585938 142.80465698242188 165.72396850585938 " />
        <polyline stroke="black" stroke-width="3" stroke-linecap="round" fill="transparent" stroke-linejoin="round" points="127.36273193359376 37.3123779296875 127.36273193359376 53.97338104248047 127.36273193359376 70.63438415527344 127.36273193359376 89.73358154296875 127.36273193359376 110.05186462402344 129.80096435546875 169.78762817382813 131.832763671875 191.73138427734375 132.23910522460938 204.3287353515625 131.4263916015625 209.20510864257813 131.02001953125 210.4241943359375 131.02001953125 210.4241943359375 " />
        <polyline stroke="black" stroke-width="3" stroke-linecap="round" fill="transparent" stroke-linejoin="round" points="82.25610351562499 174.66403198242193 93.63436889648438 181.9786071777344 105.01263427734376 189.29318237304688 111.51449584960938 194.16958618164065 111.51449584960938 194.16958618164065 " />
        </svg>