<?xml version="1.0" standalone="no"?>
    <svg width="256" height="256" xmlns="http://www.w3.org/2000/svg" version="1.1">
    <polyline stroke="black" stroke-width="3" stroke-linecap="round" fill="transparent" stroke-linejoin="round" points="87.11785888671875 78.5316162109375 104.766845703125 73.20834350585938 113.37802124023438 71.0777587890625 139.48922729492188 68.80476379394531 144.102294921875 69.233642578125 158.9696044921875 70.52577209472656 164.549072265625 70.99470520019531 165.145263671875 71.0447998046875 161.99029541015625 72.09959411621094 152.747314453125 77.05718994140625 136.24215698242188 86.41854858398438 119.93978881835938 105.3159637451172 102.35067749023438 135.72738647460938 94.07269287109376 148.76214599609375 80.85897827148438 172.96446228027344 74.4144287109375 187.32879638671875 73.37420654296875 191.856201171875 76.06356811523438 196.20535278320313 79.07257080078125 198.44647216796875 86.30950927734375 204.2911376953125 90.90997314453124 208.77203369140625 102.26300048828124 215.14202880859375 109.39471435546876 217.85546875 134.13229370117188 222.5570068359375 144.88848876953125 223.16363525390625 170.9080810546875 220.89404296875 178.8775634765625 216.19390869140625 180.0694580078125 214.1414794921875 182.6072998046875 207.8936462402344 183.51422119140625 204.476318359375 185.14892578125 193.1080017089844 184.2747802734375 182.0264892578125 177.93646240234375 170.24896240234375 177.3026123046875 169.07122802734375 " />
        <polyline stroke="black" stroke-width="3" stroke-linecap="round" fill="transparent" stroke-linejoin="round" points="85.36968994140625 131.4004364013672 93.44512939453124 135.27825927734375 101.3876953125 139.25009155273438 116.679931640625 147.21871948242188 119.6632080078125 151.13677978515625 119.88922119140624 151.4943084716797 " />
        </svg>