<?xml version="1.0" standalone="no"?>
    <svg width="256" height="256" xmlns="http://www.w3.org/2000/svg" version="1.1">
    <polyline stroke="black" stroke-width="3" stroke-linecap="round" fill="transparent" stroke-linejoin="round" points="89.47698974609375 81.41403198242188 96.9173583984375 78.57958984375 111.44384765625 73.2650146484375 131.63925170898438 67.950439453125 136.95379638671875 66.53323364257813 145.45712280273438 64.05308532714844 150.77169799804688 62.6358642578125 152.8975830078125 62.28157043457031 151.4803466796875 67.59614562988281 147.2286376953125 75.74514770507813 123.490234375 117.19882202148438 108.60943603515624 144.12600708007813 97.27166748046876 168.92735290527344 94.08294677734376 177.4306640625 93.01998901367188 198.68896484375 99.75180053710938 207.54656982421875 109.31805419921876 212.15255737304688 135.890869140625 216.758544921875 159.2750244140625 216.4042053222656 182.30487060546875 211.4439697265625 191.1624755859375 207.1922912597656 193.9969482421875 205.06646728515625 199.31146240234375 195.1459045410156 198.24853515625 181.3280029296875 193.642578125 168.92735290527344 193.642578125 168.92735290527344 " />
        <polyline stroke="black" stroke-width="3" stroke-linecap="round" fill="transparent" stroke-linejoin="round" points="102.58624267578124 121.09617614746094 108.255126953125 123.93063354492188 114.98690795898438 127.82797241210938 122.072998046875 133.14254760742188 138.37103271484375 149.08627319335938 138.37103271484375 149.08627319335938 " />
        </svg>