<?xml version="1.0" standalone="no"?>
    <svg width="256" height="256" xmlns="http://www.w3.org/2000/svg" version="1.1">
    <polyline stroke="black" stroke-width="3" stroke-linecap="round" fill="transparent" stroke-linejoin="round" points="85.46859741210938 80.07994079589844 92.18328857421876 76.30294799804688 100.57659912109376 72.10627746582031 108.55026245117188 68.74894714355469 125.3369140625 62.453948974609375 138.3465576171875 58.257293701171875 147.5792236328125 55.319610595703125 152.615234375 54.06062316894531 154.71356201171875 54.06062316894531 155.13323974609375 55.319610595703125 149.67758178710938 74.20462036132813 139.60556030273438 97.28627014160156 129.5335693359375 119.94827270507813 120.7205810546875 145.54791259765625 116.104248046875 165.69189453125 115.264892578125 180.38023376464844 118.20257568359376 190.87188720703125 120.7205810546875 193.8095703125 140.86459350585938 200.94390869140625 150.51690673828125 201.36355590820313 172.339599609375 198.0062255859375 177.7952880859375 195.90789794921875 185.3492431640625 191.71124267578125 191.64422607421875 183.31790161132813 192.48358154296875 179.12124633789063 189.5458984375 158.97723388671875 189.5458984375 158.97723388671875 " />
        <polyline stroke="black" stroke-width="3" stroke-linecap="round" fill="transparent" stroke-linejoin="round" points="108.13058471679688 117.01060485839844 114.00595092773438 118.6892547607422 121.14022827148438 121.20726013183594 140.02523803710938 132.5382537841797 150.09725952148438 140.93157958984375 150.09725952148438 140.93157958984375 " />
        </svg>