<?xml version="1.0" standalone="no"?>
    <svg width="256" height="256" xmlns="http://www.w3.org/2000/svg" version="1.1">
    <polyline stroke="black" stroke-width="3" stroke-linecap="round" fill="transparent" stroke-linejoin="round" points="35.63067626953125 100.21549987792967 36.28436279296875 102.17643737792967 42.82073974609375 113.28836059570313 46.0889892578125 114.59564208984376 56.54730224609375 113.28836059570313 62.4300537109375 110.67381286621094 62.4300537109375 110.67381286621094 " />
        <polyline stroke="black" stroke-width="3" stroke-linecap="round" fill="transparent" stroke-linejoin="round" points="80.73211669921875 91.71812438964844 77.4638671875 95.63999938964844 53.93267822265625 119.82479858398438 51.31817626953125 121.78573608398438 45.435302734375 127.014892578125 42.82073974609375 129.6294403076172 42.1671142578125 130.28311157226563 46.0889892578125 129.6294403076172 53.93267822265625 128.32215881347656 64.39105224609375 125.05393981933594 75.5029296875 120.47845458984376 85.30755615234375 113.28836059570313 91.19036865234376 106.75193786621094 93.15130615234376 103.48371887207033 93.15130615234376 103.48371887207033 " />
        <polyline stroke="black" stroke-width="3" stroke-linecap="round" fill="transparent" stroke-linejoin="round" points="58.50823974609375 87.14262390136719 50.66448974609375 129.6294403076172 50.0108642578125 141.39501953125 48.70355224609375 164.2725372314453 46.74261474609375 181.92092895507813 44.78167724609375 196.30108642578125 43.474365234375 198.91567993164065 44.1280517578125 196.9547119140625 45.435302734375 193.03286743164065 45.435302734375 193.03286743164065 " />
        <polyline stroke="black" stroke-width="3" stroke-linecap="round" fill="transparent" stroke-linejoin="round" points="66.3519287109375 158.38975524902344 76.81024169921875 161.657958984375 78.11749267578125 162.31163024902344 85.30755615234375 165.579833984375 99.03411865234376 164.2725372314453 110.14605712890624 155.1215362548828 110.14605712890624 155.1215362548828 " />
        <polyline stroke="black" stroke-width="3" stroke-linecap="round" fill="transparent" stroke-linejoin="round" points="121.91156005859376 87.14262390136719 126.48712158203124 115.24929809570313 127.1407470703125 118.51750183105467 127.79437255859376 119.17115783691406 129.1016845703125 111.3274383544922 129.1016845703125 108.71286010742188 129.1016845703125 108.71286010742188 " />
        <polyline stroke="black" stroke-width="3" stroke-linecap="round" fill="transparent" stroke-linejoin="round" points="132.369873046875 69.4942626953125 148.71099853515625 59.03596496582031 150.671875 58.38230895996094 159.16925048828125 55.114105224609375 168.32025146484375 53.80681610107422 173.5494384765625 54.46046447753906 177.4713134765625 58.38230895996094 178.12493896484375 69.4942626953125 173.5494384765625 87.79629516601563 168.97393798828125 97.60093688964844 165.05206298828125 105.44464111328124 165.05206298828125 105.44464111328124 " />
        <polyline stroke="black" stroke-width="3" stroke-linecap="round" fill="transparent" stroke-linejoin="round" points="150.01824951171875 83.22077941894531 166.35931396484375 79.29890441894531 169.6275634765625 78.645263671875 173.5494384765625 79.29890441894531 174.20306396484375 85.18168640136719 174.20306396484375 85.18168640136719 " />
        <polyline stroke="black" stroke-width="3" stroke-linecap="round" fill="transparent" stroke-linejoin="round" points="145.4427490234375 105.44464111328124 160.4765625 103.48371887207033 162.43743896484375 104.13737487792967 168.97393798828125 111.3274383544922 169.6275634765625 112.6347198486328 169.6275634765625 112.6347198486328 " />
        <polyline stroke="black" stroke-width="3" stroke-linecap="round" fill="transparent" stroke-linejoin="round" points="149.3646240234375 132.2440185546875 171.5885009765625 127.66851806640624 174.20306396484375 127.66851806640624 182.04681396484375 129.6294403076172 184.00775146484375 133.5513153076172 184.00775146484375 133.5513153076172 " />
        <polyline stroke="black" stroke-width="3" stroke-linecap="round" fill="transparent" stroke-linejoin="round" points="155.2474365234375 158.38975524902344 182.04681396484375 151.8533172607422 187.2760009765625 149.8924102783203 193.15869140625 147.9314727783203 193.81231689453125 147.9314727783203 193.81231689453125 147.9314727783203 " />
        <polyline stroke="black" stroke-width="3" stroke-linecap="round" fill="transparent" stroke-linejoin="round" points="166.35931396484375 154.4678955078125 167.6666259765625 193.68649291992188 167.6666259765625 203.49114990234375 167.6666259765625 219.83224487304688 171.5885009765625 230.94418334960935 171.5885009765625 230.94418334960935 " />
        </svg>