<?xml version="1.0" standalone="no"?>
    <svg width="256" height="256" xmlns="http://www.w3.org/2000/svg" version="1.1">
    <polyline stroke="black" stroke-width="3" stroke-linecap="round" fill="transparent" stroke-linejoin="round" points="61 77 63 77 68 77 83 77 104 77 141 77 159 77 170 77 177 77 180 76 182 76 182 76 182 76 " />
        <polyline stroke="black" stroke-width="3" stroke-linecap="round" fill="transparent" stroke-linejoin="round" points="61 144 66 145 81 145 102 145 132 145 161 145 180 145 185 145 185 145 185 145 " />
        <polyline stroke="black" stroke-width="3" stroke-linecap="round" fill="transparent" stroke-linejoin="round" points="39 205 39 205 45 206 56 208 79 211 118 215 164 219 205 219 229 219 239 219 240 219 240 219 240 219 " />
        </svg>