<?xml version="1.0" standalone="no"?>
    <svg width="256" height="256" xmlns="http://www.w3.org/2000/svg" version="1.1">
    <polyline stroke="black" stroke-width="3" stroke-linecap="round" fill="transparent" stroke-linejoin="round" points="92.33334350585938 108 89.66665649414063 112.44444274902344 87.88888549804688 116.00003051757813 87.88888549804688 117.7777862548828 91.4444580078125 117.7777862548828 105.66665649414063 114.22224426269533 121.66668701171876 107.11114501953124 131.4444580078125 102.6667022705078 136.77777099609375 100 140.33334350585938 97.33332824707033 141.22222900390625 97.33332824707033 141.22222900390625 96.4444580078125 140.33334350585938 96.4444580078125 141.22222900390625 97.33332824707033 143.888916015625 100 146.55557250976563 103.55555725097656 149.22222900390625 108 149.22222900390625 112.44444274902344 144.77777099609375 116.00003051757813 144.77777099609375 116.00003051757813 " />
        <polyline stroke="black" stroke-width="3" stroke-linecap="round" fill="transparent" stroke-linejoin="round" points="117.22225952148438 136.4444580078125 " />
        <polyline stroke="black" stroke-width="3" stroke-linecap="round" fill="transparent" stroke-linejoin="round" points="117 136 " />
        <polyline stroke="black" stroke-width="3" stroke-linecap="round" fill="transparent" stroke-linejoin="round" points="132.33334350585938 140.88890075683594 119.88888549804688 162.22222900390625 104.77777099609376 180.88888549804688 90.55557250976563 195.11111450195313 77.22225952148438 205.77777099609375 72.77780151367188 204.888916015625 67.4444580078125 199.5555725097656 67.4444580078125 199.5555725097656 " />
        <polyline stroke="black" stroke-width="3" stroke-linecap="round" fill="transparent" stroke-linejoin="round" points="135.88888549804688 195.11111450195313 163.4444580078125 209.3333740234375 186.5555725097656 224.4444580078125 207 240.44448852539065 207 240.44448852539065 " />
        </svg>