<?xml version="1.0" standalone="no"?>
    <svg width="256" height="256" xmlns="http://www.w3.org/2000/svg" version="1.1">
    <polyline stroke="black" stroke-width="3" stroke-linecap="round" fill="transparent" stroke-linejoin="round" points="103.65557861328124 67.61485290527344 99.76812744140624 76.50050354003906 96.9913330078125 85.38613891601563 94.214599609375 92.05036926269533 91.43783569335938 98.15924072265624 90.3271484375 103.15740966796876 90.3271484375 107.0448760986328 90.3271484375 109.26628112792967 91.43783569335938 111.48770141601563 94.214599609375 111.48770141601563 100.323486328125 108.7109375 110.31982421875 104.2681121826172 122.53756713867188 98.15924072265624 133.64459228515625 90.93966674804688 141.97491455078125 84.83078002929688 150.86053466796875 74.83444213867188 150.86053466796875 74.83444213867188 " />
        <polyline stroke="black" stroke-width="3" stroke-linecap="round" fill="transparent" stroke-linejoin="round" points="156.96942138671875 78.16654968261719 160.85687255859375 86.49684143066406 164.18896484375 97.6038818359375 164.18896484375 97.6038818359375 " />
        <polyline stroke="black" stroke-width="3" stroke-linecap="round" fill="transparent" stroke-linejoin="round" points="94.214599609375 148.14096069335938 97.54669189453124 154.80519104003906 101.98953247070313 160.35870361328125 108.098388671875 163.69082641601563 115.3179931640625 163.13546752929688 115.3179931640625 163.13546752929688 " />
        <polyline stroke="black" stroke-width="3" stroke-linecap="round" fill="transparent" stroke-linejoin="round" points="143.08560180664063 149.2516632080078 111.43051147460938 193.67984008789065 98.10205078125 208.1190185546875 82.55218505859375 221.44747924804688 68.66839599609375 229.77777099609375 68.66839599609375 229.77777099609375 " />
        <polyline stroke="black" stroke-width="3" stroke-linecap="round" fill="transparent" stroke-linejoin="round" points="73.66656494140625 165.9122314453125 88.105712890625 178.12998962402344 114.207275390625 198.67800903320313 136.97674560546875 213.67254638671875 154.192626953125 223.113525390625 170.85321044921875 233.66522216796875 184.181640625 244.77227783203125 184.181640625 244.77227783203125 " />
        </svg>