<?xml version="1.0" standalone="no"?>
    <svg width="256" height="256" xmlns="http://www.w3.org/2000/svg" version="1.1">
    <polyline stroke="black" stroke-width="3" stroke-linecap="round" fill="transparent" stroke-linejoin="round" points="122.4000244140625 72.60000610351563 115.73336791992188 80.60000610351563 107.73336791992188 89.40000915527344 97.60003662109376 99.26667785644533 95.46673583984376 101.40000915527344 95.73336791992188 101.40000915527344 99.46673583984376 101.40000915527344 110.4000244140625 99.53335571289063 119.20001220703124 97.13336181640624 128.00003051757813 94.7333526611328 135.46673583984375 92.60000610351563 141.86669921875 89.93333435058594 146.13336181640625 87.80000305175781 146.13336181640625 87.80000305175781 " />
        <polyline stroke="black" stroke-width="3" stroke-linecap="round" fill="transparent" stroke-linejoin="round" points="163.73333740234375 80.06668090820313 166.933349609375 84.33334350585938 172 91.26667785644533 175.20001220703125 95.00001525878906 176.2667236328125 96.86666870117188 176.2667236328125 96.86666870117188 " />
        <polyline stroke="black" stroke-width="3" stroke-linecap="round" fill="transparent" stroke-linejoin="round" points="132.53338623046875 120.60000610351563 132.53338623046875 123.26667785644533 132.53338623046875 128.86668395996094 132.2667236328125 134.73336791992188 132.2667236328125 134.73336791992188 " />
        <polyline stroke="black" stroke-width="3" stroke-linecap="round" fill="transparent" stroke-linejoin="round" points="148.800048828125 140.60000610351563 140 150.73336791992188 129.06671142578125 161.40000915527344 117.06671142578124 172.06668090820313 105.60003662109376 181.4000244140625 90.933349609375 191.2666931152344 83.46673583984375 194.73336791992188 80.2667236328125 195.53335571289065 80.2667236328125 195.53335571289065 " />
        <polyline stroke="black" stroke-width="3" stroke-linecap="round" fill="transparent" stroke-linejoin="round" points="102.4000244140625 143.53335571289063 113.06671142578124 152.33335876464844 122.4000244140625 158.73336791992188 133.3333740234375 165.13336181640625 144.2667236328125 171.00001525878906 159.20001220703125 177.66668701171875 166.4000244140625 180.86668395996097 169.3333740234375 181.933349609375 169.60003662109375 181.933349609375 169.60003662109375 181.933349609375 " />
        </svg>