<?xml version="1.0" standalone="no"?>
    <svg width="256" height="256" xmlns="http://www.w3.org/2000/svg" version="1.1">
    <polyline stroke="black" stroke-width="3" stroke-linecap="round" fill="transparent" stroke-linejoin="round" points="108.1708984375 50.43572998046875 96.3443603515625 71.00361633300781 81.94683837890625 97.22767639160156 76.2906494140625 110.08261108398438 72.6912841796875 118.82395935058594 71.66290283203125 123.45173645019533 74.23388671875 123.45173645019533 80.40423583984375 119.33816528320313 94.28756713867188 110.5968017578125 112.79864501953124 100.3128662109375 130.2813720703125 92.08570861816406 142.62210083007813 86.9437255859375 154.96282958984375 79.74496459960938 154.96282958984375 79.74496459960938 " />
        <polyline stroke="black" stroke-width="3" stroke-linecap="round" fill="transparent" stroke-linejoin="round" points="164.2183837890625 67.40423583984375 167.8177490234375 75.63139343261719 172.959716796875 87.97212219238281 178.1016845703125 106.99742126464844 178.1016845703125 106.99742126464844 " />
        <polyline stroke="black" stroke-width="3" stroke-linecap="round" fill="transparent" stroke-linejoin="round" points="98.401123046875 137.33506774902344 103.54312133789063 147.1048126220703 109.19927978515624 154.81776428222656 115.36962890625 159.44554138183594 127.1961669921875 159.95974731445313 127.1961669921875 159.95974731445313 " />
        <polyline stroke="black" stroke-width="3" stroke-linecap="round" fill="transparent" stroke-linejoin="round" points="159.076416015625 136.30667114257813 147.76406860351563 157.9029541015625 137.48013305664063 173.8430633544922 123.5968017578125 190.29736328125 103.54312133789063 210.86526489257813 88.63140869140625 220.635009765625 74.748046875 226.29116821289065 74.748046875 226.29116821289065 " />
        <polyline stroke="black" stroke-width="3" stroke-linecap="round" fill="transparent" stroke-linejoin="round" points="65.49252319335938 182.0702209472656 78.86163330078125 188.7547912597656 103.0289306640625 201.09552001953125 126.16778564453124 211.8936462402344 148.27825927734375 220.12081909179688 163.19000244140625 224.74859619140625 176.55914306640625 228.8621826171875 190.9566650390625 232.4615478515625 190.9566650390625 232.4615478515625 " />
        </svg>