<?xml version="1.0" standalone="no"?>
    <svg width="256" height="256" xmlns="http://www.w3.org/2000/svg" version="1.1">
    <polyline stroke="black" stroke-width="3" stroke-linecap="round" fill="transparent" stroke-linejoin="round" points="116 52 117 51 118 51 117 55 112 65 105 77 103 81 95 94 87 107 85 109 83 113 84 114 86 112 89 111 92 109 95 108 97 107 103 106 105 106 117 103 131 101 140 98 143 98 145 98 144 99 144 99 " />
        <polyline stroke="black" stroke-width="3" stroke-linecap="round" fill="transparent" stroke-linejoin="round" points="141 79 141 78 141 82 144 93 149 105 154 113 159 121 159 121 " />
        <polyline stroke="black" stroke-width="3" stroke-linecap="round" fill="transparent" stroke-linejoin="round" points="107 134 108 137 111 142 114 145 115 147 115 147 " />
        <polyline stroke="black" stroke-width="3" stroke-linecap="round" fill="transparent" stroke-linejoin="round" points="139 131 137 138 132 148 125 160 123 164 112 180 108 186 92 206 81 219 77 221 77 221 " />
        <polyline stroke="black" stroke-width="3" stroke-linecap="round" fill="transparent" stroke-linejoin="round" points="84 157 85 160 90 166 98 174 110 185 125 200 142 214 155 222 160 224 174 229 178 230 178 230 " />
        </svg>