<?xml version="1.0" standalone="no"?>
    <svg width="256" height="256" xmlns="http://www.w3.org/2000/svg" version="1.1">
    <polyline stroke="black" stroke-width="3" stroke-linecap="round" fill="transparent" stroke-linejoin="round" points="126 41 128 42 129 43 130 44 131 46 132 47 132 48 133 50 133 52 133 54 133 57 133 60 132 63 131 66 130 69 128 72 127 74 125 77 123 80 120 82 " />
        <polyline stroke="black" stroke-width="3" stroke-linecap="round" fill="transparent" stroke-linejoin="round" points="78 102 78 102 78 102 78 102 78 102 78 101 78 101 79 100 80 99 81 98 82 97 84 96 86 95 88 94 91 92 93 91 96 89 100 88 103 86 107 85 111 83 115 81 119 80 123 78 128 76 132 75 137 73 142 71 147 69 151 68 156 66 160 65 164 63 168 62 172 61 175 60 178 59 181 58 183 58 185 57 187 57 188 57 189 58 189 58 " />
        <polyline stroke="black" stroke-width="3" stroke-linecap="round" fill="transparent" stroke-linejoin="round" points="82 119 81 122 81 123 81 124 82 125 82 125 82 126 83 127 83 128 84 128 84 129 85 130 86 131 86 132 87 133 88 133 89 134 91 135 92 136 93 137 95 138 97 139 99 139 101 140 103 140 " />
        <polyline stroke="black" stroke-width="3" stroke-linecap="round" fill="transparent" stroke-linejoin="round" points="124 111 124 111 124 110 124 110 124 110 124 110 124 110 124 110 123 111 122 112 121 113 120 115 118 116 116 119 114 121 112 124 110 127 108 130 105 133 103 136 100 139 98 142 96 145 93 148 91 150 89 152 87 154 86 155 84 156 83 158 82 158 81 159 80 160 79 160 79 160 78 161 78 161 78 161 78 161 78 161 78 161 78 160 79 160 80 159 81 158 82 157 84 155 85 154 87 153 90 151 92 150 95 148 98 146 101 144 104 143 107 141 110 139 114 137 117 135 120 132 123 130 126 128 128 126 131 124 133 122 135 120 " />
        <polyline stroke="black" stroke-width="3" stroke-linecap="round" fill="transparent" stroke-linejoin="round" points="111 91 111 91 110 92 109 94 108 97 107 100 106 104 105 108 105 113 104 119 103 124 103 129 103 135 102 141 102 147 102 153 102 159 102 164 102 169 103 174 103 179 103 183 103 187 103 190 103 193 103 196 102 198 102 200 102 202 102 203 102 204 102 205 102 205 102 205 " />
        <polyline stroke="black" stroke-width="3" stroke-linecap="round" fill="transparent" stroke-linejoin="round" points="105 172 106 171 107 171 107 171 108 171 109 171 109 171 110 171 111 171 111 171 112 172 113 172 114 172 115 173 117 173 118 174 120 175 121 175 123 176 125 177 127 177 129 178 131 178 134 179 137 179 " />
        <polyline stroke="black" stroke-width="3" stroke-linecap="round" fill="transparent" stroke-linejoin="round" points="132 110 131 110 131 110 132 110 132 110 133 110 134 111 135 111 136 112 137 113 139 114 140 115 142 117 144 118 145 119 147 121 149 122 151 124 152 125 154 126 156 127 157 128 158 129 160 130 161 131 162 131 164 131 165 131 167 130 168 129 " />
        <polyline stroke="black" stroke-width="3" stroke-linecap="round" fill="transparent" stroke-linejoin="round" points="179 88 179 88 179 88 179 88 179 88 178 88 178 88 178 88 178 88 178 89 177 90 176 92 175 95 174 98 173 101 171 104 169 108 167 112 165 115 162 119 160 123 157 126 155 130 153 133 150 135 148 138 146 140 145 142 143 143 142 145 140 146 139 146 138 147 137 147 137 147 136 147 136 147 135 147 135 147 135 147 136 147 136 146 137 145 138 144 139 143 141 142 142 141 145 139 147 138 150 136 152 134 156 133 159 131 162 129 165 128 169 126 172 124 176 123 179 121 182 119 185 118 188 116 191 114 193 113 196 111 198 109 200 108 " />
        <polyline stroke="black" stroke-width="3" stroke-linecap="round" fill="transparent" stroke-linejoin="round" points="172 77 172 77 171 79 170 81 168 85 167 89 166 94 165 100 164 107 163 113 162 120 161 126 160 133 160 139 159 145 158 152 158 158 157 163 156 169 155 178 155 182 154 186 154 189 154 192 153 195 153 197 152 199 152 200 152 201 152 201 152 201 153 201 " />
        <polyline stroke="black" stroke-width="3" stroke-linecap="round" fill="transparent" stroke-linejoin="round" points="165 159 168 158 169 158 170 159 171 159 172 160 173 161 175 162 177 164 178 166 180 168 182 170 184 173 186 176 188 179 190 182 193 185 195 189 197 192 200 196 203 199 " />
        </svg>