<?xml version="1.0" standalone="no"?>
    <svg width="256" height="256" xmlns="http://www.w3.org/2000/svg" version="1.1">
    <polyline stroke="black" stroke-width="3" stroke-linecap="round" fill="transparent" stroke-linejoin="round" points="67.537353515625 125.5489501953125 87.125 126.16107177734376 104.87628173828124 123.71261596679688 126.30023193359376 117.59147644042967 144.66363525390625 111.47035217285156 159.96649169921875 102.9007568359375 172.82086181640625 90.6584930419922 180.166259765625 74.74354553222656 178.9420166015625 63.11338806152344 173.4329833984375 55.768035888671875 162.4149169921875 50.871124267578125 148.94842529296875 52.09535217285156 140.37884521484375 56.99226379394531 132.42138671875 65.56184387207031 120.79119873046876 85.14947509765625 107.93682861328124 113.91880798339844 95.694580078125 143.3002471923828 84.676513671875 165.9484405517578 76.10693359375 178.8028106689453 69.37371826171875 187.98452758789065 63.2525634765625 193.4935302734375 60.804107666015625 193.4935302734375 63.86468505859375 187.37240600585935 76.71905517578125 164.11209106445313 88.96133422851563 147.5850372314453 96.9188232421875 140.85179138183594 106.10049438476563 137.17910766601563 114.0579833984375 136.56700134277344 125.6881103515625 139.6275634765625 139.15460205078125 146.36080932617188 154.45745849609375 154.93038940429688 166.69970703125 162.8878631591797 174.6572265625 167.17266845703125 180.166259765625 170.2332305908203 183.226806640625 170.2332305908203 183.226806640625 170.2332305908203 " />
        <polyline stroke="black" stroke-width="3" stroke-linecap="round" fill="transparent" stroke-linejoin="round" points="35.70745849609375 211.24481201171875 55.29510498046875 210.0205993652344 77.3311767578125 206.96002197265625 111.60952758789063 202.0631103515625 144.66363525390625 199.61468505859375 168.53607177734375 199.0025634765625 191.79638671875 198.39044189453125 207.0992431640625 198.39044189453125 217.505126953125 196.5541076660156 224.2384033203125 194.7177734375 224.2384033203125 194.7177734375 " />
        </svg>