<?xml version="1.0" standalone="no"?>
    <svg width="256" height="256" xmlns="http://www.w3.org/2000/svg" version="1.1">
    <polyline stroke="black" stroke-width="3" stroke-linecap="round" fill="transparent" stroke-linejoin="round" points="69.22430419921875 135.74893188476563 79.0780029296875 132.87493896484375 92.62689208984376 129.59036254882813 109.46029663085938 125.4846649169922 126.70428466796876 121.78952026367188 141.89535522460938 118.50494384765624 154.623046875 115.22036743164063 159.5499267578125 113.57809448242188 168.58251953125 108.24069213867188 170.22479248046875 106.18780517578124 170.22479248046875 106.18780517578124 " />
        <polyline stroke="black" stroke-width="3" stroke-linecap="round" fill="transparent" stroke-linejoin="round" points="140.66366577148438 67.18356323242188 135.32626342773438 84.0169677734375 132.86279296875 92.63897705078124 120.13510131835938 126.3057861328125 109.04974365234376 150.94004821777344 98.785400390625 170.64744567871094 88.93173217773438 186.65972900390625 80.72030639648438 197.3345642089844 80.72030639648438 197.3345642089844 " />
        <polyline stroke="black" stroke-width="3" stroke-linecap="round" fill="transparent" stroke-linejoin="round" points="126.29367065429688 122.6106414794922 137.37908935546875 127.94808959960938 147.64337158203125 134.9277801513672 159.13934326171875 143.1392059326172 168.58251953125 150.94004821777344 175.9727783203125 157.50918579101563 181.3101806640625 163.66775512695313 181.3101806640625 163.66775512695313 " />
        <polyline stroke="black" stroke-width="3" stroke-linecap="round" fill="transparent" stroke-linejoin="round" points="31.04119873046875 226.485107421875 56.907196044921875 217.4525451660156 78.25689697265625 212.1151123046875 104.12286376953124 207.59884643554688 129.16766357421875 204.724853515625 153.391357421875 203.49313354492188 164.06622314453125 203.49313354492188 189.5216064453125 202.6719970703125 200.6070556640625 201.44027709960935 204.7127685546875 201.02972412109375 210.871337890625 200.20855712890625 213.74530029296875 199.79800415039065 214.97698974609375 199.79800415039065 214.97698974609375 199.79800415039065 " />
        </svg>