<?xml version="1.0" standalone="no"?>
    <svg width="256" height="256" xmlns="http://www.w3.org/2000/svg" version="1.1">
    <polyline stroke="black" stroke-width="3" stroke-linecap="round" fill="transparent" stroke-linejoin="round" points="86 60 85 63 84 68 83 74 82 82 81 88 80 95 79 101 79 106 79 110 80 113 80 114 81 114 " />
        <polyline stroke="black" stroke-width="3" stroke-linecap="round" fill="transparent" stroke-linejoin="round" points="94 74 100 71 107 68 115 65 123 63 132 61 145 57 153 56 161 55 168 56 173 57 178 60 182 63 184 69 185 75 184 82 179 92 178 95 173 99 171 100 " />
        <polyline stroke="black" stroke-width="3" stroke-linecap="round" fill="transparent" stroke-linejoin="round" points="138 35 139 38 138 51 135 63 132 77 128 94 123 111 118 128 114 143 109 157 104 169 97 183 94 190 92 193 91 194 " />
        <polyline stroke="black" stroke-width="3" stroke-linecap="round" fill="transparent" stroke-linejoin="round" points="124 155 128 156 134 157 140 160 147 164 154 168 161 174 169 179 176 185 184 192 188 195 192 199 " />
        </svg>