<?xml version="1.0" standalone="no"?>
    <svg width="256" height="256" xmlns="http://www.w3.org/2000/svg" version="1.1">
    <polyline stroke="black" stroke-width="3" stroke-linecap="round" fill="transparent" stroke-linejoin="round" points="61 89 63 96 64 102 65 111 65 114 66 121 67 122 68 125 68 128 69 130 70 130 70 132 71 132 " />
        <polyline stroke="black" stroke-width="3" stroke-linecap="round" fill="transparent" stroke-linejoin="round" points="63 77 65 77 66 76 71 75 78 73 80 73 91 72 95 71 109 69 119 69 129 69 139 70 153 73 160 75 166 78 171 80 174 83 175 85 177 91 177 93 175 102 173 107 168 114 166 116 163 118 161 118 " />
        <polyline stroke="black" stroke-width="3" stroke-linecap="round" fill="transparent" stroke-linejoin="round" points="130 40 129 44 128 47 125 59 122 69 119 81 117 88 108 120 104 137 100 152 99 160 94 178 93 183 90 194 90 197 90 199 " />
        <polyline stroke="black" stroke-width="3" stroke-linecap="round" fill="transparent" stroke-linejoin="round" points="115 140 118 142 123 145 127 148 131 152 133 155 138 161 144 168 154 182 162 192 166 197 " />
        </svg>