<?xml version="1.0" standalone="no"?>
    <svg width="256" height="256" xmlns="http://www.w3.org/2000/svg" version="1.1">
    <polyline stroke="black" stroke-width="3" stroke-linecap="round" fill="transparent" stroke-linejoin="round" points="62.88043212890625 113.12698364257813 65.85055541992188 143.15809631347656 65.85055541992188 145.46820068359375 65.5205078125 148.10829162597656 65.5205078125 148.10829162597656 65.5205078125 148.10829162597656 " />
        <polyline stroke="black" stroke-width="3" stroke-linecap="round" fill="transparent" stroke-linejoin="round" points="89.61141967773438 83.42587280273438 131.52301025390625 57.02488708496094 138.12322998046875 55.37481689453125 156.60400390625 56.694854736328125 171.12451171875 67.91529846191406 181.02490234375 84.74592590332031 185.64501953125 106.5267333984375 183.3349609375 127.97756958007813 172.7745361328125 142.16806030273438 168.1544189453125 144.4781494140625 168.1544189453125 144.4781494140625 " />
        <polyline stroke="black" stroke-width="3" stroke-linecap="round" fill="transparent" stroke-linejoin="round" points="122.94265747070313 47.78453063964844 112.05224609375 119.06721496582033 108.42214965820313 131.2776641845703 94.23162841796876 166.5889892578125 79.38104248046875 199.26022338867188 68.49066162109375 218.07095336914065 64.86053466796875 223.35113525390625 64.86053466796875 223.35113525390625 64.86053466796875 223.35113525390625 " />
        <polyline stroke="black" stroke-width="3" stroke-linecap="round" fill="transparent" stroke-linejoin="round" points="118.98251342773438 175.16932678222656 124.26275634765624 178.13943481445313 157.26397705078125 195.9600830078125 163.8642578125 200.250244140625 182.6749267578125 213.45074462890625 182.6749267578125 213.45074462890625 " />
        </svg>