<?xml version="1.0" standalone="no"?>
    <svg width="256" height="256" xmlns="http://www.w3.org/2000/svg" version="1.1">
    <polyline stroke="black" stroke-width="3" stroke-linecap="round" fill="transparent" stroke-linejoin="round" points="63.7373046875 123.09300231933594 65.04461669921875 140.7413787841797 65.04461669921875 142.0486602783203 65.04461669921875 138.12681579589844 65.04461669921875 138.12681579589844 " />
        <polyline stroke="black" stroke-width="3" stroke-linecap="round" fill="transparent" stroke-linejoin="round" points="77.4638671875 98.25456237792967 108.18505859375 81.25985717773438 116.6824951171875 77.33798217773438 134.330810546875 71.4552001953125 150.01824951171875 68.18696594238281 162.43743896484375 68.84062194824219 170.28118896484375 79.95256042480469 169.6275634765625 98.25456237792967 161.78387451171875 115.24929809570313 151.97918701171875 125.70758056640624 146.75006103515625 127.014892578125 146.75006103515625 127.014892578125 " />
        <polyline stroke="black" stroke-width="3" stroke-linecap="round" fill="transparent" stroke-linejoin="round" points="110.14605712890624 87.14262390136719 97.72674560546876 142.0486602783203 93.80499267578124 154.4678955078125 87.922119140625 171.46263122558594 79.42474365234375 193.03286743164065 78.11749267578125 200.8765563964844 78.77117919921875 204.14480590820313 78.77117919921875 204.14480590820313 " />
        <polyline stroke="black" stroke-width="3" stroke-linecap="round" fill="transparent" stroke-linejoin="round" points="124.52618408203124 168.1944122314453 150.01824951171875 194.9937744140625 157.2083740234375 202.18389892578125 174.856689453125 213.2958068847656 184.66131591796875 217.87130737304688 184.66131591796875 217.87130737304688 " />
        </svg>