<?xml version="1.0" standalone="no"?>
    <svg width="256" height="256" xmlns="http://www.w3.org/2000/svg" version="1.1">
    <polyline stroke="black" stroke-width="3" stroke-linecap="round" fill="transparent" stroke-linejoin="round" points="94.76776123046871 40.48042297363281 94.42681884765624 44.57200622558594 94.08587646484376 48.66358947753906 93.40390014648438 53.437103271484375 92.38104248046876 58.21063232421875 84.538818359375 75.599853515625 72.94598388671875 90.60235595703124 72.94598388671875 90.60235595703124 " />
        <polyline stroke="black" stroke-width="3" stroke-linecap="round" fill="transparent" stroke-linejoin="round" points="38.849517822265625 103.90002441406251 45.32781982421875 100.14938354492188 51.806121826171875 96.39874267578124 57.94354248046875 92.64813232421876 71.58212280273438 85.82882690429688 85.56170654296875 80.03240966796875 101.24609375 74.57696533203125 117.271484375 69.46247863769531 124.772705078125 68.0986328125 125.79562377929688 68.43959045410156 125.79562377929688 68.43959045410156 " />
        <polyline stroke="black" stroke-width="3" stroke-linecap="round" fill="transparent" stroke-linejoin="round" points="41.5771484375 142.77005004882813 48.055511474609375 140.04232788085938 54.53387451171875 137.31460571289063 61.694091796875 134.58688354492188 80.44723510742188 128.44949340820313 91.01718139648438 125.0398406982422 99.541259765625 121.97116088867188 104.99676513671876 118.22052001953124 106.7015380859375 116.51571655273438 106.7015380859375 116.51571655273438 " />
        <polyline stroke="black" stroke-width="3" stroke-linecap="round" fill="transparent" stroke-linejoin="round" points="93.744873046875 92.64816284179688 88.2894287109375 102.87710571289063 82.833984375 113.10604858398438 77.03756713867188 124.69888305664063 70.90020751953125 137.6555633544922 61.01220703125 162.8870086669922 55.215789794921875 179.93527221679688 52.488037109375 188.80035400390625 51.12420654296875 192.55099487304688 50.783203125 192.2100524902344 51.12420654296875 190.84616088867188 56.23870849609375 176.52561950683594 59.6483154296875 169.36534118652344 62.376068115234375 165.27374267578125 66.46762084960938 162.8870086669922 73.9688720703125 162.20506286621094 78.40142822265625 163.22796630859375 94.42681884765624 170.72921752929688 104.31478881835938 176.18466186523438 113.5208740234375 180.27622985839844 117.95343017578124 180.95816040039065 124.43173217773438 180.95816040039065 124.43173217773438 180.95816040039065 " />
        <polyline stroke="black" stroke-width="3" stroke-linecap="round" fill="transparent" stroke-linejoin="round" points="136.70654296875 112.42410278320317 141.48004150390625 110.7192840576172 146.2535400390625 109.01446533203124 151.3680419921875 107.65060424804688 161.93798828125 104.5819091796875 166.71142578125 103.2180633544922 175.91754150390625 100.49034118652344 180.0091552734375 99.46743774414063 188.19232177734375 96.39874267578124 192.6248779296875 92.64813232421876 192.6248779296875 92.64813232421876 " />
        <polyline stroke="black" stroke-width="3" stroke-linecap="round" fill="transparent" stroke-linejoin="round" points="187.16949462890625 49.686492919921875 185.1236572265625 60.9383544921875 183.07781982421875 72.19021606445313 181.031982421875 86.51075744628906 178.9862060546875 99.80841064453124 176.5994873046875 114.46990966796876 171.14404296875 139.0194091796875 168.416259765625 148.5664520263672 163.30181884765625 165.9556884765625 159.210205078125 177.5485076904297 155.4595947265625 186.0726318359375 154.43670654296875 188.45941162109375 154.43670654296875 188.45941162109375 " />
        <polyline stroke="black" stroke-width="3" stroke-linecap="round" fill="transparent" stroke-linejoin="round" points="172.50787353515625 123.67596435546875 182.3958740234375 136.29168701171875 192.28387451171875 148.90740966796875 202.853759765625 164.59182739257813 212.7418212890625 183.34490966796875 219.902099609375 198.6883544921875 219.902099609375 198.6883544921875 " />
        </svg>