<?xml version="1.0" standalone="no"?>
    <svg width="256" height="256" xmlns="http://www.w3.org/2000/svg" version="1.1">
    <polyline stroke="black" stroke-width="3" stroke-linecap="round" fill="transparent" stroke-linejoin="round" points="65.60516357421875 21.004653930664063 72.010986328125 33.38929748535156 74.14630126953125 38.94103240966797 76.28158569335938 44.919830322265625 79.27096557617188 57.731536865234375 80.12509155273438 65.84561157226563 80.12509155273438 65.84561157226563 " />
        <polyline stroke="black" stroke-width="3" stroke-linecap="round" fill="transparent" stroke-linejoin="round" points="22.472412109375 105.98893737792967 36.13824462890625 98.72897338867188 43.825286865234375 95.31253051757813 51.9393310546875 91.89607238769533 66.88632202148438 86.77139282226563 82.68743896484375 82.92788696289063 101.90496826171876 79.9384765625 110.8731689453125 78.65731811523438 110.8731689453125 78.65731811523438 " />
        <polyline stroke="black" stroke-width="3" stroke-linecap="round" fill="transparent" stroke-linejoin="round" points="45.53350830078125 137.59115600585938 60.90753173828125 132.03941345214844 67.74044799804688 129.47708129882813 75.00042724609375 127.341796875 81.83331298828125 125.20651245117188 95.49911499023438 120.50888061523438 107.02963256835938 115.38420104980467 114.7166748046875 109.83245849609376 114.7166748046875 109.83245849609376 " />
        <polyline stroke="black" stroke-width="3" stroke-linecap="round" fill="transparent" stroke-linejoin="round" points="73.71923828125 92.7501983642578 69.44866943359375 104.707763671875 61.76165771484375 129.90414428710938 52.36639404296875 160.65220642089844 48.52288818359375 174.31802368164063 42.5440673828125 193.53558349609375 38.273529052734375 205.4931640625 37.846435546875 206.3472900390625 37.846435546875 206.3472900390625 " />
        <polyline stroke="black" stroke-width="3" stroke-linecap="round" fill="transparent" stroke-linejoin="round" points="72.8651123046875 139.29937744140625 83.54156494140625 148.26756286621094 87.81210327148438 152.11106872558594 102.33203125 164.06866455078125 107.45672607421876 167.485107421875 112.58139038085938 169.6204071044922 112.58139038085938 169.6204071044922 " />
        <polyline stroke="black" stroke-width="3" stroke-linecap="round" fill="transparent" stroke-linejoin="round" points="124.11190795898438 105.13482666015624 139.05892944335938 101.29132080078124 145.89181518554688 100.01016235351563 154.00592041015625 98.72897338867188 162.1199951171875 97.44781494140624 177.4940185546875 94.88546752929688 191.15985107421875 93.17724609375 196.71160888671875 91.89607238769533 209.09619140625 87.62550354003906 213.3668212890625 84.6361083984375 213.3668212890625 84.6361083984375 " />
        <polyline stroke="black" stroke-width="3" stroke-linecap="round" fill="transparent" stroke-linejoin="round" points="182.191650390625 47.48217010498047 180.4833984375 59.43975830078125 179.2022705078125 67.12678527832031 177.4940185546875 76.9490966796875 175.3587646484375 88.90667724609375 170.23406982421875 115.38420104980467 165.9635009765625 141.43467712402344 162.54705810546875 162.36044311523438 159.5576171875 176.45330810546875 156.99530029296875 186.70266723632813 154.86004638671875 192.25439453125 154.86004638671875 192.25439453125 " />
        <polyline stroke="black" stroke-width="3" stroke-linecap="round" fill="transparent" stroke-linejoin="round" points="175.78582763671875 111.11363220214844 188.5975341796875 120.08181762695313 192.86810302734375 124.35238647460938 203.117431640625 135.4558563232422 208.669189453125 141.86172485351563 224.043212890625 164.06866455078125 234.2926025390625 183.2862243652344 238.1361083984375 192.25439453125 238.1361083984375 192.25439453125 " />
        </svg>