<?xml version="1.0" standalone="no"?>
    <svg width="256" height="256" xmlns="http://www.w3.org/2000/svg" version="1.1">
    <polyline stroke="black" stroke-width="3" stroke-linecap="round" fill="transparent" stroke-linejoin="round" points="89.72717285156253 33.320152282714844 91.09100341796876 37.41173553466797 92.454833984375 41.503318786621094 93.47775268554688 46.958763122558594 90.75 67.75765991210938 90.75 67.75765991210938 " />
        <polyline stroke="black" stroke-width="3" stroke-linecap="round" fill="transparent" stroke-linejoin="round" points="55.9715576171875 83.10110473632813 61.427001953125 80.37338256835938 66.8824462890625 77.64566040039063 71.99691772460938 75.2589111328125 77.7933349609375 72.53117370605469 90.06808471679688 67.41668701171875 95.52352905273438 65.37089538574219 105.75253295898438 61.96125793457031 112.91278076171876 60.25640869140625 115.6405029296875 59.91545104980469 115.6405029296875 59.91545104980469 " />
        <polyline stroke="black" stroke-width="3" stroke-linecap="round" fill="transparent" stroke-linejoin="round" points="43.355804443359375 150.9532012939453 48.470306396484375 147.884521484375 53.584808349609375 144.8158416748047 59.040252685546875 142.08811950683594 69.61019897460938 136.9736328125 75.40658569335938 134.24591064453125 92.1138916015625 127.08563232421876 102.00189208984376 122.31211853027344 102.00189208984376 122.31211853027344 " />
        <polyline stroke="black" stroke-width="3" stroke-linecap="round" fill="transparent" stroke-linejoin="round" points="96.20538330078125 81.39630126953125 90.75 101.17227172851563 85.29461669921875 120.9482421875 81.88494873046875 132.54107666015625 78.47528076171875 143.1110076904297 71.31500244140625 165.61473083496094 65.5185546875 183.68588256835935 63.4727783203125 190.84616088867188 63.4727783203125 190.84616088867188 " />
        <polyline stroke="black" stroke-width="3" stroke-linecap="round" fill="transparent" stroke-linejoin="round" points="75.74755859375 159.8183135986328 80.86203002929688 163.22796630859375 85.97650146484375 166.6376190185547 102.00189208984376 177.20755004882813 111.20794677734376 181.64010620117188 111.20794677734376 181.64010620117188 " />
        <polyline stroke="black" stroke-width="3" stroke-linecap="round" fill="transparent" stroke-linejoin="round" points="125.86944580078125 104.58190917968753 132.0068359375 103.2180633544922 138.14422607421875 101.85421752929688 145.30450439453125 100.49034118652344 160.9888916015625 97.42164611816406 168.83111572265625 95.71682739257813 175.650390625 94.35295104980467 186.2203369140625 90.60235595703124 191.3348388671875 87.53366088867188 191.3348388671875 87.53366088867188 " />
        <polyline stroke="black" stroke-width="3" stroke-linecap="round" fill="transparent" stroke-linejoin="round" points="178.71905517578125 44.571990966796875 173.945556640625 56.164825439453125 169.17205810546875 67.75765991210938 154.85150146484375 110.037353515625 145.98641967773438 142.77005004882813 137.80322265625 172.43402099609375 134.39361572265625 185.3907165527344 129.96102905273438 204.82574462890625 125.86947631835938 219.48724365234375 125.86947631835938 219.48724365234375 " />
        <polyline stroke="black" stroke-width="3" stroke-linecap="round" fill="transparent" stroke-linejoin="round" points="158.6021728515625 120.26634216308597 162.352783203125 126.7446746826172 166.1033935546875 133.22300720214844 184.8564453125 170.3882293701172 189.970947265625 181.98106384277344 201.90478515625 209.25830078125 201.90478515625 209.25830078125 " />
        </svg>