<?xml version="1.0" standalone="no"?>
    <svg width="256" height="256" xmlns="http://www.w3.org/2000/svg" version="1.1">
    <polyline stroke="black" stroke-width="3" stroke-linecap="round" fill="transparent" stroke-linejoin="round" points="88 44 88 48 88 52 86 62 80 74 71 85 71 85 " />
        <polyline stroke="black" stroke-width="3" stroke-linecap="round" fill="transparent" stroke-linejoin="round" points="33 107 38 106 43 105 55 99 70 94 85 89 98 87 107 87 110 87 110 87 " />
        <polyline stroke="black" stroke-width="3" stroke-linecap="round" fill="transparent" stroke-linejoin="round" points="50 149 61 144 72 139 83 136 91 133 94 132 94 132 " />
        <polyline stroke="black" stroke-width="3" stroke-linecap="round" fill="transparent" stroke-linejoin="round" points="93 81 89 102 85 123 77 149 68 172 61 188 55 198 50 201 50 201 " />
        <polyline stroke="black" stroke-width="3" stroke-linecap="round" fill="transparent" stroke-linejoin="round" points="69 163 76 166 83 169 92 176 102 183 114 187 124 187 124 187 " />
        <polyline stroke="black" stroke-width="3" stroke-linecap="round" fill="transparent" stroke-linejoin="round" points="126 104 132 104 138 104 154 100 171 95 180 93 203 83 208 81 208 81 " />
        <polyline stroke="black" stroke-width="3" stroke-linecap="round" fill="transparent" stroke-linejoin="round" points="180 46 177 62 174 78 168 100 161 124 157 136 146 160 137 179 129 193 124 199 124 199 " />
        <polyline stroke="black" stroke-width="3" stroke-linecap="round" fill="transparent" stroke-linejoin="round" points="162 136 167 144 172 152 179 163 192 175 210 189 230 202 230 202 " />
        </svg>