<?xml version="1.0" standalone="no"?>
    <svg width="256" height="256" xmlns="http://www.w3.org/2000/svg" version="1.1">
    <polyline stroke="black" stroke-width="3" stroke-linecap="round" fill="transparent" stroke-linejoin="round" points="91 42 91 48 91 54 91 64 88 74 84 78 84 78 " />
        <polyline stroke="black" stroke-width="3" stroke-linecap="round" fill="transparent" stroke-linejoin="round" points="39 83 51 81 63 79 79 75 97 73 109 72 109 72 " />
        <polyline stroke="black" stroke-width="3" stroke-linecap="round" fill="transparent" stroke-linejoin="round" points="54 127 66 123 78 119 93 115 107 112 114 111 116 109 116 109 " />
        <polyline stroke="black" stroke-width="3" stroke-linecap="round" fill="transparent" stroke-linejoin="round" points="94 92 94 98 94 104 91 124 83 148 74 171 65 187 55 194 55 194 " />
        <polyline stroke="black" stroke-width="3" stroke-linecap="round" fill="transparent" stroke-linejoin="round" points="88 158 100 167 112 176 126 183 138 186 138 186 " />
        <polyline stroke="black" stroke-width="3" stroke-linecap="round" fill="transparent" stroke-linejoin="round" points="138 91 144 91 150 91 164 91 177 90 185 89 196 84 201 81 201 81 " />
        <polyline stroke="black" stroke-width="3" stroke-linecap="round" fill="transparent" stroke-linejoin="round" points="177 46 177 53 177 60 171 78 164 105 154 135 147 164 138 183 132 194 132 194 " />
        <polyline stroke="black" stroke-width="3" stroke-linecap="round" fill="transparent" stroke-linejoin="round" points="170 135 174 141 178 147 182 151 198 170 205 176 219 194 219 194 " />
        </svg>