<?xml version="1.0" standalone="no"?>
    <svg width="256" height="256" xmlns="http://www.w3.org/2000/svg" version="1.1">
    <polyline stroke="black" stroke-width="3" stroke-linecap="round" fill="transparent" stroke-linejoin="round" points="60.528961181640625 133.1548309326172 62.88970947265625 160.8935089111328 64.070068359375 178.5990447998047 65.84063720703125 191.5830993652344 66.43081665039063 199.25552368164065 68.20135498046875 201.02606201171875 68.20135498046875 201.02606201171875 " />
        <polyline stroke="black" stroke-width="3" stroke-linecap="round" fill="transparent" stroke-linejoin="round" points="77.64431762695313 109.54743957519533 88.85784912109375 103.05540466308594 102.43206787109376 96.56336975097656 118.3670654296875 90.66152954101563 135.482421875 85.34986877441406 153.18798828125 81.21856689453125 169.1229248046875 80.0382080078125 180.9266357421875 82.39894104003906 188.00885009765625 88.30079650878906 194.5008544921875 107.18670654296876 194.5008544921875 140.8272247314453 188.59906005859375 172.1070098876953 176.2052001953125 199.845703125 162.63092041015625 211.64938354492188 162.63092041015625 211.64938354492188 " />
        <polyline stroke="black" stroke-width="3" stroke-linecap="round" fill="transparent" stroke-linejoin="round" points="91.21856689453124 210.46902465820313 104.79281616210938 208.1082763671875 126.03948974609376 205.1573486328125 142.56463623046875 203.97698974609375 159.67999267578125 203.97698974609375 176.79534912109375 208.1082763671875 176.79534912109375 208.1082763671875 " />
        </svg>