<?xml version="1.0" standalone="no"?>
    <svg width="256" height="256" xmlns="http://www.w3.org/2000/svg" version="1.1">
    <polyline stroke="black" stroke-width="3" stroke-linecap="round" fill="transparent" stroke-linejoin="round" points="88.89498901367188 88.54244995117188 87.86810302734375 98.46937561035156 86.84115600585938 111.134765625 85.814208984375 123.11553955078124 84.44500732421875 147.76171875 84.10272216796875 167.61558532714844 84.44500732421875 179.93865966796875 84.44500732421875 185.7579040527344 84.44500732421875 185.7579040527344 " />
        <polyline stroke="black" stroke-width="3" stroke-linecap="round" fill="transparent" stroke-linejoin="round" points="115.93734741210938 107.02706909179688 122.441162109375 102.23477172851563 129.971923828125 98.12705993652344 139.55657958984375 93.33474731445313 160.7796630859375 88.20013427734375 171.3912353515625 88.88475036621094 189.8758544921875 93.67706298828124 202.198974609375 101.20782470703124 210.414306640625 112.84629821777344 213.4951171875 135.0963134765625 206.99127197265625 160.08480834960938 191.9296875 182.6771240234375 182.0028076171875 193.2886962890625 182.0028076171875 193.2886962890625 " />
        <polyline stroke="black" stroke-width="3" stroke-linecap="round" fill="transparent" stroke-linejoin="round" points="103.95654296875 195.342529296875 111.14501953125 193.2886962890625 119.01806640625 191.5771484375 136.13348388671875 189.8656005859375 145.71810913085938 189.18096923828125 167.9681396484375 189.5233154296875 188.506591796875 192.6040954589844 188.506591796875 192.6040954589844 " />
        </svg>