<?xml version="1.0" standalone="no"?>
    <svg width="256" height="256" xmlns="http://www.w3.org/2000/svg" version="1.1">
    <polyline stroke="black" stroke-width="3" stroke-linecap="round" fill="transparent" stroke-linejoin="round" points="51.3660888671875 51.46460723876953 49.1356201171875 77.67276000976563 45.78985595703125 112.8028564453125 43.55938720703125 131.76194763183594 41.32891845703125 156.85487365722656 38.540802001953125 174.14111328125 35.752685546875 188.08160400390625 33.522216796875 194.7730712890625 31.291748046875 194.7730712890625 31.291748046875 194.7730712890625 " />
        <polyline stroke="black" stroke-width="3" stroke-linecap="round" fill="transparent" stroke-linejoin="round" points="46.905120849609375 85.47944641113281 55.2694091796875 74.32704162597656 60.84564208984375 67.63560485839844 68.65231323242188 61.50177001953125 78.13186645507813 57.040802001953125 89.84188842773438 54.810333251953125 100.43667602539063 55.367950439453125 106.57049560546876 59.82891845703125 113.819580078125 75.99990844726563 117.722900390625 115.03334045410156 118.280517578125 144.58721923828125 120.51101684570313 166.3344268798828 125.52960205078124 183.62066650390625 135.5667724609375 198.1187744140625 146.71917724609375 205.92547607421875 156.75634765625 209.82882690429688 164.00537109375 209.27120971679688 170.1392822265625 203.13735961914065 173.4849853515625 176.92921447753906 173.4849853515625 176.92921447753906 " />
        <polyline stroke="black" stroke-width="3" stroke-linecap="round" fill="transparent" stroke-linejoin="round" points="61.40325927734375 103.32330322265624 73.6708984375 110.57237243652344 80.91998291015625 116.70619201660156 85.93853759765625 123.39764404296876 85.93853759765625 123.39764404296876 " />
        <polyline stroke="black" stroke-width="3" stroke-linecap="round" fill="transparent" stroke-linejoin="round" points="59.172760009765625 151.27867126464844 69.767578125 161.3158416748047 75.9013671875 168.0072784423828 81.47760009765625 173.58348083496094 81.47760009765625 173.58348083496094 " />
        <polyline stroke="black" stroke-width="3" stroke-linecap="round" fill="transparent" stroke-linejoin="round" points="138.3548583984375 72.0965576171875 148.39202880859375 67.63560485839844 160.10205078125 63.73225402832031 173.4849853515625 60.94415283203125 184.0797119140625 59.82891845703125 190.771240234375 59.82891845703125 194.674560546875 63.73225402832031 194.674560546875 63.73225402832031 " />
        <polyline stroke="black" stroke-width="3" stroke-linecap="round" fill="transparent" stroke-linejoin="round" points="131.66342163085938 110.57237243652344 143.37347412109375 107.78427124023438 153.96826171875 106.11140441894533 167.35113525390625 103.88093566894533 181.2916259765625 101.0928192138672 194.674560546875 95.51661682128906 194.674560546875 95.51661682128906 " />
        <polyline stroke="black" stroke-width="3" stroke-linecap="round" fill="transparent" stroke-linejoin="round" points="162.33251953125 33.06312561035156 162.33251953125 48.67650604248047 162.33251953125 65.40512084960938 164.00537109375 87.70993041992188 166.23590087890625 104.43855285644533 167.35113525390625 118.93667602539063 167.35113525390625 129.53146362304688 166.23590087890625 135.66529846191406 165.67828369140625 139.56863403320313 164.56304931640625 141.7991180419922 164.00537109375 142.91436767578125 164.00537109375 142.91436767578125 " />
        </svg>