<?xml version="1.0" standalone="no"?>
    <svg width="256" height="256" xmlns="http://www.w3.org/2000/svg" version="1.1">
    <polyline stroke="black" stroke-width="3" stroke-linecap="round" fill="transparent" stroke-linejoin="round" points="74.67596435546875 54.71612548828125 73.00048828125 65.60639953613281 70.90625 79.00979614257813 64.6234130859375 116.28800964355467 60.85369873046875 133.87997436523438 53.733154296875 164.03762817382813 48.706878662109375 183.30499267578125 43.68060302734375 195.03298950195313 41.5863037109375 196.28955078125 39.910888671875 194.6141357421875 39.07318115234375 190.42556762695313 39.07318115234375 164.87533569335938 42.00518798828125 148.53994750976563 46.612548828125 133.87997436523438 53.314300537109375 120.4765625 63.36688232421875 105.39773559570313 68.39312744140625 98.27719116210938 83.471923828125 79.84750366210938 93.943359375 69.79495239257813 98.9696044921875 66.02525329589844 114.88616943359376 58.48583984375 119.49359130859376 57.64813232421875 128.70843505859375 62.674407958984375 132.05926513671875 69.79495239257813 138.34213256835938 110.42401123046876 139.5986328125 141.41940307617188 141.69296264648438 170.73931884765625 143.36837768554688 183.7238616943359 149.23236083984375 201.3158264160156 160.9603271484375 214.71923828125 166.8243408203125 217.23236083984375 178.97119140625 218.070068359375 188.6048583984375 212.62493896484375 191.95574951171875 208.4364013671875 191.95574951171875 208.4364013671875 " />
        <polyline stroke="black" stroke-width="3" stroke-linecap="round" fill="transparent" stroke-linejoin="round" points="98.55075073242188 107.07316589355467 102.73934936523438 118.38229370117188 103.15817260742188 122.57086181640624 103.5770263671875 127.59713745117188 103.5770263671875 130.94796752929688 103.5770263671875 130.94796752929688 " />
        <polyline stroke="black" stroke-width="3" stroke-linecap="round" fill="transparent" stroke-linejoin="round" points="77.1890869140625 161.52447509765625 82.21533203125 174.09017944335938 83.89080810546875 178.2787322998047 85.56622314453125 182.46728515625 88.079345703125 189.16900634765625 88.079345703125 189.16900634765625 " />
        <polyline stroke="black" stroke-width="3" stroke-linecap="round" fill="transparent" stroke-linejoin="round" points="161.37921142578125 85.29263305664063 175.201416015625 81.94178771972656 180.22772216796875 81.10408020019531 191.1180419921875 79.84750366210938 200.751708984375 79.84750366210938 204.52142333984375 80.266357421875 208.7099609375 81.52293395996094 209.966552734375 81.94178771972656 209.966552734375 81.94178771972656 " />
        <polyline stroke="black" stroke-width="3" stroke-linecap="round" fill="transparent" stroke-linejoin="round" points="139.5986328125 137.64968872070313 155.5152587890625 133.87997436523438 170.59405517578125 131.7856903076172 194.04998779296875 128.85369873046875 200.751708984375 127.1782684326172 206.19683837890625 124.66513061523438 206.19683837890625 124.66513061523438 " />
        <polyline stroke="black" stroke-width="3" stroke-linecap="round" fill="transparent" stroke-linejoin="round" points="177.2957763671875 33.354461669921875 173.107177734375 57.64813232421875 171.01287841796875 72.72695922851563 168.499755859375 90.73776245117188 165.98663330078125 107.91087341308594 163.4735107421875 125.92169189453124 159.70379638671875 177.02215576171875 159.70379638671875 189.58786010742188 159.70379638671875 189.58786010742188 " />
        </svg>