<?xml version="1.0" standalone="no"?>
    <svg width="256" height="256" xmlns="http://www.w3.org/2000/svg" version="1.1">
    <polyline stroke="black" stroke-width="3" stroke-linecap="round" fill="transparent" stroke-linejoin="round" points="83 82 83 83 84 86 85 92 85 100 85 110 83 121 81 136 79 145 77 153 75 161 73 168 71 174 70 176 70 179 " />
        <polyline stroke="black" stroke-width="3" stroke-linecap="round" fill="transparent" stroke-linejoin="round" points="77 118 77 118 81 111 84 103 88 97 92 91 95 86 99 82 103 78 105 77 107 77 109 80 110 86 111 95 111 105 111 117 111 129 111 147 112 157 114 167 116 175 118 182 120 188 123 192 127 196 130 199 136 202 140 203 145 202 150 199 154 194 158 187 161 179 163 171 164 163 162 155 160 148 158 145 " />
        <polyline stroke="black" stroke-width="3" stroke-linecap="round" fill="transparent" stroke-linejoin="round" points="81 117 82 117 84 118 86 119 89 120 91 122 93 123 96 125 98 126 99 127 101 129 102 131 102 133 102 134 " />
        <polyline stroke="black" stroke-width="3" stroke-linecap="round" fill="transparent" stroke-linejoin="round" points="86 147 86 147 88 150 90 152 92 154 94 156 96 157 98 159 101 160 103 161 105 162 107 162 108 162 " />
        <polyline stroke="black" stroke-width="3" stroke-linecap="round" fill="transparent" stroke-linejoin="round" points="123 103 125 100 128 98 131 96 134 95 137 94 141 92 142 92 143 91 144 93 144 95 " />
        <polyline stroke="black" stroke-width="3" stroke-linecap="round" fill="transparent" stroke-linejoin="round" points="120 126 120 126 120 127 121 127 123 127 127 127 130 127 135 126 140 126 144 125 151 123 153 122 157 119 163 114 164 112 " />
        <polyline stroke="black" stroke-width="3" stroke-linecap="round" fill="transparent" stroke-linejoin="round" points="137 67 137 67 137 67 138 69 138 73 139 83 139 94 139 106 139 119 139 132 139 145 138 158 137 171 135 183 135 189 135 194 " />
        </svg>