<?xml version="1.0" standalone="no"?>
    <svg width="256" height="256" xmlns="http://www.w3.org/2000/svg" version="1.1">
    <polyline stroke="black" stroke-width="3" stroke-linecap="round" fill="transparent" stroke-linejoin="round" points="65.7615966796875 64.33761596679688 57.1920166015625 84.537353515625 51.07086181640625 103.51287841796876 43.72552490234375 131.05796813964844 40.052825927734375 150.0334930419922 37.6043701171875 166.560546875 36.380126953125 176.3543701171875 36.380126953125 181.2512664794922 36.380126953125 181.86338806152344 36.380126953125 178.19070434570313 38.82861328125 170.2332305908203 41.27703857421875 154.93038940429688 46.1739501953125 137.17910766601563 50.458740234375 123.71261596679688 52.9072265625 117.59147644042967 55.35565185546875 111.47035217285156 59.0283203125 105.34921264648438 63.92523193359375 98.615966796875 70.65850830078125 91.88272094726563 79.22808837890625 83.92524719238281 88.4097900390625 77.19200134277344 100.65203857421876 71.07086181640625 111.67010498046876 68.62240600585938 121.46389770507813 69.23452758789063 128.80926513671875 72.29508972167969 133.7061767578125 79.02833557128906 138.60308837890625 99.84019470214844 139.2152099609375 124.93684387207033 138.60308837890625 146.97291564941406 139.82730102539063 163.49998474121094 142.2757568359375 177.57858276367188 146.560546875 188.59661865234375 152.68170166015625 196.5541076660156 160.02703857421875 203.287353515625 170.4329833984375 209.40847778320313 180.226806640625 211.85693359375 187.5721435546875 211.85693359375 194.91748046875 208.18426513671875 203.487060546875 197.16622924804688 212.6688232421875 168.3968963623047 212.6688232421875 168.3968963623047 " />
        <polyline stroke="black" stroke-width="3" stroke-linecap="round" fill="transparent" stroke-linejoin="round" points="74.94329833984375 125.5489501953125 84.73712158203125 129.2216339111328 89.63400268554688 134.11854553222656 96.36724853515624 140.2396697998047 103.10049438476563 148.1971435546875 108.60952758789063 154.93038940429688 112.28219604492188 160.43942260742188 112.28219604492188 160.43942260742188 " />
        <polyline stroke="black" stroke-width="3" stroke-linecap="round" fill="transparent" stroke-linejoin="round" points="74.94329833984375 155.54251098632813 81.676513671875 166.560546875 85.34921264648438 170.8453369140625 91.4703369140625 174.5180206298828 91.4703369140625 174.5180206298828 " />
        <polyline stroke="black" stroke-width="3" stroke-linecap="round" fill="transparent" stroke-linejoin="round" points="147.17266845703125 91.27059936523438 158.80279541015625 86.98580932617188 167.3724365234375 85.14947509765625 177.166259765625 83.92524719238281 186.347900390625 83.31312561035156 194.305419921875 83.31312561035156 202.875 85.14947509765625 202.875 85.14947509765625 " />
        <polyline stroke="black" stroke-width="3" stroke-linecap="round" fill="transparent" stroke-linejoin="round" points="149.62109375 141.46389770507813 163.69970703125 141.46389770507813 172.269287109375 140.85179138183594 181.4510498046875 139.6275634765625 190.0206298828125 137.7912139892578 197.365966796875 134.11854553222656 204.7113037109375 126.16107177734376 204.7113037109375 126.16107177734376 " />
        <polyline stroke="black" stroke-width="3" stroke-linecap="round" fill="transparent" stroke-linejoin="round" points="182.0631103515625 44.13787841796875 180.8388671875 64.33761596679688 179.61468505859375 82.08891296386719 180.226806640625 104.7371063232422 180.8388671875 126.16107177734376 182.0631103515625 145.13658142089844 182.67523193359375 165.33631896972656 182.67523193359375 186.76028442382813 182.67523193359375 186.76028442382813 " />
        </svg>