<?xml version="1.0" standalone="no"?>
    <svg width="256" height="256" xmlns="http://www.w3.org/2000/svg" version="1.1">
    <polyline stroke="black" stroke-width="3" stroke-linecap="round" fill="transparent" stroke-linejoin="round" points="58.22222900390625 68.22222900390625 55.55560302734375 87.77778625488281 50.22222900390625 110 44 128.66668701171875 40.4444580078125 139.33335876464844 37.77783203125 148.2222442626953 37.77783203125 148.2222442626953 " />
        <polyline stroke="black" stroke-width="3" stroke-linecap="round" fill="transparent" stroke-linejoin="round" points="51.11114501953125 111.7777862548828 74.22222900390625 101.11111450195313 82.2222900390625 97.55557250976563 93.77777099609376 92.22224426269533 98.22222900390624 90.44444274902344 100.00006103515624 86.88888549804688 100.00006103515624 86.88888549804688 " />
        <polyline stroke="black" stroke-width="3" stroke-linecap="round" fill="transparent" stroke-linejoin="round" points="75.11114501953125 63.77778625488281 73.3333740234375 89.55555725097656 70.66668701171875 117.11114501953124 66.22222900390625 143.77780151367188 55.55560302734375 180.22222900390625 51.11114501953125 192.66668701171875 48.4444580078125 195.33334350585935 45.77777099609375 194.4444580078125 45.77777099609375 194.4444580078125 " />
        <polyline stroke="black" stroke-width="3" stroke-linecap="round" fill="transparent" stroke-linejoin="round" points="73.3333740234375 138.44444274902344 86.666748046875 151.7777862548828 91.11114501953124 155.3333282470703 99.11114501953124 161.5555877685547 106.22222900390624 166.00003051757813 108 167.7777862548828 108 167.7777862548828 " />
        <polyline stroke="black" stroke-width="3" stroke-linecap="round" fill="transparent" stroke-linejoin="round" points="132.888916015625 64.66667175292969 126.666748046875 95.7777862548828 124.888916015625 103.77780151367188 123.11114501953124 109.11111450195313 120.4444580078125 119.7777862548828 119.5555419921875 125.11111450195313 119.5555419921875 125.11111450195313 " />
        <polyline stroke="black" stroke-width="3" stroke-linecap="round" fill="transparent" stroke-linejoin="round" points="124.888916015625 99.33335876464844 158.66668701171875 86.88888549804688 175.55560302734375 82.44444274902344 182.66668701171875 79.77778625488281 185.33331298828125 78.88890075683594 185.33331298828125 77.11111450195313 181.77777099609375 75.33332824707031 181.77777099609375 75.33332824707031 " />
        <polyline stroke="black" stroke-width="3" stroke-linecap="round" fill="transparent" stroke-linejoin="round" points="160.4444580078125 52.22224426269531 156.888916015625 86 152.4444580078125 113.55555725097656 145.33331298828125 141.11111450195313 136.4444580078125 165.11111450195313 125.77777099609376 184.66665649414065 121.33331298828124 187.33334350585935 116.888916015625 185.5555725097656 116.888916015625 185.5555725097656 " />
        <polyline stroke="black" stroke-width="3" stroke-linecap="round" fill="transparent" stroke-linejoin="round" points="155.11114501953125 118 162.2222900390625 136.6666717529297 168.4444580078125 149.11111450195313 175.55560302734375 161.5555877685547 201.33331298828125 190.88888549804688 219.11114501953125 203.33334350585935 229.77777099609375 208.66665649414065 236.888916015625 206.88888549804688 236.888916015625 206.88888549804688 " />
        </svg>