<?xml version="1.0" standalone="no"?>
    <svg width="256" height="256" xmlns="http://www.w3.org/2000/svg" version="1.1">
    <polyline stroke="black" stroke-width="3" stroke-linecap="round" fill="transparent" stroke-linejoin="round" points="117.28707885742188 54.764739990234375 106.6865234375 74.19905090332031 102.2696533203125 80.38270568847656 92.11083984375 92.3083038330078 77.09335327148438 108.65080261230467 68.70126342773438 116.6011962890625 65.60946655273438 119.2513427734375 61.19256591796875 123.22654724121094 58.984130859375 124.55162048339844 58.542449951171875 124.1099090576172 62.959320068359375 120.576416015625 80.18524169921875 110.41754150390624 104.03643798828124 97.60856628417967 116.4036865234375 91.4249267578125 153.505615234375 75.52412414550781 164.989501953125 69.34048461914063 188.3990478515625 55.2064208984375 188.3990478515625 55.2064208984375 " />
        <polyline stroke="black" stroke-width="3" stroke-linecap="round" fill="transparent" stroke-linejoin="round" points="177.7984619140625 21.63807678222656 165.8729248046875 36.655487060546875 155.2723388671875 52.556297302246094 149.53036499023438 61.831756591796875 136.72137451171875 83.47451782226563 115.07861328125 118.36795043945313 103.15301513671876 137.80227661132813 103.15301513671876 137.80227661132813 " />
        <polyline stroke="black" stroke-width="3" stroke-linecap="round" fill="transparent" stroke-linejoin="round" points="130.53778076171875 117.48458862304688 144.67181396484375 116.15951538085938 149.9720458984375 115.7178192138672 155.2723388671875 115.7178192138672 160.5726318359375 115.7178192138672 171.173095703125 115.7178192138672 175.59002685546875 115.7178192138672 182.21533203125 115.7178192138672 185.7489013671875 115.7178192138672 187.073974609375 115.7178192138672 187.073974609375 115.7178192138672 " />
        <polyline stroke="black" stroke-width="3" stroke-linecap="round" fill="transparent" stroke-linejoin="round" points="139.37152099609375 132.50201416015625 129.65438842773438 137.80227661132813 125.67916870117188 140.45242309570313 121.70394897460938 143.54421997070313 108.0115966796875 154.14476013183594 100.06121826171876 160.3284149169922 93.87753295898438 165.18698120117188 91.2274169921875 167.3954315185547 86.36883544921875 172.25401306152344 85.4854736328125 173.57907104492188 85.92718505859375 175.3458251953125 89.01898193359375 175.3458251953125 102.71136474609376 173.57907104492188 132.74618530273438 167.83712768554688 151.297119140625 164.30361938476563 167.6396484375 160.3284149169922 180.89031982421875 156.79489135742188 193.257568359375 150.1695556640625 193.257568359375 150.1695556640625 " />
        <polyline stroke="black" stroke-width="3" stroke-linecap="round" fill="transparent" stroke-linejoin="round" points="154.8306884765625 147.07774353027344 146.43856811523438 156.79489135742188 142.02166748046875 162.09515380859375 136.27972412109375 169.16217041015625 117.28707885742188 192.1300048828125 105.36151123046876 206.70574951171875 101.38629150390624 212.00601196289065 101.38629150390624 212.00601196289065 " />
        <polyline stroke="black" stroke-width="3" stroke-linecap="round" fill="transparent" stroke-linejoin="round" points="119.0538330078125 194.3384704589844 131.421142578125 194.3384704589844 138.48812866210938 195.22183227539065 145.55517578125 196.54690551757813 152.6221923828125 197.8719787597656 166.3145751953125 201.84716796875 178.681884765625 206.70574951171875 191.4908447265625 213.77276611328125 191.4908447265625 213.77276611328125 " />
        </svg>