<?xml version="1.0" standalone="no"?>
    <svg width="256" height="256" xmlns="http://www.w3.org/2000/svg" version="1.1">
    <polyline stroke="black" stroke-width="3" stroke-linecap="round" fill="transparent" stroke-linejoin="round" points="102.30230712890624 74.88682556152344 80.07843017578125 106.26170349121094 77.4638671875 110.8372039794922 64.39105224609375 140.90481567382813 63.08367919921875 145.4803009033203 64.39105224609375 144.1730194091797 65.04461669921875 142.86572265625 65.04461669921875 142.86572265625 " />
        <polyline stroke="black" stroke-width="3" stroke-linecap="round" fill="transparent" stroke-linejoin="round" points="74.84930419921875 121.94914245605467 98.38043212890624 125.21734619140624 100.3414306640625 125.87100219726563 111.45330810546876 132.4074249267578 114.7215576171875 133.7147216796875 123.87249755859376 133.0610809326172 138.252685546875 125.21734619140624 138.252685546875 125.21734619140624 " />
        <polyline stroke="black" stroke-width="3" stroke-linecap="round" fill="transparent" stroke-linejoin="round" points="167.01300048828125 69.00404357910156 150.671875 80.11595153808594 131.71624755859375 109.5299072265625 127.79437255859376 116.06634521484376 121.25799560546876 126.52464294433594 117.98974609375 131.10015869140625 117.98974609375 131.10015869140625 121.91156005859376 127.17828369140624 129.1016845703125 118.68092346191406 138.252685546875 112.7981414794922 152.6328125 109.5299072265625 161.78387451171875 109.5299072265625 173.5494384765625 110.8372039794922 178.778564453125 112.7981414794922 182.700439453125 116.71998596191406 182.700439453125 116.71998596191406 " />
        <polyline stroke="black" stroke-width="3" stroke-linecap="round" fill="transparent" stroke-linejoin="round" points="111.45330810546876 139.59751892089844 97.72674560546876 155.9385986328125 95.11224365234376 174.8942413330078 94.45855712890624 178.8161163330078 94.45855712890624 185.3525390625 96.41949462890624 186.65985107421875 98.38043212890624 183.39163208007813 98.38043212890624 183.39163208007813 " />
        <polyline stroke="black" stroke-width="3" stroke-linecap="round" fill="transparent" stroke-linejoin="round" points="101.64862060546876 161.82139587402344 115.37518310546876 144.1730194091797 134.9844970703125 137.6365966796875 140.213623046875 137.6365966796875 146.75006103515625 138.2902069091797 153.2864990234375 144.82666015625 153.2864990234375 157.2458953857422 146.09637451171875 174.2406005859375 134.330810546875 190.58169555664065 121.25799560546876 202.3472595214844 121.25799560546876 202.3472595214844 " />
        <polyline stroke="black" stroke-width="3" stroke-linecap="round" fill="transparent" stroke-linejoin="round" points="62.4300537109375 207.576416015625 73.5419921875 192.54263305664065 111.45330810546876 193.1962890625 123.21893310546876 193.84991455078125 150.01824951171875 194.5035400390625 176.817626953125 195.15719604492188 199.69512939453125 199.73272705078125 212.76800537109375 205.615478515625 212.76800537109375 205.615478515625 " />
        </svg>