<?xml version="1.0" standalone="no"?>
    <svg width="256" height="256" xmlns="http://www.w3.org/2000/svg" version="1.1">
    <polyline stroke="black" stroke-width="3" stroke-linecap="round" fill="transparent" stroke-linejoin="round" points="61.26910400390625 115.41270446777344 76.30291748046875 108.8762664794922 78.91748046875 108.22264099121094 97.87322998046876 103.64712524414063 110.946044921875 95.1497802734375 113.56060791015624 91.22789001464844 115.52154541015624 84.69146728515625 114.86785888671876 82.73052978515625 114.86785888671876 82.73052978515625 " />
        <polyline stroke="black" stroke-width="3" stroke-linecap="round" fill="transparent" stroke-linejoin="round" points="107.024169921875 73.57952880859375 95.258544921875 89.2669677734375 94.60498046875 92.53518676757813 90.68304443359376 114.7590789794922 90.0294189453125 123.25642395019533 86.76116943359375 140.2511444091797 80.87841796875 159.86045837402344 77.6102294921875 167.7041778564453 73.03466796875 174.8942413330078 70.42010498046875 178.1624755859375 69.7664794921875 178.8161163330078 70.42010498046875 178.1624755859375 74.34197998046875 174.8942413330078 81.5321044921875 168.35781860351563 89.37579345703125 163.128662109375 97.219482421875 156.5922393798828 103.102294921875 152.0167236328125 112.90692138671876 144.1730194091797 127.287109375 132.4074249267578 129.90167236328125 129.1392059326172 129.90167236328125 129.1392059326172 " />
        <polyline stroke="black" stroke-width="3" stroke-linecap="round" fill="transparent" stroke-linejoin="round" points="150.81829833984375 63.77488708496094 145.589111328125 79.46232604980469 144.2818603515625 84.69146728515625 136.4381103515625 126.52464294433594 135.13079833984375 131.7537841796875 131.20892333984375 151.3630828857422 125.326171875 168.35781860351563 122.71160888671876 174.8942413330078 120.75067138671876 180.1234130859375 122.71160888671876 179.46975708007813 122.71160888671876 179.46975708007813 " />
        <polyline stroke="black" stroke-width="3" stroke-linecap="round" fill="transparent" stroke-linejoin="round" points="130.55535888671875 164.4359588623047 152.12554931640625 172.93333435058594 153.43280029296875 174.2406005859375 170.42755126953125 174.8942413330078 170.42755126953125 174.8942413330078 " />
        <polyline stroke="black" stroke-width="3" stroke-linecap="round" fill="transparent" stroke-linejoin="round" points="186.11505126953125 74.23318481445313 182.193115234375 92.53518676757813 181.53948974609375 98.41799926757813 175.00311279296875 136.3292999267578 171.73486328125 147.4412384033203 163.89111328125 168.35781860351563 161.27655029296875 175.5478973388672 161.93017578125 179.46975708007813 161.93017578125 179.46975708007813 " />
        <polyline stroke="black" stroke-width="3" stroke-linecap="round" fill="transparent" stroke-linejoin="round" points="175.00311279296875 131.7537841796875 199.18792724609375 142.86572265625 204.4169921875 147.4412384033203 220.1044921875 164.4359588623047 225.3336181640625 170.97239685058594 233.1773681640625 181.43069458007813 238.40643310546875 188.62075805664065 238.40643310546875 188.62075805664065 " />
        </svg>