<?xml version="1.0" standalone="no"?>
    <svg width="256" height="256" xmlns="http://www.w3.org/2000/svg" version="1.1">
    <polyline stroke="black" stroke-width="3" stroke-linecap="round" fill="transparent" stroke-linejoin="round" points="61.92279052734375 89.2669677734375 84.80029296875 89.2669677734375 91.3367919921875 88.61334228515625 113.56060791015624 78.155029296875 115.52154541015624 76.19410705566406 120.75067138671876 67.0430908203125 120.75067138671876 65.08216857910156 120.75067138671876 65.08216857910156 " />
        <polyline stroke="black" stroke-width="3" stroke-linecap="round" fill="transparent" stroke-linejoin="round" points="106.37054443359376 52.6629638671875 93.9512939453125 68.35038757324219 93.29766845703124 72.27226257324219 87.41485595703125 99.72526550292967 83.49298095703125 114.1054229736328 78.26385498046875 131.10015869140625 73.03466796875 143.5193634033203 69.7664794921875 150.05581665039063 66.49822998046875 155.28494262695313 65.1910400390625 156.5922393798828 64.53729248046875 157.2458953857422 65.1910400390625 157.2458953857422 67.80560302734375 155.9385986328125 73.6883544921875 152.0167236328125 80.87841796875 148.09487915039063 101.7950439453125 136.98294067382813 113.56060791015624 129.79286193847656 126.63348388671876 121.29551696777344 126.63348388671876 121.29551696777344 " />
        <polyline stroke="black" stroke-width="3" stroke-linecap="round" fill="transparent" stroke-linejoin="round" points="152.77923583984375 44.81922912597656 142.3209228515625 57.89208984375 141.01361083984375 64.42852783203125 127.94073486328124 115.41270446777344 125.97979736328124 121.94914245605467 118.78973388671876 144.82666015625 112.90692138671876 161.82139587402344 109.63873291015624 167.7041778564453 109.63873291015624 170.97239685058594 113.56060791015624 167.050537109375 113.56060791015624 167.050537109375 " />
        <polyline stroke="black" stroke-width="3" stroke-linecap="round" fill="transparent" stroke-linejoin="round" points="122.71160888671876 139.59751892089844 142.97454833984375 137.6365966796875 144.2818603515625 138.2902069091797 165.85205078125 136.98294067382813 169.12030029296875 134.36839294433594 173.04217529296875 131.7537841796875 173.04217529296875 131.7537841796875 " />
        <polyline stroke="black" stroke-width="3" stroke-linecap="round" fill="transparent" stroke-linejoin="round" points="197.88055419921875 48.74108123779297 184.154052734375 64.42852783203125 182.8468017578125 70.31130981445313 165.85205078125 124.56373596191406 163.89111328125 130.44650268554688 157.35467529296875 152.6703643798828 152.77923583984375 166.39688110351563 152.12554931640625 172.93333435058594 156.04742431640625 171.6260223388672 159.31561279296875 168.35781860351563 159.31561279296875 168.35781860351563 " />
        <polyline stroke="black" stroke-width="3" stroke-linecap="round" fill="transparent" stroke-linejoin="round" points="171.08123779296875 136.98294067382813 189.38323974609375 143.5193634033203 191.34417724609375 145.4803009033203 210.95343017578125 168.35781860351563 222.71905517578125 179.46975708007813 227.2945556640625 182.7379608154297 227.2945556640625 182.7379608154297 " />
        </svg>