<?xml version="1.0" standalone="no"?>
    <svg width="256" height="256" xmlns="http://www.w3.org/2000/svg" version="1.1">
    <polyline stroke="black" stroke-width="3" stroke-linecap="round" fill="transparent" stroke-linejoin="round" points="69 105 69 104 70 103 71 102 74 101 76 100 79 99 83 97 86 96 90 95 94 94 98 92 103 89 107 86 110 83 " />
        <polyline stroke="black" stroke-width="3" stroke-linecap="round" fill="transparent" stroke-linejoin="round" points="93 76 92 80 90 92 89 100 88 109 86 118 84 125 81 132 77 138 74 143 69 149 66 151 65 152 64 153 63 154 62 154 62 154 62 154 62 154 63 154 65 152 68 150 72 147 77 144 83 140 89 136 95 133 101 130 108 126 115 122 119 120 122 118 " />
        <polyline stroke="black" stroke-width="3" stroke-linecap="round" fill="transparent" stroke-linejoin="round" points="133 58 133 58 133 60 133 64 132 72 129 82 126 94 122 107 117 120 113 131 108 145 105 153 102 159 100 163 99 166 98 167 97 167 98 165 99 160 100 157 " />
        <polyline stroke="black" stroke-width="3" stroke-linecap="round" fill="transparent" stroke-linejoin="round" points="103 147 104 145 106 142 109 140 112 138 115 137 119 137 122 137 127 137 131 138 136 138 141 137 145 135 " />
        <polyline stroke="black" stroke-width="3" stroke-linecap="round" fill="transparent" stroke-linejoin="round" points="176 77 176 76 175 75 173 77 169 82 165 90 160 98 155 107 148 121 144 129 140 136 137 142 135 146 134 149 133 150 133 150 134 149 " />
        <polyline stroke="black" stroke-width="3" stroke-linecap="round" fill="transparent" stroke-linejoin="round" points="149 128 149 128 154 125 159 123 165 123 172 124 178 125 186 129 192 133 197 138 202 144 204 148 " />
        </svg>