<?xml version="1.0" standalone="no"?>
    <svg width="256" height="256" xmlns="http://www.w3.org/2000/svg" version="1.1">
    <polyline stroke="black" stroke-width="3" stroke-linecap="round" fill="transparent" stroke-linejoin="round" points="91.9903564453125 87.30604553222656 92.64398193359376 91.22789001464844 93.29766845703124 133.7147216796875 93.29766845703124 140.2511444091797 93.29766845703124 165.7432403564453 93.9512939453125 185.3525390625 93.9512939453125 197.77178955078125 93.29766845703124 200.3863220214844 90.0294189453125 200.3863220214844 83.49298095703125 191.88897705078125 79.5711669921875 176.2015380859375 76.95654296875 163.78233337402344 76.95654296875 163.78233337402344 " />
        <polyline stroke="black" stroke-width="3" stroke-linecap="round" fill="transparent" stroke-linejoin="round" points="57.3472900390625 142.86572265625 57.3472900390625 146.13394165039063 56.693603515625 163.128662109375 56.693603515625 164.4359588623047 56.693603515625 169.01145935058594 56.693603515625 170.97239685058594 56.693603515625 171.6260223388672 61.92279052734375 166.39688110351563 65.1910400390625 162.4750213623047 70.42010498046875 155.28494262695313 81.5321044921875 143.5193634033203 97.219482421875 137.6365966796875 103.75592041015624 135.67564392089844 103.75592041015624 135.67564392089844 " />
        <polyline stroke="black" stroke-width="3" stroke-linecap="round" fill="transparent" stroke-linejoin="round" points="105.71685791015624 131.7537841796875 103.75592041015624 135.02200317382813 101.7950439453125 142.86572265625 101.7950439453125 146.78758239746094 103.102294921875 150.70947265625 107.024169921875 155.9385986328125 116.82879638671876 160.5141143798828 129.90167236328125 159.20681762695313 140.3599853515625 154.6313018798828 143.628173828125 152.6703643798828 143.628173828125 152.6703643798828 " />
        <polyline stroke="black" stroke-width="3" stroke-linecap="round" fill="transparent" stroke-linejoin="round" points="165.85205078125 103.64712524414063 169.77392578125 102.99348449707033 194.6123046875 97.11068725585938 197.22698974609375 96.45704650878906 207.6851806640625 92.53518676757813 208.3388671875 89.2669677734375 203.10980224609375 88.61334228515625 201.14886474609375 89.2669677734375 201.14886474609375 89.2669677734375 " />
        <polyline stroke="black" stroke-width="3" stroke-linecap="round" fill="transparent" stroke-linejoin="round" points="155.39373779296875 113.45176696777344 154.7401123046875 115.41270446777344 150.81829833984375 131.10015869140625 150.16461181640625 136.98294067382813 150.81829833984375 151.3630828857422 150.81829833984375 155.9385986328125 152.77923583984375 165.7432403564453 156.04742431640625 169.6651153564453 164.5447998046875 169.01145935058594 169.12030029296875 165.089599609375 169.12030029296875 165.089599609375 " />
        <polyline stroke="black" stroke-width="3" stroke-linecap="round" fill="transparent" stroke-linejoin="round" points="184.154052734375 148.09487915039063 182.193115234375 152.6703643798828 165.85205078125 179.46975708007813 163.89111328125 182.7379608154297 154.7401123046875 190.58169555664065 150.16461181640625 191.23532104492188 146.24273681640625 189.92807006835935 145.589111328125 189.2744140625 149.510986328125 187.3134765625 161.27655029296875 184.04525756835935 175.65667724609375 182.7379608154297 187.42230224609375 182.7379608154297 208.3388671875 184.69891357421875 229.90911865234375 191.88897705078125 237.0992431640625 197.11813354492188 237.0992431640625 197.11813354492188 " />
        </svg>