<?xml version="1.0" standalone="no"?>
    <svg width="256" height="256" xmlns="http://www.w3.org/2000/svg" version="1.1">
    <polyline stroke="black" stroke-width="3" stroke-linecap="round" fill="transparent" stroke-linejoin="round" points="82.6929931640625 103.48371887207033 84.00030517578125 160.35069274902344 84.6539306640625 166.23350524902344 87.26849365234375 185.84280395507813 88.5758056640625 196.30108642578125 87.26849365234375 200.8765563964844 82.6929931640625 198.91567993164065 76.81024169921875 191.07192993164065 71.5810546875 179.30638122558594 68.96649169921875 168.84805297851563 68.96649169921875 168.84805297851563 " />
        <polyline stroke="black" stroke-width="3" stroke-linecap="round" fill="transparent" stroke-linejoin="round" points="52.62542724609375 126.36123657226563 49.357177734375 151.8533172607422 48.70355224609375 155.77517700195313 48.70355224609375 155.77517700195313 " />
        <polyline stroke="black" stroke-width="3" stroke-linecap="round" fill="transparent" stroke-linejoin="round" points="51.31817626953125 168.84805297851563 72.88836669921875 155.1215362548828 80.73211669921875 151.19969177246094 98.38043212890624 142.7023162841797 98.38043212890624 142.7023162841797 " />
        <polyline stroke="black" stroke-width="3" stroke-linecap="round" fill="transparent" stroke-linejoin="round" points="95.765869140625 135.51223754882813 94.45855712890624 136.16587829589844 87.922119140625 144.0095977783203 87.26849365234375 144.66323852539063 87.922119140625 149.23875427246094 89.883056640625 153.8142547607422 95.11224365234376 158.38975524902344 105.57049560546876 162.31163024902344 116.6824951171875 162.31163024902344 134.330810546875 159.0434112548828 134.330810546875 159.0434112548828 " />
        <polyline stroke="black" stroke-width="3" stroke-linecap="round" fill="transparent" stroke-linejoin="round" points="138.90631103515625 100.21549987792967 157.86199951171875 88.44992065429688 161.13018798828125 87.14262390136719 176.16400146484375 82.56712341308594 185.96868896484375 80.60618591308594 193.15869140625 80.60618591308594 196.42694091796875 82.56712341308594 195.11962890625 83.87442016601563 195.11962890625 83.87442016601563 " />
        <polyline stroke="black" stroke-width="3" stroke-linecap="round" fill="transparent" stroke-linejoin="round" points="148.71099853515625 108.71286010742188 146.75006103515625 111.9810791015625 138.90631103515625 138.7804412841797 138.90631103515625 145.31689453125 139.55999755859375 156.4288330078125 140.213623046875 163.618896484375 143.48187255859375 166.88711547851563 151.3255615234375 162.31163024902344 156.5546875 156.4288330078125 156.5546875 156.4288330078125 " />
        <polyline stroke="black" stroke-width="3" stroke-linecap="round" fill="transparent" stroke-linejoin="round" points="178.778564453125 112.6347198486328 177.4713134765625 117.2102508544922 158.515625 158.38975524902344 151.97918701171875 170.80899047851563 138.252685546875 189.76461791992188 125.83343505859376 200.22293090820313 117.33612060546876 204.7984313964844 112.7606201171875 205.45211791992188 112.7606201171875 205.45211791992188 120.60430908203124 200.22293090820313 131.0626220703125 195.64743041992188 144.78912353515625 191.07192993164065 161.13018798828125 188.45736694335935 179.4322509765625 187.8037109375 199.04150390625 191.72555541992188 208.19256591796875 195.64743041992188 208.19256591796875 195.64743041992188 " />
        </svg>