<?xml version="1.0" standalone="no"?>
    <svg width="256" height="256" xmlns="http://www.w3.org/2000/svg" version="1.1">
    <polyline stroke="black" stroke-width="3" stroke-linecap="round" fill="transparent" stroke-linejoin="round" points="63.534637451171875 134.67001342773438 67.36752319335938 163.22007751464844 68.45465087890625 172.9678955078125 70.32177734375 187.32330322265625 70.8848876953125 189.54751586914065 71.56524658203125 195.5079040527344 71.53662109375 195.73309326171875 " />
        <polyline stroke="black" stroke-width="3" stroke-linecap="round" fill="transparent" stroke-linejoin="round" points="92.54486083984376 69.89849853515625 100.38571166992188 66.95053100585938 120.80917358398438 61.810211181640625 131.89544677734375 60.69023132324219 150.14120483398438 61.64002990722656 158.21441650390625 63.15348815917969 166.52581787109375 67.66804504394531 168.123291015625 74.92349243164063 170.0625 83.35566711425781 172.1669921875 96.45452880859376 171.753173828125 123.99601745605467 168.6527099609375 146.1707763671875 166.542724609375 156.29183959960938 161.6085205078125 174.29258728027344 155.8944091796875 188.5491943359375 152.56146240234375 195.54086303710935 152.2281494140625 196.24002075195313 " />
        <polyline stroke="black" stroke-width="3" stroke-linecap="round" fill="transparent" stroke-linejoin="round" points="124.51766967773438 119.86248779296876 128.20480346679688 181.68603515625 126.087890625 195.4969787597656 123.29183959960938 198.99267578125 119.29986572265624 198.92578125 118.900634765625 198.91912841796875 " />
        <polyline stroke="black" stroke-width="3" stroke-linecap="round" fill="transparent" stroke-linejoin="round" points="106.11273193359376 121.76748657226563 118.04891967773438 121.6702880859375 140.44207763671875 122.21061706542967 154.39031982421875 123.47549438476563 157.17303466796875 124.04466247558594 158.2579345703125 124.64048767089844 158.2720947265625 124.64825439453124 " />
        <polyline stroke="black" stroke-width="3" stroke-linecap="round" fill="transparent" stroke-linejoin="round" points="96.4427490234375 194.50241088867188 105.12774658203124 193.5294189453125 127.71456909179688 192.4073486328125 139.73681640625 192.35736083984375 157.44207763671875 192.66253662109375 162.3267822265625 193.240234375 166.32855224609375 193.4486389160156 166.7022705078125 193.4681396484375 " />
        </svg>