<?xml version="1.0" standalone="no"?>
    <svg width="256" height="256" xmlns="http://www.w3.org/2000/svg" version="1.1">
    <polyline stroke="black" stroke-width="3" stroke-linecap="round" fill="transparent" stroke-linejoin="round" points="117.29122924804688 24.61815643310547 115.08746337890624 33.984130859375 109.02713012695313 45.553855895996094 97.4573974609375 67.5914306640625 82.03109741210938 93.485595703125 68.25762939453125 116.07411193847656 58.3406982421875 129.84759521484375 51.72943115234375 140.8663787841797 47.3218994140625 146.3757781982422 47.3218994140625 146.3757781982422 " />
        <polyline stroke="black" stroke-width="3" stroke-linecap="round" fill="transparent" stroke-linejoin="round" points="105.17056274414063 45.553855895996094 124.45343017578124 45.00292205810547 139.8797607421875 48.308555603027344 162.46826171875 53.81794738769531 177.89453125 59.32734680175781 193.32086181640625 64.28579711914063 204.890625 69.24424743652344 212.603759765625 72.54989624023438 217.01123046875 74.75364685058594 217.56219482421875 76.95741271972656 217.56219482421875 76.95741271972656 " />
        <polyline stroke="black" stroke-width="3" stroke-linecap="round" fill="transparent" stroke-linejoin="round" points="82.03109741210938 122.13444519042967 91.947998046875 119.93067932128906 101.86492919921876 117.1759796142578 116.1893310546875 113.87034606933594 132.16659545898438 110.01377868652344 150.34759521484375 105.05531311035156 164.6719970703125 101.74967956542967 172.93609619140625 98.99497985839844 176.79266357421875 97.3421630859375 176.79266357421875 97.3421630859375 " />
        <polyline stroke="black" stroke-width="3" stroke-linecap="round" fill="transparent" stroke-linejoin="round" points="91.3970947265625 135.90792846679688 85.8876953125 154.08892822265625 82.03109741210938 167.3114776611328 77.62359619140625 176.6774444580078 74.31793212890625 184.39059448242188 71.56326293945313 189.34906005859375 69.91043090820313 191.55279541015625 69.91043090820313 191.55279541015625 69.91043090820313 191.55279541015625 " />
        <polyline stroke="black" stroke-width="3" stroke-linecap="round" fill="transparent" stroke-linejoin="round" points="86.4385986328125 168.96429443359375 102.41586303710938 171.718994140625 112.332763671875 176.1265106201172 122.80062866210938 180.53402709960935 131.064697265625 182.18682861328125 131.064697265625 182.18682861328125 " />
        <polyline stroke="black" stroke-width="3" stroke-linecap="round" fill="transparent" stroke-linejoin="round" points="155.3060302734375 116.07411193847656 150.89852905273438 127.64382934570313 147.04196166992188 140.31544494628906 143.18536376953125 156.2926788330078 138.77786254882813 170.6171112060547 135.47222900390625 182.18682861328125 132.16659545898438 190.450927734375 129.96282958984375 194.3074951171875 129.96282958984375 194.3074951171875 " />
        <polyline stroke="black" stroke-width="3" stroke-linecap="round" fill="transparent" stroke-linejoin="round" points="149.796630859375 168.41336059570313 159.71356201171875 171.1680450439453 168.528564453125 176.1265106201172 177.89453125 182.18682861328125 186.7095947265625 188.79812622070313 196.0755615234375 197.6131591796875 196.0755615234375 197.6131591796875 " />
        </svg>