<?xml version="1.0" standalone="no"?>
    <svg width="256" height="256" xmlns="http://www.w3.org/2000/svg" version="1.1">
    <polyline stroke="black" stroke-width="3" stroke-linecap="round" fill="transparent" stroke-linejoin="round" points="65.57284274745024 63.54208957189533 57.51133639634048 72.70289224361099 53.84701532765422 84.42871966340701 46.51837319028169 99.45243604502063 39.55616315977784 113.37685610602844 33.326817343011214 124.00338720521856 31.494656808668022 127.3012761670362 31.494656808668022 127.3012761670362 " />
        <polyline stroke="black" stroke-width="3" stroke-linecap="round" fill="transparent" stroke-linejoin="round" points="53.11415111391699 84.06228755653837 57.14490428947187 79.66510227411487 69.2371638161365 76.73364541916587 86.09304073209324 70.50429960239924 106.6132387167363 62.07636114442085 129.33202934259106 55.480583220785576 152.05081996844592 51.4498300452307 171.83815373935158 50.350533724624825 187.9611664415711 50.350533724624825 200.05342596823584 50.350533724624825 206.28277178500252 51.81626215209934 207.01563599873975 53.64842268644245 207.01563599873975 54.74771900704832 202.98488282318476 56.94631164826009 196.75553700641808 63.17565746502672 188.69403065530832 72.33646013674235 179.53322798359272 81.497262808458 168.54026477753405 91.7573618007795 168.54026477753405 91.7573618007795 " />
        <polyline stroke="black" stroke-width="3" stroke-linecap="round" fill="transparent" stroke-linejoin="round" points="98.91816447249516 96.154547083203 93.05525076259715 109.71253503734218 92.32238654885992 125.10268352582445 86.82590494583053 141.5921283349126 78.76439859472072 158.4480052508694 68.1378674955306 174.93745005995754 55.312743755128736 191.42689486904567 43.95334844220133 205.35131493005343 43.95334844220133 205.35131493005343 " />
        <polyline stroke="black" stroke-width="3" stroke-linecap="round" fill="transparent" stroke-linejoin="round" points="90.4902260145168 114.84258453350292 107.71253503734216 106.41464607552452 114.30831296097745 104.94891764805 120.90409088461269 102.38389289996968 129.33202934259106 100.1853002587579 138.1263999074381 97.62027551067752 146.55433836541647 96.154547083203 152.41725207531454 95.05525076259713 153.882980502789 95.05525076259713 153.15011628905177 95.05525076259713 149.4857952203655 96.154547083203 143.6228815104675 104.58248554118144 134.46207883875184 124.00338720521856 124.56841195329896 147.45504204481065 118.33906613653232 168.34167213632227 116.14047349532058 183.36538851793583 116.14047349532058 193.99191961712603 120.53765877774408 202.78629018197307 128.59916512885383 207.91633967813385 135.92780726622635 210.4813644262142 145.45504204481065 211.21422863995144 159.74589421268706 211.21422863995144 174.40317848743211 204.6184507163162 185.7625738003594 199.1219691132868 192.72478383086332 195.09121593773193 195.2898085789436 192.52619118965157 195.65624068581224 190.69403065530844 195.65624068581224 189.96116644157115 193.45764804460055 187.02970958662215 193.45764804460055 187.02970958662215 " />
        </svg>