<?xml version="1.0" standalone="no"?>
    <svg width="256" height="256" xmlns="http://www.w3.org/2000/svg" version="1.1">
    <polyline stroke="black" stroke-width="3" stroke-linecap="round" fill="transparent" stroke-linejoin="round" points="52 68 52 68 52 70 52 71 52 73 51 76 51 78 52 81 52 83 52 86 52 89 52 92 53 94 53 97 53 99 54 102 54 104 55 106 55 108 56 110 57 112 57 113 58 114 59 115 " />
        <polyline stroke="black" stroke-width="3" stroke-linecap="round" fill="transparent" stroke-linejoin="round" points="61 86 62 85 63 84 64 83 66 83 67 82 69 81 71 80 72 79 74 78 77 77 79 76 82 75 84 74 88 73 91 72 95 72 99 71 103 70 107 69 111 68 115 68 120 68 124 67 129 67 133 67 137 67 142 67 146 68 150 68 153 69 157 69 160 70 162 70 165 71 167 71 168 72 170 72 171 73 172 73 173 74 174 74 175 75 175 77 175 79 175 81 174 83 173 86 172 89 171 92 169 95 " />
        <polyline stroke="black" stroke-width="3" stroke-linecap="round" fill="transparent" stroke-linejoin="round" points="86 111 86 111 85 111 85 112 86 112 86 113 86 114 86 116 86 118 86 120 86 123 86 126 86 129 86 133 86 136 86 140 86 143 85 147 85 150 84 154 84 157 83 161 82 164 81 167 80 169 79 171 78 174 77 175 76 177 75 178 75 179 74 180 73 181 " />
        <polyline stroke="black" stroke-width="3" stroke-linecap="round" fill="transparent" stroke-linejoin="round" points="81 126 87 120 89 118 91 117 92 115 94 113 96 112 98 110 100 108 102 107 104 105 107 103 109 102 111 100 113 98 116 97 118 96 120 95 121 94 123 94 125 94 126 94 128 95 129 97 130 100 131 103 132 107 133 112 133 117 133 123 133 135 133 140 133 146 133 151 133 156 133 161 133 165 133 169 133 173 133 177 134 180 134 184 135 186 135 189 136 192 137 194 137 196 138 197 139 199 140 200 141 201 143 202 144 202 145 203 147 203 148 203 150 203 152 202 153 202 155 201 157 199 159 198 160 196 162 194 163 192 165 189 166 186 167 184 168 182 168 180 169 178 169 176 169 175 169 173 169 172 169 171 169 169 168 168 168 167 167 166 167 165 166 165 165 165 164 165 163 165 " />
        </svg>