<?xml version="1.0" standalone="no"?>
    <svg width="256" height="256" xmlns="http://www.w3.org/2000/svg" version="1.1">
    <polyline stroke="black" stroke-width="3" stroke-linecap="round" fill="transparent" stroke-linejoin="round" points="57.89520263671875 85.28338623046875 59.6876220703125 89.31629943847656 61.48004150390625 93.34919738769533 66.40911865234375 100.51882934570313 66.40911865234375 100.51882934570313 " />
        <polyline stroke="black" stroke-width="3" stroke-linecap="round" fill="transparent" stroke-linejoin="round" points="112.11541748046876 96.48590087890624 102.705322265625 105.44792175292967 69.99395751953125 133.23016357421875 65.512939453125 136.36688232421875 59.239501953125 140.847900390625 57.447113037109375 142.19219970703125 54.310394287109375 144.88079833984375 53.8623046875 145.3289031982422 55.206634521484375 145.3289031982422 61.03192138671875 145.3289031982422 70.4420166015625 143.98458862304688 82.540771484375 141.74407958984375 95.08758544921876 136.36688232421875 101.80908203125 131.4377899169922 101.80908203125 131.4377899169922 " />
        <polyline stroke="black" stroke-width="3" stroke-linecap="round" fill="transparent" stroke-linejoin="round" points="102.25717163085938 40.921409606933594 100.46478271484376 50.33152770996094 98.67236328125 60.18974304199219 94.19137573242188 82.14668273925781 88.36605834960938 106.79222106933594 78.9559326171875 139.05548095703125 68.20150756835938 169.07823181152344 59.6876220703125 190.58709716796875 54.310394287109375 206.71871948242188 51.1737060546875 213.44021606445313 51.1737060546875 213.44021606445313 " />
        <polyline stroke="black" stroke-width="3" stroke-linecap="round" fill="transparent" stroke-linejoin="round" points="76.267333984375 183.41746520996097 79.85214233398438 185.2098693847656 91.50277709960938 190.13897705078125 103.60150146484376 189.69088745117188 103.60150146484376 189.69088745117188 " />
        <polyline stroke="black" stroke-width="3" stroke-linecap="round" fill="transparent" stroke-linejoin="round" points="155.5811767578125 90.21249389648438 150.652099609375 100.51882934570313 145.27487182617188 111.2732391357422 135.86474609375 128.74917602539063 127.350830078125 145.3289031982422 121.077392578125 157.4276123046875 118.38885498046876 162.3567352294922 118.38885498046876 162.3567352294922 " />
        <polyline stroke="black" stroke-width="3" stroke-linecap="round" fill="transparent" stroke-linejoin="round" points="156.4774169921875 141.74407958984375 158.7178955078125 144.88079833984375 160.51031494140625 147.56942749023438 164.0950927734375 151.60232543945313 164.0950927734375 151.60232543945313 " />
        <polyline stroke="black" stroke-width="3" stroke-linecap="round" fill="transparent" stroke-linejoin="round" points="196.8065185546875 87.97198486328125 194.56597900390625 96.93400573730467 191.42926025390625 108.58464050292967 187.844482421875 120.68338012695313 174.84954833984375 157.4276123046875 167.679931640625 177.59214782714844 163.19891357421875 189.2427978515625 160.51031494140625 197.30859375 159.6141357421875 200.4453125 159.6141357421875 200.4453125 " />
        <polyline stroke="black" stroke-width="3" stroke-linecap="round" fill="transparent" stroke-linejoin="round" points="188.2926025390625 173.5592498779297 193.6697998046875 176.69595336914063 199.0469970703125 180.28076171875 209.8013916015625 187.00225830078125 214.28240966796875 190.13897705078125 223.6925048828125 199.54910278320313 223.6925048828125 199.54910278320313 " />
        </svg>