<?xml version="1.0" standalone="no"?>
    <svg width="256" height="256" xmlns="http://www.w3.org/2000/svg" version="1.1">
    <polyline stroke="black" stroke-width="3" stroke-linecap="round" fill="transparent" stroke-linejoin="round" points="63.93341064453125 84.53335571289063 68.2000732421875 81.33334350585938 68.2000732421875 81.33334350585938 " />
        <polyline stroke="black" stroke-width="3" stroke-linecap="round" fill="transparent" stroke-linejoin="round" points="70.3333740234375 88.80000305175781 54.3333740234375 108.00001525878906 49.00006103515625 113.33334350585938 45.80010986328125 115.4666748046875 44.7333984375 117.60000610351563 44.7333984375 116.53335571289063 51.1334228515625 111.20002746582033 69.2667236328125 100.53335571289063 85.2667236328125 94.1333465576172 91.666748046875 90.933349609375 92.7333984375 89.86669921875 92.7333984375 89.86669921875 " />
        <polyline stroke="black" stroke-width="3" stroke-linecap="round" fill="transparent" stroke-linejoin="round" points="65.00006103515625 84.53335571289063 63.93341064453125 132.53334045410156 59.66668701171875 162.40003967285156 57.53338623046875 176.26669311523438 51.1334228515625 199.73336791992188 42.60003662109375 216.80001831054688 39.4000244140625 217.86666870117188 39.4000244140625 217.86666870117188 " />
        <polyline stroke="black" stroke-width="3" stroke-linecap="round" fill="transparent" stroke-linejoin="round" points="89.53338623046875 163.4666748046875 98.06671142578124 172.00001525878906 102.3333740234375 179.4666748046875 102.3333740234375 179.4666748046875 " />
        <polyline stroke="black" stroke-width="3" stroke-linecap="round" fill="transparent" stroke-linejoin="round" points="134.3333740234375 92.00001525878906 129 116.53335571289063 118.3333740234375 145.33334350585938 115.1334228515625 151.73338317871094 111.93341064453124 159.20001220703125 109.80010986328124 160.26669311523438 109.80010986328124 160.26669311523438 " />
        <polyline stroke="black" stroke-width="3" stroke-linecap="round" fill="transparent" stroke-linejoin="round" points="164.2000732421875 120.8000030517578 164.2000732421875 120.8000030517578 " />
        <polyline stroke="black" stroke-width="3" stroke-linecap="round" fill="transparent" stroke-linejoin="round" points="194.0667724609375 54.66667175292969 189.8001708984375 85.60000610351563 185.533447265625 102.66667175292967 174.86669921875 134.6666717529297 156.7333984375 176.26669311523438 151.4000244140625 189.06671142578125 148.2000732421875 193.33334350585935 148.2000732421875 193.33334350585935 " />
        <polyline stroke="black" stroke-width="3" stroke-linecap="round" fill="transparent" stroke-linejoin="round" points="198.3333740234375 132.53334045410156 209 144.26669311523438 226.0667724609375 163.4666748046875 230.3333740234375 169.86668395996094 232.4666748046875 175.20001220703125 232.4666748046875 175.20001220703125 " />
        </svg>