<?xml version="1.0" standalone="no"?>
    <svg width="256" height="256" xmlns="http://www.w3.org/2000/svg" version="1.1">
    <polyline stroke="black" stroke-width="3" stroke-linecap="round" fill="transparent" stroke-linejoin="round" points="51.63885498046875 94.33642578125 55.408538818359375 99.78155517578124 64.6234130859375 107.32096862792967 64.6234130859375 107.32096862792967 " />
        <polyline stroke="black" stroke-width="3" stroke-linecap="round" fill="transparent" stroke-linejoin="round" points="117.39926147460938 79.67645263671875 109.44100952148438 87.63473510742188 87.24163818359375 108.15869140625 64.6234130859375 124.91293334960938 48.28802490234375 136.2220458984375 43.68060302734375 139.5729217529297 36.560028076171875 142.9237518310547 36.14117431640625 142.9237518310547 39.492034912109375 139.154052734375 52.4765625 130.77694702148438 70.06854248046875 121.98095703125 88.49822998046875 114.44155883789063 101.901611328125 108.57754516601563 111.53533935546876 102.71354675292967 119.49359130859376 91.40443420410156 119.49359130859376 91.40443420410156 " />
        <polyline stroke="black" stroke-width="3" stroke-linecap="round" fill="transparent" stroke-linejoin="round" points="84.728515625 59.152496337890625 75.513671875 84.70272827148438 70.48739624023438 99.36271667480467 61.272552490234375 128.2637939453125 53.314300537109375 153.39517211914063 47.03143310546875 170.1494140625 44.518310546875 175.59454345703125 40.748626708984375 183.97166442871097 40.32977294921875 184.3905334472656 41.167449951171875 182.715087890625 41.167449951171875 182.715087890625 " />
        <polyline stroke="black" stroke-width="3" stroke-linecap="round" fill="transparent" stroke-linejoin="round" points="73.41940307617188 155.48944091796875 77.1890869140625 160.09686279296875 86.40390014648438 168.89285278320313 91.01132202148438 172.66256713867188 104.83358764648438 177.26995849609375 111.116455078125 174.33798217773438 111.116455078125 174.33798217773438 " />
        <polyline stroke="black" stroke-width="3" stroke-linecap="round" fill="transparent" stroke-linejoin="round" points="134.99127197265625 93.07986450195313 131.22152709960938 103.97013854980467 123.68212890625 126.16949462890624 116.98043823242188 143.761474609375 111.53533935546876 155.48944091796875 107.76559448242188 161.77227783203125 106.09017944335938 163.0288543701172 106.09017944335938 163.0288543701172 " />
        <polyline stroke="black" stroke-width="3" stroke-linecap="round" fill="transparent" stroke-linejoin="round" points="148.8134765625 135.38433837890625 150.90780639648438 137.47862243652344 152.583251953125 139.154052734375 156.77178955078125 142.50491333007813 158.44720458984375 141.66717529296875 158.44720458984375 141.66717529296875 " />
        <polyline stroke="black" stroke-width="3" stroke-linecap="round" fill="transparent" stroke-linejoin="round" points="178.97119140625 85.54045104980469 175.62030029296875 95.17413330078124 171.8505859375 105.2266845703125 164.31121826171875 124.91293334960938 160.54150390625 134.546630859375 153.83978271484375 149.62545776367188 148.3946533203125 161.77227783203125 145.04379272460938 169.31170654296875 142.94952392578125 173.08140563964844 141.69296264648438 174.33798217773438 142.11181640625 172.66256713867188 144.62493896484375 168.47398376464844 147.97579956054688 165.12313842773438 151.74554443359375 162.61001586914063 157.190673828125 161.77227783203125 160.54150390625 162.19114685058594 174.36376953125 166.79856872558594 184.416259765625 171.8248291015625 193.631103515625 177.68882751464844 202.845947265625 185.22824096679688 202.845947265625 185.22824096679688 " />
        </svg>