<?xml version="1.0" standalone="no"?>
    <svg width="256" height="256" xmlns="http://www.w3.org/2000/svg" version="1.1">
    <polyline stroke="black" stroke-width="3" stroke-linecap="round" fill="transparent" stroke-linejoin="round" points="85.2667236328125 94.1333465576172 85.2667236328125 94.1333465576172 " />
        <polyline stroke="black" stroke-width="3" stroke-linecap="round" fill="transparent" stroke-linejoin="round" points="78.86669921875 109.06668090820313 73.53338623046875 117.60000610351563 68.2000732421875 124.00001525878906 68.2000732421875 124.00001525878906 " />
        <polyline stroke="black" stroke-width="3" stroke-linecap="round" fill="transparent" stroke-linejoin="round" points="60.7333984375 128.26669311523438 82.06671142578125 116.53335571289063 99.1334228515625 109.06668090820313 106.60003662109376 103.73333740234376 108.7333984375 99.4666748046875 108.7333984375 99.4666748046875 " />
        <polyline stroke="black" stroke-width="3" stroke-linecap="round" fill="transparent" stroke-linejoin="round" points="78.86669921875 106.933349609375 78.86669921875 134.6666717529297 75.66668701171875 159.20001220703125 69.2667236328125 177.33334350585938 65.00006103515625 186.933349609375 55.4000244140625 186.933349609375 55.4000244140625 186.933349609375 " />
        <polyline stroke="black" stroke-width="3" stroke-linecap="round" fill="transparent" stroke-linejoin="round" points="93.80010986328124 152.80001831054688 97.00006103515624 153.86668395996094 102.3333740234375 154.93336486816406 105.53338623046876 153.86668395996094 105.53338623046876 153.86668395996094 " />
        <polyline stroke="black" stroke-width="3" stroke-linecap="round" fill="transparent" stroke-linejoin="round" points="124.7333984375 82.40000915527344 121.53338623046876 96.26667785644533 115.1334228515625 132.53334045410156 113.00006103515624 145.33334350585938 109.80010986328124 150.6666717529297 108.7333984375 151.73338317871094 108.7333984375 151.73338317871094 " />
        <polyline stroke="black" stroke-width="3" stroke-linecap="round" fill="transparent" stroke-linejoin="round" points="134.3333740234375 122.93336486816406 140.7333984375 126.1333465576172 146.0667724609375 122.93336486816406 146.0667724609375 122.93336486816406 " />
        <polyline stroke="black" stroke-width="3" stroke-linecap="round" fill="transparent" stroke-linejoin="round" points="172.7333984375 52.533355712890625 172.7333984375 84.53335571289063 167.4000244140625 118.66667175292967 150.3333740234375 163.4666748046875 140.7333984375 183.73336791992188 135.4000244140625 190.13336181640625 133.2667236328125 189.06671142578125 133.2667236328125 189.06671142578125 " />
        <polyline stroke="black" stroke-width="3" stroke-linecap="round" fill="transparent" stroke-linejoin="round" points="180.2000732421875 141.06671142578125 195.1334228515625 160.26669311523438 211.1334228515625 175.20001220703125 227.1334228515625 190.13336181640625 236.7333984375 198.66668701171875 236.7333984375 198.66668701171875 " />
        </svg>