<?xml version="1.0" standalone="no"?>
    <svg width="256" height="256" xmlns="http://www.w3.org/2000/svg" version="1.1">
    <polyline stroke="black" stroke-width="3" stroke-linecap="round" fill="transparent" stroke-linejoin="round" points="90 53 91 57 91 59 91 61 92 63 93 66 93 68 94 70 95 73 96 75 97 77 97 79 98 80 100 82 101 84 102 85 104 87 106 88 108 89 110 90 112 90 115 91 " />
        <polyline stroke="black" stroke-width="3" stroke-linecap="round" fill="transparent" stroke-linejoin="round" points="140 40 140 40 140 40 136 44 135 47 132 50 130 54 127 58 123 63 120 69 116 74 112 80 107 87 103 93 99 99 94 104 90 110 87 116 83 121 80 126 77 131 74 135 72 139 " />
        <polyline stroke="black" stroke-width="3" stroke-linecap="round" fill="transparent" stroke-linejoin="round" points="60 100 65 100 68 100 72 100 75 101 78 101 82 102 86 102 90 103 94 104 98 105 103 106 107 107 112 108 117 109 122 111 127 112 132 113 137 115 142 116 147 117 152 118 156 119 160 119 164 120 167 120 170 120 173 120 175 120 177 119 179 119 " />
        <polyline stroke="black" stroke-width="3" stroke-linecap="round" fill="transparent" stroke-linejoin="round" points="62 172 61 172 60 173 59 173 59 173 59 173 60 173 60 173 62 172 63 172 65 171 67 171 69 170 72 169 75 168 79 167 82 166 86 165 91 164 95 163 100 162 105 161 110 160 115 159 120 158 125 157 130 157 136 156 141 155 146 155 151 154 156 153 161 152 165 151 169 150 172 149 175 148 " />
        <polyline stroke="black" stroke-width="3" stroke-linecap="round" fill="transparent" stroke-linejoin="round" points="98 128 96 130 95 133 95 135 94 138 94 142 93 145 93 149 93 152 93 156 94 160 94 164 94 168 95 172 95 175 96 179 97 185 98 188 99 191 100 193 101 196 101 198 102 200 103 201 104 203 105 204 106 205 107 206 108 207 109 208 110 209 111 209 113 209 114 209 116 209 118 208 120 207 122 206 124 204 127 202 129 199 132 195 134 192 " />
        <polyline stroke="black" stroke-width="3" stroke-linecap="round" fill="transparent" stroke-linejoin="round" points="145 123 144 122 144 123 143 124 143 126 142 129 142 133 142 137 141 141 141 146 141 151 141 156 141 161 141 166 141 171 141 176 142 182 142 187 142 192 142 196 143 201 143 205 144 209 145 212 146 216 " />
        </svg>