<?xml version="1.0" standalone="no"?>
    <svg width="256" height="256" xmlns="http://www.w3.org/2000/svg" version="1.1">
    <polyline stroke="black" stroke-width="3" stroke-linecap="round" fill="transparent" stroke-linejoin="round" points="62.21337890625 83.11018371582031 74.84613037109375 76.00428771972656 80.3729248046875 73.24087524414063 86.29452514648438 70.47747802734375 97.74288940429688 66.13497924804688 108.7965087890625 63.37158203125 114.32333374023438 62.58203125 119.45538330078124 62.58203125 128.140380859375 63.76634216308594 134.06195068359375 67.31930541992188 139.5887451171875 76.7938232421875 142.74691772460938 97.32199096679688 139.9835205078125 121.40310668945313 132.87762451171875 143.11557006835938 124.58740234375 159.69598388671875 117.08676147460938 172.72348022460938 117.08676147460938 172.72348022460938 " />
        <polyline stroke="black" stroke-width="3" stroke-linecap="round" fill="transparent" stroke-linejoin="round" points="117.48153686523438 101.26971435546876 107.61224365234376 125.74559020996094 103.26971435546876 137.5887451171875 92.216064453125 167.1966552734375 85.11019897460938 184.171875 83.92587280273438 187.33004760742188 83.92587280273438 187.33004760742188 " />
        <polyline stroke="black" stroke-width="3" stroke-linecap="round" fill="transparent" stroke-linejoin="round" points="71.68792724609375 152.1953125 80.3729248046875 145.87896728515625 86.68930053710938 142.32601928710938 93.400390625 138.7730712890625 109.5860595703125 131.2723846435547 118.27105712890624 127.71945190429688 137.22015380859375 121.7978515625 151.82666015625 118.2449188232422 157.353515625 117.4553680419922 157.353515625 117.4553680419922 " />
        <polyline stroke="black" stroke-width="3" stroke-linecap="round" fill="transparent" stroke-linejoin="round" points="61.423828125 189.69866943359375 74.45135498046875 188.11959838867188 81.16244506835938 186.93527221679688 88.66314697265625 185.356201171875 96.953369140625 183.38232421875 123.7978515625 175.48687744140625 132.87762451171875 171.93392944335938 154.1953125 162.0646209716797 154.1953125 162.0646209716797 " />
        <polyline stroke="black" stroke-width="3" stroke-linecap="round" fill="transparent" stroke-linejoin="round" points="165.64373779296875 98.1115264892578 179.46075439453125 90.61087036132813 187.356201171875 87.45268249511719 204.3314208984375 81.13632202148438 212.62158203125 77.9781494140625 226.04388427734375 73.24087524414063 234.7288818359375 70.47747802734375 237.8870849609375 69.68792724609375 237.8870849609375 69.68792724609375 " />
        <polyline stroke="black" stroke-width="3" stroke-linecap="round" fill="transparent" stroke-linejoin="round" points="199.5941162109375 94.95335388183594 192.09344482421875 106.4017333984375 188.145751953125 112.71810913085938 173.1444091796875 140.74693298339844 162.09075927734375 162.4593963623047 151.431884765625 182.987548828125 142.35214233398438 201.1470947265625 136.03582763671875 213.385009765625 133.66717529296875 218.12228393554688 133.66717529296875 218.12228393554688 " />
        <polyline stroke="black" stroke-width="3" stroke-linecap="round" fill="transparent" stroke-linejoin="round" points="171.1705322265625 150.61624145507813 178.67120361328125 144.29986572265625 182.22412109375 142.32601928710938 186.171875 140.35215759277344 193.67254638671875 137.5887451171875 203.1470947265625 136.4044189453125 206.7000732421875 137.5887451171875 209.46343994140625 145.87896728515625 208.6739501953125 153.379638671875 203.9366455078125 171.14439392089844 198.80462646484375 185.356201171875 195.25164794921875 196.40982055664065 193.67254638671875 204.70001220703125 194.06732177734375 211.41116333007813 196.04119873046875 216.543212890625 198.80462646484375 220.09613037109375 203.5418701171875 222.46478271484375 209.85821533203125 223.25433349609375 216.174560546875 221.67523193359375 219.332763671875 220.09613037109375 227.62298583984375 211.80593872070313 230.3863525390625 208.25299072265625 235.9132080078125 194.83071899414065 236.7027587890625 188.51437377929688 235.9132080078125 178.6450653076172 235.9132080078125 178.6450653076172 " />
        </svg>