<?xml version="1.0" standalone="no"?>
    <svg width="256" height="256" xmlns="http://www.w3.org/2000/svg" version="1.1">
    <polyline stroke="black" stroke-width="3" stroke-linecap="round" fill="transparent" stroke-linejoin="round" points="40.858245849609375 100.85040283203124 53.175384521484375 93.04953002929688 63.8502197265625 87.30155944824219 74.93563842773438 82.37469482421875 85.61053466796875 78.67955017089844 94.64306640625 77.03726196289063 102.0333251953125 77.03726196289063 107.78134155273438 79.50070190429688 110.2447509765625 81.55355834960938 118.04559326171876 103.72439575195313 119.27731323242188 127.53750610351563 116.4033203125 149.70834350585938 114.3504638671875 157.91973876953125 109.83419799804688 171.46859741210938 104.9073486328125 181.32229614257813 102.44393920898438 184.60687255859375 102.44393920898438 184.60687255859375 " />
        <polyline stroke="black" stroke-width="3" stroke-linecap="round" fill="transparent" stroke-linejoin="round" points="75.75680541992188 100.02923583984376 73.29339599609375 115.63095092773438 71.24053955078125 131.64321899414063 68.36651611328125 146.83433532714844 65.08197021484375 159.56204223632813 61.79736328125 167.36288452148438 58.10223388671875 172.70030212402344 58.10223388671875 172.70030212402344 " />
        <polyline stroke="black" stroke-width="3" stroke-linecap="round" fill="transparent" stroke-linejoin="round" points="35.931396484375 153.40347290039063 48.24853515625 140.67576599121094 54.4071044921875 136.15948486328125 73.70394897460938 125.07408142089844 85.199951171875 120.96836853027344 94.23251342773438 118.91551208496094 101.21221923828124 118.09439086914063 103.67562866210938 117.68380737304688 109.83419799804688 117.68380737304688 109.83419799804688 117.68380737304688 " />
        <polyline stroke="black" stroke-width="3" stroke-linecap="round" fill="transparent" stroke-linejoin="round" points="29.362274169921875 194.87115478515625 42.0899658203125 196.10284423828125 56.87054443359375 195.28170776367188 72.47222900390625 193.63943481445313 80.68365478515625 192.40771484375 101.62277221679688 189.53372192382813 107.78134155273438 188.302001953125 120.91961669921876 185.42800903320313 123.79364013671876 184.60687255859375 123.79364013671876 184.60687255859375 " />
        <polyline stroke="black" stroke-width="3" stroke-linecap="round" fill="transparent" stroke-linejoin="round" points="134.46844482421875 95.51296997070313 152.12298583984375 86.06985473632813 157.46044921875 83.60641479492188 168.13525390625 79.50070190429688 177.578369140625 75.80555725097656 181.2735595703125 74.16326904296875 187.43212890625 72.11041259765625 193.18011474609375 70.05755615234375 194.8223876953125 69.23641967773438 195.23297119140625 68.82585144042969 194.8223876953125 68.82585144042969 194.001220703125 69.64698791503906 189.8955078125 74.5738525390625 183.326416015625 84.42755126953125 174.2938232421875 99.61868286132813 164.029541015625 119.32609558105467 152.12298583984375 143.9603271484375 141.44818115234375 166.541748046875 132.00506591796875 185.42800903320313 124.20419311523438 199.38742065429688 118.4561767578125 210.8834228515625 115.58221435546876 215.81027221679688 114.3504638671875 217.86312866210935 113.93988037109376 217.4525451660156 114.3504638671875 214.16796875 117.22445678710938 205.13543701171875 121.33016967773438 194.04998779296875 123.79364013671876 186.2491455078125 127.07818603515624 179.26943969726563 131.59445190429688 171.46859741210938 138.98471069335938 162.8466033935547 149.24899291992188 152.5823211669922 161.566162109375 142.31805419921875 173.88330078125 134.10665893554688 179.220703125 130.4114990234375 188.2532958984375 125.89520263671876 194.8223876953125 123.43179321289063 200.98095703125 123.43179321289063 203.0338134765625 125.07408142089844 204.2655029296875 133.69607543945313 202.62322998046875 150.118896484375 199.749267578125 166.13116455078125 197.6964111328125 173.9320068359375 194.001220703125 190.3548583984375 193.5906982421875 196.92401123046875 194.8223876953125 201.44027709960935 198.51751708984375 204.724853515625 205.49725341796875 207.59884643554688 210.0135498046875 208.41998291015625 223.972900390625 208.83056640625 231.7738037109375 207.59884643554688 237.521728515625 204.724853515625 241.2169189453125 201.44027709960935 244.50146484375 195.6922912597656 245.73321533203125 191.176025390625 244.50146484375 173.1108856201172 241.62744140625 164.8994598388672 237.521728515625 157.09861755371094 237.521728515625 157.09861755371094 " />
        </svg>