<?xml version="1.0" standalone="no"?>
    <svg width="256" height="256" xmlns="http://www.w3.org/2000/svg" version="1.1">
    <polyline stroke="black" stroke-width="3" stroke-linecap="round" fill="transparent" stroke-linejoin="round" points="81.47015380859375 64.34799194335938 79.42431640625 71.8492431640625 75.6737060546875 82.07820129394531 70.5592041015625 92.30715942382813 70.5592041015625 92.30715942382813 " />
        <polyline stroke="black" stroke-width="3" stroke-linecap="round" fill="transparent" stroke-linejoin="round" points="70.5592041015625 108.67350769042967 78.40142822265625 104.5819091796875 85.56170654296875 101.17227172851563 99.2003173828125 96.05778503417967 107.04254150390624 93.67103576660156 107.04254150390624 93.67103576660156 " />
        <polyline stroke="black" stroke-width="3" stroke-linecap="round" fill="transparent" stroke-linejoin="round" points="64.42184448242188 153.68093872070313 72.2640380859375 148.90740966796875 79.08334350585938 145.15679931640625 90.67620849609376 139.36038208007813 99.541259765625 134.58688354492188 103.63287353515624 131.51817321777344 103.63287353515624 131.51817321777344 " />
        <polyline stroke="black" stroke-width="3" stroke-linecap="round" fill="transparent" stroke-linejoin="round" points="74.65081787109375 118.22052001953124 62.03509521484375 141.74713134765625 46.691650390625 181.29913330078125 41.91815185546875 199.71127319335935 41.2362060546875 208.23541259765625 41.2362060546875 209.59927368164065 41.2362060546875 209.59927368164065 " />
        <polyline stroke="black" stroke-width="3" stroke-linecap="round" fill="transparent" stroke-linejoin="round" points="91.35812377929688 166.97857666015625 94.76776123046876 171.75210571289063 98.17742919921876 176.18466186523438 107.72445678710938 184.36782836914065 114.20281982421876 185.04974365234375 114.20281982421876 185.04974365234375 " />
        <polyline stroke="black" stroke-width="3" stroke-linecap="round" fill="transparent" stroke-linejoin="round" points="141.48004150390625 116.85667419433594 147.27645874023438 116.17474365234376 154.09576416015625 115.83377075195313 161.5970458984375 115.4927978515625 170.12109375 115.15184020996094 181.031982421875 113.78799438476563 191.6019287109375 110.7192840576172 191.6019287109375 110.7192840576172 " />
        <polyline stroke="black" stroke-width="3" stroke-linecap="round" fill="transparent" stroke-linejoin="round" points="159.55120849609375 91.28427124023438 156.14154052734375 106.96867370605467 152.04998779296875 123.3350067138672 146.594482421875 141.06521606445313 132.61492919921875 183.68588256835935 127.84140014648438 198.0064392089844 127.84140014648438 198.0064392089844 " />
        <polyline stroke="black" stroke-width="3" stroke-linecap="round" fill="transparent" stroke-linejoin="round" points="171.4849853515625 146.1796875 187.16937255859375 170.04727172851563 187.16937255859375 170.04727172851563 " />
        </svg>