<?xml version="1.0" standalone="no"?>
    <svg width="256" height="256" xmlns="http://www.w3.org/2000/svg" version="1.1">
    <polyline stroke="black" stroke-width="3" stroke-linecap="round" fill="transparent" stroke-linejoin="round" points="89.60189819335938 74.16567993164063 90.30975341796876 80.18218994140625 89.955810546875 87.26042175292969 85.35498046875 104.60211181640624 80.75411987304688 114.51164245605467 80.75411987304688 114.51164245605467 " />
        <polyline stroke="black" stroke-width="3" stroke-linecap="round" fill="transparent" stroke-linejoin="round" points="38.28466796875 138.57766723632813 47.48638916015625 132.20724487304688 57.0419921875 125.83683776855467 66.59762573242188 120.17424011230467 84.64715576171875 112.03427124023438 100.21929931640624 107.43341064453124 111.89837646484376 106.7255859375 116.85311889648438 109.91079711914063 116.85311889648438 109.91079711914063 " />
        <polyline stroke="black" stroke-width="3" stroke-linecap="round" fill="transparent" stroke-linejoin="round" points="56.688079833984375 180.3392791748047 64.82806396484375 177.5079803466797 74.02978515625 174.32278442382813 90.30975341796876 168.66018676757813 104.46624755859376 162.6436767578125 109.42098999023438 159.45848083496094 109.42098999023438 159.45848083496094 " />
        <polyline stroke="black" stroke-width="3" stroke-linecap="round" fill="transparent" stroke-linejoin="round" points="71.90631103515625 160.87413024902344 67.305419921875 172.90713500976563 63.41241455078125 184.2323303222656 57.749847412109375 200.5122985839844 53.856781005859375 211.12966918945313 52.087249755859375 217.50006103515625 52.087249755859375 217.50006103515625 " />
        <polyline stroke="black" stroke-width="3" stroke-linecap="round" fill="transparent" stroke-linejoin="round" points="77.92282104492188 198.3887939453125 85.7088623046875 200.15835571289065 95.26449584960938 202.2818298339844 122.86962890625 205.467041015625 141.626953125 200.15835571289065 141.626953125 200.15835571289065 " />
        <polyline stroke="black" stroke-width="3" stroke-linecap="round" fill="transparent" stroke-linejoin="round" points="138.08786010742188 115.21946716308594 145.16610717773438 112.74209594726563 152.24432373046875 110.2646942138672 167.46258544921875 104.95602416992188 175.6025390625 100.70907592773438 191.88250732421875 86.5526123046875 191.88250732421875 86.5526123046875 " />
        <polyline stroke="black" stroke-width="3" stroke-linecap="round" fill="transparent" stroke-linejoin="round" points="149.76693725585938 113.80381774902344 147.28955078125 130.43768310546875 144.10433959960938 147.4254608154297 137.38006591796875 178.21580505371094 134.90264892578125 189.8948974609375 131.363525390625 206.17486572265625 129.9478759765625 213.25311279296875 129.9478759765625 213.25311279296875 " />
        <polyline stroke="black" stroke-width="3" stroke-linecap="round" fill="transparent" stroke-linejoin="round" points="183.03466796875 180.3392791748047 189.4051513671875 187.77145385742188 196.8372802734375 196.26531982421875 204.623291015625 205.82098388671875 213.1171875 215.02267456054688 213.1171875 215.02267456054688 " />
        </svg>