<?xml version="1.0" standalone="no"?>
    <svg width="256" height="256" xmlns="http://www.w3.org/2000/svg" version="1.1">
    <polyline stroke="black" stroke-width="3" stroke-linecap="round" fill="transparent" stroke-linejoin="round" points="74.92523193359375 45.974220275878906 84.71905517578125 58.82859802246094 89.615966796875 64.33761596679688 95.125 66.17396545410156 95.125 66.17396545410156 " />
        <polyline stroke="black" stroke-width="3" stroke-linecap="round" fill="transparent" stroke-linejoin="round" points="119.60952758789063 25.77447509765625 128.17910766601563 31.895606994628903 132.46389770507813 35.56829071044922 137.972900390625 38.016746520996094 147.7667236328125 36.792518615722656 147.7667236328125 36.792518615722656 " />
        <polyline stroke="black" stroke-width="3" stroke-linecap="round" fill="transparent" stroke-linejoin="round" points="177.148193359375 14.756439208984377 169.80279541015625 30.05927276611328 153.88787841796875 53.93169403076172 133.07601928710938 82.70101928710938 133.07601928710938 82.70101928710938 " />
        <polyline stroke="black" stroke-width="3" stroke-linecap="round" fill="transparent" stroke-linejoin="round" points="55.337615966796875 110.24612426757813 73.70101928710938 98.0038604736328 85.3311767578125 91.27059936523438 96.34921264648438 85.76158142089844 103.694580078125 82.70101928710938 107.9793701171875 82.70101928710938 107.9793701171875 87.59793090820313 100.63400268554688 104.12498474121094 83.49481201171875 134.73065185546875 70.64044189453125 156.1546173095703 60.84661865234375 170.8453369140625 55.337615966796875 177.57858276367188 52.88916015625 180.63916015625 52.88916015625 180.63916015625 " />
        <polyline stroke="black" stroke-width="3" stroke-linecap="round" fill="transparent" stroke-linejoin="round" points="83.49481201171875 131.6700897216797 93.9007568359375 127.99740600585938 108.59149169921876 123.10049438476563 124.50640869140624 118.20359802246094 146.54251098632813 113.3066864013672 164.9058837890625 113.3066864013672 179.59661865234375 118.20359802246094 190.0025634765625 129.833740234375 195.5115966796875 151.8698272705078 193.0631103515625 176.9664764404297 187.5540771484375 194.7177734375 178.3724365234375 205.73580932617188 167.3543701171875 214.91751098632813 153.88787841796875 221.03863525390625 141.03350830078125 219.81442260742188 141.03350830078125 219.81442260742188 " />
        <polyline stroke="black" stroke-width="3" stroke-linecap="round" fill="transparent" stroke-linejoin="round" points="113.4884033203125 134.73065185546875 104.9188232421875 153.09405517578125 96.96133422851563 169.62110900878906 90.22808837890624 184.31182861328125 85.94329833984375 191.65719604492188 83.49481201171875 195.32986450195313 85.3311767578125 193.4935302734375 85.3311767578125 193.4935302734375 " />
        <polyline stroke="black" stroke-width="3" stroke-linecap="round" fill="transparent" stroke-linejoin="round" points="146.54251098632813 123.10049438476563 142.86981201171875 139.01544189453125 136.1365966796875 155.54251098632813 126.95489501953124 174.5180206298828 115.93682861328124 197.7783203125 115.93682861328124 197.7783203125 " />
        </svg>