<?xml version="1.0" standalone="no"?>
    <svg width="256" height="256" xmlns="http://www.w3.org/2000/svg" version="1.1">
    <polyline stroke="black" stroke-width="3" stroke-linecap="round" fill="transparent" stroke-linejoin="round" points="79.59793090820313 42.91365051269531 86.94329833984375 54.54380798339844 90.615966796875 60.052825927734375 93.676513671875 65.56184387207031 97.34921264648438 69.84663391113281 101.02191162109376 71.07086181640625 101.02191162109376 71.07086181640625 " />
        <polyline stroke="black" stroke-width="3" stroke-linecap="round" fill="transparent" stroke-linejoin="round" points="109.59149169921876 45.974220275878906 121.22161865234376 49.03478240966797 125.50640869140624 50.871124267578125 129.17910766601563 52.70746612548828 129.17910766601563 52.70746612548828 " />
        <polyline stroke="black" stroke-width="3" stroke-linecap="round" fill="transparent" stroke-linejoin="round" points="171.4149169921875 20.265457153320313 160.39691162109375 42.91365051269531 145.09405517578125 68.62240600585938 130.4033203125 88.21003723144531 130.4033203125 88.21003723144531 " />
        <polyline stroke="black" stroke-width="3" stroke-linecap="round" fill="transparent" stroke-linejoin="round" points="72.86468505859375 107.185546875 82.65850830078125 101.67652893066406 92.45230102539063 97.39173889160156 102.24612426757813 92.4948272705078 110.20361328125 88.82215881347656 115.71261596679688 87.59793090820313 117.5489501953125 89.43426513671875 113.87628173828124 99.84019470214844 91.22808837890624 144.52447509765625 80.21002197265625 163.49998474121094 70.41622924804688 176.3543701171875 65.51931762695313 183.08761596679688 63.07086181640625 186.76028442382813 63.07086181640625 186.76028442382813 " />
        <polyline stroke="black" stroke-width="3" stroke-linecap="round" fill="transparent" stroke-linejoin="round" points="107.755126953125 134.11854553222656 119.38531494140624 128.60952758789063 133.46389770507813 123.71261596679688 148.7667236328125 118.81570434570313 164.68170166015625 115.75514221191406 178.76025390625 116.36724853515624 190.39044189453125 120.6520538330078 197.1236572265625 131.05796813964844 198.96002197265625 153.70616149902344 189.7783203125 190.4329833984375 175.69970703125 216.1417236328125 161.009033203125 232.66879272460935 144.48193359375 238.7899169921875 134.07601928710938 236.95358276367188 129.17910766601563 224.0992126464844 129.17910766601563 224.0992126464844 " />
        <polyline stroke="black" stroke-width="3" stroke-linecap="round" fill="transparent" stroke-linejoin="round" points="134.07601928710938 131.6700897216797 126.1185302734375 144.52447509765625 105.9188232421875 191.65719604492188 98.57342529296876 204.51156616210935 92.45230102539063 214.91751098632813 88.16751098632813 219.20230102539065 88.16751098632813 216.75384521484375 88.16751098632813 216.75384521484375 " />
        <polyline stroke="black" stroke-width="3" stroke-linecap="round" fill="transparent" stroke-linejoin="round" points="155.5 136.56700134277344 150.60308837890625 153.09405517578125 144.48193359375 167.17266845703125 137.74868774414063 181.86338806152344 129.17910766601563 198.39044189453125 129.17910766601563 198.39044189453125 " />
        </svg>