<?xml version="1.0" standalone="no"?>
    <svg width="256" height="256" xmlns="http://www.w3.org/2000/svg" version="1.1">
    <polyline stroke="black" stroke-width="3" stroke-linecap="round" fill="transparent" stroke-linejoin="round" points="80 68 87 82 95 89 98 92 98 92 " />
        <polyline stroke="black" stroke-width="3" stroke-linecap="round" fill="transparent" stroke-linejoin="round" points="106 66 112 73 115 81 124 88 124 88 " />
        <polyline stroke="black" stroke-width="3" stroke-linecap="round" fill="transparent" stroke-linejoin="round" points="176 55 166 68 150 84 131 106 112 123 112 123 " />
        <polyline stroke="black" stroke-width="3" stroke-linecap="round" fill="transparent" stroke-linejoin="round" points="58 117 68 112 78 112 89 110 95 110 97 110 97 111 92 123 76 147 59 168 44 184 33 195 33 195 " />
        <polyline stroke="black" stroke-width="3" stroke-linecap="round" fill="transparent" stroke-linejoin="round" points="86 131 113 129 133 126 156 122 173 120 187 120 194 121 195 131 195 149 187 166 177 182 164 196 150 206 137 211 125 212 125 212 " />
        <polyline stroke="black" stroke-width="3" stroke-linecap="round" fill="transparent" stroke-linejoin="round" points="129 124 117 141 115 148 106 166 96 182 87 197 79 204 79 204 " />
        <polyline stroke="black" stroke-width="3" stroke-linecap="round" fill="transparent" stroke-linejoin="round" points="152 142 149 152 147 160 132 181 112 208 94 232 86 241 86 241 " />
        </svg>