<?xml version="1.0" standalone="no"?>
    <svg width="256" height="256" xmlns="http://www.w3.org/2000/svg" version="1.1">
    <polyline stroke="black" stroke-width="3" stroke-linecap="round" fill="transparent" stroke-linejoin="round" points="54.329681396484375 64.37089538574219 60.4967041015625 70.26084899902344 70.75607299804688 79.91238403320313 75.527099609375 84.20223999023438 83.21759033203125 86.4736328125 83.34613037109375 85.88594055175781 " />
        <polyline stroke="black" stroke-width="3" stroke-linecap="round" fill="transparent" stroke-linejoin="round" points="100.3724365234375 59.67236328125 82.9404296875 83.04092407226563 73.36727905273438 93.27236938476563 72.35906982421875 93.757080078125 " />
        <polyline stroke="black" stroke-width="3" stroke-linecap="round" fill="transparent" stroke-linejoin="round" points="54.8804931640625 94.246337890625 63.876708984375 87.9703369140625 73.94012451171875 81.04913330078125 84.9852294921875 74.10671997070313 103.08993530273438 63.298309326171875 108.59185791015624 60.71162414550781 115.99853515625 58.8751220703125 115.45166015625 59.71832275390625 115.41525268554688 59.77447509765625 " />
        <polyline stroke="black" stroke-width="3" stroke-linecap="round" fill="transparent" stroke-linejoin="round" points="81.31344604492188 58.273468017578125 76.6650390625 87.83566284179688 72.70590209960938 102.35911560058594 62.443939208984375 126.57028198242188 56.95611572265625 136.00213623046875 48.97119140625 146.32125854492188 42.992523193359375 155.5475311279297 41.471038818359375 162.1282196044922 41.31890869140625 162.78628540039063 " />
        <polyline stroke="black" stroke-width="3" stroke-linecap="round" fill="transparent" stroke-linejoin="round" points="87.67236328125 100.93740844726563 94.39849853515624 104.48600769042967 109.1265869140625 112.78623962402344 116.71551513671876 118.07534790039063 117.77609252929688 119.221923828125 117.92034912109376 119.37789916992188 117.93438720703124 119.39303588867188 " />
        <polyline stroke="black" stroke-width="3" stroke-linecap="round" fill="transparent" stroke-linejoin="round" points="79.47946166992188 160.162353515625 84.96636962890625 166.0210418701172 93.21038818359376 175.09027099609375 96.56063842773438 175.89984130859375 96.73809814453124 175.73883056640625 " />
        <polyline stroke="black" stroke-width="3" stroke-linecap="round" fill="transparent" stroke-linejoin="round" points="108.13818359375 150.5703582763672 104.4876708984375 163.846923828125 99.235595703125 179.6035614013672 83.82513427734375 209.71795654296875 75.58493041992188 222.2623291015625 60.82562255859375 239.39334106445313 55.30072021484375 243.235595703125 50.509124755859375 244.9189453125 53.4981689453125 239.65435791015625 " />
        <polyline stroke="black" stroke-width="3" stroke-linecap="round" fill="transparent" stroke-linejoin="round" points="60.923431396484375 196.75564575195313 78.48678588867188 203.0419006347656 87.07614135742188 208.32931518554688 101.0501708984375 219.86572265625 105.066162109375 224.49435424804688 106.59625244140624 227.62863159179688 106.73104858398438 227.90478515625 " />
        <polyline stroke="black" stroke-width="3" stroke-linecap="round" fill="transparent" stroke-linejoin="round" points="142.940673828125 113.01394653320313 138.93701171875 146.95697021484375 135.3701171875 162.2371826171875 126.22274780273438 191.93475341796875 121.91046142578124 203.776123046875 117.34912109375 214.73870849609375 110.00299072265624 226.55776977539065 109.88705444335938 227.2828369140625 109.87542724609376 227.35540771484375 " />
        <polyline stroke="black" stroke-width="3" stroke-linecap="round" fill="transparent" stroke-linejoin="round" points="158.28424072265625 210.18798828125 163.43865966796875 214.41427612304688 164.20550537109375 215.296142578125 164.7056884765625 215.4801025390625 164.8992919921875 215.55133056640625 " />
        <polyline stroke="black" stroke-width="3" stroke-linecap="round" fill="transparent" stroke-linejoin="round" points="188.0196533203125 112.5743408203125 185.8101806640625 128.05731201171875 183.15948486328125 147.29443359375 179.5325927734375 166.36459350585938 172.66229248046875 199.61526489257813 170.2864990234375 210.98654174804688 168.291748046875 224.4945068359375 168.98651123046875 228.39874267578125 169.0322265625 228.52261352539065 " />
        <polyline stroke="black" stroke-width="3" stroke-linecap="round" fill="transparent" stroke-linejoin="round" points="189.94671630859375 187.7967529296875 193.17156982421875 194.18463134765625 196.01959228515625 200.82452392578125 211.4844970703125 211.754638671875 214.77203369140625 213.90304565429688 216.420654296875 216.20913696289065 212.36053466796875 220.27880859375 211.02001953125 220.36962890625 " />
        </svg>