<?xml version="1.0" standalone="no"?>
    <svg width="256" height="256" xmlns="http://www.w3.org/2000/svg" version="1.1">
    <polyline stroke="black" stroke-width="3" stroke-linecap="round" fill="transparent" stroke-linejoin="round" points="59.415283203125 69.29853820800781 61.210235595703125 72.05607604980469 63.1873779296875 74.60546875 66.67330932617188 77.38900756835938 66.67330932617188 77.38900756835938 " />
        <polyline stroke="black" stroke-width="3" stroke-linecap="round" fill="transparent" stroke-linejoin="round" points="91.33489990234376 45.52142333984375 86.18405151367188 57.123809814453125 80.40887451171875 69.53266906738281 78.06756591796875 80.276611328125 78.06756591796875 80.276611328125 " />
        <polyline stroke="black" stroke-width="3" stroke-linecap="round" fill="transparent" stroke-linejoin="round" points="50.75250244140625 94.24632263183594 66.49118041992188 86.05178833007813 80.92916870117188 79.60023498535156 89.90414428710938 76.244384765625 94.74276733398438 74.65750122070313 96.74588012695313 74.24127197265625 97.24017333984376 74.13720703125 97.24017333984376 74.13720703125 " />
        <polyline stroke="black" stroke-width="3" stroke-linecap="round" fill="transparent" stroke-linejoin="round" points="72.0062255859375 48.9813232421875 72.0322265625 54.75651550292969 71.56396484375 61.93647766113281 70.86160278320313 69.71476745605469 69.32672119140625 79.00190734863281 67.81793212890625 88.86134338378906 66.46517944335938 99.0069580078125 65.24252319335938 107.48762512207033 62.17279052734375 117.34706115722656 59.051055908203125 125.95783996582033 56.709808349609375 132.74755859375 54.602630615234375 138.1585693359375 52.7816162109375 142.3208465576172 51.454925537109375 145.078369140625 51.194732666015625 145.6506805419922 50.75250244140625 146.5872039794922 50.75250244140625 146.5872039794922 " />
        <polyline stroke="black" stroke-width="3" stroke-linecap="round" fill="transparent" stroke-linejoin="round" points="75.72625732421875 101.9985809326172 82.72412109375 105.01628112792967 87.61483764648438 106.8372802734375 91.56903076171876 108.3721160888672 92.895751953125 108.9184112548828 94.0404052734375 109.41268920898438 94.950927734375 109.59480285644533 95.49716186523438 109.80290222167967 95.65325927734376 110.2971649169922 95.67929077148438 110.32318115234376 95.67929077148438 110.32318115234376 " />
        <polyline stroke="black" stroke-width="3" stroke-linecap="round" fill="transparent" stroke-linejoin="round" points="84.5711669921875 137.248046875 80.0706787109375 152.70057678222656 73.6971435546875 169.45382690429688 65.37255859375 187.22161865234375 57.204010009765625 200.3848876953125 51.350830078125 206.1861267089844 48.046966552734375 209.177734375 45.133392333984375 209.54196166992188 45.133392333984375 209.54196166992188 " />
        <polyline stroke="black" stroke-width="3" stroke-linecap="round" fill="transparent" stroke-linejoin="round" points="60.8720703125 161.2593231201172 72.266357421875 166.85238647460938 83.4525146484375 173.8762664794922 93.416015625 181.29037475585935 101.22036743164063 186.51925659179688 103.353515625 188.4703063964844 104.44613647460938 189.77102661132813 104.68026733398438 190.16128540039065 104.62820434570313 191.0977783203125 104.62820434570313 191.0977783203125 " />
        <polyline stroke="black" stroke-width="3" stroke-linecap="round" fill="transparent" stroke-linejoin="round" points="68.10406494140625 147.05545043945313 79.55038452148438 154.05331420898438 79.55038452148438 154.05331420898438 " />
        <polyline stroke="black" stroke-width="3" stroke-linecap="round" fill="transparent" stroke-linejoin="round" points="145.41873168945313 82.30572509765625 140.996337890625 98.17448425292967 133.89437866210938 118.6998291015625 123.87884521484376 141.2542724609375 118.31179809570313 153.4550018310547 113.44711303710938 164.6151580810547 109.492919921875 174.24046325683594 105.07049560546876 183.57965087890625 101.58453369140624 190.9676818847656 99.19125366210938 195.49420166015625 98.54086303710938 197.029052734375 98.15066528320313 198.87603759765625 97.8905029296875 200.04669189453125 97.8905029296875 200.04669189453125 " />
        <polyline stroke="black" stroke-width="3" stroke-linecap="round" fill="transparent" stroke-linejoin="round" points="132.22946166992188 147.7838592529297 138.99322509765625 154.31346130371094 143.88388061523438 159.28221130371094 145.73092651367188 161.62350463867188 146.27719116210938 162.58602905273438 146.61541748046875 163.15834045410156 147.26571655273438 163.78269958496094 147.78607177734375 164.2249298095703 147.78607177734375 164.2249298095703 " />
        <polyline stroke="black" stroke-width="3" stroke-linecap="round" fill="transparent" stroke-linejoin="round" points="196 49 196.042724609375 60.27156066894531 193.519287109375 77.31097412109375 187.9522705078125 101.2441864013672 184.0240478515625 115.8382568359375 178.0667724609375 130.79647827148438 171.485107421875 145.28646850585938 162.8223876953125 159.4382781982422 152.83282470703125 172.65359497070313 143.57174682617188 185.53070068359375 132.515625 197.26318359375 123.748779296875 206.5243225097656 116.49078369140624 213.99038696289065 111.26190185546876 219.6615295410156 111.26190185546876 219.6615295410156 " />
        <polyline stroke="black" stroke-width="3" stroke-linecap="round" fill="transparent" stroke-linejoin="round" points="189.2269287109375 153.09078979492188 193.36322021484375 157.30511474609375 203.27471923828125 166.7743377685547 209.88232421875 174.81277465820313 214.903076171875 181.10824584960935 217.55657958984375 184.2040100097656 218.649169921875 185.686767578125 218.9873046875 186.41519165039065 219.3255615234375 186.98748779296875 219.871826171875 187.71588134765625 219.871826171875 187.71588134765625 " />
        </svg>