<?xml version="1.0" standalone="no"?>
    <svg width="256" height="256" xmlns="http://www.w3.org/2000/svg" version="1.1">
    <polyline stroke="black" stroke-width="3" stroke-linecap="round" fill="transparent" stroke-linejoin="round" points="64.86419677734375 73.03335571289063 69.458984375 78.20249938964844 75.2025146484375 79.3511962890625 75.2025146484375 79.3511962890625 " />
        <polyline stroke="black" stroke-width="3" stroke-linecap="round" fill="transparent" stroke-linejoin="round" points="107.36602783203124 59.24897766113281 96.45343017578124 70.16160583496094 81.52032470703125 83.37164306640625 67.16162109375 94.85861206054688 56.823333740234375 102.3251495361328 50.5054931640625 106.91995239257813 47.63372802734375 109.79168701171876 48.782440185546875 109.79168701171876 53.95159912109375 108.0686492919922 76.925537109375 98.87905883789063 91.85861206054688 93.13557434082033 102.771240234375 87.39207458496094 109.6634521484375 82.22294616699219 116.55563354492188 75.33074951171875 116.55563354492188 75.33074951171875 " />
        <polyline stroke="black" stroke-width="3" stroke-linecap="round" fill="transparent" stroke-linejoin="round" points="85.540771484375 56.95158386230469 75.77685546875 89.68948364257813 68.8846435546875 110.94039916992188 61.992462158203125 128.74520874023438 55.67462158203125 142.5295867919922 51.6541748046875 151.1448211669922 49.356781005859375 155.7396240234375 49.356781005859375 155.7396240234375 " />
        <polyline stroke="black" stroke-width="3" stroke-linecap="round" fill="transparent" stroke-linejoin="round" points="84.39208984375 123.00172424316406 92.4329833984375 126.44781494140624 101.0482177734375 131.61695861816406 110.8121337890625 136.78610229492188 116.55563354492188 140.23219299316406 120.5760498046875 143.10394287109375 120.5760498046875 143.10394287109375 " />
        <polyline stroke="black" stroke-width="3" stroke-linecap="round" fill="transparent" stroke-linejoin="round" points="69.458984375 160.90875244140625 74.05380249023438 168.94964599609375 78.07424926757813 174.69313049316406 83.24337768554688 178.1392364501953 88.41253662109375 178.1392364501953 94.156005859375 174.11878967285156 101.0482177734375 166.65225219726563 107.36602783203124 156.31396484375 110.23779296875 151.1448211669922 110.8121337890625 147.69873046875 109.6634521484375 149.42178344726563 106.21734619140624 156.88832092285156 96.45343017578124 178.7135772705078 84.9664306640625 201.68753051757813 75.77685546875 217.19497680664065 69.458984375 226.38455200195313 64.28985595703125 230.97933959960935 59.695068359375 233.85107421875 59.695068359375 233.85107421875 " />
        <polyline stroke="black" stroke-width="3" stroke-linecap="round" fill="transparent" stroke-linejoin="round" points="76.3511962890625 182.15966796875 88.98687744140625 189.0518493652344 103.3455810546875 197.09274291992188 114.83258056640624 202.26190185546875 125.17086791992188 201.68753051757813 136.08349609375 193.64666748046875 136.08349609375 193.64666748046875 " />
        <polyline stroke="black" stroke-width="3" stroke-linecap="round" fill="transparent" stroke-linejoin="round" points="157.33441162109375 59.24897766113281 152.7396240234375 88.54078674316406 146.42178344726563 112.66343688964844 138.95526123046875 135.06304931640625 132.63739013671875 152.29351806640625 127.46826171875 167.22659301757813 123.44781494140624 178.1392364501953 121.15042114257813 183.8827209472656 121.15042114257813 184.45706176757813 121.15042114257813 184.45706176757813 " />
        <polyline stroke="black" stroke-width="3" stroke-linecap="round" fill="transparent" stroke-linejoin="round" points="144.69873046875 147.1243896484375 150.44219970703125 150.5704803466797 157.90875244140625 154.59092712402344 167.6727294921875 156.88832092285156 179.7340087890625 153.4422149658203 179.7340087890625 153.4422149658203 " />
        <polyline stroke="black" stroke-width="3" stroke-linecap="round" fill="transparent" stroke-linejoin="round" points="199.26190185546875 65.56681823730469 196.39013671875 82.22294616699219 188.3492431640625 113.23779296875 182.60577392578125 133.9143524169922 175.71356201171875 152.8678741455078 169.9700927734375 168.3752899169922 165.37530517578125 179.28793334960938 163.077880859375 185.60577392578125 163.077880859375 187.90316772460935 163.077880859375 187.90316772460935 " />
        <polyline stroke="black" stroke-width="3" stroke-linecap="round" fill="transparent" stroke-linejoin="round" points="194.0927734375 151.71917724609375 200.98492431640625 156.88832092285156 209.02581787109375 163.78050231933594 216.49237060546875 172.39573669433594 223.9588623046875 184.45706176757813 230.2767333984375 197.09274291992188 230.2767333984375 197.09274291992188 " />
        </svg>