<?xml version="1.0" standalone="no"?>
    <svg width="256" height="256" xmlns="http://www.w3.org/2000/svg" version="1.1">
    <polyline stroke="black" stroke-width="3" stroke-linecap="round" fill="transparent" stroke-linejoin="round" points="63.6126708984375 76.80807495117188 67.15573120117188 78.57958984375 67.15573120117188 78.57958984375 " />
        <polyline stroke="black" stroke-width="3" stroke-linecap="round" fill="transparent" stroke-linejoin="round" points="104.35775756835938 61.57295227050781 89.12265014648438 82.12265014648438 89.12265014648438 82.12265014648438 " />
        <polyline stroke="black" stroke-width="3" stroke-linecap="round" fill="transparent" stroke-linejoin="round" points="45.54315185546875 118.61605834960938 61.132568359375 107.63259887695313 70.344482421875 101.6094207763672 96.208740234375 83.185546875 104.71209716796876 76.80807495117188 104.71209716796876 76.80807495117188 " />
        <polyline stroke="black" stroke-width="3" stroke-linecap="round" fill="transparent" stroke-linejoin="round" points="86.64251708984375 42.79479217529297 80.9736328125 54.13255310058594 74.59616088867188 66.53323364257813 67.15573120117188 85.31138610839844 57.58953857421875 114.71868896484376 55.109375 123.93063354492188 51.212005615234375 136.6855926513672 49.440521240234375 142.7087860107422 49.086181640625 143.06309509277344 49.086181640625 143.06309509277344 " />
        <polyline stroke="black" stroke-width="3" stroke-linecap="round" fill="transparent" stroke-linejoin="round" points="87.35113525390625 104.79815673828124 91.95709228515624 107.27828979492188 96.56304931640624 109.40411376953124 104.00341796875 114.01007080078124 106.837890625 116.13591003417967 106.837890625 116.13591003417967 " />
        <polyline stroke="black" stroke-width="3" stroke-linecap="round" fill="transparent" stroke-linejoin="round" points="67.86434936523438 160.42401123046875 69.6358642578125 162.90415954589844 72.11602783203125 165.73858642578125 84.51669311523438 169.28164672851563 84.51669311523438 169.28164672851563 " />
        <polyline stroke="black" stroke-width="3" stroke-linecap="round" fill="transparent" stroke-linejoin="round" points="109.31805419921876 149.79489135742188 88.41403198242188 182.03662109375 74.2418212890625 204.712158203125 67.51007080078125 216.4042053222656 59.71533203125 227.03335571289065 59.71533203125 227.03335571289065 " />
        <polyline stroke="black" stroke-width="3" stroke-linecap="round" fill="transparent" stroke-linejoin="round" points="54.046478271484375 193.3743896484375 61.48687744140625 199.75189208984375 70.344482421875 205.77505493164065 88.768310546875 214.98699951171875 107.90081787109376 218.17572021484375 119.59286499023438 217.11282348632813 119.59286499023438 217.11282348632813 " />
        <polyline stroke="black" stroke-width="3" stroke-linecap="round" fill="transparent" stroke-linejoin="round" points="140.14254760742188 114.71868896484376 132.34783935546875 137.74851989746094 127.74188232421876 153.3379364013672 124.19882202148438 165.38430786132813 119.59286499023438 178.84788513183594 118.17562866210938 183.0995330810547 117.11273193359376 184.87106323242188 117.11273193359376 184.87106323242188 " />
        <polyline stroke="black" stroke-width="3" stroke-linecap="round" fill="transparent" stroke-linejoin="round" points="159.983642578125 142.7087860107422 167.7783203125 152.6293182373047 171.3214111328125 156.8809814453125 178.05316162109375 162.5498504638672 187.26513671875 164.32138061523438 193.642578125 160.42401123046875 193.642578125 160.42401123046875 " />
        <polyline stroke="black" stroke-width="3" stroke-linecap="round" fill="transparent" stroke-linejoin="round" points="213.12939453125 98.0663604736328 206.3975830078125 111.88426208496094 200.0201416015625 124.63922119140624 193.9969482421875 138.45712280273438 184.4306640625 161.13262939453125 178.05316162109375 178.13926696777344 176.28167724609375 183.0995330810547 176.28167724609375 183.0995330810547 " />
        <polyline stroke="black" stroke-width="3" stroke-linecap="round" fill="transparent" stroke-linejoin="round" points="211.35784912109375 169.99026489257813 225.17572021484375 177.7849578857422 231.90753173828125 183.0995330810547 246.07977294921875 198.68896484375 246.07977294921875 198.68896484375 " />
        </svg>