<?xml version="1.0" standalone="no"?>
    <svg width="256" height="256" xmlns="http://www.w3.org/2000/svg" version="1.1">
    <polyline stroke="black" stroke-width="3" stroke-linecap="round" fill="transparent" stroke-linejoin="round" points="55.0045166015625 63.81776428222656 57.94036865234375 70.42332458496094 60.1422119140625 74.09309387207031 62.34405517578125 77.76284790039063 62.34405517578125 77.76284790039063 " />
        <polyline stroke="black" stroke-width="3" stroke-linecap="round" fill="transparent" stroke-linejoin="round" points="90.2342529296875 60.14801025390625 89.50030517578125 66.0196533203125 87.29840087890625 71.89125061035156 84.36260986328125 76.29495239257813 84.36260986328125 76.29495239257813 " />
        <polyline stroke="black" stroke-width="3" stroke-linecap="round" fill="transparent" stroke-linejoin="round" points="52.0687255859375 92.44189453125 63.0780029296875 87.30422973632813 84.36260986328125 79.96470642089844 101.9774169921875 74.82704162597656 112.9866943359375 71.89125061035156 117.39044189453124 70.42332458496094 120.32623291015624 68.95542907714844 120.32623291015624 68.95542907714844 " />
        <polyline stroke="black" stroke-width="3" stroke-linecap="round" fill="transparent" stroke-linejoin="round" points="74.8212890625 52.80851745605469 72.619384765625 72.62518310546875 67.48175048828125 92.44189453125 55.73846435546875 118.8641357421875 48.39892578125 132.07528686523438 43.26129150390625 139.41481018066406 37.38970947265625 143.08456420898438 37.38970947265625 143.08456420898438 " />
        <polyline stroke="black" stroke-width="3" stroke-linecap="round" fill="transparent" stroke-linejoin="round" points="84.36260986328125 98.31349182128906 90.9681396484375 101.98324584960938 104.1793212890625 107.8548583984375 110.0509033203125 110.79066467285156 112.25274658203124 112.25857543945313 112.25274658203124 112.25857543945313 " />
        <polyline stroke="black" stroke-width="3" stroke-linecap="round" fill="transparent" stroke-linejoin="round" points="72.619384765625 141.6166229248047 78.49102783203125 143.8184814453125 83.628662109375 143.8184814453125 83.628662109375 143.8184814453125 " />
        <polyline stroke="black" stroke-width="3" stroke-linecap="round" fill="transparent" stroke-linejoin="round" points="104.1793212890625 128.40553283691406 93.9039306640625 157.0296173095703 83.628662109375 175.37840270996094 71.8853759765625 191.52532958984375 60.1422119140625 204.0025329589844 52.802734375 210.60809326171875 44.72918701171875 213.54388427734375 44.72918701171875 213.54388427734375 " />
        <polyline stroke="black" stroke-width="3" stroke-linecap="round" fill="transparent" stroke-linejoin="round" points="83.628662109375 170.24073791503906 90.9681396484375 173.91049194335938 103.4453125 179.04815673828125 110.0509033203125 181.9839782714844 113.72064208984376 187.8555908203125 113.72064208984376 187.8555908203125 " />
        <polyline stroke="black" stroke-width="3" stroke-linecap="round" fill="transparent" stroke-linejoin="round" points="143.0787353515625 88.03819274902344 137.9410400390625 107.8548583984375 126.19781494140624 137.21292114257813 115.1885986328125 154.0938262939453 105.647216796875 165.8370361328125 99.77557373046876 172.442626953125 95.37188720703124 174.64443969726563 95.37188720703124 174.64443969726563 " />
        <polyline stroke="black" stroke-width="3" stroke-linecap="round" fill="transparent" stroke-linejoin="round" points="141.61083984375 141.6166229248047 149.684326171875 145.28639221191406 155.555908203125 147.48825073242188 155.555908203125 147.48825073242188 " />
        <polyline stroke="black" stroke-width="3" stroke-linecap="round" fill="transparent" stroke-linejoin="round" points="201.0609130859375 42.533180236816406 201.0609130859375 53.542449951171875 200.326904296875 65.28567504882813 191.51953125 103.45114135742188 181.244140625 130.60736083984375 169.5009765625 157.76358032226563 155.555908203125 181.25 137.9410400390625 206.20437622070313 127.665771484375 214.27783203125 127.665771484375 214.27783203125 " />
        <polyline stroke="black" stroke-width="3" stroke-linecap="round" fill="transparent" stroke-linejoin="round" points="220.1435546875 148.22219848632813 231.88671875 158.49752807617188 243.6300048828125 167.30494689941406 253.9053955078125 173.17654418945313 259.7769775390625 176.1123809814453 261.9788818359375 177.58026123046875 261.9788818359375 177.58026123046875 " />
        </svg>