<?xml version="1.0" standalone="no"?>
    <svg width="256" height="256" xmlns="http://www.w3.org/2000/svg" version="1.1">
    <polyline stroke="black" stroke-width="3" stroke-linecap="round" fill="transparent" stroke-linejoin="round" points="43.444305419921875 100.21961975097656 63.433441162109375 88.77793884277344 83.42257690429688 77.33625793457031 90.77459716796876 73.97016906738281 103.38714599609376 69.21005249023438 106.781494140625 67.6236572265625 111.140625 64.480712890625 113.45257568359376 62.555755615234375 113.99365234375 61.73506164550781 114.02621459960938 61.6856689453125 114.0430908203125 61.660064697265625 113.59674072265624 65.55430603027344 111.94525146484376 98.81716918945313 110.565673828125 139.30148315429688 110.86212158203124 153.90452575683594 111.830810546875 176.08810424804688 112.2880859375 185.51605224609375 112.435546875 189.7738037109375 112.14047241210938 190.10675048828125 110.48260498046876 189.3929443359375 107.94232177734376 186.74319458007813 102.82269287109376 181.13189697265625 84.74346923828125 158.52511596679688 77.4327392578125 149.87393188476563 67.62191772460938 139.41458129882813 62.495849609375 134.06211853027344 56.96112060546875 127.5526123046875 55.044158935546875 125.26678466796876 55.02777099609375 125.24725341796876 55.021575927734375 125.2398681640625 55.02069091796875 125.2388153076172 55.407806396484375 125.19842529296876 56.201263427734375 125.0767822265625 60.3114013671875 130.850830078125 64.9954833984375 149.79537963867188 64.68115234375 188.5921630859375 61.84954833984375 196.54547119140625 56.98992919921875 201.63055419921875 56.790283203125 201.6859130859375 56.77789306640625 201.6893615722656 57.98211669921875 199.6253967285156 62.1513671875 193.2508544921875 75.48446655273438 174.87335205078125 82.53363037109375 165.53903198242188 94.6693115234375 151.6885986328125 95.673583984375 150.77789306640625 " />
        <polyline stroke="black" stroke-width="3" stroke-linecap="round" fill="transparent" stroke-linejoin="round" points="121.60314941406251 104.68307495117188 118.86581420898438 111.56005859375 116.12847900390624 118.43704223632813 115.64450073242188 119.7733154296875 " />
        <polyline stroke="black" stroke-width="3" stroke-linecap="round" fill="transparent" stroke-linejoin="round" points="128.96051025390625 143.75921630859375 133.399658203125 144.8514862060547 137.83880615234375 145.94375610351563 149.697265625 147.10850524902344 151.8326416015625 147.19334411621094 " />
        <polyline stroke="black" stroke-width="3" stroke-linecap="round" fill="transparent" stroke-linejoin="round" points="142.54473876953125 45.679473876953125 143.14788818359375 57.888763427734375 143.75103759765625 70.09805297851563 143.86328125 83.63433837890625 141.79891967773438 111.30509948730467 139.678466796875 120.22042846679688 135.2669677734375 128.6103515625 133.46356201171875 130.938232421875 131.71160888671875 129.79638671875 131.50164794921875 129.689697265625 131.47470092773438 129.67601013183594 131.46029663085938 129.668701171875 132.32675170898438 129.46453857421875 164.1614990234375 127.20745849609376 175.38446044921875 123.94816589355467 209.68017578125 114.03665161132813 215.0789794921875 110.79783630371094 218.3538818359375 106.98159790039063 220.2034912109375 106.45001220703124 220.21795654296875 106.4458465576172 " />
        <polyline stroke="black" stroke-width="3" stroke-linecap="round" fill="transparent" stroke-linejoin="round" points="204.3472900390625 39.82354736328125 204.744140625 62.97874450683594 205.1409912109375 86.13394165039063 205.51190185546875 133.0594482421875 205.97186279296875 162.73838806152344 204.3782958984375 204.828857421875 190.2457275390625 234.56341552734375 191.8118896484375 239.22140502929688 193.8153076171875 231.21014404296875 " />
        </svg>