<?xml version="1.0" standalone="no"?>
    <svg width="256" height="256" xmlns="http://www.w3.org/2000/svg" version="1.1">
    <polyline stroke="black" stroke-width="3" stroke-linecap="round" fill="transparent" stroke-linejoin="round" points="63.00006103515625 117.00003051757815 76.3333740234375 109.66668701171876 89.66668701171875 102.33334350585938 103.66668701171876 96.33334350585938 114.3333740234375 93 119.66668701171876 92.33334350585938 119.66668701171876 92.33334350585938 " />
        <polyline stroke="black" stroke-width="3" stroke-linecap="round" fill="transparent" stroke-linejoin="round" points="96.33331298828124 84.33334350585938 95 89.66667175292969 93.66668701171876 95 83.66668701171875 120.33334350585938 76.3333740234375 137.66668701171875 68.3333740234375 155 64.3333740234375 163.66668701171875 62.3333740234375 165.66668701171875 62.3333740234375 165.66668701171875 " />
        <polyline stroke="black" stroke-width="3" stroke-linecap="round" fill="transparent" stroke-linejoin="round" points="99.66668701171876 129.00003051757813 103.66668701171876 131.66668701171875 107.66668701171876 134.33334350585938 111 135.66668701171875 113 135 114.3333740234375 134.33334350585938 114.3333740234375 134.33334350585938 " />
        <polyline stroke="black" stroke-width="3" stroke-linecap="round" fill="transparent" stroke-linejoin="round" points="133 104.33334350585938 147 100.33334350585938 161 96.33334350585938 172.3333740234375 93 183.66668701171875 89 190.3333740234375 85 190.3333740234375 85 " />
        <polyline stroke="black" stroke-width="3" stroke-linecap="round" fill="transparent" stroke-linejoin="round" points="167.00006103515625 67 158.3333740234375 87 149.66668701171875 107 138.3333740234375 126.33334350585938 128.3333740234375 140.33334350585938 120.3333740234375 149 115 151.66668701171875 113.66668701171876 151.66668701171875 113.66668701171876 151.66668701171875 " />
        <polyline stroke="black" stroke-width="3" stroke-linecap="round" fill="transparent" stroke-linejoin="round" points="159 117.66668701171876 167.66668701171875 121.66668701171876 176.3333740234375 125.66668701171876 180.3333740234375 128.33334350585938 181.66668701171875 131.66668701171875 181.66668701171875 133.66668701171875 181.66668701171875 133.66668701171875 " />
        <polyline stroke="black" stroke-width="3" stroke-linecap="round" fill="transparent" stroke-linejoin="round" points="35.66668701171875 188.33331298828125 55.66668701171875 185 75.66668701171875 181.66668701171875 120.3333740234375 176.33334350585938 157.66668701171875 170.33334350585938 187.66668701171875 166.33334350585938 207 163 215.66668701171875 161.66668701171875 216.3333740234375 161.66668701171875 216.3333740234375 161.66668701171875 " />
        </svg>