<?xml version="1.0" standalone="no"?>
    <svg width="256" height="256" xmlns="http://www.w3.org/2000/svg" version="1.1">
    <polyline stroke="black" stroke-width="3" stroke-linecap="round" fill="transparent" stroke-linejoin="round" points="65.69927978515625 90.24566650390624 76.75143432617188 88.03523254394531 81.17230224609375 87.15106201171875 86.03524780273438 86.70896911621094 106.81332397460938 83.17228698730469 116.09710693359376 79.63558959960938 124.93881225585938 73.88847351074219 132.01220703125 67.69926452636719 136.87518310546875 62.39422607421875 138.64352416992188 59.74171447753906 140.85394287109375 54.878753662109375 141.73812866210938 50.45790100097656 141.73812866210938 47.805381774902344 141.2960205078125 45.594940185546875 140.411865234375 44.26869201660156 139.0855712890625 43.38451385498047 137.75933837890625 44.26869201660156 133.780517578125 50.45790100097656 130.68597412109375 55.76293182373047 117.42333984375 83.17228698730469 108.13958740234376 106.60284423828124 101.066162109375 124.28630065917967 94.43487548828124 140.20140075683594 88.687744140625 151.69564819335938 84.708984375 159.21112060546875 82.49853515625 163.18988037109375 80.73019409179688 165.40032958984375 80.2880859375 165.8424072265625 80.73019409179688 164.95823669433594 80.73019409179688 164.95823669433594 " />
        <polyline stroke="black" stroke-width="3" stroke-linecap="round" fill="transparent" stroke-linejoin="round" points="115.212890625 105.27659606933594 124.49676513671876 114.11833190917967 128.033447265625 117.65501403808594 131.57012939453125 121.1916961669922 137.31723022460938 126.93882751464844 141.2960205078125 130.9176025390625 142.62228393554688 132.24386596679688 142.62228393554688 132.24386596679688 " />
        <polyline stroke="black" stroke-width="3" stroke-linecap="round" fill="transparent" stroke-linejoin="round" points="166.93701171875 88.47732543945313 180.6417236328125 85.38272094726563 184.17840576171875 84.94062805175781 191.25177001953125 83.61436462402344 194.34637451171875 82.73019409179688 199.2093505859375 80.96185302734375 203.63018798828125 76.98307800292969 203.63018798828125 76.98307800292969 " />
        <polyline stroke="black" stroke-width="3" stroke-linecap="round" fill="transparent" stroke-linejoin="round" points="200.9776611328125 36.75322723388672 190.8096923828125 52.22624206542969 186.8309326171875 59.29962158203125 182.8521728515625 67.25717163085938 175.336669921875 84.05645751953125 171.35791015625 92.89817810058594 162.958251953125 114.11833190917967 154.55859375 133.12803649902344 147.92733764648438 146.83270263671875 143.50643920898438 154.34817504882813 141.2960205078125 158.3269500732422 140.411865234375 158.76902770996094 142.18017578125 157.44277954101563 158.9794921875 150.369384765625 167.82122802734375 147.71688842773438 195.672607421875 142.8539276123047 212.471923828125 142.41184997558594 225.29241943359375 142.41184997558594 229.27117919921875 142.8539276123047 232.3658447265625 143.73809814453125 232.3658447265625 143.73809814453125 " />
        <polyline stroke="black" stroke-width="3" stroke-linecap="round" fill="transparent" stroke-linejoin="round" points="69.2359619140625 227.29241943359375 85.5931396484375 223.31362915039065 94.43487548828124 222.429443359375 103.71868896484376 221.98736572265625 147.04315185546875 222.429443359375 166.4949951171875 223.31362915039065 175.336669921875 224.19781494140625 190.36761474609375 225.96615600585935 201.4197998046875 227.29241943359375 205.840576171875 228.17657470703125 205.840576171875 228.17657470703125 " />
        </svg>