<?xml version="1.0" standalone="no"?>
    <svg width="256" height="256" xmlns="http://www.w3.org/2000/svg" version="1.1">
    <polyline stroke="black" stroke-width="3" stroke-linecap="round" fill="transparent" stroke-linejoin="round" points="75.01101684570313 68.73756408691406 78.75320434570313 76.75653076171875 80.8916015625 82.63710021972656 83.02996826171875 84.77549743652344 85.16839599609375 81.03330993652344 85.16839599609375 81.03330993652344 " />
        <polyline stroke="black" stroke-width="3" stroke-linecap="round" fill="transparent" stroke-linejoin="round" points="107.08688354492188 52.1650390625 112.96746826171876 57.511016845703125 118.31341552734376 61.78779602050781 124.19400024414063 61.78779602050781 124.19400024414063 61.78779602050781 " />
        <polyline stroke="black" stroke-width="3" stroke-linecap="round" fill="transparent" stroke-linejoin="round" points="151.45849609375 43.076881408691406 142.37030029296875 55.9072265625 126.86700439453124 74.61814880371094 126.86700439453124 74.61814880371094 " />
        <polyline stroke="black" stroke-width="3" stroke-linecap="round" fill="transparent" stroke-linejoin="round" points="71.26882934570313 108.29779052734376 80.35699462890625 104.02101135253906 91.58355712890624 98.14044189453124 102.2755126953125 93.86366271972656 109.22528076171876 91.190673828125 113.50204467773438 91.190673828125 114.57122802734376 93.86366271972656 109.22528076171876 106.69400024414063 89.979736328125 138.7698516845703 74.4764404296875 162.2921600341797 65.38824462890625 176.72628784179688 61.646087646484375 181.5376739501953 61.111480712890625 181.5376739501953 64.31906127929688 176.1916961669922 73.4072265625 159.61917114257813 80.8916015625 148.39260864257813 86.237548828125 142.5120391845703 94.7911376953125 136.0968780517578 106.0177001953125 128.6125030517578 120.98641967773438 122.19732666015624 134.35134887695313 116.85134887695313 151.9930419921875 112.57456970214844 166.42724609375 110.97077941894533 174.98077392578125 112.03997802734376 181.9305419921875 115.24755859375 188.345703125 127.00871276855467 189.94952392578125 154.273193359375 182.46514892578125 181.5376739501953 173.91156005859375 201.3177795410156 166.9617919921875 212.00973510742188 161.6158447265625 217.355712890625 156.804443359375 220.56329345703125 151.9930419921875 217.355712890625 151.9930419921875 217.355712890625 " />
        <polyline stroke="black" stroke-width="3" stroke-linecap="round" fill="transparent" stroke-linejoin="round" points="137.02435302734375 151.0655975341797 129.53997802734375 161.22296142578125 119.917236328125 172.98410034179688 109.22528076171876 183.14144897460935 99.06793212890624 191.16043090820313 99.06793212890624 191.16043090820313 " />
        <polyline stroke="black" stroke-width="3" stroke-linecap="round" fill="transparent" stroke-linejoin="round" points="115.1058349609375 164.96514892578125 143.43951416015625 170.84571838378906 164.288818359375 176.72628784179688 184.603515625 183.67605590820313 200.10687255859375 192.2296142578125 213.4718017578125 205.0599670410156 213.4718017578125 205.0599670410156 " />
        </svg>