<?xml version="1.0" standalone="no"?>
    <svg width="256" height="256" xmlns="http://www.w3.org/2000/svg" version="1.1">
    <polyline stroke="black" stroke-width="3" stroke-linecap="round" fill="transparent" stroke-linejoin="round" points="77.83489990234375 56.51885986328125 80.97543334960938 64.49089050292969 86.04852294921875 73.91239929199219 90.15533447265624 79.22708129882813 92.08795166015624 81.40127563476563 93.05426025390624 81.88444519042969 93.05426025390624 81.88444519042969 " />
        <polyline stroke="black" stroke-width="3" stroke-linecap="round" fill="transparent" stroke-linejoin="round" points="119.14456176757813 72.22135925292969 121.3187255859375 75.12028503417969 123.73452758789063 78.74392700195313 125.90872192382813 81.64285278320313 125.90872192382813 81.64285278320313 " />
        <polyline stroke="black" stroke-width="3" stroke-linecap="round" fill="transparent" stroke-linejoin="round" points="171.32513427734375 57.96832275390625 166.01043701171875 64.00773620605469 163.8363037109375 66.66508483886719 158.5216064453125 74.15396118164063 151.2742919921875 81.88444519042969 144.99325561523438 87.92385864257813 142.3359375 90.0980224609375 138.47073364257813 91.7890625 138.47073364257813 91.7890625 " />
        <polyline stroke="black" stroke-width="3" stroke-linecap="round" fill="transparent" stroke-linejoin="round" points="71.79550170898438 101.45216369628906 70.58761596679688 107.25001525878906 65.99765014648438 122.22775268554688 61.6492919921875 132.6155548095703 58.7503662109375 141.0707550048828 57.059295654296875 146.62701416015625 56.576141357421875 148.31805419921875 55.609832763671875 150.00909423828125 55.609832763671875 150.2506561279297 55.609832763671875 150.2506561279297 " />
        <polyline stroke="black" stroke-width="3" stroke-linecap="round" fill="transparent" stroke-linejoin="round" points="89.67218017578125 113.53099060058594 93.53741455078124 112.32310485839844 97.40264892578124 111.11521911621094 107.54885864257813 108.45787048339844 113.10513305664063 107.73316955566406 124.7008056640625 105.55897521972656 137.987548828125 105.31736755371094 150.3079833984375 105.55897521972656 162.8699951171875 107.73316955566406 172.53302001953125 110.14891052246094 180.02191162109375 112.56466674804688 181.712890625 114.01414489746094 187.02764892578125 121.26144409179688 188.96026611328125 128.50875854492188 189.20184326171875 133.8234405517578 189.68499755859375 146.62701416015625 189.20184326171875 161.8463592529297 186.54449462890625 178.51516723632813 182.92083740234375 193.7344970703125 181.22979736328125 199.5323486328125 175.91510009765625 210.1617126464844 174.70721435546875 211.61117553710935 172.77459716796875 213.30221557617188 170.60040283203125 214.51010131835935 169.63409423828125 215.47640991210935 167.94305419921875 216.68426513671875 166.49359130859375 218.13375854492188 165.04412841796875 219.10006713867188 163.3531494140625 219.58319091796875 162.3868408203125 219.58319091796875 159.4879150390625 219.10006713867188 154.6563720703125 216.92584228515625 150.549560546875 214.26852416992188 146.684326171875 212.3359375 146.684326171875 212.3359375 " />
        <polyline stroke="black" stroke-width="3" stroke-linecap="round" fill="transparent" stroke-linejoin="round" points="121.3187255859375 130.44137573242188 118.4197998046875 135.9976348876953 106.09939575195313 152.1833038330078 97.40264892578124 165.2284393310547 90.63848876953124 173.68362426757813 78.80120849609375 189.3861389160156 69.13815307617188 200.01547241210935 63.581878662109375 204.60546875 58.267181396484375 208.71224975585935 57.059295654296875 209.43698120117188 55.3682861328125 210.1617126464844 55.3682861328125 210.1617126464844 " />
        <polyline stroke="black" stroke-width="3" stroke-linecap="round" fill="transparent" stroke-linejoin="round" points="87.49798583984375 157.73953247070313 92.57110595703124 160.8800506591797 97.64419555664063 164.9868621826172 104.89151000976563 170.7847137451172 114.07144165039063 176.34095764160156 119.86929321289063 179.48146057128906 121.8018798828125 180.68934631347656 125.6671142578125 182.863525390625 127.1165771484375 183.3466796875 127.1165771484375 183.3466796875 " />
        </svg>