<?xml version="1.0" standalone="no"?>
    <svg width="256" height="256" xmlns="http://www.w3.org/2000/svg" version="1.1">
    <polyline stroke="black" stroke-width="3" stroke-linecap="round" fill="transparent" stroke-linejoin="round" points="64.44992065429688 84.88694763183594 68.56350708007813 90.02891540527344 72.67706298828125 94.6566925048828 75.248046875 97.74188232421876 78.333251953125 99.2844696044922 78.333251953125 99.2844696044922 " />
        <polyline stroke="black" stroke-width="3" stroke-linecap="round" fill="transparent" stroke-linejoin="round" points="95.3017578125 81.28756713867188 99.41534423828124 83.34434509277344 105.07150268554688 85.91534423828125 113.29864501953124 85.91534423828125 113.29864501953124 85.91534423828125 " />
        <polyline stroke="black" stroke-width="3" stroke-linecap="round" fill="transparent" stroke-linejoin="round" points="141.0653076171875 72.54620361328125 131.29556274414063 82.83015441894531 131.29556274414063 82.83015441894531 " />
        <polyline stroke="black" stroke-width="3" stroke-linecap="round" fill="transparent" stroke-linejoin="round" points="60.850555419921875 114.71038818359376 66.5067138671875 111.11100769042967 73.70547485351563 106.99742126464844 81.9326171875 102.88385009765624 88.6171875 100.82705688476563 93.24496459960938 100.82705688476563 95.3017578125 102.36964416503906 94.27337646484376 108.54002380371094 85.53201293945313 128.0795135498047 75.248046875 146.59060668945313 67.02090454101563 159.44554138183594 60.850555419921875 167.67269897460938 57.25115966796875 172.81466674804688 57.25115966796875 172.81466674804688 " />
        <polyline stroke="black" stroke-width="3" stroke-linecap="round" fill="transparent" stroke-linejoin="round" points="90.67398071289063 124.48013305664063 101.986328125 118.82395935058594 113.8128662109375 113.16778564453124 127.1820068359375 108.02581787109376 141.0653076171875 104.94064331054688 153.40606689453125 104.42643737792967 163.69000244140625 106.99742126464844 171.9171142578125 114.71038818359376 178.6016845703125 137.84925842285156 178.0875244140625 168.7010955810547 172.945556640625 192.35415649414065 166.775146484375 210.35107421875 161.1190185546875 220.635009765625 155.46282958984375 226.29116821289065 146.72149658203125 228.8621826171875 139.522705078125 227.319580078125 132.323974609375 219.0924072265625 132.323974609375 219.0924072265625 " />
        <polyline stroke="black" stroke-width="3" stroke-linecap="round" fill="transparent" stroke-linejoin="round" points="124.0968017578125 139.391845703125 117.92645263671876 150.70419311523438 107.64251708984376 166.64430236816406 96.33013916015624 183.09860229492188 87.58880615234375 193.382568359375 80.39004516601563 198.5245361328125 80.39004516601563 198.5245361328125 " />
        <polyline stroke="black" stroke-width="3" stroke-linecap="round" fill="transparent" stroke-linejoin="round" points="90.1597900390625 149.16159057617188 100.4437255859375 154.30357360839844 113.29864501953124 161.50233459472656 133.86654663085938 171.78627014160156 149.80667114257813 179.49923706054688 166.775146484375 187.72637939453125 181.6868896484375 195.95355224609375 194.54180908203125 206.23748779296875 194.54180908203125 206.23748779296875 " />
        </svg>