<?xml version="1.0" standalone="no"?>
    <svg width="256" height="256" xmlns="http://www.w3.org/2000/svg" version="1.1">
    <polyline stroke="black" stroke-width="3" stroke-linecap="round" fill="transparent" stroke-linejoin="round" points="65.07479858398438 78.69355773925781 89.97479248046875 66.08186340332031 117.13839721679688 57.35069274902344 142.36181640625 51.52991485595703 162.0877685546875 45.38575744628906 162.0877685546875 45.38575744628906 " />
        <polyline stroke="black" stroke-width="3" stroke-linecap="round" fill="transparent" stroke-linejoin="round" points="141.71505737304688 39.241600036621094 122.95919799804688 58.644195556640625 109.37741088867188 81.92732238769531 98.0592041015625 108.4442138671875 87.71115112304688 130.11045837402344 79.95010375976563 141.75201416015625 67.98513793945313 150.15980529785156 57.637115478515625 152.42344665527344 49.8760986328125 152.42344665527344 46.31890869140625 151.4533233642578 48.25921630859375 147.89614868164063 70.24880981445313 135.93124389648438 107.76052856445313 120.73252868652344 153.03326416015625 108.4442138671875 192.161865234375 101.9766845703125 220.6190185546875 101.0065460205078 229.99688720703125 101.32992553710938 229.99688720703125 101.32992553710938 " />
        <polyline stroke="black" stroke-width="3" stroke-linecap="round" fill="transparent" stroke-linejoin="round" points="88.35791015625 187.994873046875 78.00985717773438 205.78060913085935 71.21890258789063 231.0039978027344 69.60202026367188 244.9091796875 70.24880981445313 251.37673950195313 72.18905639648438 254.28713989257813 76.39297485351563 248.78973388671875 87.71115112304688 218.71566772460935 95.7955322265625 196.40267944335935 103.556640625 181.52735900878903 114.55142211914063 168.91567993164063 128.45663452148438 159.86111450195313 145.9189453125 154.3636932373047 164.9981689453125 152.42344665527344 181.4903564453125 154.3636932373047 192.48516845703125 161.15463256835938 198.62939453125 174.73643493652344 195.07220458984375 190.58187866210935 184.4007568359375 207.39749145507813 165.9683837890625 223.88970947265625 156.26702880859375 228.74038696289065 156.26702880859375 228.74038696289065 " />
        <polyline stroke="black" stroke-width="3" stroke-linecap="round" fill="transparent" stroke-linejoin="round" points="68.30856323242188 220.0091857910156 101.29296875 199.3130798339844 125.54623413085938 191.8753967285156 144.62548828125 189.28839111328125 154.650146484375 189.61178588867188 159.50079345703125 191.22866821289065 158.53070068359375 195.10919189453125 139.1280517578125 209.6611328125 119.07870483398438 220.33255004882813 104.203369140625 225.8299865722656 96.76568603515624 227.77023315429688 95.7955322265625 228.0936279296875 108.73065185546876 225.506591796875 132.01376342773438 221.6260681152344 156.26702880859375 220.0091857910156 156.26702880859375 220.0091857910156 " />
        </svg>