<?xml version="1.0" standalone="no"?>
    <svg width="256" height="256" xmlns="http://www.w3.org/2000/svg" version="1.1">
    <polyline stroke="black" stroke-width="3" stroke-linecap="round" fill="transparent" stroke-linejoin="round" points="78.83908081054688 109.91693115234376 87.36502075195313 102.60897827148438 99.54495239257813 92.86502075195313 115.37884521484376 81.29409790039063 135.47576904296875 69.11416625976563 152.52764892578125 59.979217529296875 167.1435546875 52.6712646484375 174.4515380859375 47.799293518066406 178.10546875 44.75431060791016 176.88751220703125 41.10032653808594 171.40655517578125 38.664344787597656 164.70758056640625 38.664344787597656 158.00860595703125 43.53631591796875 148.26467895507813 56.934234619140625 138.520751953125 76.422119140625 128.77679443359375 96.51901245117188 116.59686279296876 116.00689697265624 105.02593994140624 130.01380920410156 95.281982421875 137.93077087402344 89.801025390625 141.58474731445313 88.5830078125 141.58474731445313 91.62799072265624 138.53976440429688 103.80792236328124 131.2318115234375 128.77679443359375 117.83387756347656 153.13665771484375 108.08993530273438 172.62451171875 101.39097595214844 180.54150390625 100.17298889160156 184.804443359375 101.99996948242188 184.804443359375 101.99996948242188 " />
        <polyline stroke="black" stroke-width="3" stroke-linecap="round" fill="transparent" stroke-linejoin="round" points="91.62799072265624 182.38751220703125 94.6729736328125 192.1314392089844 94.6729736328125 197.6124267578125 94.6729736328125 201.8753967285156 94.6729736328125 204.31137084960935 96.49996948242188 200.65740966796875 102.58993530273438 192.74044799804688 114.76986694335938 178.7335205078125 129.99478149414063 164.11761474609375 150.70065307617188 148.8927001953125 170.18853759765625 138.53976440429688 186.0224609375 134.2767791748047 197.5933837890625 134.8857879638672 203.683349609375 137.32176208496094 207.33734130859375 142.802734375 203.683349609375 159.24563598632813 186.6314697265625 182.9964904785156 156.7906494140625 206.13836669921875 128.77679443359375 220.7542724609375 117.20587158203124 221.9722900390625 106.8529052734375 217.70928955078125 103.19891357421876 212.83734130859375 103.19891357421876 207.3563537597656 106.8529052734375 201.26638793945313 115.98785400390624 193.95843505859375 133.03976440429688 185.4324951171875 152.52764892578125 178.7335205078125 168.361572265625 173.86155700683594 176.88751220703125 171.42556762695313 182.36846923828125 170.20758056640625 182.36846923828125 172.64356994628906 173.842529296875 183.60549926757813 173.842529296875 183.60549926757813 " />
        <polyline stroke="black" stroke-width="3" stroke-linecap="round" fill="transparent" stroke-linejoin="round" points="105.63491821289063 229.88922119140625 116.59686279296876 227.4532470703125 126.3408203125 224.40826416015625 138.520751953125 221.9722900390625 150.0916748046875 221.36328125 165.31658935546875 224.40826416015625 165.31658935546875 224.40826416015625 " />
        </svg>