<?xml version="1.0" standalone="no"?>
    <svg width="256" height="256" xmlns="http://www.w3.org/2000/svg" version="1.1">
    <polyline stroke="black" stroke-width="3" stroke-linecap="round" fill="transparent" stroke-linejoin="round" points="91.055419921875 99.84019470214844 103.9097900390625 98.0038604736328 116.15203857421876 97.39173889160156 130.8427734375 96.77963256835938 147.36981201171875 96.16751098632813 163.89691162109375 93.10694885253906 181.03607177734375 85.14947509765625 182.8724365234375 79.02833557128906 181.648193359375 72.29508972167969 176.75128173828125 66.78607177734375 171.8543701171875 63.11338806152344 168.18170166015625 63.11338806152344 165.73321533203125 66.17396545410156 162.67266845703125 74.13143920898438 158.38787841796875 91.27059936523438 152.2667236328125 106.5734405517578 141.24868774414063 122.48838806152344 125.94586181640624 137.17910766601563 106.9703369140625 148.1971435546875 94.115966796875 151.8698272705078 87.99481201171875 151.8698272705078 84.93426513671875 151.8698272705078 87.38272094726563 148.80926513671875 99.01287841796876 143.3002471923828 125.333740234375 136.56700134277344 147.98193359375 132.89431762695313 171.24224853515625 129.833740234375 187.1572265625 127.3852996826172 196.3388671875 126.16107177734376 201.23583984375 124.93684387207033 201.23583984375 126.16107177734376 201.23583984375 126.16107177734376 " />
        <polyline stroke="black" stroke-width="3" stroke-linecap="round" fill="transparent" stroke-linejoin="round" points="115.5399169921875 157.990966796875 108.194580078125 175.13014221191406 103.29766845703124 189.82086181640625 97.78863525390624 208.18426513671875 94.115966796875 221.6507568359375 92.8917236328125 227.7718811035156 94.115966796875 227.7718811035156 97.78863525390624 216.1417236328125 106.35821533203124 198.39044189453125 114.92782592773438 183.08761596679688 124.10952758789063 172.06956481933594 133.29119873046875 163.49998474121094 146.75772094726563 156.76673889160156 159.612060546875 153.70616149902344 171.24224853515625 153.70616149902344 179.81182861328125 156.1546173095703 185.9329833984375 161.05152893066406 190.2177734375 168.3968963623047 190.2177734375 191.04507446289065 181.648193359375 212.46905517578125 167.569580078125 228.38400268554688 147.36981201171875 244.2989501953125 129.6185302734375 251.64431762695313 129.6185302734375 251.64431762695313 " />
        <polyline stroke="black" stroke-width="3" stroke-linecap="round" fill="transparent" stroke-linejoin="round" points="119.21261596679688 189.208740234375 137.57601928710938 186.76028442382813 149.81829833984375 185.53607177734375 161.44842529296875 184.31182861328125 170.630126953125 183.69973754882813 175.52703857421875 183.69973754882813 173.07861328125 187.37240600585935 159 196.5541076660156 159 196.5541076660156 " />
        <polyline stroke="black" stroke-width="3" stroke-linecap="round" fill="transparent" stroke-linejoin="round" points="111.86724853515624 227.1597595214844 131.45489501953125 226.54766845703125 143.08502197265625 226.54766845703125 154.10308837890625 227.1597595214844 166.95745849609375 228.38400268554688 179.19970703125 232.05667114257813 179.19970703125 232.05667114257813 " />
        </svg>