<?xml version="1.0" standalone="no"?>
    <svg width="256" height="256" xmlns="http://www.w3.org/2000/svg" version="1.1">
    <polyline stroke="black" stroke-width="3" stroke-linecap="round" fill="transparent" stroke-linejoin="round" points="69.80410766601563 87.59793090820313 81.43426513671875 83.31312561035156 97.96133422851563 79.02833557128906 121.833740234375 73.51931762695313 143.86981201171875 68.62240600585938 161.009033203125 63.72550964355469 175.087646484375 56.38014221191406 175.087646484375 56.38014221191406 " />
        <polyline stroke="black" stroke-width="3" stroke-linecap="round" fill="transparent" stroke-linejoin="round" points="146.31829833984375 38.62886047363281 137.74868774414063 57.6043701171875 131.01544189453125 72.90721130371094 121.22161865234376 90.6584930419922 104.694580078125 107.185546875 77.7615966796875 124.32472229003906 62.458740234375 129.833740234375 53.88916015625 131.6700897216797 50.21649169921875 131.6700897216797 53.27703857421875 127.99740600585938 67.35565185546875 120.03993225097656 90.00384521484375 111.47035217285156 118.773193359375 105.34921264648438 146.31829833984375 102.28865051269533 169.57861328125 101.67652893066406 183.6572265625 101.67652893066406 189.7783203125 103.51287841796876 189.7783203125 103.51287841796876 " />
        <polyline stroke="black" stroke-width="3" stroke-linecap="round" fill="transparent" stroke-linejoin="round" points="99.79766845703124 146.36080932617188 96.125 156.1546173095703 92.45230102539063 172.06956481933594 89.3917236328125 187.37240600585935 86.94329833984375 198.39044189453125 85.71905517578125 203.287353515625 85.71905517578125 203.287353515625 85.71905517578125 195.32986450195313 90.00384521484375 181.2512664794922 97.96133422851563 167.78477478027344 108.36724853515624 155.54251098632813 123.0579833984375 143.912353515625 141.42138671875 135.3427734375 158.560546875 131.6700897216797 172.63916015625 132.89431762695313 179.9844970703125 137.17910766601563 184.88140869140625 143.912353515625 187.329833984375 156.1546173095703 179.9844970703125 176.3543701171875 162.23321533203125 195.32986450195313 162.23321533203125 195.32986450195313 " />
        <polyline stroke="black" stroke-width="3" stroke-linecap="round" fill="transparent" stroke-linejoin="round" points="85.71905517578125 196.5541076660156 96.125 187.98452758789065 111.42782592773438 179.41493225097656 127.95489501953124 172.06956481933594 146.31829833984375 167.17266845703125 161.009033203125 165.33631896972656 170.190673828125 165.33631896972656 170.190673828125 165.33631896972656 " />
        <polyline stroke="black" stroke-width="3" stroke-linecap="round" fill="transparent" stroke-linejoin="round" points="94.9007568359375 205.12368774414065 112.0399169921875 200.22677612304688 123.67010498046876 199.0025634765625 138.36080932617188 198.39044189453125 156.112060546875 199.0025634765625 156.112060546875 199.0025634765625 " />
        </svg>