<?xml version="1.0" standalone="no"?>
    <svg width="256" height="256" xmlns="http://www.w3.org/2000/svg" version="1.1">
    <polyline stroke="black" stroke-width="3" stroke-linecap="round" fill="transparent" stroke-linejoin="round" points="71.0283203125 89.43426513671875 83.27059936523438 85.76158142089844 98.57342529296876 82.08891296386719 120.60952758789063 77.80410766601563 142.03350830078125 74.13143920898438 159.17266845703125 71.07086181640625 172.02703857421875 66.78607177734375 181.82086181640625 61.88916015625 181.82086181640625 61.88916015625 " />
        <polyline stroke="black" stroke-width="3" stroke-linecap="round" fill="transparent" stroke-linejoin="round" points="142.03350830078125 53.319580078125 137.74868774414063 69.23452758789063 133.46389770507813 82.08891296386719 127.95489501953124 96.77963256835938 119.38531494140624 109.02189636230467 107.755126953125 120.6520538330078 93.676513671875 129.2216339111328 83.88272094726563 133.5064239501953 78.37371826171875 134.73065185546875 78.37371826171875 132.28219604492188 83.27059936523438 126.77317810058594 97.96133422851563 118.20359802246094 119.99740600585938 110.24612426757813 142.03350830078125 105.34921264648438 161.62109375 102.28865051269533 173.8634033203125 101.67652893066406 180.59661865234375 101.67652893066406 183.0450439453125 104.12498474121094 178.148193359375 113.91880798339844 178.148193359375 113.91880798339844 " />
        <polyline stroke="black" stroke-width="3" stroke-linecap="round" fill="transparent" stroke-linejoin="round" points="110.81570434570313 152.48194885253906 106.53091430664063 162.2757568359375 105.30670166015624 170.2332305908203 103.4703369140625 176.9664764404297 101.02191162109376 183.08761596679688 97.34921264648438 187.37240600585935 94.28863525390624 189.208740234375 93.06442260742188 187.98452758789065 94.28863525390624 181.2512664794922 98.57342529296876 173.29379272460938 104.694580078125 164.72421264648438 116.32470703125 154.93038940429688 131.01544189453125 145.74868774414063 148.7667236328125 137.17910766601563 165.9058837890625 132.28219604492188 177.53607177734375 130.44586181640625 186.10565185546875 132.28219604492188 195.287353515625 140.2396697998047 194.67523193359375 151.8698272705078 184.88140869140625 174.5180206298828 167.130126953125 194.10565185546875 167.130126953125 194.10565185546875 " />
        <polyline stroke="black" stroke-width="3" stroke-linecap="round" fill="transparent" stroke-linejoin="round" points="106.53091430664063 178.8028106689453 124.89431762695313 172.6816864013672 138.972900390625 170.2332305908203 153.051513671875 168.3968963623047 165.2938232421875 168.3968963623047 172.63916015625 169.00900268554688 176.9239501953125 171.45745849609375 176.9239501953125 175.74224853515625 176.9239501953125 175.74224853515625 " />
        <polyline stroke="black" stroke-width="3" stroke-linecap="round" fill="transparent" stroke-linejoin="round" points="106.53091430664063 195.9419860839844 124.89431762695313 193.4935302734375 138.972900390625 192.26931762695313 154.2757568359375 192.26931762695313 167.74224853515625 192.88140869140625 183.6572265625 197.7783203125 183.6572265625 197.7783203125 " />
        </svg>