<?xml version="1.0" standalone="no"?>
    <svg width="256" height="256" xmlns="http://www.w3.org/2000/svg" version="1.1">
    <polyline stroke="black" stroke-width="3" stroke-linecap="round" fill="transparent" stroke-linejoin="round" points="97 95.5 106.5 96.5 106.5 96.5 " />
        <polyline stroke="black" stroke-width="3" stroke-linecap="round" fill="transparent" stroke-linejoin="round" points="149.5 68.5 149.5 68.5 " />
        <polyline stroke="black" stroke-width="3" stroke-linecap="round" fill="transparent" stroke-linejoin="round" points="158.5 77 129 114.5 123.5 120 115 128 115 128 " />
        <polyline stroke="black" stroke-width="3" stroke-linecap="round" fill="transparent" stroke-linejoin="round" points="82 131 68.5 158 67 160 63 164 58.5 166.5 58.5 166.5 " />
        <polyline stroke="black" stroke-width="3" stroke-linecap="round" fill="transparent" stroke-linejoin="round" points="113 128.5 148.5 121.5 154 120 170 116 179 114 183 113.5 187 113.5 188.5 114 189.5 115.5 190 118 191 121.5 191.5 123.5 191.5 128.5 191 135 188.5 146 186 159 184 168.5 181 180.5 179.5 186 176.5 194 172 202.5 169 207 167.5 209 164 213 161 215 158.5 216.5 153.5 217.5 149 216.5 145 213.5 133.5 197 130 182 130 182 " />
        <polyline stroke="black" stroke-width="3" stroke-linecap="round" fill="transparent" stroke-linejoin="round" points="104.5 157 88 176 86.5 177.5 84 179.5 84 179.5 " />
        <polyline stroke="black" stroke-width="3" stroke-linecap="round" fill="transparent" stroke-linejoin="round" points="137.5 146.5 116 188.5 112 196.5 97.5 223.5 97.5 223.5 " />
        </svg>