<?xml version="1.0" standalone="no"?>
    <svg width="256" height="256" xmlns="http://www.w3.org/2000/svg" version="1.1">
    <polyline stroke="black" stroke-width="3" stroke-linecap="round" fill="transparent" stroke-linejoin="round" points="69.543212890625 58.15223693847656 76.2421875 67.28717041015625 83.5501708984375 76.422119140625 90.24911499023438 84.33908081054688 95.12109375 87.99305725097656 95.12109375 87.99305725097656 " />
        <polyline stroke="black" stroke-width="3" stroke-linecap="round" fill="transparent" stroke-linejoin="round" points="126.78887939453124 62.41520690917969 132.26986694335938 69.11416625976563 137.7508544921875 74.59513854980469 144.44979858398438 75.81312561035156 144.44979858398438 75.81312561035156 " />
        <polyline stroke="black" stroke-width="3" stroke-linecap="round" fill="transparent" stroke-linejoin="round" points="183.425537109375 42.92732238769531 173.0726318359375 58.76123046875 150.53976440429688 86.16606140136719 130.44287109375 106.26295471191406 130.44287109375 106.26295471191406 " />
        <polyline stroke="black" stroke-width="3" stroke-linecap="round" fill="transparent" stroke-linejoin="round" points="86.59515380859375 122.7058563232422 79.89617919921875 140.3667449951172 71.3702392578125 161.68162536621094 66.49822998046875 172.64356994628906 63.453277587890625 177.51553344726563 64.6712646484375 176.29754638671875 70.76123046875 165.94459533691406 80.50518798828125 151.3286895751953 92.07611083984376 139.1487579345703 106.0830078125 129.40481567382813 122.52593994140624 121.48785400390624 142.0137939453125 114.17990112304688 166.3736572265625 107.48094177246094 188.90655517578125 104.43595886230467 202.9134521484375 106.8719482421875 209.6124267578125 112.9619140625 214.484375 144.02073669433594 202.304443359375 180.56051635742188 185.2525634765625 206.74737548828125 166.982666015625 221.36328125 150.53976440429688 227.4532470703125 140.79583740234375 223.19027709960935 132.26986694335938 195.17642211914065 132.26986694335938 195.17642211914065 " />
        <polyline stroke="black" stroke-width="3" stroke-linecap="round" fill="transparent" stroke-linejoin="round" points="136.5328369140625 119.66087341308594 130.44287109375 134.2767791748047 120.08993530273438 162.29061889648438 113.3909912109375 179.342529296875 107.91000366210938 192.74044799804688 104.86502075195313 201.26638793945313 104.86502075195313 204.31137084960935 109.12799072265624 200.04840087890625 109.12799072265624 200.04840087890625 " />
        <polyline stroke="black" stroke-width="3" stroke-linecap="round" fill="transparent" stroke-linejoin="round" points="159.6746826171875 149.50169372558594 156.6297607421875 161.0726318359375 150.53976440429688 175.68853759765625 143.8408203125 192.74044799804688 136.5328369140625 216.4913024902344 136.5328369140625 216.4913024902344 " />
        </svg>