<?xml version="1.0" standalone="no"?>
    <svg width="256" height="256" xmlns="http://www.w3.org/2000/svg" version="1.1">
    <polyline stroke="black" stroke-width="3" stroke-linecap="round" fill="transparent" stroke-linejoin="round" points="68.00384521484375 52.09535217285156 71.06442260742188 59.440704345703125 75.34921264648438 68.62240600585938 79.63400268554688 75.35565185546875 84.53091430664063 79.64045715332031 84.53091430664063 79.64045715332031 " />
        <polyline stroke="black" stroke-width="3" stroke-linecap="round" fill="transparent" stroke-linejoin="round" points="108.4033203125 62.50128173828125 111.46389770507813 71.07086181640625 116.36080932617188 81.47679138183594 121.25772094726563 91.27059936523438 121.25772094726563 91.27059936523438 " />
        <polyline stroke="black" stroke-width="3" stroke-linecap="round" fill="transparent" stroke-linejoin="round" points="159.82086181640625 60.052825927734375 142.68170166015625 87.59793090820313 121.25772094726563 114.53091430664063 121.25772094726563 114.53091430664063 " />
        <polyline stroke="black" stroke-width="3" stroke-linecap="round" fill="transparent" stroke-linejoin="round" points="81.4703369140625 113.91880798339844 71.06442260742188 131.6700897216797 54.537353515625 160.43942260742188 46.57989501953125 175.74224853515625 40.458740234375 189.82086181640625 40.458740234375 189.82086181640625 " />
        <polyline stroke="black" stroke-width="3" stroke-linecap="round" fill="transparent" stroke-linejoin="round" points="88.20361328125 143.3002471923828 101.67010498046876 135.3427734375 119.42138671875 127.3852996826172 142.68170166015625 121.26416015625 161.6572265625 121.26416015625 177.5721435546875 126.16107177734376 189.2022705078125 136.56700134277344 196.54766845703125 154.93038940429688 194.0992431640625 176.9664764404297 182.46905517578125 197.16622924804688 166.5540771484375 212.46905517578125 146.3543701171875 223.48709106445313 127.990966796875 227.7718811035156 117.58502197265624 224.0992126464844 109.6275634765625 212.46905517578125 109.6275634765625 212.46905517578125 " />
        <polyline stroke="black" stroke-width="3" stroke-linecap="round" fill="transparent" stroke-linejoin="round" points="100.44586181640624 160.43942260742188 95.5489501953125 175.74224853515625 90.65203857421876 191.65719604492188 86.36724853515625 203.89947509765625 85.14300537109375 210.0205993652344 85.14300537109375 210.0205993652344 " />
        <polyline stroke="black" stroke-width="3" stroke-linecap="round" fill="transparent" stroke-linejoin="round" points="132.88787841796875 155.54251098632813 127.37884521484376 176.9664764404297 118.80926513671876 195.32986450195313 118.80926513671876 195.32986450195313 " />
        </svg>