<?xml version="1.0" standalone="no"?>
    <svg width="256" height="256" xmlns="http://www.w3.org/2000/svg" version="1.1">
    <polyline stroke="black" stroke-width="3" stroke-linecap="round" fill="transparent" stroke-linejoin="round" points="62.458740234375 61.88916015625 66.13143920898438 73.51931762695313 70.41622924804688 83.92524719238281 74.70101928710938 91.88272094726563 78.98580932617188 98.615966796875 78.98580932617188 98.615966796875 " />
        <polyline stroke="black" stroke-width="3" stroke-linecap="round" fill="transparent" stroke-linejoin="round" points="118.773193359375 57.6043701171875 124.89431762695313 63.11338806152344 130.4033203125 71.07086181640625 130.4033203125 71.07086181640625 " />
        <polyline stroke="black" stroke-width="3" stroke-linecap="round" fill="transparent" stroke-linejoin="round" points="172.63916015625 48.42266845703125 163.45745849609375 65.56184387207031 141.42138671875 99.2280731201172 129.79119873046875 115.75514221191406 129.79119873046875 115.75514221191406 " />
        <polyline stroke="black" stroke-width="3" stroke-linecap="round" fill="transparent" stroke-linejoin="round" points="84.49481201171875 127.3852996826172 77.14947509765625 142.07601928710938 67.35565185546875 159.21519470214844 59.398193359375 170.8453369140625 53.88916015625 176.9664764404297 50.21649169921875 179.41493225097656 51.440704345703125 176.3543701171875 56.949737548828125 168.3968963623047 67.9677734375 156.76673889160156 84.49481201171875 143.912353515625 104.694580078125 131.05796813964844 124.28219604492188 121.26416015625 146.31829833984375 112.08245849609376 165.2938232421875 107.185546875 179.9844970703125 107.185546875 190.39044189453125 111.47035217285156 197.1236572265625 118.81570434570313 204.46905517578125 138.40333557128906 203.85693359375 156.76673889160156 197.73583984375 172.6816864013672 187.9420166015625 192.26931762695313 178.148193359375 206.34793090820313 170.190673828125 214.30538940429688 159.7847900390625 221.03863525390625 148.15460205078125 221.6507568359375 148.15460205078125 221.6507568359375 " />
        <polyline stroke="black" stroke-width="3" stroke-linecap="round" fill="transparent" stroke-linejoin="round" points="110.81570434570313 162.8878631591797 104.08245849609376 181.86338806152344 97.96133422851563 195.9419860839844 92.45230102539063 206.96002197265625 90.00384521484375 212.46905517578125 94.28863525390624 208.18426513671875 105.30670166015624 194.10565185546875 105.30670166015624 194.10565185546875 " />
        <polyline stroke="black" stroke-width="3" stroke-linecap="round" fill="transparent" stroke-linejoin="round" points="164.68170166015625 137.17910766601563 159.7847900390625 150.0334930419922 152.439453125 166.560546875 144.48193359375 181.86338806152344 137.1365966796875 195.9419860839844 128.5670166015625 212.46905517578125 128.5670166015625 212.46905517578125 " />
        </svg>