<?xml version="1.0" standalone="no"?>
    <svg width="256" height="256" xmlns="http://www.w3.org/2000/svg" version="1.1">
    <polyline stroke="black" stroke-width="3" stroke-linecap="round" fill="transparent" stroke-linejoin="round" points="82.38430786132813 43.73470306396485 81.82894897460938 59.284576416015625 80.16290283203125 75.94514465332031 79.6075439453125 90.93966674804688 79.6075439453125 102.04670715332033 80.71826171875 107.60023498535156 85.16107177734375 111.48770141601563 92.93600463867188 112.04304504394533 105.15374755859376 109.26628112792967 120.14825439453124 103.15740966796876 131.8106689453125 94.82713317871094 144.58377075195313 82.609375 144.58377075195313 82.609375 " />
        <polyline stroke="black" stroke-width="3" stroke-linecap="round" fill="transparent" stroke-linejoin="round" points="152.9140625 44.290061950683594 149.58193969726563 54.84175109863281 147.9158935546875 64.28274536132813 145.13912963867188 78.16654968261719 140.6962890625 99.26994323730467 140.6962890625 99.26994323730467 " />
        <polyline stroke="black" stroke-width="3" stroke-linecap="round" fill="transparent" stroke-linejoin="round" points="57.94879150390625 157.02659606933594 64.613037109375 149.2516632080078 75.16473388671875 140.92137145996094 93.4913330078125 130.3696746826172 111.26263427734376 121.48403930664063 129.58926391601563 114.26446533203124 144.58377075195313 108.7109375 153.46942138671875 105.93417358398438 153.46942138671875 105.93417358398438 " />
        <polyline stroke="black" stroke-width="3" stroke-linecap="round" fill="transparent" stroke-linejoin="round" points="82.38430786132813 178.68533325195313 79.6075439453125 189.23703002929688 79.6075439453125 190.903076171875 81.27362060546875 190.903076171875 85.7164306640625 187.57098388671875 98.48953247070313 177.5746307373047 115.7054443359375 163.69082641601563 135.14279174804688 150.917724609375 152.9140625 143.14279174804688 166.2425537109375 143.14279174804688 172.90673828125 147.58560180664063 177.9049072265625 157.58193969726563 179.015625 172.02110290527344 171.7960205078125 184.79421997070313 160.1336669921875 193.12451171875 160.1336669921875 193.12451171875 " />
        <polyline stroke="black" stroke-width="3" stroke-linecap="round" fill="transparent" stroke-linejoin="round" points="115.15008544921876 40.95794677734375 115.15008544921876 72.613037109375 116.816162109375 105.37881469726563 119.5928955078125 131.48037719726563 124.59109497070313 161.4694061279297 126.8125 184.79421997070313 124.03573608398438 210.89578247070313 124.03573608398438 210.89578247070313 " />
        </svg>