<?xml version="1.0" standalone="no"?>
    <svg width="256" height="256" xmlns="http://www.w3.org/2000/svg" version="1.1">
    <polyline stroke="black" stroke-width="3" stroke-linecap="round" fill="transparent" stroke-linejoin="round" points="77.02200317382813 71.85273742675781 91.22006225585938 65.39907836914063 107.35421752929688 58.945404052734375 123.48837280273438 54.42784118652344 140.26788330078125 52.49175262451172 155.111328125 53.137115478515625 167.373291015625 55.71858215332031 175.7630615234375 58.945404052734375 181.5712890625 64.10833740234375 184.79815673828125 71.20736694335938 183.5074462890625 82.82395935058594 176.40838623046875 97.66737365722656 164.14642333984375 110.57469177246094 144.78546142578125 123.48202514648438 144.78546142578125 123.48202514648438 " />
        <polyline stroke="black" stroke-width="3" stroke-linecap="round" fill="transparent" stroke-linejoin="round" points="99.60980224609376 121.54591369628906 111.87176513671876 117.67372131347656 122.843017578125 114.4468994140625 132.52349853515625 112.5107879638672 140.91326904296875 111.8654327392578 147.36691284179688 111.8654327392578 152.52984619140625 111.8654327392578 152.52984619140625 111.8654327392578 " />
        <polyline stroke="black" stroke-width="3" stroke-linecap="round" fill="transparent" stroke-linejoin="round" points="101.5458984375 135.7439727783203 93.801513671875 149.94203186035156 86.7025146484375 165.43081665039063 82.1849365234375 181.56497192382813 81.53955078125 195.11764526367188 86.05712890625 204.15277099609375 97.02835083007813 210.6064453125 117.6800537109375 213.1878967285156 138.9771728515625 211.89715576171875 159.62884521484375 208.02496337890625 177.0537109375 203.5074157714844 189.9610595703125 198.344482421875 197.06005859375 194.4722900390625 202.2230224609375 189.30935668945313 204.15911865234375 182.85568237304688 202.2230224609375 171.23910522460938 190.6064453125 146.06982421875 190.6064453125 146.06982421875 " />
        </svg>