<?xml version="1.0" standalone="no"?>
    <svg width="256" height="256" xmlns="http://www.w3.org/2000/svg" version="1.1">
    <polyline stroke="black" stroke-width="3" stroke-linecap="round" fill="transparent" stroke-linejoin="round" points="71.21371459960938 54.42784118652344 81.53955078125 50.55564880371094 93.801513671875 46.0380859375 108.64495849609376 42.811256408691406 122.843017578125 40.22979736328125 137.04107666015625 38.939064025878906 148.01226806640625 40.22979736328125 155.111328125 42.811256408691406 160.27423095703125 47.328819274902344 162.855712890625 57.009307861328125 161.56494140625 71.85273742675781 154.4659423828125 87.34152221679688 142.2039794921875 102.83030700683594 128.00592041015625 113.80152893066406 112.51715087890624 123.48202514648438 112.51715087890624 123.48202514648438 " />
        <polyline stroke="black" stroke-width="3" stroke-linecap="round" fill="transparent" stroke-linejoin="round" points="80.89422607421875 120.90055847167967 92.51080322265624 117.67372131347656 104.12738037109376 114.4468994140625 115.09860229492188 111.22006225585938 124.13372802734376 109.28396606445313 130.58740234375 107.34786987304688 134.4595947265625 106.70249938964844 134.4595947265625 106.70249938964844 " />
        <polyline stroke="black" stroke-width="3" stroke-linecap="round" fill="transparent" stroke-linejoin="round" points="78.312744140625 169.30300903320313 77.6673583984375 180.9196014404297 77.6673583984375 192.53619384765625 79.60345458984375 204.15277099609375 82.830322265625 213.1878967285156 89.28396606445313 220.93228149414065 99.60980224609376 226.7406005859375 116.38934326171876 230.61279296875 135.75030517578125 229.9674072265625 156.40203857421875 225.44985961914065 171.2454833984375 220.28692626953125 181.5712890625 215.76937866210935 188.67034912109375 211.89715576171875 194.4786376953125 207.37960815429688 197.7054443359375 202.2166748046875 198.9962158203125 195.76303100585935 197.06005859375 184.14642333984375 183.5074462890625 148.0059356689453 183.5074462890625 148.0059356689453 " />
        </svg>