<?xml version="1.0" standalone="no"?>
    <svg width="256" height="256" xmlns="http://www.w3.org/2000/svg" version="1.1">
    <polyline stroke="black" stroke-width="3" stroke-linecap="round" fill="transparent" stroke-linejoin="round" points="96.96224975585938 88.85340881347656 114.79083251953124 83.30674743652344 130.24224853515625 79.74102783203125 141.3355712890625 78.15626525878906 150.05178833007813 77.76005554199219 157.9755859375 78.94865417480469 162.72991943359375 86.47627258300781 161.14508056640625 109.0591278076172 155.20220947265625 126.0953369140625 145.2974853515625 143.52772521972656 134.60031127929688 155.0172576904297 134.60031127929688 155.0172576904297 " />
        <polyline stroke="black" stroke-width="3" stroke-linecap="round" fill="transparent" stroke-linejoin="round" points="98.94317626953124 142.7353515625 114.39459228515624 138.77345275878906 129.44989013671875 136.79249572753906 144.10891723632813 135.60391235351563 147.67465209960938 134.8115234375 147.67465209960938 134.8115234375 " />
        <polyline stroke="black" stroke-width="3" stroke-linecap="round" fill="transparent" stroke-linejoin="round" points="64.474609375 189.08966064453125 67.64410400390625 199.78680419921875 74.77557373046875 209.29537963867188 98.15081787109376 223.95443725585935 117.96035766601563 226.727783203125 136.97747802734375 222.36965942382813 157.1832275390625 214.842041015625 175.01177978515625 205.72967529296875 190.06707763671875 195.42868041992188 201.9527587890625 186.7125244140625 207.8956298828125 181.95822143554688 209.4803466796875 179.58108520507813 209.4803466796875 179.58108520507813 " />
        </svg>