<?xml version="1.0" standalone="no"?>
    <svg width="256" height="256" xmlns="http://www.w3.org/2000/svg" version="1.1">
    <polyline stroke="black" stroke-width="3" stroke-linecap="round" fill="transparent" stroke-linejoin="round" points="84.90927124023438 70.29832458496094 93.686279296875 66.97308349609375 113.646728515625 61.848480224609375 132.31027221679688 59.937469482421875 148.00946044921875 59.299530029296875 153.0406494140625 59.688385009765625 156.5364990234375 61.58955383300781 157.57794189453125 62.2919921875 170.346923828125 64.350341796875 170.8397216796875 65.22554016113281 170.66595458984375 68.562744140625 159.4947509765625 81.44415283203125 152.47821044921875 90.1487274169922 146.38238525390625 100.33982849121094 145.88787841796875 101.19967651367188 " />
        <polyline stroke="black" stroke-width="3" stroke-linecap="round" fill="transparent" stroke-linejoin="round" points="91.48040771484376 124.6274871826172 98.23373413085938 123.167724609375 112.97918701171876 119.3314208984375 129.34115600585938 116.19247436523438 138.77426147460938 114.36907958984376 143.68576049804688 113.32574462890624 143.73040771484375 113.31626892089844 143.7335205078125 113.31561279296876 " />
        <polyline stroke="black" stroke-width="3" stroke-linecap="round" fill="transparent" stroke-linejoin="round" points="65.16162109375 153.94607543945313 64.28353881835938 173.48728942871094 64.24227905273438 183.00259399414065 66.64437866210938 194.74713134765625 69.70941162109375 199.66159057617188 73.52438354492188 205.2705078125 81.7802734375 213.59698486328125 94.826904296875 222.1375732421875 100.908203125 225.29052734375 115.7880859375 227.6553955078125 135.35116577148438 227.45751953125 154.3165283203125 220.06414794921875 175.88372802734375 213.0272216796875 184.278076171875 203.7113037109375 184.4559326171875 198.84982299804688 184.51220703125 186.7665100097656 182.82110595703125 178.36019897460938 182.6519775390625 177.51956176757813 " />
        </svg>