<?xml version="1.0" standalone="no"?>
    <svg width="256" height="256" xmlns="http://www.w3.org/2000/svg" version="1.1">
    <polyline stroke="black" stroke-width="3" stroke-linecap="round" fill="transparent" stroke-linejoin="round" points="80.85699462890625 61.78779602050781 83.52996826171875 70.87596130371094 84.0645751953125 78.89492797851563 84.0645751953125 86.91389465332031 84.59918212890625 93.3290557861328 85.1337890625 99.20964050292967 86.20297241210938 104.02101135253906 87.8067626953125 107.22859191894533 91.01434326171876 108.8323974609375 96.36032104492188 108.8323974609375 103.31008911132813 106.15940856933594 114.53665161132813 101.3480224609375 125.76318359375 96.53665161132813 136.45513916015625 91.190673828125 143.4049072265625 86.91389465332031 150.35467529296875 78.36032104492188 150.35467529296875 78.36032104492188 " />
        <polyline stroke="black" stroke-width="3" stroke-linecap="round" fill="transparent" stroke-linejoin="round" points="153.562255859375 48.42285919189453 156.2352294921875 63.39158630371094 156.2352294921875 76.22193908691406 154.6314697265625 99.74423217773438 154.6314697265625 99.74423217773438 " />
        <polyline stroke="black" stroke-width="3" stroke-linecap="round" fill="transparent" stroke-linejoin="round" points="68.56124877929688 131.82008361816406 83.52996826171875 129.68170166015625 96.36032104492188 127.54330444335938 115.6058349609375 124.8703155517578 134.3167724609375 121.66273498535156 150.8892822265625 118.45515441894533 163.18505859375 115.78216552734376 168.531005859375 115.78216552734376 168.531005859375 115.78216552734376 " />
        <polyline stroke="black" stroke-width="3" stroke-linecap="round" fill="transparent" stroke-linejoin="round" points="88.34136962890625 156.94618225097656 85.66839599609375 169.24192810058594 84.0645751953125 175.12249755859375 83.52996826171875 179.9338836669922 83.52996826171875 183.14144897460935 85.1337890625 184.21066284179688 89.41055297851563 182.072265625 97.964111328125 175.65708923339844 109.72528076171876 167.6381378173828 123.0902099609375 159.61917114257813 137.52435302734375 153.20399475097656 149.820068359375 151.60020446777344 161.58123779296875 153.73858642578125 167.99639892578125 158.015380859375 172.273193359375 164.4305419921875 174.41156005859375 172.98410034179688 172.273193359375 179.39927673339844 165.32342529296875 184.21066284179688 152.4930419921875 184.21066284179688 152.4930419921875 184.21066284179688 " />
        <polyline stroke="black" stroke-width="3" stroke-linecap="round" fill="transparent" stroke-linejoin="round" points="115.6058349609375 57.511016845703125 117.74423217773438 68.73756408691406 120.417236328125 91.190673828125 122.02099609375 114.71296691894533 123.0902099609375 140.3736572265625 123.62481689453124 165.49974060058594 123.0902099609375 193.298828125 121.48641967773438 216.2865295410156 121.48641967773438 216.2865295410156 " />
        </svg>