<?xml version="1.0" standalone="no"?>
    <svg width="256" height="256" xmlns="http://www.w3.org/2000/svg" version="1.1">
    <polyline stroke="black" stroke-width="3" stroke-linecap="round" fill="transparent" stroke-linejoin="round" points="69.09585571289063 67.66838073730469 69.09585571289063 84.77549743652344 69.63043212890625 92.79446411132813 71.2342529296875 98.14044189453124 72.8380126953125 102.41722106933594 77.11480712890625 105.0902099609375 82.99539184570313 106.15940856933594 91.5489501953125 106.15940856933594 102.7755126953125 104.02101135253906 116.675048828125 99.74423217773438 128.97076416015625 94.39825439453124 139.6627197265625 88.51768493652344 148.75091552734375 82.10250854492188 148.75091552734375 82.10250854492188 " />
        <polyline stroke="black" stroke-width="3" stroke-linecap="round" fill="transparent" stroke-linejoin="round" points="149.820068359375 46.28446960449219 149.820068359375 58.04560852050781 150.8892822265625 69.8067626953125 149.820068359375 91.190673828125 149.820068359375 91.190673828125 " />
        <polyline stroke="black" stroke-width="3" stroke-linecap="round" fill="transparent" stroke-linejoin="round" points="56.2655029296875 144.11582946777344 67.4920654296875 143.58123779296875 78.71859741210938 142.5120391845703 95.2911376953125 140.3736572265625 119.88262939453124 136.0968780517578 135.9205322265625 131.82008361816406 148.21630859375 128.07791137695313 154.09686279296875 127.00871276855467 154.09686279296875 127.00871276855467 " />
        <polyline stroke="black" stroke-width="3" stroke-linecap="round" fill="transparent" stroke-linejoin="round" points="81.92620849609375 152.13479614257813 77.11480712890625 163.36134338378906 76.5802001953125 170.31112670898438 76.04559326171875 178.86468505859375 76.04559326171875 184.74526977539065 76.5802001953125 188.4874267578125 79.25320434570313 189.02203369140625 85.1337890625 186.34906005859375 95.82574462890624 179.9338836669922 109.72528076171876 171.9149169921875 125.76318359375 163.8959503173828 143.93951416015625 159.61917114257813 157.304443359375 158.5499725341797 165.8580322265625 161.75755310058594 172.273193359375 169.24192810058594 177.619140625 186.88363647460935 176.015380859375 199.7139892578125 172.273193359375 206.129150390625 166.392578125 210.9405517578125 155.70068359375 213.07891845703125 140.73193359375 202.92156982421875 140.73193359375 202.92156982421875 " />
        <polyline stroke="black" stroke-width="3" stroke-linecap="round" fill="transparent" stroke-linejoin="round" points="116.14044189453124 45.74987030029297 118.27880859375 67.13377380371094 119.3480224609375 97.0712432861328 119.3480224609375 126.47410583496094 118.27880859375 161.75755310058594 118.81341552734376 183.14144897460935 119.88262939453124 200.24859619140625 120.417236328125 215.21731567382813 120.95181274414063 230.18606567382813 120.95181274414063 230.18606567382813 " />
        </svg>