<?xml version="1.0" standalone="no"?>
    <svg width="256" height="256" xmlns="http://www.w3.org/2000/svg" version="1.1">
    <polyline stroke="black" stroke-width="3" stroke-linecap="round" fill="transparent" stroke-linejoin="round" points="66.12619018554688 62.140350341796875 78.300537109375 84.12434387207031 80.07000732421875 89.37661743164063 81.27490234375 93.59219360351563 81.51654052734375 97.35980224609376 80.38079833984375 97.87843322753906 79.92047119140625 98.088623046875 " />
        <polyline stroke="black" stroke-width="3" stroke-linecap="round" fill="transparent" stroke-linejoin="round" points="77.44198608398438 48.6484375 108.81173706054688 35.28269958496094 119.1484375 32.595947265625 139.39157104492188 28.68931579589844 148.66339111328125 28.391441345214844 162.10577392578125 30.701629638671875 167.01141357421875 32.37902069091797 173.8203125 36.224143981933594 174.11895751953125 40.30107879638672 174.28515625 46.10554504394531 168.9288330078125 64.21343994140625 156.0675048828125 77.56352233886719 155.04437255859375 77.2008056640625 " />
        <polyline stroke="black" stroke-width="3" stroke-linecap="round" fill="transparent" stroke-linejoin="round" points="113.13021850585938 34.7213134765625 115.41049194335938 57.62249755859375 115.55233764648438 71.21804809570313 115.04782104492188 77.79603576660156 109.3636474609375 97.22984313964844 108.20944213867188 97.55722045898438 " />
        <polyline stroke="black" stroke-width="3" stroke-linecap="round" fill="transparent" stroke-linejoin="round" points="87.016845703125 67.36300659179688 105.12158203125 62.757598876953125 113.45556640625 61.144378662109375 121.492431640625 59.54954528808594 137.52755737304688 56.285125732421875 144.15658569335938 55.14918518066406 148.96432495117188 54.29457092285156 149.06439208984375 54.27662658691406 149.07391357421875 54.274932861328125 " />
        <polyline stroke="black" stroke-width="3" stroke-linecap="round" fill="transparent" stroke-linejoin="round" points="96.59176635742188 98.69903564453124 124.28289794921876 85.31271362304688 132.96078491210938 83.76644897460938 150.99383544921875 82.262939453125 156.62188720703125 82.63702392578125 161.851318359375 82.85812377929688 161.9796142578125 82.87234497070313 " />
        <polyline stroke="black" stroke-width="3" stroke-linecap="round" fill="transparent" stroke-linejoin="round" points="27.82659912109375 139.60997009277344 58.87445068359375 128.71421813964844 68.4088134765625 126.02975463867188 91.864990234375 121.3569793701172 104.80633544921876 120.41104125976563 128.25506591796875 120.5818328857422 146.09521484375 120.50675964355467 154.323974609375 119.75212097167967 172.4881591796875 117.59051513671876 179.10772705078125 116.7107391357422 188.8690185546875 116.52439880371094 194.8519287109375 116.81448364257813 203.3402099609375 116.59280395507813 204.84112548828125 116.23544311523438 206.952392578125 115.30686950683594 207.9337158203125 114.49020385742188 208.15924072265625 114.31219482421876 208.38079833984375 115.09085083007813 208.49365234375 115.48745727539063 " />
        <polyline stroke="black" stroke-width="3" stroke-linecap="round" fill="transparent" stroke-linejoin="round" points="71.34884643554688 162.6767578125 77.94158935546875 181.82015991210935 80.60385131835938 194.49099731445313 85.43743896484375 220.78073120117188 87.5906982421875 229.9825439453125 89.93685913085938 238.99725341796875 90.67245483398438 240.5638427734375 90.6815185546875 240.5831298828125 " />
        <polyline stroke="black" stroke-width="3" stroke-linecap="round" fill="transparent" stroke-linejoin="round" points="90.93389892578124 156.58364868164063 107.30279541015624 145.13299560546875 115.42169189453124 143.37339782714844 123.2412109375 142.20626831054688 139.99374389648438 142.4503173828125 147.71966552734375 143.80233764648438 159.040771484375 147.13682556152344 162.623291015625 148.90579223632813 167.7757568359375 156.13937377929688 171.08514404296875 165.78515625 173.50872802734375 195.00732421875 171.8927001953125 207.75860595703125 165.7322998046875 226.97235107421875 153.96954345703125 237.79217529296875 153.156494140625 234.90869140625 " />
        <polyline stroke="black" stroke-width="3" stroke-linecap="round" fill="transparent" stroke-linejoin="round" points="115.74154663085938 148.31443786621094 118.81097412109376 175.46365356445313 119.89389038085938 190.27490234375 120.5064697265625 201.81378173828125 120.0712890625 222.1796875 119.36309814453124 229.07537841796875 116.80499267578124 237.59683227539065 116.2032470703125 237.24853515625 116.16473388671876 237.2261962890625 " />
        <polyline stroke="black" stroke-width="3" stroke-linecap="round" fill="transparent" stroke-linejoin="round" points="87.45208740234375 202.71725463867188 107.06500244140624 200.89773559570313 115.302490234375 200.36538696289065 131.4578857421875 198.3177795410156 147.73104858398438 197.62066650390625 153.44921875 197.82061767578125 157.49041748046875 198.5083923339844 159.47406005859375 199.34176635742188 158.881103515625 201.2471923828125 157.84735107421875 202.08059692382813 " />
        <polyline stroke="black" stroke-width="3" stroke-linecap="round" fill="transparent" stroke-linejoin="round" points="97.46221923828124 247.1099548339844 118.29681396484376 238.13278198242188 125.14181518554688 236.98712158203125 132.5164794921875 236.4380798339844 148.97320556640625 236.76498413085935 154.2515869140625 237.5477294921875 160.02459716796875 239.548828125 160.0284423828125 241.6302490234375 159.41217041015625 242.27511596679688 " />
        </svg>