<?xml version="1.0" standalone="no"?>
    <svg width="256" height="256" xmlns="http://www.w3.org/2000/svg" version="1.1">
    <polyline stroke="black" stroke-width="3" stroke-linecap="round" fill="transparent" stroke-linejoin="round" points="92.84701538085938 63.32643127441406 93.74325561523438 69.599853515625 94.63949584960938 75.87327575683594 95.08758544921876 86.627685546875 94.63949584960938 94.2454071044922 94.19137573242188 96.48590087890624 94.19137573242188 96.48590087890624 " />
        <polyline stroke="black" stroke-width="3" stroke-linecap="round" fill="transparent" stroke-linejoin="round" points="89.71038818359371 57.94923400878906 104.04962158203124 51.67582702636719 118.38885498046876 45.40242004394531 125.55844116210938 42.71380615234375 133.624267578125 40.47331237792969 149.30780029296875 38.23280334472656 162.302734375 39.57710266113281 171.2647705078125 41.81761169433594 176.6419677734375 45.40242004394531 178.434326171875 48.09101867675781 180.6748046875 56.60493469238281 173.5052490234375 78.56187438964844 167.679931640625 87.07579040527344 167.679931640625 87.07579040527344 " />
        <polyline stroke="black" stroke-width="3" stroke-linecap="round" fill="transparent" stroke-linejoin="round" points="113.4597473144531 88.42010498046875 117.94073486328124 86.17959594726563 122.42172241210938 83.9390869140625 126.90277099609376 82.14668273925781 144.82675170898438 73.63276672363281 150.652099609375 69.599853515625 155.5811767578125 66.01504516601563 155.5811767578125 66.01504516601563 " />
        <polyline stroke="black" stroke-width="3" stroke-linecap="round" fill="transparent" stroke-linejoin="round" points="142.13812255859375 61.982147216796875 141.241943359375 66.46315002441406 140.34576416015625 70.94415283203125 137.20907592773438 81.69857788085938 133.624267578125 90.6605987548828 128.2470703125 98.2783203125 123.31793212890624 103.655517578125 116.596435546875 107.68841552734376 111.21920776367188 109.92893981933594 108.08251953125 110.82513427734376 106.73822021484376 110.82513427734376 106.73822021484376 110.37704467773438 109.42684936523438 109.03274536132813 118.38885498046876 105.44792175292967 130.0394287109375 100.9669189453125 143.93060302734375 96.03781127929688 151.54827880859375 93.34919738769533 151.54827880859375 93.34919738769533 " />
        <polyline stroke="black" stroke-width="3" stroke-linecap="round" fill="transparent" stroke-linejoin="round" points="78.05972290039063 135.91880798339844 87.4698486328125 132.78208923339844 96.87997436523438 129.64537048339844 107.6343994140625 125.61245727539063 119.28500366210938 122.47575378417967 144.82675170898438 117.09854125976563 169.92041015625 114.40994262695313 190.5330810546875 114.40994262695313 203.52801513671875 115.75424194335938 208.45709228515625 117.9947509765625 209.8013916015625 122.02767944335938 207.11279296875 128.3010711669922 207.11279296875 128.3010711669922 " />
        <polyline stroke="black" stroke-width="3" stroke-linecap="round" fill="transparent" stroke-linejoin="round" points="113.459716796875 179.384521484375 113.459716796875 185.657958984375 113.459716796875 191.931396484375 113.90780639648438 208.5111083984375 113.459716796875 216.12884521484375 112.5634765625 217.0250244140625 111.66732788085938 216.12884521484375 110.7711181640625 211.6478271484375 110.322998046875 204.03009033203125 111.21920776367188 196.41238403320313 114.35589599609376 187.89846801757813 120.62933349609376 179.38455200195313 131.38372802734375 169.52633666992188 145.72299194335938 160.1162109375 158.7178955078125 154.739013671875 168.57611083984375 152.94662475585938 173.05712890625 153.39471435546875 182.91534423828125 158.77191162109375 187.844482421875 167.28582763671875 189.6368408203125 180.28076171875 183.8115234375 197.30859375 183.8115234375 197.30859375 " />
        <polyline stroke="black" stroke-width="3" stroke-linecap="round" fill="transparent" stroke-linejoin="round" points="133.62420654296875 183.41744995117188 138.5533447265625 181.62506103515625 143.48248291015625 179.83267211914063 148.41156005859375 178.04025268554688 162.7508544921875 174.00735473632813 173.95330810546875 169.97442626953125 173.95330810546875 169.97442626953125 " />
        <polyline stroke="black" stroke-width="3" stroke-linecap="round" fill="transparent" stroke-linejoin="round" points="153.3406982421875 180.72882080078125 150.2039794921875 187.00225830078125 147.0672607421875 193.27569580078125 145.27487182617188 195.96429443359375 140.79388427734375 199.9971923828125 131.83184814453125 206.2706298828125 126.90277099609376 209.4073181152344 123.76605224609376 211.19970703125 122.42172241210938 212.09591674804688 123.31793212890624 212.09591674804688 126.00653076171876 212.09591674804688 137.65716552734375 211.19970703125 153.3406982421875 209.4073181152344 176.19384765625 208.06301879882813 176.19384765625 208.06301879882813 " />
        </svg>