<?xml version="1.0" standalone="no"?>
    <svg width="256" height="256" xmlns="http://www.w3.org/2000/svg" version="1.1">
    <polyline stroke="black" stroke-width="3" stroke-linecap="round" fill="transparent" stroke-linejoin="round" points="73.1514892578125 80.78305053710938 76.16891479492188 89.69082641601563 79.18634033203125 98.59860229492188 82.49871826171875 107.9670867919922 88.90081787109375 125.40692138671876 90.0098876953125 129.29904174804688 91.00436401367188 131.38475036621094 91.07772827148438 131.51914978027344 " />
        <polyline stroke="black" stroke-width="3" stroke-linecap="round" fill="transparent" stroke-linejoin="round" points="95.64437866210938 58.66822814941406 102.09677124023438 56.84840393066406 108.54916381835938 55.02857971191406 131.59881591796875 51.86071014404297 154.14990234375 51.430145263671875 167.1934814453125 54.753814697265625 172.3223876953125 58.54573059082031 180.6905517578125 67.87939453125 183.6444091796875 72.98370361328125 187.597900390625 87.23977661132813 186.38275146484375 95.24241638183594 178.1756591796875 109.41644287109376 172.5478515625 115.05142211914063 167.5853271484375 118.76506042480467 166.05908203125 119.05288696289063 " />
        <polyline stroke="black" stroke-width="3" stroke-linecap="round" fill="transparent" stroke-linejoin="round" points="111.36724853515624 64.48559570312501 113.9029541015625 81.55960083007813 116.43865966796876 98.63360595703124 117.93096923828124 116.78060913085938 117.4912109375 125.1485595703125 117.53118896484376 126.7651824951172 " />
        <polyline stroke="black" stroke-width="3" stroke-linecap="round" fill="transparent" stroke-linejoin="round" points="98.90081787109376 90.5902099609375 104.10272216796876 89.01319885253906 109.30462646484376 87.43618774414063 133.54830932617188 83.44908142089844 142.32122802734375 83.32327270507813 160.28839111328125 87.65277099609375 160.74114990234375 90.67243957519533 160.786376953125 90.9744110107422 " />
        <polyline stroke="black" stroke-width="3" stroke-linecap="round" fill="transparent" stroke-linejoin="round" points="88.77386474609371 126.68077087402344 96.42730712890624 123.29722595214844 104.08074951171876 119.91368103027344 126.51730346679688 114.1130828857422 136.998291015625 112.34947204589844 156.756103515625 111.47174072265624 163.2139892578125 111.89199829101563 165.11895751953125 112.82913208007813 165.13330078125 112.83621215820313 " />
        <polyline stroke="black" stroke-width="3" stroke-linecap="round" fill="transparent" stroke-linejoin="round" points="40.694580078125 160.26028442382813 52.187225341796875 156.13800048828125 63.67987060546875 152.01571655273438 82.16439819335938 144.9471893310547 94.36874389648438 141.60693359375 116.33920288085938 137.3866424560547 150.32382202148438 132.0299530029297 168.7216796875 129.162841796875 184.22918701171875 126.31753540039063 190.99285888671875 124.77923583984376 200.2772216796875 123.43768310546876 202.12371826171875 123.6047821044922 205.10784912109375 123.83189392089844 205.13153076171875 123.83367919921876 205.1348876953125 123.83395385742188 205.13623046875 123.83404541015624 " />
        <polyline stroke="black" stroke-width="3" stroke-linecap="round" fill="transparent" stroke-linejoin="round" points="83.56097412109375 176.7239990234375 85.18905639648438 181.9813232421875 86.817138671875 187.2386474609375 91.05511474609376 196.75006103515625 93.81549072265624 202.16897583007813 98.40914916992188 209.97686767578125 98.57894897460938 210.24282836914065 " />
        <polyline stroke="black" stroke-width="3" stroke-linecap="round" fill="transparent" stroke-linejoin="round" points="87.72348022460938 161.6195831298828 107.84603881835938 152.45941162109375 127.96859741210938 143.2992401123047 154.2017822265625 137.9331512451172 165.6651611328125 136.88259887695313 175.380859375 139.36831665039063 179.02459716796875 141.62420654296875 182.66156005859375 148.18353271484375 183.94964599609375 152.42068481445313 184.23974609375 164.87353515625 182.79388427734375 172.05332946777344 176.19573974609375 186.62533569335935 171.77874755859375 192.5575256347656 170.35400390625 193.05517578125 " />
        <polyline stroke="black" stroke-width="3" stroke-linecap="round" fill="transparent" stroke-linejoin="round" points="125.5732421875 162.01548767089844 128.4427490234375 171.66624450683594 131.312255859375 181.31700134277344 133.409423828125 199.9706115722656 126.44931030273438 209.33404541015625 123.5921630859375 209.80340576171875 " />
        <polyline stroke="black" stroke-width="3" stroke-linecap="round" fill="transparent" stroke-linejoin="round" points="110.95330810546875 178.19837951660156 118.75839233398438 177.48391723632813 126.5634765625 176.7694549560547 137.13623046875 175.71072387695313 143.99017333984375 177.05648803710938 152.44744873046875 178.885986328125 153.87750244140625 179.42098999023438 " />
        <polyline stroke="black" stroke-width="3" stroke-linecap="round" fill="transparent" stroke-linejoin="round" points="91.67071533203125 203.5946655273438 106.26596069335938 201.06362915039065 120.8612060546875 198.5325927734375 139.404052734375 196.67181396484375 156.94842529296875 196.47674560546875 171.4227294921875 198.19659423828125 178.25946044921875 202.11981201171875 180.7872314453125 205.4130859375 182.63568115234375 209.88226318359375 181.8828125 211.8216552734375 " />
        </svg>