<?xml version="1.0" standalone="no"?>
    <svg width="256" height="256" xmlns="http://www.w3.org/2000/svg" version="1.1">
    <polyline stroke="black" stroke-width="3" stroke-linecap="round" fill="transparent" stroke-linejoin="round" points="75.43743896484375 59.763031005859375 77.502685546875 78.76335144042969 77.502685546875 94.04620361328124 76.67657470703125 109.74211120605467 75.85043334960938 127.91635131835938 73.37216186523438 161.78643798828125 71.719970703125 177.48236083984375 70.48080444335938 201.85232543945313 70.48080444335938 216.30908203125 70.48080444335938 222.50482177734375 70.48080444335938 223.3309326171875 70.48080444335938 223.3309326171875 " />
        <polyline stroke="black" stroke-width="3" stroke-linecap="round" fill="transparent" stroke-linejoin="round" points="79.15487670898438 72.154541015625 95.67684936523438 61.828277587890625 104.76400756835938 58.11083984375 113.85107421875 55.219482421875 125.00341796875 53.15422821044922 148.13424682617188 52.741180419921875 159.69964599609375 54.39338684082031 179.52606201171875 60.589141845703125 194.3958740234375 72.154541015625 207.613525390625 94.872314453125 214.2222900390625 125.4380340576172 212.570068359375 153.93850708007813 205.9613037109375 176.2432098388672 198.5263671875 191.113037109375 190.678466796875 200.20013427734375 180.7652587890625 206.80892944335935 167.960693359375 210.11334228515625 153.0908203125 206.3958740234375 153.0908203125 206.3958740234375 " />
        </svg>