<?xml version="1.0" standalone="no"?>
    <svg width="256" height="256" xmlns="http://www.w3.org/2000/svg" version="1.1">
    <polyline stroke="black" stroke-width="3" stroke-linecap="round" fill="transparent" stroke-linejoin="round" points="54.318450927734375 78.92391967773438 68.44268798828125 74.21583557128906 83.239501953125 70.18032836914063 97.70004272460938 65.80854797363281 109.8065185546875 60.76417541503906 113.16943359375 59.08271789550781 113.16943359375 59.08271789550781 " />
        <polyline stroke="black" stroke-width="3" stroke-linecap="round" fill="transparent" stroke-linejoin="round" points="96.691162109375 36.21488952636719 92.65570068359376 47.3125 87.94760131835938 58.746429443359375 83.239501953125 70.51663208007813 72.814453125 92.37557983398438 67.77011108398438 101.4554443359375 56.672454833984375 117.26115417480467 51.29180908203125 123.65069580078124 51.29180908203125 123.65069580078124 " />
        <polyline stroke="black" stroke-width="3" stroke-linecap="round" fill="transparent" stroke-linejoin="round" points="52.3006591796875 102.80062866210938 59.0264892578125 103.80949401855467 66.088623046875 105.1546630859375 73.1507568359375 106.49981689453124 85.59356689453125 109.86273193359376 97.0274658203125 112.55307006835938 102.40814208984376 113.56193542480467 102.40814208984376 113.56193542480467 " />
        <polyline stroke="black" stroke-width="3" stroke-linecap="round" fill="transparent" stroke-linejoin="round" points="87.27499389648438 137.10235595703125 84.92098999023438 143.49188232421875 82.9031982421875 150.21771240234375 81.22177124023438 156.60726928710938 77.52255249023438 169.38633728027344 74.83221435546875 176.11216735839844 71.13299560546875 184.85577392578125 67.43380737304688 190.57272338867188 67.43380737304688 190.57272338867188 " />
        <polyline stroke="black" stroke-width="3" stroke-linecap="round" fill="transparent" stroke-linejoin="round" points="37.167572021484375 211.42279052734375 46.2474365234375 208.05990600585935 55.66357421875 204.36065673828125 75.16851806640625 198.30743408203125 84.92098999023438 195.95339965820313 105.77105712890624 191.24530029296875 105.77105712890624 191.24530029296875 " />
        <polyline stroke="black" stroke-width="3" stroke-linecap="round" fill="transparent" stroke-linejoin="round" points="150.497802734375 87.66751098632813 150.16156005859375 96.07478332519533 147.1348876953125 103.80949401855467 147.1348876953125 103.80949401855467 " />
        <polyline stroke="black" stroke-width="3" stroke-linecap="round" fill="transparent" stroke-linejoin="round" points="156.21478271484375 72.53439331054688 160.9228515625 70.85292053222656 171.6842041015625 66.81741333007813 183.79071044921875 63.11820983886719 200.26898193359375 60.091583251953125 207.33111572265625 60.427886962890625 211.36663818359375 61.773040771484375 213.04803466796875 64.46337890625 210.3577880859375 73.20695495605469 200.9415283203125 84.30458068847656 186.14471435546875 95.73849487304688 171.6842041015625 103.13690185546876 162.26800537109375 105.82723999023438 157.5599365234375 106.83612060546876 155.54217529296875 106.83612060546876 155.2059326171875 106.16354370117188 156.88739013671875 105.1546630859375 164.2857666015625 102.46432495117188 171.6842041015625 99.77401733398438 190.18023681640625 92.37557983398438 190.18023681640625 92.37557983398438 " />
        <polyline stroke="black" stroke-width="3" stroke-linecap="round" fill="transparent" stroke-linejoin="round" points="147.47119140625 129.70394897460938 146.46234130859375 131.38540649414063 146.12603759765625 132.0579833984375 145.78973388671875 132.39427185058594 148.81634521484375 130.04022216796875 156.88739013671875 124.995849609375 162.94061279296875 121.6329345703125 182.44549560546875 112.88937377929688 194.2156982421875 109.19015502929688 201.950439453125 107.84500122070313 206.322265625 108.1812744140625 207.6673583984375 109.19015502929688 207.6673583984375 110.87161254882813 198.251220703125 121.96922302246094 183.11810302734375 131.04910278320313 170.33905029296875 136.42977905273438 166.30352783203125 137.77493286132813 160.5865478515625 139.79269409179688 159.91400146484375 139.79269409179688 160.9228515625 139.45639038085938 163.949462890625 138.7838134765625 175.3834228515625 135.4208984375 205.649658203125 119.61520385742188 205.649658203125 119.61520385742188 " />
        <polyline stroke="black" stroke-width="3" stroke-linecap="round" fill="transparent" stroke-linejoin="round" points="181.4366455078125 60.091583251953125 181.100341796875 70.85292053222656 180.7640380859375 81.95053100585938 180.7640380859375 94.05703735351563 180.427734375 121.96922302246094 180.427734375 135.75718688964844 179.0826416015625 150.21771240234375 179.0826416015625 150.21771240234375 " />
        <polyline stroke="black" stroke-width="3" stroke-linecap="round" fill="transparent" stroke-linejoin="round" points="147.1348876953125 173.42184448242188 156.551025390625 172.4129638671875 166.63983154296875 171.4040985107422 179.41888427734375 169.38633728027344 204.304443359375 164.00567626953125 213.3843994140625 161.65164184570313 213.3843994140625 161.65164184570313 " />
        <polyline stroke="black" stroke-width="3" stroke-linecap="round" fill="transparent" stroke-linejoin="round" points="198.923828125 149.20884704589844 194.2156982421875 152.57176208496094 189.17132568359375 156.60726928710938 178.746337890625 166.69601440429688 173.701904296875 172.07666015625 163.949462890625 183.17430114746097 154.86962890625 194.94451904296875 145.78973388671875 208.05990600585935 142.76312255859375 213.4405517578125 142.76312255859375 213.4405517578125 " />
        <polyline stroke="black" stroke-width="3" stroke-linecap="round" fill="transparent" stroke-linejoin="round" points="186.48101806640625 189.5638427734375 199.93267822265625 196.9622802734375 215.7384033203125 206.7147216796875 224.48199462890625 212.09539794921875 224.48199462890625 212.09539794921875 " />
        </svg>