<?xml version="1.0" standalone="no"?>
    <svg width="256" height="256" xmlns="http://www.w3.org/2000/svg" version="1.1">
    <polyline stroke="black" stroke-width="3" stroke-linecap="round" fill="transparent" stroke-linejoin="round" points="63.33782958984375 71.41392517089844 71.17718505859375 69.10824584960938 79.01654052734375 66.80255126953125 87.77813720703125 64.03572082519531 105.30136108398438 59.885467529296875 113.60186767578124 57.57978820800781 126.51373291015624 53.89067840576172 134.35308837890625 48.81816101074219 136.65878295898438 46.973602294921875 136.65878295898438 46.973602294921875 " />
        <polyline stroke="black" stroke-width="3" stroke-linecap="round" fill="transparent" stroke-linejoin="round" points="110.3739013671875 41.43995666503906 104.37908935546876 55.27409362792969 95.61749267578124 73.25848388671875 86.39471435546875 91.70399475097656 69.33261108398438 120.2945556640625 57.343017578125 136.89553833007813 57.343017578125 136.89553833007813 " />
        <polyline stroke="black" stroke-width="3" stroke-linecap="round" fill="transparent" stroke-linejoin="round" points="75.78857421875 100.4656219482422 83.166748046875 102.31016540527344 99.30661010742188 105.53814697265624 112.67962646484376 109.22723388671876 122.36349487304688 112.45523071289063 122.36349487304688 112.45523071289063 " />
        <polyline stroke="black" stroke-width="3" stroke-linecap="round" fill="transparent" stroke-linejoin="round" points="94.6951904296875 162.25811767578125 91.006103515625 167.79177856445313 86.85589599609375 174.24771118164063 78.55538940429688 184.8538818359375 67.488037109375 193.61550903320313 62.41552734375 196.84347534179688 55.037322998046875 201.454833984375 50.8870849609375 203.76055908203125 49.503662109375 204.2216796875 50.8870849609375 204.2216796875 58.7264404296875 203.76055908203125 74.40512084960938 202.8382568359375 92.3895263671875 200.5325927734375 109.45162963867188 196.38232421875 121.44125366210938 190.84869384765625 121.44125366210938 190.84869384765625 " />
        <polyline stroke="black" stroke-width="3" stroke-linecap="round" fill="transparent" stroke-linejoin="round" points="154.1820068359375 78.79212951660156 157.4100341796875 75.56417846679688 164.3270263671875 69.10824584960938 175.85546875 60.80775451660156 181.38916015625 57.11865234375 192.45648193359375 51.584991455078125 204.9072265625 48.357025146484375 209.05743408203125 48.81816101074219 209.979736328125 49.279296875 209.5185546875 54.35182189941406 207.212890625 58.50205993652344 192.9176025390625 71.87506103515625 186.92279052734375 76.4864501953125 176.316650390625 82.48123168945313 169.39959716796875 86.63148498535156 168.01611328125 87.55375671386719 168.01611328125 88.014892578125 168.477294921875 88.014892578125 172.6275634765625 88.93716430664063 180.927978515625 90.32058715820313 184.156005859375 90.32058715820313 184.156005859375 90.32058715820313 " />
        <polyline stroke="black" stroke-width="3" stroke-linecap="round" fill="transparent" stroke-linejoin="round" points="147.72607421875 128.59503173828125 146.80380249023438 129.97845458984375 146.3426513671875 130.90072631835938 145.88153076171875 131.3618621826172 147.26495361328125 130.90072631835938 153.259765625 126.28936767578124 165.24932861328125 118.4499969482422 178.622314453125 111.53292846679688 192.45648193359375 106.46041870117188 197.52899169921875 106.92156982421876 199.37353515625 108.76609802246094 199.37353515625 110.61065673828124 195.6844482421875 118.9111328125 184.61712646484375 129.51731872558594 180.4669189453125 132.7452850341797 171.70526123046875 138.2789306640625 169.8607177734375 138.74009704589844 170.3218994140625 138.74009704589844 172.6275634765625 138.74009704589844 188.767333984375 136.89553833007813 199.37353515625 134.12869262695313 207.212890625 126.75048828125 207.212890625 126.75048828125 " />
        <polyline stroke="black" stroke-width="3" stroke-linecap="round" fill="transparent" stroke-linejoin="round" points="178.16119384765625 41.43995666503906 178.622314453125 52.50726318359375 179.08349609375 64.03572082519531 181.85028076171875 88.014892578125 184.156005859375 108.3049774169922 184.61712646484375 117.52774047851563 184.61712646484375 126.28936767578124 179.54461669921875 144.73486328125 175.85546875 153.49649047851563 175.85546875 153.49649047851563 " />
        <polyline stroke="black" stroke-width="3" stroke-linecap="round" fill="transparent" stroke-linejoin="round" points="151.4151611328125 186.2373046875 160.637939453125 183.93161010742188 169.8607177734375 181.62591552734375 179.08349609375 179.32022094726563 187.38397216796875 177.0145263671875 194.76214599609375 175.16998291015625 206.2906494140625 171.4808807373047 212.74652099609375 167.79177856445313 215.05224609375 165.486083984375 215.05224609375 163.18038940429688 212.285400390625 161.33584594726563 204.9072265625 159.95242309570313 192.9176025390625 161.33584594726563 179.08349609375 169.63632202148438 162.943603515625 186.2373046875 148.18719482421875 206.06622314453125 142.653564453125 213.90557861328125 132.96966552734375 226.81744384765625 130.20281982421875 230.04541015625 130.20281982421875 230.04541015625 " />
        <polyline stroke="black" stroke-width="3" stroke-linecap="round" fill="transparent" stroke-linejoin="round" points="201.67919921875 189.46527099609375 208.5963134765625 191.309814453125 216.4356689453125 194.07666015625 223.8138427734375 197.7657470703125 243.642822265625 211.13873291015625 243.642822265625 211.13873291015625 " />
        </svg>