<?xml version="1.0" standalone="no"?>
    <svg width="256" height="256" xmlns="http://www.w3.org/2000/svg" version="1.1">
    <polyline stroke="black" stroke-width="3" stroke-linecap="round" fill="transparent" stroke-linejoin="round" points="142.02114868164063 57.04060363769531 133.79248046875 64.89524841308594 125.56381225585938 72.74989318847656 107.61032104492188 89.955322265625 91.5269775390625 107.16070556640624 79.93206787109375 119.50372314453124 73.57354736328125 126.98434448242188 70.955322265625 129.97659301757813 70.955322265625 129.97659301757813 " />
        <polyline stroke="black" stroke-width="3" stroke-linecap="round" fill="transparent" stroke-linejoin="round" points="167.4552001953125 109.03086853027344 160.72265625 121.37388610839844 153.9901123046875 133.71690368652344 145.76144409179688 146.80796813964844 135.66259765625 160.6470947265625 112.09869384765624 190.569580078125 102.37387084960938 201.41644287109375 83.29833984375 218.24786376953125 79.1839599609375 220.86605834960935 76.19174194335938 222.3621826171875 76.19174194335938 222.3621826171875 " />
        <polyline stroke="black" stroke-width="3" stroke-linecap="round" fill="transparent" stroke-linejoin="round" points="86.29055786132815 150.92230224609375 93.77117919921876 153.16648864746094 101.25180053710938 155.41067504882813 109.48046875 158.40292358398438 117.70916748046876 162.5172576904297 145.01339721679688 177.47848510742188 162.21881103515625 190.569580078125 171.569580078125 199.5462951660156 171.569580078125 199.5462951660156 " />
        </svg>