<?xml version="1.0" standalone="no"?>
    <svg width="256" height="256" xmlns="http://www.w3.org/2000/svg" version="1.1">
    <polyline stroke="black" stroke-width="3" stroke-linecap="round" fill="transparent" stroke-linejoin="round" points="77.53509521484375 65.80696105957031 84.60211181640625 62.71514892578125 91.2274169921875 59.623321533203125 103.5947265625 54.32305145263672 114.19525146484376 49.46446990966797 120.820556640625 45.93096160888672 124.35409545898438 43.72251892089844 125.67916870117188 42.39744567871094 125.23748779296876 41.95576477050781 123.470703125 42.839134216308594 116.84539794921876 47.697715759277344 104.47811889648438 60.06500244140625 87.252197265625 80.38270568847656 70.0263671875 108.2091064453125 58.10076904296875 135.1521453857422 52.35882568359375 150.6112518310547 50.592041015625 157.236572265625 50.592041015625 158.11996459960938 55.00897216796875 152.81968688964844 55.00897216796875 152.81968688964844 " />
        <polyline stroke="black" stroke-width="3" stroke-linecap="round" fill="transparent" stroke-linejoin="round" points="101.38629150390624 109.9758758544922 89.90234375 128.08511352539063 63.84271240234375 162.53684997558594 54.567230224609375 173.13739013671875 51.917083740234375 176.22921752929688 49.2669677734375 180.20440673828125 53.68389892578125 178.87933349609375 67.376220703125 169.16217041015625 86.810546875 152.37802124023438 105.36151123046876 134.71044921875 124.7957763671875 113.06768798828124 136.72137451171875 98.05027770996094 136.72137451171875 98.05027770996094 " />
        <polyline stroke="black" stroke-width="3" stroke-linecap="round" fill="transparent" stroke-linejoin="round" points="145.11346435546875 52.11460876464844 145.55517578125 57.41487121582031 146.43856811523438 61.831756591796875 147.32196044921875 65.80696105957031 149.9720458984375 72.43229675292969 153.06390380859375 76.40750122070313 160.13092041015625 77.73257446289063 166.3145751953125 75.9658203125 166.3145751953125 75.9658203125 " />
        <polyline stroke="black" stroke-width="3" stroke-linecap="round" fill="transparent" stroke-linejoin="round" points="176.91510009765625 87.44972229003906 145.996826171875 137.36058044433594 130.53778076171875 162.09515380859375 101.38629150390624 205.8223876953125 93.43588256835938 215.09783935546875 91.66912841796876 216.42291259765625 91.66912841796876 216.42291259765625 " />
        <polyline stroke="black" stroke-width="3" stroke-linecap="round" fill="transparent" stroke-linejoin="round" points="150.85543823242188 89.65817260742188 157.0390625 86.12466430664063 163.6644287109375 83.0328369140625 185.7489013671875 77.73257446289063 191.93255615234375 78.61593627929688 202.9747314453125 84.35791015625 213.5753173828125 99.8170166015625 221.083984375 128.52682495117188 220.20062255859375 156.79489135742188 214.45867919921875 177.55429077148438 206.949951171875 191.68832397460935 197.67449951171875 200.5220947265625 182.21533203125 205.8223876953125 162.781005859375 204.93899536132813 162.781005859375 204.93899536132813 " />
        </svg>