<?xml version="1.0" standalone="no"?>
    <svg width="256" height="256" xmlns="http://www.w3.org/2000/svg" version="1.1">
    <polyline stroke="black" stroke-width="3" stroke-linecap="round" fill="transparent" stroke-linejoin="round" points="60.555389404296875 104.15472412109376 69.31698608398438 99.08219909667967 78.07861328125 94.4708251953125 86.37908935546875 90.32058715820313 94.67962646484376 86.63148498535156 118.19760131835938 75.10302734375 122.34786987304688 72.33621215820313 122.34786987304688 72.33621215820313 " />
        <polyline stroke="black" stroke-width="3" stroke-linecap="round" fill="transparent" stroke-linejoin="round" points="58.24969482421875 132.28414916992188 55.94403076171875 154.87991333007813 55.48284912109375 163.64154052734375 55.021728515625 171.01974487304688 55.48284912109375 181.1647796630859 58.24969482421875 183.93161010742188 61.938812255859375 183.93161010742188 61.938812255859375 183.93161010742188 " />
        <polyline stroke="black" stroke-width="3" stroke-linecap="round" fill="transparent" stroke-linejoin="round" points="113.58627319335938 116.14431762695313 104.36349487304688 135.51211547851563 94.67962646484376 153.9576416015625 84.07342529296875 170.0974578857422 70.2392578125 188.54296875 61.938812255859375 198.22686767578125 59.171966552734375 200.07144165039065 59.171966552734375 199.149169921875 67.93359375 187.6207275390625 84.99569702148438 167.79177856445313 102.98007202148438 147.0405731201172 126.49813842773438 117.06658935546876 126.49813842773438 117.06658935546876 " />
        <polyline stroke="black" stroke-width="3" stroke-linecap="round" fill="transparent" stroke-linejoin="round" points="153.70526123046875 56.196380615234375 153.70526123046875 59.424346923828125 156.01092529296875 68.18595886230469 156.01092529296875 68.18595886230469 " />
        <polyline stroke="black" stroke-width="3" stroke-linecap="round" fill="transparent" stroke-linejoin="round" points="179.52899169921875 58.50205993652344 172.6119384765625 75.56417846679688 165.2337646484375 94.4708251953125 142.17681884765625 151.65194702148438 135.72088623046875 166.40835571289063 130.64837646484375 178.39794921875 126.03695678710938 187.6207275390625 122.34786987304688 194.07666015625 120.04217529296876 198.22686767578125 120.04217529296876 198.22686767578125 " />
        <polyline stroke="black" stroke-width="3" stroke-linecap="round" fill="transparent" stroke-linejoin="round" points="128.80380249023438 119.83341979980467 138.48773193359375 115.68316650390624 157.3944091796875 110.14952087402344 167.0782470703125 108.76609802246094 184.60150146484375 109.68840026855467 191.979736328125 111.99406433105467 203.04705810546875 119.37229919433594 212.73095703125 136.89553833007813 216.4200439453125 159.0301513671875 213.19207763671875 178.85906982421875 204.8916015625 192.23208618164065 192.9019775390625 200.99371337890625 183.67919921875 204.68280029296875 174.45648193359375 207.44964599609375 174.45648193359375 207.44964599609375 " />
        </svg>