<?xml version="1.0" standalone="no"?>
    <svg width="256" height="256" xmlns="http://www.w3.org/2000/svg" version="1.1">
    <polyline stroke="black" stroke-width="3" stroke-linecap="round" fill="transparent" stroke-linejoin="round" points="58 82 57 82 59 81 60 81 70 77 81 73 93 71 103 70 110 70 110 70 " />
        <polyline stroke="black" stroke-width="3" stroke-linecap="round" fill="transparent" stroke-linejoin="round" points="77 77 76 77 76 76 76 80 76 89 74 104 74 118 74 128 74 133 75 134 76 136 77 136 77 136 " />
        <polyline stroke="black" stroke-width="3" stroke-linecap="round" fill="transparent" stroke-linejoin="round" points="101 78 98 87 93 104 90 113 87 123 87 123 " />
        <polyline stroke="black" stroke-width="3" stroke-linecap="round" fill="transparent" stroke-linejoin="round" points="55 160 55 159 65 155 72 151 91 140 111 129 117 125 117 125 " />
        <polyline stroke="black" stroke-width="3" stroke-linecap="round" fill="transparent" stroke-linejoin="round" points="139 78 138 77 138 76 138 77 140 80 143 87 145 91 145 91 " />
        <polyline stroke="black" stroke-width="3" stroke-linecap="round" fill="transparent" stroke-linejoin="round" points="189 51 189 52 187 60 181 77 176 88 163 113 149 139 133 158 122 172 115 177 115 177 " />
        <polyline stroke="black" stroke-width="3" stroke-linecap="round" fill="transparent" stroke-linejoin="round" points="134 110 131 110 133 110 144 107 157 104 168 100 172 99 185 94 191 92 192 92 196 92 197 92 195 92 194 92 195 92 196 92 196 93 196 96 196 104 195 116 193 131 190 147 186 159 186 162 181 175 178 182 178 184 176 192 175 197 175 201 173 204 171 206 170 207 167 205 163 201 159 194 153 182 153 182 " />
        </svg>