<?xml version="1.0" standalone="no"?>
    <svg width="256" height="256" xmlns="http://www.w3.org/2000/svg" version="1.1">
    <polyline stroke="black" stroke-width="3" stroke-linecap="round" fill="transparent" stroke-linejoin="round" points="62.943939208984375 119.17198181152344 81.631103515625 107.27471923828124 90.329833984375 101.26077270507813 101.19699096679688 91.4351806640625 103.80096435546876 85.45838928222656 101.67791748046876 86.06239318847656 " />
        <polyline stroke="black" stroke-width="3" stroke-linecap="round" fill="transparent" stroke-linejoin="round" points="95.5228271484375 67.240234375 92.759765625 85.25668334960938 89.17333984375 104.86380004882813 78.71932983398438 145.4742431640625 72.94540405273438 163.37591552734375 64.13427734375 183.1195068359375 61.49273681640625 188.81515502929688 54.587371826171875 195.6063232421875 55.382537841796875 192.1500244140625 " />
        <polyline stroke="black" stroke-width="3" stroke-linecap="round" fill="transparent" stroke-linejoin="round" points="94.67977905273438 154.9049072265625 99.03387451171876 157.0732879638672 102.3023681640625 159.1206512451172 104.31414794921876 160.631103515625 106.7103271484375 162.239990234375 107.67791748046876 162.9417724609375 108.08651733398438 163.23814392089844 " />
        <polyline stroke="black" stroke-width="3" stroke-linecap="round" fill="transparent" stroke-linejoin="round" points="131.350341796875 110.62663269042967 133.14215087890625 109.41085815429688 142.55575561523438 103.16162109375 163.869140625 95.98681640625 180.647216796875 88.47067260742188 184.9720458984375 85.93411254882813 190.96112060546875 82.17323303222656 191.299072265625 81.98599243164063 " />
        <polyline stroke="black" stroke-width="3" stroke-linecap="round" fill="transparent" stroke-linejoin="round" points="177.40985107421875 62.53376770019531 167.52410888671875 77.3619384765625 157.63800048828125 95.52847290039063 144.71176147460938 133.41448974609375 141.700439453125 147.9943084716797 138.921142578125 167.51904296875 138.353271484375 172.59600830078125 138.31405639648438 172.78472900390625 138.55877685546875 171.12393188476563 " />
        <polyline stroke="black" stroke-width="3" stroke-linecap="round" fill="transparent" stroke-linejoin="round" points="197.0140380859375 148.67919921875 201.02764892578125 153.7139129638672 207.37396240234375 165.08140563964844 207.4808349609375 165.61328125 " />
        <polyline stroke="black" stroke-width="3" stroke-linecap="round" fill="transparent" stroke-linejoin="round" points="66.17584228515625 209.7279052734375 96.663330078125 203.14840698242188 108.60986328125 201.3643493652344 157.1397705078125 197.71072387695313 182.69720458984375 195.76565551757813 205.5726318359375 192.8099365234375 215.30242919921875 191.38330078125 229.6138916015625 190.66351318359375 234.1610107421875 192.87716674804688 234.287353515625 193.01751708984375 " />
        </svg>