<?xml version="1.0" standalone="no"?>
    <svg width="256" height="256" xmlns="http://www.w3.org/2000/svg" version="1.1">
    <polyline stroke="black" stroke-width="3" stroke-linecap="round" fill="transparent" stroke-linejoin="round" points="58.836029052734375 84.19085693359375 73.705810546875 80.88645935058594 82.3798828125 79.2342529296875 105.51068115234376 74.27764892578125 119.14132690429688 70.56021118164063 124.510986328125 68.90800476074219 131.11981201171875 66.01666259765625 134.83724975585938 60.647003173828125 134.01116943359375 55.27734375 131.5328369140625 50.733787536621094 129.05453491210938 48.66854095458984 125.33709716796876 48.66854095458984 118.728271484375 53.625144958496094 102.61932373046876 82.95172119140625 94.7713623046875 101.53898620605467 80.31463623046875 137.06130981445313 74.53192138671875 148.62669372558594 72.46664428710938 152.3441619873047 69.57528686523438 154.40940856933594 68.74920654296875 151.10501098632813 69.57528686523438 147.80059814453125 72.87973022460938 145.3223114013672 81.55377197265625 146.14840698242188 96.010498046875 152.3441619873047 104.6845703125 156.8876953125 129.880615234375 169.6922607421875 142.6851806640625 174.64886474609375 149.70703125 175.88803100585938 151.3592529296875 174.64886474609375 151.3592529296875 174.64886474609375 " />
        <polyline stroke="black" stroke-width="3" stroke-linecap="round" fill="transparent" stroke-linejoin="round" points="147.228759765625 126.32199096679688 153.83758544921875 123.017578125 160.859375 119.71319580078124 176.14227294921875 112.27828979492188 182.7510986328125 108.5608367919922 194.3165283203125 99.47372436523438 198.86004638671875 93.6910400390625 204.64276123046875 77.9951171875 202.5775146484375 65.1905517578125 200.09918212890625 59.820892333984375 197.620849609375 58.581756591796875 193.4903564453125 61.06005859375 184.81634521484375 73.03851318359375 174.0770263671875 94.93017578125 162.09857177734375 128.80029296875 158.794189453125 137.88739013671875 153.011474609375 151.93109130859375 147.228759765625 162.67041015625 146.815673828125 163.08346557617188 147.228759765625 162.67041015625 153.83758544921875 158.12686157226563 168.2943115234375 151.10501098632813 182.7510986328125 146.14840698242188 195.142578125 143.67010498046875 203.403564453125 143.25706481933594 206.294921875 144.4962158203125 206.294921875 144.4962158203125 " />
        <polyline stroke="black" stroke-width="3" stroke-linecap="round" fill="transparent" stroke-linejoin="round" points="87.74951171875 200.25799560546875 97.66268920898438 199.01885986328125 131.5328369140625 196.54052734375 142.27215576171875 196.12750244140625 161.685546875 195.3013916015625 177.79443359375 195.3013916015625 190.18597412109375 196.54052734375 204.64276123046875 201.49713134765625 204.64276123046875 201.49713134765625 " />
        </svg>