<?xml version="1.0" standalone="no"?>
    <svg width="256" height="256" xmlns="http://www.w3.org/2000/svg" version="1.1">
    <polyline stroke="black" stroke-width="3" stroke-linecap="round" fill="transparent" stroke-linejoin="round" points="66 111 75 107 93 103 108 101 116 99 116 99 " />
        <polyline stroke="black" stroke-width="3" stroke-linecap="round" fill="transparent" stroke-linejoin="round" points="81 70 81 79 81 87 76 108 68 133 61 156 59 175 56 183 56 183 " />
        <polyline stroke="black" stroke-width="3" stroke-linecap="round" fill="transparent" stroke-linejoin="round" points="69 133 77 133 89 135 103 139 116 142 116 142 " />
        <polyline stroke="black" stroke-width="3" stroke-linecap="round" fill="transparent" stroke-linejoin="round" points="122 110 131 110 144 110 158 108 171 105 175 104 175 104 " />
        <polyline stroke="black" stroke-width="3" stroke-linecap="round" fill="transparent" stroke-linejoin="round" points="164 67 164 73 157 93 148 121 140 147 133 166 130 175 130 175 " />
        <polyline stroke="black" stroke-width="3" stroke-linecap="round" fill="transparent" stroke-linejoin="round" points="164 146 172 147 183 151 195 157 199 160 199 160 " />
        <polyline stroke="black" stroke-width="3" stroke-linecap="round" fill="transparent" stroke-linejoin="round" points="66 208 60 208 64 208 69 208 76 208 86 208 112 208 138 208 168 208 191 208 203 211 203 211 " />
        </svg>