<?xml version="1.0" standalone="no"?>
    <svg width="256" height="256" xmlns="http://www.w3.org/2000/svg" version="1.1">
    <polyline stroke="black" stroke-width="3" stroke-linecap="round" fill="transparent" stroke-linejoin="round" points="98.32144165039063 69.86607360839844 84.93853759765625 100.5352020263672 74.9013671875 118.37905883789063 65.42181396484375 132.877197265625 57.615142822265625 142.91436767578125 53.7117919921875 147.93295288085938 52.5965576171875 147.93295288085938 54.8270263671875 144.02960205078125 59.28802490234375 138.45339965820313 64.86419677734375 133.434814453125 70.998046875 129.53146362304688 81.59283447265625 125.0705108642578 94.9757080078125 120.05192565917967 108.91622924804688 114.47572326660156 124.52960205078124 107.78427124023438 140.70059204101563 101.0928192138672 153.52587890625 94.40138244628906 161.89013671875 89.94041442871094 167.46636962890625 84.36421203613281 167.46636962890625 84.36421203613281 " />
        <polyline stroke="black" stroke-width="3" stroke-linecap="round" fill="transparent" stroke-linejoin="round" points="135.6820068359375 68.75083923339844 127.87530517578124 88.26756286621094 116.722900390625 116.14857482910156 107.24334716796876 139.01101684570313 99.43667602539063 159.08535766601563 92.1876220703125 175.25634765625 84.38092041015625 190.3121032714844 78.80471801757813 199.23403930664065 74.9013671875 205.92547607421875 74.9013671875 205.92547607421875 " />
        <polyline stroke="black" stroke-width="3" stroke-linecap="round" fill="transparent" stroke-linejoin="round" points="121.18389892578124 161.8734588623047 130.66342163085938 166.8920440673828 141.81585693359375 175.25634765625 154.64111328125 184.73590087890625 165.23590087890625 194.2154541015625 173.0426025390625 203.13735961914065 183.6373291015625 219.86599731445313 183.6373291015625 219.86599731445313 " />
        </svg>