<?xml version="1.0" standalone="no"?>
    <svg width="256" height="256" xmlns="http://www.w3.org/2000/svg" version="1.1">
    <polyline stroke="black" stroke-width="3" stroke-linecap="round" fill="transparent" stroke-linejoin="round" points="112.83319091796876 72.87362670898438 108.46136474609376 83.29867553710938 98.37261962890624 111.21086120605467 88.95648193359375 134.7512664794922 81.55804443359375 151.22955322265625 75.841064453125 162.32717895507813 71.46929931640625 170.06187438964844 71.46929931640625 170.06187438964844 " />
        <polyline stroke="black" stroke-width="3" stroke-linecap="round" fill="transparent" stroke-linejoin="round" points="117.87753295898438 115.9189453125 132.00180053710938 111.54714965820313 146.12603759765625 106.83908081054688 161.595458984375 98.76806640625 171.6842041015625 89.015625 176.0560302734375 81.9534912109375 176.0560302734375 81.9534912109375 " />
        <polyline stroke="black" stroke-width="3" stroke-linecap="round" fill="transparent" stroke-linejoin="round" points="157.896240234375 85.98899841308594 153.8607177734375 105.493896484375 145.45346069335938 142.822265625 141.08163452148438 160.30943298339844 132.33807373046875 185.8675842285156 122.921875 207.053955078125 114.85092163085938 221.17822265625 106.10736083984376 235.30242919921875 102.744384765625 240.01055908203125 102.744384765625 240.01055908203125 " />
        <polyline stroke="black" stroke-width="3" stroke-linecap="round" fill="transparent" stroke-linejoin="round" points="143.77197265625 172.41592407226563 162.94061279296875 186.87646484375 187.826171875 209.40802001953125 197.57861328125 218.15158081054688 197.57861328125 218.15158081054688 " />
        </svg>