<?xml version="1.0" standalone="no"?>
    <svg width="256" height="256" xmlns="http://www.w3.org/2000/svg" version="1.1">
    <polyline stroke="black" stroke-width="3" stroke-linecap="round" fill="transparent" stroke-linejoin="round" points="75.8326416015625 86.25106811523438 73.72225952148438 101.0161590576172 65.89837646484375 132.17364501953125 59.80181884765625 146.4241943359375 53.614990234375 157.02236938476563 52.996307373046875 158.0821990966797 " />
        <polyline stroke="black" stroke-width="3" stroke-linecap="round" fill="transparent" stroke-linejoin="round" points="105.77145385742188 107.45742797851563 119.04013061523438 104.03611755371094 148.8922119140625 95.037109375 169.49212646484375 88.68258666992188 173.39019775390625 87.66067504882813 176.79168701171875 86.69793701171875 176.8140869140625 86.69160461425781 176.82122802734375 86.6895751953125 " />
        <polyline stroke="black" stroke-width="3" stroke-linecap="round" fill="transparent" stroke-linejoin="round" points="122.4849853515625 46.53483581542969 120.23287963867188 67.22929382324219 116.561767578125 95.91712951660156 111.35519409179688 123.57164001464844 97.18490600585938 166.41311645507813 80.41326904296875 204.392578125 70.22177124023438 225.05047607421875 59.84246826171875 245.2091064453125 58.804534912109375 247.2249755859375 " />
        <polyline stroke="black" stroke-width="3" stroke-linecap="round" fill="transparent" stroke-linejoin="round" points="149.52816772460938 168.55516052246094 160.5771484375 187.88491821289065 178.5576171875 222.2310485839844 184.05712890625 233.40716552734375 196.94091796875 245.37893676757813 197.99017333984375 246.06591796875 " />
        </svg>