<?xml version="1.0" standalone="no"?>
    <svg width="256" height="256" xmlns="http://www.w3.org/2000/svg" version="1.1">
    <polyline stroke="black" stroke-width="3" stroke-linecap="round" fill="transparent" stroke-linejoin="round" points="114 55 116 55 118 57 118 63 116 73 112 85 108 99 104 112 99 125 95 135 89 149 85 156 83 161 81 165 79 166 79 166 " />
        <polyline stroke="black" stroke-width="3" stroke-linecap="round" fill="transparent" stroke-linejoin="round" points="100 117 106 113 113 109 121 105 129 103 136 100 144 98 154 94 161 92 167 90 172 87 178 82 180 80 183 77 " />
        <polyline stroke="black" stroke-width="3" stroke-linecap="round" fill="transparent" stroke-linejoin="round" points="157 47 153 55 149 67 144 81 138 97 132 113 126 129 121 144 117 158 111 175 108 184 105 192 102 198 100 202 99 203 " />
        <polyline stroke="black" stroke-width="3" stroke-linecap="round" fill="transparent" stroke-linejoin="round" points="115 171 121 169 132 169 139 170 147 171 154 173 161 176 168 179 175 184 182 189 186 192 " />
        </svg>