<?xml version="1.0" standalone="no"?>
    <svg width="256" height="256" xmlns="http://www.w3.org/2000/svg" version="1.1">
    <polyline stroke="black" stroke-width="3" stroke-linecap="round" fill="transparent" stroke-linejoin="round" points="92.10498046875 70.50234985351563 89.213623046875 81.24165344238281 80.53964233398438 106.024658203125 71.86557006835938 127.50328063964844 68.56112670898438 135.3512420654297 63.191497802734375 146.9166259765625 58.64794921875 153.11239624023438 55.343505859375 156.00375366210938 54.1043701171875 156.4167938232422 52.865234375 156.4167938232422 52.4521484375 155.5906982421875 56.99578857421875 149.8079833984375 68.97421264648438 140.30783081054688 86.7353515625 129.15548706054688 105.73568725585938 119.24229431152344 124.32293701171876 111.39431762695313 139.60580444335938 104.78550720214844 152.41033935546875 98.58975219726563 160.25830078125 92.39401245117188 163.149658203125 89.089599609375 163.149658203125 89.089599609375 " />
        <polyline stroke="black" stroke-width="3" stroke-linecap="round" fill="transparent" stroke-linejoin="round" points="134.23614501953125 87.43740844726563 129.279541015625 102.30722045898438 113.17059326171876 148.56883239746094 100.36602783203124 180.3737030029297 95.82244873046876 191.52606201171875 85.4962158203125 210.11334228515625 80.95263671875 214.65689086914065 80.95263671875 214.65689086914065 " />
        <polyline stroke="black" stroke-width="3" stroke-linecap="round" fill="transparent" stroke-linejoin="round" points="130.93173217773438 185.330322265625 136.30136108398438 189.04779052734375 142.49716186523438 193.17828369140625 161.4974365234375 207.22198486328125 174.715087890625 219.200439453125 174.715087890625 219.200439453125 " />
        </svg>