<?xml version="1.0" standalone="no"?>
    <svg width="256" height="256" xmlns="http://www.w3.org/2000/svg" version="1.1">
    <polyline stroke="black" stroke-width="3" stroke-linecap="round" fill="transparent" stroke-linejoin="round" points="97.4697265625 91.36418151855467 91.11990356445313 109.83644104003906 85.05865478515625 125.42242431640624 77.26568603515625 139.5652618408203 71.78173828125 145.3378448486328 64.56597900390625 146.781005859375 64.56597900390625 146.781005859375 " />
        <polyline stroke="black" stroke-width="3" stroke-linecap="round" fill="transparent" stroke-linejoin="round" points="132.68252563476563 89.92103576660156 147.69122314453125 84.43707275390625 158.0819091796875 80.68489074707031 164.14306640625 77.50996398925781 170.49298095703125 73.75778198242188 174.82232666015625 66.8306884765625 175.97686767578125 62.501251220703125 175.97686767578125 62.501251220703125 " />
        <polyline stroke="black" stroke-width="3" stroke-linecap="round" fill="transparent" stroke-linejoin="round" points="135.56878662109375 73.75778198242188 129.79620361328125 98.57991027832033 123.44638061523438 121.09298706054688 114.7874755859375 141.58566284179688 105.55136108398438 158.326171875 95.73794555664063 171.31448364257813 83.61550903320313 186.90045166015625 74.66799926757813 196.42526245117188 74.66799926757813 196.42526245117188 " />
        <polyline stroke="black" stroke-width="3" stroke-linecap="round" fill="transparent" stroke-linejoin="round" points="153.46380615234375 128.02008056640625 166.1634521484375 147.93551635742188 178.86322021484375 164.0987548828125 193.00604248046875 178.2415771484375 208.880615234375 190.9412841796875 222.44622802734375 201.9091796875 230.23919677734375 205.94998168945313 230.23919677734375 205.94998168945313 " />
        </svg>