<?xml version="1.0" standalone="no"?>
    <svg width="256" height="256" xmlns="http://www.w3.org/2000/svg" version="1.1">
    <polyline stroke="black" stroke-width="3" stroke-linecap="round" fill="transparent" stroke-linejoin="round" points="132.5203857421875 55.140960693359375 132.5203857421875 69.21823120117188 132.5203857421875 75.84281921386719 132.5203857421875 82.05337524414063 132.5203857421875 96.544677734375 133.34848022460938 112.69212341308594 133.76254272460938 128.01150512695313 133.76254272460938 142.08877563476563 133.76254272460938 148.29931640625 132.93441772460938 159.4783172607422 129.62216186523438 174.3836669921875 128.38006591796875 178.1099853515625 125.48178100585938 185.14862060546875 122.99755859375 190.5311279296875 120.51336669921876 194.2574462890625 118.857177734375 196.32763671875 115.130859375 196.74166870117188 104.36590576171876 192.187255859375 89.46054077148438 183.90652465820313 75.79733276367188 177.28192138671875 69.17269897460938 175.21173095703125 69.17269897460938 175.21173095703125 " />
        <polyline stroke="black" stroke-width="3" stroke-linecap="round" fill="transparent" stroke-linejoin="round" points="145.35556030273438 87.43585205078125 126.723876953125 95.30256652832033 113.88873291015624 100.68505859375 100.63958740234376 106.4815673828125 87.80438232421875 112.27810668945313 61.720062255859375 123.04306030273438 41.0181884765625 131.7378387451172 21.972503662109375 143.33090209960938 13.277679443359377 149.95547485351563 13.277679443359377 149.95547485351563 " />
        </svg>