<?xml version="1.0" standalone="no"?>
    <svg width="256" height="256" xmlns="http://www.w3.org/2000/svg" version="1.1">
    <polyline stroke="black" stroke-width="3" stroke-linecap="round" fill="transparent" stroke-linejoin="round" points="58.312103271484375 67.14840698242188 77.60018920898438 62.89018249511719 96.88827514648438 58.6319580078125 108.28549194335938 56.64927673339844 117.60369873046876 55.12932586669922 143.89105224609375 51.99908447265625 151.19769287109375 50.862335205078125 167.2593994140625 50.78301239013672 167.770263671875 50.808250427246094 167.8214111328125 50.81078338623047 167.82666015625 50.81105041503906 167.826904296875 50.811065673828125 160.98565673828125 64.14030456542969 146.92269897460938 82.70399475097656 142.40142822265625 90.04212951660156 129.7305908203125 104.54638671875 128.443359375 104.19808959960938 " />
        <polyline stroke="black" stroke-width="3" stroke-linecap="round" fill="transparent" stroke-linejoin="round" points="113.57241821289063 101.32254028320311 128.06317138671875 105.22404479980467 142.55392456054688 109.12554931640624 147.451171875 110.75222778320313 157.3173828125 112.84976196289063 157.3935546875 112.86575317382813 " />
        <polyline stroke="black" stroke-width="3" stroke-linecap="round" fill="transparent" stroke-linejoin="round" points="57.33538818359375 163.067138671875 66.677490234375 160.62863159179688 76.01959228515625 158.19012451171875 96.57586669921876 151.53158569335938 106.4072265625 148.2840576171875 117.767822265625 145.43675231933594 118.18624877929688 144.9879608154297 118.22808837890624 144.94305419921875 " />
        <polyline stroke="black" stroke-width="3" stroke-linecap="round" fill="transparent" stroke-linejoin="round" points="92.666015625 139.4744110107422 91.27902221679688 150.08091735839844 89.89202880859375 160.6874237060547 83.94638061523438 184.4857177734375 79.55429077148438 194.73956298828125 69.4444580078125 212.93548583984375 66.17633056640625 216.9410400390625 60.54052734375 222.22561645507813 60.29644775390625 222.4175720214844 " />
        <polyline stroke="black" stroke-width="3" stroke-linecap="round" fill="transparent" stroke-linejoin="round" points="92.88211059570313 194.7779541015625 100.168212890625 199.73675537109375 107.45431518554688 204.695556640625 116.77426147460938 212.447998046875 119.8944091796875 215.1492919921875 119.90985107421876 215.16326904296875 " />
        <polyline stroke="black" stroke-width="3" stroke-linecap="round" fill="transparent" stroke-linejoin="round" points="112.44744873046875 147.24676513671875 134.57403564453125 142.5062713623047 156.70062255859375 137.76577758789063 165.22406005859375 135.5535888671875 173.3184814453125 133.44973754882813 185.4244384765625 130.18881225585938 193.16888427734375 128.34519958496094 193.645263671875 128.1377410888672 193.6644287109375 127.951171875 193.665771484375 127.93814086914063 " />
        <polyline stroke="black" stroke-width="3" stroke-linecap="round" fill="transparent" stroke-linejoin="round" points="172.55908203125 123.67628479003906 165.89862060546875 133.32199096679688 159.2381591796875 142.9676971435547 152.08544921875 154.79757690429688 141.49081420898438 181.5743865966797 138.0543212890625 195.2486572265625 136.05828857421875 203.84149169921875 127.46530151367188 217.28305053710935 126.80502319335938 217.8875732421875 " />
        <polyline stroke="black" stroke-width="3" stroke-linecap="round" fill="transparent" stroke-linejoin="round" points="163.2281494140625 155.20050048828125 172.28338623046875 168.1044921875 181.338623046875 181.00848388671875 187.7650146484375 188.9017333984375 200.960205078125 201.23358154296875 207.729248046875 206.3331298828125 212.380126953125 212.925048828125 212.46331787109375 213.2684326171875 " />
        </svg>