<?xml version="1.0" standalone="no"?>
    <svg width="256" height="256" xmlns="http://www.w3.org/2000/svg" version="1.1">
    <polyline stroke="black" stroke-width="3" stroke-linecap="round" fill="transparent" stroke-linejoin="round" points="30.689544677734375 71.83590698242188 52.226654052734375 66.671630859375 73.76376342773438 61.507354736328125 84.24200439453125 58.396514892578125 105.3946533203125 51.607444763183594 112.32345581054688 49.73128509521485 121.60556030273438 48.373626708984375 126.15206909179688 47.80987548828125 126.50640869140624 47.76594543457031 " />
        <polyline stroke="black" stroke-width="3" stroke-linecap="round" fill="transparent" stroke-linejoin="round" points="66.54876708984375 91.68081665039064 70.96148681640625 104.5127410888672 75.37420654296875 117.34466552734376 76.07431030273438 119.64469909667967 77.164306640625 120.41136169433594 77.421142578125 120.45327758789063 " />
        <polyline stroke="black" stroke-width="3" stroke-linecap="round" fill="transparent" stroke-linejoin="round" points="96.31134033203125 98.5046844482422 90.202392578125 105.7336883544922 84.09344482421875 112.9626922607422 83.23388671875 113.32540893554688 " />
        <polyline stroke="black" stroke-width="3" stroke-linecap="round" fill="transparent" stroke-linejoin="round" points="50.47125244140625 127.8321228027344 67.25390625 117.6130828857422 84.03656005859375 107.39404296875 93.52740478515624 102.56871032714844 110.8602294921875 94.55157470703124 116.54241943359376 91.86404418945313 117.07455444335938 91.61236572265624 " />
        <polyline stroke="black" stroke-width="3" stroke-linecap="round" fill="transparent" stroke-linejoin="round" points="69.15414428710938 144.0135040283203 77.29794311523438 139.8990478515625 85.44174194335938 135.7845916748047 101.06646728515624 127.53985595703124 107.513671875 123.67633056640624 112.4813232421875 121.08709716796876 112.89950561523438 120.869140625 " />
        <polyline stroke="black" stroke-width="3" stroke-linecap="round" fill="transparent" stroke-linejoin="round" points="55.8460693359375 172.61468505859375 59.33856201171875 181.38714599609375 62.8310546875 190.15960693359375 66.524658203125 198.37371826171875 69.16815185546875 205.1015625 69.91522216796875 208.70062255859375 70.20858764648438 209.566162109375 " />
        <polyline stroke="black" stroke-width="3" stroke-linecap="round" fill="transparent" stroke-linejoin="round" points="100.63952636718753 129.78436279296875 95.69085693359376 155.24960327148438 90.7421875 180.71484375 84.741455078125 191.69158935546875 83.1162109375 193.4443359375 " />
        <polyline stroke="black" stroke-width="3" stroke-linecap="round" fill="transparent" stroke-linejoin="round" points="69.65963745117188 200.7176513671875 79.97116088867188 196.893798828125 90.28268432617188 193.0699462890625 110.958740234375 186.1224365234375 119.5771484375 184.00628662109375 130.46942138671875 181.1110687255859 131.55859375 180.82156372070313 " />
        <polyline stroke="black" stroke-width="3" stroke-linecap="round" fill="transparent" stroke-linejoin="round" points="121.67510986328125 70.01083374023438 126.519775390625 76.37347412109375 131.36444091796875 82.73611450195313 136.696044921875 89.48638916015625 140.14205932617188 95.55955505371094 140.415771484375 96.04196166992188 " />
        <polyline stroke="black" stroke-width="3" stroke-linecap="round" fill="transparent" stroke-linejoin="round" points="124.8548583984375 112.43228149414064 130.07077026367188 107.9077606201172 135.28668212890625 103.38323974609376 157.98211669921875 90.76506042480467 171.30938720703125 85.1494140625 185.0220947265625 80.41665649414063 188.76458740234375 80.73164367675781 214.75299072265625 84.88247680664063 224.91033935546875 94.44970703125 226.94140625 105.47341918945313 228.89483642578125 144.12557983398438 227.7210693359375 163.39697265625 211.59136962890625 192.66259765625 200.94281005859375 200.42477416992188 188.0089111328125 208.98870849609375 184.267822265625 211.859130859375 178.10565185546875 214.4297790527344 162.7576904296875 217.43063354492188 151.283447265625 211.7300720214844 147.96347045898438 202.8558349609375 144.765625 186.79937744140625 145.29986572265625 183.2565155029297 " />
        <polyline stroke="black" stroke-width="3" stroke-linecap="round" fill="transparent" stroke-linejoin="round" points="149.72323608398438 45.0953369140625 148.57064819335938 60.78717041015625 147.41806030273438 76.47900390625 143.75811767578125 120.30528259277344 139.17221069335938 163.99009704589844 135.82659912109375 183.7440490722656 132.77694702148438 200.276611328125 132.47201538085938 201.9298095703125 " />
        </svg>