<?xml version="1.0" standalone="no"?>
    <svg width="256" height="256" xmlns="http://www.w3.org/2000/svg" version="1.1">
    <polyline stroke="black" stroke-width="3" stroke-linecap="round" fill="transparent" stroke-linejoin="round" points="40.51434326171875 74.33506774902344 52.5562744140625 71.59825134277344 66.7877197265625 66.6719970703125 90.32427978515624 56.272125244140625 105.650390625 48.06169128417969 120.42916870117188 40.39862823486328 129.18695068359375 34.377647399902344 133.01849365234375 29.998748779296875 130.28167724609375 28.356666564941406 130.28167724609375 28.356666564941406 " />
        <polyline stroke="black" stroke-width="3" stroke-linecap="round" fill="transparent" stroke-linejoin="round" points="68.42977905273438 64.4825439453125 68.97714233398438 75.42977905273438 70.61923217773438 88.56646728515625 73.35604858398438 101.70315551757813 77.18756103515625 113.19775390625 79.37701416015625 120.31346130371094 82.66119384765625 120.31346130371094 82.66119384765625 120.31346130371094 " />
        <polyline stroke="black" stroke-width="3" stroke-linecap="round" fill="transparent" stroke-linejoin="round" points="118.23971557617188 50.25113677978515 107.29248046875 79.80868530273438 93.60842895507813 105.53468322753906 77.18756103515625 125.78707885742188 63.5035400390625 139.4711151123047 53.1036376953125 148.77627563476563 48.177398681640625 153.70252990722656 48.177398681640625 154.79725646972656 54.1983642578125 150.96571350097656 69.52450561523438 138.92376708984375 89.22955322265625 121.95553588867188 107.29248046875 107.17677307128906 121.52386474609376 97.3242645263672 129.73431396484375 95.1348114013672 129.73431396484375 95.1348114013672 " />
        <polyline stroke="black" stroke-width="3" stroke-linecap="round" fill="transparent" stroke-linejoin="round" points="60.2193603515625 172.31283569335938 79.92437744140625 162.4603271484375 95.25051879882813 151.51307678222656 108.38720703125 140.0184783935547 117.14498901367188 132.3554229736328 122.07122802734376 128.5238800048828 122.07122802734376 129.6186065673828 117.14498901367188 135.09222412109375 103.4609375 147.68154907226563 89.77691650390625 160.8182373046875 81.01910400390625 171.21810913085938 74.99810791015625 180.52325439453125 72.26132202148438 186.54425048828125 70.61923217773438 192.56521606445313 70.61923217773438 196.39675903320313 71.71395874023438 197.49148559570313 75.54547119140625 192.01785278320313 75.54547119140625 192.01785278320313 " />
        <polyline stroke="black" stroke-width="3" stroke-linecap="round" fill="transparent" stroke-linejoin="round" points="123.16595458984376 134.54486083984375 121.52386474609376 143.8500213623047 114.408203125 158.6287841796875 95.25051879882813 183.26007080078125 81.01910400390625 197.49148559570313 66.7877197265625 211.175537109375 57.4825439453125 220.48068237304688 52.5562744140625 225.95428466796875 52.5562744140625 228.69110107421875 58.0299072265625 227.59637451171875 71.16659545898438 220.48068237304688 91.96633911132813 204.059814453125 113.3134765625 178.8811798095703 113.3134765625 178.8811798095703 " />
        <polyline stroke="black" stroke-width="3" stroke-linecap="round" fill="transparent" stroke-linejoin="round" points="155.4603271484375 74.33506774902344 156.0076904296875 84.18757629394531 158.1971435546875 95.1348114013672 163.1234130859375 104.43995666503906 168.59698486328125 110.4609375 175.16534423828125 113.19775390625 181.73370361328125 109.91357421875 190.491455078125 94.5874481201172 190.491455078125 94.5874481201172 " />
        <polyline stroke="black" stroke-width="3" stroke-linecap="round" fill="transparent" stroke-linejoin="round" points="188.849365234375 35.47236633300781 183.375732421875 86.37702941894531 172.42852783203125 131.8080596923828 156.5550537109375 171.21810913085938 144.5130615234375 191.47048950195313 134.11322021484375 205.701904296875 123.71331787109376 215.00704956054688 115.50289916992188 217.74386596679688 115.50289916992188 217.74386596679688 " />
        <polyline stroke="black" stroke-width="3" stroke-linecap="round" fill="transparent" stroke-linejoin="round" points="139.03945922851563 136.18695068359375 150.5340576171875 135.09222412109375 164.7655029296875 133.45013427734375 182.828369140625 133.45013427734375 197.059814453125 137.82904052734375 207.459716796875 147.13418579101563 215.670166015625 166.29185485839844 216.217529296875 188.18634033203125 210.743896484375 202.417724609375 200.891357421875 210.080810546875 183.923095703125 214.45968627929688 183.923095703125 214.45968627929688 " />
        </svg>