<?xml version="1.0" standalone="no"?>
    <svg width="256" height="256" xmlns="http://www.w3.org/2000/svg" version="1.1">
    <polyline stroke="black" stroke-width="3" stroke-linecap="round" fill="transparent" stroke-linejoin="round" points="130.33578491210938 60.922637939453125 137.98419189453125 83.95703125 139.34786987304688 96.50067138671876 130.55560302734375 114.4727020263672 118.306640625 123.14547729492188 117.78399658203124 123.5594482421875 " />
        <polyline stroke="black" stroke-width="3" stroke-linecap="round" fill="transparent" stroke-linejoin="round" points="70.29217529296875 121.78668212890624 89.10052490234375 118.02330017089844 98.2366943359375 116.47732543945313 130.10028076171875 113.02072143554688 147.46795654296875 111.52099609375 172.2760009765625 111.22320556640624 184.2032470703125 111.501220703125 192.14349365234375 112.83934020996094 194.8580322265625 113.14566040039063 196.074462890625 113.36859130859376 196.08319091796875 113.37017822265624 " />
        <polyline stroke="black" stroke-width="3" stroke-linecap="round" fill="transparent" stroke-linejoin="round" points="102.20654296875 158.710693359375 118.93844604492188 157.6459197998047 129.260498046875 156.92601013183594 137.43392944335938 156.3121337890625 159.62237548828125 155.26522827148438 164.71844482421875 155.40023803710938 165.279052734375 155.41506958007813 165.2825927734375 155.4151611328125 " />
        <polyline stroke="black" stroke-width="3" stroke-linecap="round" fill="transparent" stroke-linejoin="round" points="74.00640869140625 220.61575317382813 82.16448974609375 219.3927001953125 97.92401123046876 216.5687561035156 106.78744506835938 215.388427734375 144.72869873046875 213.962158203125 173.9576416015625 213.88461303710935 182.373779296875 214.19021606445313 192.580322265625 214.93292236328125 196.283203125 215.93707275390625 200.54412841796875 219.40640258789065 201.15057373046875 223.00030517578125 201.20849609375 223.34390258789065 " />
        </svg>