<?xml version="1.0" standalone="no"?>
    <svg width="256" height="256" xmlns="http://www.w3.org/2000/svg" version="1.1">
    <polyline stroke="black" stroke-width="3" stroke-linecap="round" fill="transparent" stroke-linejoin="round" points="125.64483642578124 61.50177001953125 128.43295288085938 65.40512084960938 128.43295288085938 69.86607360839844 123.97198486328124 77.67276000976563 123.97198486328124 77.67276000976563 " />
        <polyline stroke="black" stroke-width="3" stroke-linecap="round" fill="transparent" stroke-linejoin="round" points="78.80471801757813 102.76568603515624 92.1876220703125 99.9775848388672 107.80099487304688 97.74710083007813 123.97198486328124 96.63186645507813 139.58535766601563 95.51661682128906 152.41064453125 94.95899963378906 158.54443359375 94.95899963378906 160.77490234375 94.95899963378906 158.54443359375 97.74710083007813 158.54443359375 97.74710083007813 " />
        <polyline stroke="black" stroke-width="3" stroke-linecap="round" fill="transparent" stroke-linejoin="round" points="95.5333251953125 136.78053283691406 110.03146362304688 135.10768127441406 128.43295288085938 133.434814453125 142.93109130859375 133.434814453125 152.96826171875 133.992431640625 157.42919921875 137.33815002441406 157.42919921875 137.33815002441406 " />
        <polyline stroke="black" stroke-width="3" stroke-linecap="round" fill="transparent" stroke-linejoin="round" points="58.73040771484375 188.08160400390625 72.11328125 186.40875244140625 92.7452392578125 185.85113525390625 121.18389892578124 186.40875244140625 140.14297485351563 187.52398681640625 157.42919921875 189.1968688964844 170.8121337890625 190.3121032714844 176.9459228515625 190.8697204589844 179.1763916015625 192.5425720214844 179.1763916015625 192.5425720214844 " />
        </svg>