<?xml version="1.0" standalone="no"?>
    <svg width="256" height="256" xmlns="http://www.w3.org/2000/svg" version="1.1">
    <polyline stroke="black" stroke-width="3" stroke-linecap="round" fill="transparent" stroke-linejoin="round" points="128.83270263671875 43.82659912109375 133.25360107421875 47.36329650878906 135.02191162109375 50.45790100097656 136.79025268554688 59.74171447753906 135.02191162109375 68.141357421875 123.96978759765624 89.36148071289063 123.96978759765624 89.36148071289063 " />
        <polyline stroke="black" stroke-width="3" stroke-linecap="round" fill="transparent" stroke-linejoin="round" points="78.43487548828125 108.37120056152344 88.60287475585938 104.8345184326172 99.655029296875 101.29782104492188 123.96978759765624 95.55068969726563 136.34814453125 93.34027099609376 159.77874755859375 89.80357360839844 177.0201416015625 87.15106201171875 185.4197998046875 86.70896911621094 187.63018798828125 86.70896911621094 187.63018798828125 86.70896911621094 " />
        <polyline stroke="black" stroke-width="3" stroke-linecap="round" fill="transparent" stroke-linejoin="round" points="99.212890625 140.20140075683594 107.612548828125 137.99099731445313 115.57012939453124 136.22264099121094 123.96978759765624 134.45428466796875 132.369384765625 133.12803649902344 149.16867065429688 130.9176025390625 160.6629638671875 129.59133911132813 165.08380126953125 129.59133911132813 165.08380126953125 129.59133911132813 " />
        <polyline stroke="black" stroke-width="3" stroke-linecap="round" fill="transparent" stroke-linejoin="round" points="72.687744140625 195.46218872070313 85.066162109375 190.5992431640625 122.201416015625 179.54708862304688 146.958251953125 176.01040649414063 171.27294921875 176.45248413085938 194.261474609375 181.75750732421875 194.261474609375 181.75750732421875 " />
        </svg>