<?xml version="1.0" standalone="no"?>
    <svg width="256" height="256" xmlns="http://www.w3.org/2000/svg" version="1.1">
    <polyline stroke="black" stroke-width="3" stroke-linecap="round" fill="transparent" stroke-linejoin="round" points="111.88705444335938 49.529014587402344 117.22445678710938 51.58187103271485 127.07818603515624 56.09814453125 135.70016479492188 61.024993896484375 138.57415771484375 63.488433837890625 144.3221435546875 71.69984436035156 144.3221435546875 71.69984436035156 " />
        <polyline stroke="black" stroke-width="3" stroke-linecap="round" fill="transparent" stroke-linejoin="round" points="85.61053466796875 115.22036743164063 102.0333251953125 109.0618133544922 112.297607421875 107.00895690917967 134.46844482421875 103.31382751464844 154.58642578125 102.49267578125 170.1881103515625 102.90324401855467 178.81011962890625 104.13494873046876 178.81011962890625 104.13494873046876 " />
        <polyline stroke="black" stroke-width="3" stroke-linecap="round" fill="transparent" stroke-linejoin="round" points="99.15936279296876 148.47662353515625 116.81390380859376 143.9603271484375 150.480712890625 139.85464477539063 171.00927734375 139.44406127929688 183.73699951171875 140.26519775390625 183.73699951171875 140.26519775390625 " />
        <polyline stroke="black" stroke-width="3" stroke-linecap="round" fill="transparent" stroke-linejoin="round" points="70.41937255859375 202.6719970703125 79.451904296875 199.38742065429688 90.12680053710938 196.513427734375 114.76107788085938 191.176025390625 156.22869873046875 189.94427490234375 168.9564208984375 190.76544189453125 200.98095703125 194.87115478515625 217.81439208984375 199.38742065429688 217.81439208984375 199.38742065429688 " />
        </svg>