<?xml version="1.0" standalone="no"?>
    <svg width="256" height="256" xmlns="http://www.w3.org/2000/svg" version="1.1">
    <polyline stroke="black" stroke-width="3" stroke-linecap="round" fill="transparent" stroke-linejoin="round" points="132.05926513671875 52.53633117675781 134.15353393554688 55.46831512451172 136.247802734375 57.98146057128906 139.1798095703125 62.58888244628906 139.1798095703125 70.54714965820313 139.1798095703125 70.54714965820313 " />
        <polyline stroke="black" stroke-width="3" stroke-linecap="round" fill="transparent" stroke-linejoin="round" points="76.77023315429688 104.0556640625 85.98507690429688 101.5425262451172 96.45648193359376 99.44822692871094 107.76559448242188 97.35394287109376 145.04379272460938 94.84080505371094 156.77178955078125 94.42195129394533 176.4580078125 94.42195129394533 193.2122802734375 94.42195129394533 197.8197021484375 94.42195129394533 199.4951171875 94.84080505371094 199.4951171875 94.84080505371094 " />
        <polyline stroke="black" stroke-width="3" stroke-linecap="round" fill="transparent" stroke-linejoin="round" points="119.07470703125 131.2812957763672 125.3575439453125 130.86245727539063 132.47811889648438 130.443603515625 148.3946533203125 130.86245727539063 163.892333984375 132.53787231445313 174.7825927734375 134.63214111328125 177.714599609375 135.8887176513672 177.714599609375 135.8887176513672 " />
        <polyline stroke="black" stroke-width="3" stroke-linecap="round" fill="transparent" stroke-linejoin="round" points="90.17364501953124 188.24575805664065 101.901611328125 184.47607421875 123.68212890625 178.19320678710938 142.11181640625 174.84234619140625 158.44720458984375 174.4235076904297 173.9449462890625 174.4235076904297 180.6466064453125 174.84234619140625 199.4951171875 178.19320678710938 199.4951171875 178.19320678710938 " />
        </svg>