<?xml version="1.0" standalone="no"?>
    <svg width="256" height="256" xmlns="http://www.w3.org/2000/svg" version="1.1">
    <polyline stroke="black" stroke-width="3" stroke-linecap="round" fill="transparent" stroke-linejoin="round" points="96 64 93 63 92 63 92 64 93 65 98 65 108 65 123 62 134 60 137 59 144 58 146 58 151 59 152 60 153 62 150 66 143 71 134 77 125 83 117 88 114 92 114 93 114 94 115 95 115 96 119 98 123 102 129 111 135 126 137 141 137 153 134 164 130 170 128 173 122 178 117 179 113 177 108 171 107 169 107 169 " />
        <polyline stroke="black" stroke-width="3" stroke-linecap="round" fill="transparent" stroke-linejoin="round" points="74 123 73 123 75 125 79 127 81 128 87 131 89 132 95 134 98 135 98 135 " />
        <polyline stroke="black" stroke-width="3" stroke-linecap="round" fill="transparent" stroke-linejoin="round" points="176 104 173 103 171 104 170 108 166 115 157 126 147 136 144 139 141 142 141 142 " />
        <polyline stroke="black" stroke-width="3" stroke-linecap="round" fill="transparent" stroke-linejoin="round" points="53 191 51 190 53 190 54 190 64 189 78 186 83 185 100 181 106 180 130 176 152 173 167 172 177 173 183 175 185 175 186 176 186 179 186 179 " />
        </svg>