<?xml version="1.0" standalone="no"?>
    <svg width="256" height="256" xmlns="http://www.w3.org/2000/svg" version="1.1">
    <polyline stroke="black" stroke-width="3" stroke-linecap="round" fill="transparent" stroke-linejoin="round" points="65 96 65 104 69 107 77 109 87 106 87 106 " />
        <polyline stroke="black" stroke-width="3" stroke-linecap="round" fill="transparent" stroke-linejoin="round" points="110 73 107 80 107 82 100 96 88 117 82 128 82 128 " />
        <polyline stroke="black" stroke-width="3" stroke-linecap="round" fill="transparent" stroke-linejoin="round" points="90 60 94 80 95 103 92 133 85 166 75 196 64 218 56 229 55 230 55 230 " />
        <polyline stroke="black" stroke-width="3" stroke-linecap="round" fill="transparent" stroke-linejoin="round" points="65 138 74 135 84 131 100 125 115 117 126 111 130 110 130 111 130 111 " />
        <polyline stroke="black" stroke-width="3" stroke-linecap="round" fill="transparent" stroke-linejoin="round" points="95 136 96 150 103 160 110 168 119 172 129 173 129 173 " />
        <polyline stroke="black" stroke-width="3" stroke-linecap="round" fill="transparent" stroke-linejoin="round" points="143 106 144 113 148 129 151 151 152 170 155 178 160 175 160 175 " />
        <polyline stroke="black" stroke-width="3" stroke-linecap="round" fill="transparent" stroke-linejoin="round" points="163 99 168 92 173 91 190 90 204 88 215 86 222 85 225 90 224 100 220 125 218 147 217 161 217 176 216 180 215 180 212 176 212 175 212 175 " />
        <polyline stroke="black" stroke-width="3" stroke-linecap="round" fill="transparent" stroke-linejoin="round" points="182 126 185 138 192 144 197 151 199 155 199 155 " />
        <polyline stroke="black" stroke-width="3" stroke-linecap="round" fill="transparent" stroke-linejoin="round" points="157 188 174 180 193 177 211 177 225 176 236 177 240 179 240 179 " />
        </svg>