<?xml version="1.0" standalone="no"?>
    <svg width="256" height="256" xmlns="http://www.w3.org/2000/svg" version="1.1">
    <polyline stroke="black" stroke-width="3" stroke-linecap="round" fill="transparent" stroke-linejoin="round" points="59 75 60 75 62 77 64 80 65 81 68 86 70 90 72 92 73 95 77 97 78 98 82 98 88 98 91 97 " />
        <polyline stroke="black" stroke-width="3" stroke-linecap="round" fill="transparent" stroke-linejoin="round" points="121 76 121 76 121 77 121 77 119 83 118 85 107 97 101 103 93 108 86 112 80 116 77 117 70 120 67 121 66 121 65 122 64 122 65 122 68 120 73 118 79 116 87 113 96 109 106 105 115 101 124 97 128 95 " />
        <polyline stroke="black" stroke-width="3" stroke-linecap="round" fill="transparent" stroke-linejoin="round" points="105 56 104 59 102 62 96 81 93 92 89 104 87 110 81 130 79 136 75 153 74 158 72 169 72 172 71 177 71 178 71 178 " />
        <polyline stroke="black" stroke-width="3" stroke-linecap="round" fill="transparent" stroke-linejoin="round" points="91 137 92 137 96 138 100 141 103 144 105 147 108 151 111 154 115 156 118 157 120 157 123 156 " />
        <polyline stroke="black" stroke-width="3" stroke-linecap="round" fill="transparent" stroke-linejoin="round" points="134 70 134 74 134 78 135 91 135 96 135 118 136 129 136 140 137 149 137 157 137 161 138 166 139 167 139 166 " />
        <polyline stroke="black" stroke-width="3" stroke-linecap="round" fill="transparent" stroke-linejoin="round" points="138 89 140 84 141 83 146 79 148 78 156 74 161 72 167 70 172 68 178 66 181 65 187 65 192 65 198 66 202 69 206 78 207 88 208 100 208 107 207 127 207 139 206 150 206 158 204 163 203 166 202 166 " />
        <polyline stroke="black" stroke-width="3" stroke-linecap="round" fill="transparent" stroke-linejoin="round" points="161 109 161 109 161 107 162 109 164 110 166 112 168 114 170 114 173 117 174 119 177 123 178 125 178 130 178 133 " />
        <polyline stroke="black" stroke-width="3" stroke-linecap="round" fill="transparent" stroke-linejoin="round" points="140 154 140 154 140 152 143 151 146 150 154 149 161 149 169 149 177 151 186 152 195 155 199 156 203 158 " />
        </svg>