<?xml version="1.0" standalone="no"?>
    <svg width="256" height="256" xmlns="http://www.w3.org/2000/svg" version="1.1">
    <polyline stroke="black" stroke-width="3" stroke-linecap="round" fill="transparent" stroke-linejoin="round" points="129.61749267578125 51.34931182861328 112.1253662109375 73.71087646484375 93.66140747070313 94.1279296875 75.19744873046875 114.54502868652344 48.959228515625 137.8788299560547 39.727264404296875 143.7122802734375 33.89654541015625 146.62899780273438 33.89654541015625 146.62899780273438 " />
        <polyline stroke="black" stroke-width="3" stroke-linecap="round" fill="transparent" stroke-linejoin="round" points="124.75857543945313 55.724395751953125 130.58929443359375 58.64112854003906 139.33538818359375 62.53009033203125 164.115966796875 74.68310546875 179.1785888671875 81.48880004882813 206.87451171875 88.78062438964844 218.5360107421875 90.23899841308594 234.57049560546875 90.72511291503906 238.4576416015625 92.18345642089844 238.4576416015625 92.18345642089844 " />
        <polyline stroke="black" stroke-width="3" stroke-linecap="round" fill="transparent" stroke-linejoin="round" points="86.37301635742188 150.5179901123047 89.77426147460938 178.2268829345703 87.34478759765625 199.13006591796875 74.71157836914063 229.75567626953125 66.937255859375 241.42257690429688 56.24761962890625 249.6866149902344 56.24761962890625 249.6866149902344 " />
        <polyline stroke="black" stroke-width="3" stroke-linecap="round" fill="transparent" stroke-linejoin="round" points="93.66140747070313 158.29591369628906 106.29461669921876 152.94859313964844 121.35733032226563 148.573486328125 147.5955810546875 141.2816925048828 154.88397216796875 139.8233184814453 160.7147216796875 139.3372039794922 165.5736083984375 145.17063903808594 166.05950927734375 153.43470764160156 166.05950927734375 175.3101348876953 166.05950927734375 185.5186767578125 168.0030517578125 200.102294921875 172.3760986328125 203.99127197265625 178.6927490234375 205.935791015625 196.1849365234375 204.47738647460935 204.445068359375 201.5606689453125 214.1629638671875 195.2411193847656 216.1065673828125 192.81048583984375 212.2193603515625 184.54641723632813 206.388671875 178.2268829345703 191.8118896484375 161.21263122558594 184.03759765625 153.43470764160156 184.03759765625 153.43470764160156 " />
        <polyline stroke="black" stroke-width="3" stroke-linecap="round" fill="transparent" stroke-linejoin="round" points="88.31658935546875 189.89376831054688 95.60498046875 186.49090576171875 105.32284545898438 183.08807373046875 119.41375732421876 180.17132568359375 131.56109619140625 178.2268829345703 149.53912353515625 176.28237915039063 153.42626953125 175.7962646484375 155.369873046875 176.28237915039063 155.369873046875 176.28237915039063 " />
        <polyline stroke="black" stroke-width="3" stroke-linecap="round" fill="transparent" stroke-linejoin="round" points="112.1253662109375 212.741455078125 117.95608520507813 208.36636352539065 140.79306030273438 197.67169189453125 152.45452880859375 191.83822631835935 171.40435791015625 182.6019287109375 171.40435791015625 182.6019287109375 " />
        <polyline stroke="black" stroke-width="3" stroke-linecap="round" fill="transparent" stroke-linejoin="round" points="137.39181518554688 122.32293701171876 136.90594482421875 135.934326171875 137.39181518554688 154.4069366455078 140.30715942382813 207.88021850585935 142.73663330078125 232.186279296875 144.68020629882813 248.228271484375 145.6519775390625 256.4923095703125 145.6519775390625 256.4923095703125 " />
        </svg>