<?xml version="1.0" standalone="no"?>
    <svg width="256" height="256" xmlns="http://www.w3.org/2000/svg" version="1.1">
    <polyline stroke="black" stroke-width="3" stroke-linecap="round" fill="transparent" stroke-linejoin="round" points="133.201416015625 46.072410583496094 121.70721435546876 60.6612548828125 115.07589721679688 69.06089782714844 108.00250244140624 77.46054077148438 92.52947998046876 93.81771850585938 78.38275146484375 107.52239990234376 68.65682983398438 116.80621337890624 63.79388427734375 121.66915893554688 62.90966796875 122.55332946777344 62.90966796875 122.55332946777344 " />
        <polyline stroke="black" stroke-width="3" stroke-linecap="round" fill="transparent" stroke-linejoin="round" points="126.12802124023438 65.52420043945313 137.62228393554688 62.87168884277344 159.7265625 58.45082092285156 185.36761474609375 57.566650390625 201.72479248046875 58.892913818359375 206.5877685546875 59.77708435058594 213.6611328125 61.54542541503906 213.6611328125 61.54542541503906 " />
        <polyline stroke="black" stroke-width="3" stroke-linecap="round" fill="transparent" stroke-linejoin="round" points="111.5391845703125 102.65945434570313 104.023681640625 116.36412048339844 100.92913818359376 124.76377868652344 96.95037841796876 136.25799560546875 84.12985229492188 172.06700134277344 77.94064331054688 188.86627197265625 75.2880859375 196.3817443847656 74.84603881835938 197.7080078125 75.2880859375 196.3817443847656 78.38275146484375 191.518798828125 82.80355834960938 182.23497009277344 88.55072021484375 170.74072265625 96.50827026367188 159.2465057373047 100.92913818359376 153.94146728515625 116.40216064453124 140.23678588867188 129.66473388671875 132.72134399414063 141.60107421875 129.1846160888672 160.168701171875 134.04759216308594 167.68414306640625 143.33140563964844 171.6629638671875 149.9626922607422 182.715087890625 168.97239685058594 190.672607421875 177.81411743164063 195.9776611328125 182.23497009277344 214.9874267578125 191.518798828125 225.597412109375 192.84506225585935 231.78662109375 190.19253540039065 231.78662109375 190.19253540039065 " />
        <polyline stroke="black" stroke-width="3" stroke-linecap="round" fill="transparent" stroke-linejoin="round" points="119.49676513671876 176.48785400390625 129.66473388671875 169.85655212402344 135.85394287109375 166.3198699951172 149.55859375 159.2465057373047 156.18988037109375 157.0360565185547 165.0316162109375 154.383544921875 167.2420654296875 153.94146728515625 169.01043701171875 153.94146728515625 169.01043701171875 153.94146728515625 " />
        <polyline stroke="black" stroke-width="3" stroke-linecap="round" fill="transparent" stroke-linejoin="round" points="105.79208374023438 192.84506225585935 116.84423828125 184.4454040527344 123.033447265625 180.90872192382813 129.22265625 177.37203979492188 142.04315185546875 169.4144744873047 149.11654663085938 163.6673583984375 149.11654663085938 163.6673583984375 " />
        <polyline stroke="black" stroke-width="3" stroke-linecap="round" fill="transparent" stroke-linejoin="round" points="142.48519897460938 88.07060241699219 139.390625 106.6382293701172 138.50643920898438 119.458740234375 137.62228393554688 135.81591796875 137.18017578125 150.40476989746094 136.2960205078125 176.929931640625 136.73812866210938 201.686767578125 137.18017578125 213.1810302734375 138.50643920898438 224.67526245117188 138.50643920898438 224.67526245117188 " />
        </svg>