<?xml version="1.0" standalone="no"?>
    <svg width="256" height="256" xmlns="http://www.w3.org/2000/svg" version="1.1">
    <polyline stroke="black" stroke-width="3" stroke-linecap="round" fill="transparent" stroke-linejoin="round" points="130 52 118 63 104 79 89 94 77 107 69 114 67 115 67 115 " />
        <polyline stroke="black" stroke-width="3" stroke-linecap="round" fill="transparent" stroke-linejoin="round" points="128 61 151 81 166 92 176 100 179 105 179 105 " />
        <polyline stroke="black" stroke-width="3" stroke-linecap="round" fill="transparent" stroke-linejoin="round" points="93 117 87 127 87 149 87 177 92 203 95 217 96 225 96 225 " />
        <polyline stroke="black" stroke-width="3" stroke-linecap="round" fill="transparent" stroke-linejoin="round" points="83 132 88 128 94 125 112 117 131 113 144 113 151 123 152 145 151 165 150 178 150 189 160 199 174 205 187 207 197 207 200 203 200 203 " />
        <polyline stroke="black" stroke-width="3" stroke-linecap="round" fill="transparent" stroke-linejoin="round" points="98 148 126 145 141 143 149 143 149 143 " />
        <polyline stroke="black" stroke-width="3" stroke-linecap="round" fill="transparent" stroke-linejoin="round" points="90 180 100 180 125 178 143 174 156 169 156 169 " />
        <polyline stroke="black" stroke-width="3" stroke-linecap="round" fill="transparent" stroke-linejoin="round" points="120 96 120 148 121 200 125 236 128 250 128 250 " />
        </svg>