<?xml version="1.0" standalone="no"?>
    <svg width="256" height="256" xmlns="http://www.w3.org/2000/svg" version="1.1">
    <polyline stroke="black" stroke-width="3" stroke-linecap="round" fill="transparent" stroke-linejoin="round" points="71.8402099609375 76.97279357910156 84.9166259765625 70.43460083007813 99.776123046875 63.89640808105469 114.63568115234376 57.35821533203125 126.52328491210938 53.19755554199219 132.46710205078125 50.820030212402344 136.62774658203125 49.63127136230469 137.8165283203125 49.63127136230469 136.03338623046875 52.0087890625 131.2783203125 57.35821533203125 125.92889404296876 65.67955017089844 119.985107421875 78.75593566894531 115.82443237304688 93.61546325683594 112.8525390625 111.4468994140625 111.06939697265624 136.41090393066406 109.2862548828125 160.1861572265625 107.50311279296876 172.66815185546875 105.71994018554688 179.2063446044922 102.748046875 181.58387756347656 98.58737182617188 179.80072021484375 93.83233642578124 173.26254272460938 87.29412841796875 158.40301513671875 78.37841796875 137.59967041015625 74.21774291992188 129.87271118164063 70.65145874023438 124.52328491210938 65.89642333984375 122.74014282226563 61.735748291015625 124.52328491210938 58.169464111328125 128.6839599609375 56.386322021484375 132.84461975097656 56.386322021484375 137.0052947998047 59.35821533203125 139.97718811035156 64.7076416015625 139.97718811035156 72.43460083007813 137.59967041015625 83.13348388671875 131.65585327148438 99.1817626953125 120.36262512207033 99.1817626953125 120.36262512207033 " />
        <polyline stroke="black" stroke-width="3" stroke-linecap="round" fill="transparent" stroke-linejoin="round" points="122.36260986328124 120.95700073242188 122.36260986328124 124.52328491210938 124.145751953125 127.49519348144533 127.7120361328125 130.46710205078125 132.46710205078125 132.250244140625 138.410888671875 132.250244140625 150.89291381835938 126.90080261230467 150.89291381835938 126.90080261230467 " />
        <polyline stroke="black" stroke-width="3" stroke-linecap="round" fill="transparent" stroke-linejoin="round" points="190.1220703125 60.92451477050781 187.7445068359375 75.18965148925781 180.017578125 107.880615234375 169.9130859375 139.3828125 159.80859375 160.78053283691406 152.0816650390625 175.04568481445313 147.32662963867188 181.58387756347656 144.9490966796875 185.150146484375 148.515380859375 182.77264404296875 155.0535888671875 178.61196899414063 168.12994384765625 171.47938537597656 182.989501953125 163.75244140625 197.8489990234375 154.8367156982422 212.70855712890625 145.92100524902344 224.59619140625 137.0052947998047 234.70068359375 126.90080261230467 243.6163330078125 113.82443237304688 243.6163330078125 113.82443237304688 " />
        <polyline stroke="black" stroke-width="3" stroke-linecap="round" fill="transparent" stroke-linejoin="round" points="224.00177001953125 66.27394104003906 220.43548583984375 79.35032653808594 214.49169921875 104.3143310546875 209.1422119140625 135.22213745117188 207.359130859375 159.59176635742188 207.359130859375 178.61196899414063 207.359130859375 197.03778076171875 206.7647705078125 217.24673461914065 206.7647705078125 217.24673461914065 " />
        </svg>