<?xml version="1.0" standalone="no"?>
    <svg width="256" height="256" xmlns="http://www.w3.org/2000/svg" version="1.1">
    <polyline stroke="black" stroke-width="3" stroke-linecap="round" fill="transparent" stroke-linejoin="round" points="98.52679443359376 64.65301513671875 103.102294921875 86.22325134277344 103.102294921875 88.18418884277344 105.71685791015624 97.33518981933594 108.33148193359376 92.75968933105467 108.33148193359376 90.79875183105467 108.33148193359376 90.79875183105467 " />
        <polyline stroke="black" stroke-width="3" stroke-linecap="round" fill="transparent" stroke-linejoin="round" points="104.40960693359376 71.84309387207031 122.71160888671876 61.38481140136719 124.67254638671876 60.73118591308594 144.93548583984375 56.809295654296875 146.89642333984375 56.809295654296875 153.43280029296875 58.1165771484375 157.35467529296875 62.03843688964844 156.04742431640625 69.22853088378906 150.16461181640625 84.91595458984375 137.745361328125 103.8716278076172 137.745361328125 103.8716278076172 " />
        <polyline stroke="black" stroke-width="3" stroke-linecap="round" fill="transparent" stroke-linejoin="round" points="68.459228515625 111.71533203125 88.72210693359375 104.52525329589844 91.9903564453125 103.8716278076172 132.51629638671875 96.68156433105467 179.57855224609375 94.06697082519533 184.8077392578125 94.06697082519533 203.76336669921875 94.06697082519533 215.5289306640625 94.06697082519533 219.4508056640625 96.02789306640624 219.4508056640625 96.02789306640624 " />
        <polyline stroke="black" stroke-width="3" stroke-linecap="round" fill="transparent" stroke-linejoin="round" points="80.87841796875 140.4756317138672 89.37579345703125 163.35317993164063 90.68304443359376 164.6604461669922 104.40960693359376 169.2359619140625 108.98504638671876 167.9286651611328 108.98504638671876 167.9286651611328 " />
        <polyline stroke="black" stroke-width="3" stroke-linecap="round" fill="transparent" stroke-linejoin="round" points="112.2532958984375 143.74388122558594 133.16986083984375 154.85581970214844 135.78448486328125 154.85581970214844 141.01361083984375 153.5485076904297 141.01361083984375 153.5485076904297 " />
        <polyline stroke="black" stroke-width="3" stroke-linecap="round" fill="transparent" stroke-linejoin="round" points="163.23748779296875 125.4418487548828 154.08648681640625 140.4756317138672 151.47186279296875 144.3975067138672 128.59442138671875 167.2750244140625 124.0189208984375 169.8896026611328 110.946044921875 178.38699340820313 110.946044921875 178.38699340820313 " />
        <polyline stroke="black" stroke-width="3" stroke-linecap="round" fill="transparent" stroke-linejoin="round" points="75.6492919921875 188.84527587890625 114.21429443359376 188.84527587890625 119.443359375 188.84527587890625 165.19842529296875 188.84527587890625 172.38848876953125 188.84527587890625 206.3779296875 196.03533935546875 206.3779296875 196.03533935546875 " />
        </svg>