<?xml version="1.0" standalone="no"?>
    <svg width="256" height="256" xmlns="http://www.w3.org/2000/svg" version="1.1">
    <polyline stroke="black" stroke-width="3" stroke-linecap="round" fill="transparent" stroke-linejoin="round" points="30.071075439453125 87.92481994628906 45.705718994140625 82.04557800292969 64.12387084960938 75.5419921875 78.01556396484375 70.62527465820313 87.01654052734375 69.22048950195313 91.10076904296876 68.54412841796875 93.46804809570313 68.4140625 95.08099365234376 69.8448486328125 95.5491943359375 70.67730712890625 95.5491943359375 70.67730712890625 " />
        <polyline stroke="black" stroke-width="3" stroke-linecap="round" fill="transparent" stroke-linejoin="round" points="46.694244384765625 93.04966735839844 46.225982666015625 103.63751220703124 44.58709716796875 117.45111083984376 43.052215576171875 130.77049255371094 42.610015869140625 142.19076538085938 43.0262451171875 149.78695678710938 43.728607177734375 153.61106872558594 45.02935791015625 157.61727905273438 48.30712890625 157.77337646484375 48.30712890625 157.77337646484375 " />
        <polyline stroke="black" stroke-width="3" stroke-linecap="round" fill="transparent" stroke-linejoin="round" points="80.92916870117188 89.04345703125 80.72103881835938 100.437744140625 79.6024169921875 112.3262939453125 77.7293701171875 124.5790557861328 76.61077880859375 135.89529418945313 76.27255249023438 147.02943420410156 76.14251708984375 152.0502166748047 76.14251708984375 152.0502166748047 " />
        <polyline stroke="black" stroke-width="3" stroke-linecap="round" fill="transparent" stroke-linejoin="round" points="61.47039794921875 147.1074981689453 67.58383178710938 145.52064514160156 73.80123901367188 144.7661895751953 79.1341552734375 144.3499755859375 83.29644775390625 143.9857635498047 83.29644775390625 143.9857635498047 " />
        <polyline stroke="black" stroke-width="3" stroke-linecap="round" fill="transparent" stroke-linejoin="round" points="170.0543212890625 60.94793701171875 166.2042236328125 72.03005981445313 160.4810791015625 88.8353271484375 154.36767578125 106.99334716796876 146.97958374023438 127.80482482910156 138.83709716796875 146.769287109375 127.75497436523438 165.13543701171875 116.59481811523438 179.39129638671875 105.25259399414063 190.3953857421875 97.00604248046876 196.0664978027344 94.638671875 196.742919921875 94.638671875 196.742919921875 " />
        <polyline stroke="black" stroke-width="3" stroke-linecap="round" fill="transparent" stroke-linejoin="round" points="145.1845703125 79.02792358398438 152.83282470703125 82.04557800292969 157.77557373046875 86.02577209472656 160.3509521484375 90.734375 160.3509521484375 90.734375 " />
        <polyline stroke="black" stroke-width="3" stroke-linecap="round" fill="transparent" stroke-linejoin="round" points="116.3607177734375 101.84249877929688 122.96832275390624 108.2940673828125 131.5791015625 119.01199340820313 140.76217651367188 131.8890838623047 153.09295654296875 145.72872924804688 169.53399658203125 160.32278442382813 186.0792236328125 170.91062927246094 206.83868408203125 178.01254272460938 231.24017333984375 181.2383270263672 256.08380126953125 182.25289916992188 256.08380126953125 182.25289916992188 " />
        </svg>