<?xml version="1.0" standalone="no"?>
    <svg width="256" height="256" xmlns="http://www.w3.org/2000/svg" version="1.1">
    <polyline stroke="black" stroke-width="3" stroke-linecap="round" fill="transparent" stroke-linejoin="round" points="53 84 53 83 54 83 55 82 57 82 61 81 65 80 70 78 75 77 84 75 91 73 97 72 104 70 111 68 114 67 " />
        <polyline stroke="black" stroke-width="3" stroke-linecap="round" fill="transparent" stroke-linejoin="round" points="80 71 77 77 75 84 73 93 71 106 69 114 68 122 67 128 66 133 65 137 65 140 65 142 65 143 66 144 67 145 70 144 73 143 77 139 81 134 84 128 88 120 90 117 92 113 " />
        <polyline stroke="black" stroke-width="3" stroke-linecap="round" fill="transparent" stroke-linejoin="round" points="97 81 96 80 97 80 97 80 97 82 97 86 97 94 97 100 97 106 97 111 97 116 97 119 98 121 100 122 102 122 " />
        <polyline stroke="black" stroke-width="3" stroke-linecap="round" fill="transparent" stroke-linejoin="round" points="121 65 122 65 123 66 124 68 126 70 128 74 130 77 133 80 135 82 138 84 142 85 147 82 150 80 " />
        <polyline stroke="black" stroke-width="3" stroke-linecap="round" fill="transparent" stroke-linejoin="round" points="173 39 172 44 170 54 165 67 155 92 147 109 139 125 132 140 125 153 118 164 114 173 110 178 109 180 108 181 " />
        <polyline stroke="black" stroke-width="3" stroke-linecap="round" fill="transparent" stroke-linejoin="round" points="109 120 112 117 115 116 119 116 124 118 130 120 140 127 149 133 158 141 168 149 178 157 188 164 197 171 207 178 212 181 " />
        </svg>