<?xml version="1.0" standalone="no"?>
    <svg width="256" height="256" xmlns="http://www.w3.org/2000/svg" version="1.1">
    <polyline stroke="black" stroke-width="3" stroke-linecap="round" fill="transparent" stroke-linejoin="round" points="50.54718017578125 107.58488464355467 86.77362060546875 92.18869018554688 94.924560546875 88.5660400390625 107.603759765625 82.22640991210938 115.75469970703124 77.69810485839844 120.282958984375 74.07546997070313 119.37738037109376 74.07546997070313 116.660400390625 74.98114013671875 116.660400390625 74.98114013671875 " />
        <polyline stroke="black" stroke-width="3" stroke-linecap="round" fill="transparent" stroke-linejoin="round" points="53.26416015625 140.18869018554688 54.16973876953125 181.8490447998047 55.07550048828125 201.7735595703125 55.07550048828125 204.49053955078125 57.79248046875 206.3018798828125 66.84906005859375 201.7735595703125 75.90570068359375 194.5283203125 83.15087890625 186.3773498535156 89.4906005859375 179.13209533691406 93.11322021484376 172.7924346923828 93.11322021484376 172.7924346923828 " />
        <polyline stroke="black" stroke-width="3" stroke-linecap="round" fill="transparent" stroke-linejoin="round" points="93.11322021484376 142.90565490722656 90.396240234375 172.7924346923828 89.4906005859375 177.32077026367188 87.67926025390625 184.5660095214844 87.67926025390625 184.5660095214844 " />
        <polyline stroke="black" stroke-width="3" stroke-linecap="round" fill="transparent" stroke-linejoin="round" points="145.64154052734375 113.92453002929688 146.54718017578125 110.30186462402344 146.54718017578125 110.30186462402344 " />
        <polyline stroke="black" stroke-width="3" stroke-linecap="round" fill="transparent" stroke-linejoin="round" points="190.01885986328125 58.67924499511719 179.15087890625 109.396240234375 167.37738037109375 141.09432983398438 154.6981201171875 167.3584747314453 142.018798828125 187.28298950195313 129.33966064453125 200.867919921875 118.47174072265624 205.396240234375 118.47174072265624 205.396240234375 " />
        <polyline stroke="black" stroke-width="3" stroke-linecap="round" fill="transparent" stroke-linejoin="round" points="143.8302001953125 139.28302001953125 199.07550048828125 172.7924346923828 242.54718017578125 207.20751953125 247.98114013671875 214.45285034179688 256.132080078125 225.32077026367188 256.132080078125 225.32077026367188 " />
        </svg>