<?xml version="1.0" standalone="no"?>
    <svg width="256" height="256" xmlns="http://www.w3.org/2000/svg" version="1.1">
    <polyline stroke="black" stroke-width="3" stroke-linecap="round" fill="transparent" stroke-linejoin="round" points="74.84930419921875 104.95443725585938 77.4638671875 104.30076599121094 100.3414306640625 98.41799926757813 107.53143310546876 97.11068725585938 124.52618408203124 94.49612426757813 133.02362060546875 93.8424835205078 138.90631103515625 95.1497802734375 138.90631103515625 98.41799926757813 138.90631103515625 98.41799926757813 " />
        <polyline stroke="black" stroke-width="3" stroke-linecap="round" fill="transparent" stroke-linejoin="round" points="78.77117919921875 124.56373596191406 78.11749267578125 126.52464294433594 76.15655517578125 146.78758239746094 76.15655517578125 152.0167236328125 77.4638671875 159.86045837402344 78.77117919921875 164.4359588623047 80.73211669921875 166.39688110351563 84.00030517578125 166.39688110351563 89.883056640625 164.4359588623047 97.07318115234376 159.20681762695313 104.26324462890624 153.3240203857422 105.57049560546876 152.0167236328125 105.57049560546876 152.0167236328125 " />
        <polyline stroke="black" stroke-width="3" stroke-linecap="round" fill="transparent" stroke-linejoin="round" points="102.9559326171875 130.44650268554688 102.9559326171875 133.7147216796875 104.26324462890624 149.4021453857422 105.57049560546876 152.0167236328125 111.45330810546876 152.0167236328125 113.41424560546876 151.3630828857422 113.41424560546876 151.3630828857422 " />
        <polyline stroke="black" stroke-width="3" stroke-linecap="round" fill="transparent" stroke-linejoin="round" points="161.13018798828125 108.22264099121094 166.35931396484375 111.49085998535156 170.28118896484375 110.8372039794922 176.817626953125 108.22264099121094 176.817626953125 108.22264099121094 " />
        <polyline stroke="black" stroke-width="3" stroke-linecap="round" fill="transparent" stroke-linejoin="round" points="162.43743896484375 124.56373596191406 132.369873046875 170.97239685058594 125.1798095703125 180.7770233154297 113.41424560546876 195.15719604492188 106.87786865234376 203.00094604492188 107.53143310546876 204.3081970214844 107.53143310546876 204.3081970214844 " />
        <polyline stroke="black" stroke-width="3" stroke-linecap="round" fill="transparent" stroke-linejoin="round" points="147.4036865234375 149.4021453857422 150.01824951171875 153.3240203857422 176.16400146484375 186.00619506835935 180.08587646484375 189.92807006835935 197.08056640625 205.615478515625 210.1534423828125 216.7274169921875 210.1534423828125 216.7274169921875 " />
        </svg>