<?xml version="1.0" standalone="no"?>
    <svg width="256" height="256" xmlns="http://www.w3.org/2000/svg" version="1.1">
    <polyline stroke="black" stroke-width="3" stroke-linecap="round" fill="transparent" stroke-linejoin="round" points="59 105 59 104 59 104 59 104 59 104 59 104 59 104 59 104 59 104 59 104 60 104 61 104 61 104 63 103 64 103 65 103 67 102 69 101 71 101 74 100 77 99 80 99 83 98 87 97 90 96 94 95 97 94 101 93 105 92 108 91 111 90 114 89 117 88 119 87 121 86 123 84 124 83 125 82 126 81 127 80 " />
        <polyline stroke="black" stroke-width="3" stroke-linecap="round" fill="transparent" stroke-linejoin="round" points="79 105 79 107 79 110 78 113 78 116 78 119 77 122 77 125 77 128 77 132 76 135 76 138 76 141 76 144 75 147 75 150 75 152 75 155 75 157 75 159 75 161 75 163 75 164 75 166 76 167 76 168 76 169 76 170 76 170 76 170 76 171 76 171 77 171 77 171 78 171 79 171 80 171 81 171 83 170 84 170 86 169 88 169 90 168 92 166 94 165 96 163 98 161 100 159 102 156 104 154 106 151 108 148 " />
        <polyline stroke="black" stroke-width="3" stroke-linecap="round" fill="transparent" stroke-linejoin="round" points="101 110 100 112 100 113 100 116 100 118 100 121 100 124 100 128 100 131 100 135 100 138 100 142 101 145 101 149 101 152 102 155 102 158 102 160 103 163 103 165 104 167 104 168 104 170 105 171 105 172 106 173 107 173 108 173 " />
        <polyline stroke="black" stroke-width="3" stroke-linecap="round" fill="transparent" stroke-linejoin="round" points="133 87 133 87 133 88 133 89 133 90 134 91 134 93 134 95 135 97 136 99 136 101 137 103 137 105 138 106 139 108 139 109 140 110 141 112 142 112 143 113 144 114 145 114 146 114 " />
        <polyline stroke="black" stroke-width="3" stroke-linecap="round" fill="transparent" stroke-linejoin="round" points="164 68 163 71 162 74 161 77 160 81 159 86 157 92 155 98 154 104 152 110 150 117 148 123 146 130 144 136 142 142 140 148 139 153 137 159 135 164 134 168 132 173 131 177 129 180 128 184 127 187 125 190 124 193 123 196 122 198 121 201 120 202 120 204 119 205 118 206 " />
        <polyline stroke="black" stroke-width="3" stroke-linecap="round" fill="transparent" stroke-linejoin="round" points="117 101 118 102 119 103 120 104 121 105 123 107 124 108 126 110 128 113 130 115 132 118 134 121 136 125 138 128 141 132 143 135 146 139 148 143 151 147 153 151 156 155 158 159 161 163 163 167 165 170 166 173 168 176 169 178 170 180 171 182 172 183 173 185 173 186 174 187 175 188 " />
        </svg>