<?xml version="1.0" standalone="no"?>
    <svg width="256" height="256" xmlns="http://www.w3.org/2000/svg" version="1.1">
    <polyline stroke="black" stroke-width="3" stroke-linecap="round" fill="transparent" stroke-linejoin="round" points="76.14947509765625 64.94973754882813 77.37371826171875 80.2525634765625 77.37371826171875 85.76158142089844 78.59793090820313 90.04638671875 82.88272094726563 93.71905517578124 89.00384521484375 94.94328308105467 101.85821533203124 93.10694885253906 118.99740600585938 86.98580932617188 133.6881103515625 79.02833557128906 150.82730102539063 66.78607177734375 150.82730102539063 66.78607177734375 " />
        <polyline stroke="black" stroke-width="3" stroke-linecap="round" fill="transparent" stroke-linejoin="round" points="166.74224853515625 24.550247192382813 164.2938232421875 37.404632568359375 162.45745849609375 47.198448181152344 160.009033203125 56.38014221191406 156.3363037109375 64.33761596679688 149.60308837890625 71.07086181640625 149.60308837890625 71.07086181640625 " />
        <polyline stroke="black" stroke-width="3" stroke-linecap="round" fill="transparent" stroke-linejoin="round" points="132.46389770507813 31.28350067138672 130.6275634765625 44.74999237060547 125.1185302734375 61.88916015625 111.65203857421876 96.77963256835938 99.4097900390625 121.26416015625 88.3917236328125 139.01544189453125 76.14947509765625 151.25772094726563 66.9677734375 158.6030731201172 66.9677734375 158.6030731201172 " />
        <polyline stroke="black" stroke-width="3" stroke-linecap="round" fill="transparent" stroke-linejoin="round" points="59.622406005859375 118.20359802246094 71.86468505859375 118.20359802246094 90.8402099609375 119.42782592773438 120.22161865234376 120.6520538330078 138.58502197265625 121.26416015625 156.94842529296875 121.26416015625 169.190673828125 122.48838806152344 174.69970703125 123.71261596679688 176.53607177734375 126.16107177734376 176.53607177734375 126.16107177734376 " />
        <polyline stroke="black" stroke-width="3" stroke-linecap="round" fill="transparent" stroke-linejoin="round" points="87.77963256835938 157.37884521484375 104.30670166015624 154.93038940429688 119.60952758789063 153.09405517578125 138.58502197265625 151.25772094726563 155.112060546875 150.0334930419922 167.96649169921875 150.0334930419922 167.96649169921875 150.0334930419922 " />
        <polyline stroke="black" stroke-width="3" stroke-linecap="round" fill="transparent" stroke-linejoin="round" points="51.052825927734375 213.6932678222656 73.08892822265625 208.79635620117188 94.51287841796876 204.51156616210935 122.0579833984375 200.83889770507813 148.990966796875 200.83889770507813 167.96649169921875 202.0631103515625 183.269287109375 205.12368774414065 183.269287109375 205.12368774414065 " />
        </svg>