<?xml version="1.0" standalone="no"?>
    <svg width="256" height="256" xmlns="http://www.w3.org/2000/svg" version="1.1">
    <polyline stroke="black" stroke-width="3" stroke-linecap="round" fill="transparent" stroke-linejoin="round" points="73.91622924804688 38.016746520996094 67.79510498046875 55.768035888671875 65.34661865234375 68.62240600585938 65.34661865234375 79.02833557128906 68.4072265625 85.76158142089844 75.14044189453125 89.43426513671875 85.54638671875 89.43426513671875 100.23712158203124 86.37370300292969 117.37628173828124 81.47679138183594 131.45489501953125 75.9677734375 144.30926513671875 72.29508972167969 154.7152099609375 69.23452758789063 161.44842529296875 66.17396545410156 167.569580078125 59.440704345703125 167.569580078125 59.440704345703125 " />
        <polyline stroke="black" stroke-width="3" stroke-linecap="round" fill="transparent" stroke-linejoin="round" points="157.16363525390625 23.938140869140625 155.939453125 37.404632568359375 156.551513671875 50.259010314941406 155.939453125 63.11338806152344 154.7152099609375 74.13143920898438 152.87884521484375 81.47679138183594 152.87884521484375 81.47679138183594 " />
        <polyline stroke="black" stroke-width="3" stroke-linecap="round" fill="transparent" stroke-linejoin="round" points="123.49740600585938 33.73194885253906 124.72161865234376 50.259010314941406 122.88531494140624 66.78607177734375 115.5399169921875 99.2280731201172 108.80670166015624 118.81570434570313 100.23712158203124 136.56700134277344 92.27963256835938 147.5850372314453 92.27963256835938 147.5850372314453 " />
        <polyline stroke="black" stroke-width="3" stroke-linecap="round" fill="transparent" stroke-linejoin="round" points="64.12240600585938 105.96133422851563 77.58892822265625 105.96133422851563 91.66751098632813 109.02189636230467 110.03091430664063 113.91880798339844 128.39431762695313 119.42782592773438 144.92138671875 123.71261596679688 154.7152099609375 126.77317810058594 160.8363037109375 129.833740234375 160.8363037109375 129.833740234375 " />
        <polyline stroke="black" stroke-width="3" stroke-linecap="round" fill="transparent" stroke-linejoin="round" points="97.78863525390624 176.3543701171875 119.21261596679688 172.06956481933594 132.67910766601563 169.62110900878906 144.30926513671875 169.00900268554688 149.81829833984375 169.00900268554688 152.2667236328125 170.2332305908203 152.2667236328125 170.2332305908203 " />
        <polyline stroke="black" stroke-width="3" stroke-linecap="round" fill="transparent" stroke-linejoin="round" points="42.086334228515625 204.51156616210935 59.22552490234375 205.73580932617188 75.7525634765625 207.5721435546875 100.84921264648438 208.79635620117188 121.0489501953125 210.0205993652344 138.80023193359375 210.6327209472656 154.7152099609375 211.85693359375 165.73321533203125 211.85693359375 175.52703857421875 212.46905517578125 175.52703857421875 212.46905517578125 " />
        </svg>