<?xml version="1.0" standalone="no"?>
    <svg width="256" height="256" xmlns="http://www.w3.org/2000/svg" version="1.1">
    <polyline stroke="black" stroke-width="3" stroke-linecap="round" fill="transparent" stroke-linejoin="round" points="76 77 75 91 75 104 75 118 74 131 74 137 74 139 76 139 82 139 98 138 120 131 140 126 161 123 177 120 186 119 189 118 189 118 " />
        <polyline stroke="black" stroke-width="3" stroke-linecap="round" fill="transparent" stroke-linejoin="round" points="195 68 188 87 187 96 187 106 186 111 186 111 " />
        <polyline stroke="black" stroke-width="3" stroke-linecap="round" fill="transparent" stroke-linejoin="round" points="155 56 151 71 151 78 147 98 135 124 117 161 98 192 79 216 65 229 57 235 57 235 " />
        <polyline stroke="black" stroke-width="3" stroke-linecap="round" fill="transparent" stroke-linejoin="round" points="89 153 107 163 126 170 147 176 166 180 180 183 190 187 192 190 192 191 192 191 " />
        <polyline stroke="black" stroke-width="3" stroke-linecap="round" fill="transparent" stroke-linejoin="round" points="100 209 113 206 127 206 144 206 161 206 172 206 177 206 178 206 178 206 " />
        <polyline stroke="black" stroke-width="3" stroke-linecap="round" fill="transparent" stroke-linejoin="round" points="97 238 96 241 111 241 131 241 149 239 164 239 179 239 186 239 186 239 " />
        </svg>