<?xml version="1.0" standalone="no"?>
    <svg width="256" height="256" xmlns="http://www.w3.org/2000/svg" version="1.1">
    <polyline stroke="black" stroke-width="3" stroke-linecap="round" fill="transparent" stroke-linejoin="round" points="107.41943359375 60.74542236328125 99.74822998046876 69.75077819824219 92.07699584960938 79.42318725585938 85.73992919921875 87.76145935058594 76.73455810546875 99.43504333496094 70.3974609375 108.77392578125 69.73040771484375 110.77511596679688 73.065673828125 110.44157409667967 85.73992919921875 105.43862915039063 95.07879638671876 101.10270690917967 124.7630615234375 88.09500122070313 134.10189819335938 84.42616271972656 158.44970703125 75.75433349609375 165.453857421875 72.41903686523438 165.453857421875 72.41903686523438 " />
        <polyline stroke="black" stroke-width="3" stroke-linecap="round" fill="transparent" stroke-linejoin="round" points="163.7862548828125 68.41665649414063 166.1209716796875 73.41963195800781 168.4556884765625 79.08964538574219 172.79150390625 104.77154541015624 172.79150390625 104.77154541015624 " />
        <polyline stroke="black" stroke-width="3" stroke-linecap="round" fill="transparent" stroke-linejoin="round" points="90.40936279296876 166.47482299804688 90.0758056640625 173.8125 89.40875244140625 187.15377807617188 89.40875244140625 190.8226318359375 89.40875244140625 191.48968505859375 89.40875244140625 190.48907470703125 89.40875244140625 190.48907470703125 " />
        <polyline stroke="black" stroke-width="3" stroke-linecap="round" fill="transparent" stroke-linejoin="round" points="105.418212890625 147.4635467529297 111.42181396484376 143.46116638183594 118.0924072265625 139.79232788085938 139.43841552734375 132.4546356201172 150.77850341796875 131.45404052734375 159.4503173828125 132.12112426757813 164.78680419921875 134.12229919433594 167.78857421875 136.79055786132813 168.4556884765625 146.46295166015625 166.1209716796875 155.4683074951172 154.7808837890625 171.477783203125 154.7808837890625 171.477783203125 " />
        <polyline stroke="black" stroke-width="3" stroke-linecap="round" fill="transparent" stroke-linejoin="round" points="106.08529663085938 183.48492431640625 113.4229736328125 180.14959716796875 120.09359741210938 177.1478271484375 126.76425170898438 174.1460418701172 133.101318359375 172.14486694335938 144.44140625 170.81072998046875 153.11322021484375 172.4783935546875 153.11322021484375 172.4783935546875 " />
        </svg>