<?xml version="1.0" standalone="no"?>
    <svg width="256" height="256" xmlns="http://www.w3.org/2000/svg" version="1.1">
    <polyline stroke="black" stroke-width="3" stroke-linecap="round" fill="transparent" stroke-linejoin="round" points="116.7508544921875 58.934234619140625 109.44287109375 70.50517272949219 98.48095703125 86.94807434082031 87.51901245117188 105.82696533203124 78.38406372070313 123.48785400390624 72.29409790039063 138.10377502441406 69.24911499023438 146.62973022460938 68.0311279296875 151.50169372558594 68.0311279296875 154.5466766357422 72.903076171875 154.5466766357422 80.82003784179688 151.50169372558594 96.04495239257813 146.02073669433594 113.70587158203124 138.10377502441406 132.58474731445313 127.75083923339844 150.24563598632813 116.78889465332033 163.0345458984375 106.43595886230467 169.12451171875 99.12800598144533 174.60546875 89.99305725097656 174.60546875 89.99305725097656 " />
        <polyline stroke="black" stroke-width="3" stroke-linecap="round" fill="transparent" stroke-linejoin="round" points="170.9515380859375 98.51901245117188 180.08642578125 111.30793762207033 189.8304443359375 127.141845703125 195.92041015625 143.58474731445313 196.52935791015625 157.59165954589844 196.52935791015625 157.59165954589844 " />
        <polyline stroke="black" stroke-width="3" stroke-linecap="round" fill="transparent" stroke-linejoin="round" points="101.52593994140624 194.74044799804688 101.52593994140624 201.43939208984375 101.52593994140624 209.96536254882813 102.13491821289063 219.10031127929688 102.13491821289063 224.58126831054688 102.13491821289063 227.62625122070313 102.13491821289063 226.40826416015625 102.13491821289063 220.31829833984375 102.13491821289063 213.61932373046875 103.3529052734375 208.13836669921875 105.17990112304688 203.26638793945313 108.22488403320313 198.3944091796875 113.70587158203124 194.74044799804688 122.2318115234375 190.47747802734375 136.23870849609375 185.60549926757813 152.681640625 181.95152282714844 167.90655517578125 181.342529296875 176.4324951171875 181.95152282714844 183.1314697265625 183.16949462890625 187.3944091796875 185.60549926757813 188.6124267578125 188.6504821777344 185.56744384765625 193.5224609375 171.560546875 205.702392578125 145.3736572265625 223.9722900390625 127.103759765625 233.7162170410156 127.103759765625 233.7162170410156 " />
        <polyline stroke="black" stroke-width="3" stroke-linecap="round" fill="transparent" stroke-linejoin="round" points="107.61590576171876 228.2352600097656 123.44979858398438 224.58126831054688 141.71969604492188 222.14529418945313 160.59857177734375 220.31829833984375 186.785400390625 216.05532836914065 186.785400390625 216.05532836914065 " />
        </svg>