<?xml version="1.0" standalone="no"?>
    <svg width="256" height="256" xmlns="http://www.w3.org/2000/svg" version="1.1">
    <polyline stroke="black" stroke-width="3" stroke-linecap="round" fill="transparent" stroke-linejoin="round" points="107.666748046875 81.33334350585938 92.7333984375 109.06668090820313 77.80010986328125 133.6000213623047 74.60003662109375 137.86668395996094 73.53338623046875 140.00001525878906 75.66668701171875 140.00001525878906 81.00006103515625 136.80001831054688 113.00006103515624 118.66667175292967 138.60009765625 106.933349609375 156.7333984375 101.60000610351563 165.2667236328125 99.4666748046875 168.466796875 99.4666748046875 169.533447265625 99.4666748046875 168.466796875 98.40000915527344 168.466796875 98.40000915527344 " />
        <polyline stroke="black" stroke-width="3" stroke-linecap="round" fill="transparent" stroke-linejoin="round" points="180.2000732421875 127.20001220703124 183.4000244140625 136.80001831054688 184.466796875 143.20001220703125 184.466796875 143.20001220703125 " />
        <polyline stroke="black" stroke-width="3" stroke-linecap="round" fill="transparent" stroke-linejoin="round" points="97.00006103515624 196.53335571289065 98.06671142578124 193.33334350585935 98.06671142578124 179.4666748046875 95.93341064453124 164.53334045410156 95.93341064453124 160.26669311523438 95.93341064453124 157.06671142578125 104.466796875 152.80001831054688 123.666748046875 149.6000213623047 149.2667236328125 146.40003967285156 175.933349609375 144.26669311523438 182.3333740234375 144.26669311523438 185.533447265625 144.26669311523438 185.533447265625 146.40003967285156 183.4000244140625 152.80001831054688 177 161.33334350585938 156.7333984375 179.4666748046875 140.7333984375 189.06671142578125 140.7333984375 189.06671142578125 " />
        <polyline stroke="black" stroke-width="3" stroke-linecap="round" fill="transparent" stroke-linejoin="round" points="138.60009765625 186.933349609375 150.3333740234375 186.933349609375 170.60009765625 186.933349609375 170.60009765625 186.933349609375 " />
        </svg>