<?xml version="1.0" standalone="no"?>
    <svg width="256" height="256" xmlns="http://www.w3.org/2000/svg" version="1.1">
    <polyline stroke="black" stroke-width="3" stroke-linecap="round" fill="transparent" stroke-linejoin="round" points="45.84466552734375 107.12091064453124 86.94586181640625 88.03819274902344 104.560791015625 81.43260192871094 114.10211181640624 78.49679565429688 117.7718505859375 77.76284790039063 119.23980712890624 77.02891540527344 119.23980712890624 77.02891540527344 " />
        <polyline stroke="black" stroke-width="3" stroke-linecap="round" fill="transparent" stroke-linejoin="round" points="84.74407958984375 93.1758270263672 88.413818359375 111.5246124267578 88.413818359375 135.7450408935547 86.94586181640625 158.49752807617188 85.47796630859375 176.1123809814453 84.74407958984375 194.46115112304688 84.74407958984375 199.59881591796875 84.74407958984375 201.06671142578125 82.542236328125 199.59881591796875 77.404541015625 192.9932556152344 77.404541015625 192.9932556152344 " />
        <polyline stroke="black" stroke-width="3" stroke-linecap="round" fill="transparent" stroke-linejoin="round" points="57.58782958984375 147.48825073242188 55.385986328125 170.9746856689453 55.385986328125 170.9746856689453 " />
        <polyline stroke="black" stroke-width="3" stroke-linecap="round" fill="transparent" stroke-linejoin="round" points="50.9822998046875 196.6629943847656 59.7896728515625 184.18582153320313 64.1934814453125 178.314208984375 68.59710693359375 173.17654418945313 82.542236328125 158.49752807617188 95.0194091796875 145.28639221191406 95.0194091796875 145.28639221191406 " />
        <polyline stroke="black" stroke-width="3" stroke-linecap="round" fill="transparent" stroke-linejoin="round" points="128.7811279296875 105.65299987792967 117.7718505859375 119.59808349609376 106.76263427734376 134.27711486816406 100.15704345703124 143.8184814453125 97.22125244140624 148.22219848632813 97.22125244140624 148.22219848632813 " />
        <polyline stroke="black" stroke-width="3" stroke-linecap="round" fill="transparent" stroke-linejoin="round" points="108.96441650390624 140.88267517089844 125.11138916015624 141.6166229248047 130.2490234375 141.6166229248047 133.184814453125 141.6166229248047 133.184814453125 141.6166229248047 " />
        <polyline stroke="black" stroke-width="3" stroke-linecap="round" fill="transparent" stroke-linejoin="round" points="157.4052734375 59.4140625 157.4052734375 74.09309387207031 157.4052734375 96.11163330078124 157.4052734375 114.46043395996094 157.4052734375 126.93760681152344 157.4052734375 132.8092041015625 158.13916015625 136.47897338867188 158.13916015625 139.41481018066406 158.13916015625 139.41481018066406 " />
        <polyline stroke="black" stroke-width="3" stroke-linecap="round" fill="transparent" stroke-linejoin="round" points="128.04718017578125 167.30494689941406 143.460205078125 154.8277587890625 166.9466552734375 140.88267517089844 190.43310546875 131.34130859375 211.7176513671875 124.73576354980467 227.130615234375 119.59808349609376 241.8096923828125 112.25857543945313 241.8096923828125 112.25857543945313 " />
        <polyline stroke="black" stroke-width="3" stroke-linecap="round" fill="transparent" stroke-linejoin="round" points="211.7176513671875 32.99180603027344 207.3138427734375 61.61590576171875 202.1763916015625 104.1851043701172 200.7083740234375 145.28639221191406 201.4422607421875 178.314208984375 204.378173828125 210.60809326171875 205.8460693359375 223.8192138671875 206.5799560546875 233.36056518554688 206.5799560546875 233.36056518554688 " />
        </svg>