<?xml version="1.0" standalone="no"?>
    <svg width="256" height="256" xmlns="http://www.w3.org/2000/svg" version="1.1">
    <polyline stroke="black" stroke-width="3" stroke-linecap="round" fill="transparent" stroke-linejoin="round" points="62.4300537109375 89.2669677734375 74.84930419921875 76.19410705566406 95.11224365234376 70.9649658203125 97.72674560546876 70.31130981445313 110.7996826171875 68.35038757324219 120.60430908203124 67.69674682617188 126.48712158203124 68.35038757324219 127.79437255859376 69.65766906738281 127.79437255859376 69.65766906738281 " />
        <polyline stroke="black" stroke-width="3" stroke-linecap="round" fill="transparent" stroke-linejoin="round" points="97.07318115234376 76.19410705566406 95.765869140625 99.72526550292967 96.41949462890624 102.99348449707033 100.99505615234376 136.3292999267578 101.64862060546876 140.2511444091797 102.30230712890624 154.6313018798828 102.30230712890624 165.089599609375 101.64862060546876 169.01145935058594 97.72674560546876 170.3187713623047 91.843994140625 168.35781860351563 85.961181640625 159.86045837402344 83.34661865234375 148.09487915039063 82.03936767578125 142.2120819091797 82.03936767578125 142.2120819091797 " />
        <polyline stroke="black" stroke-width="3" stroke-linecap="round" fill="transparent" stroke-linejoin="round" points="68.96649169921875 119.98820495605467 59.81549072265625 142.86572265625 58.50823974609375 145.4803009033203 57.20086669921875 148.09487915039063 57.20086669921875 148.09487915039063 " />
        <polyline stroke="black" stroke-width="3" stroke-linecap="round" fill="transparent" stroke-linejoin="round" points="51.97174072265625 155.28494262695313 68.96649169921875 146.78758239746094 71.5810546875 145.4803009033203 89.883056640625 142.2120819091797 89.883056640625 142.2120819091797 " />
        <polyline stroke="black" stroke-width="3" stroke-linecap="round" fill="transparent" stroke-linejoin="round" points="125.1798095703125 114.1054229736328 108.8387451171875 125.87100219726563 108.8387451171875 127.83195495605467 110.14605712890624 128.48558044433594 114.06787109375 130.44650268554688 117.98974609375 133.7147216796875 123.21893310546876 136.98294067382813 131.71624755859375 140.90481567382813 143.48187255859375 142.2120819091797 143.48187255859375 142.2120819091797 " />
        <polyline stroke="black" stroke-width="3" stroke-linecap="round" fill="transparent" stroke-linejoin="round" points="174.20306396484375 77.50138854980469 165.70574951171875 99.72526550292967 164.39837646484375 104.95443725585938 148.05731201171875 141.55845642089844 146.09637451171875 145.4803009033203 139.55999755859375 157.2458953857422 135.63812255859375 163.128662109375 134.9844970703125 164.4359588623047 136.291748046875 163.78233337402344 141.52093505859375 160.5141143798828 149.3646240234375 156.5922393798828 161.78387451171875 152.0167236328125 173.5494384765625 147.4412384033203 187.92962646484375 140.90481567382813 199.69512939453125 131.10015869140625 216.0362548828125 112.7981414794922 219.9581298828125 106.9153289794922 219.9581298828125 106.9153289794922 " />
        <polyline stroke="black" stroke-width="3" stroke-linecap="round" fill="transparent" stroke-linejoin="round" points="208.84613037109375 55.27751159667969 201.00244140625 70.31130981445313 195.11962890625 134.36839294433594 195.11962890625 142.2120819091797 192.50506591796875 172.2796630859375 191.1978759765625 197.11813354492188 193.81231689453125 216.0738220214844 199.04150390625 225.87844848632813 199.04150390625 225.87844848632813 " />
        </svg>