<?xml version="1.0" standalone="no"?>
    <svg width="256" height="256" xmlns="http://www.w3.org/2000/svg" version="1.1">
    <polyline stroke="black" stroke-width="3" stroke-linecap="round" fill="transparent" stroke-linejoin="round" points="61.25762939453125 103.04991149902344 76.6705322265625 92.0406494140625 93.551513671875 83.23323059082031 108.23052978515624 78.0955810546875 117.03790283203124 75.89370727539063 121.44158935546876 75.15975952148438 121.44158935546876 75.15975952148438 " />
        <polyline stroke="black" stroke-width="3" stroke-linecap="round" fill="transparent" stroke-linejoin="round" points="106.76263427734376 76.62767028808594 106.02862548828124 110.38943481445313 106.76263427734376 139.01353454589844 106.76263427734376 163.9678955078125 106.02862548828124 184.5185546875 105.29473876953124 197.72967529296875 105.29473876953124 205.8031311035156 103.8267822265625 207.27105712890625 100.8909912109375 205.06918334960935 100.8909912109375 205.06918334960935 " />
        <polyline stroke="black" stroke-width="3" stroke-linecap="round" fill="transparent" stroke-linejoin="round" points="66.39520263671875 133.87586975097656 69.3310546875 141.9493408203125 " />
        <polyline stroke="black" stroke-width="3" stroke-linecap="round" fill="transparent" stroke-linejoin="round" points="69 141 69 141 " />
        <polyline stroke="black" stroke-width="3" stroke-linecap="round" fill="transparent" stroke-linejoin="round" points="61.25762939453125 183.7845764160156 73.0008544921875 162.50001525878906 86.21197509765625 148.55491638183594 99.423095703125 137.54563903808594 99.423095703125 137.54563903808594 " />
        <polyline stroke="black" stroke-width="3" stroke-linecap="round" fill="transparent" stroke-linejoin="round" points="133.184814453125 108.92152404785156 119.23980712890624 122.86660766601563 111.90032958984376 132.40797424316406 106.02862548828124 140.48147583007813 106.02862548828124 140.48147583007813 " />
        <polyline stroke="black" stroke-width="3" stroke-linecap="round" fill="transparent" stroke-linejoin="round" points="110.432373046875 140.48147583007813 127.313232421875 143.41725158691406 130.9830322265625 145.61911010742188 133.184814453125 149.2888641357422 134.6527099609375 152.22467041015625 134.6527099609375 152.22467041015625 " />
        <polyline stroke="black" stroke-width="3" stroke-linecap="round" fill="transparent" stroke-linejoin="round" points="158.13916015625 56.07701110839844 156.6712646484375 72.95791625976563 155.203369140625 81.76533508300781 151.53369140625 105.25177001953124 149.331787109375 114.05918884277344 149.331787109375 116.9949951171875 149.331787109375 118.46292114257813 150.0657958984375 119.19685363769533 155.203369140625 118.46292114257813 159.607177734375 116.26104736328124 163.27685546875 114.79315185546876 163.27685546875 114.79315185546876 " />
        <polyline stroke="black" stroke-width="3" stroke-linecap="round" fill="transparent" stroke-linejoin="round" points="137.588623046875 142.68328857421875 174.2861328125 115.527099609375 194.102783203125 105.98573303222656 209.515869140625 100.84805297851563 220.5250244140625 97.17829895019533 223.4608154296875 94.97645568847656 226.396728515625 89.83879089355469 226.396728515625 89.83879089355469 " />
        <polyline stroke="black" stroke-width="3" stroke-linecap="round" fill="transparent" stroke-linejoin="round" points="199.240478515625 47.26959228515625 194.8367919921875 84.70112609863281 194.102783203125 123.60057067871094 194.8367919921875 158.8302459716797 198.506591796875 187.454345703125 202.1763916015625 214.61056518554688 202.91015625 226.353759765625 202.91015625 232.22540283203125 202.91015625 232.22540283203125 " />
        </svg>