<?xml version="1.0" standalone="no"?>
    <svg width="256" height="256" xmlns="http://www.w3.org/2000/svg" version="1.1">
    <polyline stroke="black" stroke-width="3" stroke-linecap="round" fill="transparent" stroke-linejoin="round" points="44.7333984375 111.20002746582033 70.3333740234375 99.4666748046875 89.53338623046875 93.06668090820313 100.2000732421875 89.86669921875 105.53338623046876 88.80000305175781 108.7333984375 88.80000305175781 108.7333984375 89.86669921875 106.60003662109376 92.00001525878906 106.60003662109376 92.00001525878906 " />
        <polyline stroke="black" stroke-width="3" stroke-linecap="round" fill="transparent" stroke-linejoin="round" points="82.06671142578125 98.40000915527344 87.4000244140625 145.33334350585938 89.53338623046875 169.86668395996094 91.666748046875 188 91.666748046875 197.6000061035156 91.666748046875 202.933349609375 91.666748046875 207.20001220703125 90.60003662109376 207.20001220703125 86.3333740234375 202.933349609375 76.7333984375 190.13336181640625 76.7333984375 190.13336181640625 " />
        <polyline stroke="black" stroke-width="3" stroke-linecap="round" fill="transparent" stroke-linejoin="round" points="52.2000732421875 148.53334045410156 57.53338623046875 163.4666748046875 " />
        <polyline stroke="black" stroke-width="3" stroke-linecap="round" fill="transparent" stroke-linejoin="round" points="57 163 57 163 " />
        <polyline stroke="black" stroke-width="3" stroke-linecap="round" fill="transparent" stroke-linejoin="round" points="47.93341064453125 182.66668701171875 60.7333984375 165.6000213623047 71.4000244140625 157.06671142578125 78.86669921875 150.6666717529297 78.86669921875 150.6666717529297 " />
        <polyline stroke="black" stroke-width="3" stroke-linecap="round" fill="transparent" stroke-linejoin="round" points="115.1334228515625 113.33334350585938 110.86669921875 138.93336486816406 106.60003662109376 147.4666748046875 103.4000244140625 150.6666717529297 103.4000244140625 150.6666717529297 " />
        <polyline stroke="black" stroke-width="3" stroke-linecap="round" fill="transparent" stroke-linejoin="round" points="104.466796875 142.1333465576172 125.80010986328124 149.6000213623047 136.466796875 152.80001831054688 145 156.00001525878906 148.2000732421875 161.33334350585938 148.2000732421875 161.33334350585938 " />
        <polyline stroke="black" stroke-width="3" stroke-linecap="round" fill="transparent" stroke-linejoin="round" points="145 71.73333740234375 146.0667724609375 93.06668090820313 148.2000732421875 103.73333740234376 150.3333740234375 124.00001525878906 152.466796875 129.33334350585938 152.466796875 135.73338317871094 152.466796875 137.86668395996094 152.466796875 137.86668395996094 " />
        <polyline stroke="black" stroke-width="3" stroke-linecap="round" fill="transparent" stroke-linejoin="round" points="111.93341064453124 176.26669311523438 129 160.26669311523438 153.533447265625 146.40003967285156 179.1334228515625 135.73338317871094 194.0667724609375 130.40003967285156 201.533447265625 128.26669311523438 210.0667724609375 126.1333465576172 212.2000732421875 125.06671142578124 214.3333740234375 124.00001525878906 214.3333740234375 124.00001525878906 " />
        <polyline stroke="black" stroke-width="3" stroke-linecap="round" fill="transparent" stroke-linejoin="round" points="166.3333740234375 21.600006103515625 173.8001708984375 65.33334350585938 180.2000732421875 105.86669921875 183.4000244140625 143.20001220703125 186.60009765625 175.20001220703125 190.86669921875 211.4666748046875 193 223.20001220703125 194.0667724609375 228.53335571289065 195.1334228515625 231.73336791992188 195.1334228515625 231.73336791992188 " />
        </svg>