<?xml version="1.0" standalone="no"?>
    <svg width="256" height="256" xmlns="http://www.w3.org/2000/svg" version="1.1">
    <polyline stroke="black" stroke-width="3" stroke-linecap="round" fill="transparent" stroke-linejoin="round" points="80.014892578125 58.50205993652344 84.62628173828125 69.56936645507813 88.31536865234375 77.40872192382813 90.159912109375 81.09782409667969 98.92156982421876 88.93716430664063 103.99407958984376 88.93716430664063 103.99407958984376 88.93716430664063 " />
        <polyline stroke="black" stroke-width="3" stroke-linecap="round" fill="transparent" stroke-linejoin="round" points="156.5638427734375 23.916709899902344 143.19085693359375 54.35182189941406 133.50692749023438 71.87506103515625 95.232421875 132.28414916992188 73.09783935546875 164.1026611328125 58.341400146484375 184.8538818359375 51.42431640625 192.23208618164065 51.42431640625 192.23208618164065 " />
        <polyline stroke="black" stroke-width="3" stroke-linecap="round" fill="transparent" stroke-linejoin="round" points="73.5589599609375 111.53292846679688 84.62628173828125 107.84384155273438 90.159912109375 105.999267578125 97.53817749023438 104.15472412109376 104.91635131835938 102.77130126953124 131.20123291015625 101.84904479980467 151.0301513671875 105.53814697265624 167.1700439453125 112.91635131835938 179.15960693359375 124.44479370117188 188.38232421875 141.04576110839844 191.61029052734375 156.72447204589844 188.38232421875 170.55859375 180.08184814453125 182.0870361328125 166.24774169921875 192.23208618164065 144.57421875 200.99371337890625 130.74008178710938 206.06622314453125 130.74008178710938 206.06622314453125 " />
        </svg>