<?xml version="1.0" standalone="no"?>
    <svg width="256" height="256" xmlns="http://www.w3.org/2000/svg" version="1.1">
    <polyline stroke="black" stroke-width="3" stroke-linecap="round" fill="transparent" stroke-linejoin="round" points="71.909423828125 66.45982360839844 75.4398193359375 78.81619262695313 78.5289306640625 88.52476501464844 79.4114990234375 92.05514526367188 81.17672729492188 98.23333740234376 81.61801147460938 98.67462158203124 81.61801147460938 98.67462158203124 " />
        <polyline stroke="black" stroke-width="3" stroke-linecap="round" fill="transparent" stroke-linejoin="round" points="153.1083984375 17.034378051757813 147.37152099609375 32.479827880859375 141.19332885742188 46.60137939453125 116.4805908203125 95.58554077148438 89.1201171875 142.3632049560547 71.4681396484375 172.3715057373047 59.553070068359375 190.4647521972656 52.93359375 201.05593872070313 49.4031982421875 205.46893310546875 49.4031982421875 205.46893310546875 " />
        <polyline stroke="black" stroke-width="3" stroke-linecap="round" fill="transparent" stroke-linejoin="round" points="28.66217041015625 133.09593200683594 50.28582763671875 127.35905456542967 62.20086669921875 125.15255737304688 74.99853515625 122.946044921875 101.03515625 119.85696411132813 135.01513671875 118.53306579589844 153.5496826171875 120.73956298828124 166.34735107421875 124.71127319335938 173.8494873046875 130.0068359375 179.5863037109375 143.68710327148438 180.91021728515625 167.075927734375 176.93853759765625 186.0517578125 171.20166015625 199.7320251464844 165.0234375 207.6754150390625 155.7562255859375 212.97100830078125 141.63461303710938 214.29489135742188 120.010986328125 208.11669921875 120.010986328125 208.11669921875 " />
        </svg>