<?xml version="1.0" standalone="no"?>
    <svg width="256" height="256" xmlns="http://www.w3.org/2000/svg" version="1.1">
    <polyline stroke="black" stroke-width="3" stroke-linecap="round" fill="transparent" stroke-linejoin="round" points="105.94476318359376 36.48890686035156 120.0087890625 55.638763427734375 125.1800537109375 65.48208618164063 128.127197265625 74.73695373535156 129.9752197265625 83.67646789550781 127.19781494140624 94.15731811523438 123.5994873046875 97.56581115722656 118.181884765625 99.96775817871094 117.3941650390625 98.99371337890624 " />
        <polyline stroke="black" stroke-width="3" stroke-linecap="round" fill="transparent" stroke-linejoin="round" points="63.2066650390625 120.13859558105467 91.23785400390624 113.78976440429688 101.7386474609375 111.566162109375 151.7144775390625 102.39877319335938 158.86248779296875 100.814208984375 183.53533935546875 97.90876770019533 187.09393310546875 97.51971435546876 187.95556640625 97.61808776855467 187.96240234375 97.61886596679688 184.3741455078125 98.28427124023438 181.54595947265625 98.79934692382813 " />
        <polyline stroke="black" stroke-width="3" stroke-linecap="round" fill="transparent" stroke-linejoin="round" points="101.56134033203124 128.1748046875 91.947021484375 141.63455200195313 88.88616943359375 150.7235107421875 80.85736083984375 175.28750610351563 76.48126220703125 187.28790283203125 67.74334716796875 209.68316650390625 65.44818115234375 215.16482543945313 64.03582763671875 217.81417846679688 63.894622802734375 218.07916259765625 " />
        <polyline stroke="black" stroke-width="3" stroke-linecap="round" fill="transparent" stroke-linejoin="round" points="121.65185546875 143.51666259765625 132.70138549804688 154.19061279296875 147.35995483398438 169.57501220703125 153.93865966796875 177.8426513671875 159.6934814453125 185.988037109375 179.2972412109375 201.1219787597656 186.63525390625 208.61441040039065 186.9239501953125 208.98971557617188 " />
        </svg>