<?xml version="1.0" standalone="no"?>
    <svg width="256" height="256" xmlns="http://www.w3.org/2000/svg" version="1.1">
    <polyline stroke="black" stroke-width="3" stroke-linecap="round" fill="transparent" stroke-linejoin="round" points="84.1820068359375 34.10070037841797 85.95037841796875 50.89998626708984 86.83453369140625 57.089202880859375 87.71868896484375 62.83631896972656 89.044921875 74.77264404296875 89.92913818359375 84.05645751953125 89.92913818359375 88.03523254394531 89.487060546875 95.55068969726563 89.044921875 96.876953125 89.044921875 96.876953125 " />
        <polyline stroke="black" stroke-width="3" stroke-linecap="round" fill="transparent" stroke-linejoin="round" points="90.37118530273438 60.18379211425781 99.212890625 53.11041259765625 110.70721435546876 47.36329650878906 133.25360107421875 40.2899169921875 140.76904296875 38.963653564453125 155.35791015625 37.63740539550781 168.6204833984375 38.52156829833984 180.11474609375 41.17408752441406 184.53558349609375 42.94242858886719 194.261474609375 49.57372283935547 198.240234375 55.32084655761719 200.45068359375 63.720489501953125 196.91400146484375 76.54098510742188 185.4197998046875 89.36148071289063 185.4197998046875 89.36148071289063 " />
        <polyline stroke="black" stroke-width="3" stroke-linecap="round" fill="transparent" stroke-linejoin="round" points="105.84423828125 85.38272094726563 116.45428466796876 79.63558959960938 121.31723022460938 77.4251708984375 126.18017578125 75.2147216796875 131.04315185546875 73.44638061523438 140.76904296875 70.35177612304688 148.7265625 68.141357421875 154.0316162109375 66.81509399414063 156.2420654296875 67.25717163085938 156.2420654296875 67.25717163085938 " />
        <polyline stroke="black" stroke-width="3" stroke-linecap="round" fill="transparent" stroke-linejoin="round" points="104.07589721679688 99.08738708496094 117.780517578125 97.3190460205078 123.52767944335938 96.876953125 130.158935546875 96.43487548828124 143.42156982421875 95.55068969726563 159.336669921875 94.66653442382813 163.75750732421875 94.66653442382813 163.75750732421875 94.66653442382813 " />
        <polyline stroke="black" stroke-width="3" stroke-linecap="round" fill="transparent" stroke-linejoin="round" points="67.38275146484375 130.03343200683594 63.846038818359375 143.2960205078125 62.519775390625 149.48521423339844 61.635589599609375 156.11651611328125 61.19354248046875 168.49493408203125 62.96185302734375 176.45248413085938 66.05645751953125 181.3154296875 71.80355834960938 184.4100341796875 82.855712890625 186.17840576171875 94.79208374023438 184.4100341796875 107.17050170898438 180.8733367919922 118.66473388671876 174.6841278076172 128.83270263671875 164.07406616210938 128.83270263671875 164.07406616210938 " />
        <polyline stroke="black" stroke-width="3" stroke-linecap="round" fill="transparent" stroke-linejoin="round" points="136.34814453125 126.49673461914063 132.81149291992188 140.20140075683594 131.48519897460938 143.73809814453125 129.27484130859375 147.27481079101563 123.96978759765624 153.02191162109375 123.96978759765624 153.02191162109375 " />
        <polyline stroke="black" stroke-width="3" stroke-linecap="round" fill="transparent" stroke-linejoin="round" points="91.25537109375 122.5179443359375 87.71868896484375 137.54888916015625 85.50827026367188 147.71688842773438 81.9715576171875 162.747802734375 74.45611572265625 190.5992431640625 71.36151123046875 200.76724243164065 66.49853515625 214.02981567382813 64.2880859375 223.31362915039065 64.2880859375 223.31362915039065 " />
        <polyline stroke="black" stroke-width="3" stroke-linecap="round" fill="transparent" stroke-linejoin="round" points="138.11654663085938 134.45428466796875 133.25360107421875 148.15896606445313 131.92733764648438 153.02191162109375 131.04315185546875 158.3269500732422 132.81149291992188 176.45248413085938 136.79025268554688 182.1996154785156 145.63201904296875 187.06256103515625 151.37908935546875 188.83090209960935 169.94671630859375 190.15716552734375 175.69384765625 189.715087890625 185.86181640625 187.504638671875 196.91400146484375 181.3154296875 196.91400146484375 181.3154296875 " />
        <polyline stroke="black" stroke-width="3" stroke-linecap="round" fill="transparent" stroke-linejoin="round" points="210.61865234375 137.10679626464844 208.408203125 153.90609741210938 207.5240478515625 157.88485717773438 206.19781494140625 161.4215545654297 198.682373046875 173.35787963867188 195.5877685546875 175.126220703125 195.5877685546875 175.126220703125 " />
        <polyline stroke="black" stroke-width="3" stroke-linecap="round" fill="transparent" stroke-linejoin="round" points="165.08380126953125 141.52767944335938 165.08380126953125 157.88485717773438 164.6417236328125 167.16867065429688 164.19964599609375 176.45248413085938 162.4312744140625 196.7884521484375 157.56829833984375 224.19781494140625 149.16867065429688 261.775146484375 146.958251953125 271.943115234375 146.958251953125 271.943115234375 " />
        </svg>