<?xml version="1.0" standalone="no"?>
    <svg width="256" height="256" xmlns="http://www.w3.org/2000/svg" version="1.1">
    <polyline stroke="black" stroke-width="3" stroke-linecap="round" fill="transparent" stroke-linejoin="round" points="81 67 81 66 80 65 81 66 81 67 81 68 82 73 82 75 84 87 87 99 89 107 90 110 90 112 90 113 90 112 90 112 " />
        <polyline stroke="black" stroke-width="3" stroke-linecap="round" fill="transparent" stroke-linejoin="round" points="85 70 85 68 89 66 99 62 113 60 129 57 145 54 158 52 164 51 165 53 164 56 162 61 161 63 156 73 151 86 147 99 145 107 144 111 143 114 141 115 140 115 140 115 " />
        <polyline stroke="black" stroke-width="3" stroke-linecap="round" fill="transparent" stroke-linejoin="round" points="97 92 96 91 95 91 98 91 111 91 119 89 127 87 131 86 132 87 132 87 " />
        <polyline stroke="black" stroke-width="3" stroke-linecap="round" fill="transparent" stroke-linejoin="round" points="91 119 94 118 104 115 115 112 123 110 125 110 125 110 " />
        <polyline stroke="black" stroke-width="3" stroke-linecap="round" fill="transparent" stroke-linejoin="round" points="62 136 62 137 62 144 63 154 64 164 65 171 67 174 69 175 70 175 75 174 81 171 88 168 94 164 98 163 101 161 102 160 102 160 " />
        <polyline stroke="black" stroke-width="3" stroke-linecap="round" fill="transparent" stroke-linejoin="round" points="108 142 106 142 106 146 106 147 107 153 107 157 106 161 104 163 104 163 " />
        <polyline stroke="black" stroke-width="3" stroke-linecap="round" fill="transparent" stroke-linejoin="round" points="86 138 86 139 87 143 89 153 90 164 88 176 85 186 83 189 77 198 75 201 69 210 68 211 68 211 " />
        <polyline stroke="black" stroke-width="3" stroke-linecap="round" fill="transparent" stroke-linejoin="round" points="131 142 130 143 130 147 130 155 130 162 130 167 131 168 133 169 136 167 142 164 148 162 155 160 162 158 166 157 168 156 169 156 168 156 168 156 " />
        <polyline stroke="black" stroke-width="3" stroke-linecap="round" fill="transparent" stroke-linejoin="round" points="172 141 169 142 169 147 168 154 168 158 168 161 168 162 167 162 167 162 " />
        <polyline stroke="black" stroke-width="3" stroke-linecap="round" fill="transparent" stroke-linejoin="round" points="150 125 150 126 149 127 149 131 149 133 150 144 150 158 150 161 150 166 148 190 147 202 148 209 149 215 150 217 150 218 150 218 " />
        </svg>