<?xml version="1.0" standalone="no"?>
    <svg width="256" height="256" xmlns="http://www.w3.org/2000/svg" version="1.1">
    <polyline stroke="black" stroke-width="3" stroke-linecap="round" fill="transparent" stroke-linejoin="round" points="66.35031127929688 85.65927124023438 81.130859375 77.03726196289063 95.09027099609376 68.82585144042969 101.24887084960938 65.54129028320313 113.56597900390624 58.972137451171875 118.082275390625 56.09814453125 120.13510131835938 54.86643981933594 120.545654296875 54.0452880859375 120.13510131835938 53.63471984863281 117.2611083984375 54.86643981933594 113.1553955078125 58.56158447265625 104.9439697265625 69.64698791503906 98.37484741210938 82.37469482421875 84.0048828125 112.75694274902344 68.813720703125 152.5823211669922 65.5291748046875 160.3831787109375 59.37060546875 175.1637420654297 57.3177490234375 179.26943969726563 56.49658203125 179.68002319335938 56.49658203125 178.85887145996094 58.960052490234375 172.70030212402344 65.5291748046875 158.7408905029297 70.45602416992188 151.35061645507813 85.64715576171875 134.10665893554688 91.3951416015625 129.17979431152344 107.40740966796876 120.96836853027344 113.9765625 122.2000732421875 116.85055541992188 127.12693786621094 117.67172241210938 157.50918579101563 103.30169677734376 196.92401123046875 98.785400390625 203.9037170410156 88.52117919921875 213.34683227539065 83.18377685546875 212.936279296875 81.130859375 210.47283935546875 81.130859375 210.47283935546875 " />
        <polyline stroke="black" stroke-width="3" stroke-linecap="round" fill="transparent" stroke-linejoin="round" points="143.53768920898438 69.64698791503906 144.76937866210938 71.69984436035156 148.053955078125 75.39498901367188 150.517333984375 77.03726196289063 164.06622314453125 79.50070190429688 179.25732421875 75.39498901367188 187.0582275390625 71.28927612304688 205.123291015625 61.024993896484375 211.69244384765625 58.56158447265625 213.334716796875 58.1510009765625 214.97698974609375 59.382720947265625 211.2818603515625 64.72013854980469 205.9444580078125 69.64698791503906 170.22479248046875 98.38697814941406 159.5499267578125 105.77725219726563 136.968505859375 120.147216796875 129.57821655273438 124.66349792480467 127.525390625 125.4846649169922 128.757080078125 125.07408142089844 141.89535522460938 120.96836853027344 162.83447265625 113.9886474609375 182.13134765625 108.24069213867188 190.3427734375 105.77725219726563 212.9241943359375 97.15525817871094 212.9241943359375 97.15525817871094 " />
        <polyline stroke="black" stroke-width="3" stroke-linecap="round" fill="transparent" stroke-linejoin="round" points="185.82647705078125 51.58187103271485 181.72076416015625 64.3095703125 168.17193603515625 97.97639465332033 150.10678100585938 139.44406127929688 138.61080932617188 160.7937469482422 132.04168701171875 171.46859741210938 128.757080078125 175.57431030273438 128.757080078125 175.57431030273438 " />
        <polyline stroke="black" stroke-width="3" stroke-linecap="round" fill="transparent" stroke-linejoin="round" points="178.8468017578125 129.59036254882813 191.98504638671875 132.87493896484375 203.8916015625 136.9806365966797 214.1558837890625 141.0863494873047 219.90386962890625 144.37091064453125 221.546142578125 145.60263061523438 221.546142578125 145.60263061523438 " />
        <polyline stroke="black" stroke-width="3" stroke-linecap="round" fill="transparent" stroke-linejoin="round" points="156.67596435546875 166.9523162841797 155.4442138671875 180.50115966796875 154.2125244140625 187.4808654785156 151.74908447265625 196.92401123046875 150.92791748046875 199.38742065429688 149.28564453125 201.85086059570313 148.87509155273438 201.44027709960935 149.28564453125 198.15570068359375 153.80194091796875 190.76544189453125 157.90765380859375 186.2491455078125 173.5093994140625 172.70030212402344 179.25732421875 169.0051727294922 194.03790283203125 162.43603515625 200.6070556640625 161.61489868164063 204.30218505859375 162.02545166015625 205.9444580078125 164.4888916015625 205.9444580078125 167.36288452148438 197.7330322265625 181.73287963867188 191.98504638671875 187.4808654785156 170.6353759765625 201.85086059570313 165.70849609375 203.9037170410156 158.3182373046875 205.5459899902344 157.4970703125 205.13543701171875 158.3182373046875 204.31427001953125 165.70849609375 201.44027709960935 178.025634765625 198.15570068359375 184.5947265625 196.92401123046875 184.5947265625 196.92401123046875 " />
        </svg>