<?xml version="1.0" standalone="no"?>
    <svg width="256" height="256" xmlns="http://www.w3.org/2000/svg" version="1.1">
    <polyline stroke="black" stroke-width="3" stroke-linecap="round" fill="transparent" stroke-linejoin="round" points="75.5872802734375 74.72654724121094 90.93206787109376 67.64431762695313 108.04742431640624 60.562103271484375 122.80206298828124 54.66026306152344 135.1959228515625 49.348602294921875 142.27813720703125 45.8074951171875 145.22906494140625 44.03694152832031 144.63888549804688 44.03694152832031 139.91741943359375 47.57804870605469 129.88427734375 57.02099609375 112.1787109375 80.62838745117188 89.751708984375 114.85910034179688 74.40692138671875 140.23704528808594 62.60321044921875 163.8444366455078 58.471923828125 170.33645629882813 57.29156494140625 173.8775634765625 59.65228271484375 171.51683044433594 70.86578369140625 160.8935089111328 87.3909912109375 144.95852661132813 100.37503051757813 136.69593811035156 108.04742431640624 134.92538452148438 113.35910034179688 137.28611755371094 115.7198486328125 153.81129455566406 108.04742431640624 183.32052612304688 99.78485107421876 198.07513427734375 90.3419189453125 206.33773803710935 81.4891357421875 210.46902465820313 75.5872802734375 206.33773803710935 74.99710083007813 185.6812744140625 74.99710083007813 185.6812744140625 " />
        <polyline stroke="black" stroke-width="3" stroke-linecap="round" fill="transparent" stroke-linejoin="round" points="153.49163818359375 80.0382080078125 155.8524169921875 85.34986877441406 161.1640625 91.251708984375 170.016845703125 91.84190368652344 170.016845703125 91.84190368652344 " />
        <polyline stroke="black" stroke-width="3" stroke-linecap="round" fill="transparent" stroke-linejoin="round" points="210.1494140625 72.95599365234375 187.722412109375 93.61245727539063 164.7052001953125 114.2689208984375 149.9505615234375 125.482421875 142.86834716796875 130.79408264160156 139.91741943359375 133.1548309326172 142.27813720703125 131.38427734375 152.311279296875 126.6627960205078 167.6561279296875 120.17076110839844 185.9517822265625 114.2689208984375 207.198486328125 106.00633239746094 226.674560546875 93.0222625732422 226.674560546875 93.0222625732422 " />
        <polyline stroke="black" stroke-width="3" stroke-linecap="round" fill="transparent" stroke-linejoin="round" points="191.26348876953125 49.348602294921875 180.04998779296875 74.72654724121094 168.83642578125 101.87503051757813 158.213134765625 125.482421875 148.77020263671875 145.5487060546875 139.32720947265625 160.8935089111328 133.42538452148438 170.92665100097656 129.2940673828125 175.0579376220703 129.2940673828125 175.0579376220703 " />
        <polyline stroke="black" stroke-width="3" stroke-linecap="round" fill="transparent" stroke-linejoin="round" points="178.86962890625 137.8762969970703 198.9359130859375 142.5977783203125 215.4610595703125 149.08981323242188 231.39599609375 154.9916534423828 243.19970703125 160.30331420898438 247.92120361328125 162.6640625 244.97027587890625 162.6640625 229.0352783203125 161.4836883544922 229.0352783203125 161.4836883544922 " />
        <polyline stroke="black" stroke-width="3" stroke-linecap="round" fill="transparent" stroke-linejoin="round" points="159.98370361328125 162.6640625 157.03277587890625 170.33645629882813 155.26220703125 182.14016723632813 153.49163818359375 197.4849548339844 152.311279296875 208.69845581054688 151.13092041015625 214.0101318359375 149.9505615234375 215.19049072265625 149.9505615234375 209.28863525390625 151.7210693359375 196.3045959472656 155.8524169921875 184.5008850097656 161.1640625 176.23831176757813 168.83642578125 169.74627685546875 181.2303466796875 163.8444366455078 192.44384765625 162.07388305664063 199.52606201171875 162.07388305664063 205.42791748046875 163.25424194335938 208.968994140625 166.20516967773438 208.968994140625 170.92665100097656 203.067138671875 182.14016723632813 183.591064453125 198.07513427734375 167.06591796875 208.69845581054688 161.1640625 211.0592041015625 158.213134765625 211.0592041015625 160.5738525390625 208.69845581054688 169.4266357421875 204.56716918945313 183.591064453125 200.43588256835935 194.8045654296875 198.07513427734375 207.78863525390625 197.4849548339844 217.2315673828125 200.43588256835935 217.2315673828125 200.43588256835935 " />
        </svg>