<?xml version="1.0" standalone="no"?>
    <svg width="256" height="256" xmlns="http://www.w3.org/2000/svg" version="1.1">
    <polyline stroke="black" stroke-width="3" stroke-linecap="round" fill="transparent" stroke-linejoin="round" points="81.91537475585938 79.09011840820313 95.05364990234376 71.69984436035156 101.62277221679688 68.415283203125 118.4561767578125 61.024993896484375 125.02532958984376 58.1510009765625 129.13104248046875 56.09814453125 129.13104248046875 56.09814453125 " />
        <polyline stroke="black" stroke-width="3" stroke-linecap="round" fill="transparent" stroke-linejoin="round" points="96.69589233398438 102.90324401855467 93.00079345703124 109.0618133544922 83.96823120117188 125.07408142089844 79.451904296875 132.46435546875 65.49252319335938 153.40347290039063 59.333953857421875 162.02545166015625 55.6387939453125 166.541748046875 53.99652099609375 167.77346801757813 53.5859375 166.9523162841797 54.4071044921875 165.31002807617188 64.26083374023438 152.1717529296875 69.59823608398438 145.60263061523438 88.4844970703125 127.53750610351563 101.21221923828124 119.73666381835938 111.88705444335938 115.63095092773438 120.09848022460938 114.80979919433594 125.02532958984376 116.8626708984375 126.66757202148438 118.50494384765624 125.846435546875 138.21234130859375 121.74072265625 148.47662353515625 109.83419799804688 164.4888916015625 98.33822631835938 174.75315856933594 82.73651123046875 181.32229614257813 82.73651123046875 181.32229614257813 " />
        <polyline stroke="black" stroke-width="3" stroke-linecap="round" fill="transparent" stroke-linejoin="round" points="155.4075927734375 76.626708984375 157.46044921875 80.32183837890625 162.7978515625 88.1226806640625 166.903564453125 91.8178253173828 173.0621337890625 92.63897705078124 180.452392578125 89.35440063476563 183.326416015625 86.48040771484375 190.7166748046875 79.50070190429688 198.10693359375 72.93156433105469 200.98095703125 70.4681396484375 202.212646484375 69.23641967773438 201.8021240234375 69.64698791503906 197.28582763671875 75.80555725097656 182.91583251953125 90.9967041015625 163.20843505859375 108.24069213867188 148.01727294921875 120.55780029296876 139.80587768554688 127.12693786621094 136.52133178710938 129.17979431152344 136.1107177734375 129.17979431152344 138.98471069335938 127.94808959960938 151.3018798828125 123.43179321289063 170.1881103515625 116.8626708984375 191.12725830078125 110.7041015625 200.98095703125 107.83010864257813 218.2249755859375 103.31382751464844 224.38348388671875 101.67153930664063 224.38348388671875 101.67153930664063 " />
        <polyline stroke="black" stroke-width="3" stroke-linecap="round" fill="transparent" stroke-linejoin="round" points="190.7166748046875 53.63471984863281 186.20037841796875 64.3095703125 173.88330078125 91.8178253173828 166.903564453125 108.24069213867188 146.78558349609375 150.94004821777344 141.85873413085938 160.7937469482422 132.41561889648438 179.26943969726563 129.9521484375 184.1962890625 129.54159545898438 184.60687255859375 129.54159545898438 184.60687255859375 " />
        <polyline stroke="black" stroke-width="3" stroke-linecap="round" fill="transparent" stroke-linejoin="round" points="173.0621337890625 151.76119995117188 182.91583251953125 154.224609375 187.84271240234375 155.86691284179688 200.1597900390625 160.7937469482422 205.49725341796875 164.07830810546875 207.96063232421875 166.541748046875 207.96063232421875 166.541748046875 " />
        <polyline stroke="black" stroke-width="3" stroke-linecap="round" fill="transparent" stroke-linejoin="round" points="154.58642578125 190.76544189453125 153.76531982421875 200.20855712890625 152.5335693359375 208.0093994140625 151.71240234375 213.34683227539065 151.3018798828125 214.57855224609375 151.3018798828125 214.57855224609375 " />
        <polyline stroke="black" stroke-width="3" stroke-linecap="round" fill="transparent" stroke-linejoin="round" points="173.47265625 181.73287963867188 178.3995361328125 180.090576171875 187.43212890625 178.0377197265625 199.338623046875 178.44830322265625 205.49725341796875 180.50115966796875 209.1923828125 182.9645843505859 211.65576171875 186.65972900390625 211.65576171875 190.3548583984375 207.550048828125 199.79800415039065 191.537841796875 214.16796875 185.3792724609375 217.4525451660156 185.3792724609375 217.4525451660156 " />
        <polyline stroke="black" stroke-width="3" stroke-linecap="round" fill="transparent" stroke-linejoin="round" points="164.8507080078125 212.1151123046875 177.98895263671875 207.59884643554688 191.12725830078125 205.13543701171875 198.10693359375 204.31427001953125 198.10693359375 204.31427001953125 " />
        </svg>