<?xml version="1.0" standalone="no"?>
    <svg width="256" height="256" xmlns="http://www.w3.org/2000/svg" version="1.1">
    <polyline stroke="black" stroke-width="3" stroke-linecap="round" fill="transparent" stroke-linejoin="round" points="100.48773193359376 93.18882751464844 102.44866943359376 96.45704650878906 107.024169921875 104.30076599121094 107.6778564453125 104.95443725585938 112.2532958984375 105.60806274414063 121.404296875 101.68620300292967 121.404296875 101.68620300292967 " />
        <polyline stroke="black" stroke-width="3" stroke-linecap="round" fill="transparent" stroke-linejoin="round" points="139.05267333984375 68.35038757324219 137.09173583984375 74.23318481445313 118.78973388671876 127.83195495605467 113.56060791015624 143.5193634033203 104.40960693359376 171.6260223388672 100.48773193359376 182.7379608154297 91.3367919921875 204.3081970214844 90.68304443359376 207.576416015625 91.3367919921875 209.53738403320313 91.3367919921875 209.53738403320313 " />
        <polyline stroke="black" stroke-width="3" stroke-linecap="round" fill="transparent" stroke-linejoin="round" points="73.6883544921875 131.7537841796875 73.6883544921875 130.44650268554688 84.14666748046875 123.25642395019533 109.63873291015624 118.0272979736328 113.56060791015624 117.37364196777344 124.67254638671876 115.41270446777344 141.667236328125 111.49085998535156 155.39373779296875 111.49085998535156 162.5838623046875 114.7590789794922 170.42755126953125 131.7537841796875 173.04217529296875 155.28494262695313 173.69573974609375 178.8161163330078 172.38848876953125 197.77178955078125 171.08123779296875 209.53738403320313 166.5057373046875 216.7274169921875 156.7010498046875 220.6492919921875 144.93548583984375 219.34201049804688 140.3599853515625 216.0738220214844 137.745361328125 214.7665100097656 137.745361328125 214.7665100097656 " />
        </svg>