<?xml version="1.0" standalone="no"?>
    <svg width="256" height="256" xmlns="http://www.w3.org/2000/svg" version="1.1">
    <polyline stroke="black" stroke-width="3" stroke-linecap="round" fill="transparent" stroke-linejoin="round" points="84.59527587890625 57.35821533203125 89.350341796875 69.84022521972656 94.69976806640624 84.10537719726563 100.6435546875 93.61546325683594 108.96490478515624 98.96490478515624 108.96490478515624 98.96490478515624 " />
        <polyline stroke="black" stroke-width="3" stroke-linecap="round" fill="transparent" stroke-linejoin="round" points="139.87271118164063 43.68745422363281 123.23004150390624 87.0772705078125 103.615478515625 129.27833557128906 84.00088500976563 169.6962432861328 70.33013916015625 194.6602478027344 62.603179931640625 207.73663330078125 57.848114013671875 214.27484130859375 57.848114013671875 214.27484130859375 " />
        <polyline stroke="black" stroke-width="3" stroke-linecap="round" fill="transparent" stroke-linejoin="round" points="66.16946411132813 126.30642700195313 80.43460083007813 120.95700073242188 101.23794555664063 113.23004150390624 122.041259765625 107.880615234375 139.2783203125 104.90870666503906 155.32666015625 103.71994018554688 167.80859375 105.50309753417967 175.53558349609375 109.0693817138672 181.4793701171875 116.2019500732422 186.828857421875 133.43899536132813 187.4232177734375 158.40301513671875 183.85693359375 180.3951110839844 178.50750732421875 196.44338989257813 173.75244140625 207.73663330078125 167.80859375 214.27484130859375 154.73223876953125 219.624267578125 139.87271118164063 219.624267578125 129.17385864257813 213.0860595703125 122.041259765625 206.54788208007813 122.041259765625 206.54788208007813 " />
        </svg>