<?xml version="1.0" standalone="no"?>
    <svg width="256" height="256" xmlns="http://www.w3.org/2000/svg" version="1.1">
    <polyline stroke="black" stroke-width="3" stroke-linecap="round" fill="transparent" stroke-linejoin="round" points="89.43487548828125 75.90969848632813 91.64532470703124 81.65681457519531 93.855712890625 87.84602355957031 97.83453369140624 97.1298370361328 100.487060546875 101.10861206054688 100.487060546875 101.10861206054688 " />
        <polyline stroke="black" stroke-width="3" stroke-linecap="round" fill="transparent" stroke-linejoin="round" points="134.96978759765625 71.930908203125 130.54891967773438 83.86724853515625 125.24386596679688 96.24566650390624 97.39242553710938 155.92730712890625 83.687744140625 181.126220703125 73.07769775390625 194.83090209960935 66.00433349609375 200.5780334472656 63.351776123046875 201.904296875 63.351776123046875 201.904296875 " />
        <polyline stroke="black" stroke-width="3" stroke-linecap="round" fill="transparent" stroke-linejoin="round" points="64.2359619140625 106.85574340820313 71.309326171875 103.76113891601563 78.82479858398438 100.66653442382813 96.066162109375 96.24566650390624 104.4658203125 93.5931396484375 123.47552490234376 90.9406280517578 140.71688842773438 91.82479858398438 155.747802734375 96.24566650390624 166.35791015625 103.76113891601563 174.3154296875 117.4658203125 177.8521728515625 136.4755096435547 174.75750732421875 155.92730712890625 169.01043701171875 171.8424072265625 164.1474609375 182.45248413085935 158.8424072265625 188.1996154785156 151.76904296875 192.17840576171875 140.27484130859375 193.06256103515625 132.31723022460938 193.06256103515625 132.31723022460938 193.06256103515625 " />
        </svg>