<?xml version="1.0" standalone="no"?>
    <svg width="256" height="256" xmlns="http://www.w3.org/2000/svg" version="1.1">
    <polyline stroke="black" stroke-width="3" stroke-linecap="round" fill="transparent" stroke-linejoin="round" points="80.64947509765625 105.34921264648438 86.77059936523438 109.63400268554688 94.115966796875 110.85823059082033 103.9097900390625 103.51287841796876 103.9097900390625 103.51287841796876 " />
        <polyline stroke="black" stroke-width="3" stroke-linecap="round" fill="transparent" stroke-linejoin="round" points="136.351806640625 42.91365051269531 121.66107177734376 79.64045715332031 97.78863525390624 131.05796813964844 79.42523193359375 173.90591430664063 70.2435302734375 192.26931762695313 60.449737548828125 210.0205993652344 54.32861328125 217.365966796875 54.32861328125 217.365966796875 " />
        <polyline stroke="black" stroke-width="3" stroke-linecap="round" fill="transparent" stroke-linejoin="round" points="67.79510498046875 123.71261596679688 80.037353515625 115.75514221191406 96.56442260742188 107.185546875 121.66107177734376 98.0038604736328 146.14559936523438 92.4948272705078 164.509033203125 93.10694885253906 177.3634033203125 99.2280731201172 186.5450439453125 114.53091430664063 192.0540771484375 143.912353515625 190.2177734375 167.78477478027344 185.32086181640625 186.76028442382813 179.19970703125 197.7783203125 172.46649169921875 204.51156616210935 156.551513671875 208.79635620117188 134.51544189453125 205.12368774414065 134.51544189453125 205.12368774414065 " />
        </svg>