<?xml version="1.0" standalone="no"?>
    <svg width="256" height="256" xmlns="http://www.w3.org/2000/svg" version="1.1">
    <polyline stroke="black" stroke-width="3" stroke-linecap="round" fill="transparent" stroke-linejoin="round" points="87.61138916015625 74.88465881347656 92.0723876953125 81.01849365234375 96.5333251953125 87.70993041992188 100.43667602539063 92.728515625 103.22479248046876 97.18948364257813 103.22479248046876 97.18948364257813 " />
        <polyline stroke="black" stroke-width="3" stroke-linecap="round" fill="transparent" stroke-linejoin="round" points="148.94964599609375 54.810333251953125 140.58535766601563 77.11514282226563 124.41436767578124 116.70619201660156 106.57049560546876 153.5091552734375 92.6300048828125 180.27493286132813 81.47760009765625 197.5611572265625 70.8828125 212.61691284179688 70.8828125 212.61691284179688 " />
        <polyline stroke="black" stroke-width="3" stroke-linecap="round" fill="transparent" stroke-linejoin="round" points="71.4404296875 132.877197265625 85.38092041015625 126.7433624267578 109.35861206054688 118.93667602539063 129.99057006835938 116.14857482910156 146.16156005859375 117.82144165039063 160.10205078125 122.28240966796876 169.58160400390625 130.64671325683594 177.3883056640625 147.93295288085938 180.1763916015625 171.35301208496094 179.0611572265625 188.6392517089844 176.2730712890625 199.79165649414065 172.9273681640625 205.92547607421875 169.02398681640625 208.71356201171875 164.00537109375 208.71356201171875 151.73779296875 205.92547607421875 151.73779296875 205.92547607421875 " />
        </svg>