<?xml version="1.0" standalone="no"?>
    <svg width="256" height="256" xmlns="http://www.w3.org/2000/svg" version="1.1">
    <polyline stroke="black" stroke-width="3" stroke-linecap="round" fill="transparent" stroke-linejoin="round" points="58.05853271484375 97.60856628417967 72.63427734375 91.86660766601563 80.14300537109375 89.21647644042969 88.53509521484375 86.56634521484375 106.20263671875 81.26608276367188 124.75360107421876 76.84918212890625 140.65438842773438 74.19905090332031 154.34674072265625 71.54891967773438 164.06390380859375 68.89878845214844 170.24755859375 66.2486572265625 173.33935546875 64.04020690917969 174.6644287109375 63.156829833984375 174.6644287109375 63.156829833984375 " />
        <polyline stroke="black" stroke-width="3" stroke-linecap="round" fill="transparent" stroke-linejoin="round" points="100.90234375 41.514068603515625 98.252197265625 57.8565673828125 96.92718505859376 64.04020690917969 94.27703857421876 78.61593627929688 92.06857299804688 92.75 91.18524169921876 103.79222106933594 91.62689208984376 111.30094909667967 93.83538818359376 114.83444213867188 99.13558959960938 117.48458862304688 106.644287109375 118.80963134765624 116.36151123046876 117.92626953125 126.96200561523438 114.83444213867188 137.120849609375 107.76742553710938 144.62957763671875 100.70040893554688 144.62957763671875 100.70040893554688 " />
        <polyline stroke="black" stroke-width="3" stroke-linecap="round" fill="transparent" stroke-linejoin="round" points="149.04647827148438 37.98055267333984 146.8380126953125 50.78953552246094 145.95465087890625 57.8565673828125 145.07125854492188 64.923583984375 142.86279296875 81.26608276367188 140.212646484375 95.84181213378906 135.7957763671875 110.41754150390624 134.029052734375 114.83444213867188 134.029052734375 114.83444213867188 " />
        <polyline stroke="black" stroke-width="3" stroke-linecap="round" fill="transparent" stroke-linejoin="round" points="62.475433349609375 174.90414428710938 78.81793212890625 169.60386657714844 87.21002197265625 167.3954315185547 96.04379272460938 165.18698120117188 103.99420166015624 162.97854614257813 121.22006225585938 159.0033416748047 137.120849609375 156.3531951904297 150.813232421875 154.14476013183594 160.0887451171875 151.49462890625 160.0887451171875 151.49462890625 " />
        <polyline stroke="black" stroke-width="3" stroke-linecap="round" fill="transparent" stroke-linejoin="round" points="99.57733154296876 130.7352294921875 93.83538818359376 140.01071166992188 87.65170288085938 153.26138305664063 81.468017578125 169.16217041015625 77.93453979492188 183.29623413085935 77.93453979492188 194.3384704589844 80.14300537109375 202.28887939453125 81.90975952148438 205.38067626953125 91.18524169921876 210.2392578125 101.78573608398438 210.68096923828125 111.944580078125 208.9141845703125 122.54510498046876 204.497314453125 127.84539794921876 200.08041381835935 127.84539794921876 200.08041381835935 " />
        <polyline stroke="black" stroke-width="3" stroke-linecap="round" fill="transparent" stroke-linejoin="round" points="138.00424194335938 131.17694091796875 133.58734130859375 146.19436645507813 132.26229858398438 153.70309448242188 131.37890625 162.09515380859375 130.0538330078125 178.87933349609375 129.61215209960938 193.01339721679688 128.28707885742188 210.2392578125 128.28707885742188 210.2392578125 " />
        </svg>