<?xml version="1.0" standalone="no"?>
    <svg width="256" height="256" xmlns="http://www.w3.org/2000/svg" version="1.1">
    <polyline stroke="black" stroke-width="3" stroke-linecap="round" fill="transparent" stroke-linejoin="round" points="67.1265869140625 109.61041259765625 81.3389892578125 101.57113647460938 95.5513916015625 93.5318603515625 104.5335693359375 88.65875244140625 116.896484375 81.10760498046875 129.19577026367188 76.3330078125 138.38864135742188 72.85122680664063 138.6827392578125 72.7308349609375 138.70480346679688 72.7218017578125 " />
        <polyline stroke="black" stroke-width="3" stroke-linecap="round" fill="transparent" stroke-linejoin="round" points="124.03512573242188 66.62811279296874 121.41403198242188 86.30670166015625 118.79293823242188 105.98529052734376 115.99517822265624 123.50723266601563 83.83966064453125 194.5614013671875 68.240478515625 210.32086181640625 63.0374755859375 213.87094116210935 62.46514892578125 214.26141357421875 62.459930419921875 214.2650146484375 " />
        <polyline stroke="black" stroke-width="3" stroke-linecap="round" fill="transparent" stroke-linejoin="round" points="69.78094482421875 130.16213989257813 75.11114501953125 129.6859130859375 80.44134521484375 129.20968627929688 95.98199462890624 131.45245361328125 112.64816284179688 139.080322265625 119.24044799804688 144.61029052734375 147.877685546875 163.27835083007813 165.003662109375 173.56805419921875 175.6260986328125 184.18630981445313 179.92523193359375 189.6153564453125 182.84527587890625 195.885986328125 182.3082275390625 201.0374755859375 182.296142578125 201.35208129882813 " />
        </svg>