<?xml version="1.0" standalone="no"?>
    <svg width="256" height="256" xmlns="http://www.w3.org/2000/svg" version="1.1">
    <polyline stroke="black" stroke-width="3" stroke-linecap="round" fill="transparent" stroke-linejoin="round" points="84.36907958984376 98.9269104003906 93.6629638671875 96.0983428955078 102.95684814453124 93.269775390625 113.8670654296875 90.44119262695313 124.77731323242188 87.20854187011719 146.19369506835938 81.55136108398438 155.08349609375 79.53096008300781 170.0345458984375 75.49012756347656 179.3284912109375 72.66156005859375 184.58154296875 70.237060546875 186.1978759765625 69.02481079101563 186.1978759765625 69.02481079101563 " />
        <polyline stroke="black" stroke-width="3" stroke-linecap="round" fill="transparent" stroke-linejoin="round" points="172.05499267578125 28.212478637695313 158.316162109375 55.690086364746094 144.57733154296875 83.16769409179688 136.89974975585938 97.71466064453124 129.22222900390625 113.06980895996094 113.8670654296875 140.14334106445313 106.59359741210938 151.8617401123047 90.8343505859375 174.89443969726563 77.4996337890625 193.48223876953125 68.60983276367188 205.20062255859375 62.95269775390625 210.8577880859375 62.95269775390625 210.8577880859375 " />
        <polyline stroke="black" stroke-width="3" stroke-linecap="round" fill="transparent" stroke-linejoin="round" points="73.86294555664063 149.84130859375 81.13641357421875 151.4576416015625 88.40988159179688 153.073974609375 96.08746337890624 155.09439086914063 103.7650146484375 157.51889038085938 112.250732421875 160.75155639648438 130.03036499023438 168.4291229248047 148.6181640625 176.9148406982422 159.5284423828125 182.5720062255859 159.5284423828125 182.5720062255859 " />
        </svg>