<?xml version="1.0" standalone="no"?>
    <svg width="256" height="256" xmlns="http://www.w3.org/2000/svg" version="1.1">
    <polyline stroke="black" stroke-width="3" stroke-linecap="round" fill="transparent" stroke-linejoin="round" points="72 109 78 109 84 109 99 107 109 105 137 99 154 96 167 91 174 88 174 88 " />
        <polyline stroke="black" stroke-width="3" stroke-linecap="round" fill="transparent" stroke-linejoin="round" points="151 49 143 75 135 101 124 130 111 160 98 187 86 205 78 216 74 218 74 218 " />
        <polyline stroke="black" stroke-width="3" stroke-linecap="round" fill="transparent" stroke-linejoin="round" points="94 133 102 141 110 149 117 155 133 168 143 175 165 193 190 211 212 226 223 231 223 231 " />
        </svg>