<?xml version="1.0" standalone="no"?>
    <svg width="256" height="256" xmlns="http://www.w3.org/2000/svg" version="1.1">
    <polyline stroke="black" stroke-width="3" stroke-linecap="round" fill="transparent" stroke-linejoin="round" points="77.43572998046875 80.32183837890625 93.447998046875 70.4681396484375 108.228515625 61.84614562988281 119.31396484375 56.09814453125 126.29367065429688 52.81358337402344 129.98883056640625 50.76072692871094 130.80999755859375 50.35015106201172 130.80999755859375 50.35015106201172 " />
        <polyline stroke="black" stroke-width="3" stroke-linecap="round" fill="transparent" stroke-linejoin="round" points="79.899169921875 113.1675262451172 74.9722900390625 127.12693786621094 62.244598388671875 159.56204223632813 58.138885498046875 169.0051727294922 55.264892578125 173.1108856201172 54.033172607421875 173.9320068359375 53.62261962890625 173.1108856201172 56.907196044921875 167.77346801757813 67.99261474609375 154.224609375 81.130859375 141.0863494873047 94.26913452148438 130.8220672607422 106.58627319335938 125.4846649169922 116.85055541992188 125.4846649169922 120.545654296875 127.94808959960938 126.29367065429688 144.37091064453125 123.00912475585938 178.85887145996094 109.04974365234376 204.724853515625 101.659423828125 210.47283935546875 93.03744506835938 210.062255859375 90.57403564453124 207.59884643554688 90.57403564453124 207.59884643554688 " />
        <polyline stroke="black" stroke-width="3" stroke-linecap="round" fill="transparent" stroke-linejoin="round" points="157.4970703125 71.69984436035156 157.0865478515625 84.0169677734375 157.0865478515625 110.29351806640624 157.0865478515625 134.9277801513672 157.4970703125 155.04576110839844 157.4970703125 168.59458923339844 156.67596435546875 177.62716674804688 155.85479736328125 182.55401611328125 155.85479736328125 182.9645843505859 155.85479736328125 182.9645843505859 " />
        <polyline stroke="black" stroke-width="3" stroke-linecap="round" fill="transparent" stroke-linejoin="round" points="164.88739013671875 112.75694274902344 170.6353759765625 109.47239685058594 188.700439453125 102.08212280273438 198.55419921875 99.61868286132813 205.9444580078125 98.38697814941406 205.9444580078125 98.38697814941406 " />
        <polyline stroke="black" stroke-width="3" stroke-linecap="round" fill="transparent" stroke-linejoin="round" points="166.11907958984375 143.54977416992188 178.025634765625 140.26519775390625 196.5013427734375 132.05377197265625 201.8387451171875 128.7692108154297 212.10302734375 117.68380737304688 212.10302734375 117.68380737304688 " />
        <polyline stroke="black" stroke-width="3" stroke-linecap="round" fill="transparent" stroke-linejoin="round" points="203.8916015625 66.3624267578125 204.30218505859375 95.10238647460938 205.53387451171875 109.8829345703125 210.871337890625 152.99290466308594 213.74530029296875 183.37515258789065 212.51361083984375 222.37939453125 212.51361083984375 222.37939453125 " />
        </svg>