<?xml version="1.0" standalone="no"?>
    <svg width="256" height="256" xmlns="http://www.w3.org/2000/svg" version="1.1">
    <polyline stroke="black" stroke-width="3" stroke-linecap="round" fill="transparent" stroke-linejoin="round" points="62.34423828125 69.415283203125 69.25244140625 65.75799560546875 77.3797607421875 61.6943359375 85.91342163085938 57.22430419921875 102.16806030273438 49.50335693359375 109.07626342773438 46.25243377685547 120.04818725585938 40.96968078613281 125.7373046875 37.71875 127.36273193359376 36.499656677246094 126.95639038085938 36.093292236328125 122.08001708984376 38.93785095214844 113.13995361328124 47.06517028808594 100.948974609375 62.50706481933594 87.53890991210938 86.48265075683594 74.53521728515625 114.9282684326172 63.563323974609375 144.18658447265625 55.842376708984375 166.94305419921875 50.15325927734375 181.9786071777344 45.6832275390625 190.51226806640625 43.24505615234375 192.95050048828125 42.43231201171875 192.13775634765625 45.27685546875 181.16587829589844 55.842376708984375 159.62847900390625 66.00152587890625 144.18658447265625 76.16064453125 133.62107849121094 88.75799560546875 125.08738708496094 100.13623046875 121.02374267578124 105.01263427734376 120.61737060546876 114.35906982421876 128.33834838867188 117.60995483398438 147.4375 112.73358154296876 170.60037231445313 102.57443237304688 190.10592651367188 92.0089111328125 202.296875 81.84979248046875 208.39239501953125 77.7861328125 208.7987365722656 77.7861328125 208.7987365722656 " />
        <polyline stroke="black" stroke-width="3" stroke-linecap="round" fill="transparent" stroke-linejoin="round" points="144.02377319335938 103.95639038085938 141.58554077148438 116.14736938476563 137.11553955078125 141.34202575683594 135.08367919921875 152.31390380859375 131.02001953125 169.3812713623047 127.36273193359376 181.16587829589844 124.924560546875 186.4486083984375 124.924560546875 186.4486083984375 " />
        <polyline stroke="black" stroke-width="3" stroke-linecap="round" fill="transparent" stroke-linejoin="round" points="161.90380859375 127.52560424804688 168.81207275390625 125.90013122558594 175.31390380859375 124.6810302734375 190.3494873046875 121.43009948730467 194.8194580078125 119.39828491210938 194.8194580078125 119.39828491210938 " />
        <polyline stroke="black" stroke-width="3" stroke-linecap="round" fill="transparent" stroke-linejoin="round" points="146.8682861328125 166.13034057617188 151.7447509765625 166.13034057617188 163.9356689453125 157.59666442871094 163.9356689453125 157.59666442871094 " />
        <polyline stroke="black" stroke-width="3" stroke-linecap="round" fill="transparent" stroke-linejoin="round" points="204.572265625 69.415283203125 201.3212890625 80.79351806640625 197.66400146484375 93.390869140625 193.600341796875 106.80093383789063 186.692138671875 133.2147216796875 181.8157958984375 156.78392028808594 177.75213623046875 177.1022186279297 174.50115966796875 193.76321411132813 171.6566162109375 210.4241943359375 170.03118896484375 221.80242919921875 170.03118896484375 221.80242919921875 " />
        </svg>