<?xml version="1.0" standalone="no"?>
    <svg width="256" height="256" xmlns="http://www.w3.org/2000/svg" version="1.1">
    <polyline stroke="black" stroke-width="3" stroke-linecap="round" fill="transparent" stroke-linejoin="round" points="82.2779541015625 93.54779052734376 89.91241455078125 88.72601318359375 95.537841796875 84.70785522460938 98.75238037109376 82.29696655273438 98.75238037109376 82.29696655273438 " />
        <polyline stroke="black" stroke-width="3" stroke-linecap="round" fill="transparent" stroke-linejoin="round" points="99.15414428710938 141.7655792236328 104.37774658203124 138.5510711669922 110.003173828125 136.54200744628906 114.824951171875 139.3546905517578 119.24490356445313 153.0164031982422 120.45034790039063 173.91079711914063 118.44131469726563 190.7869873046875 115.62857055664063 205.2523498535156 111.61044311523438 214.09228515625 105.58322143554688 217.70864868164065 97.94873046875 214.89593505859375 89.10882568359375 202.43966674804688 89.10882568359375 202.43966674804688 " />
        <polyline stroke="black" stroke-width="3" stroke-linecap="round" fill="transparent" stroke-linejoin="round" points="71.428955078125 127.70207214355467 64.1962890625 148.59645080566406 58.1690673828125 167.88356018066406 52.54364013671875 183.9561767578125 46.918212890625 198.01971435546875 43.70367431640625 209.67233276367188 38.88189697265625 222.53042602539065 38.88189697265625 222.53042602539065 " />
        <polyline stroke="black" stroke-width="3" stroke-linecap="round" fill="transparent" stroke-linejoin="round" points="159.02459716796875 110.02220153808594 158.622802734375 123.68391418457033 158.220947265625 125.6929931640625 157.4173583984375 142.16741943359375 156.61376953125 155.82911682128906 156.61376953125 165.47267150878906 157.01556396484375 174.31259155273438 157.01556396484375 174.31259155273438 " />
        <polyline stroke="black" stroke-width="3" stroke-linecap="round" fill="transparent" stroke-linejoin="round" points="170.67724609375 119.26394653320313 180.72265625 116.45124816894533 185.94622802734375 114.843994140625 191.1697998046875 114.04035949707033 192.777099609375 114.04035949707033 192.777099609375 114.04035949707033 " />
        <polyline stroke="black" stroke-width="3" stroke-linecap="round" fill="transparent" stroke-linejoin="round" points="178.31170654296875 139.75653076171875 193.17889404296875 134.5329132080078 204.83154296875 130.9165802001953 210.4569091796875 128.9075164794922 210.4569091796875 128.9075164794922 " />
        <polyline stroke="black" stroke-width="3" stroke-linecap="round" fill="transparent" stroke-linejoin="round" points="210.85870361328125 93.54779052734376 210.05511474609375 129.7111358642578 210.05511474609375 177.92893981933594 210.4569091796875 209.2705078125 210.4569091796875 234.5848693847656 210.4569091796875 256.2828369140625 210.4569091796875 266.3282470703125 210.4569091796875 270.34637451171875 210.4569091796875 270.34637451171875 " />
        </svg>