<?xml version="1.0" standalone="no"?>
    <svg width="256" height="256" xmlns="http://www.w3.org/2000/svg" version="1.1">
    <polyline stroke="black" stroke-width="3" stroke-linecap="round" fill="transparent" stroke-linejoin="round" points="60.88787841796875 122.83665466308594 71.21371459960938 120.90055847167967 80.89422607421875 117.02835083007813 89.28396606445313 110.57469177246094 96.38299560546876 97.02200317382813 96.38299560546876 97.02200317382813 " />
        <polyline stroke="black" stroke-width="3" stroke-linecap="round" fill="transparent" stroke-linejoin="round" points="82.1849365234375 62.81761169433594 77.02200317382813 97.02200317382813 70.568359375 133.16250610351563 62.1785888671875 162.2039794921875 56.37030029296875 180.27423095703125 50.56201171875 193.82693481445313 46.04443359375 201.57131958007813 46.04443359375 201.57131958007813 " />
        <polyline stroke="black" stroke-width="3" stroke-linecap="round" fill="transparent" stroke-linejoin="round" points="169.309326171875 89.27761840820313 151.88446044921875 107.99322509765624 133.16885375976563 126.0634765625 119.61614990234376 138.325439453125 111.87176513671876 141.55226135253906 111.87176513671876 141.55226135253906 " />
        <polyline stroke="black" stroke-width="3" stroke-linecap="round" fill="transparent" stroke-linejoin="round" points="125.42446899414063 91.8590850830078 120.26153564453124 124.7727508544922 120.26153564453124 148.6512908935547 121.55224609375 169.94837951660156 126.06982421875 188.66400146484375 133.16885375976563 204.15277099609375 144.14007568359375 214.4786376953125 158.338134765625 222.2230224609375 171.2454833984375 224.15911865234375 180.28057861328125 222.2230224609375 188.02496337890625 216.41473388671875 194.4786376953125 202.2166748046875 195.7694091796875 188.01861572265625 193.1878662109375 178.338134765625 193.1878662109375 178.338134765625 " />
        </svg>