<?xml version="1.0" standalone="no"?>
    <svg width="256" height="256" xmlns="http://www.w3.org/2000/svg" version="1.1">
    <polyline stroke="black" stroke-width="3" stroke-linecap="round" fill="transparent" stroke-linejoin="round" points="102.2755126953125 45.21527099609375 97.464111328125 63.92619323730469 87.3067626953125 93.86366271972656 75.54559326171875 121.12814331054688 68.59585571289063 136.0968780517578 62.71527099609375 146.788818359375 60.04229736328125 152.13479614257813 60.04229736328125 152.13479614257813 63.2498779296875 145.18502807617188 72.3380126953125 124.33572387695313 81.42620849609375 107.22859191894533 89.979736328125 95.46745300292967 99.60250854492188 86.91389465332031 113.50204467773438 78.36032104492188 127.93618774414063 73.01434326171875 144.50872802734375 67.66838073730469 160.01202392578125 63.92619323730469 171.23858642578125 61.253204345703125 182.46514892578125 61.253204345703125 188.88031005859375 63.92619323730469 195.830078125 73.5489501953125 201.710693359375 103.48641967773438 200.10687255859375 132.8892822265625 195.830078125 160.6883544921875 188.88031005859375 176.72628784179688 181.9305419921875 186.34906005859375 172.8424072265625 193.8334045410156 161.6158447265625 198.64480590820313 149.85467529296875 196.50640869140625 137.02435302734375 178.330078125 137.02435302734375 178.330078125 " />
        <polyline stroke="black" stroke-width="3" stroke-linecap="round" fill="transparent" stroke-linejoin="round" points="122.5902099609375 77.2911376953125 114.57122802734376 107.76319885253906 105.48309326171876 135.56227111816406 99.06793212890624 151.0655975341797 94.25653076171876 162.2921600341797 92.1181640625 167.10353088378906 94.25653076171876 163.8959503173828 94.25653076171876 163.8959503173828 " />
        <polyline stroke="black" stroke-width="3" stroke-linecap="round" fill="transparent" stroke-linejoin="round" points="147.71630859375 78.36032104492188 145.57791137695313 99.74423217773438 138.09353637695313 130.21629333496094 131.14376831054688 153.20399475097656 122.5902099609375 190.0912170410156 122.5902099609375 190.0912170410156 " />
        </svg>