<?xml version="1.0" standalone="no"?>
    <svg width="256" height="256" xmlns="http://www.w3.org/2000/svg" version="1.1">
    <polyline stroke="black" stroke-width="3" stroke-linecap="round" fill="transparent" stroke-linejoin="round" points="62.589385986328125 99.20223999023435 62.78985595703125 118.97990417480467 62.990325927734375 138.757568359375 62.097137451171875 160.26853942871094 55.55841064453125 193.2724609375 51.017333984375 203.4168701171875 46.602294921875 208.91372680664065 45.976776123046875 205.68841552734375 46.5372314453125 202.9683532714844 " />
        <polyline stroke="black" stroke-width="3" stroke-linecap="round" fill="transparent" stroke-linejoin="round" points="76.83929443359375 76.18258666992188 87.90927124023438 73.10594177246094 98.979248046875 70.029296875 120.90234375 64.04815673828125 136.19732666015625 60.221405029296875 140.04302978515625 59.13157653808594 142.8204345703125 58.46955871582031 145.73895263671875 58.47772216796875 146.71551513671875 59.2694091796875 147.62753295898438 61.71400451660156 155.79486083984375 96.2636260986328 161.6827392578125 141.60018920898438 164.861328125 160.4940643310547 170.32855224609375 183.25164794921875 174.0509033203125 191.83688354492188 181.791015625 204.039306640625 184.90283203125 206.463623046875 189.80657958984375 206.9637756347656 191.52001953125 206.25735473632813 196.42755126953125 203.76318359375 206.71087646484375 188.4237060546875 216.404541015625 166.59933471679688 217.8011474609375 161.6393280029297 " />
        </svg>