<?xml version="1.0" standalone="no"?>
    <svg width="256" height="256" xmlns="http://www.w3.org/2000/svg" version="1.1">
    <polyline stroke="black" stroke-width="3" stroke-linecap="round" fill="transparent" stroke-linejoin="round" points="82.33859252929688 144.5929718017578 81.11947631835938 154.75210571289063 79.90036010742188 164.91123962402344 77.462158203125 177.50857543945313 68.11572265625 209.61148071289065 56.737518310546875 238.46343994140625 48.610198974609375 253.49896240234375 45.765625 257.5626220703125 45.765625 257.5626220703125 " />
        <polyline stroke="black" stroke-width="3" stroke-linecap="round" fill="transparent" stroke-linejoin="round" points="96.15496826171876 119.80462646484375 101.0313720703125 117.77281188964844 105.90777587890624 115.74099731445313 111.59689331054688 112.89642333984376 129.07064819335938 104.36273193359376 139.229736328125 99.48635864257813 146.95068359375 97.45452880859376 152.2335205078125 98.26725769042967 153.85894775390625 100.29910278320313 158.3289794921875 116.14736938476563 160.36077880859375 142.15475463867188 161.57989501953125 167.34942626953125 164.01806640625 187.667724609375 167.6754150390625 201.8905334472656 171.739013671875 212.0496826171875 176.61541748046875 217.73880004882813 185.14910888671875 221.80242919921875 202.622802734375 216.51971435546875 208.31195068359375 211.643310546875 222.5347900390625 190.51226806640625 232.69384765625 164.50486755371094 232.69384765625 164.50486755371094 " />
        </svg>