<?xml version="1.0" standalone="no"?>
    <svg width="256" height="256" xmlns="http://www.w3.org/2000/svg" version="1.1">
    <polyline stroke="black" stroke-width="3" stroke-linecap="round" fill="transparent" stroke-linejoin="round" points="71 80 71 94 71 102 71 124 69 138 68 160 67 178 66 187 66 190 67 191 67 191 " />
        <polyline stroke="black" stroke-width="3" stroke-linecap="round" fill="transparent" stroke-linejoin="round" points="56 94 61 83 68 78 83 67 102 62 120 61 135 61 143 69 147 85 147 107 144 130 142 153 142 170 145 184 156 193 169 197 181 197 190 193 196 187 199 178 199 160 199 137 198 122 198 122 " />
        </svg>