<?xml version="1.0" standalone="no"?>
    <svg width="256" height="256" xmlns="http://www.w3.org/2000/svg" version="1.1">
    <polyline stroke="black" stroke-width="3" stroke-linecap="round" fill="transparent" stroke-linejoin="round" points="59.837615966796875 80.86468505859375 80.037353515625 74.13143920898438 94.72808837890624 70.45875549316406 114.92782592773438 66.17396545410156 137.57601928710938 61.88916015625 162.060546875 56.38014221191406 179.19970703125 50.871124267578125 189.60565185546875 47.198448181152344 195.11468505859375 44.13787841796875 196.3388671875 41.07730865478515 192.666259765625 39.85308074951172 185.32086181640625 41.07730865478515 174.9149169921875 47.198448181152344 163.2847900390625 57.6043701171875 149.81829833984375 74.74354553222656 136.351806640625 96.77963256835938 121.66107177734376 124.93684387207033 103.9097900390625 158.6030731201172 83.09793090820313 196.5541076660156 70.85565185546875 214.91751098632813 64.73452758789063 222.87496948242188 64.73452758789063 222.87496948242188 " />
        <polyline stroke="black" stroke-width="3" stroke-linecap="round" fill="transparent" stroke-linejoin="round" points="74.5283203125 132.28219604492188 87.99481201171875 138.40333557128906 95.95230102539063 143.912353515625 103.29766845703124 150.0334930419922 110.03091430664063 156.76673889160156 116.76416015625 162.8878631591797 123.49740600585938 168.3968963623047 123.49740600585938 168.3968963623047 " />
        <polyline stroke="black" stroke-width="3" stroke-linecap="round" fill="transparent" stroke-linejoin="round" points="128.39431762695313 95.55540466308594 142.472900390625 93.71905517578124 153.490966796875 93.71905517578124 168.18170166015625 96.16751098632813 181.03607177734375 99.84019470214844 193.2783203125 107.185546875 203.0721435546875 118.81570434570313 211.0296630859375 137.17910766601563 213.47802734375 157.37884521484375 211.6417236328125 175.74224853515625 206.1326904296875 189.208740234375 200.0115966796875 197.7783203125 190.2177734375 205.12368774414065 170.630126953125 209.40847778320313 145.53350830078125 203.89947509765625 145.53350830078125 203.89947509765625 " />
        </svg>