<?xml version="1.0" standalone="no"?>
    <svg width="256" height="256" xmlns="http://www.w3.org/2000/svg" version="1.1">
    <polyline stroke="black" stroke-width="3" stroke-linecap="round" fill="transparent" stroke-linejoin="round" points="84.33334350585938 75.11111450195313 82.55557250976563 83.11111450195313 82.55557250976563 88.44444274902344 82.55557250976563 89.33335876464844 85.22222900390625 89.33335876464844 92.33334350585938 84 99.44448852539063 78.66667175292969 108.3333740234375 73.33334350585938 117.22225952148438 68 125.22222900390624 64.4444580078125 130.55557250976563 60.888885498046875 131.4444580078125 58.22222900390625 131.4444580078125 57.33332824707031 131.4444580078125 56.44444274902344 132.33334350585938 60.00001525878906 134.11111450195313 66.22222900390625 136.77777099609375 73.33334350585938 138.55557250976563 80.44444274902344 139.44448852539063 85.77778625488281 138.55557250976563 90.22222900390624 138.55557250976563 90.22222900390624 " />
        <polyline stroke="black" stroke-width="3" stroke-linecap="round" fill="transparent" stroke-linejoin="round" points="108.3333740234375 110.66667175292967 116.33334350585938 108 121.66668701171876 106.22222900390624 130.55557250976563 104.44444274902344 130.55557250976563 104.44444274902344 " />
        <polyline stroke="black" stroke-width="3" stroke-linecap="round" fill="transparent" stroke-linejoin="round" points="76.33334350585938 166.6666717529297 76.33334350585938 170.22222900390625 76.33334350585938 171.11111450195313 79 164.888916015625 82.55557250976563 156.00003051757813 87.88888549804688 147.11114501953125 96.77777099609376 139.11111450195313 112.77780151367188 131.11111450195313 133.22222900390625 125.7777862548828 156.33334350585938 124.888916015625 163.4444580078125 125.7777862548828 166.11111450195313 129.33335876464844 167 141.7777862548828 159.88888549804688 156.00003051757813 152.77780151367188 164.888916015625 146.55557250976563 168.44444274902344 140.33334350585938 170.22222900390625 132.33334350585938 165.7777862548828 123.4444580078125 156.00003051757813 123.4444580078125 156.00003051757813 " />
        <polyline stroke="black" stroke-width="3" stroke-linecap="round" fill="transparent" stroke-linejoin="round" points="109.22222900390624 116.00003051757813 115.4444580078125 163.11111450195313 122.55557250976563 205.77777099609375 127.88888549804688 237.77777099609375 132.33334350585938 260.8888854980469 132.33334350585938 263.5555725097656 132.33334350585938 265.3333435058594 132.33334350585938 265.3333435058594 " />
        </svg>