<?xml version="1.0" standalone="no"?>
    <svg width="256" height="256" xmlns="http://www.w3.org/2000/svg" version="1.1">
    <polyline stroke="black" stroke-width="3" stroke-linecap="round" fill="transparent" stroke-linejoin="round" points="85.94296264648438 70.73051452636719 87.78860473632813 85.95712280273438 88.71142578125 103.49082946777344 88.71142578125 105.79791259765624 89.1728515625 109.02780151367188 89.63427734375 109.48922729492188 91.01849365234376 109.95062255859376 96.09405517578124 109.02780151367188 104.86087036132813 104.87507629394533 120.08749389648438 98.415283203125 131.62286376953125 92.87835693359376 144.54241943359375 86.41856384277344 168.997314453125 76.2674560546875 174.0728759765625 73.96040344238281 183.3011474609375 68.42343139648438 185.60821533203125 67.03919982910156 186.069580078125 66.11637878417969 186.069580078125 66.11637878417969 " />
        <polyline stroke="black" stroke-width="3" stroke-linecap="round" fill="transparent" stroke-linejoin="round" points="181.9168701171875 65.65495300292969 180.07122802734375 76.72886657714844 176.37994384765625 85.95712280273438 169.920166015625 94.72398376464844 169.920166015625 94.72398376464844 " />
        <polyline stroke="black" stroke-width="3" stroke-linecap="round" fill="transparent" stroke-linejoin="round" points="97.939697265625 142.2495574951172 105.78372192382813 139.48106384277344 115.47341918945313 136.71258544921875 140.38970947265625 128.8685760498047 156.5391845703125 122.40878295898438 172.22723388671875 117.33322143554688 180.99407958984375 112.71913146972656 185.60821533203125 109.95062255859376 186.992431640625 109.02780151367188 186.992431640625 109.48922729492188 186.992431640625 109.48922729492188 " />
        <polyline stroke="black" stroke-width="3" stroke-linecap="round" fill="transparent" stroke-linejoin="round" points="95.17120361328124 181.00827026367188 99.323974609375 191.62075805664065 102.0924072265625 199.46481323242188 103.01522827148438 203.61752319335935 101.6309814453125 207.77023315429688 100.24676513671876 204.54034423828125 98.862548828125 198.08053588867188 97.939697265625 191.62075805664065 98.862548828125 188.390869140625 101.16958618164063 185.16098022460935 107.62933349609376 181.00827026367188 119.16470336914063 176.3941192626953 130.23861694335938 171.77999877929688 148.69515991210938 161.16751098632813 164.3831787109375 149.6321563720703 173.15008544921875 144.09518432617188 181.45550537109375 142.2495574951172 188.83807373046875 144.09518432617188 196.68212890625 151.93923950195313 201.2962646484375 162.09030151367188 200.8348388671875 179.6240234375 198.52777099609375 185.16098022460935 191.6065673828125 194.3892517089844 185.14678955078125 197.15774536132813 176.84136962890625 197.15774536132813 163.46038818359375 194.85064697265625 146.8494873046875 180.08544921875 146.8494873046875 180.08544921875 " />
        <polyline stroke="black" stroke-width="3" stroke-linecap="round" fill="transparent" stroke-linejoin="round" points="134.852783203125 69.34626770019531 136.23696899414063 92.87835693359376 137.6212158203125 125.17727661132813 138.5440673828125 158.39901733398438 139.00546264648438 199.46481323242188 138.0826416015625 209.15451049804688 135.77557373046875 229.9180908203125 135.314208984375 234.07080078125 135.314208984375 234.07080078125 " />
        </svg>