<?xml version="1.0" standalone="no"?>
    <svg width="256" height="256" xmlns="http://www.w3.org/2000/svg" version="1.1">
    <polyline stroke="black" stroke-width="3" stroke-linecap="round" fill="transparent" stroke-linejoin="round" points="95.31597900390624 75.63139343261719 94.28756713867188 86.9437255859375 93.2591552734375 99.79866027832033 92.74496459960938 109.05421447753906 94.28756713867188 114.71038818359376 97.37274169921876 117.2813720703125 105.085693359375 116.76716613769533 116.39804077148438 111.6251983642578 131.30975341796875 104.94064331054688 143.13629150390625 98.770263671875 152.391845703125 92.5998992919922 164.2183837890625 79.23077392578125 164.2183837890625 79.23077392578125 " />
        <polyline stroke="black" stroke-width="3" stroke-linecap="round" fill="transparent" stroke-linejoin="round" points="167.8177490234375 64.31906127929688 169.3603515625 74.08880615234375 170.38873291015625 89.51472473144531 170.38873291015625 89.51472473144531 " />
        <polyline stroke="black" stroke-width="3" stroke-linecap="round" fill="transparent" stroke-linejoin="round" points="87.08880615234375 139.9060516357422 101.486328125 136.82086181640625 126.16778564453124 130.1363067626953 144.67889404296875 125.50852966308594 158.56219482421875 122.9375457763672 170.38873291015625 120.88075256347656 176.55914306640625 120.88075256347656 176.55914306640625 120.88075256347656 " />
        <polyline stroke="black" stroke-width="3" stroke-linecap="round" fill="transparent" stroke-linejoin="round" points="90.17398071289063 181.5560302734375 87.60299682617188 187.21218872070313 87.60299682617188 190.81158447265625 89.6597900390625 190.81158447265625 94.28756713867188 187.21218872070313 107.65667724609376 177.44244384765625 130.79556274414063 163.044921875 151.877685546875 152.76097106933594 168.84619140625 148.64739990234375 180.6727294921875 148.64739990234375 187.8714599609375 151.2183837890625 192.499267578125 157.3887481689453 196.0986328125 169.7294921875 192.499267578125 187.21218872070313 183.24365234375 200.067138671875 170.38873291015625 206.23748779296875 155.9912109375 207.78009033203125 155.9912109375 207.78009033203125 " />
        <polyline stroke="black" stroke-width="3" stroke-linecap="round" fill="transparent" stroke-linejoin="round" points="128.73876953125 73.06040954589844 127.71038818359376 93.11410522460938 129.25299072265625 142.99122619628906 132.33816528320313 177.95664978027344 132.85235595703125 203.15231323242188 132.85235595703125 216.52142333984375 132.85235595703125 228.8621826171875 133.8807373046875 237.603515625 133.8807373046875 237.603515625 " />
        </svg>