<?xml version="1.0" standalone="no"?>
    <svg width="256" height="256" xmlns="http://www.w3.org/2000/svg" version="1.1">
    <polyline stroke="black" stroke-width="3" stroke-linecap="round" fill="transparent" stroke-linejoin="round" points="94.141357421875 67.26902770996094 95.5908203125 83.57548522949219 95.5908203125 99.15716552734376 94.141357421875 114.37652587890624 93.41659545898438 116.55070495605467 93.05426025390624 117.27542114257813 93.05426025390624 117.63778686523438 95.22842407226563 115.46359252929688 98.85208129882813 112.20231628417967 104.28759765625 108.57867431640624 111.89727783203124 106.04212951660156 127.84133911132813 102.41844177246094 137.2628173828125 101.69371032714844 142.69830322265625 101.69371032714844 160.81658935546875 98.79481506347656 168.78857421875 96.98297119140624 174.94879150390625 96.2582550048828 178.934814453125 95.89590454101563 180.38427734375 95.53352355957033 180.38427734375 95.53352355957033 " />
        <polyline stroke="black" stroke-width="3" stroke-linecap="round" fill="transparent" stroke-linejoin="round" points="191.97991943359375 81.40127563476563 189.0810546875 92.63459777832033 181.833740234375 106.04212951660156 178.2100830078125 111.83993530273438 178.2100830078125 111.83993530273438 " />
        <polyline stroke="black" stroke-width="3" stroke-linecap="round" fill="transparent" stroke-linejoin="round" points="98.48974609375 147.35174560546875 103.56283569335938 146.62701416015625 108.99832153320313 145.53993225097656 122.76821899414063 141.91627502441406 135.8133544921875 137.93023681640625 156.83050537109375 133.21949768066406 167.339111328125 131.04531860351563 175.67352294921875 129.59585571289063 180.74664306640625 128.87112426757813 182.5584716796875 128.50875854492188 182.5584716796875 128.14639282226563 182.5584716796875 128.14639282226563 " />
        <polyline stroke="black" stroke-width="3" stroke-linecap="round" fill="transparent" stroke-linejoin="round" points="93.77896118164063 203.15597534179688 98.85208129882813 208.2290954589844 102.1134033203125 214.3892822265625 104.28759765625 220.1871337890625 105.37466430664063 225.26025390625 105.37466430664063 228.1591796875 104.28759765625 231.42047119140625 104.28759765625 231.42047119140625 " />
        <polyline stroke="black" stroke-width="3" stroke-linecap="round" fill="transparent" stroke-linejoin="round" points="121.68109130859376 177.06568908691406 132.55206298828125 173.8043975830078 143.785400390625 171.26783752441406 164.07781982421875 166.9194793701172 176.39825439453125 168.36892700195313 182.92083740234375 170.54310607910156 197.05303955078125 175.61622619628906 201.0390625 179.96461486816406 203.21331787109375 185.0377197265625 203.57562255859375 191.92269897460935 202.12615966796875 199.5323486328125 198.86492919921875 207.14202880859375 189.0810546875 216.56353759765625 180.38427734375 220.1871337890625 172.04986572265625 220.911865234375 162.2659912109375 218.01300048828125 162.2659912109375 218.01300048828125 " />
        <polyline stroke="black" stroke-width="3" stroke-linecap="round" fill="transparent" stroke-linejoin="round" points="128.20367431640625 47.33895111083984 128.92837524414063 57.84754943847656 130.0155029296875 70.16796875 131.82730102539063 112.20231628417967 132.55206298828125 141.5539093017578 132.9144287109375 171.26783752441406 133.63916015625 199.5323486328125 134.36386108398438 221.99896240234375 134.72625732421875 245.91510009765625 135.088623046875 249.1763610839844 135.088623046875 249.1763610839844 " />
        </svg>