<?xml version="1.0" standalone="no"?>
    <svg width="256" height="256" xmlns="http://www.w3.org/2000/svg" version="1.1">
    <polyline stroke="black" stroke-width="3" stroke-linecap="round" fill="transparent" stroke-linejoin="round" points="91.30487060546876 78.17398071289063 88.73388671875 87.42953491210938 87.1912841796875 95.6566925048828 87.1912841796875 101.3128662109375 87.1912841796875 105.94064331054688 88.73388671875 110.05421447753906 90.7906494140625 113.139404296875 94.90423583984376 114.68199157714844 102.10299682617188 114.68199157714844 112.386962890625 113.139404296875 124.2135009765625 109.54002380371094 133.46902465820313 104.91224670410156 143.75299072265625 99.25607299804688 151.9801025390625 91.54312133789063 160.207275390625 78.68818664550781 160.207275390625 78.68818664550781 " />
        <polyline stroke="black" stroke-width="3" stroke-linecap="round" fill="transparent" stroke-linejoin="round" points="157.63629150390625 74.57460021972656 158.1505126953125 85.37274169921875 157.63629150390625 97.71348571777344 156.09368896484375 110.05421447753906 156.09368896484375 110.05421447753906 " />
        <polyline stroke="black" stroke-width="3" stroke-linecap="round" fill="transparent" stroke-linejoin="round" points="84.62030029296875 137.82086181640625 97.98944091796876 134.2214813232422 120.61410522460938 128.05111694335938 135.01162719726563 124.45173645019533 149.40914916992188 120.85235595703124 160.72149658203125 118.79556274414063 160.72149658203125 118.79556274414063 " />
        <polyline stroke="black" stroke-width="3" stroke-linecap="round" fill="transparent" stroke-linejoin="round" points="81.02090454101563 177.41404724121094 79.99252319335938 182.5560302734375 78.964111328125 185.6412048339844 78.964111328125 187.697998046875 80.5067138671875 186.66958618164065 85.648681640625 181.013427734375 96.96102905273438 170.7294921875 111.35855102539063 158.9029541015625 127.29864501953124 149.13320922851563 142.72457885742188 143.47703552246094 156.09368896484375 142.44863891601563 167.40606689453125 145.01962280273438 173.06219482421875 148.1048126220703 176.66162109375 154.27517700195313 177.17578125 166.61590576171875 170.4912109375 181.5276336669922 161.7498779296875 189.7547912597656 145.29556274414063 197.46774291992188 133.46902465820313 194.382568359375 124.2135009765625 181.013427734375 124.2135009765625 181.013427734375 " />
        <polyline stroke="black" stroke-width="3" stroke-linecap="round" fill="transparent" stroke-linejoin="round" points="128.32705688476563 73.03201293945313 124.2135009765625 92.05731201171876 120.09991455078124 125.48013305664063 119.07150268554688 153.2467803955078 119.07150268554688 182.04180908203125 120.09991455078124 204.15231323242188 119.585693359375 218.54983520507813 117.01470947265624 230.3763732910156 115.986328125 237.57513427734375 115.986328125 237.57513427734375 " />
        </svg>