<?xml version="1.0" standalone="no"?>
    <svg width="256" height="256" xmlns="http://www.w3.org/2000/svg" version="1.1">
    <polyline stroke="black" stroke-width="3" stroke-linecap="round" fill="transparent" stroke-linejoin="round" points="57.620574951171875 110.73200988769533 70.96826171875 106.4607391357422 85.3837890625 100.5877685546875 98.7314453125 94.18087768554688 110.4774169921875 87.24008178710938 117.9521484375 79.23146057128906 123.82513427734376 69.62112426757813 123.82513427734376 69.62112426757813 " />
        <polyline stroke="black" stroke-width="3" stroke-linecap="round" fill="transparent" stroke-linejoin="round" points="76.84124755859375 68.0194091796875 60.290130615234375 97.3843231201172 45.3406982421875 133.1561279296875 37.865997314453125 150.7750701904297 32.52691650390625 161.9871368408203 31.4591064453125 167.32620239257813 31.4591064453125 167.32620239257813 " />
        <polyline stroke="black" stroke-width="3" stroke-linecap="round" fill="transparent" stroke-linejoin="round" points="80.57861328125 130.48658752441406 92.3245849609375 133.1561279296875 104.60443115234376 136.8934783935547 116.35040283203124 140.096923828125 123.29119873046876 142.76646423339844 126.49465942382813 144.36817932128906 126.49465942382813 144.36817932128906 " />
        <polyline stroke="black" stroke-width="3" stroke-linecap="round" fill="transparent" stroke-linejoin="round" points="51.747589111328125 173.73309326171875 50.679779052734375 182.80950927734375 51.747589111328125 189.2164001464844 56.552764892578125 194.0215759277344 63.493560791015625 194.55548095703125 74.17172241210938 192.41986083984375 86.45159912109375 187.08078002929688 97.1297607421875 180.13998413085938 97.1297607421875 180.13998413085938 " />
        <polyline stroke="black" stroke-width="3" stroke-linecap="round" fill="transparent" stroke-linejoin="round" points="103.53662109375 164.6566619873047 102.46881103515624 172.665283203125 101.93490600585938 179.07217407226563 99.265380859375 183.8773498535156 99.265380859375 183.8773498535156 " />
        <polyline stroke="black" stroke-width="3" stroke-linecap="round" fill="transparent" stroke-linejoin="round" points="75.23953247070313 175.33482360839844 66.1630859375 206.30145263671875 62.95965576171875 220.18304443359375 61.357940673828125 230.32730102539065 61.357940673828125 234.5985412597656 61.357940673828125 234.5985412597656 " />
        <polyline stroke="black" stroke-width="3" stroke-linecap="round" fill="transparent" stroke-linejoin="round" points="140.91015625 143.8342742919922 150.5205078125 141.16473388671875 163.8681640625 137.42738342285156 176.68194580078125 133.69003295898438 187.360107421875 128.3509521484375 197.50433349609375 121.41015625 207.6485595703125 108.06246948242188 207.6485595703125 108.06246948242188 " />
        <polyline stroke="black" stroke-width="3" stroke-linecap="round" fill="transparent" stroke-linejoin="round" points="162.80035400390625 98.9860382080078 153.72393798828125 127.81704711914063 144.64752197265625 155.5802459716797 137.17279052734375 182.27560424804688 131.2998046875 200.428466796875 125.42681884765624 215.37786865234375 121.68948364257813 225.52212524414065 121.68948364257813 225.52212524414065 " />
        <polyline stroke="black" stroke-width="3" stroke-linecap="round" fill="transparent" stroke-linejoin="round" points="161.7325439453125 167.32620239257813 171.3428955078125 172.665283203125 181.48712158203125 180.13998413085938 192.165283203125 192.95376586914065 192.165283203125 192.95376586914065 " />
        </svg>