<?xml version="1.0" standalone="no"?>
    <svg width="256" height="256" xmlns="http://www.w3.org/2000/svg" version="1.1">
    <polyline stroke="black" stroke-width="3" stroke-linecap="round" fill="transparent" stroke-linejoin="round" points="64.06561279296875 98.87858581542967 77.07528686523438 94.68194580078124 83.37030029296875 92.58360290527344 95.96026611328124 88.38693237304688 106.87158203125 84.60993957519531 114.00595092773438 81.67227172851563 117.36325073242188 80.83294677734375 121.14022827148438 79.99360656738281 121.14022827148438 79.99360656738281 " />
        <polyline stroke="black" stroke-width="3" stroke-linecap="round" fill="transparent" stroke-linejoin="round" points="95.12094116210938 58.59062194824219 91.34393310546876 69.92161560058594 87.14727783203125 81.67227172851563 82.53094482421875 95.10159301757813 72.87860107421875 123.21926879882813 60.708251953125 155.9532470703125 51.4755859375 176.9365692138672 44.341278076171875 190.78558349609375 40.144622802734375 198.33956909179688 40.144622802734375 198.33956909179688 " />
        <polyline stroke="black" stroke-width="3" stroke-linecap="round" fill="transparent" stroke-linejoin="round" points="99.31759643554688 112.7275848388672 113.16659545898438 112.30795288085938 126.59591674804688 113.1472625732422 137.92694091796875 113.98660278320313 142.543212890625 114.40625 153.034912109375 116.08494567871094 153.034912109375 116.08494567871094 " />
        <polyline stroke="black" stroke-width="3" stroke-linecap="round" fill="transparent" stroke-linejoin="round" points="79.59326171875 153.8549041748047 78.33428955078125 161.40890502929688 77.07528686523438 168.54324340820313 76.23593139648438 174.83824157714844 74.97698974609375 184.49057006835935 74.97698974609375 189.94622802734375 75.81625366210938 191.6249084472656 79.173583984375 192.0445556640625 82.11126708984375 191.6249084472656 98.05859375 186.16925048828125 109.38958740234376 179.87423706054688 121.55990600585938 170.64157104492188 127.85491943359376 164.3465576171875 127.85491943359376 164.3465576171875 " />
        <polyline stroke="black" stroke-width="3" stroke-linecap="round" fill="transparent" stroke-linejoin="round" points="129.9532470703125 136.2289276123047 129.9532470703125 141.26492309570313 129.9532470703125 145.88125610351563 129.9532470703125 150.49758911132813 129.9532470703125 157.63189697265625 129.11395263671875 162.66790771484375 128.27459716796875 166.02523803710938 128.27459716796875 166.02523803710938 " />
        <polyline stroke="black" stroke-width="3" stroke-linecap="round" fill="transparent" stroke-linejoin="round" points="102.6749267578125 140.4255828857422 100.57659912109376 150.07791137695313 96.37994384765624 171.06124877929688 92.18328857421876 199.59857177734375 90.0849609375 210.9295654296875 89.665283203125 214.70654296875 89.665283203125 214.70654296875 " />
        <polyline stroke="black" stroke-width="3" stroke-linecap="round" fill="transparent" stroke-linejoin="round" points="151.356201171875 84.19027709960938 156.39227294921875 83.35093688964844 162.267578125 82.51161193847656 179.8935546875 79.99360656738281 192.06390380859375 78.73460388183594 202.1358642578125 77.47561645507813 206.33251953125 76.63627624511719 216.82421875 72.01994323730469 216.82421875 72.01994323730469 " />
        <polyline stroke="black" stroke-width="3" stroke-linecap="round" fill="transparent" stroke-linejoin="round" points="197.51953125 47.67928314208984 193.7425537109375 56.492279052734375 178.21490478515625 93.42294311523438 166.8839111328125 121.54058837890624 157.2315673828125 146.7205810546875 148.41854858398438 168.54324340820313 139.60556030273438 191.20523071289065 137.50726318359375 195.40191650390625 136.66790771484375 197.500244140625 136.66790771484375 197.500244140625 " />
        <polyline stroke="black" stroke-width="3" stroke-linecap="round" fill="transparent" stroke-linejoin="round" points="185.3492431640625 139.16659545898438 190.38525390625 144.20257568359375 204.6539306640625 163.92691040039063 215.98486328125 184.91021728515625 221.0208740234375 194.98223876953125 221.0208740234375 194.98223876953125 " />
        </svg>