<?xml version="1.0" standalone="no"?>
    <svg width="256" height="256" xmlns="http://www.w3.org/2000/svg" version="1.1">
    <polyline stroke="black" stroke-width="3" stroke-linecap="round" fill="transparent" stroke-linejoin="round" points="96.01034545898438 109.35366821289063 99.04486083984376 139.74034118652344 99.2686767578125 155.43601989746094 96.33969116210938 186.58151245117188 93.10101318359376 198.5277099609375 85.21688842773438 206.87322998046875 84.968994140625 204.2550048828125 " />
        <polyline stroke="black" stroke-width="3" stroke-linecap="round" fill="transparent" stroke-linejoin="round" points="125.24969482421876 87.11376953125 133.88510131835938 84.53662109375 136.97430419921875 83.43782043457031 144.54180908203125 80.78218078613281 155.44622802734375 78.33250427246094 162.05633544921875 76.95210266113281 162.60467529296875 77.32879638671875 164.5479736328125 82.27433776855469 175.78485107421875 111.88534545898438 179.3192138671875 129.99050903320313 182.271484375 149.54171752929688 182.8682861328125 179.92318725585938 182.51971435546875 204.06866455078125 182.0977783203125 212.10128784179688 180.892822265625 219.35122680664065 180.3294677734375 221.8082275390625 178.7354736328125 222.37576293945313 177.77520751953125 221.4925537109375 173.66015625 218.90838623046875 168.381591796875 216.10647583007813 147.0894775390625 205.28158569335935 147.68756103515625 203.54730224609375 " />
        <polyline stroke="black" stroke-width="3" stroke-linecap="round" fill="transparent" stroke-linejoin="round" points="87.6533203125 139.5454559326172 95.9664306640625 138.5859375 128.59481811523438 137.21499633789063 140.72970581054688 137.3041229248047 170.544189453125 138.84112548828125 187.2806396484375 140.50286865234375 194.6845703125 141.13394165039063 207.86279296875 142.0205535888672 212.315185546875 142.53648376464844 215.445068359375 143.2040252685547 215.46795654296875 143.20889282226563 " />
        </svg>