<?xml version="1.0" standalone="no"?>
    <svg width="256" height="256" xmlns="http://www.w3.org/2000/svg" version="1.1">
    <polyline stroke="black" stroke-width="3" stroke-linecap="round" fill="transparent" stroke-linejoin="round" points="89.5 85.5 89.5 87 90 90 90.5 97 91.5 105 91.5 115 91.5 126.5 90.5 138.5 88.5 155 85.5 165 83.5 174 82.5 177.5 80.5 184 78.5 188 78.5 188 " />
        <polyline stroke="black" stroke-width="3" stroke-linecap="round" fill="transparent" stroke-linejoin="round" points="133 52 138 49 143 46.5 149 43.5 153.5 42 156 41 156.5 41 157 41.5 157 42 157 42.5 156.5 43.5 156 44.5 156 46 155.5 47.5 155.5 49.5 155.5 54 155.5 57.5 155.5 61 155.5 65 156 72 156.5 78 156.5 83.5 157 89 157.5 95 158.5 105 159 112 159.5 119.5 160.5 127.5 161.5 135.5 163.5 147.5 165 155.5 166.5 162.5 168 169 169 174.5 169.5 180 170 183.5 170.5 185.5 170.5 186 169 185 166.5 183 159.5 177.5 156.5 175.5 147.5 171.5 135 168.5 135 168.5 " />
        <polyline stroke="black" stroke-width="3" stroke-linecap="round" fill="transparent" stroke-linejoin="round" points="72.5 134 80.5 132 89.5 129.5 99.5 126 117.5 121 128 118.5 144.5 114.5 157.5 112.5 170 111 187.5 110.5 197.5 111 205 112 211 113.5 216.5 115.5 218 116.5 218.5 117 218.5 118 218.5 117.5 218 117.5 217.5 117 217 116.5 217 116.5 " />
        </svg>