<?xml version="1.0" standalone="no"?>
    <svg width="256" height="256" xmlns="http://www.w3.org/2000/svg" version="1.1">
    <polyline stroke="black" stroke-width="3" stroke-linecap="round" fill="transparent" stroke-linejoin="round" points="99.56991577148438 80.32183837890625 97.51708984375 105.77725219726563 91.76904296875 130.4114990234375 83.14706420898438 151.35061645507813 75.34619140625 165.31002807617188 68.36651611328125 174.75315856933594 63.02911376953125 180.50115966796875 63.02911376953125 180.50115966796875 " />
        <polyline stroke="black" stroke-width="3" stroke-linecap="round" fill="transparent" stroke-linejoin="round" points="111.06591796875 54.86643981933594 115.99276733398438 53.63471984863281 120.91961669921876 52.40300750732422 136.931884765625 50.35015106201172 147.606689453125 52.40300750732422 157.04986572265625 57.74043273925781 165.671875 68.415283203125 175.114990234375 88.1226806640625 181.2735595703125 112.75694274902344 183.326416015625 134.5172119140625 182.5052490234375 152.1717529296875 179.63128662109375 165.72061157226563 175.52557373046875 175.1637420654297 170.1881103515625 181.32229614257813 160.33441162109375 185.42800903320313 152.12298583984375 186.2491455078125 141.85873413085938 185.42800903320313 141.85873413085938 185.42800903320313 " />
        <polyline stroke="black" stroke-width="3" stroke-linecap="round" fill="transparent" stroke-linejoin="round" points="63.439666748046875 115.22036743164063 83.5576171875 111.52523803710938 109.83419799804688 108.65122985839844 138.57415771484375 108.65122985839844 167.31414794921875 109.8829345703125 192.76953125 113.1675262451172 211.65576171875 115.63095092773438 224.7940673828125 117.68380737304688 230.1314697265625 119.32609558105467 230.1314697265625 119.32609558105467 " />
        </svg>