<?xml version="1.0" standalone="no"?>
    <svg width="256" height="256" xmlns="http://www.w3.org/2000/svg" version="1.1">
    <polyline stroke="black" stroke-width="3" stroke-linecap="round" fill="transparent" stroke-linejoin="round" points="88.466796875 137.86668395996094 87.4000244140625 159.20001220703125 84.2000732421875 172.00001525878906 81.00006103515625 178.40003967285156 73.53338623046875 175.20001220703125 73.53338623046875 175.20001220703125 " />
        <polyline stroke="black" stroke-width="3" stroke-linecap="round" fill="transparent" stroke-linejoin="round" points="113.00006103515624 71.73333740234375 125.80010986328124 66.40000915527344 140.7333984375 64.26667785644531 143.933349609375 63.20002746582031 149.2667236328125 63.20002746582031 149.2667236328125 67.4666748046875 150.3333740234375 85.60000610351563 150.3333740234375 113.33334350585938 152.466796875 156.00001525878906 155.666748046875 178.40003967285156 157.8001708984375 190.13336181640625 157.8001708984375 194.40005493164065 157.8001708984375 195.4666748046875 154.60009765625 192.2666931152344 141.8001708984375 177.33334350585938 127.93341064453124 164.53334045410156 127.93341064453124 164.53334045410156 " />
        <polyline stroke="black" stroke-width="3" stroke-linecap="round" fill="transparent" stroke-linejoin="round" points="60.7333984375 145.33334350585938 98.06671142578124 136.80001831054688 137.533447265625 130.40003967285156 182.3333740234375 122.93336486816406 196.2000732421875 121.86668395996094 201.533447265625 121.86668395996094 204.7333984375 121.86668395996094 204.7333984375 121.86668395996094 " />
        </svg>