<?xml version="1.0" standalone="no"?>
    <svg width="256" height="256" xmlns="http://www.w3.org/2000/svg" version="1.1">
    <polyline stroke="black" stroke-width="3" stroke-linecap="round" fill="transparent" stroke-linejoin="round" points="95.48992919921876 67.25221252441406 120.74609375 62.58226013183594 145.26327514648438 55.082481384277344 155.6085205078125 51.96981048583984 161.56463623046875 50.10321044921875 169.9063720703125 48.19877624511719 170.2464599609375 48.13533782958984 170.26824951171875 48.13127899169922 " />
        <polyline stroke="black" stroke-width="3" stroke-linecap="round" fill="transparent" stroke-linejoin="round" points="78.66195678710938 101.7615966796875 75.13070678710938 121.89028930664063 62.58746337890625 166.46990966796875 54.99591064453125 185.31304931640625 48.4371337890625 198.227294921875 39.238372802734375 211.74105834960935 38.239501953125 213.22378540039065 39.50244140625 210.45620727539065 " />
        <polyline stroke="black" stroke-width="3" stroke-linecap="round" fill="transparent" stroke-linejoin="round" points="89.12338256835938 170.99974060058594 107.41940307617188 182.072265625 115.2340087890625 187.27239990234375 118.603759765625 190.69879150390625 118.917724609375 191.2835998535156 " />
        <polyline stroke="black" stroke-width="3" stroke-linecap="round" fill="transparent" stroke-linejoin="round" points="153.24432373046875 113.56785583496094 149.81613159179688 131.4861297607422 145.61492919921875 152.63963317871094 141.55804443359375 171.4071044921875 131.82113647460938 202.76937866210935 127.44821166992188 212.12612915039065 128.04034423828125 207.79782104492188 " />
        <polyline stroke="black" stroke-width="3" stroke-linecap="round" fill="transparent" stroke-linejoin="round" points="177.5078125 168.33993530273438 196.05078125 183.5568084716797 204.021240234375 191.43356323242188 210.2696533203125 200.6695251464844 210.81378173828125 201.53271484375 " />
        </svg>