<?xml version="1.0" standalone="no"?>
    <svg width="256" height="256" xmlns="http://www.w3.org/2000/svg" version="1.1">
    <polyline stroke="black" stroke-width="3" stroke-linecap="round" fill="transparent" stroke-linejoin="round" points="45.895233154296875 83.22274780273438 45.521209716796875 84.3448486328125 45.147186279296875 85.46694946289063 44.773162841796875 86.58903503417969 44.773162841796875 87.71112060546875 44.773162841796875 87.33709716796875 45.147186279296875 86.21499633789063 48.88751220703125 78.3603515625 55.24603271484375 66.391357421875 62.726654052734375 55.170440673828125 69.83322143554688 47.3157958984375 76.56576538085938 42.453399658203125 82.55026245117188 40.20921325683594 86.29052734375 41.33131408691406 87.78671264648438 46.19371032714844 84.04638671875 58.162689208984375 74.69561767578125 71.62779235839844 64.59677124023438 81.72662353515625 54.12396240234375 89.58126831054688 47.017333984375 93.32159423828124 43.27703857421875 95.19174194335938 42.15496826171875 95.56576538085938 42.90301513671875 95.19174194335938 48.51348876953125 92.57351684570313 59.734375 88.08514404296875 71.329345703125 83.59677124023438 80.68011474609375 80.60453796386719 83.29833984375 79.85647583007813 83.29833984375 79.85647583007813 " />
        <polyline stroke="black" stroke-width="3" stroke-linecap="round" fill="transparent" stroke-linejoin="round" points="32.43011474609375 144.56378173828125 39.536712646484375 139.70138549804688 46.643310546875 134.8389892578125 54.12396240234375 130.35061645507813 67.96307373046875 123.99209594726563 79.1839599609375 120.99984741210938 85.54248046875 120.62582397460938 87.78671264648438 121.37388610839844 88.16073608398438 122.4959716796875 85.54248046875 128.10643005371094 66.46697998046875 143.8157196044922 49.63555908203125 153.16648864746094 39.910736083984375 158.40292358398438 35.04833984375 161.02114868164063 32.804168701171875 162.1432342529297 32.430145263671875 162.5172576904297 38.788665771484375 164.38742065429688 54.12396240234375 164.01339721679688 68.71112060546875 160.6470947265625 81.05413818359375 155.7847137451172 85.16845703125 152.79246520996094 95.26730346679688 134.8389892578125 95.26730346679688 134.8389892578125 " />
        <polyline stroke="black" stroke-width="3" stroke-linecap="round" fill="transparent" stroke-linejoin="round" points="64.22280883789063 46.941772460937486 61.23052978515625 79.85647583007813 58.238250732421875 112.77117919921876 57.490203857421875 127.73240661621094 57.116180419921875 171.86802673339844 57.864227294921875 184.9591064453125 59.3603515625 192.81375122070313 60.85650634765625 195.43197631835935 60.85650634765625 195.43197631835935 " />
        <polyline stroke="black" stroke-width="3" stroke-linecap="round" fill="transparent" stroke-linejoin="round" points="109.8544921875 117.63360595703122 120.32736206054688 111.27507019042967 130.80023193359375 104.91653442382813 139.40292358398438 99.68009948730467 146.883544921875 94.81770324707033 157.73046875 86.21499633789063 157.73046875 86.21499633789063 " />
        <polyline stroke="black" stroke-width="3" stroke-linecap="round" fill="transparent" stroke-linejoin="round" points="132.67034912109375 83.22276306152345 128.5560302734375 94.81770324707033 124.44171142578124 106.4126434326172 120.32736206054688 120.25180053710938 114.71688842773438 146.05990600585938 111.3505859375 166.631591796875 110.6025390625 176.73043823242188 110.228515625 186.08120727539065 112.09869384765624 187.57733154296875 113.59481811523438 185.7071533203125 113.59481811523438 185.7071533203125 " />
        <polyline stroke="black" stroke-width="3" stroke-linecap="round" fill="transparent" stroke-linejoin="round" points="136.78466796875 160.27308654785156 140.15097045898438 161.39517211914063 143.51727294921875 162.5172576904297 146.883544921875 163.63934326171875 158.478515625 161.02114868164063 161.470703125 157.28082275390625 161.470703125 157.28082275390625 " />
        <polyline stroke="black" stroke-width="3" stroke-linecap="round" fill="transparent" stroke-linejoin="round" points="168.9512939453125 103.42041015625 179.4241943359375 97.4359130859375 189.8970947265625 91.451416015625 195.881591796875 88.08514404296875 207.47650146484375 79.48245239257813 212.33892822265625 73.87197875976563 212.33892822265625 73.87197875976563 " />
        <polyline stroke="black" stroke-width="3" stroke-linecap="round" fill="transparent" stroke-linejoin="round" points="199.9959716796875 64.89524841308594 195.881591796875 77.986328125 191.7672119140625 91.07740783691406 180.92034912109375 130.7246551513672 175.30987548828125 153.91455078125 171.569580078125 170.37191772460938 170.447509765625 175.98236083984375 169.32537841796875 182.34088134765625 169.69940185546875 182.71490478515625 169.69940185546875 182.71490478515625 " />
        <polyline stroke="black" stroke-width="3" stroke-linecap="round" fill="transparent" stroke-linejoin="round" points="189.52301025390625 138.9533233642578 197.377685546875 150.54827880859375 205.23236083984375 162.1432342529297 214.9571533203125 178.60057067871094 214.9571533203125 178.60057067871094 " />
        </svg>