<?xml version="1.0" standalone="no"?>
    <svg width="256" height="256" xmlns="http://www.w3.org/2000/svg" version="1.1">
    <polyline stroke="black" stroke-width="3" stroke-linecap="round" fill="transparent" stroke-linejoin="round" points="85.40011596679688 57.35652160644531 85.40011596679688 62.148834228515625 85.40011596679688 66.94113159179688 86.084716796875 73.10269165039063 86.76937866210938 75.49884033203125 89.16552734375 78.57962036132813 94.30014038085938 81.31808471679688 103.20013427734376 83.37191772460938 107.992431640625 83.7142333984375 124.4232177734375 80.63346862792969 137.088623046875 72.07575988769531 143.59246826171875 64.88729858398438 143.59246826171875 64.88729858398438 " />
        <polyline stroke="black" stroke-width="3" stroke-linecap="round" fill="transparent" stroke-linejoin="round" points="152.8348388671875 46.06035614013672 155.5732421875 55.98728942871094 156.9425048828125 70.02191162109375 156.25787353515625 79.9488525390625 156.25787353515625 79.9488525390625 " />
        <polyline stroke="black" stroke-width="3" stroke-linecap="round" fill="transparent" stroke-linejoin="round" points="67.2578125 154.91429138183594 66.91549682617188 159.36428833007813 66.57318115234375 165.52584838867188 66.57318115234375 167.23736572265625 66.57318115234375 167.92198181152344 66.57318115234375 167.57968139648438 66.57318115234375 167.57968139648438 " />
        <polyline stroke="black" stroke-width="3" stroke-linecap="round" fill="transparent" stroke-linejoin="round" points="93.273193359375 132.66427612304688 106.28094482421876 128.21426391601563 120.6578369140625 124.44888305664063 135.71942138671875 122.39501953125 149.06942749023438 123.07965087890624 157.96942138671875 126.5027313232422 163.7886962890625 131.29502868652344 166.184814453125 134.71812438964844 169.26556396484375 147.72581481933594 167.21173095703125 153.20274353027344 164.1309814453125 154.91429138183594 164.1309814453125 154.91429138183594 " />
        <polyline stroke="black" stroke-width="3" stroke-linecap="round" fill="transparent" stroke-linejoin="round" points="114.838623046875 40.92573547363281 116.8924560546875 58.72575378417969 118.9462890625 77.89498901367188 120.6578369140625 97.74885559082033 122.369384765625 117.94503784179688 125.79248046875 155.9412078857422 128.87322998046875 186.0643310546875 131.26937866210938 210.02587890625 130.92709350585938 231.59127807617188 130.92709350585938 231.59127807617188 " />
        </svg>