<?xml version="1.0" standalone="no"?>
    <svg width="256" height="256" xmlns="http://www.w3.org/2000/svg" version="1.1">
    <polyline stroke="black" stroke-width="3" stroke-linecap="round" fill="transparent" stroke-linejoin="round" points="85.25 108.75 86.5 115 87.75 128.75 87.75 131.25 87.75 132.5 99 122.5 126.5 100 146.5 86.25 165.25 75 169 72.5 170.25 70 169 70 167.75 71.25 167.75 71.25 " />
        <polyline stroke="black" stroke-width="3" stroke-linecap="round" fill="transparent" stroke-linejoin="round" points="171.5 71.25 171.5 76.25 171.5 95 169 110 169 110 " />
        <polyline stroke="black" stroke-width="3" stroke-linecap="round" fill="transparent" stroke-linejoin="round" points="82.75 188.75 86.5 200 89 207.5 90.25 211.25 90.25 212.5 90.25 211.25 90.25 211.25 " />
        <polyline stroke="black" stroke-width="3" stroke-linecap="round" fill="transparent" stroke-linejoin="round" points="126.5 143.75 144 128.75 159 120 172.75 115 180.25 113.75 186.5 115 187.75 120 189 128.75 186.5 145 184 153.75 181.5 161.25 177.75 166.25 171.5 168.75 164 170 154 168.75 154 168.75 " />
        <polyline stroke="black" stroke-width="3" stroke-linecap="round" fill="transparent" stroke-linejoin="round" points="132.75 57.5 134 65 136.5 87.5 141.5 118.75 145.25 162.5 150.25 207.5 154 245 155.25 271.25 155.25 281.25 155.25 281.25 " />
        </svg>