<?xml version="1.0" standalone="no"?>
    <svg width="256" height="256" xmlns="http://www.w3.org/2000/svg" version="1.1">
    <polyline stroke="black" stroke-width="3" stroke-linecap="round" fill="transparent" stroke-linejoin="round" points="79 56 79 62 79 69 79 77 79 84 79 89 79 94 79 99 79 101 79 103 79 104 79 105 80 105 88 105 100 101 114 94 126 88 133 85 136 83 138 83 139 83 141 83 141 83 " />
        <polyline stroke="black" stroke-width="3" stroke-linecap="round" fill="transparent" stroke-linejoin="round" points="162 52 160 62 152 78 145 91 137 104 137 104 " />
        <polyline stroke="black" stroke-width="3" stroke-linecap="round" fill="transparent" stroke-linejoin="round" points="72 151 75 156 77 163 79 169 82 173 84 178 84 178 " />
        <polyline stroke="black" stroke-width="3" stroke-linecap="round" fill="transparent" stroke-linejoin="round" points="88 140 94 137 101 132 110 126 121 120 131 115 140 111 150 108 157 106 161 105 164 104 167 104 169 104 170 104 172 104 173 106 173 110 174 118 174 130 174 142 174 154 173 163 171 170 169 176 167 179 165 182 162 182 158 182 153 179 148 173 143 166 136 154 136 154 " />
        <polyline stroke="black" stroke-width="3" stroke-linecap="round" fill="transparent" stroke-linejoin="round" points="118 46 118 50 118 54 118 59 118 67 118 79 118 94 118 108 119 125 121 141 122 157 123 172 123 184 124 194 124 201 124 207 124 212 124 216 124 219 124 220 124 222 124 223 124 224 124 224 " />
        </svg>