<?xml version="1.0" standalone="no"?>
    <svg width="256" height="256" xmlns="http://www.w3.org/2000/svg" version="1.1">
    <polyline stroke="black" stroke-width="3" stroke-linecap="round" fill="transparent" stroke-linejoin="round" points="38.6373291015625 78.58883666992185 40.0626220703125 94.13897705078124 41.4879150390625 109.68911743164063 42.54931640625 125.7955322265625 42.79315185546875 152.22984313964844 42.6962890625 159.04612731933594 42.8902587890625 162.8251953125 42.914886474609375 162.83828735351563 49.17724609375 160.020751953125 57.6729736328125 156.71572875976563 74.724609375 147.2537078857422 90.39193725585938 137.8248291015625 95.732666015625 134.2500457763672 104.1571044921875 128.38919067382813 106.678466796875 126.61882019042967 108.44140625 125.25621032714844 108.56024169921876 125.16436767578124 " />
        <polyline stroke="black" stroke-width="3" stroke-linecap="round" fill="transparent" stroke-linejoin="round" points="100.10330200195313 84.07257080078125 101.6014404296875 107.20712280273438 103.09957885742188 130.3416748046875 103.2718505859375 138.90274047851563 102.79183959960938 144.5224609375 102.78204345703124 145.95213317871094 " />
        <polyline stroke="black" stroke-width="3" stroke-linecap="round" fill="transparent" stroke-linejoin="round" points="74.1239013671875 64.37074279785158 74.5699462890625 91.10293579101563 75.0159912109375 117.83512878417967 74.7181396484375 166.81732177734375 74.57666015625 182.88345336914065 73.98397827148438 207.01220703125 73.62615966796875 216.3140869140625 71.11517333984375 218.3193359375 70.54183959960938 215.2777404785156 " />
        <polyline stroke="black" stroke-width="3" stroke-linecap="round" fill="transparent" stroke-linejoin="round" points="122.66400146484376 83.48040771484372 125.11639404296876 101.16496276855467 127.56878662109376 118.84951782226563 128.59677124023438 125.52166748046876 132.20062255859375 135.83079528808594 133.91571044921875 138.08782958984375 136.309326171875 137.980224609375 146.71942138671875 138.01817321777344 169.384765625 134.0267791748047 179.82275390625 126.8442840576172 183.7567138671875 123.35289001464844 201.8609619140625 117.19645690917967 202.2119140625 116.20773315429688 201.37646484375 114.61541748046876 201.3233642578125 114.51408386230467 " />
        <polyline stroke="black" stroke-width="3" stroke-linecap="round" fill="transparent" stroke-linejoin="round" points="181.8642578125 70.67453002929688 183.31317138671875 83.006591796875 184.7620849609375 95.33865356445313 187.7650146484375 121.97447204589844 193.7982177734375 130.91033935546875 200.1165771484375 141.89834594726563 200.90838623046875 143.3793182373047 200.9775390625 143.50877380371094 " />
        <polyline stroke="black" stroke-width="3" stroke-linecap="round" fill="transparent" stroke-linejoin="round" points="136.73883056640625 40.02360534667969 145.515869140625 64.74229431152344 154.29290771484375 89.46098327636719 163.176025390625 144.31939697265625 164.66522216796875 170.0108642578125 163.48931884765625 208.18768310546875 163.580322265625 224.6253662109375 163.20208740234375 227.16580200195313 " />
        </svg>