<?xml version="1.0" standalone="no"?>
    <svg width="256" height="256" xmlns="http://www.w3.org/2000/svg" version="1.1">
    <polyline stroke="black" stroke-width="3" stroke-linecap="round" fill="transparent" stroke-linejoin="round" points="65 146 68 143 77 137 87 129 95 125 100 122 99 122 97 123 92 127 90 129 90 129 " />
        <polyline stroke="black" stroke-width="3" stroke-linecap="round" fill="transparent" stroke-linejoin="round" points="79 144 79 148 83 158 87 167 93 175 100 181 109 186 110 184 110 184 " />
        <polyline stroke="black" stroke-width="3" stroke-linecap="round" fill="transparent" stroke-linejoin="round" points="113 147 112 150 110 157 107 169 105 176 103 182 101 189 96 198 93 200 92 200 92 200 " />
        <polyline stroke="black" stroke-width="3" stroke-linecap="round" fill="transparent" stroke-linejoin="round" points="75 213 75 213 78 213 85 207 92 201 100 195 107 189 114 185 119 183 128 177 136 173 145 167 159 157 163 153 163 153 " />
        <polyline stroke="black" stroke-width="3" stroke-linecap="round" fill="transparent" stroke-linejoin="round" points="139 125 145 120 160 112 169 109 177 107 182 107 184 109 185 115 186 128 186 139 187 151 186 164 184 180 182 187 180 191 179 194 178 195 175 193 171 185 167 176 167 173 167 173 " />
        <polyline stroke="black" stroke-width="3" stroke-linecap="round" fill="transparent" stroke-linejoin="round" points="156 125 157 125 158 129 158 138 158 149 155 169 152 181 147 193 141 206 132 222 129 229 128 232 128 231 128 231 " />
        </svg>