<?xml version="1.0" standalone="no"?>
    <svg width="256" height="256" xmlns="http://www.w3.org/2000/svg" version="1.1">
    <polyline stroke="black" stroke-width="3" stroke-linecap="round" fill="transparent" stroke-linejoin="round" points="49 84 47 85 46 85 49 85 51 84 57 82 72 78 84 76 95 75 95 75 " />
        <polyline stroke="black" stroke-width="3" stroke-linecap="round" fill="transparent" stroke-linejoin="round" points="60 87 60 86 60 85 60 88 60 97 60 111 60 122 60 125 60 137 63 144 63 144 " />
        <polyline stroke="black" stroke-width="3" stroke-linecap="round" fill="transparent" stroke-linejoin="round" points="84 88 83 86 82 84 81 83 81 85 82 94 81 109 79 126 77 143 76 154 76 159 76 159 " />
        <polyline stroke="black" stroke-width="3" stroke-linecap="round" fill="transparent" stroke-linejoin="round" points="49 159 52 158 68 154 79 150 83 149 98 145 102 144 102 144 " />
        <polyline stroke="black" stroke-width="3" stroke-linecap="round" fill="transparent" stroke-linejoin="round" points="128 79 137 78 150 75 162 72 173 69 179 68 182 67 183 67 183 66 181 66 181 68 181 72 179 82 176 96 173 111 170 123 168 132 168 140 167 144 167 147 167 148 165 146 163 143 159 138 154 128 151 123 151 123 " />
        <polyline stroke="black" stroke-width="3" stroke-linecap="round" fill="transparent" stroke-linejoin="round" points="133 82 133 87 132 100 130 124 127 154 124 174 122 199 122 206 123 209 123 209 " />
        </svg>