<?xml version="1.0" standalone="no"?>
    <svg width="256" height="256" xmlns="http://www.w3.org/2000/svg" version="1.1">
    <polyline stroke="black" stroke-width="3" stroke-linecap="round" fill="transparent" stroke-linejoin="round" points="86.29052734374999 75.36810302734374 89.28280639648438 88.08514404296875 92.27508544921876 100.80218505859376 93.77117919921876 107.16070556640624 95.641357421875 117.25955200195313 96.389404296875 122.8699951171875 96.389404296875 125.11418151855467 96.389404296875 125.11418151855467 " />
        <polyline stroke="black" stroke-width="3" stroke-linecap="round" fill="transparent" stroke-linejoin="round" points="99.00769042968753 73.12393188476563 104.61810302734376 69.75764465332031 110.228515625 66.391357421875 128.9300537109375 58.91075134277344 140.52499389648438 58.536712646484375 148.753662109375 62.27703857421875 156.23431396484375 73.87197875976563 160.72265625 94.44367980957033 160.3486328125 112.39715576171876 159.2265625 119.12969970703124 156.23431396484375 127.35838317871094 151.3719482421875 131.0986785888672 149.127685546875 129.97659301757813 149.127685546875 129.97659301757813 " />
        <polyline stroke="black" stroke-width="3" stroke-linecap="round" fill="transparent" stroke-linejoin="round" points="116.96112060546876 42.079376220703125 117.33514404296876 51.804168701171875 117.70916748046876 61.528961181640625 118.08319091796876 71.62779235839844 120.32736206054688 94.06964111328124 122.945556640625 116.511474609375 124.81573486328124 136.70913696289063 124.81573486328124 145.31185913085938 124.44171142578124 153.91455078125 124.44171142578124 153.91455078125 " />
        <polyline stroke="black" stroke-width="3" stroke-linecap="round" fill="transparent" stroke-linejoin="round" points="115.09091186523438 177.47848510742188 120.32736206054688 175.60833740234375 125.56381225585938 173.73818969726563 137.15875244140625 170.37191772460938 142.39520263671875 169.24981689453125 154.3641357421875 167.005615234375 157.73046875 167.37966918945313 157.73046875 167.37966918945313 " />
        <polyline stroke="black" stroke-width="3" stroke-linecap="round" fill="transparent" stroke-linejoin="round" points="50.009521484375 202.5385437011719 58.238250732421875 200.66839599609375 66.46697998046875 198.7982482910156 87.41265869140625 195.43197631835935 110.9765625 193.18777465820313 135.28857421875 193.18777465820313 160.72265625 194.68389892578125 173.065673828125 195.43197631835935 205.23236083984375 198.0501708984375 216.8272705078125 201.04241943359375 216.8272705078125 201.04241943359375 " />
        </svg>