<?xml version="1.0" standalone="no"?>
    <svg width="256" height="256" xmlns="http://www.w3.org/2000/svg" version="1.1">
    <polyline stroke="black" stroke-width="3" stroke-linecap="round" fill="transparent" stroke-linejoin="round" points="86.80413818359375 70.66864013671875 84.9703369140625 83.50515747070313 83.87008666992188 90.8402862548828 83.13656616210938 98.90896606445313 82.03631591796875 105.87734985351563 80.2025146484375 118.34709167480467 79.468994140625 123.11492919921876 78.7354736328125 127.14927673339844 77.2684326171875 131.9171142578125 76.90170288085938 133.0173797607422 76.90170288085938 133.0173797607422 " />
        <polyline stroke="black" stroke-width="3" stroke-linecap="round" fill="transparent" stroke-linejoin="round" points="83.13656616210938 79.10406494140625 94.50604248046876 68.8348388671875 98.90716552734376 65.90078735351563 109.17636108398438 60.3994140625 114.31097412109376 57.832122802734375 119.81231689453124 55.99833679199219 129.34799194335938 53.79779052734375 136.31640625 54.16454315185547 142.18450927734375 58.198883056640625 145.48532104492188 62.5999755859375 154.654296875 84.60542297363281 156.12127685546875 100.00924682617188 153.9207763671875 112.47897338867188 149.88641357421875 121.64791870117188 144.38507080078125 126.7825164794922 139.6171875 128.24954223632813 139.6171875 128.24954223632813 " />
        <polyline stroke="black" stroke-width="3" stroke-linecap="round" fill="transparent" stroke-linejoin="round" points="105.14202880859376 19.322593688964844 105.87554931640624 33.259368896484375 106.60906982421876 43.89533996582031 107.34259033203124 55.99833679199219 108.07611083984376 70.66864013671875 111.37689208984376 109.17816162109376 113.210693359375 127.88278198242188 113.94418334960938 140.3525390625 113.57745361328124 146.58740234375 113.57745361328124 146.58740234375 " />
        <polyline stroke="black" stroke-width="3" stroke-linecap="round" fill="transparent" stroke-linejoin="round" points="80.2025146484375 161.9912109375 93.77255249023438 154.65606689453125 101.8411865234375 151.72201538085938 117.978515625 146.95416259765625 138.51693725585938 142.1863250732422 151.35345458984375 139.6190185546875 155.3878173828125 138.885498046875 155.3878173828125 138.885498046875 " />
        <polyline stroke="black" stroke-width="3" stroke-linecap="round" fill="transparent" stroke-linejoin="round" points="68.09954833984375 207.83590698242188 90.10494995117188 204.1683349609375 113.210693359375 200.86749267578125 135.94964599609375 199.03372192382813 155.02099609375 198.66696166992188 172.2586669921875 199.76724243164065 182.16107177734375 200.86749267578125 182.16107177734375 200.86749267578125 " />
        </svg>