<?xml version="1.0" standalone="no"?>
    <svg width="256" height="256" xmlns="http://www.w3.org/2000/svg" version="1.1">
    <polyline stroke="black" stroke-width="3" stroke-linecap="round" fill="transparent" stroke-linejoin="round" points="80.80657958984375 89.01744079589841 80.02679443359375 97.59465026855467 79.24700927734375 106.17185974121094 78.46728515625 113.1895751953125 76.90780639648438 117.8680419921875 76.12802124023438 119.03765869140624 76.12802124023438 119.03765869140624 " />
        <polyline stroke="black" stroke-width="3" stroke-linecap="round" fill="transparent" stroke-linejoin="round" points="93.282470703125 74.5921630859375 97.9609375 73.03266906738281 102.639404296875 71.47317504882813 107.31787109375 69.91368103027344 118.23431396484376 66.40483093261719 123.69256591796876 64.8453369140625 134.60897827148438 62.89598083496094 143.96591186523438 62.506103515625 150.98361206054688 64.8453369140625 153.7127685546875 67.1845703125 161.90008544921875 81.99974060058594 164.629150390625 95.64529418945313 164.629150390625 106.95159912109376 162.6798095703125 114.35919189453124 159.95068359375 118.25790405273438 154.10260009765625 118.64776611328124 151.76336669921875 117.08828735351563 151.76336669921875 117.08828735351563 " />
        <polyline stroke="black" stroke-width="3" stroke-linecap="round" fill="transparent" stroke-linejoin="round" points="128.76086425781253 28.97705078125 127.59124755859376 47.30107116699219 126.421630859375 65.62509155273438 125.641845703125 75.76177978515625 124.86215209960938 85.89846801757813 123.30267333984376 104.61236572265624 121.7431640625 122.93638610839844 120.57354736328124 139.31103515625 119.79379272460938 146.71861267089844 119.79379272460938 146.71861267089844 " />
        <polyline stroke="black" stroke-width="3" stroke-linecap="round" fill="transparent" stroke-linejoin="round" points="90.55334472656251 164.65277099609375 96.01156616210938 163.87301635742188 101.46978759765624 163.09326171875 119.79379272460938 159.9742889404297 131.87985229492188 157.6350555419922 141.62664794921875 155.2958221435547 149.42413330078125 152.9565887451172 152.15325927734375 151.78697204589844 152.15325927734375 151.78697204589844 " />
        <polyline stroke="black" stroke-width="3" stroke-linecap="round" fill="transparent" stroke-linejoin="round" points="47.667327880859375 196.622314453125 57.414154052734375 195.45269775390625 67.16098022460938 194.2830810546875 103.02926635742188 191.16412353515625 130.32037353515625 190.3843688964844 156.44183349609375 189.9945068359375 178.66455078125 189.6046142578125 188.021484375 189.2147521972656 201.2772216796875 189.2147521972656 209.85443115234375 189.2147521972656 209.85443115234375 189.2147521972656 " />
        </svg>