<?xml version="1.0" standalone="no"?>
    <svg width="256" height="256" xmlns="http://www.w3.org/2000/svg" version="1.1">
    <polyline stroke="black" stroke-width="3" stroke-linecap="round" fill="transparent" stroke-linejoin="round" points="87 85 86 84 86 85 87 89 89 98 91 112 93 123 95 128 96 131 96 131 " />
        <polyline stroke="black" stroke-width="3" stroke-linecap="round" fill="transparent" stroke-linejoin="round" points="95 95 96 93 101 90 109 86 119 81 129 75 137 70 145 65 150 63 153 62 154 63 154 68 153 77 151 91 149 102 148 106 147 113 146 115 145 119 145 120 143 123 142 123 140 121 137 118 135 116 135 116 " />
        <polyline stroke="black" stroke-width="3" stroke-linecap="round" fill="transparent" stroke-linejoin="round" points="122 50 122 57 123 71 122 87 122 104 122 116 121 121 121 123 120 127 119 129 119 129 " />
        <polyline stroke="black" stroke-width="3" stroke-linecap="round" fill="transparent" stroke-linejoin="round" points="104 141 105 140 110 138 117 135 125 132 129 131 130 131 133 130 134 131 135 132 134 133 134 133 " />
        <polyline stroke="black" stroke-width="3" stroke-linecap="round" fill="transparent" stroke-linejoin="round" points="70 184 71 183 77 180 90 172 106 163 125 157 141 155 154 156 165 158 173 159 178 160 179 160 177 161 177 161 " />
        </svg>