<?xml version="1.0" standalone="no"?>
    <svg width="256" height="256" xmlns="http://www.w3.org/2000/svg" version="1.1">
    <polyline stroke="black" stroke-width="3" stroke-linecap="round" fill="transparent" stroke-linejoin="round" points="53.325897216796875 86.88446044921875 51.631011962890625 99.87858581542967 51.348541259765625 107.5055694580078 51.0660400390625 116.54498291015624 50.7835693359375 126.99679565429688 50.501068115234375 136.60116577148438 50.501068115234375 146.2055206298828 50.218597412109375 155.24493408203125 49.65362548828125 163.43687438964844 49.65362548828125 169.36898803710938 49.37115478515625 174.17120361328125 49.088653564453125 178.12594604492188 48.806182861328125 181.51568603515625 48.241241455078125 184.0580139160156 47.958709716796875 186.035400390625 47.67626953125 187.44781494140625 47.393768310546875 188.29525756835935 47.393768310546875 188.86019897460935 47.393768310546875 189.1427001953125 47.67626953125 188.86019897460935 47.958709716796875 188.0127868652344 47.958709716796875 188.0127868652344 " />
        <polyline stroke="black" stroke-width="3" stroke-linecap="round" fill="transparent" stroke-linejoin="round" points="75.35943603515625 103.26837158203124 82.98641967773438 98.1837158203125 86.65866088867188 95.92384338378906 90.61346435546876 93.66400146484376 94.56817626953124 91.68663024902344 97.95791625976563 89.99176025390625 101.06521606445313 88.579345703125 104.45501708984376 87.16694641113281 106.71484375 86.03701782226563 108.40975952148438 85.18955993652344 109.5396728515625 84.62458801269531 110.66961669921876 84.34213256835938 111.799560546875 84.34213256835938 112.64697265625 84.62458801269531 113.21197509765624 85.18955993652344 114.05938720703124 87.16694641113281 115.18930053710938 91.40415954589844 116.31924438476563 98.1837158203125 117.16668701171876 105.52821350097656 118.5791015625 113.7201690673828 118.86160278320313 122.19459533691406 119.426513671875 130.10411071777344 119.70901489257813 136.60116577148438 119.426513671875 142.81576538085938 119.426513671875 148.18287658691406 118.86160278320313 152.98507690429688 118.01416015625 156.9398193359375 117.16668701171876 160.32962036132813 116.31924438476563 163.15443420410156 115.47177124023438 165.1317901611328 114.62432861328124 166.54417419433594 114.05938720703124 167.6741180419922 113.494384765625 168.5215606689453 112.92947387695313 168.80404663085938 112.36447143554688 168.80404663085938 111.51705932617188 168.5215606689453 111.51705932617188 168.5215606689453 " />
        <polyline stroke="black" stroke-width="3" stroke-linecap="round" fill="transparent" stroke-linejoin="round" points="73.382080078125 114.28512573242188 75.64193725585938 121.34718322753906 77.0543212890625 126.71432495117188 77.90176391601563 132.0814666748047 78.46673583984375 137.16612243652344 78.46673583984375 141.6858367919922 78.18426513671875 145.9230499267578 78.18426513671875 149.87777709960938 77.90176391601563 153.267578125 77.3367919921875 156.09239196777344 76.77182006835938 158.63470458984375 76.20684814453125 160.89456176757813 75.64193725585938 162.58944702148438 75.07693481445313 163.71937561035156 75.07693481445313 163.71937561035156 " />
        <polyline stroke="black" stroke-width="3" stroke-linecap="round" fill="transparent" stroke-linejoin="round" points="61.80035400390625 178.69088745117188 69.42733764648438 173.8887176513672 73.947021484375 171.0638885498047 77.90176391601563 168.80404663085938 81.57400512695313 166.82667541503906 84.68130493164063 165.1317901611328 87.2236328125 164.00186157226563 89.20101928710938 163.15443420410156 90.61346435546876 162.30697631835938 91.74334716796876 161.74200439453125 92.5908203125 161.1770477294922 93.438232421875 160.89456176757813 94.00320434570313 160.612060546875 94.56817626953124 160.32962036132813 94.85064697265624 160.04713439941406 94.85064697265624 160.04713439941406 " />
        <polyline stroke="black" stroke-width="3" stroke-linecap="round" fill="transparent" stroke-linejoin="round" points="124.79367065429688 133.49386596679688 135.52792358398438 127.84422302246094 142.87246704101563 123.60702514648438 150.781982421875 118.80485534667967 159.53887939453125 113.1552276611328 167.73089599609375 107.5055694580078 175.07537841796875 102.42092895507813 181.0074462890625 98.1837158203125 186.0921630859375 94.79393005371094 189.48193359375 92.2515869140625 192.02423095703125 90.2742156982422 194.00164794921875 88.86181640625 195.13153076171875 87.73188781738281 195.97894287109375 86.88446044921875 196.261474609375 86.60197448730469 196.261474609375 86.31948852539063 195.97894287109375 86.31948852539063 195.13153076171875 86.31948852539063 195.13153076171875 86.31948852539063 " />
        <polyline stroke="black" stroke-width="3" stroke-linecap="round" fill="transparent" stroke-linejoin="round" points="151.064453125 52.13924407958984 152.47686767578125 62.87353515625 153.32427978515625 69.08811950683594 153.88922119140625 75.30271911621094 154.7366943359375 88.86181640625 155.0191650390625 97.33625793457033 155.30169677734375 105.24574279785156 155.58416748046875 113.43768310546876 155.58416748046875 123.04205322265624 155.30169677734375 132.64642333984375 155.0191650390625 141.12088012695313 154.4542236328125 150.16026306152344 153.32427978515625 159.19967651367188 152.1943359375 166.54417419433594 150.781982421875 173.8887176513672 148.5220947265625 181.23321533203125 146.54470825195313 188.5777282714844 144.28488159179688 194.79232788085935 142.3074951171875 199.31201171875 140.33013916015625 203.26675415039065 138.63525390625 206.37405395507813 136.94036865234375 208.9163818359375 135.2454833984375 211.17623901367188 133.55059814453125 212.58865356445313 130.44326782226563 214.0010681152344 130.44326782226563 214.0010681152344 " />
        <polyline stroke="black" stroke-width="3" stroke-linecap="round" fill="transparent" stroke-linejoin="round" points="174.5103759765625 160.612060546875 188.91693115234375 173.04124450683594 193.1541748046875 176.99600219726563 197.10894775390625 180.9507293701172 200.7811279296875 184.90548706054688 204.17095947265625 188.86019897460935 206.9957275390625 192.532470703125 209.255615234375 195.6397705078125 211.23297119140625 198.46456909179688 212.9278564453125 201.00689697265625 214.62274169921875 203.26675415039065 216.317626953125 205.526611328125 217.73004150390625 207.78646850585935 219.1424560546875 210.04632568359375 220.55487060546875 212.30618286132813 221.96728515625 214.28350830078125 223.379638671875 215.9784240722656 224.50958251953125 217.39083862304688 225.3570556640625 218.520751953125 225.9219970703125 219.36822509765625 226.4869384765625 219.93313598632813 226.76947021484375 220.4981384277344 227.05194091796875 221.0631103515625 227.05194091796875 221.9105529785156 227.05194091796875 222.4754943847656 227.05194091796875 222.4754943847656 " />
        </svg>