<?xml version="1.0" standalone="no"?>
    <svg width="256" height="256" xmlns="http://www.w3.org/2000/svg" version="1.1">
    <polyline stroke="black" stroke-width="3" stroke-linecap="round" fill="transparent" stroke-linejoin="round" points="62.0087890625 75.78404235839844 62.0087890625 99.5592803955078 59.63128662109375 128.08956909179688 57.848114013671875 142.35472106933594 56.65936279296875 154.24234008789063 55.4705810546875 160.78053283691406 54.876220703125 162.5636749267578 54.876220703125 159.59176635742188 54.876220703125 153.64796447753906 55.4705810546875 141.7603302001953 57.253753662109375 126.90080261230467 59.036895751953125 114.41880798339844 62.0087890625 102.53118896484376 66.76385498046875 91.8323211669922 74.49078369140625 78.75593566894531 82.8121337890625 69.245849609375 92.32223510742188 62.11326599121094 100.0491943359375 58.54698181152344 107.1817626953125 58.54698181152344 113.71994018554688 61.518890380859375 118.4749755859375 67.46270751953125 124.4188232421875 78.16156005859375 127.39071655273438 94.20985412597656 127.39071655273438 107.880615234375 125.60757446289063 119.76823425292967 122.63568115234376 128.6839599609375 119.06939697265624 134.6277618408203 114.3143310546875 138.1940460205078 114.3143310546875 138.1940460205078 " />
        <polyline stroke="black" stroke-width="3" stroke-linecap="round" fill="transparent" stroke-linejoin="round" points="91.72784423828124 79.35032653808594 93.510986328125 95.39860534667967 92.9166259765625 106.09747314453124 91.13348388671876 118.5794677734375 86.9727783203125 134.03338623046875 81.02899169921875 147.7041473388672 74.49078369140625 157.80862426757813 69.141357421875 163.75244140625 63.79193115234375 166.1299591064453 60.820037841796875 164.94119262695313 60.820037841796875 162.5636749267578 62.603179931640625 159.59176635742188 66.16946411132813 157.80862426757813 72.7076416015625 155.4311065673828 83.406494140625 152.45919799804688 99.45480346679688 148.29852294921875 111.3424072265625 145.32662963867188 122.041259765625 142.35472106933594 129.17385864257813 137.59967041015625 129.17385864257813 137.59967041015625 " />
        <polyline stroke="black" stroke-width="3" stroke-linecap="round" fill="transparent" stroke-linejoin="round" points="139.2783203125 79.35032653808594 156.515380859375 71.62336730957031 168.40301513671875 66.86831665039063 180.2906494140625 62.11326599121094 189.80072021484375 58.54698181152344 197.5277099609375 55.5750732421875 202.8770751953125 53.19755554199219 207.03778076171875 50.22564697265625 207.03778076171875 50.22564697265625 " />
        <polyline stroke="black" stroke-width="3" stroke-linecap="round" fill="transparent" stroke-linejoin="round" points="188.6119384765625 43.68745422363281 185.045654296875 52.603172302246094 181.4793701171875 64.49079895019531 174.3468017578125 85.88851928710938 165.43109130859375 115.01318359375 156.515380859375 137.59967041015625 147.59967041015625 160.1861572265625 140.46710205078125 178.017578125 136.30642700195313 189.31082153320313 133.92889404296875 194.6602478027344 132.74014282226563 197.03778076171875 132.74014282226563 197.03778076171875 " />
        <polyline stroke="black" stroke-width="3" stroke-linecap="round" fill="transparent" stroke-linejoin="round" points="161.86480712890625 142.9490966796875 175.53558349609375 149.48728942871094 181.4793701171875 153.64796447753906 188.6119384765625 158.40301513671875 195.150146484375 163.75244140625 201.6883544921875 169.6962432861328 207.03778076171875 176.23443603515625 214.17034912109375 192.87710571289065 214.17034912109375 192.87710571289065 " />
        </svg>