<?xml version="1.0" standalone="no"?>
    <svg width="256" height="256" xmlns="http://www.w3.org/2000/svg" version="1.1">
    <polyline stroke="black" stroke-width="3" stroke-linecap="round" fill="transparent" stroke-linejoin="round" points="31.513031005859375 97.57650756835938 34.99151611328125 136.70953369140625 36.73077392578125 165.8419189453125 38.03521728515625 180.1906890869141 38.904815673828125 186.27804565429688 39.774444580078125 190.19134521484375 39.774444580078125 186.27804565429688 38.03521728515625 172.3640899658203 35.861114501953125 158.0153045654297 34.12188720703125 146.710205078125 33.25225830078125 137.1443634033203 34.55670166015625 129.31773376464844 37.600372314453125 121.92594909667967 44.9921875 113.22972106933594 57.166900634765625 102.3594207763672 70.64608764648438 94.09800720214844 82.385986328125 89.31507873535156 91.95181274414063 89.31507873535156 98.0391845703125 98.01130676269533 99.7784423828125 120.18670654296876 98.4739990234375 142.3621063232422 96.73477172851563 151.49313354492188 95.43032836914063 153.66720581054688 95.43032836914063 153.66720581054688 " />
        <polyline stroke="black" stroke-width="3" stroke-linecap="round" fill="transparent" stroke-linejoin="round" points="74.55938720703125 100.62017822265624 73.25494384765625 131.05697631835938 70.64608764648438 143.23171997070313 70.64608764648438 143.23171997070313 " />
        <polyline stroke="black" stroke-width="3" stroke-linecap="round" fill="transparent" stroke-linejoin="round" points="37.600372314453125 162.79823303222656 72.38531494140625 144.97096252441406 86.29928588867188 136.27471923828125 86.29928588867188 136.27471923828125 " />
        <polyline stroke="black" stroke-width="3" stroke-linecap="round" fill="transparent" stroke-linejoin="round" points="121.95382690429688 121.05632019042967 146.30325317382813 109.31640625 162.82611083984375 101.9246063232422 175.4356689453125 94.53282165527344 175.4356689453125 94.53282165527344 " />
        <polyline stroke="black" stroke-width="3" stroke-linecap="round" fill="transparent" stroke-linejoin="round" points="164.56536865234375 31.050338745117188 141.95516967773438 75.83590698242188 129.34564208984375 121.92594909667967 120.21456909179688 161.05899047851563 114.127197265625 191.06097412109375 111.95315551757813 200.6268310546875 109.34429931640624 209.32308959960935 109.34429931640624 209.32308959960935 " />
        <polyline stroke="black" stroke-width="3" stroke-linecap="round" fill="transparent" stroke-linejoin="round" points="144.1292724609375 113.22972106933594 169.34832763671875 165.4071044921875 184.56671142578125 189.75656127929688 193.69775390625 199.7572326660156 211.95977783203125 214.54080200195313 225.004150390625 220.193359375 225.004150390625 220.193359375 " />
        </svg>