<?xml version="1.0" standalone="no"?>
    <svg width="256" height="256" xmlns="http://www.w3.org/2000/svg" version="1.1">
    <polyline stroke="black" stroke-width="3" stroke-linecap="round" fill="transparent" stroke-linejoin="round" points="54.918487548828125 79.82826232910156 51.37939453125 95.400390625 47.840301513671875 110.97251892089844 40.762054443359375 143.1785125732422 37.930755615234375 154.85760498046875 35.099456787109375 169.36801147460938 34.74554443359375 173.9688720703125 34.74554443359375 173.9688720703125 " />
        <polyline stroke="black" stroke-width="3" stroke-linecap="round" fill="transparent" stroke-linejoin="round" points="65.53582763671875 72.75003051757813 72.968017578125 69.91873168945313 80.40020751953125 67.08743286132813 87.47845458984375 64.61004638671875 94.556640625 62.486572265625 110.83663940429688 64.61004638671875 116.14532470703124 68.149169921875 121.45404052734376 74.51959228515625 131.71746826171875 99.29344177246094 136.31829833984375 126.19073486328124 134.90264892578125 146.71763610839844 129.59396362304688 159.45848083496094 129.59396362304688 159.45848083496094 " />
        <polyline stroke="black" stroke-width="3" stroke-linecap="round" fill="transparent" stroke-linejoin="round" points="86.77066040039063 102.12472534179688 85.35498046875 110.61862182617188 83.93930053710938 119.11251831054688 80.04632568359375 134.33071899414063 73.32196044921875 149.19503784179688 69.07501220703125 154.85760498046875 69.07501220703125 154.85760498046875 " />
        <polyline stroke="black" stroke-width="3" stroke-linecap="round" fill="transparent" stroke-linejoin="round" points="37.93072509765625 176.8001708984375 55.6263427734375 166.18280029296875 73.32196044921875 155.5654296875 92.07928466796876 146.0098114013672 106.58969116210938 140.70114135742188 115.4375 139.28549194335938 118.97662353515624 140.70114135742188 118.97662353515624 140.70114135742188 " />
        <polyline stroke="black" stroke-width="3" stroke-linecap="round" fill="transparent" stroke-linejoin="round" points="170.64776611328125 100.35517883300784 176.31036376953125 97.1699676513672 181.97296142578125 93.98475646972656 187.98944091796875 90.799560546875 199.31463623046875 84.78303527832031 204.623291015625 81.95173645019531 213.47113037109375 76.99697875976563 220.1954345703125 70.98046875 223.734619140625 64.25614929199219 223.734619140625 64.25614929199219 " />
        <polyline stroke="black" stroke-width="3" stroke-linecap="round" fill="transparent" stroke-linejoin="round" points="197.191162109375 34.88142395019531 193.65203857421875 50.09965515136719 190.1129150390625 65.31788635253906 177.72601318359375 120.17424011230467 169.5860595703125 151.31851196289063 162.1539306640625 176.44625854492188 155.783447265625 194.49578857421875 151.1826171875 204.75924682617188 149.76693725585938 207.59051513671875 149.76693725585938 207.59051513671875 " />
        <polyline stroke="black" stroke-width="3" stroke-linecap="round" fill="transparent" stroke-linejoin="round" points="184.80419921875 168.66018676757813 188.697265625 171.49148559570313 192.59033203125 174.32278442382813 196.8372802734375 177.86190795898438 208.1624755859375 190.24884033203125 208.1624755859375 190.24884033203125 " />
        </svg>