<?xml version="1.0" standalone="no"?>
    <svg width="256" height="256" xmlns="http://www.w3.org/2000/svg" version="1.1">
    <polyline stroke="black" stroke-width="3" stroke-linecap="round" fill="transparent" stroke-linejoin="round" points="153.6685791015625 40.38336181640625 148.1253662109375 47.94224548339844 138.046875 58.524688720703125 116.8819580078125 78.17781066894531 92.1895751953125 98.83877563476563 69.512939453125 116.98011779785156 56.914764404296875 126.55471801757813 56.914764404296875 126.55471801757813 " />
        <polyline stroke="black" stroke-width="3" stroke-linecap="round" fill="transparent" stroke-linejoin="round" points="75.05609130859375 58.02076721191406 88.158203125 63.060028076171875 102.26812744140624 70.61892700195313 126.96047973632813 82.71315002441406 142.0782470703125 90.77595520019533 157.196044921875 98.33485412597656 169.290283203125 102.87019348144533 175.84130859375 105.38981628417967 179.87274169921875 107.405517578125 179.87274169921875 107.405517578125 " />
        <polyline stroke="black" stroke-width="3" stroke-linecap="round" fill="transparent" stroke-linejoin="round" points="49.355865478515625 147.21568298339844 64.97760009765625 142.6803436279297 78.58358764648438 140.1607208251953 106.29949951171876 138.64894104003906 124.94476318359376 138.64894104003906 143.08612060546875 140.1607208251953 157.699951171875 141.6724853515625 169.290283203125 142.6803436279297 176.84918212890625 142.17642211914063 180.37664794921875 142.17642211914063 180.37664794921875 142.17642211914063 180.37664794921875 142.17642211914063 " />
        <polyline stroke="black" stroke-width="3" stroke-linecap="round" fill="transparent" stroke-linejoin="round" points="120.91339111328124 147.21568298339844 118.39373779296876 156.79026794433594 118.89767456054688 175.93946838378906 119.905517578125 190.04937744140625 119.401611328125 200.12789916992188 118.39373779296876 206.678955078125 117.38589477539063 211.71820068359375 114.86627197265624 215.2456970214844 114.86627197265624 215.2456970214844 " />
        </svg>