<?xml version="1.0" standalone="no"?>
    <svg width="256" height="256" xmlns="http://www.w3.org/2000/svg" version="1.1">
    <polyline stroke="black" stroke-width="3" stroke-linecap="round" fill="transparent" stroke-linejoin="round" points="115.05999755859376 51.19255065917969 115.29412841796876 67.99781799316406 114.61773681640624 82.33174133300781 113.5511474609375 99.55323791503906 113.239013671875 117.68524169921876 113.34304809570313 134.90673828125 114.04547119140624 146.8213348388672 114.461669921875 155.35403442382813 114.61773681640624 159.6464080810547 114.513671875 161.5454864501953 114.12347412109376 163.2103729248047 113.993408203125 160.4788818359375 113.993408203125 160.4788818359375 " />
        <polyline stroke="black" stroke-width="3" stroke-linecap="round" fill="transparent" stroke-linejoin="round" points="77.287109375 96.63963317871094 82.75018310546875 104.6520538330078 84.80532836914063 109.36067199707033 86.44418334960938 115.7341766357422 86.75640869140625 119.0640106201172 86.75640869140625 119.0640106201172 " />
        <polyline stroke="black" stroke-width="3" stroke-linecap="round" fill="transparent" stroke-linejoin="round" points="66.33511352539063 146.19699096679688 75.93441772460938 139.25115966796875 82.09979248046875 134.8026885986328 97.52630615234376 123.6685791015625 114.56570434570313 112.69050598144533 130.92877197265625 104.8081512451172 139.35739135742188 100.0735321044922 139.35739135742188 100.0735321044922 " />
        <polyline stroke="black" stroke-width="3" stroke-linecap="round" fill="transparent" stroke-linejoin="round" points="155.486328125 78.27349853515625 145.73092651367188 88.88735961914063 136.59988403320313 97.18592834472656 128.11920166015625 104.23582458496094 122.812255859375 109.20455932617188 121.927734375 111.20767211914063 121.66763305664063 114.30339050292967 121.97976684570313 116.8267822265625 122.70819091796876 118.72581481933594 123.5146484375 119.71438598632813 123.95687866210938 120.0005340576172 124.7373046875 119.6103057861328 124.81536865234376 119.50624084472656 124.91943359375 119.42822265625 125.07553100585938 119.2981414794922 127.781005859375 119.6883544921875 131.18890380859375 120.36473083496094 136.88601684570313 121.2231903076172 141.20437622070313 122.26376342773438 145.3406982421875 123.35638427734376 149.3729248046875 124.52703857421876 152.624755859375 125.4375457763672 156.9691162109375 126.60818481445313 159.23236083984375 127.20652770996094 161.2354736328125 127.88288879394533 162.71832275390625 128.66331481933594 164.7474365234375 130.2761993408203 164.7474365234375 130.2761993408203 " />
        <polyline stroke="black" stroke-width="3" stroke-linecap="round" fill="transparent" stroke-linejoin="round" points="53.56207275390625 189.30279541015625 66.17898559570313 186.4671936035156 81.08523559570313 183.11135864257813 100.9862060546875 179.39129638671875 121.43353271484376 176.58175659179688 141.59466552734375 174.5006103515625 157.931640625 173.72018432617188 170.4705810546875 174.708740234375 177.31231689453125 175.74929809570313 185.5068359375 178.090576171875 193.2071533203125 181.55050659179688 193.2071533203125 181.55050659179688 " />
        </svg>