<?xml version="1.0" standalone="no"?>
    <svg width="256" height="256" xmlns="http://www.w3.org/2000/svg" version="1.1">
    <polyline stroke="black" stroke-width="3" stroke-linecap="round" fill="transparent" stroke-linejoin="round" points="97.2572021484375 63.42352294921875 96.892578125 81.73233032226563 94.17431640625 117.87997436523438 89.58648681640625 140.44027709960938 88.14794921875 144.97540283203125 87.69207763671875 145.78717041015625 87.68756103515625 145.79522705078125 91.7684326171875 143.01803588867188 98.45660400390624 139.50372314453125 120.47900390625 126.90725708007813 138.44894409179688 119.23204040527344 146.16455078125 118.8914794921875 152.69732666015625 121.50189208984376 160.8017578125 134.73919677734375 163.96136474609375 165.07330322265625 160.867919921875 180.03282165527344 148.64926147460938 203.09417724609375 142.15548706054688 209.1001892089844 130.35531616210938 215.292724609375 117.87887573242188 219.11248779296875 112.64498901367188 217.45635986328125 113.40985107421876 215.73358154296875 " />
        <polyline stroke="black" stroke-width="3" stroke-linecap="round" fill="transparent" stroke-linejoin="round" points="125.80245971679688 91.79460144042967 144.5634765625 85.29548645019531 154.405517578125 81.519775390625 169.6962890625 76.69931030273438 172.7313232421875 76.07669067382813 173.3248291015625 76.4779052734375 173.4012451171875 76.529541015625 " />
        <polyline stroke="black" stroke-width="3" stroke-linecap="round" fill="transparent" stroke-linejoin="round" points="100.28466796875 165.09812927246094 92.68505859375 178.97357177734375 84.02288818359375 197.4591064453125 82.55770874023438 201.1533203125 " />
        </svg>