<?xml version="1.0" standalone="no"?>
    <svg width="256" height="256" xmlns="http://www.w3.org/2000/svg" version="1.1">
    <polyline stroke="black" stroke-width="3" stroke-linecap="round" fill="transparent" stroke-linejoin="round" points="103 89 110 89 123 87 130 86 143 84 153 83 155 83 155 83 " />
        <polyline stroke="black" stroke-width="3" stroke-linecap="round" fill="transparent" stroke-linejoin="round" points="112 73 111 91 108 100 101 120 95 135 90 144 88 146 88 147 91 147 103 147 118 142 134 140 149 139 162 141 172 153 177 173 177 194 177 208 170 220 163 226 154 229 142 230 137 227 137 227 " />
        <polyline stroke="black" stroke-width="3" stroke-linecap="round" fill="transparent" stroke-linejoin="round" points="125 161 122 175 113 193 98 211 84 223 84 223 " />
        </svg>