<?xml version="1.0" standalone="no"?>
    <svg width="256" height="256" xmlns="http://www.w3.org/2000/svg" version="1.1">
    <polyline stroke="black" stroke-width="3" stroke-linecap="round" fill="transparent" stroke-linejoin="round" points="104 83 110 83 124 82 140 78 147 76 153 74 153 74 " />
        <polyline stroke="black" stroke-width="3" stroke-linecap="round" fill="transparent" stroke-linejoin="round" points="113 68 108 83 103 104 99 121 97 134 95 139 94 139 97 139 103 139 120 133 136 126 152 124 163 124 172 126 178 138 179 152 179 167 178 180 171 188 164 194 158 198 153 200 148 201 144 200 141 185 141 185 " />
        <polyline stroke="black" stroke-width="3" stroke-linecap="round" fill="transparent" stroke-linejoin="round" points="131 135 131 141 130 154 124 170 118 186 109 201 99 214 94 220 94 220 " />
        </svg>