<?xml version="1.0" standalone="no"?>
    <svg width="256" height="256" xmlns="http://www.w3.org/2000/svg" version="1.1">
    <polyline stroke="black" stroke-width="3" stroke-linecap="round" fill="transparent" stroke-linejoin="round" points="45.759002685546875 109.02189636230467 57.38916015625 105.34921264648438 70.85565185546875 100.45230102539063 84.93426513671875 94.94328308105467 99.01287841796876 89.43426513671875 108.194580078125 85.14947509765625 114.31570434570313 82.08891296386719 116.15203857421876 80.86468505859375 112.4793701171875 82.70101928710938 112.4793701171875 82.70101928710938 " />
        <polyline stroke="black" stroke-width="3" stroke-linecap="round" fill="transparent" stroke-linejoin="round" points="29.23193359375 161.05152893066406 42.698455810546875 153.09405517578125 56.1649169921875 146.97291564941406 72.07989501953125 140.2396697998047 89.21905517578125 132.28219604492188 102.07342529296876 123.71261596679688 111.255126953125 115.1430206298828 117.37628173828124 99.2280731201172 117.37628173828124 99.2280731201172 " />
        <polyline stroke="black" stroke-width="3" stroke-linecap="round" fill="transparent" stroke-linejoin="round" points="62.898193359375 78.41622924804688 62.898193359375 88.82215881347656 62.28607177734375 109.02189636230467 59.837615966796875 139.6275634765625 58.00128173828125 161.66363525390625 57.38916015625 180.63916015625 57.38916015625 195.32986450195313 56.77703857421875 203.287353515625 56.77703857421875 208.18426513671875 58.00128173828125 206.96002197265625 58.00128173828125 206.96002197265625 " />
        <polyline stroke="black" stroke-width="3" stroke-linecap="round" fill="transparent" stroke-linejoin="round" points="87.99481201171875 56.38014221191406 87.99481201171875 75.9677734375 89.21905517578125 123.71261596679688 89.8311767578125 153.09405517578125 90.44329833984376 184.31182861328125 91.66751098632813 202.0631103515625 92.27963256835938 216.1417236328125 94.115966796875 220.426513671875 94.115966796875 220.426513671875 " />
        <polyline stroke="black" stroke-width="3" stroke-linecap="round" fill="transparent" stroke-linejoin="round" points="142.472900390625 68.62240600585938 144.30926513671875 83.92524719238281 144.92138671875 114.53091430664063 143.6971435546875 137.7912139892578 142.472900390625 155.54251098632813 140.6365966796875 170.2332305908203 138.80023193359375 178.19070434570313 136.96389770507813 183.08761596679688 136.96389770507813 183.08761596679688 " />
        <polyline stroke="black" stroke-width="3" stroke-linecap="round" fill="transparent" stroke-linejoin="round" points="151.04248046875 94.3311767578125 162.060546875 82.08891296386719 168.7938232421875 77.80410766601563 176.75128173828125 76.57987976074219 184.708740234375 78.41622924804688 192.666259765625 82.08891296386719 199.39947509765625 88.21003723144531 206.74481201171875 104.12498474121094 211.6417236328125 134.11854553222656 211.6417236328125 157.37884521484375 207.96905517578125 176.3543701171875 203.68426513671875 187.98452758789065 196.3388671875 195.32986450195313 196.3388671875 195.32986450195313 " />
        <polyline stroke="black" stroke-width="3" stroke-linecap="round" fill="transparent" stroke-linejoin="round" points="111.86724853515624 144.52447509765625 122.273193359375 141.46389770507813 140.02447509765625 137.7912139892578 171.8543701171875 132.89431762695313 192.666259765625 131.05796813964844 213.47802734375 129.833740234375 228.1688232421875 129.2216339111328 238.57470703125 130.44586181640625 244.69586181640625 132.28219604492188 244.69586181640625 132.28219604492188 " />
        </svg>