<?xml version="1.0" standalone="no"?>
    <svg width="256" height="256" xmlns="http://www.w3.org/2000/svg" version="1.1">
    <polyline stroke="black" stroke-width="3" stroke-linecap="round" fill="transparent" stroke-linejoin="round" points="70.14813232421875 91.00189208984376 70.97665405273438 99.7012176513672 71.80511474609375 109.64329528808594 72.63363647460938 118.34259033203124 73.462158203125 127.04191589355467 74.70492553710938 140.71226501464844 74.29061889648438 148.5830535888672 73.462158203125 152.3113250732422 73.462158203125 152.3113250732422 " />
        <polyline stroke="black" stroke-width="3" stroke-linecap="round" fill="transparent" stroke-linejoin="round" points="74.29061889648438 108.40054321289063 81.33294677734375 103.4294891357422 90.44650268554688 98.044189453125 109.9163818359375 88.93063354492188 129.800537109375 82.30258178710938 140.57113647460938 79.81706237792969 157.9697265625 76.08877563476563 172.8828125 75.26028442382813 183.23919677734375 76.50303649902344 188.210205078125 79.40280151367188 192.35272216796875 90.1733856201172 191.5242919921875 111.30027770996094 183.6534423828125 134.4984588623047 172.4686279296875 151.06857299804688 172.4686279296875 151.06857299804688 " />
        <polyline stroke="black" stroke-width="3" stroke-linecap="round" fill="transparent" stroke-linejoin="round" points="114.05892944335938 118.34259033203124 114.05892944335938 127.8704071044922 114.05892944335938 139.46951293945313 114.47314453125 142.3692626953125 114.47314453125 142.3692626953125 " />
        <polyline stroke="black" stroke-width="3" stroke-linecap="round" fill="transparent" stroke-linejoin="round" points="135.185791015625 117.51408386230467 131.45751953125 124.1421356201172 114.887451171875 145.68328857421875 102.87411499023438 156.453857421875 102.87411499023438 156.453857421875 " />
        <polyline stroke="black" stroke-width="3" stroke-linecap="round" fill="transparent" stroke-linejoin="round" points="95.831787109375 167.63870239257813 105.77386474609376 165.15318298339844 115.71591186523438 162.66766357421875 136.84286499023438 158.1108856201172 157.5555419921875 156.453857421875 179.9251708984375 158.9393768310547 179.9251708984375 158.9393768310547 " />
        </svg>