<?xml version="1.0" standalone="no"?>
    <svg width="256" height="256" xmlns="http://www.w3.org/2000/svg" version="1.1">
    <polyline stroke="black" stroke-width="3" stroke-linecap="round" fill="transparent" stroke-linejoin="round" points="70.4420166015625 124.26815795898438 72.23443603515625 132.78208923339844 75.37115478515625 148.91372680664063 76.267333984375 155.63522338867188 77.16354370117188 164.59722900390625 77.16354370117188 164.59722900390625 " />
        <polyline stroke="black" stroke-width="3" stroke-linecap="round" fill="transparent" stroke-linejoin="round" points="113.0115966796875 91.55679321289063 124.6622314453125 86.17959594726563 138.5533447265625 79.90617370605469 170.3685302734375 70.49606323242188 185.1558837890625 68.25555419921875 197.25457763671875 67.80746459960938 214.73046875 70.04795837402344 225.03680419921875 74.97706604003906 231.75830078125 81.69857788085938 237.135498046875 98.2783203125 234.44696044921875 120.68338012695313 229.9659423828125 130.54156494140625 216.0748291015625 149.36180114746094 216.0748291015625 149.36180114746094 " />
        <polyline stroke="black" stroke-width="3" stroke-linecap="round" fill="transparent" stroke-linejoin="round" points="129.59136962890625 106.79222106933594 130.487548828125 110.82513427734376 132.72802734375 118.89096069335938 134.07235717773438 121.57955932617188 134.07235717773438 121.57955932617188 " />
        <polyline stroke="black" stroke-width="3" stroke-linecap="round" fill="transparent" stroke-linejoin="round" points="172.6090087890625 119.33905029296876 169.92041015625 125.61245727539063 166.33563232421875 131.8858642578125 149.755859375 151.15420532226563 149.755859375 151.15420532226563 " />
        <polyline stroke="black" stroke-width="3" stroke-linecap="round" fill="transparent" stroke-linejoin="round" points="109.87493896484376 156.9795379638672 129.14324951171875 149.80990600585938 139.44955444335938 147.56942749023438 172.6090087890625 142.64028930664063 198.1507568359375 142.64028930664063 198.1507568359375 142.64028930664063 " />
        </svg>