<?xml version="1.0" standalone="no"?>
    <svg width="256" height="256" xmlns="http://www.w3.org/2000/svg" version="1.1">
    <polyline stroke="black" stroke-width="3" stroke-linecap="round" fill="transparent" stroke-linejoin="round" points="42.19854736328125 115.09616088867188 44.6605224609375 124.12644958496094 49.69708251953125 143.76573181152344 52.13458251953125 154.16165161132813 56.08050537109375 169.09341430664063 58.067108154296875 176.28416442871094 58.628662109375 177.00433349609375 58.67498779296875 177.06369018554688 " />
        <polyline stroke="black" stroke-width="3" stroke-linecap="round" fill="transparent" stroke-linejoin="round" points="96.65451049804688 91.9940185546875 114.7239990234375 85.10836791992188 134.05404663085938 81.39640808105469 167.343505859375 78.76763916015625 175.1361083984375 79.31298828125 180.64959716796875 83.18794250488281 185.1607666015625 86.70773315429688 194.1065673828125 96.47799682617188 201.249267578125 110.8618621826172 203.5687255859375 120.85386657714844 202.57293701171875 140.59344482421875 201.01947021484375 148.86093139648438 195.2532958984375 164.73399353027344 191.4755859375 168.7329559326172 178.0684814453125 174.84423828125 176.1419677734375 174.424072265625 " />
        <polyline stroke="black" stroke-width="3" stroke-linecap="round" fill="transparent" stroke-linejoin="round" points="97.87005615234376 118.95091247558594 106.325927734375 136.51486206054688 109.574951171875 144.0196533203125 114.17718505859376 154.95944213867188 115.66485595703124 157.6805419921875 115.78427124023438 157.88677978515625 115.79241943359376 157.90081787109375 " />
        <polyline stroke="black" stroke-width="3" stroke-linecap="round" fill="transparent" stroke-linejoin="round" points="140.09628295898438 98.48638916015624 134.19857788085938 114.2175750732422 129.79489135742188 122.0234832763672 125.1749267578125 136.99900817871094 119.40170288085938 147.24449157714844 118.75106811523438 147.5321044921875 " />
        <polyline stroke="black" stroke-width="3" stroke-linecap="round" fill="transparent" stroke-linejoin="round" points="73.0767822265625 166.20657348632813 81.50485229492188 165.41392517089844 92.25216674804688 164.94546508789063 116.04083251953124 164.26959228515625 142.38934326171875 163.48617553710938 167.64544677734375 161.98861694335938 183.6265869140625 160.36721801757813 188.53680419921875 159.97265625 198.7401123046875 160.17098999023438 201.76409912109375 160.40228271484375 202.564208984375 160.68560791015625 205.3128662109375 160.25576782226563 205.533935546875 160.2212371826172 " />
        </svg>