<?xml version="1.0" standalone="no"?>
    <svg width="256" height="256" xmlns="http://www.w3.org/2000/svg" version="1.1">
    <polyline stroke="black" stroke-width="3" stroke-linecap="round" fill="transparent" stroke-linejoin="round" points="51.39312744140625 96.31536865234376 52.31536865234375 106.46041870117188 53.698822021484375 130.43960571289063 55.5433349609375 152.1130828857422 56.46563720703125 159.49130249023438 57.84906005859375 167.33062744140625 58.310150146484375 169.1751708984375 58.310150146484375 169.1751708984375 " />
        <polyline stroke="black" stroke-width="3" stroke-linecap="round" fill="transparent" stroke-linejoin="round" points="78.13912963867188 87.55375671386719 89.2064208984375 82.48123168945313 99.81259155273438 78.79212951660156 122.86947631835938 74.18075561523438 145.00411987304688 73.71961975097656 165.294189453125 77.86985778808594 179.12835693359375 84.32579040527344 187.4288330078125 91.70399475097656 191.5791015625 100.9267578125 191.117919921875 106.92156982421876 180.972900390625 122.60025024414063 159.2994384765625 139.2012176513672 159.2994384765625 139.2012176513672 " />
        <polyline stroke="black" stroke-width="3" stroke-linecap="round" fill="transparent" stroke-linejoin="round" points="80.44479370117188 105.999267578125 82.75048828125 116.14431762695313 85.05621337890625 124.44479370117188 89.2064208984375 137.35667419433594 92.8955078125 143.81259155273438 94.74008178710938 145.19601440429688 98.89031982421876 145.19601440429688 98.89031982421876 145.19601440429688 " />
        <polyline stroke="black" stroke-width="3" stroke-linecap="round" fill="transparent" stroke-linejoin="round" points="146.84869384765625 103.69358825683594 135.78134155273438 122.13912963867188 126.09747314453124 132.7452850341797 115.952392578125 142.42918395996094 84.59506225585938 164.56381225585938 77.677978515625 168.25291442871094 69.37750244140625 171.9420166015625 67.07177734375 172.40313720703125 68.91635131835938 171.9420166015625 83.67279052734375 167.33062744140625 120.56381225585938 159.0301513671875 133.0145263671875 158.5690155029297 165.294189453125 166.86949157714844 165.294189453125 166.86949157714844 " />
        </svg>