<?xml version="1.0" standalone="no"?>
    <svg width="256" height="256" xmlns="http://www.w3.org/2000/svg" version="1.1">
    <polyline stroke="black" stroke-width="3" stroke-linecap="round" fill="transparent" stroke-linejoin="round" points="59.2271728515625 102.59439086914063 60.089569091796875 122.84619140625 57.88372802734375 162.65689086914063 55.81854248046875 183.3863983154297 54.31463623046875 196.50393676757813 53.925872802734375 210.25927734375 54.34661865234375 211.61114501953125 54.388671875 211.746337890625 " />
        <polyline stroke="black" stroke-width="3" stroke-linecap="round" fill="transparent" stroke-linejoin="round" points="100.21224975585938 68.90617370605469 118.34466552734376 63.77745056152344 128.00888061523438 61.75056457519531 145.6568603515625 58.55621337890625 150.738037109375 58.02626037597656 156.096435546875 57.628143310546875 157.06231689453125 57.99458312988281 159.583251953125 61.198150634765625 166.64434814453125 88.9052734375 168.41497802734375 105.9407958984375 171.2904052734375 127.49874877929688 172.49444580078125 167.28233337402344 172.380126953125 179.13900756835938 172.9608154296875 192.84722900390625 172.844970703125 206.62255859375 172.530517578125 210.67669677734375 170.52337646484375 212.74798583984375 168.8319091796875 212.17633056640625 164.4700927734375 210.4097900390625 159.80450439453125 208.50885009765625 158.52001953125 207.62274169921875 " />
        </svg>