<?xml version="1.0" standalone="no"?>
    <svg width="256" height="256" xmlns="http://www.w3.org/2000/svg" version="1.1">
    <polyline stroke="black" stroke-width="3" stroke-linecap="round" fill="transparent" stroke-linejoin="round" points="79.75961303710938 120.49313354492188 82.431640625 137.92050170898438 84.168212890625 169.59890747070313 82.58795166015625 193.403564453125 81.10003662109375 205.4803771972656 76.79998779296875 218.72799682617188 74.63238525390625 223.040771484375 74.41561889648438 223.4720458984375 " />
        <polyline stroke="black" stroke-width="3" stroke-linecap="round" fill="transparent" stroke-linejoin="round" points="108.50375366210938 84.31681823730469 121.85089111328124 80.79920959472656 139.32894897460938 76.50506591796875 157.96136474609375 73.79377746582031 171.14569091796875 74.2901611328125 182.87225341796875 78.48619079589844 190.8524169921875 81.84172058105469 200.9119873046875 91.33668518066406 204.9503173828125 97.0146484375 215.494873046875 120.11827087402344 218.74041748046875 135.38821411132813 221.095947265625 168.2358856201172 220.3157958984375 181.94818115234375 218.641845703125 203.55123901367188 217.44110107421875 211.128173828125 215.1204833984375 219.63043212890625 214.2056884765625 222.22027587890625 212.823486328125 223.47756958007813 207.67730712890625 224.07925415039065 203.3582763671875 224.62274169921875 192.002685546875 220.931640625 191.23992919921875 219.92172241210935 " />
        </svg>