<?xml version="1.0" standalone="no"?>
    <svg width="256" height="256" xmlns="http://www.w3.org/2000/svg" version="1.1">
    <polyline stroke="black" stroke-width="3" stroke-linecap="round" fill="transparent" stroke-linejoin="round" points="69.70980834960938 91.40415954589844 70.8397216796875 102.9858856201172 71.40469360351563 116.2624969482422 71.40469360351563 131.23403930664063 71.1221923828125 145.35809326171875 70.8397216796875 159.48214721679688 69.9923095703125 171.0638885498047 69.14483642578125 181.23321533203125 69.14483642578125 189.7076416015625 69.14483642578125 195.9222412109375 69.14483642578125 201.28939819335935 69.14483642578125 205.80911254882813 69.42733764648438 209.4813537597656 69.42733764648438 212.30618286132813 69.42733764648438 214.5660095214844 69.42733764648438 215.9784240722656 69.42733764648438 216.82586669921875 69.42733764648438 217.10836791992188 69.14483642578125 216.82586669921875 69.14483642578125 216.82586669921875 " />
        <polyline stroke="black" stroke-width="3" stroke-linecap="round" fill="transparent" stroke-linejoin="round" points="104.45501708984376 81.51730346679688 110.95208740234376 76.99760437011719 119.14401245117188 72.19541931152344 128.1834716796875 67.67572021484375 136.94036865234375 63.720977783203125 146.26229858398438 60.04872131347656 155.58416748046875 57.223907470703125 162.9287109375 54.96405792236328 168.2957763671875 53.26917266845703 174.2279052734375 51.57427215576172 178.74761962890625 50.16187286376953 182.13739013671875 49.314430236816406 184.96221923828125 48.46698760986328 187.5045166015625 47.90202331542969 189.199462890625 47.619537353515625 190.89434814453125 47.337059020996094 192.02423095703125 47.337059020996094 193.1541748046875 47.337059020996094 194.00164794921875 47.337059020996094 194.84906005859375 47.619537353515625 195.41400146484375 47.90202331542969 195.97894287109375 48.46698760986328 196.826416015625 49.596900939941406 197.673828125 51.00932312011719 198.80377197265625 53.834136962890625 199.9337158203125 58.07135009765625 201.34613037109375 64.28593444824219 202.47601318359375 71.91293334960938 204.17095947265625 80.66983032226563 206.1483154296875 91.40415954589844 207.84320068359375 102.13844299316406 209.255615234375 113.43768310546876 210.385498046875 125.86686706542967 211.23297119140625 137.16612243652344 212.6453857421875 148.7478790283203 213.2103271484375 159.48214721679688 213.4927978515625 168.5215606689453 213.77532958984375 176.71351623535156 214.05780029296875 184.0580139160156 214.34027099609375 189.7076416015625 214.62274169921875 194.22738647460935 214.62274169921875 197.61712646484375 214.62274169921875 200.72442626953125 214.34027099609375 203.54925537109375 213.77532958984375 206.09158325195313 212.9278564453125 208.3514404296875 212.08038330078125 210.32879638671875 210.95050048828125 212.30618286132813 209.53802490234375 214.28350830078125 207.84320068359375 216.54339599609375 206.1483154296875 218.520751953125 204.45343017578125 220.21566772460935 203.041015625 221.6280212402344 201.62860107421875 222.75799560546875 199.9337158203125 223.88787841796875 197.39141845703125 225.01785278320313 194.00164794921875 225.582763671875 189.199462890625 224.73532104492188 182.41986083984375 221.0631103515625 172.25054931640625 212.30618286132813 172.25054931640625 212.30618286132813 " />
        </svg>