<?xml version="1.0" standalone="no"?>
    <svg width="256" height="256" xmlns="http://www.w3.org/2000/svg" version="1.1">
    <polyline stroke="black" stroke-width="3" stroke-linecap="round" fill="transparent" stroke-linejoin="round" points="101 49 101 50 102 56 101 64 99 72 95 82 91 90 84 103 79 111 77 114 70 124 66 129 64 131 63 132 61 133 " />
        <polyline stroke="black" stroke-width="3" stroke-linecap="round" fill="transparent" stroke-linejoin="round" points="69 83 75 84 82 86 88 89 94 91 100 94 107 97 115 101 121 103 125 105 129 106 132 107 135 106 136 106 " />
        <polyline stroke="black" stroke-width="3" stroke-linecap="round" fill="transparent" stroke-linejoin="round" points="100 126 101 134 102 143 104 156 104 165 104 173 103 180 101 185 99 188 96 190 93 190 89 188 88 186 " />
        <polyline stroke="black" stroke-width="3" stroke-linecap="round" fill="transparent" stroke-linejoin="round" points="65 159 65 160 65 161 65 163 65 164 66 166 66 168 67 171 69 173 69 174 " />
        <polyline stroke="black" stroke-width="3" stroke-linecap="round" fill="transparent" stroke-linejoin="round" points="107 151 113 151 118 152 124 153 126 154 129 155 130 155 132 156 134 157 136 157 137 157 " />
        <polyline stroke="black" stroke-width="3" stroke-linecap="round" fill="transparent" stroke-linejoin="round" points="141 103 142 106 142 111 142 117 142 124 143 130 144 137 144 142 145 146 145 149 145 150 145 149 " />
        <polyline stroke="black" stroke-width="3" stroke-linecap="round" fill="transparent" stroke-linejoin="round" points="153 102 158 98 163 96 171 93 177 91 183 90 188 89 192 89 196 90 200 92 203 96 205 102 207 113 208 121 208 128 207 134 205 138 204 139 203 140 " />
        <polyline stroke="black" stroke-width="3" stroke-linecap="round" fill="transparent" stroke-linejoin="round" points="170 102 170 102 170 104 170 108 170 114 169 120 167 126 164 137 162 143 159 149 157 154 155 156 " />
        <polyline stroke="black" stroke-width="3" stroke-linecap="round" fill="transparent" stroke-linejoin="round" points="145 148 149 145 153 143 158 142 164 140 170 139 176 138 181 137 185 136 189 136 194 136 197 137 198 138 " />
        <polyline stroke="black" stroke-width="3" stroke-linecap="round" fill="transparent" stroke-linejoin="round" points="155 189 157 189 160 190 164 190 169 189 174 189 179 188 183 187 188 186 195 184 197 184 199 184 " />
        </svg>