<?xml version="1.0" standalone="no"?>
    <svg width="256" height="256" xmlns="http://www.w3.org/2000/svg" version="1.1">
    <polyline stroke="black" stroke-width="3" stroke-linecap="round" fill="transparent" stroke-linejoin="round" points="86.3333740234375 78.13334655761719 81.00006103515625 88.80000305175781 70.3333740234375 110.1333465576172 57.53338623046875 132.53334045410156 50.06671142578125 140.00001525878906 50.06671142578125 140.00001525878906 " />
        <polyline stroke="black" stroke-width="3" stroke-linecap="round" fill="transparent" stroke-linejoin="round" points="88.466796875 94.1333465576172 99.1334228515625 98.40000915527344 111.93341064453124 105.86669921875 111.93341064453124 105.86669921875 " />
        <polyline stroke="black" stroke-width="3" stroke-linecap="round" fill="transparent" stroke-linejoin="round" points="104.466796875 151.73338317871094 108.7333984375 173.06671142578125 110.86669921875 195.4666748046875 110.86669921875 200.80001831054688 107.666748046875 206.13336181640625 100.2000732421875 207.20001220703125 86.3333740234375 197.6000061035156 73.53338623046875 182.66668701171875 73.53338623046875 182.66668701171875 " />
        <polyline stroke="black" stroke-width="3" stroke-linecap="round" fill="transparent" stroke-linejoin="round" points="51.1334228515625 195.4666748046875 45.80010986328125 205.06671142578125 38.3333740234375 213.6000061035156 38.3333740234375 213.6000061035156 " />
        <polyline stroke="black" stroke-width="3" stroke-linecap="round" fill="transparent" stroke-linejoin="round" points="138.60009765625 170.93336486816406 145 173.06671142578125 145 173.06671142578125 " />
        <polyline stroke="black" stroke-width="3" stroke-linecap="round" fill="transparent" stroke-linejoin="round" points="153.533447265625 145.33334350585938 157.8001708984375 153.86668395996094 159.933349609375 159.20001220703125 157.8001708984375 158.1333465576172 150.3333740234375 144.26669311523438 143.933349609375 124.00001525878906 141.8001708984375 115.4666748046875 143.933349609375 111.20002746582033 149.2667236328125 108.00001525878906 163.1334228515625 103.73333740234376 182.3333740234375 100.53335571289063 199.4000244140625 98.40000915527344 210.0667724609375 97.33334350585938 215.4000244140625 98.40000915527344 218.60009765625 103.73333740234376 218.60009765625 116.53335571289063 218.60009765625 133.6000213623047 215.4000244140625 150.6666717529297 213.2667236328125 159.20001220703125 209 166.6666717529297 209 166.6666717529297 " />
        <polyline stroke="black" stroke-width="3" stroke-linecap="round" fill="transparent" stroke-linejoin="round" points="183.4000244140625 142.1333465576172 186.60009765625 153.86668395996094 186.60009765625 157.06671142578125 185.533447265625 161.33334350585938 185.533447265625 161.33334350585938 " />
        <polyline stroke="black" stroke-width="3" stroke-linecap="round" fill="transparent" stroke-linejoin="round" points="186.60009765625 119.73338317871094 191.933349609375 125.06671142578124 190.86669921875 132.53334045410156 181.2667236328125 140.00001525878906 166.3333740234375 147.4666748046875 163.1334228515625 148.53334045410156 164.2000732421875 148.53334045410156 170.60009765625 147.4666748046875 185.533447265625 146.40003967285156 195.1334228515625 145.33334350585938 203.666748046875 145.33334350585938 209 147.4666748046875 209 147.4666748046875 " />
        </svg>