<?xml version="1.0" standalone="no"?>
    <svg width="256" height="256" xmlns="http://www.w3.org/2000/svg" version="1.1">
    <polyline stroke="black" stroke-width="3" stroke-linecap="round" fill="transparent" stroke-linejoin="round" points="87.84481811523438 57.134307861328125 81.48544311523438 70.30477905273438 65.43212890625 102.40696716308594 50.90972900390625 130.3346405029297 45.72918701171875 139.02267456054688 40.4822998046875 145.66839599609375 38.840911865234375 146.24143981933594 38.895111083984375 146.1692352294922 " />
        <polyline stroke="black" stroke-width="3" stroke-linecap="round" fill="transparent" stroke-linejoin="round" points="71.50653076171875 78.35614013671875 78.68597412109375 81.97494506835938 94.34811401367188 91.309814453125 105.88998413085938 99.45286560058594 107.91064453125 102.4571533203125 108.6583251953125 106.4290008544922 108.7117919921875 106.7130126953125 " />
        <polyline stroke="black" stroke-width="3" stroke-linecap="round" fill="transparent" stroke-linejoin="round" points="95.07589721679688 158.06602478027344 97.4117431640625 173.44390869140625 98.60296630859376 187.06280517578125 99.1961669921875 213.7335205078125 97.7991943359375 231.610595703125 96.9010009765625 238.18310546875 94.51287841796876 240.5543212890625 92.50277709960938 238.68389892578125 91.15966796875 237.593017578125 84.89413452148438 229.62066650390625 83.74826049804688 227.84368896484375 " />
        <polyline stroke="black" stroke-width="3" stroke-linecap="round" fill="transparent" stroke-linejoin="round" points="58.41778564453125 175.6405029296875 57.02850341796875 181.3271942138672 52.240814208984375 192.40289306640625 51.781341552734375 193.2320556640625 " />
        <polyline stroke="black" stroke-width="3" stroke-linecap="round" fill="transparent" stroke-linejoin="round" points="130.80221557617188 171.26522827148438 136.234130859375 172.56817626953125 136.94467163085938 172.72525024414063 " />
        <polyline stroke="black" stroke-width="3" stroke-linecap="round" fill="transparent" stroke-linejoin="round" points="143.87237548828125 121.15313720703124 146.96932983398438 131.41909790039063 152.4163818359375 154.83758544921875 154.2017822265625 165.26988220214844 157.05126953125 182.72579956054688 157.7113037109375 189.01950073242188 157.77728271484375 189.64892578125 " />
        <polyline stroke="black" stroke-width="3" stroke-linecap="round" fill="transparent" stroke-linejoin="round" points="168.9735107421875 96.22927856445313 176.87347412109375 93.18594360351563 180.0167236328125 92.09967041015624 202.2156982421875 90.25180053710938 206.5970458984375 90.56094360351563 208.65106201171875 91.3111572265625 209.2576904296875 91.47622680664063 209.49798583984375 92.13075256347656 210.1990966796875 94.17829895019533 214.58642578125 114.23809814453124 217.324462890625 144.61367797851563 216.8001708984375 158.48822021484375 215.56927490234375 178.17095947265625 214.28912353515625 183.0462646484375 210.5260009765625 189.51345825195313 195.82806396484375 191.4110412597656 192.61181640625 189.22467041015625 " />
        <polyline stroke="black" stroke-width="3" stroke-linecap="round" fill="transparent" stroke-linejoin="round" points="174.2369384765625 143.81988525390625 175.37347412109375 155.93820190429688 176.93994140625 172.37164306640625 177.20989990234375 175.91123962402344 177.4827880859375 179.69451904296875 177.47698974609375 179.7889862060547 177.47503662109375 179.81964111328125 177.47479248046875 179.82351684570313 " />
        <polyline stroke="black" stroke-width="3" stroke-linecap="round" fill="transparent" stroke-linejoin="round" points="179.1456298828125 147.8123779296875 190.3948974609375 148.3259735107422 196.50433349609375 148.51292419433594 196.92626953125 148.52584838867188 197.09893798828125 148.5311279296875 197.132568359375 148.53216552734375 " />
        <polyline stroke="black" stroke-width="3" stroke-linecap="round" fill="transparent" stroke-linejoin="round" points="200.79144287109375 183.13067626953125 205.83740234375 183.09776306152344 208.25628662109375 182.74008178710935 205.3067626953125 183.82498168945313 202.5006103515625 184.70458984375 " />
        </svg>