<?xml version="1.0" standalone="no"?>
    <svg width="256" height="256" xmlns="http://www.w3.org/2000/svg" version="1.1">
    <polyline stroke="black" stroke-width="3" stroke-linecap="round" fill="transparent" stroke-linejoin="round" points="85 56 85 56 83 57 81 58 80 60 74 67 71 70 69 73 66 77 64 81 61 84 58 88 55 92 50 100 48 103 45 107 42 114 40 117 38 120 36 124 35 126 35 128 35 129 35 130 " />
        <polyline stroke="black" stroke-width="3" stroke-linecap="round" fill="transparent" stroke-linejoin="round" points="44 77 48 78 50 80 52 81 55 82 58 84 64 88 68 90 75 95 79 97 83 100 91 104 99 109 106 112 110 113 113 115 116 116 119 117 124 118 125 118 127 118 128 118 129 117 130 117 " />
        <polyline stroke="black" stroke-width="3" stroke-linecap="round" fill="transparent" stroke-linejoin="round" points="71 117 71 121 71 124 71 127 72 131 73 135 73 139 74 144 75 148 78 158 79 163 80 168 82 177 83 182 83 186 84 189 84 195 84 197 83 199 81 202 79 202 77 202 74 201 72 199 70 197 " />
        <polyline stroke="black" stroke-width="3" stroke-linecap="round" fill="transparent" stroke-linejoin="round" points="33 164 33 167 32 168 32 170 32 171 32 175 32 176 32 178 33 182 34 183 35 185 37 188 38 189 " />
        <polyline stroke="black" stroke-width="3" stroke-linecap="round" fill="transparent" stroke-linejoin="round" points="83 170 85 171 87 171 91 173 93 173 95 174 97 175 104 179 106 180 109 181 111 183 114 184 " />
        <polyline stroke="black" stroke-width="3" stroke-linecap="round" fill="transparent" stroke-linejoin="round" points="128 109 129 110 129 112 129 114 129 116 130 119 130 126 130 130 130 134 131 139 131 144 132 148 132 152 133 160 133 164 134 171 134 173 135 176 135 178 135 180 135 181 136 182 136 183 136 183 137 183 " />
        <polyline stroke="black" stroke-width="3" stroke-linecap="round" fill="transparent" stroke-linejoin="round" points="130 106 130 104 131 103 133 99 134 98 135 96 139 94 144 91 149 90 152 89 155 88 158 88 164 87 166 87 169 87 172 87 174 87 176 87 179 88 184 89 187 91 188 93 190 95 191 97 192 99 194 110 195 113 195 117 196 126 196 130 196 133 197 141 196 145 196 148 196 151 194 156 193 157 192 159 191 160 190 160 " />
        <polyline stroke="black" stroke-width="3" stroke-linecap="round" fill="transparent" stroke-linejoin="round" points="159 114 159 117 158 120 158 123 159 126 159 130 159 133 159 137 159 141 160 146 160 150 160 154 160 158 160 162 160 170 160 173 160 177 159 183 158 186 158 189 157 191 157 192 " />
        <polyline stroke="black" stroke-width="3" stroke-linecap="round" fill="transparent" stroke-linejoin="round" points="129 149 131 147 132 146 134 145 138 143 143 142 145 141 151 140 154 140 158 140 167 141 170 142 172 142 175 143 180 145 182 146 184 147 187 149 188 150 " />
        <polyline stroke="black" stroke-width="3" stroke-linecap="round" fill="transparent" stroke-linejoin="round" points="139 182 135 183 134 183 134 183 134 183 134 183 135 183 136 183 139 182 141 182 144 181 147 181 157 180 160 179 163 179 171 179 174 179 178 179 185 180 188 180 192 180 195 181 198 182 " />
        </svg>