<?xml version="1.0" standalone="no"?>
    <svg width="256" height="256" xmlns="http://www.w3.org/2000/svg" version="1.1">
    <polyline stroke="black" stroke-width="3" stroke-linecap="round" fill="transparent" stroke-linejoin="round" points="74.44183349609375 67.13377380371094 75.51101684570313 81.56791687011719 76.5802001953125 110.97077941894533 76.04559326171875 133.42388916015625 76.04559326171875 155.87698364257813 75.51101684570313 173.51870727539063 75.51101684570313 188.4874267578125 75.51101684570313 199.7139892578125 75.51101684570313 204.52536010742188 76.04559326171875 202.386962890625 76.04559326171875 202.386962890625 " />
        <polyline stroke="black" stroke-width="3" stroke-linecap="round" fill="transparent" stroke-linejoin="round" points="82.99539184570313 78.36032104492188 90.479736328125 70.87596130371094 97.964111328125 66.0645751953125 108.65606689453124 61.253204345703125 123.0902099609375 55.9072265625 145.00872802734375 51.63044738769531 162.1158447265625 50.561248779296875 176.54998779296875 53.23423767089844 187.241943359375 60.18400573730469 195.79547119140625 74.61814880371094 200.60687255859375 100.27882385253906 201.1414794921875 128.6125030517578 199.0030517578125 157.48077392578125 196.330078125 179.9338836669922 195.2608642578125 195.9718017578125 194.19171142578125 202.92156982421875 192.587890625 208.26754760742188 190.44952392578125 210.9405517578125 186.1727294921875 210.9405517578125 179.757568359375 206.129150390625 162.65045166015625 181.00306701660156 162.65045166015625 181.00306701660156 " />
        <polyline stroke="black" stroke-width="3" stroke-linecap="round" fill="transparent" stroke-linejoin="round" points="138.0589599609375 79.964111328125 136.45513916015625 94.93284606933594 132.17837524414063 108.29779052734376 125.76318359375 123.26652526855467 117.20965576171876 138.7698516845703 108.65606689453124 152.13479614257813 101.17169189453124 159.61917114257813 95.82574462890624 162.2921600341797 95.82574462890624 162.2921600341797 " />
        <polyline stroke="black" stroke-width="3" stroke-linecap="round" fill="transparent" stroke-linejoin="round" points="93.15274047851563 118.45515441894533 108.65606689453124 124.33572387695313 122.55560302734376 129.1470947265625 140.73193359375 136.6314697265625 155.70068359375 145.18502807617188 169.06561279296875 159.08456420898438 169.06561279296875 159.08456420898438 " />
        </svg>