<?xml version="1.0" standalone="no"?>
    <svg width="256" height="256" xmlns="http://www.w3.org/2000/svg" version="1.1">
    <polyline stroke="black" stroke-width="3" stroke-linecap="round" fill="transparent" stroke-linejoin="round" points="77.57424926757813 87.70993041992188 91.5147705078125 82.69134521484375 105.45526123046876 77.11514282226563 116.607666015625 72.0965576171875 124.41436767578124 68.19322204589844 128.31768798828125 66.52035522460938 128.31768798828125 66.52035522460938 " />
        <polyline stroke="black" stroke-width="3" stroke-linecap="round" fill="transparent" stroke-linejoin="round" points="97.6485595703125 86.59469604492188 98.2061767578125 101.0928192138672 98.76382446289063 115.03334045410156 99.87905883789063 132.31956481933594 100.43667602539063 149.04818725585938 100.43667602539063 161.8734588623047 99.32144165039063 170.23776245117188 97.6485595703125 175.81396484375 94.3028564453125 180.27493286132813 90.9571533203125 181.9477996826172 84.82330322265625 179.71731567382813 78.68948364257813 173.58348083496094 78.68948364257813 173.58348083496094 " />
        <polyline stroke="black" stroke-width="3" stroke-linecap="round" fill="transparent" stroke-linejoin="round" points="52.4813232421875 137.89578247070313 50.2508544921875 147.93295288085938 48.577972412109375 156.29725646972656 48.577972412109375 163.54632568359375 48.577972412109375 168.5648956298828 50.8084716796875 171.35301208496094 55.8270263671875 170.23776245117188 64.74896240234375 165.21917724609375 78.13186645507813 156.29725646972656 78.13186645507813 156.29725646972656 " />
        <polyline stroke="black" stroke-width="3" stroke-linecap="round" fill="transparent" stroke-linejoin="round" points="125.52960205078124 123.95526123046876 118.838134765625 136.22291564941406 117.165283203125 140.6838836669922 118.280517578125 145.14483642578125 121.06863403320313 149.60580444335938 125.52960205078124 152.95152282714844 130.54818725585938 155.1820068359375 137.7972412109375 154.0667724609375 137.7972412109375 154.0667724609375 " />
        <polyline stroke="black" stroke-width="3" stroke-linecap="round" fill="transparent" stroke-linejoin="round" points="156.75634765625 62.05938720703125 155.64111328125 72.65419006347656 155.64111328125 79.34562683105469 155.64111328125 86.59469604492188 156.75634765625 92.728515625 158.42919921875 97.18948364257813 161.77490234375 99.9775848388672 166.23590087890625 101.0928192138672 171.8121337890625 99.9775848388672 179.0611572265625 97.18948364257813 187.98309326171875 91.61328125 197.462646484375 85.47944641113281 205.269287109375 77.67276000976563 205.269287109375 77.67276000976563 " />
        <polyline stroke="black" stroke-width="3" stroke-linecap="round" fill="transparent" stroke-linejoin="round" points="198.020263671875 44.773162841796875 202.481201171875 53.13746643066406 204.711669921875 58.15605163574219 206.38458251953125 65.40512084960938 207.49981689453125 78.78800964355469 209.73028564453125 104.43855285644533 209.73028564453125 104.43855285644533 " />
        <polyline stroke="black" stroke-width="3" stroke-linecap="round" fill="transparent" stroke-linejoin="round" points="147.83441162109375 149.60580444335938 147.83441162109375 162.4310760498047 147.83441162109375 168.5648956298828 147.83441162109375 173.58348083496094 147.83441162109375 176.37158203125 147.83441162109375 178.04444885253906 147.83441162109375 176.92921447753906 149.50726318359375 172.46824645996094 153.96826171875 163.54632568359375 165.12066650390625 149.60580444335938 179.6187744140625 135.66529846191406 194.674560546875 122.84002685546876 209.73028564453125 115.59095764160156 222.5555419921875 115.03334045410156 230.36224365234375 119.49430847167967 238.1689453125 130.64671325683594 242.6298828125 146.2600860595703 242.072265625 157.41249084472656 238.1689453125 164.10394287109375 226.4588623046875 172.46824645996094 203.596435546875 173.02586364746094 203.596435546875 173.02586364746094 " />
        <polyline stroke="black" stroke-width="3" stroke-linecap="round" fill="transparent" stroke-linejoin="round" points="178.5035400390625 36.96647644042969 179.6187744140625 45.888397216796875 180.1763916015625 60.38653564453125 181.8492431640625 92.728515625 185.1949462890625 120.05192565917967 189.65594482421875 146.8177032470703 191.886474609375 165.77679443359375 193.001708984375 182.50540161132813 192.444091796875 194.7730712890625 190.771240234375 201.46450805664065 189.09832763671875 206.48309326171875 189.09832763671875 206.48309326171875 " />
        </svg>