<?xml version="1.0" standalone="no"?>
    <svg width="256" height="256" xmlns="http://www.w3.org/2000/svg" version="1.1">
    <polyline stroke="black" stroke-width="3" stroke-linecap="round" fill="transparent" stroke-linejoin="round" points="43.14007568359375 68.74447631835938 51.0396728515625 66.38323974609375 58.93927001953125 64.02200317382813 72.65402221679688 60.3941650390625 82.59979248046875 58.35247802734375 85.37103271484375 57.922210693359375 89.8165283203125 58.79278564453125 89.982421875 58.86009216308594 " />
        <polyline stroke="black" stroke-width="3" stroke-linecap="round" fill="transparent" stroke-linejoin="round" points="71.266845703125 88.89251708984375 74.8282470703125 103.26889038085938 78.3896484375 117.645263671875 85.97518920898438 149.96136474609375 88.29049682617188 167.14227294921875 91.53619384765624 201.5865478515625 91.697265625 213.42495727539065 90.097900390625 227.88238525390625 88.4556884765625 231.24899291992188 84.71917724609375 233.5111083984375 77.14193725585938 231.02532958984375 67.45098876953125 228.446533203125 57.01788330078125 222.99981689453125 56.019378662109375 221.486572265625 " />
        <polyline stroke="black" stroke-width="3" stroke-linecap="round" fill="transparent" stroke-linejoin="round" points="31.687835693359375 129.45758056640625 34.676361083984375 130.37469482421875 37.664886474609375 131.29180908203125 38.60174560546875 131.66366577148438 " />
        <polyline stroke="black" stroke-width="3" stroke-linecap="round" fill="transparent" stroke-linejoin="round" points="46.20404052734375 177.24000549316406 50.687469482421875 173.36019897460938 55.1708984375 169.4803924560547 55.929443359375 168.72738647460938 " />
        <polyline stroke="black" stroke-width="3" stroke-linecap="round" fill="transparent" stroke-linejoin="round" points="100.440185546875 126.15592956542972 98.853515625 127.3545379638672 97.266845703125 128.5531463623047 " />
        <polyline stroke="black" stroke-width="3" stroke-linecap="round" fill="transparent" stroke-linejoin="round" points="115.46630859375 171.7582244873047 " />
        <polyline stroke="black" stroke-width="3" stroke-linecap="round" fill="transparent" stroke-linejoin="round" points="115 171 " />
        <polyline stroke="black" stroke-width="3" stroke-linecap="round" fill="transparent" stroke-linejoin="round" points="109.38955688476565 56.033843994140625 110.43304443359376 61.9571533203125 111.47653198242188 67.88046264648438 112.96701049804688 74.98922729492188 116.72845458984376 87.04412841796875 119.968505859375 91.703125 131.505126953125 95.28707885742188 158.3629150390625 95.6087646484375 167.08709716796875 93.66664123535156 170.61126708984375 88.24620056152344 172.94140625 85.18659973144531 180.17742919921875 78.0526123046875 186.7781982421875 72.45309448242188 186.3441162109375 72.14749145507813 " />
        <polyline stroke="black" stroke-width="3" stroke-linecap="round" fill="transparent" stroke-linejoin="round" points="185.673583984375 45.41529846191406 187.3050537109375 54.41668701171875 188.9365234375 63.41807556152344 192.804443359375 77.66702270507813 194.14166259765625 82.17755126953125 " />
        <polyline stroke="black" stroke-width="3" stroke-linecap="round" fill="transparent" stroke-linejoin="round" points="115.90966796875 149.72708129882813 116.340087890625 151.3400115966797 116.7705078125 152.95294189453125 117.41793823242188 154.93728637695313 117.685546875 155.6350555419922 122.53634643554688 158.03494262695313 135.37158203125 161.7539520263672 140.24130249023438 162.75962829589844 143.56622314453125 163.1627655029297 161.180419921875 163.63748168945313 162.4659423828125 163.26748657226563 162.47998046875 163.263427734375 162.4859619140625 163.26171875 162.4869384765625 163.26144409179688 " />
        <polyline stroke="black" stroke-width="3" stroke-linecap="round" fill="transparent" stroke-linejoin="round" points="151.4464111328125 104.37686157226563 155.9683837890625 104.6732177734375 160.4903564453125 104.96957397460938 164.84686279296875 105.63546752929688 171.3927001953125 106.73715209960938 188.48614501953125 109.9192352294922 195.9144287109375 111.55039978027344 206.435546875 114.08782958984376 213.471435546875 118.48614501953124 215.884521484375 121.92269897460938 220.129638671875 133.06475830078125 221.4727783203125 139.71530151367188 220.5443115234375 151.77066040039063 218.89471435546875 155.5379638671875 214.8311767578125 158.53689575195313 206.372314453125 159.45223999023438 205.87109375 158.70843505859375 " />
        <polyline stroke="black" stroke-width="3" stroke-linecap="round" fill="transparent" stroke-linejoin="round" points="136.0299072265625 12.383506774902344 137.52276611328125 17.362998962402344 139.015625 22.342491149902344 140.125732421875 30.75005340576172 143.19357299804688 55.05632781982422 146.46673583984375 70.62173461914063 157.6026611328125 90.96115112304688 169.71295166015625 128.93931579589844 173.27392578125 159.91754150390625 174.725830078125 172.91722106933594 176.653564453125 190.03973388671875 178.1942138671875 198.96600341796875 178.3292236328125 212.49285888671875 177.615478515625 210.29617309570313 " />
        </svg>