<?xml version="1.0" standalone="no"?>
    <svg width="256" height="256" xmlns="http://www.w3.org/2000/svg" version="1.1">
    <polyline stroke="black" stroke-width="3" stroke-linecap="round" fill="transparent" stroke-linejoin="round" points="44.046142578125 113.838623046875 64.79733276367188 101.38790893554688 72.175537109375 97.69879150390624 79.55377197265625 94.4708251953125 92.9267578125 89.3983154296875 103.07177734375 85.24806213378906 109.06658935546876 82.48123168945313 111.372314453125 78.33099365234375 111.372314453125 78.33099365234375 " />
        <polyline stroke="black" stroke-width="3" stroke-linecap="round" fill="transparent" stroke-linejoin="round" points="90.62106323242188 85.70919799804688 89.69882202148438 104.15472412109376 89.69882202148438 120.75570678710938 90.62106323242188 172.40313720703125 90.62106323242188 196.38232421875 88.77655029296875 208.37191772460935 87.39312744140625 211.59988403320313 83.24285888671875 212.52215576171875 83.24285888671875 212.52215576171875 " />
        <polyline stroke="black" stroke-width="3" stroke-linecap="round" fill="transparent" stroke-linejoin="round" points="38.973602294921875 159.49130249023438 32.978851318359375 175.16998291015625 31.595428466796875 181.1647796630859 31.13427734375 186.2373046875 30.67315673828125 189.9263916015625 31.13427734375 193.61550903320313 33.901092529296875 193.15435791015625 44.046142578125 187.6207275390625 59.724822998046875 175.631103515625 75.40353393554688 162.71923828125 86.00970458984375 153.03533935546875 91.5433349609375 147.96282958984375 93.84906005859376 145.6571502685547 94.31015014648438 145.6571502685547 92.00448608398438 154.87991333007813 89.69882202148438 169.63632202148438 89.69882202148438 180.24249267578125 92.9267578125 186.69842529296875 101.68841552734376 189.00411987304688 116.90594482421876 185.31500244140625 133.968017578125 173.32542419433594 133.968017578125 173.32542419433594 " />
        <polyline stroke="black" stroke-width="3" stroke-linecap="round" fill="transparent" stroke-linejoin="round" points="154.71923828125 69.10824584960938 151.0301513671875 85.24806213378906 150.56903076171875 91.24285888671876 150.56903076171875 95.854248046875 152.41357421875 97.69879150390624 155.64154052734375 98.62106323242188 157.94720458984375 98.62106323242188 164.4031982421875 97.23765563964844 176.39276123046875 90.32058715820313 189.7657470703125 74.18075561523438 199.9107666015625 56.657501220703125 199.9107666015625 56.657501220703125 " />
        <polyline stroke="black" stroke-width="3" stroke-linecap="round" fill="transparent" stroke-linejoin="round" points="202.21649169921875 45.129058837890625 202.21649169921875 61.268890380859375 202.21649169921875 65.88027954101563 200.83306884765625 76.94758605957031 195.76055908203125 94.4708251953125 195.76055908203125 94.4708251953125 " />
        <polyline stroke="black" stroke-width="3" stroke-linecap="round" fill="transparent" stroke-linejoin="round" points="143.19085693359375 157.1855926513672 140.88510131835938 169.1751708984375 140.88510131835938 172.40313720703125 141.34628295898438 173.32542419433594 144.57421875 170.55859375 152.41357421875 163.18038940429688 164.8642578125 151.19082641601563 177.776123046875 139.2012176513672 189.7657470703125 131.3618621826172 199.44964599609375 128.13389587402344 206.827880859375 129.0561981201172 212.36151123046875 133.2064208984375 215.12835693359375 136.89553833007813 218.81744384765625 153.9576416015625 216.972900390625 159.49130249023438 202.6776123046875 170.0974578857422 202.6776123046875 170.0974578857422 " />
        <polyline stroke="black" stroke-width="3" stroke-linecap="round" fill="transparent" stroke-linejoin="round" points="163.9420166015625 46.05133056640625 170.39794921875 83.40351867675781 174.0870361328125 105.53814697265624 181.004150390625 146.57940673828125 183.77093505859375 165.0249481201172 187.4600830078125 194.9989013671875 188.843505859375 218.97808837890625 187.4600830078125 239.2681579589844 187.4600830078125 239.2681579589844 " />
        </svg>