<?xml version="1.0" standalone="no"?>
    <svg width="256" height="256" xmlns="http://www.w3.org/2000/svg" version="1.1">
    <polyline stroke="black" stroke-width="3" stroke-linecap="round" fill="transparent" stroke-linejoin="round" points="73.11114501953125 54.88890075683594 83.11114501953125 81.55555725097656 87.5556640625 98.22222900390624 92 112.66667175292967 95.3333740234375 123.7777862548828 97.5556640625 128.22222900390625 99.77783203125 130.4444580078125 99.77783203125 131.55557250976563 99.77783203125 131.55557250976563 " />
        <polyline stroke="black" stroke-width="3" stroke-linecap="round" fill="transparent" stroke-linejoin="round" points="104.2222900390625 68.22222900390625 127.5556640625 54.88890075683594 139.77783203125 50.44445037841797 153.1112060546875 46.00000762939453 164.2222900390625 41.55555725097656 169.77783203125 38.22222900390625 172 38.22222900390625 170.888916015625 40.44445037841797 166.4444580078125 47.111114501953125 163.1112060546875 51.555564880371094 152 68.22222900390625 135.3333740234375 88.22222900390625 128.666748046875 96.00001525878906 120.888916015625 100.4444580078125 118.666748046875 102.66667175292967 115.3333740234375 102.66667175292967 117.5556640625 102.66667175292967 130.888916015625 99.33334350585938 138.666748046875 97.11111450195313 145.3333740234375 94.88890075683594 149.77783203125 93.7777862548828 152 93.7777862548828 153.1112060546875 92.66667175292967 153.1112060546875 92.66667175292967 " />
        <polyline stroke="black" stroke-width="3" stroke-linecap="round" fill="transparent" stroke-linejoin="round" points="49.77783203125 129.33334350585938 56.44451904296875 144.88890075683594 57.55560302734375 150.4444580078125 58.66668701171875 161.55557250976563 59.77783203125 171.55557250976563 60.888916015625 179.33334350585938 60.888916015625 183.77780151367188 60.888916015625 184.888916015625 62.00006103515625 183.77780151367188 72.00006103515625 177.1111297607422 117.5556640625 151.55557250976563 148.666748046875 138.22222900390625 158.666748046875 134.88890075683594 186.4444580078125 124.88890075683594 197.5556640625 120.4444580078125 203.1112060546875 118.22222900390624 204.2222900390625 118.22222900390624 205.3333740234375 118.22222900390624 205.3333740234375 118.22222900390624 " />
        <polyline stroke="black" stroke-width="3" stroke-linecap="round" fill="transparent" stroke-linejoin="round" points="208.666748046875 71.55555725097656 219.77783203125 84.88890075683594 218.666748046875 89.33334350585938 216.4444580078125 96.00001525878906 209.77783203125 111.55555725097656 202 124.88890075683594 189.77783203125 140.4444580078125 183.1112060546875 148.22222900390625 183.1112060546875 148.22222900390625 " />
        <polyline stroke="black" stroke-width="3" stroke-linecap="round" fill="transparent" stroke-linejoin="round" points="117.5556640625 118.22222900390624 134.2222900390625 126.00001525878906 135.3333740234375 127.11111450195313 136.4444580078125 127.11111450195313 136.4444580078125 129.33334350585938 137.5556640625 134.88890075683594 136.4444580078125 153.7777862548828 135.3333740234375 172.6666717529297 132 192.66668701171875 125.3333740234375 218.22222900390625 119.77783203125 232.66668701171875 112 247.11111450195313 107.5556640625 252.66668701171875 107.5556640625 252.66668701171875 " />
        </svg>