<?xml version="1.0" standalone="no"?>
    <svg width="256" height="256" xmlns="http://www.w3.org/2000/svg" version="1.1">
    <polyline stroke="black" stroke-width="3" stroke-linecap="round" fill="transparent" stroke-linejoin="round" points="88.28948974609375 74.57699584960938 89.31234741210938 79.35049438476563 90.335205078125 84.12399291992188 91.01718139648438 88.215576171875 91.35812377929688 91.96620178222656 90.67620849609376 100.14938354492188 89.9942626953125 102.19515991210938 89.31234741210938 101.85421752929688 88.97137451171875 100.831298828125 89.65328979492188 95.03488159179688 94.76776123046876 83.44207763671875 103.97384643554688 71.16732788085938 115.90765380859376 58.892547607421875 129.54623413085938 49.34552001953125 142.16195678710938 43.89007568359375 151.708984375 42.526214599609375 154.43670654296875 43.20814514160156 157.84637451171875 52.75517272949219 150.34515380859375 69.80345153808594 142.5029296875 79.35049438476563 142.5029296875 79.35049438476563 " />
        <polyline stroke="black" stroke-width="3" stroke-linecap="round" fill="transparent" stroke-linejoin="round" points="81.81109619140625 114.81086730957027 89.65328979492188 109.01446533203124 97.4954833984375 103.2180633544922 112.49798583984376 92.98908996582033 131.25106811523438 83.10110473632813 131.25106811523438 83.10110473632813 " />
        <polyline stroke="black" stroke-width="3" stroke-linecap="round" fill="transparent" stroke-linejoin="round" points="79.76528930664063 135.268798828125 79.42431640625 143.1110076904297 79.08334350585938 150.95321655273438 79.76531982421875 156.74961853027344 80.78817749023438 159.13638305664063 87.948486328125 162.8870086669922 100.56417846679688 161.52313232421875 108.4063720703125 158.79541015625 127.15948486328124 147.54356384277344 143.52581787109375 134.58688354492188 158.1873779296875 119.92535400390624 162.619873046875 113.78799438476563 162.619873046875 113.78799438476563 " />
        <polyline stroke="black" stroke-width="3" stroke-linecap="round" fill="transparent" stroke-linejoin="round" points="167.39337158203125 107.99157714843749 168.0753173828125 112.08316040039063 168.75726318359375 116.17474365234376 168.75726318359375 124.69888305664063 167.734375 128.7904510498047 167.734375 128.7904510498047 " />
        <polyline stroke="black" stroke-width="3" stroke-linecap="round" fill="transparent" stroke-linejoin="round" points="126.13659667968753 118.56149291992188 123.40887451171876 129.8133544921875 120.68115234375 141.06521606445313 117.61248779296876 153.3399658203125 111.13412475585938 179.2533416748047 108.4063720703125 192.8919677734375 103.97384643554688 221.19207763671875 103.97384643554688 221.19207763671875 " />
        </svg>