<?xml version="1.0" standalone="no"?>
    <svg width="256" height="256" xmlns="http://www.w3.org/2000/svg" version="1.1">
    <polyline stroke="black" stroke-width="3" stroke-linecap="round" fill="transparent" stroke-linejoin="round" points="75.91015625 64.56907653808594 81.7750244140625 78.3592529296875 87.639892578125 92.14942932128906 90.44540405273438 97.9739990234375 94.3798828125 106.35659790039063 94.19638061523438 106.91830444335938 94.16818237304688 107.00454711914063 " />
        <polyline stroke="black" stroke-width="3" stroke-linecap="round" fill="transparent" stroke-linejoin="round" points="98.36965942382815 51.22328186035156 103.71502685546876 50.77264404296875 109.06039428710938 50.32200622558594 114.56878662109376 50.263938903808594 125.33834838867188 50.343658447265625 130.59115600585938 50.472557067871094 131.32391357421875 50.787353515625 131.64218139648438 51.33097839355469 131.99472045898438 52.79075622558594 132.19918823242188 67.14529418945313 130.14889526367188 76.14297485351563 128.07635498046875 82.85693359375 127.8919677734375 83.45428466796875 " />
        <polyline stroke="black" stroke-width="3" stroke-linecap="round" fill="transparent" stroke-linejoin="round" points="111.98590087890629 88.56130981445313 117.11175537109376 86.15414428710938 122.23760986328124 83.74697875976563 128.70086669921875 80.66767883300781 128.8427734375 80.60133361816406 " />
        <polyline stroke="black" stroke-width="3" stroke-linecap="round" fill="transparent" stroke-linejoin="round" points="59.81414794921875 115.65895080566406 61.7806396484375 128.72064208984375 63.74713134765625 141.78233337402344 63.740966796875 146.67129516601563 62.97076416015625 153.71914672851563 62.7236328125 154.5598602294922 62.778411865234375 155.13768005371094 63.66241455078125 155.05807495117188 67.0771484375 154.72714233398438 76.32684326171875 153.59210205078125 96.46432495117188 149.7850341796875 117.70724487304688 144.81320190429688 126.85824584960938 142.36459350585938 153.12152099609375 136.86849975585938 161.576416015625 135.70639038085938 165.0574951171875 135.86697387695313 187.2738037109375 134.7008056640625 189.49542236328125 134.5841522216797 " />
        <polyline stroke="black" stroke-width="3" stroke-linecap="round" fill="transparent" stroke-linejoin="round" points="181.39703369140625 120.81407165527347 184.867431640625 127.1233367919922 188.33782958984375 133.43260192871094 186.258544921875 138.70602416992188 185.63836669921875 142.4653778076172 185.5657958984375 142.70126342773438 " />
        <polyline stroke="black" stroke-width="3" stroke-linecap="round" fill="transparent" stroke-linejoin="round" points="102.7615966796875 103.7238464355469 105.8837890625 115.78509521484376 109.0059814453125 127.84634399414063 113.82797241210938 157.9836883544922 115.15185546875 191.2476806640625 112.68453979492188 210.8121032714844 111.49072265625 214.21469116210935 " />
        </svg>