<?xml version="1.0" standalone="no"?>
    <svg width="256" height="256" xmlns="http://www.w3.org/2000/svg" version="1.1">
    <polyline stroke="black" stroke-width="3" stroke-linecap="round" fill="transparent" stroke-linejoin="round" points="92 62 91 70 91 76 91 82 91 97 91 103 91 113 93 117 93 117 " />
        <polyline stroke="black" stroke-width="3" stroke-linecap="round" fill="transparent" stroke-linejoin="round" points="86 67 105 54 117 53 130 53 141 55 147 60 151 65 152 73 153 83 153 96 153 101 153 101 " />
        <polyline stroke="black" stroke-width="3" stroke-linecap="round" fill="transparent" stroke-linejoin="round" points="85 119 97 116 110 115 132 113 143 111 147 111 147 111 " />
        <polyline stroke="black" stroke-width="3" stroke-linecap="round" fill="transparent" stroke-linejoin="round" points="62 134 61 142 61 146 63 154 65 160 67 163 67 164 68 164 70 164 80 164 98 160 120 154 145 150 168 148 184 148 194 148 196 148 196 148 " />
        <polyline stroke="black" stroke-width="3" stroke-linecap="round" fill="transparent" stroke-linejoin="round" points="197 123 197 129 197 144 197 149 197 153 197 153 " />
        <polyline stroke="black" stroke-width="3" stroke-linecap="round" fill="transparent" stroke-linejoin="round" points="138 120 143 138 143 146 140 181 135 192 121 212 94 232 94 232 " />
        </svg>