<?xml version="1.0" standalone="no"?>
    <svg width="256" height="256" xmlns="http://www.w3.org/2000/svg" version="1.1">
    <polyline stroke="black" stroke-width="3" stroke-linecap="round" fill="transparent" stroke-linejoin="round" points="116 67 117 67 118 67 118 68 118 71 118 76 118 86 117 88 116 99 114 113 113 120 112 130 112 136 112 139 111 144 110 153 110 157 109 163 108 166 108 167 108 168 108 170 108 171 108 171 " />
        <polyline stroke="black" stroke-width="3" stroke-linecap="round" fill="transparent" stroke-linejoin="round" points="29 175 31 175 33 175 39 175 60 175 86 175 97 175 114 175 128 175 133 175 141 175 150 175 152 175 159 175 163 175 164 175 166 175 167 175 168 175 168 175 168 175 " />
        </svg>