<?xml version="1.0" standalone="no"?>
    <svg width="256" height="256" xmlns="http://www.w3.org/2000/svg" version="1.1">
    <polyline stroke="black" stroke-width="3" stroke-linecap="round" fill="transparent" stroke-linejoin="round" points="62.28607177734375 99.84019470214844 61.6739501953125 124.32472229003906 62.28607177734375 151.25772094726563 62.898193359375 167.17266845703125 62.28607177734375 178.8028106689453 62.28607177734375 184.31182861328125 62.28607177734375 184.31182861328125 " />
        <polyline stroke="black" stroke-width="3" stroke-linecap="round" fill="transparent" stroke-linejoin="round" points="66.57086181640625 120.03993225097656 74.5283203125 110.24612426757813 84.93426513671875 98.615966796875 95.95230102539063 88.21003723144531 106.35821533203124 80.2525634765625 114.31570434570313 76.57987976074219 120.43682861328124 76.57987976074219 122.88531494140624 81.47679138183594 122.88531494140624 96.16751098632813 119.21261596679688 118.20359802246094 113.09149169921876 143.3002471923828 105.13400268554688 167.78477478027344 98.4007568359375 184.31182861328125 98.4007568359375 184.31182861328125 " />
        <polyline stroke="black" stroke-width="3" stroke-linecap="round" fill="transparent" stroke-linejoin="round" points="46.983245849609375 216.1417236328125 60.449737548828125 206.34793090820313 72.07989501953125 201.45101928710935 86.77059936523438 194.10565185546875 102.685546875 185.53607177734375 119.21261596679688 176.3543701171875 130.23065185546875 167.78477478027344 130.23065185546875 167.78477478027344 " />
        <polyline stroke="black" stroke-width="3" stroke-linecap="round" fill="transparent" stroke-linejoin="round" points="142.472900390625 125.5489501953125 160.2242431640625 120.03993225097656 171.24224853515625 118.20359802246094 181.648193359375 116.9793701171875 188.9935302734375 116.9793701171875 195.11468505859375 121.26416015625 195.11468505859375 121.26416015625 " />
        <polyline stroke="black" stroke-width="3" stroke-linecap="round" fill="transparent" stroke-linejoin="round" points="125.333740234375 214.91751098632813 144.30926513671875 207.5721435546875 161.44842529296875 202.67523193359375 182.26025390625 196.5541076660156 199.39947509765625 191.04507446289065 211.0296630859375 188.59661865234375 219.5992431640625 190.4329833984375 219.5992431640625 190.4329833984375 " />
        </svg>