<?xml version="1.0" standalone="no"?>
    <svg width="256" height="256" xmlns="http://www.w3.org/2000/svg" version="1.1">
    <polyline stroke="black" stroke-width="3" stroke-linecap="round" fill="transparent" stroke-linejoin="round" points="45.027099609375 76.6597900390625 50.68328857421875 99.79866027832033 54.28265380859375 131.67889404296875 55.31103515625 148.64739990234375 57.36785888671875 162.0165252685547 58.910430908203125 169.7294921875 60.453033447265625 173.32887268066406 61.99560546875 172.30047607421875 61.99560546875 172.30047607421875 " />
        <polyline stroke="black" stroke-width="3" stroke-linecap="round" fill="transparent" stroke-linejoin="round" points="55.82525634765625 101.85545349121094 67.65179443359375 90.54312133789063 74.85055541992188 83.34434509277344 82.56350708007813 77.17398071289063 88.73388671875 72.54620361328125 93.36163330078124 69.46102905273438 96.44683837890624 68.94682312011719 97.4752197265625 71.517822265625 97.4752197265625 80.25917053222656 96.96102905273438 96.71348571777344 96.96102905273438 117.2813720703125 95.9326171875 137.84925842285156 94.90423583984376 155.84616088867188 92.333251953125 172.30047607421875 92.333251953125 172.30047607421875 " />
        <polyline stroke="black" stroke-width="3" stroke-linecap="round" fill="transparent" stroke-linejoin="round" points="43.99871826171875 204.69488525390625 58.396240234375 198.0103454589844 68.16598510742188 193.382568359375 79.47833251953125 187.21218872070313 90.7906494140625 180.5276336669922 102.6171875 172.81466674804688 102.6171875 172.81466674804688 " />
        <polyline stroke="black" stroke-width="3" stroke-linecap="round" fill="transparent" stroke-linejoin="round" points="133.98321533203125 109.05421447753906 141.1820068359375 103.91224670410156 149.40914916992188 98.770263671875 159.693115234375 94.14250183105467 167.40606689453125 91.57150268554688 172.54803466796875 91.57150268554688 176.14739990234375 95.17088317871094 176.14739990234375 95.17088317871094 " />
        <polyline stroke="black" stroke-width="3" stroke-linecap="round" fill="transparent" stroke-linejoin="round" points="116.50051879882813 196.46774291992188 126.78448486328124 194.41094970703125 141.6961669921875 191.8399658203125 158.1505126953125 189.26898193359375 171.5196533203125 187.21218872070313 183.8603515625 186.18380737304688 192.0875244140625 188.2406005859375 192.0875244140625 188.2406005859375 " />
        </svg>