<?xml version="1.0" standalone="no"?>
    <svg width="256" height="256" xmlns="http://www.w3.org/2000/svg" version="1.1">
    <polyline stroke="black" stroke-width="3" stroke-linecap="round" fill="transparent" stroke-linejoin="round" points="107 92 107 92 107 93 106 95 100 104 97 108 92 116 87 124 85 127 78 137 76 140 75 143 74 143 73 145 73 145 73 146 73 146 75 148 78 150 81 154 86 158 91 164 97 171 103 179 110 187 117 194 120 197 " />
        <polyline stroke="black" stroke-width="3" stroke-linecap="round" fill="transparent" stroke-linejoin="round" points="157 108 155 109 151 112 148 116 144 121 140 125 136 129 134 132 131 136 130 137 130 138 129 139 129 140 131 143 132 145 136 152 138 155 151 169 159 176 167 184 171 188 176 192 " />
        </svg>