<?xml version="1.0" standalone="no"?>
    <svg width="256" height="256" xmlns="http://www.w3.org/2000/svg" version="1.1">
    <polyline stroke="black" stroke-width="3" stroke-linecap="round" fill="transparent" stroke-linejoin="round" points="88.05975341796871 87.79153442382813 93.37432861328124 84.602783203125 98.68890380859376 81.41403198242188 104.71209716796876 78.57958984375 111.44384765625 75.74514770507813 127.3875732421875 70.07627868652344 142.6226806640625 65.47032165527344 155.02337646484375 62.99017333984375 163.17236328125 61.57295227050781 167.42401123046875 60.864349365234375 167.42401123046875 60.864349365234375 " />
        <polyline stroke="black" stroke-width="3" stroke-linecap="round" fill="transparent" stroke-linejoin="round" points="130.57623291015625 73.61929321289063 119.238525390625 91.33456420898438 107.90081787109376 109.04983520507813 89.83126831054688 145.543212890625 82.74517822265625 163.96707153320313 69.99017333984375 198.68896484375 65.738525390625 210.38104248046875 63.6126708984375 213.924072265625 63.258392333984375 214.27838134765625 63.258392333984375 214.27838134765625 " />
        <polyline stroke="black" stroke-width="3" stroke-linecap="round" fill="transparent" stroke-linejoin="round" points="110.02664184570313 137.0399169921875 128.45050048828125 135.97698974609375 146.87435913085938 134.9140625 158.92071533203125 139.87432861328125 168.1326904296875 158.29820251464844 170.25848388671875 191.60284423828125 166.361083984375 220.6558837890625 161.04656982421875 233.41082763671875 150.06307983398438 237.3081970214844 129.15911865234375 228.09625244140625 119.238525390625 221.01019287109375 119.238525390625 221.01019287109375 " />
        </svg>