<?xml version="1.0" standalone="no"?>
    <svg width="256" height="256" xmlns="http://www.w3.org/2000/svg" version="1.1">
    <polyline stroke="black" stroke-width="3" stroke-linecap="round" fill="transparent" stroke-linejoin="round" points="49.842529296874986 88.11257934570313 86.64645385742188 84.33082580566406 123.45037841796876 80.549072265625 144.64227294921875 78.50146484375 183.5107421875 77.7464599609375 201.71380615234375 78.02734375 215.20916748046875 78.0916748046875 215.48651123046875 78.11370849609375 215.5166015625 78.11611938476563 215.51702880859375 78.11614990234375 215.51715087890625 78.11618041992188 " />
        <polyline stroke="black" stroke-width="3" stroke-linecap="round" fill="transparent" stroke-linejoin="round" points="160.04083251953125 136.60768127441406 170.02490234375 137.91372680664063 180.00897216796875 139.2197723388672 192.686767578125 142.815185546875 195.26654052734375 144.85223388671875 195.99951171875 151.77374267578125 195.28997802734375 179.75131225585938 191.82183837890625 200.94140625 180.595703125 231.44580078125 175.26898193359375 243.6048583984375 169.96112060546875 250.578857421875 161.72235107421875 252.29132080078125 154.3095703125 252.0284423828125 151.4952392578125 251.9112243652344 142.33139038085938 247.25662231445313 126.92953491210938 233.056640625 125.6083984375 230.08883666992188 " />
        <polyline stroke="black" stroke-width="3" stroke-linecap="round" fill="transparent" stroke-linejoin="round" points="128.19906616210938 107.49020385742188 122.32650756835938 132.67080688476563 116.45394897460938 157.85140991210938 97.5079345703125 211.58840942382813 75.88681030273438 247.04913330078125 65.04904174804688 259.6427307128906 58.353118896484375 267.269287109375 60.33795166015625 262.2608947753906 " />
        </svg>