<?xml version="1.0" standalone="no"?>
    <svg width="256" height="256" xmlns="http://www.w3.org/2000/svg" version="1.1">
    <polyline stroke="black" stroke-width="3" stroke-linecap="round" fill="transparent" stroke-linejoin="round" points="77.59707641601565 84.28219604492188 95.92034912109376 82.55992126464844 114.24362182617188 80.837646484375 164.45941162109375 74.82894897460938 179.8773193359375 72.88935852050781 186.278076171875 73.61119079589844 191.4229736328125 75.28866577148438 193.86431884765625 75.434326171875 195.6265869140625 75.33755493164063 195.6385498046875 75.3369140625 195.6414794921875 75.33676147460938 195.6427001953125 75.336669921875 195.643310546875 75.33663940429688 " />
        <polyline stroke="black" stroke-width="3" stroke-linecap="round" fill="transparent" stroke-linejoin="round" points="150.29376220703125 110.36671447753903 155.6463623046875 110.67193603515624 160.99896240234375 110.97715759277344 169.4815673828125 112.4278564453125 173.8515625 114.67977905273438 174.6514892578125 115.92657470703124 177.6171875 120.977294921875 179.0772705078125 125.12997436523438 182.3560791015625 139.7098388671875 183.10491943359375 150.396484375 182.06390380859375 175.6044158935547 180.216796875 184.447021484375 176.96575927734375 199.23583984375 175.697021484375 202.50982666015625 174.384033203125 204.03665161132813 173.77880859375 204.6158447265625 173.77166748046875 204.6226806640625 173.31805419921875 204.75634765625 172.553466796875 204.850341796875 169.0255126953125 204.4970703125 152.1700439453125 202.22222900390625 129.93023681640625 194.81109619140625 128.67474365234375 193.655029296875 " />
        <polyline stroke="black" stroke-width="3" stroke-linecap="round" fill="transparent" stroke-linejoin="round" points="128.290283203125 81.81143188476563 128.10693359375 82.45111083984375 127.923583984375 83.09078979492188 127.10308837890624 85.83718872070313 114.65304565429688 103.2327880859375 109.87081909179688 112.6292724609375 102.64813232421876 134.93820190429688 95.15008544921876 161.88352966308594 89.80587768554688 178.0757293701172 79.93133544921875 195.18365478515625 78.94384765625 196.8944091796875 " />
        </svg>