<?xml version="1.0" standalone="no"?>
    <svg width="256" height="256" xmlns="http://www.w3.org/2000/svg" version="1.1">
    <polyline stroke="black" stroke-width="3" stroke-linecap="round" fill="transparent" stroke-linejoin="round" points="58.341400146484375 82.9423828125 58.341400146484375 95.39309692382813 58.80255126953125 124.44479370117188 57.88031005859375 143.81259155273438 56.035736083984375 174.24771118164063 55.5745849609375 194.9989013671875 56.035736083984375 205.6051025390625 56.496826171875 207.9107666015625 56.496826171875 207.9107666015625 " />
        <polyline stroke="black" stroke-width="3" stroke-linecap="round" fill="transparent" stroke-linejoin="round" points="74.48126220703125 127.67277526855467 98.92156982421876 120.75570678710938 111.372314453125 118.9111328125 118.75048828125 120.2945556640625 118.75048828125 120.2945556640625 " />
        <polyline stroke="black" stroke-width="3" stroke-linecap="round" fill="transparent" stroke-linejoin="round" points="62.491668701171875 181.1647796630859 76.78695678710938 178.85906982421875 84.62628173828125 174.70884704589844 93.84906005859376 168.25291442871094 102.61068725585938 159.95242309570313 102.61068725585938 159.95242309570313 " />
        <polyline stroke="black" stroke-width="3" stroke-linecap="round" fill="transparent" stroke-linejoin="round" points="122.43963623046876 62.652313232421875 115.06137084960938 105.999267578125 110.9111328125 144.73486328125 109.06658935546876 172.86428833007813 109.52777099609376 189.00411987304688 109.98886108398438 193.61550903320313 109.98886108398438 193.61550903320313 " />
        <polyline stroke="black" stroke-width="3" stroke-linecap="round" fill="transparent" stroke-linejoin="round" points="129.81781005859375 81.5589599609375 141.807373046875 91.24285888671876 152.874755859375 99.08219909667967 160.2529296875 101.84904479980467 160.2529296875 101.84904479980467 " />
        <polyline stroke="black" stroke-width="3" stroke-linecap="round" fill="transparent" stroke-linejoin="round" points="214.2060546875 37.75084686279297 201.294189453125 55.7352294921875 180.08184814453125 82.48123168945313 169.0145263671875 94.4708251953125 149.18560791015625 115.2220458984375 137.19601440429688 126.28936767578124 131.20123291015625 132.28414916992188 130.74008178710938 133.2064208984375 138.57943725585938 130.43960571289063 158.40838623046875 121.21682739257813 172.70361328125 112.45523071289063 172.70361328125 112.45523071289063 " />
        <polyline stroke="black" stroke-width="3" stroke-linecap="round" fill="transparent" stroke-linejoin="round" points="177.3150634765625 52.50726318359375 172.2425537109375 82.02009582519531 170.39794921875 99.5433349609375 169.0145263671875 119.37229919433594 168.09228515625 141.50692749023438 168.55340576171875 176.09225463867188 169.0145263671875 194.07666015625 169.0145263671875 201.454833984375 169.0145263671875 199.61029052734375 169.0145263671875 199.61029052734375 " />
        <polyline stroke="black" stroke-width="3" stroke-linecap="round" fill="transparent" stroke-linejoin="round" points="170.85906982421875 126.28936767578124 139.501708984375 159.49130249023438 133.968017578125 166.86949157714844 126.58984375 176.09225463867188 126.128662109375 176.5533905029297 126.128662109375 176.5533905029297 " />
        <polyline stroke="black" stroke-width="3" stroke-linecap="round" fill="transparent" stroke-linejoin="round" points="168.09228515625 134.58984375 186.53778076171875 142.42918395996094 205.4444580078125 153.49649047851563 205.4444580078125 153.49649047851563 " />
        </svg>