<?xml version="1.0" standalone="no"?>
    <svg width="256" height="256" xmlns="http://www.w3.org/2000/svg" version="1.1">
    <polyline stroke="black" stroke-width="3" stroke-linecap="round" fill="transparent" stroke-linejoin="round" points="64.26083374023438 56.09814453125 64.67138671875 70.05755615234375 65.08197021484375 79.50070190429688 65.08197021484375 120.55780029296876 64.67138671875 149.29776000976563 63.439666748046875 174.34259033203125 63.439666748046875 182.1434326171875 62.20794677734375 198.15570068359375 61.79736328125 200.619140625 61.79736328125 200.619140625 " />
        <polyline stroke="black" stroke-width="3" stroke-linecap="round" fill="transparent" stroke-linejoin="round" points="72.0616455078125 115.63095092773438 85.199951171875 106.59837341308594 94.64306640625 102.08212280273438 102.0333251953125 99.20809936523438 104.9073486328125 98.38697814941406 104.9073486328125 98.38697814941406 " />
        <polyline stroke="black" stroke-width="3" stroke-linecap="round" fill="transparent" stroke-linejoin="round" points="65.49252319335938 163.66775512695313 77.39910888671875 161.61489868164063 82.325927734375 159.97259521484375 88.07391357421875 157.91973876953125 104.086181640625 143.9603271484375 104.086181640625 143.9603271484375 " />
        <polyline stroke="black" stroke-width="3" stroke-linecap="round" fill="transparent" stroke-linejoin="round" points="115.171630859375 58.56158447265625 110.65533447265624 74.98440551757813 108.60247802734376 86.48040771484375 104.9073486328125 113.1675262451172 102.44393920898438 144.37091064453125 101.62277221679688 171.46859741210938 101.62277221679688 192.81829833984375 101.62277221679688 207.18829345703125 101.62277221679688 207.18829345703125 " />
        <polyline stroke="black" stroke-width="3" stroke-linecap="round" fill="transparent" stroke-linejoin="round" points="142.269287109375 69.64698791503906 142.67987060546875 84.0169677734375 143.5009765625 89.35440063476563 144.73272705078125 95.10238647460938 148.83843994140625 107.83010864257813 152.5335693359375 113.1675262451172 152.5335693359375 113.1675262451172 " />
        <polyline stroke="black" stroke-width="3" stroke-linecap="round" fill="transparent" stroke-linejoin="round" points="201.8021240234375 73.75270080566406 186.20037841796875 86.06985473632813 167.7247314453125 100.85040283203124 157.87103271484375 108.65122985839844 139.80587768554688 121.37893676757813 128.30990600585938 130.00091552734375 124.61474609375 132.87493896484375 120.509033203125 136.15948486328125 120.09848022460938 137.39120483398438 126.25701904296876 137.80178833007813 141.03759765625 136.9806365966797 150.07015991210938 136.15948486328125 168.9564208984375 133.69607543945313 184.55810546875 131.23263549804688 197.28582763671875 127.12693786621094 197.28582763671875 127.12693786621094 " />
        <polyline stroke="black" stroke-width="3" stroke-linecap="round" fill="transparent" stroke-linejoin="round" points="173.0621337890625 56.50872802734375 169.366943359375 75.39498901367188 168.13525390625 87.30155944824219 166.903564453125 113.9886474609375 166.0823974609375 144.78147888183594 166.0823974609375 159.15147399902344 165.671875 191.176025390625 165.26123046875 201.44027709960935 164.8507080078125 206.7777099609375 164.8507080078125 206.7777099609375 " />
        <polyline stroke="black" stroke-width="3" stroke-linecap="round" fill="transparent" stroke-linejoin="round" points="160.7449951171875 139.0334930419922 151.3018798828125 149.70834350585938 146.375 156.6880340576172 137.34246826171875 170.64744567871094 130.7733154296875 181.73287963867188 126.66757202148438 187.89144897460935 125.43588256835938 189.53372192382813 125.43588256835938 189.53372192382813 " />
        <polyline stroke="black" stroke-width="3" stroke-linecap="round" fill="transparent" stroke-linejoin="round" points="161.9766845703125 150.52947998046875 188.2532958984375 161.61489868164063 195.6435546875 165.72061157226563 212.88751220703125 178.44830322265625 223.5623779296875 190.3548583984375 223.5623779296875 190.3548583984375 " />
        </svg>