<?xml version="1.0" standalone="no"?>
    <svg width="256" height="256" xmlns="http://www.w3.org/2000/svg" version="1.1">
    <polyline stroke="black" stroke-width="3" stroke-linecap="round" fill="transparent" stroke-linejoin="round" points="70.57220458984375 70.84022521972656 70.16131591796875 88.50920104980469 68.92855834960938 113.9853973388672 66.463134765625 146.44699096679688 63.586761474609375 175.21041870117188 61.121337890625 194.52301025390625 59.06683349609375 206.43930053710935 58.2449951171875 209.72653198242188 57.834075927734375 209.72653198242188 57.834075927734375 209.72653198242188 " />
        <polyline stroke="black" stroke-width="3" stroke-linecap="round" fill="transparent" stroke-linejoin="round" points="68.10675048828125 120.55987548828124 88.24114990234375 109.05453491210938 101.39013671875 103.30181884765624 110.43011474609376 99.60366821289063 115.36093139648438 98.7818603515625 117.00457763671876 98.7818603515625 117.00457763671876 98.7818603515625 " />
        <polyline stroke="black" stroke-width="3" stroke-linecap="round" fill="transparent" stroke-linejoin="round" points="62.35406494140625 181.784912109375 81.66668701171875 175.62132263183594 87.41937255859375 172.33407592773438 93.17205810546876 169.04681396484375 103.03378295898438 161.23960876464844 108.78646850585938 154.66510009765625 108.78646850585938 154.66510009765625 " />
        <polyline stroke="black" stroke-width="3" stroke-linecap="round" fill="transparent" stroke-linejoin="round" points="112.8955078125 66.73117065429688 111.25189208984376 97.96005249023438 110.84100341796876 111.10903930664063 110.43011474609376 124.6689453125 110.0191650390625 150.5560302734375 110.43011474609376 174.3885955810547 111.25189208984376 190.82485961914065 112.07373046875 200.27569580078125 112.8955078125 203.97384643554688 112.8955078125 203.97384643554688 " />
        <polyline stroke="black" stroke-width="3" stroke-linecap="round" fill="transparent" stroke-linejoin="round" points="133.85174560546875 86.04376220703125 166.3133544921875 102.48001098632813 176.9969482421875 100.83639526367188 185.62591552734375 93.85098266601563 191.78955078125 85.22195434570313 195.89862060546875 79.46926879882813 197.953125 77.00381469726563 197.953125 76.59292602539063 193.43310546875 83.98922729492188 180.2841796875 103.71273803710938 171.6551513671875 114.80718994140624 149.8770751953125 139.8724822998047 142.06988525390625 148.5015106201172 138.3717041015625 152.61056518554688 138.78265380859375 153.02146911621094 146.58984375 150.96694946289063 161.3824462890625 144.8033447265625 179.87322998046875 136.17434692382813 188.09136962890625 131.6543426513672 209.047607421875 118.50535583496094 209.047607421875 118.50535583496094 " />
        <polyline stroke="black" stroke-width="3" stroke-linecap="round" fill="transparent" stroke-linejoin="round" points="181.10595703125 55.63670349121094 176.9969482421875 66.73117065429688 174.531494140625 77.82563781738281 172.4769287109375 91.3855438232422 169.189697265625 130.83255004882813 169.189697265625 155.07601928710938 170.011474609375 175.21041870117188 170.42236328125 190.82485961914065 170.011474609375 199.86480712890625 170.011474609375 202.33023071289065 170.011474609375 202.33023071289065 " />
        <polyline stroke="black" stroke-width="3" stroke-linecap="round" fill="transparent" stroke-linejoin="round" points="155.6297607421875 151.78875732421875 141.248046875 176.44314575195313 132.6190185546875 194.93389892578125 127.68817138671876 205.20657348632813 126.04452514648438 207.2611083984375 125.22271728515624 208.0829162597656 124.811767578125 208.0829162597656 127.68817138671876 205.20657348632813 139.60443115234375 195.3448181152344 157.684326171875 185.0721740722656 173.29876708984375 179.31948852539063 188.09136962890625 177.2649383544922 200.8294677734375 178.08676147460938 211.1021728515625 180.96310424804688 215.211181640625 183.8394470214844 215.211181640625 183.8394470214844 " />
        </svg>