<?xml version="1.0" standalone="no"?>
    <svg width="256" height="256" xmlns="http://www.w3.org/2000/svg" version="1.1">
    <polyline stroke="black" stroke-width="3" stroke-linecap="round" fill="transparent" stroke-linejoin="round" points="129.66366577148438 44.919830322265625 127.101318359375 55.169189453125 122.83074951171876 66.27267456054688 116.42489624023438 78.65731811523438 113.00848388671876 84.6361083984375 109.59201049804688 89.76078796386719 104.040283203125 97.44781494140624 102.33203125 100.43722534179688 99.76971435546876 104.707763671875 100.19677734375 105.13482666015624 101.47796630859376 104.707763671875 107.8837890625 100.01016235351563 123.68487548828124 88.90667724609375 133.50717163085938 84.6361083984375 142.475341796875 83.78199768066406 146.74594116210938 85.06317138671875 154.86004638671875 90.61489868164063 167.24462890625 110.68658447265624 171.088134765625 120.08181762695313 177.4940185546875 146.98638916015625 177.92108154296875 154.24636840820313 177.4940185546875 166.20394897460938 175.3587646484375 174.31802368164063 171.5152587890625 179.44271850585938 159.5576171875 185.4215087890625 143.75653076171875 185.84857177734375 135.21542358398438 184.14031982421875 112.58139038085938 175.17214965820313 108.310791015625 173.03684997558594 108.310791015625 173.03684997558594 " />
        </svg>