<?xml version="1.0" standalone="no"?>
    <svg width="256" height="256" xmlns="http://www.w3.org/2000/svg" version="1.1">
    <polyline stroke="black" stroke-width="3" stroke-linecap="round" fill="transparent" stroke-linejoin="round" points="113.16659545898438 17.882965087890625 111.90756225585938 32.99095916748047 110.64862060546876 41.38429260253906 108.96994018554688 49.35795593261719 107.291259765625 57.33161926269531 103.09457397460938 74.53794860839844 99.73724365234376 87.96726989746094 97.638916015625 97.61959838867188 97.21923828125 103.49493408203124 98.89794921875 106.43260192871094 104.35360717773438 107.69158935546876 113.58627319335938 106.85226440429688 127.01556396484376 103.07525634765624 142.962890625 98.87858581542967 159.3299560546875 95.94094848632813 179.05419921875 96.360595703125 184.0902099609375 98.03927612304688 190.80487060546875 103.07525634765624 197.099853515625 116.08494567871094 199.1982421875 136.2289276123047 196.68023681640625 156.79257202148438 195.0015869140625 166.02523803710938 187.44757080078125 186.16925048828125 182.41156005859375 194.14288330078125 176.9559326171875 199.17889404296875 167.7232666015625 201.6968994140625 155.55291748046875 198.75921630859375 143.382568359375 190.78558349609375 143.382568359375 190.78558349609375 " />
        </svg>