<?xml version="1.0" standalone="no"?>
    <svg width="256" height="256" xmlns="http://www.w3.org/2000/svg" version="1.1">
    <polyline stroke="black" stroke-width="3" stroke-linecap="round" fill="transparent" stroke-linejoin="round" points="141 55 135 60 126 79 116 99 106 118 98 131 96 137 97 138 101 133 110 124 122 114 136 105 147 101 153 103 155 110 152 126 147 143 146 150 140 171 139 177 134 195 132 200 126 216 119 227 113 234 107 235 100 233 92 227 86 220 84 216 79 209 79 209 " />
        </svg>