<?xml version="1.0" standalone="no"?>
    <svg width="256" height="256" xmlns="http://www.w3.org/2000/svg" version="1.1">
    <polyline stroke="black" stroke-width="3" stroke-linecap="round" fill="transparent" stroke-linejoin="round" points="107 74 107 82 105 93 100 107 96 122 95 132 94 140 94 146 93 150 93 153 95 153 101 151 108 148 116 145 123 143 131 143 137 143 142 143 145 143 148 144 150 147 151 150 152 155 153 160 153 166 153 178 153 193 153 207 152 219 150 231 150 239 150 246 150 251 149 254 148 255 145 255 138 255 128 248 115 237 104 230 97 224 95 224 95 224 " />
        </svg>