<?xml version="1.0" standalone="no"?>
    <svg width="256" height="256" xmlns="http://www.w3.org/2000/svg" version="1.1">
    <polyline stroke="black" stroke-width="3" stroke-linecap="round" fill="transparent" stroke-linejoin="round" points="62.0087890625 118.5794677734375 76.27392578125 107.880615234375 89.9447021484375 101.34242248535156 107.1817626953125 94.20985412597656 125.60757446289063 87.67166137695313 139.87271118164063 82.91661071777344 152.354736328125 80.53907775878906 161.27044677734375 79.35032653808594 166.0255126953125 79.35032653808594 168.40301513671875 75.78404235839844 168.40301513671875 75.78404235839844 " />
        <polyline stroke="black" stroke-width="3" stroke-linecap="round" fill="transparent" stroke-linejoin="round" points="112.53118896484376 60.92451477050781 107.776123046875 71.02899169921875 105.39862060546876 78.75593566894531 104.2098388671875 90.04917907714844 103.02108764648438 104.90870666503906 104.2098388671875 117.39071655273438 105.99298095703124 126.90080261230467 108.96490478515624 132.84461975097656 113.12554931640624 136.41090393066406 120.25811767578124 136.41090393066406 127.39071655273438 134.6277618408203 135.11767578125 131.0614776611328 141.65585327148438 124.52328491210938 141.65585327148438 124.52328491210938 " />
        <polyline stroke="black" stroke-width="3" stroke-linecap="round" fill="transparent" stroke-linejoin="round" points="133.33453369140625 59.735748291015625 135.11767578125 77.56718444824219 136.90081787109375 91.23794555664063 138.6839599609375 111.4468994140625 138.6839599609375 129.87271118164063 138.6839599609375 129.87271118164063 " />
        <polyline stroke="black" stroke-width="3" stroke-linecap="round" fill="transparent" stroke-linejoin="round" points="94.10537719726563 161.96929931640625 90.5390625 170.885009765625 88.16156005859375 177.42320251464844 85.7840576171875 186.33892822265625 84.00088500976563 192.28271484375 84.00088500976563 196.44338989257813 85.7840576171875 198.8209228515625 85.7840576171875 198.8209228515625 " />
        <polyline stroke="black" stroke-width="3" stroke-linecap="round" fill="transparent" stroke-linejoin="round" points="144.62774658203125 162.5636749267578 159.4873046875 171.47938537597656 170.1861572265625 178.61196899414063 179.10186767578125 186.93328857421875 186.23443603515625 195.8490295410156 186.23443603515625 195.8490295410156 " />
        </svg>