<?xml version="1.0" standalone="no"?>
    <svg width="256" height="256" xmlns="http://www.w3.org/2000/svg" version="1.1">
    <polyline stroke="black" stroke-width="3" stroke-linecap="round" fill="transparent" stroke-linejoin="round" points="110 53 110 57 109 63 107 71 105 78 102 84 99 90 96 97 95 99 93 102 92 103 91 105 91 105 91 105 91 105 91 105 93 104 95 102 99 96 101 94 107 85 112 79 115 76 120 71 127 67 131 65 136 64 140 64 143 65 146 66 148 67 149 69 150 73 146 85 141 98 134 113 127 129 119 145 111 159 105 172 98 182 91 191 85 198 80 202 79 204 " />
        <polyline stroke="black" stroke-width="3" stroke-linecap="round" fill="transparent" stroke-linejoin="round" points="94 120 94 119 94 119 96 120 98 121 101 122 106 125 115 132 123 138 132 145 136 149 149 160 157 167 166 174 174 180 178 183 " />
        </svg>