<?xml version="1.0" standalone="no"?>
    <svg width="256" height="256" xmlns="http://www.w3.org/2000/svg" version="1.1">
    <polyline stroke="black" stroke-width="3" stroke-linecap="round" fill="transparent" stroke-linejoin="round" points="112.9501953125 76.0604248046875 105.44818115234376 85.32769775390625 98.38739013671876 93.71237182617188 88.23748779296875 106.5100555419922 85.14840698242188 110.92301940917967 81.61801147460938 116.21861267089844 80.73544311523438 118.42510986328124 81.61801147460938 118.42510986328124 91.32659912109376 112.24693298339844 97.5047607421875 107.83395385742188 110.30242919921876 98.1253662109375 122.21749877929688 89.74069213867188 132.80868530273438 84.00381469726563 141.63461303710938 80.03211975097656 147.81283569335938 77.82562255859375 151.34320068359375 77.38432312011719 152.6671142578125 77.82562255859375 152.6671142578125 83.5625 147.37152099609375 100.33184814453124 136.33905029296875 121.5142059326172 121.33489990234376 146.2269287109375 97.0634765625 180.64822387695313 81.17672729492188 200.50665283203125 71.02685546875 209.77392578125 67.49642944335938 212.42172241210935 67.49642944335938 212.42172241210935 " />
        <polyline stroke="black" stroke-width="3" stroke-linecap="round" fill="transparent" stroke-linejoin="round" points="93.53305053710938 136.95965576171875 108.095947265625 146.2269287109375 116.039306640625 151.96380615234375 134.5738525390625 165.2027587890625 150.46063232421875 178.00042724609375 165.0234375 189.47418212890625 178.262451171875 202.2718505859375 178.262451171875 202.2718505859375 " />
        </svg>