<?xml version="1.0" standalone="no"?>
    <svg width="256" height="256" xmlns="http://www.w3.org/2000/svg" version="1.1">
    <polyline stroke="black" stroke-width="3" stroke-linecap="round" fill="transparent" stroke-linejoin="round" points="110.368896484375 75.32560729980469 105.34262084960938 82.86502075195313 94.03353881835938 97.94384765625 88.58837890625 105.06439208984376 84.39984130859375 110.09068298339844 78.95468139648438 116.79238891601563 77.27923583984375 119.30552673339844 78.116943359375 118.88665771484376 91.52035522460938 111.34725952148438 108.69345092773438 100.0381317138672 129.63629150390625 86.21588134765625 148.06591796875 76.163330078125 154.34881591796875 73.65017700195313 165.23907470703125 71.555908203125 168.5899658203125 72.81246948242188 170.26531982421875 77.00103759765625 169.4276123046875 83.70272827148438 159.3751220703125 106.32096862792967 129.63629150390625 148.20660400390625 105.761474609375 173.33798217773438 82.724365234375 195.95623779296875 82.724365234375 195.95623779296875 " />
        <polyline stroke="black" stroke-width="3" stroke-linecap="round" fill="transparent" stroke-linejoin="round" points="114.55746459960938 155.7460174560547 122.51571655273438 160.3534393310547 132.56829833984375 166.6362762451172 155.1865234375 182.1339569091797 165.657958984375 190.09222412109375 183.668701171875 206.4276123046875 183.668701171875 206.4276123046875 " />
        </svg>