<?xml version="1.0" standalone="no"?>
    <svg width="256" height="256" xmlns="http://www.w3.org/2000/svg" version="1.1">
    <polyline stroke="black" stroke-width="3" stroke-linecap="round" fill="transparent" stroke-linejoin="round" points="88 70 85 82 85 86 83 95 82 100 81 105 80 115 79 119 78 124 76 133 75 137 75 142 73 150 72 154 " />
        <polyline stroke="black" stroke-width="3" stroke-linecap="round" fill="transparent" stroke-linejoin="round" points="46 178 46 177 47 177 49 176 50 175 51 174 53 173 55 172 57 171 59 170 61 168 67 165 70 163 73 161 80 157 84 155 87 152 95 147 99 145 103 143 107 140 119 132 123 129 127 126 133 118 136 115 " />
        <polyline stroke="black" stroke-width="3" stroke-linecap="round" fill="transparent" stroke-linejoin="round" points="114 65 113 88 113 94 112 106 112 113 112 119 112 126 113 138 113 145 113 157 114 169 114 180 115 190 115 198 115 205 115 207 115 209 115 210 " />
        <polyline stroke="black" stroke-width="3" stroke-linecap="round" fill="transparent" stroke-linejoin="round" points="167 83 167 83 167 88 167 93 166 98 165 104 164 114 163 120 162 125 160 130 158 139 156 143 155 147 153 150 151 154 " />
        <polyline stroke="black" stroke-width="3" stroke-linecap="round" fill="transparent" stroke-linejoin="round" points="126 170 126 170 127 169 127 169 128 167 129 166 130 165 133 163 135 162 136 160 143 155 146 153 156 148 159 146 162 144 170 139 174 137 178 134 182 132 186 129 190 126 194 123 197 120 " />
        <polyline stroke="black" stroke-width="3" stroke-linecap="round" fill="transparent" stroke-linejoin="round" points="182 58 181 83 181 91 182 99 182 107 182 116 184 134 185 152 186 161 187 170 189 187 190 195 191 208 192 213 192 217 193 221 192 226 192 227 " />
        </svg>