<?xml version="1.0" standalone="no"?>
    <svg width="256" height="256" xmlns="http://www.w3.org/2000/svg" version="1.1">
    <polyline stroke="black" stroke-width="3" stroke-linecap="round" fill="transparent" stroke-linejoin="round" points="68.2147216796875 104.9786376953125 78.82479858398438 98.7894287109375 84.57196044921875 96.57899475097656 91.20321655273438 94.81065368652344 105.3499755859375 92.6002197265625 119.49676513671876 90.83187866210938 130.990966796875 89.06353759765625 141.158935546875 85.08474731445313 146.4639892578125 78.01136779785156 146.4639892578125 78.01136779785156 " />
        <polyline stroke="black" stroke-width="3" stroke-linecap="round" fill="transparent" stroke-linejoin="round" points="109.77084350585938 31.150230407714844 104.4658203125 50.602020263671875 101.81332397460938 62.538360595703125 97.83453369140624 77.127197265625 93.41366577148438 91.71604919433594 81.03524780273438 126.1987762451172 73.519775390625 145.20848083496094 61.141357421875 173.5019989013672 50.53125 192.51171875 43.01580810546875 206.2164001464844 43.01580810546875 206.2164001464844 " />
        <polyline stroke="black" stroke-width="3" stroke-linecap="round" fill="transparent" stroke-linejoin="round" points="88.10861206054688 122.66209411621094 102.25537109375 127.96713256835938 109.32879638671876 131.94589233398438 117.28631591796876 137.25094604492188 134.96978759765625 150.51351928710938 150.88485717773438 163.3340301513672 161.4949951171875 173.05992126464844 167.68414306640625 179.24913024902344 169.4525146484375 181.0174560546875 169.4525146484375 181.0174560546875 " />
        <polyline stroke="black" stroke-width="3" stroke-linecap="round" fill="transparent" stroke-linejoin="round" points="169.01043701171875 36.89735412597656 162.37908935546875 53.696624755859375 158.8424072265625 62.538360595703125 154.8636474609375 72.26425170898438 150.88485717773438 82.43223571777344 146.90609741210938 92.15814208984376 139.83270263671875 113.82037353515624 137.62228393554688 122.66209411621094 137.18017578125 127.5250244140625 138.50643920898438 130.17755126953125 143.369384765625 131.50381469726563 153.0953369140625 130.61962890625 165.915771484375 126.64085388183594 176.52587890625 121.3358154296875 184.925537109375 116.03079223632813 191.11474609375 109.39950561523438 195.53558349609375 100.11569213867188 195.9776611328125 93.92648315429688 195.9776611328125 91.71604919433594 195.9776611328125 90.83187866210938 196.4197998046875 91.27395629882813 199.9564208984375 94.81065368652344 203.051025390625 98.34733581542967 215.87158203125 120.0095672607422 220.29241943359375 128.85128784179688 229.57623291015625 162.44985961914063 229.57623291015625 162.44985961914063 " />
        </svg>