<?xml version="1.0" standalone="no"?>
    <svg width="256" height="256" xmlns="http://www.w3.org/2000/svg" version="1.1">
    <polyline stroke="black" stroke-width="3" stroke-linecap="round" fill="transparent" stroke-linejoin="round" points="67 81 65 82 89 77 106 73 124 69 141 66 148 65 155 65 156 65 156 65 " />
        <polyline stroke="black" stroke-width="3" stroke-linecap="round" fill="transparent" stroke-linejoin="round" points="109 57 109 59 105 74 98 95 94 107 84 133 73 158 61 178 51 192 44 197 43 196 43 196 " />
        <polyline stroke="black" stroke-width="3" stroke-linecap="round" fill="transparent" stroke-linejoin="round" points="101 81 101 80 101 79 101 83 102 89 108 101 115 112 119 116 130 128 135 132 139 135 143 139 148 142 153 146 157 149 167 154 177 159 187 164 195 167 203 170 206 170 208 172 208 172 " />
        <polyline stroke="black" stroke-width="3" stroke-linecap="round" fill="transparent" stroke-linejoin="round" points="163 81 164 81 164 83 163 88 159 96 155 103 154 105 149 112 148 116 148 118 151 119 157 118 167 116 179 113 187 113 190 112 197 112 200 112 201 112 202 112 200 112 197 112 197 111 197 111 " />
        <polyline stroke="black" stroke-width="3" stroke-linecap="round" fill="transparent" stroke-linejoin="round" points="195 97 195 94 195 99 198 108 204 118 210 127 212 131 212 131 " />
        </svg>