<?xml version="1.0" standalone="no"?>
    <svg width="256" height="256" xmlns="http://www.w3.org/2000/svg" version="1.1">
    <polyline stroke="black" stroke-width="3" stroke-linecap="round" fill="transparent" stroke-linejoin="round" points="138.01339721679688 37.124168395996094 122.9345703125 60.1612548828125 103.66717529296876 89.90005493164063 92.77694702148438 106.23545837402344 65.55126953125 145.1890869140625 52.985595703125 160.686767578125 45.4461669921875 169.0638885498047 42.095306396484375 171.15817260742188 40.8387451171875 169.90159606933594 40.8387451171875 169.90159606933594 " />
        <polyline stroke="black" stroke-width="3" stroke-linecap="round" fill="transparent" stroke-linejoin="round" points="125.86654663085938 82.36064147949219 139.68881225585938 81.10408020019531 146.80941772460938 81.10408020019531 153.929931640625 81.52293395996094 160.63165283203125 82.36064147949219 182.8310546875 87.8057861328125 188.69500732421875 89.90005493164063 198.3287353515625 94.50747680664063 204.1927490234375 98.27719116210938 207.12469482421875 100.3714599609375 207.12469482421875 100.3714599609375 " />
        <polyline stroke="black" stroke-width="3" stroke-linecap="round" fill="transparent" stroke-linejoin="round" points="144.29623413085938 118.8011474609375 142.20199584960938 130.94796752929688 139.26995849609375 145.60794067382813 137.17572021484375 152.72850036621094 134.66256713867188 161.52447509765625 125.86654663085938 179.53530883789063 118.3271484375 187.91241455078125 107.85577392578124 195.03298950195313 98.64093017578124 198.80267333984375 92.77694702148438 200.4781188964844 91.10150146484376 200.89697265625 92.35809326171876 199.64041137695313 105.34262084960938 195.45184326171875 126.70428466796876 191.2632751464844 151.41680908203125 188.331298828125 175.2916259765625 187.49359130859375 187.01959228515625 188.331298828125 187.01959228515625 188.331298828125 " />
        </svg>