<?xml version="1.0" standalone="no"?>
    <svg width="256" height="256" xmlns="http://www.w3.org/2000/svg" version="1.1">
    <polyline stroke="black" stroke-width="3" stroke-linecap="round" fill="transparent" stroke-linejoin="round" points="108 29 102 43 96 58 94 64 90 75 87 81 84 87 79 97 76 103 71 112 68 116 64 123 62 126 60 130 58 132 58 133 " />
        <polyline stroke="black" stroke-width="3" stroke-linecap="round" fill="transparent" stroke-linejoin="round" points="95 85 110 82 117 81 128 79 132 79 139 78 147 77 158 77 162 77 165 77 171 76 174 76 177 76 179 76 181 76 183 76 185 75 186 75 186 74 " />
        <polyline stroke="black" stroke-width="3" stroke-linecap="round" fill="transparent" stroke-linejoin="round" points="144 78 140 99 139 103 139 108 138 123 137 129 137 148 137 154 138 178 138 183 139 188 139 197 139 200 139 203 139 208 138 211 136 213 135 213 133 213 131 212 126 209 123 207 121 204 119 202 " />
        <polyline stroke="black" stroke-width="3" stroke-linecap="round" fill="transparent" stroke-linejoin="round" points="83 132 85 134 86 135 87 137 88 139 90 142 90 145 91 149 90 154 90 157 89 161 89 163 87 167 84 171 83 173 " />
        <polyline stroke="black" stroke-width="3" stroke-linecap="round" fill="transparent" stroke-linejoin="round" points="66 179 71 176 73 176 76 175 78 174 80 174 87 172 90 171 98 169 102 168 106 167 110 165 " />
        <polyline stroke="black" stroke-width="3" stroke-linecap="round" fill="transparent" stroke-linejoin="round" points="174 102 175 101 174 102 174 102 172 104 171 105 168 108 164 112 162 114 158 117 155 119 151 122 149 123 147 124 145 125 142 127 139 128 139 129 138 129 138 129 138 130 138 130 139 131 139 131 140 132 143 133 144 134 146 135 152 138 155 140 163 146 166 149 172 153 178 158 181 160 " />
        </svg>