<?xml version="1.0" standalone="no"?>
    <svg width="256" height="256" xmlns="http://www.w3.org/2000/svg" version="1.1">
    <polyline stroke="black" stroke-width="3" stroke-linecap="round" fill="transparent" stroke-linejoin="round" points="128.45968627929688 38.59107208251953 128.0277099609375 66.23884582519531 127.59567260742188 78.76673889160156 125.86773681640624 94.318603515625 124.13973999023438 105.11851501464844 124.13973999023438 105.11851501464844 " />
        <polyline stroke="black" stroke-width="3" stroke-linecap="round" fill="transparent" stroke-linejoin="round" points="80.50811767578125 109.8704833984375 100.81192016601563 105.55050659179688 124.57171630859376 102.9585418701172 149.19552612304688 101.23052978515624 169.931396484375 100.36654663085938 185.05126953125 99.5025634765625 194.98712158203125 98.20657348632813 194.98712158203125 98.20657348632813 " />
        <polyline stroke="black" stroke-width="3" stroke-linecap="round" fill="transparent" stroke-linejoin="round" points="86.988037109375 154.36611938476563 105.13186645507813 150.91014099121094 127.1636962890625 147.88616943359375 151.78753662109375 145.29415893554688 173.3873291015625 142.2702178955078 185.05126953125 140.97422790527344 193.691162109375 138.81423950195313 193.691162109375 138.81423950195313 " />
        <polyline stroke="black" stroke-width="3" stroke-linecap="round" fill="transparent" stroke-linejoin="round" points="117.65975952148438 141.8382110595703 118.95578002929688 164.73402404785156 122.4117431640625 192.81378173828125 125.00372314453124 219.5975341796875 126.29971313476563 239.46942138671875 127.1636962890625 252.86126708984375 127.59567260742188 264.9571838378906 127.59567260742188 264.9571838378906 " />
        </svg>