<?xml version="1.0" standalone="no"?>
    <svg width="256" height="256" xmlns="http://www.w3.org/2000/svg" version="1.1">
    <polyline stroke="black" stroke-width="3" stroke-linecap="round" fill="transparent" stroke-linejoin="round" points="105.92376708984376 38.755332946777344 109.64117431640624 51.97294616699219 110.88031005859376 59.820892333984375 110.88031005859376 75.92985534667969 107.575927734375 90.79966735839844 100.55404663085938 105.6694793701172 96.83660888671876 111.45217895507813 96.83660888671876 111.45217895507813 " />
        <polyline stroke="black" stroke-width="3" stroke-linecap="round" fill="transparent" stroke-linejoin="round" points="44.79229736328125 121.36538696289063 65.85784912109375 112.69132995605467 75.77105712890625 109.79998779296876 87.33648681640625 107.32168579101563 123.27182006835938 101.12594604492188 134.42416381835938 99.88677978515624 151.7723388671875 97.82151794433594 161.2724609375 98.2345733642578 163.750732421875 99.0606689453125 163.750732421875 99.0606689453125 " />
        <polyline stroke="black" stroke-width="3" stroke-linecap="round" fill="transparent" stroke-linejoin="round" points="55.1185302734375 168.04006958007813 69.57528686523438 157.71380615234375 78.66244506835938 153.17025756835938 98.07577514648438 146.14840698242188 125.33709716796876 136.6482391357422 139.38079833984375 132.9307861328125 147.228759765625 131.27859497070313 147.228759765625 131.27859497070313 " />
        <polyline stroke="black" stroke-width="3" stroke-linecap="round" fill="transparent" stroke-linejoin="round" points="102.61932373046876 172.99667358398438 98.48883056640624 193.23614501953125 97.66268920898438 204.38848876953125 96.83660888671876 215.95391845703125 96.83660888671876 225.8670959472656 96.83660888671876 233.71505737304688 96.423583984375 246.93267822265625 96.423583984375 252.30230712890625 96.423583984375 252.30230712890625 " />
        </svg>