<?xml version="1.0" standalone="no"?>
    <svg width="256" height="256" xmlns="http://www.w3.org/2000/svg" version="1.1">
    <polyline stroke="black" stroke-width="3" stroke-linecap="round" fill="transparent" stroke-linejoin="round" points="53 70 55 74 56 79 58 86 60 94 62 103 64 112 67 123 69 135 71 146 73 158 75 168 76 178 78 187 79 194 80 199 81 204 82 207 82 209 83 210 83 209 83 207 83 205 83 205 " />
        <polyline stroke="black" stroke-width="3" stroke-linecap="round" fill="transparent" stroke-linejoin="round" points="79 131 82 130 85 128 90 127 95 125 100 123 106 121 111 119 116 116 121 115 126 114 128 113 131 112 132 112 133 112 134 112 134 112 " />
        <polyline stroke="black" stroke-width="3" stroke-linecap="round" fill="transparent" stroke-linejoin="round" points="172 63 172 66 172 69 171 74 170 79 169 86 167 94 165 102 163 111 161 120 159 130 158 139 156 147 154 156 151 163 148 171 145 175 140 180 140 180 " />
        <polyline stroke="black" stroke-width="3" stroke-linecap="round" fill="transparent" stroke-linejoin="round" points="96 188 102 182 106 180 110 179 115 177 121 176 127 175 134 173 139 172 144 171 149 171 152 171 154 172 155 174 155 175 155 176 155 176 " />
        </svg>