<?xml version="1.0" standalone="no"?>
    <svg width="256" height="256" xmlns="http://www.w3.org/2000/svg" version="1.1">
    <polyline stroke="black" stroke-width="3" stroke-linecap="round" fill="transparent" stroke-linejoin="round" points="98 67 97 68 96 74 95 88 94 110 93 136 92 160 92 175 93 183 94 185 94 185 " />
        <polyline stroke="black" stroke-width="3" stroke-linecap="round" fill="transparent" stroke-linejoin="round" points="104 127 113 127 124 124 137 123 146 122 146 122 " />
        <polyline stroke="black" stroke-width="3" stroke-linecap="round" fill="transparent" stroke-linejoin="round" points="160 67 157 75 156 86 155 102 154 118 152 134 149 147 148 158 147 163 146 165 146 169 146 170 146 170 " />
        <polyline stroke="black" stroke-width="3" stroke-linecap="round" fill="transparent" stroke-linejoin="round" points="98 183 103 183 111 183 122 181 130 181 133 181 140 181 142 181 149 182 152 183 152 183 " />
        </svg>