<?xml version="1.0" standalone="no"?>
    <svg width="256" height="256" xmlns="http://www.w3.org/2000/svg" version="1.1">
    <polyline stroke="black" stroke-width="3" stroke-linecap="round" fill="transparent" stroke-linejoin="round" points="64 62 64 63 65 72 65 87 65 97 66 123 67 156 67 166 68 182 68 191 68 193 68 195 68 197 68 198 68 198 " />
        <polyline stroke="black" stroke-width="3" stroke-linecap="round" fill="transparent" stroke-linejoin="round" points="79 122 88 121 105 118 118 116 128 114 132 113 137 112 140 111 142 111 146 110 150 110 154 108 157 108 158 108 158 108 158 108 " />
        <polyline stroke="black" stroke-width="3" stroke-linecap="round" fill="transparent" stroke-linejoin="round" points="159 72 160 94 160 128 160 150 158 160 156 167 156 168 156 172 154 174 153 180 152 183 152 184 151 184 151 186 151 187 151 187 " />
        <polyline stroke="black" stroke-width="3" stroke-linecap="round" fill="transparent" stroke-linejoin="round" points="76 196 76 196 77 196 81 196 94 195 103 194 116 193 126 192 128 192 131 191 132 191 134 190 135 190 136 190 137 190 138 190 139 190 142 190 144 190 146 189 148 189 148 189 150 188 152 188 152 188 152 188 " />
        </svg>