<?xml version="1.0" standalone="no"?>
    <svg width="256" height="256" xmlns="http://www.w3.org/2000/svg" version="1.1">
    <polyline stroke="black" stroke-width="3" stroke-linecap="round" fill="transparent" stroke-linejoin="round" points="46.668212890625 83.57931518554688 47.848602294921875 105.4161376953125 50.799530029296875 116.62965393066406 56.70135498046875 120.17076110839844 56.70135498046875 120.17076110839844 " />
        <polyline stroke="black" stroke-width="3" stroke-linecap="round" fill="transparent" stroke-linejoin="round" points="107.457275390625 74.1363525390625 93.29281616210938 89.48115539550781 66.14431762695313 118.99038696289063 50.2093505859375 134.92538452148438 37.815460205078125 147.3192596435547 30.733245849609375 153.22109985351563 26.601959228515625 156.17202758789063 26.601959228515625 156.17202758789063 31.32342529296875 150.86036682128906 46.07806396484375 139.05667114257813 66.14431762695313 126.6627960205078 86.21060180664063 117.81002807617188 100.9652099609375 112.49836730957033 111.58856201171876 107.77688598632813 121.031494140625 93.61245727539063 121.031494140625 93.61245727539063 " />
        <polyline stroke="black" stroke-width="3" stroke-linecap="round" fill="transparent" stroke-linejoin="round" points="64.96395874023438 79.44801330566406 56.1112060546875 140.23704528808594 50.2093505859375 164.4346160888672 44.3074951171875 191.5830993652344 41.946746826171875 203.3868103027344 39.58599853515625 209.87884521484375 39.58599853515625 211.64938354492188 39.58599853515625 211.64938354492188 " />
        <polyline stroke="black" stroke-width="3" stroke-linecap="round" fill="transparent" stroke-linejoin="round" points="69.6854248046875 149.67999267578125 81.4891357421875 157.9425811767578 95.0633544921875 166.20516967773438 109.8179931640625 172.69720458984375 125.16278076171876 172.69720458984375 125.16278076171876 172.69720458984375 " />
        <polyline stroke="black" stroke-width="3" stroke-linecap="round" fill="transparent" stroke-linejoin="round" points="149.3603515625 68.23451232910156 160.5738525390625 63.513031005859375 173.55792236328125 59.381744384765625 187.722412109375 56.430816650390625 201.8868408203125 54.07008361816406 213.100341796875 51.11915588378906 213.100341796875 51.11915588378906 " />
        <polyline stroke="black" stroke-width="3" stroke-linecap="round" fill="transparent" stroke-linejoin="round" points="152.311279296875 107.77688598632813 151.13092041015625 120.7609405517578 149.3603515625 172.69720458984375 148.77020263671875 192.17330932617188 147.58981323242188 206.33773803710935 145.81927490234375 212.23956298828125 145.81927490234375 209.87884521484375 145.81927490234375 209.87884521484375 " />
        <polyline stroke="black" stroke-width="3" stroke-linecap="round" fill="transparent" stroke-linejoin="round" points="162.93463134765625 101.87503051757813 172.3775634765625 97.74374389648438 181.820556640625 95.9731903076172 190.67333984375 96.56336975097656 197.7554931640625 98.9241180419922 204.24755859375 104.23577880859376 210.73956298828125 118.40020751953124 214.870849609375 137.8762969970703 217.2315673828125 155.58184814453125 217.82177734375 169.74627685546875 217.2315673828125 180.95977783203125 216.05126953125 189.22238159179688 212.5101318359375 196.3045959472656 206.6082763671875 203.3868103027344 197.165283203125 206.92791748046875 197.165283203125 206.92791748046875 " />
        <polyline stroke="black" stroke-width="3" stroke-linecap="round" fill="transparent" stroke-linejoin="round" points="128.11370849609375 138.46649169921875 141.0977783203125 129.02352905273438 157.03277587890625 120.7609405517578 172.9677734375 115.44927978515624 190.0831298828125 113.08854675292967 206.6082763671875 113.08854675292967 226.0843505859375 116.62965393066406 226.0843505859375 116.62965393066406 " />
        </svg>