<?xml version="1.0" standalone="no"?>
    <svg width="256" height="256" xmlns="http://www.w3.org/2000/svg" version="1.1">
    <polyline stroke="black" stroke-width="3" stroke-linecap="round" fill="transparent" stroke-linejoin="round" points="55 97 58 102 65 111 65 111 " />
        <polyline stroke="black" stroke-width="3" stroke-linecap="round" fill="transparent" stroke-linejoin="round" points="105 89 104 94 96 105 84 120 84 120 " />
        <polyline stroke="black" stroke-width="3" stroke-linecap="round" fill="transparent" stroke-linejoin="round" points="61 129 67 127 79 123 90 119 101 114 106 112 106 112 " />
        <polyline stroke="black" stroke-width="3" stroke-linecap="round" fill="transparent" stroke-linejoin="round" points="82 88 82 97 81 121 76 153 69 185 63 209 58 220 57 220 57 220 " />
        <polyline stroke="black" stroke-width="3" stroke-linecap="round" fill="transparent" stroke-linejoin="round" points="95 180 100 185 113 194 125 201 130 202 130 202 " />
        <polyline stroke="black" stroke-width="3" stroke-linecap="round" fill="transparent" stroke-linejoin="round" points="145 69 158 69 174 69 195 69 200 69 208 69 208 69 " />
        <polyline stroke="black" stroke-width="3" stroke-linecap="round" fill="transparent" stroke-linejoin="round" points="149 124 149 133 149 156 149 180 149 202 149 214 149 217 149 217 " />
        <polyline stroke="black" stroke-width="3" stroke-linecap="round" fill="transparent" stroke-linejoin="round" points="158 109 165 108 172 106 184 104 195 103 198 103 203 112 204 133 206 156 206 179 206 195 206 205 206 210 206 211 206 211 " />
        <polyline stroke="black" stroke-width="3" stroke-linecap="round" fill="transparent" stroke-linejoin="round" points="120 164 136 163 155 161 163 161 190 159 203 159 212 162 212 162 " />
        </svg>