<?xml version="1.0" standalone="no"?>
    <svg width="256" height="256" xmlns="http://www.w3.org/2000/svg" version="1.1">
    <polyline stroke="black" stroke-width="3" stroke-linecap="round" fill="transparent" stroke-linejoin="round" points="120.09356689453124 54.408355712890625 108.7535400390625 65.41488647460938 97.41351318359376 76.42141723632813 84.40576171875 90.76324462890624 56.38916015625 124.44989013671876 51.05267333984375 130.45346069335938 44.715545654296875 136.79055786132813 42.04730224609375 138.45819091796875 41.3802490234375 138.45819091796875 41.3802490234375 138.45819091796875 " />
        <polyline stroke="black" stroke-width="3" stroke-linecap="round" fill="transparent" stroke-linejoin="round" points="94.41168212890625 62.07954406738281 115.7576904296875 67.08251953125 137.10369873046875 72.08549499511719 161.4515380859375 78.75611877441406 183.798095703125 85.4267578125 201.1417236328125 90.42971801757813 212.148193359375 93.43150329589844 216.817626953125 95.09915161132813 218.15179443359375 95.76620483398438 217.81829833984375 96.0997314453125 217.81829833984375 96.0997314453125 " />
        <polyline stroke="black" stroke-width="3" stroke-linecap="round" fill="transparent" stroke-linejoin="round" points="139.43841552734375 96.43324279785156 137.43722534179688 120.447509765625 135.43603515625 144.46177673339844 136.77020263671875 171.477783203125 138.77133178710938 190.48907470703125 140.10546875 202.16265869140625 140.43902587890625 207.1656494140625 139.77197265625 208.16622924804688 138.77133178710938 207.83273315429688 131.43368530273438 202.82977294921875 131.43368530273438 202.82977294921875 " />
        <polyline stroke="black" stroke-width="3" stroke-linecap="round" fill="transparent" stroke-linejoin="round" points="73.3992919921875 161.1383056640625 82.40460205078125 166.808349609375 91.409912109375 172.4783935546875 106.4188232421875 175.48016357421875 106.4188232421875 175.48016357421875 " />
        <polyline stroke="black" stroke-width="3" stroke-linecap="round" fill="transparent" stroke-linejoin="round" points="184.13165283203125 138.45822143554688 176.7939453125 151.79946899414063 169.45623779296875 165.14071655273438 164.78680419921875 175.14663696289063 164.78680419921875 175.14663696289063 " />
        </svg>