<?xml version="1.0" standalone="no"?>
    <svg width="256" height="256" xmlns="http://www.w3.org/2000/svg" version="1.1">
    <polyline stroke="black" stroke-width="3" stroke-linecap="round" fill="transparent" stroke-linejoin="round" points="138.55859375 42.058258056640625 130.158935546875 53.11041259765625 123.96978759765624 61.51005554199219 109.38095092773438 81.84602355957031 100.5391845703125 93.7823486328125 81.9715576171875 118.5391845703125 67.38275146484375 137.10679626464844 58.098876953125 146.83270263671875 54.1201171875 150.369384765625 53.2359619140625 150.369384765625 53.2359619140625 150.369384765625 " />
        <polyline stroke="black" stroke-width="3" stroke-linecap="round" fill="transparent" stroke-linejoin="round" points="146.51617431640625 61.51005554199219 158.01043701171875 65.48883056640625 167.736328125 70.35177612304688 173.925537109375 73.44638061523438 194.70355224609375 83.17228698730469 201.3348388671875 86.26687622070313 212.8291015625 92.01400756835938 221.67083740234375 95.99278259277344 226.0916748046875 98.20323181152344 226.5338134765625 98.20323181152344 226.5338134765625 98.20323181152344 " />
        <polyline stroke="black" stroke-width="3" stroke-linecap="round" fill="transparent" stroke-linejoin="round" points="152.70538330078125 98.64529418945313 154.0316162109375 115.0024871826172 154.0316162109375 122.07589721679688 154.0316162109375 131.35971069335938 154.0316162109375 141.0855712890625 152.2633056640625 160.53738403320313 149.61077880859375 179.10501098632813 146.51617431640625 192.3675842285156 142.97946166992188 200.76724243164065 138.55859375 205.63018798828125 133.25360107421875 207.84060668945313 133.25360107421875 207.84060668945313 " />
        <polyline stroke="black" stroke-width="3" stroke-linecap="round" fill="transparent" stroke-linejoin="round" points="92.58163452148438 132.6859588623047 97.88665771484376 142.41184997558594 100.5391845703125 146.39060974121094 103.19171142578124 150.369384765625 106.28631591796876 154.34817504882813 122.201416015625 164.5161590576172 122.201416015625 164.5161590576172 " />
        <polyline stroke="black" stroke-width="3" stroke-linecap="round" fill="transparent" stroke-linejoin="round" points="203.9874267578125 120.30752563476563 192.93524169921875 136.66473388671875 187.1881103515625 145.50645446777344 174.36761474609375 165.40032958984375 169.504638671875 173.35787963867188 169.504638671875 173.35787963867188 " />
        </svg>