<?xml version="1.0" standalone="no"?>
    <svg width="256" height="256" xmlns="http://www.w3.org/2000/svg" version="1.1">
    <polyline stroke="black" stroke-width="3" stroke-linecap="round" fill="transparent" stroke-linejoin="round" points="111.44256591796876 44.37579345703125 103.7650146484375 56.90234375 96.08746337890624 69.42889404296875 88.00579833984375 83.57179260253906 80.32821655273438 96.0983428955078 73.45883178710938 107.4126434326172 61.74041748046875 124.7882080078125 54.87103271484375 134.08209228515625 52.8505859375 136.506591796875 52.8505859375 136.506591796875 " />
        <polyline stroke="black" stroke-width="3" stroke-linecap="round" fill="transparent" stroke-linejoin="round" points="123.56512451171875 69.42889404296875 131.24264526367188 70.64114379882813 138.920166015625 71.8533935546875 147.40594482421875 73.4697265625 155.08349609375 75.49012756347656 176.4998779296875 82.76361083984375 187.41009521484375 87.20854187011719 195.8958740234375 90.44119262695313 198.72442626953125 91.24935913085938 198.72442626953125 91.24935913085938 " />
        <polyline stroke="black" stroke-width="3" stroke-linecap="round" fill="transparent" stroke-linejoin="round" points="114.67523193359375 112.66572570800781 115.07931518554688 121.5555419921875 115.4833984375 130.4453582763672 116.29159545898438 153.073974609375 116.69564819335938 174.4903564453125 116.69564819335938 181.7638397216797 116.69564819335938 191.4618225097656 115.4833984375 196.31082153320313 113.46298217773438 197.9271545410156 113.46298217773438 197.9271545410156 " />
        <polyline stroke="black" stroke-width="3" stroke-linecap="round" fill="transparent" stroke-linejoin="round" points="54.4669189453125 147.01275634765625 65.37716674804688 151.8617401123047 76.28741455078125 156.71072387695313 91.64254760742188 159.94338989257813 100.93646240234376 159.13522338867188 112.250732421875 156.71072387695313 112.250732421875 156.71072387695313 " />
        <polyline stroke="black" stroke-width="3" stroke-linecap="round" fill="transparent" stroke-linejoin="round" points="180.1365966796875 114.2821044921875 165.185546875 133.27395629882813 150.2344970703125 152.26580810546875 142.55694580078125 162.36788940429688 142.55694580078125 162.36788940429688 " />
        </svg>