<?xml version="1.0" standalone="no"?>
    <svg width="256" height="256" xmlns="http://www.w3.org/2000/svg" version="1.1">
    <polyline stroke="black" stroke-width="3" stroke-linecap="round" fill="transparent" stroke-linejoin="round" points="66.9302978515625 59.49267578125 70.160400390625 65.4537353515625 73.3905029296875 71.414794921875 76.44305419921875 77.4462890625 80.277587890625 87.81648254394531 80.05291748046875 92.7844696044922 79.60064697265625 93.22740173339844 " />
        <polyline stroke="black" stroke-width="3" stroke-linecap="round" fill="transparent" stroke-linejoin="round" points="99.45767211914063 46.98600769042969 107.9737548828125 45.368370056152344 116.48983764648438 43.750732421875 125.17514038085938 42.12409973144531 139.49847412109375 39.560569763183594 160.086181640625 39.81066131591797 168.30712890625 41.11833953857422 172.179443359375 45.337303161621094 172.43359375 47.56420135498047 172.7061767578125 58.847564697265625 171.6241455078125 66.41461181640625 159.365966796875 83.79554748535156 151.1680908203125 90.64585876464844 140.85272216796875 99.17947387695313 141.13458251953125 98.05949401855467 " />
        <polyline stroke="black" stroke-width="3" stroke-linecap="round" fill="transparent" stroke-linejoin="round" points="98.56481933593751 72.25099182128906 111.43392944335938 71.41110229492188 124.30303955078124 70.57121276855469 130.3792724609375 70.16836547851563 138.41741943359375 70.18438720703125 139.9766845703125 70.29498291015625 140.1009521484375 70.30378723144531 140.13641357421875 70.30630493164063 " />
        <polyline stroke="black" stroke-width="3" stroke-linecap="round" fill="transparent" stroke-linejoin="round" points="110.2080078125 90.613037109375 119.99044799804688 88.45803833007813 129.77288818359375 86.30303955078125 142.8944091796875 84.28024291992188 145.594970703125 84.62109375 146.34567260742188 86.27947998046875 145.28564453125 86.78900146484375 " />
        <polyline stroke="black" stroke-width="3" stroke-linecap="round" fill="transparent" stroke-linejoin="round" points="50.778717041015625 132.74427795410156 52.21533203125 139.73394775390625 53.651947021484375 146.72361755371094 55.0333251953125 157.42984008789063 55.279876708984375 160.85812377929688 55.68658447265625 161.3143768310547 57.592864990234375 161.98468017578125 62.390960693359375 162.25730895996094 78.9716796875 160.72808837890625 97.47174072265624 155.12689208984375 104.15533447265624 151.95413208007813 111.24874877929688 148.3964080810547 121.10897827148438 143.67837524414063 124.10873413085938 143.34463500976563 124.40679931640624 143.31146240234375 " />
        <polyline stroke="black" stroke-width="3" stroke-linecap="round" fill="transparent" stroke-linejoin="round" points="120.17156982421876 127.71896362304688 121.80999755859376 133.2760009765625 123.44842529296876 138.83303833007813 123.7763671875 140.02963256835938 " />
        <polyline stroke="black" stroke-width="3" stroke-linecap="round" fill="transparent" stroke-linejoin="round" points="85.80584716796875 103.44157409667969 87.64401245117188 132.7303924560547 89.482177734375 162.0192108154297 89.48614501953125 176.4563446044922 86.39263916015625 193.78518676757813 83.84503173828125 201.06765747070313 79.3660888671875 208.10055541992188 78.650146484375 205.6270446777344 " />
        <polyline stroke="black" stroke-width="3" stroke-linecap="round" fill="transparent" stroke-linejoin="round" points="135.58941650390625 120.50936889648438 136.43466186523438 130.02435302734375 137.2799072265625 139.53933715820313 138.03292846679688 142.88934326171875 139.56710815429688 146.42605590820313 140.16400146484375 146.70028686523438 150.913818359375 148.29830932617188 159.9166259765625 148.48110961914063 169.957763671875 145.431396484375 174.75994873046875 139.99607849121094 178.03900146484375 136.51939392089844 193.013427734375 129.50457763671875 191.74658203125 128.52792358398438 191.66619873046875 128.46592712402344 " />
        <polyline stroke="black" stroke-width="3" stroke-linecap="round" fill="transparent" stroke-linejoin="round" points="189.86669921875 117.42625427246094 193.33282470703125 122.67149353027344 196.7989501953125 127.91673278808594 200.6947021484375 137.30101013183594 202.06591796875 141.57591247558594 202.20751953125 147.54598999023438 202.207275390625 147.71885681152344 " />
        <polyline stroke="black" stroke-width="3" stroke-linecap="round" fill="transparent" stroke-linejoin="round" points="147.39407348632813 127.29237365722656 147.39874267578125 143.97622680664063 147.40341186523438 160.6600799560547 146.56689453125 201.76785278320313 145.28305053710938 233.22866821289065 142.34457397460938 243.60528564453125 141.72665405273438 242.63421630859375 " />
        </svg>