<?xml version="1.0" standalone="no"?>
    <svg width="256" height="256" xmlns="http://www.w3.org/2000/svg" version="1.1">
    <polyline stroke="black" stroke-width="3" stroke-linecap="round" fill="transparent" stroke-linejoin="round" points="64.8966064453125 62.333526611328125 66.91940307617188 70.23516845703125 68.94219970703125 78.13681030273438 72.60409545898438 95.0959930419922 73.08868408203125 97.28921508789063 " />
        <polyline stroke="black" stroke-width="3" stroke-linecap="round" fill="transparent" stroke-linejoin="round" points="84.19610595703129 51.109291076660156 92.21185302734376 47.051055908203125 100.22760009765624 42.992820739746094 118.39291381835938 35.058563232421875 141.77288818359375 30.967430114746097 155.4072265625 30.111412048339844 173.206298828125 31.495895385742188 177.96209716796875 32.106101989746094 179.3463134765625 33.89460754394531 178.572998046875 36.454246520996094 178.292236328125 39.71490478515625 174.8968505859375 57.40594482421875 170.6107177734375 66.08624267578125 159.695556640625 77.71629333496094 154.264404296875 80.54621887207031 146.33200073242188 83.6461181640625 145.57666015625 82.49583435058594 " />
        <polyline stroke="black" stroke-width="3" stroke-linecap="round" fill="transparent" stroke-linejoin="round" points="98.1400146484375 67.58195495605469 114.15182495117188 65.29083251953125 130.16363525390625 62.99971008300781 143.951416015625 66.54541015625 144.54489135742188 66.76873779296875 " />
        <polyline stroke="black" stroke-width="3" stroke-linecap="round" fill="transparent" stroke-linejoin="round" points="102.27606201171875 89.68220520019531 117.3427734375 85.52253723144531 132.40948486328125 81.36286926269531 138.07122802734375 80.38287353515625 138.55340576171875 80.2994384765625 " />
        <polyline stroke="black" stroke-width="3" stroke-linecap="round" fill="transparent" stroke-linejoin="round" points="49.0701904296875 134.36964416503906 49.05950927734375 142.4267578125 49.048828125 150.48387145996094 48.54852294921875 162.203857421875 48.045166015625 163.797119140625 47.2021484375 164.0302734375 46.942474365234375 164.23092651367188 46.895751953125 164.2669677734375 47.59429931640625 164.08383178710938 53.83001708984375 163.3375701904297 62.48480224609375 162.47972106933594 79.8150634765625 159.92007446289063 94.78912353515624 155.12567138671875 102.54400634765624 151.82518005371094 114.38778686523438 147.36349487304688 118.93173217773438 146.057861328125 119.73056030273438 146.74966430664063 119.78585815429688 146.79759216308594 " />
        <polyline stroke="black" stroke-width="3" stroke-linecap="round" fill="transparent" stroke-linejoin="round" points="124.47128295898438 119.449951171875 126.05477905273438 127.04293823242188 127.63827514648438 134.63592529296875 129.7618408203125 148.5072479248047 129.307373046875 152.58108520507813 127.12899780273438 154.64244079589844 126.96798706054688 154.7947998046875 " />
        <polyline stroke="black" stroke-width="3" stroke-linecap="round" fill="transparent" stroke-linejoin="round" points="92.26611328125 123.94512939453125 93.375 139.25106811523438 94.48388671875 154.5570068359375 95.19784545898438 173.89585876464844 94.67633056640624 204.473388671875 92.05902099609376 217.5501708984375 91.37277221679688 220.02337646484375 91.30413818359376 220.27069091796875 " />
        <polyline stroke="black" stroke-width="3" stroke-linecap="round" fill="transparent" stroke-linejoin="round" points="155.58941650390625 122.58113098144531 156.57415771484375 130.63400268554688 157.55889892578125 138.68687438964844 159.1966552734375 150.27066040039063 159.68377685546875 153.22911071777344 160.1134033203125 154.98751831054688 160.22613525390625 155.3645477294922 160.9483642578125 155.06504821777344 165.35809326171875 153.99765014648438 169.005859375 153.4899139404297 174.0531005859375 153.07247924804688 194.946044921875 152.58172607421875 216.6114501953125 151.33395385742188 237.670654296875 149.67198181152344 247.73468017578125 147.78726196289063 246.99652099609375 147.40597534179688 243.894287109375 147.19415283203125 243.7752685546875 147.18600463867188 243.71856689453125 147.18215942382813 " />
        <polyline stroke="black" stroke-width="3" stroke-linecap="round" fill="transparent" stroke-linejoin="round" points="211.99169921875 122.79217529296875 213.67230224609375 135.2677459716797 215.3529052734375 147.74331665039063 215.32244873046875 152.38638305664063 207.13922119140625 157.5137176513672 204.8555908203125 157.43748474121094 " />
        <polyline stroke="black" stroke-width="3" stroke-linecap="round" fill="transparent" stroke-linejoin="round" points="175.59808349609375 108.96669006347656 176.12322998046875 127.22531127929688 176.64837646484375 145.4839324951172 176.79022216796875 162.1667938232422 176.7509765625 193.73065185546875 176.22430419921875 205.9046630859375 173.50115966796875 245.58883666992188 173.1048583984375 261.68560791015625 173.065185546875 263.2953186035156 " />
        </svg>