<?xml version="1.0" standalone="no"?>
    <svg width="256" height="256" xmlns="http://www.w3.org/2000/svg" version="1.1">
    <polyline stroke="black" stroke-width="3" stroke-linecap="round" fill="transparent" stroke-linejoin="round" points="73.60089111328125 65.53402709960938 69.19979858398438 84.97216796875 66.99923706054688 96.34164428710938 62.59814453125 127.51603698730467 61.497894287109375 141.08604431152344 60.39764404296875 147.68768310546875 60.39764404296875 147.68768310546875 " />
        <polyline stroke="black" stroke-width="3" stroke-linecap="round" fill="transparent" stroke-linejoin="round" points="61.8646240234375 81.30461120605469 74.70114135742188 71.40216064453125 88.27117919921875 62.96672058105469 104.40850830078124 55.26481628417969 119.81231689453124 50.863731384277344 134.48260498046875 49.029937744140625 146.58563232421875 50.13021087646485 156.8548583984375 53.79779052734375 160.52239990234375 57.098602294921875 170.7916259765625 81.30461120605469 171.15838623046875 105.14382934570313 166.75726318359375 123.84844970703124 161.255859375 134.4844207763672 152.4537353515625 140.3525390625 146.95236206054688 141.81956481933594 146.95236206054688 141.81956481933594 " />
        <polyline stroke="black" stroke-width="3" stroke-linecap="round" fill="transparent" stroke-linejoin="round" points="121.64608764648438 24.457199096679688 121.64608764648438 34.359642028808594 120.54583740234376 51.230491638183594 118.34530639648438 72.86917114257813 115.41122436523438 97.07516479492188 113.210693359375 120.91439819335938 111.37689208984376 140.7192840576172 108.07611083984376 158.3236541748047 108.07611083984376 158.3236541748047 " />
        <polyline stroke="black" stroke-width="3" stroke-linecap="round" fill="transparent" stroke-linejoin="round" points="65.16546630859375 183.9966735839844 74.70114135742188 182.1628875732422 89.37142944335938 179.22882080078125 105.87554931640624 176.29476928710938 122.37960815429688 173.36070251464844 138.88372802734375 170.4266357421875 150.253173828125 168.95962524414063 153.553955078125 170.05987548828125 153.553955078125 170.05987548828125 " />
        <polyline stroke="black" stroke-width="3" stroke-linecap="round" fill="transparent" stroke-linejoin="round" points="46.094085693359375 234.60922241210935 71.0335693359375 226.17376708984375 82.03631591796875 223.60650634765625 94.872802734375 221.0391845703125 121.27935791015624 218.10513305664065 149.88641357421875 217.37158203125 182.89459228515625 216.27130126953125 182.89459228515625 216.27130126953125 " />
        </svg>