<?xml version="1.0" standalone="no"?>
    <svg width="256" height="256" xmlns="http://www.w3.org/2000/svg" version="1.1">
    <polyline stroke="black" stroke-width="3" stroke-linecap="round" fill="transparent" stroke-linejoin="round" points="101 91 99 88 100 89 102 94 105 106 107 124 107 136 108 138 108 144 109 147 109 146 109 146 " />
        <polyline stroke="black" stroke-width="3" stroke-linecap="round" fill="transparent" stroke-linejoin="round" points="113 107 113 104 116 104 118 103 128 99 137 94 147 87 157 80 164 76 168 76 169 77 169 78 169 83 169 85 168 93 168 96 167 108 166 117 164 122 162 125 159 125 155 123 152 119 152 119 " />
        <polyline stroke="black" stroke-width="3" stroke-linecap="round" fill="transparent" stroke-linejoin="round" points="139 60 139 59 140 61 140 69 140 73 140 87 139 92 138 110 137 125 136 136 135 143 134 147 134 147 " />
        <polyline stroke="black" stroke-width="3" stroke-linecap="round" fill="transparent" stroke-linejoin="round" points="123 153 121 153 126 152 133 150 142 148 147 147 148 147 151 147 152 147 153 149 151 151 151 151 " />
        <polyline stroke="black" stroke-width="3" stroke-linecap="round" fill="transparent" stroke-linejoin="round" points="73 198 71 197 75 195 86 189 103 183 125 178 149 174 166 172 171 172 184 171 188 171 198 171 204 172 206 173 205 174 205 175 205 175 " />
        </svg>