<?xml version="1.0" standalone="no"?>
    <svg width="256" height="256" xmlns="http://www.w3.org/2000/svg" version="1.1">
    <polyline stroke="black" stroke-width="3" stroke-linecap="round" fill="transparent" stroke-linejoin="round" points="105.88424682617188 23.185569763183594 133.24456787109375 51.368133544921875 134.12606811523438 59.40374755859375 132.31832885742188 66.03036499023438 125.9814453125 76.23875427246094 115.73577880859376 85.39726257324219 114.91644287109376 85.34718322753906 " />
        <polyline stroke="black" stroke-width="3" stroke-linecap="round" fill="transparent" stroke-linejoin="round" points="65.83090209960938 78.78903198242188 91.05551147460938 72.84979248046875 117.33407592773438 68.22825622558594 133.04754638671875 66.70065307617188 159.9893798828125 66.43194580078125 176.48455810546875 67.42991638183594 181.8460693359375 67.67816162109375 183.11737060546875 67.85359191894531 182.4012451171875 67.10931396484375 181.369140625 66.81707763671875 " />
        <polyline stroke="black" stroke-width="3" stroke-linecap="round" fill="transparent" stroke-linejoin="round" points="49.338348388671875 134.86370849609375 69.37713623046875 127.40267944335938 87.16326904296875 123.76963806152344 96.94564819335938 122.56134033203124 127.09921264648438 122.0914306640625 133.6142578125 122.54295349121094 141.08859252929688 122.7844696044922 147.68426513671875 122.9265594482422 156.565673828125 123.0623779296875 162.74560546875 122.56048583984376 164.96380615234375 122.4219970703125 165.3350830078125 122.39883422851563 165.3687744140625 122.39671325683594 " />
        <polyline stroke="black" stroke-width="3" stroke-linecap="round" fill="transparent" stroke-linejoin="round" points="111.538818359375 72.66322326660156 111.51220703125 106.25595092773438 109.65695190429688 123.79409790039063 101.5843505859375 164.46478271484375 87.92138671875 200.6573486328125 81.0008544921875 214.73080444335935 68.92916870117188 238.31204223632813 64.00631713867188 245.81317138671875 61.776947021484375 249.19891357421875 64.00830078125 243.9378662109375 " />
        <polyline stroke="black" stroke-width="3" stroke-linecap="round" fill="transparent" stroke-linejoin="round" points="95.04632568359376 170.67608642578125 113.44110107421876 187.70794677734375 121.550537109375 195.52572631835935 131.89190673828125 204.78353881835935 155.35107421875 221.21713256835935 178.4798583984375 230.96871948242188 188.05316162109375 233.44952392578125 203.75274658203125 236.8809814453125 207.33123779296875 237.9049072265625 209.32415771484375 240.619384765625 209.40283203125 240.74801635742188 209.42108154296875 240.77777099609375 " />
        <polyline stroke="black" stroke-width="3" stroke-linecap="round" fill="transparent" stroke-linejoin="round" points="153.47705078125 160.7805633544922 146.46298217773438 184.61602783203125 142.64462280273438 194.8695068359375 138.62066650390625 205.03887939453125 127.46649169921876 224.91827392578125 120.83282470703124 235.1338806152344 115.37744140625 243.7099609375 115.16961669921876 243.68414306640625 " />
        </svg>