<?xml version="1.0" standalone="no"?>
    <svg width="256" height="256" xmlns="http://www.w3.org/2000/svg" version="1.1">
    <polyline stroke="black" stroke-width="3" stroke-linecap="round" fill="transparent" stroke-linejoin="round" points="74.10086059570313 92.33619689941406 79.71109008789063 90.026123046875 120.962646484375 77.48565673828125 155.94390869140625 73.19548034667969 167.82440185546875 73.19548034667969 176.4046630859375 73.19548034667969 179.704833984375 73.19548034667969 179.704833984375 73.19548034667969 179.704833984375 73.19548034667969 " />
        <polyline stroke="black" stroke-width="3" stroke-linecap="round" fill="transparent" stroke-linejoin="round" points="109.08218383789063 53.394744873046875 106.112060546875 58.67494201660156 97.86175537109376 82.76583862304688 95.88168334960938 94.3162841796875 96.54168701171876 102.8966064453125 98.52175903320313 113.78700256347656 102.48190307617188 121.70730590820313 109.08218383789063 127.64753723144533 117.33248901367188 131.60769653320313 125.91278076171876 132.5977020263672 136.47320556640625 129.297607421875 149.34368896484375 116.42709350585938 149.34368896484375 116.42709350585938 149.34368896484375 116.42709350585938 " />
        <polyline stroke="black" stroke-width="3" stroke-linecap="round" fill="transparent" stroke-linejoin="round" points="142.4134521484375 65.93521118164063 142.4134521484375 72.2054443359375 141.09335327148438 114.447021484375 140.433349609375 124.347412109375 139.44329833984375 133.91775512695313 139.44329833984375 133.91775512695313 " />
        <polyline stroke="black" stroke-width="3" stroke-linecap="round" fill="transparent" stroke-linejoin="round" points="99.51181030273438 142.16806030273438 96.211669921875 148.4383087158203 82.68115234375 178.13943481445313 77.73101806640625 189.6898498535156 74.10086059570313 197.28012084960935 70.470703125 205.200439453125 70.470703125 205.200439453125 70.470703125 205.200439453125 " />
        <polyline stroke="black" stroke-width="3" stroke-linecap="round" fill="transparent" stroke-linejoin="round" points="98.1917724609375 167.9090576171875 101.82186889648438 169.2290802001953 123.60272216796876 180.44949340820313 126.90283203125 182.4296112060547 136.14315795898438 185.39971923828125 144.0634765625 183.7496337890625 144.0634765625 183.7496337890625 144.0634765625 183.7496337890625 " />
        <polyline stroke="black" stroke-width="3" stroke-linecap="round" fill="transparent" stroke-linejoin="round" points="154.62384033203125 138.8679656982422 151.9837646484375 143.4881134033203 140.10336303710938 171.8691864013672 138.45327758789063 177.14939880371094 132.18304443359375 194.97003173828125 128.55288696289063 203.88037109375 125.91278076171876 211.470703125 125.91278076171876 211.470703125 125.91278076171876 211.470703125 " />
        <polyline stroke="black" stroke-width="3" stroke-linecap="round" fill="transparent" stroke-linejoin="round" points="150.99371337890625 193.98001098632813 172.44451904296875 194.6400451660156 177.39471435546875 195.9600830078125 188.28515625 201.5703125 192.5753173828125 205.200439453125 208.08587646484375 226.6512451171875 208.08587646484375 226.6512451171875 " />
        </svg>