<?xml version="1.0" standalone="no"?>
    <svg width="256" height="256" xmlns="http://www.w3.org/2000/svg" version="1.1">
    <polyline stroke="black" stroke-width="3" stroke-linecap="round" fill="transparent" stroke-linejoin="round" points="81.48431396484375 73.03953552246094 82.38949584960938 75.15167236328125 83.29470825195313 77.5655517578125 84.50164794921875 80.58290100097656 86.01031494140625 84.20372009277344 87.51898193359375 88.42799377441406 89.32940673828125 93.85922241210938 91.4415283203125 100.19564819335938 92.95022583007813 106.83381652832033 94.45889282226563 113.47198486328124 95.36410522460938 118.60145568847656 96.269287109375 122.52401733398438 96.87274169921876 125.54135131835938 97.17453002929688 127.65348815917967 97.47625732421876 129.16213989257813 97.47625732421876 130.3690948486328 97.47625732421876 131.2742919921875 97.47625732421876 131.87777709960938 97.47625732421876 132.1794891357422 97.47625732421876 132.4812469482422 97.47625732421876 132.78297424316406 97.47625732421876 132.78297424316406 " />
        <polyline stroke="black" stroke-width="3" stroke-linecap="round" fill="transparent" stroke-linejoin="round" points="110.14907836914063 69.418701171875 114.07162475585938 66.70310974121094 118.2958984375 63.98748779296875 122.21847534179688 61.57362365722656 126.14102172851563 59.46147155761719 130.06356811523438 57.65107727050781 133.38265991210938 55.84065246582031 136.09829711914063 54.63372039794922 138.21038818359375 53.728515625 140.02081298828125 52.82331085205078 141.83120727539063 51.918113708496094 143.03811645507813 51.31463623046875 143.94338989257813 51.012908935546875 145.15029907226563 50.71116638183594 146.05548095703125 50.71116638183594 146.96072387695313 50.71116638183594 147.564208984375 50.71116638183594 148.46939086914063 50.71116638183594 149.07284545898438 51.012908935546875 149.97802734375 51.31463623046875 150.58154296875 51.61637878417969 151.18499755859375 52.21983337402344 152.0902099609375 53.426788330078125 152.99542236328125 55.23719787597656 153.90057373046875 57.65107727050781 154.5040283203125 61.57362365722656 154.5040283203125 67.30656433105469 154.20233154296875 74.54820251464844 153.297119140625 82.393310546875 151.78851318359375 89.93667602539063 150.58154296875 97.17829895019533 148.7711181640625 103.81646728515624 147.564208984375 109.54939270019533 146.35720825195313 113.773681640625 145.4520263671875 116.79103088378906 144.54684448242188 118.90316772460938 143.94338989257813 120.411865234375 143.33990478515625 121.31706237792967 143.03811645507813 121.92051696777344 142.73641967773438 122.52401733398438 142.43466186523438 122.82574462890624 142.1329345703125 122.82574462890624 141.83120727539063 122.82574462890624 141.83120727539063 122.82574462890624 " />
        <polyline stroke="black" stroke-width="3" stroke-linecap="round" fill="transparent" stroke-linejoin="round" points="106.52825927734376 94.76441955566406 110.4508056640625 92.3505401611328 114.37335205078124 89.93667602539063 117.99417114257813 87.82452392578125 120.70980834960938 86.31585693359375 122.82196044921876 85.10891723632813 124.33062744140624 84.20372009277344 125.53756713867188 83.60025024414063 126.4427490234375 82.99676513671875 127.04623413085938 82.69503784179688 127.649658203125 82.393310546875 128.253173828125 82.69503784179688 128.253173828125 83.29850769042969 128.253173828125 83.29850769042969 " />
        <polyline stroke="black" stroke-width="3" stroke-linecap="round" fill="transparent" stroke-linejoin="round" points="104.7178955078125 119.50666809082033 109.84735107421876 116.48931884765624 115.278564453125 113.47198486328124 120.10635375976563 111.05809020996094 124.02890014648438 108.94595336914063 127.04623413085938 107.43727111816406 129.46011352539063 106.23033142089844 130.96878051757813 105.32513427734376 132.17575073242188 104.7216796875 133.0809326171875 104.11819458007813 133.68438720703125 103.81646728515624 134.287841796875 103.51470947265624 134.589599609375 103.21299743652344 134.89129638671875 103.21299743652344 134.589599609375 104.11819458007813 134.287841796875 104.7216796875 134.287841796875 104.7216796875 " />
        <polyline stroke="black" stroke-width="3" stroke-linecap="round" fill="transparent" stroke-linejoin="round" points="89.93289184570313 156.0165252685547 96.269287109375 152.39572143554688 103.81265258789063 148.17144775390625 112.56298828125 143.34368896484375 121.614990234375 138.8176727294922 137.60693359375 130.3690948486328 143.33990478515625 126.748291015625 148.7711181640625 123.42921447753906 152.69366455078125 121.01530456542967 155.7110595703125 119.20492553710938 157.8231201171875 117.99797058105467 159.33184814453125 117.0927734375 160.237060546875 116.48931884765624 161.1422119140625 116.18757629394533 161.74566650390625 115.88583374023438 162.04742431640625 115.58412170410156 162.04742431640625 116.18757629394533 161.4439697265625 117.39451599121094 159.935302734375 119.80838012695313 156.91796875 123.73094177246094 156.91796875 123.73094177246094 " />
        <polyline stroke="black" stroke-width="3" stroke-linecap="round" fill="transparent" stroke-linejoin="round" points="67.00103759765625 198.5611267089844 76.65655517578125 193.1298828125 88.7259521484375 185.88824462890625 102.605712890625 178.0431671142578 118.59765625 169.89633178710938 134.89129638671875 162.35296630859375 149.97802734375 155.41307067871094 165.06475830078125 148.77488708496094 178.944580078125 143.64540100097656 190.7122802734375 139.72286987304688 200.36773681640625 136.70553588867188 208.51458740234375 134.5933837890625 214.54925537109375 133.08470153808594 219.0753173828125 131.87777709960938 221.79083251953125 131.2742919921875 223.601318359375 130.67083740234375 224.8082275390625 130.3690948486328 225.71343994140625 130.3690948486328 226.31689453125 130.3690948486328 226.92034912109375 130.3690948486328 227.22210693359375 130.3690948486328 227.52386474609375 130.3690948486328 227.22210693359375 130.3690948486328 226.31689453125 130.3690948486328 226.31689453125 130.3690948486328 " />
        <polyline stroke="black" stroke-width="3" stroke-linecap="round" fill="transparent" stroke-linejoin="round" points="135.49478149414063 160.24081420898438 136.09829711914063 161.44775390625 136.70175170898438 163.25814819335938 137.30520629882813 165.97378540039063 137.90866088867188 169.5946044921875 138.21038818359375 174.12062072753906 138.51211547851563 179.5518341064453 138.81387329101563 184.37960815429688 138.81387329101563 190.112548828125 139.11557006835938 196.75070190429688 139.41732788085938 204.2940673828125 139.7191162109375 211.53570556640625 140.32257080078125 218.77731323242188 140.926025390625 226.6224365234375 141.83120727539063 233.26055908203125 142.43466186523438 239.59701538085935 143.03811645507813 244.42477416992188 143.64166259765625 248.9508056640625 144.24508666992188 254.68377685546875 144.24508666992188 254.68377685546875 " />
        </svg>