<?xml version="1.0" standalone="no"?>
    <svg width="256" height="256" xmlns="http://www.w3.org/2000/svg" version="1.1">
    <polyline stroke="black" stroke-width="3" stroke-linecap="round" fill="transparent" stroke-linejoin="round" points="83.18386840820313 81.60394287109375 84.15402221679688 94.5390167236328 84.47738647460938 101.65330505371094 84.80075073242188 105.21044921875 84.80075073242188 105.21044921875 " />
        <polyline stroke="black" stroke-width="3" stroke-linecap="round" fill="transparent" stroke-linejoin="round" points="100.9696044921875 42.15199279785156 124.89950561523438 32.77406311035156 144.30206298828125 25.659767150878903 157.8839111328125 23.07276153564453 164.028076171875 24.36626434326172 168.87872314453125 29.54029083251953 171.142333984375 46.35588073730469 165.64495849609375 64.1416015625 155.94366455078125 84.51432800292969 146.24237060546875 98.41954040527344 146.24237060546875 98.41954040527344 " />
        <polyline stroke="black" stroke-width="3" stroke-linecap="round" fill="transparent" stroke-linejoin="round" points="99.02935791015624 77.40003967285156 118.10855102539063 72.87277221679688 138.15792846679688 70.28575134277344 152.70989990234375 68.99224853515625 152.70989990234375 68.99224853515625 " />
        <polyline stroke="black" stroke-width="3" stroke-linecap="round" fill="transparent" stroke-linejoin="round" points="145.9189453125 95.18576049804688 163.7047119140625 91.62863159179688 165.64495849609375 91.30525207519533 165.64495849609375 91.30525207519533 " />
        <polyline stroke="black" stroke-width="3" stroke-linecap="round" fill="transparent" stroke-linejoin="round" points="76.71636962890625 148.86630249023438 97.73583984375 142.07540893554688 113.9046630859375 136.57797241210938 125.86959838867188 133.02084350585938 131.69039916992188 131.4039764404297 135.5709228515625 130.75721740722656 135.24752807617188 131.7273406982422 118.75527954101563 141.10525512695313 99.35272216796876 151.7766876220703 83.83062744140625 160.1844940185547 70.57217407226563 166.65203857421875 65.72152709960938 168.91567993164063 65.39816284179688 169.239013671875 78.98001098632813 167.62213134765625 106.14361572265624 162.124755859375 137.83453369140625 155.0104522705078 166.6151123046875 147.89614868164063 187.3111572265625 143.368896484375 197.9825439453125 142.39877319335938 199.92291259765625 143.04554748535156 199.92291259765625 144.98577880859375 199.92291259765625 144.98577880859375 " />
        <polyline stroke="black" stroke-width="3" stroke-linecap="round" fill="transparent" stroke-linejoin="round" points="110.6708984375 173.11956787109375 111.64102172851563 215.8052978515625 112.61117553710938 240.3819274902344 112.61117553710938 240.3819274902344 " />
        </svg>