<?xml version="1.0" standalone="no"?>
    <svg width="256" height="256" xmlns="http://www.w3.org/2000/svg" version="1.1">
    <polyline stroke="black" stroke-width="3" stroke-linecap="round" fill="transparent" stroke-linejoin="round" points="99.01287841796876 82.70101928710938 101.46133422851563 96.77963256835938 104.52191162109376 112.08245849609376 105.74612426757813 124.32472229003906 105.74612426757813 132.28219604492188 105.74612426757813 135.9548797607422 105.74612426757813 135.9548797607422 " />
        <polyline stroke="black" stroke-width="3" stroke-linecap="round" fill="transparent" stroke-linejoin="round" points="114.92782592773438 69.84663391113281 125.94586181640624 62.50128173828125 141.24868774414063 55.155914306640625 158.38787841796875 49.64689636230469 174.30279541015625 47.198448181152344 184.708740234375 47.81055450439453 191.4420166015625 50.871124267578125 195.11468505859375 59.440704345703125 194.5025634765625 77.80410766601563 185.9329833984375 98.615966796875 172.46649169921875 115.75514221191406 159 126.77317810058594 159 126.77317810058594 " />
        <polyline stroke="black" stroke-width="3" stroke-linecap="round" fill="transparent" stroke-linejoin="round" points="119.21261596679688 94.3311767578125 127.78219604492188 91.27059936523438 138.1881103515625 88.21003723144531 150.43038940429688 85.76158142089844 160.8363037109375 83.92524719238281 168.7938232421875 83.31312561035156 174.30279541015625 83.31312561035156 177.9754638671875 86.37370300292969 177.9754638671875 86.37370300292969 " />
        <polyline stroke="black" stroke-width="3" stroke-linecap="round" fill="transparent" stroke-linejoin="round" points="121.66107177734376 126.16107177734376 132.0670166015625 121.87628173828124 143.08502197265625 118.20359802246094 153.490966796875 115.75514221191406 160.2242431640625 114.53091430664063 164.509033203125 114.53091430664063 166.95745849609375 117.59147644042967 166.95745849609375 117.59147644042967 " />
        <polyline stroke="black" stroke-width="3" stroke-linecap="round" fill="transparent" stroke-linejoin="round" points="113.09149169921876 164.72421264648438 124.72161865234376 159.82730102539063 136.96389770507813 155.54251098632813 147.98193359375 152.48194885253906 157.16363525390625 152.48194885253906 163.2847900390625 155.54251098632813 163.2847900390625 155.54251098632813 " />
        <polyline stroke="black" stroke-width="3" stroke-linecap="round" fill="transparent" stroke-linejoin="round" points="59.22552490234375 212.46905517578125 72.07989501953125 210.6327209472656 89.21905517578125 208.79635620117188 114.31570434570313 205.73580932617188 133.29119873046875 203.89947509765625 155.3272705078125 200.83889770507813 172.46649169921875 197.7783203125 183.4844970703125 194.10565185546875 190.2177734375 191.04507446289065 193.89044189453125 188.59661865234375 193.89044189453125 184.9239501953125 193.89044189453125 184.9239501953125 " />
        <polyline stroke="black" stroke-width="3" stroke-linecap="round" fill="transparent" stroke-linejoin="round" points="134.51544189453125 192.88140869140625 134.51544189453125 208.79635620117188 133.9033203125 224.0992126464844 133.29119873046875 235.7293701171875 132.0670166015625 244.2989501953125 132.0670166015625 244.2989501953125 " />
        </svg>