<?xml version="1.0" standalone="no"?>
    <svg width="256" height="256" xmlns="http://www.w3.org/2000/svg" version="1.1">
    <polyline stroke="black" stroke-width="3" stroke-linecap="round" fill="transparent" stroke-linejoin="round" points="156.551513671875 41.689422607421875 152.2667236328125 52.09535217285156 142.472900390625 67.39817810058594 126.5579833984375 87.59793090820313 108.194580078125 104.7371063232422 87.99481201171875 120.03993225097656 72.07989501953125 129.2216339111328 72.07989501953125 129.2216339111328 " />
        <polyline stroke="black" stroke-width="3" stroke-linecap="round" fill="transparent" stroke-linejoin="round" points="83.71002197265625 69.23452758789063 94.115966796875 72.29508972167969 110.03091430664063 77.80410766601563 132.0670166015625 85.76158142089844 150.43038940429688 90.6584930419922 166.3453369140625 94.3311767578125 179.19970703125 93.71905517578124 179.19970703125 93.71905517578124 " />
        <polyline stroke="black" stroke-width="3" stroke-linecap="round" fill="transparent" stroke-linejoin="round" points="77.58892822265625 169.62110900878906 95.3402099609375 163.49998474121094 111.255126953125 159.21519470214844 129.00640869140625 153.09405517578125 149.81829833984375 145.74868774414063 164.509033203125 139.6275634765625 171.8543701171875 134.73065185546875 171.8543701171875 134.73065185546875 " />
        <polyline stroke="black" stroke-width="3" stroke-linecap="round" fill="transparent" stroke-linejoin="round" points="132.67910766601563 121.26416015625 124.72161865234376 132.28219604492188 114.31570434570313 150.64559936523438 94.72808837890624 187.37240600585935 84.3221435546875 205.12368774414065 74.5283203125 220.426513671875 68.4072265625 229.60821533203125 64.73452758789063 233.89300537109375 64.73452758789063 233.89300537109375 " />
        <polyline stroke="black" stroke-width="3" stroke-linecap="round" fill="transparent" stroke-linejoin="round" points="104.52191162109376 160.43942260742188 115.5399169921875 163.49998474121094 122.88531494140624 168.3968963623047 132.0670166015625 176.3543701171875 144.30926513671875 187.37240600585935 157.7757568359375 199.0025634765625 170.630126953125 211.85693359375 170.630126953125 211.85693359375 " />
        </svg>