<?xml version="1.0" standalone="no"?>
    <svg width="256" height="256" xmlns="http://www.w3.org/2000/svg" version="1.1">
    <polyline stroke="black" stroke-width="3" stroke-linecap="round" fill="transparent" stroke-linejoin="round" points="74.72412109375001 137.5614776611328 85.33706665039063 134.41543579101563 95.95001220703124 131.26939392089844 120.32040405273438 124.19082641601563 130.933349609375 120.65151977539063 149.40765380859375 114.35943603515624 156.48297119140625 111.99989318847656 164.3443603515625 109.2471160888672 165.1304931640625 108.46060180664063 163.5582275390625 108.46060180664063 163.5582275390625 108.46060180664063 " />
        <polyline stroke="black" stroke-width="3" stroke-linecap="round" fill="transparent" stroke-linejoin="round" points="132.50555419921875 79.75294494628908 129.36102294921875 92.33712768554688 126.21649169921876 104.92131042480467 120.71347045898438 117.11222839355467 114.03128051757813 129.69638061523438 101.0599365234375 152.5052032470703 94.37771606445313 161.94332885742188 88.08856201171875 170.5949249267578 73.54495239257813 187.11166381835935 65.68353271484375 194.19024658203125 65.68353271484375 194.19024658203125 " />
        <polyline stroke="black" stroke-width="3" stroke-linecap="round" fill="transparent" stroke-linejoin="round" points="119.14123535156253 141.8872833251953 126.60955810546876 150.14566040039063 134.077880859375 158.40403747558594 141.54623413085938 165.4826202392578 153.7314453125 174.52748107910156 160.4136962890625 177.67352294921875 172.205810546875 181.9993133544922 177.70880126953125 182.78585815429688 182.0325927734375 183.1791076660156 182.0325927734375 183.1791076660156 " />
        <polyline stroke="black" stroke-width="3" stroke-linecap="round" fill="transparent" stroke-linejoin="round" points="146.2630615234375 129.3031005859375 154.517578125 135.2019500732422 162.7720947265625 141.10079956054688 172.598876953125 146.60638427734375 175.743408203125 147.78611755371094 177.70880126953125 148.9658966064453 180.8533935546875 150.53892517089844 180.8533935546875 150.53892517089844 " />
        <polyline stroke="black" stroke-width="3" stroke-linecap="round" fill="transparent" stroke-linejoin="round" points="198.9345703125 102.561767578125 185.5701904296875 121.43801879882813 172.205810546875 140.31427001953125 162.7720947265625 151.7186737060547 141.9393310546875 172.56118774414063 132.898681640625 180.03305053710938 119.92733764648438 191.044189453125 114.42434692382813 194.97674560546875 109.31442260742188 198.122802734375 109.31442260742188 198.122802734375 " />
        <polyline stroke="black" stroke-width="3" stroke-linecap="round" fill="transparent" stroke-linejoin="round" points="104.9906005859375 200.48226928710932 113.2451171875 198.5160217285156 121.4996337890625 196.54977416992188 128.57489013671875 194.58349609375 133.291748046875 193.7969970703125 134.47097778320313 193.7969970703125 134.86404418945313 194.97674560546875 134.86404418945313 194.97674560546875 " />
        <polyline stroke="black" stroke-width="3" stroke-linecap="round" fill="transparent" stroke-linejoin="round" points="72.7587890625 225.6506958007812 82.1925048828125 223.68441772460935 91.626220703125 221.7181396484375 111.6728515625 218.1788330078125 120.32040405273438 217.39230346679688 129.36102294921875 216.60580444335935 146.65618896484375 215.426025390625 154.517578125 215.03277587890625 166.70281982421875 214.24627685546875 170.633544921875 214.6395263671875 174.957275390625 215.03277587890625 175.350341796875 215.426025390625 175.350341796875 215.426025390625 " />
        </svg>