<?xml version="1.0" standalone="no"?>
    <svg width="256" height="256" xmlns="http://www.w3.org/2000/svg" version="1.1">
    <polyline stroke="black" stroke-width="3" stroke-linecap="round" fill="transparent" stroke-linejoin="round" points="80.19555664062499 99.68798828125003 88.32797241210938 97.07611083984376 96.46038818359376 94.4642333984375 119.70562744140624 88.48861694335938 129.758056640625 86.20755004882813 138.7364501953125 83.25825500488281 152.4935302734375 78.54132080078125 153.83056640625 78.08560180664063 " />
        <polyline stroke="black" stroke-width="3" stroke-linecap="round" fill="transparent" stroke-linejoin="round" points="114.75051879882815 64.99409484863281 110.12005615234376 78.08383178710938 105.48959350585938 91.17356872558594 100.30490112304688 104.7932586669922 94.66036987304688 118.2037353515625 80.693115234375 141.93528747558594 68.99508666992188 154.98953247070313 64.60629272460938 159.14854431152344 60.841552734375 161.072265625 60.681884765625 161.14410400390625 60.669281005859375 161.14976501464844 " />
        <polyline stroke="black" stroke-width="3" stroke-linecap="round" fill="transparent" stroke-linejoin="round" points="110.19784545898438 121.73683166503908 119.49057006835938 122.81124877929688 128.78329467773438 123.88566589355467 139.28070068359375 126.41888427734376 158.09747314453125 131.6234588623047 181.87127685546875 141.2197723388672 191.38623046875 146.34649658203125 208.94488525390625 156.97601318359375 215.79998779296875 161.57481384277344 216.055419921875 161.7491455078125 216.0809326171875 161.76657104492188 216.0830078125 161.76800537109375 216.0833740234375 161.76828002929688 " />
        <polyline stroke="black" stroke-width="3" stroke-linecap="round" fill="transparent" stroke-linejoin="round" points="177.83935546875 79.49960327148436 173.21160888671875 86.92738342285156 168.5838623046875 94.35516357421876 154.172119140625 112.0494384765625 146.01666259765625 119.53768920898438 136.286376953125 128.18234252929688 134.068115234375 129.94749450683594 132.54403686523438 130.2466278076172 132.48983764648438 130.26072692871094 133.77166748046875 124.76712036132813 145.365234375 106.02056884765624 151.6571044921875 101.63127136230467 159.68865966796875 98.64663696289063 163.922119140625 98.8878173828125 172.687255859375 101.91952514648438 183.9429931640625 106.61904907226563 188.48553466796875 109.4267578125 193.095458984375 115.19284057617188 193.420166015625 119.76187133789063 193.45074462890625 120.19134521484376 " />
        <polyline stroke="black" stroke-width="3" stroke-linecap="round" fill="transparent" stroke-linejoin="round" points="96.759765625 160.70986938476563 101.9189453125 159.0994110107422 107.078125 157.48895263671875 128.90435791015625 153.29006958007813 133.14910888671875 152.3909149169922 134.75244140625 152.5262908935547 134.78424072265625 152.53672790527344 134.78890991210938 152.53826904296875 132.18832397460938 154.2447967529297 122.11984252929688 163.41287231445313 120.41937255859376 165.06829833984375 " />
        <polyline stroke="black" stroke-width="3" stroke-linecap="round" fill="transparent" stroke-linejoin="round" points="91.0582580566406 211.11737060546875 99.92950439453124 208.069580078125 108.80075073242188 205.02178955078125 140.45458984375 197.72750854492188 163.62420654296875 195.05462646484375 171.71826171875 195.4042053222656 180.12396240234375 197.338134765625 182.36590576171875 198.8412170410156 184.764892578125 202.1072998046875 184.8577880859375 202.26708984375 181.3199462890625 211.803466796875 180.00787353515625 213.35809326171875 " />
        </svg>