<?xml version="1.0" standalone="no"?>
    <svg width="256" height="256" xmlns="http://www.w3.org/2000/svg" version="1.1">
    <polyline stroke="black" stroke-width="3" stroke-linecap="round" fill="transparent" stroke-linejoin="round" points="75.79937744140625 107.78732299804688 85.00106811523438 102.83255004882813 94.2027587890625 97.87777709960938 103.75839233398438 93.27691650390624 122.86962890625 85.13694763183594 143.04266357421875 78.41262817382813 162.5078125 71.68829345703125 176.664306640625 64.96395874023438 180.55731201171875 62.132659912109375 180.55731201171875 62.132659912109375 " />
        <polyline stroke="black" stroke-width="3" stroke-linecap="round" fill="transparent" stroke-linejoin="round" points="95.26446533203125 98.231689453125 82.8775634765625 119.46641540527344 70.49066162109375 140.70114135742188 49.255950927734375 169.36801147460938 43.593353271484375 175.03060913085938 43.593353271484375 175.03060913085938 " />
        <polyline stroke="black" stroke-width="3" stroke-linecap="round" fill="transparent" stroke-linejoin="round" points="93.14105224609375 123.00550842285159 102.34274291992188 124.77508544921876 111.54443359375 126.54466247558594 122.51571655273438 129.37596130371094 133.133056640625 132.20724487304688 144.10433959960938 135.3924560546875 163.56951904296875 142.11679077148438 180.9112548828125 147.77938842773438 196.8372802734375 148.48721313476563 196.8372802734375 148.48721313476563 " />
        <polyline stroke="black" stroke-width="3" stroke-linecap="round" fill="transparent" stroke-linejoin="round" points="192.2364501953125 83.01351928710938 186.5738525390625 88.67608642578125 180.9112548828125 94.33865356445313 167.108642578125 107.07949829101563 160.38427734375 113.0959930419922 145.8739013671875 124.77508544921876 145.8739013671875 124.77508544921876 " />
        <polyline stroke="black" stroke-width="3" stroke-linecap="round" fill="transparent" stroke-linejoin="round" points="147.9974365234375 104.24818420410159 155.4295654296875 106.01776123046876 162.8616943359375 107.78733825683594 170.64776611328125 109.55686950683594 178.78778076171875 111.68034362792967 186.21990966796875 113.44992065429688 197.191162109375 116.98904418945313 200.0224609375 118.05076599121094 200.0224609375 118.05076599121094 " />
        <polyline stroke="black" stroke-width="3" stroke-linecap="round" fill="transparent" stroke-linejoin="round" points="103.75836181640624 177.50799560546875 114.375732421875 173.9688720703125 124.99310302734376 170.42974853515625 134.90264892578125 167.95236206054688 154.72174072265625 165.12107849121094 162.8616943359375 165.12107849121094 169.5860595703125 165.4749755859375 176.664306640625 166.890625 176.664306640625 166.890625 " />
        <polyline stroke="black" stroke-width="3" stroke-linecap="round" fill="transparent" stroke-linejoin="round" points="72.61407470703124 212.8992004394531 87.12451171875 207.59051513671875 101.63494873046876 202.2818298339844 116.14532470703124 198.3887939453125 147.64349365234375 193.08013916015625 164.27734375 192.7261962890625 209.9320068359375 196.6192626953125 230.8128662109375 202.2818298339844 238.95281982421875 206.52877807617188 238.95281982421875 206.52877807617188 " />
        </svg>