<?xml version="1.0" standalone="no"?>
    <svg width="256" height="256" xmlns="http://www.w3.org/2000/svg" version="1.1">
    <polyline stroke="black" stroke-width="3" stroke-linecap="round" fill="transparent" stroke-linejoin="round" points="56 128 57 128 58 128 60 128 64 127 69 125 75 122 81 119 88 116 92 114 96 111 99 108 103 107 106 105 110 103 111 102 112 102 113 101 114 101 114 101 115 101 115 101 115 101 " />
        <polyline stroke="black" stroke-width="3" stroke-linecap="round" fill="transparent" stroke-linejoin="round" points="79 127 79 128 79 132 79 139 79 148 79 157 79 163 79 168 79 170 79 172 79 172 79 173 79 173 " />
        <polyline stroke="black" stroke-width="3" stroke-linecap="round" fill="transparent" stroke-linejoin="round" points="102 122 102 122 102 122 102 124 102 126 102 131 102 138 102 145 100 153 99 158 97 161 97 163 96 164 96 164 96 165 96 165 " />
        <polyline stroke="black" stroke-width="3" stroke-linecap="round" fill="transparent" stroke-linejoin="round" points="67 183 68 183 68 183 72 183 76 181 80 180 86 178 91 175 95 173 100 171 103 170 105 168 107 167 108 166 110 166 111 165 111 164 112 164 112 164 " />
        <polyline stroke="black" stroke-width="3" stroke-linecap="round" fill="transparent" stroke-linejoin="round" points="133 86 133 87 134 92 137 97 139 100 141 104 143 105 143 107 144 107 144 107 144 108 144 108 " />
        <polyline stroke="black" stroke-width="3" stroke-linecap="round" fill="transparent" stroke-linejoin="round" points="168 70 168 70 168 72 168 75 168 82 168 92 167 105 165 117 161 130 157 141 152 151 148 162 141 175 139 180 132 189 125 198 121 202 119 204 118 206 118 206 118 206 " />
        <polyline stroke="black" stroke-width="3" stroke-linecap="round" fill="transparent" stroke-linejoin="round" points="137 133 137 133 138 133 144 133 149 131 156 128 164 124 168 122 176 119 182 117 186 116 190 115 194 115 197 114 200 114 202 114 203 114 205 115 206 116 207 118 208 123 209 131 209 141 209 152 208 163 206 174 203 183 200 191 198 198 196 203 192 210 190 214 189 216 188 217 187 217 185 217 184 217 182 217 180 216 177 214 174 212 172 210 171 209 170 207 169 207 169 207 169 207 169 207 169 207 " />
        </svg>