<?xml version="1.0" standalone="no"?>
    <svg width="256" height="256" xmlns="http://www.w3.org/2000/svg" version="1.1">
    <polyline stroke="black" stroke-width="3" stroke-linecap="round" fill="transparent" stroke-linejoin="round" points="75.4444580078125 78.66667175292969 104.77777099609376 66.22222900390625 114.55557250976563 63.55555725097656 132.33334350585938 58.22222900390625 136.77777099609375 56.44444274902344 139.44448852539063 56.44444274902344 139.44448852539063 57.33332824707031 138.55557250976563 59.111114501953125 135.00003051757813 63.55555725097656 132.33334350585938 68.88890075683594 131.4444580078125 69.77778625488281 130.55557250976563 70.66667175292969 128.77777099609375 71.55555725097656 128.77777099609375 71.55555725097656 " />
        <polyline stroke="black" stroke-width="3" stroke-linecap="round" fill="transparent" stroke-linejoin="round" points="106.55557250976563 78.66667175292969 104.77777099609376 95.55555725097656 102.11111450195313 107.11114501953124 97.66665649414063 134.6666717529297 90.55557250976563 159.55555725097656 78.11111450195313 192.4444580078125 69.22222900390625 205.77777099609375 65.66665649414063 206.66665649414065 65.66665649414063 206.66665649414065 " />
        <polyline stroke="black" stroke-width="3" stroke-linecap="round" fill="transparent" stroke-linejoin="round" points="101.22222900390624 118.66668701171876 118.11111450195313 108.88888549804688 133.22222900390625 103.55555725097656 143 101.7777862548828 146.55557250976563 101.7777862548828 148.3333740234375 116.00003051757813 143 137.3333282470703 140.33334350585938 156.00003051757813 140.33334350585938 166.6666717529297 144.77777099609375 173.77780151367188 152.77780151367188 178.2222442626953 167 180 183 177.3333282470703 193.66665649414065 174.6666717529297 202.5555725097656 171.11111450195313 207.88888549804688 167.55555725097656 210.5555725097656 163.11111450195313 210.5555725097656 156.88888549804688 205.22222900390625 148 199 140.88890075683594 199 140.88890075683594 " />
        </svg>