<?xml version="1.0" standalone="no"?>
    <svg width="256" height="256" xmlns="http://www.w3.org/2000/svg" version="1.1">
    <polyline stroke="black" stroke-width="3" stroke-linecap="round" fill="transparent" stroke-linejoin="round" points="68.87335205078125 70.46017456054688 79.902587890625 83.17282104492188 85.49069213867188 100.14865112304688 89.98577880859375 122.28184509277344 91.1171875 159.28073120117188 88.35614013671875 170.48269653320313 81.52728271484375 191.4190673828125 78.7962646484375 199.1925048828125 74.09042358398438 209.06494140625 71.58041381835938 210.85064697265625 71.42794799804688 210.93765258789065 " />
        <polyline stroke="black" stroke-width="3" stroke-linecap="round" fill="transparent" stroke-linejoin="round" points="90.05975341796875 89.82015991210938 103.87884521484376 77.03456115722656 109.61373901367188 72.63351440429688 121.32418823242188 64.08204650878906 126.93994140625 61.01130676269531 136.46923828125 57.662933349609375 138.86483764648438 57.471221923828125 140.8531494140625 58.0528564453125 145.11361694335938 65.811767578125 150.01242065429688 78.75210571289063 158.46044921875 120.78012084960938 160.35858154296875 139.21983337402344 161.56207275390625 170.2655487060547 162.579833984375 186.42852783203125 163.275146484375 212.55450439453125 163.24517822265625 220.78414916992188 163.0635986328125 230.7645263671875 160.64501953125 231.63519287109375 159.06561279296875 231.224853515625 154.766845703125 228.14730834960935 147.94345092773438 224.2242431640625 126.66583251953124 209.20465087890625 124.76763916015624 207.87286376953125 " />
        <polyline stroke="black" stroke-width="3" stroke-linecap="round" fill="transparent" stroke-linejoin="round" points="54.99261474609375 143.51666259765625 70.72811889648438 140.54824829101563 78.93157958984375 138.48080444335938 88.86825561523438 135.81216430664063 114.27243041992188 129.8702850341797 131.84979248046875 127.70220947265624 144.99862670898438 126.88052368164063 167.1846923828125 126.6228485107422 195.477294921875 125.63906860351563 201.2371826171875 124.92166137695313 222.785888671875 124.31076049804688 223.13714599609375 124.33319091796876 223.170654296875 124.3353271484375 " />
        </svg>