<?xml version="1.0" standalone="no"?>
    <svg width="256" height="256" xmlns="http://www.w3.org/2000/svg" version="1.1">
    <polyline stroke="black" stroke-width="3" stroke-linecap="round" fill="transparent" stroke-linejoin="round" points="72.82455444335938 78.93386840820313 71.05307006835938 91.33456420898438 69.28158569335938 103.73526000976563 66.80145263671875 120.3875732421875 64.67562866210938 137.74851989746094 60.77825927734375 168.21873474121094 59.71533203125 180.9737243652344 57.943817138671875 199.3975830078125 56.526580810546875 208.96380615234375 55.817962646484375 211.4439697265625 55.817962646484375 211.4439697265625 " />
        <polyline stroke="black" stroke-width="3" stroke-linecap="round" fill="transparent" stroke-linejoin="round" points="67.86431884765625 67.59616088867188 74.2418212890625 64.40740966796875 80.61932373046875 61.218658447265625 96.56304931640624 54.841156005859375 114.632568359375 48.81797790527344 124.55316162109376 45.62923431396485 143.68560791015625 41.37757873535156 160.6922607421875 39.606048583984375 176.28167724609375 38.89744567871094 187.619384765625 40.668968200683594 195.7684326171875 43.85771179199219 201.43731689453125 49.880889892578125 204.9803466796875 57.3212890625 210.294921875 98.0663604736328 207.8148193359375 128.89089965820313 203.56317138671875 154.75515747070313 198.24853515625 172.4703826904297 191.87109375 182.7452392578125 191.87109375 182.7452392578125 " />
        <polyline stroke="black" stroke-width="3" stroke-linecap="round" fill="transparent" stroke-linejoin="round" points="105.06637573242188 102.67230224609378 109.67233276367188 100.1921844482422 114.27828979492188 97.71206665039063 119.94720458984376 94.87762451171876 130.57635498046875 91.33456420898438 143.68560791015625 88.85444641113281 149.3544921875 89.56304931640625 151.1259765625 90.27165222167967 153.60614013671875 94.87762451171876 152.18890380859375 112.59286499023438 146.52001953125 126.41075134277344 138.37103271484375 137.74851989746094 135.18231201171875 141.29156494140625 135.18231201171875 141.29156494140625 " />
        <polyline stroke="black" stroke-width="3" stroke-linecap="round" fill="transparent" stroke-linejoin="round" points="108.60943603515625 143.41738891601563 114.98690795898438 146.2518310546875 121.3643798828125 149.08627319335938 144.03988647460938 161.4869384765625 147.937255859375 165.38430786132813 147.937255859375 165.38430786132813 " />
        <polyline stroke="black" stroke-width="3" stroke-linecap="round" fill="transparent" stroke-linejoin="round" points="64.3212890625 213.56976318359375 74.2418212890625 211.08963012695313 84.162353515625 208.6094970703125 95.85446166992188 205.77505493164065 117.82135009765624 201.16909790039065 128.09619140625 199.75189208984375 138.01669311523438 198.68896484375 156.44061279296875 197.271728515625 172.030029296875 196.91741943359375 184.07635498046875 197.62603759765625 192.93402099609375 200.10617065429688 192.93402099609375 200.10617065429688 " />
        </svg>