<?xml version="1.0" standalone="no"?>
    <svg width="256" height="256" xmlns="http://www.w3.org/2000/svg" version="1.1">
    <polyline stroke="black" stroke-width="3" stroke-linecap="round" fill="transparent" stroke-linejoin="round" points="87.66049194335938 104.9788818359375 87.24163818359375 110.0051727294922 85.98507690429688 118.8011474609375 85.1473388671875 119.63885498046876 85.1473388671875 117.9634246826172 88.079345703125 109.5863037109375 94.78106689453124 95.34518432617188 103.99591064453124 82.36064147949219 115.30502319335938 71.47038269042969 129.12728881835938 62.25555419921875 145.04379272460938 56.81040954589844 156.77178955078125 55.134979248046875 163.4735107421875 56.39155578613281 166.40545654296875 58.904693603515625 165.98663330078125 64.7686767578125 158.8660888671875 73.9835205078125 140.855224609375 86.96806335449219 118.65585327148438 98.696044921875 102.73934936523438 105.39773559570313 95.19989013671876 108.32974243164063 91.43017578125 110.0051727294922 90.17364501953124 110.42401123046876 91.84906005859376 110.42401123046876 101.48275756835938 108.32974243164063 115.723876953125 105.39773559570313 129.12728881835938 102.46574401855467 140.01751708984375 100.3714599609375 145.462646484375 99.5337371826172 147.13812255859375 99.5337371826172 147.13812255859375 99.5337371826172 " />
        <polyline stroke="black" stroke-width="3" stroke-linecap="round" fill="transparent" stroke-linejoin="round" points="102.73934936523438 150.21536254882813 109.02215576171876 147.2833709716797 115.723876953125 143.93252563476563 134.99127197265625 136.3931121826172 145.88153076171875 134.71768188476563 153.0020751953125 134.71768188476563 155.09637451171875 135.13653564453125 158.0283203125 138.48739624023438 155.5152587890625 144.3513641357422 151.32666015625 148.12107849121094 120.331298828125 167.80731201171875 105.67132568359376 174.92788696289063 101.48275756835938 177.02215576171875 96.45648193359376 179.53530883789063 96.87533569335938 179.9541473388672 103.15817260742188 180.37301635742188 115.723876953125 179.53530883789063 127.87069702148438 178.2787322998047 138.34213256835938 176.1844482421875 147.55694580078125 170.73931884765625 147.55694580078125 170.73931884765625 " />
        <polyline stroke="black" stroke-width="3" stroke-linecap="round" fill="transparent" stroke-linejoin="round" points="136.247802734375 43.82586669921875 135.41009521484375 68.95724487304688 134.15353393554688 99.95262145996094 134.5723876953125 131.36685180664063 135.41009521484375 157.7547607421875 135.41009521484375 177.44102478027344 134.99127197265625 194.19528198242188 134.15353393554688 205.50439453125 133.31585693359375 209.27410888671875 131.640380859375 217.65121459960935 131.640380859375 217.65121459960935 " />
        </svg>