<?xml version="1.0" standalone="no"?>
    <svg width="256" height="256" xmlns="http://www.w3.org/2000/svg" version="1.1">
    <polyline stroke="black" stroke-width="3" stroke-linecap="round" fill="transparent" stroke-linejoin="round" points="78.80999755859375 70.87973022460938 79.55804443359375 81.35260009765625 79.93206787109375 85.0928955078125 80.30609130859375 91.07740783691406 80.30609130859375 92.57351684570313 80.30609130859375 92.57351684570313 " />
        <polyline stroke="black" stroke-width="3" stroke-linecap="round" fill="transparent" stroke-linejoin="round" points="99.38165283203124 48.811920166015625 104.61810302734376 47.3157958984375 116.5870361328125 44.69758605957031 133.79248046875 43.57549285888672 141.2730712890625 43.94952392578125 145.76144409179688 45.07161712646485 147.631591796875 46.94176483154297 148.005615234375 49.55998229980469 142.39520263671875 62.65106201171875 130.42620849609375 79.85647583007813 130.42620849609375 79.85647583007813 " />
        <polyline stroke="black" stroke-width="3" stroke-linecap="round" fill="transparent" stroke-linejoin="round" points="96.015380859375 90.32933044433594 100.87777709960938 86.96305847167969 115.46493530273438 79.48245239257813 124.06768798828124 77.23825073242188 124.06768798828124 77.23825073242188 " />
        <polyline stroke="black" stroke-width="3" stroke-linecap="round" fill="transparent" stroke-linejoin="round" points="64.22274780273438 137.0831756591797 63.100677490234375 138.57928466796875 62.35260009765625 140.07542419433594 61.60455322265625 141.197509765625 61.23052978515625 141.197509765625 61.60455322265625 140.82347106933594 66.0928955078125 136.70913696289063 78.80999755859375 126.98434448242188 87.41265869140625 120.99984741210938 115.09091186523438 107.16070556640624 132.29632568359375 103.42041015625 144.63934326171875 102.67234802246094 152.1199951171875 103.79443359375 153.9901123046875 104.54251098632813 155.86029052734375 106.4126434326172 147.631591796875 119.12969970703124 139.40292358398438 125.86224365234376 116.2130126953125 140.44944763183594 90.7789306640625 152.41842651367188 83.29833984375 154.66262817382813 81.05413818359375 155.03665161132813 81.05413818359375 154.66262817382813 88.53475952148438 150.92230224609375 96.389404296875 147.9300537109375 122.945556640625 138.95333862304688 137.53277587890625 134.09092712402344 144.26531982421875 130.7246551513672 152.1199951171875 125.86224365234376 152.1199951171875 125.86224365234376 " />
        <polyline stroke="black" stroke-width="3" stroke-linecap="round" fill="transparent" stroke-linejoin="round" points="106.86224365234376 36.094879150390625 107.23626708984376 45.07161712646485 108.732421875 66.017333984375 110.6025390625 89.955322265625 112.09869384765624 103.42041015625 115.8389892578125 132.96884155273438 119.57928466796876 163.63934326171875 121.823486328125 187.57733154296875 122.571533203125 206.65289306640625 122.945556640625 213.75946044921875 122.945556640625 213.75946044921875 " />
        </svg>