<?xml version="1.0" standalone="no"?>
    <svg width="256" height="256" xmlns="http://www.w3.org/2000/svg" version="1.1">
    <polyline stroke="black" stroke-width="3" stroke-linecap="round" fill="transparent" stroke-linejoin="round" points="81.62127685546875 80.00712585449219 85.32073974609375 85.3182373046875 89.610107421875 93.27531433105467 90.3677978515625 95.1161651611328 90.38232421875 95.15139770507813 90.38909912109376 95.16781616210938 " />
        <polyline stroke="black" stroke-width="3" stroke-linecap="round" fill="transparent" stroke-linejoin="round" points="109.35736083984376 55.03021240234375 119.2138671875 51.788352966308594 134.23202514648438 46.919883728027344 151.351318359375 45.295989990234375 162.8350830078125 45.87628173828125 164.5797119140625 47.37733459472656 165.21929931640625 48.09264373779297 165.3502197265625 48.30638122558594 165.35888671875 48.32057189941406 165.1109619140625 49.96107482910156 164.01873779296875 54.42266845703125 158.33270263671875 71.3614501953125 147.61642456054688 86.13787841796875 147.7569580078125 86.56051635742188 " />
        <polyline stroke="black" stroke-width="3" stroke-linecap="round" fill="transparent" stroke-linejoin="round" points="113.9737548828125 82.59379577636719 124.06475830078124 79.32635498046875 128.64340209960938 78.02778625488281 133.783935546875 76.973876953125 133.95025634765625 76.95155334472656 " />
        <polyline stroke="black" stroke-width="3" stroke-linecap="round" fill="transparent" stroke-linejoin="round" points="62.564178466796875 158.5068359375 64.65499877929688 163.10260009765625 65.213623046875 172.049560546875 65.10089111328125 173.91905212402344 " />
        <polyline stroke="black" stroke-width="3" stroke-linecap="round" fill="transparent" stroke-linejoin="round" points="87.53878784179688 123.00241088867188 93.41107177734376 119.10440063476563 118.37567138671876 108.95904541015624 132.06903076171875 104.29541015625 167.7738037109375 97.02764892578124 180.99066162109375 96.05130004882813 185.7840576171875 96.57536315917967 190.31365966796875 97.51699829101563 195.6234130859375 100.3970947265625 196.345458984375 101.66081237792967 196.35369873046875 101.67532348632813 196.35736083984375 101.68167114257813 195.964599609375 102.7127685546875 191.6439208984375 117.39166259765624 180.66131591796875 134.82542419433594 179.03759765625 136.0162353515625 " />
        <polyline stroke="black" stroke-width="3" stroke-linecap="round" fill="transparent" stroke-linejoin="round" points="94.00787353515624 152.39578247070313 108.083984375 151.64752197265625 119.67672729492188 151.17312622070313 129.116943359375 150.39401245117188 154.83392333984375 148.54876708984375 167.78033447265625 146.8985595703125 169.35540771484375 146.22988891601563 171.4552001953125 144.88021850585938 171.55499267578125 144.82530212402344 171.5772705078125 144.81304931640625 " />
        <polyline stroke="black" stroke-width="3" stroke-linecap="round" fill="transparent" stroke-linejoin="round" points="122.97323608398438 42.12785339355469 125.754150390625 57.760467529296875 128.45343017578125 94.46443176269533 129.19183349609375 114.0513153076172 128.27142333984375 149.9264373779297 127.73736572265624 164.32803344726563 127.21676635742188 193.85443115234375 127.46469116210938 206.8778381347656 127.88665771484376 232.9560546875 127.07000732421876 246.45025634765625 116.77899169921876 259.825927734375 115.74984741210938 261.1634826660156 " />
        </svg>