<?xml version="1.0" standalone="no"?>
    <svg width="256" height="256" xmlns="http://www.w3.org/2000/svg" version="1.1">
    <polyline stroke="black" stroke-width="3" stroke-linecap="round" fill="transparent" stroke-linejoin="round" points="84 43 85 43 82 84 67 144 57 181 56 186 56 187 56 187 " />
        <polyline stroke="black" stroke-width="3" stroke-linecap="round" fill="transparent" stroke-linejoin="round" points="73 86 88 71 108 49 138 38 159 72 171 149 180 184 189 189 200 169 204 158 206 153 " />
        <polyline stroke="black" stroke-width="3" stroke-linecap="round" fill="transparent" stroke-linejoin="round" points="122 77 116 95 112 114 114 122 130 122 149 120 152 164 149 197 137 211 120 188 119 184 " />
        </svg>