<?xml version="1.0" standalone="no"?>
    <svg width="256" height="256" xmlns="http://www.w3.org/2000/svg" version="1.1">
    <polyline stroke="black" stroke-width="3" stroke-linecap="round" fill="transparent" stroke-linejoin="round" points="100.50189208984376 30.293869018554688 99.841796875 42.83434295654297 82.02114868164063 106.5267333984375 77.73101806640625 118.73719787597656 64.530517578125 157.3486328125 56.940216064453125 179.45945739746094 51.990020751953125 189.02984619140625 51.329986572265625 191.66995239257813 51.329986572265625 191.66995239257813 51.329986572265625 191.66995239257813 " />
        <polyline stroke="black" stroke-width="3" stroke-linecap="round" fill="transparent" stroke-linejoin="round" points="86.97134399414063 76.16560363769531 95.22164916992188 72.2054443359375 124.59274291992188 62.96510314941406 129.212890625 62.30506896972656 139.7733154296875 62.63508605957031 147.0335693359375 66.26521301269531 152.97381591796875 76.16560363769531 155.6138916015625 89.69610595703125 156.9339599609375 114.7770538330078 159.57403564453125 152.0684356689453 162.87420654296875 169.88912963867188 172.44451904296875 195.30007934570313 178.05474853515625 201.9002990722656 181.3548583984375 203.5503845214844 190.59521484375 200.250244140625 195.87542724609375 188.039794921875 195.87542724609375 188.039794921875 " />
        <polyline stroke="black" stroke-width="3" stroke-linecap="round" fill="transparent" stroke-linejoin="round" points="116.012451171875 92.33619689941406 105.4520263671875 112.46696472167967 100.50189208984376 148.10829162597656 101.161865234375 155.3685760498047 101.82186889648438 159.65872192382813 103.47195434570313 162.9588623046875 107.10211181640624 162.9588623046875 116.67242431640624 158.0086669921875 125.582763671875 151.73841857910156 137.13323974609375 146.7882537841797 143.07342529296875 147.4482879638672 147.0335693359375 153.3885040283203 147.0335693359375 168.56906127929688 141.09335327148438 185.39971923828125 133.50308227539063 195.30007934570313 124.92279052734376 199.5902404785156 107.10211181640624 198.27017211914065 96.54168701171876 192.3299560546875 96.54168701171876 192.3299560546875 " />
        </svg>