<?xml version="1.0" standalone="no"?>
    <svg width="256" height="256" xmlns="http://www.w3.org/2000/svg" version="1.1">
    <polyline stroke="black" stroke-width="3" stroke-linecap="round" fill="transparent" stroke-linejoin="round" points="62.22039794921875 93.98626708984376 91.26150512695313 74.18551635742188 95.88168334960938 71.21540832519531 103.80194091796876 65.60520935058594 107.76214599609376 61.975067138671875 109.08218383789063 59.9949951171875 107.43209838867188 58.34492492675781 102.81195068359376 57.354888916015625 97.20172119140624 59.33497619628906 88.2913818359375 68.24530029296875 75.4208984375 86.39598083496094 61.23040771484375 110.81689453125 46.379791259765625 138.53793334960938 36.1494140625 159.98875427246094 33.179290771484375 166.25900268554688 33.179290771484375 167.9090576171875 41.099609375 161.30877685546875 51.660003662109375 148.768310546875 64.20046997070313 135.23782348632813 78.72103881835938 123.6873779296875 91.26150512695313 118.4071807861328 98.85174560546876 120.3872528076172 104.13198852539063 129.297607421875 105.12203979492188 146.7882537841797 101.161865234375 168.23904418945313 94.23162841796876 186.05972290039065 85.32125854492188 198.27017211914065 76.0809326171875 205.200439453125 68.8206787109375 206.19049072265625 64.20046997070313 201.9002990722656 64.20046997070313 201.9002990722656 64.20046997070313 201.9002990722656 " />
        <polyline stroke="black" stroke-width="3" stroke-linecap="round" fill="transparent" stroke-linejoin="round" points="129.54293823242188 92.33619689941406 140.433349609375 95.63633728027344 140.433349609375 95.63633728027344 140.433349609375 95.63633728027344 140.433349609375 95.63633728027344 " />
        <polyline stroke="black" stroke-width="3" stroke-linecap="round" fill="transparent" stroke-linejoin="round" points="170.79449462890625 88.7060546875 131.19302368164063 126.657470703125 124.59274291992188 132.2677001953125 111.39224243164063 142.4980926513672 107.76214599609376 146.1282501220703 107.76214599609376 148.10829162597656 116.67242431640624 147.4482879638672 135.15316772460938 141.50804138183594 157.26397705078125 130.94764709472656 181.68487548828125 116.09709167480467 194.8853759765625 106.19671630859376 194.8853759765625 106.19671630859376 194.8853759765625 106.19671630859376 " />
        <polyline stroke="black" stroke-width="3" stroke-linecap="round" fill="transparent" stroke-linejoin="round" points="159.57403564453125 78.14566040039063 145.383544921875 137.2178955078125 142.4134521484375 147.4482879638672 135.15316772460938 176.15936279296875 127.5628662109375 197.28012084960935 123.272705078125 208.50054931640625 120.63259887695313 212.46072387695313 119.31256103515624 212.79071044921875 119.31256103515624 212.79071044921875 119.31256103515624 212.79071044921875 " />
        <polyline stroke="black" stroke-width="3" stroke-linecap="round" fill="transparent" stroke-linejoin="round" points="153.9638671875 167.5790252685547 160.23406982421875 170.5491180419922 189.60516357421875 184.07965087890625 195.21539306640625 187.70977783203125 201.1556396484375 191.99993896484375 201.1556396484375 191.99993896484375 " />
        </svg>