<?xml version="1.0" standalone="no"?>
    <svg width="256" height="256" xmlns="http://www.w3.org/2000/svg" version="1.1">
    <polyline stroke="black" stroke-width="3" stroke-linecap="round" fill="transparent" stroke-linejoin="round" points="80.22479248046875 96.02789306640624 103.102294921875 92.10604858398438 105.71685791015624 91.452392578125 114.21429443359376 90.79875183105467 114.21429443359376 91.452392578125 113.56060791015624 91.452392578125 113.56060791015624 91.452392578125 " />
        <polyline stroke="black" stroke-width="3" stroke-linecap="round" fill="transparent" stroke-linejoin="round" points="82.83935546875 115.63719177246094 81.5321044921875 118.90542602539063 71.07379150390625 146.3584442138672 69.7664794921875 150.28030395507813 65.84466552734375 171.19688415527344 65.1910400390625 182.3088226318359 64.53729248046875 186.23068237304688 64.53729248046875 188.84527587890625 65.1910400390625 187.5379638671875 67.80560302734375 179.0406036376953 72.38104248046875 170.54324340820313 80.22479248046875 160.08494567871094 88.72210693359375 154.2021484375 95.258544921875 151.5875701904297 103.75592041015624 150.28030395507813 108.33148193359376 150.93394470214844 111.59967041015624 154.85581970214844 112.2532958984375 165.31411743164063 108.98504638671876 182.9624786376953 103.102294921875 194.07443237304688 99.8341064453125 198.64990234375 94.60498046875 202.57177734375 88.06854248046875 200.61083984375 91.3367919921875 190.80618286132813 93.29766845703124 187.5379638671875 93.29766845703124 187.5379638671875 " />
        <polyline stroke="black" stroke-width="3" stroke-linecap="round" fill="transparent" stroke-linejoin="round" points="141.667236328125 103.8716278076172 142.3209228515625 104.52525329589844 147.550048828125 107.79348754882813 148.85736083984375 107.79348754882813 155.39373779296875 105.1789093017578 169.12030029296875 96.68156433105467 178.9249267578125 88.83782958984375 182.8468017578125 85.56962585449219 186.11505126953125 83.60868835449219 186.11505126953125 85.56962585449219 180.8858642578125 95.374267578125 171.08123779296875 106.4862060546875 148.85736083984375 124.7882080078125 132.51629638671875 134.59288024902344 125.326171875 139.1683807373047 119.443359375 142.4365997314453 118.78973388671876 143.0902099609375 124.67254638671876 142.4365997314453 135.78448486328125 139.1683807373047 154.7401123046875 133.2855682373047 163.89111328125 129.36373901367188 186.11505126953125 116.94448852539063 199.84149169921875 105.1789093017578 205.72430419921875 97.33518981933594 205.72430419921875 97.33518981933594 " />
        <polyline stroke="black" stroke-width="3" stroke-linecap="round" fill="transparent" stroke-linejoin="round" points="158.6619873046875 94.72061157226563 157.35467529296875 100.60340881347656 148.85736083984375 147.0120849609375 147.550048828125 153.5485076904297 142.97454833984375 180.347900390625 139.05267333984375 194.07443237304688 137.09173583984375 200.61083984375 137.745361328125 201.91812133789065 139.706298828125 199.95721435546875 141.01361083984375 197.99630737304688 141.01361083984375 197.99630737304688 " />
        <polyline stroke="black" stroke-width="3" stroke-linecap="round" fill="transparent" stroke-linejoin="round" points="168.46661376953125 169.2359619140625 170.42755126953125 170.54324340820313 192.6513671875 191.4598388671875 195.26605224609375 194.07443237304688 205.07073974609375 201.91812133789065 215.5289306640625 210.41549682617188 215.5289306640625 210.41549682617188 " />
        </svg>