<?xml version="1.0" standalone="no"?>
    <svg width="256" height="256" xmlns="http://www.w3.org/2000/svg" version="1.1">
    <polyline stroke="black" stroke-width="3" stroke-linecap="round" fill="transparent" stroke-linejoin="round" points="49.0198974609375 122.36732482910156 54.300079345703125 120.0572509765625 80.37109375 110.48687744140624 85.32125854492188 108.83682250976563 99.841796875 104.21664428710938 110.07220458984376 99.92648315429688 117.33248901367188 95.96633911132813 120.63259887695313 93.32624816894533 120.63259887695313 93.32624816894533 120.63259887695313 93.32624816894533 " />
        <polyline stroke="black" stroke-width="3" stroke-linecap="round" fill="transparent" stroke-linejoin="round" points="84.001220703125 115.4370574951172 65.5205078125 158.3386993408203 51.660003662109375 189.02984619140625 47.699859619140625 195.30007934570313 49.349945068359375 193.98001098632813 51 192.65997314453125 59.580322265625 184.7396545410156 72.45077514648438 175.16932678222656 86.641357421875 167.5790252685547 98.52175903320313 164.60891723632813 105.4520263671875 165.5989532470703 109.7421875 168.56906127929688 111.72225952148438 175.16932678222656 106.44207763671876 193.6499938964844 96.54168701171876 210.48062133789065 85.65130615234375 220.38101196289065 78.06100463867188 224.34115600585935 71.1307373046875 222.361083984375 68.8206787109375 216.7508850097656 68.8206787109375 216.7508850097656 68.8206787109375 216.7508850097656 " />
        <polyline stroke="black" stroke-width="3" stroke-linecap="round" fill="transparent" stroke-linejoin="round" points="150.00369262695313 124.347412109375 150.66372680664063 126.657470703125 154.29388427734375 135.23782348632813 155.283935546875 136.2278594970703 158.583984375 137.87791442871094 164.52423095703125 138.2079315185547 176.73468017578125 133.58773803710938 186.965087890625 126.32746887207033 193.56536865234375 122.36732482910156 198.51556396484375 121.37728881835938 200.49560546875 122.36732482910156 200.49560546875 125.33743286132813 193.89532470703125 135.8978271484375 179.37481689453125 149.7583770751953 161.8841552734375 163.2888641357422 145.383544921875 172.52923583984375 137.46322631835938 177.47938537597656 135.483154296875 179.45945739746094 135.81317138671875 180.11947631835938 139.44329833984375 180.11947631835938 153.9638671875 176.48934936523438 172.44451904296875 169.2290802001953 193.56536865234375 153.3885040283203 209.40594482421875 137.5478973388672 213.69610595703125 133.91775512695313 213.69610595703125 133.91775512695313 " />
        <polyline stroke="black" stroke-width="3" stroke-linecap="round" fill="transparent" stroke-linejoin="round" points="179.37481689453125 128.30755615234375 176.73468017578125 136.557861328125 159.24407958984375 174.1792755126953 154.95391845703125 181.4395446777344 142.74343872070313 201.9002990722656 133.17303466796875 216.09085083007813 127.23284912109376 223.68112182617188 124.92279052734376 225.99124145507813 123.93270874023438 225.99124145507813 123.93270874023438 225.99124145507813 " />
        <polyline stroke="black" stroke-width="3" stroke-linecap="round" fill="transparent" stroke-linejoin="round" points="161.8841552734375 195.9600830078125 164.52423095703125 196.95013427734375 180.36480712890625 203.88037109375 183.66497802734375 205.200439453125 199.175537109375 213.45074462890625 207.755859375 220.05099487304688 207.755859375 220.05099487304688 207.755859375 220.05099487304688 " />
        </svg>