<?xml version="1.0" standalone="no"?>
    <svg width="256" height="256" xmlns="http://www.w3.org/2000/svg" version="1.1">
    <polyline stroke="black" stroke-width="3" stroke-linecap="round" fill="transparent" stroke-linejoin="round" points="73.66323852539065 66.64422607421875 97.02923583984376 61.8018798828125 120.39523315429688 56.95953369140625 132.86322021484375 55.048370361328125 149.896728515625 52.047149658203125 155.84954833984375 50.56413269042969 161.2581787109375 49.519012451171875 161.408935546875 49.50453186035156 161.43817138671875 49.50172424316406 161.44158935546875 49.50139617919922 " />
        <polyline stroke="black" stroke-width="3" stroke-linecap="round" fill="transparent" stroke-linejoin="round" points="89.39138793945315 110.50726318359375 103.21307373046876 111.71043395996094 117.03475952148438 112.91360473632813 122.49835205078124 110.62161254882813 133.55419921875 98.10369873046876 138.20394897460938 91.69937133789063 137.81503295898438 91.06668090820313 " />
        <polyline stroke="black" stroke-width="3" stroke-linecap="round" fill="transparent" stroke-linejoin="round" points="190.3687744140625 62.19329833984375 179.3162841796875 73.10635375976563 168.2637939453125 84.0194091796875 156.380859375 95.27015686035156 140.51611328125 108.20884704589844 136.752685546875 111.02140808105467 " />
        <polyline stroke="black" stroke-width="3" stroke-linecap="round" fill="transparent" stroke-linejoin="round" points="77.71185302734375 138.00575256347656 88.24508666992188 135.63449096679688 98.7783203125 133.2632293701172 109.71456909179688 129.81747436523438 133.2667236328125 120.98814392089844 143.479248046875 116.8030242919922 160.90576171875 111.11187744140624 167.9061279296875 109.35874938964844 174.26171875 108.243896484375 174.53167724609375 108.20138549804688 174.5550537109375 108.19769287109376 174.56103515625 108.19674682617188 " />
        <polyline stroke="black" stroke-width="3" stroke-linecap="round" fill="transparent" stroke-linejoin="round" points="136.24676513671875 106.93853759765628 137.98406982421875 126.5037078857422 139.72137451171875 146.06887817382813 140.47509765625 163.69107055664063 140.84271240234375 177.75621032714844 140.3995361328125 202.47796630859375 140.15576171875 212.09469604492188 138.94271850585938 228.98941040039065 139.0069580078125 229.79202270507813 " />
        <polyline stroke="black" stroke-width="3" stroke-linecap="round" fill="transparent" stroke-linejoin="round" points="106.74234008789063 185.23764038085938 112.806640625 192.13360595703125 118.87094116210938 199.02957153320313 119.56234741210938 199.8638610839844 " />
        <polyline stroke="black" stroke-width="3" stroke-linecap="round" fill="transparent" stroke-linejoin="round" points="173.7283935546875 162.3401947021484 166.09454345703125 172.9960174560547 158.460693359375 183.65184020996097 135.80072021484375 209.53225708007813 125.537841796875 220.17572021484375 125.43475341796876 219.75241088867188 " />
        <polyline stroke="black" stroke-width="3" stroke-linecap="round" fill="transparent" stroke-linejoin="round" points="84.18780517578124 228.62734985351563 95.6572265625 227.42013549804688 107.12664794921876 226.21292114257813 119.68011474609376 225.04254150390625 148.76409912109375 222.60662841796875 165.37518310546875 221.4454345703125 189.246826171875 220.61883544921875 206.23663330078125 223.0879821777344 205.48431396484375 225.380615234375 201.611572265625 225.762451171875 " />
        </svg>