<?xml version="1.0" standalone="no"?>
    <svg width="256" height="256" xmlns="http://www.w3.org/2000/svg" version="1.1">
    <polyline stroke="black" stroke-width="3" stroke-linecap="round" fill="transparent" stroke-linejoin="round" points="61.57373046875 63.295166015625 70.8543701171875 63.289642333984375 80.135009765625 63.28411865234375 107.947509765625 60.9466552734375 120.593994140625 59.46331787109375 136.552001953125 57.843505859375 151.248291015625 59.489654541015625 152.4234619140625 60.810577392578125 152.69476318359375 65.18446350097656 150.89511108398438 75.63929748535156 149.33334350585938 84.7032470703125 135.80722045898438 104.5413055419922 132.16366577148438 106.99339294433594 " />
        <polyline stroke="black" stroke-width="3" stroke-linecap="round" fill="transparent" stroke-linejoin="round" points="76.44772338867188 122.67913818359372 93.25949096679688 121.23600769042967 110.07125854492188 119.79287719726563 124.75973510742188 120.0986328125 130.40020751953125 120.65121459960938 140.36865234375 120.86746215820313 141.365478515625 120.88908386230467 141.456298828125 120.89105224609376 " />
        <polyline stroke="black" stroke-width="3" stroke-linecap="round" fill="transparent" stroke-linejoin="round" points="64.5882568359375 120.5540771484375 62.49066162109375 129.50827026367188 60.39306640625 138.46246337890625 58.543182373046875 148.86093139648438 57.33203125 160.9468231201172 57.40789794921875 184.41357421875 62.46484375 204.62203979492188 68.013916015625 211.94195556640625 78.52047729492188 219.07766723632813 84.114501953125 221.07327270507813 115.71408081054688 224.296142578125 125.59896850585938 222.76104736328125 149.02294921875 217.0501708984375 159.1781005859375 214.041015625 168.15936279296875 207.40374755859375 182.043701171875 189.23849487304688 189.203369140625 165.1068572998047 184.67767333984375 112.63494873046876 181.58612060546875 102.46769714355467 " />
        </svg>