<?xml version="1.0" standalone="no"?>
    <svg width="256" height="256" xmlns="http://www.w3.org/2000/svg" version="1.1">
    <polyline stroke="black" stroke-width="3" stroke-linecap="round" fill="transparent" stroke-linejoin="round" points="86.84027099609375 78.79212951660156 97.4464111328125 74.18075561523438 104.82464599609376 71.87506103515625 122.80902099609376 66.34140014648438 132.492919921875 63.5745849609375 151.39959716796875 60.80775451660156 164.31146240234375 60.34661865234375 170.767333984375 60.80775451660156 173.07305908203125 61.73002624511719 171.68963623046875 65.41912841796875 157.85546875 79.25326538085938 128.80380249023438 100.4656219482422 108.51373291015624 112.45523071289063 97.4464111328125 118.4499969482422 93.296142578125 120.75570678710938 92.83505249023438 120.75570678710938 98.36865234375 119.37229919433594 112.66400146484376 115.2220458984375 128.80380249023438 111.53292846679688 140.79339599609375 108.76609802246094 142.17681884765625 108.3049774169922 141.2545166015625 109.22723388671876 134.33746337890625 115.2220458984375 121.88671875 125.82821655273438 115.89193725585938 131.82302856445313 103.44125366210938 152.1130828857422 102.98007202148438 165.486083984375 108.974853515625 175.631103515625 123.2701416015625 184.39276123046875 146.3270263671875 187.6207275390625 167.0782470703125 183.93161010742188 183.67919921875 176.09225463867188 200.28021240234375 159.49130249023438 215.49774169921875 133.2064208984375 215.49774169921875 133.2064208984375 " />
        </svg>