<?xml version="1.0" standalone="no"?>
    <svg width="256" height="256" xmlns="http://www.w3.org/2000/svg" version="1.1">
    <polyline stroke="black" stroke-width="3" stroke-linecap="round" fill="transparent" stroke-linejoin="round" points="64.56137084960938 59.47688293457031 65.09527587890625 74.960205078125 65.09527587890625 126.74923706054688 61.357940673828125 157.7158660888672 58.15447998046875 179.07217407226563 56.552764892578125 189.2164001464844 56.552764892578125 193.4876708984375 58.15447998046875 194.0215759277344 58.15447998046875 194.0215759277344 " />
        <polyline stroke="black" stroke-width="3" stroke-linecap="round" fill="transparent" stroke-linejoin="round" points="109.94354248046876 86.17225646972656 110.4774169921875 101.65557861328124 109.94354248046876 113.40155029296876 108.87570190429688 127.28314208984376 108.341796875 139.0290985107422 108.87570190429688 147.0377197265625 111.0113525390625 151.84288024902344 116.88433837890624 154.51242065429688 125.96075439453124 153.44461059570313 137.70672607421875 149.17335510253906 150.5205078125 142.76646423339844 161.1986083984375 135.291748046875 172.944580078125 123.01188659667967 172.944580078125 123.01188659667967 " />
        <polyline stroke="black" stroke-width="3" stroke-linecap="round" fill="transparent" stroke-linejoin="round" points="175.6141357421875 89.90960693359375 172.944580078125 101.12167358398438 171.3428955078125 109.6641845703125 169.207275390625 121.41015625 166.5377197265625 132.62220764160156 161.7325439453125 141.69863891601563 161.7325439453125 141.69863891601563 " />
        <polyline stroke="black" stroke-width="3" stroke-linecap="round" fill="transparent" stroke-linejoin="round" points="148.38485717773438 34.917137145996094 148.38485717773438 46.66310119628906 147.31704711914063 73.89237976074219 144.64752197265625 108.59637451171876 140.91015625 141.69863891601563 136.10498046875 173.73309326171875 131.2998046875 200.96237182617188 125.42681884765624 222.85260009765625 125.42681884765624 222.85260009765625 " />
        </svg>