<?xml version="1.0" standalone="no"?>
    <svg width="256" height="256" xmlns="http://www.w3.org/2000/svg" version="1.1">
    <polyline stroke="black" stroke-width="3" stroke-linecap="round" fill="transparent" stroke-linejoin="round" points="86.237548828125 48.95745849609375 85.16839599609375 81.56791687011719 81.96078491210938 116.31675720214844 79.28778076171875 144.6504364013672 74.4764404296875 178.330078125 72.87261962890625 194.36801147460935 71.80343627929688 205.59457397460935 71.80343627929688 210.9405517578125 76.0802001953125 209.33676147460935 76.0802001953125 209.33676147460935 " />
        <polyline stroke="black" stroke-width="3" stroke-linecap="round" fill="transparent" stroke-linejoin="round" points="126.3323974609375 90.65606689453124 122.5902099609375 108.29779052734376 119.917236328125 120.05894470214844 117.24423217773438 131.82008361816406 115.64044189453124 139.83905029296875 115.64044189453124 145.18502807617188 118.31341552734376 148.39260864257813 124.19400024414063 150.531005859375 134.35134887695313 149.9964141845703 148.25091552734375 146.788818359375 164.288818359375 141.97744750976563 178.72296142578125 137.1660614013672 189.4149169921875 130.21629333496094 189.4149169921875 130.21629333496094 " />
        <polyline stroke="black" stroke-width="3" stroke-linecap="round" fill="transparent" stroke-linejoin="round" points="192.087890625 85.84469604492188 188.88031005859375 101.88262939453124 187.2764892578125 113.1091766357422 184.603515625 122.73193359375 181.39593505859375 129.1470947265625 181.39593505859375 129.1470947265625 " />
        <polyline stroke="black" stroke-width="3" stroke-linecap="round" fill="transparent" stroke-linejoin="round" points="161.08123779296875 51.095848083496094 161.6158447265625 84.77549743652344 158.40826416015625 117.92054748535156 153.59686279296875 143.04664611816406 145.04330444335938 172.98410034179688 134.35134887695313 202.92156982421875 134.35134887695313 202.92156982421875 " />
        </svg>