<?xml version="1.0" standalone="no"?>
    <svg width="256" height="256" xmlns="http://www.w3.org/2000/svg" version="1.1">
    <polyline stroke="black" stroke-width="3" stroke-linecap="round" fill="transparent" stroke-linejoin="round" points="81.33331298828125 72.66667175292969 79.5555419921875 97.55557250976563 79.5555419921875 111.7777862548828 79.5555419921875 137.55557250976563 80.4444580078125 159.7777862548828 81.33331298828125 166.00003051757813 81.33331298828125 170.44447326660156 81.33331298828125 174 81.33331298828125 174 " />
        <polyline stroke="black" stroke-width="3" stroke-linecap="round" fill="transparent" stroke-linejoin="round" points="124 82.44444274902344 118.66668701171876 103.77780151367188 119.5555419921875 106.4444580078125 121.33331298828124 108.22224426269533 135.55560302734375 108.22224426269533 154.22222900390625 102.88888549804688 172 97.55557250976563 180.888916015625 95.7777862548828 188.888916015625 94 194.22222900390625 92.22224426269533 197.77777099609375 89.55555725097656 199.5555419921875 85.11111450195313 199.5555419921875 85.11111450195313 " />
        <polyline stroke="black" stroke-width="3" stroke-linecap="round" fill="transparent" stroke-linejoin="round" points="203.11114501953125 58.44444274902344 204 86 205.77777099609375 92.22224426269533 205.77777099609375 93.11111450195313 205.77777099609375 94 205.77777099609375 94 " />
        <polyline stroke="black" stroke-width="3" stroke-linecap="round" fill="transparent" stroke-linejoin="round" points="155.11114501953125 38.88890075683594 160.4444580078125 70.00001525878906 163.11114501953125 84.22222900390625 167.5555419921875 129.55555725097656 164.888916015625 160.6666717529297 153.3333740234375 200.66665649414065 145.33331298828125 218.4444580078125 134.66668701171875 226.4444580078125 134.66668701171875 226.4444580078125 " />
        </svg>