<?xml version="1.0" standalone="no"?>
    <svg width="256" height="256" xmlns="http://www.w3.org/2000/svg" version="1.1">
    <polyline stroke="black" stroke-width="3" stroke-linecap="round" fill="transparent" stroke-linejoin="round" points="95 95 94 95 94 96 94 103 94 121 95 145 97 168 99 190 100 200 101 203 101 210 102 213 103 212 103 212 " />
        <polyline stroke="black" stroke-width="3" stroke-linecap="round" fill="transparent" stroke-linejoin="round" points="125 114 124 112 124 116 124 125 124 136 124 145 124 153 124 156 124 157 125 159 125 160 127 160 132 160 139 158 148 156 155 153 161 151 164 150 166 148 166 147 166 147 " />
        <polyline stroke="black" stroke-width="3" stroke-linecap="round" fill="transparent" stroke-linejoin="round" points="174 120 173 121 173 122 173 125 173 127 172 133 172 135 170 143 169 150 169 154 168 155 168 155 " />
        <polyline stroke="black" stroke-width="3" stroke-linecap="round" fill="transparent" stroke-linejoin="round" points="155 97 154 99 154 107 154 122 152 143 150 160 149 165 145 185 138 201 130 214 128 216 128 216 " />
        </svg>