<?xml version="1.0" standalone="no"?>
    <svg width="256" height="256" xmlns="http://www.w3.org/2000/svg" version="1.1">
    <polyline stroke="black" stroke-width="3" stroke-linecap="round" fill="transparent" stroke-linejoin="round" points="94.23162841796876 66.26521301269531 91.26150512695313 86.39598083496094 89.61141967773438 94.97630310058594 79.05105590820313 141.50804138183594 72.78082275390625 161.9687957763672 72.12075805664063 162.62884521484375 71.1307373046875 162.62884521484375 71.1307373046875 162.62884521484375 " />
        <polyline stroke="black" stroke-width="3" stroke-linecap="round" fill="transparent" stroke-linejoin="round" points="60.240325927734375 79.46571350097656 66.51058959960938 70.55537414550781 70.470703125 66.26521301269531 95.22164916992188 44.814422607421875 100.50189208984376 42.17431640625 115.02239990234376 37.224143981933594 125.91278076171876 38.21417236328125 132.18304443359375 43.49437713623047 134.8231201171875 51.08466339111328 133.17303466796875 64.94517517089844 128.55288696289063 77.1556396484375 123.272705078125 85.40594482421875 119.642578125 91.0161590576172 117.99252319335938 93.65625 117.99252319335938 94.64630126953124 120.962646484375 94.3162841796875 133.83309936523438 93.32624816894533 150.66372680664063 93.32624816894533 163.8642578125 97.286376953125 173.4345703125 107.84678649902344 179.37481689453125 123.6873779296875 180.69482421875 140.51800537109375 178.05474853515625 153.3885040283203 172.11456298828125 160.978759765625 161.8841552734375 167.2490234375 149.013671875 170.879150390625 132.84304809570313 171.5391845703125 126.57281494140624 171.8691864013672 126.57281494140624 171.8691864013672 " />
        <polyline stroke="black" stroke-width="3" stroke-linecap="round" fill="transparent" stroke-linejoin="round" points="38.129486083984375 194.6400451660156 45.389801025390625 193.32000732421875 48.689910888671875 193.32000732421875 76.740966796875 191.00991821289065 84.33123779296875 190.01986694335935 109.41217041015624 188.039794921875 136.47320556640625 186.38970947265625 162.54412841796875 185.39971923828125 183.00494384765625 184.7396545410156 193.89532470703125 184.40966796875 198.51556396484375 185.39971923828125 199.175537109375 186.05972290039065 199.175537109375 186.05972290039065 199.175537109375 186.05972290039065 " />
        </svg>