<?xml version="1.0" standalone="no"?>
    <svg width="256" height="256" xmlns="http://www.w3.org/2000/svg" version="1.1">
    <polyline stroke="black" stroke-width="3" stroke-linecap="round" fill="transparent" stroke-linejoin="round" points="86 89 87 85 87 86 87 93 87 106 87 117 86 121 86 134 86 142 86 142 " />
        <polyline stroke="black" stroke-width="3" stroke-linecap="round" fill="transparent" stroke-linejoin="round" points="128 79 127 83 127 93 126 105 126 110 125 118 125 134 125 144 125 145 125 145 " />
        <polyline stroke="black" stroke-width="3" stroke-linecap="round" fill="transparent" stroke-linejoin="round" points="171 37 171 34 171 38 170 64 168 84 165 131 163 170 163 193 162 206 162 211 162 211 " />
        </svg>