<?xml version="1.0" standalone="no"?>
    <svg width="256" height="256" xmlns="http://www.w3.org/2000/svg" version="1.1">
    <polyline stroke="black" stroke-width="3" stroke-linecap="round" fill="transparent" stroke-linejoin="round" points="51.63128662109375 132.250244140625 59.35821533203125 119.76823425292967 67.6795654296875 109.66375732421876 79.56719970703125 98.37051391601563 93.83233642578124 87.67166137695313 109.2862548828125 78.75593566894531 123.5513916015625 71.02899169921875 134.250244140625 64.49079895019531 140.19403076171875 61.518890380859375 140.19403076171875 61.518890380859375 " />
        <polyline stroke="black" stroke-width="3" stroke-linecap="round" fill="transparent" stroke-linejoin="round" points="56.386322021484375 160.78053283691406 67.6795654296875 151.8648223876953 76.59527587890625 145.92100524902344 89.0772705078125 139.97718811035156 103.3424072265625 133.43899536132813 117.01318359375 125.11766052246094 125.92889404296876 116.2019500732422 125.92889404296876 116.2019500732422 " />
        <polyline stroke="black" stroke-width="3" stroke-linecap="round" fill="transparent" stroke-linejoin="round" points="112.25811767578124 93.61546325683594 108.09747314453124 104.90870666503906 104.53118896484376 119.17385864257813 99.776123046875 141.16595458984375 95.615478515625 166.72434997558594 94.42669677734376 183.36700439453125 95.02108764648438 193.47149658203125 97.99298095703124 198.22653198242188 97.99298095703124 198.22653198242188 " />
        <polyline stroke="black" stroke-width="3" stroke-linecap="round" fill="transparent" stroke-linejoin="round" points="164.56365966796875 41.30992889404297 153.27044677734375 57.952606201171875 137.22213745117188 87.0772705078125 130.6839599609375 102.53118896484376 130.6839599609375 102.53118896484376 " />
        <polyline stroke="black" stroke-width="3" stroke-linecap="round" fill="transparent" stroke-linejoin="round" points="160.99737548828125 74.59527587890625 171.10186767578125 66.86831665039063 181.20635986328125 59.735748291015625 192.49957275390625 53.19755554199219 202.60406494140625 47.848121643066406 210.3310546875 43.68745422363281 216.86920166015625 41.90431213378906 216.86920166015625 41.90431213378906 " />
        <polyline stroke="black" stroke-width="3" stroke-linecap="round" fill="transparent" stroke-linejoin="round" points="150.29852294921875 101.34242248535156 142.57159423828125 115.60757446289063 138.410888671875 128.6839599609375 134.8446044921875 141.7603302001953 133.06146240234375 151.2704315185547 134.8446044921875 156.61985778808594 141.3828125 157.80862426757813 153.27044677734375 156.02548217773438 164.56365966796875 151.8648223876953 177.045654296875 146.515380859375 190.1220703125 138.78843688964844 200.8209228515625 130.46710205078125 213.30291748046875 119.17385864257813 213.30291748046875 119.17385864257813 " />
        <polyline stroke="black" stroke-width="3" stroke-linecap="round" fill="transparent" stroke-linejoin="round" points="213.30291748046875 110.25813293457033 212.70855712890625 122.74014282226563 212.70855712890625 129.87271118164063 210.9254150390625 136.41090393066406 210.9254150390625 141.7603302001953 210.9254150390625 141.7603302001953 " />
        <polyline stroke="black" stroke-width="3" stroke-linecap="round" fill="transparent" stroke-linejoin="round" points="193.093994140625 82.32223510742188 188.93328857421875 101.93679809570313 182.3951416015625 122.74014282226563 172.885009765625 151.8648223876953 163.96929931640625 178.017578125 158.619873046875 198.22653198242188 153.27044677734375 216.65234375 153.27044677734375 216.65234375 " />
        </svg>