<?xml version="1.0" standalone="no"?>
    <svg width="256" height="256" xmlns="http://www.w3.org/2000/svg" version="1.1">
    <polyline stroke="black" stroke-width="3" stroke-linecap="round" fill="transparent" stroke-linejoin="round" points="33.3402099609375 97.8792724609375 46.86297607421875 91.96310424804688 54.892059326171875 89.00498962402344 73.063232421875 82.24362182617188 82.360107421875 78.86294555664063 97.99578857421876 72.524169921875 112.3636474609375 66.18537902832031 117.0120849609375 64.91763305664063 117.85726928710938 64.91763305664063 117.85726928710938 64.91763305664063 " />
        <polyline stroke="black" stroke-width="3" stroke-linecap="round" fill="transparent" stroke-linejoin="round" points="25.31109619140625 146.89915466308594 40.946746826171875 142.67332458496094 57.85015869140625 137.17971801757813 67.14706420898438 133.79904174804688 84.4730224609375 127.03765869140624 100.953857421875 120.69888305664063 105.602294921875 118.58596801757813 105.602294921875 118.58596801757813 " />
        <polyline stroke="black" stroke-width="3" stroke-linecap="round" fill="transparent" stroke-linejoin="round" points="67.14706420898438 110.97943115234376 66.72445678710938 135.06680297851563 67.56964111328125 157.88638305664063 69.68255615234375 178.5930633544922 71.79550170898438 192.96096801757813 72.21807861328125 198.87713623046875 72.640625 199.29974365234375 72.640625 199.29974365234375 " />
        <polyline stroke="black" stroke-width="3" stroke-linecap="round" fill="transparent" stroke-linejoin="round" points="146.59307861328125 49.28196716308594 139.40911865234375 62.80470275878906 134.76068115234375 71.25640869140625 130.53485107421875 79.2855224609375 125.88641357421876 87.31463623046875 113.63143920898438 105.90841674804688 108.1378173828125 113.5149383544922 104.33456420898438 117.74078369140624 102.64422607421876 119.43112182617188 102.22161865234376 119.00852966308594 105.1796875 116.4730224609375 114.899169921875 109.711669921875 130.53485107421875 100.83738708496094 147.86080932617188 92.80825805664063 163.07391357421875 87.31463623046875 169.83526611328125 84.77912902832031 180.82244873046875 81.39845275878906 187.1612548828125 80.13069152832031 190.11932373046875 80.13069152832031 190.11932373046875 80.13069152832031 " />
        <polyline stroke="black" stroke-width="3" stroke-linecap="round" fill="transparent" stroke-linejoin="round" points="141.09945678710938 124.07955932617188 137.71875 136.7571258544922 136.87362670898438 140.98297119140625 136.45101928710938 144.3636474609375 136.45101928710938 149.85726928710938 137.29620361328125 153.23794555664063 139.83172607421875 154.92828369140625 148.28338623046875 154.50570678710938 160.53839111328125 150.7024383544922 166.45458984375 148.1669158935547 179.5546875 142.25071716308594 184.625732421875 140.1378173828125 185.89349365234375 139.29263305664063 187.1612548828125 138.44744873046875 187.1612548828125 138.44744873046875 " />
        <polyline stroke="black" stroke-width="3" stroke-linecap="round" fill="transparent" stroke-linejoin="round" points="190.11932373046875 118.1633758544922 189.274169921875 132.1086883544922 189.274169921875 137.602294921875 188.8515625 141.82815551757813 187.1612548828125 147.74432373046875 185.89349365234375 149.0120849609375 185.89349365234375 149.0120849609375 " />
        <polyline stroke="black" stroke-width="3" stroke-linecap="round" fill="transparent" stroke-linejoin="round" points="165.18682861328125 102.5277099609375 162.65130615234375 113.5149383544922 160.53839111328125 124.07955932617188 152.50927734375 160.42190551757813 143.21237182617188 187.04476928710935 135.6058349609375 202.680419921875 135.6058349609375 202.680419921875 " />
        </svg>