<?xml version="1.0" standalone="no"?>
    <svg width="256" height="256" xmlns="http://www.w3.org/2000/svg" version="1.1">
    <polyline stroke="black" stroke-width="3" stroke-linecap="round" fill="transparent" stroke-linejoin="round" points="53.923187255859375 94.89190673828124 72.08270263671875 89.7598876953125 83.13632202148438 86.60169982910156 94.18994140625 83.04873657226563 106.03314208984376 80.28533935546875 125.771728515625 75.54806518554688 140.3782958984375 72.78466796875 147.87899780273438 72.389892578125 149.45806884765625 73.57421875 149.45806884765625 73.57421875 " />
        <polyline stroke="black" stroke-width="3" stroke-linecap="round" fill="transparent" stroke-linejoin="round" points="59.84478759765625 144.63320922851563 74.05657958984375 143.4488983154297 82.34677124023438 142.6593475341797 91.03173828125 141.08026123046875 110.3756103515625 135.94822692871094 127.350830078125 130.0266571044922 139.5887451171875 123.31552124023438 143.93124389648438 119.3677978515625 143.93124389648438 119.3677978515625 " />
        <polyline stroke="black" stroke-width="3" stroke-linecap="round" fill="transparent" stroke-linejoin="round" points="113.92855834960938 81.86442565917969 108.4017333984375 97.6553192138672 105.24359130859376 109.49847412109376 101.69061279296876 122.52597045898438 98.532470703125 135.94822692871094 92.61083984375 159.63455200195313 88.26837158203125 178.5836181640625 85.50497436523438 192.00588989257813 84.71542358398438 201.08563232421875 84.71542358398438 201.08563232421875 " />
        <polyline stroke="black" stroke-width="3" stroke-linecap="round" fill="transparent" stroke-linejoin="round" points="176.3026123046875 52.25651550292969 166.03851318359375 77.12716674804688 159.327392578125 90.54940795898438 151.82666015625 103.576904296875 136.82537841796875 126.07891845703124 120.6396484375 148.9757080078125 120.6396484375 148.9757080078125 " />
        <polyline stroke="black" stroke-width="3" stroke-linecap="round" fill="transparent" stroke-linejoin="round" points="165.24896240234375 97.6553192138672 199.9888916015625 85.81214904785156 216.5693359375 82.65399169921875 222.88568115234375 81.86442565917969 233.9393310546875 81.46966552734375 233.9393310546875 81.46966552734375 " />
        <polyline stroke="black" stroke-width="3" stroke-linecap="round" fill="transparent" stroke-linejoin="round" points="180.25030517578125 108.31417846679688 174.3287353515625 121.34165954589844 171.9600830078125 127.65802001953124 169.1966552734375 133.974365234375 166.82806396484375 140.29071044921875 162.48553466796875 152.92343139648438 159.327392578125 167.13522338867188 159.72216796875 173.0568084716797 161.69598388671875 176.21499633789063 166.82806396484375 178.1888427734375 176.3026123046875 177.3992919921875 185.38232421875 173.8463592529297 192.48822021484375 168.71432495117188 195.64642333984375 165.95091247558594 203.5418701171875 155.29205322265625 208.2791748046875 146.60708618164063 212.226806640625 139.10641479492188 213.805908203125 136.34300231933594 216.174560546875 132.7900390625 218.543212890625 131.21096801757813 220.122314453125 133.57958984375 222.49090576171875 141.8697967529297 224.46478271484375 153.31820678710938 225.25433349609375 162.003173828125 225.64910888671875 164.76658630371094 225.64910888671875 164.76658630371094 " />
        <polyline stroke="black" stroke-width="3" stroke-linecap="round" fill="transparent" stroke-linejoin="round" points="224.07000732421875 111.47233581542967 220.122314453125 120.15733337402344 216.5693359375 128.4475555419922 207.4896240234375 148.5809326171875 197.62030029296875 169.10910034179688 181.4345703125 198.32223510742188 169.1966552734375 219.24517822265625 169.1966552734375 219.24517822265625 " />
        </svg>