<?xml version="1.0" standalone="no"?>
    <svg width="256" height="256" xmlns="http://www.w3.org/2000/svg" version="1.1">
    <polyline stroke="black" stroke-width="3" stroke-linecap="round" fill="transparent" stroke-linejoin="round" points="50.75250244140625 84.04867553710938 70.54940795898438 73.14866638183594 82.255859375 67.37348937988281 94.58670043945313 63.36726379394531 104.86236572265624 60.97395324707031 109.544921875 60.3236083984375 114.12347412109376 62.0145263671875 117.03707885742188 64.85009765625 114.7998046875 75.64605712890625 111.78216552734376 89.3035888671875 105.2005615234375 101.58236694335938 97.162109375 110.7914581298828 89.8260498046875 115.89027404785156 86.2620849609375 117.789306640625 83.66064453125 117.9974365234375 80.14871215820313 116.07235717773438 76.3245849609375 112.14419555664063 74.50360107421875 107.53965759277344 74.50360107421875 107.53965759277344 " />
        <polyline stroke="black" stroke-width="3" stroke-linecap="round" fill="transparent" stroke-linejoin="round" points="78.69195556640625 87.66468811035156 77.98953247070313 99.52723693847656 77.36520385742188 109.43869018554688 75.28402709960938 124.26687622070313 74.73776245117188 140.47381591796875 75.15396118164063 163.1063232421875 76.480712890625 183.0853576660156 76.71481323242188 196.846923828125 75.64822387695313 202.7782287597656 74.841796875 206.10806274414065 76.79290771484375 203.79278564453125 79.42034912109375 199.94268798828125 79.42034912109375 199.94268798828125 " />
        <polyline stroke="black" stroke-width="3" stroke-linecap="round" fill="transparent" stroke-linejoin="round" points="131.68316650390625 80.87492370605469 141.33447265625 76.37445068359375 152.85888671875 71.09353637695313 166.9586181640625 65.8126220703125 176.76611328125 61.93647766113281 182.28106689453125 59.647216796875 184.62237548828125 58.996856689453125 187.3018798828125 59.10090637207031 188.8887939453125 59.829315185546875 190.1634521484375 61.23408508300781 190.7357177734375 63.731475830078125 188.83673095703125 68.72622680664063 186.677490234375 73.59092712402344 184.232177734375 79.18399047851563 182.6712646484375 85.89570617675781 180.85028076171875 92.76350402832033 179.83575439453125 99.0069580078125 178.14483642578125 104.8081512451172 176.06365966796875 109.6208038330078 174.24267578125 114.84970092773438 171.2509765625 120.18264770507813 169.66412353515625 123.2523193359375 168.1292724609375 125.90579223632813 166.77655029296875 127.62274169921876 166.230224609375 128.16903686523438 165.60595703125 128.5852813720703 165.60595703125 128.5852813720703 " />
        <polyline stroke="black" stroke-width="3" stroke-linecap="round" fill="transparent" stroke-linejoin="round" points="150.54354858398438 83.26826477050781 149.55502319335938 93.3358154296875 147.13568115234375 103.76756286621094 140.73617553710938 117.34706115722656 136.65191650390625 124.16282653808594 132.67172241210938 130.17214965820313 128.17123413085938 135.140869140625 123.82681274414063 139.19911193847656 121.25140380859376 141.8525848388672 119.06619262695313 144.3499755859375 117.66140747070313 146.09295654296875 116.90701293945313 147.13351440429688 116.334716796875 147.86190795898438 116.28268432617188 147.93994140625 115.4241943359375 149.05856323242188 115.55426025390624 149.4227752685547 116.6468505859375 149.9170379638672 118.05169677734376 149.7349395751953 122.94232177734376 147.18553161621094 128.50942993164063 144.19387817382813 134.83090209960938 141.48837280273438 142.036865234375 138.13253784179688 149.68511962890625 135.45306396484375 157.51544189453125 132.2532958984375 164.95556640625 129.417724609375 172.91595458984375 126.11390686035156 178.613037109375 123.512451171875 183.13958740234375 121.53538513183594 189.1749267578125 119.662353515625 194.66387939453125 118.51771545410156 197.91571044921875 117.9974365234375 202.7283935546875 117.63322448730467 204.60137939453125 117.5291748046875 206.65655517578125 117.6072235107422 208.34747314453125 117.89338684082033 209.83026123046875 118.4396514892578 211.0789794921875 119.2981414794922 212.63983154296875 121.119140625 211.62530517578125 126.55613708496094 211.2611083984375 132.045166015625 209.70025634765625 139.17312622070313 207.95733642578125 152.9607391357422 204.8355712890625 168.17913818359375 203.58685302734375 183.44952392578125 199.710693359375 199.1622314453125 197.88970947265625 210.60855102539065 196.6929931640625 216.01953125 195.62646484375 220.18185424804688 194.84600830078125 223.04342651367188 194.2476806640625 225.04653930664065 193.5452880859375 226.76348876953125 192.712890625 228.168212890625 191.3341064453125 229.39089965820313 188.18634033203125 230.61358642578125 181.65673828125 227.2577209472656 176.1417236328125 223.92788696289065 167.869140625 217.9706115722656 158.34783935546875 210.7906494140625 150.82974243164063 203.58465576171875 142.973388671875 194.401611328125 135.273193359375 183.86578369140625 135.273193359375 183.86578369140625 " />
        </svg>