<?xml version="1.0" standalone="no"?>
    <svg width="256" height="256" xmlns="http://www.w3.org/2000/svg" version="1.1">
    <polyline stroke="black" stroke-width="3" stroke-linecap="round" fill="transparent" stroke-linejoin="round" points="48.957611083984375 92.58360290527344 58.609954833984375 81.25260925292969 71.61959838867188 70.34127807617188 78.33428955078125 65.72494506835938 85.46859741210938 61.108612060546875 99.73724365234376 53.97428894042969 106.0322265625 51.45628356933594 111.4879150390625 49.777618408203125 125.3369140625 48.51861572265625 131.21224975585938 51.03661346435547 135.40890502929688 57.33161926269531 136.66790771484375 70.76094055175781 134.569580078125 85.02960205078125 131.21224975585938 97.61959838867188 127.01556396484376 106.85226440429688 124.917236328125 110.62925720214844 119.04193115234376 117.76359558105467 117.36325073242188 119.0225830078125 112.32723999023438 120.28160095214844 111.0682373046875 120.28160095214844 111.0682373046875 120.28160095214844 " />
        <polyline stroke="black" stroke-width="3" stroke-linecap="round" fill="transparent" stroke-linejoin="round" points="95.96026611328124 79.15426635742188 95.54061889648438 94.68194580078124 93.4422607421875 111.88827514648438 92.18328857421876 122.79959106445313 88.825927734375 145.88125610351563 83.37030029296875 185.74957275390625 82.53094482421875 191.6249084472656 81.69158935546875 199.17889404296875 81.69158935546875 199.17889404296875 " />
        <polyline stroke="black" stroke-width="3" stroke-linecap="round" fill="transparent" stroke-linejoin="round" points="136.66790771484375 69.92161560058594 144.64157104492188 62.78727722167969 153.034912109375 56.911956787109375 169.40191650390625 47.67928314208984 194.1622314453125 42.64329528808594 201.29656982421875 46.00062561035156 205.912841796875 53.55461883544922 208.01123046875 67.40361022949219 204.2342529296875 83.35093688964844 197.099853515625 95.10159301757813 189.126220703125 102.65560913085938 189.126220703125 102.65560913085938 " />
        <polyline stroke="black" stroke-width="3" stroke-linecap="round" fill="transparent" stroke-linejoin="round" points="161.42822265625 66.56428527832031 159.3299560546875 77.47561645507813 157.6512451171875 85.44927978515625 153.874267578125 100.97695922851563 149.67758178710938 113.5669403076172 146.73992919921875 121.54058837890624 145.06124877929688 126.15692138671876 144.64157104492188 128.6749267578125 145.48089599609375 129.51425170898438 152.195556640625 128.2552490234375 168.1429443359375 123.63894653320313 185.3492431640625 120.28160095214844 197.939208984375 121.12094116210938 207.591552734375 125.73724365234376 214.30621337890625 134.96994018554688 218.08319091796875 149.6582489013672 218.08319091796875 163.0875701904297 214.72589111328125 172.3202362060547 208.8505859375 178.195556640625 197.939208984375 182.8118896484375 181.152587890625 182.8118896484375 163.52655029296875 179.03489685058594 163.52655029296875 179.03489685058594 " />
        </svg>