<?xml version="1.0" standalone="no"?>
    <svg width="256" height="256" xmlns="http://www.w3.org/2000/svg" version="1.1">
    <polyline stroke="black" stroke-width="3" stroke-linecap="round" fill="transparent" stroke-linejoin="round" points="57.146331787109375 76.95741271972656 72.021728515625 65.38768005371094 82.48956298828125 59.32734680175781 94.05926513671876 53.26701354980469 105.07806396484376 50.51231384277344 114.9949951171875 51.063255310058594 127.11566162109376 60.98016357421875 130.42129516601563 73.100830078125 129.870361328125 87.9761962890625 126.0137939453125 101.74967956542967 120.50439453125 112.217529296875 107.28182983398438 122.13444519042967 107.28182983398438 122.13444519042967 " />
        <polyline stroke="black" stroke-width="3" stroke-linecap="round" fill="transparent" stroke-linejoin="round" points="78.63299560546875 67.5914306640625 78.08203125 86.32337951660156 76.42922973632813 118.27786254882813 73.67453002929688 145.82484436035156 67.61419677734375 192.103759765625 65.96136474609375 212.48849487304688 69.26702880859375 212.48849487304688 69.26702880859375 212.48849487304688 " />
        <polyline stroke="black" stroke-width="3" stroke-linecap="round" fill="transparent" stroke-linejoin="round" points="147.50042724609375 59.32734680175781 157.96826171875 57.674530029296875 175.04736328125 55.47076416015625 186.61712646484375 54.919830322265625 195.43212890625 55.47076416015625 201.492431640625 56.57264709472656 205.9000244140625 59.32734680175781 208.6546630859375 63.73486328125 195.98309326171875 108.3609619140625 189.371826171875 118.27786254882813 189.371826171875 118.27786254882813 " />
        <polyline stroke="black" stroke-width="3" stroke-linecap="round" fill="transparent" stroke-linejoin="round" points="168.987060546875 75.30459594726563 162.92669677734375 89.62901306152344 156.86639404296875 102.8515625 151.35699462890625 116.6250457763672 147.50042724609375 127.0928955078125 145.84759521484375 133.15322875976563 145.84759521484375 137.5607452392578 146.949462890625 139.76449584960938 150.8060302734375 138.66262817382813 156.86639404296875 135.35699462890625 166.7833251953125 128.74571228027344 178.9039306640625 121.03256225585938 190.47369384765625 116.07411193847656 198.18682861328125 113.87034606933594 204.798095703125 113.87034606933594 210.85845947265625 117.1759796142578 215.2659912109375 124.88914489746094 215.2659912109375 173.92274475097656 210.85845947265625 188.79812622070313 206.450927734375 197.06219482421875 198.18682861328125 205.87722778320313 192.67742919921875 205.87722778320313 186.61712646484375 202.57159423828125 176.7001953125 195.40939331054688 170.639892578125 191.0018615722656 170.639892578125 191.0018615722656 " />
        </svg>