<?xml version="1.0" standalone="no"?>
    <svg width="256" height="256" xmlns="http://www.w3.org/2000/svg" version="1.1">
    <polyline stroke="black" stroke-width="3" stroke-linecap="round" fill="transparent" stroke-linejoin="round" points="74.84930419921875 83.38418579101563 95.765869140625 78.80870056152344 99.03411865234376 78.80870056152344 126.48712158203124 79.46232604980469 130.408935546875 78.80870056152344 145.4427490234375 74.23318481445313 160.4765625 68.35038757324219 165.70574951171875 65.73582458496094 165.70574951171875 65.73582458496094 " />
        <polyline stroke="black" stroke-width="3" stroke-linecap="round" fill="transparent" stroke-linejoin="round" points="138.90631103515625 40.89735412597656 123.21893310546876 49.394737243652344 101.64862060546876 85.34513854980469 96.41949462890624 96.45704650878906 87.922119140625 116.06634521484376 80.73211669921875 130.44650268554688 76.15655517578125 139.59751892089844 73.5419921875 142.86572265625 75.5029296875 141.55845642089844 75.5029296875 141.55845642089844 " />
        <polyline stroke="black" stroke-width="3" stroke-linecap="round" fill="transparent" stroke-linejoin="round" points="101.64862060546876 97.11068725585938 118.64337158203124 95.80340576171876 121.25799560546876 96.45704650878906 138.90631103515625 102.99348449707033 144.78912353515625 105.60806274414063 156.5546875 109.5299072265625 165.70574951171875 114.7590789794922 167.6666259765625 119.98820495605467 167.6666259765625 119.98820495605467 " />
        <polyline stroke="black" stroke-width="3" stroke-linecap="round" fill="transparent" stroke-linejoin="round" points="94.45855712890624 137.6365966796875 121.25799560546876 136.98294067382813 123.87249755859376 136.98294067382813 129.1016845703125 144.1730194091797 125.83343505859376 150.05581665039063 117.33612060546876 164.4359588623047 108.8387451171875 178.1624755859375 102.9559326171875 189.2744140625 100.3414306640625 199.73272705078125 101.64862060546876 204.96185302734375 108.8387451171875 212.80560302734375 117.98974609375 217.38107299804688 129.75537109375 219.34201049804688 144.13543701171875 217.38107299804688 151.97918701171875 214.11285400390625 157.2083740234375 210.8446350097656 158.515625 206.2691345214844 157.2083740234375 200.3863220214844 154.59375 195.81085205078125 154.59375 195.15719604492188 154.59375 195.15719604492188 " />
        </svg>