<?xml version="1.0" standalone="no"?>
    <svg width="256" height="256" xmlns="http://www.w3.org/2000/svg" version="1.1">
    <polyline stroke="black" stroke-width="3" stroke-linecap="round" fill="transparent" stroke-linejoin="round" points="73.89642333984375 82.32223510742188 82.21774291992188 76.37841796875 92.9166259765625 69.245849609375 107.1817626953125 62.11326599121094 124.4188232421875 56.169464111328125 141.65585327148438 52.603172302246094 156.515380859375 53.79193878173828 166.619873046875 57.952606201171875 174.3468017578125 67.46270751953125 179.69622802734375 91.23794555664063 179.10186767578125 118.5794677734375 175.53558349609375 139.97718811035156 168.99737548828125 158.9973907470703 163.64794921875 169.10186767578125 157.70416259765625 175.04568481445313 149.9771728515625 179.2063446044922 139.87271118164063 179.80072021484375 132.145751953125 176.82882690429688 126.79632568359376 165.53558349609375 126.79632568359376 165.53558349609375 " />
        <polyline stroke="black" stroke-width="3" stroke-linecap="round" fill="transparent" stroke-linejoin="round" points="115.50311279296876 80.53907775878906 112.53118896484376 90.64356994628906 109.55926513671876 101.34242248535156 105.39862060546876 115.60757446289063 98.86041259765624 133.43899536132813 89.9447021484375 150.0816650390625 81.62335205078125 161.37490844726563 73.89642333984375 167.3187255859375 67.35821533203125 169.10186767578125 67.35821533203125 169.10186767578125 " />
        <polyline stroke="black" stroke-width="3" stroke-linecap="round" fill="transparent" stroke-linejoin="round" points="50.715545654296875 111.4468994140625 67.95260620117188 112.04127502441406 84.59527587890625 113.82443237304688 110.748046875 118.5794677734375 135.7120361328125 125.71205139160156 158.29852294921875 132.84461975097656 177.3187255859375 139.97718811035156 193.96142578125 147.10977172851563 206.443359375 151.8648223876953 213.575927734375 154.8367156982422 218.9254150390625 157.80862426757813 223.0860595703125 163.75244140625 223.0860595703125 163.75244140625 " />
        </svg>