<?xml version="1.0" standalone="no"?>
    <svg width="256" height="256" xmlns="http://www.w3.org/2000/svg" version="1.1">
    <polyline stroke="black" stroke-width="3" stroke-linecap="round" fill="transparent" stroke-linejoin="round" points="87.05377197265625 57.59843444824219 90.39950561523438 77.11514282226563 92.0723876953125 96.07424926757813 92.6300048828125 109.45713806152344 92.0723876953125 118.37905883789063 90.9571533203125 121.72477722167967 90.9571533203125 121.72477722167967 " />
        <polyline stroke="black" stroke-width="3" stroke-linecap="round" fill="transparent" stroke-linejoin="round" points="96.5333251953125 59.27128601074219 104.89764404296876 53.13746643066406 117.165283203125 47.003639221191406 133.3363037109375 41.98505401611328 148.94964599609375 39.19695281982422 162.33251953125 39.75457763671875 171.2545166015625 43.657920837402344 176.2730712890625 49.23412322998047 177.3883056640625 61.50177001953125 168.46636962890625 81.57611083984375 150.06488037109375 103.88093566894533 150.06488037109375 103.88093566894533 " />
        <polyline stroke="black" stroke-width="3" stroke-linecap="round" fill="transparent" stroke-linejoin="round" points="98.76382446289063 94.40138244628906 107.68572998046876 85.47944641113281 117.722900390625 81.01849365234375 131.10580444335938 75.99990844726563 146.71917724609375 72.0965576171875 160.65966796875 71.5389404296875 167.35113525390625 72.0965576171875 170.1392822265625 77.67276000976563 170.1392822265625 77.67276000976563 " />
        <polyline stroke="black" stroke-width="3" stroke-linecap="round" fill="transparent" stroke-linejoin="round" points="84.26568603515625 128.97384643554688 92.6300048828125 125.0705108642578 103.78240966796876 120.05192565917967 119.39578247070313 113.9180908203125 135.0091552734375 108.89950561523438 146.71917724609375 106.66903686523438 152.85302734375 106.66903686523438 155.08349609375 112.8028564453125 155.08349609375 112.8028564453125 " />
        <polyline stroke="black" stroke-width="3" stroke-linecap="round" fill="transparent" stroke-linejoin="round" points="69.767578125 168.5648956298828 81.47760009765625 162.9886932373047 97.0909423828125 156.85487365722656 123.85675048828124 147.93295288085938 139.4700927734375 144.58721923828125 153.96826171875 142.91436767578125 160.65966796875 144.02960205078125 160.65966796875 144.02960205078125 " />
        <polyline stroke="black" stroke-width="3" stroke-linecap="round" fill="transparent" stroke-linejoin="round" points="45.23223876953125 197.5611572265625 64.74896240234375 190.3121032714844 95.9757080078125 179.15969848632813 118.838134765625 173.02586364746094 140.02774047851563 170.79537963867188 157.31396484375 169.68014526367188 170.6968994140625 169.12252807617188 177.3883056640625 167.4496612548828 177.3883056640625 167.4496612548828 " />
        <polyline stroke="black" stroke-width="3" stroke-linecap="round" fill="transparent" stroke-linejoin="round" points="124.97198486328124 155.73963928222656 118.280517578125 186.96636962890625 112.146728515625 213.73214721679688 109.91622924804688 229.34552001953125 106.57049560546876 239.3826904296875 106.57049560546876 239.3826904296875 " />
        </svg>