<?xml version="1.0" standalone="no"?>
    <svg width="256" height="256" xmlns="http://www.w3.org/2000/svg" version="1.1">
    <polyline stroke="black" stroke-width="3" stroke-linecap="round" fill="transparent" stroke-linejoin="round" points="93.80010986328124 80.26667785644531 99.1334228515625 105.86669921875 104.466796875 122.93336486816406 106.60003662109376 127.20001220703124 107.666748046875 130.40003967285156 107.666748046875 130.40003967285156 " />
        <polyline stroke="black" stroke-width="3" stroke-linecap="round" fill="transparent" stroke-linejoin="round" points="105.53338623046876 61.066680908203125 124.7333984375 53.600006103515625 134.3333740234375 51.46668243408203 151.4000244140625 47.20001983642578 157.8001708984375 46.13334655761719 162.0667724609375 46.13334655761719 164.2000732421875 49.333343505859375 164.2000732421875 55.73333740234375 164.2000732421875 72.80000305175781 165.2667236328125 92.00001525878906 169.533447265625 106.933349609375 171.666748046875 112.26667785644533 171.666748046875 116.53335571289063 171.666748046875 116.53335571289063 " />
        <polyline stroke="black" stroke-width="3" stroke-linecap="round" fill="transparent" stroke-linejoin="round" points="109.80010986328124 94.1333465576172 138.60009765625 88.80000305175781 147.1334228515625 88.80000305175781 149.2667236328125 95.20002746582033 149.2667236328125 95.20002746582033 " />
        <polyline stroke="black" stroke-width="3" stroke-linecap="round" fill="transparent" stroke-linejoin="round" points="119.4000244140625 115.4666748046875 143.933349609375 112.26667785644533 152.466796875 112.26667785644533 156.7333984375 113.33334350585938 156.7333984375 113.33334350585938 " />
        <polyline stroke="black" stroke-width="3" stroke-linecap="round" fill="transparent" stroke-linejoin="round" points="99.1334228515625 149.6000213623047 138.60009765625 140.00001525878906 150.3333740234375 137.86668395996094 158.86669921875 136.80001831054688 167.4000244140625 135.73338317871094 167.4000244140625 138.93336486816406 167.4000244140625 138.93336486816406 " />
        <polyline stroke="black" stroke-width="3" stroke-linecap="round" fill="transparent" stroke-linejoin="round" points="71.4000244140625 185.86666870117188 113.00006103515624 173.06671142578125 133.2667236328125 168.80001831054688 153.533447265625 165.6000213623047 202.60009765625 161.33334350585938 218.60009765625 161.33334350585938 222.86669921875 162.40003967285156 222.86669921875 164.53334045410156 218.60009765625 166.6666717529297 218.60009765625 166.6666717529297 " />
        <polyline stroke="black" stroke-width="3" stroke-linecap="round" fill="transparent" stroke-linejoin="round" points="140.7333984375 147.4666748046875 149.2667236328125 190.13336181640625 151.4000244140625 200.80001831054688 152.466796875 218.933349609375 153.533447265625 228.53335571289065 155.666748046875 233.86666870117188 155.666748046875 233.86666870117188 " />
        </svg>