<?xml version="1.0" standalone="no"?>
    <svg width="256" height="256" xmlns="http://www.w3.org/2000/svg" version="1.1">
    <polyline stroke="black" stroke-width="3" stroke-linecap="round" fill="transparent" stroke-linejoin="round" points="54 91 55 91 58 91 62 90 67 88 75 85 81 82 87 78 93 75 99 72 105 69 108 69 110 69 " />
        <polyline stroke="black" stroke-width="3" stroke-linecap="round" fill="transparent" stroke-linejoin="round" points="66 118 66 118 64 120 64 122 65 123 69 124 72 123 77 123 82 121 87 120 92 118 98 114 103 110 106 108 108 106 " />
        <polyline stroke="black" stroke-width="3" stroke-linecap="round" fill="transparent" stroke-linejoin="round" points="88 93 86 97 85 102 85 109 85 121 86 130 86 140 86 149 87 157 88 165 90 171 92 173 94 174 " />
        <polyline stroke="black" stroke-width="3" stroke-linecap="round" fill="transparent" stroke-linejoin="round" points="135 84 135 84 134 87 133 92 130 99 126 108 123 117 119 127 115 137 111 150 109 154 107 160 107 164 107 164 " />
        <polyline stroke="black" stroke-width="3" stroke-linecap="round" fill="transparent" stroke-linejoin="round" points="120 125 120 125 127 125 132 126 137 128 141 131 145 133 148 135 151 137 154 139 157 140 161 139 163 137 " />
        <polyline stroke="black" stroke-width="3" stroke-linecap="round" fill="transparent" stroke-linejoin="round" points="170 70 169 71 167 75 163 86 160 96 156 107 152 118 149 129 146 139 143 148 141 154 139 159 138 162 138 162 138 162 " />
        <polyline stroke="black" stroke-width="3" stroke-linecap="round" fill="transparent" stroke-linejoin="round" points="151 122 153 121 161 122 167 124 172 128 178 133 183 138 187 145 191 153 195 162 198 167 " />
        </svg>