<?xml version="1.0" standalone="no"?>
    <svg width="256" height="256" xmlns="http://www.w3.org/2000/svg" version="1.1">
    <polyline stroke="black" stroke-width="3" stroke-linecap="round" fill="transparent" stroke-linejoin="round" points="64.24267578125 61.87535095214844 67.561767578125 72.43606567382813 69.3721923828125 78.77249145507813 73.29470825195313 93.2557373046875 75.4068603515625 102.30778503417967 77.21725463867188 112.86848449707033 78.4241943359375 122.52401733398438 78.7259521484375 134.29164123535156 78.7259521484375 145.75753784179688 77.82073974609375 155.111328125 76.91552734375 163.8616485595703 75.70858764648438 171.7067413330078 74.50164794921875 178.3448944091797 73.59646606445313 183.17263793945313 72.99298095703125 187.09518432617188 72.69122314453125 190.112548828125 72.38949584960938 192.52642822265625 72.0877685546875 194.33685302734375 72.0877685546875 195.84548950195313 71.78604125976563 197.35415649414065 71.48431396484375 198.5611267089844 71.18255615234375 199.76803588867188 70.880859375 200.6732482910156 70.27737426757813 201.57846069335935 69.97564697265625 202.483642578125 69.97564697265625 202.483642578125 " />
        <polyline stroke="black" stroke-width="3" stroke-linecap="round" fill="transparent" stroke-linejoin="round" points="97.7352294921875 68.51350402832031 107.69244384765624 61.271881103515625 115.83929443359376 56.444122314453125 123.98611450195313 51.918113708496094 132.7364501953125 47.995567321777344 141.48672485351563 44.374755859375 162.608154296875 37.13312530517578 168.34112548828125 35.02098083496094 172.86712646484375 33.21056365966797 176.78973388671875 31.701889038085938 179.8070068359375 30.494956970214844 182.8243408203125 29.589744567871097 185.53997802734375 28.684547424316406 187.953857421875 28.38282012939453 190.36773681640625 28.38282012939453 192.7816162109375 28.684547424316406 194.59197998046875 29.28802490234375 196.40240478515625 30.494956970214844 198.21282958984375 32.60710144042969 200.92840576171875 37.13312530517578 203.64404296875 44.374755859375 206.35968017578125 53.728515625 208.7735595703125 66.70310974121094 210.88568115234375 82.393310546875 212.3944091796875 100.19564819335938 213.90301513671875 118.60145568847656 214.5064697265625 137.91246032714844 213.90301513671875 154.50787353515625 212.696044921875 169.2928466796875 211.4891357421875 180.75875854492188 209.98046875 191.01776123046875 208.7735595703125 199.16458129882813 207.56658935546875 205.50100708007813 206.661376953125 209.72528076171875 206.05792236328125 212.74261474609375 205.7562255859375 214.55303955078125 205.4544677734375 215.75997924804688 205.1527099609375 216.66519165039065 204.8509521484375 217.2686767578125 204.54925537109375 217.2686767578125 203.64404296875 216.66519165039065 201.23016357421875 213.6478271484375 194.89373779296875 202.785400390625 194.89373779296875 202.785400390625 " />
        <polyline stroke="black" stroke-width="3" stroke-linecap="round" fill="transparent" stroke-linejoin="round" points="159.59075927734375 67.00485229492188 153.25439453125 79.97941589355469 149.935302734375 87.2210693359375 146.6162109375 95.066162109375 142.99539184570313 103.81646728515624 139.37457275390625 111.96330261230467 135.75375366210938 119.20492553710938 132.43466186523438 125.54135131835938 129.4173583984375 130.97256469726563 126.4000244140625 136.10206604003906 123.98611450195313 140.32635498046875 121.57223510742188 143.34368896484375 119.15838623046876 146.05931091308594 116.4427490234375 148.17144775390625 116.4427490234375 148.17144775390625 " />
        <polyline stroke="black" stroke-width="3" stroke-linecap="round" fill="transparent" stroke-linejoin="round" points="119.46011352539063 109.2476806640625 130.32257080078125 113.17022705078124 136.96072387695313 115.58412170410156 143.90060424804688 118.29971313476563 150.23703002929688 120.71360778808594 155.969970703125 122.82574462890624 160.7977294921875 124.63615417480467 165.62548828125 126.44656372070313 169.54803466796875 127.95523071289063 172.86712646484375 129.16213989257813 175.58270263671875 130.06736755371094 177.69488525390625 130.67083740234375 179.5052490234375 131.2742919921875 180.7122802734375 131.87777709960938 180.7122802734375 131.87777709960938 " />
        <polyline stroke="black" stroke-width="3" stroke-linecap="round" fill="transparent" stroke-linejoin="round" points="107.69244384765624 191.6212158203125 115.53756713867188 190.112548828125 121.57223510742188 189.20733642578125 128.21038818359375 188.6038818359375 136.96072387695313 188.3021545410156 144.80581665039063 188.0003967285156 153.55609130859375 187.69866943359375 162.00469970703125 187.39694213867188 170.7550048828125 187.39694213867188 177.99664306640625 187.09518432617188 185.23828125 186.49172973632813 190.97119140625 185.88824462890625 195.49725341796875 185.2847900390625 199.4197998046875 184.68130493164065 202.1353759765625 184.07785034179688 203.94580078125 183.77609252929688 204.8509521484375 183.47439575195313 205.4544677734375 183.47439575195313 205.4544677734375 183.47439575195313 " />
        </svg>