<?xml version="1.0" standalone="no"?>
    <svg width="256" height="256" xmlns="http://www.w3.org/2000/svg" version="1.1">
    <polyline stroke="black" stroke-width="3" stroke-linecap="round" fill="transparent" stroke-linejoin="round" points="67.71624755859375 67.28717041015625 67.71624755859375 94.6920166015625 64.6712646484375 139.75775146484375 63.453277587890625 173.2525634765625 61.01727294921875 203.0933837890625 61.01727294921875 218.31829833984375 61.62628173828125 225.62625122070313 62.844268798828125 227.4532470703125 67.10723876953125 219.53628540039065 67.10723876953125 219.53628540039065 " />
        <polyline stroke="black" stroke-width="3" stroke-linecap="round" fill="transparent" stroke-linejoin="round" points="78.06918334960938 82.5120849609375 84.76812744140625 73.98614501953125 93.903076171875 64.8511962890625 107.301025390625 55.71624755859375 122.52593994140624 47.799293518066406 138.96881103515625 42.92732238769531 156.6297607421875 41.10032653808594 173.681640625 43.53631591796875 188.90655517578125 50.844268798828125 201.08642578125 66.06918334960938 213.8753662109375 95.30101013183594 219.96533203125 127.57781982421876 218.74737548828125 157.4186553955078 212.65740966796875 182.38751220703125 204.1314697265625 203.702392578125 193.77850341796875 218.31829833984375 184.0345458984375 226.2352600097656 169.41864013671875 231.7162170410156 156.020751953125 228.67123413085935 156.020751953125 228.67123413085935 " />
        <polyline stroke="black" stroke-width="3" stroke-linecap="round" fill="transparent" stroke-linejoin="round" points="135.923828125 73.37713623046875 132.87884521484375 94.6920166015625 121.91693115234376 124.5328369140625 111.56399536132813 145.84771728515625 100.60205078125 163.5086212158203 90.85809326171876 175.68853759765625 83.5501708984375 181.1695098876953 83.5501708984375 181.1695098876953 " />
        <polyline stroke="black" stroke-width="3" stroke-linecap="round" fill="transparent" stroke-linejoin="round" points="86.59515380859375 118.44287109375 98.77508544921876 117.83387756347656 113.99996948242188 117.22488403320313 135.923828125 119.0518798828125 153.584716796875 121.48785400390624 170.63665771484375 126.35983276367188 182.81658935546875 134.8857879638672 190.12451171875 148.28370666503906 190.12451171875 148.28370666503906 " />
        <polyline stroke="black" stroke-width="3" stroke-linecap="round" fill="transparent" stroke-linejoin="round" points="78.06918334960938 231.10720825195313 96.94805908203124 227.4532470703125 109.73699951171876 225.62625122070313 125.5709228515625 225.01724243164065 142.622802734375 224.40826416015625 164.54669189453125 224.40826416015625 182.81658935546875 226.2352600097656 199.259521484375 234.76119995117188 199.259521484375 234.76119995117188 " />
        </svg>