<?xml version="1.0" standalone="no"?>
    <svg width="256" height="256" xmlns="http://www.w3.org/2000/svg" version="1.1">
    <polyline stroke="black" stroke-width="3" stroke-linecap="round" fill="transparent" stroke-linejoin="round" points="65.958740234375 57.6043701171875 62.898193359375 93.71905517578124 61.6739501953125 125.5489501953125 61.6739501953125 159.82730102539063 62.28607177734375 183.08761596679688 62.28607177734375 199.0025634765625 63.51031494140625 210.6327209472656 64.73452758789063 215.52963256835935 66.57086181640625 212.46905517578125 66.57086181640625 212.46905517578125 " />
        <polyline stroke="black" stroke-width="3" stroke-linecap="round" fill="transparent" stroke-linejoin="round" points="65.958740234375 78.41622924804688 80.037353515625 69.84663391113281 92.8917236328125 64.94973754882813 112.4793701171875 61.27705383300781 135.73968505859375 59.440704345703125 159.612060546875 61.27705383300781 177.9754638671875 65.56184387207031 194.5025634765625 74.13143920898438 205.5206298828125 87.59793090820313 212.865966796875 112.08245849609376 213.47802734375 140.85179138183594 209.1932373046875 165.33631896972656 201.847900390625 186.76028442382813 194.5025634765625 201.45101928710935 188.38140869140625 209.40847778320313 188.38140869140625 209.40847778320313 " />
        <polyline stroke="black" stroke-width="3" stroke-linecap="round" fill="transparent" stroke-linejoin="round" points="146.14559936523438 89.43426513671875 138.1881103515625 105.96133422851563 129.6185302734375 121.87628173828124 119.21261596679688 141.46389770507813 108.80670166015624 159.21519470214844 100.23712158203124 172.6816864013672 94.115966796875 180.02703857421875 94.115966796875 180.02703857421875 " />
        <polyline stroke="black" stroke-width="3" stroke-linecap="round" fill="transparent" stroke-linejoin="round" points="89.21905517578125 129.833740234375 102.07342529296876 134.11854553222656 116.15203857421876 138.40333557128906 134.51544189453125 143.3002471923828 159.612060546875 150.0334930419922 175.52703857421875 154.93038940429688 187.769287109375 159.82730102539063 187.769287109375 159.82730102539063 " />
        <polyline stroke="black" stroke-width="3" stroke-linecap="round" fill="transparent" stroke-linejoin="round" points="61.06182861328125 225.935546875 73.30410766601563 222.87496948242188 88.60693359375 219.81442260742188 108.194580078125 216.1417236328125 126.5579833984375 213.6932678222656 148.59405517578125 210.6327209472656 166.95745849609375 208.79635620117188 181.648193359375 207.5721435546875 193.89044189453125 210.6327209472656 193.89044189453125 210.6327209472656 " />
        </svg>