<?xml version="1.0" standalone="no"?>
    <svg width="256" height="256" xmlns="http://www.w3.org/2000/svg" version="1.1">
    <polyline stroke="black" stroke-width="3" stroke-linecap="round" fill="transparent" stroke-linejoin="round" points="74.34197998046875 67.92123413085938 70.42010498046875 85.56962585449219 70.42010498046875 90.79875183105467 65.1910400390625 146.3584442138672 64.53729248046875 154.2021484375 64.53729248046875 181.0015411376953 64.53729248046875 199.95721435546875 65.1910400390625 209.10821533203125 67.80560302734375 207.14727783203125 71.72747802734375 197.99630737304688 71.72747802734375 197.99630737304688 " />
        <polyline stroke="black" stroke-width="3" stroke-linecap="round" fill="transparent" stroke-linejoin="round" points="74.99566650390625 82.3013916015625 95.9122314453125 62.03843688964844 98.52679443359376 60.73118591308594 122.0579833984375 55.50199890136719 133.8236083984375 53.54107666015625 149.510986328125 53.54107666015625 161.27655029296875 56.155670166015625 178.27130126953125 67.26760864257813 188.07598876953125 83.60868835449219 192.6513671875 110.40806579589844 193.95867919921875 143.74388122558594 193.30511474609375 181.6551971435547 191.34417724609375 200.61083984375 184.154052734375 212.37643432617188 174.34942626953125 214.33737182617188 166.5057373046875 211.7227783203125 157.35467529296875 201.26449584960935 153.43280029296875 188.84527587890625 153.43280029296875 188.84527587890625 " />
        <polyline stroke="black" stroke-width="3" stroke-linecap="round" fill="transparent" stroke-linejoin="round" points="104.40960693359376 113.67626953125 107.6778564453125 133.939208984375 107.6778564453125 135.24649047851563 107.6778564453125 140.4756317138672 107.6778564453125 135.24649047851563 108.33148193359376 133.939208984375 111.59967041015624 124.1345672607422 118.78973388671876 112.36898803710938 126.63348388671876 107.79348754882813 135.78448486328125 107.13983154296876 143.628173828125 109.7544403076172 146.24273681640625 112.36898803710938 146.89642333984375 125.4418487548828 139.05267333984375 136.5537872314453 122.71160888671876 147.0120849609375 110.946044921875 150.28030395507813 101.7950439453125 150.93394470214844 96.56585693359376 150.28030395507813 96.56585693359376 150.28030395507813 103.75592041015624 151.5875701904297 115.52154541015624 153.5485076904297 133.16986083984375 157.47036743164063 137.745361328125 158.77769470214844 137.745361328125 158.77769470214844 " />
        </svg>