<?xml version="1.0" standalone="no"?>
    <svg width="256" height="256" xmlns="http://www.w3.org/2000/svg" version="1.1">
    <polyline stroke="black" stroke-width="3" stroke-linecap="round" fill="transparent" stroke-linejoin="round" points="55.62017822265625 62.30506896972656 53.9700927734375 84.74592590332031 52.320068359375 164.93893432617188 52.320068359375 179.1294403076172 52.650054931640625 210.150634765625 53.640106201171875 220.7110290527344 53.9700927734375 223.68112182617188 53.9700927734375 223.68112182617188 53.9700927734375 223.68112182617188 " />
        <polyline stroke="black" stroke-width="3" stroke-linecap="round" fill="transparent" stroke-linejoin="round" points="49.0198974609375 85.075927734375 61.890380859375 68.5753173828125 105.78207397460938 43.82438659667969 113.70233154296876 41.51429748535156 137.46322631835938 38.54418182373047 158.583984375 44.154388427734375 175.74468994140625 54.384788513183594 187.6251220703125 71.87544250488281 194.55535888671875 95.96633911132813 197.5255126953125 125.00741577148438 196.53546142578125 155.3685760498047 193.56536865234375 182.4296112060547 188.28515625 201.9002990722656 180.36480712890625 211.470703125 168.1544189453125 214.77078247070313 149.34368896484375 207.84054565429688 149.34368896484375 207.84054565429688 149.34368896484375 207.84054565429688 " />
        <polyline stroke="black" stroke-width="3" stroke-linecap="round" fill="transparent" stroke-linejoin="round" points="89.28143310546875 100.91651916503906 88.62136840820313 117.08714294433594 89.28143310546875 144.4781494140625 89.28143310546875 146.45823669433594 89.28143310546875 149.4283447265625 89.28143310546875 150.74838256835938 88.62136840820313 149.7583770751953 89.28143310546875 144.4781494140625 96.211669921875 130.28762817382813 109.08218383789063 114.447021484375 126.24282836914063 101.90655517578124 140.433349609375 97.9464111328125 149.013671875 99.26646423339844 153.6337890625 102.236572265625 154.62384033203125 109.49684143066406 146.70358276367188 124.0173797607422 130.20297241210938 139.19796752929688 109.7421875 149.7583770751953 91.59149169921876 155.03855895996094 82.02114868164063 156.02859497070313 79.05105590820313 156.02859497070313 77.73101806640625 156.02859497070313 78.06100463867188 156.02859497070313 79.38104248046875 155.69857788085938 81.36111450195313 155.69857788085938 82.02114868164063 155.69857788085938 82.02114868164063 155.69857788085938 " />
        </svg>