<?xml version="1.0" standalone="no"?>
    <svg width="256" height="256" xmlns="http://www.w3.org/2000/svg" version="1.1">
    <polyline stroke="black" stroke-width="3" stroke-linecap="round" fill="transparent" stroke-linejoin="round" points="85.6385498046875 46.93439483642578 82.614990234375 56.00506591796875 78.58358764648438 63.56394958496094 72.03253173828125 74.65032958984375 63.9697265625 88.76025390625 56.914764404296875 101.86233520507813 52.379425048828125 109.42121887207033 50.363739013671875 113.45263671875 51.87548828125 113.45263671875 55.90692138671875 109.92515563964844 62.45794677734375 104.88589477539063 71.02468872070313 98.33485412597656 79.5914306640625 93.29559326171876 86.64642333984375 90.27203369140624 91.6856689453125 88.76025390625 94.709228515625 88.76025390625 95.71707153320313 91.7838134765625 93.70135498046876 103.87803649902344 85.6385498046875 125.04293823242188 72.03253173828125 152.25494384765625 56.41082763671875 177.4512481689453 47.8441162109375 190.5533142089844 43.81268310546875 197.1043701171875 43.81268310546875 197.1043701171875 " />
        <polyline stroke="black" stroke-width="3" stroke-linecap="round" fill="transparent" stroke-linejoin="round" points="53.38726806640625 140.1607208251953 61.450103759765625 148.22352600097656 68.50506591796875 155.2784881591797 79.0875244140625 164.3491668701172 89.166015625 172.4119873046875 99.74847412109376 178.9630126953125 99.74847412109376 178.9630126953125 " />
        <polyline stroke="black" stroke-width="3" stroke-linecap="round" fill="transparent" stroke-linejoin="round" points="130.48797607421875 69.10714721679688 126.96047973632813 90.27203369140624 119.905517578125 120.50759887695313 115.37017822265624 134.1136016845703 109.82699584960938 147.7196044921875 103.7799072265625 158.3020477294922 103.7799072265625 158.3020477294922 " />
        <polyline stroke="black" stroke-width="3" stroke-linecap="round" fill="transparent" stroke-linejoin="round" points="120.40945434570313 134.61752319335938 127.46441650390624 139.6567840576172 136.53509521484375 147.21568298339844 146.10968017578125 153.7667236328125 153.6685791015625 158.8059844970703 163.2431640625 158.8059844970703 163.2431640625 158.8059844970703 " />
        <polyline stroke="black" stroke-width="3" stroke-linecap="round" fill="transparent" stroke-linejoin="round" points="191.4630126953125 59.02862548828125 191.9669189453125 67.59536743164063 189.44732666015625 93.29559326171876 183.40020751953125 126.05078125 178.8648681640625 143.68820190429688 173.3216552734375 159.81382751464844 167.77850341796875 170.90020751953125 164.75494384765625 176.9473114013672 162.23529052734375 178.9630126953125 162.23529052734375 178.9630126953125 " />
        <polyline stroke="black" stroke-width="3" stroke-linecap="round" fill="transparent" stroke-linejoin="round" points="177.85699462890625 138.64894104003906 186.92767333984375 140.1607208251953 197.0062255859375 144.696044921875 207.588623046875 152.25494384765625 218.171142578125 161.82952880859375 227.24176025390625 173.41983032226563 227.24176025390625 173.41983032226563 " />
        </svg>