<?xml version="1.0" standalone="no"?>
    <svg width="256" height="256" xmlns="http://www.w3.org/2000/svg" version="1.1">
    <polyline stroke="black" stroke-width="3" stroke-linecap="round" fill="transparent" stroke-linejoin="round" points="86 62 75 76 70 96 65 106 56 127 46 154 41 163 40 165 40 165 " />
        <polyline stroke="black" stroke-width="3" stroke-linecap="round" fill="transparent" stroke-linejoin="round" points="68 99 89 91 96 91 100 91 103 95 104 106 104 121 96 146 82 172 68 194 53 206 44 209 44 209 " />
        <polyline stroke="black" stroke-width="3" stroke-linecap="round" fill="transparent" stroke-linejoin="round" points="59 143 74 151 83 159 95 171 106 182 113 185 113 185 " />
        <polyline stroke="black" stroke-width="3" stroke-linecap="round" fill="transparent" stroke-linejoin="round" points="150 75 144 84 144 93 140 112 131 137 125 152 111 192 103 203 103 203 " />
        <polyline stroke="black" stroke-width="3" stroke-linecap="round" fill="transparent" stroke-linejoin="round" points="129 143 141 153 147 162 156 172 165 175 165 175 " />
        <polyline stroke="black" stroke-width="3" stroke-linecap="round" fill="transparent" stroke-linejoin="round" points="195 84 189 106 179 135 166 169 157 195 150 207 150 207 " />
        <polyline stroke="black" stroke-width="3" stroke-linecap="round" fill="transparent" stroke-linejoin="round" points="167 166 178 175 185 184 197 195 210 206 216 211 216 211 " />
        </svg>