<?xml version="1.0" standalone="no"?>
    <svg width="256" height="256" xmlns="http://www.w3.org/2000/svg" version="1.1">
    <polyline stroke="black" stroke-width="3" stroke-linecap="round" fill="transparent" stroke-linejoin="round" points="92.3333740234375 123 94.3333740234375 122.33334350585938 102.3333740234375 119.66668701171876 109.66668701171876 118.33334350585938 118.3333740234375 116.33334350585938 122.3333740234375 116.33334350585938 122.3333740234375 116.33334350585938 " />
        <polyline stroke="black" stroke-width="3" stroke-linecap="round" fill="transparent" stroke-linejoin="round" points="88.3333740234375 149.66668701171875 91.66668701171876 148.33334350585938 105.66668701171876 143.66668701171875 114.3333740234375 141 119 140.33334350585938 119 140.33334350585938 " />
        <polyline stroke="black" stroke-width="3" stroke-linecap="round" fill="transparent" stroke-linejoin="round" points="82.3333740234375 172.33334350585938 102.3333740234375 165 113 161 121.66668701171876 157.66668701171875 121.66668701171876 157.66668701171875 " />
        <polyline stroke="black" stroke-width="3" stroke-linecap="round" fill="transparent" stroke-linejoin="round" points="101 101.66667175292967 97.66668701171876 125.66668701171876 91.66668701171876 163.66668701171875 87.66668701171875 189 87 201 88.3333740234375 210.33334350585935 89 212.33334350585935 91 211 91 211 " />
        <polyline stroke="black" stroke-width="3" stroke-linecap="round" fill="transparent" stroke-linejoin="round" points="153.66668701171875 101.66667175292967 152.3333740234375 105.66668701171876 146.3333740234375 117.66668701171876 135 137 128.3333740234375 146.33334350585938 121.66668701171876 154.33334350585938 119 157 119 157 " />
        <polyline stroke="black" stroke-width="3" stroke-linecap="round" fill="transparent" stroke-linejoin="round" points="170.3333740234375 119 173.66668701171875 118.33334350585938 185 116.33334350585938 192.3333740234375 114.33334350585938 199 113 200.3333740234375 112.33334350585938 199 112.33334350585938 197.66668701171875 113 197.66668701171875 113 " />
        <polyline stroke="black" stroke-width="3" stroke-linecap="round" fill="transparent" stroke-linejoin="round" points="145 158.33334350585938 144.3333740234375 161 141 169 139.66668701171875 174.33334350585938 140.3333740234375 176.33334350585938 145.66668701171875 175.66668701171875 156.3333740234375 171.66668701171875 168.3333740234375 167 177.66668701171875 163.66668701171875 182.3333740234375 162.33334350585938 183.66668701171875 161.66668701171875 183 161.66668701171875 180.3333740234375 161.66668701171875 179.66668701171875 161.66668701171875 179.66668701171875 161.66668701171875 " />
        <polyline stroke="black" stroke-width="3" stroke-linecap="round" fill="transparent" stroke-linejoin="round" points="185.66668701171875 151.66668701171875 183.66668701171875 156.33334350585938 181 161.66668701171875 179.66668701171875 163.66668701171875 179 163.66668701171875 179 163.66668701171875 " />
        <polyline stroke="black" stroke-width="3" stroke-linecap="round" fill="transparent" stroke-linejoin="round" points="168.3333740234375 155.66668701171875 162.3333740234375 173.66668701171875 151 192.33334350585935 138.3333740234375 207 126.3333740234375 216.33334350585935 125 217 125 217 " />
        </svg>