<?xml version="1.0" standalone="no"?>
    <svg width="256" height="256" xmlns="http://www.w3.org/2000/svg" version="1.1">
    <polyline stroke="black" stroke-width="3" stroke-linecap="round" fill="transparent" stroke-linejoin="round" points="63.813323974609375 88.92678833007813 72.17535400390625 85.85797119140625 88.08151245117188 79.48200988769531 94.32040405273438 76.83807373046875 100.54281616210938 73.96263122558594 101.2960205078125 73.42022705078125 101.456298828125 73.30484008789063 101.47479248046876 73.29150390625 100.53244018554688 74.06982421875 92.07138061523438 81.81007385253906 84.97055053710938 88.9822998046875 72.3333740234375 102.84390258789063 67.20367431640625 108.9678955078125 61.24188232421875 115.74563598632813 59.536468505859375 117.48577880859376 59.89825439453125 117.32859802246094 60.02801513671875 117.27220153808594 60.0966796875 117.24234008789063 65.97457885742188 114.70489501953124 74.2939453125 111.47195434570313 82.3316650390625 108.56362915039063 93.74642944335938 104.62176513671876 94.54388427734376 104.80014038085938 94.78875732421876 105.3155517578125 94.03512573242188 109.6882781982422 87.19659423828125 130.6704559326172 82.52487182617188 139.16592407226563 71.757080078125 152.04031372070313 62.748291015625 159.708251953125 59.04339599609375 162.13336181640625 55.922119140625 164.06869506835938 52.807464599609375 166.56649780273438 51.39031982421875 167.4840545654297 51.2274169921875 167.61209106445313 51.16064453125 167.66458129882813 51.12860107421875 167.68978881835938 52.42303466796875 167.18736267089844 56.9552001953125 165.4379119873047 77.75213623046875 155.91763305664063 96.16748046875 144.91311645507813 105.7373046875 139.9746551513672 119.63949584960938 134.80935668945313 124.59130859375 133.5791015625 128.91232299804688 133.8658905029297 129.23626708984375 134.1482391357422 129.28402709960938 134.18984985351563 " />
        <polyline stroke="black" stroke-width="3" stroke-linecap="round" fill="transparent" stroke-linejoin="round" points="92.098876953125 53.9447021484375 92.88421630859376 73.51847839355469 93.76605224609376 97.77999877929688 95.26705932617188 153.11358642578125 95.2742919921875 178.2588348388672 94.5498046875 209.29104614257813 94.40863037109376 219.18487548828125 92.92291259765624 227.494384765625 92.81109619140624 222.03536987304688 " />
        <polyline stroke="black" stroke-width="3" stroke-linecap="round" fill="transparent" stroke-linejoin="round" points="139.15765380859375 79.95001220703125 136.3751220703125 92.2520751953125 129.21493530273438 111.12600708007813 122.36288452148438 122.75851440429688 122.775390625 120.78092956542967 " />
        <polyline stroke="black" stroke-width="3" stroke-linecap="round" fill="transparent" stroke-linejoin="round" points="151.32440185546875 81.01141357421875 156.6904296875 80.53265380859375 177.6748046875 79.05897521972656 188.594482421875 78.0582275390625 197.88751220703125 76.54220581054688 198.1787109375 76.24888610839844 198.2066650390625 76.22076416015625 198.20867919921875 76.21879577636719 176.06787109375 78.75494384765625 175.6708984375 79.08352661132813 " />
        <polyline stroke="black" stroke-width="3" stroke-linecap="round" fill="transparent" stroke-linejoin="round" points="136.70880126953125 134.50914001464844 138.5826416015625 143.2655029296875 139.93612670898438 146.23916625976563 144.06503295898438 149.14617919921875 149.23422241210938 150.23284912109375 159.85345458984375 149.3399658203125 163.6705322265625 147.80540466308594 179.9940185546875 142.74656677246094 193.030517578125 137.49749755859375 194.6961669921875 134.5653533935547 185.90380859375 129.3950653076172 182.8524169921875 128.46934509277344 " />
        <polyline stroke="black" stroke-width="3" stroke-linecap="round" fill="transparent" stroke-linejoin="round" points="202.347412109375 121.63914489746094 204.04656982421875 134.259033203125 203.736572265625 139.66357421875 213.7470703125 144.9841766357422 216.498779296875 145.55575561523438 " />
        <polyline stroke="black" stroke-width="3" stroke-linecap="round" fill="transparent" stroke-linejoin="round" points="168.6544189453125 118.70872497558594 169.2025146484375 141.21133422851563 167.36785888671875 188.8079833984375 165.0302734375 213.60269165039065 155.0113525390625 256.0919494628906 149.17816162109375 266.9700927734375 149.323486328125 261.0709533691406 " />
        </svg>