<?xml version="1.0" standalone="no"?>
    <svg width="256" height="256" xmlns="http://www.w3.org/2000/svg" version="1.1">
    <polyline stroke="black" stroke-width="3" stroke-linecap="round" fill="transparent" stroke-linejoin="round" points="44.511810302734375 79.40402221679688 51.739593505859375 77.35113525390625 59.52264404296875 74.74276733398438 76.5133056640625 68.52752685546875 86.2900390625 65.18879699707031 104.96234130859376 60.568756103515625 113.508056640625 58.90557861328125 117.9744873046875 57.092071533203125 117.6539306640625 55.821044921875 117.62298583984376 55.698204040527344 " />
        <polyline stroke="black" stroke-width="3" stroke-linecap="round" fill="transparent" stroke-linejoin="round" points="63.107177734375 107.045166015625 77.08441162109375 102.06632995605467 85.1453857421875 99.72013854980467 99.307373046875 96.3594207763672 106.09002685546876 95.13575744628906 109.47543334960938 94.32272338867188 109.81396484375 94.24142456054688 " />
        <polyline stroke="black" stroke-width="3" stroke-linecap="round" fill="transparent" stroke-linejoin="round" points="55.890625 141.1395263671875 64.11825561523438 137.51666259765625 74.06918334960938 133.83673095703125 92.935302734375 127.4114227294922 100.5810546875 125.19451904296876 111.9090576171875 124.94425964355467 114.28814697265624 125.64097595214844 114.52606201171876 125.71066284179688 114.54501342773438 125.7161865234375 " />
        <polyline stroke="black" stroke-width="3" stroke-linecap="round" fill="transparent" stroke-linejoin="round" points="79.625732421875 43.99790954589844 81.2806396484375 59.91033935546875 83.69384765625 102.55792236328124 84.0032958984375 126.23321533203124 83.3258056640625 164.852783203125 74.33212280273438 194.54672241210935 71.00555419921875 197.41552734375 " />
        <polyline stroke="black" stroke-width="3" stroke-linecap="round" fill="transparent" stroke-linejoin="round" points="117.20263671875 55.42887878417969 117.09310913085938 75.44033813476563 116.32806396484376 84.92002868652344 115.11459350585938 92.7864990234375 111.80877685546876 103.9241180419922 111.64498901367188 104.3577880859375 " />
        <polyline stroke="black" stroke-width="3" stroke-linecap="round" fill="transparent" stroke-linejoin="round" points="152.5030517578125 56.578399658203125 160.86669921875 55.24446868896485 168.15960693359375 54.460693359375 175.2752685546875 54.06703186035156 187.5369873046875 54.004058837890625 193.1300048828125 53.760711669921875 194.8153076171875 53.439117431640625 194.8402099609375 53.421844482421875 194.8446044921875 53.41877746582031 " />
        <polyline stroke="black" stroke-width="3" stroke-linecap="round" fill="transparent" stroke-linejoin="round" points="115.28497314453124 116.74224853515624 115.01913452148438 123.14419555664063 114.33920288085938 131.20445251464844 113.93661499023438 135.314697265625 113.974609375 136.22259521484375 113.98504638671876 136.47183227539063 120.00006103515624 137.4090576171875 133.45361328125 136.37705993652344 140.36724853515625 134.94790649414063 166.1629638671875 132.2631072998047 172.57635498046875 131.46275329589844 180.36199951171875 130.24966430664063 188.0841064453125 127.50918579101563 188.40155029296875 127.35369873046876 " />
        <polyline stroke="black" stroke-width="3" stroke-linecap="round" fill="transparent" stroke-linejoin="round" points="188.1663818359375 103.3656005859375 189.8787841796875 111.06602478027344 191.90380859375 120.41062927246094 192.59228515625 136.41818237304688 192.6800537109375 137.85931396484375 " />
        <polyline stroke="black" stroke-width="3" stroke-linecap="round" fill="transparent" stroke-linejoin="round" points="148.19232177734375 78.91537475585938 147.96640014648438 79.99929809570313 151.9903564453125 84.83590698242188 159.880859375 108.20068359375 162.10687255859375 127.08024597167967 161.93701171875 170.82115173339844 150.66204833984375 191.849365234375 144.50277709960938 198.49334716796875 " />
        </svg>