<?xml version="1.0" standalone="no"?>
    <svg width="256" height="256" xmlns="http://www.w3.org/2000/svg" version="1.1">
    <polyline stroke="black" stroke-width="3" stroke-linecap="round" fill="transparent" stroke-linejoin="round" points="75.29837036132813 73.42924499511719 89.0682373046875 70.16796875 100.30157470703124 67.26902770996094 109.72305297851563 64.73246765136719 117.69509887695313 63.28300476074219 121.68109130859376 63.28300476074219 121.68109130859376 63.64537048339844 120.593994140625 66.54429626464844 120.593994140625 66.54429626464844 " />
        <polyline stroke="black" stroke-width="3" stroke-linecap="round" fill="transparent" stroke-linejoin="round" points="86.53167724609375 92.272216796875 91.60479736328124 91.9098663330078 98.48974609375 91.9098663330078 103.56283569335938 92.99697875976563 106.09939575195313 95.89590454101563 106.82412719726563 102.05609130859376 106.82412719726563 102.05609130859376 " />
        <polyline stroke="black" stroke-width="3" stroke-linecap="round" fill="transparent" stroke-linejoin="round" points="80.00909423828125 150.613037109375 94.50372314453124 144.45281982421875 104.28759765625 140.10443115234375 112.98431396484376 136.84317016601563 120.593994140625 132.49476623535156 120.593994140625 132.49476623535156 " />
        <polyline stroke="black" stroke-width="3" stroke-linecap="round" fill="transparent" stroke-linejoin="round" points="91.242431640625 35.743255615234375 91.9671630859375 44.077659606933594 93.77896118164063 65.81956481933594 94.141357421875 92.99697875976563 93.41659545898438 122.34854125976563 91.60479736328124 153.14959716796875 89.0682373046875 181.05172729492188 87.6187744140625 203.8807373046875 85.444580078125 220.911865234375 83.2703857421875 232.86993408203125 83.2703857421875 232.86993408203125 " />
        <polyline stroke="black" stroke-width="3" stroke-linecap="round" fill="transparent" stroke-linejoin="round" points="133.27679443359375 48.06367492675781 132.9144287109375 64.00773620605469 131.10260009765625 83.93782043457031 127.84133911132813 106.04212951660156 121.3187255859375 121.6238250732422 118.4197998046875 126.33456420898438 118.4197998046875 126.33456420898438 " />
        <polyline stroke="black" stroke-width="3" stroke-linecap="round" fill="transparent" stroke-linejoin="round" points="147.77139282226563 79.95181274414063 160.81658935546875 79.58944702148438 173.8616943359375 77.05288696289063 186.9068603515625 74.51632690429688 198.14019775390625 72.70451354980469 205.7498779296875 73.42924499511719 207.1993408203125 75.24107360839844 207.1993408203125 75.24107360839844 " />
        <polyline stroke="black" stroke-width="3" stroke-linecap="round" fill="transparent" stroke-linejoin="round" points="133.63916015625 132.49476623535156 132.55206298828125 144.45281982421875 131.46493530273438 154.2366943359375 131.46493530273438 160.0345458984375 131.46493530273438 162.5710906982422 132.55206298828125 164.02056884765625 134.72625732421875 164.38290405273438 144.51010131835938 159.67214965820313 158.64239501953125 151.33778381347656 174.22406005859375 142.2786407470703 184.37030029296875 139.74208068847656 191.61761474609375 138.29261779785156 194.87884521484375 137.93023681640625 194.87884521484375 137.93023681640625 " />
        <polyline stroke="black" stroke-width="3" stroke-linecap="round" fill="transparent" stroke-linejoin="round" points="212.634765625 119.08726501464844 212.634765625 127.05929565429688 213.35955810546875 134.66897583007813 211.9100341796875 152.42486572265625 209.73583984375 158.2227020263672 206.8369140625 160.75927734375 206.8369140625 160.75927734375 " />
        <polyline stroke="black" stroke-width="3" stroke-linecap="round" fill="transparent" stroke-linejoin="round" points="171.32513427734375 91.18513488769533 173.136962890625 100.24424743652344 173.8616943359375 109.30339050292967 174.58642578125 131.04531860351563 172.04986572265625 156.0485076904297 168.0638427734375 179.96461486816406 160.091796875 203.8807373046875 160.091796875 203.8807373046875 " />
        </svg>