<?xml version="1.0" standalone="no"?>
    <svg width="256" height="256" xmlns="http://www.w3.org/2000/svg" version="1.1">
    <polyline stroke="black" stroke-width="3" stroke-linecap="round" fill="transparent" stroke-linejoin="round" points="73.92840576171875 82.9423828125 82.22885131835938 79.71441650390625 90.06820678710938 76.4864501953125 96.98529052734376 73.71961975097656 108.51373291015624 68.18595886230469 114.96966552734376 64.49685668945313 116.35308837890624 63.5745849609375 116.35308837890624 63.5745849609375 " />
        <polyline stroke="black" stroke-width="3" stroke-linecap="round" fill="transparent" stroke-linejoin="round" points="64.24447631835938 140.58462524414063 73.006103515625 139.662353515625 97.90756225585938 130.90072631835938 104.82464599609376 127.21163940429688 114.04736328125 120.75570678710938 115.89193725585938 118.4499969482422 115.89193725585938 118.4499969482422 " />
        <polyline stroke="black" stroke-width="3" stroke-linecap="round" fill="transparent" stroke-linejoin="round" points="61.938812255859375 165.486083984375 75.311767578125 163.18038940429688 91.45162963867188 155.34104919433594 107.13031005859376 141.50692749023438 117.73651123046876 125.3670654296875 117.73651123046876 125.3670654296875 " />
        <polyline stroke="black" stroke-width="3" stroke-linecap="round" fill="transparent" stroke-linejoin="round" points="81.30661010742188 78.33099365234375 80.845458984375 96.77651977539063 79.92318725585938 121.21682739257813 79.00091552734375 145.19601440429688 78.53976440429688 166.86949157714844 78.53976440429688 183.0093231201172 79.00091552734375 204.2216796875 79.92318725585938 213.4444580078125 79.92318725585938 213.4444580078125 " />
        <polyline stroke="black" stroke-width="3" stroke-linecap="round" fill="transparent" stroke-linejoin="round" points="138.94882202148438 80.63668823242188 132.03173828125 93.08741760253906 124.653564453125 104.15472412109376 118.19760131835938 113.3774871826172 112.66400146484376 119.83341979980467 107.59149169921876 124.44479370117188 107.59149169921876 124.44479370117188 " />
        <polyline stroke="black" stroke-width="3" stroke-linecap="round" fill="transparent" stroke-linejoin="round" points="149.55502319335938 74.18075561523438 160.622314453125 71.41392517089844 185.98492431640625 65.88027954101563 210.42523193359375 61.268890380859375 210.42523193359375 61.268890380859375 " />
        <polyline stroke="black" stroke-width="3" stroke-linecap="round" fill="transparent" stroke-linejoin="round" points="139.87109375 129.0561981201172 138.02655029296875 134.58984375 136.64315795898438 141.04576110839844 135.25973510742188 157.646728515625 135.25973510742188 161.33584594726563 136.64315795898438 165.94720458984375 139.87109375 168.25291442871094 148.17160034179688 167.33062744140625 158.77777099609375 163.64154052734375 168.461669921875 158.5690155029297 179.06787109375 151.65194702148438 188.2906494140625 142.89031982421875 188.2906494140625 142.89031982421875 " />
        <polyline stroke="black" stroke-width="3" stroke-linecap="round" fill="transparent" stroke-linejoin="round" points="212.269775390625 120.75570678710938 211.3475341796875 126.28936767578124 207.197265625 140.58462524414063 204.8916015625 143.81259155273438 201.2025146484375 146.57940673828125 201.2025146484375 146.57940673828125 " />
        <polyline stroke="black" stroke-width="3" stroke-linecap="round" fill="transparent" stroke-linejoin="round" points="158.316650390625 125.82821655273438 157.3944091796875 144.27374267578125 156.47210693359375 160.87472534179688 153.70526123046875 194.07666015625 150.93841552734375 217.59466552734375 149.0938720703125 229.58425903320313 149.0938720703125 229.58425903320313 " />
        </svg>