<?xml version="1.0" standalone="no"?>
    <svg width="256" height="256" xmlns="http://www.w3.org/2000/svg" version="1.1">
    <polyline stroke="black" stroke-width="3" stroke-linecap="round" fill="transparent" stroke-linejoin="round" points="59.66412353515625 76.5367431640625 65.89898681640625 72.86917114257813 72.13385009765625 69.93511962890625 78.001953125 67.36781311035156 95.23959350585938 60.03266906738281 100.3741455078125 58.198883056640625 101.8411865234375 57.465362548828125 102.57470703125 57.098602294921875 102.57470703125 57.098602294921875 " />
        <polyline stroke="black" stroke-width="3" stroke-linecap="round" fill="transparent" stroke-linejoin="round" points="44.99383544921875 124.58197021484376 60.39764404296875 118.71385192871094 68.8330078125 115.77978515625 84.9703369140625 111.01194763183594 98.54037475585938 107.71115112304688 108.8095703125 105.51058959960938 108.8095703125 105.51058959960938 " />
        <polyline stroke="black" stroke-width="3" stroke-linecap="round" fill="transparent" stroke-linejoin="round" points="46.4608154296875 173.7274627685547 55.6297607421875 169.693115234375 65.5322265625 166.0255584716797 75.06793212890625 161.9912109375 91.20526123046876 155.38958740234375 105.5087890625 146.58740234375 105.5087890625 146.58740234375 " />
        <polyline stroke="black" stroke-width="3" stroke-linecap="round" fill="transparent" stroke-linejoin="round" points="73.60089111328125 39.12749481201172 73.60089111328125 51.59724426269531 73.234130859375 68.46807861328125 72.5006103515625 85.33892822265625 71.40032958984375 119.44737243652344 71.40032958984375 147.68768310546875 72.86737060546875 172.62718200683594 75.43466186523438 192.0653381347656 77.2684326171875 205.6353759765625 78.7354736328125 211.8702392578125 78.7354736328125 211.8702392578125 " />
        <polyline stroke="black" stroke-width="3" stroke-linecap="round" fill="transparent" stroke-linejoin="round" points="139.6171875 48.663177490234375 135.58285522460938 60.76617431640625 130.4482421875 74.70297241210938 119.445556640625 101.1094970703125 114.67770385742188 111.3787078857422 103.3082275390625 134.11766052246094 98.90716552734376 141.4528045654297 98.90716552734376 141.4528045654297 " />
        <polyline stroke="black" stroke-width="3" stroke-linecap="round" fill="transparent" stroke-linejoin="round" points="152.08697509765625 83.13838195800781 156.8548583984375 81.67135620117188 161.98944091796875 80.20433044433594 167.1240234375 79.10406494140625 178.126708984375 77.63702392578125 202.699462890625 76.5367431640625 210.4013671875 76.16998291015625 210.4013671875 76.16998291015625 " />
        <polyline stroke="black" stroke-width="3" stroke-linecap="round" fill="transparent" stroke-linejoin="round" points="139.6171875 128.24954223632813 137.78341674804688 132.650634765625 134.48260498046875 144.02011108398438 134.1158447265625 150.98849487304688 137.41668701171875 158.3236541748047 142.18450927734375 161.9912109375 151.72021484375 164.19175720214844 161.98944091796875 163.82501220703125 174.825927734375 159.79067993164063 183.2613525390625 154.65606689453125 193.530517578125 146.95416259765625 193.530517578125 146.95416259765625 " />
        <polyline stroke="black" stroke-width="3" stroke-linecap="round" fill="transparent" stroke-linejoin="round" points="216.63623046875 131.55035400390625 216.63623046875 138.885498046875 215.90277099609375 147.3209228515625 212.6019287109375 162.35797119140625 208.934326171875 171.16015625 208.934326171875 171.16015625 " />
        <polyline stroke="black" stroke-width="3" stroke-linecap="round" fill="transparent" stroke-linejoin="round" points="190.9632568359375 103.31004333496094 184.7283935546875 140.7192840576172 177.0264892578125 167.85934448242188 167.1240234375 194.63262939453125 156.12127685546875 218.10513305664065 145.48532104492188 238.64352416992188 135.94964599609375 258.44842529296875 135.94964599609375 258.44842529296875 " />
        </svg>