<?xml version="1.0" standalone="no"?>
    <svg width="256" height="256" xmlns="http://www.w3.org/2000/svg" version="1.1">
    <polyline stroke="black" stroke-width="3" stroke-linecap="round" fill="transparent" stroke-linejoin="round" points="69.16326904296875 78.51702880859375 76.8487548828125 77.16726684570313 92.24191284179688 74.72628784179688 104.07821655273438 71.70249938964844 109.89804077148438 69.99183654785156 116.9129638671875 67.40995788574219 118.2073974609375 66.7208251953125 118.50665283203124 66.470947265625 118.59783935546876 66.39482116699219 " />
        <polyline stroke="black" stroke-width="3" stroke-linecap="round" fill="transparent" stroke-linejoin="round" points="82.34652709960938 101.01499938964844 100.55450439453124 96.29930114746094 117.17245483398438 92.64218139648438 120.776123046875 91.88587951660156 122.71591186523438 91.15521240234376 123.11212158203124 89.07302856445313 122.67431640625 88.70359802246094 " />
        <polyline stroke="black" stroke-width="3" stroke-linecap="round" fill="transparent" stroke-linejoin="round" points="62.62628173828125 152.69602966308594 72.134033203125 149.62136840820313 82.44757080078125 145.50436401367188 92.2061767578125 141.0987548828125 111.23065185546876 133.87474060058594 118.32052612304688 132.10858154296875 125.505615234375 131.2703857421875 125.7947998046875 131.24481201171875 " />
        <polyline stroke="black" stroke-width="3" stroke-linecap="round" fill="transparent" stroke-linejoin="round" points="85.35995483398438 55.11627197265625 85.83489990234375 77.59159851074219 85.94699096679688 126.02706909179688 86.4398193359375 150.4637908935547 85.29550170898438 196.5938720703125 84.60263061523438 209.82318115234375 84.84588623046875 219.824462890625 84.96063232421875 225.5254821777344 85.09579467773438 230.67572021484375 85.12347412109375 231.66748046875 85.12554931640625 231.74066162109375 " />
        <polyline stroke="black" stroke-width="3" stroke-linecap="round" fill="transparent" stroke-linejoin="round" points="144.480224609375 71.08956909179688 143.89511108398438 98.64407348632813 141.96884155273438 110.12713623046876 139.35897827148438 116.60079956054688 134.54632568359375 119.92623901367188 134.43954467773438 119.94113159179688 " />
        <polyline stroke="black" stroke-width="3" stroke-linecap="round" fill="transparent" stroke-linejoin="round" points="175.1116943359375 62.63035583496094 186.10784912109375 60.90126037597656 196.77197265625 59.6585693359375 211.1729736328125 58.041778564453125 213.818115234375 58.37736511230469 215.30706787109375 58.57843017578125 215.4569091796875 58.5675048828125 215.51239013671875 58.563446044921875 " />
        <polyline stroke="black" stroke-width="3" stroke-linecap="round" fill="transparent" stroke-linejoin="round" points="146.40829467773438 128.41429138183594 146.37936401367188 141.87387084960938 144.986083984375 153.35272216796875 142.44479370117188 167.9293670654297 141.65072631835938 171.881103515625 141.17929077148438 172.52359008789063 141.164794921875 172.5433349609375 142.03646850585938 172.33795166015625 143.726318359375 172.10250854492188 147.08978271484375 171.6910400390625 160.95751953125 168.53085327148438 174.891357421875 163.26023864746094 180.72015380859375 160.88330078125 190.242431640625 157.00181579589844 197.5535888671875 154.13450622558594 199.5899658203125 153.3396453857422 202.32720947265625 151.95986938476563 203.0791015625 151.5780487060547 203.44775390625 151.05120849609375 203.61456298828125 150.81272888183594 " />
        <polyline stroke="black" stroke-width="3" stroke-linecap="round" fill="transparent" stroke-linejoin="round" points="211.69671630859375 134.25592041015625 213.05438232421875 142.60256958007813 214.4544677734375 150.5263671875 214.76226806640625 162.4230194091797 215.3634033203125 165.15875244140625 215.4022216796875 165.33555603027344 " />
        <polyline stroke="black" stroke-width="3" stroke-linecap="round" fill="transparent" stroke-linejoin="round" points="180.895263671875 124.996826171875 183.8345947265625 142.88694763183594 185.80438232421875 162.00704956054688 184.7767333984375 200.45333862304688 181.321533203125 221.18951416015625 175.214599609375 236.544921875 174.2734375 232.9439697265625 " />
        </svg>