<?xml version="1.0" standalone="no"?>
    <svg width="256" height="256" xmlns="http://www.w3.org/2000/svg" version="1.1">
    <polyline stroke="black" stroke-width="3" stroke-linecap="round" fill="transparent" stroke-linejoin="round" points="42 101 47 101 68 97 82 94 91 94 93 94 93 94 " />
        <polyline stroke="black" stroke-width="3" stroke-linecap="round" fill="transparent" stroke-linejoin="round" points="49 135 60 132 77 129 90 127 97 127 98 127 98 127 " />
        <polyline stroke="black" stroke-width="3" stroke-linecap="round" fill="transparent" stroke-linejoin="round" points="41 174 55 169 73 162 89 158 102 156 106 153 106 153 " />
        <polyline stroke="black" stroke-width="3" stroke-linecap="round" fill="transparent" stroke-linejoin="round" points="78 93 78 128 76 161 73 187 71 205 70 213 70 213 " />
        <polyline stroke="black" stroke-width="3" stroke-linecap="round" fill="transparent" stroke-linejoin="round" points="155 48 150 63 141 81 132 99 130 103 130 103 " />
        <polyline stroke="black" stroke-width="3" stroke-linecap="round" fill="transparent" stroke-linejoin="round" points="146 73 154 73 167 73 181 73 196 73 209 72 209 72 " />
        <polyline stroke="black" stroke-width="3" stroke-linecap="round" fill="transparent" stroke-linejoin="round" points="132 132 132 142 135 151 137 156 139 157 140 158 143 158 152 158 164 156 180 151 195 145 202 144 202 144 " />
        <polyline stroke="black" stroke-width="3" stroke-linecap="round" fill="transparent" stroke-linejoin="round" points="210 122 210 127 207 138 205 142 205 142 " />
        <polyline stroke="black" stroke-width="3" stroke-linecap="round" fill="transparent" stroke-linejoin="round" points="184 108 184 124 182 148 168 175 151 199 144 207 144 207 " />
        </svg>