<?xml version="1.0" standalone="no"?>
    <svg width="256" height="256" xmlns="http://www.w3.org/2000/svg" version="1.1">
    <polyline stroke="black" stroke-width="3" stroke-linecap="round" fill="transparent" stroke-linejoin="round" points="49.01031494140625 107.185546875 66.7615966796875 104.12498474121094 79.00384521484375 100.45230102539063 93.08245849609376 95.55540466308594 105.93682861328124 89.43426513671875 113.28219604492188 84.537353515625 117.5670166015625 78.41622924804688 119.4033203125 71.6829833984375 119.4033203125 65.56184387207031 119.4033203125 65.56184387207031 " />
        <polyline stroke="black" stroke-width="3" stroke-linecap="round" fill="transparent" stroke-linejoin="round" points="99.20361328125 56.99226379394531 91.85821533203124 75.35565185546875 85.125 93.10694885253906 71.65850830078125 124.32472229003906 61.2525634765625 148.80926513671875 52.6829833984375 167.78477478027344 45.949737548828125 184.31182861328125 42.27703857421875 192.88140869140625 41.052825927734375 197.16622924804688 42.88916015625 195.32986450195313 48.398193359375 186.76028442382813 59.416229248046875 166.560546875 67.37371826171875 149.42137145996094 71.65850830078125 142.68812561035156 75.94329833984375 138.40333557128906 80.22808837890625 136.56700134277344 85.73712158203125 138.40333557128906 91.24612426757813 144.52447509765625 99.20361328125 158.6030731201172 105.32470703125 172.6816864013672 108.99740600585938 180.63916015625 113.28219604492188 183.08761596679688 113.28219604492188 183.08761596679688 " />
        <polyline stroke="black" stroke-width="3" stroke-linecap="round" fill="transparent" stroke-linejoin="round" points="130.42138671875 87.59793090820313 132.86981201171875 101.06442260742188 134.7061767578125 112.08245849609376 135.93038940429688 124.32472229003906 135.31829833984375 133.5064239501953 134.09405517578125 139.01544189453125 131.64559936523438 140.2396697998047 130.42138671875 137.17910766601563 130.42138671875 130.44586181640625 132.86981201171875 117.59147644042967 138.990966796875 104.7371063232422 148.17266845703125 92.4948272705078 161.02703857421875 80.86468505859375 178.166259765625 69.84663391113281 193.46905517578125 64.33761596679688 209.384033203125 64.94973754882813 219.1778564453125 69.23452758789063 226.523193359375 75.9677734375 234.48065185546875 91.27059936523438 233.8685302734375 109.02189636230467 224.07470703125 126.77317810058594 207.54766845703125 144.52447509765625 207.54766845703125 144.52447509765625 " />
        <polyline stroke="black" stroke-width="3" stroke-linecap="round" fill="transparent" stroke-linejoin="round" points="134.09405517578125 168.3968963623047 143.88787841796875 163.49998474121094 156.130126953125 159.82730102539063 171.4329833984375 155.54251098632813 186.73583984375 151.8698272705078 198.97802734375 148.80926513671875 205.0992431640625 145.74868774414063 205.0992431640625 145.74868774414063 " />
        <polyline stroke="black" stroke-width="3" stroke-linecap="round" fill="transparent" stroke-linejoin="round" points="164.087646484375 121.26416015625 159.80279541015625 135.3427734375 153.069580078125 149.42137145996094 143.2757568359375 167.78477478027344 132.86981201171875 188.59661865234375 126.1365966796875 204.51156616210935 123.07601928710938 213.6932678222656 123.07601928710938 213.6932678222656 " />
        <polyline stroke="black" stroke-width="3" stroke-linecap="round" fill="transparent" stroke-linejoin="round" points="192.85693359375 113.3066864013672 193.46905517578125 131.6700897216797 192.24481201171875 146.97291564941406 189.18426513671875 165.9484405517578 184.287353515625 191.04507446289065 178.7783203125 218.59017944335935 178.7783203125 218.59017944335935 " />
        </svg>