<?xml version="1.0" standalone="no"?>
    <svg width="256" height="256" xmlns="http://www.w3.org/2000/svg" version="1.1">
    <polyline stroke="black" stroke-width="3" stroke-linecap="round" fill="transparent" stroke-linejoin="round" points="97.4429931640625 66.30001831054688 96.3824462890625 90.2900390625 94.67816162109376 101.2515106201172 90.02099609375 118.83203125 88.3828125 123.5162353515625 86.99530029296875 125.39109802246094 86.93991088867188 125.433349609375 86.93890380859375 125.4341278076172 88.35980224609375 125.39451599121094 91.30038452148438 125.07437133789063 104.16265869140624 121.32920837402344 108.7783203125 119.2368621826172 130.65682983398438 114.28005981445313 137.640380859375 113.30615234375 139.599853515625 113.61819458007813 140.41390991210938 114.3459930419922 141.0740966796875 116.30239868164063 142.149169921875 122.15470886230467 143.59042358398438 131.17245483398438 142.87823486328125 155.58087158203125 141.35116577148438 167.62132263183594 137.31927490234375 192.81900024414065 135.56658935546875 200.84637451171875 131.48699951171875 213.189697265625 130.3974609375 215.07110595703125 130.277587890625 215.27810668945313 129.21832275390625 215.4999084472656 119.53607177734376 217.731689453125 115.30722045898438 218.09548950195313 113.43182373046876 218.2537841796875 110.291015625 217.61587524414065 108.6014404296875 216.980224609375 105.52325439453124 215.3624267578125 105.27783203125 214.93817138671875 " />
        </svg>