<?xml version="1.0" standalone="no"?>
    <svg width="256" height="256" xmlns="http://www.w3.org/2000/svg" version="1.1">
    <polyline stroke="black" stroke-width="3" stroke-linecap="round" fill="transparent" stroke-linejoin="round" points="123 45 124 50 123 57 120 68 118 76 116 83 114 90 113 95 112 98 111 101 111 102 110 103 112 103 114 103 118 101 123 99 128 96 134 94 140 93 145 94 151 98 153 105 155 115 154 128 153 142 150 157 148 170 146 182 145 190 143 196 141 201 139 202 134 202 130 199 125 194 119 187 115 180 113 177 " />
        </svg>