<?xml version="1.0" standalone="no"?>
    <svg width="256" height="256" xmlns="http://www.w3.org/2000/svg" version="1.1">
    <polyline stroke="black" stroke-width="3" stroke-linecap="round" fill="transparent" stroke-linejoin="round" points="48.97589111328125 83.08879089355469 48.130706787109375 97.8792724609375 48.130706787109375 110.55682373046876 48.97589111328125 123.656982421875 48.97589111328125 132.95384216308594 48.97589111328125 138.02487182617188 48.97589111328125 140.1378173828125 48.97589111328125 139.7152099609375 49.3984375 137.602294921875 54.046875 128.72801208496094 58.6953125 121.96664428710938 77.2890625 100.41477966308594 91.656982421875 87.73722839355469 104.33456420898438 79.2855224609375 109.40557861328124 77.172607421875 119.125 75.48225402832031 129.26705932617188 81.39845275878906 132.64776611328125 86.04689025878906 137.29620361328125 106.33097839355467 135.18328857421875 119.43112182617188 127.57675170898438 133.37643432617188 123.35089111328124 138.44744873046875 119.125 141.4055633544922 119.125 141.4055633544922 " />
        <polyline stroke="black" stroke-width="3" stroke-linecap="round" fill="transparent" stroke-linejoin="round" points="83.62786865234375 18.010665893554688 83.62786865234375 37.872161865234375 83.62786865234375 48.85939025878906 84.05047607421875 62.80470275878906 84.4730224609375 74.6370849609375 87.008544921875 115.62785339355467 88.27630615234375 130.84092712402344 89.96664428710938 162.1122283935547 89.96664428710938 187.46734619140625 89.54403686523438 205.63851928710935 88.69891357421875 214.93539428710935 88.69891357421875 217.47088623046875 88.69891357421875 217.47088623046875 " />
        <polyline stroke="black" stroke-width="3" stroke-linecap="round" fill="transparent" stroke-linejoin="round" points="145.74789428710938 89.85015869140625 156.735107421875 86.04689025878906 161.80615234375 84.35655212402344 167.29974365234375 83.08879089355469 177.4417724609375 81.39845275878906 182.5128173828125 80.97586059570313 190.54193115234375 80.55328369140625 196.8807373046875 80.13069152832031 200.26141357421875 80.13069152832031 200.6839599609375 80.13069152832031 200.26141357421875 80.55328369140625 200.26141357421875 80.55328369140625 " />
        <polyline stroke="black" stroke-width="3" stroke-linecap="round" fill="transparent" stroke-linejoin="round" points="133.0703125 143.9410858154297 147.438232421875 143.9410858154297 154.1995849609375 143.9410858154297 168.9901123046875 143.5184783935547 191.3870849609375 141.4055633544922 202.796875 139.29263305664063 209.9808349609375 136.7571258544922 214.20672607421875 133.37643432617188 214.20672607421875 133.37643432617188 " />
        <polyline stroke="black" stroke-width="3" stroke-linecap="round" fill="transparent" stroke-linejoin="round" points="187.5838623046875 37.872161865234375 180.82244873046875 61.53694152832031 178.2869873046875 83.9339599609375 177.4417724609375 96.18893432617188 177.4417724609375 119.43112182617188 177.8643798828125 130.84092712402344 179.13214111328125 152.8153533935547 179.977294921875 174.789794921875 180.39990234375 198.031982421875 179.5546875 218.7386474609375 179.5546875 218.7386474609375 " />
        </svg>