<?xml version="1.0" standalone="no"?>
    <svg width="256" height="256" xmlns="http://www.w3.org/2000/svg" version="1.1">
    <polyline stroke="black" stroke-width="3" stroke-linecap="round" fill="transparent" stroke-linejoin="round" points="63.85009765625 82.466796875 60.544464111328125 101.19874572753906 58.3406982421875 123.23631286621094 55.58599853515625 143.0701446533203 53.933197021484375 157.39456176757813 52.280364990234375 166.2095947265625 51.178497314453125 170.6171112060547 51.178497314453125 169.51522827148438 51.178497314453125 169.51522827148438 " />
        <polyline stroke="black" stroke-width="3" stroke-linecap="round" fill="transparent" stroke-linejoin="round" points="54.484130859375 113.31941223144533 62.74822998046875 101.74967956542967 68.25762939453125 96.2402801513672 75.97076416015625 90.73089599609376 86.4385986328125 86.32337951660156 96.35552978515624 83.56867980957031 106.8233642578125 83.56867980957031 116.1893310546875 86.32337951660156 123.90249633789063 91.83277893066406 130.5137939453125 100.09686279296876 135.47222900390625 112.76846313476563 137.12506103515625 125.9910125732422 136.02316284179688 135.90792846679688 132.717529296875 143.62107849121094 128.30999755859375 149.13047790527344 121.69873046875 152.4361114501953 112.332763671875 152.98704528808594 105.17056274414063 148.02859497070313 105.17056274414063 148.02859497070313 " />
        <polyline stroke="black" stroke-width="3" stroke-linecap="round" fill="transparent" stroke-linejoin="round" points="80.3782958984375 48.8594970703125 82.03109741210938 68.14237976074219 83.68389892578125 94.58746337890624 84.78579711914063 123.78726196289063 87.54049682617188 151.8851776123047 88.64239501953125 176.1265106201172 90.29519653320313 193.20562744140625 92.49896240234376 205.3262939453125 94.15176391601563 211.93756103515625 95.80459594726563 215.24319458007813 98.55926513671876 214.14132690429688 98.55926513671876 214.14132690429688 " />
        <polyline stroke="black" stroke-width="3" stroke-linecap="round" fill="transparent" stroke-linejoin="round" points="160.8154296875 110.01377868652344 174.58892822265625 105.05531311035156 182.85302734375 102.8515625 191.66802978515625 101.74967956542967 199.3812255859375 100.64779663085938 204.890625 100.64779663085938 209.84906005859375 100.64779663085938 215.909423828125 100.64779663085938 215.909423828125 100.64779663085938 " />
        <polyline stroke="black" stroke-width="3" stroke-linecap="round" fill="transparent" stroke-linejoin="round" points="145.9400634765625 172.82086181640625 159.71356201171875 172.26992797851563 171.2833251953125 171.718994140625 183.4039306640625 169.51522827148438 194.4227294921875 167.86241149902344 202.1358642578125 166.2095947265625 207.645263671875 164.55677795410156 213.1546630859375 160.7001953125 213.1546630859375 160.7001953125 " />
        <polyline stroke="black" stroke-width="3" stroke-linecap="round" fill="transparent" stroke-linejoin="round" points="172.93609619140625 51.61418914794922 171.2833251953125 70.89707946777344 170.181396484375 90.17994689941406 169.07952880859375 121.03256225585938 170.181396484375 149.68141174316406 171.2833251953125 173.37181091308594 171.2833251953125 194.3074951171875 170.73236083984375 213.59039306640625 170.181396484375 230.6695251464844 170.181396484375 230.6695251464844 " />
        </svg>