<?xml version="1.0" standalone="no"?>
    <svg width="256" height="256" xmlns="http://www.w3.org/2000/svg" version="1.1">
    <polyline stroke="black" stroke-width="3" stroke-linecap="round" fill="transparent" stroke-linejoin="round" points="85.88897705078125 101.71395874023438 128.28836059570313 93.89271545410156 162.86651611328125 90.5995635986328 179.743896484375 88.54133605957031 187.976806640625 87.71804809570313 187.976806640625 87.71804809570313 " />
        <polyline stroke="black" stroke-width="3" stroke-linecap="round" fill="transparent" stroke-linejoin="round" points="83.41915893554688 172.10516357421875 117.99725341796876 167.16542053222656 146.8123779296875 161.4024200439453 166.15966796875 156.87432861328125 176.8624267578125 153.1695098876953 176.8624267578125 153.1695098876953 " />
        <polyline stroke="black" stroke-width="3" stroke-linecap="round" fill="transparent" stroke-linejoin="round" points="95.7684326171875 154.4044647216797 95.3568115234375 168.81201171875 95.3568115234375 179.51475524902344 96.18008422851563 186.92437744140625 97.82669067382813 192.6873779296875 97.82669067382813 192.6873779296875 " />
        <polyline stroke="black" stroke-width="3" stroke-linecap="round" fill="transparent" stroke-linejoin="round" points="137.75619506835938 148.64141845703125 137.34454345703125 162.6373291015625 138.16781616210938 176.6332550048828 139.81439208984375 190.629150390625 138.57949829101563 207.09494018554688 138.57949829101563 207.09494018554688 " />
        <polyline stroke="black" stroke-width="3" stroke-linecap="round" fill="transparent" stroke-linejoin="round" points="109.76437377929688 198.45040893554688 123.76028442382813 195.56887817382813 134.4630126953125 193.5106506347656 140.63772583007813 192.6873779296875 140.63772583007813 192.6873779296875 " />
        </svg>