<?xml version="1.0" standalone="no"?>
    <svg width="256" height="256" xmlns="http://www.w3.org/2000/svg" version="1.1">
    <polyline stroke="black" stroke-width="3" stroke-linecap="round" fill="transparent" stroke-linejoin="round" points="57.083984375 105.81658935546876 66.71771240234375 100.3714599609375 78.02679443359375 94.92634582519533 103.5770263671875 84.873779296875 132.47811889648438 76.49665832519531 158.8660888671875 71.88923645019531 178.97119140625 68.95724487304688 190.2802734375 67.70068359375 194.8876953125 67.70068359375 195.30657958984375 67.70068359375 194.4688720703125 68.11953735351563 194.4688720703125 68.11953735351563 " />
        <polyline stroke="black" stroke-width="3" stroke-linecap="round" fill="transparent" stroke-linejoin="round" points="80.53997802734375 135.13653564453125 89.3359375 133.4611053466797 98.55075073242188 131.36685180664063 127.87069702148438 128.01597595214844 151.74554443359375 126.34056091308594 157.6094970703125 125.92169189453124 165.5677490234375 124.66513061523438 170.1751708984375 122.57086181640624 170.1751708984375 122.57086181640624 " />
        <polyline stroke="black" stroke-width="3" stroke-linecap="round" fill="transparent" stroke-linejoin="round" points="104.41473388671876 117.9634246826172 101.48275756835938 125.083984375 97.294189453125 142.257080078125 96.03759765625 151.05307006835938 96.45648193359376 165.71304321289063 97.71307373046876 171.5770263671875 101.901611328125 180.37301635742188 108.1844482421875 185.81814575195313 119.07470703125 190.0067138671875 129.546142578125 190.84442138671875 134.15353393554688 190.0067138671875 140.01751708984375 186.23699951171875 140.01751708984375 186.23699951171875 " />
        <polyline stroke="black" stroke-width="3" stroke-linecap="round" fill="transparent" stroke-linejoin="round" points="144.62493896484375 113.3560028076172 144.62493896484375 122.1519775390625 146.30038452148438 141.41940307617188 149.23236083984375 166.9696044921875 150.070068359375 184.14273071289065 150.070068359375 184.14273071289065 " />
        </svg>