<?xml version="1.0" standalone="no"?>
    <svg width="256" height="256" xmlns="http://www.w3.org/2000/svg" version="1.1">
    <polyline stroke="black" stroke-width="3" stroke-linecap="round" fill="transparent" stroke-linejoin="round" points="64.84661865234375 110.85823059082033 80.14947509765625 103.51287841796876 105.24612426757813 92.4948272705078 126.0579833984375 83.92524719238281 148.09405517578125 76.57987976074219 165.23321533203125 72.90721130371094 178.087646484375 71.07086181640625 178.087646484375 71.07086181640625 " />
        <polyline stroke="black" stroke-width="3" stroke-linecap="round" fill="transparent" stroke-linejoin="round" points="81.98580932617188 184.9239501953125 98.51287841796876 177.57858276367188 129.1185302734375 162.8878631591797 151.15460205078125 153.70616149902344 168.9058837890625 146.97291564941406 181.148193359375 142.68812561035156 187.88140869140625 139.6275634765625 187.88140869140625 139.6275634765625 " />
        <polyline stroke="black" stroke-width="3" stroke-linecap="round" fill="transparent" stroke-linejoin="round" points="108.30670166015624 143.3002471923828 107.694580078125 158.6030731201172 107.694580078125 177.57858276367188 108.9188232421875 193.4935302734375 111.36724853515624 206.34793090820313 115.0399169921875 213.6932678222656 122.38531494140624 217.365966796875 131.5670166015625 215.52963256835935 141.36080932617188 210.0205993652344 148.7061767578125 201.45101928710935 159.112060546875 180.63916015625 159.112060546875 180.63916015625 " />
        <polyline stroke="black" stroke-width="3" stroke-linecap="round" fill="transparent" stroke-linejoin="round" points="157.88787841796875 121.26416015625 159.112060546875 131.05796813964844 160.94842529296875 146.36080932617188 164.62109375 165.33631896972656 167.68170166015625 183.08761596679688 169.51800537109375 199.0025634765625 168.2938232421875 211.85693359375 168.2938232421875 211.85693359375 " />
        </svg>