<?xml version="1.0" standalone="no"?>
    <svg width="256" height="256" xmlns="http://www.w3.org/2000/svg" version="1.1">
    <polyline stroke="black" stroke-width="3" stroke-linecap="round" fill="transparent" stroke-linejoin="round" points="62 97 70 97 98 92 130 87 142 85 166 85 184 85 193 85 194 85 194 85 " />
        <polyline stroke="black" stroke-width="3" stroke-linecap="round" fill="transparent" stroke-linejoin="round" points="85 135 85 167 85 191 87 200 88 209 94 216 94 216 " />
        <polyline stroke="black" stroke-width="3" stroke-linecap="round" fill="transparent" stroke-linejoin="round" points="154 129 154 135 154 142 154 158 154 179 153 195 151 205 151 205 " />
        <polyline stroke="black" stroke-width="3" stroke-linecap="round" fill="transparent" stroke-linejoin="round" points="43 171 51 171 67 169 80 167 107 163 145 159 165 158 176 158 178 160 178 165 178 165 " />
        <polyline stroke="black" stroke-width="3" stroke-linecap="round" fill="transparent" stroke-linejoin="round" points="89 204 95 204 105 203 110 203 119 202 127 202 132 202 133 202 133 202 " />
        </svg>