<?xml version="1.0" standalone="no"?>
    <svg width="256" height="256" xmlns="http://www.w3.org/2000/svg" version="1.1">
    <polyline stroke="black" stroke-width="3" stroke-linecap="round" fill="transparent" stroke-linejoin="round" points="72.99215698242188 121.02374267578124 81.11947631835938 118.17918395996094 89.24676513671875 115.33462524414063 115.254150390625 101.5181884765625 123.787841796875 90.54632568359376 123.787841796875 90.54632568359376 " />
        <polyline stroke="black" stroke-width="3" stroke-linecap="round" fill="transparent" stroke-linejoin="round" points="95.34225463867188 61.6943359375 96.15499877929688 76.72987365722656 96.56137084960938 93.7972412109375 96.96771240234376 110.86459350585938 97.37408447265624 127.11923217773438 97.78045654296876 156.37754821777344 97.37408447265624 168.9748992919922 95.34225463867188 185.22952270507813 92.904052734375 194.9822998046875 89.65313720703125 199.45233154296875 86.40219116210938 200.26507568359375 83.96405029296875 198.23321533203125 83.96405029296875 198.23321533203125 " />
        <polyline stroke="black" stroke-width="3" stroke-linecap="round" fill="transparent" stroke-linejoin="round" points="136.38519287109375 118.58555603027344 153.85894775390625 113.3027801513672 183.1173095703125 103.55001831054688 194.4954833984375 95.8290557861328 194.4954833984375 95.8290557861328 " />
        <polyline stroke="black" stroke-width="3" stroke-linecap="round" fill="transparent" stroke-linejoin="round" points="185.14910888671875 58.03704833984375 187.5872802734375 70.22802734375 190.0255126953125 84.45083618164063 192.05731201171875 98.6736297607422 194.4954833984375 129.55743408203125 194.089111328125 159.22210693359375 190.431884765625 181.57223510742188 185.96185302734375 194.9822998046875 181.08544921875 202.7032470703125 172.9581298828125 206.76690673828125 157.922607421875 206.36053466796875 157.922607421875 206.36053466796875 " />
        </svg>