<?xml version="1.0" standalone="no"?>
    <svg width="256" height="256" xmlns="http://www.w3.org/2000/svg" version="1.1">
    <polyline stroke="black" stroke-width="3" stroke-linecap="round" fill="transparent" stroke-linejoin="round" points="34.0445556640625 156.29725646972656 54.118896484375 147.93295288085938 74.7508544921875 139.01101684570313 89.80657958984375 132.877197265625 105.97760009765624 123.39764404296876 119.9180908203125 107.78427124023438 119.9180908203125 107.78427124023438 " />
        <polyline stroke="black" stroke-width="3" stroke-linecap="round" fill="transparent" stroke-linejoin="round" points="97.0556640625 80.46087646484375 99.84375 98.8623504638672 102.07424926757813 133.434814453125 103.18948364257813 152.39390563964844 102.07424926757813 168.5648956298828 99.2861328125 179.71731567382813 93.70993041992188 186.40875244140625 85.34564208984375 189.1968688964844 74.7508544921875 188.08160400390625 74.7508544921875 188.08160400390625 " />
        <polyline stroke="black" stroke-width="3" stroke-linecap="round" fill="transparent" stroke-linejoin="round" points="129.39764404296875 131.76194763183594 141.107666015625 127.30099487304688 155.6058349609375 122.28240966796876 170.66156005859375 117.26382446289063 184.04443359375 112.8028564453125 195.7545166015625 106.66903686523438 195.7545166015625 106.66903686523438 " />
        <polyline stroke="black" stroke-width="3" stroke-linecap="round" fill="transparent" stroke-linejoin="round" points="172.89202880859375 73.76942443847656 174.56488037109375 94.95899963378906 175.68017578125 117.82144165039063 175.12255859375 139.56863403320313 173.44964599609375 156.29725646972656 169.54632568359375 170.79537963867188 165.0853271484375 180.27493286132813 159.5091552734375 185.85113525390625 151.14483642578125 189.1968688964844 135.53146362304688 186.96636962890625 135.53146362304688 186.96636962890625 " />
        </svg>