<?xml version="1.0" standalone="no"?>
    <svg width="256" height="256" xmlns="http://www.w3.org/2000/svg" version="1.1">
    <polyline stroke="black" stroke-width="3" stroke-linecap="round" fill="transparent" stroke-linejoin="round" points="42.6773681640625 153.64796447753906 59.320037841796875 144.73223876953125 72.39642333984375 138.1940460205078 87.25592041015625 131.0614776611328 102.7098388671875 123.3345184326172 119.3525390625 116.2019500732422 134.2120361328125 110.85252380371094 143.72213745117188 106.09747314453124 150.26031494140625 101.34242248535156 153.23223876953125 93.61546325683594 153.23223876953125 93.61546325683594 " />
        <polyline stroke="black" stroke-width="3" stroke-linecap="round" fill="transparent" stroke-linejoin="round" points="110.43679809570313 49.63127136230469 112.21994018554688 63.302032470703125 114.00311279296876 93.02108764648438 114.59747314453124 117.39071655273438 115.19183349609376 142.35472106933594 114.59747314453124 160.1861572265625 112.8143310546875 175.04568481445313 109.248046875 184.5557861328125 103.89862060546876 191.09396362304688 93.79412841796876 194.6602478027344 76.55706787109375 193.47149658203125 76.55706787109375 193.47149658203125 " />
        <polyline stroke="black" stroke-width="3" stroke-linecap="round" fill="transparent" stroke-linejoin="round" points="165.7142333984375 140.5715789794922 182.9512939453125 132.84461975097656 196.6220703125 127.49519348144533 212.075927734375 122.74014282226563 225.7467041015625 118.5794677734375 236.445556640625 115.01318359375 243.578125 110.85252380371094 247.73883056640625 103.12556457519533 247.73883056640625 103.12556457519533 " />
        <polyline stroke="black" stroke-width="3" stroke-linecap="round" fill="transparent" stroke-linejoin="round" points="199.593994140625 33.582977294921875 203.754638671875 48.4425048828125 207.915283203125 74.59527587890625 211.4815673828125 113.82443237304688 210.88720703125 144.73223876953125 208.5096435546875 172.0737762451172 204.943359375 190.49957275390625 201.3770751953125 204.7647399902344 198.40521240234375 210.70855712890625 193.650146484375 213.68045043945313 184.14007568359375 209.519775390625 184.14007568359375 209.519775390625 " />
        </svg>