<?xml version="1.0" standalone="no"?>
    <svg width="256" height="256" xmlns="http://www.w3.org/2000/svg" version="1.1">
    <polyline stroke="black" stroke-width="3" stroke-linecap="round" fill="transparent" stroke-linejoin="round" points="74.01400756835938 63.720489501953125 80.64532470703125 73.44638061523438 85.066162109375 82.28811645507813 89.487060546875 93.34027099609376 93.90789794921876 106.60284423828124 100.98129272460938 133.5701141357422 104.96005249023438 157.44277954101563 105.84423828125 176.01040649414063 104.07589721679688 188.83090209960935 101.86544799804688 196.7884521484375 99.212890625 199.883056640625 96.11834716796876 199.883056640625 94.3499755859375 198.55679321289065 94.3499755859375 198.55679321289065 " />
        <polyline stroke="black" stroke-width="3" stroke-linecap="round" fill="transparent" stroke-linejoin="round" points="41.74169921875 108.81329345703124 46.162567138671875 123.84422302246094 47.488861083984375 130.9176025390625 47.488861083984375 160.09530639648438 46.60467529296875 172.91580200195313 46.162567138671875 176.8945770263672 46.162567138671875 178.2208251953125 46.60467529296875 177.7787322998047 48.373016357421875 176.8945770263672 55.446380615234375 173.35787963867188 73.12985229492188 161.86363220214844 81.08740234375 155.67442321777344 81.08740234375 155.67442321777344 " />
        <polyline stroke="black" stroke-width="3" stroke-linecap="round" fill="transparent" stroke-linejoin="round" points="143.42156982421875 80.96185302734375 135.4639892578125 90.24566650390624 134.13775634765625 92.45608520507813 133.25360107421875 94.66653442382813 133.25360107421875 101.29782104492188 134.13775634765625 103.95034790039063 138.11654663085938 112.79208374023438 142.537353515625 118.09710693359376 147.8424072265625 122.5179443359375 154.4737548828125 125.17047119140624 154.4737548828125 125.17047119140624 " />
        <polyline stroke="black" stroke-width="3" stroke-linecap="round" fill="transparent" stroke-linejoin="round" points="187.63018798828125 50.89998626708984 182.32513427734375 69.90969848632813 179.2305908203125 84.49853515625 173.4833984375 109.69744873046876 167.736328125 128.26507568359375 163.75750732421875 137.99099731445313 157.126220703125 152.1377410888672 151.37908935546875 162.747802734375 149.61077880859375 165.8424072265625 149.16867065429688 166.28448486328125 152.70538330078125 165.8424072265625 156.68414306640625 164.5161590576172 177.462158203125 157.88485717773438 185.86181640625 154.79025268554688 210.61865234375 143.73809814453125 228.7442626953125 131.8017578125 236.7017822265625 124.28630065917967 236.7017822265625 124.28630065917967 " />
        <polyline stroke="black" stroke-width="3" stroke-linecap="round" fill="transparent" stroke-linejoin="round" points="249.52227783203125 45.594940185546875 236.7017822265625 51.784149169921875 227.86004638671875 66.81509399414063 219.9024658203125 91.57192993164063 216.3658447265625 105.27659606933594 210.61865234375 144.18017578125 207.9661865234375 167.16867065429688 206.639892578125 176.45248413085938 202.218994140625 198.9989013671875 197.7982177734375 217.5665283203125 197.7982177734375 217.5665283203125 " />
        </svg>