<?xml version="1.0" standalone="no"?>
    <svg width="256" height="256" xmlns="http://www.w3.org/2000/svg" version="1.1">
    <polyline stroke="black" stroke-width="3" stroke-linecap="round" fill="transparent" stroke-linejoin="round" points="86.30059814453125 81.13175964355469 86.7122802734375 105.83041381835938 87.12396240234375 130.52906799316406 87.94723510742188 149.87637329101563 88.35888671875 164.28392028808594 88.7705078125 173.34010314941406 87.94723510742188 181.984619140625 86.7122802734375 188.5709228515625 84.242431640625 189.80587768554688 84.242431640625 189.80587768554688 " />
        <polyline stroke="black" stroke-width="3" stroke-linecap="round" fill="transparent" stroke-linejoin="round" points="47.1943359375 126.00100708007813 49.66424560546875 138.35032653808594 52.1341552734375 150.69964599609375 52.1341552734375 150.69964599609375 " />
        <polyline stroke="black" stroke-width="3" stroke-linecap="round" fill="transparent" stroke-linejoin="round" points="43.489593505859375 159.75582885742188 57.89715576171875 148.2297821044922 72.30471801757813 136.7037353515625 72.30471801757813 136.7037353515625 " />
        <polyline stroke="black" stroke-width="3" stroke-linecap="round" fill="transparent" stroke-linejoin="round" points="112.23416137695313 98.42080688476558 106.47119140625 111.59342956542967 100.70822143554688 124.76605224609376 94.53353881835938 138.35032653808594 92.47531127929688 141.23182678222656 92.47531127929688 141.23182678222656 " />
        <polyline stroke="black" stroke-width="3" stroke-linecap="round" fill="transparent" stroke-linejoin="round" points="102.35479736328124 139.99691772460938 112.2342529296875 142.87841796875 122.11370849609376 145.75991821289063 129.5233154296875 147.81814575195313 129.5233154296875 147.81814575195313 " />
        <polyline stroke="black" stroke-width="3" stroke-linecap="round" fill="transparent" stroke-linejoin="round" points="147.22402954101563 79.89680480957027 144.754150390625 99.2440948486328 142.28427124023438 118.59138488769533 141.87261962890625 126.0009765625 141.87261962890625 132.9989471435547 142.28427124023438 138.761962890625 143.93087768554688 141.64346313476563 150.92880249023438 140.40855407714844 166.98291015625 132.5872802734375 182.2137451171875 125.58932495117188 194.9747314453125 121.88453674316406 199.09124755859375 121.06124877929688 199.09124755859375 121.06124877929688 " />
        <polyline stroke="black" stroke-width="3" stroke-linecap="round" fill="transparent" stroke-linejoin="round" points="188.3885498046875 62.60772705078125 191.681640625 106.24205017089844 194.9747314453125 149.87637329101563 198.2679443359375 187.7476501464844 200.32611083984375 212.85797119140625 200.32611083984375 229.32376098632813 200.32611083984375 237.14495849609375 200.32611083984375 237.14495849609375 " />
        </svg>