<?xml version="1.0" standalone="no"?>
    <svg width="256" height="256" xmlns="http://www.w3.org/2000/svg" version="1.1">
    <polyline stroke="black" stroke-width="3" stroke-linecap="round" fill="transparent" stroke-linejoin="round" points="51 85 55 95 55 99 55 114 55 138 55 164 55 185 55 201 55 208 55 210 55 211 54 209 46 196 46 196 " />
        <polyline stroke="black" stroke-width="3" stroke-linecap="round" fill="transparent" stroke-linejoin="round" points="9 146 14 146 24 146 37 145 46 145 46 145 " />
        <polyline stroke="black" stroke-width="3" stroke-linecap="round" fill="transparent" stroke-linejoin="round" points="8 209 14 204 26 194 40 180 40 180 " />
        <polyline stroke="black" stroke-width="3" stroke-linecap="round" fill="transparent" stroke-linejoin="round" points="99 121 94 126 84 134 69 147 56 156 56 156 " />
        <polyline stroke="black" stroke-width="3" stroke-linecap="round" fill="transparent" stroke-linejoin="round" points="69 172 75 173 81 173 89 176 96 180 104 184 111 189 116 192 120 194 121 194 121 194 " />
        <polyline stroke="black" stroke-width="3" stroke-linecap="round" fill="transparent" stroke-linejoin="round" points="148 67 149 82 149 102 149 124 149 130 149 130 " />
        <polyline stroke="black" stroke-width="3" stroke-linecap="round" fill="transparent" stroke-linejoin="round" points="114 164 137 155 153 150 167 144 180 139 191 135 198 131 199 130 199 130 " />
        <polyline stroke="black" stroke-width="3" stroke-linecap="round" fill="transparent" stroke-linejoin="round" points="181 56 182 63 182 82 182 108 182 135 183 157 185 173 186 182 187 184 187 187 187 194 187 194 " />
        </svg>