<?xml version="1.0" standalone="no"?>
    <svg width="256" height="256" xmlns="http://www.w3.org/2000/svg" version="1.1">
    <polyline stroke="black" stroke-width="3" stroke-linecap="round" fill="transparent" stroke-linejoin="round" points="49.16067026964447 102.94291111046788 53.62409505441303 103.2617271665228 60.63804828762068 103.58054322257767 65.42028912844421 103.58054322257767 70.84016208137746 103.58054322257767 84.549252491738 103.58054322257767 100.17123923842792 102.624095054413 117.06849020933748 101.66764688624828 134.2845572363019 101.03001477413852 149.58772792693708 99.43593449386404 162.97800228124265 97.52303815753464 172.5424839628896 95.61014182120527 177.96235691582285 94.65369365304056 180.51288536426205 94.65369365304056 180.8317014203169 95.29132576515036 180.8317014203169 95.29132576515036 " />
        <polyline stroke="black" stroke-width="3" stroke-linecap="round" fill="transparent" stroke-linejoin="round" points="137.7915338529058 47.46891735691579 137.7915338529058 54.16405453406864 137.7915338529058 59.58392748700189 137.7915338529058 65.96024860809982 137.7915338529058 81.90105141084467 137.47271779685093 98.47948632569933 134.9221893484117 115.69555335266378 129.5023163954785 133.86806854779292 121.85073105016102 151.72176768686714 112.28624936851406 168.9378347138316 103.04058374292208 183.28455723630196 95.3889983976045 193.16785497400377 88.37504516439674 199.2253600390468 82.95517221146349 201.45707243143107 80.08582770696944 202.0947045435409 77.85411531458521 203.3699687677605 77.85411531458521 203.3699687677605 " />
        <polyline stroke="black" stroke-width="3" stroke-linecap="round" fill="transparent" stroke-linejoin="round" points="96.66426262182416 133.86806854779292 99.21479107026325 137.69386122045168 102.72176768686712 142.15728600522024 111.01098514429452 151.72176768686714 120.89428288199632 161.28624936851406 131.41521273180786 169.5754668259414 143.21140680583903 178.1835003394236 154.68878482381535 187.11034990896076 164.89089861757213 194.76193525427828 173.18011607499943 201.13825637537624 180.1940693082072 205.6016811601448 185.29512620508547 207.51457749647415 189.43973493379917 208.15220960858392 193.58434366251277 208.15220960858392 198.3665845033363 207.51457749647415 198.3665845033363 207.51457749647415 " />
        <polyline stroke="black" stroke-width="3" stroke-linecap="round" fill="transparent" stroke-linejoin="round" points="155.32641693592518 152.99703191108674 154.05115271170553 157.77927275191018 152.13825637537616 163.19914570484346 146.39956736638806 176.58942005914912 140.9796944134548 189.9796944134548 136.51626962868625 202.4135205995958 133.96574118024705 209.10865777674863 133.96574118024705 209.10865777674863 " />
        </svg>