<?xml version="1.0" standalone="no"?>
    <svg width="256" height="256" xmlns="http://www.w3.org/2000/svg" version="1.1">
    <polyline stroke="black" stroke-width="3" stroke-linecap="round" fill="transparent" stroke-linejoin="round" points="82 55 81 55 80 60 78 69 75 82 71 96 67 110 61 128 57 138 55 147 52 153 51 158 51 160 51 161 " />
        <polyline stroke="black" stroke-width="3" stroke-linecap="round" fill="transparent" stroke-linejoin="round" points="61 130 62 131 66 134 71 137 75 141 78 145 81 149 85 152 90 155 95 155 98 154 " />
        <polyline stroke="black" stroke-width="3" stroke-linecap="round" fill="transparent" stroke-linejoin="round" points="130 62 130 62 127 67 123 76 115 94 110 107 105 120 101 133 99 144 96 153 95 159 94 163 95 164 96 163 " />
        <polyline stroke="black" stroke-width="3" stroke-linecap="round" fill="transparent" stroke-linejoin="round" points="119 115 120 117 126 123 129 127 132 131 134 133 138 139 141 142 146 145 151 146 155 145 158 144 " />
        <polyline stroke="black" stroke-width="3" stroke-linecap="round" fill="transparent" stroke-linejoin="round" points="181 67 179 69 177 77 173 87 169 100 164 113 160 126 156 138 153 149 149 162 148 168 147 170 148 171 148 169 " />
        <polyline stroke="black" stroke-width="3" stroke-linecap="round" fill="transparent" stroke-linejoin="round" points="160 141 162 141 168 143 174 146 180 151 187 157 193 164 200 173 203 178 207 182 " />
        </svg>