<?xml version="1.0" standalone="no"?>
    <svg width="256" height="256" xmlns="http://www.w3.org/2000/svg" version="1.1">
    <polyline stroke="black" stroke-width="3" stroke-linecap="round" fill="transparent" stroke-linejoin="round" points="78.58407592773438 92.99856567382813 74.1246337890625 111.82720947265624 64.21481323242188 144.03416442871094 60.25091552734375 153.44847106933594 56.286956787109375 161.87185668945313 49.35009765625 174.75460815429688 43.4041748046875 183.17794799804688 38.94476318359375 188.62835693359375 35.97186279296875 191.10580444335935 34.4853515625 191.601318359375 33.9898681640625 191.601318359375 32.998870849609375 189.12384033203125 34.4853515625 183.67344665527344 38.94476318359375 176.24107360839844 42.90869140625 170.295166015625 46.872650146484375 165.3402557373047 51.82757568359375 161.37632751464844 57.2779541015625 158.89889526367188 62.728363037109375 158.40338134765625 68.67425537109375 159.88986206054688 74.6201171875 163.3583221435547 80.070556640625 168.31321716308594 83.04345703125 171.28616333007813 90.97137451171876 179.21401977539063 92.95330810546876 181.19598388671875 94.93527221679688 182.68246459960935 94.93527221679688 182.68246459960935 " />
        <polyline stroke="black" stroke-width="3" stroke-linecap="round" fill="transparent" stroke-linejoin="round" points="158.8536376953125 84.0797119140625 152.4122314453125 97.45797729492188 128.628662109375 139.57473754882813 120.70086669921876 152.45750427246094 107.32260131835938 172.7726287841797 98.899169921875 183.67344665527344 94.43978881835938 188.62835693359375 92.95330810546876 190.11480712890625 92.95330810546876 190.11480712890625 " />
        <polyline stroke="black" stroke-width="3" stroke-linecap="round" fill="transparent" stroke-linejoin="round" points="137.052001953125 163.85379028320313 142.9979248046875 168.31321716308594 154.8897705078125 177.2320556640625 167.2769775390625 186.6463928222656 177.186767578125 194.07876586914065 180.1597900390625 196.55621337890625 180.1597900390625 196.55621337890625 " />
        </svg>