<?xml version="1.0" standalone="no"?>
    <svg width="256" height="256" xmlns="http://www.w3.org/2000/svg" version="1.1">
    <polyline stroke="black" stroke-width="3" stroke-linecap="round" fill="transparent" stroke-linejoin="round" points="89.166015625 69.10714721679688 85.6385498046875 83.21707153320313 78.07965087890625 110.93299865722656 72.53646850585938 128.0664825439453 65.48150634765625 146.7117462158203 55.90692138671875 166.3648681640625 50.867645263671875 175.93946838378906 48.3480224609375 180.97872924804688 47.340179443359375 180.97872924804688 47.340179443359375 180.97872924804688 " />
        <polyline stroke="black" stroke-width="3" stroke-linecap="round" fill="transparent" stroke-linejoin="round" points="88.158203125 126.05078125 92.69351196289063 132.097900390625 99.24456787109376 138.64894104003906 106.29949951171876 145.7039031982422 112.34661865234376 151.75100708007813 117.38589477539063 156.28634643554688 125.95263671875 158.3020477294922 125.95263671875 158.3020477294922 " />
        <polyline stroke="black" stroke-width="3" stroke-linecap="round" fill="transparent" stroke-linejoin="round" points="160.2196044921875 62.05218505859375 158.70782470703125 73.1385498046875 154.1724853515625 97.32699584960938 148.62930297851563 123.53115844726563 143.08612060546875 144.19212341308594 137.54293823242188 159.81382751464844 132.503662109375 170.90020751953125 127.96832275390624 176.44338989257813 127.96832275390624 176.44338989257813 " />
        <polyline stroke="black" stroke-width="3" stroke-linecap="round" fill="transparent" stroke-linejoin="round" points="149.63714599609375 128.57041931152344 156.188232421875 133.60968017578125 166.2667236328125 142.6803436279297 177.35308837890625 154.27064514160156 187.935546875 166.86878967285156 194.990478515625 176.44338989257813 199.52587890625 182.99444580078125 203.5572509765625 190.5533142089844 203.5572509765625 190.5533142089844 " />
        </svg>