<?xml version="1.0" standalone="no"?>
    <svg width="256" height="256" xmlns="http://www.w3.org/2000/svg" version="1.1">
    <polyline stroke="black" stroke-width="3" stroke-linecap="round" fill="transparent" stroke-linejoin="round" points="87.14727783203125 82.51161193847656 83.37030029296875 93.42294311523438 74.13763427734375 116.08494567871094 67.84262084960938 129.09458923339844 56.9312744140625 151.75657653808594 48.1182861328125 166.44491577148438 41.82330322265625 174.41856384277344 37.62664794921875 178.615234375 36.78729248046875 179.45457458496094 36.78729248046875 179.45457458496094 " />
        <polyline stroke="black" stroke-width="3" stroke-linecap="round" fill="transparent" stroke-linejoin="round" points="86.30795288085938 140.84524536132813 91.34393310546876 143.78292846679688 103.09457397460938 149.6582489013672 119.46160888671876 154.69424438476563 123.23858642578124 155.11392211914063 123.23858642578124 155.11392211914063 " />
        <polyline stroke="black" stroke-width="3" stroke-linecap="round" fill="transparent" stroke-linejoin="round" points="155.97259521484375 104.7539520263672 146.32025146484375 123.63894653320313 141.70391845703125 132.87158203125 129.5335693359375 155.5335693359375 123.23858642578124 165.60557556152344 119.04193115234376 171.90057373046875 117.36325073242188 174.41856384277344 117.36325073242188 174.41856384277344 " />
        <polyline stroke="black" stroke-width="3" stroke-linecap="round" fill="transparent" stroke-linejoin="round" points="166.0445556640625 149.2385711669922 171.08056640625 153.43524169921875 176.5362548828125 158.4712371826172 182.41156005859375 164.7662353515625 188.286865234375 171.90057373046875 188.286865234375 171.90057373046875 " />
        </svg>