<?xml version="1.0" standalone="no"?>
    <svg width="256" height="256" xmlns="http://www.w3.org/2000/svg" version="1.1">
    <polyline stroke="black" stroke-width="3" stroke-linecap="round" fill="transparent" stroke-linejoin="round" points="52.1181640625 108.44712829589844 45.58172607421875 137.861083984375 45.58172607421875 141.78294372558594 46.23529052734375 157.47036743164063 47.5426025390625 165.96775817871094 49.5035400390625 170.54324340820313 53.4254150390625 171.19688415527344 55.38641357421875 168.5823211669922 55.38641357421875 168.5823211669922 " />
        <polyline stroke="black" stroke-width="3" stroke-linecap="round" fill="transparent" stroke-linejoin="round" points="50.81085205078125 126.0955047607422 58.00091552734375 108.44712829589844 70.42010498046875 97.33518981933594 72.38104248046875 96.02789306640624 80.22479248046875 92.10604858398438 88.72210693359375 90.14512634277344 95.9122314453125 93.41334533691406 99.8341064453125 102.5643310546875 101.7950439453125 118.25177001953124 102.44866943359376 126.74913024902344 102.44866943359376 146.3584442138672 101.7950439453125 160.08494567871094 101.14141845703124 162.6995086669922 100.48773193359376 162.0458984375 100.48773193359376 162.0458984375 " />
        <polyline stroke="black" stroke-width="3" stroke-linecap="round" fill="transparent" stroke-linejoin="round" points="74.34197998046875 116.29086303710938 70.42010498046875 141.12930297851563 71.07379150390625 144.3975067138672 71.72747802734375 160.7386016845703 70.42010498046875 165.31411743164063 70.42010498046875 165.31411743164063 " />
        <polyline stroke="black" stroke-width="3" stroke-linecap="round" fill="transparent" stroke-linejoin="round" points="61.26910400390625 160.7386016845703 73.03466796875 143.74388122558594 74.99566650390625 143.0902099609375 86.10760498046875 147.0120849609375 86.10760498046875 148.9730224609375 86.10760498046875 156.1630859375 86.10760498046875 156.1630859375 " />
        <polyline stroke="black" stroke-width="3" stroke-linecap="round" fill="transparent" stroke-linejoin="round" points="69.7664794921875 175.1187744140625 91.3367919921875 170.54324340820313 94.60498046875 168.5823211669922 122.71160888671876 147.6657257080078 122.71160888671876 147.6657257080078 " />
        <polyline stroke="black" stroke-width="3" stroke-linecap="round" fill="transparent" stroke-linejoin="round" points="133.16986083984375 85.56962585449219 129.24798583984375 111.71533203125 129.90167236328125 114.32991027832033 132.51629638671875 126.0955047607422 133.8236083984375 124.1345672607422 133.8236083984375 124.1345672607422 " />
        <polyline stroke="black" stroke-width="3" stroke-linecap="round" fill="transparent" stroke-linejoin="round" points="130.55535888671875 105.83255004882813 141.01361083984375 88.18418884277344 151.47186279296875 82.3013916015625 175.65667724609375 80.99411010742188 176.9639892578125 82.3013916015625 182.8468017578125 92.10604858398438 184.8077392578125 101.25704956054688 185.46136474609375 111.06169128417967 184.8077392578125 124.7882080078125 183.50042724609375 127.4027862548828 183.50042724609375 127.4027862548828 " />
        <polyline stroke="black" stroke-width="3" stroke-linecap="round" fill="transparent" stroke-linejoin="round" points="159.31561279296875 92.75968933105467 152.77923583984375 111.06169128417967 152.77923583984375 113.67626953125 148.85736083984375 128.05642700195313 148.20367431640625 129.36373901367188 146.89642333984375 130.67100524902344 146.89642333984375 130.67100524902344 " />
        <polyline stroke="black" stroke-width="3" stroke-linecap="round" fill="transparent" stroke-linejoin="round" points="140.3599853515625 120.86634826660156 158.00836181640625 106.4862060546875 165.85205078125 109.10076904296876 167.15936279296875 111.71533203125 167.15936279296875 114.98356628417967 167.15936279296875 114.98356628417967 " />
        <polyline stroke="black" stroke-width="3" stroke-linecap="round" fill="transparent" stroke-linejoin="round" points="150.81829833984375 128.05642700195313 166.5057373046875 118.25177001953124 168.46661376953125 117.59812927246094 178.27130126953125 118.25177001953124 180.23223876953125 120.86634826660156 180.8858642578125 122.1736297607422 180.8858642578125 122.1736297607422 " />
        <polyline stroke="black" stroke-width="3" stroke-linecap="round" fill="transparent" stroke-linejoin="round" points="151.47186279296875 150.93394470214844 136.4381103515625 172.50418090820313 135.78448486328125 176.426025390625 133.8236083984375 203.87905883789065 133.8236083984375 207.14727783203125 133.8236083984375 216.29827880859375 134.4771728515625 219.5664978027344 137.09173583984375 212.37643432617188 137.09173583984375 212.37643432617188 " />
        <polyline stroke="black" stroke-width="3" stroke-linecap="round" fill="transparent" stroke-linejoin="round" points="137.745361328125 190.80618286132813 141.01361083984375 173.8114471435547 142.97454833984375 169.2359619140625 154.08648681640625 158.1240234375 159.31561279296875 154.85581970214844 173.04217529296875 148.9730224609375 177.61761474609375 147.6657257080078 189.38323974609375 151.5875701904297 191.34417724609375 159.43130493164063 191.34417724609375 171.19688415527344 186.7686767578125 194.72808837890625 182.8468017578125 203.87905883789065 178.27130126953125 209.10821533203125 175.65667724609375 207.80093383789065 175.65667724609375 207.80093383789065 " />
        <polyline stroke="black" stroke-width="3" stroke-linecap="round" fill="transparent" stroke-linejoin="round" points="161.93017578125 167.2750244140625 158.6619873046875 187.5379638671875 158.00836181640625 194.07443237304688 153.43280029296875 208.45455932617188 151.47186279296875 208.45455932617188 151.47186279296875 208.45455932617188 " />
        <polyline stroke="black" stroke-width="3" stroke-linecap="round" fill="transparent" stroke-linejoin="round" points="146.24273681640625 198.64990234375 160.6229248046875 182.3088226318359 162.5838623046875 181.6551971435547 172.38848876953125 186.23068237304688 173.04217529296875 188.19161987304688 173.69573974609375 190.15255737304688 173.69573974609375 190.15255737304688 " />
        <polyline stroke="black" stroke-width="3" stroke-linecap="round" fill="transparent" stroke-linejoin="round" points="150.16461181640625 208.45455932617188 163.89111328125 199.30355834960935 186.11505126953125 197.34262084960935 201.14886474609375 208.45455932617188 201.14886474609375 208.45455932617188 " />
        </svg>