<?xml version="1.0" standalone="no"?>
    <svg width="256" height="256" xmlns="http://www.w3.org/2000/svg" version="1.1">
    <polyline stroke="black" stroke-width="3" stroke-linecap="round" fill="transparent" stroke-linejoin="round" points="18.235512832319387 86.68329225166815 17.91669677626453 90.50908492432691 18.235512832319387 97.52303815753464 18.873144944429217 102.30527899835808 20.148409168648755 108.68160011945604 23.01775367314292 121.43424236165194 25.249466065527145 133.23043643568312 27.162362401856512 142.15728600522024 28.437626626076167 148.8524231823731 29.07525873818588 154.59111219136122 29.39407479424085 160.01098514429447 29.39407479424085 160.01098514429447 " />
        <polyline stroke="black" stroke-width="3" stroke-linecap="round" fill="transparent" stroke-linejoin="round" points="25.88709817763697 88.59618858799752 30.66933901846039 88.27737253194263 40.87145281221706 88.27737253194263 47.2477739333151 87.63974041983283 54.261727166522746 87.00210830772303 67.9708175768834 85.40802802744855 80.4046437630243 83.81394774717407 89.01267727650657 83.81394774717407 94.4325502294398 84.77039591533875 97.30189473393386 89.87145281221711 98.25834290209856 97.84185421358951 98.57715895815352 109.63804828762072 98.57715895815352 123.9847708100911 97.62071078998883 137.3750451643968 96.34544656576918 148.8524231823731 95.07018234154964 157.4604566958553 93.47610206127511 160.64861725640426 93.15728600522029 160.96743331245918 93.15728600522029 160.96743331245918 " />
        <polyline stroke="black" stroke-width="3" stroke-linecap="round" fill="transparent" stroke-linejoin="round" points="56.174623502852114 93.69724548487588 54.58054322257772 100.7111987180836 54.58054322257772 105.81225561496196 54.58054322257772 112.5073927921148 56.174623502852114 127.17293137064009 58.0875198391816 140.56320572494576 59.68160011945599 152.99703191108674 60.31923223156582 163.19914570484346 60.31923223156582 166.7061223214473 60.31923223156582 166.7061223214473 " />
        <polyline stroke="black" stroke-width="3" stroke-linecap="round" fill="transparent" stroke-linejoin="round" points="42.14671703643671 132.91162037962823 42.46553309249157 133.23043643568312 47.885406045424816 133.23043643568312 56.81225561496194 133.86806854779292 62.23212856789519 134.1868846038478 67.65200152082843 134.1868846038478 77.53529925853024 134.1868846038478 85.50570065990269 131.63635615540863 85.50570065990269 131.63635615540863 " />
        <polyline stroke="black" stroke-width="3" stroke-linecap="round" fill="transparent" stroke-linejoin="round" points="38.95855647588769 160.96743331245918 43.74079731671122 163.83677781695323 51.392382662028695 163.83677781695323 56.493439558907085 163.83677781695323 62.55094462395016 163.83677781695323 74.66595475403619 163.83677781695323 85.82451671595766 159.69216908823958 91.88202178100062 157.4604566958553 91.88202178100062 157.4604566958553 " />
        <polyline stroke="black" stroke-width="3" stroke-linecap="round" fill="transparent" stroke-linejoin="round" points="118.662570489612 45.556021020586414 117.38730626539244 55.75813481434312 117.38730626539244 61.17800776727637 117.38730626539244 67.23551283231942 117.38730626539244 79.3505229624055 118.02493837750217 91.78434914854648 118.98138654566684 101.66764688624828 119.93783471383152 105.49343955890708 119.93783471383152 105.49343955890708 " />
        <polyline stroke="black" stroke-width="3" stroke-linecap="round" fill="transparent" stroke-linejoin="round" points="118.34375443355714 46.19365313269621 121.2130989380512 44.28075679636683 129.5023163954785 44.28075679636683 134.9221893484117 44.28075679636683 140.9796944134548 44.28075679636683 152.45707243143113 44.28075679636683 162.97800228124265 44.59957285242173 171.26721973867006 47.1501013008609 176.36827663554834 51.29471002957456 179.87525325215222 55.43931875828824 182.10696564453656 59.265111430947 183.3822298687561 62.45327199149597 184.01986198086593 64.68498438388025 184.3386780369208 65.96024860809982 184.3386780369208 67.55432888837433 184.3386780369208 70.7424894489233 182.74459775664627 76.79999451396634 178.91880508398754 84.13276380322895 175.0930124113288 92.7407973167112 171.58603579472492 101.03001477413852 169.67313945839555 107.40633589523644 169.03550734628573 110.27568039973052 169.03550734628573 110.27568039973052 " />
        <polyline stroke="black" stroke-width="3" stroke-linecap="round" fill="transparent" stroke-linejoin="round" points="144.4866710300587 56.07695087039801 142.25495863767435 60.221559599111686 142.25495863767435 66.27906466415473 142.25495863767435 74.88709817763694 142.25495863767435 83.81394774717407 142.57377469372932 92.1031652046014 144.16785497400372 99.11711843780913 144.80548708611354 101.66764688624828 144.80548708611354 101.66764688624828 " />
        <polyline stroke="black" stroke-width="3" stroke-linecap="round" fill="transparent" stroke-linejoin="round" points="125.67652372281977 80.30697113057019 130.77758061969814 79.3505229624055 140.02324624529012 79.3505229624055 144.80548708611354 79.66933901846042 150.54417609510176 80.94460324267999 160.1086577767486 83.49513169111918 168.3978752341759 85.40802802744855 174.45538029921897 85.72684408350347 178.59998902793268 85.72684408350347 178.59998902793268 85.72684408350347 " />
        <polyline stroke="black" stroke-width="3" stroke-linecap="round" fill="transparent" stroke-linejoin="round" points="123.76362738649038 101.03001477413852 127.58942005914912 103.58054322257767 134.9221893484117 104.21817533468749 139.3856141331803 104.85580744679729 144.80548708611354 105.17462350285216 155.64523299198004 105.81225561496196 161.38392200096823 107.08751983918155 161.38392200096823 107.08751983918155 " />
        <polyline stroke="black" stroke-width="3" stroke-linecap="round" fill="transparent" stroke-linejoin="round" points="125.67652372281977 141.51965389311044 125.03889161070992 150.12768740659266 125.03889161070992 155.5475603595259 125.3577076667649 161.28624936851406 126.31415583492958 173.40125949860015 127.58942005914912 183.9221893484117 127.90823611520398 192.2114068058391 128.86468428336866 196.03719947849785 128.86468428336866 196.03719947849785 " />
        <polyline stroke="black" stroke-width="3" stroke-linecap="round" fill="transparent" stroke-linejoin="round" points="124.4012594986001 140.56320572494576 124.4012594986001 141.20083783705556 129.82113245153334 141.20083783705556 139.3856141331803 141.20083783705556 145.76193525427823 140.88202178100065 152.775888487486 139.92557361283596 166.48497889784653 138.01267727650657 178.59998902793268 137.69386122045168 187.84565465352463 137.69386122045168 192.94671155040305 138.01267727650657 196.45368816700693 139.60675755678105 198.68540055939116 140.88202178100065 199.64184872755584 142.47610206127513 200.27948083966567 144.0701823415496 200.59829689572052 146.9395268460437 200.59829689572052 152.04058374292205 200.59829689572052 159.3733530321847 197.72895239122647 168.6190186577767 194.8596078867324 177.86468428336872 191.99026338223837 186.79153385290584 189.75855098985403 195.39956736638808 187.84565465352463 200.8194403193213 185.9327583171953 204.3264169359252 184.9763101490306 205.6016811601448 184.9763101490306 205.6016811601448 " />
        <polyline stroke="black" stroke-width="3" stroke-linecap="round" fill="transparent" stroke-linejoin="round" points="155.64523299198004 141.51965389311044 154.68878482381535 146.9395268460437 156.28286510408986 154.59111219136122 157.5581293283094 165.4308580972277 158.5145774964741 177.86468428336872 158.5145774964741 189.6608783573999 157.5581293283094 197.31246370271745 156.28286510408986 199.86299215115665 155.00760087987032 200.8194403193213 155.00760087987032 200.8194403193213 " />
        <polyline stroke="black" stroke-width="3" stroke-linecap="round" fill="transparent" stroke-linejoin="round" points="137.47271779685093 168.9378347138316 141.61732652556464 169.89428288199628 150.86299215115662 169.89428288199628 156.9204972161997 170.2130989380512 163.29681833729762 170.2130989380512 175.73064452343863 170.2130989380512 186.57039042930512 168.6190186577767 193.58434366251277 167.3437544335571 195.49723999884225 167.3437544335571 195.49723999884225 167.3437544335571 " />
        <polyline stroke="black" stroke-width="3" stroke-linecap="round" fill="transparent" stroke-linejoin="round" points="132.05284484391768 197.6312797587723 137.15390174079607 201.13825637537624 147.99364764666257 201.13825637537624 162.02155411307797 201.13825637537624 176.36827663554834 200.8194403193213 190.39618310196383 200.8194403193213 196.45368816700693 200.8194403193213 196.45368816700693 200.8194403193213 " />
        </svg>