<?xml version="1.0" standalone="no"?>
    <svg width="256" height="256" xmlns="http://www.w3.org/2000/svg" version="1.1">
    <polyline stroke="black" stroke-width="3" stroke-linecap="round" fill="transparent" stroke-linejoin="round" points="77.0166015625 43.10029602050781 82.59283447265625 58.71366882324219 85.93853759765625 70.9813232421875 89.28427124023438 84.36421203613281 92.0723876953125 96.63186645507813 92.0723876953125 96.63186645507813 " />
        <polyline stroke="black" stroke-width="3" stroke-linecap="round" fill="transparent" stroke-linejoin="round" points="98.2061767578125 43.10029602050781 111.589111328125 36.96647644042969 123.29913330078124 33.620750427246094 136.6820068359375 30.83264923095703 151.18017578125 30.83264923095703 162.89013671875 32.50550842285156 169.58160400390625 35.851234436035156 173.4849853515625 40.86981964111328 175.1578369140625 49.79174041748047 171.8121337890625 63.73225402832031 160.10205078125 84.36421203613281 160.10205078125 84.36421203613281 " />
        <polyline stroke="black" stroke-width="3" stroke-linecap="round" fill="transparent" stroke-linejoin="round" points="99.87905883789063 73.76942443847656 109.35861206054688 69.30845642089844 118.838134765625 67.07797241210938 130.54818725585938 65.40512084960938 142.25820922851563 64.28987121582031 151.73779296875 63.73225402832031 157.87158203125 63.73225402832031 161.77490234375 65.40512084960938 161.77490234375 65.40512084960938 " />
        <polyline stroke="black" stroke-width="3" stroke-linecap="round" fill="transparent" stroke-linejoin="round" points="99.87905883789063 101.65045166015624 114.934814453125 97.74710083007813 124.97198486328124 95.51661682128906 135.5667724609375 93.2861328125 144.48870849609375 92.1708984375 150.06488037109375 92.1708984375 150.06488037109375 92.1708984375 " />
        <polyline stroke="black" stroke-width="3" stroke-linecap="round" fill="transparent" stroke-linejoin="round" points="59.73040771484375 137.33815002441406 78.13186645507813 131.20433044433594 100.99432373046876 125.6281280517578 133.3363037109375 120.60954284667967 156.19873046875 116.70619201660156 173.4849853515625 113.3604736328125 187.42547607421875 110.57237243652344 194.116943359375 108.89950561523438 196.905029296875 108.89950561523438 196.905029296875 108.89950561523438 " />
        <polyline stroke="black" stroke-width="3" stroke-linecap="round" fill="transparent" stroke-linejoin="round" points="95.9757080078125 128.41622924804688 94.3028564453125 141.7991180419922 92.6300048828125 155.1820068359375 91.5147705078125 174.14111328125 90.39950561523438 191.9849548339844 89.28427124023438 208.15594482421875 88.72665405273438 214.847412109375 91.5147705078125 217.077880859375 97.6485595703125 214.289794921875 110.47384643554688 205.92547607421875 122.74151611328124 196.4459228515625 133.3363037109375 188.08160400390625 145.04632568359375 176.37158203125 145.04632568359375 176.37158203125 " />
        <polyline stroke="black" stroke-width="3" stroke-linecap="round" fill="transparent" stroke-linejoin="round" points="145.04632568359375 149.60580444335938 153.96826171875 157.41249084472656 161.21728515625 164.10394287109375 171.8121337890625 175.25634765625 184.0797119140625 187.52398681640625 193.559326171875 198.67642211914065 200.250732421875 206.48309326171875 200.250732421875 206.48309326171875 " />
        </svg>