<?xml version="1.0" standalone="no"?>
    <svg width="256" height="256" xmlns="http://www.w3.org/2000/svg" version="1.1">
    <polyline stroke="black" stroke-width="3" stroke-linecap="round" fill="transparent" stroke-linejoin="round" points="74.1956787109375 99.72526550292967 72.88836669921875 103.64712524414063 61.77642822265625 128.48558044433594 58.50823974609375 133.7147216796875 52.62542724609375 144.1730194091797 48.0499267578125 152.6703643798828 45.435302734375 156.5922393798828 44.1280517578125 158.5531768798828 44.78167724609375 158.5531768798828 47.396240234375 155.9385986328125 51.97174072265625 150.05581665039063 57.20086669921875 143.5193634033203 62.4300537109375 139.59751892089844 68.96649169921875 138.2902069091797 78.11749267578125 139.59751892089844 91.19036865234376 142.86572265625 100.3414306640625 147.4412384033203 108.18505859375 151.3630828857422 115.37518310546876 155.28494262695313 120.60430908203124 155.9385986328125 124.52618408203124 154.6313018798828 124.52618408203124 154.6313018798828 " />
        <polyline stroke="black" stroke-width="3" stroke-linecap="round" fill="transparent" stroke-linejoin="round" points="136.94537353515625 116.71998596191406 127.79437255859376 146.13394165039063 127.1407470703125 148.74851989746094 124.52618408203124 155.28494262695313 123.87249755859376 157.2458953857422 125.83343505859376 154.6313018798828 129.1016845703125 151.3630828857422 135.63812255859375 148.74851989746094 143.48187255859375 148.09487915039063 152.6328125 150.70947265625 159.16925048828125 154.6313018798828 164.39837646484375 158.5531768798828 169.6275634765625 161.82139587402344 175.5103759765625 161.82139587402344 175.5103759765625 161.82139587402344 " />
        <polyline stroke="black" stroke-width="3" stroke-linecap="round" fill="transparent" stroke-linejoin="round" points="182.700439453125 106.9153289794922 169.6275634765625 133.7147216796875 167.6666259765625 138.94387817382813 165.05206298828125 146.13394165039063 163.74481201171875 149.4021453857422 164.39837646484375 151.3630828857422 169.6275634765625 153.3240203857422 176.16400146484375 155.28494262695313 189.2369384765625 159.20681762695313 200.34881591796875 163.128662109375 213.42169189453125 169.6651153564453 221.9190673828125 176.85520935058594 229.10906982421875 186.00619506835935 234.99188232421875 195.81085205078125 237.6064453125 200.3863220214844 237.6064453125 200.3863220214844 " />
        </svg>