<?xml version="1.0" standalone="no"?>
    <svg width="256" height="256" xmlns="http://www.w3.org/2000/svg" version="1.1">
    <polyline stroke="black" stroke-width="3" stroke-linecap="round" fill="transparent" stroke-linejoin="round" points="117.36322021484376 54.77012634277344 113.39154052734376 64.47869873046875 108.095947265625 76.39376831054688 93.974365234375 101.1064910888672 87.35491943359375 111.69766235351563 80.73544311523438 121.40623474121094 67.49642944335938 141.2646942138672 57.34661865234375 154.06234741210938 47.638031005859375 163.32962036132813 45.872802734375 164.2122039794922 44.990234375 164.2122039794922 44.990234375 164.2122039794922 " />
        <polyline stroke="black" stroke-width="3" stroke-linecap="round" fill="transparent" stroke-linejoin="round" points="140.31072998046875 64.03739929199219 146.48895263671875 67.56779479980469 153.1083984375 71.53948974609375 160.169189453125 76.39376831054688 167.6712646484375 82.57194519042969 182.234130859375 94.92831420898438 189.294921875 101.1064910888672 201.2099609375 113.02154541015624 209.59466552734375 122.73014831542967 214.44891357421875 130.6735076904297 214.44891357421875 130.6735076904297 " />
        <polyline stroke="black" stroke-width="3" stroke-linecap="round" fill="transparent" stroke-linejoin="round" points="125.30657958984376 163.32962036132813 131.926025390625 163.77090454101563 152.225830078125 165.53610229492188 166.34735107421875 166.418701171875 178.7037353515625 168.1838836669922 188.41229248046875 170.390380859375 191.94268798828125 172.15557861328125 191.94268798828125 172.15557861328125 " />
        </svg>