<?xml version="1.0" standalone="no"?>
    <svg width="256" height="256" xmlns="http://www.w3.org/2000/svg" version="1.1">
    <polyline stroke="black" stroke-width="3" stroke-linecap="round" fill="transparent" stroke-linejoin="round" points="62.376220703125 118.44285583496094 70.4420166015625 117.09854125976563 88.81417846679688 113.51373291015624 105.39389038085938 109.03274536132813 112.5634765625 106.79222106933594 118.8369140625 104.55174255371094 136.3128662109375 95.1416015625 136.3128662109375 95.1416015625 " />
        <polyline stroke="black" stroke-width="3" stroke-linecap="round" fill="transparent" stroke-linejoin="round" points="93.74325561523438 104.55174255371094 86.57366943359375 133.23016357421875 78.5078125 159.2200164794922 74.47494506835938 170.8706512451172 70.89013671875 180.72886657714844 64.61669921875 195.96429443359375 64.61669921875 195.96429443359375 " />
        <polyline stroke="black" stroke-width="3" stroke-linecap="round" fill="transparent" stroke-linejoin="round" points="114.35589599609376 152.05039978027344 120.62933349609376 155.63522338867188 126.45465087890624 159.66812133789063 135.41668701171875 165.49343872070313 143.48248291015625 169.52633666992188 143.48248291015625 169.52633666992188 " />
        <polyline stroke="black" stroke-width="3" stroke-linecap="round" fill="transparent" stroke-linejoin="round" points="165.88751220703125 93.34919738769533 171.2647705078125 91.10870361328124 176.6419677734375 89.31629943847656 181.1229248046875 87.52389526367188 190.0849609375 84.38717651367188 199.94317626953125 80.80238342285156 204.872314453125 78.56187438964844 204.872314453125 78.56187438964844 " />
        <polyline stroke="black" stroke-width="3" stroke-linecap="round" fill="transparent" stroke-linejoin="round" points="170.3685302734375 144.88079833984375 164.9913330078125 153.8428192138672 158.7178955078125 165.0453338623047 140.34576416015625 195.51617431640625 131.83184814453125 211.19970703125 126.90277099609376 220.60983276367188 125.55844116210938 222.850341796875 125.55844116210938 222.850341796875 " />
        <polyline stroke="black" stroke-width="3" stroke-linecap="round" fill="transparent" stroke-linejoin="round" points="184.2596435546875 152.05039978027344 188.74066162109375 148.0175018310547 190.5330810546875 147.12130737304688 192.325439453125 146.22509765625 195.01409912109375 145.77700805664063 196.8065185546875 146.67320251464844 199.49505615234375 157.87571716308594 202.1837158203125 174.90354919433594 205.76849365234375 188.3465881347656 211.59375 197.7567138671875 218.763427734375 204.03009033203125 223.6925048828125 206.71871948242188 238.927978515625 208.06301879882813 249.682373046875 200.89340209960935 261.3330078125 182.52127075195313 264.91778564453125 167.28582763671875 264.0216064453125 162.3567352294922 264.0216064453125 162.3567352294922 " />
        </svg>