<?xml version="1.0" standalone="no"?>
    <svg width="256" height="256" xmlns="http://www.w3.org/2000/svg" version="1.1">
    <polyline stroke="black" stroke-width="3" stroke-linecap="round" fill="transparent" stroke-linejoin="round" points="67.55084228515625 117.8680419921875 78.85714721679688 113.96929931640624 90.94320678710938 109.6807098388672 101.07989501953124 105.39212036132813 110.04696655273438 100.3237762451172 117.45455932617188 94.47567749023438 123.69256591796876 84.72885131835938 126.421630859375 78.88076782226563 126.421630859375 78.88076782226563 " />
        <polyline stroke="black" stroke-width="3" stroke-linecap="round" fill="transparent" stroke-linejoin="round" points="95.62167358398438 48.47068786621094 92.892578125 57.047882080078125 90.1634521484375 67.1845703125 84.31536865234375 91.356689453125 81.58627319335938 104.61236572265624 75.34832763671875 141.26040649414063 72.61920166015625 161.92364501953125 71.0596923828125 175.95907592773438 70.6697998046875 180.63754272460935 70.27996826171875 185.70590209960935 70.27996826171875 186.48565673828125 70.27996826171875 186.48565673828125 " />
        <polyline stroke="black" stroke-width="3" stroke-linecap="round" fill="transparent" stroke-linejoin="round" points="96.01156616210938 143.59963989257813 100.69003295898438 147.49835205078125 105.75839233398438 151.78697204589844 115.11532592773438 158.80467224121094 122.52291870117188 163.09326171875 125.25201416015624 164.6527557373047 129.15072631835938 165.82237243652344 129.15072631835938 165.82237243652344 " />
        <polyline stroke="black" stroke-width="3" stroke-linecap="round" fill="transparent" stroke-linejoin="round" points="154.10260009765625 73.81240844726563 160.340576171875 71.47317504882813 167.3582763671875 69.13394165039063 181.00384521484375 63.67572021484375 193.08984375 57.43775939941406 200.8873291015625 51.97953796386719 204.39617919921875 49.25042724609375 204.39617919921875 49.25042724609375 " />
        <polyline stroke="black" stroke-width="3" stroke-linecap="round" fill="transparent" stroke-linejoin="round" points="166.18865966796875 78.49089050292969 159.560791015625 95.2554168701172 153.3228759765625 114.74905395507813 150.59375 124.8857421875 142.7962646484375 154.90594482421875 138.1177978515625 171.67047119140625 134.60897827148438 183.75653076171875 131.10009765625 192.72360229492188 131.10009765625 192.72360229492188 " />
        <polyline stroke="black" stroke-width="3" stroke-linecap="round" fill="transparent" stroke-linejoin="round" points="149.03427124023438 120.98703002929688 154.492431640625 117.08828735351563 159.95068359375 113.1895751953125 175.93548583984375 104.22247314453124 182.95318603515625 101.88323974609376 186.8519287109375 101.88323974609376 189.191162109375 105.0022430419922 189.97088623046875 116.30853271484376 188.411376953125 133.07305908203125 187.2418212890625 150.2274627685547 188.411376953125 164.6527557373047 192.3101806640625 176.34893798828125 197.37847900390625 184.14642333984375 203.616455078125 189.2147521972656 211.4139404296875 192.333740234375 218.82147216796875 192.333740234375 224.27972412109375 189.2147521972656 228.56829833984375 184.53628540039065 232.467041015625 176.34893798828125 235.1961669921875 158.414794921875 235.1961669921875 158.414794921875 " />
        </svg>