<?xml version="1.0" standalone="no"?>
    <svg width="256" height="256" xmlns="http://www.w3.org/2000/svg" version="1.1">
    <polyline stroke="black" stroke-width="3" stroke-linecap="round" fill="transparent" stroke-linejoin="round" points="93.45498657226563 78.24911499023438 92.84600830078124 88.60205078125 91.62799072265624 100.17298889160156 90.41000366210938 107.48094177246094 89.801025390625 111.74391174316406 88.5830078125 109.91693115234376 86.14703369140625 98.95498657226563 85.53802490234375 78.24911499023438 89.1920166015625 58.15223693847656 96.49996948242188 46.581298828125 105.63491821289063 37.44635009765625 123.29583740234376 27.702407836914063 137.9117431640625 22.83043670654297 153.74560546875 21.003448486328125 167.1435546875 22.221435546875 176.27850341796875 25.26641845703125 182.36846923828125 29.529396057128903 186.0224609375 35.619361877441406 186.6314697265625 45.363304138183594 178.10546875 59.37022399902344 156.7906494140625 77.03111267089844 124.5137939453125 94.08302307128906 103.80792236328124 105.04495239257813 103.80792236328124 105.04495239257813 " />
        <polyline stroke="black" stroke-width="3" stroke-linecap="round" fill="transparent" stroke-linejoin="round" points="101.3719482421875 98.3459930419922 122.68682861328124 89.21104431152344 142.78369140625 81.29409790039063 157.39959716796875 76.422119140625 165.925537109375 73.98614501953125 168.361572265625 75.81312561035156 168.361572265625 75.81312561035156 " />
        <polyline stroke="black" stroke-width="3" stroke-linecap="round" fill="transparent" stroke-linejoin="round" points="87.36502075195313 141.58474731445313 86.14703369140625 151.3286895751953 87.36502075195313 162.29061889648438 89.801025390625 170.20758056640625 95.8909912109375 175.68853759765625 107.4619140625 176.29754638671875 125.122802734375 171.42556762695313 147.65567016601563 159.24563598632813 171.40655517578125 145.2387237548828 191.50341796875 132.44979858398438 205.5103759765625 123.31484985351563 214.0362548828125 117.83387756347656 218.90826416015625 114.17990112304688 220.7352294921875 109.91693115234376 220.7352294921875 109.91693115234376 " />
        <polyline stroke="black" stroke-width="3" stroke-linecap="round" fill="transparent" stroke-linejoin="round" points="198.202392578125 106.8719482421875 197.5933837890625 120.26986694335938 195.766357421875 132.44979858398438 193.3304443359375 140.9757537841797 188.45843505859375 145.84771728515625 188.45843505859375 145.84771728515625 " />
        <polyline stroke="black" stroke-width="3" stroke-linecap="round" fill="transparent" stroke-linejoin="round" points="145.82867431640625 114.17990112304688 144.61068725585938 130.622802734375 139.73870849609375 165.94459533691406 132.4307861328125 197.6124267578125 124.5137939453125 232.9342041015625 119.641845703125 253.64007568359375 117.20587158203124 269.4739990234375 117.20587158203124 269.4739990234375 " />
        </svg>