<?xml version="1.0" standalone="no"?>
    <svg width="256" height="256" xmlns="http://www.w3.org/2000/svg" version="1.1">
    <polyline stroke="black" stroke-width="3" stroke-linecap="round" fill="transparent" stroke-linejoin="round" points="93.63436889648438 73.47894287109375 94.04074096679688 82.01263427734375 94.04074096679688 90.54632568359376 94.44711303710938 105.98820495605467 94.44711303710938 112.49008178710938 94.04074096679688 113.70916748046876 93.22802734375 113.3027801513672 91.19622802734376 109.23912048339844 88.75799560546875 100.7054443359375 87.53890991210938 92.578125 87.13253784179688 89.32722473144531 89.57073974609375 80.38716125488281 95.25985717773438 74.69804382324219 100.13623046875 71.44711303710938 119.64181518554688 60.475250244140625 136.30279541015625 54.37975311279297 152.15106201171875 51.12882995605469 165.967529296875 51.535186767578125 176.12664794921875 54.37975311279297 181.409423828125 58.44342041015625 184.66033935546875 65.35162353515625 181.409423828125 78.35533142089844 166.3739013671875 97.45452880859376 166.3739013671875 97.45452880859376 " />
        <polyline stroke="black" stroke-width="3" stroke-linecap="round" fill="transparent" stroke-linejoin="round" points="114.76544189453124 117.366455078125 122.486328125 114.9282684326172 131.02001953125 112.89642333984376 147.274658203125 110.05186462402344 154.182861328125 109.23912048339844 162.716552734375 108.832763671875 162.716552734375 108.832763671875 " />
        <polyline stroke="black" stroke-width="3" stroke-linecap="round" fill="transparent" stroke-linejoin="round" points="81.03704833984375 160.03485107421875 79.81796264648438 164.0985107421875 78.59884643554688 167.75579833984375 77.7861328125 171.4130859375 76.5670166015625 177.1022186279297 76.973388671875 179.5404052734375 81.44342041015625 179.5404052734375 96.88531494140624 173.44491577148438 118.42269897460938 162.87942504882813 139.9600830078125 154.34573364257813 159.87200927734375 148.65660095214844 177.345703125 146.21841430664063 191.16217041015625 145.8120574951172 200.508544921875 145.8120574951172 206.19769287109375 146.21841430664063 208.2294921875 146.21841430664063 208.2294921875 146.21841430664063 " />
        <polyline stroke="black" stroke-width="3" stroke-linecap="round" fill="transparent" stroke-linejoin="round" points="148.900146484375 112.89642333984376 148.08740234375 121.43009948730467 147.274658203125 129.9637908935547 144.43011474609375 147.8438720703125 142.80465698242188 155.97119140625 138.33465576171875 172.63218688964844 131.832763671875 187.667724609375 128.98822021484375 192.54412841796875 128.98822021484375 192.54412841796875 " />
        </svg>