<?xml version="1.0" standalone="no"?>
    <svg width="256" height="256" xmlns="http://www.w3.org/2000/svg" version="1.1">
    <polyline stroke="black" stroke-width="3" stroke-linecap="round" fill="transparent" stroke-linejoin="round" points="35.5574951171875 93.04953002929688 49.927490234375 86.48040771484375 65.11859130859375 81.14297485351563 79.48861694335938 76.626708984375 91.80575561523438 73.75270080566406 102.48056030273438 71.28927612304688 109.04974365234376 70.05755615234375 112.74484252929688 69.23641967773438 114.38714599609376 68.415283203125 114.79769897460938 68.00469970703125 114.79769897460938 67.59414672851563 113.1553955078125 66.3624267578125 104.12286376953124 67.18356323242188 102.48056030273438 68.415283203125 100.83831787109376 71.28927612304688 98.785400390625 81.14297485351563 98.785400390625 85.65927124023438 99.60653686523438 103.72439575195313 100.83831787109376 115.63095092773438 102.07000732421876 128.358642578125 102.89111328125 138.62290954589844 103.30169677734376 146.42376708984375 103.30169677734376 153.40347290039063 102.89111328125 156.2774658203125 101.659423828125 162.8466033935547 101.24887084960938 164.07830810546875 100.01715087890624 166.13116455078125 99.19601440429688 166.13116455078125 96.32199096679688 165.31002807617188 96.32199096679688 165.31002807617188 " />
        <polyline stroke="black" stroke-width="3" stroke-linecap="round" fill="transparent" stroke-linejoin="round" points="52.390869140625 122.6106414794922 47.053466796875 143.9603271484375 44.590057373046875 154.224609375 43.35833740234375 161.20433044433594 42.94775390625 164.8994598388672 45.0006103515625 166.541748046875 47.053466796875 166.541748046875 54.854339599609375 164.07830810546875 66.35031127929688 158.330322265625 87.70001220703125 143.54977416992188 87.70001220703125 143.54977416992188 " />
        <polyline stroke="black" stroke-width="3" stroke-linecap="round" fill="transparent" stroke-linejoin="round" points="139.43197631835938 87.71211242675781 129.57821655273438 98.38697814941406 126.70428466796876 101.67153930664063 120.545654296875 110.7041015625 118.49285888671876 115.63095092773438 118.082275390625 119.73666381835938 118.90341186523438 123.43179321289063 120.95623779296876 126.71636962890624 123.83026123046876 129.59036254882813 128.757080078125 132.05377197265625 134.9156494140625 133.28549194335938 139.0213623046875 132.05377197265625 139.0213623046875 132.05377197265625 " />
        <polyline stroke="black" stroke-width="3" stroke-linecap="round" fill="transparent" stroke-linejoin="round" points="166.940185546875 38.44359588623047 162.01336669921875 56.09814453125 160.37109375 66.77299499511719 159.5499267578125 75.80555725097656 159.13934326171875 79.50070190429688 159.96051025390625 88.1226806640625 161.602783203125 91.40725708007813 163.6556396484375 93.87068176269533 167.7613525390625 96.3341064453125 173.0987548828125 97.56582641601563 179.25732421875 97.56582641601563 187.0582275390625 95.92355346679688 196.09075927734375 90.9967041015625 201.8387451171875 86.06985473632813 201.8387451171875 86.06985473632813 " />
        <polyline stroke="black" stroke-width="3" stroke-linecap="round" fill="transparent" stroke-linejoin="round" points="219.90386962890625 41.72816467285156 217.4404296875 53.63471984863281 217.0299072265625 58.972137451171875 214.97698974609375 80.32183837890625 212.9241943359375 98.79753112792967 212.10302734375 103.72439575195313 212.10302734375 103.72439575195313 " />
        <polyline stroke="black" stroke-width="3" stroke-linecap="round" fill="transparent" stroke-linejoin="round" points="143.1270751953125 137.80178833007813 143.1270751953125 152.1717529296875 143.1270751953125 156.6880340576172 143.1270751953125 159.15147399902344 143.1270751953125 160.3831787109375 143.1270751953125 160.7937469482422 144.35882568359375 160.3831787109375 148.46453857421875 157.09861755371094 157.4970703125 150.52947998046875 168.9930419921875 142.72862243652344 181.72076416015625 135.74893188476563 196.09075927734375 130.4114990234375 208.8184814453125 128.358642578125 218.672119140625 129.59036254882813 224.83074951171875 133.28549194335938 230.16815185546875 141.907470703125 233.0421142578125 154.6351776123047 232.631591796875 166.13116455078125 229.3470458984375 174.75315856933594 224.00958251953125 180.50115966796875 214.56640625 184.60687255859375 204.7127685546875 183.37515258789065 197.7330322265625 177.62716674804688 193.6273193359375 171.87918090820313 182.13134765625 136.9806365966797 178.025634765625 109.8829345703125 176.38330078125 86.06985473632813 176.38330078125 67.59414672851563 177.2044677734375 56.50872802734375 178.025634765625 51.171295166015625 178.43621826171875 48.70787048339844 178.43621826171875 47.88673400878906 179.25732421875 48.70787048339844 182.13134765625 57.74043273925781 184.5947265625 76.21612548828125 185.82647705078125 99.20809936523438 186.237060546875 121.78952026367188 186.237060546875 140.26519775390625 185.82647705078125 157.91973876953125 184.5947265625 174.34259033203125 182.54193115234375 189.94427490234375 180.0784912109375 203.08258056640625 177.61505126953125 213.7574157714844 177.61505126953125 213.7574157714844 " />
        </svg>