<?xml version="1.0" standalone="no"?>
    <svg width="256" height="256" xmlns="http://www.w3.org/2000/svg" version="1.1">
    <polyline stroke="black" stroke-width="3" stroke-linecap="round" fill="transparent" stroke-linejoin="round" points="86.99780273437497 84.05702209472656 92.06451416015624 82.36810302734375 97.1312255859375 80.67918395996094 103.21133422851563 78.31472778320313 109.62918090820313 75.95024108886719 116.04702758789063 73.24800109863281 122.12704467773438 70.54574584960938 127.5316162109375 67.84347534179688 132.93609619140625 64.80345153808594 138.0028076171875 61.76341247558594 142.39401245117188 59.39894104003906 145.77182006835938 57.37225341796875 149.82516479492188 54.33220672607422 150.83853149414063 53.31886291503906 151.85186767578125 52.64330291748047 152.18963623046875 52.305511474609375 152.18963623046875 51.967742919921875 152.18963623046875 52.305511474609375 152.18963623046875 52.64330291748047 152.18963623046875 52.64330291748047 " />
        <polyline stroke="black" stroke-width="3" stroke-linecap="round" fill="transparent" stroke-linejoin="round" points="65.0419921875 143.8444366455078 72.47317504882813 137.7643280029297 79.90435791015625 131.68421936035156 88.01113891601563 124.59080505371094 97.1312255859375 117.15963745117188 106.9268798828125 109.72840881347656 117.06033325195313 102.97279357910156 127.19384765625 97.23049926757813 136.98947143554688 92.50155639648438 145.77182006835938 88.44818115234375 153.87860107421875 84.73257446289063 161.30975341796875 81.69253540039063 167.7276611328125 78.99028015136719 172.45654296875 77.30137634277344 176.17218017578125 75.95024108886719 179.21221923828125 75.27467346191406 181.57672119140625 74.93690490722656 183.265625 74.93690490722656 184.2789306640625 75.27467346191406 184.95452880859375 75.95024108886719 185.63006591796875 77.30137634277344 185.63006591796875 80.00363159179688 184.61669921875 83.71922302246094 182.92779541015625 88.11039733886719 180.5633544921875 92.83932495117188 178.19891357421875 97.56828308105467 175.83441162109375 101.62165832519533 173.46990966796875 104.9994659423828 171.10546875 108.03952026367188 168.740966796875 110.7417449951172 166.37652587890625 112.76847839355467 164.01202392578125 114.45736694335938 161.6475830078125 115.80851745605467 158.9453125 116.82185363769533 155.9052734375 117.49740600585938 152.865234375 117.49740600585938 149.48739624023438 116.48403930664063 147.46072387695313 115.80851745605467 147.46072387695313 115.80851745605467 " />
        <polyline stroke="black" stroke-width="3" stroke-linecap="round" fill="transparent" stroke-linejoin="round" points="136.65170288085938 41.15870666503906 136.65170288085938 49.94103240966797 136.65170288085938 58.723358154296875 136.31393432617188 67.84347534179688 135.63836669921875 75.95024108886719 135.30059814453125 84.73257446289063 134.96282958984375 94.52824401855467 134.28726196289063 103.64834594726563 133.949462890625 111.07955932617188 133.949462890625 118.51075744628906 133.949462890625 125.26638793945313 133.61163330078125 131.68421936035156 133.61163330078125 136.7509765625 133.27389526367188 140.80435180664063 133.27389526367188 143.84439086914063 133.27389526367188 145.87109375 132.93609619140625 147.2222137451172 132.59832763671875 148.2355499267578 132.59832763671875 149.2489013671875 132.26052856445313 149.92445373535156 131.92276000976563 150.60003662109375 131.92276000976563 150.60003662109375 " />
        <polyline stroke="black" stroke-width="3" stroke-linecap="round" fill="transparent" stroke-linejoin="round" points="102.19793701171871 134.7242431640625 104.90020751953124 135.06204223632813 107.60247802734376 135.39984130859375 110.30471801757813 135.73764038085938 112.669189453125 136.0753936767578 114.6959228515625 136.7509765625 116.72256469726563 137.426513671875 118.41143798828124 138.1020965576172 119.76263427734376 139.11544799804688 121.11373901367188 140.46656799316406 122.46490478515624 142.15548706054688 122.46490478515624 142.15548706054688 " />
        <polyline stroke="black" stroke-width="3" stroke-linecap="round" fill="transparent" stroke-linejoin="round" points="100.50900268554688 191.13388061523432 105.91354370117188 187.0804748535156 111.31808471679688 183.02706909179688 117.39813232421876 179.3114776611328 123.47824096679688 175.59588623046875 129.55828857421875 172.2180633544922 136.31393432617188 169.1780242919922 141.71841430664063 166.8135528564453 146.44735717773438 165.1246337890625 150.16302490234375 163.77349853515625 152.865234375 162.76016235351563 154.8919677734375 162.08460998535156 156.2430419921875 161.40902709960938 157.59417724609375 161.07125854492188 158.6075439453125 160.73348999023438 158.9453125 160.73348999023438 158.9453125 161.07125854492188 158.269775390625 162.76016235351563 155.5675048828125 166.4757843017578 151.17633056640625 171.88026428222656 151.17633056640625 171.88026428222656 " />
        <polyline stroke="black" stroke-width="3" stroke-linecap="round" fill="transparent" stroke-linejoin="round" points="118.07373046875 222.5475463867188 125.84268188476563 219.8453063964844 133.61163330078125 217.14306640625 141.71841430664063 214.44076538085935 149.82516479492188 211.4007568359375 157.25640869140625 208.698486328125 164.68756103515625 206.33401489257813 171.781005859375 204.30731201171875 177.18548583984375 202.9561767578125 181.57672119140625 201.94284057617188 185.29229736328125 201.26730346679688 188.33233642578125 200.59173583984375 191.03460693359375 200.59173583984375 193.73681640625 201.26730346679688 195.42572021484375 201.94284057617188 195.42572021484375 201.94284057617188 " />
        </svg>