<?xml version="1.0" standalone="no"?>
    <svg width="256" height="256" xmlns="http://www.w3.org/2000/svg" version="1.1">
    <polyline stroke="black" stroke-width="3" stroke-linecap="round" fill="transparent" stroke-linejoin="round" points="49.4248046875 80.48280334472656 71.70526123046875 74.00930786132813 93.9857177734375 67.53581237792969 108.28448486328124 64.166015625 139.95770263671875 58.83494567871094 172.44439697265625 57.83587646484375 176.8560791015625 58.38258361816406 182.41015625 58.7999267578125 191.19879150390625 59.728485107421875 192.0400390625 60.386383056640625 192.62127685546875 61.15965270996094 192.6783447265625 61.235595703125 " />
        <polyline stroke="black" stroke-width="3" stroke-linecap="round" fill="transparent" stroke-linejoin="round" points="74.24127197265625 118.05642700195313 77.92742919921875 125.10531616210938 81.61358642578125 132.15420532226563 84.98287963867188 138.7433319091797 90.5926513671875 151.51016235351563 90.61703491210938 156.60093688964844 90.5928955078125 157.06185913085938 " />
        <polyline stroke="black" stroke-width="3" stroke-linecap="round" fill="transparent" stroke-linejoin="round" points="96.61755371093747 110.98556518554688 102.00494384765624 108.358642578125 107.392333984375 105.73171997070313 121.21078491210938 101.78781127929688 132.08163452148438 98.8674774169922 160.602783203125 92.24240112304688 169.2646484375 90.76376342773438 184.4334716796875 90.38050842285156 192.3597412109375 91.59341430664063 199.89105224609375 96.8203582763672 201.15673828125 104.8643798828125 201.1378173828125 111.10777282714844 196.71588134765625 128.1716766357422 191.9832763671875 137.00315856933594 180.7120361328125 149.9685516357422 172.6177978515625 153.953369140625 171.80828857421875 154.35186767578125 " />
        <polyline stroke="black" stroke-width="3" stroke-linecap="round" fill="transparent" stroke-linejoin="round" points="128.24078369140625 36.28526306152344 132.10882568359375 53.79888916015625 135.97686767578125 71.31251525878906 138.6240234375 90.38653564453124 139.94357299804688 110.737548828125 140.54461669921875 140.5101318359375 139.014892578125 158.84423828125 138.87249755859375 159.44894409179688 " />
        <polyline stroke="black" stroke-width="3" stroke-linecap="round" fill="transparent" stroke-linejoin="round" points="114.49014282226563 163.56668090820313 121.598388671875 162.30528259277344 128.70663452148438 161.04388427734375 135.70175170898438 159.47300720214844 152.85595703125 157.23837280273438 164.5830078125 156.3844451904297 168.91497802734375 156.8507537841797 169.060302734375 156.881103515625 169.071533203125 156.8834686279297 169.073974609375 156.88397216796875 " />
        <polyline stroke="black" stroke-width="3" stroke-linecap="round" fill="transparent" stroke-linejoin="round" points="68.84881591796875 215.92791748046875 77.30160522460938 214.07659912109375 85.75439453125 212.22528076171875 107.4656982421875 207.38330078125 138.36032104492188 204.112060546875 149.15130615234375 203.08721923828125 181.58197021484375 200.43768310546875 189.72222900390625 199.51397705078125 198.49365234375 198.8338623046875 212.43780517578125 199.499755859375 213.9405517578125 201.0880126953125 213.9542236328125 201.1024169921875 213.95526123046875 201.1036071777344 " />
        </svg>