<?xml version="1.0" standalone="no"?>
    <svg width="256" height="256" xmlns="http://www.w3.org/2000/svg" version="1.1">
    <polyline stroke="black" stroke-width="3" stroke-linecap="round" fill="transparent" stroke-linejoin="round" points="70.53836059570313 59.574249267578125 80.42544555664063 55.39125061035156 90.31253051757813 51.208251953125 98.2982177734375 47.785789489746094 106.66421508789063 44.74360656738281 115.03024291992188 41.3211669921875 117.692138671875 38.65925598144531 117.692138671875 38.65925598144531 " />
        <polyline stroke="black" stroke-width="3" stroke-linecap="round" fill="transparent" stroke-linejoin="round" points="81.94656372070313 88.47492980957031 90.31253051757813 84.67221069335938 98.67849731445313 80.86949157714844 109.70639038085938 76.30621337890625 116.93161010742188 73.64431762695313 124.15679931640624 70.60212707519531 129.4805908203125 68.70077514648438 132.90301513671875 68.32049560546875 134.42413330078125 69.08103942871094 134.04385375976563 73.2640380859375 131.3819580078125 81.24977111816406 125.29757690429688 93.79875183105467 117.692138671875 105.58718872070313 110.086669921875 115.8545379638672 106.66421508789063 117.7559051513672 106.66421508789063 117.7559051513672 " />
        <polyline stroke="black" stroke-width="3" stroke-linecap="round" fill="transparent" stroke-linejoin="round" points="92.59414672851563 18.885086059570313 90.31253051757813 47.405517578125 88.03091430664063 75.92594909667969 90.31253051757813 102.92529296875 93.7349853515625 123.07972717285156 100.1995849609375 154.642333984375 101.34039306640624 158.8253173828125 101.34039306640624 158.8253173828125 " />
        <polyline stroke="black" stroke-width="3" stroke-linecap="round" fill="transparent" stroke-linejoin="round" points="78.5240478515625 118.5164489746094 84.2281494140625 121.93890380859376 89.9322509765625 125.36135864257813 89.9322509765625 125.36135864257813 " />
        <polyline stroke="black" stroke-width="3" stroke-linecap="round" fill="transparent" stroke-linejoin="round" points="74.34106445312499 166.81105041503906 97.53768920898438 159.20559692382813 120.73431396484376 151.6001434326172 136.32546997070313 147.4171600341797 143.55068969726563 145.51577758789063 148.49420166015625 144.7552490234375 148.49420166015625 144.7552490234375 " />
        <polyline stroke="black" stroke-width="3" stroke-linecap="round" fill="transparent" stroke-linejoin="round" points="46.96148681640625 226.8941345214844 90.31253051757813 212.0634765625 133.66357421875 197.2328186035156 175.87384033203125 186.20492553710935 198.69012451171875 182.78250122070313 215.80242919921875 180.8811492919922 229.4921875 180.8811492919922 229.4921875 180.8811492919922 " />
        </svg>