<?xml version="1.0" standalone="no"?>
    <svg width="256" height="256" xmlns="http://www.w3.org/2000/svg" version="1.1">
    <polyline stroke="black" stroke-width="3" stroke-linecap="round" fill="transparent" stroke-linejoin="round" points="72 103 71 102 70 102 75 99 95 93 115 88 122 86 145 80 161 77 166 76 166 77 166 77 " />
        <polyline stroke="black" stroke-width="3" stroke-linecap="round" fill="transparent" stroke-linejoin="round" points="93 114 93 115 95 120 98 128 102 138 103 145 103 148 103 148 " />
        <polyline stroke="black" stroke-width="3" stroke-linecap="round" fill="transparent" stroke-linejoin="round" points="105 120 106 119 114 117 132 110 153 102 169 97 175 96 177 98 176 103 174 113 171 125 168 136 165 143 163 145 162 145 158 143 153 138 152 136 152 136 " />
        <polyline stroke="black" stroke-width="3" stroke-linecap="round" fill="transparent" stroke-linejoin="round" points="124 43 123 43 122 42 122 44 122 46 122 52 123 57 123 62 125 74 127 88 132 144 134 165 135 169 137 182 137 190 137 192 135 191 135 191 " />
        <polyline stroke="black" stroke-width="3" stroke-linecap="round" fill="transparent" stroke-linejoin="round" points="108 196 107 196 108 196 116 194 120 193 138 187 156 183 168 180 173 180 173 181 173 181 " />
        <polyline stroke="black" stroke-width="3" stroke-linecap="round" fill="transparent" stroke-linejoin="round" points="60 238 57 239 67 239 86 231 116 220 149 214 173 213 180 212 198 212 202 212 213 212 216 213 216 214 216 214 " />
        </svg>