<?xml version="1.0" standalone="no"?>
    <svg width="256" height="256" xmlns="http://www.w3.org/2000/svg" version="1.1">
    <polyline stroke="black" stroke-width="3" stroke-linecap="round" fill="transparent" stroke-linejoin="round" points="94 45 95 63 93 81 91 96 91 103 91 105 96 106 108 106 123 103 139 100 155 97 167 95 173 92 177 87 177 87 " />
        <polyline stroke="black" stroke-width="3" stroke-linecap="round" fill="transparent" stroke-linejoin="round" points="190 33 181 44 181 54 180 66 177 85 173 91 173 91 " />
        <polyline stroke="black" stroke-width="3" stroke-linecap="round" fill="transparent" stroke-linejoin="round" points="88 146 81 160 81 174 81 192 81 209 82 220 85 223 85 223 " />
        <polyline stroke="black" stroke-width="3" stroke-linecap="round" fill="transparent" stroke-linejoin="round" points="74 159 81 150 88 146 109 136 136 129 159 126 176 126 187 133 191 147 191 165 190 182 183 194 178 201 172 203 163 203 163 203 " />
        <polyline stroke="black" stroke-width="3" stroke-linecap="round" fill="transparent" stroke-linejoin="round" points="146 42 136 45 135 63 134 89 134 127 136 169 141 208 144 228 146 242 147 254 147 254 " />
        </svg>