<?xml version="1.0" standalone="no"?>
    <svg width="256" height="256" xmlns="http://www.w3.org/2000/svg" version="1.1">
    <polyline stroke="black" stroke-width="3" stroke-linecap="round" fill="transparent" stroke-linejoin="round" points="54.567230224609375 91.4249267578125 54.125579833984375 98.491943359375 54.125579833984375 105.5589599609375 54.125579833984375 117.92626953125 54.125579833984375 132.060302734375 54.125579833984375 139.5690155029297 54.125579833984375 143.98590087890625 54.125579833984375 144.86929321289063 54.125579833984375 144.86929321289063 " />
        <polyline stroke="black" stroke-width="3" stroke-linecap="round" fill="transparent" stroke-linejoin="round" points="86.36883544921875 73.315673828125 84.60211181640625 87.00802612304688 82.39364624023438 102.90884399414063 80.18524169921875 117.92626953125 75.768310546875 148.40281677246094 72.23480224609375 174.4624481201172 70.90975952148438 192.1300048828125 71.35140991210938 204.93899536132813 73.1181640625 211.1226501464844 73.1181640625 211.1226501464844 " />
        <polyline stroke="black" stroke-width="3" stroke-linecap="round" fill="transparent" stroke-linejoin="round" points="148.205322265625 64.04020690917969 140.2548828125 76.40750122070313 131.86279296875 88.33309936523438 115.52032470703124 110.41754150390624 96.96942138671876 129.85186767578125 88.13558959960938 137.36058044433594 84.60211181640625 139.12734985351563 84.60211181640625 139.12734985351563 " />
        <polyline stroke="black" stroke-width="3" stroke-linecap="round" fill="transparent" stroke-linejoin="round" points="100.06121826171876 84.79959106445313 105.36151123046876 84.35791015625 111.98681640625 84.35791015625 125.23748779296876 85.24127197265625 132.30450439453125 85.68296813964844 145.996826171875 87.00802612304688 156.15570068359375 87.89141845703125 164.10614013671875 88.77479553222656 164.10614013671875 88.77479553222656 " />
        <polyline stroke="black" stroke-width="3" stroke-linecap="round" fill="transparent" stroke-linejoin="round" points="143.34674072265625 128.52682495117188 142.46334838867188 135.1521453857422 142.02166748046875 142.2191619873047 140.69662475585938 157.236572265625 139.813232421875 171.81231689453125 139.37152099609375 177.99595642089844 138.04647827148438 187.713134765625 136.27972412109375 194.3384704589844 133.62957763671875 197.8719787597656 130.53778076171875 198.31365966796875 130.53778076171875 198.31365966796875 " />
        <polyline stroke="black" stroke-width="3" stroke-linecap="round" fill="transparent" stroke-linejoin="round" points="96.08602905273438 151.05294799804688 90.34405517578124 160.77008056640625 86.810546875 167.83712768554688 85.4854736328125 171.81231689453125 85.4854736328125 173.13739013671875 86.810546875 174.020751953125 89.01898193359375 174.020751953125 89.01898193359375 174.020751953125 " />
        <polyline stroke="black" stroke-width="3" stroke-linecap="round" fill="transparent" stroke-linejoin="round" points="152.1805419921875 146.19436645507813 160.13092041015625 149.72789001464844 163.2227783203125 151.49462890625 168.9647216796875 155.02813720703125 170.7314453125 155.91152954101563 170.7314453125 155.91152954101563 " />
        <polyline stroke="black" stroke-width="3" stroke-linecap="round" fill="transparent" stroke-linejoin="round" points="186.63226318359375 55.2064208984375 183.98211669921875 65.36528015136719 180.89031982421875 75.08242797851563 177.7984619140625 83.91621398925781 170.7314453125 99.8170166015625 167.19793701171875 106.884033203125 162.33935546875 116.15951538085938 159.24755859375 121.01809692382813 157.9224853515625 122.78483581542967 157.4808349609375 122.78483581542967 159.689208984375 114.83444213867188 165.8729248046875 100.25871276855467 175.1483154296875 87.89141845703125 187.515625 77.29087829589844 202.9747314453125 69.34048461914063 217.55047607421875 65.36528015136719 230.8011474609375 64.923583984375 239.63494873046875 65.80696105957031 244.05181884765625 66.69033813476563 244.05181884765625 66.69033813476563 " />
        <polyline stroke="black" stroke-width="3" stroke-linecap="round" fill="transparent" stroke-linejoin="round" points="199.4412841796875 111.74261474609376 195.466064453125 118.36795043945313 191.4908447265625 124.55162048339844 187.957275390625 130.29356384277344 180.89031982421875 141.33578491210938 174.2650146484375 151.49462890625 171.173095703125 155.46983337402344 169.84808349609375 157.6782684326172 169.84808349609375 158.11996459960938 172.0565185546875 156.79489135742188 175.59002685546875 154.58645629882813 186.63226318359375 147.07774353027344 208.71673583984375 134.26876831054688 222.85076904296875 127.64341735839844 229.91778564453125 125.43498229980467 244.4935302734375 124.9932861328125 250.2354736328125 130.29356384277344 255.09405517578125 143.54421997070313 255.09405517578125 163.42022705078125 250.2354736328125 182.412841796875 247.1436767578125 190.36328125 236.5430908203125 207.589111328125 229.47607421875 213.33108520507813 221.083984375 215.53955078125 221.083984375 215.53955078125 " />
        <polyline stroke="black" stroke-width="3" stroke-linecap="round" fill="transparent" stroke-linejoin="round" points="197.67449951171875 163.86192321777344 195.02435302734375 169.60386657714844 192.37420654296875 174.90414428710938 190.165771484375 179.32102966308594 188.3990478515625 182.8545379638672 185.30718994140625 188.15481567382813 184.423828125 189.92156982421875 183.98211669921875 191.68832397460935 184.423828125 191.68832397460935 184.423828125 191.68832397460935 " />
        <polyline stroke="black" stroke-width="3" stroke-linecap="round" fill="transparent" stroke-linejoin="round" points="216.2254638671875 176.22921752929688 213.13360595703125 182.412841796875 204.2998046875 197.4302978515625 198.99951171875 206.70574951171875 198.99951171875 206.70574951171875 " />
        </svg>