<?xml version="1.0" standalone="no"?>
    <svg width="256" height="256" xmlns="http://www.w3.org/2000/svg" version="1.1">
    <polyline stroke="black" stroke-width="3" stroke-linecap="round" fill="transparent" stroke-linejoin="round" points="52.738861083984375 89.7598876953125 52.344085693359375 108.31417846679688 51.159759521484375 123.31552124023438 50.3702392578125 128.0527801513672 49.9754638671875 133.184814453125 49.9754638671875 134.36912536621094 49.9754638671875 134.36912536621094 " />
        <polyline stroke="black" stroke-width="3" stroke-linecap="round" fill="transparent" stroke-linejoin="round" points="84.71542358398438 64.88922119140625 81.95199584960938 93.31283569335938 79.5833740234375 112.26190185546876 72.08270263671875 168.71432495117188 68.13497924804688 207.0072326660156 68.13497924804688 219.63995361328125 69.31930541992188 226.35107421875 69.31930541992188 226.35107421875 " />
        <polyline stroke="black" stroke-width="3" stroke-linecap="round" fill="transparent" stroke-linejoin="round" points="125.376953125 87.39125061035156 107.61224365234376 111.07757568359376 99.32199096679688 121.73643493652344 93.005615234375 128.8423309326172 83.53109741210938 138.31686401367188 83.53109741210938 138.31686401367188 " />
        <polyline stroke="black" stroke-width="3" stroke-linecap="round" fill="transparent" stroke-linejoin="round" points="114.71810913085938 77.52194213867188 120.6396484375 82.25920104980469 126.9560546875 86.9964599609375 143.93124389648438 98.44485473632813 165.64373779296875 113.44621276855467 170.3809814453125 116.99917602539063 170.3809814453125 116.99917602539063 " />
        <polyline stroke="black" stroke-width="3" stroke-linecap="round" fill="transparent" stroke-linejoin="round" points="145.90512084960938 133.974365234375 144.32601928710938 145.42276000976563 142.35214233398438 157.2659149169922 139.1939697265625 179.3731689453125 136.03582763671875 196.7431640625 133.27239990234375 207.0072326660156 131.29852294921875 211.3497314453125 129.71945190429688 211.3497314453125 126.561279296875 206.2176818847656 121.42919921875 190.42678833007813 117.87631225585938 175.82022094726563 115.50765991210938 169.10910034179688 113.92855834960938 166.74046325683594 111.16513061523438 167.13522338867188 107.61224365234376 169.89862060546875 103.66448974609376 175.82022094726563 102.08541870117188 178.9783935546875 100.11154174804688 186.47906494140625 100.90109252929688 188.05816650390625 102.08541870117188 188.45294189453125 113.13900756835938 185.29473876953125 124.58740234375 180.16270446777344 134.45672607421875 177.3992919921875 143.14169311523438 177.3992919921875 147.87899780273438 178.5836181640625 158.537841796875 184.1104431152344 163.66986083984375 188.05816650390625 168.40716552734375 190.82156372070313 168.40716552734375 190.82156372070313 " />
        <polyline stroke="black" stroke-width="3" stroke-linecap="round" fill="transparent" stroke-linejoin="round" points="188.54052734375 85.02261352539063 177.0921630859375 107.52464294433594 171.1705322265625 118.5782470703125 166.03851318359375 127.65802001953124 158.14306640625 140.29071044921875 154.1953125 146.21231079101563 153.800537109375 147.0018310546875 153.800537109375 147.0018310546875 " />
        <polyline stroke="black" stroke-width="3" stroke-linecap="round" fill="transparent" stroke-linejoin="round" points="202.7523193359375 81.07489013671875 208.2791748046875 82.25920104980469 214.20068359375 84.23306274414063 220.122314453125 86.60169982910156 225.64910888671875 88.9703369140625 235.1236572265625 94.49714660644533 235.1236572265625 94.49714660644533 " />
        <polyline stroke="black" stroke-width="3" stroke-linecap="round" fill="transparent" stroke-linejoin="round" points="186.566650390625 115.42007446289063 181.4345703125 123.71029663085938 168.8018798828125 143.0541229248047 164.06463623046875 150.55479431152344 162.48553466796875 152.52865600585938 161.30120849609375 154.10775756835938 161.69598388671875 153.71298217773438 166.82806396484375 149.76524353027344 179.46075439453125 140.29071044921875 197.22552490234375 129.63186645507813 215.77978515625 122.13119506835938 231.9654541015625 119.76255798339844 243.80859375 123.31552124023438 252.09881591796875 133.57958984375 258.02044677734375 156.47637939453125 256.83612060546875 181.74180603027344 251.7041015625 201.08563232421875 244.59820556640625 213.32357788085935 238.2818603515625 219.24517822265625 229.9915771484375 221.61380004882813 229.9915771484375 221.61380004882813 " />
        <polyline stroke="black" stroke-width="3" stroke-linecap="round" fill="transparent" stroke-linejoin="round" points="192.88299560546875 151.34434509277344 185.777099609375 166.74046325683594 179.85552978515625 180.55747985839844 175.1182861328125 190.82156372070313 173.1444091796875 196.7431640625 173.5391845703125 197.53268432617188 175.1182861328125 197.137939453125 175.1182861328125 197.137939453125 " />
        <polyline stroke="black" stroke-width="3" stroke-linecap="round" fill="transparent" stroke-linejoin="round" points="217.753662109375 161.21365356445313 213.805908203125 171.47772216796875 209.46343994140625 181.74180603027344 196.04119873046875 209.3758544921875 191.69866943359375 218.85040283203125 191.69866943359375 218.85040283203125 " />
        </svg>