<?xml version="1.0" standalone="no"?>
    <svg width="256" height="256" xmlns="http://www.w3.org/2000/svg" version="1.1">
    <polyline stroke="black" stroke-width="3" stroke-linecap="round" fill="transparent" stroke-linejoin="round" points="35 129 39 141 41 156 44 169 47 176 49 180 51 180 53 178 53 178 " />
        <polyline stroke="black" stroke-width="3" stroke-linecap="round" fill="transparent" stroke-linejoin="round" points="85 71 85 83 84 96 83 115 82 139 81 166 81 193 81 216 82 230 82 238 82 243 82 246 82 246 " />
        <polyline stroke="black" stroke-width="3" stroke-linecap="round" fill="transparent" stroke-linejoin="round" points="152 65 140 81 100 134 88 151 79 161 79 161 " />
        <polyline stroke="black" stroke-width="3" stroke-linecap="round" fill="transparent" stroke-linejoin="round" points="113 81 121 87 131 94 146 100 161 103 173 105 179 108 183 111 185 114 185 114 " />
        <polyline stroke="black" stroke-width="3" stroke-linecap="round" fill="transparent" stroke-linejoin="round" points="131 130 131 134 131 143 131 159 132 177 135 193 137 203 139 210 140 214 140 218 140 219 140 220 139 220 134 220 129 219 123 215 123 215 " />
        <polyline stroke="black" stroke-width="3" stroke-linecap="round" fill="transparent" stroke-linejoin="round" points="98 177 96 184 96 190 96 190 " />
        <polyline stroke="black" stroke-width="3" stroke-linecap="round" fill="transparent" stroke-linejoin="round" points="150 170 152 176 158 180 163 182 169 182 169 182 " />
        <polyline stroke="black" stroke-width="3" stroke-linecap="round" fill="transparent" stroke-linejoin="round" points="201 32 193 44 179 64 164 85 151 106 141 121 134 130 131 136 129 136 129 136 " />
        <polyline stroke="black" stroke-width="3" stroke-linecap="round" fill="transparent" stroke-linejoin="round" points="206 36 207 41 212 47 217 54 224 64 230 74 235 81 240 86 243 90 246 94 246 94 " />
        <polyline stroke="black" stroke-width="3" stroke-linecap="round" fill="transparent" stroke-linejoin="round" points="188 110 183 119 174 133 169 146 164 156 161 163 161 163 " />
        <polyline stroke="black" stroke-width="3" stroke-linecap="round" fill="transparent" stroke-linejoin="round" points="186 119 190 116 196 114 204 112 210 111 216 111 221 111 224 111 226 113 226 122 226 132 225 145 221 159 219 172 216 187 213 200 211 210 210 217 209 220 208 222 207 222 207 222 " />
        <polyline stroke="black" stroke-width="3" stroke-linecap="round" fill="transparent" stroke-linejoin="round" points="203 115 200 125 194 139 188 157 182 173 177 186 177 186 " />
        <polyline stroke="black" stroke-width="3" stroke-linecap="round" fill="transparent" stroke-linejoin="round" points="210 117 207 131 201 152 193 181 193 181 " />
        </svg>