<?xml version="1.0" standalone="no"?>
    <svg width="256" height="256" xmlns="http://www.w3.org/2000/svg" version="1.1">
    <polyline stroke="black" stroke-width="3" stroke-linecap="round" fill="transparent" stroke-linejoin="round" points="61.80010986328125 72.80000305175781 53.2667236328125 125.06671142578124 47.93341064453125 142.1333465576172 43.66668701171875 153.86668395996094 40.466796875 160.26669311523438 37.2667236328125 163.4666748046875 37.2667236328125 163.4666748046875 " />
        <polyline stroke="black" stroke-width="3" stroke-linecap="round" fill="transparent" stroke-linejoin="round" points="52.2000732421875 124.00001525878906 83.1334228515625 109.06668090820313 102.3333740234375 101.60000610351563 110.86669921875 98.40000915527344 114.06671142578124 97.33334350585938 115.1334228515625 95.20002746582033 115.1334228515625 95.20002746582033 " />
        <polyline stroke="black" stroke-width="3" stroke-linecap="round" fill="transparent" stroke-linejoin="round" points="79.93341064453125 67.4666748046875 79.93341064453125 88.80000305175781 79.93341064453125 103.73333740234376 76.7333984375 153.86668395996094 70.3333740234375 179.4666748046875 66.06671142578125 193.33334350585935 63.93341064453125 198.66668701171875 58.60003662109375 196.53335571289065 58.60003662109375 196.53335571289065 " />
        <polyline stroke="black" stroke-width="3" stroke-linecap="round" fill="transparent" stroke-linejoin="round" points="84.2000732421875 136.80001831054688 106.60003662109376 151.73338317871094 115.1334228515625 157.06671142578125 120.466796875 159.20001220703125 120.466796875 159.20001220703125 " />
        <polyline stroke="black" stroke-width="3" stroke-linecap="round" fill="transparent" stroke-linejoin="round" points="127.93341064453124 68.53335571289063 118.3333740234375 117.60000610351563 115.1334228515625 133.6000213623047 115.1334228515625 141.06671142578125 114.06671142578124 144.26669311523438 114.06671142578124 144.26669311523438 " />
        <polyline stroke="black" stroke-width="3" stroke-linecap="round" fill="transparent" stroke-linejoin="round" points="121.53338623046876 98.40000915527344 147.1334228515625 88.80000305175781 168.466796875 81.33334350585938 178.0667724609375 78.13334655761719 182.3333740234375 73.86668395996094 182.3333740234375 71.73333740234375 182.3333740234375 71.73333740234375 " />
        <polyline stroke="black" stroke-width="3" stroke-linecap="round" fill="transparent" stroke-linejoin="round" points="154.60009765625 36.533355712890625 149.2667236328125 77.06668090820313 142.86669921875 118.66667175292967 135.4000244140625 154.93336486816406 127.93341064453124 183.73336791992188 122.60003662109376 198.66668701171875 117.2667236328125 202.933349609375 117.2667236328125 202.933349609375 " />
        <polyline stroke="black" stroke-width="3" stroke-linecap="round" fill="transparent" stroke-linejoin="round" points="147.1334228515625 127.20001220703124 159.933349609375 149.6000213623047 181.2667236328125 180.53335571289065 203.666748046875 206.13336181640625 232.4666748046875 234.933349609375 241 242.40005493164065 241 242.40005493164065 " />
        </svg>