<?xml version="1.0" standalone="no"?>
    <svg width="256" height="256" xmlns="http://www.w3.org/2000/svg" version="1.1">
    <polyline stroke="black" stroke-width="3" stroke-linecap="round" fill="transparent" stroke-linejoin="round" points="85.06121826171875 86.94027709960938 81.33294677734375 93.15408325195313 77.1904296875 101.02488708496094 70.14813232421875 113.03823852539063 63.934326171875 121.737548828125 59.377532958984375 127.12283325195313 56.477752685546875 130.0225830078125 55.2349853515625 130.43685913085938 54.406494140625 130.0225830078125 54.406494140625 129.60833740234375 54.820770263671875 128.36558532714844 63.105804443359375 120.90902709960938 76.776123046875 112.62396240234376 93.34628295898438 104.75315856933594 110.33065795898438 97.71086120605467 119.02996826171876 94.81109619140624 138.91412353515625 90.66854858398438 143.056640625 90.25430297851563 150.09893798828125 91.4970703125 151.7559814453125 96.8823699951172 150.51318359375 111.79547119140624 145.54217529296875 128.7798309326172 137.67135620117188 144.10720825195313 129.800537109375 155.70628356933594 126.072265625 160.2630615234375 122.75823974609376 163.16282653808594 122.75823974609376 163.16282653808594 " />
        <polyline stroke="black" stroke-width="3" stroke-linecap="round" fill="transparent" stroke-linejoin="round" points="111.15914916992188 160.67730712890625 125.65802001953124 170.2051239013672 141.81390380859375 183.4612274169922 149.68466186523438 191.74627685546875 149.68466186523438 191.74627685546875 " />
        </svg>