<?xml version="1.0" standalone="no"?>
    <svg width="256" height="256" xmlns="http://www.w3.org/2000/svg" version="1.1">
    <polyline stroke="black" stroke-width="3" stroke-linecap="round" fill="transparent" stroke-linejoin="round" points="91.62689208984376 76.84918212890625 87.21002197265625 85.24127197265625 73.51766967773438 111.74261474609376 66.00897216796875 126.318359375 59.383636474609375 138.68565368652344 54.96673583984375 147.07774353027344 53.64166259765625 149.2861785888672 53.64166259765625 149.2861785888672 " />
        <polyline stroke="black" stroke-width="3" stroke-linecap="round" fill="transparent" stroke-linejoin="round" points="102.2274169921875 107.32574462890624 107.08602905273438 105.5589599609375 111.944580078125 104.23391723632813 117.244873046875 102.90884399414063 123.428466796875 101.58377075195313 134.470703125 100.25871276855467 144.1878662109375 99.8170166015625 151.6966552734375 100.70040893554688 156.996826171875 102.46714782714844 159.64697265625 104.23391723632813 161.41375732421875 108.65080261230467 160.5303955078125 120.13470458984376 153.905029296875 135.1521453857422 143.30450439453125 150.1695556640625 130.49554443359375 162.97854614257813 126.07861328125 166.9537353515625 126.07861328125 166.9537353515625 " />
        <polyline stroke="black" stroke-width="3" stroke-linecap="round" fill="transparent" stroke-linejoin="round" points="115.47811889648438 159.44503784179688 119.89498901367188 162.97854614257813 125.19525146484376 167.3954315185547 137.120849609375 178.43765258789063 150.813232421875 192.57171630859375 158.76361083984375 202.7305603027344 158.76361083984375 202.7305603027344 " />
        </svg>