<?xml version="1.0" standalone="no"?>
    <svg width="256" height="256" xmlns="http://www.w3.org/2000/svg" version="1.1">
    <polyline stroke="black" stroke-width="3" stroke-linecap="round" fill="transparent" stroke-linejoin="round" points="104.53045654296876 59.950469970703125 99.72665405273438 73.76457214355469 87.18417358398438 104.27877807617188 81.07879638671875 117.79722595214844 68.49951171875 141.3267822265625 57.669036865234375 158.72085571289063 53.264007568359375 165.56224060058594 51.47412109375 170.82603454589844 51.295135498046875 171.35240173339844 " />
        <polyline stroke="black" stroke-width="3" stroke-linecap="round" fill="transparent" stroke-linejoin="round" points="117.70346069335938 77.67416381835938 134.92626953125 74.11767578125 143.70394897460938 72.19515991210938 156.872314453125 69.5594482421875 159.90130615234375 68.947021484375 164.48388671875 67.98387145996094 166.17083740234375 68.53990173339844 166.416748046875 68.82374572753906 166.52044677734375 68.94345092773438 166.59906005859375 69.03413391113281 166.6759033203125 73.47686767578125 166.48040771484375 84.13836669921875 162.822021484375 106.24923706054688 159.80340576171875 118.95565795898438 152.30078125 140.54177856445313 148.09445190429688 150.93260192871094 139.15707397460938 168.12698364257813 128.21017456054688 185.481201171875 124.10763549804688 190.90719604492188 124.59335327148438 189.031494140625 " />
        <polyline stroke="black" stroke-width="3" stroke-linecap="round" fill="transparent" stroke-linejoin="round" points="132.997314453125 187.47525024414065 138.38604736328125 191.1114501953125 144.86376953125 195.57174682617188 147.64813232421875 198.4422912597656 149.257080078125 200.97738647460935 149.35955810546875 201.13885498046875 " />
        </svg>