<?xml version="1.0" standalone="no"?>
    <svg width="256" height="256" xmlns="http://www.w3.org/2000/svg" version="1.1">
    <polyline stroke="black" stroke-width="3" stroke-linecap="round" fill="transparent" stroke-linejoin="round" points="49.22930908203125 95.18576049804688 37.9111328125 116.52864074707033 30.15008544921875 133.02084350585938 23.035797119140625 145.30917358398438 18.508514404296875 150.4832000732422 16.244903564453125 151.4533233642578 16.244903564453125 151.4533233642578 " />
        <polyline stroke="black" stroke-width="3" stroke-linecap="round" fill="transparent" stroke-linejoin="round" points="51.81634521484375 79.987060546875 60.870880126953125 73.84291076660156 64.75137329101563 72.22601318359375 69.60202026367188 71.90264892578125 73.80593872070313 82.25070190429688 70.57217407226563 119.11564636230467 60.224151611328125 152.42344665527344 50.5228271484375 178.61695861816406 41.46826171875 197.6961975097656 33.70721435546875 208.36761474609375 27.886474609375 211.92477416992188 27.886474609375 211.92477416992188 " />
        <polyline stroke="black" stroke-width="3" stroke-linecap="round" fill="transparent" stroke-linejoin="round" points="63.134490966796875 165.03515625 78.00985717773438 172.4727783203125 91.268310546875 176.6767120361328 94.17864990234376 177.32347106933594 94.17864990234376 177.32347106933594 " />
        <polyline stroke="black" stroke-width="3" stroke-linecap="round" fill="transparent" stroke-linejoin="round" points="109.37741088867188 126.87669372558594 99.99945068359376 153.7169647216797 95.1488037109375 171.502685546875 93.85528564453124 176.3533172607422 92.2384033203125 181.20399475097656 90.62152099609376 180.2338409423828 92.2384033203125 160.1844940185547 96.11895751953124 144.98577880859375 103.8800048828125 136.9013671875 113.58126831054688 134.63772583007813 123.92935180664063 138.51824951171875 133.30728149414063 145.30917358398438 140.42156982421875 151.7766876220703 145.5955810546875 155.0104522705078 149.47613525390625 152.74681091308594 149.47613525390625 152.74681091308594 " />
        <polyline stroke="black" stroke-width="3" stroke-linecap="round" fill="transparent" stroke-linejoin="round" points="177.9332275390625 95.50914001464844 166.29168701171875 117.49876403808594 159.50079345703125 130.11045837402344 152.386474609375 141.4286651611328 149.1527099609375 147.5727996826172 147.8592529296875 151.7766876220703 151.4163818359375 151.7766876220703 160.7943115234375 149.18968200683594 172.43585205078125 149.18968200683594 184.077392578125 153.7169647216797 195.07220458984375 161.15463256835938 204.12677001953125 172.4727783203125 212.211181640625 181.20399475097656 218.35540771484375 189.28839111328125 222.88262939453125 193.16891479492188 222.88262939453125 193.16891479492188 " />
        </svg>