<?xml version="1.0" standalone="no"?>
    <svg width="256" height="256" xmlns="http://www.w3.org/2000/svg" version="1.1">
    <polyline stroke="black" stroke-width="3" stroke-linecap="round" fill="transparent" stroke-linejoin="round" points="93.60092163085938 72.11648559570313 89.04647827148438 77.91300964355469 79.52365112304688 90.33412170410156 70.414794921875 102.34121704101563 66.6884765625 107.30966186523438 59.649871826171875 116.41845703125 55.92352294921875 121.38690185546876 54.681396484375 122.21499633789063 55.095458984375 120.97288513183594 60.06390380859375 114.7623291015625 65.0323486328125 108.96578979492188 83.25 92.40432739257813 92.35882568359376 86.19375610351563 98.5693359375 82.88145446777344 102.295654296875 82.05337524414063 103.95184326171876 83.29548645019531 103.53781127929688 92.81834411621094 97.74130249023438 111.8640594482422 84.9061279296875 142.50279235839844 70.414794921875 172.72752380371094 61.720062255859375 187.63287353515625 58.82177734375 191.77322387695313 53.0252685546875 195.91360473632813 53.0252685546875 195.91360473632813 " />
        <polyline stroke="black" stroke-width="3" stroke-linecap="round" fill="transparent" stroke-linejoin="round" points="76.6253662109375 133.8080291748047 82.00790405273438 137.12033081054688 87.80438232421875 141.26068115234375 101.46762084960938 150.3695068359375 113.88873291015624 158.2362060546875 122.99755859375 163.20465087890625 130.4501953125 164.44676208496094 130.4501953125 164.44676208496094 " />
        <polyline stroke="black" stroke-width="3" stroke-linecap="round" fill="transparent" stroke-linejoin="round" points="148.6678466796875 96.544677734375 144.94149780273438 108.96578979492188 140.80111694335938 121.80094909667967 133.34848022460938 142.08877563476563 127.137939453125 159.4783172607422 124.6536865234375 165.6888885498047 120.92733764648438 175.21173095703125 120.92733764648438 175.21173095703125 " />
        <polyline stroke="black" stroke-width="3" stroke-linecap="round" fill="transparent" stroke-linejoin="round" points="159.84686279296875 154.50987243652344 165.2293701171875 157.82217407226563 170.19775390625 160.306396484375 178.478515625 164.44676208496094 192.5557861328125 164.44676208496094 192.5557861328125 164.44676208496094 " />
        <polyline stroke="black" stroke-width="3" stroke-linecap="round" fill="transparent" stroke-linejoin="round" points="202.07861328125 85.36567687988281 198.766357421875 96.95870971679688 191.72772216796875 120.97288513183594 185.1031494140625 141.26068115234375 182.204833984375 148.71336364746094 176.8223876953125 162.3765869140625 172.6820068359375 170.2432861328125 170.19775390625 173.14154052734375 170.19775390625 173.14154052734375 " />
        <polyline stroke="black" stroke-width="3" stroke-linecap="round" fill="transparent" stroke-linejoin="round" points="200.00848388671875 164.86080932617188 204.5628662109375 167.34503173828125 213.67169189453125 172.72752380371094 219.46820068359375 176.86788940429688 219.46820068359375 176.86788940429688 " />
        </svg>