<?xml version="1.0" standalone="no"?>
    <svg width="256" height="256" xmlns="http://www.w3.org/2000/svg" version="1.1">
    <polyline stroke="black" stroke-width="3" stroke-linecap="round" fill="transparent" stroke-linejoin="round" points="67.64556884765625 73.9835205078125 59.2684326171875 88.22463989257813 47.959320068359375 107.91087341308594 42.51416015625 116.70684814453124 42.095306396484375 117.54458618164063 43.770751953125 116.28800964355467 49.634735107421875 111.26174926757813 58.0118408203125 103.72233581542967 62.61932373046875 99.95262145996094 73.509521484375 91.5754852294922 77.69808959960938 89.481201171875 79.37353515625 89.90005493164063 79.79241943359375 103.303466796875 70.99642944335938 135.9742431640625 65.13241577148438 154.82278442382813 49.634735107421875 196.7084045410156 42.095306396484375 213.462646484375 39.163330078125 217.65121459960935 39.163330078125 217.65121459960935 " />
        <polyline stroke="black" stroke-width="3" stroke-linecap="round" fill="transparent" stroke-linejoin="round" points="64.71356201171875 162.3621826171875 76.44158935546875 172.83360290527344 89.84494018554688 184.56158447265625 100.31634521484376 194.19528198242188 108.69345092773438 200.89697265625 108.69345092773438 200.89697265625 " />
        <polyline stroke="black" stroke-width="3" stroke-linecap="round" fill="transparent" stroke-linejoin="round" points="116.23287963867188 93.25091552734376 110.78778076171876 121.31430053710938 104.0860595703125 152.72850036621094 96.12777709960938 184.14273071289065 92.35809326171876 196.7084045410156 92.35809326171876 196.7084045410156 " />
        <polyline stroke="black" stroke-width="3" stroke-linecap="round" fill="transparent" stroke-linejoin="round" points="125.02886962890624 159.01133728027344 129.2174072265625 161.10562133789063 137.59457397460938 165.71304321289063 145.13397216796875 168.64505004882813 149.74139404296875 169.48275756835938 149.74139404296875 169.48275756835938 " />
        <polyline stroke="black" stroke-width="3" stroke-linecap="round" fill="transparent" stroke-linejoin="round" points="166.0767822265625 107.49203491210938 163.144775390625 120.05772399902344 159.7939453125 133.04226684570313 151.41680908203125 164.03762817382813 146.80941772460938 178.2787322998047 144.715087890625 184.56158447265625 140.107666015625 195.8706970214844 140.107666015625 195.8706970214844 " />
        <polyline stroke="black" stroke-width="3" stroke-linecap="round" fill="transparent" stroke-linejoin="round" points="195.396728515625 179.11643981933594 203.77386474609375 186.23699951171875 203.77386474609375 186.23699951171875 " />
        </svg>