<?xml version="1.0" standalone="no"?>
    <svg width="256" height="256" xmlns="http://www.w3.org/2000/svg" version="1.1">
    <polyline stroke="black" stroke-width="3" stroke-linecap="round" fill="transparent" stroke-linejoin="round" points="83 89 83 96 76 116 66 136 61 145 53 160 47 167 47 167 " />
        <polyline stroke="black" stroke-width="3" stroke-linecap="round" fill="transparent" stroke-linejoin="round" points="95 93 98 103 100 130 100 140 98 150 93 167 84 182 76 192 68 197 68 197 " />
        <polyline stroke="black" stroke-width="3" stroke-linecap="round" fill="transparent" stroke-linejoin="round" points="86 133 91 137 106 157 116 172 120 179 122 184 122 184 " />
        <polyline stroke="black" stroke-width="3" stroke-linecap="round" fill="transparent" stroke-linejoin="round" points="138 86 137 102 129 126 123 153 122 164 120 186 120 186 " />
        <polyline stroke="black" stroke-width="3" stroke-linecap="round" fill="transparent" stroke-linejoin="round" points="138 146 142 157 150 169 150 169 " />
        <polyline stroke="black" stroke-width="3" stroke-linecap="round" fill="transparent" stroke-linejoin="round" points="178 86 178 92 171 119 166 143 165 152 164 166 164 170 164 170 " />
        <polyline stroke="black" stroke-width="3" stroke-linecap="round" fill="transparent" stroke-linejoin="round" points="183 129 183 133 188 144 194 157 200 172 200 172 " />
        <polyline stroke="black" stroke-width="3" stroke-linecap="round" fill="transparent" stroke-linejoin="round" points="112 177 116 177 136 177 144 178 168 183 177 186 199 197 213 209 220 215 220 215 " />
        </svg>