<?xml version="1.0" standalone="no"?>
    <svg width="256" height="256" xmlns="http://www.w3.org/2000/svg" version="1.1">
    <polyline stroke="black" stroke-width="3" stroke-linecap="round" fill="transparent" stroke-linejoin="round" points="66.31365966796875 117.27322387695313 84.78936767578125 109.8829345703125 102.0333251953125 105.36666870117188 118.04559326171876 102.49267578125 129.13104248046875 100.85040283203124 136.1107177734375 99.20809936523438 138.57415771484375 98.38697814941406 138.57415771484375 98.38697814941406 " />
        <polyline stroke="black" stroke-width="3" stroke-linecap="round" fill="transparent" stroke-linejoin="round" points="83.5576171875 86.89097595214844 80.68365478515625 95.51296997070313 78.22021484375 104.5455322265625 74.114501953125 122.6106414794922 71.24053955078125 143.54977416992188 70.41937255859375 154.224609375 70.41937255859375 162.8466033935547 70.82992553710938 168.18402099609375 72.0616455078125 171.87918090820313 73.70394897460938 173.9320068359375 75.34619140625 174.75315856933594 80.68365478515625 174.34259033203125 91.76904296875 169.41574096679688 99.98046875 161.61489868164063 99.98046875 161.61489868164063 " />
        <polyline stroke="black" stroke-width="3" stroke-linecap="round" fill="transparent" stroke-linejoin="round" points="106.54962158203124 81.96412658691406 102.8544921875 97.56582641601563 101.21221923828124 106.59837341308594 99.56991577148438 126.3057861328125 99.15936279296876 143.1392059326172 99.56991577148438 153.81405639648438 99.56991577148438 161.20433044433594 99.56991577148438 161.20433044433594 " />
        <polyline stroke="black" stroke-width="3" stroke-linecap="round" fill="transparent" stroke-linejoin="round" points="160.33441162109375 112.75694274902344 165.671875 111.52523803710938 179.220703125 107.41952514648438 186.20037841796875 104.13494873046876 186.20037841796875 104.13494873046876 " />
        <polyline stroke="black" stroke-width="3" stroke-linecap="round" fill="transparent" stroke-linejoin="round" points="174.70440673828125 90.9967041015625 171.00927734375 106.18780517578124 166.4930419921875 121.37893676757813 160.7449951171875 136.9806365966797 153.76531982421875 150.94004821777344 146.375 161.20433044433594 139.395263671875 167.77346801757813 132.826171875 172.70030212402344 126.66757202148438 175.1637420654297 122.97247314453124 175.98486328125 121.33016967773438 176.39544677734375 121.33016967773438 175.57431030273438 123.79364013671876 174.34259033203125 145.55389404296875 168.18402099609375 155.4075927734375 166.13116455078125 176.75726318359375 162.8466033935547 203.4443359375 162.02545166015625 215.761474609375 166.9523162841797 215.761474609375 166.9523162841797 " />
        </svg>