<?xml version="1.0" standalone="no"?>
    <svg width="256" height="256" xmlns="http://www.w3.org/2000/svg" version="1.1">
    <polyline stroke="black" stroke-width="3" stroke-linecap="round" fill="transparent" stroke-linejoin="round" points="85.9010009765625 97.64715576171876 88.9493408203125 117.25277709960938 92.86865234375 145.1363067626953 92.86865234375 147.75042724609375 93.30410766601563 149.4931182861328 93.30410766601563 149.0574493408203 93.30410766601563 149.0574493408203 " />
        <polyline stroke="black" stroke-width="3" stroke-linecap="round" fill="transparent" stroke-linejoin="round" points="117.6907958984375 93.29037475585938 134.2388916015625 90.2406005859375 155.5772705078125 83.70538330078125 162.9803466796875 81.96267700195313 171.68988037109375 81.09130859375 173.86724853515625 80.6556396484375 175.1737060546875 81.09130859375 176.4801025390625 81.96267700195313 176.4801025390625 84.14108276367188 176.04461669921875 93.29037475585938 174.302734375 100.26123046875 169.512451171875 114.63870239257813 167.77056884765625 120.73822021484376 164.72222900390625 131.19454956054688 163.41583251953125 135.1156768798828 160.36749267578125 139.0367889404297 159.49652099609375 139.4724884033203 158.1900634765625 139.4724884033203 158.62554931640625 139.4724884033203 158.62554931640625 139.4724884033203 " />
        <polyline stroke="black" stroke-width="3" stroke-linecap="round" fill="transparent" stroke-linejoin="round" points="131.1905517578125 68.45658874511719 131.1905517578125 98.95420837402344 130.75506591796875 111.58894348144533 128.57769775390625 132.06590270996094 127.70672607421876 139.0367889404297 126.8358154296875 143.8292999267578 124.65841674804688 149.4931182861328 123.78744506835938 151.23583984375 122.48101806640624 154.72128295898438 121.61007690429688 155.59263610839844 121.17459106445313 156.02835083007813 121.17459106445313 156.02835083007813 " />
        <polyline stroke="black" stroke-width="3" stroke-linecap="round" fill="transparent" stroke-linejoin="round" points="119.43267822265624 160.82083129882813 " />
        <polyline stroke="black" stroke-width="3" stroke-linecap="round" fill="transparent" stroke-linejoin="round" points="119 161 " />
        <polyline stroke="black" stroke-width="3" stroke-linecap="round" fill="transparent" stroke-linejoin="round" points="86.33648681640625 208.30999755859375 88.51385498046875 216.1522216796875 90.69125366210938 221.8160400390625 91.126708984375 223.12310791015625 91.126708984375 223.55877685546875 91.126708984375 223.55877685546875 " />
        <polyline stroke="black" stroke-width="3" stroke-linecap="round" fill="transparent" stroke-linejoin="round" points="89.8203125 180.86212158203125 102.4490966796875 176.0696258544922 129.88409423828125 167.7917022705078 140.3355712890625 164.741943359375 157.754638671875 159.07810974121094 164.2867431640625 157.33535766601563 169.512451171875 156.89968872070313 174.302734375 156.89968872070313 174.73822021484375 157.7710418701172 172.99627685546875 162.12786865234375 170.3834228515625 166.92034912109375 162.54486083984375 179.11940002441406 157.31915283203125 186.09027099609375 142.07745361328125 201.7747802734375 142.07745361328125 201.7747802734375 " />
        <polyline stroke="black" stroke-width="3" stroke-linecap="round" fill="transparent" stroke-linejoin="round" points="61.51434326171875 223.12310791015625 79.80435180664063 220.0733337402344 116.38433837890624 211.79541015625 132.93246459960938 208.74563598632813 159.06103515625 203.95318603515625 168.2060546875 203.08181762695313 180.3994140625 203.08181762695313 183.8831787109375 203.08181762695313 186.9315185546875 203.95318603515625 186.9315185546875 203.95318603515625 " />
        </svg>