<?xml version="1.0" standalone="no"?>
    <svg width="256" height="256" xmlns="http://www.w3.org/2000/svg" version="1.1">
    <polyline stroke="black" stroke-width="3" stroke-linecap="round" fill="transparent" stroke-linejoin="round" points="82.15045166015625 82.13372802734375 82.70806884765625 94.95899963378906 83.82330322265625 108.89950561523438 83.26568603515625 120.05192565917967 82.70806884765625 125.6281280517578 82.70806884765625 125.6281280517578 " />
        <polyline stroke="black" stroke-width="3" stroke-linecap="round" fill="transparent" stroke-linejoin="round" points="93.3028564453125 67.07797241210938 106.12811279296876 59.82891845703125 122.85675048828124 54.25270080566406 138.4700927734375 53.13746643066406 151.85302734375 55.925567626953125 160.77490234375 62.05938720703125 166.35113525390625 69.86607360839844 168.02398681640625 81.01849365234375 165.23590087890625 91.0556640625 157.42919921875 100.5352020263672 142.37347412109375 108.34188842773438 142.37347412109375 108.34188842773438 " />
        <polyline stroke="black" stroke-width="3" stroke-linecap="round" fill="transparent" stroke-linejoin="round" points="106.12811279296876 40.31219482421875 106.68572998046876 57.040802001953125 108.91622924804688 88.82518005371094 110.589111328125 106.11140441894533 112.819580078125 122.84002685546876 113.377197265625 135.66529846191406 111.704345703125 146.2600860595703 111.704345703125 146.2600860595703 " />
        <polyline stroke="black" stroke-width="3" stroke-linecap="round" fill="transparent" stroke-linejoin="round" points="84.38092041015625 175.25634765625 84.38092041015625 189.7544860839844 86.05377197265625 203.69497680664065 88.28427124023438 210.94406127929688 90.5147705078125 213.17453002929688 90.5147705078125 208.71356201171875 92.7452392578125 191.4273376464844 96.6485595703125 182.50540161132813 102.78240966796876 174.69873046875 113.377197265625 166.3344268798828 127.87530517578124 158.52774047851563 141.25820922851563 154.0667724609375 152.41064453125 153.5091552734375 160.77490234375 155.73963928222656 166.35113525390625 159.64297485351563 170.2545166015625 165.77679443359375 170.8121337890625 173.58348083496094 164.12066650390625 186.96636962890625 139.58535766601563 207.59832763671875 139.58535766601563 207.59832763671875 " />
        <polyline stroke="black" stroke-width="3" stroke-linecap="round" fill="transparent" stroke-linejoin="round" points="60.96087646484375 221.53884887695313 79.91998291015625 218.750732421875 110.589111328125 214.847412109375 131.7786865234375 213.17453002929688 154.08349609375 212.61691284179688 171.9273681640625 212.05929565429688 186.42547607421875 210.94406127929688 197.020263671875 210.38644409179688 202.596435546875 210.38644409179688 204.269287109375 211.50167846679688 204.269287109375 211.50167846679688 " />
        </svg>