<?xml version="1.0" standalone="no"?>
    <svg width="256" height="256" xmlns="http://www.w3.org/2000/svg" version="1.1">
    <polyline stroke="black" stroke-width="3" stroke-linecap="round" fill="transparent" stroke-linejoin="round" points="86.90072631835938 78.33099365234375 86.90072631835938 93.54855346679688 87.822998046875 105.53814697265624 88.28414916992188 112.91635131835938 88.28414916992188 116.60546875 87.36187744140625 116.14431762695313 87.36187744140625 116.14431762695313 " />
        <polyline stroke="black" stroke-width="3" stroke-linecap="round" fill="transparent" stroke-linejoin="round" points="103.501708984375 69.10824584960938 117.79696655273438 61.73002624511719 133.47567749023438 58.040924072265625 147.77093505859375 58.50205993652344 161.14398193359375 63.113433837890625 170.827880859375 70.49165344238281 177.74493408203125 79.25326538085938 180.972900390625 88.47602844238281 179.12835693359375 96.31536865234376 171.7501220703125 101.84904479980467 171.7501220703125 101.84904479980467 " />
        <polyline stroke="black" stroke-width="3" stroke-linecap="round" fill="transparent" stroke-linejoin="round" points="127.01974487304688 50.201568603515625 128.8642578125 60.80775451660156 130.70883178710938 73.25848388671875 132.09225463867188 86.17034912109375 133.47567749023438 105.53814697265624 132.55340576171875 119.37229919433594 130.24774169921875 127.67277526855467 127.48089599609376 132.28414916992188 127.48089599609376 132.28414916992188 " />
        <polyline stroke="black" stroke-width="3" stroke-linecap="round" fill="transparent" stroke-linejoin="round" points="97.968017578125 158.5690155029297 97.968017578125 162.71923828125 97.968017578125 166.40835571289063 98.42919921875 169.1751708984375 98.42919921875 172.86428833007813 98.42919921875 174.24771118164063 98.42919921875 173.78656005859375 101.65716552734376 169.63632202148438 111.80218505859376 159.49130249023438 128.40316772460938 146.57940673828125 145.00411987304688 138.2789306640625 159.76055908203125 135.51211547851563 169.4444580078125 136.43438720703125 173.59466552734375 139.2012176513672 174.5169677734375 144.27374267578125 165.75537109375 155.34104919433594 138.54818725585938 173.32542419433594 110.41879272460938 187.1595764160156 89.2064208984375 194.53778076171875 76.75570678710938 196.38232421875 69.838623046875 196.38232421875 66.14950561523438 196.38232421875 65.22723388671875 196.38232421875 67.07177734375 196.38232421875 80.44479370117188 195.4600524902344 104.88510131835938 193.61550903320313 133.47567749023438 192.6932373046875 160.68280029296875 192.23208618164065 184.6619873046875 192.23208618164065 204.02978515625 192.23208618164065 217.40283203125 192.6932373046875 225.24212646484375 193.15435791015625 225.24212646484375 193.15435791015625 " />
        </svg>