<?xml version="1.0" standalone="no"?>
    <svg width="256" height="256" xmlns="http://www.w3.org/2000/svg" version="1.1">
    <polyline stroke="black" stroke-width="3" stroke-linecap="round" fill="transparent" stroke-linejoin="round" points="78 66 78 71 78 84 79 103 80 111 83 124 85 134 88 138 89 138 89 138 " />
        <polyline stroke="black" stroke-width="3" stroke-linecap="round" fill="transparent" stroke-linejoin="round" points="98 64 123 57 150 54 173 53 189 54 199 62 202 76 203 93 200 107 192 117 181 124 170 125 158 122 158 122 " />
        <polyline stroke="black" stroke-width="3" stroke-linecap="round" fill="transparent" stroke-linejoin="round" points="138 45 138 67 138 87 138 107 137 125 133 141 133 141 " />
        <polyline stroke="black" stroke-width="3" stroke-linecap="round" fill="transparent" stroke-linejoin="round" points="94 167 94 172 94 178 94 190 96 202 98 209 101 213 102 214 103 214 103 214 " />
        <polyline stroke="black" stroke-width="3" stroke-linecap="round" fill="transparent" stroke-linejoin="round" points="95 167 106 164 125 161 142 160 157 160 165 160 169 163 169 167 169 175 169 185 165 196 165 196 " />
        <polyline stroke="black" stroke-width="3" stroke-linecap="round" fill="transparent" stroke-linejoin="round" points="54 211 64 210 73 208 96 202 118 198 140 196 158 194 172 194 180 194 187 194 193 194 193 194 " />
        </svg>