<?xml version="1.0" standalone="no"?>
    <svg width="256" height="256" xmlns="http://www.w3.org/2000/svg" version="1.1">
    <polyline stroke="black" stroke-width="3" stroke-linecap="round" fill="transparent" stroke-linejoin="round" points="80.95880126953125 30.42247009277344 74.67596435546875 48.852142333984375 66.71771240234375 72.30809020996094 61.69140625 84.03607177734375 51.63885498046875 104.56002807617188 47.450286865234375 111.68058776855467 43.26171875 117.9634246826172 43.26171875 117.9634246826172 " />
        <polyline stroke="black" stroke-width="3" stroke-linecap="round" fill="transparent" stroke-linejoin="round" points="65.042236328125 103.72233581542967 88.079345703125 94.92634582519533 97.294189453125 92.41319274902344 114.88616943359376 87.8057861328125 129.9649658203125 83.61721801757813 143.36837768554688 79.00979614257813 148.8134765625 75.658935546875 148.8134765625 75.658935546875 " />
        <polyline stroke="black" stroke-width="3" stroke-linecap="round" fill="transparent" stroke-linejoin="round" points="151.74554443359375 31.26018524169922 153.4208984375 42.98815155029297 155.93408203125 49.27099609375 158.8660888671875 55.55384826660156 161.79803466796875 62.25555419921875 167.66204833984375 76.07780456542969 171.01287841796875 93.66976928710938 171.01287841796875 93.66976928710938 " />
        <polyline stroke="black" stroke-width="3" stroke-linecap="round" fill="transparent" stroke-linejoin="round" points="81.37765502929688 135.9742431640625 78.864501953125 149.79649353027344 78.44564819335938 155.66049194335938 78.44564819335938 160.686767578125 79.28338623046875 169.90159606933594 81.37765502929688 175.76559448242188 86.82275390625 179.11643981933594 99.38848876953124 178.69757080078125 115.723876953125 172.41473388671875 131.22152709960938 162.3621826171875 137.92327880859375 156.079345703125 149.65121459960938 141.83824157714844 152.583251953125 137.23081970214844 153.83978271484375 134.29881286621094 154.2586669921875 133.04226684570313 154.677490234375 133.4611053466797 155.5152587890625 135.55538940429688 156.3529052734375 138.90625 157.190673828125 151.05307006835938 153.4208984375 158.1736297607422 151.32666015625 160.26791381835938 151.32666015625 160.26791381835938 " />
        <polyline stroke="black" stroke-width="3" stroke-linecap="round" fill="transparent" stroke-linejoin="round" points="129.546142578125 128.85369873046875 128.70843505859375 140.16282653808594 127.032958984375 153.1473388671875 121.58786010742188 180.37301635742188 116.14276123046876 202.5723876953125 113.210693359375 213.0438232421875 113.210693359375 213.0438232421875 " />
        </svg>