<?xml version="1.0" standalone="no"?>
    <svg width="256" height="256" xmlns="http://www.w3.org/2000/svg" version="1.1">
    <polyline stroke="black" stroke-width="3" stroke-linecap="round" fill="transparent" stroke-linejoin="round" points="87.5068359375 40.62055969238281 85.322509765625 65.25227355957031 82.69235229492188 76.12496948242188 73.96517944335938 99.71995544433594 64.20819091796875 120.79931640625 59.906707763671875 128.706787109375 57.26409912109375 132.01605224609375 54.3551025390625 133.67059326171875 54.24224853515625 133.7484130859375 " />
        <polyline stroke="black" stroke-width="3" stroke-linecap="round" fill="transparent" stroke-linejoin="round" points="129.916259765625 60.41162109375 149.19281005859375 69.6737060546875 159.0228271484375 76.0230712890625 171.27996826171875 84.64224243164063 199.62811279296875 105.37124633789063 209.32513427734375 113.26921081542967 218.138427734375 122.06585693359376 219.7998046875 123.96316528320313 220.58978271484375 124.75457763671876 220.5982666015625 124.76300048828124 220.60076904296875 124.76559448242188 " />
        <polyline stroke="black" stroke-width="3" stroke-linecap="round" fill="transparent" stroke-linejoin="round" points="78.08251953125 114.13018798828124 97.7559814453125 107.54156494140624 117.77023315429688 103.93475341796876 127.66790771484376 102.76547241210938 144.3455810546875 102.08102416992188 156.45745849609375 102.6226043701172 158.41424560546875 102.90496826171876 158.6053466796875 102.93255615234376 158.61724853515625 102.93424987792967 158.62310791015625 102.93511962890624 " />
        <polyline stroke="black" stroke-width="3" stroke-linecap="round" fill="transparent" stroke-linejoin="round" points="72.89913940429688 129.2091064453125 73.44039916992188 156.91958618164063 72.81637573242188 163.18923950195313 71.63104248046875 170.50369262695313 71.11517333984375 172.20188903808594 70.99935913085938 172.84703063964844 71.13204956054688 173.65933227539063 71.55490112304688 175.17674255371094 73.582275390625 176.83267211914063 75.77621459960938 177.89892578125 89.305419921875 180.7788543701172 99.00131225585938 180.5616149902344 119.088134765625 177.4124755859375 129.75741577148438 174.66502380371094 152.4288330078125 168.66976928710938 162.217041015625 166.99224853515625 175.69061279296875 166.30514526367188 181.61688232421875 166.17092895507813 181.71875 166.16610717773438 181.73388671875 166.16537475585938 181.73876953125 166.16514587402344 " />
        <polyline stroke="black" stroke-width="3" stroke-linecap="round" fill="transparent" stroke-linejoin="round" points="165.2574462890625 130.62277221679688 179.48236083984375 157.56402587890625 181.35760498046875 163.05511474609375 183.12030029296875 171.79934692382813 183.24700927734375 174.3150634765625 183.04852294921875 176.3648681640625 182.9959716796875 176.90792846679688 " />
        <polyline stroke="black" stroke-width="3" stroke-linecap="round" fill="transparent" stroke-linejoin="round" points="123.3192138671875 118.3711395263672 127.0821533203125 139.58287048339844 129.00985717773438 170.1376190185547 128.55465698242188 185.26739501953125 124.2154541015625 213.16644287109375 116.80014038085938 232.55075073242188 111.8607177734375 240.38604736328125 111.48788452148438 238.0858154296875 " />
        </svg>