<?xml version="1.0" standalone="no"?>
    <svg width="256" height="256" xmlns="http://www.w3.org/2000/svg" version="1.1">
    <polyline stroke="black" stroke-width="3" stroke-linecap="round" fill="transparent" stroke-linejoin="round" points="114.5030517578125 38.94081115722656 103.61639404296876 53.97484588623047 96.876953125 63.824737548828125 81.84295654296875 86.1165771484375 66.29046630859375 108.40841674804688 53.330078125 127.07135009765624 47.109130859375 136.40281677246094 34.66717529296875 153.51052856445313 30.001434326171875 158.69468688964844 27.40936279296875 161.80517578125 27.40936279296875 161.80517578125 " />
        <polyline stroke="black" stroke-width="3" stroke-linecap="round" fill="transparent" stroke-linejoin="round" points="122.279296875 42.56971740722656 141.97906494140625 43.08812713623047 150.273681640625 44.124961853027344 167.38140869140625 47.75386047363281 182.933837890625 52.938011169433594 194.3389892578125 57.0853271484375 201.5968017578125 60.195831298828125 205.744140625 62.78790283203125 205.744140625 62.78790283203125 " />
        <polyline stroke="black" stroke-width="3" stroke-linecap="round" fill="transparent" stroke-linejoin="round" points="99.98748779296876 127.58978271484376 93.76644897460938 152.9921112060547 92.21124267578124 160.2499237060547 90.65597534179688 166.9893035888672 87.54550170898438 179.94969177246094 84.43499755859375 189.2811584472656 82.361328125 195.50213623046875 82.361328125 195.50213623046875 " />
        <polyline stroke="black" stroke-width="3" stroke-linecap="round" fill="transparent" stroke-linejoin="round" points="94.28488159179688 131.2186737060547 111.392578125 118.77671813964844 119.68722534179688 113.07414245605467 146.12640380859375 100.11376953125 154.939453125 97.0032958984375 171.52874755859375 93.3743896484375 177.74969482421875 93.3743896484375 188.1180419921875 96.48486328125 194.857421875 103.22427368164063 200.5599365234375 115.14781188964844 201.5968017578125 130.18185424804688 196.9310302734375 147.28953552246094 182.933837890625 168.02615356445313 174.12078857421875 178.39443969726563 174.12078857421875 178.39443969726563 " />
        <polyline stroke="black" stroke-width="3" stroke-linecap="round" fill="transparent" stroke-linejoin="round" points="101.54269409179688 167.50772094726563 115.53988647460938 160.2499237060547 123.31613159179688 157.13943481445313 145.08953857421875 147.80796813964844 157.01312255859375 143.66062927246094 161.160400390625 142.1053924560547 167.38140869140625 138.99490356445313 171.01031494140625 135.3660125732422 172.047119140625 132.25552368164063 172.5655517578125 130.18185424804688 172.5655517578125 130.18185424804688 " />
        <polyline stroke="black" stroke-width="3" stroke-linecap="round" fill="transparent" stroke-linejoin="round" points="154.4210205078125 104.77951049804688 144.57113647460938 120.85037231445313 140.94223022460938 128.10818481445313 130.05551147460938 150.91845703125 126.42660522460938 157.13943481445313 119.16879272460938 166.9893035888672 111.91098022460938 174.76553344726563 106.20843505859376 179.94969177246094 101.0242919921875 184.61541748046875 98.95062255859376 186.6890869140625 99.46905517578124 187.72592163085935 108.800537109375 188.24432373046875 129.0186767578125 184.09701538085935 149.75531005859375 178.39443969726563 167.89984130859375 175.283935546875 189.15478515625 175.283935546875 189.15478515625 175.283935546875 " />
        </svg>