<?xml version="1.0" standalone="no"?>
    <svg width="256" height="256" xmlns="http://www.w3.org/2000/svg" version="1.1">
    <polyline stroke="black" stroke-width="3" stroke-linecap="round" fill="transparent" stroke-linejoin="round" points="124.98968505859376 30.688247680664063 110.79696655273438 44.46349334716797 94.51715087890624 64.50022888183594 86.5859375 75.35345458984375 71.975830078125 97.05990600585938 66.13177490234375 106.24343872070313 57.78314208984375 120.43609619140624 51.52166748046875 131.70675659179688 51.52166748046875 131.70675659179688 " />
        <polyline stroke="black" stroke-width="3" stroke-linecap="round" fill="transparent" stroke-linejoin="round" points="130.416259765625 40.70660400390625 144.1915283203125 46.96807861328125 151.287841796875 50.72496795654297 158.8016357421875 54.8992919921875 167.1502685546875 59.908477783203125 185.099853515625 71.17913818359375 193.03106689453125 76.60574340820313 206.80633544921875 86.62411499023438 215.9898681640625 94.55532836914063 218.494384765625 97.05990600585938 218.494384765625 97.05990600585938 " />
        <polyline stroke="black" stroke-width="3" stroke-linecap="round" fill="transparent" stroke-linejoin="round" points="108.29241943359376 135.04623413085938 107.04010009765624 147.56918334960938 106.62265014648438 153.4132080078125 106.20526123046876 159.25726318359375 105.78778076171876 168.44076538085938 105.78778076171876 176.37197875976563 104.53549194335938 181.798583984375 104.53549194335938 181.798583984375 " />
        <polyline stroke="black" stroke-width="3" stroke-linecap="round" fill="transparent" stroke-linejoin="round" points="110.79696655273438 107.9131317138672 123.31991577148438 99.5644989013672 135.00802612304688 94.97276306152344 140.85205078125 93.72047424316406 153.79248046875 93.72047424316406 160.053955078125 95.3901824951172 165.4805908203125 97.894775390625 174.6640625 104.99113464355467 183.0126953125 115.84434509277344 189.274169921875 128.78475952148438 191.361328125 140.8902587890625 188.4393310546875 152.99578857421875 179.67327880859375 164.6838836669922 179.67327880859375 164.6838836669922 " />
        <polyline stroke="black" stroke-width="3" stroke-linecap="round" fill="transparent" stroke-linejoin="round" points="109.12728881835938 141.30770874023438 119.14559936523438 136.29852294921875 123.31991577148438 134.6287841796875 127.91171264648438 132.95904541015625 132.50341796875 131.70675659179688 140.85205078125 128.78475952148438 145.44384765625 127.11502075195313 145.44384765625 127.11502075195313 " />
        <polyline stroke="black" stroke-width="3" stroke-linecap="round" fill="transparent" stroke-linejoin="round" points="137.09518432617188 117.51408386230467 133.75570678710938 129.61959838867188 132.50341796875 135.88107299804688 129.99887084960938 149.2388916015625 127.07684326171876 161.34442138671875 123.73739624023438 170.11050415039063 119.14559936523438 178.45913696289063 112.8841552734375 186.39031982421875 106.20526123046876 191.81695556640625 101.196044921875 195.5738525390625 97.85662841796876 197.6610107421875 96.60433959960938 197.6610107421875 97.021728515625 196.82614135742188 98.69146728515624 195.99127197265625 111.21441650390624 191.3995361328125 123.31991577148438 188.8949279785156 129.58139038085938 188.06005859375 147.113525390625 187.64263916015625 157.54931640625 188.06005859375 164.64569091796875 188.47747802734375 167.98516845703125 188.8949279785156 167.98516845703125 188.8949279785156 " />
        </svg>