<?xml version="1.0" standalone="no"?>
    <svg width="256" height="256" xmlns="http://www.w3.org/2000/svg" version="1.1">
    <polyline stroke="black" stroke-width="3" stroke-linecap="round" fill="transparent" stroke-linejoin="round" points="122.36349487304688 39.59541320800781 118.67440795898438 57.57978820800781 115.4464111328125 69.56936645507813 110.83505249023438 83.86465454101563 104.84027099609376 98.62106323242188 90.08383178710938 127.21163940429688 75.78857421875 149.80740356445313 65.182373046875 162.71923828125 59.648681640625 167.33062744140625 57.804168701171875 168.25291442871094 57.804168701171875 168.25291442871094 " />
        <polyline stroke="black" stroke-width="3" stroke-linecap="round" fill="transparent" stroke-linejoin="round" points="116.36865234375 62.652313232421875 128.81942749023438 61.268890380859375 149.57064819335938 62.652313232421875 160.637939453125 64.03572082519531 186.00054931640625 70.95278930664063 193.83984375 73.71961975097656 203.0626220703125 78.79212951660156 205.36834716796875 80.17555236816406 205.36834716796875 80.17555236816406 " />
        <polyline stroke="black" stroke-width="3" stroke-linecap="round" fill="transparent" stroke-linejoin="round" points="102.07342529296876 155.80218505859375 95.15634155273438 171.4808807373047 91.006103515625 189.00411987304688 89.62274169921875 196.38232421875 87.31698608398438 207.9107666015625 85.93359375 215.28900146484375 85.01132202148438 218.5169677734375 85.01132202148438 218.5169677734375 85.47247314453125 216.67242431640625 85.47247314453125 216.67242431640625 " />
        <polyline stroke="black" stroke-width="3" stroke-linecap="round" fill="transparent" stroke-linejoin="round" points="123.28573608398438 121.67796325683594 135.27536010742188 114.76089477539063 141.73129272460938 112.45523071289063 154.6431884765625 108.76609802246094 168.93841552734375 108.3049774169922 180.927978515625 110.61065673828124 189.228515625 117.06658935546876 197.9901123046875 131.82302856445313 202.60150146484375 153.49649047851563 201.2181396484375 175.631103515625 195.6844482421875 189.00411987304688 191.5341796875 194.53778076171875 181.38916015625 201.454833984375 177.7000732421875 203.2994079589844 177.7000732421875 203.2994079589844 " />
        <polyline stroke="black" stroke-width="3" stroke-linecap="round" fill="transparent" stroke-linejoin="round" points="150.03173828125 137.8177947998047 145.42037963867188 157.646728515625 142.653564453125 165.486083984375 131.58627319335938 184.8538818359375 122.82464599609376 192.6932373046875 113.14071655273438 198.68801879882813 109.45162963867188 200.5325927734375 104.84027099609376 201.454833984375 104.84027099609376 198.22686767578125 107.60711669921876 195.4600524902344 130.20281982421875 179.32022094726563 140.80902099609375 173.78656005859375 160.637939453125 165.94720458984375 178.622314453125 162.71923828125 180.927978515625 163.64154052734375 181.38916015625 175.631103515625 181.38916015625 175.631103515625 " />
        <polyline stroke="black" stroke-width="3" stroke-linecap="round" fill="transparent" stroke-linejoin="round" points="108.52935791015624 244.3406982421875 119.135498046875 239.2681579589844 128.81942749023438 235.57907104492188 139.42559814453125 231.88995361328125 163.40478515625 225.43402099609375 177.2388916015625 223.5894775390625 177.2388916015625 223.5894775390625 " />
        </svg>