<?xml version="1.0" standalone="no"?>
    <svg width="256" height="256" xmlns="http://www.w3.org/2000/svg" version="1.1">
    <polyline stroke="black" stroke-width="3" stroke-linecap="round" fill="transparent" stroke-linejoin="round" points="97.2061767578125 37.40885162353515 99.43667602539063 49.11888122558594 101.66717529296876 58.59843444824219 103.89764404296876 68.07797241210938 107.24334716796876 75.32704162597656 107.24334716796876 75.32704162597656 " />
        <polyline stroke="black" stroke-width="3" stroke-linecap="round" fill="transparent" stroke-linejoin="round" points="166.35113525390625 19.00737762451172 156.31396484375 39.08171081542969 136.7972412109375 68.07797241210938 116.722900390625 92.0556640625 95.5333251953125 116.03334045410156 81.03521728515625 131.64671325683594 81.03521728515625 131.64671325683594 " />
        <polyline stroke="black" stroke-width="3" stroke-linecap="round" fill="transparent" stroke-linejoin="round" points="53.1541748046875 93.1708984375 64.30657958984375 93.1708984375 83.82330322265625 94.2861328125 111.704345703125 98.18948364257813 136.7972412109375 102.65045166015624 156.87158203125 106.55378723144533 172.4849853515625 111.57237243652344 183.0797119140625 117.70619201660156 183.0797119140625 117.70619201660156 " />
        <polyline stroke="black" stroke-width="3" stroke-linecap="round" fill="transparent" stroke-linejoin="round" points="38.65606689453125 169.5648956298828 48.6932373046875 165.66156005859375 68.20993041992188 158.97010803222656 93.3028564453125 152.83628845214844 121.74151611328124 149.49057006835938 142.93109130859375 148.3753204345703 163.56304931640625 147.2600860595703 177.5035400390625 146.7024688720703 185.86785888671875 145.02960205078125 185.86785888671875 145.02960205078125 " />
        <polyline stroke="black" stroke-width="3" stroke-linecap="round" fill="transparent" stroke-linejoin="round" points="101.10955810546876 130.53146362304688 96.6485595703125 138.89578247070313 91.6300048828125 151.72105407714844 85.49615478515625 170.12252807617188 82.70806884765625 185.73590087890625 82.15045166015625 198.0035400390625 83.82330322265625 205.25262451171875 88.84188842773438 210.27120971679688 96.0909423828125 211.38644409179688 105.01287841796876 210.27120971679688 116.165283203125 205.25262451171875 127.87530517578124 196.3306884765625 127.87530517578124 196.3306884765625 " />
        <polyline stroke="black" stroke-width="3" stroke-linecap="round" fill="transparent" stroke-linejoin="round" points="141.81585693359375 132.20433044433594 142.37347412109375 152.27867126464844 143.48870849609375 166.77679443359375 144.60394287109375 179.60206604003906 145.71917724609375 191.8697204589844 146.27679443359375 205.25262451171875 146.27679443359375 205.25262451171875 " />
        </svg>