<?xml version="1.0" standalone="no"?>
    <svg width="256" height="256" xmlns="http://www.w3.org/2000/svg" version="1.1">
    <polyline stroke="black" stroke-width="3" stroke-linecap="round" fill="transparent" stroke-linejoin="round" points="85.54638671875 52.70746612548828 92.8917236328125 70.45875549316406 97.78863525390624 80.2525634765625 102.07342529296876 88.21003723144531 106.9703369140625 94.3311767578125 114.31570434570313 96.77963256835938 114.31570434570313 96.77963256835938 " />
        <polyline stroke="black" stroke-width="3" stroke-linecap="round" fill="transparent" stroke-linejoin="round" points="162.060546875 45.36210632324219 155.3272705078125 53.319580078125 143.08502197265625 66.17396545410156 123.49740600585938 87.59793090820313 102.685546875 109.63400268554688 84.3221435546875 126.16107177734376 68.4072265625 138.40333557128906 68.4072265625 138.40333557128906 " />
        <polyline stroke="black" stroke-width="3" stroke-linecap="round" fill="transparent" stroke-linejoin="round" points="57.38916015625 85.76158142089844 69.63143920898438 83.92524719238281 96.56442260742188 82.70101928710938 131.45489501953125 84.537353515625 162.67266845703125 88.82215881347656 182.8724365234375 92.4948272705078 198.787353515625 96.77963256835938 209.1932373046875 103.51287841796876 209.1932373046875 103.51287841796876 " />
        <polyline stroke="black" stroke-width="3" stroke-linecap="round" fill="transparent" stroke-linejoin="round" points="55.552825927734375 175.74224853515625 70.2435302734375 170.2332305908203 87.38272094726563 167.17266845703125 119.21261596679688 162.2757568359375 144.92138671875 156.76673889160156 166.95745849609375 151.25772094726563 181.648193359375 146.36080932617188 188.38140869140625 143.3002471923828 188.38140869140625 143.3002471923828 " />
        <polyline stroke="black" stroke-width="3" stroke-linecap="round" fill="transparent" stroke-linejoin="round" points="114.92782592773438 126.16107177734376 105.74612426757813 141.46389770507813 99.625 155.54251098632813 94.72808837890624 172.06956481933594 91.055419921875 187.98452758789065 91.055419921875 200.83889770507813 94.115966796875 210.0205993652344 100.84921264648438 215.52963256835935 113.09149169921876 217.97805786132813 127.17010498046876 214.91751098632813 141.24868774414063 206.96002197265625 153.490966796875 194.7177734375 164.509033203125 174.5180206298828 164.509033203125 174.5180206298828 " />
        <polyline stroke="black" stroke-width="3" stroke-linecap="round" fill="transparent" stroke-linejoin="round" points="149.2061767578125 124.32472229003906 146.75772094726563 134.11854553222656 145.53350830078125 148.1971435546875 144.92138671875 164.72421264648438 145.53350830078125 182.4754943847656 145.53350830078125 208.18426513671875 145.53350830078125 208.18426513671875 " />
        </svg>