<?xml version="1.0" standalone="no"?>
    <svg width="256" height="256" xmlns="http://www.w3.org/2000/svg" version="1.1">
    <polyline stroke="black" stroke-width="3" stroke-linecap="round" fill="transparent" stroke-linejoin="round" points="88.16751098632813 52.70746612548828 96.125 62.50128173828125 101.63400268554688 68.62240600585938 107.755126953125 74.74354553222656 115.10049438476563 79.02833557128906 123.0579833984375 78.41622924804688 131.6275634765625 69.84663391113281 142.03350830078125 52.70746612548828 147.54251098632813 45.36210632324219 151.2152099609375 40.46519470214844 152.439453125 39.24097442626953 149.37884521484375 43.52576446533203 133.46389770507813 64.33761596679688 108.36724853515624 102.28865051269533 88.77963256835938 131.05796813964844 74.70101928710938 148.1971435546875 67.35565185546875 154.3182830810547 67.35565185546875 154.3182830810547 " />
        <polyline stroke="black" stroke-width="3" stroke-linecap="round" fill="transparent" stroke-linejoin="round" points="45.93170166015625 101.67652893066406 60.01031494140625 102.9007568359375 91.22808837890624 104.12498474121094 123.0579833984375 105.34921264648438 151.2152099609375 107.185546875 172.02703857421875 109.02189636230467 189.166259765625 110.24612426757813 197.73583984375 110.85823059082033 203.24481201171875 113.3066864013672 203.24481201171875 113.3066864013672 " />
        <polyline stroke="black" stroke-width="3" stroke-linecap="round" fill="transparent" stroke-linejoin="round" points="59.398193359375 169.00900268554688 73.476806640625 167.17266845703125 89.3917236328125 163.49998474121094 121.22161865234376 155.54251098632813 142.03350830078125 151.25772094726563 162.23321533203125 147.5850372314453 178.148193359375 143.3002471923828 178.148193359375 143.3002471923828 " />
        <polyline stroke="black" stroke-width="3" stroke-linecap="round" fill="transparent" stroke-linejoin="round" points="116.93682861328124 129.833740234375 108.9793701171875 147.5850372314453 105.30670166015624 159.82730102539063 103.4703369140625 172.06956481933594 103.4703369140625 183.69973754882813 105.30670166015624 191.04507446289065 109.59149169921876 194.7177734375 118.773193359375 194.10565185546875 129.17910766601563 187.98452758789065 145.7061767578125 169.00900268554688 145.7061767578125 169.00900268554688 " />
        <polyline stroke="black" stroke-width="3" stroke-linecap="round" fill="transparent" stroke-linejoin="round" points="151.8272705078125 114.53091430664063 148.15460205078125 130.44586181640625 146.93038940429688 143.912353515625 146.93038940429688 159.21519470214844 148.15460205078125 172.6816864013672 148.15460205078125 185.53607177734375 148.15460205078125 185.53607177734375 " />
        </svg>