<?xml version="1.0" standalone="no"?>
    <svg width="256" height="256" xmlns="http://www.w3.org/2000/svg" version="1.1">
    <polyline stroke="black" stroke-width="3" stroke-linecap="round" fill="transparent" stroke-linejoin="round" points="120.25 68.75 134 83.75 137.75 80 137.75 80 " />
        <polyline stroke="black" stroke-width="3" stroke-linecap="round" fill="transparent" stroke-linejoin="round" points="181.5 38.75 174 58.75 170.25 70 165.25 81.25 147.75 107.5 132.75 128.75 117.75 146.25 110.25 152.5 101.5 160 92.75 165 82.75 166.25 77.75 166.25 67.75 168.75 67.75 168.75 " />
        <polyline stroke="black" stroke-width="3" stroke-linecap="round" fill="transparent" stroke-linejoin="round" points="82.75 110 102.75 117.5 115.25 122.5 142.75 135 152.75 140 166.5 145 175.25 148.75 179 148.75 180.25 150 181.5 150 180.25 150 176.5 151.25 176.5 151.25 " />
        <polyline stroke="black" stroke-width="3" stroke-linecap="round" fill="transparent" stroke-linejoin="round" points="21.5 225 49 211.25 70.25 202.5 90.25 195 136.5 176.25 174 161.25 187.75 157.5 212.75 151.25 225.25 147.5 227.75 146.25 230.25 146.25 231.5 146.25 232.75 146.25 232.75 146.25 " />
        <polyline stroke="black" stroke-width="3" stroke-linecap="round" fill="transparent" stroke-linejoin="round" points="94 176.25 97.75 201.25 99 208.75 99 213.75 99 220 99 222.5 99 223.75 99 225 99 226.25 110.25 225 122.75 220 136.5 215 147.75 210 159 202.5 167.75 196.25 167.75 196.25 " />
        <polyline stroke="black" stroke-width="3" stroke-linecap="round" fill="transparent" stroke-linejoin="round" points="190.25 145 185.25 170 181.5 182.5 177.75 197.5 170.25 222.5 164 240 156.5 247.5 156.5 247.5 " />
        </svg>