<?xml version="1.0" standalone="no"?>
    <svg width="256" height="256" xmlns="http://www.w3.org/2000/svg" version="1.1">
    <polyline stroke="black" stroke-width="3" stroke-linecap="round" fill="transparent" stroke-linejoin="round" points="101 55 109 68 117 74 121 77 121 77 " />
        <polyline stroke="black" stroke-width="3" stroke-linecap="round" fill="transparent" stroke-linejoin="round" points="163 36 156 47 155 52 144 66 130 85 111 111 91 134 72 150 65 154 65 154 " />
        <polyline stroke="black" stroke-width="3" stroke-linecap="round" fill="transparent" stroke-linejoin="round" points="70 90 89 95 98 95 116 98 136 105 153 113 164 120 166 123 166 123 " />
        <polyline stroke="black" stroke-width="3" stroke-linecap="round" fill="transparent" stroke-linejoin="round" points="38 172 54 166 65 165 92 158 126 153 159 151 183 150 203 150 210 150 210 150 " />
        <polyline stroke="black" stroke-width="3" stroke-linecap="round" fill="transparent" stroke-linejoin="round" points="108 129 106 145 106 154 105 174 100 190 98 200 97 204 99 206 115 206 132 206 149 206 161 203 167 197 167 197 " />
        <polyline stroke="black" stroke-width="3" stroke-linecap="round" fill="transparent" stroke-linejoin="round" points="158 131 158 143 158 157 158 181 158 193 158 193 " />
        </svg>