<?xml version="1.0" standalone="no"?>
    <svg width="256" height="256" xmlns="http://www.w3.org/2000/svg" version="1.1">
    <polyline stroke="black" stroke-width="3" stroke-linecap="round" fill="transparent" stroke-linejoin="round" points="57 118.5 55.5 144.5 55.5 146.5 56.5 152.5 57.5 154.5 60.5 154.5 70.5 151 80 145.5 84 142.5 86.5 140.5 85.5 137 85.5 137 " />
        <polyline stroke="black" stroke-width="3" stroke-linecap="round" fill="transparent" stroke-linejoin="round" points="92.5 85 89.5 128 89 133 89.5 143.5 90.5 148 92 150.5 92 150.5 " />
        <polyline stroke="black" stroke-width="3" stroke-linecap="round" fill="transparent" stroke-linejoin="round" points="59 112 98 98.5 100.5 98 105 97.5 107.5 98.5 108 99 108 99 " />
        <polyline stroke="black" stroke-width="3" stroke-linecap="round" fill="transparent" stroke-linejoin="round" points="130.5 74.5 119.5 92.5 118.5 94 118 95 118 95 " />
        <polyline stroke="black" stroke-width="3" stroke-linecap="round" fill="transparent" stroke-linejoin="round" points="158 70.5 174 70.5 176 71 180 72 181.5 73 182.5 74.5 182.5 77 182.5 82 182.5 88 181 100.5 178.5 119.5 175.5 136 172.5 153 168.5 169 165 179.5 162.5 186 159 191.5 157 194 155 195 152 195 148 194.5 141.5 193.5 139 192 136.5 187 136.5 166.5 138 156.5 138 156.5 " />
        <polyline stroke="black" stroke-width="3" stroke-linecap="round" fill="transparent" stroke-linejoin="round" points="136.5 111 113 149.5 108.5 155 95.5 169 95.5 169 " />
        <polyline stroke="black" stroke-width="3" stroke-linecap="round" fill="transparent" stroke-linejoin="round" points="142 126 159.5 139.5 162 141.5 167.5 146.5 167.5 146.5 " />
        </svg>