<?xml version="1.0" standalone="no"?>
    <svg width="256" height="256" xmlns="http://www.w3.org/2000/svg" version="1.1">
    <polyline stroke="black" stroke-width="3" stroke-linecap="round" fill="transparent" stroke-linejoin="round" points="55.3980712890625 102.46359252929688 56.062408447265625 127.05885314941406 56.726776123046875 139.3564910888672 57.72332763671875 149.3275909423828 58.05548095703125 157.9690399169922 58.71978759765625 165.2811279296875 59.052001953125 172.2610321044922 59.38421630859375 177.57876586914063 59.716339111328125 180.9024658203125 59.716339111328125 183.22897338867188 60.380706787109375 184.55865478515625 60.712860107421875 185.22332763671875 61.3775634765625 185.22332763671875 62.706268310546875 184.55865478515625 62.706268310546875 184.55865478515625 " />
        <polyline stroke="black" stroke-width="3" stroke-linecap="round" fill="transparent" stroke-linejoin="round" points="95.92544555664063 90.8306121826172 94.92892456054688 115.75837707519533 95.26107788085938 128.05601501464844 95.59323120117188 140.6858367919922 95.92544555664063 151.98629760742188 96.92196655273438 160.96022033691406 97.25411987304688 168.9373321533203 97.5863037109375 175.58473205566406 96.92196655273438 180.23779296875 96.58978271484376 183.22897338867188 96.58978271484376 185.22332763671875 96.25759887695313 186.22055053710935 96.25759887695313 186.55267333984375 95.92544555664063 186.88519287109375 95.92544555664063 186.22055053710935 95.92544555664063 185.55551147460935 96.25759887695313 183.56149291992188 96.25759887695313 183.56149291992188 " />
        <polyline stroke="black" stroke-width="3" stroke-linecap="round" fill="transparent" stroke-linejoin="round" points="58.71978759765625 144.00953674316406 65.69583129882813 142.34768676757813 73.66836547851563 140.0211639404297 82.63775634765625 137.3621368408203 92.27117919921876 134.70343017578125 101.9049072265625 132.04440307617188 111.2061767578125 129.3853759765625 120.50775146484376 127.05885314941406 128.81243896484375 125.39698791503906 136.45278930664063 123.73513793945313 142.76443481445313 122.40579223632813 148.07962036132813 121.40861511230467 151.0694580078125 120.74395751953124 152.73040771484375 120.41143798828124 152.73040771484375 120.41143798828124 152.06597900390625 120.41143798828124 147.74740600585938 120.74395751953124 147.74740600585938 120.74395751953124 " />
        <polyline stroke="black" stroke-width="3" stroke-linecap="round" fill="transparent" stroke-linejoin="round" points="77.3226318359375 195.52664184570313 93.26803588867188 194.197265625 97.91848754882813 193.86477661132813 101.9049072265625 193.5325927734375 105.22665405273438 192.8675842285156 105.22665405273438 192.8675842285156 " />
        <polyline stroke="black" stroke-width="3" stroke-linecap="round" fill="transparent" stroke-linejoin="round" points="144.093505859375 106.4519500732422 142.43231201171875 118.41709899902344 140.7713623046875 131.04722595214844 138.77835083007813 142.68019104003906 136.78530883789063 152.9834747314453 135.12411499023438 163.28709411621094 134.1275634765625 172.9257049560547 133.13104248046875 180.23779296875 133.13104248046875 180.23779296875 " />
        <polyline stroke="black" stroke-width="3" stroke-linecap="round" fill="transparent" stroke-linejoin="round" points="152.73040771484375 134.70343017578125 163.69281005859375 134.70343017578125 170.00445556640625 135.3681182861328 175.98394775390625 136.3652801513672 181.63128662109375 138.02713012695313 186.6138916015625 140.0211639404297 190.9324951171875 142.01551818847656 194.254638671875 144.67422485351563 196.2476806640625 147.9979248046875 197.5762939453125 151.6541290283203 197.90850830078125 156.30718994140625 197.244140625 162.2899169921875 195.2510986328125 170.2666778564453 192.26123046875 180.23779296875 188.27508544921875 191.2060546875 183.62432861328125 201.50933837890625 178.30914306640625 211.48046875 171.66534423828125 221.1190490722656 164.6893310546875 229.09585571289065 157.0489501953125 236.74044799804688 148.07962036132813 243.3878173828125 139.44271850585938 249.03805541992188 130.80581665039063 253.69110107421875 122.83294677734376 256.6826171875 116.18911743164063 257.01483154296875 110.54180908203124 255.02081298828125 110.54180908203124 255.02081298828125 " />
        <polyline stroke="black" stroke-width="3" stroke-linecap="round" fill="transparent" stroke-linejoin="round" points="161.03509521484375 189.54421997070313 157.38116455078125 196.1913146972656 152.06597900390625 204.50054931640625 146.41867065429688 213.142333984375 141.10357666015625 221.1190490722656 136.12063598632813 227.7664794921875 131.13803100585938 233.41671752929688 125.82284545898438 238.73443603515625 120.50775146484376 242.72314453125 115.85696411132813 245.3818359375 112.2030029296875 247.043701171875 108.88092041015624 247.376220703125 106.55569458007813 246.7115173339844 104.23013305664063 245.04965209960935 104.23013305664063 245.04965209960935 " />
        <polyline stroke="black" stroke-width="3" stroke-linecap="round" fill="transparent" stroke-linejoin="round" points="169.67230224609375 204.1683654785156 194.58673095703125 216.133544921875 205.54888916015625 223.44561767578125 215.84698486328125 230.425537109375 225.8128662109375 237.40512084960935 225.8128662109375 237.40512084960935 " />
        </svg>