<?xml version="1.0" standalone="no"?>
    <svg width="256" height="256" xmlns="http://www.w3.org/2000/svg" version="1.1">
    <polyline stroke="black" stroke-width="3" stroke-linecap="round" fill="transparent" stroke-linejoin="round" points="45.389801025390625 137.5478973388672 52.320068359375 135.56781005859375 84.001220703125 125.66746520996094 89.61141967773438 123.02734375 104.7919921875 112.46696472167967 108.75213623046876 107.84678649902344 108.75213623046876 107.84678649902344 " />
        <polyline stroke="black" stroke-width="3" stroke-linecap="round" fill="transparent" stroke-linejoin="round" points="53.9700927734375 99.26646423339844 51.329986572265625 106.8567352294922 41.429595947265625 161.30877685546875 41.099609375 171.5391845703125 41.099609375 190.34988403320313 44.0697021484375 198.27017211914065 52.98004150390625 199.26022338867188 64.86053466796875 189.6898498535156 75.4208984375 178.79945373535156 82.68115234375 169.2290802001953 86.97134399414063 158.66868591308594 88.951416015625 147.4482879638672 88.951416015625 147.4482879638672 " />
        <polyline stroke="black" stroke-width="3" stroke-linecap="round" fill="transparent" stroke-linejoin="round" points="74.10086059570313 96.2963409423828 79.71109008789063 136.88787841796875 81.0311279296875 142.4980926513672 84.33123779296875 158.0086669921875 85.98129272460938 166.25900268554688 86.31130981445313 170.2191162109375 86.31130981445313 170.2191162109375 86.31130981445313 170.2191162109375 " />
        <polyline stroke="black" stroke-width="3" stroke-linecap="round" fill="transparent" stroke-linejoin="round" points="134.49310302734375 89.3660888671875 121.29263305664063 125.33743286132813 118.98251342773438 130.6176300048828 111.72225952148438 142.82809448242188 107.43209838867188 149.7583770751953 106.44207763671876 151.0784149169922 109.41217041015624 141.1780242919922 117.99252319335938 125.33743286132813 129.8729248046875 109.49684143066406 145.71353149414063 94.64630126953124 162.54412841796875 82.1058349609375 178.05474853515625 73.52549743652344 191.58526611328125 71.21540832519531 202.14569091796875 75.17556762695313 211.71600341796875 89.03607177734375 217.98626708984375 110.48687744140624 219.96630859375 140.51800537109375 216.336181640625 176.48934936523438 206.43585205078125 207.51052856445313 194.55535888671875 226.98126220703125 181.02490234375 238.20166015625 169.1444091796875 243.48187255859375 159.57403564453125 241.1717834472656 152.97381591796875 229.95138549804688 152.97381591796875 229.95138549804688 " />
        <polyline stroke="black" stroke-width="3" stroke-linecap="round" fill="transparent" stroke-linejoin="round" points="159.24407958984375 147.77828979492188 134.1630859375 189.02984619140625 130.532958984375 192.3299560546875 122.94265747070313 196.29010009765625 120.30258178710938 196.95013427734375 120.30258178710938 196.95013427734375 " />
        <polyline stroke="black" stroke-width="3" stroke-linecap="round" fill="transparent" stroke-linejoin="round" points="121.29263305664063 162.62884521484375 126.90283203125 164.60891723632813 155.94390869140625 180.44949340820313 162.54412841796875 183.7496337890625 181.3548583984375 193.98001098632813 198.84552001953125 204.5404052734375 198.84552001953125 204.5404052734375 198.84552001953125 204.5404052734375 " />
        </svg>