<?xml version="1.0" standalone="no"?>
    <svg width="256" height="256" xmlns="http://www.w3.org/2000/svg" version="1.1">
    <polyline stroke="black" stroke-width="3" stroke-linecap="round" fill="transparent" stroke-linejoin="round" points="27 95 27 95 28 95 30 95 32 94 33 94 38 93 43 92 46 91 52 90 55 90 59 89 69 88 73 87 80 87 83 86 86 86 94 84 96 84 97 83 100 81 101 79 102 78 " />
        <polyline stroke="black" stroke-width="3" stroke-linecap="round" fill="transparent" stroke-linejoin="round" points="44 54 42 59 41 62 40 65 38 73 37 77 37 82 36 91 36 96 36 101 36 106 37 115 37 119 37 124 38 131 38 135 38 138 38 144 39 147 39 149 39 151 39 154 39 155 39 156 40 157 40 158 40 158 40 158 40 158 41 157 42 157 44 154 47 150 51 144 53 141 55 138 57 134 " />
        <polyline stroke="black" stroke-width="3" stroke-linecap="round" fill="transparent" stroke-linejoin="round" points="70 82 70 86 69 91 70 96 70 106 70 111 70 115 71 125 71 129 72 133 72 137 73 143 73 146 73 148 73 152 73 154 74 155 74 157 75 157 76 157 " />
        <polyline stroke="black" stroke-width="3" stroke-linecap="round" fill="transparent" stroke-linejoin="round" points="107 71 104 84 103 88 102 93 100 102 99 107 99 111 97 119 97 123 96 126 96 129 95 134 95 136 95 137 95 139 95 139 95 139 96 139 " />
        <polyline stroke="black" stroke-width="3" stroke-linecap="round" fill="transparent" stroke-linejoin="round" points="118 82 121 79 123 78 125 76 127 75 132 72 137 70 142 68 145 66 148 65 157 63 159 62 162 62 168 61 170 61 173 61 177 62 179 62 181 63 185 65 186 66 188 67 192 74 194 81 196 90 197 95 198 101 199 114 199 127 199 134 199 140 199 153 198 159 197 170 196 175 195 179 194 183 193 186 191 192 189 194 187 196 183 198 181 199 178 200 173 200 171 199 168 198 163 195 161 193 159 191 157 188 155 184 " />
        <polyline stroke="black" stroke-width="3" stroke-linecap="round" fill="transparent" stroke-linejoin="round" points="139 89 138 90 137 94 136 96 135 100 132 108 131 112 130 117 127 126 125 131 124 136 122 141 118 150 117 154 115 158 112 165 110 168 109 171 106 176 103 180 103 181 102 182 101 182 101 183 " />
        <polyline stroke="black" stroke-width="3" stroke-linecap="round" fill="transparent" stroke-linejoin="round" points="106 118 108 120 110 121 116 125 119 127 122 129 125 132 132 137 136 140 139 143 146 149 153 154 159 159 162 162 164 164 170 168 175 171 177 173 " />
        </svg>