<?xml version="1.0" standalone="no"?>
    <svg width="256" height="256" xmlns="http://www.w3.org/2000/svg" version="1.1">
    <polyline stroke="black" stroke-width="3" stroke-linecap="round" fill="transparent" stroke-linejoin="round" points="29 109 30 110 31 110 32 110 33 110 35 110 36 109 38 109 40 109 43 109 45 108 48 108 51 107 54 107 57 106 61 106 64 105 68 104 71 104 75 103 78 102 82 101 85 100 88 98 91 97 94 95 97 93 99 91 " />
        <polyline stroke="black" stroke-width="3" stroke-linecap="round" fill="transparent" stroke-linejoin="round" points="59 87 58 91 58 95 57 99 57 103 56 107 56 111 56 115 56 119 56 123 56 126 56 129 56 132 56 135 57 137 57 139 57 141 57 142 57 143 57 144 57 145 57 146 57 146 58 146 58 147 58 147 58 147 58 147 58 147 58 147 59 147 59 147 60 146 63 145 64 144 66 143 67 142 69 140 71 139 73 137 75 135 77 133 78 131 80 129 82 126 " />
        <polyline stroke="black" stroke-width="3" stroke-linecap="round" fill="transparent" stroke-linejoin="round" points="75 72 75 72 75 72 75 72 75 73 75 73 75 74 76 75 76 76 76 78 76 81 77 84 77 87 77 90 78 94 78 98 79 101 80 105 80 109 81 113 82 117 82 120 83 123 83 126 84 129 84 132 84 134 85 136 85 138 85 139 86 140 86 141 87 142 87 143 88 143 " />
        <polyline stroke="black" stroke-width="3" stroke-linecap="round" fill="transparent" stroke-linejoin="round" points="121 49 120 50 120 52 119 54 119 58 118 62 117 66 116 70 116 74 115 79 114 83 113 87 112 91 112 95 111 99 110 102 109 106 108 109 108 112 107 115 106 118 106 120 105 122 105 124 105 125 104 126 104 127 104 127 104 128 " />
        <polyline stroke="black" stroke-width="3" stroke-linecap="round" fill="transparent" stroke-linejoin="round" points="118 91 120 89 121 88 123 86 125 85 126 83 128 82 132 79 135 78 137 77 139 76 142 75 144 74 147 73 149 72 152 72 155 71 157 71 160 70 162 70 164 69 167 69 169 69 171 69 172 69 174 69 176 70 177 71 179 73 180 76 181 79 182 84 183 90 184 97 185 104 185 112 185 120 185 129 185 137 185 144 185 151 184 158 184 164 183 169 183 174 182 179 181 182 180 186 180 189 178 192 177 194 176 196 175 197 174 198 172 199 171 199 169 199 167 198 165 197 163 195 161 193 159 190 157 187 " />
        <polyline stroke="black" stroke-width="3" stroke-linecap="round" fill="transparent" stroke-linejoin="round" points="141 78 141 77 141 77 140 76 140 77 139 77 139 79 138 81 137 84 135 87 134 91 133 95 131 99 130 103 128 108 127 112 125 116 123 121 121 125 119 129 117 133 115 137 113 140 111 143 110 146 108 148 107 150 106 152 105 154 104 155 " />
        <polyline stroke="black" stroke-width="3" stroke-linecap="round" fill="transparent" stroke-linejoin="round" points="108 114 108 113 109 113 109 113 110 113 111 113 112 113 113 114 115 115 117 116 119 117 122 119 125 121 128 123 131 125 134 128 138 131 141 134 145 137 149 140 152 143 156 146 159 149 163 152 166 155 169 158 172 160 176 163 179 166 " />
        </svg>