<?xml version="1.0" standalone="no"?>
    <svg width="256" height="256" xmlns="http://www.w3.org/2000/svg" version="1.1">
    <polyline stroke="black" stroke-width="3" stroke-linecap="round" fill="transparent" stroke-linejoin="round" points="149.34426879882813 43.918273925781264 133.53033447265625 68.92437744140625 117.71640014648438 93.93048095703124 110.13287353515624 103.12734985351563 105.03097534179688 107.30123901367188 104.52081298828124 107.71861267089844 " />
        <polyline stroke="black" stroke-width="3" stroke-linecap="round" fill="transparent" stroke-linejoin="round" points="119.86920166015628 69.04954528808594 127.39959716796876 72.05221557617188 134.92999267578125 75.05488586425781 143.8255615234375 78.58428955078125 151.759765625 81.61492919921875 162.616943359375 87.377685546875 165.187255859375 92.7190399169922 164.4853515625 93.28948974609376 " />
        <polyline stroke="black" stroke-width="3" stroke-linecap="round" fill="transparent" stroke-linejoin="round" points="140.78912353515625 132.67681884765625 127.64501953125 155.11932373046875 114.50091552734376 177.56182861328125 107.15609741210938 186.96234130859375 100.88681030273438 193.011474609375 96.053466796875 197.77618408203125 95.93222045898438 197.3983154296875 " />
        <polyline stroke="black" stroke-width="3" stroke-linecap="round" fill="transparent" stroke-linejoin="round" points="120.26055908203125 147.1903076171875 128.9915771484375 158.6479949951172 137.72259521484375 170.10568237304688 152.3359375 188.51385498046875 155.049560546875 194.90628051757813 155.61328125 197.35748291015625 155.60662841796875 197.4814453125 " />
        <polyline stroke="black" stroke-width="3" stroke-linecap="round" fill="transparent" stroke-linejoin="round" points="72.43328857421875 90.32943725585938 74.7301025390625 104.37399291992188 77.02691650390625 118.41854858398438 80.7371826171875 157.17662048339844 79.4365234375 196.92141723632813 77.53851318359375 209.49688720703125 75.13217163085938 216.46099853515625 75.18011474609375 217.9579162597656 77.39837646484375 218.41259765625 79.01998901367188 218.67269897460935 88.71319580078125 219.07156372070313 100.1168212890625 218.2142333984375 126.240478515625 214.79519653320313 147.80038452148438 213.34381103515625 156.92352294921875 213.39260864257813 166.8109130859375 214.9664306640625 169.3958740234375 215.73077392578125 169.603759765625 215.79226684570313 169.6436767578125 215.80404663085935 " />
        <polyline stroke="black" stroke-width="3" stroke-linecap="round" fill="transparent" stroke-linejoin="round" points="189.3350830078125 76.10725402832031 186.8995361328125 122.87973022460938 184.4639892578125 169.65220642089844 181.5068359375 196.67355346679688 177.956298828125 217.15570068359375 177.3355712890625 218.33181762695313 " />
        </svg>