<?xml version="1.0" standalone="no"?>
    <svg width="256" height="256" xmlns="http://www.w3.org/2000/svg" version="1.1">
    <polyline stroke="black" stroke-width="3" stroke-linecap="round" fill="transparent" stroke-linejoin="round" points="135.25411987304688 41.400054931640625 126.14486694335938 50.48487854003906 117.03561401367188 59.5697021484375 95.52325439453124 80.88691711425781 78.63412475585938 99.31047058105467 72.22430419921875 104.8259735107422 71.58331298828125 105.37750244140624 " />
        <polyline stroke="black" stroke-width="3" stroke-linecap="round" fill="transparent" stroke-linejoin="round" points="102.01727294921875 54.382232666015625 111.06222534179688 61.59284973144531 120.107177734375 68.803466796875 139.18356323242188 83.76324462890625 146.48837280273438 89.22737121582031 155.87225341796875 96.91574096679688 157.911376953125 99.23019409179688 158.09735107421875 99.44132995605467 " />
        <polyline stroke="black" stroke-width="3" stroke-linecap="round" fill="transparent" stroke-linejoin="round" points="135.94403076171875 124.45428466796875 129.50982666015625 131.12374877929688 123.07562255859376 137.793212890625 116.67987060546876 143.40623474121094 104.32699584960938 155.40127563476563 98.99749755859376 161.64230346679688 90.67108154296876 172.79563903808594 90.30917358398438 173.2808837890625 " />
        <polyline stroke="black" stroke-width="3" stroke-linecap="round" fill="transparent" stroke-linejoin="round" points="102.19436645507815 115.2972412109375 118.27362060546876 126.07711791992188 134.35287475585938 136.85699462890625 142.72283935546875 142.51904296875 152.75872802734375 149.98541259765625 154.93511962890625 151.94998168945313 155.3323974609375 152.47061157226563 155.36334228515625 152.51123046875 " />
        <polyline stroke="black" stroke-width="3" stroke-linecap="round" fill="transparent" stroke-linejoin="round" points="52.1871337890625 68.23150634765624 57.8680419921875 94.96337890625 63.5489501953125 121.69525146484376 65.91766357421875 138.8929901123047 67.161865234375 170.10928344726563 65.96490478515625 184.21038818359375 63.22454833984375 199.39910888671875 61.2161865234375 203.60333251953125 60.835205078125 202.54080200195313 60.79840087890625 202.4381103515625 60.79571533203125 202.4306640625 61.63128662109375 202.51910400390625 63.88006591796875 202.76467895507813 78.40951538085938 204.05914306640625 87.64654541015625 204.7862548828125 104.12765502929688 205.0160217285156 122.45245361328124 205.54010009765625 130.39254760742188 205.80496215820313 145.38571166992188 206.88137817382813 152.760986328125 207.90228271484375 162.69476318359375 208.73455810546875 165.6446533203125 208.9830017089844 168.81640625 208.56216430664065 169.613525390625 206.83502197265625 170.285400390625 205.27731323242188 170.5316162109375 204.70635986328125 " />
        <polyline stroke="black" stroke-width="3" stroke-linecap="round" fill="transparent" stroke-linejoin="round" points="180.03436279296875 55.655609130859375 180.01226806640625 72.376708984375 179.99017333984375 89.09780883789063 180.3970947265625 122.88986206054688 180.531982421875 140.84539794921875 181.60003662109375 172.06729125976563 181.67822265625 185.55239868164065 180.9742431640625 203.80340576171875 180.91265869140625 204.54916381835935 " />
        </svg>