<?xml version="1.0" standalone="no"?>
    <svg width="256" height="256" xmlns="http://www.w3.org/2000/svg" version="1.1">
    <polyline stroke="black" stroke-width="3" stroke-linecap="round" fill="transparent" stroke-linejoin="round" points="136.73486328125 40.97882080078125 134.42919921875 55.27409362792969 130.74008178710938 64.49685668945313 124.74530029296876 76.4864501953125 107.68319702148438 102.31016540527344 87.854248046875 126.75048828125 74.9423828125 139.2012176513672 74.9423828125 139.2012176513672 " />
        <polyline stroke="black" stroke-width="3" stroke-linecap="round" fill="transparent" stroke-linejoin="round" points="89.69882202148438 76.4864501953125 105.838623046875 84.32579040527344 118.28939819335938 90.78172302246094 124.74530029296876 94.4708251953125 137.65716552734375 101.38790893554688 147.80218505859375 105.999267578125 153.7969970703125 107.3826904296875 153.7969970703125 107.3826904296875 " />
        <polyline stroke="black" stroke-width="3" stroke-linecap="round" fill="transparent" stroke-linejoin="round" points="140.88510131835938 129.51731872558594 123.822998046875 148.4239959716797 115.52255249023438 159.0301513671875 107.2220458984375 169.63632202148438 91.08221435546876 188.08184814453125 88.31536865234375 189.9263916015625 86.4708251953125 190.84869384765625 86.4708251953125 190.84869384765625 " />
        <polyline stroke="black" stroke-width="3" stroke-linecap="round" fill="transparent" stroke-linejoin="round" points="80.014892578125 151.65194702148438 101.22723388671876 159.95242309570313 132.58465576171875 169.63632202148438 150.56903076171875 174.24771118164063 157.486083984375 176.09225463867188 157.486083984375 176.09225463867188 " />
        <polyline stroke="black" stroke-width="3" stroke-linecap="round" fill="transparent" stroke-linejoin="round" points="60.6470947265625 87.09262084960938 59.724822998046875 111.99406433105467 59.263671875 125.82821655273438 58.80255126953125 140.58462524414063 58.80255126953125 163.18038940429688 60.18597412109375 178.85906982421875 63.413909912109375 188.54296875 69.40869140625 194.53778076171875 83.7039794921875 200.07144165039065 104.91635131835938 201.91598510742188 126.58984375 199.61029052734375 147.80218505859375 192.23208618164065 167.631103515625 178.39794921875 167.631103515625 178.39794921875 " />
        <polyline stroke="black" stroke-width="3" stroke-linecap="round" fill="transparent" stroke-linejoin="round" points="198.0662841796875 81.09782409667969 195.76055908203125 102.31016540527344 195.76055908203125 118.9111328125 196.68280029296875 147.0405731201172 196.68280029296875 156.72447204589844 195.2994384765625 171.01974487304688 195.2994384765625 171.01974487304688 " />
        </svg>