<?xml version="1.0" standalone="no"?>
    <svg width="256" height="256" xmlns="http://www.w3.org/2000/svg" version="1.1">
    <polyline stroke="black" stroke-width="3" stroke-linecap="round" fill="transparent" stroke-linejoin="round" points="109.25170898437503 37.612091064453125 95.16156005859376 74.8839111328125 81.0714111328125 112.15573120117188 72.23046875 134.0901336669922 55.86053466796875 169.478271484375 49.34979248046875 181.0915985107422 37.96600341796875 199.28741455078125 39.9002685546875 194.277587890625 " />
        <polyline stroke="black" stroke-width="3" stroke-linecap="round" fill="transparent" stroke-linejoin="round" points="90.1055908203125 64.90444946289063 107.0714111328125 79.24981689453125 124.0372314453125 93.59518432617188 135.14974975585938 105.42001342773438 160.3126220703125 135.9520721435547 185.30908203125 165.9086151123047 193.634033203125 178.24630737304688 198.13763427734375 185.33950805664065 198.03143310546875 186.70989990234375 198.69854736328125 187.3690185546875 198.70245361328125 187.37286376953125 " />
        <polyline stroke="black" stroke-width="3" stroke-linecap="round" fill="transparent" stroke-linejoin="round" points="94.17324829101563 153.1072540283203 102.140625 152.68429565429688 110.10800170898438 152.26133728027344 117.90228271484376 151.7520751953125 133.89950561523438 151.09695434570313 146.144775390625 151.24368286132813 147.97943115234375 151.3569793701172 149.056640625 151.41978454589844 149.11956787109375 151.42343139648438 " />
        <polyline stroke="black" stroke-width="3" stroke-linecap="round" fill="transparent" stroke-linejoin="round" points="86.41925048828124 201.33831787109375 96.164306640625 199.54708862304688 105.90936279296876 197.755859375 127.531005859375 196.13848876953125 136.82406616210938 196.93621826171875 153.005126953125 199.45260620117188 164.967041015625 201.6513671875 167.5997314453125 201.62213134765625 170.5875244140625 201.1883544921875 170.7633056640625 201.16973876953125 " />
        </svg>