<?xml version="1.0" standalone="no"?>
    <svg width="256" height="256" xmlns="http://www.w3.org/2000/svg" version="1.1">
    <polyline stroke="black" stroke-width="3" stroke-linecap="round" fill="transparent" stroke-linejoin="round" points="128.92990112304688 46.0015869140625 121.823974609375 59.818634033203125 108.00701904296876 83.11018371582031 89.05792236328125 109.5599365234375 69.31930541992188 134.43057250976563 53.528411865234375 152.1953125 42.47479248046875 164.0384979248047 42.47479248046875 164.0384979248047 " />
        <polyline stroke="black" stroke-width="3" stroke-linecap="round" fill="transparent" stroke-linejoin="round" points="112.34945678710938 66.92453002929688 128.53512573242188 65.74020385742188 136.82537841796875 65.74020385742188 163.66986083984375 70.47747802734375 182.22412109375 77.1885986328125 195.25164794921875 83.50497436523438 216.964111328125 95.34814453125 220.911865234375 98.1115264892578 220.911865234375 98.1115264892578 " />
        <polyline stroke="black" stroke-width="3" stroke-linecap="round" fill="transparent" stroke-linejoin="round" points="111.5599365234375 145.87896728515625 126.561279296875 145.87896728515625 144.32601928710938 146.6685028076172 164.85418701171875 147.8528289794922 180.25030517578125 149.03713989257813 190.514404296875 150.22146606445313 190.514404296875 150.22146606445313 " />
        <polyline stroke="black" stroke-width="3" stroke-linecap="round" fill="transparent" stroke-linejoin="round" points="62.21337890625 210.22683715820313 72.08270263671875 209.04254150390625 87.87362670898438 207.06866455078125 97.34814453125 205.88433837890625 121.42919921875 203.12094116210935 147.48422241210938 200.3575439453125 170.3809814453125 199.9627685546875 188.54052734375 200.7523193359375 195.25164794921875 201.9366149902344 195.25164794921875 201.9366149902344 " />
        </svg>