<?xml version="1.0" standalone="no"?>
    <svg width="256" height="256" xmlns="http://www.w3.org/2000/svg" version="1.1">
    <polyline stroke="black" stroke-width="3" stroke-linecap="round" fill="transparent" stroke-linejoin="round" points="62.603179931640625 112.63566589355467 80.43460083007813 104.90870666503906 91.13348388671876 100.748046875 100.6435546875 97.1817626953125 107.776123046875 94.20985412597656 114.3143310546875 88.26603698730469 114.3143310546875 88.26603698730469 " />
        <polyline stroke="black" stroke-width="3" stroke-linecap="round" fill="transparent" stroke-linejoin="round" points="89.350341796875 59.735748291015625 86.37841796875 72.21774291992188 85.7840576171875 82.91661071777344 85.18963623046875 95.99299621582033 84.59527587890625 109.66375732421876 84.00088500976563 123.9289093017578 81.02899169921875 139.97718811035156 74.49078369140625 157.80862426757813 67.95260620117188 169.10186767578125 62.0087890625 175.6400604248047 56.064971923828125 180.9894866943359 53.09307861328125 182.77264404296875 51.904296875 182.77264404296875 53.68743896484375 181.58387756347656 59.036895751953125 179.2063446044922 67.95260620117188 175.04568481445313 84.00088500976563 165.53558349609375 97.0772705078125 156.61985778808594 108.96490478515624 147.10977172851563 108.96490478515624 147.10977172851563 " />
        <polyline stroke="black" stroke-width="3" stroke-linecap="round" fill="transparent" stroke-linejoin="round" points="128.5794677734375 86.48289489746094 141.06146240234375 82.32223510742188 150.57159423828125 79.9447021484375 160.0816650390625 78.16156005859375 168.40301513671875 77.56718444824219 175.53558349609375 77.56718444824219 180.2906494140625 78.75593566894531 184.4512939453125 82.32223510742188 184.4512939453125 82.32223510742188 " />
        <polyline stroke="black" stroke-width="3" stroke-linecap="round" fill="transparent" stroke-linejoin="round" points="123.82443237304688 116.2019500732422 139.2783203125 115.60757446289063 149.9771728515625 114.41880798339844 162.459228515625 112.63566589355467 171.96929931640625 111.4468994140625 179.10186767578125 111.4468994140625 185.64007568359375 112.04127502441406 185.64007568359375 112.04127502441406 " />
        <polyline stroke="black" stroke-width="3" stroke-linecap="round" fill="transparent" stroke-linejoin="round" points="107.1817626953125 176.82882690429688 122.041259765625 170.885009765625 136.30642700195313 166.1299591064453 153.54345703125 160.78053283691406 168.40301513671875 156.02548217773438 181.4793701171875 151.8648223876953 192.17822265625 146.515380859375 201.093994140625 136.41090393066406 201.093994140625 136.41090393066406 " />
        <polyline stroke="black" stroke-width="3" stroke-linecap="round" fill="transparent" stroke-linejoin="round" points="157.1097412109375 46.65936279296875 157.1097412109375 68.05708312988281 156.515380859375 86.48289489746094 155.9210205078125 107.880615234375 155.32666015625 126.30642700195313 154.73223876953125 144.73223876953125 152.9490966796875 162.5636749267578 153.54345703125 178.017578125 152.354736328125 191.6883544921875 149.3828125 205.9534912109375 149.3828125 205.9534912109375 " />
        </svg>