<?xml version="1.0" standalone="no"?>
    <svg width="256" height="256" xmlns="http://www.w3.org/2000/svg" version="1.1">
    <polyline stroke="black" stroke-width="3" stroke-linecap="round" fill="transparent" stroke-linejoin="round" points="76.99118041992188 72.0159912109375 89.05218505859375 67.39942932128906 120.487060546875 60.043975830078125 137.29486083984375 58.5650634765625 157.662353515625 62.146209716796875 160.67138671875 65.75067138671875 161.54132080078125 66.58108520507813 161.6131591796875 66.64962768554688 161.62579345703125 66.66171264648438 " />
        <polyline stroke="black" stroke-width="3" stroke-linecap="round" fill="transparent" stroke-linejoin="round" points="96.51312255859376 117.50889587402344 104.88543701171876 113.50881958007813 114.26876831054688 109.07803344726563 125.69256591796876 104.95867919921876 139.87518310546875 101.49992370605467 144.96966552734375 101.06809997558594 149.15194702148438 101.99343872070313 149.43621826171875 102.81744384765624 149.49609375 102.99111938476563 " />
        <polyline stroke="black" stroke-width="3" stroke-linecap="round" fill="transparent" stroke-linejoin="round" points="59.84478759765625 191.52252197265625 79.07101440429688 189.32028198242188 90.64718627929688 188.94781494140625 102.7449951171875 189.29132080078125 132.1287841796875 188.96966552734375 156.8717041015625 187.1748962402344 163.6787109375 186.17498779296875 183.917724609375 184.2110290527344 200.0673828125 183.7707977294922 202.66986083984375 184.19839477539065 201.800048828125 185.3427734375 222.152587890625 193.6063232421875 223.0030517578125 195.49783325195313 " />
        </svg>