<?xml version="1.0" standalone="no"?>
    <svg width="256" height="256" xmlns="http://www.w3.org/2000/svg" version="1.1">
    <polyline stroke="black" stroke-width="3" stroke-linecap="round" fill="transparent" stroke-linejoin="round" points="88.27899169921875 76.82017517089844 93.75204467773438 75.60443115234375 126.25326538085938 70.58189392089844 157.517333984375 66.39169311523438 165.3199462890625 65.65505981445313 169.532470703125 65.59263610839844 173.76873779296875 65.74900817871094 176.8861083984375 65.91839599609375 177.01708984375 65.91014099121094 " />
        <polyline stroke="black" stroke-width="3" stroke-linecap="round" fill="transparent" stroke-linejoin="round" points="106.2720947265625 122.56695556640624 116.06686401367188 121.32626342773438 131.66998291015625 118.08407592773438 152.826416015625 115.19375610351563 166.0029296875 112.244384765625 168.58123779296875 111.25033569335938 171.92706298828125 109.84112548828124 172.0850830078125 109.708984375 172.804443359375 110.30734252929688 172.92034912109375 110.4036865234375 " />
        <polyline stroke="black" stroke-width="3" stroke-linecap="round" fill="transparent" stroke-linejoin="round" points="74.52447509765625 203.2469482421875 91.05892944335938 198.723876953125 111.67684936523438 196.27716064453125 137.27459716796875 194.568115234375 168.06292724609375 194.977294921875 176.374267578125 195.30303955078125 185.2415771484375 195.77923583984375 190.909912109375 195.6204833984375 197.4156494140625 195.58743286132813 199.0091552734375 195.87698364257813 199.31982421875 196.54693603515625 199.35491943359375 196.6957092285156 " />
        </svg>