<?xml version="1.0" standalone="no"?>
    <svg width="256" height="256" xmlns="http://www.w3.org/2000/svg" version="1.1">
    <polyline stroke="black" stroke-width="3" stroke-linecap="round" fill="transparent" stroke-linejoin="round" points="91.77780151367188 74.19171142578125 103.55230712890624 73.03036499023438 127.557861328125 71.00271606445313 137.21612548828125 70.14846801757813 153.15771484375 68.92739868164063 160.4361572265625 68.03958129882813 165.9488525390625 67.32493591308594 167.011962890625 66.909423828125 167.03045654296875 66.90219116210938 167.0380859375 66.89920043945313 " />
        <polyline stroke="black" stroke-width="3" stroke-linecap="round" fill="transparent" stroke-linejoin="round" points="91.92108154296876 124.97628784179688 100.4417724609375 124.453369140625 120.71859741210938 123.28536987304688 128.94683837890625 123.45890808105467 142.79498291015625 123.31553649902344 147.892822265625 122.8272705078125 153.99267578125 121.19261169433594 154.5137939453125 120.77067565917967 154.618408203125 120.68595886230467 154.62890625 120.67747497558594 " />
        <polyline stroke="black" stroke-width="3" stroke-linecap="round" fill="transparent" stroke-linejoin="round" points="73.63143920898438 188.64532470703125 83.38916015625 187.4823303222656 105.297607421875 185.5511474609375 115.929931640625 185.185302734375 139.7630615234375 185.0328063964844 162.0140380859375 185.49139404296875 171.971923828125 185.60589599609375 187.3370361328125 185.7220458984375 191.251220703125 185.7353515625 208.998779296875 185.73382568359375 218.85076904296875 185.2333984375 219.1558837890625 185.1834716796875 219.18212890625 185.17916870117188 219.18524169921875 185.17868041992188 " />
        </svg>