<?xml version="1.0" standalone="no"?>
    <svg width="256" height="256" xmlns="http://www.w3.org/2000/svg" version="1.1">
    <polyline stroke="black" stroke-width="3" stroke-linecap="round" fill="transparent" stroke-linejoin="round" points="68.205322265625 92.39401245117188 91.33615112304688 82.89385986328125 100.42327880859376 80.00250244140625 119.83660888671876 74.21978759765625 139.24996948242188 69.26318359375 156.18505859375 66.37184143066406 169.40264892578125 64.30657958984375 176.83758544921875 63.48048400878906 179.31585693359375 62.2413330078125 179.31585693359375 62.2413330078125 " />
        <polyline stroke="black" stroke-width="3" stroke-linecap="round" fill="transparent" stroke-linejoin="round" points="133.05419921875 37.871368408203125 119.83660888671876 62.2413330078125 102.90155029296876 102.30722045898438 95.46664428710938 119.24229431152344 84.31430053710938 140.30783081054688 75.64022827148438 155.5906982421875 71.0966796875 162.1995086669922 69.85751342773438 163.85171508789063 69.85751342773438 163.85171508789063 " />
        <polyline stroke="black" stroke-width="3" stroke-linecap="round" fill="transparent" stroke-linejoin="round" points="113.227783203125 105.19857788085938 131.40203857421875 102.7202606201172 148.7501220703125 101.8941650390625 157.4241943359375 101.8941650390625 181.381103515625 103.13333129882813 193.77264404296875 103.95941162109376 199.5552978515625 104.78550720214844 200.3814697265625 104.78550720214844 200.3814697265625 104.78550720214844 " />
        <polyline stroke="black" stroke-width="3" stroke-linecap="round" fill="transparent" stroke-linejoin="round" points="90.51007080078124 159.3081512451172 108.68426513671876 152.2863006591797 117.35833740234376 148.56883239746094 126.85848999023438 144.02529907226563 144.61962890625 135.7642822265625 151.22845458984375 132.4598846435547 161.9677734375 127.91635131835938 168.9896240234375 125.4380340576172 172.29400634765625 124.61192321777344 172.29400634765625 124.61192321777344 " />
        <polyline stroke="black" stroke-width="3" stroke-linecap="round" fill="transparent" stroke-linejoin="round" points="127.6845703125 147.74273681640625 118.18441772460938 164.67779541015625 111.9886474609375 178.30845642089844 105.79290771484376 190.69998168945313 92.1622314453125 217.5482482910156 87.20565795898438 225.39617919921875 85.140380859375 227.46142578125 84.72735595703125 227.04840087890625 85.553466796875 224.983154296875 85.553466796875 224.983154296875 " />
        <polyline stroke="black" stroke-width="3" stroke-linecap="round" fill="transparent" stroke-linejoin="round" points="148.33709716796875 137.00344848632813 148.7501220703125 150.63409423828125 149.16317749023438 161.78643798828125 152.46759033203125 190.28692626953125 154.5328369140625 195.2435302734375 163.6199951171875 203.9175720214844 169.40264892578125 205.15673828125 182.6202392578125 201.0262451171875 199.9683837890625 183.6781005859375 206.990234375 169.6343994140625 208.6424560546875 158.89511108398438 205.3380126953125 152.6993408203125 205.3380126953125 152.6993408203125 " />
        </svg>