<?xml version="1.0" standalone="no"?>
    <svg width="256" height="256" xmlns="http://www.w3.org/2000/svg" version="1.1">
    <polyline stroke="black" stroke-width="3" stroke-linecap="round" fill="transparent" stroke-linejoin="round" points="39.4036865234375 98.1846923828125 40.300750732421875 123.2279052734375 39.506591796875 134.11289978027344 35.89642333984375 149.01898193359375 33.4471435546875 156.10098266601563 31.8797607421875 161.12704467773438 31.72308349609375 161.629638671875 " />
        <polyline stroke="black" stroke-width="3" stroke-linecap="round" fill="transparent" stroke-linejoin="round" points="54.052215576171875 55.15812683105469 64.20538330078125 51.04378509521485 69.3555908203125 49.082908630371094 78.56320190429688 45.54559326171875 82.1895751953125 44.21266174316406 85.17156982421875 42.958740234375 85.52487182617188 42.67097473144531 85.6239013671875 42.59027099609375 85.635009765625 42.58122253417969 85.7735595703125 43.17927551269531 87.824951171875 54.99199676513672 88.76690673828125 65.03936767578125 89.84661865234375 88.22445678710938 90.29196166992188 112.62272644042967 90.51214599609376 124.99752807617188 91.28533935546876 136.05657958984375 94.892333984375 156.6236572265625 97.190185546875 164.22076416015625 102.2894287109375 174.95559692382813 105.1689453125 178.60801696777344 110.41534423828124 182.403564453125 114.05560302734376 184.51519775390625 115.43994140625 185.1273193359375 132.8997802734375 190.91851806640625 137.2864990234375 191.79339599609375 156.09783935546875 192.69723510742188 165.34716796875 190.52413940429688 169.10174560546875 188.67742919921875 175.4888916015625 184.05169677734375 179.064453125 181.2560882568359 185.726806640625 175.87149047851563 188.60565185546875 173.7291717529297 192.9434814453125 170.2508544921875 193.92034912109375 168.42684936523438 196.21746826171875 162.15286254882813 197.01531982421875 158.5376434326172 195.8232421875 148.448486328125 195.71063232421875 147.809326171875 " />
        <polyline stroke="black" stroke-width="3" stroke-linecap="round" fill="transparent" stroke-linejoin="round" points="63.818695068359375 99.15048217773438 71.88937377929688 103.66085815429688 76.93426513671875 107.62158203125 77.42138671875 109.92330932617188 77.45220947265625 110.06877136230467 " />
        <polyline stroke="black" stroke-width="3" stroke-linecap="round" fill="transparent" stroke-linejoin="round" points="62.30950927734375 123.95237731933594 66.50350952148438 125.63027954101563 70.41281127929688 127.07064819335938 72.26300048828125 128.0265350341797 72.669921875 128.2052001953125 " />
        <polyline stroke="black" stroke-width="3" stroke-linecap="round" fill="transparent" stroke-linejoin="round" points="124.61138916015624 71.1209716796875 132.38543701171875 70.0267333984375 143.5714111328125 68.49484252929688 166.16064453125 68.02033996582031 168.67694091796875 68.29667663574219 169.847900390625 68.5355224609375 170.47747802734375 68.70657348632813 171.1171875 68.73170471191406 171.270751953125 68.73745727539063 " />
        <polyline stroke="black" stroke-width="3" stroke-linecap="round" fill="transparent" stroke-linejoin="round" points="107.55413818359376 106.7971649169922 119.200439453125 105.14617919921876 128.47900390625 104.2838134765625 135.943603515625 103.9501953125 158.47064208984375 104.36813354492188 167.0933837890625 104.8172607421875 169.8485107421875 105.49925231933594 172.48724365234375 107.42355346679688 172.9874267578125 108.15399169921876 172.99444580078125 108.16436767578124 " />
        <polyline stroke="black" stroke-width="3" stroke-linecap="round" fill="transparent" stroke-linejoin="round" points="138.5286865234375 36.95796203613281 139.15106201171875 48.834716796875 139.59130859375 60.77410888671875 139.97299194335938 75.05514526367188 140.81982421875 102.555908203125 142.1458740234375 136.9635009765625 141.88812255859375 156.4409637451172 152.8369140625 177.65518188476563 158.63232421875 183.73849487304688 " />
        </svg>