<?xml version="1.0" standalone="no"?>
    <svg width="256" height="256" xmlns="http://www.w3.org/2000/svg" version="1.1">
    <polyline stroke="black" stroke-width="3" stroke-linecap="round" fill="transparent" stroke-linejoin="round" points="56.45538330078125 98.070068359375 57.90484619140625 112.20231628417967 56.45538330078125 134.66897583007813 51.38226318359375 159.67214965820313 41.598419189453125 187.9366455078125 39.4241943359375 193.37213134765625 36.5252685546875 199.5323486328125 36.5252685546875 199.5323486328125 " />
        <polyline stroke="black" stroke-width="3" stroke-linecap="round" fill="transparent" stroke-linejoin="round" points="65.51449584960938 85.74966430664063 72.39944458007813 84.66255187988281 81.09622192382813 83.93782043457031 91.242431640625 83.57548522949219 97.40264892578124 83.93782043457031 101.75103759765624 85.02493286132813 106.09939575195313 85.74966430664063 108.27359008789063 87.1990966796875 110.44778442382813 91.9098663330078 111.17251586914063 104.95500183105467 108.99832153320313 130.32057189941406 107.54885864257813 146.62701416015625 106.82412719726563 161.8463592529297 108.27359008789063 175.2538604736328 112.25961303710938 185.762451171875 126.75421142578124 199.16995239257813 130.74026489257813 201.34417724609375 147.04669189453125 208.59146118164065 160.091796875 210.765625 171.6875 212.9398193359375 184.37030029296875 214.3892822265625 196.32830810546875 214.0269470214844 203.93798828125 212.21514892578125 213.35955810546875 202.79360961914065 214.44659423828125 198.44525146484375 212.634765625 176.70333862304688 205.025146484375 152.06246948242188 205.025146484375 152.06246948242188 " />
        <polyline stroke="black" stroke-width="3" stroke-linecap="round" fill="transparent" stroke-linejoin="round" points="89.0682373046875 111.83993530273438 92.69189453125 114.01414489746094 98.85208129882813 127.78401184082033 98.85208129882813 127.78401184082033 " />
        <polyline stroke="black" stroke-width="3" stroke-linecap="round" fill="transparent" stroke-linejoin="round" points="88.343505859375 162.20870971679688 91.242431640625 163.2958221435547 91.242431640625 163.2958221435547 " />
        <polyline stroke="black" stroke-width="3" stroke-linecap="round" fill="transparent" stroke-linejoin="round" points="141.24884033203125 81.76362609863281 155.01873779296875 79.95181274414063 167.339111328125 79.58944702148438 179.29718017578125 79.22708129882813 191.97991943359375 79.22708129882813 194.1541748046875 79.22708129882813 194.5164794921875 79.58944702148438 194.5164794921875 79.58944702148438 " />
        <polyline stroke="black" stroke-width="3" stroke-linecap="round" fill="transparent" stroke-linejoin="round" points="130.74026489257813 114.37652587890624 134.72625732421875 113.65179443359376 154.2939453125 108.57867431640624 166.97674560546875 104.95500183105467 177.12298583984375 103.14320373535156 185.81976318359375 101.33137512207033 190.89288330078125 99.88189697265624 190.89288330078125 99.88189697265624 " />
        <polyline stroke="black" stroke-width="3" stroke-linecap="round" fill="transparent" stroke-linejoin="round" points="153.93157958984375 37.55509185791016 156.1058349609375 55.31098937988281 157.5552978515625 65.81956481933594 161.90362548828125 99.15716552734376 163.71551513671875 121.26144409179688 164.07781982421875 141.5539093017578 163.3531494140625 168.0065460205078 163.3531494140625 168.0065460205078 " />
        </svg>