<?xml version="1.0" standalone="no"?>
    <svg width="256" height="256" xmlns="http://www.w3.org/2000/svg" version="1.1">
    <polyline stroke="black" stroke-width="3" stroke-linecap="round" fill="transparent" stroke-linejoin="round" points="77.868896484375 66.69325256347656 69.71044921875 97.60940551757813 61.122650146484375 128.52554321289063 54.252410888671875 149.99508666992188 47.38214111328125 166.3119354248047 42.65887451171875 176.6173095703125 39.223724365234375 182.6287841796875 39.223724365234375 182.6287841796875 " />
        <polyline stroke="black" stroke-width="3" stroke-linecap="round" fill="transparent" stroke-linejoin="round" points="96.7620849609375 66.26385498046875 102.7735595703125 63.25813293457031 108.7850341796875 60.25239562988281 115.22592163085938 57.676055908203125 121.23739624023438 55.529083251953125 131.542724609375 53.38213348388672 138.8424072265625 55.529083251953125 146.14202880859375 65.83447265625 153.0123291015625 90.30975341796876 156.01806640625 119.07896423339844 158.16497802734375 143.12481689453125 162.45892333984375 163.3061981201172 168.47039794921875 176.18792724609375 171.47607421875 180.05242919921875 184.35784912109375 188.6402587890625 194.23382568359375 188.6402587890625 206.25677490234375 179.623046875 206.25677490234375 179.623046875 " />
        <polyline stroke="black" stroke-width="3" stroke-linecap="round" fill="transparent" stroke-linejoin="round" points="96.7620849609375 104.47966003417967 100.62664794921876 107.91477966308594 104.49114990234376 111.34991455078124 111.790771484375 117.790771484375 117.37286376953124 122.94346618652344 117.80224609375 126.37858581542967 117.80224609375 126.37858581542967 " />
        <polyline stroke="black" stroke-width="3" stroke-linecap="round" fill="transparent" stroke-linejoin="round" points="87.31552124023438 146.55996704101563 90.32122802734376 150.4244842529297 100.62664794921876 161.588623046875 100.62664794921876 161.588623046875 " />
        <polyline stroke="black" stroke-width="3" stroke-linecap="round" fill="transparent" stroke-linejoin="round" points="172.7642822265625 87.30401611328125 179.2052001953125 84.29827880859375 198.09832763671875 77.42802429199219 209.69189453125 73.99290466308594 219.56787109375 71.41656494140625 219.56787109375 71.41656494140625 " />
        <polyline stroke="black" stroke-width="3" stroke-linecap="round" fill="transparent" stroke-linejoin="round" points="153.441650390625 138.4015350341797 159.882568359375 137.54275512695313 168.041015625 136.25457763671875 177.0582275390625 134.5370330810547 194.6632080078125 130.67251586914063 219.56787109375 117.790771484375 219.56787109375 117.790771484375 " />
        <polyline stroke="black" stroke-width="3" stroke-linecap="round" fill="transparent" stroke-linejoin="round" points="197.23956298828125 58.96421813964844 195.0926513671875 73.99290466308594 193.375 89.45097351074219 190.36932373046875 121.22589111328124 187.79296875 172.75279235839844 187.79296875 172.75279235839844 " />
        </svg>