<?xml version="1.0" standalone="no"?>
    <svg width="256" height="256" xmlns="http://www.w3.org/2000/svg" version="1.1">
    <polyline stroke="black" stroke-width="3" stroke-linecap="round" fill="transparent" stroke-linejoin="round" points="50 112 50 119 50 139 49 159 47 178 47 192 47 202 47 205 47 205 " />
        <polyline stroke="black" stroke-width="3" stroke-linecap="round" fill="transparent" stroke-linejoin="round" points="46 102 51 101 57 100 72 95 90 90 107 90 117 90 123 95 124 114 124 137 124 162 124 183 129 199 141 212 158 220 177 222 196 222 213 214 222 205 226 195 227 183 227 155 227 155 " />
        <polyline stroke="black" stroke-width="3" stroke-linecap="round" fill="transparent" stroke-linejoin="round" points="83 121 87 123 100 134 103 138 103 138 " />
        <polyline stroke="black" stroke-width="3" stroke-linecap="round" fill="transparent" stroke-linejoin="round" points="80 187 90 187 90 187 " />
        <polyline stroke="black" stroke-width="3" stroke-linecap="round" fill="transparent" stroke-linejoin="round" points="163 96 171 96 186 96 190 96 198 96 202 96 202 96 " />
        <polyline stroke="black" stroke-width="3" stroke-linecap="round" fill="transparent" stroke-linejoin="round" points="157 143 167 141 185 136 189 136 200 135 208 132 214 130 214 130 " />
        <polyline stroke="black" stroke-width="3" stroke-linecap="round" fill="transparent" stroke-linejoin="round" points="177 68 177 78 177 90 176 117 174 139 174 151 174 166 174 179 174 187 174 190 174 190 " />
        </svg>