<?xml version="1.0" standalone="no"?>
    <svg width="256" height="256" xmlns="http://www.w3.org/2000/svg" version="1.1">
    <polyline stroke="black" stroke-width="3" stroke-linecap="round" fill="transparent" stroke-linejoin="round" points="39.1904296875 177.20753479003906 51.12420654296875 172.77499389648438 63.0579833984375 168.3424530029297 77.03756713867188 163.22796630859375 110.79315185546876 152.99900817871094 151.708984375 142.4290771484375 170.12109375 137.99652099609375 198.4212646484375 132.54107666015625 207.286376953125 130.83624267578125 215.12860107421875 129.47239685058594 216.1514892578125 129.13143920898438 216.1514892578125 129.13143920898438 " />
        <polyline stroke="black" stroke-width="3" stroke-linecap="round" fill="transparent" stroke-linejoin="round" points="101.5870361328125 88.21559143066405 99.541259765625 99.46743774414063 97.4954833984375 110.7192840576172 95.10873413085938 124.35791015625 89.9942626953125 160.15927124023438 88.97137451171875 174.13885498046875 88.63037109375 180.6171875 88.63037109375 181.64010620117188 88.63037109375 181.64010620117188 " />
        <polyline stroke="black" stroke-width="3" stroke-linecap="round" fill="transparent" stroke-linejoin="round" points="90.33514404296876 120.26632690429685 99.541259765625 108.67350769042967 108.74737548828124 97.0806884765625 122.38595581054688 86.85171508789063 138.41134643554688 79.35049438476563 146.594482421875 77.3046875 171.4849853515625 82.41917419433594 181.37298583984375 95.03488159179688 186.146484375 106.62771606445313 189.8970947265625 133.22300720214844 182.3958740234375 164.59182739257813 175.235595703125 174.82078552246094 171.4849853515625 177.20755004882813 171.4849853515625 177.20755004882813 " />
        <polyline stroke="black" stroke-width="3" stroke-linecap="round" fill="transparent" stroke-linejoin="round" points="135.3426513671875 96.0577697753906 133.6378173828125 107.30963134765624 131.9329833984375 118.56149291992188 128.182373046875 143.1110076904297 123.40887451171876 167.31954956054688 117.271484375 189.141357421875 111.47509765625 200.73416137695313 107.72445678710938 205.16671752929688 106.360595703125 206.18960571289065 104.65576171875 207.2125244140625 104.65576171875 206.87152099609375 110.1112060546875 202.43902587890625 123.40887451171876 195.27874755859375 143.86679077148438 187.4365234375 156.4825439453125 186.0726318359375 156.4825439453125 186.0726318359375 " />
        </svg>