<?xml version="1.0" standalone="no"?>
    <svg width="256" height="256" xmlns="http://www.w3.org/2000/svg" version="1.1">
    <polyline stroke="black" stroke-width="3" stroke-linecap="round" fill="transparent" stroke-linejoin="round" points="78 65 79 69 80 75 82 89 82 100 82 110 81 119 81 126 81 132 80 137 80 139 80 140 80 139 " />
        <polyline stroke="black" stroke-width="3" stroke-linecap="round" fill="transparent" stroke-linejoin="round" points="86 76 88 74 92 71 97 69 102 67 112 66 119 64 126 63 134 63 142 62 149 63 156 64 161 65 166 68 171 75 172 83 172 92 170 103 167 114 162 125 155 135 146 143 142 146 " />
        <polyline stroke="black" stroke-width="3" stroke-linecap="round" fill="transparent" stroke-linejoin="round" points="46 120 45 117 45 116 46 114 48 113 52 112 57 110 63 108 71 107 80 105 97 102 109 101 123 100 137 98 151 97 165 96 177 93 187 91 195 87 199 85 " />
        <polyline stroke="black" stroke-width="3" stroke-linecap="round" fill="transparent" stroke-linejoin="round" points="138 70 136 70 134 72 132 75 129 85 127 94 125 103 122 113 119 122 115 131 111 139 106 145 97 152 94 153 89 154 84 154 78 153 76 152 75 151 76 149 77 149 83 147 90 146 97 146 106 145 121 146 127 146 144 149 149 151 155 153 " />
        </svg>