<?xml version="1.0" standalone="no"?>
    <svg width="256" height="256" xmlns="http://www.w3.org/2000/svg" version="1.1">
    <polyline stroke="black" stroke-width="3" stroke-linecap="round" fill="transparent" stroke-linejoin="round" points="45.284759521484375 113.04653930664063 55.61102294921875 106.85076904296876 64.2850341796875 101.8941650390625 88.241943359375 92.39401245117188 101.87265014648438 89.089599609375 126.24261474609376 84.54605102539063 147.30816650390625 82.89385986328125 165.0693359375 82.48080444335938 175.80859375 82.0677490234375 179.113037109375 82.0677490234375 181.17828369140625 82.0677490234375 181.17828369140625 82.0677490234375 " />
        <polyline stroke="black" stroke-width="3" stroke-linecap="round" fill="transparent" stroke-linejoin="round" points="91.95941162109376 54.39338684082031 89.06805419921875 72.154541015625 88.241943359375 102.7202606201172 87.41586303710938 132.04684448242188 87.41586303710938 153.11239624023438 87.41586303710938 164.26475524902344 87.41586303710938 168.80828857421875 87.41586303710938 168.39524841308594 87.41586303710938 168.39524841308594 " />
        <polyline stroke="black" stroke-width="3" stroke-linecap="round" fill="transparent" stroke-linejoin="round" points="87.0028076171875 63.89353942871094 97.74212646484376 57.697784423828125 104.76400756835938 54.806427001953125 119.6337890625 51.08898162841797 127.894775390625 49.849822998046875 147.30816650390625 49.43678283691406 152.2647705078125 51.08898162841797 163.00408935546875 58.523895263671875 166.7215576171875 63.89353942871094 171.6781005859375 80.00250244140625 170.85205078125 110.56822204589844 165.89544677734375 125.02496337890624 163.00408935546875 129.5685272216797 163.00408935546875 129.5685272216797 " />
        <polyline stroke="black" stroke-width="3" stroke-linecap="round" fill="transparent" stroke-linejoin="round" points="138.22103881835938 59.763031005859375 136.98190307617188 70.50234985351563 135.74276733398438 77.937255859375 131.61224365234375 98.58975219726563 117.56854248046876 132.4598846435547 108.89447021484376 145.26443481445313 105.590087890625 149.3949432373047 101.45956420898438 152.6993408203125 100.22042846679688 153.11239624023438 101.04656982421876 152.6993408203125 119.6337890625 144.02529907226563 136.56884765625 137.82955932617188 144.00375366210938 135.7642822265625 166.7215576171875 139.894775390625 166.7215576171875 139.894775390625 " />
        </svg>