<?xml version="1.0" standalone="no"?>
    <svg width="256" height="256" xmlns="http://www.w3.org/2000/svg" version="1.1">
    <polyline stroke="black" stroke-width="3" stroke-linecap="round" fill="transparent" stroke-linejoin="round" points="89 87 89 85 87 83 87 81 87 80 87 83 86 92 86 107 87 126 89 143 90 153 92 158 92 158 " />
        <polyline stroke="black" stroke-width="3" stroke-linecap="round" fill="transparent" stroke-linejoin="round" points="95 75 94 73 94 72 100 71 106 70 122 67 143 64 160 62 171 61 178 61 179 64 179 65 178 69 177 70 175 77 174 80 171 91 171 95 167 112 165 126 164 135 164 143 163 150 163 153 162 154 162 154 " />
        <polyline stroke="black" stroke-width="3" stroke-linecap="round" fill="transparent" stroke-linejoin="round" points="65 127 59 124 62 121 76 116 87 113 113 108 143 104 174 101 194 100 200 100 213 100 216 103 216 104 216 104 " />
        <polyline stroke="black" stroke-width="3" stroke-linecap="round" fill="transparent" stroke-linejoin="round" points="103 157 102 157 101 156 104 154 115 150 119 148 132 145 136 144 151 142 163 141 170 140 176 139 176 139 " />
        <polyline stroke="black" stroke-width="3" stroke-linecap="round" fill="transparent" stroke-linejoin="round" points="130 77 129 77 129 79 128 81 127 88 127 91 123 106 123 119 124 129 125 137 126 139 126 139 " />
        </svg>