<?xml version="1.0" standalone="no"?>
    <svg width="256" height="256" xmlns="http://www.w3.org/2000/svg" version="1.1">
    <polyline stroke="black" stroke-width="3" stroke-linecap="round" fill="transparent" stroke-linejoin="round" points="70.3333740234375 109.06668090820313 74.60003662109375 129.33334350585938 76.7333984375 141.06671142578125 78.86669921875 163.4666748046875 79.93341064453125 176.26669311523438 81.00006103515625 184.80001831054688 81.00006103515625 186.933349609375 81.00006103515625 181.60003662109375 81.00006103515625 181.60003662109375 " />
        <polyline stroke="black" stroke-width="3" stroke-linecap="round" fill="transparent" stroke-linejoin="round" points="78.86669921875 106.933349609375 110.86669921875 97.33334350585938 134.3333740234375 95.20002746582033 149.2667236328125 94.1333465576172 155.666748046875 93.06668090820313 158.86669921875 93.06668090820313 159.933349609375 94.1333465576172 161 97.33334350585938 161 104.8000030517578 161 131.4666748046875 161 149.6000213623047 159.933349609375 160.26669311523438 159.933349609375 165.6000213623047 157.8001708984375 167.73338317871094 156.7333984375 168.80001831054688 156.7333984375 168.80001831054688 " />
        <polyline stroke="black" stroke-width="3" stroke-linecap="round" fill="transparent" stroke-linejoin="round" points="117.2667236328125 102.66667175292967 117.2667236328125 135.73338317871094 118.3333740234375 149.6000213623047 119.4000244140625 154.93336486816406 119.4000244140625 161.33334350585938 117.2667236328125 164.53334045410156 117.2667236328125 164.53334045410156 " />
        <polyline stroke="black" stroke-width="3" stroke-linecap="round" fill="transparent" stroke-linejoin="round" points="33.00006103515625 166.6666717529297 58.60003662109375 154.93336486816406 94.86669921875 145.33334350585938 133.2667236328125 138.93336486816406 166.3333740234375 136.80001831054688 188.7333984375 135.73338317871094 200.4666748046875 135.73338317871094 202.60009765625 135.73338317871094 203.666748046875 136.80001831054688 197.2667236328125 140.00001525878906 197.2667236328125 140.00001525878906 " />
        <polyline stroke="black" stroke-width="3" stroke-linecap="round" fill="transparent" stroke-linejoin="round" points="90.60003662109376 179.4666748046875 126.86669921875 173.06671142578125 150.3333740234375 173.06671142578125 164.2000732421875 174.1333465576172 171.666748046875 176.26669311523438 171.666748046875 176.26669311523438 " />
        </svg>