<?xml version="1.0" standalone="no"?>
    <svg width="256" height="256" xmlns="http://www.w3.org/2000/svg" version="1.1">
    <polyline stroke="black" stroke-width="3" stroke-linecap="round" fill="transparent" stroke-linejoin="round" points="71.79757690429688 103.64833068847656 79.56655883789063 100.27052307128906 87.33554077148438 96.89271545410156 95.44229125976563 93.51490783691406 104.22463989257813 89.46151733398438 113.0069580078125 85.40812683105469 121.789306640625 81.35476684570313 129.89602661132813 76.96359252929688 137.66506958007813 72.57241821289063 144.08291625976563 68.85682678222656 149.48739624023438 65.1412353515625 153.54083251953125 62.10118103027344 156.580810546875 59.73670959472656 158.9453125 57.71002197265625 160.63421630859375 56.35888671875 161.9853515625 55.68333435058594 162.3231201171875 55.34556579589844 162.66094970703125 55.007781982421875 162.66094970703125 55.007781982421875 " />
        <polyline stroke="black" stroke-width="3" stroke-linecap="round" fill="transparent" stroke-linejoin="round" points="77.20208740234375 144.18212890625 77.20208740234375 148.91110229492188 77.20208740234375 153.64007568359375 77.20208740234375 159.0445556640625 77.20208740234375 165.46243286132813 77.20208740234375 172.2180633544922 77.20208740234375 178.29812622070313 77.20208740234375 183.3648376464844 76.86431884765625 187.75604248046875 76.52655029296875 191.47161865234375 76.52655029296875 194.17388916015625 76.52655029296875 195.86276245117188 76.18875122070313 196.87612915039065 76.18875122070313 197.55169677734375 76.52655029296875 197.55169677734375 78.21542358398438 197.21389770507813 82.60665893554688 195.5250244140625 89.70001220703125 191.47161865234375 98.48239135742188 184.71597290039065 108.27804565429688 177.2847900390625 118.07369995117188 169.8535919189453 127.19384765625 163.09796142578125 136.31393432617188 156.34231567382813 143.7451171875 150.60003662109375 150.16302490234375 145.53330993652344 155.9052734375 141.1421356201172 160.97198486328125 137.08876037597656 164.68756103515625 134.04872131347656 164.68756103515625 134.04872131347656 " />
        <polyline stroke="black" stroke-width="3" stroke-linecap="round" fill="transparent" stroke-linejoin="round" points="180.5633544921875 100.94610595703124 181.91448974609375 105.675048828125 183.265625 110.40399169921876 184.2789306640625 114.795166015625 185.29229736328125 119.52409362792967 185.96783447265625 124.2530517578125 186.30560302734375 128.64422607421875 186.30560302734375 132.69757080078125 185.63006591796875 136.0753936767578 184.61669921875 138.77767944335938 183.265625 140.80435180664063 181.2388916015625 142.49325561523438 177.5233154296875 143.84439086914063 175.15887451171875 144.5199432373047 175.15887451171875 144.5199432373047 " />
        <polyline stroke="black" stroke-width="3" stroke-linecap="round" fill="transparent" stroke-linejoin="round" points="132.26058959960938 109.72843933105467 134.28726196289063 118.1729736328125 136.31393432617188 126.61750793457033 140.02951049804688 146.2088623046875 141.0428466796875 157.3556671142578 141.0428466796875 169.8535919189453 140.02951049804688 181.0003662109375 138.34060668945313 192.82275390625 135.63836669921875 204.98291015625 132.26052856445313 215.45413208007813 128.544921875 225.58758544921875 124.15377807617188 235.38327026367188 119.42483520507813 244.16558837890625 113.34478759765624 253.28570556640625 106.58914184570313 261.7302551269531 106.58914184570313 261.7302551269531 " />
        </svg>