<?xml version="1.0" standalone="no"?>
    <svg width="256" height="256" xmlns="http://www.w3.org/2000/svg" version="1.1">
    <polyline stroke="black" stroke-width="3" stroke-linecap="round" fill="transparent" stroke-linejoin="round" points="75 74 104 73 124 72 145 71 162 71 173 70 173 70 " />
        <polyline stroke="black" stroke-width="3" stroke-linecap="round" fill="transparent" stroke-linejoin="round" points="96 109 93 126 93 137 93 143 93 146 93 147 96 147 109 147 125 147 144 145 161 142 174 140 178 140 178 140 " />
        <polyline stroke="black" stroke-width="3" stroke-linecap="round" fill="transparent" stroke-linejoin="round" points="177 116 177 121 177 125 175 136 175 136 " />
        <polyline stroke="black" stroke-width="3" stroke-linecap="round" fill="transparent" stroke-linejoin="round" points="137 102 137 105 137 113 137 131 136 160 127 191 111 221 105 235 105 235 " />
        </svg>