<?xml version="1.0" standalone="no"?>
    <svg width="256" height="256" xmlns="http://www.w3.org/2000/svg" version="1.1">
    <polyline stroke="black" stroke-width="3" stroke-linecap="round" fill="transparent" stroke-linejoin="round" points="58.0394287109375 112.5043487548828 69.7596435546875 109.4468994140625 83.51812744140625 104.35115051269533 97.27667236328124 97.7266845703125 107.97772216796876 91.61178588867188 113.58306884765624 87.53518676757813 115.11178588867188 83.96815490722656 115.11178588867188 83.96815490722656 " />
        <polyline stroke="black" stroke-width="3" stroke-linecap="round" fill="transparent" stroke-linejoin="round" points="69.25006103515625 140.5309600830078 68.740478515625 150.72244262695313 68.740478515625 160.9139404296875 69.25006103515625 167.5384063720703 71.28836059570313 169.5767059326172 71.28836059570313 169.5767059326172 " />
        <polyline stroke="black" stroke-width="3" stroke-linecap="round" fill="transparent" stroke-linejoin="round" points="105.939453125 124.734130859375 100.3341064453125 137.4735107421875 92.69049072265624 152.2511749267578 83.51812744140625 165.50010681152344 75.87451171875 174.1628875732422 70.26919555664063 178.74905395507813 67.21176147460938 181.29693603515625 67.21176147460938 181.29693603515625 71.79791259765625 179.25863647460938 80.97027587890625 174.1628875732422 95.23837280273438 167.02883911132813 108.99688720703124 158.36607360839844 121.2266845703125 147.15542602539063 121.2266845703125 147.15542602539063 " />
        <polyline stroke="black" stroke-width="3" stroke-linecap="round" fill="transparent" stroke-linejoin="round" points="146.19583129882813 88.04475402832031 157.406494140625 81.92985534667969 169.126708984375 74.79582214355469 179.8277587890625 68.17134094238281 186.9617919921875 63.585174560546875 191.5479736328125 61.03729248046875 193.07672119140625 60.01814270019531 191.03839111328125 61.03729248046875 186.9617919921875 64.09474182128906 180.846923828125 69.19049072265625 172.18414306640625 77.853271484375 161.48309326171875 92.63093566894533 150.27243041992188 113.013916015625 137.5330810546875 138.49266052246094 124.793701171875 163.46182250976563 113.58306884765624 186.3926696777344 106.44900512695313 201.679931640625 101.86285400390624 211.36184692382813 98.29583740234376 216.9671630859375 98.29583740234376 216.9671630859375 " />
        <polyline stroke="black" stroke-width="3" stroke-linecap="round" fill="transparent" stroke-linejoin="round" points="175.2415771484375 100.78411865234376 170.1458740234375 115.56179809570313 160.9735107421875 140.5309600830078 154.858642578125 155.8181915283203 151.29156494140625 170.59585571289063 150.78201293945313 182.31607055664065 154.3489990234375 190.46926879882813 160.9735107421875 196.0745849609375 171.674560546875 200.6607666015625 182.88525390625 202.18948364257813 193.5863037109375 202.18948364257813 201.739501953125 200.15118408203125 207.8543701171875 197.09375 212.4405517578125 193.01715087890625 215.49798583984375 187.41183471679688 216.007568359375 177.2203369140625 210.4022216796875 162.95223999023438 210.4022216796875 162.95223999023438 " />
        </svg>