<?xml version="1.0" standalone="no"?>
    <svg width="256" height="256" xmlns="http://www.w3.org/2000/svg" version="1.1">
    <polyline stroke="black" stroke-width="3" stroke-linecap="round" fill="transparent" stroke-linejoin="round" points="80.4444580078125 94 100.00006103515624 89.55555725097656 109.77777099609376 88.66667175292969 115.11114501953124 89.55555725097656 115.11114501953124 92.22224426269533 115.11114501953124 92.22224426269533 " />
        <polyline stroke="black" stroke-width="3" stroke-linecap="round" fill="transparent" stroke-linejoin="round" points="70.66668701171875 146.4444580078125 76.888916015625 154.44444274902344 86.666748046875 157.11114501953125 94.66668701171876 153.55555725097656 94.66668701171876 153.55555725097656 " />
        <polyline stroke="black" stroke-width="3" stroke-linecap="round" fill="transparent" stroke-linejoin="round" points="105.33331298828124 122.44444274902344 94.66668701171876 141.11111450195313 86.666748046875 151.7777862548828 86.666748046875 151.7777862548828 " />
        <polyline stroke="black" stroke-width="3" stroke-linecap="round" fill="transparent" stroke-linejoin="round" points="70.66668701171875 174.888916015625 93.77777099609376 164.22222900390625 113.3333740234375 156.22222900390625 125.77777099609376 150.88890075683594 132.888916015625 147.3333282470703 132.888916015625 147.3333282470703 " />
        <polyline stroke="black" stroke-width="3" stroke-linecap="round" fill="transparent" stroke-linejoin="round" points="162.2222900390625 70.88888549804688 175.55560302734375 67.33332824707031 181.77777099609375 66.44444274902344 186.22222900390625 66.44444274902344 188.888916015625 67.33332824707031 185.33331298828125 77.11111450195313 172.888916015625 100.22222900390624 155.11114501953125 129.55555725097656 138.22222900390625 155.3333282470703 117.77783203125 183.77780151367188 110.66668701171876 194.4444580078125 105.33331298828124 200.66665649414065 105.33331298828124 200.66665649414065 " />
        <polyline stroke="black" stroke-width="3" stroke-linecap="round" fill="transparent" stroke-linejoin="round" points="152.4444580078125 138.44444274902344 152.4444580078125 146.4444580078125 153.3333740234375 153.55555725097656 155.11114501953125 166.88888549804688 157.77783203125 170.44447326660156 161.33331298828125 174.888916015625 166.666748046875 176.6666717529297 179.11114501953125 176.6666717529297 206.66668701171875 174 220.888916015625 171.3333282470703 228.888916015625 170.44447326660156 232.4444580078125 168.6666717529297 235.11114501953125 166.00003051757813 234.22222900390625 158.88888549804688 228.888916015625 142.88888549804688 228.888916015625 142.88888549804688 " />
        </svg>