<?xml version="1.0" standalone="no"?>
    <svg width="256" height="256" xmlns="http://www.w3.org/2000/svg" version="1.1">
    <polyline stroke="black" stroke-width="3" stroke-linecap="round" fill="transparent" stroke-linejoin="round" points="54 135 53 135 52 134 51 133 52 132 55 130 60 127 64 126 67 124 70 123 74 121 81 118 85 117 89 117 95 115 98 114 101 114 108 113 109 113 110 113 110 113 " />
        <polyline stroke="black" stroke-width="3" stroke-linecap="round" fill="transparent" stroke-linejoin="round" points="69 135 65 138 64 140 64 143 63 149 63 152 63 155 64 160 65 165 67 167 74 175 75 176 75 176 " />
        <polyline stroke="black" stroke-width="3" stroke-linecap="round" fill="transparent" stroke-linejoin="round" points="100 137 98 139 97 148 93 161 92 165 85 178 80 188 80 188 " />
        <polyline stroke="black" stroke-width="3" stroke-linecap="round" fill="transparent" stroke-linejoin="round" points="37 216 38 215 45 211 57 205 73 200 90 195 103 192 111 190 114 188 114 188 " />
        <polyline stroke="black" stroke-width="3" stroke-linecap="round" fill="transparent" stroke-linejoin="round" points="136 113 138 112 140 111 143 110 148 108 154 108 157 108 160 108 166 108 169 108 172 108 177 108 180 108 182 108 185 107 186 107 187 107 187 107 " />
        <polyline stroke="black" stroke-width="3" stroke-linecap="round" fill="transparent" stroke-linejoin="round" points="153 132 151 136 150 138 149 140 148 147 147 150 146 154 145 158 138 177 130 197 124 210 123 213 120 220 120 221 119 222 119 222 " />
        <polyline stroke="black" stroke-width="3" stroke-linecap="round" fill="transparent" stroke-linejoin="round" points="170 117 169 117 170 118 170 130 170 142 170 163 170 170 170 176 170 188 170 198 172 208 173 211 180 216 182 218 188 220 190 220 193 220 200 220 204 219 207 218 210 218 213 216 216 216 218 215 222 213 223 211 226 208 228 203 228 198 227 190 225 178 225 178 " />
        </svg>