<?xml version="1.0" standalone="no"?>
    <svg width="256" height="256" xmlns="http://www.w3.org/2000/svg" version="1.1">
    <polyline stroke="black" stroke-width="3" stroke-linecap="round" fill="transparent" stroke-linejoin="round" points="134.87942504882813 52.0533447265625 130.83856201171875 60.53907775878906 126.79769897460938 69.02481079101563 122.75692749023438 77.10646057128906 113.05892944335938 95.29017639160156 108.20993041992188 104.17999267578124 102.95684814453124 113.473876953125 92.45068359375 129.63720703125 83.15679931640625 143.37600708007813 75.88330078125 152.66989135742188 71.84249877929688 156.71072387695313 71.84249877929688 156.71072387695313 " />
        <polyline stroke="black" stroke-width="3" stroke-linecap="round" fill="transparent" stroke-linejoin="round" points="139.72833251953125 76.29829406738281 146.19369506835938 77.51054382324219 152.6590576171875 78.72279357910156 168.418212890625 82.76361083984375 185.3896484375 89.22894287109375 199.9366455078125 95.69427490234376 212.05914306640625 102.15957641601563 224.181640625 110.24124145507813 228.222412109375 113.06980895996094 228.222412109375 113.06980895996094 " />
        <polyline stroke="black" stroke-width="3" stroke-linecap="round" fill="transparent" stroke-linejoin="round" points="136.89984130859375 126.40457153320313 132.85897827148438 133.27395629882813 128.818115234375 140.14334106445313 120.3323974609375 155.09439086914063 113.46298217773438 168.83319091796875 108.614013671875 180.1475067138672 105.78546142578124 187.01690673828125 104.97726440429688 189.44140625 104.16912841796876 194.2904052734375 104.57318115234376 195.09857177734375 110.23031616210938 196.71490478515625 120.3323974609375 195.90673828125 125.98956298828124 195.09857177734375 143.7691650390625 191.4618225097656 155.487548828125 187.4209899902344 174.07537841796875 177.31893920898438 174.07537841796875 177.31893920898438 " />
        <polyline stroke="black" stroke-width="3" stroke-linecap="round" fill="transparent" stroke-linejoin="round" points="177.30804443359375 160.3474578857422 179.7325439453125 164.38829040527344 182.15704345703125 168.4291229248047 189.4305419921875 179.33934020996094 191.450927734375 182.97607421875 193.47137451171875 186.61285400390625 196.7039794921875 191.86590576171875 196.7039794921875 191.86590576171875 " />
        </svg>