<?xml version="1.0" standalone="no"?>
    <svg width="256" height="256" xmlns="http://www.w3.org/2000/svg" version="1.1">
    <polyline stroke="black" stroke-width="3" stroke-linecap="round" fill="transparent" stroke-linejoin="round" points="56.4639892578125 85.4356689453125 62.20086669921875 82.78787231445313 68.3790283203125 79.69879150390625 74.55722045898438 76.60969543457031 86.031005859375 69.99021911621094 96.62216186523438 64.69464111328125 108.53720092773438 62.046844482421875 112.9501953125 66.901123046875 115.15670776367188 76.16839599609375 112.9501953125 106.61801147460938 103.68295288085938 146.3348846435547 97.5047607421875 161.78033447265625 91.32659912109376 171.047607421875 91.32659912109376 171.047607421875 " />
        <polyline stroke="black" stroke-width="3" stroke-linecap="round" fill="transparent" stroke-linejoin="round" points="76.76373291015625 103.08761596679688 73.67465209960938 110.58969116210938 71.02685546875 118.974365234375 66.61386108398438 134.41983032226563 61.31829833984375 152.07176208496094 57.78790283203125 160.45645141601563 57.78790283203125 160.45645141601563 " />
        <polyline stroke="black" stroke-width="3" stroke-linecap="round" fill="transparent" stroke-linejoin="round" points="56.9052734375 131.77203369140625 63.524749755859375 128.24163818359375 78.97021484375 122.0634765625 94.85693359375 115.88528442382813 108.53720092773438 111.47232055664063 118.24581909179688 108.38320922851563 123.982666015625 107.05931091308594 125.30657958984376 107.94189453125 125.30657958984376 107.94189453125 " />
        <polyline stroke="black" stroke-width="3" stroke-linecap="round" fill="transparent" stroke-linejoin="round" points="62.642181396484375 182.080078125 69.26165771484375 181.19747924804688 75.4398193359375 180.31488037109375 82.059326171875 178.99099731445313 96.18087768554688 175.01931762695313 104.56552124023438 171.047607421875 104.56552124023438 171.047607421875 " />
        <polyline stroke="black" stroke-width="3" stroke-linecap="round" fill="transparent" stroke-linejoin="round" points="150.46063232421875 78.37489318847656 155.7562255859375 74.84449768066406 168.9951171875 66.45982360839844 190.6187744140625 54.10345458984375 201.6512451171875 47.92527770996094 208.7120361328125 44.836181640625 211.8011474609375 43.95359802246094 212.6837158203125 44.39488983154297 212.6837158203125 44.39488983154297 " />
        <polyline stroke="black" stroke-width="3" stroke-linecap="round" fill="transparent" stroke-linejoin="round" points="175.6146240234375 96.90943908691406 164.140869140625 119.85696411132813 155.7562255859375 140.5980224609375 150.46063232421875 152.95437622070313 146.48895263671875 160.45645141601563 146.48895263671875 160.45645141601563 " />
        <polyline stroke="black" stroke-width="3" stroke-linecap="round" fill="transparent" stroke-linejoin="round" points="159.28656005859375 138.39151000976563 165.0234375 131.77203369140625 171.20166015625 124.71127319335938 182.6754150390625 112.79620361328124 191.94268798828125 105.29411315917967 198.120849609375 103.08761596679688 201.6512451171875 109.70709228515624 202.092529296875 131.33074951171875 198.56219482421875 155.60215759277344 196.35565185546875 177.22579956054688 196.7969970703125 193.112548828125 200.7686767578125 203.26242065429688 207.38812255859375 207.6754150390625 218.42059326171875 207.234130859375 230.335693359375 200.6146240234375 242.6920166015625 186.4930725097656 242.6920166015625 186.4930725097656 " />
        </svg>