<?xml version="1.0" standalone="no"?>
    <svg width="256" height="256" xmlns="http://www.w3.org/2000/svg" version="1.1">
    <polyline stroke="black" stroke-width="3" stroke-linecap="round" fill="transparent" stroke-linejoin="round" points="60.60174560546875 81.14727783203125 66.25888061523438 78.31871032714844 72.72421264648438 75.49012756347656 86.46298217773438 70.237060546875 93.73651123046876 68.21664428710938 106.6671142578125 66.60031127929688 116.36508178710938 67.81256103515625 122.022216796875 72.25747680664063 126.4671630859375 90.44119262695313 124.44674682617188 118.72697448730467 117.17327880859376 144.58824157714844 109.49569702148438 161.55972290039063 101.818115234375 174.89443969726563 98.58544921875 178.93527221679688 98.58544921875 178.93527221679688 " />
        <polyline stroke="black" stroke-width="3" stroke-linecap="round" fill="transparent" stroke-linejoin="round" points="62.218017578125 119.53512573242188 59.38946533203125 134.08209228515625 53.328216552734375 168.0250244140625 50.4996337890625 182.5720062255859 49.691497802734375 187.4209899902344 49.691497802734375 187.4209899902344 " />
        <polyline stroke="black" stroke-width="3" stroke-linecap="round" fill="transparent" stroke-linejoin="round" points="62.62213134765625 135.29434204101563 68.683349609375 131.6575927734375 74.74459838867188 128.42495727539063 80.80584716796875 125.59635925292967 93.73651123046876 120.74737548828124 99.79769897460938 119.13104248046876 106.6671142578125 117.1106414794922 106.6671142578125 117.1106414794922 " />
        <polyline stroke="black" stroke-width="3" stroke-linecap="round" fill="transparent" stroke-linejoin="round" points="41.609832763671875 199.54345703125 62.218017578125 191.0577392578125 109.49569702148438 161.15562438964844 109.49569702148438 161.15562438964844 " />
        <polyline stroke="black" stroke-width="3" stroke-linecap="round" fill="transparent" stroke-linejoin="round" points="145.86312866210938 96.50242614746094 153.1365966796875 94.48202514648438 162.4305419921875 91.6534423828125 182.6346435546875 84.37994384765625 192.3326416015625 79.93504333496094 206.0714111328125 74.27789306640625 212.94085693359375 71.04522705078125 215.7694091796875 69.42889404296875 216.17352294921875 69.02481079101563 214.153076171875 69.83297729492188 208.4959716796875 73.06564331054688 201.62652587890625 77.91462707519531 194.35302734375 83.57179260253906 185.4632568359375 94.0779266357422 173.74481201171875 111.04940795898438 160.814208984375 132.0616912841797 147.883544921875 153.073974609375 136.5692138671875 171.66177368164063 128.487548828125 186.208740234375 122.42636108398438 196.31082153320313 118.78961181640624 203.18023681640625 118.78961181640624 203.18023681640625 " />
        <polyline stroke="black" stroke-width="3" stroke-linecap="round" fill="transparent" stroke-linejoin="round" points="149.90399169921875 153.073974609375 156.3692626953125 149.03314208984375 163.64276123046875 144.99234008789063 176.57342529296875 138.93109130859375 185.05914306640625 136.506591796875 187.483642578125 136.10250854492188 190.71630859375 136.506591796875 191.9285888671875 141.35557556152344 190.71630859375 151.4576416015625 188.6959228515625 161.9637908935547 188.29180908203125 171.66177368164063 190.31219482421875 181.7638397216797 194.757080078125 189.44140625 200.818359375 195.09857177734375 208.4959716796875 199.54345703125 215.7694091796875 201.56390380859375 223.04290771484375 199.54345703125 233.953125 182.5720062255859 239.20623779296875 151.05357360839844 239.20623779296875 151.05357360839844 " />
        </svg>