<?xml version="1.0" standalone="no"?>
    <svg width="256" height="256" xmlns="http://www.w3.org/2000/svg" version="1.1">
    <polyline stroke="black" stroke-width="3" stroke-linecap="round" fill="transparent" stroke-linejoin="round" points="64.85464477539063 107.8160400390625 78.99746704101563 99.7344207763672 88.81088256835938 94.82771301269533 98.33560180664063 90.49827575683594 105.55136108398438 87.03474426269531 112.1898193359375 84.43707275390625 116.80792236328124 84.43707275390625 118.25103759765624 92.51869201660156 114.49887084960938 121.67025756835938 111.32394409179688 148.5127716064453 108.72628784179688 167.5623016357422 105.8399658203125 181.41651916503903 104.68545532226563 184.88006591796875 104.68545532226563 184.88006591796875 " />
        <polyline stroke="black" stroke-width="3" stroke-linecap="round" fill="transparent" stroke-linejoin="round" points="83.326904296875 126.57693481445313 81.01785278320313 149.37867736816406 77.5543212890625 171.89175415039063 75.82254028320313 183.14830017089844 74.09075927734375 191.22991943359375 72.07034301757813 195.559326171875 72.07034301757813 195.559326171875 " />
        <polyline stroke="black" stroke-width="3" stroke-linecap="round" fill="transparent" stroke-linejoin="round" points="78.42019653320313 130.9063720703125 87.36770629882813 127.15419006347656 92.2744140625 125.42242431640624 94.58346557617188 124.8451690673828 94.58346557617188 124.8451690673828 " />
        <polyline stroke="black" stroke-width="3" stroke-linecap="round" fill="transparent" stroke-linejoin="round" points="63.4114990234375 194.1162109375 86.79043579101563 179.97335815429688 106.12863159179688 169.87132263183594 119.11691284179688 161.21246337890625 121.714599609375 158.90342712402344 121.714599609375 158.90342712402344 " />
        <polyline stroke="black" stroke-width="3" stroke-linecap="round" fill="transparent" stroke-linejoin="round" points="161.54541015625 70.00559997558594 177.13140869140625 65.09889221191406 188.67657470703125 61.635345458984375 198.20135498046875 58.749053955078125 203.39666748046875 56.440032958984375 205.7056884765625 54.70825958251953 205.7056884765625 54.70825958251953 " />
        <polyline stroke="black" stroke-width="3" stroke-linecap="round" fill="transparent" stroke-linejoin="round" points="152.597900390625 120.22711181640624 148.26849365234375 147.93551635742188 140.18685913085938 174.77804565429688 129.21896362304688 199.02288818359375 121.1373291015625 212.01119995117188 114.7874755859375 218.93832397460935 108.72628784179688 222.9791259765625 108.72628784179688 222.9791259765625 " />
        <polyline stroke="black" stroke-width="3" stroke-linecap="round" fill="transparent" stroke-linejoin="round" points="162.1226806640625 125.1337890625 176.26556396484375 121.09298706054688 189.83111572265625 116.76351928710938 200.22174072265625 113.3000030517578 205.7056884765625 111.2795867919922 210.61236572265625 109.83644104003906 213.78729248046875 109.25918579101563 214.36456298828125 109.83644104003906 212.0555419921875 114.16587829589844 205.12841796875 125.99969482421876 195.3150634765625 147.93551635742188 188.67657470703125 171.89175415039063 183.48126220703125 193.5389404296875 181.46087646484375 210.85665893554688 182.61541748046875 221.8246154785156 186.65618896484375 226.44268798828125 193.00604248046875 229.90621948242188 202.24212646484375 231.349365234375 210.3238525390625 230.77212524414065 216.96221923828125 229.61761474609375 223.88934326171875 228.751708984375 227.93017578125 226.154052734375 232.5482177734375 213.74298095703125 235.72314453125 201.62057495117188 236.877685546875 184.5914306640625 237.4549560546875 167.27366638183594 237.4549560546875 167.27366638183594 " />
        </svg>