<?xml version="1.0" standalone="no"?>
    <svg width="256" height="256" xmlns="http://www.w3.org/2000/svg" version="1.1">
    <polyline stroke="black" stroke-width="3" stroke-linecap="round" fill="transparent" stroke-linejoin="round" points="83.5645751953125 43.611480712890625 80.8916015625 58.58021545410156 71.26882934570313 87.98307800292969 62.1806640625 108.29779052734376 53.627105712890625 124.33572387695313 46.677337646484375 135.56227111816406 43.469757080078125 140.3736572265625 43.469757080078125 140.3736572265625 47.211944580078125 133.95848083496094 56.834716796875 121.12814331054688 69.13043212890625 107.22859191894533 84.6337890625 95.46745300292967 99.60250854492188 86.91389465332031 109.22528076171876 83.17170715332031 115.1058349609375 83.17170715332031 118.31341552734376 85.84469604492188 117.24423217773438 95.46745300292967 106.55227661132813 121.12814331054688 86.77215576171875 156.4115753173828 70.19964599609375 184.21066284179688 59.5076904296875 200.78317260742188 54.6962890625 207.1983642578125 54.6962890625 207.1983642578125 " />
        <polyline stroke="black" stroke-width="3" stroke-linecap="round" fill="transparent" stroke-linejoin="round" points="64.85366821289063 133.95848083496094 75.54559326171875 141.44284057617188 86.77215576171875 148.39260864257813 109.22528076171876 161.22296142578125 137.02435302734375 175.65708923339844 160.546630859375 185.814453125 180.3267822265625 193.298828125 193.1571044921875 198.11019897460935 200.6414794921875 200.24859619140625 207.5911865234375 197.5755920410156 207.5911865234375 197.5755920410156 " />
        <polyline stroke="black" stroke-width="3" stroke-linecap="round" fill="transparent" stroke-linejoin="round" points="166.42724609375 54.303436279296875 169.1002197265625 73.01434326171875 171.23858642578125 93.3290557861328 172.30780029296875 117.92054748535156 170.7039794921875 137.70066833496094 166.42724609375 152.13479614257813 161.6158447265625 158.5499725341797 155.20068359375 158.5499725341797 144.50872802734375 149.46180725097656 144.50872802734375 149.46180725097656 " />
        <polyline stroke="black" stroke-width="3" stroke-linecap="round" fill="transparent" stroke-linejoin="round" points="106.55227661132813 96.00204467773438 112.96746826171876 103.48641967773438 119.917236328125 109.3669891357422 131.14376831054688 115.78216552734376 131.14376831054688 115.78216552734376 " />
        <polyline stroke="black" stroke-width="3" stroke-linecap="round" fill="transparent" stroke-linejoin="round" points="195.830078125 94.93284606933594 186.741943359375 110.97077941894533 171.773193359375 140.9082489013672 171.773193359375 140.9082489013672 " />
        </svg>