<?xml version="1.0" standalone="no"?>
    <svg width="256" height="256" xmlns="http://www.w3.org/2000/svg" version="1.1">
    <polyline stroke="black" stroke-width="3" stroke-linecap="round" fill="transparent" stroke-linejoin="round" points="116.63681030273438 48.0391845703125 118.24798583984376 57.004608154296875 113.0211181640625 71.54519653320313 108.58770751953124 76.68226623535156 98.90853881835938 81.55404663085938 98.68673706054688 80.47613525390625 " />
        <polyline stroke="black" stroke-width="3" stroke-linecap="round" fill="transparent" stroke-linejoin="round" points="72.05328369140625 77.44113159179688 82.76132202148438 76.91737365722656 93.449462890625 75.95339965820313 105.05438232421876 74.87301635742188 127.1900634765625 71.61764526367188 144.5560302734375 66.88845825195313 150.8416748046875 64.95152282714844 160.477294921875 62.50022888183594 163.84271240234375 61.217376708984375 165.3104248046875 60.387481689453125 164.393310546875 59.670318603515625 164.07666015625 59.42266845703125 " />
        <polyline stroke="black" stroke-width="3" stroke-linecap="round" fill="transparent" stroke-linejoin="round" points="53.08941650390625 121.11289978027344 67.39376831054688 119.51699829101563 74.83953857421875 119.71206665039063 84.712646484375 120.44419860839844 88.65496826171875 121.1321258544922 92.9697265625 123.05381774902344 93.17474365234376 123.13546752929688 " />
        <polyline stroke="black" stroke-width="3" stroke-linecap="round" fill="transparent" stroke-linejoin="round" points="57.630462646484375 118.805419921875 54.485321044921875 128.5697021484375 50.65118408203125 137.65106201171875 47.142303466796875 144.92088317871094 42.668060302734375 151.590576171875 41.384521484375 153.5826873779297 40.45208740234375 153.75045776367188 40.137451171875 154.07089233398438 39.67279052734375 154.61199951171875 39.474334716796875 154.84310913085938 " />
        <polyline stroke="black" stroke-width="3" stroke-linecap="round" fill="transparent" stroke-linejoin="round" points="64.3096923828125 144.93479919433594 78.05111694335938 148.18804931640625 85.3583984375 149.99302673339844 94.47589111328124 152.96780395507813 97.21966552734376 154.06211853027344 101.57537841796876 156.8091278076172 101.86083984375 156.97293090820313 " />
        <polyline stroke="black" stroke-width="3" stroke-linecap="round" fill="transparent" stroke-linejoin="round" points="128.10736083984375 95.98695373535156 140.58969116210938 93.95269775390624 145.97445678710938 92.8741455078125 154.1744384765625 91.19931030273438 155.4410400390625 90.88612365722656 156.21551513671875 90.92434692382813 156.3145751953125 90.9292449951172 " />
        <polyline stroke="black" stroke-width="3" stroke-linecap="round" fill="transparent" stroke-linejoin="round" points="131.33358764648438 102.51628112792967 124.23248291015624 120.00596618652344 118.51620483398438 134.773193359375 116.49984741210938 140.90325927734375 115.55865478515624 144.7396697998047 113.56298828125 152.15740966796875 113.48812866210938 152.4091796875 " />
        <polyline stroke="black" stroke-width="3" stroke-linecap="round" fill="transparent" stroke-linejoin="round" points="158.75201416015625 131.8918914794922 165.33203125 135.12522888183594 175.9378662109375 139.7698211669922 178.53961181640625 140.56521606445313 179.1512451171875 140.6488037109375 179.300537109375 140.66921997070313 179.37200927734375 140.678955078125 " />
        <polyline stroke="black" stroke-width="3" stroke-linecap="round" fill="transparent" stroke-linejoin="round" points="65.91757202148438 174.57681274414063 74.72994995117188 172.80154418945313 93.6339111328125 168.77813720703125 102.56256103515624 166.9409637451172 121.00518798828124 162.9014892578125 134.902099609375 162.01809692382813 139.0760498046875 162.1102752685547 143.57623291015625 162.31173706054688 143.69921875 162.33531188964844 143.72601318359375 162.34042358398438 143.7357177734375 162.3423309326172 " />
        <polyline stroke="black" stroke-width="3" stroke-linecap="round" fill="transparent" stroke-linejoin="round" points="94.92138671875 161.02911376953125 90.04736328125 172.5699462890625 84.868408203125 185.94219970703125 74.54037475585938 209.0458068847656 70.53338623046875 217.696533203125 66.209228515625 227.78680419921875 65.05355834960938 231.45654296875 64.678955078125 233.85867309570313 64.6500244140625 234.04412841796875 " />
        <polyline stroke="black" stroke-width="3" stroke-linecap="round" fill="transparent" stroke-linejoin="round" points="115.69830322265624 200.00747680664065 137.16064453125 214.764892578125 147.71282958984375 220.90548706054688 165.531982421875 229.67794799804688 167.6434326171875 230.9876708984375 167.8544921875 231.11865234375 167.869140625 231.12774658203125 " />
        </svg>