<?xml version="1.0" standalone="no"?>
    <svg width="256" height="256" xmlns="http://www.w3.org/2000/svg" version="1.1">
    <polyline stroke="black" stroke-width="3" stroke-linecap="round" fill="transparent" stroke-linejoin="round" points="129.57821655273438 45.83387756347656 125.4725341796875 51.58187103271485 108.63912963867188 68.415283203125 98.785400390625 74.98440551757813 93.03744506835938 78.67955017089844 90.16342163085938 79.50070190429688 89.75286865234375 79.09011840820313 91.80575561523438 77.03726196289063 102.48056030273438 71.28927612304688 119.31396484375 64.72013854980469 138.61080932617188 59.79328918457031 157.0865478515625 56.91929626464844 170.22479248046875 56.09814453125 178.43621826171875 56.50872802734375 180.899658203125 56.50872802734375 180.899658203125 56.50872802734375 " />
        <polyline stroke="black" stroke-width="3" stroke-linecap="round" fill="transparent" stroke-linejoin="round" points="90.98455810546876 109.47239685058594 98.37484741210938 107.83010864257813 118.90341186523438 103.72439575195313 130.80999755859375 102.08212280273438 137.78964233398438 100.4398193359375 140.66366577148438 98.79753112792967 140.66366577148438 98.79753112792967 " />
        <polyline stroke="black" stroke-width="3" stroke-linecap="round" fill="transparent" stroke-linejoin="round" points="100.83831787109376 106.18780517578124 96.32199096679688 117.27322387695313 92.62689208984376 126.71636962890624 84.82601928710938 145.1920623779297 82.362548828125 150.94004821777344 81.54144287109375 152.1717529296875 81.54144287109375 152.1717529296875 " />
        <polyline stroke="black" stroke-width="3" stroke-linecap="round" fill="transparent" stroke-linejoin="round" points="108.228515625 139.0334930419922 115.208251953125 145.1920623779297 120.95623779296876 150.94004821777344 120.95623779296876 150.94004821777344 " />
        <polyline stroke="black" stroke-width="3" stroke-linecap="round" fill="transparent" stroke-linejoin="round" points="143.1270751953125 116.8626708984375 148.053955078125 114.39923095703124 159.5499267578125 110.29351806640624 170.6353759765625 107.00895690917967 183.363037109375 103.31382751464844 183.363037109375 103.31382751464844 " />
        <polyline stroke="black" stroke-width="3" stroke-linecap="round" fill="transparent" stroke-linejoin="round" points="159.96051025390625 110.7041015625 152.57025146484375 125.89520263671876 146.41162109375 139.0334930419922 140.25311279296875 150.52947998046875 138.20025634765625 153.81405639648438 138.20025634765625 153.81405639648438 " />
        <polyline stroke="black" stroke-width="3" stroke-linecap="round" fill="transparent" stroke-linejoin="round" points="171.0458984375 127.53750610351563 176.7939453125 127.53750610351563 188.2899169921875 128.358642578125 199.785888671875 131.64321899414063 199.785888671875 131.64321899414063 " />
        <polyline stroke="black" stroke-width="3" stroke-linecap="round" fill="transparent" stroke-linejoin="round" points="100.83831787109376 181.73287963867188 120.95623779296876 177.2165985107422 131.631103515625 174.75315856933594 151.3385009765625 170.64744567871094 168.58251953125 166.9523162841797 183.77362060546875 163.25717163085938 189.5216064453125 161.61489868164063 189.5216064453125 161.61489868164063 " />
        <polyline stroke="black" stroke-width="3" stroke-linecap="round" fill="transparent" stroke-linejoin="round" points="137.37908935546875 157.09861755371094 129.57821655273438 170.64744567871094 116.02938842773438 194.04998779296875 105.35458374023438 212.1151123046875 97.5537109375 223.2005615234375 93.85858154296876 228.12738037109375 93.85858154296876 228.12738037109375 " />
        <polyline stroke="black" stroke-width="3" stroke-linecap="round" fill="transparent" stroke-linejoin="round" points="152.57025146484375 183.37515258789065 160.37109375 185.83859252929688 168.58251953125 189.1231689453125 192.3956298828125 202.26141357421875 212.10302734375 217.4525451660156 212.10302734375 217.4525451660156 " />
        </svg>