<?xml version="1.0" standalone="no"?>
    <svg width="256" height="256" xmlns="http://www.w3.org/2000/svg" version="1.1">
    <polyline stroke="black" stroke-width="3" stroke-linecap="round" fill="transparent" stroke-linejoin="round" points="132.61492919921875 35.365936279296875 131.9329833984375 40.13945770263672 130.56915283203125 45.253936767578125 128.182373046875 50.36842346191406 125.11370849609376 55.82386779785156 125.11370849609376 55.82386779785156 " />
        <polyline stroke="black" stroke-width="3" stroke-linecap="round" fill="transparent" stroke-linejoin="round" points="83.1749267578125 82.41917419433594 100.90512084960938 75.599853515625 112.156982421875 71.50827026367188 135.34262084960938 64.34799194335938 156.823486328125 59.2335205078125 173.1898193359375 55.82386779785156 183.07781982421875 54.80096435546875 183.07781982421875 54.80096435546875 " />
        <polyline stroke="black" stroke-width="3" stroke-linecap="round" fill="transparent" stroke-linejoin="round" points="83.51593017578125 126.40371704101563 87.26654052734375 124.69888305664063 91.01718139648438 122.99404907226563 107.72445678710938 112.4241180419922 107.72445678710938 112.4241180419922 " />
        <polyline stroke="black" stroke-width="3" stroke-linecap="round" fill="transparent" stroke-linejoin="round" points="98.85934448242188 92.30715942382813 96.13165283203124 99.80841064453124 90.67620849609376 115.4927978515625 85.90267944335938 128.7904510498047 81.81109619140625 140.38328552246094 80.10626220703125 145.49777221679688 80.10626220703125 145.49777221679688 " />
        <polyline stroke="black" stroke-width="3" stroke-linecap="round" fill="transparent" stroke-linejoin="round" points="100.90512084960938 130.4952850341797 100.90512084960938 130.4952850341797 " />
        <polyline stroke="black" stroke-width="3" stroke-linecap="round" fill="transparent" stroke-linejoin="round" points="136.70651245117188 105.26383972167967 142.16195678710938 103.2180633544922 158.8692626953125 97.42164611816406 164.66571044921875 95.03488159179688 170.12109375 91.96620178222656 170.12109375 91.96620178222656 " />
        <polyline stroke="black" stroke-width="3" stroke-linecap="round" fill="transparent" stroke-linejoin="round" points="166.71142578125 63.66607666015625 157.84637451171875 80.37338256835938 153.75482177734375 89.57945251464844 146.594482421875 106.62771606445313 141.13909912109375 120.9482421875 139.09326171875 126.40371704101563 136.70651245117188 134.24591064453125 136.70651245117188 134.24591064453125 " />
        <polyline stroke="black" stroke-width="3" stroke-linecap="round" fill="transparent" stroke-linejoin="round" points="158.1873779296875 119.24343872070313 167.05242919921875 117.53860473632813 171.4849853515625 117.53860473632813 179.66815185546875 118.22052001953124 183.4188232421875 119.24343872070313 183.4188232421875 119.24343872070313 " />
        <polyline stroke="black" stroke-width="3" stroke-linecap="round" fill="transparent" stroke-linejoin="round" points="89.65328979492188 182.6629943847656 104.99676513671876 179.93527221679688 114.54379272460938 178.5714111328125 144.5487060546875 173.11595153808594 154.09576416015625 170.72921752929688 168.75726318359375 164.59182739257813 168.75726318359375 164.59182739257813 " />
        <polyline stroke="black" stroke-width="3" stroke-linecap="round" fill="transparent" stroke-linejoin="round" points="131.9329833984375 140.04232788085938 128.52337646484375 145.83872985839844 125.45468139648438 152.3170623779297 122.38595581054688 159.4773406982422 114.54379272460938 179.93527221679688 109.77023315429688 192.2100524902344 107.72445678710938 196.642578125 107.72445678710938 196.642578125 " />
        <polyline stroke="black" stroke-width="3" stroke-linecap="round" fill="transparent" stroke-linejoin="round" points="124.09078979492188 186.0726318359375 130.56915283203125 187.7774658203125 146.594482421875 192.8919677734375 154.7777099609375 196.3016357421875 172.16693115234375 203.12091064453125 181.7139892578125 206.87152099609375 181.7139892578125 206.87152099609375 " />
        </svg>