<?xml version="1.0" standalone="no"?>
    <svg width="256" height="256" xmlns="http://www.w3.org/2000/svg" version="1.1">
    <polyline stroke="black" stroke-width="3" stroke-linecap="round" fill="transparent" stroke-linejoin="round" points="62.6551513671875 78.67955017089844 71.687744140625 96.3341064453125 76.61459350585938 107.41952514648438 82.362548828125 116.8626708984375 87.2894287109375 122.2000732421875 94.6796875 126.71636962890624 100.427734375 127.12693786621094 100.427734375 127.12693786621094 " />
        <polyline stroke="black" stroke-width="3" stroke-linecap="round" fill="transparent" stroke-linejoin="round" points="175.9727783203125 75.39498901367188 161.602783203125 93.46011352539063 143.1270751953125 111.52523803710938 130.39938354492188 122.6106414794922 120.13510131835938 131.64321899414063 120.13510131835938 131.64321899414063 " />
        <polyline stroke="black" stroke-width="3" stroke-linecap="round" fill="transparent" stroke-linejoin="round" points="52.801483154296875 164.4888916015625 61.83404541015625 159.56204223632813 70.86663818359375 155.45632934570313 92.62689208984376 146.42376708984375 128.757080078125 136.9806365966797 152.15966796875 132.87493896484375 171.45648193359375 130.4114990234375 184.5947265625 128.358642578125 189.11102294921875 127.12693786621094 189.11102294921875 127.12693786621094 " />
        <polyline stroke="black" stroke-width="3" stroke-linecap="round" fill="transparent" stroke-linejoin="round" points="130.39938354492188 42.13873291015625 123.00912475585938 66.3624267578125 120.95623779296876 90.9967041015625 120.545654296875 118.50494384765624 122.18798828125 148.47662353515625 123.419677734375 180.50115966796875 123.00912475585938 210.47283935546875 123.00912475585938 225.25341796875 123.00912475585938 225.25341796875 " />
        </svg>