<?xml version="1.0" standalone="no"?>
    <svg width="256" height="256" xmlns="http://www.w3.org/2000/svg" version="1.1">
    <polyline stroke="black" stroke-width="3" stroke-linecap="round" fill="transparent" stroke-linejoin="round" points="76.22445678710938 54.436668395996094 79.76116943359375 64.60466003417969 81.52947998046875 68.141357421875 83.29782104492188 72.1201171875 88.1607666015625 80.51976013183594 95.234130859375 88.03523254394531 102.30755615234376 91.57192993164063 111.14926147460938 93.7823486328125 111.14926147460938 93.7823486328125 " />
        <polyline stroke="black" stroke-width="3" stroke-linecap="round" fill="transparent" stroke-linejoin="round" points="188.072265625 68.141357421875 172.5992431640625 85.82479858398438 150.49496459960938 105.71867370605467 120.43307495117188 127.822998046875 93.90789794921876 145.06436157226563 79.31906127929688 153.02191162109375 72.24566650390625 156.55859375 70.03524780273438 157.00070190429688 70.477294921875 156.55859375 72.687744140625 156.11651611328125 93.4658203125 151.2535858154297 114.24386596679688 148.15896606445313 135.90609741210938 145.94854736328125 156.68414306640625 143.2960205078125 173.4833984375 138.43307495117188 181.44097900390625 133.5701141357422 181.44097900390625 133.5701141357422 " />
        <polyline stroke="black" stroke-width="3" stroke-linecap="round" fill="transparent" stroke-linejoin="round" points="144.747802734375 45.152862548828125 139.44281005859375 55.76293182373047 137.23236083984375 63.720489501953125 135.4639892578125 73.44638061523438 135.02191162109375 96.876953125 136.34814453125 109.25537109375 138.11654663085938 120.74961853027344 141.6531982421875 142.8539276123047 144.747802734375 164.95823669433594 144.30575561523438 196.34637451171875 144.30575561523438 196.34637451171875 " />
        </svg>