<?xml version="1.0" standalone="no"?>
    <svg width="256" height="256" xmlns="http://www.w3.org/2000/svg" version="1.1">
    <polyline stroke="black" stroke-width="3" stroke-linecap="round" fill="transparent" stroke-linejoin="round" points="77.14999389648438 68.39485168457031 80.41342163085938 72.8399658203125 83.67684936523438 77.28507995605469 92.42147827148438 86.52914428710938 96.3533935546875 90.57600402832033 102.15060424804688 95.32550048828124 102.63546752929688 95.72274780273438 " />
        <polyline stroke="black" stroke-width="3" stroke-linecap="round" fill="transparent" stroke-linejoin="round" points="191.54266357421875 39.75274658203125 178.1083984375 62.933135986328125 164.67413330078125 86.113525390625 154.6414794921875 98.43768310546876 147.42379760742188 109.87295532226563 147.08798217773438 110.7691650390625 " />
        <polyline stroke="black" stroke-width="3" stroke-linecap="round" fill="transparent" stroke-linejoin="round" points="63.8992919921875 140.05113220214844 72.27777099609375 137.54551696777344 80.65625 135.03990173339844 91.20565795898438 131.86651611328125 116.4010009765625 123.64779663085938 126.7620849609375 120.20352172851563 148.86785888671875 116.20465087890624 158.3768310546875 115.48771667480467 175.248046875 116.07769775390624 180.2279052734375 116.843994140625 188.7728271484375 116.48692321777344 191.39892578125 116.00396728515624 192.577392578125 114.18084716796876 192.38885498046875 113.38973999023438 192.32928466796875 113.1396942138672 " />
        <polyline stroke="black" stroke-width="3" stroke-linecap="round" fill="transparent" stroke-linejoin="round" points="121.99359130859376 14.020088195800781 123.35028076171876 30.14288330078125 124.70697021484376 46.26567840576172 126.46762084960938 65.68203735351563 129.56463623046875 109.55778503417967 130.34466552734375 130.12448120117188 131.19882202148438 174.7686004638672 131.07870483398438 193.1739196777344 128.93551635742188 213.50970458984375 126.15399169921876 228.9437255859375 123.926025390625 233.61868286132813 123.83673095703124 229.6656494140625 " />
        </svg>