<?xml version="1.0" standalone="no"?>
    <svg width="256" height="256" xmlns="http://www.w3.org/2000/svg" version="1.1">
    <polyline stroke="black" stroke-width="3" stroke-linecap="round" fill="transparent" stroke-linejoin="round" points="81.19644165039063 74.97705078125 85.2293701171875 79.45806884765625 89.26229858398438 83.9390869140625 96.431884765625 91.10870361328124 106.73822021484376 96.93400573730467 114.80404663085938 97.38211059570313 114.80404663085938 97.38211059570313 " />
        <polyline stroke="black" stroke-width="3" stroke-linecap="round" fill="transparent" stroke-linejoin="round" points="167.679931640625 75.42515563964844 151.99639892578125 88.42008972167969 136.3128662109375 101.41502380371094 93.74325561523438 132.78208923339844 83.88510131835938 138.60739135742188 72.68255615234375 145.77700805664063 66.85723876953125 148.91372680664063 65.96102905273438 149.80990600585938 68.20150756835938 149.80990600585938 82.540771484375 146.67320251464844 105.84197998046876 139.05548095703125 130.487548828125 130.54156494140625 155.5811767578125 121.57955932617188 177.09002685546875 110.37704467773438 177.09002685546875 110.37704467773438 " />
        <polyline stroke="black" stroke-width="3" stroke-linecap="round" fill="transparent" stroke-linejoin="round" points="141.24197387695313 46.29859924316406 140.34576416015625 70.94415283203125 139.44955444335938 95.58970642089844 139.44955444335938 120.23526000976563 139.44955444335938 143.98458862304688 139.44955444335938 155.63522338867188 137.20907592773438 182.9693603515625 133.624267578125 217.92123413085935 133.624267578125 217.92123413085935 " />
        </svg>