<?xml version="1.0" standalone="no"?>
    <svg width="256" height="256" xmlns="http://www.w3.org/2000/svg" version="1.1">
    <polyline stroke="black" stroke-width="3" stroke-linecap="round" fill="transparent" stroke-linejoin="round" points="58.341400146484375 84.32579040527344 59.724822998046875 100.00448608398438 59.724822998046875 105.53814697265624 59.263671875 110.61065673828124 58.80255126953125 114.29977416992188 57.41912841796875 121.21682739257813 56.9580078125 121.21682739257813 58.341400146484375 118.4499969482422 66.18075561523438 105.999267578125 78.6314697265625 90.32058715820313 92.00448608398438 77.86985778808594 105.838623046875 70.030517578125 115.983642578125 67.26368713378906 122.43963623046876 67.26368713378906 125.2064208984375 69.56936645507813 122.43963623046876 78.79212951660156 115.06137084960938 89.3983154296875 96.15472412109376 105.999267578125 73.09783935546875 120.2945556640625 65.7196044921875 123.06138610839844 64.336181640625 123.06138610839844 65.7196044921875 121.67796325683594 69.869873046875 119.37229919433594 91.08221435546876 108.76609802246094 107.68319702148438 98.62106323242188 107.68319702148438 98.62106323242188 " />
        <polyline stroke="black" stroke-width="3" stroke-linecap="round" fill="transparent" stroke-linejoin="round" points="92.00448608398438 40.517669677734375 84.62628173828125 76.94758605957031 80.47604370117188 102.31016540527344 76.32577514648438 123.98367309570313 71.25326538085938 144.73486328125 67.10302734375 161.79698181152344 59.263671875 186.2373046875 54.191162109375 196.38232421875 52.34661865234375 197.7657470703125 52.34661865234375 197.7657470703125 " />
        <polyline stroke="black" stroke-width="3" stroke-linecap="round" fill="transparent" stroke-linejoin="round" points="88.77655029296875 135.51211547851563 97.999267578125 153.03533935546875 101.68841552734376 159.49130249023438 105.37750244140624 165.0249481201172 112.75570678710938 172.86428833007813 112.75570678710938 172.86428833007813 " />
        <polyline stroke="black" stroke-width="3" stroke-linecap="round" fill="transparent" stroke-linejoin="round" points="144.57421875 54.812957763671875 150.56903076171875 64.95799255371094 153.7969970703125 69.10824584960938 157.02496337890625 72.79733276367188 163.48089599609375 78.79212951660156 167.1700439453125 81.09782409667969 171.7813720703125 82.02009582519531 180.08184814453125 80.63668823242188 180.08184814453125 80.63668823242188 " />
        <polyline stroke="black" stroke-width="3" stroke-linecap="round" fill="transparent" stroke-linejoin="round" points="213.74493408203125 37.289703369140625 197.14398193359375 66.80255126953125 186.9989013671875 84.32579040527344 175.470458984375 104.15472412109376 162.55859375 123.98367309570313 138.57943725585938 160.41355895996094 124.74530029296876 178.39794921875 118.28939819335938 184.8538818359375 118.28939819335938 184.8538818359375 " />
        <polyline stroke="black" stroke-width="3" stroke-linecap="round" fill="transparent" stroke-linejoin="round" points="127.05096435546876 109.68840026855467 144.11309814453125 123.06138610839844 151.952392578125 129.97845458984375 161.1751708984375 137.8177947998047 169.93682861328125 146.1182861328125 188.843505859375 165.94720458984375 209.59466552734375 198.22686767578125 209.59466552734375 198.22686767578125 " />
        </svg>