<?xml version="1.0" standalone="no"?>
    <svg width="256" height="256" xmlns="http://www.w3.org/2000/svg" version="1.1">
    <polyline stroke="black" stroke-width="3" stroke-linecap="round" fill="transparent" stroke-linejoin="round" points="59.05743408203125 82.42495727539061 58.723876953125 89.42912292480469 58.39031982421875 96.43328857421876 58.05682373046875 103.1038818359375 58.05682373046875 109.44097900390624 58.05682373046875 118.77987670898438 58.05682373046875 124.78343200683594 58.05682373046875 127.7852020263672 58.05682373046875 127.7852020263672 " />
        <polyline stroke="black" stroke-width="3" stroke-linecap="round" fill="transparent" stroke-linejoin="round" points="84.73931884765626 76.42138671875 89.40875244140625 74.75373840332031 94.07818603515624 73.08609008789063 102.75 71.41844177246094 109.754150390625 71.41844177246094 112.0888671875 72.08549499511719 117.091796875 75.42080688476563 118.75949096679688 80.75730895996094 115.42416381835938 93.7650146484375 111.0882568359375 100.7691650390625 92.74407958984376 119.11338806152344 92.74407958984376 119.11338806152344 " />
        <polyline stroke="black" stroke-width="3" stroke-linecap="round" fill="transparent" stroke-linejoin="round" points="47.717376708984375 140.79293823242188 60.725067138671875 134.12229919433594 73.73275756835938 127.45166015625 79.736328125 124.11636352539063 86.40695190429688 120.447509765625 101.08233642578124 109.44097900390624 101.08233642578124 109.44097900390624 " />
        <polyline stroke="black" stroke-width="3" stroke-linecap="round" fill="transparent" stroke-linejoin="round" points="97.08001708984378 39.73295593261719 92.74407958984376 52.74067687988281 88.40814208984375 65.74839782714844 83.07162475585938 83.75909423828125 77.73516845703125 101.10270690917967 72.39865112304688 117.11221313476563 61.72564697265625 149.7982635498047 52.38677978515625 177.48135375976563 46.38323974609375 197.8267822265625 43.04791259765625 211.16802978515625 43.04791259765625 211.16802978515625 " />
        <polyline stroke="black" stroke-width="3" stroke-linecap="round" fill="transparent" stroke-linejoin="round" points="91.40994262695313 153.8006134033203 94.7452392578125 155.80181884765625 98.08053588867188 157.8030242919922 101.08233642578124 159.80419921875 107.41943359375 162.80599975585938 112.75595092773438 162.4724578857422 112.75595092773438 162.4724578857422 " />
        <polyline stroke="black" stroke-width="3" stroke-linecap="round" fill="transparent" stroke-linejoin="round" points="152.7796630859375 68.41665649414063 154.44732666015625 72.7525634765625 156.114990234375 77.08847045898438 158.783203125 83.42556762695313 159.7838134765625 86.09381103515625 162.1185302734375 88.76205444335938 164.4532470703125 89.76264953613281 164.4532470703125 89.76264953613281 " />
        <polyline stroke="black" stroke-width="3" stroke-linecap="round" fill="transparent" stroke-linejoin="round" points="201.4752197265625 42.73475646972656 197.806396484375 56.40953063964844 194.1375732421875 70.08430480957031 178.46160888671875 107.43980407714844 158.783203125 141.79351806640625 138.77133178710938 170.14366149902344 124.7630615234375 187.82086181640625 116.75830078125 195.8255920410156 116.75830078125 195.8255920410156 " />
        <polyline stroke="black" stroke-width="3" stroke-linecap="round" fill="transparent" stroke-linejoin="round" points="130.0994873046875 104.77154541015624 136.43661499023438 109.44097900390624 142.77374267578125 114.11041259765624 156.7821044921875 127.45166015625 173.4586181640625 146.46295166015625 190.13519287109375 167.47543334960938 199.1405029296875 178.8154754638672 199.1405029296875 178.8154754638672 " />
        </svg>