<?xml version="1.0" standalone="no"?>
    <svg width="256" height="256" xmlns="http://www.w3.org/2000/svg" version="1.1">
    <polyline stroke="black" stroke-width="3" stroke-linecap="round" fill="transparent" stroke-linejoin="round" points="40 95 40 102 40 109 41 125 45 138 48 148 50 150 50 150 " />
        <polyline stroke="black" stroke-width="3" stroke-linecap="round" fill="transparent" stroke-linejoin="round" points="50 98 67 93 84 88 100 86 108 86 111 90 112 104 109 120 105 128 105 128 " />
        <polyline stroke="black" stroke-width="3" stroke-linecap="round" fill="transparent" stroke-linejoin="round" points="51 141 61 141 71 141 85 138 96 133 96 133 " />
        <polyline stroke="black" stroke-width="3" stroke-linecap="round" fill="transparent" stroke-linejoin="round" points="93 29 93 47 93 65 91 92 84 129 78 169 70 203 60 226 55 239 55 239 " />
        <polyline stroke="black" stroke-width="3" stroke-linecap="round" fill="transparent" stroke-linejoin="round" points="72 174 82 183 92 192 96 198 104 207 104 207 " />
        <polyline stroke="black" stroke-width="3" stroke-linecap="round" fill="transparent" stroke-linejoin="round" points="141 90 146 102 151 114 157 128 161 133 161 133 " />
        <polyline stroke="black" stroke-width="3" stroke-linecap="round" fill="transparent" stroke-linejoin="round" points="198 73 190 95 182 117 174 146 163 175 151 199 139 215 133 220 133 220 " />
        <polyline stroke="black" stroke-width="3" stroke-linecap="round" fill="transparent" stroke-linejoin="round" points="131 141 146 153 161 165 178 182 195 199 202 205 209 209 209 209 " />
        </svg>