<?xml version="1.0" standalone="no"?>
    <svg width="256" height="256" xmlns="http://www.w3.org/2000/svg" version="1.1">
    <polyline stroke="black" stroke-width="3" stroke-linecap="round" fill="transparent" stroke-linejoin="round" points="118.201416015625 76.58395385742188 123.1724853515625 95.6396026611328 124.82952880859376 106.82443237304688 126.48651123046876 118.42350769042967 127.31503295898438 130.85110473632813 127.729248046875 150.7352294921875 126.072265625 165.64834594726563 122.75823974609376 175.17617797851563 118.61572265625 180.1472015380859 115.71591186523438 181.38995361328125 107.84515380859376 181.80422973632813 99.14584350585938 176.8331756591797 99.14584350585938 176.8331756591797 " />
        <polyline stroke="black" stroke-width="3" stroke-linecap="round" fill="transparent" stroke-linejoin="round" points="65.59130859375 101.02488708496094 70.97665405273438 116.35223388671876 72.21942138671875 122.98031616210938 72.63363647460938 130.43685913085938 70.97665405273438 142.86444091796875 69.73388671875 147.83547973632813 68.07684326171875 151.97799682617188 63.934326171875 157.77755737304688 61.0345458984375 160.67730712890625 59.79180908203125 161.50582885742188 59.377532958984375 161.50582885742188 62.277313232421875 160.67730712890625 66.41986083984375 159.0203094482422 80.09017944335938 154.04925537109375 89.2037353515625 149.4924774169922 89.2037353515625 149.4924774169922 " />
        <polyline stroke="black" stroke-width="3" stroke-linecap="round" fill="transparent" stroke-linejoin="round" points="181.16790771484375 89.84005737304688 171.64007568359375 95.6396026611328 166.6690673828125 99.36788940429688 161.2838134765625 103.09616088867188 156.72698974609375 106.82443237304688 152.58447265625 110.55271911621094 144.29940795898438 118.83775329589844 141.81390380859375 122.98031616210938 142.64239501953125 127.95133972167967 148.44189453125 133.33660888671875 161.697998046875 142.86444091796875 171.64007568359375 149.90673828125 171.64007568359375 149.90673828125 " />
        </svg>