<?xml version="1.0" standalone="no"?>
    <svg width="256" height="256" xmlns="http://www.w3.org/2000/svg" version="1.1">
    <polyline stroke="black" stroke-width="3" stroke-linecap="round" fill="transparent" stroke-linejoin="round" points="42.62591552734375 108.81329345703124 50.58343505859375 101.29782104492188 59.4251708984375 94.22444152832033 81.9715576171875 79.63558959960938 103.19171142578124 68.58343505859375 126.18017578125 61.51005554199219 159.336669921875 54.878753662109375 177.462158203125 51.342063903808594 189.3985595703125 47.805381774902344 198.240234375 44.71077728271485 198.240234375 44.71077728271485 " />
        <polyline stroke="black" stroke-width="3" stroke-linecap="round" fill="transparent" stroke-linejoin="round" points="103.6337890625 80.51976013183594 105.84423828125 89.80357360839844 107.17050170898438 93.7823486328125 110.70721435546876 99.52947998046876 115.57012939453124 102.6240692138672 126.18017578125 100.41363525390624 126.18017578125 100.41363525390624 " />
        <polyline stroke="black" stroke-width="3" stroke-linecap="round" fill="transparent" stroke-linejoin="round" points="158.89459228515625 53.55250549316406 150.49496459960938 65.0467529296875 131.04315185546875 89.80357360839844 116.01220703125 108.81329345703124 116.01220703125 108.81329345703124 " />
        <polyline stroke="black" stroke-width="3" stroke-linecap="round" fill="transparent" stroke-linejoin="round" points="94.3499755859375 119.86544799804688 101.42333984375 118.5391845703125 109.38095092773438 117.21292114257813 125.73812866210938 114.56040954589844 134.13775634765625 113.23416137695313 149.61077880859375 111.4658203125 160.6629638671875 111.02371215820313 167.294189453125 111.4658203125 169.06256103515625 111.90788269042967 171.715087890625 113.67623901367188 171.27294921875 117.65501403808594 165.96795654296875 124.28630065917967 151.82122802734375 136.22264099121094 131.92733764648438 149.48521423339844 117.33847045898438 156.55859375 107.17050170898438 160.09530639648438 101.42333984375 161.4215545654297 100.09710693359376 160.97946166992188 100.98129272460938 160.09530639648438 106.7283935546875 157.88485717773438 117.780517578125 154.34817504882813 128.83270263671875 151.69564819335938 137.23236083984375 150.369384765625 142.537353515625 149.48521423339844 143.86361694335938 149.0431365966797 143.86361694335938 149.0431365966797 " />
        <polyline stroke="black" stroke-width="3" stroke-linecap="round" fill="transparent" stroke-linejoin="round" points="95.234130859375 171.58953857421875 90.81332397460938 179.54708862304688 89.92913818359375 183.52586364746097 90.37118530273438 187.06256103515625 94.79208374023438 193.69384765625 119.10678100585938 206.072265625 142.97946166992188 210.49313354492188 162.4312744140625 211.3773193359375 176.13592529296875 210.49313354492188 180.9989013671875 209.60894775390625 188.072265625 206.51434326171875 195.5877685546875 194.13592529296875 197.7982177734375 161.86363220214844 197.7982177734375 161.86363220214844 " />
        </svg>