<?xml version="1.0" standalone="no"?>
    <svg width="256" height="256" xmlns="http://www.w3.org/2000/svg" version="1.1">
    <polyline stroke="black" stroke-width="3" stroke-linecap="round" fill="transparent" stroke-linejoin="round" points="46.269287109375 87.33709716796875 54.49798583984375 84.3448486328125 75.81771850585938 77.6123046875 87.41265869140625 74.99407958984375 113.22079467773438 70.50570678710938 148.753662109375 65.26927185058594 165.2110595703125 62.27703857421875 175.6839599609375 59.6588134765625 181.29437255859375 57.04060363769531 181.29437255859375 57.04060363769531 " />
        <polyline stroke="black" stroke-width="3" stroke-linecap="round" fill="transparent" stroke-linejoin="round" points="91.5269775390625 64.14718627929688 92.64910888671876 70.87973022460938 94.14520263671876 77.23825073242188 98.259521484375 87.33709716796875 100.12973022460938 90.32933044433594 109.1064453125 93.32159423828124 109.1064453125 93.32159423828124 " />
        <polyline stroke="black" stroke-width="3" stroke-linecap="round" fill="transparent" stroke-linejoin="round" points="155.48626708984375 53.30028533935547 152.1199951171875 60.780914306640625 142.39520263671875 79.10841369628906 136.41064453125 88.08514404296875 123.693603515625 104.54251098632813 123.693603515625 104.54251098632813 " />
        <polyline stroke="black" stroke-width="3" stroke-linecap="round" fill="transparent" stroke-linejoin="round" points="89.65682983398438 127.35838317871094 95.26730346679688 123.61807250976563 109.1064453125 117.25955200195313 134.16650390625 110.5269775390625 142.39520263671875 110.15298461914063 145.38742065429688 110.15298461914063 150.24984741210938 110.90103149414063 150.24984741210938 115.01536560058594 148.005615234375 119.87774658203124 139.02890014648438 131.0986785888672 126.68588256835938 141.571533203125 112.09869384765624 149.8002166748047 94.14520263671876 157.28082275390625 90.40487670898438 158.77696228027344 85.16845703125 161.02114868164063 84.79443359375 161.02114868164063 88.90878295898438 161.02114868164063 93.77117919921876 160.2730712890625 113.22079467773438 155.7847137451172 123.693603515625 153.16648864746094 130.05218505859375 152.04440307617188 132.29632568359375 151.67037963867188 132.29632568359375 151.67037963867188 " />
        <polyline stroke="black" stroke-width="3" stroke-linecap="round" fill="transparent" stroke-linejoin="round" points="87.78671264648438 172.6160888671875 86.66461181640625 178.974609375 86.66461181640625 199.5462951660156 90.7789306640625 211.14126586914065 94.51925659179688 214.88156127929688 110.228515625 223.1102294921875 131.92230224609375 225.72845458984375 148.379638671875 224.2323303222656 159.974609375 221.24008178710935 167.82928466796875 217.87380981445313 172.691650390625 214.13348388671875 174.93585205078125 210.3931884765625 174.93585205078125 210.3931884765625 " />
        </svg>