<?xml version="1.0" standalone="no"?>
    <svg width="256" height="256" xmlns="http://www.w3.org/2000/svg" version="1.1">
    <polyline stroke="black" stroke-width="3" stroke-linecap="round" fill="transparent" stroke-linejoin="round" points="66.0511474609375 79.94100952148438 75.32662963867188 76.84918212890625 85.4854736328125 73.75736999511719 96.08602905273438 70.66554260253906 127.88763427734376 64.04020690917969 146.43856811523438 61.39007568359375 160.5726318359375 59.181640625 170.7314453125 56.97319030761719 177.3568115234375 54.32305145263672 179.565185546875 52.556297302246094 179.565185546875 52.556297302246094 " />
        <polyline stroke="black" stroke-width="3" stroke-linecap="round" fill="transparent" stroke-linejoin="round" points="92.11083984375 64.04020690917969 91.66912841796876 68.45709228515625 92.11083984375 84.79959106445313 92.99420166015624 89.65817260742188 96.08602905273438 100.70040893554688 97.41107177734376 102.46714782714844 97.41107177734376 102.46714782714844 " />
        <polyline stroke="black" stroke-width="3" stroke-linecap="round" fill="transparent" stroke-linejoin="round" points="161.897705078125 51.231224060058594 158.3641357421875 57.41487121582031 147.76361083984375 72.87399291992188 122.58734130859376 101.58377075195313 114.19525146484376 109.9758758544922 114.19525146484376 109.9758758544922 " />
        <polyline stroke="black" stroke-width="3" stroke-linecap="round" fill="transparent" stroke-linejoin="round" points="94.76095581054688 115.27615356445313 102.2696533203125 111.74261474609376 109.77838134765624 108.2091064453125 130.09603881835938 100.25871276855467 141.13827514648438 97.60856628417967 150.41375732421875 97.16688537597656 156.597412109375 97.60856628417967 160.5726318359375 98.491943359375 162.781005859375 99.37533569335938 163.6644287109375 101.14207458496094 161.897705078125 106.00067138671876 159.24755859375 110.41754150390624 134.95465087890625 137.80227661132813 134.95465087890625 137.80227661132813 " />
        <polyline stroke="black" stroke-width="3" stroke-linecap="round" fill="transparent" stroke-linejoin="round" points="85.04379272460938 162.97854614257813 100.944580078125 156.79489135742188 115.07861328125 152.81968688964844 125.23748779296876 150.6112518310547 132.74618530273438 148.844482421875 138.04647827148438 147.07774353027344 138.04647827148438 147.07774353027344 " />
        <polyline stroke="black" stroke-width="3" stroke-linecap="round" fill="transparent" stroke-linejoin="round" points="81.06857299804688 173.13739013671875 78.41845703125 178.87933349609375 76.21002197265625 185.06298828125 74.00155639648438 192.1300048828125 70.468017578125 206.2640686035156 69.58468627929688 215.98123168945313 71.79315185546875 222.16485595703125 79.30184936523438 227.0234375 94.76095581054688 230.9986572265625 115.07861328125 231.88201904296875 136.72137451171875 228.3485107421875 154.8306884765625 221.281494140625 168.52301025390625 212.889404296875 177.7984619140625 205.8223876953125 183.0987548828125 200.08041381835935 187.073974609375 194.3384704589844 190.165771484375 186.3880615234375 191.4908447265625 172.25401306152344 191.4908447265625 172.25401306152344 " />
        </svg>