<?xml version="1.0" standalone="no"?>
    <svg width="256" height="256" xmlns="http://www.w3.org/2000/svg" version="1.1">
    <polyline stroke="black" stroke-width="3" stroke-linecap="round" fill="transparent" stroke-linejoin="round" points="99.53201293945313 84.85855102539063 122.15667724609376 79.20237731933594 149.40914916992188 73.03201293945313 164.32086181640625 68.91844177246094 178.2042236328125 63.776458740234375 185.4029541015625 59.148681640625 187.97393798828125 53.49251556396485 187.97393798828125 53.49251556396485 " />
        <polyline stroke="black" stroke-width="3" stroke-linecap="round" fill="transparent" stroke-linejoin="round" points="108.78756713867188 55.03511047363281 102.6171875 72.00361633300781 100.5604248046875 85.88694763183594 101.58880615234376 99.770263671875 105.18817138671876 110.05421447753906 110.33013916015624 115.19618225097656 122.15667724609376 111.5968017578125 122.15667724609376 111.5968017578125 " />
        <polyline stroke="black" stroke-width="3" stroke-linecap="round" fill="transparent" stroke-linejoin="round" points="168.4344482421875 66.86164855957031 157.1220703125 85.88694763183594 140.66778564453125 104.39804077148438 123.18508911132813 118.2813720703125 123.18508911132813 118.2813720703125 " />
        <polyline stroke="black" stroke-width="3" stroke-linecap="round" fill="transparent" stroke-linejoin="round" points="86.67706298828125 131.65049743652344 107.7591552734375 117.76716613769533 130.89804077148438 105.94064331054688 148.3807373046875 99.770263671875 162.2640380859375 97.19927978515624 170.4912109375 98.74188232421876 173.576416015625 103.36964416503906 168.4344482421875 114.68199157714844 153.008544921875 129.0795135498047 122.6708984375 145.01962280273438 106.73077392578124 151.1899871826172 97.4752197265625 153.2467803955078 94.39004516601563 154.27517700195313 96.44683837890624 152.7325897216797 107.24496459960938 148.1048126220703 126.78448486328124 139.87765502929688 140.66778564453125 134.73568725585938 145.80975341796875 133.19308471679688 148.3807373046875 133.19308471679688 145.80975341796875 136.79246520996094 137.06842041015625 143.47703552246094 120.61410522460938 155.81776428222656 105.18817138671876 169.7010955810547 94.90423583984376 181.5276336669922 88.73388671875 193.86837768554688 88.73388671875 199.0103454589844 94.39004516601563 203.63812255859375 124.7276611328125 207.23748779296875 157.63629150390625 197.46774291992188 180.775146484375 189.7547912597656 197.2294921875 182.5560302734375 203.9140625 179.47084045410156 208.02764892578125 174.32887268066406 205.9708251953125 159.41714477539063 205.9708251953125 159.41714477539063 " />
        </svg>