<?xml version="1.0" standalone="no"?>
    <svg width="256" height="256" xmlns="http://www.w3.org/2000/svg" version="1.1">
    <polyline stroke="black" stroke-width="3" stroke-linecap="round" fill="transparent" stroke-linejoin="round" points="90 64 89 66 87 70 85 75 83 80 81 86 80 91 79 95 78 98 77 101 77 103 77 104 77 104 " />
        <polyline stroke="black" stroke-width="3" stroke-linecap="round" fill="transparent" stroke-linejoin="round" points="82 98 82 98 85 95 88 92 92 88 97 85 103 81 109 77 116 73 123 68 131 64 141 59 148 56 154 55 159 55 164 57 167 61 170 67 171 75 172 85 171 100 171 110 170 117 169 123 167 128 165 131 161 134 157 135 152 134 147 132 145 130 " />
        <polyline stroke="black" stroke-width="3" stroke-linecap="round" fill="transparent" stroke-linejoin="round" points="120 74 120 74 120 73 120 74 118 77 117 80 115 85 114 90 113 94 112 99 111 103 110 107 109 109 109 112 108 113 108 113 109 113 109 113 " />
        <polyline stroke="black" stroke-width="3" stroke-linecap="round" fill="transparent" stroke-linejoin="round" points="130 83 130 83 133 81 136 80 138 81 138 85 138 90 136 98 134 107 129 116 124 126 122 131 119 136 " />
        <polyline stroke="black" stroke-width="3" stroke-linecap="round" fill="transparent" stroke-linejoin="round" points="101 148 101 146 101 145 101 144 100 145 98 149 96 154 93 160 90 167 87 175 83 182 80 189 77 195 74 200 72 204 72 205 " />
        <polyline stroke="black" stroke-width="3" stroke-linecap="round" fill="transparent" stroke-linejoin="round" points="78 197 78 197 82 194 85 193 88 192 92 192 95 192 98 193 102 196 105 198 108 201 111 204 117 208 120 210 122 211 " />
        <polyline stroke="black" stroke-width="3" stroke-linecap="round" fill="transparent" stroke-linejoin="round" points="153 138 152 137 151 139 147 143 143 149 139 157 135 165 132 174 128 182 124 193 121 198 119 202 118 204 117 205 " />
        <polyline stroke="black" stroke-width="3" stroke-linecap="round" fill="transparent" stroke-linejoin="round" points="129 189 131 188 136 186 141 185 146 185 151 186 157 187 162 190 167 194 170 196 173 199 " />
        </svg>