<?xml version="1.0" standalone="no"?>
    <svg width="256" height="256" xmlns="http://www.w3.org/2000/svg" version="1.1">
    <polyline stroke="black" stroke-width="3" stroke-linecap="round" fill="transparent" stroke-linejoin="round" points="96.48370361328124 58.701141357421875 86.70156860351563 76.528564453125 73.77496337890625 98.89990234375 62.2457275390625 120.2225341796875 62.2457275390625 120.2225341796875 " />
        <polyline stroke="black" stroke-width="3" stroke-linecap="round" fill="transparent" stroke-linejoin="round" points="73.77496337890625 85.96646118164063 94.38760375976563 84.91773986816406 115.34957885742188 85.26707458496094 126.18014526367188 85.96646118164063 135.96224975585938 87.01484680175781 145.39541625976563 88.06358337402344 153.7801513671875 88.76261901855469 160.4180908203125 89.81137084960938 166.00799560546875 91.20977783203124 170.2001953125 92.6078643798828 172.99530029296875 94.35563659667967 174.3927001953125 96.10340881347656 175.0914306640625 98.20053100585938 175.0914306640625 100.99703979492188 174.74212646484375 103.79353332519533 173.69403076171875 106.59002685546876 171.597900390625 113.9304656982422 169.85089111328125 117.77572631835938 168.1041259765625 121.97029113769533 166.00799560546875 126.16488647460938 163.91162109375 130.70916748046875 162.16485595703125 134.55406188964844 160.06878662109375 138.3992919921875 158.32196044921875 142.59385681152344 156.92425537109375 147.13815307617188 156.22552490234375 150.2840118408203 156.22552490234375 150.2840118408203 " />
        <polyline stroke="black" stroke-width="3" stroke-linecap="round" fill="transparent" stroke-linejoin="round" points="131.77005004882813 94.35563659667967 116.04827880859376 110.0855712890625 103.82037353515624 127.56295776367188 94.38760375976563 143.99195861816406 94.38760375976563 143.99195861816406 " />
        <polyline stroke="black" stroke-width="3" stroke-linecap="round" fill="transparent" stroke-linejoin="round" points="147.491455078125 96.8024444580078 136.31161499023438 112.18270874023438 123.03564453125 134.20469665527344 115.698974609375 147.4875030517578 115.698974609375 147.4875030517578 " />
        <polyline stroke="black" stroke-width="3" stroke-linecap="round" fill="transparent" stroke-linejoin="round" points="107.66354370117188 163.2174530029297 94.7369384765625 182.44297790527344 82.8583984375 199.2213134765625 77.9671630859375 207.6104736328125 73.77496337890625 214.95123291015625 71.32916259765625 219.84487915039065 71.32916259765625 219.84487915039065 " />
        <polyline stroke="black" stroke-width="3" stroke-linecap="round" fill="transparent" stroke-linejoin="round" points="92.99020385742188 192.23019409179688 104.16970825195313 209.35824584960935 111.50643920898438 221.5926513671875 115.698974609375 229.28277587890625 120.24081420898438 236.972900390625 120.24081420898438 236.972900390625 " />
        <polyline stroke="black" stroke-width="3" stroke-linecap="round" fill="transparent" stroke-linejoin="round" points="169.50146484375 164.96522521972656 160.4180908203125 180.69515991210935 152.0333251953125 193.2789306640625 147.491455078125 199.92034912109375 138.05868530273438 213.5528259277344 134.21551513671875 218.44680786132813 131.42071533203125 221.5926513671875 129.32427978515625 223.3404235839844 127.9268798828125 224.73849487304688 127.22817993164063 224.73849487304688 127.5775146484375 223.3404235839844 128.62557983398438 220.89361572265625 130.372314453125 217.04837036132813 132.818115234375 213.2034912109375 135.96224975585938 209.0088806152344 139.10675048828125 204.464599609375 141.55218505859375 200.96905517578125 143.99761962890625 198.52224731445313 145.74472045898438 197.4735107421875 147.14212036132813 197.12384033203125 148.88885498046875 197.12384033203125 150.63565063476563 197.4735107421875 152.0333251953125 198.52224731445313 153.7801513671875 199.92034912109375 155.876220703125 201.66812133789065 158.32196044921875 204.11492919921875 160.7674560546875 206.91140747070313 163.91162109375 211.10598754882813 168.1041259765625 216.349365234375 174.04339599609375 224.38916015625 180.681396484375 235.22512817382813 180.681396484375 235.22512817382813 " />
        </svg>