<?xml version="1.0" standalone="no"?>
    <svg width="256" height="256" xmlns="http://www.w3.org/2000/svg" version="1.1">
    <polyline stroke="black" stroke-width="3" stroke-linecap="round" fill="transparent" stroke-linejoin="round" points="105 90 105 90 107 88 111 86 114 84 118 83 123 82 127 81 132 80 137 79 141 79 148 78 152 78 154 78 157 78 159 78 160 78 " />
        <polyline stroke="black" stroke-width="3" stroke-linecap="round" fill="transparent" stroke-linejoin="round" points="129 95 127 98 123 107 118 117 113 127 109 139 104 151 100 163 97 174 93 184 90 195 88 201 86 205 85 208 85 210 84 211 84 211 85 210 86 208 90 202 94 198 99 192 104 187 111 182 118 177 125 172 131 168 138 165 144 162 146 161 " />
        <polyline stroke="black" stroke-width="3" stroke-linecap="round" fill="transparent" stroke-linejoin="round" points="116 144 116 143 116 142 117 140 119 137 124 134 127 132 130 130 134 128 138 126 141 125 145 125 147 126 149 128 150 137 150 146 148 157 146 169 144 181 143 192 142 202 142 210 144 216 147 223 151 226 155 228 160 228 165 227 172 225 178 222 185 218 191 213 194 211 197 209 " />
        </svg>