<?xml version="1.0" standalone="no"?>
    <svg width="256" height="256" xmlns="http://www.w3.org/2000/svg" version="1.1">
    <polyline stroke="black" stroke-width="3" stroke-linecap="round" fill="transparent" stroke-linejoin="round" points="88 95 89 96 90 97 91 99 92 101 93 103 95 107 97 116 98 119 99 122 99 125 100 131 100 135 100 138 100 140 100 141 100 140 100 140 " />
        <polyline stroke="black" stroke-width="3" stroke-linecap="round" fill="transparent" stroke-linejoin="round" points="95 96 96 96 97 96 98 96 100 95 104 94 109 92 112 91 115 90 123 87 131 84 140 82 147 80 154 78 157 78 159 77 163 77 165 77 166 77 168 77 170 78 171 79 171 80 171 81 170 82 169 84 169 85 169 87 168 89 167 94 167 99 167 101 167 106 167 108 167 114 166 117 166 119 166 123 166 127 166 129 166 131 167 131 167 131 " />
        <polyline stroke="black" stroke-width="3" stroke-linecap="round" fill="transparent" stroke-linejoin="round" points="108 117 108 116 108 115 108 114 108 113 109 112 110 111 112 111 117 109 119 108 125 108 130 107 136 107 142 107 148 107 150 107 152 107 154 108 155 110 155 112 154 113 154 113 " />
        <polyline stroke="black" stroke-width="3" stroke-linecap="round" fill="transparent" stroke-linejoin="round" points="107 144 107 143 107 142 108 142 109 141 111 140 115 139 119 138 125 137 130 137 136 136 138 136 141 136 143 135 145 135 147 135 148 135 151 135 152 135 153 135 153 135 " />
        <polyline stroke="black" stroke-width="3" stroke-linecap="round" fill="transparent" stroke-linejoin="round" points="57 191 56 191 55 191 55 190 56 189 58 186 62 183 67 180 70 178 86 171 92 169 103 165 115 162 127 158 133 156 150 152 159 150 168 150 174 151 179 154 180 155 180 156 181 158 181 160 181 161 180 162 178 165 175 167 171 169 169 171 164 174 154 180 149 183 147 185 143 187 138 190 135 192 133 193 133 193 " />
        <polyline stroke="black" stroke-width="3" stroke-linecap="round" fill="transparent" stroke-linejoin="round" points="114 190 115 191 116 192 119 194 122 197 126 200 129 204 132 208 135 213 137 218 139 222 140 224 140 225 142 227 142 228 143 229 143 229 " />
        </svg>