<?xml version="1.0" standalone="no"?>
    <svg width="256" height="256" xmlns="http://www.w3.org/2000/svg" version="1.1">
    <polyline stroke="black" stroke-width="3" stroke-linecap="round" fill="transparent" stroke-linejoin="round" points="85.59356689453125 60.42787170410156 87.61129760742188 68.16258239746094 89.6290283203125 75.89729309082031 91.31048583984376 83.63200378417969 92.991943359375 92.37557983398438 93.66455078125 106.49981689453124 93.66455078125 113.22564697265624 93.66455078125 113.22564697265624 " />
        <polyline stroke="black" stroke-width="3" stroke-linecap="round" fill="transparent" stroke-linejoin="round" points="99.045166015625 74.888427734375 102.744384765625 70.51663208007813 106.443603515625 66.14483642578125 111.82431030273438 61.1004638671875 126.28485107421876 50.6754150390625 142.42681884765625 42.94071960449219 156.551025390625 39.57780456542969 167.648681640625 40.25038146972656 174.7108154296875 42.94071960449219 179.75518798828125 48.321380615234375 183.11810302734375 62.109344482421875 177.401123046875 82.95941162109375 170.002685546875 94.05703735351563 161.9317626953125 103.4731903076172 161.9317626953125 103.4731903076172 " />
        <polyline stroke="black" stroke-width="3" stroke-linecap="round" fill="transparent" stroke-linejoin="round" points="107.45248413085938 81.6142578125 114.17831420898438 78.92391967773438 120.90414428710938 76.23358154296875 127.62997436523438 73.87954711914063 142.09051513671875 70.18032836914063 154.197021484375 67.49002075195313 163.949462890625 67.15371704101563 166.30352783203125 68.16258239746094 166.30352783203125 68.16258239746094 " />
        <polyline stroke="black" stroke-width="3" stroke-linecap="round" fill="transparent" stroke-linejoin="round" points="111.48800659179688 137.10235595703125 121.57675170898438 130.37652587890625 131.66549682617188 123.65069580078124 138.05502319335938 118.94261169433594 145.45346069335938 112.88937377929688 145.45346069335938 112.88937377929688 " />
        <polyline stroke="black" stroke-width="3" stroke-linecap="round" fill="transparent" stroke-linejoin="round" points="73.8233642578125 157.61614990234375 81.89434814453125 155.598388671875 89.96533203125 153.58062744140625 119.895263671875 144.50076293945313 130.3203125 141.8104248046875 140.745361328125 139.45639038085938 158.9051513671875 136.09347534179688 173.701904296875 135.4208984375 183.454345703125 136.09347534179688 188.8350830078125 137.77493286132813 190.852783203125 139.12010192871094 191.525390625 144.83706665039063 185.47216796875 159.29759216308594 171.347900390625 178.46621704101563 153.18817138671875 198.30743408203125 153.18817138671875 198.30743408203125 " />
        <polyline stroke="black" stroke-width="3" stroke-linecap="round" fill="transparent" stroke-linejoin="round" points="118.21380615234375 192.254150390625 123.93075561523438 192.5904541015625 129.647705078125 192.9267578125 136.03729248046875 193.59933471679688 152.51556396484375 196.9622802734375 161.9317626953125 199.9888916015625 181.100341796875 210.41390991210935 188.1624755859375 216.4671630859375 195.224609375 226.2196350097656 195.224609375 226.2196350097656 " />
        </svg>