<?xml version="1.0" standalone="no"?>
    <svg width="256" height="256" xmlns="http://www.w3.org/2000/svg" version="1.1">
    <polyline stroke="black" stroke-width="3" stroke-linecap="round" fill="transparent" stroke-linejoin="round" points="37.762939453125 130.03343200683594 55.446380615234375 120.74961853027344 61.635589599609375 118.09710693359376 67.82479858398438 115.444580078125 74.45611572265625 113.23416137695313 86.83453369140625 108.81329345703124 92.13958740234376 107.04495239257813 101.86544799804688 103.066162109375 108.93881225585938 98.20323181152344 111.14926147460938 95.10861206054688 111.14926147460938 95.10861206054688 " />
        <polyline stroke="black" stroke-width="3" stroke-linecap="round" fill="transparent" stroke-linejoin="round" points="81.08740234375 63.720489501953125 72.24566650390625 91.1298370361328 61.635589599609375 127.38092041015624 57.2147216796875 142.8539276123047 46.162567138671875 177.7787322998047 40.8575439453125 192.3675842285156 37.762939453125 199.44097900390625 36.878753662109375 201.20932006835935 36.878753662109375 201.20932006835935 " />
        <polyline stroke="black" stroke-width="3" stroke-linecap="round" fill="transparent" stroke-linejoin="round" points="66.94064331054688 135.78054809570313 77.99276733398438 141.0855712890625 85.066162109375 145.50645446777344 90.81332397460938 149.48521423339844 95.67623901367188 152.579833984375 95.67623901367188 152.579833984375 " />
        <polyline stroke="black" stroke-width="3" stroke-linecap="round" fill="transparent" stroke-linejoin="round" points="128.83270263671875 57.973358154296875 130.60107421875 69.0255126953125 131.48519897460938 75.2147216796875 133.25360107421875 88.47732543945313 134.13775634765625 99.9715576171875 134.13775634765625 108.81329345703124 133.69564819335938 113.67623901367188 133.25360107421875 114.11833190917967 132.369384765625 112.3499755859375 131.92733764648438 107.04495239257813 132.369384765625 99.52947998046876 134.13775634765625 91.57192993164063 138.11654663085938 83.61436462402344 144.30575561523438 76.09890747070313 153.58953857421875 68.58343505859375 164.6417236328125 63.720489501953125 175.25177001953125 61.067962646484375 183.6513671875 61.9521484375 190.28271484375 65.0467529296875 195.1456298828125 69.90969848632813 199.12445068359375 80.51976013183594 199.12445068359375 95.10861206054688 193.3773193359375 111.02371215820313 193.3773193359375 111.02371215820313 " />
        <polyline stroke="black" stroke-width="3" stroke-linecap="round" fill="transparent" stroke-linejoin="round" points="133.25360107421875 128.70718383789063 131.92733764648438 143.73809814453125 131.48519897460938 150.81149291992188 131.04315185546875 158.3269500732422 129.27484130859375 171.58953857421875 127.06439208984376 181.3154296875 127.06439208984376 181.3154296875 " />
        <polyline stroke="black" stroke-width="3" stroke-linecap="round" fill="transparent" stroke-linejoin="round" points="135.02191162109375 154.34817504882813 154.0316162109375 138.87515258789063 161.10498046875 134.8963623046875 167.736328125 131.8017578125 180.11474609375 128.26507568359375 184.9776611328125 127.822998046875 196.471923828125 129.59133911132813 201.3348388671875 133.5701141357422 203.10321044921875 139.31724548339844 200.00860595703125 166.72659301757813 191.1668701171875 183.0837860107422 180.11474609375 193.69384765625 171.715087890625 199.44097900390625 163.3154296875 203.86181640625 163.3154296875 203.86181640625 " />
        <polyline stroke="black" stroke-width="3" stroke-linecap="round" fill="transparent" stroke-linejoin="round" points="105.84423828125 209.60894775390625 128.83270263671875 196.34637451171875 140.76904296875 191.92550659179688 153.1474609375 188.38882446289065 177.0201416015625 183.9679412841797 207.08197021484375 183.0837860107422 220.3446044921875 183.9679412841797 245.54345703125 187.94671630859375 245.54345703125 187.94671630859375 " />
        </svg>