<?xml version="1.0" standalone="no"?>
    <svg width="256" height="256" xmlns="http://www.w3.org/2000/svg" version="1.1">
    <polyline stroke="black" stroke-width="3" stroke-linecap="round" fill="transparent" stroke-linejoin="round" points="49.8668212890625 118.13018798828124 85.0965576171875 101.2493133544922 99.77557373046876 95.37771606445313 108.5830078125 92.44189453125 114.45458984375 90.2400360107422 118.8583984375 88.03819274902344 118.8583984375 88.03819274902344 " />
        <polyline stroke="black" stroke-width="3" stroke-linecap="round" fill="transparent" stroke-linejoin="round" points="78.49102783203125 55.010345458984375 77.75701904296875 88.03819274902344 74.8212890625 115.1943817138672 69.68359375 138.68081665039063 60.87615966796875 166.5709991455078 55.73846435546875 180.51605224609375 52.0687255859375 190.05743408203125 52.0687255859375 190.05743408203125 " />
        <polyline stroke="black" stroke-width="3" stroke-linecap="round" fill="transparent" stroke-linejoin="round" points="79.95892333984375 124.00180053710938 89.50030517578125 137.21292114257813 101.24346923828124 148.22219848632813 111.51885986328124 155.5617218017578 116.65643310546876 157.76358032226563 116.65643310546876 157.76358032226563 " />
        <polyline stroke="black" stroke-width="3" stroke-linecap="round" fill="transparent" stroke-linejoin="round" points="141.61083984375 63.81776428222656 140.8768310546875 79.23077392578125 141.61083984375 84.36843872070313 143.0787353515625 86.57026672363281 145.2806396484375 85.10237121582031 145.2806396484375 85.10237121582031 " />
        <polyline stroke="black" stroke-width="3" stroke-linecap="round" fill="transparent" stroke-linejoin="round" points="156.289794921875 52.80851745605469 173.170654296875 44.73503112792969 181.244140625 42.533180236816406 191.51953125 42.533180236816406 193.7213134765625 42.533180236816406 194.455322265625 44.00108337402344 191.51953125 49.87268829345703 186.3818359375 61.61590576171875 182.712158203125 80.69866943359375 181.9781494140625 87.30422973632813 181.244140625 94.64372253417967 181.244140625 94.64372253417967 " />
        <polyline stroke="black" stroke-width="3" stroke-linecap="round" fill="transparent" stroke-linejoin="round" points="123.9959716796875 118.8641357421875 123.9959716796875 142.3505859375 123.9959716796875 151.1580047607422 124.72991943359376 163.6351776123047 125.4638671875 170.24073791503906 126.9317626953125 173.91049194335938 129.1336669921875 176.84629821777344 132.0694580078125 171.70863342285156 132.0694580078125 171.70863342285156 " />
        <polyline stroke="black" stroke-width="3" stroke-linecap="round" fill="transparent" stroke-linejoin="round" points="132.8033447265625 107.8548583984375 156.289794921875 96.8455810546875 168.7669677734375 93.9097900390625 176.8404541015625 93.1758270263672 181.244140625 93.1758270263672 187.8497314453125 94.64372253417967 190.0516357421875 96.8455810546875 190.7855224609375 101.98324584960938 190.0516357421875 115.1943817138672 187.1158447265625 142.3505859375 187.8497314453125 155.5617218017578 190.0516357421875 165.8370361328125 191.51953125 171.70863342285156 191.51953125 171.70863342285156 " />
        <polyline stroke="black" stroke-width="3" stroke-linecap="round" fill="transparent" stroke-linejoin="round" points="79.22491455078125 194.46115112304688 102.71136474609376 188.58953857421875 119.59222412109376 184.91976928710935 157.7576904296875 179.04815673828125 192.25341796875 175.37840270996094 223.8133544921875 173.17654418945313 248.767822265625 171.70863342285156 266.382568359375 170.9746856689453 277.391845703125 171.70863342285156 278.8597412109375 173.91049194335938 278.8597412109375 176.84629821777344 278.8597412109375 176.84629821777344 " />
        </svg>