<?xml version="1.0" standalone="no"?>
    <svg width="256" height="256" xmlns="http://www.w3.org/2000/svg" version="1.1">
    <polyline stroke="black" stroke-width="3" stroke-linecap="round" fill="transparent" stroke-linejoin="round" points="32 91 30 91 30 91 30 91 31 91 34 90 37 90 39 89 45 88 49 87 53 87 56 86 64 85 68 84 73 83 81 81 85 80 88 79 95 76 101 75 104 74 106 74 " />
        <polyline stroke="black" stroke-width="3" stroke-linecap="round" fill="transparent" stroke-linejoin="round" points="40 135 35 141 35 141 36 141 37 141 38 141 40 141 44 140 46 140 49 139 55 138 59 137 62 136 70 133 77 130 85 126 89 123 93 121 " />
        <polyline stroke="black" stroke-width="3" stroke-linecap="round" fill="transparent" stroke-linejoin="round" points="65 101 63 104 60 112 59 115 58 118 57 126 56 131 56 136 56 146 56 151 57 156 57 161 58 171 58 176 59 180 60 187 60 189 60 192 61 194 61 196 61 198 62 199 65 202 67 201 " />
        <polyline stroke="black" stroke-width="3" stroke-linecap="round" fill="transparent" stroke-linejoin="round" points="124 45 124 44 123 44 123 45 122 47 121 49 118 55 117 59 115 63 112 72 111 77 109 83 105 94 103 99 101 104 99 110 94 119 93 123 91 127 88 133 87 136 86 138 86 140 86 142 " />
        <polyline stroke="black" stroke-width="3" stroke-linecap="round" fill="transparent" stroke-linejoin="round" points="106 100 130 89 133 87 136 85 139 83 143 82 146 80 157 76 161 75 164 74 171 73 174 72 177 72 182 71 185 71 187 70 189 70 193 70 194 71 195 71 " />
        <polyline stroke="black" stroke-width="3" stroke-linecap="round" fill="transparent" stroke-linejoin="round" points="125 105 120 114 118 117 117 119 116 122 115 128 114 130 114 136 114 139 114 142 114 145 114 147 115 150 115 152 116 156 117 157 118 159 118 160 119 161 120 162 122 163 123 164 124 164 127 163 129 163 131 161 135 158 138 156 141 154 144 151 146 148 149 145 152 142 155 139 161 132 164 129 167 126 169 123 " />
        <polyline stroke="black" stroke-width="3" stroke-linecap="round" fill="transparent" stroke-linejoin="round" points="181 118 181 118 181 120 182 123 183 125 183 126 185 130 186 133 187 135 188 138 188 139 189 140 190 143 190 143 190 144 191 144 191 144 " />
        <polyline stroke="black" stroke-width="3" stroke-linecap="round" fill="transparent" stroke-linejoin="round" points="145 94 142 108 142 112 141 122 140 128 140 134 139 148 139 155 138 162 138 169 138 176 138 182 137 188 137 194 137 204 137 208 136 213 135 220 135 222 134 225 134 229 134 230 134 231 " />
        </svg>