<?xml version="1.0" standalone="no"?>
    <svg width="256" height="256" xmlns="http://www.w3.org/2000/svg" version="1.1">
    <polyline stroke="black" stroke-width="3" stroke-linecap="round" fill="transparent" stroke-linejoin="round" points="83.27972412109375 74.75779724121094 86.59677124023438 81.27719116210938 91.49826049804688 89.06399536132813 93.23373413085938 90.89324951171876 93.24969482421876 90.9049835205078 94.5093994140625 88.90910339355469 96.1256103515625 85.774169921875 101.45468139648438 73.69601440429688 104.04241943359376 69.07025146484375 108.64071655273438 63.96952819824219 111.42010498046876 62.8875732421875 116.26116943359376 64.95133972167969 117.88134765625 67.12765502929688 130.28411865234375 75.3818359375 139.84091186523438 79.75491333007813 156.53729248046875 83.72383117675781 164.807861328125 84.03141784667969 165.63494873046875 84.06217956542969 " />
        <polyline stroke="black" stroke-width="3" stroke-linecap="round" fill="transparent" stroke-linejoin="round" points="172.97857666015625 80.34959411621094 153.76373291015625 98.2639617919922 142.6802978515625 106.83787536621094 119.16342163085938 118.55224609375 113.71905517578124 121.44052124023438 110.052734375 123.80288696289063 109.53594970703124 124.06069946289063 " />
        <polyline stroke="black" stroke-width="3" stroke-linecap="round" fill="transparent" stroke-linejoin="round" points="80.64288330078125 135.1321258544922 98.927001953125 127.49432373046876 110.38787841796876 123.7275848388672 138.88720703125 118.29484558105467 146.14471435546875 117.8798828125 167.5438232421875 117.1079559326172 174.18695068359375 117.9296875 174.2945556640625 117.9731903076172 174.3060302734375 117.9778289794922 174.3062744140625 117.9779052734375 174.30633544921875 117.97793579101563 " />
        <polyline stroke="black" stroke-width="3" stroke-linecap="round" fill="transparent" stroke-linejoin="round" points="96.52044677734376 151.61875915527344 91.420654296875 174.75442504882813 86.9666748046875 185.98052978515625 75.49813842773438 202.9351806640625 69.6455078125 209.35134887695313 61.367431640625 216.6329345703125 59.3133544921875 218.82321166992188 56.370330810546875 219.781494140625 56.076019287109375 219.8773498535156 " />
        <polyline stroke="black" stroke-width="3" stroke-linecap="round" fill="transparent" stroke-linejoin="round" points="90.68499755859376 198.620361328125 96.117919921875 201.18600463867188 100.65740966796876 203.89239501953125 104.64935302734376 206.1016845703125 109.67648315429688 208.33917236328125 111.74005126953124 208.1255798339844 111.875244140625 208.111572265625 " />
        <polyline stroke="black" stroke-width="3" stroke-linecap="round" fill="transparent" stroke-linejoin="round" points="150.571044921875 107.8802490234375 149.177978515625 115.22488403320313 144.83404541015625 139.13177490234375 141.73007202148438 151.96206665039063 128.89752197265625 176.46124267578125 121.91342163085938 185.24444580078125 116.54013061523438 192.52056884765625 116.42477416992188 192.65478515625 116.42376708984376 192.656005859375 116.42367553710938 192.6561279296875 117.72650146484376 188.89056396484375 128.2078857421875 180.4873962402344 136.74447631835938 176.24008178710938 150.55462646484375 174.0576629638672 173.9095458984375 176.5155029296875 179.50396728515625 179.40570068359375 188.514404296875 189.53854370117188 193.3746337890625 194.13421630859375 199.9501953125 203.09490966796875 201.462158203125 208.53875732421875 203.59393310546875 215.37579345703125 203.80706787109375 216.0594482421875 " />
        </svg>