<?xml version="1.0" standalone="no"?>
    <svg width="256" height="256" xmlns="http://www.w3.org/2000/svg" version="1.1">
    <polyline stroke="black" stroke-width="3" stroke-linecap="round" fill="transparent" stroke-linejoin="round" points="78.211669921875 97.74885559082033 83.34628295898438 94.6680908203125 89.5078125 91.58731079101563 111.41552734375 83.37191772460938 118.60400390625 81.31808471679688 131.26937866210938 79.26422119140625 138.11557006835938 78.2373046875 141.53863525390625 77.89498901367188 142.5655517578125 77.89498901367188 142.5655517578125 78.2373046875 140.51171875 80.63346862792969 135.03475952148438 85.42576599121094 126.81939697265624 93.29885864257813 118.60400390625 101.17193603515624 113.81170654296876 106.64886474609376 111.41552734375 109.72964477539063 110.38861083984376 112.12579345703124 110.38861083984376 113.83732604980467 111.41552734375 115.5488739013672 113.81170654296876 119.99887084960938 117.57708740234376 129.58349609375 122.369384765625 144.64505004882813 126.47705078125 160.7335205078125 129.557861328125 173.7412109375 130.58477783203125 181.6143035888672 129.900146484375 185.72201538085935 129.21554565429688 186.4066162109375 122.369384765625 185.72201538085935 122.369384765625 185.72201538085935 " />
        <polyline stroke="black" stroke-width="3" stroke-linecap="round" fill="transparent" stroke-linejoin="round" points="67.2578125 154.91429138183594 74.44625854492188 156.28350830078125 84.71551513671875 156.28350830078125 84.71551513671875 156.28350830078125 " />
        <polyline stroke="black" stroke-width="3" stroke-linecap="round" fill="transparent" stroke-linejoin="round" points="168.2386474609375 139.85272216796875 158.31170654296875 149.43736267089844 147.01556396484375 160.39122009277344 135.3770751953125 171.6873779296875 135.3770751953125 171.6873779296875 " />
        <polyline stroke="black" stroke-width="3" stroke-linecap="round" fill="transparent" stroke-linejoin="round" points="82.66168212890625 201.81048583984375 93.273193359375 195.99127197265625 104.56939697265624 190.51431274414065 162.41943359375 175.79507446289063 188.434814453125 181.95660400390625 188.434814453125 181.95660400390625 " />
        </svg>