<?xml version="1.0" standalone="no"?>
    <svg width="256" height="256" xmlns="http://www.w3.org/2000/svg" version="1.1">
    <polyline stroke="black" stroke-width="3" stroke-linecap="round" fill="transparent" stroke-linejoin="round" points="92.54559326171876 51.94188690185547 113.26068115234376 53.37248992919922 124.06365966796876 54.731101989746094 136.53878784179688 56.73054504394531 140.3265380859375 57.236328125 142.5445556640625 57.54936218261719 142.6072998046875 57.52490234375 142.61431884765625 57.52215576171875 142.61798095703125 57.520751953125 141.99081420898438 58.08934020996094 140.70236206054688 59.59852600097656 134.90292358398438 66.54302978515625 129.82894897460938 72.0989990234375 124.95745849609376 77.26043701171875 118.44091796875 84.28729248046875 114.22824096679688 89.14791870117188 112.25875854492188 91.4001922607422 111.68194580078124 91.81854248046876 111.25302124023438 92.57015991210938 111.29647827148438 92.85247802734376 111.8673095703125 93.54435729980467 112.65631103515624 94.400634765625 116.4715576171875 98.71722412109376 120.34628295898438 103.47427368164063 130.46234130859375 119.1760711669922 134.66122436523438 129.4860076904297 139.70321655273438 153.2494354248047 139.891845703125 163.90133666992188 136.49972534179688 177.65032958984375 131.07635498046875 184.33660888671875 128.54623413085938 185.5311279296875 123.89181518554688 187.33941650390625 121.73260498046876 187.8424072265625 117.037353515625 187.749755859375 113.74041748046876 187.50958251953125 103.5797119140625 182.9791259765625 103.23468017578124 182.308349609375 " />
        <polyline stroke="black" stroke-width="3" stroke-linecap="round" fill="transparent" stroke-linejoin="round" points="78.80194091796875 150.06564331054688 94.98446655273438 160.07333374023438 96.23968505859376 160.29034423828125 " />
        <polyline stroke="black" stroke-width="3" stroke-linecap="round" fill="transparent" stroke-linejoin="round" points="177.80181884765625 121.51422119140624 172.232177734375 128.86587524414063 152.1815185546875 148.4083251953125 149.33807373046875 150.7986297607422 " />
        <polyline stroke="black" stroke-width="3" stroke-linecap="round" fill="transparent" stroke-linejoin="round" points="101.28900146484376 197.9427490234375 112.56649780273438 196.22552490234375 136.005615234375 194.80551147460935 157.312255859375 195.06671142578125 168.9989013671875 195.2645263671875 179.213623046875 195.51544189453125 191.51800537109375 195.88470458984375 194.65625 195.95541381835935 194.68048095703125 195.95599365234375 194.684326171875 195.9560546875 " />
        </svg>