<?xml version="1.0" standalone="no"?>
    <svg width="256" height="256" xmlns="http://www.w3.org/2000/svg" version="1.1">
    <polyline stroke="black" stroke-width="3" stroke-linecap="round" fill="transparent" stroke-linejoin="round" points="85.18893432617188 54.229278564453125 93.518798828125 51.56269836425781 102.43197631835938 48.76953125 121.23748779296876 43.56004333496094 129.3865966796875 41.50782775878906 141.1015625 40.61052703857422 151.45294189453125 40.858428955078125 154.4832763671875 41.28743743896485 156.20367431640625 41.804229736328125 156.39483642578125 41.89910888671875 156.5181884765625 41.98741912841797 156.5390625 42.00238037109375 154.61517333984375 44.90629577636719 150.96469116210938 50.41230773925781 137.54110717773438 68.72808837890625 131.06396484375 76.22232055664063 120.76718139648438 84.45889282226563 113.96295166015624 87.87446594238281 112.51177978515624 88.0472412109375 111.10580444335938 87.96591186523438 110.91815185546876 87.82267761230469 111.0865478515625 87.72050476074219 111.12069702148438 87.82745361328125 111.4549560546875 88.3311767578125 111.64892578125 88.69020080566406 112.77777099609376 89.11866760253906 119.2109375 92.43658447265624 127.85824584960938 100.04104614257813 146.933837890625 133.9311981201172 154.303466796875 154.56771850585938 158.65814208984375 183.15513610839844 156.71258544921875 189.26251220703125 150.753662109375 197.5626220703125 142.94515991210938 203.99981689453125 138.85079956054688 205.266845703125 126.58822631835938 206.35137939453125 117.86083984375 206.23406982421875 103.450439453125 201.30438232421875 98.57321166992188 195.53594970703125 99.12493896484376 194.27719116210935 " />
        <polyline stroke="black" stroke-width="3" stroke-linecap="round" fill="transparent" stroke-linejoin="round" points="85.11703491210938 145.05923461914063 89.74285888671875 147.47225952148438 93.50384521484376 149.13504028320313 98.8463134765625 150.69943237304688 99.41778564453124 150.85031127929688 " />
        <polyline stroke="black" stroke-width="3" stroke-linecap="round" fill="transparent" stroke-linejoin="round" points="177.277587890625 132.41575622558594 167.36358642578125 146.4036865234375 165.3878173828125 148.48037719726563 " />
        <polyline stroke="black" stroke-width="3" stroke-linecap="round" fill="transparent" stroke-linejoin="round" points="109.2864990234375 208.7357177734375 139.02313232421875 206.82843017578125 158.170166015625 207.7699279785156 174.84906005859375 210.67971801757813 201.0772705078125 218.78836059570313 201.28033447265625 224.18020629882813 197.612060546875 223.92755126953125 " />
        </svg>