<?xml version="1.0" standalone="no"?>
    <svg width="256" height="256" xmlns="http://www.w3.org/2000/svg" version="1.1">
    <polyline stroke="black" stroke-width="3" stroke-linecap="round" fill="transparent" stroke-linejoin="round" points="53.20745849609375 71.07086181640625 68.51031494140625 60.052825927734375 80.14044189453125 54.54380798339844 92.99481201171876 49.03478240966797 104.625 44.74999237060547 112.58245849609376 41.689422607421875 118.09149169921876 39.85308074951172 121.15203857421876 39.85308074951172 121.15203857421876 41.689422607421875 116.255126953125 47.198448181152344 104.625 61.88916015625 87.48580932617188 85.76158142089844 70.958740234375 114.53091430664063 58.71649169921875 137.7912139892578 50.14691162109375 153.09405517578125 45.86212158203125 161.66363525390625 43.41363525390625 165.9484405517578 43.41363525390625 165.33631896972656 51.983245849609375 154.93038940429688 71.57086181640625 133.5064239501953 87.48580932617188 119.42782592773438 103.4007568359375 110.24612426757813 110.74612426757813 109.02189636230467 116.255126953125 112.08245849609376 119.31570434570313 124.93684387207033 115.64300537109376 149.42137145996094 105.84921264648438 168.3968963623047 99.115966796875 175.74224853515625 87.48580932617188 183.08761596679688 80.7525634765625 184.9239501953125 77.6920166015625 181.2512664794922 80.14044189453125 162.2757568359375 80.14044189453125 162.2757568359375 " />
        <polyline stroke="black" stroke-width="3" stroke-linecap="round" fill="transparent" stroke-linejoin="round" points="116.86724853515624 79.64045715332031 133.39431762695313 72.29508972167969 145.6365966796875 67.39817810058594 158.490966796875 61.88916015625 170.12109375 57.6043701171875 179.30279541015625 54.54380798339844 186.03607177734375 52.70746612548828 190.32086181640625 51.48323822021485 192.1572265625 51.48323822021485 190.32086181640625 51.48323822021485 185.4239501953125 53.319580078125 179.9149169921875 58.21649169921875 170.12109375 68.01029968261719 154.81829833984375 89.43426513671875 140.73968505859375 113.91880798339844 130.94586181640625 137.17910766601563 124.21261596679688 153.09405517578125 119.92782592773438 163.49998474121094 118.09149169921876 169.62110900878906 118.09149169921876 172.06956481933594 118.09149169921876 172.06956481933594 " />
        <polyline stroke="black" stroke-width="3" stroke-linecap="round" fill="transparent" stroke-linejoin="round" points="180.52703857421875 69.84663391113281 184.81182861328125 82.08891296386719 182.3634033203125 96.16751098632813 178.07861328125 117.59147644042967 175.630126953125 137.17910766601563 175.630126953125 154.3182830810547 177.46649169921875 168.3968963623047 182.3634033203125 178.8028106689453 188.4844970703125 185.53607177734375 199.5025634765625 191.04507446289065 210.5206298828125 192.26931762695313 217.865966796875 191.65719604492188 224.5992431640625 188.59661865234375 228.884033203125 184.9239501953125 231.33245849609375 181.2512664794922 231.33245849609375 177.57858276367188 228.884033203125 174.5180206298828 222.76287841796875 170.2332305908203 222.76287841796875 170.2332305908203 " />
        </svg>