<?xml version="1.0" standalone="no"?>
    <svg width="256" height="256" xmlns="http://www.w3.org/2000/svg" version="1.1">
    <polyline stroke="black" stroke-width="3" stroke-linecap="round" fill="transparent" stroke-linejoin="round" points="77.941162109375 45.97229766845703 77.3321533203125 57.54322814941406 75.50518798828125 82.5120849609375 74.89617919921875 121.48785400390624 76.11416625976563 148.8927001953125 77.941162109375 173.2525634765625 79.15914916992188 189.69546508789065 80.37713623046875 200.04840087890625 80.37713623046875 204.31137084960935 80.37713623046875 204.31137084960935 " />
        <polyline stroke="black" stroke-width="3" stroke-linecap="round" fill="transparent" stroke-linejoin="round" points="73.06918334960938 84.33908081054688 87.68511962890625 69.72315979003906 98.64703369140624 60.58821105957031 113.262939453125 50.844268798828125 132.7508544921875 41.10032653808594 157.7197265625 34.4013671875 175.98956298828125 33.183372497558594 191.823486328125 36.22835540771485 203.3944091796875 45.363304138183594 213.74737548828125 64.8511962890625 220.4462890625 97.12800598144533 221.664306640625 123.31484985351563 221.0552978515625 147.06570434570313 219.22833251953125 167.16259765625 215.5743408203125 181.1695098876953 211.3114013671875 188.47747802734375 205.221435546875 191.5224609375 205.221435546875 191.5224609375 " />
        <polyline stroke="black" stroke-width="3" stroke-linecap="round" fill="transparent" stroke-linejoin="round" points="155.8927001953125 84.33908081054688 149.1937255859375 101.99996948242188 141.88580322265625 120.8788604736328 132.7508544921875 141.58474731445313 125.44287109375 158.02764892578125 117.52593994140624 170.20758056640625 110.21795654296876 177.51553344726563 105.34600830078124 177.51553344726563 105.34600830078124 177.51553344726563 " />
        <polyline stroke="black" stroke-width="3" stroke-linecap="round" fill="transparent" stroke-linejoin="round" points="96.82003784179688 136.7127685546875 112.04495239257813 134.8857879638672 157.7197265625 137.32176208496094 182.68853759765625 139.1487579345703 202.1763916015625 142.19374084472656 213.13836669921875 148.8927001953125 213.13836669921875 148.8927001953125 " />
        <polyline stroke="black" stroke-width="3" stroke-linecap="round" fill="transparent" stroke-linejoin="round" points="93.16607666015624 220.7542724609375 109.60897827148438 215.2733154296875 121.78887939453124 212.22833251953125 137.0137939453125 207.96536254882813 161.982666015625 203.702392578125 181.4705810546875 201.8753967285156 199.1314697265625 203.0933837890625 210.702392578125 209.183349609375 210.702392578125 209.183349609375 " />
        </svg>