<?xml version="1.0" standalone="no"?>
    <svg width="256" height="256" xmlns="http://www.w3.org/2000/svg" version="1.1">
    <polyline stroke="black" stroke-width="3" stroke-linecap="round" fill="transparent" stroke-linejoin="round" points="67.81793212890625 85.24127197265625 97.41107177734376 76.84918212890625 108.0115966796875 74.19905090332031 130.97943115234375 69.34048461914063 141.5799560546875 67.57373046875 162.781005859375 64.923583984375 179.565185546875 62.71514892578125 189.72406005859375 61.39007568359375 194.1409912109375 60.50669860839844 194.5826416015625 60.06500244140625 194.1409912109375 59.181640625 189.28240966796875 58.73994445800781 172.49822998046875 62.71514892578125 168.52301025390625 64.48190307617188 161.897705078125 68.01541137695313 157.4808349609375 71.54891967773438 151.297119140625 81.26608276367188 149.9720458984375 85.68296813964844 147.76361083984375 96.72518920898438 147.32196044921875 117.48458862304688 148.205322265625 132.060302734375 148.205322265625 145.752685546875 146.88021850585938 156.79489135742188 145.996826171875 161.21177673339844 142.46334838867188 171.37063598632813 139.37152099609375 174.90414428710938 139.37152099609375 174.90414428710938 " />
        <polyline stroke="black" stroke-width="3" stroke-linecap="round" fill="transparent" stroke-linejoin="round" points="100.50289916992188 132.060302734375 114.636962890625 125.43498229980467 122.14569091796876 122.78483581542967 130.53778076171875 120.13470458984376 159.24755859375 114.39274597167967 180.89031982421875 111.30094909667967 199.8829345703125 109.9758758544922 210.041748046875 109.9758758544922 213.5753173828125 109.9758758544922 213.5753173828125 109.9758758544922 " />
        <polyline stroke="black" stroke-width="3" stroke-linecap="round" fill="transparent" stroke-linejoin="round" points="86.810546875 193.01339721679688 107.12823486328124 185.06298828125 116.84539794921876 181.97116088867188 127.00424194335938 178.87933349609375 154.8306884765625 173.57907104492188 175.1483154296875 172.69570922851563 201.649658203125 172.25401306152344 222.4090576171875 173.57907104492188 222.4090576171875 173.57907104492188 " />
        </svg>