<?xml version="1.0" standalone="no"?>
    <svg width="256" height="256" xmlns="http://www.w3.org/2000/svg" version="1.1">
    <polyline stroke="black" stroke-width="3" stroke-linecap="round" fill="transparent" stroke-linejoin="round" points="72.03927612304688 67.31727600097656 72.87860107421875 79.48760986328125 73.29827880859375 93.75628662109376 73.29827880859375 110.96258544921876 70.360595703125 153.34890747070313 60.28863525390625 199.931884765625 54.83294677734375 215.03988647460935 52.734619140625 219.65621948242188 52.734619140625 219.65621948242188 " />
        <polyline stroke="black" stroke-width="3" stroke-linecap="round" fill="transparent" stroke-linejoin="round" points="71.199951171875 89.97927856445313 85.88827514648438 75.29093933105469 91.34393310546876 71.51394653320313 96.799560546875 68.57627868652344 101.83563232421876 66.47795104980469 110.64862060546876 64.37960815429688 114.00595092773438 64.37960815429688 121.55990600585938 75.29093933105469 123.65826416015624 86.6219482421875 124.49755859375 137.40158081054688 124.49755859375 156.28659057617188 125.756591796875 188.60089111328125 129.9532470703125 209.584228515625 142.12353515625 227.210205078125 157.6512451171875 232.2462158203125 166.0445556640625 232.2462158203125 182.83123779296875 227.6298828125 195.8409423828125 219.236572265625 205.912841796875 207.06622314453125 212.2078857421875 182.3058929443359 210.52923583984375 174.33224487304688 210.52923583984375 174.33224487304688 " />
        <polyline stroke="black" stroke-width="3" stroke-linecap="round" fill="transparent" stroke-linejoin="round" points="91.76361083984376 121.87393188476563 106.87158203125 129.00827026367188 110.22894287109376 131.9459228515625 117.78292846679688 140.7589111328125 119.46160888671876 146.21458435058594 119.46160888671876 146.21458435058594 " />
        <polyline stroke="black" stroke-width="3" stroke-linecap="round" fill="transparent" stroke-linejoin="round" points="74.5572509765625 164.26023864746094 84.2095947265625 169.29623413085938 87.986572265625 171.81423950195313 92.18328857421876 173.91256713867188 101.41595458984376 177.68955993652344 101.41595458984376 177.68955993652344 " />
        <polyline stroke="black" stroke-width="3" stroke-linecap="round" fill="transparent" stroke-linejoin="round" points="136.24822998046875 96.69393920898438 152.615234375 87.88093566894531 159.74957275390625 84.52360534667969 166.4642333984375 81.5859375 172.339599609375 79.06793212890625 181.572265625 75.71060180664063 184.5098876953125 74.87127685546875 186.6082763671875 74.45161437988281 186.6082763671875 74.45161437988281 " />
        <polyline stroke="black" stroke-width="3" stroke-linecap="round" fill="transparent" stroke-linejoin="round" points="118.20257568359376 161.7422332763672 131.21224975585938 157.96524047851563 145.48089599609375 153.34890747070313 153.874267578125 149.9915771484375 161.42822265625 146.21458435058594 181.152587890625 131.10659790039063 191.22454833984375 118.096923828125 195.4212646484375 109.70359802246094 195.4212646484375 109.70359802246094 " />
        <polyline stroke="black" stroke-width="3" stroke-linecap="round" fill="transparent" stroke-linejoin="round" points="174.01824951171875 44.65528869628906 168.98223876953125 64.37960815429688 164.78558349609375 94.59561157226563 163.52655029296875 109.70359802246094 160.5888671875 144.95556640625 158.9102783203125 181.04690551757813 158.9102783203125 181.04690551757813 " />
        </svg>