<?xml version="1.0" standalone="no"?>
    <svg width="256" height="256" xmlns="http://www.w3.org/2000/svg" version="1.1">
    <polyline stroke="black" stroke-width="3" stroke-linecap="round" fill="transparent" stroke-linejoin="round" points="45.278411865234375 93.34027099609376 49.257171630859375 104.39242553710938 51.0255126953125 116.32876586914063 51.0255126953125 146.39060974121094 46.60467529296875 174.24205017089844 36.43670654296875 203.41973876953125 30.689544677734375 213.58773803710935 28.4791259765625 216.68234252929688 28.4791259765625 216.68234252929688 " />
        <polyline stroke="black" stroke-width="3" stroke-linecap="round" fill="transparent" stroke-linejoin="round" points="67.82479858398438 88.47732543945313 77.10861206054688 79.19351196289063 81.08740234375 76.09890747070313 85.066162109375 73.44638061523438 89.044921875 71.2359619140625 97.00250244140624 67.69926452636719 100.5391845703125 67.25717163085938 103.6337890625 67.69926452636719 108.0546875 69.90969848632813 113.35971069335938 81.4039306640625 116.01220703125 104.39242553710938 115.57012939453124 127.822998046875 115.12802124023438 139.7593231201172 115.57012939453124 167.6107635498047 119.10678100585938 180.43125915527344 121.75933837890624 185.73629760742188 135.02191162109375 196.7884521484375 142.09530639648438 199.883056640625 163.3154296875 202.9776611328125 169.504638671875 202.093505859375 182.76727294921875 198.11471557617188 185.86181640625 195.904296875 192.93524169921875 187.504638671875 196.91400146484375 169.82119750976563 197.3560791015625 159.6531982421875 197.3560791015625 159.6531982421875 " />
        <polyline stroke="black" stroke-width="3" stroke-linecap="round" fill="transparent" stroke-linejoin="round" points="80.64532470703125 96.876953125 88.60287475585938 107.04495239257813 94.3499755859375 115.88665771484376 96.11834716796876 118.98126220703124 96.11834716796876 118.98126220703124 " />
        <polyline stroke="black" stroke-width="3" stroke-linecap="round" fill="transparent" stroke-linejoin="round" points="60.309326171875 132.6859588623047 69.5931396484375 145.50645446777344 71.80355834960938 148.60105895996094 74.01400756835938 151.69564819335938 78.43487548828125 155.67442321777344 78.43487548828125 155.67442321777344 " />
        <polyline stroke="black" stroke-width="3" stroke-linecap="round" fill="transparent" stroke-linejoin="round" points="122.64352416992188 86.70896911621094 139.00070190429688 80.07768249511719 143.86361694335938 78.75141906738281 153.58953857421875 76.54098510742188 161.547119140625 74.77264404296875 165.96795654296875 74.33056640625 174.36761474609375 73.88847351074219 180.55682373046875 73.88847351074219 180.55682373046875 73.88847351074219 " />
        <polyline stroke="black" stroke-width="3" stroke-linecap="round" fill="transparent" stroke-linejoin="round" points="116.01220703125 125.17047119140624 127.50643920898438 126.05467224121094 132.81149291992188 126.05467224121094 139.00070190429688 126.05467224121094 164.19964599609375 121.6337890625 183.2093505859375 115.444580078125 191.1668701171875 111.90788269042967 191.1668701171875 111.90788269042967 " />
        <polyline stroke="black" stroke-width="3" stroke-linecap="round" fill="transparent" stroke-linejoin="round" points="151.82122802734375 33.65862274169922 148.28451538085938 59.29962158203125 147.8424072265625 69.0255126953125 148.28451538085938 90.687744140625 149.61077880859375 113.23416137695313 151.82122802734375 138.43307495117188 152.70538330078125 151.2535858154297 152.70538330078125 151.2535858154297 " />
        </svg>