<?xml version="1.0" standalone="no"?>
    <svg width="256" height="256" xmlns="http://www.w3.org/2000/svg" version="1.1">
    <polyline stroke="black" stroke-width="3" stroke-linecap="round" fill="transparent" stroke-linejoin="round" points="37.492950439453125 97.93780517578125 38.24688720703125 110.39620971679688 39.000823974609375 122.8546142578125 39.03509521484375 146.9817352294922 37.50750732421875 169.56692504882813 36.78436279296875 179.86865234375 34.98553466796875 190.90765380859375 31.1171875 207.8958740234375 29.379730224609375 210.37936401367188 26.01971435546875 207.8372802734375 25.8133544921875 206.65924072265625 " />
        <polyline stroke="black" stroke-width="3" stroke-linecap="round" fill="transparent" stroke-linejoin="round" points="38.18798828125 88.2142333984375 49.478515625 85.8701171875 60.76904296875 83.5260009765625 65.53216552734375 82.3603515625 72.30429077148438 80.63812255859375 74.18157958984375 80.29620361328125 75.85031127929688 79.697509765625 76.313232421875 79.6322021484375 76.68026733398438 79.58042907714844 76.88095092773438 79.84989929199219 77.62557983398438 81.13374328613281 83.6708984375 100.97959899902344 86.18124389648438 114.628662109375 88.59811401367188 139.64996337890625 89.2802734375 151.52838134765625 90.70492553710938 169.32421875 92.61654663085938 182.3865203857422 94.18310546875 187.210205078125 97.3785400390625 193.43438720703125 99.54721069335938 195.8560485839844 103.615478515625 198.4874267578125 106.89056396484376 199.5648193359375 117.226806640625 203.353515625 122.94134521484376 205.2337646484375 134.23333740234375 207.68194580078125 139.84466552734375 208.24169921875 152.24407958984375 209.04876708984375 164.27508544921875 208.65411376953125 171.12542724609375 208.29568481445313 182.7000732421875 205.95281982421875 186.8870849609375 204.00579833984375 193.249755859375 198.77093505859375 195.05615234375 196.62359619140625 196.80194091796875 192.0523376464844 200.30316162109375 177.90670776367188 201.34063720703125 168.03598022460938 201.63714599609375 145.4008026123047 199.35333251953125 136.6586151123047 198.31634521484375 136.87472534179688 " />
        <polyline stroke="black" stroke-width="3" stroke-linecap="round" fill="transparent" stroke-linejoin="round" points="58.2664794921875 124.95515441894531 68.0615234375 130.73526000976563 77.8565673828125 136.51536560058594 79.11532592773438 138.31292724609375 79.27978515625 140.04782104492188 79.34417724609375 140.7270965576172 " />
        <polyline stroke="black" stroke-width="3" stroke-linecap="round" fill="transparent" stroke-linejoin="round" points="68.7803955078125 151.50653076171875 74.08551025390625 153.29568481445313 79.390625 155.0848388671875 82.54278564453125 156.7699432373047 84.37677001953125 158.3924560546875 84.77557373046875 158.83270263671875 " />
        <polyline stroke="black" stroke-width="3" stroke-linecap="round" fill="transparent" stroke-linejoin="round" points="114.44696044921875 81.4669189453125 134.8974609375 80.57972717285156 155.34796142578125 79.69253540039063 164.40966796875 79.79356384277344 175.19696044921875 81.33749389648438 177.8680419921875 82.08694458007813 184.84765625 82.22869873046875 185.3863525390625 82.23965454101563 " />
        <polyline stroke="black" stroke-width="3" stroke-linecap="round" fill="transparent" stroke-linejoin="round" points="125.893310546875 116.6343994140625 133.271728515625 116.6927490234375 140.650146484375 116.7510986328125 147.27435302734375 117.4012451171875 157.7244873046875 118.83303833007813 162.3665771484375 119.48226928710938 166.7333984375 119.52745056152344 173.7757568359375 118.78927612304688 174.15631103515625 118.69786071777344 " />
        <polyline stroke="black" stroke-width="3" stroke-linecap="round" fill="transparent" stroke-linejoin="round" points="136.65216064453125 25.856369018554688 140.670654296875 45.99134826660156 144.68914794921875 66.12632751464844 151.346435546875 106.86819458007813 153.42333984375 123.31950378417967 154.3582763671875 149.797119140625 154.57373046875 169.43792724609375 150.7705078125 180.6843719482422 149.64279174804688 176.27767944335938 " />
        </svg>