<?xml version="1.0" standalone="no"?>
    <svg width="256" height="256" xmlns="http://www.w3.org/2000/svg" version="1.1">
    <polyline stroke="black" stroke-width="3" stroke-linecap="round" fill="transparent" stroke-linejoin="round" points="82 115 82 136 82 152 80 182 75 199 72 213 72 217 72 217 " />
        <polyline stroke="black" stroke-width="3" stroke-linecap="round" fill="transparent" stroke-linejoin="round" points="85 114 107 106 116 103 125 101 131 99 134 98 135 98 135 99 135 100 134 106 131 114 129 123 128 134 128 146 133 164 137 172 142 178 146 182 155 187 162 190 170 191 179 193 187 193 200 192 207 190 211 189 213 189 213 188 213 187 212 186 212 184 209 178 201 165 197 161 197 161 " />
        <polyline stroke="black" stroke-width="3" stroke-linecap="round" fill="transparent" stroke-linejoin="round" points="96 149 107 149 110 150 110 151 110 151 " />
        <polyline stroke="black" stroke-width="3" stroke-linecap="round" fill="transparent" stroke-linejoin="round" points="90 170 105 169 112 169 118 169 120 169 120 169 " />
        <polyline stroke="black" stroke-width="3" stroke-linecap="round" fill="transparent" stroke-linejoin="round" points="140 120 156 115 165 113 172 112 178 112 180 112 180 113 180 113 " />
        <polyline stroke="black" stroke-width="3" stroke-linecap="round" fill="transparent" stroke-linejoin="round" points="139 145 155 142 166 140 184 138 194 138 200 138 202 138 201 138 199 138 199 138 " />
        <polyline stroke="black" stroke-width="3" stroke-linecap="round" fill="transparent" stroke-linejoin="round" points="163 74 163 88 163 114 164 138 164 161 165 177 167 190 169 194 169 193 169 193 " />
        </svg>