<?xml version="1.0" standalone="no"?>
    <svg width="256" height="256" xmlns="http://www.w3.org/2000/svg" version="1.1">
    <polyline stroke="black" stroke-width="3" stroke-linecap="round" fill="transparent" stroke-linejoin="round" points="81.0543212890625 68.62515258789063 78.74459838867188 83.06089782714844 71.8154296875 114.8195343017578 64.88629150390625 148.31045532226563 60.844268798828125 165.05592346191406 55.64739990234375 180.069091796875 52.76025390625 188.7305603027344 49.87310791015625 192.19512939453125 49.295654296875 192.19512939453125 49.295654296875 192.19512939453125 " />
        <polyline stroke="black" stroke-width="3" stroke-linecap="round" fill="transparent" stroke-linejoin="round" points="59.68939208984375 118.86154174804688 64.308837890625 107.3129425048828 71.23800659179688 94.03205871582033 79.89944458007813 81.90603637695313 89.71575927734375 71.51229858398438 98.95465087890624 63.42828369140625 107.6160888671875 58.231414794921875 113.96780395507813 57.07655334472656 118.58724975585938 61.69599914550781 122.05181884765624 77.86402893066406 123.2066650390625 102.69351196289063 122.05181884765624 127.5229949951172 124.36154174804688 150.04275512695313 128.98098754882813 168.5205078125 134.75527954101563 185.26596069335935 146.30389404296875 197.96942138671875 159.58477783203125 208.3631591796875 172.86566162109375 213.56002807617188 183.8367919921875 215.29232788085935 191.3433837890625 214.71487426757813 197.69512939453125 212.4051513671875 202.8919677734375 208.3631591796875 205.20172119140625 202.5888671875 205.20172119140625 185.8433837890625 192.498291015625 155.2396240234375 179.7947998046875 141.958740234375 179.7947998046875 141.958740234375 " />
        <polyline stroke="black" stroke-width="3" stroke-linecap="round" fill="transparent" stroke-linejoin="round" points="86.82861328125 105.58065795898438 98.95465087890624 112.5098114013672 105.30636596679688 118.86154174804688 109.348388671875 125.79069519042967 109.348388671875 131.56500244140625 109.348388671875 131.56500244140625 " />
        <polyline stroke="black" stroke-width="3" stroke-linecap="round" fill="transparent" stroke-linejoin="round" points="77.01229858398438 147.15560913085938 86.82861328125 158.12677001953125 93.75775146484376 165.63336181640625 100.68692016601563 171.40765380859375 106.46124267578124 175.4496612548828 113.390380859375 175.4496612548828 113.390380859375 175.4496612548828 " />
        <polyline stroke="black" stroke-width="3" stroke-linecap="round" fill="transparent" stroke-linejoin="round" points="149.7684326171875 80.75117492675781 166.513916015625 74.97688293457031 175.7528076171875 72.66716003417969 183.8367919921875 71.51229858398438 189.611083984375 71.51229858398438 191.3433837890625 74.39944458007813 187.8787841796875 83.63832092285156 179.2174072265625 94.03205871582033 169.978515625 103.27093505859376 162.471923828125 110.20010375976563 157.85247802734375 114.24211120605467 155.542724609375 116.55181884765624 155.542724609375 117.70668029785156 159.00732421875 118.28411865234376 165.35906982421875 118.28411865234376 171.7108154296875 117.70668029785156 179.7947998046875 115.97439575195313 187.3013916015625 110.77752685546876 195.3853759765625 100.9612274169922 195.3853759765625 100.9612274169922 " />
        <polyline stroke="black" stroke-width="3" stroke-linecap="round" fill="transparent" stroke-linejoin="round" points="167.09130859375 37.443946838378906 164.7816162109375 51.30226135253906 164.2042236328125 65.16056823730469 163.62677001953125 84.79318237304688 163.62677001953125 107.3129425048828 164.2042236328125 127.5229949951172 164.7816162109375 146.00074768066406 164.7816162109375 167.9430694580078 165.35906982421875 191.61770629882813 165.35906982421875 191.61770629882813 " />
        </svg>