<?xml version="1.0" standalone="no"?>
    <svg width="256" height="256" xmlns="http://www.w3.org/2000/svg" version="1.1">
    <polyline stroke="black" stroke-width="3" stroke-linecap="round" fill="transparent" stroke-linejoin="round" points="123.74691772460938 35.445159912109375 126.974853515625 48.357025146484375 125.59149169921876 58.96319580078125 123.74691772460938 63.5745849609375 116.829833984375 73.71961975097656 112.21844482421876 79.25326538085938 112.21844482421876 79.25326538085938 " />
        <polyline stroke="black" stroke-width="3" stroke-linecap="round" fill="transparent" stroke-linejoin="round" points="56.88189697265625 107.84384155273438 83.62789916992188 95.854248046875 106.684814453125 87.09262084960938 130.20281982421875 79.71441650390625 151.4151611328125 73.25848388671875 168.01611328125 69.56936645507813 173.08868408203125 69.10824584960938 173.08868408203125 69.10824584960938 " />
        <polyline stroke="black" stroke-width="3" stroke-linecap="round" fill="transparent" stroke-linejoin="round" points="77.63311767578125 141.50692749023438 89.62274169921875 134.58984375 102.07342529296876 128.13389587402344 117.75213623046876 121.21682739257813 126.05258178710938 118.4499969482422 141.73129272460938 116.14431762695313 153.72088623046875 117.52774047851563 158.332275390625 119.37229919433594 169.39959716796875 128.13389587402344 174.47210693359375 137.8177947998047 176.316650390625 147.0405731201172 175.3944091796875 155.80218505859375 171.244140625 162.25811767578125 162.0213623046875 166.86949157714844 158.332275390625 168.25291442871094 158.332275390625 168.25291442871094 " />
        <polyline stroke="black" stroke-width="3" stroke-linecap="round" fill="transparent" stroke-linejoin="round" points="116.36865234375 124.90594482421876 118.67440795898438 139.662353515625 120.5189208984375 154.41876220703125 121.90234375 181.1647796630859 120.98007202148438 190.38754272460935 117.29098510742188 212.06103515625 117.29098510742188 212.06103515625 " />
        </svg>