<?xml version="1.0" standalone="no"?>
    <svg width="256" height="256" xmlns="http://www.w3.org/2000/svg" version="1.1">
    <polyline stroke="black" stroke-width="3" stroke-linecap="round" fill="transparent" stroke-linejoin="round" points="60.98779296875003 76.28889465332031 90.42987060546876 76.24562072753906 119.8719482421875 76.20234680175781 134.0904541015625 75.75852966308594 161.46337890625 74.50872802734375 173.93280029296875 73.32044982910156 196.96978759765625 70.7713623046875 203.67529296875 70.197265625 208.8514404296875 70.06883239746094 209.60833740234375 69.80096435546875 210.3115234375 69.245361328125 210.3480224609375 69.21653747558594 210.36572265625 69.20249938964844 " />
        <polyline stroke="black" stroke-width="3" stroke-linecap="round" fill="transparent" stroke-linejoin="round" points="77.77203369140625 148.18408203125 83.2646484375 167.89627075195313 88.75726318359375 187.60845947265625 90.70159912109376 195.37200927734375 92.71286010742188 205.64700317382813 92.88546752929688 207.89288330078125 92.89849853515624 208.06198120117188 " />
        <polyline stroke="black" stroke-width="3" stroke-linecap="round" fill="transparent" stroke-linejoin="round" points="101.59063720703124 101.34561157226563 111.4215087890625 101.86599731445313 121.25238037109376 102.38638305664063 132.50180053710938 103.53355407714844 156.3392333984375 106.78701782226563 170.3021240234375 109.734619140625 184.51318359375 117.0442352294922 190.28594970703125 122.75596618652344 197.03369140625 135.812744140625 199.2000732421875 143.7286376953125 197.98162841796875 156.98301696777344 193.2330322265625 166.97262573242188 189.19329833984375 172.27896118164063 185.1373291015625 177.1163787841797 184.5732421875 176.72235107421875 " />
        <polyline stroke="black" stroke-width="3" stroke-linecap="round" fill="transparent" stroke-linejoin="round" points="133.298095703125 120.11640930175781 134.01620483398438 129.06204223632813 134.73431396484375 138.00767517089844 134.94403076171875 147.5300750732422 134.9080810546875 155.2733154296875 131.14535522460938 169.92010498046875 127.22137451171876 178.0565643310547 126.40643310546876 178.42868041992188 " />
        <polyline stroke="black" stroke-width="3" stroke-linecap="round" fill="transparent" stroke-linejoin="round" points="107.69317626953122 149.49169921875 125.55303955078124 147.67759704589844 143.41290283203125 145.86349487304688 149.80722045898438 145.1792449951172 157.951904296875 144.12551879882813 158.0382080078125 144.09765625 158.06414794921875 144.08932495117188 " />
        <polyline stroke="black" stroke-width="3" stroke-linecap="round" fill="transparent" stroke-linejoin="round" points="120.61810302734375 182.7314147949219 131.64535522460938 184.37420654296875 142.672607421875 186.0169982910156 153.57061767578125 188.64691162109375 163.33563232421875 191.53073120117188 171.36346435546875 194.27923583984375 171.960693359375 194.46469116210935 172.0518798828125 194.49295043945313 " />
        </svg>