<?xml version="1.0" standalone="no"?>
    <svg width="256" height="256" xmlns="http://www.w3.org/2000/svg" version="1.1">
    <polyline stroke="black" stroke-width="3" stroke-linecap="round" fill="transparent" stroke-linejoin="round" points="79 86 79 86 79 86 79 85 79 85 81 84 84 83 88 82 94 80 100 78 112 75 121 73 130 71 139 69 148 67 156 66 163 65 169 65 173 65 175 65 175 66 " />
        <polyline stroke="black" stroke-width="3" stroke-linecap="round" fill="transparent" stroke-linejoin="round" points="112 104 110 106 107 111 104 117 101 127 100 135 99 143 99 152 99 160 100 166 100 172 100 176 100 178 101 179 101 179 102 178 " />
        <polyline stroke="black" stroke-width="3" stroke-linecap="round" fill="transparent" stroke-linejoin="round" points="98 120 99 118 103 111 107 108 111 105 115 103 120 101 125 99 130 98 136 98 145 98 151 99 156 101 161 104 165 108 168 113 171 119 174 126 175 133 176 145 176 151 174 157 172 162 168 165 167 166 165 166 " />
        <polyline stroke="black" stroke-width="3" stroke-linecap="round" fill="transparent" stroke-linejoin="round" points="131 119 131 119 129 117 129 117 128 116 128 116 128 118 128 122 128 128 128 140 128 148 128 156 127 163 126 170 124 175 122 178 121 180 120 180 " />
        <polyline stroke="black" stroke-width="3" stroke-linecap="round" fill="transparent" stroke-linejoin="round" points="105 157 105 157 106 154 108 152 112 150 118 147 123 145 128 144 134 143 139 142 144 142 149 144 151 145 153 147 " />
        <polyline stroke="black" stroke-width="3" stroke-linecap="round" fill="transparent" stroke-linejoin="round" points="111 191 111 191 109 191 108 191 109 191 111 190 115 189 119 188 125 187 131 186 138 186 146 186 155 188 159 190 164 192 " />
        </svg>