<?xml version="1.0" standalone="no"?>
    <svg width="256" height="256" xmlns="http://www.w3.org/2000/svg" version="1.1">
    <polyline stroke="black" stroke-width="3" stroke-linecap="round" fill="transparent" stroke-linejoin="round" points="59.436889648437486 82.36799621582031 85.65725708007813 76.45918273925781 111.87762451171876 70.55036926269531 139.57522583007813 65.38014221191406 163.21051025390625 62.42573547363281 180.93695068359375 60.5792236328125 185.7379150390625 60.209930419921875 185.7379150390625 60.209930419921875 " />
        <polyline stroke="black" stroke-width="3" stroke-linecap="round" fill="transparent" stroke-linejoin="round" points="66.45358276367188 124.09906005859375 69.0386962890625 138.5018310546875 71.62380981445313 152.90460205078125 73.839599609375 163.24502563476563 76.05538940429688 172.84686279296875 77.90188598632813 178.7556915283203 78.27120971679688 179.86358642578125 78.27120971679688 179.86358642578125 " />
        <polyline stroke="black" stroke-width="3" stroke-linecap="round" fill="transparent" stroke-linejoin="round" points="83.07217407226563 123.36045837402345 101.53720092773438 118.92884826660156 120.00222778320313 114.49723815917967 135.88223266601563 112.28143310546876 148.4384765625 111.91213989257813 157.30169677734375 112.28143310546876 165.795654296875 114.86654663085938 171.33514404296875 118.92884826660156 174.28955078125 126.68417358398438 173.92022705078125 138.87112426757813 170.227294921875 153.6431884765625 165.4263916015625 166.9380340576172 160.62542724609375 178.01708984375 158.7789306640625 178.7556915283203 158.7789306640625 178.7556915283203 " />
        <polyline stroke="black" stroke-width="3" stroke-linecap="round" fill="transparent" stroke-linejoin="round" points="107.44607543945313 126.31488037109375 108.553955078125 142.19483947753906 109.66183471679688 158.07479858398438 111.13906860351563 173.58547973632813 111.87762451171876 178.7556915283203 111.87762451171876 178.7556915283203 " />
        <polyline stroke="black" stroke-width="3" stroke-linecap="round" fill="transparent" stroke-linejoin="round" points="73.47024536132813 150.68881225585938 91.93533325195313 146.9957733154297 110.40042114257813 143.302734375 128.865478515625 141.45623779296875 139.57522583007813 141.08694458007813 146.9613037109375 141.08694458007813 146.9613037109375 141.08694458007813 " />
        <polyline stroke="black" stroke-width="3" stroke-linecap="round" fill="transparent" stroke-linejoin="round" points="84.54925537109376 176.9091796875 98.582763671875 175.80128479003906 112.61627197265624 174.69338989257813 118.5250244140625 174.69338989257813 137.728759765625 175.4320068359375 152.50079345703125 177.2784423828125 152.50079345703125 177.2784423828125 " />
        </svg>