<?xml version="1.0" standalone="no"?>
    <svg width="256" height="256" xmlns="http://www.w3.org/2000/svg" version="1.1">
    <polyline stroke="black" stroke-width="3" stroke-linecap="round" fill="transparent" stroke-linejoin="round" points="67.10958862304688 74.31817626953125 78.59213256835938 85.86709594726563 90.07467651367188 97.416015625 95.0081787109375 102.94076538085938 95.35369873046876 103.44352722167967 " />
        <polyline stroke="black" stroke-width="3" stroke-linecap="round" fill="transparent" stroke-linejoin="round" points="165.0316162109375 53.748565673828125 152.77044677734375 70.43986511230469 140.50927734375 87.13116455078125 136.9713134765625 91.81338500976563 " />
        <polyline stroke="black" stroke-width="3" stroke-linecap="round" fill="transparent" stroke-linejoin="round" points="69.20938110351563 141.6075439453125 79.69580078125 136.97496032714844 90.18222045898438 132.34237670898438 103.42257690429688 125.81584167480467 127.406982421875 112.99356079101563 139.04672241210938 106.78800964355467 146.45773315429688 100.12704467773438 150.66183471679688 96.3123779296875 149.373046875 96.8641357421875 " />
        <polyline stroke="black" stroke-width="3" stroke-linecap="round" fill="transparent" stroke-linejoin="round" points="115.2812805175781 23.714141845703125 112.35675048828124 41.74334716796875 109.43222045898438 59.772552490234375 98.56576538085938 109.21054077148438 92.42254638671876 137.28173828125 81.14013671875 183.66552734375 73.17941284179688 208.9385986328125 71.2998046875 213.4371337890625 68.504638671875 222.17221069335935 68.41098022460938 222.5616455078125 " />
        <polyline stroke="black" stroke-width="3" stroke-linecap="round" fill="transparent" stroke-linejoin="round" points="130.53436279296875 156.35775756835938 141.3082275390625 164.20147705078125 152.08209228515625 172.04519653320313 165.3431396484375 180.60655212402344 178.677001953125 189.2955322265625 197.5496826171875 201.68817138671875 196.00762939453125 200.6063232421875 " />
        </svg>