<?xml version="1.0" standalone="no"?>
    <svg width="256" height="256" xmlns="http://www.w3.org/2000/svg" version="1.1">
    <polyline stroke="black" stroke-width="3" stroke-linecap="round" fill="transparent" stroke-linejoin="round" points="70.20730590820313 63.02508544921875 79.93206787109375 70.50570678710938 89.65682983398438 77.986328125 99.38165283203124 81.72662353515625 99.38165283203124 81.72662353515625 " />
        <polyline stroke="black" stroke-width="3" stroke-linecap="round" fill="transparent" stroke-linejoin="round" points="182.79046630859375 44.32356262207031 172.691650390625 54.422386169433594 162.59283447265625 64.52120971679688 133.04440307617188 94.81770324707033 118.08319091796876 109.0308837890625 93.77117919921876 132.22076416015625 84.79443359375 139.70138549804688 70.20724487304688 150.54827880859375 66.46697998046875 152.41842651367188 66.0928955078125 152.41842651367188 69.83322143554688 150.54827880859375 85.91650390625 142.69363403320313 107.61032104492188 132.22076416015625 119.20526123046876 126.98434448242188 149.87579345703125 112.02311706542967 164.0889892578125 100.42816162109376 164.0889892578125 100.42816162109376 " />
        <polyline stroke="black" stroke-width="3" stroke-linecap="round" fill="transparent" stroke-linejoin="round" points="132.29632568359375 33.10261535644533 127.05990600585938 45.44564056396485 121.823486328125 57.788665771484375 116.5870361328125 73.49795532226563 106.48822021484376 109.0308837890625 101.62582397460938 126.98434448242188 91.15301513671876 164.38742065429688 84.79443359375 189.44747924804688 81.80218505859375 200.29437255859375 81.05413818359375 204.40869140625 81.05413818359375 204.40869140625 " />
        <polyline stroke="black" stroke-width="3" stroke-linecap="round" fill="transparent" stroke-linejoin="round" points="110.97668457031253 146.43392944335938 116.96112060546876 149.05215454101563 122.945556640625 151.67037963867188 130.42620849609375 155.41067504882813 137.53277587890625 159.52500915527344 153.6160888671875 169.24981689453125 170.07342529296875 183.8370056152344 170.07342529296875 183.8370056152344 " />
        </svg>