<?xml version="1.0" standalone="no"?>
    <svg width="256" height="256" xmlns="http://www.w3.org/2000/svg" version="1.1">
    <polyline stroke="black" stroke-width="3" stroke-linecap="round" fill="transparent" stroke-linejoin="round" points="86.431640625 86.48040771484375 89.7161865234375 111.11466979980467 92.17962646484376 119.73666381835938 98.748779296875 126.71636962890624 98.748779296875 126.71636962890624 " />
        <polyline stroke="black" stroke-width="3" stroke-linecap="round" fill="transparent" stroke-linejoin="round" points="169.366943359375 61.435577392578125 158.2816162109375 75.39498901367188 143.5009765625 91.40725708007813 126.66757202148438 107.41952514648438 110.2447509765625 119.73666381835938 97.10650634765624 127.94808959960938 86.84222412109375 132.46435546875 79.86251831054688 135.33836364746094 74.93563842773438 136.9806365966797 72.0616455078125 137.80178833007813 70.82992553710938 137.80178833007813 70.41937255859375 137.80178833007813 72.8828125 137.80178833007813 84.3787841796875 135.74893188476563 100.39105224609376 132.87493896484375 109.423583984375 131.23263549804688 134.057861328125 126.71636962890624 148.01727294921875 124.25296020507813 158.692138671875 121.78952026367188 166.4930419921875 118.91551208496094 169.366943359375 116.04150390625 169.366943359375 116.04150390625 " />
        <polyline stroke="black" stroke-width="3" stroke-linecap="round" fill="transparent" stroke-linejoin="round" points="142.67987060546875 32.69560241699219 132.41561889648438 56.91929626464844 124.20419311523438 82.78526306152344 115.171630859375 111.11466979980467 105.31787109375 140.67576599121094 96.28533935546876 163.66775512695313 88.07391357421875 181.73287963867188 81.91537475585938 192.40771484375 77.39910888671875 199.38742065429688 74.52508544921875 202.26141357421875 74.52508544921875 202.26141357421875 " />
        <polyline stroke="black" stroke-width="3" stroke-linecap="round" fill="transparent" stroke-linejoin="round" points="105.72848510742188 139.44406127929688 114.3504638671875 146.83433532714844 124.20419311523438 155.86691284179688 136.1107177734375 166.9523162841797 148.83843994140625 179.26943969726563 160.7449951171875 191.176025390625 166.4930419921875 197.3345642089844 166.4930419921875 197.3345642089844 " />
        </svg>