<?xml version="1.0" standalone="no"?>
    <svg width="256" height="256" xmlns="http://www.w3.org/2000/svg" version="1.1">
    <polyline stroke="black" stroke-width="3" stroke-linecap="round" fill="transparent" stroke-linejoin="round" points="74.3895263671875 48.357025146484375 81.76776123046875 61.73002624511719 84.5345458984375 65.41912841796875 87.30136108398438 68.6470947265625 94.21844482421876 74.18075561523438 101.59664916992188 76.4864501953125 101.59664916992188 76.4864501953125 " />
        <polyline stroke="black" stroke-width="3" stroke-linecap="round" fill="transparent" stroke-linejoin="round" points="180.4512939453125 43.74565124511719 172.1507568359375 54.35182189941406 130.64837646484375 93.08741760253906 113.12509155273438 107.3826904296875 95.14071655273438 119.83341979980467 70.2392578125 134.58984375 59.171966552734375 140.12350463867188 55.48284912109375 141.96804809570313 56.86627197265625 141.50692749023438 71.62274169921875 135.9732666015625 97.90756225585938 126.28936767578124 125.11468505859376 118.9111328125 150.477294921875 112.91635131835938 173.995361328125 105.999267578125 184.60150146484375 100.00448608398438 184.60150146484375 100.00448608398438 " />
        <polyline stroke="black" stroke-width="3" stroke-linecap="round" fill="transparent" stroke-linejoin="round" points="134.798583984375 37.75084686279297 120.50335693359376 67.26368713378906 112.66400146484376 86.17034912109375 87.30136108398438 151.19082641601563 80.845458984375 168.25291442871094 70.70040893554688 190.38754272460935 63.32220458984375 204.2216796875 61.477630615234375 207.9107666015625 61.477630615234375 207.9107666015625 " />
        <polyline stroke="black" stroke-width="3" stroke-linecap="round" fill="transparent" stroke-linejoin="round" points="122.80902099609376 147.50169372558594 144.48251342773438 159.49130249023438 154.6275634765625 165.94720458984375 164.31146240234375 172.40313720703125 173.995361328125 179.32022094726563 182.29583740234375 186.69842529296875 182.29583740234375 186.69842529296875 " />
        </svg>