<?xml version="1.0" standalone="no"?>
    <svg width="256" height="256" xmlns="http://www.w3.org/2000/svg" version="1.1">
    <polyline stroke="black" stroke-width="3" stroke-linecap="round" fill="transparent" stroke-linejoin="round" points="120.7205810546875 77.80894470214844 116.104248046875 85.36294555664063 116.104248046875 85.36294555664063 " />
        <polyline stroke="black" stroke-width="3" stroke-linecap="round" fill="transparent" stroke-linejoin="round" points="76.23593139648438 112.22160339355467 82.53094482421875 108.86428833007813 89.24560546875 105.50692749023438 103.93392944335938 98.7922821044922 110.64862060546876 95.85459899902344 125.3369140625 90.818603515625 146.32025146484375 84.94326782226563 158.9102783203125 82.005615234375 168.1429443359375 80.32693481445313 174.01824951171875 79.48760986328125 175.6968994140625 79.48760986328125 176.9559326171875 79.48760986328125 176.9559326171875 79.48760986328125 " />
        <polyline stroke="black" stroke-width="3" stroke-linecap="round" fill="transparent" stroke-linejoin="round" points="88.40625 155.86691284179688 97.21923828125 152.08990478515625 106.0322265625 147.89324951171875 115.264892578125 144.1162567138672 133.730224609375 136.142578125 149.25790405273438 129.00827026367188 161.008544921875 124.39193725585938 167.3035888671875 121.87393188476563 169.821533203125 121.03459167480467 169.821533203125 121.03459167480467 " />
        <polyline stroke="black" stroke-width="3" stroke-linecap="round" fill="transparent" stroke-linejoin="round" points="116.104248046875 157.1259002685547 113.16659545898438 169.71591186523438 112.32723999023438 183.56491088867188 112.74691772460938 189.85989379882813 114.00595092773438 193.63690185546875 115.6845703125 195.7352294921875 119.88128662109376 196.9942321777344 126.59591674804688 196.1549072265625 133.730224609375 192.79754638671875 137.50726318359375 189.85989379882813 137.50726318359375 189.85989379882813 " />
        <polyline stroke="black" stroke-width="3" stroke-linecap="round" fill="transparent" stroke-linejoin="round" points="150.93658447265625 156.70623779296875 150.93658447265625 163.00125122070313 150.93658447265625 168.87657165527344 150.93658447265625 183.98455810546875 150.51690673828125 189.02056884765625 150.93658447265625 194.8959045410156 150.93658447265625 194.8959045410156 " />
        </svg>