<?xml version="1.0" standalone="no"?>
    <svg width="256" height="256" xmlns="http://www.w3.org/2000/svg" version="1.1">
    <polyline stroke="black" stroke-width="3" stroke-linecap="round" fill="transparent" stroke-linejoin="round" points="147.77197265625 45.41163635253906 147.77197265625 51.230865478515625 146.0604248046875 58.419342041015625 136.47579956054688 76.2193603515625 136.47579956054688 76.2193603515625 " />
        <polyline stroke="black" stroke-width="3" stroke-linecap="round" fill="transparent" stroke-linejoin="round" points="79.31039428710938 115.24246215820313 86.49887084960938 111.47708129882813 106.35272216796876 102.91937255859376 117.99118041992188 98.81169128417967 146.74505615234375 90.59629821777344 177.89508056640625 83.4078369140625 200.4874267578125 80.66935729980469 214.17974853515625 81.35398864746094 219.99896240234375 83.7501220703125 219.99896240234375 83.7501220703125 " />
        <polyline stroke="black" stroke-width="3" stroke-linecap="round" fill="transparent" stroke-linejoin="round" points="104.298828125 151.18479919433594 112.51425170898438 148.78863525390625 122.098876953125 145.36557006835938 143.66427612304688 139.2040252685547 164.5450439453125 134.41171264648438 172.07586669921875 132.35784912109375 182.3450927734375 129.96170043945313 186.1104736328125 129.27708435058594 186.1104736328125 129.27708435058594 " />
        <polyline stroke="black" stroke-width="3" stroke-linecap="round" fill="transparent" stroke-linejoin="round" points="121.07196044921876 155.29248046875 115.252685546875 166.246337890625 111.14501953125 182.33482360839844 110.80270385742188 187.12713623046875 111.82965087890624 193.63101196289065 115.252685546875 196.7117919921875 123.81039428710938 198.42330932617188 133.39501953125 197.3963623046875 142.97967529296875 193.97329711914065 152.5643310546875 187.811767578125 161.46429443359375 178.22714233398438 167.9681396484375 169.32711791992188 171.0489501953125 162.82327270507813 172.07586669921875 160.7694091796875 173.787353515625 156.66172790527344 173.787353515625 155.6348114013672 173.787353515625 155.97711181640625 173.445068359375 157.0040283203125 172.76043701171875 163.1655731201172 172.41815185546875 168.30020141601563 171.7335205078125 180.28097534179688 172.41815185546875 210.74639892578125 172.41815185546875 210.74639892578125 " />
        </svg>