<?xml version="1.0" standalone="no"?>
    <svg width="256" height="256" xmlns="http://www.w3.org/2000/svg" version="1.1">
    <polyline stroke="black" stroke-width="3" stroke-linecap="round" fill="transparent" stroke-linejoin="round" points="141.241943359375 47.642913818359375 142.13818359375 53.02012634277344 142.58627319335938 58.3973388671875 140.79388427734375 74.97706604003906 135.86474609375 86.17959594726563 127.350830078125 96.93400573730467 123.76605224609376 100.9669189453125 123.76605224609376 100.9669189453125 " />
        <polyline stroke="black" stroke-width="3" stroke-linecap="round" fill="transparent" stroke-linejoin="round" points="92.84710693359376 102.31121826171876 100.46478271484376 100.07072448730467 109.42684936523438 98.2783203125 139.44955444335938 93.79730224609376 168.1280517578125 90.6605987548828 183.36346435546875 88.42008972167969 189.6368408203125 87.52389526367188 201.735595703125 87.07579040527344 204.4241943359375 87.52389526367188 204.4241943359375 87.52389526367188 " />
        <polyline stroke="black" stroke-width="3" stroke-linecap="round" fill="transparent" stroke-linejoin="round" points="79.404052734375 154.739013671875 87.4698486328125 152.05039978027344 96.87997436523438 149.36180114746094 118.38885498046876 143.08837890625 140.79388427734375 136.8149871826172 161.406494140625 130.9896697998047 177.98626708984375 126.95677185058594 190.5330810546875 123.82005310058594 199.94317626953125 122.47575378417967 203.07989501953125 122.47575378417967 203.07989501953125 122.47575378417967 " />
        <polyline stroke="black" stroke-width="3" stroke-linecap="round" fill="transparent" stroke-linejoin="round" points="96.431884765625 161.01242065429688 93.295166015625 173.5592498779297 91.0546875 183.86557006835935 91.0546875 191.03518676757813 91.95089721679688 194.171875 96.431884765625 200.89340209960935 102.25717163085938 205.3743896484375 110.7711181640625 209.4073181152344 121.52557373046876 212.09591674804688 135.86474609375 209.4073181152344 144.378662109375 204.92630004882813 144.378662109375 204.92630004882813 " />
        <polyline stroke="black" stroke-width="3" stroke-linecap="round" fill="transparent" stroke-linejoin="round" points="166.78369140625 172.66305541992188 164.9913330078125 184.76177978515625 161.406494140625 206.71871948242188 160.06219482421875 210.75161743164065 157.82171630859375 216.57693481445313 155.133056640625 220.60983276367188 155.133056640625 220.60983276367188 " />
        </svg>