<?xml version="1.0" standalone="no"?>
    <svg width="256" height="256" xmlns="http://www.w3.org/2000/svg" version="1.1">
    <polyline stroke="black" stroke-width="3" stroke-linecap="round" fill="transparent" stroke-linejoin="round" points="137.67596435546875 51.063255310058594 136.02316284179688 64.28579711914063 130.5137939453125 79.71209716796875 130.5137939453125 79.71209716796875 " />
        <polyline stroke="black" stroke-width="3" stroke-linecap="round" fill="transparent" stroke-linejoin="round" points="76.521728515625 94.58746337890624 91.3970947265625 87.9761962890625 123.90249633789063 77.50834655761719 143.18536376953125 71.99894714355469 166.3248291015625 67.04049682617188 180.09832763671875 64.28579711914063 188.913330078125 63.73486328125 188.913330078125 63.73486328125 " />
        <polyline stroke="black" stroke-width="3" stroke-linecap="round" fill="transparent" stroke-linejoin="round" points="69.91043090820313 129.84759521484375 93.600830078125 121.58349609375 126.65719604492188 112.76846313476563 148.69476318359375 107.2590789794922 168.528564453125 103.40249633789063 181.75115966796875 100.64779663085938 190.0152587890625 98.99497985839844 190.0152587890625 98.99497985839844 " />
        <polyline stroke="black" stroke-width="3" stroke-linecap="round" fill="transparent" stroke-linejoin="round" points="106.8233642578125 142.51919555664063 101.31396484375 149.13047790527344 96.90646362304688 161.2511444091797 94.70269775390624 176.6774444580078 95.80459594726563 191.0018615722656 98.55926513671876 202.57159423828125 102.41586303710938 209.182861328125 108.4761962890625 212.48849487304688 120.04592895507813 210.835693359375 131.61566162109375 205.3262939453125 140.98162841796875 195.9603271484375 153.6531982421875 171.1680450439453 153.6531982421875 171.1680450439453 " />
        <polyline stroke="black" stroke-width="3" stroke-linecap="round" fill="transparent" stroke-linejoin="round" points="151.449462890625 134.25511169433594 151.449462890625 149.68141174316406 152.55133056640625 167.86241149902344 153.6531982421875 184.39059448242188 156.9588623046875 200.91879272460935 156.9588623046875 200.91879272460935 " />
        </svg>