<?xml version="1.0" standalone="no"?>
    <svg width="256" height="256" xmlns="http://www.w3.org/2000/svg" version="1.1">
    <polyline stroke="black" stroke-width="3" stroke-linecap="round" fill="transparent" stroke-linejoin="round" points="112 70 111 72 111 73 111 79 112 85 113 91 112 96 111 100 110 102 109 103 110 102 110 102 " />
        <polyline stroke="black" stroke-width="3" stroke-linecap="round" fill="transparent" stroke-linejoin="round" points="73 114 75 113 88 109 106 103 125 98 137 96 141 95 152 94 159 94 161 96 161 96 " />
        <polyline stroke="black" stroke-width="3" stroke-linecap="round" fill="transparent" stroke-linejoin="round" points="47 155 51 153 65 148 86 141 109 134 133 127 152 122 165 120 172 120 174 122 173 125 173 125 " />
        <polyline stroke="black" stroke-width="3" stroke-linecap="round" fill="transparent" stroke-linejoin="round" points="91 141 91 144 92 150 94 157 94 160 94 172 94 183 94 190 95 194 97 194 102 191 109 188 114 185 116 184 120 181 121 180 125 178 127 176 127 176 " />
        <polyline stroke="black" stroke-width="3" stroke-linecap="round" fill="transparent" stroke-linejoin="round" points="132 126 131 136 131 149 131 158 131 161 130 168 130 170 129 177 129 180 129 180 " />
        </svg>