<?xml version="1.0" standalone="no"?>
    <svg width="256" height="256" xmlns="http://www.w3.org/2000/svg" version="1.1">
    <polyline stroke="black" stroke-width="3" stroke-linecap="round" fill="transparent" stroke-linejoin="round" points="58.1331787109375 52.6712646484375 58.7421875 67.89617919921875 59.3511962890625 98.3459930419922 59.960205078125 123.92384338378906 61.78717041015625 150.71969604492188 63.00518798828125 168.9895782470703 63.614166259765625 183.60549926757813 63.614166259765625 190.9134521484375 63.614166259765625 193.34945678710935 63.614166259765625 186.04147338867188 63.614166259765625 186.04147338867188 " />
        <polyline stroke="black" stroke-width="3" stroke-linecap="round" fill="transparent" stroke-linejoin="round" points="56.91522216796875 88.60205078125 73.96710205078125 75.20413208007813 87.97402954101563 67.28717041015625 110.50689697265624 57.54322814941406 137.9117431640625 50.23527526855469 162.880615234375 49.01728057861328 179.323486328125 53.28025817871094 193.93939208984375 62.41520690917969 204.2923583984375 79.46710205078125 211.600341796875 108.08993530273438 210.9913330078125 140.3667449951172 204.9013671875 168.38058471679688 194.54840087890625 191.5224609375 184.1954345703125 203.0933837890625 184.1954345703125 203.0933837890625 " />
        <polyline stroke="black" stroke-width="3" stroke-linecap="round" fill="transparent" stroke-linejoin="round" points="87.97402954101563 103.2179718017578 98.32696533203124 112.35292053222656 104.41693115234376 118.44287109375 112.94287109375 125.141845703125 123.29583740234376 130.622802734375 135.47576904296875 132.44979858398438 149.482666015625 125.141845703125 159.8355712890625 116.00689697265624 165.31658935546875 109.30793762207033 168.9705810546875 105.04495239257813 170.79754638671875 103.2179718017578 170.79754638671875 104.43595886230467 168.361572265625 108.6989288330078 164.09857177734375 115.3979034423828 154.3546142578125 126.35983276367188 139.12973022460938 138.53976440429688 139.12973022460938 138.53976440429688 " />
        <polyline stroke="black" stroke-width="3" stroke-linecap="round" fill="transparent" stroke-linejoin="round" points="132.4307861328125 82.5120849609375 131.82177734375 103.82696533203124 131.2127685546875 119.66087341308594 128.77679443359375 136.10377502441406 125.7318115234375 150.11068725585938 121.46881103515624 161.68162536621094 115.98785400390624 171.42556762695313 108.0709228515625 179.95152282714844 108.0709228515625 179.95152282714844 " />
        <polyline stroke="black" stroke-width="3" stroke-linecap="round" fill="transparent" stroke-linejoin="round" points="73.96710205078125 193.34945678710935 89.801025390625 189.08645629882813 101.3719482421875 185.4324951171875 117.20587158203124 181.1695098876953 132.4307861328125 178.12452697753906 146.43768310546875 176.29754638671875 154.963623046875 175.0795440673828 159.8355712890625 175.0795440673828 160.444580078125 175.0795440673828 160.444580078125 175.0795440673828 " />
        <polyline stroke="black" stroke-width="3" stroke-linecap="round" fill="transparent" stroke-linejoin="round" points="64.22314453125 232.32522583007813 75.79409790039063 229.88922119140625 87.97402954101563 228.67123413085935 105.63491821289063 227.4532470703125 125.7318115234375 225.62625122070313 148.8736572265625 223.79925537109375 167.7525634765625 221.9722900390625 179.9324951171875 219.53628540039065 186.0224609375 217.70928955078125 188.45843505859375 217.70928955078125 188.45843505859375 217.70928955078125 " />
        </svg>