<?xml version="1.0" standalone="no"?>
    <svg width="256" height="256" xmlns="http://www.w3.org/2000/svg" version="1.1">
    <polyline stroke="black" stroke-width="3" stroke-linecap="round" fill="transparent" stroke-linejoin="round" points="95.644287109375 58.73994445800781 95.644287109375 71.10723876953125 94.31927490234376 84.79959106445313 92.552490234375 98.491943359375 87.252197265625 125.43498229980467 80.18524169921875 154.14476013183594 70.468017578125 183.7379150390625 61.63427734375 204.05560302734375 55.00897216796875 215.98123168945313 50.592041015625 223.48992919921875 50.592041015625 223.48992919921875 " />
        <polyline stroke="black" stroke-width="3" stroke-linecap="round" fill="transparent" stroke-linejoin="round" points="87.252197265625 41.95576477050781 93.43588256835938 40.63069152832031 101.38629150390624 38.86394500732422 119.93719482421876 34.447044372558594 137.1630859375 30.471847534179688 145.11346435546875 29.14678192138672 158.3641357421875 27.82170867919922 168.081298828125 28.263412475585938 174.2650146484375 30.913536071777344 176.473388671875 33.56367492675781 180.0069580078125 54.32305145263672 170.289794921875 105.11727905273438 165.43115234375 121.01809692382813 153.505615234375 165.18698120117188 151.73883056640625 186.3880615234375 153.947265625 203.1722412109375 156.597412109375 208.9141845703125 164.54779052734375 217.3062744140625 185.30718994140625 226.58175659179688 191.4908447265625 227.9068298339844 207.8333740234375 227.9068298339844 211.80853271484375 226.58175659179688 218.43389892578125 223.0482482910156 227.7093505859375 210.68096923828125 233.0096435546875 197.8719787597656 233.0096435546875 197.8719787597656 " />
        <polyline stroke="black" stroke-width="3" stroke-linecap="round" fill="transparent" stroke-linejoin="round" points="138.92987060546875 73.75736999511719 132.74618530273438 81.26608276367188 125.23748779296876 89.65817260742188 108.45330810546876 108.2091064453125 101.82797241210938 115.27615356445313 92.552490234375 124.1099090576172 87.252197265625 128.08511352539063 85.92718505859375 128.52682495117188 85.92718505859375 128.52682495117188 " />
        <polyline stroke="black" stroke-width="3" stroke-linecap="round" fill="transparent" stroke-linejoin="round" points="118.61215209960938 84.35791015625 123.91241455078124 86.12466430664063 129.212646484375 88.33309936523438 141.13827514648438 93.63336181640624 150.41375732421875 98.491943359375 156.15570068359375 102.46714782714844 158.3641357421875 104.23391723632813 158.3641357421875 104.23391723632813 " />
        <polyline stroke="black" stroke-width="3" stroke-linecap="round" fill="transparent" stroke-linejoin="round" points="115.96200561523438 154.58645629882813 113.31185913085938 179.76272583007813 112.428466796875 185.9463806152344 110.6617431640625 195.66351318359375 108.89498901367188 201.40548706054688 107.56991577148438 204.05560302734375 106.6865234375 204.93899536132813 104.91976928710938 204.93899536132813 103.15301513671876 204.05560302734375 100.944580078125 202.7305603027344 98.29443359375 199.63873291015625 96.52767944335938 196.98858642578125 92.11083984375 189.0382080078125 92.11083984375 189.0382080078125 " />
        <polyline stroke="black" stroke-width="3" stroke-linecap="round" fill="transparent" stroke-linejoin="round" points="90.78573608398438 172.25401306152344 89.460693359375 176.22921752929688 87.69393920898438 180.20440673828125 85.92718505859375 184.62130737304688 85.92718505859375 184.62130737304688 " />
        <polyline stroke="black" stroke-width="3" stroke-linecap="round" fill="transparent" stroke-linejoin="round" points="140.69662475585938 163.86192321777344 142.02166748046875 178.43765258789063 142.02166748046875 178.43765258789063 " />
        </svg>