<?xml version="1.0" standalone="no"?>
    <svg width="256" height="256" xmlns="http://www.w3.org/2000/svg" version="1.1">
    <polyline stroke="black" stroke-width="3" stroke-linecap="round" fill="transparent" stroke-linejoin="round" points="99.15936279296876 73.75270080566406 96.69589233398438 86.89097595214844 93.41134643554688 100.85040283203124 86.84222412109375 132.87493896484375 80.2730712890625 161.20433044433594 73.70394897460938 185.0174560546875 66.72421264648438 202.6719970703125 63.8502197265625 208.41998291015625 61.386810302734375 212.52569580078125 61.386810302734375 212.52569580078125 " />
        <polyline stroke="black" stroke-width="3" stroke-linecap="round" fill="transparent" stroke-linejoin="round" points="114.76107788085938 54.45586395263672 127.07818603515624 49.529014587402344 142.269287109375 44.19158935546875 156.6392822265625 39.67530822753906 169.366943359375 36.80131530761719 179.220703125 36.39073944091797 186.20037841796875 38.44359588623047 191.537841796875 45.012725830078125 196.0540771484375 62.2567138671875 196.875244140625 85.65927124023438 195.6435546875 111.11466979980467 194.001220703125 135.33836364746094 193.5906982421875 156.2774658203125 194.8223876953125 172.70030212402344 197.6964111328125 183.7857360839844 201.8021240234375 190.3548583984375 208.3712158203125 194.87115478515625 217.81439208984375 196.513427734375 228.8997802734375 194.4605712890625 241.2169189453125 186.2491455078125 254.7657470703125 169.0051727294922 254.7657470703125 169.0051727294922 " />
        <polyline stroke="black" stroke-width="3" stroke-linecap="round" fill="transparent" stroke-linejoin="round" points="154.99700927734375 68.415283203125 143.91156005859375 87.71211242675781 131.59445190429688 106.18780517578124 121.33016967773438 120.147216796875 113.11874389648438 130.00091552734375 106.54962158203124 135.74893188476563 103.26507568359376 137.80178833007813 103.26507568359376 137.80178833007813 " />
        <polyline stroke="black" stroke-width="3" stroke-linecap="round" fill="transparent" stroke-linejoin="round" points="141.03759765625 93.04953002929688 153.76531982421875 96.3341064453125 165.671875 100.02923583984376 175.114990234375 104.13494873046876 180.86297607421875 107.00895690917967 182.5052490234375 107.83010864257813 182.5052490234375 107.83010864257813 " />
        <polyline stroke="black" stroke-width="3" stroke-linecap="round" fill="transparent" stroke-linejoin="round" points="134.87899780273438 133.28549194335938 136.1107177734375 146.42376708984375 138.57415771484375 166.541748046875 139.395263671875 178.0377197265625 139.395263671875 185.83859252929688 138.57415771484375 191.176025390625 136.52133178710938 194.87115478515625 133.64730834960938 196.92401123046875 128.720458984375 197.74514770507813 128.720458984375 197.74514770507813 " />
        <polyline stroke="black" stroke-width="3" stroke-linecap="round" fill="transparent" stroke-linejoin="round" points="97.9276123046875 167.77346801757813 93.82196044921876 180.090576171875 90.94793701171876 188.71258544921875 88.89508056640625 194.04998779296875 87.66339111328125 196.92401123046875 87.66339111328125 196.92401123046875 " />
        <polyline stroke="black" stroke-width="3" stroke-linecap="round" fill="transparent" stroke-linejoin="round" points="157.87103271484375 151.76119995117188 163.6190185546875 160.7937469482422 166.903564453125 169.0051727294922 166.903564453125 169.0051727294922 " />
        </svg>