<?xml version="1.0" standalone="no"?>
    <svg width="256" height="256" xmlns="http://www.w3.org/2000/svg" version="1.1">
    <polyline stroke="black" stroke-width="3" stroke-linecap="round" fill="transparent" stroke-linejoin="round" points="72.6993408203125 113.23887634277344 71.30465698242188 155.75230407714844 69.327392578125 173.3987274169922 66.58187866210938 187.62860107421875 60.065643310546875 207.82015991210935 57.10955810546875 214.398193359375 56.813934326171875 215.0560302734375 " />
        <polyline stroke="black" stroke-width="3" stroke-linecap="round" fill="transparent" stroke-linejoin="round" points="86.666748046875 82.11669921875 92.87716674804688 79.24484252929688 99.26708984375 76.58473205566406 113.77047729492188 72.17671203613281 118.81234741210938 70.55148315429688 138.93710327148438 67.48492431640625 143.85357666015625 67.41546630859375 159.7637939453125 68.67156982421875 165.4127197265625 71.63255310058594 165.325439453125 74.41749572753906 167.8287353515625 95.02580261230467 168.591796875 111.3717041015625 168.6434326171875 146.20211791992188 167.379638671875 168.42236328125 167.24853515625 176.35891723632813 167.98724365234375 183.653076171875 172.5865478515625 195.24703979492188 175.73114013671875 199.49880981445313 181.81304931640625 203.28509521484375 189.13482666015625 205.68453979492188 192.6348876953125 205.71148681640625 197.58551025390625 204.03277587890625 198.6162109375 202.33587646484375 200.27252197265625 198.48992919921875 201.3870849609375 192.2183532714844 200.46337890625 181.46450805664065 199.80841064453125 179.08714294433594 " />
        <polyline stroke="black" stroke-width="3" stroke-linecap="round" fill="transparent" stroke-linejoin="round" points="128.69677734375 90.8012237548828 124.87725830078124 94.0791015625 120.45455932617188 99.19084167480467 109.31134033203124 112.65928649902344 92.23492431640624 128.36119079589844 86.13265991210938 133.21690368652344 85.52243041992188 133.70248413085938 " />
        <polyline stroke="black" stroke-width="3" stroke-linecap="round" fill="transparent" stroke-linejoin="round" points="109.27914428710938 108.30851745605467 133.106201171875 116.85379028320313 142.83746337890625 121.19992065429688 159.9610595703125 128.22982788085938 161.9739990234375 128.93911743164063 164.5684814453125 129.15090942382813 164.827880859375 129.17205810546875 " />
        <polyline stroke="black" stroke-width="3" stroke-linecap="round" fill="transparent" stroke-linejoin="round" points="120.923828125 166.60073852539063 121.42266845703124 177.48887634277344 121.70687866210938 196.67556762695313 121.61434936523438 203.57403564453125 120.75567626953124 212.28585815429688 120.277587890625 213.63519287109375 120.22705078125 213.77780151367188 120.22576904296876 213.78143310546875 118.93682861328124 213.13296508789065 116.00497436523438 211.01174926757813 103.89654541015624 197.03274536132813 102.394287109375 195.07672119140625 " />
        <polyline stroke="black" stroke-width="3" stroke-linecap="round" fill="transparent" stroke-linejoin="round" points="87.66497802734375 189.48654174804688 85.41049194335938 195.906494140625 79.53890991210938 204.85736083984375 78.195556640625 205.5870056152344 78.10772705078125 205.599853515625 " />
        <polyline stroke="black" stroke-width="3" stroke-linecap="round" fill="transparent" stroke-linejoin="round" points="153.3555908203125 181.5949554443359 160.22607421875 184.234130859375 165.05059814453125 186.75518798828125 170.54937744140625 189.92416381835935 170.715576171875 190.01953125 " />
        </svg>