<?xml version="1.0" standalone="no"?>
    <svg width="256" height="256" xmlns="http://www.w3.org/2000/svg" version="1.1">
    <polyline stroke="black" stroke-width="3" stroke-linecap="round" fill="transparent" stroke-linejoin="round" points="82.70565795898438 67.26368713378906 78.55538940429688 98.15992736816406 75.327392578125 117.98887634277344 71.6383056640625 135.9732666015625 51.348236083984375 196.84347534179688 44.892303466796875 207.9107666015625 42.125457763671875 211.59988403320313 42.125457763671875 211.59988403320313 " />
        <polyline stroke="black" stroke-width="3" stroke-linecap="round" fill="transparent" stroke-linejoin="round" points="106.684814453125 55.27409362792969 111.296142578125 50.201568603515625 116.829833984375 44.66792297363281 123.28573608398438 39.13426208496094 138.04217529296875 30.833786010742188 151.8763427734375 28.528099060058594 165.24932861328125 30.833786010742188 175.85546875 40.97882080078125 186.00054931640625 68.18595886230469 189.68963623046875 112.45523071289063 189.68963623046875 148.88511657714844 191.5341796875 179.78135681152344 196.14556884765625 201.454833984375 202.140380859375 214.36669921875 209.05743408203125 221.2837829589844 218.7413330078125 225.89517211914065 231.19207763671875 222.66720581054688 238.109130859375 217.133544921875 238.109130859375 217.133544921875 " />
        <polyline stroke="black" stroke-width="3" stroke-linecap="round" fill="transparent" stroke-linejoin="round" points="132.04736328125 95.854248046875 125.59149169921876 103.69358825683594 114.06298828125 115.68316650390624 108.52935791015624 120.2945556640625 97.92318725585938 127.21163940429688 89.62274169921875 129.51731872558594 89.62274169921875 129.51731872558594 " />
        <polyline stroke="black" stroke-width="3" stroke-linecap="round" fill="transparent" stroke-linejoin="round" points="111.75732421875 101.38790893554688 121.44125366210938 104.61587524414063 132.04736328125 108.3049774169922 150.95404052734375 114.29977416992188 158.79339599609375 117.06658935546876 168.93841552734375 120.75570678710938 168.93841552734375 120.75570678710938 " />
        <polyline stroke="black" stroke-width="3" stroke-linecap="round" fill="transparent" stroke-linejoin="round" points="132.96966552734375 163.64154052734375 132.50851440429688 171.01974487304688 132.04736328125 177.9368133544922 127.89715576171876 194.53778076171875 124.20806884765624 199.61029052734375 119.135498046875 201.454833984375 116.829833984375 201.454833984375 116.829833984375 201.454833984375 " />
        <polyline stroke="black" stroke-width="3" stroke-linecap="round" fill="transparent" stroke-linejoin="round" points="97.46200561523438 165.0249481201172 " />
        <polyline stroke="black" stroke-width="3" stroke-linecap="round" fill="transparent" stroke-linejoin="round" points="180.4669189453125 199.149169921875 " />
        </svg>