<?xml version="1.0" standalone="no"?>
    <svg width="256" height="256" xmlns="http://www.w3.org/2000/svg" version="1.1">
    <polyline stroke="black" stroke-width="3" stroke-linecap="round" fill="transparent" stroke-linejoin="round" points="75.732666015625 67.4222412109375 74.8978271484375 75.77088928222656 74.48040771484375 90.79843139648438 74.48040771484375 108.33056640625 74.48040771484375 115.00950622558594 74.48040771484375 115.00950622558594 " />
        <polyline stroke="black" stroke-width="3" stroke-linecap="round" fill="transparent" stroke-linejoin="round" points="94.9345703125 59.49104309082031 99.10888671875 55.734153747558594 103.70062255859376 51.559837341308594 119.98046875 41.541473388671875 130.416259765625 38.20201873779297 138.764892578125 37.367149353027344 146.2786865234375 39.03688049316406 151.287841796875 42.79376220703125 155.879638671875 51.977264404296875 156.7144775390625 67.83969116210938 151.705322265625 84.95439147949219 138.764892578125 104.57369995117188 138.764892578125 104.57369995117188 " />
        <polyline stroke="black" stroke-width="3" stroke-linecap="round" fill="transparent" stroke-linejoin="round" points="90.34286499023438 121.68840026855467 97.43914794921876 118.76638793945313 112.46673583984376 113.33975219726563 126.241943359375 109.16543579101563 131.66854858398438 107.9131317138672 142.939208984375 106.66085815429688 144.60897827148438 107.9131317138672 144.60897827148438 107.9131317138672 " />
        <polyline stroke="black" stroke-width="3" stroke-linecap="round" fill="transparent" stroke-linejoin="round" points="63.209716796875 180.96371459960935 62.792327880859375 183.05088806152344 61.540008544921875 187.64263916015625 61.12255859375 188.47747802734375 60.705169677734375 188.8949279785156 60.705169677734375 188.47747802734375 62.3748779296875 184.7206115722656 66.96664428710938 176.37197875976563 73.22811889648438 167.60589599609375 79.90704345703125 160.09213256835938 88.25567626953125 152.99578857421875 96.60433959960938 147.98660278320313 103.70062255859376 145.48202514648438 108.29241943359376 145.0645751953125 110.37957763671876 146.31687927246094 111.21441650390624 152.16091918945313 106.62265014648438 164.26644897460938 97.021728515625 177.624267578125 86.5859375 188.06005859375 78.2373046875 194.73898315429688 75.31527709960938 196.82614135742188 70.30609130859375 199.33071899414065 69.05380249023438 199.33071899414065 69.47125244140625 198.91329956054688 73.64556884765625 196.82614135742188 82.41162109375 194.321533203125 87.83822631835938 193.0692443847656 100.77862548828124 190.147216796875 110.37957763671876 188.47747802734375 110.37957763671876 188.47747802734375 " />
        <polyline stroke="black" stroke-width="3" stroke-linecap="round" fill="transparent" stroke-linejoin="round" points="155.879638671875 171.78021240234375 153.375 180.5462951660156 149.20068359375 197.6610107421875 148.3658447265625 200.5830078125 147.531005859375 204.75732421875 146.69613647460938 206.42706298828125 146.69613647460938 206.0096435546875 146.69613647460938 204.75732421875 147.113525390625 203.08761596679688 151.287841796875 195.15640258789065 157.1319580078125 188.06005859375 165.4805908203125 180.5462951660156 176.33380126953125 172.61508178710938 187.60443115234375 166.35360717773438 196.7879638671875 162.5967254638672 203.88427734375 161.34442138671875 209.3109130859375 161.7618408203125 212.23291015625 163.8489990234375 215.15496826171875 170.9453582763672 213.4852294921875 186.39031982421875 203.88427734375 206.42706298828125 203.88427734375 206.42706298828125 " />
        <polyline stroke="black" stroke-width="3" stroke-linecap="round" fill="transparent" stroke-linejoin="round" points="169.6549072265625 215.19314575195313 175.49896240234375 213.10598754882813 181.34295654296875 211.43624877929688 191.361328125 208.51422119140625 204.3017578125 208.0968017578125 204.3017578125 208.0968017578125 " />
        </svg>