<?xml version="1.0" standalone="no"?>
    <svg width="256" height="256" xmlns="http://www.w3.org/2000/svg" version="1.1">
    <polyline stroke="black" stroke-width="3" stroke-linecap="round" fill="transparent" stroke-linejoin="round" points="81.63314819335938 79.1763916015625 82.872314453125 86.19825744628906 83.69842529296875 92.80705261230467 83.69842529296875 101.06805419921876 83.28536987304688 103.54637145996094 82.45928955078125 105.19857788085938 81.63314819335938 104.78550720214844 80.80706787109375 98.58975219726563 84.52450561523438 88.67654418945313 92.37249755859376 78.76335144042969 98.56820678710938 73.39369201660156 124.17733764648438 60.17608642578125 140.6993408203125 57.28472900390625 151.025634765625 58.11083984375 155.5692138671875 60.589141845703125 156.80828857421875 69.26318359375 148.13424682617188 86.19825744628906 129.96005249023438 103.95941162109376 109.30755615234376 117.17703247070313 95.26385498046876 122.13363647460938 89.06805419921875 122.13363647460938 88.655029296875 120.068359375 92.78549194335938 114.2856903076172 105.177001953125 106.024658203125 121.69906616210938 98.58975219726563 135.74276733398438 95.2853546142578 142.76458740234375 95.2853546142578 142.76458740234375 95.2853546142578 " />
        <polyline stroke="black" stroke-width="3" stroke-linecap="round" fill="transparent" stroke-linejoin="round" points="56.0240478515625 165.91696166992188 54.784881591796875 169.6343994140625 52.30657958984375 175.41709899902344 52.30657958984375 175.41709899902344 53.95880126953125 173.764892578125 72.13299560546875 160.54730224609375 89.8941650390625 151.04714965820313 105.177001953125 146.09054565429688 115.09027099609376 146.09054565429688 119.6337890625 148.15579223632813 119.220703125 155.5906982421875 106.00314331054688 172.93881225585938 86.17672729492188 188.63470458984375 70.48080444335938 198.1348876953125 61.806732177734375 201.85232543945313 60.154541015625 202.67843627929688 59.74151611328125 202.265380859375 61.806732177734375 201.43927001953125 79.98095703125 196.06964111328125 95.26385498046876 191.52606201171875 109.30755615234376 188.2216796875 123.7642822265625 184.0911865234375 123.7642822265625 184.0911865234375 " />
        <polyline stroke="black" stroke-width="3" stroke-linecap="round" fill="transparent" stroke-linejoin="round" points="134.9166259765625 166.7430419921875 133.677490234375 170.04745483398438 132.85140991210938 172.93881225585938 131.61224365234375 176.65625 131.61224365234375 178.30845642089844 135.74276733398438 176.2432098388672 148.13424682617188 168.80828857421875 164.65625 159.72119140625 178.28692626953125 153.5254364013672 183.6566162109375 151.87322998046875 192.74365234375 151.46018981933594 194.8089599609375 153.93850708007813 193.56976318359375 162.612548828125 190.265380859375 169.2213592529297 173.330322265625 188.63470458984375 161.764892578125 196.482666015625 154.7430419921875 200.6131591796875 153.0908203125 201.0262451171875 153.50390625 200.6131591796875 161.764892578125 198.1348876953125 174.9825439453125 195.2435302734375 191.09149169921875 194.8304748535156 207.200439453125 200.20013427734375 207.200439453125 200.20013427734375 " />
        </svg>