<?xml version="1.0" standalone="no"?>
    <svg width="256" height="256" xmlns="http://www.w3.org/2000/svg" version="1.1">
    <polyline stroke="black" stroke-width="3" stroke-linecap="round" fill="transparent" stroke-linejoin="round" points="88.9100341796875 76.01432800292969 97.913818359375 96.85812377929688 99.85400390625 118.64422607421876 98.81747436523438 121.20193481445313 " />
        <polyline stroke="black" stroke-width="3" stroke-linecap="round" fill="transparent" stroke-linejoin="round" points="105.59042358398438 56.914093017578125 111.90280151367188 54.448883056640625 124.57833862304688 50.82696533203125 130.0880126953125 50.121063232421875 138.19012451171875 50.56627655029297 141.46734619140625 51.436737060546875 146.36517333984375 54.62359619140625 147.22885131835938 55.70111083984375 147.77838134765625 57.291473388671875 149.44760131835938 67.53271484375 148.14913940429688 77.7435302734375 145.80987548828125 84.03868103027344 145.23764038085938 83.94718933105469 " />
        <polyline stroke="black" stroke-width="3" stroke-linecap="round" fill="transparent" stroke-linejoin="round" points="116.197021484375 83.11660766601563 122.58895874023438 81.51858520507813 130.82260131835938 78.70304870605469 131.14422607421875 78.57730102539063 131.252685546875 78.53488159179688 " />
        <polyline stroke="black" stroke-width="3" stroke-linecap="round" fill="transparent" stroke-linejoin="round" points="49.147064208984375 175.2054443359375 52.586639404296875 181.46481323242188 57.771942138671875 190.55975341796875 59.725067138671875 193.39944458007813 62.251708984375 193.5166015625 63.02337646484375 193.07199096679688 " />
        <polyline stroke="black" stroke-width="3" stroke-linecap="round" fill="transparent" stroke-linejoin="round" points="84.8446044921875 125.54806518554688 93.633544921875 123.17080688476563 112.92294311523438 120.53361511230467 125.28317260742188 121.54629516601563 127.248291015625 123.33615112304688 128.40582275390625 128.62484741210938 128.89263916015625 134.26141357421875 127.37579345703124 150.27456665039063 117.88818359375 173.0350341796875 110.10968017578124 185.1175537109375 102.94210815429688 191.67755126953125 102.61065673828124 189.58258056640625 " />
        <polyline stroke="black" stroke-width="3" stroke-linecap="round" fill="transparent" stroke-linejoin="round" points="92.23553466796876 190.6231689453125 100.05819702148438 188.3055725097656 113.743896484375 185.43170166015625 114.35934448242188 185.38003540039065 " />
        <polyline stroke="black" stroke-width="3" stroke-linecap="round" fill="transparent" stroke-linejoin="round" points="142.24008178710938 136.53924560546875 151.5047607421875 158.72305297851563 155.4346923828125 168.96617126464844 160.87255859375 183.28863525390625 161.02996826171875 188.82815551757813 161.52899169921875 189.40847778320313 161.5633544921875 189.44842529296875 " />
        <polyline stroke="black" stroke-width="3" stroke-linecap="round" fill="transparent" stroke-linejoin="round" points="168.5845947265625 117.24755859375 175.596923828125 117.36019897460938 188.478759765625 119.82926940917967 194.001220703125 122.39895629882813 199.2373046875 129.9011688232422 204.572021484375 142.79257202148438 207.0927734375 152.63638305664063 207.84613037109375 171.75982666015625 204.6517333984375 188.64532470703125 201.13623046875 194.0477600097656 200.05926513671875 190.6939697265625 " />
        <polyline stroke="black" stroke-width="3" stroke-linecap="round" fill="transparent" stroke-linejoin="round" points="193.44287109375 182.5166015625 198.3521728515625 183.8609619140625 198.636962890625 183.9469451904297 " />
        </svg>