<?xml version="1.0" standalone="no"?>
    <svg width="256" height="256" xmlns="http://www.w3.org/2000/svg" version="1.1">
    <polyline stroke="black" stroke-width="3" stroke-linecap="round" fill="transparent" stroke-linejoin="round" points="70.79257202148438 71.0288543701172 71.66119384765625 85.21592712402344 72.52981567382813 99.40299987792967 73.39837646484375 111.2738037109375 74.84603881835938 122.56556701660156 76.87277221679688 130.96200561523438 78.03091430664063 136.75265502929688 79.18899536132813 136.17356872558594 79.18899536132813 136.17356872558594 " />
        <polyline stroke="black" stroke-width="3" stroke-linecap="round" fill="transparent" stroke-linejoin="round" points="84.40057373046876 79.13572692871094 104.3782958984375 75.371826171875 124.35601806640624 71.60792541503906 142.59652709960938 68.133544921875 161.1265869140625 65.23820495605469 174.44512939453125 64.08009338378906 182.55194091796875 64.94866943359375 190.07977294921875 68.133544921875 194.71234130859375 74.50323486328125 196.15997314453125 85.79499816894531 193.2646484375 100.2716064453125 188.63214111328125 113.59007263183594 183.9996337890625 119.67024230957033 183.9996337890625 119.67024230957033 " />
        <polyline stroke="black" stroke-width="3" stroke-linecap="round" fill="transparent" stroke-linejoin="round" points="127.5408935546875 72.1869659423828 122.039794921875 88.40077209472656 116.5386962890625 104.61457824707033 110.16897583007813 124.88180541992188 107.27359008789063 130.96200561523438 107.27359008789063 130.96200561523438 " />
        <polyline stroke="black" stroke-width="3" stroke-linecap="round" fill="transparent" stroke-linejoin="round" points="69.92401123046875 134.43643188476563 89.32266235351563 132.40968322753906 108.7213134765625 130.3829345703125 127.2513427734375 129.51434326171875 143.46514892578125 128.35621643066406 156.20452880859375 128.06668090820313 166.33819580078125 128.06668090820313 169.2335205078125 128.06668090820313 169.2335205078125 128.06668090820313 " />
        <polyline stroke="black" stroke-width="3" stroke-linecap="round" fill="transparent" stroke-linejoin="round" points="116.82821655273438 144.28041076660156 117.40725708007813 158.75704956054688 117.98629760742188 173.2336883544922 118.56539916992188 184.81497192382813 118.85491943359376 196.685791015625 118.56539916992188 202.1868896484375 118.27587890625 203.63455200195313 118.27587890625 203.63455200195313 " />
        <polyline stroke="black" stroke-width="3" stroke-linecap="round" fill="transparent" stroke-linejoin="round" points="32.284820556640625 222.45416259765625 46.182373046875 218.40069580078125 60.079925537109375 214.34722900390625 77.74139404296875 210.29379272460935 110.45849609375 204.79269409179688 144.623291015625 201.02874755859375 174.73455810546875 198.7125244140625 198.47625732421875 197.55438232421875 217.00628662109375 198.13345336914065 229.45623779296875 199.87063598632813 234.08868408203125 201.3182678222656 234.08868408203125 201.3182678222656 " />
        </svg>