<?xml version="1.0" standalone="no"?>
    <svg width="256" height="256" xmlns="http://www.w3.org/2000/svg" version="1.1">
    <polyline stroke="black" stroke-width="3" stroke-linecap="round" fill="transparent" stroke-linejoin="round" points="68.63555908203125 67.51345825195313 70.50570678710938 73.49795532226563 72.3758544921875 79.48245239257813 76.49020385742188 92.57351684570313 80.60455322265625 105.29055786132813 83.59677124023438 113.51925659179688 84.7188720703125 116.137451171875 84.7188720703125 116.137451171875 " />
        <polyline stroke="black" stroke-width="3" stroke-linecap="round" fill="transparent" stroke-linejoin="round" points="72.00189208984375 77.986328125 88.45919799804688 71.25376892089844 104.91650390625 64.52120971679688 114.641357421875 61.154937744140625 125.86224365234376 57.788665771484375 149.05218505859375 51.430137634277344 159.8990478515625 49.55998229980469 185.7071533203125 49.55998229980469 196.1800537109375 53.30028533935547 202.91259765625 60.0328369140625 208.1490478515625 73.87197875976563 208.5230712890625 91.451416015625 207.0269775390625 100.42816162109376 198.4241943359375 118.0076141357422 198.4241943359375 118.0076141357422 " />
        <polyline stroke="black" stroke-width="3" stroke-linecap="round" fill="transparent" stroke-linejoin="round" points="135.96112060546875 81.72665405273438 136.33514404296875 88.83322143554688 136.70916748046875 95.93978881835938 136.70916748046875 103.42041015625 136.70916748046875 110.15298461914063 134.8389892578125 121.37388610839844 131.47271728515625 129.60256958007813 131.47271728515625 129.60256958007813 " />
        <polyline stroke="black" stroke-width="3" stroke-linecap="round" fill="transparent" stroke-linejoin="round" points="85.8409729003906 120.99984741210935 93.69561767578124 119.12969970703124 101.55026245117188 117.25955200195313 109.7789306640625 115.763427734375 118.75567626953124 114.64134216308594 135.2130126953125 112.02311706542967 150.92230224609375 110.15298461914063 162.51727294921875 109.40489196777344 167.379638671875 109.7789306640625 167.379638671875 109.7789306640625 " />
        <polyline stroke="black" stroke-width="3" stroke-linecap="round" fill="transparent" stroke-linejoin="round" points="126.61035156250003 167.753662109375 124.74017333984376 173.3641357421875 122.8699951171875 178.974609375 120.99984741210938 184.2110595703125 114.641357421875 195.43197631835935 114.641357421875 195.43197631835935 " />
        <polyline stroke="black" stroke-width="3" stroke-linecap="round" fill="transparent" stroke-linejoin="round" points="60.7808837890625 212.26336669921875 70.50570678710938 210.0191650390625 80.23052978515625 207.77496337890625 118.75567626953124 200.29437255859375 131.47271728515625 198.7982482910156 155.03662109375 197.3021240234375 165.509521484375 197.3021240234375 187.20330810546875 199.1722717285156 187.20330810546875 199.1722717285156 " />
        </svg>