<?xml version="1.0" standalone="no"?>
    <svg width="256" height="256" xmlns="http://www.w3.org/2000/svg" version="1.1">
    <polyline stroke="black" stroke-width="3" stroke-linecap="round" fill="transparent" stroke-linejoin="round" points="56.16876220703125 88.03890991210938 58.84375 93.7607421875 61.51873779296875 99.48257446289063 64.18072509765625 105.1475067138672 66.91339111328125 110.443115234375 70.43417358398438 116.72122192382813 71.21249389648438 117.57418823242188 71.86068725585938 117.36125183105467 72.87619018554688 116.21298217773438 80.97314453125 107.47760009765624 95.18157958984376 91.08815002441406 103.83261108398438 82.3956298828125 126.89697265625 67.93267822265625 139.89913940429688 63.8140869140625 167.674072265625 62.225372314453125 180.54083251953125 69.23880004882813 185.6339111328125 74.52471923828125 189.5068359375 84.32881164550781 189.94207763671875 89.05706787109375 185.468505859375 95.54078674316406 182.30914306640625 98.22854614257813 169.41082763671875 103.09799194335938 162.65484619140625 104.28337097167967 160.36737060546875 104.3941650390625 " />
        <polyline stroke="black" stroke-width="3" stroke-linecap="round" fill="transparent" stroke-linejoin="round" points="127.47161865234375 90.14163208007813 122.13632202148438 105.51773071289063 116.801025390625 120.89382934570313 113.89306640625 127.53781127929688 113.03524780273438 129.43075561523438 " />
        <polyline stroke="black" stroke-width="3" stroke-linecap="round" fill="transparent" stroke-linejoin="round" points="113.35012817382813 121.856201171875 122.03076171875 121.8572998046875 130.71139526367188 121.8583984375 139.41094970703125 122.49908447265624 140.323486328125 122.87272644042967 140.40390014648438 122.90562438964844 140.41500854492188 122.91015625 " />
        <polyline stroke="black" stroke-width="3" stroke-linecap="round" fill="transparent" stroke-linejoin="round" points="118.87780761718753 140.8297882080078 116.61663818359376 154.72366333007813 114.35546875 168.61753845214844 110.50506591796876 176.7755126953125 95.62103271484376 194.55404663085935 85.72576904296875 200.94381713867188 66.57757568359375 207.98028564453125 61.35400390625 207.17156982421875 57.094207763671875 203.41567993164065 56.95306396484375 203.21725463867188 56.939300537109375 203.1978759765625 57.87286376953125 202.40008544921875 76.828857421875 195.51739501953125 91.17562866210938 193.36456298828125 124.74407958984376 191.445556640625 142.54623413085938 191.49371337890625 172.57244873046875 192.78704833984375 188.7828369140625 195.3228759765625 194.347412109375 197.26336669921875 198.95501708984375 201.4373779296875 199.820556640625 202.8758544921875 199.9071044921875 203.01971435546875 199.912841796875 203.02926635742188 " />
        </svg>