<?xml version="1.0" standalone="no"?>
    <svg width="256" height="256" xmlns="http://www.w3.org/2000/svg" version="1.1">
    <polyline stroke="black" stroke-width="3" stroke-linecap="round" fill="transparent" stroke-linejoin="round" points="81.59283447265625 81.01849365234375 82.15045166015625 92.1708984375 83.26568603515625 111.12998962402344 84.38092041015625 127.30099487304688 86.05377197265625 140.6838836669922 86.05377197265625 146.8177032470703 86.05377197265625 146.8177032470703 " />
        <polyline stroke="black" stroke-width="3" stroke-linecap="round" fill="transparent" stroke-linejoin="round" points="93.8604736328125 81.01849365234375 105.57049560546876 74.88465881347656 127.31768798828124 66.52035522460938 150.18014526367188 59.82891845703125 165.23590087890625 58.71366882324219 179.7340087890625 59.82891845703125 189.771240234375 64.84748840332031 195.905029296875 69.86607360839844 198.693115234375 76.55752563476563 198.135498046875 85.47944641113281 189.771240234375 98.30471801757813 174.7154541015625 113.3604736328125 174.7154541015625 113.3604736328125 " />
        <polyline stroke="black" stroke-width="3" stroke-linecap="round" fill="transparent" stroke-linejoin="round" points="128.43295288085938 60.94415283203125 130.10580444335938 80.46087646484375 129.54818725585938 94.40138244628906 127.31768798828124 109.45713806152344 122.85675048828124 124.51287841796876 116.165283203125 135.10768127441406 108.91622924804688 142.91436767578125 100.55194091796876 147.93295288085938 93.8604736328125 150.16342163085938 89.39950561523438 150.16342163085938 87.16903686523438 150.16342163085938 88.84188842773438 147.93295288085938 96.0909423828125 144.02960205078125 115.050048828125 135.66529846191406 131.7786865234375 128.97384643554688 146.83441162109375 123.39764404296876 156.87158203125 120.05192565917967 162.44781494140625 119.49430847167967 166.35113525390625 120.05192565917967 166.35113525390625 120.05192565917967 " />
        <polyline stroke="black" stroke-width="3" stroke-linecap="round" fill="transparent" stroke-linejoin="round" points="117.838134765625 155.1820068359375 113.934814453125 166.8920440673828 110.589111328125 174.14111328125 105.01287841796876 181.39016723632813 96.6485595703125 189.1968688964844 85.49615478515625 197.0035400390625 73.228515625 202.02212524414065 62.63372802734375 203.69497680664065 56.499908447265625 202.57974243164065 53.7117919921875 200.90689086914065 57.057525634765625 198.67642211914065 71.5556640625 195.3306884765625 105.01287841796876 189.7544860839844 139.58535766601563 184.73590087890625 163.00537109375 181.39016723632813 182.5220947265625 180.27493286132813 194.232177734375 180.27493286132813 202.038818359375 180.83255004882813 205.94219970703125 182.50540161132813 205.94219970703125 184.17828369140625 205.94219970703125 184.17828369140625 " />
        </svg>