<?xml version="1.0" standalone="no"?>
    <svg width="256" height="256" xmlns="http://www.w3.org/2000/svg" version="1.1">
    <polyline stroke="black" stroke-width="3" stroke-linecap="round" fill="transparent" stroke-linejoin="round" points="66 54 68 59 69 64 71 71 74 80 76 90 78 95 80 99 82 102 84 103 86 103 86 103 " />
        <polyline stroke="black" stroke-width="3" stroke-linecap="round" fill="transparent" stroke-linejoin="round" points="89 76 94 75 100 73 112 67 129 59 142 55 157 51 166 50 173 50 179 50 184 51 186 55 186 61 186 66 186 71 186 76 186 79 186 81 185 83 183 87 178 90 175 93 172 94 172 94 " />
        <polyline stroke="black" stroke-width="3" stroke-linecap="round" fill="transparent" stroke-linejoin="round" points="125 59 126 64 126 69 126 73 126 77 126 80 126 84 126 87 126 89 126 89 " />
        <polyline stroke="black" stroke-width="3" stroke-linecap="round" fill="transparent" stroke-linejoin="round" points="81 112 83 108 91 108 100 107 112 105 127 100 140 95 154 91 162 89 167 89 169 89 171 89 171 90 169 92 169 92 " />
        <polyline stroke="black" stroke-width="3" stroke-linecap="round" fill="transparent" stroke-linejoin="round" points="127 109 129 112 130 117 130 124 130 133 130 142 125 152 119 161 119 161 " />
        <polyline stroke="black" stroke-width="3" stroke-linecap="round" fill="transparent" stroke-linejoin="round" points="40 196 43 195 48 194 58 190 71 184 92 176 112 169 136 162 157 157 175 152 186 149 193 149 196 149 197 149 197 154 197 154 " />
        </svg>