<?xml version="1.0" standalone="no"?>
    <svg width="256" height="256" xmlns="http://www.w3.org/2000/svg" version="1.1">
    <polyline stroke="black" stroke-width="3" stroke-linecap="round" fill="transparent" stroke-linejoin="round" points="93.80499267578124 100.37890625 116.02880859375 90.5742645263672 146.09637451171875 82.73052978515625 170.93487548828125 74.23318481445313 176.16400146484375 71.61859130859375 180.739501953125 67.0430908203125 180.739501953125 67.0430908203125 " />
        <polyline stroke="black" stroke-width="3" stroke-linecap="round" fill="transparent" stroke-linejoin="round" points="142.82818603515625 44.16558074951172 133.67718505859375 61.81394958496094 117.98974609375 114.7590789794922 115.37518310546876 123.25642395019533 102.9559326171875 154.6313018798828 85.961181640625 187.3134765625 76.15655517578125 200.3863220214844 64.39105224609375 213.45919799804688 62.4300537109375 216.0738220214844 63.08367919921875 215.42013549804688 63.08367919921875 215.42013549804688 " />
        <polyline stroke="black" stroke-width="3" stroke-linecap="round" fill="transparent" stroke-linejoin="round" points="80.07843017578125 136.98294067382813 103.609619140625 147.4412384033203 106.87786865234376 150.70947265625 138.90631103515625 187.96713256835935 143.48187255859375 192.54263305664065 160.4765625 210.1910095214844 178.12493896484375 221.95657348632813 196.42694091796875 229.14669799804688 206.88519287109375 231.76123046875 206.88519287109375 231.76123046875 " />
        <polyline stroke="black" stroke-width="3" stroke-linecap="round" fill="transparent" stroke-linejoin="round" points="183.35406494140625 138.2902069091797 172.24212646484375 125.87100219726563 150.671875 155.9385986328125 144.13543701171875 167.050537109375 129.1016845703125 190.58169555664065 118.64337158203124 212.1519470214844 116.02880859375 229.80029296875 116.02880859375 229.80029296875 " />
        </svg>