<?xml version="1.0" standalone="no"?>
    <svg width="256" height="256" xmlns="http://www.w3.org/2000/svg" version="1.1">
    <polyline stroke="black" stroke-width="3" stroke-linecap="round" fill="transparent" stroke-linejoin="round" points="60.1357421875 93.34921264648438 69.09774780273438 89.764404296875 78.05975341796875 86.17959594726563 95.98382568359376 79.90617370605469 105.39389038085938 77.21757507324219 123.31793212890624 72.28846740722656 139.44955444335938 68.70365905761719 150.2039794921875 66.46315002441406 150.2039794921875 66.46315002441406 " />
        <polyline stroke="black" stroke-width="3" stroke-linecap="round" fill="transparent" stroke-linejoin="round" points="61.928131103515625 96.48590087890622 65.0648193359375 108.58464050292967 68.20150756835938 120.68338012695313 70.89013671875 130.09349060058594 73.130615234375 136.36688232421875 74.92303466796875 139.50360107421875 77.16354370117188 140.3997802734375 79.404052734375 139.95169067382813 85.2293701171875 135.02256774902344 85.2293701171875 135.02256774902344 " />
        <polyline stroke="black" stroke-width="3" stroke-linecap="round" fill="transparent" stroke-linejoin="round" points="111.66735839843753 111.27320861816406 112.11541748046876 114.8580322265625 112.5634765625 118.44285583496094 113.0115966796875 121.57955932617188 113.459716796875 123.82005310058594 115.25213623046876 126.06057739257813 115.25213623046876 126.06057739257813 " />
        <polyline stroke="black" stroke-width="3" stroke-linecap="round" fill="transparent" stroke-linejoin="round" points="190.981201171875 79.00997924804688 176.19384765625 100.9669189453125 161.406494140625 122.92385864257813 151.99639892578125 135.02256774902344 130.487548828125 155.63522338867188 117.04452514648438 165.9415283203125 106.29013061523438 174.4554443359375 106.29013061523438 174.4554443359375 " />
        <polyline stroke="black" stroke-width="3" stroke-linecap="round" fill="transparent" stroke-linejoin="round" points="42.211700439453125 197.30862426757813 58.34332275390625 191.931396484375 74.47494506835938 186.55416870117188 91.95089721679688 180.72886657714844 108.97869873046876 175.35165405273438 139.00146484375 168.18203735351563 152.892578125 166.38963317871094 167.679931640625 165.49343872070313 205.3204345703125 168.18203735351563 205.3204345703125 168.18203735351563 " />
        </svg>