<?xml version="1.0" standalone="no"?>
    <svg width="256" height="256" xmlns="http://www.w3.org/2000/svg" version="1.1">
    <polyline stroke="black" stroke-width="3" stroke-linecap="round" fill="transparent" stroke-linejoin="round" points="88 116 102 109 115 103 131 97 155 91 166 90 172 91 172 94 164 99 164 99 " />
        <polyline stroke="black" stroke-width="3" stroke-linecap="round" fill="transparent" stroke-linejoin="round" points="103 134 111 144 112 144 112 144 " />
        <polyline stroke="black" stroke-width="3" stroke-linecap="round" fill="transparent" stroke-linejoin="round" points="129 122 137 132 139 133 140 133 140 133 " />
        <polyline stroke="black" stroke-width="3" stroke-linecap="round" fill="transparent" stroke-linejoin="round" points="169 106 165 121 160 131 154 142 147 151 139 160 134 165 134 165 " />
        <polyline stroke="black" stroke-width="3" stroke-linecap="round" fill="transparent" stroke-linejoin="round" points="45 207 59 199 73 193 93 186 131 178 160 175 186 172 206 172 218 172 222 172 223 174 219 175 217 176 217 176 " />
        </svg>