<?xml version="1.0" standalone="no"?>
    <svg width="256" height="256" xmlns="http://www.w3.org/2000/svg" version="1.1">
    <polyline stroke="black" stroke-width="3" stroke-linecap="round" fill="transparent" stroke-linejoin="round" points="80.61938476562499 67.59614562988281 90.53988647460938 65.82461547851563 100.46038818359376 64.05308532714844 110.38095092773438 62.6358642578125 131.9935302734375 60.155731201171875 152.543212890625 58.0299072265625 168.4869384765625 56.258392333984375 178.407470703125 54.841156005859375 183.013427734375 54.13255310058594 184.07635498046875 53.77824401855469 184.07635498046875 53.77824401855469 " />
        <polyline stroke="black" stroke-width="3" stroke-linecap="round" fill="transparent" stroke-linejoin="round" points="86.64245605468751 108.34120178222659 92.31137084960938 114.71868896484376 97.98028564453124 121.09617614746094 97.98028564453124 121.09617614746094 " />
        <polyline stroke="black" stroke-width="3" stroke-linecap="round" fill="transparent" stroke-linejoin="round" points="129.86767578125 111.88426208496094 129.86767578125 111.88426208496094 129.86767578125 111.88426208496094 " />
        <polyline stroke="black" stroke-width="3" stroke-linecap="round" fill="transparent" stroke-linejoin="round" points="192.57958984375 83.53988647460938 187.619384765625 93.10610961914063 182.6591796875 102.67233276367188 165.2982177734375 129.24520874023438 152.8975830078125 144.8345947265625 152.8975830078125 144.8345947265625 " />
        <polyline stroke="black" stroke-width="3" stroke-linecap="round" fill="transparent" stroke-linejoin="round" points="37.748382568359375 179.20217895507813 66.44711303710938 169.28164672851563 95.14584350585938 159.36111450195313 109.31805419921876 156.17236328125 141.20550537109375 151.56640625 175.57305908203125 148.73196411132813 205.33465576171875 148.37765502929688 226.2386474609375 149.79489135742188 234.3876953125 151.9207000732422 234.3876953125 151.9207000732422 " />
        </svg>