<?xml version="1.0" standalone="no"?>
    <svg width="256" height="256" xmlns="http://www.w3.org/2000/svg" version="1.1">
    <polyline stroke="black" stroke-width="3" stroke-linecap="round" fill="transparent" stroke-linejoin="round" points="56.45269775390625 102.3594207763672 78.19329833984375 89.74989318847656 98.62939453125 81.48847961425781 121.23959350585938 74.531494140625 143.4150390625 68.44412231445313 160.80743408203125 64.53082275390625 169.93853759765625 62.35676574707031 169.93853759765625 62.35676574707031 " />
        <polyline stroke="black" stroke-width="3" stroke-linecap="round" fill="transparent" stroke-linejoin="round" points="75.58444213867188 116.7082061767578 101.23825073242188 140.62283325195313 107.32568359375 143.66653442382813 107.32568359375 143.66653442382813 " />
        <polyline stroke="black" stroke-width="3" stroke-linecap="round" fill="transparent" stroke-linejoin="round" points="113.41302490234376 118.8822784423828 143.4150390625 119.75189208984376 155.1549072265625 115.83859252929688 162.98150634765625 112.36007690429688 169.50372314453125 110.620849609375 171.677734375 111.0556640625 166.89483642578125 122.36074829101563 153.41571044921875 146.275390625 139.93655395507813 168.88558959960938 128.1966552734375 184.538818359375 128.1966552734375 184.538818359375 " />
        <polyline stroke="black" stroke-width="3" stroke-linecap="round" fill="transparent" stroke-linejoin="round" points="52.53936767578125 214.10598754882813 89.06356811523438 196.2787170410156 127.76177978515624 183.234375 169.50372314453125 173.23370361328125 202.98419189453125 167.58116149902344 224.72479248046875 167.14634704589844 224.72479248046875 167.14634704589844 " />
        </svg>