<?xml version="1.0" standalone="no"?>
    <svg width="256" height="256" xmlns="http://www.w3.org/2000/svg" version="1.1">
    <polyline stroke="black" stroke-width="3" stroke-linecap="round" fill="transparent" stroke-linejoin="round" points="70.86663818359375 84.0169677734375 85.236572265625 77.03726196289063 90.98455810546876 74.5738525390625 104.12286376953124 69.64698791503906 116.44000244140624 65.54129028320313 127.93597412109376 62.2567138671875 136.968505859375 60.203857421875 140.66366577148438 59.382720947265625 146.41162109375 58.56158447265625 150.10678100585938 58.1510009765625 152.9808349609375 58.56158447265625 153.80194091796875 59.79328918457031 154.2125244140625 65.54129028320313 150.10678100585938 79.09011840820313 140.25311279296875 100.4398193359375 125.4725341796875 125.4846649169922 107.40740966796876 150.94004821777344 88.110595703125 174.34259033203125 73.33004760742188 189.53372192382813 60.602294921875 199.79800415039065 60.602294921875 199.79800415039065 " />
        <polyline stroke="black" stroke-width="3" stroke-linecap="round" fill="transparent" stroke-linejoin="round" points="69.22430419921875 116.45208740234376 79.899169921875 129.59036254882813 86.05770874023438 135.33836364746094 103.71224975585938 150.94004821777344 125.06195068359376 166.9523162841797 146.41162109375 180.91172790527344 168.17193603515625 194.4605712890625 168.17193603515625 194.4605712890625 " />
        </svg>