<?xml version="1.0" standalone="no"?>
    <svg width="256" height="256" xmlns="http://www.w3.org/2000/svg" version="1.1">
    <polyline stroke="black" stroke-width="3" stroke-linecap="round" fill="transparent" stroke-linejoin="round" points="53 88 53 89 53 90 53 96 53 105 53 110 53 115 53 121 53 127 52 129 52 132 52 132 53 132 56 132 65 132 81 132 98 130 117 128 131 126 143 122 153 119 156 118 158 117 158 117 " />
        <polyline stroke="black" stroke-width="3" stroke-linecap="round" fill="transparent" stroke-linejoin="round" points="165 79 165 79 165 79 164 82 164 86 163 90 162 95 161 99 161 103 160 109 159 119 158 124 158 126 157 128 157 131 157 134 157 137 157 138 157 139 157 139 157 139 " />
        <polyline stroke="black" stroke-width="3" stroke-linecap="round" fill="transparent" stroke-linejoin="round" points="119 61 119 62 119 64 119 66 119 74 118 78 117 80 117 84 116 88 115 95 114 104 110 116 107 127 103 140 100 152 97 162 92 172 89 180 84 190 79 198 76 203 73 209 69 213 65 215 60 218 57 219 55 220 54 220 54 220 53 221 52 221 51 222 50 223 49 223 49 223 " />
        <polyline stroke="black" stroke-width="3" stroke-linecap="round" fill="transparent" stroke-linejoin="round" points="69 174 70 174 74 176 79 179 86 185 96 192 104 198 111 202 118 207 122 211 126 214 126 214 126 214 " />
        </svg>