<?xml version="1.0" standalone="no"?>
    <svg width="256" height="256" xmlns="http://www.w3.org/2000/svg" version="1.1">
    <polyline stroke="black" stroke-width="3" stroke-linecap="round" fill="transparent" stroke-linejoin="round" points="94.9794921875 52.25651550292969 94.584716796875 62.520599365234375 93.795166015625 70.41603088378906 91.03173828125 86.9964599609375 88.26837158203125 102.787353515625 87.47882080078125 108.70895385742188 86.68930053710938 116.99917602539063 87.08407592773438 122.13119506835938 90.24224853515624 124.49981689453124 99.71676635742188 125.28939819335938 113.13900756835938 122.52597045898438 126.561279296875 118.1834716796875 140.3782958984375 112.26190185546876 152.221435546875 105.94554138183594 164.85418701171875 96.07623291015624 164.85418701171875 96.07623291015624 " />
        <polyline stroke="black" stroke-width="3" stroke-linecap="round" fill="transparent" stroke-linejoin="round" points="175.9078369140625 56.5989990234375 173.1444091796875 71.600341796875 171.1705322265625 78.70625305175781 169.1966552734375 85.81214904785156 164.85418701171875 98.44485473632813 164.85418701171875 98.44485473632813 " />
        <polyline stroke="black" stroke-width="3" stroke-linecap="round" fill="transparent" stroke-linejoin="round" points="147.48422241210938 55.80946350097656 142.74691772460938 71.600341796875 139.1939697265625 85.02261352539063 115.50765991210938 150.55479431152344 109.5860595703125 165.55613708496094 98.92721557617188 186.47906494140625 89.84747314453125 203.45428466796875 86.68930053710938 208.9810791015625 86.68930053710938 208.9810791015625 " />
        <polyline stroke="black" stroke-width="3" stroke-linecap="round" fill="transparent" stroke-linejoin="round" points="79.1885986328125 144.63320922851563 90.63702392578124 147.0018310546875 96.55859375 148.9757080078125 110.3756103515625 155.29205322265625 117.48153686523438 159.2397918701172 133.27239990234375 168.31954956054688 150.64239501953125 180.55747985839844 161.30120849609375 188.45294189453125 161.30120849609375 188.45294189453125 " />
        </svg>