<?xml version="1.0" standalone="no"?>
    <svg width="256" height="256" xmlns="http://www.w3.org/2000/svg" version="1.1">
    <polyline stroke="black" stroke-width="3" stroke-linecap="round" fill="transparent" stroke-linejoin="round" points="85.06121826171875 85.36419677734375 93.760498046875 80.80740356445313 103.288330078125 75.83636474609375 122.343994140625 66.30854797363281 144.29940795898438 56.366485595703125 152.58447265625 52.63819885253906 167.08331298828125 46.42440032958984 169.56884765625 45.59590148925781 170.8116455078125 45.181640625 170.8116455078125 45.181640625 " />
        <polyline stroke="black" stroke-width="3" stroke-linecap="round" fill="transparent" stroke-linejoin="round" points="122.75823974609376 86.60694885253906 119.4442138671875 96.134765625 116.13021850585938 106.4910888671875 109.087890625 130.103515625 102.4598388671875 152.47317504882813 99.14584350585938 162.00100708007813 99.14584350585938 162.00100708007813 " />
        <polyline stroke="black" stroke-width="3" stroke-linecap="round" fill="transparent" stroke-linejoin="round" points="74.29061889648438 195.1412353515625 81.74716186523438 188.09893798828125 90.0322265625 181.05662536621097 111.57342529296876 160.34397888183594 126.48651123046876 142.9453582763672 134.77157592773438 131.34628295898438 134.77157592773438 131.34628295898438 " />
        <polyline stroke="black" stroke-width="3" stroke-linecap="round" fill="transparent" stroke-linejoin="round" points="123.1724853515625 112.29063415527344 128.14352416992188 109.80511474609376 133.52880859375 106.90533447265624 143.47088623046875 103.17706298828124 152.170166015625 101.5200653076172 155.4842529296875 105.2483367919922 156.72698974609375 111.87638854980467 157.1412353515625 134.66030883789063 157.1412353515625 169.87179565429688 158.384033203125 179.81387329101563 162.52655029296875 194.312744140625 167.91180419921875 202.18353271484375 176.1968994140625 206.7403259277344 189.03875732421875 204.25482177734375 196.49530029296875 194.72698974609375 200.6378173828125 185.6134033203125 205.60882568359375 154.95867919921875 203.53759765625 142.11685180664063 203.53759765625 142.11685180664063 " />
        </svg>