<?xml version="1.0" standalone="no"?>
    <svg width="256" height="256" xmlns="http://www.w3.org/2000/svg" version="1.1">
    <polyline stroke="black" stroke-width="3" stroke-linecap="round" fill="transparent" stroke-linejoin="round" points="78.7418212890625 101.06805419921876 86.58978271484375 98.17672729492188 103.9378662109375 91.98097229003906 111.37277221679688 89.089599609375 123.7642822265625 84.54605102539063 133.264404296875 81.24165344238281 141.9384765625 77.52420043945313 144.00375366210938 76.28504943847656 144.41680908203125 75.87199401855469 144.41680908203125 75.87199401855469 " />
        <polyline stroke="black" stroke-width="3" stroke-linecap="round" fill="transparent" stroke-linejoin="round" points="106.00314331054688 105.6116180419922 101.04656982421876 119.24229431152344 97.3291015625 131.6337890625 90.72027587890624 153.5254364013672 85.3505859375 168.80828857421875 80.80706787109375 180.3737030029297 76.26351928710938 188.2216796875 71.719970703125 193.59130859375 71.719970703125 193.59130859375 " />
        <polyline stroke="black" stroke-width="3" stroke-linecap="round" fill="transparent" stroke-linejoin="round" points="72.54608154296875 198.1348876953125 79.98095703125 191.93911743164065 88.241943359375 185.330322265625 108.068359375 169.2213592529297 113.85107421875 163.85171508789063 122.525146484375 153.5254364013672 122.525146484375 153.5254364013672 " />
        <polyline stroke="black" stroke-width="3" stroke-linecap="round" fill="transparent" stroke-linejoin="round" points="112.61190795898438 119.24229431152344 116.742431640625 117.59007263183594 127.894775390625 113.87261962890624 130.7861328125 115.11175537109376 133.264404296875 128.32937622070313 133.677490234375 160.13424682617188 133.677490234375 184.91726684570313 136.15576171875 201.43927001953125 141.11239624023438 211.35247802734375 148.13424682617188 215.89605712890625 160.5257568359375 216.30908203125 172.5042724609375 211.7655334472656 181.59130859375 205.15673828125 187.3740234375 198.1348876953125 191.5045166015625 189.4608154296875 191.5045166015625 189.4608154296875 " />
        </svg>