<?xml version="1.0" standalone="no"?>
    <svg width="256" height="256" xmlns="http://www.w3.org/2000/svg" version="1.1">
    <polyline stroke="black" stroke-width="3" stroke-linecap="round" fill="transparent" stroke-linejoin="round" points="126.2266845703125 44.437828063964844 130.03704833984375 49.859886169433594 133.847412109375 55.281944274902344 135.251708984375 59.742828369140625 135.9603271484375 69.7801513671875 134.68295288085938 74.90278625488281 123.78305053710938 83.84613037109375 123.26251220703124 84.27842712402344 " />
        <polyline stroke="black" stroke-width="3" stroke-linecap="round" fill="transparent" stroke-linejoin="round" points="95.36627197265624 90.68405151367188 100.748779296875 89.0501708984375 106.13128662109376 87.41629028320313 119.3912353515625 84.63587951660156 131.23095703125 81.86557006835938 158.8582763671875 77.87850952148438 170.7802734375 77.47053527832031 181.128173828125 79.2745361328125 186.4647216796875 80.82196044921875 194.06280517578125 82.74835205078125 194.2886962890625 82.78938293457031 " />
        <polyline stroke="black" stroke-width="3" stroke-linecap="round" fill="transparent" stroke-linejoin="round" points="77.35522460937499 127.81091308593753 92.98348999023438 126.45379638671876 108.61175537109376 125.0966796875 125.185791015625 124.00132751464844 146.722900390625 122.56149291992188 158.646728515625 121.80435180664063 175.2606201171875 119.722412109375 179.1046142578125 118.794189453125 184.7869873046875 117.77490234375 190.31787109375 118.47409057617188 190.62200927734375 118.53831481933594 " />
        <polyline stroke="black" stroke-width="3" stroke-linecap="round" fill="transparent" stroke-linejoin="round" points="130.75390625 86.49549865722659 130.53448486328125 91.33758544921876 130.3150634765625 96.17967224121094 125.483154296875 104.30194091796876 121.37738037109376 114.3599853515625 115.22225952148438 137.69476318359375 109.9305419921875 163.4592742919922 101.29150390625 190.4385986328125 96.40167236328124 200.98361206054688 90.7337646484375 209.39877319335935 90.1669921875 210.24029541015625 " />
        <polyline stroke="black" stroke-width="3" stroke-linecap="round" fill="transparent" stroke-linejoin="round" points="127.04129028320313 149.92166137695313 129.39190673828125 151.60928344726563 131.74252319335938 153.29690551757813 135.57968139648438 156.27774047851563 159.0570068359375 170.06655883789063 166.87322998046875 176.16506958007813 182.4769287109375 191.46490478515625 188.78118896484375 197.556884765625 201.4361572265625 208.39553833007813 206.76898193359375 212.15792846679688 210.48260498046875 213.1749267578125 210.57098388671875 213.14862060546875 210.57684326171875 213.1468505859375 " />
        <polyline stroke="black" stroke-width="3" stroke-linecap="round" fill="transparent" stroke-linejoin="round" points="176.1201171875 136.51101684570313 174.760986328125 149.302001953125 173.40185546875 162.09298706054688 171.09124755859375 174.80380249023438 162.95458984375 204.0306396484375 152.78289794921875 215.6990966796875 151.7841796875 216.75628662109375 " />
        </svg>