<?xml version="1.0" standalone="no"?>
    <svg width="256" height="256" xmlns="http://www.w3.org/2000/svg" version="1.1">
    <polyline stroke="black" stroke-width="3" stroke-linecap="round" fill="transparent" stroke-linejoin="round" points="119.54507446289063 57.15815734863281 " />
        <polyline stroke="black" stroke-width="3" stroke-linecap="round" fill="transparent" stroke-linejoin="round" points="119 57 " />
        <polyline stroke="black" stroke-width="3" stroke-linecap="round" fill="transparent" stroke-linejoin="round" points="89.4346923828125 64.28959655761719 99.735595703125 65.08197021484375 110.0364990234375 65.87434387207031 126.28033447265624 68.25151062011719 138.16604614257813 69.44007873535156 152.03271484375 71.4210205078125 163.1260986328125 71.4210205078125 175.01177978515625 68.25151062011719 175.01177978515625 68.25151062011719 " />
        <polyline stroke="black" stroke-width="3" stroke-linecap="round" fill="transparent" stroke-linejoin="round" points="73.98321533203125 121.73724365234375 82.30319213867188 118.56771850585938 90.6231689453125 115.398193359375 105.28228759765624 112.62484741210938 115.58319091796876 111.436279296875 129.44989013671875 110.64390563964844 140.14700317382813 110.64390563964844 150.84417724609375 110.64390563964844 155.59844970703125 110.24771118164063 155.59844970703125 110.24771118164063 " />
        <polyline stroke="black" stroke-width="3" stroke-linecap="round" fill="transparent" stroke-linejoin="round" points="115.58319091796875 59.13905334472656 108.45175170898438 86.8724365234375 101.3203125 114.60581970214844 94.18890380859376 149.8667755126953 86.26504516601563 180.3734588623047 76.36032104492188 206.1258544921875 66.45553588867188 222.765869140625 47.4383544921875 236.23635864257813 41.099334716796875 237.82107543945313 41.099334716796875 237.82107543945313 " />
        <polyline stroke="black" stroke-width="3" stroke-linecap="round" fill="transparent" stroke-linejoin="round" points="72.39840698242188 143.92393493652344 87.05746459960938 147.88583374023438 101.71652221679688 151.8477325439453 117.16793823242188 158.58297729492188 134.60031127929688 168.091552734375 149.65560913085938 178.7886962890625 165.50323486328125 192.2591857910156 165.50323486328125 192.2591857910156 " />
        <polyline stroke="black" stroke-width="3" stroke-linecap="round" fill="transparent" stroke-linejoin="round" points="152.82513427734375 148.28204345703125 139.35464477539063 167.6953582763672 125.8841552734375 187.10867309570313 125.8841552734375 187.10867309570313 " />
        </svg>