<?xml version="1.0" standalone="no"?>
    <svg width="256" height="256" xmlns="http://www.w3.org/2000/svg" version="1.1">
    <polyline stroke="black" stroke-width="3" stroke-linecap="round" fill="transparent" stroke-linejoin="round" points="130.45553588867188 49.70378112792969 133.19235229492188 61.74574279785156 131.00289916992188 69.95616149902344 124.4345703125 79.26132202148438 111.84524536132813 89.66119384765625 111.84524536132813 89.66119384765625 " />
        <polyline stroke="black" stroke-width="3" stroke-linecap="round" fill="transparent" stroke-linejoin="round" points="56.56170654296875 112.10302734375 72.9825439453125 108.81886291503906 89.95074462890625 104.43995666503906 123.88720703125 95.6821746826172 146.87640380859375 92.39801025390624 164.3919677734375 91.30328369140624 178.6234130859375 91.30328369140624 186.83380126953125 91.30328369140624 191.21270751953125 91.85064697265624 191.21270751953125 91.85064697265624 " />
        <polyline stroke="black" stroke-width="3" stroke-linecap="round" fill="transparent" stroke-linejoin="round" points="61.487945556640625 183.26007080078125 80.6456298828125 183.80743408203125 94.87701416015624 181.07061767578125 120.0556640625 173.95492553710938 142.49749755859375 166.83921813964844 161.1077880859375 160.2708740234375 175.3392333984375 153.70252990722656 185.73907470703125 147.68154907226563 185.73907470703125 147.68154907226563 " />
        <polyline stroke="black" stroke-width="3" stroke-linecap="round" fill="transparent" stroke-linejoin="round" points="146.87640380859375 115.38720703125 142.49749755859375 125.23971557617188 131.55026245117188 147.68154907226563 116.22412109375 178.8811798095703 105.82427978515624 201.322998046875 96.51910400390624 219.38595581054688 89.40338134765625 233.07000732421875 85.57186889648438 241.82778930664065 85.57186889648438 241.82778930664065 " />
        <polyline stroke="black" stroke-width="3" stroke-linecap="round" fill="transparent" stroke-linejoin="round" points="128.26611328125 192.56521606445313 138.66595458984375 197.49148559570313 151.80267333984375 204.607177734375 167.1287841796875 213.36495971679688 181.9075927734375 222.67013549804688 195.59161376953125 231.42791748046875 204.349365234375 235.80679321289065 204.349365234375 235.80679321289065 " />
        <polyline stroke="black" stroke-width="3" stroke-linecap="round" fill="transparent" stroke-linejoin="round" points="195.04425048828125 164.10240173339844 190.66534423828125 175.0496368408203 180.2655029296875 195.84939575195313 169.3182373046875 212.27023315429688 158.3709716796875 227.04901123046875 158.3709716796875 227.04901123046875 " />
        </svg>