<?xml version="1.0" standalone="no"?>
    <svg width="256" height="256" xmlns="http://www.w3.org/2000/svg" version="1.1">
    <polyline stroke="black" stroke-width="3" stroke-linecap="round" fill="transparent" stroke-linejoin="round" points="113.87176513671876 47.328819274902344 109.35421752929688 62.1722412109375 101.60980224609376 77.01565551757813 92.57470703125 93.14981079101563 82.89422607421875 108.63859558105467 76.4405517578125 120.25518798828124 73.85906982421875 127.99958801269533 75.795166015625 132.51715087890625 81.60345458984375 134.4532470703125 91.9293212890625 131.8717803955078 106.12738037109376 127.35421752929688 124.843017578125 120.25518798828124 142.26788330078125 112.5107879638672 155.820556640625 102.1849365234375 168.7279052734375 89.27761840820313 168.7279052734375 89.27761840820313 " />
        <polyline stroke="black" stroke-width="3" stroke-linecap="round" fill="transparent" stroke-linejoin="round" points="162.91961669921875 74.4342041015625 166.79180908203125 90.56834411621094 171.309326171875 100.24884033203124 175.826904296875 111.8654327392578 180.344482421875 127.99958801269533 180.344482421875 127.99958801269533 " />
        <polyline stroke="black" stroke-width="3" stroke-linecap="round" fill="transparent" stroke-linejoin="round" points="93.86541748046876 140.26153564453125 97.73760986328124 155.7503204345703 100.9644775390625 162.2039794921875 106.12738037109376 168.0122833251953 106.12738037109376 168.0122833251953 " />
        <polyline stroke="black" stroke-width="3" stroke-linecap="round" fill="transparent" stroke-linejoin="round" points="164.855712890625 130.58103942871094 159.04742431640625 141.55226135253906 151.302978515625 151.23275756835938 140.331787109375 164.14007568359375 125.48837280273438 180.27423095703125 109.35421752929688 197.6991271972656 93.86541748046876 212.54254150390625 82.24884033203125 222.868408203125 73.85906982421875 228.67669677734375 73.85906982421875 228.67669677734375 " />
        <polyline stroke="black" stroke-width="3" stroke-linecap="round" fill="transparent" stroke-linejoin="round" points="53.207366943359375 174.4659423828125 68.05078125 186.7279052734375 81.60345458984375 194.4722900390625 100.319091796875 203.5074157714844 121.61614990234376 213.83328247070313 143.55859375 222.868408203125 163.56494140625 228.67669677734375 179.6990966796875 233.83963012695313 179.6990966796875 233.83963012695313 " />
        </svg>