<?xml version="1.0" standalone="no"?>
    <svg width="256" height="256" xmlns="http://www.w3.org/2000/svg" version="1.1">
    <polyline stroke="black" stroke-width="3" stroke-linecap="round" fill="transparent" stroke-linejoin="round" points="108 71.77778625488281 98.22222900390624 87.77778625488281 84.888916015625 108.22224426269533 70.66668701171875 127.7777862548828 68.88897705078125 129.55555725097656 68.88897705078125 130.44447326660156 76 127.7777862548828 91.11114501953124 120.66667175292967 109.77777099609376 111.7777862548828 132.888916015625 103.77780151367188 140.00006103515625 101.11111450195313 144.44451904296875 98.44444274902344 146.22222900390625 95.7777862548828 145.33331298828125 91.33332824707033 142.66668701171875 90.44444274902344 141.77777099609375 90.44444274902344 141.77777099609375 93.11111450195313 144.44451904296875 99.33335876464844 146.22222900390625 103.77780151367188 153.3333740234375 117.11114501953124 154.22222900390625 122.44444274902344 154.22222900390625 122.44444274902344 " />
        <polyline stroke="black" stroke-width="3" stroke-linecap="round" fill="transparent" stroke-linejoin="round" points="96.4444580078125 143.77780151367188 115.11114501953124 149.11111450195313 123.11114501953124 145.55555725097656 123.11114501953124 145.55555725097656 " />
        <polyline stroke="black" stroke-width="3" stroke-linecap="round" fill="transparent" stroke-linejoin="round" points="136.4444580078125 127.7777862548828 128.4444580078125 144.6666717529297 123.11114501953124 154.44444274902344 100.888916015625 187.33334350585935 85.77777099609375 206.88888549804688 72.4444580078125 221.11111450195313 62.66668701171875 226.4444580078125 56.4444580078125 227.33334350585935 56.4444580078125 227.33334350585935 " />
        <polyline stroke="black" stroke-width="3" stroke-linecap="round" fill="transparent" stroke-linejoin="round" points="76.888916015625 166.88888549804688 94.66668701171876 182 106.22222900390624 190 119.5555419921875 198 164.888916015625 214 194.22222900390625 218.4444580078125 218.22222900390625 218.4444580078125 218.22222900390625 218.4444580078125 " />
        </svg>