<?xml version="1.0" standalone="no"?>
    <svg width="256" height="256" xmlns="http://www.w3.org/2000/svg" version="1.1">
    <polyline stroke="black" stroke-width="3" stroke-linecap="round" fill="transparent" stroke-linejoin="round" points="120 58 118 59 116 64 111 74 106 83 103 86 96 99 90 109 86 115 86 116 85 120 89 122 96 121 106 117 117 111 126 107 129 106 135 104 137 103 143 102 145 101 146 101 147 101 148 101 148 103 148 104 148 106 148 107 148 108 148 109 149 111 149 112 149 113 149 115 148 117 148 117 " />
        <polyline stroke="black" stroke-width="3" stroke-linecap="round" fill="transparent" stroke-linejoin="round" points="116 125 116 126 116 127 116 129 117 130 118 131 118 132 119 133 120 134 121 135 124 137 125 138 126 139 126 140 126 140 " />
        <polyline stroke="black" stroke-width="3" stroke-linecap="round" fill="transparent" stroke-linejoin="round" points="142 130 139 133 137 139 133 147 124 159 113 172 100 185 92 193 90 196 83 201 81 202 77 204 75 204 75 204 " />
        <polyline stroke="black" stroke-width="3" stroke-linecap="round" fill="transparent" stroke-linejoin="round" points="97 156 98 158 101 163 102 164 103 166 105 167 113 171 115 172 118 174 124 176 142 183 152 186 162 189 162 189 " />
        </svg>