<?xml version="1.0" standalone="no"?>
    <svg width="256" height="256" xmlns="http://www.w3.org/2000/svg" version="1.1">
    <polyline stroke="black" stroke-width="3" stroke-linecap="round" fill="transparent" stroke-linejoin="round" points="56 78 56 78 56 81 58 84 59 88 61 93 63 96 64 99 65 102 66 103 66 104 66 105 67 104 67 104 " />
        <polyline stroke="black" stroke-width="3" stroke-linecap="round" fill="transparent" stroke-linejoin="round" points="70 79 70 79 72 77 77 75 82 74 87 73 92 72 97 71 103 71 109 70 115 70 120 71 125 73 128 76 129 80 128 87 125 95 121 105 115 115 112 120 " />
        <polyline stroke="black" stroke-width="3" stroke-linecap="round" fill="transparent" stroke-linejoin="round" points="37 148 37 147 35 147 35 146 36 145 38 142 42 140 46 137 52 134 59 132 67 129 76 126 86 124 101 120 112 118 123 117 132 115 141 114 147 113 152 112 153 111 " />
        <polyline stroke="black" stroke-width="3" stroke-linecap="round" fill="transparent" stroke-linejoin="round" points="75 99 75 99 74 99 73 100 73 102 74 104 74 108 74 116 74 120 74 130 74 137 73 143 73 149 73 153 72 156 72 157 72 157 72 156 " />
        <polyline stroke="black" stroke-width="3" stroke-linecap="round" fill="transparent" stroke-linejoin="round" points="69 120 69 119 71 116 74 113 77 110 78 109 83 105 87 102 91 99 95 97 99 95 104 95 109 96 113 97 116 99 118 103 119 108 119 114 118 121 117 128 115 135 112 144 110 149 108 152 107 154 106 154 105 153 " />
        <polyline stroke="black" stroke-width="3" stroke-linecap="round" fill="transparent" stroke-linejoin="round" points="92 116 92 116 93 116 93 117 93 118 93 120 93 124 92 129 91 134 89 144 87 149 85 154 83 158 81 160 79 162 78 163 77 162 77 162 77 161 79 159 81 158 85 156 89 155 94 153 99 152 105 151 111 149 117 148 124 146 128 144 " />
        <polyline stroke="black" stroke-width="3" stroke-linecap="round" fill="transparent" stroke-linejoin="round" points="142 75 142 75 143 72 146 70 149 69 153 67 158 66 165 64 171 63 176 62 181 61 186 60 190 59 193 57 194 57 195 57 " />
        <polyline stroke="black" stroke-width="3" stroke-linecap="round" fill="transparent" stroke-linejoin="round" points="168 74 166 78 161 87 156 98 150 111 145 125 140 139 135 159 132 170 131 180 129 187 129 192 129 196 129 198 130 197 " />
        <polyline stroke="black" stroke-width="3" stroke-linecap="round" fill="transparent" stroke-linejoin="round" points="145 136 146 134 150 128 155 123 159 118 164 113 169 109 174 106 181 104 184 105 187 107 189 111 189 118 189 127 187 137 186 147 184 162 184 170 184 177 185 182 187 187 189 191 191 194 194 196 197 198 202 199 209 198 214 196 219 193 223 191 226 189 228 187 229 184 230 180 230 176 227 169 224 165 221 162 216 161 214 161 " />
        </svg>