<?xml version="1.0" standalone="no"?>
    <svg width="256" height="256" xmlns="http://www.w3.org/2000/svg" version="1.1">
    <polyline stroke="black" stroke-width="3" stroke-linecap="round" fill="transparent" stroke-linejoin="round" points="27 84 27 86 27 86 27 87 28 88 28 89 28 90 28 91 28 93 29 94 29 96 29 98 30 100 30 102 30 104 31 106 31 111 32 113 32 114 32 116 33 117 33 118 33 119 33 119 34 119 34 119 34 119 " />
        <polyline stroke="black" stroke-width="3" stroke-linecap="round" fill="transparent" stroke-linejoin="round" points="34 76 37 75 39 74 40 73 42 73 45 72 47 72 50 71 53 71 56 70 59 70 62 69 66 68 69 68 73 68 76 67 79 67 82 67 86 67 88 67 91 67 94 68 96 68 98 69 101 71 102 72 103 73 104 75 105 77 105 79 106 81 106 84 106 86 106 89 105 91 105 94 104 96 103 99 102 101 101 104 98 109 96 111 94 113 93 115 91 117 89 118 87 120 85 121 83 123 " />
        <polyline stroke="black" stroke-width="3" stroke-linecap="round" fill="transparent" stroke-linejoin="round" points="6 139 10 138 12 137 13 137 15 137 17 136 19 136 22 136 27 135 30 135 33 135 36 134 39 134 42 134 46 133 49 133 53 133 56 132 60 132 63 132 67 131 70 131 74 130 77 130 81 129 84 129 86 128 89 128 91 127 93 127 95 126 96 126 97 125 98 125 99 124 100 124 101 123 101 122 101 122 101 121 " />
        <polyline stroke="black" stroke-width="3" stroke-linecap="round" fill="transparent" stroke-linejoin="round" points="33 118 31 126 31 128 31 131 30 133 30 136 30 139 30 141 29 144 29 147 29 149 29 152 29 156 28 158 28 160 28 161 28 163 29 164 " />
        <polyline stroke="black" stroke-width="3" stroke-linecap="round" fill="transparent" stroke-linejoin="round" points="41 107 50 100 52 99 53 99 54 98 56 98 57 97 58 97 60 96 61 96 63 96 64 96 65 96 66 96 67 96 68 96 69 96 69 97 70 97 71 97 71 98 72 99 72 100 72 101 73 103 73 105 73 106 73 108 73 110 73 112 74 115 74 117 74 119 74 121 74 123 74 125 74 127 74 128 74 130 74 132 73 133 73 134 72 136 71 137 71 138 " />
        <polyline stroke="black" stroke-width="3" stroke-linecap="round" fill="transparent" stroke-linejoin="round" points="54 115 54 118 54 119 54 121 54 123 54 125 54 127 53 129 53 131 53 134 52 136 52 139 52 141 51 144 51 146 50 148 49 151 48 153 48 155 47 157 46 159 45 160 45 162 44 164 43 166 42 167 " />
        <polyline stroke="black" stroke-width="3" stroke-linecap="round" fill="transparent" stroke-linejoin="round" points="26 164 26 164 26 164 26 164 26 164 26 163 27 163 28 163 29 163 32 162 34 162 35 161 37 161 41 160 43 160 46 160 48 159 50 159 52 158 54 158 56 158 57 157 59 157 60 156 63 156 65 155 66 155 69 154 70 154 " />
        <polyline stroke="black" stroke-width="3" stroke-linecap="round" fill="transparent" stroke-linejoin="round" points="114 90 121 89 122 89 124 89 126 88 128 88 130 88 132 88 137 87 139 87 142 86 144 86 147 86 149 85 152 85 154 84 157 84 159 83 162 82 164 82 167 81 169 80 171 79 174 79 177 78 179 77 180 77 181 76 182 76 183 75 " />
        <polyline stroke="black" stroke-width="3" stroke-linecap="round" fill="transparent" stroke-linejoin="round" points="147 90 147 90 146 92 145 94 144 96 143 98 142 101 139 107 138 110 137 114 136 118 134 123 132 128 131 133 127 144 126 150 124 156 122 162 121 167 119 173 118 178 116 187 114 191 113 195 112 202 110 208 109 210 109 212 108 213 108 214 108 215 107 215 " />
        <polyline stroke="black" stroke-width="3" stroke-linecap="round" fill="transparent" stroke-linejoin="round" points="110 157 110 157 111 157 112 156 114 155 117 154 118 153 120 152 122 151 124 150 127 148 129 147 131 146 133 144 135 143 138 142 140 141 142 139 144 138 146 137 147 136 149 135 151 135 152 134 153 133 154 133 155 133 156 132 156 132 157 132 158 132 158 132 159 132 159 132 160 133 160 133 160 134 161 136 161 137 161 139 161 141 161 143 161 146 161 149 160 152 159 158 159 162 158 165 158 169 157 172 157 176 156 179 156 186 156 189 156 192 156 195 156 197 156 200 157 202 157 204 157 206 158 208 159 209 159 211 160 212 161 213 161 214 162 215 164 217 165 217 166 218 168 219 170 219 171 219 172 219 175 219 177 219 178 219 179 220 181 220 182 219 183 219 186 218 188 218 189 217 191 215 192 214 194 212 195 210 198 206 199 205 199 203 200 201 201 200 201 199 201 197 202 196 202 194 202 193 202 192 202 191 202 190 201 188 201 187 200 186 200 185 200 184 199 183 199 182 198 181 198 180 197 180 197 179 196 178 " />
        </svg>