<?xml version="1.0" standalone="no"?>
    <svg width="256" height="256" xmlns="http://www.w3.org/2000/svg" version="1.1">
    <polyline stroke="black" stroke-width="3" stroke-linecap="round" fill="transparent" stroke-linejoin="round" points="106.4000244140625 76.86666870117188 98.4000244140625 95.26667785644533 90.4000244140625 107.8000030517578 78.13336181640625 123.00001525878906 63.733367919921875 138.20001220703125 51.46673583984375 148.60000610351563 49.866729736328125 148.86668395996094 49.866729736328125 148.86668395996094 " />
        <polyline stroke="black" stroke-width="3" stroke-linecap="round" fill="transparent" stroke-linejoin="round" points="89.86672973632813 104.60000610351563 91.73336791992188 111.53335571289063 92.2667236328125 117.40000915527344 94.933349609375 141.6666717529297 96.00003051757813 158.73336791992188 96.2667236328125 174.20001220703125 96.53335571289063 185.933349609375 97.06671142578124 196.86666870117188 98.933349609375 200.06668090820313 101.06671142578124 199.53335571289065 101.86672973632813 197.933349609375 101.86672973632813 197.933349609375 " />
        <polyline stroke="black" stroke-width="3" stroke-linecap="round" fill="transparent" stroke-linejoin="round" points="134.4000244140625 93.93336486816406 141.60003662109375 89.66667175292969 145.86669921875 87.80000305175781 155.46673583984375 85.40000915527344 165.86669921875 84.86666870117188 181.06671142578125 88.33334350585938 185.3333740234375 89.93333435058594 192.2667236328125 95.8000030517578 192.800048828125 100.86666870117188 191.73333740234375 106.7333526611328 186.66668701171875 118.4666748046875 183.4666748046875 130.20001220703125 180.800048828125 145.93336486816406 177.60003662109375 162.73336791992188 171.73333740234375 184.86666870117188 168 195.2666931152344 164.800048828125 201.66668701171875 163.20001220703125 202.73333740234375 163.20001220703125 201.13336181640625 163.20001220703125 201.13336181640625 " />
        <polyline stroke="black" stroke-width="3" stroke-linecap="round" fill="transparent" stroke-linejoin="round" points="153.60003662109375 105.13336181640624 151.73333740234375 124.33335876464844 148.800048828125 141.6666717529297 145.86669921875 157.40000915527344 143.20001220703125 169.40000915527344 141.3333740234375 176.60000610351563 141.3333740234375 176.33335876464844 141.3333740234375 176.33335876464844 " />
        <polyline stroke="black" stroke-width="3" stroke-linecap="round" fill="transparent" stroke-linejoin="round" points="130.13336181640625 147.53335571289063 135.73333740234375 143.00001525878906 139.73333740234375 141.6666717529297 149.06671142578125 140.06668090820313 162.666748046875 139.80001831054688 170.13336181640625 141.40000915527344 174.933349609375 144.06668090820313 174.66668701171875 145.6666717529297 174.66668701171875 145.6666717529297 " />
        <polyline stroke="black" stroke-width="3" stroke-linecap="round" fill="transparent" stroke-linejoin="round" points="108.53335571289063 192.6000061035156 130.66671752929688 192.3333740234375 146.666748046875 191 163.20001220703125 190.20001220703125 186.4000244140625 190.20001220703125 193.06671142578125 190.20001220703125 202.933349609375 190.20001220703125 202.933349609375 190.73336791992188 202.933349609375 190.73336791992188 " />
        </svg>