<?xml version="1.0" standalone="no"?>
    <svg width="256" height="256" xmlns="http://www.w3.org/2000/svg" version="1.1">
    <polyline stroke="black" stroke-width="3" stroke-linecap="round" fill="transparent" stroke-linejoin="round" points="68.87073170926783 90.65806548017363 63.74068221310711 97.98670761754616 63.74068221310711 103.48318922057555 63.74068221310711 108.24680660986766 62.641385892501205 114.10972031976569 62.641385892501205 114.10972031976569 " />
        <polyline stroke="black" stroke-width="3" stroke-linecap="round" fill="transparent" stroke-linejoin="round" points="63.00781799936988 96.88741129694029 68.50429960239927 93.58952233512264 83.16158387714427 91.39092969391088 102.2160534343128 86.26088019775011 123.4691156326931 81.86369491532662 145.82147415167924 78.93223806037761 165.6088079225849 77.4665096329031 182.46468483854187 77.4665096329031 193.45764804460055 77.4665096329031 195.65624068581224 77.4665096329031 194.5569443652064 77.83294173977174 187.59473433470248 81.497262808458 177.33463534238103 89.19233705269914 161.21162264016152 101.28459657936378 141.4242888692557 116.67474506784606 141.4242888692557 116.67474506784606 " />
        <polyline stroke="black" stroke-width="3" stroke-linecap="round" fill="transparent" stroke-linejoin="round" points="155.71514103713207 57.31274375512871 146.55433836541647 59.87776850320907 145.088609937942 71.97002802987373 139.95856044178123 87.72660862522463 130.06489355632834 110.0789671442108 115.77404138845196 134.99635041127735 98.55173236562656 159.54730157147526 79.86369491532662 184.46468483854176 60.44279325128946 209.3820681056083 39.922595266646454 233.20015505206905 30.761792594930796 243.46025404439052 30.761792594930796 243.46025404439052 " />
        <polyline stroke="black" stroke-width="3" stroke-linecap="round" fill="transparent" stroke-linejoin="round" points="127.8663009151166 127.3012761670362 132.2634861975401 128.7670045945107 140.69142465551846 136.09564673188322 149.4857952203655 148.92077047228508 159.37946210581845 167.9752400294536 170.0059932050085 191.79332697591428 182.83111694541049 213.41282128116325 198.22126543389277 226.9708092353023 219.8407597391415 235.0323155864121 231.56658715893764 237.59734033449251 231.56658715893764 237.59734033449251 " />
        </svg>