<?xml version="1.0" standalone="no"?>
    <svg width="256" height="256" xmlns="http://www.w3.org/2000/svg" version="1.1">
    <polyline stroke="black" stroke-width="3" stroke-linecap="round" fill="transparent" stroke-linejoin="round" points="67.33318546477358 44.91838890847663 64.46384096027953 46.19365313269621 64.46384096027953 53.52642242195884 65.73910518449907 64.36616832782533 67.9708175768834 76.79999451396634 70.20252996926763 88.59618858799752 71.79661024954214 99.11711843780913 72.75305841770682 109.00041617551094 73.39069052981665 118.24608180110296 73.70950658587151 124.9412189782558 74.66595475403619 127.491747426695 74.66595475403619 127.491747426695 " />
        <polyline stroke="black" stroke-width="3" stroke-linecap="round" fill="transparent" stroke-linejoin="round" points="60.95686434367565 56.71458298250781 60.00041617551096 58.6274793188372 65.73910518449907 58.6274793188372 69.88371391321277 58.6274793188372 74.98477081009105 58.6274793188372 89.33149333256142 57.352215094617605 105.59111219136128 55.75813481434312 122.16954710621587 54.80168664617844 136.8350856847411 54.80168664617844 150.2253600390468 54.80168664617844 160.74628988885843 54.80168664617844 168.3978752341759 55.12050270223333 173.81774818710915 55.43931875828824 176.6870926916033 56.07695087039801 177.32472480371302 57.352215094617605 177.96235691582285 58.6274793188372 178.2811729718777 61.17800776727637 178.2811729718777 66.59788072020962 177.96235691582285 74.24946606552714 177.32472480371302 82.85749957900939 176.6870926916033 91.78434914854648 176.36827663554834 100.7111987180836 176.04946057949348 109.63804828762072 175.41182846738366 118.56489785715786 173.81774818710915 128.12937953880476 171.90485185077978 136.0997809401772 171.58603579472492 138.96912544467128 171.58603579472492 138.96912544467128 " />
        <polyline stroke="black" stroke-width="3" stroke-linecap="round" fill="transparent" stroke-linejoin="round" points="124.08244344254524 30.252850329951357 123.12599527438056 30.252850329951357 124.4012594986001 35.035091170774805 125.9953397788746 43.00549257214723 127.58942005914912 54.80168664617844 127.58942005914912 68.1919610004841 127.58942005914912 83.81394774717407 125.3577076667649 102.30527899835808 120.2566507698865 123.9847708100911 113.5615135927336 145.983078677879 104.95348007925143 167.3437544335571 97.62071078998883 182.96574118024705 90.2879415007261 194.1243031421685 83.91162037962818 200.5006242632664 79.44819559485961 204.00760087987027 77.21648320247539 206.55812932830943 77.21648320247539 206.55812932830943 " />
        <polyline stroke="black" stroke-width="3" stroke-linecap="round" fill="transparent" stroke-linejoin="round" points="127.58942005914912 115.69555335266378 126.31415583492958 116.33318546477358 128.5458682273138 119.52134602532254 132.05284484391768 123.9847708100911 133.96574118024705 127.17293137064009 135.87863751657642 130.99872404329884 140.02324624529012 141.51965389311044 144.80548708611354 154.59111219136122 150.86299215115662 167.02493837750222 158.5145774964741 178.50231639547852 167.12261100995636 188.06679807712544 177.32472480371302 196.3560155345527 189.75855098985403 202.73233665565067 203.78645745626957 206.8769453843644 217.17673181057523 208.47102566463883 223.55305293167316 209.10865777674863 223.55305293167316 209.10865777674863 " />
        </svg>