<?xml version="1.0" standalone="no"?>
    <svg width="256" height="256" xmlns="http://www.w3.org/2000/svg" version="1.1">
    <polyline stroke="black" stroke-width="3" stroke-linecap="round" fill="transparent" stroke-linejoin="round" points="84.71542358398438 87.88275146484375 98.532470703125 88.27752685546875 104.84881591796876 88.67230224609375 111.5599365234375 89.46185302734375 118.66586303710938 89.85661315917969 132.48284912109375 90.25138854980467 144.32601928710938 89.85661315917969 152.6162109375 87.88275146484375 157.353515625 86.30366516113281 157.353515625 86.30366516113281 " />
        <polyline stroke="black" stroke-width="3" stroke-linecap="round" fill="transparent" stroke-linejoin="round" points="101.69061279296876 44.06303405761719 97.74288940429688 57.09051513671875 96.163818359375 64.1964111328125 94.18994140625 72.09185791015625 92.216064453125 81.171630859375 86.68930053710938 103.27886962890624 84.71542358398438 113.93771362304688 84.32064819335938 117.88543701171876 84.71542358398438 124.5965576171875 86.68930053710938 126.57041931152344 93.400390625 126.96519470214844 105.24359130859376 125.3861083984375 119.85015869140624 123.41226196289063 133.66717529296875 123.41226196289063 140.3782958984375 124.2017822265625 158.14306640625 133.28155517578125 167.61761474609375 147.49334716796875 171.9600830078125 172.36399841308594 168.01239013671875 196.44512939453125 164.06463623046875 207.10397338867188 150.64239501953125 228.02688598632813 141.95736694335938 234.34326171875 133.66717529296875 235.92233276367188 127.350830078125 232.76416015625 127.350830078125 232.76416015625 " />
        <polyline stroke="black" stroke-width="3" stroke-linecap="round" fill="transparent" stroke-linejoin="round" points="126.16650390625 136.83450317382813 111.5599365234375 154.5992431640625 95.76904296875 173.94309997558594 89.45269775390625 181.4437713623047 77.2147216796875 193.68170166015625 71.68792724609375 199.20852661132813 62.21337890625 206.31442260742188 53.528411865234375 211.05169677734375 53.528411865234375 211.05169677734375 " />
        <polyline stroke="black" stroke-width="3" stroke-linecap="round" fill="transparent" stroke-linejoin="round" points="57.87091064453125 164.8633270263672 72.08270263671875 168.81106567382813 87.87362670898438 175.91696166992188 105.24359130859376 185.3914794921875 122.21875 196.05035400390625 141.56259155273438 209.47259521484375 141.56259155273438 209.47259521484375 " />
        </svg>