<?xml version="1.0" standalone="no"?>
    <svg width="256" height="256" xmlns="http://www.w3.org/2000/svg" version="1.1">
    <polyline stroke="black" stroke-width="3" stroke-linecap="round" fill="transparent" stroke-linejoin="round" points="65.15325927734375 111.1129913330078 68.75784301757813 150.76344299316406 71.64151000976563 168.4259033203125 73.0833740234375 174.91416931152344 74.8856201171875 181.76287841796875 75.60653686523438 183.92562866210935 75.60653686523438 183.92562866210935 " />
        <polyline stroke="black" stroke-width="3" stroke-linecap="round" fill="transparent" stroke-linejoin="round" points="79.57159423828125 112.915283203125 95.792236328125 98.136474609375 114.53610229492188 84.79951477050781 130.7567138671875 76.86943054199219 146.25643920898438 72.18345642089844 161.395751953125 69.66024780273438 171.12811279296875 71.10208129882813 179.418701171875 76.50895690917969 186.267333984375 91.64822387695313 188.79058837890625 110.75253295898438 187.3487548828125 130.21730041503906 184.465087890625 148.24024963378906 180.8604736328125 166.26315307617188 178.69775390625 180.68150329589844 178.69775390625 180.68150329589844 " />
        <polyline stroke="black" stroke-width="3" stroke-linecap="round" fill="transparent" stroke-linejoin="round" points="89.30398559570313 195.4603271484375 109.85015869140624 190.77435302734375 128.59396362304688 188.25115966796875 149.14013671875 187.16976928710935 166.8026123046875 187.16976928710935 187.3487548828125 186.4488525390625 187.3487548828125 186.4488525390625 " />
        </svg>