<?xml version="1.0" standalone="no"?>
    <svg width="256" height="256" xmlns="http://www.w3.org/2000/svg" version="1.1">
    <polyline stroke="black" stroke-width="3" stroke-linecap="round" fill="transparent" stroke-linejoin="round" points="67.65924072265625 95.80340576171876 90.53680419921876 87.95968627929688 95.11224365234376 86.65238952636719 127.79437255859376 81.42324829101563 138.252685546875 79.46232604980469 157.86199951171875 76.84774780273438 172.24212646484375 74.88682556152344 182.04681396484375 73.57952880859375 183.35406494140625 76.19410705566406 182.700439453125 76.84774780273438 182.700439453125 76.84774780273438 " />
        <polyline stroke="black" stroke-width="3" stroke-linecap="round" fill="transparent" stroke-linejoin="round" points="103.609619140625 104.95443725585938 94.45855712890624 121.94914245605467 98.38043212890624 136.3292999267578 100.3414306640625 138.94387817382813 106.22418212890624 141.55845642089844 114.7215576171875 138.2902069091797 114.7215576171875 138.2902069091797 " />
        <polyline stroke="black" stroke-width="3" stroke-linecap="round" fill="transparent" stroke-linejoin="round" points="123.87249755859376 112.7981414794922 139.55999755859375 127.17828369140624 140.86724853515625 128.48558044433594 154.59375 124.56373596191406 154.59375 124.56373596191406 " />
        <polyline stroke="black" stroke-width="3" stroke-linecap="round" fill="transparent" stroke-linejoin="round" points="175.5103759765625 97.11068725585938 157.2083740234375 125.21734619140624 152.6328125 129.79286193847656 118.64337158203124 156.5922393798828 113.41424560546876 159.20681762695313 113.41424560546876 159.20681762695313 " />
        <polyline stroke="black" stroke-width="3" stroke-linecap="round" fill="transparent" stroke-linejoin="round" points="78.77117919921875 167.050537109375 103.609619140625 162.4750213623047 108.18505859375 162.4750213623047 153.94012451171875 161.16775512695313 160.4765625 160.5141143798828 185.3150634765625 161.82139587402344 204.27069091796875 167.7041778564453 211.46075439453125 172.93333435058594 211.46075439453125 172.93333435058594 " />
        </svg>