<?xml version="1.0" standalone="no"?>
    <svg width="256" height="256" xmlns="http://www.w3.org/2000/svg" version="1.1">
    <polyline stroke="black" stroke-width="3" stroke-linecap="round" fill="transparent" stroke-linejoin="round" points="69 69 76 67 87 66 101 64 118 58 135 54 150 50 164 48 174 46 181 44 185 43 186 43 186 42 186 42 " />
        <polyline stroke="black" stroke-width="3" stroke-linecap="round" fill="transparent" stroke-linejoin="round" points="85 95 94 105 94 111 97 118 100 124 103 128 105 130 106 132 109 132 114 132 114 132 " />
        <polyline stroke="black" stroke-width="3" stroke-linecap="round" fill="transparent" stroke-linejoin="round" points="147 91 153 101 156 105 159 109 166 113 166 113 " />
        <polyline stroke="black" stroke-width="3" stroke-linecap="round" fill="transparent" stroke-linejoin="round" points="203 82 200 93 200 97 197 103 194 109 190 116 184 121 178 128 170 134 159 142 148 152 135 161 121 170 107 181 107 181 " />
        <polyline stroke="black" stroke-width="3" stroke-linecap="round" fill="transparent" stroke-linejoin="round" points="64 194 78 189 88 187 101 183 116 179 133 176 151 172 170 169 188 167 202 165 213 165 220 165 223 165 223 165 " />
        </svg>