<?xml version="1.0" standalone="no"?>
    <svg width="256" height="256" xmlns="http://www.w3.org/2000/svg" version="1.1">
    <polyline stroke="black" stroke-width="3" stroke-linecap="round" fill="transparent" stroke-linejoin="round" points="53.5965576171875 93.84376525878906 53.0389404296875 120.05192565917967 51.9237060546875 135.66529846191406 51.3660888671875 150.72105407714844 51.3660888671875 161.8734588623047 51.3660888671875 168.0072784423828 51.3660888671875 170.23776245117188 52.4813232421875 165.21917724609375 52.4813232421875 165.21917724609375 " />
        <polyline stroke="black" stroke-width="3" stroke-linecap="round" fill="transparent" stroke-linejoin="round" points="65.86419677734375 79.34562683105469 75.34375 72.0965576171875 87.05377197265625 64.84748840332031 97.0909423828125 59.27128601074219 106.57049560546876 56.483184814453125 112.704345703125 56.483184814453125 117.165283203125 59.82891845703125 118.838134765625 68.75083923339844 117.165283203125 85.47944641113281 112.704345703125 101.0928192138672 107.68572998046876 115.59095764160156 100.99432373046876 129.53146362304688 92.6300048828125 146.2600860595703 92.6300048828125 146.2600860595703 " />
        <polyline stroke="black" stroke-width="3" stroke-linecap="round" fill="transparent" stroke-linejoin="round" points="41.88653564453125 202.02212524414065 48.577972412109375 197.5611572265625 57.499908447265625 190.8697204589844 68.65231323242188 182.50540161132813 80.36236572265625 173.02586364746094 92.6300048828125 164.10394287109375 102.10955810546876 157.97010803222656 109.35861206054688 154.6243896484375 114.934814453125 152.39390563964844 118.838134765625 150.16342163085938 118.838134765625 150.16342163085938 " />
        <polyline stroke="black" stroke-width="3" stroke-linecap="round" fill="transparent" stroke-linejoin="round" points="146.71917724609375 98.8623504638672 156.19873046875 94.95899963378906 166.23590087890625 91.0556640625 177.9459228515625 88.26756286621094 186.31024169921875 86.03707885742188 191.328857421875 87.70993041992188 191.328857421875 87.70993041992188 " />
        <polyline stroke="black" stroke-width="3" stroke-linecap="round" fill="transparent" stroke-linejoin="round" points="124.97198486328124 194.7730712890625 134.4515380859375 191.4273376464844 147.83441162109375 186.40875244140625 163.44781494140625 181.39016723632813 180.7340087890625 176.37158203125 195.232177734375 173.02586364746094 202.481201171875 173.02586364746094 202.481201171875 173.02586364746094 " />
        </svg>