<?xml version="1.0" standalone="no"?>
    <svg width="256" height="256" xmlns="http://www.w3.org/2000/svg" version="1.1">
    <polyline stroke="black" stroke-width="3" stroke-linecap="round" fill="transparent" stroke-linejoin="round" points="52.408294677734375 161.68162536621094 51.1903076171875 175.0795440673828 50.581298828125 187.86846923828125 50.581298828125 194.56744384765625 50.581298828125 197.00341796875 51.1903076171875 193.34945678710935 53.62628173828125 182.38751220703125 57.889251708984375 161.0726318359375 67.6331787109375 132.44979858398438 78.59515380859375 108.6989288330078 90.77508544921876 87.99305725097656 101.12799072265624 75.20413208007813 108.43597412109376 69.72315979003906 113.91693115234376 68.50517272949219 118.17990112304688 72.76814270019531 121.22488403320313 89.21104431152344 117.5709228515625 113.57090759277344 106.60897827148438 137.93077087402344 91.38406372070313 161.0726318359375 74.941162109375 179.342529296875 60.32525634765625 193.34945678710935 51.799285888671875 198.83041381835935 46.92730712890625 201.8753967285156 45.709320068359375 201.8753967285156 47.53631591796875 198.83041381835935 53.62628173828125 193.95843505859375 64.58819580078125 187.25949096679688 78.59515380859375 178.7335205078125 93.2110595703125 168.9895782470703 110.262939453125 158.02764892578125 123.0518798828125 146.4567108154297 132.18682861328125 134.8857879638672 132.18682861328125 134.8857879638672 " />
        <polyline stroke="black" stroke-width="3" stroke-linecap="round" fill="transparent" stroke-linejoin="round" points="154.1107177734375 77.64012145996094 162.63665771484375 72.76814270019531 171.16259765625 69.72315979003906 179.07952880859375 69.11416625976563 185.77850341796875 72.15914916992188 185.77850341796875 72.15914916992188 " />
        <polyline stroke="black" stroke-width="3" stroke-linecap="round" fill="transparent" stroke-linejoin="round" points="120.61590576171876 188.47747802734375 133.40481567382813 186.04147338867188 151.6746826171875 181.1695098876953 171.16259765625 175.68853759765625 188.2144775390625 171.42556762695313 203.43939208984375 170.20758056640625 213.7923583984375 174.47055053710938 213.7923583984375 174.47055053710938 " />
        </svg>