<?xml version="1.0" standalone="no"?>
    <svg width="256" height="256" xmlns="http://www.w3.org/2000/svg" version="1.1">
    <polyline stroke="black" stroke-width="3" stroke-linecap="round" fill="transparent" stroke-linejoin="round" points="54 100 54 107 54 126 54 151 54 175 54 193 54 203 55 205 55 205 " />
        <polyline stroke="black" stroke-width="3" stroke-linecap="round" fill="transparent" stroke-linejoin="round" points="79 79 88 79 97 80 103 87 105 100 105 115 105 138 101 159 98 175 96 181 96 181 " />
        <polyline stroke="black" stroke-width="3" stroke-linecap="round" fill="transparent" stroke-linejoin="round" points="47 207 62 202 82 198 103 194 123 189 123 189 " />
        <polyline stroke="black" stroke-width="3" stroke-linecap="round" fill="transparent" stroke-linejoin="round" points="171 100 182 100 194 103 204 110 204 110 " />
        <polyline stroke="black" stroke-width="3" stroke-linecap="round" fill="transparent" stroke-linejoin="round" points="145 201 159 201 178 201 200 201 210 202 210 202 " />
        </svg>