<?xml version="1.0" standalone="no"?>
    <svg width="256" height="256" xmlns="http://www.w3.org/2000/svg" version="1.1">
    <polyline stroke="black" stroke-width="3" stroke-linecap="round" fill="transparent" stroke-linejoin="round" points="49.96343994140625 123.82742309570313 55.408538818359375 121.73313903808594 61.272552490234375 120.05772399902344 74.257080078125 116.70684814453124 88.91708374023438 113.3560028076172 102.73934936523438 110.42401123046876 112.7918701171875 107.49203491210938 118.23699951171876 104.9788818359375 119.91244506835938 102.46574401855467 119.91244506835938 97.85832214355467 119.91244506835938 97.85832214355467 " />
        <polyline stroke="black" stroke-width="3" stroke-linecap="round" fill="transparent" stroke-linejoin="round" points="64.20452880859375 86.96806335449219 62.11029052734375 100.3714599609375 59.597137451171875 114.1937255859375 54.570892333984375 143.51365661621094 52.057708740234375 165.71304321289063 51.63885498046875 177.85986328125 52.89544677734375 184.98043823242188 54.570892333984375 187.91241455078125 55.827392578125 188.331298828125 55.827392578125 188.331298828125 " />
        <polyline stroke="black" stroke-width="3" stroke-linecap="round" fill="transparent" stroke-linejoin="round" points="96.87533569335938 87.38691711425781 94.78106689453124 97.02061462402344 92.686767578125 107.91087341308594 87.66049194335938 129.27255249023438 85.1473388671875 138.48739624023438 80.95880126953125 153.5662078857422 75.513671875 165.71304321289063 70.06854248046875 173.6713104248047 63.78570556640625 179.11643981933594 57.083984375 182.8861541748047 52.89544677734375 184.98043823242188 51.63885498046875 185.3992919921875 52.057708740234375 185.3992919921875 52.89544677734375 185.3992919921875 54.570892333984375 185.3992919921875 64.20452880859375 186.23699951171875 71.32513427734375 187.07470703125 77.1890869140625 187.49359130859375 79.70223999023438 187.49359130859375 79.70223999023438 187.49359130859375 " />
        <polyline stroke="black" stroke-width="3" stroke-linecap="round" fill="transparent" stroke-linejoin="round" points="166.40545654296875 54.71612548828125 164.7301025390625 61.41783142089844 162.2169189453125 67.70068359375 140.43637084960938 94.088623046875 133.31585693359375 98.27719116210938 128.70843505859375 100.3714599609375 126.19528198242188 100.7903289794922 125.3575439453125 100.7903289794922 127.032958984375 99.95262145996094 136.247802734375 97.02061462402344 144.2060546875 95.34518432617188 171.4317626953125 89.90005493164063 186.09173583984375 87.38691711425781 194.8876953125 86.54920959472656 197.8197021484375 86.54920959472656 197.8197021484375 86.54920959472656 " />
        <polyline stroke="black" stroke-width="3" stroke-linecap="round" fill="transparent" stroke-linejoin="round" points="126.61410522460938 137.64968872070313 129.12728881835938 143.51365661621094 131.640380859375 146.864501953125 137.92327880859375 148.9587860107422 149.23236083984375 147.70223999023438 161.79803466796875 143.09481811523438 172.6883544921875 138.48739624023438 179.3900146484375 135.55538940429688 182.74090576171875 133.87997436523438 183.15972900390625 133.4611053466797 181.48431396484375 133.87997436523438 170.59405517578125 139.74395751953125 146.71923828125 151.471923828125 126.61410522460938 161.94334411621094 116.14276123046876 167.3884735107422 113.210693359375 169.0638885498047 113.210693359375 169.0638885498047 121.58786010742188 167.80731201171875 138.34213256835938 165.71304321289063 157.190673828125 163.19989013671875 174.7825927734375 161.10562133789063 187.76715087890625 159.01133728027344 195.7254638671875 157.33592224121094 198.65740966796875 155.66049194335938 198.65740966796875 155.66049194335938 " />
        <polyline stroke="black" stroke-width="3" stroke-linecap="round" fill="transparent" stroke-linejoin="round" points="146.30038452148438 117.12571716308594 142.11181640625 130.1102752685547 137.92327880859375 143.09481811523438 127.45184326171876 171.9958953857422 118.23699951171876 197.12725830078125 115.30502319335938 205.9232482910156 111.53533935546876 218.90777587890625 110.27874755859376 223.51519775390625 110.27874755859376 223.51519775390625 " />
        <polyline stroke="black" stroke-width="3" stroke-linecap="round" fill="transparent" stroke-linejoin="round" points="147.97579956054688 176.1844482421875 153.83978271484375 179.53530883789063 160.54150390625 183.7238616943359 180.6466064453125 200.4781188964844 188.18603515625 208.01751708984375 188.18603515625 208.01751708984375 " />
        </svg>