<?xml version="1.0" standalone="no"?>
    <svg width="256" height="256" xmlns="http://www.w3.org/2000/svg" version="1.1">
    <polyline stroke="black" stroke-width="3" stroke-linecap="round" fill="transparent" stroke-linejoin="round" points="56.85015869140625 134.93817138671875 72.54608154296875 125.4380340576172 81.22015380859375 120.89447021484376 95.67684936523438 113.45956420898438 103.11175537109376 110.15518188476563 115.50326538085938 104.78550720214844 124.59042358398438 100.24197387695313 129.54696655273438 96.93757629394533 130.7861328125 95.69842529296876 130.7861328125 95.69842529296876 " />
        <polyline stroke="black" stroke-width="3" stroke-linecap="round" fill="transparent" stroke-linejoin="round" points="74.1982421875 113.45956420898438 73.78521728515625 129.15548706054688 74.61129760742188 156.4167938232422 75.43743896484375 165.91696166992188 77.502685546875 181.19981384277344 79.56793212890625 189.4608154296875 81.22015380859375 191.113037109375 82.45928955078125 190.69998168945313 82.45928955078125 190.69998168945313 " />
        <polyline stroke="black" stroke-width="3" stroke-linecap="round" fill="transparent" stroke-linejoin="round" points="107.24227905273438 99.41587829589844 106.8292236328125 110.15518188476563 106.00314331054688 122.5466766357422 104.35092163085938 134.93817138671875 102.69873046875 147.74273681640625 97.74212646484376 165.50390625 92.78549194335938 175.83016967773438 89.06805419921875 180.3737030029297 86.58978271484375 182.43896484375 84.93759155273438 183.2650604248047 84.1114501953125 183.2650604248047 84.52450561523438 182.43896484375 88.655029296875 179.1345672607422 95.26385498046876 173.764892578125 104.76400756835938 165.91696166992188 110.13363647460938 160.54730224609375 110.13363647460938 160.54730224609375 " />
        <polyline stroke="black" stroke-width="3" stroke-linecap="round" fill="transparent" stroke-linejoin="round" points="158.87353515625 73.39369201660156 151.85174560546875 83.71995544433594 144.41680908203125 91.98097229003906 132.85140991210938 102.30722045898438 131.61224365234375 103.54637145996094 130.37310791015625 103.95941162109376 131.19918823242188 103.95941162109376 137.39495849609375 102.30722045898438 148.54730224609375 98.17672729492188 168.78680419921875 89.91571044921875 178.699951171875 85.78520202636719 184.06964111328125 84.13299560546875 184.06964111328125 84.13299560546875 " />
        <polyline stroke="black" stroke-width="3" stroke-linecap="round" fill="transparent" stroke-linejoin="round" points="133.264404296875 137.82955932617188 133.264404296875 141.13394165039063 134.9166259765625 147.74273681640625 141.9384765625 150.22103881835938 154.7430419921875 145.26443481445313 154.7430419921875 145.26443481445313 " />
        <polyline stroke="black" stroke-width="3" stroke-linecap="round" fill="transparent" stroke-linejoin="round" points="186.5479736328125 128.742431640625 169.6129150390625 145.677490234375 142.76458740234375 171.28660583496094 132.43832397460938 179.1345672607422 129.13397216796875 181.19981384277344 125.82955932617188 182.85202026367188 127.894775390625 180.78677368164065 138.63412475585938 173.764892578125 153.0908203125 164.26475524902344 166.7215576171875 155.5906982421875 177.4608154296875 148.56883239746094 181.59130859375 144.85137939453125 189.4393310546875 136.17733764648438 189.4393310546875 136.17733764648438 " />
        <polyline stroke="black" stroke-width="3" stroke-linecap="round" fill="transparent" stroke-linejoin="round" points="160.11273193359375 118.41616821289063 154.33001708984375 129.15548706054688 147.30816650390625 144.02529907226563 140.28631591796875 160.54730224609375 129.13397216796875 194.41741943359375 125.82955932617188 204.33062744140625 124.59042358398438 208.46112060546875 124.59042358398438 208.87417602539065 124.59042358398438 208.87417602539065 " />
        <polyline stroke="black" stroke-width="3" stroke-linecap="round" fill="transparent" stroke-linejoin="round" points="169.6129150390625 191.52606201171875 173.743408203125 194.41741943359375 177.8739013671875 197.72183227539065 182.00439453125 201.85232543945313 187.787109375 208.46112060546875 187.787109375 208.46112060546875 " />
        </svg>