<?xml version="1.0" standalone="no"?>
    <svg width="256" height="256" xmlns="http://www.w3.org/2000/svg" version="1.1">
    <polyline stroke="black" stroke-width="3" stroke-linecap="round" fill="transparent" stroke-linejoin="round" points="54.25750732421875 113.35488891601563 60.876953125 111.14840698242188 75.881103515625 106.73541259765624 83.38323974609375 104.5289306640625 98.82867431640624 99.67462158203124 106.77206420898438 97.4681396484375 119.5697021484375 93.05514526367188 129.71957397460938 89.52476501464844 132.80868530273438 88.20086669921875 132.80868530273438 88.20086669921875 " />
        <polyline stroke="black" stroke-width="3" stroke-linecap="round" fill="transparent" stroke-linejoin="round" points="64.4073486328125 98.7920379638672 62.20086669921875 123.0634765625 59.994384765625 146.8936004638672 60.4356689453125 163.22164916992188 61.75958251953125 171.60630798339844 61.75958251953125 171.60630798339844 " />
        <polyline stroke="black" stroke-width="3" stroke-linecap="round" fill="transparent" stroke-linejoin="round" points="109.86114501953124 65.25332641601563 109.86114501953124 74.07931518554688 109.41986083984376 84.22917175292969 106.33074951171876 115.12010192871094 105.0068359375 125.71127319335938 101.03515625 145.5697021484375 93.53305053710938 164.10423278808594 88.23748779296875 171.16502380371094 82.94189453125 175.13670349121094 78.08761596679688 178.22579956054688 76.32244873046875 179.10838317871094 73.23333740234375 180.8735809326172 72.79205322265625 181.31488037109375 73.67465209960938 181.31488037109375 75.881103515625 180.4322967529297 89.1201171875 172.48892211914063 89.1201171875 172.48892211914063 " />
        <polyline stroke="black" stroke-width="3" stroke-linecap="round" fill="transparent" stroke-linejoin="round" points="180.91021728515625 36.56890869140625 178.7037353515625 42.30580139160156 176.055908203125 48.92527770996094 172.96685791015625 55.54476165771485 161.93438720703125 73.19671630859375 154.87359619140625 81.14007568359375 150.019287109375 85.55307006835938 147.81283569335938 87.75956726074219 147.37152099609375 88.20086669921875 149.5780029296875 88.20086669921875 158.40399169921875 86.4356689453125 173.40814208984375 82.4639892578125 189.7362060546875 76.72709655761719 202.97515869140625 70.54891967773438 211.35986328125 64.81204223632813 211.35986328125 64.81204223632813 " />
        <polyline stroke="black" stroke-width="3" stroke-linecap="round" fill="transparent" stroke-linejoin="round" points="149.13671875 134.53721618652344 163.6995849609375 128.8003387451172 186.6470947265625 113.79620361328124 198.120849609375 105.8528289794922 205.181640625 101.4398193359375 209.1533203125 99.23333740234376 210.035888671875 99.23333740234376 208.270751953125 102.7637176513672 204.299072265625 107.61801147460938 176.49725341796875 132.77203369140625 153.990966796875 149.10008239746094 138.98681640625 159.69125366210938 131.48480224609375 164.98684692382813 128.83700561523438 167.19332885742188 129.27825927734375 167.63462829589844 137.22164916992188 167.19332885742188 153.5496826171875 163.22164916992188 176.055908203125 155.27825927734375 198.56219482421875 143.8044891357422 198.56219482421875 143.8044891357422 " />
        <polyline stroke="black" stroke-width="3" stroke-linecap="round" fill="transparent" stroke-linejoin="round" points="174.7320556640625 116.44400024414063 170.7603759765625 126.59385681152344 166.7886962890625 136.74371337890625 162.37567138671875 147.3348846435547 149.13671875 176.01931762695313 139.86944580078125 191.4647521972656 131.48480224609375 203.37982177734375 131.48480224609375 203.37982177734375 " />
        <polyline stroke="black" stroke-width="3" stroke-linecap="round" fill="transparent" stroke-linejoin="round" points="177.8211669921875 174.25411987304688 187.97100830078125 180.4322967529297 193.2666015625 184.84527587890625 205.181640625 195.87774658203125 205.181640625 195.87774658203125 " />
        </svg>