<?xml version="1.0" standalone="no"?>
    <svg width="256" height="256" xmlns="http://www.w3.org/2000/svg" version="1.1">
    <polyline stroke="black" stroke-width="3" stroke-linecap="round" fill="transparent" stroke-linejoin="round" points="66.49078369140625 100.15365600585938 78.9727783203125 94.80422973632813 100.37051391601563 85.88851928710938 119.39071655273438 77.56718444824219 136.03338623046875 69.84022521972656 150.29852294921875 62.70765686035156 160.99737548828125 56.76383972167969 166.941162109375 53.19755554199219 170.50750732421875 50.820030212402344 170.50750732421875 50.820030212402344 167.53558349609375 54.98069763183594 153.27044677734375 71.02899169921875 125.33453369140624 106.09747314453124 99.1817626953125 141.7603302001953 84.32223510742188 164.34681701660156 74.8121337890625 183.36700439453125 70.65145874023438 193.47149658203125 69.46270751953125 201.79281616210935 72.43460083007813 207.14224243164065 78.9727783203125 208.33102416992188 103.3424072265625 197.63217163085935 124.74014282226563 181.58387756347656 140.19403076171875 166.72434997558594 159.2142333984375 145.32662963867188 176.4512939453125 119.17385864257813 176.4512939453125 119.17385864257813 " />
        <polyline stroke="black" stroke-width="3" stroke-linecap="round" fill="transparent" stroke-linejoin="round" points="107.50311279296876 126.90080261230467 118.79632568359376 125.71205139160156 127.11767578125 123.3345184326172 136.62774658203125 119.76823425292967 147.32662963867188 115.60757446289063 156.2423095703125 112.04127502441406 162.780517578125 112.04127502441406 168.12994384765625 115.01318359375 172.2906494140625 126.90080261230467 174.07379150390625 151.8648223876953 175.2625732421875 176.23443603515625 178.23443603515625 194.6602478027344 182.3951416015625 207.73663330078125 186.5557861328125 216.65234375 190.1220703125 222.59616088867188 194.28271484375 225.56808471679688 198.443359375 220.81301879882813 198.443359375 220.81301879882813 " />
        <polyline stroke="black" stroke-width="3" stroke-linecap="round" fill="transparent" stroke-linejoin="round" points="117.01318359375 151.2704315185547 125.33453369140624 156.61985778808594 129.49517822265625 161.96929931640625 132.46710205078125 167.91310119628906 132.46710205078125 175.04568481445313 132.46710205078125 175.04568481445313 " />
        </svg>