<?xml version="1.0" standalone="no"?>
    <svg width="256" height="256" xmlns="http://www.w3.org/2000/svg" version="1.1">
    <polyline stroke="black" stroke-width="3" stroke-linecap="round" fill="transparent" stroke-linejoin="round" points="95.08245849609376 54.54380798339844 107.93682861328124 47.81055450439453 122.6275634765625 41.07730865478515 137.93038940429688 34.9561767578125 148.94842529296875 33.119834899902344 154.45745849609375 33.119834899902344 156.2938232421875 37.404632568359375 149.560546875 53.319580078125 132.42138671875 75.9677734375 113.44586181640624 98.615966796875 95.08245849609376 118.81570434570313 80.3917236328125 132.28219604492188 71.21002197265625 140.2396697998047 64.476806640625 144.52447509765625 59.57989501953125 144.52447509765625 57.7435302734375 138.40333557128906 57.7435302734375 138.40333557128906 " />
        <polyline stroke="black" stroke-width="3" stroke-linecap="round" fill="transparent" stroke-linejoin="round" points="106.10049438476563 95.55540466308594 126.30023193359376 93.10694885253906 148.94842529296875 91.27059936523438 170.3724365234375 86.98580932617188 189.96002197265625 79.02833557128906 189.96002197265625 79.02833557128906 " />
        <polyline stroke="black" stroke-width="3" stroke-linecap="round" fill="transparent" stroke-linejoin="round" points="100.59149169921876 137.17910766601563 98.755126953125 149.42137145996094 97.53091430664063 160.43942260742188 99.36724853515624 168.3968963623047 104.87628173828124 173.90591430664063 115.89431762695313 176.9664764404297 132.42138671875 172.6816864013672 148.3363037109375 159.82730102539063 175.88140869140625 120.03993225097656 175.88140869140625 120.03993225097656 " />
        <polyline stroke="black" stroke-width="3" stroke-linecap="round" fill="transparent" stroke-linejoin="round" points="180.166259765625 113.3066864013672 178.9420166015625 127.99740600585938 177.7177734375 142.07601928710938 175.88140869140625 151.8698272705078 172.208740234375 158.6030731201172 172.208740234375 158.6030731201172 " />
        <polyline stroke="black" stroke-width="3" stroke-linecap="round" fill="transparent" stroke-linejoin="round" points="142.2152099609375 117.59147644042967 138.54251098632813 137.17910766601563 135.48193359375 158.6030731201172 132.42138671875 175.13014221191406 128.74868774414063 191.04507446289065 125.6881103515625 204.51156616210935 122.6275634765625 214.91751098632813 123.851806640625 221.6507568359375 123.851806640625 221.6507568359375 " />
        </svg>