<?xml version="1.0" standalone="no"?>
    <svg width="256" height="256" xmlns="http://www.w3.org/2000/svg" version="1.1">
    <polyline stroke="black" stroke-width="3" stroke-linecap="round" fill="transparent" stroke-linejoin="round" points="89.63400268554688 58.82859802246094 101.87628173828124 51.48323822021485 114.73065185546876 44.74999237060547 128.80926513671875 38.62886047363281 141.051513671875 34.9561767578125 149.62109375 33.119834899902344 155.130126953125 33.119834899902344 156.96649169921875 36.18040466308594 152.069580078125 45.974220275878906 133.7061767578125 67.39817810058594 107.99740600585938 94.3311767578125 79.8402099609375 120.03993225097656 59.0283203125 135.9548797607422 47.398193359375 143.912353515625 47.398193359375 143.912353515625 " />
        <polyline stroke="black" stroke-width="3" stroke-linecap="round" fill="transparent" stroke-linejoin="round" points="78.615966796875 80.2525634765625 87.185546875 79.02833557128906 101.87628173828124 78.41622924804688 120.851806640625 79.02833557128906 147.17266845703125 80.2525634765625 165.53607177734375 81.47679138183594 180.226806640625 82.08891296386719 190.0206298828125 81.47679138183594 190.0206298828125 81.47679138183594 " />
        <polyline stroke="black" stroke-width="3" stroke-linecap="round" fill="transparent" stroke-linejoin="round" points="107.38531494140624 113.91880798339844 103.71261596679688 121.26416015625 100.0399169921875 129.833740234375 97.59149169921876 139.6275634765625 96.9793701171875 147.5850372314453 98.20361328125 154.3182830810547 102.4884033203125 159.82730102539063 109.22161865234376 162.8878631591797 119.6275634765625 163.49998474121094 133.7061767578125 159.21519470214844 147.7847900390625 150.64559936523438 160.02703857421875 139.01544189453125 172.269287109375 121.87628173828124 179.61468505859375 108.40977478027344 182.67523193359375 101.67652893066406 183.89947509765625 99.2280731201172 183.89947509765625 100.45230102539063 183.89947509765625 106.5734405517578 183.287353515625 116.9793701171875 181.4510498046875 129.2216339111328 180.226806640625 137.17910766601563 177.7783203125 143.912353515625 173.4935302734375 148.80926513671875 168.59661865234375 148.80926513671875 168.59661865234375 148.80926513671875 " />
        <polyline stroke="black" stroke-width="3" stroke-linecap="round" fill="transparent" stroke-linejoin="round" points="150.23321533203125 107.79766845703124 146.560546875 120.6520538330078 141.051513671875 138.40333557128906 133.7061767578125 160.43942260742188 126.36080932617188 181.2512664794922 117.79119873046876 202.67523193359375 106.773193359375 233.28091430664065 106.773193359375 233.28091430664065 " />
        </svg>