<?xml version="1.0" standalone="no"?>
    <svg width="256" height="256" xmlns="http://www.w3.org/2000/svg" version="1.1">
    <polyline stroke="black" stroke-width="3" stroke-linecap="round" fill="transparent" stroke-linejoin="round" points="94.66671752929688 52.333343505859375 105.33334350585938 51.00000762939453 116.80001831054688 50.20000457763672 127.46673583984376 50.20000457763672 136.800048828125 49.93334197998047 144.800048828125 49.93334197998047 145.86669921875 49.93334197998047 145.60003662109375 50.46668243408203 144.800048828125 51.00000762939453 141.86669921875 53.66668701171875 137.86669921875 59.80000305175781 132 69.66667175292969 124.00003051757813 81.66667175292969 115.20001220703124 94.20001220703124 101.60003662109376 112.06668090820313 91.46673583984376 124.06668090820313 81.60003662109375 134.73336791992188 73.86672973632813 141.13336181640625 71.46673583984375 140.60000610351563 71.46673583984375 140.60000610351563 " />
        <polyline stroke="black" stroke-width="3" stroke-linecap="round" fill="transparent" stroke-linejoin="round" points="88.00003051757813 81.13334655761719 94.4000244140625 85.40000915527344 102.933349609375 89.93333435058594 119.46673583984376 96.06668090820313 132.53338623046875 99.00001525878906 145.86669921875 101.93336486816406 159.46673583984375 104.33335876464844 173.06671142578125 107.00001525878906 192.53338623046875 110.20001220703124 203.4666748046875 111.8000030517578 208.2667236328125 111.8000030517578 208.2667236328125 111.8000030517578 " />
        <polyline stroke="black" stroke-width="3" stroke-linecap="round" fill="transparent" stroke-linejoin="round" points="98.933349609375 163.53335571289063 98.933349609375 167.53335571289063 100.2667236328125 169.93336486816406 105.60003662109376 171.00001525878906 111.46673583984376 170.4666748046875 119.46673583984376 168.33335876464844 129.06671142578125 164.86668395996094 143.46673583984375 158.20001220703125 151.46673583984375 153.93336486816406 152 153.13336181640625 152 153.13336181640625 " />
        <polyline stroke="black" stroke-width="3" stroke-linecap="round" fill="transparent" stroke-linejoin="round" points="165.60003662109375 148.06668090820313 164.800048828125 151.00001525878906 161.60003662109375 159.80001831054688 160.53338623046875 162.4666748046875 157.60003662109375 166.20001220703125 157.06671142578125 166.20001220703125 157.06671142578125 166.20001220703125 " />
        <polyline stroke="black" stroke-width="3" stroke-linecap="round" fill="transparent" stroke-linejoin="round" points="129.06671142578125 135.00001525878906 127.46673583984376 152.33335876464844 122.933349609375 172.86668395996094 117.60003662109376 192.6000061035156 108.80001831054688 216.6000061035156 103.46673583984376 227.53335571289065 101.33334350585938 230.73333740234375 101.33334350585938 229.933349609375 101.33334350585938 229.933349609375 " />
        </svg>