<?xml version="1.0" standalone="no"?>
    <svg width="256" height="256" xmlns="http://www.w3.org/2000/svg" version="1.1">
    <polyline stroke="black" stroke-width="3" stroke-linecap="round" fill="transparent" stroke-linejoin="round" points="96.5 90 130.25 77.5 154 66.25 171.5 58.75 177.75 56.25 184 53.75 186.5 52.5 187.75 52.5 187.75 53.75 174 72.5 165.25 85 140.25 115 119 143.75 99 168.75 89 180 71.5 193.75 61.5 203.75 59 205 56.5 206.25 55.25 207.5 54 205 50.25 200 50.25 200 " />
        <polyline stroke="black" stroke-width="3" stroke-linecap="round" fill="transparent" stroke-linejoin="round" points="121.5 123.75 136.5 127.5 160.25 136.25 177.75 140 186.5 142.5 189 142.5 190.25 143.75 191.5 143.75 190.25 145 184 148.75 184 148.75 " />
        <polyline stroke="black" stroke-width="3" stroke-linecap="round" fill="transparent" stroke-linejoin="round" points="84 187.5 85.25 196.25 86.5 210 86.5 216.25 87.75 217.5 87.75 218.75 87.75 220 96.5 215 111.5 206.25 124 198.75 145.25 187.5 159 178.75 174 170 179 167.5 184 165 186.5 163.75 185.25 163.75 184 162.5 184 162.5 " />
        <polyline stroke="black" stroke-width="3" stroke-linecap="round" fill="transparent" stroke-linejoin="round" points="191.5 160 192.75 163.75 194 167.5 194 170 194 171.25 192.75 172.5 182.75 170 182.75 170 " />
        <polyline stroke="black" stroke-width="3" stroke-linecap="round" fill="transparent" stroke-linejoin="round" points="146.5 173.75 145.25 193.75 141.5 216.25 137.75 227.5 131.5 248.75 119 272.5 105.25 291.25 100.25 297.5 94 301.25 94 301.25 " />
        </svg>