<?xml version="1.0" standalone="no"?>
    <svg width="256" height="256" xmlns="http://www.w3.org/2000/svg" version="1.1">
    <polyline stroke="black" stroke-width="3" stroke-linecap="round" fill="transparent" stroke-linejoin="round" points="71.76882934570313 80.49871826171875 81.3916015625 74.08354187011719 95.82574462890624 64.99539184570313 115.6058349609375 54.303436279296875 132.17837524414063 46.28446960449219 147.68170166015625 40.93849182128906 158.90826416015625 37.73090362548828 164.788818359375 36.661712646484375 167.99639892578125 36.661712646484375 166.92724609375 40.93849182128906 158.90826416015625 52.69963836669922 140.19732666015625 74.08354187011719 118.81341552734376 98.14044189453124 99.0333251953125 118.98974609375 84.0645751953125 135.02767944335938 76.04559326171875 143.04664611816406 70.69964599609375 147.85801696777344 70.69964599609375 147.85801696777344 " />
        <polyline stroke="black" stroke-width="3" stroke-linecap="round" fill="transparent" stroke-linejoin="round" points="105.448486328125 99.74423217773438 123.0902099609375 101.88262939453124 149.28549194335938 106.15940856933594 165.8580322265625 108.8323974609375 180.29217529296875 110.43618774414063 188.845703125 111.50538635253906 188.845703125 111.50538635253906 " />
        <polyline stroke="black" stroke-width="3" stroke-linecap="round" fill="transparent" stroke-linejoin="round" points="100.6370849609375 140.9082489013672 99.0333251953125 150.531005859375 99.0333251953125 159.08456420898438 99.0333251953125 165.49974060058594 100.6370849609375 169.24192810058594 104.3792724609375 171.9149169921875 109.190673828125 171.9149169921875 118.81341552734376 170.31112670898438 130.03997802734375 166.56893920898438 143.93951416015625 159.08456420898438 155.16607666015625 152.66940307617188 162.65045166015625 148.39260864257813 167.4617919921875 146.2542266845703 171.73858642578125 145.18502807617188 174.9461669921875 145.18502807617188 176.54998779296875 146.788818359375 177.619140625 148.92721557617188 177.619140625 150.531005859375 177.619140625 152.13479614257813 177.619140625 153.73858642578125 176.54998779296875 155.87698364257813 176.54998779296875 159.61917114257813 176.54998779296875 159.61917114257813 " />
        <polyline stroke="black" stroke-width="3" stroke-linecap="round" fill="transparent" stroke-linejoin="round" points="137.52435302734375 141.97744750976563 134.85134887695313 157.48077392578125 129.50537109375 177.26089477539063 123.0902099609375 192.76422119140625 117.20965576171876 206.66375732421875 111.8636474609375 220.0286865234375 111.8636474609375 220.0286865234375 " />
        </svg>