<?xml version="1.0" standalone="no"?>
    <svg width="256" height="256" xmlns="http://www.w3.org/2000/svg" version="1.1">
    <polyline stroke="black" stroke-width="3" stroke-linecap="round" fill="transparent" stroke-linejoin="round" points="116 45 138 41 157 39 166 39 169 39 168 44 148 62 123 84 92 110 67 130 50 144 46 149 46 149 " />
        <polyline stroke="black" stroke-width="3" stroke-linecap="round" fill="transparent" stroke-linejoin="round" points="80 88 91 88 115 94 147 103 177 112 204 118 223 122 223 122 " />
        <polyline stroke="black" stroke-width="3" stroke-linecap="round" fill="transparent" stroke-linejoin="round" points="78 155 78 162 78 172 78 181 78 184 83 186 93 186 110 186 131 184 154 181 174 179 188 177 188 177 " />
        <polyline stroke="black" stroke-width="3" stroke-linecap="round" fill="transparent" stroke-linejoin="round" points="182 158 182 168 180 179 177 181 177 181 " />
        <polyline stroke="black" stroke-width="3" stroke-linecap="round" fill="transparent" stroke-linejoin="round" points="157 157 161 172 162 199 157 224 157 224 " />
        </svg>