<?xml version="1.0" standalone="no"?>
    <svg width="256" height="256" xmlns="http://www.w3.org/2000/svg" version="1.1">
    <polyline stroke="black" stroke-width="3" stroke-linecap="round" fill="transparent" stroke-linejoin="round" points="91.26995849609376 59.56317138671875 75.7200927734375 93.99501037597656 60.17022705078125 125.09474182128906 51.83990478515625 139.53390502929688 41.84356689453125 151.7516632080078 41.84356689453125 149.53025817871094 41.84356689453125 149.53025817871094 " />
        <polyline stroke="black" stroke-width="3" stroke-linecap="round" fill="transparent" stroke-linejoin="round" points="119.03756713867188 71.78091430664063 131.8106689453125 80.66654968261719 143.47308349609375 89.55220031738281 151.24798583984375 97.32713317871094 154.58013916015625 103.99134826660156 155.135498046875 107.32347106933594 155.135498046875 107.32347106933594 " />
        <polyline stroke="black" stroke-width="3" stroke-linecap="round" fill="transparent" stroke-linejoin="round" points="109.04122924804688 129.53756713867188 106.81982421875 150.64096069335938 106.26446533203124 175.0764617919922 106.26446533203124 188.96026611328125 105.15374755859376 198.4012756347656 95.7127685546875 201.73336791992188 88.4931640625 195.06915283203125 79.05218505859375 183.96209716796875 70.721923828125 173.410400390625 65.16839599609375 166.19082641601563 61.836273193359375 161.7480010986328 61.836273193359375 160.08193969726563 64.05767822265625 160.63729858398438 70.16656494140625 163.9694061279297 80.16290283203125 169.52293395996094 92.93600463867188 175.63182067871094 102.37701416015624 177.29786682128906 112.9287109375 172.8550567626953 112.9287109375 172.8550567626953 " />
        <polyline stroke="black" stroke-width="3" stroke-linecap="round" fill="transparent" stroke-linejoin="round" points="126.8125 156.7498321533203 121.25897216796876 167.30152893066406 117.9268798828125 173.410400390625 116.26080322265624 176.18716430664063 116.26080322265624 176.18716430664063 " />
        <polyline stroke="black" stroke-width="3" stroke-linecap="round" fill="transparent" stroke-linejoin="round" points="180.1263427734375 50.677528381347656 176.794189453125 69.55950927734375 172.35137939453125 83.99867248535156 167.9085693359375 93.99501037597656 164.57647705078125 102.88064575195313 165.6871337890625 102.88064575195313 170.685302734375 99.5485382080078 177.349609375 93.43966674804688 187.9012451171875 85.66473388671875 195.67620849609375 82.33261108398438 201.7850341796875 99.5485382080078 190.1226806640625 138.9785614013672 174.57281494140625 170.0782928466797 157.35687255859375 193.95843505859375 145.13912963867188 206.7315368652344 138.47491455078125 211.72970581054688 138.47491455078125 211.72970581054688 " />
        <polyline stroke="black" stroke-width="3" stroke-linecap="round" fill="transparent" stroke-linejoin="round" points="167.9085693359375 149.53025817871094 172.35137939453125 161.7480010986328 179.57098388671875 176.18716430664063 190.677978515625 192.2923889160156 202.3404541015625 207.28689575195313 214.55816650390625 223.94747924804688 214.55816650390625 223.94747924804688 " />
        </svg>