<?xml version="1.0" standalone="no"?>
    <svg width="256" height="256" xmlns="http://www.w3.org/2000/svg" version="1.1">
    <polyline stroke="black" stroke-width="3" stroke-linecap="round" fill="transparent" stroke-linejoin="round" points="78.09893798828125 59.195159912109375 72.56195068359375 69.80767822265625 66.1021728515625 80.88157653808594 54.56683349609375 100.72235107421876 41.18585205078125 119.17889404296876 30.1119384765625 132.0984649658203 22.729339599609375 142.2495574951172 19.960845947265625 150.09356689453125 19.960845947265625 150.09356689453125 " />
        <polyline stroke="black" stroke-width="3" stroke-linecap="round" fill="transparent" stroke-linejoin="round" points="80.867431640625 54.11961364746094 97.939697265625 69.80767822265625 102.5538330078125 74.88322448730469 116.85760498046876 92.41691589355467 123.77883911132813 102.10659790039063 125.16311645507813 106.72073364257813 122.39462280273438 116.87181091308594 122.39462280273438 116.87181091308594 " />
        <polyline stroke="black" stroke-width="3" stroke-linecap="round" fill="transparent" stroke-linejoin="round" points="86.86578369140625 101.18376159667967 89.1728515625 111.33486938476563 90.55706787109376 122.40878295898438 93.3255615234375 158.86041259765625 94.24838256835938 182.8539123535156 92.8641357421875 205.00177001953125 91.47988891601563 219.3055725097656 90.09564208984376 224.84249877929688 88.71142578125 226.68817138671875 84.0972900390625 228.07241821289065 77.63751220703125 227.14956665039065 67.94784545898438 221.1512451171875 63.333709716796875 216.07568359375 63.333709716796875 216.07568359375 " />
        <polyline stroke="black" stroke-width="3" stroke-linecap="round" fill="transparent" stroke-linejoin="round" points="44.877166748046875 174.54849243164063 51.33697509765625 179.6240234375 57.7967529296875 184.6995849609375 60.10382080078125 187.00665283203125 60.10382080078125 187.00665283203125 " />
        <polyline stroke="black" stroke-width="3" stroke-linecap="round" fill="transparent" stroke-linejoin="round" points="109.93643188476563 155.16912841796875 107.16796875 159.7832489013672 103.47665405273438 165.32022094726563 96.09405517578124 178.70118713378906 96.09405517578124 178.70118713378906 " />
        <polyline stroke="black" stroke-width="3" stroke-linecap="round" fill="transparent" stroke-linejoin="round" points="141.77395629882813 36.12449645996094 139.92828369140625 54.11961364746094 137.6212158203125 73.96040344238281 134.391357421875 91.95550537109376 130.23861694335938 107.18214416503906 126.54730224609376 115.0261688232422 121.93319702148438 122.87020874023438 121.93319702148438 122.87020874023438 " />
        <polyline stroke="black" stroke-width="3" stroke-linecap="round" fill="transparent" stroke-linejoin="round" points="158.84625244140625 72.57615661621094 165.3060302734375 69.34626770019531 171.304443359375 65.65495300292969 187.915283203125 57.349517822265625 197.14349365234375 55.50386047363281 203.60333251953125 55.042449951171875 207.75604248046875 56.42669677734375 210.0631103515625 61.04081726074219 206.83319091796875 82.26583862304688 203.60333251953125 92.87835693359376 188.83807373046875 132.5598907470703 179.60980224609375 156.55335998535156 164.3831787109375 181.9310760498047 151.925048828125 199.46481323242188 142.69677734375 211.0001220703125 136.23696899414063 219.7669677734375 127.47012329101563 227.61102294921875 122.85601806640624 232.6865234375 122.85601806640624 232.6865234375 " />
        <polyline stroke="black" stroke-width="3" stroke-linecap="round" fill="transparent" stroke-linejoin="round" points="168.997314453125 152.862060546875 174.5343017578125 162.55172729492188 178.68701171875 173.6256561279297 195.75927734375 209.15451049804688 205.448974609375 226.22674560546875 209.14031982421875 231.7637634277344 209.6016845703125 232.6865234375 209.6016845703125 232.6865234375 " />
        </svg>