<?xml version="1.0" standalone="no"?>
    <svg width="256" height="256" xmlns="http://www.w3.org/2000/svg" version="1.1">
    <polyline stroke="black" stroke-width="3" stroke-linecap="round" fill="transparent" stroke-linejoin="round" points="84.53335571289063 52.600006103515625 83.20001220703125 56.86668395996094 79.20001220703125 67.53334045410156 70.13336181640625 85.40000915527344 64.80001831054688 95.00001525878906 61.60003662109375 101.93336486816406 59.46673583984375 106.7333526611328 58.666717529296875 108.33335876464844 58.4000244140625 108.33335876464844 58.4000244140625 108.33335876464844 " />
        <polyline stroke="black" stroke-width="3" stroke-linecap="round" fill="transparent" stroke-linejoin="round" points="93.33334350585938 56.600006103515625 100.2667236328125 61.66667175292969 108.2667236328125 67.53334045410156 116.00003051757813 73.40000915527344 123.20001220703124 78.4666748046875 130.933349609375 83.53334045410156 132.800048828125 85.93333435058594 132.53338623046875 85.93333435058594 132.53338623046875 85.93333435058594 " />
        <polyline stroke="black" stroke-width="3" stroke-linecap="round" fill="transparent" stroke-linejoin="round" points="99.46673583984376 95.8000030517578 101.06671142578124 107.00001525878906 102.4000244140625 121.13336181640624 103.46673583984376 143.00001525878906 103.73336791992188 155.2666778564453 103.73336791992188 164.60000610351563 103.73336791992188 170.4666748046875 103.46673583984376 173.13336181640625 102.66671752929688 173.66668701171875 101.60003662109376 173.66668701171875 100.80001831054688 173.13336181640625 100.80001831054688 173.13336181640625 " />
        <polyline stroke="black" stroke-width="3" stroke-linecap="round" fill="transparent" stroke-linejoin="round" points="76.00003051757813 127.8000030517578 78.933349609375 131.53335571289063 85.06671142578125 134.20001220703125 89.06671142578125 134.20001220703125 90.13336181640624 133.40000915527344 90.13336181640624 133.40000915527344 " />
        <polyline stroke="black" stroke-width="3" stroke-linecap="round" fill="transparent" stroke-linejoin="round" points="124.80001831054688 116.60000610351563 118.66671752929688 123.53335571289063 115.20001220703124 127.53335571289063 114.933349609375 127.8000030517578 114.933349609375 127.8000030517578 " />
        <polyline stroke="black" stroke-width="3" stroke-linecap="round" fill="transparent" stroke-linejoin="round" points="172.53338623046875 66.20001220703125 169.06671142578125 76.60000610351563 163.73333740234375 87.00001525878906 158.666748046875 95.26667785644533 157.3333740234375 97.66667175292967 157.3333740234375 97.66667175292967 " />
        <polyline stroke="black" stroke-width="3" stroke-linecap="round" fill="transparent" stroke-linejoin="round" points="177.86669921875 71.53334045410156 181.06671142578125 69.66667175292969 186.13336181640625 67.53334045410156 193.06671142578125 66.20001220703125 200.2667236328125 65.66667175292969 208.53338623046875 65.93333435058594 211.20001220703125 66.73333740234375 212.00006103515625 67.80000305175781 212.00006103515625 69.13334655761719 212.00006103515625 72.60000610351563 212.00006103515625 75.26667785644531 212.00006103515625 78.20001220703125 211.20001220703125 81.40000915527344 209.60003662109375 86.20001220703125 205.60003662109375 98.4666748046875 201.06671142578125 110.7333526611328 194.933349609375 126.4666748046875 186.933349609375 144.60000610351563 173.06671142578125 168.86668395996094 165.60003662109375 181.13336181640625 160.2667236328125 189.4000244140625 157.60003662109375 192.86666870117188 156.800048828125 192.6000061035156 156.800048828125 191.2666931152344 156.800048828125 191.2666931152344 " />
        <polyline stroke="black" stroke-width="3" stroke-linecap="round" fill="transparent" stroke-linejoin="round" points="181.86669921875 121.66667175292967 186.933349609375 129.93336486816406 193.60003662109375 138.20001220703125 201.06671142578125 146.20001220703125 212.2667236328125 157.13336181640625 219.73333740234375 163.2666778564453 227.20001220703125 168.60000610351563 234.13336181640625 172.86668395996094 239.4666748046875 177.13336181640625 241.60003662109375 180.33335876464844 241.60003662109375 180.33335876464844 " />
        </svg>