<?xml version="1.0" standalone="no"?>
    <svg width="256" height="256" xmlns="http://www.w3.org/2000/svg" version="1.1">
    <polyline stroke="black" stroke-width="3" stroke-linecap="round" fill="transparent" stroke-linejoin="round" points="54.694366455078125 90.54312133789063 48.524017333984375 101.85545349121094 42.3536376953125 112.139404296875 38.7542724609375 119.33816528320313 38.7542724609375 121.90914916992188 40.81103515625 120.36654663085938 45.953033447265625 111.6251983642578 56.75115966796875 92.08570861816406 68.06350708007813 73.06040954589844 75.26226806640625 64.31906127929688 85.54620361328125 58.148681640625 98.91534423828124 56.09190368652344 113.82705688476563 57.634490966796875 129.25299072265625 62.26226806640625 139.53692626953125 65.86164855957031 145.19308471679688 68.94682312011719 149.30667114257813 73.57460021972656 149.30667114257813 73.57460021972656 " />
        <polyline stroke="black" stroke-width="3" stroke-linecap="round" fill="transparent" stroke-linejoin="round" points="97.886962890625 135.79246520996094 99.42953491210938 164.0733184814453 99.9437255859375 177.95664978027344 99.42953491210938 188.7547912597656 96.85855102539063 194.41094970703125 91.202392578125 195.95355224609375 84.517822265625 190.29736328125 75.26226806640625 178.47084045410156 66.52090454101563 160.98812866210938 62.4073486328125 150.70419311523438 60.350555419921875 145.5622100830078 58.807952880859375 143.50543212890625 58.807952880859375 144.53382873535156 59.3221435546875 149.16159057617188 62.921539306640625 153.78936767578125 70.12030029296875 156.8745574951172 84.517822265625 156.8745574951172 95.83013916015624 149.16159057617188 95.83013916015624 149.16159057617188 " />
        <polyline stroke="black" stroke-width="3" stroke-linecap="round" fill="transparent" stroke-linejoin="round" points="120.51162719726563 127.5653076171875 116.9122314453125 135.2782745361328 114.85546875 140.9344482421875 113.82705688476563 144.01962280273438 115.36962890625 141.96282958984375 115.36962890625 141.96282958984375 " />
        <polyline stroke="black" stroke-width="3" stroke-linecap="round" fill="transparent" stroke-linejoin="round" points="160.6190185546875 70.48942565917969 156.50543212890625 81.28756713867188 153.42022705078125 89.51472473144531 151.877685546875 94.14250183105467 151.877685546875 96.71348571777344 152.90606689453125 96.71348571777344 156.50543212890625 94.14250183105467 162.16162109375 89.51472473144531 169.3603515625 83.85855102539063 176.044921875 79.23077392578125 182.21527099609375 76.6597900390625 186.328857421875 76.14558410644531 188.89984130859375 77.68818664550781 187.3572998046875 85.40113830566406 175.01654052734375 120.88075256347656 158.56219482421875 156.3603515625 142.10791015625 186.697998046875 135.93756103515625 195.95355224609375 130.79556274414063 199.55291748046875 127.71038818359376 198.0103454589844 127.71038818359376 198.0103454589844 " />
        <polyline stroke="black" stroke-width="3" stroke-linecap="round" fill="transparent" stroke-linejoin="round" points="154.96282958984375 133.2214813232422 160.6190185546875 145.0480194091797 170.38873291015625 162.0165252685547 180.15850830078125 176.41404724121094 188.3856201171875 189.26898193359375 196.61279296875 206.23748779296875 196.61279296875 206.23748779296875 " />
        </svg>