<?xml version="1.0" standalone="no"?>
    <svg width="256" height="256" xmlns="http://www.w3.org/2000/svg" version="1.1">
    <polyline stroke="black" stroke-width="3" stroke-linecap="round" fill="transparent" stroke-linejoin="round" points="98 53 95 58 88 70 78 85 70 97 64 107 63 108 63 108 " />
        <polyline stroke="black" stroke-width="3" stroke-linecap="round" fill="transparent" stroke-linejoin="round" points="98 60 103 66 111 75 121 85 131 94 134 96 134 96 " />
        <polyline stroke="black" stroke-width="3" stroke-linecap="round" fill="transparent" stroke-linejoin="round" points="104 83 103 83 103 87 103 99 102 117 101 131 101 137 100 149 100 153 100 163 100 165 100 171 100 172 100 174 100 175 96 172 94 170 94 170 " />
        <polyline stroke="black" stroke-width="3" stroke-linecap="round" fill="transparent" stroke-linejoin="round" points="80 115 79 117 77 122 76 126 76 128 76 132 76 133 76 134 76 134 " />
        <polyline stroke="black" stroke-width="3" stroke-linecap="round" fill="transparent" stroke-linejoin="round" points="122 109 120 112 118 115 109 133 107 137 107 137 " />
        <polyline stroke="black" stroke-width="3" stroke-linecap="round" fill="transparent" stroke-linejoin="round" points="164 57 163 59 160 65 156 76 152 87 149 95 148 97 148 97 " />
        <polyline stroke="black" stroke-width="3" stroke-linecap="round" fill="transparent" stroke-linejoin="round" points="153 88 155 87 156 87 163 83 172 78 181 75 185 73 186 73 185 73 186 74 186 76 186 80 184 90 177 104 169 119 165 125 154 142 151 146 141 160 137 164 137 164 " />
        <polyline stroke="black" stroke-width="3" stroke-linecap="round" fill="transparent" stroke-linejoin="round" points="151 104 152 105 153 109 154 112 162 123 176 140 196 161 218 179 234 185 234 185 " />
        </svg>