<?xml version="1.0" standalone="no"?>
    <svg width="256" height="256" xmlns="http://www.w3.org/2000/svg" version="1.1">
    <polyline stroke="black" stroke-width="3" stroke-linecap="round" fill="transparent" stroke-linejoin="round" points="58.9664306640625 104.57427978515624 56.920623779296875 112.7574462890625 54.87481689453125 120.94061279296876 50.4422607421875 140.71661376953125 48.396484375 150.26365661621094 45.66876220703125 169.01675415039063 45.66876220703125 173.1083221435547 46.350677490234375 172.4263916015625 46.350677490234375 172.4263916015625 " />
        <polyline stroke="black" stroke-width="3" stroke-linecap="round" fill="transparent" stroke-linejoin="round" points="72.26406860351563 63.317474365234375 70.21826171875 76.95608520507813 68.17245483398438 90.59469604492188 63.0579833984375 122.3044891357422 61.3531494140625 137.64793395996094 59.6483154296875 165.26611328125 60.33026123046875 187.42889404296875 62.03509521484375 202.09039306640625 64.42184448242188 209.59161376953125 65.78573608398438 210.61453247070313 65.78573608398438 210.61453247070313 " />
        <polyline stroke="black" stroke-width="3" stroke-linecap="round" fill="transparent" stroke-linejoin="round" points="128.86434936523438 70.13677978515625 122.04501342773438 82.41152954101563 115.22567749023438 94.686279296875 108.0654296875 106.62008666992188 94.42681884765624 127.0780029296875 84.19784545898438 141.39854431152344 78.40142822265625 148.55882263183594 78.40142822265625 148.55882263183594 " />
        <polyline stroke="black" stroke-width="3" stroke-linecap="round" fill="transparent" stroke-linejoin="round" points="131.59197998046875 81.7296142578125 138.75228881835938 83.09347534179688 145.91259765625 84.45733642578125 152.73187255859375 85.82119750976563 161.5970458984375 87.86698913574219 167.05242919921875 89.2308349609375 173.1898193359375 91.27664184570313 174.8946533203125 91.95857238769533 174.8946533203125 91.95857238769533 " />
        <polyline stroke="black" stroke-width="3" stroke-linecap="round" fill="transparent" stroke-linejoin="round" points="132.61492919921875 129.12380981445313 131.25106811523438 137.64793395996094 129.88720703125 146.17205810546875 128.182373046875 191.52044677734375 128.182373046875 202.7723388671875 127.15948486328124 209.59161376953125 125.79562377929688 211.9783935546875 124.43173217773438 211.9783935546875 124.43173217773438 211.9783935546875 " />
        <polyline stroke="black" stroke-width="3" stroke-linecap="round" fill="transparent" stroke-linejoin="round" points="93.40393066406253 158.10586547851563 98.17742919921876 160.83358764648438 102.950927734375 163.56130981445313 109.42929077148438 165.94805908203125 118.29437255859376 166.970947265625 118.29437255859376 166.970947265625 " />
        <polyline stroke="black" stroke-width="3" stroke-linecap="round" fill="transparent" stroke-linejoin="round" points="165.34771728515625 149.2407684326172 159.8922119140625 155.71910095214844 154.43670654296875 162.1974334716797 148.98129272460938 168.33480834960938 140.45712280273438 177.54087829589844 135.00167846679688 183.3372802734375 133.296875 184.701171875 133.296875 184.701171875 " />
        <polyline stroke="black" stroke-width="3" stroke-linecap="round" fill="transparent" stroke-linejoin="round" points="200.80810546875 65.02230834960938 196.0345458984375 73.20547485351563 191.260986328125 81.38864135742188 186.146484375 89.2308349609375 181.37298583984375 96.39111328125 172.848876953125 105.93815612792967 164.32470703125 112.41648864746094 161.5970458984375 112.41648864746094 160.5740966796875 109.0068359375 162.619873046875 100.4827117919922 171.4849853515625 90.93568420410156 189.2152099609375 81.7296142578125 208.9912109375 76.61514282226563 224.67559814453125 75.25125122070313 235.5865478515625 74.91029357910156 239.33709716796875 75.25125122070313 239.33709716796875 75.25125122070313 " />
        <polyline stroke="black" stroke-width="3" stroke-linecap="round" fill="transparent" stroke-linejoin="round" points="178.30438232421875 126.39602661132813 177.28143310546875 131.85150146484375 176.25848388671875 137.30697631835938 175.235595703125 143.10337829589844 173.87176513671875 153.67330932617188 172.5079345703125 161.5155029296875 171.14404296875 165.60708618164063 169.7801513671875 165.60708618164063 169.0982666015625 164.58419799804688 169.0982666015625 164.58419799804688 " />
        <polyline stroke="black" stroke-width="3" stroke-linecap="round" fill="transparent" stroke-linejoin="round" points="187.16937255859375 115.14422607421875 193.98870849609375 114.12132263183594 200.80804443359375 113.09841918945313 214.4466552734375 112.41648864746094 224.33465576171875 114.12132263183594 230.4720458984375 116.84904479980467 233.88165283203125 120.94061279296876 234.5635986328125 128.78282165527344 228.42620849609375 139.69371032714844 222.288818359375 144.46722412109375 222.288818359375 144.46722412109375 " />
        <polyline stroke="black" stroke-width="3" stroke-linecap="round" fill="transparent" stroke-linejoin="round" points="173.871826171875 126.3960876464844 190.9200439453125 122.3044891357422 207.96826171875 118.212890625 216.8333740234375 117.53097534179688 224.67559814453125 118.212890625 227.7442626953125 124.69125366210938 227.7442626953125 124.69125366210938 " />
        <polyline stroke="black" stroke-width="3" stroke-linecap="round" fill="transparent" stroke-linejoin="round" points="180.6910400390625 159.81068420410156 187.851318359375 157.42391967773438 195.0115966796875 155.0371551513672 203.19476318359375 152.650390625 216.8333740234375 148.21786499023438 222.288818359375 146.85398864746094 222.288818359375 146.85398864746094 " />
        <polyline stroke="black" stroke-width="3" stroke-linecap="round" fill="transparent" stroke-linejoin="round" points="169.7801513671875 193.22534179687506 169.7801513671875 197.65786743164065 169.7801513671875 202.09039306640625 169.7801513671875 206.18197631835935 169.439208984375 213.00131225585935 169.0982666015625 215.04708862304688 168.75726318359375 216.41094970703125 168.0753173828125 216.41094970703125 168.75726318359375 213.00131225585935 174.5537109375 201.408447265625 182.73681640625 190.1566162109375 194.3297119140625 180.60955810546875 207.96826171875 173.79026794433594 220.92498779296875 170.03964233398438 230.81298828125 169.69866943359375 237.63232421875 171.40350341796875 241.3829345703125 174.47219848632813 243.0877685546875 184.01922607421875 237.9732666015625 201.0675048828125 232.1768798828125 209.59161376953125 232.1768798828125 209.59161376953125 " />
        <polyline stroke="black" stroke-width="3" stroke-linecap="round" fill="transparent" stroke-linejoin="round" points="172.1668701171875 194.24826049804685 178.645263671875 192.54339599609375 185.1236572265625 190.83853149414065 191.94287109375 189.47467041015625 207.96826171875 188.4517822265625 215.469482421875 190.1566162109375 215.469482421875 190.1566162109375 " />
        <polyline stroke="black" stroke-width="3" stroke-linecap="round" fill="transparent" stroke-linejoin="round" points="188.53326416015625 223.91213989257815 193.98870849609375 222.54830932617188 199.44415283203125 221.1844787597656 205.58154296875 219.82058715820313 217.51531982421875 217.7747802734375 225.3575439453125 217.7747802734375 225.3575439453125 217.7747802734375 " />
        </svg>