<?xml version="1.0" standalone="no"?>
    <svg width="256" height="256" xmlns="http://www.w3.org/2000/svg" version="1.1">
    <polyline stroke="black" stroke-width="3" stroke-linecap="round" fill="transparent" stroke-linejoin="round" points="44.11700439453125 93.2861328125 42.44415283203125 103.32330322265624 41.32891845703125 115.59095764160156 40.21368408203125 127.30099487304688 39.09844970703125 135.66529846191406 39.09844970703125 141.7991180419922 40.77130126953125 142.91436767578125 40.77130126953125 142.91436767578125 " />
        <polyline stroke="black" stroke-width="3" stroke-linecap="round" fill="transparent" stroke-linejoin="round" points="70.8828125 47.56126403808594 74.228515625 61.50177001953125 74.228515625 84.36421203613281 73.11328125 114.47572326660156 73.11328125 140.6838836669922 73.11328125 161.3158416748047 73.11328125 177.48683166503906 72.5556640625 188.08160400390625 71.4404296875 193.1001892089844 71.4404296875 193.1001892089844 " />
        <polyline stroke="black" stroke-width="3" stroke-linecap="round" fill="transparent" stroke-linejoin="round" points="112.704345703125 50.906982421875 105.45526123046876 70.4237060546875 99.32144165039063 86.03707885742188 92.0723876953125 101.0928192138672 86.49615478515625 112.2452392578125 83.70806884765625 117.82144165039063 83.70806884765625 117.82144165039063 " />
        <polyline stroke="black" stroke-width="3" stroke-linecap="round" fill="transparent" stroke-linejoin="round" points="115.492431640625 63.17463684082031 125.52960205078124 62.05938720703125 137.7972412109375 62.61701965332031 151.73779296875 64.84748840332031 164.00537109375 67.63560485839844 172.9273681640625 70.4237060546875 177.3883056640625 73.21180725097656 177.3883056640625 73.21180725097656 " />
        <polyline stroke="black" stroke-width="3" stroke-linecap="round" fill="transparent" stroke-linejoin="round" points="127.20245361328124 98.8623504638672 129.99057006835938 113.9180908203125 131.10580444335938 128.41622924804688 132.2210693359375 145.7024688720703 132.2210693359375 161.3158416748047 132.2210693359375 173.02586364746094 131.10580444335938 178.60206604003906 128.87530517578125 182.50540161132813 121.06863403320313 181.9477996826172 121.06863403320313 181.9477996826172 " />
        <polyline stroke="black" stroke-width="3" stroke-linecap="round" fill="transparent" stroke-linejoin="round" points="89.28427124023438 137.89578247070313 97.0909423828125 145.14483642578125 100.99432373046876 147.93295288085938 107.12811279296876 149.60580444335938 107.12811279296876 149.60580444335938 " />
        <polyline stroke="black" stroke-width="3" stroke-linecap="round" fill="transparent" stroke-linejoin="round" points="142.81585693359375 119.49430847167967 141.14297485351563 131.20433044433594 138.9124755859375 139.56863403320313 135.0091552734375 147.93295288085938 131.10580444335938 155.1820068359375 131.10580444335938 155.1820068359375 " />
        <polyline stroke="black" stroke-width="3" stroke-linecap="round" fill="transparent" stroke-linejoin="round" points="186.31024169921875 24.141204833984375 180.7340087890625 45.888397216796875 174.0426025390625 61.50177001953125 167.90875244140625 75.44229125976563 162.89013671875 84.36421203613281 159.54443359375 91.0556640625 159.54443359375 91.0556640625 " />
        <polyline stroke="black" stroke-width="3" stroke-linecap="round" fill="transparent" stroke-linejoin="round" points="195.789794921875 39.75457763671875 212.5184326171875 38.63933563232422 220.8826904296875 39.75457763671875 225.9012451171875 41.42743682861328 228.13177490234375 43.657920837402344 228.13177490234375 43.657920837402344 " />
        <polyline stroke="black" stroke-width="3" stroke-linecap="round" fill="transparent" stroke-linejoin="round" points="164.00537109375 93.2861328125 164.56304931640625 105.55378723144533 165.67828369140625 114.47572326660156 165.67828369140625 123.95526123046876 165.67828369140625 130.64671325683594 165.67828369140625 134.550048828125 165.67828369140625 134.550048828125 " />
        <polyline stroke="black" stroke-width="3" stroke-linecap="round" fill="transparent" stroke-linejoin="round" points="166.23590087890625 84.36421203613281 182.4068603515625 79.34562683105469 193.559326171875 77.11514282226563 205.269287109375 76.55752563476563 215.3065185546875 77.11514282226563 223.1131591796875 79.34562683105469 227.57415771484375 83.24897766113281 229.24700927734375 89.38279724121094 225.3436279296875 101.65045166015624 212.5184326171875 120.05192565917967 212.5184326171875 120.05192565917967 " />
        <polyline stroke="black" stroke-width="3" stroke-linecap="round" fill="transparent" stroke-linejoin="round" points="164.00537109375 103.88093566894533 180.1763916015625 98.8623504638672 189.65594482421875 97.18948364257813 199.135498046875 96.07424926757813 205.826904296875 96.07424926757813 208.61505126953125 98.8623504638672 205.269287109375 112.2452392578125 195.789794921875 125.6281280517578 195.789794921875 125.6281280517578 " />
        <polyline stroke="black" stroke-width="3" stroke-linecap="round" fill="transparent" stroke-linejoin="round" points="172.9273681640625 140.6838836669922 189.09832763671875 131.76194763183594 200.808349609375 127.30099487304688 210.84552001953125 123.95526123046876 216.9793701171875 122.84002685546876 216.9793701171875 122.84002685546876 " />
        <polyline stroke="black" stroke-width="3" stroke-linecap="round" fill="transparent" stroke-linejoin="round" points="166.23590087890625 172.46824645996094 167.90875244140625 188.08160400390625 168.46636962890625 196.4459228515625 168.46636962890625 203.13735961914065 168.46636962890625 205.92547607421875 169.58160400390625 201.46450805664065 169.58160400390625 190.3121032714844 170.1392822265625 180.83255004882813 171.8121337890625 175.25634765625 174.6002197265625 170.23776245117188 180.1763916015625 165.77679443359375 189.09832763671875 160.75820922851563 201.923583984375 155.73963928222656 213.6336669921875 154.0667724609375 222.5555419921875 155.1820068359375 229.24700927734375 157.97010803222656 233.7080078125 162.9886932373047 235.9384765625 171.91062927246094 232.5927734375 189.1968688964844 217.5369873046875 211.50167846679688 217.5369873046875 211.50167846679688 " />
        <polyline stroke="black" stroke-width="3" stroke-linecap="round" fill="transparent" stroke-linejoin="round" points="176.2730712890625 184.73590087890625 192.444091796875 180.83255004882813 202.481201171875 179.71731567382813 212.5184326171875 179.15969848632813 219.7674560546875 180.27493286132813 224.2283935546875 181.9477996826172 224.2283935546875 188.08160400390625 224.2283935546875 188.08160400390625 " />
        <polyline stroke="black" stroke-width="3" stroke-linecap="round" fill="transparent" stroke-linejoin="round" points="170.6968994140625 223.21170043945313 181.8492431640625 219.86599731445313 190.771240234375 218.193115234375 200.250732421875 216.520263671875 211.9608154296875 215.962646484375 211.9608154296875 215.962646484375 " />
        </svg>