<?xml version="1.0" standalone="no"?>
    <svg width="256" height="256" xmlns="http://www.w3.org/2000/svg" version="1.1">
    <polyline stroke="black" stroke-width="3" stroke-linecap="round" fill="transparent" stroke-linejoin="round" points="57 51 57 58 57 65 57 90 57 124 57 137 57 170 57 192 57 204 58 214 59 218 60 218 60 218 " />
        <polyline stroke="black" stroke-width="3" stroke-linecap="round" fill="transparent" stroke-linejoin="round" points="32 121 32 127 32 133 32 145 32 157 32 163 32 163 " />
        <polyline stroke="black" stroke-width="3" stroke-linecap="round" fill="transparent" stroke-linejoin="round" points="130 37 126 52 122 67 115 85 104 108 99 117 91 129 88 134 87 131 87 131 " />
        <polyline stroke="black" stroke-width="3" stroke-linecap="round" fill="transparent" stroke-linejoin="round" points="126 52 129 68 132 84 138 102 146 117 154 126 154 126 " />
        <polyline stroke="black" stroke-width="3" stroke-linecap="round" fill="transparent" stroke-linejoin="round" points="119 118 119 125 119 132 119 150 119 170 119 182 119 189 119 190 116 191 113 193 113 193 " />
        <polyline stroke="black" stroke-width="3" stroke-linecap="round" fill="transparent" stroke-linejoin="round" points="89 155 89 161 89 167 89 177 89 183 89 193 90 194 90 194 " />
        <polyline stroke="black" stroke-width="3" stroke-linecap="round" fill="transparent" stroke-linejoin="round" points="150 161 150 165 150 169 150 178 150 183 151 191 152 193 152 193 " />
        <polyline stroke="black" stroke-width="3" stroke-linecap="round" fill="transparent" stroke-linejoin="round" points="188 36 185 45 182 54 171 78 168 85 160 103 157 108 157 108 " />
        <polyline stroke="black" stroke-width="3" stroke-linecap="round" fill="transparent" stroke-linejoin="round" points="194 47 195 52 196 57 202 68 210 80 217 93 225 104 225 104 " />
        <polyline stroke="black" stroke-width="3" stroke-linecap="round" fill="transparent" stroke-linejoin="round" points="162 98 162 108 162 118 162 127 164 136 166 141 169 144 169 144 " />
        <polyline stroke="black" stroke-width="3" stroke-linecap="round" fill="transparent" stroke-linejoin="round" points="165 104 174 103 183 102 199 102 202 104 207 113 208 122 208 131 208 137 208 141 208 141 " />
        <polyline stroke="black" stroke-width="3" stroke-linecap="round" fill="transparent" stroke-linejoin="round" points="163 120 171 120 179 120 190 120 201 120 211 120 211 120 " />
        <polyline stroke="black" stroke-width="3" stroke-linecap="round" fill="transparent" stroke-linejoin="round" points="166 141 173 141 180 141 190 141 201 141 212 141 216 141 216 141 " />
        <polyline stroke="black" stroke-width="3" stroke-linecap="round" fill="transparent" stroke-linejoin="round" points="167 172 167 177 167 182 167 194 168 204 173 211 179 212 182 211 182 211 " />
        <polyline stroke="black" stroke-width="3" stroke-linecap="round" fill="transparent" stroke-linejoin="round" points="173 170 183 169 193 168 203 168 213 169 218 175 220 182 221 191 221 201 221 208 221 211 221 211 " />
        <polyline stroke="black" stroke-width="3" stroke-linecap="round" fill="transparent" stroke-linejoin="round" points="167 181 176 181 185 181 198 181 214 182 221 184 225 186 225 186 " />
        <polyline stroke="black" stroke-width="3" stroke-linecap="round" fill="transparent" stroke-linejoin="round" points="165 222 173 221 181 220 195 218 216 216 223 216 223 216 " />
        </svg>