<?xml version="1.0" standalone="no"?>
    <svg width="256" height="256" xmlns="http://www.w3.org/2000/svg" version="1.1">
    <polyline stroke="black" stroke-width="3" stroke-linecap="round" fill="transparent" stroke-linejoin="round" points="81.50119018554688 100.90997314453124 92.37359619140624 99.30560302734376 119.3292236328125 93.77362060546876 145.73910522460938 88.15483093261719 157.9078369140625 86.56904602050781 178.51898193359375 85.72100830078125 184.796630859375 86.33149719238281 190.0107421875 87.39501953125 190.16424560546875 87.44126892089844 190.16796875 87.44241333007813 " />
        <polyline stroke="black" stroke-width="3" stroke-linecap="round" fill="transparent" stroke-linejoin="round" points="77.45907592773438 145.23239135742188 89.17608642578125 141.41375732421875 118.39447021484376 135.82595825195313 131.86419677734375 134.695556640625 157.0018310546875 136.4819793701172 167.4129638671875 138.31903076171875 182.30322265625 142.26007080078125 190.5916748046875 144.240234375 188.990478515625 144.49790954589844 " />
        <polyline stroke="black" stroke-width="3" stroke-linecap="round" fill="transparent" stroke-linejoin="round" points="83.98275756835938 101.1259765625 84.62982177734375 121.98062133789063 84.08001708984375 166.04165649414063 82.79342651367188 181.8599548339844 79.96286010742188 202.88888549804688 79.04022216796875 209.5206298828125 78.9534912109375 209.86746215820313 " />
        <polyline stroke="black" stroke-width="3" stroke-linecap="round" fill="transparent" stroke-linejoin="round" points="128.429931640625 59.386566162109375 130.86166381835938 80.68191528320313 133.15362548828125 103.0247802734375 134.6546630859375 125.03622436523438 136.564208984375 167.884033203125 136.96469116210938 186.99203491210935 137.8719482421875 218.80096435546875 138.08700561523438 220.09811401367188 " />
        </svg>