<?xml version="1.0" standalone="no"?>
    <svg width="256" height="256" xmlns="http://www.w3.org/2000/svg" version="1.1">
    <polyline stroke="black" stroke-width="3" stroke-linecap="round" fill="transparent" stroke-linejoin="round" points="115.65338134765624 85.88021850585938 126.04400634765624 84.1484375 135.28018188476563 82.41665649414063 140.47549438476563 81.83940124511719 145.38217163085938 81.26214599609375 148.26849365234375 81.26214599609375 146.53671264648438 82.12803649902344 146.53671264648438 82.12803649902344 " />
        <polyline stroke="black" stroke-width="3" stroke-linecap="round" fill="transparent" stroke-linejoin="round" points="95.4493408203125 145.9151153564453 120.56005859375 138.1221160888672 139.60958862304688 132.06089782714844 152.88653564453125 127.73146057128906 165.00897216796875 123.97927856445313 173.09063720703125 121.95887756347656 180.594970703125 119.93849182128906 186.3675537109375 115.8976593017578 187.23345947265625 111.2795867919922 187.23345947265625 111.2795867919922 " />
        <polyline stroke="black" stroke-width="3" stroke-linecap="round" fill="transparent" stroke-linejoin="round" points="96.8924560546875 90.7869110107422 95.16067504882813 114.16587829589844 92.56301879882813 136.10174560546875 89.38815307617188 156.30577087402344 86.79043579101563 175.64390563964844 83.9041748046875 191.80712890625 83.03829956054688 199.31155395507813 83.03829956054688 199.31155395507813 " />
        <polyline stroke="black" stroke-width="3" stroke-linecap="round" fill="transparent" stroke-linejoin="round" points="140.76412963867188 77.50996398925781 142.20724487304688 99.7344207763672 142.20724487304688 121.09298706054688 141.05276489257813 141.58566284179688 140.18685913085938 160.0579376220703 139.60958862304688 177.37570190429688 139.03237915039063 195.84796142578125 138.74371337890625 201.04327392578125 138.74371337890625 201.04327392578125 " />
        </svg>