<?xml version="1.0" standalone="no"?>
    <svg width="256" height="256" xmlns="http://www.w3.org/2000/svg" version="1.1">
    <polyline stroke="black" stroke-width="3" stroke-linecap="round" fill="transparent" stroke-linejoin="round" points="105 59 106 58 106 60 106 73 104 86 103 92 98 117 94 142 89 156 88 160 84 173 82 179 81 179 81 179 " />
        <polyline stroke="black" stroke-width="3" stroke-linecap="round" fill="transparent" stroke-linejoin="round" points="153 59 152 56 151 54 150 53 151 54 151 59 151 77 148 99 144 121 141 141 140 153 140 161 140 162 140 162 " />
        <polyline stroke="black" stroke-width="3" stroke-linecap="round" fill="transparent" stroke-linejoin="round" points="85 94 88 94 96 93 102 92 117 91 136 89 156 89 172 89 186 88 193 88 195 90 194 92 192 92 192 92 " />
        <polyline stroke="black" stroke-width="3" stroke-linecap="round" fill="transparent" stroke-linejoin="round" points="79 126 81 125 87 123 100 120 117 118 136 116 152 116 157 116 170 116 174 116 183 116 186 116 190 117 191 118 191 118 " />
        </svg>