<?xml version="1.0" standalone="no"?>
    <svg width="256" height="256" xmlns="http://www.w3.org/2000/svg" version="1.1">
    <polyline stroke="black" stroke-width="3" stroke-linecap="round" fill="transparent" stroke-linejoin="round" points="63.20001220703125 96.33335876464844 82.66671752929688 88.60000610351563 96.00003051757813 85.13334655761719 107.73336791992188 83.53334045410156 117.06671142578124 83.26667785644531 123.46673583984376 83.26667785644531 123.46673583984376 83.26667785644531 " />
        <polyline stroke="black" stroke-width="3" stroke-linecap="round" fill="transparent" stroke-linejoin="round" points="99.73336791992188 82.4666748046875 96.80001831054688 93.66667175292967 90.4000244140625 106.4666748046875 82.4000244140625 120.33335876464844 76.00003051757813 130.73336791992188 73.86672973632813 135.80001831054688 76.2667236328125 133.6666717529297 76.2667236328125 133.6666717529297 " />
        <polyline stroke="black" stroke-width="3" stroke-linecap="round" fill="transparent" stroke-linejoin="round" points="90.4000244140625 113.13336181640624 94.66671752929688 108.86666870117188 96.2667236328125 108.33335876464844 100.00003051757813 107.26667785644533 101.60003662109376 107.00001525878906 103.20001220703124 107.00001525878906 105.86672973632813 107.00001525878906 109.60003662109376 109.40000915527344 116.00003051757813 120.86668395996094 117.3333740234375 133.93336486816406 116.00003051757813 149.13336181640625 110.933349609375 163.2666778564453 102.933349609375 176.06668090820313 100.00003051757813 177.40000915527344 99.20001220703124 173.66668701171875 99.20001220703124 171.00001525878906 99.20001220703124 171.00001525878906 " />
        <polyline stroke="black" stroke-width="3" stroke-linecap="round" fill="transparent" stroke-linejoin="round" points="156.800048828125 56.066680908203125 151.73333740234375 72.86666870117188 143.46673583984375 91.53335571289063 135.46673583984375 108.86666870117188 131.73336791992188 119.8000030517578 132.53338623046875 119.26667785644533 132.53338623046875 119.26667785644533 " />
        <polyline stroke="black" stroke-width="3" stroke-linecap="round" fill="transparent" stroke-linejoin="round" points="147.46673583984375 90.20001220703124 152.800048828125 86.73333740234375 156.2667236328125 85.66667175292969 170.4000244140625 83.26667785644531 176.53338623046875 82.4666748046875 198.4000244140625 80.06668090820313 212.53338623046875 78.73333740234375 223.20001220703125 78.20001220703125 225.60003662109375 78.73333740234375 225.60003662109375 78.73333740234375 " />
        <polyline stroke="black" stroke-width="3" stroke-linecap="round" fill="transparent" stroke-linejoin="round" points="142.933349609375 132.33335876464844 154.4000244140625 131.2666778564453 158.933349609375 131.2666778564453 163.73333740234375 131.00001525878906 175.20001220703125 130.73336791992188 191.20001220703125 129.93336486816406 198.4000244140625 129.6666717529297 203.4666748046875 129.6666717529297 203.73333740234375 129.40000915527344 202.4000244140625 129.40000915527344 202.4000244140625 129.40000915527344 " />
        <polyline stroke="black" stroke-width="3" stroke-linecap="round" fill="transparent" stroke-linejoin="round" points="160.2667236328125 99.26667785644533 156.800048828125 116.33335876464844 153.86669921875 131.53335571289063 149.86669921875 150.4666748046875 149.06671142578125 158.4666748046875 148.800048828125 162.4666748046875 148.800048828125 161.13336181640625 148.800048828125 161.13336181640625 " />
        <polyline stroke="black" stroke-width="3" stroke-linecap="round" fill="transparent" stroke-linejoin="round" points="168.800048828125 109.93336486816406 167.20001220703125 129.13336181640625 163.73333740234375 144.60000610351563 160.53338623046875 162.4666748046875 160.53338623046875 167.80001831054688 162.13336181640625 167.80001831054688 163.20001220703125 165.93336486816406 163.20001220703125 165.93336486816406 " />
        <polyline stroke="black" stroke-width="3" stroke-linecap="round" fill="transparent" stroke-linejoin="round" points="185.06671142578125 104.06668090820313 185.60003662109375 123.53335571289063 185.3333740234375 147.80001831054688 184 181.13336181640625 184 195.2666931152344 184.800048828125 202.4666748046875 185.60003662109375 201.13336181640625 185.60003662109375 201.13336181640625 " />
        </svg>