<?xml version="1.0" standalone="no"?>
    <svg width="256" height="256" xmlns="http://www.w3.org/2000/svg" version="1.1">
    <polyline stroke="black" stroke-width="3" stroke-linecap="round" fill="transparent" stroke-linejoin="round" points="73 95 73 95 74 96 75 97 76 99 78 101 79 103 80 105 82 108 85 113 86 114 90 117 93 118 95 118 " />
        <polyline stroke="black" stroke-width="3" stroke-linecap="round" fill="transparent" stroke-linejoin="round" points="110 84 110 85 110 89 108 95 106 104 102 114 99 125 95 136 91 147 84 161 80 169 76 176 72 182 71 184 70 185 " />
        <polyline stroke="black" stroke-width="3" stroke-linecap="round" fill="transparent" stroke-linejoin="round" points="58 144 58 144 60 144 63 145 66 146 70 148 74 151 79 154 86 160 92 164 97 168 102 172 108 175 115 177 118 176 " />
        <polyline stroke="black" stroke-width="3" stroke-linecap="round" fill="transparent" stroke-linejoin="round" points="149 72 148 69 147 68 146 70 144 73 141 80 138 89 135 99 132 108 129 118 125 130 123 136 122 138 120 143 120 143 " />
        <polyline stroke="black" stroke-width="3" stroke-linecap="round" fill="transparent" stroke-linejoin="round" points="130 117 130 117 133 117 136 118 139 120 142 122 145 123 148 125 151 127 154 129 159 132 161 132 164 131 " />
        <polyline stroke="black" stroke-width="3" stroke-linecap="round" fill="transparent" stroke-linejoin="round" points="187 68 186 69 182 75 181 79 175 91 172 100 169 109 166 118 163 125 161 132 160 137 158 141 158 143 157 143 157 143 " />
        <polyline stroke="black" stroke-width="3" stroke-linecap="round" fill="transparent" stroke-linejoin="round" points="170 124 170 124 175 123 180 123 187 125 192 126 197 128 201 130 205 131 207 133 208 134 209 136 " />
        <polyline stroke="black" stroke-width="3" stroke-linecap="round" fill="transparent" stroke-linejoin="round" points="149 167 147 168 147 168 150 168 153 167 157 166 162 165 167 164 173 162 179 160 186 158 188 158 191 158 192 159 " />
        <polyline stroke="black" stroke-width="3" stroke-linecap="round" fill="transparent" stroke-linejoin="round" points="144 200 143 201 143 201 142 201 144 201 147 201 151 201 157 200 164 200 176 199 184 197 193 196 201 195 209 196 213 197 217 198 " />
        </svg>