<?xml version="1.0" standalone="no"?>
    <svg width="256" height="256" xmlns="http://www.w3.org/2000/svg" version="1.1">
    <polyline stroke="black" stroke-width="3" stroke-linecap="round" fill="transparent" stroke-linejoin="round" points="70 89 71 89 72 89 74 89 76 89 81 89 91 87 100 84 108 81 117 78 125 75 133 71 141 69 145 67 151 64 154 63 156 62 157 61 157 61 " />
        <polyline stroke="black" stroke-width="3" stroke-linecap="round" fill="transparent" stroke-linejoin="round" points="123 46 123 46 123 47 123 51 123 57 123 70 123 79 123 92 120 110 118 118 116 124 114 129 113 132 111 135 111 137 110 137 110 137 110 138 110 138 110 138 " />
        <polyline stroke="black" stroke-width="3" stroke-linecap="round" fill="transparent" stroke-linejoin="round" points="64 147 65 147 66 147 67 146 71 144 76 143 82 142 88 141 96 141 104 141 115 141 131 140 142 140 149 139 156 139 162 139 165 139 168 139 169 139 170 139 171 140 171 140 " />
        </svg>