<?xml version="1.0" standalone="no"?>
    <svg width="256" height="256" xmlns="http://www.w3.org/2000/svg" version="1.1">
    <polyline stroke="black" stroke-width="3" stroke-linecap="round" fill="transparent" stroke-linejoin="round" points="91.22134399414063 115.88558959960938 107.69479370117188 105.46255493164063 121.346435546875 99.1070556640625 130.87973022460938 93.64132690429688 136.57421875 90.6669464111328 137.921630859375 90.26017761230467 140.38754272460938 91.1245574951172 142.77719116210938 98.82742309570313 141.96371459960938 111.8943328857422 139.77740478515625 126.76620483398438 138.02328491210938 137.39260864257813 135.60818481445313 146.5699462890625 134.87094116210938 151.95941162109375 136.42172241210938 156.2557373046875 136.42172241210938 156.2557373046875 " />
        <polyline stroke="black" stroke-width="3" stroke-linecap="round" fill="transparent" stroke-linejoin="round" points="63.3079833984375 150.2815704345703 74.79876708984375 145.01922607421875 97.44976806640624 136.782470703125 124.54959106445313 127.52888488769533 148.42086791992188 119.8005828857422 163.9283447265625 115.1229248046875 174.37677001953125 112.70783996582033 181.21533203125 115.0720672607422 182.33380126953125 116.54655456542967 182.33380126953125 116.54655456542967 " />
        <polyline stroke="black" stroke-width="3" stroke-linecap="round" fill="transparent" stroke-linejoin="round" points="89.696044921875 168.788818359375 101.13592529296876 164.18739318847656 116.51626586914063 158.4420623779297 131.0322265625 154.0694580078125 135.7861328125 152.39158630371094 140.69256591796875 150.99337768554688 143.61614990234375 150.00192260742188 145.01431274414063 149.54432678222656 145.21771240234375 149.442626953125 145.62448120117188 149.2392578125 146.69216918945313 148.80709838867188 146.99725341796875 148.7053985595703 147.22604370117188 148.5020294189453 145.827880859375 147.73934936523438 145.827880859375 147.73934936523438 " />
        <polyline stroke="black" stroke-width="3" stroke-linecap="round" fill="transparent" stroke-linejoin="round" points="115.98239135742188 60.389312744140625 116.92300415039063 73.07490539550781 116.08407592773438 94.20060729980467 115.62646484375 123.69012451171876 116.36373901367188 156.4082794189453 116.97381591796876 185.44021606445313 119.23638916015624 206.61676025390625 126.40542602539063 222.42926025390625 126.40542602539063 222.42926025390625 " />
        </svg>