<?xml version="1.0" standalone="no"?>
    <svg width="256" height="256" xmlns="http://www.w3.org/2000/svg" version="1.1">
    <polyline stroke="black" stroke-width="3" stroke-linecap="round" fill="transparent" stroke-linejoin="round" points="55.290130615234375 91.0161590576172 75.75091552734375 80.12574768066406 122.6126708984375 62.30506896972656 130.20297241210938 59.66497802734375 149.013671875 56.03483581542969 158.583984375 57.02488708496094 162.87420654296875 62.63508605957031 163.8642578125 84.08589172363281 158.9140625 113.12698364257813 149.6737060546875 136.2278594970703 139.7733154296875 146.7882537841797 139.7733154296875 146.7882537841797 139.7733154296875 146.7882537841797 " />
        <polyline stroke="black" stroke-width="3" stroke-linecap="round" fill="transparent" stroke-linejoin="round" points="37.139495849609375 119.397216796875 59.250274658203125 112.79696655273438 110.07220458984376 96.2963409423828 179.04473876953125 80.7857666015625 188.61517333984375 79.46571350097656 210.06597900390625 79.13569641113281 219.3062744140625 80.7857666015625 221.61639404296875 84.08589172363281 221.61639404296875 84.08589172363281 221.61639404296875 84.08589172363281 " />
        <polyline stroke="black" stroke-width="3" stroke-linecap="round" fill="transparent" stroke-linejoin="round" points="74.43084716796875 162.29881286621094 86.641357421875 155.69857788085938 121.29263305664063 143.81814575195313 128.222900390625 142.4980926513672 148.35366821289063 138.53793334960938 164.854248046875 135.8978271484375 168.81439208984375 135.56781005859375 168.81439208984375 135.56781005859375 " />
        <polyline stroke="black" stroke-width="3" stroke-linecap="round" fill="transparent" stroke-linejoin="round" points="95.22164916992188 23.033607482910156 99.841796875 43.16435241699219 108.09213256835938 101.5765380859375 116.34243774414063 160.64877319335938 120.63259887695313 203.88037109375 118.32254028320313 220.7110290527344 118.32254028320313 220.7110290527344 118.32254028320313 220.7110290527344 " />
        </svg>