<?xml version="1.0" standalone="no"?>
    <svg width="256" height="256" xmlns="http://www.w3.org/2000/svg" version="1.1">
    <polyline stroke="black" stroke-width="3" stroke-linecap="round" fill="transparent" stroke-linejoin="round" points="61 87 61 88 59 93 58 101 57 110 55 123 55 132 55 140 55 146 56 151 57 156 58 158 60 159 60 159 61 157 " />
        <polyline stroke="black" stroke-width="3" stroke-linecap="round" fill="transparent" stroke-linejoin="round" points="68 101 71 99 77 96 81 94 84 93 88 91 91 90 95 88 98 87 101 87 104 88 108 93 109 100 110 107 111 116 111 124 111 133 110 140 108 145 108 147 107 148 " />
        <polyline stroke="black" stroke-width="3" stroke-linecap="round" fill="transparent" stroke-linejoin="round" points="83 103 82 106 82 111 81 116 80 122 79 128 78 134 77 139 76 145 75 149 74 151 74 152 " />
        <polyline stroke="black" stroke-width="3" stroke-linecap="round" fill="transparent" stroke-linejoin="round" points="72 126 74 125 80 123 83 122 86 122 89 122 91 122 92 124 93 125 " />
        <polyline stroke="black" stroke-width="3" stroke-linecap="round" fill="transparent" stroke-linejoin="round" points="66 168 64 170 63 172 64 172 65 172 69 170 73 167 79 164 86 159 98 150 102 146 107 142 " />
        <polyline stroke="black" stroke-width="3" stroke-linecap="round" fill="transparent" stroke-linejoin="round" points="131 69 131 69 130 72 129 77 128 83 128 91 129 99 130 107 131 115 132 123 133 126 134 127 134 125 134 123 134 120 " />
        <polyline stroke="black" stroke-width="3" stroke-linecap="round" fill="transparent" stroke-linejoin="round" points="136 74 137 72 140 68 144 64 148 61 153 59 157 57 162 55 166 55 173 56 177 58 180 63 183 70 184 79 185 88 184 97 182 104 180 110 179 112 " />
        <polyline stroke="black" stroke-width="3" stroke-linecap="round" fill="transparent" stroke-linejoin="round" points="153 74 153 74 153 75 154 79 154 84 155 90 155 97 154 105 154 112 152 120 152 122 151 125 150 126 " />
        <polyline stroke="black" stroke-width="3" stroke-linecap="round" fill="transparent" stroke-linejoin="round" points="142 102 142 102 145 98 149 94 153 91 157 88 160 86 163 84 165 84 166 84 167 85 " />
        <polyline stroke="black" stroke-width="3" stroke-linecap="round" fill="transparent" stroke-linejoin="round" points="131 125 131 124 134 121 141 115 148 111 154 107 161 102 168 98 174 96 176 96 179 97 " />
        <polyline stroke="black" stroke-width="3" stroke-linecap="round" fill="transparent" stroke-linejoin="round" points="136 153 133 159 132 165 132 171 133 178 134 183 135 188 137 193 138 196 139 198 140 199 141 201 141 201 142 200 " />
        <polyline stroke="black" stroke-width="3" stroke-linecap="round" fill="transparent" stroke-linejoin="round" points="145 158 147 150 151 142 156 137 161 132 167 129 173 128 179 127 184 127 191 129 194 132 196 138 197 147 195 158 193 169 189 179 184 186 179 192 177 194 174 195 " />
        <polyline stroke="black" stroke-width="3" stroke-linecap="round" fill="transparent" stroke-linejoin="round" points="166 129 166 129 166 131 165 136 164 143 163 152 162 162 161 172 158 186 157 192 156 197 154 200 153 200 " />
        <polyline stroke="black" stroke-width="3" stroke-linecap="round" fill="transparent" stroke-linejoin="round" points="147 163 148 161 152 158 156 155 160 153 163 152 167 151 170 151 173 152 174 153 176 156 176 158 " />
        <polyline stroke="black" stroke-width="3" stroke-linecap="round" fill="transparent" stroke-linejoin="round" points="143 196 143 196 147 195 151 192 157 188 165 184 173 179 181 174 190 170 194 169 " />
        </svg>