<?xml version="1.0" standalone="no"?>
    <svg width="256" height="256" xmlns="http://www.w3.org/2000/svg" version="1.1">
    <polyline stroke="black" stroke-width="3" stroke-linecap="round" fill="transparent" stroke-linejoin="round" points="49.231048583984375 64.28274536132813 54.784576416015625 80.94331359863281 59.782745361328125 94.82713317871094 63.67022705078125 106.48953247070313 65.8916015625 115.37516784667967 65.8916015625 115.37516784667967 " />
        <polyline stroke="black" stroke-width="3" stroke-linecap="round" fill="transparent" stroke-linejoin="round" points="66.44696044921875 80.94331359863281 75.88796997070313 73.72373962402344 89.77178955078125 65.94880676269531 105.87701416015624 57.61851501464844 132.53390502929688 48.177528381347656 148.63912963867188 44.84541320800781 165.2996826171875 45.40076446533203 176.40673828125 49.288230895996094 183.07098388671875 55.39710998535156 186.95843505859375 70.39161682128906 183.6263427734375 89.82894897460938 174.185302734375 107.0448760986328 162.52294921875 117.59657287597656 162.52294921875 117.59657287597656 " />
        <polyline stroke="black" stroke-width="3" stroke-linecap="round" fill="transparent" stroke-linejoin="round" points="95.88064575195313 65.94880676269531 96.9913330078125 78.72190856933594 98.65740966796876 88.16290283203125 100.323486328125 96.49317932128906 103.1002197265625 101.49134826660156 103.1002197265625 101.49134826660156 " />
        <polyline stroke="black" stroke-width="3" stroke-linecap="round" fill="transparent" stroke-linejoin="round" points="134.75531005859375 58.729217529296875 133.64459228515625 72.05767822265625 128.64642333984375 86.49684143066406 118.65008544921876 102.04670715332033 107.54302978515624 114.81980895996094 107.54302978515624 114.81980895996094 " />
        <polyline stroke="black" stroke-width="3" stroke-linecap="round" fill="transparent" stroke-linejoin="round" points="64.78091430664063 120.92869567871094 79.2200927734375 120.3733367919922 93.1038818359375 118.707275390625 110.31982421875 115.93051147460938 127.53573608398438 112.04304504394533 141.97491455078125 109.26628112792967 149.1944580078125 109.26628112792967 149.1944580078125 109.26628112792967 " />
        <polyline stroke="black" stroke-width="3" stroke-linecap="round" fill="transparent" stroke-linejoin="round" points="118.65008544921876 132.59109497070313 106.43234252929688 142.03207397460938 100.87881469726563 155.36053466796875 95.3253173828125 169.24435424804688 88.105712890625 181.46209716796875 80.88613891601563 188.68167114257813 70.33444213867188 194.79055786132813 61.44879150390625 197.56732177734375 55.33990478515625 197.56732177734375 52.0078125 197.56732177734375 52.0078125 196.45660400390625 57.0059814453125 194.79055786132813 74.221923828125 192.0137939453125 109.2091064453125 186.46026611328125 141.97491455078125 182.57281494140625 165.85504150390625 182.0174560546875 184.181640625 184.2388610839844 191.95660400390625 188.1263427734375 191.95660400390625 188.1263427734375 " />
        </svg>