<?xml version="1.0" standalone="no"?>
    <svg width="256" height="256" xmlns="http://www.w3.org/2000/svg" version="1.1">
    <polyline stroke="black" stroke-width="3" stroke-linecap="round" fill="transparent" stroke-linejoin="round" points="147 48 147 47 146 46 143 46 139 46 134 46 128 47 119 50 113 52 107 55 101 57 95 59 90 61 86 62 83 63 81 64 79 66 78 69 78 72 78 76 78 82 78 89 78 98 78 108 78 119 77 136 76 147 75 157 74 165 73 173 72 178 71 183 70 186 69 188 68 190 68 190 " />
        <polyline stroke="black" stroke-width="3" stroke-linecap="round" fill="transparent" stroke-linejoin="round" points="87 121 90 119 94 117 97 115 101 113 106 111 112 110 122 108 129 107 137 106 145 104 152 103 160 100 166 97 169 96 171 94 " />
        <polyline stroke="black" stroke-width="3" stroke-linecap="round" fill="transparent" stroke-linejoin="round" points="146 79 143 81 140 86 135 94 130 103 124 115 116 133 112 146 108 158 104 169 102 179 99 187 97 194 96 199 95 201 95 202 " />
        <polyline stroke="black" stroke-width="3" stroke-linecap="round" fill="transparent" stroke-linejoin="round" points="129 123 130 124 132 126 134 130 138 135 142 142 146 150 151 159 160 173 163 177 172 188 179 195 183 198 " />
        </svg>