<?xml version="1.0" standalone="no"?>
    <svg width="256" height="256" xmlns="http://www.w3.org/2000/svg" version="1.1">
    <polyline stroke="black" stroke-width="3" stroke-linecap="round" fill="transparent" stroke-linejoin="round" points="110.4022216796875 49.764617919921875 72.45077514648438 65.93521118164063 69.48065185546875 67.58528137207031 61.890380859375 72.2054443359375 57.600250244140625 76.16560363769531 56.940216064453125 82.1058349609375 60.240325927734375 98.27642822265624 61.890380859375 128.30755615234375 58.26025390625 167.5790252685547 49.349945068359375 200.250244140625 44.729766845703125 211.470703125 43.739715576171875 212.79071044921875 43.739715576171875 212.79071044921875 " />
        <polyline stroke="black" stroke-width="3" stroke-linecap="round" fill="transparent" stroke-linejoin="round" points="84.66122436523438 117.08714294433594 91.26150512695313 114.7770538330078 124.26275634765624 104.21664428710938 130.20297241210938 102.56657409667967 147.69363403320313 97.9464111328125 158.9140625 94.64630126953124 158.9140625 94.64630126953124 158.9140625 94.64630126953124 " />
        <polyline stroke="black" stroke-width="3" stroke-linecap="round" fill="transparent" stroke-linejoin="round" points="121.62261962890624 91.0161590576172 118.65252685546876 98.6064453125 105.12203979492188 145.46820068359375 102.81195068359376 154.04852294921875 96.54168701171876 174.83929443359375 91.26150512695313 187.70977783203125 87.63134765625 193.98001098632813 87.63134765625 193.98001098632813 87.63134765625 193.98001098632813 " />
        <polyline stroke="black" stroke-width="3" stroke-linecap="round" fill="transparent" stroke-linejoin="round" points="122.6126708984375 137.87791442871094 160.23406982421875 158.3386993408203 165.84429931640625 162.9588623046875 182.01495361328125 179.1294403076172 196.86541748046875 206.19049072265625 203.79571533203125 220.05099487304688 203.79571533203125 220.05099487304688 " />
        </svg>