<?xml version="1.0" standalone="no"?>
    <svg width="256" height="256" xmlns="http://www.w3.org/2000/svg" version="1.1">
    <polyline stroke="black" stroke-width="3" stroke-linecap="round" fill="transparent" stroke-linejoin="round" points="106.81376015434496 101.66855605524373 119.7548606787908 100.56718579784408 141.50692326243382 96.7123898969453 163.53432841042672 91.7562237386469 180.60556740012137 87.07540014469839 191.89461253846764 82.66991911509982 196.30009356806625 80.19183603595062 196.57543613241617 79.91649347160069 196.57543613241617 79.91649347160069 " />
        <polyline stroke="black" stroke-width="3" stroke-linecap="round" fill="transparent" stroke-linejoin="round" points="101.85759399604656 109.92883298574108 101.85759399604656 122.86993351018694 98.82882578819748 145.17268122252975 91.94526167944969 166.0987161131231 83.13429962025253 184.27132536021725 72.12059704625608 197.76311101336296 61.93292216530932 206.2987305082102 53.39730267046207 210.70421153780876 53.39730267046207 210.70421153780876 " />
        <polyline stroke="black" stroke-width="3" stroke-linecap="round" fill="transparent" stroke-linejoin="round" points="135.17404428238586 148.75213455907863 148.11514480683172 145.4480237868797 161.33158789562754 141.86857045033085 172.89597559832373 139.39048737118162 178.67816944967194 138.01377454943207 178.67816944967194 138.01377454943207 " />
        <polyline stroke="black" stroke-width="3" stroke-linecap="round" fill="transparent" stroke-linejoin="round" points="147.83980224248182 111.30554580749065 146.73843198508217 126.17404428238586 142.60829351983347 143.2452832720804 136.00007197543562 159.49049456872518 126.91376735188852 174.08365047927052 115.3493796491922 187.3000935680663 103.509649382146 199.1398238351125 93.87265962989908 207.9507858943097 87.53978064985114 210.70421153780876 87.53978064985114 210.70421153780876 " />
        <polyline stroke="black" stroke-width="3" stroke-linecap="round" fill="transparent" stroke-linejoin="round" points="150.59322788598092 153.43295815302713 154.72336635122963 159.7658371330751 162.43295815302713 169.95351201402184 173.99734585572344 180.6918720236684 189.96721458801835 189.5028340828656 207.31379614206276 197.487768449013 225.76174795350687 202.9946197360113 235.67408027010367 205.19736025081056 235.67408027010367 205.19736025081056 " />
        </svg>