<?xml version="1.0" standalone="no"?>
    <svg width="256" height="256" xmlns="http://www.w3.org/2000/svg" version="1.1">
    <polyline stroke="black" stroke-width="3" stroke-linecap="round" fill="transparent" stroke-linejoin="round" points="65 98 71 98 101 95 123 90 142 86 158 83 166 83 168 83 169 87 169 96 158 116 142 141 123 165 102 188 83 206 67 218 59 226 55 228 54 226 54 226 " />
        <polyline stroke="black" stroke-width="3" stroke-linecap="round" fill="transparent" stroke-linejoin="round" points="91 131 105 136 123 147 140 158 155 168 167 177 176 183 184 189 192 197 195 202 195 202 " />
        </svg>