<?xml version="1.0" standalone="no"?>
    <svg width="256" height="256" xmlns="http://www.w3.org/2000/svg" version="1.1">
    <polyline stroke="black" stroke-width="3" stroke-linecap="round" fill="transparent" stroke-linejoin="round" points="51.949310302734375 87.7860107421875 71.29315185546875 86.60169982910156 79.1885986328125 85.81214904785156 87.87362670898438 85.02261352539063 96.55859375 83.83830261230469 114.32333374023438 81.86442565917969 129.71945190429688 79.49578857421875 141.95736694335938 77.12716674804688 150.24761962890625 73.179443359375 153.010986328125 70.41603088378906 153.010986328125 70.41603088378906 " />
        <polyline stroke="black" stroke-width="3" stroke-linecap="round" fill="transparent" stroke-linejoin="round" points="131.69332885742188 25.41200256347656 124.58740234375 44.75584411621094 121.823974609375 53.046051025390625 114.32333374023438 73.57421875 109.19134521484376 84.23306274414063 98.13766479492188 101.60305786132813 86.68930053710938 114.63053894042967 75.63568115234375 124.10507202148438 67.74020385742188 128.8423309326172 63.0029296875 130.42141723632813 61.818603515625 130.0266571044922 62.21337890625 128.8423309326172 69.31930541992188 124.49981689453124 85.89974975585938 118.1834716796875 107.61224365234376 113.05143737792967 130.11422729492188 111.47233581542967 149.45806884765625 111.86711120605467 162.88031005859375 113.05143737792967 167.61761474609375 113.44621276855467 167.61761474609375 113.44621276855467 " />
        <polyline stroke="black" stroke-width="3" stroke-linecap="round" fill="transparent" stroke-linejoin="round" points="58.66046142578125 168.31954956054688 74.05657958984375 161.60842895507813 82.34677124023438 158.4502410888672 91.8212890625 155.29205322265625 102.48016357421876 152.13388061523438 123.7978515625 147.3966064453125 142.35214233398438 146.21231079101563 155.379638671875 147.0018310546875 162.88031005859375 148.9757080078125 166.43328857421875 151.73910522460938 167.61761474609375 158.8450164794922 161.69598388671875 170.68817138671875 149.45806884765625 182.92611694335935 131.69332885742188 194.37451171875 123.7978515625 197.92745971679688 123.7978515625 197.92745971679688 " />
        <polyline stroke="black" stroke-width="3" stroke-linecap="round" fill="transparent" stroke-linejoin="round" points="92.61083984375 183.71566772460935 104.45404052734376 186.47906494140625 117.87631225585938 192.00588989257813 125.771728515625 195.558837890625 143.14169311523438 204.24383544921875 160.906494140625 215.69219970703125 178.2764892578125 229.11447143554688 178.2764892578125 229.11447143554688 " />
        </svg>