<?xml version="1.0" standalone="no"?>
    <svg width="256" height="256" xmlns="http://www.w3.org/2000/svg" version="1.1">
    <polyline stroke="black" stroke-width="3" stroke-linecap="round" fill="transparent" stroke-linejoin="round" points="58 105 75 101 84 101 95 100 106 97 131 92 149 90 163 87 169 84 169 84 " />
        <polyline stroke="black" stroke-width="3" stroke-linecap="round" fill="transparent" stroke-linejoin="round" points="128 57 129 75 129 87 129 100 129 113 127 119 127 119 " />
        <polyline stroke="black" stroke-width="3" stroke-linecap="round" fill="transparent" stroke-linejoin="round" points="56 146 60 144 68 144 78 144 102 136 129 131 154 127 172 124 183 124 183 124 " />
        <polyline stroke="black" stroke-width="3" stroke-linecap="round" fill="transparent" stroke-linejoin="round" points="73 171 81 168 100 165 119 161 139 158 148 158 162 158 168 159 169 163 166 173 152 184 135 194 117 203 117 203 " />
        <polyline stroke="black" stroke-width="3" stroke-linecap="round" fill="transparent" stroke-linejoin="round" points="102 185 121 192 134 198 149 207 165 216 165 216 " />
        </svg>