<?xml version="1.0" standalone="no"?>
    <svg width="256" height="256" xmlns="http://www.w3.org/2000/svg" version="1.1">
    <polyline stroke="black" stroke-width="3" stroke-linecap="round" fill="transparent" stroke-linejoin="round" points="83.67098999023438 92.6498565673828 102.5595703125 88.98908996582031 124.37164306640624 84.59107971191406 144.20083618164063 80.34559631347656 159.6065673828125 77.34579467773438 170.51263427734375 75.41372680664063 177.0206298828125 75.489990234375 181.062744140625 77.82881164550781 182.1812744140625 78.97282409667969 182.1812744140625 78.97282409667969 " />
        <polyline stroke="black" stroke-width="3" stroke-linecap="round" fill="transparent" stroke-linejoin="round" points="72.76498413085938 142.5786895751953 77.56976318359375 152.41702270507813 82.45074462890625 160.62831115722656 85.755615234375 165.3822479248047 86.69622802734375 166.42454528808594 90.91629028320313 167.82275390625 90.91629028320313 167.82275390625 " />
        <polyline stroke="black" stroke-width="3" stroke-linecap="round" fill="transparent" stroke-linejoin="round" points="89.72146606445313 118.50404357910156 105.30514526367188 114.25857543945313 123.45648193359376 110.3181610107422 140.28582763671875 107.521728515625 156.6322021484375 105.1829071044922 170.2838134765625 102.99661254882813 178.92730712890625 101.92889404296876 186.579345703125 100.81031799316406 189.6553955078125 100.40357971191406 190.29095458984375 99.48837280273438 191.48577880859375 99.46295166015624 192.19757080078125 101.3441925048828 191.1044921875 103.93722534179688 187.1640625 109.80972290039063 183.47784423828125 119.24130249023438 179.99505615234375 128.08816528320313 177.75787353515625 135.38426208496094 176.690185546875 139.29925537109375 175.49530029296875 143.3922119140625 174.351318359375 146.9512939453125 173.97003173828125 148.247802734375 173.97003173828125 148.247802734375 " />
        <polyline stroke="black" stroke-width="3" stroke-linecap="round" fill="transparent" stroke-linejoin="round" points="116.41455078125 132.6895294189453 119.770263671875 141.71434020996094 123.8123779296875 151.12049865722656 129.252685546875 158.136962890625 133.396484375 161.21302795410156 133.396484375 161.21302795410156 " />
        <polyline stroke="black" stroke-width="3" stroke-linecap="round" fill="transparent" stroke-linejoin="round" points="148.29379272460938 122.69866943359376 146.61590576171875 139.09588623046875 144.32797241210938 154.39993286132813 142.47213745117188 163.9077606201172 139.19265747070313 167.31430053710938 139.19265747070313 167.31430053710938 " />
        <polyline stroke="black" stroke-width="3" stroke-linecap="round" fill="transparent" stroke-linejoin="round" points="97.52603149414063 161.87400817871094 114.48248291015624 157.9844207763672 132.25250244140625 153.45932006835938 141.73492431640625 151.3492889404297 150.93765258789063 149.31552124023438 157.59820556640625 147.9427490234375 162.60638427734375 146.9258575439453 166.01287841796875 146.23947143554688 170.71600341796875 145.19715881347656 172.03790283203125 144.99378967285156 175.6224365234375 145.57850646972656 180.22381591796875 147.6630859375 180.9356689453125 148.1461181640625 180.9356689453125 148.1461181640625 " />
        </svg>