<?xml version="1.0" standalone="no"?>
    <svg width="256" height="256" xmlns="http://www.w3.org/2000/svg" version="1.1">
    <polyline stroke="black" stroke-width="3" stroke-linecap="round" fill="transparent" stroke-linejoin="round" points="95.765869140625 55.114105224609375 135.63812255859375 53.80681610107422 146.09637451171875 52.49952697753906 165.05206298828125 49.23131561279297 178.778564453125 47.2703857421875 185.3150634765625 47.92402648925781 185.3150634765625 48.577659606933594 185.3150634765625 48.577659606933594 " />
        <polyline stroke="black" stroke-width="3" stroke-linecap="round" fill="transparent" stroke-linejoin="round" points="71.5810546875 115.90293884277344 76.81024169921875 134.8585968017578 77.4638671875 138.7804412841797 77.4638671875 143.35598754882813 76.81024169921875 144.66323852539063 76.15655517578125 142.7023162841797 76.15655517578125 142.7023162841797 " />
        <polyline stroke="black" stroke-width="3" stroke-linecap="round" fill="transparent" stroke-linejoin="round" points="78.77117919921875 100.21549987792967 103.609619140625 89.75721740722656 106.87786865234376 89.10356140136719 126.48712158203124 87.79629516601563 141.52093505859375 88.44992065429688 154.59375 89.75721740722656 165.70574951171875 91.71812438964844 174.20306396484375 93.67906188964844 176.817626953125 95.63999938964844 176.16400146484375 104.79100036621094 169.6275634765625 116.55657958984376 157.86199951171875 128.32215881347656 144.78912353515625 136.16587829589844 137.59906005859375 138.7804412841797 137.59906005859375 138.7804412841797 " />
        <polyline stroke="black" stroke-width="3" stroke-linecap="round" fill="transparent" stroke-linejoin="round" points="100.3414306640625 128.97581481933594 101.64862060546876 133.5513153076172 103.609619140625 133.5513153076172 108.18505859375 130.28311157226563 108.18505859375 130.28311157226563 " />
        <polyline stroke="black" stroke-width="3" stroke-linecap="round" fill="transparent" stroke-linejoin="round" points="126.48712158203124 116.55657958984376 105.57049560546876 143.35598754882813 99.03411865234376 149.23875427246094 88.5758056640625 156.4288330078125 82.6929931640625 159.6970672607422 80.07843017578125 159.6970672607422 82.6929931640625 157.73611450195313 89.883056640625 153.16062927246094 104.26324462890624 147.27781677246094 119.29705810546876 144.66323852539063 135.63812255859375 144.0095977783203 154.59375 145.31689453125 175.5103759765625 150.5460205078125 189.89044189453125 157.0824737548828 189.89044189453125 157.0824737548828 " />
        </svg>