<?xml version="1.0" standalone="no"?>
    <svg width="256" height="256" xmlns="http://www.w3.org/2000/svg" version="1.1">
    <polyline stroke="black" stroke-width="3" stroke-linecap="round" fill="transparent" stroke-linejoin="round" points="44.333343505859375 125.7777862548828 42.555572509765625 161.3333282470703 42.555572509765625 194.22222900390625 43.4444580078125 214.66665649414065 46.11114501953125 224.4444580078125 47.888885498046875 223.5555725097656 48.77777099609375 218.2222595214844 48.77777099609375 218.2222595214844 " />
        <polyline stroke="black" stroke-width="3" stroke-linecap="round" fill="transparent" stroke-linejoin="round" points="65.66665649414063 97.33332824707033 87.88888549804688 87.55557250976563 111.88888549804688 81.33332824707031 133.22222900390625 77.77778625488281 151.88888549804688 77.77778625488281 167 85.77778625488281 171.4444580078125 104.44444274902344 174.11111450195313 132.00001525878906 175.88888549804688 163.11111450195313 178.55557250976563 211.11111450195313 179.4444580078125 233.33334350585935 179.4444580078125 244.888916015625 179.4444580078125 249.3333740234375 179.4444580078125 250.22222900390625 175.88888549804688 241.33334350585935 169.66665649414063 225.33334350585935 169.66665649414063 225.33334350585935 " />
        <polyline stroke="black" stroke-width="3" stroke-linecap="round" fill="transparent" stroke-linejoin="round" points="109.22222900390624 141.7777862548828 97.66665649414063 164 87 180.88888549804688 80.77777099609375 190.66665649414065 74.55557250976563 194.22222900390625 74.55557250976563 194.22222900390625 " />
        <polyline stroke="black" stroke-width="3" stroke-linecap="round" fill="transparent" stroke-linejoin="round" points="111.88888549804688 160.44447326660156 121.66668701171876 163.11111450195313 130.55557250976563 164.888916015625 145.66665649414063 168.44444274902344 149.22222900390625 169.33335876464844 149.22222900390625 169.33335876464844 " />
        </svg>