<?xml version="1.0" standalone="no"?>
    <svg width="256" height="256" xmlns="http://www.w3.org/2000/svg" version="1.1">
    <polyline stroke="black" stroke-width="3" stroke-linecap="round" fill="transparent" stroke-linejoin="round" points="69.63043212890625 100.27882385253906 66.4228515625 144.11582946777344 63.21527099609375 179.9338836669922 62.6806640625 204.52536010742188 62.6806640625 218.95950317382813 63.21527099609375 226.97845458984375 63.21527099609375 226.97845458984375 " />
        <polyline stroke="black" stroke-width="3" stroke-linecap="round" fill="transparent" stroke-linejoin="round" points="85.66839599609375 76.22193908691406 96.36032104492188 69.27217102050781 110.79446411132813 62.32240295410156 131.64376831054688 55.9072265625 151.42388916015625 53.768836975097656 166.92724609375 55.37263488769531 181.361328125 62.32240295410156 193.6571044921875 74.08354187011719 207.556640625 104.02101135253906 212.902587890625 144.11582946777344 211.8333740234375 177.26089477539063 207.02203369140625 201.85238647460935 201.676025390625 218.4248962402344 196.86468505859375 227.5130615234375 190.44952392578125 232.85903930664065 179.22296142578125 236.06661987304688 169.06561279296875 230.72064208984375 169.06561279296875 230.72064208984375 " />
        <polyline stroke="black" stroke-width="3" stroke-linecap="round" fill="transparent" stroke-linejoin="round" points="134.85134887695313 120.59353637695313 124.159423828125 145.71963500976563 117.20965576171876 160.6883544921875 108.65606689453124 174.58790588378906 101.17169189453124 184.74526977539065 96.36032104492188 189.556640625 96.36032104492188 189.556640625 " />
        <polyline stroke="black" stroke-width="3" stroke-linecap="round" fill="transparent" stroke-linejoin="round" points="104.91387939453124 145.18502807617188 122.02099609375 152.66940307617188 146.07791137695313 164.96514892578125 163.18505859375 175.12249755859375 179.757568359375 188.4874267578125 179.757568359375 188.4874267578125 " />
        </svg>