<?xml version="1.0" standalone="no"?>
    <svg width="256" height="256" xmlns="http://www.w3.org/2000/svg" version="1.1">
    <polyline stroke="black" stroke-width="3" stroke-linecap="round" fill="transparent" stroke-linejoin="round" points="51.979888916015625 77.0872802734375 65.55413818359375 67.05413818359375 81.4891357421875 57.02099609375 96.83392333984376 49.348602294921875 110.99835205078124 44.62712097167969 121.031494140625 42.266380310058594 126.34317016601563 41.08601379394531 128.70391845703125 39.90564727783203 126.34317016601563 39.90564727783203 119.26092529296876 42.266380310058594 103.9161376953125 45.8074951171875 91.52227783203124 54.66026306152344 83.25967407226563 64.69340515136719 73.81671142578125 82.39894104003906 69.6854248046875 99.51429748535156 69.6854248046875 111.90817260742188 70.86578369140625 117.81002807617188 74.99710083007813 120.17076110839844 74.99710083007813 120.17076110839844 " />
        <polyline stroke="black" stroke-width="3" stroke-linecap="round" fill="transparent" stroke-linejoin="round" points="102.14556884765624 75.31672668457031 86.21060180664063 100.10447692871094 75.5872802734375 114.85910034179688 66.7344970703125 126.07261657714844 61.4228515625 131.97445678710938 59.062103271484375 133.74501037597656 60.8326416015625 131.38427734375 68.50506591796875 122.531494140625 82.07931518554688 109.54743957519533 97.42413330078124 98.33392333984376 110.99835205078124 91.84190368652344 121.031494140625 88.30079650878906 125.75299072265624 86.53024291992188 125.75299072265624 86.53024291992188 " />
        <polyline stroke="black" stroke-width="3" stroke-linecap="round" fill="transparent" stroke-linejoin="round" points="62.60321044921875 159.713134765625 73.81671142578125 150.86036682128906 87.3909912109375 142.00759887695313 100.37503051757813 134.92538452148438 110.40817260742188 131.38427734375 116.31002807617188 129.6137237548828 118.08056640625 129.6137237548828 118.08056640625 129.6137237548828 " />
        <polyline stroke="black" stroke-width="3" stroke-linecap="round" fill="transparent" stroke-linejoin="round" points="66.7344970703125 194.53402709960935 66.7344970703125 198.07513427734375 70.275634765625 195.71441650390625 70.275634765625 195.71441650390625 " />
        <polyline stroke="black" stroke-width="3" stroke-linecap="round" fill="transparent" stroke-linejoin="round" points="105.68670654296876 173.8775634765625 92.70263671875 189.81256103515625 80.30877685546875 203.3868103027344 70.275634765625 212.23956298828125 64.373779296875 216.9610595703125 59.062103271484375 219.9119873046875 56.1112060546875 221.09234619140625 54.930816650390625 221.09234619140625 56.70135498046875 221.09234619140625 62.013031005859375 218.73159790039065 71.45599365234375 212.23956298828125 87.98114013671875 204.56716918945313 103.9161376953125 195.12420654296875 120.44131469726563 184.5008850097656 139.91741943359375 165.614990234375 139.91741943359375 165.614990234375 " />
        <polyline stroke="black" stroke-width="3" stroke-linecap="round" fill="transparent" stroke-linejoin="round" points="156.44256591796875 72.95599365234375 157.6229248046875 79.44801330566406 159.98370361328125 85.94004821777344 163.5247802734375 90.66152954101563 168.83642578125 94.20263671875 174.73828125 93.0222625732422 181.820556640625 85.34986877441406 188.9027099609375 69.41488647460938 191.8536376953125 51.70933532714844 194.21441650390625 44.03694152832031 196.57513427734375 39.90564727783203 198.345703125 38.72527313232422 198.345703125 41.08601379394531 197.165283203125 48.16822814941406 191.8536376953125 70.59524536132813 184.1812744140625 100.10447692871094 174.73828125 132.56463623046875 164.7052001953125 169.74627685546875 154.08184814453125 198.07513427734375 148.17999267578125 215.19049072265625 148.17999267578125 215.19049072265625 " />
        <polyline stroke="black" stroke-width="3" stroke-linecap="round" fill="transparent" stroke-linejoin="round" points="154.6719970703125 109.54743957519533 164.7052001953125 103.64558410644533 176.50885009765625 98.33392333984376 189.492919921875 95.3830108642578 203.6573486328125 95.3830108642578 216.05126953125 99.51429748535156 224.90399169921875 107.77688598632813 233.75677490234375 124.89224243164063 239.0684814453125 145.5487060546875 239.65863037109375 165.02479553222656 238.478271484375 178.5990447998047 235.52734375 186.86163330078125 231.39599609375 192.76348876953125 225.49420166015625 198.07513427734375 208.37884521484375 203.3868103027344 188.9027099609375 203.97698974609375 188.9027099609375 203.97698974609375 " />
        </svg>