<?xml version="1.0" standalone="no"?>
    <svg width="256" height="256" xmlns="http://www.w3.org/2000/svg" version="1.1">
    <polyline stroke="black" stroke-width="3" stroke-linecap="round" fill="transparent" stroke-linejoin="round" points="53 52 77 48 88 46 105 43 113 42 122 41 122 41 " />
        <polyline stroke="black" stroke-width="3" stroke-linecap="round" fill="transparent" stroke-linejoin="round" points="70 80 75 87 78 89 78 89 " />
        <polyline stroke="black" stroke-width="3" stroke-linecap="round" fill="transparent" stroke-linejoin="round" points="113 74 109 79 99 96 95 100 95 100 " />
        <polyline stroke="black" stroke-width="3" stroke-linecap="round" fill="transparent" stroke-linejoin="round" points="59 115 72 110 85 106 99 104 111 103 119 103 122 104 122 104 " />
        <polyline stroke="black" stroke-width="3" stroke-linecap="round" fill="transparent" stroke-linejoin="round" points="62 145 73 141 86 138 99 135 109 134 115 133 115 133 " />
        <polyline stroke="black" stroke-width="3" stroke-linecap="round" fill="transparent" stroke-linejoin="round" points="70 165 70 173 70 180 71 186 74 189 74 189 " />
        <polyline stroke="black" stroke-width="3" stroke-linecap="round" fill="transparent" stroke-linejoin="round" points="114 156 113 159 106 170 97 182 92 188 92 188 " />
        <polyline stroke="black" stroke-width="3" stroke-linecap="round" fill="transparent" stroke-linejoin="round" points="66 201 70 201 79 200 89 200 99 199 104 198 104 198 " />
        <polyline stroke="black" stroke-width="3" stroke-linecap="round" fill="transparent" stroke-linejoin="round" points="157 66 157 69 158 73 159 85 159 105 159 126 157 149 154 167 147 185 141 195 136 199 131 200 131 200 " />
        <polyline stroke="black" stroke-width="3" stroke-linecap="round" fill="transparent" stroke-linejoin="round" points="131 116 137 116 142 115 155 113 170 112 176 112 185 112 193 118 195 134 196 157 196 181 195 199 192 213 189 220 187 221 182 221 174 217 163 205 163 205 " />
        <polyline stroke="black" stroke-width="3" stroke-linecap="round" fill="transparent" stroke-linejoin="round" points="126 92 134 102 145 117 151 128 151 128 " />
        </svg>