<?xml version="1.0" standalone="no"?>
    <svg width="256" height="256" xmlns="http://www.w3.org/2000/svg" version="1.1">
    <polyline stroke="black" stroke-width="3" stroke-linecap="round" fill="transparent" stroke-linejoin="round" points="43.421844482421875 105.97676086425781 44.70916748046875 120.13766479492188 45.996490478515625 134.29856872558594 46.962005615234375 147.49395751953125 46.962005615234375 159.7238311767578 46.640167236328125 171.63186645507813 46.640167236328125 181.60885620117188 47.283843994140625 190.62033081054688 50.502227783203125 199.3099670410156 52.755126953125 201.24102783203125 52.755126953125 201.24102783203125 " />
        <polyline stroke="black" stroke-width="3" stroke-linecap="round" fill="transparent" stroke-linejoin="round" points="60.80108642578125 133.01121520996094 69.49072265625 129.79283142089844 78.18035888671875 126.57444763183594 86.226318359375 123.99974060058594 92.34127807617188 123.99974060058594 94.59417724609376 124.64341735839844 94.59417724609376 124.64341735839844 " />
        <polyline stroke="black" stroke-width="3" stroke-linecap="round" fill="transparent" stroke-linejoin="round" points="61.444793701171875 165.83876037597656 76.89303588867188 161.33302307128906 92.34127807617188 156.82728576660156 103.927490234375 153.2870330810547 103.927490234375 153.2870330810547 " />
        <polyline stroke="black" stroke-width="3" stroke-linecap="round" fill="transparent" stroke-linejoin="round" points="105.85848999023438 49.01130676269531 105.53665161132813 75.08024597167969 105.21481323242188 101.14918518066406 104.89297485351563 131.40203857421875 104.5711669921875 161.65489196777344 104.5711669921875 188.6893310546875 105.53665161132813 214.11459350585935 106.50216674804688 231.49383544921875 108.11138916015624 241.1490173339844 108.75506591796876 244.04556274414065 108.75506591796876 244.04556274414065 " />
        <polyline stroke="black" stroke-width="3" stroke-linecap="round" fill="transparent" stroke-linejoin="round" points="155.099853515625 87.63194274902344 164.111328125 85.700927734375 173.122802734375 83.76991271972656 181.4906005859375 82.80439758300781 181.4906005859375 82.80439758300781 " />
        <polyline stroke="black" stroke-width="3" stroke-linecap="round" fill="transparent" stroke-linejoin="round" points="153.81256103515625 134.29856872558594 166.68603515625 130.43650817871094 179.55950927734375 126.57444763183594 188.89288330078125 125.28709411621094 195.97332763671875 125.93077087402344 202.73193359375 128.1836395263672 208.5250244140625 133.01123046875 211.743408203125 142.02272033691406 210.4560546875 162.94223022460938 205.306640625 186.75830078125 200.1572265625 202.8502197265625 194.04229736328125 216.367431640625 188.57110595703125 223.4478759765625 181.81243896484375 225.7007751464844 178.27215576171875 223.12603759765625 178.27215576171875 223.12603759765625 " />
        <polyline stroke="black" stroke-width="3" stroke-linecap="round" fill="transparent" stroke-linejoin="round" points="157.99630737304688 86.66645812988281 150.9158935546875 110.48251342773438 143.83547973632813 134.29856872558594 137.72052001953125 157.47096252441406 130.96194458007813 178.7123260498047 121.62860107421876 199.95364379882813 112.93896484375 219.5858154296875 104.24932861328124 238.25244140625 104.24932861328124 238.25244140625 " />
        </svg>