<?xml version="1.0" standalone="no"?>
    <svg width="256" height="256" xmlns="http://www.w3.org/2000/svg" version="1.1">
    <polyline stroke="black" stroke-width="3" stroke-linecap="round" fill="transparent" stroke-linejoin="round" points="63.26220703125 42.938201904296875 63.652099609375 65.94070434570313 64.0419921875 88.94320678710938 64.43185424804688 118.5735321044922 63.652099609375 144.69500732421875 62.482513427734375 164.9683837890625 61.3128662109375 179.3936767578125 60.14324951171875 187.58099365234375 59.363525390625 191.08987426757813 59.363525390625 191.08987426757813 " />
        <polyline stroke="black" stroke-width="3" stroke-linecap="round" fill="transparent" stroke-linejoin="round" points="73.39886474609376 98.69001770019533 82.755859375 95.571044921875 92.11285400390624 92.45207214355467 96.40142822265624 91.28244018554688 103.80902099609376 90.11282348632813 109.6571044921875 90.502685546875 109.6571044921875 90.502685546875 " />
        <polyline stroke="black" stroke-width="3" stroke-linecap="round" fill="transparent" stroke-linejoin="round" points="83.53558349609374 156.0012969970703 88.99383544921875 155.2215576171875 94.45208740234376 154.4418182373047 101.46978759765624 152.1025848388672 110.04696655273438 147.4241180419922 110.04696655273438 147.4241180419922 " />
        <polyline stroke="black" stroke-width="3" stroke-linecap="round" fill="transparent" stroke-linejoin="round" points="117.84439086914063 67.89009094238281 116.284912109375 78.8065185546875 114.72543334960938 89.72294616699219 113.16595458984376 102.19888305664063 110.82675170898438 129.10009765625 108.87738037109376 154.83169555664063 108.87738037109376 166.5278778076172 108.87738037109376 182.1227874755859 110.04696655273438 191.479736328125 110.04696655273438 191.479736328125 " />
        <polyline stroke="black" stroke-width="3" stroke-linecap="round" fill="transparent" stroke-linejoin="round" points="163.8494873046875 81.92550659179688 168.1380615234375 81.145751953125 172.4266357421875 80.36599731445313 200.4974365234375 78.8065185546875 209.46453857421875 79.19638061523438 214.14300537109375 79.19638061523438 214.14300537109375 79.19638061523438 " />
        <polyline stroke="black" stroke-width="3" stroke-linecap="round" fill="transparent" stroke-linejoin="round" points="170.8670654296875 113.50518798828125 166.9683837890625 123.64187622070313 163.0697021484375 133.778564453125 158.3912353515625 145.8646240234375 148.64437866210938 171.986083984375 140.45703125 191.479736328125 137.33807373046875 198.8873291015625 137.33807373046875 198.8873291015625 " />
        <polyline stroke="black" stroke-width="3" stroke-linecap="round" fill="transparent" stroke-linejoin="round" points="161.9000244140625 129.10006713867188 165.79876708984375 127.15072631835938 169.697509765625 125.20138549804688 173.986083984375 123.64187622070313 186.4620361328125 121.69253540039063 195.8189697265625 123.64187622070313 206.7354736328125 131.04946899414063 214.53289794921875 139.62664794921875 217.65185546875 145.47476196289063 221.55059814453125 161.8494110107422 216.0924072265625 189.1405029296875 207.905029296875 200.44680786132813 194.64935302734375 207.8544006347656 177.1051025390625 209.41387939453125 177.1051025390625 209.41387939453125 " />
        </svg>