<?xml version="1.0" standalone="no"?>
    <svg width="256" height="256" xmlns="http://www.w3.org/2000/svg" version="1.1">
    <polyline stroke="black" stroke-width="3" stroke-linecap="round" fill="transparent" stroke-linejoin="round" points="72.82461547851563 68.65907287597655 70.69879150390625 82.12265014648438 68.57296752929688 95.5862274169922 67.15573120117188 111.17564392089844 65.38421630859375 142.35447692871094 65.38421630859375 165.73858642578125 65.738525390625 182.39093017578125 65.738525390625 191.9571533203125 65.38421630859375 197.62603759765625 65.38421630859375 197.62603759765625 " />
        <polyline stroke="black" stroke-width="3" stroke-linecap="round" fill="transparent" stroke-linejoin="round" points="74.24188232421874 117.90747070312499 83.45379638671875 113.30148315429688 92.66571044921876 108.69549560546876 96.208740234375 107.27828979492188 99.3974609375 107.27828979492188 99.3974609375 107.27828979492188 " />
        <polyline stroke="black" stroke-width="3" stroke-linecap="round" fill="transparent" stroke-linejoin="round" points="70.6988525390625 170.69888305664063 78.84783935546875 163.61277770996094 86.996826171875 156.52667236328125 86.996826171875 156.52667236328125 " />
        <polyline stroke="black" stroke-width="3" stroke-linecap="round" fill="transparent" stroke-linejoin="round" points="104.71209716796876 77.87098693847655 103.29486083984376 97.35775756835938 101.87762451171876 116.8445281982422 101.5233154296875 135.6226806640625 101.87762451171876 165.38430786132813 103.29486083984376 184.1624755859375 105.06637573242188 192.665771484375 105.420654296875 193.02008056640625 105.420654296875 193.02008056640625 " />
        <polyline stroke="black" stroke-width="3" stroke-linecap="round" fill="transparent" stroke-linejoin="round" points="124.90740966796875 93.46037292480469 133.41073608398438 88.5001220703125 141.9140625 83.53987121582031 151.1259765625 77.87098693847656 161.04656982421875 71.84780883789063 170.61279296875 66.17892456054688 184.78497314453125 58.0299072265625 188.3280029296875 55.904075622558594 188.3280029296875 55.904075622558594 " />
        <polyline stroke="black" stroke-width="3" stroke-linecap="round" fill="transparent" stroke-linejoin="round" points="147.93728637695313 94.5233154296875 135.18231201171875 127.11936950683594 122.42733764648438 159.71542358398438 118.52996826171876 172.4703826904297 114.632568359375 199.3975830078125 115.69549560546876 200.46047973632813 122.42733764648438 193.3743896484375 129.15911865234375 183.4538421630859 139.07965087890625 161.84124755859375 145.81146240234375 148.37765502929688 154.6690673828125 137.74851989746094 165.2982177734375 131.72532653808594 172.030029296875 129.95379638671875 182.6591796875 129.24520874023438 193.28826904296875 138.10281372070313 198.9571533203125 169.28164672851563 195.41412353515625 198.68896484375 186.91082763671875 212.15255737304688 170.967041015625 216.4042053222656 152.8975830078125 210.38104248046875 152.8975830078125 210.38104248046875 " />
        </svg>