<?xml version="1.0" standalone="no"?>
    <svg width="256" height="256" xmlns="http://www.w3.org/2000/svg" version="1.1">
    <polyline stroke="black" stroke-width="3" stroke-linecap="round" fill="transparent" stroke-linejoin="round" points="44 72 46 75 48 78 53 89 57 106 59 116 60 141 60 163 60 185 59 197 59 202 60 202 60 202 " />
        <polyline stroke="black" stroke-width="3" stroke-linecap="round" fill="transparent" stroke-linejoin="round" points="50 119 54 119 58 119 67 118 81 115 95 112 106 111 112 111 112 111 " />
        <polyline stroke="black" stroke-width="3" stroke-linecap="round" fill="transparent" stroke-linejoin="round" points="64 165 74 161 84 157 94 154 103 151 110 148 110 148 " />
        <polyline stroke="black" stroke-width="3" stroke-linecap="round" fill="transparent" stroke-linejoin="round" points="113 46 113 59 113 72 113 90 113 116 113 129 112 156 110 178 108 194 108 202 108 204 109 204 109 204 " />
        <polyline stroke="black" stroke-width="3" stroke-linecap="round" fill="transparent" stroke-linejoin="round" points="140 69 145 69 150 69 161 68 172 68 184 68 189 68 199 68 205 69 206 69 206 69 " />
        <polyline stroke="black" stroke-width="3" stroke-linecap="round" fill="transparent" stroke-linejoin="round" points="171 73 167 85 163 97 157 115 148 136 141 153 134 168 129 176 129 180 129 181 129 181 " />
        <polyline stroke="black" stroke-width="3" stroke-linecap="round" fill="transparent" stroke-linejoin="round" points="166 101 178 100 190 99 201 99 211 99 216 101 218 111 218 126 215 144 211 161 206 178 201 193 197 205 192 212 187 215 178 215 164 215 148 215 136 213 127 212 126 211 126 211 " />
        </svg>