<?xml version="1.0" standalone="no"?>
    <svg width="256" height="256" xmlns="http://www.w3.org/2000/svg" version="1.1">
    <polyline stroke="black" stroke-width="3" stroke-linecap="round" fill="transparent" stroke-linejoin="round" points="49.983245849609375 123.10049438476563 54.268035888671875 137.7912139892578 58.552825927734375 150.0334930419922 62.22552490234375 156.76673889160156 66.51031494140625 159.21519470214844 66.51031494140625 159.21519470214844 " />
        <polyline stroke="black" stroke-width="3" stroke-linecap="round" fill="transparent" stroke-linejoin="round" points="83.64947509765625 110.85823059082033 87.93426513671875 123.71261596679688 92.21905517578124 136.56700134277344 95.8917236328125 145.13658142089844 97.72808837890624 149.42137145996094 97.72808837890624 147.5850372314453 96.50384521484376 139.6275634765625 95.27963256835938 129.2216339111328 95.27963256835938 122.48838806152344 96.50384521484376 116.9793701171875 100.176513671875 110.85823059082033 107.52191162109376 104.7371063232422 126.49740600585938 96.16751098632813 143.02447509765625 90.6584930419922 156.490966796875 90.04638671875 163.2242431640625 91.88272094726563 168.12109375 96.16751098632813 169.3453369140625 102.28865051269533 164.44842529296875 113.3066864013672 150.36981201171875 125.5489501953125 132.6185302734375 135.3427734375 120.37628173828124 139.6275634765625 113.03091430664063 140.85179138183594 108.13400268554688 140.85179138183594 106.29766845703124 140.85179138183594 109.9703369140625 140.85179138183594 124.66107177734376 140.85179138183594 141.1881103515625 140.85179138183594 154.65460205078125 140.85179138183594 176.690673828125 139.6275634765625 176.690673828125 139.6275634765625 " />
        <polyline stroke="black" stroke-width="3" stroke-linecap="round" fill="transparent" stroke-linejoin="round" points="209.74481201171875 105.34921264648438 201.787353515625 113.91880798339844 185.26025390625 126.16107177734376 185.26025390625 126.16107177734376 " />
        <polyline stroke="black" stroke-width="3" stroke-linecap="round" fill="transparent" stroke-linejoin="round" points="143.6365966796875 69.23452758789063 139.96389770507813 83.31312561035156 135.0670166015625 107.79766845703124 130.78219604492188 140.2396697998047 128.94586181640625 166.560546875 128.333740234375 188.59661865234375 127.72161865234376 203.89947509765625 127.72161865234376 213.6932678222656 127.72161865234376 219.20230102539065 127.72161865234376 219.20230102539065 " />
        </svg>