<?xml version="1.0" standalone="no"?>
    <svg width="256" height="256" xmlns="http://www.w3.org/2000/svg" version="1.1">
    <polyline stroke="black" stroke-width="3" stroke-linecap="round" fill="transparent" stroke-linejoin="round" points="58.177215576171875 125.19229125976563 59.793548583984375 128.8290252685547 61.81396484375 134.08209228515625 63.026214599609375 135.69842529296875 63.026214599609375 135.69842529296875 " />
        <polyline stroke="black" stroke-width="3" stroke-linecap="round" fill="transparent" stroke-linejoin="round" points="86.46298217773438 99.73509216308594 89.29159545898438 108.22080993652344 90.50384521484376 111.4534912109375 92.12017822265624 116.30247497558594 92.12017822265624 116.30247497558594 " />
        <polyline stroke="black" stroke-width="3" stroke-linecap="round" fill="transparent" stroke-linejoin="round" points="103.4344482421875 87.20854187011719 113.94061279296876 83.57179260253906 120.40594482421876 82.35952758789063 131.316162109375 81.55136108398438 139.39779663085938 82.76361083984375 144.65087890625 85.1881103515625 147.883544921875 88.4207763671875 148.69171142578125 97.71466064453124 141.822265625 111.85757446289063 130.91207885742188 123.9800262451172 118.78961181640624 133.27395629882813 108.283447265625 139.33517456054688 100.60589599609376 142.97190856933594 96.16098022460938 144.18417358398438 94.14056396484376 144.58824157714844 93.73651123046876 144.58824157714844 96.96917724609376 144.18417358398438 105.05078125 142.97190856933594 118.78961181640624 139.33517456054688 127.67941284179688 135.29434204101563 127.67941284179688 135.29434204101563 " />
        <polyline stroke="black" stroke-width="3" stroke-linecap="round" fill="transparent" stroke-linejoin="round" points="192.3326416015625 92.05752563476563 185.8673095703125 99.33102416992188 178.9979248046875 106.20040893554688 163.64276123046875 120.34329223632813 156.3692626953125 126.40452575683594 156.3692626953125 126.40452575683594 " />
        <polyline stroke="black" stroke-width="3" stroke-linecap="round" fill="transparent" stroke-linejoin="round" points="113.53656005859376 77.10646057128906 112.32427978515624 94.0779266357422 111.11203002929688 110.6453094482422 110.30389404296876 126.80862426757813 110.30389404296876 143.37600708007813 110.30389404296876 172.06585693359375 110.30389404296876 195.09857177734375 109.49569702148438 212.07003784179688 109.49569702148438 212.07003784179688 " />
        </svg>