<?xml version="1.0" standalone="no"?>
    <svg width="256" height="256" xmlns="http://www.w3.org/2000/svg" version="1.1">
    <polyline stroke="black" stroke-width="3" stroke-linecap="round" fill="transparent" stroke-linejoin="round" points="87.4847412109375 106.49908447265624 105.174560546875 99.501220703125 121.17333984375 92.84153747558594 131.89126586914063 88.62721252441406 136.3397216796875 86.936279296875 137.92660522460938 86.36396789550781 139.35739135742188 85.999755859375 140.11178588867188 87.4305419921875 140.00775146484375 90.65634155273438 139.591552734375 96.40550231933594 138.08270263671875 104.4179229736328 136.65191650390625 113.52294921875 134.33660888671875 123.512451171875 132.54165649414063 131.4468536376953 131.03277587890625 138.86093139648438 129.52398681640625 146.09295654296875 128.431396484375 153.32492065429688 127.26071166992188 159.4122772216797 126.63638305664063 164.35501098632813 126.63638305664063 164.35501098632813 " />
        <polyline stroke="black" stroke-width="3" stroke-linecap="round" fill="transparent" stroke-linejoin="round" points="56.96990966796875 151.06166076660156 84.18093872070313 142.6590576171875 115.19009399414063 133.97024536132813 141.3084716796875 129.0015106201172 160.0648193359375 126.19197082519533 167.4268798828125 125.8017120361328 174.060546875 125.61962890625 177.88470458984375 125.93180847167967 180.77227783203125 127.70077514648438 181.37060546875 128.3511505126953 181.37060546875 128.3511505126953 " />
        <polyline stroke="black" stroke-width="3" stroke-linecap="round" fill="transparent" stroke-linejoin="round" points="61.44439697265625 188.4703063964844 88.08309936523438 179.20921325683594 121.927734375 169.08963012695313 147.34381103515625 162.48196411132813 163.47271728515625 156.29055786132813 163.47271728515625 156.29055786132813 " />
        <polyline stroke="black" stroke-width="3" stroke-linecap="round" fill="transparent" stroke-linejoin="round" points="102.33895874023438 58.060333251953125 100.04974365234376 84.308837890625 97.00604248046876 129.0275115966797 98.6448974609375 191.305908203125 112.27645874023438 250.6446228027344 112.27645874023438 250.6446228027344 " />
        </svg>