<?xml version="1.0" standalone="no"?>
    <svg width="256" height="256" xmlns="http://www.w3.org/2000/svg" version="1.1">
    <polyline stroke="black" stroke-width="3" stroke-linecap="round" fill="transparent" stroke-linejoin="round" points="80 65 81 64 84 63 88 63 92 61 97 60 102 57 112 53 120 50 128 48 136 46 143 45 149 44 155 45 159 47 163 51 167 62 168 71 169 81 169 91 168 102 165 112 161 121 156 129 153 133 " />
        <polyline stroke="black" stroke-width="3" stroke-linecap="round" fill="transparent" stroke-linejoin="round" points="55 104 56 102 58 101 61 100 64 99 69 98 75 97 82 96 91 95 101 95 119 94 133 93 146 92 160 91 174 91 186 90 196 90 204 90 210 90 214 90 216 91 " />
        <polyline stroke="black" stroke-width="3" stroke-linecap="round" fill="transparent" stroke-linejoin="round" points="93 147 91 148 92 147 94 146 97 144 101 141 107 138 113 135 123 130 129 127 136 125 142 124 148 123 152 123 " />
        <polyline stroke="black" stroke-width="3" stroke-linecap="round" fill="transparent" stroke-linejoin="round" points="114 16 114 17 114 23 113 31 113 42 113 54 114 69 114 85 115 103 116 121 118 138 121 162 123 175 124 187 125 197 126 206 127 209 128 213 " />
        </svg>