<?xml version="1.0" standalone="no"?>
    <svg width="256" height="256" xmlns="http://www.w3.org/2000/svg" version="1.1">
    <polyline stroke="black" stroke-width="3" stroke-linecap="round" fill="transparent" stroke-linejoin="round" points="70.360595703125 70.67462158203125 71.199951171875 84.10394287109375 72.03927612304688 89.97927856445313 72.45895385742188 95.4349365234375 73.29827880859375 100.47093200683594 75.39657592773438 108.02493286132813 76.65560913085938 109.28392028808594 76.65560913085938 109.28392028808594 " />
        <polyline stroke="black" stroke-width="3" stroke-linecap="round" fill="transparent" stroke-linejoin="round" points="95.96026611328124 67.31727600097656 98.478271484375 77.80894470214844 99.73724365234376 82.42527770996094 100.99627685546876 86.6219482421875 102.6749267578125 93.75628662109376 103.09457397460938 96.27427673339844 103.51425170898438 97.95294189453124 103.51425170898438 98.7922821044922 103.51425170898438 98.7922821044922 " />
        <polyline stroke="black" stroke-width="3" stroke-linecap="round" fill="transparent" stroke-linejoin="round" points="101.83563232421876 82.005615234375 112.32723999023438 75.71060180664063 118.20257568359376 72.77294921875 125.756591796875 69.41561889648438 132.47125244140625 66.47795104980469 145.06124877929688 62.281280517578125 155.13323974609375 60.60261535644531 161.847900390625 61.02227783203125 164.78558349609375 62.700958251953125 165.62493896484375 67.7369384765625 161.008544921875 78.22860717773438 151.77587890625 89.97927856445313 138.7662353515625 100.47093200683594 127.01556396484376 107.1855926513672 120.3009033203125 110.54293823242188 117.36325073242188 111.80192565917967 116.943603515625 111.80192565917967 118.62225341796876 110.96258544921876 125.3369140625 109.70359802246094 136.66790771484375 108.02493286132813 148.41854858398438 105.50692749023438 157.6512451171875 102.56927490234376 161.42822265625 100.05126953125 161.42822265625 100.05126953125 " />
        <polyline stroke="black" stroke-width="3" stroke-linecap="round" fill="transparent" stroke-linejoin="round" points="134.569580078125 35.42262268066406 132.47125244140625 45.91429138183594 131.21224975585938 55.146942138671875 129.5335693359375 76.9696044921875 128.69427490234375 87.88093566894531 127.43524169921876 108.44461059570313 127.43524169921876 123.97227478027344 128.69427490234375 135.3032684326172 131.63192749023438 141.17857360839844 131.63192749023438 141.17857360839844 " />
        <polyline stroke="black" stroke-width="3" stroke-linecap="round" fill="transparent" stroke-linejoin="round" points="202.5555419921875 73.19261169433594 193.7425537109375 85.78260803222656 186.6082763671875 96.69393920898438 169.821533203125 121.45426940917967 169.821533203125 121.45426940917967 " />
        <polyline stroke="black" stroke-width="3" stroke-linecap="round" fill="transparent" stroke-linejoin="round" points="105.19296264648438 171.3945770263672 122.39926147460938 163.840576171875 130.37289428710938 161.32257080078125 137.92694091796875 159.2242431640625 153.034912109375 155.86691284179688 159.74957275390625 154.188232421875 165.20526123046875 153.34890747070313 172.75921630859375 152.5095672607422 172.75921630859375 152.5095672607422 " />
        <polyline stroke="black" stroke-width="3" stroke-linecap="round" fill="transparent" stroke-linejoin="round" points="79.173583984375 200.771240234375 102.2552490234375 189.85989379882813 114.00595092773438 186.5025634765625 125.756591796875 183.98455810546875 138.3465576171875 182.72557067871097 151.77587890625 182.3058929443359 179.05419921875 183.98455810546875 192.90325927734375 186.5025634765625 192.90325927734375 186.5025634765625 " />
        </svg>