<?xml version="1.0" standalone="no"?>
    <svg width="256" height="256" xmlns="http://www.w3.org/2000/svg" version="1.1">
    <polyline stroke="black" stroke-width="3" stroke-linecap="round" fill="transparent" stroke-linejoin="round" points="63.68194580078125 125.84307861328124 72.7340087890625 125.84307861328124 82.38949584960938 124.3344268798828 94.7606201171875 121.92051696777344 108.33871459960938 118.60145568847656 122.21847534179688 114.37716674804688 133.98611450195313 110.15289306640624 144.84857177734375 106.23033142089844 153.90057373046875 102.60951232910156 161.74566650390625 98.98870849609376 167.47869873046875 96.27308654785156 172.306396484375 94.1609344482422 176.22894287109375 92.3505401611328 178.642822265625 91.1436004638672 180.15155029296875 90.23838806152344 181.35845947265625 89.63493347167969 181.9619140625 89.33320617675781 182.26361083984375 89.03144836425781 181.9619140625 89.03144836425781 180.7550048828125 89.63493347167969 179.84979248046875 89.93667602539063 179.84979248046875 89.93667602539063 " />
        <polyline stroke="black" stroke-width="3" stroke-linecap="round" fill="transparent" stroke-linejoin="round" points="112.26123046875 92.04881286621094 112.86471557617188 104.11819458007813 113.46817016601563 112.26502990722656 114.07162475585938 120.11012268066406 114.37335205078124 127.95523071289063 114.67507934570313 135.80032348632813 114.67507934570313 143.04196166992188 114.37335205078124 148.47317504882813 114.37335205078124 152.6974334716797 114.07162475585938 155.41307067871094 114.07162475585938 157.22348022460938 114.07162475585938 158.430419921875 114.07162475585938 159.03387451171875 114.07162475585938 159.3356170654297 114.37335205078124 158.430419921875 114.37335205078124 158.430419921875 " />
        <polyline stroke="black" stroke-width="3" stroke-linecap="round" fill="transparent" stroke-linejoin="round" points="163.55609130859375 64.59097290039063 163.25439453125 72.13433837890625 162.34918212890625 78.77249145507813 160.53875732421875 85.41065979003906 158.1248779296875 92.04881286621094 155.40924072265625 98.98870849609376 152.69366455078125 105.92860412597656 149.97802734375 112.26502990722656 147.26242065429688 117.69625854492188 145.75375366210938 120.411865234375 145.75375366210938 120.411865234375 " />
        <polyline stroke="black" stroke-width="3" stroke-linecap="round" fill="transparent" stroke-linejoin="round" points="110.4508056640625 141.23155212402344 120.10635375976563 136.70553588867188 124.63232421875 134.5933837890625 128.554931640625 132.78297424316406 132.17575073242188 130.97256469726563 135.19305419921875 129.4639129638672 137.30520629882813 128.2569580078125 138.81387329101563 127.3517608642578 140.02081298828125 126.748291015625 140.62429809570313 126.14479064941406 140.62429809570313 126.14479064941406 " />
        <polyline stroke="black" stroke-width="3" stroke-linecap="round" fill="transparent" stroke-linejoin="round" points="117.0889892578125 155.7147979736328 112.26123046875 165.67205810546875 109.243896484375 171.7067413330078 105.9248046875 178.0431671142578 102.90744018554688 183.17263793945313 100.19189453125 187.39694213867188 97.77798461914063 191.01776123046875 95.66583251953124 194.0350646972656 93.85543823242188 196.448974609375 92.95022583007813 197.65591430664065 92.34674072265624 198.86282348632813 91.7432861328125 199.46633911132813 91.7432861328125 199.46633911132813 " />
        <polyline stroke="black" stroke-width="3" stroke-linecap="round" fill="transparent" stroke-linejoin="round" points="113.46817016601563 182.26744079589844 121.01153564453124 185.5865173339844 123.72714233398438 187.09518432617188 125.83929443359376 188.6038818359375 127.34796142578124 189.50909423828125 128.554931640625 190.112548828125 129.46011352539063 190.71603393554688 130.06356811523438 190.71603393554688 130.66702270507813 190.71603393554688 130.66702270507813 190.71603393554688 " />
        <polyline stroke="black" stroke-width="3" stroke-linecap="round" fill="transparent" stroke-linejoin="round" points="173.8150634765625 128.8604278564453 169.89251708984375 137.30899047851563 166.87518310546875 143.94715881347656 163.55609130859375 150.28358459472656 159.633544921875 156.92173767089844 155.7110595703125 163.55990600585938 151.78851318359375 170.49977111816406 148.46939086914063 176.53448486328125 145.4520263671875 181.06051635742188 143.33990478515625 184.37960815429688 141.52947998046875 186.79345703125 140.32257080078125 188.3021545410156 139.41732788085938 189.20733642578125 139.41732788085938 189.20733642578125 " />
        <polyline stroke="black" stroke-width="3" stroke-linecap="round" fill="transparent" stroke-linejoin="round" points="161.74566650390625 164.766845703125 171.0994873046875 170.80154418945313 175.92718505859375 174.72409057617188 181.35845947265625 179.25010681152344 185.88446044921875 182.8708953857422 189.5052490234375 185.88824462890625 192.8243408203125 188.6038818359375 195.53997802734375 190.71603393554688 197.350341796875 192.52642822265625 198.85906982421875 194.33685302734375 200.36773681640625 196.75070190429688 201.27288818359375 198.2593688964844 201.27288818359375 198.2593688964844 " />
        </svg>