<?xml version="1.0" standalone="no"?>
    <svg width="256" height="256" xmlns="http://www.w3.org/2000/svg" version="1.1">
    <polyline stroke="black" stroke-width="3" stroke-linecap="round" fill="transparent" stroke-linejoin="round" points="93 74 93 74 93 74 94 74 97 75 100 74 104 74 109 74 115 74 121 74 128 73 134 73 141 72 151 71 157 69 163 67 168 65 171 63 173 62 174 61 " />
        <polyline stroke="black" stroke-width="3" stroke-linecap="round" fill="transparent" stroke-linejoin="round" points="116 50 114 51 112 55 110 60 108 65 107 71 106 76 105 82 105 87 106 94 107 97 108 100 110 102 111 104 114 105 116 106 120 107 123 107 129 107 134 105 138 102 144 98 146 95 149 93 " />
        <polyline stroke="black" stroke-width="3" stroke-linecap="round" fill="transparent" stroke-linejoin="round" points="151 41 151 40 151 41 151 42 151 45 151 50 152 56 152 63 151 75 150 79 149 88 148 92 147 96 " />
        <polyline stroke="black" stroke-width="3" stroke-linecap="round" fill="transparent" stroke-linejoin="round" points="102 131 102 131 102 131 101 132 99 135 95 141 93 147 90 152 87 158 84 164 81 169 78 174 76 179 74 182 73 184 73 185 " />
        <polyline stroke="black" stroke-width="3" stroke-linecap="round" fill="transparent" stroke-linejoin="round" points="81 163 83 162 86 160 90 159 95 158 99 159 103 159 106 160 110 162 113 164 117 166 121 168 123 169 126 169 " />
        <polyline stroke="black" stroke-width="3" stroke-linecap="round" fill="transparent" stroke-linejoin="round" points="147 122 147 122 145 124 142 127 137 135 133 141 130 147 127 153 124 160 121 166 118 171 116 176 115 178 " />
        <polyline stroke="black" stroke-width="3" stroke-linecap="round" fill="transparent" stroke-linejoin="round" points="125 160 127 159 132 158 137 157 142 158 148 158 155 160 160 163 166 167 169 170 172 173 " />
        </svg>