<?xml version="1.0" standalone="no"?>
    <svg width="256" height="256" xmlns="http://www.w3.org/2000/svg" version="1.1">
    <polyline stroke="black" stroke-width="3" stroke-linecap="round" fill="transparent" stroke-linejoin="round" points="61.402740478515625 76.4757080078125 69.2830810546875 75.91094970703125 77.16342163085938 75.34619140625 84.156005859375 75.17831420898438 97.68685913085938 75.1341552734375 103.831787109375 75.38601684570313 110.19964599609376 75.10960388183594 120.81927490234376 74.202392578125 126.1209716796875 73.71963500976563 136.68780517578125 72.81889343261719 141.06268310546875 72.46072387695313 151.85296630859375 71.57746887207031 157.313720703125 71.14422607421875 165.424560546875 70.37193298339844 167.880615234375 69.98471069335938 171.7723388671875 69.22238159179688 195.8828125 68.32905578613281 200.8011474609375 67.93048095703125 204.51055908203125 67.16070556640625 205.4461669921875 66.79461669921875 208.142578125 66.07461547851563 210.0673828125 65.67872619628906 227.8233642578125 64.18379211425781 230.27294921875 63.720123291015625 230.3148193359375 63.71220397949219 230.333740234375 63.7086181640625 230.34246826171875 63.70697021484375 " />
        <polyline stroke="black" stroke-width="3" stroke-linecap="round" fill="transparent" stroke-linejoin="round" points="94.91482543945313 41.058837890625 96.442626953125 64.68394470214844 97.97042846679688 88.30905151367188 98.11557006835938 100.67472839355467 96.87347412109376 116.42984008789063 95.8232421875 120.65023803710938 93.5948486328125 125.51303100585938 92.77011108398438 125.22708129882813 92.42425537109376 125.4461669921875 92.11239624023438 125.73992919921876 91.8360595703125 126.0242156982422 91.63534545898438 126.38536071777344 91.62619018554688 126.60124206542967 92.25131225585938 127.45213317871094 93.15771484375 128.0756072998047 98.32626342773438 129.5477294921875 103.80694580078124 130.12571716308594 117.73446655273438 129.09500122070313 129.20831298828125 126.9807586669922 135.22286987304688 125.96856689453124 142.5054931640625 125.50895690917967 144.014892578125 125.29534912109376 145.120361328125 125.31771850585938 145.20941162109375 125.31950378417967 " />
        <polyline stroke="black" stroke-width="3" stroke-linecap="round" fill="transparent" stroke-linejoin="round" points="153.5599365234375 45.349212646484375 154.2081298828125 58.69523620605469 154.8563232421875 72.041259765625 155.76165771484375 91.93293762207033 155.310791015625 98.40850830078124 153.8900146484375 105.65390014648438 153.8111572265625 110.00067138671876 153.81536865234375 110.10336303710938 " />
        <polyline stroke="black" stroke-width="3" stroke-linecap="round" fill="transparent" stroke-linejoin="round" points="88.27215576171875 132.06350708007813 80.109619140625 151.20651245117188 71.94708251953125 170.34951782226563 66.326904296875 180.68504333496097 53.665008544921875 201.9892578125 48.286865234375 210.06832885742188 41.011474609375 218.884521484375 42.465057373046875 216.20867919921875 " />
        <polyline stroke="black" stroke-width="3" stroke-linecap="round" fill="transparent" stroke-linejoin="round" points="75.00808715820313 167.09384155273438 89.37939453125 174.40916442871094 103.75070190429688 181.7244873046875 106.04110717773438 183.84524536132813 107.1947021484375 186.0037841796875 109.89398193359376 191.4659423828125 110.50726318359376 194.18801879882813 110.63458251953124 194.7530212402344 " />
        <polyline stroke="black" stroke-width="3" stroke-linecap="round" fill="transparent" stroke-linejoin="round" points="171.60546875 117.48152160644531 163.37939453125 135.73025512695313 155.1533203125 153.97898864746094 150.447021484375 164.70672607421875 141.56768798828125 181.57888793945313 135.88671875 192.239990234375 129.79330444335938 199.00357055664065 129.72406005859375 197.71868896484375 " />
        <polyline stroke="black" stroke-width="3" stroke-linecap="round" fill="transparent" stroke-linejoin="round" points="178.62005615234375 178.47152709960938 186.67889404296875 183.85166931152344 194.73773193359375 189.2318115234375 209.85174560546875 200.9036865234375 237.1058349609375 212.45684814453125 239.71923828125 213.76019287109375 239.6612548828125 213.7681884765625 239.657470703125 213.76876831054688 " />
        </svg>