<?xml version="1.0" standalone="no"?>
    <svg width="256" height="256" xmlns="http://www.w3.org/2000/svg" version="1.1">
    <polyline stroke="black" stroke-width="3" stroke-linecap="round" fill="transparent" stroke-linejoin="round" points="36.93792724609375 102.83006286621094 56.54730224609375 94.98634338378906 82.03936767578125 92.3717803955078 88.5758056640625 92.3717803955078 97.72674560546876 91.0644989013672 106.87786865234376 90.4108428955078 110.14605712890624 89.75721740722656 108.8387451171875 89.75721740722656 108.8387451171875 89.75721740722656 " />
        <polyline stroke="black" stroke-width="3" stroke-linecap="round" fill="transparent" stroke-linejoin="round" points="85.961181640625 95.63999938964844 71.5810546875 113.28836059570313 63.7373046875 144.66323852539063 61.77642822265625 154.4678955078125 58.50823974609375 172.76992797851563 55.23992919921875 189.11102294921875 53.279052734375 194.9937744140625 50.66448974609375 196.9547119140625 49.357177734375 194.34014892578125 50.66448974609375 189.11102294921875 53.93267822265625 177.3454132080078 57.8546142578125 167.540771484375 63.7373046875 157.73611450195313 71.5810546875 149.8924102783203 80.73211669921875 142.7023162841797 89.883056640625 137.47317504882813 97.07318115234376 134.8585968017578 101.64862060546876 134.8585968017578 103.609619140625 144.0095977783203 103.609619140625 157.0824737548828 102.30230712890624 171.46263122558594 100.3414306640625 183.22821044921875 97.07318115234376 191.07192993164065 89.22943115234375 195.64743041992188 85.30755615234375 194.9937744140625 83.34661865234375 187.15008544921875 85.961181640625 179.95999145507813 85.961181640625 179.95999145507813 " />
        <polyline stroke="black" stroke-width="3" stroke-linecap="round" fill="transparent" stroke-linejoin="round" points="121.25799560546876 89.10356140136719 130.408935546875 102.83006286621094 131.0626220703125 104.13737487792967 137.59906005859375 111.9810791015625 140.213623046875 112.6347198486328 147.4036865234375 111.3274383544922 157.2083740234375 105.44464111328124 166.35931396484375 98.25456237792967 170.93487548828125 94.98634338378906 172.24212646484375 95.63999938964844 167.01300048828125 103.48371887207033 155.2474365234375 116.55657958984376 140.213623046875 128.97581481933594 125.83343505859376 138.7804412841797 115.37518310546876 145.31689453125 109.49237060546876 147.9314727783203 107.53143310546876 149.8924102783203 108.8387451171875 149.23875427246094 116.02880859375 147.9314727783203 128.447998046875 144.66323852539063 144.13543701171875 139.43411254882813 164.39837646484375 130.28311157226563 176.817626953125 123.74668884277344 183.35406494140625 120.47845458984376 187.92962646484375 115.90293884277344 187.92962646484375 115.90293884277344 " />
        <polyline stroke="black" stroke-width="3" stroke-linecap="round" fill="transparent" stroke-linejoin="round" points="161.13018798828125 82.56712341308594 144.78912353515625 110.0201416015625 134.9844970703125 157.73611450195313 133.67718505859375 162.9652862548828 128.447998046875 184.53549194335935 123.87249755859376 196.30108642578125 121.25799560546876 202.8374938964844 122.56524658203124 204.14480590820313 125.1798095703125 202.18389892578125 125.1798095703125 202.18389892578125 " />
        <polyline stroke="black" stroke-width="3" stroke-linecap="round" fill="transparent" stroke-linejoin="round" points="134.9844970703125 167.540771484375 152.6328125 169.501708984375 174.856689453125 187.8037109375 180.08587646484375 192.37924194335935 192.50506591796875 201.53024291992188 205.57794189453125 208.7203063964844 205.57794189453125 208.7203063964844 " />
        </svg>