<?xml version="1.0" standalone="no"?>
    <svg width="256" height="256" xmlns="http://www.w3.org/2000/svg" version="1.1">
    <polyline stroke="black" stroke-width="3" stroke-linecap="round" fill="transparent" stroke-linejoin="round" points="93.77963256835938 94.94328308105467 118.87628173828124 89.43426513671875 140.912353515625 86.37370300292969 163.560546875 83.92524719238281 178.8634033203125 82.08891296386719 191.7177734375 79.02833557128906 191.7177734375 79.02833557128906 " />
        <polyline stroke="black" stroke-width="3" stroke-linecap="round" fill="transparent" stroke-linejoin="round" points="145.1971435546875 58.82859802246094 139.6881103515625 74.74354553222656 132.3427734375 91.88272094726563 120.71261596679688 108.40977478027344 104.185546875 123.71261596679688 84.59793090820313 135.9548797607422 68.07086181640625 143.3002471923828 58.27703857421875 145.74868774414063 55.82861328125 143.912353515625 61.337615966796875 140.2396697998047 83.37371826171875 128.60952758789063 118.26416015625 116.36724853515624 143.972900390625 111.47035217285156 166.62109375 109.63400268554688 182.53607177734375 110.24612426757813 189.88140869140625 110.24612426757813 193.5540771484375 112.08245849609376 193.5540771484375 112.08245849609376 " />
        <polyline stroke="black" stroke-width="3" stroke-linecap="round" fill="transparent" stroke-linejoin="round" points="93.16751098632813 158.6030731201172 90.71905517578124 173.90591430664063 88.27059936523438 191.04507446289065 87.04638671875 204.51156616210935 86.43426513671875 211.24481201171875 86.43426513671875 211.24481201171875 87.65850830078125 202.67523193359375 91.3311767578125 186.76028442382813 96.22808837890624 175.13014221191406 102.96133422851563 165.9484405517578 114.59149169921876 157.37884521484375 131.1185302734375 148.80926513671875 148.86981201171875 143.3002471923828 162.3363037109375 141.46389770507813 170.2938232421875 142.68812561035156 175.80279541015625 146.97291564941406 178.8634033203125 154.3182830810547 178.8634033203125 169.00900268554688 173.3543701171875 181.86338806152344 161.112060546875 198.39044189453125 161.112060546875 198.39044189453125 " />
        <polyline stroke="black" stroke-width="3" stroke-linecap="round" fill="transparent" stroke-linejoin="round" points="102.34921264648438 173.90591430664063 118.26416015625 168.3968963623047 139.6881103515625 164.72421264648438 154.37884521484375 164.11209106445313 166.62109375 164.72421264648438 172.74224853515625 165.33631896972656 174.57861328125 166.560546875 174.57861328125 166.560546875 " />
        <polyline stroke="black" stroke-width="3" stroke-linecap="round" fill="transparent" stroke-linejoin="round" points="102.96133422851563 198.39044189453125 113.36724853515624 195.9419860839844 124.99740600585938 194.7177734375 137.23968505859375 194.10565185546875 147.03350830078125 195.9419860839844 147.03350830078125 195.9419860839844 " />
        </svg>