<?xml version="1.0" standalone="no"?>
    <svg width="256" height="256" xmlns="http://www.w3.org/2000/svg" version="1.1">
    <polyline stroke="black" stroke-width="3" stroke-linecap="round" fill="transparent" stroke-linejoin="round" points="65.30657958984375 97.74710083007813 78.68948364257813 93.84376525878906 97.0909423828125 89.38279724121094 122.74151611328124 84.36421203613281 138.9124755859375 81.01849365234375 155.64111328125 76.55752563476563 169.58160400390625 71.5389404296875 169.58160400390625 71.5389404296875 " />
        <polyline stroke="black" stroke-width="3" stroke-linecap="round" fill="transparent" stroke-linejoin="round" points="138.3548583984375 65.40512084960938 134.4515380859375 78.23039245605469 127.20245361328124 94.40138244628906 111.03146362304688 118.93667602539063 111.03146362304688 118.93667602539063 " />
        <polyline stroke="black" stroke-width="3" stroke-linecap="round" fill="transparent" stroke-linejoin="round" points="55.8270263671875 131.20433044433594 68.09469604492188 126.1857452392578 87.61138916015625 119.49430847167967 114.934814453125 113.9180908203125 141.14297485351563 112.2452392578125 161.77490234375 111.6876220703125 177.9459228515625 111.6876220703125 186.86785888671875 112.2452392578125 190.771240234375 113.3604736328125 190.771240234375 113.3604736328125 " />
        <polyline stroke="black" stroke-width="3" stroke-linecap="round" fill="transparent" stroke-linejoin="round" points="82.03521728515625 183.06304931640625 82.59283447265625 195.8883056640625 82.03521728515625 205.92547607421875 82.03521728515625 211.50167846679688 82.03521728515625 211.50167846679688 " />
        <polyline stroke="black" stroke-width="3" stroke-linecap="round" fill="transparent" stroke-linejoin="round" points="96.5333251953125 157.41249084472656 106.01287841796876 149.04818725585938 119.39578247070313 141.7991180419922 135.0091552734375 136.22291564941406 151.18017578125 133.992431640625 165.67828369140625 137.33815002441406 176.2730712890625 142.91436767578125 182.4068603515625 150.16342163085938 184.0797119140625 160.75820922851563 178.5035400390625 176.37158203125 158.42919921875 198.67642211914065 158.42919921875 198.67642211914065 " />
        <polyline stroke="black" stroke-width="3" stroke-linecap="round" fill="transparent" stroke-linejoin="round" points="86.49615478515625 186.96636962890625 100.43667602539063 182.50540161132813 117.165283203125 178.04444885253906 135.5667724609375 175.25634765625 151.18017578125 174.14111328125 163.44781494140625 174.69873046875 169.58160400390625 175.81396484375 169.58160400390625 175.81396484375 " />
        <polyline stroke="black" stroke-width="3" stroke-linecap="round" fill="transparent" stroke-linejoin="round" points="107.68572998046876 212.61691284179688 119.95339965820313 209.27120971679688 133.8939208984375 205.92547607421875 153.96826171875 202.02212524414065 153.96826171875 202.02212524414065 " />
        </svg>