<?xml version="1.0" standalone="no"?>
    <svg width="256" height="256" xmlns="http://www.w3.org/2000/svg" version="1.1">
    <polyline stroke="black" stroke-width="3" stroke-linecap="round" fill="transparent" stroke-linejoin="round" points="68.57611083984375 89.82003784179688 81.97402954101563 87.38406372070313 102.0709228515625 83.73008728027344 121.55877685546876 77.64012145996094 142.8736572265625 69.72315979003906 157.48956298828125 63.024200439453125 163.57952880859375 58.15223693847656 164.18853759765625 53.889251708984375 164.18853759765625 53.889251708984375 " />
        <polyline stroke="black" stroke-width="3" stroke-linecap="round" fill="transparent" stroke-linejoin="round" points="124.603759765625 62.41520690917969 120.94979858398438 78.24911499023438 113.641845703125 95.91000366210938 103.28887939453124 112.35292053222656 90.49996948242188 123.92384338378906 77.10205078125 131.84080505371094 67.96710205078125 134.2767791748047 63.09515380859375 134.2767791748047 61.26812744140625 133.66778564453125 65.5311279296875 131.2318115234375 80.75604248046875 125.141845703125 109.98785400390624 116.00689697265624 135.56570434570313 109.30793762207033 162.9705810546875 103.82696533203124 179.4134521484375 100.781982421875 185.50341796875 100.781982421875 185.50341796875 100.781982421875 " />
        <polyline stroke="black" stroke-width="3" stroke-linecap="round" fill="transparent" stroke-linejoin="round" points="81.36502075195313 173.86155700683594 81.97402954101563 184.21450805664065 82.5830078125 194.56744384765625 82.5830078125 203.0933837890625 82.5830078125 208.5743408203125 82.5830078125 208.5743408203125 83.801025390625 201.26638793945313 86.23699951171875 187.25949096679688 90.49996948242188 172.64356994628906 95.3719482421875 163.5086212158203 100.8529052734375 156.80966186523438 111.81484985351563 150.11068725585938 125.82177734375 145.2387237548828 141.65567016601563 142.802734375 156.880615234375 144.02073669433594 167.2335205078125 147.67471313476563 173.323486328125 153.76467895507813 178.1954345703125 168.38058471679688 174.54150390625 187.86846923828125 162.361572265625 206.13836669921875 137.3927001953125 228.67123413085935 137.3927001953125 228.67123413085935 " />
        <polyline stroke="black" stroke-width="3" stroke-linecap="round" fill="transparent" stroke-linejoin="round" points="99.02593994140624 174.47055053710938 111.20587158203124 172.03456115722656 125.82177734375 169.5985870361328 140.43768310546875 167.77159118652344 152.00860595703125 167.77159118652344 157.48956298828125 167.77159118652344 159.31658935546875 170.8165740966797 159.31658935546875 170.8165740966797 " />
        <polyline stroke="black" stroke-width="3" stroke-linecap="round" fill="transparent" stroke-linejoin="round" points="103.28887939453124 214.664306640625 118.5137939453125 212.22833251953125 133.12973022460938 211.0103454589844 147.13665771484375 211.61932373046875 163.57952880859375 215.88232421875 163.57952880859375 215.88232421875 " />
        </svg>