<?xml version="1.0" standalone="no"?>
    <svg width="256" height="256" xmlns="http://www.w3.org/2000/svg" version="1.1">
    <polyline stroke="black" stroke-width="3" stroke-linecap="round" fill="transparent" stroke-linejoin="round" points="88.08154296875 55.33375549316406 84.56304931640625 65.71371459960938 81.0445556640625 76.09367370605469 76.39682006835938 86.57014465332031 68.68865966796875 97.63006591796876 68.43026733398438 97.88229370117188 " />
        <polyline stroke="black" stroke-width="3" stroke-linecap="round" fill="transparent" stroke-linejoin="round" points="85.12722778320315 75.69737243652344 107.81805419921876 68.09104919433594 130.50888061523438 60.48472595214844 142.74359130859375 56.6153564453125 152.7052001953125 53.54289245605469 166.947509765625 49.48789978027344 170.04925537109375 47.10871887207031 170.075927734375 46.9613037109375 " />
        <polyline stroke="black" stroke-width="3" stroke-linecap="round" fill="transparent" stroke-linejoin="round" points="124.05047607421875 48.23020935058594 119.12142944335938 60.40423583984375 114.1923828125 72.57826232910156 108.76852416992188 85.85385131835938 98.60507202148438 107.98692321777344 93.68292236328124 116.00083923339844 86.0159912109375 124.51438903808594 85.73532104492188 124.7974853515625 " />
        <polyline stroke="black" stroke-width="3" stroke-linecap="round" fill="transparent" stroke-linejoin="round" points="113.16497802734375 82.13394165039063 135.8123779296875 94.3045654296875 158.45977783203125 106.47518920898438 170.2515869140625 112.47276306152344 185.30078125 121.02532958984376 186.7269287109375 123.22593688964844 186.84466552734375 123.40750122070313 " />
        <polyline stroke="black" stroke-width="3" stroke-linecap="round" fill="transparent" stroke-linejoin="round" points="93.04168701171875 165.76304626464844 93.01791381835938 169.14634704589844 92.994140625 172.52964782714844 91.107177734375 178.08116149902344 87.90731811523438 180.8870086669922 86.65234375 181.4452362060547 " />
        <polyline stroke="black" stroke-width="3" stroke-linecap="round" fill="transparent" stroke-linejoin="round" points="109.84765624999997 151.3624267578125 119.61431884765624 150.01852416992188 129.3809814453125 148.67462158203125 139.09765625 147.00787353515625 155.85272216796875 144.3800506591797 160.36114501953125 143.48605346679688 162.28900146484375 141.93353271484375 162.4129638671875 141.8337860107422 " />
        <polyline stroke="black" stroke-width="3" stroke-linecap="round" fill="transparent" stroke-linejoin="round" points="127.16470336914065 144.14454650878906 120.96868896484376 161.82833862304688 114.77267456054688 179.5121307373047 101.609130859375 214.988037109375 92.4437255859375 232.368896484375 89.65451049804688 236.7774658203125 87.02435302734375 240.1182556152344 85.332763671875 243.44970703125 85.18572998046875 243.73928833007813 " />
        <polyline stroke="black" stroke-width="3" stroke-linecap="round" fill="transparent" stroke-linejoin="round" points="129.69073486328125 208.5211486816406 139.822265625 212.5531005859375 149.95379638671875 216.5850524902344 162.830322265625 221.4930419921875 186.0316162109375 230.9349670410156 194.15863037109375 235.41094970703125 194.85736083984375 235.8165283203125 " />
        </svg>