<?xml version="1.0" standalone="no"?>
    <svg width="256" height="256" xmlns="http://www.w3.org/2000/svg" version="1.1">
    <polyline stroke="black" stroke-width="3" stroke-linecap="round" fill="transparent" stroke-linejoin="round" points="110.28143310546876 22.43133544921875 102.89111328125 38.44359588623047 95.5008544921875 52.40300750732422 86.05770874023438 70.05755615234375 79.0780029296875 83.19583129882813 73.33004760742188 93.04953002929688 70.04547119140625 98.38697814941406 69.22430419921875 98.79753112792967 69.22430419921875 98.79753112792967 " />
        <polyline stroke="black" stroke-width="3" stroke-linecap="round" fill="transparent" stroke-linejoin="round" points="88.110595703125 72.11041259765625 107.40740966796876 60.203857421875 113.56597900390624 57.329864501953125 127.11483764648438 52.40300750732422 139.842529296875 49.118438720703125 152.15966796875 46.65501403808594 161.602783203125 43.37044525146485 166.11907958984375 40.90702819824219 166.11907958984375 40.90702819824219 " />
        <polyline stroke="black" stroke-width="3" stroke-linecap="round" fill="transparent" stroke-linejoin="round" points="140.66366577148438 27.358184814453125 135.73681640625 37.211883544921875 132.45223999023438 44.19158935546875 124.24081420898438 61.024993896484375 109.870849609375 91.40725708007813 100.427734375 107.83010864257813 96.73260498046876 114.39923095703124 87.70001220703125 127.12693786621094 86.05770874023438 129.17979431152344 86.05770874023438 129.17979431152344 " />
        <polyline stroke="black" stroke-width="3" stroke-linecap="round" fill="transparent" stroke-linejoin="round" points="105.76513671875 97.56582641601563 120.13510131835938 93.46011352539063 132.04168701171875 90.9967041015625 143.53768920898438 90.58612060546876 155.85479736328125 92.22840881347656 162.83447265625 93.46011352539063 162.83447265625 93.46011352539063 " />
        <polyline stroke="black" stroke-width="3" stroke-linecap="round" fill="transparent" stroke-linejoin="round" points="105.35458374023438 125.07408142089844 89.75286865234375 144.37091064453125 84.0048828125 152.1717529296875 72.50888061523438 166.13116455078125 67.99261474609375 172.28973388671875 65.11859130859375 175.98486328125 64.7080078125 176.80601501464844 64.29745483398438 177.2165985107422 67.58203125 175.57431030273438 78.66744995117188 169.0051727294922 105.35458374023438 154.6351776123047 121.77740478515624 146.83433532714844 135.32626342773438 141.907470703125 141.07421875 139.85464477539063 153.80194091796875 136.15948486328125 157.4970703125 134.10665893554688 157.4970703125 134.10665893554688 " />
        <polyline stroke="black" stroke-width="3" stroke-linecap="round" fill="transparent" stroke-linejoin="round" points="149.28564453125 110.7041015625 139.43197631835938 131.23263549804688 136.55795288085938 138.21234130859375 134.09454345703125 145.60263061523438 125.4725341796875 166.9523162841797 119.31396484375 179.68002319335938 113.56597900390624 190.76544189453125 110.69198608398438 194.87115478515625 105.35458374023438 202.26141357421875 99.19601440429688 210.8834228515625 96.32199096679688 214.9891357421875 95.5008544921875 216.2208251953125 94.6796875 218.273681640625 94.6796875 218.273681640625 " />
        <polyline stroke="black" stroke-width="3" stroke-linecap="round" fill="transparent" stroke-linejoin="round" points="123.83026123046876 185.0174560546875 139.842529296875 187.4808654785156 150.517333984375 191.58657836914065 160.37109375 197.3345642089844 168.17193603515625 203.08258056640625 174.33050537109375 209.65170288085935 174.33050537109375 209.65170288085935 " />
        </svg>