<?xml version="1.0" standalone="no"?>
    <svg width="256" height="256" xmlns="http://www.w3.org/2000/svg" version="1.1">
    <polyline stroke="black" stroke-width="3" stroke-linecap="round" fill="transparent" stroke-linejoin="round" points="111.0682373046875 33.830291748046875 95.54061889648438 56.911956787109375 85.04891967773438 71.60028076171875 76.23593139648438 83.77059936523438 72.87860107421875 87.547607421875 70.360595703125 90.48527526855467 67.42294311523438 93.84260559082033 66.1639404296875 95.10159301757813 65.7442626953125 95.10159301757813 68.26229858398438 93.00326538085938 75.81625366210938 88.38693237304688 80.85226440429688 85.44927978515625 102.2552490234375 74.53794860839844 117.36325073242188 66.98394775390625 132.05160522460938 59.42994689941406 143.80224609375 52.295616149902344 148.83822631835938 48.93828582763672 158.4906005859375 39.28594970703125 158.4906005859375 39.28594970703125 " />
        <polyline stroke="black" stroke-width="3" stroke-linecap="round" fill="transparent" stroke-linejoin="round" points="148.83822631835938 13.686302185058594 138.7662353515625 27.53529357910156 126.17623901367188 47.67928314208984 113.16659545898438 69.92161560058594 101.41595458984376 89.64593505859375 91.76361083984376 107.27194213867188 85.88827514648438 118.18325805664063 82.95062255859375 124.05859375 82.11126708984375 125.31759643554688 82.11126708984375 125.31759643554688 " />
        <polyline stroke="black" stroke-width="3" stroke-linecap="round" fill="transparent" stroke-linejoin="round" points="103.51425170898438 104.3342742919922 123.65826416015624 99.29826354980467 128.69427490234375 98.87858581542967 139.60556030273438 98.87858581542967 142.12353515625 99.71794128417967 142.12353515625 99.71794128417967 " />
        <polyline stroke="black" stroke-width="3" stroke-linecap="round" fill="transparent" stroke-linejoin="round" points="107.291259765625 107.69158935546876 102.6749267578125 117.76359558105467 99.31759643554688 124.47825622558594 92.60296630859376 135.8092498779297 89.665283203125 140.84524536132813 84.2095947265625 148.81890869140625 80.4326171875 153.01556396484375 77.49496459960938 155.11392211914063 75.81625366210938 155.9532470703125 74.97698974609375 155.9532470703125 74.97698974609375 155.5335693359375 78.75396728515625 153.01556396484375 88.40625 148.39923095703125 103.51425170898438 142.52392578125 119.88128662109376 137.4879150390625 133.730224609375 133.71092224121094 143.80224609375 130.77325439453125 150.51690673828125 127.83560180664063 154.71356201171875 124.89793395996094 154.71356201171875 124.89793395996094 " />
        <polyline stroke="black" stroke-width="3" stroke-linecap="round" fill="transparent" stroke-linejoin="round" points="143.80224609375 104.7539520263672 113.16659545898438 150.49758911132813 100.15692138671876 171.06124877929688 95.12094116210938 178.195556640625 85.46859741210938 193.7232360839844 82.53094482421875 197.91989135742188 82.11126708984375 197.91989135742188 81.69158935546875 197.500244140625 82.53094482421875 196.2412109375 82.53094482421875 196.2412109375 " />
        <polyline stroke="black" stroke-width="3" stroke-linecap="round" fill="transparent" stroke-linejoin="round" points="110.22894287109376 166.86456298828125 123.65826416015624 170.22190856933594 129.11395263671875 171.90057373046875 134.569580078125 173.5792236328125 145.90057373046875 178.195556640625 160.16925048828125 185.74957275390625 160.16925048828125 185.74957275390625 " />
        </svg>