<?xml version="1.0" standalone="no"?>
    <svg width="256" height="256" xmlns="http://www.w3.org/2000/svg" version="1.1">
    <polyline stroke="black" stroke-width="3" stroke-linecap="round" fill="transparent" stroke-linejoin="round" points="91.13909912109375 71.62951660156251 90.01287841796875 81.90487670898438 88.88665771484375 92.18023681640624 86.84320068359375 101.83377075195313 81.80218505859375 116.62614440917967 79.80328369140625 121.0067138671875 78.52166748046875 122.20384216308594 78.5133056640625 122.20672607421876 78.511474609375 122.20736694335938 84.1484375 117.29531860351563 93.5869140625 110.74465942382813 102.31640625 105.19352722167967 131.29364013671875 92.42013549804688 147.02203369140625 88.54386901855469 152.5042724609375 87.32716369628906 166.0992431640625 85.60771179199219 168.55950927734375 85.90910339355469 168.58184814453125 85.911865234375 168.583740234375 85.91207885742188 " />
        <polyline stroke="black" stroke-width="3" stroke-linecap="round" fill="transparent" stroke-linejoin="round" points="122.30004882812499 53.4344482421875 120.46432495117188 64.85675048828125 118.62860107421876 76.279052734375 112.96517944335938 101.30264282226563 104.53854370117188 126.86285400390624 99.71566772460938 137.41354370117188 91.747802734375 149.59201049804688 87.81036376953125 153.25054931640625 87.41659545898438 153.61642456054688 " />
        <polyline stroke="black" stroke-width="3" stroke-linecap="round" fill="transparent" stroke-linejoin="round" points="126.66943359375 122.91133117675781 128.26416015625 122.92544555664063 129.85888671875 122.93955993652344 133.98272705078125 123.46519470214844 147.36572265625 126.8956298828125 163.7418212890625 131.2628173828125 176.6292724609375 136.33372497558594 179.511474609375 137.88162231445313 181.8624267578125 139.42584228515625 182.5135498046875 141.28802490234375 182.5601806640625 141.42141723632813 " />
        <polyline stroke="black" stroke-width="3" stroke-linecap="round" fill="transparent" stroke-linejoin="round" points="99.18008422851563 151.4002685546875 97.36767578125 161.0380096435547 95.55526733398438 170.67575073242188 92.65036010742188 181.78582763671875 86.52801513671875 195.8421630859375 83.77947998046875 199.95687866210935 82.6025390625 200.97454833984375 82.59640502929688 200.97613525390625 83.63372802734375 200.12457275390625 90.91366577148438 194.199462890625 107.29208374023438 179.71444702148438 122.86859130859376 171.74652099609375 143.09921264648438 163.63763427734375 149.90316772460938 162.36570739746094 165.08050537109375 163.41989135742188 166.8486328125 164.16204833984375 167.0255126953125 164.23626708984375 " />
        <polyline stroke="black" stroke-width="3" stroke-linecap="round" fill="transparent" stroke-linejoin="round" points="126.43151855468753 136.075439453125 122.92572021484376 146.60983276367188 119.419921875 157.14422607421875 111.88095092773438 185.08929443359375 107.20147705078124 201.6849365234375 97.70114135742188 226.46368408203125 93.7750244140625 234.0146484375 86.44808959960938 242.428955078125 86.08843994140625 242.7188720703125 " />
        <polyline stroke="black" stroke-width="3" stroke-linecap="round" fill="transparent" stroke-linejoin="round" points="120.67153930664063 186.68359375 126.865966796875 190.5196533203125 133.06039428710938 194.355712890625 146.81356811523438 208.6846923828125 159.94207763671875 219.77044677734375 175.70745849609375 234.463134765625 184.2156982421875 244.519287109375 186.361572265625 248.68722534179688 186.576171875 249.10400390625 " />
        </svg>