<?xml version="1.0" standalone="no"?>
    <svg width="256" height="256" xmlns="http://www.w3.org/2000/svg" version="1.1">
    <polyline stroke="black" stroke-width="3" stroke-linecap="round" fill="transparent" stroke-linejoin="round" points="89 58 87 69 87 76 79 93 70 112 63 124 60 128 60 128 " />
        <polyline stroke="black" stroke-width="3" stroke-linecap="round" fill="transparent" stroke-linejoin="round" points="90 76 95 78 105 78 123 78 140 72 156 67 162 66 162 66 " />
        <polyline stroke="black" stroke-width="3" stroke-linecap="round" fill="transparent" stroke-linejoin="round" points="137 38 130 53 122 72 110 96 97 120 87 138 80 147 78 149 78 149 " />
        <polyline stroke="black" stroke-width="3" stroke-linecap="round" fill="transparent" stroke-linejoin="round" points="109 94 131 109 144 116 158 122 170 126 170 126 " />
        <polyline stroke="black" stroke-width="3" stroke-linecap="round" fill="transparent" stroke-linejoin="round" points="114 143 107 158 98 177 89 195 79 209 76 216 76 216 " />
        <polyline stroke="black" stroke-width="3" stroke-linecap="round" fill="transparent" stroke-linejoin="round" points="98 176 118 170 127 170 140 170 153 170 165 170 170 170 170 170 " />
        <polyline stroke="black" stroke-width="3" stroke-linecap="round" fill="transparent" stroke-linejoin="round" points="155 136 150 144 145 160 134 181 121 200 108 217 98 229 92 233 92 233 " />
        <polyline stroke="black" stroke-width="3" stroke-linecap="round" fill="transparent" stroke-linejoin="round" points="129 197 137 202 149 204 168 216 189 225 198 229 198 229 " />
        </svg>