<?xml version="1.0" standalone="no"?>
    <svg width="256" height="256" xmlns="http://www.w3.org/2000/svg" version="1.1">
    <polyline stroke="black" stroke-width="3" stroke-linecap="round" fill="transparent" stroke-linejoin="round" points="94 31 90 43 86 55 82 63 77 75 71 86 69 91 69 91 " />
        <polyline stroke="black" stroke-width="3" stroke-linecap="round" fill="transparent" stroke-linejoin="round" points="94 61 100 61 106 61 119 59 131 57 142 56 147 56 149 56 149 56 " />
        <polyline stroke="black" stroke-width="3" stroke-linecap="round" fill="transparent" stroke-linejoin="round" points="123 34 118 51 113 68 107 84 102 95 98 102 96 103 96 103 " />
        <polyline stroke="black" stroke-width="3" stroke-linecap="round" fill="transparent" stroke-linejoin="round" points="112 79 121 80 130 81 140 87 150 95 159 102 161 105 161 105 " />
        <polyline stroke="black" stroke-width="3" stroke-linecap="round" fill="transparent" stroke-linejoin="round" points="97 127 94 133 91 139 87 150 82 162 81 165 81 165 " />
        <polyline stroke="black" stroke-width="3" stroke-linecap="round" fill="transparent" stroke-linejoin="round" points="96 137 106 136 116 135 127 133 137 132 144 131 147 131 147 131 " />
        <polyline stroke="black" stroke-width="3" stroke-linecap="round" fill="transparent" stroke-linejoin="round" points="125 120 121 132 117 144 111 159 106 170 101 178 98 180 98 180 " />
        <polyline stroke="black" stroke-width="3" stroke-linecap="round" fill="transparent" stroke-linejoin="round" points="122 151 127 154 132 157 142 164 156 172 167 180 167 180 " />
        </svg>