<?xml version="1.0" standalone="no"?>
    <svg width="256" height="256" xmlns="http://www.w3.org/2000/svg" version="1.1">
    <polyline stroke="black" stroke-width="3" stroke-linecap="round" fill="transparent" stroke-linejoin="round" points="49.2508544921875 92.0556640625 52.5965576171875 104.88093566894533 55.3846435546875 114.9180908203125 58.172760009765625 124.95526123046876 60.40325927734375 132.20433044433594 62.63372802734375 136.10768127441406 63.74896240234375 136.10768127441406 63.74896240234375 136.10768127441406 " />
        <polyline stroke="black" stroke-width="3" stroke-linecap="round" fill="transparent" stroke-linejoin="round" points="63.19134521484375 92.0556640625 70.998046875 87.03707885742188 82.15045166015625 80.90324401855469 99.43667602539063 72.5389404296875 132.8939208984375 62.50177001953125 154.64111328125 59.71366882324219 171.9273681640625 59.15605163574219 185.31024169921875 60.82891845703125 192.001708984375 65.84748840332031 195.347412109375 74.76942443847656 193.674560546875 90.38279724121094 181.4068603515625 109.34188842773438 161.89013671875 128.85861206054688 161.89013671875 128.85861206054688 " />
        <polyline stroke="black" stroke-width="3" stroke-linecap="round" fill="transparent" stroke-linejoin="round" points="122.29913330078124 96.51661682128906 117.838134765625 105.43855285644533 111.704345703125 119.93667602539063 103.34002685546876 140.01101684570313 96.6485595703125 156.1820068359375 91.6300048828125 171.79537963867188 88.28427124023438 185.73590087890625 86.05377197265625 194.1001892089844 86.05377197265625 199.1187744140625 88.84188842773438 201.34927368164065 94.9757080078125 200.23403930664065 106.68572998046876 195.2154541015625 119.51101684570313 189.08160400390625 128.99057006835938 183.50540161132813 138.4700927734375 175.14111328125 138.4700927734375 175.14111328125 " />
        <polyline stroke="black" stroke-width="3" stroke-linecap="round" fill="transparent" stroke-linejoin="round" points="144.04632568359375 145.58721923828125 149.62252807617188 154.5091552734375 154.08349609375 161.20059204101563 160.21728515625 170.12252807617188 166.90875244140625 179.60206604003906 172.4849853515625 190.7544860839844 172.4849853515625 190.7544860839844 " />
        </svg>