<?xml version="1.0" standalone="no"?>
    <svg width="256" height="256" xmlns="http://www.w3.org/2000/svg" version="1.1">
    <polyline stroke="black" stroke-width="3" stroke-linecap="round" fill="transparent" stroke-linejoin="round" points="46.689544677734375 100.41363525390624 61.278411865234375 89.80357360839844 68.79388427734375 86.26687622070313 76.309326171875 82.73019409179688 84.26690673828125 79.63558959960938 101.50827026367188 74.77264404296875 115.655029296875 70.79386901855469 125.38095092773438 67.25717163085938 128.47552490234375 65.930908203125 128.47552490234375 65.930908203125 " />
        <polyline stroke="black" stroke-width="3" stroke-linecap="round" fill="transparent" stroke-linejoin="round" points="113.444580078125 32.332366943359375 95.31906127929688 69.46760559082031 88.24566650390625 83.17228698730469 63.930908203125 126.49673461914063 52.878753662109375 143.2960205078125 49.342041015625 147.71688842773438 49.342041015625 147.71688842773438 " />
        <polyline stroke="black" stroke-width="3" stroke-linecap="round" fill="transparent" stroke-linejoin="round" points="52.43670654296875 117.65501403808594 67.90966796875 121.6337890625 74.98309326171875 122.96005249023438 81.61434936523438 124.28630065917967 88.687744140625 125.612548828125 101.50827026367188 127.822998046875 106.81332397460938 128.70718383789063 106.81332397460938 128.70718383789063 " />
        <polyline stroke="black" stroke-width="3" stroke-linecap="round" fill="transparent" stroke-linejoin="round" points="80.73019409179688 152.579833984375 72.77264404296875 169.82119750976563 70.56222534179688 174.24205017089844 61.278411865234375 186.17840576171875 57.299652099609375 189.715087890625 50.22625732421875 195.904296875 45.36328125 199.883056640625 42.710784912109375 202.53558349609375 43.594940185546875 202.9776611328125 52.878753662109375 201.65139770507813 72.77264404296875 197.23052978515625 94.43487548828124 192.3675842285156 113.444580078125 186.6204833984375 122.28631591796876 182.6416931152344 122.28631591796876 182.6416931152344 " />
        <polyline stroke="black" stroke-width="3" stroke-linecap="round" fill="transparent" stroke-linejoin="round" points="137.75933837890625 84.94062805175781 135.10678100585938 95.55068969726563 134.66473388671875 95.99278259277344 134.66473388671875 95.10861206054688 135.54891967773438 93.7823486328125 140.85394287109375 88.03523254394531 150.13775634765625 78.309326171875 162.958251953125 68.141357421875 175.336669921875 60.18379211425781 185.94671630859375 55.76293182373047 193.0201416015625 53.994590759277344 196.55682373046875 53.994590759277344 197.44097900390625 54.878753662109375 196.11474609375 58.8575439453125 189.925537109375 65.930908203125 179.3154296875 74.33056640625 167.82122802734375 82.28811645507813 158.9794921875 87.15106201171875 153.6744384765625 90.24566650390624 150.579833984375 91.57192993164063 149.69564819335938 91.57192993164063 150.13775634765625 91.57192993164063 154.55859375 90.687744140625 162.958251953125 88.47732543945313 166.93701171875 87.5931396484375 174.01043701171875 86.26687622070313 174.01043701171875 86.26687622070313 " />
        <polyline stroke="black" stroke-width="3" stroke-linecap="round" fill="transparent" stroke-linejoin="round" points="121.40216064453124 131.35971069335938 131.57012939453125 124.7283935546875 136.87518310546875 121.1916961669922 142.18017578125 117.65501403808594 160.3057861328125 109.69744873046876 171.35791015625 107.04495239257813 175.336669921875 106.60284423828124 178.87335205078125 106.60284423828124 183.294189453125 107.92910766601563 184.6204833984375 111.02371215820313 181.96795654296875 118.09710693359376 174.01043701171875 126.05467224121094 162.51617431640625 134.01220703125 152.790283203125 139.7593231201172 146.60107421875 143.2960205078125 143.06439208984375 145.50645446777344 141.73812866210938 145.94854736328125 143.50643920898438 145.94854736328125 150.579833984375 145.06436157226563 162.51617431640625 142.8539276123047 179.75750732421875 136.22264099121094 184.17840576171875 133.12803649902344 189.925537109375 127.822998046875 189.925537109375 127.822998046875 " />
        <polyline stroke="black" stroke-width="3" stroke-linecap="round" fill="transparent" stroke-linejoin="round" points="159.42156982421875 28.353591918945313 155.44281005859375 48.689544677734375 155.000732421875 58.8575439453125 155.000732421875 71.2359619140625 157.6531982421875 107.04495239257813 160.3057861328125 128.26507568359375 162.51617431640625 145.06436157226563 163.40032958984375 158.3269500732422 162.0740966796875 169.82119750976563 162.0740966796875 169.82119750976563 " />
        <polyline stroke="black" stroke-width="3" stroke-linecap="round" fill="transparent" stroke-linejoin="round" points="119.19171142578124 199.44097900390625 131.57012939453125 196.34637451171875 138.201416015625 195.0201110839844 145.71688842773438 193.25177001953125 161.63201904296875 189.715087890625 183.294189453125 184.85211181640625 192.57806396484375 181.3154296875 195.672607421875 179.54708862304688 195.672607421875 179.54708862304688 " />
        <polyline stroke="black" stroke-width="3" stroke-linecap="round" fill="transparent" stroke-linejoin="round" points="171.79998779296875 160.09530639648438 158.0953369140625 173.7999725341797 152.34814453125 180.43125915527344 135.990966796875 202.9776611328125 128.033447265625 214.471923828125 122.28631591796876 222.429443359375 119.19171142578124 226.850341796875 118.74960327148438 227.7344970703125 119.19171142578124 227.7344970703125 130.24386596679688 221.10321044921875 141.2960205078125 216.240234375 154.55859375 212.70355224609375 169.1474609375 212.261474609375 184.6204833984375 214.471923828125 198.76727294921875 218.00860595703125 209.81939697265625 222.87155151367188 214.682373046875 225.96615600585935 214.682373046875 225.96615600585935 " />
        </svg>