<?xml version="1.0" standalone="no"?>
    <svg width="256" height="256" xmlns="http://www.w3.org/2000/svg" version="1.1">
    <polyline stroke="black" stroke-width="3" stroke-linecap="round" fill="transparent" stroke-linejoin="round" points="60.154541015625 108.5029754638672 86.17672729492188 100.24197387695313 93.19857788085938 98.17672729492188 100.22042846679688 96.52450561523438 113.85107421875 92.80705261230467 124.59042358398438 90.7418212890625 131.61224365234375 89.089599609375 135.32968139648438 86.61129760742188 135.74276733398438 82.89385986328125 134.50360107421875 78.76335144042969 133.264404296875 76.69808959960938 130.37310791015625 72.56759643554688 127.48175048828124 71.32844543457031 122.525146484375 74.21978759765625 110.54669189453124 91.56790161132813 95.26385498046876 120.068359375 83.69842529296875 139.894775390625 75.02438354492188 149.3949432373047 75.02438354492188 149.3949432373047 " />
        <polyline stroke="black" stroke-width="3" stroke-linecap="round" fill="transparent" stroke-linejoin="round" points="65.937255859375 128.32937622070313 78.3287353515625 129.15548706054688 84.93759155273438 130.39463806152344 92.37249755859376 131.22073364257813 99.807373046875 132.04684448242188 119.6337890625 133.69903564453125 128.30783081054688 134.93817138671875 133.264404296875 136.17733764648438 133.264404296875 136.17733764648438 " />
        <polyline stroke="black" stroke-width="3" stroke-linecap="round" fill="transparent" stroke-linejoin="round" points="98.15521240234376 142.7861328125 96.916015625 156.4167938232422 92.78549194335938 179.1345672607422 89.8941650390625 188.2216796875 82.872314453125 203.09149169921875 75.43743896484375 213.83078002929688 70.0677490234375 219.61349487304688 65.937255859375 222.50482177734375 63.87200927734375 223.3309326171875 63.0458984375 223.74398803710935 63.458953857421875 223.74398803710935 68.82861328125 224.983154296875 81.22015380859375 224.983154296875 98.56820678710938 221.26568603515625 114.26412963867188 216.30908203125 127.48175048828124 209.7002868652344 132.85140991210938 205.98284912109375 132.85140991210938 205.98284912109375 " />
        <polyline stroke="black" stroke-width="3" stroke-linecap="round" fill="transparent" stroke-linejoin="round" points="152.2647705078125 87.43740844726563 149.78646850585938 99.41587829589844 148.54730224609375 102.30722045898438 147.30816650390625 104.78550720214844 144.829833984375 108.08993530273438 143.17767333984375 109.32908630371094 142.3515625 108.916015625 141.9384765625 107.26382446289063 146.06903076171875 100.24197387695313 154.33001708984375 89.91571044921875 166.7215576171875 78.76335144042969 179.52606201171875 68.43708801269531 191.5045166015625 61.00218200683594 200.1785888671875 57.28472900390625 204.72216796875 56.45863342285156 206.3743896484375 57.697784423828125 205.13519287109375 63.89353942871094 198.11334228515625 75.87199401855469 186.9609375 88.26351928710938 174.5694580078125 99.41587829589844 164.24322509765625 106.85076904296876 157.6343994140625 110.98126220703124 154.7430419921875 112.22042846679688 154.33001708984375 111.807373046875 156.395263671875 110.15518188476563 165.0693359375 106.024658203125 175.80859375 100.65501403808594 183.6566162109375 96.93757629394533 188.6131591796875 94.872314453125 191.09149169921875 94.872314453125 191.09149169921875 94.872314453125 " />
        <polyline stroke="black" stroke-width="3" stroke-linecap="round" fill="transparent" stroke-linejoin="round" points="153.0908203125 141.54698181152344 165.0693359375 129.5685272216797 174.9825439453125 121.7205810546875 182.41741943359375 116.76397705078124 187.3740234375 114.2856903076172 189.4393310546875 114.69871520996094 189.852294921875 118.41616821289063 188.6131591796875 122.13363647460938 180.7652587890625 133.28598022460938 165.89544677734375 147.74273681640625 159.28662109375 152.6993408203125 156.80828857421875 154.35154724121094 156.395263671875 153.93850708007813 157.6343994140625 153.5254364013672 171.6781005859375 146.5035858154297 181.17828369140625 141.13394165039063 189.4393310546875 135.3512420654297 194.8089599609375 129.9815673828125 197.7003173828125 125.4380340576172 197.7003173828125 125.4380340576172 " />
        <polyline stroke="black" stroke-width="3" stroke-linecap="round" fill="transparent" stroke-linejoin="round" points="170.43896484375 56.87168884277344 170.43896484375 73.39369201660156 170.43896484375 82.48080444335938 169.6129150390625 101.48110961914063 169.1998291015625 120.068359375 169.1998291015625 147.74273681640625 168.78680419921875 164.67779541015625 167.960693359375 173.3518524169922 167.960693359375 173.3518524169922 " />
        <polyline stroke="black" stroke-width="3" stroke-linecap="round" fill="transparent" stroke-linejoin="round" points="141.52545166015625 218.37432861328125 149.37338256835938 207.22198486328125 154.33001708984375 202.265380859375 160.5257568359375 196.89572143554688 173.330322265625 186.9825134277344 184.482666015625 179.1345672607422 193.56976318359375 172.5257568359375 198.939453125 167.98220825195313 201.417724609375 165.09085083007813 201.830810546875 163.85171508789063 199.76556396484375 163.85171508789063 191.9176025390625 169.2213592529297 186.1348876953125 173.764892578125 171.26507568359375 191.52606201171875 152.6778564453125 218.78738403320313 146.89511108398438 229.1136474609375 145.242919921875 232.0050048828125 144.00375366210938 234.4833068847656 144.00375366210938 234.07025146484375 146.89511108398438 229.93975830078125 153.9169921875 219.61349487304688 161.35186767578125 211.35247802734375 176.63470458984375 203.9175720214844 183.2435302734375 203.5045166015625 202.24383544921875 206.80892944335935 208.02655029296875 209.2872314453125 219.17889404296875 216.72213745117188 219.17889404296875 216.72213745117188 " />
        </svg>