<?xml version="1.0" standalone="no"?>
    <svg width="256" height="256" xmlns="http://www.w3.org/2000/svg" version="1.1">
    <polyline stroke="black" stroke-width="3" stroke-linecap="round" fill="transparent" stroke-linejoin="round" points="54.3333740234375 93.06668090820313 83.1334228515625 79.20002746582031 95.93341064453124 74.93333435058594 102.3333740234375 72.80000305175781 107.666748046875 70.66667175292969 107.666748046875 70.66667175292969 " />
        <polyline stroke="black" stroke-width="3" stroke-linecap="round" fill="transparent" stroke-linejoin="round" points="88.466796875 54.66667175292969 84.2000732421875 88.80000305175781 77.80010986328125 111.20002746582033 68.2000732421875 131.4666748046875 59.66668701171875 146.40003967285156 55.4000244140625 154.93336486816406 53.2667236328125 156.00001525878906 52.2000732421875 154.93336486816406 52.2000732421875 154.93336486816406 " />
        <polyline stroke="black" stroke-width="3" stroke-linecap="round" fill="transparent" stroke-linejoin="round" points="67.1334228515625 103.73333740234376 87.4000244140625 110.1333465576172 110.86669921875 115.4666748046875 131.1334228515625 117.60000610351563 138.60009765625 118.66667175292967 140.7333984375 120.8000030517578 140.7333984375 120.8000030517578 " />
        <polyline stroke="black" stroke-width="3" stroke-linecap="round" fill="transparent" stroke-linejoin="round" points="87.4000244140625 137.86668395996094 91.666748046875 160.26669311523438 92.7333984375 167.73338317871094 91.666748046875 173.06671142578125 87.4000244140625 178.40003967285156 87.4000244140625 178.40003967285156 " />
        <polyline stroke="black" stroke-width="3" stroke-linecap="round" fill="transparent" stroke-linejoin="round" points="61.80010986328125 207.20001220703125 90.60003662109376 180.53335571289065 115.1334228515625 165.6000213623047 133.2667236328125 156.00001525878906 143.933349609375 147.4666748046875 143.933349609375 147.4666748046875 " />
        <polyline stroke="black" stroke-width="3" stroke-linecap="round" fill="transparent" stroke-linejoin="round" points="141.8001708984375 65.33334350585938 169.533447265625 48.26667022705078 174.86669921875 47.20001983642578 191.933349609375 46.13334655761719 198.3333740234375 47.20001983642578 199.4000244140625 50.40000915527344 188.7333984375 62.13334655761719 177 71.73333740234375 167.4000244140625 79.20002746582031 161 82.40000915527344 159.933349609375 83.4666748046875 164.2000732421875 80.26667785644531 172.7333984375 76.00001525878906 181.2667236328125 72.80000305175781 188.7333984375 71.73333740234375 189.8001708984375 71.73333740234375 189.8001708984375 71.73333740234375 " />
        <polyline stroke="black" stroke-width="3" stroke-linecap="round" fill="transparent" stroke-linejoin="round" points="140.7333984375 106.933349609375 159.933349609375 96.26667785644533 171.666748046875 92.00001525878906 183.4000244140625 87.73333740234375 191.933349609375 86.66667175292969 195.1334228515625 88.80000305175781 191.933349609375 94.1333465576172 183.4000244140625 101.60000610351563 174.86669921875 108.00001525878906 169.533447265625 111.20002746582033 167.4000244140625 111.20002746582033 170.60009765625 108.00001525878906 177 102.66667175292967 184.466796875 97.33334350585938 189.8001708984375 86.66667175292969 189.8001708984375 86.66667175292969 " />
        <polyline stroke="black" stroke-width="3" stroke-linecap="round" fill="transparent" stroke-linejoin="round" points="167.4000244140625 40.800010681152344 169.533447265625 73.86668395996094 170.60009765625 88.80000305175781 170.60009765625 116.53335571289063 170.60009765625 135.73338317871094 170.60009765625 145.33334350585938 170.60009765625 150.6666717529297 170.60009765625 153.86668395996094 170.60009765625 153.86668395996094 " />
        <polyline stroke="black" stroke-width="3" stroke-linecap="round" fill="transparent" stroke-linejoin="round" points="131.1334228515625 186.933349609375 179.1334228515625 162.40003967285156 194.0667724609375 158.1333465576172 199.4000244140625 157.06671142578125 201.533447265625 156.00001525878906 201.533447265625 156.00001525878906 " />
        <polyline stroke="black" stroke-width="3" stroke-linecap="round" fill="transparent" stroke-linejoin="round" points="158.86669921875 124.00001525878906 156.7333984375 145.33334350585938 155.666748046875 157.06671142578125 154.60009765625 168.80001831054688 145 201.86666870117188 139.666748046875 213.6000061035156 136.466796875 217.86666870117188 133.2667236328125 213.6000061035156 133.2667236328125 213.6000061035156 " />
        <polyline stroke="black" stroke-width="3" stroke-linecap="round" fill="transparent" stroke-linejoin="round" points="158.86669921875 172.00001525878906 189.8001708984375 202.933349609375 207.933349609375 216.80001831054688 225 227.4666748046875 237.800048828125 238.13336181640625 237.800048828125 238.13336181640625 " />
        </svg>