<?xml version="1.0" standalone="no"?>
    <svg width="256" height="256" xmlns="http://www.w3.org/2000/svg" version="1.1">
    <polyline stroke="black" stroke-width="3" stroke-linecap="round" fill="transparent" stroke-linejoin="round" points="76.299072265625 106.71264648437503 85.14697265625 105.98431396484376 93.994873046875 105.2559814453125 103.77325439453124 104.86309814453124 125.7279052734375 104.6233367919922 135.69931030273438 104.89085388183594 146.243408203125 105.10606384277344 166.56671142578125 105.3225555419922 174.693359375 105.89347839355467 182.42822265625 105.9951171875 182.7093505859375 105.9915771484375 182.7138671875 105.99154663085938 182.71563720703125 105.9915008544922 182.71661376953125 105.9915008544922 " />
        <polyline stroke="black" stroke-width="3" stroke-linecap="round" fill="transparent" stroke-linejoin="round" points="112.37258911132815 41.98304748535156 117.43841552734376 66.47076416015625 122.50424194335938 90.95848083496094 124.38714599609376 104.83151245117188 127.01983642578124 129.55914306640625 127.29351806640624 141.39462280273438 127.44140625 152.49986267089844 126.78427124023438 170.14822387695313 126.37744140625 184.38150024414065 125.80279541015624 190.69378662109375 122.27096557617188 202.389892578125 122.0423583984375 202.814697265625 122.02694702148438 202.8433837890625 " />
        <polyline stroke="black" stroke-width="3" stroke-linecap="round" fill="transparent" stroke-linejoin="round" points="94.62060546874997 194.37115478515625 104.38507080078124 195.0655517578125 114.1495361328125 195.75994873046875 133.4022216796875 195.48599243164065 142.23358154296875 194.79400634765625 156.18829345703125 193.3011779785156 162.3701171875 193.16351318359375 170.2559814453125 193.3668212890625 172.60986328125 193.967529296875 174.5406494140625 196.93209838867188 174.05682373046875 197.48904418945313 " />
        </svg>