<?xml version="1.0" standalone="no"?>
    <svg width="256" height="256" xmlns="http://www.w3.org/2000/svg" version="1.1">
    <polyline stroke="black" stroke-width="3" stroke-linecap="round" fill="transparent" stroke-linejoin="round" points="19.705047607421875 119.75627136230467 19.705047607421875 122.1334228515625 19.705047607421875 124.51057434082033 19.705047607421875 128.0762939453125 20.101226806640625 134.8115234375 20.4974365234375 137.58486938476563 20.4974365234375 137.58486938476563 " />
        <polyline stroke="black" stroke-width="3" stroke-linecap="round" fill="transparent" stroke-linejoin="round" points="31.5908203125 94.00389099121094 44.665069580078125 86.080078125 57.73931884765625 78.15626525878906 70.41744995117188 71.81723022460938 80.32220458984375 68.25151062011719 88.24603271484375 67.06292724609375 95.77365112304688 68.64768981933594 101.3203125 73.4019775390625 104.0936279296875 82.51435852050781 104.0936279296875 96.7772216796875 102.11270141601563 112.62484741210938 99.735595703125 126.88771057128906 97.75460815429688 136.00010681152344 97.75460815429688 137.18865966796875 97.75460815429688 137.18865966796875 " />
        <polyline stroke="black" stroke-width="3" stroke-linecap="round" fill="transparent" stroke-linejoin="round" points="64.47457885742188 69.4400634765625 62.493621826171875 100.7391357421875 60.512664794921875 132.0382080078125 59.3240966796875 165.31822204589844 60.512664794921875 196.2210693359375 63.2860107421875 223.16204833984375 67.64410400390625 240.1982421875 67.64410400390625 240.1982421875 " />
        <polyline stroke="black" stroke-width="3" stroke-linecap="round" fill="transparent" stroke-linejoin="round" points="139.3546142578125 92.02294921875 161.9375 86.080078125 184.5203857421875 80.13720703125 200.76416015625 78.15626525878906 207.10321044921875 77.76005554199219 207.10321044921875 77.76005554199219 " />
        <polyline stroke="black" stroke-width="3" stroke-linecap="round" fill="transparent" stroke-linejoin="round" points="95.773681640625 147.8858184814453 132.61941528320313 140.75439453125 169.46514892578125 133.6229705810547 202.7451171875 128.86866760253906 224.93182373046875 126.0953369140625 224.93182373046875 126.0953369140625 " />
        <polyline stroke="black" stroke-width="3" stroke-linecap="round" fill="transparent" stroke-linejoin="round" points="166.69183349609375 42.1029052734375 165.50323486328125 74.98674011230469 164.31463623046875 107.87057495117188 165.10699462890625 145.50869750976563 165.10699462890625 187.90109252929688 163.91845703125 231.4820556640625 163.91845703125 254.46112060546875 163.91845703125 254.46112060546875 " />
        </svg>