<?xml version="1.0" standalone="no"?>
    <svg width="256" height="256" xmlns="http://www.w3.org/2000/svg" version="1.1">
    <polyline stroke="black" stroke-width="3" stroke-linecap="round" fill="transparent" stroke-linejoin="round" points="41.681732177734375 127.6204833984375 44.195648193359375 137.80160522460938 46.709564208984375 147.98272705078125 49.163055419921875 160.49851989746094 49.781951904296875 163.78421020507813 " />
        <polyline stroke="black" stroke-width="3" stroke-linecap="round" fill="transparent" stroke-linejoin="round" points="45.86572265625 114.9828643798828 61.9532470703125 108.8287353515625 78.040771484375 102.6746063232422 88.25643920898438 100.31838989257813 107.00717163085938 100.4033203125 114.2353515625 102.87028503417967 122.80856323242188 116.48016357421876 124.50189208984376 131.171875 122.04217529296876 154.1724853515625 119.26473999023438 160.11322021484375 113.117919921875 162.36322021484375 109.07504272460938 161.03558349609375 103.5242919921875 155.87913513183594 103.1278076171875 155.51083374023438 " />
        <polyline stroke="black" stroke-width="3" stroke-linecap="round" fill="transparent" stroke-linejoin="round" points="75.94683837890625 57.541259765625 79.51583862304688 79.24433898925781 83.0848388671875 100.94741821289063 85.341796875 123.82058715820313 89.10150146484375 174.57688903808594 89.54693603515625 195.17428588867188 89.43637084960938 228.2816467285156 88.41317749023438 230.00418090820313 " />
        <polyline stroke="black" stroke-width="3" stroke-linecap="round" fill="transparent" stroke-linejoin="round" points="129.63046264648438 114.26739501953125 134.64120483398438 112.90023803710938 139.65194702148438 111.5330810546875 162.44189453125 107.71096801757813 180.04486083984375 106.62005615234376 188.80810546875 106.92807006835938 199.0758056640625 108.63690185546876 199.2681884765625 108.7459716796875 " />
        <polyline stroke="black" stroke-width="3" stroke-linecap="round" fill="transparent" stroke-linejoin="round" points="136.669189453125 142.77947998046875 155.46246337890625 136.8762664794922 174.2557373046875 130.97305297851563 183.89447021484375 128.5350799560547 205.2392578125 125.54336547851563 211.441650390625 125.73844909667967 211.96063232421875 125.78257751464844 212.0125732421875 125.7869873046875 " />
        <polyline stroke="black" stroke-width="3" stroke-linecap="round" fill="transparent" stroke-linejoin="round" points="172.794189453125 70.74975585937497 174.66400146484375 91.6789093017578 176.5338134765625 112.60806274414063 179.8853759765625 163.22503662109375 181.3465576171875 190.6556701660156 181.35186767578125 225.3634033203125 180.0426025390625 234.99334716796875 179.03900146484375 237.27972412109375 " />
        </svg>