<?xml version="1.0" standalone="no"?>
    <svg width="256" height="256" xmlns="http://www.w3.org/2000/svg" version="1.1">
    <polyline stroke="black" stroke-width="3" stroke-linecap="round" fill="transparent" stroke-linejoin="round" points="68.396484375 104.43801879882815 67.3958740234375 112.77630615234376 66.395263671875 121.11459350585938 65.0611572265625 134.12229919433594 64.39410400390625 138.45819091796875 64.060546875 143.46116638183594 64.060546875 145.79588317871094 64.060546875 146.12942504882813 64.060546875 145.1288299560547 65.39471435546875 140.1258544921875 70.39764404296875 127.7852020263672 78.40240478515625 113.10983276367188 87.07421875 101.43624877929688 96.4130859375 92.76443481445313 105.41845703125 86.42733764648438 113.42318725585938 83.42556762695313 120.09381103515624 84.42616271972656 126.09738159179688 93.09796142578124 130.43328857421875 117.11221313476563 128.765625 135.12289428710938 124.42974853515624 145.79588317871094 122.094970703125 149.13121032714844 116.75848388671876 152.46652221679688 116.75848388671876 152.46652221679688 " />
        <polyline stroke="black" stroke-width="3" stroke-linecap="round" fill="transparent" stroke-linejoin="round" points="89.40896606445313 51.40657043457031 88.74188232421875 71.41844177246094 88.07479858398438 91.43031311035156 86.74069213867188 113.10983276367188 84.40597534179688 133.1217041015625 76.7347412109375 196.15911865234375 76.40121459960938 210.16741943359375 77.7353515625 216.83807373046875 77.7353515625 216.83807373046875 " />
        <polyline stroke="black" stroke-width="3" stroke-linecap="round" fill="transparent" stroke-linejoin="round" points="143.77447509765625 97.76742553710938 149.778076171875 94.765625 155.78167724609375 91.76382446289063 162.1187744140625 89.42912292480469 167.78875732421875 87.09439086914063 178.1282958984375 84.42616271972656 186.13299560546875 83.42556762695313 193.13714599609375 83.09202575683594 195.47186279296875 83.09202575683594 195.47186279296875 83.09202575683594 " />
        <polyline stroke="black" stroke-width="3" stroke-linecap="round" fill="transparent" stroke-linejoin="round" points="134.10211181640625 162.80596923828125 142.77392578125 160.80479431152344 151.44573974609375 158.80361938476563 159.116943359375 156.46890258789063 166.12109375 154.4676971435547 172.12469482421875 152.46652221679688 183.79827880859375 147.4635467529297 190.46893310546875 143.12765502929688 190.46893310546875 143.12765502929688 " />
        <polyline stroke="black" stroke-width="3" stroke-linecap="round" fill="transparent" stroke-linejoin="round" points="164.7869873046875 46.737091064453125 164.7869873046875 56.07598876953125 164.7869873046875 65.41488647460938 165.12054443359375 75.75433349609375 167.1217041015625 98.76799011230467 170.79052734375 124.11636352539063 173.7923583984375 149.13121032714844 174.45941162109375 160.80479431152344 173.125244140625 191.1561279296875 173.125244140625 191.1561279296875 " />
        </svg>