<?xml version="1.0" standalone="no"?>
    <svg width="256" height="256" xmlns="http://www.w3.org/2000/svg" version="1.1">
    <polyline stroke="black" stroke-width="3" stroke-linecap="round" fill="transparent" stroke-linejoin="round" points="73.71923828125 78.65731811523438 67.74044799804688 91.89607238769533 65.1781005859375 99.1560516357422 61.334564208984375 114.53009033203124 58.345184326171875 128.6229705810547 57.491058349609375 133.32058715820313 55.7828369140625 139.29937744140625 54.501678466796875 141.43467712402344 53.647552490234375 140.15350341796875 54.07464599609375 134.60174560546875 57.06402587890625 125.20651245117188 61.76165771484375 115.38420104980467 68.16748046875 105.98893737792967 75.42745971679688 97.44781494140624 84.82272338867188 88.4796142578125 94.21795654296876 80.36553955078125 103.61322021484376 73.10557556152344 112.58139038085938 67.98089599609375 119.84136962890624 66.27267456054688 124.966064453125 67.98089599609375 127.101318359375 70.54324340820313 133.93426513671875 93.17724609375 133.50717163085938 115.38420104980467 128.8095703125 136.73703002929688 122.83074951171876 151.68402099609375 117.27902221679688 159.798095703125 113.00848388671876 162.36044311523438 113.00848388671876 162.36044311523438 " />
        <polyline stroke="black" stroke-width="3" stroke-linecap="round" fill="transparent" stroke-linejoin="round" points="89.9473876953125 31.681076049804688 92.08270263671876 52.60685729980469 93.36386108398438 67.12678527832031 94.64501953125 83.35493469238281 96.353271484375 119.22770690917967 97.20736694335938 156.3816375732422 97.63446044921876 186.275634765625 98.91561889648438 202.5037841796875 100.623779296875 208.90963745117188 100.623779296875 208.90963745117188 " />
        <polyline stroke="black" stroke-width="3" stroke-linecap="round" fill="transparent" stroke-linejoin="round" points="151.87060546875 90.18785095214844 165.9635009765625 85.06317138671875 172.79638671875 83.35493469238281 179.62933349609375 82.07376098632813 192.86810302734375 80.36553955078125 198.84686279296875 79.9384765625 209.9503173828125 79.51142883300781 211.6585693359375 79.51142883300781 211.6585693359375 79.51142883300781 " />
        <polyline stroke="black" stroke-width="3" stroke-linecap="round" fill="transparent" stroke-linejoin="round" points="144.61065673828125 138.0181884765625 162.97412109375 137.16409301757813 183.47283935546875 135.4558563232422 190.7327880859375 134.60174560546875 205.252685546875 132.03941345214844 218.491455078125 127.7688446044922 227.0325927734375 121.36297607421876 230.8760986328125 115.38420104980467 230.8760986328125 115.38420104980467 " />
        <polyline stroke="black" stroke-width="3" stroke-linecap="round" fill="transparent" stroke-linejoin="round" points="182.61871337890625 45.346885681152344 185.60809326171875 83.78199768066406 186.03515625 99.58309936523438 186.46221923828125 131.6123504638672 186.46221923828125 159.37103271484375 186.8892822265625 180.723876953125 187.31634521484375 195.67086791992188 187.31634521484375 195.67086791992188 " />
        </svg>