<?xml version="1.0" standalone="no"?>
    <svg width="256" height="256" xmlns="http://www.w3.org/2000/svg" version="1.1">
    <polyline stroke="black" stroke-width="3" stroke-linecap="round" fill="transparent" stroke-linejoin="round" points="139.46673583984375 77.40000915527344 129.86672973632813 85.40000915527344 122.4000244140625 90.7333526611328 114.4000244140625 95.53335571289063 106.4000244140625 99.26667785644533 97.33334350585938 102.4666748046875 94.13336181640624 102.7333526611328 93.60003662109376 101.93336486816406 94.13336181640624 100.86666870117188 94.13336181640624 100.86666870117188 " />
        <polyline stroke="black" stroke-width="3" stroke-linecap="round" fill="transparent" stroke-linejoin="round" points="98.4000244140625 72.06668090820313 99.20001220703124 64.60000610351563 99.20001220703124 63.80000305175781 99.20001220703124 65.40000915527344 98.4000244140625 68.33334350585938 95.46673583984376 82.20001220703125 93.33334350585938 93.40000915527344 91.20001220703124 104.60000610351563 90.66671752929688 114.20001220703124 92.53335571289063 121.40000915527344 102.933349609375 126.7333526611328 113.06671142578124 126.7333526611328 124.53335571289063 124.60000610351563 135.73333740234375 121.40000915527344 148 117.93336486816406 150.666748046875 117.13336181640624 152.2667236328125 116.60000610351563 152.2667236328125 116.60000610351563 " />
        <polyline stroke="black" stroke-width="3" stroke-linecap="round" fill="transparent" stroke-linejoin="round" points="108.2667236328125 151.00001525878906 105.60003662109376 157.93336486816406 101.60003662109376 166.73336791992188 94.4000244140625 179.2666778564453 92.2667236328125 183 92.2667236328125 183.2666931152344 93.06671142578124 182.20001220703125 93.06671142578124 182.20001220703125 " />
        <polyline stroke="black" stroke-width="3" stroke-linecap="round" fill="transparent" stroke-linejoin="round" points="148.2667236328125 152.60000610351563 153.3333740234375 158.73336791992188 155.73333740234375 161.93336486816406 162.933349609375 169.93336486816406 172.2667236328125 178.73336791992188 185.86669921875 189.4000244140625 187.4666748046875 189.933349609375 187.4666748046875 189.933349609375 " />
        </svg>