<?xml version="1.0" standalone="no"?>
    <svg width="256" height="256" xmlns="http://www.w3.org/2000/svg" version="1.1">
    <polyline stroke="black" stroke-width="3" stroke-linecap="round" fill="transparent" stroke-linejoin="round" points="143.628173828125 72.50665283203125 126.63348388671876 88.19410705566406 101.14141845703124 109.11068725585938 97.219482421875 111.72526550292967 84.80029296875 118.9153289794922 76.30291748046875 122.18356323242188 74.34197998046875 122.18356323242188 74.34197998046875 122.18356323242188 " />
        <polyline stroke="black" stroke-width="3" stroke-linecap="round" fill="transparent" stroke-linejoin="round" points="80.87841796875 66.62388610839844 72.38104248046875 88.84774780273438 71.72747802734375 92.76962280273438 74.99566650390625 128.06634521484375 76.30291748046875 131.9882049560547 83.49298095703125 145.7147216796875 96.56585693359376 158.78758239746094 109.63873291015624 164.6703643798828 125.326171875 165.3240203857422 140.3599853515625 160.74851989746094 154.08648681640625 152.90481567382813 162.5838623046875 145.0610809326172 165.85205078125 138.52464294433594 162.5838623046875 133.29551696777344 162.5838623046875 133.29551696777344 " />
        <polyline stroke="black" stroke-width="3" stroke-linecap="round" fill="transparent" stroke-linejoin="round" points="61.92279052734375 181.6651153564453 54.07904052734375 199.3134765625 53.4254150390625 201.2744140625 50.81085205078125 213.69363403320313 50.15716552734375 216.3081970214844 50.81085205078125 221.53738403320313 55.38641357421875 224.1519470214844 59.3082275390625 224.1519470214844 59.3082275390625 224.1519470214844 " />
        <polyline stroke="black" stroke-width="3" stroke-linecap="round" fill="transparent" stroke-linejoin="round" points="129.24798583984375 188.2015380859375 148.85736083984375 194.73797607421875 151.47186279296875 196.69891357421875 165.19842529296875 214.3472595214844 169.12030029296875 222.1910095214844 176.31036376953125 237.87844848632813 181.53948974609375 243.76123046875 181.53948974609375 243.76123046875 " />
        </svg>