<?xml version="1.0" standalone="no"?>
    <svg width="256" height="256" xmlns="http://www.w3.org/2000/svg" version="1.1">
    <polyline stroke="black" stroke-width="3" stroke-linecap="round" fill="transparent" stroke-linejoin="round" points="74.85055541992188 100.3128662109375 95.41845703125 97.74188232421876 117.01470947265624 92.5998992919922 131.92645263671875 86.9437255859375 146.83816528320313 80.77336120605469 155.57952880859375 76.14558410644531 158.6646728515625 72.54620361328125 158.6646728515625 72.54620361328125 " />
        <polyline stroke="black" stroke-width="3" stroke-linecap="round" fill="transparent" stroke-linejoin="round" points="78.44992065429688 69.9752197265625 74.33636474609375 78.71658325195313 70.2227783203125 97.22767639160156 68.68017578125 114.71038818359376 69.70855712890625 129.10791015625 74.85055541992188 139.391845703125 85.648681640625 145.5622100830078 102.6171875 146.59060668945313 126.78448486328124 141.44863891601563 144.26715087890625 135.79246520996094 160.207275390625 128.0795135498047 168.9486083984375 122.42333984375 172.0338134765625 118.82395935058594 172.0338134765625 118.82395935058594 " />
        <polyline stroke="black" stroke-width="3" stroke-linecap="round" fill="transparent" stroke-linejoin="round" points="85.13449096679688 157.9029541015625 78.964111328125 167.67269897460938 74.33636474609375 177.95664978027344 70.2227783203125 188.7547912597656 67.65179443359375 195.4393615722656 67.1375732421875 200.58132934570313 69.19436645507813 203.15231323242188 73.8221435546875 203.15231323242188 73.8221435546875 203.15231323242188 " />
        <polyline stroke="black" stroke-width="3" stroke-linecap="round" fill="transparent" stroke-linejoin="round" points="136.0400390625 180.5276336669922 146.83816528320313 193.382568359375 154.03692626953125 203.15231323242188 160.207275390625 213.43624877929688 166.377685546875 224.23440551757813 166.377685546875 224.23440551757813 " />
        </svg>