<?xml version="1.0" standalone="no"?>
    <svg width="256" height="256" xmlns="http://www.w3.org/2000/svg" version="1.1">
    <polyline stroke="black" stroke-width="3" stroke-linecap="round" fill="transparent" stroke-linejoin="round" points="65.27117919921875 103.55001831054688 64.05209350585938 118.17918395996094 60.8011474609375 149.46934509277344 57.143890380859375 199.45233154296875 57.143890380859375 210.017822265625 57.143890380859375 212.0496826171875 57.143890380859375 212.0496826171875 " />
        <polyline stroke="black" stroke-width="3" stroke-linecap="round" fill="transparent" stroke-linejoin="round" points="100.2186279296875 51.12882995605469 107.12689208984376 47.877899169921875 115.254150390625 44.626976013183594 123.787841796875 42.18877410888672 142.480712890625 38.53148651123047 151.4207763671875 38.1251220703125 168.48809814453125 40.56331634521485 181.898193359375 47.877899169921875 193.68280029296875 60.88160705566406 205.06103515625 84.04446411132813 211.5628662109375 112.89642333984376 212.3756103515625 141.34202575683594 208.31195068359375 165.72396850585938 200.59100341796875 184.01043701171875 195.3082275390625 191.73138427734375 195.3082275390625 191.73138427734375 " />
        <polyline stroke="black" stroke-width="3" stroke-linecap="round" fill="transparent" stroke-linejoin="round" points="133.947021484375 76.72987365722656 133.54061889648438 83.23171997070313 130.28973388671875 96.6417999267578 118.0987548828125 113.3027801513672 104.28231811523438 123.05557250976563 98.99957275390624 125.49375915527344 91.68499755859376 127.11923217773438 91.27862548828124 125.90013122558594 96.15499877929688 121.43009948730467 111.59689331054688 112.89642333984376 120.94329833984376 108.832763671875 148.1697998046875 97.45452880859376 161.17352294921875 92.17176818847656 163.205322265625 90.95266723632813 160.7672119140625 92.17176818847656 155.07806396484375 96.23542785644533 115.66058349609376 124.274658203125 105.09506225585938 131.99563598632813 88.84042358398438 144.9993133544922 85.18310546875 149.06297302246094 84.7767333984375 150.68844604492188 86.80859375 152.7202606201172 100.625 154.34573364257813 114.44146728515624 151.90753173828125 127.44515991210938 146.62478637695313 133.947021484375 141.74839782714844 133.947021484375 141.74839782714844 " />
        <polyline stroke="black" stroke-width="3" stroke-linecap="round" fill="transparent" stroke-linejoin="round" points="136.79159545898438 104.76910400390624 131.5087890625 113.3027801513672 120.13058471679688 134.84017944335938 114.84783935546876 145.8120574951172 102.65682983398438 171.8194580078125 96.96771240234376 181.9786071777344 93.3104248046875 186.85498046875 91.68499755859376 188.8868408203125 92.09130859375 188.48046875 96.96771240234376 186.4486083984375 102.65682983398438 184.41680908203125 128.66424560546875 178.7276611328125 146.54437255859375 177.91494750976563 160.7672119140625 179.134033203125 170.51995849609375 181.57223510742188 173.364501953125 182.38497924804688 173.364501953125 182.38497924804688 " />
        <polyline stroke="black" stroke-width="3" stroke-linecap="round" fill="transparent" stroke-linejoin="round" points="90.46588134765624 221.3960876464844 98.99957275390624 218.1451416015625 128.25790405273438 210.83056640625 152.2335205078125 207.17327880859375 152.2335205078125 207.17327880859375 " />
        </svg>