<?xml version="1.0" standalone="no"?>
    <svg width="256" height="256" xmlns="http://www.w3.org/2000/svg" version="1.1">
    <polyline stroke="black" stroke-width="3" stroke-linecap="round" fill="transparent" stroke-linejoin="round" points="47.471771240234375 123.82868957519531 72.77902221679688 117.00405883789063 98.08627319335938 110.17942810058594 126.98068237304688 105.78599548339844 150.81625366210938 105.22549438476563 159.40155029296875 104.859375 164.20452880859375 104.6981201171875 166.1402587890625 103.27262878417967 169.801025390625 99.15220642089844 170.109375 98.80511474609376 " />
        <polyline stroke="black" stroke-width="3" stroke-linecap="round" fill="transparent" stroke-linejoin="round" points="114.266357421875 54.66001892089845 116.3458251953125 87.59584045410156 118.42529296875 120.53166198730467 117.55511474609376 135.17922973632813 112.939208984375 157.55552673339844 109.3798828125 164.8490447998047 104.393310546875 171.14791870117188 104.2470703125 171.42507934570313 " />
        <polyline stroke="black" stroke-width="3" stroke-linecap="round" fill="transparent" stroke-linejoin="round" points="71.93832397460938 192.00759887695313 82.27096557617188 191.0855712890625 92.60360717773438 190.16354370117188 103.77816772460938 188.26806640625 127.01055908203124 180.36949157714844 137.24334716796875 174.69566345214844 154.59808349609375 162.94676208496094 161.0238037109375 157.8074188232422 167.44970703125 152.0718994140625 167.6153564453125 151.91172790527344 " />
        <polyline stroke="black" stroke-width="3" stroke-linecap="round" fill="transparent" stroke-linejoin="round" points="155.779541015625 143.7618408203125 162.3909912109375 169.05178833007813 169.00244140625 194.34173583984375 169.72015380859375 198.1382751464844 " />
        </svg>