<?xml version="1.0" standalone="no"?>
    <svg width="256" height="256" xmlns="http://www.w3.org/2000/svg" version="1.1">
    <polyline stroke="black" stroke-width="3" stroke-linecap="round" fill="transparent" stroke-linejoin="round" points="60.4356689453125 122.39682006835938 97.5047607421875 113.12954711914063 108.978515625 110.92301940917967 119.5697021484375 108.71653747558594 139.86944580078125 104.30355834960938 148.69540405273438 101.65574645996094 171.6429443359375 92.82977294921876 175.6146240234375 90.623291015625 175.6146240234375 90.623291015625 " />
        <polyline stroke="black" stroke-width="3" stroke-linecap="round" fill="transparent" stroke-linejoin="round" points="132.36737060546875 72.0887451171875 127.07177734375 87.53419494628906 124.42401123046876 102.0970458984375 121.77621459960938 117.10122680664063 117.36322021484376 143.5791473388672 115.15670776367188 154.61160278320313 109.41986083984376 173.5874481201172 109.41986083984376 173.5874481201172 " />
        <polyline stroke="black" stroke-width="3" stroke-linecap="round" fill="transparent" stroke-linejoin="round" points="56.9052734375 208.00872802734375 85.14840698242188 192.56329345703125 116.4805908203125 177.11782836914063 132.36737060546875 169.61575317382813 145.1650390625 164.32017517089844 165.0234375 156.81809997558594 172.96685791015625 155.0529022216797 187.97100830078125 152.84642028808594 187.97100830078125 152.84642028808594 " />
        <polyline stroke="black" stroke-width="3" stroke-linecap="round" fill="transparent" stroke-linejoin="round" points="174.7320556640625 121.95549011230467 181.7928466796875 136.07705688476563 185.7645263671875 144.46173095703125 190.6187744140625 153.72900390625 200.7686767578125 175.35264587402344 205.6229248046875 187.708984375 210.035888671875 202.2718505859375 210.035888671875 202.2718505859375 " />
        </svg>