<?xml version="1.0" standalone="no"?>
    <svg width="256" height="256" xmlns="http://www.w3.org/2000/svg" version="1.1">
    <polyline stroke="black" stroke-width="3" stroke-linecap="round" fill="transparent" stroke-linejoin="round" points="80.40179443359375 112.66574096679688 89.29159545898438 111.85757446289063 98.181396484375 111.04940795898438 107.87939453125 110.6453094482422 117.57733154296876 109.83714294433594 136.97332763671875 108.22080993652344 146.26718139648438 107.00857543945313 169.7039794921875 101.35140991210938 169.7039794921875 101.35140991210938 " />
        <polyline stroke="black" stroke-width="3" stroke-linecap="round" fill="transparent" stroke-linejoin="round" points="143.03460693359375 59.32681274414064 138.99374389648438 75.08604431152344 134.952880859375 90.84527587890624 126.4671630859375 123.9800262451172 119.19369506835938 151.4576416015625 115.55694580078124 162.77195739746094 106.26303100585938 186.208740234375 106.26303100585938 186.208740234375 " />
        <polyline stroke="black" stroke-width="3" stroke-linecap="round" fill="transparent" stroke-linejoin="round" points="61.005889892578125 215.30267333984375 83.63446044921875 206.0087890625 106.26303100585938 196.71490478515625 116.7691650390625 193.07815551757813 138.185546875 186.208740234375 149.09579467773438 182.97607421875 160.41009521484375 179.74343872070313 170.51214599609375 176.10667419433594 170.51214599609375 176.10667419433594 " />
        <polyline stroke="black" stroke-width="3" stroke-linecap="round" fill="transparent" stroke-linejoin="round" points="178.997802734375 140.95150756835938 181.42236328125 155.90255737304688 183.846923828125 170.85360717773438 186.67547607421875 189.84548950195313 187.8876953125 203.18023681640625 187.8876953125 203.18023681640625 " />
        </svg>