<?xml version="1.0" standalone="no"?>
    <svg width="256" height="256" xmlns="http://www.w3.org/2000/svg" version="1.1">
    <polyline stroke="black" stroke-width="3" stroke-linecap="round" fill="transparent" stroke-linejoin="round" points="77 112 85 112 93 112 108 108 125 105 134 103 150 101 161 100 168 99 168 99 " />
        <polyline stroke="black" stroke-width="3" stroke-linecap="round" fill="transparent" stroke-linejoin="round" points="138 64 138 70 138 76 138 83 138 112 138 123 133 147 131 158 131 158 " />
        <polyline stroke="black" stroke-width="3" stroke-linecap="round" fill="transparent" stroke-linejoin="round" points="45 204 70 193 95 182 116 175 138 168 150 165 168 161 178 159 178 159 " />
        <polyline stroke="black" stroke-width="3" stroke-linecap="round" fill="transparent" stroke-linejoin="round" points="190 147 194 158 198 169 205 188 208 198 208 198 " />
        </svg>