<?xml version="1.0" standalone="no"?>
    <svg width="256" height="256" xmlns="http://www.w3.org/2000/svg" version="1.1">
    <polyline stroke="black" stroke-width="3" stroke-linecap="round" fill="transparent" stroke-linejoin="round" points="99.02835083007813 43.45662689208984 88.7025146484375 71.85273742675781 75.795166015625 100.24884033203124 68.05078125 117.67372131347656 60.951751708984375 132.51715087890625 57.72491455078125 139.6161651611328 57.72491455078125 143.48837280273438 60.951751708984375 143.48837280273438 67.40542602539063 138.325439453125 79.6673583984375 131.22640991210938 95.15615844726563 124.12738037109376 114.51715087890624 117.67372131347656 131.9420166015625 111.22006225585938 148.076171875 105.41177368164063 160.9835205078125 99.6034698486328 168.08251953125 93.79518127441406 168.08251953125 93.79518127441406 " />
        <polyline stroke="black" stroke-width="3" stroke-linecap="round" fill="transparent" stroke-linejoin="round" points="155.1751708984375 68.62590026855469 165.5010986328125 85.40542602539063 171.9547119140625 98.312744140625 177.11767578125 116.38299560546876 177.11767578125 116.38299560546876 " />
        <polyline stroke="black" stroke-width="3" stroke-linecap="round" fill="transparent" stroke-linejoin="round" points="84.1849365234375 153.16885375976563 91.9293212890625 164.14007568359375 96.4468994140625 170.59373474121094 102.25518798828124 175.11129760742188 102.25518798828124 175.11129760742188 " />
        <polyline stroke="black" stroke-width="3" stroke-linecap="round" fill="transparent" stroke-linejoin="round" points="160.9835205078125 133.16250610351563 148.076171875 146.06982421875 135.814208984375 160.26788330078125 120.9708251953125 178.338134765625 103.5458984375 199.63522338867188 89.99322509765625 215.12399291992188 79.02200317382813 226.09521484375 71.9229736328125 230.61279296875 71.9229736328125 230.61279296875 " />
        <polyline stroke="black" stroke-width="3" stroke-linecap="round" fill="transparent" stroke-linejoin="round" points="61.59710693359375 168.6576385498047 74.50445556640625 182.85568237304688 88.05712890625 192.53619384765625 107.41812133789063 203.5074157714844 128.7152099609375 214.4786376953125 151.9483642578125 225.44985961914065 171.309326171875 235.13034057617188 189.379638671875 244.16546630859375 189.379638671875 244.16546630859375 " />
        </svg>