<?xml version="1.0" standalone="no"?>
    <svg width="256" height="256" xmlns="http://www.w3.org/2000/svg" version="1.1">
    <polyline stroke="black" stroke-width="3" stroke-linecap="round" fill="transparent" stroke-linejoin="round" points="110.25985717773438 36.12711334228515 107.58688354492188 44.68067169189453 101.17169189453124 59.6494140625 89.94515991210938 83.706298828125 82.46078491210938 98.14044189453124 76.04559326171875 111.50538635253906 72.8380126953125 118.98974609375 70.69964599609375 122.73193359375 71.76882934570313 122.73193359375 77.11480712890625 118.45515441894533 86.20297241210938 109.90158081054688 100.10250854492188 99.20964050292967 115.07122802734376 89.05227661132813 126.29779052734376 82.10250854492188 135.9205322265625 77.2911376953125 142.87030029296875 75.68733215332031 148.75091552734375 75.68733215332031 154.6314697265625 79.42951965332031 163.7196044921875 87.448486328125 170.66943359375 94.93284606933594 176.015380859375 100.8134307861328 179.22296142578125 107.22859191894533 179.22296142578125 107.22859191894533 " />
        <polyline stroke="black" stroke-width="3" stroke-linecap="round" fill="transparent" stroke-linejoin="round" points="94.75653076171876 147.32342529296875 97.964111328125 160.6883544921875 101.17169189453124 169.77651977539063 105.98309326171876 178.86468505859375 112.39825439453124 185.27984619140625 120.95181274414063 186.88363647460935 120.95181274414063 186.88363647460935 " />
        <polyline stroke="black" stroke-width="3" stroke-linecap="round" fill="transparent" stroke-linejoin="round" points="169.06561279296875 113.64376831054688 164.788818359375 125.40492248535156 156.2352294921875 150.531005859375 144.47412109375 172.4495086669922 131.64376831054688 193.8334045410156 119.3480224609375 210.40594482421875 104.91387939453124 225.37466430664065 89.41055297851563 236.60122680664065 76.5802001953125 241.41259765625 76.5802001953125 241.41259765625 " />
        <polyline stroke="black" stroke-width="3" stroke-linecap="round" fill="transparent" stroke-linejoin="round" points="52.5233154296875 167.10353088378906 65.88824462890625 174.58790588378906 77.11480712890625 181.5376739501953 94.221923828125 191.16043090820313 122.02099609375 206.129150390625 150.35467529296875 219.49411010742188 171.73858642578125 229.6514587402344 190.984130859375 238.7396240234375 206.4874267578125 247.29318237304688 206.4874267578125 247.29318237304688 " />
        </svg>