<?xml version="1.0" standalone="no"?>
    <svg width="256" height="256" xmlns="http://www.w3.org/2000/svg" version="1.1">
    <polyline stroke="black" stroke-width="3" stroke-linecap="round" fill="transparent" stroke-linejoin="round" points="75.53338623046875 63.74211120605469 75.53338623046875 81.55499267578125 75.53338623046875 95.6396026611328 75.53338623046875 121.3232879638672 75.119140625 132.5081024169922 75.119140625 139.96466064453125 74.29061889648438 149.07823181152344 74.29061889648438 151.14950561523438 74.29061889648438 151.14950561523438 " />
        <polyline stroke="black" stroke-width="3" stroke-linecap="round" fill="transparent" stroke-linejoin="round" points="92.9320068359375 73.68418884277344 121.51547241210938 62.499359130859375 138.91412353515625 59.185333251953125 145.12789916992188 58.77107238769531 153.8272705078125 59.599578857421875 160.8695068359375 64.98486328125 164.18353271484375 75.75544738769531 163.35504150390625 95.6396026611328 160.45526123046875 107.23867797851563 150.92742919921875 131.6796112060547 146.37066650390625 141.20742797851563 146.37066650390625 141.20742797851563 " />
        <polyline stroke="black" stroke-width="3" stroke-linecap="round" fill="transparent" stroke-linejoin="round" points="76.776123046875 125.0515594482422 90.0322265625 121.3232879638672 96.66033935546876 119.25201416015624 103.70260620117188 117.18075561523438 110.744873046875 115.10948181152344 123.58676147460938 111.38121032714844 134.35736083984375 108.06719970703124 141.81390380859375 105.16740417480467 147.19915771484375 100.6106414794922 147.19915771484375 100.6106414794922 " />
        <polyline stroke="black" stroke-width="3" stroke-linecap="round" fill="transparent" stroke-linejoin="round" points="126.48651123046876 75.75544738769531 123.1724853515625 86.52603149414063 121.51547241210938 91.4970703125 119.85848999023438 97.29660034179688 115.30169677734376 109.72418212890624 109.50213623046876 120.90902709960938 103.70260620117188 131.26535034179688 97.903076171875 138.30764770507813 93.34628295898438 142.45018005371094 89.61801147460938 145.34996032714844 87.54672241210938 146.59271240234375 87.13250732421875 146.17845153808594 92.51776123046876 143.69293212890625 107.43087768554688 138.72190856933594 123.1724853515625 134.16513061523438 129.800537109375 132.09385681152344 144.29940795898438 129.60833740234375 146.784912109375 129.60833740234375 148.44189453125 129.60833740234375 148.44189453125 129.60833740234375 " />
        <polyline stroke="black" stroke-width="3" stroke-linecap="round" fill="transparent" stroke-linejoin="round" points="42.80743408203125 205.83090209960935 59.79180908203125 196.71734619140625 68.4910888671875 193.81756591796875 78.43319702148438 190.91778564453125 89.2037353515625 188.4322509765625 110.744873046875 184.7039794921875 130.21478271484375 182.21847534179688 146.784912109375 180.9757080078125 160.041015625 180.1472015380859 170.8116455078125 180.1472015380859 182.824951171875 183.87547302246097 182.824951171875 183.87547302246097 " />
        </svg>