<?xml version="1.0" standalone="no"?>
    <svg width="256" height="256" xmlns="http://www.w3.org/2000/svg" version="1.1">
    <polyline stroke="black" stroke-width="3" stroke-linecap="round" fill="transparent" stroke-linejoin="round" points="76.0166015625 41.42743682861328 76.57424926757813 54.810333251953125 77.13186645507813 86.59469604492188 77.68948364257813 103.88093566894533 79.91998291015625 120.05192565917967 81.59283447265625 132.31956481933594 81.59283447265625 138.45339965820313 81.59283447265625 138.45339965820313 " />
        <polyline stroke="black" stroke-width="3" stroke-linecap="round" fill="transparent" stroke-linejoin="round" points="76.57424926757813 70.9813232421875 85.49615478515625 65.40512084960938 96.6485595703125 59.27128601074219 117.280517578125 50.349365234375 139.58535766601563 42.54267883300781 156.87158203125 39.75457763671875 171.9273681640625 40.31219482421875 181.9644775390625 43.10029602050781 187.54071044921875 48.11888122558594 190.328857421875 55.367950439453125 188.65594482421875 73.21180725097656 174.1578369140625 104.43855285644533 152.96826171875 129.53146362304688 152.96826171875 129.53146362304688 " />
        <polyline stroke="black" stroke-width="3" stroke-linecap="round" fill="transparent" stroke-linejoin="round" points="83.82330322265625 95.51661682128906 103.34002685546876 91.61328125 117.280517578125 87.70993041992188 132.3363037109375 83.24897766113281 146.83441162109375 77.67276000976563 157.98681640625 72.0965576171875 164.12066650390625 66.52035522460938 164.12066650390625 66.52035522460938 " />
        <polyline stroke="black" stroke-width="3" stroke-linecap="round" fill="transparent" stroke-linejoin="round" points="137.3548583984375 57.59843444824219 132.3363037109375 76.55752563476563 128.43295288085938 91.61328125 123.41436767578124 107.78427124023438 116.165283203125 122.84002685546876 107.24334716796876 133.992431640625 98.32144165039063 140.12625122070313 89.9571533203125 142.3567352294922 84.93853759765625 142.3567352294922 83.26568603515625 140.12625122070313 86.61138916015625 136.22291564941406 98.32144165039063 129.53146362304688 117.838134765625 122.28240966796876 135.6820068359375 117.82144165039063 150.18014526367188 116.14857482910156 159.65966796875 116.14857482910156 163.00537109375 116.70619201660156 163.00537109375 116.70619201660156 " />
        <polyline stroke="black" stroke-width="3" stroke-linecap="round" fill="transparent" stroke-linejoin="round" points="26.388397216796875 183.06304931640625 48.1356201171875 177.48683166503906 73.7861328125 173.58348083496094 102.78240966796876 170.79537963867188 137.3548583984375 170.23776245117188 158.54443359375 170.23776245117188 176.3883056640625 170.23776245117188 189.21356201171875 170.79537963867188 195.347412109375 170.79537963867188 197.577880859375 171.91062927246094 197.577880859375 171.91062927246094 " />
        </svg>