<?xml version="1.0" standalone="no"?>
    <svg width="256" height="256" xmlns="http://www.w3.org/2000/svg" version="1.1">
    <polyline stroke="black" stroke-width="3" stroke-linecap="round" fill="transparent" stroke-linejoin="round" points="73.98321533203125 57.95050048828128 79.1336669921875 107.0781707763672 84.28411865234375 156.20584106445313 84.28411865234375 161.7524871826172 84.28411865234375 161.7524871826172 " />
        <polyline stroke="black" stroke-width="3" stroke-linecap="round" fill="transparent" stroke-linejoin="round" points="93.39648437500003 91.23056030273438 109.64031982421876 86.47627258300781 125.8841552734375 81.72198486328125 140.54318237304688 81.32579040527344 153.61749267578125 85.28768920898438 162.333740234375 93.21150207519533 171.84228515625 113.81341552734376 173.8232421875 130.84962463378906 172.6346435546875 144.71630859375 169.0689697265625 153.4324951171875 169.0689697265625 153.4324951171875 " />
        <polyline stroke="black" stroke-width="3" stroke-linecap="round" fill="transparent" stroke-linejoin="round" points="121.92221069335935 95.98486328125 122.31842041015624 115.398193359375 122.71463012695313 134.8115234375 123.11080932617188 147.09344482421875 123.11080932617188 147.09344482421875 " />
        <polyline stroke="black" stroke-width="3" stroke-linecap="round" fill="transparent" stroke-linejoin="round" points="91.81173706054688 110.64389038085938 107.65939331054688 104.70103454589844 123.50704956054688 98.7581787109375 136.18511962890625 95.19247436523438 142.52413940429688 93.21150207519533 142.52413940429688 93.21150207519533 " />
        <polyline stroke="black" stroke-width="3" stroke-linecap="round" fill="transparent" stroke-linejoin="round" points="118.75274658203125 129.2648468017578 131.8270263671875 129.2648468017578 144.90130615234375 129.2648468017578 148.07083129882813 129.2648468017578 148.07083129882813 129.2648468017578 " />
        <polyline stroke="black" stroke-width="3" stroke-linecap="round" fill="transparent" stroke-linejoin="round" points="38.722137451171875 206.12579345703125 81.11459350585938 199.39059448242188 123.50704956054688 192.6553955078125 165.10699462890625 185.52392578125 195.61370849609375 181.95822143554688 218.5927734375 178.7886962890625 218.5927734375 178.7886962890625 " />
        </svg>