<?xml version="1.0" standalone="no"?>
    <svg width="256" height="256" xmlns="http://www.w3.org/2000/svg" version="1.1">
    <polyline stroke="black" stroke-width="3" stroke-linecap="round" fill="transparent" stroke-linejoin="round" points="62.030517578125 85.70919799804688 67.56417846679688 110.14952087402344 69.40869140625 119.83341979980467 72.63668823242188 136.89553833007813 73.5589599609375 143.35147094726563 73.5589599609375 152.1130828857422 73.5589599609375 152.1130828857422 " />
        <polyline stroke="black" stroke-width="3" stroke-linecap="round" fill="transparent" stroke-linejoin="round" points="65.7196044921875 94.00968933105467 80.014892578125 80.17555236816406 88.31536865234375 73.25848388671875 98.92156982421876 66.34140014648438 121.517333984375 54.812957763671875 132.12350463867188 51.12385559082031 150.56903076171875 47.89588928222656 163.9420166015625 49.740440368652344 171.32025146484375 55.27409362792969 175.931640625 70.49165344238281 171.7813720703125 93.08741760253906 159.3306884765625 116.14431762695313 142.26852416992188 135.05096435546875 142.26852416992188 135.05096435546875 " />
        <polyline stroke="black" stroke-width="3" stroke-linecap="round" fill="transparent" stroke-linejoin="round" points="80.93719482421875 124.90594482421876 93.84906005859376 117.98887634277344 101.22723388671876 114.76089477539063 108.60546875 111.53292846679688 115.52255249023438 108.3049774169922 122.43963623046876 104.61587524414063 138.57943725585938 95.39309692382813 143.65194702148438 90.32058715820313 145.49652099609375 87.55375671386719 145.49652099609375 87.55375671386719 " />
        <polyline stroke="black" stroke-width="3" stroke-linecap="round" fill="transparent" stroke-linejoin="round" points="129.81781005859375 59.424346923828125 126.58984375 70.49165344238281 122.43963623046876 89.3983154296875 117.3670654296875 107.3826904296875 110.9111328125 124.44479370117188 103.53292846679688 136.43438720703125 96.61590576171876 143.81259155273438 91.5433349609375 147.50169372558594 89.69882202148438 147.96282958984375 89.23764038085938 147.0405731201172 90.159912109375 146.1182861328125 103.53292846679688 140.12350463867188 116.90594482421876 135.51211547851563 131.20123291015625 132.7452850341797 136.73486328125 132.28414916992188 136.73486328125 132.28414916992188 " />
        <polyline stroke="black" stroke-width="3" stroke-linecap="round" fill="transparent" stroke-linejoin="round" points="43.123870849609375 215.28900146484375 56.035736083984375 205.6051025390625 67.10302734375 199.149169921875 79.55377197265625 192.6932373046875 110.45001220703124 181.1647796630859 146.41879272460938 172.86428833007813 162.09747314453125 171.01974487304688 196.68280029296875 174.70884704589844 196.68280029296875 174.70884704589844 " />
        </svg>