<?xml version="1.0" standalone="no"?>
    <svg width="256" height="256" xmlns="http://www.w3.org/2000/svg" version="1.1">
    <polyline stroke="black" stroke-width="3" stroke-linecap="round" fill="transparent" stroke-linejoin="round" points="75.38287353515625 118.09439086914063 88.93173217773438 111.11466979980467 96.73260498046876 108.24069213867188 104.9439697265625 105.36666870117188 123.00912475585938 100.4398193359375 149.69622802734375 95.51296997070313 163.24505615234375 93.46011352539063 173.5093994140625 91.8178253173828 179.25732421875 90.175537109375 180.899658203125 88.94383239746094 180.899658203125 88.94383239746094 " />
        <polyline stroke="black" stroke-width="3" stroke-linecap="round" fill="transparent" stroke-linejoin="round" points="123.83026123046876 31.463890075683594 119.31396484375 42.959869384765625 116.85055541992188 50.35015106201172 110.28143310546876 77.03726196289063 107.40740966796876 93.87068176269533 104.9439697265625 107.41952514648438 104.12286376953124 120.147216796875 103.71224975585938 125.89520263671876 104.12286376953124 140.67576599121094 104.12286376953124 144.78147888183594 105.35458374023438 155.86691284179688 106.58627319335938 160.7937469482422 109.04974365234376 164.4888916015625 113.56597900390624 167.36288452148438 116.85055541992188 168.18402099609375 129.57821655273438 164.4888916015625 134.09454345703125 160.7937469482422 134.09454345703125 160.7937469482422 " />
        <polyline stroke="black" stroke-width="3" stroke-linecap="round" fill="transparent" stroke-linejoin="round" points="149.28564453125 58.972137451171875 148.053955078125 70.87870788574219 146.41162109375 89.35440063476563 144.76937866210938 110.29351806640624 143.9482421875 129.59036254882813 143.1270751953125 147.24490356445313 141.89535522460938 164.07830810546875 141.89535522460938 164.07830810546875 " />
        <polyline stroke="black" stroke-width="3" stroke-linecap="round" fill="transparent" stroke-linejoin="round" points="74.15118408203125 156.6880340576172 71.687744140625 170.23687744140625 70.04547119140625 184.1962890625 68.813720703125 193.63943481445313 68.813720703125 201.44027709960935 71.27719116210938 208.0093994140625 77.025146484375 212.1151123046875 90.57403564453124 213.7574157714844 107.40740966796876 211.29397583007813 123.419677734375 206.36712646484375 137.78964233398438 200.619140625 149.28564453125 196.10284423828125 159.5499267578125 191.176025390625 169.814208984375 184.1962890625 169.814208984375 184.1962890625 " />
        <polyline stroke="black" stroke-width="3" stroke-linecap="round" fill="transparent" stroke-linejoin="round" points="185.4158935546875 121.78952026367188 183.77362060546875 145.60263061523438 183.363037109375 160.7937469482422 182.13134765625 178.44830322265625 180.0784912109375 197.74514770507813 178.43621826171875 208.41998291015625 177.2044677734375 217.0419921875 177.2044677734375 217.0419921875 " />
        </svg>