<?xml version="1.0" standalone="no"?>
    <svg width="256" height="256" xmlns="http://www.w3.org/2000/svg" version="1.1">
    <polyline stroke="black" stroke-width="3" stroke-linecap="round" fill="transparent" stroke-linejoin="round" points="70.4869384765625 53.1131591796875 79.04928588867188 50.56328582763672 89.36083984375 47.640037536621094 98.58786010742188 45.215057373046875 108.81100463867188 42.8126220703125 130.22882080078125 40.01551818847656 139.38119506835938 40.57020568847656 158.27581787109375 43.14280700683594 162.84930419921875 46.241729736328125 163.020263671875 46.38774871826172 163.03729248046875 46.40227508544922 161.64385986328125 51.452903747558594 158.81317138671875 58.74351501464844 149.26547241210938 75.53890991210938 143.95672607421875 82.75260925292969 133.72210693359375 93.40353393554688 128.05892944335938 97.4054718017578 122.39306640625 101.65251159667967 122.37850952148438 100.99041748046876 " />
        <polyline stroke="black" stroke-width="3" stroke-linecap="round" fill="transparent" stroke-linejoin="round" points="129.45819091796875 106.14138793945313 135.48553466796875 108.54849243164063 143.723876953125 113.20327758789063 145.95416259765625 115.19351196289063 146.1092529296875 115.3319091796875 " />
        <polyline stroke="black" stroke-width="3" stroke-linecap="round" fill="transparent" stroke-linejoin="round" points="114.9683837890625 159.69207763671875 125.20272827148438 158.707763671875 144.7216796875 156.64138793945313 155.89599609375 154.8866424560547 159.5372314453125 154.0957489013672 162.8009033203125 153.0045623779297 162.8414306640625 152.9910125732422 162.8525390625 152.98724365234375 " />
        <polyline stroke="black" stroke-width="3" stroke-linecap="round" fill="transparent" stroke-linejoin="round" points="128.00411987304688 146.76174926757813 127.38864135742188 165.950927734375 126.26043701171876 174.9725341796875 121.61541748046876 191.7490234375 119.55355834960938 199.7999267578125 119.34735107421876 200.60498046875 " />
        <polyline stroke="black" stroke-width="3" stroke-linecap="round" fill="transparent" stroke-linejoin="round" points="77.2618408203125 219.1581115722656 86.13739013671875 217.74444580078125 110.79815673828124 214.54345703125 136.22650146484375 211.22857666015625 147.11813354492188 209.68646240234375 163.94744873046875 208.05926513671875 169.61322021484375 207.86032104492188 187.8990478515625 207.40090942382813 196.51800537109375 207.10696411132813 199.003662109375 207.3485412597656 199.25225830078125 207.37274169921875 " />
        </svg>