<?xml version="1.0" standalone="no"?>
    <svg width="256" height="256" xmlns="http://www.w3.org/2000/svg" version="1.1">
    <polyline stroke="black" stroke-width="3" stroke-linecap="round" fill="transparent" stroke-linejoin="round" points="107.68930053710938 54.16424560546875 123.3056640625 49.643699645996094 128.64816284179688 48.41082763671875 133.168701171875 47.58891296386719 139.7440185546875 47.177947998046875 143.442626953125 47.58891296386719 145.08651733398438 48.82179260253906 145.4974365234375 54.57521057128906 141.38787841796875 66.49301147460938 132.75775146484375 81.28750610351563 121.661865234375 94.0272216796875 115.08651733398438 99.3696746826172 115.08651733398438 99.3696746826172 " />
        <polyline stroke="black" stroke-width="3" stroke-linecap="round" fill="transparent" stroke-linejoin="round" points="100.2919921875 93.61627197265624 116.31942749023438 95.26010131835938 138.922119140625 101.42446899414063 149.60702514648438 105.94503784179688 149.60702514648438 105.94503784179688 " />
        <polyline stroke="black" stroke-width="3" stroke-linecap="round" fill="transparent" stroke-linejoin="round" points="86.31942749023438 154.4381103515625 92.894775390625 152.38333129882813 99.47015380859376 150.32852172851563 107.2783203125 147.86277770996094 124.53857421875 142.5203094482422 142.20980834960938 135.94497680664063 153.3056640625 130.60252380371094 153.3056640625 130.60252380371094 " />
        <polyline stroke="black" stroke-width="3" stroke-linecap="round" fill="transparent" stroke-linejoin="round" points="129.05908203125 126.90391540527344 128.64816284179688 133.8901824951172 128.2371826171875 140.87649536132813 125.3604736328125 162.6572723388672 119.6070556640625 174.1641082763672 115.08651733398438 179.9175262451172 109.74407958984376 185.67095947265625 109.74407958984376 185.67095947265625 " />
        <polyline stroke="black" stroke-width="3" stroke-linecap="round" fill="transparent" stroke-linejoin="round" points="84.67562866210938 203.3421630859375 95.36053466796876 199.6435546875 135.63446044921875 191.013427734375 166.8673095703125 188.9586181640625 180.428955078125 189.78054809570313 191.1138916015625 191.42437744140625 191.1138916015625 191.42437744140625 " />
        </svg>