<?xml version="1.0" standalone="no"?>
    <svg width="256" height="256" xmlns="http://www.w3.org/2000/svg" version="1.1">
    <polyline stroke="black" stroke-width="3" stroke-linecap="round" fill="transparent" stroke-linejoin="round" points="99.807373046875 69.26318359375 105.590087890625 67.61099243164063 111.37277221679688 65.95878601074219 121.28598022460938 63.48048400878906 125.82955932617188 62.2413330078125 133.677490234375 60.589141845703125 139.460205078125 60.17608642578125 143.17767333984375 61.00218200683594 144.829833984375 62.654388427734375 144.829833984375 64.30657958984375 141.9384765625 74.21978759765625 135.74276733398438 83.71995544433594 126.6556396484375 94.04620361328124 116.742431640625 103.13333129882813 107.65533447265624 109.74211120605467 107.65533447265624 109.74211120605467 " />
        <polyline stroke="black" stroke-width="3" stroke-linecap="round" fill="transparent" stroke-linejoin="round" points="92.78549194335938 101.48110961914063 105.177001953125 102.7202606201172 118.39462280273438 105.19857788085938 124.59042358398438 106.85076904296876 136.15576171875 111.39431762695313 143.5906982421875 115.9378662109375 148.54730224609375 120.068359375 148.54730224609375 120.068359375 " />
        <polyline stroke="black" stroke-width="3" stroke-linecap="round" fill="transparent" stroke-linejoin="round" points="95.26385498046876 154.76458740234375 109.30755615234376 152.2863006591797 115.91635131835938 151.04714965820313 129.96005249023438 149.3949432373047 141.52545166015625 148.15579223632813 150.612548828125 147.32969665527344 154.7430419921875 145.677490234375 154.7430419921875 145.677490234375 " />
        <polyline stroke="black" stroke-width="3" stroke-linecap="round" fill="transparent" stroke-linejoin="round" points="128.72088623046875 146.5035858154297 124.59042358398438 153.11239624023438 120.45989990234376 160.13424682617188 105.590087890625 182.43896484375 96.50299072265624 191.52606201171875 91.54638671875 195.2435302734375 79.15487670898438 201.43927001953125 77.089599609375 201.85232543945313 75.85043334960938 201.85232543945313 81.22015380859375 201.0262451171875 98.56820678710938 199.3740234375 120.87298583984376 198.54791259765625 141.52545166015625 199.3740234375 160.5257568359375 203.09149169921875 179.93914794921875 210.939453125 187.787109375 216.30908203125 187.787109375 216.30908203125 " />
        </svg>