<?xml version="1.0" standalone="no"?>
    <svg width="256" height="256" xmlns="http://www.w3.org/2000/svg" version="1.1">
    <polyline stroke="black" stroke-width="3" stroke-linecap="round" fill="transparent" stroke-linejoin="round" points="95.683349609375 81.55136108398438 101.74459838867188 78.72279357910156 116.29159545898438 73.4697265625 130.4344482421875 69.83297729492188 136.89974975585938 68.6207275390625 154.27532958984375 67.00439453125 160.74066162109375 67.40847778320313 165.589599609375 69.42889404296875 167.20599365234375 72.25747680664063 167.20599365234375 79.53096008300781 162.7611083984375 92.05752563476563 155.487548828125 105.39225769042967 150.63861083984375 112.26164245605467 134.47528076171875 129.63720703125 134.47528076171875 129.63720703125 " />
        <polyline stroke="black" stroke-width="3" stroke-linecap="round" fill="transparent" stroke-linejoin="round" points="122.352783203125 122.36370849609376 127.60589599609376 124.38412475585938 132.45489501953125 126.40452575683594 137.70794677734375 128.8290252685547 151.04266357421875 136.91067504882813 157.912109375 144.99234008789063 161.14471435546875 149.84130859375 161.14471435546875 149.84130859375 " />
        <polyline stroke="black" stroke-width="3" stroke-linecap="round" fill="transparent" stroke-linejoin="round" points="91.64254760742188 187.8250732421875 96.89559936523438 186.208740234375 108.614013671875 183.78424072265625 123.16098022460938 181.3597412109375 130.4344482421875 180.55160522460935 149.42636108398438 179.33934020996094 157.10394287109375 179.33934020996094 160.3365478515625 180.1475067138672 160.3365478515625 180.1475067138672 " />
        <polyline stroke="black" stroke-width="3" stroke-linecap="round" fill="transparent" stroke-linejoin="round" points="134.07122802734375 178.93527221679688 132.85897827148438 185.8046875 129.22222900390625 200.7557373046875 124.37322998046876 212.47412109375 118.716064453125 219.74761962890625 110.23031616210938 225.00067138671875 100.93646240234376 229.04150390625 90.8343505859375 230.6578369140625 84.77313232421875 231.0619201660156 81.54046630859375 231.0619201660156 80.32821655273438 230.6578369140625 81.94454956054688 229.04150390625 85.581298828125 226.61700439453125 99.72421264648438 220.5557861328125 127.60589599609376 214.0904541015625 147.40594482421875 212.07003784179688 162.35699462890625 211.66595458984375 175.28759765625 212.87820434570313 184.58154296875 216.11083984375 184.58154296875 216.11083984375 " />
        </svg>