<?xml version="1.0" standalone="no"?>
    <svg width="256" height="256" xmlns="http://www.w3.org/2000/svg" version="1.1">
    <polyline stroke="black" stroke-width="3" stroke-linecap="round" fill="transparent" stroke-linejoin="round" points="93.00384521484376 49.03478240966797 107.08245849609376 44.13787841796875 121.773193359375 39.85308074951172 133.4033203125 36.18040466308594 144.42138671875 34.34406280517578 151.7667236328125 34.34406280517578 156.051513671875 36.18040466308594 157.88787841796875 41.689422607421875 156.66363525390625 53.93169403076172 152.990966796875 71.07086181640625 146.86981201171875 87.59793090820313 139.52447509765625 100.45230102539063 131.5670166015625 111.47035217285156 131.5670166015625 111.47035217285156 " />
        <polyline stroke="black" stroke-width="3" stroke-linecap="round" fill="transparent" stroke-linejoin="round" points="105.24612426757813 111.47035217285156 115.65203857421876 112.08245849609376 127.28219604492188 113.91880798339844 139.52447509765625 116.36724853515624 148.7061767578125 119.42782592773438 148.7061767578125 119.42782592773438 " />
        <polyline stroke="black" stroke-width="3" stroke-linecap="round" fill="transparent" stroke-linejoin="round" points="79.537353515625 159.82730102539063 90.555419921875 157.990966796875 105.85821533203124 154.3182830810547 122.99740600585938 150.64559936523438 139.52447509765625 146.97291564941406 150.54251098632813 144.52447509765625 157.88787841796875 142.68812561035156 157.88787841796875 142.68812561035156 " />
        <polyline stroke="black" stroke-width="3" stroke-linecap="round" fill="transparent" stroke-linejoin="round" points="119.93682861328124 151.8698272705078 116.26416015625 164.11209106445313 110.755126953125 177.57858276367188 102.185546875 189.82086181640625 90.555419921875 199.61468505859375 77.08892822265625 207.5721435546875 67.29510498046875 212.46905517578125 61.1739501953125 214.91751098632813 56.88916015625 216.1417236328125 55.6649169921875 216.1417236328125 57.50128173828125 214.91751098632813 64.23452758789063 212.46905517578125 88.10693359375 209.40847778320313 124.833740234375 206.34793090820313 152.990966796875 204.51156616210935 175.02703857421875 203.89947509765625 187.88140869140625 205.12368774414065 195.226806640625 208.18426513671875 195.226806640625 208.18426513671875 " />
        </svg>