<?xml version="1.0" standalone="no"?>
    <svg width="256" height="256" xmlns="http://www.w3.org/2000/svg" version="1.1">
    <polyline stroke="black" stroke-width="3" stroke-linecap="round" fill="transparent" stroke-linejoin="round" points="56.41546630859375 69.46760559082031 71.88848876953125 63.27839660644531 79.84603881835938 61.067962646484375 89.57196044921875 58.41545104980469 99.73992919921876 55.32084655761719 120.07589721679688 49.13163757324219 129.8017578125 46.03703308105469 139.0855712890625 42.94242858886719 155.000732421875 36.75322723388672 168.2633056640625 29.237754821777344 168.2633056640625 29.237754821777344 " />
        <polyline stroke="black" stroke-width="3" stroke-linecap="round" fill="transparent" stroke-linejoin="round" points="124.49676513671876 28.795669555664063 102.39242553710938 59.74171447753906 93.10861206054688 73.00430297851563 84.708984375 85.38272094726563 69.2359619140625 107.48704528808594 62.60467529296875 115.444580078125 53.32086181640625 126.05467224121094 48.01580810546875 131.35971069335938 46.24749755859375 133.12803649902344 46.24749755859375 133.12803649902344 " />
        <polyline stroke="black" stroke-width="3" stroke-linecap="round" fill="transparent" stroke-linejoin="round" points="98.855712890625 68.58343505859375 122.28631591796876 70.35177612304688 139.0855712890625 72.1201171875 154.55859375 74.77264404296875 166.4949951171875 76.54098510742188 173.126220703125 78.309326171875 174.89459228515625 78.75141906738281 174.89459228515625 78.75141906738281 " />
        <polyline stroke="black" stroke-width="3" stroke-linecap="round" fill="transparent" stroke-linejoin="round" points="91.7823486328125 127.822998046875 85.15106201171875 140.20140075683594 80.2880859375 153.02191162109375 78.519775390625 160.53738403320313 78.96185302734375 164.95823669433594 81.17230224609375 167.6107635498047 88.24566650390625 168.93701171875 94.43487548828124 168.49493408203125 117.42333984375 159.21112060546875 132.8963623046875 149.0431365966797 142.62228393554688 139.31724548339844 149.25360107421875 129.14926147460938 152.790283203125 123.84422302246094 154.1165771484375 122.07589721679688 154.1165771484375 122.5179443359375 153.6744384765625 127.822998046875 152.790283203125 131.8017578125 151.02191162109375 138.87515258789063 146.158935546875 149.0431365966797 146.158935546875 149.0431365966797 " />
        <polyline stroke="black" stroke-width="3" stroke-linecap="round" fill="transparent" stroke-linejoin="round" points="122.7283935546875 100.85574340820313 115.212890625 126.49673461914063 112.11834716796876 140.20140075683594 108.58163452148438 153.90609741210938 105.487060546875 167.6107635498047 101.066162109375 190.5992431640625 97.9715576171875 206.9564208984375 95.31906127929688 222.87155151367188 95.31906127929688 222.87155151367188 " />
        </svg>