<?xml version="1.0" standalone="no"?>
    <svg width="256" height="256" xmlns="http://www.w3.org/2000/svg" version="1.1">
    <polyline stroke="black" stroke-width="3" stroke-linecap="round" fill="transparent" stroke-linejoin="round" points="65.25677490234375 115.11175537109376 88.38754272460938 103.13333129882813 99.12689208984376 99.41587829589844 110.6922607421875 95.69842529296876 135.47528076171875 90.32875061035156 147.86679077148438 88.26351928710938 168.10626220703125 84.9591064453125 182.56298828125 82.89385986328125 189.9979248046875 81.24165344238281 192.47625732421875 79.58944702148438 192.47625732421875 79.58944702148438 " />
        <polyline stroke="black" stroke-width="3" stroke-linecap="round" fill="transparent" stroke-linejoin="round" points="136.71444702148438 59.763031005859375 130.93173217773438 72.98065185546875 127.21429443359376 81.65469360351563 123.083740234375 91.15484619140624 118.12716674804688 101.06805419921876 107.8009033203125 121.7205810546875 98.30078125 137.00344848632813 90.45281982421876 148.98190307617188 84.257080078125 156.829833984375 79.7135009765625 161.78643798828125 78.061279296875 163.02560424804688 78.061279296875 163.02560424804688 " />
        <polyline stroke="black" stroke-width="3" stroke-linecap="round" fill="transparent" stroke-linejoin="round" points="114.82275390625 118.8292236328125 128.866455078125 116.35092163085938 138.77972412109375 115.9378662109375 149.93206787109375 115.52482604980467 170.1715087890625 115.9378662109375 182.56298828125 116.76397705078124 196.606689453125 118.41616821289063 203.62860107421875 119.24229431152344 205.69384765625 119.6553192138672 205.69384765625 119.6553192138672 " />
        <polyline stroke="black" stroke-width="3" stroke-linecap="round" fill="transparent" stroke-linejoin="round" points="116.88803100585938 153.11239624023438 111.931396484375 164.67779541015625 110.6922607421875 170.87356567382813 110.27923583984376 176.65625 110.6922607421875 179.547607421875 112.75750732421876 184.0911865234375 116.06195068359376 187.39556884765625 124.7359619140625 191.113037109375 135.47528076171875 191.93911743164065 147.04071044921875 189.87387084960935 158.19305419921875 184.50421142578125 166.86712646484375 176.65625 173.88897705078125 167.56915283203125 178.01947021484375 157.65594482421875 179.2586669921875 152.2863006591797 179.671630859375 149.8079833984375 179.671630859375 149.3949432373047 179.671630859375 150.63409423828125 179.2586669921875 155.5906982421875 178.8455810546875 159.3081512451172 175.9542236328125 170.4604949951172 173.0628662109375 177.48236083984375 173.0628662109375 177.48236083984375 " />
        <polyline stroke="black" stroke-width="3" stroke-linecap="round" fill="transparent" stroke-linejoin="round" points="146.62762451171875 155.17764282226563 142.08407592773438 177.06930541992188 139.60580444335938 186.15643310546875 132.99700927734375 213.83078002929688 130.93173217773438 222.091796875 125.97509765625 251.4183654785156 125.97509765625 251.4183654785156 " />
        </svg>