<?xml version="1.0" standalone="no"?>
    <svg width="256" height="256" xmlns="http://www.w3.org/2000/svg" version="1.1">
    <polyline stroke="black" stroke-width="3" stroke-linecap="round" fill="transparent" stroke-linejoin="round" points="83 64 84 63 84 62 86 62 88 62 93 61 97 60 101 60 107 59 113 59 119 59 125 58 132 57 139 56 147 55 152 54 155 54 157 53 158 54 158 54 " />
        <polyline stroke="black" stroke-width="3" stroke-linecap="round" fill="transparent" stroke-linejoin="round" points="104 87 104 91 103 95 104 100 104 104 105 108 106 111 107 115 107 116 107 117 108 116 108 115 107 114 " />
        <polyline stroke="black" stroke-width="3" stroke-linecap="round" fill="transparent" stroke-linejoin="round" points="107 99 108 97 110 95 112 93 115 91 119 90 123 88 130 86 134 85 139 84 143 84 147 83 151 83 153 83 155 84 156 85 155 89 154 91 151 95 147 99 143 102 140 104 " />
        <polyline stroke="black" stroke-width="3" stroke-linecap="round" fill="transparent" stroke-linejoin="round" points="110 112 110 112 111 112 114 111 118 111 122 110 126 109 131 108 136 107 140 106 143 105 146 105 148 104 148 104 " />
        <polyline stroke="black" stroke-width="3" stroke-linecap="round" fill="transparent" stroke-linejoin="round" points="103 134 102 138 102 142 102 145 102 148 102 150 102 152 102 153 102 154 102 154 102 154 103 152 103 151 104 149 106 145 107 143 109 140 114 136 119 134 124 131 130 129 136 128 141 126 147 126 152 125 156 125 158 126 161 127 161 129 160 131 158 134 154 138 149 141 146 143 143 144 " />
        <polyline stroke="black" stroke-width="3" stroke-linecap="round" fill="transparent" stroke-linejoin="round" points="107 154 107 154 108 154 110 153 113 153 116 153 121 152 128 151 132 150 137 148 142 145 147 142 149 140 " />
        <polyline stroke="black" stroke-width="3" stroke-linecap="round" fill="transparent" stroke-linejoin="round" points="133 70 133 72 133 74 133 82 133 88 133 97 132 108 132 119 132 132 132 145 131 157 131 169 129 184 128 192 127 200 126 206 126 211 126 214 " />
        </svg>