<?xml version="1.0" standalone="no"?>
    <svg width="256" height="256" xmlns="http://www.w3.org/2000/svg" version="1.1">
    <polyline stroke="black" stroke-width="3" stroke-linecap="round" fill="transparent" stroke-linejoin="round" points="70.0027980951478 88.45211296644794 81.29184323349415 86.52471501599857 100.56582273798796 82.39457655074989 123.14391301468072 79.09046577855096 142.14254995482463 76.06169757070194 158.93844638016935 74.13429962025253 169.67680638981574 73.30827192720281 174.63297254811414 73.30827192720281 175.45900024116395 73.30827192720281 175.45900024116395 73.30827192720281 " />
        <polyline stroke="black" stroke-width="3" stroke-linecap="round" fill="transparent" stroke-linejoin="round" points="96.1603417083894 120.94253555973754 98.36308222318873 129.47815505458482 101.6671929953876 140.49185762858127 103.86993351018693 148.2014494303788 104.42061863888676 149.30281968777845 104.1452760745368 147.10007917297915 101.39185043103772 139.11514480683172 99.1891099162384 132.78226582678374 98.08773965883876 128.10144223283524 97.53705453013896 126.17404428238586 97.53705453013896 125.34801658933614 99.4644524805883 123.14527607453684 105.52198889628642 118.73979504493826 114.88363608418337 114.33431401533966 125.89733865817988 110.7548606787908 136.08501353912658 109.37814785704126 143.51926277657424 109.37814785704126 147.6494012418229 112.13157350054036 148.75077149922254 116.53705453013896 148.75077149922254 123.69596120323666 143.79460534092414 132.23158069808392 136.36035610347653 140.7672001929312 126.72336635122956 147.65076430167898 117.08637659898268 152.33158789562748 109.92746992588496 153.98364328172696 107.17404428238586 154.25898584607688 109.65212736153508 153.98364328172696 117.63706172768252 150.4041899451781 128.92610686602887 145.4480237868797 140.49049456872518 140.7672001929312 149.3014566279224 138.5644596781319 149.3014566279224 138.5644596781319 " />
        <polyline stroke="black" stroke-width="3" stroke-linecap="round" fill="transparent" stroke-linejoin="round" points="85.1466391343929 180.4165294593185 86.24800939179255 187.5754361324162 90.65349042139115 200.79187922121196 92.58088837184056 203.820647429061 92.85623093619046 202.9946197360113 92.58088837184056 196.38639819161335 91.20417555009097 189.5028340828656 90.65349042139115 183.4452976671675 90.65349042139115 178.4891315088691 94.78362888663986 173.80830791492062 104.97130376758656 167.47542893487264 121.49185762858129 160.59186482612483 139.9398094400254 154.53432841042678 159.48913150886915 152.33158789562748 172.70557459766496 152.05624533127758 180.41516639946235 152.33158789562748 182.34256434991175 155.3603561034765 180.69050896381236 162.2439202122243 170.50283408286555 170.5041971427217 155.08365047927057 178.76447407321902 139.38912431132553 185.097353053267 121.76720019293116 190.3288617759153 105.79733146063631 196.38639819161335 93.6822586292402 201.6179069142617 87.3493796491922 204.92201768646063 87.0740370848423 205.19736025081056 91.4795181144409 204.3713325577608 102.21787812408746 199.1398238351125 117.63706172768252 191.9809171620148 134.98364328172693 183.4452976671675 153.15625252882114 175.73570586537 165.82201048891716 171.3302248357714 165.82201048891716 171.3302248357714 " />
        <polyline stroke="black" stroke-width="3" stroke-linecap="round" fill="transparent" stroke-linejoin="round" points="122.04254275728113 87.35074270904832 120.66582993553152 101.66855605524373 119.28911711378196 128.6521273615351 119.28911711378196 161.4178925191746 124.24528327208036 196.38639819161335 128.37542173732908 218.41380333960632 129.20144943037883 230.5288761710024 129.47679199472873 237.96312540845005 129.47679199472873 239.89052335889943 129.47679199472873 239.89052335889943 " />
        </svg>