<?xml version="1.0" standalone="no"?>
    <svg width="256" height="256" xmlns="http://www.w3.org/2000/svg" version="1.1">
    <polyline stroke="black" stroke-width="3" stroke-linecap="round" fill="transparent" stroke-linejoin="round" points="71.48138427734375 113.239990234375 73.12799072265625 128.47084045410156 74.77459716796875 143.70169067382813 76.009521484375 152.3462371826172 77.24444580078125 159.3441925048828 78.4793701171875 162.22569274902344 78.4793701171875 162.22569274902344 " />
        <polyline stroke="black" stroke-width="3" stroke-linecap="round" fill="transparent" stroke-linejoin="round" points="81.77252197265624 93.89274597167969 99.8848876953125 86.894775390625 117.99725341796876 79.89680480957031 136.109619140625 73.72213745117188 148.04727172851563 70.42898559570313 157.10345458984375 69.19404602050781 166.15966796875 68.78239440917969 171.9227294921875 71.66392517089844 173.98089599609375 81.13174438476563 169.45281982421875 107.47697448730467 163.27813720703125 134.6455078125 157.10345458984375 164.695556640625 153.398681640625 181.984619140625 153.398681640625 181.984619140625 " />
        <polyline stroke="black" stroke-width="3" stroke-linecap="round" fill="transparent" stroke-linejoin="round" points="32.786865234375014 136.29208374023438 72.30471801757813 129.70578002929688 111.82257080078124 123.11947631835938 147.2239990234375 117.76809692382813 176.03912353515625 112.00505065917967 197.85626220703125 108.30027770996094 202.7960205078125 107.47697448730467 202.7960205078125 107.47697448730467 " />
        <polyline stroke="black" stroke-width="3" stroke-linecap="round" fill="transparent" stroke-linejoin="round" points="66.54177856445313 176.63327026367188 87.12396240234375 173.34010314941406 107.70614624023438 170.04693603515625 113.88079833984376 169.22364807128906 140.22607421875 165.93051147460938 163.27813720703125 163.04898071289063 163.27813720703125 163.04898071289063 " />
        <polyline stroke="black" stroke-width="3" stroke-linecap="round" fill="transparent" stroke-linejoin="round" points="117.58563232421875 78.66184997558594 117.17398071289063 104.595458984375 116.7623291015625 130.52906799316406 116.35064697265624 156.87432861328125 115.93905639648438 205.4483642578125 115.93905639648438 240.43814086914065 115.11578369140624 261.4320068359375 114.7041015625 273.36968994140625 114.7041015625 273.36968994140625 " />
        </svg>