<?xml version="1.0" standalone="no"?>
    <svg width="256" height="256" xmlns="http://www.w3.org/2000/svg" version="1.1">
    <polyline stroke="black" stroke-width="3" stroke-linecap="round" fill="transparent" stroke-linejoin="round" points="87.40603637695313 51.30226135253906 84.51889038085938 74.39944458007813 81.63174438476563 103.27093505859376 79.89944458007813 125.79069519042967 80.47686767578125 141.958740234375 81.0543212890625 154.0847625732422 82.20916748046875 159.28163146972656 84.51889038085938 156.97190856933594 84.51889038085938 156.97190856933594 " />
        <polyline stroke="black" stroke-width="3" stroke-linecap="round" fill="transparent" stroke-linejoin="round" points="97.79977416992188 71.51229858398438 107.6160888671875 68.0477294921875 120.89697265625 64.58314514160156 135.91015625 61.69599914550781 150.92330932617188 59.963714599609375 164.7816162109375 59.963714599609375 173.44305419921875 61.69599914550781 179.7947998046875 67.47029113769531 186.14654541015625 77.28660583496094 189.611083984375 92.877197265625 189.611083984375 112.5098114013672 183.2593994140625 134.4521484375 172.2882080078125 154.0847625732422 172.2882080078125 154.0847625732422 " />
        <polyline stroke="black" stroke-width="3" stroke-linecap="round" fill="transparent" stroke-linejoin="round" points="55.64739990234375 126.36813354492188 67.19598388671875 124.05841064453124 86.82861328125 121.1712646484375 116.27752685546876 116.55181884765624 142.26187133789063 112.5098114013672 168.8236083984375 109.62266540527344 192.498291015625 107.890380859375 210.3985595703125 106.1580810546875 222.52459716796875 105.58065795898438 230.03118896484375 105.58065795898438 233.4957275390625 105.58065795898438 233.4957275390625 107.3129425048828 227.14404296875 112.5098114013672 227.14404296875 112.5098114013672 " />
        <polyline stroke="black" stroke-width="3" stroke-linecap="round" fill="transparent" stroke-linejoin="round" points="67.7734375 162.74620056152344 89.1383056640625 162.1687774658203 107.6160888671875 161.59133911132813 124.36154174804688 161.013916015625 141.10699462890625 159.28163146972656 154.38787841796875 157.54933166503906 163.04931640625 156.3944854736328 169.40106201171875 154.0847625732422 169.40106201171875 154.0847625732422 " />
        <polyline stroke="black" stroke-width="3" stroke-linecap="round" fill="transparent" stroke-linejoin="round" points="149.1910400390625 32.82450866699219 147.458740234375 54.766845703125 144.57159423828125 82.48347473144531 140.52957153320313 107.890380859375 137.06500244140625 131.56500244140625 135.33270263671875 154.6621856689453 134.1778564453125 174.2947998046875 133.60040283203125 191.61770629882813 133.02301025390625 206.05343627929688 133.02301025390625 217.60202026367188 133.02301025390625 217.60202026367188 " />
        </svg>