<?xml version="1.0" standalone="no"?>
    <svg width="256" height="256" xmlns="http://www.w3.org/2000/svg" version="1.1">
    <polyline stroke="black" stroke-width="3" stroke-linecap="round" fill="transparent" stroke-linejoin="round" points="74.02011108398438 74.64189147949219 83.7039794921875 71.87506103515625 96.15472412109376 69.10824584960938 108.144287109375 66.34140014648438 121.05621337890624 64.03572082519531 147.80218505859375 60.80775451660156 160.2529296875 59.424346923828125 177.776123046875 58.040924072265625 186.53778076171875 57.57978820800781 186.53778076171875 57.57978820800781 " />
        <polyline stroke="black" stroke-width="3" stroke-linecap="round" fill="transparent" stroke-linejoin="round" points="92.00448608398438 126.28936767578124 91.5433349609375 137.8177947998047 91.5433349609375 156.72447204589844 92.00448608398438 163.64154052734375 92.9267578125 171.9420166015625 93.38790893554688 175.631103515625 93.38790893554688 176.09225463867188 93.38790893554688 176.09225463867188 " />
        <polyline stroke="black" stroke-width="3" stroke-linecap="round" fill="transparent" stroke-linejoin="round" points="118.75048828125 112.91635131835938 133.04574584960938 105.999267578125 140.88510131835938 103.23245239257813 155.64154052734375 100.9267578125 168.55340576171875 102.77130126953124 177.776123046875 107.3826904296875 184.23211669921875 115.2220458984375 187.92120361328125 129.97845458984375 181.9263916015625 148.4239959716797 165.78656005859375 165.0249481201172 165.78656005859375 165.0249481201172 " />
        <polyline stroke="black" stroke-width="3" stroke-linecap="round" fill="transparent" stroke-linejoin="round" points="83.24285888671875 147.50169372558594 96.15472412109376 143.35147094726563 121.05621337890624 135.9732666015625 133.968017578125 133.66757202148438 161.6363525390625 130.90072631835938 184.6932373046875 129.51731872558594 200.83306884765625 129.0561981201172 205.4444580078125 128.59503173828125 210.05584716796875 128.13389587402344 210.05584716796875 128.13389587402344 " />
        <polyline stroke="black" stroke-width="3" stroke-linecap="round" fill="transparent" stroke-linejoin="round" points="146.41879272460938 126.28936767578124 144.11309814453125 132.7452850341797 136.73486328125 149.80740356445313 131.20123291015625 158.5690155029297 116.90594482421876 176.5533905029297 110.45001220703124 182.54818725585935 100.30499267578124 189.9263916015625 95.693603515625 191.77093505859375 95.232421875 190.84869384765625 100.30499267578124 186.69842529296875 106.29977416992188 182.54818725585935 129.81781005859375 170.55859375 146.41879272460938 165.0249481201172 156.1026611328125 159.95242309570313 156.1026611328125 159.95242309570313 " />
        <polyline stroke="black" stroke-width="3" stroke-linecap="round" fill="transparent" stroke-linejoin="round" points="70.7921142578125 116.60546875 69.40869140625 129.0561981201172 67.56417846679688 155.34104919433594 67.56417846679688 167.79177856445313 69.40869140625 187.6207275390625 74.9423828125 200.07144165039065 85.54855346679688 207.9107666015625 105.37750244140624 212.9833068847656 127.05096435546876 214.36669921875 147.341064453125 212.9833068847656 165.78656005859375 210.6776123046875 175.931640625 209.294189453125 175.931640625 209.294189453125 " />
        </svg>