<?xml version="1.0" standalone="no"?>
    <svg width="256" height="256" xmlns="http://www.w3.org/2000/svg" version="1.1">
    <polyline stroke="black" stroke-width="3" stroke-linecap="round" fill="transparent" stroke-linejoin="round" points="74.75360107421875 69.56607055664063 83.20526123046875 66.60797119140625 105.1796875 60.269195556640625 117.43466186523438 57.31109619140625 139.40911865234375 52.24006652832031 158.00286865234375 47.59162902832031 170.680419921875 44.21095275878906 177.8643798828125 42.09801483154297 180.82244873046875 41.25285339355469 180.39990234375 41.675437927246094 180.39990234375 41.675437927246094 " />
        <polyline stroke="black" stroke-width="3" stroke-linecap="round" fill="transparent" stroke-linejoin="round" points="106.44744873046876 92.80825805664063 104.33456420898438 100.41477966308594 102.64422607421876 109.2890625 100.953857421875 121.54405212402344 99.26351928710938 142.25071716308594 98.84091186523438 150.7024383544922 97.99578857421876 161.68963623046875 97.15057373046876 164.6477508544922 96.305419921875 164.22515869140625 96.305419921875 159.57672119140625 97.99578857421876 149.0120849609375 102.22161865234376 136.33453369140625 108.56039428710938 124.50213623046876 116.58953857421876 114.36009216308594 122.50570678710938 109.2890625 140.2542724609375 97.03411865234376 151.24151611328125 92.80825805664063 159.2706298828125 91.54049682617188 164.7642822265625 93.23085021972656 169.4127197265625 99.14703369140624 172.7933349609375 113.5149383544922 171.94818115234375 132.1086883544922 166.031982421875 148.1669158935547 161.383544921875 156.61862182617188 161.383544921875 156.61862182617188 " />
        <polyline stroke="black" stroke-width="3" stroke-linecap="round" fill="transparent" stroke-linejoin="round" points="67.56964111328125 152.8153533935547 78.97943115234375 148.58950805664063 92.50213623046876 144.3636474609375 119.97018432617188 136.7571258544922 144.9027099609375 131.68609619140625 167.72235107421875 127.4602508544922 182.9354248046875 124.92474365234376 190.96453857421875 122.8118133544922 194.34521484375 120.69888305664063 194.34521484375 120.69888305664063 " />
        <polyline stroke="black" stroke-width="3" stroke-linecap="round" fill="transparent" stroke-linejoin="round" points="147.438232421875 129.5731658935547 143.63494873046875 136.33453369140625 136.02841186523438 148.58950805664063 131.80258178710938 154.08311462402344 122.08309936523438 164.6477508544922 112.78622436523438 172.2542724609375 106.02487182617188 176.0575408935547 103.48934936523438 177.32530212402344 103.48934936523438 176.9027099609375 111.94110107421876 173.09945678710938 130.9573974609375 166.33807373046875 149.5511474609375 160.84446716308594 163.07391357421875 157.04119873046875 171.52557373046875 153.23794555664063 171.52557373046875 153.23794555664063 " />
        <polyline stroke="black" stroke-width="3" stroke-linecap="round" fill="transparent" stroke-linejoin="round" points="52.356536865234375 107.59873962402344 45.595184326171875 131.26351928710938 39.67901611328125 152.8153533935547 35.875732421875 168.45101928710938 34.185394287109375 177.74789428710938 35.875732421875 184.086669921875 41.36932373046875 188.735107421875 57.427581787109375 195.4964599609375 81.9375 203.10302734375 110.67333984375 210.70953369140625 124.61862182617188 213.66763305664065 149.5511474609375 217.89349365234375 168.1448974609375 220.00640869140625 186.31610107421875 220.00640869140625 190.54193115234375 219.58383178710935 190.54193115234375 219.58383178710935 " />
        </svg>