<?xml version="1.0" standalone="no"?>
    <svg width="256" height="256" xmlns="http://www.w3.org/2000/svg" version="1.1">
    <polyline stroke="black" stroke-width="3" stroke-linecap="round" fill="transparent" stroke-linejoin="round" points="79 80 78 80 80 79 81 79 91 78 108 76 126 74 145 72 161 70 170 70 170 70 " />
        <polyline stroke="black" stroke-width="3" stroke-linecap="round" fill="transparent" stroke-linejoin="round" points="86 77 86 78 86 82 87 94 87 113 87 133 86 148 85 152 84 164 82 170 82 174 83 174 84 174 86 174 86 173 87 173 88 172 91 172 100 169 114 166 134 161 154 158 168 158 176 158 178 159 182 161 183 162 183 162 " />
        <polyline stroke="black" stroke-width="3" stroke-linecap="round" fill="transparent" stroke-linejoin="round" points="108 97 107 107 107 116 108 129 111 135 111 135 " />
        <polyline stroke="black" stroke-width="3" stroke-linecap="round" fill="transparent" stroke-linejoin="round" points="114 94 116 92 120 91 127 90 136 89 144 89 151 89 155 89 156 89 156 93 156 102 155 115 153 126 151 140 149 147 149 147 " />
        <polyline stroke="black" stroke-width="3" stroke-linecap="round" fill="transparent" stroke-linejoin="round" points="99 120 103 120 113 118 128 116 146 113 164 111 176 111 181 112 182 113 183 116 182 116 181 118 181 118 " />
        <polyline stroke="black" stroke-width="3" stroke-linecap="round" fill="transparent" stroke-linejoin="round" points="115 140 117 140 124 139 125 139 133 137 136 136 146 135 151 136 153 138 153 138 " />
        <polyline stroke="black" stroke-width="3" stroke-linecap="round" fill="transparent" stroke-linejoin="round" points="130 92 130 95 130 104 130 109 130 119 130 127 130 128 130 128 " />
        </svg>