<?xml version="1.0" standalone="no"?>
    <svg width="256" height="256" xmlns="http://www.w3.org/2000/svg" version="1.1">
    <polyline stroke="black" stroke-width="3" stroke-linecap="round" fill="transparent" stroke-linejoin="round" points="74.60003662109375 98.40000915527344 77.80010986328125 120.8000030517578 82.06671142578125 136.80001831054688 83.1334228515625 137.86668395996094 85.2667236328125 137.86668395996094 85.2667236328125 130.40003967285156 85.2667236328125 130.40003967285156 " />
        <polyline stroke="black" stroke-width="3" stroke-linecap="round" fill="transparent" stroke-linejoin="round" points="103.4000244140625 46.13334655761719 124.7333984375 40.800010681152344 140.7333984375 39.73333740234375 148.2000732421875 40.800010681152344 154.60009765625 49.333343505859375 154.60009765625 60 150.3333740234375 86.66667175292969 149.2667236328125 95.20002746582033 148.2000732421875 103.73333740234376 146.0667724609375 118.66667175292967 146.0667724609375 127.20001220703124 145 129.33334350585938 145 129.33334350585938 " />
        <polyline stroke="black" stroke-width="3" stroke-linecap="round" fill="transparent" stroke-linejoin="round" points="113.00006103515624 88.80000305175781 113.00006103515624 102.66667175292967 124.7333984375 140.00001525878906 129 146.40003967285156 130.0667724609375 148.53334045410156 127.93341064453124 149.6000213623047 125.80010986328124 149.6000213623047 125.80010986328124 149.6000213623047 " />
        <polyline stroke="black" stroke-width="3" stroke-linecap="round" fill="transparent" stroke-linejoin="round" points="110.86669921875 95.20002746582033 123.666748046875 94.1333465576172 126.86669921875 94.1333465576172 130.0667724609375 96.26667785644533 130.0667724609375 98.40000915527344 130.0667724609375 98.40000915527344 " />
        <polyline stroke="black" stroke-width="3" stroke-linecap="round" fill="transparent" stroke-linejoin="round" points="130.0667724609375 118.66667175292967 133.2667236328125 117.60000610351563 135.4000244140625 117.60000610351563 136.466796875 116.53335571289063 136.466796875 116.53335571289063 " />
        <polyline stroke="black" stroke-width="3" stroke-linecap="round" fill="transparent" stroke-linejoin="round" points="50.06671142578125 173.06671142578125 82.06671142578125 157.06671142578125 100.2000732421875 150.6666717529297 120.466796875 144.26669311523438 174.86669921875 133.6000213623047 200.4666748046875 135.73338317871094 204.7333984375 140.00001525878906 204.7333984375 140.00001525878906 " />
        <polyline stroke="black" stroke-width="3" stroke-linecap="round" fill="transparent" stroke-linejoin="round" points="115.1334228515625 178.40003967285156 115.1334228515625 186.933349609375 115.1334228515625 191.20001220703125 111.93341064453124 195.4666748046875 106.60003662109376 196.53335571289065 106.60003662109376 196.53335571289065 " />
        <polyline stroke="black" stroke-width="3" stroke-linecap="round" fill="transparent" stroke-linejoin="round" points="124.7333984375 189.06671142578125 143.933349609375 183.73336791992188 152.466796875 182.66668701171875 154.60009765625 182.66668701171875 154.60009765625 183.73336791992188 154.60009765625 186.933349609375 154.60009765625 191.20001220703125 157.8001708984375 195.4666748046875 157.8001708984375 195.4666748046875 " />
        </svg>