<?xml version="1.0" standalone="no"?>
    <svg width="256" height="256" xmlns="http://www.w3.org/2000/svg" version="1.1">
    <polyline stroke="black" stroke-width="3" stroke-linecap="round" fill="transparent" stroke-linejoin="round" points="89 57 89 76 89 94 90 107 94 116 96 119 97 119 97 119 " />
        <polyline stroke="black" stroke-width="3" stroke-linecap="round" fill="transparent" stroke-linejoin="round" points="99 52 105 52 123 49 141 48 158 48 169 52 175 63 176 79 176 94 170 104 160 108 160 108 " />
        <polyline stroke="black" stroke-width="3" stroke-linecap="round" fill="transparent" stroke-linejoin="round" points="123 59 123 76 124 90 125 101 125 107 125 107 " />
        <polyline stroke="black" stroke-width="3" stroke-linecap="round" fill="transparent" stroke-linejoin="round" points="111 87 129 86 148 85 162 85 166 85 166 85 " />
        <polyline stroke="black" stroke-width="3" stroke-linecap="round" fill="transparent" stroke-linejoin="round" points="102 115 117 115 135 115 151 115 160 115 162 115 162 115 " />
        <polyline stroke="black" stroke-width="3" stroke-linecap="round" fill="transparent" stroke-linejoin="round" points="54 146 74 145 101 142 115 141 151 141 167 141 178 141 180 143 180 143 " />
        <polyline stroke="black" stroke-width="3" stroke-linecap="round" fill="transparent" stroke-linejoin="round" points="121 169 121 184 121 200 121 211 121 215 121 215 " />
        <polyline stroke="black" stroke-width="3" stroke-linecap="round" fill="transparent" stroke-linejoin="round" points="85 195 85 200 85 204 85 207 90 208 100 209 115 209 131 209 146 209 158 207 163 206 163 206 " />
        <polyline stroke="black" stroke-width="3" stroke-linecap="round" fill="transparent" stroke-linejoin="round" points="162 188 162 205 162 226 162 234 162 234 " />
        </svg>