<?xml version="1.0" standalone="no"?>
    <svg width="256" height="256" xmlns="http://www.w3.org/2000/svg" version="1.1">
    <polyline stroke="black" stroke-width="3" stroke-linecap="round" fill="transparent" stroke-linejoin="round" points="104.694580078125 46.586334228515625 92.45230102539063 67.39817810058594 81.43426513671875 82.70101928710938 72.2525634765625 97.39173889160156 66.7435302734375 109.02189636230467 66.7435302734375 115.75514221191406 72.86468505859375 118.20359802246094 88.77963256835938 115.75514221191406 110.20361328125 107.79766845703124 130.4033203125 97.39173889160156 149.990966796875 84.537353515625 161.62109375 72.29508972167969 165.9058837890625 64.33761596679688 165.9058837890625 60.66493225097656 165.9058837890625 62.50128173828125 165.9058837890625 66.78607177734375 167.74224853515625 74.13143920898438 171.4149169921875 85.14947509765625 173.25128173828125 97.39173889160156 167.130126953125 122.48838806152344 167.130126953125 122.48838806152344 " />
        <polyline stroke="black" stroke-width="3" stroke-linecap="round" fill="transparent" stroke-linejoin="round" points="77.7615966796875 172.06956481933594 89.3917236328125 162.2757568359375 102.85821533203124 156.1546173095703 118.773193359375 150.0334930419922 132.851806640625 145.13658142089844 143.25772094726563 139.01544189453125 143.25772094726563 139.01544189453125 " />
        <polyline stroke="black" stroke-width="3" stroke-linecap="round" fill="transparent" stroke-linejoin="round" points="105.30670166015624 134.11854553222656 94.28863525390624 154.3182830810547 85.10693359375 180.02703857421875 78.37371826171875 197.16622924804688 71.0283203125 211.85693359375 67.35565185546875 219.20230102539065 65.51931762695313 220.426513671875 65.51931762695313 220.426513671875 " />
        <polyline stroke="black" stroke-width="3" stroke-linecap="round" fill="transparent" stroke-linejoin="round" points="83.88272094726563 183.08761596679688 99.79766845703124 190.4329833984375 109.59149169921876 197.7783203125 119.38531494140624 204.51156616210935 126.73065185546876 208.18426513671875 126.73065185546876 208.18426513671875 " />
        <polyline stroke="black" stroke-width="3" stroke-linecap="round" fill="transparent" stroke-linejoin="round" points="130.4033203125 154.93038940429688 147.54251098632813 150.64559936523438 161.009033203125 148.1971435546875 174.4754638671875 144.52447509765625 186.7177734375 139.6275634765625 186.7177734375 139.6275634765625 " />
        <polyline stroke="black" stroke-width="3" stroke-linecap="round" fill="transparent" stroke-linejoin="round" points="173.8634033203125 122.48838806152344 168.3543701171875 131.05796813964844 161.009033203125 146.36080932617188 150.60308837890625 173.90591430664063 144.48193359375 190.4329833984375 139.58502197265625 205.73580932617188 134.6881103515625 216.75384521484375 134.6881103515625 222.87496948242188 134.6881103515625 222.87496948242188 " />
        <polyline stroke="black" stroke-width="3" stroke-linecap="round" fill="transparent" stroke-linejoin="round" points="153.66363525390625 181.2512664794922 161.62109375 187.37240600585935 171.4149169921875 196.5541076660156 181.208740234375 206.34793090820313 191.0025634765625 217.97805786132813 200.18426513671875 238.1778259277344 200.18426513671875 238.1778259277344 " />
        </svg>