<?xml version="1.0" standalone="no"?>
    <svg width="256" height="256" xmlns="http://www.w3.org/2000/svg" version="1.1">
    <polyline stroke="black" stroke-width="3" stroke-linecap="round" fill="transparent" stroke-linejoin="round" points="151.92431640625 20.534912109375 146.26718139648438 27.404312133789063 140.61004638671875 34.273712158203125 126.06307983398438 50.841094970703125 117.9814453125 59.32682800292969 105.45489501953124 72.25747680664063 98.58544921875 79.93504333496094 95.352783203125 84.37994384765625 96.56503295898438 87.61260986328125 103.4344482421875 88.4207763671875 115.55694580078124 87.20854187011719 128.89166259765625 83.97586059570313 141.418212890625 79.93504333496094 153.1365966796875 74.68196105957031 160.814208984375 68.6207275390625 165.25909423828125 62.96357727050781 168.087646484375 58.51866149902344 169.2999267578125 55.690086364746094 170.10809326171875 53.66967010498047 170.10809326171875 52.86150360107422 170.916259765625 52.457420349121094 172.1285400390625 54.073753356933594 175.7652587890625 60.13499450683594 181.82647705078125 74.27789306640625 186.67547607421875 91.6534423828125 186.67547607421875 91.6534423828125 " />
        <polyline stroke="black" stroke-width="3" stroke-linecap="round" fill="transparent" stroke-linejoin="round" points="42.822021484375 171.2576904296875 50.095550537109375 170.04544067382813 57.36907958984375 168.83319091796875 65.45068359375 167.62095642089844 73.5323486328125 166.40869140625 92.12017822265624 163.17605590820313 111.11203002929688 159.13522338867188 128.08349609375 153.47805786132813 143.84271240234375 143.37600708007813 143.84271240234375 143.37600708007813 " />
        <polyline stroke="black" stroke-width="3" stroke-linecap="round" fill="transparent" stroke-linejoin="round" points="114.74871826171875 115.89839172363281 109.89974975585938 123.171875 105.05078125 130.4453582763672 98.98956298828124 139.7392578125 86.8670654296875 161.15562438964844 81.614013671875 172.06585693359375 73.5323486328125 188.63323974609375 68.27926635742188 201.1597900390625 65.046630859375 208.43328857421875 64.23846435546875 209.64553833007813 64.23846435546875 209.64553833007813 " />
        <polyline stroke="black" stroke-width="3" stroke-linecap="round" fill="transparent" stroke-linejoin="round" points="72.32012939453125 186.208740234375 81.20993041992188 192.674072265625 90.0997314453125 199.139404296875 99.39364624023438 204.79653930664065 104.24264526367188 206.41287231445313 104.24264526367188 206.41287231445313 " />
        <polyline stroke="black" stroke-width="3" stroke-linecap="round" fill="transparent" stroke-linejoin="round" points="150.71209716796875 135.69842529296875 156.3692626953125 134.48619079589844 162.02642822265625 133.27395629882813 167.68359375 132.46575927734375 177.78564453125 131.25352478027344 182.6346435546875 130.4453582763672 190.31219482421875 128.8290252685547 197.98974609375 125.59635925292967 197.98974609375 125.59635925292967 " />
        <polyline stroke="black" stroke-width="3" stroke-linecap="round" fill="transparent" stroke-linejoin="round" points="180.61419677734375 91.65341186523438 176.1693115234375 102.15957641601563 171.72442626953125 112.66574096679688 155.9652099609375 149.43724060058594 147.07537841796875 171.66177368164063 143.43865966796875 180.1475067138672 138.589599609375 192.674072265625 137.37738037109375 196.31082153320313 137.37738037109375 196.31082153320313 " />
        <polyline stroke="black" stroke-width="3" stroke-linecap="round" fill="transparent" stroke-linejoin="round" points="165.25909423828125 160.75152587890625 172.5325927734375 165.60052490234375 179.80609130859375 170.44952392578125 187.07952880859375 175.70260620117188 203.64691162109375 187.8250732421875 212.94085693359375 193.8863220214844 212.94085693359375 193.8863220214844 " />
        </svg>