<?xml version="1.0" standalone="no"?>
    <svg width="256" height="256" xmlns="http://www.w3.org/2000/svg" version="1.1">
    <polyline stroke="black" stroke-width="3" stroke-linecap="round" fill="transparent" stroke-linejoin="round" points="100.7896728515625 53.52772521972656 96.9373779296875 61.40924072265625 93.0850830078125 69.29075622558594 89.21017456054688 76.77304077148438 81.24200439453125 90.84188842773438 76.97152709960938 97.05209350585938 70.56866455078125 106.400146484375 68.3756103515625 109.07058715820313 66.310546875 110.96774291992188 66.22372436523438 111.04307556152344 66.22015380859375 111.04620361328124 66.2186279296875 111.0474853515625 66.2174072265625 111.04855346679688 69.05548095703125 110.9373779296875 74.04754638671875 110.12840270996094 87.72396850585938 105.96775817871094 95.08782958984376 103.1661376953125 117.47958374023438 95.75602722167967 135.5074462890625 90.42501831054688 141.93939208984375 88.22720336914063 159.98382568359375 85.275146484375 168.866455078125 84.72552490234375 173.0460205078125 84.67915344238281 175.8330078125 84.31248474121094 180.9307861328125 84.05616760253906 181.44061279296875 84.03053283691406 " />
        <polyline stroke="black" stroke-width="3" stroke-linecap="round" fill="transparent" stroke-linejoin="round" points="179.45135498046875 65.19084167480469 182.86688232421875 70.79220581054688 186.28240966796875 76.39356994628906 193.45623779296875 89.92453002929688 195.3621826171875 93.76919555664063 197.6785888671875 98.32069396972656 198.42022705078125 100.56365966796876 198.28973388671875 105.18609619140624 198.27923583984375 105.55795288085938 " />
        <polyline stroke="black" stroke-width="3" stroke-linecap="round" fill="transparent" stroke-linejoin="round" points="103.07183837890625 133.32992553710938 114.81820678710938 131.56234741210938 126.5645751953125 129.79476928710938 138.15185546875 127.43777465820313 141.82015991210938 126.52243041992188 151.0833740234375 125.37249755859376 154.35784912109375 124.8594970703125 154.685302734375 124.80821228027344 " />
        <polyline stroke="black" stroke-width="3" stroke-linecap="round" fill="transparent" stroke-linejoin="round" points="109.68749999999999 125.37234497070313 107.34140014648438 138.8663787841797 104.99530029296876 152.36041259765625 98.84725952148438 175.25375366210938 95.75726318359376 182.4627990722656 89.66171264648438 193.31982421875 86.99777221679688 195.58563232421875 79.2850341796875 200.54608154296875 79.54937744140625 198.88131713867188 " />
        <polyline stroke="black" stroke-width="3" stroke-linecap="round" fill="transparent" stroke-linejoin="round" points="107.49893188476565 161.23138427734375 118.89495849609376 170.12887573242188 130.29098510742188 179.0263671875 136.66928100585938 184.69918823242188 155.0704345703125 194.62335205078125 161.6103515625 196.69302368164065 161.68145751953125 196.7100830078125 161.6890869140625 196.71194458007813 " />
        <polyline stroke="black" stroke-width="3" stroke-linecap="round" fill="transparent" stroke-linejoin="round" points="146.65087890625 138.86981201171875 146.33590698242188 138.725341796875 146.02093505859375 138.58087158203125 156.9093017578125 137.99266052246094 163.24981689453125 137.40481567382813 176.44830322265625 135.4266357421875 191.2977294921875 132.34176635742188 197.009765625 130.78451538085938 199.6998291015625 128.4801025390625 199.711181640625 128.41073608398438 " />
        <polyline stroke="black" stroke-width="3" stroke-linecap="round" fill="transparent" stroke-linejoin="round" points="178.13250732421875 120.56488037109375 177.5408935546875 132.1567840576172 176.94927978515625 143.74868774414063 175.87493896484375 157.94149780273438 174.02093505859375 172.76345825195313 168.36224365234375 199.448974609375 163.19549560546875 214.85296630859375 161.48828125 217.73028564453125 158.2899169921875 219.33514404296875 158.28289794921875 217.59576416015625 158.28240966796875 217.4803771972656 " />
        <polyline stroke="black" stroke-width="3" stroke-linecap="round" fill="transparent" stroke-linejoin="round" points="178.564208984375 160.8304443359375 194.50537109375 173.850341796875 210.446533203125 186.8702392578125 217.13177490234375 192.21994018554688 231.188232421875 200.82049560546875 236.3038330078125 203.13714599609375 236.37799072265625 203.1500244140625 " />
        </svg>