<?xml version="1.0" standalone="no"?>
    <svg width="256" height="256" xmlns="http://www.w3.org/2000/svg" version="1.1">
    <polyline stroke="black" stroke-width="3" stroke-linecap="round" fill="transparent" stroke-linejoin="round" points="94 56 92 60 90 64 88 68 86 72 86 74 87 75 101 75 117 75 135 72 152 69 165 67 169 66 169 66 " />
        <polyline stroke="black" stroke-width="3" stroke-linecap="round" fill="transparent" stroke-linejoin="round" points="168 47 171 55 174 63 178 77 178 84 178 84 " />
        <polyline stroke="black" stroke-width="3" stroke-linecap="round" fill="transparent" stroke-linejoin="round" points="64 134 57 134 50 134 51 134 68 134 86 131 98 128 107 126 125 122 139 118 144 115 145 114 145 114 " />
        <polyline stroke="black" stroke-width="3" stroke-linecap="round" fill="transparent" stroke-linejoin="round" points="108 89 108 106 108 123 101 147 93 179 86 206 82 221 82 221 " />
        <polyline stroke="black" stroke-width="3" stroke-linecap="round" fill="transparent" stroke-linejoin="round" points="109 165 120 172 131 179 147 184 163 187 167 187 167 187 " />
        <polyline stroke="black" stroke-width="3" stroke-linecap="round" fill="transparent" stroke-linejoin="round" points="134 131 149 131 164 131 179 129 193 128 203 126 203 126 " />
        <polyline stroke="black" stroke-width="3" stroke-linecap="round" fill="transparent" stroke-linejoin="round" points="185 94 177 121 169 148 159 181 152 205 147 221 147 221 " />
        <polyline stroke="black" stroke-width="3" stroke-linecap="round" fill="transparent" stroke-linejoin="round" points="174 168 183 175 192 182 204 194 214 208 214 208 " />
        </svg>