<?xml version="1.0" standalone="no"?>
    <svg width="256" height="256" xmlns="http://www.w3.org/2000/svg" version="1.1">
    <polyline stroke="black" stroke-width="3" stroke-linecap="round" fill="transparent" stroke-linejoin="round" points="99.99432373046876 53.13746643066406 96.6485595703125 63.73225402832031 87.72665405273438 87.15231323242188 64.30657958984375 139.56863403320313 56.499908447265625 154.0667724609375 50.9237060546875 162.9886932373047 50.9237060546875 162.9886932373047 " />
        <polyline stroke="black" stroke-width="3" stroke-linecap="round" fill="transparent" stroke-linejoin="round" points="76.57424926757813 126.1857452392578 93.3028564453125 138.45339965820313 105.01287841796876 147.3753204345703 115.607666015625 154.6243896484375 125.64483642578124 157.97010803222656 125.64483642578124 157.97010803222656 " />
        <polyline stroke="black" stroke-width="3" stroke-linecap="round" fill="transparent" stroke-linejoin="round" points="172.4849853515625 49.79174041748047 166.90875244140625 68.19322204589844 159.10205078125 91.61328125 151.29541015625 110.01475524902344 144.60394287109375 127.85861206054688 139.02774047851563 144.02960205078125 139.02774047851563 144.02960205078125 " />
        <polyline stroke="black" stroke-width="3" stroke-linecap="round" fill="transparent" stroke-linejoin="round" points="170.2545166015625 120.05192565917967 181.4068603515625 121.16716003417967 193.116943359375 123.39764404296876 202.596435546875 127.30099487304688 211.5184326171875 134.550048828125 211.5184326171875 134.550048828125 " />
        <polyline stroke="black" stroke-width="3" stroke-linecap="round" fill="transparent" stroke-linejoin="round" points="73.228515625 194.2154541015625 86.61138916015625 189.1968688964844 113.934814453125 181.9477996826172 135.1243896484375 178.60206604003906 157.98681640625 176.37158203125 174.7154541015625 175.81396484375 188.09832763671875 176.37158203125 197.577880859375 179.71731567382813 197.577880859375 179.71731567382813 " />
        </svg>