<?xml version="1.0" standalone="no"?>
    <svg width="256" height="256" xmlns="http://www.w3.org/2000/svg" version="1.1">
    <polyline stroke="black" stroke-width="3" stroke-linecap="round" fill="transparent" stroke-linejoin="round" points="102 75 102 76 102 77 102 78 103 83 103 97 103 109 101 134 97 148 97 153 90 161 81 169 77 171 70 174 67 177 65 177 65 177 64 177 64 177 " />
        <polyline stroke="black" stroke-width="3" stroke-linecap="round" fill="transparent" stroke-linejoin="round" points="107 121 108 121 109 121 109 121 111 122 113 125 118 129 122 133 125 134 128 137 129 137 130 138 131 138 131 139 132 139 132 139 " />
        <polyline stroke="black" stroke-width="3" stroke-linecap="round" fill="transparent" stroke-linejoin="round" points="155 92 155 93 155 94 155 97 153 113 145 137 142 146 136 158 133 164 132 166 131 168 130 169 130 169 129 169 129 170 129 170 128 171 126 172 126 173 126 173 " />
        <polyline stroke="black" stroke-width="3" stroke-linecap="round" fill="transparent" stroke-linejoin="round" points="147 139 148 139 149 139 150 140 151 141 153 141 157 144 161 145 167 149 173 151 174 153 178 155 181 156 181 156 182 157 182 157 " />
        <polyline stroke="black" stroke-width="3" stroke-linecap="round" fill="transparent" stroke-linejoin="round" points="81 201 82 201 83 201 84 201 85 200 95 200 113 200 134 199 157 197 169 195 171 194 172 194 172 194 " />
        </svg>