<?xml version="1.0" standalone="no"?>
    <svg width="256" height="256" xmlns="http://www.w3.org/2000/svg" version="1.1">
    <polyline stroke="black" stroke-width="3" stroke-linecap="round" fill="transparent" stroke-linejoin="round" points="125.88043212890625 57.1182403564453 115.56942749023438 81.58624267578125 105.2584228515625 106.0542449951172 99.29794311523438 118.43692016601563 94.29559326171876 133.6998748779297 89.15536499023438 165.51287841796875 87.13494873046875 184.59112548828125 85.06369018554688 208.28561401367188 83.07479858398438 218.4580078125 82.83782958984375 219.78912353515625 82.81414794921875 219.92218017578125 82.81201171875 219.93389892578125 " />
        <polyline stroke="black" stroke-width="3" stroke-linecap="round" fill="transparent" stroke-linejoin="round" points="111.44036865234375 152.74090576171875 117.14828491210938 155.31228637695313 122.856201171875 157.8836669921875 142.52377319335938 164.8370819091797 148.980224609375 167.07455444335938 150.29074096679688 167.87181091308594 150.29931640625 167.87704467773438 " />
        <polyline stroke="black" stroke-width="3" stroke-linecap="round" fill="transparent" stroke-linejoin="round" points="176.64227294921875 75.81135559082031 175.35345458984375 83.79092407226563 174.06463623046875 91.77049255371094 171.2725830078125 116.3743133544922 168.4346923828125 141.86114501953125 167.70416259765625 153.6199951171875 167.72509765625 171.4013671875 168.69146728515625 180.13084411621094 168.806884765625 184.893798828125 168.81842041015625 185.3701171875 " />
        <polyline stroke="black" stroke-width="3" stroke-linecap="round" fill="transparent" stroke-linejoin="round" points="183.16387939453125 143.56573486328125 190.7598876953125 147.89584350585938 198.35589599609375 152.2259521484375 214.66326904296875 162.5599822998047 216.064697265625 163.10687255859375 218.38604736328125 165.63694763183594 218.58184814453125 165.80398559570313 " />
        <polyline stroke="black" stroke-width="3" stroke-linecap="round" fill="transparent" stroke-linejoin="round" points="121.96746826171875 200.46868896484375 135.797607421875 197.20242309570313 149.62774658203125 193.9361572265625 155.22265625 192.38629150390625 162.614013671875 190.519775390625 164.86083984375 189.80172729492188 165.02880859375 189.7432861328125 165.03924560546875 189.7396240234375 165.0433349609375 189.7381896972656 " />
        </svg>