<?xml version="1.0" standalone="no"?>
    <svg width="256" height="256" xmlns="http://www.w3.org/2000/svg" version="1.1">
    <polyline stroke="black" stroke-width="3" stroke-linecap="round" fill="transparent" stroke-linejoin="round" points="95 78 87 86 78 105 71 124 64 144 57 158 52 165 52 165 " />
        <polyline stroke="black" stroke-width="3" stroke-linecap="round" fill="transparent" stroke-linejoin="round" points="67 137 91 141 109 145 129 146 129 146 " />
        <polyline stroke="black" stroke-width="3" stroke-linecap="round" fill="transparent" stroke-linejoin="round" points="182 63 180 68 175 85 162 108 147 132 136 154 133 170 133 180 133 180 " />
        <polyline stroke="black" stroke-width="3" stroke-linecap="round" fill="transparent" stroke-linejoin="round" points="162 124 177 130 192 136 206 143 219 148 226 153 226 153 " />
        <polyline stroke="black" stroke-width="3" stroke-linecap="round" fill="transparent" stroke-linejoin="round" points="75 226 79 223 89 222 111 217 137 211 155 208 170 207 179 206 185 206 186 206 186 206 " />
        </svg>