<?xml version="1.0" standalone="no"?>
    <svg width="256" height="256" xmlns="http://www.w3.org/2000/svg" version="1.1">
    <polyline stroke="black" stroke-width="3" stroke-linecap="round" fill="transparent" stroke-linejoin="round" points="84.33334350585938 77.77778625488281 89.66665649414063 84 97.66665649414063 85.77778625488281 97.66665649414063 85.77778625488281 " />
        <polyline stroke="black" stroke-width="3" stroke-linecap="round" fill="transparent" stroke-linejoin="round" points="121.66668701171876 60.888885498046875 128.77777099609375 61.77778625488281 128.77777099609375 61.77778625488281 " />
        <polyline stroke="black" stroke-width="3" stroke-linecap="round" fill="transparent" stroke-linejoin="round" points="143.888916015625 51.111122131347656 129.66665649414063 75.11111450195313 103 108.88888549804688 84.33334350585938 126.66667175292967 84.33334350585938 126.66667175292967 " />
        <polyline stroke="black" stroke-width="3" stroke-linecap="round" fill="transparent" stroke-linejoin="round" points="57.666656494140625 127.55557250976563 50.555572509765625 145.33334350585938 44.333343505859375 158.6666717529297 40.77777099609375 165.7777862548828 36.333343505859375 171.11111450195313 36.333343505859375 171.11111450195313 " />
        <polyline stroke="black" stroke-width="3" stroke-linecap="round" fill="transparent" stroke-linejoin="round" points="83.4444580078125 112.44444274902344 107.4444580078125 104.44444274902344 131.4444580078125 99.11111450195313 160.77777099609375 94.66667175292967 172.33334350585938 94.66667175292967 177.66665649414063 94.66667175292967 183 96.4444580078125 187.4444580078125 105.33334350585938 187.4444580078125 124.888916015625 183 155.11111450195313 175.88888549804688 182.66668701171875 167.88888549804688 203.11111450195313 162.55557250976563 212 155.4444580078125 215.5555725097656 144.77777099609375 210.22222900390625 129.66665649414063 178.2222442626953 129.66665649414063 178.2222442626953 " />
        <polyline stroke="black" stroke-width="3" stroke-linecap="round" fill="transparent" stroke-linejoin="round" points="115.4444580078125 127.55557250976563 109.22222900390624 138.2222442626953 94.11111450195313 159.55555725097656 80.77777099609375 177.3333282470703 68.3333740234375 188.88888549804688 63 185.33334350585935 57.666656494140625 176.44444274902344 57.666656494140625 176.44444274902344 " />
        <polyline stroke="black" stroke-width="3" stroke-linecap="round" fill="transparent" stroke-linejoin="round" points="111 144.44444274902344 141.22222900390625 162.22222900390625 175 180.88888549804688 207 197.77777099609375 233.66668701171875 208.4444580078125 248.77777099609375 212 248.77777099609375 212 " />
        </svg>