<?xml version="1.0" standalone="no"?>
    <svg width="256" height="256" xmlns="http://www.w3.org/2000/svg" version="1.1">
    <polyline stroke="black" stroke-width="3" stroke-linecap="round" fill="transparent" stroke-linejoin="round" points="95.88888549804688 92.00001525878906 100.33334350585938 93.77780151367188 102.11111450195313 93.77780151367188 102.11111450195313 93.77780151367188 " />
        <polyline stroke="black" stroke-width="3" stroke-linecap="round" fill="transparent" stroke-linejoin="round" points="127.88888549804688 61.77778625488281 134.11111450195313 61.77778625488281 137.66665649414063 59.111114501953125 137.66665649414063 59.111114501953125 " />
        <polyline stroke="black" stroke-width="3" stroke-linecap="round" fill="transparent" stroke-linejoin="round" points="147.4444580078125 48.44444274902344 143 60.00001525878906 129.66665649414063 83.11111450195313 115.4444580078125 102.6667022705078 97.66665649414063 119.55555725097656 87.88888549804688 124 87.88888549804688 124 " />
        <polyline stroke="black" stroke-width="3" stroke-linecap="round" fill="transparent" stroke-linejoin="round" points="76.33334350585938 140 75.4444580078125 145.33334350585938 75.4444580078125 147.11114501953125 74.55557250976563 143.55555725097656 79.88888549804688 125.7777862548828 85.22222900390625 116.88888549804688 92.33334350585938 111.55558776855467 107.4444580078125 103.55555725097656 127.88888549804688 98.22224426269533 155.4444580078125 93.77780151367188 167 93.77780151367188 171.4444580078125 93.77780151367188 175 93.77780151367188 177.66665649414063 98.22224426269533 177.66665649414063 113.33332824707033 175 148.88888549804688 170.55557250976563 168.44444274902344 166.11111450195313 184.4444580078125 163.4444580078125 192.4444580078125 158.11111450195313 195.11111450195313 151.88888549804688 189.77777099609375 151.88888549804688 189.77777099609375 " />
        <polyline stroke="black" stroke-width="3" stroke-linecap="round" fill="transparent" stroke-linejoin="round" points="130.55557250976563 119.55555725097656 123.4444580078125 143.55555725097656 112.77780151367188 165.7777862548828 100.33334350585938 184.4444580078125 89.66665649414063 197.77777099609375 80.77777099609375 204 72.77780151367188 193.33334350585935 72.77780151367188 193.33334350585935 " />
        <polyline stroke="black" stroke-width="3" stroke-linecap="round" fill="transparent" stroke-linejoin="round" points="109.22222900390624 151.5555877685547 142.11111450195313 164 175 172 204.33334350585935 177.3333282470703 235.4444580078125 180.88888549804688 245.22222900390625 180.88888549804688 245.22222900390625 180.88888549804688 " />
        </svg>