<?xml version="1.0" standalone="no"?>
    <svg width="256" height="256" xmlns="http://www.w3.org/2000/svg" version="1.1">
    <polyline stroke="black" stroke-width="3" stroke-linecap="round" fill="transparent" stroke-linejoin="round" points="78.34744262695313 73.57460021972656 81.94683837890625 77.17398071289063 85.54620361328125 78.71658325195313 89.6597900390625 76.14558410644531 89.6597900390625 76.14558410644531 " />
        <polyline stroke="black" stroke-width="3" stroke-linecap="round" fill="transparent" stroke-linejoin="round" points="105.085693359375 57.634490966796875 110.2276611328125 61.74806213378906 115.36962890625 65.34744262695313 121.5400390625 65.86164855957031 121.5400390625 65.86164855957031 " />
        <polyline stroke="black" stroke-width="3" stroke-linecap="round" fill="transparent" stroke-linejoin="round" points="152.391845703125 49.40733337402344 144.1646728515625 60.71968078613281 132.33816528320313 74.08880615234375 120.51162719726563 84.88694763183594 120.51162719726563 84.88694763183594 " />
        <polyline stroke="black" stroke-width="3" stroke-linecap="round" fill="transparent" stroke-linejoin="round" points="80.40423583984375 102.88385009765624 75.77645874023438 114.71038818359376 70.12030029296875 126.53692626953124 65.49252319335938 134.2498779296875 62.921539306640625 139.391845703125 61.378936767578125 141.96282958984375 62.921539306640625 141.96282958984375 66.52090454101563 136.82086181640625 73.71966552734375 129.62210083007813 87.08880615234375 116.2529754638672 106.6282958984375 102.88385009765624 123.5968017578125 92.5998992919922 139.53692626953125 86.42953491210938 152.391845703125 83.34434509277344 161.1331787109375 82.83015441894531 166.275146484375 83.85855102539063 169.87457275390625 87.97212219238281 172.959716796875 105.454833984375 168.84619140625 132.70729064941406 160.10479736328125 159.95974731445313 150.8492431640625 181.0418243408203 143.6505126953125 195.4393615722656 137.99432373046875 201.60971069335935 128.22457885742188 208.29428100585935 120.51162719726563 207.78009033203125 115.36962890625 202.1239013671875 115.36962890625 202.1239013671875 " />
        <polyline stroke="black" stroke-width="3" stroke-linecap="round" fill="transparent" stroke-linejoin="round" points="111.770263671875 130.65049743652344 99.42953491210938 156.8745574951172 90.68817138671876 168.7010955810547 82.9752197265625 175.38565063476563 76.2906494140625 178.47084045410156 76.2906494140625 178.47084045410156 " />
        <polyline stroke="black" stroke-width="3" stroke-linecap="round" fill="transparent" stroke-linejoin="round" points="95.31597900390624 138.87765502929688 107.65667724609376 146.59060668945313 126.6820068359375 157.3887481689453 145.19308471679688 166.13011169433594 160.10479736328125 172.81466674804688 174.5023193359375 180.013427734375 174.5023193359375 180.013427734375 " />
        </svg>