<?xml version="1.0" standalone="no"?>
    <svg width="256" height="256" xmlns="http://www.w3.org/2000/svg" version="1.1">
    <polyline stroke="black" stroke-width="3" stroke-linecap="round" fill="transparent" stroke-linejoin="round" points="78 64 79 74 79 78 79 82 79 85 80 89 80 93 80 97 81 100 82 103 82 106 83 109 83 112 84 114 84 116 84 118 84 119 85 120 85 121 85 122 85 122 " />
        <polyline stroke="black" stroke-width="3" stroke-linecap="round" fill="transparent" stroke-linejoin="round" points="81 72 82 71 83 70 84 69 85 68 86 67 88 66 90 65 91 63 93 62 95 61 98 60 100 59 102 57 105 56 107 55 110 54 112 53 115 52 118 51 120 50 123 49 126 48 128 47 130 47 133 46 135 46 137 45 139 45 140 45 142 44 143 44 145 44 146 45 147 45 148 46 149 47 150 49 151 51 152 53 153 55 153 58 154 61 154 64 154 67 154 70 154 74 153 77 153 80 152 83 151 85 150 88 149 91 148 93 147 95 146 96 " />
        <polyline stroke="black" stroke-width="3" stroke-linecap="round" fill="transparent" stroke-linejoin="round" points="114 62 114 62 114 62 114 63 114 64 114 66 114 68 114 70 114 72 114 75 114 77 114 80 114 82 114 85 113 87 113 90 112 92 112 95 111 97 110 99 109 101 " />
        <polyline stroke="black" stroke-width="3" stroke-linecap="round" fill="transparent" stroke-linejoin="round" points="85 104 87 104 88 104 89 103 91 103 92 103 94 102 96 102 98 102 100 101 102 101 105 101 107 100 110 100 112 100 115 99 118 99 121 98 124 98 126 98 129 97 132 97 134 96 137 96 139 95 141 95 143 95 145 94 147 94 148 94 149 94 " />
        <polyline stroke="black" stroke-width="3" stroke-linecap="round" fill="transparent" stroke-linejoin="round" points="103 121 103 121 102 123 101 126 100 129 99 132 99 136 98 139 97 142 96 145 95 148 94 152 93 158 92 161 92 164 91 167 91 170 91 172 90 174 90 176 90 178 90 180 90 181 90 182 90 183 90 184 90 185 90 185 " />
        <polyline stroke="black" stroke-width="3" stroke-linecap="round" fill="transparent" stroke-linejoin="round" points="132 120 134 120 135 121 136 122 137 123 138 124 140 126 141 128 143 130 145 132 146 135 148 138 150 141 152 144 153 148 155 152 157 156 158 160 160 164 161 168 163 172 164 175 165 178 166 181 167 184 168 186 169 188 169 189 170 191 " />
        </svg>