<?xml version="1.0" standalone="no"?>
    <svg width="256" height="256" xmlns="http://www.w3.org/2000/svg" version="1.1">
    <polyline stroke="black" stroke-width="3" stroke-linecap="round" fill="transparent" stroke-linejoin="round" points="84.14666748046875 103.8716278076172 85.45391845703125 105.1789093017578 93.9512939453125 115.63719177246094 95.258544921875 116.94448852539063 101.14141845703124 117.59812927246094 108.33148193359376 113.02264404296876 109.63873291015624 111.71533203125 109.63873291015624 111.71533203125 " />
        <polyline stroke="black" stroke-width="3" stroke-linecap="round" fill="transparent" stroke-linejoin="round" points="132.51629638671875 93.41334533691406 133.8236083984375 94.06697082519533 145.589111328125 92.75968933105467 145.589111328125 92.75968933105467 " />
        <polyline stroke="black" stroke-width="3" stroke-linecap="round" fill="transparent" stroke-linejoin="round" points="152.77923583984375 92.75968933105467 125.97979736328124 113.67626953125 116.82879638671876 120.2126922607422 116.82879638671876 120.2126922607422 " />
        <polyline stroke="black" stroke-width="3" stroke-linecap="round" fill="transparent" stroke-linejoin="round" points="99.8341064453125 130.01734924316406 103.75592041015624 129.36373901367188 129.24798583984375 125.4418487548828 139.05267333984375 123.48092651367188 160.6229248046875 118.90542602539063 171.08123779296875 118.25177001953124 173.04217529296875 123.48092651367188 172.38848876953125 124.7882080078125 172.38848876953125 124.7882080078125 " />
        <polyline stroke="black" stroke-width="3" stroke-linecap="round" fill="transparent" stroke-linejoin="round" points="120.0970458984375 148.31936645507813 124.0189208984375 147.6657257080078 159.31561279296875 143.74388122558594 163.23748779296875 143.0902099609375 172.38848876953125 141.78294372558594 177.61761474609375 141.78294372558594 173.04217529296875 143.74388122558594 173.04217529296875 143.74388122558594 " />
        <polyline stroke="black" stroke-width="3" stroke-linecap="round" fill="transparent" stroke-linejoin="round" points="111.59967041015624 168.5823211669922 110.946044921875 171.19688415527344 108.98504638671876 192.11349487304688 108.98504638671876 194.72808837890625 110.29241943359376 207.14727783203125 111.59967041015624 211.7227783203125 114.21429443359376 215.6446228027344 116.82879638671876 217.6055908203125 122.71160888671876 218.25921630859375 131.86260986328125 214.33737182617188 144.93548583984375 203.87905883789065 154.08648681640625 194.07443237304688 157.35467529296875 189.4989013671875 157.35467529296875 189.4989013671875 " />
        <polyline stroke="black" stroke-width="3" stroke-linecap="round" fill="transparent" stroke-linejoin="round" points="156.7010498046875 191.4598388671875 156.7010498046875 195.38168334960935 160.6229248046875 220.22015380859375 161.93017578125 223.4883728027344 165.19842529296875 229.37115478515625 165.19842529296875 229.37115478515625 " />
        </svg>