<?xml version="1.0" standalone="no"?>
    <svg width="256" height="256" xmlns="http://www.w3.org/2000/svg" version="1.1">
    <polyline stroke="black" stroke-width="3" stroke-linecap="round" fill="transparent" stroke-linejoin="round" points="33.26422119140625 98.7119598388672 33.321624755859375 111.2330322265625 33.4742431640625 132.24742126464844 33.55206298828125 149.80459594726563 32.923919677734375 155.55050659179688 31.36016845703125 160.93460083007813 30.766693115234375 161.38961791992188 30.50799560546875 161.58798217773438 30.467498779296875 161.61904907226563 30.43328857421875 161.6453094482422 30.425750732421875 161.65109252929688 30.8072509765625 161.833984375 34.47857666015625 162.49276733398438 39.52294921875 162.66818237304688 60.535858154296875 160.9204559326172 69.43063354492188 159.1422119140625 89.65707397460938 155.05528259277344 99.58447265625 153.64117431640625 112.18524169921876 151.8065643310547 114.286865234375 151.47018432617188 114.84515380859376 151.68612670898438 114.95916748046876 151.73019409179688 " />
        <polyline stroke="black" stroke-width="3" stroke-linecap="round" fill="transparent" stroke-linejoin="round" points="115.501220703125 95.18544006347656 116.20736694335938 106.7295379638672 116.8131103515625 125.7866668701172 117.12130737304688 136.84100341796875 117.15155029296876 137.14663696289063 " />
        <polyline stroke="black" stroke-width="3" stroke-linecap="round" fill="transparent" stroke-linejoin="round" points="73.56463623046875 122.8423309326172 76.87353515625 168.24569702148438 77.34869384765625 185.09243774414065 76.694091796875 215.6504821777344 75.69696044921875 228.16830444335935 75.3055419921875 227.93560791015625 " />
        <polyline stroke="black" stroke-width="3" stroke-linecap="round" fill="transparent" stroke-linejoin="round" points="146.9892578125 114.11558532714844 148.76385498046875 147.48419189453125 148.89886474609375 160.13584899902344 148.47982788085938 169.44833374023438 148.34368896484375 170.7431640625 148.33074951171875 170.86676025390625 148.32919311523438 170.88104248046875 148.32894897460938 170.88348388671875 148.32870483398438 170.8857879638672 149.667236328125 170.96600341796875 157.0460205078125 172.08518981933594 170.6107177734375 173.02816772460938 177.9202880859375 173.45703125 191.0003662109375 172.92578125 196.35986328125 172.5500946044922 200.2755126953125 172.29824829101563 205.33355712890625 171.52757263183594 206.2242431640625 171.2174072265625 210.29510498046875 167.99227905273438 211.18310546875 166.88865661621094 " />
        <polyline stroke="black" stroke-width="3" stroke-linecap="round" fill="transparent" stroke-linejoin="round" points="208.9697265625 97.52053833007813 209.74951171875 109.08596801757813 211.2503662109375 121.60874938964844 212.22161865234375 129.29782104492188 213.578125 138.1427001953125 216.0355224609375 144.7576904296875 216.224365234375 147.1798095703125 216.26300048828125 147.67575073242188 " />
        <polyline stroke="black" stroke-width="3" stroke-linecap="round" fill="transparent" stroke-linejoin="round" points="180.2239990234375 64.38951110839844 180.09942626953125 80.66790771484375 181.22576904296875 114.33927917480467 181.3841552734375 146.83502197265625 181.38671875 164.02908325195313 180.64202880859375 181.18765258789065 180.474853515625 186.30706787109375 176.9300537109375 203.8671875 173.660400390625 222.08743286132813 173.1494140625 223.8160400390625 " />
        </svg>