<?xml version="1.0" standalone="no"?>
    <svg width="256" height="256" xmlns="http://www.w3.org/2000/svg" version="1.1">
    <polyline stroke="black" stroke-width="3" stroke-linecap="round" fill="transparent" stroke-linejoin="round" points="73 61 72 61 71 64 70 69 68 76 65 83 63 91 62 98 60 105 59 110 58 115 57 121 57 123 57 125 57 125 57 126 58 126 61 127 64 127 68 126 77 124 83 121 90 117 96 113 102 109 107 105 110 103 113 101 114 100 115 100 116 100 116 100 115 100 115 101 115 101 114 102 114 103 114 104 113 105 113 107 113 108 112 110 112 111 112 112 112 113 112 113 112 112 112 112 " />
        <polyline stroke="black" stroke-width="3" stroke-linecap="round" fill="transparent" stroke-linejoin="round" points="103 53 103 53 103 55 103 59 101 72 98 83 96 97 92 111 89 126 86 139 83 152 81 162 79 171 77 179 75 184 73 188 72 190 72 191 " />
        <polyline stroke="black" stroke-width="3" stroke-linecap="round" fill="transparent" stroke-linejoin="round" points="134 75 134 74 134 76 133 79 132 84 131 90 131 95 130 101 130 106 130 113 130 116 131 119 131 121 132 122 133 123 134 123 136 123 138 121 144 117 148 113 152 108 156 103 160 98 164 94 166 91 169 90 171 89 173 89 174 90 176 91 177 93 178 94 179 95 179 97 180 98 180 98 180 99 180 100 180 100 " />
        <polyline stroke="black" stroke-width="3" stroke-linecap="round" fill="transparent" stroke-linejoin="round" points="160 56 158 60 157 67 155 75 154 85 152 98 149 118 147 133 146 147 144 160 142 172 141 182 140 192 140 200 141 203 " />
        </svg>