<?xml version="1.0" standalone="no"?>
    <svg width="256" height="256" xmlns="http://www.w3.org/2000/svg" version="1.1">
    <polyline stroke="black" stroke-width="3" stroke-linecap="round" fill="transparent" stroke-linejoin="round" points="46.5 143.75 45.25 160 45.25 168.75 45.25 171.25 45.25 173.75 46.5 175 46.5 176.25 54 171.25 62.75 162.5 72.75 151.25 87.75 140 92.75 135 95.25 133.75 97.75 131.25 99 131.25 100.25 130 100.25 130 " />
        <polyline stroke="black" stroke-width="3" stroke-linecap="round" fill="transparent" stroke-linejoin="round" points="116.5 107.5 117.75 111.25 117.75 121.25 117.75 127.5 117.75 128.75 117.75 131.25 116.5 131.25 116.5 131.25 " />
        <polyline stroke="black" stroke-width="3" stroke-linecap="round" fill="transparent" stroke-linejoin="round" points="84 68.75 85.25 72.5 87.75 80 90.25 91.25 90.25 107.5 90.25 117.5 89 141.25 86.5 166.25 85.25 186.25 85.25 200 84 206.25 84 216.25 82.75 223.75 81.5 227.5 80.25 228.75 77.75 230 77.75 230 " />
        <polyline stroke="black" stroke-width="3" stroke-linecap="round" fill="transparent" stroke-linejoin="round" points="139 107.5 137.75 120 139 125 140.25 133.75 140.25 138.75 141.5 140 141.5 142.5 142.75 143.75 151.5 137.5 169 122.5 182.75 113.75 187.75 110 190.25 108.75 192.75 107.5 192.75 106.25 194 106.25 194 105 195.25 102.5 195.25 102.5 " />
        <polyline stroke="black" stroke-width="3" stroke-linecap="round" fill="transparent" stroke-linejoin="round" points="214 77.5 215.25 83.75 215.25 88.75 216.5 101.25 216.5 111.25 216.5 113.75 215.25 117.5 215.25 118.75 215.25 118.75 " />
        <polyline stroke="black" stroke-width="3" stroke-linecap="round" fill="transparent" stroke-linejoin="round" points="170.25 52.5 171.5 61.25 172.75 73.75 172.75 82.5 175.25 103.75 179 126.25 182.75 147.5 185.25 158.75 189 181.25 192.75 200 195.25 213.75 196.5 218.75 196.5 226.25 196.5 233.75 196.5 238.75 196.5 240 197.75 242.5 197.75 242.5 " />
        </svg>