<?xml version="1.0" standalone="no"?>
    <svg width="256" height="256" xmlns="http://www.w3.org/2000/svg" version="1.1">
    <polyline stroke="black" stroke-width="3" stroke-linecap="round" fill="transparent" stroke-linejoin="round" points="64.99993896484375 123.68391418457033 64.99993896484375 135.3365478515625 65.40170288085938 141.36378479003906 65.80352783203125 148.1946258544922 66.205322265625 153.0164031982422 66.60714721679688 155.82911682128906 67.00897216796875 156.63275146484375 67.8126220703125 156.63275146484375 70.62530517578125 155.82911682128906 80.26885986328125 152.2127685546875 91.9215087890625 146.98919677734375 105.98501586914063 141.7655792236328 114.824951171875 137.7474365234375 120.04855346679688 135.3365478515625 121.25399780273438 134.5329132080078 121.65582275390624 134.5329132080078 122.86126708984376 134.5329132080078 129.69210815429688 132.12200927734375 129.69210815429688 132.12200927734375 " />
        <polyline stroke="black" stroke-width="3" stroke-linecap="round" fill="transparent" stroke-linejoin="round" points="120.45034790039063 101.18226623535156 120.45034790039063 108.81675720214844 120.45034790039063 115.2458038330078 120.04855346679688 119.26394653320313 120.04855346679688 119.26394653320313 " />
        <polyline stroke="black" stroke-width="3" stroke-linecap="round" fill="transparent" stroke-linejoin="round" points="99.15414428710938 98.77137756347656 96.7432861328125 125.29118347167967 93.126953125 151.00733947753906 88.30517578125 175.51805114746094 80.67068481445313 202.84149169921875 73.03616333007813 230.56671142578125 71.02713012695313 234.18304443359375 71.02713012695313 234.18304443359375 " />
        <polyline stroke="black" stroke-width="3" stroke-linecap="round" fill="transparent" stroke-linejoin="round" points="149.78289794921875 121.67483520507813 150.18472290039063 126.8984375 150.58648681640625 132.12200927734375 150.98831176757813 135.73837280273438 152.5955810546875 137.7474365234375 157.81915283203125 138.14926147460938 165.05181884765625 136.9438018798828 172.68634033203125 135.3365478515625 179.1153564453125 134.13111877441406 183.9371337890625 132.9256591796875 186.74981689453125 132.12200927734375 190.3662109375 131.72019958496094 195.18798828125 130.5147705078125 195.18798828125 130.5147705078125 " />
        <polyline stroke="black" stroke-width="3" stroke-linecap="round" fill="transparent" stroke-linejoin="round" points="197.59881591796875 117.25486755371094 197.59881591796875 125.29118347167967 198.00067138671875 134.5329132080078 198.00067138671875 142.16741943359375 197.59881591796875 148.59645080566406 197.59881591796875 148.59645080566406 " />
        <polyline stroke="black" stroke-width="3" stroke-linecap="round" fill="transparent" stroke-linejoin="round" points="175.90087890625 67.4298095703125 174.69537353515625 98.36955261230467 174.2935791015625 127.70207214355467 173.48992919921875 155.02548217773438 172.28448486328125 179.1343994140625 170.67724609375 200.8323974609375 170.27545166015625 218.1104431152344 171.07904052734375 234.18304443359375 171.07904052734375 234.18304443359375 " />
        </svg>