<?xml version="1.0" standalone="no"?>
    <svg width="256" height="256" xmlns="http://www.w3.org/2000/svg" version="1.1">
    <polyline stroke="black" stroke-width="3" stroke-linecap="round" fill="transparent" stroke-linejoin="round" points="36.72088623046875 111.40200805664063 51.9339599609375 109.2890625 69.68255615234375 105.48580932617188 93.7698974609375 99.14703369140624 99.68612670898438 97.45669555664063 107.7152099609375 93.65342712402344 113.63143920898438 88.5823974609375 113.63143920898438 88.5823974609375 " />
        <polyline stroke="black" stroke-width="3" stroke-linecap="round" fill="transparent" stroke-linejoin="round" points="63.766357421875 47.169036865234375 60.80828857421875 66.18537902832031 60.38568115234375 81.821044921875 60.38568115234375 97.03411865234376 61.2308349609375 121.54405212402344 61.653411865234375 132.53128051757813 63.34375 146.47659301757813 64.18893432617188 150.27984619140625 65.45672607421875 152.39276123046875 66.3018798828125 152.39276123046875 66.3018798828125 152.39276123046875 " />
        <polyline stroke="black" stroke-width="3" stroke-linecap="round" fill="transparent" stroke-linejoin="round" points="97.15057373046876 57.31109619140625 97.99578857421876 75.48225402832031 97.99578857421876 83.08879089355469 97.57318115234376 90.69534301757813 95.03768920898438 106.33097839355467 86.5859375 127.88284301757813 77.2890625 140.56039428710938 69.25994873046875 148.1669158935547 63.766357421875 152.39276123046875 60.80828857421875 154.08311462402344 60.38568115234375 154.08311462402344 62.92120361328125 152.8153533935547 66.72445678710938 151.12503051757813 85.31820678710938 143.5184783935547 97.99578857421876 137.602294921875 97.99578857421876 137.602294921875 " />
        <polyline stroke="black" stroke-width="3" stroke-linecap="round" fill="transparent" stroke-linejoin="round" points="161.383544921875 50.972312927246094 154.6221923828125 64.07244873046875 151.24151611328125 71.25640869140625 144.05755615234375 84.77912902832031 138.141357421875 96.61151123046876 132.64776611328125 106.75357055664063 128.844482421875 113.09234619140624 125.88641357421876 117.74078369140624 125.46380615234376 118.58596801757813 125.46380615234376 118.58596801757813 " />
        <polyline stroke="black" stroke-width="3" stroke-linecap="round" fill="transparent" stroke-linejoin="round" points="143.63494873046875 93.65342712402344 158.00286865234375 88.15982055664063 163.9190673828125 86.469482421875 185.04833984375 82.24362182617188 192.2322998046875 81.39845275878906 206.6002197265625 79.70809936523438 218.43255615234375 79.70809936523438 226.88427734375 79.70809936523438 232.80047607421875 80.13069152832031 232.80047607421875 80.13069152832031 " />
        <polyline stroke="black" stroke-width="3" stroke-linecap="round" fill="transparent" stroke-linejoin="round" points="172.37078857421875 102.5277099609375 171.94818115234375 117.74078369140624 172.7933349609375 134.64419555664063 173.2159423828125 143.09588623046875 174.48370361328125 163.80258178710938 174.90625 179.438232421875 173.6385498046875 190.00286865234375 171.94818115234375 195.4964599609375 168.1448974609375 197.60940551757813 168.1448974609375 197.60940551757813 " />
        <polyline stroke="black" stroke-width="3" stroke-linecap="round" fill="transparent" stroke-linejoin="round" points="111.51849365234376 157.4637908935547 124.61862182617188 165.07034301757813 130.9573974609375 168.45101928710938 137.71875 171.4091033935547 152.086669921875 175.63494873046875 170.2578125 173.52203369140625 170.2578125 173.52203369140625 " />
        <polyline stroke="black" stroke-width="3" stroke-linecap="round" fill="transparent" stroke-linejoin="round" points="223.08099365234375 134.64419555664063 212.93896484375 146.47659301757813 209.13568115234375 151.54759216308594 204.48724365234375 157.88638305664063 192.6549072265625 178.17047119140625 192.6549072265625 178.17047119140625 " />
        </svg>