<?xml version="1.0" standalone="no"?>
    <svg width="256" height="256" xmlns="http://www.w3.org/2000/svg" version="1.1">
    <polyline stroke="black" stroke-width="3" stroke-linecap="round" fill="transparent" stroke-linejoin="round" points="55.577392578125 76.30999755859375 76.63470458984375 70.3731689453125 84.9302978515625 68.78271484375 104.60693359375 64.82489013671875 115.03466796875 62.48896789550781 134.60394287109375 58.669769287109375 143.42474365234375 57.37640380859375 160.916259765625 55.901275634765625 172.76068115234375 54.27540588378906 173.57861328125 53.56614685058594 173.712890625 53.18675231933594 173.7261962890625 53.1492919921875 " />
        <polyline stroke="black" stroke-width="3" stroke-linecap="round" fill="transparent" stroke-linejoin="round" points="107.48590087890624 48.96534729003906 92.01425170898438 71.1927490234375 83.21713256835938 89.79083251953125 78.69967651367188 99.9923095703125 69.146240234375 121.30181884765624 57.200439453125 146.05364990234375 53.395599365234375 155.23757934570313 49.201995849609375 161.61972045898438 48.78265380859375 162.25796508789063 " />
        <polyline stroke="black" stroke-width="3" stroke-linecap="round" fill="transparent" stroke-linejoin="round" points="111.6571044921875 81.87162780761719 135.580810546875 90.4150848388672 153.8990478515625 99.10116577148438 163.76776123046875 104.25091552734376 179.18939208984375 113.01506042480467 182.95220947265625 115.37338256835938 186.6492919921875 116.68907165527344 186.80389404296875 116.73284912109376 186.84332275390625 116.74404907226563 " />
        <polyline stroke="black" stroke-width="3" stroke-linecap="round" fill="transparent" stroke-linejoin="round" points="69.94491577148438 162.51519775390625 87.38287353515625 155.35284423828125 96.11337280273438 153.25103759765625 115.610595703125 149.14767456054688 132.72503662109375 145.7843475341797 138.66412353515625 144.42941284179688 143.783447265625 142.96836853027344 149.2041015625 140.7748260498047 149.6534423828125 140.04739379882813 150.26828002929688 139.31796264648438 150.43841552734375 139.11605834960938 " />
        <polyline stroke="black" stroke-width="3" stroke-linecap="round" fill="transparent" stroke-linejoin="round" points="106.5589599609375 116.1683349609375 98.97967529296876 134.83184814453125 94.89361572265624 144.9487762451172 89.93600463867188 157.74618530273438 78.83148193359375 183.38473510742188 66.88067626953125 208.8431396484375 61.999267578125 217.321044921875 57.870208740234375 223.13433837890625 51.114349365234375 228.49261474609375 52.83758544921875 224.64715576171875 " />
        <polyline stroke="black" stroke-width="3" stroke-linecap="round" fill="transparent" stroke-linejoin="round" points="106.5589599609375 175.4923095703125 134.07919311523438 190.20281982421875 143.75103759765625 196.30050659179688 163.66845703125 207.5772399902344 173.79681396484375 212.21792602539065 182.6171875 214.72213745117188 185.8802490234375 216.35577392578125 185.944091796875 216.42333984375 " />
        </svg>