<?xml version="1.0" standalone="no"?>
    <svg width="256" height="256" xmlns="http://www.w3.org/2000/svg" version="1.1">
    <polyline stroke="black" stroke-width="3" stroke-linecap="round" fill="transparent" stroke-linejoin="round" points="79.736572265625 100.76916503906247 88.74188232421875 97.76739501953124 97.7471923828125 94.765625 107.75314331054688 91.76382446289063 116.75848388671876 89.42912292480469 132.76800537109375 85.76026916503906 146.44281005859375 82.75848388671875 154.447509765625 80.42378234863281 164.4534912109375 75.75433349609375 164.4534912109375 75.75433349609375 " />
        <polyline stroke="black" stroke-width="3" stroke-linecap="round" fill="transparent" stroke-linejoin="round" points="136.10333251953125 34.39646911621094 133.10153198242188 42.06768035888672 130.0997314453125 49.7388916015625 125.4302978515625 61.07896423339844 112.756103515625 90.76324462890624 99.41488647460938 119.44692993164063 95.07894897460938 129.11932373046875 89.74249267578125 141.12644958496094 88.4083251953125 144.46177673339844 88.4083251953125 144.46177673339844 " />
        <polyline stroke="black" stroke-width="3" stroke-linecap="round" fill="transparent" stroke-linejoin="round" points="123.42910766601563 102.43679809570313 131.100341796875 103.1038818359375 138.77157592773438 103.77096557617188 145.77572631835938 104.77154541015624 152.44635009765625 106.10568237304688 164.7869873046875 109.1074676513672 173.125244140625 111.108642578125 187.8006591796875 115.11102294921876 187.8006591796875 115.11102294921876 " />
        <polyline stroke="black" stroke-width="3" stroke-linecap="round" fill="transparent" stroke-linejoin="round" points="76.06771850585938 177.14779663085938 85.40658569335938 173.8125 94.74545288085938 170.47720336914063 115.42437744140624 163.47305297851563 132.10092163085938 158.13653564453125 139.10507202148438 156.13536071777344 154.114013671875 152.1329803466797 172.12469482421875 144.7952880859375 179.12884521484375 140.79293823242188 179.12884521484375 140.79293823242188 " />
        <polyline stroke="black" stroke-width="3" stroke-linecap="round" fill="transparent" stroke-linejoin="round" points="141.77334594726563 105.77214050292972 132.76800537109375 125.4504852294922 123.76266479492188 145.1288299560547 118.4261474609375 157.13595581054688 100.41546630859376 190.15554809570313 94.74545288085938 199.160888671875 94.74545288085938 199.160888671875 " />
        <polyline stroke="black" stroke-width="3" stroke-linecap="round" fill="transparent" stroke-linejoin="round" points="124.4298095703125 159.80419921875 131.43389892578125 161.80538940429688 138.43798828125 163.80657958984375 153.44696044921875 168.80955505371094 166.45465087890625 174.8131103515625 180.7965087890625 182.48431396484375 199.80780029296875 194.15792846679688 199.80780029296875 194.15792846679688 " />
        </svg>