<?xml version="1.0" standalone="no"?>
    <svg width="256" height="256" xmlns="http://www.w3.org/2000/svg" version="1.1">
    <polyline stroke="black" stroke-width="3" stroke-linecap="round" fill="transparent" stroke-linejoin="round" points="101.46133422851563 50.259010314941406 96.56442260742188 63.72550964355469 86.15850830078125 83.92524719238281 67.79510498046875 113.3066864013672 53.1043701171875 134.11854553222656 40.86212158203125 150.0334930419922 33.516754150390625 157.37884521484375 33.516754150390625 157.37884521484375 " />
        <polyline stroke="black" stroke-width="3" stroke-linecap="round" fill="transparent" stroke-linejoin="round" points="70.85565185546875 120.03993225097656 69.63143920898438 134.11854553222656 64.12240600585938 167.17266845703125 56.1649169921875 192.26931762695313 51.268035888671875 205.73580932617188 49.43170166015625 212.46905517578125 50.655914306640625 213.6932678222656 50.655914306640625 213.6932678222656 " />
        <polyline stroke="black" stroke-width="3" stroke-linecap="round" fill="transparent" stroke-linejoin="round" points="152.2667236328125 71.6829833984375 158.38787841796875 79.02833557128906 168.7938232421875 88.82215881347656 179.81182861328125 99.84019470214844 189.60565185546875 109.63400268554688 196.3388671875 116.9793701171875 201.23583984375 122.48838806152344 204.908447265625 128.60952758789063 204.908447265625 128.60952758789063 " />
        <polyline stroke="black" stroke-width="3" stroke-linecap="round" fill="transparent" stroke-linejoin="round" points="155.3272705078125 104.12498474121094 155.939453125 118.20359802246094 156.551513671875 134.11854553222656 158.38787841796875 151.25772094726563 159.612060546875 167.78477478027344 159.612060546875 180.63916015625 159 190.4329833984375 157.7757568359375 197.16622924804688 154.7152099609375 203.89947509765625 154.7152099609375 203.89947509765625 " />
        </svg>