<?xml version="1.0" standalone="no"?>
    <svg width="256" height="256" xmlns="http://www.w3.org/2000/svg" version="1.1">
    <polyline stroke="black" stroke-width="3" stroke-linecap="round" fill="transparent" stroke-linejoin="round" points="96.773193359375 45.974220275878906 84.53091430664063 69.84663391113281 66.77963256835938 102.9007568359375 52.701019287109375 127.3852996826172 44.131439208984375 144.52447509765625 39.84661865234375 153.70616149902344 38.622406005859375 157.990966796875 38.622406005859375 157.990966796875 " />
        <polyline stroke="black" stroke-width="3" stroke-linecap="round" fill="transparent" stroke-linejoin="round" points="68.615966796875 129.833740234375 67.3917236328125 153.70616149902344 63.10693359375 190.4329833984375 60.65850830078125 208.79635620117188 58.21002197265625 223.48709106445313 58.21002197265625 230.2203369140625 60.65850830078125 231.444580078125 68.00384521484375 224.0992126464844 68.00384521484375 224.0992126464844 " />
        <polyline stroke="black" stroke-width="3" stroke-linecap="round" fill="transparent" stroke-linejoin="round" points="150.63916015625 70.45875549316406 159.208740234375 82.70101928710938 170.8388671875 98.615966796875 181.85693359375 115.1430206298828 191.6507568359375 129.833740234375 197.7718505859375 142.07601928710938 198.99609375 148.1971435546875 198.99609375 148.1971435546875 " />
        <polyline stroke="black" stroke-width="3" stroke-linecap="round" fill="transparent" stroke-linejoin="round" points="161.6572265625 130.44586181640625 161.0450439453125 141.46389770507813 162.88140869140625 157.37884521484375 166.5540771484375 176.3543701171875 169.61468505859375 195.9419860839844 172.0631103515625 214.30538940429688 172.0631103515625 214.30538940429688 " />
        </svg>