<?xml version="1.0" standalone="no"?>
    <svg width="256" height="256" xmlns="http://www.w3.org/2000/svg" version="1.1">
    <polyline stroke="black" stroke-width="3" stroke-linecap="round" fill="transparent" stroke-linejoin="round" points="86.77059936523438 52.09535217285156 79.42523193359375 73.51931762695313 67.79510498046875 97.39173889160156 56.77703857421875 115.75514221191406 47.5953369140625 130.44586181640625 42.698455810546875 139.6275634765625 41.474212646484375 143.912353515625 43.92266845703125 140.85179138183594 43.92266845703125 140.85179138183594 " />
        <polyline stroke="black" stroke-width="3" stroke-linecap="round" fill="transparent" stroke-linejoin="round" points="70.85565185546875 121.26416015625 72.07989501953125 140.2396697998047 72.07989501953125 168.3968963623047 69.63143920898438 196.5541076660156 65.958740234375 218.59017944335935 62.898193359375 234.505126953125 62.898193359375 234.505126953125 " />
        <polyline stroke="black" stroke-width="3" stroke-linecap="round" fill="transparent" stroke-linejoin="round" points="152.2667236328125 55.768035888671875 162.67266845703125 68.62240600585938 174.9149169921875 82.70101928710938 185.9329833984375 94.94328308105467 195.11468505859375 105.34921264648438 200.6236572265625 112.08245849609376 204.29638671875 117.59147644042967 204.29638671875 117.59147644042967 " />
        <polyline stroke="black" stroke-width="3" stroke-linecap="round" fill="transparent" stroke-linejoin="round" points="163.2847900390625 126.16107177734376 164.509033203125 148.1971435546875 166.95745849609375 170.8453369140625 169.4058837890625 190.4329833984375 171.24224853515625 212.46905517578125 171.24224853515625 230.83245849609375 171.24224853515625 230.83245849609375 " />
        </svg>