<?xml version="1.0" standalone="no"?>
    <svg width="256" height="256" xmlns="http://www.w3.org/2000/svg" version="1.1">
    <polyline stroke="black" stroke-width="3" stroke-linecap="round" fill="transparent" stroke-linejoin="round" points="85.12966918945313 50.20396423339842 73.14886474609375 72.11166381835938 61.168060302734375 94.01936340332033 55.691131591796875 103.60398864746094 50.8988037109375 111.8193817138672 43.7103271484375 122.43093872070313 40.28729248046875 126.5386199951172 39.260345458984375 126.5386199951172 39.260345458984375 126.5386199951172 " />
        <polyline stroke="black" stroke-width="3" stroke-linecap="round" fill="transparent" stroke-linejoin="round" points="87.1834716796875 57.392425537109375 94.7142333984375 56.36549377441406 102.2449951171875 55.33856201171875 128.60272216796875 55.33856201171875 135.44891357421875 56.023193359375 147.42965698242188 59.10395812988281 149.48348999023438 59.78857421875 149.48348999023438 59.78857421875 " />
        <polyline stroke="black" stroke-width="3" stroke-linecap="round" fill="transparent" stroke-linejoin="round" points="97.11038208007813 95.38858032226558 96.42578125 110.10783386230467 95.74118041992188 124.82708740234376 95.39886474609376 141.94248962402344 94.7142333984375 161.11172485351563 93.68734741210938 177.54251098632813 91.97576904296876 186.1002197265625 90.9488525390625 187.811767578125 89.57965087890625 188.49636840820313 89.57965087890625 188.49636840820313 " />
        <polyline stroke="black" stroke-width="3" stroke-linecap="round" fill="transparent" stroke-linejoin="round" points="46.106536865234375 149.8155517578125 53.637298583984375 148.4463348388672 61.168060302734375 147.07711791992188 70.41036987304688 144.6809539794922 79.9949951171875 140.5732421875 101.9027099609375 128.93478393554688 119.36041259765624 118.32322692871094 127.9180908203125 113.18862915039063 132.36810302734375 110.79246520996094 133.7373046875 110.45016479492188 133.39501953125 111.8193817138672 129.629638671875 118.66552734375 121.75656127929688 129.619384765625 117.30657958984376 135.0963134765625 112.85653686523438 140.5732421875 112.85653686523438 140.5732421875 " />
        <polyline stroke="black" stroke-width="3" stroke-linecap="round" fill="transparent" stroke-linejoin="round" points="135.79119873046875 92.30780029296875 144.006591796875 87.85781860351563 152.22198486328125 83.4078369140625 161.46429443359375 78.61550903320313 170.02197265625 74.16551208496094 196.7220458984375 59.78857421875 209.04510498046875 52.25779724121094 215.2066650390625 46.78086853027344 215.2066650390625 46.78086853027344 " />
        <polyline stroke="black" stroke-width="3" stroke-linecap="round" fill="transparent" stroke-linejoin="round" points="172.76043701171875 41.98854064941406 170.70660400390625 51.915489196777344 168.65277099609375 61.842437744140625 165.22967529296875 83.7501220703125 162.83349609375 102.57707214355467 162.14892578125 115.24246215820313 162.4912109375 121.74632263183594 163.5181884765625 122.7732391357422 163.5181884765625 122.7732391357422 " />
        <polyline stroke="black" stroke-width="3" stroke-linecap="round" fill="transparent" stroke-linejoin="round" points="207.6759033203125 30.69239044189453 206.99127197265625 41.988555908203125 206.306640625 53.28472137451172 204.2528076171875 66.29241943359375 197.0643310546875 92.650146484375 186.79510498046875 113.87322998046876 178.2374267578125 125.51170349121094 171.0489501953125 132.0155487060547 169.33740234375 133.38479614257813 168.99505615234375 133.38479614257813 170.02197265625 132.35784912109375 172.41815185546875 130.98863220214844 188.164306640625 123.80015563964844 200.1451416015625 119.0078582763672 207.6759033203125 117.29631042480467 210.414306640625 117.63861083984376 210.072021484375 119.35015869140624 191.58740234375 136.46556091308594 166.94122314453125 152.2117156982422 152.22198486328125 160.7694091796875 145.37582397460938 164.8771209716797 142.63739013671875 166.58865356445313 142.29501342773438 167.27328491210938 143.32196044921875 167.61558532714844 159.068115234375 168.6425018310547 178.5797119140625 166.58865356445313 189.8758544921875 164.1925048828125 213.15283203125 155.97711181640625 227.18743896484375 147.76171875 227.18743896484375 147.76171875 " />
        <polyline stroke="black" stroke-width="3" stroke-linecap="round" fill="transparent" stroke-linejoin="round" points="185.0836181640625 135.78094482421875 180.291259765625 143.65402221679688 175.4989013671875 151.527099609375 170.70660400390625 160.42710876464844 166.256591796875 169.32711791992188 159.41046142578125 185.7579040527344 155.64501953125 197.73870849609375 154.27581787109375 204.2425537109375 155.302734375 205.26947021484375 155.302734375 205.26947021484375 " />
        <polyline stroke="black" stroke-width="3" stroke-linecap="round" fill="transparent" stroke-linejoin="round" points="221.71044921875 130.3040008544922 216.57586669921875 143.99632263183594 211.4412841796875 157.6886444091797 204.93743896484375 170.69635009765625 190.90277099609375 191.91943359375 172.76043701171875 211.43099975585935 164.2027587890625 218.27719116210935 159.7528076171875 221.015625 158.725830078125 221.70025634765625 158.04119873046875 221.35797119140625 159.068115234375 219.98870849609375 169.6796875 213.8271484375 181.318115234375 210.06179809570313 196.3797607421875 208.69253540039065 205.27972412109375 209.719482421875 205.27972412109375 209.719482421875 " />
        </svg>