<?xml version="1.0" standalone="no"?>
    <svg width="256" height="256" xmlns="http://www.w3.org/2000/svg" version="1.1">
    <polyline stroke="black" stroke-width="3" stroke-linecap="round" fill="transparent" stroke-linejoin="round" points="94.67962646484376 44.20677947998047 79.00091552734375 64.03572082519531 66.08905029296875 82.48123168945313 53.17718505859375 100.00448608398438 43.03216552734375 113.838623046875 31.503662109375 129.51731872558594 28.275726318359375 133.66757202148438 25.508880615234375 136.43438720703125 25.0477294921875 135.9732666015625 29.65911865234375 130.90072631835938 45.33782958984375 117.98887634277344 70.70040893554688 102.31016540527344 97.90756225585938 91.70399475097656 124.1923828125 87.09262084960938 136.1820068359375 86.17034912109375 159.2388916015625 87.09262084960938 162.0057373046875 87.55375671386719 162.0057373046875 87.55375671386719 " />
        <polyline stroke="black" stroke-width="3" stroke-linecap="round" fill="transparent" stroke-linejoin="round" points="100.21322631835938 110.14952087402344 98.36865234375 134.58984375 99.75213623046876 161.33584594726563 102.98007202148438 184.8538818359375 104.36349487304688 200.99371337890625 103.90234375 209.294189453125 101.59664916992188 211.59988403320313 95.14071655273438 207.9107666015625 83.61227416992188 195.4600524902344 74.3895263671875 185.77615356445313 67.93359375 180.24249267578125 63.7833251953125 177.47567749023438 61.938812255859375 177.0145263671875 61.477630615234375 177.0145263671875 67.47247314453125 177.9368133544922 75.77294921875 177.47567749023438 88.2236328125 174.24771118164063 88.2236328125 174.24771118164063 " />
        <polyline stroke="black" stroke-width="3" stroke-linecap="round" fill="transparent" stroke-linejoin="round" points="162.927978515625 131.3618621826172 152.3218994140625 141.04576110839844 138.02655029296875 153.49649047851563 125.11468505859376 163.64154052734375 117.73651123046876 169.1751708984375 114.50851440429688 171.01974487304688 114.50851440429688 171.01974487304688 " />
        <polyline stroke="black" stroke-width="3" stroke-linecap="round" fill="transparent" stroke-linejoin="round" points="137.5654296875 128.59503173828125 160.16119384765625 123.06138610839844 168.00054931640625 121.21682739257813 183.67919921875 117.06658935546876 191.5185546875 114.76089477539063 198.4356689453125 111.99406433105467 210.42523193359375 105.999267578125 216.88116455078125 99.5433349609375 219.1868896484375 90.32058715820313 215.03662109375 81.09782409667969 208.5806884765625 76.02529907226563 200.7413330078125 73.25848388671875 191.5185546875 75.56417846679688 183.67919921875 82.02009582519531 175.3787841796875 94.93196105957033 169.38397216796875 110.61065673828124 166.156005859375 123.98367309570313 164.7725830078125 132.28414916992188 164.31146240234375 136.43438720703125 164.7725830078125 136.43438720703125 164.7725830078125 136.43438720703125 " />
        <polyline stroke="black" stroke-width="3" stroke-linecap="round" fill="transparent" stroke-linejoin="round" points="209.0418701171875 65.41912841796875 210.8863525390625 81.09782409667969 210.8863525390625 90.32058715820313 209.964111328125 100.00448608398438 208.11956787109375 109.22723388671876 205.35272216796875 116.60546875 198.4356689453125 128.59503173828125 191.05743408203125 135.05096435546875 185.0626220703125 139.2012176513672 181.83465576171875 140.58462524414063 181.37353515625 140.58462524414063 184.140380859375 139.2012176513672 188.2906494140625 137.8177947998047 205.8138427734375 132.28414916992188 212.73095703125 130.90072631835938 214.575439453125 132.28414916992188 212.269775390625 136.43438720703125 201.66357421875 144.27374267578125 185.0626220703125 152.57421875 173.995361328125 158.10789489746094 168.461669921875 161.33584594726563 165.69482421875 162.71923828125 165.69482421875 164.1026611328125 170.3062744140625 165.94720458984375 182.29583740234375 166.86949157714844 197.05224609375 165.0249481201172 210.8863525390625 158.10789489746094 210.8863525390625 158.10789489746094 " />
        <polyline stroke="black" stroke-width="3" stroke-linecap="round" fill="transparent" stroke-linejoin="round" points="209.0418701171875 130.43960571289063 181.37353515625 153.03533935546875 174.9176025390625 162.71923828125 161.54461669921875 191.309814453125 157.85546875 205.6051025390625 156.47210693359375 212.9833068847656 156.9332275390625 214.82785034179688 159.7000732421875 212.9833068847656 159.7000732421875 212.9833068847656 " />
        <polyline stroke="black" stroke-width="3" stroke-linecap="round" fill="transparent" stroke-linejoin="round" points="216.88116455078125 141.50692749023438 209.964111328125 165.94720458984375 199.35791015625 182.54818725585935 188.751708984375 193.61550903320313 179.52899169921875 200.99371337890625 176.301025390625 203.2994079589844 172.6119384765625 205.6051025390625 172.1507568359375 206.52737426757813 173.995361328125 206.52737426757813 190.13519287109375 206.988525390625 205.35272216796875 211.13873291015625 205.35272216796875 211.13873291015625 " />
        </svg>