<?xml version="1.0" standalone="no"?>
    <svg width="256" height="256" xmlns="http://www.w3.org/2000/svg" version="1.1">
    <polyline stroke="black" stroke-width="3" stroke-linecap="round" fill="transparent" stroke-linejoin="round" points="74.43084716796875 63.6251220703125 72.12075805664063 72.865478515625 70.14071655273438 78.80569458007813 55.290130615234375 117.08714294433594 51.329986572265625 125.00741577148438 42.089630126953125 143.4881134033203 37.79949951171875 150.08836364746094 35.489410400390625 153.71849060058594 35.489410400390625 153.71849060058594 " />
        <polyline stroke="black" stroke-width="3" stroke-linecap="round" fill="transparent" stroke-linejoin="round" points="90.93148803710938 89.03607177734375 99.841796875 90.026123046875 104.7919921875 91.0161590576172 126.57281494140624 99.26646423339844 129.54293823242188 100.58650207519533 135.15316772460938 104.21664428710938 136.80319213867188 106.19671630859376 136.80319213867188 106.19671630859376 136.80319213867188 106.19671630859376 " />
        <polyline stroke="black" stroke-width="3" stroke-linecap="round" fill="transparent" stroke-linejoin="round" points="89.94140625 119.72723388671876 97.20172119140624 142.82809448242188 102.48190307617188 187.04977416992188 100.17184448242188 209.16058349609375 87.96139526367188 213.1207275390625 83.67123413085938 210.8106689453125 69.48065185546875 195.63006591796875 60.900360107421875 181.7695770263672 53.9700927734375 169.2290802001953 52.650054931640625 166.9189910888672 52.320068359375 166.25900268554688 54.96014404296875 173.84925842285156 61.23040771484375 187.04977416992188 66.51058959960938 192.3299560546875 72.78082275390625 192.989990234375 82.02114868164063 187.70977783203125 85.98129272460938 182.7595977783203 85.98129272460938 182.7595977783203 " />
        <polyline stroke="black" stroke-width="3" stroke-linecap="round" fill="transparent" stroke-linejoin="round" points="127.23284912109376 141.1780242919922 122.94265747070313 151.40841674804688 119.642578125 157.3486328125 107.43209838867188 175.16932678222656 106.112060546875 177.14939880371094 103.14193725585938 180.44949340820313 103.14193725585938 180.44949340820313 103.14193725585938 180.44949340820313 " />
        <polyline stroke="black" stroke-width="3" stroke-linecap="round" fill="transparent" stroke-linejoin="round" points="133.83309936523438 130.6176300048828 145.71353149414063 124.67741394042967 151.32373046875 122.36732482910156 182.34490966796875 110.1568603515625 188.28515625 107.51678466796876 205.11578369140625 99.92648315429688 216.336181640625 93.98626708984376 216.336181640625 93.98626708984376 216.336181640625 93.98626708984376 " />
        <polyline stroke="black" stroke-width="3" stroke-linecap="round" fill="transparent" stroke-linejoin="round" points="157.26397705078125 90.35612487792967 150.333740234375 108.50680541992188 148.02362060546875 143.81814575195313 148.68365478515625 147.77828979492188 150.333740234375 155.03855895996094 151.9837646484375 159.65872192382813 153.9638671875 161.30877685546875 158.9140625 160.978759765625 163.8642578125 157.3486328125 163.8642578125 157.3486328125 " />
        <polyline stroke="black" stroke-width="3" stroke-linecap="round" fill="transparent" stroke-linejoin="round" points="192.5753173828125 101.90655517578124 187.6251220703125 118.4071807861328 186.965087890625 121.70730590820313 183.66497802734375 135.23782348632813 178.384765625 147.77828979492188 178.384765625 147.77828979492188 " />
        <polyline stroke="black" stroke-width="3" stroke-linecap="round" fill="transparent" stroke-linejoin="round" points="117.00244140625 191.99993896484375 125.25277709960938 191.66995239257813 128.88290405273438 191.99993896484375 154.62384033203125 190.34988403320313 161.22412109375 190.01986694335935 179.704833984375 187.3797607421875 196.53546142578125 183.089599609375 202.4757080078125 180.44949340820313 202.4757080078125 180.44949340820313 202.4757080078125 180.44949340820313 " />
        <polyline stroke="black" stroke-width="3" stroke-linecap="round" fill="transparent" stroke-linejoin="round" points="150.00369262695313 176.48934936523438 146.37359619140625 185.72970581054688 144.39349365234375 197.940185546875 144.7235107421875 216.7508850097656 144.7235107421875 220.38101196289065 146.37359619140625 228.30130004882813 147.69363403320313 231.93142700195313 149.6737060546875 233.58151245117188 152.31378173828125 233.9115295410156 161.22412109375 226.6512451171875 161.22412109375 226.6512451171875 161.22412109375 226.6512451171875 " />
        <polyline stroke="black" stroke-width="3" stroke-linecap="round" fill="transparent" stroke-linejoin="round" points="176.4046630859375 168.23904418945313 169.47442626953125 179.78948974609375 165.5142822265625 208.17056274414065 164.854248046875 211.8006896972656 165.84429931640625 222.69107055664065 166.17431640625 229.62136840820313 166.17431640625 229.62136840820313 166.17431640625 229.62136840820313 " />
        </svg>