<?xml version="1.0" standalone="no"?>
    <svg width="256" height="256" xmlns="http://www.w3.org/2000/svg" version="1.1">
    <polyline stroke="black" stroke-width="3" stroke-linecap="round" fill="transparent" stroke-linejoin="round" points="51.79888916015625 119.91761779785158 59.1961669921875 117.86282348632813 66.59344482421875 115.80802917480467 74.401611328125 113.7532196044922 82.20989990234375 112.10940551757813 97.82626342773438 107.9998016357422 104.81259155273438 105.5340576171875 122.07284545898438 97.72584533691406 124.94955444335938 95.67105102539063 124.94955444335938 95.67105102539063 " />
        <polyline stroke="black" stroke-width="3" stroke-linecap="round" fill="transparent" stroke-linejoin="round" points="99.88101196289063 46.3560333251953 87.9632568359375 77.17791748046875 76.04550170898438 107.9998016357422 68.23727416992188 128.5477294921875 54.675628662109375 168.8216552734375 46.45648193359375 191.013427734375 44.40167236328125 197.5887451171875 41.9359130859375 203.75311279296875 41.9359130859375 203.75311279296875 " />
        <polyline stroke="black" stroke-width="3" stroke-linecap="round" fill="transparent" stroke-linejoin="round" points="85.49746704101563 126.90390014648438 88.78515625 133.47923278808594 92.07284545898438 140.0545654296875 96.18246459960938 147.86277770996094 103.99066162109376 163.47918701171875 107.68930053710938 170.05453491210938 115.08651733398438 179.50657653808594 119.6070556640625 182.7942352294922 119.6070556640625 182.7942352294922 " />
        <polyline stroke="black" stroke-width="3" stroke-linecap="round" fill="transparent" stroke-linejoin="round" points="189.8809814453125 42.65740966796875 187.826171875 48.41082763671875 185.7713623046875 54.16424560546875 181.2508544921875 63.616302490234375 176.3193359375 72.24642944335938 176.3193359375 72.24642944335938 " />
        <polyline stroke="black" stroke-width="3" stroke-linecap="round" fill="transparent" stroke-linejoin="round" points="139.74395751953125 89.09576416015625 146.73031616210938 87.451904296875 153.7166748046875 85.80804443359375 161.935791015625 84.16421508789063 181.66180419921875 80.05462646484375 202.6207275390625 75.12313842773438 220.29193115234375 72.24642944335938 230.56591796875 71.83546447753906 230.56591796875 71.83546447753906 " />
        <polyline stroke="black" stroke-width="3" stroke-linecap="round" fill="transparent" stroke-linejoin="round" points="147.1412353515625 109.64363098144533 150.428955078125 117.45184326171876 153.7166748046875 125.2600555419922 156.182373046875 128.95867919921875 156.182373046875 128.95867919921875 " />
        <polyline stroke="black" stroke-width="3" stroke-linecap="round" fill="transparent" stroke-linejoin="round" points="213.30560302734375 103.06826782226563 207.55218505859375 109.232666015625 201.79876708984375 115.39706420898438 163.57958984375 146.62991333007813 154.949462890625 152.38333129882813 142.6207275390625 160.1915283203125 138.922119140625 162.24632263183594 133.57968139648438 165.12303161621094 134.8125 165.12303161621094 146.73031616210938 163.89016723632813 165.2235107421875 160.60247802734375 184.1275634765625 156.9038543701172 203.853515625 151.5614013671875 226.8673095703125 142.10935974121094 226.8673095703125 142.10935974121094 " />
        <polyline stroke="black" stroke-width="3" stroke-linecap="round" fill="transparent" stroke-linejoin="round" points="193.9906005859375 77.58888244628906 188.2371826171875 99.7806396484375 182.4837646484375 121.97239685058594 173.442626953125 149.50662231445313 162.3468017578125 177.4517822265625 152.89471435546875 198.41067504882813 145.08651733398438 214.43804931640625 142.6207275390625 219.36956787109375 142.6207275390625 219.36956787109375 " />
        <polyline stroke="black" stroke-width="3" stroke-linecap="round" fill="transparent" stroke-linejoin="round" points="173.0316162109375 172.520263671875 177.963134765625 174.1641082763672 182.8946533203125 175.80795288085938 188.2371826171875 178.27371215820313 200.56591796875 184.84906005859375 216.18231201171875 193.89013671875 230.1549072265625 202.93121337890625 230.1549072265625 202.93121337890625 " />
        </svg>