<?xml version="1.0" standalone="no"?>
    <svg width="256" height="256" xmlns="http://www.w3.org/2000/svg" version="1.1">
    <polyline stroke="black" stroke-width="3" stroke-linecap="round" fill="transparent" stroke-linejoin="round" points="53.916229248046875 121.87628173828124 64.93426513671875 116.36724853515624 73.50384521484375 111.47035217285156 85.13400268554688 103.51287841796876 97.37628173828124 94.3311767578125 106.5579833984375 82.70101928710938 112.0670166015625 71.6829833984375 113.29119873046876 62.50128173828125 110.8427734375 56.99226379394531 105.333740234375 55.155914306640625 99.82470703125 58.82859802246094 90.03091430664063 73.51931762695313 76.56442260742188 101.67652893066406 64.93426513671875 131.6700897216797 56.36468505859375 156.76673889160156 50.85565185546875 172.6816864013672 47.1829833984375 179.41493225097656 45.34661865234375 183.69973754882813 45.34661865234375 183.69973754882813 45.34661865234375 183.69973754882813 " />
        <polyline stroke="black" stroke-width="3" stroke-linecap="round" fill="transparent" stroke-linejoin="round" points="69.21905517578125 129.833740234375 90.03091430664063 131.05796813964844 101.0489501953125 135.9548797607422 110.23065185546876 140.85179138183594 118.1881103515625 145.13658142089844 125.53350830078124 143.912353515625 125.53350830078124 143.912353515625 " />
        <polyline stroke="black" stroke-width="3" stroke-linecap="round" fill="transparent" stroke-linejoin="round" points="168.9935302734375 43.52576446533203 164.708740234375 56.38014221191406 155.52703857421875 68.62240600585938 143.89691162109375 83.31312561035156 132.87884521484375 94.94328308105467 127.98193359375 101.06442260742188 126.75772094726563 102.9007568359375 132.2667236328125 99.2280731201172 147.569580078125 89.43426513671875 167.1572265625 76.57987976074219 183.68426513671875 66.17396545410156 195.314453125 60.66493225097656 201.435546875 58.82859802246094 203.884033203125 60.052825927734375 200.2113037109375 63.72550964355469 192.865966796875 70.45875549316406 168.38140869140625 86.98580932617188 153.690673828125 98.0038604736328 146.95745849609375 104.12498474121094 142.060546875 112.08245849609376 137.7757568359375 122.48838806152344 137.16363525390625 129.833740234375 138.38787841796875 136.56700134277344 141.44842529296875 140.2396697998047 148.18170166015625 139.01544189453125 163.4844970703125 127.3852996826172 180.0115966796875 109.02189636230467 187.96905517578125 97.39173889160156 193.47802734375 92.4948272705078 197.1507568359375 91.27059936523438 197.1507568359375 94.3311767578125 190.41748046875 105.34921264648438 168.9935302734375 130.44586181640625 145.73321533203125 153.70616149902344 125.53350830078124 173.29379272460938 117.57601928710938 181.2512664794922 112.67910766601563 186.76028442382813 112.67910766601563 189.208740234375 117.57601928710938 186.14816284179688 135.32730102539063 173.29379272460938 156.75128173828125 156.76673889160156 176.9510498046875 140.2396697998047 192.25384521484375 127.3852996826172 200.82342529296875 118.81570434570313 205.7203369140625 110.85823059082033 206.33245849609375 102.28865051269533 206.33245849609375 102.28865051269533 " />
        <polyline stroke="black" stroke-width="3" stroke-linecap="round" fill="transparent" stroke-linejoin="round" points="165.9329833984375 104.7371063232422 158.587646484375 124.32472229003906 148.79379272460938 156.76673889160156 143.89691162109375 176.3543701171875 137.7757568359375 192.88140869140625 132.2667236328125 204.51156616210935 127.36981201171876 208.79635620117188 127.36981201171876 208.79635620117188 " />
        <polyline stroke="black" stroke-width="3" stroke-linecap="round" fill="transparent" stroke-linejoin="round" points="145.73321533203125 162.8878631591797 156.13916015625 165.9484405517578 170.829833984375 171.45745849609375 187.96905517578125 180.02703857421875 204.49609375 189.208740234375 218.57470703125 198.39044189453125 227.75640869140625 206.34793090820313 227.75640869140625 206.34793090820313 " />
        </svg>