<?xml version="1.0" standalone="no"?>
    <svg width="256" height="256" xmlns="http://www.w3.org/2000/svg" version="1.1">
    <polyline stroke="black" stroke-width="3" stroke-linecap="round" fill="transparent" stroke-linejoin="round" points="54.784881591796875 119.24229431152344 67.58944702148438 108.5029754638672 74.1982421875 104.78550720214844 80.80706787109375 100.65501403808594 92.78549194335938 93.63314819335938 98.56820678710938 90.7418212890625 103.52484130859376 87.85044860839844 108.068359375 85.37216186523438 113.85107421875 81.65469360351563 115.50326538085938 80.41555786132813 115.50326538085938 80.41555786132813 " />
        <polyline stroke="black" stroke-width="3" stroke-linecap="round" fill="transparent" stroke-linejoin="round" points="81.22015380859375 65.54574584960938 75.85043334960938 82.89385986328125 67.1763916015625 120.48143005371094 60.567596435546875 155.5906982421875 55.61102294921875 178.30845642089844 53.1326904296875 186.15643310546875 50.2413330078125 194.8304748535156 48.589111328125 198.1348876953125 48.176116943359375 198.54791259765625 48.176116943359375 198.54791259765625 " />
        <polyline stroke="black" stroke-width="3" stroke-linecap="round" fill="transparent" stroke-linejoin="round" points="64.2850341796875 139.894775390625 80.80706787109375 148.98190307617188 86.17672729492188 152.6993408203125 97.74212646484376 160.13424682617188 103.11175537109376 163.4386444091797 112.61190795898438 167.56915283203125 112.61190795898438 167.56915283203125 " />
        <polyline stroke="black" stroke-width="3" stroke-linecap="round" fill="transparent" stroke-linejoin="round" points="143.17767333984375 46.95848083496094 133.677490234375 65.1326904296875 129.96005249023438 70.08929443359375 122.93817138671876 77.52420043945313 120.04684448242188 80.41555786132813 116.329345703125 83.71995544433594 114.26412963867188 85.78520202636719 113.85107421875 86.19825744628906 116.329345703125 85.78520202636719 124.59042358398438 83.71995544433594 139.047119140625 80.00250244140625 154.33001708984375 75.87199401855469 168.37371826171875 72.56759643554688 176.2216796875 70.50234985351563 179.52606201171875 70.08929443359375 180.3521728515625 70.08929443359375 180.3521728515625 70.08929443359375 " />
        <polyline stroke="black" stroke-width="3" stroke-linecap="round" fill="transparent" stroke-linejoin="round" points="127.06869506835938 104.78550720214844 125.82955932617188 120.89447021484376 127.06869506835938 124.19889831542967 129.54696655273438 128.742431640625 134.9166259765625 131.6337890625 139.460205078125 131.6337890625 139.460205078125 131.6337890625 " />
        <polyline stroke="black" stroke-width="3" stroke-linecap="round" fill="transparent" stroke-linejoin="round" points="186.1348876953125 99.41587829589844 167.960693359375 116.76397705078124 159.69964599609375 125.02496337890624 151.43865966796875 133.69903564453125 132.43832397460938 153.5254364013672 125.41650390625 160.13424682617188 116.329345703125 169.2213592529297 113.43804931640624 171.69964599609375 110.54669189453124 174.59100341796875 110.13363647460938 174.59100341796875 115.91635131835938 170.87356567382813 128.72088623046875 163.4386444091797 143.5906982421875 155.5906982421875 158.0474853515625 147.74273681640625 170.43896484375 140.72088623046875 178.699951171875 134.11209106445313 183.6566162109375 127.91635131835938 183.6566162109375 127.91635131835938 " />
        <polyline stroke="black" stroke-width="3" stroke-linecap="round" fill="transparent" stroke-linejoin="round" points="169.1998291015625 89.089599609375 156.395263671875 106.024658203125 145.242919921875 127.50328063964844 134.09054565429688 158.89511108398438 126.24261474609376 187.80862426757813 122.93817138671876 201.0262451171875 122.112060546875 208.46112060546875 122.112060546875 209.7002868652344 122.112060546875 209.7002868652344 " />
        <polyline stroke="black" stroke-width="3" stroke-linecap="round" fill="transparent" stroke-linejoin="round" points="151.85174560546875 165.50390625 167.13458251953125 176.65625 172.5042724609375 182.02590942382813 178.28692626953125 188.63470458984375 186.1348876953125 198.96096801757813 186.1348876953125 198.96096801757813 " />
        </svg>