<?xml version="1.0" standalone="no"?>
    <svg width="256" height="256" xmlns="http://www.w3.org/2000/svg" version="1.1">
    <polyline stroke="black" stroke-width="3" stroke-linecap="round" fill="transparent" stroke-linejoin="round" points="49.615966796875 128.44468688964844 62.35406494140625 122.69198608398438 69.33944702148438 119.81565856933594 76.73577880859375 116.93930053710938 84.54296875 114.06295776367188 98.10287475585938 108.72119140625 107.96466064453124 103.79031372070313 114.12826538085938 99.68124389648438 117.826416015625 94.7503662109375 117.826416015625 94.7503662109375 " />
        <polyline stroke="black" stroke-width="3" stroke-linecap="round" fill="transparent" stroke-linejoin="round" points="85.77572631835938 76.67048645019531 74.68124389648438 114.88479614257813 67.69586181640625 149.81179809570313 64.81951904296875 164.6044158935547 59.47772216796875 192.1351318359375 56.60137939453125 197.8878173828125 54.957733154296875 198.70965576171875 54.13592529296875 197.4769287109375 54.13592529296875 197.4769287109375 " />
        <polyline stroke="black" stroke-width="3" stroke-linecap="round" fill="transparent" stroke-linejoin="round" points="72.2158203125 150.2227020263672 81.66668701171875 155.56448364257813 86.59750366210938 158.8517303466797 91.93930053710938 162.54989624023438 102.21197509765624 169.53530883789063 107.142822265625 172.41165161132813 115.36093139648438 176.10980224609375 119.88095092773438 176.52069091796875 119.88095092773438 176.52069091796875 " />
        <polyline stroke="black" stroke-width="3" stroke-linecap="round" fill="transparent" stroke-linejoin="round" points="158.506103515625 45.441612243652344 153.9862060546875 55.714263916015625 151.52069091796875 60.6451416015625 148.23348999023438 66.3978271484375 138.3717041015625 79.54682922363281 133.02996826171875 84.47770690917969 129.74267578125 87.35404968261719 128.50994873046875 88.58676147460938 128.09906005859375 88.58676147460938 128.92086791992188 88.58676147460938 140.837158203125 84.88861083984375 148.23348999023438 82.42317199707031 163.847900390625 77.4923095703125 183.1605224609375 71.32870483398438 187.26953125 70.09599304199219 190.55682373046875 69.274169921875 190.55682373046875 69.274169921875 " />
        <polyline stroke="black" stroke-width="3" stroke-linecap="round" fill="transparent" stroke-linejoin="round" points="122.34637451171876 125.15744018554688 128.92086791992188 136.25189208984375 130.97540283203125 139.12823486328125 133.02996826171875 141.5936737060547 136.317138671875 145.29183959960938 141.658935546875 148.16818237304688 145.76800537109375 148.16818237304688 145.76800537109375 148.16818237304688 " />
        <polyline stroke="black" stroke-width="3" stroke-linecap="round" fill="transparent" stroke-linejoin="round" points="191.78955078125 103.79031372070313 181.10595703125 118.58293151855467 175.353271484375 125.56832885742188 168.77880859375 132.55374145507813 155.2188720703125 145.70274353027344 147.82257080078125 152.2772216796875 134.26263427734375 162.13897705078125 123.16818237304688 168.71348571777344 117.00457763671876 172.000732421875 115.36093139648438 172.41165161132813 117.00457763671876 170.76800537109375 128.50994873046875 165.83714294433594 146.58984375 159.67355346679688 163.026123046875 155.15359497070313 175.76416015625 151.45542907714844 184.80413818359375 148.16818237304688 188.9132080078125 144.4700164794922 188.9132080078125 144.4700164794922 " />
        <polyline stroke="black" stroke-width="3" stroke-linecap="round" fill="transparent" stroke-linejoin="round" points="165.4915771484375 105.02304077148438 159.7388916015625 118.99383544921876 157.2734375 127.2119598388672 154.3970947265625 136.25189208984375 148.64437866210938 155.15359497070313 145.76800537109375 163.3717041015625 139.19354248046875 179.39703369140625 133.02996826171875 191.7242431640625 127.2772216796875 201.99688720703125 122.75726318359376 211.03683471679688 122.75726318359376 211.03683471679688 " />
        <polyline stroke="black" stroke-width="3" stroke-linecap="round" fill="transparent" stroke-linejoin="round" points="149.8770751953125 180.6297607421875 169.189697265625 183.91702270507813 174.12054443359375 185.5606384277344 182.7496337890625 189.2587890625 187.26953125 192.54605102539065 187.26953125 192.54605102539065 " />
        </svg>