<?xml version="1.0" standalone="no"?>
    <svg width="256" height="256" xmlns="http://www.w3.org/2000/svg" version="1.1">
    <polyline stroke="black" stroke-width="3" stroke-linecap="round" fill="transparent" stroke-linejoin="round" points="52.721160888671875 48.582664489746094 70.71633911132813 61.963653564453125 79.483154296875 70.73051452636719 86.86578369140625 78.57452392578125 91.01849365234376 83.18865966796875 93.3255615234375 85.95712280273438 96.09405517578124 86.41856384277344 96.09405517578124 86.41856384277344 " />
        <polyline stroke="black" stroke-width="3" stroke-linecap="round" fill="transparent" stroke-linejoin="round" points="153.77069091796875 39.354393005371094 146.3880615234375 57.810943603515625 138.5440673828125 70.26908874511719 127.47012329101563 84.11148071289063 111.78207397460938 100.72235107421876 101.6309814453125 114.56475830078124 101.6309814453125 114.56475830078124 " />
        <polyline stroke="black" stroke-width="3" stroke-linecap="round" fill="transparent" stroke-linejoin="round" points="52.721160888671875 122.87020874023438 85.48153686523438 113.18052673339844 94.24838256835938 109.95062255859376 102.5538330078125 106.72073364257813 125.62451171875 97.0310516357422 145.9266357421875 88.72561645507813 171.304443359375 80.88157653808594 176.37994384765625 79.95877075195313 177.76416015625 80.88157653808594 177.76416015625 80.88157653808594 " />
        <polyline stroke="black" stroke-width="3" stroke-linecap="round" fill="transparent" stroke-linejoin="round" points="91.47988891601563 119.64031982421876 85.02011108398438 142.71096801757813 77.17611694335938 162.55172729492188 68.40924072265625 183.7767639160156 62.872283935546875 199.92620849609375 54.10540771484375 216.99850463867188 49.952728271484375 223.45831298828125 49.952728271484375 223.45831298828125 " />
        <polyline stroke="black" stroke-width="3" stroke-linecap="round" fill="transparent" stroke-linejoin="round" points="81.32879638671875 189.31369018554688 103.47665405273438 196.69631958007813 108.09075927734376 199.00338745117188 113.62774658203124 201.3104248046875 127.00872802734376 206.385986328125 131.16143798828125 208.23165893554688 131.16143798828125 208.23165893554688 " />
        <polyline stroke="black" stroke-width="3" stroke-linecap="round" fill="transparent" stroke-linejoin="round" points="166.69024658203125 117.79464721679688 155.61639404296875 139.48106384277344 152.84783935546875 149.17074584960938 145.46527099609375 170.85719299316406 139.92828369140625 192.08218383789065 131.62286376953125 211.0001220703125 126.08587646484376 220.68978881835935 126.08587646484376 220.68978881835935 " />
        <polyline stroke="black" stroke-width="3" stroke-linecap="round" fill="transparent" stroke-linejoin="round" points="147.3109130859375 177.77838134765625 170.381591796875 183.7767639160156 180.07122802734375 188.390869140625 193.4522705078125 195.31207275390625 207.75604248046875 199.92620849609375 217.44573974609375 204.54034423828125 221.13702392578125 210.53872680664065 221.13702392578125 210.53872680664065 " />
        </svg>