<?xml version="1.0" standalone="no"?>
    <svg width="256" height="256" xmlns="http://www.w3.org/2000/svg" version="1.1">
    <polyline stroke="black" stroke-width="3" stroke-linecap="round" fill="transparent" stroke-linejoin="round" points="51.5389404296875 111.93618774414063 64.36929321289063 111.40158081054688 79.87261962890625 108.19400024414063 106.60250854492188 101.24423217773438 131.19400024414063 93.75985717773438 154.71630859375 87.34469604492188 170.75421142578125 83.06791687011719 182.515380859375 80.39492797851563 187.861328125 79.32572937011719 190.5343017578125 80.39492797851563 190.5343017578125 80.39492797851563 " />
        <polyline stroke="black" stroke-width="3" stroke-linecap="round" fill="transparent" stroke-linejoin="round" points="57.419525146484375 155.23858642578125 67.04229736328125 154.16940307617188 81.4764404296875 152.031005859375 106.60250854492188 146.1504364013672 134.40158081054688 138.1314697265625 160.59686279296875 129.57791137695313 176.634765625 123.69732666015624 190.5343017578125 118.88595581054688 196.94952392578125 115.14376831054688 200.69171142578125 109.79779052734376 200.69171142578125 109.79779052734376 " />
        <polyline stroke="black" stroke-width="3" stroke-linecap="round" fill="transparent" stroke-linejoin="round" points="96.979736328125 46.71527099609375 95.3759765625 73.97975158691406 91.09918212890624 114.6091766357422 85.75320434570313 139.73526000976563 78.80343627929688 167.53433227539063 74.52664184570313 186.24526977539065 70.78448486328125 200.67938232421875 69.1806640625 208.6983642578125 69.1806640625 208.6983642578125 " />
        <polyline stroke="black" stroke-width="3" stroke-linecap="round" fill="transparent" stroke-linejoin="round" points="143.48974609375 45.111480712890625 144.5589599609375 58.47642517089844 143.48974609375 86.27549743652344 142.4205322265625 114.6091766357422 141.88595581054688 139.20066833496094 143.48974609375 160.0499725341797 145.09353637695313 177.15708923339844 146.69732666015625 193.19503784179688 145.09353637695313 210.3021545410156 145.09353637695313 210.3021545410156 " />
        </svg>