<?xml version="1.0" standalone="no"?>
    <svg width="256" height="256" xmlns="http://www.w3.org/2000/svg" version="1.1">
    <polyline stroke="black" stroke-width="3" stroke-linecap="round" fill="transparent" stroke-linejoin="round" points="81 81 82 84 83 87 84 90 85 92 85 93 85 94 86 95 89 96 92 97 93 97 95 98 " />
        <polyline stroke="black" stroke-width="3" stroke-linecap="round" fill="transparent" stroke-linejoin="round" points="121 63 120 66 117 78 114 90 110 104 105 118 99 133 97 140 89 159 87 164 81 176 76 183 74 184 73 185 " />
        <polyline stroke="black" stroke-width="3" stroke-linecap="round" fill="transparent" stroke-linejoin="round" points="66 130 68 129 69 129 72 129 75 131 77 132 84 138 87 141 95 150 104 160 110 165 117 170 125 173 129 174 " />
        <polyline stroke="black" stroke-width="3" stroke-linecap="round" fill="transparent" stroke-linejoin="round" points="150 79 148 81 146 85 143 89 140 95 136 104 132 111 129 117 126 123 124 127 123 131 123 132 123 133 " />
        <polyline stroke="black" stroke-width="3" stroke-linecap="round" fill="transparent" stroke-linejoin="round" points="137 102 139 103 141 105 143 107 145 108 147 110 150 113 153 115 156 115 158 116 160 116 " />
        <polyline stroke="black" stroke-width="3" stroke-linecap="round" fill="transparent" stroke-linejoin="round" points="181 85 175 95 171 102 166 109 162 115 158 120 154 124 152 127 151 129 150 129 150 129 151 129 " />
        <polyline stroke="black" stroke-width="3" stroke-linecap="round" fill="transparent" stroke-linejoin="round" points="169 117 171 117 178 116 180 116 186 115 191 116 195 116 199 118 201 119 " />
        <polyline stroke="black" stroke-width="3" stroke-linecap="round" fill="transparent" stroke-linejoin="round" points="145 151 144 151 144 152 144 152 148 152 152 152 156 152 162 152 168 151 173 152 178 154 180 156 " />
        <polyline stroke="black" stroke-width="3" stroke-linecap="round" fill="transparent" stroke-linejoin="round" points="137 184 134 185 133 185 135 185 137 185 142 185 147 185 154 185 162 185 171 184 180 184 190 186 195 187 " />
        </svg>