<?xml version="1.0" standalone="no"?>
    <svg width="256" height="256" xmlns="http://www.w3.org/2000/svg" version="1.1">
    <polyline stroke="black" stroke-width="3" stroke-linecap="round" fill="transparent" stroke-linejoin="round" points="57.27020263671875 95.96633911132813 57.600250244140625 99.5964813232422 59.580322265625 115.4370574951172 60.240325927734375 117.74714660644533 62.550445556640625 122.36732482910156 72.45077514648438 122.36732482910156 79.38104248046875 116.42709350585938 79.38104248046875 116.42709350585938 79.38104248046875 116.42709350585938 " />
        <polyline stroke="black" stroke-width="3" stroke-linecap="round" fill="transparent" stroke-linejoin="round" points="90.93148803710938 104.8766632080078 61.560394287109375 165.5989532470703 56.610198974609375 177.14939880371094 45.389801025390625 204.5404052734375 37.469482421875 222.361083984375 32.84930419921875 231.93142700195313 31.8592529296875 234.24151611328125 31.8592529296875 234.24151611328125 " />
        <polyline stroke="black" stroke-width="3" stroke-linecap="round" fill="transparent" stroke-linejoin="round" points="40.76959228515625 172.85922241210938 63.54046630859375 198.93020629882813 67.17059326171875 203.5503845214844 77.07095336914063 215.76080322265625 84.001220703125 225.99124145507813 86.31130981445313 230.94140625 86.31130981445313 230.94140625 " />
        <polyline stroke="black" stroke-width="3" stroke-linecap="round" fill="transparent" stroke-linejoin="round" points="136.47320556640625 101.5765380859375 115.35238647460938 145.46820068359375 112.05224609375 151.40841674804688 104.46200561523438 164.60891723632813 100.17184448242188 170.2191162109375 98.85174560546876 171.8691864013672 98.85174560546876 171.8691864013672 98.85174560546876 171.8691864013672 " />
        <polyline stroke="black" stroke-width="3" stroke-linecap="round" fill="transparent" stroke-linejoin="round" points="133.50308227539063 152.3984375 135.81317138671875 153.3885040283203 147.36361694335938 156.68861389160156 147.36361694335938 156.68861389160156 147.36361694335938 156.68861389160156 147.36361694335938 156.68861389160156 " />
        <polyline stroke="black" stroke-width="3" stroke-linecap="round" fill="transparent" stroke-linejoin="round" points="176.07470703125 109.8268585205078 173.1046142578125 115.76707458496094 159.24407958984375 144.14813232421875 156.60400390625 148.4383087158203 149.013671875 159.98875427246094 144.39349365234375 166.5889892578125 142.0833740234375 170.2191162109375 141.42340087890625 171.5391845703125 143.07342529296875 170.879150390625 152.97381591796875 162.9588623046875 161.22412109375 158.66868591308594 169.804443359375 157.01864624023438 179.704833984375 158.0086669921875 187.6251220703125 159.98875427246094 193.89532470703125 161.63880920410156 195.54541015625 162.29881286621094 195.54541015625 162.29881286621094 " />
        <polyline stroke="black" stroke-width="3" stroke-linecap="round" fill="transparent" stroke-linejoin="round" points="130.20297241210938 190.679931640625 134.49310302734375 190.34988403320313 153.3038330078125 189.35986328125 156.60400390625 189.35986328125 159.904052734375 188.6997985839844 159.904052734375 188.6997985839844 159.904052734375 188.6997985839844 " />
        <polyline stroke="black" stroke-width="3" stroke-linecap="round" fill="transparent" stroke-linejoin="round" points="101.82186889648438 230.61138916015625 107.76214599609376 231.93142700195313 138.45327758789063 236.88165283203125 144.39349365234375 237.8716735839844 159.904052734375 239.521728515625 174.0946044921875 241.831787109375 183.00494384765625 243.48187255859375 183.00494384765625 243.48187255859375 183.00494384765625 243.48187255859375 " />
        </svg>