<?xml version="1.0" standalone="no"?>
    <svg width="256" height="256" xmlns="http://www.w3.org/2000/svg" version="1.1">
    <polyline stroke="black" stroke-width="3" stroke-linecap="round" fill="transparent" stroke-linejoin="round" points="63.3702392578125 64.2421875 63.979217529296875 78.85810852050781 64.58819580078125 105.65394592285156 62.76123046875 159.24563598632813 62.76123046875 179.95152282714844 63.3702392578125 196.3944091796875 63.979217529296875 208.5743408203125 63.979217529296875 214.05532836914065 65.19720458984375 214.05532836914065 65.19720458984375 214.05532836914065 " />
        <polyline stroke="black" stroke-width="3" stroke-linecap="round" fill="transparent" stroke-linejoin="round" points="71.28717041015625 81.29409790039063 77.37713623046875 69.72315979003906 82.24911499023438 63.63319396972656 88.33908081054688 57.54322814941406 96.86502075195313 52.06226348876953 109.6539306640625 45.97229766845703 127.923828125 41.10032653808594 147.4117431640625 40.4913330078125 167.50860595703125 44.75431060791016 184.560546875 52.06226348876953 198.56744384765625 63.024200439453125 211.3563232421875 82.5120849609375 219.88232421875 105.65394592285156 222.92730712890625 128.18682861328125 219.88232421875 150.71969604492188 210.74737548828125 172.64356994628906 200.3944091796875 189.08645629882813 193.6954345703125 196.3944091796875 193.6954345703125 196.3944091796875 " />
        <polyline stroke="black" stroke-width="3" stroke-linecap="round" fill="transparent" stroke-linejoin="round" points="139.49478149414063 86.77507019042969 141.32177734375 97.73699951171876 142.53976440429688 112.9619140625 142.53976440429688 131.84080505371094 141.32177734375 148.28370666503906 138.88580322265625 162.29061889648438 135.2318115234375 170.20758056640625 135.2318115234375 170.20758056640625 " />
        <polyline stroke="black" stroke-width="3" stroke-linecap="round" fill="transparent" stroke-linejoin="round" points="95.64703369140624 129.40481567382813 104.781982421875 135.49478149414063 110.8719482421875 139.1487579345703 118.17990112304688 140.9757537841797 129.7508544921875 137.93077087402344 129.7508544921875 137.93077087402344 " />
        <polyline stroke="black" stroke-width="3" stroke-linecap="round" fill="transparent" stroke-linejoin="round" points="188.823486328125 90.42904663085938 180.29754638671875 108.08993530273438 169.944580078125 122.09686279296876 155.32867431640625 137.93077087402344 140.103759765625 154.982666015625 126.70587158203124 169.5985870361328 126.70587158203124 169.5985870361328 " />
        <polyline stroke="black" stroke-width="3" stroke-linecap="round" fill="transparent" stroke-linejoin="round" points="99.91000366210938 179.342529296875 111.48095703125 172.64356994628906 117.5709228515625 170.20758056640625 127.31484985351563 167.16259765625 138.27679443359375 163.5086212158203 150.45672607421875 159.24563598632813 162.02764892578125 156.20065307617188 172.380615234375 153.76467895507813 179.68853759765625 151.93768310546875 185.77850341796875 151.93768310546875 185.77850341796875 151.93768310546875 " />
        <polyline stroke="black" stroke-width="3" stroke-linecap="round" fill="transparent" stroke-linejoin="round" points="72.50518798828125 221.36328125 84.07611083984375 218.31829833984375 91.38406372070313 215.88232421875 102.95498657226563 212.83734130859375 118.78887939453124 207.96536254882813 135.8408203125 203.0933837890625 154.1107177734375 198.83041381835935 169.944580078125 195.17642211914065 180.90655517578125 193.34945678710935 189.4324951171875 193.95843505859375 197.3494873046875 197.6124267578125 197.3494873046875 197.6124267578125 " />
        </svg>