<?xml version="1.0" standalone="no"?>
    <svg width="256" height="256" xmlns="http://www.w3.org/2000/svg" version="1.1">
    <polyline stroke="black" stroke-width="3" stroke-linecap="round" fill="transparent" stroke-linejoin="round" points="63.85009765625 79.16116333007813 63.85009765625 92.38371276855467 64.95196533203125 123.78726196289063 65.5029296875 155.7417449951172 67.7066650390625 183.83966064453125 68.80856323242188 200.91879272460935 69.3594970703125 211.93756103515625 71.56326293945313 216.3450927734375 71.56326293945313 216.3450927734375 " />
        <polyline stroke="black" stroke-width="3" stroke-linecap="round" fill="transparent" stroke-linejoin="round" points="65.5029296875 94.03652954101563 74.31793212890625 85.22149658203125 86.98956298828125 75.85552978515625 107.92526245117188 66.48956298828125 133.26846313476563 59.87828063964844 159.16259765625 57.12358093261719 175.139892578125 58.776397705078125 189.46429443359375 65.38768005371094 200.48309326171875 78.6102294921875 210.4000244140625 107.2590789794922 211.5018310546875 141.41732788085938 206.54345703125 170.6171112060547 199.3812255859375 191.0018615722656 191.11712646484375 200.91879272460935 181.2001953125 206.42816162109375 181.2001953125 206.42816162109375 " />
        <polyline stroke="black" stroke-width="3" stroke-linecap="round" fill="transparent" stroke-linejoin="round" points="99.66116333007813 104.50437927246094 105.17056274414063 119.93067932128906 109.57806396484376 127.64382934570313 116.1893310546875 133.15322875976563 125.5552978515625 135.35699462890625 125.5552978515625 135.35699462890625 " />
        <polyline stroke="black" stroke-width="3" stroke-linecap="round" fill="transparent" stroke-linejoin="round" points="171.2833251953125 95.68934631347656 163.57012939453125 110.01377868652344 155.85699462890625 119.37974548339844 148.69476318359375 125.9910125732422 142.08349609375 127.64382934570313 135.47222900390625 124.33819580078124 130.5137939453125 114.42129516601563 127.2081298828125 99.54592895507813 126.65719604492188 90.17994689941406 126.65719604492188 85.77243041992188 127.75909423828124 85.77243041992188 127.75909423828124 91.28182983398438 126.65719604492188 108.91189575195313 123.3515625 130.39852905273438 120.59686279296876 148.57952880859375 117.29122924804688 159.59832763671875 115.08746337890624 168.96429443359375 112.332763671875 173.37181091308594 109.02713012695313 176.6774444580078 105.72149658203124 177.77932739257813 104.06866455078124 178.88121032714844 102.966796875 178.88121032714844 105.17056274414063 178.88121032714844 110.679931640625 177.22837829589844 123.3515625 171.718994140625 135.47222900390625 165.1077117919922 147.04196166992188 158.49644470214844 153.6531982421875 154.08892822265625 158.06072998046875 151.334228515625 158.06072998046875 151.334228515625 " />
        <polyline stroke="black" stroke-width="3" stroke-linecap="round" fill="transparent" stroke-linejoin="round" points="86.4385986328125 215.79415893554688 102.41586303710938 207.53005981445313 120.04592895507813 203.12252807617188 138.77786254882813 199.81689453125 157.50982666015625 197.6131591796875 172.93609619140625 197.06219482421875 185.60772705078125 198.16409301757813 185.60772705078125 198.16409301757813 " />
        </svg>