<?xml version="1.0" standalone="no"?>
    <svg width="256" height="256" xmlns="http://www.w3.org/2000/svg" version="1.1">
    <polyline stroke="black" stroke-width="3" stroke-linecap="round" fill="transparent" stroke-linejoin="round" points="67.1375732421875 58.148681640625 66.62338256835938 91.05731201171876 64.56658935546875 133.2214813232422 64.05239868164063 157.3887481689453 64.05239868164063 176.92825317382813 64.56658935546875 188.7547912597656 64.56658935546875 194.41094970703125 64.56658935546875 194.41094970703125 64.56658935546875 194.41094970703125 " />
        <polyline stroke="black" stroke-width="3" stroke-linecap="round" fill="transparent" stroke-linejoin="round" points="84.1060791015625 82.31596374511719 96.44683837890624 74.08880615234375 114.95794677734376 63.80485534667969 130.38385009765625 57.12030029296875 147.86654663085938 52.49251556396485 162.77825927734375 53.0067138671875 175.6331787109375 58.148681640625 185.4029541015625 68.94682312011719 196.20111083984375 96.19927978515624 201.34307861328125 124.48013305664063 203.39984130859375 149.16159057617188 202.8856201171875 167.15850830078125 198.7720947265625 182.58441162109375 191.57330322265625 193.382568359375 182.3177490234375 199.03872680664065 172.0338134765625 197.49612426757813 172.0338134765625 197.49612426757813 " />
        <polyline stroke="black" stroke-width="3" stroke-linecap="round" fill="transparent" stroke-linejoin="round" points="124.2135009765625 105.96902465820313 123.69927978515624 119.33816528320313 123.18508911132813 133.73568725585938 122.15667724609376 148.13320922851563 120.09991455078124 156.8745574951172 117.01470947265624 160.98812866210938 117.01470947265624 160.98812866210938 " />
        <polyline stroke="black" stroke-width="3" stroke-linecap="round" fill="transparent" stroke-linejoin="round" points="87.70547485351563 127.05111694335938 95.41845703125 133.2214813232422 105.702392578125 134.76406860351563 105.702392578125 134.76406860351563 " />
        <polyline stroke="black" stroke-width="3" stroke-linecap="round" fill="transparent" stroke-linejoin="round" points="170.4912109375 116.2529754638672 163.806640625 128.5937042236328 147.86654663085938 141.44863891601563 119.07150268554688 162.0165252685547 102.10299682617188 172.30047607421875 89.248046875 178.9850311279297 83.07769775390625 182.0702209472656 82.56350708007813 183.61282348632813 87.1912841796875 182.58441162109375 103.64556884765624 176.92825317382813 130.38385009765625 169.7294921875 150.43756103515625 166.64430236816406 163.29248046875 167.15850830078125 168.4344482421875 170.7578887939453 168.4344482421875 170.7578887939453 " />
        <polyline stroke="black" stroke-width="3" stroke-linecap="round" fill="transparent" stroke-linejoin="round" points="62.50982666015625 220.635009765625 73.8221435546875 218.5782165527344 100.5604248046875 210.86526489257813 123.69927978515624 202.63812255859375 143.75299072265625 198.5245361328125 159.693115234375 197.49612426757813 171.00543212890625 199.55291748046875 178.2042236328125 205.2091064453125 178.2042236328125 205.2091064453125 " />
        </svg>