<?xml version="1.0" standalone="no"?>
    <svg width="256" height="256" xmlns="http://www.w3.org/2000/svg" version="1.1">
    <polyline stroke="black" stroke-width="3" stroke-linecap="round" fill="transparent" stroke-linejoin="round" points="64 71 64 69 64 68 65 68 67 69 68 70 75 98 77 133 77 166 77 190 77 205 78 212 79 214 81 210 82 204 82 204 " />
        <polyline stroke="black" stroke-width="3" stroke-linecap="round" fill="transparent" stroke-linejoin="round" points="87 89 86 86 87 83 88 83 102 79 122 75 143 69 166 63 185 58 198 57 204 59 205 65 205 68 206 79 205 84 201 111 196 143 192 172 190 192 189 203 189 208 188 208 184 206 184 206 " />
        <polyline stroke="black" stroke-width="3" stroke-linecap="round" fill="transparent" stroke-linejoin="round" points="122 108 117 108 117 110 120 117 123 130 125 143 125 151 127 156 128 161 128 163 128 163 " />
        <polyline stroke="black" stroke-width="3" stroke-linecap="round" fill="transparent" stroke-linejoin="round" points="101 140 106 144 116 148 116 148 " />
        <polyline stroke="black" stroke-width="3" stroke-linecap="round" fill="transparent" stroke-linejoin="round" points="163 122 161 125 160 133 155 143 147 150 143 152 130 157 120 161 120 161 " />
        <polyline stroke="black" stroke-width="3" stroke-linecap="round" fill="transparent" stroke-linejoin="round" points="94 173 98 173 110 170 125 165 139 161 148 161 152 160 152 161 148 164 148 164 " />
        <polyline stroke="black" stroke-width="3" stroke-linecap="round" fill="transparent" stroke-linejoin="round" points="75 210 76 209 82 206 97 203 102 201 120 198 133 195 137 195 154 194 169 194 178 194 181 195 181 196 181 196 " />
        </svg>