<?xml version="1.0" standalone="no"?>
    <svg width="256" height="256" xmlns="http://www.w3.org/2000/svg" version="1.1">
    <polyline stroke="black" stroke-width="3" stroke-linecap="round" fill="transparent" stroke-linejoin="round" points="64.3282470703125 87.01466369628903 68.16314697265625 95.03546142578124 71.998046875 103.05625915527344 75.77459716796875 111.1888427734375 83.89938354492188 130.75225830078125 86.562744140625 137.2371063232422 86.82907104492188 137.88555908203125 " />
        <polyline stroke="black" stroke-width="3" stroke-linecap="round" fill="transparent" stroke-linejoin="round" points="86.49063110351563 82.12643432617188 91.039794921875 80.03921508789063 95.58895874023438 77.95199584960938 100.40887451171876 76.0916748046875 120.406005859375 73.17608642578125 129.60409545898438 73.37884521484375 136.79244995117188 73.87387084960938 157.3837890625 76.08770751953125 165.15155029296875 78.64053344726563 165.550537109375 80.29940795898438 165.57843017578125 80.44796752929688 165.6158447265625 86.96377563476563 164.83050537109375 91.5894775390625 163.1182861328125 98.41275024414063 149.5166015625 115.36669921875 146.72705078125 116.390380859375 " />
        <polyline stroke="black" stroke-width="3" stroke-linecap="round" fill="transparent" stroke-linejoin="round" points="89.11727905273438 133.8216552734375 103.09750366210938 130.22312927246094 117.07772827148438 126.62460327148438 132.15255737304688 122.03634643554688 136.040283203125 120.77139282226563 141.983154296875 119.3975067138672 150.355712890625 118.16741943359376 151.11029052734375 118.05088806152344 151.1595458984375 118.0432586669922 " />
        <polyline stroke="black" stroke-width="3" stroke-linecap="round" fill="transparent" stroke-linejoin="round" points="67.187255859375 172.63653564453125 75.066650390625 185.30535888671875 82.946044921875 197.97418212890625 87.91815185546875 205.6854553222656 92.26300048828124 211.9010009765625 100.27471923828124 221.75949096679688 100.605224609375 222.11801147460935 " />
        <polyline stroke="black" stroke-width="3" stroke-linecap="round" fill="transparent" stroke-linejoin="round" points="166.248046875 159.57313537597656 159.683837890625 168.43972778320313 153.11962890625 177.3063201904297 139.901611328125 194.77517700195313 133.88372802734375 202.50054931640625 132.85479736328125 203.91140747070313 " />
        <polyline stroke="black" stroke-width="3" stroke-linecap="round" fill="transparent" stroke-linejoin="round" points="55.417572021484375 224.72717285156244 68.87899780273438 219.5013732910156 82.34042358398438 214.27557373046875 88.982177734375 211.8831787109375 113.16464233398438 206.214111328125 129.5147705078125 203.39080810546875 149.95590209960938 202.333740234375 181.75311279296875 203.946533203125 189.1895751953125 205.007080078125 197.7608642578125 207.67523193359375 200.135498046875 208.87652587890625 202.04559326171875 210.56317138671875 202.683837890625 211.093017578125 202.84588623046875 211.328125 202.8555908203125 211.34213256835935 " />
        </svg>