<?xml version="1.0" standalone="no"?>
    <svg width="256" height="256" xmlns="http://www.w3.org/2000/svg" version="1.1">
    <polyline stroke="black" stroke-width="3" stroke-linecap="round" fill="transparent" stroke-linejoin="round" points="56.6171875 103.40206909179688 53.3988037109375 118.20663452148438 51.467742919921875 127.86180114746094 50.180389404296875 132.0457000732422 50.180389404296875 132.0457000732422 " />
        <polyline stroke="black" stroke-width="3" stroke-linecap="round" fill="transparent" stroke-linejoin="round" points="101.03091430664063 67.67796325683594 122.27224731445313 61.56304931640625 142.548095703125 57.057281494140625 160.57110595703125 54.160743713378906 170.86993408203125 52.87339782714844 180.52508544921875 53.51707458496094 187.92730712890625 55.448097229003906 191.7894287109375 58.98832702636719 192.11126708984375 67.99981689453125 187.60552978515625 86.34461975097656 181.4906005859375 109.19515991210938 176.66302490234375 128.82733154296875 173.122802734375 138.4824676513672 173.122802734375 138.4824676513672 " />
        <polyline stroke="black" stroke-width="3" stroke-linecap="round" fill="transparent" stroke-linejoin="round" points="82.3642578125 150.06863403320313 83.97348022460938 172.5973663330078 85.90451049804688 188.04562377929688 87.19183349609375 194.80426025390625 87.51370239257813 197.37896728515625 87.51370239257813 197.37896728515625 " />
        <polyline stroke="black" stroke-width="3" stroke-linecap="round" fill="transparent" stroke-linejoin="round" points="119.69757080078124 118.85031127929688 134.50213623046875 117.24111938476563 145.44464111328125 116.91928100585938 154.77801513671875 117.56297302246094 162.18023681640625 119.17214965820313 167.6514892578125 122.39054870605467 170.22625732421875 130.75836181640625 167.0078125 151.67784118652344 161.8583984375 172.91920471191406 157.67449951171875 192.87322998046875 154.45611572265625 204.13754272460935 153.4906005859375 206.068603515625 153.4906005859375 206.068603515625 " />
        <polyline stroke="black" stroke-width="3" stroke-linecap="round" fill="transparent" stroke-linejoin="round" points="117.4447021484375 165.19509887695313 114.54812622070313 186.75830078125 112.2952880859375 199.6318359375 111.0079345703125 202.20651245117188 111.0079345703125 202.20651245117188 " />
        <polyline stroke="black" stroke-width="3" stroke-linecap="round" fill="transparent" stroke-linejoin="round" points="61.1229248046875 162.94223022460938 89.76657104492188 158.1146240234375 120.0194091796875 154.896240234375 144.15731811523438 152.321533203125 164.7550048828125 150.06863403320313 173.122802734375 149.42498779296875 181.81243896484375 149.746826171875 185.03076171875 151.3560333251953 184.38714599609375 152.96522521972656 184.38714599609375 152.96522521972656 " />
        <polyline stroke="black" stroke-width="3" stroke-linecap="round" fill="transparent" stroke-linejoin="round" points="120.34124755859376 195.76974487304688 134.50213623046875 195.44790649414065 151.23779296875 195.76974487304688 162.18023681640625 195.1260986328125 162.18023681640625 195.1260986328125 " />
        </svg>