<?xml version="1.0" standalone="no"?>
    <svg width="256" height="256" xmlns="http://www.w3.org/2000/svg" version="1.1">
    <polyline stroke="black" stroke-width="3" stroke-linecap="round" fill="transparent" stroke-linejoin="round" points="106.01287841796876 53.69508361816406 89.84188842773438 84.36421203613281 75.9013671875 105.55378723144533 61.40325927734375 125.6281280517578 51.9237060546875 136.22291564941406 51.9237060546875 136.22291564941406 " />
        <polyline stroke="black" stroke-width="3" stroke-linecap="round" fill="transparent" stroke-linejoin="round" points="64.74896240234375 74.32704162597656 82.03521728515625 79.90324401855469 98.2061767578125 86.03707885742188 116.607666015625 92.728515625 130.54818725585938 97.18948364257813 138.9124755859375 99.9775848388672 145.04632568359375 102.76568603515624 145.04632568359375 102.76568603515624 " />
        <polyline stroke="black" stroke-width="3" stroke-linecap="round" fill="transparent" stroke-linejoin="round" points="89.28427124023438 153.5091552734375 87.05377197265625 168.5648956298828 84.26568603515625 183.62066650390625 80.36236572265625 193.1001892089844 78.13186645507813 198.1187744140625 75.34375 198.1187744140625 75.34375 198.1187744140625 " />
        <polyline stroke="black" stroke-width="3" stroke-linecap="round" fill="transparent" stroke-linejoin="round" points="50.2508544921875 156.29725646972656 48.020355224609375 162.4310760498047 48.020355224609375 168.0072784423828 49.6932373046875 171.91062927246094 54.1541748046875 173.58348083496094 63.07611083984375 171.91062927246094 74.228515625 168.0072784423828 85.93853759765625 166.3344268798828 93.7452392578125 166.3344268798828 99.87905883789063 168.0072784423828 105.45526123046876 171.35301208496094 111.03146362304688 175.25634765625 116.050048828125 178.60206604003906 121.62625122070313 177.48683166503906 121.62625122070313 177.48683166503906 " />
        <polyline stroke="black" stroke-width="3" stroke-linecap="round" fill="transparent" stroke-linejoin="round" points="159.54443359375 86.03707885742188 152.29541015625 112.2452392578125 146.16156005859375 130.08909606933594 138.9124755859375 150.72105407714844 132.7786865234375 166.8920440673828 132.7786865234375 166.8920440673828 " />
        <polyline stroke="black" stroke-width="3" stroke-linecap="round" fill="transparent" stroke-linejoin="round" points="156.19873046875 151.83628845214844 162.89013671875 154.6243896484375 169.58160400390625 157.41249084472656 177.3883056640625 158.52774047851563 177.3883056640625 158.52774047851563 " />
        <polyline stroke="black" stroke-width="3" stroke-linecap="round" fill="transparent" stroke-linejoin="round" points="214.1912841796875 55.367950439453125 209.17266845703125 75.99990844726563 202.481201171875 102.20806884765624 195.789794921875 124.51287841796876 187.98309326171875 146.8177032470703 184.0797119140625 162.4310760498047 181.2916259765625 174.14111328125 181.2916259765625 179.15969848632813 181.2916259765625 179.15969848632813 " />
        <polyline stroke="black" stroke-width="3" stroke-linecap="round" fill="transparent" stroke-linejoin="round" points="216.4217529296875 151.27867126464844 221.9979248046875 156.29725646972656 227.01654052734375 162.4310760498047 232.03515625 175.81396484375 232.03515625 175.81396484375 " />
        </svg>