<?xml version="1.0" standalone="no"?>
    <svg width="256" height="256" xmlns="http://www.w3.org/2000/svg" version="1.1">
    <polyline stroke="black" stroke-width="3" stroke-linecap="round" fill="transparent" stroke-linejoin="round" points="109.4215087890625 87.57342529296875 107.88348388671876 99.1088409423828 104.80734252929688 108.33718872070313 89.81130981445313 134.09963989257813 72.5081787109375 154.0944061279297 60.97271728515625 165.62982177734375 47.51470947265625 175.627197265625 39.824432373046875 176.39620971679688 39.824432373046875 176.39620971679688 " />
        <polyline stroke="black" stroke-width="3" stroke-linecap="round" fill="transparent" stroke-linejoin="round" points="97.1170654296875 108.72171020507813 104.03829956054688 112.56683349609376 109.80599975585938 116.7965087890625 112.49761962890624 119.48811340332033 112.49761962890624 119.48811340332033 " />
        <polyline stroke="black" stroke-width="3" stroke-linecap="round" fill="transparent" stroke-linejoin="round" points="94.42547607421876 170.24398803710938 98.27059936523438 189.08517456054688 100.19317626953124 210.2334899902344 99.42413330078124 223.69146728515625 97.1170654296875 233.6888427734375 92.50289916992188 241.76364135742188 85.19711303710938 244.8397521972656 74.81524658203125 239.841064453125 65.20236206054688 231.3817443847656 58.2811279296875 221.76889038085935 54.43597412109375 214.07861328125 53.28240966796875 207.15737915039065 52.897918701171875 203.312255859375 52.51336669921875 202.15869140625 49.437255859375 203.312255859375 43.6695556640625 209.4644470214844 37.90185546875 219.4618225097656 34.05670166015625 226.38308715820313 32.903167724609375 230.6127014160156 32.903167724609375 230.6127014160156 " />
        <polyline stroke="black" stroke-width="3" stroke-linecap="round" fill="transparent" stroke-linejoin="round" points="109.80599975585938 194.0838623046875 115.189208984375 196.39096069335935 122.4949951171875 199.85159301757813 129.41622924804688 201.005126953125 129.41622924804688 201.005126953125 " />
        <polyline stroke="black" stroke-width="3" stroke-linecap="round" fill="transparent" stroke-linejoin="round" points="166.32958984375 119.87261962890624 159.4083251953125 147.17312622070313 156.33221435546875 157.55502319335938 143.64328002929688 184.85552978515625 135.9530029296875 197.54449462890625 129.03173828125 208.3109130859375 126.72467041015624 210.2334899902344 126.72467041015624 210.2334899902344 " />
        <polyline stroke="black" stroke-width="3" stroke-linecap="round" fill="transparent" stroke-linejoin="round" points="164.7916259765625 162.938232421875 176.3270263671875 169.85946655273438 184.78631591796875 173.70462036132813 190.55401611328125 174.858154296875 190.55401611328125 174.858154296875 " />
        <polyline stroke="black" stroke-width="3" stroke-linecap="round" fill="transparent" stroke-linejoin="round" points="204.78106689453125 138.3292999267578 192.86114501953125 174.47366333007813 181.71014404296875 202.92770385742188 170.94378662109375 220.6153259277344 159.4083251953125 237.14947509765625 155.1787109375 241.37911987304688 155.1787109375 241.37911987304688 " />
        <polyline stroke="black" stroke-width="3" stroke-linecap="round" fill="transparent" stroke-linejoin="round" points="242.84796142578125 200.236083984375 262.07366943359375 213.694091796875 278.2232666015625 222.9224853515625 282.45294189453125 225.61404418945313 282.45294189453125 225.61404418945313 " />
        </svg>