<?xml version="1.0" standalone="no"?>
    <svg width="256" height="256" xmlns="http://www.w3.org/2000/svg" version="1.1">
    <polyline stroke="black" stroke-width="3" stroke-linecap="round" fill="transparent" stroke-linejoin="round" points="83.86190795898438 71.95103454589844 77.60150146484375 81.58729553222656 63.35333251953125 100.09275817871094 51.723388671875 112.23130798339844 46.937225341796875 117.22030639648438 38.07794189453125 129.196533203125 37.654296875 129.8243865966797 " />
        <polyline stroke="black" stroke-width="3" stroke-linecap="round" fill="transparent" stroke-linejoin="round" points="63.15264892578125 88.20068359375 73.05859375 93.3191375732422 91.94482421875 103.82913208007813 100.15972900390624 108.68231201171876 106.69625854492188 113.53973388671876 107.83724975585938 115.15167236328124 107.95138549804688 115.31285095214844 107.95947265625 115.3243408203125 " />
        <polyline stroke="black" stroke-width="3" stroke-linecap="round" fill="transparent" stroke-linejoin="round" points="82.01947021484375 149.65545654296875 84.2042236328125 162.8268280029297 85.86309814453125 178.23399353027344 87.13116455078125 192.68218994140625 88.42709350585938 212.0250244140625 88.86776733398438 220.72967529296875 88.65185546875 220.9610595703125 88.62847900390625 220.9862060546875 88.62811279296875 220.98654174804688 87.92086791992188 221.15997314453125 80.33929443359375 221.5882568359375 79.005859375 221.4503173828125 " />
        <polyline stroke="black" stroke-width="3" stroke-linecap="round" fill="transparent" stroke-linejoin="round" points="38.335693359375 176.8092041015625 36.328948974609375 179.84017944335938 34.26544189453125 182.4625244140625 33.870361328125 183.02554321289065 " />
        <polyline stroke="black" stroke-width="3" stroke-linecap="round" fill="transparent" stroke-linejoin="round" points="95.5684814453125 180.64340209960935 99.7191162109375 182.8823699951172 110.79339599609376 186.12786865234375 119.36767578125 187.78582763671875 120.1044921875 187.9898681640625 120.79779052734376 188.1865234375 120.81524658203124 188.187744140625 " />
        <polyline stroke="black" stroke-width="3" stroke-linecap="round" fill="transparent" stroke-linejoin="round" points="136.45648193359375 73.80868530273438 136.53106689453125 86.58119201660156 134.8544921875 113.7794189453125 130.819580078125 142.66357421875 128.69113159179688 158.05093383789063 126.806396484375 173.48138427734375 117.8372802734375 197.68475341796875 117.59652709960938 206.46514892578125 117.57247924804688 207.34320068359375 " />
        <polyline stroke="black" stroke-width="3" stroke-linecap="round" fill="transparent" stroke-linejoin="round" points="154.055419921875 158.5178680419922 157.703125 161.159912109375 163.3173828125 165.94444274902344 164.58538818359375 167.33428955078125 165.096435546875 168.23899841308594 165.15216064453125 168.42630004882813 " />
        <polyline stroke="black" stroke-width="3" stroke-linecap="round" fill="transparent" stroke-linejoin="round" points="182.940673828125 116.1029052734375 182.9984130859375 132.65391540527344 180.731689453125 167.307861328125 178.1640625 191.84771728515625 177.36785888671875 197.5531005859375 176.1802978515625 205.1719665527344 176.13055419921875 205.38812255859375 176.1256103515625 205.4097595214844 176.125244140625 205.411376953125 " />
        <polyline stroke="black" stroke-width="3" stroke-linecap="round" fill="transparent" stroke-linejoin="round" points="198.1651611328125 172.2937469482422 212.7908935546875 187.4876708984375 218.05572509765625 192.05645751953125 229.5638427734375 199.16937255859375 233.99853515625 200.9073181152344 234.4420166015625 201.08108520507813 " />
        </svg>