<?xml version="1.0" standalone="no"?>
    <svg width="256" height="256" xmlns="http://www.w3.org/2000/svg" version="1.1">
    <polyline stroke="black" stroke-width="3" stroke-linecap="round" fill="transparent" stroke-linejoin="round" points="40.466796875 147.4666748046875 40.466796875 158.1333465576172 42.60003662109375 170.93336486816406 43.66668701171875 177.33334350585938 44.7333984375 179.4666748046875 45.80010986328125 176.26669311523438 45.80010986328125 176.26669311523438 " />
        <polyline stroke="black" stroke-width="3" stroke-linecap="round" fill="transparent" stroke-linejoin="round" points="82.06671142578125 85.60000610351563 93.80010986328124 81.33334350585938 103.4000244140625 80.26667785644531 108.7333984375 79.20002746582031 110.86669921875 80.26667785644531 110.86669921875 85.60000610351563 110.86669921875 100.53335571289063 110.86669921875 130.40003967285156 111.93341064453124 140.00001525878906 113.00006103515624 144.26669311523438 111.93341064453124 147.4666748046875 109.80010986328124 146.40003967285156 109.80010986328124 146.40003967285156 " />
        <polyline stroke="black" stroke-width="3" stroke-linecap="round" fill="transparent" stroke-linejoin="round" points="84.2000732421875 127.20001220703124 85.2667236328125 138.93336486816406 85.2667236328125 145.33334350585938 85.2667236328125 153.86668395996094 85.2667236328125 153.86668395996094 " />
        <polyline stroke="black" stroke-width="3" stroke-linecap="round" fill="transparent" stroke-linejoin="round" points="93.80010986328124 151.73338317871094 109.80010986328124 149.6000213623047 116.2000732421875 149.6000213623047 116.2000732421875 149.6000213623047 " />
        <polyline stroke="black" stroke-width="3" stroke-linecap="round" fill="transparent" stroke-linejoin="round" points="170.60009765625 93.06668090820313 180.2000732421875 89.86669921875 187.666748046875 87.73333740234375 199.4000244140625 81.33334350585938 199.4000244140625 81.33334350585938 " />
        <polyline stroke="black" stroke-width="3" stroke-linecap="round" fill="transparent" stroke-linejoin="round" points="165.2667236328125 53.600006103515625 161 90.933349609375 147.1334228515625 147.4666748046875 137.533447265625 177.33334350585938 127.93341064453124 198.66668701171875 123.666748046875 208.2666931152344 117.2667236328125 207.20001220703125 117.2667236328125 207.20001220703125 " />
        <polyline stroke="black" stroke-width="3" stroke-linecap="round" fill="transparent" stroke-linejoin="round" points="177 129.33334350585938 183.4000244140625 143.20001220703125 199.4000244140625 170.93336486816406 215.4000244140625 194.40005493164065 239.933349609375 220.00003051757813 249.533447265625 227.4666748046875 249.533447265625 227.4666748046875 " />
        </svg>