<?xml version="1.0" standalone="no"?>
    <svg width="256" height="256" xmlns="http://www.w3.org/2000/svg" version="1.1">
    <polyline stroke="black" stroke-width="3" stroke-linecap="round" fill="transparent" stroke-linejoin="round" points="132.52276611328125 64.51777648925781 128.33978271484375 73.2640380859375 124.15679931640624 82.01029968261719 118.07235717773438 94.55929565429688 110.46694946289063 110.9110107421875 103.24179077148438 123.07972717285156 96.77719116210938 131.0654296875 86.12954711914063 139.8116912841797 86.12954711914063 139.8116912841797 " />
        <polyline stroke="black" stroke-width="3" stroke-linecap="round" fill="transparent" stroke-linejoin="round" points="122.63568115234375 102.54501342773438 133.66357421875 106.72801208496094 144.69146728515625 110.9110107421875 153.05743408203125 113.95318603515624 158.76153564453125 117.37565612792967 158.76153564453125 117.37565612792967 " />
        <polyline stroke="black" stroke-width="3" stroke-linecap="round" fill="transparent" stroke-linejoin="round" points="134.80441284179688 159.58583068847656 134.04385375976563 160.72666931152344 133.28329467773438 161.8675079345703 123.0159912109375 177.0784149169922 109.32614135742188 194.19061279296875 91.45333862304688 211.68316650390625 73.20028686523438 226.51382446289065 56.088043212890625 236.40087890625 56.088043212890625 236.40087890625 " />
        <polyline stroke="black" stroke-width="3" stroke-linecap="round" fill="transparent" stroke-linejoin="round" points="60.27099609375003 150.4593200683594 95.25604248046876 170.23348999023438 130.2410888671875 190.00765991210935 165.2261962890625 206.7396545410156 188.42279052734375 214.72537231445313 205.91534423828125 217.00698852539065 210.47857666015625 216.626708984375 210.47857666015625 216.626708984375 " />
        </svg>