<?xml version="1.0" standalone="no"?>
    <svg width="256" height="256" xmlns="http://www.w3.org/2000/svg" version="1.1">
    <polyline stroke="black" stroke-width="3" stroke-linecap="round" fill="transparent" stroke-linejoin="round" points="148.86318969726563 40.914337158203125 138.16604614257813 56.761962890625 127.46890258789063 72.60958862304688 116.77175903320313 86.080078125 106.86697387695313 97.56961059570313 99.33935546875 105.49342346191406 91.41555786132813 111.8324737548828 87.849853515625 113.0210418701172 87.849853515625 113.0210418701172 " />
        <polyline stroke="black" stroke-width="3" stroke-linecap="round" fill="transparent" stroke-linejoin="round" points="108.84790039062497 86.080078125 122.31842041015624 88.06103515625 135.7889404296875 90.0419921875 148.07083129882813 92.41912841796876 155.20220947265625 92.81532287597656 155.20220947265625 92.81532287597656 " />
        <polyline stroke="black" stroke-width="3" stroke-linecap="round" fill="transparent" stroke-linejoin="round" points="149.65554809570313 137.18869018554688 138.16604614257813 150.26296997070313 126.67654418945313 163.33724975585938 115.18701171875 174.43060302734375 103.69747924804688 184.3353576660156 89.4345703125 192.2591857910156 81.11459350585938 194.6363220214844 81.11459350585938 194.6363220214844 " />
        <polyline stroke="black" stroke-width="3" stroke-linecap="round" fill="transparent" stroke-linejoin="round" points="83.49172973632813 137.5848846435547 108.45175170898438 153.8286895751953 133.41177368164063 170.07249450683594 159.1641845703125 183.1468048095703 184.5203857421875 194.2401428222656 208.29180908203125 202.1639404296875 231.2708740234375 207.71066284179688 247.91082763671875 210.0877685546875 247.91082763671875 210.0877685546875 " />
        </svg>