<?xml version="1.0" standalone="no"?>
    <svg width="256" height="256" xmlns="http://www.w3.org/2000/svg" version="1.1">
    <polyline stroke="black" stroke-width="3" stroke-linecap="round" fill="transparent" stroke-linejoin="round" points="156.6392822265625 45.83387756347656 148.4278564453125 58.1510009765625 136.931884765625 72.93156433105469 129.54159545898438 81.96412658691406 113.11874389648438 100.4398193359375 99.15936279296876 114.80979919433594 87.25277709960938 125.89520263671876 82.325927734375 130.00091552734375 82.325927734375 130.00091552734375 " />
        <polyline stroke="black" stroke-width="3" stroke-linecap="round" fill="transparent" stroke-linejoin="round" points="91.76904296875 71.28927612304688 106.13909912109376 85.24868774414063 118.4561767578125 94.28125 124.61474609375 97.97639465332033 137.75302124023438 104.9561004638672 149.65960693359375 110.7041015625 160.33441162109375 115.63095092773438 168.9564208984375 118.09439086914063 172.240966796875 118.09439086914063 172.240966796875 118.09439086914063 " />
        <polyline stroke="black" stroke-width="3" stroke-linecap="round" fill="transparent" stroke-linejoin="round" points="175.52557373046875 122.2000732421875 164.44012451171875 129.17979431152344 159.10272216796875 133.69607543945313 151.71240234375 139.85464477539063 122.97247314453124 167.36288452148438 103.67562866210938 187.4808654785156 85.61053466796875 205.5459899902344 78.63079833984375 212.52569580078125 68.777099609375 221.96881103515625 68.777099609375 221.96881103515625 " />
        <polyline stroke="black" stroke-width="3" stroke-linecap="round" fill="transparent" stroke-linejoin="round" points="100.39105224609376 147.24490356445313 114.3504638671875 163.25717163085938 127.8992919921875 175.57431030273438 135.70016479492188 181.73287963867188 157.46044921875 198.5662841796875 168.54583740234375 207.59884643554688 168.54583740234375 207.59884643554688 " />
        </svg>