<?xml version="1.0" standalone="no"?>
    <svg width="256" height="256" xmlns="http://www.w3.org/2000/svg" version="1.1">
    <polyline stroke="black" stroke-width="3" stroke-linecap="round" fill="transparent" stroke-linejoin="round" points="64.3333740234375 95.66668701171875 65.66668701171875 122.33334350585938 67 149 69 173 70.3333740234375 187.66668701171875 72.3333740234375 195 73.66668701171875 196.33334350585935 74.3333740234375 195 74.3333740234375 195 " />
        <polyline stroke="black" stroke-width="3" stroke-linecap="round" fill="transparent" stroke-linejoin="round" points="85.00006103515625 85 110.3333740234375 81.66667175292969 135.66668701171875 78.33334350585938 163 77 183.66668701171875 79 194.3333740234375 82.33334350585938 197 90.33334350585938 193 105 185 125.66668701171876 177.66668701171875 147.66668701171875 173 164.33334350585938 171 174.33334350585938 170.3333740234375 179.66668701171875 169.66668701171875 180.33334350585935 169 180.33334350585935 169 180.33334350585935 " />
        <polyline stroke="black" stroke-width="3" stroke-linecap="round" fill="transparent" stroke-linejoin="round" points="109.666748046875 137.66665649414063 116.3333740234375 145 123 152.33334350585938 131 160.33334350585938 135.66668701171875 167.66668701171875 135.66668701171875 167.66668701171875 " />
        <polyline stroke="black" stroke-width="3" stroke-linecap="round" fill="transparent" stroke-linejoin="round" points="65.6666259765625 197.66668701171875 93 189.66668701171875 120.3333740234375 181.66668701171875 149.66668701171875 175.66668701171875 167.66668701171875 173.66668701171875 167.66668701171875 173.66668701171875 " />
        </svg>