<?xml version="1.0" standalone="no"?>
    <svg width="256" height="256" xmlns="http://www.w3.org/2000/svg" version="1.1">
    <polyline stroke="black" stroke-width="3" stroke-linecap="round" fill="transparent" stroke-linejoin="round" points="70.58126831054688 31.980529785156236 70.20724487304688 66.017333984375 69.83322143554688 100.05413818359376 69.08514404296875 119.12969970703124 68.71112060546875 135.96109008789063 68.33709716796875 152.41842651367188 69.83322143554688 188.32537841796875 70.955322265625 198.0501708984375 71.329345703125 199.92034912109375 71.329345703125 199.92034912109375 " />
        <polyline stroke="black" stroke-width="3" stroke-linecap="round" fill="transparent" stroke-linejoin="round" points="87.7867431640625 49.185943603515625 95.641357421875 45.819671630859375 103.4959716796875 42.453399658203125 112.09869384765624 39.461151123046875 131.92230224609375 36.094879150390625 141.6470947265625 35.34681701660156 160.3486328125 36.094879150390625 177.5540771484375 39.087120056152344 190.6451416015625 45.44564056396485 201.4920654296875 57.41462707519531 213.4610595703125 87.71112060546875 216.4532470703125 126.23626708984376 211.96490478515625 159.8990478515625 203.3621826171875 184.9591064453125 194.38543701171875 198.7982482910156 186.15673828125 205.90484619140625 180.92034912109375 207.77496337890625 180.92034912109375 207.77496337890625 " />
        <polyline stroke="black" stroke-width="3" stroke-linecap="round" fill="transparent" stroke-linejoin="round" points="127.4339599609375 96.6878356933594 131.54827880859375 106.4126434326172 135.66259765625 116.137451171875 142.76922607421875 138.57928466796875 142.76922607421875 138.57928466796875 " />
        <polyline stroke="black" stroke-width="3" stroke-linecap="round" fill="transparent" stroke-linejoin="round" points="88.90875244140624 187.57733154296875 97.511474609375 187.95135498046875 106.11419677734376 188.32537841796875 116.2130126953125 189.07342529296875 141.2730712890625 190.943603515625 167.45526123046875 191.691650390625 177.5540771484375 192.065673828125 185.40869140625 193.18777465820313 185.40869140625 193.18777465820313 " />
        </svg>