<?xml version="1.0" standalone="no"?>
    <svg width="256" height="256" xmlns="http://www.w3.org/2000/svg" version="1.1">
    <polyline stroke="black" stroke-width="3" stroke-linecap="round" fill="transparent" stroke-linejoin="round" points="61.25762939453125 72.95791625976563 64.1934814453125 92.7746124267578 65.66131591796875 121.39871215820313 67.86322021484375 148.55491638183594 71.53289794921875 175.71112060546875 73.0008544921875 184.5185546875 74.46875 187.454345703125 75.9366455078125 185.9864501953125 77.404541015625 178.6469268798828 77.404541015625 178.6469268798828 " />
        <polyline stroke="black" stroke-width="3" stroke-linecap="round" fill="transparent" stroke-linejoin="round" points="85.47796630859375 75.15975952148438 100.15704345703124 69.28816223144531 117.03790283203124 64.15048217773438 134.6527099609375 60.48072814941406 161.074951171875 59.0128173828125 172.0843505859375 59.0128173828125 177.221923828125 59.0128173828125 180.15771484375 59.746795654296875 181.625732421875 60.48072814941406 181.625732421875 68.55418395996094 182.359619140625 89.1048583984375 184.5614013671875 119.19685363769533 187.497314453125 146.35305786132813 193.368896484375 175.71112060546875 196.3046875 187.454345703125 197.7725830078125 193.32595825195313 198.506591796875 198.463623046875 198.506591796875 198.463623046875 " />
        <polyline stroke="black" stroke-width="3" stroke-linecap="round" fill="transparent" stroke-linejoin="round" points="117.7718505859375 109.65550231933594 131.7169189453125 127.27032470703124 137.588623046875 133.87586975097656 140.5242919921875 137.54563903808594 140.5242919921875 137.54563903808594 " />
        <polyline stroke="black" stroke-width="3" stroke-linecap="round" fill="transparent" stroke-linejoin="round" points="86.94586181640625 185.9864501953125 116.303955078125 176.445068359375 127.313232421875 174.2432098388672 138.322509765625 173.50929260253906 166.9466552734375 172.77529907226563 180.15771484375 174.2432098388672 185.29541015625 175.71112060546875 187.497314453125 177.9129638671875 188.231201171875 180.84881591796875 188.231201171875 180.84881591796875 " />
        </svg>