<?xml version="1.0" standalone="no"?>
    <svg width="256" height="256" xmlns="http://www.w3.org/2000/svg" version="1.1">
    <polyline stroke="black" stroke-width="3" stroke-linecap="round" fill="transparent" stroke-linejoin="round" points="77 115 76 115 75 115 77 115 90 111 106 105 124 100 141 97 153 94 157 93 168 91 175 91 178 91 177 91 176 91 174 92 172 97 171 105 170 108 168 119 167 123 165 142 163 157 161 169 161 177 161 180 161 180 " />
        <polyline stroke="black" stroke-width="3" stroke-linecap="round" fill="transparent" stroke-linejoin="round" points="65 204 68 204 71 204 80 201 87 199 104 194 122 189 135 186 150 185 157 186 160 186 160 187 160 187 " />
        </svg>