<?xml version="1.0" standalone="no"?>
    <svg width="256" height="256" xmlns="http://www.w3.org/2000/svg" version="1.1">
    <polyline stroke="black" stroke-width="3" stroke-linecap="round" fill="transparent" stroke-linejoin="round" points="64.50430297851563 154.81800842285156 76.68951416015625 148.5259246826172 88.87472534179688 142.2338409423828 115.21047973632813 128.07667541503906 128.18182373046875 122.96435546875 138.00860595703125 118.6385498046875 150.97994995117188 114.31272888183594 153.7314453125 113.9194793701172 154.91064453125 114.70597839355467 154.517578125 115.88575744628906 149.01458740234375 124.53736877441406 143.1185302734375 130.82945251464844 128.57489013671875 146.16641235351563 121.1065673828125 153.63824462890625 110.10055541992188 161.110107421875 107.34906005859376 161.89662170410156 104.99063110351563 161.110107421875 104.20449829101563 159.9303436279297 103.8114013671875 157.96408081054688 103.8114013671875 155.21128845214844 104.20449829101563 154.031494140625 104.59756469726563 152.45851135253906 104.59756469726563 152.85174560546875 104.59756469726563 152.0652313232422 104.99063110351563 151.67198181152344 104.99063110351563 151.67198181152344 105.38369750976563 152.0652313232422 105.77679443359376 152.0652313232422 107.74212646484376 153.63824462890625 109.70748901367188 155.99777221679688 118.74813842773438 171.33474731445313 123.0718994140625 178.41331481933594 126.60955810546876 185.09866333007813 127.78875732421876 187.06494140625 128.96795654296875 190.21099853515625 128.96795654296875 190.604248046875 128.96795654296875 190.604248046875 " />
        </svg>