<?xml version="1.0" standalone="no"?>
    <svg width="256" height="256" xmlns="http://www.w3.org/2000/svg" version="1.1">
    <polyline stroke="black" stroke-width="3" stroke-linecap="round" fill="transparent" stroke-linejoin="round" points="74 121 82 117 90 113 101 109 115 105 130 102 143 101 154 103 156 107 155 115 150 126 136 144 127 157 120 167 116 172 115 173 115 171 115 171 " />
        <polyline stroke="black" stroke-width="3" stroke-linecap="round" fill="transparent" stroke-linejoin="round" points="109 158 111 160 113 162 122 166 142 175 156 181 168 188 179 193 191 199 191 200 191 200 " />
        </svg>