<?xml version="1.0" standalone="no"?>
    <svg width="256" height="256" xmlns="http://www.w3.org/2000/svg" version="1.1">
    <polyline stroke="black" stroke-width="3" stroke-linecap="round" fill="transparent" stroke-linejoin="round" points="68.20672607421875 95.54196166992188 78.56625366210938 93.38754272460938 88.92578125 91.23312377929688 113.17333984375 86.36495971679688 117.97918701171876 85.15702819824219 145.093994140625 81.78367614746094 171.589599609375 78.99917602539063 172.33978271484375 78.77482604980469 172.42230224609375 78.75015258789063 172.5318603515625 79.08401489257813 173.791259765625 80.16514587402344 174.06292724609375 80.60359191894531 174.2772216796875 83.61651611328125 173.589599609375 102.1311492919922 172.047607421875 112.63021850585938 167.9300537109375 133.29714965820313 165.82073974609375 141.5011444091797 152.464111328125 156.00828552246094 147.62255859375 161.15464782714844 142.41156005859375 169.01251220703125 140.93701171875 171.88864135742188 140.78955078125 172.17623901367188 " />
        <polyline stroke="black" stroke-width="3" stroke-linecap="round" fill="transparent" stroke-linejoin="round" points="122.28363037109375 167.26107788085938 126.65646362304688 169.1654510498047 131.029296875 171.06982421875 135.20501708984375 173.08551025390625 152.78656005859375 179.15939331054688 160.1566162109375 181.87698364257813 162.52874755859375 184.26251220703125 164.89990234375 188.78726196289065 165.13702392578125 189.23974609375 " />
        </svg>