<?xml version="1.0" standalone="no"?>
    <svg width="256" height="256" xmlns="http://www.w3.org/2000/svg" version="1.1">
    <polyline stroke="black" stroke-width="3" stroke-linecap="round" fill="transparent" stroke-linejoin="round" points="80 99 78 99 79 98 87 95 99 93 114 92 130 92 146 90 157 88 160 88 171 85 179 83 181 83 180 83 179 83 178 85 176 86 176 88 173 91 173 94 167 104 159 119 152 133 147 143 144 150 144 153 144 153 " />
        <polyline stroke="black" stroke-width="3" stroke-linecap="round" fill="transparent" stroke-linejoin="round" points="126 143 127 147 133 154 140 161 150 172 153 176 153 176 " />
        </svg>