<?xml version="1.0" standalone="no"?>
    <svg width="256" height="256" xmlns="http://www.w3.org/2000/svg" version="1.1">
    <polyline stroke="black" stroke-width="3" stroke-linecap="round" fill="transparent" stroke-linejoin="round" points="51 141 51 142 50 142 50 143 51 143 52 142 54 141 56 139 59 137 63 135 68 131 73 128 81 124 88 120 97 117 106 113 115 110 124 107 133 104 141 101 148 99 155 97 159 95 162 94 165 92 167 91 167 90 168 90 167 90 164 90 164 90 " />
        <polyline stroke="black" stroke-width="3" stroke-linecap="round" fill="transparent" stroke-linejoin="round" points="126 76 125 75 124 75 124 76 124 77 124 80 124 84 124 89 124 95 124 102 125 111 126 119 127 128 128 135 129 142 131 149 132 155 133 160 133 165 134 169 134 173 134 176 135 179 135 182 136 184 136 186 136 188 137 189 137 190 137 191 136 191 135 190 134 188 133 187 132 186 132 185 131 184 130 183 128 182 126 181 124 179 121 178 117 176 112 174 106 172 97 169 88 166 79 161 71 156 67 153 65 151 65 151 " />
        </svg>