<?xml version="1.0" standalone="no"?>
    <svg width="256" height="256" xmlns="http://www.w3.org/2000/svg" version="1.1">
    <polyline stroke="black" stroke-width="3" stroke-linecap="round" fill="transparent" stroke-linejoin="round" points="138.11203002929688 40.33494567871094 132.45489501953125 51.64925384521485 124.37322998046876 65.3880615234375 115.4833984375 78.72279357910156 106.59359741210938 92.05752563476563 86.79354858398438 117.91879272460938 78.30780029296875 126.00045776367188 78.30780029296875 126.00045776367188 " />
        <polyline stroke="black" stroke-width="3" stroke-linecap="round" fill="transparent" stroke-linejoin="round" points="99.32012939453124 65.3880615234375 103.7650146484375 68.6207275390625 109.01806640625 72.25747680664063 119.52426147460938 80.339111328125 128.818115234375 87.20854187011719 136.49569702148438 93.67384338378906 146.19369506835938 100.13916015625 151.04266357421875 102.56365966796876 151.04266357421875 102.56365966796876 " />
        <polyline stroke="black" stroke-width="3" stroke-linecap="round" fill="transparent" stroke-linejoin="round" points="145.78961181640625 135.29434204101563 134.87939453125 147.82090759277344 110.23031616210938 174.4903564453125 98.916015625 184.5924072265625 98.916015625 184.5924072265625 " />
        <polyline stroke="black" stroke-width="3" stroke-linecap="round" fill="transparent" stroke-linejoin="round" points="101.74459838867188 162.36788940429688 110.23031616210938 166.00462341308594 119.12017822265624 169.641357421875 127.2017822265625 172.8740234375 141.748779296875 179.33934020996094 151.850830078125 183.78424072265625 158.316162109375 186.61285400390625 158.316162109375 186.61285400390625 " />
        <polyline stroke="black" stroke-width="3" stroke-linecap="round" fill="transparent" stroke-linejoin="round" points="50.02203369140625 107.4126434326172 49.2138671875 116.30247497558594 49.2138671875 124.7882080078125 51.63836669921875 158.7311248779297 54.062835693359375 171.66177368164063 58.507781982421875 182.97607421875 64.97308349609375 191.0577392578125 77.90374755859375 198.33123779296875 87.60174560546875 201.1597900390625 108.614013671875 202.776123046875 137.70794677734375 199.94757080078125 157.10394287109375 194.2904052734375 176.4998779296875 184.5924072265625 176.4998779296875 184.5924072265625 " />
        <polyline stroke="black" stroke-width="3" stroke-linecap="round" fill="transparent" stroke-linejoin="round" points="211.2509765625 92.46159362792967 210.846923828125 116.70654296875 210.44281005859375 149.84130859375 210.44281005859375 158.7311248779297 209.6346435546875 181.3597412109375 209.6346435546875 181.3597412109375 " />
        </svg>