<?xml version="1.0" standalone="no"?>
    <svg width="256" height="256" xmlns="http://www.w3.org/2000/svg" version="1.1">
    <polyline stroke="black" stroke-width="3" stroke-linecap="round" fill="transparent" stroke-linejoin="round" points="78.732421875 106.85317993164063 98.43222045898438 101.15060424804688 107.24530029296876 99.59536743164063 117.09515380859376 98.04011535644533 127.46347045898438 97.52169799804688 148.20004272460938 97.0032958984375 166.86297607421875 96.48486328125 182.933837890625 95.96646118164063 195.89422607421875 93.89279174804688 200.5599365234375 91.8191375732422 200.5599365234375 91.8191375732422 " />
        <polyline stroke="black" stroke-width="3" stroke-linecap="round" fill="transparent" stroke-linejoin="round" points="177.2313232421875 52.938011169433594 167.89984130859375 77.30351257324219 162.7156982421875 93.89279174804688 149.75531005859375 126.03453063964844 141.97906494140625 143.14224243164063 125.908203125 173.72869873046875 110.8741455078125 195.50213623046875 97.913818359375 212.60983276367188 92.72967529296876 218.3123779296875 92.72967529296876 218.3123779296875 " />
        <polyline stroke="black" stroke-width="3" stroke-linecap="round" fill="transparent" stroke-linejoin="round" points="89.10076904296875 142.62380981445313 117.09515380859376 155.58419799804688 128.500244140625 161.80517578125 154.4210205078125 177.8760223388672 179.8233642578125 194.98370361328125 191.228515625 202.75994873046875 218.7044677734375 220.90447998046875 218.7044677734375 220.90447998046875 " />
        </svg>