<?xml version="1.0" standalone="no"?>
    <svg width="256" height="256" xmlns="http://www.w3.org/2000/svg" version="1.1">
    <polyline stroke="black" stroke-width="3" stroke-linecap="round" fill="transparent" stroke-linejoin="round" points="59.662078857421875 98.15484619140624 71.22750854492188 93.19825744628906 81.55377197265625 90.30690002441406 92.70611572265624 87.82859802246094 125.33709716796876 83.28504943847656 134.42416381835938 82.0458984375 150.53314208984375 80.39369201660156 162.09857177734375 79.154541015625 169.12042236328125 78.32844543457031 172.837890625 76.67623901367188 172.837890625 76.67623901367188 " />
        <polyline stroke="black" stroke-width="3" stroke-linecap="round" fill="transparent" stroke-linejoin="round" points="138.1416015625 56.849822998046875 131.94589233398438 73.78488159179688 128.22845458984375 86.1763916015625 122.03268432617188 108.8941650390625 115.42388916015624 133.67718505859375 104.271484375 165.89511108398438 98.90185546875 176.2213592529297 87.74951171875 191.91726684570313 79.90155029296875 197.69998168945313 75.35800170898438 198.113037109375 75.35800170898438 198.113037109375 " />
        <polyline stroke="black" stroke-width="3" stroke-linecap="round" fill="transparent" stroke-linejoin="round" points="64.20565795898438 130.37277221679688 89.40170288085938 139.87295532226563 101.793212890625 144.82955932617188 115.01083374023438 149.3730926513672 127.81536865234376 153.5035858154297 150.94622802734375 160.11239624023438 172.4248046875 166.72119140625 191.838134765625 176.6343994140625 201.33831787109375 184.8954162597656 201.33831787109375 184.8954162597656 " />
        </svg>