<?xml version="1.0" standalone="no"?>
    <svg width="256" height="256" xmlns="http://www.w3.org/2000/svg" version="1.1">
    <polyline stroke="black" stroke-width="3" stroke-linecap="round" fill="transparent" stroke-linejoin="round" points="100.01666259765624 74.08087158203125 101.80908203125 88.86819458007813 103.60150146484376 103.655517578125 105.39389038085938 133.6782684326172 105.39389038085938 148.46560668945313 105.39389038085938 164.14913940429688 103.60150146484376 187.89846801757813 102.25717163085938 203.1339111328125 99.568603515625 212.54400634765625 98.22430419921876 212.99212646484375 95.53564453125 210.30352783203125 89.71038818359375 201.78961181640625 82.540771484375 188.3465881347656 74.92303466796875 172.66305541992188 69.09774780273438 159.2200164794922 67.30535888671875 152.05039978027344 67.30535888671875 152.05039978027344 " />
        <polyline stroke="black" stroke-width="3" stroke-linecap="round" fill="transparent" stroke-linejoin="round" points="115.7001953125 105.4479064941406 107.6343994140625 113.51373291015624 99.568603515625 121.57955932617188 74.47494506835938 147.56942749023438 53.4141845703125 169.52633666992188 39.97119140625 182.52127075195313 31.457275390625 190.13897705078125 26.97625732421875 194.171875 26.97625732421875 194.171875 " />
        <polyline stroke="black" stroke-width="3" stroke-linecap="round" fill="transparent" stroke-linejoin="round" points="182.46728515625 68.70364379882814 173.5052490234375 79.90617370605469 164.543212890625 91.10870361328124 152.44451904296875 106.79222106933594 141.241943359375 121.57955932617188 123.31793212890624 146.22509765625 111.21920776367188 163.2529296875 103.15341186523438 176.69595336914063 100.01669311523438 182.9693603515625 100.01669311523438 182.9693603515625 " />
        <polyline stroke="black" stroke-width="3" stroke-linecap="round" fill="transparent" stroke-linejoin="round" points="162.30267333984375 121.1314392089844 168.57611083984375 125.1643524169922 174.84954833984375 129.197265625 201.2874755859375 149.36180114746094 207.11279296875 153.8428192138672 222.79632568359375 166.83773803710938 222.79632568359375 166.83773803710938 " />
        </svg>