<?xml version="1.0" standalone="no"?>
    <svg width="256" height="256" xmlns="http://www.w3.org/2000/svg" version="1.1">
    <polyline stroke="black" stroke-width="3" stroke-linecap="round" fill="transparent" stroke-linejoin="round" points="94.70941162109376 48.681427001953125 97.0662841796875 63.35130310058594 99.42315673828124 78.02117919921875 101.6513671875 95.4407196044922 103.100830078125 114.93777465820313 103.08004760742188 151.6371307373047 102.24945068359376 168.36322021484375 100.871826171875 195.0546875 99.24774169921876 211.35726928710935 98.597900390625 215.65570068359375 97.95004272460938 216.89572143554688 97.32931518554688 217.1244201660156 97.26229858398438 217.14910888671875 97.2607421875 217.149658203125 96.32501220703124 216.5772705078125 94.32162475585938 214.6876220703125 82.04855346679688 194.4803771972656 70.04696655273438 169.67825317382813 70.7730712890625 168.87063598632813 " />
        <polyline stroke="black" stroke-width="3" stroke-linecap="round" fill="transparent" stroke-linejoin="round" points="105.12744140625 102.09719848632813 101.8917236328125 109.11471557617188 98.656005859375 116.13223266601563 92.99102783203124 125.90768432617188 86.3052978515625 135.8734588623047 68.5946044921875 156.83860778808594 57.439056396484375 168.9718475341797 48.47259521484375 180.46725463867188 47.575927734375 181.6167907714844 " />
        <polyline stroke="black" stroke-width="3" stroke-linecap="round" fill="transparent" stroke-linejoin="round" points="162.3841552734375 89.79266357421875 156.8328857421875 100.75955200195313 151.2816162109375 111.7264404296875 146.33309936523438 121.65762329101563 135.95941162109375 145.75189208984375 130.89788818359375 159.0535888671875 114.942626953125 182.2103729248047 108.38641357421876 195.96664428710935 108.1173095703125 196.5694580078125 " />
        <polyline stroke="black" stroke-width="3" stroke-linecap="round" fill="transparent" stroke-linejoin="round" points="166.58203125 108.87542724609375 171.63873291015625 119.23849487304688 176.6954345703125 129.6015625 181.8553466796875 138.69451904296875 197.29541015625 160.73812866210938 205.781005859375 172.3397216796875 216.72772216796875 189.48001098632813 219.95355224609375 197.42822265625 225.73291015625 204.15847778320313 226.310791015625 204.83148193359375 " />
        </svg>