<?xml version="1.0" standalone="no"?>
    <svg width="256" height="256" xmlns="http://www.w3.org/2000/svg" version="1.1">
    <polyline stroke="black" stroke-width="3" stroke-linecap="round" fill="transparent" stroke-linejoin="round" points="85.34552001953125 52.6673583984375 87.05419921875 69.50729370117188 88.76287841796875 86.34722900390625 90.23007202148438 105.812744140625 91.34213256835938 145.90670776367188 90.6180419921875 163.5821533203125 89.71337890625 186.32077026367188 89.24005126953125 196.6943359375 89.14413452148438 209.1829833984375 88.47332763671875 217.58541870117188 88.43612670898438 217.785888671875 88.43206787109375 217.8077392578125 88.4320068359375 217.8079833984375 86.14178466796875 215.95559692382813 83.67010498046875 213.42648315429688 72.089599609375 198.195556640625 66.52145385742188 189.13677978515625 52.981048583984375 168.89134216308594 51.96575927734375 167.84552001953125 " />
        <polyline stroke="black" stroke-width="3" stroke-linecap="round" fill="transparent" stroke-linejoin="round" points="108.97998046874997 96.7922058105469 95.95709228515624 109.50921630859376 82.9342041015625 122.22622680664063 70.4801025390625 132.45681762695313 42.610809326171875 148.65682983398438 27.836151123046875 156.0396728515625 26.35870361328125 156.7779541015625 " />
        <polyline stroke="black" stroke-width="3" stroke-linecap="round" fill="transparent" stroke-linejoin="round" points="159.209716796875 76.73059082031251 156.839111328125 87.20529174804688 154.468505859375 97.67999267578124 140.456787109375 129.24749755859375 121.08969116210938 161.47850036621094 113.87744140625 178.63095092773438 100.95965576171876 196.52734375 96.01400756835938 200.7843017578125 94.862548828125 201.93597412109375 94.89108276367188 202.466552734375 94.89398193359376 202.51959228515625 " />
        <polyline stroke="black" stroke-width="3" stroke-linecap="round" fill="transparent" stroke-linejoin="round" points="168.36834716796875 94.95486450195317 176.88299560546875 106.8325653076172 185.39764404296875 118.71026611328124 198.70428466796875 141.46185302734375 206.426025390625 157.58200073242188 207.3092041015625 160.4757080078125 207.00994873046875 166.3765106201172 206.95709228515625 166.71652221679688 " />
        </svg>