<?xml version="1.0" standalone="no"?>
    <svg width="256" height="256" xmlns="http://www.w3.org/2000/svg" version="1.1">
    <polyline stroke="black" stroke-width="3" stroke-linecap="round" fill="transparent" stroke-linejoin="round" points="97 57 97 54 95 54 95 60 95 72 95 94 95 118 95 139 96 154 96 165 96 171 95 174 95 175 94 175 93 175 92 173 89 169 87 161 87 158 87 158 " />
        <polyline stroke="black" stroke-width="3" stroke-linecap="round" fill="transparent" stroke-linejoin="round" points="108 78 104 84 96 99 85 119 70 143 57 162 50 171 50 171 " />
        <polyline stroke="black" stroke-width="3" stroke-linecap="round" fill="transparent" stroke-linejoin="round" points="151 76 151 75 150 80 147 88 137 112 125 132 116 147 112 153 111 154 111 154 " />
        <polyline stroke="black" stroke-width="3" stroke-linecap="round" fill="transparent" stroke-linejoin="round" points="170 109 170 110 173 116 179 124 181 126 186 131 187 133 191 136 191 136 " />
        </svg>