<?xml version="1.0" standalone="no"?>
    <svg width="256" height="256" xmlns="http://www.w3.org/2000/svg" version="1.1">
    <polyline stroke="black" stroke-width="3" stroke-linecap="round" fill="transparent" stroke-linejoin="round" points="102.3333740234375 50.40000915527344 103.4000244140625 72.80000305175781 104.466796875 86.66667175292969 107.666748046875 127.20001220703124 109.80010986328124 151.73338317871094 110.86669921875 170.93336486816406 110.86669921875 186.933349609375 110.86669921875 192.2666931152344 110.86669921875 198.66668701171875 109.80010986328124 200.80001831054688 107.666748046875 201.86666870117188 105.53338623046876 201.86666870117188 97.00006103515624 189.06671142578125 91.666748046875 175.20001220703125 91.666748046875 175.20001220703125 " />
        <polyline stroke="black" stroke-width="3" stroke-linecap="round" fill="transparent" stroke-linejoin="round" points="113.00006103515624 92.00001525878906 100.2000732421875 127.20001220703124 86.3333740234375 150.6666717529297 73.53338623046875 166.6666717529297 55.4000244140625 178.40003967285156 55.4000244140625 178.40003967285156 " />
        <polyline stroke="black" stroke-width="3" stroke-linecap="round" fill="transparent" stroke-linejoin="round" points="166.3333740234375 89.86669921875 158.86669921875 112.26667785644533 154.60009765625 124.00001525878906 136.466796875 156.00001525878906 124.7333984375 170.93336486816406 117.2667236328125 177.33334350585938 113.00006103515624 177.33334350585938 113.00006103515624 177.33334350585938 " />
        <polyline stroke="black" stroke-width="3" stroke-linecap="round" fill="transparent" stroke-linejoin="round" points="168.466796875 87.73333740234375 183.4000244140625 102.66667175292967 196.2000732421875 112.26667785644533 212.2000732421875 127.20001220703124 218.60009765625 134.6666717529297 218.60009765625 141.06671142578125 218.60009765625 141.06671142578125 " />
        </svg>