<?xml version="1.0" standalone="no"?>
    <svg width="256" height="256" xmlns="http://www.w3.org/2000/svg" version="1.1">
    <polyline stroke="black" stroke-width="3" stroke-linecap="round" fill="transparent" stroke-linejoin="round" points="84.160400390625 92.75 91.66912841796876 90.099853515625 100.06121826171876 87.44972229003906 109.77838134765624 84.79959106445313 128.32928466796875 80.38270568847656 146.88021850585938 76.84918212890625 161.897705078125 74.6407470703125 176.03173828125 72.87399291992188 180.0069580078125 72.87399291992188 180.0069580078125 72.87399291992188 " />
        <polyline stroke="black" stroke-width="3" stroke-linecap="round" fill="transparent" stroke-linejoin="round" points="110.22006225585938 112.18431091308594 107.56991577148438 119.69302368164063 102.2696533203125 141.77749633789063 99.17782592773438 166.51205444335938 99.6195068359375 183.7379150390625 102.71136474609376 194.7801513671875 108.0115966796875 200.08041381835935 112.87020874023438 201.84716796875 123.91241455078124 201.84716796875 142.02166748046875 193.455078125 148.64697265625 187.27142333984375 148.64697265625 187.27142333984375 " />
        <polyline stroke="black" stroke-width="3" stroke-linecap="round" fill="transparent" stroke-linejoin="round" points="152.6221923828125 138.24395751953125 156.15570068359375 144.86929321289063 160.13092041015625 152.37802124023438 169.84808349609375 169.16217041015625 180.0069580078125 185.06298828125 184.865478515625 193.455078125 193.257568359375 211.5643310546875 193.257568359375 211.5643310546875 " />
        </svg>