<?xml version="1.0" standalone="no"?>
    <svg width="256" height="256" xmlns="http://www.w3.org/2000/svg" version="1.1">
    <polyline stroke="black" stroke-width="3" stroke-linecap="round" fill="transparent" stroke-linejoin="round" points="84.39984130859375 79.84750366210938 94.87118530273438 75.658935546875 117.070556640625 68.53839111328125 127.5419921875 65.60639953613281 146.80941772460938 60.1612548828125 159.7939453125 56.39155578613281 166.91448974609375 54.297271728515625 168.5899658203125 53.45955657958984 168.5899658203125 53.45955657958984 " />
        <polyline stroke="black" stroke-width="3" stroke-linecap="round" fill="transparent" stroke-linejoin="round" points="86.49407958984375 135.55538940429688 83.56210327148438 144.3513641357422 80.63009643554688 155.24163818359375 77.27923583984375 172.41473388671875 76.86041259765625 185.81814575195313 78.95468139648438 193.3575439453125 83.56210327148438 195.8706970214844 92.77694702148438 195.03298950195313 98.64093017578124 192.938720703125 117.90829467773438 180.37301635742188 125.02886962890624 173.6713104248047 125.02886962890624 173.6713104248047 " />
        <polyline stroke="black" stroke-width="3" stroke-linecap="round" fill="transparent" stroke-linejoin="round" points="138.4322509765625 157.7547607421875 141.78314208984375 164.4564666748047 145.55282592773438 171.5770263671875 149.74139404296875 179.53530883789063 158.1185302734375 195.8706970214844 162.30706787109375 204.247802734375 166.91448974609375 214.30035400390625 166.91448974609375 214.30035400390625 " />
        </svg>