<?xml version="1.0" standalone="no"?>
    <svg width="256" height="256" xmlns="http://www.w3.org/2000/svg" version="1.1">
    <polyline stroke="black" stroke-width="3" stroke-linecap="round" fill="transparent" stroke-linejoin="round" points="61.99676513671875 100.35516357421876 72.968017578125 97.87777709960938 96.68014526367188 91.15345764160156 108.35922241210938 87.96824645996094 132.7791748046875 82.3056640625 154.3677978515625 78.0587158203125 170.29388427734375 74.87350463867188 178.433837890625 73.10394287109375 180.203369140625 72.3961181640625 180.203369140625 72.3961181640625 " />
        <polyline stroke="black" stroke-width="3" stroke-linecap="round" fill="transparent" stroke-linejoin="round" points="86.77059936523438 127.60638427734376 86.41671752929688 137.16201782226563 86.06280517578125 146.36373901367188 86.06280517578125 154.5037078857422 85.7088623046875 169.36801147460938 85.7088623046875 175.03060913085938 86.77059936523438 182.81668090820313 89.24798583984375 188.1253662109375 93.848876953125 190.60272216796875 107.65142822265624 186.709716796875 122.86962890625 178.21580505371094 133.84091186523438 169.721923828125 133.84091186523438 169.721923828125 " />
        <polyline stroke="black" stroke-width="3" stroke-linecap="round" fill="transparent" stroke-linejoin="round" points="154.013916015625 149.54893493652344 157.90692138671875 155.21153259277344 162.1539306640625 161.5819549560547 171.3555908203125 175.03060913085938 175.6025390625 181.7549285888672 180.55731201171875 190.24884033203125 180.55731201171875 190.24884033203125 " />
        </svg>