<?xml version="1.0" standalone="no"?>
    <svg width="256" height="256" xmlns="http://www.w3.org/2000/svg" version="1.1">
    <polyline stroke="black" stroke-width="3" stroke-linecap="round" fill="transparent" stroke-linejoin="round" points="69 87 86 84 119 78 142 74 160 73 172 72 174 73 174 73 " />
        <polyline stroke="black" stroke-width="3" stroke-linecap="round" fill="transparent" stroke-linejoin="round" points="86 93 86 102 86 122 86 149 86 170 86 185 85 191 85 193 87 190 91 185 105 166 121 143 128 134 128 134 " />
        <polyline stroke="black" stroke-width="3" stroke-linecap="round" fill="transparent" stroke-linejoin="round" points="150 107 154 124 160 143 168 157 178 170 191 184 203 204 203 204 " />
        </svg>