<?xml version="1.0" standalone="no"?>
    <svg width="256" height="256" xmlns="http://www.w3.org/2000/svg" version="1.1">
    <polyline stroke="black" stroke-width="3" stroke-linecap="round" fill="transparent" stroke-linejoin="round" points="111 30 111 30 112 33 113 39 112 49 110 63 106 80 102 98 99 115 94 138 91 152 89 164 88 173 87 181 87 187 86 190 87 192 88 192 89 191 " />
        <polyline stroke="black" stroke-width="3" stroke-linecap="round" fill="transparent" stroke-linejoin="round" points="104 70 106 67 109 61 113 55 117 50 121 44 127 39 133 34 140 31 147 30 153 30 159 33 164 38 167 46 170 64 170 72 170 94 170 107 170 119 170 129 171 138 172 146 174 152 176 157 181 163 184 166 188 167 192 166 196 163 201 159 205 153 208 146 208 143 " />
        <polyline stroke="black" stroke-width="3" stroke-linecap="round" fill="transparent" stroke-linejoin="round" points="150 74 150 74 148 74 147 75 144 79 140 84 136 90 132 95 127 101 123 106 119 111 113 116 112 118 109 120 108 120 " />
        <polyline stroke="black" stroke-width="3" stroke-linecap="round" fill="transparent" stroke-linejoin="round" points="102 92 104 92 108 92 113 92 118 93 122 94 127 96 133 98 138 100 142 102 146 104 150 106 154 107 158 108 160 108 " />
        <polyline stroke="black" stroke-width="3" stroke-linecap="round" fill="transparent" stroke-linejoin="round" points="143 105 142 106 140 110 139 115 139 120 139 127 139 134 141 145 142 152 142 158 143 163 142 165 141 167 138 167 135 165 131 162 126 158 124 156 " />
        <polyline stroke="black" stroke-width="3" stroke-linecap="round" fill="transparent" stroke-linejoin="round" points="107 146 106 146 104 146 104 148 104 150 105 154 106 156 107 157 109 158 112 158 114 158 " />
        <polyline stroke="black" stroke-width="3" stroke-linecap="round" fill="transparent" stroke-linejoin="round" points="150 145 152 145 156 145 160 146 163 147 165 147 167 148 169 149 171 150 173 153 176 156 177 157 " />
        </svg>