<?xml version="1.0" standalone="no"?>
    <svg width="256" height="256" xmlns="http://www.w3.org/2000/svg" version="1.1">
    <polyline stroke="black" stroke-width="3" stroke-linecap="round" fill="transparent" stroke-linejoin="round" points="104.11810302734376 45.298362731933594 95.35202026367188 72.01400756835938 89.09054565429688 89.546142578125 82.41162109375 107.49571228027344 67.801513671875 147.56918334960938 54.861083984375 180.96371459960935 45.6776123046875 202.25274658203125 39.4161376953125 216.02801513671875 35.241790771484375 223.95919799804688 33.154632568359375 226.8812255859375 33.154632568359375 226.8812255859375 " />
        <polyline stroke="black" stroke-width="3" stroke-linecap="round" fill="transparent" stroke-linejoin="round" points="103.70062255859376 54.064422607421875 114.13644409179688 45.715789794921875 126.65939331054688 38.20201873779297 132.92086791992188 34.86256408691406 139.59979248046875 31.94053649902344 154.6273193359375 28.18364715576172 169.2374267578125 27.76622772216797 183.0126953125 31.105674743652344 193.448486328125 38.61944580078125 203.0494384765625 56.9864501953125 207.6412353515625 85.371826171875 207.2237548828125 114.592041015625 205.971435546875 139.63796997070313 206.80633544921875 160.92698669433594 209.7283935546875 178.04168701171875 214.737548828125 190.98208618164065 221.41644287109375 199.7481689453125 228.5128173828125 205.17477416992188 236.02655029296875 207.26193237304688 243.1229248046875 203.08761596679688 243.1229248046875 203.08761596679688 " />
        <polyline stroke="black" stroke-width="3" stroke-linecap="round" fill="transparent" stroke-linejoin="round" points="168.402587890625 65.3350830078125 145.86126708984375 85.371826171875 137.51263427734375 94.1378936767578 128.74655151367188 102.90396118164063 120.81536865234376 111.25260925292967 108.70980834960938 125.02786254882813 101.61349487304688 131.70675659179688 99.52630615234376 133.79393005371094 99.52630615234376 133.79393005371094 " />
        <polyline stroke="black" stroke-width="3" stroke-linecap="round" fill="transparent" stroke-linejoin="round" points="112.8841552734375 84.95439147949219 125.82455444335938 89.12870788574219 130.83370971679688 91.21588134765624 136.677734375 93.72047424316406 150.4530029296875 99.5644989013672 170.48974609375 108.74801635742188 181.76043701171875 113.33975219726563 187.60443115234375 115.42691040039063 189.274169921875 116.26177978515624 189.274169921875 116.26177978515624 " />
        <polyline stroke="black" stroke-width="3" stroke-linecap="round" fill="transparent" stroke-linejoin="round" points="145.0263671875 125.02786254882813 146.2786865234375 136.7159423828125 146.69613647460938 142.9774169921875 146.69613647460938 150.9086151123047 147.113525390625 170.11050415039063 147.113525390625 190.56466674804688 147.113525390625 198.91329956054688 146.2786865234375 212.68853759765625 144.60897827148438 221.45462036132813 140.85205078125 225.62893676757813 137.51263427734375 227.29864501953125 137.51263427734375 227.29864501953125 " />
        <polyline stroke="black" stroke-width="3" stroke-linecap="round" fill="transparent" stroke-linejoin="round" points="93.26483154296876 168.44076538085938 87.00335693359375 184.7206115722656 84.498779296875 191.81695556640625 82.41162109375 198.07843017578125 81.1593017578125 203.08761596679688 80.324462890625 210.1839599609375 80.74188232421875 211.85369873046875 80.74188232421875 211.85369873046875 " />
        <polyline stroke="black" stroke-width="3" stroke-linecap="round" fill="transparent" stroke-linejoin="round" points="174.24664306640625 163.8489990234375 183.0126953125 171.36277770996094 186.3521728515625 174.70223999023438 194.7008056640625 185.55548095703125 196.7879638671875 189.3123779296875 198.45770263671875 192.65182495117188 198.45770263671875 192.65182495117188 " />
        </svg>