<?xml version="1.0" standalone="no"?>
    <svg width="256" height="256" xmlns="http://www.w3.org/2000/svg" version="1.1">
    <polyline stroke="black" stroke-width="3" stroke-linecap="round" fill="transparent" stroke-linejoin="round" points="132.91000366210938 40.482078552246094 124.36578369140624 51.874412536621094 118.26275634765624 60.41865539550781 104.8360595703125 78.32089233398438 93.036865234375 94.59564208984376 83.67889404296875 107.20858764648438 77.57586669921875 115.75283813476563 75.54150390625 118.60092163085938 73.10028076171875 123.48333740234376 73.10028076171875 125.924560546875 76.355224609375 126.3314208984375 76.355224609375 126.3314208984375 " />
        <polyline stroke="black" stroke-width="3" stroke-linecap="round" fill="transparent" stroke-linejoin="round" points="160.9840087890625 98.25746154785156 155.287841796875 110.8704071044922 150.40536499023438 120.22837829589844 137.79244995117188 140.97869873046875 130.87567138671875 151.9641571044922 110.93914794921876 179.63125610351563 100.767333984375 192.24420166015625 92.22311401367188 201.1953125 88.1544189453125 204.85711669921875 88.1544189453125 204.85711669921875 " />
        <polyline stroke="black" stroke-width="3" stroke-linecap="round" fill="transparent" stroke-linejoin="round" points="89.78192138671875 141.38555908203125 107.68417358398438 150.74356079101563 114.60092163085938 155.21910095214844 130.87567138671875 167.018310546875 139.8267822265625 174.34194946289063 164.645751953125 197.94036865234375 180.513671875 217.87692260742188 187.430419921875 227.23492431640625 187.430419921875 227.23492431640625 " />
        </svg>