<?xml version="1.0" standalone="no"?>
    <svg width="256" height="256" xmlns="http://www.w3.org/2000/svg" version="1.1">
    <polyline stroke="black" stroke-width="3" stroke-linecap="round" fill="transparent" stroke-linejoin="round" points="69.3594970703125 83.56867980957031 75.41983032226563 95.68934631347656 78.17453002929688 100.64779663085938 82.03109741210938 104.50437927246094 87.54049682617188 106.15719604492188 98.55926513671876 103.40249633789063 113.43463134765624 94.03652954101563 113.43463134765624 94.03652954101563 " />
        <polyline stroke="black" stroke-width="3" stroke-linecap="round" fill="transparent" stroke-linejoin="round" points="165.22296142578125 49.96137237548828 172.93609619140625 54.368896484375 172.93609619140625 59.87828063964844 167.9776611328125 69.24424743652344 156.407958984375 81.91586303710938 139.32879638671875 95.68934631347656 114.53652954101563 112.217529296875 95.80459594726563 122.68537902832033 78.7254638671875 131.5004119873047 68.25762939453125 136.4588623046875 63.299163818359375 138.66262817382813 62.197265625 138.66262817382813 66.05386352539063 137.0098114013672 78.17453002929688 130.94947814941406 96.90646362304688 123.23631286621094 116.1893310546875 115.52316284179688 137.67596435546875 108.3609619140625 158.06072998046875 100.64779663085938 171.834228515625 94.03652954101563 177.89453125 89.07807922363281 183.4039306640625 79.16116333007813 183.4039306640625 79.16116333007813 " />
        <polyline stroke="black" stroke-width="3" stroke-linecap="round" fill="transparent" stroke-linejoin="round" points="124.45343017578124 39.49352264404297 122.24969482421876 60.429229736328125 120.59686279296876 114.97222900390624 120.04592895507813 144.17201232910156 118.94403076171876 170.06617736816406 115.08746337890624 208.08099365234375 111.78182983398438 226.81292724609375 110.1290283203125 228.46575927734375 110.1290283203125 228.46575927734375 " />
        <polyline stroke="black" stroke-width="3" stroke-linecap="round" fill="transparent" stroke-linejoin="round" points="107.37432861328124 134.80604553222656 94.15176391601563 145.27389526367188 82.03109741210938 158.49644470214844 68.80856323242188 173.92274475097656 58.3406982421875 186.04342651367188 51.72943115234375 192.6546936035156 47.87286376953125 195.40939331054688 47.87286376953125 192.103759765625 47.87286376953125 192.103759765625 " />
        <polyline stroke="black" stroke-width="3" stroke-linecap="round" fill="transparent" stroke-linejoin="round" points="113.43463134765624 133.15322875976563 131.61566162109375 141.41732788085938 145.38916015625 149.68141174316406 160.2645263671875 159.04737854003906 185.0567626953125 177.22837829589844 193.871826171875 187.14529418945313 203.23779296875 201.4697265625 203.23779296875 201.4697265625 " />
        </svg>