<?xml version="1.0" standalone="no"?>
    <svg width="256" height="256" xmlns="http://www.w3.org/2000/svg" version="1.1">
    <polyline stroke="black" stroke-width="3" stroke-linecap="round" fill="transparent" stroke-linejoin="round" points="104.88836669921876 81.967529296875 124.86737060546876 76.71263122558594 141.93280029296875 72.31622314453125 151.9483642578125 70.62527465820313 155.66845703125 70.0789794921875 156.6829833984375 69.89688110351563 157.6455078125 69.76681518554688 157.6455078125 69.76681518554688 " />
        <polyline stroke="black" stroke-width="3" stroke-linecap="round" fill="transparent" stroke-linejoin="round" points="101.03826904296876 101.47830200195313 104.65423583984376 105.1203155517578 108.270263671875 108.34609985351563 111.91226196289063 110.9215087890625 115.47622680664063 112.61244201660156 115.47622680664063 112.61244201660156 " />
        <polyline stroke="black" stroke-width="3" stroke-linecap="round" fill="transparent" stroke-linejoin="round" points="125.75189208984376 95.703125 131.344970703125 96.48356628417967 131.344970703125 96.48356628417967 " />
        <polyline stroke="black" stroke-width="3" stroke-linecap="round" fill="transparent" stroke-linejoin="round" points="155.20013427734375 89.56373596191406 151.87030029296875 94.4023895263672 147.62997436523438 99.7613525390625 141.54263305664063 105.61457824707033 132.8017578125 112.84658813476563 132.8017578125 112.84658813476563 " />
        <polyline stroke="black" stroke-width="3" stroke-linecap="round" fill="transparent" stroke-linejoin="round" points="88.109130859375 131.4728546142578 111.365966796875 122.08168029785156 139.04519653320313 112.820556640625 159.7266845703125 107.01936340332033 168.44140625 105.224365234375 174.008544921875 106.6551513671875 174.7369384765625 107.48762512207033 174.7369384765625 107.48762512207033 " />
        <polyline stroke="black" stroke-width="3" stroke-linecap="round" fill="transparent" stroke-linejoin="round" points="93.364013671875 156.6287384033203 115.19009399414063 148.46023559570313 142.89535522460938 140.52586364746094 164.72137451171875 135.7392120361328 176.06365966796875 133.3459014892578 180.40802001953125 133.7621307373047 180.40802001953125 133.7621307373047 " />
        <polyline stroke="black" stroke-width="3" stroke-linecap="round" fill="transparent" stroke-linejoin="round" points="106.08502197265624 171.6390380859375 109.38885498046876 180.5099334716797 109.70101928710938 188.39227294921875 109.67498779296876 190.187255859375 111.91226196289063 191.46197509765625 114.04547119140624 192.29443359375 114.04547119140624 192.29443359375 " />
        <polyline stroke="black" stroke-width="3" stroke-linecap="round" fill="transparent" stroke-linejoin="round" points="165.7359619140625 152.9867401123047 161.65167236328125 164.69320678710938 154.5498046875 175.95741271972656 152.13043212890625 180.4839324951172 152.13043212890625 180.4839324951172 " />
        <polyline stroke="black" stroke-width="3" stroke-linecap="round" fill="transparent" stroke-linejoin="round" points="123.54067993164063 192.3724670410156 136.313720703125 189.35482788085935 136.313720703125 189.35482788085935 " />
        </svg>