<?xml version="1.0" standalone="no"?>
    <svg width="256" height="256" xmlns="http://www.w3.org/2000/svg" version="1.1">
    <polyline stroke="black" stroke-width="3" stroke-linecap="round" fill="transparent" stroke-linejoin="round" points="53.63726806640625 94.70401000976565 63.221893310546875 91.62322998046876 72.8065185546875 88.54244995117188 82.39117431640625 85.461669921875 93.344970703125 82.72320556640625 115.93734741210938 77.24629211425781 138.52963256835938 72.11166381835938 156.6719970703125 66.97705078125 170.02197265625 60.47319030761719 170.02197265625 60.47319030761719 " />
        <polyline stroke="black" stroke-width="3" stroke-linecap="round" fill="transparent" stroke-linejoin="round" points="130.6566162109375 30.007781982421875 123.12582397460938 43.3577880859375 115.59503173828124 56.707794189453125 108.06427001953124 71.08474731445313 94.7142333984375 98.46937561035156 88.89498901367188 110.79246520996094 79.65267944335938 130.64633178710938 73.14886474609375 144.33865356445313 69.72576904296875 151.527099609375 69.0411376953125 153.2386474609375 69.0411376953125 153.2386474609375 " />
        <polyline stroke="black" stroke-width="3" stroke-linecap="round" fill="transparent" stroke-linejoin="round" points="113.19879150390625 92.650146484375 129.971923828125 92.650146484375 146.74505615234375 92.650146484375 161.12200927734375 92.99244689941406 167.9681396484375 93.33474731445313 183.37200927734375 94.01936340332033 183.37200927734375 94.01936340332033 " />
        <polyline stroke="black" stroke-width="3" stroke-linecap="round" fill="transparent" stroke-linejoin="round" points="99.50653076171876 158.3732452392578 100.191162109375 160.7694091796875 100.87579345703124 163.1655731201172 102.2449951171875 164.8771209716797 115.93734741210938 168.6425018310547 130.31427001953125 166.58865356445313 136.818115234375 164.53482055664063 149.14120483398438 158.715576171875 167.2835693359375 141.60018920898438 167.2835693359375 141.60018920898438 " />
        <polyline stroke="black" stroke-width="3" stroke-linecap="round" fill="transparent" stroke-linejoin="round" points="172.0758056640625 123.45783996582031 171.7335205078125 132.70016479492188 171.3912353515625 141.94248962402344 171.0489501953125 146.39248657226563 170.3642578125 154.60787963867188 170.3642578125 154.60787963867188 " />
        <polyline stroke="black" stroke-width="3" stroke-linecap="round" fill="transparent" stroke-linejoin="round" points="136.818115234375 110.79244995117188 131.3411865234375 134.06939697265625 125.8642578125 157.34634399414063 116.9642333984375 197.3963623046875 114.22579956054688 211.08871459960935 114.22579956054688 211.08871459960935 " />
        </svg>