<?xml version="1.0" standalone="no"?>
    <svg width="256" height="256" xmlns="http://www.w3.org/2000/svg" version="1.1">
    <polyline stroke="black" stroke-width="3" stroke-linecap="round" fill="transparent" stroke-linejoin="round" points="74 95 88 88 96 88 118 86 132 85 153 85 163 85 163 85 " />
        <polyline stroke="black" stroke-width="3" stroke-linecap="round" fill="transparent" stroke-linejoin="round" points="145 60 131 72 126 79 113 95 96 119 76 142 64 158 56 165 56 165 " />
        <polyline stroke="black" stroke-width="3" stroke-linecap="round" fill="transparent" stroke-linejoin="round" points="123 112 141 119 155 125 171 134 184 142 191 146 200 154 202 157 202 157 " />
        <polyline stroke="black" stroke-width="3" stroke-linecap="round" fill="transparent" stroke-linejoin="round" points="95 151 88 161 85 170 84 174 83 175 84 176 95 177 110 177 129 177 147 176 162 172 162 172 " />
        <polyline stroke="black" stroke-width="3" stroke-linecap="round" fill="transparent" stroke-linejoin="round" points="165 144 167 154 167 163 166 167 166 167 " />
        <polyline stroke="black" stroke-width="3" stroke-linecap="round" fill="transparent" stroke-linejoin="round" points="127 134 129 160 129 191 129 222 129 234 129 234 " />
        </svg>