<?xml version="1.0" standalone="no"?>
    <svg width="256" height="256" xmlns="http://www.w3.org/2000/svg" version="1.1">
    <polyline stroke="black" stroke-width="3" stroke-linecap="round" fill="transparent" stroke-linejoin="round" points="44.734710693359375 89.84843444824219 57.47412109375 87.53218078613281 70.21353149414063 85.21592712402344 81.50527954101563 83.76826477050781 91.92843627929688 84.34732055664063 97.71908569335938 86.37405395507813 100.61441040039063 88.11123657226563 100.61441040039063 88.11123657226563 " />
        <polyline stroke="black" stroke-width="3" stroke-linecap="round" fill="transparent" stroke-linejoin="round" points="38.364990234375 148.33392333984375 50.81488037109375 143.41188049316406 63.2647705078125 138.48983764648438 78.03091430664063 134.43638610839844 92.50750732421876 132.9887237548828 97.4295654296875 133.27825927734375 97.4295654296875 133.27825927734375 " />
        <polyline stroke="black" stroke-width="3" stroke-linecap="round" fill="transparent" stroke-linejoin="round" points="59.21136474609375 105.77272033691403 61.238067626953125 114.1691436767578 63.2647705078125 122.56556701660156 65.58102416992188 134.43638610839844 69.63449096679688 152.67689514160156 73.97744750976563 171.2069549560547 78.03091430664063 187.1312255859375 82.08432006835938 199.58111572265625 82.08432006835938 199.58111572265625 " />
        <polyline stroke="black" stroke-width="3" stroke-linecap="round" fill="transparent" stroke-linejoin="round" points="152.7301025390625 77.10903930664063 155.04638671875 76.52996826171875 157.3626708984375 75.95089721679688 161.7056884765625 74.79277038574219 167.206787109375 73.92416381835938 171.83929443359375 73.6346435546875 171.83929443359375 73.6346435546875 " />
        <polyline stroke="black" stroke-width="3" stroke-linecap="round" fill="transparent" stroke-linejoin="round" points="139.41168212890625 105.48315429687503 153.5987548828125 102.87738037109376 167.78582763671875 100.2716064453125 180.2357177734375 99.11346435546876 190.36932373046875 99.69253540039063 190.36932373046875 99.69253540039063 " />
        <polyline stroke="black" stroke-width="3" stroke-linecap="round" fill="transparent" stroke-linejoin="round" points="125.224609375 147.75486755371094 143.46514892578125 141.6746826171875 161.7056884765625 135.59449768066406 179.3671875 131.54107666015625 196.15997314453125 126.90855407714844 201.66107177734375 124.88180541992188 201.66107177734375 124.88180541992188 " />
        <polyline stroke="black" stroke-width="3" stroke-linecap="round" fill="transparent" stroke-linejoin="round" points="142.5965576171875 34.258300781250014 147.22906494140625 63.790557861328125 151.861572265625 93.32281494140624 158.52081298828125 128.93527221679688 166.33819580078125 165.99537658691406 173.28692626953125 204.79269409179688 175.024169921875 219.269287109375 175.024169921875 219.269287109375 " />
        </svg>