<?xml version="1.0" standalone="no"?>
    <svg width="256" height="256" xmlns="http://www.w3.org/2000/svg" version="1.1">
    <polyline stroke="black" stroke-width="3" stroke-linecap="round" fill="transparent" stroke-linejoin="round" points="18 59 19 59 20 59 21 60 23 62 28 63 37 66 42 66 57 67 72 67 78 64 84 63 86 63 87 62 88 62 88 62 " />
        <polyline stroke="black" stroke-width="3" stroke-linecap="round" fill="transparent" stroke-linejoin="round" points="33 135 34 135 35 135 37 135 43 134 74 120 104 107 111 103 117 99 119 97 120 96 120 96 " />
        <polyline stroke="black" stroke-width="3" stroke-linecap="round" fill="transparent" stroke-linejoin="round" points="79 79 79 83 79 87 83 116 85 139 89 179 89 184 88 200 87 205 87 207 87 207 87 208 87 208 " />
        <polyline stroke="black" stroke-width="3" stroke-linecap="round" fill="transparent" stroke-linejoin="round" points="143 70 161 70 179 70 201 69 209 67 220 65 224 64 225 63 226 63 226 63 " />
        <polyline stroke="black" stroke-width="3" stroke-linecap="round" fill="transparent" stroke-linejoin="round" points="167 95 171 95 175 95 179 95 191 95 203 95 207 95 212 94 215 94 215 94 " />
        <polyline stroke="black" stroke-width="3" stroke-linecap="round" fill="transparent" stroke-linejoin="round" points="165 119 165 119 165 119 " />
        <polyline stroke="black" stroke-width="3" stroke-linecap="round" fill="transparent" stroke-linejoin="round" points="153 126 160 125 167 124 189 121 209 118 217 116 228 115 235 115 238 115 240 115 241 115 242 115 243 115 243 115 " />
        <polyline stroke="black" stroke-width="3" stroke-linecap="round" fill="transparent" stroke-linejoin="round" points="177 22 178 24 179 26 180 31 182 41 188 106 188 135 187 145 184 173 181 200 180 208 179 217 178 219 177 219 177 219 " />
        </svg>