<?xml version="1.0" standalone="no"?>
    <svg width="256" height="256" xmlns="http://www.w3.org/2000/svg" version="1.1">
    <polyline stroke="black" stroke-width="3" stroke-linecap="round" fill="transparent" stroke-linejoin="round" points="110.29241943359376 38.28279113769531 91.9903564453125 70.31130981445313 90.0294189453125 76.19410705566406 75.6492919921875 114.7590789794922 73.6883544921875 118.68092346191406 68.459228515625 131.7537841796875 65.1910400390625 140.2511444091797 67.15191650390625 140.90481567382813 71.72747802734375 136.3292999267578 71.72747802734375 136.3292999267578 " />
        <polyline stroke="black" stroke-width="3" stroke-linecap="round" fill="transparent" stroke-linejoin="round" points="82.83935546875 87.30604553222656 96.56585693359376 75.54048156738281 98.52679443359376 74.88682556152344 116.82879638671876 67.0430908203125 119.443359375 65.73582458496094 135.78448486328125 60.50665283203125 145.589111328125 57.89208984375 159.31561279296875 54.623878479003906 165.85205078125 53.97023010253906 167.15936279296875 57.23844909667969 165.19842529296875 60.50665283203125 165.19842529296875 60.50665283203125 " />
        <polyline stroke="black" stroke-width="3" stroke-linecap="round" fill="transparent" stroke-linejoin="round" points="110.946044921875 105.60806274414063 126.63348388671876 99.72526550292967 129.90167236328125 99.07162475585938 148.85736083984375 91.88156127929688 150.81829833984375 91.22789001464844 153.43280029296875 88.61334228515625 152.77923583984375 88.61334228515625 152.77923583984375 88.61334228515625 " />
        <polyline stroke="black" stroke-width="3" stroke-linecap="round" fill="transparent" stroke-linejoin="round" points="127.94073486328124 94.49612426757813 110.946044921875 115.41270446777344 110.29241943359376 118.0272979736328 104.40960693359376 142.2120819091797 103.75592041015624 150.05581665039063 101.7950439453125 163.78233337402344 101.14141845703124 174.2406005859375 100.48773193359376 180.7770233154297 100.48773193359376 183.39163208007813 99.8341064453125 186.00619506835935 100.48773193359376 185.3525390625 103.102294921875 183.39163208007813 104.40960693359376 182.08433532714844 112.2532958984375 176.2015380859375 121.404296875 169.6651153564453 130.55535888671875 161.82139587402344 139.05267333984375 153.97769165039063 144.2818603515625 148.74851989746094 144.2818603515625 147.4412384033203 144.2818603515625 147.4412384033203 " />
        <polyline stroke="black" stroke-width="3" stroke-linecap="round" fill="transparent" stroke-linejoin="round" points="107.6778564453125 142.86572265625 119.443359375 126.52464294433594 133.8236083984375 118.0272979736328 135.78448486328125 117.37364196777344 144.93548583984375 116.71998596191406 148.20367431640625 118.68092346191406 150.81829833984375 131.7537841796875 149.510986328125 152.6703643798828 148.85736083984375 168.35781860351563 149.510986328125 182.7379608154297 152.12554931640625 196.46450805664065 154.7401123046875 201.69363403320313 159.31561279296875 206.92279052734375 167.15936279296875 209.53738403320313 176.9639892578125 208.8836975097656 188.7296142578125 204.3081970214844 199.18792724609375 198.4254150390625 203.76336669921875 193.84991455078125 205.07073974609375 187.3134765625 202.4560546875 182.7379608154297 196.5732421875 182.08433532714844 196.5732421875 182.08433532714844 " />
        </svg>