<?xml version="1.0" standalone="no"?>
    <svg width="256" height="256" xmlns="http://www.w3.org/2000/svg" version="1.1">
    <polyline stroke="black" stroke-width="3" stroke-linecap="round" fill="transparent" stroke-linejoin="round" points="50.888916015625 172.6666717529297 65.3333740234375 163.7777862548828 82.00006103515625 153.7777862548828 102 139.33334350585938 108.666748046875 133.7777862548828 112 131.55557250976563 112 130.4444580078125 112 130.4444580078125 " />
        <polyline stroke="black" stroke-width="3" stroke-linecap="round" fill="transparent" stroke-linejoin="round" points="85.3333740234375 147.11111450195313 87.5556640625 161.55557250976563 86.4444580078125 189.33334350585935 85.3333740234375 194.888916015625 84.2222900390625 201.5555725097656 84.2222900390625 201.5555725097656 " />
        <polyline stroke="black" stroke-width="3" stroke-linecap="round" fill="transparent" stroke-linejoin="round" points="87.5556640625 208.22222900390625 93.1112060546875 202.66668701171875 99.77783203125 193.77780151367188 99.77783203125 193.77780151367188 " />
        <polyline stroke="black" stroke-width="3" stroke-linecap="round" fill="transparent" stroke-linejoin="round" points="138.666748046875 96.00001525878906 153.1112060546875 86 162 78.22222900390625 167.5556640625 73.77778625488281 170.888916015625 70.4444580078125 173.1112060546875 69.33334350585938 173.1112060546875 69.33334350585938 " />
        <polyline stroke="black" stroke-width="3" stroke-linecap="round" fill="transparent" stroke-linejoin="round" points="140.888916015625 132.6666717529297 152 123.7777862548828 163.1112060546875 114.88890075683594 175.3333740234375 106.00001525878906 176.4444580078125 103.7777862548828 174.2222900390625 107.11111450195313 170.888916015625 111.55555725097656 170.888916015625 111.55555725097656 " />
        <polyline stroke="black" stroke-width="3" stroke-linecap="round" fill="transparent" stroke-linejoin="round" points="137.5556640625 168.22222900390625 155.3333740234375 154.88890075683594 170.888916015625 143.7777862548828 189.77783203125 130.4444580078125 197.5556640625 124.88890075683594 202 121.55557250976563 200.888916015625 120.4444580078125 200.888916015625 120.4444580078125 " />
        <polyline stroke="black" stroke-width="3" stroke-linecap="round" fill="transparent" stroke-linejoin="round" points="154.2222900390625 40.44445037841797 155.3333740234375 53.77778625488281 156.4444580078125 77.11111450195313 159.77783203125 108.22222900390624 163.1112060546875 149.33334350585938 166.4444580078125 193.77780151367188 172 248.22222900390625 173.1112060546875 270.4444580078125 174.2222900390625 286.0000305175781 173.1112060546875 300.4444580078125 173.1112060546875 300.4444580078125 " />
        </svg>