<?xml version="1.0" standalone="no"?>
    <svg width="256" height="256" xmlns="http://www.w3.org/2000/svg" version="1.1">
    <polyline stroke="black" stroke-width="3" stroke-linecap="round" fill="transparent" stroke-linejoin="round" points="54.4925537109375 115.39697265625 66.61856079101563 110.77752685546876 79.89944458007813 104.42579650878906 94.335205078125 98.07406616210938 106.46124267578124 90.56748962402344 116.27752685546876 80.17375183105469 122.05181884765624 66.3154296875 122.05181884765624 66.3154296875 " />
        <polyline stroke="black" stroke-width="3" stroke-linecap="round" fill="transparent" stroke-linejoin="round" points="80.47686767578125 54.766845703125 77.01229858398438 68.0477294921875 74.12515258789063 86.52548217773438 71.8154296875 107.890380859375 69.5057373046875 128.1004180908203 66.0411376953125 145.42330932617188 61.42169189453125 158.70419311523438 56.224822998046875 166.7882080078125 51.0279541015625 171.98507690429688 46.9859619140625 175.4496612548828 44.09881591796875 177.18194580078125 44.09881591796875 177.18194580078125 49.295654296875 174.8722381591797 58.5345458984375 169.09793090820313 72.97027587890625 160.43649291992188 85.67376708984375 152.92990112304688 96.0675048828125 147.7330322265625 104.1514892578125 144.26844787597656 115.70010375976563 138.49415588378906 115.70010375976563 138.49415588378906 " />
        <polyline stroke="black" stroke-width="3" stroke-linecap="round" fill="transparent" stroke-linejoin="round" points="144.57159423828125 74.97688293457031 154.96533203125 72.08973693847656 165.9365234375 69.20257568359375 173.44305419921875 68.0477294921875 179.2174072265625 68.0477294921875 184.41424560546875 68.0477294921875 184.41424560546875 68.0477294921875 " />
        <polyline stroke="black" stroke-width="3" stroke-linecap="round" fill="transparent" stroke-linejoin="round" points="122.05181884765624 103.27093505859376 131.29071044921875 101.53865051269533 145.14901733398438 99.80636596679688 157.2750244140625 98.65150451660156 168.2462158203125 97.49664306640624 175.17535400390625 97.49664306640624 180.94964599609375 100.3837890625 180.94964599609375 100.3837890625 " />
        <polyline stroke="black" stroke-width="3" stroke-linecap="round" fill="transparent" stroke-linejoin="round" points="117.432373046875 173.1399383544922 128.98098754882813 171.98507690429688 145.14901733398438 170.83023071289063 161.89447021484375 169.09793090820313 175.7528076171875 167.3656463623047 187.3013916015625 165.05592346191406 194.8079833984375 162.1687774658203 202.3145751953125 151.77503967285156 202.3145751953125 151.77503967285156 " />
        <polyline stroke="black" stroke-width="3" stroke-linecap="round" fill="transparent" stroke-linejoin="round" points="157.2750244140625 33.401939392089844 154.96533203125 50.14739990234375 152.07818603515625 85.37062072753906 150.92330932617188 113.08724975585938 149.7684326171875 141.958740234375 149.1910400390625 167.3656463623047 148.61358642578125 185.8433837890625 147.458740234375 202.5888671875 146.30389404296875 217.02459716796875 146.30389404296875 217.02459716796875 " />
        </svg>