<?xml version="1.0" standalone="no"?>
    <svg width="256" height="256" xmlns="http://www.w3.org/2000/svg" version="1.1">
    <polyline stroke="black" stroke-width="3" stroke-linecap="round" fill="transparent" stroke-linejoin="round" points="109.20361328125 49.03478240966797 106.755126953125 59.440704345703125 101.85821533203124 71.6829833984375 95.73712158203124 87.59793090820313 87.77963256835938 105.96133422851563 78.59793090820313 124.32472229003906 69.41622924804688 142.07601928710938 61.458740234375 154.3182830810547 56.56182861328125 160.43942260742188 55.337615966796875 161.66363525390625 55.337615966796875 161.66363525390625 " />
        <polyline stroke="black" stroke-width="3" stroke-linecap="round" fill="transparent" stroke-linejoin="round" points="148.990966796875 65.56184387207031 159.39691162109375 71.07086181640625 172.25128173828125 79.02833557128906 186.9420166015625 88.21003723144531 199.18426513671875 97.39173889160156 208.97802734375 105.34921264648438 214.487060546875 113.3066864013672 214.487060546875 113.3066864013672 " />
        <polyline stroke="black" stroke-width="3" stroke-linecap="round" fill="transparent" stroke-linejoin="round" points="81.04638671875 132.89431762695313 82.27059936523438 147.5850372314453 81.04638671875 163.49998474121094 77.37371826171875 189.82086181640625 74.92523193359375 205.73580932617188 73.70101928710938 218.59017944335935 73.70101928710938 218.59017944335935 " />
        <polyline stroke="black" stroke-width="3" stroke-linecap="round" fill="transparent" stroke-linejoin="round" points="165.51800537109375 113.3066864013672 166.74224853515625 132.28219604492188 166.74224853515625 154.93038940429688 167.3543701171875 177.57858276367188 168.57861328125 212.46905517578125 169.190673828125 237.56570434570313 169.190673828125 237.56570434570313 " />
        </svg>