<?xml version="1.0" standalone="no"?>
    <svg width="256" height="256" xmlns="http://www.w3.org/2000/svg" version="1.1">
    <polyline stroke="black" stroke-width="3" stroke-linecap="round" fill="transparent" stroke-linejoin="round" points="91.8402099609375 33.73194885253906 83.88272094726563 53.319580078125 74.08892822265625 71.07086181640625 61.84661865234375 95.55540466308594 53.27703857421875 113.91880798339844 47.155914306640625 126.77317810058594 44.0953369140625 134.11854553222656 44.0953369140625 136.56700134277344 45.319580078125 133.5064239501953 52.6649169921875 122.48838806152344 52.6649169921875 122.48838806152344 " />
        <polyline stroke="black" stroke-width="3" stroke-linecap="round" fill="transparent" stroke-linejoin="round" points="66.13143920898438 93.10694885253906 66.13143920898438 106.5734405517578 64.9072265625 142.07601928710938 64.29510498046875 168.3968963623047 64.29510498046875 189.82086181640625 66.13143920898438 203.287353515625 69.1920166015625 208.79635620117188 74.08892822265625 205.73580932617188 74.08892822265625 205.73580932617188 " />
        <polyline stroke="black" stroke-width="3" stroke-linecap="round" fill="transparent" stroke-linejoin="round" points="135.912353515625 41.689422607421875 149.37884521484375 47.198448181152344 160.39691162109375 53.93169403076172 170.80279541015625 61.27705383300781 178.76025390625 68.01029968261719 185.4935302734375 74.74354553222656 192.226806640625 82.70101928710938 192.226806640625 82.70101928710938 " />
        <polyline stroke="black" stroke-width="3" stroke-linecap="round" fill="transparent" stroke-linejoin="round" points="160.39691162109375 79.02833557128906 160.39691162109375 89.43426513671875 158.560546875 101.67652893066406 157.3363037109375 118.20359802246094 156.7242431640625 138.40333557128906 157.3363037109375 157.37884521484375 157.94842529296875 174.5180206298828 157.3363037109375 192.88140869140625 157.3363037109375 192.88140869140625 " />
        </svg>