<?xml version="1.0" standalone="no"?>
    <svg width="256" height="256" xmlns="http://www.w3.org/2000/svg" version="1.1">
    <polyline stroke="black" stroke-width="3" stroke-linecap="round" fill="transparent" stroke-linejoin="round" points="96.28228759765624 58.46156311035156 71.6510009765625 114.83984375 62.893218994140625 130.1659698486328 49.75653076171875 148.77627563476563 41.546112060546875 160.8182373046875 37.167236328125 167.38658142089844 36.072509765625 170.67074584960938 37.714599609375 168.48129272460938 43.188201904296875 160.2708740234375 61.798492431640625 132.3554229736328 66.17739868164063 125.78707885742188 69.4615478515625 121.95553588867188 72.7457275390625 121.95553588867188 74.9351806640625 129.0712432861328 76.5772705078125 155.89198303222656 75.4825439453125 182.16534423828125 73.2930908203125 203.512451171875 71.1036376953125 217.19650268554688 70.5562744140625 227.04901123046875 70.5562744140625 227.04901123046875 " />
        <polyline stroke="black" stroke-width="3" stroke-linecap="round" fill="transparent" stroke-linejoin="round" points="141.16595458984375 67.2193603515625 153.75531005859375 80.90339660644531 165.2498779296875 92.9453582763672 179.4813232421875 107.17677307128906 192.61798095703125 120.86082458496094 203.565185546875 133.45013427734375 209.586181640625 141.1132049560547 209.586181640625 141.1132049560547 " />
        <polyline stroke="black" stroke-width="3" stroke-linecap="round" fill="transparent" stroke-linejoin="round" points="176.1971435546875 121.40818786621094 176.1971435546875 133.99749755859375 176.1971435546875 159.7235107421875 176.1971435546875 183.26007080078125 177.2918701171875 202.965087890625 179.4813232421875 219.38595581054688 182.2181396484375 234.16473388671875 182.2181396484375 234.16473388671875 " />
        </svg>