<?xml version="1.0" standalone="no"?>
    <svg width="256" height="256" xmlns="http://www.w3.org/2000/svg" version="1.1">
    <polyline stroke="black" stroke-width="3" stroke-linecap="round" fill="transparent" stroke-linejoin="round" points="55.23992919921875 110.8372039794922 55.23992919921875 113.45176696777344 54.58636474609375 131.7537841796875 54.58636474609375 132.4074249267578 54.58636474609375 135.02200317382813 57.8546142578125 131.7537841796875 60.4691162109375 123.91007995605467 63.08367919921875 114.1054229736328 65.6982421875 107.56898498535156 74.1956787109375 101.03254699707033 84.6539306640625 97.76432800292967 97.72674560546876 96.45704650878906 109.49237060546876 95.80340576171876 121.25799560546876 97.11068725585938 126.48712158203124 101.03254699707033 124.52618408203124 112.7981414794922 115.37518310546876 129.1392059326172 103.609619140625 145.4803009033203 100.99505615234376 149.4021453857422 100.99505615234376 149.4021453857422 " />
        <polyline stroke="black" stroke-width="3" stroke-linecap="round" fill="transparent" stroke-linejoin="round" points="65.6982421875 153.97769165039063 95.765869140625 148.74851989746094 99.68768310546876 147.4412384033203 115.37518310546876 141.55845642089844 125.1798095703125 136.3292999267578 125.83343505859376 132.4074249267578 125.83343505859376 132.4074249267578 " />
        <polyline stroke="black" stroke-width="3" stroke-linecap="round" fill="transparent" stroke-linejoin="round" points="69.6201171875 127.83195495605467 68.96649169921875 129.79286193847656 63.7373046875 156.5922393798828 63.7373046875 160.5141143798828 63.7373046875 174.8942413330078 63.7373046875 186.00619506835935 63.7373046875 189.2744140625 65.04461669921875 186.00619506835935 65.04461669921875 182.7379608154297 65.04461669921875 182.7379608154297 " />
        <polyline stroke="black" stroke-width="3" stroke-linecap="round" fill="transparent" stroke-linejoin="round" points="79.42474365234375 135.02200317382813 81.38568115234375 133.7147216796875 93.15130615234376 126.52464294433594 94.45855712890624 126.52464294433594 98.38043212890624 127.83195495605467 100.99505615234376 135.02200317382813 101.64862060546876 142.86572265625 101.64862060546876 156.5922393798828 100.99505615234376 165.089599609375 100.3414306640625 169.01145935058594 100.3414306640625 167.050537109375 100.3414306640625 167.050537109375 " />
        <polyline stroke="black" stroke-width="3" stroke-linecap="round" fill="transparent" stroke-linejoin="round" points="82.6929931640625 164.4359588623047 82.6929931640625 167.7041778564453 77.4638671875 186.00619506835935 75.5029296875 188.62075805664065 73.5419921875 190.58169555664065 70.92742919921875 191.23532104492188 70.2738037109375 191.23532104492188 71.5810546875 190.58169555664065 75.5029296875 189.2744140625 84.00030517578125 187.3134765625 93.80499267578124 186.00619506835935 108.8387451171875 183.39163208007813 127.1407470703125 179.46975708007813 127.1407470703125 179.46975708007813 " />
        <polyline stroke="black" stroke-width="3" stroke-linecap="round" fill="transparent" stroke-linejoin="round" points="158.515625 101.68620300292967 161.13018798828125 101.68620300292967 184.00775146484375 97.11068725585938 186.62225341796875 96.45704650878906 196.42694091796875 93.8424835205078 197.73419189453125 94.49612426757813 193.15869140625 97.76432800292967 185.3150634765625 102.33982849121094 175.5103759765625 111.49085998535156 163.74481201171875 127.17828369140624 151.97918701171875 149.4021453857422 141.52093505859375 174.2406005859375 133.67718505859375 195.81085205078125 130.408935546875 211.49826049804688 130.408935546875 218.6883544921875 133.67718505859375 216.0738220214844 133.67718505859375 216.0738220214844 " />
        <polyline stroke="black" stroke-width="3" stroke-linecap="round" fill="transparent" stroke-linejoin="round" points="153.94012451171875 157.89952087402344 175.5103759765625 144.82666015625 177.4713134765625 144.1730194091797 185.3150634765625 144.1730194091797 187.2760009765625 153.3240203857422 187.2760009765625 169.6651153564453 186.62225341796875 191.23532104492188 187.2760009765625 206.2691345214844 189.89044189453125 216.0738220214844 192.50506591796875 220.6492919921875 199.69512939453125 220.6492919921875 210.1534423828125 213.45919799804688 218.65081787109375 204.3081970214844 229.7626953125 189.2744140625 233.03094482421875 186.00619506835935 233.6845703125 187.3134765625 233.6845703125 187.3134765625 " />
        </svg>