<?xml version="1.0" standalone="no"?>
    <svg width="256" height="256" xmlns="http://www.w3.org/2000/svg" version="1.1">
    <polyline stroke="black" stroke-width="3" stroke-linecap="round" fill="transparent" stroke-linejoin="round" points="59.71624755859375 125.75083923339844 73.11416625976563 117.83387756347656 88.33908081054688 109.91693115234376 103.56399536132813 102.60897827148438 117.5709228515625 95.30101013183594 125.48785400390624 87.99305725097656 130.35983276367188 77.64012145996094 130.35983276367188 77.64012145996094 " />
        <polyline stroke="black" stroke-width="3" stroke-linecap="round" fill="transparent" stroke-linejoin="round" points="101.12799072265624 50.844268798828125 97.47402954101563 64.8511962890625 90.77508544921876 91.64703369140624 85.903076171875 119.0518798828125 81.0311279296875 144.02073669433594 75.5501708984375 161.68162536621094 68.2421875 176.29754638671875 60.32525634765625 184.823486328125 54.844268798828125 187.86846923828125 51.799285888671875 186.6504821777344 53.01727294921875 181.77850341796875 59.71624755859375 172.64356994628906 71.89617919921875 162.8996124267578 88.94805908203125 151.93768310546875 108.43597412109376 143.41172790527344 126.09686279296876 136.10377502441406 135.8408203125 130.622802734375 135.8408203125 130.622802734375 " />
        <polyline stroke="black" stroke-width="3" stroke-linecap="round" fill="transparent" stroke-linejoin="round" points="121.22488403320313 96.51901245117188 127.31484985351563 87.99305725097656 137.66778564453125 75.81312561035156 152.8927001953125 64.2421875 168.11761474609375 55.71624755859375 180.29754638671875 50.844268798828125 187.60546875 49.01728057861328 191.86846923828125 47.799293518066406 191.86846923828125 47.799293518066406 " />
        <polyline stroke="black" stroke-width="3" stroke-linecap="round" fill="transparent" stroke-linejoin="round" points="161.41864013671875 67.89617919921875 145.58474731445313 89.21104431152344 130.35983276367188 118.44287109375 120.00689697265624 141.58474731445313 110.8719482421875 167.16259765625 104.781982421875 184.823486328125 100.51901245117188 198.22140502929688 97.47402954101563 203.702392578125 96.86502075195313 203.702392578125 96.86502075195313 203.702392578125 " />
        <polyline stroke="black" stroke-width="3" stroke-linecap="round" fill="transparent" stroke-linejoin="round" points="122.44287109375 140.9757537841797 137.05877685546875 128.7958221435547 154.7197265625 116.61589050292967 170.5535888671875 108.6989288330078 183.342529296875 106.26295471191406 191.259521484375 110.5259246826172 196.1314697265625 125.141845703125 196.1314697265625 150.71969604492188 193.6954345703125 173.86155700683594 194.304443359375 191.5224609375 197.95843505859375 203.0933837890625 205.266357421875 209.7923583984375 215.0103759765625 213.44631958007813 225.9722900390625 211.61932373046875 233.2802734375 201.8753967285156 236.3251953125 174.47055053710938 229.626220703125 148.8927001953125 221.70928955078125 129.40481567382813 221.70928955078125 129.40481567382813 " />
        </svg>