<?xml version="1.0" standalone="no"?>
    <svg width="256" height="256" xmlns="http://www.w3.org/2000/svg" version="1.1">
    <polyline stroke="black" stroke-width="3" stroke-linecap="round" fill="transparent" stroke-linejoin="round" points="52.89544677734375 103.21794128417967 65.87997436523438 100.28594970703124 77.1890869140625 97.77281188964844 83.471923828125 96.09738159179688 95.19989013671876 93.58424377441406 104.41473388671876 90.2333984375 111.95416259765624 86.46368408203125 116.14276123046876 83.53169250488281 116.14276123046876 83.53169250488281 " />
        <polyline stroke="black" stroke-width="3" stroke-linecap="round" fill="transparent" stroke-linejoin="round" points="94.3621826171875 56.3060302734375 89.7547607421875 81.43740844726563 88.49822998046875 90.2333984375 85.98507690429688 107.406494140625 82.63421630859375 123.74188232421876 74.257080078125 149.2921142578125 67.13656616210938 164.789794921875 67.13656616210938 164.789794921875 " />
        <polyline stroke="black" stroke-width="3" stroke-linecap="round" fill="transparent" stroke-linejoin="round" points="40.748626708984375 191.17776489257813 55.408538818359375 178.19320678710938 62.11029052734375 172.74807739257813 69.649658203125 167.30294799804688 86.40390014648438 156.41268920898438 110.27874755859376 140.07730102539063 110.27874755859376 140.07730102539063 " />
        <polyline stroke="black" stroke-width="3" stroke-linecap="round" fill="transparent" stroke-linejoin="round" points="129.546142578125 103.63681030273438 142.53070068359375 95.25967407226563 148.3946533203125 91.9088134765625 154.677490234375 88.55796813964844 160.54150390625 85.6259765625 172.26947021484375 79.76199340820313 178.55230712890625 75.99227905273438 178.55230712890625 75.99227905273438 " />
        <polyline stroke="black" stroke-width="3" stroke-linecap="round" fill="transparent" stroke-linejoin="round" points="173.52606201171875 94.84080505371094 164.7301025390625 105.73106384277344 148.8134765625 134.2133026123047 142.11181640625 150.12982177734375 136.247802734375 165.2086639404297 132.05926513671875 175.6800537109375 128.28955078125 182.80062866210935 126.61410522460938 186.1514892578125 126.61410522460938 186.1514892578125 " />
        <polyline stroke="black" stroke-width="3" stroke-linecap="round" fill="transparent" stroke-linejoin="round" points="140.43637084960938 158.5069580078125 156.77178955078125 145.94126892089844 161.37921142578125 143.00930786132813 172.6883544921875 137.14529418945313 177.2957763671875 135.8887176513672 180.22772216796875 135.8887176513672 181.48431396484375 136.7264404296875 183.15972900390625 141.33384704589844 183.9974365234375 149.7109832763672 183.9974365234375 159.76353454589844 184.83514404296875 168.55950927734375 185.6728515625 175.26121520996094 187.3482666015625 180.7063446044922 189.8614501953125 184.47607421875 192.79345703125 186.98919677734375 197.40081787109375 189.08346557617188 203.26483154296875 189.5023193359375 206.61566162109375 188.66461181640625 212.8985595703125 185.73260498046875 220.43792724609375 178.19320678710938 224.2076416015625 173.16693115234375 226.30194091796875 168.55950927734375 226.30194091796875 162.27667236328125 226.30194091796875 162.27667236328125 " />
        </svg>