<?xml version="1.0" standalone="no"?>
    <svg width="256" height="256" xmlns="http://www.w3.org/2000/svg" version="1.1">
    <polyline stroke="black" stroke-width="3" stroke-linecap="round" fill="transparent" stroke-linejoin="round" points="79.3380126953125 77.72193908691406 81.4764404296875 88.948486328125 85.75320434570313 100.70964050292967 91.09918212890624 108.72859191894533 100.18731689453124 111.40158081054688 100.18731689453124 111.40158081054688 " />
        <polyline stroke="black" stroke-width="3" stroke-linecap="round" fill="transparent" stroke-linejoin="round" points="170.2196044921875 77.72193908691406 157.92388916015625 97.50204467773438 138.67837524414063 118.35134887695313 138.67837524414063 118.35134887695313 " />
        <polyline stroke="black" stroke-width="3" stroke-linecap="round" fill="transparent" stroke-linejoin="round" points="60.092529296875 166.46514892578125 71.85366821289063 163.7921600341797 91.6337890625 159.515380859375 119.432861328125 153.63479614257813 141.35134887695313 149.35801696777344 158.45849609375 146.1504364013672 171.288818359375 142.94284057617188 178.23858642578125 140.2698516845703 178.23858642578125 140.2698516845703 " />
        <polyline stroke="black" stroke-width="3" stroke-linecap="round" fill="transparent" stroke-linejoin="round" points="126.917236328125 59.54560852050781 127.45181274414063 71.84135437011719 126.917236328125 99.64044189453124 125.31341552734376 124.76652526855467 124.24423217773438 150.96180725097656 124.24423217773438 171.27651977539063 124.24423217773438 189.45285034179688 122.64044189453124 206.5599670410156 119.432861328125 223.13250732421875 119.432861328125 223.13250732421875 " />
        </svg>