<?xml version="1.0" standalone="no"?>
    <svg width="256" height="256" xmlns="http://www.w3.org/2000/svg" version="1.1">
    <polyline stroke="black" stroke-width="3" stroke-linecap="round" fill="transparent" stroke-linejoin="round" points="144 31 141 38 141 45 141 51 140 59 136 67 131 75 125 82 125 82 " />
        <polyline stroke="black" stroke-width="3" stroke-linecap="round" fill="transparent" stroke-linejoin="round" points="74 106 81 102 93 98 110 90 130 83 149 75 166 68 176 65 184 65 188 65 191 65 191 67 187 76 187 76 " />
        <polyline stroke="black" stroke-width="3" stroke-linecap="round" fill="transparent" stroke-linejoin="round" points="47 173 56 168 68 163 86 154 104 144 125 135 149 122 167 114 181 107 193 101 201 99 204 98 205 98 206 98 206 99 205 99 205 100 203 103 203 103 " />
        <polyline stroke="black" stroke-width="3" stroke-linecap="round" fill="transparent" stroke-linejoin="round" points="110 130 109 136 109 144 108 155 107 167 107 176 107 182 107 188 107 192 107 194 107 196 107 198 107 199 107 200 107 201 107 201 " />
        <polyline stroke="black" stroke-width="3" stroke-linecap="round" fill="transparent" stroke-linejoin="round" points="170 98 173 105 173 114 167 129 159 146 152 161 147 170 144 176 140 183 140 183 " />
        <polyline stroke="black" stroke-width="3" stroke-linecap="round" fill="transparent" stroke-linejoin="round" points="111 186 114 186 118 186 127 186 137 185 152 184 165 182 175 178 186 176 191 175 194 175 196 175 196 175 " />
        </svg>