<?xml version="1.0" standalone="no"?>
    <svg width="256" height="256" xmlns="http://www.w3.org/2000/svg" version="1.1">
    <polyline stroke="black" stroke-width="3" stroke-linecap="round" fill="transparent" stroke-linejoin="round" points="95.88888549804688 77.77778625488281 99.44448852539063 79.55555725097656 99.44448852539063 79.55555725097656 " />
        <polyline stroke="black" stroke-width="3" stroke-linecap="round" fill="transparent" stroke-linejoin="round" points="125.22222900390624 63.55555725097656 135.00003051757813 67.11111450195313 135.00003051757813 67.11111450195313 " />
        <polyline stroke="black" stroke-width="3" stroke-linecap="round" fill="transparent" stroke-linejoin="round" points="151.88888549804688 59.111114501953125 131.4444580078125 83.11111450195313 109.22222900390624 104.44444274902344 91.4444580078125 121.33332824707033 80.77777099609375 130.22222900390625 69.22222900390625 137.3333282470703 69.22222900390625 137.3333282470703 " />
        <polyline stroke="black" stroke-width="3" stroke-linecap="round" fill="transparent" stroke-linejoin="round" points="75.4444580078125 153.3333282470703 74.55557250976563 168.44444274902344 73.66665649414063 178.2222442626953 72.77780151367188 182.66668701171875 72.77780151367188 185.33334350585935 75.4444580078125 185.33334350585935 81.66668701171875 180 91.4444580078125 173.77780151367188 104.77777099609376 168.44444274902344 119 165.7777862548828 126.11114501953124 164.888916015625 129.66665649414063 164.888916015625 131.4444580078125 164.888916015625 131.4444580078125 164.888916015625 " />
        <polyline stroke="black" stroke-width="3" stroke-linecap="round" fill="transparent" stroke-linejoin="round" points="157.22225952148438 155.11111450195313 164.33334350585938 162.22222900390625 170.55557250976563 169.33335876464844 176.77777099609375 177.3333282470703 176.77777099609375 175.55555725097656 176.77777099609375 175.55555725097656 " />
        </svg>