<?xml version="1.0" standalone="no"?>
    <svg width="256" height="256" xmlns="http://www.w3.org/2000/svg" version="1.1">
    <polyline stroke="black" stroke-width="3" stroke-linecap="round" fill="transparent" stroke-linejoin="round" points="91.242431640625 98.070068359375 93.41659545898438 99.51951599121094 94.8660888671875 100.96900939941406 95.95318603515624 102.41844177246094 95.95318603515624 102.41844177246094 " />
        <polyline stroke="black" stroke-width="3" stroke-linecap="round" fill="transparent" stroke-linejoin="round" points="115.88323974609376 85.74966430664063 118.05743408203124 86.83674621582031 119.86929321289063 87.56147766113281 124.94241333007813 88.64859008789063 128.20367431640625 87.1990966796875 128.20367431640625 87.1990966796875 " />
        <polyline stroke="black" stroke-width="3" stroke-linecap="round" fill="transparent" stroke-linejoin="round" points="149.22085571289063 82.48835754394531 144.51010131835938 87.1990966796875 140.1617431640625 91.5474853515625 132.189697265625 100.96900939941406 112.98431396484376 116.18833923339844 106.82412719726563 120.17434692382813 91.9671630859375 131.04531860351563 80.3714599609375 136.84317016601563 80.3714599609375 136.84317016601563 " />
        <polyline stroke="black" stroke-width="3" stroke-linecap="round" fill="transparent" stroke-linejoin="round" points="75.29837036132813 157.13558959960938 75.29837036132813 164.02056884765625 74.21127319335938 178.51516723632813 71.31234741210938 200.61941528320313 70.22525024414063 209.6785888671875 70.22525024414063 213.30221557617188 70.58761596679688 214.75167846679688 74.21127319335938 216.20114135742188 77.11016845703125 215.8387451171875 94.141357421875 208.2290954589844 103.20050048828124 198.44525146484375 115.15853881835938 184.67535400390625 124.58001708984376 176.70333862304688 129.290771484375 171.6302490234375 131.82730102539063 167.6442108154297 131.82730102539063 167.6442108154297 " />
        <polyline stroke="black" stroke-width="3" stroke-linecap="round" fill="transparent" stroke-linejoin="round" points="149.22085571289063 136.11843872070313 157.19287109375 151.70013427734375 163.71551513671875 170.18075561523438 167.70147705078125 187.9366455078125 172.77459716796875 205.3301696777344 174.58642578125 214.3892822265625 174.94879150390625 221.6366271972656 174.94879150390625 221.6366271972656 " />
        </svg>