<?xml version="1.0" standalone="no"?>
    <svg width="256" height="256" xmlns="http://www.w3.org/2000/svg" version="1.1">
    <polyline stroke="black" stroke-width="3" stroke-linecap="round" fill="transparent" stroke-linejoin="round" points="84.6337890625 77.2911376953125 87.3067626953125 85.84469604492188 90.51434326171876 94.39825439453124 93.721923828125 101.3480224609375 96.92950439453124 106.15940856933594 96.92950439453124 106.15940856933594 " />
        <polyline stroke="black" stroke-width="3" stroke-linecap="round" fill="transparent" stroke-linejoin="round" points="119.917236328125 70.34135437011719 123.12481689453124 78.36032104492188 126.86700439453124 87.448486328125 126.86700439453124 87.448486328125 " />
        <polyline stroke="black" stroke-width="3" stroke-linecap="round" fill="transparent" stroke-linejoin="round" points="171.773193359375 55.37263488769531 169.634765625 63.39158630371094 163.2196044921875 75.68733215332031 153.59686279296875 90.12147521972656 140.76654052734375 103.48641967773438 126.3323974609375 116.31675720214844 113.50204467773438 125.40492248535156 103.34469604492188 130.21629333496094 97.464111328125 133.42388916015625 93.18731689453124 136.6314697265625 91.0489501953125 140.9082489013672 88.91055297851563 146.788818359375 87.84136962890625 157.48077392578125 86.77215576171875 170.84571838378906 86.77215576171875 183.67605590820313 87.3067626953125 194.36801147460935 88.3759765625 200.78317260742188 89.979736328125 205.59457397460935 94.25653076171876 209.33676147460935 100.1370849609375 210.40594482421875 108.690673828125 209.33676147460935 117.77880859375 206.66375732421875 125.26318359375 201.3177795410156 137.02435302734375 188.4874267578125 137.02435302734375 188.4874267578125 " />
        <polyline stroke="black" stroke-width="3" stroke-linecap="round" fill="transparent" stroke-linejoin="round" points="158.94287109375 163.36134338378906 163.75421142578125 174.58790588378906 170.16943359375 187.95285034179688 177.65374755859375 203.4561767578125 184.603515625 222.70169067382813 184.603515625 222.70169067382813 " />
        </svg>