<?xml version="1.0" standalone="no"?>
    <svg width="256" height="256" xmlns="http://www.w3.org/2000/svg" version="1.1">
    <polyline stroke="black" stroke-width="3" stroke-linecap="round" fill="transparent" stroke-linejoin="round" points="80.00506591796875 106.00633239746094 91.21856689453124 100.69467163085938 105.38299560546876 94.20263671875 126.03948974609376 86.53024291992188 141.97445678710938 80.0382080078125 157.909423828125 73.54617309570313 170.3033447265625 70.00506591796875 176.79534912109375 68.23451232910156 179.1561279296875 68.23451232910156 176.2052001953125 70.59524536132813 169.713134765625 73.54617309570313 159.67999267578125 78.85783386230469 152.007568359375 84.75967407226563 144.92538452148438 93.61245727539063 138.433349609375 107.18670654296876 134.89224243164063 122.531494140625 132.531494140625 139.05667114257813 128.99038696289063 154.40147399902344 122.49835205078124 169.15609741210938 111.28485107421876 185.091064453125 97.12042236328124 196.3045959472656 79.41488647460938 201.61624145507813 72.3326416015625 201.61624145507813 67.02099609375 199.845703125 65.84063720703125 196.894775390625 69.38174438476563 193.35366821289065 84.1363525390625 186.86163330078125 110.69467163085938 178.0088653564453 138.433349609375 172.1070098876953 163.811279296875 169.15609741210938 185.05792236328125 167.97572326660156 200.992919921875 168.56590270996094 209.845703125 170.92665100097656 209.845703125 170.92665100097656 " />
        </svg>