<?xml version="1.0" standalone="no"?>
    <svg width="256" height="256" xmlns="http://www.w3.org/2000/svg" version="1.1">
    <polyline stroke="black" stroke-width="3" stroke-linecap="round" fill="transparent" stroke-linejoin="round" points="74.4432373046875 99.8170166015625 93.43588256835938 94.95843505859376 100.06121826171876 93.63336181640624 107.12823486328124 92.75 120.820556640625 90.98324584960938 127.00424194335938 90.099853515625 137.604736328125 89.21647644042969 144.67181396484375 88.33309936523438 149.08871459960938 87.44972229003906 150.41375732421875 87.44972229003906 151.73883056640625 86.56634521484375 150.41375732421875 86.56634521484375 148.64697265625 87.00802612304688 145.996826171875 88.33309936523438 142.46334838867188 90.5415496826172 138.92987060546875 94.51675415039063 135.39633178710938 100.25871276855467 131.86279296875 108.65080261230467 130.53778076171875 113.50938415527344 125.67916870117188 129.85186767578125 121.26229858398438 142.2191619873047 116.84539794921876 152.37802124023438 114.636962890625 156.79489135742188 106.244873046875 166.9537353515625 100.06121826171876 172.69570922851563 93.87753295898438 177.1125946044922 88.57733154296875 180.64610290527344 84.60211181640625 183.29623413085935 81.06857299804688 185.06298828125 79.74349975585938 185.50469970703125 77.97674560546875 186.82974243164065 79.30184936523438 188.15481567382813 83.27703857421875 189.4798889160156 107.12823486328124 191.68832397460935 116.84539794921876 191.68832397460935 143.34674072265625 189.92156982421875 154.8306884765625 189.92156982421875 161.0142822265625 189.92156982421875 163.6644287109375 190.36328125 163.6644287109375 190.36328125 " />
        </svg>