<?xml version="1.0" standalone="no"?>
    <svg width="256" height="256" xmlns="http://www.w3.org/2000/svg" version="1.1">
    <polyline stroke="black" stroke-width="3" stroke-linecap="round" fill="transparent" stroke-linejoin="round" points="75.39657592773438 102.56927490234376 89.24560546875 99.2119140625 95.54061889648438 97.95294189453124 101.83563232421876 96.69393920898438 107.7109375 95.01528930664063 119.46160888671876 91.65792846679688 129.9532470703125 88.30059814453125 137.92694091796875 84.94326782226563 140.86459350585938 84.10394287109375 147.5792236328125 83.26460266113281 150.09725952148438 85.36294555664063 150.09725952148438 85.36294555664063 " />
        <polyline stroke="black" stroke-width="3" stroke-linecap="round" fill="transparent" stroke-linejoin="round" points="127.85491943359376 101.72991943359376 118.62225341796876 121.87393188476563 112.74691772460938 135.72293090820313 107.291259765625 149.15225219726563 101.83563232421876 160.90289306640625 96.799560546875 168.45689392089844 92.18328857421876 173.49290466308594 87.14727783203125 176.43057250976563 84.2095947265625 177.2698974609375 77.07528686523438 177.2698974609375 67.84262084960938 175.5912322998047 65.7442626953125 175.17156982421875 62.806610107421875 173.91256713867188 64.06561279296875 173.91256713867188 67.42294311523438 173.49290466308594 95.96026611328124 169.71591186523438 107.291259765625 168.0372314453125 137.08758544921875 164.26023864746094 153.45458984375 163.4208984375 165.62493896484375 164.26023864746094 171.08056640625 167.19790649414063 171.08056640625 167.19790649414063 " />
        </svg>