<?xml version="1.0" standalone="no"?>
    <svg width="256" height="256" xmlns="http://www.w3.org/2000/svg" version="1.1">
    <polyline stroke="black" stroke-width="3" stroke-linecap="round" fill="transparent" stroke-linejoin="round" points="79.42474365234375 74.06976318359375 99.03411865234376 76.68434143066406 101.64862060546876 76.68434143066406 125.1798095703125 76.03068542480469 127.79437255859376 76.03068542480469 139.55999755859375 76.68434143066406 144.78912353515625 76.68434143066406 146.09637451171875 77.99163818359375 144.13543701171875 80.60618591308594 144.13543701171875 80.60618591308594 " />
        <polyline stroke="black" stroke-width="3" stroke-linecap="round" fill="transparent" stroke-linejoin="round" points="131.0626220703125 85.18168640136719 116.6824951171875 96.29362487792967 110.7996826171875 115.90293884277344 108.8387451171875 121.78573608398438 104.26324462890624 131.5903778076172 98.38043212890624 139.43411254882813 91.843994140625 144.66323852539063 83.34661865234375 147.27781677246094 75.5029296875 147.9314727783203 68.3128662109375 147.27781677246094 64.39105224609375 147.27781677246094 62.4300537109375 147.27781677246094 63.08367919921875 147.27781677246094 68.96649169921875 147.27781677246094 84.6539306640625 148.58511352539063 101.64862060546876 149.8924102783203 119.95068359375 151.19969177246094 140.86724853515625 152.5069580078125 151.97918701171875 153.16062927246094 163.74481201171875 156.4288330078125 172.895751953125 163.618896484375 172.895751953125 163.618896484375 " />
        </svg>