<?xml version="1.0" standalone="no"?>
    <svg width="256" height="256" xmlns="http://www.w3.org/2000/svg" version="1.1">
    <polyline stroke="black" stroke-width="3" stroke-linecap="round" fill="transparent" stroke-linejoin="round" points="54.891632080078125 102.03152465820313 74.96173095703125 95.50807189941406 95.03182983398438 88.984619140625 117.62655639648438 84.42730712890625 137.64291381835938 83.42839050292969 149.5601806640625 84.68106079101563 171.68109130859375 86.3150634765625 179.664306640625 87.24935913085938 179.792724609375 87.2886962890625 179.806396484375 87.2928466796875 179.80670166015625 87.29293823242188 " />
        <polyline stroke="black" stroke-width="3" stroke-linecap="round" fill="transparent" stroke-linejoin="round" points="126.12548828124999 105.04786682128909 126.16732788085938 112.98260498046876 126.20916748046876 120.91734313964844 124.263671875 138.4066162109375 123.22811889648438 145.7419891357422 121.7403564453125 157.15469360351563 118.52279663085938 172.0821533203125 118.27850341796876 172.89163208007813 " />
        <polyline stroke="black" stroke-width="3" stroke-linecap="round" fill="transparent" stroke-linejoin="round" points="80.63763427734375 179.59417724609375 88.42709350585938 177.5369873046875 96.216552734375 175.47979736328125 126.70172119140624 170.55865478515625 143.382080078125 168.63267517089844 177.9149169921875 166.57562255859375 188.65130615234375 166.6036376953125 203.8372802734375 167.10543823242188 212.0931396484375 168.34458923339844 212.251220703125 168.42019653320313 212.266357421875 168.42745971679688 " />
        </svg>