<?xml version="1.0" standalone="no"?>
    <svg width="256" height="256" xmlns="http://www.w3.org/2000/svg" version="1.1">
    <polyline stroke="black" stroke-width="3" stroke-linecap="round" fill="transparent" stroke-linejoin="round" points="90.38348388671871 81.60627746582031 97.69805908203124 79.98080444335938 105.01263427734376 78.35533142089844 113.54632568359376 77.13623046875 122.08001708984376 76.32350158691406 139.14739990234375 75.51077270507813 147.274658203125 75.51077270507813 166.3739013671875 76.32350158691406 169.21844482421875 76.32350158691406 172.06298828125 76.32350158691406 171.6566162109375 76.32350158691406 168.40570068359375 77.13623046875 160.27838134765625 81.19989013671875 149.71286010742188 88.92083740234375 139.14739990234375 100.29910278320313 129.80096435546875 114.1155242919922 122.08001708984376 127.52560424804688 114.76544189453124 139.31021118164063 105.82537841796876 149.87570190429688 91.6025390625 160.4412078857422 74.94158935546875 168.9748992919922 66.00152587890625 173.03855895996094 63.563323974609375 173.85128784179688 67.22064208984375 173.03855895996094 92.8216552734375 167.34942626953125 122.08001708984376 163.692138671875 150.93197631835938 164.0985107421875 181.0030517578125 168.9748992919922 181.0030517578125 168.9748992919922 " />
        </svg>