<?xml version="1.0" standalone="no"?>
    <svg width="256" height="256" xmlns="http://www.w3.org/2000/svg" version="1.1">
    <polyline stroke="black" stroke-width="3" stroke-linecap="round" fill="transparent" stroke-linejoin="round" points="79.59326171875 111.80192565917967 92.18328857421876 106.76593017578124 103.93392944335938 103.40859985351563 109.80926513671876 101.72991943359376 122.39926147460938 98.3726043701172 134.569580078125 95.01528930664063 145.48089599609375 91.65792846679688 155.13323974609375 87.88093566894531 161.847900390625 84.94326782226563 163.52655029296875 84.10394287109375 165.20526123046875 83.68426513671875 165.20526123046875 83.68426513671875 " />
        <polyline stroke="black" stroke-width="3" stroke-linecap="round" fill="transparent" stroke-linejoin="round" points="131.63192749023438 107.6052703857422 127.01556396484376 117.67727661132813 125.3369140625 122.2935791015625 123.65826416015624 127.749267578125 118.62225341796876 144.1162567138672 114.42559814453124 152.5095672607422 108.13058471679688 161.7422332763672 98.89794921875 169.29623413085938 85.88827514648438 176.8502197265625 74.97698974609375 181.04690551757813 69.10162353515625 182.72557067871097 67.84262084960938 182.3058929443359 69.94091796875 180.62722778320313 75.81625366210938 178.10923767089844 107.7109375 170.55523681640625 129.11395263671875 168.87657165527344 149.25790405273438 169.29623413085938 166.4642333984375 171.3945770263672 174.43792724609375 173.49290466308594 185.7689208984375 177.68955993652344 185.7689208984375 177.68955993652344 " />
        </svg>