<?xml version="1.0" standalone="no"?>
    <svg width="256" height="256" xmlns="http://www.w3.org/2000/svg" version="1.1">
    <polyline stroke="black" stroke-width="3" stroke-linecap="round" fill="transparent" stroke-linejoin="round" points="67.53707885742188 85.47944641113281 67.53707885742188 120.05192565917967 67.53707885742188 153.5091552734375 68.09469604492188 188.6392517089844 68.65231323242188 205.36785888671875 69.767578125 217.077880859375 70.3251953125 221.53884887695313 73.11328125 215.962646484375 73.11328125 215.962646484375 " />
        <polyline stroke="black" stroke-width="3" stroke-linecap="round" fill="transparent" stroke-linejoin="round" points="73.6708984375 69.30845642089844 84.26568603515625 63.17463684082031 96.5333251953125 57.59843444824219 118.280517578125 51.46460723876953 141.70059204101563 47.56126403808594 160.10205078125 47.56126403808594 175.7154541015625 50.349365234375 186.31024169921875 54.810333251953125 193.559326171875 63.73225402832031 200.250732421875 84.92182922363281 204.711669921875 116.70619201660156 204.711669921875 146.8177032470703 203.038818359375 169.12252807617188 199.135498046875 188.6392517089844 192.444091796875 200.90689086914065 192.444091796875 200.90689086914065 " />
        <polyline stroke="black" stroke-width="3" stroke-linecap="round" fill="transparent" stroke-linejoin="round" points="106.57049560546876 107.78427124023438 113.261962890625 104.43855285644533 121.06863403320313 100.5352020263672 132.7786865234375 97.18948364257813 144.48870849609375 94.95899963378906 153.96826171875 95.51661682128906 160.10205078125 98.30471801757813 163.44781494140625 103.88093566894533 164.00537109375 117.82144165039063 160.65966796875 133.992431640625 156.75634765625 146.8177032470703 153.41064453125 153.5091552734375 149.50726318359375 159.08535766601563 145.60394287109375 162.4310760498047 141.14297485351563 164.10394287109375 136.6820068359375 162.4310760498047 136.6820068359375 162.4310760498047 " />
        <polyline stroke="black" stroke-width="3" stroke-linecap="round" fill="transparent" stroke-linejoin="round" points="131.66342163085938 135.66529846191406 131.10580444335938 149.04818725585938 129.99057006835938 162.9886932373047 128.31768798828125 174.69873046875 125.52960205078124 189.1968688964844 125.52960205078124 189.1968688964844 " />
        <polyline stroke="black" stroke-width="3" stroke-linecap="round" fill="transparent" stroke-linejoin="round" points="80.91998291015625 217.635498046875 96.5333251953125 212.61691284179688 128.87530517578125 204.81024169921875 146.71917724609375 202.02212524414065 165.12066650390625 200.34927368164065 180.1763916015625 199.23403930664065 189.65594482421875 198.67642211914065 194.674560546875 198.67642211914065 195.789794921875 199.79165649414065 195.789794921875 199.79165649414065 " />
        </svg>