<?xml version="1.0" standalone="no"?>
    <svg width="256" height="256" xmlns="http://www.w3.org/2000/svg" version="1.1">
    <polyline stroke="black" stroke-width="3" stroke-linecap="round" fill="transparent" stroke-linejoin="round" points="60.970794677734375 79.44976806640625 60.66729736328125 86.12692260742188 61.88128662109375 121.03016662597656 64.30935668945313 155.9333953857422 66.73739624023438 182.6419982910156 68.8619384765625 200.54888916015625 70.98651123046875 214.81369018554688 72.80755615234375 219.97329711914065 72.80755615234375 219.97329711914065 " />
        <polyline stroke="black" stroke-width="3" stroke-linecap="round" fill="transparent" stroke-linejoin="round" points="105.58624267578124 25.122100830078125 130.47381591796875 18.141448974609375 152.6297607421875 15.409881591796877 171.75067138671875 16.01689910888672 188.14007568359375 19.051963806152344 198.45928955078125 23.301055908203125 207.564453125 29.67469787597656 213.63458251953125 39.99391174316406 216.669677734375 67.61302185058594 214.54510498046875 102.51626586914063 212.72406005859375 143.7931671142578 212.72406005859375 188.1051025390625 211.51007080078125 211.17160034179688 210.903076171875 215.42071533203125 210.903076171875 215.42071533203125 " />
        <polyline stroke="black" stroke-width="3" stroke-linecap="round" fill="transparent" stroke-linejoin="round" points="110.13885498046876 76.41470336914063 126.22470092773438 72.16560363769531 137.75796508789063 71.55860900878906 146.55966186523438 73.379638671875 152.6297607421875 77.62873840332031 160.824462890625 92.50054931640624 161.7349853515625 108.88990783691406 158.69989013671875 122.85121154785156 151.11224365234375 136.50900268554688 141.40005493164063 145.61419677734375 135.63339233398438 146.8282470703125 135.63339233398438 146.8282470703125 " />
        <polyline stroke="black" stroke-width="3" stroke-linecap="round" fill="transparent" stroke-linejoin="round" points="116.81600952148438 126.49327087402344 115.60195922851563 149.2562713623047 113.17388916015624 172.62628173828125 112.26339721679688 177.78590393066406 112.26339721679688 177.78590393066406 " />
        <polyline stroke="black" stroke-width="3" stroke-linecap="round" fill="transparent" stroke-linejoin="round" points="100.12313842773438 209.3505859375 127.74224853515624 204.7979736328125 156.87884521484375 201.45941162109375 184.1944580078125 199.94189453125 190.87158203125 199.3348388671875 190.87158203125 199.3348388671875 " />
        </svg>