<?xml version="1.0" standalone="no"?>
    <svg width="256" height="256" xmlns="http://www.w3.org/2000/svg" version="1.1">
    <polyline stroke="black" stroke-width="3" stroke-linecap="round" fill="transparent" stroke-linejoin="round" points="73.30410766601563 69.23452758789063 75.14044189453125 104.12498474121094 76.36468505859375 131.6700897216797 78.8131103515625 157.37884521484375 80.037353515625 175.74224853515625 80.037353515625 190.4329833984375 78.20101928710938 199.0025634765625 74.5283203125 203.287353515625 70.85565185546875 202.0631103515625 70.85565185546875 202.0631103515625 " />
        <polyline stroke="black" stroke-width="3" stroke-linecap="round" fill="transparent" stroke-linejoin="round" points="84.93426513671875 62.50128173828125 91.66751098632813 58.21649169921875 100.23712158203124 53.319580078125 113.70361328125 48.42266845703125 130.8427734375 44.13787841796875 152.2667236328125 42.301536560058594 171.24224853515625 44.13787841796875 187.769287109375 50.259010314941406 199.39947509765625 60.052825927734375 210.41748046875 81.47679138183594 219.5992431640625 115.75514221191406 222.04766845703125 146.36080932617188 221.435546875 169.62110900878906 218.987060546875 186.76028442382813 213.47802734375 200.22677612304688 207.96905517578125 206.96002197265625 207.96905517578125 206.96002197265625 " />
        <polyline stroke="black" stroke-width="3" stroke-linecap="round" fill="transparent" stroke-linejoin="round" points="118.60049438476563 80.86468505859375 124.72161865234376 75.9677734375 130.8427734375 71.6829833984375 138.1881103515625 68.01029968261719 146.75772094726563 66.17396545410156 154.7152099609375 67.39817810058594 162.060546875 73.51931762695313 168.7938232421875 90.04638671875 171.8543701171875 112.08245849609376 170.630126953125 131.6700897216797 166.95745849609375 146.97291564941406 162.060546875 154.3182830810547 155.939453125 158.6030731201172 146.14559936523438 157.990966796875 136.351806640625 148.80926513671875 136.351806640625 148.80926513671875 " />
        <polyline stroke="black" stroke-width="3" stroke-linecap="round" fill="transparent" stroke-linejoin="round" points="133.9033203125 91.27059936523438 134.51544189453125 105.34921264648438 133.29119873046875 121.87628173828124 132.67910766601563 139.01544189453125 131.45489501953125 155.54251098632813 130.8427734375 169.00900268554688 129.00640869140625 178.8028106689453 126.5579833984375 185.53607177734375 126.5579833984375 185.53607177734375 " />
        <polyline stroke="black" stroke-width="3" stroke-linecap="round" fill="transparent" stroke-linejoin="round" points="78.20101928710938 213.6932678222656 90.44329833984376 211.24481201171875 110.64300537109376 208.18426513671875 135.73968505859375 205.73580932617188 162.060546875 205.73580932617188 181.03607177734375 206.34793090820313 196.3388671875 208.18426513671875 206.1326904296875 210.0205993652344 211.0296630859375 211.24481201171875 211.0296630859375 212.46905517578125 211.0296630859375 212.46905517578125 " />
        </svg>