<?xml version="1.0" standalone="no"?>
    <svg width="256" height="256" xmlns="http://www.w3.org/2000/svg" version="1.1">
    <polyline stroke="black" stroke-width="3" stroke-linecap="round" fill="transparent" stroke-linejoin="round" points="60.84564208984375 84.36421203613281 57.499908447265625 120.60954284667967 54.7117919921875 148.49057006835938 53.0389404296875 173.58348083496094 52.4813232421875 191.4273376464844 52.4813232421875 206.48309326171875 52.4813232421875 215.405029296875 52.4813232421875 215.405029296875 " />
        <polyline stroke="black" stroke-width="3" stroke-linecap="round" fill="transparent" stroke-linejoin="round" points="66.97943115234375 61.50177001953125 75.9013671875 55.367950439453125 88.16903686523438 49.23412322998047 103.22479248046876 44.773162841796875 120.51101684570313 40.86981964111328 138.9124755859375 39.75457763671875 156.75634765625 41.98505401611328 173.4849853515625 48.67650604248047 186.31024169921875 58.71366882324219 196.905029296875 73.76942443847656 205.269287109375 99.4199676513672 207.49981689453125 130.08909606933594 205.269287109375 151.83628845214844 201.365966796875 169.68014526367188 195.232177734375 184.17828369140625 185.1949462890625 198.1187744140625 185.1949462890625 198.1187744140625 " />
        <polyline stroke="black" stroke-width="3" stroke-linecap="round" fill="transparent" stroke-linejoin="round" points="108.24334716796876 87.70993041992188 118.838134765625 83.80659484863281 131.10580444335938 81.57611083984375 143.37347412109375 82.13372802734375 152.85302734375 84.92182922363281 159.54443359375 90.49803161621094 164.56304931640625 101.0928192138672 160.65966796875 137.89578247070313 155.64111328125 144.58721923828125 147.27679443359375 149.60580444335938 147.27679443359375 149.60580444335938 " />
        <polyline stroke="black" stroke-width="3" stroke-linecap="round" fill="transparent" stroke-linejoin="round" points="116.607666015625 113.9180908203125 117.165283203125 126.7433624267578 117.722900390625 140.12625122070313 118.280517578125 152.39390563964844 117.165283203125 162.4310760498047 112.146728515625 175.81396484375 112.146728515625 175.81396484375 " />
        <polyline stroke="black" stroke-width="3" stroke-linecap="round" fill="transparent" stroke-linejoin="round" points="63.07611083984375 217.635498046875 75.9013671875 214.847412109375 94.3028564453125 210.94406127929688 121.62625122070313 206.48309326171875 142.25820922851563 203.13735961914065 161.77490234375 200.34927368164065 177.3883056640625 198.1187744140625 186.86785888671875 197.5611572265625 191.886474609375 198.67642211914065 194.674560546875 203.13735961914065 194.674560546875 203.13735961914065 " />
        </svg>