<?xml version="1.0" standalone="no"?>
    <svg width="256" height="256" xmlns="http://www.w3.org/2000/svg" version="1.1">
    <polyline stroke="black" stroke-width="3" stroke-linecap="round" fill="transparent" stroke-linejoin="round" points="69 91 69 104 68 131 65 163 65 189 65 208 65 218 65 218 " />
        <polyline stroke="black" stroke-width="3" stroke-linecap="round" fill="transparent" stroke-linejoin="round" points="79 69 91 68 120 61 151 58 177 58 197 65 209 85 211 114 211 145 209 171 202 194 196 208 190 217 180 222 180 222 " />
        <polyline stroke="black" stroke-width="3" stroke-linecap="round" fill="transparent" stroke-linejoin="round" points="109 103 127 100 144 96 159 96 167 98 167 111 161 128 147 145 135 155 131 157 131 157 " />
        <polyline stroke="black" stroke-width="3" stroke-linecap="round" fill="transparent" stroke-linejoin="round" points="132 137 128 154 124 170 122 177 122 177 " />
        <polyline stroke="black" stroke-width="3" stroke-linecap="round" fill="transparent" stroke-linejoin="round" points="91 195 101 195 124 194 146 194 169 194 190 194 199 195 199 195 " />
        </svg>