<?xml version="1.0" standalone="no"?>
    <svg width="256" height="256" xmlns="http://www.w3.org/2000/svg" version="1.1">
    <polyline stroke="black" stroke-width="3" stroke-linecap="round" fill="transparent" stroke-linejoin="round" points="76.7333984375 134.6666717529297 77.80010986328125 168.80001831054688 77.80010986328125 192.2666931152344 78.86669921875 207.20001220703125 78.86669921875 209.33334350585935 78.86669921875 199.73336791992188 78.86669921875 199.73336791992188 " />
        <polyline stroke="black" stroke-width="3" stroke-linecap="round" fill="transparent" stroke-linejoin="round" points="121.53338623046876 55.73333740234375 142.86669921875 51.46668243408203 161 50.40000915527344 172.7333984375 49.333343505859375 181.2667236328125 49.333343505859375 186.60009765625 49.333343505859375 189.8001708984375 48.26667022705078 191.933349609375 48.26667022705078 194.0667724609375 49.333343505859375 197.2667236328125 58.93333435058594 197.2667236328125 80.26667785644531 196.2000732421875 114.40000915527344 196.2000732421875 146.40003967285156 198.3333740234375 177.33334350585938 200.4666748046875 185.86666870117188 201.533447265625 190.13336181640625 201.533447265625 190.13336181640625 201.533447265625 190.13336181640625 " />
        <polyline stroke="black" stroke-width="3" stroke-linecap="round" fill="transparent" stroke-linejoin="round" points="155.666748046875 79.20002746582031 167.4000244140625 79.20002746582031 172.7333984375 79.20002746582031 175.933349609375 82.40000915527344 174.86669921875 94.1333465576172 170.60009765625 104.8000030517578 164.2000732421875 115.4666748046875 157.8001708984375 124.00001525878906 152.466796875 129.33334350585938 143.933349609375 127.20001220703124 135.4000244140625 115.4666748046875 129 102.66667175292967 125.80010986328124 96.26667785644533 124.7333984375 94.1333465576172 126.86669921875 98.40000915527344 131.1334228515625 115.4666748046875 135.4000244140625 138.93336486816406 136.466796875 156.00001525878906 135.4000244140625 170.93336486816406 132.2000732421875 177.33334350585938 132.2000732421875 177.33334350585938 " />
        <polyline stroke="black" stroke-width="3" stroke-linecap="round" fill="transparent" stroke-linejoin="round" points="110.86669921875 207.20001220703125 153.533447265625 202.933349609375 179.1334228515625 202.933349609375 195.1334228515625 202.933349609375 203.666748046875 206.13336181640625 207.933349609375 210.40005493164065 207.933349609375 210.40005493164065 " />
        </svg>