<?xml version="1.0" standalone="no"?>
    <svg width="256" height="256" xmlns="http://www.w3.org/2000/svg" version="1.1">
    <polyline stroke="black" stroke-width="3" stroke-linecap="round" fill="transparent" stroke-linejoin="round" points="45.871124267578125 93.10694885253906 60.56182861328125 80.2525634765625 71.57989501953125 71.6829833984375 82.59793090820313 63.11338806152344 93.615966796875 55.155914306640625 101.57342529296876 49.64689636230469 107.694580078125 46.586334228515625 110.755126953125 44.74999237060547 110.755126953125 45.974220275878906 106.4703369140625 52.09535217285156 95.45230102539063 71.6829833984375 80.14947509765625 99.84019470214844 68.51931762695313 129.833740234375 59.337615966796875 152.48194885253906 51.380126953125 168.3968963623047 46.483245849609375 175.13014221191406 43.42266845703125 179.41493225097656 43.42266845703125 179.41493225097656 46.483245849609375 173.29379272460938 56.27703857421875 158.6030731201172 70.35565185546875 139.6275634765625 81.37371826171875 127.3852996826172 88.71905517578125 121.87628173828124 95.45230102539063 119.42782592773438 99.73712158203124 123.10049438476563 102.79766845703124 138.40333557128906 104.02191162109376 156.1546173095703 105.85821533203124 169.62110900878906 108.30670166015624 176.9664764404297 112.59149169921876 182.4754943847656 118.71261596679688 182.4754943847656 126.0579833984375 170.8453369140625 126.0579833984375 170.8453369140625 " />
        <polyline stroke="black" stroke-width="3" stroke-linecap="round" fill="transparent" stroke-linejoin="round" points="122.38531494140624 88.82215881347656 133.4033203125 79.02833557128906 143.1971435546875 72.90721130371094 153.60308837890625 66.17396545410156 164.62109375 59.440704345703125 173.190673828125 53.93169403076172 178.69970703125 50.871124267578125 181.76025390625 52.09535217285156 180.53607177734375 59.440704345703125 170.74224853515625 77.80410766601563 162.17266845703125 94.3311767578125 154.2152099609375 110.85823059082033 147.48193359375 127.99740600585938 141.36080932617188 150.64559936523438 136.46389770507813 173.29379272460938 132.17910766601563 192.88140869140625 129.73065185546875 201.45101928710935 128.50640869140625 206.96002197265625 129.73065185546875 206.96002197265625 132.79119873046875 201.45101928710935 140.74868774414063 184.31182861328125 149.31829833984375 162.8878631591797 157.88787841796875 145.74868774414063 164.62109375 135.3427734375 171.3543701171875 129.2216339111328 178.087646484375 124.93684387207033 184.208740234375 124.32472229003906 188.4935302734375 127.99740600585938 193.39044189453125 145.13658142089844 196.4510498046875 164.72421264648438 199.5115966796875 175.13014221191406 203.79638671875 182.4754943847656 208.0811767578125 187.37240600585935 212.97802734375 189.82086181640625 216.6507568359375 189.82086181640625 219.7113037109375 183.69973754882813 219.7113037109375 183.69973754882813 " />
        </svg>