<?xml version="1.0" standalone="no"?>
    <svg width="256" height="256" xmlns="http://www.w3.org/2000/svg" version="1.1">
    <polyline stroke="black" stroke-width="3" stroke-linecap="round" fill="transparent" stroke-linejoin="round" points="58.306396484375 97.66737365722656 58.951751708984375 109.28396606445313 60.24249267578125 117.67372131347656 61.533203125 122.1912841796875 62.823974609375 122.1912841796875 62.823974609375 122.1912841796875 " />
        <polyline stroke="black" stroke-width="3" stroke-linecap="round" fill="transparent" stroke-linejoin="round" points="97.02835083007813 102.1849365234375 97.02835083007813 108.63859558105467 95.73760986328124 113.80152893066406 94.4468994140625 115.73762512207033 94.4468994140625 111.8654327392578 97.02835083007813 106.70249938964844 100.90057373046876 99.6034698486328 107.35421752929688 91.8590850830078 118.9708251953125 82.1785888671875 133.16885375976563 75.07955932617188 148.65765380859375 71.20736694335938 157.04742431640625 71.20736694335938 163.5010986328125 74.4342041015625 165.4371337890625 84.11468505859375 158.338134765625 102.83030700683594 145.43081665039063 115.73762512207033 121.55224609375 130.58103942871094 105.41812133789063 136.38934326171875 98.319091796875 137.68006896972656 94.4468994140625 138.97080993652344 96.38299560546876 137.68006896972656 102.836669921875 135.09860229492188 122.1976318359375 129.93568420410156 135.10494995117188 124.12738037109376 148.65765380859375 117.02835083007813 156.40203857421875 106.70249938964844 156.40203857421875 106.70249938964844 " />
        <polyline stroke="black" stroke-width="3" stroke-linecap="round" fill="transparent" stroke-linejoin="round" points="129.9420166015625 74.4342041015625 123.48837280273438 115.09225463867188 120.26153564453124 137.03469848632813 117.6800537109375 155.7503204345703 117.03469848632813 169.30300903320313 118.9708251953125 175.7566680908203 123.48837280273438 175.7566680908203 123.48837280273438 175.7566680908203 " />
        <polyline stroke="black" stroke-width="3" stroke-linecap="round" fill="transparent" stroke-linejoin="round" points="191.89715576171875 109.28396606445313 178.344482421875 131.22640991210938 162.2103271484375 154.4595947265625 146.7215576171875 171.8844757080078 146.7215576171875 171.8844757080078 " />
        <polyline stroke="black" stroke-width="3" stroke-linecap="round" fill="transparent" stroke-linejoin="round" points="98.319091796875 193.82693481445313 113.807861328125 189.9547119140625 129.9420166015625 186.08251953125 144.78546142578125 180.9196014404297 155.111328125 178.338134765625 160.27423095703125 178.338134765625 160.27423095703125 180.27423095703125 153.820556640625 186.08251953125 134.4595947265625 196.40838623046875 134.4595947265625 196.40838623046875 " />
        <polyline stroke="black" stroke-width="3" stroke-linecap="round" fill="transparent" stroke-linejoin="round" points="65.40542602539063 227.38595581054688 81.53955078125 226.09521484375 106.0634765625 224.15911865234375 131.87811279296875 222.868408203125 151.88446044921875 222.2230224609375 169.309326171875 222.2230224609375 180.28057861328125 222.868408203125 186.7342529296875 224.80450439453125 186.7342529296875 224.80450439453125 " />
        </svg>