<?xml version="1.0" standalone="no"?>
    <svg width="256" height="256" xmlns="http://www.w3.org/2000/svg" version="1.1">
    <polyline stroke="black" stroke-width="3" stroke-linecap="round" fill="transparent" stroke-linejoin="round" points="66.44638061523438 110.8345184326172 68.2147216796875 115.25537109375 69.54098510742188 119.23416137695313 72.63558959960938 128.07589721679688 73.519775390625 130.2863006591797 73.519775390625 132.05467224121094 73.96185302734375 132.05467224121094 73.96185302734375 132.05467224121094 " />
        <polyline stroke="black" stroke-width="3" stroke-linecap="round" fill="transparent" stroke-linejoin="round" points="102.69744873046876 94.03523254394533 104.023681640625 98.01400756835938 105.3499755859375 101.55070495605467 107.11834716796876 108.6240692138672 108.00250244140624 115.25537109375 108.00250244140624 117.4658203125 108.00250244140624 118.3499755859375 108.444580078125 117.90788269042967 109.77084350585938 116.58163452148438 115.5179443359375 111.71867370605467 120.38095092773438 107.73991394042967 137.18017578125 94.03523254394533 148.67440795898438 86.51976013183594 158.8424072265625 81.2147216796875 166.35791015625 78.56221008300781 171.6629638671875 78.56221008300781 173.4312744140625 79.00430297851563 174.75750732421875 83.4251708984375 170.77874755859375 93.15106201171876 162.37908935546875 101.99278259277344 155.3057861328125 107.29782104492188 131.43307495117188 121.0024871826172 119.49676513671876 125.86544799804688 113.30755615234376 128.07589721679688 110.655029296875 128.5179443359375 110.212890625 128.5179443359375 110.655029296875 128.5179443359375 113.30755615234376 128.5179443359375 125.24386596679688 128.96005249023438 130.54891967773438 128.96005249023438 146.02191162109375 125.42337036132813 146.02191162109375 125.42337036132813 " />
        <polyline stroke="black" stroke-width="3" stroke-linecap="round" fill="transparent" stroke-linejoin="round" points="211.45068359375 73.69926452636719 205.261474609375 80.33056640625 199.072265625 87.4039306640625 188.462158203125 97.57192993164063 179.17840576171875 105.9715576171875 175.19964599609375 109.50827026367188 170.77874755859375 112.60284423828124 167.2420654296875 114.81329345703124 167.2420654296875 114.81329345703124 " />
        <polyline stroke="black" stroke-width="3" stroke-linecap="round" fill="transparent" stroke-linejoin="round" points="140.27484130859375 64.8575439453125 138.06439208984375 75.0255126953125 136.2960205078125 86.51976013183594 133.64352416992188 109.95034790039063 131.87518310546875 131.612548828125 130.54891967773438 148.8539276123047 129.66473388671875 161.2323455810547 128.780517578125 168.747802734375 128.33847045898438 171.8424072265625 128.33847045898438 171.8424072265625 " />
        <polyline stroke="black" stroke-width="3" stroke-linecap="round" fill="transparent" stroke-linejoin="round" points="113.30755615234376 170.07406616210938 119.49676513671876 168.30572509765625 125.68597412109376 167.4215545654297 142.04315185546875 163.88485717773438 149.55859375 163.44277954101563 152.6531982421875 163.88485717773438 152.6531982421875 163.88485717773438 " />
        <polyline stroke="black" stroke-width="3" stroke-linecap="round" fill="transparent" stroke-linejoin="round" points="98.71868896484376 224.45068359375 111.98129272460938 221.79815673828125 134.96978759765625 216.49313354492188 144.69564819335938 215.1668701171875 161.93701171875 213.84060668945313 175.19964599609375 214.28271484375 184.925537109375 216.051025390625 184.925537109375 216.051025390625 " />
        </svg>