<?xml version="1.0" standalone="no"?>
    <svg width="256" height="256" xmlns="http://www.w3.org/2000/svg" version="1.1">
    <polyline stroke="black" stroke-width="3" stroke-linecap="round" fill="transparent" stroke-linejoin="round" points="92.11083984375 92.3083038330078 92.99420166015624 99.37533569335938 93.43588256835938 106.44235229492188 93.43588256835938 113.50938415527344 92.552490234375 124.9932861328125 92.552490234375 124.9932861328125 " />
        <polyline stroke="black" stroke-width="3" stroke-linecap="round" fill="transparent" stroke-linejoin="round" points="123.029052734375 85.68296813964844 123.029052734375 90.099853515625 123.029052734375 94.07505798339844 123.029052734375 100.25871276855467 123.029052734375 104.23391723632813 123.029052734375 106.884033203125 123.029052734375 106.44235229492188 126.120849609375 101.58377075195313 131.421142578125 95.40013122558594 141.13827514648438 87.00802612304688 152.6221923828125 79.49932861328125 163.2227783203125 73.75736999511719 173.8232421875 70.22384643554688 182.21533203125 68.89878845214844 187.515625 69.34048461914063 190.607421875 70.22384643554688 191.4908447265625 71.10723876953125 191.0491943359375 79.05763244628906 182.21533203125 91.86660766601563 166.3145751953125 106.884033203125 147.76361083984375 120.13470458984376 134.95465087890625 126.76004028320313 128.77099609375 128.96849060058594 125.67916870117188 129.41018676757813 124.35409545898438 129.41018676757813 123.91241455078124 128.52682495117188 126.56256103515624 127.20175170898438 134.07125854492188 124.9932861328125 147.32196044921875 122.3431396484375 164.54779052734375 117.92626953125 180.0069580078125 112.18431091308594 180.0069580078125 112.18431091308594 " />
        <polyline stroke="black" stroke-width="3" stroke-linecap="round" fill="transparent" stroke-linejoin="round" points="150.85543823242188 40.63069152832031 148.64697265625 49.02278137207031 143.34674072265625 77.73257446289063 142.02166748046875 87.44972229003906 140.69662475585938 107.76742553710938 140.69662475585938 124.1099090576172 141.13827514648438 137.80227661132813 142.02166748046875 147.07774353027344 143.78842163085938 152.37802124023438 146.88021850585938 154.14476013183594 146.88021850585938 154.14476013183594 " />
        <polyline stroke="black" stroke-width="3" stroke-linecap="round" fill="transparent" stroke-linejoin="round" points="217.9921875 80.38270568847656 200.76629638671875 99.37533569335938 177.3568115234375 124.55162048339844 166.3145751953125 136.03550720214844 166.3145751953125 136.03550720214844 " />
        <polyline stroke="black" stroke-width="3" stroke-linecap="round" fill="transparent" stroke-linejoin="round" points="122.14569091796876 159.88671875 137.1630859375 155.91152954101563 153.505615234375 153.26138305664063 170.289794921875 151.9363250732422 184.423828125 150.6112518310547 196.7911376953125 150.1695556640625 203.41644287109375 149.72789001464844 205.6248779296875 150.6112518310547 205.6248779296875 150.6112518310547 " />
        <polyline stroke="black" stroke-width="3" stroke-linecap="round" fill="transparent" stroke-linejoin="round" points="100.50289916992188 207.1474609375 109.77838134765624 204.05560302734375 119.0538330078125 201.40548706054688 138.04647827148438 197.4302978515625 155.71405029296875 194.7801513671875 174.7066650390625 193.455078125 197.2327880859375 192.57171630859375 212.69189453125 194.3384704589844 212.69189453125 194.3384704589844 " />
        </svg>