<?xml version="1.0" standalone="no"?>
    <svg width="256" height="256" xmlns="http://www.w3.org/2000/svg" version="1.1">
    <polyline stroke="black" stroke-width="3" stroke-linecap="round" fill="transparent" stroke-linejoin="round" points="50.04095458984375 123.98367309570313 68.94760131835938 117.98887634277344 80.014892578125 114.29977416992188 92.46563720703124 110.14952087402344 104.45526123046876 106.46041870117188 127.51214599609376 99.5433349609375 138.1182861328125 96.77651977539063 162.09747314453125 89.85945129394531 175.00933837890625 82.02009582519531 175.00933837890625 82.02009582519531 " />
        <polyline stroke="black" stroke-width="3" stroke-linecap="round" fill="transparent" stroke-linejoin="round" points="114.60028076171876 54.35182189941406 111.83343505859376 67.26368713378906 111.372314453125 74.64189147949219 110.45001220703124 93.08741760253906 109.52777099609376 103.23245239257813 109.06658935546876 113.3774871826172 107.2220458984375 130.43960571289063 106.29977416992188 136.89553833007813 105.37750244140624 146.1182861328125 104.45526123046876 149.80740356445313 104.45526123046876 149.80740356445313 " />
        <polyline stroke="black" stroke-width="3" stroke-linecap="round" fill="transparent" stroke-linejoin="round" points="135.81259155273438 51.12385559082031 134.42919921875 76.94758605957031 133.04574584960938 90.78172302246094 132.12350463867188 105.999267578125 131.662353515625 135.9732666015625 133.04574584960938 164.1026611328125 134.89031982421875 189.46527099609375 134.89031982421875 189.46527099609375 " />
        </svg>