<?xml version="1.0" standalone="no"?>
    <svg width="256" height="256" xmlns="http://www.w3.org/2000/svg" version="1.1">
    <polyline stroke="black" stroke-width="3" stroke-linecap="round" fill="transparent" stroke-linejoin="round" points="55.19793701171875 129.9815673828125 75.02438354492188 123.37277221679688 96.50299072265624 117.17703247070313 107.65533447265624 114.2856903076172 129.13397216796875 108.916015625 138.63412475585938 106.85076904296876 154.33001708984375 102.7202606201172 165.0693359375 100.24197387695313 171.6781005859375 97.76365661621094 172.5042724609375 96.93757629394533 172.5042724609375 96.93757629394533 " />
        <polyline stroke="black" stroke-width="3" stroke-linecap="round" fill="transparent" stroke-linejoin="round" points="88.241943359375 63.48048400878906 84.93759155273438 74.63284301757813 82.872314453125 85.37216186523438 80.39401245117188 118.00314331054688 81.63314819335938 156.00375366210938 82.45928955078125 162.1995086669922 84.52450561523438 170.87356567382813 86.17672729492188 170.4604949951172 88.241943359375 168.39524841308594 88.241943359375 168.39524841308594 " />
        <polyline stroke="black" stroke-width="3" stroke-linecap="round" fill="transparent" stroke-linejoin="round" points="116.742431640625 57.697784423828125 114.67718505859376 77.11114501953125 113.43804931640624 109.32908630371094 113.85107421875 144.85137939453125 116.742431640625 177.06930541992188 120.45989990234376 204.33062744140625 125.82955932617188 229.93975830078125 125.82955932617188 229.93975830078125 " />
        </svg>