<?xml version="1.0" standalone="no"?>
    <svg width="256" height="256" xmlns="http://www.w3.org/2000/svg" version="1.1">
    <polyline stroke="black" stroke-width="3" stroke-linecap="round" fill="transparent" stroke-linejoin="round" points="91 84 83 102 78 116 74 131 70 147 69 158 69 157 69 157 " />
        <polyline stroke="black" stroke-width="3" stroke-linecap="round" fill="transparent" stroke-linejoin="round" points="119 81 123 83 135 88 147 91 159 94 168 96 168 96 " />
        <polyline stroke="black" stroke-width="3" stroke-linecap="round" fill="transparent" stroke-linejoin="round" points="91 151 91 151 94 149 101 144 110 140 118 135 126 133 128 133 128 133 128 133 128 132 129 132 129 131 130 131 130 131 131 131 131 131 131 132 130 132 130 132 " />
        <polyline stroke="black" stroke-width="3" stroke-linecap="round" fill="transparent" stroke-linejoin="round" points="107 165 106 166 106 172 106 174 108 179 112 182 116 183 122 184 134 181 145 175 155 169 161 164 165 161 166 158 165 156 162 154 158 152 149 149 142 148 139 146 139 146 " />
        <polyline stroke="black" stroke-width="3" stroke-linecap="round" fill="transparent" stroke-linejoin="round" points="119 140 122 159 125 175 131 193 137 211 143 235 146 249 146 250 146 250 " />
        </svg>