<?xml version="1.0" standalone="no"?>
    <svg width="256" height="256" xmlns="http://www.w3.org/2000/svg" version="1.1">
    <polyline stroke="black" stroke-width="3" stroke-linecap="round" fill="transparent" stroke-linejoin="round" points="114 59.5 111 65.5 107.5 73 103.5 81 98.5 93 94.5 101 90 108.5 85 115.5 77.5 123.5 73.5 127.5 70.5 130.5 68 132 67.5 132.5 67.5 132.5 " />
        <polyline stroke="black" stroke-width="3" stroke-linecap="round" fill="transparent" stroke-linejoin="round" points="162.5 65.5 169.5 70.5 177.5 75.5 187 80.5 195 84 199.5 86 201.5 87 202.5 88 202.5 88.5 201.5 89.5 201.5 89.5 " />
        <polyline stroke="black" stroke-width="3" stroke-linecap="round" fill="transparent" stroke-linejoin="round" points="120 93 122 92.5 129 90 136 88.5 142.5 86.5 148.5 84.5 154.5 82.5 157 82 158 81.5 158 81.5 " />
        <polyline stroke="black" stroke-width="3" stroke-linecap="round" fill="transparent" stroke-linejoin="round" points="108 142 108.5 143 109.5 143.5 110 144 111 144 112 143.5 115 142 119 140.5 124 138.5 130 136 137 133.5 144.5 131 149.5 129.5 153.5 128 156 127.5 157.5 126.5 158 126 158 125.5 158 125.5 " />
        <polyline stroke="black" stroke-width="3" stroke-linecap="round" fill="transparent" stroke-linejoin="round" points="164 119.5 161.5 127 161.5 127 " />
        <polyline stroke="black" stroke-width="3" stroke-linecap="round" fill="transparent" stroke-linejoin="round" points="139 127.5 138.5 135.5 137.5 144.5 135 154 129 168 126.5 172.5 121 181 118.5 185 118.5 185 " />
        </svg>