<?xml version="1.0" standalone="no"?>
    <svg width="256" height="256" xmlns="http://www.w3.org/2000/svg" version="1.1">
    <polyline stroke="black" stroke-width="3" stroke-linecap="round" fill="transparent" stroke-linejoin="round" points="90.16949462890624 48.16822814941406 73.64431762695313 72.95599365234375 60.070068359375 91.251708984375 50.03692626953125 107.18670654296876 44.72528076171875 114.85910034179688 42.9547119140625 118.40020751953124 45.315460205078125 116.03947448730467 50.62713623046875 108.95726013183594 59.479888916015625 98.9241180419922 69.51303100585938 93.0222625732422 81.90692138671875 87.12042236328125 96.66152954101563 81.80876159667969 111.4161376953125 76.49710083007813 129.1217041015625 72.36579895019531 140.92538452148438 68.82469177246094 152.72906494140625 65.87376403808594 160.4014892578125 63.513031005859375 167.48370361328125 58.20137023925781 167.48370361328125 58.20137023925781 " />
        <polyline stroke="black" stroke-width="3" stroke-linecap="round" fill="transparent" stroke-linejoin="round" points="171.0247802734375 29.87250518798828 176.9266357421875 44.03694152832031 184.59906005859375 59.381744384765625 191.6812744140625 74.1363525390625 197.5831298828125 87.71060180664063 201.12420654296875 100.69467163085938 201.12420654296875 100.69467163085938 " />
        <polyline stroke="black" stroke-width="3" stroke-linecap="round" fill="transparent" stroke-linejoin="round" points="91.9400634765625 138.46649169921875 88.9891357421875 154.9916534423828 86.62838745117188 172.1070098876953 86.62838745117188 183.32052612304688 88.9891357421875 189.81256103515625 95.48114013671876 193.94384765625 107.87503051757813 193.94384765625 124.40020751953124 188.63217163085935 137.38427734375 182.14016723632813 149.77813720703125 173.28738403320313 160.99163818359375 161.4836883544922 160.99163818359375 161.4836883544922 " />
        <polyline stroke="black" stroke-width="3" stroke-linecap="round" fill="transparent" stroke-linejoin="round" points="172.2052001953125 139.05667114257813 171.614990234375 146.7290802001953 171.614990234375 153.81129455566406 170.43463134765625 159.713134765625 168.0738525390625 164.4346160888672 165.1229248046875 166.79534912109375 165.1229248046875 166.79534912109375 " />
        <polyline stroke="black" stroke-width="3" stroke-linecap="round" fill="transparent" stroke-linejoin="round" points="146.82720947265625 88.30079650878906 143.2861328125 104.82595825195313 136.20391845703125 134.92538452148438 131.482421875 156.17202758789063 124.99038696289063 179.7794189453125 119.08856201171876 198.07513427734375 112.00634765625 214.60031127929688 104.92413330078124 230.53530883789065 104.92413330078124 230.53530883789065 " />
        </svg>