<?xml version="1.0" standalone="no"?>
    <svg width="256" height="256" xmlns="http://www.w3.org/2000/svg" version="1.1">
    <polyline stroke="black" stroke-width="3" stroke-linecap="round" fill="transparent" stroke-linejoin="round" points="101.5233154296875 39.251739501953125 94.43722534179688 49.880889892578125 81.68222045898438 71.84780883789063 76.01336669921875 81.41403198242188 67.51007080078125 97.35775756835938 63.258392333984375 105.50675964355467 63.258392333984375 105.50675964355467 " />
        <polyline stroke="black" stroke-width="3" stroke-linecap="round" fill="transparent" stroke-linejoin="round" points="93.37432861328124 83.185546875 99.3974609375 79.99681091308594 105.420654296875 77.51667785644531 123.490234375 72.91072082519531 139.43392944335938 70.43057250976563 145.81146240234375 69.36766052246094 145.81146240234375 69.36766052246094 " />
        <polyline stroke="black" stroke-width="3" stroke-linecap="round" fill="transparent" stroke-linejoin="round" points="169.54986572265625 44.920623779296875 173.0928955078125 50.23519134521485 187.9737548828125 80.35113525390625 189.7452392578125 90.27165222167967 189.7452392578125 90.27165222167967 " />
        <polyline stroke="black" stroke-width="3" stroke-linecap="round" fill="transparent" stroke-linejoin="round" points="84.162353515625 130.66241455078125 84.162353515625 137.3942108154297 84.51669311523438 144.48031616210938 84.8709716796875 150.50347900390625 86.2882080078125 159.00680541992188 87.35113525390625 162.19554138183594 90.8941650390625 165.73858642578125 100.814697265625 167.8644256591797 108.255126953125 167.51011657714844 128.09619140625 161.4869384765625 146.16574096679688 153.69223022460938 158.56640625 146.6061248779297 162.1094970703125 144.48031616210938 162.1094970703125 144.48031616210938 " />
        <polyline stroke="black" stroke-width="3" stroke-linecap="round" fill="transparent" stroke-linejoin="round" points="157.8577880859375 139.52005004882813 158.56640625 146.96043395996094 159.2750244140625 152.98362731933594 159.62933349609375 160.7783203125 159.62933349609375 162.5498504638672 159.62933349609375 162.5498504638672 " />
        <polyline stroke="black" stroke-width="3" stroke-linecap="round" fill="transparent" stroke-linejoin="round" points="123.84454345703124 128.18228149414063 117.467041015625 171.407470703125 114.98690795898438 191.24856567382813 106.48358154296876 239.43402099609375 106.48358154296876 239.43402099609375 " />
        </svg>