<?xml version="1.0" standalone="no"?>
    <svg width="256" height="256" xmlns="http://www.w3.org/2000/svg" version="1.1">
    <polyline stroke="black" stroke-width="3" stroke-linecap="round" fill="transparent" stroke-linejoin="round" points="63.87200927734375 81.65469360351563 56.437103271484375 97.35061645507813 50.654388427734375 109.32908630371094 37.02374267578125 137.82955932617188 34.13238525390625 142.7861328125 32.89324951171875 144.02529907226563 32.480194091796875 144.02529907226563 32.480194091796875 144.02529907226563 " />
        <polyline stroke="black" stroke-width="3" stroke-linecap="round" fill="transparent" stroke-linejoin="round" points="69.24166870117188 107.67686462402344 77.91571044921875 103.13333129882813 86.17672729492188 99.0028076171875 112.19891357421876 87.43740844726563 120.04684448242188 83.71995544433594 140.6993408203125 73.80674743652344 148.96038818359375 68.0240478515625 148.96038818359375 68.0240478515625 " />
        <polyline stroke="black" stroke-width="3" stroke-linecap="round" fill="transparent" stroke-linejoin="round" points="137.39495849609375 56.45863342285156 140.28631591796875 62.2413330078125 144.00375366210938 68.43708801269531 156.80828857421875 85.37216186523438 165.89544677734375 95.2853546142578 173.330322265625 104.37248229980467 173.330322265625 104.37248229980467 " />
        <polyline stroke="black" stroke-width="3" stroke-linecap="round" fill="transparent" stroke-linejoin="round" points="77.502685546875 169.2213592529297 79.15487670898438 172.11270141601563 84.93759155273438 178.72149658203125 90.30722045898438 181.61285400390625 99.807373046875 181.19981384277344 110.54669189453124 175.83016967773438 115.50326538085938 171.28660583496094 133.677490234375 147.32969665527344 133.677490234375 147.32969665527344 " />
        <polyline stroke="black" stroke-width="3" stroke-linecap="round" fill="transparent" stroke-linejoin="round" points="151.85174560546875 133.28598022460938 150.19952392578125 142.3730926513672 147.30816650390625 150.22103881835938 145.65594482421875 153.11239624023438 145.65594482421875 153.11239624023438 " />
        <polyline stroke="black" stroke-width="3" stroke-linecap="round" fill="transparent" stroke-linejoin="round" points="116.742431640625 124.19889831542967 113.02499389648438 135.7642822265625 106.8292236328125 163.85171508789063 103.9378662109375 191.113037109375 103.11175537109376 217.13519287109375 103.11175537109376 217.13519287109375 " />
        </svg>