<?xml version="1.0" standalone="no"?>
    <svg width="256" height="256" xmlns="http://www.w3.org/2000/svg" version="1.1">
    <polyline stroke="black" stroke-width="3" stroke-linecap="round" fill="transparent" stroke-linejoin="round" points="125.11370849609376 58.20298767089844 107.72445678710938 80.0247802734375 98.17742919921876 91.27664184570313 79.76531982421875 110.71165466308594 71.923095703125 117.87193298339844 60.33026123046875 127.41897583007813 56.920623779296875 129.80572509765625 56.920623779296875 129.80572509765625 " />
        <polyline stroke="black" stroke-width="3" stroke-linecap="round" fill="transparent" stroke-linejoin="round" points="133.978759765625 49.678855895996094 161.25604248046875 44.56437683105469 172.5079345703125 43.541473388671875 186.146484375 43.88243865966797 199.44415283203125 45.246299743652344 199.44415283203125 45.246299743652344 " />
        <polyline stroke="black" stroke-width="3" stroke-linecap="round" fill="transparent" stroke-linejoin="round" points="105.67864990234376 122.98641967773438 102.26901245117188 129.80572509765625 95.10873413085938 147.53591918945313 89.31234741210938 164.24322509765625 85.56170654296875 174.47219848632813 83.1749267578125 179.586669921875 82.15203857421875 180.60955810546875 82.15203857421875 180.60955810546875 " />
        <polyline stroke="black" stroke-width="3" stroke-linecap="round" fill="transparent" stroke-linejoin="round" points="122.38595581054688 104.91525268554688 128.182373046875 102.52848815917967 140.45712280273438 98.7778778076172 155.800537109375 97.4140167236328 159.55120849609375 98.43690490722656 168.416259765625 109.0068359375 173.1898193359375 129.123779296875 175.57659912109375 148.8997802734375 176.9404296875 156.06005859375 183.07781982421875 169.69866943359375 187.851318359375 174.1312255859375 191.6019287109375 175.49508666992188 200.1260986328125 173.79026794433594 211.0369873046875 160.83358764648438 211.0369873046875 160.83358764648438 " />
        <polyline stroke="black" stroke-width="3" stroke-linecap="round" fill="transparent" stroke-linejoin="round" points="119.658203125 123.6683349609375 128.86431884765625 120.94061279296876 139.43426513671875 117.53097534179688 157.84637451171875 113.09841918945313 157.84637451171875 113.09841918945313 " />
        <polyline stroke="black" stroke-width="3" stroke-linecap="round" fill="transparent" stroke-linejoin="round" points="131.592041015625 156.7419891357422 147.27645874023438 148.8997802734375 147.27645874023438 148.8997802734375 " />
        <polyline stroke="black" stroke-width="3" stroke-linecap="round" fill="transparent" stroke-linejoin="round" points="137.72943115234375 90.25373840332033 136.70651245117188 119.23580932617188 136.70651245117188 147.87689208984375 137.388427734375 173.79026794433594 138.07040405273438 203.11328125 138.75228881835938 220.16156005859375 140.11614990234375 235.845947265625 140.11614990234375 235.845947265625 " />
        </svg>