<?xml version="1.0" standalone="no"?>
    <svg width="256" height="256" xmlns="http://www.w3.org/2000/svg" version="1.1">
    <polyline stroke="black" stroke-width="3" stroke-linecap="round" fill="transparent" stroke-linejoin="round" points="85.48153686523438 83.18865966796875 71.17770385742188 96.10824584960938 61.949432373046875 111.33486938476563 56.412506103515625 120.10171508789063 42.10870361328125 138.55825805664063 34.264678955078125 147.78652954101563 32.88043212890625 149.17074584960938 32.88043212890625 149.17074584960938 " />
        <polyline stroke="black" stroke-width="3" stroke-linecap="round" fill="transparent" stroke-linejoin="round" points="154.69354248046875 73.03756713867188 172.22723388671875 79.49736022949219 183.7625732421875 84.11148071289063 197.14349365234375 89.64846801757813 206.83319091796875 91.95550537109376 211.90875244140625 93.33976745605467 212.3702392578125 93.8011474609375 212.3702392578125 94.72398376464844 212.3702392578125 94.72398376464844 " />
        <polyline stroke="black" stroke-width="3" stroke-linecap="round" fill="transparent" stroke-linejoin="round" points="94.24838256835938 140.8653106689453 92.8641357421875 161.62892150878906 89.63427734375 182.3925018310547 86.40438842773438 203.15609741210935 80.406005859375 222.99688720703125 74.8690185546875 239.14633178710935 74.8690185546875 239.14633178710935 " />
        <polyline stroke="black" stroke-width="3" stroke-linecap="round" fill="transparent" stroke-linejoin="round" points="106.70657348632813 120.56312561035156 112.70492553710938 118.2560577392578 119.16470336914063 117.33322143554688 131.62286376953125 116.87181091308594 145.46527099609375 118.2560577392578 151.463623046875 118.7174835205078 155.61639404296875 119.17889404296876 160.23046875 120.56312561035156 163.46038818359375 123.7930145263672 167.61309814453125 134.86695861816406 169.458740234375 151.01641845703125 172.22723388671875 171.318603515625 175.4571533203125 193.0050048828125 179.14837646484375 208.69305419921875 182.3782958984375 217.45989990234375 186.992431640625 220.68978881835935 192.0679931640625 222.53549194335935 195.2978515625 222.99688720703125 197.14349365234375 222.99688720703125 197.60491943359375 222.99688720703125 196.220703125 221.61264038085935 193.4522705078125 215.61428833007813 193.4522705078125 215.61428833007813 " />
        <polyline stroke="black" stroke-width="3" stroke-linecap="round" fill="transparent" stroke-linejoin="round" points="130.70001220703125 104.87507629394533 131.16143798828125 125.63868713378906 132.08428955078125 150.09356689453125 132.08428955078125 174.54849243164063 132.08428955078125 197.619140625 131.16143798828125 215.15283203125 129.3157958984375 229.4566650390625 127.9315185546875 240.06915283203125 127.9315185546875 240.06915283203125 " />
        <polyline stroke="black" stroke-width="3" stroke-linecap="round" fill="transparent" stroke-linejoin="round" points="116.396240234375 157.9376220703125 128.39297485351563 157.47621154785156 139.92828369140625 157.9376220703125 149.15655517578125 159.32183837890625 156.5391845703125 160.7061004638672 160.23046875 162.09030151367188 161.61474609375 165.78163146972656 161.61474609375 165.78163146972656 " />
        <polyline stroke="black" stroke-width="3" stroke-linecap="round" fill="transparent" stroke-linejoin="round" points="127.47012329101563 191.62075805664065 130.23861694335938 191.62075805664065 133.929931640625 191.62075805664065 147.3109130859375 193.4664306640625 157.4620361328125 193.4664306640625 165.7674560546875 193.0050048828125 172.22723388671875 196.69631958007813 172.22723388671875 196.69631958007813 " />
        </svg>