<?xml version="1.0" standalone="no"?>
    <svg width="256" height="256" xmlns="http://www.w3.org/2000/svg" version="1.1">
    <polyline stroke="black" stroke-width="3" stroke-linecap="round" fill="transparent" stroke-linejoin="round" points="101.6409912109375 52.69898986816406 95.56982421875 63.82337951660156 88.89794921875 77.02571105957031 74.5562744140625 106.17953491210938 67.03350830078125 120.1887664794922 54.772308349609375 138.43994140625 49.81878662109375 143.8005828857422 42.515228271484375 151.10443115234375 41.25494384765625 151.2146453857422 41.1512451171875 151.22369384765625 " />
        <polyline stroke="black" stroke-width="3" stroke-linecap="round" fill="transparent" stroke-linejoin="round" points="126.42379760742188 81.86524963378906 136.77197265625 88.72152709960938 160.665771484375 104.72003173828124 175.2952880859375 117.97203063964844 189.81976318359375 125.93533325195313 205.57666015625 131.87066650390625 206.04937744140625 131.50079345703125 198.570068359375 133.58238220214844 194.99554443359375 133.81993103027344 " />
        <polyline stroke="black" stroke-width="3" stroke-linecap="round" fill="transparent" stroke-linejoin="round" points="78.5989990234375 160.589599609375 77.56634521484375 169.89349365234375 74.51239013671875 185.50006103515625 69.78216552734375 194.94338989257813 69.5550537109375 194.32354736328125 " />
        <polyline stroke="black" stroke-width="3" stroke-linecap="round" fill="transparent" stroke-linejoin="round" points="90.82785034179688 124.1396942138672 97.55368041992188 121.54928588867188 104.81893920898438 118.94351196289063 117.363037109375 114.86619567871094 123.75814819335938 112.96038818359376 131.2728271484375 111.52316284179688 133.23532104492188 111.54290771484376 135.99359130859375 111.76499938964844 137.65264892578125 112.50804138183594 138.332275390625 113.60069274902344 143.31332397460938 128.3507080078125 146.0152587890625 142.14439392089844 149.10546875 170.52764892578125 149.60812377929688 181.0876922607422 150.07687377929688 191.96078491210935 150.40219116210938 192.74185180664065 155.3714599609375 198.6678466796875 161.5218505859375 204.26986694335935 163.8907470703125 206.1873779296875 167.35693359375 208.45440673828125 169.551513671875 209.12017822265625 172.08050537109375 208.20098876953125 172.88775634765625 206.94503784179688 174.12274169921875 201.78347778320313 174.16815185546875 200.2508544921875 " />
        <polyline stroke="black" stroke-width="3" stroke-linecap="round" fill="transparent" stroke-linejoin="round" points="107.9002685546875 142.66726684570313 113.283203125 141.67279052734375 123.72784423828124 140.19406127929688 125.66351318359376 140.08920288085938 125.82345581054688 140.12020874023438 125.89144897460938 140.13340759277344 " />
        <polyline stroke="black" stroke-width="3" stroke-linecap="round" fill="transparent" stroke-linejoin="round" points="111.24261474609376 163.096435546875 125.01995849609376 160.5552215576172 131.548583984375 160.09933471679688 138.03851318359375 159.6853485107422 138.61459350585938 159.86062622070313 139.01446533203125 159.43980407714844 139.1484375 159.29873657226563 " />
        <polyline stroke="black" stroke-width="3" stroke-linecap="round" fill="transparent" stroke-linejoin="round" points="111.6219482421875 122.12864685058594 114.25973510742188 163.14456176757813 114.43170166015624 177.48065185546875 113.90374755859376 207.45797729492188 113.68768310546876 221.47808837890625 110.70599365234376 246.4315185546875 110.26693725585938 244.9439697265625 " />
        </svg>