<?xml version="1.0" standalone="no"?>
    <svg width="256" height="256" xmlns="http://www.w3.org/2000/svg" version="1.1">
    <polyline stroke="black" stroke-width="3" stroke-linecap="round" fill="transparent" stroke-linejoin="round" points="116.87115478515624 51.598052978515625 111.20175170898438 62.9832763671875 103.55657958984376 77.39266967773438 84.747314453125 108.3731689453125 75.138916015625 123.40457153320313 65.03509521484375 138.6763153076172 51.398773193359375 157.81607055664063 43.59991455078125 164.0378875732422 42.359619140625 164.71945190429688 42.2486572265625 164.7803955078125 " />
        <polyline stroke="black" stroke-width="3" stroke-linecap="round" fill="transparent" stroke-linejoin="round" points="129.9052734375 71.60877990722656 146.81100463867188 85.30096435546875 157.72747802734375 92.91397094726563 182.08209228515625 109.8777313232422 191.63134765625 116.80307006835938 204.31304931640625 125.8651123046875 206.7266845703125 128.33010864257813 208.4742431640625 132.15562438964844 209.966796875 137.0667724609375 210.01947021484375 137.22288513183594 " />
        <polyline stroke="black" stroke-width="3" stroke-linecap="round" fill="transparent" stroke-linejoin="round" points="84.82223510742188 171.3507537841797 83.305908203125 183.7349548339844 79.69161987304688 206.27099609375 77.44964599609375 212.94903564453125 74.2586669921875 219.2953186035156 74.15609741210938 219.39678955078125 " />
        <polyline stroke="black" stroke-width="3" stroke-linecap="round" fill="transparent" stroke-linejoin="round" points="113.94720458984376 132.52694702148438 132.55258178710938 127.888427734375 140.743896484375 126.31484985351563 147.45220947265625 125.11637878417967 158.4482421875 124.10838317871094 161.5667724609375 124.02035522460938 163.20269775390625 123.89031982421876 163.2579345703125 123.88592529296876 163.595703125 130.22666931152344 163.1815185546875 141.33074951171875 162.0982666015625 150.96469116210938 161.23846435546875 171.14303588867188 162.68408203125 188.5079345703125 165.041748046875 196.4267578125 171.27703857421875 206.78390502929688 175.01116943359375 210.923583984375 182.43804931640625 214.20611572265625 186.8431396484375 215.61004638671875 192.95123291015625 216.04080200195313 194.487060546875 215.4857482910156 195.83349609375 210.0386962890625 197.58660888671875 192.44976806640625 197.45751953125 189.15475463867188 " />
        <polyline stroke="black" stroke-width="3" stroke-linecap="round" fill="transparent" stroke-linejoin="round" points="116.57354736328124 107.6749267578125 115.53582763671876 142.96646118164063 114.91961669921876 162.32456970214844 113.19479370117188 196.38031005859375 112.7734375 208.6239013671875 113.06182861328124 225.65106201171875 112.83270263671876 237.92181396484375 112.2083740234375 243.61117553710935 112.14593505859376 244.18011474609375 " />
        <polyline stroke="black" stroke-width="3" stroke-linecap="round" fill="transparent" stroke-linejoin="round" points="113.92465209960938 169.43295288085938 134.01657104492188 164.57452392578125 143.01141357421875 162.8265838623047 155.1834716796875 162.84210205078125 158.08465576171875 163.85977172851563 158.312255859375 163.9396209716797 158.359375 163.9561004638672 " />
        <polyline stroke="black" stroke-width="3" stroke-linecap="round" fill="transparent" stroke-linejoin="round" points="115.33935546875 187.46893310546875 121.4896240234375 186.3558654785156 132.71441650390625 185.28536987304688 138.41610717773438 184.8184509277344 143.13241577148438 184.14117431640625 143.47653198242188 183.7951507568359 143.5938720703125 183.67718505859375 " />
        </svg>