<?xml version="1.0" standalone="no"?>
    <svg width="256" height="256" xmlns="http://www.w3.org/2000/svg" version="1.1">
    <polyline stroke="black" stroke-width="3" stroke-linecap="round" fill="transparent" stroke-linejoin="round" points="67.39581298828125 76.087890625 68.72998046875 85.4267578125 70.06414794921875 94.765625 71.39825439453125 103.1038818359375 71.73178100585938 106.77273559570313 71.73178100585938 106.77273559570313 " />
        <polyline stroke="black" stroke-width="3" stroke-linecap="round" fill="transparent" stroke-linejoin="round" points="79.4029541015625 92.09738159179688 93.0777587890625 86.09381103515625 106.7525634765625 80.09024047851563 115.42437744140624 77.08847045898438 134.10214233398438 72.41903686523438 153.1134033203125 69.41725158691406 168.78936767578125 69.08370971679688 179.12884521484375 71.08489990234375 186.13299560546875 74.086669921875 188.46771240234375 76.08786010742188 192.80364990234375 84.42616271972656 192.80364990234375 89.0955810546875 180.7965087890625 111.108642578125 172.12469482421875 119.78045654296876 172.12469482421875 119.78045654296876 " />
        <polyline stroke="black" stroke-width="3" stroke-linecap="round" fill="transparent" stroke-linejoin="round" points="67.7293701171875 136.79054260253906 72.73236083984375 135.12289428710938 77.7353515625 133.4552459716797 82.73828125 132.12112426757813 87.74130249023438 130.45346069335938 96.4130859375 127.7852020263672 102.75018310546876 125.4504852294922 106.41903686523438 123.44931030273438 106.41903686523438 123.44931030273438 " />
        <polyline stroke="black" stroke-width="3" stroke-linecap="round" fill="transparent" stroke-linejoin="round" points="82.07122802734375 123.11578369140625 78.73593139648438 136.79055786132813 75.400634765625 150.46533203125 72.39886474609375 161.80538940429688 70.06414794921875 171.14427185058594 66.395263671875 184.1519775390625 64.39410400390625 192.15673828125 64.39410400390625 192.15673828125 " />
        <polyline stroke="black" stroke-width="3" stroke-linecap="round" fill="transparent" stroke-linejoin="round" points="52.720458984375 203.16326904296875 59.057586669921875 199.160888671875 65.39471435546875 195.15850830078125 71.73178100585938 191.1561279296875 85.072998046875 182.1508026123047 91.07659912109376 177.48135375976563 102.75018310546876 166.47482299804688 102.75018310546876 166.47482299804688 " />
        <polyline stroke="black" stroke-width="3" stroke-linecap="round" fill="transparent" stroke-linejoin="round" points="140.439208984375 118.11280822753909 145.108642578125 117.44573974609376 149.778076171875 116.77867126464844 157.4493408203125 115.778076171875 162.4522705078125 115.44454956054688 165.45404052734375 115.44454956054688 165.45404052734375 115.44454956054688 " />
        <polyline stroke="black" stroke-width="3" stroke-linecap="round" fill="transparent" stroke-linejoin="round" points="126.09735107421875 166.80838012695313 132.76800537109375 165.14071655273438 139.43865966796875 163.47305297851563 156.44873046875 158.80361938476563 165.78759765625 154.80123901367188 165.78759765625 154.80123901367188 " />
        <polyline stroke="black" stroke-width="3" stroke-linecap="round" fill="transparent" stroke-linejoin="round" points="153.780517578125 98.10092163085938 152.7799072265625 108.44039916992188 151.779296875 118.77987670898438 151.11224365234375 130.45346069335938 150.77865600585938 141.79351806640625 151.11224365234375 161.47186279296875 151.779296875 176.14724731445313 151.779296875 191.48968505859375 151.779296875 191.48968505859375 " />
        </svg>