<?xml version="1.0" standalone="no"?>
    <svg width="256" height="256" xmlns="http://www.w3.org/2000/svg" version="1.1">
    <polyline stroke="black" stroke-width="3" stroke-linecap="round" fill="transparent" stroke-linejoin="round" points="46.883819580078125 97.7929382324219 49.060791015625 104.9912567138672 51.237762451171875 112.1895751953125 51.67144775390625 114.10153198242188 51.78729248046875 115.50187683105467 51.79541015625 115.822509765625 51.79931640625 115.97393798828124 " />
        <polyline stroke="black" stroke-width="3" stroke-linecap="round" fill="transparent" stroke-linejoin="round" points="60.27569580078125 79.67559814453125 69.29415893554688 77.09297180175781 78.3126220703125 74.51034545898438 99.98568725585938 68.85456848144531 132.47479248046875 63.464111328125 140.882568359375 62.1231689453125 172.8604736328125 59.35066223144531 176.5025634765625 59.57575988769531 185.4932861328125 60.97503662109375 189.5772705078125 62.16053771972656 195.56976318359375 65.04615783691406 197.1776123046875 66.3458251953125 197.411376953125 67.39604187011719 197.3795166015625 68.53904724121094 197.42486572265625 73.57807922363281 194.4495849609375 82.9310302734375 191.6427001953125 87.74998474121094 183.2962646484375 99.38827514648438 178.04986572265625 107.67814636230467 177.515625 108.2030029296875 " />
        <polyline stroke="black" stroke-width="3" stroke-linecap="round" fill="transparent" stroke-linejoin="round" points="36.74835205078125 156.3627471923828 49.765228271484375 153.111572265625 62.7821044921875 149.8603973388672 75.41033935546875 147.02745056152344 81.34979248046875 145.99365234375 84.85687255859375 145.3004608154297 88.82574462890625 144.31430053710938 90.108642578125 143.4034881591797 90.60043334960938 143.1453094482422 90.76971435546876 142.4230194091797 90.74169921875 142.16726684570313 " />
        <polyline stroke="black" stroke-width="3" stroke-linecap="round" fill="transparent" stroke-linejoin="round" points="67.33401489257813 114.62429809570313 69.56304931640625 123.807861328125 71.79208374023438 132.99142456054688 73.2886962890625 142.51451110839844 73.64208984375 152.42446899414063 71.07635498046875 168.5477752685547 68.77011108398438 174.1907958984375 60.67010498046875 187.05416870117188 54.450286865234375 194.54046630859375 53.82830810546875 195.2890625 " />
        <polyline stroke="black" stroke-width="3" stroke-linecap="round" fill="transparent" stroke-linejoin="round" points="51.8887939453125 202.2910766601563 58.70379638671875 199.1631774902344 65.518798828125 196.0352783203125 83.22518920898438 189.96826171875 96.697265625 186.61129760742188 101.93280029296876 185.2908935546875 105.823974609375 184.055419921875 105.9833984375 183.33526611328125 105.9935302734375 183.28955078125 " />
        <polyline stroke="black" stroke-width="3" stroke-linecap="round" fill="transparent" stroke-linejoin="round" points="109.28216552734376 120.35885620117188 115.40179443359376 118.86007690429688 121.52142333984376 117.36129760742188 127.83837890625 115.79637145996094 135.13656616210938 114.22134399414063 157.5853271484375 111.61334228515624 164.4462890625 110.98602294921876 168.46661376953125 110.75798034667967 168.505859375 110.75576782226563 168.5064697265625 110.75572204589844 " />
        <polyline stroke="black" stroke-width="3" stroke-linecap="round" fill="transparent" stroke-linejoin="round" points="107.5362548828125 159.89947509765625 114.744140625 157.1118621826172 121.9520263671875 154.32424926757813 136.89111328125 149.81573486328125 158.949462890625 146.1995086669922 166.0042724609375 145.7926483154297 170.02093505859375 145.2066650390625 170.07855224609375 145.17977905273438 170.08258056640625 145.17791748046875 170.08367919921875 145.17739868164063 " />
        <polyline stroke="black" stroke-width="3" stroke-linecap="round" fill="transparent" stroke-linejoin="round" points="129.94705200195313 102.00018310546875 131.57147216796875 119.331298828125 133.19589233398438 136.66241455078125 134.5465087890625 170.58120727539063 135.14022827148438 185.626953125 135.93212890625 206.739501953125 136.2376708984375 214.76071166992188 137.14263916015625 225.7474365234375 137.36669921875 228.59869384765625 137.46188354492188 237.6368103027344 137.48260498046875 238.23239135742188 " />
        </svg>