<?xml version="1.0" standalone="no"?>
    <svg width="256" height="256" xmlns="http://www.w3.org/2000/svg" version="1.1">
    <polyline stroke="black" stroke-width="3" stroke-linecap="round" fill="transparent" stroke-linejoin="round" points="58 63 59 68 59 78 59 92 59 107 58 120 58 129 58 134 58 134 " />
        <polyline stroke="black" stroke-width="3" stroke-linecap="round" fill="transparent" stroke-linejoin="round" points="59 74 65 75 73 75 86 71 103 63 131 55 170 42 195 37 208 37 210 37 208 50 194 69 180 88 171 100 164 107 164 107 " />
        <polyline stroke="black" stroke-width="3" stroke-linecap="round" fill="transparent" stroke-linejoin="round" points="52 159 58 157 65 157 74 156 85 154 99 151 108 148 112 146 116 145 116 141 116 141 " />
        <polyline stroke="black" stroke-width="3" stroke-linecap="round" fill="transparent" stroke-linejoin="round" points="88 112 89 123 89 132 89 146 88 159 87 170 87 176 84 187 84 187 " />
        <polyline stroke="black" stroke-width="3" stroke-linecap="round" fill="transparent" stroke-linejoin="round" points="55 215 64 210 75 203 95 190 109 181 117 177 121 175 124 175 125 174 125 174 " />
        <polyline stroke="black" stroke-width="3" stroke-linecap="round" fill="transparent" stroke-linejoin="round" points="139 121 146 123 152 123 160 123 174 122 188 119 197 118 201 118 204 118 204 118 " />
        <polyline stroke="black" stroke-width="3" stroke-linecap="round" fill="transparent" stroke-linejoin="round" points="130 181 135 180 149 178 167 174 185 170 198 169 208 168 214 168 218 168 218 168 " />
        <polyline stroke="black" stroke-width="3" stroke-linecap="round" fill="transparent" stroke-linejoin="round" points="178 97 172 101 172 111 172 129 172 158 170 199 168 229 168 251 168 267 168 267 " />
        </svg>