<?xml version="1.0" standalone="no"?>
    <svg width="256" height="256" xmlns="http://www.w3.org/2000/svg" version="1.1">
    <polyline stroke="black" stroke-width="3" stroke-linecap="round" fill="transparent" stroke-linejoin="round" points="118.42596435546876 55.742462158203125 91.07638549804688 87.76145935058594 70.06393432617188 117.11221313476563 58.723876953125 135.12289428710938 53.72088623046875 142.4605712890625 51.719696044921875 144.46177673339844 51.719696044921875 144.46177673339844 " />
        <polyline stroke="black" stroke-width="3" stroke-linecap="round" fill="transparent" stroke-linejoin="round" points="150.4449462890625 65.74839782714844 161.4515380859375 69.75077819824219 183.798095703125 78.75611877441406 193.470458984375 82.75848388671875 209.47998046875 89.42912292480469 215.1500244140625 91.76382446289063 221.8206787109375 94.43209838867188 223.48828125 95.09915161132813 223.48828125 95.09915161132813 " />
        <polyline stroke="black" stroke-width="3" stroke-linecap="round" fill="transparent" stroke-linejoin="round" points="98.08053588867188 121.78164672851563 92.4105224609375 132.12112426757813 86.740478515625 141.79351806640625 76.4010009765625 163.47305297851563 73.39926147460938 169.81015014648438 72.39865112304688 171.8113250732422 72.39865112304688 171.8113250732422 " />
        <polyline stroke="black" stroke-width="3" stroke-linecap="round" fill="transparent" stroke-linejoin="round" points="112.0888671875 136.12347412109375 119.76010131835938 133.78875732421875 137.43722534179688 128.78579711914063 154.11376953125 126.1175537109375 161.7850341796875 125.78402709960938 174.792724609375 127.11814880371094 184.131591796875 131.12051391601563 190.80224609375 144.7952880859375 189.8016357421875 176.81430053710938 181.796875 202.16265869140625 173.1251220703125 214.1697998046875 163.7862548828125 220.50689697265625 153.11322021484375 223.17514038085935 153.11322021484375 223.17514038085935 " />
        <polyline stroke="black" stroke-width="3" stroke-linecap="round" fill="transparent" stroke-linejoin="round" points="97.0799560546875 170.47720336914063 91.07638549804688 182.81785583496097 88.40814208984375 189.822021484375 88.07464599609375 192.49026489257813 88.40814208984375 192.49026489257813 88.40814208984375 192.49026489257813 " />
        <polyline stroke="black" stroke-width="3" stroke-linecap="round" fill="transparent" stroke-linejoin="round" points="139.43841552734375 158.47007751464844 135.43603515625 170.47720336914063 128.431884765625 189.822021484375 120.4271240234375 211.8350830078125 120.4271240234375 211.8350830078125 " />
        </svg>