<?xml version="1.0" standalone="no"?>
    <svg width="256" height="256" xmlns="http://www.w3.org/2000/svg" version="1.1">
    <polyline stroke="black" stroke-width="3" stroke-linecap="round" fill="transparent" stroke-linejoin="round" points="112.58139038085938 35.951629638671875 105.74847412109376 45.77394104003906 85.67684936523438 76.094970703125 76.7086181640625 91.04196166992188 63.042816162109375 114.95713806152344 53.647552490234375 132.03941345214844 49.37701416015625 141.43467712402344 49.37701416015625 141.43467712402344 " />
        <polyline stroke="black" stroke-width="3" stroke-linecap="round" fill="transparent" stroke-linejoin="round" points="121.97665405273438 43.21160125732422 135.6424560546875 50.89862060546875 144.61065673828125 56.877410888671875 154.4329833984375 63.7103271484375 186.46221923828125 86.34432983398438 204.39862060546875 99.58309936523438 215.92913818359375 108.55130004882813 221.0538330078125 113.24893188476563 221.907958984375 114.95713806152344 221.907958984375 114.95713806152344 " />
        <polyline stroke="black" stroke-width="3" stroke-linecap="round" fill="transparent" stroke-linejoin="round" points="101.47796630859376 130.75823974609375 98.91561889648438 137.16409301757813 94.21795654296876 149.54873657226563 89.09326171875 164.06866455078125 87.38507080078125 168.7662811279297 86.9580078125 169.6204071044922 86.9580078125 169.19334411621094 86.9580078125 168.7662811279297 88.66622924804688 166.63101196289063 94.21795654296876 161.0792694091797 113.00848388671876 147.8404998779297 127.95541381835938 139.29937744140625 143.3294677734375 132.89352416992188 150.58944702148438 130.3311767578125 163.8282470703125 128.19589233398438 177.4940185546875 129.90414428710938 183.0457763671875 133.74765014648438 188.17041015625 141.86172485351563 192.4410400390625 153.81930541992188 193.72216796875 160.65220642089844 191.15985107421875 179.44271850585938 185.60809326171875 190.9732360839844 178.34814453125 199.08734130859375 166.817626953125 206.3472900390625 166.817626953125 206.3472900390625 " />
        <polyline stroke="black" stroke-width="3" stroke-linecap="round" fill="transparent" stroke-linejoin="round" points="133.08013916015625 159.37103271484375 132.22601318359375 166.20394897460938 130.94482421875 173.03684997558594 125.82015991210938 191.4002990722656 121.549560546875 202.07672119140625 120.69549560546876 203.78494262695313 120.69549560546876 203.78494262695313 " />
        <polyline stroke="black" stroke-width="3" stroke-linecap="round" fill="transparent" stroke-linejoin="round" points="153.15179443359375 165.34983825683594 148.45419311523438 179.01565551757813 140.76715087890625 199.94143676757813 140.76715087890625 199.94143676757813 " />
        </svg>