<?xml version="1.0" standalone="no"?>
    <svg width="256" height="256" xmlns="http://www.w3.org/2000/svg" version="1.1">
    <polyline stroke="black" stroke-width="3" stroke-linecap="round" fill="transparent" stroke-linejoin="round" points="106.60003662109376 72.80000305175781 91.666748046875 105.86669921875 74.60003662109375 135.73338317871094 56.466796875 161.33334350585938 43.66668701171875 177.33334350585938 38.3333740234375 180.53335571289065 35.1334228515625 176.26669311523438 35.1334228515625 176.26669311523438 " />
        <polyline stroke="black" stroke-width="3" stroke-linecap="round" fill="transparent" stroke-linejoin="round" points="150.3333740234375 63.20002746582031 177 81.33334350585938 203.666748046875 94.1333465576172 216.4666748046875 101.60000610351563 220.7333984375 105.86669921875 220.7333984375 105.86669921875 " />
        <polyline stroke="black" stroke-width="3" stroke-linecap="round" fill="transparent" stroke-linejoin="round" points="88.466796875 133.6000213623047 84.2000732421875 152.80001831054688 82.06671142578125 164.53334045410156 82.06671142578125 170.93336486816406 82.06671142578125 170.93336486816406 " />
        <polyline stroke="black" stroke-width="3" stroke-linecap="round" fill="transparent" stroke-linejoin="round" points="141.8001708984375 118.66667175292967 155.666748046875 117.60000610351563 174.86669921875 115.4666748046875 184.466796875 115.4666748046875 187.666748046875 115.4666748046875 189.8001708984375 116.53335571289063 190.86669921875 119.73338317871094 188.7333984375 135.73338317871094 184.466796875 156.00001525878906 178.0667724609375 177.33334350585938 169.533447265625 193.33334350585935 163.1334228515625 201.86666870117188 155.666748046875 205.06671142578125 143.933349609375 189.06671142578125 143.933349609375 189.06671142578125 " />
        <polyline stroke="black" stroke-width="3" stroke-linecap="round" fill="transparent" stroke-linejoin="round" points="109.80010986328124 161.33334350585938 102.3333740234375 175.20001220703125 95.93341064453124 183.73336791992188 92.7333984375 185.86666870117188 92.7333984375 185.86666870117188 " />
        <polyline stroke="black" stroke-width="3" stroke-linecap="round" fill="transparent" stroke-linejoin="round" points="151.4000244140625 157.06671142578125 140.7333984375 176.26669311523438 127.93341064453124 196.53335571289065 120.466796875 207.20001220703125 120.466796875 207.20001220703125 " />
        </svg>