<?xml version="1.0" standalone="no"?>
    <svg width="256" height="256" xmlns="http://www.w3.org/2000/svg" version="1.1">
    <polyline stroke="black" stroke-width="3" stroke-linecap="round" fill="transparent" stroke-linejoin="round" points="81.02899169921875 107.880615234375 93.510986328125 103.71994018554688 110.748046875 98.37051391601563 134.52328491210938 91.8323211669922 154.13787841796875 86.48289489746094 172.56365966796875 80.53907775878906 185.64007568359375 75.78404235839844 194.5557861328125 71.62336730957031 199.310791015625 67.46270751953125 199.310791015625 62.70765686035156 199.310791015625 62.70765686035156 " />
        <polyline stroke="black" stroke-width="3" stroke-linecap="round" fill="transparent" stroke-linejoin="round" points="111.93679809570313 53.19755554199219 111.3424072265625 65.67955017089844 110.15365600585938 78.16156005859375 110.15365600585938 91.8323211669922 110.748046875 103.71994018554688 111.93679809570313 114.41880798339844 114.3143310546875 120.95700073242188 117.880615234375 126.90080261230467 123.23004150390624 130.46710205078125 130.36260986328125 131.65585327148438 138.6839599609375 129.87271118164063 148.19403076171875 123.9289093017578 155.9210205078125 114.41880798339844 165.43109130859375 100.15365600585938 165.43109130859375 100.15365600585938 " />
        <polyline stroke="black" stroke-width="3" stroke-linecap="round" fill="transparent" stroke-linejoin="round" points="153.54345703125 57.952606201171875 154.13787841796875 68.05708312988281 155.32666015625 79.9447021484375 156.515380859375 92.4267120361328 157.1097412109375 106.09747314453124 155.9210205078125 119.76823425292967 155.9210205078125 119.76823425292967 " />
        <polyline stroke="black" stroke-width="3" stroke-linecap="round" fill="transparent" stroke-linejoin="round" points="113.71994018554688 167.91310119628906 123.23004150390624 164.94119262695313 133.92889404296875 162.5636749267578 144.03338623046875 161.37490844726563 153.54345703125 160.78053283691406 160.0816650390625 160.78053283691406 163.64794921875 161.96929931640625 163.64794921875 161.96929931640625 " />
        <polyline stroke="black" stroke-width="3" stroke-linecap="round" fill="transparent" stroke-linejoin="round" points="94.69976806640624 213.0860595703125 106.58737182617188 207.14224243164065 122.041259765625 201.19845581054688 139.2783203125 197.03778076171875 163.64794921875 192.87710571289065 180.885009765625 191.09396362304688 193.96142578125 189.90521240234375 201.093994140625 189.90521240234375 205.254638671875 189.90521240234375 205.254638671875 189.90521240234375 " />
        </svg>