<?xml version="1.0" standalone="no"?>
    <svg width="256" height="256" xmlns="http://www.w3.org/2000/svg" version="1.1">
    <polyline stroke="black" stroke-width="3" stroke-linecap="round" fill="transparent" stroke-linejoin="round" points="92.70297241210938 80.39492797851563 112.48309326171876 74.51434326171875 134.93618774414063 67.5645751953125 155.25091552734375 61.1494140625 170.75421142578125 55.803436279296875 181.4461669921875 52.595848083496094 186.257568359375 50.99205017089844 186.257568359375 50.99205017089844 " />
        <polyline stroke="black" stroke-width="3" stroke-linecap="round" fill="transparent" stroke-linejoin="round" points="100.18731689453124 67.5645751953125 96.44515991210938 79.32572937011719 94.3067626953125 91.08688354492188 93.77215576171876 100.70964050292967 94.3067626953125 108.19400024414063 96.44515991210938 113.00538635253906 100.721923828125 116.21296691894533 107.1370849609375 117.81675720214844 115.15606689453124 117.28216552734376 125.31341552734376 114.07456970214844 134.93618774414063 107.1248016357422 147.23193359375 92.690673828125 147.23193359375 92.690673828125 " />
        <polyline stroke="black" stroke-width="3" stroke-linecap="round" fill="transparent" stroke-linejoin="round" points="149.37030029296875 43.5076904296875 146.69732666015625 56.33802795410156 144.5589599609375 74.51434326171875 141.88595581054688 95.89825439453124 138.14376831054688 119.95515441894533 138.14376831054688 119.95515441894533 " />
        <polyline stroke="black" stroke-width="3" stroke-linecap="round" fill="transparent" stroke-linejoin="round" points="96.979736328125 153.63479614257813 107.67169189453124 153.10020446777344 120.50204467773438 152.031005859375 132.26318359375 151.4964141845703 142.4205322265625 150.96180725097656 147.23193359375 150.96180725097656 147.23193359375 150.96180725097656 " />
        <polyline stroke="black" stroke-width="3" stroke-linecap="round" fill="transparent" stroke-linejoin="round" points="56.884918212890625 208.16375732421875 77.7342529296875 207.09457397460935 101.25653076171876 206.02536010742188 126.917236328125 205.49078369140625 150.97412109375 204.42156982421875 169.68505859375 203.886962890625 184.65374755859375 204.42156982421875 193.20733642578125 205.49078369140625 197.484130859375 209.76754760742188 197.484130859375 209.76754760742188 " />
        </svg>