<?xml version="1.0" standalone="no"?>
    <svg width="256" height="256" xmlns="http://www.w3.org/2000/svg" version="1.1">
    <polyline stroke="black" stroke-width="3" stroke-linecap="round" fill="transparent" stroke-linejoin="round" points="73.0008544921875 78.49679565429688 104.560791015625 71.15728759765625 135.38671875 65.28567504882813 159.607177734375 61.61590576171875 172.0843505859375 59.4140625 175.7540283203125 57.94615173339844 172.8182373046875 56.47825622558594 172.8182373046875 56.47825622558594 " />
        <polyline stroke="black" stroke-width="3" stroke-linecap="round" fill="transparent" stroke-linejoin="round" points="83.27618408203125 71.89125061035156 83.27618408203125 90.97398376464844 84.01007080078125 107.12091064453124 85.47796630859375 124.00180053710938 86.21197509765625 128.40553283691406 87.67987060546875 126.93760681152344 87.67987060546875 126.93760681152344 " />
        <polyline stroke="black" stroke-width="3" stroke-linecap="round" fill="transparent" stroke-linejoin="round" points="128.7811279296875 60.88197326660156 129.51513671875 78.49679565429688 130.9830322265625 94.64372253417967 132.450927734375 112.99252319335938 130.9830322265625 122.5338897705078 130.9830322265625 122.5338897705078 " />
        <polyline stroke="black" stroke-width="3" stroke-linecap="round" fill="transparent" stroke-linejoin="round" points="111.16632080078124 112.99252319335938 123.64349365234376 111.5246124267578 136.8546142578125 111.5246124267578 139.056396484375 112.99252319335938 139.7904052734375 115.92832946777344 139.7904052734375 115.92832946777344 " />
        <polyline stroke="black" stroke-width="3" stroke-linecap="round" fill="transparent" stroke-linejoin="round" points="114.8360595703125 155.5617218017578 128.7811279296875 155.5617218017578 128.7811279296875 155.5617218017578 " />
        <polyline stroke="black" stroke-width="3" stroke-linecap="round" fill="transparent" stroke-linejoin="round" points="70.7989501953125 198.8648681640625 86.94586181640625 195.19509887695313 144.194091796875 188.58953857421875 183.093505859375 188.58953857421875 215.387451171875 191.52532958984375 238.8739013671875 195.19509887695313 257.22265625 198.8648681640625 257.22265625 198.8648681640625 " />
        </svg>