<?xml version="1.0" standalone="no"?>
    <svg width="256" height="256" xmlns="http://www.w3.org/2000/svg" version="1.1">
    <polyline stroke="black" stroke-width="3" stroke-linecap="round" fill="transparent" stroke-linejoin="round" points="85.86785888671875 100.33961486816406 136.5848388671875 80.41508483886719 147.4527587890625 76.79244995117188 172.81134033203125 67.73583984375 181.86785888671875 64.11322021484375 182.77362060546875 64.11322021484375 177.33966064453125 66.8302001953125 171.90570068359375 68.64151000976563 171.90570068359375 68.64151000976563 " />
        <polyline stroke="black" stroke-width="3" stroke-linecap="round" fill="transparent" stroke-linejoin="round" points="105.79248046875 85.84906005859375 108.50946044921876 122.98112487792967 108.50946044921876 130.2263946533203 107.603759765625 142 104.88677978515624 148.33961486816406 103.07550048828124 147.4339599609375 103.07550048828124 141.09432983398438 103.98114013671876 130.2263946533203 104.88677978515624 122.98112487792967 104.88677978515624 122.98112487792967 " />
        <polyline stroke="black" stroke-width="3" stroke-linecap="round" fill="transparent" stroke-linejoin="round" points="149.26416015625 60.490570068359375 150.1697998046875 87.66035461425781 147.4527587890625 96.71697998046876 141.11322021484375 112.11322021484376 132.9622802734375 126.60379028320313 125.7169189453125 137.47171020507813 118.47174072265624 147.4339599609375 119.37738037109376 148.33961486816406 124.81134033203124 143.81134033203125 138.396240234375 133.84906005859375 146.54718017578125 127.50942993164063 151.07550048828125 122.98112487792967 151.07550048828125 122.07546997070313 150.1697998046875 122.98112487792967 150.1697998046875 122.98112487792967 " />
        <polyline stroke="black" stroke-width="3" stroke-linecap="round" fill="transparent" stroke-linejoin="round" points="114.84906005859376 169.16983032226563 142.924560546875 156.49057006835938 148.3585205078125 155.5848846435547 146.54718017578125 157.396240234375 138.396240234375 164.64149475097656 131.15087890625 169.16983032226563 131.15087890625 169.16983032226563 " />
        <polyline stroke="black" stroke-width="3" stroke-linecap="round" fill="transparent" stroke-linejoin="round" points="95.8302001953125 214.45285034179688 165.56597900390625 198.15093994140625 220.81134033203125 197.24530029296875 228.056640625 199.05661010742188 238.01885986328125 203.58489990234375 238.924560546875 208.11322021484375 238.924560546875 208.11322021484375 " />
        </svg>