<?xml version="1.0" standalone="no"?>
    <svg width="256" height="256" xmlns="http://www.w3.org/2000/svg" version="1.1">
    <polyline stroke="black" stroke-width="3" stroke-linecap="round" fill="transparent" stroke-linejoin="round" points="86.768310546875 97.60856628417967 93.83538818359376 94.51675415039063 110.17782592773438 88.33309936523438 119.89498901367188 85.24127197265625 129.17047119140625 82.59115600585938 148.1630859375 78.17425537109375 166.2723388671875 74.19905090332031 180.4063720703125 71.99061584472656 189.681884765625 70.22384643554688 194.0987548828125 69.34048461914063 194.98211669921875 68.89878845214844 194.98211669921875 68.89878845214844 " />
        <polyline stroke="black" stroke-width="3" stroke-linecap="round" fill="transparent" stroke-linejoin="round" points="115.03643798828124 56.97319030761719 113.71136474609376 62.71514892578125 112.38629150390624 68.89878845214844 111.06121826171876 75.52412414550781 110.17782592773438 82.14945983886719 108.41107177734376 95.40013122558594 108.41107177734376 106.44235229492188 109.73617553710938 114.83444213867188 111.06121826171876 117.92626953125 116.36151123046876 124.1099090576172 122.10345458984376 126.76004028320313 130.0538330078125 127.20175170898438 138.00424194335938 125.87667846679688 146.8380126953125 122.78483581542967 157.4385986328125 114.39274597167967 157.4385986328125 114.39274597167967 " />
        <polyline stroke="black" stroke-width="3" stroke-linecap="round" fill="transparent" stroke-linejoin="round" points="154.34674072265625 57.8565673828125 154.7884521484375 63.156829833984375 155.2301025390625 68.45709228515625 156.55517578125 86.56634521484375 156.55517578125 99.8170166015625 155.67181396484375 107.76742553710938 154.7884521484375 112.18431091308594 154.7884521484375 112.18431091308594 " />
        <polyline stroke="black" stroke-width="3" stroke-linecap="round" fill="transparent" stroke-linejoin="round" points="115.91976928710938 164.74530029296875 122.10345458984376 161.65347290039063 138.4459228515625 154.14476013183594 143.74618530273438 151.9363250732422 153.46337890625 148.844482421875 160.0887451171875 146.63604736328125 160.0887451171875 146.63604736328125 " />
        <polyline stroke="black" stroke-width="3" stroke-linecap="round" fill="transparent" stroke-linejoin="round" points="92.51025390625 193.89678955078125 101.78573608398438 190.804931640625 122.10345458984376 185.06298828125 141.97943115234375 181.0877990722656 162.297119140625 178.87933349609375 182.173095703125 180.20440673828125 202.93255615234375 186.3880615234375 202.93255615234375 186.3880615234375 " />
        </svg>