<?xml version="1.0" standalone="no"?>
    <svg width="256" height="256" xmlns="http://www.w3.org/2000/svg" version="1.1">
    <polyline stroke="black" stroke-width="3" stroke-linecap="round" fill="transparent" stroke-linejoin="round" points="74.72329711914063 100.55938720703124 99.97589111328124 86.67045593261719 122.70318603515624 77.83204650878906 142.48443603515625 71.51889038085938 157.635986328125 66.88926696777344 168.1578369140625 64.36399841308594 176.154541015625 62.259613037109375 176.154541015625 62.259613037109375 " />
        <polyline stroke="black" stroke-width="3" stroke-linecap="round" fill="transparent" stroke-linejoin="round" points="91.979248046875 94.24623107910156 94.92535400390624 118.65707397460938 95.76712036132813 124.97021484375 98.29238891601563 130.44161987304688 99.1341552734375 131.70423889160156 99.1341552734375 131.70423889160156 " />
        <polyline stroke="black" stroke-width="3" stroke-linecap="round" fill="transparent" stroke-linejoin="round" points="126.4910888671875 67.31013488769531 123.9658203125 97.19236755371094 123.54495239257813 114.02743530273438 123.9658203125 120.76144409179688 123.9658203125 120.76144409179688 " />
        <polyline stroke="black" stroke-width="3" stroke-linecap="round" fill="transparent" stroke-linejoin="round" points="127.75375366210938 122.4449462890625 134.90863037109375 121.60321044921876 134.90863037109375 121.60321044921876 " />
        <polyline stroke="black" stroke-width="3" stroke-linecap="round" fill="transparent" stroke-linejoin="round" points="98.29238891601563 165.7952423095703 117.2318115234375 159.06121826171875 133.64599609375 155.27333068847656 144.58880615234375 154.0106964111328 148.37667846679688 153.58981323242188 148.37667846679688 153.58981323242188 " />
        <polyline stroke="black" stroke-width="3" stroke-linecap="round" fill="transparent" stroke-linejoin="round" points="123.12408447265624 195.677490234375 163.52825927734375 185.576416015625 201.8280029296875 179.26329040527344 230.4476318359375 177.15892028808594 249.38702392578125 176.31715393066406 249.38702392578125 176.31715393066406 " />
        </svg>