<?xml version="1.0" standalone="no"?>
    <svg width="256" height="256" xmlns="http://www.w3.org/2000/svg" version="1.1">
    <polyline stroke="black" stroke-width="3" stroke-linecap="round" fill="transparent" stroke-linejoin="round" points="92.8779296875 106.85411071777344 111.20721435546876 103.54306030273438 122.72103881835938 101.90921020507813 142.14132690429688 99.32096862792967 156.80145263671875 96.67367553710938 161.0460205078125 95.8709716796875 163.27752685546875 94.41726684570313 163.300048828125 94.39105224609376 163.30487060546875 94.38543701171876 " />
        <polyline stroke="black" stroke-width="3" stroke-linecap="round" fill="transparent" stroke-linejoin="round" points="123.5528564453125 56.35333251953125 119.5343017578125 84.06379699707031 115.55694580078124 100.58718872070313 110.142333984375 118.13853454589844 96.5479736328125 150.31101989746094 84.46493530273438 174.352294921875 80.36752319335938 183.36227416992188 76.05377197265625 198.94195556640625 75.93563842773438 199.65521240234375 " />
        <polyline stroke="black" stroke-width="3" stroke-linecap="round" fill="transparent" stroke-linejoin="round" points="137.36386108398438 140.79539489746094 144.82196044921875 148.01487731933594 162.17669677734375 163.39544677734375 173.56292724609375 175.0101776123047 176.02618408203125 178.61712646484375 176.114501953125 184.559814453125 176.1231689453125 185.14730834960935 " />
        <polyline stroke="black" stroke-width="3" stroke-linecap="round" fill="transparent" stroke-linejoin="round" points="59.6038818359375 194.90606689453125 81.71066284179688 190.99163818359375 94.04513549804688 189.7838134765625 122.95867919921876 186.738037109375 138.82232666015625 185.4600830078125 167.46649169921875 184.769775390625 177.128173828125 185.13021850585935 208.3818359375 185.8573303222656 213.02203369140625 186.08956909179688 235.160888671875 186.22021484375 242.53021240234375 186.24761962890625 243.3408203125 186.2506103515625 243.3475341796875 186.25067138671875 243.34832763671875 186.25067138671875 " />
        </svg>