<?xml version="1.0" standalone="no"?>
    <svg width="256" height="256" xmlns="http://www.w3.org/2000/svg" version="1.1">
    <polyline stroke="black" stroke-width="3" stroke-linecap="round" fill="transparent" stroke-linejoin="round" points="54.7662353515625 106.07208251953124 63.68994140625 104.62814331054688 84.48495483398438 99.78025817871094 112.55169677734376 91.7265625 120.864501953125 88.78515625 138.55413818359375 84.28482055664063 171.1739501953125 78.14425659179688 178.6923828125 76.59033203125 179.6846923828125 75.59445190429688 179.97137451171875 74.34222412109375 181.26611328125 71.79118347167969 181.317138671875 71.70039367675781 " />
        <polyline stroke="black" stroke-width="3" stroke-linecap="round" fill="transparent" stroke-linejoin="round" points="112.259765625 68.80563354492188 111.10687255859376 77.97714233398438 108.61056518554688 91.88803100585938 101.478271484375 119.5173797607422 97.379638671875 129.67971801757813 93.03082275390624 141.2808837890625 83.43914794921875 158.1019744873047 75.49725341796875 168.36859130859375 72.090087890625 171.58677673339844 66.041259765625 177.12551879882813 63.9951171875 178.01138305664063 63.7996826171875 178.09597778320313 " />
        <polyline stroke="black" stroke-width="3" stroke-linecap="round" fill="transparent" stroke-linejoin="round" points="133.501220703125 110.51712036132813 139.66171264648438 112.827392578125 154.2506103515625 117.39654541015624 168.77655029296875 124.67961120605467 174.572265625 129.83917236328125 190.190673828125 142.97293090820313 196.26190185546875 147.29254150390625 200.98004150390625 150.47067260742188 205.05487060546875 152.4534149169922 205.62109375 152.19717407226563 205.62982177734375 152.19322204589844 205.6329345703125 152.19183349609375 " />
        <polyline stroke="black" stroke-width="3" stroke-linecap="round" fill="transparent" stroke-linejoin="round" points="63.399261474609375 195.11724853515625 76.85873413085938 193.61322021484375 86.08554077148438 192.8209228515625 111.31881713867188 191.98226928710935 120.39889526367188 191.6968994140625 149.83773803710938 190.6973876953125 174.3673095703125 189.23074340820313 187.9361572265625 188.06939697265625 196.16082763671875 187.52825927734375 213.8084716796875 186.56851196289065 221.3927001953125 185.9931640625 231.746337890625 185.1058349609375 236.90899658203125 184.306884765625 238.72686767578125 183.64602661132813 239.993408203125 183.29183959960935 240.46697998046875 182.62315368652344 240.28900146484375 181.885986328125 240.2659912109375 181.79058837890625 " />
        </svg>