<?xml version="1.0" standalone="no"?>
    <svg width="256" height="256" xmlns="http://www.w3.org/2000/svg" version="1.1">
    <polyline stroke="black" stroke-width="3" stroke-linecap="round" fill="transparent" stroke-linejoin="round" points="129.15740966796875 69.34185791015625 121.30059814453124 76.7410888671875 98.43170166015624 98.72282409667967 72.78369140625 121.21652221679688 60.16424560546875 133.88848876953125 50.03033447265625 145.39111328125 49.016937255859375 146.5413818359375 " />
        <polyline stroke="black" stroke-width="3" stroke-linecap="round" fill="transparent" stroke-linejoin="round" points="64.55001831054688 75.53916931152344 65.27703857421875 86.3250732421875 66.65191650390625 113.61001586914063 68.86190795898438 143.05612182617188 70.41024780273438 153.70513916015625 73.75933837890625 172.13079833984375 75.5894775390625 176.86770629882813 79.99127197265625 184.75259399414065 82.6138916015625 188.031982421875 89.25775146484375 192.46310424804688 94.68185424804688 195.5115966796875 106.8575439453125 200.46585083007813 114.82357788085938 202.93145751953125 127.57208251953124 205.84375 139.92355346679688 205.12396240234375 143.937255859375 204.00567626953125 165.229736328125 199.72528076171875 169.3758544921875 197.7411193847656 171.45050048828125 193.86669921875 171.90869140625 190.55841064453125 171.817138671875 187.9737548828125 169.07470703125 171.26681518554688 167.940673828125 169.24224853515625 " />
        </svg>