<?xml version="1.0" standalone="no"?>
    <svg width="256" height="256" xmlns="http://www.w3.org/2000/svg" version="1.1">
    <polyline stroke="black" stroke-width="3" stroke-linecap="round" fill="transparent" stroke-linejoin="round" points="150.418212890625 68.22149658203125 142.3447265625 82.9005126953125 130.6015625 100.5153350830078 115.1885986328125 118.8641357421875 90.9681396484375 144.55242919921875 78.49102783203125 155.5617218017578 67.48175048828125 161.433349609375 67.48175048828125 161.433349609375 " />
        <polyline stroke="black" stroke-width="3" stroke-linecap="round" fill="transparent" stroke-linejoin="round" points="94.63787841796876 63.08381652832031 93.1700439453125 78.49679565429688 93.1700439453125 96.11163330078124 93.1700439453125 111.5246124267578 93.9039306640625 135.0110626220703 94.63787841796876 149.69009399414063 95.37188720703124 162.1672821044922 96.83984375 173.17654418945313 97.57366943359376 183.45187377929688 97.57366943359376 188.58953857421875 98.30767822265624 194.46115112304688 99.04156494140624 199.59881591796875 99.77557373046876 203.2685546875 100.50958251953124 208.40621948242188 101.24346923828124 210.60809326171875 101.9774169921875 212.8099365234375 102.71136474609376 213.54388427734375 104.1793212890625 215.74575805664065 104.9132080078125 217.21365356445313 105.647216796875 218.6815490722656 107.1151123046875 220.8834228515625 107.84906005859376 223.8192138671875 110.0509033203125 226.7550048828125 110.7847900390625 228.222900390625 112.9866943359375 229.6907958984375 115.9224853515625 231.15875244140625 120.32623291015624 232.62661743164065 124.72991943359376 233.36056518554688 129.86767578125 234.09451293945313 135.7391357421875 234.09451293945313 143.0787353515625 234.09451293945313 155.555908203125 233.36056518554688 164.36328125 233.36056518554688 172.436767578125 233.36056518554688 179.7762451171875 234.09451293945313 186.3818359375 234.09451293945313 192.9874267578125 234.8284912109375 196.6571044921875 234.8284912109375 200.326904296875 234.8284912109375 203.9967041015625 234.8284912109375 207.66650390625 234.8284912109375 212.070068359375 234.8284912109375 215.006103515625 234.8284912109375 216.473876953125 234.8284912109375 217.2078857421875 234.8284912109375 217.2078857421875 235.5624084472656 217.2078857421875 234.8284912109375 215.7398681640625 228.222900390625 209.8682861328125 210.60809326171875 209.8682861328125 210.60809326171875 " />
        </svg>