<?xml version="1.0" standalone="no"?>
    <svg width="256" height="256" xmlns="http://www.w3.org/2000/svg" version="1.1">
    <polyline stroke="black" stroke-width="3" stroke-linecap="round" fill="transparent" stroke-linejoin="round" points="156 92 147 93 142 95 130 99 116 103 103 105 91 106 82 106 76 105 73 102 72 99 72 96 72 93 72 91 72 91 " />
        <polyline stroke="black" stroke-width="3" stroke-linecap="round" fill="transparent" stroke-linejoin="round" points="71 48 71 57 70 64 68 79 65 99 64 118 64 138 64 156 66 171 74 184 83 194 95 200 110 203 127 204 146 204 164 201 178 194 187 189 191 183 193 175 193 167 193 158 193 152 193 147 192 145 191 143 191 142 191 142 " />
        </svg>