<?xml version="1.0" standalone="no"?>
    <svg width="256" height="256" xmlns="http://www.w3.org/2000/svg" version="1.1">
    <polyline stroke="black" stroke-width="3" stroke-linecap="round" fill="transparent" stroke-linejoin="round" points="70.90625 117.54458618164063 76.77023315429688 116.70684814453124 84.728515625 115.869140625 92.686767578125 115.03143310546876 111.53533935546876 113.3560028076172 131.640380859375 112.518310546875 150.070068359375 112.09942626953124 162.6357421875 110.84288024902344 170.1751708984375 107.91087341308594 170.1751708984375 101.20919799804688 170.1751708984375 101.20919799804688 " />
        <polyline stroke="black" stroke-width="3" stroke-linecap="round" fill="transparent" stroke-linejoin="round" points="130.80267333984375 64.7686767578125 129.546142578125 81.94178771972656 127.87069702148438 91.15663146972656 123.26327514648438 111.26174926757813 120.331298828125 120.4765625 112.7918701171875 137.23081970214844 103.15817260742188 150.63421630859375 92.686767578125 163.19989013671875 82.63421630859375 171.5770263671875 75.09481811523438 176.1844482421875 72.162841796875 177.44102478027344 68.81195068359375 177.85986328125 69.23080444335938 176.60330200195313 76.35137939453125 173.25244140625 92.686767578125 167.3884735107422 112.37301635742188 161.94334411621094 132.47811889648438 159.43020629882813 142.11181640625 158.59249877929688 168.0809326171875 161.94334411621094 168.0809326171875 161.94334411621094 " />
        </svg>