<?xml version="1.0" standalone="no"?>
    <svg width="256" height="256" xmlns="http://www.w3.org/2000/svg" version="1.1">
    <polyline stroke="black" stroke-width="3" stroke-linecap="round" fill="transparent" stroke-linejoin="round" points="96.56304931640624 108.34121704101563 108.60943603515624 105.15245056152344 115.34124755859376 103.73526000976563 128.45050048828125 102.31802368164063 139.78826904296875 100.1921844482422 147.937255859375 98.42068481445313 152.8975830078125 97.00344848632813 155.377685546875 95.5862274169922 155.377685546875 95.5862274169922 " />
        <polyline stroke="black" stroke-width="3" stroke-linecap="round" fill="transparent" stroke-linejoin="round" points="133.41073608398438 69.01336669921875 132.7021484375 74.68223571777344 132.34783935546875 79.64250183105469 131.9935302734375 86.01998901367188 131.63925170898438 99.837890625 130.57635498046875 122.15910339355467 125.61605834960938 151.56640625 125.61605834960938 151.56640625 " />
        <polyline stroke="black" stroke-width="3" stroke-linecap="round" fill="transparent" stroke-linejoin="round" points="74.950439453125 178.4935760498047 79.91073608398438 178.13926696777344 84.8709716796875 178.4935760498047 90.185546875 178.4935760498047 102.58624267578124 178.13926696777344 108.96371459960938 177.4306640625 122.42733764648438 177.7849578857422 134.47369384765625 177.7849578857422 143.68560791015625 177.7849578857422 149.3544921875 178.13926696777344 151.4803466796875 178.84788513183594 152.18890380859375 179.91079711914063 152.18890380859375 179.91079711914063 " />
        </svg>