<?xml version="1.0" standalone="no"?>
    <svg width="256" height="256" xmlns="http://www.w3.org/2000/svg" version="1.1">
    <polyline stroke="black" stroke-width="3" stroke-linecap="round" fill="transparent" stroke-linejoin="round" points="78.75396728515625 107.1855926513672 86.72760009765625 104.6676025390625 95.54061889648438 102.14959716796876 112.32723999023438 97.53327941894533 128.69427490234375 92.49728393554688 140.86459350585938 88.30059814453125 149.25790405273438 84.10394287109375 152.195556640625 82.84494018554688 152.195556640625 82.84494018554688 " />
        <polyline stroke="black" stroke-width="3" stroke-linecap="round" fill="transparent" stroke-linejoin="round" points="122.39926147460938 62.281280517578125 120.3009033203125 71.09426879882813 115.264892578125 89.55960083007813 108.13058471679688 118.51658630371094 103.51425170898438 136.142578125 98.478271484375 148.73257446289063 95.96026611328124 152.9292449951172 90.50457763671876 158.38491821289063 83.78997802734375 161.32257080078125 73.71795654296875 162.58157348632813 69.94091796875 162.58157348632813 68.68197631835938 161.7422332763672 68.68197631835938 161.32257080078125 74.13763427734375 160.06358337402344 88.825927734375 157.96524047851563 106.0322265625 155.86691284179688 134.14990234375 154.188232421875 144.64157104492188 154.60791015625 156.39227294921875 157.1259002685547 156.39227294921875 157.1259002685547 " />
        </svg>