<?xml version="1.0" standalone="no"?>
    <svg width="256" height="256" xmlns="http://www.w3.org/2000/svg" version="1.1">
    <polyline stroke="black" stroke-width="3" stroke-linecap="round" fill="transparent" stroke-linejoin="round" points="59.328460693359375 89.91571044921875 60.567596435546875 106.024658203125 63.0458984375 127.91635131835938 65.11117553710938 152.2863006591797 65.11117553710938 160.13424682617188 64.2850341796875 163.02560424804688 63.458953857421875 162.612548828125 62.219818115234375 160.54730224609375 60.154541015625 150.63409423828125 60.567596435546875 138.24258422851563 62.63287353515625 127.09024047851563 67.1763916015625 118.00314331054688 73.37216186523438 109.74211120605467 77.089599609375 105.6116180419922 87.41586303710938 96.52450561523438 102.69873046875 86.61129760742188 111.78582763671876 85.37216186523438 117.56854248046876 89.089599609375 120.87298583984376 94.872314453125 125.82955932617188 119.24229431152344 125.41650390625 155.17764282226563 122.112060546875 166.7430419921875 117.9815673828125 170.87356567382813 115.50326538085938 171.69964599609375 109.30755615234376 169.6343994140625 106.00314331054688 165.09085083007813 106.00314331054688 165.09085083007813 " />
        <polyline stroke="black" stroke-width="3" stroke-linecap="round" fill="transparent" stroke-linejoin="round" points="85.763671875 49.43678283691406 87.82891845703125 72.154541015625 89.06805419921875 108.08993530273438 91.13330078125 151.04714965820313 92.78549194335938 184.50421142578125 93.61163330078124 204.33062744140625 93.61163330078124 210.5263671875 93.61163330078124 215.48297119140625 93.61163330078124 215.48297119140625 " />
        <polyline stroke="black" stroke-width="3" stroke-linecap="round" fill="transparent" stroke-linejoin="round" points="129.96005249023438 88.67654418945313 148.13424682617188 80.41555786132813 157.22137451171875 76.69808959960938 166.7215576171875 72.98065185546875 175.3956298828125 69.67623901367188 198.939453125 61.41523742675781 207.613525390625 59.34999084472656 212.570068359375 58.93693542480469 212.570068359375 58.93693542480469 " />
        <polyline stroke="black" stroke-width="3" stroke-linecap="round" fill="transparent" stroke-linejoin="round" points="154.7430419921875 122.13363647460938 149.37338256835938 136.59039306640625 146.89511108398438 147.74273681640625 145.242919921875 160.54730224609375 144.00375366210938 174.59100341796875 143.17767333984375 185.74337768554688 141.52545166015625 203.09149169921875 140.6993408203125 209.7002868652344 139.047119140625 217.13519287109375 138.63412475585938 219.200439453125 138.63412475585938 219.200439453125 " />
        <polyline stroke="black" stroke-width="3" stroke-linecap="round" fill="transparent" stroke-linejoin="round" points="152.2647705078125 139.06869506835938 164.24322509765625 130.80767822265625 168.78680419921875 128.32937622070313 176.63470458984375 124.61192321777344 183.2435302734375 123.37277221679688 189.0262451171875 124.61192321777344 194.3958740234375 129.15548706054688 201.00469970703125 142.7861328125 205.13519287109375 165.09085083007813 205.13519287109375 187.80862426757813 201.417724609375 204.33062744140625 196.048095703125 214.65689086914065 185.30877685546875 221.26568603515625 169.1998291015625 223.74398803710935 169.1998291015625 223.74398803710935 " />
        <polyline stroke="black" stroke-width="3" stroke-linecap="round" fill="transparent" stroke-linejoin="round" points="124.59042358398438 192.7652282714844 141.52545166015625 189.87387084960935 152.2647705078125 189.04779052734375 174.9825439453125 187.39556884765625 186.1348876953125 186.5694580078125 204.72216796875 185.330322265625 219.59197998046875 185.74337768554688 224.548583984375 186.5694580078125 224.548583984375 186.5694580078125 " />
        </svg>