<?xml version="1.0" standalone="no"?>
    <svg width="256" height="256" xmlns="http://www.w3.org/2000/svg" version="1.1">
    <polyline stroke="black" stroke-width="3" stroke-linecap="round" fill="transparent" stroke-linejoin="round" points="50.2508544921875 101.65045166015624 51.3660888671875 115.59095764160156 53.0389404296875 133.992431640625 53.5965576171875 147.3753204345703 53.0389404296875 156.85487365722656 53.0389404296875 162.4310760498047 51.9237060546875 162.4310760498047 49.1356201171875 156.29725646972656 46.905120849609375 142.91436767578125 48.577972412109375 125.6281280517578 53.5965576171875 111.6876220703125 59.172760009765625 99.9775848388672 67.53707885742188 90.49803161621094 78.13186645507813 81.57611083984375 91.5147705078125 74.88465881347656 101.55194091796876 73.21180725097656 110.47384643554688 75.99990844726563 117.722900390625 84.36421203613281 124.97198486328124 110.01475524902344 122.74151611328124 136.22291564941406 116.050048828125 152.39390563964844 110.47384643554688 158.52774047851563 99.87905883789063 161.8734588623047 99.87905883789063 161.8734588623047 " />
        <polyline stroke="black" stroke-width="3" stroke-linecap="round" fill="transparent" stroke-linejoin="round" points="71.4404296875 33.06312561035156 74.7861328125 57.59843444824219 78.68948364257813 97.18948364257813 79.24710083007813 130.64671325683594 80.91998291015625 162.9886932373047 82.03521728515625 185.29351806640625 82.59283447265625 201.46450805664065 82.59283447265625 210.94406127929688 84.82330322265625 212.05929565429688 84.82330322265625 212.05929565429688 " />
        <polyline stroke="black" stroke-width="3" stroke-linecap="round" fill="transparent" stroke-linejoin="round" points="131.10580444335938 77.67276000976563 140.02774047851563 71.5389404296875 152.85302734375 65.96273803710938 167.35113525390625 60.38653564453125 183.5220947265625 55.925567626953125 199.135498046875 50.906982421875 210.28790283203125 47.56126403808594 216.4217529296875 46.446022033691406 216.4217529296875 46.446022033691406 " />
        <polyline stroke="black" stroke-width="3" stroke-linecap="round" fill="transparent" stroke-linejoin="round" points="155.08349609375 94.95899963378906 152.29541015625 114.47572326660156 147.27679443359375 142.3567352294922 143.93109130859375 166.3344268798828 141.14297485351563 185.29351806640625 138.9124755859375 199.23403930664065 137.2396240234375 208.15594482421875 137.2396240234375 208.15594482421875 " />
        <polyline stroke="black" stroke-width="3" stroke-linecap="round" fill="transparent" stroke-linejoin="round" points="146.16156005859375 123.95526123046876 157.87158203125 113.9180908203125 165.12066650390625 110.01475524902344 174.6002197265625 106.66903686523438 183.5220947265625 104.99617004394533 191.328857421875 105.55378723144533 198.020263671875 109.45713806152344 204.154052734375 117.82144165039063 208.61505126953125 133.992431640625 209.17266845703125 153.5091552734375 208.05743408203125 171.35301208496094 205.826904296875 184.17828369140625 204.154052734375 191.4273376464844 201.923583984375 195.8883056640625 198.577880859375 198.1187744140625 185.1949462890625 194.2154541015625 185.1949462890625 194.2154541015625 " />
        <polyline stroke="black" stroke-width="3" stroke-linecap="round" fill="transparent" stroke-linejoin="round" points="133.3363037109375 162.4310760498047 152.29541015625 155.73963928222656 167.35113525390625 152.39390563964844 185.1949462890625 149.60580444335938 200.250732421875 147.93295288085938 211.9608154296875 147.3753204345703 218.6522216796875 149.04818725585938 218.6522216796875 149.04818725585938 " />
        </svg>