<?xml version="1.0" standalone="no"?>
    <svg width="256" height="256" xmlns="http://www.w3.org/2000/svg" version="1.1">
    <polyline stroke="black" stroke-width="3" stroke-linecap="round" fill="transparent" stroke-linejoin="round" points="54 96 54 112 54 128 54 156 54 171 58 180 60 184 62 184 63 183 63 183 " />
        <polyline stroke="black" stroke-width="3" stroke-linecap="round" fill="transparent" stroke-linejoin="round" points="60 96 73 93 86 90 100 88 113 86 120 86 123 88 125 97 125 111 125 127 121 138 117 148 113 154 109 155 108 155 108 155 " />
        <polyline stroke="black" stroke-width="3" stroke-linecap="round" fill="transparent" stroke-linejoin="round" points="98 44 98 51 98 58 98 78 98 108 98 142 98 173 98 196 96 211 95 218 95 216 96 206 96 206 " />
        <polyline stroke="black" stroke-width="3" stroke-linecap="round" fill="transparent" stroke-linejoin="round" points="138 62 145 62 152 62 166 62 173 61 193 61 198 61 206 61 211 61 212 62 212 64 212 64 " />
        <polyline stroke="black" stroke-width="3" stroke-linecap="round" fill="transparent" stroke-linejoin="round" points="158 90 158 101 158 112 158 135 158 160 156 186 150 205 147 218 146 221 146 222 146 222 " />
        <polyline stroke="black" stroke-width="3" stroke-linecap="round" fill="transparent" stroke-linejoin="round" points="159 106 170 102 181 98 193 97 202 96 206 96 213 102 215 115 216 135 217 160 217 183 217 200 217 212 217 218 217 219 216 219 213 219 201 208 201 208 " />
        <polyline stroke="black" stroke-width="3" stroke-linecap="round" fill="transparent" stroke-linejoin="round" points="138 167 143 167 148 167 155 166 170 163 186 160 202 158 215 158 225 158 231 158 233 158 233 158 " />
        </svg>