<?xml version="1.0" standalone="no"?>
    <svg width="256" height="256" xmlns="http://www.w3.org/2000/svg" version="1.1">
    <polyline stroke="black" stroke-width="3" stroke-linecap="round" fill="transparent" stroke-linejoin="round" points="67.90966796875 113.67623901367188 86.91940307617188 107.92910766601563 96.20321655273438 105.71867370605467 124.0546875 99.52947998046876 139.96978759765625 96.43487548828124 146.60107421875 95.10861206054688 156.32696533203125 92.89817810058594 161.18988037109375 92.45608520507813 161.18988037109375 93.34027099609376 158.0953369140625 96.43487548828124 158.0953369140625 96.43487548828124 " />
        <polyline stroke="black" stroke-width="3" stroke-linecap="round" fill="transparent" stroke-linejoin="round" points="57.299652099609375 171.58953857421875 82.05645751953125 168.49493408203125 93.55072021484376 166.28448486328125 114.77084350585938 160.09530639648438 125.38095092773438 156.11651611328125 143.94857788085938 147.71688842773438 158.0953369140625 136.66473388671875 168.2633056640625 118.98126220703124 168.2633056640625 118.98126220703124 " />
        <polyline stroke="black" stroke-width="3" stroke-linecap="round" fill="transparent" stroke-linejoin="round" points="126.26507568359376 31.89027404785156 117.42333984375 69.90969848632813 115.212890625 86.70896911621094 113.88665771484376 105.71867370605467 112.56039428710938 141.0855712890625 113.00250244140624 168.05284118652344 113.88665771484376 187.504638671875 115.212890625 207.3985290527344 115.212890625 207.3985290527344 " />
        </svg>