<?xml version="1.0" standalone="no"?>
    <svg width="256" height="256" xmlns="http://www.w3.org/2000/svg" version="1.1">
    <polyline stroke="black" stroke-width="3" stroke-linecap="round" fill="transparent" stroke-linejoin="round" points="65.5750732421875 101.34242248535156 78.65145874023438 94.80422973632813 95.88851928710938 87.67166137695313 117.2862548828125 79.35032653808594 133.33453369140625 73.40650939941406 149.3828125 69.245849609375 160.0816650390625 67.46270751953125 165.43109130859375 68.65145874023438 166.619873046875 75.78404235839844 166.619873046875 75.78404235839844 " />
        <polyline stroke="black" stroke-width="3" stroke-linecap="round" fill="transparent" stroke-linejoin="round" points="67.35821533203125 166.1299591064453 89.9447021484375 157.80862426757813 106.58737182617188 151.2704315185547 126.79632568359376 144.73223876953125 143.43899536132813 140.5715789794922 157.1097412109375 136.41090393066406 168.40301513671875 132.84461975097656 174.941162109375 127.49519348144533 174.941162109375 127.49519348144533 " />
        <polyline stroke="black" stroke-width="3" stroke-linecap="round" fill="transparent" stroke-linejoin="round" points="126.79632568359376 34.77174377441406 126.79632568359376 44.876220703125 125.60757446289063 59.735748291015625 125.01318359375 85.88851928710938 123.82443237304688 113.82443237304688 123.82443237304688 144.1378631591797 125.01318359375 166.72434997558594 126.20196533203124 185.7445373535156 127.39071655273438 200.60406494140625 126.20196533203124 211.89730834960935 126.20196533203124 211.89730834960935 " />
        </svg>