<?xml version="1.0" standalone="no"?>
    <svg width="256" height="256" xmlns="http://www.w3.org/2000/svg" version="1.1">
    <polyline stroke="black" stroke-width="3" stroke-linecap="round" fill="transparent" stroke-linejoin="round" points="70.39102172851563 95.14288330078128 81.8310546875 91.7720184326172 93.27108764648438 88.40115356445313 106.53720092773438 84.95428466796875 138.27426147460938 80.58818054199219 149.2388916015625 80.8594970703125 176.097412109375 85.47711181640625 177.96209716796875 87.02397155761719 178.167236328125 87.19412231445313 178.16864013671875 87.19534301757813 167.06005859375 90.13371276855467 135.76800537109375 101.18954467773438 120.239990234375 107.67098999023438 111.85421752929688 114.427490234375 92.3961181640625 131.8515625 73.47979736328125 147.40249633789063 69.988037109375 150.56219482421875 68.85919189453125 152.68035888671875 69.72119140625 152.44686889648438 71.32537841796875 151.7183074951172 79.6663818359375 150.62966918945313 110.29183959960938 146.91937255859375 146.33209228515625 143.16021728515625 167.73846435546875 141.4925537109375 183.943603515625 140.24710083007813 186.4649658203125 140.4189910888672 191.07916259765625 140.93716430664063 191.71893310546875 141.38995361328125 " />
        <polyline stroke="black" stroke-width="3" stroke-linecap="round" fill="transparent" stroke-linejoin="round" points="124.96197509765625 34.57826232910156 129.57672119140625 55.97785949707031 134.19146728515625 77.37745666503906 136.183837890625 102.81427001953124 136.29306030273438 128.9564208984375 133.67535400390625 173.20870971679688 128.9644775390625 198.69061279296875 121.02154541015624 229.27880859375 119.24005126953124 234.66470336914065 " />
        </svg>