<?xml version="1.0" standalone="no"?>
    <svg width="256" height="256" xmlns="http://www.w3.org/2000/svg" version="1.1">
    <polyline stroke="black" stroke-width="3" stroke-linecap="round" fill="transparent" stroke-linejoin="round" points="47.74652099609375 102.41722106933594 61.111480712890625 96.00204467773438 71.26882934570313 91.190673828125 84.6337890625 84.24090576171875 100.1370849609375 76.75653076171875 114.03665161132813 68.20297241210938 120.98641967773438 60.18400573730469 120.98641967773438 60.18400573730469 " />
        <polyline stroke="black" stroke-width="3" stroke-linecap="round" fill="transparent" stroke-linejoin="round" points="99.06793212890624 40.93849182128906 94.7911376953125 48.95745849609375 85.70297241210938 71.41055297851563 71.80343627929688 108.8323974609375 61.111480712890625 138.23526000976563 50.419525146484375 164.96514892578125 45.07354736328125 179.9338836669922 42.40057373046875 188.4874267578125 42.40057373046875 191.69503784179688 45.07354736328125 188.4874267578125 45.07354736328125 188.4874267578125 " />
        <polyline stroke="black" stroke-width="3" stroke-linecap="round" fill="transparent" stroke-linejoin="round" points="65.38824462890625 140.9082489013672 75.01101684570313 149.9964141845703 81.96078491210938 157.48077392578125 89.44515991210938 164.4305419921875 96.92950439453124 168.7073211669922 96.92950439453124 168.7073211669922 " />
        <polyline stroke="black" stroke-width="3" stroke-linecap="round" fill="transparent" stroke-linejoin="round" points="110.29446411132813 107.76319885253906 126.86700439453124 101.88262939453124 141.83572387695313 98.67503356933594 163.75421142578125 93.3290557861328 179.257568359375 88.51768493652344 192.087890625 84.24090576171875 200.10687255859375 79.964111328125 200.10687255859375 79.964111328125 " />
        <polyline stroke="black" stroke-width="3" stroke-linecap="round" fill="transparent" stroke-linejoin="round" points="161.08123779296875 39.33470153808594 157.8736572265625 48.42285919189453 151.45849609375 68.73756408691406 142.37030029296875 100.8134307861328 135.95513916015625 126.47410583496094 130.0745849609375 151.0655975341797 124.19400024414063 171.9149169921875 119.38262939453124 186.34906005859375 116.70965576171876 197.041015625 116.70965576171876 197.041015625 " />
        <polyline stroke="black" stroke-width="3" stroke-linecap="round" fill="transparent" stroke-linejoin="round" points="141.83572387695313 141.44284057617188 150.3892822265625 146.2542266845703 161.08123779296875 153.73858642578125 173.376953125 162.82675170898438 184.0689697265625 173.51870727539063 195.29547119140625 190.62582397460935 195.29547119140625 190.62582397460935 " />
        </svg>