<?xml version="1.0" standalone="no"?>
    <svg width="256" height="256" xmlns="http://www.w3.org/2000/svg" version="1.1">
    <polyline stroke="black" stroke-width="3" stroke-linecap="round" fill="transparent" stroke-linejoin="round" points="54.681396484375 139.10980224609375 66.27447509765625 136.2115478515625 72.8990478515625 134.141357421875 80.35174560546875 131.65713500976563 87.80438232421875 128.75888061523438 101.46762084960938 121.72024536132813 107.67816162109376 118.40794372558594 122.99755859375 105.15875244140624 122.99755859375 105.15875244140624 " />
        <polyline stroke="black" stroke-width="3" stroke-linecap="round" fill="transparent" stroke-linejoin="round" points="91.94476318359376 72.86386108398438 86.14825439453125 97.7061004638672 82.8359375 110.95526123046876 79.52365112304688 128.75888061523438 73.72714233398438 156.91339111328125 66.27447509765625 187.5521545410156 64.20428466796875 194.59078979492188 61.305999755859375 201.62942504882813 60.47796630859375 202.45748901367188 60.47796630859375 202.45748901367188 " />
        <polyline stroke="black" stroke-width="3" stroke-linecap="round" fill="transparent" stroke-linejoin="round" points="76.6253662109375 165.1941375732422 92.35882568359376 170.99066162109375 98.5693359375 173.47488403320313 104.7799072265625 175.9591064453125 115.54489135742188 179.68545532226563 128.7940673828125 181.3415985107422 128.7940673828125 181.3415985107422 " />
        <polyline stroke="black" stroke-width="3" stroke-linecap="round" fill="transparent" stroke-linejoin="round" points="124.6536865234375 118.82199096679688 132.93441772460938 113.02545166015624 144.5274658203125 106.81491088867188 157.3626708984375 101.01840209960938 169.78375244140625 96.4639892578125 179.72064208984375 92.3236083984375 188.00140380859375 88.59725952148438 188.00140380859375 88.59725952148438 " />
        <polyline stroke="black" stroke-width="3" stroke-linecap="round" fill="transparent" stroke-linejoin="round" points="160.6749267578125 67.06733703613281 154.05035400390625 85.28497314453125 151.56610107421875 93.15167236328124 147.01171875 111.78335571289063 142.457275390625 131.24310302734375 140.38714599609375 140.76596069335938 136.6607666015625 159.3976287841797 131.27828979492188 182.1696624755859 127.96600341796876 195.8328857421875 127.96600341796876 195.8328857421875 " />
        <polyline stroke="black" stroke-width="3" stroke-linecap="round" fill="transparent" stroke-linejoin="round" points="151.152099609375 139.52383422851563 162.3310546875 145.3203582763672 172.26800537109375 153.60110473632813 177.65045166015625 158.98358154296875 194.6259765625 184.6539001464844 204.5628662109375 203.28558349609375 204.5628662109375 203.28558349609375 " />
        </svg>