<?xml version="1.0" standalone="no"?>
    <svg width="256" height="256" xmlns="http://www.w3.org/2000/svg" version="1.1">
    <polyline stroke="black" stroke-width="3" stroke-linecap="round" fill="transparent" stroke-linejoin="round" points="49.016571044921875 116.55369567871097 56.331146240234375 113.3027801513672 63.645721435546875 110.05186462402344 70.96029663085938 107.20730590820313 87.21493530273438 100.7054443359375 94.93588256835938 97.45452880859376 116.879638671875 86.48265075683594 126.22607421875 76.72987365722656 126.22607421875 76.72987365722656 " />
        <polyline stroke="black" stroke-width="3" stroke-linecap="round" fill="transparent" stroke-linejoin="round" points="95.34222412109375 45.033355712890625 84.7767333984375 72.25985717773438 74.21124267578125 99.48635864257813 69.3348388671875 116.14736938476563 62.020263671875 146.21841430664063 56.331146240234375 170.19400024414063 53.8929443359375 177.50857543945313 49.422943115234375 184.82318115234375 49.016571044921875 184.82318115234375 49.016571044921875 184.82318115234375 " />
        <polyline stroke="black" stroke-width="3" stroke-linecap="round" fill="transparent" stroke-linejoin="round" points="80.30670166015625 132.40200805664063 85.18310546875 135.24655151367188 90.05950927734375 138.09109497070313 102.25048828125 146.21841430664063 107.12689208984376 149.06297302246094 108.7523193359375 149.46934509277344 108.7523193359375 149.46934509277344 " />
        <polyline stroke="black" stroke-width="3" stroke-linecap="round" fill="transparent" stroke-linejoin="round" points="133.13430786132813 108.02003479003905 138.82342529296875 106.80093383789063 144.51254272460938 105.5818328857422 150.20162963867188 104.36273193359376 155.89080810546875 102.73728942871094 166.456298828125 95.8290557861328 166.456298828125 95.8290557861328 " />
        <polyline stroke="black" stroke-width="3" stroke-linecap="round" fill="transparent" stroke-linejoin="round" points="152.63983154296875 61.6943359375 149.388916015625 76.72987365722656 146.13800048828125 91.76541137695313 142.480712890625 106.3945770263672 135.57244873046875 133.2147216796875 127.44515991210938 158.00302124023438 122.56878662109376 168.1621551513672 119.72421264648438 172.22581481933594 118.91146850585938 172.22581481933594 118.91146850585938 172.22581481933594 " />
        <polyline stroke="black" stroke-width="3" stroke-linecap="round" fill="transparent" stroke-linejoin="round" points="142.07440185546875 124.27462768554688 155.07806396484375 131.5892333984375 168.08172607421875 138.90383911132813 174.17724609375 143.37384033203125 194.089111328125 165.72396850585938 194.089111328125 165.72396850585938 " />
        </svg>