<?xml version="1.0" standalone="no"?>
    <svg width="256" height="256" xmlns="http://www.w3.org/2000/svg" version="1.1">
    <polyline stroke="black" stroke-width="3" stroke-linecap="round" fill="transparent" stroke-linejoin="round" points="75.6590576171875 90.9802703857422 85.22531127929688 87.08291625976563 106.837890625 78.93389892578125 129.51339721679688 70.43057250976563 140.85116577148438 65.82461547851563 159.983642578125 57.67559814453125 172.7386474609375 51.29811096191406 175.57305908203125 49.880889892578125 175.57305908203125 49.880889892578125 " />
        <polyline stroke="black" stroke-width="3" stroke-linecap="round" fill="transparent" stroke-linejoin="round" points="101.16903686523438 82.83125305175781 100.46038818359376 89.9173583984375 100.814697265625 109.04983520507813 103.29486083984376 119.678955078125 103.29486083984376 119.678955078125 " />
        <polyline stroke="black" stroke-width="3" stroke-linecap="round" fill="transparent" stroke-linejoin="round" points="149.70880126953125 97.00344848632813 145.45712280273438 105.861083984375 139.78826904296875 114.71868896484376 133.41073608398438 122.51339721679688 133.41073608398438 122.51339721679688 " />
        <polyline stroke="black" stroke-width="3" stroke-linecap="round" fill="transparent" stroke-linejoin="round" points="101.16903686523438 135.97698974609375 112.50677490234376 130.66241455078125 124.19882202148438 125.7021484375 136.24520874023438 121.09617614746094 159.983642578125 114.3643798828125 176.990234375 111.52995300292967 184.4306640625 110.8213348388672 185.1392822265625 111.52995300292967 185.1392822265625 111.52995300292967 " />
        <polyline stroke="black" stroke-width="3" stroke-linecap="round" fill="transparent" stroke-linejoin="round" points="105.77499389648438 156.17236328125 115.69549560546876 152.27500915527344 125.26171875 148.73196411132813 134.119384765625 145.543212890625 142.26840209960938 142.7087860107422 155.377685546875 139.87432861328125 163.5267333984375 139.87432861328125 163.5267333984375 139.87432861328125 " />
        <polyline stroke="black" stroke-width="3" stroke-linecap="round" fill="transparent" stroke-linejoin="round" points="107.90081787109376 184.87106323242188 112.861083984375 188.41412353515625 118.52996826171876 189.12274169921875 118.52996826171876 189.12274169921875 " />
        <polyline stroke="black" stroke-width="3" stroke-linecap="round" fill="transparent" stroke-linejoin="round" points="153.2518310546875 173.53330993652344 147.937255859375 179.2021942138672 140.496826171875 185.5796813964844 130.57635498046875 192.31146240234375 130.57635498046875 192.31146240234375 " />
        <polyline stroke="black" stroke-width="3" stroke-linecap="round" fill="transparent" stroke-linejoin="round" points="93.01998901367188 201.87774658203125 107.5465087890625 195.50021362304688 121.71868896484376 190.1856384277344 145.81146240234375 182.7452392578125 174.86444091796875 179.2021942138672 193.9969482421875 182.39093017578125 193.9969482421875 182.39093017578125 " />
        </svg>