<?xml version="1.0" standalone="no"?>
    <svg width="256" height="256" xmlns="http://www.w3.org/2000/svg" version="1.1">
    <polyline stroke="black" stroke-width="3" stroke-linecap="round" fill="transparent" stroke-linejoin="round" points="90.38348388671876 69.415283203125 101.76171875 65.75799560546875 138.33465576171875 56.411590576171875 159.87200927734375 52.75428771972656 178.158447265625 51.941558837890625 182.22210693359375 51.941558837890625 185.066650390625 51.941558837890625 185.066650390625 51.941558837890625 " />
        <polyline stroke="black" stroke-width="3" stroke-linecap="round" fill="transparent" stroke-linejoin="round" points="110.29537963867188 96.23542785644533 111.10812377929688 100.7054443359375 111.92083740234376 104.76910400390624 114.35906982421876 112.89642333984376 115.1717529296875 114.52188110351563 118.42269897460938 114.9282684326172 125.33090209960938 109.64549255371094 135.08367919921875 98.26725769042967 140.77279663085938 90.54632568359376 144.02377319335938 86.88902282714844 146.4619140625 85.2635498046875 146.8682861328125 85.669921875 145.24285888671875 90.95266723632813 136.30279541015625 103.55001831054688 120.86093139648438 119.80465698242188 104.60626220703124 134.02745056152344 94.04074096679688 141.74839782714844 90.789794921875 143.78021240234375 90.789794921875 143.37384033203125 98.91717529296876 138.09109497070313 116.7972412109375 129.55743408203125 139.14739990234375 121.02374267578124 162.716552734375 115.74099731445313 181.0030517578125 113.70916748046876 187.0985107421875 113.3027801513672 187.0985107421875 113.3027801513672 " />
        <polyline stroke="black" stroke-width="3" stroke-linecap="round" fill="transparent" stroke-linejoin="round" points="90.38348388671876 181.9786071777344 98.51080322265624 178.7276611328125 115.578125 172.63218688964844 123.7054443359375 169.78762817382813 140.366455078125 164.91123962402344 152.96380615234375 161.66030883789063 161.49749755859375 159.22210693359375 165.15478515625 157.59666442871094 165.5611572265625 156.37754821777344 163.9356689453125 155.158447265625 154.182861328125 154.34573364257813 139.5537109375 157.59666442871094 128.17547607421875 162.87942504882813 120.86093139648438 168.1621551513672 115.1717529296875 175.47674560546875 110.70175170898438 185.22952270507813 108.669921875 194.575927734375 109.07626342773438 200.26507568359375 111.51449584960938 202.296875 111.51449584960938 202.296875 " />
        <polyline stroke="black" stroke-width="3" stroke-linecap="round" fill="transparent" stroke-linejoin="round" points="151.33837890625 177.91494750976563 135.08367919921875 190.51226806640625 102.57443237304688 209.20510864257813 87.53890991210938 215.70697021484375 78.59884643554688 218.9578857421875 74.12884521484375 220.177001953125 73.72247314453125 219.7706298828125 81.44342041015625 216.51971435546875 92.415283203125 212.8623962402344 135.08367919921875 199.45233154296875 165.967529296875 192.54412841796875 183.44122314453125 190.10592651367188 183.44122314453125 190.10592651367188 " />
        </svg>