<?xml version="1.0" standalone="no"?>
    <svg width="256" height="256" xmlns="http://www.w3.org/2000/svg" version="1.1">
    <polyline stroke="black" stroke-width="3" stroke-linecap="round" fill="transparent" stroke-linejoin="round" points="79 78 85 76 98 72 115 68 132 64 148 61 150 61 153 60 155 60 157 59 157 59 " />
        <polyline stroke="black" stroke-width="3" stroke-linecap="round" fill="transparent" stroke-linejoin="round" points="103 74 103 76 103 81 103 83 104 91 104 94 106 101 107 104 110 110 110 110 " />
        <polyline stroke="black" stroke-width="3" stroke-linecap="round" fill="transparent" stroke-linejoin="round" points="128 72 127 74 125 82 122 92 121 101 122 106 122 106 " />
        <polyline stroke="black" stroke-width="3" stroke-linecap="round" fill="transparent" stroke-linejoin="round" points="85 116 87 115 93 113 111 107 130 104 149 102 165 100 173 99 175 99 178 98 178 98 " />
        <polyline stroke="black" stroke-width="3" stroke-linecap="round" fill="transparent" stroke-linejoin="round" points="101 131 99 132 98 132 101 132 106 130 108 129 118 127 122 126 134 123 138 122 150 120 155 120 156 120 156 120 " />
        <polyline stroke="black" stroke-width="3" stroke-linecap="round" fill="transparent" stroke-linejoin="round" points="113 135 113 134 113 136 113 143 112 156 110 171 109 184 109 191 111 194 112 194 112 194 " />
        <polyline stroke="black" stroke-width="3" stroke-linecap="round" fill="transparent" stroke-linejoin="round" points="130 132 129 136 127 148 126 162 125 172 125 174 125 181 125 183 125 185 125 185 " />
        <polyline stroke="black" stroke-width="3" stroke-linecap="round" fill="transparent" stroke-linejoin="round" points="81 194 80 195 80 196 86 195 101 192 122 187 139 184 145 183 160 182 165 182 178 182 182 182 195 181 197 181 197 181 " />
        </svg>