<?xml version="1.0" standalone="no"?>
    <svg width="256" height="256" xmlns="http://www.w3.org/2000/svg" version="1.1">
    <polyline stroke="black" stroke-width="3" stroke-linecap="round" fill="transparent" stroke-linejoin="round" points="93.80010986328124 65.33334350585938 121.53338623046876 54.66667175292969 147.1334228515625 48.26667022705078 163.1334228515625 45.066673278808594 162.0667724609375 46.13334655761719 157.8001708984375 49.333343505859375 148.2000732421875 54.66667175292969 148.2000732421875 54.66667175292969 " />
        <polyline stroke="black" stroke-width="3" stroke-linecap="round" fill="transparent" stroke-linejoin="round" points="108.7333984375 95.20002746582033 115.1334228515625 97.33334350585938 115.1334228515625 97.33334350585938 " />
        <polyline stroke="black" stroke-width="3" stroke-linecap="round" fill="transparent" stroke-linejoin="round" points="124.7333984375 95.20002746582033 116.2000732421875 102.66667175292967 116.2000732421875 102.66667175292967 " />
        <polyline stroke="black" stroke-width="3" stroke-linecap="round" fill="transparent" stroke-linejoin="round" points="103.4000244140625 106.933349609375 148.2000732421875 97.33334350585938 166.3333740234375 96.26667785644533 171.666748046875 96.26667785644533 172.7333984375 99.4666748046875 169.533447265625 104.8000030517578 163.1334228515625 110.1333465576172 163.1334228515625 110.1333465576172 " />
        <polyline stroke="black" stroke-width="3" stroke-linecap="round" fill="transparent" stroke-linejoin="round" points="130.0667724609375 135.73338317871094 148.2000732421875 133.6000213623047 155.666748046875 133.6000213623047 157.8001708984375 141.06671142578125 157.8001708984375 141.06671142578125 " />
        <polyline stroke="black" stroke-width="3" stroke-linecap="round" fill="transparent" stroke-linejoin="round" points="120.466796875 173.06671142578125 127.93341064453124 178.40003967285156 127.93341064453124 178.40003967285156 " />
        <polyline stroke="black" stroke-width="3" stroke-linecap="round" fill="transparent" stroke-linejoin="round" points="142.86669921875 167.73338317871094 137.533447265625 179.4666748046875 130.0667724609375 189.06671142578125 130.0667724609375 189.06671142578125 " />
        <polyline stroke="black" stroke-width="3" stroke-linecap="round" fill="transparent" stroke-linejoin="round" points="91.666748046875 204 109.80010986328124 198.66668701171875 149.2667236328125 191.20001220703125 181.2667236328125 190.13336181640625 202.60009765625 193.33334350585935 216.4666748046875 201.86666870117188 222.86669921875 208.2666931152344 222.86669921875 208.2666931152344 " />
        </svg>