<?xml version="1.0" standalone="no"?>
    <svg width="256" height="256" xmlns="http://www.w3.org/2000/svg" version="1.1">
    <polyline stroke="black" stroke-width="3" stroke-linecap="round" fill="transparent" stroke-linejoin="round" points="55.34100341796875 92.08398437499999 61.85693359375 91.49813842773438 68.37286376953125 90.91229248046876 82.84945678710938 88.08203125 93.9775390625 83.29074096679688 105.77789306640624 80.29696655273438 114.79916381835938 77.89889526367188 114.99359130859376 77.83711242675781 115.01153564453124 77.83139038085938 " />
        <polyline stroke="black" stroke-width="3" stroke-linecap="round" fill="transparent" stroke-linejoin="round" points="76.6983642578125 65.39779663085938 70.78536987304688 77.14718627929688 64.87237548828125 88.89657592773438 58.5625 100.5755615234375 47.06915283203125 120.93626403808594 42.04779052734375 130.6485595703125 36.531585693359375 142.84884643554688 34.89935302734375 147.38961791992188 33.558685302734375 150.09442138671875 33.424652099609375 150.3649139404297 " />
        <polyline stroke="black" stroke-width="3" stroke-linecap="round" fill="transparent" stroke-linejoin="round" points="61.819305419921875 107.13375854492185 74.12265014648438 113.48039245605467 86.42599487304688 119.8270263671875 112.32293701171876 127.57218933105467 119.41976928710938 129.65701293945313 120.71078491210938 129.46324157714844 120.71673583984376 129.46238708496094 120.71957397460938 129.4619140625 " />
        <polyline stroke="black" stroke-width="3" stroke-linecap="round" fill="transparent" stroke-linejoin="round" points="38.684295654296875 160.10334777832028 40.384368896484375 171.44009399414063 42.084442138671875 182.77684020996097 42.897674560546875 187.141845703125 45.687713623046875 191.90997314453125 48.648651123046875 193.74395751953125 61.817626953125 196.64654541015625 76.27694702148438 196.09835815429688 80.984375 194.6376037597656 86.73739624023438 192.23684692382813 94.85693359375 185.7581787109375 104.1263427734375 177.59483337402344 105.31103515625 175.44631958007813 " />
        <polyline stroke="black" stroke-width="3" stroke-linecap="round" fill="transparent" stroke-linejoin="round" points="114.39639282226563 164.11361694335938 116.5548095703125 169.86199951171875 118.71322631835938 175.61038208007813 120.44647216796876 181.54867553710935 121.042724609375 185.52972412109375 106.3223876953125 189.68951416015625 101.21258544921876 190.79995727539065 " />
        <polyline stroke="black" stroke-width="3" stroke-linecap="round" fill="transparent" stroke-linejoin="round" points="77.14828491210938 143.9802703857422 77.03305053710938 156.33531188964844 76.91781616210938 168.6903533935547 76.94125366210938 196.56002807617188 76.95477294921875 211.5809326171875 75.508056640625 231.3675842285156 73.933837890625 235.67572021484375 72.18505859375 234.65463256835935 72.04144287109375 234.57073974609375 " />
        <polyline stroke="black" stroke-width="3" stroke-linecap="round" fill="transparent" stroke-linejoin="round" points="109.0594787597656 103.32699584960938 127.07159423828124 97.929931640625 145.08370971679688 92.53286743164063 156.9410400390625 88.15327453613281 166.8001708984375 84.46719360351563 183.30633544921875 79.64990234375 190.1634521484375 78.43228149414063 195.22210693359375 78.01220703125 195.30792236328125 78.0057373046875 195.32318115234375 78.00457763671875 " />
        <polyline stroke="black" stroke-width="3" stroke-linecap="round" fill="transparent" stroke-linejoin="round" points="157.55133056640625 59.05256652832031 154.218994140625 98.36965942382813 150.88665771484375 137.68675231933594 149.561279296875 157.15200805664063 148.21554565429688 192.77459716796875 146.52294921875 215.58566284179688 146.70770263671875 220.63568115234375 146.76531982421875 223.054443359375 146.765869140625 223.076416015625 146.765869140625 223.07827758789065 " />
        <polyline stroke="black" stroke-width="3" stroke-linecap="round" fill="transparent" stroke-linejoin="round" points="162.68115234375 118.82861328125 168.45880126953125 132.50396728515625 174.2364501953125 146.1793212890625 186.8524169921875 178.42015075683594 200.97088623046875 210.5372009277344 207.04998779296875 221.77755737304688 214.30316162109375 228.1646423339844 214.53466796875 228.19094848632813 214.557861328125 228.193603515625 214.5599365234375 228.19381713867188 " />
        </svg>