<?xml version="1.0" standalone="no"?>
    <svg width="256" height="256" xmlns="http://www.w3.org/2000/svg" version="1.1">
    <polyline stroke="black" stroke-width="3" stroke-linecap="round" fill="transparent" stroke-linejoin="round" points="38.102752685546875 110.82135009765625 47.314666748046875 106.56968688964844 56.526580810546875 102.31802368164063 66.09283447265625 98.0663604736328 75.6590576171875 93.814697265625 93.72860717773438 84.95707702636719 109.31805419921876 76.09947204589844 121.3643798828125 67.950439453125 121.3643798828125 67.950439453125 " />
        <polyline stroke="black" stroke-width="3" stroke-linecap="round" fill="transparent" stroke-linejoin="round" points="69.28155517578125 63.344482421875 64.3212890625 77.51667785644531 59.36102294921875 91.68887329101563 55.46368408203125 103.73526000976563 51.920623779296875 115.78160095214844 46.96038818359375 131.72532653808594 45.188812255859375 137.03990173339844 43.7716064453125 143.41738891601563 43.7716064453125 143.41738891601563 " />
        <polyline stroke="black" stroke-width="3" stroke-linecap="round" fill="transparent" stroke-linejoin="round" points="80.619384765625 112.59284973144533 88.05975341796875 109.7584228515625 95.5001220703125 106.92399597167967 102.94052124023438 104.79815673828124 112.861083984375 103.02664184570313 119.59286499023438 102.31802368164063 126.32464599609376 102.67233276367188 128.09619140625 103.02664184570313 128.09619140625 103.02664184570313 " />
        <polyline stroke="black" stroke-width="3" stroke-linecap="round" fill="transparent" stroke-linejoin="round" points="45.8974609375 155.10943603515625 47.314666748046875 157.2352752685547 48.73187255859375 159.36111450195313 50.50341796875 161.13262939453125 55.109375 164.67568969726563 68.92724609375 167.8644256591797 79.91073608398438 166.801513671875 90.8941650390625 162.5498504638672 100.10614013671876 157.2352752685547 105.77499389648438 153.3379364013672 108.96371459960938 150.8577880859375 108.96371459960938 150.8577880859375 " />
        <polyline stroke="black" stroke-width="3" stroke-linecap="round" fill="transparent" stroke-linejoin="round" points="99.75173950195315 133.8511505126953 100.46038818359376 138.45712280273438 101.16903686523438 143.06309509277344 101.87762451171876 148.0233612060547 101.16903686523438 156.52667236328125 101.16903686523438 156.52667236328125 " />
        <polyline stroke="black" stroke-width="3" stroke-linecap="round" fill="transparent" stroke-linejoin="round" points="70.69879150390625 145.8975372314453 70.69879150390625 161.84124755859375 70.69879150390625 177.7849578857422 70.344482421875 191.9571533203125 69.6358642578125 201.87774658203125 68.92724609375 208.96380615234375 66.80145263671875 219.2386474609375 66.09283447265625 223.13601684570313 66.09283447265625 223.13601684570313 " />
        <polyline stroke="black" stroke-width="3" stroke-linecap="round" fill="transparent" stroke-linejoin="round" points="139.7882080078125 105.86109924316405 147.2286376953125 103.02664184570313 154.6690673828125 100.1921844482422 162.81805419921875 97.35775756835938 192.5797119140625 87.08291625976563 202.500244140625 82.83125305175781 209.2320556640625 77.87098693847656 209.2320556640625 77.87098693847656 " />
        <polyline stroke="black" stroke-width="3" stroke-linecap="round" fill="transparent" stroke-linejoin="round" points="166.36114501953125 58.0299072265625 161.40087890625 73.61932373046875 156.44061279296875 89.208740234375 151.1259765625 106.92399597167967 140.85116577148438 143.41738891601563 136.5994873046875 159.36111450195313 133.05645751953125 173.53330993652344 127.74188232421876 199.04327392578125 125.26171875 215.69561767578125 125.61605834960938 223.13601684570313 125.61605834960938 223.13601684570313 " />
        <polyline stroke="black" stroke-width="3" stroke-linecap="round" fill="transparent" stroke-linejoin="round" points="155.73193359375 145.18890380859375 163.17236328125 150.8577880859375 170.61279296875 156.52667236328125 184.4306640625 168.92735290527344 206.04327392578125 196.20883178710935 206.04327392578125 196.20883178710935 " />
        </svg>