<?xml version="1.0" standalone="no"?>
    <svg width="256" height="256" xmlns="http://www.w3.org/2000/svg" version="1.1">
    <polyline stroke="black" stroke-width="3" stroke-linecap="round" fill="transparent" stroke-linejoin="round" points="55 80 61 78 67 76 80 73 95 69 107 67 107 67 " />
        <polyline stroke="black" stroke-width="3" stroke-linecap="round" fill="transparent" stroke-linejoin="round" points="100 44 91 61 82 78 71 101 59 125 51 143 46 151 46 151 " />
        <polyline stroke="black" stroke-width="3" stroke-linecap="round" fill="transparent" stroke-linejoin="round" points="104 102 112 107 120 112 127 119 134 128 137 137 137 137 " />
        <polyline stroke="black" stroke-width="3" stroke-linecap="round" fill="transparent" stroke-linejoin="round" points="65 149 65 154 65 159 65 164 65 166 65 167 65 168 68 168 78 168 90 169 104 169 116 169 124 169 125 168 125 168 " />
        <polyline stroke="black" stroke-width="3" stroke-linecap="round" fill="transparent" stroke-linejoin="round" points="116 133 116 146 116 159 116 175 115 184 115 184 " />
        <polyline stroke="black" stroke-width="3" stroke-linecap="round" fill="transparent" stroke-linejoin="round" points="96 145 96 153 96 161 96 193 96 211 96 217 96 220 96 222 96 222 " />
        <polyline stroke="black" stroke-width="3" stroke-linecap="round" fill="transparent" stroke-linejoin="round" points="140 119 152 119 164 119 181 119 193 119 201 119 201 119 " />
        <polyline stroke="black" stroke-width="3" stroke-linecap="round" fill="transparent" stroke-linejoin="round" points="189 63 186 84 183 105 174 137 164 169 157 193 153 210 152 214 152 214 " />
        <polyline stroke="black" stroke-width="3" stroke-linecap="round" fill="transparent" stroke-linejoin="round" points="167 125 172 138 177 151 185 168 194 197 198 210 198 210 " />
        </svg>