<?xml version="1.0" standalone="no"?>
    <svg width="256" height="256" xmlns="http://www.w3.org/2000/svg" version="1.1">
    <polyline stroke="black" stroke-width="3" stroke-linecap="round" fill="transparent" stroke-linejoin="round" points="81 82 83 81 86 79 90 77 95 75 101 73 107 72 115 70 122 69 134 67 142 66 149 65 155 64 158 63 161 62 " />
        <polyline stroke="black" stroke-width="3" stroke-linecap="round" fill="transparent" stroke-linejoin="round" points="119 45 115 53 111 64 107 75 103 88 96 106 92 117 88 127 84 136 81 143 78 149 76 154 74 157 73 157 " />
        <polyline stroke="black" stroke-width="3" stroke-linecap="round" fill="transparent" stroke-linejoin="round" points="96 101 101 99 105 98 110 97 116 97 125 98 131 99 139 102 147 107 154 112 162 118 170 123 174 125 177 127 " />
        <polyline stroke="black" stroke-width="3" stroke-linecap="round" fill="transparent" stroke-linejoin="round" points="105 145 102 146 103 146 105 146 108 146 112 146 117 145 123 145 128 143 134 142 140 142 142 143 " />
        <polyline stroke="black" stroke-width="3" stroke-linecap="round" fill="transparent" stroke-linejoin="round" points="90 180 88 180 89 180 94 179 99 179 105 178 112 177 120 176 130 176 141 176 153 177 159 178 166 179 " />
        </svg>