<?xml version="1.0" standalone="no"?>
    <svg width="256" height="256" xmlns="http://www.w3.org/2000/svg" version="1.1">
    <polyline stroke="black" stroke-width="3" stroke-linecap="round" fill="transparent" stroke-linejoin="round" points="101.221923828125 45.7607421875 108.4376220703125 51.24470520019531 111.90121459960938 52.68785095214844 111.90121459960938 52.68785095214844 " />
        <polyline stroke="black" stroke-width="3" stroke-linecap="round" fill="transparent" stroke-linejoin="round" points="156.06146240234375 28.73162078857422 152.309326171875 36.52461242675781 149.71163940429688 42.29718780517578 142.20724487304688 58.17181396484375 137.30059814453125 66.8306884765625 137.30059814453125 66.8306884765625 " />
        <polyline stroke="black" stroke-width="3" stroke-linecap="round" fill="transparent" stroke-linejoin="round" points="120.56005859375 66.25343322753906 133.83700561523438 61.923980712890625 147.40261840820313 58.17181396484375 158.0819091796875 54.131004333496094 160.6795654296875 52.11058807373047 160.6795654296875 52.11058807373047 " />
        <polyline stroke="black" stroke-width="3" stroke-linecap="round" fill="transparent" stroke-linejoin="round" points="124.60089111328124 37.10186004638672 119.69418334960938 59.326324462890625 113.3443603515625 80.68489074707031 105.8399658203125 100.88894653320313 96.02658081054688 121.95887756347656 87.65631103515625 138.1221160888672 80.729248046875 149.37867736816406 74.09075927734375 161.7897186279297 71.2044677734375 165.25328063964844 71.2044677734375 165.25328063964844 " />
        <polyline stroke="black" stroke-width="3" stroke-linecap="round" fill="transparent" stroke-linejoin="round" points="137.30059814453125 82.99392700195313 160.102294921875 94.25047302246094 185.50164794921875 107.52740478515624 209.4578857421875 119.07258605957033 229.373291015625 127.73146057128906 246.4024658203125 134.65858459472656 256.50445556640625 138.69937133789063 256.50445556640625 138.69937133789063 " />
        <polyline stroke="black" stroke-width="3" stroke-linecap="round" fill="transparent" stroke-linejoin="round" points="104.10818481445313 150.82180786132813 107.28311157226563 163.81008911132813 112.1898193359375 176.79844665527344 114.49887084960938 181.99375915527344 115.65338134765624 183.7255401611328 115.65338134765624 183.7255401611328 " />
        <polyline stroke="black" stroke-width="3" stroke-linecap="round" fill="transparent" stroke-linejoin="round" points="122.5804443359375 121.95887756347656 126.62130737304688 119.93849182128906 132.97113037109375 117.34080505371094 147.40261840820313 113.3000030517578 159.5250244140625 110.990966796875 168.4725341796875 110.41371154785156 175.399658203125 110.990966796875 182.61541748046875 113.3000030517578 188.387939453125 117.34080505371094 192.42877197265625 125.71104431152344 194.73779296875 140.7197723388672 194.73779296875 156.8830108642578 193.00604248046875 171.89175415039063 190.69696044921875 180.8392333984375 190.69696044921875 180.8392333984375 " />
        <polyline stroke="black" stroke-width="3" stroke-linecap="round" fill="transparent" stroke-linejoin="round" points="132.39385986328125 172.18035888671875 147.40261840820313 172.468994140625 164.7203369140625 174.20077514648438 177.13140869140625 176.22117614746094 177.13140869140625 176.22117614746094 " />
        </svg>