<?xml version="1.0" standalone="no"?>
    <svg width="256" height="256" xmlns="http://www.w3.org/2000/svg" version="1.1">
    <polyline stroke="black" stroke-width="3" stroke-linecap="round" fill="transparent" stroke-linejoin="round" points="71.306884765625 83.71995544433594 74.61129760742188 89.91571044921875 77.91571044921875 96.1114501953125 81.63314819335938 101.48110961914063 88.241943359375 109.74211120605467 96.916015625 115.11175537109376 103.9378662109375 115.52482604980467 103.9378662109375 115.52482604980467 " />
        <polyline stroke="black" stroke-width="3" stroke-linecap="round" fill="transparent" stroke-linejoin="round" points="156.395263671875 67.61099243164063 147.30816650390625 77.52420043945313 135.74276733398438 89.50267028808594 121.69906616210938 102.30722045898438 106.41619873046876 115.11175537109376 80.80706787109375 133.28598022460938 70.48080444335938 139.894775390625 56.437103271484375 148.56883239746094 51.06744384765625 151.87322998046875 50.2413330078125 152.2863006591797 55.19793701171875 149.3949432373047 63.458953857421875 145.26443481445313 89.8941650390625 134.93817138671875 129.13397216796875 123.37277221679688 150.612548828125 118.41616821289063 167.13458251953125 112.63346862792967 167.13458251953125 112.63346862792967 " />
        <polyline stroke="black" stroke-width="3" stroke-linecap="round" fill="transparent" stroke-linejoin="round" points="117.56854248046876 76.69808959960938 106.41619873046876 96.52450561523438 95.26385498046876 118.8292236328125 72.13299560546875 160.13424682617188 63.458953857421875 175.00405883789063 58.50238037109375 181.61285400390625 57.26318359375 182.43896484375 57.26318359375 182.02590942382813 57.26318359375 182.02590942382813 " />
        <polyline stroke="black" stroke-width="3" stroke-linecap="round" fill="transparent" stroke-linejoin="round" points="113.85107421875 132.87295532226563 129.54696655273438 134.52513122558594 143.5906982421875 137.82955932617188 148.96038818359375 139.4817352294922 157.22137451171875 142.3730926513672 163.4171142578125 145.26443481445313 163.8302001953125 146.09054565429688 163.8302001953125 146.09054565429688 " />
        <polyline stroke="black" stroke-width="3" stroke-linecap="round" fill="transparent" stroke-linejoin="round" points="89.48114013671875 198.54791259765625 84.1114501953125 213.00469970703125 81.22015380859375 219.61349487304688 80.39401245117188 220.8526306152344 80.80706787109375 219.200439453125 83.28536987304688 215.48297119140625 99.807373046875 194.00436401367188 106.41619873046876 187.39556884765625 125.82955932617188 171.28660583496094 137.8079833984375 165.50390625 146.48202514648438 163.85171508789063 151.85174560546875 164.67779541015625 154.7430419921875 170.87356567382813 151.43865966796875 190.69998168945313 138.22103881835938 213.00469970703125 122.93817138671876 225.80923461914065 105.177001953125 234.07025146484375 98.98129272460938 236.135498046875 90.30722045898438 237.3746337890625 90.30722045898438 236.135498046875 96.08993530273438 231.17889404296875 109.30755615234376 224.983154296875 117.15548706054688 223.3309326171875 134.09054565429688 225.39617919921875 134.09054565429688 225.39617919921875 " />
        </svg>