<?xml version="1.0" standalone="no"?>
    <svg width="256" height="256" xmlns="http://www.w3.org/2000/svg" version="1.1">
    <polyline stroke="black" stroke-width="3" stroke-linecap="round" fill="transparent" stroke-linejoin="round" points="67.56417846679688 88.47602844238281 72.175537109375 94.00968933105467 76.78695678710938 98.62106323242188 98.92156982421876 106.92156982421876 98.92156982421876 106.92156982421876 " />
        <polyline stroke="black" stroke-width="3" stroke-linecap="round" fill="transparent" stroke-linejoin="round" points="139.501708984375 76.94758605957031 119.21163940429688 94.00968933105467 100.30499267578124 109.22723388671876 84.16513061523438 121.21682739257813 62.030517578125 135.51211547851563 55.11346435546875 139.662353515625 48.196380615234375 142.89031982421875 47.27410888671875 142.42918395996094 57.41912841796875 137.8177947998047 70.33099365234375 132.7452850341797 118.28939819335938 118.4499969482422 146.41879272460938 113.838623046875 170.85906982421875 110.14952087402344 182.84869384765625 105.999267578125 182.84869384765625 105.999267578125 " />
        <polyline stroke="black" stroke-width="3" stroke-linecap="round" fill="transparent" stroke-linejoin="round" points="109.52777099609376 83.86465454101563 86.93197631835938 136.89553833007813 78.17034912109375 153.9576416015625 71.25326538085938 167.79177856445313 61.56939697265625 184.39276123046875 57.41912841796875 189.9263916015625 56.9580078125 189.46527099609375 59.724822998046875 183.93161010742188 69.40869140625 172.40313720703125 81.85946655273438 162.71923828125 101.22723388671876 154.87991333007813 123.822998046875 151.65194702148438 145.9576416015625 153.03533935546875 164.8642578125 156.72447204589844 177.3150634765625 161.33584594726563 177.3150634765625 161.33584594726563 " />
        <polyline stroke="black" stroke-width="3" stroke-linecap="round" fill="transparent" stroke-linejoin="round" points="92.00448608398438 202.8382568359375 90.159912109375 207.9107666015625 87.854248046875 216.21127319335935 87.854248046875 216.67242431640625 88.31536865234375 215.7501220703125 91.08221435546876 212.06103515625 103.07177734375 196.84347534179688 118.28939819335938 179.78135681152344 134.42919921875 167.33062744140625 149.646728515625 160.87472534179688 163.9420166015625 159.49130249023438 172.70361328125 161.79698181152344 175.931640625 165.486083984375 169.93682861328125 178.85906982421875 144.57421875 200.5325927734375 114.13912963867188 216.67242431640625 94.77133178710938 221.2837829589844 86.93197631835938 221.2837829589844 86.00970458984375 220.36151123046875 90.62106323242188 218.05581665039065 108.144287109375 215.7501220703125 108.144287109375 215.7501220703125 " />
        </svg>