<?xml version="1.0" standalone="no"?>
    <svg width="256" height="256" xmlns="http://www.w3.org/2000/svg" version="1.1">
    <polyline stroke="black" stroke-width="3" stroke-linecap="round" fill="transparent" stroke-linejoin="round" points="110.17599487304688 104.595458984375 110.17599487304688 104.595458984375 " />
        <polyline stroke="black" stroke-width="3" stroke-linecap="round" fill="transparent" stroke-linejoin="round" points="162.04327392578125 71.25227355957031 137.34454345703125 95.950927734375 114.29244995117188 118.59138488769533 104.41299438476563 127.23591613769533 104.41299438476563 127.23591613769533 " />
        <polyline stroke="black" stroke-width="3" stroke-linecap="round" fill="transparent" stroke-linejoin="round" points="104.0013427734375 113.24000549316406 132.81646728515625 99.65574645996094 160.80828857421875 86.894775390625 169.86444091796875 83.18997192382813 169.86444091796875 83.18997192382813 " />
        <polyline stroke="black" stroke-width="3" stroke-linecap="round" fill="transparent" stroke-linejoin="round" points="120.05545043945313 89.77627563476563 109.35272216796876 119.82632446289063 98.23834228515624 149.87637329101563 85.88897705078125 179.10311889648438 78.4793701171875 192.6873779296875 78.4793701171875 192.6873779296875 " />
        <polyline stroke="black" stroke-width="3" stroke-linecap="round" fill="transparent" stroke-linejoin="round" points="173.15765380859375 131.3523712158203 204.442626953125 150.2880096435547 231.199462890625 168.81201171875 250.9583740234375 181.5729827880859 250.9583740234375 181.5729827880859 " />
        <polyline stroke="black" stroke-width="3" stroke-linecap="round" fill="transparent" stroke-linejoin="round" points="98.23834228515624 189.80587768554688 100.70822143554688 203.80181884765625 100.70822143554688 206.27166748046875 100.70822143554688 206.27166748046875 " />
        <polyline stroke="black" stroke-width="3" stroke-linecap="round" fill="transparent" stroke-linejoin="round" points="144.34246826171875 142.87841796875 161.63153076171875 140.8201904296875 169.04119873046875 139.9969024658203 176.8624267578125 140.40855407714844 184.68365478515625 142.46676635742188 189.62335205078125 146.99485778808594 191.681640625 157.2859649658203 189.211669921875 173.75173950195313 183.8603515625 192.6873779296875 176.45074462890625 212.03463745117188 176.45074462890625 212.03463745117188 " />
        <polyline stroke="black" stroke-width="3" stroke-linecap="round" fill="transparent" stroke-linejoin="round" points="141.87261962890625 202.15521240234375 163.6898193359375 202.97848510742188 184.27203369140625 206.68328857421875 187.15350341796875 207.09494018554688 187.15350341796875 207.09494018554688 " />
        </svg>