<?xml version="1.0" standalone="no"?>
    <svg width="256" height="256" xmlns="http://www.w3.org/2000/svg" version="1.1">
    <polyline stroke="black" stroke-width="3" stroke-linecap="round" fill="transparent" stroke-linejoin="round" points="70.84457397460938 56.11616516113281 80.40020751953125 67.79525756835938 91.72540283203124 78.0587158203125 100.21929931640624 82.3056640625 100.21929931640624 82.3056640625 " />
        <polyline stroke="black" stroke-width="3" stroke-linecap="round" fill="transparent" stroke-linejoin="round" points="143.39654541015625 46.914451599121094 116.49920654296876 75.58132934570313 88.18624877929688 104.24819946289063 77.2149658203125 114.86557006835938 68.3671875 123.00553894042967 55.6263427734375 132.20724487304688 50.31768798828125 135.3924560546875 49.9637451171875 135.03854370117188 60.935028076171875 127.96031188964844 93.848876953125 110.97251892089844 126.76266479492188 98.58560180664063 154.013916015625 89.38389587402344 176.664306640625 78.76654052734375 176.664306640625 78.76654052734375 " />
        <polyline stroke="black" stroke-width="3" stroke-linecap="round" fill="transparent" stroke-linejoin="round" points="91.3714599609375 78.0587158203125 81.81585693359375 105.6638641357422 65.535888671875 142.11679077148438 59.873291015625 153.0880584716797 55.6263427734375 160.1663055419922 49.9637451171875 167.59844970703125 49.255950927734375 168.3062744140625 49.255950927734375 168.3062744140625 " />
        <polyline stroke="black" stroke-width="3" stroke-linecap="round" fill="transparent" stroke-linejoin="round" points="104.82012939453124 138.2237548828125 116.49920654296876 140.34722900390625 127.82440185546876 142.82461547851563 149.41302490234375 147.77938842773438 160.73822021484375 148.8411102294922 160.73822021484375 148.8411102294922 " />
        <polyline stroke="black" stroke-width="3" stroke-linecap="round" fill="transparent" stroke-linejoin="round" points="76.50717163085938 196.26531982421875 75.79931640625 206.52877807617188 75.44540405273438 209.7139892578125 74.73760986328125 212.5452880859375 74.73760986328125 211.48355102539065 78.98455810546875 200.15835571289065 88.5401611328125 183.5245056152344 99.51144409179688 170.78366088867188 113.31402587890624 162.6436767578125 128.17831420898438 159.8123779296875 139.50350952148438 161.22802734375 146.58172607421875 165.12107849121094 149.41302490234375 172.55322265625 145.52001953125 186.709716796875 132.7791748046875 200.5122985839844 132.7791748046875 200.5122985839844 " />
        <polyline stroke="black" stroke-width="3" stroke-linecap="round" fill="transparent" stroke-linejoin="round" points="93.848876953125 224.224365234375 99.8653564453125 222.454833984375 105.5279541015625 221.0391845703125 109.77490234375 220.33135986328125 115.7913818359375 219.9774475097656 115.7913818359375 219.9774475097656 " />
        </svg>