<?xml version="1.0" standalone="no"?>
    <svg width="256" height="256" xmlns="http://www.w3.org/2000/svg" version="1.1">
    <polyline stroke="black" stroke-width="3" stroke-linecap="round" fill="transparent" stroke-linejoin="round" points="129.9420166015625 47.328819274902344 111.87176513671876 72.49809265136719 87.99322509765625 98.312744140625 69.9229736328125 116.38299560546876 54.4342041015625 128.6449432373047 46.6898193359375 132.51715087890625 43.46295166015625 129.29031372070313 43.46295166015625 129.29031372070313 " />
        <polyline stroke="black" stroke-width="3" stroke-linecap="round" fill="transparent" stroke-linejoin="round" points="77.6673583984375 76.37030029296875 93.801513671875 82.1785888671875 118.325439453125 91.8590850830078 140.26788330078125 99.6034698486328 158.9835205078125 106.70249938964844 176.40838623046875 111.8654327392578 176.40838623046875 111.8654327392578 " />
        <polyline stroke="black" stroke-width="3" stroke-linecap="round" fill="transparent" stroke-linejoin="round" points="177.0537109375 133.16250610351563 144.14007568359375 144.13372802734375 107.35421752929688 160.26788330078125 89.28396606445313 169.30300903320313 74.4405517578125 177.69276428222656 67.34152221679688 182.2103271484375 67.34152221679688 182.2103271484375 " />
        <polyline stroke="black" stroke-width="3" stroke-linecap="round" fill="transparent" stroke-linejoin="round" points="120.26153564453124 139.6161651611328 115.74395751953124 155.7503204345703 112.51715087890624 174.4659423828125 112.51715087890624 192.53619384765625 115.74395751953124 207.37960815429688 120.90692138671876 216.41473388671875 130.58740234375 222.868408203125 145.43081665039063 224.80450439453125 160.91961669921875 220.93228149414065 170.60009765625 213.83328247070313 177.6990966796875 204.15277099609375 182.862060546875 189.9547119140625 181.5712890625 167.36691284179688 181.5712890625 167.36691284179688 " />
        </svg>