<?xml version="1.0" standalone="no"?>
    <svg width="256" height="256" xmlns="http://www.w3.org/2000/svg" version="1.1">
    <polyline stroke="black" stroke-width="3" stroke-linecap="round" fill="transparent" stroke-linejoin="round" points="118.9708251953125 62.09077453613281 107.35421752929688 75.64346313476563 93.15615844726563 89.84152221679688 78.9581298828125 103.39421081542967 67.34152221679688 113.07469177246094 60.88787841796875 118.23762512207033 60.88787841796875 118.23762512207033 " />
        <polyline stroke="black" stroke-width="3" stroke-linecap="round" fill="transparent" stroke-linejoin="round" points="77.02200317382813 76.9342041015625 91.86541748046876 80.16102600097656 111.22640991210938 85.96931457519531 130.58740234375 93.06834411621094 155.111328125 100.812744140625 155.111328125 100.812744140625 " />
        <polyline stroke="black" stroke-width="3" stroke-linecap="round" fill="transparent" stroke-linejoin="round" points="155.111328125 118.88299560546876 137.6864013671875 127.2727508544922 114.4532470703125 140.825439453125 94.4468994140625 153.08738708496094 77.6673583984375 163.4132537841797 66.05078125 169.22154235839844 60.24249267578125 171.1576385498047 60.24249267578125 171.1576385498047 " />
        <polyline stroke="black" stroke-width="3" stroke-linecap="round" fill="transparent" stroke-linejoin="round" points="85.41177368164063 131.1449432373047 82.1849365234375 145.34300231933594 78.312744140625 162.76788330078125 77.6673583984375 181.48350524902344 79.60345458984375 196.32693481445313 87.34786987304688 207.29815673828125 102.1912841796875 215.6878967285156 120.26153564453124 219.56008911132813 137.04107666015625 218.91473388671875 149.30300903320313 215.6878967285156 157.6927490234375 211.17034912109375 164.14642333984375 206.0074157714844 168.66400146484375 198.90838623046875 169.309326171875 191.16400146484375 166.7279052734375 169.86691284179688 166.7279052734375 169.86691284179688 " />
        </svg>