<?xml version="1.0" standalone="no"?>
    <svg width="256" height="256" xmlns="http://www.w3.org/2000/svg" version="1.1">
    <polyline stroke="black" stroke-width="3" stroke-linecap="round" fill="transparent" stroke-linejoin="round" points="140.7333984375 60 125.80010986328124 85.60000610351563 107.666748046875 109.06668090820313 83.1334228515625 135.73338317871094 72.466796875 144.26669311523438 63.93341064453125 146.40003967285156 63.93341064453125 146.40003967285156 " />
        <polyline stroke="black" stroke-width="3" stroke-linecap="round" fill="transparent" stroke-linejoin="round" points="142.86669921875 100.53335571289063 155.666748046875 105.86669921875 161 109.06668090820313 163.1334228515625 111.20002746582033 163.1334228515625 111.20002746582033 " />
        <polyline stroke="black" stroke-width="3" stroke-linecap="round" fill="transparent" stroke-linejoin="round" points="155.666748046875 143.20001220703125 135.4000244140625 157.06671142578125 117.2667236328125 167.73338317871094 107.666748046875 168.80001831054688 99.1334228515625 166.6666717529297 99.1334228515625 166.6666717529297 " />
        <polyline stroke="black" stroke-width="3" stroke-linecap="round" fill="transparent" stroke-linejoin="round" points="106.60003662109376 162.40003967285156 105.53338623046876 182.66668701171875 105.53338623046876 195.4666748046875 107.666748046875 202.933349609375 116.2000732421875 212.53335571289065 129 216.80001831054688 150.3333740234375 218.933349609375 172.7333984375 218.933349609375 188.7333984375 220.00003051757813 201.533447265625 221.06671142578125 207.933349609375 221.06671142578125 214.3333740234375 222.13336181640625 217.533447265625 222.13336181640625 220.7333984375 222.13336181640625 221.800048828125 222.13336181640625 222.86669921875 222.13336181640625 222.86669921875 221.06671142578125 222.86669921875 212.53335571289065 218.60009765625 195.4666748046875 214.3333740234375 184.80001831054688 214.3333740234375 184.80001831054688 " />
        </svg>