<?xml version="1.0" standalone="no"?>
    <svg width="256" height="256" xmlns="http://www.w3.org/2000/svg" version="1.1">
    <polyline stroke="black" stroke-width="3" stroke-linecap="round" fill="transparent" stroke-linejoin="round" points="57.114166259765625 39.88233947753906 60.76812744140625 51.453269958496094 64.422119140625 59.37022399902344 69.903076171875 69.72315979003906 76.60205078125 79.46710205078125 81.47402954101563 86.16606140136719 86.34600830078125 89.82003784179688 89.99996948242188 87.38406372070313 89.99996948242188 87.38406372070313 " />
        <polyline stroke="black" stroke-width="3" stroke-linecap="round" fill="transparent" stroke-linejoin="round" points="100.3529052734375 53.28025817871094 109.48785400390624 58.76123046875 116.18682861328124 63.63319396972656 122.88580322265624 69.72315979003906 131.4117431640625 75.20413208007813 145.41864013671875 77.03111267089844 145.41864013671875 77.03111267089844 " />
        <polyline stroke="black" stroke-width="3" stroke-linecap="round" fill="transparent" stroke-linejoin="round" points="187.43939208984375 42.92732238769531 180.1314697265625 57.54322814941406 163.68853759765625 80.68510437011719 138.11068725585938 108.6989288330078 122.88580322265624 125.141845703125 122.88580322265624 125.141845703125 " />
        <polyline stroke="black" stroke-width="3" stroke-linecap="round" fill="transparent" stroke-linejoin="round" points="80.25604248046875 116.00689697265624 77.82003784179688 126.96882629394533 72.94805908203125 137.93077087402344 68.07611083984375 150.71969604492188 64.422119140625 160.46363830566406 61.98614501953125 166.55360412597656 60.76812744140625 169.5985870361328 63.204132080078125 167.16259765625 68.68511962890625 161.0726318359375 78.42904663085938 150.71969604492188 94.262939453125 136.7127685546875 118.622802734375 121.48785400390624 147.24563598632813 109.91693115234376 169.77850341796875 106.26295471191406 187.43939208984375 107.48094177246094 198.4013671875 112.9619140625 207.5362548828125 126.96882629394533 210.581298828125 154.982666015625 203.2733154296875 182.9964904785156 189.266357421875 203.702392578125 178.9134521484375 214.664306640625 162.4705810546875 225.62625122070313 146.02764892578125 229.28024291992188 132.62973022460938 226.2352600097656 122.88580322265624 212.22833251953125 122.88580322265624 212.22833251953125 " />
        <polyline stroke="black" stroke-width="3" stroke-linecap="round" fill="transparent" stroke-linejoin="round" points="117.40481567382813 133.0587921142578 113.141845703125 142.19374084472656 104.00689697265624 159.85464477539063 86.34600830078125 192.74044799804688 79.64703369140625 206.13836669921875 75.38406372070313 212.83734130859375 75.38406372070313 212.83734130859375 82.0830078125 205.52935791015625 82.0830078125 205.52935791015625 " />
        <polyline stroke="black" stroke-width="3" stroke-linecap="round" fill="transparent" stroke-linejoin="round" points="148.463623046875 135.49478149414063 144.20065307617188 154.982666015625 136.28369140625 173.86155700683594 127.14874267578124 193.34945678710935 118.622802734375 210.40133666992188 111.923828125 229.28024291992188 111.923828125 229.28024291992188 " />
        </svg>