<?xml version="1.0" standalone="no"?>
    <svg width="256" height="256" xmlns="http://www.w3.org/2000/svg" version="1.1">
    <polyline stroke="black" stroke-width="3" stroke-linecap="round" fill="transparent" stroke-linejoin="round" points="97.80999755859376 82.47468566894531 104.54248046875 80.60453796386719 119.87777709960938 76.49020385742188 136.70916748046875 71.62779235839844 152.79248046875 66.391357421875 164.761474609375 62.27703857421875 171.1199951171875 60.0328369140625 172.9901123046875 58.91075134277344 172.9901123046875 58.91075134277344 " />
        <polyline stroke="black" stroke-width="3" stroke-linecap="round" fill="transparent" stroke-linejoin="round" points="119.12973022460938 103.04637145996094 115.015380859375 110.5269775390625 110.5269775390625 119.12969970703124 104.91650390625 130.7246551513672 88.83322143554688 162.5172576904297 76.49020385742188 188.69940185546875 68.63555908203125 205.15676879882813 66.017333984375 210.7672119140625 66.017333984375 210.7672119140625 " />
        <polyline stroke="black" stroke-width="3" stroke-linecap="round" fill="transparent" stroke-linejoin="round" points="117.633544921875 129.60256958007813 123.61810302734376 126.61032104492188 129.6025390625 123.99209594726563 141.571533203125 120.25180053710938 147.18197631835938 119.87774658203124 152.41845703125 120.25180053710938 161.02117919921875 123.99209594726563 168.87579345703125 134.46495056152344 175.60833740234375 159.15098571777344 175.60833740234375 187.20330810546875 171.4940185546875 208.5230407714844 167.005615234375 220.11798095703125 162.51727294921875 225.35443115234375 143.44171142578125 221.9881591796875 132.96884155273438 215.25558471679688 132.96884155273438 215.25558471679688 " />
        </svg>