<?xml version="1.0" standalone="no"?>
    <svg width="256" height="256" xmlns="http://www.w3.org/2000/svg" version="1.1">
    <polyline stroke="black" stroke-width="3" stroke-linecap="round" fill="transparent" stroke-linejoin="round" points="83.68856811523438 90.9385986328125 92.24630737304688 85.11935424804688 101.48861694335938 79.9847412109375 122.02706909179688 70.40011596679688 142.90789794921875 61.842437744140625 159.68096923828125 56.023193359375 161.0501708984375 55.680870056152344 160.3656005859375 56.36549377441406 152.150146484375 61.842437744140625 138.45785522460938 72.7962646484375 124.08090209960938 86.83090209960938 105.25399780273438 115.92706298828124 89.5078125 152.2117156982422 79.92318725585938 177.54251098632813 74.78857421875 191.91943359375 72.39242553710938 196.7117919921875 72.05010986328125 196.02716064453125 76.50009155273438 187.46945190429688 87.11166381835938 167.9578857421875 100.11935424804688 148.78863525390625 111.7578125 136.46556091308594 124.76556396484376 127.90786743164063 137.088623046875 124.48478698730467 148.72711181640625 126.5386199951172 157.62713623046875 132.70016479492188 164.8155517578125 145.02325439453125 165.842529296875 162.48095703125 160.0233154296875 176.17327880859375 147.35784912109375 185.07330322265625 125.45016479492188 188.83868408203125 125.45016479492188 188.83868408203125 " />
        </svg>