<?xml version="1.0" standalone="no"?>
    <svg width="256" height="256" xmlns="http://www.w3.org/2000/svg" version="1.1">
    <polyline stroke="black" stroke-width="3" stroke-linecap="round" fill="transparent" stroke-linejoin="round" points="75.47320556640625 109.76553344726563 83.00399780273438 103.60398864746094 93.273193359375 96.41552734375 113.81170654296876 84.09243774414063 124.4232177734375 78.95782470703125 146.3309326171875 69.71549987792969 165.15789794921875 62.52703857421875 175.0848388671875 59.446258544921875 176.79638671875 59.446258544921875 176.79638671875 59.446258544921875 " />
        <polyline stroke="black" stroke-width="3" stroke-linecap="round" fill="transparent" stroke-linejoin="round" points="108.67709350585938 125.51170349121094 100.803955078125 144.33865356445313 93.273193359375 161.45404052734375 86.42706298828125 177.8848114013672 80.95013427734375 190.89251708984375 74.44625854492188 208.0079345703125 71.70782470703125 214.51177978515625 71.365478515625 215.5386962890625 71.365478515625 215.5386962890625 " />
        <polyline stroke="black" stroke-width="3" stroke-linecap="round" fill="transparent" stroke-linejoin="round" points="129.900146484375 142.2847900390625 138.11557006835938 138.86172485351563 149.06942749023438 135.43862915039063 161.39251708984375 133.7270965576172 168.2386474609375 135.78094482421875 172.68865966796875 144.33865356445313 173.715576171875 166.93096923828125 169.26556396484375 187.46945190429688 166.527099609375 193.97329711914065 156.25787353515625 204.92718505859375 143.25018310546875 206.98101806640625 129.21554565429688 197.73870849609375 129.21554565429688 197.73870849609375 " />
        </svg>