<?xml version="1.0" standalone="no"?>
    <svg width="256" height="256" xmlns="http://www.w3.org/2000/svg" version="1.1">
    <polyline stroke="black" stroke-width="3" stroke-linecap="round" fill="transparent" stroke-linejoin="round" points="82.43511962890625 69.14190673828125 94.54217529296876 67.93991088867188 120.84271240234376 64.8782958984375 145.67462158203125 62.83116149902344 158.03485107421875 62.87428283691406 177.3282470703125 64.24026489257813 185.1112060546875 65.14141845703125 196.35565185546875 65.3758544921875 197.55853271484375 65.30181884765625 197.566650390625 65.30133056640625 197.568603515625 65.30122375488281 " />
        <polyline stroke="black" stroke-width="3" stroke-linecap="round" fill="transparent" stroke-linejoin="round" points="123.91107177734376 105.02044677734376 131.16659545898438 105.0394287109375 138.54135131835938 105.5500946044922 145.43991088867188 106.210693359375 156.5245361328125 107.50180053710938 163.8585205078125 109.07949829101563 166.6070556640625 110.12838745117188 171.0242919921875 115.75498962402344 174.0555419921875 124.25828552246094 175.77685546875 146.686767578125 174.9552001953125 159.27789306640625 167.4300537109375 186.8251953125 162.247802734375 198.7787170410156 151.89111328125 216.29974365234375 143.8724365234375 222.8740234375 141.35345458984375 223.2110595703125 137.774658203125 222.5552978515625 136.04037475585938 222.37905883789065 132.42611694335938 220.3946533203125 128.7958984375 217.48486328125 122.336669921875 211.29498291015625 121.87680053710938 210.39108276367188 " />
        <polyline stroke="black" stroke-width="3" stroke-linecap="round" fill="transparent" stroke-linejoin="round" points="102.635498046875 108.72186279296876 97.34100341796876 132.67642211914063 93.21630859375 144.64793395996094 84.02645874023438 165.43955993652344 75.306396484375 186.39865112304688 69.79342651367188 199.44790649414065 63.66082763671875 213.3675537109375 63.519500732421875 213.61163330078125 " />
        </svg>