<?xml version="1.0" standalone="no"?>
    <svg width="256" height="256" xmlns="http://www.w3.org/2000/svg" version="1.1">
    <polyline stroke="black" stroke-width="3" stroke-linecap="round" fill="transparent" stroke-linejoin="round" points="36.888916015625 106.4444580078125 59.11114501953125 98.44444274902344 68.88897705078125 95.7777862548828 77.77783203125 94 87.5555419921875 94 87.5555419921875 94 " />
        <polyline stroke="black" stroke-width="3" stroke-linecap="round" fill="transparent" stroke-linejoin="round" points="61.77777099609375 142.88888549804688 85.77777099609375 134.888916015625 93.77777099609376 133.1111297607422 97.33331298828124 132.22222900390625 97.33331298828124 141.11111450195313 94.66668701171876 158 90.22222900390624 175.7777862548828 86.666748046875 191.77777099609375 80.4444580078125 207.77777099609375 77.77783203125 210.44448852539065 71.5555419921875 207.77777099609375 64.44451904296875 198 64.44451904296875 198 " />
        <polyline stroke="black" stroke-width="3" stroke-linecap="round" fill="transparent" stroke-linejoin="round" points="56.4444580078125 110 55.55560302734375 139.33335876464844 51.11114501953125 163.3333282470703 43.11114501953125 183.77780151367188 36 202.4444580078125 31.5555419921875 211.33334350585935 28.88897705078125 213.11111450195313 28.88897705078125 213.11111450195313 " />
        <polyline stroke="black" stroke-width="3" stroke-linecap="round" fill="transparent" stroke-linejoin="round" points="132.888916015625 88.66667175292969 123.11114501953124 118 116.888916015625 136.6666717529297 112.4444580078125 148.2222442626953 109.77777099609376 155.3333282470703 107.11114501953124 158 107.11114501953124 158 " />
        <polyline stroke="black" stroke-width="3" stroke-linecap="round" fill="transparent" stroke-linejoin="round" points="129.33331298828125 118.88888549804688 155.11114501953125 111.7777862548828 164 110 175.55560302734375 109.11111450195313 179.11114501953125 114.44444274902344 179.11114501953125 114.44444274902344 " />
        <polyline stroke="black" stroke-width="3" stroke-linecap="round" fill="transparent" stroke-linejoin="round" points="119.5555419921875 160.6666717529297 136.4444580078125 153.55555725097656 156.888916015625 147.3333282470703 177.33331298828125 144.6666717529297 181.77777099609375 143.77780151367188 182.66668701171875 144.6666717529297 182.66668701171875 144.6666717529297 " />
        <polyline stroke="black" stroke-width="3" stroke-linecap="round" fill="transparent" stroke-linejoin="round" points="131.11114501953125 132.22222900390625 126.666748046875 152.6667022705078 125.77777099609376 160.6666717529297 124.888916015625 171.3333282470703 124 174.888916015625 124 176.6666717529297 124 176.6666717529297 " />
        <polyline stroke="black" stroke-width="3" stroke-linecap="round" fill="transparent" stroke-linejoin="round" points="140.00006103515625 134 138.22222900390625 156.22222900390625 138.22222900390625 171.3333282470703 139.11114501953125 178.44444274902344 140.888916015625 183.77780151367188 142.66668701171875 188.2222595214844 142.66668701171875 188.2222595214844 " />
        <polyline stroke="black" stroke-width="3" stroke-linecap="round" fill="transparent" stroke-linejoin="round" points="167.5555419921875 126.88888549804688 167.5555419921875 151.7777862548828 167.5555419921875 162.44444274902344 170.22222900390625 184.66665649414065 172 204.22222900390625 173.77777099609375 217.5555725097656 174.66668701171875 223.77780151367188 175.55560302734375 223.77780151367188 175.55560302734375 223.77780151367188 " />
        </svg>