<?xml version="1.0" standalone="no"?>
    <svg width="256" height="256" xmlns="http://www.w3.org/2000/svg" version="1.1">
    <polyline stroke="black" stroke-width="3" stroke-linecap="round" fill="transparent" stroke-linejoin="round" points="61 91 75 92 87 92 97 91 107 85 121 76 129 69 135 63 135 63 " />
        <polyline stroke="black" stroke-width="3" stroke-linecap="round" fill="transparent" stroke-linejoin="round" points="97 77 90 87 86 101 79 119 74 134 70 147 68 155 68 155 " />
        <polyline stroke="black" stroke-width="3" stroke-linecap="round" fill="transparent" stroke-linejoin="round" points="94 110 101 111 104 113 107 121 108 131 108 145 108 161 104 175 100 185 96 192 93 196 91 198 91 191 91 191 " />
        <polyline stroke="black" stroke-width="3" stroke-linecap="round" fill="transparent" stroke-linejoin="round" points="137 82 141 94 141 108 141 121 138 131 137 138 135 143 135 143 " />
        <polyline stroke="black" stroke-width="3" stroke-linecap="round" fill="transparent" stroke-linejoin="round" points="133 147 163 109 178 109 195 105 211 101 224 98 230 96 230 96 " />
        <polyline stroke="black" stroke-width="3" stroke-linecap="round" fill="transparent" stroke-linejoin="round" points="127 166 138 165 150 163 166 157 177 153 194 147 201 143 204 141 205 139 205 139 " />
        <polyline stroke="black" stroke-width="3" stroke-linecap="round" fill="transparent" stroke-linejoin="round" points="155 135 153 145 153 159 153 171 153 181 153 187 153 189 154 189 154 189 " />
        <polyline stroke="black" stroke-width="3" stroke-linecap="round" fill="transparent" stroke-linejoin="round" points="177 135 178 144 178 155 178 163 178 168 178 171 179 171 183 165 183 165 " />
        <polyline stroke="black" stroke-width="3" stroke-linecap="round" fill="transparent" stroke-linejoin="round" points="208 128 207 137 207 149 207 161 207 169 207 177 207 182 207 189 207 189 " />
        </svg>