<?xml version="1.0" standalone="no"?>
    <svg width="256" height="256" xmlns="http://www.w3.org/2000/svg" version="1.1">
    <polyline stroke="black" stroke-width="3" stroke-linecap="round" fill="transparent" stroke-linejoin="round" points="77 126 75 126 76 126 79 126 80 126 88 123 100 118 112 113 120 110 124 109 124 110 124 110 " />
        <polyline stroke="black" stroke-width="3" stroke-linecap="round" fill="transparent" stroke-linejoin="round" points="98 124 95 126 94 131 91 141 86 156 78 173 70 188 64 199 59 208 57 212 57 213 57 213 " />
        <polyline stroke="black" stroke-width="3" stroke-linecap="round" fill="transparent" stroke-linejoin="round" points="82 171 88 164 95 160 103 156 109 153 114 151 116 152 117 157 116 164 116 166 114 179 112 188 112 191 109 201 106 207 103 212 101 212 100 211 97 207 94 201 93 197 93 197 " />
        <polyline stroke="black" stroke-width="3" stroke-linecap="round" fill="transparent" stroke-linejoin="round" points="163 97 160 101 159 108 158 110 153 124 148 136 146 139 137 154 131 163 127 167 127 167 " />
        <polyline stroke="black" stroke-width="3" stroke-linecap="round" fill="transparent" stroke-linejoin="round" points="151 142 166 134 182 129 196 126 206 125 209 125 210 125 209 127 208 128 208 128 " />
        <polyline stroke="black" stroke-width="3" stroke-linecap="round" fill="transparent" stroke-linejoin="round" points="131 186 130 186 136 186 138 185 156 179 173 174 189 169 198 166 198 166 " />
        <polyline stroke="black" stroke-width="3" stroke-linecap="round" fill="transparent" stroke-linejoin="round" points="159 154 159 156 160 164 161 175 158 185 156 188 149 200 141 210 137 215 136 215 136 215 " />
        <polyline stroke="black" stroke-width="3" stroke-linecap="round" fill="transparent" stroke-linejoin="round" points="174 158 174 166 174 180 173 191 171 200 170 206 171 207 171 207 " />
        <polyline stroke="black" stroke-width="3" stroke-linecap="round" fill="transparent" stroke-linejoin="round" points="191 144 190 145 189 152 190 161 190 177 189 194 188 198 187 212 189 221 189 221 " />
        </svg>