<?xml version="1.0" standalone="no"?>
    <svg width="256" height="256" xmlns="http://www.w3.org/2000/svg" version="1.1">
    <polyline stroke="black" stroke-width="3" stroke-linecap="round" fill="transparent" stroke-linejoin="round" points="39 127 55 116 71 105 84 99 99 93 112 89 126 88 132 89 137 93 140 98 143 106 147 120 150 131 151 143 151 155 147 172 141 179 133 183 125 183 117 175 107 159 106 155 106 155 " />
        <polyline stroke="black" stroke-width="3" stroke-linecap="round" fill="transparent" stroke-linejoin="round" points="87 101 88 110 89 119 90 131 91 146 93 162 93 184 93 196 91 205 90 211 89 211 89 211 " />
        </svg>