<?xml version="1.0" standalone="no"?>
    <svg width="256" height="256" xmlns="http://www.w3.org/2000/svg" version="1.1">
    <polyline stroke="black" stroke-width="3" stroke-linecap="round" fill="transparent" stroke-linejoin="round" points="65.73959350585938 110.6570281982422 85.65353393554688 108.21022033691406 108.36224365234376 105.41372680664063 132.46875 102.9669189453125 143.29891967773438 101.91818237304688 153.43072509765625 100.86979675292967 162.51416015625 100.17041015625 171.24859619140625 99.47137451171876 178.93463134765625 99.82106018066406 185.57269287109375 100.52009582519533 191.51190185546875 101.91818237304688 196.053466796875 104.71469116210938 199.8966064453125 107.5111846923828 202.69140625 110.6570281982422 203.739501953125 114.15260314941406 204.0888671875 117.2987823486328 204.0888671875 120.79397583007813 203.739501953125 124.28952026367188 202.69140625 128.83380126953125 201.6434326171875 133.37808227539063 200.2459716796875 138.9707489013672 198.14990234375 144.5637664794922 195.7041015625 149.45741271972656 193.2586669921875 154.3509979248047 190.8128662109375 159.2449951171875 188.01806640625 163.78890991210938 185.57269287109375 169.0322265625 183.1268310546875 173.9261932373047 180.681396484375 177.77110290527344 178.58526611328125 180.5675811767578 176.48883056640625 183.0144195556641 174.74212646484375 185.11187744140625 172.99530029296875 187.90805053710935 171.24859619140625 189.65579223632813 171.24859619140625 189.65579223632813 " />
        <polyline stroke="black" stroke-width="3" stroke-linecap="round" fill="transparent" stroke-linejoin="round" points="123.38497924804688 114.50228881835938 109.75970458984376 128.134765625 96.83303833007813 148.75833129882813 89.845703125 161.34210205078125 83.55709838867188 172.87745666503906 77.9671630859375 183.71343994140625 72.7269287109375 194.2001037597656 68.18499755859375 202.93893432617188 63.992462158203125 210.2793884277344 60.49896240234375 216.22210693359375 58.053192138671875 221.46539306640625 58.053192138671875 221.46539306640625 " />
        </svg>