<?xml version="1.0" standalone="no"?>
    <svg width="256" height="256" xmlns="http://www.w3.org/2000/svg" version="1.1">
    <polyline stroke="black" stroke-width="3" stroke-linecap="round" fill="transparent" stroke-linejoin="round" points="57.144287109375 79.97329711914063 65.731689453125 76.71136474609375 74.319091796875 73.44943237304688 96.82354736328124 67.18569946289063 105.66552734375 64.783935546875 124.36447143554688 61.766021728515625 157.9967041015625 57.99382019042969 165.552734375 57.4981689453125 170.4276123046875 58.018524169921875 179.8411865234375 60.07929992675781 182.77838134765625 61.81744384765625 187.7698974609375 70.01388549804688 189.458984375 77.32765197753906 190.5015869140625 102.67575073242188 188.3668212890625 118.7991943359375 181.28759765625 146.72637939453125 177.8587646484375 160.0570068359375 169.83544921875 180.5731658935547 166.4251708984375 186.73971557617188 162.0880126953125 191.90353393554688 160.1595458984375 193.08645629882813 140.63998413085938 195.91900634765625 105.70724487304688 186.30938720703125 106.24249267578124 183.7822723388672 " />
        <polyline stroke="black" stroke-width="3" stroke-linecap="round" fill="transparent" stroke-linejoin="round" points="112.91516113281253 77.17709350585938 104.88568115234376 99.87890625 96.856201171875 122.58071899414063 91.1279296875 135.36770629882813 75.67742919921875 160.46836853027344 64.226806640625 172.73643493652344 60.876708984375 175.06370544433594 " />
        </svg>