<?xml version="1.0" standalone="no"?>
    <svg width="256" height="256" xmlns="http://www.w3.org/2000/svg" version="1.1">
    <polyline stroke="black" stroke-width="3" stroke-linecap="round" fill="transparent" stroke-linejoin="round" points="58.384521484375 89.45487976074219 84.7972412109375 82.66757202148438 108.49261474609376 80.35708618164063 123.440185546875 79.80401611328125 136.879638671875 79.61378479003906 150.12484741210938 80.21943664550781 170.9532470703125 80.981201171875 176.17791748046875 82.03028869628906 177.8848876953125 86.3062744140625 179.44110107421875 93.1793212890625 182.3538818359375 123.0259246826172 181.0648193359375 136.97515869140625 175.36865234375 161.27957153320313 172.38421630859375 171.03440856933594 159.6036376953125 186.57891845703125 153.1197509765625 192.05975341796875 146.050048828125 202.27462768554688 143.13055419921875 205.29351806640625 141.95111083984375 205.51226806640625 139.07415771484375 205.05142211914065 136.91439819335938 204.60223388671875 130.69381713867188 200.24163818359375 118.87081909179688 178.70901489257813 113.00567626953124 164.59329223632813 109.81005859375 146.5768280029297 110.51019287109376 144.0921630859375 " />
        <polyline stroke="black" stroke-width="3" stroke-linecap="round" fill="transparent" stroke-linejoin="round" points="113.54220581054688 103.70089721679688 104.87298583984376 118.08798217773438 96.44573974609376 136.640625 90.57427978515624 149.02476501464844 79.54486083984375 170.38609313964844 69.03317260742188 186.8558349609375 64.6190185546875 192.68072509765625 61.01953125 196.09878540039065 60.65960693359375 196.44061279296875 " />
        </svg>