<?xml version="1.0" standalone="no"?>
    <svg width="256" height="256" xmlns="http://www.w3.org/2000/svg" version="1.1">
    <polyline stroke="black" stroke-width="3" stroke-linecap="round" fill="transparent" stroke-linejoin="round" points="50 102 56 102 62 102 77 101 89 98 111 94 133 89 152 86 166 86 176 86 181 95 182 116 182 147 177 171 172 192 166 207 160 215 155 220 149 221 141 221 131 208 128 200 128 200 " />
        <polyline stroke="black" stroke-width="3" stroke-linecap="round" fill="transparent" stroke-linejoin="round" points="121 94 121 101 121 108 118 127 108 152 97 181 88 206 80 223 80 223 " />
        </svg>