<?xml version="1.0" standalone="no"?>
    <svg width="256" height="256" xmlns="http://www.w3.org/2000/svg" version="1.1">
    <polyline stroke="black" stroke-width="3" stroke-linecap="round" fill="transparent" stroke-linejoin="round" points="61.03192138671875 94.24539184570313 62.376220703125 97.38211059570313 63.72052001953125 100.51882934570313 70.4420166015625 105.8960418701172 70.4420166015625 105.8960418701172 " />
        <polyline stroke="black" stroke-width="3" stroke-linecap="round" fill="transparent" stroke-linejoin="round" points="119.73309326171876 79.0099639892578 110.322998046875 91.10870361328124 100.91290283203124 103.20744323730467 80.30026245117188 124.26815795898438 61.03192138671875 142.19219970703125 47.14080810546875 153.8428192138672 40.419281005859375 158.77191162109375 38.62689208984375 159.66812133789063 41.31549072265625 159.2200164794922 47.14080810546875 156.9795379638672 74.02685546875 145.77700805664063 91.95089721679688 137.711181640625 100.46478271484376 133.6782684326172 120.62933349609376 121.13145446777344 120.62933349609376 121.13145446777344 " />
        <polyline stroke="black" stroke-width="3" stroke-linecap="round" fill="transparent" stroke-linejoin="round" points="99.56857299804688 23.445465087890625 94.19137573242188 53.468223571777344 88.81417846679688 83.49098205566406 79.404052734375 121.57955932617188 66.40911865234375 161.46051025390625 56.9990234375 188.794677734375 52.069915771484375 204.03009033203125 49.82940673828125 208.959228515625 49.38128662109375 208.959228515625 49.38128662109375 208.959228515625 " />
        <polyline stroke="black" stroke-width="3" stroke-linecap="round" fill="transparent" stroke-linejoin="round" points="87.91796874999999 162.80482482910156 91.95089721679688 166.83773803710938 95.98382568359376 170.8706512451172 100.01669311523438 174.90354919433594 107.6343994140625 181.62506103515625 111.21920776367188 183.86557006835935 111.21920776367188 183.86557006835935 " />
        <polyline stroke="black" stroke-width="3" stroke-linecap="round" fill="transparent" stroke-linejoin="round" points="143.9305419921875 75.87326049804688 151.54827880859375 71.39225769042969 159.166015625 66.9112548828125 166.78369140625 62.43023681640625 181.1229248046875 55.26063537597656 186.50018310546875 53.02012634277344 190.98114013671875 51.22772216796875 194.11785888671875 49.8834228515625 194.11785888671875 49.8834228515625 " />
        <polyline stroke="black" stroke-width="3" stroke-linecap="round" fill="transparent" stroke-linejoin="round" points="162.3026123046875 78.56187438964845 158.269775390625 89.31629943847656 154.2369384765625 100.07072448730467 150.2039794921875 111.72134399414063 143.03436279296875 135.47068786621094 131.38372802734375 174.4554443359375 127.350830078125 184.76177978515625 127.350830078125 184.76177978515625 " />
        <polyline stroke="black" stroke-width="3" stroke-linecap="round" fill="transparent" stroke-linejoin="round" points="143.482421875 135.47068786621094 148.85968017578125 132.78208923339844 154.2369384765625 130.09349060058594 160.06219482421875 127.40487670898438 172.6090087890625 124.71627807617188 189.188720703125 127.85296630859376 198.598876953125 137.711181640625 207.5609130859375 157.87571716308594 210.6976318359375 178.9364471435547 209.353271484375 192.82757568359375 208.00897216796875 197.30859375 203.97607421875 203.58200073242188 194.11785888671875 208.959228515625 183.36346435546875 210.30352783203125 183.36346435546875 210.30352783203125 " />
        </svg>