<?xml version="1.0" standalone="no"?>
    <svg width="256" height="256" xmlns="http://www.w3.org/2000/svg" version="1.1">
    <polyline stroke="black" stroke-width="3" stroke-linecap="round" fill="transparent" stroke-linejoin="round" points="59.955413818359375 103.36051940917967 66.13006591796875 106.6536865234375 72.30471801757813 109.94685363769533 72.30471801757813 109.94685363769533 " />
        <polyline stroke="black" stroke-width="3" stroke-linecap="round" fill="transparent" stroke-linejoin="round" points="127.46502685546875 64.66596984863281 106.47119140625 89.77627563476563 85.47735595703125 114.88658142089844 74.36297607421875 127.23591613769533 74.36297607421875 127.23591613769533 " />
        <polyline stroke="black" stroke-width="3" stroke-linecap="round" fill="transparent" stroke-linejoin="round" points="57.485565185546875 133.41058349609375 74.77459716796875 128.0592041015625 92.06362915039063 122.70782470703124 113.88079833984376 116.5331573486328 123.3486328125 112.828369140625 123.3486328125 112.828369140625 " />
        <polyline stroke="black" stroke-width="3" stroke-linecap="round" fill="transparent" stroke-linejoin="round" points="84.65408325195313 78.25022888183594 80.53762817382813 106.6536865234375 76.42117309570313 135.05714416503906 73.12799072265625 158.93255615234375 69.0115966796875 177.86819458007813 64.8951416015625 189.80587768554688 62.425262451171875 195.15725708007813 62.425262451171875 195.15725708007813 " />
        <polyline stroke="black" stroke-width="3" stroke-linecap="round" fill="transparent" stroke-linejoin="round" points="83.83084106445313 155.2277374267578 93.29861450195313 162.22569274902344 102.76638793945313 169.22364807128906 111.41098022460938 174.98666381835938 111.41098022460938 174.98666381835938 " />
        <polyline stroke="black" stroke-width="3" stroke-linecap="round" fill="transparent" stroke-linejoin="round" points="150.1055908203125 79.48515319824219 173.15765380859375 74.54542541503906 196.209716796875 69.60569763183594 212.26385498046875 66.31253051757813 215.1453857421875 65.90090942382813 215.1453857421875 65.90090942382813 " />
        <polyline stroke="black" stroke-width="3" stroke-linecap="round" fill="transparent" stroke-linejoin="round" points="152.98699951171875 123.94276428222653 167.80621337890625 120.6496124267578 182.62542724609375 117.35646057128906 194.56317138671875 116.12150573730467 201.14947509765625 116.12150573730467 208.1473388671875 118.17971801757813 212.67547607421875 125.58932495117188 213.08709716796875 151.1112823486328 205.677490234375 179.51475524902344 195.79803466796875 206.27166748046875 187.565185546875 221.50250244140625 179.332275390625 230.97027587890625 171.09942626953125 228.91204833984375 171.09942626953125 228.91204833984375 " />
        <polyline stroke="black" stroke-width="3" stroke-linecap="round" fill="transparent" stroke-linejoin="round" points="156.69183349609375 93.89271545410153 144.754150390625 122.70782470703124 132.81646728515625 151.52293395996094 122.52536010742188 180.3380584716797 109.35272216796876 209.56478881835935 98.23834228515624 233.85183715820313 87.94723510742188 254.0223693847656 87.94723510742188 254.0223693847656 " />
        </svg>