<?xml version="1.0" standalone="no"?>
    <svg width="256" height="256" xmlns="http://www.w3.org/2000/svg" version="1.1">
    <polyline stroke="black" stroke-width="3" stroke-linecap="round" fill="transparent" stroke-linejoin="round" points="53.24383544921875 71.16732788085938 55.9715576171875 75.2589111328125 58.69927978515625 79.35049438476563 62.10894775390625 83.78302001953125 65.85955810546875 87.87460327148438 70.633056640625 91.625244140625 70.633056640625 91.625244140625 " />
        <polyline stroke="black" stroke-width="3" stroke-linecap="round" fill="transparent" stroke-linejoin="round" points="115.29956054687499 76.28179931640625 107.79830932617188 85.82882690429688 100.29705810546876 95.3758544921875 91.43197631835938 106.96867370605467 82.56686401367188 117.53860473632813 74.3836669921875 127.08563232421876 74.3836669921875 127.08563232421876 " />
        <polyline stroke="black" stroke-width="3" stroke-linecap="round" fill="transparent" stroke-linejoin="round" points="51.197998046875 157.7725372314453 57.676361083984375 155.38577270507813 64.15472412109375 152.99900817871094 70.29208374023438 150.61224365234375 84.61264038085938 145.15679931640625 99.274169921875 136.9736328125 111.20794677734376 127.42660522460938 111.20794677734376 127.42660522460938 " />
        <polyline stroke="black" stroke-width="3" stroke-linecap="round" fill="transparent" stroke-linejoin="round" points="102.00189208984375 47.98167419433594 97.22836303710938 60.9383544921875 92.454833984375 73.89503479003906 86.658447265625 90.60235595703124 80.52108764648438 109.69639587402344 69.26922607421875 144.13389587402344 60.745086669921875 174.13885498046875 54.94866943359375 195.27874755859375 52.90289306640625 203.12091064453125 51.879974365234375 207.55349731445313 51.879974365234375 207.55349731445313 " />
        <polyline stroke="black" stroke-width="3" stroke-linecap="round" fill="transparent" stroke-linejoin="round" points="70.29205322265625 162.88697814941406 74.3836669921875 165.27374267578125 78.47528076171875 167.66050720214844 83.248779296875 170.72921752929688 88.7042236328125 174.13885498046875 94.15966796875 177.5485076904297 100.63803100585938 180.6171875 100.63803100585938 180.6171875 " />
        <polyline stroke="black" stroke-width="3" stroke-linecap="round" fill="transparent" stroke-linejoin="round" points="123.482666015625 76.9637451171875 129.96102905273438 74.23600769042969 136.43939208984375 71.50827026367188 143.25872802734375 69.12152099609375 150.4189453125 67.07572937011719 163.37567138671875 64.34799194335938 175.3094482421875 61.96125793457031 180.4239501953125 60.597381591796875 180.4239501953125 60.597381591796875 " />
        <polyline stroke="black" stroke-width="3" stroke-linecap="round" fill="transparent" stroke-linejoin="round" points="170.87686157226563 57.528686523437514 159.2840576171875 78.66854858398438 147.69125366210938 99.80841064453124 141.55389404296875 112.08316040039063 130.302001953125 138.67845153808594 125.52850341796876 150.61224365234375 114.61761474609376 182.322021484375 112.2308349609375 190.16424560546875 107.79830932617188 203.4619140625 107.79830932617188 203.4619140625 " />
        <polyline stroke="black" stroke-width="3" stroke-linecap="round" fill="transparent" stroke-linejoin="round" points="142.57672119140625 139.36038208007813 146.6683349609375 137.99652099609375 150.75994873046875 136.63265991210938 155.533447265625 135.60977172851563 160.64794921875 134.92784118652344 172.58172607421875 134.24591064453125 184.174560546875 137.99652099609375 194.40350341796875 150.2712860107422 204.63250732421875 177.20755004882813 208.0421142578125 201.4161071777344 206.67822265625 216.4185791015625 202.586669921875 224.60174560546875 194.06256103515625 230.05718994140625 174.968505859375 232.784912109375 162.6937255859375 232.4439392089844 162.6937255859375 232.4439392089844 " />
        </svg>