<?xml version="1.0" standalone="no"?>
    <svg width="256" height="256" xmlns="http://www.w3.org/2000/svg" version="1.1">
    <polyline stroke="black" stroke-width="3" stroke-linecap="round" fill="transparent" stroke-linejoin="round" points="63 73 63 74 63 75 64 76 64 77 64 79 65 80 66 82 66 83 67 85 68 87 69 89 70 91 71 93 72 95 73 96 74 98 75 99 76 101 77 102 78 103 80 104 81 105 83 106 85 107 87 107 89 107 " />
        <polyline stroke="black" stroke-width="3" stroke-linecap="round" fill="transparent" stroke-linejoin="round" points="97 83 97 84 98 85 98 85 99 86 99 87 100 88 100 88 101 89 101 90 102 90 103 91 104 92 105 92 107 93 108 93 110 93 112 93 114 93 117 93 " />
        <polyline stroke="black" stroke-width="3" stroke-linecap="round" fill="transparent" stroke-linejoin="round" points="151 69 151 69 151 68 152 67 152 67 152 67 152 67 152 68 152 69 151 71 150 73 149 76 148 78 146 81 144 85 141 88 138 91 135 95 132 98 128 101 " />
        <polyline stroke="black" stroke-width="3" stroke-linecap="round" fill="transparent" stroke-linejoin="round" points="63 126 64 129 65 130 66 132 67 134 68 136 69 138 70 140 71 143 72 145 73 147 74 149 75 151 75 153 76 155 77 157 78 159 78 161 78 163 79 164 79 166 79 167 80 168 80 168 81 169 " />
        <polyline stroke="black" stroke-width="3" stroke-linecap="round" fill="transparent" stroke-linejoin="round" points="72 140 73 138 74 137 76 136 77 136 79 135 81 134 83 133 85 132 87 131 89 130 92 128 94 127 97 126 100 125 103 124 107 122 110 121 114 120 117 119 121 117 125 116 129 115 132 114 136 112 140 112 144 111 147 110 151 109 154 109 157 109 159 109 162 109 164 109 166 110 168 111 170 112 171 113 172 115 173 117 173 120 173 123 173 126 172 129 171 131 169 134 167 137 165 139 163 141 161 143 158 144 156 146 " />
        <polyline stroke="black" stroke-width="3" stroke-linecap="round" fill="transparent" stroke-linejoin="round" points="117 126 117 126 117 126 117 127 118 129 118 130 118 132 118 134 118 136 118 139 118 141 118 144 117 146 117 149 116 152 116 154 115 157 114 159 113 162 112 164 111 166 " />
        <polyline stroke="black" stroke-width="3" stroke-linecap="round" fill="transparent" stroke-linejoin="round" points="78 168 78 168 78 168 78 167 78 167 78 167 79 167 80 166 81 166 82 166 84 165 86 165 88 164 91 164 94 163 97 163 101 163 105 162 109 162 114 162 118 162 123 162 127 162 132 162 137 162 141 161 146 161 151 161 155 160 160 159 165 158 169 158 173 157 " />
        </svg>