<?xml version="1.0" standalone="no"?>
    <svg width="256" height="256" xmlns="http://www.w3.org/2000/svg" version="1.1">
    <polyline stroke="black" stroke-width="3" stroke-linecap="round" fill="transparent" stroke-linejoin="round" points="79.07131958007813 69.28582763671875 103.50421142578124 55.830047607421875 112.00259399414063 52.289039611816406 119.0845947265625 49.102142333984375 125.8125 46.26934051513672 130.7698974609375 45.56114196777344 133.24859619140625 46.62345886230469 132.186279296875 54.76774597167969 125.8125 69.9940185546875 113.06491088867188 91.5941162109375 99.96322631835938 110.36141967773438 85.09103393554688 129.83689880371094 71.63519287109375 147.18780517578125 60.658111572265625 160.28948974609375 55.700714111328125 163.8304901123047 55.700714111328125 163.8304901123047 " />
        <polyline stroke="black" stroke-width="3" stroke-linecap="round" fill="transparent" stroke-linejoin="round" points="97.48452758789063 82.38752746582031 119.0845947265625 88.05311584472656 147.76666259765625 99.0302276611328 180.697998046875 112.84011840820313 207.96368408203125 124.52542114257813 230.6260986328125 132.31561279296875 230.6260986328125 132.31561279296875 " />
        <polyline stroke="black" stroke-width="3" stroke-linecap="round" fill="transparent" stroke-linejoin="round" points="70.57293701171875 144.00091552734375 70.21878051757813 162.41409301757813 70.927001953125 174.8075714111328 72.34344482421875 184.72238159179688 73.75979614257813 191.09619140625 76.94674682617188 197.11587524414065 84.02871704101563 199.5946044921875 95.35992431640624 197.469970703125 109.87799072265624 191.80438232421875 123.68789672851563 185.43060302734375 136.78958129882813 180.1190948486328 148.12081909179688 175.16168212890625 157.68145751953125 170.55836486816406 163.701171875 167.37149047851563 164.763427734375 166.6632843017578 164.763427734375 166.6632843017578 " />
        <polyline stroke="black" stroke-width="3" stroke-linecap="round" fill="transparent" stroke-linejoin="round" points="163.701171875 133.37791442871094 166.8880615234375 149.66650390625 169.3668212890625 165.60098266601563 170.783203125 174.09938049316406 170.783203125 174.09938049316406 " />
        <polyline stroke="black" stroke-width="3" stroke-linecap="round" fill="transparent" stroke-linejoin="round" points="124.0419921875 124.17131042480467 124.75018310546876 146.47959899902344 124.0419921875 172.328857421875 121.56329345703124 197.8240966796875 116.25180053710938 220.84054565429688 108.46160888671876 241.37835693359375 102.44192504882813 253.417724609375 102.44192504882813 253.417724609375 " />
        </svg>