<?xml version="1.0" standalone="no"?>
    <svg width="256" height="256" xmlns="http://www.w3.org/2000/svg" version="1.1">
    <polyline stroke="black" stroke-width="3" stroke-linecap="round" fill="transparent" stroke-linejoin="round" points="59.68939208984375 78.44146728515625 70.0831298828125 68.62515258789063 81.0543212890625 62.27342224121094 96.0675048828125 54.766845703125 118.00982666015624 46.682823181152344 133.60040283203125 42.063385009765625 148.61358642578125 39.176239013671875 160.7396240234375 38.02137756347656 167.66876220703125 38.02137756347656 171.13336181640625 39.753662109375 169.978515625 44.950531005859375 161.3170166015625 57.65399169921875 141.10699462890625 77.28660583496094 115.70010375976563 100.3837890625 91.44805908203124 120.0164031982422 72.39288330078125 132.14242553710938 59.68939208984375 137.91673278808594 59.68939208984375 137.91673278808594 " />
        <polyline stroke="black" stroke-width="3" stroke-linecap="round" fill="transparent" stroke-linejoin="round" points="57.957122802734375 94.6094970703125 70.0831298828125 93.4546356201172 90.29318237304688 92.29977416992188 117.432373046875 91.14491271972656 139.9521484375 91.72235107421876 160.7396240234375 91.72235107421876 176.3302001953125 92.29977416992188 189.611083984375 92.29977416992188 197.11767578125 92.29977416992188 202.3145751953125 92.29977416992188 202.3145751953125 92.29977416992188 " />
        <polyline stroke="black" stroke-width="3" stroke-linecap="round" fill="transparent" stroke-linejoin="round" points="93.75775146484376 111.93238830566406 87.40603637695313 129.83270263671875 83.94146728515625 141.958740234375 82.20916748046875 154.6621856689453 81.0543212890625 163.32363891601563 81.0543212890625 169.09793090820313 82.78662109375 173.1399383544922 86.25115966796875 175.4496612548828 92.6029052734375 176.60452270507813 104.72894287109376 176.02708435058594 119.74212646484376 174.2947998046875 132.445556640625 171.40765380859375 146.30389404296875 167.3656463623047 158.429931640625 162.74620056152344 174.0205078125 149.46531677246094 174.0205078125 149.46531677246094 " />
        <polyline stroke="black" stroke-width="3" stroke-linecap="round" fill="transparent" stroke-linejoin="round" points="170.555908203125 109.04524230957033 170.555908203125 120.59382629394533 169.978515625 133.2972869873047 168.8236083984375 148.31045532226563 165.9365234375 161.59133911132813 161.89447021484375 171.98507690429688 158.429931640625 174.8722381591797 158.429931640625 174.8722381591797 " />
        <polyline stroke="black" stroke-width="3" stroke-linecap="round" fill="transparent" stroke-linejoin="round" points="135.33270263671875 92.29977416992188 134.1778564453125 104.42579650878906 131.86813354492188 125.21327209472656 126.09381103515624 154.6621856689453 120.31951904296876 174.8722381591797 112.81292724609376 195.082275390625 104.72894287109376 210.67288208007813 96.0675048828125 224.53118896484375 88.5609130859375 233.192626953125 88.5609130859375 233.192626953125 " />
        </svg>