<?xml version="1.0" standalone="no"?>
    <svg width="256" height="256" xmlns="http://www.w3.org/2000/svg" version="1.1">
    <polyline stroke="black" stroke-width="3" stroke-linecap="round" fill="transparent" stroke-linejoin="round" points="73.91622924804688 71.07086181640625 84.3221435546875 65.56184387207031 99.625 59.440704345703125 125.333740234375 49.64689636230469 145.53350830078125 41.689422607421875 161.44842529296875 35.56829071044922 171.24224853515625 33.119834899902344 176.13916015625 33.119834899902344 173.690673828125 39.24097442626953 149.81829833984375 68.62240600585938 114.31570434570313 103.51287841796876 83.09793090820313 129.2216339111328 63.51031494140625 143.912353515625 51.268035888671875 151.8698272705078 51.268035888671875 151.8698272705078 " />
        <polyline stroke="black" stroke-width="3" stroke-linecap="round" fill="transparent" stroke-linejoin="round" points="83.09793090820313 92.4948272705078 94.72808837890624 93.10694885253906 118.60049438476563 94.94328308105467 148.59405517578125 96.77963256835938 173.07861328125 97.39173889160156 192.0540771484375 97.39173889160156 203.68426513671875 98.0038604736328 203.68426513671875 98.0038604736328 " />
        <polyline stroke="black" stroke-width="3" stroke-linecap="round" fill="transparent" stroke-linejoin="round" points="85.54638671875 139.6275634765625 85.54638671875 151.8698272705078 86.15850830078125 159.21519470214844 86.77059936523438 166.560546875 89.8311767578125 173.29379272460938 96.56442260742188 177.57858276367188 108.194580078125 180.02703857421875 124.10952758789063 177.57858276367188 140.6365966796875 171.45745849609375 156.551513671875 162.8878631591797 172.46649169921875 148.80926513671875 172.46649169921875 148.80926513671875 " />
        <polyline stroke="black" stroke-width="3" stroke-linecap="round" fill="transparent" stroke-linejoin="round" points="172.46649169921875 117.59147644042967 173.690673828125 131.05796813964844 173.690673828125 140.2396697998047 173.07861328125 149.42137145996094 168.18170166015625 161.05152893066406 168.18170166015625 161.05152893066406 " />
        <polyline stroke="black" stroke-width="3" stroke-linecap="round" fill="transparent" stroke-linejoin="round" points="138.1881103515625 124.93684387207033 136.96389770507813 137.17910766601563 134.51544189453125 153.70616149902344 129.6185302734375 175.74224853515625 125.333740234375 194.7177734375 115.5399169921875 223.48709106445313 115.5399169921875 223.48709106445313 " />
        </svg>