<?xml version="1.0" standalone="no"?>
    <svg width="256" height="256" xmlns="http://www.w3.org/2000/svg" version="1.1">
    <polyline stroke="black" stroke-width="3" stroke-linecap="round" fill="transparent" stroke-linejoin="round" points="63.51031494140625 80.86468505859375 75.7525634765625 74.13143920898438 85.54638671875 69.23452758789063 99.625 64.33761596679688 117.37628173828124 58.82859802246094 133.9033203125 54.54380798339844 148.59405517578125 51.48323822021485 155.939453125 50.871124267578125 160.2242431640625 50.871124267578125 158.38787841796875 56.38014221191406 138.1881103515625 82.08891296386719 99.01287841796876 128.60952758789063 75.14044189453125 152.48194885253906 55.552825927734375 171.45745849609375 43.92266845703125 180.02703857421875 43.92266845703125 180.02703857421875 " />
        <polyline stroke="black" stroke-width="3" stroke-linecap="round" fill="transparent" stroke-linejoin="round" points="73.91622924804688 105.96133422851563 91.055419921875 109.02189636230467 106.35821533203124 111.47035217285156 130.8427734375 114.53091430664063 163.89691162109375 115.1430206298828 185.32086181640625 113.91880798339844 200.6236572265625 112.08245849609376 200.6236572265625 112.08245849609376 " />
        <polyline stroke="black" stroke-width="3" stroke-linecap="round" fill="transparent" stroke-linejoin="round" points="86.77059936523438 134.11854553222656 89.8311767578125 148.1971435546875 91.055419921875 157.37884521484375 94.115966796875 169.00900268554688 98.4007568359375 177.57858276367188 103.9097900390625 183.69973754882813 110.64300537109376 187.37240600585935 119.82470703125 187.98452758789065 129.00640869140625 186.76028442382813 140.02447509765625 181.86338806152344 160.8363037109375 163.49998474121094 160.8363037109375 163.49998474121094 " />
        <polyline stroke="black" stroke-width="3" stroke-linecap="round" fill="transparent" stroke-linejoin="round" points="166.95745849609375 129.2216339111328 167.569580078125 143.912353515625 167.569580078125 153.09405517578125 166.95745849609375 160.43942260742188 163.89691162109375 168.3968963623047 163.89691162109375 168.3968963623047 " />
        <polyline stroke="black" stroke-width="3" stroke-linecap="round" fill="transparent" stroke-linejoin="round" points="134.51544189453125 131.05796813964844 133.9033203125 146.97291564941406 130.8427734375 162.2757568359375 127.78219604492188 181.2512664794922 122.273193359375 203.287353515625 117.9884033203125 221.03863525390625 113.09149169921876 235.7293701171875 110.64300537109376 246.74740600585935 110.64300537109376 246.74740600585935 " />
        </svg>