<?xml version="1.0" standalone="no"?>
    <svg width="256" height="256" xmlns="http://www.w3.org/2000/svg" version="1.1">
    <polyline stroke="black" stroke-width="3" stroke-linecap="round" fill="transparent" stroke-linejoin="round" points="51.92041015625 95.30101013183594 68.9722900390625 83.12107849121094 84.19720458984375 72.15914916992188 102.46710205078124 59.37022399902344 123.781982421875 47.799293518066406 140.22488403320313 40.4913330078125 149.96881103515625 38.05534362792969 154.2318115234375 38.05534362792969 152.40478515625 45.363304138183594 130.48095703125 77.64012145996094 96.37713623046876 119.0518798828125 74.45327758789063 141.58474731445313 56.183380126953125 155.59165954589844 56.183380126953125 155.59165954589844 " />
        <polyline stroke="black" stroke-width="3" stroke-linecap="round" fill="transparent" stroke-linejoin="round" points="65.31832885742188 109.30793762207033 87.8511962890625 105.65394592285156 112.2110595703125 101.39097595214844 136.5709228515625 96.51901245117188 156.05877685546875 91.64703369140624 172.501708984375 86.77507019042969 179.8096923828125 84.94807434082031 182.24560546875 83.12107849121094 182.24560546875 83.12107849121094 " />
        <polyline stroke="black" stroke-width="3" stroke-linecap="round" fill="transparent" stroke-linejoin="round" points="103.07611083984376 125.141845703125 96.98614501953124 144.02073669433594 95.15914916992188 153.76467895507813 94.5501708984375 162.29061889648438 95.76812744140624 168.9895782470703 100.0311279296875 173.86155700683594 118.91000366210938 172.64356994628906 132.30792236328125 164.7266082763672 148.7508544921875 151.3286895751953 163.36676025390625 131.84080505371094 170.6746826171875 121.48785400390624 174.93768310546875 116.61589050292967 177.3736572265625 113.57090759277344 178.5916748046875 114.78889465332033 178.5916748046875 120.8788604736328 175.54669189453125 136.7127685546875 172.501708984375 149.50169372558594 169.45672607421875 155.59165954589844 165.1937255859375 155.59165954589844 165.1937255859375 155.59165954589844 " />
        <polyline stroke="black" stroke-width="3" stroke-linecap="round" fill="transparent" stroke-linejoin="round" points="143.87884521484375 101.39097595214844 143.26986694335938 116.00689697265624 140.22488403320313 151.93768310546875 137.78887939453125 174.47055053710938 133.52593994140625 195.78543090820313 127.43597412109376 220.14529418945313 127.43597412109376 220.14529418945313 " />
        </svg>