<?xml version="1.0" standalone="no"?>
    <svg width="256" height="256" xmlns="http://www.w3.org/2000/svg" version="1.1">
    <polyline stroke="black" stroke-width="3" stroke-linecap="round" fill="transparent" stroke-linejoin="round" points="33.179290771484375 122.03733825683594 61.560394287109375 114.447021484375 76.740966796875 102.236572265625 76.740966796875 102.236572265625 76.740966796875 102.236572265625 " />
        <polyline stroke="black" stroke-width="3" stroke-linecap="round" fill="transparent" stroke-linejoin="round" points="33.179290771484375 105.20668029785156 30.869232177734375 150.08836364746094 37.139495849609375 176.81936645507813 38.129486083984375 178.13943481445313 41.7596435546875 180.7795257568359 48.35986328125 176.48934936523438 55.62017822265625 158.9987030029297 57.600250244140625 150.08836364746094 57.600250244140625 150.08836364746094 " />
        <polyline stroke="black" stroke-width="3" stroke-linecap="round" fill="transparent" stroke-linejoin="round" points="60.57037353515625 105.86669921875 65.19052124023438 146.45823669433594 68.49066162109375 158.3386993408203 72.78082275390625 171.8691864013672 75.4208984375 179.1294403076172 76.740966796875 181.1095428466797 76.740966796875 181.1095428466797 76.740966796875 181.1095428466797 " />
        <polyline stroke="black" stroke-width="3" stroke-linecap="round" fill="transparent" stroke-linejoin="round" points="105.4520263671875 79.13569641113281 145.71353149414063 51.41466522216797 174.0946044921875 35.574066162109375 174.0946044921875 35.574066162109375 174.0946044921875 35.574066162109375 174.0946044921875 35.574066162109375 " />
        <polyline stroke="black" stroke-width="3" stroke-linecap="round" fill="transparent" stroke-linejoin="round" points="120.63259887695313 74.51553344726563 107.43209838867188 115.4370574951172 89.61141967773438 198.27017211914065 88.2913818359375 207.18051147460935 86.97134399414063 222.69107055664065 86.641357421875 224.34115600585935 86.641357421875 224.34115600585935 " />
        <polyline stroke="black" stroke-width="3" stroke-linecap="round" fill="transparent" stroke-linejoin="round" points="116.67242431640624 119.06721496582033 154.29388427734375 98.27642822265624 178.384765625 93.98626708984376 180.0347900390625 94.64630126953124 180.0347900390625 94.64630126953124 " />
        <polyline stroke="black" stroke-width="3" stroke-linecap="round" fill="transparent" stroke-linejoin="round" points="114.36236572265624 145.13818359375 148.35366821289063 132.5977020263672 168.1544189453125 130.94764709472656 172.11456298828125 136.2278594970703 172.44451904296875 136.88787841796875 175.4146728515625 137.87791442871094 180.69482421875 138.53793334960938 188.94512939453125 140.8480224609375 197.1954345703125 145.7982177734375 204.4556884765625 152.3984375 211.71600341796875 167.2490234375 213.36602783203125 180.44949340820313 210.06597900390625 192.3299560546875 203.13568115234375 202.89035034179688 194.8853759765625 208.17056274414065 185.31500244140625 211.14065551757813 175.74468994140625 210.48062133789065 165.18426513671875 204.87042236328125 157.26397705078125 193.98001098632813 155.283935546875 189.02984619140625 155.283935546875 189.02984619140625 " />
        <polyline stroke="black" stroke-width="3" stroke-linecap="round" fill="transparent" stroke-linejoin="round" points="139.44329833984375 151.73841857910156 127.5628662109375 184.07965087890625 120.962646484375 197.28012084960935 118.65252685546876 200.58029174804688 118.65252685546876 200.58029174804688 118.65252685546876 200.58029174804688 " />
        <polyline stroke="black" stroke-width="3" stroke-linecap="round" fill="transparent" stroke-linejoin="round" points="156.27392578125 147.4482879638672 148.35366821289063 197.61013793945313 146.04354858398438 204.87042236328125 140.10336303710938 222.03106689453125 140.10336303710938 222.03106689453125 140.10336303710938 222.03106689453125 " />
        </svg>