<?xml version="1.0" standalone="no"?>
    <svg width="256" height="256" xmlns="http://www.w3.org/2000/svg" version="1.1">
    <polyline stroke="black" stroke-width="3" stroke-linecap="round" fill="transparent" stroke-linejoin="round" points="31.267822265625 118.151611328125 56.408905029296875 105.75811767578124 80.13357543945313 95.84332275390624 99.60910034179688 88.4072265625 113.77310180664063 82.03343200683594 117.66818237304688 78.84654235839844 117.66818237304688 78.84654235839844 " />
        <polyline stroke="black" stroke-width="3" stroke-linecap="round" fill="transparent" stroke-linejoin="round" points="47.9105224609375 85.92852783203125 51.80560302734375 110.36141967773438 54.992523193359375 133.73202514648438 57.8253173828125 156.04029846191406 59.24169921875 168.43377685546875 59.595794677734375 175.51577758789063 59.595794677734375 175.51577758789063 " />
        <polyline stroke="black" stroke-width="3" stroke-linecap="round" fill="transparent" stroke-linejoin="round" points="100.31732177734376 75.30552673339844 99.96322631835938 99.3843231201172 101.0255126953125 121.33851623535156 102.08779907226563 141.87631225585938 103.50421142578124 156.7484893798828 104.56649780273438 170.20428466796875 104.56649780273438 170.20428466796875 " />
        <polyline stroke="black" stroke-width="3" stroke-linecap="round" fill="transparent" stroke-linejoin="round" points="86.50741577148438 178.34860229492188 97.838623046875 171.6206817626953 97.838623046875 171.6206817626953 " />
        <polyline stroke="black" stroke-width="3" stroke-linecap="round" fill="transparent" stroke-linejoin="round" points="158.3896484375 46.26934051513672 176.44873046875 39.187347412109375 190.61279296875 34.229957580566406 199.11114501953125 31.043060302734375 199.11114501953125 31.043060302734375 " />
        <polyline stroke="black" stroke-width="3" stroke-linecap="round" fill="transparent" stroke-linejoin="round" points="155.556884765625 94.42692565917967 173.615966796875 83.09573364257813 190.2586669921875 74.24322509765625 202.29803466796875 67.16123962402344 206.9013671875 64.32844543457031 206.9013671875 64.32844543457031 " />
        <polyline stroke="black" stroke-width="3" stroke-linecap="round" fill="transparent" stroke-linejoin="round" points="145.64205932617188 95.48922729492188 142.10107421875 123.81721496582033 134.66497802734375 152.8533935546875 125.4583740234375 177.99449157714844 115.897705078125 197.11587524414065 115.897705078125 197.11587524414065 " />
        <polyline stroke="black" stroke-width="3" stroke-linecap="round" fill="transparent" stroke-linejoin="round" points="164.763427734375 125.58770751953124 183.1766357421875 117.4434051513672 195.5701904296875 112.84011840820313 204.06854248046875 111.06961059570313 211.504638671875 110.36141967773438 217.17022705078125 111.77781677246094 219.64892578125 119.56800842285156 217.17022705078125 141.87631225585938 211.15057373046875 167.37149047851563 205.13079833984375 185.07650756835935 196.986572265625 202.78146362304688 189.55047607421875 216.23727416992188 182.82257080078125 223.31927490234375 174.32421875 224.73565673828125 166.53399658203125 216.59136962890625 166.53399658203125 216.59136962890625 " />
        <polyline stroke="black" stroke-width="3" stroke-linecap="round" fill="transparent" stroke-linejoin="round" points="160.868408203125 162.05999755859375 152.015869140625 184.3682861328125 144.93386840820313 199.5946044921875 140.33056640625 207.7388610839844 140.33056640625 207.7388610839844 " />
        <polyline stroke="black" stroke-width="3" stroke-linecap="round" fill="transparent" stroke-linejoin="round" points="191.32098388671875 156.04029846191406 173.615966796875 192.86669921875 162.2847900390625 219.4241943359375 160.5142822265625 222.2569580078125 160.5142822265625 222.2569580078125 " />
        </svg>