<?xml version="1.0" standalone="no"?>
    <svg width="256" height="256" xmlns="http://www.w3.org/2000/svg" version="1.1">
    <polyline stroke="black" stroke-width="3" stroke-linecap="round" fill="transparent" stroke-linejoin="round" points="44.0697021484375 114.7770538330078 75.09091186523438 105.53669738769533 79.38104248046875 103.2266082763672 89.61141967773438 92.00619506835938 89.61141967773438 92.00619506835938 89.61141967773438 92.00619506835938 " />
        <polyline stroke="black" stroke-width="3" stroke-linecap="round" fill="transparent" stroke-linejoin="round" points="57.600250244140625 77.48565673828125 43.079681396484375 118.0771484375 45.389801025390625 153.3885040283203 52.650054931640625 167.5790252685547 63.210418701171875 158.9987030029297 63.210418701171875 158.9987030029297 " />
        <polyline stroke="black" stroke-width="3" stroke-linecap="round" fill="transparent" stroke-linejoin="round" points="69.48065185546875 109.8268585205078 66.1805419921875 144.4781494140625 67.83062744140625 154.3785400390625 67.83062744140625 154.3785400390625 67.83062744140625 154.3785400390625 " />
        <polyline stroke="black" stroke-width="3" stroke-linecap="round" fill="transparent" stroke-linejoin="round" points="107.43209838867188 83.09585571289063 135.81317138671875 69.56533813476563 141.42340087890625 66.59524536132813 157.26397705078125 56.694854736328125 164.854248046875 50.42462921142578 164.854248046875 50.42462921142578 " />
        <polyline stroke="black" stroke-width="3" stroke-linecap="round" fill="transparent" stroke-linejoin="round" points="121.95263671875 81.44580078125 103.47195434570313 121.70730590820313 100.83187866210938 130.6176300048828 93.2415771484375 162.29881286621094 88.951416015625 189.35986328125 87.96139526367188 204.21041870117188 87.96139526367188 204.21041870117188 87.96139526367188 204.21041870117188 " />
        <polyline stroke="black" stroke-width="3" stroke-linecap="round" fill="transparent" stroke-linejoin="round" points="124.92279052734376 107.186767578125 149.6737060546875 99.92648315429688 160.5640869140625 100.91651916503906 160.5640869140625 100.91651916503906 160.5640869140625 100.91651916503906 " />
        <polyline stroke="black" stroke-width="3" stroke-linecap="round" fill="transparent" stroke-linejoin="round" points="130.20297241210938 137.87791442871094 167.82440185546875 132.927734375 173.4345703125 134.57777404785156 186.3050537109375 144.4781494140625 195.21539306640625 164.60891723632813 197.1954345703125 189.6898498535156 191.58526611328125 210.48062133789065 179.704833984375 224.34115600585935 166.17431640625 228.63131713867188 152.643798828125 222.03106689453125 152.643798828125 222.03106689453125 152.643798828125 222.03106689453125 " />
        <polyline stroke="black" stroke-width="3" stroke-linecap="round" fill="transparent" stroke-linejoin="round" points="120.63259887695313 180.7795257568359 117.99252319335938 202.56036376953125 118.32254028320313 204.21041870117188 119.31256103515624 205.53042602539065 119.31256103515624 205.53042602539065 119.31256103515624 205.53042602539065 " />
        <polyline stroke="black" stroke-width="3" stroke-linecap="round" fill="transparent" stroke-linejoin="round" points="155.283935546875 168.8990936279297 151.9837646484375 213.45074462890625 151.9837646484375 213.45074462890625 151.9837646484375 213.45074462890625 151.9837646484375 213.45074462890625 " />
        </svg>