<?xml version="1.0" standalone="no"?>
    <svg width="256" height="256" xmlns="http://www.w3.org/2000/svg" version="1.1">
    <polyline stroke="black" stroke-width="3" stroke-linecap="round" fill="transparent" stroke-linejoin="round" points="53.09466552734375 112.84011840820313 72.92425537109375 102.92532348632813 87.44235229492188 95.13511657714844 99.8358154296875 88.76132202148438 109.04241943359376 82.38752746582031 112.2293701171875 79.20063781738281 112.2293701171875 79.20063781738281 " />
        <polyline stroke="black" stroke-width="3" stroke-linecap="round" fill="transparent" stroke-linejoin="round" points="53.448760986328125 105.0499267578125 53.448760986328125 123.10902404785156 54.15692138671875 139.04351806640625 54.86517333984375 148.25010681152344 56.989776611328125 154.97799682617188 58.406158447265625 157.10260009765625 58.406158447265625 157.10260009765625 " />
        <polyline stroke="black" stroke-width="3" stroke-linecap="round" fill="transparent" stroke-linejoin="round" points="94.52432250976563 84.51214599609375 93.10794067382813 106.46632385253906 93.4620361328125 127.35821533203124 95.2325439453125 143.6468048095703 98.41943359375 159.58126831054688 101.96041870117188 168.43377685546875 101.96041870117188 168.43377685546875 " />
        <polyline stroke="black" stroke-width="3" stroke-linecap="round" fill="transparent" stroke-linejoin="round" points="82.83905029296875 165.60098266601563 100.54403686523438 155.6862030029297 100.54403686523438 155.6862030029297 " />
        <polyline stroke="black" stroke-width="3" stroke-linecap="round" fill="transparent" stroke-linejoin="round" points="162.8656005859375 59.72514343261719 177.73779296875 54.41365051269531 187.65264892578125 50.51853942871094 187.65264892578125 50.51853942871094 " />
        <polyline stroke="black" stroke-width="3" stroke-linecap="round" fill="transparent" stroke-linejoin="round" points="151.534423828125 88.4072265625 165.34429931640625 79.20063781738281 173.48858642578125 73.5350341796875 175.96728515625 71.41043090820313 175.96728515625 71.41043090820313 " />
        <polyline stroke="black" stroke-width="3" stroke-linecap="round" fill="transparent" stroke-linejoin="round" points="138.4327392578125 88.4072265625 133.82940673828125 106.82041931152344 127.1015625 123.46311950683594 119.6654052734375 139.04351806640625 116.12442016601563 143.6468048095703 116.12442016601563 143.6468048095703 " />
        <polyline stroke="black" stroke-width="3" stroke-linecap="round" fill="transparent" stroke-linejoin="round" points="153.65899658203125 106.11221313476563 168.88531494140625 100.44662475585938 181.27880859375 95.84332275390624 193.67230224609375 91.24002075195313 203.58709716796875 87.69902038574219 211.023193359375 86.28262329101563 216.33465576171875 86.63673400878906 219.52154541015625 91.24002075195313 219.875732421875 102.92532348632813 215.62646484375 123.81721496582033 208.1904296875 148.9582977294922 198.62969970703125 170.20428466796875 189.423095703125 185.78469848632813 180.21649169921875 197.11587524414065 171.364013671875 200.30276489257813 161.8033447265625 195.699462890625 161.8033447265625 195.699462890625 " />
        <polyline stroke="black" stroke-width="3" stroke-linecap="round" fill="transparent" stroke-linejoin="round" points="142.32785034179688 139.04351806640625 135.95401000976563 156.7484893798828 128.16378784179688 171.9747772216797 120.72775268554688 185.43060302734375 115.41622924804688 192.5125732421875 110.81295776367188 194.99127197265625 110.81295776367188 194.99127197265625 " />
        <polyline stroke="black" stroke-width="3" stroke-linecap="round" fill="transparent" stroke-linejoin="round" points="172.07220458984375 138.33531188964844 157.55413818359375 168.07968139648438 144.09832763671875 191.09619140625 133.82940673828125 206.67654418945313 133.82940673828125 206.67654418945313 " />
        </svg>