<?xml version="1.0" standalone="no"?>
    <svg width="256" height="256" xmlns="http://www.w3.org/2000/svg" version="1.1">
    <polyline stroke="black" stroke-width="3" stroke-linecap="round" fill="transparent" stroke-linejoin="round" points="116 37 107 40 104 40 101 40 99 40 100 40 116 40 138 35 160 32 181 30 195 29 195 29 " />
        <polyline stroke="black" stroke-width="3" stroke-linecap="round" fill="transparent" stroke-linejoin="round" points="65 88 76 82 84 80 106 72 135 67 148 64 186 61 203 58 206 58 206 58 " />
        <polyline stroke="black" stroke-width="3" stroke-linecap="round" fill="transparent" stroke-linejoin="round" points="154 20 143 35 137 45 123 74 113 93 89 126 70 152 55 168 52 172 52 172 " />
        <polyline stroke="black" stroke-width="3" stroke-linecap="round" fill="transparent" stroke-linejoin="round" points="149 74 167 88 174 90 182 95 196 104 211 114 225 127 238 138 238 138 " />
        <polyline stroke="black" stroke-width="3" stroke-linecap="round" fill="transparent" stroke-linejoin="round" points="125 137 139 145 149 151 161 160 165 165 165 165 " />
        <polyline stroke="black" stroke-width="3" stroke-linecap="round" fill="transparent" stroke-linejoin="round" points="122 199 142 205 158 215 174 228 174 228 " />
        </svg>