<?xml version="1.0" standalone="no"?>
    <svg width="256" height="256" xmlns="http://www.w3.org/2000/svg" version="1.1">
    <polyline stroke="black" stroke-width="3" stroke-linecap="round" fill="transparent" stroke-linejoin="round" points="71.0283203125 96.77963256835938 78.98580932617188 88.21003723144531 80.8221435546875 90.6584930419922 80.8221435546875 96.16751098632813 81.43426513671875 106.5734405517578 81.43426513671875 121.87628173828124 82.04638671875 139.6275634765625 82.65850830078125 154.3182830810547 82.65850830078125 166.560546875 82.65850830078125 173.29379272460938 82.65850830078125 176.3543701171875 82.65850830078125 172.06956481933594 82.65850830078125 172.06956481933594 " />
        <polyline stroke="black" stroke-width="3" stroke-linecap="round" fill="transparent" stroke-linejoin="round" points="73.476806640625 101.67652893066406 91.22808837890624 89.43426513671875 106.53091430664063 81.47679138183594 128.5670166015625 73.51931762695313 148.7667236328125 69.23452758789063 165.9058837890625 69.23452758789063 178.76025390625 73.51931762695313 187.329833984375 81.47679138183594 194.0631103515625 98.0038604736328 194.67523193359375 123.10049438476563 185.4935302734375 151.8698272705078 171.4149169921875 172.6816864013672 171.4149169921875 172.6816864013672 " />
        <polyline stroke="black" stroke-width="3" stroke-linecap="round" fill="transparent" stroke-linejoin="round" points="37.36212158203125 148.80926513671875 52.6649169921875 149.42137145996094 70.41622924804688 147.5850372314453 102.24612426757813 143.912353515625 129.79119873046875 140.2396697998047 159.17266845703125 135.3427734375 176.31182861328125 131.05796813964844 191.61468505859375 124.93684387207033 198.96002197265625 120.6520538330078 203.85693359375 117.59147644042967 205.0811767578125 113.91880798339844 205.0811767578125 113.91880798339844 " />
        <polyline stroke="black" stroke-width="3" stroke-linecap="round" fill="transparent" stroke-linejoin="round" points="146.31829833984375 88.82215881347656 139.58502197265625 98.615966796875 136.52447509765625 109.02189636230467 132.851806640625 124.93684387207033 128.5670166015625 141.46389770507813 123.0579833984375 158.6030731201172 116.93682861328124 173.29379272460938 108.9793701171875 185.53607177734375 101.63400268554688 193.4935302734375 93.06442260742188 199.0025634765625 85.71905517578125 200.83889770507813 82.04638671875 200.83889770507813 85.10693359375 197.16622924804688 98.57342529296876 190.4329833984375 121.22161865234376 183.08761596679688 142.03350830078125 180.02703857421875 160.39691162109375 178.8028106689453 172.02703857421875 180.63916015625 172.02703857421875 180.63916015625 " />
        </svg>