<?xml version="1.0" standalone="no"?>
    <svg width="256" height="256" xmlns="http://www.w3.org/2000/svg" version="1.1">
    <polyline stroke="black" stroke-width="3" stroke-linecap="round" fill="transparent" stroke-linejoin="round" points="71.87969970703125 77.5806884765625 76.355224609375 89.78675842285156 78.38958740234375 95.48291015625 80.42391967773438 101.5859375 84.08578491210938 113.38516235351563 86.5269775390625 122.33627319335938 87.3406982421875 125.59123229980467 87.74755859375 130.0667724609375 87.74755859375 130.0667724609375 " />
        <polyline stroke="black" stroke-width="3" stroke-linecap="round" fill="transparent" stroke-linejoin="round" points="91.40939331054688 86.53181457519531 104.42919921875 79.20816040039063 110.93914794921876 75.95321655273438 118.26275634765624 72.69825744628906 142.67489624023438 65.37461853027344 158.542724609375 61.712799072265625 171.96942138671875 61.305938720703125 180.513671875 62.52653503417969 184.9892578125 65.37461853027344 187.83734130859375 71.07078552246094 187.430419921875 80.83563232421875 182.14111328125 92.22796630859376 171.96942138671875 104.43402099609376 155.287841796875 119.08132934570313 155.287841796875 119.08132934570313 " />
        <polyline stroke="black" stroke-width="3" stroke-linecap="round" fill="transparent" stroke-linejoin="round" points="86.5269775390625 135.762939453125 101.58111572265624 130.47366333007813 109.31161499023438 128.03244018554688 117.04217529296876 125.59123229980467 131.68942260742188 121.52252197265624 138.60617065429688 119.89505004882813 149.18475341796875 117.45384216308594 155.6947021484375 116.23324584960938 158.94964599609375 116.23324584960938 158.94964599609375 116.23324584960938 " />
        <polyline stroke="black" stroke-width="3" stroke-linecap="round" fill="transparent" stroke-linejoin="round" points="85.30636596679688 156.10638427734375 86.5269775390625 165.87124633789063 86.933837890625 169.53306579589844 87.74755859375 173.60174560546875 90.18881225585938 184.18035888671875 92.6300048828125 188.2490234375 93.4437255859375 189.4696350097656 93.4437255859375 189.4696350097656 " />
        <polyline stroke="black" stroke-width="3" stroke-linecap="round" fill="transparent" stroke-linejoin="round" points="178.4793701171875 131.6942596435547 169.121337890625 143.9003143310547 163.4251708984375 150.41021728515625 156.5084228515625 157.32699584960938 148.77792358398438 164.24375915527344 139.01303100585938 171.97427368164063 116.63525390625 188.2490234375 105.242919921875 195.5726623535156 105.242919921875 195.5726623535156 " />
        <polyline stroke="black" stroke-width="3" stroke-linecap="round" fill="transparent" stroke-linejoin="round" points="39.737030029296875 215.9161071777344 50.722503662109375 210.219970703125 57.639251708984375 207.77874755859375 84.49261474609375 201.26882934570313 105.242919921875 197.6070251464844 128.4344482421875 193.9451904296875 150.812255859375 189.4696350097656 161.7977294921875 187.0284423828125 187.83734130859375 179.70477294921875 194.34722900390625 178.07730102539063 198.009033203125 176.856689453125 198.009033203125 176.856689453125 " />
        </svg>