<?xml version="1.0" standalone="no"?>
    <svg width="256" height="256" xmlns="http://www.w3.org/2000/svg" version="1.1">
    <polyline stroke="black" stroke-width="3" stroke-linecap="round" fill="transparent" stroke-linejoin="round" points="84 53 79 70 79 77 79 87 79 106 85 132 90 141 90 141 " />
        <polyline stroke="black" stroke-width="3" stroke-linecap="round" fill="transparent" stroke-linejoin="round" points="84 77 93 68 103 65 125 56 146 53 162 53 172 60 178 71 178 85 172 103 157 116 157 116 " />
        <polyline stroke="black" stroke-width="3" stroke-linecap="round" fill="transparent" stroke-linejoin="round" points="90 135 110 128 124 127 138 127 147 127 147 127 " />
        <polyline stroke="black" stroke-width="3" stroke-linecap="round" fill="transparent" stroke-linejoin="round" points="109 159 117 170 125 178 129 181 129 181 " />
        <polyline stroke="black" stroke-width="3" stroke-linecap="round" fill="transparent" stroke-linejoin="round" points="166 140 158 148 154 157 148 171 140 186 135 194 135 194 " />
        <polyline stroke="black" stroke-width="3" stroke-linecap="round" fill="transparent" stroke-linejoin="round" points="64 213 91 203 113 198 138 195 165 194 187 194 197 195 197 195 " />
        </svg>