<?xml version="1.0" standalone="no"?>
    <svg width="256" height="256" xmlns="http://www.w3.org/2000/svg" version="1.1">
    <polyline stroke="black" stroke-width="3" stroke-linecap="round" fill="transparent" stroke-linejoin="round" points="75.768310546875 46.8143310546875 74.88494873046875 67.57373046875 74.88494873046875 77.29087829589844 75.768310546875 96.28350830078124 75.768310546875 105.11727905273438 76.21002197265625 121.01809692382813 76.21002197265625 130.7352294921875 75.768310546875 138.24395751953125 75.768310546875 140.45242309570313 75.768310546875 140.45242309570313 " />
        <polyline stroke="black" stroke-width="3" stroke-linecap="round" fill="transparent" stroke-linejoin="round" points="93.43588256835938 86.12466430664063 108.45330810546876 71.10723876953125 113.75360107421876 67.13203430175781 131.86279296875 58.298248291015625 146.43856811523438 57.41487121582031 153.06390380859375 59.623321533203125 170.7314453125 81.707763671875 179.12353515625 110.41754150390624 179.565185546875 124.1099090576172 172.93988037109375 155.91152954101563 164.54779052734375 168.7205047607422 155.71405029296875 174.4624481201172 152.1805419921875 174.4624481201172 152.1805419921875 174.4624481201172 " />
        <polyline stroke="black" stroke-width="3" stroke-linecap="round" fill="transparent" stroke-linejoin="round" points="122.14569091796876 2.6454391479492188 122.58734130859376 22.963134765625 123.470703125 39.747314453125 124.35409545898438 56.531494140625 125.23748779296876 75.52412414550781 125.67916870117188 133.8270721435547 124.35409545898438 172.69570922851563 122.14569091796876 208.47250366210935 120.37890625 226.14007568359375 120.37890625 226.14007568359375 " />
        </svg>