<?xml version="1.0" standalone="no"?>
    <svg width="256" height="256" xmlns="http://www.w3.org/2000/svg" version="1.1">
    <polyline stroke="black" stroke-width="3" stroke-linecap="round" fill="transparent" stroke-linejoin="round" points="35.057952880859375 87.91757202148438 51.7364501953125 75.81745910644531 69.72308349609375 67.314697265625 87.05569458007813 60.44706726074219 98.17471313476563 57.5037841796875 101.11795043945313 55.86864471435547 101.11795043945313 55.86864471435547 " />
        <polyline stroke="black" stroke-width="3" stroke-linecap="round" fill="transparent" stroke-linejoin="round" points="67.76092529296875 114.406982421875 82.80429077148438 115.71510314941406 96.86654663085938 120.29351806640624 106.02340698242188 126.1800537109375 117.46945190429688 140.56936645507813 121.7208251953125 159.53707885742188 119.1046142578125 178.50482177734375 112.2369384765625 197.4725341796875 103.08013916015624 210.8807678222656 93.92327880859376 219.383544921875 83.13128662109375 214.4781188964844 83.13128662109375 214.4781188964844 " />
        <polyline stroke="black" stroke-width="3" stroke-linecap="round" fill="transparent" stroke-linejoin="round" points="82.47723388671875 66.9876708984375 77.57183837890625 106.55827331542967 69.06903076171875 151.68836975097656 60.893280029296875 183.083251953125 53.371612548828125 202.05093383789065 46.50396728515625 215.13217163085935 40.617462158203125 219.7105712890625 34.73089599609375 216.11325073242188 34.73089599609375 216.11325073242188 " />
        <polyline stroke="black" stroke-width="3" stroke-linecap="round" fill="transparent" stroke-linejoin="round" points="48.13909912109375 165.7506561279297 62.201416015625 170.3290557861328 65.47171020507813 171.63719177246094 71.35821533203125 173.59934997558594 77.89883422851563 174.90748596191406 80.18804931640625 174.25343322753906 80.18804931640625 174.25343322753906 " />
        <polyline stroke="black" stroke-width="3" stroke-linecap="round" fill="transparent" stroke-linejoin="round" points="124.01007080078124 75.81745910644531 136.76422119140625 91.1878662109375 139.70742797851563 93.80410766601563 146.24807739257813 97.7284698486328 148.53729248046875 98.3825225830078 148.53729248046875 98.3825225830078 " />
        <polyline stroke="black" stroke-width="3" stroke-linecap="round" fill="transparent" stroke-linejoin="round" points="194.97552490234375 62.08221435546875 182.54840087890625 92.4959716796875 177.6429443359375 100.34469604492188 176.0078125 102.306884765625 176.0078125 102.306884765625 " />
        <polyline stroke="black" stroke-width="3" stroke-linecap="round" fill="transparent" stroke-linejoin="round" points="121.39376831054688 129.12330627441406 140.68853759765625 120.6205596923828 160.63739013671875 113.7529296875 179.93212890625 107.86637878417967 193.66741943359375 102.9609375 197.26470947265625 100.67172241210938 197.26470947265625 100.67172241210938 " />
        <polyline stroke="black" stroke-width="3" stroke-linecap="round" fill="transparent" stroke-linejoin="round" points="172.41046142578125 44.0955810546875 167.5050048828125 81.37696838378906 162.59954833984375 110.15559387207033 154.75079345703125 137.62611389160156 145.593994140625 165.42364501953125 133.1668701171875 192.24008178710935 124.6640625 209.89968872070313 118.77755737304688 218.7294921875 118.77755737304688 218.7294921875 " />
        <polyline stroke="black" stroke-width="3" stroke-linecap="round" fill="transparent" stroke-linejoin="round" points="166.1968994140625 117.02322387695313 172.73748779296875 135.33688354492188 183.85650634765625 155.61273193359375 197.26470947265625 177.52374267578125 211.9810791015625 196.8184814453125 226.0433349609375 210.8807678222656 231.2757568359375 215.13217163085935 231.2757568359375 215.13217163085935 " />
        </svg>