<?xml version="1.0" standalone="no"?>
    <svg width="256" height="256" xmlns="http://www.w3.org/2000/svg" version="1.1">
    <polyline stroke="black" stroke-width="3" stroke-linecap="round" fill="transparent" stroke-linejoin="round" points="47.768035888671875 74.13143920898438 60.01031494140625 66.17396545410156 72.86468505859375 57.6043701171875 86.94329833984375 49.03478240966797 97.96133422851563 42.91365051269531 106.53091430664063 38.016746520996094 112.65203857421876 34.9561767578125 115.10049438476563 33.119834899902344 113.87628173828124 33.119834899902344 111.42782592773438 36.792518615722656 105.9188232421875 44.13787841796875 95.51287841796876 62.50128173828125 80.8221435546875 93.10694885253906 66.13143920898438 125.5489501953125 52.6649169921875 155.54251098632813 41.0347900390625 183.08761596679688 36.13787841796875 197.16622924804688 34.91363525390625 202.67523193359375 34.91363525390625 203.89947509765625 34.91363525390625 203.89947509765625 " />
        <polyline stroke="black" stroke-width="3" stroke-linecap="round" fill="transparent" stroke-linejoin="round" points="45.319580078125 120.03993225097656 54.50128173828125 127.99740600585938 61.234527587890625 134.73065185546875 67.35565185546875 141.46389770507813 72.86468505859375 146.97291564941406 77.14947509765625 148.1971435546875 77.14947509765625 148.1971435546875 " />
        <polyline stroke="black" stroke-width="3" stroke-linecap="round" fill="transparent" stroke-linejoin="round" points="73.476806640625 111.47035217285156 83.27059936523438 104.7371063232422 90.00384521484375 101.06442260742188 97.96133422851563 97.39173889160156 104.694580078125 96.77963256835938 110.20361328125 100.45230102539063 113.87628173828124 113.3066864013672 112.65203857421876 139.01544189453125 107.14300537109376 161.05152893066406 98.57342529296876 176.9664764404297 91.22808837890624 183.69973754882813 83.88272094726563 187.37240600585935 78.98580932617188 186.14816284179688 78.98580932617188 186.14816284179688 " />
        <polyline stroke="black" stroke-width="3" stroke-linecap="round" fill="transparent" stroke-linejoin="round" points="109.59149169921876 68.62240600585938 121.22161865234376 75.9677734375 124.89431762695313 82.70101928710938 130.4033203125 93.71905517578124 137.1365966796875 105.34921264648438 143.86981201171875 113.91880798339844 149.990966796875 118.81570434570313 149.990966796875 118.81570434570313 " />
        <polyline stroke="black" stroke-width="3" stroke-linecap="round" fill="transparent" stroke-linejoin="round" points="194.0631103515625 48.42266845703125 191.61468505859375 58.21649169921875 183.6572265625 72.90721130371094 168.3543701171875 93.71905517578124 152.439453125 109.63400268554688 136.52447509765625 122.48838806152344 124.28219604492188 130.44586181640625 117.5489501953125 134.73065185546875 114.4884033203125 137.17910766601563 116.93682861328124 137.17910766601563 125.50640869140624 136.56700134277344 141.42138671875 133.5064239501953 159.17266845703125 129.833740234375 173.8634033203125 124.32472229003906 188.5540771484375 115.75514221191406 199.5721435546875 103.51287841796876 199.5721435546875 103.51287841796876 " />
        <polyline stroke="black" stroke-width="3" stroke-linecap="round" fill="transparent" stroke-linejoin="round" points="176.9239501953125 31.28350067138672 173.25128173828125 47.198448181152344 165.9058837890625 69.84663391113281 154.88787841796875 104.7371063232422 147.54251098632813 128.60952758789063 137.1365966796875 159.21519470214844 131.01544189453125 177.57858276367188 124.89431762695313 194.7177734375 119.99740600585938 204.51156616210935 116.93682861328124 210.0205993652344 116.93682861328124 210.0205993652344 " />
        <polyline stroke="black" stroke-width="3" stroke-linecap="round" fill="transparent" stroke-linejoin="round" points="134.07601928710938 153.09405517578125 148.15460205078125 161.05152893066406 158.560546875 169.62110900878906 170.190673828125 179.41493225097656 180.59661865234375 189.208740234375 189.166259765625 199.0025634765625 189.166259765625 199.0025634765625 " />
        </svg>