<?xml version="1.0" standalone="no"?>
    <svg width="256" height="256" xmlns="http://www.w3.org/2000/svg" version="1.1">
    <polyline stroke="black" stroke-width="3" stroke-linecap="round" fill="transparent" stroke-linejoin="round" points="45.93170166015625 88.21003723144531 55.72552490234375 85.14947509765625 69.1920166015625 79.64045715332031 83.27059936523438 74.13143920898438 97.34921264648438 68.01029968261719 110.20361328125 62.50128173828125 118.773193359375 58.21649169921875 123.67010498046876 55.155914306640625 124.89431762695313 52.09535217285156 124.89431762695313 52.09535217285156 " />
        <polyline stroke="black" stroke-width="3" stroke-linecap="round" fill="transparent" stroke-linejoin="round" points="92.45230102539063 79.64045715332031 86.94329833984375 94.3311767578125 75.3131103515625 126.77317810058594 67.35565185546875 148.80926513671875 63.07086181640625 165.9484405517578 58.1739501953125 178.19070434570313 54.50128173828125 184.9239501953125 52.6649169921875 186.76028442382813 52.6649169921875 186.76028442382813 " />
        <polyline stroke="black" stroke-width="3" stroke-linecap="round" fill="transparent" stroke-linejoin="round" points="43.483245849609375 136.56700134277344 55.1134033203125 142.07601928710938 61.84661865234375 145.74868774414063 70.41622924804688 148.1971435546875 77.7615966796875 149.42137145996094 85.10693359375 148.1971435546875 85.10693359375 148.1971435546875 " />
        <polyline stroke="black" stroke-width="3" stroke-linecap="round" fill="transparent" stroke-linejoin="round" points="85.10693359375 113.3066864013672 97.96133422851563 107.185546875 105.9188232421875 105.34921264648438 113.87628173828124 107.79766845703124 119.38531494140624 121.26416015625 117.5489501953125 168.3968963623047 110.81570434570313 188.59661865234375 102.85821533203124 200.83889770507813 95.51287841796876 206.34793090820313 89.3917236328125 206.34793090820313 86.3311767578125 201.45101928710935 86.3311767578125 189.208740234375 86.3311767578125 189.208740234375 " />
        <polyline stroke="black" stroke-width="3" stroke-linecap="round" fill="transparent" stroke-linejoin="round" points="123.67010498046876 68.62240600585938 131.6275634765625 77.19200134277344 136.52447509765625 83.92524719238281 142.03350830078125 90.6584930419922 148.15460205078125 95.55540466308594 158.560546875 94.94328308105467 158.560546875 94.94328308105467 " />
        <polyline stroke="black" stroke-width="3" stroke-linecap="round" fill="transparent" stroke-linejoin="round" points="197.73583984375 50.259010314941406 195.287353515625 61.88916015625 183.0450439453125 82.70101928710938 163.45745849609375 109.02189636230467 148.7667236328125 124.93684387207033 137.1365966796875 137.17910766601563 130.4033203125 143.912353515625 128.5670166015625 147.5850372314453 132.23968505859375 146.36080932617188 146.93038940429688 139.01544189453125 165.2938232421875 128.60952758789063 183.6572265625 116.36724853515624 200.18426513671875 102.28865051269533 219.1597900390625 82.08891296386719 219.1597900390625 82.08891296386719 " />
        <polyline stroke="black" stroke-width="3" stroke-linecap="round" fill="transparent" stroke-linejoin="round" points="185.4935302734375 46.586334228515625 179.3724365234375 58.82859802246094 168.3543701171875 91.88272094726563 159.17266845703125 125.5489501953125 149.990966796875 161.05152893066406 142.03350830078125 187.37240600585935 136.52447509765625 202.67523193359375 131.6275634765625 213.6932678222656 128.5670166015625 217.365966796875 128.5670166015625 217.365966796875 " />
        <polyline stroke="black" stroke-width="3" stroke-linecap="round" fill="transparent" stroke-linejoin="round" points="153.66363525390625 142.68812561035156 165.2938232421875 152.48194885253906 174.4754638671875 161.66363525390625 186.10565185546875 173.29379272460938 197.1236572265625 183.69973754882813 206.305419921875 193.4935302734375 217.935546875 208.79635620117188 217.935546875 208.79635620117188 " />
        </svg>