<?xml version="1.0" standalone="no"?>
    <svg width="256" height="256" xmlns="http://www.w3.org/2000/svg" version="1.1">
    <polyline stroke="black" stroke-width="3" stroke-linecap="round" fill="transparent" stroke-linejoin="round" points="51.3114013671875 85.55706787109375 60.44635009765625 81.29409790039063 72.01727294921875 75.81312561035156 88.460205078125 69.72315979003906 105.5120849609375 63.024200439453125 122.56399536132813 56.934234619140625 134.743896484375 51.453269958496094 140.8338623046875 48.40828704833984 143.26986694335938 45.97229766845703 140.8338623046875 44.14530944824219 135.9619140625 45.97229766845703 128.6539306640625 52.6712646484375 115.25604248046876 71.55015563964844 100.64013671875 99.56399536132813 88.460205078125 130.01380920410156 76.88925170898438 161.68162536621094 68.36331176757813 184.823486328125 62.88232421875 197.00341796875 59.228363037109375 202.484375 56.183380126953125 200.65740966796875 56.183380126953125 200.65740966796875 " />
        <polyline stroke="black" stroke-width="3" stroke-linecap="round" fill="transparent" stroke-linejoin="round" points="51.92041015625 129.40481567382813 68.36331176757813 133.0587921142578 78.71624755859375 136.10377502441406 89.06918334960938 139.75775146484375 98.20413208007813 142.19374084472656 104.29409790039063 142.19374084472656 107.94805908203124 139.75775146484375 107.94805908203124 139.75775146484375 " />
        <polyline stroke="black" stroke-width="3" stroke-linecap="round" fill="transparent" stroke-linejoin="round" points="99.422119140625 108.6989288330078 109.77508544921876 105.65394592285156 116.47402954101563 105.65394592285156 123.781982421875 107.48094177246094 129.262939453125 113.57090759277344 132.91693115234375 131.2318115234375 128.6539306640625 164.7266082763672 121.95498657226563 186.04147338867188 114.64703369140624 200.04840087890625 107.94805908203124 206.74737548828125 101.24911499023438 209.183349609375 96.98614501953124 204.92037963867188 96.98614501953124 204.92037963867188 " />
        <polyline stroke="black" stroke-width="3" stroke-linecap="round" fill="transparent" stroke-linejoin="round" points="134.13491821289063 78.24911499023438 143.26986694335938 84.94807434082031 146.923828125 89.21104431152344 151.79583740234375 92.86502075195313 157.27679443359375 95.91000366210938 164.584716796875 95.91000366210938 176.1556396484375 90.42904663085938 187.72662353515625 83.12107849121094 196.2525634765625 78.24911499023438 201.12451171875 76.422119140625 202.9515380859375 78.24911499023438 198.07952880859375 85.55706787109375 179.8096923828125 103.2179718017578 157.27679443359375 121.48785400390624 139.00689697265625 134.8857879638672 131.69891357421875 140.9757537841797 126.82696533203124 144.62973022460938 128.04495239257813 147.06570434570313 137.78887939453125 145.84771728515625 161.539794921875 139.75775146484375 188.944580078125 128.18682861328125 210.86846923828125 114.17990112304688 222.43939208984375 101.39097595214844 229.13836669921875 89.82003784179688 229.13836669921875 89.82003784179688 " />
        <polyline stroke="black" stroke-width="3" stroke-linecap="round" fill="transparent" stroke-linejoin="round" points="184.681640625 41.709327697753906 179.20068359375 55.71624755859375 167.6297607421875 91.64703369140624 159.7127685546875 119.0518798828125 151.18682861328125 145.2387237548828 145.09686279296875 162.29061889648438 137.78887939453125 175.68853759765625 131.08993530273438 186.04147338867188 131.08993530273438 186.04147338867188 " />
        <polyline stroke="black" stroke-width="3" stroke-linecap="round" fill="transparent" stroke-linejoin="round" points="167.6297607421875 131.2318115234375 179.20068359375 140.3667449951172 193.20758056640625 151.93768310546875 205.9964599609375 164.7266082763672 218.785400390625 178.7335205078125 229.74737548828125 193.95843505859375 229.74737548828125 193.95843505859375 " />
        </svg>