<?xml version="1.0" standalone="no"?>
    <svg width="256" height="256" xmlns="http://www.w3.org/2000/svg" version="1.1">
    <polyline stroke="black" stroke-width="3" stroke-linecap="round" fill="transparent" stroke-linejoin="round" points="60.88787841796875 97.02200317382813 73.14981079101563 90.56834411621094 87.99322509765625 84.76005554199219 100.90057373046876 80.88786315917969 111.22640991210938 79.59712219238281 116.38934326171876 80.24249267578125 116.38934326171876 85.40542602539063 111.22640991210938 93.79518127441406 111.22640991210938 93.79518127441406 " />
        <polyline stroke="black" stroke-width="3" stroke-linecap="round" fill="transparent" stroke-linejoin="round" points="77.6673583984375 144.13372802734375 87.99322509765625 140.9069061279297 98.9644775390625 136.38934326171875 108.64495849609376 130.58103942871094 115.09860229492188 125.41812133789063 115.09860229492188 125.41812133789063 " />
        <polyline stroke="black" stroke-width="3" stroke-linecap="round" fill="transparent" stroke-linejoin="round" points="57.6610107421875 188.66400146484375 70.568359375 185.43716430664065 85.41177368164063 180.27423095703125 100.90057373046876 171.23910522460938 113.807861328125 157.0410614013672 113.807861328125 157.0410614013672 " />
        <polyline stroke="black" stroke-width="3" stroke-linecap="round" fill="transparent" stroke-linejoin="round" points="78.9581298828125 61.52687072753906 75.08590698242188 113.15615844726563 73.795166015625 141.55226135253906 72.50445556640625 171.23910522460938 73.795166015625 189.30935668945313 74.4405517578125 204.15277099609375 75.73126220703125 211.89715576171875 77.6673583984375 214.4786376953125 77.6673583984375 214.4786376953125 " />
        <polyline stroke="black" stroke-width="3" stroke-linecap="round" fill="transparent" stroke-linejoin="round" points="142.2039794921875 109.92933654785156 144.14007568359375 117.02835083007813 147.36691284179688 122.1912841796875 153.820556640625 122.1912841796875 162.2103271484375 114.4468994140625 172.53619384765625 97.02200317382813 178.344482421875 71.20736694335938 178.344482421875 51.84638214111328 177.0537109375 40.87516021728515 177.0537109375 39.58442687988281 176.40838623046875 44.10198974609375 172.53619384765625 60.23614501953125 164.14642333984375 94.4405517578125 151.88446044921875 132.51715087890625 137.04107666015625 166.076171875 124.77911376953124 195.11764526367188 115.09860229492188 213.1878967285156 109.29031372070313 222.2230224609375 104.12738037109376 229.32205200195313 104.12738037109376 229.32205200195313 " />
        <polyline stroke="black" stroke-width="3" stroke-linecap="round" fill="transparent" stroke-linejoin="round" points="120.26153564453124 151.8781280517578 133.16885375976563 146.06982421875 147.36691284179688 140.26153564453125 162.855712890625 136.38934326171875 176.40838623046875 136.38934326171875 186.7342529296875 141.55226135253906 195.7694091796875 158.331787109375 200.9322509765625 185.43716430664065 200.28692626953125 206.7342529296875 195.7694091796875 220.93228149414065 189.9610595703125 228.03131103515625 179.63525390625 231.90350341796875 162.2103271484375 229.32205200195313 162.2103271484375 229.32205200195313 " />
        </svg>