<?xml version="1.0" standalone="no"?>
    <svg width="256" height="256" xmlns="http://www.w3.org/2000/svg" version="1.1">
    <polyline stroke="black" stroke-width="3" stroke-linecap="round" fill="transparent" stroke-linejoin="round" points="55.00433349609375 82.28811645507813 61.635589599609375 80.51976013183594 78.876953125 76.54098510742188 95.67623901367188 73.00430297851563 110.26507568359376 70.79386901855469 120.43307495117188 70.35177612304688 125.73812866210938 70.79386901855469 127.50643920898438 71.2359619140625 127.50643920898438 71.2359619140625 " />
        <polyline stroke="black" stroke-width="3" stroke-linecap="round" fill="transparent" stroke-linejoin="round" points="63.4039306640625 103.50827026367188 70.03524780273438 100.41363525390624 77.55072021484375 97.76113891601563 85.066162109375 95.55068969726563 99.212890625 92.89817810058594 111.59130859375 92.45608520507813 119.10678100585938 93.7823486328125 121.31723022460938 94.22444152832033 121.31723022460938 94.22444152832033 " />
        <polyline stroke="black" stroke-width="3" stroke-linecap="round" fill="transparent" stroke-linejoin="round" points="57.656829833984375 142.8539276123047 74.01400756835938 140.20140075683594 83.29782104492188 139.31724548339844 107.17050170898438 137.99099731445313 118.66473388671876 137.10679626464844 122.64352416992188 136.22264099121094 122.64352416992188 136.22264099121094 " />
        <polyline stroke="black" stroke-width="3" stroke-linecap="round" fill="transparent" stroke-linejoin="round" points="85.50827026367188 60.625885009765625 85.50827026367188 74.33056640625 85.066162109375 88.91940307617188 85.066162109375 106.1607666015625 85.066162109375 157.00070190429688 85.066162109375 170.26327514648438 85.066162109375 199.44097900390625 85.066162109375 209.60894775390625 85.066162109375 212.70355224609375 85.066162109375 212.70355224609375 " />
        <polyline stroke="black" stroke-width="3" stroke-linecap="round" fill="transparent" stroke-linejoin="round" points="142.537353515625 63.720489501953125 144.747802734375 69.0255126953125 147.40032958984375 74.33056640625 149.61077880859375 78.75141906738281 153.58953857421875 85.38272094726563 155.35791015625 87.5931396484375 158.89459228515625 89.36148071289063 158.89459228515625 89.36148071289063 " />
        <polyline stroke="black" stroke-width="3" stroke-linecap="round" fill="transparent" stroke-linejoin="round" points="185.86181640625 62.83631896972656 180.9989013671875 78.75141906738281 174.8096923828125 97.3190460205078 169.06256103515625 112.3499755859375 162.87335205078125 127.38092041015624 156.68414306640625 140.64352416992188 144.747802734375 164.95823669433594 135.02191162109375 182.1996154785156 125.2960205078125 195.46218872070313 120.43307495117188 201.65139770507813 120.43307495117188 201.65139770507813 " />
        <polyline stroke="black" stroke-width="3" stroke-linecap="round" fill="transparent" stroke-linejoin="round" points="118.66473388671876 112.3499755859375 135.02191162109375 104.8345184326172 169.504638671875 94.66653442382813 176.57806396484375 93.7823486328125 188.9564208984375 94.22444152832033 201.7769775390625 98.20323181152344 204.87158203125 100.85574340820313 211.50286865234375 116.32876586914063 213.7132568359375 157.44277954101563 210.61865234375 177.7787322998047 206.639892578125 191.92550659179688 204.429443359375 197.67263793945313 196.471923828125 207.3985290527344 186.74603271484375 209.60894775390625 167.294189453125 202.9776611328125 167.294189453125 202.9776611328125 " />
        </svg>