<?xml version="1.0" standalone="no"?>
    <svg width="256" height="256" xmlns="http://www.w3.org/2000/svg" version="1.1">
    <polyline stroke="black" stroke-width="3" stroke-linecap="round" fill="transparent" stroke-linejoin="round" points="95.34225463867188 84.857177734375 105.09506225585938 81.60626220703125 122.56878662109376 76.72987365722656 130.696044921875 74.69804382324219 144.10614013671875 71.85348510742188 151.82708740234375 70.63438415527344 153.45257568359375 70.63438415527344 154.26531982421875 72.25985717773438 154.26531982421875 72.25985717773438 " />
        <polyline stroke="black" stroke-width="3" stroke-linecap="round" fill="transparent" stroke-linejoin="round" points="101.0313720703125 121.43009948730467 108.345947265625 119.80465698242188 114.84783935546876 117.77281188964844 127.03878784179688 112.89642333984376 133.13427734375 110.45823669433594 142.88705444335938 106.80093383789063 146.13800048828125 105.5818328857422 146.13800048828125 105.5818328857422 " />
        <polyline stroke="black" stroke-width="3" stroke-linecap="round" fill="transparent" stroke-linejoin="round" points="92.09130859375 167.75579833984375 100.625 167.34942626953125 109.971435546875 166.13034057617188 126.63241577148438 162.47305297851563 148.576171875 153.5330047607422 160.7672119140625 140.529296875 160.7672119140625 140.529296875 " />
        <polyline stroke="black" stroke-width="3" stroke-linecap="round" fill="transparent" stroke-linejoin="round" points="115.254150390625 49.90972900390625 110.7841796875 87.70175170898438 105.50140380859376 127.93194580078124 103.06320190429688 160.4412078857422 102.25048828125 184.41680908203125 103.06320190429688 206.76690673828125 104.68865966796876 210.4241943359375 104.68865966796876 210.4241943359375 " />
        <polyline stroke="black" stroke-width="3" stroke-linecap="round" fill="transparent" stroke-linejoin="round" points="182.71087646484375 84.45083618164063 188.4000244140625 87.70175170898438 188.4000244140625 87.70175170898438 " />
        <polyline stroke="black" stroke-width="3" stroke-linecap="round" fill="transparent" stroke-linejoin="round" points="205.873779296875 46.25243377685547 199.77825927734375 60.068878173828125 192.87005615234375 75.91714477539063 185.555419921875 93.390869140625 169.70721435546875 134.43382263183594 162.392578125 154.75210571289063 151.014404296875 187.2613525390625 144.51254272460938 210.017822265625 144.51254272460938 210.017822265625 " />
        <polyline stroke="black" stroke-width="3" stroke-linecap="round" fill="transparent" stroke-linejoin="round" points="155.484375 116.9600830078125 168.89447021484375 112.08367919921876 200.59100341796875 105.17547607421876 207.90557861328125 105.17547607421876 220.0965576171875 108.4263916015625 229.03662109375 117.366455078125 237.1639404296875 142.56112670898438 239.19573974609375 170.60037231445313 237.9766845703125 190.10592651367188 235.132080078125 202.7032470703125 231.88116455078125 209.61148071289065 228.223876953125 212.4560546875 220.0965576171875 213.26876831054688 211.5628662109375 211.643310546875 211.5628662109375 211.643310546875 " />
        </svg>