<?xml version="1.0" standalone="no"?>
    <svg width="256" height="256" xmlns="http://www.w3.org/2000/svg" version="1.1">
    <polyline stroke="black" stroke-width="3" stroke-linecap="round" fill="transparent" stroke-linejoin="round" points="73.063232421875 71.25640869140625 79.8245849609375 68.72088623046875 87.008544921875 66.18537902832031 100.53125 61.53694152832031 111.94110107421876 58.15626525878906 119.547607421875 55.620750427246094 123.35089111328124 53.93040466308594 123.7734375 53.93040466308594 123.7734375 53.93040466308594 " />
        <polyline stroke="black" stroke-width="3" stroke-linecap="round" fill="transparent" stroke-linejoin="round" points="75.59872436523438 110.97943115234376 87.85372924804688 109.711669921875 107.7152099609375 105.48580932617188 123.35089111328124 101.25994873046876 127.15414428710938 99.9921875 127.15414428710938 99.9921875 " />
        <polyline stroke="black" stroke-width="3" stroke-linecap="round" fill="transparent" stroke-linejoin="round" points="73.063232421875 155.77346801757813 86.5859375 153.6605224609375 106.44744873046876 143.9410858154297 119.547607421875 130.84092712402344 119.547607421875 130.84092712402344 " />
        <polyline stroke="black" stroke-width="3" stroke-linecap="round" fill="transparent" stroke-linejoin="round" points="90.81182861328124 61.114349365234375 90.38925170898438 69.14347839355469 91.234375 105.06321716308594 92.07955932617188 114.36009216308594 93.7698974609375 133.79904174804688 94.61508178710938 148.1669158935547 94.61508178710938 160.84446716308594 94.61508178710938 165.91549682617188 94.61508178710938 173.9446258544922 95.03768920898438 180.28338623046875 95.03768920898438 180.28338623046875 " />
        <polyline stroke="black" stroke-width="3" stroke-linecap="round" fill="transparent" stroke-linejoin="round" points="155.4674072265625 57.733673095703125 156.735107421875 61.114349365234375 159.2706298828125 67.03054809570313 161.80615234375 72.524169921875 164.7642822265625 78.01776123046875 164.7642822265625 78.01776123046875 " />
        <polyline stroke="black" stroke-width="3" stroke-linecap="round" fill="transparent" stroke-linejoin="round" points="196.0355224609375 56.0433349609375 190.54193115234375 69.14347839355469 184.625732421875 82.66619873046875 172.37078857421875 111.8245849609375 152.93182373046875 155.77346801757813 147.86080932617188 167.6058349609375 137.71875 190.8480224609375 129.26705932617188 208.17401123046875 122.50570678710938 222.11932373046875 122.50570678710938 222.11932373046875 " />
        <polyline stroke="black" stroke-width="3" stroke-linecap="round" fill="transparent" stroke-linejoin="round" points="157.58026123046875 111.8245849609375 167.72235107421875 108.02133178710938 177.8643798828125 107.17617797851563 188.0064697265625 108.8665008544922 194.76776123046875 113.09234619140624 200.6839599609375 124.50213623046876 203.64208984375 146.47659301757813 201.1065673828125 168.02842712402344 195.61297607421875 185.77700805664065 188.0064697265625 198.87713623046875 184.625732421875 202.25784301757813 168.1448974609375 211.55471801757813 160.1158447265625 213.66763305664065 160.1158447265625 213.66763305664065 " />
        </svg>