<?xml version="1.0" standalone="no"?>
    <svg width="256" height="256" xmlns="http://www.w3.org/2000/svg" version="1.1">
    <polyline stroke="black" stroke-width="3" stroke-linecap="round" fill="transparent" stroke-linejoin="round" points="73 115 79 111 85 107 95 101 106 96 116 91 115 91 115 91 " />
        <polyline stroke="black" stroke-width="3" stroke-linecap="round" fill="transparent" stroke-linejoin="round" points="101 77 97 91 93 105 89 120 86 136 83 152 79 166 76 175 75 175 75 175 " />
        <polyline stroke="black" stroke-width="3" stroke-linecap="round" fill="transparent" stroke-linejoin="round" points="88 139 96 139 104 139 114 141 133 147 148 153 162 158 173 160 177 157 177 157 " />
        <polyline stroke="black" stroke-width="3" stroke-linecap="round" fill="transparent" stroke-linejoin="round" points="153 80 152 82 151 84 150 87 148 91 143 103 133 123 127 132 123 137 123 135 123 135 " />
        <polyline stroke="black" stroke-width="3" stroke-linecap="round" fill="transparent" stroke-linejoin="round" points="123 106 133 111 143 116 152 121 161 127 168 133 174 138 175 139 175 139 " />
        <polyline stroke="black" stroke-width="3" stroke-linecap="round" fill="transparent" stroke-linejoin="round" points="85 188 84 196 83 204 85 209 89 212 97 214 111 213 120 211 128 210 135 209 143 207 151 205 155 204 157 203 158 202 159 199 159 195 157 190 156 183 154 176 148 168 143 165 139 164 135 161 135 161 135 161 " />
        <polyline stroke="black" stroke-width="3" stroke-linecap="round" fill="transparent" stroke-linejoin="round" points="71 199 72 199 73 199 77 199 86 198 100 195 117 190 145 179 163 173 177 167 191 164 193 164 194 165 193 169 193 170 193 170 " />
        </svg>