<?xml version="1.0" standalone="no"?>
    <svg width="256" height="256" xmlns="http://www.w3.org/2000/svg" version="1.1">
    <polyline stroke="black" stroke-width="3" stroke-linecap="round" fill="transparent" stroke-linejoin="round" points="57.78790283203125 111.80564880371094 77.20504760742188 101.65574645996094 86.91357421875 96.8014678955078 97.5047607421875 91.94718933105467 107.65463256835938 87.97549438476563 137.22164916992188 80.03211975097656 153.990966796875 76.50173950195313 166.34735107421875 72.97134399414063 169.8778076171875 71.20614624023438 174.290771484375 67.23446655273438 175.6146240234375 64.586669921875 175.6146240234375 64.586669921875 " />
        <polyline stroke="black" stroke-width="3" stroke-linecap="round" fill="transparent" stroke-linejoin="round" points="120.45233154296876 38.55004119873047 116.4805908203125 48.699913024902344 113.39154052734376 57.967193603515625 109.86114501953124 69.44094848632813 99.71127319335938 96.8014678955078 80.29412841796875 143.5791473388672 72.35076904296875 159.46588134765625 67.937744140625 167.85055541992188 66.61386108398438 169.17446899414063 66.61386108398438 169.17446899414063 " />
        <polyline stroke="black" stroke-width="3" stroke-linecap="round" fill="transparent" stroke-linejoin="round" points="98.82867431640624 106.06875610351563 114.71542358398438 116.659912109375 122.65878295898438 122.39682006835938 131.926025390625 129.0162811279297 149.5780029296875 141.37265014648438 164.5821533203125 151.96380615234375 171.20166015625 155.93548583984375 181.35150146484375 160.78977966308594 181.35150146484375 160.78977966308594 " />
        <polyline stroke="black" stroke-width="3" stroke-linecap="round" fill="transparent" stroke-linejoin="round" points="188.8536376953125 69.88224792480469 179.5863037109375 81.35601806640625 175.17333984375 87.0928955078125 170.31903076171875 93.27108764648438 158.40399169921875 106.06875610351563 153.1083984375 111.36431884765624 149.5780029296875 114.89471435546876 149.5780029296875 114.89471435546876 " />
        <polyline stroke="black" stroke-width="3" stroke-linecap="round" fill="transparent" stroke-linejoin="round" points="136.33905029296875 107.39263916015624 155.31488037109375 107.39263916015624 161.0517578125 107.39263916015624 173.40814208984375 108.27523803710938 184.44061279296875 109.1578369140625 191.94268798828125 110.92301940917967 191.94268798828125 110.92301940917967 " />
        <polyline stroke="black" stroke-width="3" stroke-linecap="round" fill="transparent" stroke-linejoin="round" points="77.20504760742188 192.12200927734375 89.56137084960938 186.826416015625 97.0634765625 184.1786193847656 122.65878295898438 176.2352294921875 130.16085815429688 174.0287322998047 142.95849609375 170.93963623046875 151.34320068359375 168.29185485839844 151.34320068359375 168.29185485839844 " />
        <polyline stroke="black" stroke-width="3" stroke-linecap="round" fill="transparent" stroke-linejoin="round" points="107.65463256835938 147.10952758789063 102.80035400390624 161.67236328125 100.15255737304688 171.38095092773438 97.5047607421875 180.2069091796875 94.41571044921876 196.09368896484375 93.974365234375 201.3892822265625 97.946044921875 210.2152404785156 108.53720092773438 212.863037109375 121.77621459960938 212.42172241210935 133.69125366210938 210.65655517578125 142.95849609375 207.56744384765625 146.48895263671875 204.91964721679688 146.48895263671875 204.91964721679688 " />
        <polyline stroke="black" stroke-width="3" stroke-linecap="round" fill="transparent" stroke-linejoin="round" points="138.98681640625 140.04873657226563 140.31072998046875 151.08120727539063 141.19332885742188 156.37680053710938 142.075927734375 162.5549774169922 144.72372436523438 185.06121826171875 146.48895263671875 204.91964721679688 147.81283569335938 213.74563598632813 147.81283569335938 213.74563598632813 " />
        </svg>