<?xml version="1.0" standalone="no"?>
    <svg width="256" height="256" xmlns="http://www.w3.org/2000/svg" version="1.1">
    <polyline stroke="black" stroke-width="3" stroke-linecap="round" fill="transparent" stroke-linejoin="round" points="87.53890991210938 88.92086791992188 95.66622924804688 86.88902282714844 103.79354858398438 84.857177734375 112.73358154296876 82.82534790039063 121.26727294921876 81.19989013671875 141.99191284179688 77.13623046875 159.4656982421875 73.47894287109375 172.06298828125 69.0089111328125 177.345703125 65.75799560546875 177.345703125 65.75799560546875 " />
        <polyline stroke="black" stroke-width="3" stroke-linecap="round" fill="transparent" stroke-linejoin="round" points="138.74102783203125 45.84605407714844 133.458251953125 57.22430419921875 128.17547607421875 68.60255432128906 122.486328125 81.19989013671875 111.92083740234376 105.98820495605467 102.16806030273438 127.52560424804688 93.63436889648438 143.37384033203125 87.53890991210938 153.93936157226563 83.881591796875 158.81576538085938 82.25616455078125 160.4412078857422 82.25616455078125 160.03485107421875 87.13253784179688 156.78392028808594 100.5426025390625 151.90753173828125 119.64181518554688 149.46934509277344 140.77279663085938 151.90753173828125 160.68475341796875 157.59666442871094 177.75213623046875 164.50486755371094 191.56854248046875 169.3812713623047 197.2576904296875 170.19400024414063 197.2576904296875 170.19400024414063 " />
        <polyline stroke="black" stroke-width="3" stroke-linecap="round" fill="transparent" stroke-linejoin="round" points="195.6322021484375 62.507080078125 191.16217041015625 70.22802734375 186.692138671875 77.948974609375 176.93939208984375 94.20361328125 165.967529296875 107.61367797851563 152.96380615234375 119.39828491210938 146.05560302734375 124.274658203125 146.05560302734375 124.274658203125 " />
        <polyline stroke="black" stroke-width="3" stroke-linecap="round" fill="transparent" stroke-linejoin="round" points="132.2391357421875 97.4545440673828 150.52560424804688 96.6417999267578 168.81207275390625 95.8290557861328 181.0030517578125 97.04815673828124 196.851318359375 99.08000183105467 202.94677734375 100.29910278320313 202.94677734375 100.29910278320313 " />
        <polyline stroke="black" stroke-width="3" stroke-linecap="round" fill="transparent" stroke-linejoin="round" points="76.56701660156251 211.643310546875 95.66622924804688 203.92236328125 114.76544189453124 196.201416015625 133.86459350585938 189.29318237304688 150.93197631835938 182.79132080078125 164.342041015625 175.47674560546875 169.21844482421875 171.0067138671875 169.21844482421875 171.0067138671875 " />
        <polyline stroke="black" stroke-width="3" stroke-linecap="round" fill="transparent" stroke-linejoin="round" points="126.54995727539063 157.19027709960938 123.7054443359375 163.692138671875 120.86093139648438 170.19400024414063 116.390869140625 183.19769287109375 114.76544189453124 188.8868408203125 113.13995361328124 199.45233154296875 113.95269775390624 207.17327880859375 116.7972412109375 211.2369384765625 123.7054443359375 213.26876831054688 136.30279541015625 208.7987365722656 136.30279541015625 208.7987365722656 " />
        <polyline stroke="black" stroke-width="3" stroke-linecap="round" fill="transparent" stroke-linejoin="round" points="148.4937744140625 164.09848022460938 147.6810302734375 171.0067138671875 146.8682861328125 177.91494750976563 146.4619140625 184.82318115234375 146.4619140625 191.73138427734375 147.274658203125 217.3324279785156 147.274658203125 217.3324279785156 " />
        </svg>