<?xml version="1.0" standalone="no"?>
    <svg width="256" height="256" xmlns="http://www.w3.org/2000/svg" version="1.1">
    <polyline stroke="black" stroke-width="3" stroke-linecap="round" fill="transparent" stroke-linejoin="round" points="52.734619140625 81.25260925292969 66.1639404296875 77.05593872070313 74.13763427734375 75.37727355957031 82.95062255859375 73.6986083984375 103.09457397460938 69.92161560058594 113.58627319335938 67.82327270507813 133.730224609375 64.4659423828125 149.67758178710938 60.68894958496094 161.42822265625 56.492279052734375 165.20526123046875 54.81361389160156 170.2412109375 51.45628356933594 170.2412109375 51.45628356933594 " />
        <polyline stroke="black" stroke-width="3" stroke-linecap="round" fill="transparent" stroke-linejoin="round" points="110.64862060546876 32.5712890625 105.19296264648438 48.93828582763672 102.6749267578125 56.911956787109375 95.96026611328124 76.21661376953125 88.825927734375 96.360595703125 81.27194213867188 114.40625 74.13763427734375 130.35357666015625 68.68197631835938 141.6845703125 65.3245849609375 147.14024353027344 65.3245849609375 147.14024353027344 " />
        <polyline stroke="black" stroke-width="3" stroke-linecap="round" fill="transparent" stroke-linejoin="round" points="94.70126342773438 94.68194580078124 108.55026245117188 103.49493408203124 121.97958374023438 113.98660278320313 135.40890502929688 125.31759643554688 141.28427124023438 130.77325439453125 155.13323974609375 143.78292846679688 161.008544921875 148.39923095703125 161.008544921875 148.39923095703125 " />
        <polyline stroke="black" stroke-width="3" stroke-linecap="round" fill="transparent" stroke-linejoin="round" points="171.08056640625 66.98394775390625 162.687255859375 77.89527893066406 158.9102783203125 83.35093688964844 150.09725952148438 94.26226806640624 140.86459350585938 105.173583984375 136.24822998046875 109.37026977539063 124.49755859375 117.34393310546876 124.49755859375 117.34393310546876 " />
        <polyline stroke="black" stroke-width="3" stroke-linecap="round" fill="transparent" stroke-linejoin="round" points="123.23858642578124 98.87858581542967 135.40890502929688 99.29826354980467 139.18588256835938 99.71794128417967 143.382568359375 100.13760375976563 156.39227294921875 103.07525634765624 160.5888671875 103.9145965576172 160.5888671875 103.9145965576172 " />
        <polyline stroke="black" stroke-width="3" stroke-linecap="round" fill="transparent" stroke-linejoin="round" points="64.06561279296875 165.18589782714844 74.97698974609375 161.82858276367188 80.85226440429688 160.56956481933594 87.56695556640625 159.31057739257813 100.99627685546876 157.21224975585938 119.46160888671876 155.9532470703125 129.11395263671875 155.11392211914063 135.40890502929688 153.8549041748047 137.50726318359375 153.01556396484375 137.50726318359375 153.01556396484375 " />
        <polyline stroke="black" stroke-width="3" stroke-linecap="round" fill="transparent" stroke-linejoin="round" points="98.05859375 138.32725524902344 89.665283203125 151.75657653808594 87.14727783203125 158.05157470703125 84.62924194335938 163.92691040039063 82.53094482421875 169.80223083496094 80.85226440429688 174.83824157714844 79.59326171875 185.32989501953125 80.85226440429688 192.8839111328125 84.2095947265625 197.91989135742188 87.14727783203125 200.01821899414065 102.6749267578125 204.21490478515625 113.16659545898438 203.79522705078125 121.97958374023438 202.1165771484375 128.27459716796875 199.59857177734375 133.310546875 194.14288330078125 133.310546875 194.14288330078125 " />
        <polyline stroke="black" stroke-width="3" stroke-linecap="round" fill="transparent" stroke-linejoin="round" points="116.104248046875 147.55992126464844 117.78292846679688 163.5072479248047 118.62225341796876 168.962890625 120.3009033203125 184.0708923339844 120.3009033203125 184.0708923339844 " />
        </svg>