<?xml version="1.0" standalone="no"?>
    <svg width="256" height="256" xmlns="http://www.w3.org/2000/svg" version="1.1">
    <polyline stroke="black" stroke-width="3" stroke-linecap="round" fill="transparent" stroke-linejoin="round" points="65.046630859375 83.16767883300781 72.72421264648438 80.339111328125 80.40179443359375 77.51054382324219 89.69564819335938 75.08604431152344 98.98956298828124 73.06564331054688 122.022216796875 69.42889404296875 145.054931640625 66.19622802734375 164.046875 62.96357727050781 175.7652587890625 60.53907775878906 178.9979248046875 59.32682800292969 178.9979248046875 59.32682800292969 " />
        <polyline stroke="black" stroke-width="3" stroke-linecap="round" fill="transparent" stroke-linejoin="round" points="128.08352661132815 5.9879302978515625 113.94061279296876 37.91045379638672 99.79769897460938 69.83297729492188 92.52426147460938 86.804443359375 80.40179443359375 113.473876953125 71.916015625 132.86985778808594 66.6629638671875 144.99234008789063 63.8343505859375 151.8617401123047 63.8343505859375 151.8617401123047 " />
        <polyline stroke="black" stroke-width="3" stroke-linecap="round" fill="transparent" stroke-linejoin="round" points="95.352783203125 118.32289123535158 101.818115234375 121.95962524414063 108.283447265625 125.59635925292967 115.55694580078124 130.041259765625 123.2344970703125 134.8902587890625 140.61004638671875 144.58824157714844 158.3896484375 151.05357360839844 158.3896484375 151.05357360839844 " />
        <polyline stroke="black" stroke-width="3" stroke-linecap="round" fill="transparent" stroke-linejoin="round" points="181.018310546875 64.17582702636719 172.5325927734375 71.8533935546875 164.046875 79.53096008300781 155.15704345703125 87.20854187011719 132.52841186523438 106.6044921875 132.52841186523438 106.6044921875 " />
        <polyline stroke="black" stroke-width="3" stroke-linecap="round" fill="transparent" stroke-linejoin="round" points="141.01409912109375 92.4616241455078 146.26718139648438 93.269775390625 151.520263671875 94.0779266357422 156.77337646484375 95.29017639160156 170.916259765625 98.1187744140625 176.57342529296875 100.13916015625 176.57342529296875 100.13916015625 " />
        <polyline stroke="black" stroke-width="3" stroke-linecap="round" fill="transparent" stroke-linejoin="round" points="75.552734375 182.16793823242182 85.250732421875 180.55160522460935 94.94873046875 178.93527221679688 104.64669799804688 176.9148406982422 133.74066162109375 170.04544067382813 141.01412963867188 168.0250244140625 146.67132568359375 166.00462341308594 153.94476318359375 161.9637908935547 153.94476318359375 161.9637908935547 " />
        <polyline stroke="black" stroke-width="3" stroke-linecap="round" fill="transparent" stroke-linejoin="round" points="108.28350830078125 152.26580810546875 104.24264526367188 161.9637908935547 100.2017822265625 171.66177368164063 97.37322998046876 182.5720062255859 95.352783203125 191.4618225097656 94.94873046875 194.69448852539065 94.54464721679688 198.73529052734375 94.54464721679688 199.94757080078125 94.54464721679688 199.94757080078125 " />
        <polyline stroke="black" stroke-width="3" stroke-linecap="round" fill="transparent" stroke-linejoin="round" points="142.22637939453125 154.28622436523438 139.39779663085938 160.3474578857422 136.5692138671875 166.40869140625 133.3365478515625 172.8740234375 127.67941284179688 183.3801727294922 123.2344970703125 189.84548950195313 117.57733154296876 195.09857177734375 112.32427978515624 197.5230712890625 107.47528076171876 198.73529052734375 103.83856201171876 199.54345703125 101.00994873046876 200.35162353515625 98.98956298828124 200.35162353515625 97.37322998046876 200.35162353515625 95.352783203125 201.1597900390625 95.352783203125 201.1597900390625 " />
        </svg>