<?xml version="1.0" standalone="no"?>
    <svg width="256" height="256" xmlns="http://www.w3.org/2000/svg" version="1.1">
    <polyline stroke="black" stroke-width="3" stroke-linecap="round" fill="transparent" stroke-linejoin="round" points="68 80 73 80 78 80 91 78 106 76 119 74 129 72 137 69 140 64 140 61 140 61 " />
        <polyline stroke="black" stroke-width="3" stroke-linecap="round" fill="transparent" stroke-linejoin="round" points="127 45 116 65 105 85 92 107 79 127 68 141 63 150 61 152 61 152 " />
        <polyline stroke="black" stroke-width="3" stroke-linecap="round" fill="transparent" stroke-linejoin="round" points="96 104 106 108 116 112 128 118 144 122 163 125 181 127 196 129 209 130 214 130 214 130 " />
        <polyline stroke="black" stroke-width="3" stroke-linecap="round" fill="transparent" stroke-linejoin="round" points="187 82 184 83 181 84 171 92 167 96 159 104 152 110 146 113 146 113 " />
        <polyline stroke="black" stroke-width="3" stroke-linecap="round" fill="transparent" stroke-linejoin="round" points="155 88 168 97 181 106 188 111 188 111 " />
        <polyline stroke="black" stroke-width="3" stroke-linecap="round" fill="transparent" stroke-linejoin="round" points="88 159 88 165 88 171 90 183 93 193 95 198 99 204 103 208 108 211 108 211 " />
        <polyline stroke="black" stroke-width="3" stroke-linecap="round" fill="transparent" stroke-linejoin="round" points="67 188 75 186 83 184 102 177 123 170 142 166 156 165 168 164 175 164 179 164 180 164 180 164 " />
        <polyline stroke="black" stroke-width="3" stroke-linecap="round" fill="transparent" stroke-linejoin="round" points="143 148 143 158 143 168 143 180 143 188 143 198 142 207 142 207 " />
        <polyline stroke="black" stroke-width="3" stroke-linecap="round" fill="transparent" stroke-linejoin="round" points="98 208 108 208 118 208 134 208 150 208 150 208 " />
        </svg>