<?xml version="1.0" standalone="no"?>
    <svg width="256" height="256" xmlns="http://www.w3.org/2000/svg" version="1.1">
    <polyline stroke="black" stroke-width="3" stroke-linecap="round" fill="transparent" stroke-linejoin="round" points="31 70 34 70 35 70 36 69 40 69 44 69 50 69 53 68 57 68 61 68 69 68 78 67 88 67 93 67 98 67 109 66 114 65 118 65 131 62 134 62 137 61 141 59 143 58 144 57 146 56 147 55 148 54 148 54 " />
        <polyline stroke="black" stroke-width="3" stroke-linecap="round" fill="transparent" stroke-linejoin="round" points="92 35 89 38 85 48 84 51 84 54 82 61 78 72 76 75 74 79 73 82 69 88 65 93 59 100 57 102 52 106 51 108 48 110 48 110 " />
        <polyline stroke="black" stroke-width="3" stroke-linecap="round" fill="transparent" stroke-linejoin="round" points="62 76 72 79 73 80 76 83 78 84 80 86 84 90 87 92 89 94 98 102 102 105 105 108 117 117 121 120 128 125 132 128 135 130 138 131 146 136 150 137 152 138 154 138 155 138 157 138 " />
        <polyline stroke="black" stroke-width="3" stroke-linecap="round" fill="transparent" stroke-linejoin="round" points="147 64 147 64 145 64 144 64 143 65 139 67 137 68 135 69 131 72 129 73 127 75 122 78 119 81 116 84 114 86 113 87 112 88 110 90 109 91 108 92 108 93 107 93 107 93 107 93 107 93 " />
        <polyline stroke="black" stroke-width="3" stroke-linecap="round" fill="transparent" stroke-linejoin="round" points="111 75 112 76 112 76 113 77 115 78 117 79 119 81 122 83 126 86 128 87 129 88 135 91 137 92 138 93 142 95 143 96 144 96 147 97 149 98 150 99 151 99 152 99 " />
        <polyline stroke="black" stroke-width="3" stroke-linecap="round" fill="transparent" stroke-linejoin="round" points="41 173 41 173 42 173 43 173 46 172 47 172 49 172 56 171 58 170 64 169 67 169 70 168 74 167 85 165 98 162 102 161 106 160 115 159 123 157 126 156 130 156 136 154 139 154 141 153 146 152 148 152 149 152 152 151 153 151 153 150 " />
        <polyline stroke="black" stroke-width="3" stroke-linecap="round" fill="transparent" stroke-linejoin="round" points="81 137 79 139 78 140 78 142 77 143 76 147 75 152 74 157 73 160 73 162 73 165 73 171 73 176 73 180 73 184 74 188 74 190 74 191 75 193 75 194 76 194 76 194 78 195 81 195 82 195 84 195 85 195 88 195 89 195 93 193 95 192 99 189 102 186 103 185 " />
        <polyline stroke="black" stroke-width="3" stroke-linecap="round" fill="transparent" stroke-linejoin="round" points="104 124 105 130 106 132 107 137 107 140 108 143 110 153 111 156 112 162 113 164 113 166 113 168 114 172 114 173 115 175 115 176 116 176 116 176 " />
        </svg>