<?xml version="1.0" standalone="no"?>
    <svg width="256" height="256" xmlns="http://www.w3.org/2000/svg" version="1.1">
    <polyline stroke="black" stroke-width="3" stroke-linecap="round" fill="transparent" stroke-linejoin="round" points="67.33056640625 71.82217407226563 68.2147216796875 83.31640625 69.54098510742188 126.64085388183594 69.098876953125 142.11387634277344 68.2147216796875 168.19696044921875 67.33056640625 186.76458740234375 66.88848876953125 197.37466430664065 66.88848876953125 200.02719116210935 66.44638061523438 201.7955322265625 66.44638061523438 201.7955322265625 " />
        <polyline stroke="black" stroke-width="3" stroke-linecap="round" fill="transparent" stroke-linejoin="round" points="86.7823486328125 66.07504272460938 92.9715576171875 60.77000427246094 100.044921875 55.4649658203125 108.00250244140624 50.159934997558594 125.68597412109376 42.20238494873047 141.60107421875 39.10778045654297 157.958251953125 41.76029968261719 171.2208251953125 50.602020263671875 184.925537109375 67.8433837890625 197.74603271484375 95.25274658203124 204.81939697265625 122.66209411621094 206.1456298828125 144.7664031982422 203.4931640625 162.00775146484375 197.303955078125 176.15452575683594 192.883056640625 181.90164184570313 192.883056640625 181.90164184570313 " />
        <polyline stroke="black" stroke-width="3" stroke-linecap="round" fill="transparent" stroke-linejoin="round" points="102.69744873046876 110.28367614746094 108.00250244140624 106.30490112304688 114.19171142578124 102.32611083984376 121.26507568359376 98.34733581542967 128.33847045898438 94.81065368652344 141.158935546875 89.505615234375 150.44281005859375 85.08474731445313 155.747802734375 80.66389465332031 157.958251953125 76.68511962890625 156.63201904296875 71.38008117675781 153.0953369140625 67.40130615234375 147.79025268554688 65.63296508789063 141.158935546875 68.72756958007813 132.31723022460938 78.45346069335938 120.822998046875 97.46316528320313 111.09710693359376 117.79916381835938 102.69744873046876 137.25094604492188 95.62408447265624 151.83978271484375 89.43487548828125 162.89193725585938 85.45611572265625 168.63906860351563 83.24566650390625 171.29156494140625 82.80355834960938 171.29156494140625 83.24566650390625 169.52322387695313 86.34027099609375 165.10235595703125 94.29782104492188 158.4710693359375 107.56039428710938 150.9556121826172 123.47552490234376 145.20848083496094 138.50643920898438 141.6717987060547 151.76904296875 140.78762817382813 161.4949951171875 141.6717987060547 167.2420654296875 143.44012451171875 167.2420654296875 143.44012451171875 " />
        <polyline stroke="black" stroke-width="3" stroke-linecap="round" fill="transparent" stroke-linejoin="round" points="87.22445678710938 208.868896484375 118.17050170898438 198.700927734375 141.158935546875 194.28005981445313 162.82122802734375 192.51171875 180.06256103515625 194.72216796875 192.883056640625 200.911376953125 198.1881103515625 206.2164001464844 198.1881103515625 206.2164001464844 " />
        </svg>