<?xml version="1.0" standalone="no"?>
    <svg width="256" height="256" xmlns="http://www.w3.org/2000/svg" version="1.1">
    <polyline stroke="black" stroke-width="3" stroke-linecap="round" fill="transparent" stroke-linejoin="round" points="65.042236328125 86.79702758789063 64.6234130859375 100.20040893554688 64.20452880859375 114.44155883789063 63.78570556640625 130.3580780029297 64.20452880859375 167.2174072265625 63.78570556640625 181.0396728515625 62.947967529296875 187.322509765625 62.529144287109375 188.9979553222656 62.529144287109375 188.9979553222656 " />
        <polyline stroke="black" stroke-width="3" stroke-linecap="round" fill="transparent" stroke-linejoin="round" points="85.98507690429688 69.20504760742188 100.22616577148438 59.99021911621094 132.47811889648438 48.262237548828125 145.04379272460938 46.16796112060547 176.87689208984375 47.00566864013672 190.2802734375 49.93766784667969 197.8197021484375 55.38279724121094 204.52142333984375 67.948486328125 209.1287841796875 90.98558044433594 209.966552734375 105.6455535888672 207.453369140625 144.18032836914063 202.845947265625 164.28543090820313 199.0762939453125 173.08140563964844 199.0762939453125 173.08140563964844 " />
        <polyline stroke="black" stroke-width="3" stroke-linecap="round" fill="transparent" stroke-linejoin="round" points="98.9696044921875 97.2684326171875 106.509033203125 93.49871826171876 115.30502319335938 90.56672668457033 123.68212890625 88.0535888671875 143.7872314453125 83.02731323242188 143.7872314453125 83.02731323242188 " />
        <polyline stroke="black" stroke-width="3" stroke-linecap="round" fill="transparent" stroke-linejoin="round" points="134.5723876953125 77.163330078125 129.9649658203125 84.28387451171875 124.938720703125 92.24215698242188 115.723876953125 108.15869140625 104.41473388671876 128.68264770507813 98.9696044921875 137.89749145507813 96.87533569335938 140.82949829101563 93.10565185546876 146.27459716796875 91.84906005859376 147.11233520507813 91.43017578125 145.8557586669922 93.10565185546876 142.0860595703125 94.78106689453124 139.99176025390625 101.48275756835938 134.546630859375 112.7918701171875 128.68264770507813 134.15353393554688 122.8186492919922 146.71923828125 121.98095703125 151.74554443359375 122.39981079101563 156.77178955078125 123.6563720703125 156.77178955078125 123.6563720703125 " />
        <polyline stroke="black" stroke-width="3" stroke-linecap="round" fill="transparent" stroke-linejoin="round" points="98.13192749023438 176.8511199951172 106.509033203125 174.7568359375 115.30502319335938 173.50027465820313 132.89697265625 172.2436981201172 154.2586669921875 172.2436981201172 175.62030029296875 173.50027465820313 196.144287109375 176.8511199951172 203.26483154296875 179.78311157226563 203.26483154296875 179.78311157226563 " />
        </svg>