<?xml version="1.0" standalone="no"?>
    <svg width="256" height="256" xmlns="http://www.w3.org/2000/svg" version="1.1">
    <polyline stroke="black" stroke-width="3" stroke-linecap="round" fill="transparent" stroke-linejoin="round" points="76.02133178710938 67.03054809570313 76.02133178710938 78.01776123046875 76.02133178710938 91.96310424804688 76.86651611328125 123.234375 77.2890625 139.29263305664063 76.02133178710938 175.21237182617188 72.21807861328125 197.18682861328125 70.10516357421875 202.25784301757813 69.68255615234375 202.680419921875 69.68255615234375 202.680419921875 " />
        <polyline stroke="black" stroke-width="3" stroke-linecap="round" fill="transparent" stroke-linejoin="round" points="81.51495361328125 102.10514831542967 89.12152099609375 86.04689025878906 97.15057373046876 74.21450805664063 106.87005615234376 64.49504089355469 121.23797607421876 56.0433349609375 138.98651123046875 51.3948974609375 158.00286865234375 53.085235595703125 175.328857421875 62.382110595703125 182.0902099609375 68.72088623046875 202.796875 105.06321716308594 206.6002197265625 119.85372924804688 204.90985107421875 168.02842712402344 200.26141357421875 182.81890869140625 187.5838623046875 207.75146484375 187.5838623046875 207.75146484375 " />
        <polyline stroke="black" stroke-width="3" stroke-linecap="round" fill="transparent" stroke-linejoin="round" points="117.85726928710938 122.8118133544922 121.23797607421876 119.43112182617188 131.37997436523438 112.66976928710938 154.6221923828125 106.75357055664063 173.6385498046875 105.06321716308594 183.78057861328125 103.79547119140624 183.78057861328125 103.79547119140624 " />
        <polyline stroke="black" stroke-width="3" stroke-linecap="round" fill="transparent" stroke-linejoin="round" points="141.52206420898438 108.44390869140624 127.57675170898438 131.26351928710938 107.29266357421876 168.87359619140625 97.57318115234376 185.35443115234375 95.46026611328124 187.88995361328125 95.03768920898438 187.46734619140625 96.72802734375 182.81890869140625 102.22161865234376 173.9446258544922 110.250732421875 164.22515869140625 121.23797607421876 154.92828369140625 133.0703125 149.0120849609375 145.74789428710938 146.89915466308594 160.9609375 149.43467712402344 170.2578125 153.23794555664063 170.2578125 153.23794555664063 " />
        <polyline stroke="black" stroke-width="3" stroke-linecap="round" fill="transparent" stroke-linejoin="round" points="111.09588623046876 197.18682861328125 117.85726928710938 195.9190673828125 125.46380615234376 195.07388305664065 132.64776611328125 195.07388305664065 148.28338623046875 196.76422119140625 163.9190673828125 200.5675048828125 182.0902099609375 209.4417724609375 193.5 214.5128173828125 193.5 214.5128173828125 " />
        </svg>