<?xml version="1.0" standalone="no"?>
    <svg width="256" height="256" xmlns="http://www.w3.org/2000/svg" version="1.1">
    <polyline stroke="black" stroke-width="3" stroke-linecap="round" fill="transparent" stroke-linejoin="round" points="55.888885498046875 124 72.77780151367188 116.88888549804688 83.4444580078125 112.44444274902344 90.55557250976563 109.7777862548828 93.22222900390624 108 93.22222900390624 108 " />
        <polyline stroke="black" stroke-width="3" stroke-linecap="round" fill="transparent" stroke-linejoin="round" points="71.88888549804688 110.66667175292967 69.22222900390625 122.22222900390624 64.77777099609375 145.33334350585938 61.22222900390625 164 57.666656494140625 175.55555725097656 57.666656494140625 175.55555725097656 " />
        <polyline stroke="black" stroke-width="3" stroke-linecap="round" fill="transparent" stroke-linejoin="round" points="72.77780151367188 156.00003051757813 91.4444580078125 141.7777862548828 103 132.88888549804688 107.4444580078125 127.55557250976563 107.4444580078125 127.55557250976563 " />
        <polyline stroke="black" stroke-width="3" stroke-linecap="round" fill="transparent" stroke-linejoin="round" points="135.88888549804688 72.44444274902344 143.888916015625 69.77778625488281 151.88888549804688 68 151.88888549804688 68 " />
        <polyline stroke="black" stroke-width="3" stroke-linecap="round" fill="transparent" stroke-linejoin="round" points="123.4444580078125 116.00003051757813 114.55557250976563 164 106.55557250976563 191.5555725097656 99.44448852539063 211.11111450195313 96.77777099609376 219.11111450195313 94.11111450195313 220 94.11111450195313 220 " />
        <polyline stroke="black" stroke-width="3" stroke-linecap="round" fill="transparent" stroke-linejoin="round" points="143 108 152.77780151367188 105.33334350585938 161.66665649414063 104.44444274902344 167.88888549804688 104.44444274902344 170.55557250976563 107.11114501953124 167.88888549804688 127.55557250976563 162.55557250976563 147.11114501953125 160.77777099609375 164 160.77777099609375 176.44444274902344 164.33334350585938 185.33334350585935 169.66665649414063 190.66665649414065 178.55557250976563 195.11111450195313 187.4444580078125 198.66665649414065 197.22222900390625 199.5555725097656 205.22222900390625 199.5555725097656 215 196.00003051757813 219.4444580078125 193.33334350585935 222.11114501953125 189.77777099609375 223 181.77777099609375 223 175.55555725097656 221.22222900390625 169.33335876464844 217.66668701171875 163.11111450195313 215 158.6666717529297 215 158.6666717529297 " />
        </svg>