<?xml version="1.0" standalone="no"?>
    <svg width="256" height="256" xmlns="http://www.w3.org/2000/svg" version="1.1">
    <polyline stroke="black" stroke-width="3" stroke-linecap="round" fill="transparent" stroke-linejoin="round" points="69.44866943359375 85.82354736328125 90.801513671875 72.58479309082031 98.91561889648438 69.1683349609375 108.73788452148438 65.3248291015625 126.67425537109376 59.773101806640625 135.6424560546875 57.6378173828125 151.443603515625 54.648406982421875 158.2764892578125 53.79429626464844 171.088134765625 51.231956481933594 174.504638671875 50.377838134765625 174.504638671875 49.95079040527344 174.504638671875 49.95079040527344 " />
        <polyline stroke="black" stroke-width="3" stroke-linecap="round" fill="transparent" stroke-linejoin="round" points="82.68743896484375 73.865966796875 76.7086181640625 86.67767333984375 73.71923828125 95.6458740234375 70.72982788085938 105.89523315429688 62.188690185546875 137.0703582763672 58.772216796875 156.28793334960938 56.636962890625 171.2349090576172 57.06402587890625 184.90072631835935 58.345184326171875 196.4312744140625 60.48046875 203.26416015625 65.1781005859375 207.107666015625 77.98980712890625 209.6700134277344 98.91561889648438 207.9617919921875 121.12252807617188 204.54534912109375 141.19418334960938 201.55593872070313 150.162353515625 200.2747802734375 174.504638671875 195.5771484375 186.46221923828125 192.58773803710935 195.85748291015625 189.1712951660156 199.70098876953125 187.89013671875 199.70098876953125 187.89013671875 " />
        </svg>