<?xml version="1.0" standalone="no"?>
    <svg width="256" height="256" xmlns="http://www.w3.org/2000/svg" version="1.1">
    <polyline stroke="black" stroke-width="3" stroke-linecap="round" fill="transparent" stroke-linejoin="round" points="42.12664794921875 91.8178253173828 47.874603271484375 107.00895690917967 50.33807373046875 111.11466979980467 52.801483154296875 114.39923095703124 59.78118896484375 120.147216796875 70.45602416992188 123.84237670898438 76.61459350585938 123.02122497558594 76.61459350585938 123.02122497558594 " />
        <polyline stroke="black" stroke-width="3" stroke-linecap="round" fill="transparent" stroke-linejoin="round" points="128.757080078125 82.37469482421875 113.56597900390624 95.92355346679688 94.26913452148438 111.93582153320313 84.41546630859375 120.96836853027344 58.54949951171875 142.31805419921875 49.51690673828125 149.70834350585938 44.590057373046875 152.99290466308594 43.35833740234375 153.40347290039063 44.590057373046875 152.99290466308594 48.695770263671875 150.94004821777344 74.56173706054688 139.85464477539063 93.447998046875 132.05377197265625 109.46029663085938 125.07408142089844 116.02938842773438 121.37893676757813 121.3668212890625 116.8626708984375 121.3668212890625 116.8626708984375 " />
        <polyline stroke="black" stroke-width="3" stroke-linecap="round" fill="transparent" stroke-linejoin="round" points="89.34228515625 44.60216522216797 84.82601928710938 74.98440551757813 83.59429931640625 92.63897705078124 82.362548828125 126.71636962890624 81.95199584960938 172.28973388671875 82.362548828125 193.2288818359375 81.95199584960938 209.24114990234375 81.130859375 218.273681640625 81.130859375 218.273681640625 " />
        <polyline stroke="black" stroke-width="3" stroke-linecap="round" fill="transparent" stroke-linejoin="round" points="74.56173706054688 149.70834350585938 63.476318359375 158.7408905029297 58.54949951171875 163.66775512695313 49.1063232421875 173.52145385742188 41.716064453125 181.73287963867188 41.716064453125 181.73287963867188 " />
        <polyline stroke="black" stroke-width="3" stroke-linecap="round" fill="transparent" stroke-linejoin="round" points="70.04547119140625 156.6880340576172 81.95199584960938 161.20433044433594 94.6796875 169.0051727294922 106.58627319335938 177.62716674804688 115.61883544921876 185.0174560546875 123.00912475585938 189.94427490234375 123.00912475585938 189.94427490234375 " />
        <polyline stroke="black" stroke-width="3" stroke-linecap="round" fill="transparent" stroke-linejoin="round" points="158.728759765625 59.382720947265625 156.265380859375 78.67955017089844 152.15966796875 105.77725219726563 147.2327880859375 138.62290954589844 142.71652221679688 170.64744567871094 139.842529296875 192.81829833984375 137.78964233398438 207.59884643554688 136.14739990234375 216.2208251953125 136.14739990234375 216.2208251953125 " />
        <polyline stroke="black" stroke-width="3" stroke-linecap="round" fill="transparent" stroke-linejoin="round" points="137.78964233398438 123.84237670898438 155.4442138671875 117.68380737304688 161.1922607421875 116.45208740234376 180.489013671875 114.80979919433594 186.64764404296875 115.63095092773438 188.700439453125 116.04150390625 188.700439453125 116.04150390625 " />
        <polyline stroke="black" stroke-width="3" stroke-linecap="round" fill="transparent" stroke-linejoin="round" points="129.98883056640625 168.18402099609375 148.46453857421875 169.41574096679688 160.78167724609375 169.82632446289063 166.5296630859375 169.41574096679688 185.82647705078125 163.66775512695313 185.82647705078125 163.66775512695313 " />
        <polyline stroke="black" stroke-width="3" stroke-linecap="round" fill="transparent" stroke-linejoin="round" points="200.19647216796875 37.211883544921875 198.14361572265625 61.435577392578125 196.09075927734375 92.63897705078124 195.2696533203125 109.47239685058594 194.85906982421875 157.09861755371094 196.09075927734375 183.7857360839844 196.5013427734375 211.70455932617188 196.5013427734375 224.4322509765625 196.5013427734375 224.4322509765625 " />
        </svg>