<?xml version="1.0" standalone="no"?>
    <svg width="256" height="256" xmlns="http://www.w3.org/2000/svg" version="1.1">
    <polyline stroke="black" stroke-width="3" stroke-linecap="round" fill="transparent" stroke-linejoin="round" points="49.73931884765625 87.25563049316406 " />
        <polyline stroke="black" stroke-width="3" stroke-linecap="round" fill="transparent" stroke-linejoin="round" points="93.83428955078124 94.1053466796875 " />
        <polyline stroke="black" stroke-width="3" stroke-linecap="round" fill="transparent" stroke-linejoin="round" points="59.585845947265625 48.2979736328125 62.582550048828125 85.97132873535156 65.57925415039063 123.64468383789063 68.57601928710938 157.03701782226563 69.00411987304688 185.7201232910156 67.71978759765625 199.84765625 66.43548583984375 204.12872314453125 66.43548583984375 204.12872314453125 " />
        <polyline stroke="black" stroke-width="3" stroke-linecap="round" fill="transparent" stroke-linejoin="round" points="56.160858154296875 107.80473327636716 48.454986572265625 124.50090026855467 40.749114990234375 141.1970672607422 33.04315185546875 159.60565185546875 26.1934814453125 176.30181884765625 24.481048583984375 179.2985382080078 24.481048583984375 179.2985382080078 " />
        <polyline stroke="black" stroke-width="3" stroke-linecap="round" fill="transparent" stroke-linejoin="round" points="90.40942382812501 137.77223205566406 99.82778930664063 149.7592010498047 109.24615478515624 161.7461700439453 111.8148193359375 164.74293518066406 111.8148193359375 164.74293518066406 " />
        <polyline stroke="black" stroke-width="3" stroke-linecap="round" fill="transparent" stroke-linejoin="round" points="22.3404541015625 124.50090026855473 48.026885986328125 116.36688232421876 73.71331787109375 108.2328643798828 95.5467529296875 102.66748046875 114.38345336914063 97.53018188476563 123.3736572265625 94.9615478515625 123.3736572265625 94.9615478515625 " />
        <polyline stroke="black" stroke-width="3" stroke-linecap="round" fill="transparent" stroke-linejoin="round" points="152.9129638671875 81.69027709960935 152.0567626953125 108.2328643798828 151.2005615234375 134.77545166015625 151.2005615234375 156.60890197753906 151.2005615234375 170.73641967773438 151.628662109375 184.0077209472656 151.628662109375 184.0077209472656 " />
        <polyline stroke="black" stroke-width="3" stroke-linecap="round" fill="transparent" stroke-linejoin="round" points="159.7626953125 87.25566101074219 172.60589599609375 83.40269470214844 185.4490966796875 79.54972839355469 195.29559326171875 78.26539611816406 202.5733642578125 78.69351196289063 202.5733642578125 78.69351196289063 " />
        <polyline stroke="black" stroke-width="3" stroke-linecap="round" fill="transparent" stroke-linejoin="round" points="160.61895751953125 115.93876647949219 179.88372802734375 113.37013244628906 199.14849853515625 110.80149841308594 215.84466552734375 109.51716613769533 223.55059814453125 107.80474853515624 223.55059814453125 107.80474853515624 " />
        <polyline stroke="black" stroke-width="3" stroke-linecap="round" fill="transparent" stroke-linejoin="round" points="205.57012939453125 21.755325317382813 205.14202880859375 62.85356140136719 204.71392822265625 103.95179748535156 205.14202880859375 142.05328369140625 205.14202880859375 171.16452026367188 205.14202880859375 195.99468994140625 204.71392822265625 216.5438232421875 204.71392822265625 216.5438232421875 " />
        </svg>