<?xml version="1.0" standalone="no"?>
    <svg width="256" height="256" xmlns="http://www.w3.org/2000/svg" version="1.1">
    <polyline stroke="black" stroke-width="3" stroke-linecap="round" fill="transparent" stroke-linejoin="round" points="79.55804443359375 58.536712646484375 89.28280639648438 56.29254150390625 112.09869384765624 51.430137634277344 134.91455078125 47.68983459472656 154.73822021484375 44.32354736328125 168.57733154296875 41.70533752441406 176.4320068359375 39.83518981933594 176.4320068359375 39.83518981933594 " />
        <polyline stroke="black" stroke-width="3" stroke-linecap="round" fill="transparent" stroke-linejoin="round" points="79.55804443359375 95.19174194335938 84.04638671875 112.39715576171876 87.03863525390625 120.62582397460938 92.64910888671876 134.46495056152344 94.89328002929688 138.57928466796875 96.763427734375 140.82347106933594 96.763427734375 140.82347106933594 " />
        <polyline stroke="black" stroke-width="3" stroke-linecap="round" fill="transparent" stroke-linejoin="round" points="115.8389892578125 113.14520263671876 118.08319091796876 115.763427734375 120.32736206054688 118.0076141357422 124.81573486328124 119.87774658203124 124.81573486328124 119.87774658203124 " />
        <polyline stroke="black" stroke-width="3" stroke-linecap="round" fill="transparent" stroke-linejoin="round" points="187.27886962890625 87.33709716796875 183.16455078125 99.68009948730467 176.4320068359375 113.51925659179688 167.82928466796875 128.8544921875 146.135498046875 159.15098571777344 146.135498046875 159.15098571777344 " />
        <polyline stroke="black" stroke-width="3" stroke-linecap="round" fill="transparent" stroke-linejoin="round" points="69.45919799804688 195.05792236328125 80.68011474609375 188.69940185546875 93.02313232421876 183.4629821777344 105.74017333984376 179.72268676757813 134.54052734375 175.2342987060547 165.2110595703125 172.9901123046875 193.26336669921875 174.8602752685547 205.23236083984375 177.85252380371094 205.23236083984375 177.85252380371094 " />
        </svg>