<?xml version="1.0" standalone="no"?>
    <svg width="256" height="256" xmlns="http://www.w3.org/2000/svg" version="1.1">
    <polyline stroke="black" stroke-width="3" stroke-linecap="round" fill="transparent" stroke-linejoin="round" points="80.95880126953125 109.5863037109375 91.84906005859376 104.56002807617188 103.99591064453124 99.11489868164063 130.38385009765625 89.481201171875 154.677490234375 82.77951049804688 164.7301025390625 80.68521118164063 185.2540283203125 77.33436584472656 189.8614501953125 76.91551208496094 189.442626953125 76.91551208496094 187.76715087890625 78.17208862304688 187.76715087890625 78.17208862304688 " />
        <polyline stroke="black" stroke-width="3" stroke-linecap="round" fill="transparent" stroke-linejoin="round" points="85.56622314453125 141.41940307617188 85.56622314453125 148.12107849121094 85.98507690429688 156.079345703125 87.24163818359375 168.22618103027344 88.079345703125 171.9958953857422 89.7547607421875 176.60330200195313 92.26791381835938 176.60330200195313 92.26791381835938 176.60330200195313 " />
        <polyline stroke="black" stroke-width="3" stroke-linecap="round" fill="transparent" stroke-linejoin="round" points="122.84442138671876 139.74395751953125 124.51986694335938 143.93252563476563 127.87069702148438 150.63421630859375 130.38385009765625 154.40391540527344 134.15353393554688 155.24163818359375 134.15353393554688 155.24163818359375 " />
        <polyline stroke="black" stroke-width="3" stroke-linecap="round" fill="transparent" stroke-linejoin="round" points="183.57861328125 126.34056091308594 176.0391845703125 134.71768188476563 148.8134765625 157.33592224121094 148.8134765625 157.33592224121094 " />
        <polyline stroke="black" stroke-width="3" stroke-linecap="round" fill="transparent" stroke-linejoin="round" points="81.79647827148438 204.247802734375 110.27874755859376 190.84442138671875 137.50439453125 179.9541473388672 162.2169189453125 173.25244140625 183.57861328125 170.32046508789063 200.751708984375 172.41473388671875 200.751708984375 172.41473388671875 " />
        </svg>