<?xml version="1.0" standalone="no"?>
    <svg width="256" height="256" xmlns="http://www.w3.org/2000/svg" version="1.1">
    <polyline stroke="black" stroke-width="3" stroke-linecap="round" fill="transparent" stroke-linejoin="round" points="75.78857421875 89.85945129394531 92.3895263671875 82.02009582519531 102.99569702148438 78.33099365234375 123.74691772460938 72.33621215820313 143.11468505859375 68.18595886230469 156.9488525390625 65.88027954101563 164.7882080078125 64.49685668945313 168.01611328125 64.03572082519531 168.01611328125 64.03572082519531 " />
        <polyline stroke="black" stroke-width="3" stroke-linecap="round" fill="transparent" stroke-linejoin="round" points="79.47763061523438 113.838623046875 79.93881225585938 120.75570678710938 83.62789916992188 146.1182861328125 85.93359375 153.49649047851563 87.31698608398438 156.2633056640625 88.2392578125 157.1855926513672 88.2392578125 157.1855926513672 " />
        <polyline stroke="black" stroke-width="3" stroke-linecap="round" fill="transparent" stroke-linejoin="round" points="112.67962646484376 124.90594482421876 116.829833984375 128.13389587402344 119.59664916992188 129.0561981201172 124.669189453125 129.0561981201172 138.96444702148438 123.52252197265624 138.96444702148438 123.52252197265624 " />
        <polyline stroke="black" stroke-width="3" stroke-linecap="round" fill="transparent" stroke-linejoin="round" points="176.77777099609375 111.53292846679688 165.71044921875 129.51731872558594 149.10946655273438 149.80740356445313 128.81942749023438 166.86949157714844 108.06820678710938 179.78135681152344 90.08383178710938 188.08184814453125 76.7108154296875 191.77093505859375 67.94921875 192.23208618164065 64.72125244140625 191.309814453125 64.26010131835938 190.38754272460935 71.17718505859375 185.77615356445313 90.08383178710938 177.47567749023438 102.5345458984375 173.78656005859375 138.50335693359375 167.79177856445313 162.4825439453125 167.33062744140625 182.7725830078125 168.71405029296875 200.29583740234375 173.32542419433594 200.29583740234375 173.32542419433594 " />
        </svg>