<?xml version="1.0" standalone="no"?>
    <svg width="256" height="256" xmlns="http://www.w3.org/2000/svg" version="1.1">
    <polyline stroke="black" stroke-width="3" stroke-linecap="round" fill="transparent" stroke-linejoin="round" points="76.57794189453125 102.08212280273438 91.35848999023438 95.92355346679688 100.39105224609376 92.22840881347656 127.8992919921875 82.78526306152344 145.96444702148438 77.03726196289063 153.76531982421875 74.5738525390625 170.59869384765625 69.64698791503906 177.1678466796875 67.59414672851563 180.0418701171875 66.77299499511719 180.0418701171875 66.77299499511719 " />
        <polyline stroke="black" stroke-width="3" stroke-linecap="round" fill="transparent" stroke-linejoin="round" points="89.7161865234375 142.72862243652344 91.35848999023438 147.24490356445313 93.00079345703124 151.35061645507813 94.64306640625 154.224609375 94.64306640625 154.224609375 " />
        <polyline stroke="black" stroke-width="3" stroke-linecap="round" fill="transparent" stroke-linejoin="round" points="124.61474609375 135.74893188476563 127.07818603515624 143.1392059326172 128.30990600585938 146.42376708984375 132.00506591796875 152.5823211669922 132.00506591796875 152.5823211669922 " />
        <polyline stroke="black" stroke-width="3" stroke-linecap="round" fill="transparent" stroke-linejoin="round" points="182.09466552734375 113.9886474609375 171.41986083984375 125.4846649169922 164.8507080078125 132.05377197265625 143.5009765625 152.5823211669922 129.9521484375 164.07830810546875 118.86676025390624 172.70030212402344 108.60247802734376 179.26943969726563 104.086181640625 181.73287963867188 94.23251342773438 185.83859252929688 90.12680053710938 187.0703125 87.25277709960938 187.89144897460935 86.431640625 188.302001953125 85.199951171875 188.302001953125 84.3787841796875 188.302001953125 88.07391357421875 187.89144897460935 93.41134643554688 187.0703125 109.83419799804688 183.7857360839844 141.85873413085938 178.0377197265625 161.9766845703125 175.1637420654297 179.220703125 173.52145385742188 193.18011474609375 172.70030212402344 203.85498046875 172.70030212402344 207.550048828125 172.70030212402344 214.1192626953125 173.52145385742188 214.1192626953125 173.52145385742188 " />
        </svg>