<?xml version="1.0" standalone="no"?>
    <svg width="256" height="256" xmlns="http://www.w3.org/2000/svg" version="1.1">
    <polyline stroke="black" stroke-width="3" stroke-linecap="round" fill="transparent" stroke-linejoin="round" points="66.95745849609375 118.45515441894533 82.46078491210938 115.24755859375 110.25985717773438 107.76319885253906 130.5745849609375 100.8134307861328 153.0277099609375 92.25985717773438 166.392578125 87.98307800292969 173.876953125 85.84469604492188 177.0845947265625 85.84469604492188 177.0845947265625 85.84469604492188 " />
        <polyline stroke="black" stroke-width="3" stroke-linecap="round" fill="transparent" stroke-linejoin="round" points="84.0645751953125 137.70066833496094 85.66839599609375 146.788818359375 88.34136962890625 156.4115753173828 91.5489501953125 164.96514892578125 95.2911376953125 170.31112670898438 100.10250854492188 171.38031005859375 104.3792724609375 166.56893920898438 110.79446411132813 152.13479614257813 115.07122802734376 140.3736572265625 117.20965576171876 136.0968780517578 118.27880859375 135.56227111816406 118.81341552734376 137.70066833496094 120.417236328125 143.04664611816406 122.55560302734376 149.46180725097656 125.22857666015624 155.34239196777344 128.43618774414063 159.61917114257813 133.78216552734375 159.61917114257813 146.61248779296875 150.531005859375 155.16607666015625 140.9082489013672 161.046630859375 134.49307250976563 165.32342529296875 131.28549194335938 167.99639892578125 131.28549194335938 167.99639892578125 136.6314697265625 159.44287109375 154.8077850341797 147.1470947265625 170.84571838378906 131.10919189453125 185.27984619140625 114.00204467773438 195.9718017578125 95.2911376953125 202.92156982421875 84.0645751953125 205.59457397460935 75.51101684570313 206.129150390625 70.1650390625 205.0599670410156 67.4920654296875 205.0599670410156 69.09585571289063 203.99078369140625 81.3916015625 201.3177795410156 106.5177001953125 195.43719482421875 132.17837524414063 189.556640625 158.90826416015625 184.21066284179688 179.22296142578125 180.46847534179688 192.587890625 178.330078125 198.468505859375 178.330078125 202.7452392578125 181.00306701660156 201.676025390625 190.0912170410156 201.676025390625 190.0912170410156 " />
        </svg>