<?xml version="1.0" standalone="no"?>
    <svg width="256" height="256" xmlns="http://www.w3.org/2000/svg" version="1.1">
    <polyline stroke="black" stroke-width="3" stroke-linecap="round" fill="transparent" stroke-linejoin="round" points="80.47921752929688 56.934234619140625 82.30621337890625 71.55015563964844 84.7421875 86.77507019042969 86.56918334960938 99.56399536132813 87.78717041015625 107.48094177246094 87.78717041015625 111.74391174316406 87.17816162109375 111.74391174316406 84.1331787109375 105.04495239257813 81.08819580078125 91.64703369140624 80.47921752929688 78.85810852050781 82.91522216796875 67.28717041015625 89.61416625976563 56.32524108886719 104.2301025390625 42.318321228027344 126.762939453125 27.093414306640625 151.7318115234375 16.74047088623047 171.2197265625 13.69548797607422 184.61761474609375 16.13147735595703 191.31658935546875 21.003448486328125 198.0155029296875 36.22835540771485 194.361572265625 59.979217529296875 181.5726318359375 83.73008728027344 157.82177734375 107.48094177246094 157.82177734375 107.48094177246094 " />
        <polyline stroke="black" stroke-width="3" stroke-linecap="round" fill="transparent" stroke-linejoin="round" points="96.922119140625 87.99305725097656 106.05706787109376 83.73008728027344 120.6729736328125 77.64012145996094 140.76986694335938 68.50517272949219 159.039794921875 58.15223693847656 173.04669189453125 47.799293518066406 173.04669189453125 47.799293518066406 " />
        <polyline stroke="black" stroke-width="3" stroke-linecap="round" fill="transparent" stroke-linejoin="round" points="135.28887939453125 55.10725402832031 132.243896484375 69.72315979003906 125.54495239257813 84.94807434082031 113.36502075195313 98.95498657226563 100.57611083984376 109.91693115234376 91.441162109375 115.3979034423828 87.17816162109375 117.83387756347656 87.17816162109375 117.83387756347656 92.65914916992188 114.17990112304688 108.4930419921875 106.8719482421875 131.63491821289063 99.56399536132813 153.55877685546875 94.08302307128906 167.565673828125 92.25602722167967 173.6556396484375 92.25602722167967 175.482666015625 94.6920166015625 175.482666015625 94.6920166015625 " />
        <polyline stroke="black" stroke-width="3" stroke-linecap="round" fill="transparent" stroke-linejoin="round" points="84.7421875 156.20065307617188 98.74911499023438 150.11068725585938 118.23699951171876 142.802734375 149.29583740234375 132.44979858398438 164.520751953125 130.01380920410156 172.43768310546875 130.622802734375 171.2197265625 135.49478149414063 171.2197265625 135.49478149414063 " />
        <polyline stroke="black" stroke-width="3" stroke-linecap="round" fill="transparent" stroke-linejoin="round" points="74.38925170898438 193.95843505859375 93.26812744140624 187.86846923828125 117.62799072265624 179.342529296875 141.37884521484375 172.64356994628906 159.039794921875 168.38058471679688 174.8736572265625 164.7266082763672 185.22662353515625 160.46363830566406 185.22662353515625 160.46363830566406 " />
        <polyline stroke="black" stroke-width="3" stroke-linecap="round" fill="transparent" stroke-linejoin="round" points="137.11590576171875 173.86155700683594 137.11590576171875 187.86846923828125 137.11590576171875 204.31137084960935 136.50689697265625 223.79925537109375 136.50689697265625 245.72314453125 136.50689697265625 245.72314453125 " />
        </svg>