<?xml version="1.0" standalone="no"?>
    <svg width="256" height="256" xmlns="http://www.w3.org/2000/svg" version="1.1">
    <polyline stroke="black" stroke-width="3" stroke-linecap="round" fill="transparent" stroke-linejoin="round" points="74.80410766601563 75.9677734375 79.08892822265625 88.21003723144531 83.98580932617188 102.9007568359375 87.65850830078125 116.9793701171875 88.27059936523438 125.5489501953125 88.27059936523438 125.5489501953125 " />
        <polyline stroke="black" stroke-width="3" stroke-linecap="round" fill="transparent" stroke-linejoin="round" points="92.555419921875 60.66493225097656 107.85821533203124 52.70746612548828 128.67010498046875 43.52576446533203 150.09405517578125 37.404632568359375 166.62109375 34.9561767578125 178.8634033203125 36.792518615722656 185.59661865234375 40.46519470214844 190.4935302734375 47.198448181152344 190.4935302734375 61.88916015625 177.63916015625 89.43426513671875 177.63916015625 89.43426513671875 " />
        <polyline stroke="black" stroke-width="3" stroke-linecap="round" fill="transparent" stroke-linejoin="round" points="96.8402099609375 86.98580932617188 111.53091430664063 80.86468505859375 126.833740234375 75.35565185546875 142.74868774414063 71.07086181640625 154.990966796875 68.62240600585938 162.3363037109375 66.17396545410156 162.3363037109375 66.17396545410156 " />
        <polyline stroke="black" stroke-width="3" stroke-linecap="round" fill="transparent" stroke-linejoin="round" points="123.773193359375 79.64045715332031 120.10049438476563 91.88272094726563 115.20361328125 102.9007568359375 109.08245849609376 112.08245849609376 102.34921264648438 120.03993225097656 96.22808837890624 125.5489501953125 91.3311767578125 128.60952758789063 88.27059936523438 130.44586181640625 90.71905517578124 128.60952758789063 101.73712158203124 123.71261596679688 125.60952758789063 115.1430206298828 146.42138671875 107.79766845703124 162.94842529296875 102.9007568359375 172.130126953125 101.06442260742188 176.4149169921875 101.06442260742188 176.4149169921875 101.06442260742188 " />
        <polyline stroke="black" stroke-width="3" stroke-linecap="round" fill="transparent" stroke-linejoin="round" points="88.88272094726563 146.97291564941406 106.02191162109376 142.68812561035156 129.28219604492188 138.40333557128906 147.64559936523438 135.9548797607422 163.560546875 134.73065185546875 172.74224853515625 134.11854553222656 175.80279541015625 135.3427734375 175.80279541015625 135.3427734375 " />
        <polyline stroke="black" stroke-width="3" stroke-linecap="round" fill="transparent" stroke-linejoin="round" points="71.13143920898438 181.2512664794922 91.94329833984376 174.5180206298828 122.5489501953125 167.17266845703125 144.58502197265625 163.49998474121094 165.39691162109375 161.66363525390625 180.69970703125 161.05152893066406 190.4935302734375 159.82730102539063 195.39044189453125 159.82730102539063 196.61468505859375 159.82730102539063 196.61468505859375 159.82730102539063 " />
        <polyline stroke="black" stroke-width="3" stroke-linecap="round" fill="transparent" stroke-linejoin="round" points="113.36724853515624 167.17266845703125 112.14300537109376 180.02703857421875 111.53091430664063 197.16622924804688 112.14300537109376 214.30538940429688 112.14300537109376 225.935546875 112.14300537109376 232.05667114257813 112.14300537109376 232.05667114257813 " />
        </svg>