<?xml version="1.0" standalone="no"?>
    <svg width="256" height="256" xmlns="http://www.w3.org/2000/svg" version="1.1">
    <polyline stroke="black" stroke-width="3" stroke-linecap="round" fill="transparent" stroke-linejoin="round" points="75.25 72.5 77.75 78.75 79 88.75 81.5 105 82.75 123.75 85.25 142.5 85.25 147.5 84 148.75 82.75 147.5 81.5 141.25 80.25 133.75 80.25 133.75 " />
        <polyline stroke="black" stroke-width="3" stroke-linecap="round" fill="transparent" stroke-linejoin="round" points="114 46.25 132.75 43.75 144 41.25 154 40 164 38.75 169 41.25 172.75 43.75 174 46.25 174 50 172.75 63.75 167.75 88.75 162.75 105 159 117.5 151.5 127.5 146.5 131.25 144 131.25 144 131.25 " />
        <polyline stroke="black" stroke-width="3" stroke-linecap="round" fill="transparent" stroke-linejoin="round" points="106.5 93.75 111.5 91.25 122.75 87.5 130.25 83.75 137.75 81.25 142.75 78.75 145.25 77.5 146.5 77.5 145.25 77.5 145.25 77.5 " />
        <polyline stroke="black" stroke-width="3" stroke-linecap="round" fill="transparent" stroke-linejoin="round" points="112.75 122.5 121.5 120 129 117.5 132.75 116.25 136.5 115 137.75 113.75 136.5 112.5 135.25 111.25 135.25 111.25 " />
        <polyline stroke="black" stroke-width="3" stroke-linecap="round" fill="transparent" stroke-linejoin="round" points="119 82.5 119 96.25 116.5 108.75 115.25 115 115.25 115 " />
        <polyline stroke="black" stroke-width="3" stroke-linecap="round" fill="transparent" stroke-linejoin="round" points="105.25 155 111.5 151.25 124 146.25 135.25 141.25 144 137.5 152.75 133.75 155.25 132.5 156.5 132.5 155.25 132.5 152.75 133.75 152.75 133.75 " />
        <polyline stroke="black" stroke-width="3" stroke-linecap="round" fill="transparent" stroke-linejoin="round" points="59 200 76.5 195 95.25 187.5 115.25 178.75 145.25 165 166.5 157.5 186.5 152.5 207.75 145 217.75 141.25 219 141.25 222.75 140 224 140 222.75 141.25 215.25 146.25 215.25 146.25 " />
        <polyline stroke="black" stroke-width="3" stroke-linecap="round" fill="transparent" stroke-linejoin="round" points="132.75 222.5 132.75 242.5 131.5 257.5 131.5 267.5 130.25 277.5 130.25 277.5 " />
        </svg>