<?xml version="1.0" standalone="no"?>
    <svg width="256" height="256" xmlns="http://www.w3.org/2000/svg" version="1.1">
    <polyline stroke="black" stroke-width="3" stroke-linecap="round" fill="transparent" stroke-linejoin="round" points="64.96395874023438 42.17620086669922 67.91488647460938 52.20933532714844 70.275634765625 59.881744384765625 73.81671142578125 68.73451232910156 77.35784912109375 76.40690612792969 80.89892578125 82.89894104003906 87.3909912109375 86.44004821777344 87.3909912109375 86.44004821777344 " />
        <polyline stroke="black" stroke-width="3" stroke-linecap="round" fill="transparent" stroke-linejoin="round" points="125.16278076171876 38.63509368896485 122.80206298828124 50.43878173828125 117.49038696289063 62.83265686035156 107.457275390625 79.94801330566406 92.11245727539063 102.96522521972656 77.35784912109375 121.85113525390624 62.013031005859375 137.78611755371094 49.619140625 147.8192596435547 42.53692626953125 151.36036682128906 42.53692626953125 151.36036682128906 " />
        <polyline stroke="black" stroke-width="3" stroke-linecap="round" fill="transparent" stroke-linejoin="round" points="34.27435302734375 91.16152954101563 43.717315673828125 94.11245727539063 56.70135498046875 97.653564453125 73.81671142578125 102.37503051757813 96.83392333984376 109.45726013183594 115.129638671875 115.94927978515624 131.65484619140625 123.62168884277344 143.45852661132813 130.7039031982422 151.13092041015625 136.01556396484375 151.13092041015625 136.01556396484375 " />
        <polyline stroke="black" stroke-width="3" stroke-linecap="round" fill="transparent" stroke-linejoin="round" points="38.4056396484375 147.8192596435547 45.48785400390625 161.3935089111328 51.38970947265625 170.83645629882813 57.881744384765625 179.68922424316406 64.96395874023438 185.0008850097656 74.99710083007813 184.41070556640625 74.99710083007813 184.41070556640625 " />
        <polyline stroke="black" stroke-width="3" stroke-linecap="round" fill="transparent" stroke-linejoin="round" points="123.39224243164063 129.52352905273438 115.129638671875 143.68795776367188 103.9161376953125 159.0327606201172 85.03024291992188 179.68922424316406 67.91488647460938 193.85366821289065 53.75042724609375 203.8868103027344 46.668212890625 206.83773803710935 43.12713623046875 205.6573486328125 44.3074951171875 202.7064208984375 50.799530029296875 197.394775390625 64.373779296875 189.72238159179688 80.30877685546875 182.64016723632813 95.0633544921875 175.5579376220703 106.8670654296875 170.24627685546875 117.49038696289063 161.9836883544922 117.49038696289063 161.9836883544922 " />
        <polyline stroke="black" stroke-width="3" stroke-linecap="round" fill="transparent" stroke-linejoin="round" points="98.6044921875 111.8179931640625 96.24374389648438 125.39224243164063 91.52227783203124 140.1468505859375 83.25967407226563 165.52479553222656 73.81671142578125 187.36163330078125 64.96395874023438 204.47698974609375 57.881744384765625 215.69049072265625 53.75042724609375 221.59234619140625 51.38970947265625 223.3628845214844 51.38970947265625 223.3628845214844 " />
        <polyline stroke="black" stroke-width="3" stroke-linecap="round" fill="transparent" stroke-linejoin="round" points="60.8326416015625 195.62420654296875 74.99710083007813 200.93588256835935 83.849853515625 204.47698974609375 92.70263671875 209.19845581054688 102.14556884765624 212.14938354492188 116.90020751953124 208.6082763671875 116.90020751953124 208.6082763671875 " />
        <polyline stroke="black" stroke-width="3" stroke-linecap="round" fill="transparent" stroke-linejoin="round" points="160.5738525390625 61.062103271484375 164.114990234375 76.99710083007813 162.93463134765625 92.9320831298828 158.8033447265625 118.90020751953124 153.49163818359375 137.19593811035156 146.9996337890625 155.4916534423828 141.0977783203125 168.47572326660156 136.96649169921875 176.1481170654297 135.7861328125 179.0990447998047 135.7861328125 176.1481170654297 139.32720947265625 167.29534912109375 142.86834716796875 160.213134765625 147.58981323242188 156.67202758789063 152.9014892578125 156.67202758789063 158.8033447265625 158.4425811767578 165.29534912109375 162.57388305664063 171.19720458984375 167.29534912109375 175.918701171875 170.83645629882813 182.41070556640625 172.01683044433594 182.41070556640625 172.01683044433594 " />
        <polyline stroke="black" stroke-width="3" stroke-linecap="round" fill="transparent" stroke-linejoin="round" points="208.37884521484375 59.29154968261719 207.78863525390625 84.07931518554688 202.47698974609375 118.90020751953124 194.8045654296875 145.45852661132813 186.5419921875 171.42665100097656 180.64013671875 187.36163330078125 178.2794189453125 196.8045959472656 178.2794189453125 196.8045959472656 " />
        <polyline stroke="black" stroke-width="3" stroke-linecap="round" fill="transparent" stroke-linejoin="round" points="185.9517822265625 138.96649169921875 198.9359130859375 146.63888549804688 206.6082763671875 153.13092041015625 215.4610595703125 162.57388305664063 224.3138427734375 172.6070098876953 232.576416015625 185.591064453125 232.576416015625 185.591064453125 " />
        </svg>