<?xml version="1.0" standalone="no"?>
    <svg width="256" height="256" xmlns="http://www.w3.org/2000/svg" version="1.1">
    <polyline stroke="black" stroke-width="3" stroke-linecap="round" fill="transparent" stroke-linejoin="round" points="60.1083984375 88.08514404296875 66.0928955078125 83.59677124023438 81.80218505859375 73.87197875976563 90.0308837890625 69.38360595703125 107.23626708984376 61.154937744140625 119.57928466796876 56.66656494140625 127.43392944335938 55.91850280761719 130.05218505859375 57.04060363769531 130.05218505859375 57.04060363769531 " />
        <polyline stroke="black" stroke-width="3" stroke-linecap="round" fill="transparent" stroke-linejoin="round" points="92.27508544921876 131.4727020263672 96.389404296875 132.59481811523438 100.50375366210938 134.8389892578125 109.8544921875 153.54052734375 109.1064453125 176.73043823242188 102.74789428710938 191.691650390625 96.763427734375 197.3021240234375 93.39715576171876 198.4241943359375 87.78671264648438 195.43197631835935 87.78671264648438 195.43197631835935 " />
        <polyline stroke="black" stroke-width="3" stroke-linecap="round" fill="transparent" stroke-linejoin="round" points="69.45919799804688 103.04637145996094 64.97079467773438 122.4959716796875 61.23052978515625 140.82347106933594 57.864227294921875 156.90679931640625 52.253753662109375 179.3486328125 49.63555908203125 191.691650390625 49.26153564453125 196.5540771484375 52.627777099609375 195.43197631835935 52.627777099609375 195.43197631835935 " />
        <polyline stroke="black" stroke-width="3" stroke-linecap="round" fill="transparent" stroke-linejoin="round" points="127.80795288085938 119.12969970703124 128.5560302734375 130.7246551513672 131.17425537109375 159.52500915527344 131.92230224609375 166.631591796875 133.41842651367188 181.5928192138672 133.41842651367188 181.5928192138672 " />
        <polyline stroke="black" stroke-width="3" stroke-linecap="round" fill="transparent" stroke-linejoin="round" points="152.4940185546875 152.41842651367188 157.73046875 149.4261932373047 163.3409423828125 146.05990600585938 174.56182861328125 138.20526123046875 188.4010009765625 125.11418151855467 188.4010009765625 125.11418151855467 " />
        <polyline stroke="black" stroke-width="3" stroke-linecap="round" fill="transparent" stroke-linejoin="round" points="207.8505859375 73.12393188476563 206.35443115234375 83.59677124023438 204.4842529296875 95.56576538085938 194.75946044921875 134.09092712402344 184.66064453125 161.76919555664063 174.187744140625 180.47073364257813 166.3331298828125 189.07342529296875 158.1044921875 193.93585205078125 152.8680419921875 195.43197631835935 150.24984741210938 195.05792236328125 150.24984741210938 193.18777465820313 155.48626708984375 188.32537841796875 167.45526123046875 181.2187957763672 181.66839599609375 175.2342987060547 194.38543701171875 173.73818969726563 200.7440185546875 175.60833740234375 200.7440185546875 175.60833740234375 " />
        </svg>