<?xml version="1.0" standalone="no"?>
    <svg width="256" height="256" xmlns="http://www.w3.org/2000/svg" version="1.1">
    <polyline stroke="black" stroke-width="3" stroke-linecap="round" fill="transparent" stroke-linejoin="round" points="53 75 52 75 53 74 54 74 57 73 62 72 67 70 70 69 81 67 90 65 99 62 108 59 117 55 125 52 132 49 134 47 " />
        <polyline stroke="black" stroke-width="3" stroke-linecap="round" fill="transparent" stroke-linejoin="round" points="84 71 78 81 71 98 67 111 64 124 61 136 58 146 56 154 55 161 54 165 53 168 52 169 52 168 52 164 53 158 55 151 58 143 61 136 64 130 67 125 71 120 76 117 81 114 87 112 92 111 97 110 101 111 106 113 109 117 110 123 109 132 108 143 106 154 103 163 100 171 94 179 90 182 86 184 82 182 79 179 77 173 77 167 77 163 " />
        <polyline stroke="black" stroke-width="3" stroke-linecap="round" fill="transparent" stroke-linejoin="round" points="136 75 137 81 137 89 136 99 135 110 134 128 133 139 132 150 132 160 131 167 131 173 132 176 133 177 134 176 " />
        <polyline stroke="black" stroke-width="3" stroke-linecap="round" fill="transparent" stroke-linejoin="round" points="136 127 139 123 143 120 150 117 155 115 160 113 165 111 171 108 178 105 184 101 191 95 194 91 " />
        <polyline stroke="black" stroke-width="3" stroke-linecap="round" fill="transparent" stroke-linejoin="round" points="185 63 181 71 176 88 172 102 169 116 167 124 162 145 158 157 154 168 148 176 143 182 141 184 " />
        <polyline stroke="black" stroke-width="3" stroke-linecap="round" fill="transparent" stroke-linejoin="round" points="126 186 126 185 128 184 131 183 136 182 144 179 151 178 158 178 165 177 172 178 179 180 182 182 " />
        </svg>