<?xml version="1.0" standalone="no"?>
    <svg width="256" height="256" xmlns="http://www.w3.org/2000/svg" version="1.1">
    <polyline stroke="black" stroke-width="3" stroke-linecap="round" fill="transparent" stroke-linejoin="round" points="65.86776733398438 76.29501342773438 73.41015625 73.92431640625 92.42694091796876 69.35401916503906 113.06671142578124 65.843505859375 123.79669189453124 64.09588623046875 144.1806640625 61.49835205078125 154.01318359375 60.751373291015625 169.6080322265625 61.13201904296875 184.09747314453125 61.923553466796875 188.75927734375 61.63078308105469 192.528564453125 61.08038330078125 195.72601318359375 59.457855224609375 196.6578369140625 57.671478271484375 197.3955078125 56.790618896484375 199.0511474609375 54.98081970214844 199.39471435546875 54.58988952636719 199.5701904296875 54.39024353027344 " />
        <polyline stroke="black" stroke-width="3" stroke-linecap="round" fill="transparent" stroke-linejoin="round" points="100.17745971679688 107.00784301757813 105.975830078125 105.77633666992188 113.66912841796876 104.9041748046875 116.407958984375 104.92794799804688 118.36114501953124 105.5862274169922 118.91326904296876 106.98995971679688 123.02096557617188 123.37596130371094 124.06869506835938 149.93577575683594 122.655029296875 159.8125 120.8389892578125 168.7075653076172 116.1505126953125 183.99398803710935 111.26806640625 195.8280334472656 109.0089111328125 199.22900390625 106.5906982421875 200.9141845703125 105.63250732421876 200.87954711914065 102.2838134765625 200.12582397460935 99.82638549804688 198.96484375 89.4630126953125 188.20166015625 84.19564819335938 177.16539001464844 83.65087890625 174.86700439453125 " />
        <polyline stroke="black" stroke-width="3" stroke-linecap="round" fill="transparent" stroke-linejoin="round" points="83.96054077148438 111.04226684570313 80.90280151367188 122.0655517578125 72.50146484375 150.0013885498047 67.62274169921875 163.75457763671875 57.234222412109375 187.512451171875 56.735809326171875 188.6546630859375 " />
        <polyline stroke="black" stroke-width="3" stroke-linecap="round" fill="transparent" stroke-linejoin="round" points="144.87265014648438 106.2730712890625 146.16009521484375 120.94377136230467 147.80316162109375 154.38377380371094 147.8050537109375 170.68667602539063 145.7506103515625 193.1007080078125 144.2923583984375 200.8846740722656 143.04638671875 207.0135803222656 142.5439453125 207.54766845703125 142.53732299804688 207.55471801757813 142.5341796875 207.55804443359375 142.53369140625 207.55862426757813 143.4091796875 207.54949951171875 145.73202514648438 207.59130859375 156.72137451171875 207.00958251953125 172.4149169921875 204.00442504882813 178.7763671875 202.58615112304688 188.37445068359375 200.19223022460935 191.23846435546875 199.1131591796875 193.54803466796875 198.33755493164065 194.06439208984375 198.0458984375 194.3114013671875 197.46624755859375 194.1082763671875 197.19873046875 " />
        <polyline stroke="black" stroke-width="3" stroke-linecap="round" fill="transparent" stroke-linejoin="round" points="199.85308837890625 122.02120971679688 201.446044921875 139.0076904296875 203.3446044921875 170.47650146484375 203.4886474609375 188.62014770507813 203.1971435546875 192.59539794921875 202.929931640625 195.4583740234375 202.92822265625 195.4766845703125 " />
        <polyline stroke="black" stroke-width="3" stroke-linecap="round" fill="transparent" stroke-linejoin="round" points="178.97821044921875 124.88249206542967 192.1605224609375 124.33584594726563 195.4576416015625 124.34552001953124 198.6048583984375 124.19610595703124 199.6737060546875 124.10693359375 200.3974609375 124.40293884277344 200.69342041015625 124.52395629882813 " />
        </svg>