<?xml version="1.0" standalone="no"?>
    <svg width="256" height="256" xmlns="http://www.w3.org/2000/svg" version="1.1">
    <polyline stroke="black" stroke-width="3" stroke-linecap="round" fill="transparent" stroke-linejoin="round" points="84 47 89 52 83 104 70 165 65 200 65 201 " />
        <polyline stroke="black" stroke-width="3" stroke-linecap="round" fill="transparent" stroke-linejoin="round" points="75 63 81 55 101 42 128 37 144 63 136 128 139 185 152 204 178 199 192 171 192 167 " />
        <polyline stroke="black" stroke-width="3" stroke-linecap="round" fill="transparent" stroke-linejoin="round" points="93 77 92 82 93 99 93 103 97 90 109 73 122 72 117 89 102 105 97 109 103 106 115 102 118 102 119 102 " />
        <polyline stroke="black" stroke-width="3" stroke-linecap="round" fill="transparent" stroke-linejoin="round" points="86 140 86 140 87 146 89 161 95 167 107 157 121 139 129 140 130 150 130 151 129 151 129 150 " />
        <polyline stroke="black" stroke-width="3" stroke-linecap="round" fill="transparent" stroke-linejoin="round" points="110 110 109 131 109 171 107 207 108 210 109 213 " />
        </svg>