<?xml version="1.0" standalone="no"?>
    <svg width="256" height="256" xmlns="http://www.w3.org/2000/svg" version="1.1">
    <polyline stroke="black" stroke-width="3" stroke-linecap="round" fill="transparent" stroke-linejoin="round" points="52.98004150390625 113.12698364257813 68.49066162109375 106.19671630859376 95.88168334960938 95.30632019042967 99.841796875 93.98626708984376 109.7421875 89.03607177734375 115.35238647460938 85.40594482421875 118.32254028320313 83.42587280273438 118.65252685546876 82.43583679199219 118.65252685546876 82.43583679199219 118.65252685546876 82.43583679199219 " />
        <polyline stroke="black" stroke-width="3" stroke-linecap="round" fill="transparent" stroke-linejoin="round" points="104.7919921875 83.42587280273438 93.901611328125 98.6064453125 71.1307373046875 138.8679656982422 67.83062744140625 145.13818359375 60.57037353515625 164.60891723632813 55.950164794921875 176.15936279296875 53.31005859375 181.4395446777344 51.990020751953125 183.41964721679688 52.320068359375 183.41964721679688 58.26025390625 177.14939880371094 68.16061401367188 166.25900268554688 79.38104248046875 157.3486328125 90.60150146484376 152.0684356689453 99.51181030273438 151.0784149169922 105.78207397460938 153.3885040283203 109.08218383789063 158.3386993408203 108.09213256835938 170.879150390625 99.841796875 186.38970947265625 90.27145385742188 194.6400451660156 81.0311279296875 199.92025756835935 72.78082275390625 199.92025756835935 68.16061401367188 196.29010009765625 68.16061401367188 196.29010009765625 68.16061401367188 196.29010009765625 " />
        <polyline stroke="black" stroke-width="3" stroke-linecap="round" fill="transparent" stroke-linejoin="round" points="140.76333618164063 104.54666137695313 145.383544921875 116.09709167480467 146.37359619140625 118.0771484375 150.99371337890625 123.6873779296875 152.643798828125 124.67741394042967 158.9140625 125.66746520996094 173.1046142578125 121.37728881835938 184.32501220703125 112.79696655273438 193.56536865234375 103.88665771484376 199.50555419921875 100.25651550292967 202.4757080078125 99.5964813232422 203.79571533203125 101.2465362548828 201.81561279296875 107.84678649902344 189.27520751953125 123.02734375 171.78448486328125 139.19796752929688 150.99371337890625 153.71849060058594 132.18304443359375 163.2888641357422 122.6126708984375 167.2490234375 119.642578125 168.23904418945313 119.31256103515624 168.8990936279297 123.60272216796876 167.9090576171875 140.10336303710938 163.9488983154297 158.583984375 158.9987030029297 180.69482421875 150.08836364746094 202.14569091796875 137.87791442871094 213.03607177734375 130.6176300048828 213.03607177734375 130.6176300048828 213.03607177734375 130.6176300048828 " />
        <polyline stroke="black" stroke-width="3" stroke-linecap="round" fill="transparent" stroke-linejoin="round" points="180.0347900390625 89.69610595703125 177.39471435546875 98.93644714355467 175.4146728515625 104.54666137695313 163.2042236328125 140.51800537109375 138.78329467773438 185.72970581054688 134.8231201171875 191.99993896484375 124.26275634765624 209.82061767578125 118.32254028320313 218.73095703125 118.32254028320313 218.73095703125 118.32254028320313 218.73095703125 " />
        <polyline stroke="black" stroke-width="3" stroke-linecap="round" fill="transparent" stroke-linejoin="round" points="150.66372680664063 183.41964721679688 163.5341796875 185.39971923828125 183.66497802734375 193.32000732421875 188.94512939453125 196.29010009765625 203.13568115234375 207.18051147460935 206.76580810546875 212.13067626953125 206.76580810546875 212.13067626953125 " />
        </svg>