<?xml version="1.0" standalone="no"?>
    <svg width="256" height="256" xmlns="http://www.w3.org/2000/svg" version="1.1">
    <polyline stroke="black" stroke-width="3" stroke-linecap="round" fill="transparent" stroke-linejoin="round" points="92.835693359375 84.19511413574219 117.13265991210938 76.48176574707031 137.1873779296875 71.08242797851563 149.5286865234375 67.22576904296875 152.99969482421875 65.68309020996094 152.99969482421875 65.68309020996094 " />
        <polyline stroke="black" stroke-width="3" stroke-linecap="round" fill="transparent" stroke-linejoin="round" points="103.24868774414063 84.58076477050781 88.2076416015625 110.80612182617188 75.8663330078125 131.24647521972656 67.38165283203125 143.5878143310547 60.439666748046875 152.8438262939453 60.439666748046875 152.8438262939453 " />
        <polyline stroke="black" stroke-width="3" stroke-linecap="round" fill="transparent" stroke-linejoin="round" points="166.1124267578125 106.56378173828124 186.16705322265625 120.83346557617188 204.6790771484375 128.1611328125 218.5631103515625 131.24647521972656 223.19110107421875 131.24647521972656 223.19110107421875 131.24647521972656 " />
        <polyline stroke="black" stroke-width="3" stroke-linecap="round" fill="transparent" stroke-linejoin="round" points="84.7366943359375 161.71414184570313 86.27932739257813 170.58450317382813 88.97900390625 178.68350219726563 91.29299926757813 184.08282470703125 93.60699462890624 187.16818237304688 93.99267578125 186.78250122070313 93.99267578125 186.78250122070313 " />
        <polyline stroke="black" stroke-width="3" stroke-linecap="round" fill="transparent" stroke-linejoin="round" points="113.66171264648438 134.33181762695313 130.245361328125 130.08946228027344 144.51504516601563 128.1611328125 161.0987548828125 127.77546691894533 170.354736328125 128.54681396484375 179.22509765625 132.40345764160156 186.16705322265625 139.34547424316406 188.86676025390625 150.14414978027344 187.32403564453125 163.2568359375 183.08172607421875 173.66983032226563 180.382080078125 178.68350219726563 180.382080078125 178.68350219726563 " />
        <polyline stroke="black" stroke-width="3" stroke-linecap="round" fill="transparent" stroke-linejoin="round" points="140.272705078125 186.01116943359375 158.3990478515625 186.3968505859375 162.25567626953125 186.78250122070313 162.25567626953125 186.78250122070313 " />
        </svg>