<?xml version="1.0" standalone="no"?>
    <svg width="256" height="256" xmlns="http://www.w3.org/2000/svg" version="1.1">
    <polyline stroke="black" stroke-width="3" stroke-linecap="round" fill="transparent" stroke-linejoin="round" points="81 100 80 101 82 100 85 100 89 98 94 96 100 94 107 92 114 89 123 86 131 82 143 76 150 72 157 67 162 62 165 60 167 57 " />
        <polyline stroke="black" stroke-width="3" stroke-linecap="round" fill="transparent" stroke-linejoin="round" points="137 35 134 45 130 58 121 81 114 97 107 112 101 125 96 136 91 146 87 153 84 159 82 163 81 166 80 167 81 167 81 166 " />
        <polyline stroke="black" stroke-width="3" stroke-linecap="round" fill="transparent" stroke-linejoin="round" points="115 103 122 103 130 104 137 106 144 108 151 111 160 114 166 117 172 119 177 121 183 123 188 124 190 124 " />
        <polyline stroke="black" stroke-width="3" stroke-linecap="round" fill="transparent" stroke-linejoin="round" points="114 141 112 144 110 150 109 154 109 159 108 164 108 169 107 174 107 178 107 182 108 185 109 186 109 186 110 186 " />
        <polyline stroke="black" stroke-width="3" stroke-linecap="round" fill="transparent" stroke-linejoin="round" points="121 133 125 131 132 129 138 129 143 129 148 129 152 129 157 130 161 130 165 131 168 133 171 138 172 145 170 154 165 166 159 178 150 189 141 198 136 202 132 204 " />
        <polyline stroke="black" stroke-width="3" stroke-linecap="round" fill="transparent" stroke-linejoin="round" points="108 206 107 204 109 202 112 200 116 198 120 196 128 194 133 193 139 193 145 193 151 194 155 195 158 197 " />
        </svg>