<?xml version="1.0" standalone="no"?>
    <svg width="256" height="256" xmlns="http://www.w3.org/2000/svg" version="1.1">
    <polyline stroke="black" stroke-width="3" stroke-linecap="round" fill="transparent" stroke-linejoin="round" points="68.72998046875 109.1074676513672 92.07720947265624 100.43565368652344 104.4178466796875 97.100341796875 116.42498779296876 94.43209838867188 139.43865966796875 91.09677124023438 157.4493408203125 90.42971801757813 169.4564208984375 89.0955810546875 173.125244140625 88.42852783203125 176.1270751953125 87.76145935058594 176.1270751953125 87.76145935058594 " />
        <polyline stroke="black" stroke-width="3" stroke-linecap="round" fill="transparent" stroke-linejoin="round" points="118.75970458984376 72.08549499511719 108.086669921875 89.42912292480469 97.08016967773438 106.77273559570313 77.06829833984375 140.1258544921875 55.05523681640625 181.48373413085935 53.054046630859375 185.48611450195313 53.054046630859375 185.48611450195313 " />
        <polyline stroke="black" stroke-width="3" stroke-linecap="round" fill="transparent" stroke-linejoin="round" points="122.42855834960938 96.43328857421876 128.09857177734375 98.76799011230467 135.43624877929688 102.10330200195313 159.116943359375 117.44573974609376 175.4599609375 129.45286560058594 188.13421630859375 140.79293823242188 199.80780029296875 154.4676971435547 203.8101806640625 161.13833618164063 203.8101806640625 161.13833618164063 " />
        <polyline stroke="black" stroke-width="3" stroke-linecap="round" fill="transparent" stroke-linejoin="round" points="84.07244873046875 193.1573486328125 85.74008178710938 201.82916259765625 86.0736083984375 204.8309326171875 86.0736083984375 206.8321228027344 86.0736083984375 206.8321228027344 " />
        <polyline stroke="black" stroke-width="3" stroke-linecap="round" fill="transparent" stroke-linejoin="round" points="108.086669921875 165.47422790527344 114.42379760742188 161.80538940429688 127.43148803710938 156.46890258789063 140.772705078125 152.46652221679688 152.11279296875 152.46652221679688 160.78460693359375 153.80064392089844 166.45465087890625 156.46890258789063 169.78997802734375 159.13714599609375 171.1241455078125 163.47305297851563 168.78936767578125 171.14427185058594 159.116943359375 181.48373413085935 151.44573974609375 188.15435791015625 151.44573974609375 188.15435791015625 " />
        <polyline stroke="black" stroke-width="3" stroke-linecap="round" fill="transparent" stroke-linejoin="round" points="110.42138671875 206.1650390625 118.09262084960938 203.16326904296875 125.76385498046876 201.16207885742188 142.77392578125 198.16030883789065 149.11102294921875 197.8267822265625 162.1187744140625 198.827392578125 162.1187744140625 198.827392578125 " />
        </svg>