<?xml version="1.0" standalone="no"?>
    <svg width="256" height="256" xmlns="http://www.w3.org/2000/svg" version="1.1">
    <polyline stroke="black" stroke-width="3" stroke-linecap="round" fill="transparent" stroke-linejoin="round" points="73 96 81 93 101 87 125 80 145 76 162 73 168 72 168 72 " />
        <polyline stroke="black" stroke-width="3" stroke-linecap="round" fill="transparent" stroke-linejoin="round" points="113 70 102 93 87 119 71 139 57 156 48 166 46 167 46 167 " />
        <polyline stroke="black" stroke-width="3" stroke-linecap="round" fill="transparent" stroke-linejoin="round" points="143 110 149 111 162 119 176 128 192 138 205 146 213 152 213 152 " />
        <polyline stroke="black" stroke-width="3" stroke-linecap="round" fill="transparent" stroke-linejoin="round" points="94 156 94 169 94 182 94 194 94 202 94 208 94 210 94 210 " />
        <polyline stroke="black" stroke-width="3" stroke-linecap="round" fill="transparent" stroke-linejoin="round" points="101 143 107 142 123 138 143 135 160 134 172 135 176 141 178 152 178 165 178 178 176 189 171 195 168 198 168 198 " />
        <polyline stroke="black" stroke-width="3" stroke-linecap="round" fill="transparent" stroke-linejoin="round" points="96 199 110 195 131 191 152 189 174 189 174 189 " />
        </svg>