<?xml version="1.0" standalone="no"?>
    <svg width="256" height="256" xmlns="http://www.w3.org/2000/svg" version="1.1">
    <polyline stroke="black" stroke-width="3" stroke-linecap="round" fill="transparent" stroke-linejoin="round" points="65.771484375 78.41079711914063 71.93588256835938 73.8902587890625 87.141357421875 64.02725219726563 95.36053466796876 59.5067138671875 111.38790893554688 51.28753662109375 124.12762451171876 45.94508361816406 131.52487182617188 43.06837463378906 134.40158081054688 41.83549499511719 134.8125 41.424530029296875 133.57968139648438 41.83549499511719 131.52487182617188 42.65740966796875 122.07284545898438 50.054656982421875 113.8536376953125 59.5067138671875 103.16876220703124 76.35600280761719 90.84002685546876 102.6573486328125 77.27838134765625 134.3011474609375 65.36056518554688 162.24632263183594 56.730438232421875 181.56137084960935 51.798919677734375 191.013427734375 49.744140625 193.47918701171875 49.744140625 193.47918701171875 " />
        <polyline stroke="black" stroke-width="3" stroke-linecap="round" fill="transparent" stroke-linejoin="round" points="84.67562866210938 125.2600555419922 90.01806640625 122.7943115234375 95.36053466796876 120.73953247070313 100.70297241210938 119.09568786621094 110.56600952148438 117.0408935546875 117.96322631835938 117.86282348632813 123.3056640625 122.3833465576172 126.59335327148438 135.53404235839844 124.12762451171876 154.0271453857422 116.7303466796875 169.23260498046875 109.74407958984376 176.2189178466797 102.75778198242188 179.0956268310547 102.75778198242188 179.0956268310547 " />
        <polyline stroke="black" stroke-width="3" stroke-linecap="round" fill="transparent" stroke-linejoin="round" points="162.7576904296875 54.57521057128906 168.922119140625 53.75328826904297 175.08642578125 53.34233093261719 187.0042724609375 52.520408630371094 198.92205810546875 51.28753662109375 208.3741455078125 50.46562194824219 213.30560302734375 50.054656982421875 214.949462890625 49.643699645996094 214.53851318359375 49.643699645996094 212.07275390625 50.87657928466797 207.55218505859375 54.57521057128906 199.3330078125 63.616302490234375 189.05908203125 80.46559143066406 178.78509521484375 105.1230926513672 170.15496826171875 132.24636840820313 163.57958984375 156.9038543701172 157.826171875 176.62986755371094 153.3056640625 188.9586181640625 153.3056640625 188.9586181640625 " />
        <polyline stroke="black" stroke-width="3" stroke-linecap="round" fill="transparent" stroke-linejoin="round" points="189.05908203125 117.45184326171876 195.223388671875 115.80802917480467 207.963134765625 115.39706420898438 218.2371826171875 118.27378845214844 230.1549072265625 133.8901824951172 235.9083251953125 153.61619567871094 236.31927490234375 172.10931396484375 232.209716796875 186.0819091796875 226.456298828125 192.65725708007813 213.716552734375 195.9449157714844 204.67547607421875 194.30108642578125 204.67547607421875 194.30108642578125 " />
        </svg>