<?xml version="1.0" standalone="no"?>
    <svg width="256" height="256" xmlns="http://www.w3.org/2000/svg" version="1.1">
    <polyline stroke="black" stroke-width="3" stroke-linecap="round" fill="transparent" stroke-linejoin="round" points="74.33636474609375 83.85855102539063 93.8758544921875 73.57460021972656 106.73077392578124 65.86164855957031 120.09991455078124 58.148681640625 126.78448486328124 54.03511047363281 130.89804077148438 51.97832489013672 129.86962890625 51.97832489013672 125.75607299804688 53.52091217041016 115.986328125 60.71968078613281 96.44683837890624 85.91534423828125 69.70855712890625 133.73568725585938 57.36785888671875 158.41714477539063 50.1690673828125 172.81466674804688 47.083892822265625 177.95664978027344 47.083892822265625 180.5276336669922 49.654876708984375 176.41404724121094 61.481414794921875 163.044921875 81.53509521484375 141.96282958984375 95.9326171875 129.62210083007813 103.13140869140624 128.0795135498047 107.7591552734375 133.2214813232422 108.27337646484376 159.95974731445313 97.4752197265625 184.6412048339844 88.73388671875 193.89675903320313 77.93572998046875 199.55291748046875 72.27957153320313 199.55291748046875 70.2227783203125 194.41094970703125 70.2227783203125 194.41094970703125 " />
        <polyline stroke="black" stroke-width="3" stroke-linecap="round" fill="transparent" stroke-linejoin="round" points="141.1820068359375 84.37274169921875 153.008544921875 81.8017578125 166.891845703125 77.17398071289063 182.3177490234375 71.517822265625 194.65850830078125 64.833251953125 201.8572998046875 61.23387145996094 203.9140625 60.71968078613281 201.34307861328125 62.776458740234375 193.630126953125 69.9752197265625 178.2042236328125 84.88694763183594 158.1505126953125 111.11100769042967 136.0400390625 141.44863891601563 123.18508911132813 169.2152862548828 117.5289306640625 180.5276336669922 114.4437255859375 186.18380737304688 112.901123046875 188.2406005859375 115.986328125 182.58441162109375 131.92645263671875 157.9029541015625 149.92333984375 137.33506774902344 168.4344482421875 120.36654663085938 185.9171142578125 109.5684051513672 195.6868896484375 107.51162719726563 202.8856201171875 110.08261108398438 210.5986328125 123.45173645019533 212.1412353515625 147.61900329589844 208.02764892578125 164.0733184814453 203.39984130859375 174.35726928710938 196.71527099609375 180.5276336669922 179.74676513671875 187.21218872070313 161.7498779296875 185.66958618164065 147.35235595703125 179.49923706054688 137.06842041015625 170.7578887939453 137.06842041015625 170.7578887939453 " />
        </svg>