<?xml version="1.0" standalone="no"?>
    <svg width="256" height="256" xmlns="http://www.w3.org/2000/svg" version="1.1">
    <polyline stroke="black" stroke-width="3" stroke-linecap="round" fill="transparent" stroke-linejoin="round" points="63.2349853515625 62.9404296875 68.9566650390625 60.67901611328125 84.77670288085938 56.5751953125 91.9901123046875 54.934356689453125 105.83847045898438 52.54798889160156 126.1756591796875 51.814727783203125 129.37158203125 51.85533905029297 129.92465209960938 51.82472229003906 129.98434448242188 51.821441650390625 129.9853515625 51.821380615234375 129.98568725585938 51.82134246826172 " />
        <polyline stroke="black" stroke-width="3" stroke-linecap="round" fill="transparent" stroke-linejoin="round" points="89.100830078125 120.11833190917967 92.85470581054688 119.29238891601563 97.1107177734375 118.83726501464844 101.0401611328125 118.8369598388672 104.84994506835938 119.66007995605467 118.461669921875 127.16496276855467 122.76409912109376 134.39585876464844 129.13851928710938 162.8658905029297 128.418701171875 174.5408935546875 119.85894775390624 196.7447509765625 111.83868408203124 209.65377807617188 110.55230712890624 214.92355346679688 109.18002319335938 217.17706298828125 108.544677734375 217.36895751953125 107.73068237304688 216.878662109375 106.14208984375 216.72024536132813 102.39523315429688 216.0430908203125 100.653564453125 215.247802734375 94.5400390625 208.78756713867188 89.2142333984375 201.44586181640625 77.20162963867188 188.23654174804688 75.1427001953125 185.81378173828125 " />
        <polyline stroke="black" stroke-width="3" stroke-linecap="round" fill="transparent" stroke-linejoin="round" points="82.3992919921875 107.62052917480467 80.69808959960938 122.51290893554688 78.13510131835938 138.60972595214844 74.74920654296875 154.16253662109375 65.10003662109375 180.76792907714844 58.73974609375 189.54095458984375 53.779388427734375 195.8155517578125 54.656585693359375 191.792724609375 " />
        <polyline stroke="black" stroke-width="3" stroke-linecap="round" fill="transparent" stroke-linejoin="round" points="161.14349365234375 69.85162353515625 168.93048095703125 68.09085083007813 183.37298583984375 64.13223266601563 189.78802490234375 62.696624755859375 202.0672607421875 61.35289001464844 204.48590087890625 61.79756164550781 206.73382568359375 61.81385803222656 208.7203369140625 60.72761535644531 208.864013671875 60.61793518066406 208.92327880859375 60.572662353515625 " />
        <polyline stroke="black" stroke-width="3" stroke-linecap="round" fill="transparent" stroke-linejoin="round" points="179.48779296875 121.46739196777344 185.17230224609375 122.45774841308594 196.9761962890625 125.1771240234375 205.4473876953125 127.83065795898438 208.7542724609375 129.11126708984375 212.2451171875 131.39593505859375 213.1431884765625 132.89828491210938 214.505859375 136.75584411621094 216.9468994140625 153.51397705078125 217.663330078125 178.2876434326172 217.0877685546875 192.08511352539065 215.35205078125 211.86572265625 212.1024169921875 220.18731689453125 210.22125244140625 221.90447998046875 208.2222900390625 223.70828247070313 203.947265625 225.2991943359375 199.5926513671875 224.96453857421875 197.65301513671875 224.5126953125 191.8514404296875 221.15219116210935 188.144775390625 217.53256225585935 177.1895751953125 203.75091552734375 176.638916015625 202.46356201171875 " />
        <polyline stroke="black" stroke-width="3" stroke-linecap="round" fill="transparent" stroke-linejoin="round" points="170.931396484375 102.3359832763672 169.5211181640625 116.40444946289063 164.324951171875 145.01268005371094 151.7713623046875 168.56063842773438 143.185791015625 176.4578857421875 125.38717651367188 202.98748779296875 125.734375 202.56085205078125 " />
        </svg>