<?xml version="1.0" standalone="no"?>
    <svg width="256" height="256" xmlns="http://www.w3.org/2000/svg" version="1.1">
    <polyline stroke="black" stroke-width="3" stroke-linecap="round" fill="transparent" stroke-linejoin="round" points="72.79205322265625 77.2763671875 84.26580810546875 72.86337280273438 90.002685546875 71.09817504882813 95.73959350585938 69.33297729492188 107.21331787109376 66.243896484375 116.92193603515624 64.03739929199219 123.10009765625 62.7135009765625 126.189208984375 61.830902099609375 127.07177734375 60.50701904296875 127.07177734375 60.50701904296875 " />
        <polyline stroke="black" stroke-width="3" stroke-linecap="round" fill="transparent" stroke-linejoin="round" points="81.61801147460938 111.69766235351563 73.67465209960938 128.02572631835938 70.14425659179688 137.29299926757813 60.876953125 159.79922485351563 57.34661865234375 169.06649780273438 54.25750732421875 175.68597412109375 52.492279052734375 178.77505493164063 52.492279052734375 178.77505493164063 " />
        <polyline stroke="black" stroke-width="3" stroke-linecap="round" fill="transparent" stroke-linejoin="round" points="85.14840698242188 134.20388793945313 90.44403076171876 131.11480712890625 95.73959350585938 128.90830993652344 110.30242919921876 124.49533081054688 117.36322021484376 124.05404663085938 121.33489990234376 126.26052856445313 124.42401123046876 139.94078063964844 118.24581909179688 170.83169555664063 107.65463256835938 195.54443359375 98.82867431640624 208.78338623046875 92.20916748046876 214.520263671875 86.47235107421875 214.520263671875 86.47235107421875 214.520263671875 " />
        <polyline stroke="black" stroke-width="3" stroke-linecap="round" fill="transparent" stroke-linejoin="round" points="179.14501953125 75.95246887207031 183.999267578125 75.51116943359375 188.8536376953125 74.62857055664063 199.44476318359375 73.30467224121094 204.299072265625 72.86337280273438 213.125 71.98077392578125 219.7445068359375 70.65689086914063 224.157470703125 69.7742919921875 226.364013671875 69.7742919921875 226.8052978515625 69.7742919921875 226.364013671875 69.7742919921875 225.04010009765625 70.215576171875 220.62713623046875 72.42207336425781 214.44891357421875 75.51116943359375 208.7120361328125 79.48284912109375 203.8577880859375 84.33714294433594 199.8861083984375 89.19143676757813 196.35565185546875 94.4870147705078 193.7078857421875 100.22390747070313 190.6187744140625 109.04986572265624 187.52972412109375 120.08233642578124 184.8819580078125 132.87998962402344 181.7928466796875 147.00155639648438 178.7037353515625 159.35791015625 175.17333984375 172.15557861328125 171.6429443359375 182.7467498779297 168.112548828125 191.13140869140625 165.46478271484375 195.9857177734375 164.140869140625 199.0747985839844 163.25830078125 199.51611328125 163.25830078125 199.51611328125 " />
        <polyline stroke="black" stroke-width="3" stroke-linecap="round" fill="transparent" stroke-linejoin="round" points="225.04010009765625 121.40623474121094 227.24658203125 122.73014831542967 229.45306396484375 124.05404663085938 234.307373046875 128.02572631835938 240.9268798828125 135.52780151367188 244.8985595703125 146.56027221679688 246.222412109375 163.77090454101563 244.01593017578125 180.54025268554688 239.16162109375 195.9857177734375 232.54217529296875 208.78338623046875 226.364013671875 217.60934448242188 221.50970458984375 222.0223388671875 217.0966796875 224.67013549804688 214.44891357421875 225.1114196777344 204.7403564453125 222.463623046875 202.53387451171875 221.1397399902344 202.53387451171875 221.1397399902344 " />
        </svg>