<?xml version="1.0" standalone="no"?>
    <svg width="256" height="256" xmlns="http://www.w3.org/2000/svg" version="1.1">
    <polyline stroke="black" stroke-width="3" stroke-linecap="round" fill="transparent" stroke-linejoin="round" points="83.5 86.5 85.5 86 92.5 84 98 82.5 102.5 81 105.5 79.5 107 79 108.5 78.5 108.5 78.5 " />
        <polyline stroke="black" stroke-width="3" stroke-linecap="round" fill="transparent" stroke-linejoin="round" points="110.5 126.5 110.5 133 110 141 109.5 149.5 108 157 105.5 166.5 104 171 102.5 174 101 176 99.5 177.5 96.5 177.5 94 177 91 175 87.5 172.5 82.5 168.5 78 162.5 73 156 71.5 153 71.5 153 " />
        <polyline stroke="black" stroke-width="3" stroke-linecap="round" fill="transparent" stroke-linejoin="round" points="84.5 108.5 83.5 111.5 82.5 115.5 78 130.5 74.5 142 70.5 152.5 66 161.5 59.5 173 55.5 178.5 52 182.5 49.5 185 48 186.5 48 186.5 " />
        <polyline stroke="black" stroke-width="3" stroke-linecap="round" fill="transparent" stroke-linejoin="round" points="131.5 79 137 77.5 142 76.5 146.5 75.5 149.5 75 152 75.5 153.5 75.5 153.5 75.5 " />
        <polyline stroke="black" stroke-width="3" stroke-linecap="round" fill="transparent" stroke-linejoin="round" points="161 119 161 120 161.5 121 161.5 124 162.5 134 162.5 142 162.5 150.5 162 158.5 161 168.5 160 173 158 176 156 178 153 179 147 178.5 142 175.5 135.5 171.5 128.5 164.5 122.5 156.5 120.5 152 120.5 152 " />
        <polyline stroke="black" stroke-width="3" stroke-linecap="round" fill="transparent" stroke-linejoin="round" points="127.5 110 126.5 120 125.5 131 124 143.5 121 155 117 170 113.5 177.5 110 183.5 107 187 104.5 189.5 103.5 190.5 103.5 190 103.5 190 " />
        </svg>