<?xml version="1.0" standalone="no"?>
    <svg width="256" height="256" xmlns="http://www.w3.org/2000/svg" version="1.1">
    <polyline stroke="black" stroke-width="3" stroke-linecap="round" fill="transparent" stroke-linejoin="round" points="53.2120361328125 67.18356323242188 56.49658203125 83.19583129882813 57.3177490234375 87.71211242675781 58.960052490234375 96.7446746826172 59.78118896484375 100.4398193359375 59.78118896484375 100.4398193359375 " />
        <polyline stroke="black" stroke-width="3" stroke-linecap="round" fill="transparent" stroke-linejoin="round" points="70.04547119140625 80.32183837890625 81.130859375 71.28927612304688 87.70001220703125 66.77299499511719 103.30169677734376 57.329864501953125 120.13510131835938 49.118438720703125 136.968505859375 44.19158935546875 152.15966796875 42.54930877685547 164.476806640625 43.37044525146485 173.0987548828125 46.24444580078125 178.025634765625 49.529014587402344 179.66790771484375 51.171295166015625 182.13134765625 59.382720947265625 180.899658203125 65.13070678710938 164.88739013671875 92.22840881347656 164.88739013671875 92.22840881347656 " />
        <polyline stroke="black" stroke-width="3" stroke-linecap="round" fill="transparent" stroke-linejoin="round" points="69.22430419921875 127.53750610351563 79.899169921875 120.147216796875 91.3951416015625 114.39923095703124 103.30169677734376 110.7041015625 113.56597900390624 107.83010864257813 123.00912475585938 104.9561004638672 123.00912475585938 104.9561004638672 " />
        <polyline stroke="black" stroke-width="3" stroke-linecap="round" fill="transparent" stroke-linejoin="round" points="101.24887084960938 81.96412658691406 94.6796875 104.9561004638672 89.34228515625 132.87493896484375 84.41546630859375 156.6880340576172 79.48861694335938 175.1637420654297 74.9722900390625 188.302001953125 71.687744140625 194.87115478515625 68.813720703125 197.74514770507813 67.17147827148438 198.15570068359375 66.35031127929688 196.92401123046875 66.7608642578125 193.63943481445313 67.99261474609375 190.76544189453125 79.48861694335938 177.62716674804688 92.21627807617188 167.36288452148438 104.12286376953124 159.97259521484375 113.9765625 154.6351776123047 120.545654296875 151.35061645507813 120.545654296875 151.35061645507813 " />
        <polyline stroke="black" stroke-width="3" stroke-linecap="round" fill="transparent" stroke-linejoin="round" points="127.525390625 106.59837341308594 138.61080932617188 100.02923583984376 143.1270751953125 97.97639465332033 151.74908447265625 95.10238647460938 160.37109375 93.46011352539063 168.9930419921875 93.87068176269533 168.9930419921875 93.87068176269533 " />
        <polyline stroke="black" stroke-width="3" stroke-linecap="round" fill="transparent" stroke-linejoin="round" points="118.90341186523438 149.70834350585938 132.86279296875 145.1920623779297 139.43197631835938 143.9603271484375 153.80194091796875 142.31805419921875 166.940185546875 141.49691772460938 179.25732421875 141.0863494873047 189.93218994140625 139.44406127929688 189.93218994140625 139.44406127929688 " />
        <polyline stroke="black" stroke-width="3" stroke-linecap="round" fill="transparent" stroke-linejoin="round" points="155.4442138671875 50.35015106201172 150.92791748046875 70.87870788574219 149.69622802734375 80.32183837890625 147.64337158203125 102.49267578125 146.82223510742188 126.3057861328125 147.2327880859375 147.65548706054688 148.053955078125 164.8994598388672 148.46453857421875 183.7857360839844 148.053955078125 205.13543701171875 148.053955078125 205.13543701171875 " />
        </svg>