<?xml version="1.0" standalone="no"?>
    <svg width="256" height="256" xmlns="http://www.w3.org/2000/svg" version="1.1">
    <polyline stroke="black" stroke-width="3" stroke-linecap="round" fill="transparent" stroke-linejoin="round" points="44.590057373046875 75.39498901367188 46.23236083984375 94.28125 46.642913818359375 103.31382751464844 46.23236083984375 109.47239685058594 45.41119384765625 113.57809448242188 44.590057373046875 115.22036743164063 44.590057373046875 115.22036743164063 " />
        <polyline stroke="black" stroke-width="3" stroke-linecap="round" fill="transparent" stroke-linejoin="round" points="42.537200927734375 98.38697814941406 52.390869140625 88.1226806640625 59.37060546875 82.78526306152344 68.40316772460938 76.626708984375 100.01715087890624 61.024993896484375 123.419677734375 55.68757629394531 133.27337646484375 54.45586395263672 150.10678100585938 54.86643981933594 161.602783203125 57.74043273925781 168.17193603515625 61.435577392578125 172.277587890625 68.415283203125 172.277587890625 84.83811950683594 162.4239501953125 107.41952514648438 154.2125244140625 118.09439086914063 154.2125244140625 118.09439086914063 " />
        <polyline stroke="black" stroke-width="3" stroke-linecap="round" fill="transparent" stroke-linejoin="round" points="43.768890380859375 160.3831787109375 51.56976318359375 154.224609375 57.72833251953125 150.118896484375 79.0780029296875 137.39120483398438 92.62689208984376 130.00091552734375 102.89111328125 123.43179321289063 108.63912963867188 116.8626708984375 108.63912963867188 116.8626708984375 " />
        <polyline stroke="black" stroke-width="3" stroke-linecap="round" fill="transparent" stroke-linejoin="round" points="102.48056030273438 99.20809936523438 93.85858154296876 111.52523803710938 86.05770874023438 127.12693786621094 77.84628295898438 143.9603271484375 69.22430419921875 159.97259521484375 61.4234619140625 172.28973388671875 54.033172607421875 182.9645843505859 48.695770263671875 189.53372192382813 45.41119384765625 193.2288818359375 43.768890380859375 195.28170776367188 43.768890380859375 195.6922912597656 47.053466796875 194.87115478515625 65.93975830078125 185.0174560546875 81.130859375 175.1637420654297 88.110595703125 170.23687744140625 95.09027099609376 165.31002807617188 95.09027099609376 165.31002807617188 " />
        <polyline stroke="black" stroke-width="3" stroke-linecap="round" fill="transparent" stroke-linejoin="round" points="110.69198608398438 122.2000732421875 124.6513671875 118.09439086914063 130.39938354492188 116.8626708984375 135.32626342773438 116.04150390625 148.46453857421875 114.39923095703124 154.623046875 114.39923095703124 154.623046875 114.39923095703124 " />
        <polyline stroke="black" stroke-width="3" stroke-linecap="round" fill="transparent" stroke-linejoin="round" points="114.38714599609376 159.15147399902344 132.86279296875 153.40347290039063 139.43197631835938 151.76119995117188 146.82223510742188 150.118896484375 163.24505615234375 146.42376708984375 166.11907958984375 145.60263061523438 166.11907958984375 145.60263061523438 " />
        <polyline stroke="black" stroke-width="3" stroke-linecap="round" fill="transparent" stroke-linejoin="round" points="143.9482421875 84.0169677734375 142.305908203125 93.87068176269533 141.48480224609375 111.52523803710938 142.71652221679688 146.42376708984375 143.53768920898438 169.82632446289063 143.1270751953125 197.3345642089844 142.305908203125 210.47283935546875 142.305908203125 210.47283935546875 " />
        </svg>