<?xml version="1.0" standalone="no"?>
    <svg width="256" height="256" xmlns="http://www.w3.org/2000/svg" version="1.1">
    <polyline stroke="black" stroke-width="3" stroke-linecap="round" fill="transparent" stroke-linejoin="round" points="64.79095458984375 121.41497802734376 70.70709228515625 124.11245727539063 71.67156982421875 124.40625 " />
        <polyline stroke="black" stroke-width="3" stroke-linecap="round" fill="transparent" stroke-linejoin="round" points="99.51190185546876 94.18185424804688 95.82540893554688 108.67831420898438 92.14218139648438 123.78717041015624 91.74322509765624 125.5703125 " />
        <polyline stroke="black" stroke-width="3" stroke-linecap="round" fill="transparent" stroke-linejoin="round" points="81.57150268554688 135.6363525390625 89.32708740234375 128.81785583496094 101.17449951171876 115.50698852539063 105.02597045898438 108.44354248046876 107.82977294921876 101.08317565917967 108.11016845703124 100.34713745117188 " />
        <polyline stroke="black" stroke-width="3" stroke-linecap="round" fill="transparent" stroke-linejoin="round" points="83.975341796875 73.88510131835938 84.03329467773438 92.385009765625 82.44601440429688 133.1306610107422 81.2235107421875 152.87322998046875 77.08349609375 184.98614501953125 71.68551635742188 211.44515991210935 69.03085327148438 220.39898681640625 61.44061279296875 234.054931640625 61.106292724609375 234.5201416015625 " />
        <polyline stroke="black" stroke-width="3" stroke-linecap="round" fill="transparent" stroke-linejoin="round" points="94.04403686523438 177.119384765625 98.22543334960938 182.9256896972656 116.71722412109376 195.95486450195313 121.34393310546876 199.46746826171875 123.14144897460938 201.32421875 123.31307983398438 201.50146484375 " />
        <polyline stroke="black" stroke-width="3" stroke-linecap="round" fill="transparent" stroke-linejoin="round" points="133.49505615234375 78.50515747070313 147.84384155273438 73.24458312988281 156.12847900390625 69.27813720703125 162.719970703125 65.44464111328125 168.2203369140625 62.60882568359375 174.4703369140625 59.81573486328125 175.8472900390625 59.334747314453125 175.9276123046875 59.29780578613281 175.95111083984375 59.2869873046875 " />
        <polyline stroke="black" stroke-width="3" stroke-linecap="round" fill="transparent" stroke-linejoin="round" points="154.7890625 112.88731384277344 158.9866943359375 111.80029296875 169.0015869140625 110.810791015625 173.50189208984375 111.2346649169922 190.95941162109375 134.13768005371094 194.25726318359375 148.11553955078125 193.4552001953125 175.46446228027344 190.62060546875 188.54104614257813 185.14599609375 200.86767578125 181.2933349609375 202.6646728515625 179.77789306640625 202.7997131347656 178.50616455078125 203.06863403320313 177.43682861328125 202.65179443359375 172.1514892578125 198.029052734375 166.31976318359375 187.92642211914065 165.68359375 186.05584716796875 " />
        <polyline stroke="black" stroke-width="3" stroke-linecap="round" fill="transparent" stroke-linejoin="round" points="141.41552734375 99.99581909179688 141.50323486328125 116.83108520507813 137.435791015625 156.27996826171875 127.94989013671876 194.5224609375 127.21624755859376 197.845458984375 " />
        </svg>