<?xml version="1.0" standalone="no"?>
    <svg width="256" height="256" xmlns="http://www.w3.org/2000/svg" version="1.1">
    <polyline stroke="black" stroke-width="3" stroke-linecap="round" fill="transparent" stroke-linejoin="round" points="57.6168212890625 82.59115600585938 61.150360107421875 90.5415496826172 64.2421875 96.28350830078124 70.86752319335938 100.25871276855467 70.86752319335938 100.25871276855467 " />
        <polyline stroke="black" stroke-width="3" stroke-linecap="round" fill="transparent" stroke-linejoin="round" points="133.14569091796875 55.64811706542969 127.84539794921876 61.831756591796875 121.22006225585938 68.45709228515625 112.82797241210938 75.9658203125 103.11083984375 83.47451782226563 87.65170288085938 94.07505798339844 77.0511474609375 100.25871276855467 70.42584228515625 104.23391723632813 66.45062255859375 106.44235229492188 64.2421875 109.53416442871094 64.2421875 112.62600708007813 68.21737670898438 115.7178192138672 77.49285888671875 118.80963134765624 89.86016845703125 118.80963134765624 101.34405517578124 114.39274597167967 106.644287109375 110.41754150390624 111.50289916992188 104.67559814453124 111.50289916992188 104.67559814453124 " />
        <polyline stroke="black" stroke-width="3" stroke-linecap="round" fill="transparent" stroke-linejoin="round" points="85.4432373046875 77.73257446289063 80.14300537109375 93.63336181640624 74.84271240234375 110.41754150390624 66.45062255859375 140.8940887451172 60.70867919921875 158.11996459960938 56.733489990234375 168.7205047607422 54.083343505859375 174.020751953125 53.199951171875 174.90414428710938 53.199951171875 174.90414428710938 " />
        <polyline stroke="black" stroke-width="3" stroke-linecap="round" fill="transparent" stroke-linejoin="round" points="93.39364624023438 130.7352294921875 104.87753295898438 136.4772186279297 115.03643798828124 142.2191619873047 119.45330810546876 144.4276123046875 125.636962890625 147.51943969726563 130.49554443359375 148.40281677246094 130.49554443359375 148.40281677246094 " />
        <polyline stroke="black" stroke-width="3" stroke-linecap="round" fill="transparent" stroke-linejoin="round" points="150.813232421875 55.64811706542969 159.205322265625 52.99797821044922 175.989501953125 48.139404296875 189.681884765625 45.047576904296875 198.073974609375 44.164207458496094 201.607421875 44.164207458496094 201.607421875 44.164207458496094 " />
        <polyline stroke="black" stroke-width="3" stroke-linecap="round" fill="transparent" stroke-linejoin="round" points="157.4385986328125 89.21647644042969 150.37152099609375 108.65080261230467 146.39633178710938 119.2513427734375 142.421142578125 131.17694091796875 136.67916870117188 150.1695556640625 131.37890625 164.74530029296875 127.4036865234375 176.22921752929688 126.07861328125 179.76272583007813 126.07861328125 179.76272583007813 " />
        <polyline stroke="black" stroke-width="3" stroke-linecap="round" fill="transparent" stroke-linejoin="round" points="157.8802490234375 126.76004028320313 163.1805419921875 123.668212890625 168.9224853515625 121.45977783203124 180.4063720703125 118.36795043945313 190.12353515625 117.92626953125 193.6571044921875 118.80963134765624 202.0491943359375 130.7352294921875 204.69927978515625 151.05294799804688 202.93255615234375 172.69570922851563 199.3990478515625 188.15481567382813 197.63226318359375 193.89678955078125 192.773681640625 202.28887939453125 189.681884765625 203.61392211914065 183.93988037109375 203.1722412109375 174.6644287109375 200.08041381835935 174.6644287109375 200.08041381835935 " />
        </svg>