<?xml version="1.0" standalone="no"?>
    <svg width="256" height="256" xmlns="http://www.w3.org/2000/svg" version="1.1">
    <polyline stroke="black" stroke-width="3" stroke-linecap="round" fill="transparent" stroke-linejoin="round" points="44 96 50 104 63 122 72 132 72 132 " />
        <polyline stroke="black" stroke-width="3" stroke-linecap="round" fill="transparent" stroke-linejoin="round" points="114 82 109 89 92 120 85 128 85 128 " />
        <polyline stroke="black" stroke-width="3" stroke-linecap="round" fill="transparent" stroke-linejoin="round" points="50 146 62 142 78 136 94 131 104 126 104 126 " />
        <polyline stroke="black" stroke-width="3" stroke-linecap="round" fill="transparent" stroke-linejoin="round" points="80 91 76 121 74 133 67 168 63 177 57 192 52 200 50 203 50 203 " />
        <polyline stroke="black" stroke-width="3" stroke-linecap="round" fill="transparent" stroke-linejoin="round" points="72 167 81 171 89 174 98 179 105 182 108 184 109 185 109 185 " />
        <polyline stroke="black" stroke-width="3" stroke-linecap="round" fill="transparent" stroke-linejoin="round" points="136 90 158 86 173 83 179 82 187 81 198 80 201 80 201 80 " />
        <polyline stroke="black" stroke-width="3" stroke-linecap="round" fill="transparent" stroke-linejoin="round" points="157 112 149 133 140 153 132 170 126 181 122 185 120 186 120 186 " />
        <polyline stroke="black" stroke-width="3" stroke-linecap="round" fill="transparent" stroke-linejoin="round" points="170 125 179 125 189 125 195 131 197 142 197 161 195 183 188 202 182 214 177 220 171 222 161 223 147 221 137 215 137 215 " />
        </svg>