<?xml version="1.0" standalone="no"?>
    <svg width="256" height="256" xmlns="http://www.w3.org/2000/svg" version="1.1">
    <polyline stroke="black" stroke-width="3" stroke-linecap="round" fill="transparent" stroke-linejoin="round" points="152.1221923828125 82.96881103515625 146.24923706054688 96.85040283203124 134.50326538085938 116.07107543945313 122.223388671875 133.1561279296875 109.94354248046876 147.0377197265625 100.33319091796876 157.1819610595703 100.33319091796876 157.1819610595703 " />
        <polyline stroke="black" stroke-width="3" stroke-linecap="round" fill="transparent" stroke-linejoin="round" points="104.60443115234376 98.9860382080078 116.35040283203124 106.4607391357422 128.63027954101563 115.53717041015624 141.97796630859375 124.61360168457033 152.6561279296875 132.0883026123047 159.596923828125 137.42738342285156 159.596923828125 137.42738342285156 " />
        <polyline stroke="black" stroke-width="3" stroke-linecap="round" fill="transparent" stroke-linejoin="round" points="77.37518310546875 113.93545532226563 65.62921142578125 155.5802459716797 63.493560791015625 169.99574279785156 64.0274658203125 184.4112548828125 68.8326416015625 198.8267517089844 78.97686767578125 207.3692626953125 96.06192016601563 214.31005859375 122.223388671875 219.115234375 140.91015625 219.64913940429688 159.06298828125 215.37786865234375 170.27508544921875 207.90316772460935 179.8853759765625 193.4876708984375 185.2244873046875 175.8687286376953 183.0888671875 162.5210418701172 183.0888671875 162.5210418701172 " />
        </svg>