<?xml version="1.0" standalone="no"?>
    <svg width="256" height="256" xmlns="http://www.w3.org/2000/svg" version="1.1">
    <polyline stroke="black" stroke-width="3" stroke-linecap="round" fill="transparent" stroke-linejoin="round" points="135.47076416015625 75.0489501953125 118.3636474609375 99.64044189453124 104.464111328125 117.28216552734376 90.5645751953125 131.71629333496094 80.94183349609375 140.2698516845703 75.59585571289063 141.33905029296875 75.59585571289063 141.33905029296875 " />
        <polyline stroke="black" stroke-width="3" stroke-linecap="round" fill="transparent" stroke-linejoin="round" points="91.6337890625 88.948486328125 101.7911376953125 100.70964050292967 113.0177001953125 114.6091766357422 124.77880859375 129.57791137695313 124.77880859375 129.57791137695313 " />
        <polyline stroke="black" stroke-width="3" stroke-linecap="round" fill="transparent" stroke-linejoin="round" points="60.092529296875 90.01768493652344 60.092529296875 125.30113220214844 60.627105712890625 153.63479614257813 62.7655029296875 173.4149169921875 67.04229736328125 189.45285034179688 73.9920654296875 202.8177795410156 85.21859741210938 212.97512817382813 103.39492797851563 220.99411010742188 129.5902099609375 222.597900390625 154.18170166015625 217.25192260742188 171.288818359375 211.371337890625 181.98077392578125 206.02536010742188 187.861328125 201.2139892578125 191.603515625 195.3334045410156 190.5343017578125 183.572265625 184.119140625 162.1883544921875 184.119140625 162.1883544921875 " />
        </svg>