<?xml version="1.0" standalone="no"?>
    <svg width="256" height="256" xmlns="http://www.w3.org/2000/svg" version="1.1">
    <polyline stroke="black" stroke-width="3" stroke-linecap="round" fill="transparent" stroke-linejoin="round" points="156.53338623046875 84.06668090820313 153.06671142578125 92.33335876464844 146.13336181640625 105.93336486816406 139.73333740234375 116.06668090820313 132.53338623046875 126.7333526611328 126.4000244140625 136.33335876464844 120.53335571289063 145.6666717529297 116.00003051757813 154.20001220703125 109.60003662109376 165.13336181640625 105.86672973632813 170.73336791992188 103.73336791992188 173.40000915527344 103.20001220703124 173.66668701171875 103.20001220703124 172.86668395996094 103.20001220703124 172.86668395996094 " />
        <polyline stroke="black" stroke-width="3" stroke-linecap="round" fill="transparent" stroke-linejoin="round" points="121.3333740234375 128.33335876464844 128.80001831054688 137.40000915527344 136 145.6666717529297 144.2667236328125 152.06668090820313 155.73333740234375 157.93336486816406 161.06671142578125 160.06668090820313 163.20001220703125 161.13336181640625 163.46673583984375 161.13336181640625 162.13336181640625 160.06668090820313 160.800048828125 159.00001525878906 160.800048828125 159.00001525878906 " />
        <polyline stroke="black" stroke-width="3" stroke-linecap="round" fill="transparent" stroke-linejoin="round" points="75.20001220703125 103.8000030517578 75.20001220703125 106.20001220703124 75.20001220703125 111.8000030517578 75.73336791992188 117.66667175292967 75.73336791992188 123.53335571289063 76.2667236328125 129.40000915527344 77.60003662109375 139.2666778564453 78.13336181640625 143.00001525878906 79.46673583984375 154.73336791992188 80.53335571289063 162.20001220703125 81.60003662109375 172.60000610351563 82.13336181640625 178.4666748046875 82.933349609375 182.73336791992188 83.73336791992188 185.13336181640625 84.80001831054688 186.4666748046875 87.73336791992188 187.80001831054688 91.46673583984376 188.6000061035156 97.06671142578124 188.6000061035156 104.80001831054688 188.6000061035156 114.4000244140625 187.80001831054688 129.60003662109375 187.53335571289065 137.60003662109375 187.53335571289065 143.46673583984375 188.06668090820313 147.20001220703125 188.06668090820313 152 187 155.46673583984375 184.86666870117188 159.20001220703125 182.73336791992188 162.666748046875 181.4000244140625 166.933349609375 180.06668090820313 168 179.80001831054688 168.2667236328125 179.80001831054688 168.53338623046875 179.80001831054688 168.53338623046875 179.53335571289063 168.53338623046875 178.4666748046875 168.800048828125 176.06668090820313 169.60003662109375 168.06668090820313 170.66668701171875 153.93336486816406 170.66668701171875 153.13336181640625 170.66668701171875 153.13336181640625 " />
        </svg>