<?xml version="1.0" standalone="no"?>
    <svg width="256" height="256" xmlns="http://www.w3.org/2000/svg" version="1.1">
    <polyline stroke="black" stroke-width="3" stroke-linecap="round" fill="transparent" stroke-linejoin="round" points="134.72625732421875 85.74966430664063 131.82730102539063 91.9098663330078 122.04348754882813 107.85392761230467 110.81015014648438 120.89909362792967 102.47573852539063 133.21949768066406 88.70587158203125 147.35174560546875 76.74783325195313 156.41090393066406 71.31234741210938 161.4840087890625 71.31234741210938 161.4840087890625 " />
        <polyline stroke="black" stroke-width="3" stroke-linecap="round" fill="transparent" stroke-linejoin="round" points="102.838134765625 96.2582550048828 115.15853881835938 106.04212951660156 127.84133911132813 114.37652587890624 141.97354125976563 129.23348999023438 150.3079833984375 137.93023681640625 153.56927490234375 141.19154357910156 155.01873779296875 149.5259246826172 155.01873779296875 149.5259246826172 " />
        <polyline stroke="black" stroke-width="3" stroke-linecap="round" fill="transparent" stroke-linejoin="round" points="60.80377197265625 100.24424743652344 61.528472900390625 111.83993530273438 63.702667236328125 137.56788635253906 64.78976440429688 160.0345458984375 65.51449584960938 175.2538604736328 66.60159301757813 185.40008544921875 68.05108642578125 190.47320556640625 70.94998168945313 194.82159423828125 78.55966186523438 202.79360961914065 85.80694580078125 208.953857421875 94.50372314453124 213.66455078125 102.838134765625 218.37530517578125 113.34671020507813 222.72369384765625 127.1165771484375 226.34735107421875 138.34991455078125 227.07208251953125 151.7574462890625 223.810791015625 169.15093994140625 212.9398193359375 176.035888671875 201.70651245117188 180.74664306640625 190.11083984375 183.283203125 178.87750244140625 184.0079345703125 166.55712890625 182.92083740234375 158.94744873046875 182.92083740234375 158.94744873046875 " />
        </svg>