<?xml version="1.0" standalone="no"?>
    <svg width="256" height="256" xmlns="http://www.w3.org/2000/svg" version="1.1">
    <polyline stroke="black" stroke-width="3" stroke-linecap="round" fill="transparent" stroke-linejoin="round" points="147.43081665039063 50.55564880371094 135.16885375976563 67.33517456054688 118.38934326171876 89.92298889160156 105.48202514648438 104.7664031982422 94.51080322265624 115.09225463867188 87.41177368164063 120.90055847167967 81.60345458984375 124.12738037109376 79.02200317382813 122.83665466308594 79.02200317382813 115.09225463867188 79.02200317382813 115.09225463867188 " />
        <polyline stroke="black" stroke-width="3" stroke-linecap="round" fill="transparent" stroke-linejoin="round" points="93.86541748046876 93.79518127441406 104.836669921875 102.83030700683594 119.6800537109375 113.15615844726563 136.4595947265625 122.1912841796875 150.65765380859375 130.58103942871094 150.65765380859375 130.58103942871094 " />
        <polyline stroke="black" stroke-width="3" stroke-linecap="round" fill="transparent" stroke-linejoin="round" points="67.40542602539063 76.37030029296875 64.823974609375 91.21371459960938 62.24249267578125 111.22006225585938 62.24249267578125 140.26153564453125 64.1785888671875 160.9132537841797 69.34152221679688 179.6288604736328 77.08590698242188 191.89080810546875 91.28396606445313 201.57131958007813 113.22640991210938 208.67034912109375 136.4595947265625 210.6064453125 159.04742431640625 210.6064453125 175.1815185546875 208.02496337890625 185.5074462890625 202.86203002929688 192.6064453125 194.4722900390625 197.7694091796875 177.0474090576172 193.2518310546875 156.39569091796875 193.2518310546875 156.39569091796875 " />
        </svg>