<?xml version="1.0" standalone="no"?>
    <svg width="256" height="256" xmlns="http://www.w3.org/2000/svg" version="1.1">
    <polyline stroke="black" stroke-width="3" stroke-linecap="round" fill="transparent" stroke-linejoin="round" points="132.888916015625 80.66667175292969 127.5555419921875 93.11111450195313 105.33331298828124 130.44447326660156 98.22222900390624 142.00001525878906 79.5555419921875 164.22222900390625 73.3333740234375 167.7777862548828 68.88897705078125 168.6666717529297 68.88897705078125 168.6666717529297 " />
        <polyline stroke="black" stroke-width="3" stroke-linecap="round" fill="transparent" stroke-linejoin="round" points="115.11114501953124 110.88890075683594 127.5555419921875 119.7777862548828 138.22222900390625 126.00003051757813 147.11114501953125 130.44447326660156 147.11114501953125 130.44447326660156 " />
        <polyline stroke="black" stroke-width="3" stroke-linecap="round" fill="transparent" stroke-linejoin="round" points="56.4444580078125 104.66667175292967 59.11114501953125 132.22222900390625 60.888916015625 151.7777862548828 63.5555419921875 170.44447326660156 66.22222900390625 174 71.5555419921875 177.55555725097656 82.2222900390625 180.22222900390625 99.11114501953124 178.44444274902344 116.888916015625 174 141.77777099609375 168.6666717529297 156.888916015625 166.88888549804688 170.22222900390625 166.00003051757813 180.00006103515625 164.22222900390625 185.33331298828125 162.44444274902344 188.888916015625 160.6666717529297 189.77777099609375 154.44444274902344 183.5555419921875 143.77780151367188 175.55560302734375 135.7777862548828 175.55560302734375 135.7777862548828 " />
        </svg>