<?xml version="1.0" standalone="no"?>
    <svg width="256" height="256" xmlns="http://www.w3.org/2000/svg" version="1.1">
    <polyline stroke="black" stroke-width="3" stroke-linecap="round" fill="transparent" stroke-linejoin="round" points="130.5745849609375 74.08354187011719 120.417236328125 88.51768493652344 101.706298828125 110.97077941894533 87.27215576171875 125.93951416015624 74.9764404296875 137.70066833496094 64.81906127929688 144.11582946777344 59.47308349609375 144.11582946777344 59.47308349609375 144.11582946777344 " />
        <polyline stroke="black" stroke-width="3" stroke-linecap="round" fill="transparent" stroke-linejoin="round" points="79.78778076171875 93.86366271972656 91.5489501953125 102.95181274414063 106.5177001953125 113.64376831054688 120.417236328125 123.80113220214844 132.17837524414063 132.8892822265625 132.17837524414063 132.8892822265625 " />
        <polyline stroke="black" stroke-width="3" stroke-linecap="round" fill="transparent" stroke-linejoin="round" points="61.611480712890625 91.190673828125 47.177337646484375 130.7509002685547 41.83135986328125 153.20399475097656 41.2967529296875 172.4495086669922 42.90057373046875 187.41824340820313 47.711944580078125 200.24859619140625 56.2655029296875 207.73294067382813 75.51101684570313 214.6827087402344 100.6370849609375 216.82110595703125 124.159423828125 216.2865295410156 144.47412109375 214.6827087402344 161.046630859375 212.00973510742188 170.134765625 208.26754760742188 175.48077392578125 202.386962890625 179.22296142578125 182.60687255859375 174.9461669921875 161.22296142578125 167.99639892578125 144.6504364013672 167.99639892578125 144.6504364013672 " />
        </svg>