<?xml version="1.0" standalone="no"?>
    <svg width="256" height="256" xmlns="http://www.w3.org/2000/svg" version="1.1">
    <polyline stroke="black" stroke-width="3" stroke-linecap="round" fill="transparent" stroke-linejoin="round" points="79.86834716796876 103.02339172363284 96.759033203125 96.8269500732422 113.64971923828124 90.63050842285156 132.51254272460938 86.07936096191406 162.05810546875 79.24444580078125 169.95501708984375 78.08345031738281 174.2998046875 77.44546508789063 174.4852294921875 77.40982055664063 174.500244140625 77.40693664550781 174.5030517578125 77.40640258789063 " />
        <polyline stroke="black" stroke-width="3" stroke-linecap="round" fill="transparent" stroke-linejoin="round" points="136.73196411132813 43.1087646484375 135.912109375 58.86895751953125 135.09225463867188 74.629150390625 123.37579345703124 106.97152709960938 114.66281127929688 141.1600341796875 110.31146240234376 157.64755249023438 96.53634643554688 194.23080444335935 85.82174682617188 212.9090576171875 65.78646850585938 235.55172729492188 59.33856201171875 240.05499267578125 56.748992919921875 240.67257690429688 " />
        <polyline stroke="black" stroke-width="3" stroke-linecap="round" fill="transparent" stroke-linejoin="round" points="102.17272949218751 127.23629760742188 99.16769409179688 133.54367065429688 96.16265869140624 139.85104370117188 91.7548828125 147.14292907714844 79.59933471679688 159.6995849609375 70.80770874023438 165.75674438476563 68.52865600585938 166.62399291992188 " />
        <polyline stroke="black" stroke-width="3" stroke-linecap="round" fill="transparent" stroke-linejoin="round" points="69.22576904296876 124.32069396972656 80.389404296875 130.68972778320313 91.55303955078124 137.0587615966797 112.92962646484376 155.16677856445313 132.18133544921875 168.93478393554688 165.3878173828125 194.41290283203125 190.4781494140625 215.162841796875 197.8011474609375 221.59820556640625 209.0802001953125 231.18902587890625 211.45330810546875 232.8851623535156 212.2244873046875 233.68121337890625 212.2314453125 233.68841552734375 " />
        </svg>