<?xml version="1.0" standalone="no"?>
    <svg width="256" height="256" xmlns="http://www.w3.org/2000/svg" version="1.1">
    <polyline stroke="black" stroke-width="3" stroke-linecap="round" fill="transparent" stroke-linejoin="round" points="66.06671142578125 118.66667175292967 99.1334228515625 102.66667175292967 113.00006103515624 97.33334350585938 137.533447265625 89.86669921875 153.533447265625 86.66667175292969 158.86669921875 85.60000610351563 159.933349609375 85.60000610351563 159.933349609375 85.60000610351563 " />
        <polyline stroke="black" stroke-width="3" stroke-linecap="round" fill="transparent" stroke-linejoin="round" points="127.93341064453124 51.46668243408203 122.60003662109376 74.93333435058594 116.2000732421875 109.06668090820313 107.666748046875 143.20001220703125 91.666748046875 185.86666870117188 83.1334228515625 202.933349609375 74.60003662109375 210.40005493164065 68.2000732421875 211.4666748046875 68.2000732421875 211.4666748046875 " />
        <polyline stroke="black" stroke-width="3" stroke-linecap="round" fill="transparent" stroke-linejoin="round" points="97.00006103515624 118.66667175292967 89.53338623046875 146.40003967285156 85.2667236328125 154.93336486816406 73.53338623046875 160.26669311523438 70.3333740234375 160.26669311523438 70.3333740234375 160.26669311523438 " />
        <polyline stroke="black" stroke-width="3" stroke-linecap="round" fill="transparent" stroke-linejoin="round" points="67.1334228515625 115.4666748046875 89.53338623046875 135.73338317871094 119.4000244140625 156.00001525878906 151.4000244140625 172.00001525878906 179.1334228515625 182.66668701171875 210.0667724609375 192.2666931152344 226.0667724609375 195.4666748046875 226.0667724609375 195.4666748046875 " />
        </svg>