<?xml version="1.0" standalone="no"?>
    <svg width="256" height="256" xmlns="http://www.w3.org/2000/svg" version="1.1">
    <polyline stroke="black" stroke-width="3" stroke-linecap="round" fill="transparent" stroke-linejoin="round" points="59.86895751953125 79.57394409179688 57.770599365234375 92.58360290527344 59.029632568359375 100.13760375976563 59.86895751953125 103.49493408203124 61.547607421875 108.11126708984376 63.64593505859375 111.04893493652344 64.90496826171875 111.88827514648438 64.90496826171875 111.88827514648438 " />
        <polyline stroke="black" stroke-width="3" stroke-linecap="round" fill="transparent" stroke-linejoin="round" points="80.012939453125 84.60993957519531 81.27194213867188 98.03927612304688 81.69158935546875 101.39659118652344 82.11126708984375 103.9145965576172 82.11126708984375 107.69158935546876 82.11126708984375 109.37026977539063 81.69158935546875 109.37026977539063 81.27194213867188 108.95059204101563 80.4326171875 107.69158935546876 80.4326171875 104.3342742919922 82.95062255859375 98.87858581542967 88.40625 92.1639404296875 100.99627685546876 82.51161193847656 115.6845703125 74.53794860839844 130.37289428710938 69.501953125 140.44491577148438 66.98394775390625 147.15960693359375 67.40361022949219 151.356201171875 70.34127807617188 154.29388427734375 79.15426635742188 154.29388427734375 93.00326538085938 150.09725952148438 106.012939453125 144.221923828125 114.825927734375 137.50726318359375 119.8619384765625 134.9892578125 121.54058837890624 134.9892578125 121.54058837890624 " />
        <polyline stroke="black" stroke-width="3" stroke-linecap="round" fill="transparent" stroke-linejoin="round" points="120.7205810546875 46.4202880859375 116.52392578125 67.40361022949219 114.84521484375 77.47561645507813 112.74691772460938 87.547607421875 111.0682373046875 98.45895385742188 108.13058471679688 116.92425537109376 106.87158203125 132.45193481445313 107.291259765625 143.36325073242188 110.22894287109376 149.6582489013672 110.22894287109376 149.6582489013672 " />
        <polyline stroke="black" stroke-width="3" stroke-linecap="round" fill="transparent" stroke-linejoin="round" points="191.64422607421875 77.47561645507813 176.1165771484375 93.42294311523438 167.3035888671875 103.49493408203124 147.9989013671875 127.41593933105467 147.9989013671875 127.41593933105467 " />
        <polyline stroke="black" stroke-width="3" stroke-linecap="round" fill="transparent" stroke-linejoin="round" points="80.012939453125 166.86456298828125 94.70126342773438 163.5072479248047 101.41595458984376 162.24822998046875 107.7109375 160.56956481933594 120.7205810546875 157.21224975585938 136.24822998046875 153.01556396484375 142.12353515625 152.17623901367188 144.221923828125 152.59591674804688 144.221923828125 152.59591674804688 " />
        <polyline stroke="black" stroke-width="3" stroke-linecap="round" fill="transparent" stroke-linejoin="round" points="66.1639404296875 207.57223510742188 80.012939453125 202.95590209960935 87.986572265625 200.8575439453125 97.21923828125 198.75921630859375 105.61260986328124 196.660888671875 114.84521484375 194.56256103515625 132.47125244140625 190.36590576171875 146.73992919921875 188.68722534179688 153.45458984375 190.36590576171875 153.45458984375 190.36590576171875 " />
        </svg>