<?xml version="1.0" standalone="no"?>
    <svg width="256" height="256" xmlns="http://www.w3.org/2000/svg" version="1.1">
    <polyline stroke="black" stroke-width="3" stroke-linecap="round" fill="transparent" stroke-linejoin="round" points="86 113 88 126 90 131 92 139 96 147 98 150 99 151 99 151 " />
        <polyline stroke="black" stroke-width="3" stroke-linecap="round" fill="transparent" stroke-linejoin="round" points="110 104 112 116 113 119 115 127 116 131 118 134 118 134 " />
        <polyline stroke="black" stroke-width="3" stroke-linecap="round" fill="transparent" stroke-linejoin="round" points="114 109 124 106 129 105 140 102 150 100 162 98 165 97 167 97 168 97 169 97 170 98 170 100 171 103 171 110 171 118 171 124 171 126 169 125 165 123 155 117 154 115 154 115 " />
        <polyline stroke="black" stroke-width="3" stroke-linecap="round" fill="transparent" stroke-linejoin="round" points="196 91 196 103 192 117 186 126 185 126 185 126 " />
        <polyline stroke="black" stroke-width="3" stroke-linecap="round" fill="transparent" stroke-linejoin="round" points="139 55 142 68 142 70 143 77 143 85 144 96 144 107 144 121 144 140 145 151 145 159 145 165 145 169 145 170 145 170 " />
        <polyline stroke="black" stroke-width="3" stroke-linecap="round" fill="transparent" stroke-linejoin="round" points="119 177 130 175 138 173 147 171 156 170 164 169 171 169 172 169 168 171 168 171 " />
        <polyline stroke="black" stroke-width="3" stroke-linecap="round" fill="transparent" stroke-linejoin="round" points="92 213 104 210 115 207 130 204 154 201 171 199 185 199 195 199 201 199 204 199 204 200 204 201 204 202 204 202 " />
        </svg>