<?xml version="1.0" standalone="no"?>
    <svg width="256" height="256" xmlns="http://www.w3.org/2000/svg" version="1.1">
    <polyline stroke="black" stroke-width="3" stroke-linecap="round" fill="transparent" stroke-linejoin="round" points="57.76336669921875 108.08993530273438 61.89385986328125 118.8292236328125 63.54608154296875 120.89447021484376 65.1982421875 122.5466766357422 69.7418212890625 125.4380340576172 75.93759155273438 126.26412963867188 75.93759155273438 126.26412963867188 " />
        <polyline stroke="black" stroke-width="3" stroke-linecap="round" fill="transparent" stroke-linejoin="round" points="92.87265014648438 85.78520202636719 96.590087890625 105.6116180419922 98.24227905273438 114.2856903076172 98.65533447265624 117.59007263183594 99.068359375 120.068359375 99.068359375 122.13363647460938 99.068359375 124.19889831542967 98.24227905273438 124.61192321777344 97.41619873046876 123.78582763671876 97.8292236328125 120.48143005371094 100.30755615234376 113.45956420898438 106.91635131835938 104.78550720214844 116.00341796875 95.69842529296876 127.98190307617188 87.43740844726563 138.72119140625 82.48080444335938 146.56918334960938 81.65469360351563 151.9388427734375 85.37216186523438 157.3084716796875 100.24197387695313 158.547607421875 119.6553192138672 156.48236083984375 132.87295532226563 153.177978515625 137.00344848632813 151.11273193359375 137.41648864746094 151.11273193359375 137.41648864746094 " />
        <polyline stroke="black" stroke-width="3" stroke-linecap="round" fill="transparent" stroke-linejoin="round" points="132.9384765625 51.50202941894531 133.3515625 80.00250244140625 134.17767333984375 97.35061645507813 135.00375366210938 113.45956420898438 135.829833984375 127.50328063964844 137.48202514648438 149.8079833984375 138.30816650390625 156.829833984375 139.13424682617188 163.85171508789063 139.96038818359375 165.09085083007813 139.96038818359375 165.09085083007813 " />
        <polyline stroke="black" stroke-width="3" stroke-linecap="round" fill="transparent" stroke-linejoin="round" points="194.4830322265625 87.02436828613281 189.939453125 101.06805419921876 182.09149169921875 120.068359375 170.93914794921875 139.894775390625 164.330322265625 150.63409423828125 157.3084716796875 161.37339782714844 157.3084716796875 161.37339782714844 " />
        <polyline stroke="black" stroke-width="3" stroke-linecap="round" fill="transparent" stroke-linejoin="round" points="106.09027099609376 192.7652282714844 125.9166259765625 185.330322265625 134.17767333984375 182.43896484375 142.02560424804688 179.96066284179688 150.28662109375 177.48236083984375 157.3084716796875 175.83016967773438 167.63470458984375 174.59100341796875 172.17828369140625 176.65625 172.17828369140625 176.65625 " />
        <polyline stroke="black" stroke-width="3" stroke-linecap="round" fill="transparent" stroke-linejoin="round" points="80.48114013671875 225.80923461914065 96.590087890625 219.200439453125 107.329345703125 216.30908203125 119.72088623046876 213.00469970703125 143.67782592773438 208.048095703125 155.24322509765625 205.98284912109375 177.1348876953125 205.15673828125 197.787353515625 211.35247802734375 197.787353515625 211.35247802734375 " />
        </svg>