<?xml version="1.0" standalone="no"?>
    <svg width="256" height="256" xmlns="http://www.w3.org/2000/svg" version="1.1">
    <polyline stroke="black" stroke-width="3" stroke-linecap="round" fill="transparent" stroke-linejoin="round" points="47.94189453125 72.87399291992188 49.70867919921875 90.5415496826172 50.592041015625 96.28350830078124 52.35882568359375 101.58377075195313 56.333984375 112.18431091308594 60.75091552734375 119.69302368164063 60.75091552734375 119.69302368164063 " />
        <polyline stroke="black" stroke-width="3" stroke-linecap="round" fill="transparent" stroke-linejoin="round" points="86.36883544921875 70.66554260253906 85.4854736328125 83.47451782226563 85.04379272460938 89.65817260742188 85.04379272460938 94.95843505859376 84.160400390625 106.00067138671876 83.71871948242188 109.9758758544922 83.27703857421875 112.62600708007813 82.39364624023438 116.15951538085938 82.39364624023438 117.04289245605467 82.39364624023438 116.15951538085938 84.60211181640625 110.41754150390624 90.78573608398438 98.491943359375 98.73617553710938 87.00802612304688 106.6865234375 77.73257446289063 116.4036865234375 69.34048461914063 125.67916870117188 63.5985107421875 130.09603881835938 61.39007568359375 142.02166748046875 58.73994445800781 148.64697265625 61.39007568359375 153.947265625 67.13203430175781 158.80584716796875 77.73257446289063 161.0142822265625 89.21647644042969 160.5726318359375 99.8170166015625 157.0390625 109.53416442871094 151.297119140625 116.15951538085938 147.32196044921875 118.80963134765624 147.32196044921875 118.80963134765624 " />
        <polyline stroke="black" stroke-width="3" stroke-linecap="round" fill="transparent" stroke-linejoin="round" points="124.35409545898438 30.471847534179688 124.35409545898438 46.8143310546875 122.14569091796876 66.2486572265625 120.820556640625 78.17425537109375 118.17047119140624 102.02548217773438 117.28707885742188 112.18431091308594 115.96200561523438 131.61862182617188 115.52032470703124 147.9611053466797 115.52032470703124 157.6782684326172 116.4036865234375 162.09515380859375 118.17047119140624 162.97854614257813 118.17047119140624 162.97854614257813 " />
        <polyline stroke="black" stroke-width="3" stroke-linecap="round" fill="transparent" stroke-linejoin="round" points="207.3916015625 58.298248291015625 197.67449951171875 73.75736999511719 191.93255615234375 81.707763671875 170.289794921875 110.41754150390624 142.02166748046875 142.2191619873047 142.02166748046875 142.2191619873047 " />
        <polyline stroke="black" stroke-width="3" stroke-linecap="round" fill="transparent" stroke-linejoin="round" points="70.468017578125 184.62130737304688 85.4854736328125 178.43765258789063 93.43588256835938 175.3458251953125 103.15301513671876 171.37063598632813 121.26229858398438 164.74530029296875 145.996826171875 158.11996459960938 153.06390380859375 156.3531951904297 159.24755859375 155.46983337402344 167.6396484375 155.02813720703125 172.0565185546875 155.02813720703125 172.0565185546875 155.02813720703125 " />
        <polyline stroke="black" stroke-width="3" stroke-linecap="round" fill="transparent" stroke-linejoin="round" points="59.42584228515625 204.93899536132813 71.35140991210938 201.40548706054688 78.41845703125 200.08041381835935 86.810546875 198.75537109375 105.36151123046876 196.54690551757813 135.8380126953125 195.22183227539065 158.3641357421875 195.22183227539065 186.1905517578125 195.22183227539065 186.1905517578125 195.22183227539065 " />
        </svg>