<?xml version="1.0" standalone="no"?>
    <svg width="256" height="256" xmlns="http://www.w3.org/2000/svg" version="1.1">
    <polyline stroke="black" stroke-width="3" stroke-linecap="round" fill="transparent" stroke-linejoin="round" points="58.36297607421875 81.60626220703125 60.394775390625 84.45083618164063 62.020263671875 86.88902282714844 66.89666748046875 93.390869140625 69.7412109375 96.6417999267578 69.7412109375 96.6417999267578 " />
        <polyline stroke="black" stroke-width="3" stroke-linecap="round" fill="transparent" stroke-linejoin="round" points="109.15869140625 70.63438415527344 105.09506225585938 77.5426025390625 100.2186279296875 86.07627868652344 95.34225463867188 95.01632690429688 90.46588134765624 103.95639038085938 76.6494140625 130.7765350341797 67.30303955078125 149.46934509277344 59.58209228515625 165.72396850585938 52.673828125 181.16587829589844 47.39111328125 192.54412841796875 44.14019775390625 198.23321533203125 36.82562255859375 210.017822265625 36.82562255859375 210.017822265625 " />
        <polyline stroke="black" stroke-width="3" stroke-linecap="round" fill="transparent" stroke-linejoin="round" points="51.86114501953125 131.18289184570313 57.143890380859375 134.43382263183594 62.8330078125 138.09109497070313 68.928466796875 142.15475463867188 75.43035888671875 146.62478637695313 87.62130737304688 155.158447265625 98.18682861328124 162.87942504882813 104.68865966796876 166.53671264648438 104.68865966796876 166.53671264648438 " />
        <polyline stroke="black" stroke-width="3" stroke-linecap="round" fill="transparent" stroke-linejoin="round" points="138.01068115234375 45.43971252441406 148.1697998046875 44.626976013183594 153.85894775390625 44.220603942871094 164.830810546875 44.220603942871094 173.364501953125 45.03334045410156 178.647216796875 45.8460693359375 181.08544921875 46.65880584716797 181.4918212890625 46.65880584716797 181.898193359375 47.877899169921875 180.272705078125 51.941558837890625 175.3963623046875 58.03704833984375 169.30084228515625 66.16436767578125 164.01806640625 72.25985717773438 160.7672119140625 77.5426025390625 158.7353515625 82.41899108886719 159.1417236328125 89.32722473144531 161.17352294921875 102.33091735839844 164.4244384765625 119.39828491210938 166.8626708984375 136.46563720703125 168.08172607421875 151.50115966796875 167.6754150390625 163.692138671875 166.456298828125 173.03855895996094 165.2371826171875 176.6958465576172 160.7672119140625 184.82318115234375 160.7672119140625 184.82318115234375 " />
        <polyline stroke="black" stroke-width="3" stroke-linecap="round" fill="transparent" stroke-linejoin="round" points="131.10247802734375 137.6847381591797 133.947021484375 140.1229248046875 141.2615966796875 145.4056854248047 146.95068359375 147.8438720703125 146.95068359375 147.8438720703125 " />
        <polyline stroke="black" stroke-width="3" stroke-linecap="round" fill="transparent" stroke-linejoin="round" points="209.12469482421875 119.80465698242188 194.4954833984375 136.05926513671875 174.98992919921875 156.78392028808594 174.98992919921875 156.78392028808594 " />
        <polyline stroke="black" stroke-width="3" stroke-linecap="round" fill="transparent" stroke-linejoin="round" points="125.81967163085938 200.26507568359375 138.01068115234375 197.01412963867188 162.392578125 192.95050048828125 172.1453857421875 191.73138427734375 191.24456787109375 190.51226806640625 209.531005859375 190.51226806640625 225.78564453125 190.51226806640625 225.78564453125 190.51226806640625 " />
        </svg>