<?xml version="1.0" standalone="no"?>
    <svg width="256" height="256" xmlns="http://www.w3.org/2000/svg" version="1.1">
    <polyline stroke="black" stroke-width="3" stroke-linecap="round" fill="transparent" stroke-linejoin="round" points="57.36785888671875 83.85855102539063 60.453033447265625 89.00051879882813 63.5382080078125 93.11410522460938 68.16598510742188 94.14250183105467 68.16598510742188 94.14250183105467 " />
        <polyline stroke="black" stroke-width="3" stroke-linecap="round" fill="transparent" stroke-linejoin="round" points="104.1597900390625 57.634490966796875 98.50360107421876 77.17398071289063 83.07769775390625 121.39494323730467 68.16598510742188 160.98812866210938 59.9388427734375 174.8714599609375 50.68328857421875 187.72637939453125 41.427734375 195.95355224609375 37.828338623046875 199.03872680664065 37.828338623046875 199.03872680664065 " />
        <polyline stroke="black" stroke-width="3" stroke-linecap="round" fill="transparent" stroke-linejoin="round" points="55.82525634765625 147.1048126220703 65.080810546875 156.8745574951172 78.44992065429688 169.7294921875 92.84744262695313 182.0702209472656 92.84744262695313 182.0702209472656 " />
        <polyline stroke="black" stroke-width="3" stroke-linecap="round" fill="transparent" stroke-linejoin="round" points="144.7813720703125 101.3412628173828 154.03692626953125 97.22767639160156 163.806640625 93.11410522460938 171.5196533203125 90.02891540527344 175.6331787109375 89.00051879882813 177.69000244140625 89.00051879882813 174.60479736328125 95.17088317871094 165.86346435546875 111.6251983642578 158.6646728515625 130.1363067626953 156.09368896484375 148.64739990234375 157.63629150390625 167.67269897460938 161.2357177734375 183.61282348632813 162.2640380859375 193.382568359375 161.7498779296875 198.5245361328125 157.63629150390625 199.55291748046875 157.63629150390625 199.55291748046875 " />
        <polyline stroke="black" stroke-width="3" stroke-linecap="round" fill="transparent" stroke-linejoin="round" points="129.86962890625 141.44863891601563 129.86962890625 141.44863891601563 " />
        <polyline stroke="black" stroke-width="3" stroke-linecap="round" fill="transparent" stroke-linejoin="round" points="198.25787353515625 119.85235595703124 192.0875244140625 135.2782745361328 176.14739990234375 166.64430236816406 165.3492431640625 183.61282348632813 165.3492431640625 183.61282348632813 " />
        <polyline stroke="black" stroke-width="3" stroke-linecap="round" fill="transparent" stroke-linejoin="round" points="116.50051879882813 208.8084716796875 133.46902465820313 198.5245361328125 159.17889404296875 186.697998046875 175.6331787109375 182.0702209472656 190.03076171875 180.5276336669922 200.828857421875 182.58441162109375 200.828857421875 182.58441162109375 " />
        </svg>