<?xml version="1.0" standalone="no"?>
    <svg width="256" height="256" xmlns="http://www.w3.org/2000/svg" version="1.1">
    <polyline stroke="black" stroke-width="3" stroke-linecap="round" fill="transparent" stroke-linejoin="round" points="40.262176513671875 92.25985717773438 47.211944580078125 86.91389465332031 55.7655029296875 82.63710021972656 68.06124877929688 76.75653076171875 82.49539184570313 69.8067626953125 96.92950439453124 62.85699462890625 108.690673828125 57.511016845703125 115.64044189453124 54.303436279296875 118.8480224609375 52.69963836669922 118.8480224609375 52.69963836669922 " />
        <polyline stroke="black" stroke-width="3" stroke-linecap="round" fill="transparent" stroke-linejoin="round" points="80.8916015625 77.82572937011719 77.1494140625 87.448486328125 69.13043212890625 110.97077941894533 58.97308349609375 139.30445861816406 50.419525146484375 162.2921600341797 43.469757080078125 179.39927673339844 38.65838623046875 191.69503784179688 35.985382080078125 197.5755920410156 35.985382080078125 195.9718017578125 40.7967529296875 186.34906005859375 40.7967529296875 186.34906005859375 " />
        <polyline stroke="black" stroke-width="3" stroke-linecap="round" fill="transparent" stroke-linejoin="round" points="57.369293212890625 149.9964141845703 68.06124877929688 141.97744750976563 76.61480712890625 135.56227111816406 85.16839599609375 129.1470947265625 94.7911376953125 124.8703155517578 101.206298828125 124.8703155517578 105.48309326171876 129.68170166015625 107.6214599609375 139.83905029296875 105.48309326171876 154.8077850341797 101.206298828125 167.6381378173828 95.86032104492188 177.26089477539063 89.979736328125 183.67605590820313 80.35699462890625 187.41824340820313 74.4764404296875 184.74526977539065 74.4764404296875 184.74526977539065 " />
        <polyline stroke="black" stroke-width="3" stroke-linecap="round" fill="transparent" stroke-linejoin="round" points="122.05560302734376 64.99539184570313 131.14376831054688 74.61814880371094 133.8167724609375 81.56791687011719 137.02435302734375 87.98307800292969 141.3011474609375 92.79446411132813 147.18170166015625 95.46745300292967 158.40826416015625 89.58688354492188 158.40826416015625 89.58688354492188 " />
        <polyline stroke="black" stroke-width="3" stroke-linecap="round" fill="transparent" stroke-linejoin="round" points="210.26422119140625 37.19630432128906 211.3333740234375 46.28446960449219 206.52203369140625 55.9072265625 196.8992919921875 68.73756408691406 183.5343017578125 82.63710021972656 170.16943359375 94.93284606933594 157.8736572265625 104.02101135253906 147.71630859375 110.43618774414063 141.83572387695313 113.64376831054688 137.5589599609375 115.24755859375 135.95513916015625 116.31675720214844 137.02435302734375 116.31675720214844 142.37030029296875 115.24755859375 158.40826416015625 110.97077941894533 180.3267822265625 104.02101135253906 202.2452392578125 97.6058349609375 218.8177490234375 92.25985717773438 226.8367919921875 89.05227661132813 230.57891845703125 87.448486328125 230.57891845703125 87.448486328125 " />
        <polyline stroke="black" stroke-width="3" stroke-linecap="round" fill="transparent" stroke-linejoin="round" points="171.773193359375 25.435157775878903 170.16943359375 44.68067169189453 164.82342529296875 70.87596130371094 157.8736572265625 98.14044189453124 149.85467529296875 121.12814331054688 140.23193359375 144.11582946777344 131.67837524414063 161.75755310058594 123.12481689453124 177.26089477539063 117.77880859375 186.88363647460935 115.1058349609375 192.2296142578125 115.1058349609375 192.2296142578125 " />
        <polyline stroke="black" stroke-width="3" stroke-linecap="round" fill="transparent" stroke-linejoin="round" points="154.1314697265625 122.73193359375 169.1002197265625 124.8703155517578 180.3267822265625 129.68170166015625 193.69171142578125 136.0968780517578 208.1258544921875 144.6504364013672 221.49078369140625 152.13479614257813 227.90594482421875 157.48077392578125 232.1827392578125 162.82675170898438 232.1827392578125 162.82675170898438 " />
        <polyline stroke="black" stroke-width="3" stroke-linecap="round" fill="transparent" stroke-linejoin="round" points="154.1314697265625 155.34239196777344 151.45849609375 168.7073211669922 151.45849609375 178.86468505859375 151.45849609375 190.0912170410156 151.45849609375 200.78317260742188 151.45849609375 207.1983642578125 150.3892822265625 208.8021545410156 150.3892822265625 208.8021545410156 " />
        <polyline stroke="black" stroke-width="3" stroke-linecap="round" fill="transparent" stroke-linejoin="round" points="147.18170166015625 155.87698364257813 155.20068359375 152.66940307617188 163.2196044921875 151.0655975341797 172.8424072265625 150.531005859375 182.46514892578125 152.13479614257813 189.94952392578125 154.8077850341797 194.7608642578125 158.015380859375 197.43389892578125 163.36134338378906 197.968505859375 171.38031005859375 192.087890625 184.21066284179688 182.46514892578125 194.90261840820313 169.1002197265625 203.4561767578125 161.08123779296875 206.66375732421875 156.26983642578125 208.26754760742188 154.1314697265625 208.26754760742188 154.1314697265625 208.26754760742188 156.26983642578125 208.26754760742188 161.08123779296875 207.1983642578125 166.42724609375 205.59457397460935 173.376953125 204.52536010742188 182.46514892578125 206.129150390625 182.46514892578125 206.129150390625 " />
        </svg>