<?xml version="1.0" standalone="no"?>
    <svg width="256" height="256" xmlns="http://www.w3.org/2000/svg" version="1.1">
    <polyline stroke="black" stroke-width="3" stroke-linecap="round" fill="transparent" stroke-linejoin="round" points="83.471923828125 79.09532165527344 95.19989013671876 75.74447631835938 108.1844482421875 72.39361572265625 134.15353393554688 66.948486328125 157.190673828125 62.759918212890625 175.201416015625 59.40907287597656 186.09173583984375 56.89593505859375 189.8614501953125 55.22051239013672 189.8614501953125 55.22051239013672 " />
        <polyline stroke="black" stroke-width="3" stroke-linecap="round" fill="transparent" stroke-linejoin="round" points="104.83358764648438 59.40907287597656 96.87533569335938 74.90675354003906 87.66049194335938 93.75527954101563 78.02679443359375 111.76609802246094 61.69140625 143.18032836914063 55.827392578125 154.07058715820313 47.869140625 166.2174072265625 46.1937255859375 169.1494140625 45.77490234375 170.8248291015625 45.77490234375 170.8248291015625 " />
        <polyline stroke="black" stroke-width="3" stroke-linecap="round" fill="transparent" stroke-linejoin="round" points="123.26327514648438 95.4307098388672 144.62493896484375 96.2684326171875 167.66204833984375 98.78155517578124 185.6728515625 101.29470825195313 197.8197021484375 102.55126953125 197.8197021484375 102.55126953125 " />
        <polyline stroke="black" stroke-width="3" stroke-linecap="round" fill="transparent" stroke-linejoin="round" points="74.67596435546875 157.84030151367188 76.35137939453125 162.44772338867188 78.44564819335938 166.2174072265625 101.901611328125 176.68882751464844 118.65585327148438 173.33798217773438 131.22152709960938 166.6362762451172 142.11181640625 156.16485595703125 145.462646484375 152.39517211914063 145.462646484375 152.39517211914063 " />
        <polyline stroke="black" stroke-width="3" stroke-linecap="round" fill="transparent" stroke-linejoin="round" points="152.583251953125 136.47862243652344 153.4208984375 139.82949829101563 153.83978271484375 142.761474609375 153.0020751953125 145.69346618652344 153.0020751953125 145.69346618652344 " />
        <polyline stroke="black" stroke-width="3" stroke-linecap="round" fill="transparent" stroke-linejoin="round" points="116.98043823242188 147.78775024414063 115.723876953125 163.70428466796875 113.62957763671876 177.94540405273438 111.116455078125 190.5111083984375 105.67132568359376 207.6842041015625 101.48275756835938 217.73675537109375 101.48275756835938 217.73675537109375 " />
        </svg>