<?xml version="1.0" standalone="no"?>
    <svg width="256" height="256" xmlns="http://www.w3.org/2000/svg" version="1.1">
    <polyline stroke="black" stroke-width="3" stroke-linecap="round" fill="transparent" stroke-linejoin="round" points="60 62 80 62 103 62 128 62 150 57 165 53 176 50 180 47 180 47 " />
        <polyline stroke="black" stroke-width="3" stroke-linecap="round" fill="transparent" stroke-linejoin="round" points="123 38 110 64 92 92 76 112 62 127 54 136 52 141 52 141 " />
        <polyline stroke="black" stroke-width="3" stroke-linecap="round" fill="transparent" stroke-linejoin="round" points="137 87 153 95 168 105 183 115 195 122 201 126 201 126 " />
        <polyline stroke="black" stroke-width="3" stroke-linecap="round" fill="transparent" stroke-linejoin="round" points="80 141 75 141 75 143 75 150 75 156 75 160 75 164 77 165 78 166 83 166 95 166 114 166 132 165 150 163 162 162 173 160 181 156 183 154 183 154 " />
        <polyline stroke="black" stroke-width="3" stroke-linecap="round" fill="transparent" stroke-linejoin="round" points="175 127 175 131 175 143 175 152 175 155 175 155 " />
        <polyline stroke="black" stroke-width="3" stroke-linecap="round" fill="transparent" stroke-linejoin="round" points="127 122 130 128 134 148 135 171 134 193 123 216 106 234 88 249 88 249 " />
        </svg>