<?xml version="1.0" standalone="no"?>
    <svg width="256" height="256" xmlns="http://www.w3.org/2000/svg" version="1.1">
    <polyline stroke="black" stroke-width="3" stroke-linecap="round" fill="transparent" stroke-linejoin="round" points="94.4468994140625 44.10198974609375 107.99957275390624 49.91028594970703 112.51715087890624 54.42784118652344 113.807861328125 59.59077453613281 112.51715087890624 66.04443359375 106.7088623046875 73.78883361816406 106.7088623046875 73.78883361816406 " />
        <polyline stroke="black" stroke-width="3" stroke-linecap="round" fill="transparent" stroke-linejoin="round" points="51.85272216796875 93.79518127441406 61.533203125 89.92298889160156 75.73126220703125 85.40542602539063 92.51080322265624 79.59712219238281 117.6800537109375 73.14346313476563 134.4595947265625 67.98052978515625 148.01226806640625 64.75370788574219 155.75665283203125 63.46296691894531 158.338134765625 64.75370788574219 158.338134765625 64.75370788574219 " />
        <polyline stroke="black" stroke-width="3" stroke-linecap="round" fill="transparent" stroke-linejoin="round" points="55.079559326171875 129.29031372070313 76.37664794921875 127.35421752929688 90.57470703125 124.12738037109376 107.35421752929688 118.96446228027344 120.90692138671876 112.5107879638672 131.23275756835938 103.47567749023438 131.23275756835938 103.47567749023438 " />
        <polyline stroke="black" stroke-width="3" stroke-linecap="round" fill="transparent" stroke-linejoin="round" points="106.0634765625 76.37030029296875 99.60980224609376 89.27761840820313 91.22006225585938 109.92933654785156 83.47567749023438 130.58103942871094 77.6673583984375 147.36056518554688 71.85906982421875 160.26788330078125 67.98687744140625 168.0122833251953 64.76007080078125 173.17520141601563 64.11468505859375 173.17520141601563 64.11468505859375 173.17520141601563 " />
        <polyline stroke="black" stroke-width="3" stroke-linecap="round" fill="transparent" stroke-linejoin="round" points="94.4468994140625 138.325439453125 108.64495849609376 137.03469848632813 126.06982421875 134.4532470703125 144.14007568359375 131.8717803955078 159.62884521484375 128.6449432373047 169.9547119140625 126.70884704589844 169.9547119140625 126.70884704589844 " />
        <polyline stroke="black" stroke-width="3" stroke-linecap="round" fill="transparent" stroke-linejoin="round" points="66.6961669921875 171.8844757080078 77.02200317382813 169.94837951660156 89.9293212890625 167.36691284179688 104.12738037109376 162.84934997558594 118.325439453125 156.39569091796875 129.29666137695313 149.94203186035156 135.10494995117188 146.71519470214844 135.10494995117188 145.42446899414063 131.87811279296875 147.36056518554688 122.1976318359375 153.16885375976563 107.99957275390624 163.49472045898438 95.09225463867188 173.82057189941406 84.12103271484375 184.79180908203125 73.795166015625 197.6991271972656 67.34152221679688 208.67034912109375 63.46929931640625 215.76937866210935 62.1785888671875 221.57766723632813 62.1785888671875 221.57766723632813 " />
        <polyline stroke="black" stroke-width="3" stroke-linecap="round" fill="transparent" stroke-linejoin="round" points="114.4532470703125 180.27423095703125 118.9708251953125 198.344482421875 123.48837280273438 210.6064453125 129.9420166015625 221.57766723632813 138.9771728515625 229.32205200195313 150.59375 233.83963012695313 160.27423095703125 233.83963012695313 168.01861572265625 229.9674072265625 173.826904296875 220.93228149414065 177.0537109375 203.5074157714844 175.7630615234375 191.24545288085935 175.7630615234375 191.24545288085935 " />
        </svg>