<?xml version="1.0" standalone="no"?>
    <svg width="256" height="256" xmlns="http://www.w3.org/2000/svg" version="1.1">
    <polyline stroke="black" stroke-width="3" stroke-linecap="round" fill="transparent" stroke-linejoin="round" points="117.92782592773438 36.18040466308594 130.17010498046875 44.74999237060547 133.8427734375 49.03478240966797 133.8427734375 53.319580078125 129.5579833984375 60.66493225097656 129.5579833984375 60.66493225097656 " />
        <polyline stroke="black" stroke-width="3" stroke-linecap="round" fill="transparent" stroke-linejoin="round" points="51.20745849609375 86.37370300292969 70.79510498046875 77.19200134277344 94.055419921875 69.84663391113281 124.0489501953125 63.72550964355469 149.14559936523438 60.66493225097656 168.73321533203125 59.440704345703125 182.81182861328125 58.21649169921875 190.1572265625 58.21649169921875 193.2177734375 58.21649169921875 193.2177734375 58.21649169921875 " />
        <polyline stroke="black" stroke-width="3" stroke-linecap="round" fill="transparent" stroke-linejoin="round" points="67.12240600585938 115.1430206298828 80.58892822265625 111.47035217285156 102.625 105.96133422851563 126.49740600585938 100.45230102539063 149.75772094726563 96.77963256835938 165.67266845703125 93.71905517578124 177.30279541015625 91.88272094726563 183.4239501953125 86.98580932617188 183.4239501953125 86.98580932617188 " />
        <polyline stroke="black" stroke-width="3" stroke-linecap="round" fill="transparent" stroke-linejoin="round" points="119.76416015625 74.13143920898438 113.03091430664063 86.98580932617188 105.685546875 105.96133422851563 94.055419921875 135.3427734375 86.71002197265625 151.25772094726563 79.976806640625 163.49998474121094 76.30410766601563 169.62110900878906 76.30410766601563 169.62110900878906 " />
        <polyline stroke="black" stroke-width="3" stroke-linecap="round" fill="transparent" stroke-linejoin="round" points="101.4007568359375 122.48838806152344 119.76416015625 122.48838806152344 149.14559936523438 123.71261596679688 166.2847900390625 124.93684387207033 180.9754638671875 125.5489501953125 191.38140869140625 127.3852996826172 191.38140869140625 127.3852996826172 " />
        <polyline stroke="black" stroke-width="3" stroke-linecap="round" fill="transparent" stroke-linejoin="round" points="76.30410766601563 166.560546875 94.66751098632813 162.8878631591797 116.70361328125 157.37884521484375 137.51544189453125 150.0334930419922 154.04248046875 145.13658142089844 165.67266845703125 142.68812561035156 170.569580078125 142.68812561035156 168.73321533203125 143.3002471923828 156.490966796875 146.97291564941406 142.412353515625 152.48194885253906 131.39431762695313 156.1546173095703 122.82470703125 159.82730102539063 108.13400268554688 169.62110900878906 94.055419921875 186.14816284179688 80.58892822265625 200.83889770507813 73.2435302734375 209.40847778320313 67.12240600585938 216.1417236328125 64.06182861328125 218.59017944335935 65.898193359375 216.75384521484375 65.898193359375 216.75384521484375 " />
        <polyline stroke="black" stroke-width="3" stroke-linecap="round" fill="transparent" stroke-linejoin="round" points="123.43682861328124 164.72421264648438 123.43682861328124 178.8028106689453 125.273193359375 187.37240600585935 128.94586181640625 197.16622924804688 135.67910766601563 208.79635620117188 144.86080932617188 218.59017944335935 154.65460205078125 225.32342529296875 163.8363037109375 228.38400268554688 172.4058837890625 225.32342529296875 180.3634033203125 213.6932678222656 185.8724365234375 197.7783203125 186.4844970703125 188.59661865234375 184.03607177734375 182.4754943847656 184.03607177734375 182.4754943847656 " />
        </svg>