<?xml version="1.0" standalone="no"?>
    <svg width="256" height="256" xmlns="http://www.w3.org/2000/svg" version="1.1">
    <polyline stroke="black" stroke-width="3" stroke-linecap="round" fill="transparent" stroke-linejoin="round" points="74.4432373046875 99.8170166015625 98.29443359375 90.5415496826172 118.61215209960938 84.79959106445313 130.09603881835938 82.14945983886719 152.1805419921875 77.73257446289063 162.33935546875 76.40750122070313 178.24017333984375 74.19905090332031 190.607421875 73.315673828125 196.7911376953125 73.75736999511719 196.7911376953125 73.75736999511719 " />
        <polyline stroke="black" stroke-width="3" stroke-linecap="round" fill="transparent" stroke-linejoin="round" points="96.96942138671876 116.15951538085938 94.31927490234376 128.96849060058594 92.11083984375 139.5690155029297 90.34405517578124 151.49462890625 88.13558959960938 163.86192321777344 86.36883544921875 173.13739013671875 84.60211181640625 185.50469970703125 84.160400390625 193.01339721679688 85.4854736328125 197.4302978515625 89.90234375 199.197021484375 103.5947265625 199.63873291015625 122.14569091796876 198.31365966796875 141.13827514648438 194.7801513671875 157.4808349609375 189.4798889160156 172.49822998046875 182.412841796875 172.49822998046875 182.412841796875 " />
        <polyline stroke="black" stroke-width="3" stroke-linecap="round" fill="transparent" stroke-linejoin="round" points="170.289794921875 111.30094909667967 168.081298828125 128.52682495117188 167.6396484375 137.80227661132813 167.19793701171875 148.844482421875 168.081298828125 181.0877990722656 168.081298828125 205.38067626953125 168.081298828125 205.38067626953125 " />
        </svg>