<?xml version="1.0" standalone="no"?>
    <svg width="256" height="256" xmlns="http://www.w3.org/2000/svg" version="1.1">
    <polyline stroke="black" stroke-width="3" stroke-linecap="round" fill="transparent" stroke-linejoin="round" points="86.31130981445313 66.26521301269531 92.25152587890624 83.75588989257813 93.901611328125 89.69610595703125 100.50189208984376 111.8069305419922 101.82186889648438 114.447021484375 104.7919921875 119.06721496582033 106.112060546875 120.0572509765625 106.112060546875 120.0572509765625 " />
        <polyline stroke="black" stroke-width="3" stroke-linecap="round" fill="transparent" stroke-linejoin="round" points="134.8231201171875 58.34492492675781 128.55288696289063 81.44580078125 103.14193725585938 157.01864624023438 98.1917724609375 169.55908203125 86.31130981445313 196.6201171875 75.09091186523438 214.77078247070313 66.840576171875 223.0210876464844 66.840576171875 223.0210876464844 66.840576171875 223.0210876464844 " />
        <polyline stroke="black" stroke-width="3" stroke-linecap="round" fill="transparent" stroke-linejoin="round" points="67.83062744140625 146.45823669433594 76.41091918945313 141.50804138183594 81.36111450195313 139.19796752929688 113.70233154296876 123.02734375 120.63259887695313 120.0572509765625 140.433349609375 112.46696472167967 156.60400390625 111.1469268798828 168.484375 117.08714294433594 176.73468017578125 133.2577362060547 179.704833984375 159.32870483398438 178.384765625 184.40966796875 175.08465576171875 201.24029541015625 170.4644775390625 209.16058349609375 165.18426513671875 213.1207275390625 157.92401123046875 215.100830078125 145.05349731445313 211.470703125 132.84304809570313 205.200439453125 132.84304809570313 205.200439453125 132.84304809570313 205.200439453125 " />
        </svg>