<?xml version="1.0" standalone="no"?>
    <svg width="256" height="256" xmlns="http://www.w3.org/2000/svg" version="1.1">
    <polyline stroke="black" stroke-width="3" stroke-linecap="round" fill="transparent" stroke-linejoin="round" points="94 100 95.25 101.25 96.5 102.5 97.75 106.25 99 107.5 100.25 108.75 100.25 106.25 101.5 101.25 101.5 101.25 " />
        <polyline stroke="black" stroke-width="3" stroke-linecap="round" fill="transparent" stroke-linejoin="round" points="144 50 140.25 65 136.5 80 130.25 100 124 123.75 116.5 146.25 105.25 173.75 96.5 188.75 91.5 195 80.25 208.75 80.25 208.75 " />
        <polyline stroke="black" stroke-width="3" stroke-linecap="round" fill="transparent" stroke-linejoin="round" points="61.5 163.75 82.75 148.75 104 133.75 127.75 120 159 105 174 97.5 184 93.75 189 91.25 189 92.5 189 93.75 187.75 97.5 187.75 100 187.75 102.5 187.75 106.25 187.75 111.25 186.5 117.5 182.75 133.75 180.25 150 177.75 165 172.75 180 169 192.5 162.75 202.5 155.25 215 150.25 221.25 145.25 222.5 136.5 221.25 129 215 119 202.5 114 193.75 114 193.75 " />
        </svg>