<?xml version="1.0" standalone="no"?>
    <svg width="256" height="256" xmlns="http://www.w3.org/2000/svg" version="1.1">
    <polyline stroke="black" stroke-width="3" stroke-linecap="round" fill="transparent" stroke-linejoin="round" points="113.8017578125 56.64710998535156 104.96005249023438 69.90969848632813 90.81332397460938 91.1298370361328 63.4039306640625 131.35971069335938 45.720458984375 155.2323455810547 35.552490234375 170.26327514648438 32.899993896484375 173.7999725341797 31.13165283203125 176.01040649414063 31.13165283203125 176.01040649414063 " />
        <polyline stroke="black" stroke-width="3" stroke-linecap="round" fill="transparent" stroke-linejoin="round" points="127.94857788085938 66.81509399414063 142.09530639648438 69.46760559082031 159.336669921875 73.88847351074219 178.34637451171875 79.19351196289063 194.70355224609375 84.49853515625 205.31365966796875 88.47732543945313 210.1766357421875 90.687744140625 210.1766357421875 90.687744140625 " />
        <polyline stroke="black" stroke-width="3" stroke-linecap="round" fill="transparent" stroke-linejoin="round" points="130.60107421875 118.09710693359376 128.83270263671875 124.28630065917967 120.87518310546876 145.94854736328125 111.59130859375 163.18988037109375 100.5391845703125 177.33665466308594 90.81332397460938 187.504638671875 81.08740234375 195.0201110839844 74.45611572265625 199.44097900390625 70.91940307617188 200.76724243164065 70.477294921875 200.32513427734375 76.66650390625 197.23052978515625 97.444580078125 188.38882446289065 124.85394287109376 179.9891815185547 150.49496459960938 175.126220703125 172.5992431640625 173.7999725341797 192.4931640625 174.6841278076172 201.3348388671875 175.56829833984375 201.3348388671875 175.56829833984375 " />
        </svg>