<?xml version="1.0" standalone="no"?>
    <svg width="256" height="256" xmlns="http://www.w3.org/2000/svg" version="1.1">
    <polyline stroke="black" stroke-width="3" stroke-linecap="round" fill="transparent" stroke-linejoin="round" points="101.792236328125 67.80015563964844 91.86907958984376 98.25173950195313 84.857421875 118.537109375 67.17196655273438 165.0458221435547 59.38690185546875 183.6397399902344 52.0618896484375 198.09649658203125 42.924560546875 210.03665161132813 41.909912109375 209.48895263671875 43.996337890625 204.9276123046875 " />
        <polyline stroke="black" stroke-width="3" stroke-linecap="round" fill="transparent" stroke-linejoin="round" points="115.558349609375 70.29200744628906 123.080322265625 81.78350830078125 131.82846069335938 95.10635375976563 142.06915283203125 110.234130859375 160.8128662109375 134.73936462402344 169.7412109375 145.15802001953125 182.18634033203125 162.1990966796875 197.94482421875 174.33250427246094 210.72576904296875 181.96121215820313 220.70989990234375 189.82034301757813 234.28021240234375 195.643310546875 244.28704833984375 199.02926635742188 241.50701904296875 197.0885009765625 " />
        <polyline stroke="black" stroke-width="3" stroke-linecap="round" fill="transparent" stroke-linejoin="round" points="112.83163452148438 145.05624389648438 113.85009765625 153.26870727539063 115.49005126953124 169.215087890625 115.935546875 174.841796875 116.16729736328124 181.97048950195313 115.55062866210938 185.44183349609375 113.08834838867188 189.9337158203125 112.91220092773438 190.255126953125 " />
        <polyline stroke="black" stroke-width="3" stroke-linecap="round" fill="transparent" stroke-linejoin="round" points="100.97177124023438 197.75296020507813 107.67623901367188 196.26507568359375 114.6019287109375 195.06759643554688 126.418701171875 194.03155517578125 130.98922729492188 194.32769775390625 138.990966796875 196.7227478027344 142.85784912109375 200.8270263671875 143.13433837890625 201.12054443359375 " />
        </svg>