<?xml version="1.0" standalone="no"?>
    <svg width="256" height="256" xmlns="http://www.w3.org/2000/svg" version="1.1">
    <polyline stroke="black" stroke-width="3" stroke-linecap="round" fill="transparent" stroke-linejoin="round" points="116.23287963867188 90.31890869140624 106.18035888671876 105.39773559570313 85.6563720703125 133.4611053466797 68.06439208984375 155.24163818359375 55.079833984375 168.64505004882813 46.28387451171875 175.3467254638672 42.93304443359375 176.60330200195313 42.93304443359375 176.60330200195313 " />
        <polyline stroke="black" stroke-width="3" stroke-linecap="round" fill="transparent" stroke-linejoin="round" points="141.78314208984375 93.66976928710938 150.99798583984375 94.92634582519533 159.7939453125 96.18292236328124 168.5899658203125 97.43948364257813 199.16644287109375 103.72233581542967 212.1510009765625 107.07316589355467 220.528076171875 109.16744995117188 224.29779052734375 110.0051727294922 224.29779052734375 110.0051727294922 " />
        <polyline stroke="black" stroke-width="3" stroke-linecap="round" fill="transparent" stroke-linejoin="round" points="140.94540405273438 148.9587860107422 140.52655029296875 155.24163818359375 139.68881225585938 162.3621826171875 136.7568359375 175.76559448242188 130.892822265625 187.49359130859375 126.70428466796876 192.51983642578125 121.677978515625 197.546142578125 101.154052734375 210.94952392578125 93.6146240234375 213.88153076171875 90.6826171875 214.71923828125 90.2637939453125 214.30035400390625 93.19580078125 212.20608520507813 117.070556640625 203.8289794921875 139.26995849609375 199.2215576171875 161.050537109375 197.546142578125 171.9407958984375 197.546142578125 190.3704833984375 200.05926513671875 199.16644287109375 202.5723876953125 199.16644287109375 202.5723876953125 " />
        </svg>