<?xml version="1.0" standalone="no"?>
    <svg width="256" height="256" xmlns="http://www.w3.org/2000/svg" version="1.1">
    <polyline stroke="black" stroke-width="3" stroke-linecap="round" fill="transparent" stroke-linejoin="round" points="113.25375366210938 68.78054809570313 100.29705810546876 80.03240966796875 74.3836669921875 106.62771606445313 53.925750732421875 130.83624267578125 46.765472412109375 140.38328552246094 41.31005859375 147.884521484375 41.31005859375 147.884521484375 " />
        <polyline stroke="black" stroke-width="3" stroke-linecap="round" fill="transparent" stroke-linejoin="round" points="121.4368896484375 70.82633972167969 137.4622802734375 73.89503479003906 148.0322265625 77.3046875 159.2840576171875 82.07820129394531 183.151611328125 94.35295104980467 205.31439208984375 107.99156188964844 222.70367431640625 121.28923034667967 234.637451171875 133.22300720214844 234.637451171875 133.22300720214844 " />
        <polyline stroke="black" stroke-width="3" stroke-linecap="round" fill="transparent" stroke-linejoin="round" points="120.75497436523438 136.63265991210938 124.505615234375 151.6351318359375 127.23333740234376 166.6376190185547 126.5513916015625 179.59429931640625 125.86947631835938 183.0039520263672 125.86947631835938 183.0039520263672 " />
        <polyline stroke="black" stroke-width="3" stroke-linecap="round" fill="transparent" stroke-linejoin="round" points="76.77044677734375 189.82327270507813 85.63555908203125 185.04974365234375 103.0247802734375 178.23043823242188 111.20794677734376 176.18466186523438 129.62008666992188 173.11595153808594 147.69125366210938 172.0930633544922 166.1033935546875 173.45693969726563 166.1033935546875 173.45693969726563 " />
        </svg>