<?xml version="1.0" standalone="no"?>
    <svg width="256" height="256" xmlns="http://www.w3.org/2000/svg" version="1.1">
    <polyline stroke="black" stroke-width="3" stroke-linecap="round" fill="transparent" stroke-linejoin="round" points="41.7969970703125 81.70529174804688 41.293060302734375 90.27203369140624 41.7969970703125 103.37411499023438 42.3009033203125 120.50759887695313 43.30877685546875 132.60182189941406 44.316619873046875 142.17642211914063 44.316619873046875 146.7117462158203 44.316619873046875 146.7117462158203 44.316619873046875 142.6803436279297 44.316619873046875 142.6803436279297 " />
        <polyline stroke="black" stroke-width="3" stroke-linecap="round" fill="transparent" stroke-linejoin="round" points="44.820556640625 92.79167175292967 55.402984619140625 86.74455261230469 63.4658203125 83.72099304199219 72.53646850585938 80.69744873046875 83.62286376953125 79.68959045410156 92.69351196289063 80.69744873046875 100.25241088867188 83.72099304199219 105.29168701171876 89.26419067382813 108.81915283203124 101.35841369628906 107.811279296875 116.4761962890625 103.7799072265625 128.0664825439453 98.74063110351563 135.1214599609375 89.66995239257813 140.66464233398438 79.5914306640625 142.17642211914063 72.53646850585938 136.63323974609375 72.53646850585938 136.63323974609375 " />
        <polyline stroke="black" stroke-width="3" stroke-linecap="round" fill="transparent" stroke-linejoin="round" points="55.402984619140625 41.89513397216797 59.43438720703125 49.95795440673828 61.450103759765625 60.5404052734375 62.961883544921875 80.69744873046875 64.97760009765625 104.3819580078125 65.98544311523438 127.0586395263672 66.9932861328125 151.75100708007813 66.4893798828125 176.44338989257813 63.9697265625 196.09649658203125 59.938323974609375 209.7025146484375 59.43438720703125 214.74176025390625 59.43438720703125 214.74176025390625 " />
        <polyline stroke="black" stroke-width="3" stroke-linecap="round" fill="transparent" stroke-linejoin="round" points="112.34661865234376 84.22492980957031 119.905517578125 77.67388916015625 125.95263671875 75.15425109863281 135.0233154296875 72.13070678710938 148.1253662109375 69.61106872558594 163.7470703125 69.61106872558594 177.35308837890625 72.63462829589844 187.935546875 78.17781066894531 193.478759765625 84.22492980957031 199.02191162109375 97.32699584960938 200.53369140625 114.96441650390624 196.5023193359375 131.0900421142578 191.9669189453125 140.1607208251953 187.935546875 145.19998168945313 181.888427734375 147.7196044921875 169.794189453125 146.20782470703125 169.794189453125 146.20782470703125 " />
        <polyline stroke="black" stroke-width="3" stroke-linecap="round" fill="transparent" stroke-linejoin="round" points="129.98403930664063 77.16995239257813 129.98403930664063 85.73670959472656 130.48797607421875 93.29559326171876 130.99188232421875 105.38981628417967 131.49581909179688 123.53115844726563 131.999755859375 146.20782470703125 131.999755859375 165.86094665527344 131.999755859375 181.4826507568359 131.49581909179688 194.080810546875 130.99188232421875 202.6475524902344 130.48797607421875 208.69464111328125 129.4801025390625 213.73391723632813 129.4801025390625 213.73391723632813 " />
        </svg>