<?xml version="1.0" standalone="no"?>
    <svg width="256" height="256" xmlns="http://www.w3.org/2000/svg" version="1.1">
    <polyline stroke="black" stroke-width="3" stroke-linecap="round" fill="transparent" stroke-linejoin="round" points="51.4444580078125 98.22224426269533 65.66665649414063 111.55558776855467 71.88888549804688 112.44444274902344 79.88888549804688 111.55558776855467 91.4444580078125 106.22222900390624 91.4444580078125 106.22222900390624 " />
        <polyline stroke="black" stroke-width="3" stroke-linecap="round" fill="transparent" stroke-linejoin="round" points="107.4444580078125 75.11111450195313 84.33334350585938 114.22224426269533 84.33334350585938 114.22224426269533 " />
        <polyline stroke="black" stroke-width="3" stroke-linecap="round" fill="transparent" stroke-linejoin="round" points="56.77777099609375 150.6666717529297 74.55557250976563 133.77780151367188 93.22222900390624 120.44447326660156 108.3333740234375 109.7777862548828 116.33334350585938 103.55555725097656 119.88888549804688 99.11111450195313 119.88888549804688 93.77780151367188 119.88888549804688 93.77780151367188 " />
        <polyline stroke="black" stroke-width="3" stroke-linecap="round" fill="transparent" stroke-linejoin="round" points="86.11114501953125 55.555572509765625 87 100 89.66665649414063 120.44447326660156 95.00003051757813 158.6666717529297 102.11111450195313 191.5555725097656 107.4444580078125 213.77780151367188 110.11111450195313 222.66668701171875 107.4444580078125 218.2222595214844 105.66665649414063 212.88888549804688 105.66665649414063 212.88888549804688 " />
        <polyline stroke="black" stroke-width="3" stroke-linecap="round" fill="transparent" stroke-linejoin="round" points="85.22222900390625 119.55555725097656 80.77777099609375 136.4444580078125 79 145.33334350585938 73.66665649414063 164 64.77777099609375 188 60.333343505859375 197.77777099609375 59.444488525390625 199.5555725097656 58.555572509765625 196.88888549804688 58.555572509765625 196.88888549804688 " />
        <polyline stroke="black" stroke-width="3" stroke-linecap="round" fill="transparent" stroke-linejoin="round" points="84.33334350585938 145.33334350585938 106.55557250976563 156.88888549804688 115.4444580078125 162.22222900390625 126.11114501953124 164 126.11114501953124 164 " />
        <polyline stroke="black" stroke-width="3" stroke-linecap="round" fill="transparent" stroke-linejoin="round" points="144.77777099609375 76.88888549804688 144.77777099609375 100.88890075683594 146.55557250976563 137.3333282470703 150.11111450195313 153.3333282470703 151.88888549804688 160.44447326660156 152.77780151367188 163.11111450195313 154.55557250976563 157.7777862548828 154.55557250976563 157.7777862548828 " />
        <polyline stroke="black" stroke-width="3" stroke-linecap="round" fill="transparent" stroke-linejoin="round" points="152.77780151367188 105.33334350585938 173.22222900390625 96.4444580078125 175.88888549804688 96.4444580078125 176.77777099609375 96.4444580078125 176.77777099609375 96.4444580078125 " />
        <polyline stroke="black" stroke-width="3" stroke-linecap="round" fill="transparent" stroke-linejoin="round" points="150.11111450195313 128.44444274902344 167.88888549804688 119.55555725097656 175 115.11111450195313 185.66665649414065 109.7777862548828 189.22222900390625 106.22222900390624 189.22222900390625 106.22222900390624 " />
        <polyline stroke="black" stroke-width="3" stroke-linecap="round" fill="transparent" stroke-linejoin="round" points="176.77777099609375 33.333351135253906 177.66665649414063 58.22222900390625 183 101.7777862548828 194.5555725097656 146.22222900390625 206.11111450195313 185.33334350585935 218.5555419921875 222.66668701171875 221.22222900390625 232.4444580078125 222.11114501953125 234.22222900390625 222.11114501953125 234.22222900390625 " />
        </svg>