<?xml version="1.0" standalone="no"?>
    <svg width="256" height="256" xmlns="http://www.w3.org/2000/svg" version="1.1">
    <polyline stroke="black" stroke-width="3" stroke-linecap="round" fill="transparent" stroke-linejoin="round" points="117.36325073242188 66.14462280273438 109.80926513671876 75.79693603515625 100.99627685546876 86.70826721191406 90.50457763671876 99.71794128417967 69.94091796875 124.89793395996094 50.21661376953125 145.46157836914063 43.082275390625 152.17623901367188 40.98394775390625 153.8549041748047 39.305267333984375 154.69424438476563 39.305267333984375 154.69424438476563 " />
        <polyline stroke="black" stroke-width="3" stroke-linecap="round" fill="transparent" stroke-linejoin="round" points="142.962890625 78.31494140625 160.5888671875 84.19027709960938 179.05419921875 90.90495300292967 187.02789306640625 93.84260559082033 200.45721435546875 99.29826354980467 213.4669189453125 105.173583984375 218.08319091796875 108.11126708984376 218.08319091796875 108.11126708984376 " />
        <polyline stroke="black" stroke-width="3" stroke-linecap="round" fill="transparent" stroke-linejoin="round" points="135.82858276367188 132.45193481445313 135.40890502929688 141.6845703125 134.9892578125 184.91021728515625 133.310546875 200.4378967285156 130.79257202148438 208.83123779296875 128.27459716796875 212.18853759765625 124.49755859375 213.02789306640625 121.55990600585938 211.76889038085935 121.55990600585938 211.76889038085935 " />
        <polyline stroke="black" stroke-width="3" stroke-linecap="round" fill="transparent" stroke-linejoin="round" points="81.69158935546875 164.7662353515625 87.14727783203125 167.7039031982422 93.4422607421875 170.64157104492188 114.00595092773438 173.9989013671875 122.81893920898438 172.3202362060547 132.89093017578125 168.54324340820313 132.89093017578125 168.54324340820313 " />
        <polyline stroke="black" stroke-width="3" stroke-linecap="round" fill="transparent" stroke-linejoin="round" points="184.5098876953125 141.6845703125 179.8935546875 148.81890869140625 167.3035888671875 169.80223083496094 161.008544921875 181.5529022216797 161.008544921875 181.5529022216797 " />
        </svg>