<?xml version="1.0" standalone="no"?>
    <svg width="256" height="256" xmlns="http://www.w3.org/2000/svg" version="1.1">
    <polyline stroke="black" stroke-width="3" stroke-linecap="round" fill="transparent" stroke-linejoin="round" points="99.58285522460938 69.67868041992188 97.16448974609376 79.10568237304688 88.48898315429688 100.31675720214844 83.56307983398438 109.58580017089844 71.34957885742188 129.60568237304688 63.8048095703125 139.96319580078125 48.83056640625 155.15989685058594 49.69989013671875 152.60379028320313 " />
        <polyline stroke="black" stroke-width="3" stroke-linecap="round" fill="transparent" stroke-linejoin="round" points="123.65826416015624 65.31401062011719 144.21920776367188 72.17538452148438 164.17138671875 82.67192077636719 182.494140625 98.044921875 191.858154296875 105.26904296875 208.9097900390625 118.75924682617188 213.7122802734375 122.47573852539063 217.817138671875 125.63914489746094 217.33319091796875 126.8177490234375 217.295654296875 126.90911865234376 " />
        <polyline stroke="black" stroke-width="3" stroke-linecap="round" fill="transparent" stroke-linejoin="round" points="126.018798828125 140.13833618164063 126.92965698242188 155.56822204589844 127.798828125 169.55284118652344 128.10888671875 193.24652099609375 128.06649780273438 199.94024658203125 127.90878295898438 203.24923706054688 127.33087158203124 206.229248046875 126.39706420898438 206.84722900390625 126.31317138671876 206.87652587890625 118.24212646484376 207.30133056640625 112.0858154296875 206.78399658203125 106.46551513671876 204.34991455078125 105.79400634765624 203.6685485839844 " />
        <polyline stroke="black" stroke-width="3" stroke-linecap="round" fill="transparent" stroke-linejoin="round" points="81.91488647460938 177.80206298828125 87.92355346679688 176.52740478515625 89.15509033203125 176.23092651367188 " />
        <polyline stroke="black" stroke-width="3" stroke-linecap="round" fill="transparent" stroke-linejoin="round" points="169.748779296875 141.86753845214844 163.514404296875 150.43341064453125 146.62265014648438 164.50926208496094 143.10906982421875 176.8735809326172 142.75765991210938 178.1100311279297 " />
        </svg>