<?xml version="1.0" standalone="no"?>
    <svg width="256" height="256" xmlns="http://www.w3.org/2000/svg" version="1.1">
    <polyline stroke="black" stroke-width="3" stroke-linecap="round" fill="transparent" stroke-linejoin="round" points="132.157470703125 80.70272827148438 116.11602783203124 104.39402770996094 106.94949340820313 117.76812744140624 87.08868408203125 149.48387145996094 77.92214965820313 164.38648986816406 61.880706787109375 185.4029541015625 56.151641845703125 190.75259399414065 53.09613037109375 193.0453186035156 52.332244873046875 193.0453186035156 52.332244873046875 193.0453186035156 " />
        <polyline stroke="black" stroke-width="3" stroke-linecap="round" fill="transparent" stroke-linejoin="round" points="131.7755126953125 105.54035949707033 145.52529907226563 108.21519470214844 173.4068603515625 110.88999938964844 185.2469482421875 111.27210998535156 197.0870361328125 110.88999938964844 216.1839599609375 110.1257781982422 221.9130859375 110.1257781982422 225.732421875 110.1257781982422 225.732421875 110.1257781982422 " />
        <polyline stroke="black" stroke-width="3" stroke-linecap="round" fill="transparent" stroke-linejoin="round" points="137.88653564453125 142.60577392578125 137.88653564453125 171.26458740234375 137.88653564453125 185.02084350585935 137.50457763671875 196.86648559570313 135.59490966796875 216.3544921875 135.21295166015625 222.4683532714844 134.4490966796875 227.81802368164065 134.067138671875 228.20013427734375 131.7755126953125 226.28955078125 128.33804321289063 221.7041015625 123.75479125976563 214.061767578125 123.75479125976563 214.061767578125 " />
        <polyline stroke="black" stroke-width="3" stroke-linecap="round" fill="transparent" stroke-linejoin="round" points="103.51202392578124 179.2890625 110.0050048828125 183.49237060546875 118.40765380859376 189.22412109375 120.31732177734376 190.3704833984375 122.60897827148438 191.13473510742188 122.60897827148438 191.13473510742188 " />
        <polyline stroke="black" stroke-width="3" stroke-linecap="round" fill="transparent" stroke-linejoin="round" points="170.7332763671875 142.60577392578125 163.85833740234375 153.30506896972656 151.25439453125 173.55731201171875 144.37948608398438 183.49237060546875 137.12265014648438 193.42742919921875 137.12265014648438 193.42742919921875 " />
        </svg>