<?xml version="1.0" standalone="no"?>
    <svg width="256" height="256" xmlns="http://www.w3.org/2000/svg" version="1.1">
    <polyline stroke="black" stroke-width="3" stroke-linecap="round" fill="transparent" stroke-linejoin="round" points="138.11654663085938 34.984886169433594 130.158935546875 45.594940185546875 119.54891967773438 58.8575439453125 93.4658203125 88.91940307617188 68.708984375 116.77085876464844 51.90966796875 135.33847045898438 43.51007080078125 145.06436157226563 42.183807373046875 146.83270263671875 42.183807373046875 146.83270263671875 " />
        <polyline stroke="black" stroke-width="3" stroke-linecap="round" fill="transparent" stroke-linejoin="round" points="163.3154296875 40.2899169921875 173.925537109375 41.616172790527344 184.53558349609375 44.26869201660156 196.02978515625 47.805381774902344 216.3658447265625 57.089202880859375 224.76544189453125 61.9521484375 238.02801513671875 71.2359619140625 244.6593017578125 77.86724853515625 244.6593017578125 77.86724853515625 " />
        <polyline stroke="black" stroke-width="3" stroke-linecap="round" fill="transparent" stroke-linejoin="round" points="159.77874755859375 119.86544799804688 158.89459228515625 130.03343200683594 158.01043701171875 141.52767944335938 156.2420654296875 167.6107635498047 154.4737548828125 189.715087890625 152.2633056640625 205.63018798828125 148.7265625 216.240234375 146.07406616210938 220.21902465820313 142.97946166992188 223.31362915039065 142.97946166992188 223.31362915039065 " />
        <polyline stroke="black" stroke-width="3" stroke-linecap="round" fill="transparent" stroke-linejoin="round" points="103.6337890625 133.12803649902344 112.9176025390625 135.78054809570313 150.49496459960938 141.9697723388672 164.19964599609375 140.64352416992188 164.19964599609375 140.64352416992188 " />
        <polyline stroke="black" stroke-width="3" stroke-linecap="round" fill="transparent" stroke-linejoin="round" points="203.5452880859375 139.7593231201172 198.240234375 145.06436157226563 179.672607421875 166.28448486328125 179.672607421875 166.28448486328125 " />
        </svg>