<?xml version="1.0" standalone="no"?>
    <svg width="256" height="256" xmlns="http://www.w3.org/2000/svg" version="1.1">
    <polyline stroke="black" stroke-width="3" stroke-linecap="round" fill="transparent" stroke-linejoin="round" points="123 39 123 43 122 46 115 57 110 64 96 82 85 95 82 99 77 106 75 109 73 111 69 115 66 117 63 119 60 122 59 123 58 123 57 124 57 125 56 125 55 125 55 125 " />
        <polyline stroke="black" stroke-width="3" stroke-linecap="round" fill="transparent" stroke-linejoin="round" points="119 55 119 55 123 58 132 68 140 75 158 89 170 96 173 99 175 99 175 99 176 99 177 99 177 99 " />
        <polyline stroke="black" stroke-width="3" stroke-linecap="round" fill="transparent" stroke-linejoin="round" points="103 103 104 111 107 133 110 148 112 171 112 178 112 181 112 187 112 189 111 193 111 195 111 195 110 196 109 197 108 197 107 198 106 198 103 198 102 197 100 197 99 196 99 195 98 195 98 195 " />
        <polyline stroke="black" stroke-width="3" stroke-linecap="round" fill="transparent" stroke-linejoin="round" points="77 136 77 138 79 144 80 149 81 153 81 154 81 155 81 155 " />
        <polyline stroke="black" stroke-width="3" stroke-linecap="round" fill="transparent" stroke-linejoin="round" points="166 119 166 122 165 130 161 140 159 145 155 154 151 162 147 166 146 168 146 168 " />
        </svg>