<?xml version="1.0" standalone="no"?>
    <svg width="256" height="256" xmlns="http://www.w3.org/2000/svg" version="1.1">
    <polyline stroke="black" stroke-width="3" stroke-linecap="round" fill="transparent" stroke-linejoin="round" points="107.6778564453125 56.809295654296875 105.71685791015624 59.42387390136719 91.9903564453125 76.41859436035156 86.10760498046875 83.60868835449219 79.5711669921875 90.79875183105467 75.6492919921875 94.06697082519533 74.99566650390625 95.374267578125 78.26385498046875 94.06697082519533 80.87841796875 93.41334533691406 80.87841796875 93.41334533691406 " />
        <polyline stroke="black" stroke-width="3" stroke-linecap="round" fill="transparent" stroke-linejoin="round" points="103.102294921875 116.29086303710938 98.52679443359376 120.86634826660156 68.459228515625 143.0902099609375 56.693603515625 147.6657257080078 56.693603515625 147.6657257080078 " />
        <polyline stroke="black" stroke-width="3" stroke-linecap="round" fill="transparent" stroke-linejoin="round" points="97.219482421875 118.25177001953124 101.14141845703124 119.55908203125 132.51629638671875 128.05642700195313 137.745361328125 128.71006774902344 158.00836181640625 130.01734924316406 176.31036376953125 130.67100524902344 179.57855224609375 130.67100524902344 179.57855224609375 130.67100524902344 " />
        <polyline stroke="black" stroke-width="3" stroke-linecap="round" fill="transparent" stroke-linejoin="round" points="82.18572998046875 163.35317993164063 82.83935546875 164.6604461669922 86.10760498046875 173.8114471435547 91.3367919921875 178.38699340820313 91.9903564453125 179.0406036376953 95.9122314453125 180.347900390625 105.063232421875 180.347900390625 110.946044921875 177.7333221435547 122.71160888671876 169.8896026611328 131.20892333984375 164.00682067871094 144.93548583984375 154.85581970214844 144.93548583984375 154.85581970214844 " />
        <polyline stroke="black" stroke-width="3" stroke-linecap="round" fill="transparent" stroke-linejoin="round" points="148.20367431640625 164.00682067871094 148.85736083984375 167.2750244140625 150.16461181640625 173.15782165527344 150.81829833984375 170.54324340820313 150.81829833984375 170.54324340820313 " />
        <polyline stroke="black" stroke-width="3" stroke-linecap="round" fill="transparent" stroke-linejoin="round" points="117.48248291015624 169.2359619140625 117.48248291015624 174.46511840820313 114.86785888671876 211.7227783203125 116.82879638671876 225.4493103027344 119.443359375 233.29299926757813 119.443359375 233.29299926757813 " />
        </svg>