<?xml version="1.0" standalone="no"?>
    <svg width="256" height="256" xmlns="http://www.w3.org/2000/svg" version="1.1">
    <polyline stroke="black" stroke-width="3" stroke-linecap="round" fill="transparent" stroke-linejoin="round" points="37.86785888671875 77.69810485839844 77.7169189453125 69.54718017578125 119.37738037109376 55.96226501464844 129.33966064453125 53.24527740478515 145.64154052734375 48.71697998046875 156.50946044921875 45.094337463378906 161.94342041015625 44.188690185546875 156.50946044921875 47.811317443847656 156.50946044921875 47.811317443847656 " />
        <polyline stroke="black" stroke-width="3" stroke-linecap="round" fill="transparent" stroke-linejoin="round" points="60.50946044921875 113.01885986328124 82.24530029296875 134.75473022460938 84.9622802734375 140.18869018554688 94.924560546875 170.07545471191406 95.8302001953125 189.0943603515625 94.924560546875 191.81134033203125 90.396240234375 193.6226501464844 90.396240234375 193.6226501464844 " />
        <polyline stroke="black" stroke-width="3" stroke-linecap="round" fill="transparent" stroke-linejoin="round" points="88.5848388671875 113.92453002929688 131.15087890625 92.18869018554688 156.50946044921875 83.132080078125 160.13201904296875 82.22640991210938 165.56597900390625 83.132080078125 167.37738037109375 88.5660400390625 165.56597900390625 106.67926025390624 161.94342041015625 122.98112487792967 155.603759765625 140.18869018554688 145.64154052734375 160.11322021484375 138.396240234375 169.16983032226563 132.9622802734375 173.6981201171875 127.5283203125 174.60379028320313 125.7169189453125 173.6981201171875 125.7169189453125 173.6981201171875 " />
        <polyline stroke="black" stroke-width="3" stroke-linecap="round" fill="transparent" stroke-linejoin="round" points="115.75469970703124 107.58488464355467 122.0943603515625 130.2263946533203 119.37738037109376 149.24530029296875 113.0377197265625 158.30186462402344 113.0377197265625 158.30186462402344 " />
        <polyline stroke="black" stroke-width="3" stroke-linecap="round" fill="transparent" stroke-linejoin="round" points="26.0943603515625 186.3773498535156 46.924560546875 172.7924346923828 91.30181884765624 143.81134033203125 105.79248046875 137.47171020507813 147.4527587890625 120.26414489746094 168.282958984375 113.92453002929688 180.9622802734375 110.30186462402344 185.4906005859375 109.396240234375 183.67926025390625 112.11322021484376 179.15087890625 115.73583984375 179.15087890625 115.73583984375 " />
        <polyline stroke="black" stroke-width="3" stroke-linecap="round" fill="transparent" stroke-linejoin="round" points="82.24530029296875 190.9056701660156 113.94342041015624 178.2263946533203 139.30181884765625 163.73583984375 142.924560546875 161.01885986328125 142.924560546875 161.01885986328125 " />
        <polyline stroke="black" stroke-width="3" stroke-linecap="round" fill="transparent" stroke-linejoin="round" points="50.54718017578125 107.58488464355467 71.37738037109375 117.54718017578124 77.7169189453125 143.81134033203125 76.81134033203125 152.86790466308594 74.99993896484375 170.07545471191406 68.660400390625 194.5283203125 62.32073974609375 206.3018798828125 56.88671875 215.3584899902344 52.3585205078125 220.79244995117188 50.54718017578125 222.60379028320313 55.98114013671875 218.98114013671875 67.75469970703125 212.6415100097656 86.77362060546875 204.49053955078125 113.0377197265625 197.24530029296875 157.41510009765625 190 184.5848388671875 187.28298950195313 204.50946044921875 186.3773498535156 216.28302001953125 185.47171020507813 219.90570068359375 186.3773498535156 219.90570068359375 186.3773498535156 " />
        </svg>