<?xml version="1.0" standalone="no"?>
    <svg width="256" height="256" xmlns="http://www.w3.org/2000/svg" version="1.1">
    <polyline stroke="black" stroke-width="3" stroke-linecap="round" fill="transparent" stroke-linejoin="round" points="53.31005859375 104.8766632080078 74.76089477539063 91.67617797851563 125.91278076171876 73.85551452636719 134.8231201171875 71.54542541503906 158.9140625 66.59524536132813 173.7646484375 64.94517517089844 178.05474853515625 65.60520935058594 178.05474853515625 65.60520935058594 178.05474853515625 65.60520935058594 " />
        <polyline stroke="black" stroke-width="3" stroke-linecap="round" fill="transparent" stroke-linejoin="round" points="112.05224609375 117.74714660644533 110.4022216796875 132.2677001953125 108.42214965820313 152.0684356689453 108.09213256835938 154.3785400390625 107.43209838867188 158.3386993408203 105.78207397460938 158.66868591308594 103.47195434570313 155.3685760498047 100.17184448242188 125.00741577148438 102.15191650390624 113.4569854736328 107.10211181640624 107.51678466796876 117.33248901367188 100.91651916503906 131.52301025390625 94.64630126953124 143.73345947265625 92.00619506835938 153.6337890625 93.32624816894533 161.8841552734375 97.286376953125 168.81439208984375 107.51678466796876 173.1046142578125 124.0173797607422 172.11456298828125 144.8081512451172 162.54412841796875 164.2789306640625 162.54412841796875 164.2789306640625 162.54412841796875 164.2789306640625 " />
        <polyline stroke="black" stroke-width="3" stroke-linecap="round" fill="transparent" stroke-linejoin="round" points="67.83062744140625 155.3685760498047 93.57156372070313 141.50804138183594 101.49188232421876 138.53793334960938 142.74343872070313 125.33743286132813 151.32373046875 123.35736083984376 175.08465576171875 120.3872528076172 192.5753173828125 119.72723388671876 198.51556396484375 120.3872528076172 199.175537109375 120.71728515625 199.175537109375 120.71728515625 " />
        <polyline stroke="black" stroke-width="3" stroke-linecap="round" fill="transparent" stroke-linejoin="round" points="143.07342529296875 108.83682250976563 140.10336303710938 120.3872528076172 137.13323974609375 137.87791442871094 136.80319213867188 140.18801879882813 134.8231201171875 149.09832763671875 132.84304809570313 156.68861389160156 130.20297241210938 161.63880920410156 126.24282836914063 165.2689666748047 122.94265747070313 168.23904418945313 119.642578125 170.2191162109375 115.68240356445313 171.2091522216797 111.39224243164063 172.19920349121094 107.43209838867188 172.85922241210938 104.13198852539063 172.85922241210938 102.15191650390624 173.18923950195313 101.161865234375 173.18923950195313 109.7421875 170.2191162109375 128.222900390625 164.93893432617188 148.02362060546875 161.30877685546875 166.50439453125 159.32870483398438 176.73468017578125 158.0086669921875 179.704833984375 157.3486328125 179.704833984375 157.3486328125 179.704833984375 157.3486328125 " />
        <polyline stroke="black" stroke-width="3" stroke-linecap="round" fill="transparent" stroke-linejoin="round" points="52.98004150390625 105.53669738769533 53.9700927734375 116.42709350585938 54.300079345703125 123.02734375 57.93023681640625 156.35861206054688 58.9202880859375 162.62884521484375 62.88043212890625 179.45945739746094 67.50057983398438 192.989990234375 71.790771484375 201.9002990722656 76.740966796875 207.51052856445313 87.30133056640625 212.13067626953125 107.76214599609376 212.46072387695313 131.85299682617188 210.8106689453125 158.2540283203125 209.16058349609375 181.02490234375 208.17056274414065 196.86541748046875 207.18051147460935 201.81561279296875 207.84054565429688 201.81561279296875 207.84054565429688 201.81561279296875 207.84054565429688 " />
        </svg>