<?xml version="1.0" standalone="no"?>
    <svg width="256" height="256" xmlns="http://www.w3.org/2000/svg" version="1.1">
    <polyline stroke="black" stroke-width="3" stroke-linecap="round" fill="transparent" stroke-linejoin="round" points="63.6112060546875 95.3830108642578 63.6112060546875 106.59651184082033 64.20135498046875 118.99038696289063 64.79156494140625 130.2039031982422 64.79156494140625 137.28611755371094 64.79156494140625 140.23704528808594 64.79156494140625 140.23704528808594 " />
        <polyline stroke="black" stroke-width="3" stroke-linecap="round" fill="transparent" stroke-linejoin="round" points="72.46395874023438 101.87503051757813 80.7265625 94.79281616210938 91.9400634765625 87.12042236328125 105.5142822265625 78.85783386230469 121.44927978515624 71.18544006347656 138.56463623046875 66.46395874023438 153.31927490234375 65.28358459472656 163.3524169921875 68.23451232910156 169.2542724609375 73.54617309570313 171.0247802734375 86.53024291992188 165.1229248046875 106.00633239746094 149.18795776367188 125.482421875 130.89224243164063 142.5977783203125 130.89224243164063 142.5977783203125 " />
        <polyline stroke="black" stroke-width="3" stroke-linecap="round" fill="transparent" stroke-linejoin="round" points="63.6112060546875 139.6468505859375 73.64431762695313 134.33518981933594 83.67745971679688 130.2039031982422 98.43206787109376 124.30206298828124 113.77688598632813 117.81002807617188 127.94131469726563 111.3179931640625 140.92538452148438 101.87503051757813 147.41741943359375 95.3830108642578 147.41741943359375 89.48115539550781 143.87628173828125 85.34986877441406 138.56463623046875 84.16949462890625 132.0726318359375 86.53024291992188 124.99038696289063 92.4320831298828 115.54742431640624 102.46522521972656 104.33392333984376 115.44927978515624 93.12042236328124 126.07261657714844 79.54617309570313 139.05667114257813 71.2835693359375 145.5487060546875 65.38174438476563 150.86036682128906 64.20135498046875 154.9916534423828 71.873779296875 153.22109985351563 94.8909912109375 144.3683319091797 113.77688598632813 137.8762969970703 130.30206298828125 134.92538452148438 138.56463623046875 134.33518981933594 143.87628173828125 134.33518981933594 143.87628173828125 137.28611755371094 143.87628173828125 137.28611755371094 " />
        <polyline stroke="black" stroke-width="3" stroke-linecap="round" fill="transparent" stroke-linejoin="round" points="112.00634765625 156.76220703125 110.23577880859376 178.0088653564453 107.28485107421876 192.76348876953125 103.74374389648438 205.74752807617188 99.02227783203124 214.0101318359375 92.53024291992188 217.55123901367188 92.53024291992188 217.55123901367188 " />
        <polyline stroke="black" stroke-width="3" stroke-linecap="round" fill="transparent" stroke-linejoin="round" points="45.9056396484375 183.32052612304688 51.217315673828125 193.94384765625 61.25042724609375 195.71441650390625 83.0872802734375 194.53402709960935 83.0872802734375 194.53402709960935 " />
        <polyline stroke="black" stroke-width="3" stroke-linecap="round" fill="transparent" stroke-linejoin="round" points="160.99163818359375 176.8284912109375 149.77813720703125 188.63217163085935 138.56463623046875 197.4849548339844 126.76092529296876 205.74752807617188 115.54742431640624 214.60031127929688 115.54742431640624 214.60031127929688 " />
        </svg>