<?xml version="1.0" standalone="no"?>
    <svg width="256" height="256" xmlns="http://www.w3.org/2000/svg" version="1.1">
    <polyline stroke="black" stroke-width="3" stroke-linecap="round" fill="transparent" stroke-linejoin="round" points="55.3846435546875 93.84376525878906 49.8084716796875 108.89950561523438 44.78985595703125 123.39764404296876 40.88653564453125 135.10768127441406 38.09844970703125 142.91436767578125 35.867950439453125 147.93295288085938 35.310333251953125 150.16342163085938 35.867950439453125 150.16342163085938 38.65606689453125 146.8177032470703 46.462738037109375 139.56863403320313 59.84564208984375 129.53146362304688 74.9013671875 119.49430847167967 90.5147705078125 110.57237243652344 99.99432373046876 104.43855285644533 106.68572998046876 99.9775848388672 111.146728515625 93.84376525878906 111.146728515625 93.84376525878906 " />
        <polyline stroke="black" stroke-width="3" stroke-linecap="round" fill="transparent" stroke-linejoin="round" points="90.5147705078125 72.0965576171875 86.05377197265625 93.2861328125 78.80471801757813 120.60954284667967 68.20993041992188 150.72105407714844 60.40325927734375 172.46824645996094 53.7117919921875 187.52398681640625 48.6932373046875 196.4459228515625 48.6932373046875 196.4459228515625 " />
        <polyline stroke="black" stroke-width="3" stroke-linecap="round" fill="transparent" stroke-linejoin="round" points="88.84188842773438 173.02586364746094 97.76382446289063 176.92921447753906 107.24334716796876 179.71731567382813 115.607666015625 180.83255004882813 125.64483642578124 177.48683166503906 125.64483642578124 177.48683166503906 " />
        <polyline stroke="black" stroke-width="3" stroke-linecap="round" fill="transparent" stroke-linejoin="round" points="142.93109130859375 61.50177001953125 137.3548583984375 72.65419006347656 132.8939208984375 82.69134521484375 130.10580444335938 89.38279724121094 128.43295288085938 93.2861328125 128.43295288085938 94.95899963378906 131.7786865234375 93.84376525878906 141.25820922851563 89.94041442871094 157.42919921875 82.69134521484375 173.6002197265625 73.76942443847656 189.21356201171875 65.40512084960938 203.154052734375 57.040802001953125 210.4031982421875 52.57984924316406 215.4217529296875 48.67650604248047 216.5369873046875 44.773162841796875 216.5369873046875 44.773162841796875 " />
        <polyline stroke="black" stroke-width="3" stroke-linecap="round" fill="transparent" stroke-linejoin="round" points="181.9644775390625 37.52409362792969 176.3883056640625 52.57984924316406 169.1392822265625 72.65419006347656 163.00537109375 87.70993041992188 156.87158203125 101.0928192138672 151.85302734375 111.12998962402344 148.50726318359375 117.82144165039063 148.50726318359375 117.82144165039063 " />
        <polyline stroke="black" stroke-width="3" stroke-linecap="round" fill="transparent" stroke-linejoin="round" points="175.2730712890625 101.65045166015624 186.42547607421875 100.5352020263672 197.577880859375 100.5352020263672 205.94219970703125 100.5352020263672 210.4031982421875 101.65045166015624 210.4031982421875 101.65045166015624 " />
        <polyline stroke="black" stroke-width="3" stroke-linecap="round" fill="transparent" stroke-linejoin="round" points="129.54818725585938 140.12625122070313 125.08721923828124 147.3753204345703 119.51101684570313 156.29725646972656 115.050048828125 164.66156005859375 112.261962890625 170.79537963867188 111.146728515625 174.14111328125 113.377197265625 174.14111328125 120.62625122070313 170.23776245117188 135.1243896484375 161.8734588623047 153.52587890625 153.5091552734375 171.9273681640625 145.14483642578125 188.65594482421875 139.01101684570313 201.481201171875 133.992431640625 207.61505126953125 131.76194763183594 210.9608154296875 130.08909606933594 212.6336669921875 126.1857452392578 212.6336669921875 126.1857452392578 " />
        <polyline stroke="black" stroke-width="3" stroke-linecap="round" fill="transparent" stroke-linejoin="round" points="172.4849853515625 127.30099487304688 162.44781494140625 154.0667724609375 154.08349609375 174.69873046875 147.39202880859375 191.4273376464844 140.14297485351563 206.48309326171875 134.0091552734375 217.077880859375 130.10580444335938 222.65408325195313 128.99057006835938 223.76931762695313 128.99057006835938 223.76931762695313 " />
        <polyline stroke="black" stroke-width="3" stroke-linecap="round" fill="transparent" stroke-linejoin="round" points="179.1763916015625 193.1001892089844 190.328857421875 196.4459228515625 202.038818359375 200.90689086914065 213.1912841796875 207.59832763671875 213.1912841796875 207.59832763671875 " />
        </svg>