<?xml version="1.0" standalone="no"?>
    <svg width="256" height="256" xmlns="http://www.w3.org/2000/svg" version="1.1">
    <polyline stroke="black" stroke-width="3" stroke-linecap="round" fill="transparent" stroke-linejoin="round" points="73 78 72 79 72 80 71 85 69 94 66 106 63 116 60 124 59 128 58 129 58 129 " />
        <polyline stroke="black" stroke-width="3" stroke-linecap="round" fill="transparent" stroke-linejoin="round" points="68 110 68 108 71 106 78 104 89 101 100 98 109 96 117 92 117 92 " />
        <polyline stroke="black" stroke-width="3" stroke-linecap="round" fill="transparent" stroke-linejoin="round" points="101 56 99 61 97 69 96 72 93 85 92 91 86 115 78 142 70 164 62 178 55 185 54 185 54 185 " />
        <polyline stroke="black" stroke-width="3" stroke-linecap="round" fill="transparent" stroke-linejoin="round" points="91 122 89 122 89 124 89 126 94 133 101 141 108 148 115 152 116 152 116 152 " />
        <polyline stroke="black" stroke-width="3" stroke-linecap="round" fill="transparent" stroke-linejoin="round" points="146 61 146 62 145 68 143 76 138 91 135 99 133 102 133 104 132 104 132 104 " />
        <polyline stroke="black" stroke-width="3" stroke-linecap="round" fill="transparent" stroke-linejoin="round" points="143 86 149 83 157 81 160 80 169 78 172 77 180 75 182 73 189 70 189 70 " />
        <polyline stroke="black" stroke-width="3" stroke-linecap="round" fill="transparent" stroke-linejoin="round" points="167 63 163 78 155 97 146 113 137 125 133 129 134 126 134 126 " />
        <polyline stroke="black" stroke-width="3" stroke-linecap="round" fill="transparent" stroke-linejoin="round" points="158 92 159 92 159 94 163 99 168 105 175 110 181 116 183 118 183 118 " />
        <polyline stroke="black" stroke-width="3" stroke-linecap="round" fill="transparent" stroke-linejoin="round" points="146 131 144 135 140 145 136 154 134 157 130 164 127 166 127 166 " />
        <polyline stroke="black" stroke-width="3" stroke-linecap="round" fill="transparent" stroke-linejoin="round" points="138 150 146 149 158 147 170 144 183 140 194 137 198 135 198 135 " />
        <polyline stroke="black" stroke-width="3" stroke-linecap="round" fill="transparent" stroke-linejoin="round" points="168 123 163 131 156 147 146 167 138 183 134 190 133 192 133 191 133 191 " />
        <polyline stroke="black" stroke-width="3" stroke-linecap="round" fill="transparent" stroke-linejoin="round" points="158 154 159 157 161 164 166 172 173 180 182 187 191 191 197 193 197 193 " />
        </svg>