<?xml version="1.0" standalone="no"?>
    <svg width="256" height="256" xmlns="http://www.w3.org/2000/svg" version="1.1">
    <polyline stroke="black" stroke-width="3" stroke-linecap="round" fill="transparent" stroke-linejoin="round" points="53.27703857421875 61.88916015625 54.50128173828125 75.35565185546875 55.1134033203125 91.88272094726563 56.949737548828125 121.26416015625 58.78607177734375 143.3002471923828 60.622406005859375 162.2757568359375 61.234527587890625 175.13014221191406 61.234527587890625 181.86338806152344 61.234527587890625 185.53607177734375 60.01031494140625 183.08761596679688 60.01031494140625 162.8878631591797 60.01031494140625 162.8878631591797 " />
        <polyline stroke="black" stroke-width="3" stroke-linecap="round" fill="transparent" stroke-linejoin="round" points="56.949737548828125 71.6829833984375 64.9072265625 63.72550964355469 73.476806640625 59.440704345703125 84.49481201171875 53.93169403076172 99.185546875 48.42266845703125 117.5489501953125 44.13787841796875 136.52447509765625 42.301536560058594 153.66363525390625 42.301536560058594 164.68170166015625 45.36210632324219 172.63916015625 50.259010314941406 179.3724365234375 60.66493225097656 184.88140869140625 83.92524719238281 185.4935302734375 109.02189636230467 183.6572265625 132.28219604492188 180.59661865234375 152.48194885253906 172.63916015625 168.3968963623047 159.17266845703125 178.19070434570313 159.17266845703125 178.19070434570313 " />
        <polyline stroke="black" stroke-width="3" stroke-linecap="round" fill="transparent" stroke-linejoin="round" points="90.615966796875 128.60952758789063 103.4703369140625 119.42782592773438 113.26416015625 115.75514221191406 123.67010498046876 112.08245849609376 132.851806640625 109.02189636230467 140.1971435546875 107.185546875 140.1971435546875 107.185546875 " />
        <polyline stroke="black" stroke-width="3" stroke-linecap="round" fill="transparent" stroke-linejoin="round" points="124.28219604492188 98.0038604736328 116.93682861328124 108.40977478027344 112.65203857421876 117.59147644042967 108.36724853515624 128.60952758789063 103.4703369140625 142.07601928710938 99.79766845703124 153.70616149902344 96.125 164.72421264648438 94.28863525390624 172.06956481933594 94.28863525390624 172.06956481933594 " />
        <polyline stroke="black" stroke-width="3" stroke-linecap="round" fill="transparent" stroke-linejoin="round" points="99.79766845703124 150.64559936523438 119.38531494140624 145.74868774414063 131.6275634765625 144.52447509765625 144.48193359375 144.52447509765625 154.2757568359375 146.36080932617188 154.2757568359375 146.36080932617188 " />
        <polyline stroke="black" stroke-width="3" stroke-linecap="round" fill="transparent" stroke-linejoin="round" points="63.07086181640625 186.76028442382813 75.92523193359375 179.41493225097656 91.22808837890624 174.5180206298828 110.81570434570313 169.62110900878906 127.95489501953124 167.78477478027344 143.25772094726563 167.17266845703125 154.2757568359375 169.00900268554688 161.009033203125 171.45745849609375 161.009033203125 171.45745849609375 " />
        </svg>