<?xml version="1.0" standalone="no"?>
    <svg width="256" height="256" xmlns="http://www.w3.org/2000/svg" version="1.1">
    <polyline stroke="black" stroke-width="3" stroke-linecap="round" fill="transparent" stroke-linejoin="round" points="132.7786865234375 37.52409362792969 133.8939208984375 53.13746643066406 128.87530517578125 65.40512084960938 128.87530517578125 65.40512084960938 " />
        <polyline stroke="black" stroke-width="3" stroke-linecap="round" fill="transparent" stroke-linejoin="round" points="78.13186645507813 84.92182922363281 91.5147705078125 78.78800964355469 106.57049560546876 73.76942443847656 135.0091552734375 67.63560485839844 154.52587890625 63.73225402832031 171.8121337890625 61.50177001953125 183.5220947265625 59.82891845703125 189.09832763671875 59.82891845703125 190.771240234375 60.94415283203125 190.771240234375 60.94415283203125 " />
        <polyline stroke="black" stroke-width="3" stroke-linecap="round" fill="transparent" stroke-linejoin="round" points="106.57049560546876 96.07424926757813 106.57049560546876 108.34188842773438 106.01287841796876 117.26382446289063 106.01287841796876 127.85861206054688 106.01287841796876 136.22291564941406 104.34002685546876 142.3567352294922 103.22479248046876 144.02960205078125 103.22479248046876 144.02960205078125 " />
        <polyline stroke="black" stroke-width="3" stroke-linecap="round" fill="transparent" stroke-linejoin="round" points="103.78240966796876 100.5352020263672 117.722900390625 92.1708984375 128.87530517578125 87.70993041992188 141.70059204101563 83.80659484863281 155.64111328125 81.57611083984375 166.79351806640625 81.57611083984375 174.6002197265625 82.69134521484375 179.6187744140625 86.59469604492188 181.8492431640625 92.1708984375 180.1763916015625 104.43855285644533 170.6968994140625 123.95526123046876 160.65966796875 134.550048828125 160.65966796875 134.550048828125 " />
        <polyline stroke="black" stroke-width="3" stroke-linecap="round" fill="transparent" stroke-linejoin="round" points="102.66717529296876 128.97384643554688 117.722900390625 122.84002685546876 127.20245361328124 119.49430847167967 138.3548583984375 115.59095764160156 148.94964599609375 111.12998962402344 156.19873046875 107.22665405273438 161.77490234375 101.0928192138672 161.77490234375 101.0928192138672 " />
        <polyline stroke="black" stroke-width="3" stroke-linecap="round" fill="transparent" stroke-linejoin="round" points="141.14297485351563 84.92182922363281 138.3548583984375 96.07424926757813 136.6820068359375 104.99617004394533 133.8939208984375 114.47572326660156 131.10580444335938 123.95526123046876 127.20245361328124 131.20433044433594 122.74151611328124 137.33815002441406 116.607666015625 141.2415008544922 112.146728515625 144.02960205078125 110.47384643554688 145.14483642578125 112.704345703125 144.58721923828125 121.06863403320313 141.2415008544922 136.6820068359375 136.78053283691406 150.62252807617188 132.877197265625 161.21728515625 129.53146362304688 166.79351806640625 128.41622924804688 166.79351806640625 128.41622924804688 " />
        <polyline stroke="black" stroke-width="3" stroke-linecap="round" fill="transparent" stroke-linejoin="round" points="57.499908447265625 189.1968688964844 77.57424926757813 184.73590087890625 98.76382446289063 179.71731567382813 127.20245361328124 173.58348083496094 146.16156005859375 170.79537963867188 166.79351806640625 168.0072784423828 181.8492431640625 164.66156005859375 191.886474609375 162.4310760498047 196.347412109375 161.3158416748047 196.347412109375 161.3158416748047 " />
        <polyline stroke="black" stroke-width="3" stroke-linecap="round" fill="transparent" stroke-linejoin="round" points="124.41436767578124 150.72105407714844 119.39578247070313 159.08535766601563 116.050048828125 168.5648956298828 113.261962890625 180.83255004882813 111.589111328125 194.2154541015625 111.03146362304688 204.25262451171875 112.146728515625 211.50167846679688 116.050048828125 215.962646484375 122.74151611328124 216.520263671875 134.4515380859375 213.73214721679688 145.60394287109375 209.27120971679688 156.19873046875 203.69497680664065 164.00537109375 197.0035400390625 175.1578369140625 181.39016723632813 175.1578369140625 181.39016723632813 " />
        <polyline stroke="black" stroke-width="3" stroke-linecap="round" fill="transparent" stroke-linejoin="round" points="163.44781494140625 144.02960205078125 162.89013671875 157.41249084472656 162.33251953125 168.5648956298828 161.77490234375 181.39016723632813 160.65966796875 192.5425720214844 160.10205078125 202.57974243164065 160.10205078125 202.57974243164065 " />
        </svg>