<?xml version="1.0" standalone="no"?>
    <svg width="256" height="256" xmlns="http://www.w3.org/2000/svg" version="1.1">
    <polyline stroke="black" stroke-width="3" stroke-linecap="round" fill="transparent" stroke-linejoin="round" points="127.87530517578124 36.96647644042969 127.87530517578124 48.11888122558594 123.41436767578124 57.040802001953125 113.377197265625 66.52035522460938 113.377197265625 66.52035522460938 " />
        <polyline stroke="black" stroke-width="3" stroke-linecap="round" fill="transparent" stroke-linejoin="round" points="67.65231323242188 78.78800964355469 79.91998291015625 73.76942443847656 92.7452392578125 69.86607360839844 116.722900390625 66.52035522460938 135.6820068359375 64.84748840332031 154.08349609375 64.28987121582031 167.46636962890625 63.17463684082031 175.2730712890625 63.17463684082031 178.6187744140625 64.28987121582031 178.6187744140625 64.28987121582031 " />
        <polyline stroke="black" stroke-width="3" stroke-linecap="round" fill="transparent" stroke-linejoin="round" points="78.24710083007813 118.37905883789063 82.15045166015625 133.992431640625 84.93853759765625 145.7024688720703 87.72665405273438 155.73963928222656 89.39950561523438 162.4310760498047 91.0723876953125 165.21917724609375 91.0723876953125 165.21917724609375 " />
        <polyline stroke="black" stroke-width="3" stroke-linecap="round" fill="transparent" stroke-linejoin="round" points="92.7452392578125 124.51287841796876 105.57049560546876 115.03334045410156 116.722900390625 110.57237243652344 129.54818725585938 107.22665405273438 142.93109130859375 105.55378723144533 154.64111328125 106.11140441894533 163.56304931640625 108.34188842773438 169.1392822265625 112.8028564453125 172.4849853515625 118.93667602539063 171.9273681640625 130.64671325683594 164.67828369140625 144.58721923828125 164.67828369140625 144.58721923828125 " />
        <polyline stroke="black" stroke-width="3" stroke-linecap="round" fill="transparent" stroke-linejoin="round" points="76.0166015625 152.95152282714844 84.93853759765625 149.60580444335938 97.2061767578125 145.14483642578125 111.146728515625 140.12625122070313 125.64483642578124 135.66529846191406 137.9124755859375 131.20433044433594 148.50726318359375 128.41622924804688 155.19873046875 126.1857452392578 155.19873046875 126.1857452392578 " />
        <polyline stroke="black" stroke-width="3" stroke-linecap="round" fill="transparent" stroke-linejoin="round" points="131.7786865234375 115.03334045410156 128.43295288085938 130.64671325683594 125.64483642578124 139.56863403320313 122.29913330078124 149.04818725585938 117.838134765625 157.41249084472656 112.819580078125 162.9886932373047 106.68572998046876 166.8920440673828 101.10955810546876 168.5648956298828 97.2061767578125 168.5648956298828 95.5333251953125 167.4496612548828 98.87905883789063 164.66156005859375 108.91622924804688 159.08535766601563 125.64483642578124 151.83628845214844 141.81585693359375 147.93295288085938 153.52587890625 146.8177032470703 160.77490234375 146.2600860595703 164.12066650390625 147.3753204345703 164.12066650390625 147.3753204345703 " />
        <polyline stroke="black" stroke-width="3" stroke-linecap="round" fill="transparent" stroke-linejoin="round" points="56.499908447265625 197.0035400390625 75.458984375 194.7730712890625 98.32144165039063 189.7544860839844 127.87530517578124 185.29351806640625 149.62252807617188 181.9477996826172 166.35113525390625 179.15969848632813 179.7340087890625 177.48683166503906 186.98309326171875 176.37158203125 191.444091796875 176.37158203125 191.444091796875 176.37158203125 " />
        <polyline stroke="black" stroke-width="3" stroke-linecap="round" fill="transparent" stroke-linejoin="round" points="120.06863403320313 172.46824645996094 116.165283203125 186.40875244140625 112.819580078125 198.1187744140625 110.589111328125 209.82882690429688 109.47384643554688 217.635498046875 109.47384643554688 222.09646606445313 110.589111328125 224.88458251953125 115.050048828125 224.88458251953125 121.18389892578124 224.32693481445313 130.10580444335938 220.42361450195313 139.58535766601563 216.520263671875 146.27679443359375 213.17453002929688 156.31396484375 202.02212524414065 156.31396484375 202.02212524414065 " />
        <polyline stroke="black" stroke-width="3" stroke-linecap="round" fill="transparent" stroke-linejoin="round" points="161.89013671875 165.21917724609375 162.44781494140625 175.81396484375 161.33251953125 183.62066650390625 160.77490234375 192.5425720214844 160.77490234375 199.79165649414065 160.77490234375 205.92547607421875 160.77490234375 210.94406127929688 159.65966796875 214.289794921875 159.65966796875 214.289794921875 " />
        </svg>