<?xml version="1.0" standalone="no"?>
    <svg width="256" height="256" xmlns="http://www.w3.org/2000/svg" version="1.1">
    <polyline stroke="black" stroke-width="3" stroke-linecap="round" fill="transparent" stroke-linejoin="round" points="114 30 113 43 113 53 112 61 112 61 " />
        <polyline stroke="black" stroke-width="3" stroke-linecap="round" fill="transparent" stroke-linejoin="round" points="62 59 73 58 93 55 120 51 140 48 156 48 159 48 159 48 " />
        <polyline stroke="black" stroke-width="3" stroke-linecap="round" fill="transparent" stroke-linejoin="round" points="81 81 81 103 81 117 81 133 81 142 81 143 81 143 " />
        <polyline stroke="black" stroke-width="3" stroke-linecap="round" fill="transparent" stroke-linejoin="round" points="77 88 93 82 114 77 137 76 154 76 160 78 161 84 161 96 157 109 151 125 144 134 141 138 141 138 " />
        <polyline stroke="black" stroke-width="3" stroke-linecap="round" fill="transparent" stroke-linejoin="round" points="110 89 110 99 110 107 109 124 105 137 105 137 " />
        <polyline stroke="black" stroke-width="3" stroke-linecap="round" fill="transparent" stroke-linejoin="round" points="75 112 100 108 119 107 134 107 140 107 140 108 140 108 " />
        <polyline stroke="black" stroke-width="3" stroke-linecap="round" fill="transparent" stroke-linejoin="round" points="69 148 90 143 106 141 126 140 138 140 142 140 142 140 " />
        <polyline stroke="black" stroke-width="3" stroke-linecap="round" fill="transparent" stroke-linejoin="round" points="40 181 48 178 69 175 95 170 124 167 146 166 164 166 170 166 171 167 171 167 " />
        <polyline stroke="black" stroke-width="3" stroke-linecap="round" fill="transparent" stroke-linejoin="round" points="93 138 93 160 93 176 90 193 88 203 88 207 101 207 117 207 134 207 145 207 150 207 150 207 " />
        <polyline stroke="black" stroke-width="3" stroke-linecap="round" fill="transparent" stroke-linejoin="round" points="150 142 150 160 148 175 145 193 142 212 142 212 " />
        </svg>