<?xml version="1.0" standalone="no"?>
    <svg width="256" height="256" xmlns="http://www.w3.org/2000/svg" version="1.1">
    <polyline stroke="black" stroke-width="3" stroke-linecap="round" fill="transparent" stroke-linejoin="round" points="106 19 107 19 107 19 107 19 107 19 108 19 108 19 108 19 108 19 108 19 108 20 108 20 109 21 109 22 110 23 110 25 111 26 111 28 112 30 112 32 112 34 112 36 112 38 111 39 111 41 110 43 109 45 108 46 107 48 106 49 " />
        <polyline stroke="black" stroke-width="3" stroke-linecap="round" fill="transparent" stroke-linejoin="round" points="73 59 73 59 73 60 74 60 74 60 75 60 76 60 76 61 77 61 79 61 80 60 82 60 84 60 86 60 89 59 92 59 95 59 99 58 102 57 106 57 109 56 113 55 117 54 120 53 124 53 127 52 131 51 134 50 137 49 141 49 144 48 147 47 150 47 153 46 155 46 157 46 158 45 159 45 160 46 161 46 161 47 160 48 159 50 " />
        <polyline stroke="black" stroke-width="3" stroke-linecap="round" fill="transparent" stroke-linejoin="round" points="84 91 84 92 84 93 85 94 85 95 85 97 86 98 86 99 87 101 88 102 88 104 89 106 90 107 91 109 92 111 93 113 94 114 95 116 95 117 96 118 97 119 97 121 98 121 98 122 98 123 98 123 99 123 99 123 " />
        <polyline stroke="black" stroke-width="3" stroke-linecap="round" fill="transparent" stroke-linejoin="round" points="87 101 88 99 89 98 90 97 91 97 92 96 93 95 94 94 95 93 97 93 98 92 100 91 102 90 104 89 106 88 108 87 111 86 113 85 116 84 119 83 121 82 124 82 126 81 129 80 131 80 133 79 136 79 138 79 139 78 141 78 143 79 144 79 146 79 147 80 148 81 149 82 150 83 151 85 152 87 152 89 152 92 152 94 152 97 151 100 150 103 149 105 148 107 147 109 " />
        <polyline stroke="black" stroke-width="3" stroke-linecap="round" fill="transparent" stroke-linejoin="round" points="102 117 102 114 102 114 103 113 103 112 104 111 105 110 106 109 108 108 109 107 111 105 113 104 115 103 117 102 119 101 121 100 123 99 125 98 127 97 129 96 131 95 134 94 136 93 138 92 140 91 142 90 144 90 146 89 148 88 " />
        <polyline stroke="black" stroke-width="3" stroke-linecap="round" fill="transparent" stroke-linejoin="round" points="135 89 134 92 133 93 132 95 131 97 131 98 130 100 129 102 129 104 128 106 127 108 127 111 126 113 126 115 125 117 125 119 124 121 123 123 123 125 122 127 121 128 121 130 120 131 " />
        <polyline stroke="black" stroke-width="3" stroke-linecap="round" fill="transparent" stroke-linejoin="round" points="107 135 107 135 107 135 107 135 107 134 107 134 108 134 109 134 110 134 111 133 113 133 114 133 116 132 118 132 120 132 122 131 123 131 125 131 127 130 129 130 131 129 133 129 135 128 137 128 138 127 140 127 " />
        <polyline stroke="black" stroke-width="3" stroke-linecap="round" fill="transparent" stroke-linejoin="round" points="64 167 63 167 63 167 63 167 63 167 63 166 64 166 65 166 66 165 67 165 69 164 71 164 73 163 75 162 77 162 80 161 83 160 86 159 89 158 92 158 96 157 99 156 103 156 107 155 111 154 115 154 120 153 124 152 128 151 133 151 137 150 141 149 145 148 149 147 153 146 156 145 159 144 162 144 164 143 166 142 168 141 169 140 169 139 169 139 169 138 169 137 168 137 " />
        <polyline stroke="black" stroke-width="3" stroke-linecap="round" fill="transparent" stroke-linejoin="round" points="101 136 101 136 101 137 101 138 101 140 100 142 100 144 100 146 100 148 100 151 100 154 100 156 100 159 101 162 101 164 101 166 101 169 101 171 102 173 102 174 102 176 103 177 103 178 103 179 104 180 104 181 105 182 105 183 105 183 106 184 107 184 107 184 108 184 109 184 110 184 111 184 113 184 115 183 116 183 118 182 120 181 123 180 125 178 127 177 129 175 131 173 134 171 136 170 138 168 140 166 142 164 144 163 " />
        <polyline stroke="black" stroke-width="3" stroke-linecap="round" fill="transparent" stroke-linejoin="round" points="135 128 135 128 134 128 134 128 134 129 134 130 134 132 134 135 134 138 134 141 135 144 135 148 135 152 136 155 136 159 137 163 138 167 138 171 139 174 139 178 140 182 141 186 141 189 142 192 143 195 " />
        </svg>