<?xml version="1.0" standalone="no"?>
    <svg width="256" height="256" xmlns="http://www.w3.org/2000/svg" version="1.1">
    <polyline stroke="black" stroke-width="3" stroke-linecap="round" fill="transparent" stroke-linejoin="round" points="56.020233154296875 99.71304321289063 45.99554443359375 127.84681701660156 41.7916259765625 150.4832000732422 39.52801513671875 166.65203857421875 38.557891845703125 169.239013671875 38.557891845703125 169.239013671875 " />
        <polyline stroke="black" stroke-width="3" stroke-linecap="round" fill="transparent" stroke-linejoin="round" points="60.224151611328125 87.74810791015625 81.24362182617188 78.04681396484375 104.85009765625 69.63900756835938 134.92416381835938 59.61433410644531 160.47088623046875 50.883155822753906 178.25665283203125 45.38575744628906 186.341064453125 43.12212371826172 194.42547607421875 42.475364685058594 199.276123046875 44.73899841308594 200.24627685546875 52.82343292236328 191.83843994140625 77.07667541503906 176.31640625 105.85720825195313 169.2021484375 115.55850219726563 169.2021484375 115.55850219726563 " />
        <polyline stroke="black" stroke-width="3" stroke-linecap="round" fill="transparent" stroke-linejoin="round" points="59.9007568359375 171.502685546875 89.3280029296875 159.86111450195313 122.95919799804688 149.83644104003906 158.53070068359375 139.4883575439453 183.1072998046875 132.3740997314453 183.1072998046875 132.3740997314453 " />
        <polyline stroke="black" stroke-width="3" stroke-linecap="round" fill="transparent" stroke-linejoin="round" points="103.8800048828125 113.94161987304688 101.29296875 141.10525512695313 95.7955322265625 172.4727783203125 88.0345458984375 204.16372680664065 78.333251953125 233.59100341796875 67.33840942382813 257.197509765625 64.75137329101563 261.72479248046875 64.75137329101563 261.72479248046875 " />
        <polyline stroke="black" stroke-width="3" stroke-linecap="round" fill="transparent" stroke-linejoin="round" points="166.9384765625 76.7532958984375 169.2021484375 101.0065460205078 169.52545166015625 142.39877319335938 166.9384765625 202.8702392578125 166.29168701171875 229.71051025390625 166.29168701171875 229.71051025390625 " />
        </svg>