<?xml version="1.0" standalone="no"?>
    <svg width="256" height="256" xmlns="http://www.w3.org/2000/svg" version="1.1">
    <polyline stroke="black" stroke-width="3" stroke-linecap="round" fill="transparent" stroke-linejoin="round" points="74.08892822265625 71.6829833984375 80.8221435546875 83.31312561035156 84.49481201171875 95.55540466308594 88.16751098632813 108.40977478027344 89.3917236328125 118.81570434570313 88.16751098632813 123.71261596679688 86.94329833984375 122.48838806152344 86.3311767578125 113.91880798339844 86.94329833984375 99.84019470214844 89.3917236328125 90.04638671875 97.96133422851563 80.2525634765625 113.87628173828124 69.23452758789063 132.23968505859375 59.440704345703125 156.112060546875 52.70746612548828 179.9844970703125 49.64689636230469 197.1236572265625 51.48323822021485 203.85693359375 54.54380798339844 208.75384521484375 61.27705383300781 211.2022705078125 75.35565185546875 198.347900390625 101.67652893066406 167.74224853515625 125.5489501953125 167.74224853515625 125.5489501953125 " />
        <polyline stroke="black" stroke-width="3" stroke-linecap="round" fill="transparent" stroke-linejoin="round" points="55.1134033203125 166.560546875 65.51931762695313 160.43942260742188 81.43426513671875 152.48194885253906 110.81570434570313 142.07601928710938 127.95489501953124 136.56700134277344 148.7667236328125 131.6700897216797 164.069580078125 127.99740600585938 175.087646484375 121.26416015625 175.087646484375 121.26416015625 " />
        <polyline stroke="black" stroke-width="3" stroke-linecap="round" fill="transparent" stroke-linejoin="round" points="117.5489501953125 104.7371063232422 113.26416015625 115.75514221191406 103.4703369140625 151.8698272705078 94.28863525390624 185.53607177734375 90.00384521484375 201.45101928710935 85.71905517578125 214.30538940429688 85.71905517578125 214.30538940429688 " />
        <polyline stroke="black" stroke-width="3" stroke-linecap="round" fill="transparent" stroke-linejoin="round" points="142.64559936523438 104.12498474121094 141.42138671875 124.93684387207033 135.912353515625 167.17266845703125 129.79119873046875 217.365966796875 129.79119873046875 217.365966796875 " />
        </svg>