<?xml version="1.0" standalone="no"?>
    <svg width="256" height="256" xmlns="http://www.w3.org/2000/svg" version="1.1">
    <polyline stroke="black" stroke-width="3" stroke-linecap="round" fill="transparent" stroke-linejoin="round" points="57.50128173828125 91.27059936523438 56.88916015625 108.40977478027344 58.1134033203125 127.99740600585938 59.949737548828125 139.6275634765625 60.56182861328125 145.13658142089844 60.56182861328125 142.07601928710938 58.1134033203125 132.89431762695313 55.6649169921875 121.26416015625 55.6649169921875 112.694580078125 59.337615966796875 102.9007568359375 67.29510498046875 92.4948272705078 80.7615966796875 80.2525634765625 100.96133422851563 66.78607177734375 126.67010498046876 53.93169403076172 151.7667236328125 46.586334228515625 173.190673828125 44.74999237060547 184.82086181640625 47.198448181152344 191.5540771484375 52.09535217285156 197.0631103515625 62.50128173828125 197.0631103515625 82.70101928710938 184.82086181640625 109.02189636230467 167.68170166015625 134.73065185546875 167.68170166015625 134.73065185546875 " />
        <polyline stroke="black" stroke-width="3" stroke-linecap="round" fill="transparent" stroke-linejoin="round" points="43.42266845703125 173.29379272460938 61.78607177734375 169.62110900878906 78.3131103515625 165.9484405517578 107.08245849609376 159.21519470214844 127.89431762695313 153.70616149902344 149.93038940429688 148.1971435546875 166.45745849609375 142.68812561035156 175.02703857421875 137.7912139892578 179.31182861328125 131.6700897216797 179.31182861328125 131.6700897216797 " />
        <polyline stroke="black" stroke-width="3" stroke-linecap="round" fill="transparent" stroke-linejoin="round" points="107.694580078125 99.84019470214844 104.63400268554688 115.75514221191406 102.79766845703124 132.89431762695313 99.73712158203124 160.43942260742188 95.45230102539063 181.86338806152344 90.555419921875 199.61468505859375 83.21002197265625 214.91751098632813 83.21002197265625 214.91751098632813 " />
        <polyline stroke="black" stroke-width="3" stroke-linecap="round" fill="transparent" stroke-linejoin="round" points="122.38531494140624 105.96133422851563 127.89431762695313 123.10049438476563 130.3427734375 139.6275634765625 133.4033203125 164.11209106445313 136.46389770507813 181.86338806152344 137.6881103515625 197.7783203125 138.30023193359375 213.0811767578125 138.30023193359375 213.0811767578125 " />
        </svg>