<?xml version="1.0" standalone="no"?>
    <svg width="256" height="256" xmlns="http://www.w3.org/2000/svg" version="1.1">
    <polyline stroke="black" stroke-width="3" stroke-linecap="round" fill="transparent" stroke-linejoin="round" points="142.86669921875 41.86669158935547 131.1334228515625 60 117.2667236328125 81.33334350585938 92.7333984375 109.06668090820313 81.00006103515625 119.73338317871094 73.53338623046875 125.06671142578124 66.06671142578125 127.20001220703124 60.7333984375 127.20001220703124 60.7333984375 127.20001220703124 " />
        <polyline stroke="black" stroke-width="3" stroke-linecap="round" fill="transparent" stroke-linejoin="round" points="87.4000244140625 66.40000915527344 109.80010986328124 80.26667785644531 120.466796875 86.66667175292969 129 89.86669921875 132.2000732421875 93.06668090820313 134.3333740234375 94.1333465576172 135.4000244140625 94.1333465576172 135.4000244140625 94.1333465576172 " />
        <polyline stroke="black" stroke-width="3" stroke-linecap="round" fill="transparent" stroke-linejoin="round" points="177 101.60000610351563 152.466796875 117.60000610351563 141.8001708984375 122.93336486816406 125.80010986328124 132.53334045410156 117.2667236328125 135.73338317871094 106.60003662109376 136.80001831054688 106.60003662109376 136.80001831054688 " />
        <polyline stroke="black" stroke-width="3" stroke-linecap="round" fill="transparent" stroke-linejoin="round" points="103.4000244140625 93.06668090820313 109.80010986328124 114.40000915527344 111.93341064453124 125.06671142578124 116.2000732421875 149.6000213623047 118.3333740234375 168.80001831054688 120.466796875 182.66668701171875 123.666748046875 191.20001220703125 127.93341064453124 195.4666748046875 133.2667236328125 197.6000061035156 142.86669921875 197.6000061035156 156.7333984375 196.53335571289065 177 194.40005493164065 200.4666748046875 194.40005493164065 210.0667724609375 194.40005493164065 216.4666748046875 194.40005493164065 227.1334228515625 194.40005493164065 230.3333740234375 194.40005493164065 232.4666748046875 194.40005493164065 232.4666748046875 185.86666870117188 232.4666748046875 168.80001831054688 223.933349609375 159.20001220703125 223.933349609375 159.20001220703125 " />
        </svg>