<?xml version="1.0" standalone="no"?>
    <svg width="256" height="256" xmlns="http://www.w3.org/2000/svg" version="1.1">
    <polyline stroke="black" stroke-width="3" stroke-linecap="round" fill="transparent" stroke-linejoin="round" points="162.040771484375 41.67620086669922 147.2861328125 54.07008361816406 135.482421875 63.513031005859375 121.3179931640625 73.54617309570313 105.38299560546876 84.75967407226563 87.67745971679688 95.9731903076172 73.51303100585938 104.23577880859376 59.93878173828125 111.3179931640625 51.08599853515625 115.44927978515624 51.08599853515625 115.44927978515624 " />
        <polyline stroke="black" stroke-width="3" stroke-linecap="round" fill="transparent" stroke-linejoin="round" points="67.02099609375 38.72527313232422 77.64431762695313 41.08601379394531 87.0872802734375 46.98786163330078 98.30078125 54.66026306152344 111.87503051757813 65.28358459472656 124.2689208984375 75.31672668457031 133.71185302734375 82.98912048339844 141.38427734375 89.48115539550781 149.6468505859375 94.79281616210938 149.6468505859375 94.79281616210938 " />
        <polyline stroke="black" stroke-width="3" stroke-linecap="round" fill="transparent" stroke-linejoin="round" points="184.4677734375 101.28485107421876 177.9757080078125 110.72781372070313 167.3524169921875 116.62965393066406 150.82720947265625 123.7118682861328 128.99038696289063 133.1548309326172 103.61245727539063 144.95852661132813 83.54617309570313 154.9916534423828 69.971923828125 162.07388305664063 59.93878173828125 166.20516967773438 54.62713623046875 167.3855438232422 54.62713623046875 167.3855438232422 " />
        <polyline stroke="black" stroke-width="3" stroke-linecap="round" fill="transparent" stroke-linejoin="round" points="103.61245727539063 95.3830108642578 98.30078125 110.13761901855467 93.57931518554688 127.2529754638672 87.0872802734375 160.8935089111328 85.90692138671875 174.46775817871094 87.0872802734375 186.86163330078125 92.39892578125 195.12420654296875 103.02227783203124 201.02606201171875 122.49835205078124 201.02606201171875 139.61370849609375 198.66531372070313 153.18798828125 194.53402709960935 162.040771484375 190.4027404785156 167.94256591796875 185.6812744140625 172.0738525390625 179.18922424316406 172.6640625 167.97572326660156 172.6640625 167.97572326660156 " />
        </svg>