<?xml version="1.0" standalone="no"?>
    <svg width="256" height="256" xmlns="http://www.w3.org/2000/svg" version="1.1">
    <polyline stroke="black" stroke-width="3" stroke-linecap="round" fill="transparent" stroke-linejoin="round" points="75.4251708984375 74.33056640625 89.57196044921875 70.35177612304688 97.52947998046876 68.58343505859375 105.487060546875 67.25717163085938 121.40216064453124 65.0467529296875 129.35971069335938 64.16256713867188 143.06439208984375 62.83631896972656 154.1165771484375 61.067962646484375 159.8636474609375 60.18379211425781 161.63201904296875 59.74171447753906 161.63201904296875 59.74171447753906 " />
        <polyline stroke="black" stroke-width="3" stroke-linecap="round" fill="transparent" stroke-linejoin="round" points="78.519775390625 143.73809814453125 90.01400756835938 141.0855712890625 98.41366577148438 139.31724548339844 107.25537109375 137.54888916015625 116.09710693359376 135.33847045898438 132.45428466796875 131.35971069335938 145.71688842773438 127.822998046875 155.8848876953125 123.4021453857422 160.3057861328125 120.30752563476563 160.3057861328125 120.30752563476563 " />
        <polyline stroke="black" stroke-width="3" stroke-linecap="round" fill="transparent" stroke-linejoin="round" points="116.98129272460938 95.10861206054688 113.00250244140624 117.65501403808594 110.3499755859375 140.64352416992188 109.4658203125 151.69564819335938 109.90789794921876 174.6841278076172 111.67623901367188 195.0201110839844 113.00250244140624 206.072265625 113.00250244140624 206.072265625 " />
        </svg>