<?xml version="1.0" standalone="no"?>
    <svg width="256" height="256" xmlns="http://www.w3.org/2000/svg" version="1.1">
    <polyline stroke="black" stroke-width="3" stroke-linecap="round" fill="transparent" stroke-linejoin="round" points="93.119140625 59.40785217285156 90.227783203125 79.2342529296875 88.9886474609375 95.75627136230467 87.74951171875 112.27828979492188 86.92343139648438 129.21334838867188 85.68426513671875 157.30076599121094 85.68426513671875 167.21397399902344 85.68426513671875 181.25767517089844 85.68426513671875 188.279541015625 85.68426513671875 189.5186767578125 84.858154296875 188.279541015625 84.445068359375 181.67071533203125 84.03207397460938 170.93142700195313 85.68426513671875 161.01821899414063 87.33648681640625 157.30076599121094 93.119140625 150.27890014648438 115.01083374023438 138.3004608154297 131.5328369140625 131.27859497070313 146.40264892578125 124.25674438476563 157.5550537109375 118.47404479980467 166.22906494140625 111.865234375 172.4248046875 101.9520263671875 174.903076171875 93.27796936035156 174.4901123046875 75.103759765625 172.4248046875 65.1905517578125 172.01177978515625 64.77749633789063 168.7073974609375 67.66885375976563 163.750732421875 81.71255493164063 161.2724609375 91.62576293945313 154.2506103515625 124.6697998046875 149.29400634765625 145.3223114013672 145.98959350585938 154.82244873046875 137.72860717773438 170.93142700195313 128.6414794921875 180.4315643310547 123.27182006835938 184.56207275390625 123.27182006835938 184.56207275390625 " />
        <polyline stroke="black" stroke-width="3" stroke-linecap="round" fill="transparent" stroke-linejoin="round" points="90.640869140625 200.25799560546875 115.42388916015624 193.649169921875 131.11981201171875 189.9317321777344 144.33740234375 187.86648559570313 150.1201171875 187.86648559570313 150.1201171875 187.86648559570313 " />
        </svg>