<?xml version="1.0" standalone="no"?>
    <svg width="256" height="256" xmlns="http://www.w3.org/2000/svg" version="1.1">
    <polyline stroke="black" stroke-width="3" stroke-linecap="round" fill="transparent" stroke-linejoin="round" points="73.0770263671875 90.89373779296871 72.39242553710938 103.90142822265624 71.70782470703125 116.90911865234376 70.68087768554688 132.31298828125 68.96932983398438 162.4360809326172 68.96932983398438 189.82073974609375 70.33856201171875 208.30535888671875 71.023193359375 217.54766845703125 71.023193359375 217.54766845703125 " />
        <polyline stroke="black" stroke-width="3" stroke-linecap="round" fill="transparent" stroke-linejoin="round" points="95.32705688476563 80.28219604492188 104.22705078125 75.83218383789063 113.12704467773438 71.38217163085938 123.39633178710938 66.93215942382813 133.66552734375 63.50909423828125 144.619384765625 61.45524597167969 154.20404052734375 60.428314208984375 171.6617431640625 62.482177734375 183.64251708984375 68.98602294921875 193.5694580078125 83.70526123046875 200.7579345703125 112.45913696289063 199.73095703125 144.97837829589844 193.5694580078125 168.25531005859375 185.35406494140625 181.9476318359375 185.35406494140625 181.9476318359375 " />
        <polyline stroke="black" stroke-width="3" stroke-linecap="round" fill="transparent" stroke-linejoin="round" points="116.20782470703129 99.45143127441405 117.91937255859376 105.27066040039063 119.63092041015624 111.0898895263672 120.6578369140625 117.59373474121094 120.6578369140625 117.59373474121094 " />
        <polyline stroke="black" stroke-width="3" stroke-linecap="round" fill="transparent" stroke-linejoin="round" points="96.69628906249999 140.18606567382813 105.25399780273438 134.02452087402344 113.81170654296876 127.86297607421876 122.711669921875 122.38604736328124 130.92709350585938 117.59373474121094 144.277099609375 112.45913696289063 148.384765625 112.45913696289063 150.78094482421875 113.48605346679688 150.78094482421875 113.48605346679688 " />
        <polyline stroke="black" stroke-width="3" stroke-linecap="round" fill="transparent" stroke-linejoin="round" points="89.5078125 167.57070922851563 96.6962890625 163.4630126953125 103.884765625 159.35531616210938 120.6578369140625 149.4283905029297 128.87322998046875 144.29376220703125 136.746337890625 139.50144958496094 142.90789794921875 135.73606872558594 142.90789794921875 135.73606872558594 " />
        <polyline stroke="black" stroke-width="3" stroke-linecap="round" fill="transparent" stroke-linejoin="round" points="120.65783691406253 139.1591339111328 114.15399169921876 152.5091552734375 107.650146484375 165.8591766357422 104.91168212890624 172.36302185058594 99.77706909179688 188.10919189453125 98.4078369140625 193.92840576171875 98.4078369140625 193.92840576171875 " />
        <polyline stroke="black" stroke-width="3" stroke-linecap="round" fill="transparent" stroke-linejoin="round" points="132.29632568359375 158.32838439941406 140.16940307617188 160.72454833984375 148.04248046875 163.12071228027344 152.150146484375 168.59764099121094 152.150146484375 168.59764099121094 " />
        <polyline stroke="black" stroke-width="3" stroke-linecap="round" fill="transparent" stroke-linejoin="round" points="87.11172485351563 231.582275390625 96.35400390625 225.7630615234375 105.59628295898438 219.94384765625 116.8924560546875 213.43997192382813 129.21554565429688 206.5938415527344 142.90789794921875 200.0899658203125 168.2386474609375 193.24383544921875 168.2386474609375 193.24383544921875 " />
        </svg>