<?xml version="1.0" standalone="no"?>
    <svg width="256" height="256" xmlns="http://www.w3.org/2000/svg" version="1.1">
    <polyline stroke="black" stroke-width="3" stroke-linecap="round" fill="transparent" stroke-linejoin="round" points="87 67 87 67 89 67 91 69 91 73 91 80 90 89 88 98 87 108 85 117 83 127 81 136 80 140 " />
        <polyline stroke="black" stroke-width="3" stroke-linecap="round" fill="transparent" stroke-linejoin="round" points="56 171 56 171 59 170 61 168 64 167 68 164 73 162 78 159 83 155 88 150 93 145 101 135 107 127 110 123 113 118 " />
        <polyline stroke="black" stroke-width="3" stroke-linecap="round" fill="transparent" stroke-linejoin="round" points="115 56 114 57 114 59 113 67 111 76 111 82 109 102 108 117 107 132 107 146 107 158 107 168 107 176 108 182 109 186 110 187 " />
        <polyline stroke="black" stroke-width="3" stroke-linecap="round" fill="transparent" stroke-linejoin="round" points="156 53 156 53 156 52 157 51 157 51 157 55 157 59 156 74 154 87 152 101 150 115 147 128 144 139 142 148 140 154 138 156 137 158 " />
        <polyline stroke="black" stroke-width="3" stroke-linecap="round" fill="transparent" stroke-linejoin="round" points="129 145 129 145 131 142 135 140 139 138 144 135 149 132 155 130 160 127 166 124 172 121 178 118 181 116 184 113 " />
        <polyline stroke="black" stroke-width="3" stroke-linecap="round" fill="transparent" stroke-linejoin="round" points="187 28 187 28 186 32 185 39 183 51 182 65 180 82 178 100 177 119 176 138 175 165 175 180 174 193 174 204 174 215 175 220 " />
        </svg>