<?xml version="1.0" standalone="no"?>
    <svg width="256" height="256" xmlns="http://www.w3.org/2000/svg" version="1.1">
    <polyline stroke="black" stroke-width="3" stroke-linecap="round" fill="transparent" stroke-linejoin="round" points="87 77 87 77 87 77 88 78 88 81 88 85 87 92 86 100 85 109 84 122 83 131 81 138 79 145 77 150 73 155 72 157 " />
        <polyline stroke="black" stroke-width="3" stroke-linecap="round" fill="transparent" stroke-linejoin="round" points="54 166 54 166 54 166 54 166 56 166 59 165 64 163 71 161 77 159 83 157 89 155 96 152 102 148 109 144 116 139 119 135 122 132 " />
        <polyline stroke="black" stroke-width="3" stroke-linecap="round" fill="transparent" stroke-linejoin="round" points="115 64 114 64 112 65 111 68 110 74 108 86 107 97 106 109 106 122 106 135 106 148 107 159 107 170 107 179 108 189 109 193 110 195 110 196 112 197 " />
        <polyline stroke="black" stroke-width="3" stroke-linecap="round" fill="transparent" stroke-linejoin="round" points="157 86 157 86 157 83 157 81 157 80 157 82 156 87 154 95 152 105 149 116 146 127 143 138 140 148 137 156 135 161 132 165 130 167 128 167 126 167 125 166 126 165 127 164 129 163 133 161 136 159 141 157 146 155 151 153 156 150 165 146 172 142 179 137 186 131 190 127 193 123 " />
        <polyline stroke="black" stroke-width="3" stroke-linecap="round" fill="transparent" stroke-linejoin="round" points="189 67 189 67 187 68 186 71 184 76 182 85 181 95 179 107 177 128 176 142 175 157 175 171 174 184 173 196 172 208 171 218 171 227 172 231 " />
        </svg>