<?xml version="1.0" standalone="no"?>
    <svg width="256" height="256" xmlns="http://www.w3.org/2000/svg" version="1.1">
    <polyline stroke="black" stroke-width="3" stroke-linecap="round" fill="transparent" stroke-linejoin="round" points="89.57342529296875 65.56184387207031 90.79766845703124 77.80410766601563 91.4097900390625 90.6584930419922 90.79766845703124 99.2280731201172 90.79766845703124 104.7371063232422 90.79766845703124 108.40977478027344 92.02191162109376 105.34921264648438 94.4703369140625 98.615966796875 98.14300537109376 91.27059936523438 105.4884033203125 81.47679138183594 114.0579833984375 72.29508972167969 124.46389770507813 62.50128173828125 142.2152099609375 51.48323822021485 159.96649169921875 45.36210632324219 171.59661865234375 44.74999237060547 178.329833984375 46.586334228515625 182.0025634765625 50.259010314941406 182.0025634765625 56.99226379394531 175.269287109375 74.74354553222656 156.2938232421875 97.39173889160156 156.2938232421875 97.39173889160156 " />
        <polyline stroke="black" stroke-width="3" stroke-linecap="round" fill="transparent" stroke-linejoin="round" points="57.131439208984375 128.60952758789063 74.27059936523438 122.48838806152344 100.59149169921876 112.694580078125 125.07601928710938 105.34921264648438 151.39691162109375 99.84019470214844 169.76025390625 96.77963256835938 184.4510498046875 94.94328308105467 192.408447265625 93.10694885253906 197.91748046875 92.4948272705078 199.1417236328125 92.4948272705078 194.85693359375 96.77963256835938 194.85693359375 96.77963256835938 " />
        <polyline stroke="black" stroke-width="3" stroke-linecap="round" fill="transparent" stroke-linejoin="round" points="106.10049438476563 170.2332305908203 106.10049438476563 178.19070434570313 106.10049438476563 184.9239501953125 104.87628173828124 190.4329833984375 103.65203857421876 194.10565185546875 103.65203857421876 195.32986450195313 106.10049438476563 192.26931762695313 110.99740600585938 183.08761596679688 120.17910766601563 167.78477478027344 130.58502197265625 153.09405517578125 139.7667236328125 143.912353515625 152.62109375 135.9548797607422 163.63916015625 131.6700897216797 173.4329833984375 131.6700897216797 180.166259765625 133.5064239501953 183.8388671875 139.01544189453125 183.8388671875 146.36080932617188 175.88140869140625 162.2757568359375 152.009033203125 183.08761596679688 152.009033203125 183.08761596679688 " />
        <polyline stroke="black" stroke-width="3" stroke-linecap="round" fill="transparent" stroke-linejoin="round" points="107.93682861328124 194.10565185546875 126.30023193359376 186.76028442382813 147.11209106445313 180.02703857421875 163.63916015625 175.74224853515625 186.89947509765625 169.62110900878906 186.89947509765625 169.62110900878906 " />
        </svg>