<?xml version="1.0" standalone="no"?>
    <svg width="256" height="256" xmlns="http://www.w3.org/2000/svg" version="1.1">
    <polyline stroke="black" stroke-width="3" stroke-linecap="round" fill="transparent" stroke-linejoin="round" points="74 82 74 83 75 86 76 90 77 95 79 104 81 109 82 114 83 119 85 122 86 124 88 124 89 123 " />
        <polyline stroke="black" stroke-width="3" stroke-linecap="round" fill="transparent" stroke-linejoin="round" points="91 75 95 74 100 73 106 71 112 70 118 68 124 66 130 64 136 63 141 63 145 64 148 66 150 74 149 82 146 90 141 100 134 109 131 113 " />
        <polyline stroke="black" stroke-width="3" stroke-linecap="round" fill="transparent" stroke-linejoin="round" points="57 148 55 147 53 145 52 143 53 140 56 137 60 133 70 128 75 126 91 122 103 120 117 119 130 118 143 117 155 116 166 114 175 113 182 112 185 112 " />
        <polyline stroke="black" stroke-width="3" stroke-linecap="round" fill="transparent" stroke-linejoin="round" points="95 166 91 172 90 178 89 184 89 189 90 193 91 196 92 200 94 200 96 200 96 199 " />
        <polyline stroke="black" stroke-width="3" stroke-linecap="round" fill="transparent" stroke-linejoin="round" points="97 162 100 159 104 156 108 154 114 152 120 151 127 151 133 151 140 152 145 153 151 157 153 163 152 171 149 180 142 189 134 198 125 205 120 207 " />
        <polyline stroke="black" stroke-width="3" stroke-linecap="round" fill="transparent" stroke-linejoin="round" points="87 212 87 211 90 209 98 207 105 205 114 204 124 203 134 204 144 206 149 208 154 210 " />
        </svg>