<?xml version="1.0" standalone="no"?>
    <svg width="256" height="256" xmlns="http://www.w3.org/2000/svg" version="1.1">
    <polyline stroke="black" stroke-width="3" stroke-linecap="round" fill="transparent" stroke-linejoin="round" points="85.88827514648438 83.68426513671875 96.799560546875 81.5859375 118.20257568359376 79.06793212890625 155.97259521484375 76.9696044921875 171.08056640625 75.29093933105469 171.08056640625 75.29093933105469 " />
        <polyline stroke="black" stroke-width="3" stroke-linecap="round" fill="transparent" stroke-linejoin="round" points="161.847900390625 45.074951171875 154.29388427734375 61.86161804199219 141.28427124023438 87.04159545898438 126.17623901367188 112.22160339355467 118.62225341796876 123.97227478027344 111.90756225585938 133.62457275390625 93.8619384765625 154.60791015625 88.825927734375 159.64390563964844 88.825927734375 159.64390563964844 " />
        <polyline stroke="black" stroke-width="3" stroke-linecap="round" fill="transparent" stroke-linejoin="round" points="103.51425170898438 114.31993103027344 114.42559814453124 115.15927124023438 121.14022827148438 116.41827392578124 129.5335693359375 118.096923828125 137.92694091796875 119.77560424804688 169.40191650390625 129.8475799560547 176.1165771484375 133.20492553710938 176.1165771484375 133.20492553710938 " />
        <polyline stroke="black" stroke-width="3" stroke-linecap="round" fill="transparent" stroke-linejoin="round" points="106.87158203125 168.0372314453125 123.23858642578124 165.51922607421875 130.79257202148438 164.67990112304688 138.3465576171875 164.26023864746094 145.90057373046875 164.26023864746094 160.16925048828125 164.26023864746094 166.4642333984375 164.67990112304688 166.4642333984375 164.67990112304688 " />
        <polyline stroke="black" stroke-width="3" stroke-linecap="round" fill="transparent" stroke-linejoin="round" points="66.58358764648438 227.6298828125 77.49496459960938 225.53155517578125 95.12094116210938 223.0135498046875 105.61260986328124 221.75454711914065 128.27459716796875 220.07589721679688 151.356201171875 220.07589721679688 173.17889404296875 220.91522216796875 194.5819091796875 225.11187744140625 201.71624755859375 227.6298828125 201.71624755859375 227.6298828125 " />
        </svg>