<?xml version="1.0" standalone="no"?>
    <svg width="256" height="256" xmlns="http://www.w3.org/2000/svg" version="1.1">
    <polyline stroke="black" stroke-width="3" stroke-linecap="round" fill="transparent" stroke-linejoin="round" points="77.69564819335938 78.8587646484375 105.69003295898438 72.63778686523438 115.021484375 70.56411743164063 132.129150390625 66.41680908203125 139.9053955078125 64.3431396484375 154.939453125 60.7142333984375 165.826171875 57.60374450683594 173.6024169921875 53.97484588623047 178.78656005859375 50.34593963623047 178.78656005859375 50.34593963623047 " />
        <polyline stroke="black" stroke-width="3" stroke-linecap="round" fill="transparent" stroke-linejoin="round" points="168.9366455078125 -1.4955596923828125 150.273681640625 28.572509765625 141.46063232421875 43.08812713623047 132.6475830078125 60.195831298828125 108.800537109375 104.26109313964844 90.1375732421875 136.92124938964844 80.80609130859375 150.4000244140625 70.95623779296875 161.2867431640625 70.95623779296875 161.2867431640625 " />
        <polyline stroke="black" stroke-width="3" stroke-linecap="round" fill="transparent" stroke-linejoin="round" points="70.95623779296875 119.81353759765624 83.91659545898438 117.73989868164063 93.248046875 116.70304870605467 103.61639404296876 115.66622924804688 126.42660522460938 115.14781188964844 136.2764892578125 115.14781188964844 155.4578857421875 116.18463134765624 169.455078125 117.22146606445313 176.1944580078125 118.25830078125 178.26812744140625 118.77671813964844 178.26812744140625 118.77671813964844 " />
        <polyline stroke="black" stroke-width="3" stroke-linecap="round" fill="transparent" stroke-linejoin="round" points="94.28488159179688 166.47091674804688 110.8741455078125 163.36041259765625 131.09237670898438 159.21307373046875 151.8289794921875 155.58419799804688 169.455078125 152.47369384765625 186.562744140625 149.88162231445313 186.562744140625 149.88162231445313 " />
        <polyline stroke="black" stroke-width="3" stroke-linecap="round" fill="transparent" stroke-linejoin="round" points="50.2196044921875 230.2359313964844 63.69842529296875 228.68069458007813 77.17718505859375 226.6070251464844 91.17440795898438 225.05178833007813 123.83456420898438 219.86764526367188 151.8289794921875 216.75714111328125 176.1944580078125 216.75714111328125 191.7469482421875 218.830810546875 191.7469482421875 218.830810546875 " />
        </svg>