<?xml version="1.0" standalone="no"?>
    <svg width="256" height="256" xmlns="http://www.w3.org/2000/svg" version="1.1">
    <polyline stroke="black" stroke-width="3" stroke-linecap="round" fill="transparent" stroke-linejoin="round" points="73.262939453125 101.23379516601563 95.71917724609376 83.589599609375 122.98745727539063 65.9454345703125 143.83969116210938 53.11328887939453 151.8597412109375 47.766571044921875 151.8597412109375 47.766571044921875 " />
        <polyline stroke="black" stroke-width="3" stroke-linecap="round" fill="transparent" stroke-linejoin="round" points="149.72109985351563 42.95452117919922 133.680908203125 77.17353820800781 121.91812133789063 110.32321166992188 111.75936889648438 140.26486206054688 106.41259765625 156.83969116210938 102.13525390625 168.60247802734375 95.18450927734376 176.62257385253906 95.18450927734376 176.62257385253906 " />
        <polyline stroke="black" stroke-width="3" stroke-linecap="round" fill="transparent" stroke-linejoin="round" points="73.797607421875 111.92723083496094 123.52215576171876 129.0367431640625 176.45465087890625 143.472900390625 228.8525390625 155.77035522460938 264.675537109375 161.65174865722656 264.675537109375 161.65174865722656 " />
        <polyline stroke="black" stroke-width="3" stroke-linecap="round" fill="transparent" stroke-linejoin="round" points="108.01666259765624 168.60247802734375 158.810546875 154.70098876953125 175.38531494140625 153.63165283203125 175.38531494140625 153.63165283203125 " />
        <polyline stroke="black" stroke-width="3" stroke-linecap="round" fill="transparent" stroke-linejoin="round" points="74.86700439453125 235.97116088867188 116.57144165039063 216.72299194335935 171.10797119140625 199.61346435546875 221.90185546875 189.9893493652344 244.35809326171875 186.7813415527344 244.35809326171875 186.7813415527344 " />
        </svg>