<?xml version="1.0" standalone="no"?>
    <svg width="256" height="256" xmlns="http://www.w3.org/2000/svg" version="1.1">
    <polyline stroke="black" stroke-width="3" stroke-linecap="round" fill="transparent" stroke-linejoin="round" points="67.46762084960938 76.54098510742188 83.38275146484375 72.56221008300781 92.22445678710938 71.2359619140625 101.50827026367188 69.90969848632813 119.19171142578124 66.81509399414063 136.87518310546875 64.16256713867188 151.9061279296875 61.9521484375 164.2845458984375 60.625885009765625 171.79998779296875 59.74171447753906 174.01043701171875 59.29962158203125 174.01043701171875 59.29962158203125 " />
        <polyline stroke="black" stroke-width="3" stroke-linecap="round" fill="transparent" stroke-linejoin="round" points="150.13775634765625 38.07948303222656 141.2960205078125 55.32084655761719 136.43307495117188 64.60466003417969 131.12802124023438 74.33056640625 125.38095092773438 84.05645751953125 112.56039428710938 104.39242553710938 100.1820068359375 120.30752563476563 89.12985229492188 132.24386596679688 80.73019409179688 140.20140075683594 80.73019409179688 140.20140075683594 " />
        <polyline stroke="black" stroke-width="3" stroke-linecap="round" fill="transparent" stroke-linejoin="round" points="68.79388427734375 109.69744873046876 86.03524780273438 110.13955688476563 103.71868896484376 111.4658203125 113.00250244140624 112.3499755859375 132.45428466796875 115.0024871826172 148.81149291992188 118.09710693359376 161.18988037109375 120.74961853027344 167.82122802734375 122.96005249023438 169.58953857421875 123.84422302246094 169.58953857421875 123.84422302246094 " />
        <polyline stroke="black" stroke-width="3" stroke-linecap="round" fill="transparent" stroke-linejoin="round" points="99.29782104492188 175.56829833984375 113.444580078125 172.0316162109375 120.07589721679688 170.26327514648438 127.14926147460938 168.49493408203125 133.780517578125 166.72659301757813 150.579833984375 163.63198852539063 158.537353515625 162.30572509765625 164.2845458984375 160.53738403320313 164.2845458984375 160.53738403320313 " />
        <polyline stroke="black" stroke-width="3" stroke-linecap="round" fill="transparent" stroke-linejoin="round" points="36.521575927734375 223.7557373046875 50.6683349609375 218.89276123046875 60.39422607421875 216.240234375 71.44638061523438 213.58773803710935 82.05645751953125 210.93521118164065 113.00250244140624 207.3985290527344 134.66473388671875 206.51434326171875 155.000732421875 206.51434326171875 172.2420654296875 206.9564208984375 184.6204833984375 208.28271484375 192.57806396484375 210.93521118164065 192.57806396484375 210.93521118164065 " />
        </svg>