<?xml version="1.0" standalone="no"?>
    <svg width="256" height="256" xmlns="http://www.w3.org/2000/svg" version="1.1">
    <polyline stroke="black" stroke-width="3" stroke-linecap="round" fill="transparent" stroke-linejoin="round" points="65.20428466796875 58.97979736328125 76.39697265625 56.09135437011719 83.61810302734375 53.925018310546875 91.561279296875 51.758689880371094 99.50448608398438 49.95342254638672 115.751953125 47.06498718261719 130.55523681640625 45.25970458984375 143.55319213867188 44.53759765625 152.57958984375 43.45442962646485 157.6343994140625 42.732322692871094 159.07855224609375 42.01020812988281 159.07855224609375 42.01020812988281 " />
        <polyline stroke="black" stroke-width="3" stroke-linecap="round" fill="transparent" stroke-linejoin="round" points="91.2001953125 65.83984375 91.2001953125 79.5599365234375 92.28338623046876 86.05892944335938 95.53289794921876 94.00213623046876 97.33819580078124 95.80740356445313 108.89193725585938 98.33480834960938 116.11300659179688 96.52951049804688 116.11300659179688 96.52951049804688 " />
        <polyline stroke="black" stroke-width="3" stroke-linecap="round" fill="transparent" stroke-linejoin="round" points="177.13134765625 65.83984375 166.6607666015625 76.31044006347656 151.85748291015625 87.86419677734375 142.47006225585938 94.00213623046876 133.08261108398438 99.77902221679688 115.39093017578124 110.24961853027344 107.44769287109376 114.58226013183594 93.72763061523438 121.08123779296876 82.534912109375 125.41390991210938 76.035888671875 127.58024597167967 72.78643798828125 128.66342163085938 72.42538452148438 128.30235290527344 74.5916748046875 127.21917724609376 83.9791259765625 124.33074951171876 101.30975341796876 120.359130859375 120.08465576171876 117.83175659179688 139.22055053710938 116.38754272460938 157.2733154296875 115.66543579101563 171.71551513671875 114.22122192382813 181.1029052734375 112.05487060546876 185.796630859375 108.44432067871094 185.796630859375 108.44432067871094 " />
        <polyline stroke="black" stroke-width="3" stroke-linecap="round" fill="transparent" stroke-linejoin="round" points="138.13739013671875 59.340850830078125 139.22055053710938 68.728271484375 139.942626953125 83.53153991699219 141.02581787109375 101.58428955078124 143.192138671875 129.38552856445313 144.6363525390625 145.63299560546875 144.99740600585938 159.3530731201172 143.91424560546875 169.1015625 141.02581787109375 176.32266235351563 141.02581787109375 176.32266235351563 " />
        <polyline stroke="black" stroke-width="3" stroke-linecap="round" fill="transparent" stroke-linejoin="round" points="87.58969116210938 142.38348388671875 93.0054931640625 149.60459899902344 95.53289794921876 152.49302673339844 98.78240966796876 155.3814697265625 109.25299072265624 161.5194091796875 122.97308349609376 165.85208129882813 131.63836669921875 166.9352264404297 152.218505859375 164.4078369140625 171.35443115234375 156.82568359375 185.07452392578125 149.96563720703125 192.295654296875 146.3551025390625 196.2672119140625 144.54983520507813 198.072509765625 143.46665954589844 197.71142578125 143.82772827148438 196.6282958984375 144.54983520507813 186.15771484375 152.49302673339844 161.967041015625 168.74050903320313 138.13739013671875 183.90481567382813 117.55722045898438 195.81964111328125 101.30975341796876 205.568115234375 90.47811889648438 211.7060546875 84.70126342773438 214.59451293945313 82.534912109375 215.67767333984375 82.173828125 215.67767333984375 86.8675537109375 216.3997802734375 101.30975341796876 216.03872680664065 122.97308349609376 214.23345947265625 143.91424560546875 213.1502685546875 163.4112548828125 213.1502685546875 182.18609619140625 213.87237548828125 199.5167236328125 214.95556640625 215.0421142578125 216.3997802734375 221.1800537109375 217.48294067382813 221.1800537109375 217.48294067382813 " />
        </svg>