<?xml version="1.0" standalone="no"?>
    <svg width="256" height="256" xmlns="http://www.w3.org/2000/svg" version="1.1">
    <polyline stroke="black" stroke-width="3" stroke-linecap="round" fill="transparent" stroke-linejoin="round" points="50.87152099609375 82.48123168945313 67.01132202148438 74.64189147949219 77.15634155273438 70.49165344238281 89.14593505859375 65.88027954101563 100.21322631835938 61.73002624511719 123.73129272460938 52.968406677246094 144.02133178710938 46.973602294921875 156.47210693359375 44.20677947998047 161.08349609375 42.8233642578125 161.08349609375 42.8233642578125 " />
        <polyline stroke="black" stroke-width="3" stroke-linecap="round" fill="transparent" stroke-linejoin="round" points="86.37908935546875 89.3983154296875 83.151123046875 103.23245239257813 83.151123046875 110.14952087402344 83.61227416992188 117.06658935546876 85.91796875 125.82821655273438 87.76254272460938 127.67277526855467 96.06298828125 129.0561981201172 113.58627319335938 122.13912963867188 135.25973510742188 105.999267578125 148.63275146484375 94.4708251953125 156.01092529296875 88.47602844238281 158.316650390625 87.09262084960938 157.85546875 88.014892578125 144.943603515625 100.4656219482422 112.66400146484376 124.44479370117188 85.91796875 140.58462524414063 71.62274169921875 147.96282958984375 66.08905029296875 149.80740356445313 66.08905029296875 147.96282958984375 76.6951904296875 138.2789306640625 101.59664916992188 124.90594482421876 128.3426513671875 115.2220458984375 153.244140625 110.14952087402344 168.461669921875 107.3826904296875 168.461669921875 107.3826904296875 " />
        <polyline stroke="black" stroke-width="3" stroke-linecap="round" fill="transparent" stroke-linejoin="round" points="127.88153076171876 68.6470947265625 120.50335693359376 100.00448608398438 119.5810546875 124.44479370117188 120.96444702148438 147.96282958984375 122.34786987304688 164.56381225585938 121.42559814453124 175.631103515625 119.119873046875 181.62591552734375 119.119873046875 181.62591552734375 " />
        <polyline stroke="black" stroke-width="3" stroke-linecap="round" fill="transparent" stroke-linejoin="round" points="51.79376220703125 163.64154052734375 65.62789916992188 170.0974578857422 74.85067749023438 171.4808807373047 85.45684814453125 171.4808807373047 126.03695678710938 156.72447204589844 158.316650390625 139.2012176513672 163.85028076171875 136.89553833007813 171.228515625 135.05096435546875 171.68963623046875 136.89553833007813 169.8450927734375 139.662353515625 156.9332275390625 152.57421875 114.96966552734376 180.70364379882813 93.75732421875 193.15435791015625 78.07861328125 200.5325927734375 69.31698608398438 204.68280029296875 67.01132202148438 206.06622314453125 65.166748046875 207.44964599609375 68.85589599609375 208.37191772460935 108.51373291015624 202.37713623046875 141.71566772460938 198.22686767578125 172.6119384765625 197.30462646484375 198.89678955078125 203.2994079589844 198.89678955078125 203.2994079589844 " />
        </svg>