<?xml version="1.0" standalone="no"?>
    <svg width="256" height="256" xmlns="http://www.w3.org/2000/svg" version="1.1">
    <polyline stroke="black" stroke-width="3" stroke-linecap="round" fill="transparent" stroke-linejoin="round" points="55 65 65 61 74 60 94 54 106 52 141 50 163 49 176 49 180 49 180 49 " />
        <polyline stroke="black" stroke-width="3" stroke-linecap="round" fill="transparent" stroke-linejoin="round" points="78 80 81 93 92 102 97 104 97 104 " />
        <polyline stroke="black" stroke-width="3" stroke-linecap="round" fill="transparent" stroke-linejoin="round" points="175 73 148 90 132 104 111 118 111 118 " />
        <polyline stroke="black" stroke-width="3" stroke-linecap="round" fill="transparent" stroke-linejoin="round" points="55 142 70 134 78 133 93 128 109 125 126 123 141 121 154 119 163 118 163 118 " />
        <polyline stroke="black" stroke-width="3" stroke-linecap="round" fill="transparent" stroke-linejoin="round" points="118 74 119 82 119 91 119 107 120 115 121 137 121 147 121 168 118 185 110 197 110 197 " />
        <polyline stroke="black" stroke-width="3" stroke-linecap="round" fill="transparent" stroke-linejoin="round" points="62 162 79 165 85 166 103 169 103 169 " />
        <polyline stroke="black" stroke-width="3" stroke-linecap="round" fill="transparent" stroke-linejoin="round" points="168 151 153 157 141 169 124 184 124 184 " />
        <polyline stroke="black" stroke-width="3" stroke-linecap="round" fill="transparent" stroke-linejoin="round" points="55 206 82 201 105 197 128 194 150 190 170 188 189 188 209 188 216 188 216 188 " />
        </svg>