<?xml version="1.0" standalone="no"?>
    <svg width="256" height="256" xmlns="http://www.w3.org/2000/svg" version="1.1">
    <polyline stroke="black" stroke-width="3" stroke-linecap="round" fill="transparent" stroke-linejoin="round" points="82.38925170898438 61.80621337890625 95.78717041015624 49.01728057861328 105.5311279296875 42.318321228027344 117.7110595703125 37.44635009765625 131.10897827148438 34.4013671875 145.11590576171875 33.79237365722656 155.46881103515625 38.05534362792969 162.16778564453125 44.14530944824219 167.039794921875 55.71624755859375 165.2127685546875 73.37713623046875 156.68682861328125 91.0380401611328 146.94287109375 102.60897827148438 146.94287109375 102.60897827148438 " />
        <polyline stroke="black" stroke-width="3" stroke-linecap="round" fill="transparent" stroke-linejoin="round" points="104.922119140625 49.01728057861328 104.3131103515625 64.2421875 102.48614501953124 76.422119140625 100.65914916992188 87.99305725097656 99.441162109375 98.3459930419922 99.441162109375 104.43595886230467 100.65914916992188 108.08993530273438 106.14013671875 109.30793762207033 116.4930419921875 106.8719482421875 132.93597412109375 101.99996948242188 153.641845703125 98.3459930419922 171.302734375 100.17298889160156 186.52764892578125 108.6989288330078 197.48956298828125 123.31484985351563 204.18853759765625 144.62973022460938 203.57952880859375 162.29061889648438 198.70758056640625 175.68853759765625 189.5726318359375 183.60549926757813 163.9947509765625 192.74044799804688 140.243896484375 190.9134521484375 122.5830078125 184.21450805664065 122.5830078125 184.21450805664065 " />
        <polyline stroke="black" stroke-width="3" stroke-linecap="round" fill="transparent" stroke-linejoin="round" points="79.95327758789063 142.802734375 80.562255859375 159.24563598632813 81.1712646484375 170.20758056640625 81.1712646484375 178.7335205078125 81.1712646484375 184.21450805664065 81.1712646484375 186.6504821777344 81.1712646484375 184.21450805664065 83.60723876953125 177.51553344726563 90.30621337890624 162.8996124267578 98.8321533203125 147.06570434570313 111.0120849609375 133.0587921142578 124.41000366210938 122.7058563232422 137.19891357421875 116.00689697265624 147.5518798828125 115.3979034423828 156.07781982421875 117.83387756347656 162.16778564453125 123.92384338378906 167.039794921875 134.8857879638672 168.25775146484375 148.28370666503906 164.603759765625 159.24563598632813 159.122802734375 167.16259765625 151.20587158203125 173.86155700683594 145.72488403320313 175.68853759765625 145.72488403320313 175.68853759765625 " />
        <polyline stroke="black" stroke-width="3" stroke-linecap="round" fill="transparent" stroke-linejoin="round" points="49.503448486328125 183.60549926757813 61.683380126953125 182.38751220703125 72.03631591796875 179.95152282714844 86.6522216796875 176.29754638671875 110.403076171875 171.42556762695313 140.8529052734375 164.7266082763672 162.77679443359375 159.85464477539063 185.3096923828125 154.982666015625 201.7525634765625 150.71969604492188 210.88751220703125 147.06570434570313 215.759521484375 144.02073669433594 215.759521484375 139.75775146484375 212.7144775390625 134.2767791748047 212.7144775390625 134.2767791748047 " />
        <polyline stroke="black" stroke-width="3" stroke-linecap="round" fill="transparent" stroke-linejoin="round" points="166.4307861328125 121.48785400390624 156.07781982421875 134.2767791748047 151.8148193359375 144.02073669433594 145.11590576171875 156.80966186523438 135.98095703125 168.9895782470703 125.62799072265624 178.7335205078125 113.44805908203124 187.25949096679688 102.48614501953124 192.74044799804688 93.3511962890625 197.00341796875 87.8702392578125 199.43939208984375 85.43423461914063 200.65740966796875 87.8702392578125 200.65740966796875 93.960205078125 199.43939208984375 109.18511962890624 196.3944091796875 129.281982421875 190.9134521484375 148.160888671875 186.04147338867188 161.55877685546875 184.21450805664065 161.55877685546875 184.21450805664065 " />
        </svg>