<?xml version="1.0" standalone="no"?>
    <svg width="256" height="256" xmlns="http://www.w3.org/2000/svg" version="1.1">
    <polyline stroke="black" stroke-width="3" stroke-linecap="round" fill="transparent" stroke-linejoin="round" points="90 57 89 57 87 57 89 57 95 56 102 54 105 53 117 51 130 50 143 50 153 49 162 48 168 48 171 47 173 47 174 47 174 48 173 49 171 53 168 62 162 73 155 85 148 96 144 101 144 103 144 103 " />
        <polyline stroke="black" stroke-width="3" stroke-linecap="round" fill="transparent" stroke-linejoin="round" points="108 79 108 77 107 78 106 83 103 93 98 108 90 123 85 131 83 134 79 139 79 139 " />
        <polyline stroke="black" stroke-width="3" stroke-linecap="round" fill="transparent" stroke-linejoin="round" points="106 106 105 106 104 106 103 106 104 105 106 104 108 104 109 104 113 102 116 102 120 101 123 100 127 99 131 99 133 98 143 97 153 97 157 97 171 96 181 96 184 95 187 95 200 94 202 94 201 94 200 94 201 94 202 94 202 95 202 96 201 96 201 97 200 97 201 97 202 97 203 97 204 97 205 97 206 98 206 99 206 100 206 101 206 102 206 104 206 105 206 106 206 111 205 116 203 122 201 129 198 134 197 136 192 145 187 154 183 162 179 170 177 175 175 180 173 183 171 186 169 188 169 189 167 191 166 192 165 193 165 194 165 195 164 195 163 196 163 197 162 197 162 198 161 198 160 199 159 199 158 199 158 200 157 200 157 201 156 201 156 202 154 202 151 200 147 196 145 194 138 188 132 181 132 181 " />
        <polyline stroke="black" stroke-width="3" stroke-linecap="round" fill="transparent" stroke-linejoin="round" points="87 145 87 143 87 142 88 143 90 148 91 156 93 164 95 170 96 174 96 175 97 177 97 177 " />
        <polyline stroke="black" stroke-width="3" stroke-linecap="round" fill="transparent" stroke-linejoin="round" points="98 143 97 143 97 142 97 141 98 139 105 137 113 135 122 134 130 133 136 132 139 132 140 132 140 133 140 137 140 143 140 151 138 159 136 166 135 171 134 174 133 174 133 174 " />
        <polyline stroke="black" stroke-width="3" stroke-linecap="round" fill="transparent" stroke-linejoin="round" points="71 167 71 166 77 163 89 158 96 156 114 152 133 149 152 146 166 143 171 143 172 143 172 144 171 145 171 145 " />
        <polyline stroke="black" stroke-width="3" stroke-linecap="round" fill="transparent" stroke-linejoin="round" points="105 177 103 176 103 175 105 174 106 174 112 171 122 169 134 167 144 167 149 167 151 167 151 167 " />
        <polyline stroke="black" stroke-width="3" stroke-linecap="round" fill="transparent" stroke-linejoin="round" points="117 140 117 139 116 139 116 145 116 150 116 153 116 162 116 170 116 172 116 172 " />
        </svg>