<?xml version="1.0" standalone="no"?>
    <svg width="256" height="256" xmlns="http://www.w3.org/2000/svg" version="1.1">
    <polyline stroke="black" stroke-width="3" stroke-linecap="round" fill="transparent" stroke-linejoin="round" points="86.7353515625 74.63284301757813 84.257080078125 88.67654418945313 77.23519897460938 120.48143005371094 68.56112670898438 155.5906982421875 61.539306640625 183.6781005859375 56.58270263671875 201.0262451171875 51.21307373046875 213.417724609375 51.21307373046875 213.417724609375 " />
        <polyline stroke="black" stroke-width="3" stroke-linecap="round" fill="transparent" stroke-linejoin="round" points="84.67010498046875 97.76365661621094 104.08346557617188 82.0677490234375 110.6922607421875 77.11114501953125 125.97509765625 68.0240478515625 140.84494018554688 61.828277587890625 154.4755859375 59.763031005859375 163.562744140625 63.48048400878906 170.99761962890625 74.63284301757813 177.193359375 99.41587829589844 179.2586669921875 127.91635131835938 180.084716796875 151.46018981933594 182.56298828125 170.04745483398438 186.69354248046875 184.0911865234375 192.06317138671875 194.41741943359375 197.84588623046875 201.43927001953125 204.0416259765625 205.98284912109375 211.88958740234375 208.46112060546875 219.737548828125 206.80892944335935 227.1724853515625 197.72183227539065 232.5421142578125 186.15643310546875 232.5421142578125 186.15643310546875 " />
        <polyline stroke="black" stroke-width="3" stroke-linecap="round" fill="transparent" stroke-linejoin="round" points="113.5836181640625 121.30752563476563 123.90988159179688 125.85107421875 128.04037475585938 128.32937622070313 132.1708984375 130.80767822265625 139.19271850585938 135.7642822265625 142.08407592773438 137.82955932617188 145.801513671875 141.96002197265625 146.62762451171875 144.02529907226563 146.62762451171875 144.02529907226563 " />
        <polyline stroke="black" stroke-width="3" stroke-linecap="round" fill="transparent" stroke-linejoin="round" points="107.38787841796876 155.5906982421875 119.77938842773438 165.50390625 125.56210327148438 170.04745483398438 137.12750244140625 179.96066284179688 143.3232421875 186.15643310546875 143.3232421875 186.15643310546875 " />
        </svg>