<?xml version="1.0" standalone="no"?>
    <svg width="256" height="256" xmlns="http://www.w3.org/2000/svg" version="1.1">
    <polyline stroke="black" stroke-width="3" stroke-linecap="round" fill="transparent" stroke-linejoin="round" points="80 87 80 95 80 104 80 131 78 149 71 196 68 215 68 225 67 228 67 228 " />
        <polyline stroke="black" stroke-width="3" stroke-linecap="round" fill="transparent" stroke-linejoin="round" points="75 95 92 87 113 81 135 77 156 75 171 76 176 92 177 119 176 148 173 171 173 191 176 205 188 212 202 213 217 213 228 206 236 196 240 183 240 160 240 151 240 151 " />
        <polyline stroke="black" stroke-width="3" stroke-linecap="round" fill="transparent" stroke-linejoin="round" points="112 112 125 123 129 127 136 138 136 138 " />
        <polyline stroke="black" stroke-width="3" stroke-linecap="round" fill="transparent" stroke-linejoin="round" points="114 176 118 178 126 178 135 184 135 184 " />
        </svg>