<?xml version="1.0" standalone="no"?>
    <svg width="256" height="256" xmlns="http://www.w3.org/2000/svg" version="1.1">
    <polyline stroke="black" stroke-width="3" stroke-linecap="round" fill="transparent" stroke-linejoin="round" points="72.16862067108548 75.26791699169135 74.7336454191659 84.06228755653837 76.93223806037764 92.12379390764816 79.13083070158939 99.08600393815205 80.96299123593252 104.21605343431278 81.69585544966975 106.04821396865592 82.06228755653837 106.04821396865592 82.06228755653837 104.21605343431278 82.06228755653837 104.21605343431278 " />
        <polyline stroke="black" stroke-width="3" stroke-linecap="round" fill="transparent" stroke-linejoin="round" points="76.93223806037764 73.43575645734825 90.8566581213854 69.40500328179337 110.64399189229118 63.908521678763975 133.362782518146 58.7784721826032 154.61584471652623 55.84701532765422 170.73885741874574 55.480583220785576 180.9989564110672 55.480583220785576 188.3275985484397 55.84701532765422 193.45764804460055 58.045607968865966 194.923376472075 60.97706482381494 194.923376472075 64.27495378563259 190.52619118965163 69.40500328179337 181.73182062480464 77.10007752603451 172.5710179530888 85.16158387714424 165.6088079225849 91.02449758704228 161.21162264016152 95.05525076259713 156.4480052508693 97.98670761754616 156.4480052508693 97.98670761754616 " />
        <polyline stroke="black" stroke-width="3" stroke-linecap="round" fill="transparent" stroke-linejoin="round" points="124.93484406016756 72.33646013674235 124.93484406016756 79.29867016724626 124.93484406016756 86.26088019775011 124.20197984643032 92.49022601451676 122.3698193120872 97.98670761754616 120.53765877774408 100.55173236562652 120.53765877774408 100.55173236562652 " />
        <polyline stroke="black" stroke-width="3" stroke-linecap="round" fill="transparent" stroke-linejoin="round" points="82.42871966340698 106.78107818239316 94.88741129694029 106.41464607552452 113.20901664037154 103.48318922057555 133.7292146250146 99.81886815188928 150.95152364784002 97.62027551067752 162.31091896076737 97.2538434038089 168.54026477753405 97.2538434038089 172.93745005995743 97.2538434038089 179.1667958767241 97.2538434038089 188.69403065530832 94.3223865488599 188.69403065530832 94.3223865488599 " />
        <polyline stroke="black" stroke-width="3" stroke-linecap="round" fill="transparent" stroke-linejoin="round" points="110.27755978542255 142.32499254864985 105.88037450299908 153.3179557547086 98.55173236562656 165.77664738824186 91.22309022825402 177.1360427011693 83.16158387714427 186.6632774797535 74.36721331229722 195.45764804460055 74.36721331229722 195.45764804460055 " />
        <polyline stroke="black" stroke-width="3" stroke-linecap="round" fill="transparent" stroke-linejoin="round" points="153.51654839592038 122.53765877774404 158.2801657852126 133.53062198380283 165.6088079225849 146.72217783107334 174.0367463805635 163.2116226401615 185.3961416934908 181.8996600904614 193.45764804460055 189.96116644157115 193.45764804460055 189.96116644157115 " />
        </svg>