<?xml version="1.0" standalone="no"?>
    <svg width="256" height="256" xmlns="http://www.w3.org/2000/svg" version="1.1">
    <polyline stroke="black" stroke-width="3" stroke-linecap="round" fill="transparent" stroke-linejoin="round" points="59 68 58 85 58 93 58 112 58 131 59 146 61 158 61 170 61 179 61 190 61 196 61 202 61 204 61 205 61 205 " />
        <polyline stroke="black" stroke-width="3" stroke-linecap="round" fill="transparent" stroke-linejoin="round" points="102 70 99 73 99 81 99 103 98 128 97 150 97 168 97 181 97 188 96 190 96 190 " />
        <polyline stroke="black" stroke-width="3" stroke-linecap="round" fill="transparent" stroke-linejoin="round" points="19 131 41 126 63 124 84 120 105 117 121 117 127 120 127 120 " />
        <polyline stroke="black" stroke-width="3" stroke-linecap="round" fill="transparent" stroke-linejoin="round" points="62 204 70 203 82 199 98 196 106 194 106 194 " />
        <polyline stroke="black" stroke-width="3" stroke-linecap="round" fill="transparent" stroke-linejoin="round" points="133 42 137 46 142 57 149 72 158 85 158 85 " />
        <polyline stroke="black" stroke-width="3" stroke-linecap="round" fill="transparent" stroke-linejoin="round" points="207 42 190 51 184 57 170 70 161 77 161 77 " />
        <polyline stroke="black" stroke-width="3" stroke-linecap="round" fill="transparent" stroke-linejoin="round" points="147 87 137 103 158 95 177 90 195 85 205 84 205 84 " />
        <polyline stroke="black" stroke-width="3" stroke-linecap="round" fill="transparent" stroke-linejoin="round" points="178 44 174 57 164 80 144 113 126 143 110 166 98 185 96 189 96 189 " />
        <polyline stroke="black" stroke-width="3" stroke-linecap="round" fill="transparent" stroke-linejoin="round" points="172 91 188 112 197 122 208 130 223 137 236 143 245 147 245 147 " />
        <polyline stroke="black" stroke-width="3" stroke-linecap="round" fill="transparent" stroke-linejoin="round" points="124 170 147 157 165 152 183 149 193 147 193 147 " />
        <polyline stroke="black" stroke-width="3" stroke-linecap="round" fill="transparent" stroke-linejoin="round" points="190 144 174 165 174 184 174 203 174 223 172 235 168 242 162 244 149 245 133 240 126 233 126 233 " />
        </svg>