<?xml version="1.0" standalone="no"?>
    <svg width="256" height="256" xmlns="http://www.w3.org/2000/svg" version="1.1">
    <polyline stroke="black" stroke-width="3" stroke-linecap="round" fill="transparent" stroke-linejoin="round" points="20 146 17 147 15 148 14 148 14 147 14 146 15 145 18 142 20 140 23 138 29 135 32 133 44 126 48 124 62 118 71 114 81 111 89 107 92 106 96 104 100 102 101 102 103 102 104 103 104 103 " />
        <polyline stroke="black" stroke-width="3" stroke-linecap="round" fill="transparent" stroke-linejoin="round" points="49 100 47 100 46 101 46 102 45 106 43 111 41 118 39 126 38 134 37 138 36 147 36 155 36 163 36 173 36 175 37 176 38 179 38 180 39 180 40 181 41 181 44 180 48 179 52 177 57 174 62 171 67 168 71 166 75 165 78 164 80 163 82 162 82 162 " />
        <polyline stroke="black" stroke-width="3" stroke-linecap="round" fill="transparent" stroke-linejoin="round" points="84 81 84 80 83 80 83 81 82 82 82 85 81 90 81 93 80 96 79 104 79 113 78 122 77 131 77 139 76 145 76 148 76 150 75 153 75 154 75 155 75 156 76 154 76 152 76 152 " />
        <polyline stroke="black" stroke-width="3" stroke-linecap="round" fill="transparent" stroke-linejoin="round" points="134 54 133 54 132 53 133 54 135 55 136 56 141 58 145 59 149 61 152 62 154 63 156 64 159 65 160 65 161 66 164 66 164 66 " />
        <polyline stroke="black" stroke-width="3" stroke-linecap="round" fill="transparent" stroke-linejoin="round" points="191 42 190 41 189 41 188 41 187 42 187 43 186 44 182 48 179 52 177 55 175 57 171 63 166 68 166 68 " />
        <polyline stroke="black" stroke-width="3" stroke-linecap="round" fill="transparent" stroke-linejoin="round" points="110 105 109 104 108 103 108 102 108 101 109 100 113 97 118 94 122 92 130 87 140 83 150 78 161 75 170 73 178 73 182 73 188 73 193 73 198 74 199 74 201 74 203 74 203 74 " />
        <polyline stroke="black" stroke-width="3" stroke-linecap="round" fill="transparent" stroke-linejoin="round" points="164 40 162 40 161 40 161 41 160 41 160 43 159 47 157 53 152 67 149 72 146 78 140 90 134 103 127 116 123 122 116 134 109 143 103 150 99 154 96 156 94 156 94 155 94 152 95 149 97 146 99 142 99 142 " />
        <polyline stroke="black" stroke-width="3" stroke-linecap="round" fill="transparent" stroke-linejoin="round" points="157 77 157 78 157 79 158 80 160 82 162 84 166 87 169 88 172 90 178 93 182 95 190 99 198 105 205 110 208 112 211 114 216 118 218 120 220 121 222 124 223 125 224 127 224 128 222 129 222 129 " />
        <polyline stroke="black" stroke-width="3" stroke-linecap="round" fill="transparent" stroke-linejoin="round" points="124 141 122 140 122 139 122 138 122 137 123 136 127 134 133 132 140 129 149 126 158 124 167 122 177 121 180 121 182 121 185 121 186 121 187 122 187 124 187 124 " />
        <polyline stroke="black" stroke-width="3" stroke-linecap="round" fill="transparent" stroke-linejoin="round" points="168 126 167 126 166 126 166 128 166 130 166 133 167 135 167 136 168 141 168 143 169 153 170 156 171 165 171 175 171 179 171 187 171 194 170 200 169 205 167 209 166 211 165 212 164 212 163 212 161 211 159 209 157 208 154 205 149 200 145 196 142 193 135 187 129 181 122 175 122 175 " />
        </svg>