<?xml version="1.0" standalone="no"?>
    <svg width="256" height="256" xmlns="http://www.w3.org/2000/svg" version="1.1">
    <polyline stroke="black" stroke-width="3" stroke-linecap="round" fill="transparent" stroke-linejoin="round" points="42 155 34 157 31 160 34 161 44 160 62 152 86 142 112 135 125 132 127 131 134 129 136 129 133 130 128 132 128 132 " />
        <polyline stroke="black" stroke-width="3" stroke-linecap="round" fill="transparent" stroke-linejoin="round" points="75 110 73 108 74 112 75 124 75 146 72 168 70 181 69 183 69 191 69 193 71 196 75 197 81 196 90 192 99 188 105 185 107 185 107 184 105 184 105 184 " />
        <polyline stroke="black" stroke-width="3" stroke-linecap="round" fill="transparent" stroke-linejoin="round" points="106 108 104 107 104 109 104 117 104 135 102 156 100 171 100 184 102 193 104 196 105 196 108 197 108 197 " />
        <polyline stroke="black" stroke-width="3" stroke-linecap="round" fill="transparent" stroke-linejoin="round" points="153 118 150 117 150 118 151 120 153 124 155 129 160 132 161 132 161 132 " />
        <polyline stroke="black" stroke-width="3" stroke-linecap="round" fill="transparent" stroke-linejoin="round" points="200 104 197 104 196 104 195 105 193 110 188 118 180 127 169 135 169 135 " />
        <polyline stroke="black" stroke-width="3" stroke-linecap="round" fill="transparent" stroke-linejoin="round" points="115 166 113 166 115 166 126 165 147 158 171 151 184 147 188 145 200 142 203 138 201 137 201 137 " />
        <polyline stroke="black" stroke-width="3" stroke-linecap="round" fill="transparent" stroke-linejoin="round" points="171 88 170 98 163 123 149 152 134 176 120 196 113 205 110 206 104 211 103 211 103 211 " />
        <polyline stroke="black" stroke-width="3" stroke-linecap="round" fill="transparent" stroke-linejoin="round" points="149 163 149 162 151 161 156 162 158 163 167 166 170 167 183 169 196 170 204 169 208 168 208 168 " />
        <polyline stroke="black" stroke-width="3" stroke-linecap="round" fill="transparent" stroke-linejoin="round" points="142 196 141 195 148 192 162 188 173 184 176 183 184 180 186 180 187 180 187 180 " />
        <polyline stroke="black" stroke-width="3" stroke-linecap="round" fill="transparent" stroke-linejoin="round" points="169 190 168 191 169 195 172 205 175 218 175 233 172 244 168 249 166 250 163 248 157 243 151 238 148 235 146 233 146 233 " />
        </svg>