<?xml version="1.0" standalone="no"?>
    <svg width="256" height="256" xmlns="http://www.w3.org/2000/svg" version="1.1">
    <polyline stroke="black" stroke-width="3" stroke-linecap="round" fill="transparent" stroke-linejoin="round" points="88.69134521484375 65.40512084960938 98.728515625 60.94415283203125 112.66903686523438 56.483184814453125 126.60955810546876 53.13746643066406 139.992431640625 50.906982421875 148.35675048828125 50.906982421875 153.37530517578125 52.02222442626953 155.6058349609375 55.925567626953125 154.4906005859375 64.28987121582031 148.35675048828125 78.78800964355469 136.646728515625 93.84376525878906 136.646728515625 93.84376525878906 " />
        <polyline stroke="black" stroke-width="3" stroke-linecap="round" fill="transparent" stroke-linejoin="round" points="101.5166015625 93.2861328125 118.8028564453125 95.51661682128906 131.62811279296875 98.8623504638672 144.45339965820313 103.88093566894533 156.1634521484375 110.01475524902344 156.1634521484375 110.01475524902344 " />
        <polyline stroke="black" stroke-width="3" stroke-linecap="round" fill="transparent" stroke-linejoin="round" points="121.5909423828125 131.76194763183594 114.34188842773438 141.2415008544922 108.76568603515624 151.27867126464844 101.5166015625 164.66156005859375 94.8251953125 180.83255004882813 90.92181396484376 191.9849548339844 90.92181396484376 197.5611572265625 94.8251953125 199.79165649414065 108.20806884765624 193.1001892089844 126.05194091796876 179.71731567382813 141.665283203125 167.4496612548828 158.9515380859375 153.5091552734375 158.9515380859375 153.5091552734375 " />
        <polyline stroke="black" stroke-width="3" stroke-linecap="round" fill="transparent" stroke-linejoin="round" points="171.21917724609375 132.877197265625 176.79541015625 147.3753204345703 181.81396484375 158.52774047851563 191.85113525390625 176.92921447753906 191.85113525390625 176.92921447753906 " />
        </svg>