<?xml version="1.0" standalone="no"?>
    <svg width="256" height="256" xmlns="http://www.w3.org/2000/svg" version="1.1">
    <polyline stroke="black" stroke-width="3" stroke-linecap="round" fill="transparent" stroke-linejoin="round" points="71.56326293945313 86.32337951660156 84.78579711914063 73.65176391601563 94.15176391601563 66.48956298828125 105.17056274414063 58.776397705078125 117.8421630859375 52.71607208251953 129.96282958984375 47.20668029785156 139.8797607421875 44.45198059082031 147.04196166992188 43.35009765625 152.55133056640625 43.35009765625 155.3060302734375 46.10479736328125 155.3060302734375 50.51231384277344 152.00042724609375 57.12358093261719 145.38916015625 67.04049682617188 136.02316284179688 80.26304626464844 127.2081298828125 91.28182983398438 120.04592895507813 99.54592895507813 120.04592895507813 99.54592895507813 " />
        <polyline stroke="black" stroke-width="3" stroke-linecap="round" fill="transparent" stroke-linejoin="round" points="84.78579711914063 98.4440460205078 97.4573974609375 98.4440460205078 105.17056274414063 98.99497985839844 115.638427734375 100.64779663085938 126.10626220703124 103.40249633789063 134.370361328125 107.8100128173828 139.32879638671875 113.31941223144533 141.53256225585938 119.37974548339844 141.53256225585938 119.37974548339844 " />
        <polyline stroke="black" stroke-width="3" stroke-linecap="round" fill="transparent" stroke-linejoin="round" points="99.1102294921875 137.0098114013672 96.35552978515624 146.9267120361328 94.15176391601563 156.8436279296875 89.7442626953125 169.51522827148438 85.33673095703125 183.83966064453125 81.48016357421875 195.9603271484375 77.62359619140625 205.87722778320313 75.97076416015625 212.48849487304688 75.97076416015625 216.3450927734375 79.82733154296875 217.99789428710935 86.4385986328125 215.79415893554688 100.7630615234375 209.182861328125 112.88372802734376 200.91879272460935 125.00439453125 193.20562744140625 133.26846313476563 186.5943603515625 139.32879638671875 179.9830780029297 144.28726196289063 171.718994140625 147.04196166992188 161.8020782470703 147.04196166992188 161.8020782470703 " />
        <polyline stroke="black" stroke-width="3" stroke-linecap="round" fill="transparent" stroke-linejoin="round" points="142.08349609375 145.82484436035156 148.69476318359375 160.14926147460938 155.85699462890625 172.82086181640625 163.0191650390625 188.2471618652344 170.181396484375 208.08099365234375 170.181396484375 208.08099365234375 " />
        </svg>