<?xml version="1.0" standalone="no"?>
    <svg width="256" height="256" xmlns="http://www.w3.org/2000/svg" version="1.1">
    <polyline stroke="black" stroke-width="3" stroke-linecap="round" fill="transparent" stroke-linejoin="round" points="90.1855773925781 73.26502990722656 97.98028564453124 70.07627868652344 105.77499389648438 66.88752746582031 114.632568359375 63.69879150390625 130.93063354492188 59.44712829589844 142.97698974609375 58.0299072265625 150.41741943359375 59.44712829589844 154.31475830078125 66.17892456054688 152.543212890625 88.5001220703125 141.55975341796875 112.23855590820313 134.82797241210938 123.22201538085938 134.82797241210938 123.22201538085938 " />
        <polyline stroke="black" stroke-width="3" stroke-linecap="round" fill="transparent" stroke-linejoin="round" points="111.08959960937503 110.46702575683594 118.52996826171876 111.17564392089844 125.9703369140625 111.88426208496094 134.119384765625 113.65579223632813 142.26840209960938 116.49021911621094 149.3544921875 120.03326416015624 161.40087890625 129.95379638671875 161.40087890625 129.95379638671875 " />
        <polyline stroke="black" stroke-width="3" stroke-linecap="round" fill="transparent" stroke-linejoin="round" points="96.56311035156253 150.85781860351563 94.08294677734376 160.06973266601563 91.602783203125 169.28164672851563 89.47698974609375 176.7220458984375 86.996826171875 190.1856384277344 87.70541381835938 200.8148193359375 91.95709228515624 202.23199462890625 108.255126953125 197.9803466796875 131.284912109375 187.3511962890625 156.794921875 171.05316162109375 168.4869384765625 161.84124755859375 168.4869384765625 161.84124755859375 " />
        <polyline stroke="black" stroke-width="3" stroke-linecap="round" fill="transparent" stroke-linejoin="round" points="187.97369384765625 151.56640625 189.7452392578125 156.52667236328125 191.51678466796875 161.4869384765625 193.642578125 167.15582275390625 198.24853515625 183.0995330810547 202.500244140625 194.7916259765625 202.500244140625 194.7916259765625 " />
        </svg>