<?xml version="1.0" standalone="no"?>
    <svg width="256" height="256" xmlns="http://www.w3.org/2000/svg" version="1.1">
    <polyline stroke="black" stroke-width="3" stroke-linecap="round" fill="transparent" stroke-linejoin="round" points="82 61 97 59 112 57 130 54 147 52 162 51 171 51 173 51 174 53 171 57 157 70 141 85 127 94 127 94 " />
        <polyline stroke="black" stroke-width="3" stroke-linecap="round" fill="transparent" stroke-linejoin="round" points="127 90 134 93 141 96 147 101 149 104 149 104 " />
        <polyline stroke="black" stroke-width="3" stroke-linecap="round" fill="transparent" stroke-linejoin="round" points="121 136 121 141 121 146 118 158 113 173 108 185 105 191 105 192 106 192 109 192 122 191 134 187 147 183 159 179 168 175 171 173 171 173 " />
        <polyline stroke="black" stroke-width="3" stroke-linecap="round" fill="transparent" stroke-linejoin="round" points="169 154 171 161 173 168 178 179 184 198 184 198 " />
        </svg>