<?xml version="1.0" standalone="no"?>
    <svg width="256" height="256" xmlns="http://www.w3.org/2000/svg" version="1.1">
    <polyline stroke="black" stroke-width="3" stroke-linecap="round" fill="transparent" stroke-linejoin="round" points="70.46295166015625 75.72492980957031 78.85272216796875 89.92298889160156 84.6610107421875 101.53956604003906 91.76007080078124 112.5107879638672 99.50445556640624 118.96446228027344 99.50445556640624 118.96446228027344 " />
        <polyline stroke="black" stroke-width="3" stroke-linecap="round" fill="transparent" stroke-linejoin="round" points="174.366943359375 57.009307861328125 174.366943359375 69.27127075195313 167.91326904296875 85.40542602539063 152.4244384765625 111.22006225585938 137.5810546875 130.58103942871094 117.57470703125 147.36056518554688 94.34152221679688 160.26788330078125 78.20736694335938 166.076171875 68.52685546875 168.0122833251953 64.6546630859375 169.30300903320313 65.94540405273438 169.30300903320313 73.04443359375 167.36691284179688 91.76007080078124 162.84934997558594 115.63861083984376 156.39569091796875 140.807861328125 149.29666137695313 162.10498046875 143.48837280273438 181.4659423828125 137.03469848632813 191.79180908203125 131.8717803955078 197.60009765625 125.41812133789063 197.60009765625 125.41812133789063 " />
        <polyline stroke="black" stroke-width="3" stroke-linecap="round" fill="transparent" stroke-linejoin="round" points="131.77276611328125 42.1658935546875 127.90057373046876 56.36395263671875 124.6737060546875 82.82395935058594 122.09225463867188 120.90055847167967 121.4468994140625 149.29666137695313 121.4468994140625 172.52984619140625 122.09225463867188 189.9547119140625 122.09225463867188 203.5074157714844 122.73760986328124 215.12399291992188 122.73760986328124 215.12399291992188 " />
        </svg>