<?xml version="1.0" standalone="no"?>
    <svg width="256" height="256" xmlns="http://www.w3.org/2000/svg" version="1.1">
    <polyline stroke="black" stroke-width="3" stroke-linecap="round" fill="transparent" stroke-linejoin="round" points="64.4073486328125 61.49757385253906 73.23333740234375 73.41264343261719 81.17672729492188 83.5625 85.14840698242188 88.41679382324219 93.091796875 95.47756958007813 99.26995849609376 98.56668090820313 107.65463256835938 100.77316284179688 107.65463256835938 100.77316284179688 " />
        <polyline stroke="black" stroke-width="3" stroke-linecap="round" fill="transparent" stroke-linejoin="round" points="188.8536376953125 52.671600341796875 174.290771484375 68.558349609375 164.5821533203125 78.26692199707031 152.6671142578125 89.74069213867188 138.5455322265625 101.65574645996094 124.86532592773438 113.12954711914063 111.18502807617188 122.83810424804688 111.18502807617188 122.83810424804688 " />
        <polyline stroke="black" stroke-width="3" stroke-linecap="round" fill="transparent" stroke-linejoin="round" points="52.93359375 158.14199829101563 72.79205322265625 148.87472534179688 86.91357421875 143.5791473388672 134.132568359375 127.6923828125 159.28656005859375 120.631591796875 175.17333984375 116.21861267089844 183.55804443359375 113.57083129882813 183.55804443359375 113.57083129882813 " />
        <polyline stroke="black" stroke-width="3" stroke-linecap="round" fill="transparent" stroke-linejoin="round" points="119.5697021484375 38.9913330078125 116.92193603515624 53.11289978027344 116.039306640625 65.02796936035156 116.4805908203125 99.00796508789063 117.80450439453124 118.86639404296876 119.5697021484375 137.40093994140625 124.86532592773438 169.61575317382813 128.83700561523438 192.56329345703125 131.926025390625 207.12615966796875 132.80868530273438 211.98043823242188 133.24993896484375 216.834716796875 133.24993896484375 216.834716796875 " />
        </svg>