<?xml version="1.0" standalone="no"?>
    <svg width="256" height="256" xmlns="http://www.w3.org/2000/svg" version="1.1">
    <polyline stroke="black" stroke-width="3" stroke-linecap="round" fill="transparent" stroke-linejoin="round" points="79.55377197265625 78.79212951660156 78.17034912109375 100.4656219482422 74.9423828125 123.98367309570313 73.09783935546875 129.97845458984375 72.175537109375 131.82302856445313 73.09783935546875 129.0561981201172 81.3983154296875 119.37229919433594 97.07699584960938 105.07699584960938 106.29977416992188 98.15992736816406 134.42919921875 80.63668823242188 142.72967529296875 76.94758605957031 159.791748046875 73.71961975097656 163.48089599609375 74.64189147949219 167.1700439453125 81.09782409667969 161.6363525390625 93.08741760253906 155.64154052734375 99.5433349609375 115.52255249023438 124.44479370117188 94.31015014648438 133.66757202148438 83.24285888671875 137.35667419433594 80.47604370117188 136.43438720703125 82.320556640625 134.12869262695313 95.693603515625 125.3670654296875 117.3670654296875 114.29977416992188 140.42401123046875 103.69358825683594 154.2581787109375 97.23765563964844 154.2581787109375 97.23765563964844 " />
        <polyline stroke="black" stroke-width="3" stroke-linecap="round" fill="transparent" stroke-linejoin="round" points="119.67279052734376 80.17555236816406 112.2945556640625 96.77651977539063 104.45526123046876 116.60546875 97.07699584960938 135.51211547851563 84.62628173828125 168.25291442871094 76.78695678710938 189.46527099609375 72.63668823242188 200.5325927734375 71.71441650390625 203.2994079589844 71.25326538085938 204.2216796875 71.25326538085938 204.2216796875 " />
        <polyline stroke="black" stroke-width="3" stroke-linecap="round" fill="transparent" stroke-linejoin="round" points="127.51214599609376 161.33584594726563 134.42919921875 165.0249481201172 141.34628295898438 169.1751708984375 156.1026611328125 177.9368133544922 170.39794921875 189.00411987304688 170.39794921875 189.00411987304688 " />
        </svg>