<?xml version="1.0" standalone="no"?>
    <svg width="256" height="256" xmlns="http://www.w3.org/2000/svg" version="1.1">
    <polyline stroke="black" stroke-width="3" stroke-linecap="round" fill="transparent" stroke-linejoin="round" points="80.66976928710938 80.97586059570313 82.360107421875 85.20172119140625 83.62786865234375 89.42756652832031 85.31820678710938 98.3018798828125 85.74081420898438 101.68254089355467 85.74081420898438 103.79547119140624 85.74081420898438 104.2180633544922 85.74081420898438 103.79547119140624 85.74081420898438 103.37289428710938 87.85372924804688 99.9921875 92.92474365234376 94.07600402832033 102.22161865234376 85.20172119140625 115.32174682617188 75.48225402832031 123.35089111328124 70.83381652832031 146.59307861328125 59.84660339355469 158.42547607421875 56.465911865234375 165.609375 55.19816589355469 169.83526611328125 55.620750427246094 171.94818115234375 57.733673095703125 172.7933349609375 60.269195556640625 168.9901123046875 76.75001525878906 164.7642822265625 83.9339599609375 146.59307861328125 105.48580932617188 139.40911865234375 110.97943115234376 124.61862182617188 119.00852966308594 110.67333984375 121.96664428710938 108.56039428710938 121.96664428710938 106.87005615234376 119.85372924804688 109.828125 116.89561462402344 118.27987670898438 111.40200805664063 129.68963623046875 105.90841674804688 139.40911865234375 101.68254089355467 147.86080932617188 97.45669555664063 151.6640625 94.92117309570313 154.1995849609375 93.23085021972656 154.1995849609375 93.23085021972656 " />
        <polyline stroke="black" stroke-width="3" stroke-linecap="round" fill="transparent" stroke-linejoin="round" points="128.421875 47.59162902832031 126.73153686523438 56.465911865234375 121.6605224609375 80.55328369140625 113.63143920898438 108.8665008544922 100.53125 152.39276123046875 88.69891357421875 187.04476928710935 78.97943115234375 211.977294921875 71.79550170898438 226.34521484375 67.56964111328125 231.41619873046875 67.56964111328125 231.41619873046875 " />
        <polyline stroke="black" stroke-width="3" stroke-linecap="round" fill="transparent" stroke-linejoin="round" points="128.844482421875 131.68609619140625 139.83172607421875 142.25071716308594 146.59307861328125 147.74432373046875 165.609375 165.492919921875 179.977294921875 181.97373962402344 188.42901611328125 192.53839111328125 188.42901611328125 192.53839111328125 " />
        </svg>