<?xml version="1.0" standalone="no"?>
    <svg width="256" height="256" xmlns="http://www.w3.org/2000/svg" version="1.1">
    <polyline stroke="black" stroke-width="3" stroke-linecap="round" fill="transparent" stroke-linejoin="round" points="85.2667236328125 103.73333740234376 87.4000244140625 111.20002746582033 89.53338623046875 117.60000610351563 89.53338623046875 118.66667175292967 89.53338623046875 118.66667175292967 " />
        <polyline stroke="black" stroke-width="3" stroke-linecap="round" fill="transparent" stroke-linejoin="round" points="127.93341064453124 57.86668395996094 139.666748046875 54.66667175292969 145 53.600006103515625 149.2667236328125 52.533355712890625 150.3333740234375 52.533355712890625 151.4000244140625 54.66667175292969 151.4000244140625 63.20002746582031 151.4000244140625 72.80000305175781 151.4000244140625 82.40000915527344 149.2667236328125 94.1333465576172 147.1334228515625 98.40000915527344 147.1334228515625 98.40000915527344 " />
        <polyline stroke="black" stroke-width="3" stroke-linecap="round" fill="transparent" stroke-linejoin="round" points="115.1334228515625 105.86669921875 129 101.60000610351563 137.533447265625 97.33334350585938 141.8001708984375 95.20002746582033 141.8001708984375 95.20002746582033 " />
        <polyline stroke="black" stroke-width="3" stroke-linecap="round" fill="transparent" stroke-linejoin="round" points="118.3333740234375 80.26667785644531 118.3333740234375 95.20002746582033 111.93341064453124 124.00001525878906 101.2667236328125 152.80001831054688 90.60003662109376 177.33334350585938 83.1334228515625 191.20001220703125 75.66668701171875 197.6000061035156 75.66668701171875 197.6000061035156 " />
        <polyline stroke="black" stroke-width="3" stroke-linecap="round" fill="transparent" stroke-linejoin="round" points="135.4000244140625 144.26669311523438 171.666748046875 170.93336486816406 194.0667724609375 184.80001831054688 212.2000732421875 193.33334350585935 230.3333740234375 198.66668701171875 230.3333740234375 198.66668701171875 " />
        </svg>