<?xml version="1.0" standalone="no"?>
    <svg width="256" height="256" xmlns="http://www.w3.org/2000/svg" version="1.1">
    <polyline stroke="black" stroke-width="3" stroke-linecap="round" fill="transparent" stroke-linejoin="round" points="81.4891357421875 79.44801330566406 79.12838745117188 104.23577880859376 78.5382080078125 121.35113525390624 79.12838745117188 134.92538452148438 80.30877685546875 140.8272247314453 81.4891357421875 142.5977783203125 82.66949462890625 137.8762969970703 82.66949462890625 137.8762969970703 " />
        <polyline stroke="black" stroke-width="3" stroke-linecap="round" fill="transparent" stroke-linejoin="round" points="108.63763427734376 61.74247741699219 122.21185302734376 59.381744384765625 137.55667114257813 57.02099609375 151.13092041015625 57.02099609375 162.34442138671875 58.20137023925781 169.4266357421875 60.562103271484375 174.14813232421875 64.10321044921875 175.918701171875 73.54617309570313 173.55792236328125 90.66152954101563 163.5247802734375 110.72781372070313 148.17999267578125 129.6137237548828 136.37628173828125 140.23704528808594 136.37628173828125 140.23704528808594 " />
        <polyline stroke="black" stroke-width="3" stroke-linecap="round" fill="transparent" stroke-linejoin="round" points="99.78485107421876 136.69593811035156 110.40817260742188 133.74501037597656 121.6217041015625 130.2039031982422 131.65484619140625 127.84317016601563 141.0977783203125 124.30206298828124 141.0977783203125 124.30206298828124 " />
        <polyline stroke="black" stroke-width="3" stroke-linecap="round" fill="transparent" stroke-linejoin="round" points="127.52352905273438 46.98786163330078 124.5726318359375 65.28358459472656 118.08056640625 97.153564453125 109.8179931640625 134.33518981933594 98.0142822265625 163.8444366455078 84.4400634765625 200.43588256835935 77.947998046875 212.82977294921875 72.6363525390625 221.09234619140625 69.09524536132813 225.81381225585935 67.32470703125 226.40399169921875 67.32470703125 226.40399169921875 " />
        <polyline stroke="black" stroke-width="3" stroke-linecap="round" fill="transparent" stroke-linejoin="round" points="100.37503051757813 173.8775634765625 105.09649658203124 173.8775634765625 112.1787109375 177.41867065429688 122.80206298828124 184.5008850097656 138.1468505859375 193.94384765625 154.6719970703125 204.56716918945313 167.6561279296875 213.41995239257813 180.64013671875 225.81381225585935 180.64013671875 225.81381225585935 " />
        </svg>