<?xml version="1.0" standalone="no"?>
    <svg width="256" height="256" xmlns="http://www.w3.org/2000/svg" version="1.1">
    <polyline stroke="black" stroke-width="3" stroke-linecap="round" fill="transparent" stroke-linejoin="round" points="52.997802734375 104.36273193359376 51.77874755859375 118.99191284179688 51.37237548828125 126.71286010742188 51.37237548828125 133.62107849121094 51.37237548828125 143.78021240234375 51.37237548828125 149.06297302246094 51.37237548828125 150.68844604492188 51.77874755859375 149.06297302246094 59.09332275390625 136.8719940185547 72.90975952148438 116.14736938476563 88.75799560546875 97.45452880859376 107.857177734375 81.60626220703125 117.60995483398438 75.10440063476563 146.05560302734375 62.91343688964844 160.68475341796875 60.475250244140625 170.4375 60.88160705566406 175.72027587890625 62.91343688964844 176.93939208984375 67.78982543945313 171.250244140625 79.98080444335938 154.182861328125 99.08000183105467 124.11181640625 123.46194458007813 96.07260131835938 140.93565368652344 80.22430419921875 148.65660095214844 74.53521728515625 150.28207397460938 74.12884521484375 149.87570190429688 81.84979248046875 144.18658447265625 97.69805908203124 135.24655151367188 115.578125 125.49375915527344 133.05184936523438 113.70916748046876 133.05184936523438 113.70916748046876 " />
        <polyline stroke="black" stroke-width="3" stroke-linecap="round" fill="transparent" stroke-linejoin="round" points="131.832763671875 60.068878173828125 127.76913452148438 73.88531494140625 123.299072265625 89.32722473144531 118.82907104492188 103.95639038085938 109.07626342773438 131.99563598632813 104.19989013671876 144.5929412841797 95.25985717773438 162.47305297851563 87.94528198242188 175.88311767578125 83.06884765625 183.19769287109375 81.84979248046875 184.41680908203125 81.84979248046875 183.19769287109375 83.06884765625 180.35313415527344 87.13253784179688 177.91494750976563 96.07260131835938 176.2894744873047 111.92083740234376 179.5404052734375 131.4263916015625 186.85498046875 151.33837890625 197.01412963867188 161.49749755859375 203.92236328125 161.49749755859375 203.92236328125 " />
        </svg>