<?xml version="1.0" standalone="no"?>
    <svg width="256" height="256" xmlns="http://www.w3.org/2000/svg" version="1.1">
    <polyline stroke="black" stroke-width="3" stroke-linecap="round" fill="transparent" stroke-linejoin="round" points="64.5469970703125 30.016693115234375 69.89642333984375 40.715553283691406 74.65145874023438 54.386322021484375 80.59527587890625 74.00088500976563 84.75592041015625 94.80422973632813 87.72784423828125 112.04127502441406 89.510986328125 122.14576721191406 89.510986328125 122.14576721191406 " />
        <polyline stroke="black" stroke-width="3" stroke-linecap="round" fill="transparent" stroke-linejoin="round" points="78.8121337890625 60.92451477050781 85.9447021484375 54.386322021484375 95.45480346679688 47.25374603271485 107.3424072265625 40.12117004394531 122.79632568359376 35.366119384765625 139.43899536132813 33.582977294921875 156.0816650390625 36.55488586425781 170.941162109375 42.49869537353515 181.045654296875 51.41441345214844 188.17822265625 62.70765686035156 191.150146484375 76.37841796875 188.17822265625 93.02108764648438 176.885009765625 111.4468994140625 176.885009765625 111.4468994140625 " />
        <polyline stroke="black" stroke-width="3" stroke-linecap="round" fill="transparent" stroke-linejoin="round" points="104.37051391601563 81.72784423828125 118.041259765625 77.56718444824219 132.90081787109375 74.00088500976563 147.16595458984375 71.62336730957031 157.86480712890625 71.02899169921875 163.2142333984375 71.02899169921875 163.2142333984375 74.00088500976563 163.2142333984375 74.00088500976563 " />
        <polyline stroke="black" stroke-width="3" stroke-linecap="round" fill="transparent" stroke-linejoin="round" points="108.53118896484376 120.95700073242188 119.23004150390624 116.79632568359376 129.92889404296875 113.82443237304688 140.03338623046875 111.4468994140625 147.76031494140625 110.25813293457033 152.515380859375 110.25813293457033 152.515380859375 110.25813293457033 " />
        <polyline stroke="black" stroke-width="3" stroke-linecap="round" fill="transparent" stroke-linejoin="round" points="57.4144287109375 185.150146484375 78.8121337890625 179.2063446044922 93.0772705078125 175.6400604248047 109.71994018554688 172.0737762451172 125.76824951171876 168.5074920654297 137.06146240234375 164.34681701660156 143.00531005859375 159.59176635742188 143.00531005859375 159.59176635742188 " />
        <polyline stroke="black" stroke-width="3" stroke-linecap="round" fill="transparent" stroke-linejoin="round" points="99.02108764648438 147.7041473388672 94.26605224609376 161.96929931640625 91.29412841796876 172.66815185546875 87.72784423828125 185.7445373535156 83.56719970703125 198.22653198242188 78.8121337890625 210.1141662597656 76.43460083007813 216.65234375 76.43460083007813 216.65234375 " />
        <polyline stroke="black" stroke-width="3" stroke-linecap="round" fill="transparent" stroke-linejoin="round" points="96.6435546875 180.9894866943359 112.09747314453124 186.93328857421875 121.01318359375 191.6883544921875 128.74014282226563 196.44338989257813 134.08956909179688 200.60406494140625 137.65585327148438 203.57595825195313 137.65585327148438 203.57595825195313 " />
        <polyline stroke="black" stroke-width="3" stroke-linecap="round" fill="transparent" stroke-linejoin="round" points="160.83673095703125 161.96929931640625 171.53558349609375 157.21424865722656 184.017578125 153.05357360839844 196.49957275390625 148.29852294921875 207.7928466796875 142.9490966796875 216.70855712890625 135.8165283203125 223.84112548828125 126.90080261230467 223.84112548828125 126.90080261230467 " />
        <polyline stroke="black" stroke-width="3" stroke-linecap="round" fill="transparent" stroke-linejoin="round" points="187.5838623046875 98.96490478515624 183.4232177734375 109.0693817138672 178.66815185546875 123.3345184326172 174.50750732421875 142.9490966796875 170.3468017578125 164.34681701660156 166.780517578125 182.17825317382813 163.80859375 198.22653198242188 162.0255126953125 208.9254150390625 160.83673095703125 215.46359252929688 160.83673095703125 216.65234375 160.83673095703125 216.65234375 " />
        <polyline stroke="black" stroke-width="3" stroke-linecap="round" fill="transparent" stroke-linejoin="round" points="184.017578125 169.6962432861328 195.310791015625 176.23443603515625 204.2265625 181.58387756347656 213.73663330078125 188.7164306640625 222.65234375 196.44338989257813 230.3792724609375 205.35910034179688 230.3792724609375 205.35910034179688 " />
        </svg>