<?xml version="1.0" standalone="no"?>
    <svg width="256" height="256" xmlns="http://www.w3.org/2000/svg" version="1.1">
    <polyline stroke="black" stroke-width="3" stroke-linecap="round" fill="transparent" stroke-linejoin="round" points="92.18328857421876 99.29826354980467 100.99627685546876 96.7802734375 110.22894287109376 93.84260559082033 129.11395263671875 87.547607421875 137.08758544921875 84.19027709960938 152.195556640625 77.47561645507813 162.687255859375 72.43960571289063 167.7232666015625 69.082275390625 169.821533203125 66.56428527832031 170.2412109375 65.30528259277344 170.2412109375 65.30528259277344 " />
        <polyline stroke="black" stroke-width="3" stroke-linecap="round" fill="transparent" stroke-linejoin="round" points="123.23858642578124 53.13494873046875 119.04193115234376 62.36761474609375 109.80926513671876 83.77059936523438 105.19296264648438 96.7802734375 97.638916015625 121.54058837890624 94.28158569335938 137.90757751464844 94.28158569335938 147.14024353027344 96.37994384765624 152.17623901367188 101.83563232421876 155.11392211914063 111.4879150390625 155.9532470703125 121.97958374023438 152.59591674804688 132.47125244140625 145.0419158935547 142.962890625 133.29124450683594 142.962890625 133.29124450683594 " />
        <polyline stroke="black" stroke-width="3" stroke-linecap="round" fill="transparent" stroke-linejoin="round" points="147.5792236328125 79.57394409179688 145.48089599609375 90.48527526855467 142.543212890625 103.49493408203124 139.60556030273438 116.50457763671876 136.24822998046875 129.93392944335938 136.24822998046875 129.93392944335938 " />
        <polyline stroke="black" stroke-width="3" stroke-linecap="round" fill="transparent" stroke-linejoin="round" points="82.53094482421875 195.40191650390625 77.91461181640625 203.37554931640625 73.29827880859375 210.9295654296875 66.58358764648438 221.0015563964844 64.06561279296875 224.35888671875 64.06561279296875 224.35888671875 " />
        <polyline stroke="black" stroke-width="3" stroke-linecap="round" fill="transparent" stroke-linejoin="round" points="137.92694091796875 192.8839111328125 146.32025146484375 197.500244140625 153.874267578125 202.5362243652344 164.36590576171875 211.76889038085935 168.5626220703125 218.06390380859375 168.5626220703125 218.06390380859375 " />
        </svg>