<?xml version="1.0" standalone="no"?>
    <svg width="256" height="256" xmlns="http://www.w3.org/2000/svg" version="1.1">
    <polyline stroke="black" stroke-width="3" stroke-linecap="round" fill="transparent" stroke-linejoin="round" points="58.873138427734375 97.46133422851563 68.86495971679688 93.46463012695313 101.63815307617188 82.27378845214844 134.81103515625 73.88064575195313 164.38677978515625 67.48587036132813 185.96917724609375 64.28848266601563 185.96917724609375 64.28848266601563 " />
        <polyline stroke="black" stroke-width="3" stroke-linecap="round" fill="transparent" stroke-linejoin="round" points="70.86331176757813 83.0731201171875 73.2613525390625 104.25579833984376 76.85845947265625 122.24107360839844 80.45547485351563 137.42864990234375 82.45388793945313 141.02569580078125 82.45388793945313 141.02569580078125 " />
        <polyline stroke="black" stroke-width="3" stroke-linecap="round" fill="transparent" stroke-linejoin="round" points="158.39178466796875 62.290130615234375 154.794677734375 84.67181396484375 152.3966064453125 105.05514526367188 149.99859619140625 119.04368591308594 149.59890747070313 125.03878784179688 149.59890747070313 125.03878784179688 " />
        <polyline stroke="black" stroke-width="3" stroke-linecap="round" fill="transparent" stroke-linejoin="round" points="134.01168823242188 118.64401245117188 159.1910400390625 119.443359375 168.78326416015625 121.44172668457033 168.78326416015625 121.44172668457033 " />
        <polyline stroke="black" stroke-width="3" stroke-linecap="round" fill="transparent" stroke-linejoin="round" points="88.04928588867188 190.58517456054688 84.05258178710938 198.57861328125 83.25323486328125 201.37631225585935 83.25323486328125 201.37631225585935 " />
        <polyline stroke="black" stroke-width="3" stroke-linecap="round" fill="transparent" stroke-linejoin="round" points="184.7701416015625 174.59823608398438 198.7586669921875 190.98483276367188 211.1485595703125 204.17404174804688 227.13555908203125 220.16094970703125 227.13555908203125 220.16094970703125 " />
        </svg>