<?xml version="1.0" standalone="no"?>
    <svg width="256" height="256" xmlns="http://www.w3.org/2000/svg" version="1.1">
    <polyline stroke="black" stroke-width="3" stroke-linecap="round" fill="transparent" stroke-linejoin="round" points="78.79644775390625 88.30636596679688 85.71322631835938 86.27200317382813 101.17425537109376 82.20330810546875 110.12533569335938 80.57583618164063 127.2138671875 77.72775268554688 143.89547729492188 75.28654479980469 156.915283203125 72.8453369140625 167.0870361328125 70.40411376953125 173.596923828125 67.96290588378906 177.25872802734375 65.11482238769531 177.25872802734375 65.11482238769531 " />
        <polyline stroke="black" stroke-width="3" stroke-linecap="round" fill="transparent" stroke-linejoin="round" points="108.49789428710938 39.888946533203125 107.68417358398438 47.61946105957031 106.056640625 63.89422607421875 104.8360595703125 78.54150390625 103.615478515625 91.56130981445313 103.20858764648438 102.5467529296875 103.20858764648438 111.49789428710938 104.02230834960938 118.821533203125 104.8360595703125 124.924560546875 106.87042236328124 129.40011596679688 109.718505859375 132.24819946289063 116.22836303710938 134.68942260742188 124.36578369140624 135.50314331054688 131.68942260742188 134.28253173828125 139.01303100585938 131.027587890625 142.67489624023438 127.3657684326172 142.67489624023438 127.3657684326172 " />
        <polyline stroke="black" stroke-width="3" stroke-linecap="round" fill="transparent" stroke-linejoin="round" points="161.390869140625 41.51641845703125 160.9840087890625 47.61946105957031 160.57708740234375 54.129356384277344 160.1702880859375 61.4530029296875 158.94964599609375 77.32089233398438 157.3221435546875 93.18878173828124 155.6947021484375 105.39486694335938 154.06719970703125 115.56657409667967 150.40536499023438 126.55203247070313 150.40536499023438 126.55203247070313 " />
        <polyline stroke="black" stroke-width="3" stroke-linecap="round" fill="transparent" stroke-linejoin="round" points="101.98797607421876 172.121337890625 97.91928100585938 177.8175048828125 94.2574462890625 182.6999359130859 88.1544189453125 190.8373107910156 82.0513916015625 201.009033203125 82.0513916015625 201.009033203125 " />
        <polyline stroke="black" stroke-width="3" stroke-linecap="round" fill="transparent" stroke-linejoin="round" points="181.327392578125 161.94961547851563 184.17547607421875 164.39083862304688 187.0235595703125 166.83203125 192.7197265625 172.121337890625 200.04339599609375 180.66558837890625 208.1807861328125 191.65106201171875 212.24945068359375 197.75408935546875 212.24945068359375 197.75408935546875 " />
        </svg>