<?xml version="1.0" standalone="no"?>
    <svg width="256" height="256" xmlns="http://www.w3.org/2000/svg" version="1.1">
    <polyline stroke="black" stroke-width="3" stroke-linecap="round" fill="transparent" stroke-linejoin="round" points="80 101 78 102 77 103 78 104 87 102 101 99 121 94 141 91 159 88 170 86 172 86 178 86 179 86 179 86 " />
        <polyline stroke="black" stroke-width="3" stroke-linecap="round" fill="transparent" stroke-linejoin="round" points="113 56 112 61 112 67 109 83 107 102 106 118 105 130 106 135 106 137 107 140 111 141 116 141 124 140 132 140 140 140 148 139 152 139 155 138 156 138 157 137 158 134 158 134 " />
        <polyline stroke="black" stroke-width="3" stroke-linecap="round" fill="transparent" stroke-linejoin="round" points="162 66 162 70 161 81 160 97 160 113 160 127 159 137 159 140 159 140 " />
        <polyline stroke="black" stroke-width="3" stroke-linecap="round" fill="transparent" stroke-linejoin="round" points="117 171 114 175 108 183 103 193 100 199 100 199 " />
        <polyline stroke="black" stroke-width="3" stroke-linecap="round" fill="transparent" stroke-linejoin="round" points="166 184 166 185 167 188 172 195 174 197 176 199 181 204 184 205 190 209 192 210 192 210 " />
        </svg>