<?xml version="1.0" standalone="no"?>
    <svg width="256" height="256" xmlns="http://www.w3.org/2000/svg" version="1.1">
    <polyline stroke="black" stroke-width="3" stroke-linecap="round" fill="transparent" stroke-linejoin="round" points="49 77 55 77 61 77 74 73 81 71 95 69 108 69 113 69 113 69 " />
        <polyline stroke="black" stroke-width="3" stroke-linecap="round" fill="transparent" stroke-linejoin="round" points="73 82 71 101 69 120 64 146 61 173 61 182 60 196 60 201 60 201 " />
        <polyline stroke="black" stroke-width="3" stroke-linecap="round" fill="transparent" stroke-linejoin="round" points="73 125 84 123 95 121 106 121 113 127 115 151 115 176 115 196 115 209 123 218 141 220 162 221 184 220 201 216 218 211 228 203 235 192 236 171 236 159 236 159 " />
        <polyline stroke="black" stroke-width="3" stroke-linecap="round" fill="transparent" stroke-linejoin="round" points="131 79 131 93 131 107 131 117 131 124 133 126 140 127 152 127 166 127 181 126 193 125 203 123 206 122 206 122 " />
        <polyline stroke="black" stroke-width="3" stroke-linecap="round" fill="transparent" stroke-linejoin="round" points="199 82 199 95 199 108 199 118 199 121 199 121 " />
        <polyline stroke="black" stroke-width="3" stroke-linecap="round" fill="transparent" stroke-linejoin="round" points="174 56 174 62 174 68 174 77 174 106 174 139 168 177 165 192 165 192 " />
        </svg>