<?xml version="1.0" standalone="no"?>
    <svg width="256" height="256" xmlns="http://www.w3.org/2000/svg" version="1.1">
    <polyline stroke="black" stroke-width="3" stroke-linecap="round" fill="transparent" stroke-linejoin="round" points="31.04119873046875 99.61868286132813 51.56976318359375 91.8178253173828 60.602294921875 88.1226806640625 70.45602416992188 84.42755126953125 97.14315795898438 76.21612548828125 109.46029663085938 72.52099609375 116.85055541992188 70.87870788574219 119.72454833984376 70.05755615234375 119.72454833984376 70.05755615234375 " />
        <polyline stroke="black" stroke-width="3" stroke-linecap="round" fill="transparent" stroke-linejoin="round" points="68.813720703125 87.30155944824219 68.813720703125 98.79753112792967 68.40316772460938 107.83010864257813 67.58203125 128.358642578125 67.58203125 144.78147888183594 67.58203125 151.76119995117188 67.99261474609375 165.31002807617188 67.99261474609375 167.36288452148438 67.99261474609375 167.36288452148438 " />
        <polyline stroke="black" stroke-width="3" stroke-linecap="round" fill="transparent" stroke-linejoin="round" points="103.30169677734376 94.28125 100.427734375 104.9561004638672 99.19601440429688 110.7041015625 97.14315795898438 119.73666381835938 87.2894287109375 149.29776000976563 76.61459350585938 169.41574096679688 66.35031127929688 185.83859252929688 66.35031127929688 185.83859252929688 " />
        <polyline stroke="black" stroke-width="3" stroke-linecap="round" fill="transparent" stroke-linejoin="round" points="40.484344482421875 212.52569580078125 54.033172607421875 196.92401123046875 67.99261474609375 184.60687255859375 75.38287353515625 178.0377197265625 95.91143798828124 159.97259521484375 103.30169677734376 152.99290466308594 103.30169677734376 152.99290466308594 " />
        <polyline stroke="black" stroke-width="3" stroke-linecap="round" fill="transparent" stroke-linejoin="round" points="123.83026123046876 97.15525817871094 137.37908935546875 89.76498413085938 143.9482421875 86.89097595214844 159.13934326171875 81.55355834960938 175.56219482421875 77.03726196289063 183.77362060546875 75.39498901367188 206.35498046875 71.28927612304688 214.1558837890625 70.05755615234375 216.61932373046875 70.05755615234375 216.61932373046875 70.05755615234375 " />
        <polyline stroke="black" stroke-width="3" stroke-linecap="round" fill="transparent" stroke-linejoin="round" points="148.46453857421875 92.22840881347656 146.00106811523438 103.72439575195313 144.76937866210938 118.09439086914063 144.35882568359375 127.12693786621094 143.9482421875 140.67576599121094 144.35882568359375 151.35061645507813 145.179931640625 157.50918579101563 145.59051513671875 159.15147399902344 145.59051513671875 159.15147399902344 " />
        <polyline stroke="black" stroke-width="3" stroke-linecap="round" fill="transparent" stroke-linejoin="round" points="191.1639404296875 73.34213256835938 187.0582275390625 87.71211242675781 184.1842041015625 97.15525817871094 180.489013671875 107.83010864257813 165.70849609375 146.01318359375 155.85479736328125 166.9523162841797 146.41162109375 184.1962890625 146.41162109375 184.1962890625 " />
        <polyline stroke="black" stroke-width="3" stroke-linecap="round" fill="transparent" stroke-linejoin="round" points="111.51312255859376 202.6719970703125 120.95623779296876 190.3548583984375 126.70428466796876 184.60687255859375 143.1270751953125 172.70030212402344 159.5499267578125 164.4888916015625 174.33050537109375 159.56204223632813 181.3101806640625 157.91973876953125 200.19647216796875 156.2774658203125 211.2818603515625 156.6880340576172 211.2818603515625 156.6880340576172 " />
        </svg>