<?xml version="1.0" standalone="no"?>
    <svg width="256" height="256" xmlns="http://www.w3.org/2000/svg" version="1.1">
    <polyline stroke="black" stroke-width="3" stroke-linecap="round" fill="transparent" stroke-linejoin="round" points="43.55316162109375 131.69163513183594 63.7926025390625 117.64793395996094 72.0535888671875 112.27828979492188 81.55377197265625 106.49557495117188 98.90185546875 94.93017578125 117.90219116210938 82.53866577148438 124.92404174804688 78.40815734863281 128.22845458984375 76.34291076660156 127.81536865234376 75.92985534667969 127.81536865234376 75.92985534667969 " />
        <polyline stroke="black" stroke-width="3" stroke-linecap="round" fill="transparent" stroke-linejoin="round" points="62.553466796875 108.14776611328124 55.531585693359375 131.69163513183594 53.87939453125 141.60484313964844 52.2271728515625 151.51805114746094 50.988037109375 159.779052734375 52.2271728515625 171.75750732421875 53.46630859375 172.99667358398438 55.531585693359375 173.82275390625 64.61871337890625 172.1705780029297 64.61871337890625 172.1705780029297 " />
        <polyline stroke="black" stroke-width="3" stroke-linecap="round" fill="transparent" stroke-linejoin="round" points="116.66302490234376 106.08255004882813 102.206298828125 132.10470581054688 95.18441772460938 144.08316040039063 82.79290771484375 163.90957641601563 66.27093505859375 180.8446350097656 57.59686279296875 187.86648559570313 54.70550537109375 189.9317321777344 49.748870849609375 193.649169921875 48.92279052734375 194.062255859375 48.92279052734375 194.062255859375 55.1185302734375 192.82308959960935 62.553466796875 190.75784301757813 82.79290771484375 181.25767517089844 113.358642578125 163.08346557617188 120.79354858398438 157.30076599121094 120.79354858398438 157.30076599121094 " />
        <polyline stroke="black" stroke-width="3" stroke-linecap="round" fill="transparent" stroke-linejoin="round" points="121.61962890625 101.53898620605467 132.77197265625 94.10406494140624 139.38079833984375 91.21272277832033 153.42449951171875 85.43002319335938 167.46820068359375 80.47341918945313 184.40325927734375 75.51681518554688 187.29461669921875 74.69070434570313 190.59906005859375 74.27764892578125 190.59906005859375 74.69070434570313 190.59906005859375 74.69070434570313 " />
        <polyline stroke="black" stroke-width="3" stroke-linecap="round" fill="transparent" stroke-linejoin="round" points="155.07672119140625 106.49557495117188 148.05487060546875 121.36538696289063 144.33740234375 139.95263671875 143.51132202148438 148.21365356445313 143.92431640625 162.2573699951172 145.98959350585938 168.86618041992188 149.70703125 170.51837158203125 157.968017578125 166.8009033203125 157.968017578125 166.8009033203125 " />
        <polyline stroke="black" stroke-width="3" stroke-linecap="round" fill="transparent" stroke-linejoin="round" points="198.86004638671875 102.36508178710938 188.1207275390625 118.8870849609375 172.01177978515625 148.62669372558594 159.20721435546875 168.86618041992188 143.92431640625 187.86648559570313 136.90252685546875 193.649169921875 133.59808349609375 195.3013916015625 133.18505859375 194.88833618164065 139.38079833984375 190.34478759765625 161.685546875 177.95327758789063 187.29461669921875 165.561767578125 205.88189697265625 159.3660125732422 218.27337646484375 157.71380615234375 227.7735595703125 160.60516357421875 227.7735595703125 160.60516357421875 " />
        </svg>