<?xml version="1.0" standalone="no"?>
    <svg width="256" height="256" xmlns="http://www.w3.org/2000/svg" version="1.1">
    <polyline stroke="black" stroke-width="3" stroke-linecap="round" fill="transparent" stroke-linejoin="round" points="75.05816650390625 33.97550964355469 61.010833740234375 50.18391418457031 57.22894287109375 54.50616455078125 50.74554443359375 64.771484375 47.50384521484375 69.63400268554688 41.0205078125 80.97988891601563 34.537109375 93.40634155273438 23.191253662109375 117.71896362304688 19.949554443359375 123.66203308105467 14.546722412109377 132.3065185546875 13.466156005859377 133.92735290527344 11.8453369140625 136.08848571777344 11.3050537109375 136.62876892089844 10.7647705078125 137.16905212402344 10.7647705078125 137.16905212402344 10.7647705078125 137.16905212402344 " />
        <polyline stroke="black" stroke-width="3" stroke-linecap="round" fill="transparent" stroke-linejoin="round" points="74.517822265625 48.022796630859375 83.70263671875 58.828399658203125 95.04852294921876 76.65765380859375 104.23324584960938 92.32577514648438 111.25692749023438 103.67166137695313 113.95834350585938 107.45361328125 118.82086181640624 111.77586364746094 120.98193359375 113.39671325683594 123.14306640625 114.47727966308594 123.14306640625 114.47727966308594 " />
        <polyline stroke="black" stroke-width="3" stroke-linecap="round" fill="transparent" stroke-linejoin="round" points="61.010833740234375 94.48690795898438 65.87338256835938 119.33978271484376 66.95394897460938 130.6856689453125 68.57479858398438 153.917724609375 69.65536499023438 162.56224060058594 70.73590087890625 178.7706298828125 71.27618408203125 184.71371459960935 72.35675048828125 192.81793212890625 72.35675048828125 195.51931762695313 72.89703369140625 199.30126953125 73.43731689453125 200.3818359375 73.9775390625 202.54296875 73.9775390625 203.083251953125 74.517822265625 205.244384765625 74.517822265625 205.78463745117188 73.9775390625 207.40548706054688 73.9775390625 207.94577026367188 72.89703369140625 209.02633666992188 72.35675048828125 209.56658935546875 71.81649780273438 210.64715576171875 70.73590087890625 211.18743896484375 69.65536499023438 211.72772216796875 68.03451538085938 212.26800537109375 65.33309936523438 211.72772216796875 62.631683349609375 211.18743896484375 55.60809326171875 206.86520385742188 52.36639404296875 203.62353515625 47.50384521484375 198.22073364257813 45.34271240234375 194.97906494140625 45.34271240234375 194.97906494140625 " />
        <polyline stroke="black" stroke-width="3" stroke-linecap="round" fill="transparent" stroke-linejoin="round" points="24.81207275390625 145.2732391357422 21.570404052734375 158.23997497558594 20.489837646484375 163.10250854492188 18.328704833984375 168.5052947998047 15.087005615234377 178.2303466796875 13.466156005859377 182.0123291015625 11.3050537109375 187.41510009765625 10.7647705078125 189.57623291015625 9.6842041015625 191.73736572265625 9.6842041015625 192.27764892578125 10.2244873046875 192.81793212890625 10.2244873046875 192.81793212890625 " />
        <polyline stroke="black" stroke-width="3" stroke-linecap="round" fill="transparent" stroke-linejoin="round" points="89.64572143554688 146.35382080078125 98.83050537109376 163.64279174804688 102.6124267578125 172.2872772216797 105.85409545898438 180.3914794921875 108.01522827148438 184.1734313964844 109.09579467773438 185.79428100585935 110.71664428710938 187.95538330078125 111.79721069335938 189.03594970703125 115.03890991210938 190.11651611328125 115.03890991210938 190.11651611328125 " />
        <polyline stroke="black" stroke-width="3" stroke-linecap="round" fill="transparent" stroke-linejoin="round" points="171.22802734375 33.43523406982422 163.12384033203125 49.10335540771485 158.8016357421875 59.368682861328125 150.15707397460938 78.27848815917969 147.4556884765625 85.3021240234375 140.97235107421875 98.80914306640624 138.27093505859375 103.67166137695313 135.56951904296875 110.155029296875 134.48895263671875 111.77586364746094 133.40841674804688 113.39671325683594 133.40841674804688 113.93699645996094 133.40841674804688 113.93699645996094 " />
        <polyline stroke="black" stroke-width="3" stroke-linecap="round" fill="transparent" stroke-linejoin="round" points="151.7779541015625 79.89932250976563 172.848876953125 76.65765380859375 187.43646240234375 73.95623779296875 195.5406494140625 71.79513549804688 202.5643310546875 70.17428588867188 212.289306640625 68.01316833496094 216.0712890625 67.47288513183594 225.256103515625 66.93260192871094 231.19915771484375 66.93260192871094 233.36029052734375 68.01316833496094 233.36029052734375 68.01316833496094 " />
        <polyline stroke="black" stroke-width="3" stroke-linecap="round" fill="transparent" stroke-linejoin="round" points="202.5643310546875 82.60073852539063 197.1614990234375 94.48690795898438 191.7586669921875 106.37307739257813 187.43646240234375 117.71896362304688 179.332275390625 135.54820251464844 175.55029296875 144.19268798828125 171.768310546875 150.67605590820313 164.74468994140625 161.48165893554688 158.8016357421875 171.74697875976563 155.5599365234375 176.6094970703125 149.61679077148438 187.41510009765625 145.8348388671875 194.43875122070313 140.43206787109375 203.62353515625 132.86813354492188 218.21109008789065 128.005615234375 225.2347412109375 126.384765625 226.8555908203125 124.763916015625 227.9361572265625 124.763916015625 227.9361572265625 " />
        <polyline stroke="black" stroke-width="3" stroke-linecap="round" fill="transparent" stroke-linejoin="round" points="149.0765380859375 107.45361328125 152.3182373046875 126.36343383789063 156.6405029296875 138.24961853027344 159.3419189453125 149.5955047607422 165.28497314453125 167.42474365234375 167.986328125 176.6094970703125 171.768310546875 192.81793212890625 173.38916015625 198.22073364257813 176.090576171875 207.40548706054688 177.171142578125 210.64715576171875 178.251708984375 214.42913818359375 180.953125 220.37222290039065 184.73504638671875 225.7750244140625 184.73504638671875 225.7750244140625 " />
        </svg>