<?xml version="1.0" standalone="no"?>
    <svg width="256" height="256" xmlns="http://www.w3.org/2000/svg" version="1.1">
    <polyline stroke="black" stroke-width="3" stroke-linecap="round" fill="transparent" stroke-linejoin="round" points="84.1849365234375 56.36395263671875 74.50445556640625 75.07955932617188 65.46929931640625 93.79518127441406 55.143463134765625 117.02835083007813 48.6898193359375 131.22640991210938 45.46295166015625 139.6161651611328 44.1722412109375 143.48837280273438 46.75372314453125 140.9069061279297 51.271270751953125 130.58103942871094 58.37030029296875 110.57469177246094 68.6961669921875 88.63224792480469 76.4405517578125 79.59712219238281 83.53955078125 73.14346313476563 93.22006225585938 69.27127075195313 104.836669921875 67.98052978515625 120.9708251953125 71.20736694335938 133.23275756835938 76.37030029296875 144.849365234375 83.46931457519531 151.9483642578125 89.92298889160156 155.820556640625 95.08590698242188 155.820556640625 95.08590698242188 " />
        <polyline stroke="black" stroke-width="3" stroke-linecap="round" fill="transparent" stroke-linejoin="round" points="108.7088623046875 113.15615844726563 105.48202514648438 130.58103942871094 103.5458984375 158.331787109375 102.90057373046876 191.89080810546875 102.90057373046876 208.67034912109375 102.25518798828124 218.9961853027344 100.319091796875 223.5137634277344 95.801513671875 222.868408203125 92.57470703125 215.76937866210935 92.57470703125 215.76937866210935 " />
        <polyline stroke="black" stroke-width="3" stroke-linecap="round" fill="transparent" stroke-linejoin="round" points="64.823974609375 160.9132537841797 71.27761840820313 171.23910522460938 80.312744140625 173.82057189941406 93.22006225585938 173.17520141601563 108.7088623046875 166.72154235839844 108.7088623046875 166.72154235839844 " />
        <polyline stroke="black" stroke-width="3" stroke-linecap="round" fill="transparent" stroke-linejoin="round" points="134.52349853515625 139.6161651611328 124.843017578125 146.71519470214844 119.6800537109375 153.16885375976563 115.16250610351563 158.97715759277344 111.29031372070313 163.49472045898438 111.29031372070313 163.49472045898438 " />
        <polyline stroke="black" stroke-width="3" stroke-linecap="round" fill="transparent" stroke-linejoin="round" points="160.338134765625 42.811256408691406 155.820556640625 62.1722412109375 152.59375 75.72492980957031 150.01226806640625 86.05078125 148.7215576171875 91.8590850830078 148.7215576171875 95.08590698242188 148.7215576171875 97.02200317382813 151.302978515625 95.08590698242188 155.820556640625 89.27761840820313 162.91961669921875 80.88786315917969 172.60009765625 70.56199645996094 180.344482421875 62.81761169433594 188.7342529296875 55.71858215332031 195.833251953125 51.84638214111328 200.350830078125 50.55564880371094 201.6416015625 57.009307861328125 176.4722900390625 137.03469848632813 161.62884521484375 166.076171875 148.076171875 185.43716430664065 138.39569091796875 197.05374145507813 130.65130615234375 206.7342529296875 130.65130615234375 206.7342529296875 " />
        <polyline stroke="black" stroke-width="3" stroke-linecap="round" fill="transparent" stroke-linejoin="round" points="150.01226806640625 107.34786987304688 157.75665283203125 118.319091796875 165.5010986328125 129.93568420410156 176.4722900390625 144.13372802734375 188.7342529296875 158.97715759277344 199.7054443359375 172.52984619140625 209.385986328125 188.01861572265625 209.385986328125 188.01861572265625 " />
        </svg>