<?xml version="1.0" standalone="no"?>
    <svg width="256" height="256" xmlns="http://www.w3.org/2000/svg" version="1.1">
    <polyline stroke="black" stroke-width="3" stroke-linecap="round" fill="transparent" stroke-linejoin="round" points="78.17453002929688 85.77243041992188 77.0726318359375 97.3421630859375 75.97076416015625 114.97222900390624 74.31793212890625 132.602294921875 72.66513061523438 147.4776611328125 71.56326293945313 160.7001953125 71.56326293945313 168.96429443359375 71.56326293945313 173.37181091308594 71.56326293945313 173.37181091308594 73.216064453125 169.51522827148438 73.216064453125 169.51522827148438 " />
        <polyline stroke="black" stroke-width="3" stroke-linecap="round" fill="transparent" stroke-linejoin="round" points="79.82733154296875 121.03256225585938 84.23486328125 108.91189575195313 89.7442626953125 102.8515625 99.1102294921875 96.2402801513672 112.332763671875 90.17994689941406 128.30999755859375 86.32337951660156 145.38916015625 84.67056274414063 161.36639404296875 85.77243041992188 175.6907958984375 90.73089599609376 184.505859375 97.3421630859375 192.218994140625 109.46282958984376 196.62652587890625 126.54196166992188 196.62652587890625 145.27389526367188 192.218994140625 162.35302734375 185.60772705078125 172.82086181640625 176.24176025390625 178.88121032714844 162.46826171875 181.0849609375 148.14382934570313 175.02462768554688 138.2269287109375 161.8020782470703 129.41189575195313 135.35699462890625 129.41189575195313 135.35699462890625 " />
        <polyline stroke="black" stroke-width="3" stroke-linecap="round" fill="transparent" stroke-linejoin="round" points="127.2081298828125 35.63694763183594 128.30999755859375 55.47076416015625 128.8609619140625 85.77243041992188 128.30999755859375 117.7269287109375 127.2081298828125 149.13047790527344 126.65719604492188 175.5755615234375 126.65719604492188 200.91879272460935 126.65719604492188 218.548828125 125.5552978515625 233.4241943359375 123.90249633789063 242.23922729492188 123.90249633789063 247.7486267089844 123.90249633789063 247.7486267089844 " />
        </svg>