<?xml version="1.0" standalone="no"?>
    <svg width="256" height="256" xmlns="http://www.w3.org/2000/svg" version="1.1">
    <polyline stroke="black" stroke-width="3" stroke-linecap="round" fill="transparent" stroke-linejoin="round" points="69.1806640625 70.23756408691406 84.68402099609375 62.753204345703125 98.58355712890624 55.268829345703125 121.03665161132813 42.97309112548828 137.60919189453125 32.28113555908203 153.6470947265625 22.123779296875 163.26983642578125 15.708610534667969 168.08123779296875 14.104820251464844 168.08123779296875 14.104820251464844 " />
        <polyline stroke="black" stroke-width="3" stroke-linecap="round" fill="transparent" stroke-linejoin="round" points="106.06793212890624 59.011016845703125 102.86032104492188 70.23756408691406 101.7911376953125 79.86032104492188 101.25653076171876 92.690673828125 102.32574462890624 103.38262939453124 103.92950439453124 110.3323974609375 106.60250854492188 115.14376831054688 109.81008911132813 117.28216552734376 113.55227661132813 117.28216552734376 118.3636474609375 113.00538635253906 123.70965576171876 106.05560302734376 131.19400024414063 94.29446411132813 136.53997802734375 85.206298828125 140.28216552734375 79.32572937011719 143.48974609375 75.58354187011719 147.76654052734375 73.97975158691406 152.577880859375 73.97975158691406 158.45849609375 76.11814880371094 168.08123779296875 82.53330993652344 177.16943359375 89.48307800292969 184.65374755859375 95.89825439453124 189.46514892578125 101.77882385253906 193.20733642578125 110.8669891357422 193.20733642578125 110.8669891357422 " />
        <polyline stroke="black" stroke-width="3" stroke-linecap="round" fill="transparent" stroke-linejoin="round" points="101.25653076171876 133.32008361816406 108.74090576171876 146.68502807617188 112.48309326171876 154.16940307617188 117.82904052734376 159.515380859375 124.77880859375 161.6537628173828 131.72857666015625 158.98077392578125 131.72857666015625 158.98077392578125 " />
        <polyline stroke="black" stroke-width="3" stroke-linecap="round" fill="transparent" stroke-linejoin="round" points="165.40826416015625 121.55894470214844 160.59686279296875 131.71629333496094 151.50872802734375 147.21963500976563 131.19400024414063 177.6916961669922 116.22528076171876 196.93719482421875 102.32574462890624 212.97512817382813 87.35699462890625 224.73629760742188 76.13043212890625 231.68606567382813 67.57687377929688 231.68606567382813 67.57687377929688 231.68606567382813 " />
        <polyline stroke="black" stroke-width="3" stroke-linecap="round" fill="transparent" stroke-linejoin="round" points="61.6962890625 172.88031005859375 77.7342529296875 183.572265625 90.5645751953125 192.12582397460935 112.48309326171876 206.02536010742188 137.0745849609375 221.5286865234375 154.71630859375 232.7552490234375 169.15045166015625 240.77420043945313 177.16943359375 245.58560180664065 177.16943359375 245.58560180664065 " />
        </svg>