<?xml version="1.0" standalone="no"?>
    <svg width="256" height="256" xmlns="http://www.w3.org/2000/svg" version="1.1">
    <polyline stroke="black" stroke-width="3" stroke-linecap="round" fill="transparent" stroke-linejoin="round" points="67 84 66 84 64 85 65 85 71 83 82 81 109 76 136 71 153 67 170 64 172 64 172 64 " />
        <polyline stroke="black" stroke-width="3" stroke-linecap="round" fill="transparent" stroke-linejoin="round" points="102 78 101 77 101 76 101 77 101 80 101 88 101 91 99 105 97 117 93 134 92 141 92 144 93 144 94 143 95 142 97 140 100 138 106 134 116 127 125 122 128 120 133 117 133 117 " />
        <polyline stroke="black" stroke-width="3" stroke-linecap="round" fill="transparent" stroke-linejoin="round" points="141 104 139 104 138 106 140 111 141 113 146 125 152 140 158 152 158 152 " />
        <polyline stroke="black" stroke-width="3" stroke-linecap="round" fill="transparent" stroke-linejoin="round" points="124 154 123 155 123 157 123 161 124 167 126 173 126 173 " />
        <polyline stroke="black" stroke-width="3" stroke-linecap="round" fill="transparent" stroke-linejoin="round" points="143 157 143 158 142 159 140 164 139 166 133 175 127 184 120 194 101 217 90 229 85 234 85 234 " />
        <polyline stroke="black" stroke-width="3" stroke-linecap="round" fill="transparent" stroke-linejoin="round" points="96 179 96 180 97 182 103 187 112 195 128 205 147 213 162 217 167 218 175 220 175 220 " />
        </svg>