<?xml version="1.0" standalone="no"?>
    <svg width="256" height="256" xmlns="http://www.w3.org/2000/svg" version="1.1">
    <polyline stroke="black" stroke-width="3" stroke-linecap="round" fill="transparent" stroke-linejoin="round" points="90.98455810546876 72.52099609375 107.8179931640625 70.05755615234375 125.88311767578124 68.00469970703125 144.35882568359375 66.3624267578125 159.96051025390625 64.72013854980469 168.17193603515625 64.3095703125 168.17193603515625 64.3095703125 " />
        <polyline stroke="black" stroke-width="3" stroke-linecap="round" fill="transparent" stroke-linejoin="round" points="134.50509643554688 57.329864501953125 120.95623779296876 79.09011840820313 108.228515625 98.79753112792967 102.48056030273438 107.00895690917967 84.41546630859375 130.8220672607422 73.74057006835938 141.907470703125 67.99261474609375 146.83433532714844 67.99261474609375 146.83433532714844 " />
        <polyline stroke="black" stroke-width="3" stroke-linecap="round" fill="transparent" stroke-linejoin="round" points="95.09027099609376 100.85040283203124 102.48056030273438 103.31382751464844 118.49285888671876 109.47239685058594 126.29367065429688 112.34637451171876 147.2327880859375 122.2000732421875 158.728759765625 127.53750610351563 167.35076904296875 132.87493896484375 171.45648193359375 135.74893188476563 171.45648193359375 135.74893188476563 " />
        <polyline stroke="black" stroke-width="3" stroke-linecap="round" fill="transparent" stroke-linejoin="round" points="113.56597900390624 152.1717529296875 122.59857177734376 152.1717529296875 130.39938354492188 152.99290466308594 135.73681640625 153.81405639648438 139.43197631835938 155.04576110839844 141.89535522460938 156.2774658203125 141.89535522460938 156.2774658203125 " />
        <polyline stroke="black" stroke-width="3" stroke-linecap="round" fill="transparent" stroke-linejoin="round" points="60.191741943359375 207.18829345703125 80.72030639648438 202.6719970703125 103.71224975585938 198.15570068359375 124.6513671875 195.6922912597656 142.305908203125 195.28170776367188 158.3182373046875 195.6922912597656 171.0458984375 196.92401123046875 175.9727783203125 197.74514770507813 185.4158935546875 200.20855712890625 185.4158935546875 200.20855712890625 " />
        </svg>