<?xml version="1.0" standalone="no"?>
    <svg width="256" height="256" xmlns="http://www.w3.org/2000/svg" version="1.1">
    <polyline stroke="black" stroke-width="3" stroke-linecap="round" fill="transparent" stroke-linejoin="round" points="112.7671203613281 52.39923095703125 110.45806884765624 56.728668212890625 108.14901733398438 61.05810546875 100.93325805664063 72.89189147949219 94.2947998046875 84.43707275390625 85.3472900390625 95.98223876953124 80.1519775390625 100.88894653320313 80.1519775390625 100.88894653320313 " />
        <polyline stroke="black" stroke-width="3" stroke-linecap="round" fill="transparent" stroke-linejoin="round" points="115.36468505859375 76.06681823730469 122.5804443359375 82.70529174804688 129.79620361328125 89.34376525878906 131.5279541015625 91.07554626464844 131.5279541015625 91.07554626464844 " />
        <polyline stroke="black" stroke-width="3" stroke-linecap="round" fill="transparent" stroke-linejoin="round" points="67.4522705078125 149.378662109375 88.522216796875 141.58566284179688 109.5921630859375 133.79266357421875 129.507568359375 128.88597106933594 145.95944213867188 124.26789855957033 158.65911865234375 118.78395080566406 162.1226806640625 116.47491455078124 162.1226806640625 116.47491455078124 " />
        <polyline stroke="black" stroke-width="3" stroke-linecap="round" fill="transparent" stroke-linejoin="round" points="122.29183959960938 100.31167602539063 108.14901733398438 135.81307983398438 94.00619506835938 171.31448364257813 83.03829956054688 196.42526245117188 73.8021240234375 211.14535522460935 67.45230102539063 218.07241821289065 59.082061767578125 222.40185546875 54.752593994140625 220.67007446289065 54.752593994140625 220.67007446289065 " />
        <polyline stroke="black" stroke-width="3" stroke-linecap="round" fill="transparent" stroke-linejoin="round" points="117.3851318359375 157.46029663085938 139.60958862304688 177.66433715820313 161.83404541015625 197.86837768554688 182.61541748046875 214.60885620117188 199.64447021484375 224.99954223632813 214.6531982421875 229.90621948242188 223.3121337890625 229.04034423828125 223.3121337890625 229.04034423828125 " />
        </svg>