<?xml version="1.0" standalone="no"?>
    <svg width="256" height="256" xmlns="http://www.w3.org/2000/svg" version="1.1">
    <polyline stroke="black" stroke-width="3" stroke-linecap="round" fill="transparent" stroke-linejoin="round" points="146.40264892578125 37.849517822265625 134.42416381835938 59.328125 127.81536865234376 69.2413330078125 120.38046264648438 79.56759643554688 104.271484375 99.80705261230467 87.74951171875 117.56822204589844 69.57528686523438 133.26412963867188 65.03173828125 135.742431640625 65.03173828125 135.742431640625 " />
        <polyline stroke="black" stroke-width="3" stroke-linecap="round" fill="transparent" stroke-linejoin="round" points="69.1622314453125 87.00250244140625 79.488525390625 85.76335144042969 88.9886474609375 85.76335144042969 110.46728515625 86.1763916015625 122.44573974609376 86.58944702148438 146.40264892578125 87.41555786132813 166.22906494140625 88.24165344238281 181.51190185546875 91.13299560546876 182.7510986328125 92.7852020263672 182.7510986328125 92.7852020263672 " />
        <polyline stroke="black" stroke-width="3" stroke-linecap="round" fill="transparent" stroke-linejoin="round" points="67.09701538085938 176.2213592529297 82.79290771484375 166.3081512451172 103.03240966796876 157.22103881835938 136.48944091796875 146.894775390625 154.6636962890625 142.3512420654297 162.09857177734375 140.28598022460938 173.66400146484375 135.742431640625 173.66400146484375 135.742431640625 " />
        <polyline stroke="black" stroke-width="3" stroke-linecap="round" fill="transparent" stroke-linejoin="round" points="144.33740234375 101.4592742919922 131.5328369140625 117.15518188476563 123.68490600585938 130.78582763671875 112.53253173828124 154.32969665527344 103.44540405273438 174.98220825195313 90.640869140625 198.52606201171875 85.68426513671875 205.54791259765625 78.24935913085938 215.46112060546875 78.24935913085938 215.46112060546875 " />
        <polyline stroke="black" stroke-width="3" stroke-linecap="round" fill="transparent" stroke-linejoin="round" points="105.51068115234376 177.4604949951172 116.66302490234376 181.59100341796875 124.92404174804688 185.3084716796875 133.59808349609375 189.43896484375 143.09823608398438 193.9825134277344 160.4464111328125 202.65655517578125 176.5552978515625 210.9175720214844 190.18597412109375 219.1785888671875 190.18597412109375 219.1785888671875 " />
        </svg>