<?xml version="1.0" standalone="no"?>
    <svg width="256" height="256" xmlns="http://www.w3.org/2000/svg" version="1.1">
    <polyline stroke="black" stroke-width="3" stroke-linecap="round" fill="transparent" stroke-linejoin="round" points="98 53 98 57 97 64 93 82 90 96 86 111 83 125 80 140 78 153 76 165 74 175 73 183 73 190 73 192 73 194 " />
        <polyline stroke="black" stroke-width="3" stroke-linecap="round" fill="transparent" stroke-linejoin="round" points="86 90 89 85 92 80 96 75 100 70 105 65 111 60 118 55 125 51 132 48 139 47 148 49 154 53 158 58 162 66 165 76 166 89 167 103 168 118 169 132 170 149 172 160 175 169 178 177 182 184 186 189 190 194 194 197 199 199 206 198 211 194 215 188 219 181 220 178 221 175 " />
        <polyline stroke="black" stroke-width="3" stroke-linecap="round" fill="transparent" stroke-linejoin="round" points="112 103 112 104 112 105 112 106 112 108 112 111 113 115 113 119 113 122 113 125 113 127 113 128 113 128 113 128 113 126 114 123 115 118 116 112 119 107 122 102 126 98 131 94 139 91 144 89 148 88 152 88 155 89 156 90 157 92 156 96 154 101 149 111 144 117 138 123 133 128 127 132 123 134 120 136 118 138 116 139 115 139 115 139 116 139 118 138 122 137 125 135 130 133 134 131 139 129 141 129 143 128 " />
        <polyline stroke="black" stroke-width="3" stroke-linecap="round" fill="transparent" stroke-linejoin="round" points="107 148 107 150 106 151 105 154 104 157 103 160 103 164 103 168 103 172 104 176 105 179 106 181 108 184 109 185 112 185 115 184 120 181 125 176 130 170 135 164 140 159 145 154 147 152 150 152 152 153 153 155 155 158 156 162 157 165 158 168 159 172 159 173 159 173 158 173 158 173 " />
        <polyline stroke="black" stroke-width="3" stroke-linecap="round" fill="transparent" stroke-linejoin="round" points="132 142 132 142 133 144 134 146 135 150 135 154 136 160 135 168 135 181 134 191 134 196 135 206 135 211 " />
        </svg>