<?xml version="1.0" standalone="no"?>
    <svg width="256" height="256" xmlns="http://www.w3.org/2000/svg" version="1.1">
    <polyline stroke="black" stroke-width="3" stroke-linecap="round" fill="transparent" stroke-linejoin="round" points="78 46 79 47 80 50 81 56 81 65 80 82 79 96 79 111 78 125 77 138 76 151 75 163 73 173 72 182 69 191 68 196 68 197 67 198 " />
        <polyline stroke="black" stroke-width="3" stroke-linecap="round" fill="transparent" stroke-linejoin="round" points="82 91 85 87 88 84 92 82 96 77 100 73 104 68 110 64 116 60 123 56 130 52 138 50 145 48 155 47 161 47 165 49 168 54 171 63 172 74 173 88 173 102 174 116 175 136 177 149 179 160 182 170 184 177 186 183 188 188 190 191 191 193 194 195 196 195 199 193 202 190 205 186 208 182 208 179 209 177 " />
        <polyline stroke="black" stroke-width="3" stroke-linecap="round" fill="transparent" stroke-linejoin="round" points="118 102 117 102 117 103 118 105 118 108 119 112 120 117 121 121 122 125 123 129 123 132 123 134 122 136 122 136 121 136 " />
        <polyline stroke="black" stroke-width="3" stroke-linecap="round" fill="transparent" stroke-linejoin="round" points="120 103 122 100 125 98 128 96 131 94 134 93 137 92 140 91 142 91 144 92 147 94 147 98 147 104 146 110 144 117 141 124 138 130 136 133 " />
        <polyline stroke="black" stroke-width="3" stroke-linecap="round" fill="transparent" stroke-linejoin="round" points="115 133 116 132 120 130 124 128 127 126 131 124 135 123 138 121 142 121 145 121 146 121 " />
        <polyline stroke="black" stroke-width="3" stroke-linecap="round" fill="transparent" stroke-linejoin="round" points="112 161 111 163 109 164 109 166 108 169 108 171 109 174 109 175 110 177 110 178 111 179 113 180 114 181 117 181 120 181 125 178 129 175 133 172 137 167 141 163 145 159 149 155 151 153 154 153 156 153 157 154 159 155 160 158 161 161 161 163 161 165 161 168 161 170 161 171 160 171 159 171 159 171 " />
        <polyline stroke="black" stroke-width="3" stroke-linecap="round" fill="transparent" stroke-linejoin="round" points="135 136 134 135 134 136 133 138 133 143 132 153 132 161 131 170 130 180 129 189 128 198 128 206 128 210 128 214 " />
        </svg>