<?xml version="1.0" standalone="no"?>
    <svg width="256" height="256" xmlns="http://www.w3.org/2000/svg" version="1.1">
    <polyline stroke="black" stroke-width="3" stroke-linecap="round" fill="transparent" stroke-linejoin="round" points="87.67926025390625 70.45281982421875 121.188720703125 53.24527740478515 127.5283203125 49.622650146484375 140.20758056640625 40.56603240966797 142.924560546875 36.943397521972656 142.924560546875 36.943397521972656 " />
        <polyline stroke="black" stroke-width="3" stroke-linecap="round" fill="transparent" stroke-linejoin="round" points="99.4527587890625 96.71697998046876 94.018798828125 130.2263946533203 87.67926025390625 151.9622802734375 87.67926025390625 153.77359008789063 91.30181884765624 154.67926025390625 98.54718017578124 150.15093994140625 115.75469970703124 135.6603546142578 127.5283203125 123.88681030273438 136.5848388671875 111.20755004882813 136.5848388671875 111.20755004882813 " />
        <polyline stroke="black" stroke-width="3" stroke-linecap="round" fill="transparent" stroke-linejoin="round" points="157.41510009765625 104.867919921875 167.37738037109375 120.26414489746094 167.37738037109375 123.88681030273438 167.37738037109375 127.50942993164063 167.37738037109375 127.50942993164063 " />
        <polyline stroke="black" stroke-width="3" stroke-linecap="round" fill="transparent" stroke-linejoin="round" points="104.88677978515624 168.26416015625 111.2264404296875 164.64149475097656 137.4906005859375 148.33961486816406 142.924560546875 144.71697998046875 148.3585205078125 139.28302001953125 148.3585205078125 139.28302001953125 " />
        <polyline stroke="black" stroke-width="3" stroke-linecap="round" fill="transparent" stroke-linejoin="round" points="126.6226806640625 160.11322021484375 118.47174072265624 182.75473022460935 102.16973876953124 202.67926025390625 97.64154052734376 207.20751953125 82.24530029296875 217.1698303222656 73.188720703125 220.79244995117188 65.94342041015625 223.50942993164065 60.50946044921875 223.50942993164065 56.88671875 222.60379028320313 55.98114013671875 220.79244995117188 58.6981201171875 218.07546997070313 71.37738037109375 212.6415100097656 85.86785888671875 209.01885986328125 106.6981201171875 205.396240234375 142.018798828125 201.7735595703125 169.188720703125 199.05661010742188 195.45281982421875 197.24530029296875 218.0943603515625 197.24530029296875 234.396240234375 199.05661010742188 246.1697998046875 200.867919921875 246.1697998046875 200.867919921875 " />
        </svg>