<?xml version="1.0" standalone="no"?>
    <svg width="256" height="256" xmlns="http://www.w3.org/2000/svg" version="1.1">
    <polyline stroke="black" stroke-width="3" stroke-linecap="round" fill="transparent" stroke-linejoin="round" points="95 67 98 71 101 73 107 77 107 77 " />
        <polyline stroke="black" stroke-width="3" stroke-linecap="round" fill="transparent" stroke-linejoin="round" points="145 58 127 76 114 88 91 108 77 119 69 124 60 127 60 127 " />
        <polyline stroke="black" stroke-width="3" stroke-linecap="round" fill="transparent" stroke-linejoin="round" points="67 78 71 85 73 88 84 99 103 112 122 118 140 120 153 119 156 119 156 119 " />
        <polyline stroke="black" stroke-width="3" stroke-linecap="round" fill="transparent" stroke-linejoin="round" points="74 151 84 147 102 144 115 141 125 138 128 137 128 138 128 138 " />
        <polyline stroke="black" stroke-width="3" stroke-linecap="round" fill="transparent" stroke-linejoin="round" points="103 154 96 161 92 167 83 181 74 195 67 204 62 208 61 209 64 209 73 208 87 206 102 203 114 200 123 197 128 196 129 195 128 194 128 194 " />
        <polyline stroke="black" stroke-width="3" stroke-linecap="round" fill="transparent" stroke-linejoin="round" points="126 173 126 180 127 186 131 199 135 208 140 214 144 215 147 214 147 214 " />
        </svg>