<?xml version="1.0" standalone="no"?>
    <svg width="256" height="256" xmlns="http://www.w3.org/2000/svg" version="1.1">
    <polyline stroke="black" stroke-width="3" stroke-linecap="round" fill="transparent" stroke-linejoin="round" points="90.27645874023438 50.949928283691406 99.017822265625 59.6912841796875 102.6171875 64.833251953125 106.73077392578124 69.9752197265625 113.41534423828124 72.03201293945313 113.41534423828124 72.03201293945313 " />
        <polyline stroke="black" stroke-width="3" stroke-linecap="round" fill="transparent" stroke-linejoin="round" points="158.1505126953125 29.867843627929688 151.4659423828125 46.32215118408203 140.66778564453125 61.23387145996094 120.61410522460938 86.9437255859375 101.0745849609375 108.54002380371094 84.1060791015625 124.48013305664063 72.27957153320313 133.73568725585938 72.27957153320313 133.73568725585938 " />
        <polyline stroke="black" stroke-width="3" stroke-linecap="round" fill="transparent" stroke-linejoin="round" points="58.910430908203125 85.40113830566406 70.2227783203125 91.05731201171876 80.5067138671875 94.6566925048828 95.41845703125 97.74188232421876 117.5289306640625 101.3412628173828 133.46902465820313 104.42643737792967 152.49432373046875 107.51162719726563 168.4344482421875 110.08261108398438 179.74676513671875 112.139404296875 185.9171142578125 114.19618225097656 189.51654052734375 117.2813720703125 189.51654052734375 117.2813720703125 " />
        <polyline stroke="black" stroke-width="3" stroke-linecap="round" fill="transparent" stroke-linejoin="round" points="138.0968017578125 136.30667114257813 129.86962890625 135.2782745361328 124.2135009765625 136.82086181640625 115.986328125 140.9344482421875 104.67398071289063 150.1899871826172 94.90423583984376 159.95974731445313 85.648681640625 172.30047607421875 80.5067138671875 181.5560302734375 77.42153930664063 190.29736328125 77.42153930664063 196.46774291992188 78.964111328125 201.09552001953125 82.04931640625 205.72329711914065 88.21966552734375 207.78009033203125 100.04620361328124 206.23748779296875 112.901123046875 201.60971069335935 124.7276611328125 193.89675903320313 131.4122314453125 187.72637939453125 137.06842041015625 181.5560302734375 140.66778564453125 176.92825317382813 142.72457885742188 173.8430633544922 144.26715087890625 171.78627014160156 145.29556274414063 171.78627014160156 147.35235595703125 174.35726928710938 150.43756103515625 180.013427734375 156.09368896484375 191.8399658203125 161.2357177734375 202.63812255859375 165.3492431640625 212.92205810546875 165.3492431640625 212.92205810546875 " />
        </svg>