<?xml version="1.0" standalone="no"?>
    <svg width="256" height="256" xmlns="http://www.w3.org/2000/svg" version="1.1">
    <polyline stroke="black" stroke-width="3" stroke-linecap="round" fill="transparent" stroke-linejoin="round" points="81.53509521484375 44.779563903808594 85.13449096679688 53.52091217041016 87.1912841796875 59.17707824707031 90.27645874023438 63.29066467285156 94.90423583984376 65.86164855957031 103.64556884765624 64.31906127929688 103.64556884765624 64.31906127929688 " />
        <polyline stroke="black" stroke-width="3" stroke-linecap="round" fill="transparent" stroke-linejoin="round" points="146.323974609375 23.183273315429688 141.6961669921875 33.981414794921875 132.44064331054688 48.378944396972656 110.8443603515625 76.14558410644531 87.70547485351563 98.770263671875 70.2227783203125 112.139404296875 53.768463134765625 120.36654663085938 45.027099609375 122.9375457763672 45.027099609375 122.9375457763672 " />
        <polyline stroke="black" stroke-width="3" stroke-linecap="round" fill="transparent" stroke-linejoin="round" points="53.2542724609375 84.37274169921875 64.05239868164063 87.45793151855469 84.1060791015625 93.6282958984375 114.95794677734376 101.85545349121094 138.61102294921875 107.51162719726563 163.29248046875 111.6251983642578 178.2042236328125 114.19618225097656 189.0023193359375 116.2529754638672 189.0023193359375 116.2529754638672 " />
        <polyline stroke="black" stroke-width="3" stroke-linecap="round" fill="transparent" stroke-linejoin="round" points="128.32705688476563 105.454833984375 109.3017578125 118.82395935058594 98.50360107421876 131.16468811035156 89.76226806640625 145.0480194091797 84.62030029296875 158.9313507080078 81.53509521484375 172.81466674804688 81.53509521484375 187.21218872070313 83.07769775390625 197.49612426757813 85.13449096679688 203.66650390625 90.27645874023438 206.75167846679688 102.10299682617188 203.66650390625 120.09991455078124 189.78317260742188 132.44064331054688 173.8430633544922 132.44064331054688 173.8430633544922 " />
        <polyline stroke="black" stroke-width="3" stroke-linecap="round" fill="transparent" stroke-linejoin="round" points="130.38385009765625 159.95974731445313 135.01162719726563 173.32887268066406 142.21038818359375 184.6412048339844 150.43756103515625 195.95355224609375 158.6646728515625 206.75167846679688 167.92022705078125 219.0924072265625 167.92022705078125 219.0924072265625 " />
        </svg>