<?xml version="1.0" standalone="no"?>
    <svg width="256" height="256" xmlns="http://www.w3.org/2000/svg" version="1.1">
    <polyline stroke="black" stroke-width="3" stroke-linecap="round" fill="transparent" stroke-linejoin="round" points="27.011688232421875 97.38238525390624 27.157562255859375 103.1151123046875 28.593505859375 122.58056640625 32.82763671875 150.73440551757813 35.6336669921875 163.51443481445313 37.851806640625 171.94125366210938 39.23077392578125 177.80868530273438 39.36865234375 178.39541625976563 " />
        <polyline stroke="black" stroke-width="3" stroke-linecap="round" fill="transparent" stroke-linejoin="round" points="61.377197265625 81.54371643066406 69.4781494140625 79.1153564453125 76.94393920898438 78.04916381835938 87.2607421875 80.3790283203125 91.3399658203125 83.55789184570313 96.81689453125 93.09815979003906 100.36212158203124 101.98715209960938 103.43136596679688 125.43840026855467 101.52667236328124 141.47422790527344 99.5098876953125 147.40097045898438 94.26141357421876 153.5239715576172 91.88446044921876 155.54685974121094 87.93890380859375 157.6338348388672 86.50115966796875 157.3260498046875 83.70440673828125 155.78057861328125 81.25018310546875 152.3746795654297 80.4847412109375 150.67471313476563 " />
        <polyline stroke="black" stroke-width="3" stroke-linecap="round" fill="transparent" stroke-linejoin="round" points="63.686126708984375 83.280517578125 64.13009643554688 101.79144287109376 64.77877807617188 146.73171997070313 65.56134033203125 190.76052856445313 65.71762084960938 206.85202026367188 65.4599609375 226.40087890625 65.89666748046875 229.95703125 65.94036865234375 230.3126220703125 65.9447021484375 230.34817504882813 " />
        <polyline stroke="black" stroke-width="3" stroke-linecap="round" fill="transparent" stroke-linejoin="round" points="139.13983154296875 62.55253601074219 147.79608154296875 61.43408203125 167.616943359375 61.47200012207031 183.5615234375 64.41455078125 188.65301513671875 65.76156616210938 192.13836669921875 66.93231201171875 196.75286865234375 66.78628540039063 198.02142333984375 66.40313720703125 198.18988037109375 66.35543823242188 " />
        <polyline stroke="black" stroke-width="3" stroke-linecap="round" fill="transparent" stroke-linejoin="round" points="133.52508544921875 85.7994384765625 133.50131225585938 104.5229949951172 133.98202514648438 146.92190551757813 134.42303466796875 181.17417907714844 134.55770874023438 193.6942443847656 135.65106201171875 209.69708251953125 136.68368530273438 213.776611328125 138.008056640625 217.68341064453125 138.01925659179688 217.744140625 138.01995849609375 217.74798583984375 " />
        <polyline stroke="black" stroke-width="3" stroke-linecap="round" fill="transparent" stroke-linejoin="round" points="169.201904296875 95.44886779785156 169.724853515625 108.51268005371094 169.8863525390625 125.36184692382813 169.89501953125 140.9166717529297 167.75628662109375 173.79539489746094 166.079345703125 186.15866088867188 161.058349609375 196.031005859375 159.71624755859375 195.43072509765625 " />
        <polyline stroke="black" stroke-width="3" stroke-linecap="round" fill="transparent" stroke-linejoin="round" points="142.73565673828125 214.47515869140625 152.7940673828125 214.9271240234375 163.51605224609375 215.036865234375 174.146484375 215.47802734375 189.02630615234375 218.5523681640625 194.3477783203125 221.4525146484375 198.9779052734375 225.73129272460935 199.3792724609375 227.1624755859375 199.419921875 227.30743408203125 " />
        </svg>