<?xml version="1.0" standalone="no"?>
    <svg width="256" height="256" xmlns="http://www.w3.org/2000/svg" version="1.1">
    <polyline stroke="black" stroke-width="3" stroke-linecap="round" fill="transparent" stroke-linejoin="round" points="41.4068603515625 104.91653442382813 39.536712646484375 116.88552856445313 38.788665771484375 122.4959716796875 37.666595458984375 131.4727020263672 37.29254150390625 135.5870361328125 37.29254150390625 136.33511352539063 37.29254150390625 136.33511352539063 " />
        <polyline stroke="black" stroke-width="3" stroke-linecap="round" fill="transparent" stroke-linejoin="round" points="62.35260009765625 75.36811828613281 66.46697998046875 73.87197875976563 70.955322265625 72.74989318847656 75.44369506835938 72.3758544921875 83.67236328125 74.62004089355469 91.15301513671876 83.97080993652344 97.137451171875 107.90878295898438 97.137451171875 135.2130126953125 93.39715576171876 153.91455078125 89.65682983398438 161.76919555664063 86.66461181640625 162.8912811279297 81.80218505859375 156.5327606201172 81.80218505859375 156.5327606201172 " />
        <polyline stroke="black" stroke-width="3" stroke-linecap="round" fill="transparent" stroke-linejoin="round" points="57.490203857421875 58.162689208984375 55.24603271484375 80.60453796386719 54.12396240234375 104.91653442382813 54.12396240234375 148.67813110351563 55.24603271484375 182.34088134765625 57.864227294921875 207.77496337890625 60.85650634765625 220.86605834960935 63.474700927734375 223.85833740234375 63.474700927734375 223.85833740234375 " />
        <polyline stroke="black" stroke-width="3" stroke-linecap="round" fill="transparent" stroke-linejoin="round" points="124.44171142578124 76.11616516113281 133.41842651367188 73.49795532226563 143.14324951171875 70.50570678710938 153.2420654296875 67.51345825195313 172.691650390625 63.39912414550781 188.4010009765625 60.780914306640625 198.873779296875 58.91075134277344 202.6141357421875 58.162689208984375 202.6141357421875 58.162689208984375 " />
        <polyline stroke="black" stroke-width="3" stroke-linecap="round" fill="transparent" stroke-linejoin="round" points="133.79248046875 101.92428588867188 131.92230224609375 108.65684509277344 130.42620849609375 115.01536560058594 128.5560302734375 128.48046875 128.5560302734375 134.09092712402344 128.9300537109375 139.32736206054688 130.80023193359375 146.43394470214844 135.66259765625 149.05215454101563 135.66259765625 149.05215454101563 " />
        <polyline stroke="black" stroke-width="3" stroke-linecap="round" fill="transparent" stroke-linejoin="round" points="183.53857421875 90.32933044433594 179.0501708984375 101.17623901367188 174.187744140625 112.02311706542967 162.21881103515625 136.33511352539063 154.73822021484375 149.05215454101563 147.257568359375 159.8990478515625 134.16650390625 176.73043823242188 123.693603515625 187.95135498046875 117.70916748046876 192.43972778320313 114.71688842773438 193.93585205078125 114.34286499023438 192.81375122070313 121.823486328125 185.7071533203125 130.05218505859375 179.3486328125 149.50177001953125 168.12771606445313 175.6839599609375 156.90679931640625 189.1490478515625 154.28857421875 189.1490478515625 154.28857421875 " />
        </svg>