<?xml version="1.0" standalone="no"?>
    <svg width="256" height="256" xmlns="http://www.w3.org/2000/svg" version="1.1">
    <polyline stroke="black" stroke-width="3" stroke-linecap="round" fill="transparent" stroke-linejoin="round" points="63.4114990234375 91.65280151367188 61.39105224609375 117.0522003173828 61.39105224609375 123.97927856445313 60.8138427734375 143.3174285888672 60.525177001953125 147.35824584960938 60.8138427734375 148.22413635253906 60.8138427734375 148.22413635253906 " />
        <polyline stroke="black" stroke-width="3" stroke-linecap="round" fill="transparent" stroke-linejoin="round" points="89.0994873046875 72.02601623535156 99.20150756835938 66.25343322753906 108.4376220703125 62.501251220703125 114.49887084960938 61.635345458984375 119.69418334960938 62.78987121582031 123.44638061523438 67.69657897949219 124.312255859375 86.16883850097656 120.56005859375 105.79563903808594 117.3851318359375 121.09298706054688 113.92160034179688 130.32913208007813 112.76708984375 131.19500732421875 111.90121459960938 125.99969482421876 111.90121459960938 125.99969482421876 " />
        <polyline stroke="black" stroke-width="3" stroke-linecap="round" fill="transparent" stroke-linejoin="round" points="94.58346557617188 112.43411254882813 97.4697265625 166.40777587890625 100.93325805664063 201.9091796875 102.95370483398438 214.32025146484375 102.95370483398438 214.32025146484375 " />
        <polyline stroke="black" stroke-width="3" stroke-linecap="round" fill="transparent" stroke-linejoin="round" points="165.8748779296875 66.8306884765625 180.594970703125 67.69657897949219 195.02642822265625 69.13972473144531 195.02642822265625 69.13972473144531 " />
        <polyline stroke="black" stroke-width="3" stroke-linecap="round" fill="transparent" stroke-linejoin="round" points="141.05276489257813 134.65858459472656 146.24807739257813 155.43988037109375 149.42300415039063 162.65562438964844 151.44342041015625 163.81008911132813 151.44342041015625 163.81008911132813 " />
        <polyline stroke="black" stroke-width="3" stroke-linecap="round" fill="transparent" stroke-linejoin="round" points="184.92437744140625 130.61776733398438 180.3062744140625 151.6876983642578 175.68829345703125 164.67601013183594 174.82232666015625 166.98504638671875 174.82232666015625 166.98504638671875 " />
        <polyline stroke="black" stroke-width="3" stroke-linecap="round" fill="transparent" stroke-linejoin="round" points="172.2247314453125 167.85093688964844 202.81939697265625 165.25328063964844 228.5074462890625 164.0987548828125 245.2479248046875 164.67601013183594 248.71142578125 165.5419158935547 248.71142578125 165.5419158935547 " />
        </svg>