<?xml version="1.0" standalone="no"?>
    <svg width="256" height="256" xmlns="http://www.w3.org/2000/svg" version="1.1">
    <polyline stroke="black" stroke-width="3" stroke-linecap="round" fill="transparent" stroke-linejoin="round" points="70.96029663085938 106.3945770263672 70.96029663085938 112.08367919921876 70.96029663085938 118.17918395996094 70.96029663085938 124.274658203125 70.96029663085938 134.84017944335938 70.96029663085938 142.56112670898438 70.553955078125 145.8120574951172 69.7412109375 149.46934509277344 68.11572265625 150.28207397460938 68.11572265625 150.28207397460938 " />
        <polyline stroke="black" stroke-width="3" stroke-linecap="round" fill="transparent" stroke-linejoin="round" points="91.27862548828124 85.2635498046875 101.0313720703125 80.38716125488281 106.31414794921876 78.76170349121094 111.19052124023438 77.948974609375 116.06689453125 77.948974609375 123.38153076171876 80.79351806640625 129.47698974609375 86.07627868652344 135.57244873046875 96.23542785644533 138.01068115234375 102.73728942871094 140.4488525390625 123.05557250976563 137.60433959960938 135.24655151367188 129.47698974609375 147.4375 129.47698974609375 147.4375 " />
        <polyline stroke="black" stroke-width="3" stroke-linecap="round" fill="transparent" stroke-linejoin="round" points="113.62872314453124 53.97338104248047 112.00326538085938 81.60626220703125 108.7523193359375 112.08367919921876 105.09506225585938 142.15475463867188 101.8441162109375 167.34942626953125 100.625 178.32131958007813 99.40594482421876 194.16958618164065 99.40594482421876 194.16958618164065 " />
        <polyline stroke="black" stroke-width="3" stroke-linecap="round" fill="transparent" stroke-linejoin="round" points="172.5517578125 87.70175170898438 177.42816162109375 86.48265075683594 182.3045654296875 85.669921875 186.7745361328125 84.857177734375 194.4954833984375 83.63809204101563 198.15283203125 83.23171997070313 201.40374755859375 82.82534790039063 201.40374755859375 82.82534790039063 " />
        <polyline stroke="black" stroke-width="3" stroke-linecap="round" fill="transparent" stroke-linejoin="round" points="168.89447021484375 115.74099731445313 167.26898193359375 127.52560424804688 166.456298828125 133.2147216796875 165.6435546875 138.90383911132813 164.830810546875 149.06297302246094 164.830810546875 153.1266326904297 164.830810546875 159.22210693359375 164.830810546875 162.06668090820313 165.2371826171875 162.06668090820313 165.2371826171875 162.06668090820313 " />
        <polyline stroke="black" stroke-width="3" stroke-linecap="round" fill="transparent" stroke-linejoin="round" points="201.81005859375 121.43009948730467 197.7464599609375 128.33834838867188 187.5872802734375 142.96749877929688 172.5517578125 160.03485107421875 164.4244384765625 166.94305419921875 164.4244384765625 166.94305419921875 " />
        <polyline stroke="black" stroke-width="3" stroke-linecap="round" fill="transparent" stroke-linejoin="round" points="145.73162841796875 173.44491577148438 153.85894775390625 169.3812713623047 183.1173095703125 159.62847900390625 208.31195068359375 154.75210571289063 220.5029296875 153.93936157226563 220.5029296875 153.93936157226563 " />
        </svg>