<?xml version="1.0" standalone="no"?>
    <svg width="256" height="256" xmlns="http://www.w3.org/2000/svg" version="1.1">
    <polyline stroke="black" stroke-width="3" stroke-linecap="round" fill="transparent" stroke-linejoin="round" points="61.97857666015625 109.0308837890625 61.23052978515625 115.01536560058594 60.1083984375 120.62582397460938 58.238250732421875 129.60256958007813 57.490203857421875 132.96884155273438 56.368133544921875 136.33511352539063 55.99407958984375 137.4571990966797 57.116180419921875 135.5870361328125 63.100677490234375 127.73240661621094 73.57354736328125 115.38938903808594 86.66461181640625 102.29832458496094 100.87777709960938 93.32159423828124 112.84677124023438 91.451416015625 121.449462890625 96.31382751464844 129.30413818359375 109.0308837890625 132.29632568359375 124.74015808105467 130.80023193359375 135.96109008789063 126.68588256835938 140.07542419433594 118.83123779296876 139.32736206054688 118.83123779296876 139.32736206054688 " />
        <polyline stroke="black" stroke-width="3" stroke-linecap="round" fill="transparent" stroke-linejoin="round" points="83.29833984375 84.3448486328125 83.29833984375 102.67234802246094 83.67236328125 150.92230224609375 85.91650390625 169.24981689453125 88.16073608398438 179.3486328125 90.7789306640625 182.71490478515625 90.7789306640625 182.71490478515625 " />
        <polyline stroke="black" stroke-width="3" stroke-linecap="round" fill="transparent" stroke-linejoin="round" points="162.9669189453125 100.42816162109376 170.821533203125 96.31382751464844 178.6761474609375 92.19949340820313 185.78271484375 87.71112060546875 198.125732421875 78.73439025878906 206.35443115234375 71.25376892089844 208.5986328125 69.00958251953125 208.5986328125 69.00958251953125 " />
        <polyline stroke="black" stroke-width="3" stroke-linecap="round" fill="transparent" stroke-linejoin="round" points="165.9591064453125 104.54251098632813 159.974609375 119.87774658203124 156.98236083984375 137.83123779296875 156.60833740234375 144.93780517578125 157.35638427734375 157.65484619140625 159.2265625 161.02114868164063 164.0889892578125 160.2730712890625 175.6839599609375 146.43394470214844 188.0269775390625 124.74015808105467 192.88934326171875 116.511474609375 194.75946044921875 114.26730346679688 195.13348388671875 115.763427734375 190.6451416015625 131.0986785888672 177.9281005859375 153.91455078125 164.4630126953125 170.74594116210938 152.8680419921875 181.5928192138672 149.127685546875 184.9591064453125 143.89129638671875 189.07342529296875 143.89129638671875 188.69940185546875 150.99789428710938 184.5850830078125 171.569580078125 174.8602752685547 197.751708984375 164.01339721679688 219.81951904296875 157.65484619140625 233.65869140625 158.40292358398438 233.65869140625 158.40292358398438 " />
        </svg>