<?xml version="1.0" standalone="no"?>
    <svg width="256" height="256" xmlns="http://www.w3.org/2000/svg" version="1.1">
    <polyline stroke="black" stroke-width="3" stroke-linecap="round" fill="transparent" stroke-linejoin="round" points="50.90374755859375 117.91879272460938 49.691497802734375 125.19229125976563 48.88330078125 131.25352478027344 48.479248046875 143.7800750732422 48.479248046875 145.80050659179688 48.479248046875 145.80050659179688 " />
        <polyline stroke="black" stroke-width="3" stroke-linecap="round" fill="transparent" stroke-linejoin="round" points="84.03851318359375 96.90652465820313 90.0997314453125 92.8656768798828 95.75692749023438 89.22894287109375 105.45489501953124 84.37994384765625 114.34469604492188 83.97586059570313 122.022216796875 88.82485961914063 131.316162109375 107.4126434326172 133.3365478515625 133.27395629882813 127.67941284179688 152.66989135742188 123.63861083984376 158.7311248779297 123.63861083984376 158.7311248779297 " />
        <polyline stroke="black" stroke-width="3" stroke-linecap="round" fill="transparent" stroke-linejoin="round" points="98.98956298828124 65.3880615234375 98.58544921875 80.74319458007813 98.181396484375 96.90652465820313 97.37322998046876 115.09024047851563 94.94873046875 148.6290740966797 94.14056396484376 163.98419189453125 92.52426147460938 187.4209899902344 91.716064453125 201.56390380859375 91.716064453125 205.20062255859375 91.716064453125 205.20062255859375 " />
        <polyline stroke="black" stroke-width="3" stroke-linecap="round" fill="transparent" stroke-linejoin="round" points="157.58154296875 88.4207763671875 164.046875 86.40036010742188 171.3203125 84.37994384765625 179.4019775390625 81.9554443359375 195.1612548828125 77.51054382324219 201.62652587890625 75.49012756347656 207.28369140625 73.87380981445313 214.153076171875 71.04522705078125 216.17352294921875 69.02481079101563 215.7694091796875 68.21664428710938 208.9000244140625 68.6207275390625 198.39385986328125 74.27789306640625 193.54486083984375 78.31871032714844 182.6346435546875 92.05752563476563 168.49176025390625 124.7882080078125 165.6632080078125 136.91067504882813 162.02642822265625 157.11480712890625 161.622314453125 170.85360717773438 162.8345947265625 177.31893920898438 164.046875 178.12710571289063 164.046875 178.12710571289063 " />
        <polyline stroke="black" stroke-width="3" stroke-linecap="round" fill="transparent" stroke-linejoin="round" points="217.789794921875 111.04940795898438 210.92041015625 128.02085876464844 194.35302734375 159.53929138183594 194.35302734375 159.53929138183594 " />
        <polyline stroke="black" stroke-width="3" stroke-linecap="round" fill="transparent" stroke-linejoin="round" points="145.45904541015625 193.07815551757813 161.21826171875 185.8046875 176.57342529296875 178.93527221679688 190.31219482421875 173.68218994140625 242.4388427734375 168.0250244140625 242.4388427734375 168.0250244140625 " />
        </svg>