<?xml version="1.0" standalone="no"?>
    <svg width="256" height="256" xmlns="http://www.w3.org/2000/svg" version="1.1">
    <polyline stroke="black" stroke-width="3" stroke-linecap="round" fill="transparent" stroke-linejoin="round" points="33.467987060546875 116.45208740234376 53.5859375 109.0618133544922 70.82992553710938 104.5455322265625 79.451904296875 102.49267578125 102.44393920898438 96.7446746826172 112.297607421875 93.46011352539063 115.99276733398438 90.9967041015625 115.99276733398438 90.9967041015625 " />
        <polyline stroke="black" stroke-width="3" stroke-linecap="round" fill="transparent" stroke-linejoin="round" points="91.76904296875 52.40300750732422 89.30563354492188 66.3624267578125 84.3787841796875 90.9967041015625 79.86251831054688 109.47239685058594 75.34619140625 127.12693786621094 66.31365966796875 155.45632934570313 55.228240966796875 185.42800903320313 49.890838623046875 199.79800415039065 46.1956787109375 209.65170288085935 44.142822265625 212.52569580078125 44.142822265625 212.52569580078125 " />
        <polyline stroke="black" stroke-width="3" stroke-linecap="round" fill="transparent" stroke-linejoin="round" points="78.63079833984375 136.9806365966797 86.431640625 146.01318359375 93.41134643554688 153.40347290039063 99.56991577148438 160.3831787109375 103.26507568359376 163.25717163085938 103.26507568359376 163.25717163085938 " />
        <polyline stroke="black" stroke-width="3" stroke-linecap="round" fill="transparent" stroke-linejoin="round" points="109.01303100585938 119.73666381835938 119.68792724609376 113.57809448242188 124.20419311523438 111.52523803710938 134.057861328125 107.83010864257813 143.5009765625 105.77725219726563 151.71240234375 103.31382751464844 156.6392822265625 101.67153930664063 158.2816162109375 100.85040283203124 158.2816162109375 100.85040283203124 " />
        <polyline stroke="black" stroke-width="3" stroke-linecap="round" fill="transparent" stroke-linejoin="round" points="130.36273193359375 116.04150390625 127.07818603515624 127.12693786621094 126.25701904296876 131.23263549804688 125.846435546875 135.74893188476563 125.43588256835938 144.78147888183594 125.02532958984376 155.86691284179688 125.43588256835938 158.7408905029297 126.25701904296876 158.7408905029297 126.25701904296876 158.7408905029297 " />
        <polyline stroke="black" stroke-width="3" stroke-linecap="round" fill="transparent" stroke-linejoin="round" points="165.671875 107.83010864257813 160.7449951171875 116.8626708984375 157.87103271484375 120.96836853027344 154.58642578125 126.3057861328125 146.78558349609375 137.39120483398438 135.70016479492188 150.118896484375 128.720458984375 158.330322265625 123.383056640625 163.66775512695313 119.68792724609376 167.36288452148438 117.635009765625 169.0051727294922 117.22445678710938 170.23687744140625 120.509033203125 171.0580291748047 129.9521484375 169.82632446289063 142.67987060546875 166.13116455078125 154.99700927734375 161.20433044433594 162.3873291015625 155.86691284179688 162.3873291015625 155.86691284179688 " />
        <polyline stroke="black" stroke-width="3" stroke-linecap="round" fill="transparent" stroke-linejoin="round" points="161.566162109375 115.22036743164063 175.114990234375 109.0618133544922 181.2735595703125 107.41952514648438 200.1597900390625 104.13494873046876 209.60296630859375 102.49267578125 215.761474609375 101.67153930664063 220.6883544921875 101.26095581054688 222.3306884765625 100.02923583984376 222.3306884765625 100.02923583984376 " />
        <polyline stroke="black" stroke-width="3" stroke-linecap="round" fill="transparent" stroke-linejoin="round" points="190.30609130859375 65.13070678710938 187.43212890625 75.39498901367188 182.09466552734375 94.69183349609376 175.114990234375 120.147216796875 166.4930419921875 147.65548706054688 159.10272216796875 170.64744567871094 155.818115234375 180.090576171875 148.01727294921875 199.79800415039065 148.01727294921875 199.79800415039065 " />
        <polyline stroke="black" stroke-width="3" stroke-linecap="round" fill="transparent" stroke-linejoin="round" points="180.86297607421875 126.71636962890624 196.0540771484375 152.5823211669922 199.749267578125 158.7408905029297 209.1923828125 172.70030212402344 214.94036865234375 183.7857360839844 214.94036865234375 183.7857360839844 " />
        </svg>