<?xml version="1.0" standalone="no"?>
    <svg width="256" height="256" xmlns="http://www.w3.org/2000/svg" version="1.1">
    <polyline stroke="black" stroke-width="3" stroke-linecap="round" fill="transparent" stroke-linejoin="round" points="27.662445068359375 118.84234619140624 55.403656005859375 105.50274658203124 60.1907958984375 103.64346313476563 70.41317749023438 100.56399536132813 73.80697631835938 100.2839813232422 74.40487670898438 100.2346649169922 " />
        <polyline stroke="black" stroke-width="3" stroke-linecap="round" fill="transparent" stroke-linejoin="round" points="52.1656494140625 50.04486083984375 54.5194091796875 70.63392639160156 55.63604736328125 82.79611206054688 56.334564208984375 110.82366943359376 54.40216064453125 142.616455078125 52.42486572265625 159.688720703125 48.06494140625 185.09637451171875 45.22894287109375 195.4110107421875 40.89886474609375 207.8646240234375 39.558563232421875 212.16748046875 37.9068603515625 215.95541381835935 37.84625244140625 215.94558715820313 " />
        <polyline stroke="black" stroke-width="3" stroke-linecap="round" fill="transparent" stroke-linejoin="round" points="53.10809326171875 167.37759399414063 79.40777587890625 187.59664916992188 84.8739013671875 193.0755615234375 92.26812744140624 201.28836059570313 92.65365600585938 201.74526977539065 93.35382080078124 202.47317504882813 93.42254638671876 202.54461669921875 " />
        <polyline stroke="black" stroke-width="3" stroke-linecap="round" fill="transparent" stroke-linejoin="round" points="86.56442260742188 128.26666259765625 106.14108276367188 123.73326110839844 115.03106689453124 123.04289245605467 134.7293701171875 121.88949584960938 143.76205444335938 121.33370971679688 153.8184814453125 120.50442504882813 158.6680908203125 120.75039672851563 158.76019287109375 120.77255249023438 158.790283203125 120.77978515625 158.802978515625 120.78288269042967 " />
        <polyline stroke="black" stroke-width="3" stroke-linecap="round" fill="transparent" stroke-linejoin="round" points="97.87359619140624 131.565185546875 103.07611083984376 156.80563354492188 104.23553466796876 170.21214294433594 104.68588256835938 174.42572021484375 104.6519775390625 180.81201171875 104.59356689453124 181.2321014404297 " />
        <polyline stroke="black" stroke-width="3" stroke-linecap="round" fill="transparent" stroke-linejoin="round" points="134.15719604492188 121.66964721679688 144.27609252929688 152.41961669921875 144.97357177734375 160.35623168945313 144.74102783203125 175.17987060546875 144.45892333984375 180.04891967773438 140.72018432617188 192.35317993164065 140.29183959960938 191.9298095703125 " />
        <polyline stroke="black" stroke-width="3" stroke-linecap="round" fill="transparent" stroke-linejoin="round" points="93.63265991210938 193.29443359375 123.83294677734376 190.76077270507813 141.529541015625 191.85552978515625 155.4659423828125 192.03326416015625 159.9725341796875 191.98590087890625 161.6527099609375 191.947265625 161.77227783203125 191.94451904296875 161.8092041015625 191.94366455078125 " />
        <polyline stroke="black" stroke-width="3" stroke-linecap="round" fill="transparent" stroke-linejoin="round" points="153.9482421875 98.10887145996094 184.9708251953125 94.41029357910156 195.27679443359375 93.18792724609376 209.76904296875 90.85064697265624 216.8345947265625 88.81849670410156 218.4866943359375 87.88995361328125 219.41522216796875 86.34492492675781 219.4173583984375 85.6326904296875 219.4183349609375 85.33108520507813 " />
        <polyline stroke="black" stroke-width="3" stroke-linecap="round" fill="transparent" stroke-linejoin="round" points="179.8651123046875 57.11309814453125 180.8868408203125 89.9996337890625 180.95892333984375 109.8017578125 179.9498291015625 128.79190063476563 174.12689208984375 166.47552490234375 169.9619140625 178.00885009765625 162.804443359375 197.0018615722656 159.508056640625 203.71240234375 156.12127685546875 212.64865112304688 154.39208984375 214.6229248046875 154.69677734375 212.8607177734375 " />
        <polyline stroke="black" stroke-width="3" stroke-linecap="round" fill="transparent" stroke-linejoin="round" points="176.566650390625 131.565185546875 185.95428466796875 149.5129852294922 192.90380859375 161.05320739746094 207.913330078125 188.02569580078125 221.6817626953125 216.8958740234375 224.183837890625 224.86001586914065 225.0223388671875 233.49932861328125 225.02252197265625 233.7850341796875 " />
        </svg>