<?xml version="1.0" standalone="no"?>
    <svg width="256" height="256" xmlns="http://www.w3.org/2000/svg" version="1.1">
    <polyline stroke="black" stroke-width="3" stroke-linecap="round" fill="transparent" stroke-linejoin="round" points="101.92807006835938 49.686500549316406 111.13412475585938 46.27684020996094 120.34017944335938 42.86717987060547 129.54623413085938 40.13945770263672 138.75228881835938 37.75270080566406 164.32470703125 34.68401336669922 175.235595703125 36.047874450683594 178.3043212890625 37.41173553466797 178.3043212890625 37.41173553466797 " />
        <polyline stroke="black" stroke-width="3" stroke-linecap="round" fill="transparent" stroke-linejoin="round" points="94.42687988281253 102.5361328125 103.29193115234376 100.49034118652344 112.156982421875 98.44454956054688 121.363037109375 96.39874267578124 130.56915283203125 95.03488159179688 147.95834350585938 92.64813232421876 161.5970458984375 90.94329833984376 166.029541015625 90.94329833984376 166.029541015625 90.94329833984376 " />
        <polyline stroke="black" stroke-width="3" stroke-linecap="round" fill="transparent" stroke-linejoin="round" points="22.14215087890625 157.77252197265625 46.350677490234375 153.3399658203125 70.5592041015625 148.90740966796875 116.24859619140624 142.08811950683594 144.8896484375 137.99652099609375 168.416259765625 134.58688354492188 183.07781982421875 132.88204956054688 189.8970947265625 132.54107666015625 191.94287109375 132.54107666015625 191.94287109375 132.54107666015625 " />
        <polyline stroke="black" stroke-width="3" stroke-linecap="round" fill="transparent" stroke-linejoin="round" points="146.59451293945313 156.0677032470703 145.23065185546875 161.86410522460938 143.86679077148438 167.66050720214844 142.16195678710938 174.47982788085938 140.45712280273438 182.6629943847656 137.72943115234375 198.6883544921875 135.00167846679688 214.37277221679688 135.00167846679688 214.37277221679688 " />
        </svg>