<?xml version="1.0" standalone="no"?>
    <svg width="256" height="256" xmlns="http://www.w3.org/2000/svg" version="1.1">
    <polyline stroke="black" stroke-width="3" stroke-linecap="round" fill="transparent" stroke-linejoin="round" points="70.05706787109375 77.56718444824219 80.75592041015625 73.40650939941406 94.42669677734376 68.05708312988281 111.06939697265624 62.70765686035156 127.7120361328125 57.35821533203125 145.54348754882813 52.603172302246094 170.50750732421875 46.65936279296875 175.2625732421875 46.65936279296875 175.2625732421875 46.65936279296875 " />
        <polyline stroke="black" stroke-width="3" stroke-linecap="round" fill="transparent" stroke-linejoin="round" points="90.86041259765624 125.11766052246094 100.96490478515624 121.55137634277344 114.63568115234376 116.79632568359376 130.08956909179688 111.4468994140625 146.13787841796875 107.28623962402344 160.40301513671875 104.90870666503906 171.10186767578125 104.90870666503906 171.10186767578125 104.90870666503906 " />
        <polyline stroke="black" stroke-width="3" stroke-linecap="round" fill="transparent" stroke-linejoin="round" points="54.603179931640625 173.85691833496094 69.46270751953125 165.53558349609375 83.72784423828125 158.9973907470703 100.96490478515624 151.8648223876953 124.145751953125 144.73223876953125 144.354736328125 140.5715789794922 161.591796875 137.59967041015625 175.85693359375 134.6277618408203 183.5838623046875 133.43899536132813 188.33892822265625 133.43899536132813 190.1220703125 133.43899536132813 190.1220703125 133.43899536132813 " />
        <polyline stroke="black" stroke-width="3" stroke-linecap="round" fill="transparent" stroke-linejoin="round" points="125.92889404296876 157.80862426757813 124.74014282226563 167.3187255859375 125.33453369140624 180.3951110839844 125.92889404296876 195.254638671875 126.52328491210938 209.519775390625 125.33453369140624 222.59616088867188 122.95700073242188 237.4556884765625 122.95700073242188 237.4556884765625 " />
        </svg>