<?xml version="1.0" standalone="no"?>
    <svg width="256" height="256" xmlns="http://www.w3.org/2000/svg" version="1.1">
    <polyline stroke="black" stroke-width="3" stroke-linecap="round" fill="transparent" stroke-linejoin="round" points="78.43319702148438 71.69384765625 101.21710205078124 60.92326354980469 119.4442138671875 55.12371826171875 127.729248046875 52.63819885253906 143.47088623046875 48.08141326904297 155.07000732421875 45.181640625 162.1123046875 43.93888854980469 165.0120849609375 44.76738739013672 165.0120849609375 44.76738739013672 " />
        <polyline stroke="black" stroke-width="3" stroke-linecap="round" fill="transparent" stroke-linejoin="round" points="80.50439453125 113.94766235351563 97.07455444335938 105.66258239746094 103.70260620117188 102.7628173828125 111.98764038085938 99.4487762451172 128.14352416992188 94.06350708007813 136.01434326171875 91.57798767089844 150.92742919921875 87.84970092773438 162.52655029296875 86.60694885253906 162.52655029296875 86.60694885253906 " />
        <polyline stroke="black" stroke-width="3" stroke-linecap="round" fill="transparent" stroke-linejoin="round" points="57.3062744140625 155.78720092773438 75.94769287109375 152.88743591308594 97.07455444335938 149.5734100341797 108.67364501953124 147.50213623046875 147.6134033203125 140.4598388671875 162.52655029296875 136.73155212402344 172.05438232421875 133.831787109375 177.025390625 131.76052856445313 177.8538818359375 131.34628295898438 177.8538818359375 131.34628295898438 " />
        <polyline stroke="black" stroke-width="3" stroke-linecap="round" fill="transparent" stroke-linejoin="round" points="141.81390380859375 146.6736297607422 140.57113647460938 159.51547241210938 140.57113647460938 165.31500244140625 140.57113647460938 171.11456298828125 140.1568603515625 186.85617065429688 138.49984741210938 203.84054565429688 138.08563232421875 207.56881713867188 138.08563232421875 207.56881713867188 " />
        </svg>