<?xml version="1.0" standalone="no"?>
    <svg width="256" height="256" xmlns="http://www.w3.org/2000/svg" version="1.1">
    <polyline stroke="black" stroke-width="3" stroke-linecap="round" fill="transparent" stroke-linejoin="round" points="86.14703369140625 68.50517272949219 98.93597412109376 64.2421875 116.59686279296876 59.979217529296875 133.03976440429688 57.54322814941406 147.04669189453125 56.32524108886719 155.5726318359375 55.71624755859375 158.61761474609375 56.934234619140625 158.61761474609375 56.934234619140625 " />
        <polyline stroke="black" stroke-width="3" stroke-linecap="round" fill="transparent" stroke-linejoin="round" points="74.57611083984375 106.26295471191406 94.06399536132813 104.43595886230467 109.89788818359376 103.82696533203124 132.4307861328125 102.60897827148438 150.0916748046875 103.2179718017578 162.880615234375 104.43595886230467 168.361572265625 106.8719482421875 167.1435546875 111.13491821289063 167.1435546875 111.13491821289063 " />
        <polyline stroke="black" stroke-width="3" stroke-linecap="round" fill="transparent" stroke-linejoin="round" points="41.081298828125 157.4186553955078 53.26123046875 153.15567016601563 66.0501708984375 148.8927001953125 83.10205078125 144.62973022460938 120.85983276367188 136.7127685546875 152.52764892578125 131.2318115234375 173.2335205078125 128.7958221435547 189.06744384765625 128.7958221435547 196.3753662109375 129.40481567382813 199.42041015625 131.2318115234375 199.42041015625 131.2318115234375 " />
        <polyline stroke="black" stroke-width="3" stroke-linecap="round" fill="transparent" stroke-linejoin="round" points="124.5137939453125 156.20065307617188 125.122802734375 173.86155700683594 125.7318115234375 190.9134521484375 126.3408203125 214.05532836914065 126.94979858398438 234.15219116210935 126.94979858398438 249.98611450195313 126.94979858398438 249.98611450195313 " />
        </svg>