<?xml version="1.0" standalone="no"?>
    <svg width="256" height="256" xmlns="http://www.w3.org/2000/svg" version="1.1">
    <polyline stroke="black" stroke-width="3" stroke-linecap="round" fill="transparent" stroke-linejoin="round" points="85 54 95 55 97 53 100 52 105 51 109 49 114 47 119 46 124 44 128 42 132 41 136 39 139 39 141 39 143 38 144 39 144 40 143 41 142 43 142 43 " />
        <polyline stroke="black" stroke-width="3" stroke-linecap="round" fill="transparent" stroke-linejoin="round" points="93 84 95 79 101 79 104 78 108 76 113 75 117 74 121 73 126 71 130 71 134 70 137 70 139 69 141 69 141 70 140 71 139 71 137 72 137 72 " />
        <polyline stroke="black" stroke-width="3" stroke-linecap="round" fill="transparent" stroke-linejoin="round" points="32 139 41 134 44 133 48 131 53 129 59 127 65 125 72 123 80 120 88 119 98 116 108 115 117 113 127 111 136 109 146 107 154 105 162 103 170 103 177 101 183 101 188 101 192 101 196 102 198 103 199 103 199 103 " />
        <polyline stroke="black" stroke-width="3" stroke-linecap="round" fill="transparent" stroke-linejoin="round" points="118 114 123 125 122 129 122 135 121 140 121 147 120 155 120 163 120 171 120 179 120 186 120 193 120 200 120 207 120 212 120 217 120 222 120 225 120 228 120 230 120 230 " />
        </svg>