<?xml version="1.0" standalone="no"?>
    <svg width="256" height="256" xmlns="http://www.w3.org/2000/svg" version="1.1">
    <polyline stroke="black" stroke-width="3" stroke-linecap="round" fill="transparent" stroke-linejoin="round" points="106.73815917968753 68.25555419921875 114.35589599609376 66.9112548828125 121.9736328125 65.56695556640625 138.5533447265625 62.43023681640625 146.619140625 61.0859375 159.166015625 59.74163818359375 166.33563232421875 59.293548583984375 169.47235107421875 59.293548583984375 169.47235107421875 59.293548583984375 " />
        <polyline stroke="black" stroke-width="3" stroke-linecap="round" fill="transparent" stroke-linejoin="round" points="105.842041015625 121.13142395019533 121.9736328125 114.8580322265625 138.105224609375 108.58464050292967 153.3406982421875 104.10362243652344 163.19891357421875 102.7593231201172 165.88751220703125 102.31121826171876 165.88751220703125 102.31121826171876 " />
        <polyline stroke="black" stroke-width="3" stroke-linecap="round" fill="transparent" stroke-linejoin="round" points="45.348388671875 163.25289916992188 65.0648193359375 156.08331298828125 84.78125 148.91372680664063 104.04962158203124 143.5364990234375 124.6622314453125 139.50360107421875 146.619140625 136.36688232421875 155.133056640625 135.02256774902344 156.92547607421875 135.02256774902344 156.92547607421875 135.02256774902344 " />
        <polyline stroke="black" stroke-width="3" stroke-linecap="round" fill="transparent" stroke-linejoin="round" points="134.0723876953125 170.87063598632813 133.624267578125 177.59214782714844 133.1761474609375 184.31365966796875 132.72802734375 191.4832763671875 131.83184814453125 198.65289306640625 128.69515991210938 220.1617431640625 126.90277099609376 230.9161376953125 126.90277099609376 230.9161376953125 " />
        </svg>