<?xml version="1.0" standalone="no"?>
    <svg width="256" height="256" xmlns="http://www.w3.org/2000/svg" version="1.1">
    <polyline stroke="black" stroke-width="3" stroke-linecap="round" fill="transparent" stroke-linejoin="round" points="96.763427734375 72.3758544921875 103.1219482421875 69.00958251953125 109.48046875 65.643310546875 124.06768798828124 58.91075134277344 131.92230224609375 55.54447937011719 146.509521484375 49.93401336669922 159.2265625 45.819671630859375 167.45526123046875 43.57549285888672 169.69940185546875 43.57549285888672 169.69940185546875 43.57549285888672 " />
        <polyline stroke="black" stroke-width="3" stroke-linecap="round" fill="transparent" stroke-linejoin="round" points="103.1219482421875 105.66458129882811 109.48046875 103.04637145996094 115.8389892578125 100.42816162109376 131.54827880859375 95.19174194335938 146.883544921875 91.451416015625 153.9901123046875 90.32933044433594 159.2265625 90.32933044433594 165.9591064453125 92.94754028320313 165.9591064453125 92.94754028320313 " />
        <polyline stroke="black" stroke-width="3" stroke-linecap="round" fill="transparent" stroke-linejoin="round" points="51.1317138671875 153.91456604003906 62.726654052734375 150.54827880859375 74.32159423828125 147.18199157714844 99.75567626953124 141.197509765625 145.01339721679688 132.59481811523438 171.943603515625 128.48046875 191.7672119140625 125.48822021484376 203.3621826171875 123.61807250976563 207.47650146484375 123.24404907226563 207.47650146484375 123.24404907226563 " />
        <polyline stroke="black" stroke-width="3" stroke-linecap="round" fill="transparent" stroke-linejoin="round" points="143.143310546875 164.01339721679688 142.39520263671875 170.37191772460938 141.6470947265625 176.73043823242188 140.15097045898438 195.05792236328125 139.40292358398438 201.04241943359375 137.53277587890625 212.26336669921875 137.53277587890625 212.26336669921875 " />
        </svg>