<?xml version="1.0" standalone="no"?>
    <svg width="256" height="256" xmlns="http://www.w3.org/2000/svg" version="1.1">
    <polyline stroke="black" stroke-width="3" stroke-linecap="round" fill="transparent" stroke-linejoin="round" points="94.06695556640624 62.15540313720703 109.01806640625 57.71049499511719 123.96917724609376 53.265586853027344 138.51611328125 50.032928466796875 151.44677734375 48.8206787109375 160.3365478515625 48.416595458984375 165.9937744140625 49.224761962890625 165.9937744140625 49.224761962890625 " />
        <polyline stroke="black" stroke-width="3" stroke-linecap="round" fill="transparent" stroke-linejoin="round" points="98.511962890625 110.24124145507813 111.8466796875 106.20040893554688 125.181396484375 102.15957641601563 131.64669799804688 100.5432586669922 144.57733154296875 98.1187744140625 159.5284423828125 96.0983428955078 159.5284423828125 96.0983428955078 " />
        <polyline stroke="black" stroke-width="3" stroke-linecap="round" fill="transparent" stroke-linejoin="round" points="61.33636474609375 181.35977172851563 69.82208251953125 178.93527221679688 78.30780029296875 176.51077270507813 97.70379638671876 170.85360717773438 119.12017822265624 166.00462341308594 129.62631225585938 163.98419189453125 149.022216796875 161.15562438964844 165.185546875 159.53929138183594 176.0958251953125 158.7311248779297 181.7529296875 158.7311248779297 181.7529296875 158.7311248779297 " />
        <polyline stroke="black" stroke-width="3" stroke-linecap="round" fill="transparent" stroke-linejoin="round" points="136.89984130859375 172.06582641601563 136.09164428710938 178.5311737060547 135.283447265625 184.99652099609375 134.47528076171875 191.86590576171875 132.05078125 212.87820434570313 130.03036499023438 224.5965881347656 126.39364624023438 239.54763793945313 126.39364624023438 239.54763793945313 " />
        </svg>