<?xml version="1.0" standalone="no"?>
    <svg width="256" height="256" xmlns="http://www.w3.org/2000/svg" version="1.1">
    <polyline stroke="black" stroke-width="3" stroke-linecap="round" fill="transparent" stroke-linejoin="round" points="76.30291748046875 38.50727844238281 78.26385498046875 54.848365783691406 78.91748046875 57.46296691894531 83.49298095703125 77.72587585449219 89.37579345703125 94.72061157226563 92.64398193359376 90.14512634277344 92.64398193359376 87.53053283691406 93.29766845703124 84.91595458984375 93.29766845703124 84.91595458984375 " />
        <polyline stroke="black" stroke-width="3" stroke-linecap="round" fill="transparent" stroke-linejoin="round" points="89.37579345703125 64.65301513671875 101.7950439453125 48.31192779541016 103.75592041015624 47.65831756591797 122.71160888671876 41.12187957763672 125.97979736328124 40.46821594238281 142.3209228515625 35.89271545410156 151.47186279296875 33.93177795410156 161.93017578125 33.27812957763672 171.73486328125 36.546348571777344 173.69573974609375 42.42913818359375 173.69573974609375 58.1165771484375 169.12030029296875 69.22853088378906 161.93017578125 76.41859436035156 156.7010498046875 77.07225036621094 155.39373779296875 76.41859436035156 155.39373779296875 76.41859436035156 " />
        <polyline stroke="black" stroke-width="3" stroke-linecap="round" fill="transparent" stroke-linejoin="round" points="133.16986083984375 47.004638671875 118.1361083984375 77.72587585449219 107.6778564453125 90.79875183105467 105.71685791015624 91.452392578125 96.56585693359376 91.452392578125 93.29766845703124 90.14512634277344 90.68304443359376 89.49147033691406 91.9903564453125 88.83782958984375 97.87322998046876 88.18418884277344 107.024169921875 86.87690734863281 118.1361083984375 86.22325134277344 131.20892333984375 84.91595458984375 141.667236328125 83.60868835449219 158.00836181640625 80.99411010742188 166.5057373046875 80.34048461914063 167.81298828125 80.99411010742188 167.81298828125 80.99411010742188 " />
        <polyline stroke="black" stroke-width="3" stroke-linecap="round" fill="transparent" stroke-linejoin="round" points="114.86785888671876 96.68156433105467 100.48773193359376 117.59812927246094 99.180419921875 120.86634826660156 88.72210693359375 150.93394470214844 88.06854248046875 154.2021484375 84.80029296875 162.6995086669922 81.5321044921875 172.50418090820313 82.18572998046875 173.15782165527344 86.10760498046875 171.8505401611328 86.10760498046875 171.8505401611328 " />
        <polyline stroke="black" stroke-width="3" stroke-linecap="round" fill="transparent" stroke-linejoin="round" points="97.87322998046876 150.28030395507813 117.48248291015624 153.5485076904297 118.78973388671876 154.2021484375 130.55535888671875 156.1630859375 133.16986083984375 155.5094757080078 141.01361083984375 152.89488220214844 141.01361083984375 152.89488220214844 " />
        <polyline stroke="black" stroke-width="3" stroke-linecap="round" fill="transparent" stroke-linejoin="round" points="162.5838623046875 97.33518981933594 146.89642333984375 112.36898803710938 146.24273681640625 116.29086303710938 137.09173583984375 145.0511474609375 136.4381103515625 148.9730224609375 133.16986083984375 162.0458984375 133.16986083984375 169.2359619140625 133.8236083984375 169.8896026611328 133.8236083984375 169.8896026611328 " />
        <polyline stroke="black" stroke-width="3" stroke-linecap="round" fill="transparent" stroke-linejoin="round" points="131.86260986328125 150.28030395507813 154.08648681640625 162.6995086669922 159.31561279296875 166.6213836669922 176.31036376953125 184.9234313964844 183.50042724609375 192.11349487304688 183.50042724609375 192.11349487304688 " />
        </svg>