<?xml version="1.0" standalone="no"?>
    <svg width="256" height="256" xmlns="http://www.w3.org/2000/svg" version="1.1">
    <polyline stroke="black" stroke-width="3" stroke-linecap="round" fill="transparent" stroke-linejoin="round" points="81 40 81 42 81 45 81 51 80 57 80 63 81 70 82 76 82 81 84 86 84 87 85 87 86 86 " />
        <polyline stroke="black" stroke-width="3" stroke-linecap="round" fill="transparent" stroke-linejoin="round" points="88 47 95 42 101 40 107 39 114 38 121 37 129 36 137 35 146 35 157 35 163 37 168 40 171 45 174 52 174 60 173 69 171 77 168 84 165 88 163 89 " />
        <polyline stroke="black" stroke-width="3" stroke-linecap="round" fill="transparent" stroke-linejoin="round" points="125 45 124 44 124 45 123 47 122 51 121 56 119 62 117 69 114 75 112 81 110 85 107 88 105 90 102 90 100 91 99 91 98 91 97 91 98 91 98 90 102 89 105 87 109 86 115 85 121 84 132 84 140 84 147 85 155 86 158 86 " />
        <polyline stroke="black" stroke-width="3" stroke-linecap="round" fill="transparent" stroke-linejoin="round" points="111 97 109 99 105 103 101 109 96 115 92 122 88 129 82 140 80 147 77 154 76 160 75 164 75 167 77 170 78 170 " />
        <polyline stroke="black" stroke-width="3" stroke-linecap="round" fill="transparent" stroke-linejoin="round" points="100 123 100 123 103 124 107 126 111 128 114 131 119 137 123 141 127 146 132 151 138 156 141 158 " />
        <polyline stroke="black" stroke-width="3" stroke-linecap="round" fill="transparent" stroke-linejoin="round" points="156 110 153 112 150 117 144 124 141 130 138 135 136 141 135 146 134 150 134 153 134 155 134 156 " />
        <polyline stroke="black" stroke-width="3" stroke-linecap="round" fill="transparent" stroke-linejoin="round" points="147 127 147 127 150 127 153 129 156 132 159 135 164 141 168 148 172 155 175 159 180 168 183 172 " />
        </svg>