<?xml version="1.0" standalone="no"?>
    <svg width="256" height="256" xmlns="http://www.w3.org/2000/svg" version="1.1">
    <polyline stroke="black" stroke-width="3" stroke-linecap="round" fill="transparent" stroke-linejoin="round" points="56.693603515625 54.623878479003906 55.38641357421875 72.92588806152344 56.03997802734375 76.19410705566406 61.92279052734375 101.03254699707033 63.23004150390625 107.56898498535156 67.15191650390625 124.56373596191406 70.42010498046875 132.4074249267578 74.99566650390625 138.2902069091797 78.26385498046875 135.67564392089844 78.26385498046875 135.67564392089844 " />
        <polyline stroke="black" stroke-width="3" stroke-linecap="round" fill="transparent" stroke-linejoin="round" points="76.30291748046875 106.26170349121094 89.37579345703125 85.34513854980469 91.9903564453125 84.03782653808594 118.1361083984375 72.27226257324219 121.404296875 70.9649658203125 138.3990478515625 66.38945007324219 150.16461181640625 65.73582458496094 159.96923828125 69.00404357910156 167.81298828125 77.50138854980469 171.73486328125 91.22789001464844 170.42755126953125 107.56898498535156 164.5447998046875 121.29551696777344 157.35467529296875 129.79286193847656 156.04742431640625 129.79286193847656 156.04742431640625 129.79286193847656 " />
        <polyline stroke="black" stroke-width="3" stroke-linecap="round" fill="transparent" stroke-linejoin="round" points="125.97979736328124 84.69146728515625 115.52154541015624 102.33982849121094 114.86785888671876 105.60806274414063 107.6778564453125 128.48558044433594 104.40960693359376 132.4074249267578 97.87322998046876 136.3292999267578 90.0294189453125 137.6365966796875 83.49298095703125 136.3292999267578 82.83935546875 134.36839294433594 87.41485595703125 131.10015869140625 97.87322998046876 126.52464294433594 116.1751708984375 120.641845703125 133.16986083984375 116.71998596191406 148.85736083984375 114.7590789794922 161.27655029296875 114.7590789794922 170.42755126953125 118.0272979736328 173.04217529296875 119.98820495605467 173.04217529296875 119.98820495605467 " />
        <polyline stroke="black" stroke-width="3" stroke-linecap="round" fill="transparent" stroke-linejoin="round" points="84.80029296875 143.5193634033203 74.34197998046875 161.82139587402344 70.42010498046875 186.00619506835935 69.7664794921875 188.62075805664065 66.49822998046875 199.73272705078125 63.88372802734375 205.615478515625 61.26910400390625 208.2300720214844 61.26910400390625 207.576416015625 63.23004150390625 204.3081970214844 63.23004150390625 204.3081970214844 " />
        <polyline stroke="black" stroke-width="3" stroke-linecap="round" fill="transparent" stroke-linejoin="round" points="67.15191650390625 191.23532104492188 88.06854248046875 188.62075805664065 90.0294189453125 189.2744140625 106.37054443359376 193.1962890625 112.2532958984375 193.84991455078125 126.63348388671876 190.58169555664065 131.20892333984375 188.62075805664065 131.20892333984375 188.62075805664065 " />
        <polyline stroke="black" stroke-width="3" stroke-linecap="round" fill="transparent" stroke-linejoin="round" points="158.6619873046875 136.3292999267578 145.589111328125 148.09487915039063 135.13079833984375 174.2406005859375 131.86260986328125 181.43069458007813 127.94073486328124 192.54263305664065 127.94073486328124 197.11813354492188 128.59442138671875 197.77178955078125 128.59442138671875 197.77178955078125 " />
        <polyline stroke="black" stroke-width="3" stroke-linecap="round" fill="transparent" stroke-linejoin="round" points="136.4381103515625 180.1234130859375 158.00836181640625 178.1624755859375 178.9249267578125 189.92807006835935 196.5732421875 208.2300720214844 196.5732421875 208.2300720214844 " />
        </svg>