<?xml version="1.0" standalone="no"?>
    <svg width="256" height="256" xmlns="http://www.w3.org/2000/svg" version="1.1">
    <polyline stroke="black" stroke-width="3" stroke-linecap="round" fill="transparent" stroke-linejoin="round" points="109.41897583007813 34.377647399902344 88.61923217773438 68.3140869140625 67.81948852539063 98.96633911132813 51.39862060546875 123.59762573242188 40.451385498046875 138.92376708984375 32.240966796875 150.41836547851563 27.862060546875 155.89198303222656 27.314697265625 155.89198303222656 27.314697265625 155.89198303222656 " />
        <polyline stroke="black" stroke-width="3" stroke-linecap="round" fill="transparent" stroke-linejoin="round" points="110.51370239257813 47.51432800292969 143.35540771484375 50.25113677978515 166.8919677734375 55.177398681640625 195.35479736328125 65.5772705078125 211.228271484375 73.24034118652344 225.459716796875 80.35604858398438 233.670166015625 85.28230285644531 233.670166015625 85.28230285644531 " />
        <polyline stroke="black" stroke-width="3" stroke-linecap="round" fill="transparent" stroke-linejoin="round" points="100.66119384765624 108.27149963378906 111.06106567382813 102.79788208007813 122.5556640625 95.6821746826172 133.50289916992188 88.56646728515625 142.26068115234375 82.54548645019531 146.63958740234375 79.80868530273438 146.63958740234375 81.45075988769531 138.42916870117188 93.4927215576172 112.15579223632813 126.88180541992188 90.80868530273438 149.32363891601563 72.7457275390625 167.93394470214844 60.70379638671875 181.61798095703125 55.23016357421875 188.18634033203125 53.58807373046875 192.56521606445313 55.23016357421875 194.20730590820313 59.60906982421875 192.01785278320313 71.6510009765625 182.16534423828125 92.45074462890624 164.64976501464844 120.3662109375 141.1132049560547 148.82904052734375 119.21873474121094 174.5550537109375 103.34524536132813 194.26007080078125 96.2295379638672 208.491455078125 96.7769012451172 213.965087890625 101.70315551757813 220.533447265625 129.0712432861328 212.870361328125 165.74449157714844 193.16534423828125 202.965087890625 175.1024169921875 224.31219482421875 159.2288818359375 235.25946044921875 148.28167724609375 236.90151977539065 138.97650146484375 230.88055419921875 138.97650146484375 230.88055419921875 " />
        <polyline stroke="black" stroke-width="3" stroke-linecap="round" fill="transparent" stroke-linejoin="round" points="134.05026245117188 135.63958740234375 124.19775390625 161.9129638671875 115.43994140625 181.61798095703125 108.32427978515624 195.30203247070313 102.30328369140624 205.154541015625 100.11383056640624 210.080810546875 102.85064697265624 208.438720703125 102.85064697265624 208.438720703125 " />
        <polyline stroke="black" stroke-width="3" stroke-linecap="round" fill="transparent" stroke-linejoin="round" points="165.7972412109375 123.59762573242188 160.3236083984375 146.03945922851563 149.37640380859375 176.1443634033203 141.71331787109375 190.92312622070313 132.95553588867188 206.796630859375 124.19775390625 223.76483154296875 124.19775390625 223.76483154296875 " />
        </svg>