<?xml version="1.0" standalone="no"?>
    <svg width="256" height="256" xmlns="http://www.w3.org/2000/svg" version="1.1">
    <polyline stroke="black" stroke-width="3" stroke-linecap="round" fill="transparent" stroke-linejoin="round" points="113.13900756835938 62.58203125 121.823974609375 66.52975463867188 124.982177734375 68.89837646484375 128.140380859375 71.66178894042969 131.29852294921875 74.81997680664063 138.4044189453125 82.32064819335938 142.35214233398438 88.63699340820313 145.11557006835938 95.34814453125 145.11557006835938 95.34814453125 " />
        <polyline stroke="black" stroke-width="3" stroke-linecap="round" fill="transparent" stroke-linejoin="round" points="84.71542358398438 125.74559020996094 94.9794921875 124.16648864746094 100.90109252929688 123.376953125 126.16650390625 122.58740234375 135.64105224609375 122.58740234375 153.40576171875 122.58740234375 168.40716552734375 122.982177734375 178.2764892578125 122.982177734375 183.013671875 122.982177734375 183.013671875 122.982177734375 " />
        <polyline stroke="black" stroke-width="3" stroke-linecap="round" fill="transparent" stroke-linejoin="round" points="108.4017333984375 169.96006774902344 120.6396484375 167.9862060546875 136.82537841796875 165.61758422851563 146.29989624023438 164.43325805664063 168.01239013671875 162.4593963623047 188.935302734375 161.6698455810547 188.935302734375 161.6698455810547 " />
        <polyline stroke="black" stroke-width="3" stroke-linecap="round" fill="transparent" stroke-linejoin="round" points="53.923187255859375 213.385009765625 81.16244506835938 209.83206176757813 92.61083984375 209.43731689453125 104.84881591796876 209.43731689453125 117.48153686523438 210.22683715820313 145.11557006835938 211.80593872070313 158.537841796875 213.385009765625 183.013671875 216.543212890625 203.5418701171875 220.09613037109375 218.1484375 223.64910888671875 223.67523193359375 226.4125061035156 223.67523193359375 226.4125061035156 " />
        </svg>