<?xml version="1.0" standalone="no"?>
    <svg width="256" height="256" xmlns="http://www.w3.org/2000/svg" version="1.1">
    <polyline stroke="black" stroke-width="3" stroke-linecap="round" fill="transparent" stroke-linejoin="round" points="67.38275146484375 74.77264404296875 84.1820068359375 62.39422607421875 90.81332397460938 58.41545104980469 97.88665771484376 54.878753662109375 104.5179443359375 51.784149169921875 121.31723022460938 44.71077728271485 128.83270263671875 41.616172790527344 133.69564819335938 39.40574645996094 133.69564819335938 39.40574645996094 " />
        <polyline stroke="black" stroke-width="3" stroke-linecap="round" fill="transparent" stroke-linejoin="round" points="98.77084350585938 73.88847351074219 90.37118530273438 95.10861206054688 85.50827026367188 109.25537109375 81.08740234375 122.5179443359375 76.66650390625 136.22264099121094 72.24566650390625 145.94854736328125 64.2880859375 166.28448486328125 59.4251708984375 178.2208251953125 57.656829833984375 181.3154296875 57.656829833984375 181.3154296875 " />
        <polyline stroke="black" stroke-width="3" stroke-linecap="round" fill="transparent" stroke-linejoin="round" points="97.00250244140624 117.21292114257813 108.93881225585938 109.69744873046876 112.9176025390625 108.37120056152344 116.01220703125 107.48704528808594 118.66473388671876 107.48704528808594 121.75933837890624 110.13955688476563 123.96978759765624 126.05467224121094 118.66473388671876 148.15896606445313 109.822998046875 165.40032958984375 104.5179443359375 172.47369384765625 91.69744873046876 183.52586364746097 84.1820068359375 184.85211181640625 84.1820068359375 184.85211181640625 " />
        <polyline stroke="black" stroke-width="3" stroke-linecap="round" fill="transparent" stroke-linejoin="round" points="127.94857788085938 57.531280517578125 139.44281005859375 54.436668395996094 145.63201904296875 53.11041259765625 151.82122802734375 51.342063903808594 170.38885498046875 47.36329650878906 181.44097900390625 46.03703308105469 189.840576171875 45.152862548828125 196.471923828125 45.152862548828125 199.12445068359375 45.594940185546875 199.12445068359375 45.594940185546875 " />
        <polyline stroke="black" stroke-width="3" stroke-linecap="round" fill="transparent" stroke-linejoin="round" points="171.715087890625 107.92910766601563 164.6417236328125 124.28630065917967 158.89459228515625 136.22264099121094 139.88485717773438 177.33665466308594 124.85394287109376 205.63018798828125 121.75933837890624 212.261474609375 121.75933837890624 212.261474609375 " />
        <polyline stroke="black" stroke-width="3" stroke-linecap="round" fill="transparent" stroke-linejoin="round" points="163.75750732421875 125.612548828125 175.25177001953125 120.74961853027344 179.2305908203125 119.42337036132813 183.2093505859375 118.98126220703124 193.81939697265625 121.6337890625 200.45068359375 129.14926147460938 207.9661865234375 148.15896606445313 211.50286865234375 171.14744567871094 210.61865234375 188.38882446289065 207.08197021484375 199.883056640625 202.218994140625 206.51434326171875 192.4931640625 211.3773193359375 175.69384765625 213.1456298828125 161.10498046875 212.261474609375 161.10498046875 212.261474609375 " />
        </svg>