<?xml version="1.0" standalone="no"?>
    <svg width="256" height="256" xmlns="http://www.w3.org/2000/svg" version="1.1">
    <polyline stroke="black" stroke-width="3" stroke-linecap="round" fill="transparent" stroke-linejoin="round" points="42.811248779296875 75.23898315429688 59.433685302734375 71.31983947753906 76.05612182617188 67.40069580078125 83.7994384765625 65.57574462890625 95.69808959960938 62.676239013671875 99.98260498046876 61.18476867675781 103.76611328125 58.65965270996094 104.65219116210938 57.90892028808594 105.15658569335938 56.70098876953125 107.73028564453124 54.58479309082031 108.41806030273438 54.01927947998047 " />
        <polyline stroke="black" stroke-width="3" stroke-linecap="round" fill="transparent" stroke-linejoin="round" points="80.04251098632813 107.83236694335935 85.36871337890625 106.64410400390624 90.69491577148438 105.45584106445313 99.17135620117188 104.7811279296875 101.6734619140625 105.03208923339844 105.44467163085938 106.92584228515624 107.00341796875 109.35739135742188 111.56137084960938 125.89828491210938 114.33392333984376 158.3855438232422 112.9066162109375 173.3934326171875 107.62109375 198.253173828125 103.49118041992188 216.2427673339844 101.95556640625 220.273681640625 99.99786376953124 223.13409423828125 97.2255859375 225.0225830078125 95.18710327148438 224.374267578125 93.73690795898438 223.90151977539065 89.16000366210938 222.3636474609375 85.56430053710938 220.84124755859375 76.76327514648438 213.87030029296875 70.06298828125 207.54437255859375 69.85739135742188 206.98825073242188 " />
        <polyline stroke="black" stroke-width="3" stroke-linecap="round" fill="transparent" stroke-linejoin="round" points="75.26739501953125 95.74545288085938 73.77426147460938 108.12905883789063 72.2811279296875 120.51266479492188 63.344573974609375 161.36753845214844 59.6982421875 173.1274871826172 55.978118896484375 182.0098114013672 53.35919189453125 192.5767822265625 53.403167724609375 192.99542236328125 " />
        <polyline stroke="black" stroke-width="3" stroke-linecap="round" fill="transparent" stroke-linejoin="round" points="128.90240478515625 62.7689208984375 137.61181640625 60.50177001953125 146.32122802734375 58.234619140625 155.40740966796875 55.958274841308594 173.8153076171875 51.94587707519531 179.85009765625 50.81329345703125 190.2994384765625 49.277488708496094 194.2138671875 48.99275970458984 194.5050048828125 48.852508544921875 194.61322021484375 48.80039978027344 194.6279296875 48.79329681396485 " />
        <polyline stroke="black" stroke-width="3" stroke-linecap="round" fill="transparent" stroke-linejoin="round" points="177.0858154296875 93.17346191406247 184.49652099609375 92.79937744140624 191.9072265625 92.42529296875 194.006103515625 92.6011962890625 195.1160888671875 93.09652709960938 196.4229736328125 95.66384887695313 201.548095703125 114.97605895996094 202.7952880859375 128.40087890625 203.18426513671875 158.7476043701172 202.5369873046875 172.1429901123047 200.99530029296875 193.275146484375 200.1173095703125 201.92724609375 198.83807373046875 214.69720458984375 197.376953125 220.5406494140625 196.2247314453125 222.2379150390625 194.1187744140625 222.43948364257813 192.86126708984375 222.25579833984375 189.81243896484375 221.1246337890625 187.57440185546875 219.91619873046875 178.2091064453125 212.29107666015625 166.27264404296875 204.64495849609375 163.27838134765625 202.8070373535156 " />
        <polyline stroke="black" stroke-width="3" stroke-linecap="round" fill="transparent" stroke-linejoin="round" points="162.27578735351563 73.65618896484375 155.96282958984375 105.08763122558594 149.64987182617188 136.51907348632813 144.99850463867188 151.49649047851563 131.58331298828125 180.2897186279297 128.55902099609375 198.20635986328125 128.25656127929688 199.99798583984375 " />
        </svg>