<?xml version="1.0" standalone="no"?>
    <svg width="256" height="256" xmlns="http://www.w3.org/2000/svg" version="1.1">
    <polyline stroke="black" stroke-width="3" stroke-linecap="round" fill="transparent" stroke-linejoin="round" points="54.125579833984375 92.3083038330078 70.468017578125 81.707763671875 81.51025390625 75.08242797851563 92.11083984375 68.45709228515625 104.47811889648438 61.831756591796875 115.52032470703124 56.089813232421875 133.1878662109375 47.25602722167969 144.2301025390625 42.39744567871094 148.64697265625 40.18901062011719 149.53036499023438 39.305625915527344 149.08871459960938 39.305625915527344 147.32196044921875 40.18901062011719 141.13827514648438 45.047576904296875 130.53778076171875 56.97319030761719 117.728759765625 75.08242797851563 104.91976928710938 95.84181213378906 93.43588256835938 116.15951538085938 83.71871948242188 135.59381103515625 79.74349975585938 143.54421997070313 70.90975952148438 159.44503784179688 68.25961303710938 164.30361938476563 67.81793212890625 165.18698120117188 69.58468627929688 164.30361938476563 76.21002197265625 158.11996459960938 88.57733154296875 146.63604736328125 102.2696533203125 133.3853759765625 115.96200561523438 122.3431396484375 126.120849609375 116.6011962890625 133.1878662109375 114.83444213867188 135.39633178710938 115.27615356445313 138.92987060546875 126.318359375 136.27972412109375 143.54421997070313 128.32928466796875 161.65347290039063 119.49554443359376 175.3458251953125 111.10345458984376 183.29623413085935 103.15301513671876 188.15481567382813 96.96942138671876 188.59649658203125 96.96942138671876 188.59649658203125 " />
        <polyline stroke="black" stroke-width="3" stroke-linecap="round" fill="transparent" stroke-linejoin="round" points="145.55517578125 64.48190307617188 157.0390625 58.73994445800781 163.6644287109375 56.089813232421875 178.24017333984375 50.34785461425781 185.30718994140625 47.697715759277344 198.11614990234375 43.72251892089844 207.3916015625 41.514068603515625 212.69189453125 41.07238006591797 215.78369140625 41.07238006591797 216.6671142578125 41.514068603515625 216.6671142578125 41.95576477050781 216.2254638671875 46.372650146484375 209.15838623046875 64.04020690917969 200.76629638671875 81.26608276367188 191.0491943359375 100.70040893554688 186.63226318359375 109.9758758544922 174.7066650390625 135.1521453857422 170.7314453125 142.2191619873047 162.781005859375 156.3531951904297 159.689208984375 160.77008056640625 157.9224853515625 162.53684997558594 157.4808349609375 162.09515380859375 159.689208984375 159.0033416748047 167.6396484375 149.2861785888672 180.0069580078125 136.91888427734375 193.69927978515625 125.87667846679688 207.3916015625 117.92626953125 218.87554931640625 114.83444213867188 226.825927734375 115.7178192138672 231.6845703125 120.13470458984376 235.218017578125 131.61862182617188 235.218017578125 147.51943969726563 231.24285888671875 163.42022705078125 225.0592041015625 177.1125946044922 221.9674072265625 181.97116088867188 212.69189453125 190.804931640625 202.5330810546875 193.89678955078125 195.02435302734375 194.3384704589844 195.02435302734375 194.3384704589844 " />
        </svg>