<?xml version="1.0" standalone="no"?>
    <svg width="256" height="256" xmlns="http://www.w3.org/2000/svg" version="1.1">
    <polyline stroke="black" stroke-width="3" stroke-linecap="round" fill="transparent" stroke-linejoin="round" points="80.9736328125 77.87100219726563 83.80807495117188 83.53987121582031 86.64251708984375 89.208740234375 89.47698974609375 94.16902160644533 96.9173583984375 103.02664184570313 96.9173583984375 103.02664184570313 " />
        <polyline stroke="black" stroke-width="3" stroke-linecap="round" fill="transparent" stroke-linejoin="round" points="150.0631103515625 84.60278320312499 142.26840209960938 96.64913940429688 134.47369384765625 108.69549560546876 111.44384765625 138.10281372070313 105.420654296875 144.48031616210938 105.420654296875 144.48031616210938 " />
        <polyline stroke="black" stroke-width="3" stroke-linecap="round" fill="transparent" stroke-linejoin="round" points="68.92724609375 148.73199462890625 79.556396484375 144.48031616210938 90.185546875 140.2286376953125 101.16903686523438 136.33128356933594 112.15243530273438 132.78823852539063 122.78158569335938 130.30810546875 146.87435913085938 127.11936950683594 157.149169921875 128.89089965820313 157.149169921875 128.89089965820313 " />
        <polyline stroke="black" stroke-width="3" stroke-linecap="round" fill="transparent" stroke-linejoin="round" points="55.818023681640625 202.94061279296875 67.51007080078125 197.271728515625 79.20211791992188 191.60284423828125 91.95709228515624 186.28826904296875 105.420654296875 182.03662109375 129.51339721679688 178.13926696777344 140.14254760742188 177.7849578857422 159.2750244140625 178.4935760498047 176.635986328125 179.55648803710938 188.68231201171875 181.68231201171875 188.68231201171875 181.68231201171875 " />
        </svg>