<?xml version="1.0" standalone="no"?>
    <svg width="256" height="256" xmlns="http://www.w3.org/2000/svg" version="1.1">
    <polyline stroke="black" stroke-width="3" stroke-linecap="round" fill="transparent" stroke-linejoin="round" points="72.86468505859375 66.78607177734375 79.59793090820313 79.02833557128906 83.88272094726563 87.59793090820313 88.77963256835938 96.16751098632813 95.51287841796876 102.28865051269533 95.51287841796876 102.28865051269533 " />
        <polyline stroke="black" stroke-width="3" stroke-linecap="round" fill="transparent" stroke-linejoin="round" points="154.2757568359375 36.18040466308594 150.60308837890625 49.03478240966797 142.03350830078125 67.39817810058594 124.89431762695313 95.55540466308594 110.81570434570313 112.694580078125 95.51287841796876 126.16107177734376 79.59793090820313 135.3427734375 69.80410766601563 139.01544189453125 64.29510498046875 139.01544189453125 62.458740234375 137.7912139892578 66.7435302734375 134.73065185546875 80.8221435546875 127.99740600585938 104.08245849609376 120.6520538330078 129.79119873046875 115.75514221191406 156.112060546875 114.53091430664063 173.8634033203125 114.53091430664063 181.208740234375 115.1430206298828 183.6572265625 118.20359802246094 183.6572265625 118.20359802246094 " />
        <polyline stroke="black" stroke-width="3" stroke-linecap="round" fill="transparent" stroke-linejoin="round" points="47.768035888671875 193.4935302734375 63.07086181640625 186.14816284179688 77.7615966796875 182.4754943847656 107.14300537109376 178.8028106689453 134.6881103515625 178.19070434570313 161.009033203125 177.57858276367188 176.9239501953125 178.8028106689453 186.7177734375 182.4754943847656 186.7177734375 182.4754943847656 " />
        </svg>