<?xml version="1.0" standalone="no"?>
    <svg width="256" height="256" xmlns="http://www.w3.org/2000/svg" version="1.1">
    <polyline stroke="black" stroke-width="3" stroke-linecap="round" fill="transparent" stroke-linejoin="round" points="86.5120849609375 101.99996948242188 98.0830078125 94.6920166015625 110.262939453125 85.55706787109375 121.22488403320313 75.20413208007813 129.141845703125 67.28717041015625 134.0137939453125 63.024200439453125 135.8408203125 60.58821105957031 135.8408203125 60.58821105957031 " />
        <polyline stroke="black" stroke-width="3" stroke-linecap="round" fill="transparent" stroke-linejoin="round" points="98.0830078125 94.6920166015625 90.77508544921876 106.26295471191406 84.07611083984375 122.7058563232422 79.20413208007813 144.02073669433594 77.37713623046875 161.68162536621094 77.37713623046875 174.47055053710938 79.20413208007813 181.1695098876953 83.46710205078125 182.9964904785156 89.55706787109375 177.51553344726563 89.55706787109375 177.51553344726563 " />
        <polyline stroke="black" stroke-width="3" stroke-linecap="round" fill="transparent" stroke-linejoin="round" points="117.5709228515625 116.00689697265624 104.781982421875 148.28370666503906 93.82003784179688 170.20758056640625 82.85809326171875 189.69546508789065 73.72314453125 204.31137084960935 68.2421875 212.22833251953125 65.19720458984375 215.88232421875 66.41522216796875 213.44631958007813 72.50518798828125 206.74737548828125 84.68511962890625 192.74044799804688 99.91000366210938 176.9065399169922 115.743896484375 157.4186553955078 130.35983276367188 135.49478149414063 130.35983276367188 135.49478149414063 " />
        <polyline stroke="black" stroke-width="3" stroke-linecap="round" fill="transparent" stroke-linejoin="round" points="141.9307861328125 92.25602722167967 155.32867431640625 80.68510437011719 171.7716064453125 67.28717041015625 188.2144775390625 54.49824523925781 201.6124267578125 44.14530944824219 210.13836669921875 39.273338317871094 215.0103759765625 38.05534362792969 215.0103759765625 38.05534362792969 " />
        <polyline stroke="black" stroke-width="3" stroke-linecap="round" fill="transparent" stroke-linejoin="round" points="164.463623046875 94.08302307128906 160.8096923828125 108.6989288330078 158.3736572265625 124.5328369140625 158.3736572265625 140.9757537841797 158.982666015625 154.37367248535156 161.41864013671875 162.29061889648438 165.0726318359375 166.55360412597656 169.944580078125 165.33560180664063 178.4705810546875 152.5466766357422 178.4705810546875 152.5466766357422 " />
        <polyline stroke="black" stroke-width="3" stroke-linecap="round" fill="transparent" stroke-linejoin="round" points="201.00341796875 78.85810852050781 199.1763916015625 96.51901245117188 192.47747802734375 122.7058563232422 185.16949462890625 140.3667449951172 175.425537109375 158.6366424560547 164.463623046875 173.2525634765625 154.7197265625 183.60549926757813 148.62973022460938 189.69546508789065 145.58474731445313 192.74044799804688 145.58474731445313 192.74044799804688 149.84771728515625 189.69546508789065 162.02764892578125 182.38751220703125 181.5155029296875 171.42556762695313 201.6124267578125 160.46363830566406 218.664306640625 153.15567016601563 230.2352294921875 151.93768310546875 236.9342041015625 158.02764892578125 236.9342041015625 158.02764892578125 " />
        </svg>