<?xml version="1.0" standalone="no"?>
    <svg width="256" height="256" xmlns="http://www.w3.org/2000/svg" version="1.1">
    <polyline stroke="black" stroke-width="3" stroke-linecap="round" fill="transparent" stroke-linejoin="round" points="55.24627685546875 135.39984130859375 61.32635498046875 132.69757080078125 68.41976928710938 129.65756225585938 75.51321411132813 126.2797393798828 81.93106079101563 122.90193176269533 87.67337036132813 119.1863250732422 92.74005126953124 115.470703125 97.46902465820313 111.755126953125 101.52239990234376 108.03952026367188 104.90020751953124 104.66169738769533 107.94024658203124 101.95945739746094 110.30471801757813 99.93276977539063 111.99365234375 98.24383544921876 113.34478759765624 97.23049926757813 114.358154296875 96.554931640625 115.03366088867188 95.87936401367188 115.03366088867188 95.87936401367188 " />
        <polyline stroke="black" stroke-width="3" stroke-linecap="round" fill="transparent" stroke-linejoin="round" points="77.20208740234375 155.666748046875 77.5399169921875 160.73348999023438 77.877685546875 166.13796997070313 77.877685546875 171.2047119140625 78.21542358398438 175.59588623046875 78.21542358398438 179.3114776611328 78.21542358398438 182.3514862060547 78.21542358398438 184.378173828125 78.21542358398438 185.72930908203125 78.21542358398438 186.74267578125 78.89105224609375 186.4049072265625 78.89105224609375 186.4049072265625 " />
        <polyline stroke="black" stroke-width="3" stroke-linecap="round" fill="transparent" stroke-linejoin="round" points="109.96694946289063 143.16880798339844 109.62918090820313 147.2222137451172 108.95358276367188 151.95115661621094 107.60247802734376 157.69345092773438 105.5758056640625 164.11129760742188 102.87356567382813 170.5291290283203 99.4957275390625 176.94700622558594 95.10455322265624 183.3648376464844 90.3756103515625 189.78271484375 85.64666748046875 195.5250244140625 80.91769409179688 200.25396728515625 76.52655029296875 203.96954345703125 72.81094360351563 207.00958251953125 70.44647216796875 208.698486328125 68.757568359375 210.04959106445313 67.40646362304688 210.7251892089844 66.73086547851563 211.06295776367188 67.40646362304688 210.38742065429688 70.10867309570313 208.02291870117188 76.18875122070313 203.29400634765625 84.2955322265625 196.2005615234375 93.75341796875 187.75604248046875 104.56243896484376 178.29812622070313 116.38479614257813 167.1513214111328 116.38479614257813 167.1513214111328 " />
        <polyline stroke="black" stroke-width="3" stroke-linecap="round" fill="transparent" stroke-linejoin="round" points="122.12704467773438 102.97279357910156 128.88272094726563 100.27052307128906 136.98947143554688 96.89271545410156 145.77182006835938 93.17710876464844 154.21636962890625 89.46151733398438 161.9853515625 85.74591064453125 169.0787353515625 82.03030395507813 175.49664306640625 78.99028015136719 180.5633544921875 76.62580871582031 184.2789306640625 74.59912109375 186.64337158203125 73.24800109863281 188.33233642578125 72.57241821289063 189.6834716796875 71.89686584472656 190.3590087890625 71.55908203125 190.3590087890625 71.55908203125 " />
        <polyline stroke="black" stroke-width="3" stroke-linecap="round" fill="transparent" stroke-linejoin="round" points="136.65170288085938 137.426513671875 137.3272705078125 142.15548706054688 138.0028076171875 146.54661560058594 138.67843627929688 150.60003662109375 139.35397338867188 154.3156280517578 140.02951049804688 157.69345092773438 140.3673095703125 160.3956756591797 140.3673095703125 162.42237854003906 140.3673095703125 163.77349853515625 140.3673095703125 164.78684997558594 140.3673095703125 164.78684997558594 " />
        <polyline stroke="black" stroke-width="3" stroke-linecap="round" fill="transparent" stroke-linejoin="round" points="180.5633544921875 116.1462860107422 180.901123046875 120.87522888183594 180.901123046875 126.2797393798828 180.22552490234375 131.68421936035156 179.21221923828125 137.08876037597656 177.86102294921875 142.15548706054688 176.17218017578125 146.88442993164063 174.1455078125 152.28890991210938 171.781005859375 158.36900329589844 167.7276611328125 165.8002166748047 163.33648681640625 173.2313995361328 163.33648681640625 173.2313995361328 " />
        <polyline stroke="black" stroke-width="3" stroke-linecap="round" fill="transparent" stroke-linejoin="round" points="115.03366088867188 201.94284057617188 123.14041137695313 199.91616821289065 132.93609619140625 197.88949584960935 143.7451171875 195.86276245117188 155.229736328125 194.17388916015625 165.700927734375 192.82275390625 175.83441162109375 191.80941772460935 184.61669921875 190.79605102539065 192.04791259765625 190.1204833984375 198.12799072265625 189.4449462890625 203.53253173828125 188.76937866210935 207.92364501953125 188.09378051757813 211.6392822265625 187.41824340820313 215.01708984375 186.74267578125 217.381591796875 186.06710815429688 219.0704345703125 185.72930908203125 220.421630859375 185.39157104492188 221.4349365234375 185.05377197265625 222.44830322265625 184.71597290039065 223.12384033203125 184.378173828125 223.79937744140625 184.0404357910156 223.79937744140625 184.0404357910156 " />
        </svg>