<?xml version="1.0" standalone="no"?>
    <svg width="256" height="256" xmlns="http://www.w3.org/2000/svg" version="1.1">
    <polyline stroke="black" stroke-width="3" stroke-linecap="round" fill="transparent" stroke-linejoin="round" points="63.36688232421875 112.18498229980467 72.162841796875 107.15869140625 82.21533203125 101.71354675292967 91.01132202148438 97.10614013671876 108.1844482421875 88.31015014648438 115.723876953125 84.54045104980469 127.45184326171876 78.67645263671875 134.5723876953125 74.90675354003906 137.50439453125 73.2313232421875 137.50439453125 72.81246948242188 137.50439453125 72.81246948242188 " />
        <polyline stroke="black" stroke-width="3" stroke-linecap="round" fill="transparent" stroke-linejoin="round" points="78.44564819335938 136.47862243652344 76.35137939453125 142.34263610839844 74.67596435546875 147.368896484375 73.00048828125 151.97630310058594 70.90625 159.09686279296875 70.48739624023438 161.61001586914063 70.48739624023438 162.86656188964844 70.48739624023438 162.86656188964844 " />
        <polyline stroke="black" stroke-width="3" stroke-linecap="round" fill="transparent" stroke-linejoin="round" points="122.00668334960938 106.32096862792967 116.56158447265624 115.95468139648438 110.27874755859376 125.58836364746094 103.99591064453124 133.96548461914063 92.26791381835938 146.95004272460938 80.12109375 158.67800903320313 71.32513427734375 166.6362762451172 66.298828125 170.8248291015625 63.36688232421875 173.7568359375 62.947967529296875 175.01339721679688 67.9742431640625 174.59454345703125 83.89080810546875 168.31170654296875 103.5770263671875 157.84030151367188 122.00668334960938 146.5311737060547 142.11181640625 132.70892333984375 142.11181640625 132.70892333984375 " />
        <polyline stroke="black" stroke-width="3" stroke-linecap="round" fill="transparent" stroke-linejoin="round" points="153.4208984375 82.86502075195313 158.8660888671875 79.09532165527344 165.14892578125 75.32560729980469 176.87689208984375 69.04277038574219 186.09173583984375 64.43534851074219 192.37457275390625 61.50335693359375 192.37457275390625 61.50335693359375 " />
        <polyline stroke="black" stroke-width="3" stroke-linecap="round" fill="transparent" stroke-linejoin="round" points="152.16436767578125 118.88665771484376 150.070068359375 126.00723266601563 147.97579956054688 133.12777709960938 146.30038452148438 140.2483367919922 145.04379272460938 146.11233520507813 143.7872314453125 156.16485595703125 143.36837768554688 162.86656188964844 143.7872314453125 164.9608612060547 145.88153076171875 164.5419921875 145.88153076171875 164.5419921875 " />
        <polyline stroke="black" stroke-width="3" stroke-linecap="round" fill="transparent" stroke-linejoin="round" points="200.3328857421875 99.61929321289063 195.30657958984375 108.41526794433594 175.62030029296875 134.80320739746094 168.0809326171875 142.761474609375 160.1226806640625 150.30088806152344 143.7872314453125 165.37969970703125 133.31585693359375 173.33798217773438 129.12728881835938 176.68882751464844 128.28955078125 177.10769653320313 133.73471069335938 176.68882751464844 141.27410888671875 175.4322509765625 168.0809326171875 167.89285278320313 184.83514404296875 162.86656188964844 202.845947265625 159.9345703125 202.845947265625 159.9345703125 " />
        </svg>