<?xml version="1.0" standalone="no"?>
    <svg width="256" height="256" xmlns="http://www.w3.org/2000/svg" version="1.1">
    <polyline stroke="black" stroke-width="3" stroke-linecap="round" fill="transparent" stroke-linejoin="round" points="56.940216064453125 98.6064453125 76.740966796875 82.43583679199219 82.68115234375 78.47569274902344 117.99252319335938 62.96510314941406 125.582763671875 60.655029296875 149.013671875 58.34492492675781 168.81439208984375 63.6251220703125 181.02490234375 70.88539123535156 185.64501953125 82.43583679199219 184.32501220703125 104.21664428710938 178.05474853515625 131.60769653320313 170.79449462890625 153.71849060058594 165.18426513671875 170.5491180419922 160.89410400390625 181.7695770263672 157.26397705078125 188.039794921875 150.333740234375 192.3299560546875 150.333740234375 192.3299560546875 150.333740234375 192.3299560546875 " />
        <polyline stroke="black" stroke-width="3" stroke-linecap="round" fill="transparent" stroke-linejoin="round" points="120.30258178710938 87.05601501464844 116.012451171875 118.0771484375 110.07220458984376 162.62884521484375 109.41217041015624 167.2490234375 106.112060546875 176.48934936523438 100.50189208984376 182.7595977783203 95.22164916992188 185.39971923828125 95.22164916992188 185.39971923828125 " />
        <polyline stroke="black" stroke-width="3" stroke-linecap="round" fill="transparent" stroke-linejoin="round" points="52.98004150390625 152.72845458984375 80.04107666015625 141.50804138183594 138.45327758789063 124.67741394042967 148.02362060546875 123.6873779296875 172.11456298828125 122.03733825683594 185.64501953125 122.69734191894533 189.9351806640625 123.6873779296875 188.28515625 127.31752014160156 188.28515625 127.31752014160156 188.28515625 127.31752014160156 " />
        <polyline stroke="black" stroke-width="3" stroke-linecap="round" fill="transparent" stroke-linejoin="round" points="47.369873046875 186.38970947265625 63.8704833984375 180.44949340820313 69.48065185546875 178.46942138671875 107.10211181640624 167.9090576171875 116.012451171875 166.5889892578125 145.383544921875 164.93893432617188 174.42462158203125 165.928955078125 195.87542724609375 167.5790252685547 207.755859375 169.2290802001953 212.37603759765625 170.2191162109375 212.37603759765625 170.2191162109375 212.37603759765625 170.2191162109375 " />
        </svg>