<?xml version="1.0" standalone="no"?>
    <svg width="256" height="256" xmlns="http://www.w3.org/2000/svg" version="1.1">
    <polyline stroke="black" stroke-width="3" stroke-linecap="round" fill="transparent" stroke-linejoin="round" points="59.842803955078125 83.41177368164063 72.82763671875 80.92494201660156 85.81246948242188 78.4381103515625 98.87945556640624 76.08967590332031 123.38632202148438 71.39442443847656 130.72454833984375 69.88612365722656 144.9949951171875 66.26214599609375 150.11468505859375 64.87614440917969 156.0362548828125 63.28466796875 157.32196044921875 62.697601318359375 157.41259765625 62.65623474121094 " />
        <polyline stroke="black" stroke-width="3" stroke-linecap="round" fill="transparent" stroke-linejoin="round" points="98.77081298828125 47.067199707031264 93.8131103515625 69.36285400390625 88.85540771484375 91.65850830078124 82.6011962890625 115.99925231933594 74.85629272460938 138.90191650390625 62.060882568359375 166.47329711914063 62.821624755859375 162.50108337402344 " />
        <polyline stroke="black" stroke-width="3" stroke-linecap="round" fill="transparent" stroke-linejoin="round" points="125.32858276367188 91.71374511718753 137.79598999023438 95.65130615234376 150.26339721679688 99.5888671875 173.99365234375 108.6514892578125 190.3948974609375 117.07896423339844 194.03271484375 119.48143005371094 199.32861328125 120.851806640625 199.79443359375 120.97235107421876 " />
        <polyline stroke="black" stroke-width="3" stroke-linecap="round" fill="transparent" stroke-linejoin="round" points="90.91378784179688 136.81732177734375 99.60263061523438 135.80792236328125 108.29147338867188 134.79852294921875 117.60009765625 133.6539764404297 127.0799560546875 131.9420166015625 144.73260498046875 128.0469207763672 152.05389404296875 124.79991149902344 152.61376953125 123.87484741210938 152.6937255859375 123.74278259277344 " />
        <polyline stroke="black" stroke-width="3" stroke-linecap="round" fill="transparent" stroke-linejoin="round" points="102.34060668945315 155.77890014648435 99.96868896484376 169.34457397460938 97.59677124023438 182.9102478027344 91.57553100585938 201.04193115234375 86.58599853515625 211.1060485839844 86.13339233398438 212.5673828125 86.10409545898438 212.6619873046875 " />
        <polyline stroke="black" stroke-width="3" stroke-linecap="round" fill="transparent" stroke-linejoin="round" points="129.38397216796875 151.32345581054688 130.51852416992188 162.85577392578125 131.653076171875 174.38809204101563 133.331787109375 184.8221435546875 138.86297607421875 200.242919921875 142.6217041015625 204.5404052734375 146.62152099609375 206.67202758789065 161.3751220703125 211.76608276367188 180.6490478515625 211.0306396484375 188.0953369140625 208.7256774902344 198.1492919921875 202.54351806640625 201.4364013671875 199.44119262695313 200.4356689453125 199.18682861328125 " />
        </svg>