<?xml version="1.0" standalone="no"?>
    <svg width="256" height="256" xmlns="http://www.w3.org/2000/svg" version="1.1">
    <polyline stroke="black" stroke-width="3" stroke-linecap="round" fill="transparent" stroke-linejoin="round" points="66.72445678710938 100.83738708496094 93.34735107421876 83.51138305664063 103.06683349609376 78.44035339355469 123.7734375 69.56607055664063 150.39633178710938 59.84660339355469 166.45458984375 53.93040466308594 173.2159423828125 49.704551696777344 173.2159423828125 49.704551696777344 " />
        <polyline stroke="black" stroke-width="3" stroke-linecap="round" fill="transparent" stroke-linejoin="round" points="129.26705932617188 38.29475402832031 125.04119873046876 47.59162902832031 122.08309936523438 54.352989196777344 118.27987670898438 63.22727966308594 109.40557861328124 80.55328369140625 94.61508178710938 107.17617797851563 83.20526123046875 128.30540466308594 78.55682373046875 136.33453369140625 68.83740234375 152.8153533935547 68.83740234375 152.8153533935547 " />
        <polyline stroke="black" stroke-width="3" stroke-linecap="round" fill="transparent" stroke-linejoin="round" points="105.602294921875 89.00498962402344 117.43466186523438 90.27273559570313 125.04119873046876 91.54049682617188 133.492919921875 93.23085021972656 151.24151611328125 96.61151123046876 159.2706298828125 98.3018798828125 172.7933349609375 101.68254089355467 182.5128173828125 105.48580932617188 186.7386474609375 108.02133178710938 186.7386474609375 108.02133178710938 " />
        <polyline stroke="black" stroke-width="3" stroke-linecap="round" fill="transparent" stroke-linejoin="round" points="78.97943115234375 155.77346801757813 92.50213623046876 147.32174682617188 100.953857421875 143.09588623046875 117.85726928710938 136.7571258544922 125.46380615234376 134.64419555664063 143.21237182617188 130.4183349609375 150.39633178710938 129.5731658935547 152.50927734375 129.5731658935547 154.6221923828125 129.5731658935547 154.6221923828125 129.5731658935547 " />
        <polyline stroke="black" stroke-width="3" stroke-linecap="round" fill="transparent" stroke-linejoin="round" points="97.15057373046876 161.68963623046875 87.008544921875 177.74789428710938 82.78271484375 184.50924682617188 75.17620849609375 197.18682861328125 69.25994873046875 204.7933349609375 66.72445678710938 207.75146484375 64.18893432617188 209.8643798828125 63.766357421875 209.8643798828125 64.61151123046875 208.17401123046875 64.61151123046875 208.17401123046875 " />
        <polyline stroke="black" stroke-width="3" stroke-linecap="round" fill="transparent" stroke-linejoin="round" points="125.04119873046876 145.20883178710938 125.88641357421876 156.61862182617188 126.73153686523438 162.1122283935547 133.91549682617188 177.74789428710938 137.29620361328125 182.39633178710935 146.17050170898438 190.00286865234375 163.9190673828125 195.07388305664065 174.90625 192.11578369140625 183.3580322265625 186.1995849609375 188.42901611328125 179.01565551757813 191.3870849609375 171.83169555664063 190.96453857421875 166.33807373046875 190.96453857421875 166.33807373046875 " />
        </svg>