<?xml version="1.0" standalone="no"?>
    <svg width="256" height="256" xmlns="http://www.w3.org/2000/svg" version="1.1">
    <polyline stroke="black" stroke-width="3" stroke-linecap="round" fill="transparent" stroke-linejoin="round" points="48.32086181640625 90.16520690917967 63.351776123046875 82.20765686035156 72.63558959960938 77.78678894042969 96.066162109375 67.17672729492188 122.14926147460938 57.892913818359375 148.23236083984375 50.81953430175781 159.2845458984375 49.051177978515625 177.4100341796875 45.95658874511719 188.0201416015625 44.188232421875 191.9989013671875 43.30406951904297 191.9989013671875 43.30406951904297 " />
        <polyline stroke="black" stroke-width="3" stroke-linecap="round" fill="transparent" stroke-linejoin="round" points="127.01220703125 26.504783630371097 114.6337890625 43.74614715576172 108.00250244140624 55.68247985839844 85.898193359375 95.47024536132813 74.84603881835938 117.13249206542967 68.65682983398438 128.1846160888672 66.00433349609375 133.04759216308594 66.00433349609375 133.04759216308594 " />
        <polyline stroke="black" stroke-width="3" stroke-linecap="round" fill="transparent" stroke-linejoin="round" points="96.066162109375 81.76556396484375 115.5179443359375 80.43930053710938 127.01220703125 80.88139343261719 150.44281005859375 82.64974975585938 172.10498046875 85.30226135253906 189.7884521484375 89.28103637695313 195.093505859375 91.9335479736328 195.093505859375 91.9335479736328 " />
        <polyline stroke="black" stroke-width="3" stroke-linecap="round" fill="transparent" stroke-linejoin="round" points="73.07769775390625 153.82562255859375 87.66650390625 143.21556091308594 96.95037841796876 138.35263061523438 116.84423828125 129.06881713867188 127.01220703125 125.5321044921875 144.25360107421875 120.66915893554688 155.3057861328125 118.90081787109376 160.168701171875 119.3428955078125 160.61077880859375 119.78500366210938 158.40032958984375 121.55332946777344 152.21112060546875 125.5321044921875 143.81149291992188 131.72134399414063 135.411865234375 138.79470825195313 125.24386596679688 149.40476989746094 113.74960327148438 162.6673583984375 101.37118530273438 179.0245361328125 89.876953125 193.17132568359375 80.5931396484375 204.66555786132813 74.84603881835938 212.62310791015625 73.07769775390625 214.83355712890625 73.07769775390625 214.83355712890625 " />
        <polyline stroke="black" stroke-width="3" stroke-linecap="round" fill="transparent" stroke-linejoin="round" points="134.52767944335938 152.05728149414063 135.85394287109375 164.87779235839844 136.2960205078125 171.95115661621094 137.62228393554688 179.46664428710938 139.83270263671875 186.54000854492188 146.02191162109375 198.03424072265625 150.44281005859375 202.45513916015625 161.93701171875 209.52850341796875 173.4312744140625 212.1810302734375 184.4833984375 209.9705810546875 192.883056640625 203.33929443359375 196.86181640625 197.5921630859375 196.86181640625 197.5921630859375 " />
        </svg>