<?xml version="1.0" standalone="no"?>
    <svg width="256" height="256" xmlns="http://www.w3.org/2000/svg" version="1.1">
    <polyline stroke="black" stroke-width="3" stroke-linecap="round" fill="transparent" stroke-linejoin="round" points="78.03591918945313 92.55375671386719 98.60513305664063 81.63945007324219 119.17434692382813 70.72514343261719 133.86663818359375 63.58891296386719 144.78091430664063 57.292205810546875 152.33697509765625 50.57573699951172 152.33697509765625 50.57573699951172 " />
        <polyline stroke="black" stroke-width="3" stroke-linecap="round" fill="transparent" stroke-linejoin="round" points="113.71728515624999 58.1317596435547 102.80294799804688 83.73834228515625 91.88861083984376 109.3449249267578 83.4930419921875 130.33392333984375 76.77655029296875 143.3470916748047 71.31942749023438 153.42181396484375 68.38095092773438 156.36026000976563 68.38095092773438 156.36026000976563 " />
        <polyline stroke="black" stroke-width="3" stroke-linecap="round" fill="transparent" stroke-linejoin="round" points="122.95236206054688 84.5779113769531 135.1259765625 91.2943878173828 147.29959106445313 98.0108642578125 161.99188232421875 105.98666381835938 183.40069580078125 115.22183227539063 201.03143310546875 119.8394012451172 210.2666015625 120.67898559570313 218.242431640625 119.8394012451172 218.242431640625 119.8394012451172 " />
        <polyline stroke="black" stroke-width="3" stroke-linecap="round" fill="transparent" stroke-linejoin="round" points="88.11059570312501 145.8657989501953 98.18533325195313 142.50753784179688 108.26007080078124 139.14927673339844 122.952392578125 135.37127685546875 139.32379150390625 130.75369262695313 150.238037109375 127.8152313232422 158.6336669921875 126.55589294433594 158.6336669921875 126.55589294433594 " />
        <polyline stroke="black" stroke-width="3" stroke-linecap="round" fill="transparent" stroke-linejoin="round" points="114.13699340820313 151.74267578124997 104.4820556640625 168.9536590576172 94.82711791992188 186.1646423339844 86.85128784179688 200.85693359375 80.97439575195313 210.931640625 75.5172119140625 219.74700927734375 69.22055053710938 228.56243896484375 69.22055053710938 228.56243896484375 " />
        <polyline stroke="black" stroke-width="3" stroke-linecap="round" fill="transparent" stroke-linejoin="round" points="124.63140869140625 160.9778289794922 127.56991577148438 168.9536590576172 130.5084228515625 176.9294891357422 135.54574584960938 184.90530395507813 151.07757568359375 195.819580078125 171.6468505859375 202.5360412597656 185.9193115234375 203.3756103515625 201.03143310546875 203.3756103515625 214.04461669921875 202.5360412597656 222.0203857421875 201.2767333984375 226.21826171875 200.01736450195313 227.0577392578125 199.59759521484375 227.8973388671875 198.75802612304688 228.7369384765625 196.2393798828125 229.1566162109375 187.84375 228.31707763671875 171.8921356201172 232.514892578125 132.8526153564453 232.514892578125 132.8526153564453 " />
        </svg>