<?xml version="1.0" standalone="no"?>
    <svg width="256" height="256" xmlns="http://www.w3.org/2000/svg" version="1.1">
    <polyline stroke="black" stroke-width="3" stroke-linecap="round" fill="transparent" stroke-linejoin="round" points="50 109 58 107 71 106 93 101 113 94 133 86 149 79 159 75 163 73 164 73 165 73 165 73 " />
        <polyline stroke="black" stroke-width="3" stroke-linecap="round" fill="transparent" stroke-linejoin="round" points="123 49 119 59 115 73 107 89 98 107 89 123 82 134 76 143 72 150 69 155 66 159 66 159 " />
        <polyline stroke="black" stroke-width="3" stroke-linecap="round" fill="transparent" stroke-linejoin="round" points="110 98 115 104 121 110 129 115 136 119 147 122 159 123 167 123 173 124 178 126 180 126 180 126 " />
        <polyline stroke="black" stroke-width="3" stroke-linecap="round" fill="transparent" stroke-linejoin="round" points="89 159 103 156 111 153 123 148 131 144 135 142 137 142 139 142 138 143 138 143 " />
        <polyline stroke="black" stroke-width="3" stroke-linecap="round" fill="transparent" stroke-linejoin="round" points="55 202 55 202 " />
        <polyline stroke="black" stroke-width="3" stroke-linecap="round" fill="transparent" stroke-linejoin="round" points="55 202 55 202 " />
        <polyline stroke="black" stroke-width="3" stroke-linecap="round" fill="transparent" stroke-linejoin="round" points="111 158 111 167 111 176 108 189 103 203 94 218 85 228 79 236 75 242 72 246 69 248 68 248 68 248 " />
        <polyline stroke="black" stroke-width="3" stroke-linecap="round" fill="transparent" stroke-linejoin="round" points="129 153 128 158 127 166 126 178 126 193 127 204 134 212 145 218 160 219 178 217 189 211 194 208 196 206 196 204 191 202 182 199 177 197 175 196 175 196 " />
        </svg>