<?xml version="1.0" standalone="no"?>
    <svg width="256" height="256" xmlns="http://www.w3.org/2000/svg" version="1.1">
    <polyline stroke="black" stroke-width="3" stroke-linecap="round" fill="transparent" stroke-linejoin="round" points="60.615478515625 81.64775085449219 63.23004150390625 80.34048461914063 80.87841796875 73.80404663085938 90.0294189453125 70.53582763671875 98.52679443359376 68.57487487792969 102.44866943359376 68.57487487792969 102.44866943359376 69.88217163085938 101.7950439453125 69.88217163085938 101.7950439453125 69.88217163085938 " />
        <polyline stroke="black" stroke-width="3" stroke-linecap="round" fill="transparent" stroke-linejoin="round" points="57.3472900390625 101.9106903076172 57.3472900390625 105.1789093017578 56.693603515625 127.4027862548828 62.576416015625 160.08494567871094 64.53729248046875 165.96775817871094 65.1910400390625 166.6213836669922 67.15191650390625 165.31411743164063 71.72747802734375 158.1240234375 76.30291748046875 149.6266632080078 80.22479248046875 140.4756317138672 81.5321044921875 134.59288024902344 82.83935546875 130.01734924316406 84.14666748046875 130.01734924316406 86.76116943359375 133.2855682373047 91.3367919921875 139.1683807373047 98.52679443359376 147.0120849609375 101.7950439453125 149.6266632080078 113.56060791015624 150.28030395507813 122.71160888671876 145.0511474609375 122.71160888671876 145.0511474609375 " />
        <polyline stroke="black" stroke-width="3" stroke-linecap="round" fill="transparent" stroke-linejoin="round" points="125.97979736328124 79.03318786621094 124.67254638671876 83.60868835449219 114.86785888671876 116.94448852539063 111.59967041015624 126.74913024902344 111.59967041015624 127.4027862548828 114.21429443359376 125.4418487548828 114.21429443359376 125.4418487548828 " />
        <polyline stroke="black" stroke-width="3" stroke-linecap="round" fill="transparent" stroke-linejoin="round" points="141.01361083984375 109.7544403076172 142.97454833984375 110.40806579589844 160.6229248046875 108.44712829589844 160.6229248046875 108.44712829589844 " />
        <polyline stroke="black" stroke-width="3" stroke-linecap="round" fill="transparent" stroke-linejoin="round" points="169.12030029296875 69.88217163085938 167.15936279296875 74.45767211914063 154.7401123046875 104.52525329589844 153.43280029296875 108.44712829589844 148.85736083984375 123.48092651367188 147.550048828125 128.71006774902344 148.85736083984375 128.71006774902344 150.81829833984375 126.0955047607422 150.81829833984375 126.0955047607422 " />
        <polyline stroke="black" stroke-width="3" stroke-linecap="round" fill="transparent" stroke-linejoin="round" points="180.8858642578125 114.32991027832033 182.8468017578125 114.98356628417967 198.5341796875 121.51998901367188 199.84149169921875 122.1736297607422 203.76336669921875 127.4027862548828 203.76336669921875 127.4027862548828 " />
        <polyline stroke="black" stroke-width="3" stroke-linecap="round" fill="transparent" stroke-linejoin="round" points="171.08123779296875 146.3584442138672 176.31036376953125 145.70481872558594 181.53948974609375 150.28030395507813 181.53948974609375 150.28030395507813 " />
        <polyline stroke="black" stroke-width="3" stroke-linecap="round" fill="transparent" stroke-linejoin="round" points="119.443359375 178.38699340820313 125.326171875 178.38699340820313 127.94073486328124 178.38699340820313 137.09173583984375 178.38699340820313 159.96923828125 177.7333221435547 180.8858642578125 175.7723846435547 207.6851806640625 175.1187744140625 224.0263671875 182.9624786376953 224.0263671875 182.9624786376953 " />
        </svg>