<?xml version="1.0" standalone="no"?>
    <svg width="256" height="256" xmlns="http://www.w3.org/2000/svg" version="1.1">
    <polyline stroke="black" stroke-width="3" stroke-linecap="round" fill="transparent" stroke-linejoin="round" points="62.32073974609375 103.0565948486328 69.5660400390625 99.4339599609375 95.8302001953125 87.66035461425781 99.4527587890625 85.84906005859375 102.16973876953124 83.132080078125 101.26416015625 82.22640991210938 101.26416015625 82.22640991210938 " />
        <polyline stroke="black" stroke-width="3" stroke-linecap="round" fill="transparent" stroke-linejoin="round" points="55.98114013671875 148.33961486816406 56.88671875 175.50941467285156 56.88671875 187.28298950195313 57.79248046875 187.28298950195313 60.50946044921875 186.3773498535156 70.4716796875 174.60379028320313 78.6226806640625 163.73583984375 84.056640625 151.9622802734375 87.67926025390625 141.09432983398438 89.4906005859375 132.94337463378906 89.4906005859375 131.132080078125 88.5848388671875 137.47171020507813 88.5848388671875 146.5283203125 90.396240234375 157.396240234375 92.20758056640624 158.30186462402344 93.11322021484376 156.49057006835938 93.11322021484376 156.49057006835938 " />
        <polyline stroke="black" stroke-width="3" stroke-linecap="round" fill="transparent" stroke-linejoin="round" points="125.7169189453125 74.98114013671875 117.56597900390624 100.33961486816406 113.0377197265625 112.11322021484376 119.37738037109376 107.58488464355467 122.0943603515625 104.867919921875 128.43389892578125 101.24530029296876 132.9622802734375 98.5283203125 138.396240234375 95.8113250732422 142.018798828125 94.90567016601563 146.54718017578125 93.09432983398438 149.26416015625 91.28302001953124 151.98114013671875 86.75473022460938 156.50946044921875 74.98114013671875 160.13201904296875 63.207550048828125 165.56597900390625 50.528297424316406 170.99993896484375 38.75471496582031 177.33966064453125 31.509429931640625 183.67926025390625 29.6981201171875 190.924560546875 30.60376739501953 193.64154052734375 32.41510009765625 194.54718017578125 36.943397521972656 190.924560546875 50.528297424316406 188.20758056640625 60.490570068359375 188.20758056640625 68.64151000976563 190.01885986328125 73.16983032226563 194.54718017578125 75.88681030273438 202.6981201171875 75.88681030273438 213.5660400390625 77.69810485839844 219 82.22640991210938 219.90570068359375 88.5660400390625 212.660400390625 103.0565948486328 200.88677978515625 113.92453002929688 186.396240234375 127.50942993164063 169.188720703125 141.09432983398438 161.0377197265625 148.33961486816406 161.0377197265625 148.33961486816406 " />
        <polyline stroke="black" stroke-width="3" stroke-linecap="round" fill="transparent" stroke-linejoin="round" points="168.282958984375 147.4339599609375 185.4906005859375 139.28302001953125 188.20758056640625 138.37734985351563 190.924560546875 137.47171020507813 190.01885986328125 138.37734985351563 182.77362060546875 143.81134033203125 178.24530029296875 147.4339599609375 178.24530029296875 147.4339599609375 " />
        <polyline stroke="black" stroke-width="3" stroke-linecap="round" fill="transparent" stroke-linejoin="round" points="165.56597900390625 187.28298950195313 196.3585205078125 178.2263946533203 202.6981201171875 177.32077026367188 210.84906005859375 174.60379028320313 215.37738037109375 172.7924346923828 215.37738037109375 172.7924346923828 " />
        </svg>