<?xml version="1.0" standalone="no"?>
    <svg width="256" height="256" xmlns="http://www.w3.org/2000/svg" version="1.1">
    <polyline stroke="black" stroke-width="3" stroke-linecap="round" fill="transparent" stroke-linejoin="round" points="95 66 96 65 97 64 98 64 98 64 98 63 99 63 98 63 97 64 96 65 94 68 91 71 88 74 84 78 81 82 76 88 73 92 71 95 69 99 67 104 65 108 63 113 61 117 60 122 59 130 58 136 58 142 58 149 58 155 58 162 58 168 59 174 59 179 60 186 61 190 61 193 62 195 62 196 63 197 64 198 66 197 68 196 72 191 75 187 77 184 81 174 82 171 83 168 " />
        <polyline stroke="black" stroke-width="3" stroke-linecap="round" fill="transparent" stroke-linejoin="round" points="85 137 86 139 86 142 87 146 89 150 90 155 92 160 93 165 95 171 96 174 96 177 97 179 99 180 101 179 103 177 105 175 " />
        <polyline stroke="black" stroke-width="3" stroke-linecap="round" fill="transparent" stroke-linejoin="round" points="144 67 142 74 139 82 134 96 130 105 127 113 124 120 121 127 118 133 116 137 114 141 113 144 111 145 111 147 110 146 111 146 " />
        <polyline stroke="black" stroke-width="3" stroke-linecap="round" fill="transparent" stroke-linejoin="round" points="120 130 122 130 125 130 130 131 133 132 136 134 139 135 142 137 146 138 149 140 152 141 155 141 157 141 " />
        <polyline stroke="black" stroke-width="3" stroke-linecap="round" fill="transparent" stroke-linejoin="round" points="181 72 179 76 175 81 172 87 168 95 165 103 162 111 159 118 157 125 153 134 151 139 151 141 148 146 147 148 147 148 147 148 " />
        <polyline stroke="black" stroke-width="3" stroke-linecap="round" fill="transparent" stroke-linejoin="round" points="164 121 168 121 172 121 176 122 180 123 184 123 188 124 193 125 197 126 201 126 204 126 207 126 208 126 " />
        <polyline stroke="black" stroke-width="3" stroke-linecap="round" fill="transparent" stroke-linejoin="round" points="138 172 139 173 141 174 144 175 148 175 152 175 157 175 163 174 171 173 176 171 181 170 185 169 186 168 " />
        <polyline stroke="black" stroke-width="3" stroke-linecap="round" fill="transparent" stroke-linejoin="round" points="131 200 131 201 132 203 135 204 139 205 143 206 149 207 158 209 165 209 172 210 180 209 187 209 195 209 202 210 204 211 207 213 " />
        </svg>