<?xml version="1.0" standalone="no"?>
    <svg width="256" height="256" xmlns="http://www.w3.org/2000/svg" version="1.1">
    <polyline stroke="black" stroke-width="3" stroke-linecap="round" fill="transparent" stroke-linejoin="round" points="58 101 61 100 66 99 70 98 75 96 81 95 87 94 93 92 99 90 103 88 107 87 108 87 108 87 " />
        <polyline stroke="black" stroke-width="3" stroke-linecap="round" fill="transparent" stroke-linejoin="round" points="66 115 65 118 63 130 62 135 62 147 62 155 62 161 62 166 63 170 63 172 63 173 64 174 65 174 66 173 71 169 74 164 78 158 82 152 83 148 85 146 " />
        <polyline stroke="black" stroke-width="3" stroke-linecap="round" fill="transparent" stroke-linejoin="round" points="89 138 91 141 92 144 94 151 95 153 97 157 98 158 100 160 102 160 103 160 " />
        <polyline stroke="black" stroke-width="3" stroke-linecap="round" fill="transparent" stroke-linejoin="round" points="140 66 140 67 138 70 134 77 132 80 126 92 121 100 118 109 114 118 110 126 107 134 104 139 102 145 102 146 " />
        <polyline stroke="black" stroke-width="3" stroke-linecap="round" fill="transparent" stroke-linejoin="round" points="113 124 115 123 117 123 123 125 126 125 128 126 131 127 134 127 138 128 140 128 142 127 " />
        <polyline stroke="black" stroke-width="3" stroke-linecap="round" fill="transparent" stroke-linejoin="round" points="159 77 159 77 158 78 157 79 156 83 152 91 149 99 146 107 142 114 139 122 132 133 131 134 " />
        <polyline stroke="black" stroke-width="3" stroke-linecap="round" fill="transparent" stroke-linejoin="round" points="148 120 150 120 154 120 158 121 164 122 166 123 172 124 173 125 175 126 " />
        <polyline stroke="black" stroke-width="3" stroke-linecap="round" fill="transparent" stroke-linejoin="round" points="120 159 121 159 123 159 128 158 130 157 135 155 140 154 145 152 150 150 152 150 154 150 " />
        <polyline stroke="black" stroke-width="3" stroke-linecap="round" fill="transparent" stroke-linejoin="round" points="88 188 95 190 100 191 105 192 112 192 119 192 127 192 136 191 146 189 157 188 169 188 175 189 " />
        </svg>