<?xml version="1.0" standalone="no"?>
    <svg width="256" height="256" xmlns="http://www.w3.org/2000/svg" version="1.1">
    <polyline stroke="black" stroke-width="3" stroke-linecap="round" fill="transparent" stroke-linejoin="round" points="91 71 92 71 93 71 94 70 94 70 94 70 94 70 93 71 90 71 85 73 80 74 76 76 71 78 67 79 64 81 61 83 59 85 57 88 55 94 53 99 53 105 52 112 52 119 52 126 52 134 52 141 53 147 53 154 54 157 54 159 54 160 55 161 56 161 58 161 61 161 65 159 70 154 74 149 78 143 80 141 82 138 " />
        <polyline stroke="black" stroke-width="3" stroke-linecap="round" fill="transparent" stroke-linejoin="round" points="86 118 86 118 86 119 86 121 86 124 86 127 87 131 88 137 90 142 91 146 92 149 94 152 97 155 99 156 101 156 102 156 " />
        <polyline stroke="black" stroke-width="3" stroke-linecap="round" fill="transparent" stroke-linejoin="round" points="139 62 138 61 137 60 135 63 130 71 126 79 122 87 119 95 115 103 112 110 109 117 107 122 105 126 103 128 103 129 103 129 " />
        <polyline stroke="black" stroke-width="3" stroke-linecap="round" fill="transparent" stroke-linejoin="round" points="120 109 123 109 127 110 130 110 133 110 135 111 138 112 141 113 145 113 147 113 " />
        <polyline stroke="black" stroke-width="3" stroke-linecap="round" fill="transparent" stroke-linejoin="round" points="168 59 165 62 161 69 154 80 149 88 145 96 141 104 138 111 136 118 133 124 131 129 130 132 129 135 128 136 129 137 129 137 " />
        <polyline stroke="black" stroke-width="3" stroke-linecap="round" fill="transparent" stroke-linejoin="round" points="144 127 148 125 152 124 157 124 161 123 165 123 169 123 172 123 175 123 177 124 177 125 " />
        <polyline stroke="black" stroke-width="3" stroke-linecap="round" fill="transparent" stroke-linejoin="round" points="114 162 115 161 116 160 119 160 123 158 128 157 133 156 138 154 144 153 150 152 158 151 162 152 164 153 165 155 166 157 " />
        <polyline stroke="black" stroke-width="3" stroke-linecap="round" fill="transparent" stroke-linejoin="round" points="111 199 109 199 108 199 108 199 110 199 112 198 116 198 122 197 132 195 140 195 148 195 158 194 167 195 176 195 185 197 189 198 193 200 " />
        </svg>