<?xml version="1.0" standalone="no"?>
    <svg width="256" height="256" xmlns="http://www.w3.org/2000/svg" version="1.1">
    <polyline stroke="black" stroke-width="3" stroke-linecap="round" fill="transparent" stroke-linejoin="round" points="84.58465576171875 84.63790893554688 89.6290283203125 90.691162109375 92.65570068359376 93.71778869628906 104.089599609375 100.7799072265625 113.5057373046875 102.46136474609376 113.5057373046875 102.46136474609376 " />
        <polyline stroke="black" stroke-width="3" stroke-linecap="round" fill="transparent" stroke-linejoin="round" points="172.69305419921875 64.46041870117188 163.27685546875 72.86772155761719 135.36468505859375 96.74441528320313 107.45248413085938 118.26707458496094 107.45248413085938 118.26707458496094 " />
        <polyline stroke="black" stroke-width="3" stroke-linecap="round" fill="transparent" stroke-linejoin="round" points="68.44268798828125 148.19700622558594 101.06295776367188 135.08164978027344 115.52349853515624 130.0372772216797 143.43572998046875 119.9485321044922 166.97607421875 110.19607543945313 178.4100341796875 104.142822265625 178.4100341796875 104.142822265625 " />
        <polyline stroke="black" stroke-width="3" stroke-linecap="round" fill="transparent" stroke-linejoin="round" points="140.745361328125 43.61034393310547 139.06390380859375 52.690208435058594 134.69210815429688 97.08071899414063 132.67437744140625 132.05502319335938 132.00180053710938 146.5155487060547 131.66549682617188 170.72854614257813 130.992919921875 186.87054443359375 130.3203125 199.3133544921875 129.31146240234375 208.39324951171875 129.31146240234375 208.39324951171875 " />
        <polyline stroke="black" stroke-width="3" stroke-linecap="round" fill="transparent" stroke-linejoin="round" points="125.27597045898438 139.11715698242188 119.895263671875 144.497802734375 100.390380859375 164.00271606445313 92.991943359375 171.401123046875 81.22177124023438 185.1890869140625 77.18624877929688 189.89715576171875 77.18624877929688 189.89715576171875 " />
        <polyline stroke="black" stroke-width="3" stroke-linecap="round" fill="transparent" stroke-linejoin="round" points="148.14376831054688 163.33013916015625 157.2236328125 167.0293426513672 166.63983154296875 171.401123046875 187.153564453125 183.17132568359375 187.153564453125 183.17132568359375 " />
        </svg>