<?xml version="1.0" standalone="no"?>
    <svg width="256" height="256" xmlns="http://www.w3.org/2000/svg" version="1.1">
    <polyline stroke="black" stroke-width="3" stroke-linecap="round" fill="transparent" stroke-linejoin="round" points="82 69 83 71 84 72 85 74 87 76 88 79 90 81 91 84 94 86 98 89 103 90 109 91 112 91 116 90 " />
        <polyline stroke="black" stroke-width="3" stroke-linecap="round" fill="transparent" stroke-linejoin="round" points="151 59 151 60 150 63 147 68 138 80 130 90 121 100 110 109 99 118 88 126 79 132 71 136 66 139 63 141 61 142 62 142 65 142 70 140 76 137 84 133 94 129 104 124 115 119 125 114 140 107 145 105 153 101 162 94 164 92 " />
        <polyline stroke="black" stroke-width="3" stroke-linecap="round" fill="transparent" stroke-linejoin="round" points="117 47 114 52 112 60 111 70 110 82 110 96 110 111 111 127 112 142 115 163 116 174 118 182 118 188 118 192 118 193 118 193 " />
        <polyline stroke="black" stroke-width="3" stroke-linecap="round" fill="transparent" stroke-linejoin="round" points="101 132 98 135 93 141 85 152 80 159 75 165 72 171 69 177 66 181 65 184 64 186 64 187 " />
        <polyline stroke="black" stroke-width="3" stroke-linecap="round" fill="transparent" stroke-linejoin="round" points="118 135 128 137 138 139 146 142 154 146 161 150 168 156 175 164 178 169 181 174 " />
        </svg>