<?xml version="1.0" standalone="no"?>
    <svg width="256" height="256" xmlns="http://www.w3.org/2000/svg" version="1.1">
    <polyline stroke="black" stroke-width="3" stroke-linecap="round" fill="transparent" stroke-linejoin="round" points="103 54 103 53 102 53 102 53 102 54 102 57 103 60 103 66 103 70 104 73 104 75 104 77 105 79 105 80 105 80 " />
        <polyline stroke="black" stroke-width="3" stroke-linecap="round" fill="transparent" stroke-linejoin="round" points="105 60 106 58 108 56 110 55 113 53 116 52 120 50 127 48 131 46 136 45 141 43 146 43 150 42 154 42 156 43 158 43 159 44 158 46 155 51 150 56 144 63 141 66 137 69 " />
        <polyline stroke="black" stroke-width="3" stroke-linecap="round" fill="transparent" stroke-linejoin="round" points="105 87 105 87 104 87 105 86 106 85 109 84 111 82 115 80 119 79 123 77 127 75 133 73 138 71 141 70 145 70 146 71 " />
        <polyline stroke="black" stroke-width="3" stroke-linecap="round" fill="transparent" stroke-linejoin="round" points="107 100 107 100 106 101 106 102 106 103 107 106 107 109 108 112 109 115 109 118 110 120 110 122 110 123 110 123 110 123 110 121 110 119 110 116 110 113 111 111 113 108 115 106 119 104 125 101 129 99 134 98 139 96 144 95 148 95 151 94 154 94 155 95 156 97 154 101 151 106 145 112 139 117 132 121 125 123 118 125 114 126 110 126 108 127 106 127 106 127 107 127 110 127 113 126 117 125 122 124 127 123 132 120 137 116 143 112 146 109 " />
        <polyline stroke="black" stroke-width="3" stroke-linecap="round" fill="transparent" stroke-linejoin="round" points="138 23 138 23 136 23 135 23 134 26 132 31 130 38 127 53 126 65 125 78 125 92 124 106 125 118 125 129 124 138 124 146 123 152 121 157 120 160 " />
        <polyline stroke="black" stroke-width="3" stroke-linecap="round" fill="transparent" stroke-linejoin="round" points="56 173 55 172 54 172 54 172 55 171 56 170 59 169 62 168 67 167 72 165 82 163 90 162 98 160 108 159 118 158 128 157 138 156 147 155 155 154 162 153 168 152 172 150 174 148 175 147 " />
        <polyline stroke="black" stroke-width="3" stroke-linecap="round" fill="transparent" stroke-linejoin="round" points="131 130 131 130 126 132 122 134 119 139 115 145 111 153 107 162 103 172 98 181 94 190 88 202 83 208 79 213 76 216 73 219 70 220 68 221 68 221 " />
        <polyline stroke="black" stroke-width="3" stroke-linecap="round" fill="transparent" stroke-linejoin="round" points="104 171 104 171 106 170 107 169 109 169 115 170 120 173 126 176 132 182 139 187 146 194 154 200 161 206 167 212 177 219 180 221 183 223 186 225 " />
        </svg>