<?xml version="1.0" standalone="no"?>
    <svg width="256" height="256" xmlns="http://www.w3.org/2000/svg" version="1.1">
    <polyline stroke="black" stroke-width="3" stroke-linecap="round" fill="transparent" stroke-linejoin="round" points="86.09735107421875 66.42970275878906 86.51034545898438 78.40815734863281 86.92343139648438 78.40815734863281 90.640869140625 76.75595092773438 95.18441772460938 74.27764892578125 114.18475341796876 62.2991943359375 121.61962890625 57.755645751953125 142.27215576171875 47.42938232421875 152.18536376953125 43.711936950683594 157.968017578125 42.4727783203125 159.6202392578125 43.711936950683594 158.381103515625 49.907684326171875 150.1201171875 62.2991943359375 136.07638549804688 75.92985534667969 127.40234375 82.53866577148438 108.40203857421876 94.51712036132813 103.03240966796876 97.40847778320313 101.38018798828124 97.82151794433594 102.61932373046876 97.40847778320313 109.22811889648438 94.51712036132813 122.8587646484375 90.38662719726563 135.25030517578125 86.25611877441406 143.51132202148438 84.60391235351563 147.228759765625 84.60391235351563 147.228759765625 84.60391235351563 " />
        <polyline stroke="black" stroke-width="3" stroke-linecap="round" fill="transparent" stroke-linejoin="round" points="95.18441772460938 133.75689697265625 106.33676147460938 127.56114196777344 112.53253173828124 123.43064880371094 119.14132690429688 119.30014038085938 134.83724975585938 111.865234375 141.446044921875 110.21304321289063 144.33740234375 111.45217895507813 145.16351318359375 116.82183837890624 138.96774291992188 127.97418212890624 133.59808349609375 134.16995239257813 115.01083374023438 149.03976440429688 107.16290283203124 153.99636840820313 103.85848999023438 155.6485595703125 103.44540405273438 155.6485595703125 105.09762573242188 154.40940856933594 122.03268432617188 145.3223114013672 128.6414794921875 141.60484313964844 144.75042724609375 130.45249938964844 148.4678955078125 125.90896606445313 148.4678955078125 125.90896606445313 " />
        <polyline stroke="black" stroke-width="3" stroke-linecap="round" fill="transparent" stroke-linejoin="round" points="117.90219116210938 44.951080322265625 119.14132690429688 60.23394775390625 119.55438232421876 71.38630676269531 119.55438232421876 82.95172119140625 119.55438232421876 133.34385681152344 119.14132690429688 144.08316040039063 116.66302490234376 168.04006958007813 116.66302490234376 168.04006958007813 " />
        <polyline stroke="black" stroke-width="3" stroke-linecap="round" fill="transparent" stroke-linejoin="round" points="55.94464111328125 203.14935302734375 73.705810546875 194.47528076171875 94.7713623046875 186.6273193359375 106.33676147460938 182.90988159179688 117.48910522460938 180.01852416992188 136.48944091796875 176.3010711669922 151.7723388671875 174.23582458496094 160.859375 172.99667358398438 164.98992919921875 172.99667358398438 165.8160400390625 172.99667358398438 165.8160400390625 172.99667358398438 " />
        <polyline stroke="black" stroke-width="3" stroke-linecap="round" fill="transparent" stroke-linejoin="round" points="141.85910034179688 163.90957641601563 132.35894775390625 170.93142700195313 124.92404174804688 179.60546875 110.05419921875 198.1927490234375 100.14105224609376 213.06256103515625 93.94525146484376 222.56271362304688 90.227783203125 227.10626220703125 88.9886474609375 227.519287109375 88.57562255859375 225.8670959472656 91.05392456054688 220.9105224609375 97.24969482421876 214.7147521972656 111.7064208984375 208.9320373535156 131.94589233398438 207.27984619140625 153.011474609375 210.584228515625 172.4248046875 217.19305419921875 180.685791015625 221.73660278320313 196.7947998046875 233.71505737304688 196.7947998046875 233.71505737304688 " />
        </svg>