<?xml version="1.0" standalone="no"?>
    <svg width="256" height="256" xmlns="http://www.w3.org/2000/svg" version="1.1">
    <polyline stroke="black" stroke-width="3" stroke-linecap="round" fill="transparent" stroke-linejoin="round" points="83.239501953125 58.0767822265625 83.239501953125 66.14779663085938 83.239501953125 74.21881103515625 83.239501953125 77.58171081542969 82.56689453125 81.9534912109375 81.89434814453125 84.30755615234375 81.22177124023438 85.6527099609375 80.88546752929688 85.6527099609375 80.88546752929688 84.30755615234375 82.9031982421875 79.93574523925781 87.61129760742188 71.86474609375 95.68231201171876 62.1123046875 109.47021484375 51.014671325683594 125.94854736328124 41.26222229003906 139.40020751953125 35.881553649902344 149.15264892578125 34.200096130371094 154.5333251953125 34.53639221191406 156.551025390625 35.881553649902344 155.87847900390625 42.607383728027344 145.11715698242188 56.73162841796875 122.24932861328124 73.88250732421875 101.06295776367188 84.30755615234375 88.62017822265625 88.6793212890625 83.239501953125 90.3607940673828 81.89434814453125 90.69708251953124 82.23065185546875 90.02449035644531 83.912109375 89.015625 102.07183837890624 79.93574523925781 120.90414428710938 71.52845764160156 129.647705078125 69.17442321777344 129.647705078125 69.17442321777344 " />
        <polyline stroke="black" stroke-width="3" stroke-linecap="round" fill="transparent" stroke-linejoin="round" points="102.74441528320313 111.21087646484376 100.390380859375 114.23748779296876 98.03634643554688 117.26409912109376 94.33712768554688 121.63589477539063 91.64678955078124 124.9988250732422 89.96533203125 127.01657104492188 88.95648193359375 128.0254364013672 89.292724609375 127.68914794921876 90.97421264648438 126.34397888183594 99.38153076171876 120.62701416015624 112.83319091796876 111.54714965820313 119.895263671875 107.51165771484376 136.37353515625 100.78581237792967 142.42681884765625 99.440673828125 144.444580078125 100.11325073242188 144.444580078125 102.46728515625 133.6832275390625 120.29074096679688 118.55014038085938 132.7335205078125 104.42587280273438 141.4770965576172 95.68231201171876 145.848876953125 91.64678955078124 147.53033447265625 90.63790893554688 147.53033447265625 92.991943359375 146.1851806640625 106.10736083984376 139.79563903808594 116.196044921875 134.41497802734375 137.38241577148438 121.2996063232422 137.38241577148438 121.2996063232422 " />
        <polyline stroke="black" stroke-width="3" stroke-linecap="round" fill="transparent" stroke-linejoin="round" points="126.95745849609371 35.20896911621094 125.94854736328124 45.29771423339844 124.93963623046876 55.38645935058594 122.921875 79.93574523925781 121.24044799804688 102.80357360839844 120.56787109375 123.65365600585938 118.88641357421876 144.50372314453125 115.85980224609376 164.34494018554688 115.85980224609376 164.34494018554688 " />
        <polyline stroke="black" stroke-width="3" stroke-linecap="round" fill="transparent" stroke-linejoin="round" points="72.141845703125 187.549072265625 79.540283203125 186.20388793945313 86.938720703125 184.85870361328125 135.36468505859375 172.75222778320313 159.57769775390625 164.00863647460938 159.57769775390625 164.00863647460938 " />
        <polyline stroke="black" stroke-width="3" stroke-linecap="round" fill="transparent" stroke-linejoin="round" points="148.4801025390625 150.22067260742188 142.76312255859375 154.9287567138672 137.046142578125 159.6368408203125 125.61224365234376 170.73446655273438 120.56787109375 175.77883911132813 115.52349853515624 181.15951538085935 102.744384765625 196.62893676757813 95.68231201171876 206.38137817382813 90.97421264648438 213.77981567382813 89.6290283203125 215.46124267578125 89.6290283203125 215.46124267578125 " />
        <polyline stroke="black" stroke-width="3" stroke-linecap="round" fill="transparent" stroke-linejoin="round" points="101.06292724609378 210.08056640625 118.88641357421876 211.42575073242188 136.70989990234375 212.77093505859375 158.56884765625 216.80642700195313 170.67529296875 220.1693115234375 181.100341796875 224.204833984375 181.100341796875 224.204833984375 " />
        </svg>