<?xml version="1.0" standalone="no"?>
    <svg width="256" height="256" xmlns="http://www.w3.org/2000/svg" version="1.1">
    <polyline stroke="black" stroke-width="3" stroke-linecap="round" fill="transparent" stroke-linejoin="round" points="98.95465087890624 46.682823181152344 108.19351196289063 40.90852355957031 116.27752685546876 36.289085388183594 123.2066650390625 32.24707794189453 127.24868774414063 30.51478576660156 127.24868774414063 32.24707794189453 124.36154174804688 38.59880828857422 113.390380859375 58.231414794921875 91.44805908203124 95.7643585205078 78.74459838867188 118.86154174804688 66.61856079101563 139.64901733398438 57.957122802734375 156.3944854736328 55.069976806640625 163.32363891601563 53.337677001953125 168.5205078125 53.337677001953125 170.25279235839844 55.069976806640625 168.5205078125 58.5345458984375 162.1687774658203 64.88629150390625 146.5781707763672 71.23800659179688 131.56500244140625 78.16717529296875 117.70668029785156 83.364013671875 111.93238830566406 90.87060546875 106.1580810546875 102.41921997070313 98.07406616210938 115.70010375976563 92.29977416992188 129.55841064453125 87.68032836914063 145.14901733398438 84.21575927734375 163.04931640625 82.48347473144531 177.485107421875 82.48347473144531 191.3433837890625 83.63832092285156 199.42742919921875 85.94804382324219 205.20172119140625 89.99005126953125 210.97601318359375 100.3837890625 214.4405517578125 121.1712646484375 210.97601318359375 144.26844787597656 202.8919677734375 166.7882080078125 193.07568359375 185.8433837890625 183.2593994140625 199.70172119140625 173.44305419921875 208.94058227539065 160.7396240234375 215.8697509765625 148.03616333007813 216.4471740722656 137.64242553710938 211.8277282714844 128.403564453125 200.27914428710935 119.1646728515625 179.49166870117188 119.1646728515625 179.49166870117188 " />
        <polyline stroke="black" stroke-width="3" stroke-linecap="round" fill="transparent" stroke-linejoin="round" points="119.1646728515625 102.69351196289063 114.54522705078124 118.86154174804688 108.19351196289063 139.64901733398438 103.57406616210938 155.81704711914063 96.6448974609375 177.18194580078125 95.49005126953124 181.2239532470703 96.6448974609375 181.2239532470703 100.1094970703125 177.18194580078125 100.1094970703125 177.18194580078125 " />
        <polyline stroke="black" stroke-width="3" stroke-linecap="round" fill="transparent" stroke-linejoin="round" points="146.88128662109375 121.1712646484375 133.02301025390625 155.2396240234375 124.36154174804688 178.91424560546875 118.58724975585938 197.96942138671875 115.1226806640625 216.4471740722656 115.1226806640625 216.4471740722656 " />
        </svg>