<?xml version="1.0" standalone="no"?>
    <svg width="256" height="256" xmlns="http://www.w3.org/2000/svg" version="1.1">
    <polyline stroke="black" stroke-width="3" stroke-linecap="round" fill="transparent" stroke-linejoin="round" points="80.3828125 89.45967102050781 89.17572021484375 85.01121520996094 100.12777709960938 79.7823486328125 112.51058959960938 74.78758239746094 125.23159790039063 70.39114379882813 135.24713134765625 67.50355529785156 143.77984619140625 65.47444152832031 151.40203857421875 64.5899658203125 158.29583740234375 63.9395751953125 163.2646484375 63.36726379394531 166.62042236328125 63.88755798339844 167.40087890625 63.54936218261719 167.40087890625 63.54936218261719 " />
        <polyline stroke="black" stroke-width="3" stroke-linecap="round" fill="transparent" stroke-linejoin="round" points="118.2337646484375 90.0059814453125 118.38983154296876 106.6811981201172 118.5458984375 116.9568328857422 118.780029296875 126.9984130859375 118.67596435546876 136.67572021484375 119.17025756835938 146.92538452148438 120.52301025390624 157.0970001220703 121.97976684570313 165.94187927246094 122.78622436523438 172.6796112060547 122.99432373046876 178.84500122070313 123.56668090820313 183.9698181152344 123.64471435546876 185.50469970703125 123.64471435546876 186.623291015625 123.61871337890624 186.72738647460935 123.54067993164063 186.98748779296875 123.02035522460938 188.3402404785156 122.23992919921876 188.964599609375 120.80914306640624 186.75338745117188 117.843505859375 182.38294982910156 114.12347412109376 177.31015014648438 110.429443359375 169.8440704345703 110.429443359375 169.8440704345703 110.429443359375 169.8440704345703 " />
        <polyline stroke="black" stroke-width="3" stroke-linecap="round" fill="transparent" stroke-linejoin="round" points="89.09765625 115.5000457763672 98.0726318359375 120.52082824707033 104.16000366210938 126.9723663330078 106.26715087890624 130.9005584716797 106.26715087890624 130.9005584716797 " />
        <polyline stroke="black" stroke-width="3" stroke-linecap="round" fill="transparent" stroke-linejoin="round" points="79.4462890625 157.0449676513672 86.9124755859375 150.59339904785156 95.60122680664063 143.95974731445313 105.30462646484376 137.0659637451172 112.92681884765624 130.40628051757813 121.19940185546876 124.08479309082033 129.44595336914063 117.91937255859376 129.44595336914063 117.91937255859376 " />
        <polyline stroke="black" stroke-width="3" stroke-linecap="round" fill="transparent" stroke-linejoin="round" points="147.26571655273438 94.74058532714844 137.82254028320313 101.37425231933594 132.87982177734375 105.1203155517578 128.01510620117188 108.71029663085938 123.462646484375 112.4043426513672 120.10678100585938 115.447998046875 117.81747436523438 118.15350341796876 116.95904541015624 119.79241943359376 116.6728515625 120.72892761230467 116.6728515625 120.72892761230467 " />
        <polyline stroke="black" stroke-width="3" stroke-linecap="round" fill="transparent" stroke-linejoin="round" points="129.83612060546875 122.4198760986328 140.345947265625 128.42918395996094 152.9368896484375 135.2449493408203 164.72137451171875 141.87860107421875 174.9190673828125 148.7463836669922 180.59014892578125 152.6485595703125 185.37677001953125 156.13446044921875 188.83673095703125 158.3717041015625 192.45269775390625 160.270751953125 197.2913818359375 162.8721923828125 197.2913818359375 162.8721923828125 " />
        </svg>