<?xml version="1.0" standalone="no"?>
    <svg width="256" height="256" xmlns="http://www.w3.org/2000/svg" version="1.1">
    <polyline stroke="black" stroke-width="3" stroke-linecap="round" fill="transparent" stroke-linejoin="round" points="19.51077705653904 119.20252996926766 19.829593112593894 121.43424236165194 23.974201841307604 120.79661024954214 30.350522962405535 117.92726574504806 39.915004644052374 113.1450249042246 52.03001477413852 107.08751983918155 64.46384096027953 101.66764688624828 76.89766714642053 95.29132576515036 87.73741305228702 88.27737253194263 95.3889983976045 83.81394774717407 98.25834290209856 82.53868352295447 98.25834290209856 82.53868352295447 " />
        <polyline stroke="black" stroke-width="3" stroke-linecap="round" fill="transparent" stroke-linejoin="round" points="64.14502490422456 43.00549257214723 63.18857673605987 48.425365525080494 63.18857673605987 59.90274354305677 63.18857673605987 68.51077705653901 63.18857673605987 78.07525873818591 60.95686434367565 100.39238266202872 56.493439558907085 123.9847708100911 51.07356660597384 144.0701823415496 45.33487759698562 161.28624936851406 39.27737253194266 174.67652372281975 34.17631563506427 184.24100540446665 30.031706906350564 190.9361425816195 30.031706906350564 190.9361425816195 " />
        <polyline stroke="black" stroke-width="3" stroke-linecap="round" fill="transparent" stroke-linejoin="round" points="64.14502490422456 114.7391051844991 67.33318546477358 120.15897813743234 73.39069052981665 126.53529925853027 76.89766714642053 130.04227587513415 81.04227587513412 134.8245167159576 88.37504516439674 143.11373417338493 96.02663050971432 151.08413557475737 102.40295163081224 157.77927275191018 106.228744303471 162.24269753667875 108.46045669585531 164.47440992906303 109.09808880796504 166.38730626539245 109.09808880796504 166.38730626539245 " />
        <polyline stroke="black" stroke-width="3" stroke-linecap="round" fill="transparent" stroke-linejoin="round" points="28.437626626076167 63.728536215715565 29.07525873818588 68.8295931125939 33.219867466899586 74.56828212158206 36.408028027448495 77.43762662607614 40.233820700107344 80.6257871866251 40.233820700107344 80.6257871866251 " />
        <polyline stroke="black" stroke-width="3" stroke-linecap="round" fill="transparent" stroke-linejoin="round" points="87.73741305228702 51.93234214168436 82.63635615540863 56.07695087039801 79.76701165091458 65.32261649599005 77.85411531458521 71.69893761708798 77.85411531458521 71.69893761708798 " />
        <polyline stroke="black" stroke-width="3" stroke-linecap="round" fill="transparent" stroke-linejoin="round" points="123.4448113304354 53.84523847801374 126.95178794703928 53.20760636590394 136.8350856847411 50.657077917464775 149.90654398299193 46.83128524480601 161.7027380570231 43.00549257214723 169.3543234023407 41.09259623581785 174.13656424316412 40.454964123708066 176.04946057949348 40.454964123708066 176.6870926916033 41.09259623581785 176.6870926916033 45.556021020586414 170.31077157050538 55.75813481434312 159.15220960858392 71.38012156103309 146.39956736638806 88.59618858799752 133.96574118024705 103.89935927863256 124.72007555465508 115.05792124055398 118.34375443355714 122.39069052981662 113.5615135927336 127.17293137064009 112.28624936851406 129.08582770696947 112.28624936851406 129.08582770696947 " />
        <polyline stroke="black" stroke-width="3" stroke-linecap="round" fill="transparent" stroke-linejoin="round" points="133.00929301208237 70.1048573368135 135.2410054044667 73.61183395341737 141.2985104695097 79.03170690635062 145.44311919822337 82.53868352295447 149.90654398299193 86.68329225166815 159.78984172069374 94.01606154093076 164.89089861757213 96.88540604542484 164.89089861757213 96.88540604542484 " />
        <polyline stroke="black" stroke-width="3" stroke-linecap="round" fill="transparent" stroke-linejoin="round" points="122.48836316227072 128.76701165091455 127.27060400309426 130.04227587513415 138.11034990896076 128.44819559485967 152.45707243143113 125.5788510903656 165.52853072968185 123.9847708100911 176.04946057949348 123.6659547540362 183.70104592481096 123.6659547540362 185.61394226114044 123.9847708100911 185.9327583171953 125.89766714642047 182.74459775664627 132.27398826751843 174.13656424316412 143.43255022943984 162.34037016913294 158.41690486401998 148.31246370271742 174.99533977887464 135.2410054044667 190.61732652556455 123.76362738649038 204.96404904803495 115.15559387300812 214.5285307296819 109.73572092007488 219.31077157050532 107.50400852769064 219.94840368261515 107.18519247163567 218.99195551445047 107.18519247163567 218.99195551445047 " />
        <polyline stroke="black" stroke-width="3" stroke-linecap="round" fill="transparent" stroke-linejoin="round" points="140.9796944134548 148.53360712631817 136.8350856847411 155.86637641558082 136.8350856847411 160.96743331245918 136.8350856847411 165.74967415328263 137.15390174079607 176.58942005914912 140.02324624529012 186.79153385290584 144.80548708611354 196.67483159060765 151.50062426326645 205.6016811601448 160.1086577767486 213.2532665054623 171.26721973867006 218.67313945839555 183.70104592481096 222.18011607499943 195.17842394278728 222.8177481871092 205.6993537925989 222.8177481871092 214.3073873060812 222.8177481871092 220.6837084271791 222.8177481871092 225.46594926800253 222.4989321310543 228.01647771644173 221.5424839628896 229.61055799671624 221.2236679068347 230.24819010882595 220.90485185077983 230.24819010882595 220.58603579472492 230.24819010882595 220.26721973867 230.24819010882595 219.94840368261515 230.24819010882595 219.62958762656024 230.24819010882595 219.31077157050532 230.24819010882595 218.99195551445047 229.29174194066127 213.2532665054623 223.871868987728 200.18180820721153 217.4955478666301 185.83508568474116 213.3509391379165 178.8211324515334 213.3509391379165 178.8211324515334 " />
        <polyline stroke="black" stroke-width="3" stroke-linecap="round" fill="transparent" stroke-linejoin="round" points="184.9763101490306 154.90992824741613 188.4832867656345 158.0980888079651 196.13487211095196 161.60506542456895 201.5547450638852 163.83677781695323 206.97461801681845 166.0684902093375 217.81436392268495 171.48836316227076 217.81436392268495 171.48836316227076 " />
        </svg>