<?xml version="1.0" standalone="no"?>
    <svg width="256" height="256" xmlns="http://www.w3.org/2000/svg" version="1.1">
    <polyline stroke="black" stroke-width="3" stroke-linecap="round" fill="transparent" stroke-linejoin="round" points="62.73828125 87.66950988769531 68.42242431640625 90.11727905273438 78.38525390625 92.33349609375 88.84921264648438 89.5994873046875 90.681640625 88.37919616699219 " />
        <polyline stroke="black" stroke-width="3" stroke-linecap="round" fill="transparent" stroke-linejoin="round" points="96.34689331054688 89.75251770019531 92.84527587890624 106.67588806152344 81.27911376953125 137.75 64.433837890625 170.63206481933594 55.797119140625 185.0540771484375 39.763641357421875 205.72796630859375 40.03839111328125 204.03179931640625 " />
        <polyline stroke="black" stroke-width="3" stroke-linecap="round" fill="transparent" stroke-linejoin="round" points="54.7490234375 135.838623046875 62.359130859375 142.65225219726563 71.5028076171875 150.97854614257813 93.5120849609375 170.76214599609375 100.65658569335938 176.638916015625 111.446533203125 183.3653259277344 113.53173828125 184.2679443359375 113.740234375 184.35821533203125 " />
        <polyline stroke="black" stroke-width="3" stroke-linecap="round" fill="transparent" stroke-linejoin="round" points="117.02621459960938 98.41351318359376 117.07821655273438 117.06651306152344 116.33554077148438 136.50926208496094 113.49163818359376 167.82456970214844 111.39682006835938 178.8905029296875 107.767822265625 189.9642639160156 107.5811767578125 190.5203857421875 " />
        <polyline stroke="black" stroke-width="3" stroke-linecap="round" fill="transparent" stroke-linejoin="round" points="130.4814453125 159.10626220703125 136.536865234375 163.02032470703125 145.018310546875 170.3104705810547 148.11224365234375 175.34234619140625 148.803466796875 176.08599853515625 " />
        <polyline stroke="black" stroke-width="3" stroke-linecap="round" fill="transparent" stroke-linejoin="round" points="178.86151123046875 86.43634033203125 176.6773681640625 114.31668090820313 168.5465087890625 126.9910888671875 155.12982177734375 151.33309936523438 151.96246337890625 160.12606811523438 147.6092529296875 171.43023681640625 147.1739501953125 172.56065368652344 " />
        <polyline stroke="black" stroke-width="3" stroke-linecap="round" fill="transparent" stroke-linejoin="round" points="182.06817626953125 153.9747314453125 192.8331298828125 168.36062622070313 199.3931884765625 177.26739501953125 211.828369140625 190.87567138671875 216.3388671875 197.38699340820313 215.6611328125 196.7952880859375 " />
        </svg>