<?xml version="1.0" standalone="no"?>
    <svg width="256" height="256" xmlns="http://www.w3.org/2000/svg" version="1.1">
    <polyline stroke="black" stroke-width="3" stroke-linecap="round" fill="transparent" stroke-linejoin="round" points="43.093719482421875 100.55239868164063 54.5677490234375 109.81993103027344 60.746124267578125 112.90908813476563 60.746124267578125 112.90908813476563 " />
        <polyline stroke="black" stroke-width="3" stroke-linecap="round" fill="transparent" stroke-linejoin="round" points="92.52047729492188 79.3695068359375 79.28115844726563 117.76351928710938 69.57235717773438 155.71621704101563 58.539581298828125 192.78631591796875 52.3612060546875 210.438720703125 46.624176025390625 220.1475524902344 46.624176025390625 220.1475524902344 " />
        <polyline stroke="black" stroke-width="3" stroke-linecap="round" fill="transparent" stroke-linejoin="round" points="34.70880126953125 140.2703399658203 54.5677490234375 162.33587646484375 73.10281372070313 183.07748413085935 84.576904296875 194.99285888671875 93.84442138671876 202.0538024902344 98.25753784179688 204.2603759765625 98.25753784179688 204.2603759765625 " />
        <polyline stroke="black" stroke-width="3" stroke-linecap="round" fill="transparent" stroke-linejoin="round" points="120.76434326171876 90.40225219726563 116.35122680664063 129.23757934570313 111.9381103515625 166.30767822265625 105.75979614257813 198.08203125 101.3466796875 218.38232421875 101.3466796875 218.38232421875 " />
        <polyline stroke="black" stroke-width="3" stroke-linecap="round" fill="transparent" stroke-linejoin="round" points="136.210205078125 168.9555206298828 142.38858032226563 173.80995178222656 142.38858032226563 173.80995178222656 " />
        <polyline stroke="black" stroke-width="3" stroke-linecap="round" fill="transparent" stroke-linejoin="round" points="181.223876953125 93.05014038085938 171.95635986328125 142.918212890625 165.77801513671875 189.25582885742188 159.59967041015625 225.4432678222656 156.9517822265625 236.47604370117188 156.9517822265625 236.47604370117188 " />
        <polyline stroke="black" stroke-width="3" stroke-linecap="round" fill="transparent" stroke-linejoin="round" points="198.43499755859375 154.83360290527344 217.411376953125 182.63616943359375 234.18115234375 206.90823364257813 249.1856689453125 225.00198364257813 262.42498779296875 234.71078491210935 262.42498779296875 234.71078491210935 " />
        </svg>