<?xml version="1.0" standalone="no"?>
    <svg width="256" height="256" xmlns="http://www.w3.org/2000/svg" version="1.1">
    <polyline stroke="black" stroke-width="3" stroke-linecap="round" fill="transparent" stroke-linejoin="round" points="84.2000732421875 67.4666748046875 " />
        <polyline stroke="black" stroke-width="3" stroke-linecap="round" fill="transparent" stroke-linejoin="round" points="84 67 " />
        <polyline stroke="black" stroke-width="3" stroke-linecap="round" fill="transparent" stroke-linejoin="round" points="91.666748046875 87.73333740234375 93.80010986328124 88.80000305175781 94.86669921875 89.86669921875 95.93341064453124 89.86669921875 95.93341064453124 89.86669921875 " />
        <polyline stroke="black" stroke-width="3" stroke-linecap="round" fill="transparent" stroke-linejoin="round" points="102.3333740234375 89.86669921875 91.666748046875 126.1333465576172 85.2667236328125 142.1333465576172 71.4000244140625 174.1333465576172 51.1334228515625 213.6000061035156 41.53338623046875 230.66668701171875 36.2000732421875 230.66668701171875 36.2000732421875 230.66668701171875 " />
        <polyline stroke="black" stroke-width="3" stroke-linecap="round" fill="transparent" stroke-linejoin="round" points="78.86669921875 154.93336486816406 97.00006103515624 166.6666717529297 109.80010986328124 173.06671142578125 111.93341064453124 174.1333465576172 111.93341064453124 174.1333465576172 " />
        <polyline stroke="black" stroke-width="3" stroke-linecap="round" fill="transparent" stroke-linejoin="round" points="143.933349609375 83.4666748046875 137.533447265625 124.00001525878906 133.2667236328125 147.4666748046875 125.80010986328124 169.86668395996094 124.7333984375 174.1333465576172 122.60003662109376 164.53334045410156 122.60003662109376 164.53334045410156 " />
        <polyline stroke="black" stroke-width="3" stroke-linecap="round" fill="transparent" stroke-linejoin="round" points="159.933349609375 130.40003967285156 163.1334228515625 129.33334350585938 167.4000244140625 125.06671142578124 167.4000244140625 125.06671142578124 " />
        <polyline stroke="black" stroke-width="3" stroke-linecap="round" fill="transparent" stroke-linejoin="round" points="194.0667724609375 65.33334350585938 178.0667724609375 137.86668395996094 171.666748046875 156.00001525878906 165.2667236328125 172.00001525878906 151.4000244140625 208.2666931152344 148.2000732421875 217.86666870117188 146.0667724609375 216.80001831054688 146.0667724609375 216.80001831054688 " />
        <polyline stroke="black" stroke-width="3" stroke-linecap="round" fill="transparent" stroke-linejoin="round" points="200.4666748046875 163.4666748046875 220.7333984375 180.53335571289065 247.4000244140625 201.86666870117188 260.2000732421875 214.66668701171875 260.2000732421875 214.66668701171875 " />
        </svg>