<?xml version="1.0" standalone="no"?>
    <svg width="256" height="256" xmlns="http://www.w3.org/2000/svg" version="1.1">
    <polyline stroke="black" stroke-width="3" stroke-linecap="round" fill="transparent" stroke-linejoin="round" points="117 94 116 101 111 114 103 131 94 151 84 172 76 191 70 205 65 214 62 220 59 223 57 224 57 224 " />
        <polyline stroke="black" stroke-width="3" stroke-linecap="round" fill="transparent" stroke-linejoin="round" points="71 135 76 140 84 148 95 156 104 163 112 168 118 171 123 174 127 175 128 176 128 176 " />
        <polyline stroke="black" stroke-width="3" stroke-linecap="round" fill="transparent" stroke-linejoin="round" points="103 110 103 110 " />
        <polyline stroke="black" stroke-width="3" stroke-linecap="round" fill="transparent" stroke-linejoin="round" points="162 79 161 87 157 102 150 123 140 151 131 177 124 196 117 213 113 224 111 230 109 234 108 236 108 236 " />
        <polyline stroke="black" stroke-width="3" stroke-linecap="round" fill="transparent" stroke-linejoin="round" points="144 175 150 180 156 185 161 189 166 191 171 192 178 192 178 192 " />
        <polyline stroke="black" stroke-width="3" stroke-linecap="round" fill="transparent" stroke-linejoin="round" points="209 62 209 69 209 79 206 98 196 127 181 159 170 186 164 204 159 218 155 227 151 233 151 233 " />
        <polyline stroke="black" stroke-width="3" stroke-linecap="round" fill="transparent" stroke-linejoin="round" points="193 148 198 153 206 161 216 173 224 183 233 188 240 191 240 191 " />
        </svg>