<?xml version="1.0" standalone="no"?>
    <svg width="256" height="256" xmlns="http://www.w3.org/2000/svg" version="1.1">
    <polyline stroke="black" stroke-width="3" stroke-linecap="round" fill="transparent" stroke-linejoin="round" points="78.376220703125 45.48927307128906 76.16778564453125 59.181640625 75.284423828125 65.80696105957031 74.40106201171875 72.43229675292969 72.63427734375 86.56634521484375 71.75091552734375 92.75 70.86752319335938 103.35055541992188 70.86752319335938 112.18431091308594 70.86752319335938 118.80963134765624 71.75091552734375 123.22654724121094 73.95932006835938 125.87667846679688 80.14300537109375 128.52682495117188 92.95196533203124 129.41018676757813 109.29443359375 128.96849060058594 126.52032470703124 125.87667846679688 141.53778076171875 121.01809692382813 153.905029296875 115.27615356445313 162.73883056640625 108.65080261230467 166.71405029296875 104.23391723632813 166.71405029296875 104.23391723632813 " />
        <polyline stroke="black" stroke-width="3" stroke-linecap="round" fill="transparent" stroke-linejoin="round" points="165.8306884765625 55.2064208984375 167.15570068359375 65.80696105957031 167.597412109375 70.66554260253906 167.597412109375 76.84918212890625 164.505615234375 93.63336181640624 158.76361083984375 105.11727905273438 155.2301025390625 111.30094909667967 155.2301025390625 111.30094909667967 " />
        <polyline stroke="black" stroke-width="3" stroke-linecap="round" fill="transparent" stroke-linejoin="round" points="110.17782592773438 44.60588836669922 112.82797241210938 61.39007568359375 113.2696533203125 72.87399291992188 112.82797241210938 86.12466430664063 111.50289916992188 102.90884399414063 109.73617553710938 119.2513427734375 103.552490234375 156.3531951904297 94.71871948242188 192.57171630859375 86.32662963867188 223.931640625 86.32662963867188 223.931640625 " />
        </svg>