<?xml version="1.0" standalone="no"?>
    <svg width="256" height="256" xmlns="http://www.w3.org/2000/svg" version="1.1">
    <polyline stroke="black" stroke-width="3" stroke-linecap="round" fill="transparent" stroke-linejoin="round" points="143.14169311523438 59.818634033203125 136.43060302734375 71.26701354980469 132.08807373046875 77.9781494140625 126.16650390625 85.87359619140625 118.66586303710938 94.95335388183594 110.77035522460938 103.24357604980467 93.005615234375 119.42922973632813 78.0042724609375 130.48284912109375 72.08270263671875 133.2462615966797 72.08270263671875 133.2462615966797 " />
        <polyline stroke="black" stroke-width="3" stroke-linecap="round" fill="transparent" stroke-linejoin="round" points="72.47747802734375 98.1115264892578 81.95199584960938 106.7965087890625 88.26837158203125 110.74424743652344 94.9794921875 115.08673095703124 111.5599365234375 123.376953125 129.32470703125 130.08807373046875 137.61492919921875 132.4567108154297 152.221435546875 136.00967407226563 158.9326171875 136.4044189453125 158.9326171875 136.4044189453125 " />
        <polyline stroke="black" stroke-width="3" stroke-linecap="round" fill="transparent" stroke-linejoin="round" points="175.5130615234375 130.08807373046875 159.327392578125 142.72079467773438 150.24761962890625 150.22146606445313 129.71945190429688 166.01235961914063 119.85015869140624 173.11825561523438 101.69061279296876 185.356201171875 88.26837158203125 192.06732177734375 78.3990478515625 195.62026977539065 78.3990478515625 195.62026977539065 " />
        <polyline stroke="black" stroke-width="3" stroke-linecap="round" fill="transparent" stroke-linejoin="round" points="79.9781494140625 154.95872497558594 101.69061279296876 163.2489471435547 120.24493408203124 171.14439392089844 129.71945190429688 175.48687744140625 148.66851806640625 183.38232421875 162.09075927734375 188.90914916992188 169.9862060546875 191.67254638671875 169.9862060546875 191.67254638671875 " />
        <polyline stroke="black" stroke-width="3" stroke-linecap="round" fill="transparent" stroke-linejoin="round" points="58.26568603515625 100.87492370605467 52.738861083984375 129.29852294921875 52.344085693359375 141.14170837402344 51.949310302734375 152.1953125 53.133636474609375 174.69732666015625 57.08135986328125 191.67254638671875 63.79248046875 205.09478759765625 73.26702880859375 214.174560546875 89.45269775390625 222.85955810546875 109.19134521484376 227.2020263671875 132.87762451171875 226.80728149414065 157.353515625 222.07000732421875 169.1966552734375 218.51705932617188 187.356201171875 210.62161254882813 199.1993408203125 201.1470947265625 204.7261962890625 194.83071899414065 204.7261962890625 194.83071899414065 " />
        <polyline stroke="black" stroke-width="3" stroke-linecap="round" fill="transparent" stroke-linejoin="round" points="207.0948486328125 86.66313171386719 205.5157470703125 96.92721557617188 204.3314208984375 105.61221313476563 203.5418701171875 114.69195556640624 202.3575439453125 136.7991943359375 201.5679931640625 159.30120849609375 200.3836669921875 180.61892700195313 196.83074951171875 202.33139038085935 196.83074951171875 202.33139038085935 " />
        </svg>