<?xml version="1.0" standalone="no"?>
    <svg width="256" height="256" xmlns="http://www.w3.org/2000/svg" version="1.1">
    <polyline stroke="black" stroke-width="3" stroke-linecap="round" fill="transparent" stroke-linejoin="round" points="147.34420776367188 46.184532165527344 128.46575927734375 58.65940856933594 120.48190307617188 65.76068115234375 111.6318359375 74.97503662109375 95.841552734375 93.04022216796876 88.32699584960938 101.9807586669922 80.083984375 109.8258056640625 79.87997436523438 109.96548461914063 " />
        <polyline stroke="black" stroke-width="3" stroke-linecap="round" fill="transparent" stroke-linejoin="round" points="77.36044311523438 62.869415283203125 108.32366943359376 68.426513671875 119.725341796875 71.83935546875 141.11614990234375 80.96047973632813 148.9921875 84.98175048828125 157.0537109375 89.28805541992188 157.8125 90.37364196777344 157.53515625 91.14157104492188 157.4842529296875 91.28262329101563 " />
        <polyline stroke="black" stroke-width="3" stroke-linecap="round" fill="transparent" stroke-linejoin="round" points="138.53829956054688 108.7528076171875 123.9136962890625 128.43588256835938 107.87289428710938 155.78305053710938 100.388916015625 167.6515350341797 87.70330810546875 184.63116455078125 83.13510131835938 189.27716064453125 80.9127197265625 189.51373291015625 80.71200561523438 189.5350341796875 " />
        <polyline stroke="black" stroke-width="3" stroke-linecap="round" fill="transparent" stroke-linejoin="round" points="86.62982177734375 134.24362182617188 107.54953002929688 140.78924560546875 116.00021362304688 144.95217895507813 136.0335693359375 154.68728637695313 144.171875 159.53782653808594 155.52532958984375 167.33773803710938 157.33447265625 168.8292236328125 155.33740234375 170.63511657714844 154.8525390625 170.86038208007813 " />
        <polyline stroke="black" stroke-width="3" stroke-linecap="round" fill="transparent" stroke-linejoin="round" points="53.26007080078125 91.60447692871094 60.819305419921875 121.30606079101563 63.04498291015625 136.9270477294922 65.05160522460938 169.77256774902344 64.87850952148438 182.16986083984375 63.75897216796875 202.0067138671875 63.4251708984375 206.3704833984375 63.35107421875 209.70626831054688 62.889495849609375 210.08892822265625 62.793304443359375 210.16860961914065 62.802459716796875 210.3724670410156 63.06842041015625 210.58282470703125 63.50408935546875 210.77850341796875 64.75827026367188 211.12841796875 68.10140991210938 211.4981689453125 72.044189453125 211.4159240722656 88.00341796875 209.3111572265625 97.38800048828124 207.91360473632813 118.52874755859376 205.97955322265625 129.69091796875 205.58023071289065 147.11029052734375 204.4373779296875 156.4912109375 203.290771484375 170.37493896484375 202.349853515625 178.4732666015625 202.793701171875 179.15838623046875 202.48468017578125 179.222412109375 202.455810546875 179.2275390625 202.4534912109375 " />
        <polyline stroke="black" stroke-width="3" stroke-linecap="round" fill="transparent" stroke-linejoin="round" points="183.03131103515625 48.03840637207031 179.4556884765625 83.08470153808594 174.10101318359375 160.44198608398438 172.2139892578125 183.77984619140625 171.9906005859375 188.94732666015625 172.64971923828125 196.01126098632813 170.94866943359375 203.07647705078125 170.84002685546875 203.19119262695313 " />
        </svg>