<?xml version="1.0" standalone="no"?>
    <svg width="256" height="256" xmlns="http://www.w3.org/2000/svg" version="1.1">
    <polyline stroke="black" stroke-width="3" stroke-linecap="round" fill="transparent" stroke-linejoin="round" points="72.63668823242188 81.5589599609375 72.63668823242188 101.84904479980467 72.175537109375 117.06658935546876 71.25326538085938 133.2064208984375 70.33099365234375 179.32022094726563 70.33099365234375 196.84347534179688 70.33099365234375 205.6051025390625 70.33099365234375 207.44964599609375 70.33099365234375 207.44964599609375 " />
        <polyline stroke="black" stroke-width="3" stroke-linecap="round" fill="transparent" stroke-linejoin="round" points="91.5433349609375 85.70919799804688 109.52777099609376 74.64189147949219 116.90594482421876 71.87506103515625 125.66757202148438 70.030517578125 134.42919921875 69.56936645507813 149.646728515625 72.33621215820313 163.48089599609375 79.71441650390625 174.5482177734375 91.24285888671876 184.23211669921875 111.07180786132813 187.92120361328125 138.2789306640625 181.004150390625 171.4808807373047 175.00933837890625 187.1595764160156 175.00933837890625 187.1595764160156 " />
        <polyline stroke="black" stroke-width="3" stroke-linecap="round" fill="transparent" stroke-linejoin="round" points="80.014892578125 169.63632202148438 93.84906005859376 155.80218505859375 100.76611328125 151.65194702148438 108.144287109375 147.50169372558594 123.822998046875 140.12350463867188 132.12350463867188 135.9732666015625 141.34628295898438 130.90072631835938 141.34628295898438 130.90072631835938 " />
        <polyline stroke="black" stroke-width="3" stroke-linecap="round" fill="transparent" stroke-linejoin="round" points="138.57943725585938 102.31016540527344 126.58984375 119.83341979980467 121.05621337890624 131.82302856445313 115.52255249023438 144.27374267578125 109.98886108398438 156.72447204589844 104.91635131835938 167.79177856445313 93.84906005859376 185.31500244140625 83.7039794921875 196.84347534179688 76.32577514648438 203.2994079589844 72.175537109375 206.52737426757813 70.7921142578125 207.44964599609375 72.63668823242188 207.44964599609375 86.00970458984375 204.2216796875 108.144287109375 197.7657470703125 133.04574584960938 193.15435791015625 161.1751708984375 192.6932373046875 161.1751708984375 192.6932373046875 " />
        </svg>