<?xml version="1.0" standalone="no"?>
    <svg width="256" height="256" xmlns="http://www.w3.org/2000/svg" version="1.1">
    <polyline stroke="black" stroke-width="3" stroke-linecap="round" fill="transparent" stroke-linejoin="round" points="95 116 98 143 99 158 99 173 99 184 100 194 100 196 100 195 100 195 " />
        <polyline stroke="black" stroke-width="3" stroke-linecap="round" fill="transparent" stroke-linejoin="round" points="102 118 120 108 131 103 142 100 152 97 156 96 158 96 159 96 160 96 160 98 160 104 162 125 163 141 163 156 163 166 163 173 163 176 163 174 163 174 " />
        <polyline stroke="black" stroke-width="3" stroke-linecap="round" fill="transparent" stroke-linejoin="round" points="123 99 125 118 126 124 128 129 129 145 129 152 129 157 129 160 128 161 128 161 " />
        <polyline stroke="black" stroke-width="3" stroke-linecap="round" fill="transparent" stroke-linejoin="round" points="103 155 122 148 134 143 145 140 151 139 153 138 152 140 152 140 " />
        <polyline stroke="black" stroke-width="3" stroke-linecap="round" fill="transparent" stroke-linejoin="round" points="100 194 116 190 127 186 138 183 148 182 154 181 157 180 158 180 156 181 156 181 " />
        </svg>