<?xml version="1.0" standalone="no"?>
    <svg width="256" height="256" xmlns="http://www.w3.org/2000/svg" version="1.1">
    <polyline stroke="black" stroke-width="3" stroke-linecap="round" fill="transparent" stroke-linejoin="round" points="69.1920166015625 116.9793701171875 69.80410766601563 153.09405517578125 70.41622924804688 165.9484405517578 71.64044189453125 175.74224853515625 72.86468505859375 181.2512664794922 72.86468505859375 181.2512664794922 " />
        <polyline stroke="black" stroke-width="3" stroke-linecap="round" fill="transparent" stroke-linejoin="round" points="67.35565185546875 109.63400268554688 77.14947509765625 102.9007568359375 91.22808837890624 94.3311767578125 108.36724853515624 84.537353515625 125.50640869140624 76.57987976074219 143.86981201171875 72.29508972167969 157.3363037109375 72.90721130371094 166.51800537109375 79.64045715332031 173.8634033203125 93.71905517578124 177.53607177734375 113.91880798339844 175.69970703125 135.3427734375 171.4149169921875 152.48194885253906 164.069580078125 163.49998474121094 152.439453125 170.2332305908203 152.439453125 170.2332305908203 " />
        <polyline stroke="black" stroke-width="3" stroke-linecap="round" fill="transparent" stroke-linejoin="round" points="107.755126953125 97.39173889160156 106.53091430664063 116.36724853515624 105.30670166015624 127.99740600585938 102.85821533203124 139.6275634765625 97.96133422851563 148.80926513671875 91.22808837890624 156.1546173095703 83.88272094726563 161.05152893066406 75.92523193359375 162.8878631591797 71.0283203125 162.8878631591797 71.0283203125 160.43942260742188 77.14947509765625 154.3182830810547 97.34921264648438 142.07601928710938 125.50640869140624 129.2216339111328 148.7667236328125 122.48838806152344 164.069580078125 120.03993225097656 170.80279541015625 120.03993225097656 173.8634033203125 120.6520538330078 170.190673828125 127.99740600585938 170.190673828125 127.99740600585938 " />
        <polyline stroke="black" stroke-width="3" stroke-linecap="round" fill="transparent" stroke-linejoin="round" points="77.14947509765625 172.6816864013672 98.57342529296876 169.00900268554688 116.93682861328124 164.72421264648438 138.972900390625 160.43942260742188 153.66363525390625 159.82730102539063 165.9058837890625 162.2757568359375 165.9058837890625 162.2757568359375 " />
        </svg>