<?xml version="1.0" standalone="no"?>
    <svg width="256" height="256" xmlns="http://www.w3.org/2000/svg" version="1.1">
    <polyline stroke="black" stroke-width="3" stroke-linecap="round" fill="transparent" stroke-linejoin="round" points="79 83 78 81 78 83 78 86 78 102 79 118 80 139 81 143 86 159 90 167 90 167 " />
        <polyline stroke="black" stroke-width="3" stroke-linecap="round" fill="transparent" stroke-linejoin="round" points="82 85 82 83 83 81 84 81 90 80 93 80 103 79 126 77 145 75 162 75 173 75 181 75 184 77 184 78 182 81 179 86 175 99 172 116 170 134 169 147 168 156 168 161 168 162 168 162 " />
        <polyline stroke="black" stroke-width="3" stroke-linecap="round" fill="transparent" stroke-linejoin="round" points="82 129 82 128 89 127 98 126 101 125 118 123 132 121 136 121 152 121 157 123 157 123 " />
        <polyline stroke="black" stroke-width="3" stroke-linecap="round" fill="transparent" stroke-linejoin="round" points="94 170 94 171 98 171 109 170 125 168 143 165 156 164 159 164 159 164 " />
        <polyline stroke="black" stroke-width="3" stroke-linecap="round" fill="transparent" stroke-linejoin="round" points="125 80 124 84 123 96 122 108 122 113 122 122 123 140 124 152 125 155 128 167 130 173 130 173 " />
        </svg>