<?xml version="1.0" standalone="no"?>
    <svg width="256" height="256" xmlns="http://www.w3.org/2000/svg" version="1.1">
    <polyline stroke="black" stroke-width="3" stroke-linecap="round" fill="transparent" stroke-linejoin="round" points="109.77777099609376 75.33332824707031 109.77777099609376 75.33332824707031 " />
        <polyline stroke="black" stroke-width="3" stroke-linecap="round" fill="transparent" stroke-linejoin="round" points="119.5555419921875 75.33332824707031 99.11114501953124 109.11111450195313 84 131.3333282470703 69.77777099609375 150.88890075683594 60.00006103515625 164.22222900390625 54.66668701171875 170.44447326660156 54.66668701171875 170.44447326660156 " />
        <polyline stroke="black" stroke-width="3" stroke-linecap="round" fill="transparent" stroke-linejoin="round" points="107.11114501953124 102.88888549804688 144.44451904296875 124.22224426269533 173.77777099609375 135.7777862548828 201.33331298828125 144.6666717529297 221.77777099609375 150.88890075683594 230.66668701171875 153.55555725097656 230.66668701171875 153.55555725097656 " />
        <polyline stroke="black" stroke-width="3" stroke-linecap="round" fill="transparent" stroke-linejoin="round" points="81.33331298828125 173.11111450195313 95.55560302734376 167.7777862548828 111.5555419921875 162.44444274902344 142.66668701171875 154.44444274902344 180.888916015625 147.3333282470703 192.4444580078125 146.4444580078125 194.22222900390625 146.4444580078125 192.4444580078125 147.3333282470703 192.4444580078125 147.3333282470703 " />
        <polyline stroke="black" stroke-width="3" stroke-linecap="round" fill="transparent" stroke-linejoin="round" points="108.88897705078124 156.22222900390625 107.11114501953124 175.7777862548828 106.22222900390624 193.5555725097656 106.22222900390624 198 110.66668701171876 198 116.888916015625 190.88888549804688 116.888916015625 190.88888549804688 " />
        <polyline stroke="black" stroke-width="3" stroke-linecap="round" fill="transparent" stroke-linejoin="round" points="146.22222900390625 151.7777862548828 146.22222900390625 166.88888549804688 143.5555419921875 181.11111450195313 143.5555419921875 181.11111450195313 " />
        <polyline stroke="black" stroke-width="3" stroke-linecap="round" fill="transparent" stroke-linejoin="round" points="138.22222900390625 190 146.22222900390625 188.2222595214844 160.4444580078125 185.5555725097656 166.666748046875 184.66665649414065 166.666748046875 184.66665649414065 " />
        </svg>