<?xml version="1.0" standalone="no"?>
    <svg width="256" height="256" xmlns="http://www.w3.org/2000/svg" version="1.1">
    <polyline stroke="black" stroke-width="3" stroke-linecap="round" fill="transparent" stroke-linejoin="round" points="108 50 109 58 113 66 118 76 123 81 123 81 " />
        <polyline stroke="black" stroke-width="3" stroke-linecap="round" fill="transparent" stroke-linejoin="round" points="157 48 155 58 143 78 125 105 105 134 84 158 67 176 55 188 47 193 47 193 " />
        <polyline stroke="black" stroke-width="3" stroke-linecap="round" fill="transparent" stroke-linejoin="round" points="98 97 116 99 125 103 143 110 159 119 171 126 178 132 181 135 181 136 181 136 " />
        <polyline stroke="black" stroke-width="3" stroke-linecap="round" fill="transparent" stroke-linejoin="round" points="69 179 75 177 95 169 123 160 155 156 180 155 198 155 210 155 215 156 216 157 216 157 " />
        <polyline stroke="black" stroke-width="3" stroke-linecap="round" fill="transparent" stroke-linejoin="round" points="103 156 103 179 103 198 104 214 108 222 111 222 111 222 " />
        <polyline stroke="black" stroke-width="3" stroke-linecap="round" fill="transparent" stroke-linejoin="round" points="155 144 155 167 155 185 155 197 155 200 155 200 " />
        <polyline stroke="black" stroke-width="3" stroke-linecap="round" fill="transparent" stroke-linejoin="round" points="108 210 115 209 130 205 152 203 173 203 184 203 184 203 " />
        </svg>