<?xml version="1.0" standalone="no"?>
    <svg width="256" height="256" xmlns="http://www.w3.org/2000/svg" version="1.1">
    <polyline stroke="black" stroke-width="3" stroke-linecap="round" fill="transparent" stroke-linejoin="round" points="84.23272705078125 60.509002685546875 85.06121826171875 65.48004150390625 85.88973999023438 69.62257385253906 87.13250732421875 76.66487121582031 87.54672241210938 81.63591003417969 87.13250732421875 85.7784423828125 87.13250732421875 86.60694885253906 87.13250732421875 86.60694885253906 " />
        <polyline stroke="black" stroke-width="3" stroke-linecap="round" fill="transparent" stroke-linejoin="round" points="95.00326538085938 46.010154724121094 102.04559326171876 42.69612884521485 111.15914916992188 39.382102966308594 119.85848999023438 36.482330322265625 137.67135620117188 31.925552368164063 145.54217529296875 30.68279266357422 157.9697265625 29.854293823242188 167.08331298828125 32.339805603027344 170.3973388671875 34.41106414794922 175.78265380859375 45.59590148925781 175.78265380859375 52.22395324707031 162.9407958984375 75.422119140625 156.72698974609375 81.63591003417969 156.72698974609375 81.63591003417969 " />
        <polyline stroke="black" stroke-width="3" stroke-linecap="round" fill="transparent" stroke-linejoin="round" points="102.4598388671875 63.408782958984375 107.84515380859376 61.75177001953125 114.47314453125 60.094757080078125 121.10125732421876 58.85198974609375 137.257080078125 55.5379638671875 144.713623046875 54.70946502685547 148.44189453125 55.12371826171875 148.44189453125 58.02349853515625 148.44189453125 58.02349853515625 " />
        <polyline stroke="black" stroke-width="3" stroke-linecap="round" fill="transparent" stroke-linejoin="round" points="102.4598388671875 101.93431091308594 115.30169677734376 96.54904174804688 121.92974853515624 93.64924621582033 141.39962768554688 86.60694885253906 141.39962768554688 86.60694885253906 " />
        <polyline stroke="black" stroke-width="3" stroke-linecap="round" fill="transparent" stroke-linejoin="round" points="73.462158203125 149.5734100341797 79.67596435546875 143.77386474609375 87.54672241210938 137.56008911132813 95.41754150390624 132.17477416992188 111.57342529296876 123.4754638671875 127.31503295898438 117.67593383789063 141.39962768554688 114.36190795898438 150.92742919921875 113.53338623046876 154.241455078125 113.94766235351563 158.384033203125 117.26165771484376 158.79827880859375 120.57568359375 152.170166015625 137.56008911132813 141.39962768554688 151.23040771484375 130.6290283203125 163.6580047607422 130.6290283203125 163.6580047607422 " />
        <polyline stroke="black" stroke-width="3" stroke-linecap="round" fill="transparent" stroke-linejoin="round" points="114.887451171875 159.10122680664063 122.75823974609376 161.1724853515625 130.6290283203125 164.07225036621094 138.49984741210938 167.800537109375 146.37066650390625 172.35733032226563 163.769287109375 188.51318359375 163.769287109375 188.51318359375 " />
        </svg>