<?xml version="1.0" standalone="no"?>
    <svg width="256" height="256" xmlns="http://www.w3.org/2000/svg" version="1.1">
    <polyline stroke="black" stroke-width="3" stroke-linecap="round" fill="transparent" stroke-linejoin="round" points="95.0565185546875 75.19244384765625 95.0565185546875 87.1732177734375 95.0565185546875 92.650146484375 94.37191772460938 102.57707214355467 94.37191772460938 102.57707214355467 " />
        <polyline stroke="black" stroke-width="3" stroke-linecap="round" fill="transparent" stroke-linejoin="round" points="111.4873046875 56.707794189453125 123.81039428710938 52.942405700683594 129.971923828125 51.57317352294922 140.58349609375 49.86163330078125 151.537353515625 50.88856506347656 153.5911865234375 51.57317352294922 156.3297119140625 54.31163787841797 157.35662841796875 71.42703247070313 151.195068359375 88.54244995117188 146.74505615234375 97.78475952148438 146.74505615234375 97.78475952148438 " />
        <polyline stroke="black" stroke-width="3" stroke-linecap="round" fill="transparent" stroke-linejoin="round" points="115.252685546875 84.77705383300781 120.72967529296876 83.4078369140625 125.52197265625 82.38090515136719 133.052734375 81.35398864746094 135.44891357421875 81.35398864746094 137.50274658203125 82.72320556640625 137.50274658203125 82.72320556640625 " />
        <polyline stroke="black" stroke-width="3" stroke-linecap="round" fill="transparent" stroke-linejoin="round" points="112.85653686523438 107.02706909179688 117.99118041992188 105.31553649902344 128.60272216796875 102.91937255859376 129.971923828125 103.26168823242188 130.65658569335938 104.6309051513672 130.65658569335938 104.6309051513672 " />
        <polyline stroke="black" stroke-width="3" stroke-linecap="round" fill="transparent" stroke-linejoin="round" points="93.344970703125 146.0501708984375 100.191162109375 143.31170654296875 107.03732299804688 140.5732421875 121.75656127929688 135.43862915039063 127.57577514648438 133.38479614257813 138.18734741210938 131.3309326171875 145.37582397460938 131.67324829101563 149.48348999023438 133.38479614257813 151.879638671875 138.51939392089844 150.16815185546875 149.8155517578125 141.95272827148438 164.1925048828125 141.95272827148438 164.1925048828125 " />
        <polyline stroke="black" stroke-width="3" stroke-linecap="round" fill="transparent" stroke-linejoin="round" points="120.3873291015625 168.6425018310547 126.20654296875 171.03866577148438 131.68353271484375 173.434814453125 137.160400390625 176.17327880859375 148.79891967773438 185.07330322265625 148.79891967773438 185.07330322265625 " />
        </svg>