<?xml version="1.0" standalone="no"?>
    <svg width="256" height="256" xmlns="http://www.w3.org/2000/svg" version="1.1">
    <polyline stroke="black" stroke-width="3" stroke-linecap="round" fill="transparent" stroke-linejoin="round" points="76.73577880859375 68.86326599121094 79.201171875 79.54682922363281 81.66668701171875 90.64129638671876 83.31027221679688 98.85943603515624 85.36480712890625 111.59751892089844 85.36480712890625 112.83024597167967 85.36480712890625 112.83024597167967 " />
        <polyline stroke="black" stroke-width="3" stroke-linecap="round" fill="transparent" stroke-linejoin="round" points="100.15744018554688 51.194297790527344 108.37557983398438 47.90704345703125 126.8663330078125 42.56526947021485 136.317138671875 40.92164611816406 153.164306640625 39.27801513671875 164.2587890625 39.688926696777344 170.42236328125 40.92164611816406 172.0660400390625 41.74346160888672 174.12054443359375 48.31795501708984 170.42236328125 59.823333740234375 166.3133544921875 67.21965026855469 144.53533935546875 91.8740234375 144.53533935546875 91.8740234375 " />
        <polyline stroke="black" stroke-width="3" stroke-linecap="round" fill="transparent" stroke-linejoin="round" points="100.979248046875 72.1505126953125 107.5537109375 70.09599304199219 114.95004272460938 68.04145812988281 122.34637451171876 66.3978271484375 139.19354248046875 62.699676513671875 145.76800537109375 62.28877258300781 149.46615600585938 63.932403564453125 149.46615600585938 63.932403564453125 " />
        <polyline stroke="black" stroke-width="3" stroke-linecap="round" fill="transparent" stroke-linejoin="round" points="107.96466064453124 113.65206909179688 113.71734619140624 111.18663024902344 119.88095092773438 108.31027221679688 130.97540283203125 103.79031372070313 139.60443115234375 101.32487487792967 144.53533935546875 101.32487487792967 144.53533935546875 101.32487487792967 " />
        <polyline stroke="black" stroke-width="3" stroke-linecap="round" fill="transparent" stroke-linejoin="round" points="89.06295776367188 167.4807586669922 97.69198608398438 161.31716918945313 107.5537109375 155.15359497070313 119.05908203125 148.57908630371094 149.46615600585938 134.6082763671875 164.669677734375 130.49920654296875 176.175048828125 129.2664794921875 182.7496337890625 129.6774139404297 185.62591552734375 130.91012573242188 186.44775390625 133.78646850585938 183.5714111328125 144.05911254882813 172.4769287109375 162.96080017089844 152.342529296875 186.3824462890625 152.342529296875 186.3824462890625 " />
        <polyline stroke="black" stroke-width="3" stroke-linecap="round" fill="transparent" stroke-linejoin="round" points="121.1136474609375 190.9024353027344 130.153564453125 193.36785888671875 149.46615600585938 200.76416015625 161.79339599609375 206.92776489257813 176.9969482421875 218.84405517578125 176.9969482421875 218.84405517578125 " />
        </svg>