<?xml version="1.0" standalone="no"?>
    <svg width="256" height="256" xmlns="http://www.w3.org/2000/svg" version="1.1">
    <polyline stroke="black" stroke-width="3" stroke-linecap="round" fill="transparent" stroke-linejoin="round" points="85.0963134765625 60.5411376953125 86.82861328125 72.08973693847656 88.5609130859375 86.52548217773438 90.29318237304688 98.65150451660156 91.44805908203124 107.890380859375 91.44805908203124 113.08724975585938 91.44805908203124 114.8195343017578 91.44805908203124 114.8195343017578 " />
        <polyline stroke="black" stroke-width="3" stroke-linecap="round" fill="transparent" stroke-linejoin="round" points="101.841796875 66.89286804199219 115.1226806640625 60.5411376953125 129.55841064453125 54.18940734863281 146.30389404296875 48.99253845214844 161.3170166015625 46.10539245605469 172.86566162109375 44.37310028076172 180.37225341796875 44.37310028076172 185.569091796875 47.26025390625 187.3013916015625 53.61197662353515 185.569091796875 68.0477294921875 178.0625 84.21575927734375 167.66876220703125 98.65150451660156 153.2330322265625 111.93238830566406 139.9521484375 120.0164031982422 139.9521484375 120.0164031982422 " />
        <polyline stroke="black" stroke-width="3" stroke-linecap="round" fill="transparent" stroke-linejoin="round" points="94.91262817382813 79.5963134765625 108.19351196289063 74.39944458007813 122.6292724609375 70.35743713378906 135.91015625 66.3154296875 145.7264404296875 64.58314514160156 152.07818603515625 63.42828369140625 156.12017822265625 63.42828369140625 158.429931640625 66.3154296875 157.2750244140625 72.08973693847656 151.500732421875 83.06089782714844 139.9521484375 95.18692016601563 126.6712646484375 107.890380859375 113.96780395507813 117.12925720214844 106.46124267578124 122.3261260986328 101.26434326171876 125.21327209472656 99.53204345703124 126.945556640625 101.841796875 126.945556640625 108.19351196289063 125.21327209472656 124.93896484375 120.59382629394533 135.33270263671875 117.12925720214844 148.03616333007813 112.5098114013672 153.8104248046875 109.62266540527344 159.58477783203125 107.3129425048828 159.58477783203125 107.3129425048828 " />
        <polyline stroke="black" stroke-width="3" stroke-linecap="round" fill="transparent" stroke-linejoin="round" points="92.02548217773438 168.5205078125 102.41921997070313 165.05592346191406 116.27752685546876 161.013916015625 132.445556640625 155.2396240234375 149.7684326171875 150.04275512695313 167.66876220703125 144.84588623046875 181.527099609375 141.3813018798828 190.7659912109375 139.0715789794922 197.11767578125 139.0715789794922 200.582275390625 139.0715789794922 201.73712158203125 142.53616333007813 198.8499755859375 149.46531677246094 191.3433837890625 162.1687774658203 182.68194580078125 173.71737670898438 171.7108154296875 184.68853759765625 163.04931640625 193.92742919921875 153.8104248046875 201.4339904785156 153.8104248046875 201.4339904785156 " />
        <polyline stroke="black" stroke-width="3" stroke-linecap="round" fill="transparent" stroke-linejoin="round" points="130.13583374023438 185.8433837890625 143.416748046875 188.15310668945313 158.429931640625 191.61770629882813 174.0205078125 195.082275390625 187.3013916015625 198.54684448242188 196.540283203125 202.01144409179688 202.3145751953125 206.05343627929688 206.3565673828125 212.4051513671875 206.3565673828125 212.4051513671875 " />
        </svg>