<?xml version="1.0" standalone="no"?>
    <svg width="256" height="256" xmlns="http://www.w3.org/2000/svg" version="1.1">
    <polyline stroke="black" stroke-width="3" stroke-linecap="round" fill="transparent" stroke-linejoin="round" points="58.583770751953125 79.27064514160156 58.19390869140625 91.356689453125 57.804046630859375 103.44273376464844 57.804046630859375 114.74905395507813 56.2445068359375 150.61734008789063 55.85467529296875 161.92364501953125 55.074920654296875 167.77175903320313 54.685028076171875 168.94137573242188 54.685028076171875 169.33123779296875 54.685028076171875 169.33123779296875 " />
        <polyline stroke="black" stroke-width="3" stroke-linecap="round" fill="transparent" stroke-linejoin="round" points="73.00897216796875 68.74406433105469 77.6875 66.40483093261719 82.36602783203125 64.06559753417969 88.214111328125 61.726348876953125 101.07989501953124 58.217498779296875 107.70773315429688 57.047882080078125 121.353271484375 56.26814270019531 134.99884033203125 57.82763671875 145.915283203125 63.67572021484375 156.83172607421875 80.44026184082031 165.01904296875 108.51109313964844 166.57855224609375 133.07305908203125 165.408935546875 150.2274627685547 162.6798095703125 162.70339965820313 156.83172607421875 172.840087890625 156.83172607421875 172.840087890625 " />
        <polyline stroke="black" stroke-width="3" stroke-linecap="round" fill="transparent" stroke-linejoin="round" points="108.09765625 88.23771667480473 104.9786376953125 95.2554168701172 101.859619140625 102.27311706542967 92.892578125 122.15664672851563 90.1634521484375 127.22500610351563 84.31536865234375 135.41232299804688 77.29766845703125 142.81988525390625 71.44955444335938 147.49835205078125 67.94073486328125 150.2274627685547 65.9913330078125 151.3970947265625 65.9913330078125 151.3970947265625 73.788818359375 149.05784606933594 91.33309936523438 143.59963989257813 111.216552734375 137.75155639648438 127.59124755859376 135.02243041992188 143.96591186523438 134.63255310058594 161.12030029296875 138.5312957763672 161.12030029296875 138.5312957763672 " />
        </svg>