<?xml version="1.0" standalone="no"?>
    <svg width="256" height="256" xmlns="http://www.w3.org/2000/svg" version="1.1">
    <polyline stroke="black" stroke-width="3" stroke-linecap="round" fill="transparent" stroke-linejoin="round" points="72.24566650390625 69.46760559082031 74.45611572265625 80.07768249511719 75.7823486328125 89.36148071289063 78.43487548828125 112.3499755859375 81.08740234375 134.8963623046875 82.41366577148438 152.579833984375 82.855712890625 166.28448486328125 82.855712890625 170.26327514648438 82.855712890625 170.26327514648438 " />
        <polyline stroke="black" stroke-width="3" stroke-linecap="round" fill="transparent" stroke-linejoin="round" points="80.20321655273438 109.25537109375 106.28631591796876 91.1298370361328 123.0855712890625 84.94062805175781 142.537353515625 80.51976013183594 161.10498046875 79.63558959960938 176.57806396484375 81.4039306640625 182.32513427734375 83.17228698730469 193.81939697265625 92.45608520507813 196.91400146484375 96.876953125 203.9874267578125 115.444580078125 203.9874267578125 129.59133911132813 202.218994140625 136.66473388671875 193.81939697265625 150.369384765625 188.9564208984375 154.79025268554688 188.9564208984375 154.79025268554688 " />
        <polyline stroke="black" stroke-width="3" stroke-linecap="round" fill="transparent" stroke-linejoin="round" points="122.64352416992188 100.85574340820313 119.10678100585938 119.86544799804688 117.33847045898438 129.59133911132813 115.12802124023438 139.31724548339844 110.26507568359376 154.34817504882813 107.612548828125 160.53738403320313 104.5179443359375 165.8424072265625 104.5179443359375 165.8424072265625 " />
        <polyline stroke="black" stroke-width="3" stroke-linecap="round" fill="transparent" stroke-linejoin="round" points="68.708984375 172.47369384765625 95.67623901367188 164.07406616210938 108.0546875 161.4215545654297 119.54891967773438 159.6531982421875 131.04315185546875 158.76902770996094 151.37908935546875 158.3269500732422 169.94671630859375 159.6531982421875 182.32513427734375 162.30572509765625 190.28271484375 168.05284118652344 190.28271484375 168.05284118652344 " />
        </svg>