<?xml version="1.0" standalone="no"?>
    <svg width="256" height="256" xmlns="http://www.w3.org/2000/svg" version="1.1">
    <polyline stroke="black" stroke-width="3" stroke-linecap="round" fill="transparent" stroke-linejoin="round" points="78 97 78 96 78 95 77 95 77 95 75 100 72 111 69 121 67 144 67 153 68 156 68 160 69 160 69 162 69 164 69 165 69 165 69 166 69 167 69 168 69 168 " />
        <polyline stroke="black" stroke-width="3" stroke-linecap="round" fill="transparent" stroke-linejoin="round" points="73 86 74 87 75 88 76 88 77 88 78 88 80 88 81 88 90 88 102 85 115 83 130 82 149 81 157 81 159 81 161 81 163 81 164 81 165 81 165 81 165 82 165 86 165 93 163 115 157 141 156 149 153 159 153 162 153 163 152 164 152 164 " />
        <polyline stroke="black" stroke-width="3" stroke-linecap="round" fill="transparent" stroke-linejoin="round" points="114 93 115 94 116 95 117 99 118 106 120 124 120 131 120 141 120 145 120 145 119 146 119 147 119 148 119 148 " />
        <polyline stroke="black" stroke-width="3" stroke-linecap="round" fill="transparent" stroke-linejoin="round" points="92 151 93 152 94 153 97 153 105 153 122 154 133 154 136 154 140 154 141 154 142 154 143 154 144 154 144 154 " />
        </svg>