<?xml version="1.0" standalone="no"?>
    <svg width="256" height="256" xmlns="http://www.w3.org/2000/svg" version="1.1">
    <polyline stroke="black" stroke-width="3" stroke-linecap="round" fill="transparent" stroke-linejoin="round" points="75.3131103515625 75.9677734375 75.92523193359375 99.84019470214844 76.537353515625 134.73065185546875 76.537353515625 152.48194885253906 77.14947509765625 169.62110900878906 75.92523193359375 181.86338806152344 75.92523193359375 181.86338806152344 " />
        <polyline stroke="black" stroke-width="3" stroke-linecap="round" fill="transparent" stroke-linejoin="round" points="69.1920166015625 106.5734405517578 79.59793090820313 96.77963256835938 94.9007568359375 86.37370300292969 119.99740600585938 71.6829833984375 142.03350830078125 63.11338806152344 160.39691162109375 60.052825927734375 175.69970703125 61.88916015625 186.7177734375 66.17396545410156 193.4510498046875 74.13143920898438 197.73583984375 88.82215881347656 197.1236572265625 109.02189636230467 189.166259765625 133.5064239501953 176.31182861328125 154.93038940429688 161.009033203125 170.8453369140625 161.009033203125 170.8453369140625 " />
        <polyline stroke="black" stroke-width="3" stroke-linecap="round" fill="transparent" stroke-linejoin="round" points="135.912353515625 98.0038604736328 136.52447509765625 116.9793701171875 134.07601928710938 129.833740234375 129.79119873046875 144.52447509765625 122.44586181640624 158.6030731201172 112.65203857421876 169.62110900878906 101.02191162109376 178.8028106689453 91.22808837890624 183.69973754882813 84.49481201171875 186.76028442382813 78.98580932617188 189.208740234375 77.14947509765625 189.82086181640625 80.21002197265625 189.82086181640625 91.22808837890624 187.37240600585935 116.93682861328124 181.86338806152344 140.80926513671875 176.3543701171875 160.39691162109375 173.29379272460938 173.8634033203125 173.29379272460938 181.208740234375 175.13014221191406 181.208740234375 175.13014221191406 " />
        </svg>