<?xml version="1.0" standalone="no"?>
    <svg width="256" height="256" xmlns="http://www.w3.org/2000/svg" version="1.1">
    <polyline stroke="black" stroke-width="3" stroke-linecap="round" fill="transparent" stroke-linejoin="round" points="38.77911376953125 93.07077026367188 43.16754150390625 116.098388671875 47.55596923828125 139.12600708007813 50.231903076171875 152.7303924560547 55.01751708984375 175.91574096679688 56.831787109375 184.96734619140625 56.398529052734375 198.87796020507813 55.413665771484375 197.1268310546875 " />
        <polyline stroke="black" stroke-width="3" stroke-linecap="round" fill="transparent" stroke-linejoin="round" points="71.470947265625 103.07646179199219 81.31121826171875 100.16598510742188 91.1514892578125 97.25550842285156 118.9078369140625 92.76754760742188 133.29150390625 91.74562072753906 169.9501953125 94.06105041503906 183.9339599609375 100.74131774902344 188.7579345703125 104.71598815917967 194.920654296875 113.06051635742188 195.92572021484375 117.05772399902344 196.4947509765625 126.10765075683594 195.9119873046875 132.0859832763672 192.6605224609375 147.0194091796875 186.6826171875 164.73497009277344 182.69476318359375 173.91928100585938 178.6038818359375 181.24972534179688 177.48065185546875 181.7884979248047 " />
        <polyline stroke="black" stroke-width="3" stroke-linecap="round" fill="transparent" stroke-linejoin="round" points="129.7255859375 110.05758666992185 130.48345947265625 120.18766784667967 131.2413330078125 130.3177490234375 131.81393432617188 149.64321899414063 130.60601806640625 164.9876708984375 128.690185546875 172.82952880859375 120.71246337890624 182.61289978027344 118.14849853515624 183.4538421630859 " />
        <polyline stroke="black" stroke-width="3" stroke-linecap="round" fill="transparent" stroke-linejoin="round" points="63.70730590820315 189.44302368164063 93.63348388671876 184.44189453125 123.55966186523438 179.44076538085938 134.053466796875 177.22837829589844 167.68212890625 173.7550048828125 176.7451171875 174.10699462890625 181.647216796875 175.63938903808594 181.769287109375 175.7353515625 181.77020263671875 175.73602294921875 " />
        </svg>