<?xml version="1.0" standalone="no"?>
    <svg width="256" height="256" xmlns="http://www.w3.org/2000/svg" version="1.1">
    <polyline stroke="black" stroke-width="3" stroke-linecap="round" fill="transparent" stroke-linejoin="round" points="67.11114501953125 105.55555725097656 68 146.4444580078125 70.66668701171875 165.11111450195313 74.22222900390625 174 76.888916015625 176.6666717529297 77.77783203125 173.11111450195313 78.66668701171875 163.3333282470703 78.66668701171875 163.3333282470703 " />
        <polyline stroke="black" stroke-width="3" stroke-linecap="round" fill="transparent" stroke-linejoin="round" points="76 121.55558776855467 101.77777099609376 105.55555725097656 124.888916015625 102.88888549804688 147.11114501953125 102.00001525878906 163.11114501953125 102.00001525878906 172 105.55555725097656 173.77777099609375 111.7777862548828 172 127.7777862548828 167.5555419921875 148.2222442626953 164.888916015625 166.88888549804688 164.888916015625 172.22222900390625 162.2222900390625 173.11111450195313 158.66668701171875 170.44447326660156 158.66668701171875 170.44447326660156 " />
        <polyline stroke="black" stroke-width="3" stroke-linecap="round" fill="transparent" stroke-linejoin="round" points="122.2222900390625 118 122.2222900390625 146.4444580078125 123.11114501953124 155.3333282470703 123.11114501953124 160.6666717529297 123.11114501953124 165.11111450195313 123.11114501953124 165.11111450195313 " />
        <polyline stroke="black" stroke-width="3" stroke-linecap="round" fill="transparent" stroke-linejoin="round" points="81.33331298828125 186.4444580078125 131.11114501953125 182.88888549804688 150.66668701171875 181.11111450195313 163.11114501953125 181.11111450195313 167.5555419921875 183.77780151367188 167.5555419921875 183.77780151367188 " />
        </svg>