<?xml version="1.0" standalone="no"?>
    <svg width="256" height="256" xmlns="http://www.w3.org/2000/svg" version="1.1">
    <polyline stroke="black" stroke-width="3" stroke-linecap="round" fill="transparent" stroke-linejoin="round" points="78.30169677734375 84.15274047851563 78.4837646484375 91.74893188476563 79.34225463867188 101.11412048339844 79.7845458984375 111.9360809326172 80.0706787109375 123.0962371826172 81.3193359375 133.26785278320313 82.2298583984375 142.68504333496094 82.672119140625 151.1397247314453 82.8802490234375 158.70989990234375 83.27044677734375 164.56312561035156 84.46713256835938 168.69943237304688 84.96139526367188 171.32688903808594 85.22152709960938 173.82421875 85.22152709960938 175.5672149658203 84.98739624023438 177.10203552246094 84.88336181640625 177.28416442871094 84.831298828125 177.51828002929688 86.08001708984375 175.463134765625 87.09457397460938 173.3820037841797 87.09457397460938 173.3820037841797 " />
        <polyline stroke="black" stroke-width="3" stroke-linecap="round" fill="transparent" stroke-linejoin="round" points="93.44204711914063 56.44744873046875 99.45135498046876 54.730506896972656 105.12252807617188 52.96153259277344 110.94970703125 51.21856689453125 117.73944091796876 49.709739685058594 124.08697509765624 48.35697937011719 130.40847778320313 47.264373779296875 137.79653930664063 46.58800506591797 143.909912109375 46.01569366455078 149.13876342773438 45.07917022705078 154.601806640625 44.29874420166016 159.23236083984375 43.44026947021485 162.30206298828125 42.91998291015625 165.944091796875 42.34767150878906 167.92120361328125 42.035491943359375 170.7047119140625 41.69732666015625 171.537109375 41.6192626953125 171.97943115234375 41.59325408935547 172.36962890625 41.59325408935547 173.4361572265625 41.69732666015625 174.060546875 41.8533935546875 174.476806640625 42.0875244140625 174.63287353515625 41.801361083984375 175.0230712890625 42.5557861328125 175.6474609375 44.09062194824219 175.881591796875 46.041709899902344 175.80352783203125 49.6837158203125 175.8555908203125 54.60044860839844 174.9710693359375 60.68778991699219 174.45074462890625 67.29544067382813 174.2686767578125 74.50141906738281 175.3092041015625 83.11216735839844 175.82952880859375 91.6968994140625 175.93359375 100.56779479980467 176.60992431640625 109.64682006835938 177.67657470703125 119.662353515625 178.4049072265625 129.67787170410156 178.63909912109375 147.62777709960938 179.8096923828125 164.06884765625 179.3154296875 175.2810516357422 179.10736083984375 183.31948852539065 178.84716796875 185.7127990722656 178.53497314453125 188.0020446777344 178.3529052734375 189.17269897460935 178.27490234375 189.51089477539065 178.22283935546875 190.2132873535156 178.22283935546875 190.2132873535156 " />
        <polyline stroke="black" stroke-width="3" stroke-linecap="round" fill="transparent" stroke-linejoin="round" points="111.7041015625 91.3327178955078 115.99652099609376 96.37950134277344 119.716552734375 101.192138671875 120.86117553710938 102.98713684082033 122.60415649414063 105.51052856445313 122.60415649414063 105.51052856445313 " />
        <polyline stroke="black" stroke-width="3" stroke-linecap="round" fill="transparent" stroke-linejoin="round" points="129.3939208984375 76.89472961425781 133.94638061523438 81.39521789550781 137.32827758789063 85.81765747070313 138.94119262695313 88.91336059570313 139.14926147460938 90.13606262207033 139.14926147460938 90.13606262207033 " />
        <polyline stroke="black" stroke-width="3" stroke-linecap="round" fill="transparent" stroke-linejoin="round" points="152.36456298828125 69.45463562011719 149.24285888671875 83.19021606445313 144.27410888671875 99.16302490234376 138.08270263671875 116.33251953125 133.00985717773438 132.8516082763672 128.717529296875 141.2542724609375 128.717529296875 141.2542724609375 " />
        <polyline stroke="black" stroke-width="3" stroke-linecap="round" fill="transparent" stroke-linejoin="round" points="123.64471435546876 139.3812255859375 129.83612060546875 138.13253784179688 135.53329467773438 136.8318328857422 141.04830932617188 135.66116333007813 144.06597900390625 135.140869140625 148.54046630859375 134.2303924560547 151.89630126953125 133.89218139648438 154.39373779296875 133.1898193359375 155.90252685546875 133.00770568847656 156.708984375 132.92967224121094 158.634033203125 132.8776397705078 160.3509521484375 135.1669158935547 160.87127685546875 136.02537536621094 160.87127685546875 136.02537536621094 " />
        <polyline stroke="black" stroke-width="3" stroke-linecap="round" fill="transparent" stroke-linejoin="round" points="107.80194091796876 181.654541015625 124.16500854492188 177.28416442871094 140.97027587890625 174.474609375 155.27813720703125 172.5235137939453 167.6090087890625 171.35287475585938 175.2052001953125 171.7690887451172 181.8648681640625 174.44857788085938 181.8648681640625 174.44857788085938 " />
        </svg>