<?xml version="1.0" standalone="no"?>
    <svg width="256" height="256" xmlns="http://www.w3.org/2000/svg" version="1.1">
    <polyline stroke="black" stroke-width="3" stroke-linecap="round" fill="transparent" stroke-linejoin="round" points="106 67 106 67 106 68 105 69 105 70 104 72 104 76 103 80 102 85 102 91 101 97 100 103 99 110 98 117 98 124 97 130 96 137 96 143 95 150 95 156 95 162 95 168 95 173 94 178 94 183 94 187 94 191 94 194 94 198 94 200 94 203 94 205 94 207 94 209 94 210 94 211 94 212 94 213 95 213 " />
        <polyline stroke="black" stroke-width="3" stroke-linecap="round" fill="transparent" stroke-linejoin="round" points="108 106 110 105 111 103 113 102 115 100 117 99 120 97 122 96 124 94 127 93 130 91 133 90 136 88 139 87 143 85 147 84 151 83 155 81 159 80 163 79 166 78 170 78 174 77 177 77 180 76 183 76 186 76 188 76 191 76 193 77 195 78 196 79 198 80 199 82 201 86 202 90 203 95 203 101 204 107 204 115 204 122 204 130 204 137 203 145 203 152 202 160 202 167 201 174 200 180 200 186 199 191 198 196 197 201 195 205 194 208 193 211 191 214 190 216 189 218 187 219 186 220 " />
        <polyline stroke="black" stroke-width="3" stroke-linecap="round" fill="transparent" stroke-linejoin="round" points="123 113 123 113 123 113 123 114 123 115 124 116 124 117 125 119 126 120 126 122 127 123 128 125 129 126 130 127 130 129 131 130 132 131 132 132 133 132 134 133 134 133 135 134 135 134 136 134 137 134 137 134 " />
        <polyline stroke="black" stroke-width="3" stroke-linecap="round" fill="transparent" stroke-linejoin="round" points="147 114 148 115 149 116 150 117 151 118 152 119 153 120 154 120 155 121 157 122 158 123 159 124 160 124 161 125 162 125 164 126 165 126 166 126 168 126 " />
        <polyline stroke="black" stroke-width="3" stroke-linecap="round" fill="transparent" stroke-linejoin="round" points="169 130 167 133 164 137 161 140 158 144 155 148 152 152 148 156 145 159 142 163 139 166 136 169 133 172 130 175 128 177 125 179 123 181 121 183 120 185 118 186 117 187 116 188 116 189 115 190 114 190 114 190 114 191 114 191 113 191 113 191 113 191 114 191 114 191 115 190 116 190 117 189 119 188 121 187 123 186 126 186 129 185 132 184 135 183 138 182 142 181 145 180 149 179 152 178 156 177 160 176 163 176 166 175 169 175 172 175 175 175 178 175 180 176 182 177 " />
        <polyline stroke="black" stroke-width="3" stroke-linecap="round" fill="transparent" stroke-linejoin="round" points="104 230 104 230 104 230 104 230 104 230 104 230 104 230 105 229 106 229 107 229 108 229 109 229 111 229 112 228 115 228 117 228 119 228 122 227 124 227 127 227 130 226 133 226 136 226 139 225 143 225 146 224 150 224 153 223 157 223 160 222 164 221 167 221 170 220 174 220 177 219 180 218 182 218 185 218 187 217 189 217 191 217 193 217 194 216 195 216 196 216 197 216 197 216 197 217 197 217 " />
        </svg>