<?xml version="1.0" standalone="no"?>
    <svg width="256" height="256" xmlns="http://www.w3.org/2000/svg" version="1.1">
    <polyline stroke="black" stroke-width="3" stroke-linecap="round" fill="transparent" stroke-linejoin="round" points="127.42446899414063 33.77613067626953 124.843017578125 46.0380859375 120.9708251953125 55.71858215332031 113.87176513671876 66.04443359375 106.77276611328124 76.37030029296875 106.77276611328124 76.37030029296875 " />
        <polyline stroke="black" stroke-width="3" stroke-linecap="round" fill="transparent" stroke-linejoin="round" points="75.795166015625 89.92298889160156 88.7025146484375 85.40542602539063 104.836669921875 80.24249267578125 123.55224609375 74.4342041015625 146.14007568359375 69.27127075195313 161.62884521484375 66.68980407714844 170.66400146484375 67.33517456054688 170.66400146484375 67.33517456054688 " />
        <polyline stroke="black" stroke-width="3" stroke-linecap="round" fill="transparent" stroke-linejoin="round" points="99.02835083007813 109.28396606445313 93.86541748046876 118.319091796875 91.28396606445313 126.0634765625 89.34786987304688 133.80787658691406 88.05712890625 140.26153564453125 88.05712890625 144.13372802734375 89.99322509765625 138.325439453125 93.86541748046876 130.58103942871094 99.02835083007813 120.90055847167967 104.836669921875 113.15615844726563 113.87176513671876 104.7664031982422 125.48837280273438 96.37664794921876 137.75030517578125 90.56834411621094 150.65765380859375 86.69615173339844 157.75665283203125 85.40542602539063 163.56494140625 87.34152221679688 166.79180908203125 92.5044403076172 164.855712890625 107.99322509765624 155.820556640625 129.93568420410156 144.2039794921875 144.13372802734375 144.2039794921875 144.13372802734375 " />
        <polyline stroke="black" stroke-width="3" stroke-linecap="round" fill="transparent" stroke-linejoin="round" points="100.9644775390625 130.58103942871094 116.4532470703125 121.54591369628906 125.48837280273438 117.02835083007813 135.16885375976563 111.8654327392578 145.49472045898438 105.41177368164063 153.88446044921875 98.95811462402344 158.40203857421875 94.4405517578125 158.40203857421875 94.4405517578125 " />
        <polyline stroke="black" stroke-width="3" stroke-linecap="round" fill="transparent" stroke-linejoin="round" points="138.39569091796875 106.70249938964844 131.29666137695313 121.54591369628906 126.13372802734376 130.58103942871094 120.9708251953125 139.6161651611328 114.51715087890624 148.0059356689453 107.41812133789063 154.4595947265625 100.9644775390625 157.68641662597656 96.4468994140625 158.97715759277344 95.801513671875 158.331787109375 99.02835083007813 154.4595947265625 106.12738037109376 149.94203186035156 119.6800537109375 144.13372802734375 131.29666137695313 138.97080993652344 145.49472045898438 133.80787658691406 152.59375 131.22640991210938 157.75665283203125 131.22640991210938 157.75665283203125 131.22640991210938 " />
        <polyline stroke="black" stroke-width="3" stroke-linecap="round" fill="transparent" stroke-linejoin="round" points="53.85272216796875 184.14642333984375 74.50445556640625 182.2103271484375 91.28396606445313 179.6288604736328 115.807861328125 175.7566680908203 134.52349853515625 172.52984619140625 152.59375 169.30300903320313 168.08251953125 166.076171875 175.826904296875 164.7854461669922 181.63525390625 162.2039794921875 181.63525390625 162.2039794921875 " />
        <polyline stroke="black" stroke-width="3" stroke-linecap="round" fill="transparent" stroke-linejoin="round" points="111.29031372070313 167.36691284179688 106.12738037109376 182.85568237304688 105.48202514648438 191.24545288085935 105.48202514648438 199.63522338867188 106.77276611328124 206.7342529296875 109.99957275390624 212.54254150390625 113.87176513671876 215.12399291992188 120.325439453125 215.12399291992188 126.13372802734376 211.25180053710935 133.23275756835938 205.44351196289065 143.55859375 191.24545288085935 152.59375 177.69276428222656 152.59375 177.69276428222656 " />
        <polyline stroke="black" stroke-width="3" stroke-linecap="round" fill="transparent" stroke-linejoin="round" points="154.52984619140625 145.42446899414063 149.36691284179688 157.0410614013672 147.43081665039063 168.0122833251953 146.14007568359375 180.27423095703125 144.849365234375 195.76303100585935 141.62249755859375 215.76937866210935 141.62249755859375 215.76937866210935 " />
        </svg>