<?xml version="1.0" standalone="no"?>
    <svg width="256" height="256" xmlns="http://www.w3.org/2000/svg" version="1.1">
    <polyline stroke="black" stroke-width="3" stroke-linecap="round" fill="transparent" stroke-linejoin="round" points="51.4813232421875 58.040802001953125 46.462738037109375 79.23039245605469 42.00177001953125 95.40138244628906 36.425567626953125 109.89950561523438 31.964599609375 122.16716003417967 28.618896484375 130.53146362304688 25.830780029296875 134.434814453125 28.061279296875 130.53146362304688 31.406982421875 125.51287841796876 37.540802001953125 118.82144165039063 48.1356201171875 109.34188842773438 58.73040771484375 100.9775848388672 71.5556640625 91.49803161621094 82.15045166015625 83.13372802734375 91.0723876953125 74.76942443847656 96.6485595703125 65.28987121582031 99.43667602539063 53.57984924316406 99.43667602539063 53.57984924316406 " />
        <polyline stroke="black" stroke-width="3" stroke-linecap="round" fill="transparent" stroke-linejoin="round" points="81.59283447265625 45.773162841796875 78.24710083007813 56.367950439453125 70.998046875 82.57611083984375 63.19134521484375 112.6876220703125 55.3846435546875 141.6838836669922 50.9237060546875 158.41249084472656 45.905120849609375 173.46824645996094 41.44415283203125 184.62066650390625 40.32891845703125 189.6392517089844 40.32891845703125 189.6392517089844 " />
        <polyline stroke="black" stroke-width="3" stroke-linecap="round" fill="transparent" stroke-linejoin="round" points="58.73040771484375 160.08535766601563 74.34375 165.10394287109375 83.82330322265625 169.0072784423828 92.7452392578125 172.35301208496094 101.66717529296876 169.0072784423828 101.66717529296876 169.0072784423828 " />
        <polyline stroke="black" stroke-width="3" stroke-linecap="round" fill="transparent" stroke-linejoin="round" points="140.14297485351563 54.13746643066406 135.1243896484375 64.17463684082031 131.2210693359375 72.5389404296875 126.20245361328124 80.90324401855469 122.29913330078124 87.59469604492188 119.51101684570313 92.61328125 118.39578247070313 94.84376525878906 118.95339965820313 94.84376525878906 123.41436767578124 93.728515625 131.7786865234375 89.82518005371094 144.04632568359375 83.69134521484375 157.42919921875 75.32704162597656 168.58160400390625 68.63560485839844 177.5035400390625 62.50177001953125 183.6373291015625 56.925567626953125 183.6373291015625 56.925567626953125 " />
        <polyline stroke="black" stroke-width="3" stroke-linecap="round" fill="transparent" stroke-linejoin="round" points="164.12066650390625 35.735992431640625 157.42919921875 52.46460723876953 151.85302734375 66.96273803710938 145.71917724609375 83.13372802734375 139.02774047851563 98.74710083007813 133.4515380859375 111.01475524902344 128.43295288085938 121.05192565917967 125.64483642578124 127.1857452392578 123.41436767578124 131.08909606933594 123.41436767578124 131.08909606933594 125.64483642578124 126.0705108642578 130.10580444335938 121.05192565917967 136.2396240234375 117.70619201660156 145.71917724609375 114.3604736328125 158.54443359375 112.12998962402344 169.1392822265625 111.01475524902344 180.2916259765625 111.01475524902344 186.42547607421875 111.01475524902344 191.444091796875 111.01475524902344 193.116943359375 112.12998962402344 193.116943359375 112.12998962402344 " />
        <polyline stroke="black" stroke-width="3" stroke-linecap="round" fill="transparent" stroke-linejoin="round" points="134.5667724609375 137.22291564941406 126.20245361328124 150.04818725585938 121.74151611328124 157.29725646972656 117.280517578125 165.10394287109375 113.934814453125 170.68014526367188 112.261962890625 174.58348083496094 113.377197265625 174.58348083496094 119.51101684570313 171.23776245117188 132.3363037109375 165.10394287109375 146.83441162109375 157.29725646972656 162.44781494140625 150.60580444335938 177.5035400390625 143.3567352294922 187.54071044921875 138.33815002441406 194.232177734375 134.992431640625 198.693115234375 132.76194763183594 200.365966796875 127.7433624267578 200.365966796875 127.7433624267578 " />
        <polyline stroke="black" stroke-width="3" stroke-linecap="round" fill="transparent" stroke-linejoin="round" points="165.79351806640625 113.8028564453125 163.00537109375 123.28240966796876 159.10205078125 133.877197265625 151.85302734375 150.04818725585938 141.25820922851563 172.35301208496094 134.0091552734375 187.40875244140625 127.31768798828124 199.1187744140625 122.29913330078124 205.81024169921875 117.838134765625 209.71356201171875 115.607666015625 208.04071044921875 115.607666015625 208.04071044921875 " />
        <polyline stroke="black" stroke-width="3" stroke-linecap="round" fill="transparent" stroke-linejoin="round" points="142.93109130859375 175.14111328125 156.87158203125 176.25634765625 165.79351806640625 177.37158203125 175.2730712890625 180.15969848632813 183.0797119140625 183.50540161132813 189.771240234375 186.85113525390625 196.462646484375 192.4273376464844 196.462646484375 192.4273376464844 " />
        </svg>