<?xml version="1.0" standalone="no"?>
    <svg width="256" height="256" xmlns="http://www.w3.org/2000/svg" version="1.1">
    <polyline stroke="black" stroke-width="3" stroke-linecap="round" fill="transparent" stroke-linejoin="round" points="38 148 42 146 45 143 55 136 71 126 80 121 86 118 90 117 91 117 91 117 " />
        <polyline stroke="black" stroke-width="3" stroke-linecap="round" fill="transparent" stroke-linejoin="round" points="77 143 77 154 78 169 81 187 85 207 89 228 91 235 91 236 89 229 84 214 82 206 82 199 85 193 92 188 101 183 113 179 118 178 119 177 120 179 121 184 123 190 124 196 124 203 123 207 120 209 114 210 109 209 107 205 106 204 106 204 " />
        <polyline stroke="black" stroke-width="3" stroke-linecap="round" fill="transparent" stroke-linejoin="round" points="127 118 128 119 133 123 141 131 147 137 149 138 149 138 " />
        <polyline stroke="black" stroke-width="3" stroke-linecap="round" fill="transparent" stroke-linejoin="round" points="140 128 145 124 153 121 166 117 174 114 180 112 185 111 187 111 188 111 189 111 189 115 189 121 185 133 182 139 181 140 181 140 " />
        <polyline stroke="black" stroke-width="3" stroke-linecap="round" fill="transparent" stroke-linejoin="round" points="162 127 165 128 169 133 171 135 171 136 171 136 " />
        <polyline stroke="black" stroke-width="3" stroke-linecap="round" fill="transparent" stroke-linejoin="round" points="143 157 149 154 156 151 164 147 170 144 174 142 175 142 176 142 176 143 176 143 " />
        <polyline stroke="black" stroke-width="3" stroke-linecap="round" fill="transparent" stroke-linejoin="round" points="176 186 176 188 178 192 181 197 183 201 184 202 184 203 184 203 " />
        <polyline stroke="black" stroke-width="3" stroke-linecap="round" fill="transparent" stroke-linejoin="round" points="134 225 139 223 152 218 167 212 184 205 207 197 215 196 219 195 219 195 219 196 219 197 219 198 219 198 " />
        </svg>