<?xml version="1.0" standalone="no"?>
    <svg width="256" height="256" xmlns="http://www.w3.org/2000/svg" version="1.1">
    <polyline stroke="black" stroke-width="3" stroke-linecap="round" fill="transparent" stroke-linejoin="round" points="54.269561767578125 104.33648681640624 64.959228515625 98.50303649902344 78.078369140625 92.66960144042967 88.76800537109375 86.35002136230469 104.31658935546876 78.08596801757813 107.71783447265624 76.62759399414063 109.17550659179688 75.65536499023438 108.68963623046876 77.11372375488281 106.74603271484376 80.03044128417969 106.74603271484376 80.03044128417969 " />
        <polyline stroke="black" stroke-width="3" stroke-linecap="round" fill="transparent" stroke-linejoin="round" points="73.705322265625 118.43399047851563 69.81814575195313 131.5592498779297 54.755462646484375 166.07382202148438 44.0657958984375 187.94927978515625 34.833831787109375 208.36636352539065 22.20062255859375 236.56137084960935 19.285247802734375 243.85317993164065 18.3134765625 245.79766845703125 18.3134765625 245.79766845703125 " />
        <polyline stroke="black" stroke-width="3" stroke-linecap="round" fill="transparent" stroke-linejoin="round" points="67.87460327148438 161.69874572753906 80.5078125 155.3791961669922 93.62692260742188 148.573486328125 97.51406860351563 147.1151123046875 99.94354248046876 148.573486328125 99.94354248046876 154.89308166503906 98.48583984375 166.5599822998047 93.14102172851563 198.1578063964844 89.73980712890625 212.741455078125 79.5360107421875 234.1307678222656 73.705322265625 240.93646240234375 61.07208251953125 246.7698974609375 54.269561767578125 244.82540893554688 42.122222900390625 225.38058471679688 42.122222900390625 225.38058471679688 " />
        <polyline stroke="black" stroke-width="3" stroke-linecap="round" fill="transparent" stroke-linejoin="round" points="124.23822021484376 124.75358581542967 124.23822021484376 140.30943298339844 124.72412109375 150.5179901123047 124.72412109375 151.976318359375 126.66766357421876 145.65676879882813 126.66766357421876 145.65676879882813 " />
        <polyline stroke="black" stroke-width="3" stroke-linecap="round" fill="transparent" stroke-linejoin="round" points="146.1033935546875 82.46104431152344 156.30712890625 77.11372375488281 171.85577392578125 73.71087646484375 177.68646240234375 73.22476196289063 182.05950927734375 73.22476196289063 182.05950927734375 74.68310546875 180.601806640625 86.83613586425781 178.17236328125 96.5585479736328 172.3416748046875 115.03114318847656 169.91217041015625 122.32293701171876 167.48272705078125 128.1564178466797 162.623779296875 136.90660095214844 160.1943359375 139.3372039794922 160.1943359375 139.3372039794922 " />
        <polyline stroke="black" stroke-width="3" stroke-linecap="round" fill="transparent" stroke-linejoin="round" points="149.99053955078125 116.9756317138672 148.53289794921875 132.531494140625 146.58929443359375 147.6012420654297 145.61749267578125 149.05960083007813 144.645751953125 149.54571533203125 144.645751953125 149.54571533203125 " />
        <polyline stroke="black" stroke-width="3" stroke-linecap="round" fill="transparent" stroke-linejoin="round" points="125.6959228515625 154.4069366455078 143.18804931640625 149.54571533203125 150.96234130859375 147.1151123046875 161.6519775390625 144.6845245361328 164.08148193359375 144.6845245361328 165.53912353515625 145.65676879882813 166.0250244140625 148.08738708496094 166.0250244140625 148.08738708496094 " />
        <polyline stroke="black" stroke-width="3" stroke-linecap="round" fill="transparent" stroke-linejoin="round" points="152.90594482421875 195.72723388671875 151.93408203125 213.22756958007813 147.0751953125 227.81118774414065 144.15985107421875 231.70016479492188 144.15985107421875 231.70016479492188 " />
        <polyline stroke="black" stroke-width="3" stroke-linecap="round" fill="transparent" stroke-linejoin="round" points="115.49212646484376 225.86669921875 133.47018432617188 220.51937866210935 167.9686279296875 208.85247802734375 184.0030517578125 203.99127197265625 208.2977294921875 196.21331787109375 215.586181640625 193.78271484375 222.87451171875 192.32440185546875 222.87451171875 192.32440185546875 " />
        </svg>