<?xml version="1.0" standalone="no"?>
    <svg width="256" height="256" xmlns="http://www.w3.org/2000/svg" version="1.1">
    <polyline stroke="black" stroke-width="3" stroke-linecap="round" fill="transparent" stroke-linejoin="round" points="60.18597412109375 61.73002624511719 77.248046875 53.89067840576172 94.31015014648438 46.973602294921875 102.61068725585938 43.74565124511719 114.60028076171876 39.59541320800781 121.05621337890624 37.289703369140625 122.43963623046876 35.90629577636719 122.43963623046876 35.90629577636719 " />
        <polyline stroke="black" stroke-width="3" stroke-linecap="round" fill="transparent" stroke-linejoin="round" points="82.78173828125 82.9423828125 78.17034912109375 95.39309692382813 68.02532958984375 128.13389587402344 60.18597412109375 155.34104919433594 51.42431640625 178.85906982421875 46.351806640625 188.54296875 45.89068603515625 188.08184814453125 45.89068603515625 187.1595764160156 56.035736083984375 168.25291442871094 70.7921142578125 145.6571502685547 77.70919799804688 136.89553833007813 95.232421875 121.67796325683594 99.84384155273438 119.37229919433594 107.68319702148438 118.9111328125 114.13912963867188 126.28936767578124 115.983642578125 158.5690155029297 110.9111328125 169.63632202148438 98.92156982421876 186.2373046875 81.3983154296875 195.92120361328125 81.3983154296875 195.92120361328125 " />
        <polyline stroke="black" stroke-width="3" stroke-linecap="round" fill="transparent" stroke-linejoin="round" points="143.65194702148438 116.60546875 142.26852416992188 123.06138610839844 139.04058837890625 134.58984375 136.73486328125 137.35667419433594 136.27377319335938 136.89553833007813 136.27377319335938 127.21163940429688 142.26852416992188 108.76609802246094 152.41357421875 88.93716430664063 163.9420166015625 74.64189147949219 177.3150634765625 64.03572082519531 191.149169921875 57.57978820800781 203.599853515625 55.27409362792969 212.8226318359375 57.11865234375 218.81744384765625 61.268890380859375 224.35107421875 70.030517578125 226.1956787109375 80.63668823242188 222.50653076171875 89.85945129394531 213.2838134765625 96.31536865234376 207.28900146484375 98.15992736816406 207.28900146484375 98.15992736816406 " />
        <polyline stroke="black" stroke-width="3" stroke-linecap="round" fill="transparent" stroke-linejoin="round" points="183.309814453125 94.00968933105467 181.46527099609375 102.31016540527344 179.15960693359375 111.07180786132813 176.39276123046875 117.98887634277344 169.4757080078125 127.21163940429688 165.78656005859375 130.43960571289063 156.5638427734375 135.9732666015625 154.71923828125 136.43438720703125 155.180419921875 135.05096435546875 162.09747314453125 130.90072631835938 168.55340576171875 128.13389587402344 192.5325927734375 120.2945556640625 205.4444580078125 117.98887634277344 205.4444580078125 117.98887634277344 " />
        <polyline stroke="black" stroke-width="3" stroke-linecap="round" fill="transparent" stroke-linejoin="round" points="173.62591552734375 150.7296600341797 171.32025146484375 157.1855926513672 168.55340576171875 164.1026611328125 160.71405029296875 178.85906982421875 144.57421875 193.61550903320313 133.50692749023438 200.99371337890625 116.44479370117188 209.75534057617188 107.68319702148438 212.52215576171875 105.37750244140624 212.52215576171875 107.68319702148438 209.75534057617188 127.51214599609376 198.68801879882813 157.486083984375 188.54296875 185.1544189453125 184.39276123046875 211.439208984375 186.2373046875 222.50653076171875 190.38754272460935 222.50653076171875 190.38754272460935 " />
        </svg>