<?xml version="1.0" standalone="no"?>
    <svg width="256" height="256" xmlns="http://www.w3.org/2000/svg" version="1.1">
    <polyline stroke="black" stroke-width="3" stroke-linecap="round" fill="transparent" stroke-linejoin="round" points="72.08383178710938 90.32058715820313 77.61749267578125 87.55375671386719 83.61227416992188 84.78692626953125 89.60711669921875 82.02009582519531 99.29098510742188 77.86985778808594 107.13031005859376 74.18075561523438 109.43600463867188 73.25848388671875 108.974853515625 74.18075561523438 107.59149169921876 76.4864501953125 100.67440795898438 88.93716430664063 87.76254272460938 114.76089477539063 72.08383178710938 148.4239959716797 65.62789916992188 161.33584594726563 53.6383056640625 185.77615356445313 51.79376220703125 189.9263916015625 52.2548828125 189.46527099609375 57.78857421875 183.470458984375 69.77813720703125 171.01974487304688 84.07342529296875 159.49130249023438 96.06298828125 152.1130828857422 104.82464599609376 149.80740356445313 111.280517578125 151.65194702148438 115.4307861328125 156.72447204589844 117.73651123046876 170.0974578857422 115.89193725585938 181.1647796630859 104.82464599609376 197.30462646484375 97.90756225585938 200.99371337890625 97.90756225585938 200.99371337890625 " />
        <polyline stroke="black" stroke-width="3" stroke-linecap="round" fill="transparent" stroke-linejoin="round" points="140.79339599609375 81.5589599609375 142.17681884765625 87.55375671386719 143.09906005859375 94.4708251953125 144.02133178710938 105.53814697265624 144.02133178710938 110.61065673828124 144.02133178710938 118.4499969482422 144.02133178710938 119.83341979980467 144.02133178710938 118.9111328125 144.943603515625 116.60546875 148.63275146484375 107.84384155273438 155.08868408203125 97.69879150390624 162.4669189453125 89.3983154296875 171.228515625 82.02009582519531 180.4512939453125 76.4864501953125 189.212890625 73.25848388671875 195.6688232421875 73.71961975097656 200.28021240234375 76.4864501953125 204.430419921875 82.9423828125 205.8138427734375 94.93196105957033 202.124755859375 105.07699584960938 196.1300048828125 110.61065673828124 187.36834716796875 112.91635131835938 179.9901123046875 109.22723388671876 175.3787841796875 104.15472412109376 173.07305908203125 100.9267578125 171.68963623046875 99.5433349609375 169.8450927734375 100.00448608398438 166.156005859375 105.53814697265624 159.2388916015625 117.52774047851563 151.8607177734375 129.0561981201172 145.86590576171875 136.43438720703125 141.71566772460938 140.58462524414063 139.41000366210938 142.42918395996094 138.94882202148438 142.42918395996094 141.71566772460938 141.04576110839844 151.39959716796875 137.35667419433594 164.31146240234375 133.2064208984375 175.83984375 130.90072631835938 183.2181396484375 129.97845458984375 187.36834716796875 129.51731872558594 188.2906494140625 129.51731872558594 188.751708984375 129.51731872558594 188.2906494140625 129.97845458984375 186.9072265625 134.12869262695313 182.7569580078125 143.35147094726563 179.52899169921875 149.80740356445313 166.61712646484375 172.86428833007813 153.70526123046875 189.00411987304688 138.48773193359375 201.91598510742188 126.49813842773438 209.75534057617188 118.65878295898438 214.36669921875 115.89193725585938 214.82785034179688 118.19760131835938 212.9833068847656 136.1820068359375 204.2216796875 160.622314453125 196.84347534179688 172.6119384765625 194.07666015625 205.35272216796875 191.309814453125 222.414794921875 194.07666015625 222.414794921875 194.07666015625 " />
        </svg>