<?xml version="1.0" standalone="no"?>
    <svg width="256" height="256" xmlns="http://www.w3.org/2000/svg" version="1.1">
    <polyline stroke="black" stroke-width="3" stroke-linecap="round" fill="transparent" stroke-linejoin="round" points="48 99 55 98 65 95 75 92 85 89 94 85 94 85 " />
        <polyline stroke="black" stroke-width="3" stroke-linecap="round" fill="transparent" stroke-linejoin="round" points="77 101 73 106 67 120 59 140 52 156 46 171 43 180 42 184 42 184 " />
        <polyline stroke="black" stroke-width="3" stroke-linecap="round" fill="transparent" stroke-linejoin="round" points="77 130 82 128 88 126 93 126 97 126 99 127 101 135 102 147 102 156 102 166 98 175 93 182 87 187 81 189 74 190 69 189 69 189 " />
        <polyline stroke="black" stroke-width="3" stroke-linecap="round" fill="transparent" stroke-linejoin="round" points="116 88 116 99 118 111 121 123 123 128 125 133 125 133 " />
        <polyline stroke="black" stroke-width="3" stroke-linecap="round" fill="transparent" stroke-linejoin="round" points="123 88 127 87 138 84 149 82 159 80 166 80 171 80 174 80 178 88 180 98 181 109 181 118 181 122 180 123 180 123 " />
        <polyline stroke="black" stroke-width="3" stroke-linecap="round" fill="transparent" stroke-linejoin="round" points="154 88 154 92 154 103 154 113 154 120 153 123 153 123 " />
        <polyline stroke="black" stroke-width="3" stroke-linecap="round" fill="transparent" stroke-linejoin="round" points="134 123 144 123 155 123 165 123 172 123 178 123 178 123 " />
        <polyline stroke="black" stroke-width="3" stroke-linecap="round" fill="transparent" stroke-linejoin="round" points="160 136 160 141 160 153 160 164 161 173 161 178 161 181 161 181 " />
        <polyline stroke="black" stroke-width="3" stroke-linecap="round" fill="transparent" stroke-linejoin="round" points="125 183 135 183 147 181 160 180 166 180 175 180 184 180 191 180 196 180 197 180 197 180 " />
        </svg>