<?xml version="1.0" standalone="no"?>
    <svg width="256" height="256" xmlns="http://www.w3.org/2000/svg" version="1.1">
    <polyline stroke="black" stroke-width="3" stroke-linecap="round" fill="transparent" stroke-linejoin="round" points="56.96990966796875 93.62197875976563 59.571380615234375 102.33677673339844 61.62652587890625 108.00790405273438 63.265380859375 112.06614685058594 64.54010009765625 114.04324340820313 64.54010009765625 114.04324340820313 " />
        <polyline stroke="black" stroke-width="3" stroke-linecap="round" fill="transparent" stroke-linejoin="round" points="94.3265380859375 71.76991271972656 102.23492431640624 70.0789794921875 110.429443359375 68.38804626464844 118.91012573242188 66.72311401367188 127.44284057617188 65.21427917480469 135.45526123046875 63.679443359375 141.41253662109375 62.69090270996094 147.76004028320313 61.57228088378906 152.156494140625 60.791839599609375 158.8681640625 59.647216796875 165.18963623046875 58.892822265625 168.103271484375 58.528594970703125 169.69012451171875 58.32049560546875 171.2249755859375 58.11236572265625 171.485107421875 58.08634948730469 171.849365234375 58.034332275390625 173.95654296875 58.060333251953125 174.68487548828125 58.55461120605469 174.008544921875 59.75128173828125 172.00543212890625 61.88444519042969 169.19586181640625 64.92813110351563 165.55389404296875 68.77825927734375 162.38006591796875 72.03005981445313 158.8681640625 75.38589477539063 154.99200439453125 79.15798950195313 150.98580932617188 83.55442810058594 150.98580932617188 83.55442810058594 " />
        <polyline stroke="black" stroke-width="3" stroke-linecap="round" fill="transparent" stroke-linejoin="round" points="88.759521484375 110.9995574951172 86.60025024414063 123.0962371826172 85.0654296875 135.84326171875 82.04779052734375 151.11370849609375 77.05300903320313 164.69320678710938 72.9427490234375 173.0438232421875 69.40478515625 178.76698303222656 67.947998046875 181.68055725097656 67.27157592773438 182.20089721679688 67.27157592773438 182.20089721679688 " />
        <polyline stroke="black" stroke-width="3" stroke-linecap="round" fill="transparent" stroke-linejoin="round" points="101.92279052734376 101.42626953125 107.46380615234376 101.11412048339844 112.17242431640624 100.72390747070313 115.89242553710938 100.04751586914063 119.09222412109376 100.80192565917967 122.526123046875 102.41482543945313 123.59271240234376 103.76756286621094 123.35858154296876 108.47616577148438 121.22537231445313 117.47714233398438 117.99960327148438 127.726806640625 115.81439208984376 134.8026885986328 112.74468994140624 142.39889526367188 110.50747680664063 149.4227752685547 109.33685302734376 154.54759216308594 109.85708618164063 160.2447509765625 111.28793334960938 165.0834197998047 114.72177124023438 170.65048217773438 121.25140380859376 174.6306915283203 131.08480834960938 175.3070526123047 136.62591552734375 176.3216094970703 141.4906005859375 176.89393615722656 146.01705932617188 177.07601928710938 148.30633544921875 177.10203552246094 154.91400146484375 176.84188842773438 159.8306884765625 175.87936401367188 164.3311767578125 175.25502014160156 169.66412353515625 175.15097045898438 173.3321533203125 174.81277465820313 176.6619873046875 173.4080047607422 179.18536376953125 172.31539916992188 180.38201904296875 171.613037109375 183.009521484375 169.27175903320313 183.7899169921875 167.65882873535156 184.05010986328125 165.05740356445313 182.43719482421875 158.76193237304688 179.88775634765625 151.79006958007813 176.1937255859375 146.24900817871094 169.14385986328125 141.2542724609375 164.27911376953125 139.87551879882813 164.27911376953125 139.87551879882813 " />
        </svg>