<?xml version="1.0" standalone="no"?>
    <svg width="256" height="256" xmlns="http://www.w3.org/2000/svg" version="1.1">
    <polyline stroke="black" stroke-width="3" stroke-linecap="round" fill="transparent" stroke-linejoin="round" points="84.10693359375 44.74999237060547 72.476806640625 65.56184387207031 57.78607177734375 88.21003723144531 47.99224853515625 100.45230102539063 41.871124267578125 108.40977478027344 41.871124267578125 108.40977478027344 " />
        <polyline stroke="black" stroke-width="3" stroke-linecap="round" fill="transparent" stroke-linejoin="round" points="87.77963256835938 113.3066864013672 79.8221435546875 127.3852996826172 69.41622924804688 143.912353515625 60.234527587890625 156.76673889160156 54.1134033203125 165.33631896972656 54.1134033203125 165.33631896972656 " />
        <polyline stroke="black" stroke-width="3" stroke-linecap="round" fill="transparent" stroke-linejoin="round" points="89.615966796875 167.78477478027344 76.7615966796875 195.32986450195313 67.57989501953125 209.40847778320313 59.01031494140625 217.97805786132813 51.6649169921875 222.87496948242188 51.6649169921875 222.87496948242188 " />
        <polyline stroke="black" stroke-width="3" stroke-linecap="round" fill="transparent" stroke-linejoin="round" points="205.91748046875 63.11338806152344 188.166259765625 82.08891296386719 158.17266845703125 110.85823059082033 136.74868774414063 125.5489501953125 120.833740234375 134.73065185546875 110.42782592773438 137.7912139892578 110.42782592773438 137.7912139892578 " />
        <polyline stroke="black" stroke-width="3" stroke-linecap="round" fill="transparent" stroke-linejoin="round" points="150.82730102539063 76.57987976074219 144.09405517578125 116.9793701171875 141.64559936523438 145.74868774414063 142.25772094726563 169.62110900878906 145.93038940429688 186.76028442382813 153.88787841796875 200.22677612304688 164.2938232421875 207.5721435546875 176.53607177734375 211.85693359375 186.9420166015625 211.85693359375 194.287353515625 210.0205993652344 199.79638671875 205.73580932617188 204.0811767578125 199.0025634765625 205.91748046875 189.208740234375 205.91748046875 152.48194885253906 205.91748046875 152.48194885253906 " />
        </svg>