<?xml version="1.0" standalone="no"?>
    <svg width="256" height="256" xmlns="http://www.w3.org/2000/svg" version="1.1">
    <polyline stroke="black" stroke-width="3" stroke-linecap="round" fill="transparent" stroke-linejoin="round" points="68.65682983398438 114.47996520996094 98.71868896484376 106.52239990234376 110.655029296875 104.75405883789063 137.18017578125 101.65945434570313 150.00070190429688 100.7752685546875 171.2208251953125 99.00692749023438 185.8096923828125 98.1227569580078 194.6513671875 97.23858642578124 194.6513671875 97.23858642578124 " />
        <polyline stroke="black" stroke-width="3" stroke-linecap="round" fill="transparent" stroke-linejoin="round" points="72.63558959960938 37.11485290527344 73.07769775390625 48.609092712402344 73.96185302734375 56.566650390625 75.73019409179688 72.0396728515625 76.61434936523438 81.323486328125 78.38275146484375 99.4490203857422 80.15106201171875 115.80621337890624 81.477294921875 128.626708984375 81.91940307617188 133.93174743652344 82.80355834960938 144.0997314453125 83.24566650390625 146.3101806640625 83.24566650390625 146.3101806640625 " />
        <polyline stroke="black" stroke-width="3" stroke-linecap="round" fill="transparent" stroke-linejoin="round" points="117.28631591796876 48.609092712402344 118.612548828125 71.15550231933594 118.612548828125 83.53390502929688 117.28631591796876 108.29074096679688 115.5179443359375 128.626708984375 115.07589721679688 137.0263671875 115.07589721679688 148.07852172851563 114.6337890625 154.26773071289063 115.07589721679688 155.59397888183594 115.07589721679688 155.59397888183594 " />
        <polyline stroke="black" stroke-width="3" stroke-linecap="round" fill="transparent" stroke-linejoin="round" points="166.79998779296875 51.70369720458984 166.79998779296875 70.27133178710938 166.79998779296875 91.04937744140624 166.79998779296875 114.47996520996094 166.79998779296875 125.97418212890624 166.79998779296875 156.0360565185547 166.79998779296875 163.10943603515625 165.915771484375 175.929931640625 165.4737548828125 185.6558532714844 164.1474609375 194.93963623046875 164.1474609375 194.93963623046875 " />
        </svg>