<?xml version="1.0" standalone="no"?>
    <svg width="256" height="256" xmlns="http://www.w3.org/2000/svg" version="1.1">
    <polyline stroke="black" stroke-width="3" stroke-linecap="round" fill="transparent" stroke-linejoin="round" points="44 140 50 139 59 139 71 139 90 136 111 132 132 127 152 122 167 120 178 118 185 117 188 117 189 117 189 117 " />
        <polyline stroke="black" stroke-width="3" stroke-linecap="round" fill="transparent" stroke-linejoin="round" points="97 88 96 92 96 100 96 111 96 127 96 147 94 167 91 186 89 201 85 215 83 224 81 229 79 231 75 232 75 232 " />
        <polyline stroke="black" stroke-width="3" stroke-linecap="round" fill="transparent" stroke-linejoin="round" points="136 85 133 94 133 103 133 116 131 130 131 147 130 163 130 176 130 186 130 192 130 197 130 198 131 191 131 191 " />
        <polyline stroke="black" stroke-width="3" stroke-linecap="round" fill="transparent" stroke-linejoin="round" points="180 58 175 64 175 71 173 81 172 95 170 113 168 136 168 160 168 182 168 196 168 208 168 208 " />
        </svg>