<?xml version="1.0" standalone="no"?>
    <svg width="256" height="256" xmlns="http://www.w3.org/2000/svg" version="1.1">
    <polyline stroke="black" stroke-width="3" stroke-linecap="round" fill="transparent" stroke-linejoin="round" points="53.375823974609375 73.12391662597656 70.58126831054688 66.76539611816406 87.78671264648438 60.40687561035156 108.3583984375 54.796409606933594 118.08319091796876 52.92626190185547 133.79248046875 50.30804443359375 144.26531982421875 48.437889099121094 149.50177001953125 47.68983459472656 151.7459716796875 46.94176483154297 152.1199951171875 46.56774139404297 152.1199951171875 46.56774139404297 " />
        <polyline stroke="black" stroke-width="3" stroke-linecap="round" fill="transparent" stroke-linejoin="round" points="134.16647338867188 53.67433166503906 133.41842651367188 59.2847900390625 132.67037963867188 64.89524841308594 131.54827880859375 71.62779235839844 128.18197631835938 84.3448486328125 128.18197631835938 84.3448486328125 " />
        <polyline stroke="black" stroke-width="3" stroke-linecap="round" fill="transparent" stroke-linejoin="round" points="81.05413818359375 124.36611938476563 80.68011474609375 128.8544921875 80.30609130859375 133.34286499023438 80.30609130859375 137.83123779296875 80.30609130859375 146.05990600585938 80.30609130859375 147.9300537109375 80.30609130859375 148.30410766601563 80.30609130859375 148.30410766601563 " />
        <polyline stroke="black" stroke-width="3" stroke-linecap="round" fill="transparent" stroke-linejoin="round" points="78.43588256835938 117.25953674316408 90.40487670898438 108.28280639648438 102.37387084960938 99.30607604980467 116.5870361328125 91.82545471191406 132.67037963867188 88.08514404296875 145.76144409179688 88.08514404296875 151.3719482421875 89.20724487304688 163.7149658203125 97.4359130859375 166.7071533203125 101.55026245117188 171.943603515625 119.50372314453124 168.95135498046875 131.4727020263672 166.7071533203125 135.5870361328125 166.7071533203125 135.5870361328125 " />
        <polyline stroke="black" stroke-width="3" stroke-linecap="round" fill="transparent" stroke-linejoin="round" points="121.82348632812499 116.51148986816406 120.70138549804688 123.99209594726563 119.57928466796876 131.4727020263672 116.5870361328125 143.8157196044922 113.22079467773438 152.41842651367188 113.22079467773438 152.41842651367188 " />
        <polyline stroke="black" stroke-width="3" stroke-linecap="round" fill="transparent" stroke-linejoin="round" points="103.8699951171875 130.35061645507813 109.8544921875 128.10643005371094 115.8389892578125 125.86224365234376 121.449462890625 123.99209594726563 127.43392944335938 122.4959716796875 137.15875244140625 121.74790954589844 141.2730712890625 123.61807250976563 141.2730712890625 123.61807250976563 " />
        <polyline stroke="black" stroke-width="3" stroke-linecap="round" fill="transparent" stroke-linejoin="round" points="90.77886962890624 169.99789428710938 98.633544921875 165.13548278808594 106.48822021484376 160.2730712890625 113.96884155273438 155.7847137451172 130.42620849609375 147.18199157714844 146.509521484375 141.571533203125 146.509521484375 141.571533203125 " />
        <polyline stroke="black" stroke-width="3" stroke-linecap="round" fill="transparent" stroke-linejoin="round" points="88.53472900390625 192.439697265625 85.16845703125 202.53854370117188 81.80218505859375 212.63739013671875 78.80999755859375 221.6141357421875 74.69561767578125 234.7052001953125 73.57354736328125 238.81951904296875 72.825439453125 241.063720703125 72.825439453125 241.81179809570313 72.825439453125 241.81179809570313 " />
        <polyline stroke="black" stroke-width="3" stroke-linecap="round" fill="transparent" stroke-linejoin="round" points="119.20526123046872 173.36415100097656 124.44171142578124 171.11996459960938 129.67816162109375 168.8757781982422 139.40292358398438 165.88352966308594 147.257568359375 166.631591796875 153.9901123046875 171.11996459960938 160.72265625 181.5928192138672 163.3409423828125 189.44747924804688 164.4630126953125 211.88931274414065 159.6005859375 221.9881591796875 145.01339721679688 230.59088134765625 145.01339721679688 230.59088134765625 " />
        <polyline stroke="black" stroke-width="3" stroke-linecap="round" fill="transparent" stroke-linejoin="round" points="38.41461181640625 207.0269470214844 49.63555908203125 203.28662109375 60.85650634765625 199.5462951660156 74.69561767578125 196.18002319335935 103.8699951171875 192.065673828125 146.135498046875 192.43972778320313 173.065673828125 193.93585205078125 185.03466796875 195.05792236328125 214.9571533203125 199.92034912109375 214.9571533203125 199.92034912109375 " />
        </svg>