<?xml version="1.0" standalone="no"?>
    <svg width="256" height="256" xmlns="http://www.w3.org/2000/svg" version="1.1">
    <polyline stroke="black" stroke-width="3" stroke-linecap="round" fill="transparent" stroke-linejoin="round" points="95.88153076171876 39.356178283691406 112.93896484375 33.241233825683594 123.23776245117188 29.057334899902344 132.57110595703125 25.195274353027344 140.61709594726563 22.620559692382813 146.73199462890625 20.689537048339844 149.95037841796875 20.045852661132813 150.59405517578125 20.045852661132813 150.59405517578125 24.229759216308594 146.08831787109375 34.206764221191406 138.36419677734375 49.33316802978515 132.57110595703125 64.13774108886719 126.77804565429688 75.402099609375 125.8125 78.29864501953125 125.8125 78.29864501953125 " />
        <polyline stroke="black" stroke-width="3" stroke-linecap="round" fill="transparent" stroke-linejoin="round" points="105.21481323242188 62.528564453125 98.45620727539063 77.976806640625 94.27230834960938 88.91932678222656 90.41021728515624 100.50552368164063 87.19183349609375 109.19515991210938 86.226318359375 115.95376586914063 86.87005615234375 119.81584167480467 93.30679321289063 119.81584167480467 110.68609619140624 114.02273559570313 131.28372192382813 105.33309936523438 149.6285400390625 99.21815490722656 164.43316650390625 95.03425598144533 175.697509765625 92.45954895019533 184.38714599609375 92.45954895019533 191.7894287109375 94.39059448242188 196.61700439453125 97.93080139160156 200.47906494140625 103.40206909179688 203.69744873046875 113.70089721679688 205.306640625 130.43650817871094 200.47906494140625 154.2525634765625 191.7894287109375 180.3214874267578 184.708984375 198.9881591796875 178.593994140625 211.53985595703125 173.7664794921875 218.2984619140625 164.111328125 218.2984619140625 146.73199462890625 200.91915893554688 146.73199462890625 200.91915893554688 " />
        <polyline stroke="black" stroke-width="3" stroke-linecap="round" fill="transparent" stroke-linejoin="round" points="100.38726806640624 133.01123046875 113.90444946289063 125.93077087402344 122.27224731445313 122.39054870605467 129.674560546875 118.52848815917967 136.43316650390625 114.66641235351563 139.00787353515625 112.41354370117188 139.00787353515625 112.41354370117188 " />
        <polyline stroke="black" stroke-width="3" stroke-linecap="round" fill="transparent" stroke-linejoin="round" points="109.07687377929688 132.36753845214844 103.60565185546876 146.52842712402344 99.099853515625 156.82728576660156 93.62863159179688 168.41346740722656 88.80105590820313 177.10311889648438 86.54815673828125 179.67779541015625 86.54815673828125 179.67779541015625 " />
        <polyline stroke="black" stroke-width="3" stroke-linecap="round" fill="transparent" stroke-linejoin="round" points="132.8929443359375 146.20660400390625 142.548095703125 152.96522521972656 152.846923828125 159.40199279785156 159.28369140625 162.94223022460938 165.720458984375 167.4479522705078 165.720458984375 167.4479522705078 " />
        </svg>