<?xml version="1.0" standalone="no"?>
    <svg width="256" height="256" xmlns="http://www.w3.org/2000/svg" version="1.1">
    <polyline stroke="black" stroke-width="3" stroke-linecap="round" fill="transparent" stroke-linejoin="round" points="83.79412841796875 76.12336730957031 95.6817626953125 70.17955017089844 108.16375732421876 64.23574829101563 121.24014282226563 59.48069763183594 135.50531005859375 54.72564697265625 147.9873046875 52.348121643066406 157.49737548828125 51.75374603271485 164.03558349609375 52.348121643066406 168.7906494140625 55.91441345214844 170.57379150390625 64.23574829101563 169.9793701171875 84.4447021484375 164.03558349609375 105.84242248535156 156.30859375 124.26823425292967 149.77044677734375 133.1839599609375 149.77044677734375 133.1839599609375 " />
        <polyline stroke="black" stroke-width="3" stroke-linecap="round" fill="transparent" stroke-linejoin="round" points="96.276123046875 99.30422973632813 94.49298095703124 109.40870666503906 93.30422973632813 120.10757446289063 93.89862060546876 127.8345184326172 95.08737182617188 133.77833557128906 96.87051391601563 137.93899536132813 100.43679809570313 140.3165283203125 105.19183349609376 140.3165283203125 116.485107421875 137.93899536132813 128.96710205078125 134.96710205078125 144.4210205078125 131.4008026123047 158.091796875 130.21205139160156 170.57379150390625 129.61766052246094 179.489501953125 131.4008026123047 186.0277099609375 136.15585327148438 193.754638671875 150.42100524902344 196.1322021484375 172.41310119628906 194.3489990234375 190.2445373535156 191.3770751953125 202.13217163085935 187.2164306640625 211.04788208007813 183.0557861328125 217.5860595703125 177.1119384765625 222.93548583984375 166.4130859375 225.90740966796875 145.60977172851563 218.18045043945313 145.60977172851563 218.18045043945313 " />
        <polyline stroke="black" stroke-width="3" stroke-linecap="round" fill="transparent" stroke-linejoin="round" points="68.93460083007813 173.60186767578125 79.63348388671875 173.0074920654297 92.7098388671875 171.22434997558594 106.9749755859375 168.84681701660156 118.86260986328124 167.0636749267578 128.37271118164063 166.46929931640625 135.50531005859375 166.46929931640625 141.4490966796875 165.28053283691406 147.39291381835938 162.30862426757813 147.39291381835938 162.30862426757813 " />
        <polyline stroke="black" stroke-width="3" stroke-linecap="round" fill="transparent" stroke-linejoin="round" points="108.75811767578124 159.3367156982422 90.92669677734376 178.35691833496094 76.06719970703125 194.40521240234375 65.36831665039063 206.29281616210935 59.42449951171875 212.83102416992188 57.641357421875 215.80291748046875 57.641357421875 215.80291748046875 " />
        <polyline stroke="black" stroke-width="3" stroke-linecap="round" fill="transparent" stroke-linejoin="round" points="114.10757446289063 183.11196899414065 120.645751953125 190.83892822265625 127.7783203125 197.97149658203125 133.72213745117188 208.07595825195313 133.72213745117188 208.07595825195313 " />
        </svg>