<?xml version="1.0" standalone="no"?>
    <svg width="256" height="256" xmlns="http://www.w3.org/2000/svg" version="1.1">
    <polyline stroke="black" stroke-width="3" stroke-linecap="round" fill="transparent" stroke-linejoin="round" points="118.12432861328124 65.28567504882813 135.7391357421875 59.4140625 145.2806396484375 55.74430847167969 150.418212890625 53.542449951171875 155.555908203125 52.07453918457031 156.289794921875 51.34059143066406 156.289794921875 52.80851745605469 155.555908203125 55.010345458984375 154.0880126953125 59.4140625 148.2164306640625 77.76284790039063 146.0145263671875 87.30422973632813 146.0145263671875 92.44189453125 143.812744140625 99.78138732910156 143.812744140625 99.78138732910156 " />
        <polyline stroke="black" stroke-width="3" stroke-linecap="round" fill="transparent" stroke-linejoin="round" points="101.24346923828124 93.1758270263672 95.37188720703124 107.12091064453124 91.7021484375 114.46043395996094 90.2342529296875 117.39625549316406 90.9681396484375 118.13018798828124 96.10577392578124 116.66227722167967 109.31689453125 110.79066467285156 126.9317626953125 104.1851043701172 150.418212890625 100.5153350830078 163.62939453125 99.78138732910156 171.7027587890625 99.78138732910156 175.37255859375 99.78138732910156 179.7762451171875 101.98324584960938 180.51025390625 107.12091064453124 176.8404541015625 119.59808349609376 171.7027587890625 138.68081665039063 166.565185546875 157.0296173095703 162.1614990234375 173.91049194335938 157.0238037109375 195.92904663085935 154.8218994140625 204.0025329589844 153.35400390625 208.40621948242188 151.1522216796875 212.07598876953125 147.482421875 210.60809326171875 141.61083984375 206.20437622070313 141.61083984375 206.20437622070313 " />
        <polyline stroke="black" stroke-width="3" stroke-linecap="round" fill="transparent" stroke-linejoin="round" points="96.10577392578124 146.75430297851563 115.1885986328125 138.68081665039063 132.0694580078125 133.54315185546875 146.0145263671875 130.60736083984375 152.6201171875 128.40553283691406 154.8218994140625 124.73576354980467 154.8218994140625 124.73576354980467 " />
        <polyline stroke="black" stroke-width="3" stroke-linecap="round" fill="transparent" stroke-linejoin="round" points="118.12432861328124 124.00180053710938 114.45458984375 139.41481018066406 108.5830078125 154.8277587890625 101.24346923828124 169.5067901611328 93.1700439453125 180.51605224609375 86.564453125 187.8555908203125 81.42681884765625 189.323486328125 81.42681884765625 189.323486328125 " />
        <polyline stroke="black" stroke-width="3" stroke-linecap="round" fill="transparent" stroke-linejoin="round" points="126.19781494140624 155.5617218017578 139.408935546875 170.9746856689453 154.0880126953125 182.71792602539065 168.0330810546875 192.25927734375 181.9781494140625 198.1309509277344 181.9781494140625 198.1309509277344 " />
        </svg>