<?xml version="1.0" standalone="no"?>
    <svg width="256" height="256" xmlns="http://www.w3.org/2000/svg" version="1.1">
    <polyline stroke="black" stroke-width="3" stroke-linecap="round" fill="transparent" stroke-linejoin="round" points="96.49154663085938 81.14727783203125 116.69564819335938 73.4697265625 140.94061279296875 65.79214477539063 152.2548828125 62.55949401855469 162.7611083984375 59.73091125488281 180.54071044921875 55.690086364746094 193.87542724609375 54.073753356933594 193.87542724609375 54.073753356933594 " />
        <polyline stroke="black" stroke-width="3" stroke-linecap="round" fill="transparent" stroke-linejoin="round" points="89.62213134765625 162.36788940429688 85.17721557617188 177.31893920898438 77.4996337890625 201.56390380859375 75.07516479492188 209.241455078125 73.05474853515625 215.30270385742188 73.05474853515625 215.30270385742188 " />
        <polyline stroke="black" stroke-width="3" stroke-linecap="round" fill="transparent" stroke-linejoin="round" points="116.29159545898438 112.66574096679688 123.96917724609376 106.6044921875 131.24264526367188 100.94732666015624 151.04266357421875 89.63302612304688 162.7611083984375 85.1881103515625 170.84271240234375 84.37994384765625 176.4998779296875 88.01669311523438 184.58154296875 110.6453094482422 187.00604248046875 143.7800750732422 184.17742919921875 171.66177368164063 180.1365966796875 187.8250732421875 174.883544921875 198.73529052734375 167.20599365234375 205.60470581054688 149.83041381835938 210.8577880859375 149.83041381835938 210.8577880859375 " />
        <polyline stroke="black" stroke-width="3" stroke-linecap="round" fill="transparent" stroke-linejoin="round" points="47.193450927734375 156.306640625 62.548583984375 149.43724060058594 80.7322998046875 141.75967407226563 128.818115234375 126.80862426757813 157.912109375 122.36370849609376 184.17742919921875 121.15147399902344 205.189697265625 122.36370849609376 227.01019287109375 128.8290252685547 227.01019287109375 128.8290252685547 " />
        </svg>