<?xml version="1.0" standalone="no"?>
    <svg width="256" height="256" xmlns="http://www.w3.org/2000/svg" version="1.1">
    <polyline stroke="black" stroke-width="3" stroke-linecap="round" fill="transparent" stroke-linejoin="round" points="94.63949584960938 54.812530517578125 108.97869873046876 49.8834228515625 136.3128662109375 42.71380615234375 148.41156005859375 40.47331237792969 160.06219482421875 39.12901306152344 183.36346435546875 38.23280334472656 188.2926025390625 38.23280334472656 188.2926025390625 38.23280334472656 " />
        <polyline stroke="black" stroke-width="3" stroke-linecap="round" fill="transparent" stroke-linejoin="round" points="95.98382568359376 141.29598999023438 94.63949584960938 154.29092407226563 91.50277709960938 177.14404296875 89.71038818359375 186.1060791015625 86.57366943359375 199.54910278320313 83.88510131835938 207.61492919921875 82.540771484375 208.5111083984375 81.64453125 207.16680908203125 81.64453125 195.51617431640625 84.78125 174.00735473632813 93.295166015625 150.7061004638672 103.60150146484376 131.4377899169922 113.0115966796875 118.44285583496094 122.86984252929688 109.03274536132813 133.624267578125 101.86312866210938 144.82675170898438 96.48590087890624 155.133056640625 93.34919738769533 162.7508544921875 92.4530029296875 168.57611083984375 95.1416015625 175.297607421875 106.3441162109375 182.0191650390625 130.09349060058594 186.05206298828125 156.08331298828125 188.2926025390625 178.48834228515625 187.844482421875 193.72378540039065 184.707763671875 204.47821044921875 182.0191650390625 207.61492919921875 168.1280517578125 212.54400634765625 168.1280517578125 212.54400634765625 " />
        <polyline stroke="black" stroke-width="3" stroke-linecap="round" fill="transparent" stroke-linejoin="round" points="67.30535888671875 182.0731658935547 78.9559326171875 179.38455200195313 91.50277709960938 176.2478485107422 118.38885498046876 169.52633666992188 160.95843505859375 161.90863037109375 190.5330810546875 158.77191162109375 203.07989501953125 157.4276123046875 222.3482666015625 156.5314178466797 229.517822265625 156.9795379638672 229.517822265625 156.9795379638672 " />
        </svg>