<?xml version="1.0" standalone="no"?>
    <svg width="256" height="256" xmlns="http://www.w3.org/2000/svg" version="1.1">
    <polyline stroke="black" stroke-width="3" stroke-linecap="round" fill="transparent" stroke-linejoin="round" points="103.4453125 71.89125061035156 126.9317626953125 67.48751831054688 148.9503173828125 64.55172729492188 168.0330810546875 63.08381652832031 178.308349609375 62.34989929199219 185.64794921875 61.61590576171875 185.64794921875 61.61590576171875 " />
        <polyline stroke="black" stroke-width="3" stroke-linecap="round" fill="transparent" stroke-linejoin="round" points="91.7021484375 137.21292114257813 87.29840087890625 158.49752807617188 79.95892333984375 181.9839782714844 76.28912353515625 190.05743408203125 75.55517578125 192.9932556152344 74.8212890625 189.323486328125 74.8212890625 189.323486328125 " />
        <polyline stroke="black" stroke-width="3" stroke-linecap="round" fill="transparent" stroke-linejoin="round" points="119.59222412109376 93.9097900390625 126.19781494140624 91.70794677734376 140.1429443359375 88.03819274902344 148.9503173828125 86.57026672363281 156.289794921875 85.83631896972656 159.9595947265625 85.10237121582031 162.8953857421875 85.10237121582031 163.62939453125 85.83631896972656 163.62939453125 101.2493133544922 162.8953857421875 125.46971130371094 162.1614990234375 148.95614624023438 161.427490234375 169.5067901611328 160.693603515625 186.38766479492188 159.2257080078125 198.8648681640625 157.0238037109375 208.40621948242188 155.555908203125 212.07598876953125 152.6201171875 214.27783203125 146.0145263671875 210.60809326171875 146.0145263671875 210.60809326171875 " />
        <polyline stroke="black" stroke-width="3" stroke-linecap="round" fill="transparent" stroke-linejoin="round" points="66.0137939453125 150.424072265625 91.7021484375 143.8184814453125 120.32623291015624 139.41481018066406 151.88623046875 137.21292114257813 192.25341796875 137.94686889648438 211.3363037109375 138.68081665039063 221.611572265625 138.68081665039063 226.01513671875 139.41481018066406 231.1529541015625 140.88267517089844 231.1529541015625 140.88267517089844 " />
        </svg>