<?xml version="1.0" standalone="no"?>
    <svg width="256" height="256" xmlns="http://www.w3.org/2000/svg" version="1.1">
    <polyline stroke="black" stroke-width="3" stroke-linecap="round" fill="transparent" stroke-linejoin="round" points="52.31304931640625 93.55018615722656 65.287109375 89.62773132324219 78.26116943359375 85.70527648925781 110.575927734375 77.90911865234375 152.31500244140625 75.61050415039063 175.3194580078125 76.85264587402344 189.03289794921875 79.1768798828125 202.82501220703125 84.41848754882813 207.827392578125 86.42880249023438 211.07904052734375 88.05926513671875 211.108642578125 88.07412719726563 211.1107177734375 88.07516479492188 211.11126708984375 88.07545471191406 " />
        <polyline stroke="black" stroke-width="3" stroke-linecap="round" fill="transparent" stroke-linejoin="round" points="87.10354614257813 36.91773986816406 90.3768310546875 60.26502990722656 93.65011596679688 83.61231994628906 94.84613037109376 98.10421752929688 95.13140869140624 108.53141784667967 95.20654296875 124.45188903808594 94.775634765625 128.71441650390625 94.66305541992188 128.871337890625 94.65170288085938 128.88717651367188 94.651123046875 128.8879852294922 94.98983764648438 128.99478149414063 96.84661865234376 129.7127685546875 98.70565795898438 130.64976501464844 102.43402099609376 132.36729431152344 103.33749389648438 132.6676483154297 " />
        <polyline stroke="black" stroke-width="3" stroke-linecap="round" fill="transparent" stroke-linejoin="round" points="152.93939208984375 41.93949890136719 151.747314453125 65.2506103515625 150.55523681640625 88.56172180175781 148.64682006835938 102.73776245117188 143.24456787109375 127.74630737304688 140.11163330078125 135.42855834960938 121.720947265625 152.52818298339844 120.3114013671875 153.5908660888672 " />
        <polyline stroke="black" stroke-width="3" stroke-linecap="round" fill="transparent" stroke-linejoin="round" points="113.674560546875 140.7076416015625 122.98556518554688 138.25051879882813 132.29656982421875 135.79339599609375 147.7001953125 133.14529418945313 160.943603515625 132.733642578125 167.13885498046875 133.36785888671875 167.1951904296875 133.37362670898438 " />
        <polyline stroke="black" stroke-width="3" stroke-linecap="round" fill="transparent" stroke-linejoin="round" points="56.49139404296875 191.77880859375006 67.16229248046875 189.88931274414065 77.83319091796875 187.99981689453125 98.23260498046876 184.6016540527344 139.45455932617188 178.846435546875 152.6607666015625 176.68508911132813 174.5274658203125 175.23095703125 193.0125732421875 175.27734375 201.05926513671875 177.67027282714844 204.0244140625 178.99234008789063 206.48876953125 180.13592529296875 206.733154296875 181.0798797607422 206.7352294921875 181.0877685546875 206.7357177734375 181.08984375 " />
        </svg>