<?xml version="1.0" standalone="no"?>
    <svg width="256" height="256" xmlns="http://www.w3.org/2000/svg" version="1.1">
    <polyline stroke="black" stroke-width="3" stroke-linecap="round" fill="transparent" stroke-linejoin="round" points="53.46044921875 105.94117736816405 65.46063232421875 103.04727172851563 77.4608154296875 100.1533660888672 91.04638671875 97.18048095703124 123.12435913085938 92.67245483398438 139.80355834960938 90.76573181152344 149.95697021484375 89.86297607421875 176.03955078125 88.5728759765625 181.690185546875 88.72323608398438 183.5458984375 88.64360046386719 183.7498779296875 88.63485717773438 183.7513427734375 88.63479614257813 183.75189208984375 88.63478088378906 183.75201416015625 88.63478088378906 " />
        <polyline stroke="black" stroke-width="3" stroke-linecap="round" fill="transparent" stroke-linejoin="round" points="85.10086059570313 73.41775512695313 84.48193359375 96.35147094726563 83.86300659179688 119.28518676757813 82.99801635742188 130.37005615234375 81.60568237304688 144.58401489257813 81.21917724609375 148.0955047607422 82.09295654296875 151.35015869140625 82.65960693359375 152.59959411621094 84.18597412109375 153.91217041015625 85.11053466796875 154.4275360107422 87.88510131835938 155.47476196289063 97.838623046875 156.68316650390625 110.699951171875 156.3033905029297 128.1656494140625 154.31309509277344 135.19061279296875 153.58848571777344 145.27874755859375 152.73008728027344 166.01470947265625 151.66867065429688 167.0458984375 151.68515014648438 167.1572265625 151.6869354248047 167.15887451171875 151.68698120117188 " />
        <polyline stroke="black" stroke-width="3" stroke-linecap="round" fill="transparent" stroke-linejoin="round" points="151.4034423828125 24.467300415039063 156.3968505859375 47.967674255371094 161.3902587890625 71.46804809570313 162.75439453125 83.76980590820313 165.2266845703125 110.03536987304688 166.182861328125 121.29014587402344 167.44183349609375 132.63450622558594 167.4473876953125 135.099365234375 166.9427490234375 138.74951171875 165.93994140625 140.9530029296875 165.8609619140625 141.12669372558594 " />
        <polyline stroke="black" stroke-width="3" stroke-linecap="round" fill="transparent" stroke-linejoin="round" points="58.087646484375 205.35400390625 67.82321166992188 202.644287109375 77.55877685546875 199.9345703125 87.17755126953125 197.16665649414065 98.64694213867188 194.4019775390625 140.40496826171875 190.0030517578125 150.2122802734375 189.74478149414065 182.4482421875 189.47564697265625 188.9163818359375 189.66064453125 199.216552734375 190.17071533203125 207.5667724609375 190.57623291015625 210.35565185546875 190.73660278320313 212.0479736328125 190.89239501953125 212.066162109375 190.89407348632813 " />
        </svg>