<?xml version="1.0" standalone="no"?>
    <svg width="256" height="256" xmlns="http://www.w3.org/2000/svg" version="1.1">
    <polyline stroke="black" stroke-width="3" stroke-linecap="round" fill="transparent" stroke-linejoin="round" points="54.4925537109375 107.3129425048828 69.5057373046875 102.69351196289063 112.23553466796876 89.41262817382813 128.98098754882813 84.21575927734375 148.61358642578125 77.28660583496094 163.62677001953125 72.08973693847656 174.0205078125 68.0477294921875 179.2174072265625 65.16056823730469 180.94964599609375 61.118560791015625 180.94964599609375 61.118560791015625 " />
        <polyline stroke="black" stroke-width="3" stroke-linecap="round" fill="transparent" stroke-linejoin="round" points="101.26434326171876 69.78001403808594 97.79977416992188 81.90603637695313 93.75775146484376 100.9612274169922 90.87060546875 122.3261260986328 88.5609130859375 136.18443298339844 88.5609130859375 147.7330322265625 90.29318237304688 154.6621856689453 94.91262817382813 158.70419311523438 101.841796875 159.8590545654297 115.1226806640625 156.97190856933594 127.82611083984376 150.04275512695313 141.10699462890625 139.0715789794922 154.38787841796875 122.90354919433594 164.7816162109375 105.58065795898438 171.13336181640625 91.72235107421876 171.13336181640625 91.72235107421876 " />
        <polyline stroke="black" stroke-width="3" stroke-linecap="round" fill="transparent" stroke-linejoin="round" points="138.79730224609375 36.86651611328125 139.9521484375 54.766845703125 141.10699462890625 68.62515258789063 143.416748046875 84.21575927734375 145.14901733398438 100.9612274169922 143.416748046875 122.90354919433594 138.79730224609375 141.958740234375 138.79730224609375 141.958740234375 " />
        <polyline stroke="black" stroke-width="3" stroke-linecap="round" fill="transparent" stroke-linejoin="round" points="61.42169189453125 210.095458984375 71.23800659179688 203.74371337890625 82.20916748046875 198.54684448242188 100.68692016601563 191.04025268554688 126.09381103515624 182.95623779296875 154.96533203125 177.18194580078125 172.86566162109375 174.8722381591797 190.7659912109375 172.56251525878906 202.8919677734375 171.40765380859375 208.666259765625 171.40765380859375 208.666259765625 171.40765380859375 " />
        </svg>