<?xml version="1.0" standalone="no"?>
    <svg width="256" height="256" xmlns="http://www.w3.org/2000/svg" version="1.1">
    <polyline stroke="black" stroke-width="3" stroke-linecap="round" fill="transparent" stroke-linejoin="round" points="96.2220458984375 43.73143768310547 92.52352905273438 56.47076416015625 90.46884155273438 62.2239990234375 87.59222412109375 69.21006774902344 80.60614013671875 84.41506958007813 74.031005859375 98.38720703125 68.68869018554688 107.42800903320313 65.81210327148438 112.35935974121094 63.75732421875 114.82504272460938 62.93548583984375 115.23599243164063 62.93548583984375 114.82504272460938 63.75732421875 113.59219360351563 67.86679077148438 111.12652587890624 78.14047241210938 106.60614013671876 92.52352905273438 102.08572387695313 106.49569702148438 98.7981414794922 120.46786499023438 95.51060485839844 132.79623413085938 91.40113830566406 143.06982421875 86.46978759765625 151.69970703125 81.12750244140625 156.631103515625 76.19615173339844 159.91864013671875 69.21006774902344 160.74053955078125 60.58021545410156 157.8638916015625 53.18318939208984 155.8092041015625 49.07373046875 154.1654052734375 47.84089660644531 152.5216064453125 48.25184631347656 150.46688842773438 53.18318939208984 150.055908203125 63.04588317871094 150.46688842773438 74.14141845703125 150.8778076171875 79.07276916503906 152.5216064453125 90.16830444335938 154.1654052734375 104.5513916015625 154.1654052734375 104.5513916015625 " />
        <polyline stroke="black" stroke-width="3" stroke-linecap="round" fill="transparent" stroke-linejoin="round" points="88.82504272460938 132.49571228027344 83.8936767578125 141.5364990234375 82.24993896484375 145.64596557617188 81.01708984375 150.16636657714844 78.96234130859375 159.2071533203125 77.7294921875 167.4260711669922 78.5513916015625 169.89175415039063 81.01708984375 170.30270385742188 88.003173828125 167.83702087402344 93.75634765625 165.371337890625 115.94744873046876 153.8648681640625 129.91961669921875 146.46783447265625 140.60418701171875 141.12554931640625 149.64498901367188 137.01609802246094 154.9873046875 132.90664672851563 157.8638916015625 127.97528076171876 158.685791015625 122.63302612304688 157.8638916015625 119.34544372558594 157.0419921875 118.1125946044922 156.22015380859375 118.1125946044922 154.1654052734375 120.16734313964844 152.93255615234375 122.63302612304688 148.82308959960938 134.13946533203125 146.357421875 141.94744873046875 143.06982421875 149.34446716308594 140.1932373046875 154.27581787109375 140.1932373046875 154.27581787109375 " />
        <polyline stroke="black" stroke-width="3" stroke-linecap="round" fill="transparent" stroke-linejoin="round" points="115.5364990234375 118.93449401855467 107.728515625 145.64596557617188 104.44097900390624 162.0837860107422 100.742431640625 178.5216064453125 94.57830810546876 206.05496215820313 88.82504272460938 224.95846557617188 83.8936767578125 237.28683471679688 82.24993896484375 240.57440185546875 82.24993896484375 240.57440185546875 " />
        </svg>