<?xml version="1.0" standalone="no"?>
    <svg width="256" height="256" xmlns="http://www.w3.org/2000/svg" version="1.1">
    <polyline stroke="black" stroke-width="3" stroke-linecap="round" fill="transparent" stroke-linejoin="round" points="116.40216064453124 28.497711181640625 111.09710693359376 38.223602294921875 107.11834716796876 45.29698944091797 103.13958740234376 53.696624755859375 94.29782104492188 72.26425170898438 85.45611572265625 89.94769287109375 78.82479858398438 102.32611083984376 75.73019409179688 107.6311492919922 70.4251708984375 117.35704040527344 68.2147216796875 121.3358154296875 66.88848876953125 124.43045043945313 66.88848876953125 124.43045043945313 " />
        <polyline stroke="black" stroke-width="3" stroke-linecap="round" fill="transparent" stroke-linejoin="round" points="82.36151123046875 116.47288513183594 95.62408447265624 111.60992431640624 110.212890625 107.6311492919922 118.17050170898438 105.86282348632813 134.0855712890625 102.32611083984376 149.55859375 99.673583984375 162.82122802734375 97.02108764648438 172.547119140625 94.81065368652344 179.6204833984375 92.15814208984376 183.5992431640625 89.505615234375 183.5992431640625 89.505615234375 " />
        <polyline stroke="black" stroke-width="3" stroke-linecap="round" fill="transparent" stroke-linejoin="round" points="174.75750732421875 38.66570281982422 176.08380126953125 52.81245422363281 177.8521728515625 60.32792663574219 179.6204833984375 68.28547668457031 184.4833984375 84.64266967773438 189.7884521484375 99.23150634765624 194.2093505859375 112.49411010742188 195.53558349609375 116.91496276855467 195.53558349609375 116.91496276855467 " />
        <polyline stroke="black" stroke-width="3" stroke-linecap="round" fill="transparent" stroke-linejoin="round" points="100.044921875 137.25094604492188 93.855712890625 156.26065063476563 92.9715576171875 161.1235809326172 92.08740234375 165.54446411132813 91.20321655273438 174.38616943359375 91.20321655273438 177.92288208007813 91.64532470703124 183.2279052734375 93.855712890625 186.322509765625 100.044921875 188.532958984375 109.77084350585938 188.97503662109375 122.59130859375 186.76458740234375 135.411865234375 182.34373474121097 148.67440795898438 175.71243286132813 158.8424072265625 167.7548828125 162.82122802734375 162.89193725585938 162.82122802734375 162.89193725585938 " />
        <polyline stroke="black" stroke-width="3" stroke-linecap="round" fill="transparent" stroke-linejoin="round" points="175.6417236328125 115.58871459960938 172.10498046875 134.15634155273438 170.77874755859375 139.46136474609375 169.89459228515625 144.7664031982422 169.01043701171875 149.187255859375 166.79998779296875 156.26065063476563 164.58953857421875 159.79733276367188 163.70538330078125 160.68150329589844 163.70538330078125 160.68150329589844 " />
        <polyline stroke="black" stroke-width="3" stroke-linecap="round" fill="transparent" stroke-linejoin="round" points="145.13775634765625 104.53656005859376 141.158935546875 119.12541198730467 139.390625 127.5250244140625 137.62228393554688 137.6930389404297 133.201416015625 158.0289764404297 128.33847045898438 178.36495971679688 120.822998046875 201.7955322265625 116.40216064453124 214.1739501953125 116.40216064453124 214.1739501953125 " />
        </svg>