<?xml version="1.0" standalone="no"?>
    <svg width="256" height="256" xmlns="http://www.w3.org/2000/svg" version="1.1">
    <polyline stroke="black" stroke-width="3" stroke-linecap="round" fill="transparent" stroke-linejoin="round" points="107.37835693359376 38.03020477294922 103.944091796875 53.94813537597656 95.85833740234376 83.80897521972656 88.809814453125 103.68148803710938 85.25738525390625 112.9617156982422 82.92123413085938 120.03921508789063 80.99969482421875 126.2679443359375 80.51068115234375 128.17413330078125 80.45870971679688 128.37669372558594 80.45745849609375 128.38157653808594 80.45697021484375 128.383544921875 81.39862060546875 127.91094970703124 84.2169189453125 126.53765869140624 99.60678100585938 118.64508056640624 105.676025390625 114.08688354492188 113.48031616210938 106.52067565917967 128.85836791992188 101.02487182617188 144.752197265625 98.41494750976563 148.25653076171875 98.640625 149.120849609375 100.2034149169922 149.343505859375 100.8445281982422 149.42611694335938 101.93118286132813 150.02960205078125 109.99679565429688 150.357666015625 121.33538818359376 148.633544921875 150.75814819335938 146.668212890625 166.05357360839844 142.25546264648438 188.6387634277344 133.02294921875 197.81228637695313 120.73324584960938 212.8402404785156 116.9859619140625 221.7098388671875 116.341064453125 223.39605712890625 114.92620849609376 224.98953247070313 114.84197998046876 225.02005004882813 110.70648193359376 222.943115234375 105.91720581054688 219.9627685546875 101.038818359375 214.57162475585935 100.48284912109376 213.37493896484375 " />
        <polyline stroke="black" stroke-width="3" stroke-linecap="round" fill="transparent" stroke-linejoin="round" points="107.40902709960938 73.09403991699219 110.69735717773438 71.53070068359375 138.61126708984375 67.20797729492188 144.08505249023438 66.32958984375 145.4892578125 66.19863891601563 145.51019287109375 66.19670104980469 142.72055053710938 66.75146484375 140.21969604492188 67.24507141113281 " />
        <polyline stroke="black" stroke-width="3" stroke-linecap="round" fill="transparent" stroke-linejoin="round" points="91.78524780273438 161.81057739257813 81.69345092773438 181.8455047607422 76.21368408203125 189.90057373046875 63.67230224609375 203.36920166015625 58.66302490234375 206.5492248535156 47.514129638671875 211.99490356445313 46.540618896484375 210.947265625 " />
        <polyline stroke="black" stroke-width="3" stroke-linecap="round" fill="transparent" stroke-linejoin="round" points="65.48959350585938 170.6858367919922 78.090087890625 174.6625213623047 84.46517944335938 176.89720153808594 90.6890869140625 179.01988220214844 97.84115600585938 182.4156951904297 100.84149169921876 184.60015869140625 101.03744506835938 184.74710083007813 " />
        </svg>