<?xml version="1.0" standalone="no"?>
    <svg width="256" height="256" xmlns="http://www.w3.org/2000/svg" version="1.1">
    <polyline stroke="black" stroke-width="3" stroke-linecap="round" fill="transparent" stroke-linejoin="round" points="102.66717529296876 48.67650604248047 93.1876220703125 74.88465881347656 87.05377197265625 91.61328125 80.91998291015625 105.55378723144533 78.13186645507813 114.47572326660156 78.13186645507813 120.05192565917967 80.91998291015625 122.28240966796876 89.84188842773438 121.16716003417967 108.80099487304688 116.14857482910156 133.3363037109375 111.12998962402344 147.83441162109375 113.9180908203125 158.42919921875 121.16716003417967 166.23590087890625 139.56863403320313 166.79351806640625 164.66156005859375 160.65966796875 184.17828369140625 153.96826171875 195.3306884765625 143.93109130859375 203.13735961914065 129.99057006835938 208.71356201171875 114.377197265625 207.04071044921875 114.377197265625 207.04071044921875 " />
        <polyline stroke="black" stroke-width="3" stroke-linecap="round" fill="transparent" stroke-linejoin="round" points="93.1876220703125 67.07797241210938 107.12811279296876 62.05938720703125 123.29913330078124 57.040802001953125 138.9124755859375 52.57984924316406 151.73779296875 49.79174041748047 158.42919921875 49.79174041748047 164.00537109375 54.810333251953125 164.00537109375 54.810333251953125 " />
        <polyline stroke="black" stroke-width="3" stroke-linecap="round" fill="transparent" stroke-linejoin="round" points="108.80099487304688 133.434814453125 99.87905883789063 145.14483642578125 88.16903686523438 161.8734588623047 73.6708984375 179.15969848632813 62.51849365234375 192.5425720214844 55.8270263671875 200.34927368164065 55.8270263671875 200.34927368164065 " />
        <polyline stroke="black" stroke-width="3" stroke-linecap="round" fill="transparent" stroke-linejoin="round" points="71.998046875 141.2415008544922 86.49615478515625 145.14483642578125 103.78240966796876 152.39390563964844 119.95339965820313 159.64297485351563 135.0091552734375 168.5648956298828 135.0091552734375 168.5648956298828 " />
        </svg>