<?xml version="1.0" standalone="no"?>
    <svg width="256" height="256" xmlns="http://www.w3.org/2000/svg" version="1.1">
    <polyline stroke="black" stroke-width="3" stroke-linecap="round" fill="transparent" stroke-linejoin="round" points="94.29867553710938 58.39739990234375 95.5242919921875 71.53610229492188 95.25839233398438 98.77195739746094 93.94769287109376 108.687255859375 89.35556030273438 125.6497802734375 87.63156127929688 128.3946990966797 85.31805419921875 131.00144958496094 84.858642578125 132.27354431152344 85.3824462890625 132.47300720214844 87.5015869140625 132.3854217529297 94.70733642578124 131.4061279296875 114.03720092773438 127.3857879638672 131.90765380859375 124.46604919433594 161.57440185546875 119.07780456542967 172.28662109375 116.76486206054688 178.8023681640625 115.27294921875 181.39056396484375 116.99754333496094 181.424072265625 117.14349365234376 181.072021484375 136.3269500732422 178.6488037109375 152.22630310058594 171.24658203125 179.5211639404297 164.92413330078125 202.552001953125 162.23358154296875 212.98660278320313 155.218017578125 219.96316528320313 150.27584838867188 221.447265625 144.24899291992188 221.29220581054688 142.4044189453125 220.49234008789065 130.92095947265625 217.42364501953125 124.30419921875 211.84133911132813 123.4736328125 210.02566528320313 " />
        <polyline stroke="black" stroke-width="3" stroke-linecap="round" fill="transparent" stroke-linejoin="round" points="128.18490600585938 85.53590393066406 135.80307006835938 82.94862365722656 159.21258544921875 77.025390625 167.2249755859375 75.77719116210938 169.1712646484375 76.23326110839844 169.18670654296875 76.23690795898438 " />
        <polyline stroke="black" stroke-width="3" stroke-linecap="round" fill="transparent" stroke-linejoin="round" points="118.298095703125 160.1904296875 113.24725341796876 176.33445739746094 102.11907958984376 203.44754028320313 95.66717529296876 212.17071533203125 83.40350341796875 220.5611572265625 71.92938232421875 226.8382568359375 70.78195190429688 227.4659423828125 " />
        <polyline stroke="black" stroke-width="3" stroke-linecap="round" fill="transparent" stroke-linejoin="round" points="95.6256103515625 179.64793395996094 105.91452026367188 182.99002075195313 120.76416015625 189.82864379882813 122.30856323242188 191.84356689453125 122.46298217773438 192.04507446289065 122.47674560546876 192.06298828125 " />
        </svg>