<?xml version="1.0" standalone="no"?>
    <svg width="256" height="256" xmlns="http://www.w3.org/2000/svg" version="1.1">
    <polyline stroke="black" stroke-width="3" stroke-linecap="round" fill="transparent" stroke-linejoin="round" points="106.41619873046876 52.328125 104.35092163085938 59.763031005859375 100.22042846679688 73.39369201660156 98.15521240234376 79.58944702148438 94.43771362304688 88.26351928710938 91.54638671875 95.69842529296876 89.48114013671875 100.65501403808594 88.241943359375 103.54637145996094 88.655029296875 104.78550720214844 91.54638671875 105.19857788085938 100.22042846679688 103.95941162109376 115.09027099609376 103.13333129882813 122.112060546875 103.13333129882813 140.6993408203125 108.5029754638672 148.54730224609375 117.17703247070313 155.1561279296875 134.11209106445313 156.395263671875 156.00375366210938 152.2647705078125 174.59100341796875 143.5906982421875 188.2216796875 134.09054565429688 195.2435302734375 122.93817138671876 197.72183227539065 118.39462280273438 196.06964111328125 114.67718505859376 193.17828369140625 114.67718505859376 193.17828369140625 " />
        <polyline stroke="black" stroke-width="3" stroke-linecap="round" fill="transparent" stroke-linejoin="round" points="104.35092163085938 88.67654418945313 114.26412963867188 85.37216186523438 118.80770874023438 84.13299560546875 123.7642822265625 82.89385986328125 136.56884765625 79.1763916015625 139.460205078125 78.35029602050781 141.9384765625 78.35029602050781 141.9384765625 78.35029602050781 " />
        <polyline stroke="black" stroke-width="3" stroke-linecap="round" fill="transparent" stroke-linejoin="round" points="99.807373046875 147.74273681640625 83.69842529296875 171.69964599609375 76.67657470703125 180.3737030029297 65.937255859375 192.7652282714844 58.08929443359375 199.3740234375 58.08929443359375 199.3740234375 " />
        <polyline stroke="black" stroke-width="3" stroke-linecap="round" fill="transparent" stroke-linejoin="round" points="80.80706787109375 138.6556396484375 89.06805419921875 143.19918823242188 98.56820678710938 148.15579223632813 108.4814453125 153.5254364013672 127.06869506835938 164.67779541015625 142.76458740234375 176.65625 142.76458740234375 176.65625 " />
        </svg>