<?xml version="1.0" standalone="no"?>
    <svg width="256" height="256" xmlns="http://www.w3.org/2000/svg" version="1.1">
    <polyline stroke="black" stroke-width="3" stroke-linecap="round" fill="transparent" stroke-linejoin="round" points="103.51425170898438 71.09426879882813 100.15692138671876 79.90727233886719 96.799560546875 87.88093566894531 87.14727783203125 108.86428833007813 82.53094482421875 118.93626403808594 80.85226440429688 122.7132568359375 79.59326171875 127.749267578125 79.59326171875 129.42791748046875 80.4326171875 129.8475799560547 91.76361083984376 128.16893005371094 108.55026245117188 124.39193725585938 128.27459716796875 120.19528198242188 136.24822998046875 118.93626403808594 152.195556640625 119.77560424804688 157.2315673828125 123.55259704589844 160.16925048828125 131.9459228515625 160.16925048828125 138.24090576171875 156.39227294921875 156.28659057617188 150.09725952148438 168.45689392089844 142.12353515625 177.68955993652344 132.47125244140625 184.40423583984375 121.97958374023438 188.60089111328125 116.52392578125 189.85989379882813 116.52392578125 189.85989379882813 " />
        <polyline stroke="black" stroke-width="3" stroke-linecap="round" fill="transparent" stroke-linejoin="round" points="114.00595092773438 68.1566162109375 119.88128662109376 65.21894836425781 126.59591674804688 62.281280517578125 132.47125244140625 59.763275146484375 141.28427124023438 55.98628234863281 145.06124877929688 55.146942138671875 148.83822631835938 55.146942138671875 148.83822631835938 55.146942138671875 " />
        <polyline stroke="black" stroke-width="3" stroke-linecap="round" fill="transparent" stroke-linejoin="round" points="117.36325073242188 132.36558532714844 113.16659545898438 138.66058349609375 108.13058471679688 145.375244140625 101.41595458984376 153.76858520507813 88.825927734375 170.13555908203125 78.33428955078125 182.72557067871097 69.521240234375 192.79754638671875 69.521240234375 192.79754638671875 " />
        <polyline stroke="black" stroke-width="3" stroke-linecap="round" fill="transparent" stroke-linejoin="round" points="76.65560913085938 158.8045654296875 83.78997802734375 160.48324584960938 93.0225830078125 162.58157348632813 102.6749267578125 165.51922607421875 125.756591796875 175.17156982421875 125.756591796875 175.17156982421875 " />
        </svg>