<?xml version="1.0" standalone="no"?>
    <svg width="256" height="256" xmlns="http://www.w3.org/2000/svg" version="1.1">
    <polyline stroke="black" stroke-width="3" stroke-linecap="round" fill="transparent" stroke-linejoin="round" points="98.96261596679688 77.77117919921875 117.38998413085938 73.45840454101563 129.15213012695313 69.92974853515625 138.953857421875 66.00904846191406 143.65875244140625 62.08833312988281 143.65875244140625 62.08833312988281 " />
        <polyline stroke="black" stroke-width="3" stroke-linecap="round" fill="transparent" stroke-linejoin="round" points="107.58819580078124 51.89448547363281 98.96261596679688 70.32183837890625 93.08157348632813 84.82846069335938 88.37673950195313 96.59059143066406 86.4163818359375 104.8240966796875 85.24014282226563 111.88137817382813 86.80844116210938 115.80207824707033 96.61019897460938 115.80207824707033 112.68515014648438 112.27345275878906 129.15213012695313 107.56858825683594 141.30633544921875 104.43202209472656 150.71603393554688 104.03994750976563 157.7733154296875 104.8240966796875 162.47821044921875 110.3131103515625 164.83056640625 126.38800048828124 161.30194091796875 148.73606872558594 156.20501708984375 169.5158233642578 149.14773559570313 183.2383270263672 139.738037109375 191.8638916015625 129.544189453125 194.60836791992188 120.52655029296876 193.04010009765625 112.68515014648438 191.47183227539065 105.62783813476563 192.2559509277344 105.62783813476563 192.2559509277344 " />
        <polyline stroke="black" stroke-width="3" stroke-linecap="round" fill="transparent" stroke-linejoin="round" points="104.0595703125 163.24269104003906 93.86569213867188 182.0621032714844 84.45602416992188 195.39254760742188 77.39874267578125 202.8418884277344 65.6365966796875 209.507080078125 65.6365966796875 209.507080078125 " />
        <polyline stroke="black" stroke-width="3" stroke-linecap="round" fill="transparent" stroke-linejoin="round" points="104.0595703125 160.1061248779297 112.68515014648438 167.94754028320313 118.958251953125 173.0444793701172 122.48690795898438 175.78897094726563 122.48690795898438 175.78897094726563 " />
        </svg>