<?xml version="1.0" standalone="no"?>
    <svg width="256" height="256" xmlns="http://www.w3.org/2000/svg" version="1.1">
    <polyline stroke="black" stroke-width="3" stroke-linecap="round" fill="transparent" stroke-linejoin="round" points="55.509490966796875 81.22531127929688 67.51657104492188 72.94456481933594 74.14117431640625 69.21823120117188 80.7657470703125 65.49188232421875 92.7728271484375 58.45326232910156 98.5693359375 55.96903991699219 103.95184326171876 53.48481750488281 113.0606689453125 49.344444274902344 118.857177734375 46.44618225097656 122.58349609375 44.79003143310547 124.23968505859376 43.96195983886719 124.6536865234375 44.375999450683594 120.09930419921876 53.48481750488281 108.09222412109376 72.94456481933594 101.05355834960938 83.70953369140625 77.0394287109375 123.45709228515624 72.07098388671875 132.15188598632813 64.6182861328125 144.158935546875 58.82177734375 153.26776123046875 57.579681396484375 154.50987243652344 57.99371337890625 153.26776123046875 60.06390380859375 150.78355407714844 79.109619140625 132.97994995117188 97.32723999023438 120.558837890625 113.88873291015624 112.69212341308594 129.62216186523438 108.96578979492188 144.5274658203125 107.7236785888672 160.26092529296875 109.79388427734376 173.92413330078125 116.41845703125 178.892578125 121.38690185546876 192.9698486328125 155.7519989013672 194.2119140625 178.52403259277344 190.899658203125 196.74166870117188 184.6890869140625 209.16278076171875 176.4083251953125 217.85757446289065 171.02587890625 221.16986083984375 154.87841796875 222.82601928710935 154.87841796875 222.82601928710935 " />
        <polyline stroke="black" stroke-width="3" stroke-linecap="round" fill="transparent" stroke-linejoin="round" points="128.7940673828125 136.70628356933594 121.75546264648438 157.40814208984375 118.443115234375 168.173095703125 115.95892333984376 175.21173095703125 111.40451049804688 188.4609375 108.09222412109376 195.91360473632813 106.43603515625 198.81185913085935 106.43603515625 198.81185913085935 " />
        <polyline stroke="black" stroke-width="3" stroke-linecap="round" fill="transparent" stroke-linejoin="round" points="155.29248046875 137.94839477539063 151.56610107421875 148.71336364746094 149.08187866210938 155.33795166015625 146.59765625 163.20465087890625 140.80111694335938 179.35211181640625 133.76254272460938 198.81185913085935 128.38006591796875 214.1312255859375 126.723876953125 221.5838928222656 126.723876953125 221.5838928222656 " />
        </svg>