<?xml version="1.0" standalone="no"?>
    <svg width="256" height="256" xmlns="http://www.w3.org/2000/svg" version="1.1">
    <polyline stroke="black" stroke-width="3" stroke-linecap="round" fill="transparent" stroke-linejoin="round" points="63.003631591796875 64.65255737304688 82.05245971679688 55.31111145019531 89.5645751953125 52.48186492919922 104.538818359375 47.69268035888672 110.25653076171876 46.00975036621094 117.23519897460938 43.57177734375 118.40377807617188 43.04185485839844 119.11630249023438 42.75181579589844 119.14581298828124 42.57310485839844 119.16073608398438 42.482757568359375 116.74960327148438 58.52223205566406 112.921142578125 73.64591979980469 101.721923828125 99.7960205078125 94.63916015625 112.43685913085938 83.02877807617188 128.4124755859375 77.92816162109375 134.9730224609375 69.30172729492188 149.91839599609375 66.10580444335938 157.31088256835938 63.59503173828125 165.96157836914063 63.364471435546875 168.62631225585938 63.3470458984375 168.82774353027344 " />
        <polyline stroke="black" stroke-width="3" stroke-linecap="round" fill="transparent" stroke-linejoin="round" points="112.48126220703124 103.76345825195313 130.4095458984375 98.367919921875 146.93701171875 94.83474731445313 156.75030517578125 92.99874877929688 174.33392333984375 90.11724853515624 182.56689453125 89.77532958984375 196.534912109375 89.94496154785156 201.690185546875 90.85565185546876 208.6099853515625 93.20533752441406 208.91217041015625 95.83193969726563 213.9658203125 119.26052856445313 214.9981689453125 137.71102905273438 212.6060791015625 173.77420043945313 204.3367919921875 200.47467041015625 199.085693359375 212.60476684570313 190.0318603515625 224.72116088867188 186.4156494140625 227.63491821289065 180.8353271484375 229.2926025390625 177.302734375 230.4300537109375 168.8306884765625 228.51705932617188 162.24169921875 225.06414794921875 154.53961181640625 219.21481323242188 154.260986328125 217.97357177734375 " />
        <polyline stroke="black" stroke-width="3" stroke-linecap="round" fill="transparent" stroke-linejoin="round" points="138.39813232421875 106.59074401855467 130.8240966796875 142.75335693359375 126.89413452148438 157.48233032226563 121.56744384765624 172.17721557617188 112.24960327148438 192.10687255859375 108.94580078125 195.92095947265625 104.29638671875 198.3466796875 104.15020751953124 198.33099365234375 " />
        <polyline stroke="black" stroke-width="3" stroke-linecap="round" fill="transparent" stroke-linejoin="round" points="170.4407958984375 115.0726318359375 161.1715087890625 155.69091796875 156.87030029296875 170.85440063476563 146.97088623046875 204.57196044921875 139.12493896484375 218.15676879882813 137.51608276367188 219.25823974609375 " />
        </svg>