<?xml version="1.0" standalone="no"?>
    <svg width="256" height="256" xmlns="http://www.w3.org/2000/svg" version="1.1">
    <polyline stroke="black" stroke-width="3" stroke-linecap="round" fill="transparent" stroke-linejoin="round" points="64.22552490234375 88.21003723144531 77.07989501953125 80.86468505859375 91.15850830078124 72.90721130371094 104.01287841796876 66.17396545410156 115.03091430664063 60.66493225097656 121.15203857421876 58.82859802246094 122.9884033203125 58.82859802246094 120.5399169921875 64.94973754882813 105.84921264648438 86.37370300292969 80.14044189453125 124.32472229003906 69.73452758789063 140.85179138183594 62.38916015625 151.25772094726563 57.49224853515625 156.1546173095703 57.49224853515625 156.1546173095703 63.6134033203125 148.80926513671875 85.64947509765625 126.77317810058594 110.74612426757813 107.185546875 135.23065185546875 95.55540466308594 157.87884521484375 91.27059936523438 172.569580078125 93.10694885253906 181.13916015625 98.0038604736328 188.4844970703125 111.47035217285156 189.708740234375 139.01544189453125 181.13916015625 167.17266845703125 170.73321533203125 186.76028442382813 159.7152099609375 198.39044189453125 143.1881103515625 208.79635620117188 125.43682861328124 212.46905517578125 118.09149169921876 210.0205993652344 113.80670166015624 195.9419860839844 113.80670166015624 195.9419860839844 " />
        <polyline stroke="black" stroke-width="3" stroke-linecap="round" fill="transparent" stroke-linejoin="round" points="137.0670166015625 115.75514221191406 129.72161865234375 128.60952758789063 113.194580078125 156.1546173095703 101.56442260742188 171.45745849609375 91.15850830078124 183.08761596679688 82.58892822265625 186.76028442382813 82.58892822265625 186.76028442382813 " />
        <polyline stroke="black" stroke-width="3" stroke-linecap="round" fill="transparent" stroke-linejoin="round" points="76.4677734375 151.25772094726563 86.87371826171875 156.1546173095703 100.3402099609375 164.11209106445313 123.60049438476563 175.74224853515625 141.96389770507813 183.69973754882813 157.87884521484375 190.4329833984375 170.12109375 199.0025634765625 170.12109375 199.0025634765625 " />
        </svg>