<?xml version="1.0" standalone="no"?>
    <svg width="256" height="256" xmlns="http://www.w3.org/2000/svg" version="1.1">
    <polyline stroke="black" stroke-width="3" stroke-linecap="round" fill="transparent" stroke-linejoin="round" points="95.26736450195315 68.63555908203126 92.27508544921876 81.35260009765625 89.28280639648438 94.06964111328124 72.825439453125 153.54052734375 67.21502685546875 169.62384033203125 58.238250732421875 193.93585205078125 51.879730224609375 210.0191650390625 49.26153564453125 215.629638671875 48.88751220703125 215.629638671875 48.88751220703125 215.629638671875 " />
        <polyline stroke="black" stroke-width="3" stroke-linecap="round" fill="transparent" stroke-linejoin="round" points="96.38940429687499 89.20724487304688 101.62582397460938 84.7188720703125 106.86224365234376 80.23049926757813 117.70916748046876 72.74989318847656 123.693603515625 69.75764465332031 135.28857421875 66.017333984375 145.76144409179688 65.26927185058594 153.6160888671875 68.26152038574219 160.72265625 77.6123046875 167.82928466796875 98.18397521972656 172.317626953125 122.1219482421875 176.0579833984375 145.31185913085938 179.79827880859375 162.8912811279297 183.91259765625 174.11221313476563 189.1490478515625 180.8447723388672 195.881591796875 184.5850830078125 202.9881591796875 185.3331298828125 210.8427734375 181.2187957763672 219.445556640625 164.38742065429688 219.445556640625 164.38742065429688 " />
        <polyline stroke="black" stroke-width="3" stroke-linecap="round" fill="transparent" stroke-linejoin="round" points="86.29064941406253 123.24403381347658 91.90106201171876 117.25955200195313 97.511474609375 111.27507019042967 104.99212646484376 104.54251098632813 111.72467041015624 98.93205261230467 130.05218505859375 88.08514404296875 139.40292358398438 85.84097290039063 144.26531982421875 88.83322143554688 146.509521484375 98.55801391601563 142.02117919921875 114.26730346679688 134.16650390625 124.36613464355467 126.68588256835938 130.7246551513672 123.693603515625 132.96884155273438 119.20526123046876 136.33511352539063 118.45721435546876 137.4571990966797 119.95333862304688 138.20526123046875 125.18978881835938 138.57928466796875 133.79248046875 138.20526123046875 141.6470947265625 136.70913696289063 149.50177001953125 132.59481811523438 149.50177001953125 132.59481811523438 " />
        <polyline stroke="black" stroke-width="3" stroke-linecap="round" fill="transparent" stroke-linejoin="round" points="113.96887207031253 14.775131225585938 117.70916748046876 40.58324432373047 121.449462890625 66.391357421875 127.05990600585938 97.80996704101563 129.67816162109375 113.89328002929688 135.28857421875 152.41842651367188 137.90682983398438 190.569580078125 138.28085327148438 206.65289306640625 138.28085327148438 206.65289306640625 " />
        </svg>