<?xml version="1.0" standalone="no"?>
    <svg width="256" height="256" xmlns="http://www.w3.org/2000/svg" version="1.1">
    <polyline stroke="black" stroke-width="3" stroke-linecap="round" fill="transparent" stroke-linejoin="round" points="93.09149169921876 68.01029968261719 91.86724853515624 82.08891296386719 90.03091430664063 95.55540466308594 89.4188232421875 107.185546875 90.64300537109376 113.91880798339844 94.31570434570313 117.59147644042967 101.66107177734376 117.59147644042967 111.45489501953124 115.1430206298828 126.14559936523438 109.63400268554688 138.38787841796875 102.9007568359375 148.18170166015625 94.94328308105467 157.3634033203125 79.64045715332031 157.3634033203125 79.64045715332031 " />
        <polyline stroke="black" stroke-width="3" stroke-linecap="round" fill="transparent" stroke-linejoin="round" points="170.829833984375 63.11338806152344 172.666259765625 72.29508972167969 172.0540771484375 82.08891296386719 168.9935302734375 89.43426513671875 164.09661865234375 92.4948272705078 164.09661865234375 92.4948272705078 " />
        <polyline stroke="black" stroke-width="3" stroke-linecap="round" fill="transparent" stroke-linejoin="round" points="133.490966796875 50.871124267578125 131.04251098632813 74.13143920898438 124.30926513671876 103.51287841796876 117.57601928710938 129.2216339111328 109.6185302734375 148.1971435546875 101.0489501953125 164.11209106445313 93.09149169921876 173.90591430664063 86.35821533203125 177.57858276367188 86.35821533203125 177.57858276367188 " />
        <polyline stroke="black" stroke-width="3" stroke-linecap="round" fill="transparent" stroke-linejoin="round" points="104.72161865234376 141.46389770507813 117.57601928710938 137.7912139892578 132.2667236328125 135.3427734375 145.73321533203125 134.11854553222656 154.30279541015625 133.5064239501953 158.587646484375 133.5064239501953 158.587646484375 133.5064239501953 " />
        <polyline stroke="black" stroke-width="3" stroke-linecap="round" fill="transparent" stroke-linejoin="round" points="121.86080932617188 176.3543701171875 131.65460205078125 172.6816864013672 142.060546875 168.3968963623047 148.79379272460938 164.72421264648438 151.8543701171875 162.2757568359375 151.8543701171875 162.2757568359375 " />
        <polyline stroke="black" stroke-width="3" stroke-linecap="round" fill="transparent" stroke-linejoin="round" points="65.54638671875 228.38400268554688 77.176513671875 225.32342529296875 96.15203857421876 221.6507568359375 122.472900390625 217.97805786132813 143.2847900390625 214.91751098632813 161.03607177734375 211.85693359375 175.726806640625 210.0205993652344 175.726806640625 210.0205993652344 " />
        </svg>