<?xml version="1.0" standalone="no"?>
    <svg width="256" height="256" xmlns="http://www.w3.org/2000/svg" version="1.1">
    <polyline stroke="black" stroke-width="3" stroke-linecap="round" fill="transparent" stroke-linejoin="round" points="67.9677734375 80.2525634765625 66.7435302734375 90.04638671875 66.7435302734375 97.39173889160156 69.1920166015625 102.28865051269533 75.92523193359375 104.7371063232422 88.77963256835938 102.9007568359375 106.53091430664063 98.615966796875 126.1185302734375 91.27059936523438 145.7061767578125 83.31312561035156 161.009033203125 76.57987976074219 173.8634033203125 66.17396545410156 173.8634033203125 66.17396545410156 " />
        <polyline stroke="black" stroke-width="3" stroke-linecap="round" fill="transparent" stroke-linejoin="round" points="167.130126953125 47.81055450439453 168.3543701171875 55.768035888671875 167.74224853515625 64.94973754882813 164.68170166015625 74.13143920898438 159.7847900390625 82.08891296386719 159.7847900390625 82.08891296386719 " />
        <polyline stroke="black" stroke-width="3" stroke-linecap="round" fill="transparent" stroke-linejoin="round" points="131.01544189453125 41.689422607421875 127.3427734375 60.052825927734375 119.38531494140624 96.16751098632813 114.4884033203125 115.1430206298828 105.9188232421875 133.5064239501953 94.28863525390624 149.42137145996094 80.21002197265625 164.11209106445313 80.21002197265625 164.11209106445313 " />
        <polyline stroke="black" stroke-width="3" stroke-linecap="round" fill="transparent" stroke-linejoin="round" points="80.21002197265625 116.9793701171875 105.30670166015624 117.59147644042967 124.89431762695313 118.81570434570313 151.2152099609375 121.87628173828124 168.3543701171875 124.32472229003906 180.59661865234375 127.99740600585938 186.10565185546875 132.28219604492188 186.10565185546875 132.28219604492188 " />
        <polyline stroke="black" stroke-width="3" stroke-linecap="round" fill="transparent" stroke-linejoin="round" points="104.694580078125 179.41493225097656 119.38531494140624 176.9664764404297 137.74868774414063 173.90591430664063 154.88787841796875 171.45745849609375 165.2938232421875 170.8453369140625 171.4149169921875 173.29379272460938 171.4149169921875 173.29379272460938 " />
        <polyline stroke="black" stroke-width="3" stroke-linecap="round" fill="transparent" stroke-linejoin="round" points="53.27703857421875 230.2203369140625 69.80410766601563 227.7718811035156 98.57342529296876 225.935546875 126.73065185546876 225.32342529296875 155.5 226.54766845703125 173.8634033203125 227.1597595214844 190.39044189453125 227.1597595214844 198.96002197265625 227.7718811035156 203.85693359375 228.99612426757813 202.0206298828125 230.83245849609375 202.0206298828125 230.83245849609375 " />
        </svg>