<?xml version="1.0" standalone="no"?>
    <svg width="256" height="256" xmlns="http://www.w3.org/2000/svg" version="1.1">
    <polyline stroke="black" stroke-width="3" stroke-linecap="round" fill="transparent" stroke-linejoin="round" points="98.41961669921876 85.52352905273438 114.77456665039063 85.52352905273438 129.69479370117188 83.51504516601563 140.31112670898438 80.35882568359375 151.5013427734375 76.05490112304688 160.10919189453125 71.46406555175781 165.560791015625 67.16012573242188 168.14312744140625 62.85621643066406 168.14312744140625 62.85621643066406 " />
        <polyline stroke="black" stroke-width="3" stroke-linecap="round" fill="transparent" stroke-linejoin="round" points="167.85626220703125 60.84771728515625 167.56927490234375 62.28236389160156 167.56927490234375 62.28236389160156 " />
        <polyline stroke="black" stroke-width="3" stroke-linecap="round" fill="transparent" stroke-linejoin="round" points="125.10391235351563 87.81895446777344 117.64376831054688 108.477783203125 104.7320556640625 134.01438903808594 91.82025146484376 154.67320251464844 79.19540405273438 167.2980499267578 74.03073120117188 171.60195922851563 74.03073120117188 171.60195922851563 " />
        <polyline stroke="black" stroke-width="3" stroke-linecap="round" fill="transparent" stroke-linejoin="round" points="117.64376831054688 126.55426025390624 127.97323608398438 127.70196533203124 136.00723266601563 129.9973907470703 140.02420043945313 132.00588989257813 142.31961059570313 134.01438903808594 142.31961059570313 134.01438903808594 " />
        <polyline stroke="black" stroke-width="3" stroke-linecap="round" fill="transparent" stroke-linejoin="round" points="124.53009033203124 169.88038635253906 142.31961059570313 161.27256774902344 158.10064697265625 155.8209228515625 169.57781982421875 153.8124237060547 172.16015625 153.8124237060547 172.16015625 153.8124237060547 " />
        <polyline stroke="black" stroke-width="3" stroke-linecap="round" fill="transparent" stroke-linejoin="round" points="107.02743530273438 214.06732177734375 112.47906494140624 212.058837890625 151.5013427734375 199.4339904785156 188.51507568359375 190.53924560546875 219.21636962890625 185.9483642578125 238.4405517578125 185.08758544921875 238.4405517578125 185.08758544921875 " />
        </svg>