<?xml version="1.0" standalone="no"?>
    <svg width="256" height="256" xmlns="http://www.w3.org/2000/svg" version="1.1">
    <polyline stroke="black" stroke-width="3" stroke-linecap="round" fill="transparent" stroke-linejoin="round" points="84 64 84 71 82 83 80 95 79 101 79 103 79 105 84 105 100 105 118 101 137 97 154 95 170 92 180 90 180 90 " />
        <polyline stroke="black" stroke-width="3" stroke-linecap="round" fill="transparent" stroke-linejoin="round" points="168 72 168 84 164 99 159 111 157 115 157 115 " />
        <polyline stroke="black" stroke-width="3" stroke-linecap="round" fill="transparent" stroke-linejoin="round" points="139 57 130 83 117 113 103 144 88 167 72 185 61 194 61 194 " />
        <polyline stroke="black" stroke-width="3" stroke-linecap="round" fill="transparent" stroke-linejoin="round" points="116 139 134 146 151 150 166 153 176 156 181 157 182 158 182 158 " />
        <polyline stroke="black" stroke-width="3" stroke-linecap="round" fill="transparent" stroke-linejoin="round" points="105 181 118 181 133 181 148 181 159 181 164 181 164 181 " />
        <polyline stroke="black" stroke-width="3" stroke-linecap="round" fill="transparent" stroke-linejoin="round" points="96 230 119 228 144 226 170 224 189 224 196 224 196 224 " />
        </svg>