<?xml version="1.0" standalone="no"?>
    <svg width="256" height="256" xmlns="http://www.w3.org/2000/svg" version="1.1">
    <polyline stroke="black" stroke-width="3" stroke-linecap="round" fill="transparent" stroke-linejoin="round" points="95.76947021484376 44.88092041015625 95.76947021484376 59.49104309082031 95.35202026367188 72.01400756835938 94.51715087890624 85.371826171875 92.847412109375 99.5644989013672 88.25567626953125 126.2801513671875 82.82904052734375 150.07376098632813 76.150146484375 169.69305419921875 68.6363525390625 188.8949279785156 59.452850341796875 211.43624877929688 59.452850341796875 211.43624877929688 " />
        <polyline stroke="black" stroke-width="3" stroke-linecap="round" fill="transparent" stroke-linejoin="round" points="105.370361328125 62.41307067871094 115.80615234375 59.49104309082031 119.56307983398438 58.65618896484375 128.74655151367188 56.151580810546875 137.9300537109375 53.646995544433594 141.68695068359375 52.8121337890625 148.78329467773438 52.39469909667969 154.20989990234375 53.646995544433594 158.38421630859375 57.821319580078125 164.64569091796875 72.01400756835938 169.2374267578125 96.22506713867188 172.15948486328125 122.52328491210938 172.99432373046875 144.6471405029297 172.99432373046875 163.8489990234375 172.15948486328125 178.04168701171875 170.07232666015625 188.06005859375 167.5677490234375 193.90411376953125 165.89801025390625 195.5738525390625 157.54931640625 200.5830078125 149.6181640625 202.25274658203125 149.6181640625 202.25274658203125 " />
        <polyline stroke="black" stroke-width="3" stroke-linecap="round" fill="transparent" stroke-linejoin="round" points="34.406951904296875 125.86271667480467 54.443695068359375 117.93150329589844 67.801513671875 113.33975219726563 110.79696655273438 99.98193359375 123.73739624023438 97.05990600585938 159.2191162109375 91.63330078125 179.25579833984375 90.38101196289063 187.18701171875 90.38101196289063 208.05859375 91.63330078125 215.5723876953125 93.3030242919922 215.5723876953125 93.3030242919922 " />
        </svg>