<?xml version="1.0" standalone="no"?>
    <svg width="256" height="256" xmlns="http://www.w3.org/2000/svg" version="1.1">
    <polyline stroke="black" stroke-width="3" stroke-linecap="round" fill="transparent" stroke-linejoin="round" points="95.41253662109375 59.744873046875014 94.74545288085938 83.42556762695313 94.078369140625 107.10626220703124 92.74423217773438 121.44810485839844 83.40536499023438 164.14010620117188 79.40301513671875 177.81488037109375 71.064697265625 205.49798583984375 69.06353759765625 211.5015563964844 68.06292724609375 214.83688354492188 68.06292724609375 214.83688354492188 " />
        <polyline stroke="black" stroke-width="3" stroke-linecap="round" fill="transparent" stroke-linejoin="round" points="99.41479492187499 87.09440612792969 102.08309936523438 83.75909423828125 104.75140380859376 80.42378234863281 108.086669921875 77.08847045898438 117.75909423828124 70.75137329101563 136.103271484375 64.41427612304688 150.44515991210938 63.08015441894531 164.4534912109375 64.747802734375 174.45941162109375 70.08430480957031 178.7952880859375 74.75373840332031 191.135986328125 108.44039916992188 192.1365966796875 135.12289428710938 189.46832275390625 157.13595581054688 185.1324462890625 174.1460418701172 182.130615234375 181.48373413085935 176.1270751953125 192.15673828125 166.12109375 202.82977294921875 157.4493408203125 207.49917602539065 148.77752685546875 208.499755859375 148.77752685546875 208.499755859375 " />
        <polyline stroke="black" stroke-width="3" stroke-linecap="round" fill="transparent" stroke-linejoin="round" points="53.054046630859375 128.11874389648438 71.73178100585938 124.11636352539063 90.40951538085938 120.11398315429688 100.74899291992188 118.4463348388672 124.42974853515624 115.778076171875 137.43743896484375 114.77749633789063 150.77865600585938 114.11041259765624 178.4617919921875 112.77630615234376 202.8095703125 112.10923767089844 219.486083984375 112.77630615234376 225.8232421875 114.11041259765624 225.8232421875 114.11041259765624 " />
        </svg>