<?xml version="1.0" standalone="no"?>
    <svg width="256" height="256" xmlns="http://www.w3.org/2000/svg" version="1.1">
    <polyline stroke="black" stroke-width="3" stroke-linecap="round" fill="transparent" stroke-linejoin="round" points="77.502685546875 81.65469360351563 89.48114013671875 91.15484619140624 92.78549194335938 94.04620361328124 96.916015625 96.93757629394533 111.37277221679688 101.8941650390625 116.329345703125 101.06805419921876 121.69906616210938 99.0028076171875 121.69906616210938 99.0028076171875 " />
        <polyline stroke="black" stroke-width="3" stroke-linecap="round" fill="transparent" stroke-linejoin="round" points="167.13458251953125 36.63221740722656 158.87353515625 51.91508483886719 147.30816650390625 69.67623901367188 140.28631591796875 79.1763916015625 124.17733764648438 99.8289031982422 108.068359375 118.8292236328125 94.024658203125 134.11209106445313 82.04623413085938 145.26443481445313 73.78521728515625 153.11239624023438 69.65472412109375 157.65594482421875 61.3936767578125 166.3300018310547 59.328460693359375 168.80828857421875 54.784881591796875 174.17796325683594 52.71966552734375 176.65625 51.8935546875 177.48236083984375 48.589111328125 179.96066284179688 46.523895263671875 181.19981384277344 44.04559326171875 182.43896484375 41.56732177734375 183.6781005859375 39.91510009765625 184.50421142578125 39.502044677734375 184.91726684570313 38.67596435546875 185.74337768554688 38.67596435546875 185.74337768554688 " />
        <polyline stroke="black" stroke-width="3" stroke-linecap="round" fill="transparent" stroke-linejoin="round" points="65.937255859375 124.61192321777344 85.763671875 114.2856903076172 95.26385498046876 110.15518188476563 116.329345703125 103.54637145996094 139.460205078125 98.58975219726563 162.59100341796875 94.872314453125 181.17828369140625 92.80705261230467 194.8089599609375 91.15484619140624 201.830810546875 90.32875061035156 204.30908203125 89.91571044921875 204.30908203125 89.91571044921875 " />
        <polyline stroke="black" stroke-width="3" stroke-linecap="round" fill="transparent" stroke-linejoin="round" points="109.30755615234376 127.09024047851563 109.30755615234376 144.43833923339844 109.30755615234376 156.00375366210938 108.89447021484376 168.80828857421875 108.4814453125 181.61285400390625 108.068359375 205.15673828125 107.65533447265624 221.67874145507813 107.65533447265624 230.76583862304688 107.65533447265624 234.8963623046875 108.068359375 234.07025146484375 113.02499389648438 223.74398803710935 120.45989990234376 204.74368286132813 127.06869506835938 186.15643310546875 132.85140991210938 169.2213592529297 136.15576171875 160.96035766601563 136.15576171875 160.96035766601563 " />
        <polyline stroke="black" stroke-width="3" stroke-linecap="round" fill="transparent" stroke-linejoin="round" points="140.28631591796875 127.09024047851563 142.3515625 137.00344848632813 144.00375366210938 142.3730926513672 146.48202514648438 148.56883239746094 152.6778564453125 163.02560424804688 159.69964599609375 177.48236083984375 167.960693359375 194.41741943359375 176.63470458984375 214.65689086914065 176.63470458984375 214.65689086914065 " />
        </svg>