<?xml version="1.0" standalone="no"?>
    <svg width="256" height="256" xmlns="http://www.w3.org/2000/svg" version="1.1">
    <polyline stroke="black" stroke-width="3" stroke-linecap="round" fill="transparent" stroke-linejoin="round" points="78.13424682617188 75.90484619140625 86.16339111328125 88.5823974609375 89.96664428710938 93.65342712402344 93.7698974609375 99.14703369140624 97.57318115234376 104.2180633544922 103.91195678710938 112.24717712402344 108.1378173828125 115.62785339355467 108.1378173828125 115.62785339355467 " />
        <polyline stroke="black" stroke-width="3" stroke-linecap="round" fill="transparent" stroke-linejoin="round" points="168.1448974609375 45.47869873046875 158.8480224609375 59.001434326171875 152.93182373046875 68.72088623046875 147.015625 78.01776123046875 135.18328857421875 97.45669555664063 124.196044921875 114.78269958496094 112.78622436523438 132.53128051757813 100.953857421875 149.43467712402344 89.54403686523438 165.07034301757813 77.2890625 178.5930633544922 64.61151123046875 193.383544921875 53.62432861328125 204.7933349609375 49.3984375 209.01919555664065 49.3984375 209.01919555664065 " />
        <polyline stroke="black" stroke-width="3" stroke-linecap="round" fill="transparent" stroke-linejoin="round" points="57.85015869140625 131.26351928710938 74.75360107421875 125.7698974609375 83.20526123046875 123.234375 92.50213623046876 121.12149047851563 114.899169921875 116.89561462402344 138.141357421875 113.5149383544922 149.12860107421875 112.66976928710938 169.4127197265625 111.40200805664063 185.89349365234375 110.55682373046876 192.6549072265625 110.13424682617188 207.4453125 107.59873962402344 207.4453125 107.59873962402344 " />
        <polyline stroke="black" stroke-width="3" stroke-linecap="round" fill="transparent" stroke-linejoin="round" points="133.492919921875 139.29263305664063 143.21237182617188 143.9410858154297 148.70599365234375 146.89915466308594 161.80615234375 155.3508758544922 177.8643798828125 166.7606658935547 198.571044921875 180.7059783935547 208.29052734375 187.46734619140625 212.09375 190.8480224609375 212.09375 190.8480224609375 " />
        <polyline stroke="black" stroke-width="3" stroke-linecap="round" fill="transparent" stroke-linejoin="round" points="96.72802734375 179.438232421875 102.64422607421876 190.42544555664065 104.75714111328124 194.65130615234375 109.828125 207.328857421875 112.78622436523438 214.93539428710935 114.899169921875 219.58383178710935 116.58953857421876 221.274169921875 121.6605224609375 219.58383178710935 129.68963623046875 209.4417724609375 140.2542724609375 190.8480224609375 148.70599365234375 174.36721801757813 157.15771484375 157.04119873046875 157.15771484375 157.04119873046875 " />
        </svg>