<?xml version="1.0" standalone="no"?>
    <svg width="256" height="256" xmlns="http://www.w3.org/2000/svg" version="1.1">
    <polyline stroke="black" stroke-width="3" stroke-linecap="round" fill="transparent" stroke-linejoin="round" points="76.65170288085938 62.27345275878906 79.74349975585938 76.40750122070313 81.06857299804688 83.47451782226563 82.83538818359375 90.5415496826172 84.60211181640625 97.60856628417967 89.01898193359375 109.53416442871094 93.43588256835938 117.48458862304688 97.41107177734376 121.45977783203124 97.41107177734376 121.45977783203124 " />
        <polyline stroke="black" stroke-width="3" stroke-linecap="round" fill="transparent" stroke-linejoin="round" points="170.7314453125 34.00535583496094 157.4808349609375 60.50669860839844 147.76361083984375 75.9658203125 135.8380126953125 94.07505798339844 94.31927490234376 149.2861785888672 69.14300537109375 176.22921752929688 51.917083740234375 192.1300048828125 51.917083740234375 192.1300048828125 " />
        <polyline stroke="black" stroke-width="3" stroke-linecap="round" fill="transparent" stroke-linejoin="round" points="49.2669677734375 140.45242309570313 65.60946655273438 131.61862182617188 85.92718505859375 123.22654724121094 97.41107177734376 119.2513427734375 109.77838134765624 115.7178192138672 136.27972412109375 109.9758758544922 160.5726318359375 105.5589599609375 181.33197021484375 101.58377075195313 195.466064453125 99.37533569335938 195.466064453125 99.37533569335938 " />
        <polyline stroke="black" stroke-width="3" stroke-linecap="round" fill="transparent" stroke-linejoin="round" points="132.30450439453125 121.90147399902344 140.2548828125 135.1521453857422 144.67181396484375 143.1025390625 149.9720458984375 151.05294799804688 161.0142822265625 168.27880859375 171.6148681640625 182.8545379638672 180.4486083984375 194.3384704589844 186.1905517578125 202.7305603027344 186.1905517578125 202.7305603027344 " />
        <polyline stroke="black" stroke-width="3" stroke-linecap="round" fill="transparent" stroke-linejoin="round" points="91.66912841796876 156.3531951904297 89.460693359375 169.16217041015625 89.460693359375 176.6708984375 90.78573608398438 194.3384704589844 92.11083984375 202.7305603027344 94.76095581054688 216.86459350585935 97.41107177734376 225.6983642578125 99.17782592773438 230.55694580078125 102.2696533203125 230.55694580078125 111.54510498046876 223.0482482910156 126.120849609375 204.05560302734375 144.67181396484375 174.4624481201172 152.6221923828125 159.44503784179688 152.6221923828125 159.44503784179688 " />
        </svg>