<?xml version="1.0" standalone="no"?>
    <svg width="256" height="256" xmlns="http://www.w3.org/2000/svg" version="1.1">
    <polyline stroke="black" stroke-width="3" stroke-linecap="round" fill="transparent" stroke-linejoin="round" points="141.73812866210938 42.058258056640625 136.43307495117188 58.41545104980469 132.01220703125 68.58343505859375 127.14926147460938 77.86724853515625 113.444580078125 99.9715576171875 98.41366577148438 118.98126220703124 86.03524780273438 130.9176025390625 74.98309326171875 138.87515258789063 74.98309326171875 138.87515258789063 " />
        <polyline stroke="black" stroke-width="3" stroke-linecap="round" fill="transparent" stroke-linejoin="round" points="63.930908203125 94.66653442382813 88.24566650390625 103.066162109375 97.08740234375 104.8345184326172 105.487060546875 106.1607666015625 123.612548828125 108.37120056152344 132.01220703125 107.92910766601563 132.01220703125 107.92910766601563 " />
        <polyline stroke="black" stroke-width="3" stroke-linecap="round" fill="transparent" stroke-linejoin="round" points="140.411865234375 141.52767944335938 122.28631591796876 157.00070190429688 113.444580078125 165.40032958984375 104.1607666015625 174.24205017089844 94.43487548828124 183.9679412841797 81.17230224609375 195.904296875 71.44638061523438 203.41973876953125 67.0255126953125 205.1881103515625 67.0255126953125 205.1881103515625 " />
        <polyline stroke="black" stroke-width="3" stroke-linecap="round" fill="transparent" stroke-linejoin="round" points="61.278411865234375 165.40032958984375 71.88848876953125 169.82119750976563 80.73019409179688 174.24205017089844 91.34027099609376 179.54708862304688 102.83453369140624 185.29421997070313 127.59130859375 195.904296875 139.96978759765625 200.76724243164065 164.7265625 208.28271484375 164.7265625 208.28271484375 " />
        </svg>