<?xml version="1.0" standalone="no"?>
    <svg width="256" height="256" xmlns="http://www.w3.org/2000/svg" version="1.1">
    <polyline stroke="black" stroke-width="3" stroke-linecap="round" fill="transparent" stroke-linejoin="round" points="150.49496459960938 28.795669555664063 144.747802734375 42.50035095214844 140.32696533203125 50.45790100097656 135.02191162109375 58.8575439453125 120.43307495117188 78.75141906738281 104.07589721679688 96.43487548828124 78.876953125 116.77085876464844 70.03524780273438 121.6337890625 61.19354248046875 125.612548828125 61.19354248046875 125.612548828125 " />
        <polyline stroke="black" stroke-width="3" stroke-linecap="round" fill="transparent" stroke-linejoin="round" points="93.90789794921876 51.784149169921875 104.5179443359375 56.20501708984375 110.70721435546876 59.29962158203125 117.780517578125 63.27839660644531 134.13775634765625 72.1201171875 142.97946166992188 76.98307800292969 165.96795654296875 87.15106201171875 165.96795654296875 87.15106201171875 " />
        <polyline stroke="black" stroke-width="3" stroke-linecap="round" fill="transparent" stroke-linejoin="round" points="162.87335205078125 115.0024871826172 147.40032958984375 134.8963623046875 139.00070190429688 145.06436157226563 130.158935546875 155.67442321777344 111.59130859375 175.126220703125 100.5391845703125 185.73629760742188 74.898193359375 208.28271484375 65.17230224609375 212.70355224609375 62.07769775390625 214.02981567382813 62.07769775390625 214.02981567382813 " />
        <polyline stroke="black" stroke-width="3" stroke-linecap="round" fill="transparent" stroke-linejoin="round" points="90.37118530273438 135.78054809570313 105.84423828125 145.94854736328125 113.8017578125 151.69564819335938 122.201416015625 157.88485717773438 141.21112060546875 171.58953857421875 162.87335205078125 187.06256103515625 190.72479248046875 202.53558349609375 190.72479248046875 202.53558349609375 " />
        </svg>