<?xml version="1.0" standalone="no"?>
    <svg width="256" height="256" xmlns="http://www.w3.org/2000/svg" version="1.1">
    <polyline stroke="black" stroke-width="3" stroke-linecap="round" fill="transparent" stroke-linejoin="round" points="65.37716674804688 96.90652465820313 65.37716674804688 107.00857543945313 65.37716674804688 118.3228759765625 65.37716674804688 142.56784057617188 65.78125 164.38829040527344 66.185302734375 183.3801727294922 66.185302734375 197.11898803710935 66.185302734375 204.79653930664065 66.185302734375 205.60470581054688 66.185302734375 205.60470581054688 " />
        <polyline stroke="black" stroke-width="3" stroke-linecap="round" fill="transparent" stroke-linejoin="round" points="99.72421264648438 109.83714294433594 131.24264526367188 90.84527587890624 140.94061279296875 87.20854187011719 157.912109375 85.1881103515625 173.2672119140625 90.037109375 184.985595703125 102.96775817871094 194.279541015625 128.42495727539063 194.68359375 155.90255737304688 189.02642822265625 178.12710571289063 180.94476318359375 193.48223876953125 172.8631591796875 201.96795654296875 167.61004638671875 204.3924560546875 167.61004638671875 204.3924560546875 " />
        <polyline stroke="black" stroke-width="3" stroke-linecap="round" fill="transparent" stroke-linejoin="round" points="110.63446044921876 75.49012756347656 112.250732421875 90.84527587890624 112.65484619140624 108.22080993652344 111.8466796875 155.49847412109375 110.63446044921876 181.7638397216797 109.82626342773438 198.33123779296875 109.42218017578124 207.22103881835935 109.42218017578124 208.83737182617188 109.42218017578124 208.83737182617188 " />
        <polyline stroke="black" stroke-width="3" stroke-linecap="round" fill="transparent" stroke-linejoin="round" points="140.94061279296875 78.31871032714844 141.34469604492188 92.46159362792967 142.96102905273438 136.10250854492188 143.7691650390625 164.38829040527344 143.7691650390625 178.12710571289063 144.17327880859375 203.18023681640625 144.17327880859375 203.18023681640625 " />
        </svg>