<?xml version="1.0" standalone="no"?>
    <svg width="256" height="256" xmlns="http://www.w3.org/2000/svg" version="1.1">
    <polyline stroke="black" stroke-width="3" stroke-linecap="round" fill="transparent" stroke-linejoin="round" points="73.7708740234375 115.76707458496094 77.07095336914063 164.60891723632813 77.40097045898438 167.5790252685547 77.73101806640625 173.18923950195313 77.73101806640625 174.83929443359375 77.73101806640625 174.83929443359375 77.73101806640625 174.83929443359375 " />
        <polyline stroke="black" stroke-width="3" stroke-linecap="round" fill="transparent" stroke-linejoin="round" points="88.951416015625 127.31752014160156 125.25277709960938 104.54666137695313 132.5130615234375 102.56657409667967 154.29388427734375 99.5964813232422 173.1046142578125 102.8966064453125 186.63507080078125 113.78700256347656 194.55535888671875 131.60769653320313 197.85546875 153.0584716796875 193.56536865234375 171.8691864013672 184.32501220703125 183.089599609375 169.47442626953125 187.04977416992188 157.92401123046875 184.40966796875 157.92401123046875 184.40966796875 157.92401123046875 184.40966796875 " />
        <polyline stroke="black" stroke-width="3" stroke-linecap="round" fill="transparent" stroke-linejoin="round" points="97.86175537109376 88.04603576660156 105.12203979492188 155.3685760498047 110.73220825195313 175.82933044433594 111.062255859375 177.14939880371094 111.72225952148438 178.46942138671875 111.72225952148438 178.46942138671875 111.72225952148438 178.46942138671875 " />
        <polyline stroke="black" stroke-width="3" stroke-linecap="round" fill="transparent" stroke-linejoin="round" points="123.60272216796876 66.92524719238281 139.7733154296875 135.23782348632813 142.0833740234375 144.4781494140625 148.02362060546875 170.5491180419922 150.66372680664063 191.99993896484375 150.66372680664063 191.99993896484375 " />
        </svg>