<?xml version="1.0" standalone="no"?>
    <svg width="256" height="256" xmlns="http://www.w3.org/2000/svg" version="1.1">
    <polyline stroke="black" stroke-width="3" stroke-linecap="round" fill="transparent" stroke-linejoin="round" points="61.82525634765625 109.30793762207033 61.82525634765625 125.141845703125 61.82525634765625 143.41172790527344 62.434234619140625 159.24563598632813 63.043212890625 169.5985870361328 63.043212890625 175.68853759765625 63.043212890625 178.7335205078125 63.043212890625 176.9065399169922 63.6522216796875 168.38058471679688 60.60723876953125 150.11068725585938 63.6522216796875 140.3667449951172 67.30621337890625 134.2767791748047 70.960205078125 128.18682861328125 77.0501708984375 122.09686279296876 84.96710205078125 116.00689697265624 95.92904663085938 108.6989288330078 112.3719482421875 99.56399536132813 134.29583740234375 92.25602722167967 151.34771728515625 90.42904663085938 166.5726318359375 94.08302307128906 173.2716064453125 100.781982421875 182.40655517578125 119.66087341308594 181.79754638671875 139.75775146484375 176.31658935546875 158.02764892578125 168.39959716796875 170.8165740966797 161.70068359375 178.12452697753906 150.73870849609375 186.04147338867188 137.3408203125 188.47747802734375 126.37884521484376 181.1695098876953 126.37884521484376 181.1695098876953 " />
        <polyline stroke="black" stroke-width="3" stroke-linecap="round" fill="transparent" stroke-linejoin="round" points="102.62799072265624 73.98614501953125 100.1920166015625 102.60897827148438 97.14703369140624 138.53976440429688 96.53802490234376 162.29061889648438 95.92904663085938 184.823486328125 95.32003784179688 203.0933837890625 94.10205078125 217.10031127929688 94.10205078125 223.79925537109375 95.92904663085938 226.2352600097656 95.92904663085938 226.2352600097656 " />
        <polyline stroke="black" stroke-width="3" stroke-linecap="round" fill="transparent" stroke-linejoin="round" points="125.160888671875 72.76814270019531 122.11590576171876 111.74391174316406 120.89788818359376 140.9757537841797 120.28887939453124 167.77159118652344 120.89788818359376 188.47747802734375 122.11590576171876 208.5743408203125 122.11590576171876 229.88922119140625 122.11590576171876 229.88922119140625 " />
        </svg>