<?xml version="1.0" standalone="no"?>
    <svg width="256" height="256" xmlns="http://www.w3.org/2000/svg" version="1.1">
    <polyline stroke="black" stroke-width="3" stroke-linecap="round" fill="transparent" stroke-linejoin="round" points="60.234527587890625 117.59147644042967 60.234527587890625 132.89431762695313 60.84661865234375 153.70616149902344 61.458740234375 170.8453369140625 62.6829833984375 186.14816284179688 62.6829833984375 194.7177734375 61.458740234375 198.39044189453125 61.458740234375 198.39044189453125 " />
        <polyline stroke="black" stroke-width="3" stroke-linecap="round" fill="transparent" stroke-linejoin="round" points="65.13143920898438 88.82215881347656 78.59793090820313 81.47679138183594 98.185546875 71.6829833984375 123.89431762695313 63.72550964355469 148.37884521484375 60.052825927734375 166.74224853515625 60.052825927734375 182.0450439453125 63.72550964355469 193.67523193359375 70.45875549316406 202.85693359375 84.537353515625 206.5296630859375 112.694580078125 199.79638671875 143.912353515625 190.61468505859375 165.9484405517578 180.208740234375 178.19070434570313 166.130126953125 183.69973754882813 141.64559936523438 175.74224853515625 141.64559936523438 175.74224853515625 " />
        <polyline stroke="black" stroke-width="3" stroke-linecap="round" fill="transparent" stroke-linejoin="round" points="101.24612426757813 48.42266845703125 103.694580078125 64.33761596679688 107.36724853515624 101.67652893066406 109.20361328125 134.73065185546875 109.81570434570313 169.62110900878906 108.59149169921876 191.65719604492188 104.9188232421875 208.79635620117188 103.08245849609376 214.30538940429688 103.08245849609376 214.30538940429688 " />
        <polyline stroke="black" stroke-width="3" stroke-linecap="round" fill="transparent" stroke-linejoin="round" points="130.6275634765625 52.09535217285156 127.5670166015625 93.10694885253906 128.17910766601563 127.3852996826172 129.4033203125 156.76673889160156 130.01544189453125 182.4754943847656 128.79119873046875 203.287353515625 126.3427734375 222.26287841796875 126.3427734375 222.26287841796875 " />
        </svg>