<?xml version="1.0" standalone="no"?>
    <svg width="256" height="256" xmlns="http://www.w3.org/2000/svg" version="1.1">
    <polyline stroke="black" stroke-width="3" stroke-linecap="round" fill="transparent" stroke-linejoin="round" points="54.277587890625 126.31082153320313 57.10284423828125 141.56985473632813 59.179534912109375 158.6436004638672 60.59942626953125 199.50048828125 60.012420654296875 203.20965576171875 58.700897216796875 207.92327880859375 58.620849609375 209.57669067382813 58.615447998046875 209.68869018554688 " />
        <polyline stroke="black" stroke-width="3" stroke-linecap="round" fill="transparent" stroke-linejoin="round" points="89.34051513671875 107.82684326171876 111.569580078125 100.27523803710938 137.0582275390625 94.91351318359376 148.15130615234375 92.75738525390624 156.763671875 91.68832397460938 170.73681640625 92.52999877929688 182.2205810546875 97.84803771972656 186.14111328125 103.47306823730467 196.7711181640625 124.535400390625 201.8177490234375 152.5308837890625 200.73681640625 162.97727966308594 197.9019775390625 185.111328125 195.13250732421875 193.66729736328125 188.5081787109375 202.92431640625 185.40777587890625 207.39694213867188 178.5001220703125 212.98663330078125 175.056396484375 213.303466796875 163.33319091796875 214.17767333984375 154.4454345703125 212.1121826171875 145.74169921875 207.89407348632813 144.79513549804688 206.52960205078125 " />
        <polyline stroke="black" stroke-width="3" stroke-linecap="round" fill="transparent" stroke-linejoin="round" points="86.33871459960938 77.3302001953125 87.4775390625 86.40583801269531 89.14306640625 98.7952117919922 91.4736328125 115.16879272460938 95.31698608398438 150.36175537109375 97.0826416015625 167.67123413085938 98.2265625 193.91680908203125 98.226806640625 201.61721801757813 98.16748046875 212.036376953125 98.30755615234376 215.243408203125 98.29867553710938 215.29638671875 98.2974853515625 215.3035888671875 98.297119140625 215.30587768554688 " />
        <polyline stroke="black" stroke-width="3" stroke-linecap="round" fill="transparent" stroke-linejoin="round" points="140.8282470703125 83.96575927734375 141.93359375 115.61802673339844 142.07040405273438 132.1002655029297 142.58480834960938 165.29043579101563 143.021240234375 179.33645629882813 142.8966064453125 194.00982666015625 140.94873046875 202.93939208984375 138.38568115234375 206.76705932617188 137.94918823242188 204.5430908203125 " />
        </svg>