<?xml version="1.0" standalone="no"?>
    <svg width="256" height="256" xmlns="http://www.w3.org/2000/svg" version="1.1">
    <polyline stroke="black" stroke-width="3" stroke-linecap="round" fill="transparent" stroke-linejoin="round" points="124.21261596679688 48.42266845703125 112.58245849609376 70.45875549316406 91.77059936523438 102.9007568359375 69.73452758789063 135.3427734375 58.71649169921875 149.42137145996094 51.983245849609375 156.76673889160156 48.92266845703125 159.82730102539063 48.92266845703125 159.82730102539063 " />
        <polyline stroke="black" stroke-width="3" stroke-linecap="round" fill="transparent" stroke-linejoin="round" points="132.78219604492188 58.82859802246094 148.6971435546875 61.27705383300781 176.24224853515625 67.39817810058594 193.9935302734375 71.6829833984375 211.1326904296875 77.19200134277344 224.5992431640625 82.08891296386719 230.7203369140625 85.76158142089844 233.7808837890625 91.27059936523438 233.7808837890625 91.27059936523438 " />
        <polyline stroke="black" stroke-width="3" stroke-linecap="round" fill="transparent" stroke-linejoin="round" points="124.82470703125 132.89431762695313 136.45489501953125 130.44586181640625 153.59405517578125 127.3852996826172 171.95745849609375 126.77317810058594 186.03607177734375 127.3852996826172 195.2177734375 130.44586181640625 195.2177734375 130.44586181640625 " />
        <polyline stroke="black" stroke-width="3" stroke-linecap="round" fill="transparent" stroke-linejoin="round" points="86.87371826171875 192.26931762695313 101.56442260742188 190.4329833984375 123.60049438476563 189.208740234375 168.2847900390625 189.82086181640625 184.81182861328125 191.04507446289065 197.0540771484375 193.4935302734375 203.17523193359375 197.7783203125 203.17523193359375 197.7783203125 " />
        </svg>