<?xml version="1.0" standalone="no"?>
    <svg width="256" height="256" xmlns="http://www.w3.org/2000/svg" version="1.1">
    <polyline stroke="black" stroke-width="3" stroke-linecap="round" fill="transparent" stroke-linejoin="round" points="97.2388916015625 77.01277160644531 91.6527099609375 88.16914367675781 78.583984375 115.15814208984376 71.28121948242188 130.5267333984375 57.98480224609375 153.77761840820313 50.717498779296875 165.08615112304688 48.353607177734375 167.79644775390625 45.106658935546875 167.128662109375 45.66729736328125 165.8011932373047 " />
        <polyline stroke="black" stroke-width="3" stroke-linecap="round" fill="transparent" stroke-linejoin="round" points="124.9521484375 83.59381103515625 146.999755859375 102.695068359375 160.72265625 114.34750366210938 172.645263671875 124.73995971679688 192.7032470703125 142.00723266601563 198.15972900390625 148.98065185546875 198.9820556640625 150.8311004638672 199.0716552734375 151.0328369140625 199.07269287109375 151.03515625 199.072998046875 151.03585815429688 " />
        <polyline stroke="black" stroke-width="3" stroke-linecap="round" fill="transparent" stroke-linejoin="round" points="108.1473388671875 134.52536010742188 121.33758544921876 136.13088989257813 126.879638671875 137.70843505859375 134.066650390625 140.9512176513672 136.5477294921875 141.93919372558594 138.55816650390625 142.07974243164063 138.62643432617188 142.05282592773438 138.66073608398438 142.03929138183594 " />
        <polyline stroke="black" stroke-width="3" stroke-linecap="round" fill="transparent" stroke-linejoin="round" points="94.8692626953125 212.39935302734375 116.464599609375 212.93634033203125 137.0135498046875 214.80081176757813 147.327392578125 215.41488647460935 154.65972900390625 215.38278198242188 170.72454833984375 213.489501953125 180.2176513671875 210.3739013671875 183.911376953125 209.4072265625 188.6240234375 209.67437744140625 188.71435546875 209.72622680664065 " />
        </svg>