<?xml version="1.0" standalone="no"?>
    <svg width="256" height="256" xmlns="http://www.w3.org/2000/svg" version="1.1">
    <polyline stroke="black" stroke-width="3" stroke-linecap="round" fill="transparent" stroke-linejoin="round" points="114.7166748046875 71.39735412597656 108.310791015625 79.51142883300781 101.47796630859376 88.4796142578125 94.64501953125 97.8748779296875 82.2603759765625 114.95713806152344 76.7086181640625 123.498291015625 67.31341552734375 137.16409301757813 61.76165771484375 143.99700927734375 61.76165771484375 143.99700927734375 " />
        <polyline stroke="black" stroke-width="3" stroke-linecap="round" fill="transparent" stroke-linejoin="round" points="120.69549560546876 59.43975830078125 125.82015991210938 60.29386901855469 147.60003662109375 66.27267456054688 162.97412109375 72.67852783203125 177.4940185546875 79.9384765625 188.17041015625 85.91728210449219 195.85748291015625 90.61489868164063 198.84686279296875 92.3231201171875 202.2633056640625 94.88546752929688 202.2633056640625 94.88546752929688 " />
        <polyline stroke="black" stroke-width="3" stroke-linecap="round" fill="transparent" stroke-linejoin="round" points="133.08013916015625 147.8404998779297 139.05892944335938 146.13229370117188 150.162353515625 143.99700927734375 154.86004638671875 143.14288330078125 164.2552490234375 142.28875732421875 168.09881591796875 141.86172485351563 171.5152587890625 141.86172485351563 171.5152587890625 141.86172485351563 " />
        <polyline stroke="black" stroke-width="3" stroke-linecap="round" fill="transparent" stroke-linejoin="round" points="84.3956298828125 202.93084716796875 92.936767578125 200.7955322265625 102.33203125 198.6602783203125 141.19418334960938 192.25439453125 159.130615234375 190.54620361328125 174.07757568359375 190.119140625 186.03515625 191.4002990722656 186.03515625 191.4002990722656 " />
        </svg>