<?xml version="1.0" standalone="no"?>
    <svg width="256" height="256" xmlns="http://www.w3.org/2000/svg" version="1.1">
    <polyline stroke="black" stroke-width="3" stroke-linecap="round" fill="transparent" stroke-linejoin="round" points="116.27752685546876 58.80885314941406 92.6029052734375 94.6094970703125 70.66058349609375 124.63583374023438 57.957122802734375 140.2264404296875 46.40850830078125 152.92990112304688 40.63421630859375 158.12677001953125 40.63421630859375 158.12677001953125 " />
        <polyline stroke="black" stroke-width="3" stroke-linecap="round" fill="transparent" stroke-linejoin="round" points="124.93896484375 57.65399169921875 145.14901733398438 60.5411376953125 170.555908203125 65.73800659179688 189.611083984375 71.51229858398438 206.3565673828125 77.28660583496094 217.3277587890625 81.32861328125 224.25689697265625 85.37062072753906 224.25689697265625 85.37062072753906 " />
        <polyline stroke="black" stroke-width="3" stroke-linecap="round" fill="transparent" stroke-linejoin="round" points="105.30636596679688 129.83270263671875 119.74212646484376 128.6778564453125 139.9521484375 128.1004180908203 154.38787841796875 128.6778564453125 166.513916015625 129.25527954101563 174.597900390625 129.83270263671875 174.597900390625 129.83270263671875 " />
        <polyline stroke="black" stroke-width="3" stroke-linecap="round" fill="transparent" stroke-linejoin="round" points="83.364013671875 173.1399383544922 109.92578125 169.6753692626953 133.60040283203125 169.09793090820313 159.58477783203125 170.25279235839844 174.597900390625 170.83023071289063 186.72393798828125 171.40765380859375 193.653076171875 172.56251525878906 193.653076171875 172.56251525878906 " />
        </svg>