<?xml version="1.0" standalone="no"?>
    <svg width="256" height="256" xmlns="http://www.w3.org/2000/svg" version="1.1">
    <polyline stroke="black" stroke-width="3" stroke-linecap="round" fill="transparent" stroke-linejoin="round" points="129.39459228515625 58.84977722167969 112.73358154296876 80.38716125488281 89.97711181640625 112.08367919921876 82.25616455078125 123.05557250976563 75.7542724609375 131.5892333984375 67.22064208984375 141.34202575683594 63.969696044921875 144.18658447265625 63.969696044921875 144.18658447265625 " />
        <polyline stroke="black" stroke-width="3" stroke-linecap="round" fill="transparent" stroke-linejoin="round" points="104.19989013671876 93.7972412109375 126.14364624023438 91.35903930664063 137.92828369140625 91.76541137695313 172.06298828125 96.23542785644533 181.409423828125 98.26725769042967 208.2294921875 106.3945770263672 208.2294921875 106.3945770263672 " />
        <polyline stroke="black" stroke-width="3" stroke-linecap="round" fill="transparent" stroke-linejoin="round" points="121.26727294921876 159.22210693359375 129.39459228515625 157.59666442871094 137.52191162109375 156.37754821777344 144.83648681640625 155.158447265625 161.091064453125 153.1266326904297 169.624755859375 151.90753173828125 169.624755859375 151.90753173828125 " />
        <polyline stroke="black" stroke-width="3" stroke-linecap="round" fill="transparent" stroke-linejoin="round" points="83.47528076171875 200.67144775390625 98.10443115234376 197.01412963867188 111.92083740234376 193.76321411132813 124.924560546875 191.32501220703125 150.93197631835938 188.48046875 181.0030517578125 186.85498046875 201.3212890625 186.85498046875 201.3212890625 186.85498046875 " />
        </svg>