<?xml version="1.0" standalone="no"?>
    <svg width="256" height="256" xmlns="http://www.w3.org/2000/svg" version="1.1">
    <polyline stroke="black" stroke-width="3" stroke-linecap="round" fill="transparent" stroke-linejoin="round" points="41.13787841796875 87.59793090820313 46.0347900390625 98.615966796875 50.319580078125 109.02189636230467 56.440704345703125 119.42782592773438 62.56182861328125 126.16107177734376 75.41622924804688 128.60952758789063 75.41622924804688 128.60952758789063 " />
        <polyline stroke="black" stroke-width="3" stroke-linecap="round" fill="transparent" stroke-linejoin="round" points="120.71261596679688 61.88916015625 111.53091430664063 79.64045715332031 88.27059936523438 111.47035217285156 71.13143920898438 132.28219604492188 55.82861328125 146.36080932617188 44.198455810546875 156.76673889160156 38.077301025390625 162.2757568359375 36.240966796875 164.11209106445313 40.5257568359375 161.66363525390625 53.99224853515625 153.09405517578125 72.9677734375 139.6275634765625 90.71905517578124 127.99740600585938 104.79766845703124 118.20359802246094 116.42782592773438 107.185546875 116.42782592773438 107.185546875 " />
        <polyline stroke="black" stroke-width="3" stroke-linecap="round" fill="transparent" stroke-linejoin="round" points="93.16751098632813 57.6043701171875 88.88272094726563 68.01029968261719 76.0283203125 98.0038604736328 61.949737548828125 145.13658142089844 55.21649169921875 170.8453369140625 49.70745849609375 188.59661865234375 46.0347900390625 198.39044189453125 44.198455810546875 202.67523193359375 45.42266845703125 200.22677612304688 50.319580078125 187.98452758789065 58.88916015625 167.78477478027344 61.949737548828125 159.21519470214844 65.62240600585938 155.54251098632813 69.9072265625 156.76673889160156 75.41622924804688 162.2757568359375 84.59793090820313 172.06956481933594 94.3917236328125 180.63916015625 103.57342529296876 183.08761596679688 103.57342529296876 183.08761596679688 " />
        <polyline stroke="black" stroke-width="3" stroke-linecap="round" fill="transparent" stroke-linejoin="round" points="112.755126953125 71.6829833984375 121.32470703125 86.37370300292969 127.44586181640624 94.3311767578125 133.5670166015625 100.45230102539063 142.74868774414063 104.7371063232422 155.60308837890625 100.45230102539063 169.68170166015625 87.59793090820313 179.4754638671875 75.9677734375 185.59661865234375 71.07086181640625 189.269287109375 68.62240600585938 189.269287109375 70.45875549316406 184.9844970703125 78.41622924804688 169.68170166015625 96.77963256835938 150.7061767578125 113.3066864013672 135.4033203125 124.93684387207033 128.0579833984375 129.833740234375 122.5489501953125 133.5064239501953 120.10049438476563 135.3427734375 123.16107177734376 135.3427734375 132.95489501953125 130.44586181640625 155.60308837890625 120.6520538330078 176.4149169921875 110.85823059082033 199.0631103515625 94.3311767578125 199.0631103515625 94.3311767578125 " />
        <polyline stroke="black" stroke-width="3" stroke-linecap="round" fill="transparent" stroke-linejoin="round" points="169.68170166015625 39.24097442626953 162.3363037109375 52.70746612548828 146.42138671875 87.59793090820313 135.4033203125 120.03993225097656 124.38531494140624 155.54251098632813 117.65203857421876 176.9664764404297 112.755126953125 194.10565185546875 109.694580078125 203.89947509765625 109.694580078125 203.89947509765625 " />
        <polyline stroke="black" stroke-width="3" stroke-linecap="round" fill="transparent" stroke-linejoin="round" points="140.912353515625 145.13658142089844 154.990966796875 159.21519470214844 166.009033203125 171.45745849609375 177.63916015625 186.14816284179688 189.269287109375 202.67523193359375 189.269287109375 202.67523193359375 " />
        </svg>