<?xml version="1.0" standalone="no"?>
    <svg width="256" height="256" xmlns="http://www.w3.org/2000/svg" version="1.1">
    <polyline stroke="black" stroke-width="3" stroke-linecap="round" fill="transparent" stroke-linejoin="round" points="67.1334228515625 80.26667785644531 82.06671142578125 101.60000610351563 92.7333984375 103.73333740234376 92.7333984375 103.73333740234376 " />
        <polyline stroke="black" stroke-width="3" stroke-linecap="round" fill="transparent" stroke-linejoin="round" points="109.80010986328124 62.13334655761719 103.4000244140625 83.4666748046875 92.7333984375 108.00001525878906 79.93341064453125 130.40003967285156 63.93341064453125 149.6000213623047 63.93341064453125 149.6000213623047 " />
        <polyline stroke="black" stroke-width="3" stroke-linecap="round" fill="transparent" stroke-linejoin="round" points="46.86669921875 157.06671142578125 87.4000244140625 129.33334350585938 107.666748046875 119.73338317871094 117.2667236328125 114.40000915527344 121.53338623046876 111.20002746582033 122.60003662109376 104.8000030517578 118.3333740234375 96.26667785644533 118.3333740234375 96.26667785644533 " />
        <polyline stroke="black" stroke-width="3" stroke-linecap="round" fill="transparent" stroke-linejoin="round" points="91.666748046875 53.600006103515625 90.60003662109376 80.26667785644531 90.60003662109376 97.33334350585938 85.2667236328125 152.80001831054688 79.93341064453125 179.4666748046875 74.60003662109375 197.6000061035156 69.2667236328125 206.13336181640625 62.86669921875 204 62.86669921875 204 " />
        <polyline stroke="black" stroke-width="3" stroke-linecap="round" fill="transparent" stroke-linejoin="round" points="82.06671142578125 161.33334350585938 104.466796875 170.93336486816406 109.80010986328124 175.20001220703125 110.86669921875 176.26669311523438 110.86669921875 176.26669311523438 " />
        <polyline stroke="black" stroke-width="3" stroke-linecap="round" fill="transparent" stroke-linejoin="round" points="132.2000732421875 73.86668395996094 154.60009765625 85.60000610351563 166.3333740234375 85.60000610351563 166.3333740234375 85.60000610351563 " />
        <polyline stroke="black" stroke-width="3" stroke-linecap="round" fill="transparent" stroke-linejoin="round" points="190.86669921875 55.73333740234375 166.3333740234375 86.66667175292969 158.86669921875 94.1333465576172 158.86669921875 94.1333465576172 " />
        <polyline stroke="black" stroke-width="3" stroke-linecap="round" fill="transparent" stroke-linejoin="round" points="122.60003662109376 127.20001220703124 148.2000732421875 112.26667785644533 185.533447265625 97.33334350585938 199.4000244140625 92.00001525878906 204.7333984375 90.933349609375 205.800048828125 85.60000610351563 205.800048828125 85.60000610351563 " />
        <polyline stroke="black" stroke-width="3" stroke-linecap="round" fill="transparent" stroke-linejoin="round" points="166.3333740234375 36.533355712890625 165.2667236328125 65.33334350585938 164.2000732421875 84.53335571289063 158.86669921875 127.20001220703124 150.3333740234375 162.40003967285156 140.7333984375 190.13336181640625 135.4000244140625 205.06671142578125 130.0667724609375 210.40005493164065 130.0667724609375 210.40005493164065 " />
        <polyline stroke="black" stroke-width="3" stroke-linecap="round" fill="transparent" stroke-linejoin="round" points="170.60009765625 106.933349609375 178.0667724609375 126.1333465576172 193 152.80001831054688 210.0667724609375 178.40003967285156 229.2667236328125 200.80001831054688 247.4000244140625 218.933349609375 262.3333740234375 233.86666870117188 262.3333740234375 233.86666870117188 " />
        </svg>