<?xml version="1.0" standalone="no"?>
    <svg width="256" height="256" xmlns="http://www.w3.org/2000/svg" version="1.1">
    <polyline stroke="black" stroke-width="3" stroke-linecap="round" fill="transparent" stroke-linejoin="round" points="58.169464111328125 96.58737182617188 69.46270751953125 91.8323211669922 84.9166259765625 85.88851928710938 115.82443237304688 74.59527587890625 136.62774658203125 68.05708312988281 159.2142333984375 61.518890380859375 175.2625732421875 57.35821533203125 188.33892822265625 53.79193878173828 196.6602783203125 52.0087890625 201.415283203125 50.820030212402344 204.38720703125 50.22564697265625 204.38720703125 50.22564697265625 " />
        <polyline stroke="black" stroke-width="3" stroke-linecap="round" fill="transparent" stroke-linejoin="round" points="89.0772705078125 115.01318359375 90.86041259765624 129.27833557128906 90.86041259765624 148.29852294921875 90.86041259765624 166.72434997558594 91.45480346679688 182.77264404296875 92.0491943359375 191.6883544921875 93.23794555664063 198.22653198242188 97.99298095703124 202.98159790039065 108.69183349609376 205.35910034179688 123.5513916015625 203.57595825195313 136.03338623046875 200.0096740722656 147.9210205078125 195.254638671875 163.3748779296875 185.150146484375 177.045654296875 172.0737762451172 177.045654296875 172.0737762451172 " />
        <polyline stroke="black" stroke-width="3" stroke-linecap="round" fill="transparent" stroke-linejoin="round" points="161.591796875 123.9289093017578 160.99737548828125 139.97718811035156 162.780517578125 153.64796447753906 164.56365966796875 167.91310119628906 166.3468017578125 182.17825317382813 167.53558349609375 197.03778076171875 167.53558349609375 207.73663330078125 167.53558349609375 207.73663330078125 " />
        </svg>