<?xml version="1.0" standalone="no"?>
    <svg width="256" height="256" xmlns="http://www.w3.org/2000/svg" version="1.1">
    <polyline stroke="black" stroke-width="3" stroke-linecap="round" fill="transparent" stroke-linejoin="round" points="41.29150390625 110.82133483886714 61.132568359375 105.50675964355467 80.9736328125 100.1921844482422 104.71209716796876 94.87762451171876 129.51339721679688 90.62596130371094 152.8975830078125 86.72860717773438 168.84124755859375 85.66571044921875 178.407470703125 83.53987121582031 183.013427734375 82.47695922851563 183.7220458984375 81.76834106445313 183.7220458984375 81.76834106445313 " />
        <polyline stroke="black" stroke-width="3" stroke-linecap="round" fill="transparent" stroke-linejoin="round" points="100.10614013671876 110.46702575683594 98.68890380859376 121.09617614746094 97.27166748046876 131.72532653808594 96.208740234375 143.41738891601563 95.85446166992188 152.98362731933594 96.208740234375 168.92735290527344 96.9173583984375 178.13926696777344 99.3974609375 184.1624755859375 107.19219970703124 187.3511962890625 122.42733764648438 185.22537231445313 137.30810546875 179.2021942138672 149.70880126953125 172.1160888671875 158.56640625 162.90415954589844 164.23529052734375 154.75515747070313 164.23529052734375 154.75515747070313 " />
        <polyline stroke="black" stroke-width="3" stroke-linecap="round" fill="transparent" stroke-linejoin="round" points="162.109375 93.10607910156253 161.755126953125 99.48358154296876 161.40087890625 105.861083984375 163.17236328125 134.55975341796875 165.2982177734375 156.52667236328125 166.361083984375 168.92735290527344 168.1326904296875 182.39093017578125 168.1326904296875 182.39093017578125 " />
        </svg>