<?xml version="1.0" standalone="no"?>
    <svg width="256" height="256" xmlns="http://www.w3.org/2000/svg" version="1.1">
    <polyline stroke="black" stroke-width="3" stroke-linecap="round" fill="transparent" stroke-linejoin="round" points="77.75 75 92.75 67.5 102.75 63.75 105.25 62.5 109 61.25 110.25 61.25 111.5 61.25 111.5 62.5 111.5 62.5 " />
        <polyline stroke="black" stroke-width="3" stroke-linecap="round" fill="transparent" stroke-linejoin="round" points="106.5 118.75 111.5 120 114 120 116.5 121.25 119 126.25 121.5 141.25 120.25 150 115.25 172.5 109 191.25 105.25 201.25 99 218.75 97.75 221.25 96.5 223.75 96.5 225 95.25 225 90.25 216.25 84 207.5 74 183.75 69 165 67.75 147.5 67.75 147.5 " />
        <polyline stroke="black" stroke-width="3" stroke-linecap="round" fill="transparent" stroke-linejoin="round" points="67.75 121.25 64 142.5 59 165 54 176.25 44 197.5 34 213.75 31.5 218.75 29 223.75 27.75 223.75 27.75 223.75 " />
        <polyline stroke="black" stroke-width="3" stroke-linecap="round" fill="transparent" stroke-linejoin="round" points="119 96.25 135.25 87.5 150.25 77.5 169 67.5 182.75 61.25 186.5 60 189 58.75 190.25 58.75 176.5 73.75 170.25 78.75 170.25 78.75 " />
        <polyline stroke="black" stroke-width="3" stroke-linecap="round" fill="transparent" stroke-linejoin="round" points="144 128.75 142.75 152.5 139 175 137.75 182.5 136.5 192.5 136.5 198.75 137.75 202.5 137.75 203.75 137.75 203.75 " />
        <polyline stroke="black" stroke-width="3" stroke-linecap="round" fill="transparent" stroke-linejoin="round" points="155.25 127.5 160.25 122.5 161.5 122.5 162.75 121.25 164 120 165.25 120 166.5 120 167.75 120 169 120 169 121.25 170.25 122.5 172.75 125 174 131.25 175.25 136.25 176.5 148.75 179 163.75 180.25 178.75 181.5 183.75 184 196.25 189 207.5 195.25 215 199 217.5 212.75 218.75 226.5 216.25 242.75 211.25 247.75 208.75 252.75 206.25 254 205 250.25 198.75 241.5 182.5 229 143.75 199 50 199 50 " />
        </svg>