<?xml version="1.0" standalone="no"?>
    <svg width="256" height="256" xmlns="http://www.w3.org/2000/svg" version="1.1">
    <polyline stroke="black" stroke-width="3" stroke-linecap="round" fill="transparent" stroke-linejoin="round" points="29 107 37 105 58 96 77 88 94 82 106 79 114 78 117 78 117 78 " />
        <polyline stroke="black" stroke-width="3" stroke-linecap="round" fill="transparent" stroke-linejoin="round" points="67 97 67 114 61 138 48 165 32 192 22 214 15 228 13 231 13 231 " />
        <polyline stroke="black" stroke-width="3" stroke-linecap="round" fill="transparent" stroke-linejoin="round" points="67 154 77 150 86 148 93 148 96 151 98 162 99 177 99 190 95 199 88 208 82 212 76 215 68 216 58 217 48 209 48 209 " />
        <polyline stroke="black" stroke-width="3" stroke-linecap="round" fill="transparent" stroke-linejoin="round" points="121 103 129 103 145 100 159 97 174 95 181 95 185 95 185 95 " />
        <polyline stroke="black" stroke-width="3" stroke-linecap="round" fill="transparent" stroke-linejoin="round" points="149 113 143 134 130 163 120 188 114 206 110 216 110 218 110 218 " />
        <polyline stroke="black" stroke-width="3" stroke-linecap="round" fill="transparent" stroke-linejoin="round" points="149 136 151 136 155 136 158 136 160 136 162 152 162 173 164 190 168 200 176 206 188 207 200 207 210 202 213 199 215 199 215 193 211 177 203 148 203 148 " />
        </svg>