<?xml version="1.0" standalone="no"?>
    <svg width="256" height="256" xmlns="http://www.w3.org/2000/svg" version="1.1">
    <polyline stroke="black" stroke-width="3" stroke-linecap="round" fill="transparent" stroke-linejoin="round" points="50 87 54 85 57 84 62 82 67 81 72 79 77 77 82 75 87 73 92 69 98 65 100 63 102 61 " />
        <polyline stroke="black" stroke-width="3" stroke-linecap="round" fill="transparent" stroke-linejoin="round" points="62 97 61 104 61 112 61 123 61 131 62 138 63 145 63 150 64 155 65 158 66 161 67 162 70 163 73 162 76 159 79 153 83 146 85 137 88 130 89 126 " />
        <polyline stroke="black" stroke-width="3" stroke-linecap="round" fill="transparent" stroke-linejoin="round" points="91 117 93 119 94 122 96 126 99 129 102 135 103 136 106 139 107 139 111 137 113 136 " />
        <polyline stroke="black" stroke-width="3" stroke-linecap="round" fill="transparent" stroke-linejoin="round" points="103 75 105 73 108 71 112 69 117 67 126 63 133 60 140 58 148 55 155 52 163 49 169 47 175 45 180 43 183 42 184 42 " />
        <polyline stroke="black" stroke-width="3" stroke-linecap="round" fill="transparent" stroke-linejoin="round" points="121 78 119 86 118 92 117 99 116 107 116 115 116 123 117 131 118 138 120 148 122 154 124 159 126 163 129 166 131 167 134 168 138 167 142 165 148 160 156 150 158 146 164 137 166 132 169 128 " />
        <polyline stroke="black" stroke-width="3" stroke-linecap="round" fill="transparent" stroke-linejoin="round" points="157 59 157 59 157 60 158 64 159 70 160 84 161 95 162 107 162 119 163 131 163 142 164 153 164 158 " />
        </svg>