<?xml version="1.0" standalone="no"?>
    <svg width="256" height="256" xmlns="http://www.w3.org/2000/svg" version="1.1">
    <polyline stroke="black" stroke-width="3" stroke-linecap="round" fill="transparent" stroke-linejoin="round" points="97 69 98 68 98 68 97 68 97 68 95 69 95 69 91 72 90 73 85 78 82 81 79 84 76 87 71 91 69 94 66 97 63 101 61 105 58 111 57 118 55 125 54 133 53 145 54 152 54 159 54 164 55 169 55 172 55 174 55 175 56 176 56 176 59 174 62 172 66 168 67 165 73 155 75 152 77 148 79 144 " />
        <polyline stroke="black" stroke-width="3" stroke-linecap="round" fill="transparent" stroke-linejoin="round" points="76 134 76 136 76 139 78 143 80 146 82 150 86 156 89 159 92 161 95 162 98 163 100 162 103 161 " />
        <polyline stroke="black" stroke-width="3" stroke-linecap="round" fill="transparent" stroke-linejoin="round" points="108 96 110 94 113 92 118 90 123 87 130 85 142 80 150 77 158 74 166 71 173 67 180 64 185 61 187 60 188 59 " />
        <polyline stroke="black" stroke-width="3" stroke-linecap="round" fill="transparent" stroke-linejoin="round" points="133 94 130 102 127 110 125 123 124 132 125 140 126 147 127 154 129 159 131 164 132 167 134 170 138 173 141 173 144 172 149 167 153 160 158 150 160 144 162 138 " />
        <polyline stroke="black" stroke-width="3" stroke-linecap="round" fill="transparent" stroke-linejoin="round" points="163 85 164 87 164 91 165 97 167 104 168 113 171 125 172 134 173 144 174 154 174 159 175 165 " />
        </svg>