<?xml version="1.0" standalone="no"?>
    <svg width="256" height="256" xmlns="http://www.w3.org/2000/svg" version="1.1">
    <polyline stroke="black" stroke-width="3" stroke-linecap="round" fill="transparent" stroke-linejoin="round" points="54.170440673828125 97.43594360351563 62.02508544921875 95.19174194335938 69.87973022460938 92.94754028320313 77.734375 90.703369140625 93.44369506835938 85.84097290039063 108.40487670898438 76.49020385742188 115.885498046875 69.00958251953125 115.885498046875 69.00958251953125 " />
        <polyline stroke="black" stroke-width="3" stroke-linecap="round" fill="transparent" stroke-linejoin="round" points="97.55801391601563 23.377838134765625 86.71112060546875 58.162689208984375 75.86422729492188 92.94754028320313 64.269287109375 133.34286499023438 53.04833984375 169.99786376953125 43.323577880859375 198.4241943359375 36.21697998046875 215.25558471679688 33.9727783203125 218.99591064453125 32.476654052734375 220.86605834960935 32.476654052734375 220.86605834960935 " />
        <polyline stroke="black" stroke-width="3" stroke-linecap="round" fill="transparent" stroke-linejoin="round" points="97.93206787109376 134.4649658203125 101.29833984375 136.33511352539063 104.66461181640624 138.20526123046875 108.40487670898438 140.07542419433594 116.633544921875 143.4416961669922 123.36614990234376 142.31961059570313 123.36614990234376 142.31961059570313 " />
        <polyline stroke="black" stroke-width="3" stroke-linecap="round" fill="transparent" stroke-linejoin="round" points="181.71484375 46.9417724609375 179.0966796875 52.92626190185547 176.478515625 58.91075134277344 171.9901123046875 66.017333984375 165.631591796875 75.74212646484375 165.631591796875 75.74212646484375 " />
        <polyline stroke="black" stroke-width="3" stroke-linecap="round" fill="transparent" stroke-linejoin="round" points="127.85452270507813 96.31381225585938 135.70916748046875 91.82545471191406 143.56381225585938 87.33709716796875 152.91455078125 82.47468566894531 163.013427734375 77.6123046875 194.4320068359375 65.26927185058594 209.3931884765625 61.154937744140625 217.99591064453125 60.40687561035156 220.6141357421875 60.780914306640625 220.6141357421875 60.780914306640625 " />
        <polyline stroke="black" stroke-width="3" stroke-linecap="round" fill="transparent" stroke-linejoin="round" points="124.48825073242188 161.3951416015625 131.59481811523438 157.65484619140625 138.70138549804688 153.91455078125 146.18197631835938 149.8002166748047 154.03662109375 144.93780517578125 162.63934326171875 137.4571990966797 162.63934326171875 137.4571990966797 " />
        <polyline stroke="black" stroke-width="3" stroke-linecap="round" fill="transparent" stroke-linejoin="round" points="132.71685791015625 140.07542419433594 128.228515625 155.7847137451172 123.74017333984376 171.49400329589844 119.25180053710938 186.08120727539065 110.64910888671876 208.8970642089844 105.78671264648438 219.74395751953125 103.91650390625 223.85833740234375 104.29052734375 223.1102294921875 104.29052734375 223.1102294921875 " />
        <polyline stroke="black" stroke-width="3" stroke-linecap="round" fill="transparent" stroke-linejoin="round" points="137.20523071289063 181.96688842773435 140.945556640625 184.2110595703125 144.68588256835938 186.45523071289065 148.42620849609375 188.69940185546875 155.9068603515625 191.691650390625 155.9068603515625 191.691650390625 " />
        <polyline stroke="black" stroke-width="3" stroke-linecap="round" fill="transparent" stroke-linejoin="round" points="179.0968017578125 127.73242187500001 185.08123779296875 123.61807250976563 191.065673828125 119.50372314453124 198.92034912109375 113.14520263671876 208.6451416015625 102.29832458496094 208.6451416015625 102.29832458496094 " />
        <polyline stroke="black" stroke-width="3" stroke-linecap="round" fill="transparent" stroke-linejoin="round" points="196.3021240234375 99.68008422851563 190.317626953125 116.137451171875 184.3331298828125 132.59481811523438 171.2420654296875 168.12771606445313 161.51727294921875 192.43972778320313 156.6549072265625 206.27886962890625 156.2808837890625 209.6451416015625 157.7769775390625 209.2711181640625 157.7769775390625 209.2711181640625 " />
        <polyline stroke="black" stroke-width="3" stroke-linecap="round" fill="transparent" stroke-linejoin="round" points="207.1490478515625 162.1432647705078 210.51531982421875 164.01339721679688 213.881591796875 165.88352966308594 227.720703125 176.73043823242188 227.720703125 176.73043823242188 " />
        </svg>