<?xml version="1.0" standalone="no"?>
    <svg width="256" height="256" xmlns="http://www.w3.org/2000/svg" version="1.1">
    <polyline stroke="black" stroke-width="3" stroke-linecap="round" fill="transparent" stroke-linejoin="round" points="57 132 63 131 69 130 76 128 89 123 97 120 112 114 117 111 117 111 " />
        <polyline stroke="black" stroke-width="3" stroke-linecap="round" fill="transparent" stroke-linejoin="round" points="94 76 94 82 94 88 90 112 89 124 83 148 77 171 69 187 62 199 56 205 53 206 53 206 " />
        <polyline stroke="black" stroke-width="3" stroke-linecap="round" fill="transparent" stroke-linejoin="round" points="78 162 80 166 82 170 88 178 97 186 107 191 117 192 121 192 121 192 " />
        <polyline stroke="black" stroke-width="3" stroke-linecap="round" fill="transparent" stroke-linejoin="round" points="171 65 171 69 171 73 171 90 171 90 " />
        <polyline stroke="black" stroke-width="3" stroke-linecap="round" fill="transparent" stroke-linejoin="round" points="124 110 129 110 134 110 147 107 156 106 169 103 177 102 190 100 201 99 207 99 208 100 208 100 " />
        <polyline stroke="black" stroke-width="3" stroke-linecap="round" fill="transparent" stroke-linejoin="round" points="126 151 134 150 142 149 152 146 162 143 168 139 168 139 " />
        <polyline stroke="black" stroke-width="3" stroke-linecap="round" fill="transparent" stroke-linejoin="round" points="153 130 147 149 141 168 134 187 128 200 122 208 121 209 121 209 " />
        <polyline stroke="black" stroke-width="3" stroke-linecap="round" fill="transparent" stroke-linejoin="round" points="137 175 143 181 149 187 157 193 164 197 167 197 167 197 " />
        <polyline stroke="black" stroke-width="3" stroke-linecap="round" fill="transparent" stroke-linejoin="round" points="160 151 175 151 190 151 196 151 207 149 211 149 211 149 " />
        <polyline stroke="black" stroke-width="3" stroke-linecap="round" fill="transparent" stroke-linejoin="round" points="196 124 191 141 186 158 180 177 173 193 168 203 166 205 166 205 " />
        <polyline stroke="black" stroke-width="3" stroke-linecap="round" fill="transparent" stroke-linejoin="round" points="184 176 192 182 200 188 214 198 229 206 235 209 235 209 " />
        </svg>