<?xml version="1.0" standalone="no"?>
    <svg width="256" height="256" xmlns="http://www.w3.org/2000/svg" version="1.1">
    <polyline stroke="black" stroke-width="3" stroke-linecap="round" fill="transparent" stroke-linejoin="round" points="35 90 44 90 53 90 59 90 62 90 68 89 73 88 74 87 78 86 79 86 81 85 82 84 82 84 83 84 83 84 84 84 84 83 85 83 86 83 86 83 88 82 89 82 89 82 " />
        <polyline stroke="black" stroke-width="3" stroke-linecap="round" fill="transparent" stroke-linejoin="round" points="69 60 69 64 69 68 56 136 52 148 50 151 47 158 44 166 43 170 40 176 38 183 36 186 34 188 34 190 34 191 33 192 32 192 32 192 " />
        <polyline stroke="black" stroke-width="3" stroke-linecap="round" fill="transparent" stroke-linejoin="round" points="63 90 67 99 71 108 78 124 86 139 88 146 93 156 94 156 95 159 96 160 96 160 96 161 96 162 97 162 97 162 " />
        <polyline stroke="black" stroke-width="3" stroke-linecap="round" fill="transparent" stroke-linejoin="round" points="151 56 151 56 151 56 152 59 154 68 154 78 154 80 154 83 154 86 154 86 " />
        <polyline stroke="black" stroke-width="3" stroke-linecap="round" fill="transparent" stroke-linejoin="round" points="109 94 116 92 123 90 130 88 144 84 158 83 164 82 175 81 183 80 186 80 190 79 192 79 193 79 194 79 194 79 195 79 195 79 " />
        <polyline stroke="black" stroke-width="3" stroke-linecap="round" fill="transparent" stroke-linejoin="round" points="111 142 114 140 117 138 120 137 127 132 132 129 134 127 137 124 139 122 139 121 140 120 140 120 " />
        <polyline stroke="black" stroke-width="3" stroke-linecap="round" fill="transparent" stroke-linejoin="round" points="136 109 136 110 136 111 135 114 134 124 130 135 127 150 125 162 122 170 121 176 120 181 119 182 118 184 118 184 118 185 118 185 " />
        <polyline stroke="black" stroke-width="3" stroke-linecap="round" fill="transparent" stroke-linejoin="round" points="130 131 130 131 130 131 131 132 132 132 134 136 140 143 142 147 145 152 147 154 148 156 148 156 148 157 149 158 150 158 150 159 150 159 150 160 151 160 151 160 " />
        <polyline stroke="black" stroke-width="3" stroke-linecap="round" fill="transparent" stroke-linejoin="round" points="153 140 154 140 155 140 156 140 159 138 163 137 172 134 176 132 183 130 188 128 189 127 192 126 192 125 193 124 193 124 " />
        <polyline stroke="black" stroke-width="3" stroke-linecap="round" fill="transparent" stroke-linejoin="round" points="184 104 182 108 180 112 180 117 178 132 176 148 172 160 170 169 164 188 160 195 159 196 157 200 157 201 156 202 156 202 " />
        <polyline stroke="black" stroke-width="3" stroke-linecap="round" fill="transparent" stroke-linejoin="round" points="176 156 178 158 180 160 182 162 191 174 198 183 200 187 205 192 209 198 210 200 212 202 212 203 212 204 212 204 " />
        </svg>