<?xml version="1.0" standalone="no"?>
    <svg width="256" height="256" xmlns="http://www.w3.org/2000/svg" version="1.1">
    <polyline stroke="black" stroke-width="3" stroke-linecap="round" fill="transparent" stroke-linejoin="round" points="178.7919921875 36.676910400390625 165.82525634765625 43.70054626464844 160.4224853515625 46.40196228027344 153.9390869140625 49.10335540771485 136.65008544921875 56.66728210449219 127.46533203125 60.989532470703125 118.82086181640624 65.311767578125 102.6124267578125 72.33540344238281 89.64572143554688 78.81877136230469 84.783203125 80.97988891601563 76.67901611328125 84.22157287597656 73.43731689453125 85.3021240234375 68.57479858398438 86.9229736328125 66.41366577148438 87.4632568359375 64.25253295898438 88.0035400390625 63.171966552734375 88.0035400390625 62.091400146484375 88.5438232421875 61.551116943359375 88.5438232421875 61.010833740234375 87.4632568359375 61.010833740234375 85.8424072265625 61.010833740234375 85.3021240234375 60.4705810546875 84.22157287597656 60.4705810546875 84.76185607910156 61.010833740234375 86.9229736328125 62.091400146484375 97.72857666015624 64.25253295898438 107.45361328125 66.95394897460938 125.82316589355467 68.57479858398438 133.92735290527344 71.27618408203125 145.8135223388672 71.81649780273438 150.13577270507813 72.89703369140625 153.37744140625 73.9775390625 157.15940856933594 74.517822265625 159.320556640625 75.05816650390625 159.320556640625 75.598388671875 159.86082458496094 76.67901611328125 159.86082458496094 79.38037109375 158.78025817871094 82.6220703125 157.15940856933594 93.42767333984376 150.67605590820313 98.83050537109376 146.8940887451172 110.71664428710938 139.87046813964844 116.65972900390624 136.62876892089844 128.5458984375 130.1453857421875 133.40841674804688 126.90371704101563 140.97235107421875 121.50091552734376 144.21405029296875 119.33978271484376 151.2376708984375 115.01754760742188 155.0196533203125 113.39671325683594 160.4224853515625 111.23558044433594 163.12384033203125 110.6953125 165.82525634765625 110.155029296875 165.82525634765625 110.155029296875 " />
        <polyline stroke="black" stroke-width="3" stroke-linecap="round" fill="transparent" stroke-linejoin="round" points="147.9959716796875 92.86605834960938 166.90576171875 113.39671325683594 171.768310546875 118.79949951171876 175.010009765625 123.12174987792967 180.412841796875 129.60513305664063 184.19476318359375 133.92735290527344 185.81561279296875 135.0079345703125 187.43646240234375 136.62876892089844 187.97674560546875 136.62876892089844 187.97674560546875 137.16905212402344 187.97674560546875 137.16905212402344 " />
        <polyline stroke="black" stroke-width="3" stroke-linecap="round" fill="transparent" stroke-linejoin="round" points="165.28497314453125 148.5149383544922 154.4793701171875 160.94139099121094 145.8348388671875 168.5052947998047 139.35150146484375 173.36782836914063 122.0625 187.41510009765625 112.87777709960938 196.05960083007813 95.04852294921876 210.10687255859375 86.94430541992188 217.6708068847656 70.19564819335938 232.79864501953125 62.091400146484375 238.74176025390625 48.04412841796875 248.466796875 39.939910888671875 253.32931518554688 22.650970458984375 262.5140686035156 17.248138427734375 264.6752014160156 9.6842041015625 266.8363037109375 7.52313232421875 267.3765869140625 5.36199951171875 267.3765869140625 5.36199951171875 267.3765869140625 5.36199951171875 267.3765869140625 " />
        <polyline stroke="black" stroke-width="3" stroke-linecap="round" fill="transparent" stroke-linejoin="round" points="49.12469482421875 192.81793212890625 63.712249755859375 199.84158325195313 72.35675048828125 204.7041015625 81.54150390625 210.10687255859375 91.26657104492188 217.13052368164065 110.17636108398438 230.63754272460935 119.9013671875 236.58062744140625 136.65008544921875 246.3056640625 146.3751220703125 251.16818237304688 160.4224853515625 257.65155029296875 166.90576171875 259.81268310546875 173.929443359375 262.5140686035156 175.55029296875 262.5140686035156 177.71142578125 263.0543518066406 177.71142578125 263.0543518066406 " />
        <polyline stroke="black" stroke-width="3" stroke-linecap="round" fill="transparent" stroke-linejoin="round" points="88.02490234375 160.40109252929688 99.37078857421876 171.2067108154297 100.9915771484375 172.82754516601563 102.6124267578125 174.44839477539063 104.23324584960938 175.52896118164063 106.39437866210938 176.6094970703125 106.93466186523438 177.14981079101563 110.17636108398438 178.7706298828125 110.17636108398438 178.7706298828125 " />
        </svg>