<?xml version="1.0" standalone="no"?>
    <svg width="256" height="256" xmlns="http://www.w3.org/2000/svg" version="1.1">
    <polyline stroke="black" stroke-width="3" stroke-linecap="round" fill="transparent" stroke-linejoin="round" points="80.37713623046875 53.889251708984375 84.64013671875 67.89617919921875 88.29409790039063 77.64012145996094 93.16607666015624 87.38406372070313 98.64703369140624 94.6920166015625 108.3909912109375 98.95498657226563 123.61590576171876 92.86502075195313 123.61590576171876 92.86502075195313 " />
        <polyline stroke="black" stroke-width="3" stroke-linecap="round" fill="transparent" stroke-linejoin="round" points="168.681640625 45.363304138183594 151.6297607421875 61.80621337890625 127.26986694335938 83.73008728027344 97.42904663085938 108.08993530273438 78.5501708984375 122.7058563232422 63.934234619140625 133.0587921142578 56.62628173828125 137.32176208496094 52.9722900390625 137.32176208496094 52.9722900390625 134.2767791748047 59.6712646484375 127.57781982421876 78.5501708984375 114.78889465332033 101.0830078125 103.2179718017578 135.18682861328125 91.0380401611328 163.20068359375 80.68510437011719 183.29754638671875 72.76814270019531 183.29754638671875 72.76814270019531 " />
        <polyline stroke="black" stroke-width="3" stroke-linecap="round" fill="transparent" stroke-linejoin="round" points="126.0518798828125 38.05534362792969 116.91693115234376 53.28025817871094 101.6920166015625 84.33908081054688 90.7301025390625 108.08993530273438 80.98614501953125 133.66778564453125 74.28717041015625 152.5466766357422 68.19720458984375 169.5985870361328 64.543212890625 181.1695098876953 64.543212890625 181.1695098876953 " />
        <polyline stroke="black" stroke-width="3" stroke-linecap="round" fill="transparent" stroke-linejoin="round" points="114.48095703125 119.66087341308594 129.09686279296875 120.26986694335938 150.4117431640625 122.7058563232422 167.463623046875 125.75083923339844 181.4705810546875 128.18682861328125 188.77850341796875 130.622802734375 188.77850341796875 130.622802734375 " />
        <polyline stroke="black" stroke-width="3" stroke-linecap="round" fill="transparent" stroke-linejoin="round" points="94.38406372070313 148.8927001953125 104.12799072265624 163.5086212158203 109.60897827148438 171.42556762695313 117.52593994140624 179.95152282714844 130.923828125 184.21450805664065 130.923828125 184.21450805664065 " />
        <polyline stroke="black" stroke-width="3" stroke-linecap="round" fill="transparent" stroke-linejoin="round" points="171.11761474609375 148.8927001953125 157.1107177734375 159.85464477539063 137.0137939453125 179.342529296875 100.47402954101563 220.14529418945313 86.46710205078125 237.80618286132813 74.89617919921875 251.2041015625 66.97921752929688 257.2940673828125 66.97921752929688 257.2940673828125 " />
        <polyline stroke="black" stroke-width="3" stroke-linecap="round" fill="transparent" stroke-linejoin="round" points="66.97921752929688 186.6504821777344 85.24911499023438 186.6504821777344 100.47402954101563 190.9134521484375 128.48785400390625 200.04840087890625 158.32867431640625 212.22833251953125 186.9515380859375 224.40826416015625 210.0933837890625 234.76119995117188 210.0933837890625 234.76119995117188 " />
        </svg>