<?xml version="1.0" standalone="no"?>
    <svg width="256" height="256" xmlns="http://www.w3.org/2000/svg" version="1.1">
    <polyline stroke="black" stroke-width="3" stroke-linecap="round" fill="transparent" stroke-linejoin="round" points="126.20660400390629 37.880859374999986 124.49505615234376 46.43856048583984 122.78350830078124 54.99626159667969 116.27963256835938 78.27320861816406 111.4873046875 89.91168212890625 111.4873046875 89.91168212890625 " />
        <polyline stroke="black" stroke-width="3" stroke-linecap="round" fill="transparent" stroke-linejoin="round" points="82.73345947265624 107.71168518066408 90.9488525390625 103.26168823242188 99.16424560546876 98.81169128417967 107.721923828125 94.36167907714844 116.62191772460938 90.59629821777344 125.8642578125 87.1732177734375 134.76425170898438 84.43475341796875 149.48348999023438 81.01165771484375 160.4373779296875 81.01165771484375 163.5181884765625 82.38090515136719 163.5181884765625 82.38090515136719 " />
        <polyline stroke="black" stroke-width="3" stroke-linecap="round" fill="transparent" stroke-linejoin="round" points="85.81423950195313 137.15017700195313 88.21038818359375 142.9694061279297 90.60653686523438 148.78863525390625 93.344970703125 150.84249877929688 98.82196044921876 152.2117156982422 98.82196044921876 152.2117156982422 " />
        <polyline stroke="black" stroke-width="3" stroke-linecap="round" fill="transparent" stroke-linejoin="round" points="166.94122314453125 124.14248657226563 154.96044921875 133.38479614257813 142.97967529296875 142.62710571289063 130.31427001953125 151.86941528320313 107.03732299804688 168.98480224609375 97.45269775390624 175.14634704589844 83.41806030273438 183.70404052734375 75.54501342773438 187.12713623046875 72.46420288085938 187.811767578125 72.46420288085938 186.78485107421875 79.9949951171875 181.99252319335935 96.42578125 174.1194305419922 113.54119873046876 167.61558532714844 129.971923828125 161.79635620117188 144.691162109375 155.29248046875 153.93353271484375 149.8155517578125 153.93353271484375 149.8155517578125 " />
        <polyline stroke="black" stroke-width="3" stroke-linecap="round" fill="transparent" stroke-linejoin="round" points="133.39501953125 109.76553344726563 123.46810913085938 132.0155487060547 113.54119873046876 154.26556396484375 109.4334716796875 164.8771209716797 102.58734130859376 184.388671875 98.13729858398438 197.3963623046875 95.39886474609376 206.29638671875 94.7142333984375 208.3502197265625 94.7142333984375 208.3502197265625 " />
        <polyline stroke="black" stroke-width="3" stroke-linecap="round" fill="transparent" stroke-linejoin="round" points="129.629638671875 171.7232666015625 135.1065673828125 174.46173095703125 140.58349609375 177.2001953125 147.08734130859375 181.65020751953125 164.2027587890625 198.42330932617188 164.2027587890625 198.42330932617188 " />
        </svg>