<?xml version="1.0" standalone="no"?>
    <svg width="256" height="256" xmlns="http://www.w3.org/2000/svg" version="1.1">
    <polyline stroke="black" stroke-width="3" stroke-linecap="round" fill="transparent" stroke-linejoin="round" points="81.0150146484375 65.96368408203125 86.20553588867188 73.39450073242188 92.85772705078124 89.34031677246094 94.54473876953124 96.98527526855467 90.44305419921876 108.05010986328124 89.23052978515625 107.6907958984375 " />
        <polyline stroke="black" stroke-width="3" stroke-linecap="round" fill="transparent" stroke-linejoin="round" points="115.72421264648438 42.066307067871094 123.68792724609376 39.66829681396485 142.03756713867188 34.75804138183594 151.19580078125 32.364715576171875 169.50384521484375 28.473594665527344 175.3370361328125 27.99950408935547 186.42010498046875 29.61582946777344 188.8447265625 31.36830139160156 189.8079833984375 34.499656677246094 190.18597412109375 45.49249267578125 188.901611328125 56.21502685546875 180.11083984375 76.8106689453125 173.7030029296875 82.39559936523438 172.3802490234375 82.01246643066406 " />
        <polyline stroke="black" stroke-width="3" stroke-linecap="round" fill="transparent" stroke-linejoin="round" points="133.3946533203125 64.24496459960938 141.44845581054688 62.87477111816406 149.49554443359375 62.15840148925781 159.94573974609375 62.402618408203125 161.800537109375 63.05757141113281 162.221923828125 63.73368835449219 162.35528564453125 63.94767761230469 " />
        <polyline stroke="black" stroke-width="3" stroke-linecap="round" fill="transparent" stroke-linejoin="round" points="123.41073608398438 87.00927734375 131.08203125 84.14933776855469 147.294677734375 78.64059448242188 151.6561279296875 77.32449340820313 156.91845703125 76.23117065429688 157.39154052734375 76.61904907226563 157.52685546875 76.73005676269531 " />
        <polyline stroke="black" stroke-width="3" stroke-linecap="round" fill="transparent" stroke-linejoin="round" points="80.49493408203125 155.5159912109375 97.56207275390624 152.27423095703125 105.1435546875 151.08685302734375 114.55859375 149.8833465576172 117.962646484375 149.16461181640625 124.02279663085938 147.84580993652344 129.31954956054688 142.36248779296875 129.5712890625 141.80892944335938 " />
        <polyline stroke="black" stroke-width="3" stroke-linecap="round" fill="transparent" stroke-linejoin="round" points="92.7686767578125 144.80235290527344 89.9803466796875 157.3367156982422 81.4674072265625 189.44210815429688 76.34832763671875 204.53143310546875 67.5712890625 225.10983276367188 62.28485107421875 232.17291259765625 62.98699951171875 229.795654296875 " />
        <polyline stroke="black" stroke-width="3" stroke-linecap="round" fill="transparent" stroke-linejoin="round" points="102.10653686523438 194.73129272460935 108.47186279296876 200.42807006835935 115.935791015625 207.20709228515625 127.18429565429688 216.88348388671875 129.125244140625 218.9081115722656 130.36727905273438 219.85641479492188 130.54843139648438 219.9947509765625 " />
        <polyline stroke="black" stroke-width="3" stroke-linecap="round" fill="transparent" stroke-linejoin="round" points="160.7176513671875 132.96966552734375 176.501953125 128.71849060058594 185.658935546875 126.68939208984376 195.476318359375 124.8712158203125 197.29345703125 124.13108825683594 198.94000244140625 123.18368530273438 199.039794921875 123.12628173828124 " />
        <polyline stroke="black" stroke-width="3" stroke-linecap="round" fill="transparent" stroke-linejoin="round" points="172.7222900390625 117.37139892578124 170.3834228515625 129.3798065185547 164.0706787109375 160.0847625732422 159.5599365234375 177.50534057617188 151.76806640625 201.76583862304688 144.92803955078125 217.39947509765625 142.01144409179688 221.8931884765625 138.73056030273438 221.67156982421875 139.34088134765625 220.10397338867188 " />
        <polyline stroke="black" stroke-width="3" stroke-linecap="round" fill="transparent" stroke-linejoin="round" points="181.2398681640625 180.5738983154297 191.293701171875 195.112060546875 196.24951171875 203.200439453125 204.41229248046875 219.78070068359375 206.567626953125 224.72021484375 215.81591796875 232.41387939453125 217.0831298828125 232.169677734375 " />
        </svg>