<?xml version="1.0" standalone="no"?>
    <svg width="256" height="256" xmlns="http://www.w3.org/2000/svg" version="1.1">
    <polyline stroke="black" stroke-width="3" stroke-linecap="round" fill="transparent" stroke-linejoin="round" points="64.71957397460938 92.469482421875 66.7523193359375 96.11968994140624 67.15814208984375 96.73175048828124 " />
        <polyline stroke="black" stroke-width="3" stroke-linecap="round" fill="transparent" stroke-linejoin="round" points="92.86068725585938 46.28245544433594 102.6807861328125 43.25921630859375 127.39987182617188 37.59767150878906 141.34603881835938 36.88584899902344 155.17718505859375 39.76924133300781 169.397705078125 49.237701416015625 177.3309326171875 55.32774353027344 179.1031494140625 69.13430786132813 171.75048828125 76.27346801757813 158.42303466796875 88.6859130859375 149.73471069335938 95.90431213378906 143.62359619140625 98.60304260253906 143.35400390625 97.1772918701172 " />
        <polyline stroke="black" stroke-width="3" stroke-linecap="round" fill="transparent" stroke-linejoin="round" points="98.97763061523438 76.37030029296875 107.397216796875 74.5023193359375 124.23095703125 70.55854797363281 130.23724365234375 69.32196044921875 139.92828369140625 71.16513061523438 138.666259765625 71.90480041503906 " />
        <polyline stroke="black" stroke-width="3" stroke-linecap="round" fill="transparent" stroke-linejoin="round" points="107.00927734375 94.1944580078125 112.47384643554688 93.82679748535156 124.1025390625 92.82525634765624 128.60235595703125 92.32936096191406 138.68646240234375 91.05145263671876 139.17514038085938 90.98306274414063 " />
        <polyline stroke="black" stroke-width="3" stroke-linecap="round" fill="transparent" stroke-linejoin="round" points="69.2154541015625 153.64419555664063 76.70281982421875 152.35226440429688 94.72723388671876 149.0142822265625 103.22344970703124 146.69676208496094 115.48870849609376 142.1444549560547 118.20086669921876 139.95285034179688 118.43768310546876 139.761474609375 " />
        <polyline stroke="black" stroke-width="3" stroke-linecap="round" fill="transparent" stroke-linejoin="round" points="85.62045288085938 145.8871307373047 84.87164306640625 169.3812255859375 78.13128662109375 209.52490234375 69.48641967773438 229.48095703125 66.75411987304688 228.68374633789065 67.32421875 224.11383056640625 " />
        <polyline stroke="black" stroke-width="3" stroke-linecap="round" fill="transparent" stroke-linejoin="round" points="99.79248046875 192.094482421875 105.677734375 196.94900512695313 119.04916381835938 208.2557373046875 125.4853515625 212.7001953125 125.98092651367188 212.8775634765625 " />
        <polyline stroke="black" stroke-width="3" stroke-linecap="round" fill="transparent" stroke-linejoin="round" points="141.11279296875 144.07322692871094 146.97894287109375 142.1808319091797 163.612548828125 138.76797485351563 181.2789306640625 134.09548950195313 184.035888671875 133.0003662109375 205.81396484375 122.38729858398438 208.8662109375 120.59129333496094 " />
        <polyline stroke="black" stroke-width="3" stroke-linecap="round" fill="transparent" stroke-linejoin="round" points="143.6761474609375 155.85552978515625 137.52630615234375 185.71124267578125 133.103515625 200.0914001464844 124.54388427734376 217.429931640625 124.3599853515625 215.6707763671875 " />
        <polyline stroke="black" stroke-width="3" stroke-linecap="round" fill="transparent" stroke-linejoin="round" points="153.7823486328125 182.68115234375 162.7152099609375 193.258544921875 201.6126708984375 225.6026611328125 215.8900146484375 234.9556884765625 " />
        </svg>