<?xml version="1.0" standalone="no"?>
    <svg width="256" height="256" xmlns="http://www.w3.org/2000/svg" version="1.1">
    <polyline stroke="black" stroke-width="3" stroke-linecap="round" fill="transparent" stroke-linejoin="round" points="80.30609130859375 75.36811828613281 80.30609130859375 82.10067749023438 81.80218505859375 98.93205261230467 83.29833984375 113.51925659179688 84.04638671875 118.7556610107422 84.79443359375 125.86224365234376 84.79443359375 128.48046875 84.79443359375 128.48046875 " />
        <polyline stroke="black" stroke-width="3" stroke-linecap="round" fill="transparent" stroke-linejoin="round" points="108.3583984375 62.27703857421875 116.2130126953125 58.536712646484375 133.79248046875 52.55223083496094 149.87579345703125 49.55998229980469 163.3409423828125 49.55998229980469 172.317626953125 52.55223083496094 175.30987548828125 54.796409606933594 181.29437255859375 73.12393188476563 176.4320068359375 92.57351684570313 163.3409423828125 113.89328002929688 163.3409423828125 113.89328002929688 " />
        <polyline stroke="black" stroke-width="3" stroke-linecap="round" fill="transparent" stroke-linejoin="round" points="106.86224365234376 86.58903503417969 112.84677124023438 84.3448486328125 118.45721435546876 82.84872436523438 124.06768798828124 80.97857666015625 133.04440307617188 79.85647583007813 137.90682983398438 80.97857666015625 139.40292358398438 88.08514404296875 139.40292358398438 88.08514404296875 " />
        <polyline stroke="black" stroke-width="3" stroke-linecap="round" fill="transparent" stroke-linejoin="round" points="91.5269775390625 126.61032104492188 97.511474609375 122.8699951171875 112.84677124023438 116.137451171875 121.075439453125 112.77117919921876 137.15875244140625 107.53475952148438 148.005615234375 104.54251098632813 148.005615234375 104.54251098632813 " />
        <polyline stroke="black" stroke-width="3" stroke-linecap="round" fill="transparent" stroke-linejoin="round" points="60.1083984375 173.73818969726563 69.08514404296875 170.37191772460938 78.80999755859375 167.005615234375 87.41265869140625 164.76144409179688 101.99984741210938 161.02114868164063 108.732421875 159.15098571777344 117.33514404296876 156.5327606201172 117.33514404296876 156.5327606201172 " />
        <polyline stroke="black" stroke-width="3" stroke-linecap="round" fill="transparent" stroke-linejoin="round" points="79.55804443359375 164.01339721679688 70.58126831054688 192.065673828125 66.84100341796875 208.1490173339844 64.97079467773438 216.377685546875 64.59677124023438 217.87380981445313 64.97079467773438 217.49978637695313 64.97079467773438 217.49978637695313 " />
        <polyline stroke="black" stroke-width="3" stroke-linecap="round" fill="transparent" stroke-linejoin="round" points="103.4959716796875 183.4629821777344 112.09869384765624 187.57733154296875 116.2130126953125 190.195556640625 122.197509765625 193.56182861328125 122.197509765625 193.56182861328125 " />
        <polyline stroke="black" stroke-width="3" stroke-linecap="round" fill="transparent" stroke-linejoin="round" points="151.7459716796875 154.28857421875 156.98236083984375 152.04440307617188 162.21881103515625 150.1742401123047 167.08123779296875 148.67813110351563 178.6761474609375 143.0676727294922 184.66064453125 137.83123779296875 187.65289306640625 129.97659301757813 187.27886962890625 123.99209594726563 186.53076171875 121.74790954589844 185.40869140625 121.37388610839844 181.29437255859375 125.86224365234376 173.439697265625 141.197509765625 165.9591064453125 162.8912811279297 160.3486328125 182.71490478515625 155.86029052734375 196.18002319335935 152.4940185546875 207.77496337890625 151.3719482421875 211.14126586914065 151.3719482421875 211.14126586914065 " />
        <polyline stroke="black" stroke-width="3" stroke-linecap="round" fill="transparent" stroke-linejoin="round" points="186.53076171875 175.98236083984375 191.7672119140625 179.3486328125 211.96490478515625 199.92034912109375 211.96490478515625 199.92034912109375 " />
        </svg>