<?xml version="1.0" standalone="no"?>
    <svg width="256" height="256" xmlns="http://www.w3.org/2000/svg" version="1.1">
    <polyline stroke="black" stroke-width="3" stroke-linecap="round" fill="transparent" stroke-linejoin="round" points="84 43 84 42 83 42 82 42 82 46 82 48 82 58 82 62 84 81 84 100 84 116 85 124 86 124 86 124 " />
        <polyline stroke="black" stroke-width="3" stroke-linecap="round" fill="transparent" stroke-linejoin="round" points="91 48 93 48 96 48 104 46 113 46 116 46 124 46 128 46 140 46 152 45 164 43 173 43 179 43 183 43 184 43 182 43 181 43 180 43 179 45 179 48 179 54 179 65 178 80 177 92 176 97 175 107 174 110 173 118 172 121 171 128 170 132 170 134 170 134 " />
        <polyline stroke="black" stroke-width="3" stroke-linecap="round" fill="transparent" stroke-linejoin="round" points="87 87 86 87 87 86 92 85 96 84 98 84 105 83 107 83 119 81 131 81 143 80 154 80 162 79 168 79 170 79 170 80 170 80 " />
        <polyline stroke="black" stroke-width="3" stroke-linecap="round" fill="transparent" stroke-linejoin="round" points="95 124 97 124 101 124 105 124 114 125 127 124 141 122 152 121 160 121 163 122 164 122 167 122 168 121 169 121 170 121 171 121 171 121 " />
        <polyline stroke="black" stroke-width="3" stroke-linecap="round" fill="transparent" stroke-linejoin="round" points="67 169 65 170 66 169 74 167 82 166 86 165 98 163 101 162 115 160 123 159 125 158 130 157 132 156 132 156 " />
        <polyline stroke="black" stroke-width="3" stroke-linecap="round" fill="transparent" stroke-linejoin="round" points="95 141 94 147 93 157 89 172 84 189 78 205 74 215 72 219 71 218 71 217 71 217 " />
        <polyline stroke="black" stroke-width="3" stroke-linecap="round" fill="transparent" stroke-linejoin="round" points="92 175 95 183 98 191 100 193 104 201 105 202 112 209 117 212 118 213 118 213 " />
        <polyline stroke="black" stroke-width="3" stroke-linecap="round" fill="transparent" stroke-linejoin="round" points="147 161 148 161 154 161 160 159 176 155 193 151 205 150 210 150 211 151 211 151 " />
        <polyline stroke="black" stroke-width="3" stroke-linecap="round" fill="transparent" stroke-linejoin="round" points="181 137 181 138 181 142 179 155 173 175 167 194 160 212 154 223 150 229 149 229 148 230 149 229 149 229 " />
        <polyline stroke="black" stroke-width="3" stroke-linecap="round" fill="transparent" stroke-linejoin="round" points="176 166 175 166 175 169 176 175 183 184 188 192 190 195 197 205 200 211 202 213 206 218 209 219 209 219 " />
        </svg>