<?xml version="1.0" standalone="no"?>
    <svg width="256" height="256" xmlns="http://www.w3.org/2000/svg" version="1.1">
    <polyline stroke="black" stroke-width="3" stroke-linecap="round" fill="transparent" stroke-linejoin="round" points="151.32696533203125 34.79566955566406 152.6531982421875 50.26869201660156 152.21112060546875 57.784149169921875 150.88485717773438 64.8575439453125 148.67440795898438 71.930908203125 142.04315185546875 84.75141906738281 137.18017578125 91.82479858398438 128.780517578125 100.22445678710938 119.0546875 106.85574340820313 114.6337890625 109.066162109375 106.234130859375 112.60284423828124 104.023681640625 113.04495239257813 103.58163452148438 113.04495239257813 109.32879638671876 110.8345184326172 116.84423828125 108.6240692138672 151.32696533203125 99.7823486328125 172.98919677734375 95.80357360839844 187.57806396484375 93.15106201171876 194.6513671875 92.70896911621094 194.6513671875 92.70896911621094 " />
        <polyline stroke="black" stroke-width="3" stroke-linecap="round" fill="transparent" stroke-linejoin="round" points="58.488861083984375 163.88485717773438 68.2147216796875 156.81149291992188 75.2880859375 153.27481079101563 82.80355834960938 149.73809814453125 99.60287475585938 143.54888916015625 115.5179443359375 140.01220703125 127.8963623046875 135.59133911132813 134.52767944335938 131.612548828125 137.18017578125 127.1916961669922 137.18017578125 127.1916961669922 " />
        <polyline stroke="black" stroke-width="3" stroke-linecap="round" fill="transparent" stroke-linejoin="round" points="107.11834716796876 120.56040954589844 100.92913818359376 129.4021453857422 96.50827026367188 136.4755096435547 86.34027099609375 155.48521423339844 78.38275146484375 171.8424072265625 73.07769775390625 182.8945770263672 69.98309326171875 188.6416931152344 68.2147216796875 192.17840576171875 67.77264404296875 193.06256103515625 69.54098510742188 191.29421997070313 75.2880859375 187.3154296875 78.38275146484375 185.54708862304688 88.99276733398438 182.01040649414065 97.39242553710938 181.56829833984375 104.90789794921876 182.45248413085935 110.655029296875 182.8945770263672 112.86544799804688 183.3366546630859 112.86544799804688 183.3366546630859 " />
        <polyline stroke="black" stroke-width="3" stroke-linecap="round" fill="transparent" stroke-linejoin="round" points="142.04315185546875 155.0431365966797 154.42156982421875 153.71688842773438 160.168701171875 153.27481079101563 165.4737548828125 152.83270263671875 175.19964599609375 151.50645446777344 178.736328125 151.50645446777344 181.38885498046875 151.06436157226563 185.36761474609375 150.18017578125 185.36761474609375 150.18017578125 " />
        <polyline stroke="black" stroke-width="3" stroke-linecap="round" fill="transparent" stroke-linejoin="round" points="165.0316162109375 153.27481079101563 157.51617431640625 166.09530639648438 153.537353515625 174.49493408203125 149.55859375 182.45248413085935 146.4639892578125 188.6416931152344 140.71688842773438 198.8096923828125 136.73812866210938 204.11471557617188 135.85394287109375 205.44097900390625 135.85394287109375 205.44097900390625 " />
        <polyline stroke="black" stroke-width="3" stroke-linecap="round" fill="transparent" stroke-linejoin="round" points="179.17840576171875 162.11651611328125 189.7884521484375 168.30572509765625 195.093505859375 172.28448486328125 199.9564208984375 176.7053680419922 204.81939697265625 181.126220703125 214.5452880859375 196.5992431640625 218.9661865234375 210.30392456054688 218.9661865234375 210.30392456054688 " />
        </svg>