<?xml version="1.0" standalone="no"?>
    <svg width="256" height="256" xmlns="http://www.w3.org/2000/svg" version="1.1">
    <polyline stroke="black" stroke-width="3" stroke-linecap="round" fill="transparent" stroke-linejoin="round" points="129.13397216796875 44.48017883300781 126.6556396484375 56.45863342285156 124.17733764648438 61.828277587890625 121.28598022460938 68.0240478515625 107.24227905273438 84.9591064453125 95.26385498046876 94.04620361328124 84.1114501953125 100.24197387695313 76.67657470703125 102.30722045898438 73.78521728515625 102.7202606201172 73.37216186523438 101.8941650390625 77.91571044921875 99.0028076171875 93.19857788085938 92.80705261230467 115.91635131835938 86.19825744628906 139.87322998046875 80.82859802246094 150.19952392578125 79.1763916015625 172.5042724609375 76.69808959960938 179.113037109375 77.52420043945313 179.113037109375 77.52420043945313 " />
        <polyline stroke="black" stroke-width="3" stroke-linecap="round" fill="transparent" stroke-linejoin="round" points="58.915374755859375 159.3081512451172 79.15487670898438 149.3949432373047 87.0028076171875 145.677490234375 94.85076904296876 141.96002197265625 109.7205810546875 135.3512420654297 121.28598022460938 128.742431640625 124.59042358398438 126.67718505859376 124.59042358398438 126.67718505859376 " />
        <polyline stroke="black" stroke-width="3" stroke-linecap="round" fill="transparent" stroke-linejoin="round" points="103.11175537109376 120.068359375 93.61163330078124 137.41648864746094 89.48114013671875 148.56883239746094 86.17672729492188 157.65594482421875 79.56793212890625 172.93881225585938 75.02438354492188 182.85202026367188 72.13299560546875 187.39556884765625 70.89385986328125 189.04779052734375 70.89385986328125 189.04779052734375 " />
        <polyline stroke="black" stroke-width="3" stroke-linecap="round" fill="transparent" stroke-linejoin="round" points="81.63314819335938 166.3300018310547 95.26385498046876 170.04745483398438 99.807373046875 171.69964599609375 113.43804931640624 176.65625 116.742431640625 177.89541625976563 116.742431640625 177.89541625976563 " />
        <polyline stroke="black" stroke-width="3" stroke-linecap="round" fill="transparent" stroke-linejoin="round" points="137.39495849609375 146.9166259765625 148.54730224609375 139.894775390625 153.50390625 137.00344848632813 158.46051025390625 134.11209106445313 168.78680419921875 128.742431640625 175.3956298828125 124.19889831542967 180.7652587890625 118.00314331054688 180.7652587890625 118.00314331054688 " />
        <polyline stroke="black" stroke-width="3" stroke-linecap="round" fill="transparent" stroke-linejoin="round" points="176.63470458984375 95.2853546142578 164.65625 113.45956420898438 151.85174560546875 139.06869506835938 141.9384765625 164.67779541015625 136.15576171875 178.30845642089844 132.43832397460938 186.5694580078125 132.43832397460938 186.5694580078125 " />
        <polyline stroke="black" stroke-width="3" stroke-linecap="round" fill="transparent" stroke-linejoin="round" points="154.33001708984375 161.37339782714844 172.917236328125 171.28660583496094 177.8739013671875 175.00405883789063 190.678466796875 185.74337768554688 190.678466796875 185.74337768554688 " />
        </svg>