<?xml version="1.0" standalone="no"?>
    <svg width="256" height="256" xmlns="http://www.w3.org/2000/svg" version="1.1">
    <polyline stroke="black" stroke-width="3" stroke-linecap="round" fill="transparent" stroke-linejoin="round" points="138.9124755859375 36.96647644042969 147.27679443359375 40.31219482421875 150.06488037109375 44.215538024902344 151.18017578125 48.67650604248047 150.06488037109375 54.810333251953125 143.93109130859375 67.63560485839844 143.93109130859375 67.63560485839844 " />
        <polyline stroke="black" stroke-width="3" stroke-linecap="round" fill="transparent" stroke-linejoin="round" points="83.15045166015625 95.51661682128906 100.43667602539063 87.15231323242188 117.722900390625 83.24897766113281 141.70059204101563 78.78800964355469 159.54443359375 77.11514282226563 175.7154541015625 75.44229125976563 185.75262451171875 74.88465881347656 189.65594482421875 74.88465881347656 189.65594482421875 74.88465881347656 " />
        <polyline stroke="black" stroke-width="3" stroke-linecap="round" fill="transparent" stroke-linejoin="round" points="62.51849365234375 160.20059204101563 83.70806884765625 152.39390563964844 102.66717529296876 146.2600860595703 123.29913330078124 140.12625122070313 138.9124755859375 135.10768127441406 151.73779296875 129.53146362304688 151.73779296875 129.53146362304688 " />
        <polyline stroke="black" stroke-width="3" stroke-linecap="round" fill="transparent" stroke-linejoin="round" points="101.55194091796876 123.39764404296876 90.39950561523438 145.14483642578125 78.68948364257813 175.25634765625 73.11328125 190.3121032714844 68.09469604492188 204.81024169921875 65.30657958984375 213.73214721679688 64.19134521484375 215.962646484375 64.19134521484375 215.962646484375 " />
        <polyline stroke="black" stroke-width="3" stroke-linecap="round" fill="transparent" stroke-linejoin="round" points="79.24710083007813 171.91062927246094 92.6300048828125 174.69873046875 103.22479248046876 179.71731567382813 114.934814453125 185.29351806640625 126.64483642578124 190.8697204589844 126.64483642578124 190.8697204589844 " />
        <polyline stroke="black" stroke-width="3" stroke-linecap="round" fill="transparent" stroke-linejoin="round" points="120.51101684570313 141.2415008544922 132.2210693359375 133.434814453125 142.81585693359375 129.53146362304688 155.64111328125 126.1857452392578 169.02398681640625 123.39764404296876 181.8492431640625 120.60954284667967 195.232177734375 115.03334045410156 195.232177734375 115.03334045410156 " />
        <polyline stroke="black" stroke-width="3" stroke-linecap="round" fill="transparent" stroke-linejoin="round" points="178.5035400390625 83.24897766113281 172.3697509765625 104.43855285644533 160.65966796875 138.45339965820313 152.29541015625 168.0072784423828 143.93109130859375 195.3306884765625 140.02774047851563 211.50167846679688 137.2396240234375 221.53884887695313 137.2396240234375 221.53884887695313 " />
        <polyline stroke="black" stroke-width="3" stroke-linecap="round" fill="transparent" stroke-linejoin="round" points="167.90875244140625 152.39390563964844 178.5035400390625 160.20059204101563 186.31024169921875 168.0072784423828 195.232177734375 178.04444885253906 204.154052734375 188.08160400390625 219.2098388671875 203.69497680664065 219.2098388671875 203.69497680664065 " />
        </svg>