<?xml version="1.0" standalone="no"?>
    <svg width="256" height="256" xmlns="http://www.w3.org/2000/svg" version="1.1">
    <polyline stroke="black" stroke-width="3" stroke-linecap="round" fill="transparent" stroke-linejoin="round" points="82.03109741210938 76.95741271972656 123.3515625 59.32734680175781 137.12506103515625 54.368896484375 154.755126953125 48.308555603027344 167.9776611328125 45.00292205810547 176.79266357421875 43.35009765625 181.75115966796875 43.35009765625 181.75115966796875 43.35009765625 " />
        <polyline stroke="black" stroke-width="3" stroke-linecap="round" fill="transparent" stroke-linejoin="round" points="113.43463134765624 86.87431335449219 102.41586303710938 102.30062866210938 83.13299560546875 134.25511169433594 71.56326293945313 157.9455108642578 63.299163818359375 177.22837829589844 57.23883056640625 189.34906005859375 53.933197021484375 195.9603271484375 51.72943115234375 198.71502685546875 51.72943115234375 195.40939331054688 56.687896728515625 184.9415283203125 66.05386352539063 168.41336059570313 77.0726318359375 150.78329467773438 88.0914306640625 137.5607452392578 98.55926513671876 129.29664611816406 109.02713012695313 125.9910125732422 115.08746337890624 128.1947784423828 120.04592895507813 139.76449584960938 118.94403076171876 166.76052856445313 109.57806396484376 193.20562744140625 97.4573974609375 211.93756103515625 91.947998046875 217.99789428710935 84.78579711914063 221.30352783203125 79.27639770507813 217.99789428710935 79.27639770507813 217.99789428710935 " />
        <polyline stroke="black" stroke-width="3" stroke-linecap="round" fill="transparent" stroke-linejoin="round" points="152.00042724609375 106.7081298828125 153.102294921875 119.93067932128906 153.6531982421875 145.82484436035156 153.6531982421875 161.8020782470703 152.00042724609375 175.5755615234375 150.34759521484375 185.49246215820313 149.2457275390625 189.8999938964844 149.2457275390625 188.79812622070313 149.2457275390625 183.28872680664065 152.00042724609375 173.37181091308594 158.6116943359375 161.2511444091797 167.42669677734375 149.13047790527344 177.89453125 138.11167907714844 187.81146240234375 129.29664611816406 197.7283935546875 119.93067932128906 206.54345703125 111.11564636230467 214.8074951171875 99.54592895507813 214.8074951171875 99.54592895507813 " />
        <polyline stroke="black" stroke-width="3" stroke-linecap="round" fill="transparent" stroke-linejoin="round" points="209.298095703125 71.99894714355469 208.7471923828125 87.9761962890625 208.19622802734375 102.8515625 205.4415283203125 125.9910125732422 201.0340576171875 142.51919555664063 194.4227294921875 159.04737854003906 185.60772705078125 172.26992797851563 175.139892578125 183.28872680664065 164.6719970703125 192.6546936035156 157.50982666015625 197.6131591796875 152.55133056640625 200.36782836914065 150.34759521484375 200.36782836914065 152.55133056640625 197.6131591796875 158.6116943359375 192.6546936035156 169.6304931640625 183.83966064453125 180.6492919921875 176.6774444580078 194.97369384765625 172.26992797851563 210.950927734375 173.37181091308594 210.950927734375 173.37181091308594 " />
        </svg>