<?xml version="1.0" standalone="no"?>
    <svg width="256" height="256" xmlns="http://www.w3.org/2000/svg" version="1.1">
    <polyline stroke="black" stroke-width="3" stroke-linecap="round" fill="transparent" stroke-linejoin="round" points="66.38900756835938 64.85420227050781 79.37353515625 56.0582275390625 86.0751953125 52.28851318359375 92.77694702148438 48.099945068359375 106.59921264648438 40.14168548583984 120.42144775390624 33.43998718261719 129.63629150390625 29.251419067382813 134.24371337890625 27.157150268554688 135.08139038085938 26.73828125 134.66256713867188 27.157150268554688 131.31170654296875 30.089134216308594 124.61004638671876 35.953125 115.39520263671876 45.16796112060547 104.5048828125 59.40907287597656 92.35809326171876 80.35188293457031 78.116943359375 109.67184448242188 66.38900756835938 134.38433837890625 58.849578857421875 148.62545776367188 53.82330322265625 156.16485595703125 52.14788818359375 157.84030151367188 51.72900390625 157.4214324951172 54.6610107421875 153.23287963867188 64.71356201171875 144.01803588867188 79.37353515625 131.45236206054688 96.12777709960938 120.98095703125 110.368896484375 116.37351989746094 119.583740234375 118.0489501953125 124.61004638671876 125.58836364746094 125.86654663085938 142.34263610839844 116.6517333984375 164.5419921875 105.34262084960938 178.78311157226563 94.03353881835938 187.5791015625 84.81866455078125 191.76763916015625 79.37353515625 191.34881591796875 79.37353515625 191.34881591796875 " />
        <polyline stroke="black" stroke-width="3" stroke-linecap="round" fill="transparent" stroke-linejoin="round" points="150.99798583984375 66.52963256835938 149.322509765625 83.70272827148438 148.06591796875 93.75527954101563 146.39056396484375 105.06439208984376 141.78314208984375 128.52037048339844 135.08139038085938 154.48944091796875 132.98715209960938 164.12313842773438 131.73056030273438 167.47398376464844 131.31170654296875 167.89285278320313 131.73056030273438 166.6362762451172 135.91912841796875 160.3534393310547 144.29623413085938 151.1385955810547 156.443115234375 140.66717529296875 170.6842041015625 131.03350830078125 184.92529296875 122.23753356933594 198.3287353515625 113.44155883789063 208.38128662109375 102.13241577148438 212.56982421875 95.01185607910156 212.56982421875 95.01185607910156 " />
        <polyline stroke="black" stroke-width="3" stroke-linecap="round" fill="transparent" stroke-linejoin="round" points="222.20355224609375 45.16796112060547 218.01495361328125 54.38279724121094 215.08294677734375 62.341064453125 207.96240234375 84.12159729003906 199.5853271484375 106.73983764648438 189.53271484375 126.4260711669922 184.5064697265625 133.96548461914063 176.967041015625 143.59918212890625 171.9407958984375 149.0443115234375 169.84649658203125 150.7197265625 169.0087890625 151.97630310058594 169.4276123046875 152.8140106201172 170.26531982421875 153.6517333984375 179.48016357421875 155.7460174560547 188.69500732421875 156.16485595703125 194.14013671875 156.16485595703125 194.14013671875 156.16485595703125 " />
        </svg>