<?xml version="1.0" standalone="no"?>
    <svg width="256" height="256" xmlns="http://www.w3.org/2000/svg" version="1.1">
    <polyline stroke="black" stroke-width="3" stroke-linecap="round" fill="transparent" stroke-linejoin="round" points="30 83 47 77 58 74 81 66 110 60 138 57 161 55 176 54 183 54 183 54 " />
        <polyline stroke="black" stroke-width="3" stroke-linecap="round" fill="transparent" stroke-linejoin="round" points="104 74 91 87 80 104 68 124 55 147 42 170 34 186 29 196 28 199 28 199 " />
        <polyline stroke="black" stroke-width="3" stroke-linecap="round" fill="transparent" stroke-linejoin="round" points="65 144 74 137 79 136 83 135 90 134 96 134 98 135 98 145 98 159 98 175 96 188 89 199 79 207 64 211 52 211 45 209 45 209 " />
        <polyline stroke="black" stroke-width="3" stroke-linecap="round" fill="transparent" stroke-linejoin="round" points="142 81 144 92 144 100 144 109 144 133 144 157 144 167 144 186 144 200 144 205 144 205 " />
        <polyline stroke="black" stroke-width="3" stroke-linecap="round" fill="transparent" stroke-linejoin="round" points="204 89 207 106 207 124 206 144 205 161 205 175 205 184 204 186 204 186 " />
        <polyline stroke="black" stroke-width="3" stroke-linecap="round" fill="transparent" stroke-linejoin="round" points="141 133 153 132 160 132 174 132 188 131 195 131 201 131 210 131 212 131 212 131 " />
        <polyline stroke="black" stroke-width="3" stroke-linecap="round" fill="transparent" stroke-linejoin="round" points="135 189 153 191 160 191 183 191 198 191 207 191 207 191 " />
        </svg>