<?xml version="1.0" standalone="no"?>
    <svg width="256" height="256" xmlns="http://www.w3.org/2000/svg" version="1.1">
    <polyline stroke="black" stroke-width="3" stroke-linecap="round" fill="transparent" stroke-linejoin="round" points="47 88 56 83 65 78 75 76 104 69 117 66 140 65 160 64 170 64 170 64 " />
        <polyline stroke="black" stroke-width="3" stroke-linecap="round" fill="transparent" stroke-linejoin="round" points="90 89 89 96 88 103 79 124 69 148 58 172 52 188 50 194 50 194 " />
        <polyline stroke="black" stroke-width="3" stroke-linecap="round" fill="transparent" stroke-linejoin="round" points="87 120 92 120 97 120 105 119 112 119 115 122 117 136 117 155 113 172 105 189 96 199 85 205 76 205 71 192 71 192 " />
        <polyline stroke="black" stroke-width="3" stroke-linecap="round" fill="transparent" stroke-linejoin="round" points="134 94 135 115 136 136 137 157 137 176 137 189 138 193 140 194 140 194 " />
        <polyline stroke="black" stroke-width="3" stroke-linecap="round" fill="transparent" stroke-linejoin="round" points="186 77 186 94 186 111 186 135 187 156 187 165 187 179 187 184 187 184 " />
        <polyline stroke="black" stroke-width="3" stroke-linecap="round" fill="transparent" stroke-linejoin="round" points="132 143 145 142 158 141 179 140 184 140 189 140 189 140 " />
        <polyline stroke="black" stroke-width="3" stroke-linecap="round" fill="transparent" stroke-linejoin="round" points="141 189 155 188 169 187 184 185 191 185 191 185 " />
        </svg>