<?xml version="1.0" standalone="no"?>
    <svg width="256" height="256" xmlns="http://www.w3.org/2000/svg" version="1.1">
    <polyline stroke="black" stroke-width="3" stroke-linecap="round" fill="transparent" stroke-linejoin="round" points="51.348236083984375 100.4656219482422 66.56576538085938 95.39309692382813 74.40512084960938 93.08741760253906 82.24447631835938 90.32058715820313 98.845458984375 84.78692626953125 114.524169921875 80.17555236816406 126.05258178710938 76.4864501953125 133.4307861328125 72.33621215820313 133.4307861328125 72.33621215820313 " />
        <polyline stroke="black" stroke-width="3" stroke-linecap="round" fill="transparent" stroke-linejoin="round" points="93.311767578125 69.10824584960938 86.85589599609375 102.31016540527344 83.62789916992188 120.2945556640625 77.17196655273438 155.34104919433594 70.71603393554688 180.24249267578125 67.488037109375 191.77093505859375 66.56576538085938 193.61550903320313 66.56576538085938 193.61550903320313 " />
        <polyline stroke="black" stroke-width="3" stroke-linecap="round" fill="transparent" stroke-linejoin="round" points="100.69003295898438 123.06138610839844 120.98007202148438 137.8177947998047 126.974853515625 142.89031982421875 142.653564453125 155.80218505859375 145.42037963867188 158.10789489746094 145.42037963867188 158.10789489746094 " />
        <polyline stroke="black" stroke-width="3" stroke-linecap="round" fill="transparent" stroke-linejoin="round" points="129.74169921875 66.34140014648438 144.03695678710938 66.80255126953125 150.03173828125 67.26368713378906 156.48773193359375 67.72482299804688 171.244140625 68.18595886230469 184.156005859375 65.41912841796875 191.07305908203125 62.652313232421875 191.07305908203125 62.652313232421875 " />
        <polyline stroke="black" stroke-width="3" stroke-linecap="round" fill="transparent" stroke-linejoin="round" points="199.83465576171875 20.688743591308594 191.995361328125 31.756057739257813 186.00054931640625 42.36223602294922 180.0057373046875 55.27409362792969 167.0938720703125 83.86465454101563 152.33746337890625 119.37229919433594 144.959228515625 134.58984375 142.1923828125 140.12350463867188 138.04217529296875 147.0405731201172 138.04217529296875 147.0405731201172 " />
        <polyline stroke="black" stroke-width="3" stroke-linecap="round" fill="transparent" stroke-linejoin="round" points="165.71044921875 117.98887634277344 186.00054931640625 119.83341979980467 193.3787841796875 121.67796325683594 200.7569580078125 123.98367309570313 213.6688232421875 129.51731872558594 222.8916015625 137.35667419433594 222.8916015625 137.35667419433594 " />
        <polyline stroke="black" stroke-width="3" stroke-linecap="round" fill="transparent" stroke-linejoin="round" points="52.2705078125 220.36151123046875 70.71603393554688 218.05581665039065 82.24447631835938 216.67242431640625 95.61749267578124 214.82785034179688 120.98007202148438 211.59988403320313 146.80380249023438 208.83306884765625 172.1663818359375 207.44964599609375 194.301025390625 208.37191772460935 194.301025390625 208.37191772460935 " />
        </svg>