<?xml version="1.0" standalone="no"?>
    <svg width="256" height="256" xmlns="http://www.w3.org/2000/svg" version="1.1">
    <polyline stroke="black" stroke-width="3" stroke-linecap="round" fill="transparent" stroke-linejoin="round" points="79 73 77 85 77 95 78 117 81 140 84 155 85 161 85 161 " />
        <polyline stroke="black" stroke-width="3" stroke-linecap="round" fill="transparent" stroke-linejoin="round" points="73 79 103 71 133 68 158 66 176 66 183 68 185 74 185 86 182 108 180 129 178 148 178 155 178 155 " />
        <polyline stroke="black" stroke-width="3" stroke-linecap="round" fill="transparent" stroke-linejoin="round" points="40 137 72 130 111 121 152 117 184 117 203 117 213 117 213 119 213 120 213 120 " />
        <polyline stroke="black" stroke-width="3" stroke-linecap="round" fill="transparent" stroke-linejoin="round" points="83 181 92 177 103 176 132 170 154 166 171 162 179 160 180 160 180 160 " />
        <polyline stroke="black" stroke-width="3" stroke-linecap="round" fill="transparent" stroke-linejoin="round" points="116 9 115 36 117 75 120 118 122 156 122 179 122 189 122 191 122 193 122 199 122 199 " />
        </svg>