<?xml version="1.0" standalone="no"?>
    <svg width="256" height="256" xmlns="http://www.w3.org/2000/svg" version="1.1">
    <polyline stroke="black" stroke-width="3" stroke-linecap="round" fill="transparent" stroke-linejoin="round" points="82.360107421875 94.49859619140624 84.89559936523438 108.44390869140624 86.16339111328125 114.78269958496094 89.54403686523438 128.30540466308594 92.50213623046876 138.44744873046875 93.7698974609375 141.4055633544922 95.46026611328124 144.78623962402344 96.305419921875 145.20883178710938 96.305419921875 145.20883178710938 " />
        <polyline stroke="black" stroke-width="3" stroke-linecap="round" fill="transparent" stroke-linejoin="round" points="126.73153686523438 82.66619873046875 130.53485107421875 94.07600402832033 132.64776611328125 99.5696258544922 138.141357421875 113.9375 140.67684936523438 119.85372924804688 141.52206420898438 121.54405212402344 144.48016357421875 123.656982421875 153.35443115234375 121.96664428710938 153.35443115234375 121.96664428710938 " />
        <polyline stroke="black" stroke-width="3" stroke-linecap="round" fill="transparent" stroke-linejoin="round" points="204.90985107421875 65.3402099609375 193.07745361328125 86.469482421875 186.7386474609375 97.45669555664063 179.5546875 108.44390869140624 151.24151611328125 142.67332458496094 130.53485107421875 161.68963623046875 111.09588623046876 176.0575408935547 94.19247436523438 185.35443115234375 82.78271484375 190.00286865234375 75.17620849609375 192.11578369140625 71.37289428710938 192.11578369140625 70.10516357421875 191.69320678710935 70.10516357421875 191.2706298828125 83.20526123046875 188.735107421875 108.98300170898438 183.2415008544922 138.141357421875 177.32530212402344 163.07391357421875 172.67686462402344 174.0611572265625 170.56393432617188 190.96453857421875 168.02842712402344 207.02276611328125 168.45101928710938 211.67120361328125 170.98651123046875 211.67120361328125 170.98651123046875 " />
        </svg>