<?xml version="1.0" standalone="no"?>
    <svg width="256" height="256" xmlns="http://www.w3.org/2000/svg" version="1.1">
    <polyline stroke="black" stroke-width="3" stroke-linecap="round" fill="transparent" stroke-linejoin="round" points="63.083465576171875 94.82034301757813 65.73126220703125 108.94189453125 67.937744140625 117.76788330078124 70.58554077148438 126.15255737304688 74.11593627929688 132.77203369140625 77.64633178710938 137.18502807617188 81.17672729492188 138.95022583007813 85.14840698242188 137.62632751464844 85.14840698242188 137.62632751464844 " />
        <polyline stroke="black" stroke-width="3" stroke-linecap="round" fill="transparent" stroke-linejoin="round" points="92.65048217773438 103.20504760742188 97.5047607421875 116.002685546875 101.03515625 124.38737487792967 105.889404296875 133.65464782714844 107.65463256835938 135.41983032226563 112.5089111328125 138.5089111328125 120.010986328125 138.5089111328125 130.60214233398438 133.65464782714844 139.42816162109375 126.15255737304688 146.047607421875 119.09178161621094 150.90191650390625 113.79620361328124 153.990966796875 109.8245086669922 155.7562255859375 108.5006103515625 156.197509765625 108.05931091308594 156.197509765625 108.5006103515625 150.019287109375 118.65048217773438 137.66293334960938 134.09593200683594 121.77621459960938 150.42398071289063 101.4764404296875 166.31072998046875 83.82452392578125 177.34320068359375 67.937744140625 183.96267700195313 61.31829833984375 185.28656005859375 48.520599365234375 186.6104736328125 44.548919677734375 185.72787475585935 42.78375244140625 184.84527587890625 42.3424072265625 183.96267700195313 49.4031982421875 182.19747924804688 67.05514526367188 178.22579956054688 90.44403076171876 174.69540405273438 116.039306640625 171.16502380371094 142.075927734375 167.63462829589844 167.22998046875 164.5455322265625 186.6470947265625 163.22164916992188 199.00347900390625 163.22164916992188 206.50555419921875 164.10423278808594 210.47723388671875 165.42813110351563 210.47723388671875 165.42813110351563 " />
        </svg>