<?xml version="1.0" standalone="no"?>
    <svg width="256" height="256" xmlns="http://www.w3.org/2000/svg" version="1.1">
    <polyline stroke="black" stroke-width="3" stroke-linecap="round" fill="transparent" stroke-linejoin="round" points="81.52581787109375 98.26725769042967 90.46588134765624 94.20361328125 99.812255859375 90.1399383544922 110.37777709960938 86.07627868652344 138.82342529296875 75.91714477539063 153.85894775390625 71.04074096679688 163.205322265625 67.78982543945313 166.456298828125 66.57072448730469 166.456298828125 66.16436767578125 166.456298828125 66.16436767578125 " />
        <polyline stroke="black" stroke-width="3" stroke-linecap="round" fill="transparent" stroke-linejoin="round" points="90.46588134765624 125.49375915527344 93.3104248046875 128.33834838867188 100.2186279296875 128.74468994140625 107.533203125 126.71286010742188 107.533203125 126.71286010742188 " />
        <polyline stroke="black" stroke-width="3" stroke-linecap="round" fill="transparent" stroke-linejoin="round" points="146.95068359375 107.20730590820313 137.19793701171875 116.9600830078125 95.74862670898438 150.68844604492188 84.7767333984375 158.81576538085938 70.553955078125 168.5685272216797 64.45846557617188 172.22581481933594 63.645721435546875 172.63218688964844 72.17941284179688 168.9748992919922 83.15130615234375 164.0985107421875 116.4732666015625 149.06297302246094 127.03878784179688 143.37384033203125 144.91888427734375 130.7765350341797 144.91888427734375 130.7765350341797 " />
        <polyline stroke="black" stroke-width="3" stroke-linecap="round" fill="transparent" stroke-linejoin="round" points="129.47698974609375 103.95639038085938 128.66424560546875 112.49008178710938 128.25790405273438 121.8364715576172 127.44515991210938 153.93936157226563 127.03878784179688 163.2857666015625 125.81967163085938 180.35313415527344 123.38153076171876 191.73138427734375 118.91146850585938 200.26507568359375 116.06689453125 204.3287353515625 116.06689453125 204.3287353515625 " />
        <polyline stroke="black" stroke-width="3" stroke-linecap="round" fill="transparent" stroke-linejoin="round" points="85.5894775390625 181.57223510742188 92.09130859375 179.94676208496094 101.0313720703125 176.6958465576172 112.00326538085938 170.60037231445313 112.00326538085938 170.60037231445313 " />
        <polyline stroke="black" stroke-width="3" stroke-linecap="round" fill="transparent" stroke-linejoin="round" points="165.2371826171875 147.4375 155.89080810546875 156.37754821777344 127.03878784179688 181.57223510742188 112.00326538085938 194.575927734375 79.90036010742188 218.9578857421875 71.36666870117188 224.64700317382813 69.7412109375 225.45974731445313 73.39852905273438 222.61517333984375 93.3104248046875 211.643310546875 106.72052001953124 205.14144897460935 133.947021484375 194.16958618164065 160.7672119140625 188.0740966796875 160.7672119140625 188.0740966796875 " />
        </svg>