<?xml version="1.0" standalone="no"?>
    <svg width="256" height="256" xmlns="http://www.w3.org/2000/svg" version="1.1">
    <polyline stroke="black" stroke-width="3" stroke-linecap="round" fill="transparent" stroke-linejoin="round" points="145.54348754882813 49.63127136230469 138.410888671875 56.76383972167969 128.90081787109375 63.89640808105469 114.041259765625 74.59527587890625 96.2098388671875 88.86041259765625 78.9727783203125 102.53118896484376 69.46270751953125 112.04127502441406 69.46270751953125 112.04127502441406 " />
        <polyline stroke="black" stroke-width="3" stroke-linecap="round" fill="transparent" stroke-linejoin="round" points="63.518890380859375 78.16156005859375 82.5390625 83.510986328125 97.99298095703124 88.86041259765625 117.01318359375 95.39860534667967 133.06146240234375 101.93679809570313 150.89291381835938 108.47499084472656 168.12994384765625 113.82443237304688 168.12994384765625 113.82443237304688 " />
        <polyline stroke="black" stroke-width="3" stroke-linecap="round" fill="transparent" stroke-linejoin="round" points="196.06591796875 116.79632568359376 176.4512939453125 124.52328491210938 156.2423095703125 133.43899536132813 132.46710205078125 146.515380859375 109.880615234375 159.59176635742188 95.615478515625 167.91310119628906 87.88851928710938 172.0737762451172 87.88851928710938 172.0737762451172 " />
        <polyline stroke="black" stroke-width="3" stroke-linecap="round" fill="transparent" stroke-linejoin="round" points="100.96490478515624 128.08956909179688 97.99298095703124 140.5715789794922 95.615478515625 160.1861572265625 95.615478515625 175.6400604248047 97.99298095703124 188.7164306640625 103.93679809570313 197.03778076171875 118.20196533203124 203.57595825195313 136.03338623046875 206.54788208007813 154.459228515625 207.73663330078125 170.50750732421875 208.33102416992188 181.20635986328125 208.33102416992188 188.33892822265625 207.14224243164065 193.093994140625 202.38720703125 194.8770751953125 194.06588745117188 190.1220703125 173.26254272460938 190.1220703125 173.26254272460938 " />
        </svg>