<?xml version="1.0" standalone="no"?>
    <svg width="256" height="256" xmlns="http://www.w3.org/2000/svg" version="1.1">
    <polyline stroke="black" stroke-width="3" stroke-linecap="round" fill="transparent" stroke-linejoin="round" points="86.11114501953125 60.00001525878906 86.11114501953125 84 87.88888549804688 93.77780151367188 89.66665649414063 98.22224426269533 93.22222900390624 102.6667022705078 94.11111450195313 101.7777862548828 94.11111450195313 101.7777862548828 " />
        <polyline stroke="black" stroke-width="3" stroke-linecap="round" fill="transparent" stroke-linejoin="round" points="95.00003051757813 56.44444274902344 111 49.33333587646485 127 44.888893127441406 139.44448852539063 43.111114501953125 144.77777099609375 43.111114501953125 151 48.44444274902344 151.88888549804688 58.22222900390625 151.88888549804688 74.22222900390625 151.88888549804688 86.66667175292969 150.11111450195313 92.88888549804688 148.3333740234375 101.7777862548828 141.22222900390625 102.6667022705078 141.22222900390625 102.6667022705078 " />
        <polyline stroke="black" stroke-width="3" stroke-linecap="round" fill="transparent" stroke-linejoin="round" points="104.77777099609376 67.11111450195313 104.77777099609376 84.888916015625 106.55557250976563 90.22222900390624 106.55557250976563 92.88888549804688 106.55557250976563 92.00001525878906 106.55557250976563 86.66667175292969 108.3333740234375 79.55555725097656 112.77780151367188 72.44444274902344 118.11111450195313 67.11111450195313 128.77777099609375 64.4444580078125 137.66665649414063 64.4444580078125 143.888916015625 67.11111450195313 145.66665649414063 71.55555725097656 144.77777099609375 76.88888549804688 133.22222900390625 87.55557250976563 125.22222900390624 92.88888549804688 119.88888549804688 95.55555725097656 119 96.4444580078125 119.88888549804688 96.4444580078125 129.66665649414063 95.55555725097656 138.55557250976563 93.77780151367188 144.77777099609375 92.00001525878906 145.66665649414063 92.00001525878906 145.66665649414063 92.00001525878906 " />
        <polyline stroke="black" stroke-width="3" stroke-linecap="round" fill="transparent" stroke-linejoin="round" points="67.4444580078125 140 91.4444580078125 133.77780151367188 104.77777099609376 131.11111450195313 136.77777099609375 125.7777862548828 182.11111450195313 122.22222900390624 199.88888549804688 123.1111297607422 207 127.55557250976563 207 127.55557250976563 " />
        <polyline stroke="black" stroke-width="3" stroke-linecap="round" fill="transparent" stroke-linejoin="round" points="105.66665649414063 135.55555725097656 100.33334350585938 160.44447326660156 93.22222900390624 178.2222442626953 85.22222900390625 193.33334350585935 79.88888549804688 204 76.33334350585938 205.77777099609375 73.66665649414063 203.11111450195313 73.66665649414063 203.11111450195313 " />
        <polyline stroke="black" stroke-width="3" stroke-linecap="round" fill="transparent" stroke-linejoin="round" points="100.33334350585938 171.11111450195313 124.33334350585938 180 128.77777099609375 181.77777099609375 135.00003051757813 181.77777099609375 135.00003051757813 181.77777099609375 " />
        <polyline stroke="black" stroke-width="3" stroke-linecap="round" fill="transparent" stroke-linejoin="round" points="154.55557250976563 117.7777862548828 153.66665649414063 136.4444580078125 150.11111450195313 159.55555725097656 144.77777099609375 181.77777099609375 136.77777099609375 203.11111450195313 129.66665649414063 219.11111450195313 122.55557250976563 225.33334350585935 122.55557250976563 225.33334350585935 " />
        <polyline stroke="black" stroke-width="3" stroke-linecap="round" fill="transparent" stroke-linejoin="round" points="162.55557250976563 179.11111450195313 190.11111450195313 196.88888549804688 205.22222900390625 205.77777099609375 215.888916015625 214.66665649414065 215.888916015625 214.66665649414065 " />
        </svg>