<?xml version="1.0" standalone="no"?>
    <svg width="256" height="256" xmlns="http://www.w3.org/2000/svg" version="1.1">
    <polyline stroke="black" stroke-width="3" stroke-linecap="round" fill="transparent" stroke-linejoin="round" points="84.044677734375 42.39183044433594 86.7142333984375 52.53607177734375 88.849853515625 66.41766357421875 89.91766357421875 84.03660583496094 89.38375854492188 95.24867248535156 89.38375854492188 101.6555633544922 89.38375854492188 103.79118347167967 89.38375854492188 103.79118347167967 " />
        <polyline stroke="black" stroke-width="3" stroke-linecap="round" fill="transparent" stroke-linejoin="round" points="99.52801513671876 45.59527587890625 107.53662109375 39.7222900390625 118.21478271484376 34.383216857910156 129.96072387695313 30.64586639404297 144.376220703125 29.044143676757813 158.2578125 29.578048706054688 168.93597412109375 32.781494140625 175.87677001953125 38.65447998046875 180.68194580078125 49.86653137207031 179.0802001953125 65.88375854492188 168.402099609375 79.76535034179688 168.402099609375 79.76535034179688 " />
        <polyline stroke="black" stroke-width="3" stroke-linecap="round" fill="transparent" stroke-linejoin="round" points="84.044677734375 73.35845947265625 93.655029296875 67.4854736328125 106.46881103515624 60.544677734375 120.88427734375 54.137786865234375 136.36761474609375 47.73090362548828 149.181396484375 41.85792541503906 156.6561279296875 38.120567321777344 160.3934326171875 35.45103454589844 160.3934326171875 33.84931182861328 156.6561279296875 33.84931182861328 149.71530151367188 33.84931182861328 141.17279052734375 34.91712188720703 135.2998046875 37.052757263183594 129.96072387695313 41.324012756347656 124.62164306640624 49.33262634277344 119.81646728515624 62.68031311035156 115.54522705078124 74.96018981933594 111.807861328125 83.50270080566406 108.60443115234376 89.90959167480469 105.93487548828124 94.71476745605467 103.79925537109376 97.918212890625 102.7314453125 99.51992797851563 102.7314453125 99.51992797851563 103.79925537109376 98.45211791992188 108.60443115234376 95.78257751464844 121.418212890625 89.90959167480469 136.90151977539063 84.03660583496094 151.3170166015625 80.29925537109375 161.99517822265625 78.69754028320313 168.93597412109375 79.2314453125 168.93597412109375 79.2314453125 " />
        <polyline stroke="black" stroke-width="3" stroke-linecap="round" fill="transparent" stroke-linejoin="round" points="50.40850830078125 141.1647186279297 59.48492431640625 137.42735290527344 73.90045166015625 132.08828735351563 100.0618896484375 123.54576110839844 131.02853393554688 116.60496520996094 159.32562255859375 112.33370971679688 176.944580078125 110.7319793701172 192.42791748046875 109.13026428222656 203.1060791015625 108.59635925292967 208.44512939453125 108.59635925292967 211.1146240234375 108.59635925292967 208.44512939453125 110.19807434082033 208.44512939453125 110.19807434082033 " />
        <polyline stroke="black" stroke-width="3" stroke-linecap="round" fill="transparent" stroke-linejoin="round" points="99.52801513671876 145.96987915039063 92.05328369140624 151.3089599609375 84.044677734375 161.9871063232422 74.43435668945313 177.4704132080078 66.95965576171875 192.9537353515625 62.15447998046875 202.0301513671875 60.552764892578125 206.30142211914065 60.552764892578125 206.30142211914065 " />
        <polyline stroke="black" stroke-width="3" stroke-linecap="round" fill="transparent" stroke-linejoin="round" points="84.044677734375 172.13134765625 97.92626953125 183.34341430664065 105.93487548828124 191.35202026367188 114.4774169921875 197.2250061035156 121.95211791992188 199.89453125 129.42681884765625 196.15719604492188 129.42681884765625 196.15719604492188 " />
        <polyline stroke="black" stroke-width="3" stroke-linecap="round" fill="transparent" stroke-linejoin="round" points="169.4698486328125 117.67277526855467 163.06298828125 135.29173278808594 155.5882568359375 152.37677001953125 148.64749145507813 168.9279022216797 142.77450561523438 181.74168395996097 137.9693603515625 189.21636962890625 134.76589965820313 194.02154541015625 134.76589965820313 194.02154541015625 " />
        <polyline stroke="black" stroke-width="3" stroke-linecap="round" fill="transparent" stroke-linejoin="round" points="144.376220703125 174.80088806152344 159.85955810546875 180.13995361328125 169.4698486328125 186.54684448242188 179.6141357421875 195.62326049804688 190.292236328125 207.90313720703125 190.292236328125 207.90313720703125 " />
        </svg>