<?xml version="1.0" standalone="no"?>
    <svg width="256" height="256" xmlns="http://www.w3.org/2000/svg" version="1.1">
    <polyline stroke="black" stroke-width="3" stroke-linecap="round" fill="transparent" stroke-linejoin="round" points="37.0443115234375 131.7875518798828 49.05145263671875 127.45166015625 61.05859375 123.1157684326172 73.39926147460938 118.77987670898438 84.40576171875 115.44454956054688 93.41110229492188 112.77630615234376 98.4140625 110.10806274414063 99.74822998046876 108.77392578125 99.74822998046876 108.77392578125 " />
        <polyline stroke="black" stroke-width="3" stroke-linecap="round" fill="transparent" stroke-linejoin="round" points="68.06277465820313 83.09204101562501 65.06097412109375 97.43386840820313 62.059173583984375 111.77569580078124 58.723876953125 126.45108032226563 56.38916015625 139.12527465820313 54.387939453125 150.46533203125 52.720306396484375 169.4766082763672 53.72088623046875 175.14663696289063 53.72088623046875 175.14663696289063 " />
        <polyline stroke="black" stroke-width="3" stroke-linecap="round" fill="transparent" stroke-linejoin="round" points="96.74639892578129 89.4291076660156 95.41229248046876 95.43267822265624 94.07818603515624 101.43624877929688 92.4105224609375 108.10685729980467 90.74285888671876 115.44454956054688 87.07403564453125 131.45404052734375 84.73931884765625 139.12527465820313 79.40280151367188 154.13418579101563 76.73455810546875 160.47125244140625 76.73455810546875 160.47125244140625 " />
        <polyline stroke="black" stroke-width="3" stroke-linecap="round" fill="transparent" stroke-linejoin="round" points="54.721466064453125 185.15258789062506 60.0579833984375 183.8184509277344 65.39450073242188 182.48431396484375 70.73095703125 180.4831390380859 70.73095703125 180.4831390380859 " />
        <polyline stroke="black" stroke-width="3" stroke-linecap="round" fill="transparent" stroke-linejoin="round" points="167.78857421875 59.0777587890625 162.1185302734375 65.74839782714844 156.448486328125 72.41903686523438 150.11141967773438 79.7567138671875 143.77435302734375 86.7608642578125 143.77435302734375 86.7608642578125 " />
        <polyline stroke="black" stroke-width="3" stroke-linecap="round" fill="transparent" stroke-linejoin="round" points="116.75833129882815 96.09973144531247 125.43011474609376 92.0973663330078 134.10189819335938 88.09500122070313 143.4407958984375 83.75909423828125 172.4580078125 70.4178466796875 189.8016357421875 62.41310119628906 202.809326171875 57.07658386230469 210.4805908203125 54.74186706542969 212.8153076171875 54.40834045410156 212.8153076171875 54.40834045410156 " />
        <polyline stroke="black" stroke-width="3" stroke-linecap="round" fill="transparent" stroke-linejoin="round" points="139.10491943359375 123.1157684326172 140.43902587890625 125.4504852294922 141.77313232421875 127.7852020263672 145.44198608398438 131.12051391601563 150.11141967773438 132.4546356201172 150.11141967773438 132.4546356201172 " />
        <polyline stroke="black" stroke-width="3" stroke-linecap="round" fill="transparent" stroke-linejoin="round" points="215.48345947265625 83.092041015625 198.139892578125 100.43565368652344 180.79632568359375 117.77926635742188 171.1239013671875 127.11814880371094 161.4515380859375 135.4564208984375 161.4515380859375 135.4564208984375 " />
        <polyline stroke="black" stroke-width="3" stroke-linecap="round" fill="transparent" stroke-linejoin="round" points="112.08889770507815 160.47125244140625 120.76068115234376 156.13536071777344 129.43246459960938 151.79946899414063 138.43783569335938 147.4635467529297 147.109619140625 144.12823486328125 163.119140625 138.45819091796875 178.1280517578125 133.78875732421875 189.8016357421875 130.7869873046875 199.47406005859375 127.45166015625 203.4764404296875 124.78343200683594 203.4764404296875 124.78343200683594 " />
        <polyline stroke="black" stroke-width="3" stroke-linecap="round" fill="transparent" stroke-linejoin="round" points="167.4549560546875 91.09678649902344 164.4532470703125 102.77037048339844 161.4515380859375 114.44395446777344 158.44970703125 126.45108032226563 151.445556640625 152.1329803466797 144.44140625 174.8131103515625 142.106689453125 184.1519775390625 140.10546875 192.49026489257813 135.76959228515625 208.16622924804688 133.76840209960938 213.8363037109375 133.43487548828125 215.50390625 133.43487548828125 215.50390625 " />
        <polyline stroke="black" stroke-width="3" stroke-linecap="round" fill="transparent" stroke-linejoin="round" points="163.11920166015625 173.8125 167.455078125 179.14901733398438 171.79095458984375 184.48553466796875 176.12689208984375 189.822021484375 190.80224609375 207.83273315429688 190.80224609375 207.83273315429688 " />
        </svg>