<?xml version="1.0" standalone="no"?>
    <svg width="256" height="256" xmlns="http://www.w3.org/2000/svg" version="1.1">
    <polyline stroke="black" stroke-width="3" stroke-linecap="round" fill="transparent" stroke-linejoin="round" points="50 128 51 133 52 138 55 147 58 157 62 169 65 179 69 189 70 194 70 196 71 197 71 198 71 198 71 199 71 199 71 199 72 198 73 198 76 195 83 192 96 186 104 183 108 183 109 183 109 183 107 183 107 183 " />
        <polyline stroke="black" stroke-width="3" stroke-linecap="round" fill="transparent" stroke-linejoin="round" points="78 112 79 116 80 120 83 133 87 146 92 159 97 170 102 179 105 185 108 189 108 189 107 189 107 189 " />
        <polyline stroke="black" stroke-width="3" stroke-linecap="round" fill="transparent" stroke-linejoin="round" points="47 181 47 181 47 181 51 178 59 173 71 165 85 158 98 153 109 151 111 151 110 153 109 154 109 154 " />
        <polyline stroke="black" stroke-width="3" stroke-linecap="round" fill="transparent" stroke-linejoin="round" points="107 95 108 95 109 95 111 95 117 94 121 93 123 93 125 93 125 93 123 95 121 98 120 100 119 100 119 100 " />
        <polyline stroke="black" stroke-width="3" stroke-linecap="round" fill="transparent" stroke-linejoin="round" points="100 126 103 124 106 122 114 117 130 107 141 102 150 99 154 97 155 97 155 97 155 97 " />
        <polyline stroke="black" stroke-width="3" stroke-linecap="round" fill="transparent" stroke-linejoin="round" points="104 137 108 140 112 143 116 146 120 148 124 150 126 151 126 151 " />
        <polyline stroke="black" stroke-width="3" stroke-linecap="round" fill="transparent" stroke-linejoin="round" points="128 119 130 123 132 127 134 133 136 149 136 162 135 175 133 187 128 202 125 210 123 216 123 219 123 220 124 220 124 219 124 219 " />
        <polyline stroke="black" stroke-width="3" stroke-linecap="round" fill="transparent" stroke-linejoin="round" points="136 176 138 178 140 180 143 183 150 188 165 195 174 199 183 202 190 204 196 206 198 207 199 208 200 208 200 207 200 207 " />
        <polyline stroke="black" stroke-width="3" stroke-linecap="round" fill="transparent" stroke-linejoin="round" points="165 139 165 141 165 143 165 145 165 155 165 163 165 169 165 174 165 174 165 174 " />
        <polyline stroke="black" stroke-width="3" stroke-linecap="round" fill="transparent" stroke-linejoin="round" points="112 179 115 177 118 175 126 171 140 167 158 162 183 157 197 157 206 157 211 158 212 158 212 158 211 158 211 158 " />
        </svg>