<?xml version="1.0" standalone="no"?>
    <svg width="256" height="256" xmlns="http://www.w3.org/2000/svg" version="1.1">
    <polyline stroke="black" stroke-width="3" stroke-linecap="round" fill="transparent" stroke-linejoin="round" points="44.01629638671875 139.76449584960938 58.89166259765625 139.21356201171875 72.11419677734375 135.35699462890625 85.8876953125 129.84759521484375 99.66116333007813 123.78726196289063 109.57806396484376 117.7269287109375 116.74029541015624 111.11564636230467 116.74029541015624 111.11564636230467 " />
        <polyline stroke="black" stroke-width="3" stroke-linecap="round" fill="transparent" stroke-linejoin="round" points="86.98956298828125 81.36492919921875 75.97076416015625 89.62901306152344 70.46136474609375 101.74967956542967 65.5029296875 118.27786254882813 61.646331787109375 134.80604553222656 59.9935302734375 148.02859497070313 59.9935302734375 158.49644470214844 61.09539794921875 166.76052856445313 62.74822998046875 172.82086181640625 65.5029296875 177.22837829589844 68.80856323242188 180.53402709960935 73.216064453125 180.53402709960935 78.17453002929688 176.6774444580078 84.78579711914063 166.2095947265625 90.84613037109376 149.13047790527344 90.84613037109376 149.13047790527344 " />
        <polyline stroke="black" stroke-width="3" stroke-linecap="round" fill="transparent" stroke-linejoin="round" points="89.19329833984375 84.67056274414063 90.29519653320313 94.03652954101563 91.3970947265625 106.15719604492188 92.49896240234376 122.68537902832033 93.600830078125 138.66262817382813 93.600830078125 152.4361114501953 93.600830078125 162.90396118164063 93.600830078125 162.90396118164063 " />
        <polyline stroke="black" stroke-width="3" stroke-linecap="round" fill="transparent" stroke-linejoin="round" points="161.36639404296875 48.308555603027344 164.6719970703125 56.57264709472656 164.12109375 64.83674621582031 160.2645263671875 76.40646362304688 152.00042724609375 87.42526245117188 152.00042724609375 87.42526245117188 " />
        <polyline stroke="black" stroke-width="3" stroke-linecap="round" fill="transparent" stroke-linejoin="round" points="115.08746337890624 111.11564636230467 126.10626220703124 104.50437927246094 147.04196166992188 96.2402801513672 167.9776611328125 89.07807922363281 182.85302734375 84.11961364746094 194.97369384765625 80.26304626464844 201.5849609375 78.6102294921875 204.33966064453125 78.6102294921875 204.33966064453125 78.6102294921875 " />
        <polyline stroke="black" stroke-width="3" stroke-linecap="round" fill="transparent" stroke-linejoin="round" points="128.30999755859375 123.78726196289063 128.30999755859375 137.0098114013672 131.61566162109375 141.41732788085938 136.02316284179688 145.82484436035156 142.08349609375 148.02859497070313 153.6531982421875 145.82484436035156 153.6531982421875 145.82484436035156 " />
        <polyline stroke="black" stroke-width="3" stroke-linecap="round" fill="transparent" stroke-linejoin="round" points="195.524658203125 96.2402801513672 189.46429443359375 110.01377868652344 180.6492919921875 122.13444519042967 169.6304931640625 136.4588623046875 158.06072998046875 149.13047790527344 145.38916015625 159.59832763671875 134.92129516601563 167.86241149902344 126.10626220703124 172.82086181640625 120.04592895507813 175.02462768554688 116.1893310546875 176.6774444580078 113.985595703125 176.6774444580078 116.1893310546875 174.47369384765625 123.90249633789063 170.6171112060547 139.8797607421875 162.90396118164063 160.2645263671875 153.53799438476563 179.54736328125 144.17201232910156 196.0755615234375 135.35699462890625 205.4415283203125 129.29664611816406 211.5018310546875 124.88914489746094 215.35845947265625 121.58349609375 215.35845947265625 121.58349609375 " />
        <polyline stroke="black" stroke-width="3" stroke-linecap="round" fill="transparent" stroke-linejoin="round" points="160.8154296875 117.1759796142578 155.85699462890625 130.39852905273438 150.89852905273438 144.72296142578125 143.736328125 167.3114776611328 137.67596435546875 186.04342651367188 132.16659545898438 202.02066040039065 126.65719604492188 213.59039306640625 122.24969482421876 221.30352783203125 118.94403076171876 226.81292724609375 118.94403076171876 230.6695251464844 118.94403076171876 230.6695251464844 " />
        <polyline stroke="black" stroke-width="3" stroke-linecap="round" fill="transparent" stroke-linejoin="round" points="146.49102783203125 178.88121032714844 159.71356201171875 183.83966064453125 169.07952880859375 188.79812622070313 180.09832763671875 196.51126098632813 192.218994140625 205.87722778320313 202.1358642578125 215.24319458007813 202.1358642578125 215.24319458007813 " />
        </svg>