<?xml version="1.0" standalone="no"?>
    <svg width="256" height="256" xmlns="http://www.w3.org/2000/svg" version="1.1">
    <polyline stroke="black" stroke-width="3" stroke-linecap="round" fill="transparent" stroke-linejoin="round" points="46.07806396484375 117.81002807617188 56.1112060546875 111.90817260742188 67.91488647460938 106.00633239746094 80.30877685546875 100.10447692871094 93.29281616210938 95.3830108642578 104.50634765625 91.84190368652344 112.7689208984375 88.89097595214844 117.49038696289063 84.16949462890625 117.49038696289063 84.16949462890625 " />
        <polyline stroke="black" stroke-width="3" stroke-linecap="round" fill="transparent" stroke-linejoin="round" points="62.013031005859375 85.34986877441406 56.1112060546875 104.23577880859376 48.43878173828125 135.51556396484375 46.668212890625 150.86036682128906 46.07806396484375 164.4346160888672 47.2584228515625 175.0579376220703 50.2093505859375 180.95977783203125 54.930816650390625 183.32052612304688 61.4228515625 182.14016723632813 70.275634765625 176.8284912109375 81.4891357421875 164.4346160888672 92.70263671875 146.13888549804688 92.70263671875 146.13888549804688 " />
        <polyline stroke="black" stroke-width="3" stroke-linecap="round" fill="transparent" stroke-linejoin="round" points="92.70263671875 68.23451232910156 91.52227783203124 95.3830108642578 91.52227783203124 144.95852661132813 93.88299560546876 166.79534912109375 96.83392333984376 173.28738403320313 96.83392333984376 173.28738403320313 " />
        <polyline stroke="black" stroke-width="3" stroke-linecap="round" fill="transparent" stroke-linejoin="round" points="168.83642578125 42.266380310058594 165.88555908203125 53.479888916015625 158.8033447265625 68.23451232910156 149.3603515625 84.75967407226563 141.0977783203125 95.3830108642578 141.0977783203125 95.3830108642578 " />
        <polyline stroke="black" stroke-width="3" stroke-linecap="round" fill="transparent" stroke-linejoin="round" points="124.5726318359375 91.84190368652344 136.37628173828125 87.12042236328125 151.13092041015625 82.39894104003906 166.4757080078125 77.67745971679688 183.591064453125 74.72654724121094 200.1162109375 72.36579895019531 212.5101318359375 71.77561950683594 217.82177734375 73.54617309570313 217.82177734375 73.54617309570313 " />
        <polyline stroke="black" stroke-width="3" stroke-linecap="round" fill="transparent" stroke-linejoin="round" points="134.60574340820313 110.13761901855467 133.42538452148438 124.30206298828124 136.96649169921875 131.38427734375 142.86834716796875 136.10574340820313 155.26220703125 137.8762969970703 169.4266357421875 134.92538452148438 169.4266357421875 134.92538452148438 " />
        <polyline stroke="black" stroke-width="3" stroke-linecap="round" fill="transparent" stroke-linejoin="round" points="206.6082763671875 110.13761901855467 198.345703125 118.40020751953124 184.1812744140625 131.97445678710938 160.5738525390625 153.22109985351563 139.91741943359375 169.74627685546875 139.91741943359375 169.74627685546875 " />
        <polyline stroke="black" stroke-width="3" stroke-linecap="round" fill="transparent" stroke-linejoin="round" points="125.16278076171876 178.5990447998047 152.311279296875 164.4346160888672 168.24627685546875 157.9425811767578 184.1812744140625 152.04074096679688 199.52606201171875 146.13888549804688 213.69049072265625 134.92538452148438 213.69049072265625 134.92538452148438 " />
        <polyline stroke="black" stroke-width="3" stroke-linecap="round" fill="transparent" stroke-linejoin="round" points="174.73828125 86.53024291992188 168.83642578125 98.33392333984376 164.114990234375 113.08854675292967 157.03277587890625 137.28611755371094 147.58981323242188 167.3855438232422 139.91741943359375 188.0419921875 134.60574340820313 201.61624145507813 130.47445678710938 207.51809692382813 128.11370849609375 209.28863525390625 128.11370849609375 209.28863525390625 " />
        <polyline stroke="black" stroke-width="3" stroke-linecap="round" fill="transparent" stroke-linejoin="round" points="155.8524169921875 164.4346160888672 164.7052001953125 169.15609741210938 177.09906005859375 176.23831176757813 189.492919921875 184.5008850097656 200.7064208984375 192.76348876953125 211.919921875 205.1573486328125 211.919921875 205.1573486328125 " />
        </svg>