<?xml version="1.0" standalone="no"?>
    <svg width="256" height="256" xmlns="http://www.w3.org/2000/svg" version="1.1">
    <polyline stroke="black" stroke-width="3" stroke-linecap="round" fill="transparent" stroke-linejoin="round" points="82.15859985351563 69.90719604492188 80.745361328125 78.206787109375 79.33212280273438 86.50637817382813 73.48748779296875 107.1553955078125 69.1279296875 118.565185546875 59.358856201171875 140.01556396484375 55.37939453125 149.20823669433594 52.20648193359375 156.64675903320313 47.839599609375 164.0862274169922 44.929412841796875 166.2554168701172 45.40704345703125 164.2333984375 " />
        <polyline stroke="black" stroke-width="3" stroke-linecap="round" fill="transparent" stroke-linejoin="round" points="99.84411621093753 79.79975891113281 108.13055419921876 78.75 116.4169921875 77.70024108886719 133.17498779296875 75.66615295410156 140.0457763671875 75.13111877441406 147.872314453125 75.02340698242188 150.30718994140625 75.26589965820313 152.05975341796875 75.93276977539063 152.95550537109375 78.28897094726563 155.037109375 94.57908630371094 153.49652099609375 108.4068603515625 149.74032592773438 124.76663208007813 138.54931640625 153.70516967773438 125.80563354492188 174.6795654296875 119.12313842773438 181.76629638671875 111.71258544921876 187.895263671875 111.31976318359376 185.7666015625 " />
        <polyline stroke="black" stroke-width="3" stroke-linecap="round" fill="transparent" stroke-linejoin="round" points="116.73962402343753 175.51364135742185 125.82440185546876 181.63458251953125 134.9091796875 187.75552368164065 149.72042846679688 200.91049194335935 150.13134765625 201.35415649414065 " />
        </svg>