<?xml version="1.0" standalone="no"?>
    <svg width="256" height="256" xmlns="http://www.w3.org/2000/svg" version="1.1">
    <polyline stroke="black" stroke-width="3" stroke-linecap="round" fill="transparent" stroke-linejoin="round" points="116.75842285156253 59.447113037109375 112.50677490234376 68.30474853515625 108.255126953125 77.16238403320313 102.58624267578124 89.9173583984375 96.208740234375 103.38092041015624 87.35113525390625 121.4504852294922 84.8709716796875 125.34783935546876 79.91073608398438 133.14254760742188 79.20211791992188 132.78823852539063 80.2650146484375 130.66241455078125 91.95709228515624 113.65579223632813 97.6259765625 107.63259887695313 119.94720458984376 89.56304931640625 128.45050048828125 84.95707702636719 152.543212890625 73.2650146484375 163.5267333984375 70.78489685058594 170.61279296875 70.43057250976563 172.7386474609375 71.49349975585938 174.5101318359375 90.27165222167967 164.23529052734375 118.9703369140625 149.00018310546875 145.543212890625 141.55975341796875 156.52667236328125 124.19882202148438 178.4935760498047 117.467041015625 183.0995330810547 113.21539306640624 184.1624755859375 110.73529052734376 182.7452392578125 108.96371459960938 179.2021942138672 109.31805419921876 176.013427734375 111.79818725585938 174.59622192382813 119.94720458984376 176.36773681640625 132.7021484375 184.1624755859375 147.2286376953125 195.85452270507813 161.40087890625 210.73532104492188 169.54986572265625 220.6558837890625 169.54986572265625 220.6558837890625 " />
        </svg>