<?xml version="1.0" standalone="no"?>
    <svg width="256" height="256" xmlns="http://www.w3.org/2000/svg" version="1.1">
    <polyline stroke="black" stroke-width="3" stroke-linecap="round" fill="transparent" stroke-linejoin="round" points="73.5787353515625 63.326446533203125 74.92303466796875 70.04795837402344 76.267333984375 76.76947021484375 78.05975341796875 83.49098205566406 80.74838256835938 94.69351196289063 82.0926513671875 103.655517578125 82.98886108398438 110.37704467773438 82.98886108398438 110.37704467773438 " />
        <polyline stroke="black" stroke-width="3" stroke-linecap="round" fill="transparent" stroke-linejoin="round" points="78.5078125 71.39227294921875 90.158447265625 60.637847900390625 101.80908203125 49.8834228515625 127.79891967773438 34.19989013671875 137.65716552734375 30.615081787109375 164.543212890625 24.789779663085938 179.7786865234375 24.789779663085938 189.6368408203125 26.134078979492188 195.01409912109375 28.374588012695313 196.8065185546875 29.718894958496097 197.70263671875 43.610008239746094 194.11785888671875 53.91633605957031 169.02423095703125 89.31629943847656 169.02423095703125 89.31629943847656 " />
        <polyline stroke="black" stroke-width="3" stroke-linecap="round" fill="transparent" stroke-linejoin="round" points="111.66729736328124 85.28340148925781 118.8369140625 81.25048828125 126.00653076171876 77.21757507324219 132.72802734375 73.63276672363281 146.619140625 67.80746459960938 152.44451904296875 65.11885070800781 162.302734375 61.0859375 168.1280517578125 58.84544372558594 168.57611083984375 58.3973388671875 168.57611083984375 58.3973388671875 " />
        <polyline stroke="black" stroke-width="3" stroke-linecap="round" fill="transparent" stroke-linejoin="round" points="109.42687988281253 115.75427246093753 115.25213623046876 113.96185302734376 121.077392578125 112.16943359375 127.350830078125 109.92893981933594 133.624267578125 107.68841552734376 145.72299194335938 102.7593231201172 152.892578125 98.72640991210938 156.4774169921875 96.93400573730467 156.92547607421875 96.03781127929688 155.5811767578125 96.48590087890624 154.2369384765625 97.38211059570313 149.755859375 101.41502380371094 146.17108154296875 106.3441162109375 143.03436279296875 113.06564331054688 140.34576416015625 121.57955932617188 139.00146484375 126.06057739257813 135.86474609375 135.47068786621094 124.6622314453125 153.8428192138672 118.8369140625 160.56431579589844 104.04962158203124 175.79974365234375 96.87997436523438 181.17697143554688 96.87997436523438 181.17697143554688 " />
        <polyline stroke="black" stroke-width="3" stroke-linecap="round" fill="transparent" stroke-linejoin="round" points="69.99392700195313 180.28076171875 83.43695068359375 173.5592498779297 96.87997436523438 166.83773803710938 121.9736328125 156.9795379638672 145.72299194335938 151.60232543945313 169.02423095703125 148.46560668945313 192.325439453125 146.67320251464844 211.14569091796875 145.3289031982422 211.14569091796875 145.3289031982422 " />
        </svg>