<?xml version="1.0" standalone="no"?>
    <svg width="256" height="256" xmlns="http://www.w3.org/2000/svg" version="1.1">
    <polyline stroke="black" stroke-width="3" stroke-linecap="round" fill="transparent" stroke-linejoin="round" points="89.88177490234375 51.34059143066406 91.349609375 70.42332458496094 92.08355712890624 79.23077392578125 92.8175048828125 88.03819274902344 95.0194091796875 103.45114135742188 95.7532958984375 107.8548583984375 96.4873046875 111.5246124267578 97.22125244140624 112.25857543945313 97.22125244140624 107.8548583984375 97.22125244140624 107.8548583984375 " />
        <polyline stroke="black" stroke-width="3" stroke-linecap="round" fill="transparent" stroke-linejoin="round" points="93.551513671875 52.80851745605469 108.23052978515624 51.34059143066406 125.11138916015624 49.13874816894531 149.331787109375 46.93688201904297 159.607177734375 46.20292663574219 164.0107421875 45.468994140625 167.6805419921875 45.468994140625 169.8824462890625 45.468994140625 170.616455078125 45.468994140625 170.616455078125 46.93688201904297 170.616455078125 48.40478515625 171.350341796875 51.34059143066406 170.616455078125 71.15728759765625 168.41455078125 85.83631896972656 167.6805419921875 96.8455810546875 166.212646484375 107.8548583984375 166.212646484375 107.8548583984375 " />
        <polyline stroke="black" stroke-width="3" stroke-linecap="round" fill="transparent" stroke-linejoin="round" points="102.35888671875 81.43260192871094 122.9095458984375 74.82704162597656 139.7904052734375 72.62518310546875 153.7354736328125 72.62518310546875 161.8089599609375 72.62518310546875 165.478759765625 74.09309387207031 165.478759765625 75.56100463867188 162.5428466796875 78.49679565429688 162.5428466796875 78.49679565429688 " />
        <polyline stroke="black" stroke-width="3" stroke-linecap="round" fill="transparent" stroke-linejoin="round" points="107.49652099609376 115.1943817138672 132.450927734375 112.25857543945313 148.597900390625 112.25857543945313 160.341064453125 114.46043395996094 162.5428466796875 116.66227722167967 162.5428466796875 116.66227722167967 " />
        <polyline stroke="black" stroke-width="3" stroke-linecap="round" fill="transparent" stroke-linejoin="round" points="127.313232421875 123.26785278320313 128.04718017578125 143.08456420898438 128.04718017578125 154.0938262939453 128.04718017578125 162.1672821044922 127.313232421875 168.77285766601563 127.313232421875 168.77285766601563 " />
        <polyline stroke="black" stroke-width="3" stroke-linecap="round" fill="transparent" stroke-linejoin="round" points="50.248291015625 186.38766479492188 70.06500244140625 180.51605224609375 81.8082275390625 177.58026123046875 123.64349365234376 173.17654418945313 154.469482421875 173.17654418945313 183.8275146484375 174.64443969726563 208.0479736328125 177.58026123046875 233.7362060546875 181.9839782714844 242.5435791015625 184.18582153320313 246.947265625 185.6537170410156 250.6170654296875 187.12164306640625 252.0849609375 191.52532958984375 252.0849609375 191.52532958984375 " />
        </svg>