<?xml version="1.0" standalone="no"?>
    <svg width="256" height="256" xmlns="http://www.w3.org/2000/svg" version="1.1">
    <polyline stroke="black" stroke-width="3" stroke-linecap="round" fill="transparent" stroke-linejoin="round" points="77.40243530273438 60.32591247558594 74.06298828125 75.77088928222656 71.975830078125 90.79843139648438 71.14096069335938 98.3122100830078 70.7235107421875 110.83517456054688 70.7235107421875 122.10581970214844 70.7235107421875 125.02786254882813 69.888671875 125.44528198242188 69.05380249023438 125.02786254882813 68.6363525390625 124.19297790527344 68.21893310546875 117.93150329589844 69.47125244140625 111.25260925292967 70.7235107421875 107.07827758789063 75.732666015625 97.47735595703124 89.09054565429688 81.197509765625 102.86581420898438 69.5093994140625 118.72821044921876 59.49104309082031 133.75570678710938 54.064422607421875 146.69613647460938 54.48185729980469 152.12274169921875 56.151580810546875 160.47137451171875 61.1607666015625 166.3154296875 67.83969116210938 170.90716552734375 81.61492919921875 170.48974609375 86.62411499023438 165.4805908203125 98.3122100830078 153.79248046875 110.417724609375 153.79248046875 110.417724609375 " />
        <polyline stroke="black" stroke-width="3" stroke-linecap="round" fill="transparent" stroke-linejoin="round" points="80.74188232421875 111.67002868652344 92.01254272460938 105.40855407714844 97.021728515625 102.90396118164063 102.03094482421876 100.39935302734376 106.62265014648438 97.894775390625 117.893310546875 92.46817016601563 124.57223510742188 89.546142578125 129.99887084960938 86.20668029785156 129.99887084960938 86.20668029785156 " />
        <polyline stroke="black" stroke-width="3" stroke-linecap="round" fill="transparent" stroke-linejoin="round" points="63.627197265625 150.49119567871094 74.8978271484375 146.31687927246094 79.48959350585938 144.22972106933594 84.08135986328125 142.14256286621094 89.50799560546875 140.05540466308594 101.196044921875 135.04623413085938 106.62265014648438 132.95904541015625 117.47592163085938 128.36729431152344 128.74655151367188 123.77555847167967 137.51263427734375 120.0186767578125 143.356689453125 117.09664916992188 146.2786865234375 115.84434509277344 146.69613647460938 115.42691040039063 145.0263671875 117.51408386230467 138.34750366210938 125.86271667480467 130.416259765625 136.29852294921875 124.57223510742188 145.0645751953125 119.98046875 153.4132080078125 116.64105224609376 162.5967254638672 113.718994140625 171.36277770996094 110.37957763671876 178.04168701171875 107.87496948242188 181.3811492919922 97.43914794921876 189.72979736328125 84.91619873046875 196.82614135742188 71.975830078125 203.50503540039065 60.2877197265625 208.51422119140625 53.191375732421875 211.43624877929688 50.269378662109375 212.68853759765625 49.8519287109375 212.68853759765625 55.278533935546875 211.85369873046875 71.55841064453125 208.51422119140625 94.09970092773438 203.08761596679688 105.78778076171876 201.00045776367188 142.52182006835938 197.2435607910156 164.64569091796875 197.2435607910156 182.59527587890625 197.2435607910156 195.11822509765625 198.07843017578125 203.0494384765625 199.33071899414065 206.80633544921875 201.00045776367188 206.80633544921875 201.00045776367188 " />
        </svg>