<?xml version="1.0" standalone="no"?>
    <svg width="256" height="256" xmlns="http://www.w3.org/2000/svg" version="1.1">
    <polyline stroke="black" stroke-width="3" stroke-linecap="round" fill="transparent" stroke-linejoin="round" points="59.68939208984375 61.118560791015625 61.42169189453125 72.08973693847656 64.308837890625 84.79318237304688 67.19598388671875 100.3837890625 69.5057373046875 114.24211120605467 71.8154296875 122.3261260986328 71.8154296875 125.79069519042967 71.8154296875 125.79069519042967 " />
        <polyline stroke="black" stroke-width="3" stroke-linecap="round" fill="transparent" stroke-linejoin="round" points="67.19598388671875 70.93487548828125 75.857421875 63.42828369140625 88.5609130859375 55.344268798828125 112.23553466796876 44.37310028076172 133.02301025390625 37.443946838378906 152.6556396484375 33.9793701171875 167.66876220703125 33.9793701171875 176.90765380859375 36.86651611328125 182.1044921875 40.90852355957031 184.99169921875 50.14739990234375 181.527099609375 67.47029113769531 169.978515625 87.1029052734375 153.8104248046875 104.42579650878906 133.60040283203125 117.70668029785156 133.60040283203125 117.70668029785156 " />
        <polyline stroke="black" stroke-width="3" stroke-linecap="round" fill="transparent" stroke-linejoin="round" points="81.0543212890625 85.37062072753906 92.02548217773438 79.5963134765625 106.46124267578124 73.822021484375 122.05181884765624 68.62515258789063 136.487548828125 65.16056823730469 146.88128662109375 62.850860595703125 152.6556396484375 62.27342224121094 155.542724609375 64.00572204589844 155.542724609375 64.00572204589844 " />
        <polyline stroke="black" stroke-width="3" stroke-linecap="round" fill="transparent" stroke-linejoin="round" points="70.0831298828125 126.36813354492188 89.71575927734375 118.86154174804688 104.72894287109376 114.8195343017578 121.47439575195313 110.20010375976563 138.2198486328125 106.1580810546875 149.7684326171875 102.69351196289063 156.12017822265625 101.53865051269533 158.429931640625 100.3837890625 158.429931640625 100.3837890625 " />
        <polyline stroke="black" stroke-width="3" stroke-linecap="round" fill="transparent" stroke-linejoin="round" points="111.08065795898438 144.26844787597656 105.8837890625 152.92990112304688 102.41921997070313 159.28163146972656 97.79977416992188 167.9430694580078 90.29318237304688 177.75938415527344 81.63174438476563 185.8433837890625 68.92828369140625 192.19512939453125 55.64739990234375 196.8145751953125 45.253662109375 198.54684448242188 38.901947021484375 198.54684448242188 37.169647216796875 198.54684448242188 40.056793212890625 197.3919982910156 53.91510009765625 193.3499755859375 78.16717529296875 188.7305603027344 109.348388671875 184.68853759765625 135.33270263671875 180.6465301513672 159.00732421875 178.33680725097656 175.7528076171875 176.60452270507813 183.2593994140625 176.60452270507813 189.611083984375 176.60452270507813 189.611083984375 176.60452270507813 " />
        </svg>