<?xml version="1.0" standalone="no"?>
    <svg width="256" height="256" xmlns="http://www.w3.org/2000/svg" version="1.1">
    <polyline stroke="black" stroke-width="3" stroke-linecap="round" fill="transparent" stroke-linejoin="round" points="68.11410522460938 72.2114715576172 72.54415893554688 86.22483825683594 76.97421264648438 100.23820495605467 80.04196166992188 112.40646362304688 83.31103515625 128.91683959960938 83.88143920898438 133.34591674804688 83.73040771484375 134.22918701171875 83.71942138671875 134.29330444335938 " />
        <polyline stroke="black" stroke-width="3" stroke-linecap="round" fill="transparent" stroke-linejoin="round" points="88.11740112304688 58.39441680908203 113.35580444335938 51.450775146484375 138.59420776367188 44.50713348388672 150.56198120117188 43.07106018066406 166.2608642578125 47.05540466308594 169.92034912109375 50.26487731933594 171.583984375 58.133087158203125 171.28582763671875 72.39732360839844 169.8505859375 79.82061767578125 163.251220703125 96.47862243652344 158.80767822265625 105.30123901367188 150.7484130859375 117.25059509277344 149.60498046875 116.9437255859375 " />
        <polyline stroke="black" stroke-width="3" stroke-linecap="round" fill="transparent" stroke-linejoin="round" points="98.214111328125 91.49288940429688 108.4981689453125 88.59896850585938 118.7822265625 85.70504760742188 137.77706909179688 80.22201538085938 143.61199951171875 78.38400268554688 147.81439208984375 77.62040710449219 147.83847045898438 77.61604309082031 " />
        <polyline stroke="black" stroke-width="3" stroke-linecap="round" fill="transparent" stroke-linejoin="round" points="104.64096069335938 125.45733642578125 111.54049682617188 123.60739135742188 118.44003295898438 121.7574462890625 131.05230712890625 118.8608856201172 134.45697021484375 118.20310974121094 138.98861694335938 117.23187255859376 139.79052734375 117.02667236328124 140.17633056640625 116.92794799804688 140.2408447265625 116.91143798828124 " />
        <polyline stroke="black" stroke-width="3" stroke-linecap="round" fill="transparent" stroke-linejoin="round" points="124.12976074218751 110.79627990722656 123.30892944335938 135.90780639648438 122.48809814453124 161.0193328857422 120.37826538085938 173.43704223632813 116.51913452148438 185.99273681640625 115.60226440429688 186.7991943359375 " />
        <polyline stroke="black" stroke-width="3" stroke-linecap="round" fill="transparent" stroke-linejoin="round" points="58.37890625 199.70928955078125 81.6126708984375 201.7955322265625 104.846435546875 203.88177490234375 119.1795654296875 204.54837036132813 144.45404052734375 201.73052978515625 156.58154296875 198.04925537109375 179.3438720703125 189.48455810546875 198.802490234375 186.10284423828125 204.85302734375 187.558349609375 207.02313232421875 196.1357421875 204.9970703125 196.99581909179688 " />
        </svg>