<?xml version="1.0" standalone="no"?>
    <svg width="256" height="256" xmlns="http://www.w3.org/2000/svg" version="1.1">
    <polyline stroke="black" stroke-width="3" stroke-linecap="round" fill="transparent" stroke-linejoin="round" points="52.540008544921875 72.65187072753906 62.01092529296875 85.48844909667969 71.41265869140625 107.1060791015625 74.9779052734375 117.51705932617188 78.130615234375 130.40176391601563 78.38037109375 133.71531677246094 78.51449584960938 134.86248779296875 78.5264892578125 134.96502685546875 78.52804565429688 134.97830200195313 " />
        <polyline stroke="black" stroke-width="3" stroke-linecap="round" fill="transparent" stroke-linejoin="round" points="77.7445068359375 66.44207763671875 91.0230712890625 57.187744140625 108.0146484375 53.08818817138672 119.01910400390624 52.07079315185547 136.789794921875 52.151573181152344 142.59725952148438 52.55602264404297 147.7740478515625 53.130035400390625 149.71932983398438 53.63533020019531 168.0855712890625 56.54827880859375 170.56768798828125 57.539154052734375 172.3192138671875 60.110260009765625 172.0240478515625 61.37876892089844 173.33782958984375 69.74163818359375 172.6885986328125 83.69036865234375 167.29315185546875 92.98382568359376 152.136962890625 113.79484558105467 147.40792846679688 119.49057006835938 146.23211669921875 120.69918823242188 146.11456298828125 120.82005310058594 " />
        <polyline stroke="black" stroke-width="3" stroke-linecap="round" fill="transparent" stroke-linejoin="round" points="90.52938842773438 99.3175048828125 106.62591552734376 95.3131866455078 114.84725952148438 93.04159545898438 122.99560546875 90.76397705078124 137.0037841796875 86.57630920410156 143.19378662109375 85.08389282226563 145.46429443359375 85.33395385742188 146.14398193359375 86.85903930664063 146.25140380859375 87.0999755859375 " />
        <polyline stroke="black" stroke-width="3" stroke-linecap="round" fill="transparent" stroke-linejoin="round" points="100.75729370117188 124.88726806640624 116.67352294921876 120.05267333984376 140.322021484375 114.72941589355467 140.50363159179688 114.72137451171876 " />
        <polyline stroke="black" stroke-width="3" stroke-linecap="round" fill="transparent" stroke-linejoin="round" points="124.86593627929688 129.63595581054688 125.63543701171876 148.527587890625 121.32733154296876 182.69461059570313 118.97409057617188 188.24417114257813 116.41998291015624 193.2288818359375 112.61874389648438 196.39849853515625 112.27938842773438 195.265380859375 " />
        <polyline stroke="black" stroke-width="3" stroke-linecap="round" fill="transparent" stroke-linejoin="round" points="59.845672607421875 204.51885986328125 76.79049682617188 202.60687255859375 83.60507202148438 201.38104248046875 91.62289428710938 199.62905883789065 100.89779663085938 197.386474609375 121.05331420898438 192.63897705078125 138.26763916015625 188.91696166992188 143.43719482421875 188.00070190429688 161.15106201171875 187.1475830078125 175.1373291015625 187.4984436035156 202.989990234375 189.97903442382813 219.0965576171875 191.23516845703125 " />
        </svg>