<?xml version="1.0" standalone="no"?>
    <svg width="256" height="256" xmlns="http://www.w3.org/2000/svg" version="1.1">
    <polyline stroke="black" stroke-width="3" stroke-linecap="round" fill="transparent" stroke-linejoin="round" points="142.74343872070313 23.693626403808594 128.222900390625 46.134483337402344 122.6126708984375 53.064720153808594 90.60150146484376 85.40594482421875 85.32125854492188 90.35612487792967 75.09091186523438 99.5964813232422 71.46078491210938 102.8966064453125 71.1307373046875 103.2266082763672 71.1307373046875 103.2266082763672 71.1307373046875 103.2266082763672 " />
        <polyline stroke="black" stroke-width="3" stroke-linecap="round" fill="transparent" stroke-linejoin="round" points="148.68365478515625 69.2353515625 137.46322631835938 90.026123046875 131.19302368164063 97.61639404296876 92.91159057617188 128.9675750732422 86.97134399414063 131.60769653320313 77.73101806640625 135.56781005859375 77.73101806640625 135.56781005859375 77.73101806640625 135.56781005859375 " />
        <polyline stroke="black" stroke-width="3" stroke-linecap="round" fill="transparent" stroke-linejoin="round" points="82.02114868164063 101.5765380859375 102.15191650390624 104.54666137695313 148.35366821289063 113.12698364257813 156.27392578125 114.447021484375 178.05474853515625 117.74714660644533 191.91534423828125 120.0572509765625 195.21539306640625 121.37728881835938 195.21539306640625 121.37728881835938 195.21539306640625 121.37728881835938 " />
        <polyline stroke="black" stroke-width="3" stroke-linecap="round" fill="transparent" stroke-linejoin="round" points="101.82186889648438 147.11825561523438 100.50189208984376 156.02859497070313 100.83187866210938 158.66868591308594 102.48190307617188 169.2290802001953 102.81195068359376 170.879150390625 105.12203979492188 176.15936279296875 110.07220458984376 179.1294403076172 121.62261962890624 177.14939880371094 135.81317138671875 166.9189910888672 148.35366821289063 155.03855895996094 156.9339599609375 147.4482879638672 161.8841552734375 144.8081512451172 164.52423095703125 144.4781494140625 166.8343505859375 145.13818359375 169.1444091796875 147.11825561523438 171.45452880859375 152.72845458984375 173.1046142578125 158.66868591308594 173.4345703125 162.62884521484375 173.4345703125 162.62884521484375 173.4345703125 162.62884521484375 " />
        <polyline stroke="black" stroke-width="3" stroke-linecap="round" fill="transparent" stroke-linejoin="round" points="137.79324340820313 117.74714660644533 138.45327758789063 129.6276092529297 138.45327758789063 135.8978271484375 137.79324340820313 175.16932678222656 137.46322631835938 182.09957885742188 136.14315795898438 200.9102783203125 133.17303466796875 219.72100830078125 127.89291381835938 241.1717834472656 127.89291381835938 241.1717834472656 127.89291381835938 241.1717834472656 " />
        </svg>