<?xml version="1.0" standalone="no"?>
    <svg width="256" height="256" xmlns="http://www.w3.org/2000/svg" version="1.1">
    <polyline stroke="black" stroke-width="3" stroke-linecap="round" fill="transparent" stroke-linejoin="round" points="114 63 114 62 115 61 115 61 115 62 112 64 110 66 101 76 96 82 91 87 89 90 83 97 80 101 77 104 76 106 75 108 76 110 78 112 82 112 85 112 " />
        <polyline stroke="black" stroke-width="3" stroke-linecap="round" fill="transparent" stroke-linejoin="round" points="130 94 132 94 134 94 135 95 135 99 131 106 125 114 122 119 110 133 105 138 92 150 88 154 77 162 74 164 69 168 67 169 " />
        <polyline stroke="black" stroke-width="3" stroke-linecap="round" fill="transparent" stroke-linejoin="round" points="74 124 75 122 77 122 80 122 83 123 85 124 92 126 95 127 106 131 109 132 126 137 135 139 144 141 152 143 155 145 158 146 " />
        <polyline stroke="black" stroke-width="3" stroke-linecap="round" fill="transparent" stroke-linejoin="round" points="75 163 74 164 73 166 73 170 74 171 76 174 77 176 80 178 83 179 88 181 93 182 99 182 109 181 116 178 123 174 130 169 136 165 140 161 142 158 144 157 145 156 146 155 147 156 147 156 148 159 148 160 149 165 149 166 148 167 148 167 147 167 147 165 " />
        <polyline stroke="black" stroke-width="3" stroke-linecap="round" fill="transparent" stroke-linejoin="round" points="100 148 98 153 96 160 95 168 95 178 95 188 96 198 98 214 100 224 104 233 106 238 109 242 " />
        </svg>