<?xml version="1.0" standalone="no"?>
    <svg width="256" height="256" xmlns="http://www.w3.org/2000/svg" version="1.1">
    <polyline stroke="black" stroke-width="3" stroke-linecap="round" fill="transparent" stroke-linejoin="round" points="63.813720703125 80.26141357421875 66.25653076171875 94.8127899169922 68.00091552734375 102.0478515625 71.02816772460938 111.63983154296876 71.99932861328125 114.11331176757813 71.91357421875 115.88204956054688 71.7474365234375 116.16184997558594 71.6741943359375 116.28518676757813 " />
        <polyline stroke="black" stroke-width="3" stroke-linecap="round" fill="transparent" stroke-linejoin="round" points="109.384765625 101.2126922607422 115.083984375 108.91390991210938 116.28729248046876 110.12457275390624 117.55718994140624 110.91256713867188 117.84515380859376 110.92454528808594 117.99609375 110.93083190917967 " />
        <polyline stroke="black" stroke-width="3" stroke-linecap="round" fill="transparent" stroke-linejoin="round" points="167.91363525390625 94.64260864257813 158.9071044921875 106.495849609375 144.52362060546875 132.68814086914063 140.60125732421875 143.83995056152344 129.96649169921875 173.75877380371094 123.917724609375 183.73074340820313 124.82098388671876 180.7108154296875 " />
        <polyline stroke="black" stroke-width="3" stroke-linecap="round" fill="transparent" stroke-linejoin="round" points="98.50408935546876 197.49197387695313 116.83383178710938 194.48065185546875 129.00814819335938 192.783447265625 169.4808349609375 189.83120727539065 180.0098876953125 189.0216064453125 193.14288330078125 189.18780517578125 222.048095703125 189.98492431640625 225.506591796875 192.62567138671875 220.36627197265625 193.1976318359375 " />
        </svg>