<?xml version="1.0" standalone="no"?>
    <svg width="256" height="256" xmlns="http://www.w3.org/2000/svg" version="1.1">
    <polyline stroke="black" stroke-width="3" stroke-linecap="round" fill="transparent" stroke-linejoin="round" points="73.30410766601563 96.16751098632813 77.58892822265625 105.34921264648438 80.64947509765625 112.694580078125 84.3221435546875 117.59147644042967 84.3221435546875 117.59147644042967 " />
        <polyline stroke="black" stroke-width="3" stroke-linecap="round" fill="transparent" stroke-linejoin="round" points="112.4793701171875 72.29508972167969 118.60049438476563 77.80410766601563 124.10952758789063 82.70101928710938 132.0670166015625 85.14947509765625 132.0670166015625 85.14947509765625 " />
        <polyline stroke="black" stroke-width="3" stroke-linecap="round" fill="transparent" stroke-linejoin="round" points="177.9754638671875 71.6829833984375 163.89691162109375 94.3311767578125 141.24868774414063 121.26416015625 121.66107177734376 140.2396697998047 97.78863525390624 156.76673889160156 80.037353515625 164.72421264648438 64.73452758789063 168.3968963623047 55.552825927734375 168.3968963623047 51.268035888671875 167.78477478027344 53.1043701171875 165.33631896972656 62.898193359375 160.43942260742188 91.66751098632813 150.64559936523438 122.88531494140624 146.36080932617188 151.65460205078125 145.74868774414063 176.13916015625 146.97291564941406 196.9510498046875 149.42137145996094 208.5811767578125 152.48194885253906 225.10821533203125 162.2757568359375 225.10821533203125 162.2757568359375 " />
        </svg>