<?xml version="1.0" standalone="no"?>
    <svg width="256" height="256" xmlns="http://www.w3.org/2000/svg" version="1.1">
    <polyline stroke="black" stroke-width="3" stroke-linecap="round" fill="transparent" stroke-linejoin="round" points="51.748138427734375 95.60565185546876 54.925506591796875 104.07389831542967 58.386077880859375 110.38720703125 61.58935546875 115.63168334960938 65.86410522460938 123.7412567138672 67.00732421875 127.5317840576172 67.0806884765625 127.77513122558594 " />
        <polyline stroke="black" stroke-width="3" stroke-linecap="round" fill="transparent" stroke-linejoin="round" points="108.30648803710938 103.35581970214844 111.34567260742188 110.91836547851563 115.5205078125 123.98675537109376 116.27294921875 126.72216796875 115.963623046875 129.2682342529297 115.93115234375 129.5352783203125 " />
        <polyline stroke="black" stroke-width="3" stroke-linecap="round" fill="transparent" stroke-linejoin="round" points="173.03533935546875 97.48252868652344 171.05438232421875 111.10948181152344 164.987060546875 145.94561767578125 161.09747314453125 161.21714782714844 157.5443115234375 172.3406982421875 157.7852783203125 169.7893524169922 " />
        <polyline stroke="black" stroke-width="3" stroke-linecap="round" fill="transparent" stroke-linejoin="round" points="94.65533447265624 185.50894165039065 117.62069702148438 184.9810485839844 141.44732666015625 183.12303161621097 153.29254150390625 182.0785369873047 164.6978759765625 182.0760498046875 174.95428466796875 182.72854614257813 177.64697265625 182.91848754882813 180.07940673828125 183.09152221679688 180.6060791015625 183.11572265625 180.703369140625 183.1202087402344 180.73681640625 183.1217498779297 " />
        </svg>