<?xml version="1.0" standalone="no"?>
    <svg width="256" height="256" xmlns="http://www.w3.org/2000/svg" version="1.1">
    <polyline stroke="black" stroke-width="3" stroke-linecap="round" fill="transparent" stroke-linejoin="round" points="60.900360107421875 62.63508605957031 70.470703125 78.14566040039063 85.65130615234375 99.92648315429688 87.63134765625 102.236572265625 92.25152587890624 105.53669738769533 93.901611328125 105.53669738769533 93.901611328125 105.53669738769533 " />
        <polyline stroke="black" stroke-width="3" stroke-linecap="round" fill="transparent" stroke-linejoin="round" points="112.7122802734375 70.88539123535156 123.93270874023438 78.14566040039063 139.11328125 82.43583679199219 139.11328125 82.43583679199219 139.11328125 82.43583679199219 " />
        <polyline stroke="black" stroke-width="3" stroke-linecap="round" fill="transparent" stroke-linejoin="round" points="184.32501220703125 43.16435241699219 163.8642578125 71.54542541503906 101.82186889648438 113.4569854736328 55.290130615234375 139.52796936035156 48.35986328125 140.51800537109375 49.679962158203125 139.19796752929688 63.8704833984375 129.6276092529297 84.33123779296875 120.0572509765625 107.43209838867188 112.46696472167967 134.49310302734375 105.86669921875 162.87420654296875 102.236572265625 183.3349609375 100.58650207519533 191.58526611328125 100.58650207519533 192.24530029296875 100.58650207519533 192.24530029296875 100.58650207519533 192.24530029296875 100.58650207519533 " />
        <polyline stroke="black" stroke-width="3" stroke-linecap="round" fill="transparent" stroke-linejoin="round" points="53.31005859375 177.14939880371094 71.46078491210938 165.5989532470703 105.78207397460938 154.3785400390625 122.28268432617188 151.0784149169922 150.00369262695313 145.7982177734375 177.39471435546875 141.50804138183594 192.90533447265625 139.8579864501953 195.87542724609375 140.18801879882813 195.87542724609375 140.18801879882813 195.87542724609375 140.18801879882813 " />
        <polyline stroke="black" stroke-width="3" stroke-linecap="round" fill="transparent" stroke-linejoin="round" points="118.65252685546876 161.30877685546875 111.72225952148438 171.2091522216797 100.17184448242188 209.16058349609375 100.17184448242188 217.410888671875 101.49188232421876 232.92144775390625 102.48190307617188 237.211669921875 103.47195434570313 238.53167724609375 114.03231811523438 233.25149536132813 123.272705078125 220.7110290527344 130.86297607421875 211.14065551757813 137.46322631835938 204.5404052734375 141.75338745117188 197.940185546875 144.7235107421875 191.66995239257813 147.69363403320313 186.38970947265625 149.34368896484375 182.4296112060547 150.333740234375 180.11947631835938 150.66372680664063 179.1294403076172 150.66372680664063 177.8094024658203 150.333740234375 174.1792755126953 150.00369262695313 173.18923950195313 149.6737060546875 170.5491180419922 149.34368896484375 168.56906127929688 148.68365478515625 166.25900268554688 148.02362060546875 164.93893432617188 147.69363403320313 163.9488983154297 147.69363403320313 163.618896484375 147.69363403320313 163.618896484375 147.69363403320313 164.60891723632813 147.69363403320313 165.5989532470703 148.35366821289063 167.9090576171875 150.99371337890625 178.79945373535156 154.29388427734375 196.6201171875 155.6138916015625 206.19049072265625 156.27392578125 210.150634765625 156.27392578125 210.150634765625 156.27392578125 210.150634765625 " />
        </svg>