<?xml version="1.0" standalone="no"?>
    <svg width="256" height="256" xmlns="http://www.w3.org/2000/svg" version="1.1">
    <polyline stroke="black" stroke-width="3" stroke-linecap="round" fill="transparent" stroke-linejoin="round" points="80.73211669921875 72.27226257324219 91.19036865234376 95.80340576171876 98.38043212890624 110.18356323242188 100.3414306640625 112.1444854736328 104.9168701171875 112.1444854736328 108.18505859375 110.18356323242188 108.18505859375 110.18356323242188 " />
        <polyline stroke="black" stroke-width="3" stroke-linecap="round" fill="transparent" stroke-linejoin="round" points="112.10693359375 84.03782653808594 132.369873046875 90.5742645263672 142.17449951171875 89.2669677734375 142.17449951171875 89.2669677734375 " />
        <polyline stroke="black" stroke-width="3" stroke-linecap="round" fill="transparent" stroke-linejoin="round" points="164.39837646484375 76.84774780273438 149.3646240234375 97.11068725585938 127.79437255859376 116.71998596191406 127.79437255859376 116.71998596191406 " />
        <polyline stroke="black" stroke-width="3" stroke-linecap="round" fill="transparent" stroke-linejoin="round" points="78.11749267578125 133.7147216796875 85.961181640625 116.71998596191406 89.22943115234375 116.06634521484376 119.29705810546876 114.7590789794922 123.21893310546876 114.7590789794922 144.78912353515625 114.7590789794922 161.78387451171875 114.1054229736328 174.20306396484375 114.7590789794922 179.4322509765625 118.0272979736328 179.4322509765625 118.68092346191406 179.4322509765625 118.68092346191406 " />
        <polyline stroke="black" stroke-width="3" stroke-linecap="round" fill="transparent" stroke-linejoin="round" points="87.922119140625 159.20681762695313 113.41424560546876 153.3240203857422 117.33612060546876 153.3240203857422 150.01824951171875 152.0167236328125 166.35931396484375 155.28494262695313 168.32025146484375 156.5922393798828 168.32025146484375 158.5531768798828 168.32025146484375 158.5531768798828 " />
        <polyline stroke="black" stroke-width="3" stroke-linecap="round" fill="transparent" stroke-linejoin="round" points="125.83343505859376 153.3240203857422 106.87786865234376 152.0167236328125 98.38043212890624 172.2796630859375 97.72674560546876 175.5478973388672 96.41949462890624 187.96713256835935 97.07318115234376 198.4254150390625 98.38043212890624 205.615478515625 100.99505615234376 210.1910095214844 104.9168701171875 212.1519470214844 110.14605712890624 213.45919799804688 117.98974609375 212.1519470214844 127.1407470703125 208.2300720214844 136.94537353515625 202.3472595214844 146.75006103515625 195.81085205078125 146.75006103515625 195.81085205078125 " />
        <polyline stroke="black" stroke-width="3" stroke-linecap="round" fill="transparent" stroke-linejoin="round" points="150.671875 161.82139587402344 148.71099853515625 187.3134765625 151.97918701171875 211.49826049804688 155.90106201171875 217.38107299804688 155.90106201171875 217.38107299804688 " />
        </svg>