<?xml version="1.0" standalone="no"?>
    <svg width="256" height="256" xmlns="http://www.w3.org/2000/svg" version="1.1">
    <polyline stroke="black" stroke-width="3" stroke-linecap="round" fill="transparent" stroke-linejoin="round" points="79.84603881835938 63.720489501953125 82.05645751953125 82.73019409179688 82.94064331054688 93.34027099609376 85.5931396484375 113.67623901367188 87.36151123046875 126.49673461914063 88.687744140625 134.01220703125 88.687744140625 134.45428466796875 88.687744140625 134.45428466796875 " />
        <polyline stroke="black" stroke-width="3" stroke-linecap="round" fill="transparent" stroke-linejoin="round" points="98.41366577148438 97.76113891601563 112.56039428710938 81.84602355957031 119.6337890625 76.09890747070313 143.06439208984375 62.39422607421875 158.0953369140625 57.973358154296875 170.4737548828125 57.089202880859375 180.19964599609375 59.74171447753906 185.94671630859375 64.16256713867188 187.715087890625 66.81509399414063 189.0413818359375 84.05645751953125 179.3154296875 103.50827026367188 164.7265625 120.74961853027344 156.76904296875 128.26507568359375 156.76904296875 128.26507568359375 " />
        <polyline stroke="black" stroke-width="3" stroke-linecap="round" fill="transparent" stroke-linejoin="round" points="105.92913818359376 126.05467224121094 120.07589721679688 116.32876586914063 128.033447265625 112.79208374023438 135.10678100585938 109.69744873046876 142.18017578125 107.04495239257813 148.369384765625 105.27659606933594 159.8636474609375 102.6240692138672 163.8424072265625 102.1820068359375 168.70538330078125 102.1820068359375 168.70538330078125 103.50827026367188 166.4949951171875 106.60284423828124 166.4949951171875 106.60284423828124 " />
        <polyline stroke="black" stroke-width="3" stroke-linecap="round" fill="transparent" stroke-linejoin="round" points="113.00250244140624 142.8539276123047 133.33847045898438 134.8963623046875 139.0855712890625 133.12803649902344 149.69564819335938 130.4755096435547 157.6531982421875 129.59133911132813 160.3057861328125 129.59133911132813 160.3057861328125 129.59133911132813 " />
        <polyline stroke="black" stroke-width="3" stroke-linecap="round" fill="transparent" stroke-linejoin="round" points="103.276611328125 182.1996154785156 99.29782104492188 195.46218872070313 97.52947998046876 202.9776611328125 95.76116943359376 209.1668701171875 93.55072021484376 217.1244201660156 91.7823486328125 220.21902465820313 92.22445678710938 218.00860595703125 96.20321655273438 210.051025390625 103.71868896484376 200.32513427734375 113.444580078125 190.5992431640625 120.5179443359375 185.29421997070313 141.2960205078125 173.35787963867188 155.44281005859375 168.49493408203125 161.63201904296875 167.16867065429688 177.547119140625 166.72659301757813 181.08380126953125 167.6107635498047 187.715087890625 172.91580200195313 189.0413818359375 182.6416931152344 184.6204833984375 196.34637451171875 174.01043701171875 210.051025390625 166.93701171875 216.240234375 166.93701171875 216.240234375 " />
        <polyline stroke="black" stroke-width="3" stroke-linecap="round" fill="transparent" stroke-linejoin="round" points="124.49676513671876 210.93521118164065 138.64352416992188 203.41973876953125 153.23236083984375 197.23052978515625 159.42156982421875 195.0201110839844 168.70538330078125 192.8096923828125 173.126220703125 192.3675842285156 174.01043701171875 193.69384765625 174.01043701171875 193.69384765625 " />
        <polyline stroke="black" stroke-width="3" stroke-linecap="round" fill="transparent" stroke-linejoin="round" points="112.11834716796876 232.1553649902344 126.70721435546876 229.5028381347656 134.66473388671875 228.17657470703125 143.50643920898438 227.29241943359375 159.8636474609375 225.5240478515625 173.126220703125 227.7344970703125 181.08380126953125 232.1553649902344 181.08380126953125 232.1553649902344 " />
        </svg>