<?xml version="1.0" standalone="no"?>
    <svg width="256" height="256" xmlns="http://www.w3.org/2000/svg" version="1.1">
    <polyline stroke="black" stroke-width="3" stroke-linecap="round" fill="transparent" stroke-linejoin="round" points="89.30563354492188 57.329864501953125 90.94793701171876 69.23641967773438 92.5902099609375 85.24868774414063 93.00079345703124 103.72439575195313 91.76904296875 120.147216796875 89.7161865234375 132.46435546875 89.7161865234375 132.46435546875 " />
        <polyline stroke="black" stroke-width="3" stroke-linecap="round" fill="transparent" stroke-linejoin="round" points="111.06591796875 60.61444091796875 119.68792724609376 55.277008056640625 124.61474609375 52.81358337402344 142.269287109375 50.35015106201172 152.94415283203125 52.81358337402344 160.33441162109375 58.1510009765625 166.903564453125 70.4681396484375 168.54583740234375 84.83811950683594 162.7978515625 101.26095581054688 157.87103271484375 107.83010864257813 157.87103271484375 107.83010864257813 " />
        <polyline stroke="black" stroke-width="3" stroke-linecap="round" fill="transparent" stroke-linejoin="round" points="95.05364990234376 104.5455322265625 106.13909912109376 99.20809936523438 111.88705444335938 97.56582641601563 123.383056640625 94.69183349609376 129.13104248046875 93.87068176269533 142.67987060546875 93.87068176269533 145.143310546875 94.28125 145.143310546875 94.28125 " />
        <polyline stroke="black" stroke-width="3" stroke-linecap="round" fill="transparent" stroke-linejoin="round" points="98.748779296875 134.5172119140625 111.47650146484376 127.12693786621094 118.04559326171876 124.25296020507813 131.59445190429688 118.50494384765624 145.96444702148438 113.9886474609375 150.07015991210938 112.75694274902344 150.07015991210938 112.75694274902344 " />
        <polyline stroke="black" stroke-width="3" stroke-linecap="round" fill="transparent" stroke-linejoin="round" points="103.67562866210938 167.77346801757813 105.72848510742188 188.71258544921875 106.54962158203124 199.38742065429688 106.54962158203124 206.7777099609375 106.54962158203124 207.18829345703125 106.54962158203124 206.36712646484375 106.960205078125 201.44027709960935 108.19189453125 193.2288818359375 110.2447509765625 184.1962890625 114.3504638671875 174.34259033203125 118.04559326171876 169.0051727294922 132.41561889648438 154.6351776123047 138.98471069335938 149.70834350585938 159.5133056640625 141.907470703125 173.0621337890625 141.907470703125 182.09466552734375 145.1920623779297 185.3792724609375 147.65548706054688 191.537841796875 163.25717163085938 190.7166748046875 171.0580291748047 183.73699951171875 186.2491455078125 177.578369140625 193.63943481445313 177.578369140625 193.63943481445313 " />
        <polyline stroke="black" stroke-width="3" stroke-linecap="round" fill="transparent" stroke-linejoin="round" points="115.58221435546876 189.94427490234375 124.61474609375 185.83859252929688 136.1107177734375 181.73287963867188 142.269287109375 180.090576171875 153.76531982421875 177.2165985107422 162.7978515625 175.57431030273438 168.9564208984375 174.75315856933594 168.9564208984375 174.75315856933594 " />
        <polyline stroke="black" stroke-width="3" stroke-linecap="round" fill="transparent" stroke-linejoin="round" points="118.04559326171876 212.936279296875 128.30990600585938 208.0093994140625 134.057861328125 205.5459899902344 153.76531982421875 199.38742065429688 168.54583740234375 196.92401123046875 168.54583740234375 196.92401123046875 " />
        </svg>