<?xml version="1.0" standalone="no"?>
    <svg width="256" height="256" xmlns="http://www.w3.org/2000/svg" version="1.1">
    <polyline stroke="black" stroke-width="3" stroke-linecap="round" fill="transparent" stroke-linejoin="round" points="116.98403930664063 42.624000549316406 108.098388671875 59.83992004394531 97.54669189453124 74.27908325195313 78.66473388671875 99.26994323730467 65.8916015625 114.81980895996094 55.33990478515625 125.37150573730467 47.0096435546875 130.3696746826172 47.0096435546875 130.3696746826172 " />
        <polyline stroke="black" stroke-width="3" stroke-linecap="round" fill="transparent" stroke-linejoin="round" points="59.227386474609375 73.16838073730469 68.113037109375 75.94514465332031 80.88613891601563 82.05401611328125 98.10205078125 89.27360534667969 113.65191650390624 95.38247680664063 125.86968994140624 99.26994323730467 132.53390502929688 102.04670715332033 132.53390502929688 102.04670715332033 " />
        <polyline stroke="black" stroke-width="3" stroke-linecap="round" fill="transparent" stroke-linejoin="round" points="89.77178955078125 121.48403930664063 91.9931640625 145.36419677734375 92.54852294921876 178.12998962402344 90.88247680664063 192.56915283203125 88.105712890625 204.2315368652344 83.66290283203125 208.67437744140625 77.55401611328125 207.56365966796875 77.55401611328125 207.56365966796875 " />
        <polyline stroke="black" stroke-width="3" stroke-linecap="round" fill="transparent" stroke-linejoin="round" points="44.232879638671875 163.69082641601563 43.1221923828125 178.12998962402344 44.232879638671875 184.2388610839844 48.120361328125 185.9049072265625 48.120361328125 185.9049072265625 " />
        <polyline stroke="black" stroke-width="3" stroke-linecap="round" fill="transparent" stroke-linejoin="round" points="106.43234252929688 160.9140625 120.87152099609376 174.24252319335938 126.98037719726563 180.3513946533203 131.4232177734375 183.12814331054688 135.86602783203125 180.3513946533203 135.86602783203125 180.3513946533203 " />
        <polyline stroke="black" stroke-width="3" stroke-linecap="round" fill="transparent" stroke-linejoin="round" points="143.64096069335938 93.71641540527344 142.5302734375 112.04304504394533 143.64096069335938 129.25897216796875 145.86236572265625 146.4748992919922 147.5284423828125 159.80335998535156 148.63912963867188 168.13363647460938 148.63912963867188 168.13363647460938 " />
        <polyline stroke="black" stroke-width="3" stroke-linecap="round" fill="transparent" stroke-linejoin="round" points="134.75531005859375 95.38247680664063 149.1944580078125 81.49867248535156 160.301513671875 73.72373962402344 173.07464599609375 68.72557067871094 184.737060546875 67.61485290527344 193.6226806640625 72.05767822265625 200.84228515625 84.83078002929688 207.5064697265625 109.82164001464844 210.283203125 133.1464385986328 210.838623046875 149.8070068359375 207.5064697265625 162.02476501464844 207.5064697265625 162.02476501464844 " />
        <polyline stroke="black" stroke-width="3" stroke-linecap="round" fill="transparent" stroke-linejoin="round" points="135.86602783203125 133.1464385986328 150.86053466796875 126.48220825195313 163.6336669921875 122.03939819335938 178.628173828125 117.04122924804688 193.6226806640625 111.48770141601563 201.95294189453125 107.0448760986328 205.2850341796875 103.15740966796876 205.2850341796875 103.15740966796876 " />
        <polyline stroke="black" stroke-width="3" stroke-linecap="round" fill="transparent" stroke-linejoin="round" points="176.96209716796875 79.83261108398438 174.74072265625 89.27360534667969 174.185302734375 100.93600463867188 173.6300048828125 123.1501007080078 170.85321044921875 142.03207397460938 166.410400390625 155.9158935546875 160.85687255859375 165.35687255859375 155.85870361328125 170.3550567626953 151.97125244140625 172.5764617919922 150.86053466796875 172.5764617919922 155.3033447265625 169.79969787597656 165.2996826171875 166.46759033203125 180.849609375 164.2461700439453 195.2886962890625 165.35687255859375 195.2886962890625 165.35687255859375 " />
        </svg>