<?xml version="1.0" standalone="no"?>
    <svg width="256" height="256" xmlns="http://www.w3.org/2000/svg" version="1.1">
    <polyline stroke="black" stroke-width="3" stroke-linecap="round" fill="transparent" stroke-linejoin="round" points="43.715179443359375 113.48350524902344 75.9539794921875 87.86912536621094 102.00997924804688 73.737060546875 124.09133911132813 64.021240234375 140.43154907226563 56.513580322265625 143.96456909179688 54.30543518066406 143.96456909179688 54.30543518066406 " />
        <polyline stroke="black" stroke-width="3" stroke-linecap="round" fill="transparent" stroke-linejoin="round" points="56.522369384765625 115.25001525878906 78.16213989257813 106.41748046875 86.99465942382813 100.6763153076172 98.03530883789063 95.37680053710938 107.30950927734376 93.61027526855467 112.60906982421876 94.4935302734375 112.16741943359376 100.6763153076172 106.86788940429688 109.95050048828124 101.568359375 116.5749053955078 99.3602294921875 119.22467041015624 102.45162963867188 117.01654052734376 102.00997924804688 111.27537536621094 102.00997924804688 111.27537536621094 " />
        <polyline stroke="black" stroke-width="3" stroke-linecap="round" fill="transparent" stroke-linejoin="round" points="65.79653930664063 144.3974151611328 61.380279541015625 163.8290252685547 76.83721923828125 169.5701904296875 94.06069946289063 166.0371856689453 115.25881958007813 155.87974548339844 128.50759887695313 147.04721069335938 144.40625 136.88975524902344 156.33013916015625 130.70697021484375 162.95458984375 127.17396545410156 164.7210693359375 125.8490753173828 164.7210693359375 125.40744018554688 164.7210693359375 124.9658203125 162.95458984375 124.9658203125 162.512939453125 124.9658203125 162.0712890625 128.4988555908203 162.95458984375 133.79837036132813 162.95458984375 134.68162536621094 163.39617919921875 131.1486053466797 163.39617919921875 131.1486053466797 " />
        <polyline stroke="black" stroke-width="3" stroke-linecap="round" fill="transparent" stroke-linejoin="round" points="119.67507934570313 144.3974151611328 115.25881958007813 178.84437561035156 117.46694946289063 204.01715087890625 120.558349609375 220.79898071289065 122.32485961914063 227.86502075195313 123.64974975585938 231.3980407714844 123.64974975585938 231.3980407714844 " />
        </svg>