<?xml version="1.0" standalone="no"?>
    <svg width="256" height="256" xmlns="http://www.w3.org/2000/svg" version="1.1">
    <polyline stroke="black" stroke-width="3" stroke-linecap="round" fill="transparent" stroke-linejoin="round" points="105.60003662109376 69.13334655761719 111.20001220703124 65.40000915527344 120.53335571289063 61.13334655761719 131.20001220703125 57.66668701171875 140.2667236328125 56.333343505859375 148.800048828125 56.066680908203125 150.666748046875 57.40000915527344 149.86669921875 58.73333740234375 149.86669921875 58.73333740234375 " />
        <polyline stroke="black" stroke-width="3" stroke-linecap="round" fill="transparent" stroke-linejoin="round" points="107.46673583984376 96.06668090820313 108.2667236328125 102.20001220703124 109.60003662109376 105.66667175292967 113.06671142578124 115.00001525878906 114.933349609375 120.06668090820313 116.2667236328125 122.7333526611328 116.53335571289063 122.7333526611328 116.53335571289063 122.7333526611328 " />
        <polyline stroke="black" stroke-width="3" stroke-linecap="round" fill="transparent" stroke-linejoin="round" points="115.46673583984376 105.66667175292967 120.80001831054688 100.60000610351563 127.20001220703124 97.66667175292967 138.933349609375 95.53335571289063 146.13336181640625 95.26667785644533 150.13336181640625 95.8000030517578 151.46673583984375 98.20001220703124 151.46673583984375 102.4666748046875 147.46673583984375 109.93336486816406 145.60003662109375 111.26667785644533 145.60003662109375 111.26667785644533 " />
        <polyline stroke="black" stroke-width="3" stroke-linecap="round" fill="transparent" stroke-linejoin="round" points="124.2667236328125 125.40000915527344 130.13336181640625 120.60000610351563 136.800048828125 118.4666748046875 144.800048828125 117.13336181640624 152.800048828125 117.13336181640624 160 117.93336486816406 159.73333740234375 119.26667785644533 159.73333740234375 119.26667785644533 " />
        <polyline stroke="black" stroke-width="3" stroke-linecap="round" fill="transparent" stroke-linejoin="round" points="92.80001831054688 157.40000915527344 96.00003051757813 163.80001831054688 97.33334350585938 165.93336486816406 100.2667236328125 169.93336486816406 104.80001831054688 174.73336791992188 108.2667236328125 175.80001831054688 113.06671142578124 175.2666778564453 120.80001831054688 171.00001525878906 137.86669921875 162.20001220703125 149.86669921875 157.13336181640625 160.2667236328125 154.20001220703125 167.20001220703125 152.86668395996094 169.06671142578125 152.33335876464844 168.53338623046875 152.33335876464844 168.53338623046875 152.33335876464844 " />
        <polyline stroke="black" stroke-width="3" stroke-linecap="round" fill="transparent" stroke-linejoin="round" points="164.53338623046875 134.4666748046875 162.933349609375 144.06668090820313 161.86669921875 153.13336181640625 160.800048828125 161.6666717529297 159.73333740234375 168.60000610351563 159.46673583984375 172.86668395996094 159.46673583984375 172.86668395996094 " />
        <polyline stroke="black" stroke-width="3" stroke-linecap="round" fill="transparent" stroke-linejoin="round" points="128.2667236328125 129.13336181640625 130.933349609375 145.6666717529297 131.46673583984375 161.6666717529297 130.66671752929688 180.86668395996097 122.933349609375 208.33334350585935 116.53335571289063 223.00003051757813 114.66671752929688 224.6000061035156 114.66671752929688 224.6000061035156 " />
        </svg>