<?xml version="1.0" standalone="no"?>
    <svg width="256" height="256" xmlns="http://www.w3.org/2000/svg" version="1.1">
    <polyline stroke="black" stroke-width="3" stroke-linecap="round" fill="transparent" stroke-linejoin="round" points="79 65 78 65 77 66 78 66 83 65 100 61 117 55 123 53 142 50 148 49 166 48 178 49 178 49 " />
        <polyline stroke="black" stroke-width="3" stroke-linecap="round" fill="transparent" stroke-linejoin="round" points="106 83 106 82 106 85 105 92 105 100 106 107 106 110 106 110 " />
        <polyline stroke="black" stroke-width="3" stroke-linecap="round" fill="transparent" stroke-linejoin="round" points="113 82 113 81 114 80 117 79 119 78 128 76 132 75 146 70 159 68 164 67 167 69 164 72 157 80 152 88 149 92 149 94 149 99 149 101 149 101 " />
        <polyline stroke="black" stroke-width="3" stroke-linecap="round" fill="transparent" stroke-linejoin="round" points="116 113 114 112 117 111 119 110 133 108 147 105 150 104 150 104 " />
        <polyline stroke="black" stroke-width="3" stroke-linecap="round" fill="transparent" stroke-linejoin="round" points="95 140 95 138 95 137 94 137 94 139 94 141 92 147 91 156 91 159 91 163 91 167 94 169 99 169 109 167 118 166 121 165 132 164 135 164 145 164 148 164 159 162 163 161 166 161 165 162 165 162 " />
        <polyline stroke="black" stroke-width="3" stroke-linecap="round" fill="transparent" stroke-linejoin="round" points="175 133 173 134 173 135 173 136 170 144 169 151 169 155 169 158 169 158 " />
        <polyline stroke="black" stroke-width="3" stroke-linecap="round" fill="transparent" stroke-linejoin="round" points="138 114 137 113 136 115 136 123 133 139 121 175 110 203 104 222 104 222 " />
        </svg>