<?xml version="1.0" standalone="no"?>
    <svg width="256" height="256" xmlns="http://www.w3.org/2000/svg" version="1.1">
    <polyline stroke="black" stroke-width="3" stroke-linecap="round" fill="transparent" stroke-linejoin="round" points="73 62 86 59 127 56 152 56 169 57 175 60 175 60 " />
        <polyline stroke="black" stroke-width="3" stroke-linecap="round" fill="transparent" stroke-linejoin="round" points="72 114 72 121 72 136 72 149 72 153 71 158 71 159 74 159 79 159 96 159 115 155 135 151 157 148 166 146 166 146 " />
        <polyline stroke="black" stroke-width="3" stroke-linecap="round" fill="transparent" stroke-linejoin="round" points="183 130 183 140 183 152 182 157 182 157 " />
        <polyline stroke="black" stroke-width="3" stroke-linecap="round" fill="transparent" stroke-linejoin="round" points="141 109 141 130 138 164 126 197 109 228 102 239 102 239 " />
        </svg>