<?xml version="1.0" standalone="no"?>
    <svg width="256" height="256" xmlns="http://www.w3.org/2000/svg" version="1.1">
    <polyline stroke="black" stroke-width="3" stroke-linecap="round" fill="transparent" stroke-linejoin="round" points="95.19989013671876 56.639373779296875 92.686767578125 67.52963256835938 90.59249877929688 78.41989135742188 88.49822998046875 89.72900390625 85.1473388671875 126.58836364746094 85.1473388671875 148.78775024414063 85.98507690429688 167.6362762451172 86.40390014648438 182.29624938964844 86.40390014648438 194.02423095703125 86.40390014648438 199.88821411132813 85.98507690429688 203.23907470703125 85.98507690429688 203.65792846679688 85.98507690429688 203.65792846679688 " />
        <polyline stroke="black" stroke-width="3" stroke-linecap="round" fill="transparent" stroke-linejoin="round" points="95.61874389648438 111.50955200195313 99.38848876953124 109.8341064453125 113.62957763671876 105.2266845703125 118.23699951171876 103.97013854980467 122.425537109375 103.13241577148438 129.546142578125 102.71354675292967 132.47811889648438 102.71354675292967 132.47811889648438 102.71354675292967 " />
        <polyline stroke="black" stroke-width="3" stroke-linecap="round" fill="transparent" stroke-linejoin="round" points="93.10565185546876 163.0288543701172 97.294189453125 161.77227783203125 101.901611328125 160.51571655273438 118.23699951171876 155.48944091796875 123.68212890625 152.55746459960938 123.68212890625 152.55746459960938 " />
        <polyline stroke="black" stroke-width="3" stroke-linecap="round" fill="transparent" stroke-linejoin="round" points="145.88153076171875 44.91139221191406 144.2060546875 54.96394348144531 142.53070068359375 66.2730712890625 139.5986328125 89.31015014648438 139.1798095703125 101.8758544921875 139.5986328125 127.4260711669922 141.27410888671875 149.20660400390625 143.7872314453125 169.31170654296875 147.13812255859375 185.6470947265625 150.48895263671875 199.05050659179688 152.16436767578125 204.91448974609375 155.93408203125 213.71047973632813 155.93408203125 213.71047973632813 " />
        </svg>