<?xml version="1.0" standalone="no"?>
    <svg width="256" height="256" xmlns="http://www.w3.org/2000/svg" version="1.1">
    <polyline stroke="black" stroke-width="3" stroke-linecap="round" fill="transparent" stroke-linejoin="round" points="87 66 87 65 88 63 89 62 91 60 94 59 100 56 105 54 110 53 117 52 123 51 130 50 136 48 143 47 149 45 155 43 160 41 162 40 " />
        <polyline stroke="black" stroke-width="3" stroke-linecap="round" fill="transparent" stroke-linejoin="round" points="135 35 131 41 123 53 118 63 112 73 108 83 103 93 100 102 96 111 93 118 91 124 88 130 86 133 86 134 86 135 " />
        <polyline stroke="black" stroke-width="3" stroke-linecap="round" fill="transparent" stroke-linejoin="round" points="121 72 122 72 125 71 128 71 132 72 138 73 144 74 150 76 156 78 164 80 170 81 177 81 183 81 186 80 " />
        <polyline stroke="black" stroke-width="3" stroke-linecap="round" fill="transparent" stroke-linejoin="round" points="114 119 112 119 112 119 114 119 117 118 120 117 125 117 129 116 135 115 140 114 145 113 152 111 155 111 157 111 158 112 156 116 154 123 150 131 146 141 141 150 136 162 133 170 131 176 129 182 128 187 128 190 128 193 129 195 131 197 134 199 138 200 142 201 148 200 154 199 160 197 166 195 173 192 178 189 185 185 188 183 190 181 191 179 192 176 192 172 192 168 190 164 188 160 185 156 181 153 176 151 174 151 " />
        </svg>