<?xml version="1.0" standalone="no"?>
    <svg width="256" height="256" xmlns="http://www.w3.org/2000/svg" version="1.1">
    <polyline stroke="black" stroke-width="3" stroke-linecap="round" fill="transparent" stroke-linejoin="round" points="97 66 99 64 101 64 104 63 107 63 111 62 115 61 120 60 126 58 132 56 142 53 149 51 156 49 162 48 168 46 173 43 175 42 177 40 " />
        <polyline stroke="black" stroke-width="3" stroke-linecap="round" fill="transparent" stroke-linejoin="round" points="147 34 141 41 134 50 127 61 120 73 110 90 104 102 98 112 93 122 89 129 86 136 83 141 82 144 81 147 81 147 81 148 " />
        <polyline stroke="black" stroke-width="3" stroke-linecap="round" fill="transparent" stroke-linejoin="round" points="115 94 120 90 126 88 131 85 140 84 146 83 152 83 157 84 162 85 167 86 172 87 177 88 179 89 181 90 " />
        <polyline stroke="black" stroke-width="3" stroke-linecap="round" fill="transparent" stroke-linejoin="round" points="105 139 103 140 102 140 102 140 103 140 106 139 110 137 118 134 124 131 131 128 138 126 144 123 150 121 154 120 156 119 158 120 156 126 153 133 148 142 143 152 137 162 132 171 128 180 124 187 122 193 120 201 121 205 122 209 125 212 128 214 133 216 139 216 146 216 153 214 162 209 167 206 171 203 175 201 177 199 178 197 180 195 180 192 179 189 177 183 175 180 173 177 172 176 " />
        </svg>