<?xml version="1.0" standalone="no"?>
    <svg width="256" height="256" xmlns="http://www.w3.org/2000/svg" version="1.1">
    <polyline stroke="black" stroke-width="3" stroke-linecap="round" fill="transparent" stroke-linejoin="round" points="87 57 87 57 90 56 92 55 96 55 100 54 105 53 110 52 117 51 123 50 130 49 140 46 143 45 152 42 157 40 159 38 " />
        <polyline stroke="black" stroke-width="3" stroke-linecap="round" fill="transparent" stroke-linejoin="round" points="133 34 130 39 119 56 111 69 103 81 100 87 90 102 85 111 83 114 79 122 78 125 78 127 78 127 " />
        <polyline stroke="black" stroke-width="3" stroke-linecap="round" fill="transparent" stroke-linejoin="round" points="114 76 120 76 127 78 134 80 141 83 148 85 154 88 159 90 167 93 171 95 176 96 180 96 182 96 184 96 " />
        <polyline stroke="black" stroke-width="3" stroke-linecap="round" fill="transparent" stroke-linejoin="round" points="115 104 115 104 116 104 118 103 120 103 126 102 130 102 134 101 139 101 142 101 145 101 146 101 147 103 145 109 142 116 138 125 134 135 130 144 126 152 123 159 121 165 120 171 120 177 120 181 122 185 125 188 129 191 134 193 140 194 147 194 153 193 162 192 167 191 171 190 173 190 175 189 176 189 177 189 177 188 177 187 177 183 176 180 174 176 172 172 171 170 171 168 " />
        </svg>