<?xml version="1.0" standalone="no"?>
    <svg width="256" height="256" xmlns="http://www.w3.org/2000/svg" version="1.1">
    <polyline stroke="black" stroke-width="3" stroke-linecap="round" fill="transparent" stroke-linejoin="round" points="41.32891845703125 120.05192565917967 51.9237060546875 115.59095764160156 66.42181396484375 109.45713806152344 87.05377197265625 101.65045166015624 102.10955810546876 95.51661682128906 116.050048828125 87.70993041992188 116.050048828125 87.70993041992188 " />
        <polyline stroke="black" stroke-width="3" stroke-linecap="round" fill="transparent" stroke-linejoin="round" points="84.26568603515625 45.330780029296875 75.9013671875 83.24897766113281 63.63372802734375 133.992431640625 56.3846435546875 161.8734588623047 51.3660888671875 179.71731567382813 48.020355224609375 191.4273376464844 46.905120849609375 195.8883056640625 46.905120849609375 195.8883056640625 " />
        <polyline stroke="black" stroke-width="3" stroke-linecap="round" fill="transparent" stroke-linejoin="round" points="62.51849365234375 137.89578247070313 75.9013671875 143.47198486328125 87.05377197265625 149.04818725585938 98.76382446289063 155.73963928222656 109.35861206054688 160.75820922851563 118.838134765625 164.10394287109375 127.20245361328124 162.9886932373047 127.20245361328124 162.9886932373047 " />
        <polyline stroke="black" stroke-width="3" stroke-linecap="round" fill="transparent" stroke-linejoin="round" points="113.261962890625 101.65045166015624 129.43295288085938 94.95899963378906 141.14297485351563 91.0556640625 155.08349609375 86.59469604492188 169.58160400390625 82.13372802734375 182.9644775390625 74.88465881347656 182.9644775390625 74.88465881347656 " />
        <polyline stroke="black" stroke-width="3" stroke-linecap="round" fill="transparent" stroke-linejoin="round" points="167.35113525390625 34.735992431640625 161.77490234375 50.906982421875 155.64111328125 71.5389404296875 147.83441162109375 99.4199676513672 140.02774047851563 123.39764404296876 133.3363037109375 146.8177032470703 128.87530517578125 165.21917724609375 123.85675048828124 181.9477996826172 121.62625122070313 193.6578369140625 120.51101684570313 199.79165649414065 122.74151611328124 199.79165649414065 122.74151611328124 199.79165649414065 " />
        <polyline stroke="black" stroke-width="3" stroke-linecap="round" fill="transparent" stroke-linejoin="round" points="147.83441162109375 110.57237243652344 161.77490234375 121.16716003417967 170.1392822265625 130.08909606933594 178.5035400390625 140.6838836669922 186.86785888671875 152.39390563964844 193.559326171875 165.77679443359375 193.559326171875 165.77679443359375 " />
        </svg>