<?xml version="1.0" standalone="no"?>
    <svg width="256" height="256" xmlns="http://www.w3.org/2000/svg" version="1.1">
    <polyline stroke="black" stroke-width="3" stroke-linecap="round" fill="transparent" stroke-linejoin="round" points="140.88510131835938 29.450363159179688 130.74008178710938 47.43474578857422 101.68841552734376 88.93716430664063 86.4708251953125 108.3049774169922 65.7196044921875 132.28414916992188 59.263671875 138.74009704589844 50.04095458984375 146.57940673828125 48.196380615234375 147.0405731201172 48.196380615234375 147.0405731201172 " />
        <polyline stroke="black" stroke-width="3" stroke-linecap="round" fill="transparent" stroke-linejoin="round" points="156.5638427734375 43.28450775146485 180.54296875 54.35182189941406 186.9989013671875 58.50205993652344 192.99371337890625 62.652313232421875 198.52734375 66.80255126953125 204.98333740234375 72.79733276367188 204.98333740234375 72.79733276367188 " />
        <polyline stroke="black" stroke-width="3" stroke-linecap="round" fill="transparent" stroke-linejoin="round" points="181.9263916015625 140.58462524414063 167.631103515625 144.73486328125 160.71405029296875 147.0405731201172 152.874755859375 149.80740356445313 129.356689453125 157.646728515625 123.36187744140624 158.5690155029297 123.36187744140624 158.5690155029297 " />
        <polyline stroke="black" stroke-width="3" stroke-linecap="round" fill="transparent" stroke-linejoin="round" points="107.2220458984375 118.9111328125 105.838623046875 143.35147094726563 106.29977416992188 153.03533935546875 108.144287109375 163.18038940429688 110.9111328125 173.32542419433594 119.67279052734376 189.9263916015625 132.58465576171875 202.8382568359375 151.952392578125 212.9833068847656 169.93682861328125 218.5169677734375 185.1544189453125 220.8226318359375 194.8382568359375 220.8226318359375 194.8382568359375 220.8226318359375 " />
        </svg>