<?xml version="1.0" standalone="no"?>
    <svg width="256" height="256" xmlns="http://www.w3.org/2000/svg" version="1.1">
    <polyline stroke="black" stroke-width="3" stroke-linecap="round" fill="transparent" stroke-linejoin="round" points="119.02783203124999 45.85600280761719 112.32284545898438 59.312103271484375 105.61785888671876 72.76820373535156 97.86874389648438 86.67474365234375 80.24655151367188 110.03538513183594 69.97116088867188 123.0207977294922 54.38739013671875 141.17845153808594 45.44464111328125 155.96710205078125 42.42724609375 161.46206665039063 42.12554931640625 162.0115203857422 42.100067138671875 162.05795288085938 " />
        <polyline stroke="black" stroke-width="3" stroke-linecap="round" fill="transparent" stroke-linejoin="round" points="118.18612670898438 61.85997009277344 127.16317749023438 66.99491882324219 136.14022827148438 72.12986755371094 144.27670288085938 78.0472412109375 182.467041015625 97.28529357910156 192.7989501953125 103.26701354980467 200.91510009765625 111.2957000732422 203.233642578125 114.92135620117188 222.96160888671875 124.8006591796875 225.222412109375 125.395751953125 " />
        <polyline stroke="black" stroke-width="3" stroke-linecap="round" fill="transparent" stroke-linejoin="round" points="89.4516906738281 138.22523498535156 105.38922119140624 135.510498046875 121.32675170898438 132.79576110839844 131.804443359375 130.93414306640625 146.84725952148438 127.73162841796876 150.61956787109375 126.70355224609376 152.75164794921875 125.49797058105467 153.50897216796875 124.46139526367188 153.740234375 124.14494323730467 " />
        <polyline stroke="black" stroke-width="3" stroke-linecap="round" fill="transparent" stroke-linejoin="round" points="76.97805786132813 121.20973205566406 75.23101806640625 133.05148315429688 73.48397827148438 144.8932342529297 70.88693237304688 165.46585083007813 69.9578857421875 171.88023376464844 69.920654296875 184.35162353515625 70.7762451171875 190.36224365234375 74.496337890625 195.3592529296875 80.16525268554688 197.49636840820313 85.44915771484375 198.6231689453125 93.22238159179688 199.973876953125 114.95639038085938 201.3623046875 136.16732788085938 201.65716552734375 145.98931884765625 202.4835205078125 151.20947265625 203.97265625 148.841064453125 203.67788696289065 " />
        </svg>