<?xml version="1.0" standalone="no"?>
    <svg width="256" height="256" xmlns="http://www.w3.org/2000/svg" version="1.1">
    <polyline stroke="black" stroke-width="3" stroke-linecap="round" fill="transparent" stroke-linejoin="round" points="125 42 125 42 123 45 119 55 114 66 107 78 100 91 92 104 84 116 77 126 70 136 64 144 59 151 55 156 52 161 53 162 " />
        <polyline stroke="black" stroke-width="3" stroke-linecap="round" fill="transparent" stroke-linejoin="round" points="113 60 113 59 114 58 114 58 115 57 117 57 120 57 125 59 134 62 142 66 149 70 157 75 164 79 172 84 179 88 187 92 196 96 205 99 214 102 218 103 " />
        <polyline stroke="black" stroke-width="3" stroke-linecap="round" fill="transparent" stroke-linejoin="round" points="170 127 166 126 165 126 161 127 155 131 149 136 142 141 131 149 124 153 118 157 112 160 108 163 105 165 105 166 " />
        <polyline stroke="black" stroke-width="3" stroke-linecap="round" fill="transparent" stroke-linejoin="round" points="112 123 111 124 109 128 106 135 103 143 100 156 99 166 99 176 99 181 103 194 106 201 110 207 115 211 121 214 128 214 137 213 147 211 153 210 159 208 " />
        </svg>