<?xml version="1.0" standalone="no"?>
    <svg width="256" height="256" xmlns="http://www.w3.org/2000/svg" version="1.1">
    <polyline stroke="black" stroke-width="3" stroke-linecap="round" fill="transparent" stroke-linejoin="round" points="123.272705078125 41.51429748535156 108.75213623046876 63.6251220703125 104.46200561523438 69.2353515625 81.36111450195313 97.286376953125 76.740966796875 102.56657409667967 64.20046997070313 118.73719787597656 54.96014404296875 129.6276092529297 50.339935302734375 133.58773803710938 50.339935302734375 133.58773803710938 50.339935302734375 133.58773803710938 " />
        <polyline stroke="black" stroke-width="3" stroke-linecap="round" fill="transparent" stroke-linejoin="round" points="117.99252319335938 56.694854736328125 136.80319213867188 60.985015869140625 142.4134521484375 63.29512023925781 172.11456298828125 76.16560363769531 176.73468017578125 78.80569458007813 188.28515625 86.72598266601563 196.86541748046875 92.33619689941406 196.86541748046875 92.33619689941406 196.86541748046875 92.33619689941406 " />
        <polyline stroke="black" stroke-width="3" stroke-linecap="round" fill="transparent" stroke-linejoin="round" points="185.97509765625 110.1568603515625 169.804443359375 121.37728881835938 164.19427490234375 125.33743286132813 128.55288696289063 146.7882537841797 121.62261962890624 150.4183807373047 103.14193725585938 160.978759765625 89.61141967773438 166.9189910888672 89.61141967773438 166.9189910888672 89.61141967773438 166.9189910888672 " />
        <polyline stroke="black" stroke-width="3" stroke-linecap="round" fill="transparent" stroke-linejoin="round" points="118.32254028320313 114.11701965332033 117.6624755859375 123.6873779296875 116.67242431640624 130.28762817382813 108.75213623046876 165.928955078125 107.43209838867188 173.18923950195313 107.10211181640624 194.31005859375 110.73220825195313 206.8504943847656 118.65252685546876 214.77078247070313 129.212890625 218.40093994140625 142.0833740234375 219.0609436035156 157.26397705078125 212.79071044921875 168.484375 205.200439453125 168.484375 205.200439453125 168.484375 205.200439453125 " />
        </svg>