<?xml version="1.0" standalone="no"?>
    <svg width="256" height="256" xmlns="http://www.w3.org/2000/svg" version="1.1">
    <polyline stroke="black" stroke-width="3" stroke-linecap="round" fill="transparent" stroke-linejoin="round" points="145.73162841796875 23.4959716796875 130.28973388671875 41.37605285644531 114.84783935546876 59.256134033203125 98.18682861328124 78.35533142089844 83.5576171875 95.42269897460938 73.39852905273438 105.98820495605467 66.89666748046875 111.67733764648438 65.27117919921875 112.89642333984376 64.05209350585938 113.3027801513672 64.05209350585938 113.3027801513672 " />
        <polyline stroke="black" stroke-width="3" stroke-linecap="round" fill="transparent" stroke-linejoin="round" points="120.53692626953125 64.13253784179688 132.321533203125 62.91343688964844 144.10614013671875 61.6943359375 168.08172607421875 60.88160705566406 192.46368408203125 62.91343688964844 209.93743896484375 65.35162353515625 209.93743896484375 65.35162353515625 " />
        <polyline stroke="black" stroke-width="3" stroke-linecap="round" fill="transparent" stroke-linejoin="round" points="174.5836181640625 123.05555725097656 168.48809814453125 128.74468994140625 162.392578125 134.43382263183594 155.484375 140.529296875 139.6361083984375 152.31390380859375 131.9151611328125 156.78392028808594 115.66058349609376 162.47305297851563 104.28231811523438 162.06668090820313 104.28231811523438 162.06668090820313 " />
        <polyline stroke="black" stroke-width="3" stroke-linecap="round" fill="transparent" stroke-linejoin="round" points="96.56140136718747 129.1510772705078 98.99957275390624 138.90383911132813 101.437744140625 148.65660095214844 112.81600952148438 175.47674560546875 123.38153076171876 187.667724609375 137.19793701171875 196.6077880859375 153.04620361328125 201.48416137695313 163.6116943359375 201.48416137695313 163.6116943359375 201.48416137695313 " />
        </svg>