<?xml version="1.0" standalone="no"?>
    <svg width="256" height="256" xmlns="http://www.w3.org/2000/svg" version="1.1">
    <polyline stroke="black" stroke-width="3" stroke-linecap="round" fill="transparent" stroke-linejoin="round" points="79.5936279296875 67.81256103515625 84.03851318359375 75.08604431152344 88.4833984375 82.35952758789063 91.31198120117188 85.59219360351563 101.4140625 91.24935913085938 112.32427978515624 91.6534423828125 112.32427978515624 91.6534423828125 " />
        <polyline stroke="black" stroke-width="3" stroke-linecap="round" fill="transparent" stroke-linejoin="round" points="166.47134399414063 52.457427978515625 156.3692626953125 68.21664428710938 146.26718139648438 83.97586059570313 134.952880859375 98.92692565917967 123.2344970703125 113.8779754638672 112.32427978515624 126.00045776367188 112.32427978515624 126.00045776367188 " />
        <polyline stroke="black" stroke-width="3" stroke-linecap="round" fill="transparent" stroke-linejoin="round" points="82.82626342773438 149.03314208984375 89.29159545898438 146.20457458496094 95.75692749023438 143.37600708007813 109.89974975585938 137.71884155273438 118.385498046875 134.8902587890625 136.16513061523438 130.041259765625 151.1162109375 126.80862426757813 161.21826171875 126.40452575683594 166.0672607421875 127.61679077148438 168.49176025390625 131.25352478027344 166.0672607421875 145.80050659179688 154.348876953125 163.98419189453125 139.39779663085938 178.5311737060547 139.39779663085938 178.5311737060547 " />
        <polyline stroke="black" stroke-width="3" stroke-linecap="round" fill="transparent" stroke-linejoin="round" points="88.4833984375 188.22912597656256 94.94873046875 187.4209899902344 101.4140625 186.61285400390625 107.87939453125 186.208740234375 114.748779296875 186.61285400390625 130.50799560546875 189.03732299804688 149.49984741210938 195.50265502929688 169.2999267578125 205.20062255859375 176.57342529296875 211.66595458984375 176.57342529296875 211.66595458984375 " />
        </svg>