<?xml version="1.0" standalone="no"?>
    <svg width="256" height="256" xmlns="http://www.w3.org/2000/svg" version="1.1">
    <polyline stroke="black" stroke-width="3" stroke-linecap="round" fill="transparent" stroke-linejoin="round" points="74.60003662109375 72.80000305175781 88.466796875 88.80000305175781 90.60003662109376 92.00001525878906 93.80010986328124 94.1333465576172 102.3333740234375 96.26667785644533 102.3333740234375 96.26667785644533 " />
        <polyline stroke="black" stroke-width="3" stroke-linecap="round" fill="transparent" stroke-linejoin="round" points="141.8001708984375 55.73333740234375 126.86669921875 86.66667175292969 121.53338623046876 95.20002746582033 116.2000732421875 103.73333740234376 114.06671142578124 106.933349609375 114.06671142578124 106.933349609375 " />
        <polyline stroke="black" stroke-width="3" stroke-linecap="round" fill="transparent" stroke-linejoin="round" points="63.93341064453125 129.33334350585938 86.3333740234375 117.60000610351563 116.2000732421875 106.933349609375 141.8001708984375 100.53335571289063 158.86669921875 98.40000915527344 167.4000244140625 97.33334350585938 168.466796875 97.33334350585938 168.466796875 98.40000915527344 167.4000244140625 101.60000610351563 152.466796875 129.33334350585938 142.86669921875 150.6666717529297 137.533447265625 162.40003967285156 135.4000244140625 167.73338317871094 132.2000732421875 169.86668395996094 126.86669921875 169.86668395996094 126.86669921875 169.86668395996094 " />
        <polyline stroke="black" stroke-width="3" stroke-linecap="round" fill="transparent" stroke-linejoin="round" points="100.2000732421875 163.4666748046875 117.2667236328125 179.4666748046875 124.7333984375 184.80001831054688 141.8001708984375 193.33334350585935 148.2000732421875 196.53335571289065 150.3333740234375 198.66668701171875 150.3333740234375 198.66668701171875 " />
        </svg>