<?xml version="1.0" standalone="no"?>
    <svg width="256" height="256" xmlns="http://www.w3.org/2000/svg" version="1.1">
    <polyline stroke="black" stroke-width="3" stroke-linecap="round" fill="transparent" stroke-linejoin="round" points="77.43572998046875 96.7446746826172 96.73260498046876 88.1226806640625 106.17572021484376 84.42755126953125 125.06195068359376 78.67955017089844 142.305908203125 74.16326904296875 155.03363037109375 70.87870788574219 163.24505615234375 67.59414672851563 165.70849609375 66.3624267578125 165.70849609375 66.3624267578125 " />
        <polyline stroke="black" stroke-width="3" stroke-linecap="round" fill="transparent" stroke-linejoin="round" points="112.74484252929688 42.13873291015625 109.04974365234376 55.68757629394531 104.53341674804688 74.16326904296875 94.26913452148438 119.32609558105467 78.25689697265625 182.1434326171875 72.09832763671875 208.0093994140625 67.58203125 222.37939453125 67.58203125 222.37939453125 " />
        <polyline stroke="black" stroke-width="3" stroke-linecap="round" fill="transparent" stroke-linejoin="round" points="132.04168701171875 132.05377197265625 141.48480224609375 139.44406127929688 169.4036865234375 163.25717163085938 185.00531005859375 177.2165985107422 196.5013427734375 189.53372192382813 201.42816162109375 194.87115478515625 201.42816162109375 194.87115478515625 " />
        <polyline stroke="black" stroke-width="3" stroke-linecap="round" fill="transparent" stroke-linejoin="round" points="175.9727783203125 91.8178253173828 172.688232421875 98.38697814941406 168.9930419921875 104.9561004638672 160.78167724609375 118.09439086914063 146.41162109375 135.33836364746094 139.43197631835938 141.49691772460938 139.43197631835938 141.49691772460938 " />
        <polyline stroke="black" stroke-width="3" stroke-linecap="round" fill="transparent" stroke-linejoin="round" points="159.5499267578125 99.61868286132813 173.0987548828125 106.59837341308594 187.46875 116.04150390625 196.911865234375 123.43179321289063 196.911865234375 123.43179321289063 " />
        </svg>