<?xml version="1.0" standalone="no"?>
    <svg width="256" height="256" xmlns="http://www.w3.org/2000/svg" version="1.1">
    <polyline stroke="black" stroke-width="3" stroke-linecap="round" fill="transparent" stroke-linejoin="round" points="93.6629638671875 87.20854187011719 111.03851318359376 80.339111328125 122.75692749023438 75.89421081542969 137.70794677734375 70.237060546875 142.96102905273438 67.40847778320313 142.96102905273438 67.40847778320313 " />
        <polyline stroke="black" stroke-width="3" stroke-linecap="round" fill="transparent" stroke-linejoin="round" points="90.02621459960938 118.3228759765625 78.30780029296875 151.4576416015625 68.60983276367188 182.5720062255859 61.74041748046875 206.41287231445313 57.6995849609375 220.5557861328125 56.48736572265625 225.00067138671875 56.48736572265625 225.00067138671875 " />
        <polyline stroke="black" stroke-width="3" stroke-linecap="round" fill="transparent" stroke-linejoin="round" points="107.40179443359376 140.95150756835938 121.14056396484376 151.4576416015625 138.51611328125 165.1964569091797 157.10394287109375 180.1475067138672 174.07537841796875 194.69448852539065 188.21826171875 209.241455078125 196.7039794921875 218.13128662109375 196.7039794921875 218.13128662109375 " />
        <polyline stroke="black" stroke-width="3" stroke-linecap="round" fill="transparent" stroke-linejoin="round" points="181.348876953125 93.269775390625 175.28759765625 102.96775817871094 168.822265625 113.8779754638672 156.2957763671875 134.08209228515625 143.7691650390625 153.073974609375 138.11203002929688 160.75155639648438 138.11203002929688 160.75155639648438 " />
        <polyline stroke="black" stroke-width="3" stroke-linecap="round" fill="transparent" stroke-linejoin="round" points="138.11203002929688 119.53512573242188 146.59774780273438 121.95962524414063 155.487548828125 125.19229125976563 173.67132568359375 133.6780242919922 192.25909423828125 146.20457458496094 192.25909423828125 146.20457458496094 " />
        </svg>