<?xml version="1.0" standalone="no"?>
    <svg width="256" height="256" xmlns="http://www.w3.org/2000/svg" version="1.1">
    <polyline stroke="black" stroke-width="3" stroke-linecap="round" fill="transparent" stroke-linejoin="round" points="71.5438232421875 102.1105499267578 85.660888671875 95.44416809082033 98.99368286132813 87.99348449707031 98.99368286132813 87.99348449707031 " />
        <polyline stroke="black" stroke-width="3" stroke-linecap="round" fill="transparent" stroke-linejoin="round" points="78.99444580078125 65.64144897460938 76.64166259765625 73.09213256835938 69.9752197265625 95.05201721191406 60.95599365234375 124.0704345703125 53.113189697265625 151.52029418945313 46.44677734375 173.87232971191406 40.17254638671875 190.34225463867188 34.68255615234375 202.10647583007813 31.937591552734375 205.6357421875 31.937591552734375 205.6357421875 " />
        <polyline stroke="black" stroke-width="3" stroke-linecap="round" fill="transparent" stroke-linejoin="round" points="102.52294921875 151.91246032714844 133.89422607421875 167.99021911621094 168.402587890625 182.89157104492188 196.24462890625 193.08721923828125 217.42022705078125 198.9693298339844 229.96875 198.57717895507813 229.96875 198.57717895507813 " />
        <polyline stroke="black" stroke-width="3" stroke-linecap="round" fill="transparent" stroke-linejoin="round" points="149.18771362304688 79.36639404296875 139.77633666992188 106.42410278320313 132.71780395507813 132.69752502441406 126.44351196289063 154.2653045654297 121.73782348632813 170.3430633544922 119.77713012695313 175.0487518310547 119.77713012695313 175.0487518310547 " />
        <polyline stroke="black" stroke-width="3" stroke-linecap="round" fill="transparent" stroke-linejoin="round" points="134.286376953125 107.20835876464844 146.83486938476563 118.58047485351563 161.7362060546875 132.69752502441406 173.50042724609375 147.59889221191406 176.24542236328125 151.52029418945313 176.24542236328125 151.52029418945313 " />
        </svg>