<?xml version="1.0" standalone="no"?>
    <svg width="256" height="256" xmlns="http://www.w3.org/2000/svg" version="1.1">
    <polyline stroke="black" stroke-width="3" stroke-linecap="round" fill="transparent" stroke-linejoin="round" points="57.65643310546875 114.83984375 70.7930908203125 111.5556640625 94.32965087890624 104.43995666503906 120.0556640625 96.2295379638672 143.04486083984375 89.66119384765625 159.4656982421875 85.82966613769531 175.3392333984375 82.54548645019531 186.28643798828125 79.80868530273438 191.21270751953125 75.42977905273438 191.21270751953125 75.42977905273438 " />
        <polyline stroke="black" stroke-width="3" stroke-linecap="round" fill="transparent" stroke-linejoin="round" points="118.41357421875 60.65101623535156 113.4873046875 79.26132202148438 110.75051879882813 96.7769012451172 110.20315551757813 109.91357421875 111.84524536132813 119.21873474121094 116.771484375 123.59762573242188 122.79248046875 121.40818786621094 122.79248046875 121.40818786621094 " />
        <polyline stroke="black" stroke-width="3" stroke-linecap="round" fill="transparent" stroke-linejoin="round" points="170.9603271484375 57.91419982910156 168.2235107421875 78.71395874023438 162.2025146484375 96.2295379638672 152.89739990234375 112.650390625 152.89739990234375 112.650390625 " />
        <polyline stroke="black" stroke-width="3" stroke-linecap="round" fill="transparent" stroke-linejoin="round" points="89.40338134765625 155.89198303222656 99.25592041015624 146.58682250976563 110.20315551757813 138.92376708984375 123.88720703125 129.6186065673828 141.95013427734375 120.31346130371094 157.8236083984375 115.38720703125 169.8656005859375 115.38720703125 176.9813232421875 118.67137145996094 179.7181396484375 125.78707885742188 176.9813232421875 138.37640380859375 166.5814208984375 150.96571350097656 150.16058349609375 163.55503845214844 129.36083984375 173.40756225585938 116.22412109375 177.7864532470703 111.29788208007813 179.4285430908203 109.65579223632813 179.4285430908203 115.12939453125 177.7864532470703 131.00289916992188 170.67074584960938 146.32904052734375 162.4603271484375 157.2762451171875 155.89198303222656 163.8446044921875 152.60780334472656 167.6761474609375 150.41836547851563 168.7708740234375 150.41836547851563 162.2025146484375 151.51307678222656 151.25531005859375 155.89198303222656 135.92916870117188 165.74449157714844 129.908203125 171.21810913085938 123.33984375 181.07061767578125 117.31884765625 194.20730590820313 114.58203125 206.249267578125 114.58203125 213.36495971679688 116.22412109375 219.38595581054688 121.69775390625 223.76483154296875 137.57122802734375 228.69110107421875 156.7288818359375 227.59637451171875 173.6971435546875 222.67013549804688 185.73907470703125 215.55441284179688 195.04425048828125 205.701904296875 204.896728515625 187.63897705078125 207.633544921875 167.93394470214844 201.612548828125 142.2079315185547 201.612548828125 142.2079315185547 " />
        </svg>