<?xml version="1.0" standalone="no"?>
    <svg width="256" height="256" xmlns="http://www.w3.org/2000/svg" version="1.1">
    <polyline stroke="black" stroke-width="3" stroke-linecap="round" fill="transparent" stroke-linejoin="round" points="74.55557250976563 85.77778625488281 80.77777099609375 104.44444274902344 86.11114501953125 109.7777862548828 91.4444580078125 114.22224426269533 97.66665649414063 114.22224426269533 97.66665649414063 114.22224426269533 " />
        <polyline stroke="black" stroke-width="3" stroke-linecap="round" fill="transparent" stroke-linejoin="round" points="101.22222900390624 78.66667175292969 116.33334350585938 95.55555725097656 123.4444580078125 95.55555725097656 123.4444580078125 95.55555725097656 " />
        <polyline stroke="black" stroke-width="3" stroke-linecap="round" fill="transparent" stroke-linejoin="round" points="146.55557250976563 58.22222900390625 138.55557250976563 76.88888549804688 126.11114501953124 101.7777862548828 109.22222900390624 131.11111450195313 89.66665649414063 160.44447326660156 71.88888549804688 186.22222900390625 55.888885498046875 209.3333740234375 50.555572509765625 212.88888549804688 50.555572509765625 212.88888549804688 " />
        <polyline stroke="black" stroke-width="3" stroke-linecap="round" fill="transparent" stroke-linejoin="round" points="81.66668701171875 157.7777862548828 80.77777099609375 179.11111450195313 80.77777099609375 188 82.55557250976563 193.33334350585935 85.22222900390625 196.88888549804688 91.4444580078125 196.88888549804688 106.55557250976563 188 118.11111450195313 178.2222442626953 126.11114501953124 171.11111450195313 134.11111450195313 165.7777862548828 140.33334350585938 162.22222900390625 140.33334350585938 161.3333282470703 140.33334350585938 160.44447326660156 140.33334350585938 160.44447326660156 " />
        <polyline stroke="black" stroke-width="3" stroke-linecap="round" fill="transparent" stroke-linejoin="round" points="131.4444580078125 131.11111450195313 152.77780151367188 158.6666717529297 171.4444580078125 174.6666717529297 188.33334350585935 188.88888549804688 202.5555725097656 202.22222900390625 209.66665649414065 210.22222900390625 209.66665649414065 210.22222900390625 " />
        </svg>