<?xml version="1.0" standalone="no"?>
    <svg width="256" height="256" xmlns="http://www.w3.org/2000/svg" version="1.1">
    <polyline stroke="black" stroke-width="3" stroke-linecap="round" fill="transparent" stroke-linejoin="round" points="70.66668701171875 70.00001525878906 72.4444580078125 86.88888549804688 74.22222900390625 89.55555725097656 80.4444580078125 94 86.666748046875 96.66667175292967 90.22222900390624 96.66667175292967 90.22222900390624 96.66667175292967 " />
        <polyline stroke="black" stroke-width="3" stroke-linecap="round" fill="transparent" stroke-linejoin="round" points="101.77777099609376 63.77778625488281 111.5555419921875 81.55555725097656 119.5555419921875 85.11111450195313 126.666748046875 86 126.666748046875 86 " />
        <polyline stroke="black" stroke-width="3" stroke-linecap="round" fill="transparent" stroke-linejoin="round" points="145.33331298828125 54.888885498046875 130.22222900390625 78.88890075683594 116 98.44444274902344 100.00006103515624 120.66667175292967 76 152.6667022705078 63.5555419921875 167.7777862548828 59.11114501953125 175.7777862548828 59.11114501953125 175.7777862548828 " />
        <polyline stroke="black" stroke-width="3" stroke-linecap="round" fill="transparent" stroke-linejoin="round" points="83.11114501953125 154.44444274902344 84 179.33335876464844 84.888916015625 185.5555725097656 85.77777099609375 194.4444580078125 87.5555419921875 197.11114501953125 91.11114501953124 197.11114501953125 97.33331298828124 192.66668701171875 105.33331298828124 186.4444580078125 121.33331298828124 178.44444274902344 131.11114501953125 174.888916015625 137.33331298828125 171.3333282470703 140.00006103515625 168.6666717529297 140.00006103515625 168.6666717529297 " />
        <polyline stroke="black" stroke-width="3" stroke-linecap="round" fill="transparent" stroke-linejoin="round" points="140.00006103515625 146.4444580078125 150.66668701171875 169.55555725097656 159.5555419921875 177.55555725097656 177.33331298828125 185.5555725097656 181.77777099609375 187.33334350585935 181.77777099609375 187.33334350585935 " />
        </svg>