<?xml version="1.0" standalone="no"?>
    <svg width="256" height="256" xmlns="http://www.w3.org/2000/svg" version="1.1">
    <polyline stroke="black" stroke-width="3" stroke-linecap="round" fill="transparent" stroke-linejoin="round" points="75.857421875 39.176239013671875 75.857421875 48.99253845214844 75.280029296875 61.118560791015625 74.70257568359375 77.86402893066406 73.5477294921875 92.29977416992188 72.39288330078125 100.9612274169922 70.66058349609375 105.00323486328124 68.92828369140625 105.00323486328124 67.7734375 101.53865051269533 67.7734375 95.18692016601563 70.0831298828125 87.1029052734375 77.01229858398438 76.13174438476563 87.98345947265625 64.58314514160156 106.46124267578124 51.87969207763672 132.445556640625 40.90852355957031 160.16217041015625 35.13422393798828 180.37225341796875 35.13422393798828 194.8079833984375 38.59880828857422 201.15966796875 42.063385009765625 205.20172119140625 50.724830627441406 205.20172119140625 69.20257568359375 193.653076171875 89.99005126953125 173.44305419921875 112.5098114013672 173.44305419921875 112.5098114013672 " />
        <polyline stroke="black" stroke-width="3" stroke-linecap="round" fill="transparent" stroke-linejoin="round" points="41.211669921875 152.92990112304688 53.91510009765625 146.5781707763672 80.47686767578125 137.33929443359375 112.23553466796876 129.25527954101563 140.52957153320313 121.74868774414063 164.2042236328125 115.97439575195313 180.37225341796875 111.35494995117188 192.498291015625 107.890380859375 197.69512939453125 105.00323486328124 197.69512939453125 105.00323486328124 " />
        <polyline stroke="black" stroke-width="3" stroke-linecap="round" fill="transparent" stroke-linejoin="round" points="84.51889038085938 111.93238830566406 86.25115966796875 121.74868774414063 89.1383056640625 136.18443298339844 94.335205078125 162.74620056152344 97.79977416992188 178.91424560546875 100.1094970703125 192.7725524902344 101.26434326171876 199.70172119140625 101.26434326171876 199.70172119140625 " />
        <polyline stroke="black" stroke-width="3" stroke-linecap="round" fill="transparent" stroke-linejoin="round" points="81.63174438476563 124.63583374023438 90.87060546875 116.55181884765624 103.57406616210938 107.3129425048828 120.89697265625 98.65150451660156 141.10699462890625 92.877197265625 156.12017822265625 91.72235107421876 168.2462158203125 94.6094970703125 175.17535400390625 100.3837890625 181.527099609375 112.5098114013672 183.2593994140625 128.6778564453125 179.7947998046875 146.00074768066406 172.86566162109375 159.8590545654297 166.513916015625 166.7882080078125 166.513916015625 166.7882080078125 " />
        <polyline stroke="black" stroke-width="3" stroke-linecap="round" fill="transparent" stroke-linejoin="round" points="128.98098754882813 111.93238830566406 131.86813354492188 125.79069519042967 131.86813354492188 139.0715789794922 129.55841064453125 154.6621856689453 125.51641845703124 170.83023071289063 119.1646728515625 184.11111450195313 112.23553466796876 193.3499755859375 106.46124267578124 197.3919982910156 101.841796875 198.54684448242188 100.1094970703125 198.54684448242188 102.99664306640624 195.65969848632813 109.92578125 191.61770629882813 128.98098754882813 184.68853759765625 151.500732421875 179.49166870117188 171.7108154296875 176.02708435058594 184.99169921875 174.2947998046875 195.96282958984375 176.02708435058594 195.96282958984375 176.02708435058594 " />
        </svg>