<?xml version="1.0" standalone="no"?>
    <svg width="256" height="256" xmlns="http://www.w3.org/2000/svg" version="1.1">
    <polyline stroke="black" stroke-width="3" stroke-linecap="round" fill="transparent" stroke-linejoin="round" points="71.71441650390625 70.030517578125 68.02532958984375 86.63148498535156 66.64190673828125 94.00968933105467 65.25848388671875 100.9267578125 63.875091552734375 107.3826904296875 62.491668701171875 112.91635131835938 60.6470947265625 120.75570678710938 60.18597412109375 123.06138610839844 58.80255126953125 125.82821655273438 58.80255126953125 125.3670654296875 59.263671875 123.98367309570313 64.79733276367188 116.14431762695313 76.78695678710938 102.31016540527344 93.38790893554688 87.09262084960938 122.43963623046876 68.6470947265625 132.58465576171875 64.95799255371094 150.10791015625 61.73002624511719 172.2425537109375 65.41912841796875 176.8538818359375 68.18595886230469 183.309814453125 75.10302734375 185.615478515625 89.3983154296875 165.325439453125 122.60025024414063 165.325439453125 122.60025024414063 " />
        <polyline stroke="black" stroke-width="3" stroke-linecap="round" fill="transparent" stroke-linejoin="round" points="32.05657958984375 184.8538818359375 55.5745849609375 176.09225463867188 69.40869140625 171.01974487304688 84.16513061523438 165.94720458984375 127.05096435546876 154.87991333007813 164.4031982421875 148.4239959716797 181.004150390625 145.6571502685547 187.4600830078125 143.81259155273438 187.4600830078125 143.81259155273438 " />
        <polyline stroke="black" stroke-width="3" stroke-linecap="round" fill="transparent" stroke-linejoin="round" points="100.30499267578124 119.37229919433594 96.15472412109376 135.51211547851563 95.232421875 144.27374267578125 94.31015014648438 153.9576416015625 92.46563720703124 172.40313720703125 91.5433349609375 180.70364379882813 89.69882202148438 191.77093505859375 88.77655029296875 194.9989013671875 86.93197631835938 198.68801879882813 85.08740234375 199.149169921875 82.320556640625 195.4600524902344 80.014892578125 182.0870361328125 80.47604370117188 171.4808807373047 82.78173828125 163.18038940429688 86.93197631835938 156.2633056640625 93.84906005859376 149.34625244140625 105.838623046875 141.96804809570313 118.28939819335938 135.9732666015625 131.20123291015625 132.7452850341797 142.26852416992188 132.28414916992188 152.41357421875 137.35667419433594 155.180419921875 141.04576110839844 159.3306884765625 152.57421875 157.94720458984375 171.9420166015625 154.2581787109375 178.85906982421875 149.646728515625 184.8538818359375 149.646728515625 184.8538818359375 " />
        <polyline stroke="black" stroke-width="3" stroke-linecap="round" fill="transparent" stroke-linejoin="round" points="121.517333984375 143.81259155273438 117.3670654296875 168.71405029296875 111.372314453125 184.39276123046875 104.91635131835938 195.4600524902344 99.3826904296875 202.37713623046875 95.693603515625 205.1439514160156 94.31015014648438 205.6051025390625 93.38790893554688 205.1439514160156 98.92156982421876 200.5325927734375 113.216796875 194.9989013671875 130.74008178710938 191.309814453125 148.72445678710938 191.77093505859375 148.72445678710938 191.77093505859375 " />
        </svg>