<?xml version="1.0" standalone="no"?>
    <svg width="256" height="256" xmlns="http://www.w3.org/2000/svg" version="1.1">
    <polyline stroke="black" stroke-width="3" stroke-linecap="round" fill="transparent" stroke-linejoin="round" points="58.48870849609375 109.26319885253906 71.31906127929688 106.5902099609375 82.01101684570313 103.91722106933594 95.91055297851563 99.1058349609375 112.48309326171876 94.29446411132813 130.659423828125 90.01768493652344 147.76654052734375 86.27549743652344 160.062255859375 84.67170715332031 169.15045166015625 84.13710021972656 174.49639892578125 84.13710021972656 178.23858642578125 84.13710021972656 180.91156005859375 85.74090576171875 181.98077392578125 90.01768493652344 180.91156005859375 98.5712432861328 176.634765625 114.6091766357422 169.68505859375 131.18170166015625 156.85467529296875 156.3077850341797 142.4205322265625 178.22628784179688 135.47076416015625 184.64144897460935 126.38262939453124 189.9874267578125 118.89825439453124 189.9874267578125 118.89825439453124 189.9874267578125 " />
        <polyline stroke="black" stroke-width="3" stroke-linecap="round" fill="transparent" stroke-linejoin="round" points="84.1494140625 147.7542266845703 96.979736328125 141.33905029296875 107.1370849609375 138.6660614013672 118.89825439453124 137.5968780517578 129.05560302734375 137.06227111816406 136.53997802734375 136.52767944335938 141.35134887695313 136.52767944335938 141.35134887695313 139.20066833496094 141.35134887695313 139.20066833496094 " />
        <polyline stroke="black" stroke-width="3" stroke-linecap="round" fill="transparent" stroke-linejoin="round" points="64.36929321289063 200.14480590820313 77.7342529296875 196.93719482421875 87.8916015625 195.3334045410156 100.18731689453124 193.19503784179688 112.48309326171876 191.056640625 123.70965576171876 187.84906005859375 132.26318359375 180.36468505859375 132.26318359375 180.36468505859375 " />
        <polyline stroke="black" stroke-width="3" stroke-linecap="round" fill="transparent" stroke-linejoin="round" points="99.1181640625 56.33802795410156 95.3759765625 75.58354187011719 83.0802001953125 111.93618774414063 66.5076904296875 155.23858642578125 51.5389404296875 184.64144897460935 40.312408447265625 204.9561767578125 33.897216796875 219.9248962402344 30.155029296875 229.0130615234375 28.01666259765625 236.4974365234375 28.01666259765625 236.4974365234375 " />
        </svg>