<?xml version="1.0" standalone="no"?>
    <svg width="256" height="256" xmlns="http://www.w3.org/2000/svg" version="1.1">
    <polyline stroke="black" stroke-width="3" stroke-linecap="round" fill="transparent" stroke-linejoin="round" points="71.80401611328124 120.21652221679688 81.2176513671875 112.88204956054688 90.63128662109376 105.54757690429688 102.44332885742188 97.0759735107422 131.0546875 82.54510498046875 142.53515625 79.70181274414063 167.09478759765625 81.586181640625 171.640380859375 85.31556701660156 174.58203125 90.58294677734376 177.8511962890625 105.0189208984375 179.62908935546875 129.0482177734375 177.822265625 142.23423767089844 170.0867919921875 170.65887451171875 165.825439453125 180.6379241943359 158.01580810546875 195.2647705078125 149.25286865234375 200.996337890625 124.41485595703124 207.59771728515625 120.64047241210938 205.74020385742188 " />
        <polyline stroke="black" stroke-width="3" stroke-linecap="round" fill="transparent" stroke-linejoin="round" points="116.13140869140624 140.7824249267578 121.614013671875 138.85128784179688 127.09661865234376 136.92015075683594 132.62252807617188 134.98406982421875 151.9232177734375 131.57542419433594 160.51409912109375 132.18992614746094 160.70562744140625 132.2694091796875 160.72161865234375 132.27606201171875 160.0628662109375 135.48141479492188 143.9677734375 151.30276489257813 137.36788940429688 157.1998291015625 119.15869140625 169.66709899902344 116.956787109375 171.7102508544922 117.76922607421876 172.62924194335938 125.128173828125 173.41299438476563 132.47103881835938 175.2549285888672 153.81201171875 178.15354919433594 158.2506103515625 178.60382080078125 158.69451904296875 178.6488494873047 " />
        <polyline stroke="black" stroke-width="3" stroke-linecap="round" fill="transparent" stroke-linejoin="round" points="117.02786254882815 24.795700073242188 115.73162841796876 42.92314910888672 114.43539428710938 61.05059814453125 111.6015625 83.05487060546875 102.22763061523438 131.56460571289063 85.52926635742188 195.67483520507813 73.291259765625 214.6376037597656 67.57958984375 217.8927001953125 " />
        </svg>