<?xml version="1.0" standalone="no"?>
    <svg width="256" height="256" xmlns="http://www.w3.org/2000/svg" version="1.1">
    <polyline stroke="black" stroke-width="3" stroke-linecap="round" fill="transparent" stroke-linejoin="round" points="119 45 124 70 120 96 110 127 99 160 87 194 76 218 66 234 59 242 59 242 " />
        <polyline stroke="black" stroke-width="3" stroke-linecap="round" fill="transparent" stroke-linejoin="round" points="87 100 107 98 125 94 146 89 164 86 176 85 181 85 182 87 182 93 176 108 169 126 162 140 155 153 148 164 145 167 145 167 " />
        <polyline stroke="black" stroke-width="3" stroke-linecap="round" fill="transparent" stroke-linejoin="round" points="106 122 125 124 138 124 152 126 159 126 159 126 " />
        <polyline stroke="black" stroke-width="3" stroke-linecap="round" fill="transparent" stroke-linejoin="round" points="105 174 118 171 134 171 157 170 169 170 169 170 " />
        </svg>