<?xml version="1.0" standalone="no"?>
    <svg width="256" height="256" xmlns="http://www.w3.org/2000/svg" version="1.1">
    <polyline stroke="black" stroke-width="3" stroke-linecap="round" fill="transparent" stroke-linejoin="round" points="35.0953369140625 100.45230102539063 45.50128173828125 95.55540466308594 55.29510498046875 90.04638671875 66.92523193359375 82.70101928710938 77.94329833984375 75.35565185546875 85.9007568359375 69.84663391113281 90.79766845703124 67.39817810058594 91.4097900390625 66.17396545410156 90.185546875 68.01029968261719 85.9007568359375 72.90721130371094 82.22808837890625 79.02833557128906 79.16751098632813 85.76158142089844 74.27059936523438 96.16751098632813 68.14947509765625 112.694580078125 59.57989501953125 135.9548797607422 52.234527587890625 162.2757568359375 46.72552490234375 178.19070434570313 44.88916015625 186.14816284179688 44.88916015625 191.65719604492188 45.50128173828125 191.65719604492188 49.1739501953125 187.37240600585935 58.9677734375 170.2332305908203 67.537353515625 155.54251098632813 72.43426513671875 148.1971435546875 79.16751098632813 140.85179138183594 86.51287841796875 135.9548797607422 93.24612426757813 133.5064239501953 99.36724853515624 137.17910766601563 106.71261596679688 161.66363525390625 102.42782592773438 192.26931762695313 97.53091430664063 202.0631103515625 90.79766845703124 207.5721435546875 82.8402099609375 209.40847778320313 82.8402099609375 209.40847778320313 " />
        <polyline stroke="black" stroke-width="3" stroke-linecap="round" fill="transparent" stroke-linejoin="round" points="147.72421264648438 49.03478240966797 148.3363037109375 63.11338806152344 145.2757568359375 71.6829833984375 136.7061767578125 82.08891296386719 127.52447509765624 90.6584930419922 127.52447509765624 90.6584930419922 " />
        <polyline stroke="black" stroke-width="3" stroke-linecap="round" fill="transparent" stroke-linejoin="round" points="113.44586181640624 95.55540466308594 127.52447509765624 87.59793090820313 144.051513671875 79.64045715332031 160.57861328125 72.90721130371094 175.88140869140625 67.39817810058594 187.5115966796875 62.50128173828125 194.85693359375 60.66493225097656 198.5296630859375 60.66493225097656 198.5296630859375 60.66493225097656 " />
        <polyline stroke="black" stroke-width="3" stroke-linecap="round" fill="transparent" stroke-linejoin="round" points="104.87628173828124 125.5489501953125 115.89431762695313 121.87628173828124 130.58502197265625 116.9793701171875 147.11209106445313 112.08245849609376 162.4149169921875 107.79766845703124 175.88140869140625 104.7371063232422 186.287353515625 102.28865051269533 193.0206298828125 101.06442260742188 197.305419921875 98.0038604736328 197.305419921875 98.0038604736328 " />
        <polyline stroke="black" stroke-width="3" stroke-linecap="round" fill="transparent" stroke-linejoin="round" points="167.9239501953125 86.98580932617188 158.130126953125 105.34921264648438 153.23321533203125 123.10049438476563 147.72421264648438 148.1971435546875 142.2152099609375 172.06956481933594 136.7061767578125 192.88140869140625 131.1971435546875 209.40847778320313 126.912353515625 218.59017944335935 123.23968505859376 224.0992126464844 122.6275634765625 224.0992126464844 122.6275634765625 224.0992126464844 " />
        <polyline stroke="black" stroke-width="3" stroke-linecap="round" fill="transparent" stroke-linejoin="round" points="154.45745849609375 141.46389770507813 167.9239501953125 152.48194885253906 176.4935302734375 159.82730102539063 186.287353515625 169.00900268554688 197.305419921875 178.8028106689453 206.487060546875 187.37240600585935 215.6688232421875 194.10565185546875 215.6688232421875 194.10565185546875 " />
        <polyline stroke="black" stroke-width="3" stroke-linecap="round" fill="transparent" stroke-linejoin="round" points="211.99609375 134.73065185546875 196.6932373046875 145.13658142089844 185.67523193359375 156.1546173095703 171.59661865234375 172.6816864013672 171.59661865234375 172.6816864013672 " />
        </svg>