<?xml version="1.0" standalone="no"?>
    <svg width="256" height="256" xmlns="http://www.w3.org/2000/svg" version="1.1">
    <polyline stroke="black" stroke-width="3" stroke-linecap="round" fill="transparent" stroke-linejoin="round" points="57.46673583984375 90.87461853027344 62.504058837890625 88.35592651367188 67.5413818359375 85.83723449707031 75.09744262695313 82.05921936035156 86.4315185546875 77.02186584472656 89.78973388671875 75.34274291992188 89.78973388671875 75.34274291992188 " />
        <polyline stroke="black" stroke-width="3" stroke-linecap="round" fill="transparent" stroke-linejoin="round" points="74.6776123046875 117.74052429199214 80.5545654296875 114.80206298828124 86.4315185546875 111.86360168457033 92.30844116210938 108.92514038085938 97.34579467773438 106.82623291015624 100.70401000976563 106.40646362304688 103.22268676757813 108.0855712890625 105.74136352539063 115.6416015625 106.16119384765624 129.4943389892578 105.74136352539063 145.86575317382813 103.6424560546875 166.85476684570313 100.28424072265624 186.1646423339844 96.5062255859375 197.91848754882813 92.72817993164063 202.95587158203125 85.59194946289063 203.79541015625 78.87545776367188 200.01736450195313 71.73922729492188 192.04156494140625 67.5413818359375 183.64596557617188 67.5413818359375 183.64596557617188 " />
        <polyline stroke="black" stroke-width="3" stroke-linecap="round" fill="transparent" stroke-linejoin="round" points="64.18319702148438 102.6283874511719 60.4051513671875 119.8394012451172 56.627105712890625 137.0504150390625 50.3304443359375 155.10093688964844 42.7744140625 169.37344360351563 33.119476318359375 187.42398071289065 21.785400390625 208.4129943847656 21.785400390625 208.4129943847656 " />
        <polyline stroke="black" stroke-width="3" stroke-linecap="round" fill="transparent" stroke-linejoin="round" points="161.9918212890625 58.55152893066406 160.312744140625 65.26802062988281 158.6336669921875 71.98451232910156 158.6336669921875 71.98451232910156 " />
        <polyline stroke="black" stroke-width="3" stroke-linecap="round" fill="transparent" stroke-linejoin="round" points="124.211669921875 90.87460327148438 134.28640747070313 87.09658813476563 144.36114501953125 83.31857299804688 151.07757568359375 81.21966552734375 162.41168212890625 77.441650390625 171.22705078125 75.34274291992188 180.462158203125 73.66361999511719 189.277587890625 72.40428161621094 193.05560302734375 71.56472778320313 193.05560302734375 71.56472778320313 " />
        <polyline stroke="black" stroke-width="3" stroke-linecap="round" fill="transparent" stroke-linejoin="round" points="130.5084228515625 137.4701690673828 141.84246826171875 130.75369262695313 153.176513671875 124.03721618652344 160.312744140625 119.4196319580078 167.86883544921875 114.80206298828124 175.005126953125 111.86360168457033 180.462158203125 108.0855712890625 181.7215576171875 106.82623291015624 181.7215576171875 106.82623291015624 " />
        <polyline stroke="black" stroke-width="3" stroke-linecap="round" fill="transparent" stroke-linejoin="round" points="150.65786743164063 98.85041809082028 146.87982177734375 114.3822784423828 143.10177612304688 129.9141387939453 138.90399169921875 146.2855682373047 131.7677001953125 162.65696716308594 122.11279296875 179.86795043945313 112.0380859375 197.91848754882813 104.06222534179688 214.2899169921875 98.18533325195313 223.52505493164065 98.18533325195313 223.52505493164065 " />
        <polyline stroke="black" stroke-width="3" stroke-linecap="round" fill="transparent" stroke-linejoin="round" points="154.4359130859375 145.4459991455078 169.128173828125 152.1624755859375 183.8204345703125 158.8789520263672 203.9698486328125 167.69432067871094 221.18084716796875 174.83058166503906 234.19403076171875 181.1272735595703 245.9478759765625 185.744873046875 250.1456298828125 186.58441162109375 250.1456298828125 186.58441162109375 " />
        <polyline stroke="black" stroke-width="3" stroke-linecap="round" fill="transparent" stroke-linejoin="round" points="185.49951171875 165.59542846679688 174.58526611328125 179.4481658935547 163.6710205078125 193.3009033203125 163.6710205078125 193.3009033203125 " />
        </svg>