<?xml version="1.0" standalone="no"?>
    <svg width="256" height="256" xmlns="http://www.w3.org/2000/svg" version="1.1">
    <polyline stroke="black" stroke-width="3" stroke-linecap="round" fill="transparent" stroke-linejoin="round" points="46.04443359375 88.55078125 66.05078125 82.74249267578125 78.9581298828125 78.87030029296875 91.86541748046876 74.35273742675781 102.836669921875 69.83517456054688 109.9356689453125 67.25370788574219 113.807861328125 65.31761169433594 115.74395751953124 64.6722412109375 114.4532470703125 64.6722412109375 110.5810546875 67.89907836914063 102.836669921875 75.64346313476563 89.28396606445313 92.42298889160156 74.4405517578125 113.07469177246094 62.1785888671875 135.01715087890625 52.49810791015625 153.08738708496094 48.62591552734375 161.47715759277344 46.04443359375 166.64007568359375 46.04443359375 167.93081665039063 49.271270751953125 162.76788330078125 57.6610107421875 152.44203186035156 68.63226318359375 140.825439453125 80.24884033203125 131.79031372070313 93.801513671875 125.98202514648438 101.5458984375 125.98202514648438 107.99957275390624 129.85421752929688 112.51715087890624 141.47080993652344 111.87176513671876 161.47715759277344 104.12738037109376 182.12884521484375 95.73760986328124 191.16400146484375 84.12103271484375 198.26303100585935 75.08590698242188 199.55374145507813 69.9229736328125 195.03619384765625 69.9229736328125 195.03619384765625 " />
        <polyline stroke="black" stroke-width="3" stroke-linecap="round" fill="transparent" stroke-linejoin="round" points="157.6927490234375 45.311256408691406 156.40203857421875 64.02687072753906 150.59375 74.99809265136719 142.849365234375 84.03321838378906 135.75030517578125 90.48687744140624 130.58740234375 95.0044403076172 128.00592041015625 96.9405517578125 133.16885375976563 94.3590850830078 144.14007568359375 89.84152221679688 161.56494140625 84.03321838378906 178.344482421875 78.87030029296875 192.54254150390625 74.35273742675781 202.2230224609375 71.12590026855469 208.67669677734375 69.18980407714844 211.90350341796875 67.89907836914063 210.61279296875 69.83517456054688 199.6416015625 78.87030029296875 175.7630615234375 97.58590698242188 175.7630615234375 97.58590698242188 " />
        <polyline stroke="black" stroke-width="3" stroke-linecap="round" fill="transparent" stroke-linejoin="round" points="121.55224609375 136.9532470703125 137.04107666015625 133.08103942871094 149.9483642578125 129.85421752929688 175.7630615234375 121.46446228027344 186.0888671875 116.9468994140625 192.54254150390625 113.72006225585938 197.06005859375 108.55712890625 197.06005859375 108.55712890625 " />
        <polyline stroke="black" stroke-width="3" stroke-linecap="round" fill="transparent" stroke-linejoin="round" points="163.5010986328125 92.42298889160156 160.27423095703125 104.6849365234375 156.40203857421875 116.9468994140625 151.88446044921875 133.72640991210938 145.43081665039063 155.66885375976563 138.9771728515625 176.9659423828125 133.16885375976563 196.9722900390625 128.65130615234375 214.39715576171875 125.42446899414063 226.65911865234375 124.13372802734376 233.11279296875 124.13372802734376 233.11279296875 " />
        <polyline stroke="black" stroke-width="3" stroke-linecap="round" fill="transparent" stroke-linejoin="round" points="153.820556640625 160.831787109375 168.66400146484375 165.34934997558594 177.6990966796875 171.1576385498047 188.02496337890625 178.2566680908203 197.06005859375 184.7103271484375 204.80450439453125 191.16400146484375 212.54888916015625 196.32693481445313 225.4561767578125 197.61764526367188 225.4561767578125 197.61764526367188 " />
        <polyline stroke="black" stroke-width="3" stroke-linecap="round" fill="transparent" stroke-linejoin="round" points="203.5137939453125 132.43568420410156 193.833251953125 143.4069061279297 186.7342529296875 155.02349853515625 178.344482421875 167.2854461669922 169.309326171875 182.77423095703125 169.309326171875 182.77423095703125 " />
        </svg>