<?xml version="1.0" standalone="no"?>
    <svg width="256" height="256" xmlns="http://www.w3.org/2000/svg" version="1.1">
    <polyline stroke="black" stroke-width="3" stroke-linecap="round" fill="transparent" stroke-linejoin="round" points="107 55 107 55 108 56 110 58 112 59 115 61 116 62 117 63 119 64 121 65 123 67 126 68 129 69 133 69 136 69 " />
        <polyline stroke="black" stroke-width="3" stroke-linecap="round" fill="transparent" stroke-linejoin="round" points="161 43 161 43 161 45 162 47 160 51 157 55 147 64 138 70 128 77 122 80 108 89 100 93 94 96 90 98 87 100 86 101 86 101 89 100 93 100 99 98 106 97 115 95 125 93 135 89 145 86 155 81 164 75 173 69 176 66 " />
        <polyline stroke="black" stroke-width="3" stroke-linecap="round" fill="transparent" stroke-linejoin="round" points="141 28 139 30 137 35 134 43 130 54 125 67 120 80 115 93 111 106 107 117 103 127 97 140 95 143 91 151 90 153 90 154 " />
        <polyline stroke="black" stroke-width="3" stroke-linecap="round" fill="transparent" stroke-linejoin="round" points="123 102 123 102 130 101 137 101 144 102 150 104 158 108 163 112 167 116 171 121 174 126 176 132 176 135 " />
        <polyline stroke="black" stroke-width="3" stroke-linecap="round" fill="transparent" stroke-linejoin="round" points="108 128 107 128 105 128 105 129 105 129 106 130 107 131 109 133 112 134 114 136 118 138 125 141 128 142 131 142 135 142 " />
        <polyline stroke="black" stroke-width="3" stroke-linecap="round" fill="transparent" stroke-linejoin="round" points="156 112 155 113 151 117 145 123 137 132 129 143 116 160 107 172 98 183 91 193 84 201 78 208 73 213 70 215 69 215 " />
        <polyline stroke="black" stroke-width="3" stroke-linecap="round" fill="transparent" stroke-linejoin="round" points="72 141 73 141 75 141 78 142 81 143 85 146 90 149 95 153 106 161 115 167 124 174 134 181 145 188 155 195 166 201 177 206 187 209 195 212 201 213 203 213 " />
        </svg>