<?xml version="1.0" standalone="no"?>
    <svg width="256" height="256" xmlns="http://www.w3.org/2000/svg" version="1.1">
    <polyline stroke="black" stroke-width="3" stroke-linecap="round" fill="transparent" stroke-linejoin="round" points="89 61 90 67 93 70 97 72 101 73 107 74 115 75 115 75 " />
        <polyline stroke="black" stroke-width="3" stroke-linecap="round" fill="transparent" stroke-linejoin="round" points="159 56 153 63 144 71 129 84 108 101 108 101 " />
        <polyline stroke="black" stroke-width="3" stroke-linecap="round" fill="transparent" stroke-linejoin="round" points="62 129 68 124 78 119 90 112 111 103 132 94 155 84 166 79 173 76 175 75 176 75 176 74 175 74 170 74 170 74 " />
        <polyline stroke="black" stroke-width="3" stroke-linecap="round" fill="transparent" stroke-linejoin="round" points="131 56 130 60 130 69 128 82 121 100 113 118 107 130 103 139 100 146 98 150 96 153 92 155 92 155 " />
        <polyline stroke="black" stroke-width="3" stroke-linecap="round" fill="transparent" stroke-linejoin="round" points="123 102 125 106 130 111 139 118 150 122 163 125 175 127 186 128 194 129 198 130 198 130 " />
        <polyline stroke="black" stroke-width="3" stroke-linecap="round" fill="transparent" stroke-linejoin="round" points="138 142 139 145 141 147 144 148 148 149 148 149 " />
        <polyline stroke="black" stroke-width="3" stroke-linecap="round" fill="transparent" stroke-linejoin="round" points="173 144 171 148 164 154 153 167 140 182 126 198 111 211 97 221 97 221 " />
        <polyline stroke="black" stroke-width="3" stroke-linecap="round" fill="transparent" stroke-linejoin="round" points="112 167 115 172 119 178 127 185 143 194 161 203 185 211 209 217 229 221 244 224 244 224 " />
        </svg>