<?xml version="1.0" standalone="no"?>
    <svg width="256" height="256" xmlns="http://www.w3.org/2000/svg" version="1.1">
    <polyline stroke="black" stroke-width="3" stroke-linecap="round" fill="transparent" stroke-linejoin="round" points="69.36654663085938 48.26482391357422 73.6378173828125 58.40907287597656 76.84124755859375 65.34986877441406 81.11251831054688 73.89237976074219 85.3837890625 81.9010009765625 90.18893432617188 88.30789184570313 90.18893432617188 88.30789184570313 " />
        <polyline stroke="black" stroke-width="3" stroke-linecap="round" fill="transparent" stroke-linejoin="round" points="123.82513427734376 48.26482391357422 128.09637451171875 61.07861328125 130.23199462890625 66.41767883300781 135.03717041015625 71.22285461425781 135.03717041015625 71.22285461425781 " />
        <polyline stroke="black" stroke-width="3" stroke-linecap="round" fill="transparent" stroke-linejoin="round" points="188.96185302734375 47.19700622558594 184.15667724609375 58.94297790527344 174.012451171875 70.155029296875 154.791748046875 87.24008178710938 128.09637451171875 105.39292907714844 112.07916259765624 117.13890075683594 98.7314453125 124.61360168457033 92.85845947265624 127.81704711914063 88.05331420898438 129.9526824951172 85.91766357421875 131.02049255371094 84.849853515625 131.5543975830078 84.849853515625 133.1561279296875 84.849853515625 135.82565307617188 84.849853515625 142.2325439453125 81.11251831054688 161.45321655273438 77.37518310546875 180.13998413085938 76.30734252929688 190.81814575195313 78.4429931640625 199.89456176757813 81.64642333984375 204.69973754882813 88.58721923828125 207.3692626953125 103.53662109375 204.69973754882813 115.2825927734375 199.36065673828125 130.76593017578125 187.08078002929688 149.45269775390625 169.4618377685547 149.45269775390625 169.4618377685547 " />
        <polyline stroke="black" stroke-width="3" stroke-linecap="round" fill="transparent" stroke-linejoin="round" points="145.181396484375 133.1561279296875 148.38485717773438 142.76646423339844 154.2578125 152.91070556640625 162.2664794921875 165.19058227539063 173.478515625 180.13998413085938 186.29229736328125 195.08938598632813 198.5721435546875 208.97097778320313 207.11468505859375 219.115234375 207.11468505859375 219.115234375 " />
        </svg>