<?xml version="1.0" standalone="no"?>
    <svg width="256" height="256" xmlns="http://www.w3.org/2000/svg" version="1.1">
    <polyline stroke="black" stroke-width="3" stroke-linecap="round" fill="transparent" stroke-linejoin="round" points="65.09527587890625 64.28202819824219 72.03607177734375 75.49409484863281 75.7734375 80.29925537109375 80.044677734375 84.57052612304688 84.849853515625 85.63833618164063 84.849853515625 85.63833618164063 " />
        <polyline stroke="black" stroke-width="3" stroke-linecap="round" fill="transparent" stroke-linejoin="round" points="97.12969970703124 62.14640808105469 105.6722412109375 68.01939392089844 109.40960693359376 71.22283935546875 114.7486572265625 72.82455444335938 123.29119873046876 69.62110900878906 123.29119873046876 69.62110900878906 " />
        <polyline stroke="black" stroke-width="3" stroke-linecap="round" fill="transparent" stroke-linejoin="round" points="174.01239013671875 44.52745819091797 166.5377197265625 59.47686767578125 156.3934326171875 72.82455444335938 140.376220703125 89.37568664550781 124.89291381835938 102.72337341308594 109.40960693359376 113.40151977539063 98.7314453125 119.80841064453124 93.39236450195313 123.54576110839844 89.655029296875 125.14749145507813 86.9854736328125 127.81703186035156 83.78204345703125 136.3595428466797 76.84124755859375 157.71585083007813 72.03607177734375 178.53823852539063 69.90045166015625 192.4198303222656 69.90045166015625 200.96234130859375 71.50216674804688 206.8353271484375 76.84124755859375 211.6405029296875 88.05328369140625 214.31002807617188 105.6722412109375 208.43704223632813 123.29119873046876 195.08935546875 140.376220703125 174.80088806152344 140.376220703125 174.80088806152344 " />
        <polyline stroke="black" stroke-width="3" stroke-linecap="round" fill="transparent" stroke-linejoin="round" points="157.4613037109375 128.8848419189453 162.26641845703125 139.56298828125 167.07159423828125 149.7072296142578 173.478515625 163.5888214111328 182.02099609375 180.67385864257813 189.4957275390625 198.82672119140625 196.97039794921875 224.9881896972656 196.97039794921875 224.9881896972656 " />
        </svg>