<?xml version="1.0" standalone="no"?>
    <svg width="256" height="256" xmlns="http://www.w3.org/2000/svg" version="1.1">
    <polyline stroke="black" stroke-width="3" stroke-linecap="round" fill="transparent" stroke-linejoin="round" points="70.2227783203125 79.71658325195313 72.27957153320313 88.45793151855469 75.36474609375 100.79866027832033 78.964111328125 112.6251983642578 82.04931640625 120.85235595703124 86.16290283203125 122.90914916992188 92.84744262695313 116.73878479003906 92.84744262695313 116.73878479003906 " />
        <polyline stroke="black" stroke-width="3" stroke-linecap="round" fill="transparent" stroke-linejoin="round" points="115.986328125 68.40423583984375 121.64251708984376 75.60299682617188 125.75607299804688 80.74496459960938 137.58261108398438 85.37274169921875 137.58261108398438 85.37274169921875 " />
        <polyline stroke="black" stroke-width="3" stroke-linecap="round" fill="transparent" stroke-linejoin="round" points="174.090576171875 60.17707824707031 170.4912109375 72.00361633300781 66.62338256835938 171.7578887939453 63.024017333984375 191.29736328125 61.481414794921875 209.29428100585935 62.50982666015625 218.54983520507813 64.05239868164063 223.6918029785156 69.19436645507813 223.6918029785156 85.13449096679688 215.46466064453125 105.18817138671876 202.09552001953125 124.2135009765625 188.21218872070313 137.58261108398438 174.8430633544922 147.35235595703125 160.95974731445313 150.95172119140625 152.2183837890625 151.9801025390625 147.076416015625 149.40914916992188 144.50543212890625 145.29556274414063 145.01962280273438 143.23876953125 147.076416015625 142.21038818359375 151.70419311523438 174.090576171875 231.40475463867188 174.090576171875 231.40475463867188 " />
        </svg>