<?xml version="1.0" standalone="no"?>
    <svg width="256" height="256" xmlns="http://www.w3.org/2000/svg" version="1.1">
    <polyline stroke="black" stroke-width="3" stroke-linecap="round" fill="transparent" stroke-linejoin="round" points="95 51 97 56 98 62 101 66 102 71 103 75 103 80 105 81 105 81 " />
        <polyline stroke="black" stroke-width="3" stroke-linecap="round" fill="transparent" stroke-linejoin="round" points="124 54 123 63 123 67 123 69 123 70 123 70 " />
        <polyline stroke="black" stroke-width="3" stroke-linecap="round" fill="transparent" stroke-linejoin="round" points="173 42 165 64 157 76 147 89 137 100 126 109 118 117 111 121 111 121 " />
        <polyline stroke="black" stroke-width="3" stroke-linecap="round" fill="transparent" stroke-linejoin="round" points="100 154 100 163 100 173 99 184 97 195 96 202 96 207 96 210 97 210 101 210 107 206 117 196 127 188 139 177 147 169 153 163 153 163 " />
        <polyline stroke="black" stroke-width="3" stroke-linecap="round" fill="transparent" stroke-linejoin="round" points="153 153 157 167 159 175 163 182 167 190 171 196 175 203 175 203 " />
        </svg>