<?xml version="1.0" standalone="no"?>
    <svg width="256" height="256" xmlns="http://www.w3.org/2000/svg" version="1.1">
    <polyline stroke="black" stroke-width="3" stroke-linecap="round" fill="transparent" stroke-linejoin="round" points="21.7901611328125 126.55328369140624 40.71856689453125 121.06732177734376 48.7802734375 117.97312927246094 66.57394409179688 109.10208129882813 86.60311889648438 98.88175964355467 94.42428588867188 95.58406066894533 105.63922119140624 93.88121032714844 108.51364135742188 94.50021362304688 109.61959838867188 96.05551147460938 109.53631591796876 96.206298828125 109.9825439453125 97.0025634765625 110.16317749023438 97.32492065429688 " />
        <polyline stroke="black" stroke-width="3" stroke-linecap="round" fill="transparent" stroke-linejoin="round" points="71.84075927734375 67.79823303222656 75.49411010742188 107.02096557617188 75.634521484375 124.43077087402344 72.5557861328125 158.73779296875 66.9736328125 183.05593872070313 66.8199462890625 181.30419921875 " />
        <polyline stroke="black" stroke-width="3" stroke-linecap="round" fill="transparent" stroke-linejoin="round" points="41.37518310546875 190.96624755859375 60.87713623046875 178.0589599609375 78.53561401367188 167.34112548828125 89.89071655273438 160.3907470703125 104.55841064453124 152.72314453125 109.19091796875 150.2550048828125 121.40203857421876 143.05796813964844 122.341796875 142.537109375 " />
        <polyline stroke="black" stroke-width="3" stroke-linecap="round" fill="transparent" stroke-linejoin="round" points="99.259765625 60.399444580078125 120.34344482421876 54.9447021484375 126.98846435546876 52.763153076171875 134.881591796875 50.54924774169922 149.96331787109375 46.18656921386719 160.280517578125 42.887474060058594 164.76318359375 41.574485778808594 169.60198974609375 39.19117736816406 170.70404052734375 38.1240234375 171.45941162109375 37.0438232421875 171.654052734375 36.76549530029297 " />
        <polyline stroke="black" stroke-width="3" stroke-linecap="round" fill="transparent" stroke-linejoin="round" points="131.46624755859375 58.6585693359375 129.59442138671875 80.7127685546875 129.6893310546875 95.37503051757813 127.85092163085938 127.7075653076172 125.637939453125 143.12229919433594 118.76800537109376 166.53240966796875 111.57833862304688 182.7526702880859 109.486328125 187.1468505859375 106.072021484375 195.54937744140625 105.103759765625 198.4005126953125 103.54122924804688 202.08670043945313 103.5035400390625 202.53985595703125 103.64996337890624 203.05679321289065 103.9854736328125 203.62030029296875 104.04815673828124 203.7255859375 106.7080078125 202.99481201171875 110.11822509765624 201.5850524902344 123.637939453125 194.08050537109375 130.6026611328125 189.54833984375 143.9085693359375 182.2142333984375 155.33099365234375 177.7986297607422 159.31903076171875 176.445068359375 164.05804443359375 173.57614135742188 166.638671875 171.5814666748047 166.8045654296875 171.45321655273438 " />
        <polyline stroke="black" stroke-width="3" stroke-linecap="round" fill="transparent" stroke-linejoin="round" points="137.1241455078125 95.21725463867188 157.46136474609375 90.92660522460938 171.0401611328125 89.1435546875 176.69140625 88.64756774902344 181.64166259765625 89.05433654785156 183.3564453125 89.21664428710938 184.7926025390625 90.42495727539063 186.42010498046875 100.77294921875 186.0894775390625 111.70237731933594 183.42669677734375 125.75547790527344 176.2109375 151.37158203125 171.85205078125 163.34088134765625 166.82403564453125 181.07943725585935 166.232421875 195.48660278320313 167.18450927734375 199.05026245117188 171.20465087890625 204.30657958984375 173.37310791015625 206.2479248046875 178.9033203125 208.0286865234375 182.3551025390625 208.7926025390625 188.7259521484375 210.66107177734375 193.82958984375 212.17401123046875 195.29833984375 212.352783203125 209.6207275390625 212.56622314453125 217.90557861328125 211.39767456054688 221.476318359375 207.650634765625 215.7532958984375 192.8282165527344 209.97509765625 182.39117431640625 204.08160400390625 175.723876953125 203.32696533203125 176.32489013671875 " />
        </svg>