<?xml version="1.0" standalone="no"?>
    <svg width="256" height="256" xmlns="http://www.w3.org/2000/svg" version="1.1">
    <polyline stroke="black" stroke-width="3" stroke-linecap="round" fill="transparent" stroke-linejoin="round" points="46.578369140625 105.17544555664065 54.29931640625 104.36273193359376 62.020263671875 103.55001831054688 69.7412109375 102.73728942871094 77.8685302734375 101.92454528808594 94.529541015625 100.29910278320313 120.94329833984376 95.01632690429688 135.57244873046875 89.32722473144531 142.07431030273438 84.04446411132813 142.07431030273438 84.04446411132813 " />
        <polyline stroke="black" stroke-width="3" stroke-linecap="round" fill="transparent" stroke-linejoin="round" points="109.1587219238281 63.319793701171875 106.72052001953124 72.66621398925781 104.28231811523438 82.01263427734375 97.37408447265624 116.14736938476563 91.27862548828124 138.90383911132813 84.370361328125 159.62847900390625 76.24310302734375 175.88311767578125 68.928466796875 186.04226684570313 64.05209350585938 190.91864013671875 60.394775390625 193.3568420410156 58.36297607421875 193.76321411132813 57.550262451171875 193.3568420410156 57.550262451171875 192.54412841796875 67.70941162109375 184.41680908203125 83.15130615234375 173.03855895996094 99.812255859375 160.8475799560547 116.879638671875 146.21841430664063 131.9151611328125 131.99563598632813 131.9151611328125 131.99563598632813 " />
        <polyline stroke="black" stroke-width="3" stroke-linecap="round" fill="transparent" stroke-linejoin="round" points="135.572509765625 79.16806030273438 141.2615966796875 77.5426025390625 146.95068359375 75.91714477539063 159.9544677734375 71.44711303710938 167.6754150390625 69.0089111328125 190.0255126953125 60.068878173828125 206.68646240234375 51.941558837890625 210.34375 50.31609344482422 213.1883544921875 49.09700012207031 213.1883544921875 49.09700012207031 " />
        <polyline stroke="black" stroke-width="3" stroke-linecap="round" fill="transparent" stroke-linejoin="round" points="202.2164306640625 53.16065979003906 194.90185546875 60.068878173828125 187.5872802734375 66.97709655761719 180.272705078125 75.91714477539063 173.364501953125 88.10812377929688 166.8626708984375 103.55001831054688 159.548095703125 122.64920043945313 151.4207763671875 143.78021240234375 142.07431030273438 164.50486755371094 137.60433959960938 173.85128784179688 137.60433959960938 173.85128784179688 " />
        <polyline stroke="black" stroke-width="3" stroke-linecap="round" fill="transparent" stroke-linejoin="round" points="119.72418212890625 190.51223754882813 125.413330078125 186.4486083984375 131.10247802734375 182.38497924804688 137.60433959960938 177.50857543945313 152.63983154296875 164.91123962402344 161.17352294921875 155.97119140625 170.113525390625 145.8120574951172 170.113525390625 145.8120574951172 " />
        <polyline stroke="black" stroke-width="3" stroke-linecap="round" fill="transparent" stroke-linejoin="round" points="163.6116943359375 103.95637512207033 172.5517578125 101.5181884765625 181.4918212890625 99.08000183105467 190.0255126953125 97.04815673828124 196.52734375 95.8290557861328 200.59100341796875 96.23542785644533 202.622802734375 98.26725769042967 203.0291748046875 102.73728942871094 198.15283203125 121.8364715576172 183.1173095703125 164.50486755371094 178.647216796875 188.48046875 181.08544921875 199.45233154296875 185.555419921875 206.36053466796875 193.2763671875 211.2369384765625 204.248291015625 213.26876831054688 214.40740966796875 211.643310546875 222.5347900390625 207.57965087890625 228.6302490234375 201.07778930664065 235.132080078125 182.79132080078125 236.757568359375 168.9748992919922 236.757568359375 168.9748992919922 " />
        </svg>