<?xml version="1.0" standalone="no"?>
    <svg width="256" height="256" xmlns="http://www.w3.org/2000/svg" version="1.1">
    <polyline stroke="black" stroke-width="3" stroke-linecap="round" fill="transparent" stroke-linejoin="round" points="35.108612060546875 123.63894653320313 53.154266357421875 115.66526794433594 61.96728515625 112.7275848388672 70.7802734375 109.78994750976563 86.72760009765625 104.3342742919922 102.2552490234375 98.45895385742188 113.16659545898438 91.32460021972656 116.943603515625 87.547607421875 116.943603515625 87.547607421875 " />
        <polyline stroke="black" stroke-width="3" stroke-linecap="round" fill="transparent" stroke-linejoin="round" points="97.21923828125 57.75128173828125 93.8619384765625 73.27894592285156 92.18328857421876 81.67227172851563 90.50457763671876 91.32460021972656 86.30795288085938 116.08494567871094 83.37030029296875 131.19293212890625 76.65560913085938 155.9532470703125 69.10162353515625 173.15957641601563 63.226287841796875 184.0708923339844 59.44927978515625 189.94622802734375 57.350921630859375 192.0445556640625 57.770599365234375 191.6249084472656 62.386932373046875 187.42822265625 74.5572509765625 176.9365692138672 88.825927734375 163.0875701904297 102.6749267578125 150.49758911132813 114.42559814453124 138.74693298339844 120.7205810546875 132.45193481445313 120.7205810546875 132.45193481445313 " />
        <polyline stroke="black" stroke-width="3" stroke-linecap="round" fill="transparent" stroke-linejoin="round" points="121.14022827148438 98.87858581542967 136.66790771484375 90.06561279296875 150.93658447265625 81.67227172851563 165.20526123046875 72.43960571289063 184.5098876953125 59.42994689941406 186.6082763671875 57.75128173828125 188.286865234375 55.2332763671875 187.02789306640625 54.393951416015625 182.83123779296875 55.2332763671875 179.8935546875 56.911956787109375 168.5626220703125 68.24295043945313 160.16925048828125 81.67227172851563 153.034912109375 95.52127075195313 150.09725952148438 102.23594665527344 140.86459350585938 127.41593933105467 132.47125244140625 150.07791137695313 124.49755859375 169.80223083496094 118.62225341796876 183.2315673828125 116.52392578125 188.267578125 112.32723999023438 196.2412109375 111.4879150390625 197.500244140625 109.80926513671876 198.75921630859375 109.80926513671876 198.33956909179688 110.22894287109376 197.500244140625 121.55990600585938 187.847900390625 135.82858276367188 176.5168914794922 149.67758178710938 163.92691040039063 162.267578125 150.917236328125 168.5626220703125 143.78292846679688 174.01824951171875 137.90757751464844 174.01824951171875 137.90757751464844 " />
        <polyline stroke="black" stroke-width="3" stroke-linecap="round" fill="transparent" stroke-linejoin="round" points="138.3465576171875 124.05859375 148.41854858398438 117.76359558105467 160.16925048828125 111.46859741210938 165.62493896484375 108.53094482421876 176.5362548828125 103.49493408203124 180.73291015625 101.81626892089844 184.0902099609375 100.5572509765625 189.126220703125 99.71794128417967 191.64422607421875 103.07525634765624 192.48358154296875 117.34393310546876 190.80487060546875 137.4879150390625 189.965576171875 154.69424438476563 190.80487060546875 167.7039031982422 194.1622314453125 176.9365692138672 200.03753662109375 182.39224243164065 215.1455078125 187.00857543945313 224.7978515625 184.91021728515625 228.99456787109375 182.39224243164065 236.548583984375 173.9989013671875 242.423828125 162.24822998046875 244.94189453125 148.81890869140625 244.1025390625 145.88125610351563 243.682861328125 143.78292846679688 243.682861328125 143.78292846679688 " />
        </svg>