<?xml version="1.0" standalone="no"?>
    <svg width="256" height="256" xmlns="http://www.w3.org/2000/svg" version="1.1">
    <polyline stroke="black" stroke-width="3" stroke-linecap="round" fill="transparent" stroke-linejoin="round" points="33.762786865234375 65.3402099609375 42.21453857421875 77.172607421875 45.172607421875 80.97586059570313 48.130706787109375 84.35655212402344 51.51141357421875 87.73722839355469 51.51141357421875 87.73722839355469 " />
        <polyline stroke="black" stroke-width="3" stroke-linecap="round" fill="transparent" stroke-linejoin="round" points="127.15414428710938 40.407676696777344 113.20883178710938 56.0433349609375 107.29266357421876 62.80470275878906 84.89559936523438 86.89205932617188 67.56964111328125 105.48580932617188 51.9339599609375 121.96664428710938 39.67901611328125 134.64419555664063 29.114349365234375 145.20883178710938 22.352996826171875 151.97018432617188 18.97235107421875 155.3508758544922 18.54974365234375 155.77346801757813 23.19818115234375 154.92828369140625 37.14349365234375 149.43467712402344 57.004974365234375 140.56039428710938 76.02133178710938 132.53128051757813 91.656982421875 124.92474365234376 102.64422607421876 119.43112182617188 107.29266357421876 116.89561462402344 116.16693115234376 108.44390869140624 116.16693115234376 108.44390869140624 " />
        <polyline stroke="black" stroke-width="3" stroke-linecap="round" fill="transparent" stroke-linejoin="round" points="93.7698974609375 45.90129089355469 89.54403686523438 55.19816589355469 86.16339111328125 64.49504089355469 82.360107421875 75.90484619140625 67.14706420898438 132.95384216308594 61.653411865234375 156.19602966308594 57.004974365234375 175.21237182617188 53.20172119140625 189.58026123046875 50.66619873046875 199.29974365234375 49.3984375 202.680419921875 49.3984375 202.680419921875 " />
        <polyline stroke="black" stroke-width="3" stroke-linecap="round" fill="transparent" stroke-linejoin="round" points="62.92120361328125 168.45101928710938 76.44393920898438 168.87359619140625 83.62786865234375 169.71878051757813 91.234375 171.4091033935547 105.602294921875 174.789794921875 118.27987670898438 177.74789428710938 128.421875 178.5930633544922 133.91549682617188 176.9027099609375 133.91549682617188 176.9027099609375 " />
        <polyline stroke="black" stroke-width="3" stroke-linecap="round" fill="transparent" stroke-linejoin="round" points="138.56393432617188 95.34376525878906 148.70599365234375 88.5823974609375 158.8480224609375 84.35655212402344 164.3416748046875 82.24362182617188 179.977294921875 76.75001525878906 184.203125 75.05966186523438 190.11932373046875 72.94674682617188 195.19036865234375 70.41122436523438 195.19036865234375 70.41122436523438 " />
        <polyline stroke="black" stroke-width="3" stroke-linecap="round" fill="transparent" stroke-linejoin="round" points="154.1995849609375 106.75357055664063 151.6640625 120.69888305664063 150.81893920898438 127.03765869140624 149.97372436523438 134.2216033935547 146.59307861328125 162.9573974609375 144.48016357421875 182.81890869140625 141.94464111328125 198.031982421875 140.2542724609375 206.90628051757813 138.56393432617188 211.977294921875 138.56393432617188 211.977294921875 " />
        <polyline stroke="black" stroke-width="3" stroke-linecap="round" fill="transparent" stroke-linejoin="round" points="147.86080932617188 134.64419555664063 155.4674072265625 124.07955932617188 158.42547607421875 120.69888305664063 161.80615234375 117.31820678710938 169.4127197265625 112.24717712402344 177.8643798828125 108.8665008544922 188.0064697265625 107.17617797851563 197.3033447265625 107.59873962402344 204.064697265625 110.97943115234376 206.6002197265625 113.9375 212.93896484375 129.5731658935547 215.0518798828125 150.27984619140625 212.09375 176.0575408935547 208.29052734375 189.15768432617188 206.1776123046875 194.22869873046875 201.5291748046875 202.25784301757813 194.34521484375 208.59661865234375 188.0064697265625 211.977294921875 188.0064697265625 211.977294921875 " />
        <polyline stroke="black" stroke-width="3" stroke-linecap="round" fill="transparent" stroke-linejoin="round" points="115.32174682617188 156.19602966308594 129.26705932617188 151.54759216308594 136.45101928710938 149.0120849609375 153.35443115234375 146.47659301757813 161.383544921875 145.63140869140625 178.2869873046875 145.20883178710938 194.34521484375 145.63140869140625 209.13568115234375 146.47659301757813 220.5455322265625 147.32174682617188 230.6875 148.58950805664063 236.18115234375 150.7024383544922 236.18115234375 150.7024383544922 " />
        </svg>