<?xml version="1.0" standalone="no"?>
    <svg width="256" height="256" xmlns="http://www.w3.org/2000/svg" version="1.1">
    <polyline stroke="black" stroke-width="3" stroke-linecap="round" fill="transparent" stroke-linejoin="round" points="58.0098876953125 75.103759765625 63.37957763671875 86.66915893554688 65.44479370117188 89.56051635742188 67.51007080078125 92.45187377929688 69.57528686523438 94.93017578125 73.705810546875 98.64764404296876 76.18408203125 100.2998046875 82.79290771484375 101.53898620605467 93.119140625 98.2345733642578 93.119140625 98.2345733642578 " />
        <polyline stroke="black" stroke-width="3" stroke-linecap="round" fill="transparent" stroke-linejoin="round" points="140.20687866210938 57.755645751953125 127.81536865234376 75.51681518554688 118.31524658203124 86.25611877441406 108.40203857421876 97.82151794433594 98.48883056640624 106.49557495117188 72.0535888671875 125.90896606445313 60.075164794921875 132.5177459716797 54.292449951171875 134.99603271484375 53.053314208984375 135.4091033935547 53.87939453125 134.99603271484375 58.0098876953125 133.75689697265625 88.16256713867188 119.71319580078124 99.31491088867188 115.16964721679688 126.16317749023438 104.8433837890625 132.77197265625 102.36508178710938 146.815673828125 94.51712036132813 146.815673828125 94.51712036132813 " />
        <polyline stroke="black" stroke-width="3" stroke-linecap="round" fill="transparent" stroke-linejoin="round" points="111.7064208984375 54.864288330078125 105.92376708984376 66.01666259765625 101.38018798828124 78.82121276855469 91.05392456054688 115.16964721679688 87.33648681640625 131.27859497070313 76.59716796875 167.21397399902344 71.22750854492188 180.8446350097656 67.51007080078125 187.45343017578125 65.85784912109375 189.10565185546875 65.44479370117188 189.10565185546875 65.44479370117188 189.10565185546875 " />
        <polyline stroke="black" stroke-width="3" stroke-linecap="round" fill="transparent" stroke-linejoin="round" points="90.640869140625 151.51805114746094 100.14105224609376 156.8876953125 105.09762573242188 160.19210815429688 117.07611083984376 167.21397399902344 128.22845458984375 172.5836181640625 138.96774291992188 175.47496032714844 148.05487060546875 173.82275390625 148.05487060546875 173.82275390625 " />
        <polyline stroke="black" stroke-width="3" stroke-linecap="round" fill="transparent" stroke-linejoin="round" points="151.3592529296875 93.27796936035156 161.2724609375 89.56051635742188 167.05517578125 87.49526977539063 173.66400146484375 85.43002319335938 186.05548095703125 81.29951477050781 197.2078857421875 77.58206176757813 202.1644287109375 75.92985534667969 208.77325439453125 73.86460876464844 211.66455078125 73.45155334472656 212.07763671875 73.45155334472656 212.07763671875 73.45155334472656 " />
        <polyline stroke="black" stroke-width="3" stroke-linecap="round" fill="transparent" stroke-linejoin="round" points="159.6202392578125 113.1043701171875 155.07672119140625 129.21334838867188 153.011474609375 138.7135009765625 150.94622802734375 151.51805114746094 147.228759765625 172.5836181640625 143.51132202148438 190.34478759765625 140.20687866210938 201.0841064453125 137.72860717773438 207.27984619140625 136.48944091796875 208.10595703125 136.48944091796875 208.10595703125 " />
        <polyline stroke="black" stroke-width="3" stroke-linecap="round" fill="transparent" stroke-linejoin="round" points="151.3592529296875 124.25674438476563 162.9246826171875 118.8870849609375 167.05517578125 117.64793395996094 171.5987548828125 115.99575805664063 184.40325927734375 114.34353637695313 191.4251708984375 115.16964721679688 194.3165283203125 116.40878295898438 198.86004638671875 120.95236206054688 203.816650390625 130.86557006835938 207.12103271484375 144.4962158203125 208.3602294921875 158.12686157226563 207.12103271484375 169.2792205810547 204.22967529296875 178.36631774902344 199.6861572265625 184.1490478515625 193.07733154296875 189.5186767578125 181.92498779296875 195.3013916015625 181.92498779296875 195.3013916015625 " />
        <polyline stroke="black" stroke-width="3" stroke-linecap="round" fill="transparent" stroke-linejoin="round" points="116.66302490234376 138.7135009765625 138.5546875 133.75689697265625 148.88095092773438 132.5177459716797 159.6202392578125 131.69163513183594 169.533447265625 130.45249938964844 187.29461669921875 128.80029296875 203.816650390625 127.97418212890624 216.2081298828125 127.97418212890624 225.2952880859375 128.3872528076172 231.0780029296875 129.62640380859375 235.62152099609375 133.34385681152344 235.62152099609375 133.34385681152344 " />
        </svg>