<?xml version="1.0" standalone="no"?>
    <svg width="256" height="256" xmlns="http://www.w3.org/2000/svg" version="1.1">
    <polyline stroke="black" stroke-width="3" stroke-linecap="round" fill="transparent" stroke-linejoin="round" points="75 74 75 74 76 74 76 74 76 74 76 74 76 74 76 74 76 74 75 74 75 75 75 76 76 78 76 80 76 83 76 87 76 91 76 96 75 101 75 107 75 112 74 118 74 124 74 129 73 134 73 139 73 144 72 149 72 153 72 158 71 162 71 165 71 169 70 172 70 174 69 177 69 179 69 180 69 181 68 182 68 183 " />
        <polyline stroke="black" stroke-width="3" stroke-linecap="round" fill="transparent" stroke-linejoin="round" points="73 84 73 84 74 84 74 83 75 83 76 82 77 81 78 81 80 80 81 79 82 78 84 78 86 77 88 76 90 75 92 74 94 73 96 72 99 71 101 70 103 69 106 68 108 67 111 66 114 65 116 65 119 64 122 63 124 63 127 62 130 62 132 62 135 62 137 62 139 63 142 63 144 64 146 64 148 65 150 66 152 67 153 68 155 70 157 71 158 73 159 76 161 78 162 81 163 85 164 88 164 93 165 97 165 102 166 107 166 112 166 116 166 121 166 126 165 130 165 134 165 138 164 142 164 145 163 149 162 152 162 155 161 158 160 160 159 162 159 164 158 166 157 167 156 169 155 170 154 171 153 171 152 172 151 172 150 172 149 172 147 171 146 171 145 170 143 169 142 168 141 166 " />
        <polyline stroke="black" stroke-width="3" stroke-linecap="round" fill="transparent" stroke-linejoin="round" points="140 71 140 71 140 72 139 73 138 74 138 76 137 78 136 80 134 83 133 85 132 88 130 91 128 94 127 97 125 100 123 102 121 105 119 107 117 110 115 112 114 114 112 116 111 118 110 119 108 120 108 121 107 122 " />
        <polyline stroke="black" stroke-width="3" stroke-linecap="round" fill="transparent" stroke-linejoin="round" points="99 94 100 94 100 94 101 94 102 94 103 94 104 94 106 94 107 94 109 94 110 95 112 95 114 96 116 97 118 98 121 99 123 99 125 100 127 101 129 102 131 103 133 104 135 105 137 106 139 107 141 107 143 108 144 109 146 110 148 110 " />
        <polyline stroke="black" stroke-width="3" stroke-linecap="round" fill="transparent" stroke-linejoin="round" points="132 128 127 134 125 137 123 140 121 143 119 145 117 148 115 150 113 152 112 155 110 156 109 158 108 160 107 161 106 162 " />
        <polyline stroke="black" stroke-width="3" stroke-linecap="round" fill="transparent" stroke-linejoin="round" points="105 123 106 123 107 124 108 125 109 126 111 127 112 129 114 130 115 132 117 133 119 135 121 137 123 139 125 141 127 143 129 145 131 148 132 150 134 152 136 154 137 156 139 157 140 159 142 160 143 162 144 163 145 164 " />
        </svg>