<?xml version="1.0" standalone="no"?>
    <svg width="256" height="256" xmlns="http://www.w3.org/2000/svg" version="1.1">
    <polyline stroke="black" stroke-width="3" stroke-linecap="round" fill="transparent" stroke-linejoin="round" points="88.23361206054688 60.76947021484375 97.75833129882813 56.728668212890625 108.4376220703125 53.265098571777344 116.80792236328124 50.090179443359375 123.7349853515625 47.781150817871094 130.37347412109375 46.33800506591797 134.1256103515625 45.7607421875 134.99154663085938 45.7607421875 134.99154663085938 47.203887939453125 130.0848388671875 54.70825958251953 123.15771484375 65.38754272460938 116.23065185546876 76.35545349121094 110.45806884765624 84.72569274902344 107.57174682617188 91.36418151855467 106.417236328125 93.67320251464844 106.417236328125 93.67320251464844 " />
        <polyline stroke="black" stroke-width="3" stroke-linecap="round" fill="transparent" stroke-linejoin="round" points="84.19277954101563 87.90061950683594 81.01785278320313 93.67320251464844 77.84292602539063 100.02305603027344 75.24526977539063 105.50700378417967 73.22488403320313 110.12507629394533 72.07034301757813 113.01136779785156 72.64761352539063 114.16587829589844 77.84292602539063 113.01136779785156 88.81088256835938 109.25918579101563 101.51052856445313 104.64111328125 115.36474609375 99.44580078125 128.35308837890625 93.96183776855467 139.03237915039063 89.34376525878906 146.53671264648438 86.74609375 154.3297119140625 85.59159851074219 160.39093017578125 84.72569274902344 166.4521484375 84.43707275390625 172.802001953125 84.43707275390625 178.28594970703125 85.30294799804688 182.03814697265625 85.59159851074219 183.76983642578125 87.03474426269531 187.52203369140625 91.65280151367188 188.67657470703125 99.7344207763672 187.23345947265625 113.588623046875 185.50164794921875 135.23582458496094 184.05853271484375 156.30577087402344 183.48126220703125 177.66433715820313 182.03814697265625 194.40481567382813 180.594970703125 208.259033203125 179.72906494140625 217.49514770507813 179.44049072265625 223.84503173828125 179.15179443359375 227.0199279785156 178.86322021484375 228.46307373046875 172.2247314453125 228.751708984375 158.3704833984375 219.80416870117188 145.38217163085938 207.6817626953125 138.74371337890625 203.64096069335935 138.74371337890625 203.64096069335935 " />
        <polyline stroke="black" stroke-width="3" stroke-linecap="round" fill="transparent" stroke-linejoin="round" points="82.7496337890625 143.60606384277344 83.61550903320313 153.7080841064453 84.77005004882813 164.3873748779297 86.21316528320313 170.7372283935547 87.94497680664063 176.22117614746094 89.38815307617188 179.39610290527344 89.38815307617188 179.39610290527344 " />
        <polyline stroke="black" stroke-width="3" stroke-linecap="round" fill="transparent" stroke-linejoin="round" points="119.11691284179688 118.78395080566406 121.42596435546876 117.91806030273438 128.64169311523438 115.03176879882813 133.54840087890625 113.01136779785156 139.60958862304688 111.2795867919922 145.67080688476563 110.41371154785156 150.28887939453125 110.12507629394533 153.1751708984375 112.14547729492188 153.75244140625 119.3612060546875 151.15478515625 133.79266357421875 148.26849365234375 150.82180786132813 146.53671264648438 163.521484375 145.67080688476563 173.04624938964844 146.24807739257813 176.79844665527344 146.53671264648438 177.37570190429688 146.53671264648438 177.37570190429688 " />
        <polyline stroke="black" stroke-width="3" stroke-linecap="round" fill="transparent" stroke-linejoin="round" points="117.09652709960938 145.9151153564453 117.09652709960938 151.976318359375 117.09652709960938 161.21246337890625 116.80792236328124 169.00546264648438 115.65338134765624 177.08706665039063 115.07608032226563 180.2620086669922 115.07608032226563 180.2620086669922 " />
        <polyline stroke="black" stroke-width="3" stroke-linecap="round" fill="transparent" stroke-linejoin="round" points="87.94497680664063 145.04922485351563 120.84869384765624 135.52444458007813 154.04107666015625 127.15419006347656 179.15179443359375 121.95887756347656 197.9127197265625 118.78395080566406 210.61236572265625 116.76351928710938 218.98260498046875 116.47491455078124 225.62109375 116.76351928710938 226.487060546875 117.34080505371094 226.487060546875 117.34080505371094 " />
        <polyline stroke="black" stroke-width="3" stroke-linecap="round" fill="transparent" stroke-linejoin="round" points="107.86041259765624 162.65562438964844 125.46676635742188 160.34657287597656 137.30059814453125 158.90342712402344 146.53671264648438 158.61477661132813 154.906982421875 158.03750610351563 161.83404541015625 157.4602813720703 165.00897216796875 157.4602813720703 165.00897216796875 157.4602813720703 " />
        </svg>