<?xml version="1.0" standalone="no"?>
    <svg width="256" height="256" xmlns="http://www.w3.org/2000/svg" version="1.1">
    <polyline stroke="black" stroke-width="3" stroke-linecap="round" fill="transparent" stroke-linejoin="round" points="88.40988159179688 71.8533935546875 102.552734375 64.98397827148438 118.31198120117188 58.92274475097656 132.45489501953125 54.47783660888672 144.17327880859375 52.05333709716797 153.0631103515625 51.64925384521485 158.72021484375 52.86150360107422 160.3365478515625 54.073753356933594 163.1651611328125 58.51866149902344 163.5692138671875 69.83297729492188 153.4671630859375 94.88609313964844 148.6181640625 102.56365966796876 148.6181640625 102.56365966796876 " />
        <polyline stroke="black" stroke-width="3" stroke-linecap="round" fill="transparent" stroke-linejoin="round" points="98.511962890625 102.96775817871094 95.27926635742188 114.28204345703124 93.25888061523438 123.9800262451172 92.85479736328124 131.6575927734375 95.27926635742188 133.6780242919922 98.916015625 134.08209228515625 110.23031616210938 132.46575927734375 132.05078125 126.80862426757813 146.19369506835938 124.38412475585938 152.6590576171875 123.9800262451172 163.97332763671875 125.59635925292967 173.2672119140625 130.041259765625 180.1365966796875 136.506591796875 186.1978759765625 150.2454071044922 185.7938232421875 176.9148406982422 183.3692626953125 183.3801727294922 175.28759765625 194.69448852539065 153.87127685546875 206.81695556640625 135.283447265625 210.8577880859375 135.283447265625 210.8577880859375 " />
        <polyline stroke="black" stroke-width="3" stroke-linecap="round" fill="transparent" stroke-linejoin="round" points="61.33636474609375 172.8740234375 62.144500732421875 181.3597412109375 63.356781005859375 187.8250732421875 63.356781005859375 189.03732299804688 63.356781005859375 189.84548950195313 63.356781005859375 189.44140625 63.356781005859375 187.01690673828125 63.356781005859375 185.8046875 63.760833740234375 182.97607421875 66.58941650390625 176.9148406982422 69.41796875 174.08627319335938 79.92416381835938 165.60052490234375 106.59359741210938 149.84130859375 115.07931518554688 146.20457458496094 136.09164428710938 141.75967407226563 141.34469604492188 141.75967407226563 151.44677734375 144.18417358398438 153.4671630859375 145.80050659179688 157.10394287109375 157.92295837402344 153.0631103515625 174.4903564453125 142.55694580078125 190.24957275390625 142.55694580078125 190.24957275390625 " />
        <polyline stroke="black" stroke-width="3" stroke-linecap="round" fill="transparent" stroke-linejoin="round" points="46.38531494140625 179.74343872070313 54.87103271484375 176.10667419433594 75.479248046875 167.62095642089844 87.1976318359375 163.98419189453125 98.511962890625 160.75155639648438 109.82626342773438 157.92295837402344 139.32427978515625 153.88214111328125 147.80999755859375 153.073974609375 165.9937744140625 151.8617401123047 169.6304931640625 151.8617401123047 174.07537841796875 151.8617401123047 174.883544921875 151.8617401123047 174.883544921875 151.8617401123047 " />
        <polyline stroke="black" stroke-width="3" stroke-linecap="round" fill="transparent" stroke-linejoin="round" points="118.716064453125 155.90255737304688 117.50384521484376 160.3474578857422 115.4833984375 166.00462341308594 109.42218017578124 178.93527221679688 109.42218017578124 178.93527221679688 " />
        <polyline stroke="black" stroke-width="3" stroke-linecap="round" fill="transparent" stroke-linejoin="round" points="85.9853515625 203.9883728027344 94.47113037109376 200.35162353515625 102.95684814453124 196.71490478515625 120.73651123046876 190.65365600585935 128.4140625 188.63323974609375 142.55694580078125 187.01690673828125 146.59774780273438 186.61285400390625 146.59774780273438 186.61285400390625 " />
        </svg>