<?xml version="1.0" standalone="no"?>
    <svg width="256" height="256" xmlns="http://www.w3.org/2000/svg" version="1.1">
    <polyline stroke="black" stroke-width="3" stroke-linecap="round" fill="transparent" stroke-linejoin="round" points="56.202667236328125 75.68264770507813 63.4298095703125 73.12411499023438 70.65695190429688 70.56558227539063 91.52032470703124 64.130859375 105.08856201171876 61.02958679199219 139.95623779296875 57.1773681640625 164.74407958984375 58.316131591796875 173.3333740234375 59.305755615234375 176.9654541015625 60.72314453125 177.0408935546875 60.77777099609375 177.0460205078125 60.781524658203125 177.0474853515625 60.782623291015625 " />
        <polyline stroke="black" stroke-width="3" stroke-linecap="round" fill="transparent" stroke-linejoin="round" points="84.7127685546875 108.84042358398435 82.48800659179688 122.72808837890624 80.26324462890625 136.61575317382813 76.11419677734375 151.49392700195313 71.2503662109375 164.5020751953125 60.699310302734375 191.33547973632813 52.437591552734375 211.98928833007813 50.49456787109375 216.9300537109375 49.1351318359375 223.99508666992188 49.68988037109375 225.100341796875 49.745330810546875 225.21087646484375 " />
        <polyline stroke="black" stroke-width="3" stroke-linecap="round" fill="transparent" stroke-linejoin="round" points="93.88580322265624 165.48420715332034 100.9765625 173.41018676757813 108.06732177734376 181.3361663818359 130.11801147460938 202.46124267578125 135.81463623046875 208.40142822265625 153.8021240234375 216.70355224609375 158.5931396484375 216.24581909179688 " />
        <polyline stroke="black" stroke-width="3" stroke-linecap="round" fill="transparent" stroke-linejoin="round" points="157.668701171875 80.295654296875 154.9517822265625 92.3359375 152.23486328125 104.376220703125 146.89678955078125 138.62277221679688 144.75106811523438 156.50265502929688 140.94537353515625 187.64474487304688 138.15133666992188 210.4908447265625 137.01766967773438 215.72247314453125 130.47982788085938 221.67703247070313 129.8260498046875 222.27252197265625 " />
        <polyline stroke="black" stroke-width="3" stroke-linecap="round" fill="transparent" stroke-linejoin="round" points="164.0130615234375 149.25172424316406 168.73944091796875 157.88723754882813 173.4658203125 166.5227508544922 185.443115234375 185.85189819335935 192.44036865234375 195.38619995117188 203.7354736328125 210.2896728515625 205.12200927734375 215.76431274414065 205.2607421875 216.31182861328125 " />
        </svg>