<?xml version="1.0" standalone="no"?>
    <svg width="256" height="256" xmlns="http://www.w3.org/2000/svg" version="1.1">
    <polyline stroke="black" stroke-width="3" stroke-linecap="round" fill="transparent" stroke-linejoin="round" points="38.57568359375 115.24249267578125 56.718017578125 107.71170043945313 74.8603515625 100.180908203125 85.814208984375 96.75784301757813 124.1527099609375 86.48860168457031 148.1142578125 80.66935729980469 165.572021484375 75.53472900390625 173.787353515625 72.45396423339844 173.787353515625 72.45396423339844 " />
        <polyline stroke="black" stroke-width="3" stroke-linecap="round" fill="transparent" stroke-linejoin="round" points="95.74121093750003 109.7655029296875 91.63348388671876 118.66552734375 87.5257568359375 127.5655517578125 77.25653076171875 156.66172790527344 73.49114990234375 167.27328491210938 70.752685546875 175.14634704589844 66.30267333984375 186.78485107421875 63.906494140625 192.6040954589844 63.906494140625 192.6040954589844 " />
        <polyline stroke="black" stroke-width="3" stroke-linecap="round" fill="transparent" stroke-linejoin="round" points="97.11038208007815 172.75021362304688 102.92962646484376 173.09251403808594 108.74887084960938 173.434814453125 116.9642333984375 171.03866577148438 116.9642333984375 171.03866577148438 " />
        <polyline stroke="black" stroke-width="3" stroke-linecap="round" fill="transparent" stroke-linejoin="round" points="162.83364868164063 92.30781555175784 152.5643310546875 117.63861083984376 142.29501342773438 142.9694061279297 137.160400390625 154.60787963867188 133.052734375 164.53482055664063 125.8642578125 180.28097534179688 122.78350830078124 186.78485107421875 119.01806640625 195.342529296875 119.01806640625 195.342529296875 " />
        <polyline stroke="black" stroke-width="3" stroke-linecap="round" fill="transparent" stroke-linejoin="round" points="150.16802978515625 180.623291015625 155.64501953125 184.388671875 161.12200927734375 188.154052734375 174.8143310546875 200.13482666015625 174.8143310546875 200.13482666015625 " />
        </svg>