<?xml version="1.0" standalone="no"?>
    <svg width="256" height="256" xmlns="http://www.w3.org/2000/svg" version="1.1">
    <polyline stroke="black" stroke-width="3" stroke-linecap="round" fill="transparent" stroke-linejoin="round" points="92.33337402343753 109 119.66668701171876 103 147 97 180.3333740234375 89.66667175292969 199.66668701171875 85.66667175292969 207 84.33334350585938 209.66668701171875 85 209 85.66667175292969 209 85.66667175292969 " />
        <polyline stroke="black" stroke-width="3" stroke-linecap="round" fill="transparent" stroke-linejoin="round" points="124.33337402343753 111.66668701171875 117.66668701171876 129.66668701171875 111 147.66668701171875 103 163 89.66668701171875 187.66668701171875 80.3333740234375 201.66668701171875 75 209 73.66668701171875 210.33334350585935 73.66668701171875 210.33334350585935 " />
        <polyline stroke="black" stroke-width="3" stroke-linecap="round" fill="transparent" stroke-linejoin="round" points="109.66668701171876 164.33334350585938 115.66668701171876 168.33334350585938 121.66668701171876 172.33334350585938 129 175 137 176.33334350585938 141.66668701171875 176.33334350585938 141.66668701171875 176.33334350585938 " />
        <polyline stroke="black" stroke-width="3" stroke-linecap="round" fill="transparent" stroke-linejoin="round" points="180.3333740234375 110.33331298828125 172.3333740234375 127 164.3333740234375 143.66668701171875 155.66668701171875 159.66668701171875 138.3333740234375 187.66668701171875 125 205 117.66668701171876 215 115 217.66668701171875 115 217.66668701171875 " />
        <polyline stroke="black" stroke-width="3" stroke-linecap="round" fill="transparent" stroke-linejoin="round" points="166.3333740234375 177.66665649414065 180.3333740234375 185 194.3333740234375 192.33334350585935 207 197 211.66668701171875 199.66668701171875 211.66668701171875 199.66668701171875 " />
        </svg>