<?xml version="1.0" standalone="no"?>
    <svg width="256" height="256" xmlns="http://www.w3.org/2000/svg" version="1.1">
    <polyline stroke="black" stroke-width="3" stroke-linecap="round" fill="transparent" stroke-linejoin="round" points="60.5732421875 77.18223571777344 69.28363037109375 74.98838806152344 77.9940185546875 72.79454040527344 88.460205078125 70.3360595703125 103.24398803710938 67.37380981445313 114.78964233398438 65.01736450195313 141.19525146484375 60.6451416015625 167.942138671875 56.87956237792969 182.59228515625 52.14605712890625 189.8963623046875 46.67723083496094 192.43994140625 44.7523193359375 193.6778564453125 43.551483154296875 193.6890869140625 43.540550231933594 194.351318359375 42.78196716308594 194.43792724609375 42.6827392578125 " />
        <polyline stroke="black" stroke-width="3" stroke-linecap="round" fill="transparent" stroke-linejoin="round" points="80.03350830078125 123.03399658203125 78.3856201171875 132.1001434326172 76.73773193359375 141.16629028320313 71.00399780273438 163.9442596435547 62.65948486328125 186.80416870117188 58.794921875 192.87982177734375 50.302001953125 205.72293090820313 46.78021240234375 210.3062744140625 41.6776123046875 216.44866943359375 41.1673583984375 217.06292724609375 " />
        <polyline stroke="black" stroke-width="3" stroke-linecap="round" fill="transparent" stroke-linejoin="round" points="80.971923828125 143.3896942138672 84.4615478515625 149.73643493652344 87.951171875 156.0831756591797 98.07684326171876 169.74935913085938 103.94113159179688 176.85595703125 108.85955810546876 182.6517333984375 116.65972900390624 191.54953002929688 120.97576904296876 198.491455078125 122.02377319335938 200.47348022460935 122.92416381835938 202.84213256835935 122.94735717773438 202.9764404296875 122.95538330078124 203.0230407714844 122.95654296875 203.02999877929688 " />
        <polyline stroke="black" stroke-width="3" stroke-linecap="round" fill="transparent" stroke-linejoin="round" points="148.446044921875 84.56958007812497 147.00839233398438 93.36407470703124 145.57073974609375 102.1585693359375 144.04330444335938 112.30767822265624 139.03182983398438 133.13052368164063 126.368408203125 153.9731903076172 123.509765625 161.94573974609375 120.4779052734375 177.78929138183594 119.91790771484376 183.3719940185547 118.82479858398438 188.78155517578125 117.51278686523438 191.432373046875 116.355224609375 193.06524658203125 116.257568359375 193.20291137695313 " />
        <polyline stroke="black" stroke-width="3" stroke-linecap="round" fill="transparent" stroke-linejoin="round" points="157.390869140625 136.50094604492188 161.06072998046875 140.9849853515625 164.7305908203125 145.46902465820313 169.87457275390625 152.94024658203125 175.2462158203125 160.50816345214844 190.50665283203125 178.8480682373047 197.53955078125 186.13839721679688 209.114013671875 194.71954345703125 214.8785400390625 197.46868896484375 215.72747802734375 197.12060546875 215.81475830078125 197.0848388671875 215.81793212890625 197.08355712890625 " />
        </svg>