<?xml version="1.0" standalone="no"?>
    <svg width="256" height="256" xmlns="http://www.w3.org/2000/svg" version="1.1">
    <polyline stroke="black" stroke-width="3" stroke-linecap="round" fill="transparent" stroke-linejoin="round" points="61.69140625 108.32974243164063 77.1890869140625 101.20919799804688 86.40390014648438 97.02061462402344 96.45648193359376 92.83206176757813 107.34674072265624 88.64349365234375 140.43637084960938 78.17208862304688 159.70379638671875 73.14581298828125 168.499755859375 71.05152893066406 180.6466064453125 68.53839111328125 186.09173583984375 67.28182983398438 187.76715087890625 66.86296081542969 186.929443359375 66.86296081542969 175.62030029296875 71.05152893066406 154.677490234375 80.266357421875 137.92327880859375 89.06234741210938 126.61410522460938 96.6017608642578 116.14276123046876 106.23545837402344 103.99591064453124 122.1519775390625 90.17364501953124 145.1890869140625 75.09481811523438 170.32046508789063 64.6234130859375 188.7501220703125 58.340576171875 198.38385009765625 56.665130615234375 200.4781188964844 56.665130615234375 200.4781188964844 " />
        <polyline stroke="black" stroke-width="3" stroke-linecap="round" fill="transparent" stroke-linejoin="round" points="109.44100952148438 138.90625 117.39926147460938 147.70223999023438 120.7501220703125 151.471923828125 124.10101318359376 155.24163818359375 127.032958984375 158.1736297607422 131.640380859375 163.19989013671875 133.31585693359375 164.03762817382813 133.31585693359375 164.03762817382813 " />
        <polyline stroke="black" stroke-width="3" stroke-linecap="round" fill="transparent" stroke-linejoin="round" points="169.3375244140625 96.6017608642578 158.44720458984375 120.4765625 153.0020751953125 133.87997436523438 147.55694580078125 146.02679443359375 137.08554077148438 166.55075073242188 129.12728881835938 177.85986328125 126.61410522460938 181.21072387695313 126.61410522460938 181.21072387695313 " />
        <polyline stroke="black" stroke-width="3" stroke-linecap="round" fill="transparent" stroke-linejoin="round" points="155.5152587890625 156.49819946289063 168.91864013671875 161.10562133789063 176.4580078125 164.87533569335938 196.5631103515625 177.44102478027344 207.0345458984375 187.91241455078125 212.8985595703125 198.80267333984375 212.8985595703125 198.80267333984375 " />
        </svg>