<?xml version="1.0" standalone="no"?>
    <svg width="256" height="256" xmlns="http://www.w3.org/2000/svg" version="1.1">
    <polyline stroke="black" stroke-width="3" stroke-linecap="round" fill="transparent" stroke-linejoin="round" points="60.9437255859375 102.29833984375001 70.66851806640625 97.80996704101563 80.393310546875 93.32159423828124 104.70529174804688 83.22276306152344 132.757568359375 74.24603271484375 146.59674072265625 70.50570678710938 168.29052734375 64.52120971679688 187.7401123046875 59.6588134765625 194.0986328125 58.162689208984375 194.0986328125 58.162689208984375 " />
        <polyline stroke="black" stroke-width="3" stroke-linecap="round" fill="transparent" stroke-linejoin="round" points="87.4998779296875 98.93205261230467 81.141357421875 108.65684509277344 74.7828369140625 118.3816375732422 68.05029296875 129.60256958007813 61.691741943359375 141.571533203125 45.98248291015625 180.8447723388672 42.6162109375 190.943603515625 41.868133544921875 193.56182861328125 41.868133544921875 193.56182861328125 " />
        <polyline stroke="black" stroke-width="3" stroke-linecap="round" fill="transparent" stroke-linejoin="round" points="89.37008666992188 151.29632568359375 97.22470092773438 160.6470947265625 105.07931518554688 169.99786376953125 108.81967163085938 173.3641357421875 121.53668212890624 177.10446166992188 121.53668212890624 177.10446166992188 " />
        <polyline stroke="black" stroke-width="3" stroke-linecap="round" fill="transparent" stroke-linejoin="round" points="168.66455078125 87.33709716796876 163.4281005859375 100.05413818359376 158.191650390625 112.77117919921876 152.20721435546875 126.61032104492188 146.22271728515625 139.32736206054688 135.74984741210938 162.1432342529297 128.26922607421875 177.85252380371094 123.78085327148438 187.20330810546875 122.65878295898438 189.82150268554688 122.65878295898438 189.82150268554688 " />
        <polyline stroke="black" stroke-width="3" stroke-linecap="round" fill="transparent" stroke-linejoin="round" points="161.5579833984375 158.77694702148438 167.16845703125 161.39517211914063 172.7789306640625 164.01339721679688 185.8699951171875 170.74594116210938 193.724609375 175.98236083984375 201.95330810546875 182.34088134765625 201.95330810546875 182.34088134765625 " />
        </svg>