<?xml version="1.0" standalone="no"?>
    <svg width="256" height="256" xmlns="http://www.w3.org/2000/svg" version="1.1">
    <polyline stroke="black" stroke-width="3" stroke-linecap="round" fill="transparent" stroke-linejoin="round" points="66.62127685546875 89.25155639648438 84.4150390625 83.71049499511719 109.59695434570313 75.67205810546875 137.38031005859375 66.80116271972656 157.46337890625 60.60975646972656 171.9013671875 57.331939697265625 180.06988525390625 56.3433837890625 186.57342529296875 56.551513671875 187.3538818359375 56.73359680175781 187.3538818359375 56.73359680175781 " />
        <polyline stroke="black" stroke-width="3" stroke-linecap="round" fill="transparent" stroke-linejoin="round" points="113.75927734375 32.93046569824219 115.13803100585938 48.61712646484375 112.79672241210938 66.17681884765625 106.37118530273438 85.40142822265625 97.47427368164063 102.15469360351563 86.57427978515625 117.26902770996094 75.5701904296875 130.95257568359375 67.79193115234375 138.704833984375 61.47039794921875 143.59555053710938 59.31121826171875 144.4800262451172 56.50164794921875 142.21678161621094 56.50164794921875 142.21678161621094 " />
        <polyline stroke="black" stroke-width="3" stroke-linecap="round" fill="transparent" stroke-linejoin="round" points="119.95065307617188 72.0040283203125 131.42303466796875 76.63459777832031 143.67578125 83.65847778320313 157.17724609375 92.1651611328125 168.1292724609375 99.70932006835938 178.24884033203125 105.84870910644533 186.0792236328125 110.50529479980467 193.233154296875 113.78309631347656 197.08331298828125 114.9017333984375 198.59210205078125 115.31796264648438 199.00836181640625 115.52606201171876 199.00836181640625 115.52606201171876 " />
        <polyline stroke="black" stroke-width="3" stroke-linecap="round" fill="transparent" stroke-linejoin="round" points="97.05807495117188 129.72991943359375 106.111083984375 125.74969482421876 116.75091552734376 121.74348449707033 127.494873046875 118.38763427734376 137.35427856445313 117.00888061523438 143.88388061523438 116.150390625 146.92758178710938 115.8122100830078 149.39892578125 115.8382568359375 150.751708984375 116.25447082519533 151.506103515625 117.81532287597656 148.74859619140625 124.16282653808594 142.40106201171875 132.3833465576172 133.13998413085938 140.05760192871094 122.70819091796876 148.38221740722656 114.59173583984376 156.52468872070313 105.14852905273438 165.42160034179688 99.555419921875 170.9366455078125 96.6678466796875 174.2664794921875 95.65325927734376 175.6712646484375 95.49716186523438 175.95741271972656 95.21102905273438 176.84188842773438 97.52630615234376 178.94906616210938 100.28384399414063 181.0562438964844 103.89984130859376 183.00732421875 109.46688842773438 183.18939208984375 115.55426025390624 183.44952392578125 122.23992919921876 183.42352294921875 131.76119995117188 183.60562133789065 139.95571899414063 183.241455078125 146.433349609375 183.31948852539065 154.00347900390625 183.16339111328125 163.3946533203125 183.241455078125 171.40704345703125 183.44952392578125 177.91070556640625 183.00732421875 182.95751953125 182.98129272460935 190.1114501953125 182.6691131591797 196.328857421875 181.86268615722656 200.46514892578125 181.7586212158203 205.095703125 181.49847412109375 207.33294677734375 181.29037475585935 208.841796875 180.9261474609375 210.71478271484375 180.2758026123047 211.65130615234375 179.8075408935547 212.14556884765625 179.2872772216797 212.30169677734375 178.27268981933594 209.88232421875 173.19989013671875 205.66802978515625 166.2800750732422 199.1124267578125 157.38314819335938 190.52764892578125 147.73182678222656 181.6307373046875 140.0836181640625 181.6307373046875 140.0836181640625 " />
        </svg>