<?xml version="1.0" standalone="no"?>
    <svg width="256" height="256" xmlns="http://www.w3.org/2000/svg" version="1.1">
    <polyline stroke="black" stroke-width="3" stroke-linecap="round" fill="transparent" stroke-linejoin="round" points="82.540771484375 56.604949951171875 84.78125 64.22265625 87.021728515625 71.84036254882813 91.0546875 88.42008972167969 92.84710693359376 96.03781127929688 95.53564453125 115.75424194335938 95.98382568359376 122.92385864257813 95.98382568359376 122.92385864257813 " />
        <polyline stroke="black" stroke-width="3" stroke-linecap="round" fill="transparent" stroke-linejoin="round" points="102.25723266601563 40.02520751953125 108.08251953125 36.88850402832031 113.90780639648438 33.751800537109375 120.62933349609376 31.063194274902344 135.41668701171875 26.582176208496097 143.03436279296875 25.237876892089844 156.029296875 24.789779663085938 164.9913330078125 26.582176208496097 171.71282958984375 29.718894958496097 176.6419677734375 35.096099853515625 181.1229248046875 50.77962493896485 180.22674560546875 70.94415283203125 172.6090087890625 91.55679321289063 167.2318115234375 100.9669189453125 167.2318115234375 100.9669189453125 " />
        <polyline stroke="black" stroke-width="3" stroke-linecap="round" fill="transparent" stroke-linejoin="round" points="104.04965209960938 84.38720703125 109.42684936523438 81.25048828125 114.80404663085938 78.11376953125 126.45465087890624 72.736572265625 146.17108154296875 66.46315002441406 158.7178955078125 63.326446533203125 169.02423095703125 61.0859375 172.160888671875 60.637847900390625 172.160888671875 60.637847900390625 " />
        <polyline stroke="black" stroke-width="3" stroke-linecap="round" fill="transparent" stroke-linejoin="round" points="121.97360229492188 51.22770690917969 122.42172241210938 57.501129150390625 122.86984252929688 63.77455139160156 122.86984252929688 71.39225769042969 122.86984252929688 79.90617370605469 119.28500366210938 102.7593231201172 117.94073486328124 110.82513427734376 117.94073486328124 110.82513427734376 " />
        <polyline stroke="black" stroke-width="3" stroke-linecap="round" fill="transparent" stroke-linejoin="round" points="102.25720214843753 120.68334960937501 108.97869873046876 117.09854125976563 115.7001953125 113.51373291015624 122.86984252929688 110.37704467773438 144.378662109375 103.655517578125 151.54827880859375 102.31121826171876 165.43939208984375 100.9669189453125 175.297607421875 100.9669189453125 180.22674560546875 101.86312866210938 181.1229248046875 102.31121826171876 181.1229248046875 102.31121826171876 " />
        <polyline stroke="black" stroke-width="3" stroke-linecap="round" fill="transparent" stroke-linejoin="round" points="135.86477661132813 135.91873168945313 136.3128662109375 143.08837890625 136.76095581054688 150.25802612304688 136.76095581054688 158.32382202148438 136.3128662109375 175.35165405273438 135.41668701171875 182.0731658935547 131.83184814453125 198.20480346679688 129.14324951171875 204.03009033203125 127.79891967773438 205.822509765625 124.6622314453125 207.16680908203125 121.9736328125 207.16680908203125 121.9736328125 207.16680908203125 " />
        <polyline stroke="black" stroke-width="3" stroke-linecap="round" fill="transparent" stroke-linejoin="round" points="58.791351318359375 149.8098907470703 68.20150756835938 158.77191162109375 77.61166381835938 167.7339324951172 96.431884765625 179.83267211914063 122.86984252929688 182.9693603515625 135.41668701171875 180.72886657714844 135.41668701171875 180.72886657714844 " />
        <polyline stroke="black" stroke-width="3" stroke-linecap="round" fill="transparent" stroke-linejoin="round" points="204.4241943359375 142.64027404785156 198.598876953125 149.80990600585938 192.7735595703125 156.9795379638672 185.60394287109375 166.83773803710938 169.92041015625 187.89846801757813 169.92041015625 187.89846801757813 " />
        </svg>