<?xml version="1.0" standalone="no"?>
    <svg width="256" height="256" xmlns="http://www.w3.org/2000/svg" version="1.1">
    <polyline stroke="black" stroke-width="3" stroke-linecap="round" fill="transparent" stroke-linejoin="round" points="64.85549926757813 74.53343200683592 67.4991455078125 82.37490844726563 70.14279174804688 90.21638488769533 75.41793823242188 105.78286743164063 79.36383056640625 117.3716278076172 79.42807006835938 121.02066040039063 79.43450927734375 121.38552856445313 " />
        <polyline stroke="black" stroke-width="3" stroke-linecap="round" fill="transparent" stroke-linejoin="round" points="97.44116210937499 68.72039794921875 104.99838256835938 66.61965942382813 112.55560302734376 64.5189208984375 127.23361206054688 61.648193359375 136.96542358398438 60.15931701660156 148.69989013671875 60.770172119140625 161.07568359375 63.72807312011719 167.1209716796875 68.51983642578125 166.37786865234375 71.70538330078125 166.147705078125 88.63140869140625 163.470458984375 112.08154296875 156.5604248046875 121.85943603515624 142.6849365234375 134.18341064453125 128.14404296875 139.71438598632813 126.69000244140624 140.2674560546875 " />
        <polyline stroke="black" stroke-width="3" stroke-linecap="round" fill="transparent" stroke-linejoin="round" points="111.04019165039065 80.61346435546876 112.82049560546876 91.6610107421875 114.60079956054688 102.70855712890624 115.92816162109376 114.07431030273438 116.77780151367188 124.1597900390625 116.48178100585938 135.71812438964844 116.49554443359376 136.81747436523438 " />
        <polyline stroke="black" stroke-width="3" stroke-linecap="round" fill="transparent" stroke-linejoin="round" points="91.27777099609375 102.21643066406253 110.15805053710938 99.26165771484376 129.038330078125 96.306884765625 137.3704833984375 95.5321044921875 141.08004760742188 95.44927978515624 141.11376953125 95.4485321044922 141.115966796875 95.448486328125 " />
        <polyline stroke="black" stroke-width="3" stroke-linecap="round" fill="transparent" stroke-linejoin="round" points="95.69525146484371 136.54815673828125 102.55426025390624 134.68814086914063 109.41326904296876 132.828125 124.45330810546876 129.99581909179688 142.0400390625 126.67985534667967 147.4691162109375 125.99380493164063 159.07958984375 125.4305419921875 162.217041015625 125.8067626953125 162.2454833984375 125.81016540527344 " />
        <polyline stroke="black" stroke-width="3" stroke-linecap="round" fill="transparent" stroke-linejoin="round" points="118.31268310546876 140.1247100830078 119.16546630859376 151.54342651367188 120.01824951171876 162.96214294433594 121.05953979492188 175.81393432617188 122.05712890625 187.62820434570313 122.819091796875 203.09478759765625 122.88543701171876 210.1876220703125 122.46005249023438 212.11822509765625 120.85955810546876 212.65866088867188 120.24703979492188 212.8194274902344 118.55429077148438 212.2762756347656 116.87774658203124 211.72625732421875 106.7640380859375 203.265625 105.97137451171876 202.024658203125 " />
        <polyline stroke="black" stroke-width="3" stroke-linecap="round" fill="transparent" stroke-linejoin="round" points="64.96588134765625 175.468994140625 71.12582397460938 178.28843688964844 77.2857666015625 181.10787963867188 91.09051513671876 186.6585998535156 99.7449951171875 188.04568481445313 109.68292236328124 187.40289306640625 111.52294921875 186.77484130859375 " />
        <polyline stroke="black" stroke-width="3" stroke-linecap="round" fill="transparent" stroke-linejoin="round" points="170.5611572265625 147.94862365722656 158.25286865234375 154.70993041992188 145.944580078125 161.4712371826172 140.63397216796875 164.33775329589844 " />
        </svg>