<?xml version="1.0" standalone="no"?>
    <svg width="256" height="256" xmlns="http://www.w3.org/2000/svg" version="1.1">
    <polyline stroke="black" stroke-width="3" stroke-linecap="round" fill="transparent" stroke-linejoin="round" points="83.628662109375 61.61590576171875 84.36260986328125 82.16656494140625 85.83050537109375 91.70794677734376 88.0323486328125 96.11163330078124 90.2342529296875 101.2493133544922 90.9681396484375 101.2493133544922 90.9681396484375 98.31349182128906 90.9681396484375 98.31349182128906 " />
        <polyline stroke="black" stroke-width="3" stroke-linecap="round" fill="transparent" stroke-linejoin="round" points="85.0965576171875 49.13874816894531 118.8583984375 34.459716796875 136.47314453125 32.257850646972656 149.684326171875 31.523895263671875 156.289794921875 31.523895263671875 160.693603515625 31.523895263671875 162.1614990234375 31.523895263671875 162.1614990234375 32.99180603027344 162.1614990234375 37.39551544189453 160.693603515625 47.67082977294922 160.693603515625 68.22149658203125 161.427490234375 75.56100463867188 162.1614990234375 79.23077392578125 162.1614990234375 82.9005126953125 162.1614990234375 85.10237121582031 162.1614990234375 85.10237121582031 " />
        <polyline stroke="black" stroke-width="3" stroke-linecap="round" fill="transparent" stroke-linejoin="round" points="120.32623291015624 37.39551544189453 119.59222412109376 53.542449951171875 119.59222412109376 70.42332458496094 121.06011962890624 79.96470642089844 121.79412841796876 84.36843872070313 122.52813720703124 88.77212524414063 123.26202392578124 90.2400360107422 123.26202392578124 90.2400360107422 " />
        <polyline stroke="black" stroke-width="3" stroke-linecap="round" fill="transparent" stroke-linejoin="round" points="94.63787841796876 70.42332458496094 119.59222412109376 68.22149658203125 137.2071533203125 67.48751831054688 146.74853515625 67.48751831054688 151.1522216796875 67.48751831054688 151.88623046875 68.22149658203125 151.88623046875 68.22149658203125 " />
        <polyline stroke="black" stroke-width="3" stroke-linecap="round" fill="transparent" stroke-linejoin="round" points="88.0323486328125 90.2400360107422 111.51885986328124 86.57026672363281 132.8033447265625 84.36843872070313 148.9503173828125 84.36843872070313 159.2257080078125 84.36843872070313 162.1614990234375 85.83631896972656 162.1614990234375 85.83631896972656 " />
        <polyline stroke="black" stroke-width="3" stroke-linecap="round" fill="transparent" stroke-linejoin="round" points="124.72991943359376 93.9097900390625 125.4638671875 112.99252319335938 126.9317626953125 137.21292114257813 128.399658203125 159.23147583007813 128.399658203125 183.45187377929688 127.665771484375 192.25927734375 125.4638671875 195.92904663085935 123.26202392578124 198.1309509277344 112.25274658203124 192.9932556152344 104.1793212890625 185.6537170410156 104.1793212890625 185.6537170410156 " />
        <polyline stroke="black" stroke-width="3" stroke-linecap="round" fill="transparent" stroke-linejoin="round" points="56.47247314453125 146.0203399658203 74.0872802734375 149.69009399414063 74.0872802734375 149.69009399414063 " />
        <polyline stroke="black" stroke-width="3" stroke-linecap="round" fill="transparent" stroke-linejoin="round" points="189.317626953125 105.65299987792967 181.244140625 121.79994201660156 170.23486328125 138.68081665039063 162.8953857421875 151.1580047607422 158.49169921875 162.1672821044922 158.49169921875 162.1672821044922 " />
        </svg>