<?xml version="1.0" standalone="no"?>
    <svg width="256" height="256" xmlns="http://www.w3.org/2000/svg" version="1.1">
    <polyline stroke="black" stroke-width="3" stroke-linecap="round" fill="transparent" stroke-linejoin="round" points="83 44 88 66 93 88 97 112 100 129 103 134 103 134 " />
        <polyline stroke="black" stroke-width="3" stroke-linecap="round" fill="transparent" stroke-linejoin="round" points="94 51 104 51 114 51 135 46 155 46 171 47 179 57 182 70 183 91 182 110 171 123 165 127 165 127 " />
        <polyline stroke="black" stroke-width="3" stroke-linecap="round" fill="transparent" stroke-linejoin="round" points="137 57 137 72 137 87 137 106 137 112 137 112 " />
        <polyline stroke="black" stroke-width="3" stroke-linecap="round" fill="transparent" stroke-linejoin="round" points="109 99 127 96 145 93 153 92 167 92 171 92 171 95 171 95 " />
        <polyline stroke="black" stroke-width="3" stroke-linecap="round" fill="transparent" stroke-linejoin="round" points="112 140 128 137 144 134 158 132 170 129 173 129 173 129 " />
        <polyline stroke="black" stroke-width="3" stroke-linecap="round" fill="transparent" stroke-linejoin="round" points="132 142 132 156 132 170 133 184 135 199 137 208 137 214 134 217 129 218 129 218 " />
        <polyline stroke="black" stroke-width="3" stroke-linecap="round" fill="transparent" stroke-linejoin="round" points="73 166 88 174 103 182 113 187 113 187 " />
        <polyline stroke="black" stroke-width="3" stroke-linecap="round" fill="transparent" stroke-linejoin="round" points="196 176 191 179 186 182 169 197 169 197 " />
        </svg>