<?xml version="1.0" standalone="no"?>
    <svg width="256" height="256" xmlns="http://www.w3.org/2000/svg" version="1.1">
    <polyline stroke="black" stroke-width="3" stroke-linecap="round" fill="transparent" stroke-linejoin="round" points="81.74716186523438 106.82443237304688 81.33294677734375 122.15177917480467 80.918701171875 134.57937622070313 80.918701171875 143.69293212890625 80.09017944335938 156.53477478027344 79.26165771484375 160.2630615234375 78.847412109375 160.2630615234375 78.847412109375 160.2630615234375 " />
        <polyline stroke="black" stroke-width="3" stroke-linecap="round" fill="transparent" stroke-linejoin="round" points="95.00326538085938 81.96923828125 102.87411499023438 78.240966796875 112.40191650390624 74.09843444824219 130.6290283203125 67.8846435546875 147.19915771484375 64.1563720703125 153.4129638671875 63.327850341796875 162.52655029296875 62.913604736328125 165.42626953125 63.327850341796875 171.225830078125 69.54165649414063 172.8828125 86.52603149414063 166.6690673828125 110.13845825195313 155.4842529296875 131.6796112060547 152.170166015625 137.06488037109375 152.170166015625 137.06488037109375 " />
        <polyline stroke="black" stroke-width="3" stroke-linecap="round" fill="transparent" stroke-linejoin="round" points="102.87411499023438 106.82443237304688 111.98764038085938 103.92465209960938 120.68698120117188 101.43913269042967 142.64239501953125 95.6396026611328 152.99871826171875 93.56832885742188 158.79827880859375 92.73982238769533 160.8695068359375 92.73982238769533 160.8695068359375 92.73982238769533 " />
        <polyline stroke="black" stroke-width="3" stroke-linecap="round" fill="transparent" stroke-linejoin="round" points="98.73153686523438 147.83547973632813 106.1881103515625 145.34996032714844 114.05892944335938 142.86444091796875 127.31503295898438 137.89341735839844 138.08563232421875 134.16513061523438 145.54217529296875 131.26535034179688 148.02767944335938 130.43685913085938 150.92742919921875 129.60833740234375 150.92742919921875 129.60833740234375 " />
        <polyline stroke="black" stroke-width="3" stroke-linecap="round" fill="transparent" stroke-linejoin="round" points="121.92974853515624 169.3766326904297 117.78720092773438 176.41893005371094 109.087890625 189.26077270507813 100.38861083984376 197.54583740234375 95.831787109375 200.85986328125 83.40423583984375 206.24514770507813 71.390869140625 209.1449279785156 63.105804443359375 209.97341918945313 58.9632568359375 209.97341918945313 57.72052001953125 209.1449279785156 60.206024169921875 207.4879150390625 76.776123046875 202.93112182617188 105.77386474609376 195.88882446289065 132.70028686523438 190.5035400390625 154.241455078125 187.603759765625 172.05438232421875 186.7752685546875 186.138916015625 187.18951416015625 200.6378173828125 190.08929443359375 200.6378173828125 190.08929443359375 " />
        </svg>