<?xml version="1.0" standalone="no"?>
    <svg width="256" height="256" xmlns="http://www.w3.org/2000/svg" version="1.1">
    <polyline stroke="black" stroke-width="3" stroke-linecap="round" fill="transparent" stroke-linejoin="round" points="95.62728881835938 82.904052734375 99.16522216796876 96.79571533203124 101.63656616210938 106.2129364013672 103.24948120117188 109.12654113769533 103.24948120117188 109.12654113769533 " />
        <polyline stroke="black" stroke-width="3" stroke-linecap="round" fill="transparent" stroke-linejoin="round" points="110.01318359375 61.88444519042969 121.04330444335938 59.361053466796875 131.21493530273438 57.77418518066406 136.13162231445313 57.019775390625 138.655029296875 56.603546142578125 140.97027587890625 56.23933410644531 141.98483276367188 56.05723571777344 142.63522338867188 55.95317077636719 143.12945556640625 55.87513732910156 143.6497802734375 55.84912109375 143.909912109375 55.84912109375 144.846435546875 56.083251953125 145.8349609375 56.78564453125 146.84954833984375 58.78874206542969 146.25115966796875 63.393280029296875 145.65289306640625 69.63671875 144.32614135742188 77.07684326171875 142.55718994140625 84.98521423339844 140.13784790039063 93.1797332763672 138.94119262695313 99.18904113769533 137.58843994140625 104.4959716796875 137.53640747070313 107.12342834472656 137.250244140625 110.2971649169922 137.53640747070313 113.757080078125 137.38031005859375 116.20242309570313 137.38031005859375 116.20242309570313 " />
        <polyline stroke="black" stroke-width="3" stroke-linecap="round" fill="transparent" stroke-linejoin="round" points="111.47000122070313 81.31718444824219 116.90701293945313 80.69284057617188 127.33880615234376 81.49928283691406 134.59677124023438 84.69905090332031 138.49896240234375 88.65322875976563 138.49896240234375 88.65322875976563 " />
        <polyline stroke="black" stroke-width="3" stroke-linecap="round" fill="transparent" stroke-linejoin="round" points="110.11724853515624 110.08905029296876 123.748779296875 106.91529846191406 136.8079833984375 106.91529846191406 145.05453491210938 108.970458984375 145.05453491210938 108.970458984375 " />
        <polyline stroke="black" stroke-width="3" stroke-linecap="round" fill="transparent" stroke-linejoin="round" points="121.51156616210938 125.2034149169922 122.8382568359375 132.1232147216797 125.3616943359375 140.8900604248047 125.54379272460938 143.4134521484375 125.54379272460938 143.4134521484375 " />
        <polyline stroke="black" stroke-width="3" stroke-linecap="round" fill="transparent" stroke-linejoin="round" points="74.73776245117188 153.4550018310547 95.62728881835938 148.0179901123047 123.54067993164063 143.36141967773438 152.156494140625 139.17312622070313 176.167724609375 137.248046875 194.1436767578125 137.14398193359375 207.8531494140625 138.47073364257813 214.04461669921875 141.17620849609375 214.4088134765625 141.33230590820313 214.4088134765625 141.33230590820313 " />
        </svg>