<?xml version="1.0" standalone="no"?>
    <svg width="256" height="256" xmlns="http://www.w3.org/2000/svg" version="1.1">
    <polyline stroke="black" stroke-width="3" stroke-linecap="round" fill="transparent" stroke-linejoin="round" points="67.9847412109375 99.9019775390625 70.74765014648438 111.63861083984376 73.09979248046875 121.99626159667967 76.42953491210938 136.3568115234375 77.65936279296875 140.76205444335938 77.66708374023438 140.7874755859375 77.6676025390625 140.789306640625 77.66778564453125 140.78973388671875 76.88864135742188 135.01861572265625 76.2666015625 119.10411071777344 77.17913818359375 113.29165649414063 81.91220092773438 104.05267333984376 86.09222412109375 99.18644714355467 98.51678466796876 88.8427734375 105.99005126953124 83.67974853515625 126.73406982421876 71.44329833984375 143.52923583984375 66.70944213867188 158.71868896484375 67.03973388671875 165.28173828125 73.16925048828125 167.8470458984375 78.27639770507813 173.9847412109375 92.84808349609376 175.96826171875 100.8477783203125 175.885498046875 112.31655883789063 173.51043701171875 116.8511962890625 169.70404052734375 122.43064880371094 169.3233642578125 122.98858642578124 " />
        <polyline stroke="black" stroke-width="3" stroke-linecap="round" fill="transparent" stroke-linejoin="round" points="108.50546264648438 107.8287353515625 121.57919311523438 105.40505981445313 136.35125732421875 103.58457946777344 156.593994140625 103.92721557617188 160.98773193359375 104.77780151367188 162.71282958984375 105.20590209960938 162.72509765625 105.20892333984376 162.72796630859375 105.20964050292967 162.72894287109375 105.20993041992188 " />
        <polyline stroke="black" stroke-width="3" stroke-linecap="round" fill="transparent" stroke-linejoin="round" points="124.54315185546876 135.32542419433594 129.899658203125 133.89816284179688 135.123046875 132.86497497558594 141.10348510742188 132.440185546875 159.835693359375 133.11558532714844 160.63604736328125 133.3639373779297 160.71484375 133.38839721679688 160.7205810546875 133.39016723632813 " />
        <polyline stroke="black" stroke-width="3" stroke-linecap="round" fill="transparent" stroke-linejoin="round" points="129.74020385742188 135.1195068359375 132.11932373046875 139.58653259277344 134.24935913085938 145.9862060546875 135.748779296875 152.8509979248047 135.09814453125 165.733154296875 122.91339111328124 178.6285858154297 118.049560546875 184.35565185546875 106.56527709960938 198.08843994140625 105.8199462890625 198.92694091796875 " />
        <polyline stroke="black" stroke-width="3" stroke-linecap="round" fill="transparent" stroke-linejoin="round" points="78.28524780273438 184.15603637695313 97.982666015625 183.77305603027344 107.40560913085938 184.8125915527344 142.138671875 188.58035278320313 152.29168701171875 190.14761352539065 180.459716796875 192.78677368164065 190.5675048828125 194.0467529296875 196.36859130859375 194.72238159179688 200.6793212890625 195.45672607421875 208.61572265625 197.3489990234375 209.5126953125 198.26275634765625 209.519287109375 198.26947021484375 " />
        </svg>